<?xml version="1.0" encoding="utf-8"?>
<svg xmlns="http://www.w3.org/2000/svg" xmlns:xlink="http://www.w3.org/1999/xlink" width="600" height="400" viewBox="0 0 2400 1600">
<defs>
  <clipPath id="clip130">
    <rect x="0" y="0" width="2400" height="1600"/>
  </clipPath>
</defs>
<path clip-path="url(#clip130)" d="M0 1600 L2400 1600 L2400 0 L0 0  Z" fill="#ffffff" fill-rule="evenodd" fill-opacity="1"/>
<defs>
  <clipPath id="clip131">
    <rect x="480" y="0" width="1681" height="1600"/>
  </clipPath>
</defs>
<path clip-path="url(#clip130)" d="M251.56 1423.18 L2352.76 1423.18 L2352.76 123.472 L251.56 123.472  Z" fill="#ffffff" fill-rule="evenodd" fill-opacity="1"/>
<defs>
  <clipPath id="clip132">
    <rect x="251" y="123" width="2102" height="1301"/>
  </clipPath>
</defs>
<polyline clip-path="url(#clip132)" style="stroke:#000000; stroke-linecap:round; stroke-linejoin:round; stroke-width:2; stroke-opacity:0.1; fill:none" points="263.831,1423.18 263.831,123.472 "/>
<polyline clip-path="url(#clip132)" style="stroke:#000000; stroke-linecap:round; stroke-linejoin:round; stroke-width:2; stroke-opacity:0.1; fill:none" points="735.798,1423.18 735.798,123.472 "/>
<polyline clip-path="url(#clip132)" style="stroke:#000000; stroke-linecap:round; stroke-linejoin:round; stroke-width:2; stroke-opacity:0.1; fill:none" points="1207.76,1423.18 1207.76,123.472 "/>
<polyline clip-path="url(#clip132)" style="stroke:#000000; stroke-linecap:round; stroke-linejoin:round; stroke-width:2; stroke-opacity:0.1; fill:none" points="1679.73,1423.18 1679.73,123.472 "/>
<polyline clip-path="url(#clip132)" style="stroke:#000000; stroke-linecap:round; stroke-linejoin:round; stroke-width:2; stroke-opacity:0.1; fill:none" points="2151.7,1423.18 2151.7,123.472 "/>
<polyline clip-path="url(#clip130)" style="stroke:#000000; stroke-linecap:round; stroke-linejoin:round; stroke-width:4; stroke-opacity:1; fill:none" points="251.56,1423.18 2352.76,1423.18 "/>
<polyline clip-path="url(#clip130)" style="stroke:#000000; stroke-linecap:round; stroke-linejoin:round; stroke-width:4; stroke-opacity:1; fill:none" points="263.831,1423.18 263.831,1404.28 "/>
<polyline clip-path="url(#clip130)" style="stroke:#000000; stroke-linecap:round; stroke-linejoin:round; stroke-width:4; stroke-opacity:1; fill:none" points="735.798,1423.18 735.798,1404.28 "/>
<polyline clip-path="url(#clip130)" style="stroke:#000000; stroke-linecap:round; stroke-linejoin:round; stroke-width:4; stroke-opacity:1; fill:none" points="1207.76,1423.18 1207.76,1404.28 "/>
<polyline clip-path="url(#clip130)" style="stroke:#000000; stroke-linecap:round; stroke-linejoin:round; stroke-width:4; stroke-opacity:1; fill:none" points="1679.73,1423.18 1679.73,1404.28 "/>
<polyline clip-path="url(#clip130)" style="stroke:#000000; stroke-linecap:round; stroke-linejoin:round; stroke-width:4; stroke-opacity:1; fill:none" points="2151.7,1423.18 2151.7,1404.28 "/>
<path clip-path="url(#clip130)" d="M263.831 1454.1 Q260.22 1454.1 258.392 1457.66 Q256.586 1461.2 256.586 1468.33 Q256.586 1475.44 258.392 1479.01 Q260.22 1482.55 263.831 1482.55 Q267.466 1482.55 269.271 1479.01 Q271.1 1475.44 271.1 1468.33 Q271.1 1461.2 269.271 1457.66 Q267.466 1454.1 263.831 1454.1 M263.831 1450.39 Q269.642 1450.39 272.697 1455 Q275.776 1459.58 275.776 1468.33 Q275.776 1477.06 272.697 1481.67 Q269.642 1486.25 263.831 1486.25 Q258.021 1486.25 254.943 1481.67 Q251.887 1477.06 251.887 1468.33 Q251.887 1459.58 254.943 1455 Q258.021 1450.39 263.831 1450.39 Z" fill="#000000" fill-rule="nonzero" fill-opacity="1" /><path clip-path="url(#clip130)" d="M710.486 1481.64 L718.125 1481.64 L718.125 1455.28 L709.814 1456.95 L709.814 1452.69 L718.078 1451.02 L722.754 1451.02 L722.754 1481.64 L730.393 1481.64 L730.393 1485.58 L710.486 1485.58 L710.486 1481.64 Z" fill="#000000" fill-rule="nonzero" fill-opacity="1" /><path clip-path="url(#clip130)" d="M749.837 1454.1 Q746.226 1454.1 744.398 1457.66 Q742.592 1461.2 742.592 1468.33 Q742.592 1475.44 744.398 1479.01 Q746.226 1482.55 749.837 1482.55 Q753.472 1482.55 755.277 1479.01 Q757.106 1475.44 757.106 1468.33 Q757.106 1461.2 755.277 1457.66 Q753.472 1454.1 749.837 1454.1 M749.837 1450.39 Q755.647 1450.39 758.703 1455 Q761.782 1459.58 761.782 1468.33 Q761.782 1477.06 758.703 1481.67 Q755.647 1486.25 749.837 1486.25 Q744.027 1486.25 740.948 1481.67 Q737.893 1477.06 737.893 1468.33 Q737.893 1459.58 740.948 1455 Q744.027 1450.39 749.837 1450.39 Z" fill="#000000" fill-rule="nonzero" fill-opacity="1" /><path clip-path="url(#clip130)" d="M1186.54 1481.64 L1202.86 1481.64 L1202.86 1485.58 L1180.91 1485.58 L1180.91 1481.64 Q1183.58 1478.89 1188.16 1474.26 Q1192.76 1469.61 1193.95 1468.27 Q1196.19 1465.74 1197.07 1464.01 Q1197.97 1462.25 1197.97 1460.56 Q1197.97 1457.8 1196.03 1456.07 Q1194.11 1454.33 1191.01 1454.33 Q1188.81 1454.33 1186.35 1455.09 Q1183.92 1455.86 1181.14 1457.41 L1181.14 1452.69 Q1183.97 1451.55 1186.42 1450.97 Q1188.88 1450.39 1190.91 1450.39 Q1196.28 1450.39 1199.48 1453.08 Q1202.67 1455.77 1202.67 1460.26 Q1202.67 1462.39 1201.86 1464.31 Q1201.07 1466.2 1198.97 1468.8 Q1198.39 1469.47 1195.29 1472.69 Q1192.19 1475.88 1186.54 1481.64 Z" fill="#000000" fill-rule="nonzero" fill-opacity="1" /><path clip-path="url(#clip130)" d="M1222.67 1454.1 Q1219.06 1454.1 1217.23 1457.66 Q1215.43 1461.2 1215.43 1468.33 Q1215.43 1475.44 1217.23 1479.01 Q1219.06 1482.55 1222.67 1482.55 Q1226.31 1482.55 1228.11 1479.01 Q1229.94 1475.44 1229.94 1468.33 Q1229.94 1461.2 1228.11 1457.66 Q1226.31 1454.1 1222.67 1454.1 M1222.67 1450.39 Q1228.48 1450.39 1231.54 1455 Q1234.62 1459.58 1234.62 1468.33 Q1234.62 1477.06 1231.54 1481.67 Q1228.48 1486.25 1222.67 1486.25 Q1216.86 1486.25 1213.78 1481.67 Q1210.73 1477.06 1210.73 1468.33 Q1210.73 1459.58 1213.78 1455 Q1216.86 1450.39 1222.67 1450.39 Z" fill="#000000" fill-rule="nonzero" fill-opacity="1" /><path clip-path="url(#clip130)" d="M1668.57 1466.95 Q1671.93 1467.66 1673.81 1469.93 Q1675.7 1472.2 1675.7 1475.53 Q1675.7 1480.65 1672.19 1483.45 Q1668.67 1486.25 1662.19 1486.25 Q1660.01 1486.25 1657.69 1485.81 Q1655.4 1485.39 1652.95 1484.54 L1652.95 1480.02 Q1654.89 1481.16 1657.21 1481.74 Q1659.52 1482.32 1662.05 1482.32 Q1666.44 1482.32 1668.74 1480.58 Q1671.05 1478.84 1671.05 1475.53 Q1671.05 1472.48 1668.9 1470.77 Q1666.77 1469.03 1662.95 1469.03 L1658.92 1469.03 L1658.92 1465.19 L1663.13 1465.19 Q1666.58 1465.19 1668.41 1463.82 Q1670.24 1462.43 1670.24 1459.84 Q1670.24 1457.18 1668.34 1455.77 Q1666.47 1454.33 1662.95 1454.33 Q1661.03 1454.33 1658.83 1454.75 Q1656.63 1455.16 1653.99 1456.04 L1653.99 1451.88 Q1656.65 1451.14 1658.97 1450.77 Q1661.31 1450.39 1663.37 1450.39 Q1668.69 1450.39 1671.79 1452.83 Q1674.89 1455.23 1674.89 1459.35 Q1674.89 1462.22 1673.25 1464.21 Q1671.61 1466.18 1668.57 1466.95 Z" fill="#000000" fill-rule="nonzero" fill-opacity="1" /><path clip-path="url(#clip130)" d="M1694.57 1454.1 Q1690.96 1454.1 1689.13 1457.66 Q1687.32 1461.2 1687.32 1468.33 Q1687.32 1475.44 1689.13 1479.01 Q1690.96 1482.55 1694.57 1482.55 Q1698.2 1482.55 1700.01 1479.01 Q1701.84 1475.44 1701.84 1468.33 Q1701.84 1461.2 1700.01 1457.66 Q1698.2 1454.1 1694.57 1454.1 M1694.57 1450.39 Q1700.38 1450.39 1703.43 1455 Q1706.51 1459.58 1706.51 1468.33 Q1706.51 1477.06 1703.43 1481.67 Q1700.38 1486.25 1694.57 1486.25 Q1688.76 1486.25 1685.68 1481.67 Q1682.62 1477.06 1682.62 1468.33 Q1682.62 1459.58 1685.68 1455 Q1688.76 1450.39 1694.57 1450.39 Z" fill="#000000" fill-rule="nonzero" fill-opacity="1" /><path clip-path="url(#clip130)" d="M2139.87 1455.09 L2128.06 1473.54 L2139.87 1473.54 L2139.87 1455.09 M2138.64 1451.02 L2144.52 1451.02 L2144.52 1473.54 L2149.45 1473.54 L2149.45 1477.43 L2144.52 1477.43 L2144.52 1485.58 L2139.87 1485.58 L2139.87 1477.43 L2124.27 1477.43 L2124.27 1472.92 L2138.64 1451.02 Z" fill="#000000" fill-rule="nonzero" fill-opacity="1" /><path clip-path="url(#clip130)" d="M2167.18 1454.1 Q2163.57 1454.1 2161.74 1457.66 Q2159.94 1461.2 2159.94 1468.33 Q2159.94 1475.44 2161.74 1479.01 Q2163.57 1482.55 2167.18 1482.55 Q2170.82 1482.55 2172.62 1479.01 Q2174.45 1475.44 2174.45 1468.33 Q2174.45 1461.2 2172.62 1457.66 Q2170.82 1454.1 2167.18 1454.1 M2167.18 1450.39 Q2172.99 1450.39 2176.05 1455 Q2179.13 1459.58 2179.13 1468.33 Q2179.13 1477.06 2176.05 1481.67 Q2172.99 1486.25 2167.18 1486.25 Q2161.37 1486.25 2158.3 1481.67 Q2155.24 1477.06 2155.24 1468.33 Q2155.24 1459.58 2158.3 1455 Q2161.37 1450.39 2167.18 1450.39 Z" fill="#000000" fill-rule="nonzero" fill-opacity="1" /><path clip-path="url(#clip130)" d="M1286.34 1518.52 L1292.23 1518.52 L1292.23 1547.77 L1309.7 1532.4 L1317.18 1532.4 L1298.27 1549.07 L1317.98 1568.04 L1310.34 1568.04 L1292.23 1550.63 L1292.23 1568.04 L1286.34 1568.04 L1286.34 1518.52 Z" fill="#000000" fill-rule="nonzero" fill-opacity="1" /><polyline clip-path="url(#clip132)" style="stroke:#000000; stroke-linecap:round; stroke-linejoin:round; stroke-width:2; stroke-opacity:0.1; fill:none" points="251.56,1202.28 2352.76,1202.28 "/>
<polyline clip-path="url(#clip132)" style="stroke:#000000; stroke-linecap:round; stroke-linejoin:round; stroke-width:2; stroke-opacity:0.1; fill:none" points="251.56,398.16 2352.76,398.16 "/>
<polyline clip-path="url(#clip130)" style="stroke:#000000; stroke-linecap:round; stroke-linejoin:round; stroke-width:4; stroke-opacity:1; fill:none" points="251.56,1423.18 251.56,123.472 "/>
<polyline clip-path="url(#clip130)" style="stroke:#000000; stroke-linecap:round; stroke-linejoin:round; stroke-width:4; stroke-opacity:1; fill:none" points="251.56,1202.28 270.458,1202.28 "/>
<polyline clip-path="url(#clip130)" style="stroke:#000000; stroke-linecap:round; stroke-linejoin:round; stroke-width:4; stroke-opacity:1; fill:none" points="251.56,398.16 270.458,398.16 "/>
<path clip-path="url(#clip130)" d="M114.931 1222.07 L122.57 1222.07 L122.57 1195.71 L114.26 1197.37 L114.26 1193.11 L122.524 1191.45 L127.2 1191.45 L127.2 1222.07 L134.839 1222.07 L134.839 1226.01 L114.931 1226.01 L114.931 1222.07 Z" fill="#000000" fill-rule="nonzero" fill-opacity="1" /><path clip-path="url(#clip130)" d="M154.283 1194.53 Q150.672 1194.53 148.843 1198.09 Q147.038 1201.63 147.038 1208.76 Q147.038 1215.87 148.843 1219.43 Q150.672 1222.97 154.283 1222.97 Q157.917 1222.97 159.723 1219.43 Q161.552 1215.87 161.552 1208.76 Q161.552 1201.63 159.723 1198.09 Q157.917 1194.53 154.283 1194.53 M154.283 1190.82 Q160.093 1190.82 163.149 1195.43 Q166.227 1200.01 166.227 1208.76 Q166.227 1217.49 163.149 1222.09 Q160.093 1226.68 154.283 1226.68 Q148.473 1226.68 145.394 1222.09 Q142.339 1217.49 142.339 1208.76 Q142.339 1200.01 145.394 1195.43 Q148.473 1190.82 154.283 1190.82 Z" fill="#000000" fill-rule="nonzero" fill-opacity="1" /><path clip-path="url(#clip130)" d="M166.227 1184.92 L190.339 1184.92 L190.339 1188.12 L166.227 1188.12 L166.227 1184.92 Z" fill="#000000" fill-rule="nonzero" fill-opacity="1" /><path clip-path="url(#clip130)" d="M198.577 1170.52 L213.491 1170.52 L213.491 1173.71 L202.056 1173.71 L202.056 1180.6 Q202.884 1180.32 203.711 1180.18 Q204.539 1180.03 205.366 1180.03 Q210.068 1180.03 212.814 1182.61 Q215.56 1185.19 215.56 1189.59 Q215.56 1194.12 212.739 1196.64 Q209.918 1199.14 204.783 1199.14 Q203.015 1199.14 201.172 1198.84 Q199.348 1198.54 197.392 1197.94 L197.392 1194.12 Q199.085 1195.04 200.89 1195.49 Q202.696 1195.94 204.708 1195.94 Q207.962 1195.94 209.861 1194.23 Q211.761 1192.52 211.761 1189.59 Q211.761 1186.65 209.861 1184.94 Q207.962 1183.23 204.708 1183.23 Q203.185 1183.23 201.661 1183.57 Q200.157 1183.91 198.577 1184.62 L198.577 1170.52 Z" fill="#000000" fill-rule="nonzero" fill-opacity="1" /><path clip-path="url(#clip130)" d="M144.855 417.953 L152.493 417.953 L152.493 391.587 L144.183 393.254 L144.183 388.994 L152.447 387.328 L157.123 387.328 L157.123 417.953 L164.762 417.953 L164.762 421.888 L144.855 421.888 L144.855 417.953 Z" fill="#000000" fill-rule="nonzero" fill-opacity="1" /><path clip-path="url(#clip130)" d="M184.206 390.406 Q180.595 390.406 178.766 393.971 Q176.961 397.513 176.961 404.642 Q176.961 411.749 178.766 415.314 Q180.595 418.855 184.206 418.855 Q187.84 418.855 189.646 415.314 Q191.475 411.749 191.475 404.642 Q191.475 397.513 189.646 393.971 Q187.84 390.406 184.206 390.406 M184.206 386.703 Q190.016 386.703 193.072 391.309 Q196.151 395.892 196.151 404.642 Q196.151 413.369 193.072 417.976 Q190.016 422.559 184.206 422.559 Q178.396 422.559 175.317 417.976 Q172.262 413.369 172.262 404.642 Q172.262 395.892 175.317 391.309 Q178.396 386.703 184.206 386.703 Z" fill="#000000" fill-rule="nonzero" fill-opacity="1" /><path clip-path="url(#clip130)" d="M205.855 368.899 Q202.921 368.899 201.436 371.795 Q199.969 374.673 199.969 380.466 Q199.969 386.239 201.436 389.136 Q202.921 392.013 205.855 392.013 Q208.808 392.013 210.275 389.136 Q211.761 386.239 211.761 380.466 Q211.761 374.673 210.275 371.795 Q208.808 368.899 205.855 368.899 M205.855 365.889 Q210.576 365.889 213.059 369.632 Q215.56 373.356 215.56 380.466 Q215.56 387.556 213.059 391.299 Q210.576 395.023 205.855 395.023 Q201.135 395.023 198.633 391.299 Q196.151 387.556 196.151 380.466 Q196.151 373.356 198.633 369.632 Q201.135 365.889 205.855 365.889 Z" fill="#000000" fill-rule="nonzero" fill-opacity="1" /><path clip-path="url(#clip130)" d="M32.4621 801.797 Q32.4621 806.507 36.1542 809.244 Q39.8145 811.982 46.212 811.982 Q52.6095 811.982 56.3017 809.276 Q59.9619 806.539 59.9619 801.797 Q59.9619 797.118 56.2698 794.381 Q52.5777 791.643 46.212 791.643 Q39.8781 791.643 36.186 794.381 Q32.4621 797.118 32.4621 801.797 M27.4968 801.797 Q27.4968 794.158 32.4621 789.797 Q37.4273 785.437 46.212 785.437 Q54.9649 785.437 59.9619 789.797 Q64.9272 794.158 64.9272 801.797 Q64.9272 809.467 59.9619 813.828 Q54.9649 818.156 46.212 818.156 Q37.4273 818.156 32.4621 813.828 Q27.4968 809.467 27.4968 801.797 Z" fill="#000000" fill-rule="nonzero" fill-opacity="1" /><path clip-path="url(#clip130)" d="M46.212 750.139 Q39.7508 750.139 36.0905 752.812 Q32.3984 755.454 32.3984 760.101 Q32.3984 764.748 36.0905 767.422 Q39.7508 770.064 46.212 770.064 Q52.6732 770.064 56.3653 767.422 Q60.0256 764.748 60.0256 760.101 Q60.0256 755.454 56.3653 752.812 Q52.6732 750.139 46.212 750.139 M33.7671 770.064 Q30.5842 768.218 29.0564 765.417 Q27.4968 762.584 27.4968 758.669 Q27.4968 752.176 32.6531 748.134 Q37.8093 744.06 46.212 744.06 Q54.6147 744.06 59.771 748.134 Q64.9272 752.176 64.9272 758.669 Q64.9272 762.584 63.3994 765.417 Q61.8398 768.218 58.657 770.064 L64.0042 770.064 L64.0042 775.952 L14.479 775.952 L14.479 770.064 L33.7671 770.064 Z" fill="#000000" fill-rule="nonzero" fill-opacity="1" /><path clip-path="url(#clip130)" d="M28.3562 734.352 L28.3562 728.495 L64.6407 728.495 Q71.452 728.495 74.5076 731.105 Q77.5631 733.684 77.5631 739.445 L77.5631 741.673 L72.5979 741.673 L72.5979 740.113 Q72.5979 736.771 71.0383 735.561 Q69.5105 734.352 64.6407 734.352 L28.3562 734.352 M14.479 734.352 L14.479 728.495 L21.895 728.495 L21.895 734.352 L14.479 734.352 Z" fill="#000000" fill-rule="nonzero" fill-opacity="1" /><path clip-path="url(#clip130)" d="M979.382 65.7705 L979.382 89.8329 L971.888 89.8329 L971.888 27.2059 L979.382 27.2059 L979.382 34.0924 Q981.732 30.0415 985.296 28.0971 Q988.902 26.1121 993.884 26.1121 Q1002.15 26.1121 1007.29 32.6746 Q1012.48 39.2371 1012.48 49.9314 Q1012.48 60.6258 1007.29 67.1883 Q1002.15 73.7508 993.884 73.7508 Q988.902 73.7508 985.296 71.8063 Q981.732 69.8214 979.382 65.7705 M1004.74 49.9314 Q1004.74 41.7081 1001.34 37.0496 Q997.976 32.3505 992.061 32.3505 Q986.147 32.3505 982.744 37.0496 Q979.382 41.7081 979.382 49.9314 Q979.382 58.1548 982.744 62.8538 Q986.147 67.5124 992.061 67.5124 Q997.976 67.5124 1001.34 62.8538 Q1004.74 58.1548 1004.74 49.9314 Z" fill="#000000" fill-rule="nonzero" fill-opacity="1" /><path clip-path="url(#clip130)" d="M1051.12 34.1734 Q1049.87 33.4443 1048.37 33.1202 Q1046.91 32.7556 1045.13 32.7556 Q1038.81 32.7556 1035.41 36.8875 Q1032.04 40.9789 1032.04 48.6757 L1032.04 72.576 L1024.55 72.576 L1024.55 27.2059 L1032.04 27.2059 L1032.04 34.2544 Q1034.39 30.1225 1038.16 28.1376 Q1041.93 26.1121 1047.32 26.1121 Q1048.09 26.1121 1049.02 26.2337 Q1049.95 26.3147 1051.08 26.5172 L1051.12 34.1734 Z" fill="#000000" fill-rule="nonzero" fill-opacity="1" /><path clip-path="url(#clip130)" d="M1074.7 32.4315 Q1068.7 32.4315 1065.22 37.1306 Q1061.74 41.7891 1061.74 49.9314 Q1061.74 58.0738 1065.18 62.7728 Q1068.66 67.4314 1074.7 67.4314 Q1080.65 67.4314 1084.14 62.7323 Q1087.62 58.0333 1087.62 49.9314 Q1087.62 41.8701 1084.14 37.1711 Q1080.65 32.4315 1074.7 32.4315 M1074.7 26.1121 Q1084.42 26.1121 1089.97 32.4315 Q1095.52 38.7509 1095.52 49.9314 Q1095.52 61.0714 1089.97 67.4314 Q1084.42 73.7508 1074.7 73.7508 Q1064.94 73.7508 1059.39 67.4314 Q1053.88 61.0714 1053.88 49.9314 Q1053.88 38.7509 1059.39 32.4315 Q1064.94 26.1121 1074.7 26.1121 Z" fill="#000000" fill-rule="nonzero" fill-opacity="1" /><path clip-path="url(#clip130)" d="M1140.45 49.9314 Q1140.45 41.7081 1137.04 37.0496 Q1133.68 32.3505 1127.77 32.3505 Q1121.85 32.3505 1118.45 37.0496 Q1115.09 41.7081 1115.09 49.9314 Q1115.09 58.1548 1118.45 62.8538 Q1121.85 67.5124 1127.77 67.5124 Q1133.68 67.5124 1137.04 62.8538 Q1140.45 58.1548 1140.45 49.9314 M1115.09 34.0924 Q1117.44 30.0415 1121 28.0971 Q1124.61 26.1121 1129.59 26.1121 Q1137.85 26.1121 1143 32.6746 Q1148.18 39.2371 1148.18 49.9314 Q1148.18 60.6258 1143 67.1883 Q1137.85 73.7508 1129.59 73.7508 Q1124.61 73.7508 1121 71.8063 Q1117.44 69.8214 1115.09 65.7705 L1115.09 72.576 L1107.59 72.576 L1107.59 9.54393 L1115.09 9.54393 L1115.09 34.0924 Z" fill="#000000" fill-rule="nonzero" fill-opacity="1" /><path clip-path="url(#clip130)" d="M1160.54 9.54393 L1167.99 9.54393 L1167.99 72.576 L1160.54 72.576 L1160.54 9.54393 Z" fill="#000000" fill-rule="nonzero" fill-opacity="1" /><path clip-path="url(#clip130)" d="M1222.4 48.0275 L1222.4 51.6733 L1188.13 51.6733 Q1188.61 59.3701 1192.74 63.421 Q1196.92 67.4314 1204.33 67.4314 Q1208.62 67.4314 1212.63 66.3781 Q1216.68 65.3249 1220.65 63.2184 L1220.65 70.267 Q1216.64 71.9684 1212.43 72.8596 Q1208.22 73.7508 1203.88 73.7508 Q1193.03 73.7508 1186.67 67.4314 Q1180.35 61.1119 1180.35 50.3365 Q1180.35 39.1965 1186.34 32.6746 Q1192.38 26.1121 1202.59 26.1121 Q1211.74 26.1121 1217.05 32.0264 Q1222.4 37.9003 1222.4 48.0275 M1214.94 45.84 Q1214.86 39.7232 1211.5 36.0774 Q1208.18 32.4315 1202.67 32.4315 Q1196.43 32.4315 1192.66 35.9558 Q1188.94 39.4801 1188.37 45.8805 L1214.94 45.84 M1196.27 6.22219 L1207.69 21.3726 L1201.49 21.3726 L1188.29 6.22219 L1196.27 6.22219 Z" fill="#000000" fill-rule="nonzero" fill-opacity="1" /><path clip-path="url(#clip130)" d="M1269.95 35.9153 Q1272.75 30.8922 1276.64 28.5022 Q1280.53 26.1121 1285.79 26.1121 Q1292.88 26.1121 1296.73 31.0947 Q1300.58 36.0368 1300.58 45.1919 L1300.58 72.576 L1293.08 72.576 L1293.08 45.4349 Q1293.08 38.913 1290.78 35.7533 Q1288.47 32.5936 1283.73 32.5936 Q1277.93 32.5936 1274.57 36.4419 Q1271.21 40.2903 1271.21 46.9338 L1271.21 72.576 L1263.71 72.576 L1263.71 45.4349 Q1263.71 38.8725 1261.41 35.7533 Q1259.1 32.5936 1254.28 32.5936 Q1248.56 32.5936 1245.2 36.4824 Q1241.84 40.3308 1241.84 46.9338 L1241.84 72.576 L1234.35 72.576 L1234.35 27.2059 L1241.84 27.2059 L1241.84 34.2544 Q1244.39 30.082 1247.96 28.0971 Q1251.52 26.1121 1256.42 26.1121 Q1261.37 26.1121 1264.81 28.6237 Q1268.29 31.1352 1269.95 35.9153 Z" fill="#000000" fill-rule="nonzero" fill-opacity="1" /><path clip-path="url(#clip130)" d="M1354.25 48.0275 L1354.25 51.6733 L1319.98 51.6733 Q1320.47 59.3701 1324.6 63.421 Q1328.77 67.4314 1336.19 67.4314 Q1340.48 67.4314 1344.49 66.3781 Q1348.54 65.3249 1352.51 63.2184 L1352.51 70.267 Q1348.5 71.9684 1344.29 72.8596 Q1340.07 73.7508 1335.74 73.7508 Q1324.88 73.7508 1318.52 67.4314 Q1312.2 61.1119 1312.2 50.3365 Q1312.2 39.1965 1318.2 32.6746 Q1324.24 26.1121 1334.44 26.1121 Q1343.6 26.1121 1348.91 32.0264 Q1354.25 37.9003 1354.25 48.0275 M1346.8 45.84 Q1346.72 39.7232 1343.36 36.0774 Q1340.03 32.4315 1334.52 32.4315 Q1328.29 32.4315 1324.52 35.9558 Q1320.79 39.4801 1320.23 45.8805 L1346.8 45.84 Z" fill="#000000" fill-rule="nonzero" fill-opacity="1" /><path clip-path="url(#clip130)" d="M1394.76 62.2867 L1403.31 62.2867 L1403.31 72.576 L1394.76 72.576 L1394.76 62.2867 M1394.76 29.6769 L1403.31 29.6769 L1403.31 39.9662 L1394.76 39.9662 L1394.76 29.6769 Z" fill="#000000" fill-rule="nonzero" fill-opacity="1" /><path clip-path="url(#clip130)" d="M1484.89 45.1919 L1484.89 72.576 L1477.44 72.576 L1477.44 45.4349 Q1477.44 38.994 1474.93 35.7938 Q1472.42 32.5936 1467.39 32.5936 Q1461.36 32.5936 1457.87 36.4419 Q1454.39 40.2903 1454.39 46.9338 L1454.39 72.576 L1446.9 72.576 L1446.9 9.54393 L1454.39 9.54393 L1454.39 34.2544 Q1457.06 30.163 1460.67 28.1376 Q1464.32 26.1121 1469.06 26.1121 Q1476.87 26.1121 1480.88 30.9732 Q1484.89 35.7938 1484.89 45.1919 Z" fill="#000000" fill-rule="nonzero" fill-opacity="1" /><path clip-path="url(#clip130)" d="M1528.68 28.5427 L1528.68 35.5912 Q1525.52 33.9709 1522.12 33.1607 Q1518.72 32.3505 1515.07 32.3505 Q1509.52 32.3505 1506.73 34.0519 Q1503.97 35.7533 1503.97 39.156 Q1503.97 41.7486 1505.96 43.2475 Q1507.94 44.7058 1513.94 46.0426 L1516.49 46.6097 Q1524.43 48.3111 1527.75 51.4303 Q1531.12 54.509 1531.12 60.0587 Q1531.12 66.3781 1526.09 70.0644 Q1521.11 73.7508 1512.36 73.7508 Q1508.71 73.7508 1504.74 73.0216 Q1500.81 72.3329 1496.44 70.9151 L1496.44 63.2184 Q1500.57 65.3654 1504.58 66.4591 Q1508.59 67.5124 1512.52 67.5124 Q1517.79 67.5124 1520.62 65.73 Q1523.46 63.9071 1523.46 60.6258 Q1523.46 57.5877 1521.39 55.9673 Q1519.37 54.3469 1512.44 52.8481 L1509.85 52.2405 Q1502.92 50.7821 1499.84 47.7845 Q1496.76 44.7463 1496.76 39.4801 Q1496.76 33.0797 1501.3 29.5959 Q1505.84 26.1121 1514.18 26.1121 Q1518.31 26.1121 1521.96 26.7198 Q1525.61 27.3274 1528.68 28.5427 Z" fill="#000000" fill-rule="nonzero" fill-opacity="1" /><path clip-path="url(#clip130)" d="M1561.54 17.4837 Q1555.22 17.4837 1552.02 23.7221 Q1548.86 29.92 1548.86 42.3968 Q1548.86 54.833 1552.02 61.0714 Q1555.22 67.2693 1561.54 67.2693 Q1567.9 67.2693 1571.06 61.0714 Q1574.26 54.833 1574.26 42.3968 Q1574.26 29.92 1571.06 23.7221 Q1567.9 17.4837 1561.54 17.4837 M1561.54 11.0023 Q1571.71 11.0023 1577.05 19.0636 Q1582.44 27.0843 1582.44 42.3968 Q1582.44 57.6687 1577.05 65.73 Q1571.71 73.7508 1561.54 73.7508 Q1551.37 73.7508 1545.98 65.73 Q1540.63 57.6687 1540.63 42.3968 Q1540.63 27.0843 1545.98 19.0636 Q1551.37 11.0023 1561.54 11.0023 Z" fill="#000000" fill-rule="nonzero" fill-opacity="1" /><path clip-path="url(#clip130)" d="M1603.87 65.6895 L1632.43 65.6895 L1632.43 72.576 L1594.03 72.576 L1594.03 65.6895 Q1598.68 60.8689 1606.71 52.7671 Q1614.77 44.6248 1616.83 42.2752 Q1620.76 37.8598 1622.3 34.8216 Q1623.88 31.7429 1623.88 28.7857 Q1623.88 23.9651 1620.48 20.927 Q1617.12 17.8888 1611.69 17.8888 Q1607.84 17.8888 1603.55 19.2256 Q1599.29 20.5624 1594.43 23.2765 L1594.43 15.0127 Q1599.37 13.0277 1603.67 12.015 Q1607.96 11.0023 1611.53 11.0023 Q1620.92 11.0023 1626.51 15.7013 Q1632.1 20.4004 1632.1 28.2591 Q1632.1 31.9859 1630.69 35.3482 Q1629.31 38.6699 1625.62 43.2069 Q1624.61 44.3817 1619.18 50.0125 Q1613.75 55.6027 1603.87 65.6895 Z" fill="#000000" fill-rule="nonzero" fill-opacity="1" /><polyline clip-path="url(#clip132)" style="stroke:#009af9; stroke-linecap:round; stroke-linejoin:round; stroke-width:4; stroke-opacity:1; fill:none" points="311.028,160.256 358.225,160.256 405.421,160.256 452.618,160.256 499.815,160.256 547.011,160.256 594.208,160.256 641.405,175.543 688.601,189.602 735.798,189.602 782.995,317.035 830.191,373.04 877.388,509.742 924.585,610.537 971.781,781.504 1018.98,781.504 1066.17,862.547 1113.37,862.547 1160.57,878.485 1207.76,907.357 1254.96,956.575 1302.16,956.575 1349.35,969.575 1396.55,993.529 1443.75,1035.28 1490.94,1035.28 1538.14,1045.87 1585.34,1065.64 1632.53,1100.8 1679.73,1159.24 "/>
<polyline clip-path="url(#clip132)" style="stroke:#e26f46; stroke-linecap:round; stroke-linejoin:round; stroke-width:4; stroke-opacity:1; fill:none" points="311.028,160.256 358.225,160.256 405.421,160.256 452.618,160.256 499.815,160.256 547.011,160.256 594.208,160.256 641.405,175.543 688.601,189.602 735.798,431.038 782.995,441.681 830.191,693.464 877.388,841.479 924.585,1054.82 971.781,1300.09 "/>
<polyline clip-path="url(#clip132)" style="stroke:#3da44d; stroke-linecap:round; stroke-linejoin:round; stroke-width:4; stroke-opacity:1; fill:none" points="311.028,160.256 358.225,160.256 405.421,160.256 452.618,160.256 499.815,160.256 547.011,160.256 594.208,160.256 641.405,175.543 688.601,189.602 735.798,189.602 782.995,293.551 830.191,293.551 877.388,412.95 924.585,412.95 971.781,417.673 1018.98,421.999 1066.17,429.354 1113.37,440.475 1160.57,455.521 1207.76,476.538 1254.96,508.268 1302.16,558.901 1349.35,640.352 1396.55,763.593 1443.75,763.593 1490.94,818.74 1538.14,886.519 1585.34,886.519 1632.53,906.332 1679.73,941.516 1726.93,941.516 1774.12,950.111 1821.32,966.357 1868.52,995.769 1915.71,1045.81 1962.91,1045.81 2010.11,1059.09 2057.3,1083.52 2104.5,1083.52 2151.7,1089.14 2198.89,1099.96 2246.09,1120.14 2293.29,1155.96 "/>
<polyline clip-path="url(#clip132)" style="stroke:#c271d2; stroke-linecap:round; stroke-linejoin:round; stroke-width:4; stroke-opacity:1; fill:none" points="311.028,160.256 358.225,160.256 405.421,160.256 452.618,160.256 499.815,160.256 547.011,160.256 594.208,160.256 641.405,175.543 688.601,211.07 735.798,320.098 782.995,598.757 830.191,778.049 877.388,1090.68 924.585,1386.4 "/>
<polyline clip-path="url(#clip132)" style="stroke:#ac8d18; stroke-linecap:round; stroke-linejoin:round; stroke-width:4; stroke-opacity:1; fill:none" points="311.028,160.256 358.225,160.256 405.421,160.256 452.618,160.256 499.815,160.256 547.011,160.256 594.208,160.256 641.405,175.543 688.601,189.602 735.798,431.038 782.995,441.681 830.191,693.464 877.388,841.479 924.585,1054.82 971.781,1300.09 "/>
<path clip-path="url(#clip130)" d="M1749.5 477.836 L2282.72 477.836 L2282.72 166.796 L1749.5 166.796  Z" fill="#ffffff" fill-rule="evenodd" fill-opacity="1"/>
<polyline clip-path="url(#clip130)" style="stroke:#000000; stroke-linecap:round; stroke-linejoin:round; stroke-width:4; stroke-opacity:1; fill:none" points="1749.5,477.836 2282.72,477.836 2282.72,166.796 1749.5,166.796 1749.5,477.836 "/>
<polyline clip-path="url(#clip130)" style="stroke:#009af9; stroke-linecap:round; stroke-linejoin:round; stroke-width:4; stroke-opacity:1; fill:none" points="1772.84,218.636 1912.92,218.636 "/>
<path clip-path="url(#clip130)" d="M1936.27 201.356 L1940.95 201.356 L1940.95 231.981 L1957.77 231.981 L1957.77 235.916 L1936.27 235.916 L1936.27 201.356 Z" fill="#000000" fill-rule="nonzero" fill-opacity="1" /><path clip-path="url(#clip130)" d="M1962.68 201.356 L1969.65 201.356 L1978.47 224.874 L1987.33 201.356 L1994.3 201.356 L1994.3 235.916 L1989.74 235.916 L1989.74 205.569 L1980.83 229.272 L1976.13 229.272 L1967.22 205.569 L1967.22 235.916 L1962.68 235.916 L1962.68 201.356 Z" fill="#000000" fill-rule="nonzero" fill-opacity="1" /><path clip-path="url(#clip130)" d="M2023.1 243.786 L2023.1 247.096 L1998.47 247.096 L1998.47 243.786 L2023.1 243.786 Z" fill="#000000" fill-rule="nonzero" fill-opacity="1" /><path clip-path="url(#clip130)" d="M2048 202.49 L2048 207.05 Q2045.34 205.777 2042.98 205.152 Q2040.62 204.527 2038.42 204.527 Q2034.6 204.527 2032.52 206.008 Q2030.46 207.49 2030.46 210.221 Q2030.46 212.513 2031.82 213.694 Q2033.21 214.851 2037.06 215.569 L2039.88 216.147 Q2045.11 217.143 2047.59 219.666 Q2050.09 222.166 2050.09 226.379 Q2050.09 231.402 2046.71 233.994 Q2043.35 236.587 2036.85 236.587 Q2034.39 236.587 2031.62 236.031 Q2028.86 235.476 2025.9 234.388 L2025.9 229.573 Q2028.75 231.17 2031.48 231.981 Q2034.21 232.791 2036.85 232.791 Q2040.85 232.791 2043.03 231.217 Q2045.2 229.643 2045.2 226.726 Q2045.2 224.18 2043.63 222.744 Q2042.08 221.309 2038.51 220.592 L2035.67 220.036 Q2030.44 218.995 2028.1 216.772 Q2025.76 214.55 2025.76 210.592 Q2025.76 206.008 2028.98 203.37 Q2032.22 200.731 2037.89 200.731 Q2040.32 200.731 2042.84 201.171 Q2045.37 201.61 2048 202.49 Z" fill="#000000" fill-rule="nonzero" fill-opacity="1" /><path clip-path="url(#clip130)" d="M2062.06 205.198 L2062.06 218.184 L2067.94 218.184 Q2071.2 218.184 2072.98 216.495 Q2074.76 214.805 2074.76 211.68 Q2074.76 208.578 2072.98 206.888 Q2071.2 205.198 2067.94 205.198 L2062.06 205.198 M2057.38 201.356 L2067.94 201.356 Q2073.75 201.356 2076.71 203.995 Q2079.69 206.61 2079.69 211.68 Q2079.69 216.795 2076.71 219.411 Q2073.75 222.027 2067.94 222.027 L2062.06 222.027 L2062.06 235.916 L2057.38 235.916 L2057.38 201.356 Z" fill="#000000" fill-rule="nonzero" fill-opacity="1" /><path clip-path="url(#clip130)" d="M2109.53 230.985 L2109.53 221.703 L2101.89 221.703 L2101.89 217.86 L2114.16 217.86 L2114.16 232.698 Q2111.45 234.619 2108.19 235.615 Q2104.93 236.587 2101.22 236.587 Q2093.12 236.587 2088.54 231.865 Q2083.98 227.119 2083.98 218.67 Q2083.98 210.198 2088.54 205.476 Q2093.12 200.731 2101.22 200.731 Q2104.6 200.731 2107.63 201.564 Q2110.69 202.397 2113.26 204.018 L2113.26 208.995 Q2110.67 206.796 2107.75 205.684 Q2104.83 204.573 2101.62 204.573 Q2095.27 204.573 2092.08 208.115 Q2088.91 211.657 2088.91 218.67 Q2088.91 225.661 2092.08 229.203 Q2095.27 232.744 2101.62 232.744 Q2104.09 232.744 2106.04 232.328 Q2107.98 231.888 2109.53 230.985 Z" fill="#000000" fill-rule="nonzero" fill-opacity="1" /><polyline clip-path="url(#clip130)" style="stroke:#e26f46; stroke-linecap:round; stroke-linejoin:round; stroke-width:4; stroke-opacity:1; fill:none" points="1772.84,270.476 1912.92,270.476 "/>
<path clip-path="url(#clip130)" d="M1936.27 253.196 L1940.95 253.196 L1940.95 283.821 L1957.77 283.821 L1957.77 287.756 L1936.27 287.756 L1936.27 253.196 Z" fill="#000000" fill-rule="nonzero" fill-opacity="1" /><path clip-path="url(#clip130)" d="M1962.68 253.196 L1969.65 253.196 L1978.47 276.714 L1987.33 253.196 L1994.3 253.196 L1994.3 287.756 L1989.74 287.756 L1989.74 257.409 L1980.83 281.112 L1976.13 281.112 L1967.22 257.409 L1967.22 287.756 L1962.68 287.756 L1962.68 253.196 Z" fill="#000000" fill-rule="nonzero" fill-opacity="1" /><path clip-path="url(#clip130)" d="M2023.1 295.626 L2023.1 298.936 L1998.47 298.936 L1998.47 295.626 L2023.1 295.626 Z" fill="#000000" fill-rule="nonzero" fill-opacity="1" /><path clip-path="url(#clip130)" d="M2038.84 257.802 L2032.5 275.001 L2045.2 275.001 L2038.84 257.802 M2036.2 253.196 L2041.5 253.196 L2054.67 287.756 L2049.81 287.756 L2046.66 278.89 L2031.08 278.89 L2027.94 287.756 L2023 287.756 L2036.2 253.196 Z" fill="#000000" fill-rule="nonzero" fill-opacity="1" /><path clip-path="url(#clip130)" d="M2081.08 272.108 L2081.08 287.756 L2076.82 287.756 L2076.82 272.247 Q2076.82 268.566 2075.39 266.737 Q2073.95 264.909 2071.08 264.909 Q2067.63 264.909 2065.64 267.108 Q2063.65 269.307 2063.65 273.103 L2063.65 287.756 L2059.37 287.756 L2059.37 261.83 L2063.65 261.83 L2063.65 265.858 Q2065.18 263.52 2067.24 262.362 Q2069.32 261.205 2072.03 261.205 Q2076.5 261.205 2078.79 263.983 Q2081.08 266.737 2081.08 272.108 Z" fill="#000000" fill-rule="nonzero" fill-opacity="1" /><path clip-path="url(#clip130)" d="M2106.64 265.765 L2106.64 251.737 L2110.9 251.737 L2110.9 287.756 L2106.64 287.756 L2106.64 283.867 Q2105.3 286.182 2103.24 287.316 Q2101.2 288.427 2098.33 288.427 Q2093.63 288.427 2090.67 284.677 Q2087.73 280.927 2087.73 274.816 Q2087.73 268.705 2090.67 264.955 Q2093.63 261.205 2098.33 261.205 Q2101.2 261.205 2103.24 262.339 Q2105.3 263.45 2106.64 265.765 M2092.12 274.816 Q2092.12 279.515 2094.05 282.2 Q2095.99 284.862 2099.37 284.862 Q2102.75 284.862 2104.69 282.2 Q2106.64 279.515 2106.64 274.816 Q2106.64 270.117 2104.69 267.455 Q2102.75 264.77 2099.37 264.77 Q2095.99 264.77 2094.05 267.455 Q2092.12 270.117 2092.12 274.816 Z" fill="#000000" fill-rule="nonzero" fill-opacity="1" /><path clip-path="url(#clip130)" d="M2134.69 265.811 Q2133.98 265.395 2133.12 265.21 Q2132.29 265.001 2131.27 265.001 Q2127.66 265.001 2125.71 267.362 Q2123.79 269.7 2123.79 274.098 L2123.79 287.756 L2119.51 287.756 L2119.51 261.83 L2123.79 261.83 L2123.79 265.858 Q2125.13 263.497 2127.29 262.362 Q2129.44 261.205 2132.52 261.205 Q2132.96 261.205 2133.49 261.274 Q2134.02 261.321 2134.67 261.436 L2134.69 265.811 Z" fill="#000000" fill-rule="nonzero" fill-opacity="1" /><path clip-path="url(#clip130)" d="M2160.3 273.728 L2160.3 275.811 L2140.71 275.811 Q2140.99 280.209 2143.35 282.524 Q2145.74 284.816 2149.97 284.816 Q2152.43 284.816 2154.72 284.214 Q2157.03 283.612 2159.3 282.409 L2159.3 286.436 Q2157.01 287.408 2154.6 287.918 Q2152.19 288.427 2149.72 288.427 Q2143.51 288.427 2139.88 284.816 Q2136.27 281.205 2136.27 275.047 Q2136.27 268.682 2139.69 264.955 Q2143.14 261.205 2148.98 261.205 Q2154.21 261.205 2157.24 264.585 Q2160.3 267.941 2160.3 273.728 M2156.04 272.478 Q2155.99 268.983 2154.07 266.899 Q2152.17 264.816 2149.02 264.816 Q2145.46 264.816 2143.31 266.83 Q2141.18 268.844 2140.85 272.501 L2156.04 272.478 Z" fill="#000000" fill-rule="nonzero" fill-opacity="1" /><path clip-path="url(#clip130)" d="M2167.29 261.83 L2171.55 261.83 L2171.55 287.756 L2167.29 287.756 L2167.29 261.83 M2167.29 251.737 L2171.55 251.737 L2171.55 257.131 L2167.29 257.131 L2167.29 251.737 Z" fill="#000000" fill-rule="nonzero" fill-opacity="1" /><path clip-path="url(#clip130)" d="M2200.16 295.626 L2200.16 298.936 L2175.53 298.936 L2175.53 295.626 L2200.16 295.626 Z" fill="#000000" fill-rule="nonzero" fill-opacity="1" /><path clip-path="url(#clip130)" d="M2215.94 274.723 Q2210.78 274.723 2208.79 275.904 Q2206.8 277.084 2206.8 279.932 Q2206.8 282.2 2208.28 283.543 Q2209.79 284.862 2212.36 284.862 Q2215.9 284.862 2218.03 282.362 Q2220.18 279.839 2220.18 275.672 L2220.18 274.723 L2215.94 274.723 M2224.44 272.964 L2224.44 287.756 L2220.18 287.756 L2220.18 283.821 Q2218.72 286.182 2216.55 287.316 Q2214.37 288.427 2211.22 288.427 Q2207.24 288.427 2204.88 286.205 Q2202.54 283.959 2202.54 280.209 Q2202.54 275.834 2205.46 273.612 Q2208.4 271.39 2214.21 271.39 L2220.18 271.39 L2220.18 270.973 Q2220.18 268.034 2218.24 266.436 Q2216.31 264.816 2212.82 264.816 Q2210.6 264.816 2208.49 265.348 Q2206.38 265.881 2204.44 266.946 L2204.44 263.01 Q2206.78 262.108 2208.98 261.668 Q2211.18 261.205 2213.26 261.205 Q2218.88 261.205 2221.66 264.122 Q2224.44 267.038 2224.44 272.964 Z" fill="#000000" fill-rule="nonzero" fill-opacity="1" /><path clip-path="url(#clip130)" d="M2233.21 251.737 L2237.47 251.737 L2237.47 287.756 L2233.21 287.756 L2233.21 251.737 Z" fill="#000000" fill-rule="nonzero" fill-opacity="1" /><path clip-path="url(#clip130)" d="M2250.6 254.469 L2250.6 261.83 L2259.37 261.83 L2259.37 265.14 L2250.6 265.14 L2250.6 279.214 Q2250.6 282.385 2251.45 283.288 Q2252.33 284.191 2254.99 284.191 L2259.37 284.191 L2259.37 287.756 L2254.99 287.756 Q2250.06 287.756 2248.19 285.927 Q2246.31 284.075 2246.31 279.214 L2246.31 265.14 L2243.19 265.14 L2243.19 261.83 L2246.31 261.83 L2246.31 254.469 L2250.6 254.469 Z" fill="#000000" fill-rule="nonzero" fill-opacity="1" /><polyline clip-path="url(#clip130)" style="stroke:#3da44d; stroke-linecap:round; stroke-linejoin:round; stroke-width:4; stroke-opacity:1; fill:none" points="1772.84,322.316 1912.92,322.316 "/>
<path clip-path="url(#clip130)" d="M1936.27 305.036 L1940.95 305.036 L1940.95 335.661 L1957.77 335.661 L1957.77 339.596 L1936.27 339.596 L1936.27 305.036 Z" fill="#000000" fill-rule="nonzero" fill-opacity="1" /><path clip-path="url(#clip130)" d="M1962.68 305.036 L1969.65 305.036 L1978.47 328.554 L1987.33 305.036 L1994.3 305.036 L1994.3 339.596 L1989.74 339.596 L1989.74 309.249 L1980.83 332.952 L1976.13 332.952 L1967.22 309.249 L1967.22 339.596 L1962.68 339.596 L1962.68 305.036 Z" fill="#000000" fill-rule="nonzero" fill-opacity="1" /><path clip-path="url(#clip130)" d="M2023.1 347.466 L2023.1 350.776 L1998.47 350.776 L1998.47 347.466 L2023.1 347.466 Z" fill="#000000" fill-rule="nonzero" fill-opacity="1" /><path clip-path="url(#clip130)" d="M2038.84 309.642 L2032.5 326.841 L2045.2 326.841 L2038.84 309.642 M2036.2 305.036 L2041.5 305.036 L2054.67 339.596 L2049.81 339.596 L2046.66 330.73 L2031.08 330.73 L2027.94 339.596 L2023 339.596 L2036.2 305.036 Z" fill="#000000" fill-rule="nonzero" fill-opacity="1" /><path clip-path="url(#clip130)" d="M2081.08 323.948 L2081.08 339.596 L2076.82 339.596 L2076.82 324.087 Q2076.82 320.406 2075.39 318.577 Q2073.95 316.749 2071.08 316.749 Q2067.63 316.749 2065.64 318.948 Q2063.65 321.147 2063.65 324.943 L2063.65 339.596 L2059.37 339.596 L2059.37 313.67 L2063.65 313.67 L2063.65 317.698 Q2065.18 315.36 2067.24 314.202 Q2069.32 313.045 2072.03 313.045 Q2076.5 313.045 2078.79 315.823 Q2081.08 318.577 2081.08 323.948 Z" fill="#000000" fill-rule="nonzero" fill-opacity="1" /><path clip-path="url(#clip130)" d="M2106.64 317.605 L2106.64 303.577 L2110.9 303.577 L2110.9 339.596 L2106.64 339.596 L2106.64 335.707 Q2105.3 338.022 2103.24 339.156 Q2101.2 340.267 2098.33 340.267 Q2093.63 340.267 2090.67 336.517 Q2087.73 332.767 2087.73 326.656 Q2087.73 320.545 2090.67 316.795 Q2093.63 313.045 2098.33 313.045 Q2101.2 313.045 2103.24 314.179 Q2105.3 315.29 2106.64 317.605 M2092.12 326.656 Q2092.12 331.355 2094.05 334.04 Q2095.99 336.702 2099.37 336.702 Q2102.75 336.702 2104.69 334.04 Q2106.64 331.355 2106.64 326.656 Q2106.64 321.957 2104.69 319.295 Q2102.75 316.61 2099.37 316.61 Q2095.99 316.61 2094.05 319.295 Q2092.12 321.957 2092.12 326.656 Z" fill="#000000" fill-rule="nonzero" fill-opacity="1" /><path clip-path="url(#clip130)" d="M2134.69 317.651 Q2133.98 317.235 2133.12 317.05 Q2132.29 316.841 2131.27 316.841 Q2127.66 316.841 2125.71 319.202 Q2123.79 321.54 2123.79 325.938 L2123.79 339.596 L2119.51 339.596 L2119.51 313.67 L2123.79 313.67 L2123.79 317.698 Q2125.13 315.337 2127.29 314.202 Q2129.44 313.045 2132.52 313.045 Q2132.96 313.045 2133.49 313.114 Q2134.02 313.161 2134.67 313.276 L2134.69 317.651 Z" fill="#000000" fill-rule="nonzero" fill-opacity="1" /><path clip-path="url(#clip130)" d="M2160.3 325.568 L2160.3 327.651 L2140.71 327.651 Q2140.99 332.049 2143.35 334.364 Q2145.74 336.656 2149.97 336.656 Q2152.43 336.656 2154.72 336.054 Q2157.03 335.452 2159.3 334.249 L2159.3 338.276 Q2157.01 339.248 2154.6 339.758 Q2152.19 340.267 2149.72 340.267 Q2143.51 340.267 2139.88 336.656 Q2136.27 333.045 2136.27 326.887 Q2136.27 320.522 2139.69 316.795 Q2143.14 313.045 2148.98 313.045 Q2154.21 313.045 2157.24 316.425 Q2160.3 319.781 2160.3 325.568 M2156.04 324.318 Q2155.99 320.823 2154.07 318.739 Q2152.17 316.656 2149.02 316.656 Q2145.46 316.656 2143.31 318.67 Q2141.18 320.684 2140.85 324.341 L2156.04 324.318 Z" fill="#000000" fill-rule="nonzero" fill-opacity="1" /><path clip-path="url(#clip130)" d="M2167.29 313.67 L2171.55 313.67 L2171.55 339.596 L2167.29 339.596 L2167.29 313.67 M2167.29 303.577 L2171.55 303.577 L2171.55 308.971 L2167.29 308.971 L2167.29 303.577 Z" fill="#000000" fill-rule="nonzero" fill-opacity="1" /><polyline clip-path="url(#clip130)" style="stroke:#c271d2; stroke-linecap:round; stroke-linejoin:round; stroke-width:4; stroke-opacity:1; fill:none" points="1772.84,374.156 1912.92,374.156 "/>
<path clip-path="url(#clip130)" d="M1936.27 356.876 L1940.95 356.876 L1940.95 387.501 L1957.77 387.501 L1957.77 391.436 L1936.27 391.436 L1936.27 356.876 Z" fill="#000000" fill-rule="nonzero" fill-opacity="1" /><path clip-path="url(#clip130)" d="M1962.68 356.876 L1969.65 356.876 L1978.47 380.394 L1987.33 356.876 L1994.3 356.876 L1994.3 391.436 L1989.74 391.436 L1989.74 361.089 L1980.83 384.792 L1976.13 384.792 L1967.22 361.089 L1967.22 391.436 L1962.68 391.436 L1962.68 356.876 Z" fill="#000000" fill-rule="nonzero" fill-opacity="1" /><path clip-path="url(#clip130)" d="M2023.1 399.306 L2023.1 402.616 L1998.47 402.616 L1998.47 399.306 L2023.1 399.306 Z" fill="#000000" fill-rule="nonzero" fill-opacity="1" /><path clip-path="url(#clip130)" d="M2048 358.01 L2048 362.57 Q2045.34 361.297 2042.98 360.672 Q2040.62 360.047 2038.42 360.047 Q2034.6 360.047 2032.52 361.528 Q2030.46 363.01 2030.46 365.741 Q2030.46 368.033 2031.82 369.214 Q2033.21 370.371 2037.06 371.089 L2039.88 371.667 Q2045.11 372.663 2047.59 375.186 Q2050.09 377.686 2050.09 381.899 Q2050.09 386.922 2046.71 389.514 Q2043.35 392.107 2036.85 392.107 Q2034.39 392.107 2031.62 391.551 Q2028.86 390.996 2025.9 389.908 L2025.9 385.093 Q2028.75 386.69 2031.48 387.501 Q2034.21 388.311 2036.85 388.311 Q2040.85 388.311 2043.03 386.737 Q2045.2 385.163 2045.2 382.246 Q2045.2 379.7 2043.63 378.264 Q2042.08 376.829 2038.51 376.112 L2035.67 375.556 Q2030.44 374.515 2028.1 372.292 Q2025.76 370.07 2025.76 366.112 Q2025.76 361.528 2028.98 358.89 Q2032.22 356.251 2037.89 356.251 Q2040.32 356.251 2042.84 356.691 Q2045.37 357.13 2048 358.01 Z" fill="#000000" fill-rule="nonzero" fill-opacity="1" /><path clip-path="url(#clip130)" d="M2062.06 360.718 L2062.06 373.704 L2067.94 373.704 Q2071.2 373.704 2072.98 372.015 Q2074.76 370.325 2074.76 367.2 Q2074.76 364.098 2072.98 362.408 Q2071.2 360.718 2067.94 360.718 L2062.06 360.718 M2057.38 356.876 L2067.94 356.876 Q2073.75 356.876 2076.71 359.515 Q2079.69 362.13 2079.69 367.2 Q2079.69 372.315 2076.71 374.931 Q2073.75 377.547 2067.94 377.547 L2062.06 377.547 L2062.06 391.436 L2057.38 391.436 L2057.38 356.876 Z" fill="#000000" fill-rule="nonzero" fill-opacity="1" /><path clip-path="url(#clip130)" d="M2109.53 386.505 L2109.53 377.223 L2101.89 377.223 L2101.89 373.38 L2114.16 373.38 L2114.16 388.218 Q2111.45 390.139 2108.19 391.135 Q2104.93 392.107 2101.22 392.107 Q2093.12 392.107 2088.54 387.385 Q2083.98 382.639 2083.98 374.19 Q2083.98 365.718 2088.54 360.996 Q2093.12 356.251 2101.22 356.251 Q2104.6 356.251 2107.63 357.084 Q2110.69 357.917 2113.26 359.538 L2113.26 364.515 Q2110.67 362.316 2107.75 361.204 Q2104.83 360.093 2101.62 360.093 Q2095.27 360.093 2092.08 363.635 Q2088.91 367.177 2088.91 374.19 Q2088.91 381.181 2092.08 384.723 Q2095.27 388.264 2101.62 388.264 Q2104.09 388.264 2106.04 387.848 Q2107.98 387.408 2109.53 386.505 Z" fill="#000000" fill-rule="nonzero" fill-opacity="1" /><path clip-path="url(#clip130)" d="M2142.22 399.306 L2142.22 402.616 L2117.59 402.616 L2117.59 399.306 L2142.22 399.306 Z" fill="#000000" fill-rule="nonzero" fill-opacity="1" /><path clip-path="url(#clip130)" d="M2158 378.403 Q2152.84 378.403 2150.85 379.584 Q2148.86 380.764 2148.86 383.612 Q2148.86 385.88 2150.34 387.223 Q2151.85 388.542 2154.42 388.542 Q2157.96 388.542 2160.09 386.042 Q2162.24 383.519 2162.24 379.352 L2162.24 378.403 L2158 378.403 M2166.5 376.644 L2166.5 391.436 L2162.24 391.436 L2162.24 387.501 Q2160.78 389.862 2158.61 390.996 Q2156.43 392.107 2153.28 392.107 Q2149.3 392.107 2146.94 389.885 Q2144.6 387.639 2144.6 383.889 Q2144.6 379.514 2147.52 377.292 Q2150.46 375.07 2156.27 375.07 L2162.24 375.07 L2162.24 374.653 Q2162.24 371.714 2160.3 370.116 Q2158.37 368.496 2154.88 368.496 Q2152.66 368.496 2150.55 369.028 Q2148.44 369.561 2146.5 370.626 L2146.5 366.69 Q2148.84 365.788 2151.04 365.348 Q2153.24 364.885 2155.32 364.885 Q2160.94 364.885 2163.72 367.802 Q2166.5 370.718 2166.5 376.644 Z" fill="#000000" fill-rule="nonzero" fill-opacity="1" /><path clip-path="url(#clip130)" d="M2175.27 355.417 L2179.53 355.417 L2179.53 391.436 L2175.27 391.436 L2175.27 355.417 Z" fill="#000000" fill-rule="nonzero" fill-opacity="1" /><path clip-path="url(#clip130)" d="M2192.66 358.149 L2192.66 365.51 L2201.43 365.51 L2201.43 368.82 L2192.66 368.82 L2192.66 382.894 Q2192.66 386.065 2193.51 386.968 Q2194.39 387.871 2197.05 387.871 L2201.43 387.871 L2201.43 391.436 L2197.05 391.436 Q2192.12 391.436 2190.25 389.607 Q2188.37 387.755 2188.37 382.894 L2188.37 368.82 L2185.25 368.82 L2185.25 365.51 L2188.37 365.51 L2188.37 358.149 L2192.66 358.149 Z" fill="#000000" fill-rule="nonzero" fill-opacity="1" /><polyline clip-path="url(#clip130)" style="stroke:#ac8d18; stroke-linecap:round; stroke-linejoin:round; stroke-width:4; stroke-opacity:1; fill:none" points="1772.84,425.996 1912.92,425.996 "/>
<path clip-path="url(#clip130)" d="M1936.27 408.716 L1940.95 408.716 L1940.95 439.341 L1957.77 439.341 L1957.77 443.276 L1936.27 443.276 L1936.27 408.716 Z" fill="#000000" fill-rule="nonzero" fill-opacity="1" /><path clip-path="url(#clip130)" d="M1962.68 408.716 L1969.65 408.716 L1978.47 432.234 L1987.33 408.716 L1994.3 408.716 L1994.3 443.276 L1989.74 443.276 L1989.74 412.929 L1980.83 436.632 L1976.13 436.632 L1967.22 412.929 L1967.22 443.276 L1962.68 443.276 L1962.68 408.716 Z" fill="#000000" fill-rule="nonzero" fill-opacity="1" /></svg>
