<?xml version="1.0" encoding="utf-8"?>
<svg xmlns="http://www.w3.org/2000/svg" xmlns:xlink="http://www.w3.org/1999/xlink" width="600" height="400" viewBox="0 0 2400 1600">
<defs>
  <clipPath id="clip930">
    <rect x="0" y="0" width="2400" height="1600"/>
  </clipPath>
</defs>
<path clip-path="url(#clip930)" d="M0 1600 L2400 1600 L2400 0 L0 0  Z" fill="#ffffff" fill-rule="evenodd" fill-opacity="1"/>
<defs>
  <clipPath id="clip931">
    <rect x="480" y="0" width="1681" height="1600"/>
  </clipPath>
</defs>
<path clip-path="url(#clip930)" d="M245.861 1423.18 L2352.76 1423.18 L2352.76 123.472 L245.861 123.472  Z" fill="#ffffff" fill-rule="evenodd" fill-opacity="1"/>
<defs>
  <clipPath id="clip932">
    <rect x="245" y="123" width="2108" height="1301"/>
  </clipPath>
</defs>
<polyline clip-path="url(#clip932)" style="stroke:#000000; stroke-linecap:round; stroke-linejoin:round; stroke-width:2; stroke-opacity:0.1; fill:none" points="303.503,1423.18 303.503,123.472 "/>
<polyline clip-path="url(#clip932)" style="stroke:#000000; stroke-linecap:round; stroke-linejoin:round; stroke-width:2; stroke-opacity:0.1; fill:none" points="800.412,1423.18 800.412,123.472 "/>
<polyline clip-path="url(#clip932)" style="stroke:#000000; stroke-linecap:round; stroke-linejoin:round; stroke-width:2; stroke-opacity:0.1; fill:none" points="1297.32,1423.18 1297.32,123.472 "/>
<polyline clip-path="url(#clip932)" style="stroke:#000000; stroke-linecap:round; stroke-linejoin:round; stroke-width:2; stroke-opacity:0.1; fill:none" points="1794.23,1423.18 1794.23,123.472 "/>
<polyline clip-path="url(#clip932)" style="stroke:#000000; stroke-linecap:round; stroke-linejoin:round; stroke-width:2; stroke-opacity:0.1; fill:none" points="2291.14,1423.18 2291.14,123.472 "/>
<polyline clip-path="url(#clip930)" style="stroke:#000000; stroke-linecap:round; stroke-linejoin:round; stroke-width:4; stroke-opacity:1; fill:none" points="245.861,1423.18 2352.76,1423.18 "/>
<polyline clip-path="url(#clip930)" style="stroke:#000000; stroke-linecap:round; stroke-linejoin:round; stroke-width:4; stroke-opacity:1; fill:none" points="303.503,1423.18 303.503,1404.28 "/>
<polyline clip-path="url(#clip930)" style="stroke:#000000; stroke-linecap:round; stroke-linejoin:round; stroke-width:4; stroke-opacity:1; fill:none" points="800.412,1423.18 800.412,1404.28 "/>
<polyline clip-path="url(#clip930)" style="stroke:#000000; stroke-linecap:round; stroke-linejoin:round; stroke-width:4; stroke-opacity:1; fill:none" points="1297.32,1423.18 1297.32,1404.28 "/>
<polyline clip-path="url(#clip930)" style="stroke:#000000; stroke-linecap:round; stroke-linejoin:round; stroke-width:4; stroke-opacity:1; fill:none" points="1794.23,1423.18 1794.23,1404.28 "/>
<polyline clip-path="url(#clip930)" style="stroke:#000000; stroke-linecap:round; stroke-linejoin:round; stroke-width:4; stroke-opacity:1; fill:none" points="2291.14,1423.18 2291.14,1404.28 "/>
<path clip-path="url(#clip930)" d="M303.503 1454.1 Q299.892 1454.1 298.063 1457.66 Q296.258 1461.2 296.258 1468.33 Q296.258 1475.44 298.063 1479.01 Q299.892 1482.55 303.503 1482.55 Q307.137 1482.55 308.943 1479.01 Q310.771 1475.44 310.771 1468.33 Q310.771 1461.2 308.943 1457.66 Q307.137 1454.1 303.503 1454.1 M303.503 1450.39 Q309.313 1450.39 312.369 1455 Q315.447 1459.58 315.447 1468.33 Q315.447 1477.06 312.369 1481.67 Q309.313 1486.25 303.503 1486.25 Q297.693 1486.25 294.614 1481.67 Q291.559 1477.06 291.559 1468.33 Q291.559 1459.58 294.614 1455 Q297.693 1450.39 303.503 1450.39 Z" fill="#000000" fill-rule="nonzero" fill-opacity="1" /><path clip-path="url(#clip930)" d="M764.104 1481.64 L780.424 1481.64 L780.424 1485.58 L758.479 1485.58 L758.479 1481.64 Q761.141 1478.89 765.725 1474.26 Q770.331 1469.61 771.512 1468.27 Q773.757 1465.74 774.637 1464.01 Q775.539 1462.25 775.539 1460.56 Q775.539 1457.8 773.595 1456.07 Q771.674 1454.33 768.572 1454.33 Q766.373 1454.33 763.919 1455.09 Q761.489 1455.86 758.711 1457.41 L758.711 1452.69 Q761.535 1451.55 763.989 1450.97 Q766.442 1450.39 768.479 1450.39 Q773.85 1450.39 777.044 1453.08 Q780.239 1455.77 780.239 1460.26 Q780.239 1462.39 779.428 1464.31 Q778.641 1466.2 776.535 1468.8 Q775.956 1469.47 772.854 1472.69 Q769.752 1475.88 764.104 1481.64 Z" fill="#000000" fill-rule="nonzero" fill-opacity="1" /><path clip-path="url(#clip930)" d="M790.285 1451.02 L808.641 1451.02 L808.641 1454.96 L794.567 1454.96 L794.567 1463.43 Q795.586 1463.08 796.604 1462.92 Q797.623 1462.73 798.641 1462.73 Q804.428 1462.73 807.808 1465.9 Q811.187 1469.08 811.187 1474.49 Q811.187 1480.07 807.715 1483.17 Q804.243 1486.25 797.924 1486.25 Q795.748 1486.25 793.479 1485.88 Q791.234 1485.51 788.826 1484.77 L788.826 1480.07 Q790.91 1481.2 793.132 1481.76 Q795.354 1482.32 797.831 1482.32 Q801.836 1482.32 804.174 1480.21 Q806.512 1478.1 806.512 1474.49 Q806.512 1470.88 804.174 1468.77 Q801.836 1466.67 797.831 1466.67 Q795.956 1466.67 794.081 1467.08 Q792.229 1467.5 790.285 1468.38 L790.285 1451.02 Z" fill="#000000" fill-rule="nonzero" fill-opacity="1" /><path clip-path="url(#clip930)" d="M830.4 1454.1 Q826.789 1454.1 824.96 1457.66 Q823.155 1461.2 823.155 1468.33 Q823.155 1475.44 824.96 1479.01 Q826.789 1482.55 830.4 1482.55 Q834.035 1482.55 835.84 1479.01 Q837.669 1475.44 837.669 1468.33 Q837.669 1461.2 835.84 1457.66 Q834.035 1454.1 830.4 1454.1 M830.4 1450.39 Q836.21 1450.39 839.266 1455 Q842.345 1459.58 842.345 1468.33 Q842.345 1477.06 839.266 1481.67 Q836.21 1486.25 830.4 1486.25 Q824.59 1486.25 821.511 1481.67 Q818.456 1477.06 818.456 1468.33 Q818.456 1459.58 821.511 1455 Q824.59 1450.39 830.4 1450.39 Z" fill="#000000" fill-rule="nonzero" fill-opacity="1" /><path clip-path="url(#clip930)" d="M1256.94 1451.02 L1275.3 1451.02 L1275.3 1454.96 L1261.22 1454.96 L1261.22 1463.43 Q1262.24 1463.08 1263.26 1462.92 Q1264.28 1462.73 1265.3 1462.73 Q1271.08 1462.73 1274.46 1465.9 Q1277.84 1469.08 1277.84 1474.49 Q1277.84 1480.07 1274.37 1483.17 Q1270.9 1486.25 1264.58 1486.25 Q1262.4 1486.25 1260.13 1485.88 Q1257.89 1485.51 1255.48 1484.77 L1255.48 1480.07 Q1257.56 1481.2 1259.79 1481.76 Q1262.01 1482.32 1264.49 1482.32 Q1268.49 1482.32 1270.83 1480.21 Q1273.17 1478.1 1273.17 1474.49 Q1273.17 1470.88 1270.83 1468.77 Q1268.49 1466.67 1264.49 1466.67 Q1262.61 1466.67 1260.74 1467.08 Q1258.88 1467.5 1256.94 1468.38 L1256.94 1451.02 Z" fill="#000000" fill-rule="nonzero" fill-opacity="1" /><path clip-path="url(#clip930)" d="M1297.05 1454.1 Q1293.44 1454.1 1291.62 1457.66 Q1289.81 1461.2 1289.81 1468.33 Q1289.81 1475.44 1291.62 1479.01 Q1293.44 1482.55 1297.05 1482.55 Q1300.69 1482.55 1302.49 1479.01 Q1304.32 1475.44 1304.32 1468.33 Q1304.32 1461.2 1302.49 1457.66 Q1300.69 1454.1 1297.05 1454.1 M1297.05 1450.39 Q1302.87 1450.39 1305.92 1455 Q1309 1459.58 1309 1468.33 Q1309 1477.06 1305.92 1481.67 Q1302.87 1486.25 1297.05 1486.25 Q1291.24 1486.25 1288.17 1481.67 Q1285.11 1477.06 1285.11 1468.33 Q1285.11 1459.58 1288.17 1455 Q1291.24 1450.39 1297.05 1450.39 Z" fill="#000000" fill-rule="nonzero" fill-opacity="1" /><path clip-path="url(#clip930)" d="M1327.22 1454.1 Q1323.61 1454.1 1321.78 1457.66 Q1319.97 1461.2 1319.97 1468.33 Q1319.97 1475.44 1321.78 1479.01 Q1323.61 1482.55 1327.22 1482.55 Q1330.85 1482.55 1332.66 1479.01 Q1334.49 1475.44 1334.49 1468.33 Q1334.49 1461.2 1332.66 1457.66 Q1330.85 1454.1 1327.22 1454.1 M1327.22 1450.39 Q1333.03 1450.39 1336.08 1455 Q1339.16 1459.58 1339.16 1468.33 Q1339.16 1477.06 1336.08 1481.67 Q1333.03 1486.25 1327.22 1486.25 Q1321.41 1486.25 1318.33 1481.67 Q1315.27 1477.06 1315.27 1468.33 Q1315.27 1459.58 1318.33 1455 Q1321.41 1450.39 1327.22 1450.39 Z" fill="#000000" fill-rule="nonzero" fill-opacity="1" /><path clip-path="url(#clip930)" d="M1752.51 1451.02 L1774.73 1451.02 L1774.73 1453.01 L1762.18 1485.58 L1757.3 1485.58 L1769.1 1454.96 L1752.51 1454.96 L1752.51 1451.02 Z" fill="#000000" fill-rule="nonzero" fill-opacity="1" /><path clip-path="url(#clip930)" d="M1783.89 1451.02 L1802.25 1451.02 L1802.25 1454.96 L1788.18 1454.96 L1788.18 1463.43 Q1789.2 1463.08 1790.21 1462.92 Q1791.23 1462.73 1792.25 1462.73 Q1798.04 1462.73 1801.42 1465.9 Q1804.8 1469.08 1804.8 1474.49 Q1804.8 1480.07 1801.32 1483.17 Q1797.85 1486.25 1791.53 1486.25 Q1789.36 1486.25 1787.09 1485.88 Q1784.84 1485.51 1782.44 1484.77 L1782.44 1480.07 Q1784.52 1481.2 1786.74 1481.76 Q1788.96 1482.32 1791.44 1482.32 Q1795.45 1482.32 1797.78 1480.21 Q1800.12 1478.1 1800.12 1474.49 Q1800.12 1470.88 1797.78 1468.77 Q1795.45 1466.67 1791.44 1466.67 Q1789.57 1466.67 1787.69 1467.08 Q1785.84 1467.5 1783.89 1468.38 L1783.89 1451.02 Z" fill="#000000" fill-rule="nonzero" fill-opacity="1" /><path clip-path="url(#clip930)" d="M1824.01 1454.1 Q1820.4 1454.1 1818.57 1457.66 Q1816.76 1461.2 1816.76 1468.33 Q1816.76 1475.44 1818.57 1479.01 Q1820.4 1482.55 1824.01 1482.55 Q1827.64 1482.55 1829.45 1479.01 Q1831.28 1475.44 1831.28 1468.33 Q1831.28 1461.2 1829.45 1457.66 Q1827.64 1454.1 1824.01 1454.1 M1824.01 1450.39 Q1829.82 1450.39 1832.88 1455 Q1835.95 1459.58 1835.95 1468.33 Q1835.95 1477.06 1832.88 1481.67 Q1829.82 1486.25 1824.01 1486.25 Q1818.2 1486.25 1815.12 1481.67 Q1812.07 1477.06 1812.07 1468.33 Q1812.07 1459.58 1815.12 1455 Q1818.2 1450.39 1824.01 1450.39 Z" fill="#000000" fill-rule="nonzero" fill-opacity="1" /><path clip-path="url(#clip930)" d="M2235.66 1481.64 L2243.3 1481.64 L2243.3 1455.28 L2234.99 1456.95 L2234.99 1452.69 L2243.26 1451.02 L2247.93 1451.02 L2247.93 1481.64 L2255.57 1481.64 L2255.57 1485.58 L2235.66 1485.58 L2235.66 1481.64 Z" fill="#000000" fill-rule="nonzero" fill-opacity="1" /><path clip-path="url(#clip930)" d="M2275.02 1454.1 Q2271.41 1454.1 2269.58 1457.66 Q2267.77 1461.2 2267.77 1468.33 Q2267.77 1475.44 2269.58 1479.01 Q2271.41 1482.55 2275.02 1482.55 Q2278.65 1482.55 2280.46 1479.01 Q2282.29 1475.44 2282.29 1468.33 Q2282.29 1461.2 2280.46 1457.66 Q2278.65 1454.1 2275.02 1454.1 M2275.02 1450.39 Q2280.83 1450.39 2283.88 1455 Q2286.96 1459.58 2286.96 1468.33 Q2286.96 1477.06 2283.88 1481.67 Q2280.83 1486.25 2275.02 1486.25 Q2269.21 1486.25 2266.13 1481.67 Q2263.07 1477.06 2263.07 1468.33 Q2263.07 1459.58 2266.13 1455 Q2269.21 1450.39 2275.02 1450.39 Z" fill="#000000" fill-rule="nonzero" fill-opacity="1" /><path clip-path="url(#clip930)" d="M2305.18 1454.1 Q2301.57 1454.1 2299.74 1457.66 Q2297.93 1461.2 2297.93 1468.33 Q2297.93 1475.44 2299.74 1479.01 Q2301.57 1482.55 2305.18 1482.55 Q2308.81 1482.55 2310.62 1479.01 Q2312.45 1475.44 2312.45 1468.33 Q2312.45 1461.2 2310.62 1457.66 Q2308.81 1454.1 2305.18 1454.1 M2305.18 1450.39 Q2310.99 1450.39 2314.04 1455 Q2317.12 1459.58 2317.12 1468.33 Q2317.12 1477.06 2314.04 1481.67 Q2310.99 1486.25 2305.18 1486.25 Q2299.37 1486.25 2296.29 1481.67 Q2293.23 1477.06 2293.23 1468.33 Q2293.23 1459.58 2296.29 1455 Q2299.37 1450.39 2305.18 1450.39 Z" fill="#000000" fill-rule="nonzero" fill-opacity="1" /><path clip-path="url(#clip930)" d="M2335.34 1454.1 Q2331.73 1454.1 2329.9 1457.66 Q2328.1 1461.2 2328.1 1468.33 Q2328.1 1475.44 2329.9 1479.01 Q2331.73 1482.55 2335.34 1482.55 Q2338.97 1482.55 2340.78 1479.01 Q2342.61 1475.44 2342.61 1468.33 Q2342.61 1461.2 2340.78 1457.66 Q2338.97 1454.1 2335.34 1454.1 M2335.34 1450.39 Q2341.15 1450.39 2344.21 1455 Q2347.28 1459.58 2347.28 1468.33 Q2347.28 1477.06 2344.21 1481.67 Q2341.15 1486.25 2335.34 1486.25 Q2329.53 1486.25 2326.45 1481.67 Q2323.4 1477.06 2323.4 1468.33 Q2323.4 1459.58 2326.45 1455 Q2329.53 1450.39 2335.34 1450.39 Z" fill="#000000" fill-rule="nonzero" fill-opacity="1" /><path clip-path="url(#clip930)" d="M1283.49 1518.52 L1289.38 1518.52 L1289.38 1547.77 L1306.85 1532.4 L1314.33 1532.4 L1295.43 1549.07 L1315.13 1568.04 L1307.49 1568.04 L1289.38 1550.63 L1289.38 1568.04 L1283.49 1568.04 L1283.49 1518.52 Z" fill="#000000" fill-rule="nonzero" fill-opacity="1" /><polyline clip-path="url(#clip932)" style="stroke:#000000; stroke-linecap:round; stroke-linejoin:round; stroke-width:2; stroke-opacity:0.1; fill:none" points="245.861,1243.55 2352.76,1243.55 "/>
<polyline clip-path="url(#clip932)" style="stroke:#000000; stroke-linecap:round; stroke-linejoin:round; stroke-width:2; stroke-opacity:0.1; fill:none" points="245.861,849.38 2352.76,849.38 "/>
<polyline clip-path="url(#clip932)" style="stroke:#000000; stroke-linecap:round; stroke-linejoin:round; stroke-width:2; stroke-opacity:0.1; fill:none" points="245.861,455.213 2352.76,455.213 "/>
<polyline clip-path="url(#clip930)" style="stroke:#000000; stroke-linecap:round; stroke-linejoin:round; stroke-width:4; stroke-opacity:1; fill:none" points="245.861,1423.18 245.861,123.472 "/>
<polyline clip-path="url(#clip930)" style="stroke:#000000; stroke-linecap:round; stroke-linejoin:round; stroke-width:4; stroke-opacity:1; fill:none" points="245.861,1243.55 264.759,1243.55 "/>
<polyline clip-path="url(#clip930)" style="stroke:#000000; stroke-linecap:round; stroke-linejoin:round; stroke-width:4; stroke-opacity:1; fill:none" points="245.861,849.38 264.759,849.38 "/>
<polyline clip-path="url(#clip930)" style="stroke:#000000; stroke-linecap:round; stroke-linejoin:round; stroke-width:4; stroke-opacity:1; fill:none" points="245.861,455.213 264.759,455.213 "/>
<path clip-path="url(#clip930)" d="M139.156 1263.34 L146.795 1263.34 L146.795 1236.97 L138.485 1238.64 L138.485 1234.38 L146.748 1232.72 L151.424 1232.72 L151.424 1263.34 L159.063 1263.34 L159.063 1267.28 L139.156 1267.28 L139.156 1263.34 Z" fill="#000000" fill-rule="nonzero" fill-opacity="1" /><path clip-path="url(#clip930)" d="M178.507 1235.79 Q174.896 1235.79 173.068 1239.36 Q171.262 1242.9 171.262 1250.03 Q171.262 1257.14 173.068 1260.7 Q174.896 1264.24 178.507 1264.24 Q182.142 1264.24 183.947 1260.7 Q185.776 1257.14 185.776 1250.03 Q185.776 1242.9 183.947 1239.36 Q182.142 1235.79 178.507 1235.79 M178.507 1232.09 Q184.318 1232.09 187.373 1236.7 Q190.452 1241.28 190.452 1250.03 Q190.452 1258.76 187.373 1263.36 Q184.318 1267.95 178.507 1267.95 Q172.697 1267.95 169.619 1263.36 Q166.563 1258.76 166.563 1250.03 Q166.563 1241.28 169.619 1236.7 Q172.697 1232.09 178.507 1232.09 Z" fill="#000000" fill-rule="nonzero" fill-opacity="1" /><path clip-path="url(#clip930)" d="M200.157 1214.29 Q197.223 1214.29 195.737 1217.18 Q194.27 1220.06 194.27 1225.85 Q194.27 1231.63 195.737 1234.52 Q197.223 1237.4 200.157 1237.4 Q203.11 1237.4 204.577 1234.52 Q206.062 1231.63 206.062 1225.85 Q206.062 1220.06 204.577 1217.18 Q203.11 1214.29 200.157 1214.29 M200.157 1211.28 Q204.877 1211.28 207.36 1215.02 Q209.861 1218.74 209.861 1225.85 Q209.861 1232.94 207.36 1236.69 Q204.877 1240.41 200.157 1240.41 Q195.436 1240.41 192.935 1236.69 Q190.452 1232.94 190.452 1225.85 Q190.452 1218.74 192.935 1215.02 Q195.436 1211.28 200.157 1211.28 Z" fill="#000000" fill-rule="nonzero" fill-opacity="1" /><path clip-path="url(#clip930)" d="M116.342 869.173 L123.981 869.173 L123.981 842.807 L115.671 844.474 L115.671 840.214 L123.935 838.548 L128.61 838.548 L128.61 869.173 L136.249 869.173 L136.249 873.108 L116.342 873.108 L116.342 869.173 Z" fill="#000000" fill-rule="nonzero" fill-opacity="1" /><path clip-path="url(#clip930)" d="M155.694 841.626 Q152.083 841.626 150.254 845.191 Q148.448 848.733 148.448 855.863 Q148.448 862.969 150.254 866.534 Q152.083 870.075 155.694 870.075 Q159.328 870.075 161.133 866.534 Q162.962 862.969 162.962 855.863 Q162.962 848.733 161.133 845.191 Q159.328 841.626 155.694 841.626 M155.694 837.923 Q161.504 837.923 164.559 842.529 Q167.638 847.113 167.638 855.863 Q167.638 864.589 164.559 869.196 Q161.504 873.779 155.694 873.779 Q149.884 873.779 146.805 869.196 Q143.749 864.589 143.749 855.863 Q143.749 847.113 146.805 842.529 Q149.884 837.923 155.694 837.923 Z" fill="#000000" fill-rule="nonzero" fill-opacity="1" /><path clip-path="url(#clip930)" d="M168.183 842.5 L174.39 842.5 L174.39 821.078 L167.638 822.432 L167.638 818.972 L174.352 817.617 L178.152 817.617 L178.152 842.5 L184.358 842.5 L184.358 845.697 L168.183 845.697 L168.183 842.5 Z" fill="#000000" fill-rule="nonzero" fill-opacity="1" /><path clip-path="url(#clip930)" d="M200.157 820.119 Q197.223 820.119 195.737 823.015 Q194.27 825.893 194.27 831.686 Q194.27 837.46 195.737 840.356 Q197.223 843.234 200.157 843.234 Q203.11 843.234 204.577 840.356 Q206.062 837.46 206.062 831.686 Q206.062 825.893 204.577 823.015 Q203.11 820.119 200.157 820.119 M200.157 817.11 Q204.877 817.11 207.36 820.852 Q209.861 824.576 209.861 831.686 Q209.861 838.776 207.36 842.519 Q204.877 846.243 200.157 846.243 Q195.436 846.243 192.935 842.519 Q190.452 838.776 190.452 831.686 Q190.452 824.576 192.935 820.852 Q195.436 817.11 200.157 817.11 Z" fill="#000000" fill-rule="nonzero" fill-opacity="1" /><path clip-path="url(#clip930)" d="M114.931 475.005 L122.57 475.005 L122.57 448.64 L114.26 450.306 L114.26 446.047 L122.524 444.38 L127.2 444.38 L127.2 475.005 L134.839 475.005 L134.839 478.94 L114.931 478.94 L114.931 475.005 Z" fill="#000000" fill-rule="nonzero" fill-opacity="1" /><path clip-path="url(#clip930)" d="M154.283 447.459 Q150.672 447.459 148.843 451.024 Q147.038 454.566 147.038 461.695 Q147.038 468.802 148.843 472.366 Q150.672 475.908 154.283 475.908 Q157.917 475.908 159.723 472.366 Q161.552 468.802 161.552 461.695 Q161.552 454.566 159.723 451.024 Q157.917 447.459 154.283 447.459 M154.283 443.755 Q160.093 443.755 163.149 448.362 Q166.227 452.945 166.227 461.695 Q166.227 470.422 163.149 475.028 Q160.093 479.612 154.283 479.612 Q148.473 479.612 145.394 475.028 Q142.339 470.422 142.339 461.695 Q142.339 452.945 145.394 448.362 Q148.473 443.755 154.283 443.755 Z" fill="#000000" fill-rule="nonzero" fill-opacity="1" /><path clip-path="url(#clip930)" d="M170.798 448.333 L184.057 448.333 L184.057 451.53 L166.227 451.53 L166.227 448.333 Q168.39 446.095 172.114 442.333 Q175.857 438.553 176.816 437.462 Q178.641 435.412 179.355 434.001 Q180.089 432.572 180.089 431.199 Q180.089 428.961 178.509 427.55 Q176.948 426.14 174.428 426.14 Q172.641 426.14 170.647 426.76 Q168.672 427.381 166.416 428.641 L166.416 424.804 Q168.71 423.883 170.704 423.412 Q172.697 422.942 174.352 422.942 Q178.716 422.942 181.311 425.124 Q183.907 427.306 183.907 430.954 Q183.907 432.685 183.249 434.246 Q182.609 435.788 180.898 437.894 Q180.427 438.44 177.907 441.054 Q175.387 443.65 170.798 448.333 Z" fill="#000000" fill-rule="nonzero" fill-opacity="1" /><path clip-path="url(#clip930)" d="M200.157 425.951 Q197.223 425.951 195.737 428.848 Q194.27 431.725 194.27 437.518 Q194.27 443.292 195.737 446.189 Q197.223 449.066 200.157 449.066 Q203.11 449.066 204.577 446.189 Q206.062 443.292 206.062 437.518 Q206.062 431.725 204.577 428.848 Q203.11 425.951 200.157 425.951 M200.157 422.942 Q204.877 422.942 207.36 426.685 Q209.861 430.409 209.861 437.518 Q209.861 444.609 207.36 448.352 Q204.877 452.075 200.157 452.075 Q195.436 452.075 192.935 448.352 Q190.452 444.609 190.452 437.518 Q190.452 430.409 192.935 426.685 Q195.436 422.942 200.157 422.942 Z" fill="#000000" fill-rule="nonzero" fill-opacity="1" /><path clip-path="url(#clip930)" d="M45.7664 817.313 Q39.4007 817.313 35.8996 819.955 Q32.3984 822.565 32.3984 827.307 Q32.3984 832.018 35.8996 834.66 Q39.4007 837.27 45.7664 837.27 Q52.1003 837.27 55.6014 834.66 Q59.1026 832.018 59.1026 827.307 Q59.1026 822.565 55.6014 819.955 Q52.1003 817.313 45.7664 817.313 M59.58 811.457 Q68.683 811.457 73.1071 815.499 Q77.5631 819.541 77.5631 827.88 Q77.5631 830.967 77.0857 833.705 Q76.6401 836.442 75.6852 839.02 L69.9879 839.02 Q71.3884 836.442 72.0568 833.928 Q72.7252 831.413 72.7252 828.803 Q72.7252 823.042 69.7015 820.178 Q66.7096 817.313 60.6303 817.313 L57.7339 817.313 Q60.885 819.127 62.4446 821.96 Q64.0042 824.793 64.0042 828.739 Q64.0042 835.296 59.0071 839.307 Q54.01 843.317 45.7664 843.317 Q37.491 843.317 32.4939 839.307 Q27.4968 835.296 27.4968 828.739 Q27.4968 824.793 29.0564 821.96 Q30.616 819.127 33.7671 817.313 L28.3562 817.313 L28.3562 811.457 L59.58 811.457 Z" fill="#000000" fill-rule="nonzero" fill-opacity="1" /><path clip-path="url(#clip930)" d="M33.8307 778.737 Q33.2578 779.724 33.0032 780.901 Q32.7167 782.047 32.7167 783.447 Q32.7167 788.413 35.9632 791.086 Q39.1779 793.728 45.2253 793.728 L64.0042 793.728 L64.0042 799.616 L28.3562 799.616 L28.3562 793.728 L33.8944 793.728 Q30.6479 791.882 29.0883 788.922 Q27.4968 785.962 27.4968 781.729 Q27.4968 781.124 27.5923 780.392 Q27.656 779.66 27.8151 778.769 L33.8307 778.737 Z" fill="#000000" fill-rule="nonzero" fill-opacity="1" /><path clip-path="url(#clip930)" d="M46.0847 756.393 Q46.0847 763.491 47.7079 766.228 Q49.3312 768.965 53.2461 768.965 Q56.3653 768.965 58.2114 766.928 Q60.0256 764.86 60.0256 761.327 Q60.0256 756.457 56.5881 753.529 Q53.1188 750.569 47.3897 750.569 L46.0847 750.569 L46.0847 756.393 M43.6657 744.712 L64.0042 744.712 L64.0042 750.569 L58.5933 750.569 Q61.8398 752.574 63.3994 755.566 Q64.9272 758.558 64.9272 762.886 Q64.9272 768.361 61.8716 771.607 Q58.7843 774.822 53.6281 774.822 Q47.6125 774.822 44.5569 770.812 Q41.5014 766.769 41.5014 758.78 L41.5014 750.569 L40.9285 750.569 Q36.8862 750.569 34.6901 753.242 Q32.4621 755.884 32.4621 760.69 Q32.4621 763.746 33.1941 766.642 Q33.9262 769.538 35.3903 772.212 L29.9795 772.212 Q28.7381 768.997 28.1334 765.974 Q27.4968 762.95 27.4968 760.085 Q27.4968 752.351 31.5072 748.532 Q35.5176 744.712 43.6657 744.712 Z" fill="#000000" fill-rule="nonzero" fill-opacity="1" /><path clip-path="url(#clip930)" d="M33.7671 709.191 L14.479 709.191 L14.479 703.335 L64.0042 703.335 L64.0042 709.191 L58.657 709.191 Q61.8398 711.038 63.3994 713.87 Q64.9272 716.671 64.9272 720.618 Q64.9272 727.079 59.771 731.153 Q54.6147 735.195 46.212 735.195 Q37.8093 735.195 32.6531 731.153 Q27.4968 727.079 27.4968 720.618 Q27.4968 716.671 29.0564 713.87 Q30.5842 711.038 33.7671 709.191 M46.212 729.148 Q52.6732 729.148 56.3653 726.506 Q60.0256 723.833 60.0256 719.186 Q60.0256 714.539 56.3653 711.865 Q52.6732 709.191 46.212 709.191 Q39.7508 709.191 36.0905 711.865 Q32.3984 714.539 32.3984 719.186 Q32.3984 723.833 36.0905 726.506 Q39.7508 729.148 46.212 729.148 Z" fill="#000000" fill-rule="nonzero" fill-opacity="1" /><path clip-path="url(#clip930)" d="M929.866 65.7705 L929.866 89.8329 L922.372 89.8329 L922.372 27.2059 L929.866 27.2059 L929.866 34.0924 Q932.216 30.0415 935.781 28.0971 Q939.386 26.1121 944.368 26.1121 Q952.632 26.1121 957.777 32.6746 Q962.962 39.2371 962.962 49.9314 Q962.962 60.6258 957.777 67.1883 Q952.632 73.7508 944.368 73.7508 Q939.386 73.7508 935.781 71.8063 Q932.216 69.8214 929.866 65.7705 M955.225 49.9314 Q955.225 41.7081 951.822 37.0496 Q948.46 32.3505 942.546 32.3505 Q936.631 32.3505 933.228 37.0496 Q929.866 41.7081 929.866 49.9314 Q929.866 58.1548 933.228 62.8538 Q936.631 67.5124 942.546 67.5124 Q948.46 67.5124 951.822 62.8538 Q955.225 58.1548 955.225 49.9314 Z" fill="#000000" fill-rule="nonzero" fill-opacity="1" /><path clip-path="url(#clip930)" d="M1001.61 34.1734 Q1000.35 33.4443 998.853 33.1202 Q997.395 32.7556 995.612 32.7556 Q989.293 32.7556 985.89 36.8875 Q982.528 40.9789 982.528 48.6757 L982.528 72.576 L975.034 72.576 L975.034 27.2059 L982.528 27.2059 L982.528 34.2544 Q984.878 30.1225 988.645 28.1376 Q992.412 26.1121 997.8 26.1121 Q998.57 26.1121 999.501 26.2337 Q1000.43 26.3147 1001.57 26.5172 L1001.61 34.1734 Z" fill="#000000" fill-rule="nonzero" fill-opacity="1" /><path clip-path="url(#clip930)" d="M1025.18 32.4315 Q1019.19 32.4315 1015.7 37.1306 Q1012.22 41.7891 1012.22 49.9314 Q1012.22 58.0738 1015.66 62.7728 Q1019.15 67.4314 1025.18 67.4314 Q1031.14 67.4314 1034.62 62.7323 Q1038.11 58.0333 1038.11 49.9314 Q1038.11 41.8701 1034.62 37.1711 Q1031.14 32.4315 1025.18 32.4315 M1025.18 26.1121 Q1034.91 26.1121 1040.46 32.4315 Q1046.01 38.7509 1046.01 49.9314 Q1046.01 61.0714 1040.46 67.4314 Q1034.91 73.7508 1025.18 73.7508 Q1015.42 73.7508 1009.87 67.4314 Q1004.36 61.0714 1004.36 49.9314 Q1004.36 38.7509 1009.87 32.4315 Q1015.42 26.1121 1025.18 26.1121 Z" fill="#000000" fill-rule="nonzero" fill-opacity="1" /><path clip-path="url(#clip930)" d="M1090.93 49.9314 Q1090.93 41.7081 1087.53 37.0496 Q1084.17 32.3505 1078.25 32.3505 Q1072.34 32.3505 1068.93 37.0496 Q1065.57 41.7081 1065.57 49.9314 Q1065.57 58.1548 1068.93 62.8538 Q1072.34 67.5124 1078.25 67.5124 Q1084.17 67.5124 1087.53 62.8538 Q1090.93 58.1548 1090.93 49.9314 M1065.57 34.0924 Q1067.92 30.0415 1071.49 28.0971 Q1075.09 26.1121 1080.07 26.1121 Q1088.34 26.1121 1093.48 32.6746 Q1098.67 39.2371 1098.67 49.9314 Q1098.67 60.6258 1093.48 67.1883 Q1088.34 73.7508 1080.07 73.7508 Q1075.09 73.7508 1071.49 71.8063 Q1067.92 69.8214 1065.57 65.7705 L1065.57 72.576 L1058.08 72.576 L1058.08 9.54393 L1065.57 9.54393 L1065.57 34.0924 Z" fill="#000000" fill-rule="nonzero" fill-opacity="1" /><path clip-path="url(#clip930)" d="M1111.02 9.54393 L1118.48 9.54393 L1118.48 72.576 L1111.02 72.576 L1111.02 9.54393 Z" fill="#000000" fill-rule="nonzero" fill-opacity="1" /><path clip-path="url(#clip930)" d="M1172.88 48.0275 L1172.88 51.6733 L1138.61 51.6733 Q1139.1 59.3701 1143.23 63.421 Q1147.4 67.4314 1154.81 67.4314 Q1159.11 67.4314 1163.12 66.3781 Q1167.17 65.3249 1171.14 63.2184 L1171.14 70.267 Q1167.13 71.9684 1162.91 72.8596 Q1158.7 73.7508 1154.37 73.7508 Q1143.51 73.7508 1137.15 67.4314 Q1130.83 61.1119 1130.83 50.3365 Q1130.83 39.1965 1136.83 32.6746 Q1142.86 26.1121 1153.07 26.1121 Q1162.23 26.1121 1167.53 32.0264 Q1172.88 37.9003 1172.88 48.0275 M1165.43 45.84 Q1165.35 39.7232 1161.98 36.0774 Q1158.66 32.4315 1153.15 32.4315 Q1146.91 32.4315 1143.15 35.9558 Q1139.42 39.4801 1138.85 45.8805 L1165.43 45.84 M1146.75 6.22219 L1158.18 21.3726 L1151.98 21.3726 L1138.77 6.22219 L1146.75 6.22219 Z" fill="#000000" fill-rule="nonzero" fill-opacity="1" /><path clip-path="url(#clip930)" d="M1220.44 35.9153 Q1223.23 30.8922 1227.12 28.5022 Q1231.01 26.1121 1236.28 26.1121 Q1243.37 26.1121 1247.21 31.0947 Q1251.06 36.0368 1251.06 45.1919 L1251.06 72.576 L1243.57 72.576 L1243.57 45.4349 Q1243.57 38.913 1241.26 35.7533 Q1238.95 32.5936 1234.21 32.5936 Q1228.42 32.5936 1225.06 36.4419 Q1221.69 40.2903 1221.69 46.9338 L1221.69 72.576 L1214.2 72.576 L1214.2 45.4349 Q1214.2 38.8725 1211.89 35.7533 Q1209.58 32.5936 1204.76 32.5936 Q1199.05 32.5936 1195.69 36.4824 Q1192.32 40.3308 1192.32 46.9338 L1192.32 72.576 L1184.83 72.576 L1184.83 27.2059 L1192.32 27.2059 L1192.32 34.2544 Q1194.88 30.082 1198.44 28.0971 Q1202.01 26.1121 1206.91 26.1121 Q1211.85 26.1121 1215.29 28.6237 Q1218.78 31.1352 1220.44 35.9153 Z" fill="#000000" fill-rule="nonzero" fill-opacity="1" /><path clip-path="url(#clip930)" d="M1304.74 48.0275 L1304.74 51.6733 L1270.47 51.6733 Q1270.95 59.3701 1275.08 63.421 Q1279.26 67.4314 1286.67 67.4314 Q1290.96 67.4314 1294.97 66.3781 Q1299.03 65.3249 1303 63.2184 L1303 70.267 Q1298.98 71.9684 1294.77 72.8596 Q1290.56 73.7508 1286.22 73.7508 Q1275.37 73.7508 1269.01 67.4314 Q1262.69 61.1119 1262.69 50.3365 Q1262.69 39.1965 1268.68 32.6746 Q1274.72 26.1121 1284.93 26.1121 Q1294.08 26.1121 1299.39 32.0264 Q1304.74 37.9003 1304.74 48.0275 M1297.28 45.84 Q1297.2 39.7232 1293.84 36.0774 Q1290.52 32.4315 1285.01 32.4315 Q1278.77 32.4315 1275 35.9558 Q1271.28 39.4801 1270.71 45.8805 L1297.28 45.84 Z" fill="#000000" fill-rule="nonzero" fill-opacity="1" /><path clip-path="url(#clip930)" d="M1345.25 62.2867 L1353.79 62.2867 L1353.79 72.576 L1345.25 72.576 L1345.25 62.2867 M1345.25 29.6769 L1353.79 29.6769 L1353.79 39.9662 L1345.25 39.9662 L1345.25 29.6769 Z" fill="#000000" fill-rule="nonzero" fill-opacity="1" /><path clip-path="url(#clip930)" d="M1432.99 35.9153 Q1435.78 30.8922 1439.67 28.5022 Q1443.56 26.1121 1448.83 26.1121 Q1455.92 26.1121 1459.77 31.0947 Q1463.61 36.0368 1463.61 45.1919 L1463.61 72.576 L1456.12 72.576 L1456.12 45.4349 Q1456.12 38.913 1453.81 35.7533 Q1451.5 32.5936 1446.76 32.5936 Q1440.97 32.5936 1437.61 36.4419 Q1434.24 40.2903 1434.24 46.9338 L1434.24 72.576 L1426.75 72.576 L1426.75 45.4349 Q1426.75 38.8725 1424.44 35.7533 Q1422.13 32.5936 1417.31 32.5936 Q1411.6 32.5936 1408.24 36.4824 Q1404.88 40.3308 1404.88 46.9338 L1404.88 72.576 L1397.38 72.576 L1397.38 27.2059 L1404.88 27.2059 L1404.88 34.2544 Q1407.43 30.082 1410.99 28.0971 Q1414.56 26.1121 1419.46 26.1121 Q1424.4 26.1121 1427.84 28.6237 Q1431.33 31.1352 1432.99 35.9153 Z" fill="#000000" fill-rule="nonzero" fill-opacity="1" /><path clip-path="url(#clip930)" d="M1508.34 49.3643 Q1508.34 41.2625 1504.97 36.8065 Q1501.65 32.3505 1495.62 32.3505 Q1489.62 32.3505 1486.26 36.8065 Q1482.94 41.2625 1482.94 49.3643 Q1482.94 57.4256 1486.26 61.8816 Q1489.62 66.3376 1495.62 66.3376 Q1501.65 66.3376 1504.97 61.8816 Q1508.34 57.4256 1508.34 49.3643 M1515.79 66.9452 Q1515.79 78.5308 1510.64 84.1616 Q1505.5 89.8329 1494.89 89.8329 Q1490.96 89.8329 1487.47 89.2252 Q1483.99 88.6581 1480.71 87.4428 L1480.71 80.1917 Q1483.99 81.9741 1487.19 82.8248 Q1490.39 83.6755 1493.71 83.6755 Q1501.04 83.6755 1504.69 79.8271 Q1508.34 76.0193 1508.34 68.282 L1508.34 64.5957 Q1506.03 68.6061 1502.42 70.5911 Q1498.82 72.576 1493.79 72.576 Q1485.45 72.576 1480.34 66.2161 Q1475.24 59.8562 1475.24 49.3643 Q1475.24 38.832 1480.34 32.472 Q1485.45 26.1121 1493.79 26.1121 Q1498.82 26.1121 1502.42 28.0971 Q1506.03 30.082 1508.34 34.0924 L1508.34 27.2059 L1515.79 27.2059 L1515.79 66.9452 Z" fill="#000000" fill-rule="nonzero" fill-opacity="1" /><path clip-path="url(#clip930)" d="M1568.86 45.1919 L1568.86 72.576 L1561.4 72.576 L1561.4 45.4349 Q1561.4 38.994 1558.89 35.7938 Q1556.38 32.5936 1551.36 32.5936 Q1545.32 32.5936 1541.84 36.4419 Q1538.35 40.2903 1538.35 46.9338 L1538.35 72.576 L1530.86 72.576 L1530.86 9.54393 L1538.35 9.54393 L1538.35 34.2544 Q1541.03 30.163 1544.63 28.1376 Q1548.28 26.1121 1553.02 26.1121 Q1560.84 26.1121 1564.85 30.9732 Q1568.86 35.7938 1568.86 45.1919 Z" fill="#000000" fill-rule="nonzero" fill-opacity="1" /><path clip-path="url(#clip930)" d="M1602.28 17.4837 Q1595.96 17.4837 1592.76 23.7221 Q1589.6 29.92 1589.6 42.3968 Q1589.6 54.833 1592.76 61.0714 Q1595.96 67.2693 1602.28 67.2693 Q1608.64 67.2693 1611.8 61.0714 Q1615 54.833 1615 42.3968 Q1615 29.92 1611.8 23.7221 Q1608.64 17.4837 1602.28 17.4837 M1602.28 11.0023 Q1612.44 11.0023 1617.79 19.0636 Q1623.18 27.0843 1623.18 42.3968 Q1623.18 57.6687 1617.79 65.73 Q1612.44 73.7508 1602.28 73.7508 Q1592.11 73.7508 1586.72 65.73 Q1581.37 57.6687 1581.37 42.3968 Q1581.37 27.0843 1586.72 19.0636 Q1592.11 11.0023 1602.28 11.0023 Z" fill="#000000" fill-rule="nonzero" fill-opacity="1" /><path clip-path="url(#clip930)" d="M1656.07 39.075 Q1650.56 39.075 1647.32 42.8424 Q1644.12 46.6097 1644.12 53.1722 Q1644.12 59.6941 1647.32 63.502 Q1650.56 67.2693 1656.07 67.2693 Q1661.58 67.2693 1664.78 63.502 Q1668.02 59.6941 1668.02 53.1722 Q1668.02 46.6097 1664.78 42.8424 Q1661.58 39.075 1656.07 39.075 M1672.32 13.4328 L1672.32 20.8865 Q1669.24 19.4281 1666.08 18.6585 Q1662.96 17.8888 1659.88 17.8888 Q1651.78 17.8888 1647.48 23.3575 Q1643.23 28.8262 1642.62 39.8852 Q1645.01 36.3609 1648.62 34.4975 Q1652.22 32.5936 1656.56 32.5936 Q1665.67 32.5936 1670.94 38.1433 Q1676.25 43.6525 1676.25 53.1722 Q1676.25 62.4892 1670.74 68.12 Q1665.23 73.7508 1656.07 73.7508 Q1645.58 73.7508 1640.03 65.73 Q1634.48 57.6687 1634.48 42.3968 Q1634.48 28.0566 1641.29 19.5497 Q1648.09 11.0023 1659.56 11.0023 Q1662.63 11.0023 1665.75 11.6099 Q1668.91 12.2175 1672.32 13.4328 Z" fill="#000000" fill-rule="nonzero" fill-opacity="1" /><polyline clip-path="url(#clip932)" style="stroke:#009af9; stroke-linecap:round; stroke-linejoin:round; stroke-width:4; stroke-opacity:1; fill:none" points="305.491,1059.44 307.478,1059.44 309.466,1059.44 311.453,1059.44 313.441,1059.44 315.429,1059.44 317.416,1059.44 319.404,1059.44 321.392,1059.44 323.379,1059.44 325.367,1059.44 327.355,1074.33 329.342,1074.33 331.33,1106.66 333.317,1146.36 335.305,1201.66 337.293,1249.05 339.28,1232.59 341.268,1198.04 343.256,1117.7 345.243,946.499 347.231,946.499 349.219,946.499 351.206,946.499 353.194,980.566 355.181,980.566 357.169,980.566 359.157,980.566 361.144,1004.5 363.132,1022.99 365.12,1038.43 367.107,1052.5 369.095,1066.11 371.083,1079.86 373.07,1094.4 375.058,1110.72 377.045,1130.4 379.033,1152.4 381.021,1159.07 383.008,1158.56 384.996,1157.25 386.984,1148.72 388.971,1148.72 390.959,1156.92 392.947,1157.63 394.934,1147.66 396.922,1147.66 398.909,1166.34 400.897,1172.34 402.885,1175.42 404.872,1177.81 406.86,1203.48 408.848,1170.69 410.835,1095.23 412.823,984.137 414.811,984.137 416.798,984.137 418.786,1017.91 420.773,1051.68 422.761,1051.68 424.749,1051.68 426.736,1080.66 428.724,1107.14 430.712,1135.05 432.699,1156.56 434.687,1157.42 436.675,1156.13 438.662,1143.16 440.65,1143.16 442.637,1158.93 444.625,1161.46 446.613,1151.04 448.6,1151.51 450.588,1145.87 452.576,1087.77 454.563,1009.04 456.551,1009.04 458.539,1042.39 460.526,1042.39 462.514,1075.96 464.501,1075.96 466.489,1108.86 468.477,1144.67 470.464,1155.89 472.452,1145.64 474.44,1145.64 476.427,1162.37 478.415,1166.92 480.403,1164.78 482.39,1164.53 484.378,1164.53 486.365,1201.25 488.353,1220.69 490.341,1252.15 492.328,1252.15 494.316,1279.84 496.304,1292.09 498.291,1322.17 500.279,1322.17 502.267,1325.26 504.254,1332.14 506.242,1350.7 508.229,1370.02 510.217,1361.47 512.205,1352.93 514.192,1344.39 516.18,1335.85 518.168,1327.31 520.155,1318.77 522.143,1310.22 524.131,1301.68 526.118,1293.14 528.106,1284.6 530.093,1276.06 532.081,1267.51 534.069,1258.96 536.056,1250.38 538.044,1241.76 540.032,1232.99 542.019,1223.86 544.007,1213.91 545.995,1181.38 547.982,1105.64 549.97,971.674 551.957,971.674 553.945,971.674 555.933,1005.5 557.92,1039.34 559.908,1039.34 561.896,1039.34 563.883,1039.34 565.871,1058.12 567.859,1074.51 569.846,1090.39 571.834,1107.36 573.821,1127.38 575.809,1151.72 577.797,1163.68 579.784,1163.4 581.772,1162.14 583.76,1162.14 585.747,1161.89 587.735,1161.37 589.723,1160.35 591.71,1157.93 593.698,1157.93 595.685,1158.15 597.673,1157.51 599.661,1155.71 601.648,1155.71 603.636,1156.7 605.624,1156.76 607.611,1156.42 609.599,1141.93 611.587,1141.93 613.574,1165.59 615.562,1173.05 617.549,1173.25 619.537,1184.18 621.525,1186.72 623.512,1143.07 625.5,1039.71 627.488,1039.71 629.475,1071.39 631.463,1059.41 633.451,1059.41 635.438,1089.89 637.426,1124.73 639.413,1165.74 641.401,1149.74 643.389,1083.25 645.376,1006.6 647.364,1006.6 649.352,1006.6 651.339,1040.57 653.327,1040.57 655.315,1073.45 657.302,1105.92 659.29,1140.51 661.277,1158.5 663.265,1148.43 665.253,1172.12 667.24,1151.67 669.228,1084.35 671.216,1004.6 673.203,1004.6 675.191,1004.6 677.179,1038.56 679.166,1038.56 681.154,1071.56 683.141,1104.21 685.129,1138.95 687.117,1156.88 689.104,1145.38 691.092,1166.79 693.08,1144.56 695.067,1072.75 697.055,1015.68 699.043,1048.36 701.03,1025.11 703.018,1057.78 705.005,1034.12 706.993,1067.52 708.981,996.237 710.968,996.237 712.956,996.237 714.944,996.237 716.931,1029.9 718.919,1063.41 720.907,1063.41 722.894,1097.35 724.882,1097.35 726.869,1127.89 728.857,1154.25 730.845,1156.63 732.832,1152.65 734.82,1128.87 736.808,1160.84 738.795,1160.84 740.783,1197.24 742.771,1216.61 744.758,1245.75 746.746,1315.72 748.733,1344.8 750.721,1311.66 752.709,1265.3 754.696,1205.01 756.684,1055.3 758.672,972.95 760.659,972.95 762.647,972.95 764.635,972.95 766.622,972.95 768.61,1007.08 770.597,1007.08 772.585,1007.08 774.573,1030.48 776.56,1048.5 778.548,1063.66 780.536,1077.69 782.523,1091.72 784.511,1106.78 786.499,1124.31 788.486,1146.14 790.474,1166.82 792.461,1173.77 794.449,1179.8 796.437,1180.79 798.424,1239.34 800.412,1219.44 802.4,1174.03 804.387,1066.33 806.375,994.126 808.363,994.126 810.35,994.126 812.338,994.126 814.325,1028.19 816.313,1028.19 818.301,1028.19 820.288,1049.62 822.276,1066.73 824.264,1081.98 826.251,1097.03 828.239,1113.33 830.227,1132.69 832.214,1155.33 834.202,1166.75 836.189,1171.88 838.177,1171.61 840.165,1179.37 842.152,1186.19 844.14,1144.05 846.128,1044.03 848.115,1047.59 850.103,1047.59 852.091,1074.8 854.078,1064.16 856.066,1063.78 858.053,1059.02 860.041,1059.02 862.029,1090.32 864.016,1090.32 866.004,1119.73 867.992,1153.28 869.979,1179.94 871.967,1188.56 873.955,1202.88 875.942,1203.08 877.93,1164.02 879.917,1075.29 881.905,997.522 883.893,997.522 885.88,997.522 887.868,1031.02 889.856,1064.49 891.843,1064.49 893.831,1097.69 895.819,1131.72 897.806,1131.72 899.794,1152.39 901.781,1161.29 903.769,1164.44 905.757,1163.51 907.744,1156.34 909.732,1203.49 911.72,1171.27 913.707,1098.55 915.695,983.554 917.683,983.554 919.67,983.554 921.658,1017.39 923.645,1051.16 925.633,1051.16 927.621,1051.16 929.608,1080.06 931.596,1106.36 933.584,1133.99 935.571,1156.37 937.559,1157.55 939.547,1156.36 941.534,1145.14 943.522,1145.14 945.509,1158.32 947.497,1160.38 949.485,1150.48 951.472,1144.16 953.46,1168.96 955.448,1165.37 957.435,1114.79 959.423,1004.22 961.411,1004.22 963.398,1037.94 965.386,1037.94 967.373,1071.68 969.361,1071.68 971.349,1104.98 973.336,1143.3 975.324,1157.95 977.312,1157.95 979.299,1157.98 981.287,1157.63 983.275,1157.02 985.262,1154.3 987.25,1154.3 989.237,1156.86 991.225,1157.41 993.213,1156.65 995.2,1138.64 997.188,1162.45 999.176,1238.23 1001.16,1232.03 1003.15,1212.02 1005.14,1185.98 1007.13,1126.33 1009.11,989.668 1011.1,989.668 1013.09,989.668 1015.08,1023.6 1017.06,1023.6 1019.05,1023.6 1021.04,1023.6 1023.03,1041.44 1025.01,1056.81 1027,1071.23 1028.99,1085.67 1030.98,1101.09 1032.97,1118.81 1034.95,1140.39 1036.94,1157.33 1038.93,1158.51 1040.92,1157.71 1042.9,1154.98 1044.89,1133.88 1046.88,1133.88 1048.87,1159.8 1050.85,1162.63 1052.84,1152.54 1054.83,1222.65 1056.82,1198.4 1058.8,1141.29 1060.79,1003.49 1062.78,1003.49 1064.77,1037.31 1066.76,1037.31 1068.74,1071.1 1070.73,1071.1 1072.72,1105.27 1074.71,1146.43 1076.69,1159.71 1078.68,1159.71 1080.67,1159.58 1082.66,1158.98 1084.64,1157.81 1086.63,1152.11 1088.62,1152.11 1090.61,1156.66 1092.59,1156.88 1094.58,1150.56 1096.57,1150.56 1098.56,1161.64 1100.55,1165.03 1102.53,1165.66 1104.52,1158.44 1106.51,1225.54 1108.5,1201.34 1110.48,1143.71 1112.47,1003.12 1114.46,1003.12 1116.45,1036.95 1118.43,1036.95 1120.42,1070.75 1122.41,1070.75 1124.4,1105.01 1126.38,1146.58 1128.37,1160.11 1130.36,1160.11 1132.35,1159.95 1134.33,1159.31 1136.32,1158.03 1138.31,1151.94 1140.3,1151.94 1142.29,1156.64 1144.27,1156.73 1146.26,1149.37 1148.25,1149.37 1150.24,1161.57 1152.22,1165.12 1154.21,1164.8 1156.2,1158.43 1158.19,1206.73 1160.17,1175.53 1162.16,1105.07 1164.15,979.797 1166.14,979.797 1168.12,979.797 1170.11,1013.68 1172.1,1047.48 1174.09,1047.48 1176.08,1047.48 1178.06,1077.11 1180.05,1104.15 1182.04,1132.37 1184.03,1157.14 1186.01,1158.76 1188,1157.45 1189.99,1149.5 1191.98,1149.5 1193.96,1156.79 1195.95,1157.3 1197.94,1147.72 1199.93,1147.72 1201.91,1165.06 1203.9,1170.46 1205.89,1172.39 1207.88,1173.08 1209.87,1201.34 1211.85,1168.16 1213.84,1091.86 1215.83,987.222 1217.82,987.222 1219.8,987.222 1221.79,1020.97 1223.78,1054.71 1225.77,1054.71 1227.75,1054.71 1229.74,1082.96 1231.73,1108.69 1233.72,1135.88 1235.7,1155.9 1237.69,1156.81 1239.68,1155.67 1241.67,1140.27 1243.65,1140.27 1245.64,1161.86 1247.63,1166.94 1249.62,1160.61 1251.61,1173.33 1253.59,1166.99 1255.58,1114.59 1257.57,1001.51 1259.56,1001.51 1261.54,1035.15 1263.53,1035.15 1265.52,1068.9 1267.51,1068.9 1269.49,1102.37 1271.48,1141.49 1273.47,1159.66 1275.46,1159.66 1277.44,1159.59 1279.43,1159.13 1281.42,1158.27 1283.41,1158.27 1285.4,1158.13 1287.38,1157.82 1289.37,1157.28 1291.36,1155.83 1293.35,1155.83 1295.33,1156.7 1297.32,1156.83 1299.31,1156.88 1301.3,1144.57 1303.28,1144.57 1305.27,1165.43 1307.26,1171.89 1309.25,1172.82 1311.23,1178.43 1313.22,1190.66 1315.21,1175.27 1317.2,1134.32 1319.19,1032.89 1321.17,1032.89 1323.16,1065.74 1325.15,1066.04 1327.14,1061.4 1329.12,1061.4 1331.11,1092.89 1333.1,1092.89 1335.09,1121.83 1337.07,1154.46 1339.06,1176.31 1341.05,1182.07 1343.04,1192.55 1345.02,1199.18 1347.01,1160.77 1349,1072.93 1350.99,1001.96 1352.97,1001.96 1354.96,1001.96 1356.95,1035.62 1358.94,1068.79 1360.93,1068.79 1362.91,1101.6 1364.9,1135.28 1366.89,1151.81 1368.88,1155.16 1370.86,1155.16 1372.85,1193.11 1374.84,1213.86 1376.83,1236.42 1378.81,1250.29 1380.8,1229.03 1382.79,1187.5 1384.78,1088.78 1386.76,967.043 1388.75,967.043 1390.74,967.043 1392.73,967.043 1394.72,1001.07 1396.7,1001.07 1398.69,1001.07 1400.68,1031.53 1402.67,1057.13 1404.65,1077.78 1406.64,1096.15 1408.63,1115.02 1410.62,1136.69 1412.6,1154.68 1414.59,1157.13 1416.58,1157.87 1418.57,1148.98 1420.55,1148.98 1422.54,1166.26 1424.53,1171.86 1426.52,1175.34 1428.51,1176.29 1430.49,1209.85 1432.48,1179.96 1434.47,1110.48 1436.46,976.405 1438.44,976.405 1440.43,976.405 1442.42,1010.33 1444.41,1044.14 1446.39,1044.14 1448.38,1044.14 1450.37,1074.42 1452.36,1102.22 1454.34,1131.13 1456.33,1158.05 1458.32,1160.16 1460.31,1158.76 1462.29,1152.74 1464.28,1121.97 1466.27,1079.7 1468.26,1035.27 1470.25,1066.84 1472.23,1012.56 1474.22,1045.83 1476.21,957.073 1478.2,957.073 1480.18,957.073 1482.17,957.073 1484.16,957.073 1486.15,991.101 1488.13,1025.1 1490.12,1025.1 1492.11,1025.1 1494.1,1045.46 1496.08,1061.97 1498.07,1076.81 1500.06,1091.34 1502.05,1106.75 1504.04,1124.52 1506.02,1145.99 1508.01,1161.93 1510,1166.16 1511.99,1168.98 1513.97,1162.57 1515.96,1226.05 1517.95,1204.17 1519.94,1151.59 1521.92,1026.1 1523.91,1026.1 1525.9,1059.41 1527.89,1059.45 1529.87,1052.49 1531.86,1052.49 1533.85,1083.89 1535.84,1083.89 1537.83,1115.57 1539.81,1151.86 1541.8,1178.66 1543.79,1184.23 1545.78,1253.27 1547.76,1244.92 1549.75,1210.06 1551.74,1134.21 1553.73,932.2 1555.71,932.2 1557.7,932.2 1559.69,932.2 1561.68,966.294 1563.66,966.294 1565.65,966.294 1567.64,966.294 1569.63,966.294 1571.61,979.35 1573.6,991.876 1575.59,1004.14 1577.58,1016.3 1579.57,1028.45 1581.55,1040.67 1583.54,1053.06 1585.53,1065.75 1587.52,1078.99 1589.5,1093.21 1591.49,1109.31 1593.48,1128.89 1595.47,1152.89 1597.45,1164.42 1599.44,1164.15 1601.43,1162.93 1603.42,1160.11 1605.4,1160.11 1607.39,1160.06 1609.38,1159.08 1611.37,1156.48 1613.36,1156.48 1615.34,1157.23 1617.33,1156.83 1619.32,1155.02 1621.31,1155.02 1623.29,1157.02 1625.28,1157.64 1627.27,1158.03 1629.26,1143.36 1631.24,1143.36 1633.23,1171.31 1635.22,1182.76 1637.21,1190.47 1639.19,1204.46 1641.18,1204.76 1643.17,1166.48 1645.16,1079.62 1647.15,992.886 1649.13,992.886 1651.12,992.886 1653.11,1026.36 1655.1,1060 1657.08,1060 1659.07,1093.47 1661.06,1128.71 1663.05,1128.71 1665.03,1150.31 1667.02,1157.73 1669.01,1159.24 1671,1156.4 1672.98,1139.67 1674.97,1212.58 1676.96,1247.71 1678.95,1225.48 1680.93,1180.95 1682.92,1073.99 1684.91,981.758 1686.9,981.758 1688.89,981.758 1690.87,981.758 1692.86,1015.79 1694.85,1015.79 1696.84,1015.79 1698.82,1042.76 1700.81,1064.02 1702.8,1081.68 1704.79,1098.27 1706.77,1115.89 1708.76,1136.54 1710.75,1156.33 1712.74,1161.44 1714.72,1164.48 1716.71,1156.88 1718.7,1161 1720.69,1159.64 1722.68,1108.16 1724.66,1003.47 1726.65,1003.47 1728.64,1037.07 1730.63,1037.07 1732.61,1070.81 1734.6,1070.81 1736.59,1104.09 1738.58,1142.4 1740.56,1158.03 1742.55,1158.03 1744.54,1158.06 1746.53,1157.71 1748.51,1157.08 1750.5,1154.45 1752.49,1154.45 1754.48,1156.81 1756.47,1157.29 1758.45,1156.54 1760.44,1138.59 1762.43,1159.96 1764.42,1238.39 1766.4,1273.81 1768.39,1241.15 1770.38,1206.38 1772.37,1153.5 1774.35,1030.67 1776.34,1030.67 1778.33,1063.49 1780.32,1055.71 1782.3,1055.71 1784.29,1085.37 1786.28,1123.22 1788.27,1185.1 1790.25,1175.94 1792.24,1099.96 1794.23,978.238 1796.22,978.238 1798.21,978.238 1800.19,1012.02 1802.18,1045.82 1804.17,1045.82 1806.16,1045.82 1808.14,1076.11 1810.13,1104.11 1812.12,1133.59 1814.11,1158.6 1816.09,1159.64 1818.08,1158.08 1820.07,1149.49 1822.06,1149.49 1824.04,1156.61 1826.03,1156.58 1828.02,1144.56 1830.01,1144.56 1832,1164.18 1833.98,1169.92 1835.97,1169.34 1837.96,1173.47 1839.95,1185.99 1841.93,1169.94 1843.92,1128.08 1845.91,1024.61 1847.9,1057.49 1849.88,1031.43 1851.87,1065.53 1853.86,1013.51 1855.85,1046.56 1857.83,971.875 1859.82,971.875 1861.81,971.875 1863.8,971.875 1865.79,971.875 1867.77,1005.48 1869.76,1039.4 1871.75,1039.4 1873.74,1039.4 1875.72,1061.53 1877.71,1079.66 1879.7,1096.43 1881.69,1113.99 1883.67,1134.39 1885.66,1154.64 1887.65,1160.09 1889.64,1162.7 1891.62,1156.09 1893.61,1151.57 1895.6,1151.57 1897.59,1190.41 1899.57,1212.71 1901.56,1234.39 1903.55,1248.41 1905.54,1227 1907.53,1184.31 1909.51,1082.49 1911.5,973.57 1913.49,973.57 1915.48,973.57 1917.46,973.57 1919.45,1007.59 1921.44,1007.59 1923.43,1007.59 1925.41,1036.7 1927.4,1060.36 1929.39,1079.55 1931.38,1097.04 1933.36,1115.28 1935.35,1136.38 1937.34,1154.99 1939.33,1158.44 1941.32,1160.11 1943.3,1151.11 1945.29,1141.55 1947.28,1171.9 1949.27,1171.71 1951.25,1124.41 1953.24,1013.15 1955.23,1046.93 1957.22,977.358 1959.2,977.358 1961.19,977.358 1963.18,977.358 1965.17,1010.69 1967.15,1044.59 1969.14,1044.59 1971.13,1044.59 1973.12,1066.95 1975.11,1085.5 1977.09,1103.02 1979.08,1121.98 1981.07,1143.98 1983.06,1158.34 1985.04,1161 1987.03,1162.07 1989.02,1149.41 1991.01,1179.15 1992.99,1157.14 1994.98,1090.39 1996.97,998.552 1998.96,998.552 2000.94,998.552 2002.93,1032.48 2004.92,1065.98 2006.91,1065.98 2008.89,1098.86 2010.88,1133.73 2012.87,1154.24 2014.86,1141.69 2016.85,1156.67 2018.83,1132.55 2020.82,1054.52 2022.81,1041.01 2024.8,1069.89 2026.78,1069.89 2028.77,1104.93 2030.76,1104.93 2032.75,1147.1 2034.73,1234.28 2036.72,1249.02 2038.71,1224.97 2040.7,1177.55 2042.68,1061.46 2044.67,994.89 2046.66,994.89 2048.65,994.89 2050.64,994.89 2052.62,1028.97 2054.61,1028.97 2056.6,1028.97 2058.59,1051.36 2060.57,1069.07 2062.56,1084.73 2064.55,1100.21 2066.54,1117.2 2068.52,1137.65 2070.51,1160.01 2072.5,1168.7 2074.49,1174.23 2076.47,1172.21 2078.46,1196.61 2080.45,1185.52 2082.44,1134.81 2084.43,1015.13 2086.41,1048.99 2088.4,984.046 2090.39,984.046 2092.38,984.046 2094.36,984.046 2096.35,1017.61 2098.34,1051.45 2100.33,1051.45 2102.31,1051.45 2104.3,1071.7 2106.29,1089.1 2108.28,1106.18 2110.26,1125.17 2112.25,1147.34 2114.24,1160.69 2116.23,1164.06 2118.21,1164.52 2120.2,1155.89 2122.19,1233.31 2124.18,1222.5 2126.17,1178.31 2128.15,1073.07 2130.14,985.003 2132.13,985.003 2134.12,985.003 2136.1,985.003 2138.09,1019.05 2140.08,1019.05 2142.07,1019.05 2144.05,1044.49 2146.04,1064.4 2148.03,1081.21 2150.02,1097.22 2152,1114.28 2153.99,1134.3 2155.98,1155.42 2157.97,1162.54 2159.96,1166.17 2161.94,1161.29 2163.93,1164.01 2165.92,1169.98 2167.91,1149.88 2169.89,1101 2171.88,1008.27 2173.87,1008.27 2175.86,1041.95 2177.84,1041.95 2179.83,1075.6 2181.82,1075.6 2183.81,1108.34 2185.79,1144.39 2187.78,1156.19 2189.77,1150.52 2191.76,1123.35 2193.75,1153.28 2195.73,1153.53 2197.72,1131.68 2199.71,1076.99 2201.7,1022.05 2203.68,1055.84 2205.67,1028.01 2207.66,1061.95 2209.65,1024.58 2211.63,1058.55 2213.62,1020.73 2215.61,1053.71 2217.6,1026.57 2219.58,1060.21 2221.57,1024.9 2223.56,1058.81 2225.55,1021.22 2227.53,1054.36 2229.52,1025.26 2231.51,1058.71 2233.5,1026.91 2235.49,1060.93 2237.47,1020.99 2239.46,1054.38 2241.45,1020.4 2243.44,1052.79 2245.42,1032.35 2247.41,1066.47 2249.4,1001.91 2251.39,1001.91 2253.37,1001.91 2255.36,1001.91 2257.35,1001.91 2259.34,1001.91 2261.32,1001.91 2263.31,1001.91 2265.3,1001.91 2267.29,1035.62 2269.28,1068.61 2271.26,1068.61 2273.25,1101.79 2275.24,1101.79 2277.23,1130.42 2279.21,1155.67 2281.2,1160.52 2283.19,1156.35 2285.18,1143.77 2287.16,1203.21 2289.15,1215.93 2291.14,1206.93 2293.13,1174.87 "/>
<polyline clip-path="url(#clip932)" style="stroke:#e26f46; stroke-linecap:round; stroke-linejoin:round; stroke-width:4; stroke-opacity:1; fill:none" points="305.491,1059.44 307.478,1059.44 309.466,1059.44 311.453,1059.44 313.441,1059.44 315.429,1059.44 317.416,1059.44 319.404,1059.44 321.392,1059.44 323.379,1059.44 325.367,1059.44 327.355,1074.33 329.342,1081.41 331.33,1082.89 333.317,1084.54 335.305,1085.08 337.293,1085.67 339.28,1085.93 341.268,1086.16 343.256,1086.29 345.243,1086.39 347.231,1086.44 349.219,1086.49 351.206,1086.51 353.194,1086.53 355.181,1086.53 357.169,1119.42 359.157,1157.11 361.144,1179.65 363.132,1249.18 365.12,1272.14 367.107,1302.52 369.095,1320.38 371.083,1358.96 373.07,1386.4 "/>
<polyline clip-path="url(#clip932)" style="stroke:#3da44d; stroke-linecap:round; stroke-linejoin:round; stroke-width:4; stroke-opacity:1; fill:none" points="305.491,1059.44 307.478,1059.44 309.466,1059.44 311.453,1059.44 313.441,1059.44 315.429,1059.44 317.416,1059.44 319.404,1059.44 321.392,1059.44 323.379,1059.44 325.367,1059.44 327.355,1074.33 329.342,1074.33 331.33,1106.66 333.317,1146.36 335.305,1201.66 337.293,1201.66 339.28,1234.61 341.268,1234.61 343.256,1243.38 345.243,1249.67 347.231,1249.67 349.219,1250.32 351.206,1251.12 353.194,1252.24 355.181,1254.34 357.169,1258.81 359.157,1269.33 361.144,1269.33 363.132,1270.98 365.12,1274.45 367.107,1282.29 369.095,1305 371.083,1317.95 373.07,1306.62 375.058,1279.49 377.045,1238.78 379.033,1175.14 381.021,976.07 383.008,976.07 384.996,976.07 386.984,1010.04 388.971,1010.04 390.959,1010.04 392.947,1010.04 394.934,1039.71 396.922,1064.42 398.909,1085.05 400.897,1104.7 402.885,1126.66 404.872,1126.66 406.86,1132.56 408.848,1142.41 410.835,1142.41 412.823,1144.71 414.811,1148.91 416.798,1148.91 418.786,1149.81 420.773,1151.52 422.761,1154.67 424.749,1154.67 426.736,1155.32 428.724,1156.57 430.712,1158.84 432.699,1158.84 434.687,1159.3 436.675,1160.18 438.662,1161.79 440.65,1161.79 442.637,1162.11 444.625,1162.72 446.613,1163.83 448.6,1165.67 450.588,1168.08 452.576,1170.05 454.563,1170.72 456.551,1170.68 458.539,1170.4 460.526,1169.84 462.514,1168.68 464.501,1166.2 466.489,1157.56 468.477,1115.65 470.464,1115.65 472.452,1147.54 474.44,1147.68 476.427,1149.96 478.415,1141.89 480.403,1080.93 482.39,1013.68 484.378,1046.53 486.365,1014.18 488.353,1014.18 490.341,1044.05 492.328,1044.05 494.316,1044.05 496.304,1077.36 498.291,1077.36 500.279,1105.41 502.267,1133.92 504.254,1133.92 506.242,1142.51 508.229,1153.1 510.217,1153.1 512.205,1154.87 514.192,1157.06 516.18,1158.74 518.168,1159.56 520.155,1160.37 522.143,1162.27 524.131,1164.98 526.118,1155.43 528.106,1172.51 530.093,1159.48 532.081,1100.81 534.069,998.001 536.056,1030.09 538.044,1030.09 540.032,1030.09 542.019,1030.09 544.007,1030.09 545.995,1030.09 547.982,1043.68 549.97,1056.89 551.957,1070.16 553.945,1083.97 555.933,1098.99 557.92,1116.44 559.908,1138.47 561.896,1165.59 563.883,1174.8 565.871,1174.41 567.859,1173.41 569.846,1171.29 571.834,1165.77 573.821,1135.72 575.809,1135.72 577.797,1149.3 579.784,1119.53 581.772,1123.17 583.76,1123.17 585.747,1156.81 587.735,1183.02 589.723,1193.1 591.71,1208.42 593.698,1206.54 595.685,1168.31 597.673,1081.6 599.661,990.209 601.648,1020.65 603.636,1023.97 605.624,1023.97 607.611,1023.97 609.599,1023.97 611.587,1057.34 613.574,1057.34 615.562,1057.34 617.549,1066.29 619.537,1076.89 621.525,1076.89 623.512,1078.71 625.5,1081.91 627.488,1087.1 629.475,1094.79 631.463,1105.28 633.451,1119.03 635.438,1137.23 637.426,1162.26 639.413,1196.63 641.401,1196.63 643.389,1207.08 645.376,1215.63 647.364,1219.67 649.352,1219.67 651.339,1220.22 653.327,1221.29 655.315,1223.46 657.302,1228.12 659.29,1239.2 661.277,1285.88 663.265,1285.88 665.253,1295.23 667.24,1303.64 669.228,1328.29 671.216,1339.29 673.203,1326.98 675.191,1299.08 677.179,1257.71 679.166,1201.65 681.154,1062.6 683.141,968.987 685.129,997.477 687.117,997.477 689.104,1031.35 691.092,1031.08 693.08,1031.08 695.067,1031.08 697.055,1031.08 699.043,1064.07 701.03,1064.07 703.018,1064.07 705.005,1070.19 706.993,1078.52 708.981,1088.97 710.968,1088.97 712.956,1090.86 714.944,1094.23 716.931,1099.77 718.919,1108.17 720.907,1120.08 722.894,1136.55 724.882,1159.6 726.869,1191.69 728.857,1218.82 730.845,1218.82 732.832,1220.8 734.82,1223.27 736.808,1228.33 738.795,1240.6 740.783,1290.19 742.771,1290.19 744.758,1307.66 746.746,1317.39 748.733,1346.68 750.721,1354.36 752.709,1340.28 754.696,1310.93 756.684,1268.24 758.672,1212.23 760.659,1089.03 762.647,941.494 764.635,941.494 766.622,941.494 768.61,941.494 770.597,975.102 772.585,975.102 774.573,975.102 776.56,975.102 778.548,975.102 780.536,993.645 782.523,1008.95 784.511,1022.71 786.499,1035.76 788.486,1048.56 790.474,1061.41 792.461,1074.62 794.449,1088.61 796.437,1104.15 798.424,1122.7 800.412,1146.61 802.4,1146.61 804.387,1153.55 806.375,1153.55 808.363,1155.09 810.35,1157.93 812.338,1162.75 814.325,1162.75 816.313,1163.74 818.301,1165.53 820.288,1168.38 822.276,1171.78 824.264,1173.95 826.251,1174.4 828.239,1174.28 830.227,1173.95 832.214,1173.3 834.202,1171.96 836.189,1168.99 838.177,1158.23 840.165,1108.07 842.152,1050.27 844.14,1058.72 846.128,1016.7 848.115,1050.56 850.103,983.02 852.091,1010.43 854.078,1044 856.066,974.243 858.053,974.243 860.041,974.243 862.029,974.243 864.016,974.243 866.004,1006.62 867.992,1040.5 869.979,1040.5 871.967,1040.5 873.955,1067.36 875.942,1089.79 877.93,1110.77 879.917,1133.75 881.905,1133.75 883.893,1139.76 885.88,1148.26 887.868,1148.26 889.856,1149.87 891.843,1152.3 893.831,1152.3 895.819,1152.74 897.806,1153.48 899.794,1154.58 901.781,1155.76 903.769,1156.51 905.757,1156.73 907.744,1156.82 909.732,1157.12 911.72,1157.71 913.707,1147.55 915.695,1147.55 917.683,1166.54 919.67,1172.68 921.658,1175.9 923.645,1178.69 925.633,1203.33 927.621,1170.35 929.608,1094.49 931.596,984.555 933.584,984.555 935.571,1016.48 937.559,1016.48 939.547,1016.48 941.534,1016.48 943.522,1016.48 945.509,1039.19 947.497,1057.33 949.485,1073.36 951.472,1089.03 953.46,1105.8 955.448,1125.65 957.435,1151.46 959.423,1178.17 961.411,1181.05 963.398,1180.57 965.386,1179.57 967.373,1177.45 969.361,1172.26 971.349,1146.34 973.336,1146.34 975.324,1154.15 977.312,1119.64 979.299,1119.64 981.287,1152.9 983.275,1162.67 985.262,1154.19 987.25,1216.67 989.237,1191.99 991.225,1133.29 993.213,994.321 995.2,994.321 997.188,1028.02 999.176,1028.02 1001.16,1028.02 1003.15,1028.02 1005.14,1028.02 1007.13,1044.04 1009.11,1058.53 1011.1,1072.59 1013.09,1086.99 1015.08,1102.66 1017.06,1121.07 1019.05,1144.51 1021.04,1167.81 1023.03,1170.55 1025.01,1169.83 1027,1168.31 1028.99,1164.79 1030.98,1147.65 1032.97,1147.65 1034.95,1157.13 1036.94,1146.29 1038.93,1146.29 1040.92,1156.94 1042.9,1157.41 1044.89,1143.63 1046.88,1143.63 1048.87,1168.74 1050.85,1177.76 1052.84,1182.33 1054.83,1193.16 1056.82,1198.65 1058.8,1159.68 1060.79,1070.49 1062.78,1004.61 1064.77,1035.48 1066.76,1014.21 1068.74,1014.21 1070.73,1014.21 1072.72,1014.21 1074.71,1048.26 1076.69,1080.11 1078.68,1080.11 1080.67,1080.11 1082.66,1080.11 1084.64,1081.66 1086.63,1084.45 1088.62,1089.1 1090.61,1096.18 1092.59,1106.11 1094.58,1119.39 1096.57,1137.14 1098.56,1161.43 1100.55,1189.07 1102.53,1189.07 1104.52,1193.12 1106.51,1193.12 1108.5,1193.66 1110.48,1194.39 1112.47,1195.23 1114.46,1196.35 1116.45,1196.35 1118.43,1196.56 1120.42,1196.95 1122.41,1197.75 1124.4,1199.38 1126.38,1202.81 1128.37,1210.54 1130.36,1231.06 1132.35,1245.23 1134.33,1234.8 1136.32,1205.86 1138.31,1139.34 1140.3,967.787 1142.29,967.787 1144.27,967.787 1146.26,1001.78 1148.25,1001.78 1150.24,1001.78 1152.22,1001.78 1154.21,1030.59 1156.2,1053.92 1158.19,1072.92 1160.17,1090.29 1162.16,1108.3 1164.15,1129.41 1166.14,1129.41 1168.12,1135.04 1170.11,1144.4 1172.1,1144.4 1174.09,1146.53 1176.08,1150.38 1178.06,1150.38 1180.05,1151.18 1182.04,1152.71 1184.03,1155.43 1186.01,1155.43 1188,1155.98 1189.99,1157.01 1191.98,1158.84 1193.96,1158.84 1195.95,1159.2 1197.94,1159.88 1199.93,1161.08 1201.91,1162.93 1203.9,1165.05 1205.89,1166.4 1207.88,1166.68 1209.87,1166.51 1211.85,1166.09 1213.84,1165.24 1215.83,1163.5 1217.82,1158.4 1219.8,1129.43 1221.79,1129.43 1223.78,1152.06 1225.77,1136.97 1227.75,1136.97 1229.74,1168.57 1231.73,1182.75 1233.72,1188.37 1235.7,1212.54 1237.69,1201.44 1239.68,1156.27 1241.67,1052.51 1243.65,1026.22 1245.64,1059.44 1247.63,1030.68 1249.62,1064.67 1251.61,1013.91 1253.59,1046.79 1255.58,982.658 1257.57,1009.73 1259.56,1043.48 1261.54,896.231 1263.53,925.67 1265.52,160.256 1267.51,160.256 1269.49,160.256 1271.48,160.256 1273.47,160.256 1275.46,160.256 1277.44,160.256 1279.43,160.256 1281.42,160.256 1283.41,160.256 1285.4,160.256 1287.38,160.256 1289.37,160.256 1291.36,160.256 1293.35,160.256 1295.33,160.256 1297.32,194.493 1299.31,228.729 1301.3,228.729 1303.28,228.729 1305.27,228.729 1307.26,228.729 1309.25,228.729 1311.23,228.729 1313.22,228.729 1315.21,228.729 1317.2,228.729 1319.19,228.729 1321.17,228.729 1323.16,228.729 1325.15,228.729 1327.14,228.729 1329.12,246.234 1331.11,260.935 1333.1,274.266 1335.09,286.907 1337.07,299.189 1339.06,311.279 1341.05,323.267 1343.04,335.199 1345.02,347.101 1347.01,358.986 1349,370.861 1350.99,382.732 1352.97,394.6 1354.96,406.467 1356.95,418.332 1358.94,430.197 1360.93,442.062 1362.91,453.927 1364.9,465.791 1366.89,477.656 1368.88,489.52 1370.86,501.384 1372.85,513.248 1374.84,525.111 1376.83,536.975 1378.81,548.839 1380.8,560.702 1382.79,572.565 1384.78,584.428 1386.76,596.291 1388.75,608.153 1390.74,620.016 1392.73,631.878 1394.72,643.74 1396.7,655.601 1398.69,667.462 1400.68,679.323 1402.67,691.184 1404.65,703.044 1406.64,714.903 1408.63,726.763 1410.62,738.621 1412.6,750.479 1414.59,762.337 1416.58,774.194 1418.57,786.05 1420.55,797.905 1422.54,809.76 1424.53,821.614 1426.52,833.467 1428.51,845.318 1430.49,857.169 1432.48,869.02 1434.47,880.869 1436.46,892.717 1438.44,904.565 1440.43,916.414 1442.42,928.262 1444.41,940.113 1446.39,951.968 1448.38,963.829 1450.37,975.701 1452.36,987.589 1454.34,999.504 1456.33,1011.46 1458.32,1023.48 1460.31,1035.6 1462.29,1047.88 1464.28,1060.43 1466.27,1073.43 1468.26,1087.26 1470.25,1102.59 1472.23,1120.83 1474.22,1144.49 1476.21,1177.45 1478.2,1177.45 1480.18,1177.45 1482.17,1179.02 1484.16,1182.04 1486.15,1187.64 1488.13,1187.64 1490.12,1188.9 1492.11,1191.34 1494.1,1191.34 1496.08,1191.85 1498.07,1192.87 1500.06,1194.84 1502.05,1194.84 1504.04,1195.25 1506.02,1196.07 1508.01,1197.66 1510,1197.66 1511.99,1197.99 1513.97,1198.65 1515.96,1199.94 1517.95,1199.94 1519.94,1200.2 1521.92,1200.73 1523.91,1201.76 1525.9,1201.76 1527.89,1201.97 1529.87,1202.39 1531.86,1203.23 1533.85,1203.23 1535.84,1203.4 1537.83,1203.73 1539.81,1204.4 1541.8,1204.4 1543.79,1204.54 1545.78,1204.81 1547.76,1205.35 1549.75,1205.35 1551.74,1205.46 1553.73,1205.67 1555.71,1206.1 1557.7,1206.1 1559.69,1206.19 1561.68,1206.36 1563.66,1206.71 1565.65,1206.71 1567.64,1206.78 1569.63,1206.92 1571.61,1207.2 1573.6,1207.2 1575.59,1207.25 1577.58,1207.36 1579.57,1207.58 1581.55,1208.03 1583.54,1208.03 1585.53,1208.11 1587.52,1208.29 1589.5,1208.65 1591.49,1208.65 1593.48,1208.72 1595.47,1208.86 1597.45,1209.14 1599.44,1209.14 1601.43,1209.2 1603.42,1209.31 1605.4,1209.54 1607.39,1209.54 1609.38,1209.59 1611.37,1209.68 1613.36,1209.86 1615.34,1210.22 1617.33,1210.22 1619.32,1210.3 1621.31,1210.44 1623.29,1210.73 1625.28,1210.73 1627.27,1210.79 1629.26,1210.91 1631.24,1211.14 1633.23,1211.14 1635.22,1211.19 1637.21,1211.28 1639.19,1211.46 1641.18,1211.46 1643.17,1211.5 1645.16,1211.58 1647.15,1211.73 1649.13,1212.02 1651.12,1212.02 1653.11,1212.08 1655.1,1212.2 1657.08,1212.44 1659.07,1212.44 1661.06,1212.49 1663.05,1212.58 1665.03,1212.77 1667.02,1212.77 1669.01,1212.81 1671,1212.89 1672.98,1213.04 1674.97,1213.04 1676.96,1213.07 1678.95,1213.13 1680.93,1213.26 1682.92,1213.5 1684.91,1213.5 1686.9,1213.55 1688.89,1213.65 1690.87,1213.84 1692.86,1213.84 1694.85,1213.88 1696.84,1213.96 1698.82,1214.12 1700.81,1214.12 1702.8,1214.15 1704.79,1214.21 1706.77,1214.34 1708.76,1214.34 1710.75,1214.36 1712.74,1214.41 1714.72,1214.51 1716.71,1214.71 1718.7,1214.71 1720.69,1214.75 1722.68,1214.83 1724.66,1214.99 1726.65,1214.99 1728.64,1215.02 1730.63,1215.09 1732.61,1215.22 1734.6,1215.22 1736.59,1215.24 1738.58,1215.29 1740.56,1215.4 1742.55,1215.6 1744.54,1215.6 1746.53,1215.64 1748.51,1215.72 1750.5,1215.89 1752.49,1215.89 1754.48,1215.92 1756.47,1215.99 1758.45,1216.12 1760.44,1216.12 1762.43,1216.14 1764.42,1216.2 1766.4,1216.3 1768.39,1216.3 1770.38,1216.32 1772.37,1216.36 1774.35,1216.45 1776.34,1216.62 1778.33,1216.62 1780.32,1216.65 1782.3,1216.72 1784.29,1216.85 1786.28,1216.85 1788.27,1216.88 1790.25,1216.93 1792.24,1217.04 1794.23,1217.04 1796.22,1217.06 1798.21,1217.1 1800.19,1217.19 1802.18,1217.36 1804.17,1217.36 1806.16,1217.4 1808.14,1217.47 1810.13,1217.6 1812.12,1217.6 1814.11,1217.63 1816.09,1217.69 1818.08,1217.8 1820.07,1217.8 1822.06,1217.82 1824.04,1217.86 1826.03,1217.95 1828.02,1217.95 1830.01,1217.97 1832,1218 1833.98,1218.07 1835.97,1218.21 1837.96,1218.21 1839.95,1218.24 1841.93,1218.3 1843.92,1218.41 1845.91,1218.41 1847.9,1218.43 1849.88,1218.48 1851.87,1218.57 1853.86,1218.57 1855.85,1218.59 1857.83,1218.62 1859.82,1218.7 1861.81,1218.84 1863.8,1218.84 1865.79,1218.87 1867.77,1218.93 1869.76,1219.04 1871.75,1219.04 1873.74,1219.07 1875.72,1219.11 1877.71,1219.2 1879.7,1219.2 1881.69,1219.22 1883.67,1219.26 1885.66,1219.33 1887.65,1219.33 1889.64,1219.35 1891.62,1219.38 1893.61,1219.44 1895.6,1219.56 1897.59,1219.56 1899.57,1219.58 1901.56,1219.63 1903.55,1219.72 1905.54,1219.72 1907.53,1219.74 1909.51,1219.78 1911.5,1219.85 1913.49,1219.85 1915.48,1219.87 1917.46,1219.9 1919.45,1219.96 1921.44,1220.08 1923.43,1220.08 1925.41,1220.11 1927.4,1220.15 1929.39,1220.25 1931.38,1220.25 1933.36,1220.27 1935.35,1220.31 1937.34,1220.39 1939.33,1220.39 1941.32,1220.4 1943.3,1220.43 1945.29,1220.5 1947.28,1220.5 1949.27,1220.51 1951.25,1220.53 1953.24,1220.58 1955.23,1220.68 1957.22,1220.68 1959.2,1220.7 1961.19,1220.74 1963.18,1220.82 1965.17,1220.82 1967.15,1220.84 1969.14,1220.87 1971.13,1220.93 1973.12,1220.93 1975.11,1220.94 1977.09,1220.97 1979.08,1221.02 1981.07,1221.12 1983.06,1221.12 1985.04,1221.14 1987.03,1221.18 1989.02,1221.26 1991.01,1221.26 1992.99,1221.28 1994.98,1221.31 1996.97,1221.38 1998.96,1221.38 2000.94,1221.39 2002.93,1221.42 2004.92,1221.47 2006.91,1221.57 2008.89,1221.57 2010.88,1221.59 2012.87,1221.64 2014.86,1221.72 2016.85,1221.72 2018.83,1221.74 2020.82,1221.77 2022.81,1221.84 2024.8,1221.84 2026.78,1221.85 2028.77,1221.88 2030.76,1221.93 2032.75,1221.93 2034.73,1221.94 2036.72,1221.96 2038.71,1222 2040.7,1222.09 2042.68,1222.09 2044.67,1222.11 2046.66,1222.14 2048.65,1222.21 2050.64,1222.21 2052.62,1222.22 2054.61,1222.25 2056.6,1222.3 2058.59,1222.3 2060.57,1222.32 2062.56,1222.34 2064.55,1222.38 2066.54,1222.47 2068.52,1222.47 2070.51,1222.49 2072.5,1222.52 2074.49,1222.59 2076.47,1222.59 2078.46,1222.6 2080.45,1222.63 2082.44,1222.69 2084.43,1222.69 2086.41,1222.7 2088.4,1222.72 2090.39,1222.77 2092.38,1222.86 2094.36,1222.86 2096.35,1222.87 2098.34,1222.91 2100.33,1222.98 2102.31,1222.98 2104.3,1223 2106.29,1223.02 2108.28,1223.08 2110.26,1223.08 2112.25,1223.09 2114.24,1223.12 2116.23,1223.16 2118.21,1223.16 2120.2,1223.17 2122.19,1223.19 2124.18,1223.23 2126.17,1223.3 2128.15,1223.3 2130.14,1223.31 2132.13,1223.34 2134.12,1223.4 2136.1,1223.4 2138.09,1223.41 2140.08,1223.44 2142.07,1223.48 2144.05,1223.48 2146.04,1223.49 2148.03,1223.51 2150.02,1223.55 2152,1223.62 2153.99,1223.62 2155.98,1223.64 2157.97,1223.67 2159.96,1223.73 2161.94,1223.73 2163.93,1223.74 2165.92,1223.77 2167.91,1223.81 2169.89,1223.81 2171.88,1223.82 2173.87,1223.84 2175.86,1223.88 2177.84,1223.96 2179.83,1223.96 2181.82,1223.97 2183.81,1224 2185.79,1224.07 2187.78,1224.07 2189.77,1224.08 2191.76,1224.1 2193.75,1224.15 2195.73,1224.15 2197.72,1224.16 2199.71,1224.18 2201.7,1224.22 2203.68,1224.22 2205.67,1224.23 2207.66,1224.24 2209.65,1224.28 2211.63,1224.34 2213.62,1224.34 2215.61,1224.35 2217.6,1224.38 2219.58,1224.43 2221.57,1224.43 2223.56,1224.44 2225.55,1224.46 2227.53,1224.5 2229.52,1224.5 2231.51,1224.51 2233.5,1224.52 2235.49,1224.55 2237.47,1224.62 2239.46,1224.62 2241.45,1224.63 2243.44,1224.66 2245.42,1224.71 2247.41,1224.71 2249.4,1224.72 2251.39,1224.74 2253.37,1224.78 2255.36,1224.78 2257.35,1224.79 2259.34,1224.81 2261.32,1224.84 2263.31,1224.9 2265.3,1224.9 2267.29,1224.92 2269.28,1224.94 2271.26,1225 2273.25,1225 2275.24,1225.01 2277.23,1225.03 2279.21,1225.07 2281.2,1225.07 2283.19,1225.08 2285.18,1225.1 2287.16,1225.13 2289.15,1225.2 2291.14,1225.2 2293.13,1225.21 "/>
<polyline clip-path="url(#clip932)" style="stroke:#c271d2; stroke-linecap:round; stroke-linejoin:round; stroke-width:4; stroke-opacity:1; fill:none" points="305.491,1059.44 307.478,1059.44 309.466,1059.44 311.453,1059.44 313.441,1059.44 315.429,1059.44 317.416,1059.44 319.404,1059.44 321.392,1059.44 323.379,1059.44 325.367,1059.44 327.355,1074.33 329.342,1081.41 331.33,1082.89 333.317,1084.54 335.305,1085.08 337.293,1085.67 339.28,1085.93 341.268,1086.16 343.256,1086.29 345.243,1086.39 347.231,1086.44 349.219,1086.49 351.206,1086.51 353.194,1086.53 355.181,1086.53 357.169,1119.42 359.157,1157.11 361.144,1179.65 363.132,1249.18 365.12,1276.88 367.107,1297.82 369.095,1323.79 371.083,1353.68 373.07,1386.15 "/>
<polyline clip-path="url(#clip932)" style="stroke:#ac8d18; stroke-linecap:round; stroke-linejoin:round; stroke-width:4; stroke-opacity:1; fill:none" points="305.491,1059.44 307.478,1059.44 309.466,1059.44 311.453,1059.44 313.441,1059.44 315.429,1059.44 317.416,1059.44 319.404,1059.44 321.392,1059.44 323.379,1059.44 325.367,1059.44 327.355,1074.33 329.342,1081.41 331.33,1082.89 333.317,1084.54 335.305,1085.08 337.293,1085.67 339.28,1085.93 341.268,1086.16 343.256,1086.29 345.243,1086.39 347.231,1086.44 349.219,1086.49 351.206,1086.51 353.194,1086.53 355.181,1086.53 357.169,1119.42 359.157,1157.11 361.144,1179.65 363.132,1249.18 365.12,1265.72 367.107,1269.67 369.095,1273.63 371.083,1277.59 373.07,1281.55 375.058,1285.5 377.045,1289.46 379.033,1293.42 381.021,1297.37 383.008,1301.33 384.996,1305.28 386.984,1309.24 388.971,1313.19 390.959,1317.15 392.947,1321.1 394.934,1325.06 396.922,1329.01 398.909,1332.97 400.897,1336.92 402.885,1340.88 404.872,1344.83 406.86,1348.79 408.848,1352.74 410.835,1356.7 412.823,1360.66 414.811,1364.61 416.798,1368.57 418.786,1372.52 420.773,1376.48 "/>
<path clip-path="url(#clip930)" d="M1748.74 477.836 L2282.53 477.836 L2282.53 166.796 L1748.74 166.796  Z" fill="#ffffff" fill-rule="evenodd" fill-opacity="1"/>
<polyline clip-path="url(#clip930)" style="stroke:#000000; stroke-linecap:round; stroke-linejoin:round; stroke-width:4; stroke-opacity:1; fill:none" points="1748.74,477.836 2282.53,477.836 2282.53,166.796 1748.74,166.796 1748.74,477.836 "/>
<polyline clip-path="url(#clip930)" style="stroke:#009af9; stroke-linecap:round; stroke-linejoin:round; stroke-width:4; stroke-opacity:1; fill:none" points="1772.15,218.636 1912.61,218.636 "/>
<path clip-path="url(#clip930)" d="M1936.02 201.356 L1940.69 201.356 L1940.69 231.981 L1957.52 231.981 L1957.52 235.916 L1936.02 235.916 L1936.02 201.356 Z" fill="#000000" fill-rule="nonzero" fill-opacity="1" /><path clip-path="url(#clip930)" d="M1962.43 201.356 L1969.4 201.356 L1978.21 224.874 L1987.08 201.356 L1994.05 201.356 L1994.05 235.916 L1989.49 235.916 L1989.49 205.569 L1980.58 229.272 L1975.88 229.272 L1966.96 205.569 L1966.96 235.916 L1962.43 235.916 L1962.43 201.356 Z" fill="#000000" fill-rule="nonzero" fill-opacity="1" /><path clip-path="url(#clip930)" d="M2022.84 243.786 L2022.84 247.096 L1998.21 247.096 L1998.21 243.786 L2022.84 243.786 Z" fill="#000000" fill-rule="nonzero" fill-opacity="1" /><path clip-path="url(#clip930)" d="M2047.75 202.49 L2047.75 207.05 Q2045.09 205.777 2042.73 205.152 Q2040.37 204.527 2038.17 204.527 Q2034.35 204.527 2032.27 206.008 Q2030.21 207.49 2030.21 210.221 Q2030.21 212.513 2031.57 213.694 Q2032.96 214.851 2036.8 215.569 L2039.63 216.147 Q2044.86 217.143 2047.33 219.666 Q2049.83 222.166 2049.83 226.379 Q2049.83 231.402 2046.46 233.994 Q2043.1 236.587 2036.59 236.587 Q2034.14 236.587 2031.36 236.031 Q2028.61 235.476 2025.65 234.388 L2025.65 229.573 Q2028.49 231.17 2031.22 231.981 Q2033.96 232.791 2036.59 232.791 Q2040.6 232.791 2042.77 231.217 Q2044.95 229.643 2044.95 226.726 Q2044.95 224.18 2043.38 222.744 Q2041.83 221.309 2038.26 220.592 L2035.41 220.036 Q2030.18 218.995 2027.84 216.772 Q2025.51 214.55 2025.51 210.592 Q2025.51 206.008 2028.72 203.37 Q2031.96 200.731 2037.64 200.731 Q2040.07 200.731 2042.59 201.171 Q2045.11 201.61 2047.75 202.49 Z" fill="#000000" fill-rule="nonzero" fill-opacity="1" /><path clip-path="url(#clip930)" d="M2061.8 205.198 L2061.8 218.184 L2067.68 218.184 Q2070.95 218.184 2072.73 216.495 Q2074.51 214.805 2074.51 211.68 Q2074.51 208.578 2072.73 206.888 Q2070.95 205.198 2067.68 205.198 L2061.8 205.198 M2057.13 201.356 L2067.68 201.356 Q2073.49 201.356 2076.46 203.995 Q2079.44 206.61 2079.44 211.68 Q2079.44 216.795 2076.46 219.411 Q2073.49 222.027 2067.68 222.027 L2061.8 222.027 L2061.8 235.916 L2057.13 235.916 L2057.13 201.356 Z" fill="#000000" fill-rule="nonzero" fill-opacity="1" /><path clip-path="url(#clip930)" d="M2109.28 230.985 L2109.28 221.703 L2101.64 221.703 L2101.64 217.86 L2113.91 217.86 L2113.91 232.698 Q2111.2 234.619 2107.94 235.615 Q2104.67 236.587 2100.97 236.587 Q2092.87 236.587 2088.28 231.865 Q2083.72 227.119 2083.72 218.67 Q2083.72 210.198 2088.28 205.476 Q2092.87 200.731 2100.97 200.731 Q2104.35 200.731 2107.38 201.564 Q2110.44 202.397 2113.01 204.018 L2113.01 208.995 Q2110.41 206.796 2107.5 205.684 Q2104.58 204.573 2101.36 204.573 Q2095.02 204.573 2091.83 208.115 Q2088.65 211.657 2088.65 218.67 Q2088.65 225.661 2091.83 229.203 Q2095.02 232.744 2101.36 232.744 Q2103.84 232.744 2105.78 232.328 Q2107.73 231.888 2109.28 230.985 Z" fill="#000000" fill-rule="nonzero" fill-opacity="1" /><polyline clip-path="url(#clip930)" style="stroke:#e26f46; stroke-linecap:round; stroke-linejoin:round; stroke-width:4; stroke-opacity:1; fill:none" points="1772.15,270.476 1912.61,270.476 "/>
<path clip-path="url(#clip930)" d="M1936.02 253.196 L1940.69 253.196 L1940.69 283.821 L1957.52 283.821 L1957.52 287.756 L1936.02 287.756 L1936.02 253.196 Z" fill="#000000" fill-rule="nonzero" fill-opacity="1" /><path clip-path="url(#clip930)" d="M1962.43 253.196 L1969.4 253.196 L1978.21 276.714 L1987.08 253.196 L1994.05 253.196 L1994.05 287.756 L1989.49 287.756 L1989.49 257.409 L1980.58 281.112 L1975.88 281.112 L1966.96 257.409 L1966.96 287.756 L1962.43 287.756 L1962.43 253.196 Z" fill="#000000" fill-rule="nonzero" fill-opacity="1" /><path clip-path="url(#clip930)" d="M2022.84 295.626 L2022.84 298.936 L1998.21 298.936 L1998.21 295.626 L2022.84 295.626 Z" fill="#000000" fill-rule="nonzero" fill-opacity="1" /><path clip-path="url(#clip930)" d="M2038.58 257.802 L2032.24 275.001 L2044.95 275.001 L2038.58 257.802 M2035.95 253.196 L2041.25 253.196 L2054.42 287.756 L2049.56 287.756 L2046.41 278.89 L2030.83 278.89 L2027.68 287.756 L2022.75 287.756 L2035.95 253.196 Z" fill="#000000" fill-rule="nonzero" fill-opacity="1" /><path clip-path="url(#clip930)" d="M2080.83 272.108 L2080.83 287.756 L2076.57 287.756 L2076.57 272.247 Q2076.57 268.566 2075.14 266.737 Q2073.7 264.909 2070.83 264.909 Q2067.38 264.909 2065.39 267.108 Q2063.4 269.307 2063.4 273.103 L2063.4 287.756 L2059.12 287.756 L2059.12 261.83 L2063.4 261.83 L2063.4 265.858 Q2064.93 263.52 2066.99 262.362 Q2069.07 261.205 2071.78 261.205 Q2076.25 261.205 2078.54 263.983 Q2080.83 266.737 2080.83 272.108 Z" fill="#000000" fill-rule="nonzero" fill-opacity="1" /><path clip-path="url(#clip930)" d="M2106.39 265.765 L2106.39 251.737 L2110.64 251.737 L2110.64 287.756 L2106.39 287.756 L2106.39 283.867 Q2105.04 286.182 2102.98 287.316 Q2100.95 288.427 2098.08 288.427 Q2093.38 288.427 2090.41 284.677 Q2087.47 280.927 2087.47 274.816 Q2087.47 268.705 2090.41 264.955 Q2093.38 261.205 2098.08 261.205 Q2100.95 261.205 2102.98 262.339 Q2105.04 263.45 2106.39 265.765 M2091.87 274.816 Q2091.87 279.515 2093.79 282.2 Q2095.74 284.862 2099.12 284.862 Q2102.5 284.862 2104.44 282.2 Q2106.39 279.515 2106.39 274.816 Q2106.39 270.117 2104.44 267.455 Q2102.5 264.77 2099.12 264.77 Q2095.74 264.77 2093.79 267.455 Q2091.87 270.117 2091.87 274.816 Z" fill="#000000" fill-rule="nonzero" fill-opacity="1" /><path clip-path="url(#clip930)" d="M2134.44 265.811 Q2133.72 265.395 2132.87 265.21 Q2132.03 265.001 2131.01 265.001 Q2127.4 265.001 2125.46 267.362 Q2123.54 269.7 2123.54 274.098 L2123.54 287.756 L2119.26 287.756 L2119.26 261.83 L2123.54 261.83 L2123.54 265.858 Q2124.88 263.497 2127.03 262.362 Q2129.19 261.205 2132.26 261.205 Q2132.7 261.205 2133.24 261.274 Q2133.77 261.321 2134.42 261.436 L2134.44 265.811 Z" fill="#000000" fill-rule="nonzero" fill-opacity="1" /><path clip-path="url(#clip930)" d="M2160.04 273.728 L2160.04 275.811 L2140.46 275.811 Q2140.74 280.209 2143.1 282.524 Q2145.48 284.816 2149.72 284.816 Q2152.17 284.816 2154.46 284.214 Q2156.78 283.612 2159.05 282.409 L2159.05 286.436 Q2156.76 287.408 2154.35 287.918 Q2151.94 288.427 2149.46 288.427 Q2143.26 288.427 2139.63 284.816 Q2136.01 281.205 2136.01 275.047 Q2136.01 268.682 2139.44 264.955 Q2142.89 261.205 2148.72 261.205 Q2153.95 261.205 2156.99 264.585 Q2160.04 267.941 2160.04 273.728 M2155.78 272.478 Q2155.74 268.983 2153.82 266.899 Q2151.92 264.816 2148.77 264.816 Q2145.2 264.816 2143.05 266.83 Q2140.92 268.844 2140.6 272.501 L2155.78 272.478 Z" fill="#000000" fill-rule="nonzero" fill-opacity="1" /><path clip-path="url(#clip930)" d="M2167.03 261.83 L2171.29 261.83 L2171.29 287.756 L2167.03 287.756 L2167.03 261.83 M2167.03 251.737 L2171.29 251.737 L2171.29 257.131 L2167.03 257.131 L2167.03 251.737 Z" fill="#000000" fill-rule="nonzero" fill-opacity="1" /><path clip-path="url(#clip930)" d="M2199.9 295.626 L2199.9 298.936 L2175.27 298.936 L2175.27 295.626 L2199.9 295.626 Z" fill="#000000" fill-rule="nonzero" fill-opacity="1" /><path clip-path="url(#clip930)" d="M2215.69 274.723 Q2210.53 274.723 2208.54 275.904 Q2206.55 277.084 2206.55 279.932 Q2206.55 282.2 2208.03 283.543 Q2209.53 284.862 2212.1 284.862 Q2215.64 284.862 2217.77 282.362 Q2219.93 279.839 2219.93 275.672 L2219.93 274.723 L2215.69 274.723 M2224.19 272.964 L2224.19 287.756 L2219.93 287.756 L2219.93 283.821 Q2218.47 286.182 2216.29 287.316 Q2214.12 288.427 2210.97 288.427 Q2206.99 288.427 2204.63 286.205 Q2202.29 283.959 2202.29 280.209 Q2202.29 275.834 2205.2 273.612 Q2208.14 271.39 2213.95 271.39 L2219.93 271.39 L2219.93 270.973 Q2219.93 268.034 2217.98 266.436 Q2216.06 264.816 2212.57 264.816 Q2210.34 264.816 2208.24 265.348 Q2206.13 265.881 2204.19 266.946 L2204.19 263.01 Q2206.52 262.108 2208.72 261.668 Q2210.92 261.205 2213.01 261.205 Q2218.63 261.205 2221.41 264.122 Q2224.19 267.038 2224.19 272.964 Z" fill="#000000" fill-rule="nonzero" fill-opacity="1" /><path clip-path="url(#clip930)" d="M2232.96 251.737 L2237.22 251.737 L2237.22 287.756 L2232.96 287.756 L2232.96 251.737 Z" fill="#000000" fill-rule="nonzero" fill-opacity="1" /><path clip-path="url(#clip930)" d="M2250.34 254.469 L2250.34 261.83 L2259.12 261.83 L2259.12 265.14 L2250.34 265.14 L2250.34 279.214 Q2250.34 282.385 2251.2 283.288 Q2252.08 284.191 2254.74 284.191 L2259.12 284.191 L2259.12 287.756 L2254.74 287.756 Q2249.81 287.756 2247.94 285.927 Q2246.06 284.075 2246.06 279.214 L2246.06 265.14 L2242.94 265.14 L2242.94 261.83 L2246.06 261.83 L2246.06 254.469 L2250.34 254.469 Z" fill="#000000" fill-rule="nonzero" fill-opacity="1" /><polyline clip-path="url(#clip930)" style="stroke:#3da44d; stroke-linecap:round; stroke-linejoin:round; stroke-width:4; stroke-opacity:1; fill:none" points="1772.15,322.316 1912.61,322.316 "/>
<path clip-path="url(#clip930)" d="M1936.02 305.036 L1940.69 305.036 L1940.69 335.661 L1957.52 335.661 L1957.52 339.596 L1936.02 339.596 L1936.02 305.036 Z" fill="#000000" fill-rule="nonzero" fill-opacity="1" /><path clip-path="url(#clip930)" d="M1962.43 305.036 L1969.4 305.036 L1978.21 328.554 L1987.08 305.036 L1994.05 305.036 L1994.05 339.596 L1989.49 339.596 L1989.49 309.249 L1980.58 332.952 L1975.88 332.952 L1966.96 309.249 L1966.96 339.596 L1962.43 339.596 L1962.43 305.036 Z" fill="#000000" fill-rule="nonzero" fill-opacity="1" /><path clip-path="url(#clip930)" d="M2022.84 347.466 L2022.84 350.776 L1998.21 350.776 L1998.21 347.466 L2022.84 347.466 Z" fill="#000000" fill-rule="nonzero" fill-opacity="1" /><path clip-path="url(#clip930)" d="M2038.58 309.642 L2032.24 326.841 L2044.95 326.841 L2038.58 309.642 M2035.95 305.036 L2041.25 305.036 L2054.42 339.596 L2049.56 339.596 L2046.41 330.73 L2030.83 330.73 L2027.68 339.596 L2022.75 339.596 L2035.95 305.036 Z" fill="#000000" fill-rule="nonzero" fill-opacity="1" /><path clip-path="url(#clip930)" d="M2080.83 323.948 L2080.83 339.596 L2076.57 339.596 L2076.57 324.087 Q2076.57 320.406 2075.14 318.577 Q2073.7 316.749 2070.83 316.749 Q2067.38 316.749 2065.39 318.948 Q2063.4 321.147 2063.4 324.943 L2063.4 339.596 L2059.12 339.596 L2059.12 313.67 L2063.4 313.67 L2063.4 317.698 Q2064.93 315.36 2066.99 314.202 Q2069.07 313.045 2071.78 313.045 Q2076.25 313.045 2078.54 315.823 Q2080.83 318.577 2080.83 323.948 Z" fill="#000000" fill-rule="nonzero" fill-opacity="1" /><path clip-path="url(#clip930)" d="M2106.39 317.605 L2106.39 303.577 L2110.64 303.577 L2110.64 339.596 L2106.39 339.596 L2106.39 335.707 Q2105.04 338.022 2102.98 339.156 Q2100.95 340.267 2098.08 340.267 Q2093.38 340.267 2090.41 336.517 Q2087.47 332.767 2087.47 326.656 Q2087.47 320.545 2090.41 316.795 Q2093.38 313.045 2098.08 313.045 Q2100.95 313.045 2102.98 314.179 Q2105.04 315.29 2106.39 317.605 M2091.87 326.656 Q2091.87 331.355 2093.79 334.04 Q2095.74 336.702 2099.12 336.702 Q2102.5 336.702 2104.44 334.04 Q2106.39 331.355 2106.39 326.656 Q2106.39 321.957 2104.44 319.295 Q2102.5 316.61 2099.12 316.61 Q2095.74 316.61 2093.79 319.295 Q2091.87 321.957 2091.87 326.656 Z" fill="#000000" fill-rule="nonzero" fill-opacity="1" /><path clip-path="url(#clip930)" d="M2134.44 317.651 Q2133.72 317.235 2132.87 317.05 Q2132.03 316.841 2131.01 316.841 Q2127.4 316.841 2125.46 319.202 Q2123.54 321.54 2123.54 325.938 L2123.54 339.596 L2119.26 339.596 L2119.26 313.67 L2123.54 313.67 L2123.54 317.698 Q2124.88 315.337 2127.03 314.202 Q2129.19 313.045 2132.26 313.045 Q2132.7 313.045 2133.24 313.114 Q2133.77 313.161 2134.42 313.276 L2134.44 317.651 Z" fill="#000000" fill-rule="nonzero" fill-opacity="1" /><path clip-path="url(#clip930)" d="M2160.04 325.568 L2160.04 327.651 L2140.46 327.651 Q2140.74 332.049 2143.1 334.364 Q2145.48 336.656 2149.72 336.656 Q2152.17 336.656 2154.46 336.054 Q2156.78 335.452 2159.05 334.249 L2159.05 338.276 Q2156.76 339.248 2154.35 339.758 Q2151.94 340.267 2149.46 340.267 Q2143.26 340.267 2139.63 336.656 Q2136.01 333.045 2136.01 326.887 Q2136.01 320.522 2139.44 316.795 Q2142.89 313.045 2148.72 313.045 Q2153.95 313.045 2156.99 316.425 Q2160.04 319.781 2160.04 325.568 M2155.78 324.318 Q2155.74 320.823 2153.82 318.739 Q2151.92 316.656 2148.77 316.656 Q2145.2 316.656 2143.05 318.67 Q2140.92 320.684 2140.6 324.341 L2155.78 324.318 Z" fill="#000000" fill-rule="nonzero" fill-opacity="1" /><path clip-path="url(#clip930)" d="M2167.03 313.67 L2171.29 313.67 L2171.29 339.596 L2167.03 339.596 L2167.03 313.67 M2167.03 303.577 L2171.29 303.577 L2171.29 308.971 L2167.03 308.971 L2167.03 303.577 Z" fill="#000000" fill-rule="nonzero" fill-opacity="1" /><polyline clip-path="url(#clip930)" style="stroke:#c271d2; stroke-linecap:round; stroke-linejoin:round; stroke-width:4; stroke-opacity:1; fill:none" points="1772.15,374.156 1912.61,374.156 "/>
<path clip-path="url(#clip930)" d="M1936.02 356.876 L1940.69 356.876 L1940.69 387.501 L1957.52 387.501 L1957.52 391.436 L1936.02 391.436 L1936.02 356.876 Z" fill="#000000" fill-rule="nonzero" fill-opacity="1" /><path clip-path="url(#clip930)" d="M1962.43 356.876 L1969.4 356.876 L1978.21 380.394 L1987.08 356.876 L1994.05 356.876 L1994.05 391.436 L1989.49 391.436 L1989.49 361.089 L1980.58 384.792 L1975.88 384.792 L1966.96 361.089 L1966.96 391.436 L1962.43 391.436 L1962.43 356.876 Z" fill="#000000" fill-rule="nonzero" fill-opacity="1" /><path clip-path="url(#clip930)" d="M2022.84 399.306 L2022.84 402.616 L1998.21 402.616 L1998.21 399.306 L2022.84 399.306 Z" fill="#000000" fill-rule="nonzero" fill-opacity="1" /><path clip-path="url(#clip930)" d="M2047.75 358.01 L2047.75 362.57 Q2045.09 361.297 2042.73 360.672 Q2040.37 360.047 2038.17 360.047 Q2034.35 360.047 2032.27 361.528 Q2030.21 363.01 2030.21 365.741 Q2030.21 368.033 2031.57 369.214 Q2032.96 370.371 2036.8 371.089 L2039.63 371.667 Q2044.86 372.663 2047.33 375.186 Q2049.83 377.686 2049.83 381.899 Q2049.83 386.922 2046.46 389.514 Q2043.1 392.107 2036.59 392.107 Q2034.14 392.107 2031.36 391.551 Q2028.61 390.996 2025.65 389.908 L2025.65 385.093 Q2028.49 386.69 2031.22 387.501 Q2033.96 388.311 2036.59 388.311 Q2040.6 388.311 2042.77 386.737 Q2044.95 385.163 2044.95 382.246 Q2044.95 379.7 2043.38 378.264 Q2041.83 376.829 2038.26 376.112 L2035.41 375.556 Q2030.18 374.515 2027.84 372.292 Q2025.51 370.07 2025.51 366.112 Q2025.51 361.528 2028.72 358.89 Q2031.96 356.251 2037.64 356.251 Q2040.07 356.251 2042.59 356.691 Q2045.11 357.13 2047.75 358.01 Z" fill="#000000" fill-rule="nonzero" fill-opacity="1" /><path clip-path="url(#clip930)" d="M2061.8 360.718 L2061.8 373.704 L2067.68 373.704 Q2070.95 373.704 2072.73 372.015 Q2074.51 370.325 2074.51 367.2 Q2074.51 364.098 2072.73 362.408 Q2070.95 360.718 2067.68 360.718 L2061.8 360.718 M2057.13 356.876 L2067.68 356.876 Q2073.49 356.876 2076.46 359.515 Q2079.44 362.13 2079.44 367.2 Q2079.44 372.315 2076.46 374.931 Q2073.49 377.547 2067.68 377.547 L2061.8 377.547 L2061.8 391.436 L2057.13 391.436 L2057.13 356.876 Z" fill="#000000" fill-rule="nonzero" fill-opacity="1" /><path clip-path="url(#clip930)" d="M2109.28 386.505 L2109.28 377.223 L2101.64 377.223 L2101.64 373.38 L2113.91 373.38 L2113.91 388.218 Q2111.2 390.139 2107.94 391.135 Q2104.67 392.107 2100.97 392.107 Q2092.87 392.107 2088.28 387.385 Q2083.72 382.639 2083.72 374.19 Q2083.72 365.718 2088.28 360.996 Q2092.87 356.251 2100.97 356.251 Q2104.35 356.251 2107.38 357.084 Q2110.44 357.917 2113.01 359.538 L2113.01 364.515 Q2110.41 362.316 2107.5 361.204 Q2104.58 360.093 2101.36 360.093 Q2095.02 360.093 2091.83 363.635 Q2088.65 367.177 2088.65 374.19 Q2088.65 381.181 2091.83 384.723 Q2095.02 388.264 2101.36 388.264 Q2103.84 388.264 2105.78 387.848 Q2107.73 387.408 2109.28 386.505 Z" fill="#000000" fill-rule="nonzero" fill-opacity="1" /><path clip-path="url(#clip930)" d="M2141.96 399.306 L2141.96 402.616 L2117.33 402.616 L2117.33 399.306 L2141.96 399.306 Z" fill="#000000" fill-rule="nonzero" fill-opacity="1" /><path clip-path="url(#clip930)" d="M2157.75 378.403 Q2152.59 378.403 2150.6 379.584 Q2148.61 380.764 2148.61 383.612 Q2148.61 385.88 2150.09 387.223 Q2151.59 388.542 2154.16 388.542 Q2157.7 388.542 2159.83 386.042 Q2161.99 383.519 2161.99 379.352 L2161.99 378.403 L2157.75 378.403 M2166.25 376.644 L2166.25 391.436 L2161.99 391.436 L2161.99 387.501 Q2160.53 389.862 2158.35 390.996 Q2156.18 392.107 2153.03 392.107 Q2149.05 392.107 2146.69 389.885 Q2144.35 387.639 2144.35 383.889 Q2144.35 379.514 2147.26 377.292 Q2150.2 375.07 2156.01 375.07 L2161.99 375.07 L2161.99 374.653 Q2161.99 371.714 2160.04 370.116 Q2158.12 368.496 2154.63 368.496 Q2152.4 368.496 2150.3 369.028 Q2148.19 369.561 2146.25 370.626 L2146.25 366.69 Q2148.58 365.788 2150.78 365.348 Q2152.98 364.885 2155.07 364.885 Q2160.69 364.885 2163.47 367.802 Q2166.25 370.718 2166.25 376.644 Z" fill="#000000" fill-rule="nonzero" fill-opacity="1" /><path clip-path="url(#clip930)" d="M2175.02 355.417 L2179.28 355.417 L2179.28 391.436 L2175.02 391.436 L2175.02 355.417 Z" fill="#000000" fill-rule="nonzero" fill-opacity="1" /><path clip-path="url(#clip930)" d="M2192.4 358.149 L2192.4 365.51 L2201.18 365.51 L2201.18 368.82 L2192.4 368.82 L2192.4 382.894 Q2192.4 386.065 2193.26 386.968 Q2194.14 387.871 2196.8 387.871 L2201.18 387.871 L2201.18 391.436 L2196.8 391.436 Q2191.87 391.436 2190 389.607 Q2188.12 387.755 2188.12 382.894 L2188.12 368.82 L2185 368.82 L2185 365.51 L2188.12 365.51 L2188.12 358.149 L2192.4 358.149 Z" fill="#000000" fill-rule="nonzero" fill-opacity="1" /><polyline clip-path="url(#clip930)" style="stroke:#ac8d18; stroke-linecap:round; stroke-linejoin:round; stroke-width:4; stroke-opacity:1; fill:none" points="1772.15,425.996 1912.61,425.996 "/>
<path clip-path="url(#clip930)" d="M1936.02 408.716 L1940.69 408.716 L1940.69 439.341 L1957.52 439.341 L1957.52 443.276 L1936.02 443.276 L1936.02 408.716 Z" fill="#000000" fill-rule="nonzero" fill-opacity="1" /><path clip-path="url(#clip930)" d="M1962.43 408.716 L1969.4 408.716 L1978.21 432.234 L1987.08 408.716 L1994.05 408.716 L1994.05 443.276 L1989.49 443.276 L1989.49 412.929 L1980.58 436.632 L1975.88 436.632 L1966.96 412.929 L1966.96 443.276 L1962.43 443.276 L1962.43 408.716 Z" fill="#000000" fill-rule="nonzero" fill-opacity="1" /></svg>
