<?xml version="1.0" encoding="utf-8"?>
<svg xmlns="http://www.w3.org/2000/svg" xmlns:xlink="http://www.w3.org/1999/xlink" width="600" height="400" viewBox="0 0 2400 1600">
<defs>
  <clipPath id="clip450">
    <rect x="0" y="0" width="2400" height="1600"/>
  </clipPath>
</defs>
<path clip-path="url(#clip450)" d="M0 1600 L2400 1600 L2400 0 L0 0  Z" fill="#ffffff" fill-rule="evenodd" fill-opacity="1"/>
<defs>
  <clipPath id="clip451">
    <rect x="480" y="0" width="1681" height="1600"/>
  </clipPath>
</defs>
<path clip-path="url(#clip450)" d="M251.56 1423.18 L2352.76 1423.18 L2352.76 123.472 L251.56 123.472  Z" fill="#ffffff" fill-rule="evenodd" fill-opacity="1"/>
<defs>
  <clipPath id="clip452">
    <rect x="251" y="123" width="2102" height="1301"/>
  </clipPath>
</defs>
<polyline clip-path="url(#clip452)" style="stroke:#000000; stroke-linecap:round; stroke-linejoin:round; stroke-width:2; stroke-opacity:0.1; fill:none" points="309.046,1423.18 309.046,123.472 "/>
<polyline clip-path="url(#clip452)" style="stroke:#000000; stroke-linecap:round; stroke-linejoin:round; stroke-width:2; stroke-opacity:0.1; fill:none" points="804.611,1423.18 804.611,123.472 "/>
<polyline clip-path="url(#clip452)" style="stroke:#000000; stroke-linecap:round; stroke-linejoin:round; stroke-width:2; stroke-opacity:0.1; fill:none" points="1300.18,1423.18 1300.18,123.472 "/>
<polyline clip-path="url(#clip452)" style="stroke:#000000; stroke-linecap:round; stroke-linejoin:round; stroke-width:2; stroke-opacity:0.1; fill:none" points="1795.74,1423.18 1795.74,123.472 "/>
<polyline clip-path="url(#clip452)" style="stroke:#000000; stroke-linecap:round; stroke-linejoin:round; stroke-width:2; stroke-opacity:0.1; fill:none" points="2291.31,1423.18 2291.31,123.472 "/>
<polyline clip-path="url(#clip450)" style="stroke:#000000; stroke-linecap:round; stroke-linejoin:round; stroke-width:4; stroke-opacity:1; fill:none" points="251.56,1423.18 2352.76,1423.18 "/>
<polyline clip-path="url(#clip450)" style="stroke:#000000; stroke-linecap:round; stroke-linejoin:round; stroke-width:4; stroke-opacity:1; fill:none" points="309.046,1423.18 309.046,1404.28 "/>
<polyline clip-path="url(#clip450)" style="stroke:#000000; stroke-linecap:round; stroke-linejoin:round; stroke-width:4; stroke-opacity:1; fill:none" points="804.611,1423.18 804.611,1404.28 "/>
<polyline clip-path="url(#clip450)" style="stroke:#000000; stroke-linecap:round; stroke-linejoin:round; stroke-width:4; stroke-opacity:1; fill:none" points="1300.18,1423.18 1300.18,1404.28 "/>
<polyline clip-path="url(#clip450)" style="stroke:#000000; stroke-linecap:round; stroke-linejoin:round; stroke-width:4; stroke-opacity:1; fill:none" points="1795.74,1423.18 1795.74,1404.28 "/>
<polyline clip-path="url(#clip450)" style="stroke:#000000; stroke-linecap:round; stroke-linejoin:round; stroke-width:4; stroke-opacity:1; fill:none" points="2291.31,1423.18 2291.31,1404.28 "/>
<path clip-path="url(#clip450)" d="M309.046 1454.1 Q305.435 1454.1 303.606 1457.66 Q301.8 1461.2 301.8 1468.33 Q301.8 1475.44 303.606 1479.01 Q305.435 1482.55 309.046 1482.55 Q312.68 1482.55 314.486 1479.01 Q316.314 1475.44 316.314 1468.33 Q316.314 1461.2 314.486 1457.66 Q312.68 1454.1 309.046 1454.1 M309.046 1450.39 Q314.856 1450.39 317.911 1455 Q320.99 1459.58 320.99 1468.33 Q320.99 1477.06 317.911 1481.67 Q314.856 1486.25 309.046 1486.25 Q303.236 1486.25 300.157 1481.67 Q297.101 1477.06 297.101 1468.33 Q297.101 1459.58 300.157 1455 Q303.236 1450.39 309.046 1450.39 Z" fill="#000000" fill-rule="nonzero" fill-opacity="1" /><path clip-path="url(#clip450)" d="M768.303 1481.64 L784.622 1481.64 L784.622 1485.58 L762.678 1485.58 L762.678 1481.64 Q765.34 1478.89 769.923 1474.26 Q774.53 1469.61 775.71 1468.27 Q777.956 1465.74 778.835 1464.01 Q779.738 1462.25 779.738 1460.56 Q779.738 1457.8 777.794 1456.07 Q775.873 1454.33 772.771 1454.33 Q770.572 1454.33 768.118 1455.09 Q765.687 1455.86 762.91 1457.41 L762.91 1452.69 Q765.734 1451.55 768.187 1450.97 Q770.641 1450.39 772.678 1450.39 Q778.048 1450.39 781.243 1453.08 Q784.437 1455.77 784.437 1460.26 Q784.437 1462.39 783.627 1464.31 Q782.84 1466.2 780.734 1468.8 Q780.155 1469.47 777.053 1472.69 Q773.951 1475.88 768.303 1481.64 Z" fill="#000000" fill-rule="nonzero" fill-opacity="1" /><path clip-path="url(#clip450)" d="M794.484 1451.02 L812.84 1451.02 L812.84 1454.96 L798.766 1454.96 L798.766 1463.43 Q799.784 1463.08 800.803 1462.92 Q801.821 1462.73 802.84 1462.73 Q808.627 1462.73 812.007 1465.9 Q815.386 1469.08 815.386 1474.49 Q815.386 1480.07 811.914 1483.17 Q808.442 1486.25 802.122 1486.25 Q799.946 1486.25 797.678 1485.88 Q795.433 1485.51 793.025 1484.77 L793.025 1480.07 Q795.109 1481.2 797.331 1481.76 Q799.553 1482.32 802.03 1482.32 Q806.034 1482.32 808.372 1480.21 Q810.71 1478.1 810.71 1474.49 Q810.71 1470.88 808.372 1468.77 Q806.034 1466.67 802.03 1466.67 Q800.155 1466.67 798.28 1467.08 Q796.428 1467.5 794.484 1468.38 L794.484 1451.02 Z" fill="#000000" fill-rule="nonzero" fill-opacity="1" /><path clip-path="url(#clip450)" d="M834.599 1454.1 Q830.988 1454.1 829.159 1457.66 Q827.354 1461.2 827.354 1468.33 Q827.354 1475.44 829.159 1479.01 Q830.988 1482.55 834.599 1482.55 Q838.233 1482.55 840.039 1479.01 Q841.868 1475.44 841.868 1468.33 Q841.868 1461.2 840.039 1457.66 Q838.233 1454.1 834.599 1454.1 M834.599 1450.39 Q840.409 1450.39 843.465 1455 Q846.543 1459.58 846.543 1468.33 Q846.543 1477.06 843.465 1481.67 Q840.409 1486.25 834.599 1486.25 Q828.789 1486.25 825.71 1481.67 Q822.655 1477.06 822.655 1468.33 Q822.655 1459.58 825.71 1455 Q828.789 1450.39 834.599 1450.39 Z" fill="#000000" fill-rule="nonzero" fill-opacity="1" /><path clip-path="url(#clip450)" d="M1259.79 1451.02 L1278.15 1451.02 L1278.15 1454.96 L1264.08 1454.96 L1264.08 1463.43 Q1265.09 1463.08 1266.11 1462.92 Q1267.13 1462.73 1268.15 1462.73 Q1273.94 1462.73 1277.32 1465.9 Q1280.7 1469.08 1280.7 1474.49 Q1280.7 1480.07 1277.22 1483.17 Q1273.75 1486.25 1267.43 1486.25 Q1265.26 1486.25 1262.99 1485.88 Q1260.74 1485.51 1258.34 1484.77 L1258.34 1480.07 Q1260.42 1481.2 1262.64 1481.76 Q1264.86 1482.32 1267.34 1482.32 Q1271.34 1482.32 1273.68 1480.21 Q1276.02 1478.1 1276.02 1474.49 Q1276.02 1470.88 1273.68 1468.77 Q1271.34 1466.67 1267.34 1466.67 Q1265.47 1466.67 1263.59 1467.08 Q1261.74 1467.5 1259.79 1468.38 L1259.79 1451.02 Z" fill="#000000" fill-rule="nonzero" fill-opacity="1" /><path clip-path="url(#clip450)" d="M1299.91 1454.1 Q1296.3 1454.1 1294.47 1457.66 Q1292.66 1461.2 1292.66 1468.33 Q1292.66 1475.44 1294.47 1479.01 Q1296.3 1482.55 1299.91 1482.55 Q1303.54 1482.55 1305.35 1479.01 Q1307.18 1475.44 1307.18 1468.33 Q1307.18 1461.2 1305.35 1457.66 Q1303.54 1454.1 1299.91 1454.1 M1299.91 1450.39 Q1305.72 1450.39 1308.78 1455 Q1311.85 1459.58 1311.85 1468.33 Q1311.85 1477.06 1308.78 1481.67 Q1305.72 1486.25 1299.91 1486.25 Q1294.1 1486.25 1291.02 1481.67 Q1287.97 1477.06 1287.97 1468.33 Q1287.97 1459.58 1291.02 1455 Q1294.1 1450.39 1299.91 1450.39 Z" fill="#000000" fill-rule="nonzero" fill-opacity="1" /><path clip-path="url(#clip450)" d="M1330.07 1454.1 Q1326.46 1454.1 1324.63 1457.66 Q1322.83 1461.2 1322.83 1468.33 Q1322.83 1475.44 1324.63 1479.01 Q1326.46 1482.55 1330.07 1482.55 Q1333.71 1482.55 1335.51 1479.01 Q1337.34 1475.44 1337.34 1468.33 Q1337.34 1461.2 1335.51 1457.66 Q1333.71 1454.1 1330.07 1454.1 M1330.07 1450.39 Q1335.88 1450.39 1338.94 1455 Q1342.02 1459.58 1342.02 1468.33 Q1342.02 1477.06 1338.94 1481.67 Q1335.88 1486.25 1330.07 1486.25 Q1324.26 1486.25 1321.18 1481.67 Q1318.13 1477.06 1318.13 1468.33 Q1318.13 1459.58 1321.18 1455 Q1324.26 1450.39 1330.07 1450.39 Z" fill="#000000" fill-rule="nonzero" fill-opacity="1" /><path clip-path="url(#clip450)" d="M1754.02 1451.02 L1776.24 1451.02 L1776.24 1453.01 L1763.69 1485.58 L1758.81 1485.58 L1770.61 1454.96 L1754.02 1454.96 L1754.02 1451.02 Z" fill="#000000" fill-rule="nonzero" fill-opacity="1" /><path clip-path="url(#clip450)" d="M1785.41 1451.02 L1803.76 1451.02 L1803.76 1454.96 L1789.69 1454.96 L1789.69 1463.43 Q1790.71 1463.08 1791.72 1462.92 Q1792.74 1462.73 1793.76 1462.73 Q1799.55 1462.73 1802.93 1465.9 Q1806.31 1469.08 1806.31 1474.49 Q1806.31 1480.07 1802.84 1483.17 Q1799.36 1486.25 1793.04 1486.25 Q1790.87 1486.25 1788.6 1485.88 Q1786.35 1485.51 1783.95 1484.77 L1783.95 1480.07 Q1786.03 1481.2 1788.25 1481.76 Q1790.47 1482.32 1792.95 1482.32 Q1796.96 1482.32 1799.29 1480.21 Q1801.63 1478.1 1801.63 1474.49 Q1801.63 1470.88 1799.29 1468.77 Q1796.96 1466.67 1792.95 1466.67 Q1791.08 1466.67 1789.2 1467.08 Q1787.35 1467.5 1785.41 1468.38 L1785.41 1451.02 Z" fill="#000000" fill-rule="nonzero" fill-opacity="1" /><path clip-path="url(#clip450)" d="M1825.52 1454.1 Q1821.91 1454.1 1820.08 1457.66 Q1818.28 1461.2 1818.28 1468.33 Q1818.28 1475.44 1820.08 1479.01 Q1821.91 1482.55 1825.52 1482.55 Q1829.16 1482.55 1830.96 1479.01 Q1832.79 1475.44 1832.79 1468.33 Q1832.79 1461.2 1830.96 1457.66 Q1829.16 1454.1 1825.52 1454.1 M1825.52 1450.39 Q1831.33 1450.39 1834.39 1455 Q1837.47 1459.58 1837.47 1468.33 Q1837.47 1477.06 1834.39 1481.67 Q1831.33 1486.25 1825.52 1486.25 Q1819.71 1486.25 1816.63 1481.67 Q1813.58 1477.06 1813.58 1468.33 Q1813.58 1459.58 1816.63 1455 Q1819.71 1450.39 1825.52 1450.39 Z" fill="#000000" fill-rule="nonzero" fill-opacity="1" /><path clip-path="url(#clip450)" d="M2235.83 1481.64 L2243.47 1481.64 L2243.47 1455.28 L2235.16 1456.95 L2235.16 1452.69 L2243.42 1451.02 L2248.1 1451.02 L2248.1 1481.64 L2255.74 1481.64 L2255.74 1485.58 L2235.83 1485.58 L2235.83 1481.64 Z" fill="#000000" fill-rule="nonzero" fill-opacity="1" /><path clip-path="url(#clip450)" d="M2275.18 1454.1 Q2271.57 1454.1 2269.74 1457.66 Q2267.94 1461.2 2267.94 1468.33 Q2267.94 1475.44 2269.74 1479.01 Q2271.57 1482.55 2275.18 1482.55 Q2278.82 1482.55 2280.62 1479.01 Q2282.45 1475.44 2282.45 1468.33 Q2282.45 1461.2 2280.62 1457.66 Q2278.82 1454.1 2275.18 1454.1 M2275.18 1450.39 Q2280.99 1450.39 2284.05 1455 Q2287.13 1459.58 2287.13 1468.33 Q2287.13 1477.06 2284.05 1481.67 Q2280.99 1486.25 2275.18 1486.25 Q2269.37 1486.25 2266.29 1481.67 Q2263.24 1477.06 2263.24 1468.33 Q2263.24 1459.58 2266.29 1455 Q2269.37 1450.39 2275.18 1450.39 Z" fill="#000000" fill-rule="nonzero" fill-opacity="1" /><path clip-path="url(#clip450)" d="M2305.35 1454.1 Q2301.73 1454.1 2299.91 1457.66 Q2298.1 1461.2 2298.1 1468.33 Q2298.1 1475.44 2299.91 1479.01 Q2301.73 1482.55 2305.35 1482.55 Q2308.98 1482.55 2310.78 1479.01 Q2312.61 1475.44 2312.61 1468.33 Q2312.61 1461.2 2310.78 1457.66 Q2308.98 1454.1 2305.35 1454.1 M2305.35 1450.39 Q2311.16 1450.39 2314.21 1455 Q2317.29 1459.58 2317.29 1468.33 Q2317.29 1477.06 2314.21 1481.67 Q2311.16 1486.25 2305.35 1486.25 Q2299.53 1486.25 2296.46 1481.67 Q2293.4 1477.06 2293.4 1468.33 Q2293.4 1459.58 2296.46 1455 Q2299.53 1450.39 2305.35 1450.39 Z" fill="#000000" fill-rule="nonzero" fill-opacity="1" /><path clip-path="url(#clip450)" d="M2335.51 1454.1 Q2331.9 1454.1 2330.07 1457.66 Q2328.26 1461.2 2328.26 1468.33 Q2328.26 1475.44 2330.07 1479.01 Q2331.9 1482.55 2335.51 1482.55 Q2339.14 1482.55 2340.95 1479.01 Q2342.78 1475.44 2342.78 1468.33 Q2342.78 1461.2 2340.95 1457.66 Q2339.14 1454.1 2335.51 1454.1 M2335.51 1450.39 Q2341.32 1450.39 2344.37 1455 Q2347.45 1459.58 2347.45 1468.33 Q2347.45 1477.06 2344.37 1481.67 Q2341.32 1486.25 2335.51 1486.25 Q2329.7 1486.25 2326.62 1481.67 Q2323.56 1477.06 2323.56 1468.33 Q2323.56 1459.58 2326.62 1455 Q2329.7 1450.39 2335.51 1450.39 Z" fill="#000000" fill-rule="nonzero" fill-opacity="1" /><path clip-path="url(#clip450)" d="M1286.34 1518.52 L1292.23 1518.52 L1292.23 1547.77 L1309.7 1532.4 L1317.18 1532.4 L1298.27 1549.07 L1317.98 1568.04 L1310.34 1568.04 L1292.23 1550.63 L1292.23 1568.04 L1286.34 1568.04 L1286.34 1518.52 Z" fill="#000000" fill-rule="nonzero" fill-opacity="1" /><polyline clip-path="url(#clip452)" style="stroke:#000000; stroke-linecap:round; stroke-linejoin:round; stroke-width:2; stroke-opacity:0.1; fill:none" points="251.56,957.422 2352.76,957.422 "/>
<polyline clip-path="url(#clip452)" style="stroke:#000000; stroke-linecap:round; stroke-linejoin:round; stroke-width:2; stroke-opacity:0.1; fill:none" points="251.56,164.624 2352.76,164.624 "/>
<polyline clip-path="url(#clip450)" style="stroke:#000000; stroke-linecap:round; stroke-linejoin:round; stroke-width:4; stroke-opacity:1; fill:none" points="251.56,1423.18 251.56,123.472 "/>
<polyline clip-path="url(#clip450)" style="stroke:#000000; stroke-linecap:round; stroke-linejoin:round; stroke-width:4; stroke-opacity:1; fill:none" points="251.56,957.422 270.458,957.422 "/>
<polyline clip-path="url(#clip450)" style="stroke:#000000; stroke-linecap:round; stroke-linejoin:round; stroke-width:4; stroke-opacity:1; fill:none" points="251.56,164.624 270.458,164.624 "/>
<path clip-path="url(#clip450)" d="M114.931 977.214 L122.57 977.214 L122.57 950.849 L114.26 952.515 L114.26 948.256 L122.524 946.589 L127.2 946.589 L127.2 977.214 L134.839 977.214 L134.839 981.149 L114.931 981.149 L114.931 977.214 Z" fill="#000000" fill-rule="nonzero" fill-opacity="1" /><path clip-path="url(#clip450)" d="M154.283 949.668 Q150.672 949.668 148.843 953.233 Q147.038 956.774 147.038 963.904 Q147.038 971.01 148.843 974.575 Q150.672 978.117 154.283 978.117 Q157.917 978.117 159.723 974.575 Q161.552 971.01 161.552 963.904 Q161.552 956.774 159.723 953.233 Q157.917 949.668 154.283 949.668 M154.283 945.964 Q160.093 945.964 163.149 950.571 Q166.227 955.154 166.227 963.904 Q166.227 972.631 163.149 977.237 Q160.093 981.821 154.283 981.821 Q148.473 981.821 145.394 977.237 Q142.339 972.631 142.339 963.904 Q142.339 955.154 145.394 950.571 Q148.473 945.964 154.283 945.964 Z" fill="#000000" fill-rule="nonzero" fill-opacity="1" /><path clip-path="url(#clip450)" d="M166.227 940.066 L190.339 940.066 L190.339 943.263 L166.227 943.263 L166.227 940.066 Z" fill="#000000" fill-rule="nonzero" fill-opacity="1" /><path clip-path="url(#clip450)" d="M198.577 925.659 L213.491 925.659 L213.491 928.856 L202.056 928.856 L202.056 935.74 Q202.884 935.458 203.711 935.326 Q204.539 935.176 205.366 935.176 Q210.068 935.176 212.814 937.752 Q215.56 940.329 215.56 944.73 Q215.56 949.263 212.739 951.783 Q209.918 954.284 204.783 954.284 Q203.015 954.284 201.172 953.983 Q199.348 953.682 197.392 953.081 L197.392 949.263 Q199.085 950.184 200.89 950.636 Q202.696 951.087 204.708 951.087 Q207.962 951.087 209.861 949.376 Q211.761 947.664 211.761 944.73 Q211.761 941.796 209.861 940.084 Q207.962 938.373 204.708 938.373 Q203.185 938.373 201.661 938.712 Q200.157 939.05 198.577 939.765 L198.577 925.659 Z" fill="#000000" fill-rule="nonzero" fill-opacity="1" /><path clip-path="url(#clip450)" d="M144.855 184.417 L152.493 184.417 L152.493 158.051 L144.183 159.718 L144.183 155.459 L152.447 153.792 L157.123 153.792 L157.123 184.417 L164.762 184.417 L164.762 188.352 L144.855 188.352 L144.855 184.417 Z" fill="#000000" fill-rule="nonzero" fill-opacity="1" /><path clip-path="url(#clip450)" d="M184.206 156.871 Q180.595 156.871 178.766 160.435 Q176.961 163.977 176.961 171.107 Q176.961 178.213 178.766 181.778 Q180.595 185.32 184.206 185.32 Q187.84 185.32 189.646 181.778 Q191.475 178.213 191.475 171.107 Q191.475 163.977 189.646 160.435 Q187.84 156.871 184.206 156.871 M184.206 153.167 Q190.016 153.167 193.072 157.773 Q196.151 162.357 196.151 171.107 Q196.151 179.833 193.072 184.44 Q190.016 189.023 184.206 189.023 Q178.396 189.023 175.317 184.44 Q172.262 179.833 172.262 171.107 Q172.262 162.357 175.317 157.773 Q178.396 153.167 184.206 153.167 Z" fill="#000000" fill-rule="nonzero" fill-opacity="1" /><path clip-path="url(#clip450)" d="M205.855 135.363 Q202.921 135.363 201.436 138.259 Q199.969 141.137 199.969 146.93 Q199.969 152.704 201.436 155.6 Q202.921 158.478 205.855 158.478 Q208.808 158.478 210.275 155.6 Q211.761 152.704 211.761 146.93 Q211.761 141.137 210.275 138.259 Q208.808 135.363 205.855 135.363 M205.855 132.354 Q210.576 132.354 213.059 136.096 Q215.56 139.82 215.56 146.93 Q215.56 154.02 213.059 157.763 Q210.576 161.487 205.855 161.487 Q201.135 161.487 198.633 157.763 Q196.151 154.02 196.151 146.93 Q196.151 139.82 198.633 136.096 Q201.135 132.354 205.855 132.354 Z" fill="#000000" fill-rule="nonzero" fill-opacity="1" /><path clip-path="url(#clip450)" d="M32.4621 801.797 Q32.4621 806.507 36.1542 809.244 Q39.8145 811.982 46.212 811.982 Q52.6095 811.982 56.3017 809.276 Q59.9619 806.539 59.9619 801.797 Q59.9619 797.118 56.2698 794.381 Q52.5777 791.643 46.212 791.643 Q39.8781 791.643 36.186 794.381 Q32.4621 797.118 32.4621 801.797 M27.4968 801.797 Q27.4968 794.158 32.4621 789.797 Q37.4273 785.437 46.212 785.437 Q54.9649 785.437 59.9619 789.797 Q64.9272 794.158 64.9272 801.797 Q64.9272 809.467 59.9619 813.828 Q54.9649 818.156 46.212 818.156 Q37.4273 818.156 32.4621 813.828 Q27.4968 809.467 27.4968 801.797 Z" fill="#000000" fill-rule="nonzero" fill-opacity="1" /><path clip-path="url(#clip450)" d="M46.212 750.139 Q39.7508 750.139 36.0905 752.812 Q32.3984 755.454 32.3984 760.101 Q32.3984 764.748 36.0905 767.422 Q39.7508 770.064 46.212 770.064 Q52.6732 770.064 56.3653 767.422 Q60.0256 764.748 60.0256 760.101 Q60.0256 755.454 56.3653 752.812 Q52.6732 750.139 46.212 750.139 M33.7671 770.064 Q30.5842 768.218 29.0564 765.417 Q27.4968 762.584 27.4968 758.669 Q27.4968 752.176 32.6531 748.134 Q37.8093 744.06 46.212 744.06 Q54.6147 744.06 59.771 748.134 Q64.9272 752.176 64.9272 758.669 Q64.9272 762.584 63.3994 765.417 Q61.8398 768.218 58.657 770.064 L64.0042 770.064 L64.0042 775.952 L14.479 775.952 L14.479 770.064 L33.7671 770.064 Z" fill="#000000" fill-rule="nonzero" fill-opacity="1" /><path clip-path="url(#clip450)" d="M28.3562 734.352 L28.3562 728.495 L64.6407 728.495 Q71.452 728.495 74.5076 731.105 Q77.5631 733.684 77.5631 739.445 L77.5631 741.673 L72.5979 741.673 L72.5979 740.113 Q72.5979 736.771 71.0383 735.561 Q69.5105 734.352 64.6407 734.352 L28.3562 734.352 M14.479 734.352 L14.479 728.495 L21.895 728.495 L21.895 734.352 L14.479 734.352 Z" fill="#000000" fill-rule="nonzero" fill-opacity="1" /><path clip-path="url(#clip450)" d="M933.425 65.7705 L933.425 89.8329 L925.93 89.8329 L925.93 27.2059 L933.425 27.2059 L933.425 34.0924 Q935.774 30.0415 939.339 28.0971 Q942.944 26.1121 947.927 26.1121 Q956.191 26.1121 961.335 32.6746 Q966.52 39.2371 966.52 49.9314 Q966.52 60.6258 961.335 67.1883 Q956.191 73.7508 947.927 73.7508 Q942.944 73.7508 939.339 71.8063 Q935.774 69.8214 933.425 65.7705 M958.783 49.9314 Q958.783 41.7081 955.38 37.0496 Q952.018 32.3505 946.104 32.3505 Q940.19 32.3505 936.787 37.0496 Q933.425 41.7081 933.425 49.9314 Q933.425 58.1548 936.787 62.8538 Q940.19 67.5124 946.104 67.5124 Q952.018 67.5124 955.38 62.8538 Q958.783 58.1548 958.783 49.9314 Z" fill="#000000" fill-rule="nonzero" fill-opacity="1" /><path clip-path="url(#clip450)" d="M1005.17 34.1734 Q1003.91 33.4443 1002.41 33.1202 Q1000.95 32.7556 999.171 32.7556 Q992.851 32.7556 989.449 36.8875 Q986.086 40.9789 986.086 48.6757 L986.086 72.576 L978.592 72.576 L978.592 27.2059 L986.086 27.2059 L986.086 34.2544 Q988.436 30.1225 992.203 28.1376 Q995.97 26.1121 1001.36 26.1121 Q1002.13 26.1121 1003.06 26.2337 Q1003.99 26.3147 1005.13 26.5172 L1005.17 34.1734 Z" fill="#000000" fill-rule="nonzero" fill-opacity="1" /><path clip-path="url(#clip450)" d="M1028.74 32.4315 Q1022.75 32.4315 1019.26 37.1306 Q1015.78 41.7891 1015.78 49.9314 Q1015.78 58.0738 1019.22 62.7728 Q1022.71 67.4314 1028.74 67.4314 Q1034.7 67.4314 1038.18 62.7323 Q1041.66 58.0333 1041.66 49.9314 Q1041.66 41.8701 1038.18 37.1711 Q1034.7 32.4315 1028.74 32.4315 M1028.74 26.1121 Q1038.46 26.1121 1044.01 32.4315 Q1049.56 38.7509 1049.56 49.9314 Q1049.56 61.0714 1044.01 67.4314 Q1038.46 73.7508 1028.74 73.7508 Q1018.98 73.7508 1013.43 67.4314 Q1007.92 61.0714 1007.92 49.9314 Q1007.92 38.7509 1013.43 32.4315 Q1018.98 26.1121 1028.74 26.1121 Z" fill="#000000" fill-rule="nonzero" fill-opacity="1" /><path clip-path="url(#clip450)" d="M1094.49 49.9314 Q1094.49 41.7081 1091.09 37.0496 Q1087.72 32.3505 1081.81 32.3505 Q1075.89 32.3505 1072.49 37.0496 Q1069.13 41.7081 1069.13 49.9314 Q1069.13 58.1548 1072.49 62.8538 Q1075.89 67.5124 1081.81 67.5124 Q1087.72 67.5124 1091.09 62.8538 Q1094.49 58.1548 1094.49 49.9314 M1069.13 34.0924 Q1071.48 30.0415 1075.04 28.0971 Q1078.65 26.1121 1083.63 26.1121 Q1091.9 26.1121 1097.04 32.6746 Q1102.23 39.2371 1102.23 49.9314 Q1102.23 60.6258 1097.04 67.1883 Q1091.9 73.7508 1083.63 73.7508 Q1078.65 73.7508 1075.04 71.8063 Q1071.48 69.8214 1069.13 65.7705 L1069.13 72.576 L1061.64 72.576 L1061.64 9.54393 L1069.13 9.54393 L1069.13 34.0924 Z" fill="#000000" fill-rule="nonzero" fill-opacity="1" /><path clip-path="url(#clip450)" d="M1114.58 9.54393 L1122.03 9.54393 L1122.03 72.576 L1114.58 72.576 L1114.58 9.54393 Z" fill="#000000" fill-rule="nonzero" fill-opacity="1" /><path clip-path="url(#clip450)" d="M1176.44 48.0275 L1176.44 51.6733 L1142.17 51.6733 Q1142.65 59.3701 1146.79 63.421 Q1150.96 67.4314 1158.37 67.4314 Q1162.67 67.4314 1166.68 66.3781 Q1170.73 65.3249 1174.7 63.2184 L1174.7 70.267 Q1170.69 71.9684 1166.47 72.8596 Q1162.26 73.7508 1157.93 73.7508 Q1147.07 73.7508 1140.71 67.4314 Q1134.39 61.1119 1134.39 50.3365 Q1134.39 39.1965 1140.39 32.6746 Q1146.42 26.1121 1156.63 26.1121 Q1165.78 26.1121 1171.09 32.0264 Q1176.44 37.9003 1176.44 48.0275 M1168.98 45.84 Q1168.9 39.7232 1165.54 36.0774 Q1162.22 32.4315 1156.71 32.4315 Q1150.47 32.4315 1146.7 35.9558 Q1142.98 39.4801 1142.41 45.8805 L1168.98 45.84 M1150.31 6.22219 L1161.73 21.3726 L1155.54 21.3726 L1142.33 6.22219 L1150.31 6.22219 Z" fill="#000000" fill-rule="nonzero" fill-opacity="1" /><path clip-path="url(#clip450)" d="M1224 35.9153 Q1226.79 30.8922 1230.68 28.5022 Q1234.57 26.1121 1239.83 26.1121 Q1246.92 26.1121 1250.77 31.0947 Q1254.62 36.0368 1254.62 45.1919 L1254.62 72.576 L1247.13 72.576 L1247.13 45.4349 Q1247.13 38.913 1244.82 35.7533 Q1242.51 32.5936 1237.77 32.5936 Q1231.98 32.5936 1228.61 36.4419 Q1225.25 40.2903 1225.25 46.9338 L1225.25 72.576 L1217.76 72.576 L1217.76 45.4349 Q1217.76 38.8725 1215.45 35.7533 Q1213.14 32.5936 1208.32 32.5936 Q1202.61 32.5936 1199.24 36.4824 Q1195.88 40.3308 1195.88 46.9338 L1195.88 72.576 L1188.39 72.576 L1188.39 27.2059 L1195.88 27.2059 L1195.88 34.2544 Q1198.43 30.082 1202 28.0971 Q1205.56 26.1121 1210.47 26.1121 Q1215.41 26.1121 1218.85 28.6237 Q1222.34 31.1352 1224 35.9153 Z" fill="#000000" fill-rule="nonzero" fill-opacity="1" /><path clip-path="url(#clip450)" d="M1308.3 48.0275 L1308.3 51.6733 L1274.02 51.6733 Q1274.51 59.3701 1278.64 63.421 Q1282.82 67.4314 1290.23 67.4314 Q1294.52 67.4314 1298.53 66.3781 Q1302.58 65.3249 1306.55 63.2184 L1306.55 70.267 Q1302.54 71.9684 1298.33 72.8596 Q1294.12 73.7508 1289.78 73.7508 Q1278.93 73.7508 1272.57 67.4314 Q1266.25 61.1119 1266.25 50.3365 Q1266.25 39.1965 1272.24 32.6746 Q1278.28 26.1121 1288.49 26.1121 Q1297.64 26.1121 1302.95 32.0264 Q1308.3 37.9003 1308.3 48.0275 M1300.84 45.84 Q1300.76 39.7232 1297.4 36.0774 Q1294.08 32.4315 1288.57 32.4315 Q1282.33 32.4315 1278.56 35.9558 Q1274.83 39.4801 1274.27 45.8805 L1300.84 45.84 Z" fill="#000000" fill-rule="nonzero" fill-opacity="1" /><path clip-path="url(#clip450)" d="M1348.8 62.2867 L1357.35 62.2867 L1357.35 72.576 L1348.8 72.576 L1348.8 62.2867 M1348.8 29.6769 L1357.35 29.6769 L1357.35 39.9662 L1348.8 39.9662 L1348.8 29.6769 Z" fill="#000000" fill-rule="nonzero" fill-opacity="1" /><path clip-path="url(#clip450)" d="M1436.55 35.9153 Q1439.34 30.8922 1443.23 28.5022 Q1447.12 26.1121 1452.39 26.1121 Q1459.47 26.1121 1463.32 31.0947 Q1467.17 36.0368 1467.17 45.1919 L1467.17 72.576 L1459.68 72.576 L1459.68 45.4349 Q1459.68 38.913 1457.37 35.7533 Q1455.06 32.5936 1450.32 32.5936 Q1444.53 32.5936 1441.16 36.4419 Q1437.8 40.2903 1437.8 46.9338 L1437.8 72.576 L1430.31 72.576 L1430.31 45.4349 Q1430.31 38.8725 1428 35.7533 Q1425.69 32.5936 1420.87 32.5936 Q1415.16 32.5936 1411.8 36.4824 Q1408.43 40.3308 1408.43 46.9338 L1408.43 72.576 L1400.94 72.576 L1400.94 27.2059 L1408.43 27.2059 L1408.43 34.2544 Q1410.99 30.082 1414.55 28.0971 Q1418.12 26.1121 1423.02 26.1121 Q1427.96 26.1121 1431.4 28.6237 Q1434.89 31.1352 1436.55 35.9153 Z" fill="#000000" fill-rule="nonzero" fill-opacity="1" /><path clip-path="url(#clip450)" d="M1511.89 49.3643 Q1511.89 41.2625 1508.53 36.8065 Q1505.21 32.3505 1499.17 32.3505 Q1493.18 32.3505 1489.82 36.8065 Q1486.49 41.2625 1486.49 49.3643 Q1486.49 57.4256 1489.82 61.8816 Q1493.18 66.3376 1499.17 66.3376 Q1505.21 66.3376 1508.53 61.8816 Q1511.89 57.4256 1511.89 49.3643 M1519.35 66.9452 Q1519.35 78.5308 1514.2 84.1616 Q1509.06 89.8329 1498.44 89.8329 Q1494.52 89.8329 1491.03 89.2252 Q1487.55 88.6581 1484.27 87.4428 L1484.27 80.1917 Q1487.55 81.9741 1490.75 82.8248 Q1493.95 83.6755 1497.27 83.6755 Q1504.6 83.6755 1508.25 79.8271 Q1511.89 76.0193 1511.89 68.282 L1511.89 64.5957 Q1509.58 68.6061 1505.98 70.5911 Q1502.37 72.576 1497.35 72.576 Q1489.01 72.576 1483.9 66.2161 Q1478.8 59.8562 1478.8 49.3643 Q1478.8 38.832 1483.9 32.472 Q1489.01 26.1121 1497.35 26.1121 Q1502.37 26.1121 1505.98 28.0971 Q1509.58 30.082 1511.89 34.0924 L1511.89 27.2059 L1519.35 27.2059 L1519.35 66.9452 Z" fill="#000000" fill-rule="nonzero" fill-opacity="1" /><path clip-path="url(#clip450)" d="M1572.41 45.1919 L1572.41 72.576 L1564.96 72.576 L1564.96 45.4349 Q1564.96 38.994 1562.45 35.7938 Q1559.94 32.5936 1554.91 32.5936 Q1548.88 32.5936 1545.39 36.4419 Q1541.91 40.2903 1541.91 46.9338 L1541.91 72.576 L1534.42 72.576 L1534.42 9.54393 L1541.91 9.54393 L1541.91 34.2544 Q1544.58 30.163 1548.19 28.1376 Q1551.84 26.1121 1556.58 26.1121 Q1564.39 26.1121 1568.4 30.9732 Q1572.41 35.7938 1572.41 45.1919 Z" fill="#000000" fill-rule="nonzero" fill-opacity="1" /><path clip-path="url(#clip450)" d="M1605.83 17.4837 Q1599.51 17.4837 1596.31 23.7221 Q1593.15 29.92 1593.15 42.3968 Q1593.15 54.833 1596.31 61.0714 Q1599.51 67.2693 1605.83 67.2693 Q1612.19 67.2693 1615.35 61.0714 Q1618.55 54.833 1618.55 42.3968 Q1618.55 29.92 1615.35 23.7221 Q1612.19 17.4837 1605.83 17.4837 M1605.83 11.0023 Q1616 11.0023 1621.35 19.0636 Q1626.74 27.0843 1626.74 42.3968 Q1626.74 57.6687 1621.35 65.73 Q1616 73.7508 1605.83 73.7508 Q1595.67 73.7508 1590.28 65.73 Q1584.93 57.6687 1584.93 42.3968 Q1584.93 27.0843 1590.28 19.0636 Q1595.67 11.0023 1605.83 11.0023 Z" fill="#000000" fill-rule="nonzero" fill-opacity="1" /><path clip-path="url(#clip450)" d="M1665.91 39.9662 Q1671.78 41.222 1675.06 45.1919 Q1678.39 49.1618 1678.39 54.9951 Q1678.39 63.9476 1672.23 68.8492 Q1666.07 73.7508 1654.73 73.7508 Q1650.92 73.7508 1646.87 72.9811 Q1642.86 72.2519 1638.57 70.7531 L1638.57 62.8538 Q1641.97 64.8388 1646.02 65.8515 Q1650.07 66.8642 1654.49 66.8642 Q1662.18 66.8642 1666.19 63.826 Q1670.24 60.7879 1670.24 54.9951 Q1670.24 49.6479 1666.48 46.6502 Q1662.75 43.612 1656.07 43.612 L1649.02 43.612 L1649.02 36.8875 L1656.39 36.8875 Q1662.43 36.8875 1665.63 34.4975 Q1668.83 32.067 1668.83 27.5299 Q1668.83 22.8714 1665.5 20.4004 Q1662.22 17.8888 1656.07 17.8888 Q1652.7 17.8888 1648.85 18.618 Q1645.01 19.3471 1640.39 20.8865 L1640.39 13.5948 Q1645.05 12.2985 1649.1 11.6504 Q1653.19 11.0023 1656.79 11.0023 Q1666.11 11.0023 1671.54 15.2557 Q1676.97 19.4686 1676.97 26.6793 Q1676.97 31.7024 1674.09 35.1862 Q1671.22 38.6294 1665.91 39.9662 Z" fill="#000000" fill-rule="nonzero" fill-opacity="1" /><polyline clip-path="url(#clip452)" style="stroke:#009af9; stroke-linecap:round; stroke-linejoin:round; stroke-width:4; stroke-opacity:1; fill:none" points="311.028,160.256 313.01,164.037 314.993,164.037 316.975,164.037 318.957,164.037 320.939,164.037 322.922,164.037 324.904,207.462 326.886,207.462 328.868,350.737 330.851,350.737 332.833,354.39 334.815,354.39 336.797,354.613 338.78,354.613 340.762,354.657 342.744,354.746 344.726,354.922 346.709,355.272 348.691,355.272 350.673,355.342 352.656,355.481 354.638,355.757 356.62,355.757 358.602,355.812 360.585,355.921 362.567,356.14 364.549,356.14 366.531,356.183 368.514,356.27 370.496,356.443 372.478,356.786 374.46,356.786 376.443,356.854 378.425,356.99 380.407,357.261 382.389,357.261 384.372,357.315 386.354,357.422 388.336,357.636 390.318,357.636 392.301,357.678 394.283,357.764 396.265,357.933 398.247,358.27 400.23,358.27 402.212,358.337 404.194,358.47 406.177,358.736 408.159,358.736 410.141,358.788 412.123,358.894 414.106,359.104 416.088,359.104 418.07,359.146 420.052,359.229 422.035,359.395 424.017,359.726 425.999,359.726 427.981,359.792 429.964,359.923 431.946,360.183 433.928,360.183 435.91,360.235 437.893,360.339 439.875,360.545 441.857,360.545 443.839,360.586 445.822,360.668 447.804,360.831 449.786,361.156 451.769,361.156 453.751,361.22 455.733,361.349 457.715,361.605 459.698,361.605 461.68,361.656 463.662,361.758 465.644,361.96 467.627,361.96 469.609,362.001 471.591,362.081 473.573,362.242 475.556,362.561 477.538,362.561 479.52,362.625 481.502,362.751 483.485,363.003 485.467,363.003 487.449,363.053 489.431,363.153 491.414,363.352 493.396,363.352 495.378,363.392 497.36,363.471 499.343,363.629 501.325,363.629 503.307,363.661 505.29,363.724 507.272,363.849 509.254,364.099 511.236,364.099 513.219,364.149 515.201,364.248 517.183,364.446 519.165,364.446 521.148,364.485 523.13,364.564 525.112,364.721 527.094,364.721 529.077,364.752 531.059,364.814 533.041,364.939 535.023,365.187 537.006,365.187 538.988,365.236 540.97,365.334 542.952,365.531 544.935,365.531 546.917,365.57 548.899,365.648 550.882,365.803 552.864,365.803 554.846,365.834 556.828,365.896 558.811,366.02 560.793,366.266 562.775,366.266 564.757,366.315 566.74,366.412 568.722,366.607 570.704,366.607 572.686,366.646 574.669,366.723 576.651,366.878 578.633,366.878 580.615,366.909 582.598,366.97 584.58,367.093 586.562,367.337 588.544,367.337 590.527,367.386 592.509,367.483 594.491,367.676 596.474,367.676 598.456,367.714 600.438,367.791 602.42,367.945 604.403,367.945 606.385,367.975 608.367,368.036 610.349,368.158 612.332,368.4 614.314,368.4 616.296,368.449 618.278,368.545 620.261,368.737 622.243,368.737 624.225,368.775 626.207,368.852 628.19,369.004 630.172,369.004 632.154,369.034 634.136,369.095 636.119,369.216 638.101,369.457 640.083,369.457 642.065,369.504 644.048,369.6 646.03,369.791 648.012,369.791 649.995,369.829 651.977,369.905 653.959,370.056 655.941,370.056 657.924,370.086 659.906,370.146 661.888,370.266 663.87,370.505 665.853,370.505 667.835,370.553 669.817,370.648 671.799,370.837 673.782,370.837 675.764,370.875 677.746,370.951 679.728,371.101 681.711,371.101 683.693,371.131 685.675,371.191 687.657,371.31 689.64,371.548 691.622,371.548 693.604,371.595 695.587,371.689 697.569,371.877 699.551,371.877 701.533,371.915 703.516,371.99 705.498,372.139 707.48,372.139 709.462,372.169 711.445,372.228 713.427,372.347 715.409,372.583 717.391,372.583 719.374,372.63 721.356,372.724 723.338,372.911 725.32,372.911 727.303,372.948 729.285,373.022 731.267,373.171 733.249,373.171 735.232,373.2 737.214,373.26 739.196,373.377 741.178,373.612 743.161,373.612 745.143,373.659 747.125,373.752 749.108,373.938 751.09,373.938 753.072,373.975 755.054,374.049 757.037,374.196 759.019,374.196 761.001,374.226 762.983,374.285 764.966,374.402 766.948,374.402 768.93,374.425 770.912,374.472 772.895,374.565 774.877,374.751 776.859,374.751 778.841,374.788 780.824,374.862 782.806,375.009 784.788,375.009 786.77,375.039 788.753,375.098 790.735,375.215 792.717,375.215 794.7,375.238 796.682,375.285 798.664,375.378 800.646,375.564 802.629,375.564 804.611,375.601 806.593,375.675 808.575,375.823 810.558,375.823 812.54,375.852 814.522,375.911 816.504,376.028 818.487,376.028 820.469,376.052 822.451,376.098 824.433,376.192 826.416,376.378 828.398,376.378 830.38,376.415 832.362,376.489 834.345,376.636 836.327,376.636 838.309,376.666 840.291,376.724 842.274,376.842 844.256,376.842 846.238,376.865 848.221,376.912 850.203,377.005 852.185,377.191 854.167,377.191 856.15,377.228 858.132,377.302 860.114,377.45 862.096,377.45 864.079,377.479 866.061,377.538 868.043,377.655 870.025,377.655 872.008,377.679 873.99,377.725 875.972,377.819 877.954,378.005 879.937,378.005 881.919,378.042 883.901,378.116 885.883,378.263 887.866,378.263 889.848,378.293 891.83,378.352 893.813,378.469 895.795,378.469 897.777,378.492 899.759,378.539 901.742,378.632 903.724,378.818 905.706,378.818 907.688,378.855 909.671,378.929 911.653,379.077 913.635,379.077 915.617,379.107 917.6,379.165 919.582,379.283 921.564,379.283 923.546,379.306 925.529,379.353 927.511,379.446 929.493,379.632 931.475,379.632 933.458,379.669 935.44,379.743 937.422,379.891 939.404,379.891 941.387,379.92 943.369,379.979 945.351,380.097 947.334,380.097 949.316,380.12 951.298,380.167 953.28,380.26 955.263,380.446 957.245,380.446 959.227,380.483 961.209,380.557 963.192,380.705 965.174,380.705 967.156,380.734 969.138,380.793 971.121,380.911 973.103,380.911 975.085,380.934 977.067,380.981 979.05,381.074 981.032,381.26 983.014,381.26 984.996,381.297 986.979,381.371 988.961,381.519 990.943,381.519 992.926,381.548 994.908,381.607 996.89,381.725 998.872,381.725 1000.85,381.748 1002.84,381.795 1004.82,381.888 1006.8,381.888 1008.78,381.907 1010.77,381.944 1012.75,382.019 1014.73,382.167 1016.71,382.167 1018.69,382.197 1020.68,382.256 1022.66,382.374 1024.64,382.374 1026.62,382.397 1028.61,382.444 1030.59,382.538 1032.57,382.538 1034.55,382.557 1036.54,382.594 1038.52,382.669 1040.5,382.818 1042.48,382.818 1044.46,382.848 1046.45,382.907 1048.43,383.026 1050.41,383.026 1052.39,383.05 1054.38,383.097 1056.36,383.191 1058.34,383.191 1060.32,383.21 1062.3,383.248 1064.29,383.323 1066.27,383.473 1068.25,383.473 1070.23,383.503 1072.22,383.562 1074.2,383.681 1076.18,383.681 1078.16,383.705 1080.14,383.753 1082.13,383.847 1084.11,383.847 1086.09,383.866 1088.07,383.904 1090.06,383.98 1092.04,384.13 1094.02,384.13 1096,384.16 1097.99,384.22 1099.97,384.34 1101.95,384.34 1103.93,384.364 1105.91,384.411 1107.9,384.507 1109.88,384.507 1111.86,384.526 1113.84,384.564 1115.83,384.639 1117.81,384.791 1119.79,384.791 1121.77,384.821 1123.75,384.881 1125.74,385.001 1127.72,385.001 1129.7,385.025 1131.68,385.073 1133.67,385.169 1135.65,385.169 1137.63,385.188 1139.61,385.226 1141.6,385.302 1143.58,385.454 1145.56,385.454 1147.54,385.484 1149.52,385.545 1151.51,385.666 1153.49,385.666 1155.47,385.69 1157.45,385.738 1159.44,385.834 1161.42,385.834 1163.4,385.853 1165.38,385.892 1167.36,385.968 1169.35,386.121 1171.33,386.121 1173.31,386.151 1175.29,386.212 1177.28,386.333 1179.26,386.333 1181.24,386.357 1183.22,386.406 1185.2,386.502 1187.19,386.502 1189.17,386.521 1191.15,386.56 1193.13,386.637 1195.12,386.79 1197.1,386.79 1199.08,386.821 1201.06,386.882 1203.05,387.003 1205.03,387.003 1207.01,387.028 1208.99,387.076 1210.97,387.173 1212.96,387.173 1214.94,387.193 1216.92,387.231 1218.9,387.308 1220.89,387.462 1222.87,387.462 1224.85,387.493 1226.83,387.554 1228.81,387.677 1230.8,387.677 1232.78,387.701 1234.76,387.75 1236.74,387.847 1238.73,387.847 1240.71,387.867 1242.69,387.905 1244.67,387.983 1246.65,388.137 1248.64,388.137 1250.62,388.168 1252.6,388.23 1254.58,388.353 1256.57,388.353 1258.55,388.377 1260.53,388.426 1262.51,388.524 1264.5,388.524 1266.48,388.543 1268.46,388.582 1270.44,388.66 1272.42,388.66 1274.41,388.676 1276.39,388.707 1278.37,388.769 1280.35,388.893 1282.34,388.893 1284.32,388.917 1286.3,388.967 1288.28,389.065 1290.26,389.065 1292.25,389.085 1294.23,389.124 1296.21,389.203 1298.19,389.203 1300.18,389.218 1302.16,389.25 1304.14,389.312 1306.12,389.437 1308.1,389.437 1310.09,389.462 1312.07,389.512 1314.05,389.611 1316.03,389.611 1318.02,389.631 1320,389.67 1321.98,389.75 1323.96,389.75 1325.95,389.765 1327.93,389.797 1329.91,389.86 1331.89,389.986 1333.87,389.986 1335.86,390.011 1337.84,390.061 1339.82,390.161 1341.8,390.161 1343.79,390.181 1345.77,390.221 1347.75,390.301 1349.73,390.301 1351.71,390.317 1353.7,390.348 1355.68,390.412 1357.66,390.539 1359.64,390.539 1361.63,390.564 1363.61,390.615 1365.59,390.715 1367.57,390.715 1369.55,390.736 1371.54,390.776 1373.52,390.856 1375.5,390.856 1377.48,390.872 1379.47,390.904 1381.45,390.968 1383.43,391.096 1385.41,391.096 1387.4,391.121 1389.38,391.172 1391.36,391.274 1393.34,391.274 1395.32,391.294 1397.31,391.335 1399.29,391.416 1401.27,391.416 1403.25,391.432 1405.24,391.464 1407.22,391.529 1409.2,391.657 1411.18,391.657 1413.16,391.683 1415.15,391.734 1417.13,391.837 1419.11,391.837 1421.09,391.857 1423.08,391.898 1425.06,391.98 1427.04,391.98 1429.02,391.996 1431,392.028 1432.99,392.093 1434.97,392.223 1436.95,392.223 1438.93,392.249 1440.92,392.301 1442.9,392.404 1444.88,392.404 1446.86,392.424 1448.85,392.465 1450.83,392.548 1452.81,392.548 1454.79,392.564 1456.77,392.597 1458.76,392.662 1460.74,392.793 1462.72,392.793 1464.7,392.819 1466.69,392.871 1468.67,392.975 1470.65,392.975 1472.63,392.995 1474.61,393.037 1476.6,393.12 1478.58,393.12 1480.56,393.136 1482.54,393.169 1484.53,393.235 1486.51,393.367 1488.49,393.367 1490.47,393.393 1492.46,393.445 1494.44,393.55 1496.42,393.55 1498.4,393.571 1500.38,393.612 1502.37,393.696 1504.35,393.696 1506.33,393.712 1508.31,393.746 1510.3,393.812 1512.28,393.812 1514.26,393.825 1516.24,393.852 1518.22,393.905 1520.21,394.01 1522.19,394.01 1524.17,394.032 1526.15,394.074 1528.14,394.158 1530.12,394.158 1532.1,394.175 1534.08,394.208 1536.06,394.275 1538.05,394.275 1540.03,394.289 1542.01,394.316 1543.99,394.369 1545.98,394.476 1547.96,394.476 1549.94,394.497 1551.92,394.54 1553.91,394.625 1555.89,394.625 1557.87,394.642 1559.85,394.676 1561.83,394.744 1563.82,394.744 1565.8,394.757 1567.78,394.784 1569.76,394.838 1571.75,394.946 1573.73,394.946 1575.71,394.968 1577.69,395.011 1579.67,395.097 1581.66,395.097 1583.64,395.114 1585.62,395.148 1587.6,395.216 1589.59,395.216 1591.57,395.23 1593.55,395.257 1595.53,395.312 1597.51,395.421 1599.5,395.421 1601.48,395.443 1603.46,395.486 1605.44,395.573 1607.43,395.573 1609.41,395.59 1611.39,395.625 1613.37,395.694 1615.36,395.694 1617.34,395.708 1619.32,395.735 1621.3,395.791 1623.28,395.901 1625.27,395.901 1627.25,395.923 1629.23,395.966 1631.21,396.054 1633.2,396.054 1635.18,396.072 1637.16,396.107 1639.14,396.176 1641.12,396.176 1643.11,396.19 1645.09,396.218 1647.07,396.274 1649.05,396.385 1651.04,396.385 1653.02,396.407 1655,396.451 1656.98,396.54 1658.96,396.54 1660.95,396.558 1662.93,396.593 1664.91,396.663 1666.89,396.663 1668.88,396.677 1670.86,396.706 1672.84,396.762 1674.82,396.874 1676.81,396.874 1678.79,396.896 1680.77,396.941 1682.75,397.03 1684.73,397.03 1686.72,397.048 1688.7,397.084 1690.68,397.155 1692.66,397.155 1694.65,397.169 1696.63,397.198 1698.61,397.255 1700.59,397.368 1702.57,397.368 1704.56,397.39 1706.54,397.436 1708.52,397.526 1710.5,397.526 1712.49,397.544 1714.47,397.58 1716.45,397.651 1718.43,397.651 1720.41,397.666 1722.4,397.695 1724.38,397.752 1726.36,397.866 1728.34,397.866 1730.33,397.889 1732.31,397.934 1734.29,398.025 1736.27,398.025 1738.26,398.044 1740.24,398.08 1742.22,398.152 1744.2,398.152 1746.18,398.167 1748.17,398.196 1750.15,398.254 1752.13,398.254 1754.11,398.265 1756.1,398.288 1758.08,398.334 1760.06,398.427 1762.04,398.427 1764.02,398.445 1766.01,398.482 1767.99,398.555 1769.97,398.555 1771.95,398.57 1773.94,398.599 1775.92,398.658 1777.9,398.658 1779.88,398.669 1781.87,398.693 1783.85,398.739 1785.83,398.833 1787.81,398.833 1789.79,398.851 1791.78,398.888 1793.76,398.963 1795.74,398.963 1797.72,398.977 1799.71,399.007 1801.69,399.066 1803.67,399.066 1805.65,399.078 1807.63,399.102 1809.62,399.149 1811.6,399.243 1813.58,399.243 1815.56,399.262 1817.55,399.3 1819.53,399.375 1821.51,399.375 1823.49,399.39 1825.47,399.42 1827.46,399.48 1829.44,399.48 1831.42,399.492 1833.4,399.516 1835.39,399.564 1837.37,399.659 1839.35,399.659 1841.33,399.678 1843.32,399.716 1845.3,399.792 1847.28,399.792 1849.26,399.807 1851.24,399.838 1853.23,399.898 1855.21,399.898 1857.19,399.911 1859.17,399.935 1861.16,399.983 1863.14,400.08 1865.12,400.08 1867.1,400.099 1869.08,400.137 1871.07,400.214 1873.05,400.214 1875.03,400.23 1877.01,400.26 1879,400.322 1880.98,400.322 1882.96,400.334 1884.94,400.358 1886.92,400.407 1888.91,400.505 1890.89,400.505 1892.87,400.525 1894.85,400.563 1896.84,400.641 1898.82,400.641 1900.8,400.657 1902.78,400.688 1904.77,400.75 1906.75,400.75 1908.73,400.762 1910.71,400.787 1912.69,400.837 1914.68,400.935 1916.66,400.935 1918.64,400.955 1920.62,400.994 1922.61,401.073 1924.59,401.073 1926.57,401.089 1928.55,401.12 1930.53,401.183 1932.52,401.183 1934.5,401.195 1936.48,401.22 1938.46,401.271 1940.45,401.37 1942.43,401.37 1944.41,401.39 1946.39,401.43 1948.37,401.51 1950.36,401.51 1952.34,401.526 1954.32,401.557 1956.3,401.621 1958.29,401.621 1960.27,401.633 1962.25,401.659 1964.23,401.709 1966.22,401.81 1968.2,401.81 1970.18,401.83 1972.16,401.871 1974.14,401.951 1976.13,401.951 1978.11,401.967 1980.09,401.999 1982.07,402.063 1984.06,402.063 1986.04,402.076 1988.02,402.102 1990,402.153 1991.98,402.255 1993.97,402.255 1995.95,402.275 1997.93,402.316 1999.91,402.397 2001.9,402.397 2003.88,402.414 2005.86,402.446 2007.84,402.511 2009.82,402.511 2011.81,402.524 2013.79,402.55 2015.77,402.601 2017.75,402.601 2019.74,402.612 2021.72,402.632 2023.7,402.674 2025.68,402.756 2027.67,402.756 2029.65,402.773 2031.63,402.805 2033.61,402.871 2035.59,402.871 2037.58,402.884 2039.56,402.91 2041.54,402.963 2043.52,402.963 2045.51,402.973 2047.49,402.994 2049.47,403.036 2051.45,403.12 2053.43,403.12 2055.42,403.136 2057.4,403.17 2059.38,403.236 2061.36,403.236 2063.35,403.249 2065.33,403.276 2067.31,403.329 2069.29,403.329 2071.27,403.34 2073.26,403.361 2075.24,403.403 2077.22,403.488 2079.2,403.488 2081.19,403.505 2083.17,403.538 2085.15,403.606 2087.13,403.606 2089.12,403.619 2091.1,403.646 2093.08,403.7 2095.06,403.7 2097.04,403.711 2099.03,403.732 2101.01,403.775 2102.99,403.861 2104.97,403.861 2106.96,403.878 2108.94,403.912 2110.92,403.98 2112.9,403.98 2114.88,403.994 2116.87,404.021 2118.85,404.076 2120.83,404.076 2122.81,404.087 2124.8,404.108 2126.78,404.152 2128.76,404.239 2130.74,404.239 2132.73,404.256 2134.71,404.291 2136.69,404.36 2138.67,404.36 2140.65,404.374 2142.64,404.401 2144.62,404.456 2146.6,404.456 2148.58,404.468 2150.57,404.49 2152.55,404.534 2154.53,404.621 2156.51,404.621 2158.49,404.639 2160.48,404.674 2162.46,404.744 2164.44,404.744 2166.42,404.758 2168.41,404.786 2170.39,404.842 2172.37,404.842 2174.35,404.853 2176.33,404.875 2178.32,404.92 2180.3,405.009 2182.28,405.009 2184.26,405.027 2186.25,405.062 2188.23,405.133 2190.21,405.133 2192.19,405.147 2194.18,405.176 2196.16,405.232 2198.14,405.232 2200.12,405.244 2202.1,405.266 2204.09,405.311 2206.07,405.401 2208.05,405.401 2210.03,405.419 2212.02,405.455 2214,405.527 2215.98,405.527 2217.96,405.542 2219.94,405.57 2221.93,405.627 2223.91,405.627 2225.89,405.639 2227.87,405.662 2229.86,405.708 2231.84,405.799 2233.82,405.799 2235.8,405.817 2237.78,405.853 2239.77,405.926 2241.75,405.926 2243.73,405.941 2245.71,405.97 2247.7,406.028 2249.68,406.028 2251.66,406.039 2253.64,406.062 2255.63,406.109 2257.61,406.109 2259.59,406.118 2261.57,406.136 2263.55,406.173 2265.54,406.247 2267.52,406.247 2269.5,406.262 2271.48,406.291 2273.47,406.35 2275.45,406.35 2277.43,406.362 2279.41,406.385 2281.39,406.432 2283.38,406.432 2285.36,406.441 2287.34,406.46 2289.32,406.498 2291.31,406.572 2293.29,406.572 "/>
<polyline clip-path="url(#clip452)" style="stroke:#e26f46; stroke-linecap:round; stroke-linejoin:round; stroke-width:4; stroke-opacity:1; fill:none" points="311.028,160.256 313.01,237.422 314.993,245.017 316.975,263.49 318.957,284.159 320.939,303.403 322.922,327.501 324.904,328.108 326.886,328.701 328.868,329.284 330.851,329.858 332.833,330.422 334.815,330.977 336.797,331.523 338.78,332.061 340.762,332.591 342.744,333.112 344.726,333.626 346.709,334.132 348.691,334.631 350.673,335.123 352.656,335.608 354.638,336.086 356.62,336.557 358.602,337.023 360.585,337.482 362.567,337.935 364.549,338.382 366.531,338.823 368.514,339.259 370.496,339.689 372.478,340.114 374.46,340.534 376.443,340.949 378.425,341.359 380.407,341.764 382.389,342.164 384.372,342.56 386.354,342.952 388.336,343.339 390.318,343.721 392.301,344.1 394.283,344.474 396.265,344.844 398.247,345.211 400.23,345.573 402.212,345.932 404.194,346.287 406.177,346.638 408.159,346.986 410.141,347.331 412.123,347.672 414.106,348.009 416.088,348.344 418.07,348.675 420.052,349.003 422.035,349.328 424.017,349.65 425.999,349.969 427.981,350.285 429.964,350.598 431.946,350.908 433.928,351.216 435.91,351.521 437.893,351.823 439.875,352.122 441.857,352.419 443.839,352.714 445.822,353.006 447.804,353.295 449.786,353.582 451.769,353.867 453.751,354.149 455.733,354.429 457.715,354.707 459.698,354.983 461.68,355.256 463.662,355.528 465.644,355.797 467.627,356.064 469.609,356.329 471.591,356.592 473.573,356.853 475.556,357.112 477.538,357.369 479.52,357.624 481.502,357.878 483.485,358.129 485.467,358.379 487.449,358.627 489.431,358.873 491.414,359.117 493.396,359.36 495.378,359.601 497.36,359.84 499.343,360.078 501.325,360.314 503.307,360.548 505.29,360.781 507.272,361.012 509.254,361.242 511.236,361.47 513.219,361.697 515.201,361.922 517.183,362.146 519.165,362.368 521.148,362.589 523.13,362.809 525.112,363.027 527.094,363.244 529.077,363.459 531.059,363.673 533.041,363.886 535.023,364.097 537.006,364.307 538.988,364.516 540.97,364.724 542.952,364.93 544.935,365.135 546.917,365.339 548.899,365.542 550.882,365.743 552.864,365.944 554.846,366.143 556.828,366.341 558.811,366.538 560.793,366.734 562.775,366.929 564.757,367.122 566.74,367.315 568.722,367.506 570.704,367.697 572.686,367.886 574.669,368.075 576.651,368.262 578.633,368.448 580.615,368.633 582.598,368.818 584.58,369.001 586.562,369.184 588.544,369.365 590.527,369.545 592.509,369.725 594.491,369.904 596.474,370.081 598.456,370.258 600.438,370.434 602.42,370.609 604.403,370.783 606.385,370.956 608.367,371.129 610.349,371.3 612.332,371.471 614.314,371.641 616.296,371.809 618.278,371.978 620.261,372.145 622.243,372.312 624.225,372.477 626.207,372.642 628.19,372.806 630.172,372.97 632.154,373.132 634.136,373.294 636.119,373.455 638.101,373.616 640.083,373.775 642.065,373.934 644.048,374.092 646.03,374.25 648.012,374.406 649.995,374.562 651.977,374.718 653.959,374.872 655.941,375.026 657.924,375.179 659.906,375.332 661.888,375.484 663.87,375.635 665.853,375.786 667.835,375.936 669.817,376.085 671.799,376.233 673.782,376.381 675.764,376.529 677.746,376.675 679.728,376.822 681.711,376.967 683.693,377.112 685.675,377.256 687.657,377.4 689.64,377.543 691.622,377.685 693.604,377.827 695.587,377.969 697.569,378.109 699.551,378.249 701.533,378.389 703.516,378.528 705.498,378.667 707.48,378.804 709.462,378.942 711.445,379.079 713.427,379.215 715.409,379.351 717.391,379.486 719.374,379.621 721.356,379.755 723.338,379.888 725.32,380.022 727.303,380.154 729.285,380.286 731.267,380.418 733.249,380.549 735.232,380.68 737.214,380.81 739.196,380.939 741.178,381.069 743.161,381.197 745.143,381.325 747.125,381.453 749.108,381.58 751.09,381.707 753.072,381.834 755.054,381.959 757.037,382.085 759.019,382.21 761.001,382.334 762.983,382.458 764.966,382.582 766.948,382.705 768.93,382.828 770.912,382.95 772.895,383.072 774.877,383.193 776.859,383.314 778.841,383.435 780.824,383.555 782.806,383.675 784.788,383.794 786.77,383.913 788.753,384.032 790.735,384.15 792.717,384.267 794.7,384.385 796.682,384.502 798.664,384.618 800.646,384.734 802.629,384.85 804.611,384.965 806.593,385.08 808.575,385.195 810.558,385.309 812.54,385.423 814.522,385.536 816.504,385.649 818.487,385.762 820.469,385.874 822.451,385.986 824.433,386.098 826.416,386.209 828.398,386.32 830.38,386.431 832.362,386.541 834.345,386.651 836.327,386.76 838.309,386.869 840.291,386.978 842.274,387.087 844.256,387.195 846.238,387.303 848.221,387.41 850.203,387.517 852.185,387.624 854.167,387.73 856.15,387.837 858.132,387.942 860.114,388.048 862.096,388.153 864.079,388.258 866.061,388.362 868.043,388.467 870.025,388.57 872.008,388.674 873.99,388.777 875.972,388.88 877.954,388.983 879.937,389.085 881.919,389.187 883.901,389.289 885.883,389.391 887.866,389.492 889.848,389.593 891.83,389.693 893.813,389.793 895.795,389.893 897.777,389.993 899.759,390.092 901.742,390.192 903.724,390.29 905.706,390.389 907.688,390.487 909.671,390.585 911.653,390.683 913.635,390.78 915.617,390.878 917.6,390.975 919.582,391.071 921.564,391.167 923.546,391.264 925.529,391.359 927.511,391.455 929.493,391.55 931.475,391.645 933.458,391.74 935.44,391.835 937.422,391.929 939.404,392.023 941.387,392.117 943.369,392.21 945.351,392.303 947.334,392.396 949.316,392.489 951.298,392.581 953.28,392.674 955.263,392.766 957.245,392.857 959.227,392.949 961.209,393.04 963.192,393.131 965.174,393.222 967.156,393.313 969.138,393.403 971.121,393.493 973.103,393.583 975.085,393.672 977.067,393.762 979.05,393.851 981.032,393.94 983.014,394.029 984.996,394.117 986.979,394.205 988.961,394.293 990.943,394.381 992.926,394.469 994.908,394.556 996.89,394.643 998.872,394.73 1000.85,394.817 1002.84,394.903 1004.82,394.989 1006.8,395.075 1008.78,395.161 1010.77,395.247 1012.75,395.332 1014.73,395.417 1016.71,395.502 1018.69,395.587 1020.68,395.672 1022.66,395.756 1024.64,395.84 1026.62,395.924 1028.61,396.008 1030.59,396.092 1032.57,396.175 1034.55,396.258 1036.54,396.341 1038.52,396.424 1040.5,396.506 1042.48,396.589 1044.46,396.671 1046.45,396.753 1048.43,396.834 1050.41,396.916 1052.39,396.997 1054.38,397.079 1056.36,397.16 1058.34,397.24 1060.32,397.321 1062.3,397.401 1064.29,397.482 1066.27,397.562 1068.25,397.642 1070.23,397.721 1072.22,397.801 1074.2,397.88 1076.18,397.959 1078.16,398.038 1080.14,398.117 1082.13,398.196 1084.11,398.274 1086.09,398.352 1088.07,398.43 1090.06,398.508 1092.04,398.586 1094.02,398.663 1096,398.741 1097.99,398.818 1099.97,398.895 1101.95,398.972 1103.93,399.049 1105.91,399.125 1107.9,399.201 1109.88,399.278 1111.86,399.354 1113.84,399.429 1115.83,399.505 1117.81,399.581 1119.79,399.656 1121.77,399.731 1123.75,399.806 1125.74,399.881 1127.72,399.956 1129.7,400.03 1131.68,400.105 1133.67,400.179 1135.65,400.253 1137.63,400.327 1139.61,400.4 1141.6,400.474 1143.58,400.547 1145.56,400.621 1147.54,400.694 1149.52,400.767 1151.51,400.84 1153.49,400.912 1155.47,400.985 1157.45,401.057 1159.44,401.129 1161.42,401.201 1163.4,401.273 1165.38,401.345 1167.36,401.417 1169.35,401.488 1171.33,401.559 1173.31,401.63 1175.29,401.701 1177.28,401.772 1179.26,401.843 1181.24,401.914 1183.22,401.984 1185.2,402.054 1187.19,402.124 1189.17,402.194 1191.15,402.264 1193.13,402.334 1195.12,402.404 1197.1,402.473 1199.08,402.542 1201.06,402.612 1203.05,402.681 1205.03,402.749 1207.01,402.818 1208.99,402.887 1210.97,402.955 1212.96,403.024 1214.94,403.092 1216.92,403.16 1218.9,403.228 1220.89,403.296 1222.87,403.363 1224.85,403.431 1226.83,403.498 1228.81,403.566 1230.8,403.633 1232.78,403.7 1234.76,403.767 1236.74,403.833 1238.73,403.9 1240.71,403.966 1242.69,404.033 1244.67,404.099 1246.65,404.165 1248.64,404.231 1250.62,404.297 1252.6,404.363 1254.58,404.428 1256.57,404.494 1258.55,404.559 1260.53,404.624 1262.51,404.69 1264.5,404.755 1266.48,404.819 1268.46,404.884 1270.44,404.949 1272.42,405.013 1274.41,405.078 1276.39,405.142 1278.37,405.206 1280.35,405.27 1282.34,405.334 1284.32,405.398 1286.3,405.462 1288.28,405.525 1290.26,405.589 1292.25,405.652 1294.23,405.715 1296.21,405.778 1298.19,405.841 1300.18,405.904 1302.16,405.967 1304.14,406.03 "/>
<polyline clip-path="url(#clip452)" style="stroke:#3da44d; stroke-linecap:round; stroke-linejoin:round; stroke-width:4; stroke-opacity:1; fill:none" points="311.028,160.256 313.01,164.037 314.993,164.037 316.975,164.037 318.957,164.037 320.939,164.037 322.922,164.037 324.904,207.462 326.886,207.462 328.868,350.737 330.851,350.737 332.833,354.39 334.815,354.39 336.797,354.613 338.78,355.054 340.762,355.054 342.744,355.142 344.726,355.316 346.709,355.662 348.691,355.662 350.673,355.731 352.656,355.868 354.638,356.141 356.62,356.141 358.602,356.196 360.585,356.304 362.567,356.52 364.549,356.947 366.531,356.947 368.514,357.032 370.496,357.201 372.478,357.537 374.46,357.537 376.443,357.604 378.425,357.737 380.407,358.002 382.389,358.002 384.372,358.054 386.354,358.16 388.336,358.369 390.318,358.784 392.301,358.784 394.283,358.866 396.265,359.031 398.247,359.357 400.23,359.357 402.212,359.421 404.194,359.551 406.177,359.808 408.159,359.808 410.141,359.859 412.123,359.961 414.106,360.165 416.088,360.568 418.07,360.568 420.052,360.649 422.035,360.808 424.017,361.126 425.999,361.126 427.981,361.189 429.964,361.314 431.946,361.565 433.928,361.565 435.91,361.615 437.893,361.714 439.875,361.912 441.857,362.305 443.839,362.305 445.822,362.383 447.804,362.539 449.786,362.848 451.769,362.848 453.751,362.909 455.733,363.032 457.715,363.275 459.698,363.275 461.68,363.324 463.662,363.421 465.644,363.614 467.627,363.997 469.609,363.997 471.591,364.073 473.573,364.225 475.556,364.526 477.538,364.526 479.52,364.586 481.502,364.706 483.485,364.944 485.467,364.944 487.449,364.991 489.431,365.086 491.414,365.274 493.396,365.648 495.378,365.648 497.36,365.722 499.343,365.87 501.325,366.164 503.307,366.164 505.29,366.223 507.272,366.34 509.254,366.572 511.236,366.572 513.219,366.618 515.201,366.711 517.183,366.895 519.165,367.26 521.148,367.26 523.13,367.333 525.112,367.477 527.094,367.765 529.077,367.765 531.059,367.822 533.041,367.936 535.023,368.164 537.006,368.164 538.988,368.209 540.97,368.299 542.952,368.479 544.935,368.836 546.917,368.836 548.899,368.907 550.882,369.049 552.864,369.33 554.846,369.33 556.828,369.386 558.811,369.498 560.793,369.721 562.775,369.721 564.757,369.765 566.74,369.853 568.722,370.03 570.704,370.379 572.686,370.379 574.669,370.449 576.651,370.588 578.633,370.863 580.615,370.863 582.598,370.918 584.58,371.028 586.562,371.245 588.544,371.245 590.527,371.289 592.509,371.375 594.491,371.548 596.474,371.548 598.456,371.583 600.438,371.651 602.42,371.788 604.403,372.061 606.385,372.061 608.367,372.115 610.349,372.224 612.332,372.439 614.314,372.439 616.296,372.482 618.278,372.568 620.261,372.739 622.243,372.739 624.225,372.773 626.207,372.841 628.19,372.976 630.172,373.246 632.154,373.246 634.136,373.3 636.119,373.407 638.101,373.62 640.083,373.62 642.065,373.663 644.048,373.748 646.03,373.917 648.012,373.917 649.995,373.95 651.977,374.018 653.959,374.152 655.941,374.419 657.924,374.419 659.906,374.472 661.888,374.578 663.87,374.789 665.853,374.789 667.835,374.831 669.817,374.915 671.799,375.083 673.782,375.083 675.764,375.116 677.746,375.183 679.728,375.315 681.711,375.58 683.693,375.58 685.675,375.632 687.657,375.737 689.64,375.946 691.622,375.946 693.604,375.988 695.587,376.071 697.569,376.237 699.551,376.237 701.533,376.27 703.516,376.336 705.498,376.468 707.48,376.729 709.462,376.729 711.445,376.782 713.427,376.886 715.409,377.093 717.391,377.093 719.374,377.134 721.356,377.216 723.338,377.38 725.32,377.38 727.303,377.413 729.285,377.479 731.267,377.609 733.249,377.868 735.232,377.868 737.214,377.92 739.196,378.023 741.178,378.228 743.161,378.228 745.143,378.269 747.125,378.351 749.108,378.513 751.09,378.513 753.072,378.546 755.054,378.611 757.037,378.74 759.019,378.997 761.001,378.997 762.983,379.048 764.966,379.15 766.948,379.354 768.93,379.354 770.912,379.394 772.895,379.475 774.877,379.636 776.859,379.636 778.841,379.668 780.824,379.733 782.806,379.861 784.788,380.116 786.77,380.116 788.753,380.166 790.735,380.268 792.717,380.469 794.7,380.469 796.682,380.509 798.664,380.59 800.646,380.749 802.629,380.749 804.611,380.781 806.593,380.845 808.575,380.972 810.558,381.225 812.54,381.225 814.522,381.275 816.504,381.375 818.487,381.575 820.469,381.575 822.451,381.615 824.433,381.695 826.416,381.853 828.398,381.853 830.38,381.885 832.362,381.948 834.345,382.074 836.327,382.074 838.309,382.099 840.291,382.149 842.274,382.25 844.256,382.449 846.238,382.449 848.221,382.489 850.203,382.568 852.185,382.727 854.167,382.727 856.15,382.758 858.132,382.821 860.114,382.947 862.096,382.947 864.079,382.972 866.061,383.022 868.043,383.123 870.025,383.322 872.008,383.322 873.99,383.362 875.972,383.441 877.954,383.599 879.937,383.599 881.919,383.63 883.901,383.693 885.883,383.819 887.866,383.819 889.848,383.844 891.83,383.894 893.813,383.994 895.795,384.193 897.777,384.193 899.759,384.233 901.742,384.312 903.724,384.47 905.706,384.47 907.688,384.501 909.671,384.564 911.653,384.689 913.635,384.689 915.617,384.715 917.6,384.765 919.582,384.864 921.564,385.063 923.546,385.063 925.529,385.103 927.511,385.182 929.493,385.339 931.475,385.339 933.458,385.371 935.44,385.433 937.422,385.559 939.404,385.559 941.387,385.584 943.369,385.634 945.351,385.733 947.334,385.932 949.316,385.932 951.298,385.971 953.28,386.05 955.263,386.208 957.245,386.208 959.227,386.239 961.209,386.302 963.192,386.427 965.174,386.427 967.156,386.452 969.138,386.501 971.121,386.601 973.103,386.799 975.085,386.799 977.067,386.839 979.05,386.917 981.032,387.075 983.014,387.075 984.996,387.106 986.979,387.169 988.961,387.293 990.943,387.293 992.926,387.318 994.908,387.368 996.89,387.467 998.872,387.665 1000.85,387.665 1002.84,387.705 1004.82,387.783 1006.8,387.94 1008.78,387.94 1010.77,387.972 1012.75,388.034 1014.73,388.159 1016.71,388.159 1018.69,388.184 1020.68,388.234 1022.66,388.333 1024.64,388.53 1026.62,388.53 1028.61,388.57 1030.59,388.648 1032.57,388.805 1034.55,388.805 1036.54,388.836 1038.52,388.899 1040.5,389.023 1042.48,389.023 1044.46,389.048 1046.45,389.098 1048.43,389.197 1050.41,389.394 1052.39,389.394 1054.38,389.434 1056.36,389.512 1058.34,389.669 1060.32,389.669 1062.3,389.7 1064.29,389.762 1066.27,389.887 1068.25,389.887 1070.23,389.911 1072.22,389.961 1074.2,390.06 1076.18,390.257 1078.16,390.257 1080.14,390.296 1082.13,390.375 1084.11,390.531 1086.09,390.531 1088.07,390.562 1090.06,390.625 1092.04,390.749 1094.02,390.749 1096,390.774 1097.99,390.823 1099.97,390.922 1101.95,390.922 1103.93,390.942 1105.91,390.981 1107.9,391.06 1109.88,391.217 1111.86,391.217 1113.84,391.248 1115.83,391.311 1117.81,391.435 1119.79,391.435 1121.77,391.46 1123.75,391.51 1125.74,391.609 1127.72,391.609 1129.7,391.629 1131.68,391.669 1133.67,391.748 1135.65,391.905 1137.63,391.905 1139.61,391.937 1141.6,391.999 1143.58,392.125 1145.56,392.125 1147.54,392.15 1149.52,392.199 1151.51,392.299 1153.49,392.299 1155.47,392.319 1157.45,392.359 1159.44,392.438 1161.42,392.596 1163.4,392.596 1165.38,392.628 1167.36,392.691 1169.35,392.816 1171.33,392.816 1173.31,392.841 1175.29,392.891 1177.28,392.991 1179.26,392.991 1181.24,393.011 1183.22,393.051 1185.2,393.131 1187.19,393.29 1189.17,393.29 1191.15,393.321 1193.13,393.384 1195.12,393.511 1197.1,393.511 1199.08,393.536 1201.06,393.586 1203.05,393.686 1205.03,393.686 1207.01,393.706 1208.99,393.746 1210.97,393.826 1212.96,393.986 1214.94,393.986 1216.92,394.017 1218.9,394.081 1220.89,394.207 1222.87,394.207 1224.85,394.233 1226.83,394.283 1228.81,394.384 1230.8,394.384 1232.78,394.404 1234.76,394.444 1236.74,394.524 1238.73,394.684 1240.71,394.684 1242.69,394.716 1244.67,394.78 1246.65,394.906 1248.64,394.906 1250.62,394.932 1252.6,394.982 1254.58,395.083 1256.57,395.083 1258.55,395.104 1260.53,395.144 1262.51,395.224 1264.5,395.385 1266.48,395.385 1268.46,395.417 1270.44,395.481 1272.42,395.608 1274.41,395.608 1276.39,395.634 1278.37,395.684 1280.35,395.786 1282.34,395.786 1284.32,395.806 1286.3,395.846 1288.28,395.927 1290.26,396.088 1292.25,396.088 1294.23,396.12 1296.21,396.184 1298.19,396.312 1300.18,396.312 1302.16,396.338 1304.14,396.389 1306.12,396.49 1308.1,396.49 1310.09,396.511 1312.07,396.551 1314.05,396.632 1316.03,396.794 1318.02,396.794 1320,396.826 1321.98,396.89 1323.96,397.018 1325.95,397.018 1327.93,397.044 1329.91,397.095 1331.89,397.197 1333.87,397.197 1335.86,397.218 1337.84,397.258 1339.82,397.34 1341.8,397.34 1343.79,397.356 1345.77,397.388 1347.75,397.453 1349.73,397.582 1351.71,397.582 1353.7,397.608 1355.68,397.66 1357.66,397.762 1359.64,397.762 1361.63,397.783 1363.61,397.824 1365.59,397.906 1367.57,397.906 1369.55,397.922 1371.54,397.955 1373.52,398.02 1375.5,398.15 1377.48,398.15 1379.47,398.176 1381.45,398.228 1383.43,398.332 1385.41,398.332 1387.4,398.352 1389.38,398.394 1391.36,398.476 1393.34,398.476 1395.32,398.492 1397.31,398.525 1399.29,398.591 1401.27,398.722 1403.25,398.722 1405.24,398.748 1407.22,398.801 1409.2,398.905 1411.18,398.905 1413.16,398.926 1415.15,398.967 1417.13,399.05 1419.11,399.05 1421.09,399.067 1423.08,399.1 1425.06,399.166 1427.04,399.298 1429.02,399.298 1431,399.325 1432.99,399.377 1434.97,399.482 1436.95,399.482 1438.93,399.503 1440.92,399.545 1442.9,399.629 1444.88,399.629 1446.86,399.646 1448.85,399.679 1450.83,399.746 1452.81,399.879 1454.79,399.879 1456.77,399.905 1458.76,399.958 1460.74,400.064 1462.72,400.064 1464.7,400.085 1466.69,400.127 1468.67,400.211 1470.65,400.211 1472.63,400.228 1474.61,400.262 1476.6,400.329 1478.58,400.463 1480.56,400.463 1482.54,400.489 1484.53,400.543 1486.51,400.649 1488.49,400.649 1490.47,400.671 1492.46,400.713 1494.44,400.798 1496.42,400.798 1498.4,400.815 1500.38,400.849 1502.37,400.916 1504.35,401.051 1506.33,401.051 1508.31,401.078 1510.3,401.132 1512.28,401.239 1514.26,401.239 1516.24,401.26 1518.22,401.303 1520.21,401.388 1522.19,401.388 1524.17,401.405 1526.15,401.439 1528.14,401.507 1530.12,401.643 1532.1,401.643 1534.08,401.67 1536.06,401.724 1538.05,401.832 1540.03,401.832 1542.01,401.854 1543.99,401.897 1545.98,401.982 1547.96,401.982 1549.94,402 1551.92,402.034 1553.91,402.102 1555.89,402.239 1557.87,402.239 1559.85,402.266 1561.83,402.321 1563.82,402.429 1565.8,402.429 1567.78,402.451 1569.76,402.494 1571.75,402.581 1573.73,402.581 1575.71,402.598 1577.69,402.632 1579.67,402.701 1581.66,402.839 1583.64,402.839 1585.62,402.866 1587.6,402.921 1589.59,403.03 1591.57,403.03 1593.55,403.052 1595.53,403.096 1597.51,403.183 1599.5,403.183 1601.48,403.2 1603.46,403.235 1605.44,403.304 1607.43,403.304 1609.41,403.318 1611.39,403.346 1613.37,403.401 1615.36,403.511 1617.34,403.511 1619.32,403.533 1621.3,403.577 1623.28,403.665 1625.27,403.665 1627.25,403.683 1629.23,403.718 1631.21,403.788 1633.2,403.788 1635.18,403.802 1637.16,403.83 1639.14,403.886 1641.12,403.997 1643.11,403.997 1645.09,404.019 1647.07,404.064 1649.05,404.152 1651.04,404.152 1653.02,404.17 1655,404.205 1656.98,404.276 1658.96,404.276 1660.95,404.29 1662.93,404.319 1664.91,404.375 1666.89,404.487 1668.88,404.487 1670.86,404.51 1672.84,404.555 1674.82,404.644 1676.81,404.644 1678.79,404.662 1680.77,404.698 1682.75,404.769 1684.73,404.769 1686.72,404.784 1688.7,404.812 1690.68,404.869 1692.66,404.982 1694.65,404.982 1696.63,405.005 1698.61,405.05 1700.59,405.141 1702.57,405.141 1704.56,405.159 1706.54,405.195 1708.52,405.267 1710.5,405.267 1712.49,405.281 1714.47,405.31 1716.45,405.368 1718.43,405.482 1720.41,405.482 1722.4,405.505 1724.38,405.551 1726.36,405.642 1728.34,405.642 1730.33,405.66 1732.31,405.697 1734.29,405.769 1736.27,405.769 1738.26,405.784 1740.24,405.813 1742.22,405.871 1744.2,405.987 1746.18,405.987 1748.17,406.01 1750.15,406.056 1752.13,406.148 1754.11,406.148 1756.1,406.166 1758.08,406.203 1760.06,406.276 1762.04,406.276 1764.02,406.291 1766.01,406.32 1767.99,406.379 1769.97,406.495 1771.95,406.495 1773.94,406.519 1775.92,406.565 1777.9,406.658 1779.88,406.658 1781.87,406.677 1783.85,406.714 1785.83,406.788 1787.81,406.788 1789.79,406.803 1791.78,406.832 1793.76,406.891 1795.74,407.009 1797.72,407.009 1799.71,407.032 1801.69,407.079 1803.67,407.173 1805.65,407.173 1807.63,407.192 1809.62,407.229 1811.6,407.304 1813.58,407.304 1815.56,407.319 1817.55,407.349 1819.53,407.408 1821.51,407.527 1823.49,407.527 1825.47,407.551 1827.46,407.598 1829.44,407.693 1831.42,407.693 1833.4,407.712 1835.39,407.749 1837.37,407.825 1839.35,407.825 1841.33,407.84 1843.32,407.87 1845.3,407.93 1847.28,407.93 1849.26,407.942 1851.24,407.966 1853.23,408.014 1855.21,408.109 1857.19,408.109 1859.17,408.128 1861.16,408.167 1863.14,408.243 1865.12,408.243 1867.1,408.258 1869.08,408.288 1871.07,408.349 1873.05,408.349 1875.03,408.361 1877.01,408.386 1879,408.434 1880.98,408.531 1882.96,408.531 1884.94,408.55 1886.92,408.589 1888.91,408.666 1890.89,408.666 1892.87,408.681 1894.85,408.712 1896.84,408.773 1898.82,408.773 1900.8,408.786 1902.78,408.81 1904.77,408.859 1906.75,408.957 1908.73,408.957 1910.71,408.977 1912.69,409.016 1914.68,409.094 1916.66,409.094 1918.64,409.109 1920.62,409.14 1922.61,409.203 1924.59,409.203 1926.57,409.215 1928.55,409.24 1930.53,409.289 1932.52,409.388 1934.5,409.388 1936.48,409.408 1938.46,409.448 1940.45,409.527 1942.43,409.527 1944.41,409.542 1946.39,409.574 1948.37,409.637 1950.36,409.637 1952.34,409.649 1954.32,409.674 1956.3,409.724 1958.29,409.825 1960.27,409.825 1962.25,409.845 1964.23,409.884 1966.22,409.964 1968.2,409.964 1970.18,409.98 1972.16,410.012 1974.14,410.075 1976.13,410.075 1978.11,410.088 1980.09,410.114 1982.07,410.164 1984.06,410.265 1986.04,410.265 1988.02,410.286 1990,410.326 1991.98,410.407 1993.97,410.407 1995.95,410.423 1997.93,410.455 1999.91,410.519 2001.9,410.519 2003.88,410.532 2005.86,410.558 2007.84,410.609 2009.82,410.711 2011.81,410.711 2013.79,410.732 2015.77,410.772 2017.75,410.854 2019.74,410.854 2021.72,410.87 2023.7,410.903 2025.68,410.968 2027.67,410.968 2029.65,410.981 2031.63,411.007 2033.61,411.058 2035.59,411.162 2037.58,411.162 2039.56,411.182 2041.54,411.224 2043.52,411.306 2045.51,411.306 2047.49,411.322 2049.47,411.355 2051.45,411.421 2053.43,411.421 2055.42,411.434 2057.4,411.46 2059.38,411.513 2061.36,411.617 2063.35,411.617 2065.33,411.638 2067.31,411.68 2069.29,411.763 2071.27,411.763 2073.26,411.78 2075.24,411.813 2077.22,411.879 2079.2,411.879 2081.19,411.892 2083.17,411.919 2085.15,411.972 2087.13,411.972 2089.12,411.982 2091.1,412.003 2093.08,412.046 2095.06,412.13 2097.04,412.13 2099.03,412.147 2101.01,412.181 2102.99,412.248 2104.97,412.248 2106.96,412.261 2108.94,412.288 2110.92,412.342 2112.9,412.342 2114.88,412.352 2116.87,412.374 2118.85,412.417 2120.83,412.502 2122.81,412.502 2124.8,412.519 2126.78,412.553 2128.76,412.621 2130.74,412.621 2132.73,412.635 2134.71,412.662 2136.69,412.716 2138.67,412.716 2140.65,412.727 2142.64,412.749 2144.62,412.792 2146.6,412.879 2148.58,412.879 2150.57,412.896 2152.55,412.93 2154.53,412.999 2156.51,412.999 2158.49,413.013 2160.48,413.041 2162.46,413.096 2164.44,413.096 2166.42,413.107 2168.41,413.129 2170.39,413.173 2172.37,413.26 2174.35,413.26 2176.33,413.278 2178.32,413.313 2180.3,413.383 2182.28,413.383 2184.26,413.396 2186.25,413.424 2188.23,413.48 2190.21,413.48 2192.19,413.491 2194.18,413.513 2196.16,413.558 2198.14,413.647 2200.12,413.647 2202.1,413.664 2204.09,413.7 2206.07,413.77 2208.05,413.77 2210.03,413.785 2212.02,413.813 2214,413.869 2215.98,413.869 2217.96,413.88 2219.94,413.903 2221.93,413.948 2223.91,414.038 2225.89,414.038 2227.87,414.056 2229.86,414.092 2231.84,414.163 2233.82,414.163 2235.8,414.178 2237.78,414.206 2239.77,414.263 2241.75,414.263 2243.73,414.275 2245.71,414.297 2247.7,414.343 2249.68,414.434 2251.66,414.434 2253.64,414.452 2255.63,414.488 2257.61,414.561 2259.59,414.561 2261.57,414.575 2263.55,414.604 2265.54,414.662 2267.52,414.662 2269.5,414.674 2271.48,414.697 2273.47,414.743 2275.45,414.835 2277.43,414.835 2279.41,414.853 2281.39,414.89 2283.38,414.963 2285.36,414.963 2287.34,414.978 2289.32,415.007 2291.31,415.066 2293.29,415.066 "/>
<polyline clip-path="url(#clip452)" style="stroke:#c271d2; stroke-linecap:round; stroke-linejoin:round; stroke-width:4; stroke-opacity:1; fill:none" points="311.028,160.256 313.01,237.422 314.993,245.017 316.975,248.051 318.957,250.825 320.939,253.392 322.922,255.782 324.904,258.016 326.886,260.114 328.868,262.092 330.851,263.963 332.833,265.737 334.815,267.424 336.797,269.033 338.78,270.57 340.762,272.041 342.744,273.452 344.726,274.807 346.709,276.111 348.691,277.368 350.673,278.58 352.656,279.752 354.638,280.884 356.62,281.981 358.602,283.044 360.585,284.075 362.567,285.076 364.549,286.049 366.531,286.995 368.514,287.916 370.496,288.812 372.478,289.686 374.46,290.539 376.443,291.371 378.425,292.183 380.407,292.977 382.389,293.752 384.372,294.511 386.354,295.253 388.336,295.98 390.318,296.692 392.301,297.389 394.283,298.072 396.265,298.742 398.247,299.4 400.23,300.045 402.212,300.678 404.194,301.3 406.177,301.91 408.159,302.511 410.141,303.1 412.123,303.68 414.106,304.251 416.088,304.812 418.07,305.364 420.052,305.907 422.035,306.442 424.017,306.969 425.999,307.488 427.981,307.999 429.964,308.502 431.946,308.999 433.928,309.488 435.91,309.971 437.893,310.446 439.875,310.916 441.857,311.379 443.839,311.836 445.822,312.287 447.804,312.732 449.786,313.171 451.769,313.605 453.751,314.034 455.733,314.457 457.715,314.875 459.698,315.288 461.68,315.696 463.662,316.1 465.644,316.498 467.627,316.893 469.609,317.282 471.591,317.668 473.573,318.049 475.556,318.426 477.538,318.799 479.52,319.168 481.502,319.533 483.485,319.894 485.467,320.251 487.449,320.605 489.431,320.955 491.414,321.302 493.396,321.645 495.378,321.985 497.36,322.321 499.343,322.654 501.325,322.984 503.307,323.311 505.29,323.635 507.272,323.956 509.254,324.274 511.236,324.589 513.219,324.901 515.201,325.21 517.183,325.517 519.165,325.821 521.148,326.122 523.13,326.42 525.112,326.716 527.094,327.01 529.077,327.301 531.059,327.59 533.041,327.876 535.023,328.16 537.006,328.441 538.988,328.72 540.97,328.997 542.952,329.272 544.935,329.545 546.917,329.815 548.899,330.084 550.882,330.35 552.864,330.614 554.846,330.877 556.828,331.137 558.811,331.395 560.793,331.652 562.775,331.906 564.757,332.159 566.74,332.41 568.722,332.659 570.704,332.906 572.686,333.151 574.669,333.395 576.651,333.637 578.633,333.877 580.615,334.116 582.598,334.353 584.58,334.588 586.562,334.822 588.544,335.054 590.527,335.285 592.509,335.514 594.491,335.742 596.474,335.968 598.456,336.193 600.438,336.416 602.42,336.638 604.403,336.858 606.385,337.077 608.367,337.294 610.349,337.511 612.332,337.725 614.314,337.939 616.296,338.151 618.278,338.362 620.261,338.572 622.243,338.78 624.225,338.987 626.207,339.193 628.19,339.398 630.172,339.601 632.154,339.803 634.136,340.005 636.119,340.204 638.101,340.403 640.083,340.601 642.065,340.797 644.048,340.993 646.03,341.187 648.012,341.38 649.995,341.572 651.977,341.763 653.959,341.953 655.941,342.142 657.924,342.33 659.906,342.517 661.888,342.703 663.87,342.888 665.853,343.072 667.835,343.255 669.817,343.437 671.799,343.618 673.782,343.798 675.764,343.977 677.746,344.155 679.728,344.333 681.711,344.509 683.693,344.684 685.675,344.859 687.657,345.033 689.64,345.206 691.622,345.378 693.604,345.549 695.587,345.719 697.569,345.889 699.551,346.057 701.533,346.225 703.516,346.392 705.498,346.558 707.48,346.724 709.462,346.888 711.445,347.052 713.427,347.215 715.409,347.377 717.391,347.539 719.374,347.7 721.356,347.86 723.338,348.019 725.32,348.178 727.303,348.335 729.285,348.492 731.267,348.649 733.249,348.805 735.232,348.96 737.214,349.114 739.196,349.267 741.178,349.42 743.161,349.573 745.143,349.724 747.125,349.875 749.108,350.025 751.09,350.175 753.072,350.324 755.054,350.472 757.037,350.62 759.019,350.767 761.001,350.914 762.983,351.059 764.966,351.205 766.948,351.349 768.93,351.493 770.912,351.637 772.895,351.779 774.877,351.922 776.859,352.063 778.841,352.204 780.824,352.345 782.806,352.485 784.788,352.624 786.77,352.763 788.753,352.901 790.735,353.039 792.717,353.176 794.7,353.312 796.682,353.448 798.664,353.584 800.646,353.719 802.629,353.853 804.611,353.987 806.593,354.121 808.575,354.254 810.558,354.386 812.54,354.518 814.522,354.649 816.504,354.78 818.487,354.91 820.469,355.04 822.451,355.17 824.433,355.299 826.416,355.427 828.398,355.555 830.38,355.683 832.362,355.81 834.345,355.936 836.327,356.062 838.309,356.188 840.291,356.313 842.274,356.438 844.256,356.562 846.238,356.686 848.221,356.809 850.203,356.932 852.185,357.055 854.167,357.177 856.15,357.298 858.132,357.42 860.114,357.54 862.096,357.661 864.079,357.781 866.061,357.9 868.043,358.019 870.025,358.138 872.008,358.257 873.99,358.374 875.972,358.492 877.954,358.609 879.937,358.726 881.919,358.842 883.901,358.958 885.883,359.074 887.866,359.189 889.848,359.303 891.83,359.418 893.813,359.532 895.795,359.645 897.777,359.759 899.759,359.872 901.742,359.984 903.724,360.096 905.706,360.208 907.688,360.32 909.671,360.431 911.653,360.541 913.635,360.652 915.617,360.762 917.6,360.871 919.582,360.981 921.564,361.09 923.546,361.198 925.529,361.307 927.511,361.415 929.493,361.522 931.475,361.629 933.458,361.736 935.44,361.843 937.422,361.949 939.404,362.055 941.387,362.161 943.369,362.266 945.351,362.371 947.334,362.476 949.316,362.58 951.298,362.684 953.28,362.788 955.263,362.891 957.245,362.994 959.227,363.097 961.209,363.2 963.192,363.302 965.174,363.404 967.156,363.505 969.138,363.607 971.121,363.708 973.103,363.808 975.085,363.909 977.067,364.009 979.05,364.109 981.032,364.208 983.014,364.308 984.996,364.407 986.979,364.505 988.961,364.604 990.943,364.702 992.926,364.8 994.908,364.897 996.89,364.994 998.872,365.091 1000.85,365.188 1002.84,365.285 1004.82,365.381 1006.8,365.477 1008.78,365.573 1010.77,365.668 1012.75,365.763 1014.73,365.858 1016.71,365.953 1018.69,366.047 1020.68,366.141 1022.66,366.235 1024.64,366.328 1026.62,366.422 1028.61,366.515 1030.59,366.608 1032.57,366.7 1034.55,366.793 1036.54,366.885 1038.52,366.977 1040.5,367.068 1042.48,367.16 1044.46,367.251 1046.45,367.342 1048.43,367.432 1050.41,367.523 1052.39,367.613 1054.38,367.703 1056.36,367.793 1058.34,367.882 1060.32,367.971 1062.3,368.06 1064.29,368.149 1066.27,368.238 1068.25,368.326 1070.23,368.414 1072.22,368.502 1074.2,368.59 1076.18,368.677 1078.16,368.764 1080.14,368.851 1082.13,368.938 1084.11,369.025 1086.09,369.111 1088.07,369.197 1090.06,369.283 1092.04,369.369 1094.02,369.454 1096,369.539 1097.99,369.624 1099.97,369.709 1101.95,369.794 1103.93,369.878 1105.91,369.963 1107.9,370.047 1109.88,370.13 1111.86,370.214 1113.84,370.297 1115.83,370.381 1117.81,370.464 1119.79,370.547 1121.77,370.629 1123.75,370.712 1125.74,370.794 1127.72,370.876 1129.7,370.958 1131.68,371.039 1133.67,371.121 1135.65,371.202 1137.63,371.283 1139.61,371.364 1141.6,371.445 1143.58,371.525 1145.56,371.605 1147.54,371.686 1149.52,371.765 1151.51,371.845 1153.49,371.925 1155.47,372.004 1157.45,372.083 1159.44,372.162 1161.42,372.241 1163.4,372.32 1165.38,372.398 1167.36,372.477 1169.35,372.555 1171.33,372.633 1173.31,372.711 1175.29,372.788 1177.28,372.866 1179.26,372.943 1181.24,373.02 1183.22,373.097 1185.2,373.174 1187.19,373.25 1189.17,373.327 1191.15,373.403 1193.13,373.479 1195.12,373.555 1197.1,373.631 1199.08,373.706 1201.06,373.781 1203.05,373.857 1205.03,373.932 1207.01,374.007 1208.99,374.081 1210.97,374.156 1212.96,374.23 1214.94,374.305 1216.92,374.379 1218.9,374.453 1220.89,374.527 1222.87,374.6 1224.85,374.674 1226.83,374.747 1228.81,374.82 1230.8,374.893 1232.78,374.966 1234.76,375.039 1236.74,375.111 1238.73,375.184 1240.71,375.256 1242.69,375.328 1244.67,375.4 1246.65,375.472 1248.64,375.543 1250.62,375.615 1252.6,375.686 1254.58,375.757 1256.57,375.828 1258.55,375.899 1260.53,375.97 1262.51,376.041 1264.5,376.111 1266.48,376.182 1268.46,376.252 1270.44,376.322 1272.42,376.392 1274.41,376.461 1276.39,376.531 1278.37,376.601 1280.35,376.67 1282.34,376.739 1284.32,376.808 1286.3,376.877 1288.28,376.946 1290.26,377.014 1292.25,377.083 1294.23,377.151 1296.21,377.22 1298.19,377.288 1300.18,377.356 1302.16,377.424 "/>
<polyline clip-path="url(#clip452)" style="stroke:#ac8d18; stroke-linecap:round; stroke-linejoin:round; stroke-width:4; stroke-opacity:1; fill:none" points="311.028,160.256 313.01,164.037 314.993,164.615 316.975,240.429 318.957,288.667 320.939,579.086 322.922,579.086 324.904,579.086 326.886,579.086 328.868,583.267 330.851,589.9 332.833,597.686 334.815,601.445 336.797,622.509 338.78,622.509 340.762,629.347 342.744,632.754 344.726,638.241 346.709,643.72 348.691,654.267 350.673,655.029 352.656,672.081 354.638,672.081 356.62,679.464 358.602,682.495 360.585,687.225 362.567,690.02 364.549,701.269 366.531,701.269 368.514,706.415 370.496,709.021 372.478,713.238 374.46,715.972 376.443,725.859 378.425,725.859 380.407,730.69 382.389,733.162 384.372,737.166 386.354,739.344 388.336,749.143 390.318,749.143 392.301,754.377 394.283,756.86 396.265,760.815 398.247,762.155 400.23,772.545 402.212,772.545 404.194,778.685 406.177,781.286 408.159,785.308 410.141,785.589 412.123,797.119 414.106,797.119 416.088,804.636 418.07,807.463 420.052,811.68 422.035,811.68 424.017,814.141 425.999,816.214 427.981,819.882 429.964,823.603 431.946,831.696 433.928,831.696 435.91,835.816 437.893,838.388 439.875,842.722 441.857,845.484 443.839,856.303 445.822,856.303 447.804,862.587 449.786,865.527 451.769,870.474 453.751,873.761 455.733,886.321 457.715,886.321 459.698,892.946 461.68,895.404 463.662,899.966 465.644,906.51 467.627,906.528 469.609,929.07 471.591,929.07 473.573,941.75 475.556,943.779 477.538,947.717 479.52,954.9 481.502,964.941 483.485,970.49 485.467,1006.04 487.449,1021.78 489.431,1084.44 491.414,1135.4 493.396,1233.91 495.378,1386.4 "/>
<path clip-path="url(#clip450)" d="M1749.5 477.836 L2282.72 477.836 L2282.72 166.796 L1749.5 166.796  Z" fill="#ffffff" fill-rule="evenodd" fill-opacity="1"/>
<polyline clip-path="url(#clip450)" style="stroke:#000000; stroke-linecap:round; stroke-linejoin:round; stroke-width:4; stroke-opacity:1; fill:none" points="1749.5,477.836 2282.72,477.836 2282.72,166.796 1749.5,166.796 1749.5,477.836 "/>
<polyline clip-path="url(#clip450)" style="stroke:#009af9; stroke-linecap:round; stroke-linejoin:round; stroke-width:4; stroke-opacity:1; fill:none" points="1772.84,218.636 1912.92,218.636 "/>
<path clip-path="url(#clip450)" d="M1936.27 201.356 L1940.95 201.356 L1940.95 231.981 L1957.77 231.981 L1957.77 235.916 L1936.27 235.916 L1936.27 201.356 Z" fill="#000000" fill-rule="nonzero" fill-opacity="1" /><path clip-path="url(#clip450)" d="M1962.68 201.356 L1969.65 201.356 L1978.47 224.874 L1987.33 201.356 L1994.3 201.356 L1994.3 235.916 L1989.74 235.916 L1989.74 205.569 L1980.83 229.272 L1976.13 229.272 L1967.22 205.569 L1967.22 235.916 L1962.68 235.916 L1962.68 201.356 Z" fill="#000000" fill-rule="nonzero" fill-opacity="1" /><path clip-path="url(#clip450)" d="M2023.1 243.786 L2023.1 247.096 L1998.47 247.096 L1998.47 243.786 L2023.1 243.786 Z" fill="#000000" fill-rule="nonzero" fill-opacity="1" /><path clip-path="url(#clip450)" d="M2048 202.49 L2048 207.05 Q2045.34 205.777 2042.98 205.152 Q2040.62 204.527 2038.42 204.527 Q2034.6 204.527 2032.52 206.008 Q2030.46 207.49 2030.46 210.221 Q2030.46 212.513 2031.82 213.694 Q2033.21 214.851 2037.06 215.569 L2039.88 216.147 Q2045.11 217.143 2047.59 219.666 Q2050.09 222.166 2050.09 226.379 Q2050.09 231.402 2046.71 233.994 Q2043.35 236.587 2036.85 236.587 Q2034.39 236.587 2031.62 236.031 Q2028.86 235.476 2025.9 234.388 L2025.9 229.573 Q2028.75 231.17 2031.48 231.981 Q2034.21 232.791 2036.85 232.791 Q2040.85 232.791 2043.03 231.217 Q2045.2 229.643 2045.2 226.726 Q2045.2 224.18 2043.63 222.744 Q2042.08 221.309 2038.51 220.592 L2035.67 220.036 Q2030.44 218.995 2028.1 216.772 Q2025.76 214.55 2025.76 210.592 Q2025.76 206.008 2028.98 203.37 Q2032.22 200.731 2037.89 200.731 Q2040.32 200.731 2042.84 201.171 Q2045.37 201.61 2048 202.49 Z" fill="#000000" fill-rule="nonzero" fill-opacity="1" /><path clip-path="url(#clip450)" d="M2062.06 205.198 L2062.06 218.184 L2067.94 218.184 Q2071.2 218.184 2072.98 216.495 Q2074.76 214.805 2074.76 211.68 Q2074.76 208.578 2072.98 206.888 Q2071.2 205.198 2067.94 205.198 L2062.06 205.198 M2057.38 201.356 L2067.94 201.356 Q2073.75 201.356 2076.71 203.995 Q2079.69 206.61 2079.69 211.68 Q2079.69 216.795 2076.71 219.411 Q2073.75 222.027 2067.94 222.027 L2062.06 222.027 L2062.06 235.916 L2057.38 235.916 L2057.38 201.356 Z" fill="#000000" fill-rule="nonzero" fill-opacity="1" /><path clip-path="url(#clip450)" d="M2109.53 230.985 L2109.53 221.703 L2101.89 221.703 L2101.89 217.86 L2114.16 217.86 L2114.16 232.698 Q2111.45 234.619 2108.19 235.615 Q2104.93 236.587 2101.22 236.587 Q2093.12 236.587 2088.54 231.865 Q2083.98 227.119 2083.98 218.67 Q2083.98 210.198 2088.54 205.476 Q2093.12 200.731 2101.22 200.731 Q2104.6 200.731 2107.63 201.564 Q2110.69 202.397 2113.26 204.018 L2113.26 208.995 Q2110.67 206.796 2107.75 205.684 Q2104.83 204.573 2101.62 204.573 Q2095.27 204.573 2092.08 208.115 Q2088.91 211.657 2088.91 218.67 Q2088.91 225.661 2092.08 229.203 Q2095.27 232.744 2101.62 232.744 Q2104.09 232.744 2106.04 232.328 Q2107.98 231.888 2109.53 230.985 Z" fill="#000000" fill-rule="nonzero" fill-opacity="1" /><polyline clip-path="url(#clip450)" style="stroke:#e26f46; stroke-linecap:round; stroke-linejoin:round; stroke-width:4; stroke-opacity:1; fill:none" points="1772.84,270.476 1912.92,270.476 "/>
<path clip-path="url(#clip450)" d="M1936.27 253.196 L1940.95 253.196 L1940.95 283.821 L1957.77 283.821 L1957.77 287.756 L1936.27 287.756 L1936.27 253.196 Z" fill="#000000" fill-rule="nonzero" fill-opacity="1" /><path clip-path="url(#clip450)" d="M1962.68 253.196 L1969.65 253.196 L1978.47 276.714 L1987.33 253.196 L1994.3 253.196 L1994.3 287.756 L1989.74 287.756 L1989.74 257.409 L1980.83 281.112 L1976.13 281.112 L1967.22 257.409 L1967.22 287.756 L1962.68 287.756 L1962.68 253.196 Z" fill="#000000" fill-rule="nonzero" fill-opacity="1" /><path clip-path="url(#clip450)" d="M2023.1 295.626 L2023.1 298.936 L1998.47 298.936 L1998.47 295.626 L2023.1 295.626 Z" fill="#000000" fill-rule="nonzero" fill-opacity="1" /><path clip-path="url(#clip450)" d="M2038.84 257.802 L2032.5 275.001 L2045.2 275.001 L2038.84 257.802 M2036.2 253.196 L2041.5 253.196 L2054.67 287.756 L2049.81 287.756 L2046.66 278.89 L2031.08 278.89 L2027.94 287.756 L2023 287.756 L2036.2 253.196 Z" fill="#000000" fill-rule="nonzero" fill-opacity="1" /><path clip-path="url(#clip450)" d="M2081.08 272.108 L2081.08 287.756 L2076.82 287.756 L2076.82 272.247 Q2076.82 268.566 2075.39 266.737 Q2073.95 264.909 2071.08 264.909 Q2067.63 264.909 2065.64 267.108 Q2063.65 269.307 2063.65 273.103 L2063.65 287.756 L2059.37 287.756 L2059.37 261.83 L2063.65 261.83 L2063.65 265.858 Q2065.18 263.52 2067.24 262.362 Q2069.32 261.205 2072.03 261.205 Q2076.5 261.205 2078.79 263.983 Q2081.08 266.737 2081.08 272.108 Z" fill="#000000" fill-rule="nonzero" fill-opacity="1" /><path clip-path="url(#clip450)" d="M2106.64 265.765 L2106.64 251.737 L2110.9 251.737 L2110.9 287.756 L2106.64 287.756 L2106.64 283.867 Q2105.3 286.182 2103.24 287.316 Q2101.2 288.427 2098.33 288.427 Q2093.63 288.427 2090.67 284.677 Q2087.73 280.927 2087.73 274.816 Q2087.73 268.705 2090.67 264.955 Q2093.63 261.205 2098.33 261.205 Q2101.2 261.205 2103.24 262.339 Q2105.3 263.45 2106.64 265.765 M2092.12 274.816 Q2092.12 279.515 2094.05 282.2 Q2095.99 284.862 2099.37 284.862 Q2102.75 284.862 2104.69 282.2 Q2106.64 279.515 2106.64 274.816 Q2106.64 270.117 2104.69 267.455 Q2102.75 264.77 2099.37 264.77 Q2095.99 264.77 2094.05 267.455 Q2092.12 270.117 2092.12 274.816 Z" fill="#000000" fill-rule="nonzero" fill-opacity="1" /><path clip-path="url(#clip450)" d="M2134.69 265.811 Q2133.98 265.395 2133.12 265.21 Q2132.29 265.001 2131.27 265.001 Q2127.66 265.001 2125.71 267.362 Q2123.79 269.7 2123.79 274.098 L2123.79 287.756 L2119.51 287.756 L2119.51 261.83 L2123.79 261.83 L2123.79 265.858 Q2125.13 263.497 2127.29 262.362 Q2129.44 261.205 2132.52 261.205 Q2132.96 261.205 2133.49 261.274 Q2134.02 261.321 2134.67 261.436 L2134.69 265.811 Z" fill="#000000" fill-rule="nonzero" fill-opacity="1" /><path clip-path="url(#clip450)" d="M2160.3 273.728 L2160.3 275.811 L2140.71 275.811 Q2140.99 280.209 2143.35 282.524 Q2145.74 284.816 2149.97 284.816 Q2152.43 284.816 2154.72 284.214 Q2157.03 283.612 2159.3 282.409 L2159.3 286.436 Q2157.01 287.408 2154.6 287.918 Q2152.19 288.427 2149.72 288.427 Q2143.51 288.427 2139.88 284.816 Q2136.27 281.205 2136.27 275.047 Q2136.27 268.682 2139.69 264.955 Q2143.14 261.205 2148.98 261.205 Q2154.21 261.205 2157.24 264.585 Q2160.3 267.941 2160.3 273.728 M2156.04 272.478 Q2155.99 268.983 2154.07 266.899 Q2152.17 264.816 2149.02 264.816 Q2145.46 264.816 2143.31 266.83 Q2141.18 268.844 2140.85 272.501 L2156.04 272.478 Z" fill="#000000" fill-rule="nonzero" fill-opacity="1" /><path clip-path="url(#clip450)" d="M2167.29 261.83 L2171.55 261.83 L2171.55 287.756 L2167.29 287.756 L2167.29 261.83 M2167.29 251.737 L2171.55 251.737 L2171.55 257.131 L2167.29 257.131 L2167.29 251.737 Z" fill="#000000" fill-rule="nonzero" fill-opacity="1" /><path clip-path="url(#clip450)" d="M2200.16 295.626 L2200.16 298.936 L2175.53 298.936 L2175.53 295.626 L2200.16 295.626 Z" fill="#000000" fill-rule="nonzero" fill-opacity="1" /><path clip-path="url(#clip450)" d="M2215.94 274.723 Q2210.78 274.723 2208.79 275.904 Q2206.8 277.084 2206.8 279.932 Q2206.8 282.2 2208.28 283.543 Q2209.79 284.862 2212.36 284.862 Q2215.9 284.862 2218.03 282.362 Q2220.18 279.839 2220.18 275.672 L2220.18 274.723 L2215.94 274.723 M2224.44 272.964 L2224.44 287.756 L2220.18 287.756 L2220.18 283.821 Q2218.72 286.182 2216.55 287.316 Q2214.37 288.427 2211.22 288.427 Q2207.24 288.427 2204.88 286.205 Q2202.54 283.959 2202.54 280.209 Q2202.54 275.834 2205.46 273.612 Q2208.4 271.39 2214.21 271.39 L2220.18 271.39 L2220.18 270.973 Q2220.18 268.034 2218.24 266.436 Q2216.31 264.816 2212.82 264.816 Q2210.6 264.816 2208.49 265.348 Q2206.38 265.881 2204.44 266.946 L2204.44 263.01 Q2206.78 262.108 2208.98 261.668 Q2211.18 261.205 2213.26 261.205 Q2218.88 261.205 2221.66 264.122 Q2224.44 267.038 2224.44 272.964 Z" fill="#000000" fill-rule="nonzero" fill-opacity="1" /><path clip-path="url(#clip450)" d="M2233.21 251.737 L2237.47 251.737 L2237.47 287.756 L2233.21 287.756 L2233.21 251.737 Z" fill="#000000" fill-rule="nonzero" fill-opacity="1" /><path clip-path="url(#clip450)" d="M2250.6 254.469 L2250.6 261.83 L2259.37 261.83 L2259.37 265.14 L2250.6 265.14 L2250.6 279.214 Q2250.6 282.385 2251.45 283.288 Q2252.33 284.191 2254.99 284.191 L2259.37 284.191 L2259.37 287.756 L2254.99 287.756 Q2250.06 287.756 2248.19 285.927 Q2246.31 284.075 2246.31 279.214 L2246.31 265.14 L2243.19 265.14 L2243.19 261.83 L2246.31 261.83 L2246.31 254.469 L2250.6 254.469 Z" fill="#000000" fill-rule="nonzero" fill-opacity="1" /><polyline clip-path="url(#clip450)" style="stroke:#3da44d; stroke-linecap:round; stroke-linejoin:round; stroke-width:4; stroke-opacity:1; fill:none" points="1772.84,322.316 1912.92,322.316 "/>
<path clip-path="url(#clip450)" d="M1936.27 305.036 L1940.95 305.036 L1940.95 335.661 L1957.77 335.661 L1957.77 339.596 L1936.27 339.596 L1936.27 305.036 Z" fill="#000000" fill-rule="nonzero" fill-opacity="1" /><path clip-path="url(#clip450)" d="M1962.68 305.036 L1969.65 305.036 L1978.47 328.554 L1987.33 305.036 L1994.3 305.036 L1994.3 339.596 L1989.74 339.596 L1989.74 309.249 L1980.83 332.952 L1976.13 332.952 L1967.22 309.249 L1967.22 339.596 L1962.68 339.596 L1962.68 305.036 Z" fill="#000000" fill-rule="nonzero" fill-opacity="1" /><path clip-path="url(#clip450)" d="M2023.1 347.466 L2023.1 350.776 L1998.47 350.776 L1998.47 347.466 L2023.1 347.466 Z" fill="#000000" fill-rule="nonzero" fill-opacity="1" /><path clip-path="url(#clip450)" d="M2038.84 309.642 L2032.5 326.841 L2045.2 326.841 L2038.84 309.642 M2036.2 305.036 L2041.5 305.036 L2054.67 339.596 L2049.81 339.596 L2046.66 330.73 L2031.08 330.73 L2027.94 339.596 L2023 339.596 L2036.2 305.036 Z" fill="#000000" fill-rule="nonzero" fill-opacity="1" /><path clip-path="url(#clip450)" d="M2081.08 323.948 L2081.08 339.596 L2076.82 339.596 L2076.82 324.087 Q2076.82 320.406 2075.39 318.577 Q2073.95 316.749 2071.08 316.749 Q2067.63 316.749 2065.64 318.948 Q2063.65 321.147 2063.65 324.943 L2063.65 339.596 L2059.37 339.596 L2059.37 313.67 L2063.65 313.67 L2063.65 317.698 Q2065.18 315.36 2067.24 314.202 Q2069.32 313.045 2072.03 313.045 Q2076.5 313.045 2078.79 315.823 Q2081.08 318.577 2081.08 323.948 Z" fill="#000000" fill-rule="nonzero" fill-opacity="1" /><path clip-path="url(#clip450)" d="M2106.64 317.605 L2106.64 303.577 L2110.9 303.577 L2110.9 339.596 L2106.64 339.596 L2106.64 335.707 Q2105.3 338.022 2103.24 339.156 Q2101.2 340.267 2098.33 340.267 Q2093.63 340.267 2090.67 336.517 Q2087.73 332.767 2087.73 326.656 Q2087.73 320.545 2090.67 316.795 Q2093.63 313.045 2098.33 313.045 Q2101.2 313.045 2103.24 314.179 Q2105.3 315.29 2106.64 317.605 M2092.12 326.656 Q2092.12 331.355 2094.05 334.04 Q2095.99 336.702 2099.37 336.702 Q2102.75 336.702 2104.69 334.04 Q2106.64 331.355 2106.64 326.656 Q2106.64 321.957 2104.69 319.295 Q2102.75 316.61 2099.37 316.61 Q2095.99 316.61 2094.05 319.295 Q2092.12 321.957 2092.12 326.656 Z" fill="#000000" fill-rule="nonzero" fill-opacity="1" /><path clip-path="url(#clip450)" d="M2134.69 317.651 Q2133.98 317.235 2133.12 317.05 Q2132.29 316.841 2131.27 316.841 Q2127.66 316.841 2125.71 319.202 Q2123.79 321.54 2123.79 325.938 L2123.79 339.596 L2119.51 339.596 L2119.51 313.67 L2123.79 313.67 L2123.79 317.698 Q2125.13 315.337 2127.29 314.202 Q2129.44 313.045 2132.52 313.045 Q2132.96 313.045 2133.49 313.114 Q2134.02 313.161 2134.67 313.276 L2134.69 317.651 Z" fill="#000000" fill-rule="nonzero" fill-opacity="1" /><path clip-path="url(#clip450)" d="M2160.3 325.568 L2160.3 327.651 L2140.71 327.651 Q2140.99 332.049 2143.35 334.364 Q2145.74 336.656 2149.97 336.656 Q2152.43 336.656 2154.72 336.054 Q2157.03 335.452 2159.3 334.249 L2159.3 338.276 Q2157.01 339.248 2154.6 339.758 Q2152.19 340.267 2149.72 340.267 Q2143.51 340.267 2139.88 336.656 Q2136.27 333.045 2136.27 326.887 Q2136.27 320.522 2139.69 316.795 Q2143.14 313.045 2148.98 313.045 Q2154.21 313.045 2157.24 316.425 Q2160.3 319.781 2160.3 325.568 M2156.04 324.318 Q2155.99 320.823 2154.07 318.739 Q2152.17 316.656 2149.02 316.656 Q2145.46 316.656 2143.31 318.67 Q2141.18 320.684 2140.85 324.341 L2156.04 324.318 Z" fill="#000000" fill-rule="nonzero" fill-opacity="1" /><path clip-path="url(#clip450)" d="M2167.29 313.67 L2171.55 313.67 L2171.55 339.596 L2167.29 339.596 L2167.29 313.67 M2167.29 303.577 L2171.55 303.577 L2171.55 308.971 L2167.29 308.971 L2167.29 303.577 Z" fill="#000000" fill-rule="nonzero" fill-opacity="1" /><polyline clip-path="url(#clip450)" style="stroke:#c271d2; stroke-linecap:round; stroke-linejoin:round; stroke-width:4; stroke-opacity:1; fill:none" points="1772.84,374.156 1912.92,374.156 "/>
<path clip-path="url(#clip450)" d="M1936.27 356.876 L1940.95 356.876 L1940.95 387.501 L1957.77 387.501 L1957.77 391.436 L1936.27 391.436 L1936.27 356.876 Z" fill="#000000" fill-rule="nonzero" fill-opacity="1" /><path clip-path="url(#clip450)" d="M1962.68 356.876 L1969.65 356.876 L1978.47 380.394 L1987.33 356.876 L1994.3 356.876 L1994.3 391.436 L1989.74 391.436 L1989.74 361.089 L1980.83 384.792 L1976.13 384.792 L1967.22 361.089 L1967.22 391.436 L1962.68 391.436 L1962.68 356.876 Z" fill="#000000" fill-rule="nonzero" fill-opacity="1" /><path clip-path="url(#clip450)" d="M2023.1 399.306 L2023.1 402.616 L1998.47 402.616 L1998.47 399.306 L2023.1 399.306 Z" fill="#000000" fill-rule="nonzero" fill-opacity="1" /><path clip-path="url(#clip450)" d="M2048 358.01 L2048 362.57 Q2045.34 361.297 2042.98 360.672 Q2040.62 360.047 2038.42 360.047 Q2034.6 360.047 2032.52 361.528 Q2030.46 363.01 2030.46 365.741 Q2030.46 368.033 2031.82 369.214 Q2033.21 370.371 2037.06 371.089 L2039.88 371.667 Q2045.11 372.663 2047.59 375.186 Q2050.09 377.686 2050.09 381.899 Q2050.09 386.922 2046.71 389.514 Q2043.35 392.107 2036.85 392.107 Q2034.39 392.107 2031.62 391.551 Q2028.86 390.996 2025.9 389.908 L2025.9 385.093 Q2028.75 386.69 2031.48 387.501 Q2034.21 388.311 2036.85 388.311 Q2040.85 388.311 2043.03 386.737 Q2045.2 385.163 2045.2 382.246 Q2045.2 379.7 2043.63 378.264 Q2042.08 376.829 2038.51 376.112 L2035.67 375.556 Q2030.44 374.515 2028.1 372.292 Q2025.76 370.07 2025.76 366.112 Q2025.76 361.528 2028.98 358.89 Q2032.22 356.251 2037.89 356.251 Q2040.32 356.251 2042.84 356.691 Q2045.37 357.13 2048 358.01 Z" fill="#000000" fill-rule="nonzero" fill-opacity="1" /><path clip-path="url(#clip450)" d="M2062.06 360.718 L2062.06 373.704 L2067.94 373.704 Q2071.2 373.704 2072.98 372.015 Q2074.76 370.325 2074.76 367.2 Q2074.76 364.098 2072.98 362.408 Q2071.2 360.718 2067.94 360.718 L2062.06 360.718 M2057.38 356.876 L2067.94 356.876 Q2073.75 356.876 2076.71 359.515 Q2079.69 362.13 2079.69 367.2 Q2079.69 372.315 2076.71 374.931 Q2073.75 377.547 2067.94 377.547 L2062.06 377.547 L2062.06 391.436 L2057.38 391.436 L2057.38 356.876 Z" fill="#000000" fill-rule="nonzero" fill-opacity="1" /><path clip-path="url(#clip450)" d="M2109.53 386.505 L2109.53 377.223 L2101.89 377.223 L2101.89 373.38 L2114.16 373.38 L2114.16 388.218 Q2111.45 390.139 2108.19 391.135 Q2104.93 392.107 2101.22 392.107 Q2093.12 392.107 2088.54 387.385 Q2083.98 382.639 2083.98 374.19 Q2083.98 365.718 2088.54 360.996 Q2093.12 356.251 2101.22 356.251 Q2104.6 356.251 2107.63 357.084 Q2110.69 357.917 2113.26 359.538 L2113.26 364.515 Q2110.67 362.316 2107.75 361.204 Q2104.83 360.093 2101.62 360.093 Q2095.27 360.093 2092.08 363.635 Q2088.91 367.177 2088.91 374.19 Q2088.91 381.181 2092.08 384.723 Q2095.27 388.264 2101.62 388.264 Q2104.09 388.264 2106.04 387.848 Q2107.98 387.408 2109.53 386.505 Z" fill="#000000" fill-rule="nonzero" fill-opacity="1" /><path clip-path="url(#clip450)" d="M2142.22 399.306 L2142.22 402.616 L2117.59 402.616 L2117.59 399.306 L2142.22 399.306 Z" fill="#000000" fill-rule="nonzero" fill-opacity="1" /><path clip-path="url(#clip450)" d="M2158 378.403 Q2152.84 378.403 2150.85 379.584 Q2148.86 380.764 2148.86 383.612 Q2148.86 385.88 2150.34 387.223 Q2151.85 388.542 2154.42 388.542 Q2157.96 388.542 2160.09 386.042 Q2162.24 383.519 2162.24 379.352 L2162.24 378.403 L2158 378.403 M2166.5 376.644 L2166.5 391.436 L2162.24 391.436 L2162.24 387.501 Q2160.78 389.862 2158.61 390.996 Q2156.43 392.107 2153.28 392.107 Q2149.3 392.107 2146.94 389.885 Q2144.6 387.639 2144.6 383.889 Q2144.6 379.514 2147.52 377.292 Q2150.46 375.07 2156.27 375.07 L2162.24 375.07 L2162.24 374.653 Q2162.24 371.714 2160.3 370.116 Q2158.37 368.496 2154.88 368.496 Q2152.66 368.496 2150.55 369.028 Q2148.44 369.561 2146.5 370.626 L2146.5 366.69 Q2148.84 365.788 2151.04 365.348 Q2153.24 364.885 2155.32 364.885 Q2160.94 364.885 2163.72 367.802 Q2166.5 370.718 2166.5 376.644 Z" fill="#000000" fill-rule="nonzero" fill-opacity="1" /><path clip-path="url(#clip450)" d="M2175.27 355.417 L2179.53 355.417 L2179.53 391.436 L2175.27 391.436 L2175.27 355.417 Z" fill="#000000" fill-rule="nonzero" fill-opacity="1" /><path clip-path="url(#clip450)" d="M2192.66 358.149 L2192.66 365.51 L2201.43 365.51 L2201.43 368.82 L2192.66 368.82 L2192.66 382.894 Q2192.66 386.065 2193.51 386.968 Q2194.39 387.871 2197.05 387.871 L2201.43 387.871 L2201.43 391.436 L2197.05 391.436 Q2192.12 391.436 2190.25 389.607 Q2188.37 387.755 2188.37 382.894 L2188.37 368.82 L2185.25 368.82 L2185.25 365.51 L2188.37 365.51 L2188.37 358.149 L2192.66 358.149 Z" fill="#000000" fill-rule="nonzero" fill-opacity="1" /><polyline clip-path="url(#clip450)" style="stroke:#ac8d18; stroke-linecap:round; stroke-linejoin:round; stroke-width:4; stroke-opacity:1; fill:none" points="1772.84,425.996 1912.92,425.996 "/>
<path clip-path="url(#clip450)" d="M1936.27 408.716 L1940.95 408.716 L1940.95 439.341 L1957.77 439.341 L1957.77 443.276 L1936.27 443.276 L1936.27 408.716 Z" fill="#000000" fill-rule="nonzero" fill-opacity="1" /><path clip-path="url(#clip450)" d="M1962.68 408.716 L1969.65 408.716 L1978.47 432.234 L1987.33 408.716 L1994.3 408.716 L1994.3 443.276 L1989.74 443.276 L1989.74 412.929 L1980.83 436.632 L1976.13 436.632 L1967.22 412.929 L1967.22 443.276 L1962.68 443.276 L1962.68 408.716 Z" fill="#000000" fill-rule="nonzero" fill-opacity="1" /></svg>
