<?xml version="1.0" encoding="utf-8"?>
<svg xmlns="http://www.w3.org/2000/svg" xmlns:xlink="http://www.w3.org/1999/xlink" width="600" height="400" viewBox="0 0 2400 1600">
<defs>
  <clipPath id="clip540">
    <rect x="0" y="0" width="2400" height="1600"/>
  </clipPath>
</defs>
<path clip-path="url(#clip540)" d="M0 1600 L2400 1600 L2400 0 L0 0  Z" fill="#ffffff" fill-rule="evenodd" fill-opacity="1"/>
<defs>
  <clipPath id="clip541">
    <rect x="480" y="0" width="1681" height="1600"/>
  </clipPath>
</defs>
<path clip-path="url(#clip540)" d="M221.637 1423.18 L2352.76 1423.18 L2352.76 123.472 L221.637 123.472  Z" fill="#ffffff" fill-rule="evenodd" fill-opacity="1"/>
<defs>
  <clipPath id="clip542">
    <rect x="221" y="123" width="2132" height="1301"/>
  </clipPath>
</defs>
<polyline clip-path="url(#clip542)" style="stroke:#000000; stroke-linecap:round; stroke-linejoin:round; stroke-width:2; stroke-opacity:0.1; fill:none" points="239.175,1423.18 239.175,123.472 "/>
<polyline clip-path="url(#clip542)" style="stroke:#000000; stroke-linecap:round; stroke-linejoin:round; stroke-width:2; stroke-opacity:0.1; fill:none" points="666.939,1423.18 666.939,123.472 "/>
<polyline clip-path="url(#clip542)" style="stroke:#000000; stroke-linecap:round; stroke-linejoin:round; stroke-width:2; stroke-opacity:0.1; fill:none" points="1094.7,1423.18 1094.7,123.472 "/>
<polyline clip-path="url(#clip542)" style="stroke:#000000; stroke-linecap:round; stroke-linejoin:round; stroke-width:2; stroke-opacity:0.1; fill:none" points="1522.47,1423.18 1522.47,123.472 "/>
<polyline clip-path="url(#clip542)" style="stroke:#000000; stroke-linecap:round; stroke-linejoin:round; stroke-width:2; stroke-opacity:0.1; fill:none" points="1950.23,1423.18 1950.23,123.472 "/>
<polyline clip-path="url(#clip540)" style="stroke:#000000; stroke-linecap:round; stroke-linejoin:round; stroke-width:4; stroke-opacity:1; fill:none" points="221.637,1423.18 2352.76,1423.18 "/>
<polyline clip-path="url(#clip540)" style="stroke:#000000; stroke-linecap:round; stroke-linejoin:round; stroke-width:4; stroke-opacity:1; fill:none" points="239.175,1423.18 239.175,1404.28 "/>
<polyline clip-path="url(#clip540)" style="stroke:#000000; stroke-linecap:round; stroke-linejoin:round; stroke-width:4; stroke-opacity:1; fill:none" points="666.939,1423.18 666.939,1404.28 "/>
<polyline clip-path="url(#clip540)" style="stroke:#000000; stroke-linecap:round; stroke-linejoin:round; stroke-width:4; stroke-opacity:1; fill:none" points="1094.7,1423.18 1094.7,1404.28 "/>
<polyline clip-path="url(#clip540)" style="stroke:#000000; stroke-linecap:round; stroke-linejoin:round; stroke-width:4; stroke-opacity:1; fill:none" points="1522.47,1423.18 1522.47,1404.28 "/>
<polyline clip-path="url(#clip540)" style="stroke:#000000; stroke-linecap:round; stroke-linejoin:round; stroke-width:4; stroke-opacity:1; fill:none" points="1950.23,1423.18 1950.23,1404.28 "/>
<path clip-path="url(#clip540)" d="M239.175 1454.1 Q235.564 1454.1 233.736 1457.66 Q231.93 1461.2 231.93 1468.33 Q231.93 1475.44 233.736 1479.01 Q235.564 1482.55 239.175 1482.55 Q242.81 1482.55 244.615 1479.01 Q246.444 1475.44 246.444 1468.33 Q246.444 1461.2 244.615 1457.66 Q242.81 1454.1 239.175 1454.1 M239.175 1450.39 Q244.986 1450.39 248.041 1455 Q251.12 1459.58 251.12 1468.33 Q251.12 1477.06 248.041 1481.67 Q244.986 1486.25 239.175 1486.25 Q233.365 1486.25 230.287 1481.67 Q227.231 1477.06 227.231 1468.33 Q227.231 1459.58 230.287 1455 Q233.365 1450.39 239.175 1450.39 Z" fill="#000000" fill-rule="nonzero" fill-opacity="1" /><path clip-path="url(#clip540)" d="M641.627 1481.64 L649.266 1481.64 L649.266 1455.28 L640.955 1456.95 L640.955 1452.69 L649.219 1451.02 L653.895 1451.02 L653.895 1481.64 L661.534 1481.64 L661.534 1485.58 L641.627 1485.58 L641.627 1481.64 Z" fill="#000000" fill-rule="nonzero" fill-opacity="1" /><path clip-path="url(#clip540)" d="M680.978 1454.1 Q677.367 1454.1 675.539 1457.66 Q673.733 1461.2 673.733 1468.33 Q673.733 1475.44 675.539 1479.01 Q677.367 1482.55 680.978 1482.55 Q684.613 1482.55 686.418 1479.01 Q688.247 1475.44 688.247 1468.33 Q688.247 1461.2 686.418 1457.66 Q684.613 1454.1 680.978 1454.1 M680.978 1450.39 Q686.789 1450.39 689.844 1455 Q692.923 1459.58 692.923 1468.33 Q692.923 1477.06 689.844 1481.67 Q686.789 1486.25 680.978 1486.25 Q675.168 1486.25 672.09 1481.67 Q669.034 1477.06 669.034 1468.33 Q669.034 1459.58 672.09 1455 Q675.168 1450.39 680.978 1450.39 Z" fill="#000000" fill-rule="nonzero" fill-opacity="1" /><path clip-path="url(#clip540)" d="M1073.48 1481.64 L1089.8 1481.64 L1089.8 1485.58 L1067.85 1485.58 L1067.85 1481.64 Q1070.51 1478.89 1075.1 1474.26 Q1079.7 1469.61 1080.88 1468.27 Q1083.13 1465.74 1084.01 1464.01 Q1084.91 1462.25 1084.91 1460.56 Q1084.91 1457.8 1082.97 1456.07 Q1081.05 1454.33 1077.94 1454.33 Q1075.74 1454.33 1073.29 1455.09 Q1070.86 1455.86 1068.08 1457.41 L1068.08 1452.69 Q1070.91 1451.55 1073.36 1450.97 Q1075.81 1450.39 1077.85 1450.39 Q1083.22 1450.39 1086.42 1453.08 Q1089.61 1455.77 1089.61 1460.26 Q1089.61 1462.39 1088.8 1464.31 Q1088.01 1466.2 1085.91 1468.8 Q1085.33 1469.47 1082.23 1472.69 Q1079.12 1475.88 1073.48 1481.64 Z" fill="#000000" fill-rule="nonzero" fill-opacity="1" /><path clip-path="url(#clip540)" d="M1109.61 1454.1 Q1106 1454.1 1104.17 1457.66 Q1102.36 1461.2 1102.36 1468.33 Q1102.36 1475.44 1104.17 1479.01 Q1106 1482.55 1109.61 1482.55 Q1113.24 1482.55 1115.05 1479.01 Q1116.88 1475.44 1116.88 1468.33 Q1116.88 1461.2 1115.05 1457.66 Q1113.24 1454.1 1109.61 1454.1 M1109.61 1450.39 Q1115.42 1450.39 1118.48 1455 Q1121.55 1459.58 1121.55 1468.33 Q1121.55 1477.06 1118.48 1481.67 Q1115.42 1486.25 1109.61 1486.25 Q1103.8 1486.25 1100.72 1481.67 Q1097.67 1477.06 1097.67 1468.33 Q1097.67 1459.58 1100.72 1455 Q1103.8 1450.39 1109.61 1450.39 Z" fill="#000000" fill-rule="nonzero" fill-opacity="1" /><path clip-path="url(#clip540)" d="M1511.31 1466.95 Q1514.67 1467.66 1516.54 1469.93 Q1518.44 1472.2 1518.44 1475.53 Q1518.44 1480.65 1514.92 1483.45 Q1511.4 1486.25 1504.92 1486.25 Q1502.74 1486.25 1500.43 1485.81 Q1498.14 1485.39 1495.68 1484.54 L1495.68 1480.02 Q1497.63 1481.16 1499.94 1481.74 Q1502.26 1482.32 1504.78 1482.32 Q1509.18 1482.32 1511.47 1480.58 Q1513.79 1478.84 1513.79 1475.53 Q1513.79 1472.48 1511.63 1470.77 Q1509.5 1469.03 1505.68 1469.03 L1501.66 1469.03 L1501.66 1465.19 L1505.87 1465.19 Q1509.32 1465.19 1511.15 1463.82 Q1512.98 1462.43 1512.98 1459.84 Q1512.98 1457.18 1511.08 1455.77 Q1509.2 1454.33 1505.68 1454.33 Q1503.76 1454.33 1501.56 1454.75 Q1499.36 1455.16 1496.73 1456.04 L1496.73 1451.88 Q1499.39 1451.14 1501.7 1450.77 Q1504.04 1450.39 1506.1 1450.39 Q1511.42 1450.39 1514.53 1452.83 Q1517.63 1455.23 1517.63 1459.35 Q1517.63 1462.22 1515.99 1464.21 Q1514.34 1466.18 1511.31 1466.95 Z" fill="#000000" fill-rule="nonzero" fill-opacity="1" /><path clip-path="url(#clip540)" d="M1537.3 1454.1 Q1533.69 1454.1 1531.86 1457.66 Q1530.06 1461.2 1530.06 1468.33 Q1530.06 1475.44 1531.86 1479.01 Q1533.69 1482.55 1537.3 1482.55 Q1540.94 1482.55 1542.74 1479.01 Q1544.57 1475.44 1544.57 1468.33 Q1544.57 1461.2 1542.74 1457.66 Q1540.94 1454.1 1537.3 1454.1 M1537.3 1450.39 Q1543.11 1450.39 1546.17 1455 Q1549.25 1459.58 1549.25 1468.33 Q1549.25 1477.06 1546.17 1481.67 Q1543.11 1486.25 1537.3 1486.25 Q1531.49 1486.25 1528.42 1481.67 Q1525.36 1477.06 1525.36 1468.33 Q1525.36 1459.58 1528.42 1455 Q1531.49 1450.39 1537.3 1450.39 Z" fill="#000000" fill-rule="nonzero" fill-opacity="1" /><path clip-path="url(#clip540)" d="M1938.4 1455.09 L1926.6 1473.54 L1938.4 1473.54 L1938.4 1455.09 M1937.17 1451.02 L1943.05 1451.02 L1943.05 1473.54 L1947.98 1473.54 L1947.98 1477.43 L1943.05 1477.43 L1943.05 1485.58 L1938.4 1485.58 L1938.4 1477.43 L1922.8 1477.43 L1922.8 1472.92 L1937.17 1451.02 Z" fill="#000000" fill-rule="nonzero" fill-opacity="1" /><path clip-path="url(#clip540)" d="M1965.72 1454.1 Q1962.11 1454.1 1960.28 1457.66 Q1958.47 1461.2 1958.47 1468.33 Q1958.47 1475.44 1960.28 1479.01 Q1962.11 1482.55 1965.72 1482.55 Q1969.35 1482.55 1971.16 1479.01 Q1972.98 1475.44 1972.98 1468.33 Q1972.98 1461.2 1971.16 1457.66 Q1969.35 1454.1 1965.72 1454.1 M1965.72 1450.39 Q1971.53 1450.39 1974.58 1455 Q1977.66 1459.58 1977.66 1468.33 Q1977.66 1477.06 1974.58 1481.67 Q1971.53 1486.25 1965.72 1486.25 Q1959.91 1486.25 1956.83 1481.67 Q1953.77 1477.06 1953.77 1468.33 Q1953.77 1459.58 1956.83 1455 Q1959.91 1450.39 1965.72 1450.39 Z" fill="#000000" fill-rule="nonzero" fill-opacity="1" /><path clip-path="url(#clip540)" d="M1271.38 1518.52 L1277.27 1518.52 L1277.27 1547.77 L1294.74 1532.4 L1302.22 1532.4 L1283.31 1549.07 L1303.02 1568.04 L1295.38 1568.04 L1277.27 1550.63 L1277.27 1568.04 L1271.38 1568.04 L1271.38 1518.52 Z" fill="#000000" fill-rule="nonzero" fill-opacity="1" /><polyline clip-path="url(#clip542)" style="stroke:#000000; stroke-linecap:round; stroke-linejoin:round; stroke-width:2; stroke-opacity:0.1; fill:none" points="221.637,929.965 2352.76,929.965 "/>
<polyline clip-path="url(#clip542)" style="stroke:#000000; stroke-linecap:round; stroke-linejoin:round; stroke-width:2; stroke-opacity:0.1; fill:none" points="221.637,288.541 2352.76,288.541 "/>
<polyline clip-path="url(#clip540)" style="stroke:#000000; stroke-linecap:round; stroke-linejoin:round; stroke-width:4; stroke-opacity:1; fill:none" points="221.637,1423.18 221.637,123.472 "/>
<polyline clip-path="url(#clip540)" style="stroke:#000000; stroke-linecap:round; stroke-linejoin:round; stroke-width:4; stroke-opacity:1; fill:none" points="221.637,929.965 240.535,929.965 "/>
<polyline clip-path="url(#clip540)" style="stroke:#000000; stroke-linecap:round; stroke-linejoin:round; stroke-width:4; stroke-opacity:1; fill:none" points="221.637,288.541 240.535,288.541 "/>
<path clip-path="url(#clip540)" d="M114.931 949.757 L122.57 949.757 L122.57 923.392 L114.26 925.059 L114.26 920.799 L122.524 919.133 L127.2 919.133 L127.2 949.757 L134.839 949.757 L134.839 953.693 L114.931 953.693 L114.931 949.757 Z" fill="#000000" fill-rule="nonzero" fill-opacity="1" /><path clip-path="url(#clip540)" d="M154.283 922.211 Q150.672 922.211 148.843 925.776 Q147.038 929.318 147.038 936.447 Q147.038 943.554 148.843 947.119 Q150.672 950.66 154.283 950.66 Q157.917 950.66 159.723 947.119 Q161.552 943.554 161.552 936.447 Q161.552 929.318 159.723 925.776 Q157.917 922.211 154.283 922.211 M154.283 918.508 Q160.093 918.508 163.149 923.114 Q166.227 927.697 166.227 936.447 Q166.227 945.174 163.149 949.781 Q160.093 954.364 154.283 954.364 Q148.473 954.364 145.394 949.781 Q142.339 945.174 142.339 936.447 Q142.339 927.697 145.394 923.114 Q148.473 918.508 154.283 918.508 Z" fill="#000000" fill-rule="nonzero" fill-opacity="1" /><path clip-path="url(#clip540)" d="M175.932 900.704 Q172.998 900.704 171.512 903.6 Q170.045 906.478 170.045 912.27 Q170.045 918.044 171.512 920.941 Q172.998 923.818 175.932 923.818 Q178.885 923.818 180.352 920.941 Q181.838 918.044 181.838 912.27 Q181.838 906.478 180.352 903.6 Q178.885 900.704 175.932 900.704 M175.932 897.694 Q180.653 897.694 183.136 901.437 Q185.637 905.161 185.637 912.27 Q185.637 919.361 183.136 923.104 Q180.653 926.828 175.932 926.828 Q171.212 926.828 168.71 923.104 Q166.227 919.361 166.227 912.27 Q166.227 905.161 168.71 901.437 Q171.212 897.694 175.932 897.694 Z" fill="#000000" fill-rule="nonzero" fill-opacity="1" /><path clip-path="url(#clip540)" d="M116.173 308.333 L123.812 308.333 L123.812 281.968 L115.501 283.635 L115.501 279.375 L123.765 277.709 L128.441 277.709 L128.441 308.333 L136.08 308.333 L136.08 312.269 L116.173 312.269 L116.173 308.333 Z" fill="#000000" fill-rule="nonzero" fill-opacity="1" /><path clip-path="url(#clip540)" d="M155.524 280.787 Q151.913 280.787 150.085 284.352 Q148.279 287.894 148.279 295.023 Q148.279 302.13 150.085 305.695 Q151.913 309.236 155.524 309.236 Q159.159 309.236 160.964 305.695 Q162.793 302.13 162.793 295.023 Q162.793 287.894 160.964 284.352 Q159.159 280.787 155.524 280.787 M155.524 277.084 Q161.335 277.084 164.39 281.69 Q167.469 286.273 167.469 295.023 Q167.469 303.75 164.39 308.357 Q161.335 312.94 155.524 312.94 Q149.714 312.94 146.636 308.357 Q143.58 303.75 143.58 295.023 Q143.58 286.273 146.636 281.69 Q149.714 277.084 155.524 277.084 Z" fill="#000000" fill-rule="nonzero" fill-opacity="1" /><path clip-path="url(#clip540)" d="M168.654 256.778 L183.568 256.778 L183.568 259.976 L172.133 259.976 L172.133 266.859 Q172.961 266.577 173.788 266.445 Q174.616 266.295 175.443 266.295 Q180.145 266.295 182.891 268.872 Q185.637 271.448 185.637 275.849 Q185.637 280.382 182.816 282.902 Q179.995 285.404 174.86 285.404 Q173.092 285.404 171.249 285.103 Q169.425 284.802 167.469 284.2 L167.469 280.382 Q169.161 281.304 170.967 281.755 Q172.773 282.206 174.785 282.206 Q178.039 282.206 179.938 280.495 Q181.838 278.783 181.838 275.849 Q181.838 272.915 179.938 271.204 Q178.039 269.492 174.785 269.492 Q173.262 269.492 171.738 269.831 Q170.234 270.169 168.654 270.884 L168.654 256.778 Z" fill="#000000" fill-rule="nonzero" fill-opacity="1" /><path clip-path="url(#clip540)" d="M32.4621 801.797 Q32.4621 806.507 36.1542 809.244 Q39.8145 811.982 46.212 811.982 Q52.6095 811.982 56.3017 809.276 Q59.9619 806.539 59.9619 801.797 Q59.9619 797.118 56.2698 794.381 Q52.5777 791.643 46.212 791.643 Q39.8781 791.643 36.186 794.381 Q32.4621 797.118 32.4621 801.797 M27.4968 801.797 Q27.4968 794.158 32.4621 789.797 Q37.4273 785.437 46.212 785.437 Q54.9649 785.437 59.9619 789.797 Q64.9272 794.158 64.9272 801.797 Q64.9272 809.467 59.9619 813.828 Q54.9649 818.156 46.212 818.156 Q37.4273 818.156 32.4621 813.828 Q27.4968 809.467 27.4968 801.797 Z" fill="#000000" fill-rule="nonzero" fill-opacity="1" /><path clip-path="url(#clip540)" d="M46.212 750.139 Q39.7508 750.139 36.0905 752.812 Q32.3984 755.454 32.3984 760.101 Q32.3984 764.748 36.0905 767.422 Q39.7508 770.064 46.212 770.064 Q52.6732 770.064 56.3653 767.422 Q60.0256 764.748 60.0256 760.101 Q60.0256 755.454 56.3653 752.812 Q52.6732 750.139 46.212 750.139 M33.7671 770.064 Q30.5842 768.218 29.0564 765.417 Q27.4968 762.584 27.4968 758.669 Q27.4968 752.176 32.6531 748.134 Q37.8093 744.06 46.212 744.06 Q54.6147 744.06 59.771 748.134 Q64.9272 752.176 64.9272 758.669 Q64.9272 762.584 63.3994 765.417 Q61.8398 768.218 58.657 770.064 L64.0042 770.064 L64.0042 775.952 L14.479 775.952 L14.479 770.064 L33.7671 770.064 Z" fill="#000000" fill-rule="nonzero" fill-opacity="1" /><path clip-path="url(#clip540)" d="M28.3562 734.352 L28.3562 728.495 L64.6407 728.495 Q71.452 728.495 74.5076 731.105 Q77.5631 733.684 77.5631 739.445 L77.5631 741.673 L72.5979 741.673 L72.5979 740.113 Q72.5979 736.771 71.0383 735.561 Q69.5105 734.352 64.6407 734.352 L28.3562 734.352 M14.479 734.352 L14.479 728.495 L21.895 728.495 L21.895 734.352 L14.479 734.352 Z" fill="#000000" fill-rule="nonzero" fill-opacity="1" /><path clip-path="url(#clip540)" d="M917.47 65.7705 L917.47 89.8329 L909.976 89.8329 L909.976 27.2059 L917.47 27.2059 L917.47 34.0924 Q919.82 30.0415 923.385 28.0971 Q926.99 26.1121 931.973 26.1121 Q940.237 26.1121 945.381 32.6746 Q950.566 39.2371 950.566 49.9314 Q950.566 60.6258 945.381 67.1883 Q940.237 73.7508 931.973 73.7508 Q926.99 73.7508 923.385 71.8063 Q919.82 69.8214 917.47 65.7705 M942.829 49.9314 Q942.829 41.7081 939.426 37.0496 Q936.064 32.3505 930.15 32.3505 Q924.235 32.3505 920.833 37.0496 Q917.47 41.7081 917.47 49.9314 Q917.47 58.1548 920.833 62.8538 Q924.235 67.5124 930.15 67.5124 Q936.064 67.5124 939.426 62.8538 Q942.829 58.1548 942.829 49.9314 Z" fill="#000000" fill-rule="nonzero" fill-opacity="1" /><path clip-path="url(#clip540)" d="M989.212 34.1734 Q987.956 33.4443 986.457 33.1202 Q984.999 32.7556 983.217 32.7556 Q976.897 32.7556 973.494 36.8875 Q970.132 40.9789 970.132 48.6757 L970.132 72.576 L962.638 72.576 L962.638 27.2059 L970.132 27.2059 L970.132 34.2544 Q972.482 30.1225 976.249 28.1376 Q980.016 26.1121 985.404 26.1121 Q986.174 26.1121 987.106 26.2337 Q988.037 26.3147 989.171 26.5172 L989.212 34.1734 Z" fill="#000000" fill-rule="nonzero" fill-opacity="1" /><path clip-path="url(#clip540)" d="M1012.79 32.4315 Q1006.79 32.4315 1003.31 37.1306 Q999.825 41.7891 999.825 49.9314 Q999.825 58.0738 1003.27 62.7728 Q1006.75 67.4314 1012.79 67.4314 Q1018.74 67.4314 1022.23 62.7323 Q1025.71 58.0333 1025.71 49.9314 Q1025.71 41.8701 1022.23 37.1711 Q1018.74 32.4315 1012.79 32.4315 M1012.79 26.1121 Q1022.51 26.1121 1028.06 32.4315 Q1033.61 38.7509 1033.61 49.9314 Q1033.61 61.0714 1028.06 67.4314 Q1022.51 73.7508 1012.79 73.7508 Q1003.03 73.7508 997.476 67.4314 Q991.967 61.0714 991.967 49.9314 Q991.967 38.7509 997.476 32.4315 Q1003.03 26.1121 1012.79 26.1121 Z" fill="#000000" fill-rule="nonzero" fill-opacity="1" /><path clip-path="url(#clip540)" d="M1078.53 49.9314 Q1078.53 41.7081 1075.13 37.0496 Q1071.77 32.3505 1065.86 32.3505 Q1059.94 32.3505 1056.54 37.0496 Q1053.18 41.7081 1053.18 49.9314 Q1053.18 58.1548 1056.54 62.8538 Q1059.94 67.5124 1065.86 67.5124 Q1071.77 67.5124 1075.13 62.8538 Q1078.53 58.1548 1078.53 49.9314 M1053.18 34.0924 Q1055.53 30.0415 1059.09 28.0971 Q1062.7 26.1121 1067.68 26.1121 Q1075.94 26.1121 1081.09 32.6746 Q1086.27 39.2371 1086.27 49.9314 Q1086.27 60.6258 1081.09 67.1883 Q1075.94 73.7508 1067.68 73.7508 Q1062.7 73.7508 1059.09 71.8063 Q1055.53 69.8214 1053.18 65.7705 L1053.18 72.576 L1045.68 72.576 L1045.68 9.54393 L1053.18 9.54393 L1053.18 34.0924 Z" fill="#000000" fill-rule="nonzero" fill-opacity="1" /><path clip-path="url(#clip540)" d="M1098.63 9.54393 L1106.08 9.54393 L1106.08 72.576 L1098.63 72.576 L1098.63 9.54393 Z" fill="#000000" fill-rule="nonzero" fill-opacity="1" /><path clip-path="url(#clip540)" d="M1160.48 48.0275 L1160.48 51.6733 L1126.21 51.6733 Q1126.7 59.3701 1130.83 63.421 Q1135 67.4314 1142.42 67.4314 Q1146.71 67.4314 1150.72 66.3781 Q1154.77 65.3249 1158.74 63.2184 L1158.74 70.267 Q1154.73 71.9684 1150.52 72.8596 Q1146.31 73.7508 1141.97 73.7508 Q1131.12 73.7508 1124.76 67.4314 Q1118.44 61.1119 1118.44 50.3365 Q1118.44 39.1965 1124.43 32.6746 Q1130.47 26.1121 1140.68 26.1121 Q1149.83 26.1121 1155.14 32.0264 Q1160.48 37.9003 1160.48 48.0275 M1153.03 45.84 Q1152.95 39.7232 1149.59 36.0774 Q1146.27 32.4315 1140.76 32.4315 Q1134.52 32.4315 1130.75 35.9558 Q1127.02 39.4801 1126.46 45.8805 L1153.03 45.84 M1134.36 6.22219 L1145.78 21.3726 L1139.58 21.3726 L1126.38 6.22219 L1134.36 6.22219 Z" fill="#000000" fill-rule="nonzero" fill-opacity="1" /><path clip-path="url(#clip540)" d="M1208.04 35.9153 Q1210.84 30.8922 1214.73 28.5022 Q1218.61 26.1121 1223.88 26.1121 Q1230.97 26.1121 1234.82 31.0947 Q1238.67 36.0368 1238.67 45.1919 L1238.67 72.576 L1231.17 72.576 L1231.17 45.4349 Q1231.17 38.913 1228.86 35.7533 Q1226.55 32.5936 1221.81 32.5936 Q1216.02 32.5936 1212.66 36.4419 Q1209.3 40.2903 1209.3 46.9338 L1209.3 72.576 L1201.8 72.576 L1201.8 45.4349 Q1201.8 38.8725 1199.49 35.7533 Q1197.19 32.5936 1192.36 32.5936 Q1186.65 32.5936 1183.29 36.4824 Q1179.93 40.3308 1179.93 46.9338 L1179.93 72.576 L1172.43 72.576 L1172.43 27.2059 L1179.93 27.2059 L1179.93 34.2544 Q1182.48 30.082 1186.05 28.0971 Q1189.61 26.1121 1194.51 26.1121 Q1199.45 26.1121 1202.9 28.6237 Q1206.38 31.1352 1208.04 35.9153 Z" fill="#000000" fill-rule="nonzero" fill-opacity="1" /><path clip-path="url(#clip540)" d="M1292.34 48.0275 L1292.34 51.6733 L1258.07 51.6733 Q1258.56 59.3701 1262.69 63.421 Q1266.86 67.4314 1274.27 67.4314 Q1278.57 67.4314 1282.58 66.3781 Q1286.63 65.3249 1290.6 63.2184 L1290.6 70.267 Q1286.59 71.9684 1282.38 72.8596 Q1278.16 73.7508 1273.83 73.7508 Q1262.97 73.7508 1256.61 67.4314 Q1250.29 61.1119 1250.29 50.3365 Q1250.29 39.1965 1256.29 32.6746 Q1262.32 26.1121 1272.53 26.1121 Q1281.69 26.1121 1286.99 32.0264 Q1292.34 37.9003 1292.34 48.0275 M1284.89 45.84 Q1284.81 39.7232 1281.44 36.0774 Q1278.12 32.4315 1272.61 32.4315 Q1266.37 32.4315 1262.61 35.9558 Q1258.88 39.4801 1258.31 45.8805 L1284.89 45.84 Z" fill="#000000" fill-rule="nonzero" fill-opacity="1" /><path clip-path="url(#clip540)" d="M1332.85 62.2867 L1341.4 62.2867 L1341.4 72.576 L1332.85 72.576 L1332.85 62.2867 M1332.85 29.6769 L1341.4 29.6769 L1341.4 39.9662 L1332.85 39.9662 L1332.85 29.6769 Z" fill="#000000" fill-rule="nonzero" fill-opacity="1" /><path clip-path="url(#clip540)" d="M1420.59 35.9153 Q1423.39 30.8922 1427.28 28.5022 Q1431.17 26.1121 1436.43 26.1121 Q1443.52 26.1121 1447.37 31.0947 Q1451.22 36.0368 1451.22 45.1919 L1451.22 72.576 L1443.72 72.576 L1443.72 45.4349 Q1443.72 38.913 1441.41 35.7533 Q1439.11 32.5936 1434.37 32.5936 Q1428.57 32.5936 1425.21 36.4419 Q1421.85 40.2903 1421.85 46.9338 L1421.85 72.576 L1414.35 72.576 L1414.35 45.4349 Q1414.35 38.8725 1412.05 35.7533 Q1409.74 32.5936 1404.92 32.5936 Q1399.2 32.5936 1395.84 36.4824 Q1392.48 40.3308 1392.48 46.9338 L1392.48 72.576 L1384.99 72.576 L1384.99 27.2059 L1392.48 27.2059 L1392.48 34.2544 Q1395.03 30.082 1398.6 28.0971 Q1402.16 26.1121 1407.06 26.1121 Q1412 26.1121 1415.45 28.6237 Q1418.93 31.1352 1420.59 35.9153 Z" fill="#000000" fill-rule="nonzero" fill-opacity="1" /><path clip-path="url(#clip540)" d="M1495.94 49.3643 Q1495.94 41.2625 1492.58 36.8065 Q1489.26 32.3505 1483.22 32.3505 Q1477.22 32.3505 1473.86 36.8065 Q1470.54 41.2625 1470.54 49.3643 Q1470.54 57.4256 1473.86 61.8816 Q1477.22 66.3376 1483.22 66.3376 Q1489.26 66.3376 1492.58 61.8816 Q1495.94 57.4256 1495.94 49.3643 M1503.39 66.9452 Q1503.39 78.5308 1498.25 84.1616 Q1493.1 89.8329 1482.49 89.8329 Q1478.56 89.8329 1475.08 89.2252 Q1471.59 88.6581 1468.31 87.4428 L1468.31 80.1917 Q1471.59 81.9741 1474.79 82.8248 Q1477.99 83.6755 1481.32 83.6755 Q1488.65 83.6755 1492.29 79.8271 Q1495.94 76.0193 1495.94 68.282 L1495.94 64.5957 Q1493.63 68.6061 1490.03 70.5911 Q1486.42 72.576 1481.4 72.576 Q1473.05 72.576 1467.95 66.2161 Q1462.84 59.8562 1462.84 49.3643 Q1462.84 38.832 1467.95 32.472 Q1473.05 26.1121 1481.4 26.1121 Q1486.42 26.1121 1490.03 28.0971 Q1493.63 30.082 1495.94 34.0924 L1495.94 27.2059 L1503.39 27.2059 L1503.39 66.9452 Z" fill="#000000" fill-rule="nonzero" fill-opacity="1" /><path clip-path="url(#clip540)" d="M1556.46 45.1919 L1556.46 72.576 L1549.01 72.576 L1549.01 45.4349 Q1549.01 38.994 1546.49 35.7938 Q1543.98 32.5936 1538.96 32.5936 Q1532.92 32.5936 1529.44 36.4419 Q1525.96 40.2903 1525.96 46.9338 L1525.96 72.576 L1518.46 72.576 L1518.46 9.54393 L1525.96 9.54393 L1525.96 34.2544 Q1528.63 30.163 1532.24 28.1376 Q1535.88 26.1121 1540.62 26.1121 Q1548.44 26.1121 1552.45 30.9732 Q1556.46 35.7938 1556.46 45.1919 Z" fill="#000000" fill-rule="nonzero" fill-opacity="1" /><path clip-path="url(#clip540)" d="M1589.88 17.4837 Q1583.56 17.4837 1580.36 23.7221 Q1577.2 29.92 1577.2 42.3968 Q1577.2 54.833 1580.36 61.0714 Q1583.56 67.2693 1589.88 67.2693 Q1596.24 67.2693 1599.4 61.0714 Q1602.6 54.833 1602.6 42.3968 Q1602.6 29.92 1599.4 23.7221 Q1596.24 17.4837 1589.88 17.4837 M1589.88 11.0023 Q1600.05 11.0023 1605.4 19.0636 Q1610.78 27.0843 1610.78 42.3968 Q1610.78 57.6687 1605.4 65.73 Q1600.05 73.7508 1589.88 73.7508 Q1579.71 73.7508 1574.32 65.73 Q1568.98 57.6687 1568.98 42.3968 Q1568.98 27.0843 1574.32 19.0636 Q1579.71 11.0023 1589.88 11.0023 Z" fill="#000000" fill-rule="nonzero" fill-opacity="1" /><path clip-path="url(#clip540)" d="M1647.65 19.2256 L1626.99 51.5113 L1647.65 51.5113 L1647.65 19.2256 M1645.5 12.096 L1655.79 12.096 L1655.79 51.5113 L1664.42 51.5113 L1664.42 58.3168 L1655.79 58.3168 L1655.79 72.576 L1647.65 72.576 L1647.65 58.3168 L1620.34 58.3168 L1620.34 50.4176 L1645.5 12.096 Z" fill="#000000" fill-rule="nonzero" fill-opacity="1" /><polyline clip-path="url(#clip542)" style="stroke:#009af9; stroke-linecap:round; stroke-linejoin:round; stroke-width:4; stroke-opacity:1; fill:none" points="281.952,160.256 324.728,160.256 367.505,160.256 410.281,160.256 453.057,160.256 495.834,160.256 538.61,160.256 581.386,160.256 624.163,160.256 666.939,160.256 709.715,160.256 752.492,160.312 795.268,160.423 838.045,160.644 880.821,161.085 923.597,161.955 966.374,163.657 1009.15,166.911 1051.93,172.899 1094.7,183.234 1137.48,199.482 1180.26,222.292 1223.03,250.927 1265.81,283.791 1308.58,319.293 1351.36,356.285 1394.14,394.071 1436.91,432.268 1479.69,470.675 1522.47,509.186 1565.24,547.751 1608.02,586.342 1650.8,624.946 1693.57,663.557 1736.35,702.171 1779.12,740.787 1821.9,779.404 1864.68,818.021 1907.45,856.638 1950.23,895.256 1993.01,933.873 2035.78,972.491 2078.56,1011.11 2121.34,1049.73 2164.11,1088.34 2206.89,1126.96 2249.66,1165.58 2292.44,1204.2 "/>
<polyline clip-path="url(#clip542)" style="stroke:#e26f46; stroke-linecap:round; stroke-linejoin:round; stroke-width:4; stroke-opacity:1; fill:none" points="281.952,160.256 324.728,160.256 367.505,160.256 410.281,160.256 453.057,160.256 495.834,160.256 538.61,160.256 581.386,160.256 624.163,160.256 666.939,160.256 709.715,160.256 752.492,160.312 795.268,160.423 838.045,160.644 880.821,161.085 923.597,161.955 966.374,163.657 1009.15,166.911 1051.93,172.899 1094.7,183.234 1137.48,199.482 1180.26,222.292 1223.03,250.927 1265.81,283.791 1308.58,319.293 1351.36,356.285 1394.14,394.071 1436.91,432.268 1479.69,470.675 1522.47,509.186 1565.24,547.751 1608.02,586.342 1650.8,624.946 1693.57,663.557 1736.35,702.171 1779.12,740.787 1821.9,779.404 1864.68,818.021 1907.45,856.638 1950.23,895.256 1993.01,933.873 2035.78,972.491 2078.56,1011.11 2121.34,1049.73 2164.11,1088.34 2206.89,1126.96 2249.66,1165.58 2292.44,1204.2 "/>
<polyline clip-path="url(#clip542)" style="stroke:#3da44d; stroke-linecap:round; stroke-linejoin:round; stroke-width:4; stroke-opacity:1; fill:none" points="281.952,160.256 324.728,160.256 367.505,160.256 410.281,160.256 453.057,160.256 495.834,160.256 538.61,160.256 581.386,160.256 624.163,160.256 666.939,160.256 709.715,160.256 752.492,160.312 795.268,160.423 838.045,160.645 880.821,161.089 923.597,161.974 966.374,163.728 1009.15,167.184 1051.93,173.893 1094.7,186.587 1137.48,209.61 1180.26,248.88 1223.03,310.965 1265.81,401.69 1308.58,525.281 1351.36,684.373 1394.14,880.457 1436.91,1114.33 1479.69,1386.4 "/>
<path clip-path="url(#clip540)" d="M1505.09 374.156 L2281.72 374.156 L2281.72 166.796 L1505.09 166.796  Z" fill="#ffffff" fill-rule="evenodd" fill-opacity="1"/>
<polyline clip-path="url(#clip540)" style="stroke:#000000; stroke-linecap:round; stroke-linejoin:round; stroke-width:4; stroke-opacity:1; fill:none" points="1505.09,374.156 2281.72,374.156 2281.72,166.796 1505.09,166.796 1505.09,374.156 "/>
<polyline clip-path="url(#clip540)" style="stroke:#009af9; stroke-linecap:round; stroke-linejoin:round; stroke-width:4; stroke-opacity:1; fill:none" points="1528.77,218.636 1670.84,218.636 "/>
<path clip-path="url(#clip540)" d="M1694.52 201.356 L1699.2 201.356 L1699.2 231.981 L1716.03 231.981 L1716.03 235.916 L1694.52 235.916 L1694.52 201.356 Z" fill="#000000" fill-rule="nonzero" fill-opacity="1" /><path clip-path="url(#clip540)" d="M1720.94 201.356 L1727.9 201.356 L1736.72 224.874 L1745.59 201.356 L1752.56 201.356 L1752.56 235.916 L1748 235.916 L1748 205.569 L1739.08 229.272 L1734.38 229.272 L1725.47 205.569 L1725.47 235.916 L1720.94 235.916 L1720.94 201.356 Z" fill="#000000" fill-rule="nonzero" fill-opacity="1" /><path clip-path="url(#clip540)" d="M1781.35 243.786 L1781.35 247.096 L1756.72 247.096 L1756.72 243.786 L1781.35 243.786 Z" fill="#000000" fill-rule="nonzero" fill-opacity="1" /><path clip-path="url(#clip540)" d="M1797.09 205.962 L1790.75 223.161 L1803.46 223.161 L1797.09 205.962 M1794.45 201.356 L1799.75 201.356 L1812.93 235.916 L1808.07 235.916 L1804.92 227.05 L1789.34 227.05 L1786.19 235.916 L1781.26 235.916 L1794.45 201.356 Z" fill="#000000" fill-rule="nonzero" fill-opacity="1" /><path clip-path="url(#clip540)" d="M1839.34 220.268 L1839.34 235.916 L1835.08 235.916 L1835.08 220.407 Q1835.08 216.726 1833.64 214.897 Q1832.21 213.069 1829.34 213.069 Q1825.89 213.069 1823.9 215.268 Q1821.91 217.467 1821.91 221.263 L1821.91 235.916 L1817.63 235.916 L1817.63 209.99 L1821.91 209.99 L1821.91 214.018 Q1823.44 211.68 1825.5 210.522 Q1827.58 209.365 1830.29 209.365 Q1834.75 209.365 1837.05 212.143 Q1839.34 214.897 1839.34 220.268 Z" fill="#000000" fill-rule="nonzero" fill-opacity="1" /><path clip-path="url(#clip540)" d="M1864.89 213.925 L1864.89 199.897 L1869.15 199.897 L1869.15 235.916 L1864.89 235.916 L1864.89 232.027 Q1863.55 234.342 1861.49 235.476 Q1859.45 236.587 1856.58 236.587 Q1851.88 236.587 1848.92 232.837 Q1845.98 229.087 1845.98 222.976 Q1845.98 216.865 1848.92 213.115 Q1851.88 209.365 1856.58 209.365 Q1859.45 209.365 1861.49 210.499 Q1863.55 211.61 1864.89 213.925 M1850.38 222.976 Q1850.38 227.675 1852.3 230.36 Q1854.25 233.022 1857.62 233.022 Q1861 233.022 1862.95 230.36 Q1864.89 227.675 1864.89 222.976 Q1864.89 218.277 1862.95 215.615 Q1861 212.93 1857.62 212.93 Q1854.25 212.93 1852.3 215.615 Q1850.38 218.277 1850.38 222.976 Z" fill="#000000" fill-rule="nonzero" fill-opacity="1" /><path clip-path="url(#clip540)" d="M1892.95 213.971 Q1892.23 213.555 1891.37 213.37 Q1890.54 213.161 1889.52 213.161 Q1885.91 213.161 1883.97 215.522 Q1882.05 217.86 1882.05 222.258 L1882.05 235.916 L1877.76 235.916 L1877.76 209.99 L1882.05 209.99 L1882.05 214.018 Q1883.39 211.657 1885.54 210.522 Q1887.69 209.365 1890.77 209.365 Q1891.21 209.365 1891.75 209.434 Q1892.28 209.481 1892.93 209.596 L1892.95 213.971 Z" fill="#000000" fill-rule="nonzero" fill-opacity="1" /><path clip-path="url(#clip540)" d="M1918.55 221.888 L1918.55 223.971 L1898.97 223.971 Q1899.25 228.369 1901.61 230.684 Q1903.99 232.976 1908.23 232.976 Q1910.68 232.976 1912.97 232.374 Q1915.29 231.772 1917.56 230.569 L1917.56 234.596 Q1915.26 235.568 1912.86 236.078 Q1910.45 236.587 1907.97 236.587 Q1901.77 236.587 1898.13 232.976 Q1894.52 229.365 1894.52 223.207 Q1894.52 216.842 1897.95 213.115 Q1901.4 209.365 1907.23 209.365 Q1912.46 209.365 1915.5 212.745 Q1918.55 216.101 1918.55 221.888 M1914.29 220.638 Q1914.25 217.143 1912.32 215.059 Q1910.43 212.976 1907.28 212.976 Q1903.71 212.976 1901.56 214.99 Q1899.43 217.004 1899.11 220.661 L1914.29 220.638 Z" fill="#000000" fill-rule="nonzero" fill-opacity="1" /><path clip-path="url(#clip540)" d="M1925.54 209.99 L1929.8 209.99 L1929.8 235.916 L1925.54 235.916 L1925.54 209.99 M1925.54 199.897 L1929.8 199.897 L1929.8 205.291 L1925.54 205.291 L1925.54 199.897 Z" fill="#000000" fill-rule="nonzero" fill-opacity="1" /><path clip-path="url(#clip540)" d="M1958.41 243.786 L1958.41 247.096 L1933.78 247.096 L1933.78 243.786 L1958.41 243.786 Z" fill="#000000" fill-rule="nonzero" fill-opacity="1" /><path clip-path="url(#clip540)" d="M1964.96 222.976 Q1964.96 227.675 1966.88 230.36 Q1968.83 233.022 1972.21 233.022 Q1975.59 233.022 1977.53 230.36 Q1979.48 227.675 1979.48 222.976 Q1979.48 218.277 1977.53 215.615 Q1975.59 212.93 1972.21 212.93 Q1968.83 212.93 1966.88 215.615 Q1964.96 218.277 1964.96 222.976 M1979.48 232.027 Q1978.13 234.342 1976.07 235.476 Q1974.04 236.587 1971.17 236.587 Q1966.47 236.587 1963.5 232.837 Q1960.56 229.087 1960.56 222.976 Q1960.56 216.865 1963.5 213.115 Q1966.47 209.365 1971.17 209.365 Q1974.04 209.365 1976.07 210.499 Q1978.13 211.61 1979.48 213.925 L1979.48 209.99 L1983.74 209.99 L1983.74 245.777 L1979.48 245.777 L1979.48 232.027 Z" fill="#000000" fill-rule="nonzero" fill-opacity="1" /><path clip-path="url(#clip540)" d="M1992.07 225.684 L1992.07 209.99 L1996.33 209.99 L1996.33 225.522 Q1996.33 229.203 1997.76 231.055 Q1999.2 232.883 2002.07 232.883 Q2005.52 232.883 2007.51 230.684 Q2009.52 228.485 2009.52 224.689 L2009.52 209.99 L2013.78 209.99 L2013.78 235.916 L2009.52 235.916 L2009.52 231.934 Q2007.97 234.295 2005.91 235.453 Q2003.87 236.587 2001.17 236.587 Q1996.7 236.587 1994.38 233.809 Q1992.07 231.031 1992.07 225.684 M2002.79 209.365 L2002.79 209.365 Z" fill="#000000" fill-rule="nonzero" fill-opacity="1" /><path clip-path="url(#clip540)" d="M2034.34 222.883 Q2029.17 222.883 2027.18 224.064 Q2025.19 225.244 2025.19 228.092 Q2025.19 230.36 2026.68 231.703 Q2028.18 233.022 2030.75 233.022 Q2034.29 233.022 2036.42 230.522 Q2038.57 227.999 2038.57 223.832 L2038.57 222.883 L2034.34 222.883 M2042.83 221.124 L2042.83 235.916 L2038.57 235.916 L2038.57 231.981 Q2037.11 234.342 2034.94 235.476 Q2032.76 236.587 2029.61 236.587 Q2025.63 236.587 2023.27 234.365 Q2020.93 232.119 2020.93 228.369 Q2020.93 223.994 2023.85 221.772 Q2026.79 219.55 2032.6 219.55 L2038.57 219.55 L2038.57 219.133 Q2038.57 216.194 2036.63 214.596 Q2034.71 212.976 2031.21 212.976 Q2028.99 212.976 2026.88 213.508 Q2024.78 214.041 2022.83 215.106 L2022.83 211.17 Q2025.17 210.268 2027.37 209.828 Q2029.57 209.365 2031.65 209.365 Q2037.28 209.365 2040.05 212.282 Q2042.83 215.198 2042.83 221.124 Z" fill="#000000" fill-rule="nonzero" fill-opacity="1" /><path clip-path="url(#clip540)" d="M2068.13 210.754 L2068.13 214.782 Q2066.33 213.856 2064.38 213.393 Q2062.44 212.93 2060.36 212.93 Q2057.18 212.93 2055.59 213.902 Q2054.01 214.874 2054.01 216.819 Q2054.01 218.3 2055.15 219.157 Q2056.28 219.99 2059.71 220.754 L2061.17 221.078 Q2065.7 222.05 2067.6 223.832 Q2069.52 225.592 2069.52 228.763 Q2069.52 232.374 2066.65 234.481 Q2063.8 236.587 2058.8 236.587 Q2056.72 236.587 2054.45 236.17 Q2052.21 235.777 2049.71 234.967 L2049.71 230.569 Q2052.07 231.795 2054.36 232.42 Q2056.65 233.022 2058.9 233.022 Q2061.91 233.022 2063.53 232.004 Q2065.15 230.962 2065.15 229.087 Q2065.15 227.351 2063.97 226.425 Q2062.81 225.499 2058.85 224.643 L2057.37 224.295 Q2053.41 223.462 2051.65 221.749 Q2049.89 220.013 2049.89 217.004 Q2049.89 213.346 2052.49 211.356 Q2055.08 209.365 2059.85 209.365 Q2062.21 209.365 2064.29 209.712 Q2066.37 210.059 2068.13 210.754 Z" fill="#000000" fill-rule="nonzero" fill-opacity="1" /><path clip-path="url(#clip540)" d="M2076.3 209.99 L2080.56 209.99 L2080.56 235.916 L2076.3 235.916 L2076.3 209.99 M2076.3 199.897 L2080.56 199.897 L2080.56 205.291 L2076.3 205.291 L2076.3 199.897 Z" fill="#000000" fill-rule="nonzero" fill-opacity="1" /><path clip-path="url(#clip540)" d="M2109.17 243.786 L2109.17 247.096 L2084.55 247.096 L2084.55 243.786 L2109.17 243.786 Z" fill="#000000" fill-rule="nonzero" fill-opacity="1" /><path clip-path="url(#clip540)" d="M2134.73 220.268 L2134.73 235.916 L2130.47 235.916 L2130.47 220.407 Q2130.47 216.726 2129.04 214.897 Q2127.6 213.069 2124.73 213.069 Q2121.28 213.069 2119.29 215.268 Q2117.3 217.467 2117.3 221.263 L2117.3 235.916 L2113.02 235.916 L2113.02 209.99 L2117.3 209.99 L2117.3 214.018 Q2118.83 211.68 2120.89 210.522 Q2122.97 209.365 2125.68 209.365 Q2130.15 209.365 2132.44 212.143 Q2134.73 214.897 2134.73 220.268 Z" fill="#000000" fill-rule="nonzero" fill-opacity="1" /><path clip-path="url(#clip540)" d="M2142.79 225.684 L2142.79 209.99 L2147.04 209.99 L2147.04 225.522 Q2147.04 229.203 2148.48 231.055 Q2149.92 232.883 2152.79 232.883 Q2156.23 232.883 2158.23 230.684 Q2160.24 228.485 2160.24 224.689 L2160.24 209.99 L2164.5 209.99 L2164.5 235.916 L2160.24 235.916 L2160.24 231.934 Q2158.69 234.295 2156.63 235.453 Q2154.59 236.587 2151.88 236.587 Q2147.42 236.587 2145.1 233.809 Q2142.79 231.031 2142.79 225.684 M2153.5 209.365 L2153.5 209.365 Z" fill="#000000" fill-rule="nonzero" fill-opacity="1" /><path clip-path="url(#clip540)" d="M2173.27 199.897 L2177.53 199.897 L2177.53 235.916 L2173.27 235.916 L2173.27 199.897 Z" fill="#000000" fill-rule="nonzero" fill-opacity="1" /><path clip-path="url(#clip540)" d="M2206.14 243.786 L2206.14 247.096 L2181.51 247.096 L2181.51 243.786 L2206.14 243.786 Z" fill="#000000" fill-rule="nonzero" fill-opacity="1" /><path clip-path="url(#clip540)" d="M2210.15 199.897 L2214.41 199.897 L2214.41 235.916 L2210.15 235.916 L2210.15 199.897 Z" fill="#000000" fill-rule="nonzero" fill-opacity="1" /><path clip-path="url(#clip540)" d="M2223.32 209.99 L2227.58 209.99 L2227.58 235.916 L2223.32 235.916 L2223.32 209.99 M2223.32 199.897 L2227.58 199.897 L2227.58 205.291 L2223.32 205.291 L2223.32 199.897 Z" fill="#000000" fill-rule="nonzero" fill-opacity="1" /><path clip-path="url(#clip540)" d="M2258.04 220.268 L2258.04 235.916 L2253.78 235.916 L2253.78 220.407 Q2253.78 216.726 2252.35 214.897 Q2250.91 213.069 2248.04 213.069 Q2244.59 213.069 2242.6 215.268 Q2240.61 217.467 2240.61 221.263 L2240.61 235.916 L2236.33 235.916 L2236.33 209.99 L2240.61 209.99 L2240.61 214.018 Q2242.14 211.68 2244.2 210.522 Q2246.28 209.365 2248.99 209.365 Q2253.46 209.365 2255.75 212.143 Q2258.04 214.897 2258.04 220.268 Z" fill="#000000" fill-rule="nonzero" fill-opacity="1" /><polyline clip-path="url(#clip540)" style="stroke:#e26f46; stroke-linecap:round; stroke-linejoin:round; stroke-width:4; stroke-opacity:1; fill:none" points="1528.77,270.476 1670.84,270.476 "/>
<path clip-path="url(#clip540)" d="M1694.52 253.196 L1699.2 253.196 L1699.2 283.821 L1716.03 283.821 L1716.03 287.756 L1694.52 287.756 L1694.52 253.196 Z" fill="#000000" fill-rule="nonzero" fill-opacity="1" /><path clip-path="url(#clip540)" d="M1720.94 253.196 L1727.9 253.196 L1736.72 276.714 L1745.59 253.196 L1752.56 253.196 L1752.56 287.756 L1748 287.756 L1748 257.409 L1739.08 281.112 L1734.38 281.112 L1725.47 257.409 L1725.47 287.756 L1720.94 287.756 L1720.94 253.196 Z" fill="#000000" fill-rule="nonzero" fill-opacity="1" /><path clip-path="url(#clip540)" d="M1781.35 295.626 L1781.35 298.936 L1756.72 298.936 L1756.72 295.626 L1781.35 295.626 Z" fill="#000000" fill-rule="nonzero" fill-opacity="1" /><path clip-path="url(#clip540)" d="M1783.55 253.196 L1810.7 253.196 L1810.7 256.761 L1788.85 283.821 L1811.24 283.821 L1811.24 287.756 L1783.02 287.756 L1783.02 284.191 L1804.87 257.131 L1783.55 257.131 L1783.55 253.196 Z" fill="#000000" fill-rule="nonzero" fill-opacity="1" /><path clip-path="url(#clip540)" d="M1839.38 272.108 L1839.38 287.756 L1835.13 287.756 L1835.13 272.247 Q1835.13 268.566 1833.69 266.737 Q1832.25 264.909 1829.38 264.909 Q1825.94 264.909 1823.94 267.108 Q1821.95 269.307 1821.95 273.103 L1821.95 287.756 L1817.67 287.756 L1817.67 251.737 L1821.95 251.737 L1821.95 265.858 Q1823.48 263.52 1825.54 262.362 Q1827.63 261.205 1830.33 261.205 Q1834.8 261.205 1837.09 263.983 Q1839.38 266.737 1839.38 272.108 Z" fill="#000000" fill-rule="nonzero" fill-opacity="1" /><path clip-path="url(#clip540)" d="M1847.44 277.524 L1847.44 261.83 L1851.7 261.83 L1851.7 277.362 Q1851.7 281.043 1853.13 282.895 Q1854.57 284.723 1857.44 284.723 Q1860.89 284.723 1862.88 282.524 Q1864.89 280.325 1864.89 276.529 L1864.89 261.83 L1869.15 261.83 L1869.15 287.756 L1864.89 287.756 L1864.89 283.774 Q1863.34 286.135 1861.28 287.293 Q1859.25 288.427 1856.54 288.427 Q1852.07 288.427 1849.75 285.649 Q1847.44 282.871 1847.44 277.524 M1858.16 261.205 L1858.16 261.205 Z" fill="#000000" fill-rule="nonzero" fill-opacity="1" /><path clip-path="url(#clip540)" d="M1897.62 295.626 L1897.62 298.936 L1873 298.936 L1873 295.626 L1897.62 295.626 Z" fill="#000000" fill-rule="nonzero" fill-opacity="1" /><path clip-path="url(#clip540)" d="M1904.18 274.816 Q1904.18 279.515 1906.1 282.2 Q1908.04 284.862 1911.42 284.862 Q1914.8 284.862 1916.75 282.2 Q1918.69 279.515 1918.69 274.816 Q1918.69 270.117 1916.75 267.455 Q1914.8 264.77 1911.42 264.77 Q1908.04 264.77 1906.1 267.455 Q1904.18 270.117 1904.18 274.816 M1918.69 283.867 Q1917.35 286.182 1915.29 287.316 Q1913.25 288.427 1910.38 288.427 Q1905.68 288.427 1902.72 284.677 Q1899.78 280.927 1899.78 274.816 Q1899.78 268.705 1902.72 264.955 Q1905.68 261.205 1910.38 261.205 Q1913.25 261.205 1915.29 262.339 Q1917.35 263.45 1918.69 265.765 L1918.69 261.83 L1922.95 261.83 L1922.95 297.617 L1918.69 297.617 L1918.69 283.867 Z" fill="#000000" fill-rule="nonzero" fill-opacity="1" /><path clip-path="url(#clip540)" d="M1931.28 277.524 L1931.28 261.83 L1935.54 261.83 L1935.54 277.362 Q1935.54 281.043 1936.98 282.895 Q1938.41 284.723 1941.28 284.723 Q1944.73 284.723 1946.72 282.524 Q1948.74 280.325 1948.74 276.529 L1948.74 261.83 L1952.99 261.83 L1952.99 287.756 L1948.74 287.756 L1948.74 283.774 Q1947.18 286.135 1945.12 287.293 Q1943.09 288.427 1940.38 288.427 Q1935.91 288.427 1933.6 285.649 Q1931.28 282.871 1931.28 277.524 M1942 261.205 L1942 261.205 Z" fill="#000000" fill-rule="nonzero" fill-opacity="1" /><path clip-path="url(#clip540)" d="M1973.55 274.723 Q1968.39 274.723 1966.4 275.904 Q1964.41 277.084 1964.41 279.932 Q1964.41 282.2 1965.89 283.543 Q1967.39 284.862 1969.96 284.862 Q1973.5 284.862 1975.63 282.362 Q1977.79 279.839 1977.79 275.672 L1977.79 274.723 L1973.55 274.723 M1982.05 272.964 L1982.05 287.756 L1977.79 287.756 L1977.79 283.821 Q1976.33 286.182 1974.15 287.316 Q1971.98 288.427 1968.83 288.427 Q1964.85 288.427 1962.49 286.205 Q1960.15 283.959 1960.15 280.209 Q1960.15 275.834 1963.06 273.612 Q1966 271.39 1971.81 271.39 L1977.79 271.39 L1977.79 270.973 Q1977.79 268.034 1975.84 266.436 Q1973.92 264.816 1970.43 264.816 Q1968.2 264.816 1966.1 265.348 Q1963.99 265.881 1962.05 266.946 L1962.05 263.01 Q1964.38 262.108 1966.58 261.668 Q1968.78 261.205 1970.87 261.205 Q1976.49 261.205 1979.27 264.122 Q1982.05 267.038 1982.05 272.964 Z" fill="#000000" fill-rule="nonzero" fill-opacity="1" /><path clip-path="url(#clip540)" d="M2007.35 262.594 L2007.35 266.622 Q2005.54 265.696 2003.6 265.233 Q2001.65 264.77 1999.57 264.77 Q1996.4 264.77 1994.8 265.742 Q1993.23 266.714 1993.23 268.659 Q1993.23 270.14 1994.36 270.997 Q1995.49 271.83 1998.92 272.594 L2000.38 272.918 Q2004.92 273.89 2006.81 275.672 Q2008.74 277.432 2008.74 280.603 Q2008.74 284.214 2005.86 286.321 Q2003.02 288.427 1998.02 288.427 Q1995.93 288.427 1993.67 288.01 Q1991.42 287.617 1988.92 286.807 L1988.92 282.409 Q1991.28 283.635 1993.57 284.26 Q1995.86 284.862 1998.11 284.862 Q2001.12 284.862 2002.74 283.844 Q2004.36 282.802 2004.36 280.927 Q2004.36 279.191 2003.18 278.265 Q2002.02 277.339 1998.06 276.483 L1996.58 276.135 Q1992.62 275.302 1990.87 273.589 Q1989.11 271.853 1989.11 268.844 Q1989.11 265.186 1991.7 263.196 Q1994.29 261.205 1999.06 261.205 Q2001.42 261.205 2003.5 261.552 Q2005.59 261.899 2007.35 262.594 Z" fill="#000000" fill-rule="nonzero" fill-opacity="1" /><path clip-path="url(#clip540)" d="M2015.52 261.83 L2019.78 261.83 L2019.78 287.756 L2015.52 287.756 L2015.52 261.83 M2015.52 251.737 L2019.78 251.737 L2019.78 257.131 L2015.52 257.131 L2015.52 251.737 Z" fill="#000000" fill-rule="nonzero" fill-opacity="1" /><path clip-path="url(#clip540)" d="M2048.39 295.626 L2048.39 298.936 L2023.76 298.936 L2023.76 295.626 L2048.39 295.626 Z" fill="#000000" fill-rule="nonzero" fill-opacity="1" /><path clip-path="url(#clip540)" d="M2073.94 272.108 L2073.94 287.756 L2069.68 287.756 L2069.68 272.247 Q2069.68 268.566 2068.25 266.737 Q2066.81 264.909 2063.94 264.909 Q2060.49 264.909 2058.5 267.108 Q2056.51 269.307 2056.51 273.103 L2056.51 287.756 L2052.23 287.756 L2052.23 261.83 L2056.51 261.83 L2056.51 265.858 Q2058.04 263.52 2060.1 262.362 Q2062.18 261.205 2064.89 261.205 Q2069.36 261.205 2071.65 263.983 Q2073.94 266.737 2073.94 272.108 Z" fill="#000000" fill-rule="nonzero" fill-opacity="1" /><path clip-path="url(#clip540)" d="M2082 277.524 L2082 261.83 L2086.26 261.83 L2086.26 277.362 Q2086.26 281.043 2087.69 282.895 Q2089.13 284.723 2092 284.723 Q2095.45 284.723 2097.44 282.524 Q2099.45 280.325 2099.45 276.529 L2099.45 261.83 L2103.71 261.83 L2103.71 287.756 L2099.45 287.756 L2099.45 283.774 Q2097.9 286.135 2095.84 287.293 Q2093.8 288.427 2091.1 288.427 Q2086.63 288.427 2084.31 285.649 Q2082 282.871 2082 277.524 M2092.72 261.205 L2092.72 261.205 Z" fill="#000000" fill-rule="nonzero" fill-opacity="1" /><path clip-path="url(#clip540)" d="M2112.48 251.737 L2116.74 251.737 L2116.74 287.756 L2112.48 287.756 L2112.48 251.737 Z" fill="#000000" fill-rule="nonzero" fill-opacity="1" /><path clip-path="url(#clip540)" d="M2145.35 295.626 L2145.35 298.936 L2120.73 298.936 L2120.73 295.626 L2145.35 295.626 Z" fill="#000000" fill-rule="nonzero" fill-opacity="1" /><path clip-path="url(#clip540)" d="M2149.36 251.737 L2153.62 251.737 L2153.62 287.756 L2149.36 287.756 L2149.36 251.737 Z" fill="#000000" fill-rule="nonzero" fill-opacity="1" /><path clip-path="url(#clip540)" d="M2162.53 261.83 L2166.79 261.83 L2166.79 287.756 L2162.53 287.756 L2162.53 261.83 M2162.53 251.737 L2166.79 251.737 L2166.79 257.131 L2162.53 257.131 L2162.53 251.737 Z" fill="#000000" fill-rule="nonzero" fill-opacity="1" /><path clip-path="url(#clip540)" d="M2197.25 272.108 L2197.25 287.756 L2192.99 287.756 L2192.99 272.247 Q2192.99 268.566 2191.56 266.737 Q2190.12 264.909 2187.25 264.909 Q2183.8 264.909 2181.81 267.108 Q2179.82 269.307 2179.82 273.103 L2179.82 287.756 L2175.54 287.756 L2175.54 261.83 L2179.82 261.83 L2179.82 265.858 Q2181.35 263.52 2183.41 262.362 Q2185.49 261.205 2188.2 261.205 Q2192.67 261.205 2194.96 263.983 Q2197.25 266.737 2197.25 272.108 Z" fill="#000000" fill-rule="nonzero" fill-opacity="1" /><polyline clip-path="url(#clip540)" style="stroke:#3da44d; stroke-linecap:round; stroke-linejoin:round; stroke-width:4; stroke-opacity:1; fill:none" points="1528.77,322.316 1670.84,322.316 "/>
<path clip-path="url(#clip540)" d="M1694.52 305.036 L1699.2 305.036 L1699.2 335.661 L1716.03 335.661 L1716.03 339.596 L1694.52 339.596 L1694.52 305.036 Z" fill="#000000" fill-rule="nonzero" fill-opacity="1" /><path clip-path="url(#clip540)" d="M1720.94 305.036 L1727.9 305.036 L1736.72 328.554 L1745.59 305.036 L1752.56 305.036 L1752.56 339.596 L1748 339.596 L1748 309.249 L1739.08 332.952 L1734.38 332.952 L1725.47 309.249 L1725.47 339.596 L1720.94 339.596 L1720.94 305.036 Z" fill="#000000" fill-rule="nonzero" fill-opacity="1" /><path clip-path="url(#clip540)" d="M1781.35 347.466 L1781.35 350.776 L1756.72 350.776 L1756.72 347.466 L1781.35 347.466 Z" fill="#000000" fill-rule="nonzero" fill-opacity="1" /><path clip-path="url(#clip540)" d="M1806.26 306.17 L1806.26 310.73 Q1803.6 309.457 1801.24 308.832 Q1798.88 308.207 1796.68 308.207 Q1792.86 308.207 1790.77 309.688 Q1788.71 311.17 1788.71 313.901 Q1788.71 316.193 1790.08 317.374 Q1791.47 318.531 1795.31 319.249 L1798.13 319.827 Q1803.37 320.823 1805.84 323.346 Q1808.34 325.846 1808.34 330.059 Q1808.34 335.082 1804.96 337.674 Q1801.61 340.267 1795.1 340.267 Q1792.65 340.267 1789.87 339.711 Q1787.12 339.156 1784.15 338.068 L1784.15 333.253 Q1787 334.85 1789.73 335.661 Q1792.46 336.471 1795.1 336.471 Q1799.11 336.471 1801.28 334.897 Q1803.46 333.323 1803.46 330.406 Q1803.46 327.86 1801.88 326.424 Q1800.33 324.989 1796.77 324.272 L1793.92 323.716 Q1788.69 322.675 1786.35 320.452 Q1784.01 318.23 1784.01 314.272 Q1784.01 309.688 1787.23 307.05 Q1790.47 304.411 1796.14 304.411 Q1798.57 304.411 1801.1 304.851 Q1803.62 305.29 1806.26 306.17 Z" fill="#000000" fill-rule="nonzero" fill-opacity="1" /><path clip-path="url(#clip540)" d="M1820.31 308.878 L1820.31 321.864 L1826.19 321.864 Q1829.45 321.864 1831.24 320.175 Q1833.02 318.485 1833.02 315.36 Q1833.02 312.258 1831.24 310.568 Q1829.45 308.878 1826.19 308.878 L1820.31 308.878 M1815.63 305.036 L1826.19 305.036 Q1832 305.036 1834.96 307.675 Q1837.95 310.29 1837.95 315.36 Q1837.95 320.475 1834.96 323.091 Q1832 325.707 1826.19 325.707 L1820.31 325.707 L1820.31 339.596 L1815.63 339.596 L1815.63 305.036 Z" fill="#000000" fill-rule="nonzero" fill-opacity="1" /><path clip-path="url(#clip540)" d="M1867.79 334.665 L1867.79 325.383 L1860.15 325.383 L1860.15 321.54 L1872.42 321.54 L1872.42 336.378 Q1869.71 338.299 1866.44 339.295 Q1863.18 340.267 1859.48 340.267 Q1851.38 340.267 1846.79 335.545 Q1842.23 330.799 1842.23 322.35 Q1842.23 313.878 1846.79 309.156 Q1851.38 304.411 1859.48 304.411 Q1862.86 304.411 1865.89 305.244 Q1868.94 306.077 1871.51 307.698 L1871.51 312.675 Q1868.92 310.476 1866 309.364 Q1863.09 308.253 1859.87 308.253 Q1853.53 308.253 1850.33 311.795 Q1847.16 315.337 1847.16 322.35 Q1847.16 329.341 1850.33 332.883 Q1853.53 336.424 1859.87 336.424 Q1862.35 336.424 1864.29 336.008 Q1866.24 335.568 1867.79 334.665 Z" fill="#000000" fill-rule="nonzero" fill-opacity="1" /><path clip-path="url(#clip540)" d="M1900.47 347.466 L1900.47 350.776 L1875.84 350.776 L1875.84 347.466 L1900.47 347.466 Z" fill="#000000" fill-rule="nonzero" fill-opacity="1" /><path clip-path="url(#clip540)" d="M1907.02 326.656 Q1907.02 331.355 1908.94 334.04 Q1910.89 336.702 1914.27 336.702 Q1917.65 336.702 1919.59 334.04 Q1921.54 331.355 1921.54 326.656 Q1921.54 321.957 1919.59 319.295 Q1917.65 316.61 1914.27 316.61 Q1910.89 316.61 1908.94 319.295 Q1907.02 321.957 1907.02 326.656 M1921.54 335.707 Q1920.19 338.022 1918.13 339.156 Q1916.1 340.267 1913.23 340.267 Q1908.53 340.267 1905.56 336.517 Q1902.62 332.767 1902.62 326.656 Q1902.62 320.545 1905.56 316.795 Q1908.53 313.045 1913.23 313.045 Q1916.1 313.045 1918.13 314.179 Q1920.19 315.29 1921.54 317.605 L1921.54 313.67 L1925.8 313.67 L1925.8 349.457 L1921.54 349.457 L1921.54 335.707 Z" fill="#000000" fill-rule="nonzero" fill-opacity="1" /><path clip-path="url(#clip540)" d="M1934.13 329.364 L1934.13 313.67 L1938.39 313.67 L1938.39 329.202 Q1938.39 332.883 1939.82 334.735 Q1941.26 336.563 1944.13 336.563 Q1947.58 336.563 1949.57 334.364 Q1951.58 332.165 1951.58 328.369 L1951.58 313.67 L1955.84 313.67 L1955.84 339.596 L1951.58 339.596 L1951.58 335.614 Q1950.03 337.975 1947.97 339.133 Q1945.93 340.267 1943.23 340.267 Q1938.76 340.267 1936.44 337.489 Q1934.13 334.711 1934.13 329.364 M1944.85 313.045 L1944.85 313.045 Z" fill="#000000" fill-rule="nonzero" fill-opacity="1" /><path clip-path="url(#clip540)" d="M1976.4 326.563 Q1971.24 326.563 1969.24 327.744 Q1967.25 328.924 1967.25 331.772 Q1967.25 334.04 1968.74 335.383 Q1970.24 336.702 1972.81 336.702 Q1976.35 336.702 1978.48 334.202 Q1980.63 331.679 1980.63 327.512 L1980.63 326.563 L1976.4 326.563 M1984.89 324.804 L1984.89 339.596 L1980.63 339.596 L1980.63 335.661 Q1979.18 338.022 1977 339.156 Q1974.82 340.267 1971.68 340.267 Q1967.69 340.267 1965.33 338.045 Q1962.99 335.799 1962.99 332.049 Q1962.99 327.674 1965.91 325.452 Q1968.85 323.23 1974.66 323.23 L1980.63 323.23 L1980.63 322.813 Q1980.63 319.874 1978.69 318.276 Q1976.77 316.656 1973.27 316.656 Q1971.05 316.656 1968.94 317.188 Q1966.84 317.721 1964.89 318.786 L1964.89 314.85 Q1967.23 313.948 1969.43 313.508 Q1971.63 313.045 1973.71 313.045 Q1979.34 313.045 1982.12 315.962 Q1984.89 318.878 1984.89 324.804 Z" fill="#000000" fill-rule="nonzero" fill-opacity="1" /><path clip-path="url(#clip540)" d="M2010.19 314.434 L2010.19 318.462 Q2008.39 317.536 2006.44 317.073 Q2004.5 316.61 2002.42 316.61 Q1999.24 316.61 1997.65 317.582 Q1996.07 318.554 1996.07 320.499 Q1996.07 321.98 1997.21 322.837 Q1998.34 323.67 2001.77 324.434 L2003.23 324.758 Q2007.76 325.73 2009.66 327.512 Q2011.58 329.272 2011.58 332.443 Q2011.58 336.054 2008.71 338.161 Q2005.86 340.267 2000.86 340.267 Q1998.78 340.267 1996.51 339.85 Q1994.27 339.457 1991.77 338.647 L1991.77 334.249 Q1994.13 335.475 1996.42 336.1 Q1998.71 336.702 2000.96 336.702 Q2003.97 336.702 2005.59 335.684 Q2007.21 334.642 2007.21 332.767 Q2007.21 331.031 2006.03 330.105 Q2004.87 329.179 2000.91 328.323 L1999.43 327.975 Q1995.47 327.142 1993.71 325.429 Q1991.95 323.693 1991.95 320.684 Q1991.95 317.026 1994.55 315.036 Q1997.14 313.045 2001.91 313.045 Q2004.27 313.045 2006.35 313.392 Q2008.43 313.739 2010.19 314.434 Z" fill="#000000" fill-rule="nonzero" fill-opacity="1" /><path clip-path="url(#clip540)" d="M2018.36 313.67 L2022.62 313.67 L2022.62 339.596 L2018.36 339.596 L2018.36 313.67 M2018.36 303.577 L2022.62 303.577 L2022.62 308.971 L2018.36 308.971 L2018.36 303.577 Z" fill="#000000" fill-rule="nonzero" fill-opacity="1" /><path clip-path="url(#clip540)" d="M2051.24 347.466 L2051.24 350.776 L2026.61 350.776 L2026.61 347.466 L2051.24 347.466 Z" fill="#000000" fill-rule="nonzero" fill-opacity="1" /><path clip-path="url(#clip540)" d="M2076.79 323.948 L2076.79 339.596 L2072.53 339.596 L2072.53 324.087 Q2072.53 320.406 2071.1 318.577 Q2069.66 316.749 2066.79 316.749 Q2063.34 316.749 2061.35 318.948 Q2059.36 321.147 2059.36 324.943 L2059.36 339.596 L2055.08 339.596 L2055.08 313.67 L2059.36 313.67 L2059.36 317.698 Q2060.89 315.36 2062.95 314.202 Q2065.03 313.045 2067.74 313.045 Q2072.21 313.045 2074.5 315.823 Q2076.79 318.577 2076.79 323.948 Z" fill="#000000" fill-rule="nonzero" fill-opacity="1" /><path clip-path="url(#clip540)" d="M2084.85 329.364 L2084.85 313.67 L2089.11 313.67 L2089.11 329.202 Q2089.11 332.883 2090.54 334.735 Q2091.98 336.563 2094.85 336.563 Q2098.29 336.563 2100.29 334.364 Q2102.3 332.165 2102.3 328.369 L2102.3 313.67 L2106.56 313.67 L2106.56 339.596 L2102.3 339.596 L2102.3 335.614 Q2100.75 337.975 2098.69 339.133 Q2096.65 340.267 2093.94 340.267 Q2089.48 340.267 2087.16 337.489 Q2084.85 334.711 2084.85 329.364 M2095.56 313.045 L2095.56 313.045 Z" fill="#000000" fill-rule="nonzero" fill-opacity="1" /><path clip-path="url(#clip540)" d="M2115.33 303.577 L2119.59 303.577 L2119.59 339.596 L2115.33 339.596 L2115.33 303.577 Z" fill="#000000" fill-rule="nonzero" fill-opacity="1" /><path clip-path="url(#clip540)" d="M2148.2 347.466 L2148.2 350.776 L2123.57 350.776 L2123.57 347.466 L2148.2 347.466 Z" fill="#000000" fill-rule="nonzero" fill-opacity="1" /><path clip-path="url(#clip540)" d="M2152.21 303.577 L2156.47 303.577 L2156.47 339.596 L2152.21 339.596 L2152.21 303.577 Z" fill="#000000" fill-rule="nonzero" fill-opacity="1" /><path clip-path="url(#clip540)" d="M2165.38 313.67 L2169.64 313.67 L2169.64 339.596 L2165.38 339.596 L2165.38 313.67 M2165.38 303.577 L2169.64 303.577 L2169.64 308.971 L2165.38 308.971 L2165.38 303.577 Z" fill="#000000" fill-rule="nonzero" fill-opacity="1" /><path clip-path="url(#clip540)" d="M2200.1 323.948 L2200.1 339.596 L2195.84 339.596 L2195.84 324.087 Q2195.84 320.406 2194.41 318.577 Q2192.97 316.749 2190.1 316.749 Q2186.65 316.749 2184.66 318.948 Q2182.67 321.147 2182.67 324.943 L2182.67 339.596 L2178.39 339.596 L2178.39 313.67 L2182.67 313.67 L2182.67 317.698 Q2184.2 315.36 2186.26 314.202 Q2188.34 313.045 2191.05 313.045 Q2195.52 313.045 2197.81 315.823 Q2200.1 318.577 2200.1 323.948 Z" fill="#000000" fill-rule="nonzero" fill-opacity="1" /></svg>
