<?xml version="1.0" encoding="utf-8"?>
<svg xmlns="http://www.w3.org/2000/svg" xmlns:xlink="http://www.w3.org/1999/xlink" width="600" height="400" viewBox="0 0 2400 1600">
<defs>
  <clipPath id="clip490">
    <rect x="0" y="0" width="2400" height="1600"/>
  </clipPath>
</defs>
<path clip-path="url(#clip490)" d="M0 1600 L2400 1600 L2400 0 L0 0  Z" fill="#ffffff" fill-rule="evenodd" fill-opacity="1"/>
<defs>
  <clipPath id="clip491">
    <rect x="480" y="0" width="1681" height="1600"/>
  </clipPath>
</defs>
<path clip-path="url(#clip490)" d="M251.56 1423.18 L2352.76 1423.18 L2352.76 123.472 L251.56 123.472  Z" fill="#ffffff" fill-rule="evenodd" fill-opacity="1"/>
<defs>
  <clipPath id="clip492">
    <rect x="251" y="123" width="2102" height="1301"/>
  </clipPath>
</defs>
<polyline clip-path="url(#clip492)" style="stroke:#000000; stroke-linecap:round; stroke-linejoin:round; stroke-width:2; stroke-opacity:0.1; fill:none" points="309.046,1423.18 309.046,123.472 "/>
<polyline clip-path="url(#clip492)" style="stroke:#000000; stroke-linecap:round; stroke-linejoin:round; stroke-width:2; stroke-opacity:0.1; fill:none" points="804.611,1423.18 804.611,123.472 "/>
<polyline clip-path="url(#clip492)" style="stroke:#000000; stroke-linecap:round; stroke-linejoin:round; stroke-width:2; stroke-opacity:0.1; fill:none" points="1300.18,1423.18 1300.18,123.472 "/>
<polyline clip-path="url(#clip492)" style="stroke:#000000; stroke-linecap:round; stroke-linejoin:round; stroke-width:2; stroke-opacity:0.1; fill:none" points="1795.74,1423.18 1795.74,123.472 "/>
<polyline clip-path="url(#clip492)" style="stroke:#000000; stroke-linecap:round; stroke-linejoin:round; stroke-width:2; stroke-opacity:0.1; fill:none" points="2291.31,1423.18 2291.31,123.472 "/>
<polyline clip-path="url(#clip490)" style="stroke:#000000; stroke-linecap:round; stroke-linejoin:round; stroke-width:4; stroke-opacity:1; fill:none" points="251.56,1423.18 2352.76,1423.18 "/>
<polyline clip-path="url(#clip490)" style="stroke:#000000; stroke-linecap:round; stroke-linejoin:round; stroke-width:4; stroke-opacity:1; fill:none" points="309.046,1423.18 309.046,1404.28 "/>
<polyline clip-path="url(#clip490)" style="stroke:#000000; stroke-linecap:round; stroke-linejoin:round; stroke-width:4; stroke-opacity:1; fill:none" points="804.611,1423.18 804.611,1404.28 "/>
<polyline clip-path="url(#clip490)" style="stroke:#000000; stroke-linecap:round; stroke-linejoin:round; stroke-width:4; stroke-opacity:1; fill:none" points="1300.18,1423.18 1300.18,1404.28 "/>
<polyline clip-path="url(#clip490)" style="stroke:#000000; stroke-linecap:round; stroke-linejoin:round; stroke-width:4; stroke-opacity:1; fill:none" points="1795.74,1423.18 1795.74,1404.28 "/>
<polyline clip-path="url(#clip490)" style="stroke:#000000; stroke-linecap:round; stroke-linejoin:round; stroke-width:4; stroke-opacity:1; fill:none" points="2291.31,1423.18 2291.31,1404.28 "/>
<path clip-path="url(#clip490)" d="M309.046 1454.1 Q305.435 1454.1 303.606 1457.66 Q301.8 1461.2 301.8 1468.33 Q301.8 1475.44 303.606 1479.01 Q305.435 1482.55 309.046 1482.55 Q312.68 1482.55 314.486 1479.01 Q316.314 1475.44 316.314 1468.33 Q316.314 1461.2 314.486 1457.66 Q312.68 1454.1 309.046 1454.1 M309.046 1450.39 Q314.856 1450.39 317.911 1455 Q320.99 1459.58 320.99 1468.33 Q320.99 1477.06 317.911 1481.67 Q314.856 1486.25 309.046 1486.25 Q303.236 1486.25 300.157 1481.67 Q297.101 1477.06 297.101 1468.33 Q297.101 1459.58 300.157 1455 Q303.236 1450.39 309.046 1450.39 Z" fill="#000000" fill-rule="nonzero" fill-opacity="1" /><path clip-path="url(#clip490)" d="M768.303 1481.64 L784.622 1481.64 L784.622 1485.58 L762.678 1485.58 L762.678 1481.64 Q765.34 1478.89 769.923 1474.26 Q774.53 1469.61 775.71 1468.27 Q777.956 1465.74 778.835 1464.01 Q779.738 1462.25 779.738 1460.56 Q779.738 1457.8 777.794 1456.07 Q775.873 1454.33 772.771 1454.33 Q770.572 1454.33 768.118 1455.09 Q765.687 1455.86 762.91 1457.41 L762.91 1452.69 Q765.734 1451.55 768.187 1450.97 Q770.641 1450.39 772.678 1450.39 Q778.048 1450.39 781.243 1453.08 Q784.437 1455.77 784.437 1460.26 Q784.437 1462.39 783.627 1464.31 Q782.84 1466.2 780.734 1468.8 Q780.155 1469.47 777.053 1472.69 Q773.951 1475.88 768.303 1481.64 Z" fill="#000000" fill-rule="nonzero" fill-opacity="1" /><path clip-path="url(#clip490)" d="M794.484 1451.02 L812.84 1451.02 L812.84 1454.96 L798.766 1454.96 L798.766 1463.43 Q799.784 1463.08 800.803 1462.92 Q801.821 1462.73 802.84 1462.73 Q808.627 1462.73 812.007 1465.9 Q815.386 1469.08 815.386 1474.49 Q815.386 1480.07 811.914 1483.17 Q808.442 1486.25 802.122 1486.25 Q799.946 1486.25 797.678 1485.88 Q795.433 1485.51 793.025 1484.77 L793.025 1480.07 Q795.109 1481.2 797.331 1481.76 Q799.553 1482.32 802.03 1482.32 Q806.034 1482.32 808.372 1480.21 Q810.71 1478.1 810.71 1474.49 Q810.71 1470.88 808.372 1468.77 Q806.034 1466.67 802.03 1466.67 Q800.155 1466.67 798.28 1467.08 Q796.428 1467.5 794.484 1468.38 L794.484 1451.02 Z" fill="#000000" fill-rule="nonzero" fill-opacity="1" /><path clip-path="url(#clip490)" d="M834.599 1454.1 Q830.988 1454.1 829.159 1457.66 Q827.354 1461.2 827.354 1468.33 Q827.354 1475.44 829.159 1479.01 Q830.988 1482.55 834.599 1482.55 Q838.233 1482.55 840.039 1479.01 Q841.868 1475.44 841.868 1468.33 Q841.868 1461.2 840.039 1457.66 Q838.233 1454.1 834.599 1454.1 M834.599 1450.39 Q840.409 1450.39 843.465 1455 Q846.543 1459.58 846.543 1468.33 Q846.543 1477.06 843.465 1481.67 Q840.409 1486.25 834.599 1486.25 Q828.789 1486.25 825.71 1481.67 Q822.655 1477.06 822.655 1468.33 Q822.655 1459.58 825.71 1455 Q828.789 1450.39 834.599 1450.39 Z" fill="#000000" fill-rule="nonzero" fill-opacity="1" /><path clip-path="url(#clip490)" d="M1259.79 1451.02 L1278.15 1451.02 L1278.15 1454.96 L1264.08 1454.96 L1264.08 1463.43 Q1265.09 1463.08 1266.11 1462.92 Q1267.13 1462.73 1268.15 1462.73 Q1273.94 1462.73 1277.32 1465.9 Q1280.7 1469.08 1280.7 1474.49 Q1280.7 1480.07 1277.22 1483.17 Q1273.75 1486.25 1267.43 1486.25 Q1265.26 1486.25 1262.99 1485.88 Q1260.74 1485.51 1258.34 1484.77 L1258.34 1480.07 Q1260.42 1481.2 1262.64 1481.76 Q1264.86 1482.32 1267.34 1482.32 Q1271.34 1482.32 1273.68 1480.21 Q1276.02 1478.1 1276.02 1474.49 Q1276.02 1470.88 1273.68 1468.77 Q1271.34 1466.67 1267.34 1466.67 Q1265.47 1466.67 1263.59 1467.08 Q1261.74 1467.5 1259.79 1468.38 L1259.79 1451.02 Z" fill="#000000" fill-rule="nonzero" fill-opacity="1" /><path clip-path="url(#clip490)" d="M1299.91 1454.1 Q1296.3 1454.1 1294.47 1457.66 Q1292.66 1461.2 1292.66 1468.33 Q1292.66 1475.44 1294.47 1479.01 Q1296.3 1482.55 1299.91 1482.55 Q1303.54 1482.55 1305.35 1479.01 Q1307.18 1475.44 1307.18 1468.33 Q1307.18 1461.2 1305.35 1457.66 Q1303.54 1454.1 1299.91 1454.1 M1299.91 1450.39 Q1305.72 1450.39 1308.78 1455 Q1311.85 1459.58 1311.85 1468.33 Q1311.85 1477.06 1308.78 1481.67 Q1305.72 1486.25 1299.91 1486.25 Q1294.1 1486.25 1291.02 1481.67 Q1287.97 1477.06 1287.97 1468.33 Q1287.97 1459.58 1291.02 1455 Q1294.1 1450.39 1299.91 1450.39 Z" fill="#000000" fill-rule="nonzero" fill-opacity="1" /><path clip-path="url(#clip490)" d="M1330.07 1454.1 Q1326.46 1454.1 1324.63 1457.66 Q1322.83 1461.2 1322.83 1468.33 Q1322.83 1475.44 1324.63 1479.01 Q1326.46 1482.55 1330.07 1482.55 Q1333.71 1482.55 1335.51 1479.01 Q1337.34 1475.44 1337.34 1468.33 Q1337.34 1461.2 1335.51 1457.66 Q1333.71 1454.1 1330.07 1454.1 M1330.07 1450.39 Q1335.88 1450.39 1338.94 1455 Q1342.02 1459.58 1342.02 1468.33 Q1342.02 1477.06 1338.94 1481.67 Q1335.88 1486.25 1330.07 1486.25 Q1324.26 1486.25 1321.18 1481.67 Q1318.13 1477.06 1318.13 1468.33 Q1318.13 1459.58 1321.18 1455 Q1324.26 1450.39 1330.07 1450.39 Z" fill="#000000" fill-rule="nonzero" fill-opacity="1" /><path clip-path="url(#clip490)" d="M1754.02 1451.02 L1776.24 1451.02 L1776.24 1453.01 L1763.69 1485.58 L1758.81 1485.58 L1770.61 1454.96 L1754.02 1454.96 L1754.02 1451.02 Z" fill="#000000" fill-rule="nonzero" fill-opacity="1" /><path clip-path="url(#clip490)" d="M1785.41 1451.02 L1803.76 1451.02 L1803.76 1454.96 L1789.69 1454.96 L1789.69 1463.43 Q1790.71 1463.08 1791.72 1462.92 Q1792.74 1462.73 1793.76 1462.73 Q1799.55 1462.73 1802.93 1465.9 Q1806.31 1469.08 1806.31 1474.49 Q1806.31 1480.07 1802.84 1483.17 Q1799.36 1486.25 1793.04 1486.25 Q1790.87 1486.25 1788.6 1485.88 Q1786.35 1485.51 1783.95 1484.77 L1783.95 1480.07 Q1786.03 1481.2 1788.25 1481.76 Q1790.47 1482.32 1792.95 1482.32 Q1796.96 1482.32 1799.29 1480.21 Q1801.63 1478.1 1801.63 1474.49 Q1801.63 1470.88 1799.29 1468.77 Q1796.96 1466.67 1792.95 1466.67 Q1791.08 1466.67 1789.2 1467.08 Q1787.35 1467.5 1785.41 1468.38 L1785.41 1451.02 Z" fill="#000000" fill-rule="nonzero" fill-opacity="1" /><path clip-path="url(#clip490)" d="M1825.52 1454.1 Q1821.91 1454.1 1820.08 1457.66 Q1818.28 1461.2 1818.28 1468.33 Q1818.28 1475.44 1820.08 1479.01 Q1821.91 1482.55 1825.52 1482.55 Q1829.16 1482.55 1830.96 1479.01 Q1832.79 1475.44 1832.79 1468.33 Q1832.79 1461.2 1830.96 1457.66 Q1829.16 1454.1 1825.52 1454.1 M1825.52 1450.39 Q1831.33 1450.39 1834.39 1455 Q1837.47 1459.58 1837.47 1468.33 Q1837.47 1477.06 1834.39 1481.67 Q1831.33 1486.25 1825.52 1486.25 Q1819.71 1486.25 1816.63 1481.67 Q1813.58 1477.06 1813.58 1468.33 Q1813.58 1459.58 1816.63 1455 Q1819.71 1450.39 1825.52 1450.39 Z" fill="#000000" fill-rule="nonzero" fill-opacity="1" /><path clip-path="url(#clip490)" d="M2235.83 1481.64 L2243.47 1481.64 L2243.47 1455.28 L2235.16 1456.95 L2235.16 1452.69 L2243.42 1451.02 L2248.1 1451.02 L2248.1 1481.64 L2255.74 1481.64 L2255.74 1485.58 L2235.83 1485.58 L2235.83 1481.64 Z" fill="#000000" fill-rule="nonzero" fill-opacity="1" /><path clip-path="url(#clip490)" d="M2275.18 1454.1 Q2271.57 1454.1 2269.74 1457.66 Q2267.94 1461.2 2267.94 1468.33 Q2267.94 1475.44 2269.74 1479.01 Q2271.57 1482.55 2275.18 1482.55 Q2278.82 1482.55 2280.62 1479.01 Q2282.45 1475.44 2282.45 1468.33 Q2282.45 1461.2 2280.62 1457.66 Q2278.82 1454.1 2275.18 1454.1 M2275.18 1450.39 Q2280.99 1450.39 2284.05 1455 Q2287.13 1459.58 2287.13 1468.33 Q2287.13 1477.06 2284.05 1481.67 Q2280.99 1486.25 2275.18 1486.25 Q2269.37 1486.25 2266.29 1481.67 Q2263.24 1477.06 2263.24 1468.33 Q2263.24 1459.58 2266.29 1455 Q2269.37 1450.39 2275.18 1450.39 Z" fill="#000000" fill-rule="nonzero" fill-opacity="1" /><path clip-path="url(#clip490)" d="M2305.35 1454.1 Q2301.73 1454.1 2299.91 1457.66 Q2298.1 1461.2 2298.1 1468.33 Q2298.1 1475.44 2299.91 1479.01 Q2301.73 1482.55 2305.35 1482.55 Q2308.98 1482.55 2310.78 1479.01 Q2312.61 1475.44 2312.61 1468.33 Q2312.61 1461.2 2310.78 1457.66 Q2308.98 1454.1 2305.35 1454.1 M2305.35 1450.39 Q2311.16 1450.39 2314.21 1455 Q2317.29 1459.58 2317.29 1468.33 Q2317.29 1477.06 2314.21 1481.67 Q2311.16 1486.25 2305.35 1486.25 Q2299.53 1486.25 2296.46 1481.67 Q2293.4 1477.06 2293.4 1468.33 Q2293.4 1459.58 2296.46 1455 Q2299.53 1450.39 2305.35 1450.39 Z" fill="#000000" fill-rule="nonzero" fill-opacity="1" /><path clip-path="url(#clip490)" d="M2335.51 1454.1 Q2331.9 1454.1 2330.07 1457.66 Q2328.26 1461.2 2328.26 1468.33 Q2328.26 1475.44 2330.07 1479.01 Q2331.9 1482.55 2335.51 1482.55 Q2339.14 1482.55 2340.95 1479.01 Q2342.78 1475.44 2342.78 1468.33 Q2342.78 1461.2 2340.95 1457.66 Q2339.14 1454.1 2335.51 1454.1 M2335.51 1450.39 Q2341.32 1450.39 2344.37 1455 Q2347.45 1459.58 2347.45 1468.33 Q2347.45 1477.06 2344.37 1481.67 Q2341.32 1486.25 2335.51 1486.25 Q2329.7 1486.25 2326.62 1481.67 Q2323.56 1477.06 2323.56 1468.33 Q2323.56 1459.58 2326.62 1455 Q2329.7 1450.39 2335.51 1450.39 Z" fill="#000000" fill-rule="nonzero" fill-opacity="1" /><path clip-path="url(#clip490)" d="M1286.34 1518.52 L1292.23 1518.52 L1292.23 1547.77 L1309.7 1532.4 L1317.18 1532.4 L1298.27 1549.07 L1317.98 1568.04 L1310.34 1568.04 L1292.23 1550.63 L1292.23 1568.04 L1286.34 1568.04 L1286.34 1518.52 Z" fill="#000000" fill-rule="nonzero" fill-opacity="1" /><polyline clip-path="url(#clip492)" style="stroke:#000000; stroke-linecap:round; stroke-linejoin:round; stroke-width:2; stroke-opacity:0.1; fill:none" points="251.56,1171.25 2352.76,1171.25 "/>
<polyline clip-path="url(#clip492)" style="stroke:#000000; stroke-linecap:round; stroke-linejoin:round; stroke-width:2; stroke-opacity:0.1; fill:none" points="251.56,439.468 2352.76,439.468 "/>
<polyline clip-path="url(#clip490)" style="stroke:#000000; stroke-linecap:round; stroke-linejoin:round; stroke-width:4; stroke-opacity:1; fill:none" points="251.56,1423.18 251.56,123.472 "/>
<polyline clip-path="url(#clip490)" style="stroke:#000000; stroke-linecap:round; stroke-linejoin:round; stroke-width:4; stroke-opacity:1; fill:none" points="251.56,1171.25 270.458,1171.25 "/>
<polyline clip-path="url(#clip490)" style="stroke:#000000; stroke-linecap:round; stroke-linejoin:round; stroke-width:4; stroke-opacity:1; fill:none" points="251.56,439.468 270.458,439.468 "/>
<path clip-path="url(#clip490)" d="M114.931 1191.04 L122.57 1191.04 L122.57 1164.67 L114.26 1166.34 L114.26 1162.08 L122.524 1160.41 L127.2 1160.41 L127.2 1191.04 L134.839 1191.04 L134.839 1194.97 L114.931 1194.97 L114.931 1191.04 Z" fill="#000000" fill-rule="nonzero" fill-opacity="1" /><path clip-path="url(#clip490)" d="M154.283 1163.49 Q150.672 1163.49 148.843 1167.06 Q147.038 1170.6 147.038 1177.73 Q147.038 1184.84 148.843 1188.4 Q150.672 1191.94 154.283 1191.94 Q157.917 1191.94 159.723 1188.4 Q161.552 1184.84 161.552 1177.73 Q161.552 1170.6 159.723 1167.06 Q157.917 1163.49 154.283 1163.49 M154.283 1159.79 Q160.093 1159.79 163.149 1164.4 Q166.227 1168.98 166.227 1177.73 Q166.227 1186.46 163.149 1191.06 Q160.093 1195.65 154.283 1195.65 Q148.473 1195.65 145.394 1191.06 Q142.339 1186.46 142.339 1177.73 Q142.339 1168.98 145.394 1164.4 Q148.473 1159.79 154.283 1159.79 Z" fill="#000000" fill-rule="nonzero" fill-opacity="1" /><path clip-path="url(#clip490)" d="M166.227 1153.89 L190.339 1153.89 L190.339 1157.09 L166.227 1157.09 L166.227 1153.89 Z" fill="#000000" fill-rule="nonzero" fill-opacity="1" /><path clip-path="url(#clip490)" d="M198.577 1139.48 L213.491 1139.48 L213.491 1142.68 L202.056 1142.68 L202.056 1149.57 Q202.884 1149.28 203.711 1149.15 Q204.539 1149 205.366 1149 Q210.068 1149 212.814 1151.58 Q215.56 1154.15 215.56 1158.56 Q215.56 1163.09 212.739 1165.61 Q209.918 1168.11 204.783 1168.11 Q203.015 1168.11 201.172 1167.81 Q199.348 1167.51 197.392 1166.91 L197.392 1163.09 Q199.085 1164.01 200.89 1164.46 Q202.696 1164.91 204.708 1164.91 Q207.962 1164.91 209.861 1163.2 Q211.761 1161.49 211.761 1158.56 Q211.761 1155.62 209.861 1153.91 Q207.962 1152.2 204.708 1152.2 Q203.185 1152.2 201.661 1152.54 Q200.157 1152.88 198.577 1153.59 L198.577 1139.48 Z" fill="#000000" fill-rule="nonzero" fill-opacity="1" /><path clip-path="url(#clip490)" d="M144.855 459.26 L152.493 459.26 L152.493 432.895 L144.183 434.561 L144.183 430.302 L152.447 428.635 L157.123 428.635 L157.123 459.26 L164.762 459.26 L164.762 463.195 L144.855 463.195 L144.855 459.26 Z" fill="#000000" fill-rule="nonzero" fill-opacity="1" /><path clip-path="url(#clip490)" d="M184.206 431.714 Q180.595 431.714 178.766 435.279 Q176.961 438.82 176.961 445.95 Q176.961 453.056 178.766 456.621 Q180.595 460.163 184.206 460.163 Q187.84 460.163 189.646 456.621 Q191.475 453.056 191.475 445.95 Q191.475 438.82 189.646 435.279 Q187.84 431.714 184.206 431.714 M184.206 428.01 Q190.016 428.01 193.072 432.617 Q196.151 437.2 196.151 445.95 Q196.151 454.677 193.072 459.283 Q190.016 463.867 184.206 463.867 Q178.396 463.867 175.317 459.283 Q172.262 454.677 172.262 445.95 Q172.262 437.2 175.317 432.617 Q178.396 428.01 184.206 428.01 Z" fill="#000000" fill-rule="nonzero" fill-opacity="1" /><path clip-path="url(#clip490)" d="M205.855 410.206 Q202.921 410.206 201.436 413.103 Q199.969 415.98 199.969 421.773 Q199.969 427.547 201.436 430.443 Q202.921 433.321 205.855 433.321 Q208.808 433.321 210.275 430.443 Q211.761 427.547 211.761 421.773 Q211.761 415.98 210.275 413.103 Q208.808 410.206 205.855 410.206 M205.855 407.197 Q210.576 407.197 213.059 410.94 Q215.56 414.664 215.56 421.773 Q215.56 428.864 213.059 432.606 Q210.576 436.33 205.855 436.33 Q201.135 436.33 198.633 432.606 Q196.151 428.864 196.151 421.773 Q196.151 414.664 198.633 410.94 Q201.135 407.197 205.855 407.197 Z" fill="#000000" fill-rule="nonzero" fill-opacity="1" /><path clip-path="url(#clip490)" d="M45.7664 817.313 Q39.4007 817.313 35.8996 819.955 Q32.3984 822.565 32.3984 827.307 Q32.3984 832.018 35.8996 834.66 Q39.4007 837.27 45.7664 837.27 Q52.1003 837.27 55.6014 834.66 Q59.1026 832.018 59.1026 827.307 Q59.1026 822.565 55.6014 819.955 Q52.1003 817.313 45.7664 817.313 M59.58 811.457 Q68.683 811.457 73.1071 815.499 Q77.5631 819.541 77.5631 827.88 Q77.5631 830.967 77.0857 833.705 Q76.6401 836.442 75.6852 839.02 L69.9879 839.02 Q71.3884 836.442 72.0568 833.928 Q72.7252 831.413 72.7252 828.803 Q72.7252 823.042 69.7015 820.178 Q66.7096 817.313 60.6303 817.313 L57.7339 817.313 Q60.885 819.127 62.4446 821.96 Q64.0042 824.793 64.0042 828.739 Q64.0042 835.296 59.0071 839.307 Q54.01 843.317 45.7664 843.317 Q37.491 843.317 32.4939 839.307 Q27.4968 835.296 27.4968 828.739 Q27.4968 824.793 29.0564 821.96 Q30.616 819.127 33.7671 817.313 L28.3562 817.313 L28.3562 811.457 L59.58 811.457 Z" fill="#000000" fill-rule="nonzero" fill-opacity="1" /><path clip-path="url(#clip490)" d="M33.8307 778.737 Q33.2578 779.724 33.0032 780.901 Q32.7167 782.047 32.7167 783.447 Q32.7167 788.413 35.9632 791.086 Q39.1779 793.728 45.2253 793.728 L64.0042 793.728 L64.0042 799.616 L28.3562 799.616 L28.3562 793.728 L33.8944 793.728 Q30.6479 791.882 29.0883 788.922 Q27.4968 785.962 27.4968 781.729 Q27.4968 781.124 27.5923 780.392 Q27.656 779.66 27.8151 778.769 L33.8307 778.737 Z" fill="#000000" fill-rule="nonzero" fill-opacity="1" /><path clip-path="url(#clip490)" d="M46.0847 756.393 Q46.0847 763.491 47.7079 766.228 Q49.3312 768.965 53.2461 768.965 Q56.3653 768.965 58.2114 766.928 Q60.0256 764.86 60.0256 761.327 Q60.0256 756.457 56.5881 753.529 Q53.1188 750.569 47.3897 750.569 L46.0847 750.569 L46.0847 756.393 M43.6657 744.712 L64.0042 744.712 L64.0042 750.569 L58.5933 750.569 Q61.8398 752.574 63.3994 755.566 Q64.9272 758.558 64.9272 762.886 Q64.9272 768.361 61.8716 771.607 Q58.7843 774.822 53.6281 774.822 Q47.6125 774.822 44.5569 770.812 Q41.5014 766.769 41.5014 758.78 L41.5014 750.569 L40.9285 750.569 Q36.8862 750.569 34.6901 753.242 Q32.4621 755.884 32.4621 760.69 Q32.4621 763.746 33.1941 766.642 Q33.9262 769.538 35.3903 772.212 L29.9795 772.212 Q28.7381 768.997 28.1334 765.974 Q27.4968 762.95 27.4968 760.085 Q27.4968 752.351 31.5072 748.532 Q35.5176 744.712 43.6657 744.712 Z" fill="#000000" fill-rule="nonzero" fill-opacity="1" /><path clip-path="url(#clip490)" d="M33.7671 709.191 L14.479 709.191 L14.479 703.335 L64.0042 703.335 L64.0042 709.191 L58.657 709.191 Q61.8398 711.038 63.3994 713.87 Q64.9272 716.671 64.9272 720.618 Q64.9272 727.079 59.771 731.153 Q54.6147 735.195 46.212 735.195 Q37.8093 735.195 32.6531 731.153 Q27.4968 727.079 27.4968 720.618 Q27.4968 716.671 29.0564 713.87 Q30.5842 711.038 33.7671 709.191 M46.212 729.148 Q52.6732 729.148 56.3653 726.506 Q60.0256 723.833 60.0256 719.186 Q60.0256 714.539 56.3653 711.865 Q52.6732 709.191 46.212 709.191 Q39.7508 709.191 36.0905 711.865 Q32.3984 714.539 32.3984 719.186 Q32.3984 723.833 36.0905 726.506 Q39.7508 729.148 46.212 729.148 Z" fill="#000000" fill-rule="nonzero" fill-opacity="1" /><path clip-path="url(#clip490)" d="M933.425 65.7705 L933.425 89.8329 L925.93 89.8329 L925.93 27.2059 L933.425 27.2059 L933.425 34.0924 Q935.774 30.0415 939.339 28.0971 Q942.944 26.1121 947.927 26.1121 Q956.191 26.1121 961.335 32.6746 Q966.52 39.2371 966.52 49.9314 Q966.52 60.6258 961.335 67.1883 Q956.191 73.7508 947.927 73.7508 Q942.944 73.7508 939.339 71.8063 Q935.774 69.8214 933.425 65.7705 M958.783 49.9314 Q958.783 41.7081 955.38 37.0496 Q952.018 32.3505 946.104 32.3505 Q940.19 32.3505 936.787 37.0496 Q933.425 41.7081 933.425 49.9314 Q933.425 58.1548 936.787 62.8538 Q940.19 67.5124 946.104 67.5124 Q952.018 67.5124 955.38 62.8538 Q958.783 58.1548 958.783 49.9314 Z" fill="#000000" fill-rule="nonzero" fill-opacity="1" /><path clip-path="url(#clip490)" d="M1005.17 34.1734 Q1003.91 33.4443 1002.41 33.1202 Q1000.95 32.7556 999.171 32.7556 Q992.851 32.7556 989.449 36.8875 Q986.086 40.9789 986.086 48.6757 L986.086 72.576 L978.592 72.576 L978.592 27.2059 L986.086 27.2059 L986.086 34.2544 Q988.436 30.1225 992.203 28.1376 Q995.97 26.1121 1001.36 26.1121 Q1002.13 26.1121 1003.06 26.2337 Q1003.99 26.3147 1005.13 26.5172 L1005.17 34.1734 Z" fill="#000000" fill-rule="nonzero" fill-opacity="1" /><path clip-path="url(#clip490)" d="M1028.74 32.4315 Q1022.75 32.4315 1019.26 37.1306 Q1015.78 41.7891 1015.78 49.9314 Q1015.78 58.0738 1019.22 62.7728 Q1022.71 67.4314 1028.74 67.4314 Q1034.7 67.4314 1038.18 62.7323 Q1041.66 58.0333 1041.66 49.9314 Q1041.66 41.8701 1038.18 37.1711 Q1034.7 32.4315 1028.74 32.4315 M1028.74 26.1121 Q1038.46 26.1121 1044.01 32.4315 Q1049.56 38.7509 1049.56 49.9314 Q1049.56 61.0714 1044.01 67.4314 Q1038.46 73.7508 1028.74 73.7508 Q1018.98 73.7508 1013.43 67.4314 Q1007.92 61.0714 1007.92 49.9314 Q1007.92 38.7509 1013.43 32.4315 Q1018.98 26.1121 1028.74 26.1121 Z" fill="#000000" fill-rule="nonzero" fill-opacity="1" /><path clip-path="url(#clip490)" d="M1094.49 49.9314 Q1094.49 41.7081 1091.09 37.0496 Q1087.72 32.3505 1081.81 32.3505 Q1075.89 32.3505 1072.49 37.0496 Q1069.13 41.7081 1069.13 49.9314 Q1069.13 58.1548 1072.49 62.8538 Q1075.89 67.5124 1081.81 67.5124 Q1087.72 67.5124 1091.09 62.8538 Q1094.49 58.1548 1094.49 49.9314 M1069.13 34.0924 Q1071.48 30.0415 1075.04 28.0971 Q1078.65 26.1121 1083.63 26.1121 Q1091.9 26.1121 1097.04 32.6746 Q1102.23 39.2371 1102.23 49.9314 Q1102.23 60.6258 1097.04 67.1883 Q1091.9 73.7508 1083.63 73.7508 Q1078.65 73.7508 1075.04 71.8063 Q1071.48 69.8214 1069.13 65.7705 L1069.13 72.576 L1061.64 72.576 L1061.64 9.54393 L1069.13 9.54393 L1069.13 34.0924 Z" fill="#000000" fill-rule="nonzero" fill-opacity="1" /><path clip-path="url(#clip490)" d="M1114.58 9.54393 L1122.03 9.54393 L1122.03 72.576 L1114.58 72.576 L1114.58 9.54393 Z" fill="#000000" fill-rule="nonzero" fill-opacity="1" /><path clip-path="url(#clip490)" d="M1176.44 48.0275 L1176.44 51.6733 L1142.17 51.6733 Q1142.65 59.3701 1146.79 63.421 Q1150.96 67.4314 1158.37 67.4314 Q1162.67 67.4314 1166.68 66.3781 Q1170.73 65.3249 1174.7 63.2184 L1174.7 70.267 Q1170.69 71.9684 1166.47 72.8596 Q1162.26 73.7508 1157.93 73.7508 Q1147.07 73.7508 1140.71 67.4314 Q1134.39 61.1119 1134.39 50.3365 Q1134.39 39.1965 1140.39 32.6746 Q1146.42 26.1121 1156.63 26.1121 Q1165.78 26.1121 1171.09 32.0264 Q1176.44 37.9003 1176.44 48.0275 M1168.98 45.84 Q1168.9 39.7232 1165.54 36.0774 Q1162.22 32.4315 1156.71 32.4315 Q1150.47 32.4315 1146.7 35.9558 Q1142.98 39.4801 1142.41 45.8805 L1168.98 45.84 M1150.31 6.22219 L1161.73 21.3726 L1155.54 21.3726 L1142.33 6.22219 L1150.31 6.22219 Z" fill="#000000" fill-rule="nonzero" fill-opacity="1" /><path clip-path="url(#clip490)" d="M1224 35.9153 Q1226.79 30.8922 1230.68 28.5022 Q1234.57 26.1121 1239.83 26.1121 Q1246.92 26.1121 1250.77 31.0947 Q1254.62 36.0368 1254.62 45.1919 L1254.62 72.576 L1247.13 72.576 L1247.13 45.4349 Q1247.13 38.913 1244.82 35.7533 Q1242.51 32.5936 1237.77 32.5936 Q1231.98 32.5936 1228.61 36.4419 Q1225.25 40.2903 1225.25 46.9338 L1225.25 72.576 L1217.76 72.576 L1217.76 45.4349 Q1217.76 38.8725 1215.45 35.7533 Q1213.14 32.5936 1208.32 32.5936 Q1202.61 32.5936 1199.24 36.4824 Q1195.88 40.3308 1195.88 46.9338 L1195.88 72.576 L1188.39 72.576 L1188.39 27.2059 L1195.88 27.2059 L1195.88 34.2544 Q1198.43 30.082 1202 28.0971 Q1205.56 26.1121 1210.47 26.1121 Q1215.41 26.1121 1218.85 28.6237 Q1222.34 31.1352 1224 35.9153 Z" fill="#000000" fill-rule="nonzero" fill-opacity="1" /><path clip-path="url(#clip490)" d="M1308.3 48.0275 L1308.3 51.6733 L1274.02 51.6733 Q1274.51 59.3701 1278.64 63.421 Q1282.82 67.4314 1290.23 67.4314 Q1294.52 67.4314 1298.53 66.3781 Q1302.58 65.3249 1306.55 63.2184 L1306.55 70.267 Q1302.54 71.9684 1298.33 72.8596 Q1294.12 73.7508 1289.78 73.7508 Q1278.93 73.7508 1272.57 67.4314 Q1266.25 61.1119 1266.25 50.3365 Q1266.25 39.1965 1272.24 32.6746 Q1278.28 26.1121 1288.49 26.1121 Q1297.64 26.1121 1302.95 32.0264 Q1308.3 37.9003 1308.3 48.0275 M1300.84 45.84 Q1300.76 39.7232 1297.4 36.0774 Q1294.08 32.4315 1288.57 32.4315 Q1282.33 32.4315 1278.56 35.9558 Q1274.83 39.4801 1274.27 45.8805 L1300.84 45.84 Z" fill="#000000" fill-rule="nonzero" fill-opacity="1" /><path clip-path="url(#clip490)" d="M1348.8 62.2867 L1357.35 62.2867 L1357.35 72.576 L1348.8 72.576 L1348.8 62.2867 M1348.8 29.6769 L1357.35 29.6769 L1357.35 39.9662 L1348.8 39.9662 L1348.8 29.6769 Z" fill="#000000" fill-rule="nonzero" fill-opacity="1" /><path clip-path="url(#clip490)" d="M1436.55 35.9153 Q1439.34 30.8922 1443.23 28.5022 Q1447.12 26.1121 1452.39 26.1121 Q1459.47 26.1121 1463.32 31.0947 Q1467.17 36.0368 1467.17 45.1919 L1467.17 72.576 L1459.68 72.576 L1459.68 45.4349 Q1459.68 38.913 1457.37 35.7533 Q1455.06 32.5936 1450.32 32.5936 Q1444.53 32.5936 1441.16 36.4419 Q1437.8 40.2903 1437.8 46.9338 L1437.8 72.576 L1430.31 72.576 L1430.31 45.4349 Q1430.31 38.8725 1428 35.7533 Q1425.69 32.5936 1420.87 32.5936 Q1415.16 32.5936 1411.8 36.4824 Q1408.43 40.3308 1408.43 46.9338 L1408.43 72.576 L1400.94 72.576 L1400.94 27.2059 L1408.43 27.2059 L1408.43 34.2544 Q1410.99 30.082 1414.55 28.0971 Q1418.12 26.1121 1423.02 26.1121 Q1427.96 26.1121 1431.4 28.6237 Q1434.89 31.1352 1436.55 35.9153 Z" fill="#000000" fill-rule="nonzero" fill-opacity="1" /><path clip-path="url(#clip490)" d="M1511.89 49.3643 Q1511.89 41.2625 1508.53 36.8065 Q1505.21 32.3505 1499.17 32.3505 Q1493.18 32.3505 1489.82 36.8065 Q1486.49 41.2625 1486.49 49.3643 Q1486.49 57.4256 1489.82 61.8816 Q1493.18 66.3376 1499.17 66.3376 Q1505.21 66.3376 1508.53 61.8816 Q1511.89 57.4256 1511.89 49.3643 M1519.35 66.9452 Q1519.35 78.5308 1514.2 84.1616 Q1509.06 89.8329 1498.44 89.8329 Q1494.52 89.8329 1491.03 89.2252 Q1487.55 88.6581 1484.27 87.4428 L1484.27 80.1917 Q1487.55 81.9741 1490.75 82.8248 Q1493.95 83.6755 1497.27 83.6755 Q1504.6 83.6755 1508.25 79.8271 Q1511.89 76.0193 1511.89 68.282 L1511.89 64.5957 Q1509.58 68.6061 1505.98 70.5911 Q1502.37 72.576 1497.35 72.576 Q1489.01 72.576 1483.9 66.2161 Q1478.8 59.8562 1478.8 49.3643 Q1478.8 38.832 1483.9 32.472 Q1489.01 26.1121 1497.35 26.1121 Q1502.37 26.1121 1505.98 28.0971 Q1509.58 30.082 1511.89 34.0924 L1511.89 27.2059 L1519.35 27.2059 L1519.35 66.9452 Z" fill="#000000" fill-rule="nonzero" fill-opacity="1" /><path clip-path="url(#clip490)" d="M1572.41 45.1919 L1572.41 72.576 L1564.96 72.576 L1564.96 45.4349 Q1564.96 38.994 1562.45 35.7938 Q1559.94 32.5936 1554.91 32.5936 Q1548.88 32.5936 1545.39 36.4419 Q1541.91 40.2903 1541.91 46.9338 L1541.91 72.576 L1534.42 72.576 L1534.42 9.54393 L1541.91 9.54393 L1541.91 34.2544 Q1544.58 30.163 1548.19 28.1376 Q1551.84 26.1121 1556.58 26.1121 Q1564.39 26.1121 1568.4 30.9732 Q1572.41 35.7938 1572.41 45.1919 Z" fill="#000000" fill-rule="nonzero" fill-opacity="1" /><path clip-path="url(#clip490)" d="M1589.75 65.6895 L1603.12 65.6895 L1603.12 19.5497 L1588.58 22.4663 L1588.58 15.0127 L1603.04 12.096 L1611.22 12.096 L1611.22 65.6895 L1624.59 65.6895 L1624.59 72.576 L1589.75 72.576 L1589.75 65.6895 Z" fill="#000000" fill-rule="nonzero" fill-opacity="1" /><path clip-path="url(#clip490)" d="M1665.91 39.9662 Q1671.78 41.222 1675.06 45.1919 Q1678.39 49.1618 1678.39 54.9951 Q1678.39 63.9476 1672.23 68.8492 Q1666.07 73.7508 1654.73 73.7508 Q1650.92 73.7508 1646.87 72.9811 Q1642.86 72.2519 1638.57 70.7531 L1638.57 62.8538 Q1641.97 64.8388 1646.02 65.8515 Q1650.07 66.8642 1654.49 66.8642 Q1662.18 66.8642 1666.19 63.826 Q1670.24 60.7879 1670.24 54.9951 Q1670.24 49.6479 1666.48 46.6502 Q1662.75 43.612 1656.07 43.612 L1649.02 43.612 L1649.02 36.8875 L1656.39 36.8875 Q1662.43 36.8875 1665.63 34.4975 Q1668.83 32.067 1668.83 27.5299 Q1668.83 22.8714 1665.5 20.4004 Q1662.22 17.8888 1656.07 17.8888 Q1652.7 17.8888 1648.85 18.618 Q1645.01 19.3471 1640.39 20.8865 L1640.39 13.5948 Q1645.05 12.2985 1649.1 11.6504 Q1653.19 11.0023 1656.79 11.0023 Q1666.11 11.0023 1671.54 15.2557 Q1676.97 19.4686 1676.97 26.6793 Q1676.97 31.7024 1674.09 35.1862 Q1671.22 38.6294 1665.91 39.9662 Z" fill="#000000" fill-rule="nonzero" fill-opacity="1" /><polyline clip-path="url(#clip492)" style="stroke:#009af9; stroke-linecap:round; stroke-linejoin:round; stroke-width:4; stroke-opacity:1; fill:none" points="311.028,160.256 313.01,329.015 314.993,461.188 316.975,593.36 318.957,725.533 320.939,725.533 322.922,725.533 324.904,725.533 326.886,725.533 328.868,725.533 330.851,725.533 332.833,814.625 334.815,814.625 336.797,827.291 338.78,844.964 340.762,866.789 342.744,866.789 344.726,870.91 346.709,877.564 348.691,888.892 350.673,907.051 352.656,907.051 354.638,911.18 356.62,917.621 358.602,929.026 360.585,929.026 362.567,931.548 364.549,935.792 366.531,943.611 368.514,943.611 370.496,945.293 372.478,948.27 374.46,953.884 376.443,953.884 378.425,955.068 380.407,957.235 382.389,961.385 384.372,969.052 386.354,969.052 388.336,970.703 390.318,973.624 392.301,979.141 394.283,979.141 396.265,980.305 398.247,982.435 400.23,986.519 402.212,986.519 404.194,987.369 406.177,988.96 408.159,992.042 410.141,997.849 412.123,997.849 414.106,999.078 416.088,1001.32 418.07,1005.6 420.052,1005.6 422.035,1006.49 424.017,1008.16 425.999,1011.38 427.981,1011.38 429.964,1012.04 431.946,1013.31 433.928,1015.77 435.91,1020.46 437.893,1020.46 439.875,1021.44 441.857,1023.26 443.839,1026.77 445.822,1026.77 447.804,1027.5 449.786,1028.87 451.769,1031.55 453.751,1031.55 455.733,1032.09 457.715,1033.14 459.698,1035.2 461.68,1039.15 463.662,1039.15 465.644,1039.97 467.627,1041.51 469.609,1044.5 471.591,1044.5 473.573,1045.11 475.556,1046.28 477.538,1048.57 479.52,1048.57 481.502,1049.04 483.485,1049.94 485.467,1051.71 487.449,1055.13 489.431,1055.13 491.414,1055.84 493.396,1057.18 495.378,1059.78 497.36,1059.78 499.343,1060.32 501.325,1061.34 503.307,1063.35 505.29,1063.35 507.272,1063.76 509.254,1064.55 511.236,1066.11 513.219,1069.13 515.201,1069.13 517.183,1069.75 519.165,1070.94 521.148,1073.26 523.13,1073.26 525.112,1073.73 527.094,1074.64 529.077,1076.43 531.059,1076.43 533.041,1076.8 535.023,1077.51 537.006,1078.9 538.988,1078.9 540.97,1079.19 542.952,1079.74 544.935,1080.83 546.917,1082.98 548.899,1082.98 550.882,1083.41 552.864,1084.26 554.846,1085.92 556.828,1085.92 558.811,1086.26 560.793,1086.91 562.775,1088.21 564.757,1088.21 566.74,1088.47 568.722,1088.99 570.704,1090 572.686,1092 574.669,1092 576.651,1092.41 578.633,1093.19 580.615,1094.74 582.598,1094.74 584.58,1095.06 586.562,1095.67 588.544,1096.89 590.527,1096.89 592.509,1097.13 594.491,1097.61 596.474,1098.57 598.456,1100.43 600.438,1100.43 602.42,1100.82 604.403,1101.55 606.385,1103.01 608.367,1103.01 610.349,1103.31 612.332,1103.88 614.314,1105.02 616.296,1105.02 618.278,1105.25 620.261,1105.71 622.243,1106.6 624.225,1108.36 626.207,1108.36 628.19,1108.72 630.172,1109.42 632.154,1110.79 634.136,1110.79 636.119,1111.07 638.101,1111.62 640.083,1112.69 642.065,1112.69 644.048,1112.91 646.03,1113.34 648.012,1114.19 649.995,1115.86 651.977,1115.86 653.959,1116.19 655.941,1116.85 657.924,1118.16 659.906,1118.16 661.888,1118.42 663.87,1118.94 665.853,1119.96 667.835,1119.96 669.817,1120.17 671.799,1120.57 673.782,1121.38 675.764,1122.96 677.746,1122.96 679.728,1123.28 681.711,1123.91 683.693,1125.15 685.675,1125.15 687.657,1125.4 689.64,1125.89 691.622,1126.87 693.604,1126.87 695.587,1127.06 697.569,1127.45 699.551,1128.22 701.533,1129.73 703.516,1129.73 705.498,1130.04 707.48,1130.64 709.462,1131.82 711.445,1131.82 713.427,1132.06 715.409,1132.53 717.391,1133.46 719.374,1133.46 721.356,1133.65 723.338,1134.02 725.32,1134.75 727.303,1136.2 729.285,1136.2 731.267,1136.49 733.249,1137.06 735.232,1138.2 737.214,1138.2 739.196,1138.43 741.178,1138.88 743.161,1139.77 745.143,1139.77 747.125,1139.95 749.108,1140.3 751.09,1141.01 753.072,1142.39 755.054,1142.39 757.037,1142.68 759.019,1143.23 761.001,1144.31 762.983,1144.31 764.966,1144.53 766.948,1144.97 768.93,1145.82 770.912,1145.82 772.895,1146 774.877,1146.34 776.859,1147.01 778.841,1147.01 780.824,1147.15 782.806,1147.42 784.788,1147.96 786.77,1149.02 788.753,1149.02 790.735,1149.23 792.717,1149.65 794.7,1150.49 796.682,1150.49 798.664,1150.66 800.646,1150.99 802.629,1151.65 804.611,1151.65 806.593,1151.78 808.575,1152.05 810.558,1152.57 812.54,1153.6 814.522,1153.6 816.504,1153.81 818.487,1154.22 820.469,1155.04 822.451,1155.04 824.433,1155.2 826.416,1155.53 828.398,1156.17 830.38,1156.17 832.362,1156.3 834.345,1156.56 836.327,1157.07 838.309,1158.08 840.291,1158.08 842.274,1158.29 844.256,1158.69 846.238,1159.49 848.221,1159.49 850.203,1159.65 852.185,1159.96 854.167,1160.59 856.15,1160.59 858.132,1160.72 860.114,1160.97 862.096,1161.47 864.079,1162.46 866.061,1162.46 868.043,1162.66 870.025,1163.05 872.008,1163.83 873.99,1163.83 875.972,1163.99 877.954,1164.3 879.937,1164.92 881.919,1164.92 883.901,1165.04 885.883,1165.29 887.866,1165.78 889.848,1166.75 891.83,1166.75 893.813,1166.94 895.795,1167.33 897.777,1168.09 899.759,1168.09 901.742,1168.24 903.724,1168.55 905.706,1169.15 907.688,1169.15 909.671,1169.27 911.653,1169.51 913.635,1169.99 915.617,1170.94 917.6,1170.94 919.582,1171.13 921.564,1171.51 923.546,1172.26 925.529,1172.26 927.511,1172.41 929.493,1172.71 931.475,1173.3 933.458,1173.3 935.44,1173.42 937.422,1173.66 939.404,1174.13 941.387,1175.06 943.369,1175.06 945.351,1175.25 947.334,1175.62 949.316,1176.35 951.298,1176.35 953.28,1176.5 955.263,1176.79 957.245,1177.37 959.227,1177.37 961.209,1177.49 963.192,1177.72 965.174,1178.18 967.156,1179.09 969.138,1179.09 971.121,1179.28 973.103,1179.64 975.085,1180.36 977.067,1180.36 979.05,1180.51 981.032,1180.8 983.014,1181.37 984.996,1181.37 986.979,1181.48 988.961,1181.71 990.943,1182.16 992.926,1183.06 994.908,1183.06 996.89,1183.24 998.872,1183.6 1000.85,1184.31 1002.84,1184.31 1004.82,1184.45 1006.8,1184.73 1008.78,1185.29 1010.77,1185.29 1012.75,1185.4 1014.73,1185.63 1016.71,1186.07 1018.69,1186.07 1020.68,1186.16 1022.66,1186.34 1024.64,1186.69 1026.62,1187.4 1028.61,1187.4 1030.59,1187.54 1032.57,1187.82 1034.55,1188.37 1036.54,1188.37 1038.52,1188.48 1040.5,1188.71 1042.48,1189.15 1044.46,1189.15 1046.45,1189.24 1048.43,1189.41 1050.41,1189.76 1052.39,1190.46 1054.38,1190.46 1056.36,1190.6 1058.34,1190.88 1060.32,1191.43 1062.3,1191.43 1064.29,1191.54 1066.27,1191.76 1068.25,1192.2 1070.23,1192.2 1072.22,1192.28 1074.2,1192.46 1076.18,1192.81 1078.16,1193.5 1080.14,1193.5 1082.13,1193.64 1084.11,1193.91 1086.09,1194.46 1088.07,1194.46 1090.06,1194.57 1092.04,1194.79 1094.02,1195.22 1096,1195.22 1097.99,1195.31 1099.97,1195.48 1101.95,1195.83 1103.93,1196.51 1105.91,1196.51 1107.9,1196.65 1109.88,1196.92 1111.86,1197.47 1113.84,1197.47 1115.83,1197.57 1117.81,1197.79 1119.79,1198.22 1121.77,1198.22 1123.75,1198.31 1125.74,1198.48 1127.72,1198.82 1129.7,1199.5 1131.68,1199.5 1133.67,1199.64 1135.65,1199.91 1137.63,1200.45 1139.61,1200.45 1141.6,1200.56 1143.58,1200.77 1145.56,1201.2 1147.54,1201.2 1149.52,1201.29 1151.51,1201.46 1153.49,1201.8 1155.47,1202.47 1157.45,1202.47 1159.44,1202.61 1161.42,1202.88 1163.4,1203.41 1165.38,1203.41 1167.36,1203.52 1169.35,1203.73 1171.33,1204.16 1173.31,1204.16 1175.29,1204.24 1177.28,1204.41 1179.26,1204.75 1181.24,1205.42 1183.22,1205.42 1185.2,1205.55 1187.19,1205.82 1189.17,1206.35 1191.15,1206.35 1193.13,1206.46 1195.12,1206.67 1197.1,1207.09 1199.08,1207.09 1201.06,1207.18 1203.05,1207.34 1205.03,1207.68 1207.01,1208.35 1208.99,1208.35 1210.97,1208.48 1212.96,1208.74 1214.94,1209.27 1216.92,1209.27 1218.9,1209.38 1220.89,1209.59 1222.87,1210.01 1224.85,1210.01 1226.83,1210.09 1228.81,1210.26 1230.8,1210.59 1232.78,1211.25 1234.76,1211.25 1236.74,1211.38 1238.73,1211.65 1240.71,1212.17 1242.69,1212.17 1244.67,1212.28 1246.65,1212.49 1248.64,1212.9 1250.62,1212.9 1252.6,1212.99 1254.58,1213.15 1256.57,1213.48 1258.55,1213.48 1260.53,1213.55 1262.51,1213.68 1264.5,1213.94 1266.48,1214.47 1268.46,1214.47 1270.44,1214.57 1272.42,1214.78 1274.41,1215.2 1276.39,1215.2 1278.37,1215.28 1280.35,1215.45 1282.34,1215.78 1284.32,1215.78 1286.3,1215.84 1288.28,1215.97 1290.26,1216.24 1292.25,1216.76 1294.23,1216.76 1296.21,1216.87 1298.19,1217.08 1300.18,1217.49 1302.16,1217.49 1304.14,1217.57 1306.12,1217.74 1308.1,1218.07 1310.09,1218.07 1312.07,1218.14 1314.05,1218.27 1316.03,1218.53 1318.02,1219.05 1320,1219.05 1321.98,1219.16 1323.96,1219.37 1325.95,1219.78 1327.93,1219.78 1329.91,1219.87 1331.89,1220.03 1333.87,1220.36 1335.86,1220.36 1337.84,1220.43 1339.82,1220.56 1341.8,1220.82 1343.79,1221.35 1345.77,1221.35 1347.75,1221.45 1349.73,1221.66 1351.71,1222.08 1353.7,1222.08 1355.68,1222.16 1357.66,1222.33 1359.64,1222.66 1361.63,1222.66 1363.61,1222.72 1365.59,1222.85 1367.57,1223.12 1369.55,1223.64 1371.54,1223.64 1373.52,1223.74 1375.5,1223.95 1377.48,1224.37 1379.47,1224.37 1381.45,1224.45 1383.43,1224.62 1385.41,1224.95 1387.4,1224.95 1389.38,1225.01 1391.36,1225.15 1393.34,1225.41 1395.32,1225.93 1397.31,1225.93 1399.29,1226.04 1401.27,1226.24 1403.25,1226.66 1405.24,1226.66 1407.22,1226.74 1409.2,1226.91 1411.18,1227.24 1413.16,1227.24 1415.15,1227.3 1417.13,1227.44 1419.11,1227.7 1421.09,1228.22 1423.08,1228.22 1425.06,1228.33 1427.04,1228.53 1429.02,1228.95 1431,1228.95 1432.99,1229.03 1434.97,1229.2 1436.95,1229.53 1438.93,1229.53 1440.92,1229.59 1442.9,1229.73 1444.88,1229.99 1446.86,1230.51 1448.85,1230.51 1450.83,1230.62 1452.81,1230.82 1454.79,1231.24 1456.77,1231.24 1458.76,1231.32 1460.74,1231.49 1462.72,1231.82 1464.7,1231.82 1466.69,1231.88 1468.67,1232.02 1470.65,1232.28 1472.63,1232.8 1474.61,1232.8 1476.6,1232.91 1478.58,1233.11 1480.56,1233.53 1482.54,1233.53 1484.53,1233.61 1486.51,1233.78 1488.49,1234.11 1490.47,1234.11 1492.46,1234.17 1494.44,1234.3 1496.42,1234.57 1498.4,1235.09 1500.38,1235.09 1502.37,1235.19 1504.35,1235.4 1506.33,1235.82 1508.31,1235.82 1510.3,1235.9 1512.28,1236.07 1514.26,1236.4 1516.24,1236.4 1518.22,1236.46 1520.21,1236.59 1522.19,1236.86 1524.17,1236.86 1526.15,1236.91 1528.14,1237.01 1530.12,1237.22 1532.1,1237.64 1534.08,1237.64 1536.06,1237.72 1538.05,1237.89 1540.03,1238.22 1542.01,1238.22 1543.99,1238.29 1545.98,1238.42 1547.96,1238.68 1549.94,1238.68 1551.92,1238.73 1553.91,1238.84 1555.89,1239.05 1557.87,1239.47 1559.85,1239.47 1561.83,1239.55 1563.82,1239.72 1565.8,1240.05 1567.78,1240.05 1569.76,1240.12 1571.75,1240.25 1573.73,1240.52 1575.71,1240.52 1577.69,1240.57 1579.67,1240.67 1581.66,1240.89 1583.64,1241.31 1585.62,1241.31 1587.6,1241.39 1589.59,1241.56 1591.57,1241.89 1593.55,1241.89 1595.53,1241.96 1597.51,1242.09 1599.5,1242.36 1601.48,1242.36 1603.46,1242.41 1605.44,1242.52 1607.43,1242.73 1609.41,1243.15 1611.39,1243.15 1613.37,1243.24 1615.36,1243.4 1617.34,1243.74 1619.32,1243.74 1621.3,1243.81 1623.28,1243.94 1625.27,1244.21 1627.25,1244.21 1629.23,1244.26 1631.21,1244.37 1633.2,1244.58 1635.18,1245.01 1637.16,1245.01 1639.14,1245.09 1641.12,1245.26 1643.11,1245.6 1645.09,1245.6 1647.07,1245.66 1649.05,1245.8 1651.04,1246.07 1653.02,1246.07 1655,1246.12 1656.98,1246.23 1658.96,1246.44 1660.95,1246.87 1662.93,1246.87 1664.91,1246.95 1666.89,1247.12 1668.88,1247.46 1670.86,1247.46 1672.84,1247.53 1674.82,1247.66 1676.81,1247.93 1678.79,1247.93 1680.77,1247.99 1682.75,1248.09 1684.73,1248.31 1686.72,1248.74 1688.7,1248.74 1690.68,1248.82 1692.66,1248.99 1694.65,1249.33 1696.63,1249.33 1698.61,1249.4 1700.59,1249.54 1702.57,1249.81 1704.56,1249.81 1706.54,1249.86 1708.52,1249.97 1710.5,1250.18 1712.49,1250.61 1714.47,1250.61 1716.45,1250.7 1718.43,1250.87 1720.41,1251.21 1722.4,1251.21 1724.38,1251.28 1726.36,1251.42 1728.34,1251.69 1730.33,1251.69 1732.31,1251.74 1734.29,1251.85 1736.27,1252.07 1738.26,1252.5 1740.24,1252.5 1742.22,1252.58 1744.2,1252.76 1746.18,1253.1 1748.17,1253.1 1750.15,1253.17 1752.13,1253.3 1754.11,1253.58 1756.1,1253.58 1758.08,1253.63 1760.06,1253.74 1762.04,1253.96 1764.02,1253.96 1766.01,1254 1767.99,1254.09 1769.97,1254.26 1771.95,1254.61 1773.94,1254.61 1775.92,1254.68 1777.9,1254.81 1779.88,1255.09 1781.87,1255.09 1783.85,1255.14 1785.83,1255.25 1787.81,1255.47 1789.79,1255.47 1791.78,1255.52 1793.76,1255.6 1795.74,1255.78 1797.72,1256.13 1799.71,1256.13 1801.69,1256.2 1803.67,1256.33 1805.65,1256.61 1807.63,1256.61 1809.62,1256.67 1811.6,1256.78 1813.58,1257 1815.56,1257 1817.55,1257.04 1819.53,1257.13 1821.51,1257.31 1823.49,1257.66 1825.47,1257.66 1827.46,1257.73 1829.44,1257.87 1831.42,1258.15 1833.4,1258.15 1835.39,1258.2 1837.37,1258.31 1839.35,1258.54 1841.33,1258.54 1843.32,1258.58 1845.3,1258.67 1847.28,1258.85 1849.26,1259.2 1851.24,1259.2 1853.23,1259.27 1855.21,1259.41 1857.19,1259.69 1859.17,1259.69 1861.16,1259.75 1863.14,1259.86 1865.12,1260.08 1867.1,1260.08 1869.08,1260.13 1871.07,1260.22 1873.05,1260.4 1875.03,1260.75 1877.01,1260.75 1879,1260.83 1880.98,1260.97 1882.96,1261.25 1884.94,1261.25 1886.92,1261.31 1888.91,1261.42 1890.89,1261.65 1892.87,1261.65 1894.85,1261.69 1896.84,1261.78 1898.82,1261.96 1900.8,1262.32 1902.78,1262.32 1904.77,1262.39 1906.75,1262.53 1908.73,1262.82 1910.71,1262.82 1912.69,1262.88 1914.68,1262.99 1916.66,1263.22 1918.64,1263.22 1920.62,1263.26 1922.61,1263.35 1924.59,1263.54 1926.57,1263.9 1928.55,1263.9 1930.53,1263.97 1932.52,1264.11 1934.5,1264.4 1936.48,1264.4 1938.46,1264.46 1940.45,1264.57 1942.43,1264.8 1944.41,1264.8 1946.39,1264.85 1948.37,1264.94 1950.36,1265.12 1952.34,1265.48 1954.32,1265.48 1956.3,1265.56 1958.29,1265.7 1960.27,1265.99 1962.25,1265.99 1964.23,1266.05 1966.22,1266.17 1968.2,1266.4 1970.18,1266.4 1972.16,1266.44 1974.14,1266.53 1976.13,1266.72 1978.11,1267.08 1980.09,1267.08 1982.07,1267.16 1984.06,1267.3 1986.04,1267.6 1988.02,1267.6 1990,1267.65 1991.98,1267.77 1993.97,1268 1995.95,1268 1997.93,1268.05 1999.91,1268.14 2001.9,1268.33 2003.88,1268.69 2005.86,1268.69 2007.84,1268.77 2009.82,1268.92 2011.81,1269.21 2013.79,1269.21 2015.77,1269.27 2017.75,1269.39 2019.74,1269.62 2021.72,1269.62 2023.7,1269.67 2025.68,1269.76 2027.67,1269.95 2029.65,1269.95 2031.63,1269.98 2033.61,1270.06 2035.59,1270.21 2037.58,1270.5 2039.56,1270.5 2041.54,1270.56 2043.52,1270.68 2045.51,1270.92 2047.49,1270.92 2049.47,1270.96 2051.45,1271.06 2053.43,1271.25 2055.42,1271.25 2057.4,1271.28 2059.38,1271.36 2061.36,1271.51 2063.35,1271.81 2065.33,1271.81 2067.31,1271.87 2069.29,1271.99 2071.27,1272.23 2073.26,1272.23 2075.24,1272.27 2077.22,1272.37 2079.2,1272.56 2081.19,1272.56 2083.17,1272.6 2085.15,1272.67 2087.13,1272.82 2089.12,1273.13 2091.1,1273.13 2093.08,1273.19 2095.06,1273.31 2097.04,1273.55 2099.03,1273.55 2101.01,1273.6 2102.99,1273.69 2104.97,1273.88 2106.96,1273.88 2108.94,1273.92 2110.92,1274 2112.9,1274.15 2114.88,1274.46 2116.87,1274.46 2118.85,1274.52 2120.83,1274.64 2122.81,1274.88 2124.8,1274.88 2126.78,1274.93 2128.76,1275.03 2130.74,1275.22 2132.73,1275.22 2134.71,1275.26 2136.69,1275.34 2138.67,1275.49 2140.65,1275.8 2142.64,1275.8 2144.62,1275.86 2146.6,1275.99 2148.58,1276.23 2150.57,1276.23 2152.55,1276.28 2154.53,1276.38 2156.51,1276.58 2158.49,1276.58 2160.48,1276.62 2162.46,1276.69 2164.44,1276.85 2166.42,1277.16 2168.41,1277.16 2170.39,1277.22 2172.37,1277.35 2174.35,1277.59 2176.33,1277.59 2178.32,1277.64 2180.3,1277.74 2182.28,1277.94 2184.26,1277.94 2186.25,1277.98 2188.23,1278.06 2190.21,1278.22 2192.19,1278.53 2194.18,1278.53 2196.16,1278.59 2198.14,1278.72 2200.12,1278.97 2202.1,1278.97 2204.09,1279.02 2206.07,1279.12 2208.05,1279.32 2210.03,1279.32 2212.02,1279.36 2214,1279.44 2215.98,1279.6 2217.96,1279.91 2219.94,1279.91 2221.93,1279.98 2223.91,1280.1 2225.89,1280.36 2227.87,1280.36 2229.86,1280.41 2231.84,1280.51 2233.82,1280.71 2235.8,1280.71 2237.78,1280.75 2239.77,1280.83 2241.75,1280.99 2243.73,1281.31 2245.71,1281.31 2247.7,1281.37 2249.68,1281.5 2251.66,1281.76 2253.64,1281.76 2255.63,1281.81 2257.61,1281.91 2259.59,1282.11 2261.57,1282.11 2263.55,1282.15 2265.54,1282.23 2267.52,1282.4 2269.5,1282.4 2271.48,1282.43 2273.47,1282.49 2275.45,1282.62 2277.43,1282.88 2279.41,1282.88 2281.39,1282.93 2283.38,1283.03 2285.36,1283.24 2287.34,1283.24 2289.32,1283.28 2291.31,1283.36 2293.29,1283.53 "/>
<polyline clip-path="url(#clip492)" style="stroke:#e26f46; stroke-linecap:round; stroke-linejoin:round; stroke-width:4; stroke-opacity:1; fill:none" points="311.028,160.256 313.01,329.015 314.993,461.188 316.975,593.36 318.957,725.533 320.939,857.705 322.922,989.878 324.904,1122.05 326.886,1254.22 328.868,1386.4 "/>
<polyline clip-path="url(#clip492)" style="stroke:#3da44d; stroke-linecap:round; stroke-linejoin:round; stroke-width:4; stroke-opacity:1; fill:none" points="311.028,160.256 313.01,329.015 314.993,461.188 316.975,593.36 318.957,725.533 320.939,725.533 322.922,725.533 324.904,725.533 326.886,725.533 328.868,725.533 330.851,858.166 332.833,858.166 334.815,911.293 336.797,911.293 338.78,918.982 340.762,918.982 342.744,920.372 344.726,922.943 346.709,922.943 348.691,923.448 350.673,924.429 352.656,926.318 354.638,926.318 356.62,926.691 358.602,927.422 360.585,928.844 362.567,928.844 364.549,929.125 366.531,929.681 368.514,930.768 370.496,932.86 372.478,932.86 374.46,933.275 376.443,934.085 378.425,935.659 380.407,935.659 382.389,935.973 384.372,936.588 386.354,937.794 388.336,937.794 390.318,938.035 392.301,938.509 394.283,939.443 396.265,941.258 398.247,941.258 400.23,941.621 402.212,942.33 404.194,943.72 406.177,943.72 408.159,943.998 410.141,944.544 412.123,945.621 414.106,945.621 416.088,945.836 418.07,946.261 420.052,947.102 422.035,948.745 424.017,948.745 425.999,949.075 427.981,949.721 429.964,950.992 431.946,950.992 433.928,951.247 435.91,951.749 437.893,952.741 439.875,952.741 441.857,952.939 443.839,953.332 445.822,954.11 447.804,955.637 449.786,955.637 451.769,955.945 453.751,956.547 455.733,957.735 457.715,957.735 459.698,957.974 461.68,958.445 463.662,959.375 465.644,959.375 467.627,959.562 469.609,959.932 471.591,960.664 473.573,962.105 475.556,962.105 477.538,962.395 479.52,962.965 481.502,964.091 483.485,964.091 485.467,964.317 487.449,964.764 489.431,965.647 491.414,965.647 493.396,965.825 495.378,966.176 497.36,966.873 499.343,968.245 501.325,968.245 503.307,968.522 505.29,969.066 507.272,970.141 509.254,970.141 511.236,970.357 513.219,970.784 515.201,971.629 517.183,971.629 519.165,971.799 521.148,972.135 523.13,972.802 525.112,974.118 527.094,974.118 529.077,974.384 531.059,974.905 533.041,975.937 535.023,975.937 537.006,976.145 538.988,976.555 540.97,977.367 542.952,977.367 544.935,977.53 546.917,977.854 548.899,978.496 550.882,979.762 552.864,979.762 554.846,980.018 556.828,980.521 558.811,981.515 560.793,981.515 562.775,981.715 564.757,982.111 566.74,982.894 568.722,982.894 570.704,983.052 572.686,983.364 574.669,983.983 576.651,985.207 578.633,985.207 580.615,985.454 582.598,985.939 584.58,986.9 586.562,986.9 588.544,987.094 590.527,987.476 592.509,988.234 594.491,988.234 596.474,988.387 598.456,988.688 600.438,989.288 602.42,989.288 604.403,989.408 606.385,989.647 608.367,990.123 610.349,991.064 612.332,991.064 614.314,991.254 616.296,991.628 618.278,992.371 620.261,992.371 622.243,992.52 624.225,992.816 626.207,993.404 628.19,993.404 630.172,993.522 632.154,993.756 634.136,994.222 636.119,995.146 638.101,995.146 640.083,995.332 642.065,995.699 644.048,996.428 646.03,996.428 648.012,996.574 649.995,996.864 651.977,997.441 653.959,997.441 655.941,997.557 657.924,997.787 659.906,998.244 661.888,999.151 663.87,999.151 665.853,999.333 667.835,999.694 669.817,1000.41 671.799,1000.41 673.782,1000.55 675.764,1000.84 677.746,1001.4 679.728,1001.4 681.711,1001.52 683.693,1001.74 685.675,1002.19 687.657,1003.08 689.64,1003.08 691.622,1003.26 693.604,1003.62 695.587,1004.32 697.569,1004.32 699.551,1004.46 701.533,1004.74 703.516,1005.3 705.498,1005.3 707.48,1005.41 709.462,1005.63 711.445,1006.07 713.427,1006.95 715.409,1006.95 717.391,1007.13 719.374,1007.48 721.356,1008.17 723.338,1008.17 725.32,1008.31 727.303,1008.58 729.285,1009.13 731.267,1009.13 733.249,1009.24 735.232,1009.46 737.214,1009.89 739.196,1010.75 741.178,1010.75 743.161,1010.93 745.143,1011.27 747.125,1011.95 749.108,1011.95 751.09,1012.09 753.072,1012.36 755.054,1012.9 757.037,1012.9 759.019,1013.01 761.001,1013.22 762.983,1013.65 764.966,1014.5 766.948,1014.5 768.93,1014.67 770.912,1015 772.895,1015.68 774.877,1015.68 776.859,1015.81 778.841,1016.08 780.824,1016.61 782.806,1016.61 784.788,1016.71 786.77,1016.93 788.753,1017.35 790.735,1018.18 792.717,1018.18 794.7,1018.35 796.682,1018.68 798.664,1019.34 800.646,1019.34 802.629,1019.48 804.611,1019.74 806.593,1020.26 808.575,1020.26 810.558,1020.37 812.54,1020.58 814.522,1020.99 816.504,1021.82 818.487,1021.82 820.469,1021.98 822.451,1022.31 824.433,1022.96 826.416,1022.96 828.398,1023.09 830.38,1023.35 832.362,1023.87 834.345,1023.87 836.327,1023.97 838.309,1024.18 840.291,1024.59 842.274,1024.59 844.256,1024.67 846.238,1024.83 848.221,1025.16 850.203,1025.8 852.185,1025.8 854.167,1025.94 856.15,1026.19 858.132,1026.71 860.114,1026.71 862.096,1026.81 864.079,1027.01 866.061,1027.42 868.043,1027.42 870.025,1027.5 872.008,1027.66 873.99,1027.99 875.972,1028.63 877.954,1028.63 879.937,1028.76 881.919,1029.02 883.901,1029.53 885.883,1029.53 887.866,1029.63 889.848,1029.83 891.83,1030.24 893.813,1030.24 895.795,1030.32 897.777,1030.48 899.759,1030.8 901.742,1031.44 903.724,1031.44 905.706,1031.57 907.688,1031.83 909.671,1032.33 911.653,1032.33 913.635,1032.43 915.617,1032.64 917.6,1033.04 919.582,1033.04 921.564,1033.12 923.546,1033.28 925.529,1033.6 927.511,1034.24 929.493,1034.24 931.475,1034.36 933.458,1034.62 935.44,1035.12 937.422,1035.12 939.404,1035.22 941.387,1035.42 943.369,1035.82 945.351,1035.82 947.334,1035.9 949.316,1036.06 951.298,1036.38 953.28,1037.02 955.263,1037.02 957.245,1037.14 959.227,1037.39 961.209,1037.9 963.192,1037.9 965.174,1038 967.156,1038.2 969.138,1038.6 971.121,1038.6 973.103,1038.68 975.085,1038.83 977.067,1039.15 979.05,1039.78 981.032,1039.78 983.014,1039.91 984.996,1040.16 986.979,1040.66 988.961,1040.66 990.943,1040.76 992.926,1040.96 994.908,1041.35 996.89,1041.35 998.872,1041.43 1000.85,1041.59 1002.84,1041.9 1004.82,1042.53 1006.8,1042.53 1008.78,1042.66 1010.77,1042.91 1012.75,1043.4 1014.73,1043.4 1016.71,1043.5 1018.69,1043.7 1020.68,1044.09 1022.66,1044.09 1024.64,1044.17 1026.62,1044.33 1028.61,1044.64 1030.59,1045.27 1032.57,1045.27 1034.55,1045.39 1036.54,1045.64 1038.52,1046.13 1040.5,1046.13 1042.48,1046.23 1044.46,1046.43 1046.45,1046.82 1048.43,1046.82 1050.41,1046.9 1052.39,1047.06 1054.38,1047.37 1056.36,1047.99 1058.34,1047.99 1060.32,1048.11 1062.3,1048.36 1064.29,1048.85 1066.27,1048.85 1068.25,1048.95 1070.23,1049.15 1072.22,1049.54 1074.2,1049.54 1076.18,1049.62 1078.16,1049.77 1080.14,1050.08 1082.13,1050.7 1084.11,1050.7 1086.09,1050.82 1088.07,1051.07 1090.06,1051.56 1092.04,1051.56 1094.02,1051.66 1096,1051.85 1097.99,1052.24 1099.97,1052.24 1101.95,1052.32 1103.93,1052.47 1105.91,1052.78 1107.9,1052.78 1109.88,1052.85 1111.86,1052.97 1113.84,1053.22 1115.83,1053.71 1117.81,1053.71 1119.79,1053.8 1121.77,1054 1123.75,1054.39 1125.74,1054.39 1127.72,1054.47 1129.7,1054.62 1131.68,1054.93 1133.67,1054.93 1135.65,1054.99 1137.63,1055.12 1139.61,1055.36 1141.6,1055.85 1143.58,1055.85 1145.56,1055.95 1147.54,1056.15 1149.52,1056.54 1151.51,1056.54 1153.49,1056.62 1155.47,1056.77 1157.45,1057.08 1159.44,1057.08 1161.42,1057.14 1163.4,1057.27 1165.38,1057.51 1167.36,1058 1169.35,1058 1171.33,1058.1 1173.31,1058.3 1175.29,1058.69 1177.28,1058.69 1179.26,1058.77 1181.24,1058.92 1183.22,1059.23 1185.2,1059.23 1187.19,1059.3 1189.17,1059.42 1191.15,1059.67 1193.13,1060.16 1195.12,1060.16 1197.1,1060.26 1199.08,1060.45 1201.06,1060.84 1203.05,1060.84 1205.03,1060.92 1207.01,1061.08 1208.99,1061.39 1210.97,1061.39 1212.96,1061.45 1214.94,1061.57 1216.92,1061.82 1218.9,1062.31 1220.89,1062.31 1222.87,1062.41 1224.85,1062.61 1226.83,1063 1228.81,1063 1230.8,1063.08 1232.78,1063.23 1234.76,1063.55 1236.74,1063.55 1238.73,1063.61 1240.71,1063.73 1242.69,1063.98 1244.67,1064.47 1246.65,1064.47 1248.64,1064.57 1250.62,1064.77 1252.6,1065.16 1254.58,1065.16 1256.57,1065.24 1258.55,1065.39 1260.53,1065.7 1262.51,1065.7 1264.5,1065.77 1266.48,1065.89 1268.46,1066.14 1270.44,1066.63 1272.42,1066.63 1274.41,1066.73 1276.39,1066.93 1278.37,1067.32 1280.35,1067.32 1282.34,1067.4 1284.32,1067.56 1286.3,1067.87 1288.28,1067.87 1290.26,1067.93 1292.25,1068.05 1294.23,1068.3 1296.21,1068.8 1298.19,1068.8 1300.18,1068.89 1302.16,1069.09 1304.14,1069.48 1306.12,1069.48 1308.1,1069.56 1310.09,1069.72 1312.07,1070.03 1314.05,1070.03 1316.03,1070.09 1318.02,1070.22 1320,1070.47 1321.98,1070.96 1323.96,1070.96 1325.95,1071.06 1327.93,1071.26 1329.91,1071.65 1331.89,1071.65 1333.87,1071.73 1335.86,1071.89 1337.84,1072.2 1339.82,1072.2 1341.8,1072.26 1343.79,1072.38 1345.77,1072.63 1347.75,1072.63 1349.73,1072.68 1351.71,1072.78 1353.7,1072.98 1355.68,1073.38 1357.66,1073.38 1359.64,1073.45 1361.63,1073.61 1363.61,1073.93 1365.59,1073.93 1367.57,1073.99 1369.55,1074.11 1371.54,1074.36 1373.52,1074.36 1375.5,1074.41 1377.48,1074.51 1379.47,1074.71 1381.45,1075.11 1383.43,1075.11 1385.41,1075.19 1387.4,1075.35 1389.38,1075.66 1391.36,1075.66 1393.34,1075.73 1395.32,1075.85 1397.31,1076.11 1399.29,1076.11 1401.27,1076.16 1403.25,1076.26 1405.24,1076.46 1407.22,1076.86 1409.2,1076.86 1411.18,1076.94 1413.16,1077.1 1415.15,1077.41 1417.13,1077.41 1419.11,1077.48 1421.09,1077.6 1423.08,1077.86 1425.06,1077.86 1427.04,1077.91 1429.02,1078.01 1431,1078.21 1432.99,1078.61 1434.97,1078.61 1436.95,1078.69 1438.93,1078.85 1440.92,1079.17 1442.9,1079.17 1444.88,1079.23 1446.86,1079.36 1448.85,1079.62 1450.83,1079.62 1452.81,1079.67 1454.79,1079.77 1456.77,1079.97 1458.76,1080.37 1460.74,1080.37 1462.72,1080.45 1464.7,1080.62 1466.69,1080.94 1468.67,1080.94 1470.65,1081 1472.63,1081.13 1474.61,1081.38 1476.6,1081.38 1478.58,1081.44 1480.56,1081.54 1482.54,1081.74 1484.53,1082.15 1486.51,1082.15 1488.49,1082.23 1490.47,1082.39 1492.46,1082.71 1494.44,1082.71 1496.42,1082.78 1498.4,1082.91 1500.38,1083.16 1502.37,1083.16 1504.35,1083.21 1506.33,1083.32 1508.31,1083.52 1510.3,1083.93 1512.28,1083.93 1514.26,1084.01 1516.24,1084.17 1518.22,1084.5 1520.21,1084.5 1522.19,1084.56 1524.17,1084.69 1526.15,1084.95 1528.14,1084.95 1530.12,1085 1532.1,1085.1 1534.08,1085.31 1536.06,1085.72 1538.05,1085.72 1540.03,1085.8 1542.01,1085.96 1543.99,1086.29 1545.98,1086.29 1547.96,1086.36 1549.94,1086.49 1551.92,1086.74 1553.91,1086.74 1555.89,1086.8 1557.87,1086.9 1559.85,1087.11 1561.83,1087.52 1563.82,1087.52 1565.8,1087.6 1567.78,1087.77 1569.76,1088.09 1571.75,1088.09 1573.73,1088.16 1575.71,1088.29 1577.69,1088.55 1579.67,1088.55 1581.66,1088.6 1583.64,1088.71 1585.62,1088.91 1587.6,1089.33 1589.59,1089.33 1591.57,1089.41 1593.55,1089.57 1595.53,1089.9 1597.51,1089.9 1599.5,1089.97 1601.48,1090.1 1603.46,1090.36 1605.44,1090.36 1607.43,1090.41 1609.41,1090.52 1611.39,1090.73 1613.37,1090.73 1615.36,1090.77 1617.34,1090.85 1619.32,1091.02 1621.3,1091.35 1623.28,1091.35 1625.27,1091.42 1627.25,1091.55 1629.23,1091.81 1631.21,1091.81 1633.2,1091.87 1635.18,1091.97 1637.16,1092.18 1639.14,1092.18 1641.12,1092.22 1643.11,1092.31 1645.09,1092.48 1647.07,1092.81 1649.05,1092.81 1651.04,1092.88 1653.02,1093.01 1655,1093.28 1656.98,1093.28 1658.96,1093.33 1660.95,1093.44 1662.93,1093.65 1664.91,1093.65 1666.89,1093.69 1668.88,1093.78 1670.86,1093.95 1672.84,1094.28 1674.82,1094.28 1676.81,1094.35 1678.79,1094.49 1680.77,1094.75 1682.75,1094.75 1684.73,1094.81 1686.72,1094.91 1688.7,1095.13 1690.68,1095.13 1692.66,1095.17 1694.65,1095.26 1696.63,1095.43 1698.61,1095.77 1700.59,1095.77 1702.57,1095.84 1704.56,1095.97 1706.54,1096.24 1708.52,1096.24 1710.5,1096.3 1712.49,1096.4 1714.47,1096.62 1716.45,1096.62 1718.43,1096.66 1720.41,1096.75 1722.4,1096.92 1724.38,1097.26 1726.36,1097.26 1728.34,1097.33 1730.33,1097.47 1732.31,1097.74 1734.29,1097.74 1736.27,1097.8 1738.26,1097.91 1740.24,1098.12 1742.22,1098.12 1744.2,1098.17 1746.18,1098.25 1748.17,1098.43 1750.15,1098.77 1752.13,1098.77 1754.11,1098.84 1756.1,1098.98 1758.08,1099.25 1760.06,1099.25 1762.04,1099.31 1764.02,1099.42 1766.01,1099.64 1767.99,1099.64 1769.97,1099.68 1771.95,1099.77 1773.94,1099.94 1775.92,1100.29 1777.9,1100.29 1779.88,1100.36 1781.87,1100.5 1783.85,1100.78 1785.83,1100.78 1787.81,1100.83 1789.79,1100.94 1791.78,1101.17 1793.76,1101.17 1795.74,1101.21 1797.72,1101.3 1799.71,1101.47 1801.69,1101.82 1803.67,1101.82 1805.65,1101.9 1807.63,1102.04 1809.62,1102.31 1811.6,1102.31 1813.58,1102.37 1815.56,1102.48 1817.55,1102.7 1819.53,1102.7 1821.51,1102.75 1823.49,1102.84 1825.47,1103.02 1827.46,1103.37 1829.44,1103.37 1831.42,1103.44 1833.4,1103.58 1835.39,1103.86 1837.37,1103.86 1839.35,1103.92 1841.33,1104.03 1843.32,1104.25 1845.3,1104.25 1847.28,1104.3 1849.26,1104.39 1851.24,1104.57 1853.23,1104.57 1855.21,1104.6 1857.19,1104.67 1859.17,1104.82 1861.16,1105.1 1863.14,1105.1 1865.12,1105.16 1867.1,1105.27 1869.08,1105.5 1871.07,1105.5 1873.05,1105.54 1875.03,1105.63 1877.01,1105.82 1879,1105.82 1880.98,1105.85 1882.96,1105.92 1884.94,1106.07 1886.92,1106.36 1888.91,1106.36 1890.89,1106.41 1892.87,1106.53 1894.85,1106.76 1896.84,1106.76 1898.82,1106.8 1900.8,1106.89 1902.78,1107.08 1904.77,1107.08 1906.75,1107.11 1908.73,1107.19 1910.71,1107.33 1912.69,1107.62 1914.68,1107.62 1916.66,1107.68 1918.64,1107.8 1920.62,1108.03 1922.61,1108.03 1924.59,1108.07 1926.57,1108.17 1928.55,1108.35 1930.53,1108.35 1932.52,1108.39 1934.5,1108.46 1936.48,1108.61 1938.46,1108.9 1940.45,1108.9 1942.43,1108.96 1944.41,1109.08 1946.39,1109.31 1948.37,1109.31 1950.36,1109.36 1952.34,1109.45 1954.32,1109.64 1956.3,1109.64 1958.29,1109.67 1960.27,1109.75 1962.25,1109.9 1964.23,1110.19 1966.22,1110.19 1968.2,1110.25 1970.18,1110.37 1972.16,1110.61 1974.14,1110.61 1976.13,1110.66 1978.11,1110.75 1980.09,1110.94 1982.07,1110.94 1984.06,1110.98 1986.04,1111.05 1988.02,1111.2 1990,1111.5 1991.98,1111.5 1993.97,1111.56 1995.95,1111.68 1997.93,1111.92 1999.91,1111.92 2001.9,1111.97 2003.88,1112.06 2005.86,1112.25 2007.84,1112.25 2009.82,1112.29 2011.81,1112.37 2013.79,1112.52 2015.77,1112.82 2017.75,1112.82 2019.74,1112.88 2021.72,1113 2023.7,1113.24 2025.68,1113.24 2027.67,1113.29 2029.65,1113.39 2031.63,1113.58 2033.61,1113.58 2035.59,1113.62 2037.58,1113.69 2039.56,1113.85 2041.54,1114.15 2043.52,1114.15 2045.51,1114.21 2047.49,1114.33 2049.47,1114.58 2051.45,1114.58 2053.43,1114.63 2055.42,1114.72 2057.4,1114.92 2059.38,1114.92 2061.36,1114.96 2063.35,1115.03 2065.33,1115.19 2067.31,1115.5 2069.29,1115.5 2071.27,1115.56 2073.26,1115.68 2075.24,1115.93 2077.22,1115.93 2079.2,1115.98 2081.19,1116.07 2083.17,1116.27 2085.15,1116.27 2087.13,1116.31 2089.12,1116.39 2091.1,1116.54 2093.08,1116.54 2095.06,1116.57 2097.04,1116.64 2099.03,1116.76 2101.01,1117.01 2102.99,1117.01 2104.97,1117.06 2106.96,1117.16 2108.94,1117.36 2110.92,1117.36 2112.9,1117.4 2114.88,1117.48 2116.87,1117.63 2118.85,1117.63 2120.83,1117.67 2122.81,1117.73 2124.8,1117.85 2126.78,1118.11 2128.76,1118.11 2130.74,1118.16 2132.73,1118.26 2134.71,1118.46 2136.69,1118.46 2138.67,1118.5 2140.65,1118.58 2142.64,1118.74 2144.62,1118.74 2146.6,1118.77 2148.58,1118.83 2150.57,1118.96 2152.55,1119.22 2154.53,1119.22 2156.51,1119.27 2158.49,1119.37 2160.48,1119.57 2162.46,1119.57 2164.44,1119.61 2166.42,1119.69 2168.41,1119.86 2170.39,1119.86 2172.37,1119.89 2174.35,1119.95 2176.33,1120.08 2178.32,1120.34 2180.3,1120.34 2182.28,1120.39 2184.26,1120.49 2186.25,1120.7 2188.23,1120.7 2190.21,1120.74 2192.19,1120.82 2194.18,1120.99 2196.16,1120.99 2198.14,1121.02 2200.12,1121.08 2202.1,1121.22 2204.09,1121.48 2206.07,1121.48 2208.05,1121.53 2210.03,1121.63 2212.02,1121.84 2214,1121.84 2215.98,1121.88 2217.96,1121.97 2219.94,1122.13 2221.93,1122.13 2223.91,1122.16 2225.89,1122.23 2227.87,1122.36 2229.86,1122.63 2231.84,1122.63 2233.82,1122.68 2235.8,1122.78 2237.78,1123 2239.77,1123 2241.75,1123.04 2243.73,1123.12 2245.71,1123.29 2247.7,1123.29 2249.68,1123.32 2251.66,1123.39 2253.64,1123.52 2255.63,1123.79 2257.61,1123.79 2259.59,1123.84 2261.57,1123.95 2263.55,1124.16 2265.54,1124.16 2267.52,1124.21 2269.5,1124.29 2271.48,1124.46 2273.47,1124.46 2275.45,1124.49 2277.43,1124.56 2279.41,1124.7 2281.39,1124.97 2283.38,1124.97 2285.36,1125.02 2287.34,1125.13 2289.32,1125.34 2291.31,1125.34 2293.29,1125.39 "/>
<polyline clip-path="url(#clip492)" style="stroke:#c271d2; stroke-linecap:round; stroke-linejoin:round; stroke-width:4; stroke-opacity:1; fill:none" points="311.028,160.256 313.01,329.015 314.993,461.188 316.975,593.36 318.957,725.533 320.939,857.705 322.922,989.878 324.904,1122.05 326.886,1254.22 328.868,1386.4 "/>
<polyline clip-path="url(#clip492)" style="stroke:#ac8d18; stroke-linecap:round; stroke-linejoin:round; stroke-width:4; stroke-opacity:1; fill:none" points="311.028,160.256 313.01,329.015 314.993,461.188 316.975,593.36 318.957,725.533 320.939,857.705 322.922,989.878 324.904,1122.05 326.886,1254.22 328.868,1386.4 "/>
<path clip-path="url(#clip490)" d="M1749.5 477.836 L2282.72 477.836 L2282.72 166.796 L1749.5 166.796  Z" fill="#ffffff" fill-rule="evenodd" fill-opacity="1"/>
<polyline clip-path="url(#clip490)" style="stroke:#000000; stroke-linecap:round; stroke-linejoin:round; stroke-width:4; stroke-opacity:1; fill:none" points="1749.5,477.836 2282.72,477.836 2282.72,166.796 1749.5,166.796 1749.5,477.836 "/>
<polyline clip-path="url(#clip490)" style="stroke:#009af9; stroke-linecap:round; stroke-linejoin:round; stroke-width:4; stroke-opacity:1; fill:none" points="1772.84,218.636 1912.92,218.636 "/>
<path clip-path="url(#clip490)" d="M1936.27 201.356 L1940.95 201.356 L1940.95 231.981 L1957.77 231.981 L1957.77 235.916 L1936.27 235.916 L1936.27 201.356 Z" fill="#000000" fill-rule="nonzero" fill-opacity="1" /><path clip-path="url(#clip490)" d="M1962.68 201.356 L1969.65 201.356 L1978.47 224.874 L1987.33 201.356 L1994.3 201.356 L1994.3 235.916 L1989.74 235.916 L1989.74 205.569 L1980.83 229.272 L1976.13 229.272 L1967.22 205.569 L1967.22 235.916 L1962.68 235.916 L1962.68 201.356 Z" fill="#000000" fill-rule="nonzero" fill-opacity="1" /><path clip-path="url(#clip490)" d="M2023.1 243.786 L2023.1 247.096 L1998.47 247.096 L1998.47 243.786 L2023.1 243.786 Z" fill="#000000" fill-rule="nonzero" fill-opacity="1" /><path clip-path="url(#clip490)" d="M2048 202.49 L2048 207.05 Q2045.34 205.777 2042.98 205.152 Q2040.62 204.527 2038.42 204.527 Q2034.6 204.527 2032.52 206.008 Q2030.46 207.49 2030.46 210.221 Q2030.46 212.513 2031.82 213.694 Q2033.21 214.851 2037.06 215.569 L2039.88 216.147 Q2045.11 217.143 2047.59 219.666 Q2050.09 222.166 2050.09 226.379 Q2050.09 231.402 2046.71 233.994 Q2043.35 236.587 2036.85 236.587 Q2034.39 236.587 2031.62 236.031 Q2028.86 235.476 2025.9 234.388 L2025.9 229.573 Q2028.75 231.17 2031.48 231.981 Q2034.21 232.791 2036.85 232.791 Q2040.85 232.791 2043.03 231.217 Q2045.2 229.643 2045.2 226.726 Q2045.2 224.18 2043.63 222.744 Q2042.08 221.309 2038.51 220.592 L2035.67 220.036 Q2030.44 218.995 2028.1 216.772 Q2025.76 214.55 2025.76 210.592 Q2025.76 206.008 2028.98 203.37 Q2032.22 200.731 2037.89 200.731 Q2040.32 200.731 2042.84 201.171 Q2045.37 201.61 2048 202.49 Z" fill="#000000" fill-rule="nonzero" fill-opacity="1" /><path clip-path="url(#clip490)" d="M2062.06 205.198 L2062.06 218.184 L2067.94 218.184 Q2071.2 218.184 2072.98 216.495 Q2074.76 214.805 2074.76 211.68 Q2074.76 208.578 2072.98 206.888 Q2071.2 205.198 2067.94 205.198 L2062.06 205.198 M2057.38 201.356 L2067.94 201.356 Q2073.75 201.356 2076.71 203.995 Q2079.69 206.61 2079.69 211.68 Q2079.69 216.795 2076.71 219.411 Q2073.75 222.027 2067.94 222.027 L2062.06 222.027 L2062.06 235.916 L2057.38 235.916 L2057.38 201.356 Z" fill="#000000" fill-rule="nonzero" fill-opacity="1" /><path clip-path="url(#clip490)" d="M2109.53 230.985 L2109.53 221.703 L2101.89 221.703 L2101.89 217.86 L2114.16 217.86 L2114.16 232.698 Q2111.45 234.619 2108.19 235.615 Q2104.93 236.587 2101.22 236.587 Q2093.12 236.587 2088.54 231.865 Q2083.98 227.119 2083.98 218.67 Q2083.98 210.198 2088.54 205.476 Q2093.12 200.731 2101.22 200.731 Q2104.6 200.731 2107.63 201.564 Q2110.69 202.397 2113.26 204.018 L2113.26 208.995 Q2110.67 206.796 2107.75 205.684 Q2104.83 204.573 2101.62 204.573 Q2095.27 204.573 2092.08 208.115 Q2088.91 211.657 2088.91 218.67 Q2088.91 225.661 2092.08 229.203 Q2095.27 232.744 2101.62 232.744 Q2104.09 232.744 2106.04 232.328 Q2107.98 231.888 2109.53 230.985 Z" fill="#000000" fill-rule="nonzero" fill-opacity="1" /><polyline clip-path="url(#clip490)" style="stroke:#e26f46; stroke-linecap:round; stroke-linejoin:round; stroke-width:4; stroke-opacity:1; fill:none" points="1772.84,270.476 1912.92,270.476 "/>
<path clip-path="url(#clip490)" d="M1936.27 253.196 L1940.95 253.196 L1940.95 283.821 L1957.77 283.821 L1957.77 287.756 L1936.27 287.756 L1936.27 253.196 Z" fill="#000000" fill-rule="nonzero" fill-opacity="1" /><path clip-path="url(#clip490)" d="M1962.68 253.196 L1969.65 253.196 L1978.47 276.714 L1987.33 253.196 L1994.3 253.196 L1994.3 287.756 L1989.74 287.756 L1989.74 257.409 L1980.83 281.112 L1976.13 281.112 L1967.22 257.409 L1967.22 287.756 L1962.68 287.756 L1962.68 253.196 Z" fill="#000000" fill-rule="nonzero" fill-opacity="1" /><path clip-path="url(#clip490)" d="M2023.1 295.626 L2023.1 298.936 L1998.47 298.936 L1998.47 295.626 L2023.1 295.626 Z" fill="#000000" fill-rule="nonzero" fill-opacity="1" /><path clip-path="url(#clip490)" d="M2038.84 257.802 L2032.5 275.001 L2045.2 275.001 L2038.84 257.802 M2036.2 253.196 L2041.5 253.196 L2054.67 287.756 L2049.81 287.756 L2046.66 278.89 L2031.08 278.89 L2027.94 287.756 L2023 287.756 L2036.2 253.196 Z" fill="#000000" fill-rule="nonzero" fill-opacity="1" /><path clip-path="url(#clip490)" d="M2081.08 272.108 L2081.08 287.756 L2076.82 287.756 L2076.82 272.247 Q2076.82 268.566 2075.39 266.737 Q2073.95 264.909 2071.08 264.909 Q2067.63 264.909 2065.64 267.108 Q2063.65 269.307 2063.65 273.103 L2063.65 287.756 L2059.37 287.756 L2059.37 261.83 L2063.65 261.83 L2063.65 265.858 Q2065.18 263.52 2067.24 262.362 Q2069.32 261.205 2072.03 261.205 Q2076.5 261.205 2078.79 263.983 Q2081.08 266.737 2081.08 272.108 Z" fill="#000000" fill-rule="nonzero" fill-opacity="1" /><path clip-path="url(#clip490)" d="M2106.64 265.765 L2106.64 251.737 L2110.9 251.737 L2110.9 287.756 L2106.64 287.756 L2106.64 283.867 Q2105.3 286.182 2103.24 287.316 Q2101.2 288.427 2098.33 288.427 Q2093.63 288.427 2090.67 284.677 Q2087.73 280.927 2087.73 274.816 Q2087.73 268.705 2090.67 264.955 Q2093.63 261.205 2098.33 261.205 Q2101.2 261.205 2103.24 262.339 Q2105.3 263.45 2106.64 265.765 M2092.12 274.816 Q2092.12 279.515 2094.05 282.2 Q2095.99 284.862 2099.37 284.862 Q2102.75 284.862 2104.69 282.2 Q2106.64 279.515 2106.64 274.816 Q2106.64 270.117 2104.69 267.455 Q2102.75 264.77 2099.37 264.77 Q2095.99 264.77 2094.05 267.455 Q2092.12 270.117 2092.12 274.816 Z" fill="#000000" fill-rule="nonzero" fill-opacity="1" /><path clip-path="url(#clip490)" d="M2134.69 265.811 Q2133.98 265.395 2133.12 265.21 Q2132.29 265.001 2131.27 265.001 Q2127.66 265.001 2125.71 267.362 Q2123.79 269.7 2123.79 274.098 L2123.79 287.756 L2119.51 287.756 L2119.51 261.83 L2123.79 261.83 L2123.79 265.858 Q2125.13 263.497 2127.29 262.362 Q2129.44 261.205 2132.52 261.205 Q2132.96 261.205 2133.49 261.274 Q2134.02 261.321 2134.67 261.436 L2134.69 265.811 Z" fill="#000000" fill-rule="nonzero" fill-opacity="1" /><path clip-path="url(#clip490)" d="M2160.3 273.728 L2160.3 275.811 L2140.71 275.811 Q2140.99 280.209 2143.35 282.524 Q2145.74 284.816 2149.97 284.816 Q2152.43 284.816 2154.72 284.214 Q2157.03 283.612 2159.3 282.409 L2159.3 286.436 Q2157.01 287.408 2154.6 287.918 Q2152.19 288.427 2149.72 288.427 Q2143.51 288.427 2139.88 284.816 Q2136.27 281.205 2136.27 275.047 Q2136.27 268.682 2139.69 264.955 Q2143.14 261.205 2148.98 261.205 Q2154.21 261.205 2157.24 264.585 Q2160.3 267.941 2160.3 273.728 M2156.04 272.478 Q2155.99 268.983 2154.07 266.899 Q2152.17 264.816 2149.02 264.816 Q2145.46 264.816 2143.31 266.83 Q2141.18 268.844 2140.85 272.501 L2156.04 272.478 Z" fill="#000000" fill-rule="nonzero" fill-opacity="1" /><path clip-path="url(#clip490)" d="M2167.29 261.83 L2171.55 261.83 L2171.55 287.756 L2167.29 287.756 L2167.29 261.83 M2167.29 251.737 L2171.55 251.737 L2171.55 257.131 L2167.29 257.131 L2167.29 251.737 Z" fill="#000000" fill-rule="nonzero" fill-opacity="1" /><path clip-path="url(#clip490)" d="M2200.16 295.626 L2200.16 298.936 L2175.53 298.936 L2175.53 295.626 L2200.16 295.626 Z" fill="#000000" fill-rule="nonzero" fill-opacity="1" /><path clip-path="url(#clip490)" d="M2215.94 274.723 Q2210.78 274.723 2208.79 275.904 Q2206.8 277.084 2206.8 279.932 Q2206.8 282.2 2208.28 283.543 Q2209.79 284.862 2212.36 284.862 Q2215.9 284.862 2218.03 282.362 Q2220.18 279.839 2220.18 275.672 L2220.18 274.723 L2215.94 274.723 M2224.44 272.964 L2224.44 287.756 L2220.18 287.756 L2220.18 283.821 Q2218.72 286.182 2216.55 287.316 Q2214.37 288.427 2211.22 288.427 Q2207.24 288.427 2204.88 286.205 Q2202.54 283.959 2202.54 280.209 Q2202.54 275.834 2205.46 273.612 Q2208.4 271.39 2214.21 271.39 L2220.18 271.39 L2220.18 270.973 Q2220.18 268.034 2218.24 266.436 Q2216.31 264.816 2212.82 264.816 Q2210.6 264.816 2208.49 265.348 Q2206.38 265.881 2204.44 266.946 L2204.44 263.01 Q2206.78 262.108 2208.98 261.668 Q2211.18 261.205 2213.26 261.205 Q2218.88 261.205 2221.66 264.122 Q2224.44 267.038 2224.44 272.964 Z" fill="#000000" fill-rule="nonzero" fill-opacity="1" /><path clip-path="url(#clip490)" d="M2233.21 251.737 L2237.47 251.737 L2237.47 287.756 L2233.21 287.756 L2233.21 251.737 Z" fill="#000000" fill-rule="nonzero" fill-opacity="1" /><path clip-path="url(#clip490)" d="M2250.6 254.469 L2250.6 261.83 L2259.37 261.83 L2259.37 265.14 L2250.6 265.14 L2250.6 279.214 Q2250.6 282.385 2251.45 283.288 Q2252.33 284.191 2254.99 284.191 L2259.37 284.191 L2259.37 287.756 L2254.99 287.756 Q2250.06 287.756 2248.19 285.927 Q2246.31 284.075 2246.31 279.214 L2246.31 265.14 L2243.19 265.14 L2243.19 261.83 L2246.31 261.83 L2246.31 254.469 L2250.6 254.469 Z" fill="#000000" fill-rule="nonzero" fill-opacity="1" /><polyline clip-path="url(#clip490)" style="stroke:#3da44d; stroke-linecap:round; stroke-linejoin:round; stroke-width:4; stroke-opacity:1; fill:none" points="1772.84,322.316 1912.92,322.316 "/>
<path clip-path="url(#clip490)" d="M1936.27 305.036 L1940.95 305.036 L1940.95 335.661 L1957.77 335.661 L1957.77 339.596 L1936.27 339.596 L1936.27 305.036 Z" fill="#000000" fill-rule="nonzero" fill-opacity="1" /><path clip-path="url(#clip490)" d="M1962.68 305.036 L1969.65 305.036 L1978.47 328.554 L1987.33 305.036 L1994.3 305.036 L1994.3 339.596 L1989.74 339.596 L1989.74 309.249 L1980.83 332.952 L1976.13 332.952 L1967.22 309.249 L1967.22 339.596 L1962.68 339.596 L1962.68 305.036 Z" fill="#000000" fill-rule="nonzero" fill-opacity="1" /><path clip-path="url(#clip490)" d="M2023.1 347.466 L2023.1 350.776 L1998.47 350.776 L1998.47 347.466 L2023.1 347.466 Z" fill="#000000" fill-rule="nonzero" fill-opacity="1" /><path clip-path="url(#clip490)" d="M2038.84 309.642 L2032.5 326.841 L2045.2 326.841 L2038.84 309.642 M2036.2 305.036 L2041.5 305.036 L2054.67 339.596 L2049.81 339.596 L2046.66 330.73 L2031.08 330.73 L2027.94 339.596 L2023 339.596 L2036.2 305.036 Z" fill="#000000" fill-rule="nonzero" fill-opacity="1" /><path clip-path="url(#clip490)" d="M2081.08 323.948 L2081.08 339.596 L2076.82 339.596 L2076.82 324.087 Q2076.82 320.406 2075.39 318.577 Q2073.95 316.749 2071.08 316.749 Q2067.63 316.749 2065.64 318.948 Q2063.65 321.147 2063.65 324.943 L2063.65 339.596 L2059.37 339.596 L2059.37 313.67 L2063.65 313.67 L2063.65 317.698 Q2065.18 315.36 2067.24 314.202 Q2069.32 313.045 2072.03 313.045 Q2076.5 313.045 2078.79 315.823 Q2081.08 318.577 2081.08 323.948 Z" fill="#000000" fill-rule="nonzero" fill-opacity="1" /><path clip-path="url(#clip490)" d="M2106.64 317.605 L2106.64 303.577 L2110.9 303.577 L2110.9 339.596 L2106.64 339.596 L2106.64 335.707 Q2105.3 338.022 2103.24 339.156 Q2101.2 340.267 2098.33 340.267 Q2093.63 340.267 2090.67 336.517 Q2087.73 332.767 2087.73 326.656 Q2087.73 320.545 2090.67 316.795 Q2093.63 313.045 2098.33 313.045 Q2101.2 313.045 2103.24 314.179 Q2105.3 315.29 2106.64 317.605 M2092.12 326.656 Q2092.12 331.355 2094.05 334.04 Q2095.99 336.702 2099.37 336.702 Q2102.75 336.702 2104.69 334.04 Q2106.64 331.355 2106.64 326.656 Q2106.64 321.957 2104.69 319.295 Q2102.75 316.61 2099.37 316.61 Q2095.99 316.61 2094.05 319.295 Q2092.12 321.957 2092.12 326.656 Z" fill="#000000" fill-rule="nonzero" fill-opacity="1" /><path clip-path="url(#clip490)" d="M2134.69 317.651 Q2133.98 317.235 2133.12 317.05 Q2132.29 316.841 2131.27 316.841 Q2127.66 316.841 2125.71 319.202 Q2123.79 321.54 2123.79 325.938 L2123.79 339.596 L2119.51 339.596 L2119.51 313.67 L2123.79 313.67 L2123.79 317.698 Q2125.13 315.337 2127.29 314.202 Q2129.44 313.045 2132.52 313.045 Q2132.96 313.045 2133.49 313.114 Q2134.02 313.161 2134.67 313.276 L2134.69 317.651 Z" fill="#000000" fill-rule="nonzero" fill-opacity="1" /><path clip-path="url(#clip490)" d="M2160.3 325.568 L2160.3 327.651 L2140.71 327.651 Q2140.99 332.049 2143.35 334.364 Q2145.74 336.656 2149.97 336.656 Q2152.43 336.656 2154.72 336.054 Q2157.03 335.452 2159.3 334.249 L2159.3 338.276 Q2157.01 339.248 2154.6 339.758 Q2152.19 340.267 2149.72 340.267 Q2143.51 340.267 2139.88 336.656 Q2136.27 333.045 2136.27 326.887 Q2136.27 320.522 2139.69 316.795 Q2143.14 313.045 2148.98 313.045 Q2154.21 313.045 2157.24 316.425 Q2160.3 319.781 2160.3 325.568 M2156.04 324.318 Q2155.99 320.823 2154.07 318.739 Q2152.17 316.656 2149.02 316.656 Q2145.46 316.656 2143.31 318.67 Q2141.18 320.684 2140.85 324.341 L2156.04 324.318 Z" fill="#000000" fill-rule="nonzero" fill-opacity="1" /><path clip-path="url(#clip490)" d="M2167.29 313.67 L2171.55 313.67 L2171.55 339.596 L2167.29 339.596 L2167.29 313.67 M2167.29 303.577 L2171.55 303.577 L2171.55 308.971 L2167.29 308.971 L2167.29 303.577 Z" fill="#000000" fill-rule="nonzero" fill-opacity="1" /><polyline clip-path="url(#clip490)" style="stroke:#c271d2; stroke-linecap:round; stroke-linejoin:round; stroke-width:4; stroke-opacity:1; fill:none" points="1772.84,374.156 1912.92,374.156 "/>
<path clip-path="url(#clip490)" d="M1936.27 356.876 L1940.95 356.876 L1940.95 387.501 L1957.77 387.501 L1957.77 391.436 L1936.27 391.436 L1936.27 356.876 Z" fill="#000000" fill-rule="nonzero" fill-opacity="1" /><path clip-path="url(#clip490)" d="M1962.68 356.876 L1969.65 356.876 L1978.47 380.394 L1987.33 356.876 L1994.3 356.876 L1994.3 391.436 L1989.74 391.436 L1989.74 361.089 L1980.83 384.792 L1976.13 384.792 L1967.22 361.089 L1967.22 391.436 L1962.68 391.436 L1962.68 356.876 Z" fill="#000000" fill-rule="nonzero" fill-opacity="1" /><path clip-path="url(#clip490)" d="M2023.1 399.306 L2023.1 402.616 L1998.47 402.616 L1998.47 399.306 L2023.1 399.306 Z" fill="#000000" fill-rule="nonzero" fill-opacity="1" /><path clip-path="url(#clip490)" d="M2048 358.01 L2048 362.57 Q2045.34 361.297 2042.98 360.672 Q2040.62 360.047 2038.42 360.047 Q2034.6 360.047 2032.52 361.528 Q2030.46 363.01 2030.46 365.741 Q2030.46 368.033 2031.82 369.214 Q2033.21 370.371 2037.06 371.089 L2039.88 371.667 Q2045.11 372.663 2047.59 375.186 Q2050.09 377.686 2050.09 381.899 Q2050.09 386.922 2046.71 389.514 Q2043.35 392.107 2036.85 392.107 Q2034.39 392.107 2031.62 391.551 Q2028.86 390.996 2025.9 389.908 L2025.9 385.093 Q2028.75 386.69 2031.48 387.501 Q2034.21 388.311 2036.85 388.311 Q2040.85 388.311 2043.03 386.737 Q2045.2 385.163 2045.2 382.246 Q2045.2 379.7 2043.63 378.264 Q2042.08 376.829 2038.51 376.112 L2035.67 375.556 Q2030.44 374.515 2028.1 372.292 Q2025.76 370.07 2025.76 366.112 Q2025.76 361.528 2028.98 358.89 Q2032.22 356.251 2037.89 356.251 Q2040.32 356.251 2042.84 356.691 Q2045.37 357.13 2048 358.01 Z" fill="#000000" fill-rule="nonzero" fill-opacity="1" /><path clip-path="url(#clip490)" d="M2062.06 360.718 L2062.06 373.704 L2067.94 373.704 Q2071.2 373.704 2072.98 372.015 Q2074.76 370.325 2074.76 367.2 Q2074.76 364.098 2072.98 362.408 Q2071.2 360.718 2067.94 360.718 L2062.06 360.718 M2057.38 356.876 L2067.94 356.876 Q2073.75 356.876 2076.71 359.515 Q2079.69 362.13 2079.69 367.2 Q2079.69 372.315 2076.71 374.931 Q2073.75 377.547 2067.94 377.547 L2062.06 377.547 L2062.06 391.436 L2057.38 391.436 L2057.38 356.876 Z" fill="#000000" fill-rule="nonzero" fill-opacity="1" /><path clip-path="url(#clip490)" d="M2109.53 386.505 L2109.53 377.223 L2101.89 377.223 L2101.89 373.38 L2114.16 373.38 L2114.16 388.218 Q2111.45 390.139 2108.19 391.135 Q2104.93 392.107 2101.22 392.107 Q2093.12 392.107 2088.54 387.385 Q2083.98 382.639 2083.98 374.19 Q2083.98 365.718 2088.54 360.996 Q2093.12 356.251 2101.22 356.251 Q2104.6 356.251 2107.63 357.084 Q2110.69 357.917 2113.26 359.538 L2113.26 364.515 Q2110.67 362.316 2107.75 361.204 Q2104.83 360.093 2101.62 360.093 Q2095.27 360.093 2092.08 363.635 Q2088.91 367.177 2088.91 374.19 Q2088.91 381.181 2092.08 384.723 Q2095.27 388.264 2101.62 388.264 Q2104.09 388.264 2106.04 387.848 Q2107.98 387.408 2109.53 386.505 Z" fill="#000000" fill-rule="nonzero" fill-opacity="1" /><path clip-path="url(#clip490)" d="M2142.22 399.306 L2142.22 402.616 L2117.59 402.616 L2117.59 399.306 L2142.22 399.306 Z" fill="#000000" fill-rule="nonzero" fill-opacity="1" /><path clip-path="url(#clip490)" d="M2158 378.403 Q2152.84 378.403 2150.85 379.584 Q2148.86 380.764 2148.86 383.612 Q2148.86 385.88 2150.34 387.223 Q2151.85 388.542 2154.42 388.542 Q2157.96 388.542 2160.09 386.042 Q2162.24 383.519 2162.24 379.352 L2162.24 378.403 L2158 378.403 M2166.5 376.644 L2166.5 391.436 L2162.24 391.436 L2162.24 387.501 Q2160.78 389.862 2158.61 390.996 Q2156.43 392.107 2153.28 392.107 Q2149.3 392.107 2146.94 389.885 Q2144.6 387.639 2144.6 383.889 Q2144.6 379.514 2147.52 377.292 Q2150.46 375.07 2156.27 375.07 L2162.24 375.07 L2162.24 374.653 Q2162.24 371.714 2160.3 370.116 Q2158.37 368.496 2154.88 368.496 Q2152.66 368.496 2150.55 369.028 Q2148.44 369.561 2146.5 370.626 L2146.5 366.69 Q2148.84 365.788 2151.04 365.348 Q2153.24 364.885 2155.32 364.885 Q2160.94 364.885 2163.72 367.802 Q2166.5 370.718 2166.5 376.644 Z" fill="#000000" fill-rule="nonzero" fill-opacity="1" /><path clip-path="url(#clip490)" d="M2175.27 355.417 L2179.53 355.417 L2179.53 391.436 L2175.27 391.436 L2175.27 355.417 Z" fill="#000000" fill-rule="nonzero" fill-opacity="1" /><path clip-path="url(#clip490)" d="M2192.66 358.149 L2192.66 365.51 L2201.43 365.51 L2201.43 368.82 L2192.66 368.82 L2192.66 382.894 Q2192.66 386.065 2193.51 386.968 Q2194.39 387.871 2197.05 387.871 L2201.43 387.871 L2201.43 391.436 L2197.05 391.436 Q2192.12 391.436 2190.25 389.607 Q2188.37 387.755 2188.37 382.894 L2188.37 368.82 L2185.25 368.82 L2185.25 365.51 L2188.37 365.51 L2188.37 358.149 L2192.66 358.149 Z" fill="#000000" fill-rule="nonzero" fill-opacity="1" /><polyline clip-path="url(#clip490)" style="stroke:#ac8d18; stroke-linecap:round; stroke-linejoin:round; stroke-width:4; stroke-opacity:1; fill:none" points="1772.84,425.996 1912.92,425.996 "/>
<path clip-path="url(#clip490)" d="M1936.27 408.716 L1940.95 408.716 L1940.95 439.341 L1957.77 439.341 L1957.77 443.276 L1936.27 443.276 L1936.27 408.716 Z" fill="#000000" fill-rule="nonzero" fill-opacity="1" /><path clip-path="url(#clip490)" d="M1962.68 408.716 L1969.65 408.716 L1978.47 432.234 L1987.33 408.716 L1994.3 408.716 L1994.3 443.276 L1989.74 443.276 L1989.74 412.929 L1980.83 436.632 L1976.13 436.632 L1967.22 412.929 L1967.22 443.276 L1962.68 443.276 L1962.68 408.716 Z" fill="#000000" fill-rule="nonzero" fill-opacity="1" /></svg>
