<?xml version="1.0" encoding="utf-8"?>
<svg xmlns="http://www.w3.org/2000/svg" xmlns:xlink="http://www.w3.org/1999/xlink" width="600" height="400" viewBox="0 0 2400 1600">
<defs>
  <clipPath id="clip810">
    <rect x="0" y="0" width="2400" height="1600"/>
  </clipPath>
</defs>
<path clip-path="url(#clip810)" d="M0 1600 L2400 1600 L2400 0 L0 0  Z" fill="#ffffff" fill-rule="evenodd" fill-opacity="1"/>
<defs>
  <clipPath id="clip811">
    <rect x="480" y="0" width="1681" height="1600"/>
  </clipPath>
</defs>
<path clip-path="url(#clip810)" d="M251.56 1423.18 L2352.76 1423.18 L2352.76 123.472 L251.56 123.472  Z" fill="#ffffff" fill-rule="evenodd" fill-opacity="1"/>
<defs>
  <clipPath id="clip812">
    <rect x="251" y="123" width="2102" height="1301"/>
  </clipPath>
</defs>
<polyline clip-path="url(#clip812)" style="stroke:#000000; stroke-linecap:round; stroke-linejoin:round; stroke-width:2; stroke-opacity:0.1; fill:none" points="707.48,1423.18 707.48,123.472 "/>
<polyline clip-path="url(#clip812)" style="stroke:#000000; stroke-linecap:round; stroke-linejoin:round; stroke-width:2; stroke-opacity:0.1; fill:none" points="1203.05,1423.18 1203.05,123.472 "/>
<polyline clip-path="url(#clip812)" style="stroke:#000000; stroke-linecap:round; stroke-linejoin:round; stroke-width:2; stroke-opacity:0.1; fill:none" points="1698.61,1423.18 1698.61,123.472 "/>
<polyline clip-path="url(#clip812)" style="stroke:#000000; stroke-linecap:round; stroke-linejoin:round; stroke-width:2; stroke-opacity:0.1; fill:none" points="2194.18,1423.18 2194.18,123.472 "/>
<polyline clip-path="url(#clip810)" style="stroke:#000000; stroke-linecap:round; stroke-linejoin:round; stroke-width:4; stroke-opacity:1; fill:none" points="251.56,1423.18 2352.76,1423.18 "/>
<polyline clip-path="url(#clip810)" style="stroke:#000000; stroke-linecap:round; stroke-linejoin:round; stroke-width:4; stroke-opacity:1; fill:none" points="707.48,1423.18 707.48,1404.28 "/>
<polyline clip-path="url(#clip810)" style="stroke:#000000; stroke-linecap:round; stroke-linejoin:round; stroke-width:4; stroke-opacity:1; fill:none" points="1203.05,1423.18 1203.05,1404.28 "/>
<polyline clip-path="url(#clip810)" style="stroke:#000000; stroke-linecap:round; stroke-linejoin:round; stroke-width:4; stroke-opacity:1; fill:none" points="1698.61,1423.18 1698.61,1404.28 "/>
<polyline clip-path="url(#clip810)" style="stroke:#000000; stroke-linecap:round; stroke-linejoin:round; stroke-width:4; stroke-opacity:1; fill:none" points="2194.18,1423.18 2194.18,1404.28 "/>
<path clip-path="url(#clip810)" d="M697.758 1451.02 L716.114 1451.02 L716.114 1454.96 L702.04 1454.96 L702.04 1463.43 Q703.059 1463.08 704.077 1462.92 Q705.096 1462.73 706.114 1462.73 Q711.901 1462.73 715.281 1465.9 Q718.661 1469.08 718.661 1474.49 Q718.661 1480.07 715.188 1483.17 Q711.716 1486.25 705.397 1486.25 Q703.221 1486.25 700.952 1485.88 Q698.707 1485.51 696.3 1484.77 L696.3 1480.07 Q698.383 1481.2 700.605 1481.76 Q702.827 1482.32 705.304 1482.32 Q709.309 1482.32 711.647 1480.21 Q713.985 1478.1 713.985 1474.49 Q713.985 1470.88 711.647 1468.77 Q709.309 1466.67 705.304 1466.67 Q703.429 1466.67 701.554 1467.08 Q699.702 1467.5 697.758 1468.38 L697.758 1451.02 Z" fill="#000000" fill-rule="nonzero" fill-opacity="1" /><path clip-path="url(#clip810)" d="M1177.73 1481.64 L1185.37 1481.64 L1185.37 1455.28 L1177.06 1456.95 L1177.06 1452.69 L1185.33 1451.02 L1190 1451.02 L1190 1481.64 L1197.64 1481.64 L1197.64 1485.58 L1177.73 1485.58 L1177.73 1481.64 Z" fill="#000000" fill-rule="nonzero" fill-opacity="1" /><path clip-path="url(#clip810)" d="M1217.08 1454.1 Q1213.47 1454.1 1211.64 1457.66 Q1209.84 1461.2 1209.84 1468.33 Q1209.84 1475.44 1211.64 1479.01 Q1213.47 1482.55 1217.08 1482.55 Q1220.72 1482.55 1222.52 1479.01 Q1224.35 1475.44 1224.35 1468.33 Q1224.35 1461.2 1222.52 1457.66 Q1220.72 1454.1 1217.08 1454.1 M1217.08 1450.39 Q1222.89 1450.39 1225.95 1455 Q1229.03 1459.58 1229.03 1468.33 Q1229.03 1477.06 1225.95 1481.67 Q1222.89 1486.25 1217.08 1486.25 Q1211.27 1486.25 1208.2 1481.67 Q1205.14 1477.06 1205.14 1468.33 Q1205.14 1459.58 1208.2 1455 Q1211.27 1450.39 1217.08 1450.39 Z" fill="#000000" fill-rule="nonzero" fill-opacity="1" /><path clip-path="url(#clip810)" d="M1673.8 1481.64 L1681.43 1481.64 L1681.43 1455.28 L1673.12 1456.95 L1673.12 1452.69 L1681.39 1451.02 L1686.06 1451.02 L1686.06 1481.64 L1693.7 1481.64 L1693.7 1485.58 L1673.8 1485.58 L1673.8 1481.64 Z" fill="#000000" fill-rule="nonzero" fill-opacity="1" /><path clip-path="url(#clip810)" d="M1703.19 1451.02 L1721.55 1451.02 L1721.55 1454.96 L1707.48 1454.96 L1707.48 1463.43 Q1708.49 1463.08 1709.51 1462.92 Q1710.53 1462.73 1711.55 1462.73 Q1717.34 1462.73 1720.72 1465.9 Q1724.1 1469.08 1724.1 1474.49 Q1724.1 1480.07 1720.62 1483.17 Q1717.15 1486.25 1710.83 1486.25 Q1708.66 1486.25 1706.39 1485.88 Q1704.14 1485.51 1701.74 1484.77 L1701.74 1480.07 Q1703.82 1481.2 1706.04 1481.76 Q1708.26 1482.32 1710.74 1482.32 Q1714.74 1482.32 1717.08 1480.21 Q1719.42 1478.1 1719.42 1474.49 Q1719.42 1470.88 1717.08 1468.77 Q1714.74 1466.67 1710.74 1466.67 Q1708.86 1466.67 1706.99 1467.08 Q1705.14 1467.5 1703.19 1468.38 L1703.19 1451.02 Z" fill="#000000" fill-rule="nonzero" fill-opacity="1" /><path clip-path="url(#clip810)" d="M2172.95 1481.64 L2189.27 1481.64 L2189.27 1485.58 L2167.32 1485.58 L2167.32 1481.64 Q2169.99 1478.89 2174.57 1474.26 Q2179.18 1469.61 2180.36 1468.27 Q2182.6 1465.74 2183.48 1464.01 Q2184.38 1462.25 2184.38 1460.56 Q2184.38 1457.8 2182.44 1456.07 Q2180.52 1454.33 2177.42 1454.33 Q2175.22 1454.33 2172.76 1455.09 Q2170.33 1455.86 2167.55 1457.41 L2167.55 1452.69 Q2170.38 1451.55 2172.83 1450.97 Q2175.29 1450.39 2177.32 1450.39 Q2182.69 1450.39 2185.89 1453.08 Q2189.08 1455.77 2189.08 1460.26 Q2189.08 1462.39 2188.27 1464.31 Q2187.49 1466.2 2185.38 1468.8 Q2184.8 1469.47 2181.7 1472.69 Q2178.6 1475.88 2172.95 1481.64 Z" fill="#000000" fill-rule="nonzero" fill-opacity="1" /><path clip-path="url(#clip810)" d="M2209.08 1454.1 Q2205.47 1454.1 2203.64 1457.66 Q2201.84 1461.2 2201.84 1468.33 Q2201.84 1475.44 2203.64 1479.01 Q2205.47 1482.55 2209.08 1482.55 Q2212.72 1482.55 2214.52 1479.01 Q2216.35 1475.44 2216.35 1468.33 Q2216.35 1461.2 2214.52 1457.66 Q2212.72 1454.1 2209.08 1454.1 M2209.08 1450.39 Q2214.89 1450.39 2217.95 1455 Q2221.03 1459.58 2221.03 1468.33 Q2221.03 1477.06 2217.95 1481.67 Q2214.89 1486.25 2209.08 1486.25 Q2203.27 1486.25 2200.19 1481.67 Q2197.14 1477.06 2197.14 1468.33 Q2197.14 1459.58 2200.19 1455 Q2203.27 1450.39 2209.08 1450.39 Z" fill="#000000" fill-rule="nonzero" fill-opacity="1" /><path clip-path="url(#clip810)" d="M1286.34 1518.52 L1292.23 1518.52 L1292.23 1547.77 L1309.7 1532.4 L1317.18 1532.4 L1298.27 1549.07 L1317.98 1568.04 L1310.34 1568.04 L1292.23 1550.63 L1292.23 1568.04 L1286.34 1568.04 L1286.34 1518.52 Z" fill="#000000" fill-rule="nonzero" fill-opacity="1" /><polyline clip-path="url(#clip812)" style="stroke:#000000; stroke-linecap:round; stroke-linejoin:round; stroke-width:2; stroke-opacity:0.1; fill:none" points="251.56,1041.05 2352.76,1041.05 "/>
<polyline clip-path="url(#clip812)" style="stroke:#000000; stroke-linecap:round; stroke-linejoin:round; stroke-width:2; stroke-opacity:0.1; fill:none" points="251.56,439.497 2352.76,439.497 "/>
<polyline clip-path="url(#clip810)" style="stroke:#000000; stroke-linecap:round; stroke-linejoin:round; stroke-width:4; stroke-opacity:1; fill:none" points="251.56,1423.18 251.56,123.472 "/>
<polyline clip-path="url(#clip810)" style="stroke:#000000; stroke-linecap:round; stroke-linejoin:round; stroke-width:4; stroke-opacity:1; fill:none" points="251.56,1041.05 270.458,1041.05 "/>
<polyline clip-path="url(#clip810)" style="stroke:#000000; stroke-linecap:round; stroke-linejoin:round; stroke-width:4; stroke-opacity:1; fill:none" points="251.56,439.497 270.458,439.497 "/>
<path clip-path="url(#clip810)" d="M114.931 1060.84 L122.57 1060.84 L122.57 1034.48 L114.26 1036.15 L114.26 1031.89 L122.524 1030.22 L127.2 1030.22 L127.2 1060.84 L134.839 1060.84 L134.839 1064.78 L114.931 1064.78 L114.931 1060.84 Z" fill="#000000" fill-rule="nonzero" fill-opacity="1" /><path clip-path="url(#clip810)" d="M154.283 1033.3 Q150.672 1033.3 148.843 1036.86 Q147.038 1040.4 147.038 1047.53 Q147.038 1054.64 148.843 1058.21 Q150.672 1061.75 154.283 1061.75 Q157.917 1061.75 159.723 1058.21 Q161.552 1054.64 161.552 1047.53 Q161.552 1040.4 159.723 1036.86 Q157.917 1033.3 154.283 1033.3 M154.283 1029.59 Q160.093 1029.59 163.149 1034.2 Q166.227 1038.78 166.227 1047.53 Q166.227 1056.26 163.149 1060.87 Q160.093 1065.45 154.283 1065.45 Q148.473 1065.45 145.394 1060.87 Q142.339 1056.26 142.339 1047.53 Q142.339 1038.78 145.394 1034.2 Q148.473 1029.59 154.283 1029.59 Z" fill="#000000" fill-rule="nonzero" fill-opacity="1" /><path clip-path="url(#clip810)" d="M166.227 1023.7 L190.339 1023.7 L190.339 1026.89 L166.227 1026.89 L166.227 1023.7 Z" fill="#000000" fill-rule="nonzero" fill-opacity="1" /><path clip-path="url(#clip810)" d="M198.577 1009.29 L213.491 1009.29 L213.491 1012.49 L202.056 1012.49 L202.056 1019.37 Q202.884 1019.09 203.711 1018.96 Q204.539 1018.81 205.366 1018.81 Q210.068 1018.81 212.814 1021.38 Q215.56 1023.96 215.56 1028.36 Q215.56 1032.89 212.739 1035.41 Q209.918 1037.91 204.783 1037.91 Q203.015 1037.91 201.172 1037.61 Q199.348 1037.31 197.392 1036.71 L197.392 1032.89 Q199.085 1033.81 200.89 1034.27 Q202.696 1034.72 204.708 1034.72 Q207.962 1034.72 209.861 1033.01 Q211.761 1031.29 211.761 1028.36 Q211.761 1025.43 209.861 1023.71 Q207.962 1022 204.708 1022 Q203.185 1022 201.661 1022.34 Q200.157 1022.68 198.577 1023.39 L198.577 1009.29 Z" fill="#000000" fill-rule="nonzero" fill-opacity="1" /><path clip-path="url(#clip810)" d="M144.855 459.289 L152.493 459.289 L152.493 432.924 L144.183 434.59 L144.183 430.331 L152.447 428.664 L157.123 428.664 L157.123 459.289 L164.762 459.289 L164.762 463.224 L144.855 463.224 L144.855 459.289 Z" fill="#000000" fill-rule="nonzero" fill-opacity="1" /><path clip-path="url(#clip810)" d="M184.206 431.743 Q180.595 431.743 178.766 435.308 Q176.961 438.849 176.961 445.979 Q176.961 453.086 178.766 456.65 Q180.595 460.192 184.206 460.192 Q187.84 460.192 189.646 456.65 Q191.475 453.086 191.475 445.979 Q191.475 438.849 189.646 435.308 Q187.84 431.743 184.206 431.743 M184.206 428.039 Q190.016 428.039 193.072 432.646 Q196.151 437.229 196.151 445.979 Q196.151 454.706 193.072 459.312 Q190.016 463.896 184.206 463.896 Q178.396 463.896 175.317 459.312 Q172.262 454.706 172.262 445.979 Q172.262 437.229 175.317 432.646 Q178.396 428.039 184.206 428.039 Z" fill="#000000" fill-rule="nonzero" fill-opacity="1" /><path clip-path="url(#clip810)" d="M205.855 410.235 Q202.921 410.235 201.436 413.132 Q199.969 416.009 199.969 421.802 Q199.969 427.576 201.436 430.473 Q202.921 433.35 205.855 433.35 Q208.808 433.35 210.275 430.473 Q211.761 427.576 211.761 421.802 Q211.761 416.009 210.275 413.132 Q208.808 410.235 205.855 410.235 M205.855 407.226 Q210.576 407.226 213.059 410.969 Q215.56 414.693 215.56 421.802 Q215.56 428.893 213.059 432.635 Q210.576 436.359 205.855 436.359 Q201.135 436.359 198.633 432.635 Q196.151 428.893 196.151 421.802 Q196.151 414.693 198.633 410.969 Q201.135 407.226 205.855 407.226 Z" fill="#000000" fill-rule="nonzero" fill-opacity="1" /><path clip-path="url(#clip810)" d="M45.7664 817.313 Q39.4007 817.313 35.8996 819.955 Q32.3984 822.565 32.3984 827.307 Q32.3984 832.018 35.8996 834.66 Q39.4007 837.27 45.7664 837.27 Q52.1003 837.27 55.6014 834.66 Q59.1026 832.018 59.1026 827.307 Q59.1026 822.565 55.6014 819.955 Q52.1003 817.313 45.7664 817.313 M59.58 811.457 Q68.683 811.457 73.1071 815.499 Q77.5631 819.541 77.5631 827.88 Q77.5631 830.967 77.0857 833.705 Q76.6401 836.442 75.6852 839.02 L69.9879 839.02 Q71.3884 836.442 72.0568 833.928 Q72.7252 831.413 72.7252 828.803 Q72.7252 823.042 69.7015 820.178 Q66.7096 817.313 60.6303 817.313 L57.7339 817.313 Q60.885 819.127 62.4446 821.96 Q64.0042 824.793 64.0042 828.739 Q64.0042 835.296 59.0071 839.307 Q54.01 843.317 45.7664 843.317 Q37.491 843.317 32.4939 839.307 Q27.4968 835.296 27.4968 828.739 Q27.4968 824.793 29.0564 821.96 Q30.616 819.127 33.7671 817.313 L28.3562 817.313 L28.3562 811.457 L59.58 811.457 Z" fill="#000000" fill-rule="nonzero" fill-opacity="1" /><path clip-path="url(#clip810)" d="M33.8307 778.737 Q33.2578 779.724 33.0032 780.901 Q32.7167 782.047 32.7167 783.447 Q32.7167 788.413 35.9632 791.086 Q39.1779 793.728 45.2253 793.728 L64.0042 793.728 L64.0042 799.616 L28.3562 799.616 L28.3562 793.728 L33.8944 793.728 Q30.6479 791.882 29.0883 788.922 Q27.4968 785.962 27.4968 781.729 Q27.4968 781.124 27.5923 780.392 Q27.656 779.66 27.8151 778.769 L33.8307 778.737 Z" fill="#000000" fill-rule="nonzero" fill-opacity="1" /><path clip-path="url(#clip810)" d="M46.0847 756.393 Q46.0847 763.491 47.7079 766.228 Q49.3312 768.965 53.2461 768.965 Q56.3653 768.965 58.2114 766.928 Q60.0256 764.86 60.0256 761.327 Q60.0256 756.457 56.5881 753.529 Q53.1188 750.569 47.3897 750.569 L46.0847 750.569 L46.0847 756.393 M43.6657 744.712 L64.0042 744.712 L64.0042 750.569 L58.5933 750.569 Q61.8398 752.574 63.3994 755.566 Q64.9272 758.558 64.9272 762.886 Q64.9272 768.361 61.8716 771.607 Q58.7843 774.822 53.6281 774.822 Q47.6125 774.822 44.5569 770.812 Q41.5014 766.769 41.5014 758.78 L41.5014 750.569 L40.9285 750.569 Q36.8862 750.569 34.6901 753.242 Q32.4621 755.884 32.4621 760.69 Q32.4621 763.746 33.1941 766.642 Q33.9262 769.538 35.3903 772.212 L29.9795 772.212 Q28.7381 768.997 28.1334 765.974 Q27.4968 762.95 27.4968 760.085 Q27.4968 752.351 31.5072 748.532 Q35.5176 744.712 43.6657 744.712 Z" fill="#000000" fill-rule="nonzero" fill-opacity="1" /><path clip-path="url(#clip810)" d="M33.7671 709.191 L14.479 709.191 L14.479 703.335 L64.0042 703.335 L64.0042 709.191 L58.657 709.191 Q61.8398 711.038 63.3994 713.87 Q64.9272 716.671 64.9272 720.618 Q64.9272 727.079 59.771 731.153 Q54.6147 735.195 46.212 735.195 Q37.8093 735.195 32.6531 731.153 Q27.4968 727.079 27.4968 720.618 Q27.4968 716.671 29.0564 713.87 Q30.5842 711.038 33.7671 709.191 M46.212 729.148 Q52.6732 729.148 56.3653 726.506 Q60.0256 723.833 60.0256 719.186 Q60.0256 714.539 56.3653 711.865 Q52.6732 709.191 46.212 709.191 Q39.7508 709.191 36.0905 711.865 Q32.3984 714.539 32.3984 719.186 Q32.3984 723.833 36.0905 726.506 Q39.7508 729.148 46.212 729.148 Z" fill="#000000" fill-rule="nonzero" fill-opacity="1" /><path clip-path="url(#clip810)" d="M933.647 65.7705 L933.647 89.8329 L926.153 89.8329 L926.153 27.2059 L933.647 27.2059 L933.647 34.0924 Q935.997 30.0415 939.562 28.0971 Q943.167 26.1121 948.15 26.1121 Q956.413 26.1121 961.558 32.6746 Q966.743 39.2371 966.743 49.9314 Q966.743 60.6258 961.558 67.1883 Q956.413 73.7508 948.15 73.7508 Q943.167 73.7508 939.562 71.8063 Q935.997 69.8214 933.647 65.7705 M959.006 49.9314 Q959.006 41.7081 955.603 37.0496 Q952.241 32.3505 946.327 32.3505 Q940.412 32.3505 937.01 37.0496 Q933.647 41.7081 933.647 49.9314 Q933.647 58.1548 937.01 62.8538 Q940.412 67.5124 946.327 67.5124 Q952.241 67.5124 955.603 62.8538 Q959.006 58.1548 959.006 49.9314 Z" fill="#000000" fill-rule="nonzero" fill-opacity="1" /><path clip-path="url(#clip810)" d="M1005.39 34.1734 Q1004.13 33.4443 1002.63 33.1202 Q1001.18 32.7556 999.393 32.7556 Q993.074 32.7556 989.671 36.8875 Q986.309 40.9789 986.309 48.6757 L986.309 72.576 L978.815 72.576 L978.815 27.2059 L986.309 27.2059 L986.309 34.2544 Q988.659 30.1225 992.426 28.1376 Q996.193 26.1121 1001.58 26.1121 Q1002.35 26.1121 1003.28 26.2337 Q1004.21 26.3147 1005.35 26.5172 L1005.39 34.1734 Z" fill="#000000" fill-rule="nonzero" fill-opacity="1" /><path clip-path="url(#clip810)" d="M1028.97 32.4315 Q1022.97 32.4315 1019.49 37.1306 Q1016 41.7891 1016 49.9314 Q1016 58.0738 1019.45 62.7728 Q1022.93 67.4314 1028.97 67.4314 Q1034.92 67.4314 1038.4 62.7323 Q1041.89 58.0333 1041.89 49.9314 Q1041.89 41.8701 1038.4 37.1711 Q1034.92 32.4315 1028.97 32.4315 M1028.97 26.1121 Q1038.69 26.1121 1044.24 32.4315 Q1049.79 38.7509 1049.79 49.9314 Q1049.79 61.0714 1044.24 67.4314 Q1038.69 73.7508 1028.97 73.7508 Q1019.2 73.7508 1013.65 67.4314 Q1008.14 61.0714 1008.14 49.9314 Q1008.14 38.7509 1013.65 32.4315 Q1019.2 26.1121 1028.97 26.1121 Z" fill="#000000" fill-rule="nonzero" fill-opacity="1" /><path clip-path="url(#clip810)" d="M1094.71 49.9314 Q1094.71 41.7081 1091.31 37.0496 Q1087.95 32.3505 1082.03 32.3505 Q1076.12 32.3505 1072.71 37.0496 Q1069.35 41.7081 1069.35 49.9314 Q1069.35 58.1548 1072.71 62.8538 Q1076.12 67.5124 1082.03 67.5124 Q1087.95 67.5124 1091.31 62.8538 Q1094.71 58.1548 1094.71 49.9314 M1069.35 34.0924 Q1071.7 30.0415 1075.27 28.0971 Q1078.87 26.1121 1083.85 26.1121 Q1092.12 26.1121 1097.26 32.6746 Q1102.45 39.2371 1102.45 49.9314 Q1102.45 60.6258 1097.26 67.1883 Q1092.12 73.7508 1083.85 73.7508 Q1078.87 73.7508 1075.27 71.8063 Q1071.7 69.8214 1069.35 65.7705 L1069.35 72.576 L1061.86 72.576 L1061.86 9.54393 L1069.35 9.54393 L1069.35 34.0924 Z" fill="#000000" fill-rule="nonzero" fill-opacity="1" /><path clip-path="url(#clip810)" d="M1114.8 9.54393 L1122.26 9.54393 L1122.26 72.576 L1114.8 72.576 L1114.8 9.54393 Z" fill="#000000" fill-rule="nonzero" fill-opacity="1" /><path clip-path="url(#clip810)" d="M1176.66 48.0275 L1176.66 51.6733 L1142.39 51.6733 Q1142.88 59.3701 1147.01 63.421 Q1151.18 67.4314 1158.59 67.4314 Q1162.89 67.4314 1166.9 66.3781 Q1170.95 65.3249 1174.92 63.2184 L1174.92 70.267 Q1170.91 71.9684 1166.7 72.8596 Q1162.48 73.7508 1158.15 73.7508 Q1147.29 73.7508 1140.93 67.4314 Q1134.61 61.1119 1134.61 50.3365 Q1134.61 39.1965 1140.61 32.6746 Q1146.64 26.1121 1156.85 26.1121 Q1166.01 26.1121 1171.31 32.0264 Q1176.66 37.9003 1176.66 48.0275 M1169.21 45.84 Q1169.13 39.7232 1165.76 36.0774 Q1162.44 32.4315 1156.93 32.4315 Q1150.69 32.4315 1146.93 35.9558 Q1143.2 39.4801 1142.63 45.8805 L1169.21 45.84 M1150.53 6.22219 L1161.96 21.3726 L1155.76 21.3726 L1142.55 6.22219 L1150.53 6.22219 Z" fill="#000000" fill-rule="nonzero" fill-opacity="1" /><path clip-path="url(#clip810)" d="M1224.22 35.9153 Q1227.01 30.8922 1230.9 28.5022 Q1234.79 26.1121 1240.06 26.1121 Q1247.15 26.1121 1251 31.0947 Q1254.84 36.0368 1254.84 45.1919 L1254.84 72.576 L1247.35 72.576 L1247.35 45.4349 Q1247.35 38.913 1245.04 35.7533 Q1242.73 32.5936 1237.99 32.5936 Q1232.2 32.5936 1228.84 36.4419 Q1225.47 40.2903 1225.47 46.9338 L1225.47 72.576 L1217.98 72.576 L1217.98 45.4349 Q1217.98 38.8725 1215.67 35.7533 Q1213.36 32.5936 1208.54 32.5936 Q1202.83 32.5936 1199.47 36.4824 Q1196.11 40.3308 1196.11 46.9338 L1196.11 72.576 L1188.61 72.576 L1188.61 27.2059 L1196.11 27.2059 L1196.11 34.2544 Q1198.66 30.082 1202.22 28.0971 Q1205.79 26.1121 1210.69 26.1121 Q1215.63 26.1121 1219.07 28.6237 Q1222.56 31.1352 1224.22 35.9153 Z" fill="#000000" fill-rule="nonzero" fill-opacity="1" /><path clip-path="url(#clip810)" d="M1308.52 48.0275 L1308.52 51.6733 L1274.25 51.6733 Q1274.73 59.3701 1278.87 63.421 Q1283.04 67.4314 1290.45 67.4314 Q1294.74 67.4314 1298.76 66.3781 Q1302.81 65.3249 1306.78 63.2184 L1306.78 70.267 Q1302.77 71.9684 1298.55 72.8596 Q1294.34 73.7508 1290.01 73.7508 Q1279.15 73.7508 1272.79 67.4314 Q1266.47 61.1119 1266.47 50.3365 Q1266.47 39.1965 1272.46 32.6746 Q1278.5 26.1121 1288.71 26.1121 Q1297.86 26.1121 1303.17 32.0264 Q1308.52 37.9003 1308.52 48.0275 M1301.06 45.84 Q1300.98 39.7232 1297.62 36.0774 Q1294.3 32.4315 1288.79 32.4315 Q1282.55 32.4315 1278.78 35.9558 Q1275.06 39.4801 1274.49 45.8805 L1301.06 45.84 Z" fill="#000000" fill-rule="nonzero" fill-opacity="1" /><path clip-path="url(#clip810)" d="M1349.03 62.2867 L1357.57 62.2867 L1357.57 72.576 L1349.03 72.576 L1349.03 62.2867 M1349.03 29.6769 L1357.57 29.6769 L1357.57 39.9662 L1349.03 39.9662 L1349.03 29.6769 Z" fill="#000000" fill-rule="nonzero" fill-opacity="1" /><path clip-path="url(#clip810)" d="M1436.77 35.9153 Q1439.56 30.8922 1443.45 28.5022 Q1447.34 26.1121 1452.61 26.1121 Q1459.7 26.1121 1463.55 31.0947 Q1467.39 36.0368 1467.39 45.1919 L1467.39 72.576 L1459.9 72.576 L1459.9 45.4349 Q1459.9 38.913 1457.59 35.7533 Q1455.28 32.5936 1450.54 32.5936 Q1444.75 32.5936 1441.39 36.4419 Q1438.03 40.2903 1438.03 46.9338 L1438.03 72.576 L1430.53 72.576 L1430.53 45.4349 Q1430.53 38.8725 1428.22 35.7533 Q1425.91 32.5936 1421.09 32.5936 Q1415.38 32.5936 1412.02 36.4824 Q1408.66 40.3308 1408.66 46.9338 L1408.66 72.576 L1401.16 72.576 L1401.16 27.2059 L1408.66 27.2059 L1408.66 34.2544 Q1411.21 30.082 1414.77 28.0971 Q1418.34 26.1121 1423.24 26.1121 Q1428.18 26.1121 1431.62 28.6237 Q1435.11 31.1352 1436.77 35.9153 Z" fill="#000000" fill-rule="nonzero" fill-opacity="1" /><path clip-path="url(#clip810)" d="M1512.12 49.3643 Q1512.12 41.2625 1508.75 36.8065 Q1505.43 32.3505 1499.4 32.3505 Q1493.4 32.3505 1490.04 36.8065 Q1486.72 41.2625 1486.72 49.3643 Q1486.72 57.4256 1490.04 61.8816 Q1493.4 66.3376 1499.4 66.3376 Q1505.43 66.3376 1508.75 61.8816 Q1512.12 57.4256 1512.12 49.3643 M1519.57 66.9452 Q1519.57 78.5308 1514.43 84.1616 Q1509.28 89.8329 1498.67 89.8329 Q1494.74 89.8329 1491.25 89.2252 Q1487.77 88.6581 1484.49 87.4428 L1484.49 80.1917 Q1487.77 81.9741 1490.97 82.8248 Q1494.17 83.6755 1497.49 83.6755 Q1504.82 83.6755 1508.47 79.8271 Q1512.12 76.0193 1512.12 68.282 L1512.12 64.5957 Q1509.81 68.6061 1506.2 70.5911 Q1502.6 72.576 1497.57 72.576 Q1489.23 72.576 1484.12 66.2161 Q1479.02 59.8562 1479.02 49.3643 Q1479.02 38.832 1484.12 32.472 Q1489.23 26.1121 1497.57 26.1121 Q1502.6 26.1121 1506.2 28.0971 Q1509.81 30.082 1512.12 34.0924 L1512.12 27.2059 L1519.57 27.2059 L1519.57 66.9452 Z" fill="#000000" fill-rule="nonzero" fill-opacity="1" /><path clip-path="url(#clip810)" d="M1572.64 45.1919 L1572.64 72.576 L1565.18 72.576 L1565.18 45.4349 Q1565.18 38.994 1562.67 35.7938 Q1560.16 32.5936 1555.14 32.5936 Q1549.1 32.5936 1545.62 36.4419 Q1542.13 40.2903 1542.13 46.9338 L1542.13 72.576 L1534.64 72.576 L1534.64 9.54393 L1542.13 9.54393 L1542.13 34.2544 Q1544.81 30.163 1548.41 28.1376 Q1552.06 26.1121 1556.8 26.1121 Q1564.62 26.1121 1568.63 30.9732 Q1572.64 35.7938 1572.64 45.1919 Z" fill="#000000" fill-rule="nonzero" fill-opacity="1" /><path clip-path="url(#clip810)" d="M1589.97 65.6895 L1603.34 65.6895 L1603.34 19.5497 L1588.8 22.4663 L1588.8 15.0127 L1603.26 12.096 L1611.44 12.096 L1611.44 65.6895 L1624.81 65.6895 L1624.81 72.576 L1589.97 72.576 L1589.97 65.6895 Z" fill="#000000" fill-rule="nonzero" fill-opacity="1" /><path clip-path="url(#clip810)" d="M1639.27 12.096 L1678.16 12.096 L1678.16 15.5798 L1656.21 72.576 L1647.66 72.576 L1668.32 18.9825 L1639.27 18.9825 L1639.27 12.096 Z" fill="#000000" fill-rule="nonzero" fill-opacity="1" /><polyline clip-path="url(#clip812)" style="stroke:#009af9; stroke-linecap:round; stroke-linejoin:round; stroke-width:4; stroke-opacity:1; fill:none" points="311.028,160.256 410.141,373.987 509.254,290.515 608.367,414.196 707.48,735.393 806.593,735.393 905.706,735.393 1004.82,735.393 1103.93,1275.17 "/>
<polyline clip-path="url(#clip812)" style="stroke:#e26f46; stroke-linecap:round; stroke-linejoin:round; stroke-width:4; stroke-opacity:1; fill:none" points="311.028,160.256 410.141,373.987 509.254,373.987 608.367,373.987 707.48,373.987 806.593,341.692 905.706,461.199 1004.82,461.199 1103.93,637.896 1203.05,571.233 1302.16,536.815 1401.27,573.717 1500.38,549.133 1599.5,595.457 1698.61,587.55 1797.72,648.46 1896.84,666.65 1995.95,727.477 2095.06,838.072 2194.18,1003.95 2293.29,1222.24 "/>
<polyline clip-path="url(#clip812)" style="stroke:#3da44d; stroke-linecap:round; stroke-linejoin:round; stroke-width:4; stroke-opacity:1; fill:none" points="311.028,160.256 410.141,373.987 509.254,290.515 608.367,414.196 707.48,735.393 806.593,735.393 905.706,735.393 1004.82,735.393 1103.93,735.393 1203.05,1386.4 "/>
<polyline clip-path="url(#clip812)" style="stroke:#c271d2; stroke-linecap:round; stroke-linejoin:round; stroke-width:4; stroke-opacity:1; fill:none" points="311.028,160.256 410.141,373.987 509.254,373.987 608.367,373.987 707.48,373.987 806.593,341.692 905.706,461.199 1004.82,461.199 1103.93,637.896 1203.05,571.233 1302.16,536.815 1401.27,573.717 1500.38,549.133 1599.5,595.457 1698.61,587.55 1797.72,648.46 1896.84,666.65 1995.95,727.477 2095.06,838.072 2194.18,1003.95 2293.29,1222.24 "/>
<polyline clip-path="url(#clip812)" style="stroke:#ac8d18; stroke-linecap:round; stroke-linejoin:round; stroke-width:4; stroke-opacity:1; fill:none" points="311.028,160.256 410.141,373.987 509.254,373.987 608.367,373.987 707.48,373.987 806.593,341.692 905.706,461.199 1004.82,461.199 1103.93,637.896 1203.05,571.233 1302.16,536.815 1401.27,573.717 1500.38,549.133 1599.5,595.457 1698.61,587.55 1797.72,648.46 1896.84,666.65 1995.95,727.477 2095.06,838.072 2194.18,1003.95 2293.29,1222.24 "/>
<path clip-path="url(#clip810)" d="M1749.5 477.836 L2282.72 477.836 L2282.72 166.796 L1749.5 166.796  Z" fill="#ffffff" fill-rule="evenodd" fill-opacity="1"/>
<polyline clip-path="url(#clip810)" style="stroke:#000000; stroke-linecap:round; stroke-linejoin:round; stroke-width:4; stroke-opacity:1; fill:none" points="1749.5,477.836 2282.72,477.836 2282.72,166.796 1749.5,166.796 1749.5,477.836 "/>
<polyline clip-path="url(#clip810)" style="stroke:#009af9; stroke-linecap:round; stroke-linejoin:round; stroke-width:4; stroke-opacity:1; fill:none" points="1772.84,218.636 1912.92,218.636 "/>
<path clip-path="url(#clip810)" d="M1936.27 201.356 L1940.95 201.356 L1940.95 231.981 L1957.77 231.981 L1957.77 235.916 L1936.27 235.916 L1936.27 201.356 Z" fill="#000000" fill-rule="nonzero" fill-opacity="1" /><path clip-path="url(#clip810)" d="M1962.68 201.356 L1969.65 201.356 L1978.47 224.874 L1987.33 201.356 L1994.3 201.356 L1994.3 235.916 L1989.74 235.916 L1989.74 205.569 L1980.83 229.272 L1976.13 229.272 L1967.22 205.569 L1967.22 235.916 L1962.68 235.916 L1962.68 201.356 Z" fill="#000000" fill-rule="nonzero" fill-opacity="1" /><path clip-path="url(#clip810)" d="M2023.1 243.786 L2023.1 247.096 L1998.47 247.096 L1998.47 243.786 L2023.1 243.786 Z" fill="#000000" fill-rule="nonzero" fill-opacity="1" /><path clip-path="url(#clip810)" d="M2048 202.49 L2048 207.05 Q2045.34 205.777 2042.98 205.152 Q2040.62 204.527 2038.42 204.527 Q2034.6 204.527 2032.52 206.008 Q2030.46 207.49 2030.46 210.221 Q2030.46 212.513 2031.82 213.694 Q2033.21 214.851 2037.06 215.569 L2039.88 216.147 Q2045.11 217.143 2047.59 219.666 Q2050.09 222.166 2050.09 226.379 Q2050.09 231.402 2046.71 233.994 Q2043.35 236.587 2036.85 236.587 Q2034.39 236.587 2031.62 236.031 Q2028.86 235.476 2025.9 234.388 L2025.9 229.573 Q2028.75 231.17 2031.48 231.981 Q2034.21 232.791 2036.85 232.791 Q2040.85 232.791 2043.03 231.217 Q2045.2 229.643 2045.2 226.726 Q2045.2 224.18 2043.63 222.744 Q2042.08 221.309 2038.51 220.592 L2035.67 220.036 Q2030.44 218.995 2028.1 216.772 Q2025.76 214.55 2025.76 210.592 Q2025.76 206.008 2028.98 203.37 Q2032.22 200.731 2037.89 200.731 Q2040.32 200.731 2042.84 201.171 Q2045.37 201.61 2048 202.49 Z" fill="#000000" fill-rule="nonzero" fill-opacity="1" /><path clip-path="url(#clip810)" d="M2062.06 205.198 L2062.06 218.184 L2067.94 218.184 Q2071.2 218.184 2072.98 216.495 Q2074.76 214.805 2074.76 211.68 Q2074.76 208.578 2072.98 206.888 Q2071.2 205.198 2067.94 205.198 L2062.06 205.198 M2057.38 201.356 L2067.94 201.356 Q2073.75 201.356 2076.71 203.995 Q2079.69 206.61 2079.69 211.68 Q2079.69 216.795 2076.71 219.411 Q2073.75 222.027 2067.94 222.027 L2062.06 222.027 L2062.06 235.916 L2057.38 235.916 L2057.38 201.356 Z" fill="#000000" fill-rule="nonzero" fill-opacity="1" /><path clip-path="url(#clip810)" d="M2109.53 230.985 L2109.53 221.703 L2101.89 221.703 L2101.89 217.86 L2114.16 217.86 L2114.16 232.698 Q2111.45 234.619 2108.19 235.615 Q2104.93 236.587 2101.22 236.587 Q2093.12 236.587 2088.54 231.865 Q2083.98 227.119 2083.98 218.67 Q2083.98 210.198 2088.54 205.476 Q2093.12 200.731 2101.22 200.731 Q2104.6 200.731 2107.63 201.564 Q2110.69 202.397 2113.26 204.018 L2113.26 208.995 Q2110.67 206.796 2107.75 205.684 Q2104.83 204.573 2101.62 204.573 Q2095.27 204.573 2092.08 208.115 Q2088.91 211.657 2088.91 218.67 Q2088.91 225.661 2092.08 229.203 Q2095.27 232.744 2101.62 232.744 Q2104.09 232.744 2106.04 232.328 Q2107.98 231.888 2109.53 230.985 Z" fill="#000000" fill-rule="nonzero" fill-opacity="1" /><polyline clip-path="url(#clip810)" style="stroke:#e26f46; stroke-linecap:round; stroke-linejoin:round; stroke-width:4; stroke-opacity:1; fill:none" points="1772.84,270.476 1912.92,270.476 "/>
<path clip-path="url(#clip810)" d="M1936.27 253.196 L1940.95 253.196 L1940.95 283.821 L1957.77 283.821 L1957.77 287.756 L1936.27 287.756 L1936.27 253.196 Z" fill="#000000" fill-rule="nonzero" fill-opacity="1" /><path clip-path="url(#clip810)" d="M1962.68 253.196 L1969.65 253.196 L1978.47 276.714 L1987.33 253.196 L1994.3 253.196 L1994.3 287.756 L1989.74 287.756 L1989.74 257.409 L1980.83 281.112 L1976.13 281.112 L1967.22 257.409 L1967.22 287.756 L1962.68 287.756 L1962.68 253.196 Z" fill="#000000" fill-rule="nonzero" fill-opacity="1" /><path clip-path="url(#clip810)" d="M2023.1 295.626 L2023.1 298.936 L1998.47 298.936 L1998.47 295.626 L2023.1 295.626 Z" fill="#000000" fill-rule="nonzero" fill-opacity="1" /><path clip-path="url(#clip810)" d="M2038.84 257.802 L2032.5 275.001 L2045.2 275.001 L2038.84 257.802 M2036.2 253.196 L2041.5 253.196 L2054.67 287.756 L2049.81 287.756 L2046.66 278.89 L2031.08 278.89 L2027.94 287.756 L2023 287.756 L2036.2 253.196 Z" fill="#000000" fill-rule="nonzero" fill-opacity="1" /><path clip-path="url(#clip810)" d="M2081.08 272.108 L2081.08 287.756 L2076.82 287.756 L2076.82 272.247 Q2076.82 268.566 2075.39 266.737 Q2073.95 264.909 2071.08 264.909 Q2067.63 264.909 2065.64 267.108 Q2063.65 269.307 2063.65 273.103 L2063.65 287.756 L2059.37 287.756 L2059.37 261.83 L2063.65 261.83 L2063.65 265.858 Q2065.18 263.52 2067.24 262.362 Q2069.32 261.205 2072.03 261.205 Q2076.5 261.205 2078.79 263.983 Q2081.08 266.737 2081.08 272.108 Z" fill="#000000" fill-rule="nonzero" fill-opacity="1" /><path clip-path="url(#clip810)" d="M2106.64 265.765 L2106.64 251.737 L2110.9 251.737 L2110.9 287.756 L2106.64 287.756 L2106.64 283.867 Q2105.3 286.182 2103.24 287.316 Q2101.2 288.427 2098.33 288.427 Q2093.63 288.427 2090.67 284.677 Q2087.73 280.927 2087.73 274.816 Q2087.73 268.705 2090.67 264.955 Q2093.63 261.205 2098.33 261.205 Q2101.2 261.205 2103.24 262.339 Q2105.3 263.45 2106.64 265.765 M2092.12 274.816 Q2092.12 279.515 2094.05 282.2 Q2095.99 284.862 2099.37 284.862 Q2102.75 284.862 2104.69 282.2 Q2106.64 279.515 2106.64 274.816 Q2106.64 270.117 2104.69 267.455 Q2102.75 264.77 2099.37 264.77 Q2095.99 264.77 2094.05 267.455 Q2092.12 270.117 2092.12 274.816 Z" fill="#000000" fill-rule="nonzero" fill-opacity="1" /><path clip-path="url(#clip810)" d="M2134.69 265.811 Q2133.98 265.395 2133.12 265.21 Q2132.29 265.001 2131.27 265.001 Q2127.66 265.001 2125.71 267.362 Q2123.79 269.7 2123.79 274.098 L2123.79 287.756 L2119.51 287.756 L2119.51 261.83 L2123.79 261.83 L2123.79 265.858 Q2125.13 263.497 2127.29 262.362 Q2129.44 261.205 2132.52 261.205 Q2132.96 261.205 2133.49 261.274 Q2134.02 261.321 2134.67 261.436 L2134.69 265.811 Z" fill="#000000" fill-rule="nonzero" fill-opacity="1" /><path clip-path="url(#clip810)" d="M2160.3 273.728 L2160.3 275.811 L2140.71 275.811 Q2140.99 280.209 2143.35 282.524 Q2145.74 284.816 2149.97 284.816 Q2152.43 284.816 2154.72 284.214 Q2157.03 283.612 2159.3 282.409 L2159.3 286.436 Q2157.01 287.408 2154.6 287.918 Q2152.19 288.427 2149.72 288.427 Q2143.51 288.427 2139.88 284.816 Q2136.27 281.205 2136.27 275.047 Q2136.27 268.682 2139.69 264.955 Q2143.14 261.205 2148.98 261.205 Q2154.21 261.205 2157.24 264.585 Q2160.3 267.941 2160.3 273.728 M2156.04 272.478 Q2155.99 268.983 2154.07 266.899 Q2152.17 264.816 2149.02 264.816 Q2145.46 264.816 2143.31 266.83 Q2141.18 268.844 2140.85 272.501 L2156.04 272.478 Z" fill="#000000" fill-rule="nonzero" fill-opacity="1" /><path clip-path="url(#clip810)" d="M2167.29 261.83 L2171.55 261.83 L2171.55 287.756 L2167.29 287.756 L2167.29 261.83 M2167.29 251.737 L2171.55 251.737 L2171.55 257.131 L2167.29 257.131 L2167.29 251.737 Z" fill="#000000" fill-rule="nonzero" fill-opacity="1" /><path clip-path="url(#clip810)" d="M2200.16 295.626 L2200.16 298.936 L2175.53 298.936 L2175.53 295.626 L2200.16 295.626 Z" fill="#000000" fill-rule="nonzero" fill-opacity="1" /><path clip-path="url(#clip810)" d="M2215.94 274.723 Q2210.78 274.723 2208.79 275.904 Q2206.8 277.084 2206.8 279.932 Q2206.8 282.2 2208.28 283.543 Q2209.79 284.862 2212.36 284.862 Q2215.9 284.862 2218.03 282.362 Q2220.18 279.839 2220.18 275.672 L2220.18 274.723 L2215.94 274.723 M2224.44 272.964 L2224.44 287.756 L2220.18 287.756 L2220.18 283.821 Q2218.72 286.182 2216.55 287.316 Q2214.37 288.427 2211.22 288.427 Q2207.24 288.427 2204.88 286.205 Q2202.54 283.959 2202.54 280.209 Q2202.54 275.834 2205.46 273.612 Q2208.4 271.39 2214.21 271.39 L2220.18 271.39 L2220.18 270.973 Q2220.18 268.034 2218.24 266.436 Q2216.31 264.816 2212.82 264.816 Q2210.6 264.816 2208.49 265.348 Q2206.38 265.881 2204.44 266.946 L2204.44 263.01 Q2206.78 262.108 2208.98 261.668 Q2211.18 261.205 2213.26 261.205 Q2218.88 261.205 2221.66 264.122 Q2224.44 267.038 2224.44 272.964 Z" fill="#000000" fill-rule="nonzero" fill-opacity="1" /><path clip-path="url(#clip810)" d="M2233.21 251.737 L2237.47 251.737 L2237.47 287.756 L2233.21 287.756 L2233.21 251.737 Z" fill="#000000" fill-rule="nonzero" fill-opacity="1" /><path clip-path="url(#clip810)" d="M2250.6 254.469 L2250.6 261.83 L2259.37 261.83 L2259.37 265.14 L2250.6 265.14 L2250.6 279.214 Q2250.6 282.385 2251.45 283.288 Q2252.33 284.191 2254.99 284.191 L2259.37 284.191 L2259.37 287.756 L2254.99 287.756 Q2250.06 287.756 2248.19 285.927 Q2246.31 284.075 2246.31 279.214 L2246.31 265.14 L2243.19 265.14 L2243.19 261.83 L2246.31 261.83 L2246.31 254.469 L2250.6 254.469 Z" fill="#000000" fill-rule="nonzero" fill-opacity="1" /><polyline clip-path="url(#clip810)" style="stroke:#3da44d; stroke-linecap:round; stroke-linejoin:round; stroke-width:4; stroke-opacity:1; fill:none" points="1772.84,322.316 1912.92,322.316 "/>
<path clip-path="url(#clip810)" d="M1936.27 305.036 L1940.95 305.036 L1940.95 335.661 L1957.77 335.661 L1957.77 339.596 L1936.27 339.596 L1936.27 305.036 Z" fill="#000000" fill-rule="nonzero" fill-opacity="1" /><path clip-path="url(#clip810)" d="M1962.68 305.036 L1969.65 305.036 L1978.47 328.554 L1987.33 305.036 L1994.3 305.036 L1994.3 339.596 L1989.74 339.596 L1989.74 309.249 L1980.83 332.952 L1976.13 332.952 L1967.22 309.249 L1967.22 339.596 L1962.68 339.596 L1962.68 305.036 Z" fill="#000000" fill-rule="nonzero" fill-opacity="1" /><path clip-path="url(#clip810)" d="M2023.1 347.466 L2023.1 350.776 L1998.47 350.776 L1998.47 347.466 L2023.1 347.466 Z" fill="#000000" fill-rule="nonzero" fill-opacity="1" /><path clip-path="url(#clip810)" d="M2038.84 309.642 L2032.5 326.841 L2045.2 326.841 L2038.84 309.642 M2036.2 305.036 L2041.5 305.036 L2054.67 339.596 L2049.81 339.596 L2046.66 330.73 L2031.08 330.73 L2027.94 339.596 L2023 339.596 L2036.2 305.036 Z" fill="#000000" fill-rule="nonzero" fill-opacity="1" /><path clip-path="url(#clip810)" d="M2081.08 323.948 L2081.08 339.596 L2076.82 339.596 L2076.82 324.087 Q2076.82 320.406 2075.39 318.577 Q2073.95 316.749 2071.08 316.749 Q2067.63 316.749 2065.64 318.948 Q2063.65 321.147 2063.65 324.943 L2063.65 339.596 L2059.37 339.596 L2059.37 313.67 L2063.65 313.67 L2063.65 317.698 Q2065.18 315.36 2067.24 314.202 Q2069.32 313.045 2072.03 313.045 Q2076.5 313.045 2078.79 315.823 Q2081.08 318.577 2081.08 323.948 Z" fill="#000000" fill-rule="nonzero" fill-opacity="1" /><path clip-path="url(#clip810)" d="M2106.64 317.605 L2106.64 303.577 L2110.9 303.577 L2110.9 339.596 L2106.64 339.596 L2106.64 335.707 Q2105.3 338.022 2103.24 339.156 Q2101.2 340.267 2098.33 340.267 Q2093.63 340.267 2090.67 336.517 Q2087.73 332.767 2087.73 326.656 Q2087.73 320.545 2090.67 316.795 Q2093.63 313.045 2098.33 313.045 Q2101.2 313.045 2103.24 314.179 Q2105.3 315.29 2106.64 317.605 M2092.12 326.656 Q2092.12 331.355 2094.05 334.04 Q2095.99 336.702 2099.37 336.702 Q2102.75 336.702 2104.69 334.04 Q2106.64 331.355 2106.64 326.656 Q2106.64 321.957 2104.69 319.295 Q2102.75 316.61 2099.37 316.61 Q2095.99 316.61 2094.05 319.295 Q2092.12 321.957 2092.12 326.656 Z" fill="#000000" fill-rule="nonzero" fill-opacity="1" /><path clip-path="url(#clip810)" d="M2134.69 317.651 Q2133.98 317.235 2133.12 317.05 Q2132.29 316.841 2131.27 316.841 Q2127.66 316.841 2125.71 319.202 Q2123.79 321.54 2123.79 325.938 L2123.79 339.596 L2119.51 339.596 L2119.51 313.67 L2123.79 313.67 L2123.79 317.698 Q2125.13 315.337 2127.29 314.202 Q2129.44 313.045 2132.52 313.045 Q2132.96 313.045 2133.49 313.114 Q2134.02 313.161 2134.67 313.276 L2134.69 317.651 Z" fill="#000000" fill-rule="nonzero" fill-opacity="1" /><path clip-path="url(#clip810)" d="M2160.3 325.568 L2160.3 327.651 L2140.71 327.651 Q2140.99 332.049 2143.35 334.364 Q2145.74 336.656 2149.97 336.656 Q2152.43 336.656 2154.72 336.054 Q2157.03 335.452 2159.3 334.249 L2159.3 338.276 Q2157.01 339.248 2154.6 339.758 Q2152.19 340.267 2149.72 340.267 Q2143.51 340.267 2139.88 336.656 Q2136.27 333.045 2136.27 326.887 Q2136.27 320.522 2139.69 316.795 Q2143.14 313.045 2148.98 313.045 Q2154.21 313.045 2157.24 316.425 Q2160.3 319.781 2160.3 325.568 M2156.04 324.318 Q2155.99 320.823 2154.07 318.739 Q2152.17 316.656 2149.02 316.656 Q2145.46 316.656 2143.31 318.67 Q2141.18 320.684 2140.85 324.341 L2156.04 324.318 Z" fill="#000000" fill-rule="nonzero" fill-opacity="1" /><path clip-path="url(#clip810)" d="M2167.29 313.67 L2171.55 313.67 L2171.55 339.596 L2167.29 339.596 L2167.29 313.67 M2167.29 303.577 L2171.55 303.577 L2171.55 308.971 L2167.29 308.971 L2167.29 303.577 Z" fill="#000000" fill-rule="nonzero" fill-opacity="1" /><polyline clip-path="url(#clip810)" style="stroke:#c271d2; stroke-linecap:round; stroke-linejoin:round; stroke-width:4; stroke-opacity:1; fill:none" points="1772.84,374.156 1912.92,374.156 "/>
<path clip-path="url(#clip810)" d="M1936.27 356.876 L1940.95 356.876 L1940.95 387.501 L1957.77 387.501 L1957.77 391.436 L1936.27 391.436 L1936.27 356.876 Z" fill="#000000" fill-rule="nonzero" fill-opacity="1" /><path clip-path="url(#clip810)" d="M1962.68 356.876 L1969.65 356.876 L1978.47 380.394 L1987.33 356.876 L1994.3 356.876 L1994.3 391.436 L1989.74 391.436 L1989.74 361.089 L1980.83 384.792 L1976.13 384.792 L1967.22 361.089 L1967.22 391.436 L1962.68 391.436 L1962.68 356.876 Z" fill="#000000" fill-rule="nonzero" fill-opacity="1" /><path clip-path="url(#clip810)" d="M2023.1 399.306 L2023.1 402.616 L1998.47 402.616 L1998.47 399.306 L2023.1 399.306 Z" fill="#000000" fill-rule="nonzero" fill-opacity="1" /><path clip-path="url(#clip810)" d="M2048 358.01 L2048 362.57 Q2045.34 361.297 2042.98 360.672 Q2040.62 360.047 2038.42 360.047 Q2034.6 360.047 2032.52 361.528 Q2030.46 363.01 2030.46 365.741 Q2030.46 368.033 2031.82 369.214 Q2033.21 370.371 2037.06 371.089 L2039.88 371.667 Q2045.11 372.663 2047.59 375.186 Q2050.09 377.686 2050.09 381.899 Q2050.09 386.922 2046.71 389.514 Q2043.35 392.107 2036.85 392.107 Q2034.39 392.107 2031.62 391.551 Q2028.86 390.996 2025.9 389.908 L2025.9 385.093 Q2028.75 386.69 2031.48 387.501 Q2034.21 388.311 2036.85 388.311 Q2040.85 388.311 2043.03 386.737 Q2045.2 385.163 2045.2 382.246 Q2045.2 379.7 2043.63 378.264 Q2042.08 376.829 2038.51 376.112 L2035.67 375.556 Q2030.44 374.515 2028.1 372.292 Q2025.76 370.07 2025.76 366.112 Q2025.76 361.528 2028.98 358.89 Q2032.22 356.251 2037.89 356.251 Q2040.32 356.251 2042.84 356.691 Q2045.37 357.13 2048 358.01 Z" fill="#000000" fill-rule="nonzero" fill-opacity="1" /><path clip-path="url(#clip810)" d="M2062.06 360.718 L2062.06 373.704 L2067.94 373.704 Q2071.2 373.704 2072.98 372.015 Q2074.76 370.325 2074.76 367.2 Q2074.76 364.098 2072.98 362.408 Q2071.2 360.718 2067.94 360.718 L2062.06 360.718 M2057.38 356.876 L2067.94 356.876 Q2073.75 356.876 2076.71 359.515 Q2079.69 362.13 2079.69 367.2 Q2079.69 372.315 2076.71 374.931 Q2073.75 377.547 2067.94 377.547 L2062.06 377.547 L2062.06 391.436 L2057.38 391.436 L2057.38 356.876 Z" fill="#000000" fill-rule="nonzero" fill-opacity="1" /><path clip-path="url(#clip810)" d="M2109.53 386.505 L2109.53 377.223 L2101.89 377.223 L2101.89 373.38 L2114.16 373.38 L2114.16 388.218 Q2111.45 390.139 2108.19 391.135 Q2104.93 392.107 2101.22 392.107 Q2093.12 392.107 2088.54 387.385 Q2083.98 382.639 2083.98 374.19 Q2083.98 365.718 2088.54 360.996 Q2093.12 356.251 2101.22 356.251 Q2104.6 356.251 2107.63 357.084 Q2110.69 357.917 2113.26 359.538 L2113.26 364.515 Q2110.67 362.316 2107.75 361.204 Q2104.83 360.093 2101.62 360.093 Q2095.27 360.093 2092.08 363.635 Q2088.91 367.177 2088.91 374.19 Q2088.91 381.181 2092.08 384.723 Q2095.27 388.264 2101.62 388.264 Q2104.09 388.264 2106.04 387.848 Q2107.98 387.408 2109.53 386.505 Z" fill="#000000" fill-rule="nonzero" fill-opacity="1" /><path clip-path="url(#clip810)" d="M2142.22 399.306 L2142.22 402.616 L2117.59 402.616 L2117.59 399.306 L2142.22 399.306 Z" fill="#000000" fill-rule="nonzero" fill-opacity="1" /><path clip-path="url(#clip810)" d="M2158 378.403 Q2152.84 378.403 2150.85 379.584 Q2148.86 380.764 2148.86 383.612 Q2148.86 385.88 2150.34 387.223 Q2151.85 388.542 2154.42 388.542 Q2157.96 388.542 2160.09 386.042 Q2162.24 383.519 2162.24 379.352 L2162.24 378.403 L2158 378.403 M2166.5 376.644 L2166.5 391.436 L2162.24 391.436 L2162.24 387.501 Q2160.78 389.862 2158.61 390.996 Q2156.43 392.107 2153.28 392.107 Q2149.3 392.107 2146.94 389.885 Q2144.6 387.639 2144.6 383.889 Q2144.6 379.514 2147.52 377.292 Q2150.46 375.07 2156.27 375.07 L2162.24 375.07 L2162.24 374.653 Q2162.24 371.714 2160.3 370.116 Q2158.37 368.496 2154.88 368.496 Q2152.66 368.496 2150.55 369.028 Q2148.44 369.561 2146.5 370.626 L2146.5 366.69 Q2148.84 365.788 2151.04 365.348 Q2153.24 364.885 2155.32 364.885 Q2160.94 364.885 2163.72 367.802 Q2166.5 370.718 2166.5 376.644 Z" fill="#000000" fill-rule="nonzero" fill-opacity="1" /><path clip-path="url(#clip810)" d="M2175.27 355.417 L2179.53 355.417 L2179.53 391.436 L2175.27 391.436 L2175.27 355.417 Z" fill="#000000" fill-rule="nonzero" fill-opacity="1" /><path clip-path="url(#clip810)" d="M2192.66 358.149 L2192.66 365.51 L2201.43 365.51 L2201.43 368.82 L2192.66 368.82 L2192.66 382.894 Q2192.66 386.065 2193.51 386.968 Q2194.39 387.871 2197.05 387.871 L2201.43 387.871 L2201.43 391.436 L2197.05 391.436 Q2192.12 391.436 2190.25 389.607 Q2188.37 387.755 2188.37 382.894 L2188.37 368.82 L2185.25 368.82 L2185.25 365.51 L2188.37 365.51 L2188.37 358.149 L2192.66 358.149 Z" fill="#000000" fill-rule="nonzero" fill-opacity="1" /><polyline clip-path="url(#clip810)" style="stroke:#ac8d18; stroke-linecap:round; stroke-linejoin:round; stroke-width:4; stroke-opacity:1; fill:none" points="1772.84,425.996 1912.92,425.996 "/>
<path clip-path="url(#clip810)" d="M1936.27 408.716 L1940.95 408.716 L1940.95 439.341 L1957.77 439.341 L1957.77 443.276 L1936.27 443.276 L1936.27 408.716 Z" fill="#000000" fill-rule="nonzero" fill-opacity="1" /><path clip-path="url(#clip810)" d="M1962.68 408.716 L1969.65 408.716 L1978.47 432.234 L1987.33 408.716 L1994.3 408.716 L1994.3 443.276 L1989.74 443.276 L1989.74 412.929 L1980.83 436.632 L1976.13 436.632 L1967.22 412.929 L1967.22 443.276 L1962.68 443.276 L1962.68 408.716 Z" fill="#000000" fill-rule="nonzero" fill-opacity="1" /></svg>
