<?xml version="1.0" encoding="utf-8"?>
<svg xmlns="http://www.w3.org/2000/svg" xmlns:xlink="http://www.w3.org/1999/xlink" width="600" height="400" viewBox="0 0 2400 1600">
<defs>
  <clipPath id="clip850">
    <rect x="0" y="0" width="2400" height="1600"/>
  </clipPath>
</defs>
<path clip-path="url(#clip850)" d="M0 1600 L2400 1600 L2400 0 L0 0  Z" fill="#ffffff" fill-rule="evenodd" fill-opacity="1"/>
<defs>
  <clipPath id="clip851">
    <rect x="480" y="0" width="1681" height="1600"/>
  </clipPath>
</defs>
<path clip-path="url(#clip850)" d="M313.626 1423.18 L2352.76 1423.18 L2352.76 123.472 L313.626 123.472  Z" fill="#ffffff" fill-rule="evenodd" fill-opacity="1"/>
<defs>
  <clipPath id="clip852">
    <rect x="313" y="123" width="2040" height="1301"/>
  </clipPath>
</defs>
<polyline clip-path="url(#clip852)" style="stroke:#000000; stroke-linecap:round; stroke-linejoin:round; stroke-width:2; stroke-opacity:0.1; fill:none" points="367.497,1423.18 367.497,123.472 "/>
<polyline clip-path="url(#clip852)" style="stroke:#000000; stroke-linecap:round; stroke-linejoin:round; stroke-width:2; stroke-opacity:0.1; fill:none" points="751.471,1423.18 751.471,123.472 "/>
<polyline clip-path="url(#clip852)" style="stroke:#000000; stroke-linecap:round; stroke-linejoin:round; stroke-width:2; stroke-opacity:0.1; fill:none" points="1135.44,1423.18 1135.44,123.472 "/>
<polyline clip-path="url(#clip852)" style="stroke:#000000; stroke-linecap:round; stroke-linejoin:round; stroke-width:2; stroke-opacity:0.1; fill:none" points="1519.42,1423.18 1519.42,123.472 "/>
<polyline clip-path="url(#clip852)" style="stroke:#000000; stroke-linecap:round; stroke-linejoin:round; stroke-width:2; stroke-opacity:0.1; fill:none" points="1903.39,1423.18 1903.39,123.472 "/>
<polyline clip-path="url(#clip852)" style="stroke:#000000; stroke-linecap:round; stroke-linejoin:round; stroke-width:2; stroke-opacity:0.1; fill:none" points="2287.37,1423.18 2287.37,123.472 "/>
<polyline clip-path="url(#clip850)" style="stroke:#000000; stroke-linecap:round; stroke-linejoin:round; stroke-width:4; stroke-opacity:1; fill:none" points="313.626,1423.18 2352.76,1423.18 "/>
<polyline clip-path="url(#clip850)" style="stroke:#000000; stroke-linecap:round; stroke-linejoin:round; stroke-width:4; stroke-opacity:1; fill:none" points="367.497,1423.18 367.497,1404.28 "/>
<polyline clip-path="url(#clip850)" style="stroke:#000000; stroke-linecap:round; stroke-linejoin:round; stroke-width:4; stroke-opacity:1; fill:none" points="751.471,1423.18 751.471,1404.28 "/>
<polyline clip-path="url(#clip850)" style="stroke:#000000; stroke-linecap:round; stroke-linejoin:round; stroke-width:4; stroke-opacity:1; fill:none" points="1135.44,1423.18 1135.44,1404.28 "/>
<polyline clip-path="url(#clip850)" style="stroke:#000000; stroke-linecap:round; stroke-linejoin:round; stroke-width:4; stroke-opacity:1; fill:none" points="1519.42,1423.18 1519.42,1404.28 "/>
<polyline clip-path="url(#clip850)" style="stroke:#000000; stroke-linecap:round; stroke-linejoin:round; stroke-width:4; stroke-opacity:1; fill:none" points="1903.39,1423.18 1903.39,1404.28 "/>
<polyline clip-path="url(#clip850)" style="stroke:#000000; stroke-linecap:round; stroke-linejoin:round; stroke-width:4; stroke-opacity:1; fill:none" points="2287.37,1423.18 2287.37,1404.28 "/>
<path clip-path="url(#clip850)" d="M367.497 1454.1 Q363.886 1454.1 362.058 1457.66 Q360.252 1461.2 360.252 1468.33 Q360.252 1475.44 362.058 1479.01 Q363.886 1482.55 367.497 1482.55 Q371.132 1482.55 372.937 1479.01 Q374.766 1475.44 374.766 1468.33 Q374.766 1461.2 372.937 1457.66 Q371.132 1454.1 367.497 1454.1 M367.497 1450.39 Q373.308 1450.39 376.363 1455 Q379.442 1459.58 379.442 1468.33 Q379.442 1477.06 376.363 1481.67 Q373.308 1486.25 367.497 1486.25 Q361.687 1486.25 358.609 1481.67 Q355.553 1477.06 355.553 1468.33 Q355.553 1459.58 358.609 1455 Q361.687 1450.39 367.497 1450.39 Z" fill="#000000" fill-rule="nonzero" fill-opacity="1" /><path clip-path="url(#clip850)" d="M711.078 1481.64 L718.716 1481.64 L718.716 1455.28 L710.406 1456.95 L710.406 1452.69 L718.67 1451.02 L723.346 1451.02 L723.346 1481.64 L730.985 1481.64 L730.985 1485.58 L711.078 1485.58 L711.078 1481.64 Z" fill="#000000" fill-rule="nonzero" fill-opacity="1" /><path clip-path="url(#clip850)" d="M750.429 1454.1 Q746.818 1454.1 744.99 1457.66 Q743.184 1461.2 743.184 1468.33 Q743.184 1475.44 744.99 1479.01 Q746.818 1482.55 750.429 1482.55 Q754.064 1482.55 755.869 1479.01 Q757.698 1475.44 757.698 1468.33 Q757.698 1461.2 755.869 1457.66 Q754.064 1454.1 750.429 1454.1 M750.429 1450.39 Q756.239 1450.39 759.295 1455 Q762.374 1459.58 762.374 1468.33 Q762.374 1477.06 759.295 1481.67 Q756.239 1486.25 750.429 1486.25 Q744.619 1486.25 741.54 1481.67 Q738.485 1477.06 738.485 1468.33 Q738.485 1459.58 741.54 1455 Q744.619 1450.39 750.429 1450.39 Z" fill="#000000" fill-rule="nonzero" fill-opacity="1" /><path clip-path="url(#clip850)" d="M780.591 1454.1 Q776.98 1454.1 775.151 1457.66 Q773.346 1461.2 773.346 1468.33 Q773.346 1475.44 775.151 1479.01 Q776.98 1482.55 780.591 1482.55 Q784.225 1482.55 786.031 1479.01 Q787.86 1475.44 787.86 1468.33 Q787.86 1461.2 786.031 1457.66 Q784.225 1454.1 780.591 1454.1 M780.591 1450.39 Q786.401 1450.39 789.457 1455 Q792.536 1459.58 792.536 1468.33 Q792.536 1477.06 789.457 1481.67 Q786.401 1486.25 780.591 1486.25 Q774.781 1486.25 771.702 1481.67 Q768.647 1477.06 768.647 1468.33 Q768.647 1459.58 771.702 1455 Q774.781 1450.39 780.591 1450.39 Z" fill="#000000" fill-rule="nonzero" fill-opacity="1" /><path clip-path="url(#clip850)" d="M1099.14 1481.64 L1115.46 1481.64 L1115.46 1485.58 L1093.51 1485.58 L1093.51 1481.64 Q1096.17 1478.89 1100.76 1474.26 Q1105.36 1469.61 1106.54 1468.27 Q1108.79 1465.74 1109.67 1464.01 Q1110.57 1462.25 1110.57 1460.56 Q1110.57 1457.8 1108.63 1456.07 Q1106.71 1454.33 1103.6 1454.33 Q1101.41 1454.33 1098.95 1455.09 Q1096.52 1455.86 1093.74 1457.41 L1093.74 1452.69 Q1096.57 1451.55 1099.02 1450.97 Q1101.47 1450.39 1103.51 1450.39 Q1108.88 1450.39 1112.08 1453.08 Q1115.27 1455.77 1115.27 1460.26 Q1115.27 1462.39 1114.46 1464.31 Q1113.67 1466.2 1111.57 1468.8 Q1110.99 1469.47 1107.89 1472.69 Q1104.78 1475.88 1099.14 1481.64 Z" fill="#000000" fill-rule="nonzero" fill-opacity="1" /><path clip-path="url(#clip850)" d="M1135.27 1454.1 Q1131.66 1454.1 1129.83 1457.66 Q1128.03 1461.2 1128.03 1468.33 Q1128.03 1475.44 1129.83 1479.01 Q1131.66 1482.55 1135.27 1482.55 Q1138.91 1482.55 1140.71 1479.01 Q1142.54 1475.44 1142.54 1468.33 Q1142.54 1461.2 1140.71 1457.66 Q1138.91 1454.1 1135.27 1454.1 M1135.27 1450.39 Q1141.08 1450.39 1144.14 1455 Q1147.22 1459.58 1147.22 1468.33 Q1147.22 1477.06 1144.14 1481.67 Q1141.08 1486.25 1135.27 1486.25 Q1129.46 1486.25 1126.38 1481.67 Q1123.33 1477.06 1123.33 1468.33 Q1123.33 1459.58 1126.38 1455 Q1129.46 1450.39 1135.27 1450.39 Z" fill="#000000" fill-rule="nonzero" fill-opacity="1" /><path clip-path="url(#clip850)" d="M1165.43 1454.1 Q1161.82 1454.1 1159.99 1457.66 Q1158.19 1461.2 1158.19 1468.33 Q1158.19 1475.44 1159.99 1479.01 Q1161.82 1482.55 1165.43 1482.55 Q1169.07 1482.55 1170.87 1479.01 Q1172.7 1475.44 1172.7 1468.33 Q1172.7 1461.2 1170.87 1457.66 Q1169.07 1454.1 1165.43 1454.1 M1165.43 1450.39 Q1171.24 1450.39 1174.3 1455 Q1177.38 1459.58 1177.38 1468.33 Q1177.38 1477.06 1174.3 1481.67 Q1171.24 1486.25 1165.43 1486.25 Q1159.62 1486.25 1156.54 1481.67 Q1153.49 1477.06 1153.49 1468.33 Q1153.49 1459.58 1156.54 1455 Q1159.62 1450.39 1165.43 1450.39 Z" fill="#000000" fill-rule="nonzero" fill-opacity="1" /><path clip-path="url(#clip850)" d="M1493.18 1466.95 Q1496.54 1467.66 1498.41 1469.93 Q1500.31 1472.2 1500.31 1475.53 Q1500.31 1480.65 1496.79 1483.45 Q1493.27 1486.25 1486.79 1486.25 Q1484.62 1486.25 1482.3 1485.81 Q1480.01 1485.39 1477.55 1484.54 L1477.55 1480.02 Q1479.5 1481.16 1481.81 1481.74 Q1484.13 1482.32 1486.65 1482.32 Q1491.05 1482.32 1493.34 1480.58 Q1495.66 1478.84 1495.66 1475.53 Q1495.66 1472.48 1493.5 1470.77 Q1491.37 1469.03 1487.55 1469.03 L1483.53 1469.03 L1483.53 1465.19 L1487.74 1465.19 Q1491.19 1465.19 1493.02 1463.82 Q1494.85 1462.43 1494.85 1459.84 Q1494.85 1457.18 1492.95 1455.77 Q1491.07 1454.33 1487.55 1454.33 Q1485.63 1454.33 1483.43 1454.75 Q1481.24 1455.16 1478.6 1456.04 L1478.6 1451.88 Q1481.26 1451.14 1483.57 1450.77 Q1485.91 1450.39 1487.97 1450.39 Q1493.3 1450.39 1496.4 1452.83 Q1499.5 1455.23 1499.5 1459.35 Q1499.5 1462.22 1497.86 1464.21 Q1496.21 1466.18 1493.18 1466.95 Z" fill="#000000" fill-rule="nonzero" fill-opacity="1" /><path clip-path="url(#clip850)" d="M1519.18 1454.1 Q1515.56 1454.1 1513.74 1457.66 Q1511.93 1461.2 1511.93 1468.33 Q1511.93 1475.44 1513.74 1479.01 Q1515.56 1482.55 1519.18 1482.55 Q1522.81 1482.55 1524.61 1479.01 Q1526.44 1475.44 1526.44 1468.33 Q1526.44 1461.2 1524.61 1457.66 Q1522.81 1454.1 1519.18 1454.1 M1519.18 1450.39 Q1524.99 1450.39 1528.04 1455 Q1531.12 1459.58 1531.12 1468.33 Q1531.12 1477.06 1528.04 1481.67 Q1524.99 1486.25 1519.18 1486.25 Q1513.36 1486.25 1510.29 1481.67 Q1507.23 1477.06 1507.23 1468.33 Q1507.23 1459.58 1510.29 1455 Q1513.36 1450.39 1519.18 1450.39 Z" fill="#000000" fill-rule="nonzero" fill-opacity="1" /><path clip-path="url(#clip850)" d="M1549.34 1454.1 Q1545.73 1454.1 1543.9 1457.66 Q1542.09 1461.2 1542.09 1468.33 Q1542.09 1475.44 1543.9 1479.01 Q1545.73 1482.55 1549.34 1482.55 Q1552.97 1482.55 1554.78 1479.01 Q1556.61 1475.44 1556.61 1468.33 Q1556.61 1461.2 1554.78 1457.66 Q1552.97 1454.1 1549.34 1454.1 M1549.34 1450.39 Q1555.15 1450.39 1558.2 1455 Q1561.28 1459.58 1561.28 1468.33 Q1561.28 1477.06 1558.2 1481.67 Q1555.15 1486.25 1549.34 1486.25 Q1543.53 1486.25 1540.45 1481.67 Q1537.39 1477.06 1537.39 1468.33 Q1537.39 1459.58 1540.45 1455 Q1543.53 1450.39 1549.34 1450.39 Z" fill="#000000" fill-rule="nonzero" fill-opacity="1" /><path clip-path="url(#clip850)" d="M1876.48 1455.09 L1864.68 1473.54 L1876.48 1473.54 L1876.48 1455.09 M1875.26 1451.02 L1881.13 1451.02 L1881.13 1473.54 L1886.07 1473.54 L1886.07 1477.43 L1881.13 1477.43 L1881.13 1485.58 L1876.48 1485.58 L1876.48 1477.43 L1860.88 1477.43 L1860.88 1472.92 L1875.26 1451.02 Z" fill="#000000" fill-rule="nonzero" fill-opacity="1" /><path clip-path="url(#clip850)" d="M1903.8 1454.1 Q1900.19 1454.1 1898.36 1457.66 Q1896.55 1461.2 1896.55 1468.33 Q1896.55 1475.44 1898.36 1479.01 Q1900.19 1482.55 1903.8 1482.55 Q1907.43 1482.55 1909.24 1479.01 Q1911.07 1475.44 1911.07 1468.33 Q1911.07 1461.2 1909.24 1457.66 Q1907.43 1454.1 1903.8 1454.1 M1903.8 1450.39 Q1909.61 1450.39 1912.66 1455 Q1915.74 1459.58 1915.74 1468.33 Q1915.74 1477.06 1912.66 1481.67 Q1909.61 1486.25 1903.8 1486.25 Q1897.99 1486.25 1894.91 1481.67 Q1891.85 1477.06 1891.85 1468.33 Q1891.85 1459.58 1894.91 1455 Q1897.99 1450.39 1903.8 1450.39 Z" fill="#000000" fill-rule="nonzero" fill-opacity="1" /><path clip-path="url(#clip850)" d="M1933.96 1454.1 Q1930.35 1454.1 1928.52 1457.66 Q1926.71 1461.2 1926.71 1468.33 Q1926.71 1475.44 1928.52 1479.01 Q1930.35 1482.55 1933.96 1482.55 Q1937.59 1482.55 1939.4 1479.01 Q1941.23 1475.44 1941.23 1468.33 Q1941.23 1461.2 1939.4 1457.66 Q1937.59 1454.1 1933.96 1454.1 M1933.96 1450.39 Q1939.77 1450.39 1942.82 1455 Q1945.9 1459.58 1945.9 1468.33 Q1945.9 1477.06 1942.82 1481.67 Q1939.77 1486.25 1933.96 1486.25 Q1928.15 1486.25 1925.07 1481.67 Q1922.01 1477.06 1922.01 1468.33 Q1922.01 1459.58 1925.07 1455 Q1928.15 1450.39 1933.96 1450.39 Z" fill="#000000" fill-rule="nonzero" fill-opacity="1" /><path clip-path="url(#clip850)" d="M2246.98 1451.02 L2265.34 1451.02 L2265.34 1454.96 L2251.27 1454.96 L2251.27 1463.43 Q2252.28 1463.08 2253.3 1462.92 Q2254.32 1462.73 2255.34 1462.73 Q2261.13 1462.73 2264.51 1465.9 Q2267.89 1469.08 2267.89 1474.49 Q2267.89 1480.07 2264.41 1483.17 Q2260.94 1486.25 2254.62 1486.25 Q2252.45 1486.25 2250.18 1485.88 Q2247.93 1485.51 2245.53 1484.77 L2245.53 1480.07 Q2247.61 1481.2 2249.83 1481.76 Q2252.05 1482.32 2254.53 1482.32 Q2258.53 1482.32 2260.87 1480.21 Q2263.21 1478.1 2263.21 1474.49 Q2263.21 1470.88 2260.87 1468.77 Q2258.53 1466.67 2254.53 1466.67 Q2252.65 1466.67 2250.78 1467.08 Q2248.93 1467.5 2246.98 1468.38 L2246.98 1451.02 Z" fill="#000000" fill-rule="nonzero" fill-opacity="1" /><path clip-path="url(#clip850)" d="M2287.1 1454.1 Q2283.49 1454.1 2281.66 1457.66 Q2279.85 1461.2 2279.85 1468.33 Q2279.85 1475.44 2281.66 1479.01 Q2283.49 1482.55 2287.1 1482.55 Q2290.73 1482.55 2292.54 1479.01 Q2294.37 1475.44 2294.37 1468.33 Q2294.37 1461.2 2292.54 1457.66 Q2290.73 1454.1 2287.1 1454.1 M2287.1 1450.39 Q2292.91 1450.39 2295.96 1455 Q2299.04 1459.58 2299.04 1468.33 Q2299.04 1477.06 2295.96 1481.67 Q2292.91 1486.25 2287.1 1486.25 Q2281.29 1486.25 2278.21 1481.67 Q2275.15 1477.06 2275.15 1468.33 Q2275.15 1459.58 2278.21 1455 Q2281.29 1450.39 2287.1 1450.39 Z" fill="#000000" fill-rule="nonzero" fill-opacity="1" /><path clip-path="url(#clip850)" d="M2317.26 1454.1 Q2313.65 1454.1 2311.82 1457.66 Q2310.02 1461.2 2310.02 1468.33 Q2310.02 1475.44 2311.82 1479.01 Q2313.65 1482.55 2317.26 1482.55 Q2320.9 1482.55 2322.7 1479.01 Q2324.53 1475.44 2324.53 1468.33 Q2324.53 1461.2 2322.7 1457.66 Q2320.9 1454.1 2317.26 1454.1 M2317.26 1450.39 Q2323.07 1450.39 2326.13 1455 Q2329.21 1459.58 2329.21 1468.33 Q2329.21 1477.06 2326.13 1481.67 Q2323.07 1486.25 2317.26 1486.25 Q2311.45 1486.25 2308.37 1481.67 Q2305.32 1477.06 2305.32 1468.33 Q2305.32 1459.58 2308.37 1455 Q2311.45 1450.39 2317.26 1450.39 Z" fill="#000000" fill-rule="nonzero" fill-opacity="1" /><path clip-path="url(#clip850)" d="M1317.37 1518.52 L1323.26 1518.52 L1323.26 1547.77 L1340.73 1532.4 L1348.21 1532.4 L1329.31 1549.07 L1349.01 1568.04 L1341.37 1568.04 L1323.26 1550.63 L1323.26 1568.04 L1317.37 1568.04 L1317.37 1518.52 Z" fill="#000000" fill-rule="nonzero" fill-opacity="1" /><polyline clip-path="url(#clip852)" style="stroke:#000000; stroke-linecap:round; stroke-linejoin:round; stroke-width:2; stroke-opacity:0.1; fill:none" points="313.626,991.763 2352.76,991.763 "/>
<polyline clip-path="url(#clip852)" style="stroke:#000000; stroke-linecap:round; stroke-linejoin:round; stroke-width:2; stroke-opacity:0.1; fill:none" points="313.626,525.451 2352.76,525.451 "/>
<polyline clip-path="url(#clip850)" style="stroke:#000000; stroke-linecap:round; stroke-linejoin:round; stroke-width:4; stroke-opacity:1; fill:none" points="313.626,1423.18 313.626,123.472 "/>
<polyline clip-path="url(#clip850)" style="stroke:#000000; stroke-linecap:round; stroke-linejoin:round; stroke-width:4; stroke-opacity:1; fill:none" points="313.626,991.763 332.524,991.763 "/>
<polyline clip-path="url(#clip850)" style="stroke:#000000; stroke-linecap:round; stroke-linejoin:round; stroke-width:4; stroke-opacity:1; fill:none" points="313.626,525.451 332.524,525.451 "/>
<path clip-path="url(#clip850)" d="M114.931 1011.56 L122.57 1011.56 L122.57 985.19 L114.26 986.857 L114.26 982.597 L122.524 980.931 L127.2 980.931 L127.2 1011.56 L134.839 1011.56 L134.839 1015.49 L114.931 1015.49 L114.931 1011.56 Z" fill="#000000" fill-rule="nonzero" fill-opacity="1" /><path clip-path="url(#clip850)" d="M154.283 984.01 Q150.672 984.01 148.843 987.574 Q147.038 991.116 147.038 998.246 Q147.038 1005.35 148.843 1008.92 Q150.672 1012.46 154.283 1012.46 Q157.917 1012.46 159.723 1008.92 Q161.552 1005.35 161.552 998.246 Q161.552 991.116 159.723 987.574 Q157.917 984.01 154.283 984.01 M154.283 980.306 Q160.093 980.306 163.149 984.912 Q166.227 989.496 166.227 998.246 Q166.227 1006.97 163.149 1011.58 Q160.093 1016.16 154.283 1016.16 Q148.473 1016.16 145.394 1011.58 Q142.339 1006.97 142.339 998.246 Q142.339 989.496 145.394 984.912 Q148.473 980.306 154.283 980.306 Z" fill="#000000" fill-rule="nonzero" fill-opacity="1" /><path clip-path="url(#clip850)" d="M166.227 974.407 L190.339 974.407 L190.339 977.605 L166.227 977.605 L166.227 974.407 Z" fill="#000000" fill-rule="nonzero" fill-opacity="1" /><path clip-path="url(#clip850)" d="M206.664 962.502 Q203.73 962.502 202.244 965.398 Q200.777 968.276 200.777 974.069 Q200.777 979.843 202.244 982.739 Q203.73 985.617 206.664 985.617 Q209.617 985.617 211.084 982.739 Q212.57 979.843 212.57 974.069 Q212.57 968.276 211.084 965.398 Q209.617 962.502 206.664 962.502 M206.664 959.493 Q211.385 959.493 213.868 963.235 Q216.369 966.959 216.369 974.069 Q216.369 981.159 213.868 984.902 Q211.385 988.626 206.664 988.626 Q201.943 988.626 199.442 984.902 Q196.959 981.159 196.959 974.069 Q196.959 966.959 199.442 963.235 Q201.943 959.493 206.664 959.493 Z" fill="#000000" fill-rule="nonzero" fill-opacity="1" /><path clip-path="url(#clip850)" d="M223.046 983.303 L227.014 983.303 L227.014 988.08 L223.046 988.08 L223.046 983.303 Z" fill="#000000" fill-rule="nonzero" fill-opacity="1" /><path clip-path="url(#clip850)" d="M235.327 960 L250.242 960 L250.242 963.198 L238.807 963.198 L238.807 970.081 Q239.634 969.799 240.462 969.668 Q241.289 969.517 242.117 969.517 Q246.819 969.517 249.565 972.094 Q252.311 974.67 252.311 979.072 Q252.311 983.604 249.489 986.124 Q246.668 988.626 241.534 988.626 Q239.766 988.626 237.923 988.325 Q236.098 988.024 234.142 987.422 L234.142 983.604 Q235.835 984.526 237.641 984.977 Q239.446 985.429 241.459 985.429 Q244.712 985.429 246.612 983.717 Q248.511 982.006 248.511 979.072 Q248.511 976.138 246.612 974.426 Q244.712 972.714 241.459 972.714 Q239.935 972.714 238.412 973.053 Q236.907 973.392 235.327 974.106 L235.327 960 Z" fill="#000000" fill-rule="nonzero" fill-opacity="1" /><path clip-path="url(#clip850)" d="M267.921 962.502 Q264.987 962.502 263.501 965.398 Q262.034 968.276 262.034 974.069 Q262.034 979.843 263.501 982.739 Q264.987 985.617 267.921 985.617 Q270.874 985.617 272.341 982.739 Q273.827 979.843 273.827 974.069 Q273.827 968.276 272.341 965.398 Q270.874 962.502 267.921 962.502 M267.921 959.493 Q272.642 959.493 275.124 963.235 Q277.626 966.959 277.626 974.069 Q277.626 981.159 275.124 984.902 Q272.642 988.626 267.921 988.626 Q263.2 988.626 260.699 984.902 Q258.216 981.159 258.216 974.069 Q258.216 966.959 260.699 963.235 Q263.2 959.493 267.921 959.493 Z" fill="#000000" fill-rule="nonzero" fill-opacity="1" /><path clip-path="url(#clip850)" d="M115.74 545.243 L123.379 545.243 L123.379 518.877 L115.069 520.544 L115.069 516.285 L123.333 514.618 L128.009 514.618 L128.009 545.243 L135.647 545.243 L135.647 549.178 L115.74 549.178 L115.74 545.243 Z" fill="#000000" fill-rule="nonzero" fill-opacity="1" /><path clip-path="url(#clip850)" d="M155.092 517.697 Q151.481 517.697 149.652 521.262 Q147.846 524.803 147.846 531.933 Q147.846 539.039 149.652 542.604 Q151.481 546.146 155.092 546.146 Q158.726 546.146 160.532 542.604 Q162.36 539.039 162.36 531.933 Q162.36 524.803 160.532 521.262 Q158.726 517.697 155.092 517.697 M155.092 513.993 Q160.902 513.993 163.958 518.6 Q167.036 523.183 167.036 531.933 Q167.036 540.66 163.958 545.266 Q160.902 549.849 155.092 549.849 Q149.282 549.849 146.203 545.266 Q143.147 540.66 143.147 531.933 Q143.147 523.183 146.203 518.6 Q149.282 513.993 155.092 513.993 Z" fill="#000000" fill-rule="nonzero" fill-opacity="1" /><path clip-path="url(#clip850)" d="M167.036 508.094 L191.148 508.094 L191.148 511.292 L167.036 511.292 L167.036 508.094 Z" fill="#000000" fill-rule="nonzero" fill-opacity="1" /><path clip-path="url(#clip850)" d="M207.473 496.189 Q204.539 496.189 203.053 499.086 Q201.586 501.963 201.586 507.756 Q201.586 513.53 203.053 516.426 Q204.539 519.304 207.473 519.304 Q210.426 519.304 211.893 516.426 Q213.379 513.53 213.379 507.756 Q213.379 501.963 211.893 499.086 Q210.426 496.189 207.473 496.189 M207.473 493.18 Q212.194 493.18 214.676 496.923 Q217.178 500.647 217.178 507.756 Q217.178 514.846 214.676 518.589 Q212.194 522.313 207.473 522.313 Q202.752 522.313 200.251 518.589 Q197.768 514.846 197.768 507.756 Q197.768 500.647 200.251 496.923 Q202.752 493.18 207.473 493.18 Z" fill="#000000" fill-rule="nonzero" fill-opacity="1" /><path clip-path="url(#clip850)" d="M223.854 516.991 L227.823 516.991 L227.823 521.768 L223.854 521.768 L223.854 516.991 Z" fill="#000000" fill-rule="nonzero" fill-opacity="1" /><path clip-path="url(#clip850)" d="M239.371 518.57 L252.63 518.57 L252.63 521.768 L234.801 521.768 L234.801 518.57 Q236.963 516.332 240.687 512.571 Q244.43 508.79 245.389 507.7 Q247.214 505.649 247.928 504.239 Q248.662 502.809 248.662 501.437 Q248.662 499.198 247.082 497.788 Q245.521 496.377 243.001 496.377 Q241.214 496.377 239.22 496.998 Q237.246 497.619 234.989 498.879 L234.989 495.042 Q237.283 494.12 239.277 493.65 Q241.27 493.18 242.926 493.18 Q247.289 493.18 249.884 495.362 Q252.48 497.543 252.48 501.192 Q252.48 502.922 251.822 504.483 Q251.182 506.026 249.471 508.132 Q249 508.678 246.48 511.292 Q243.96 513.887 239.371 518.57 Z" fill="#000000" fill-rule="nonzero" fill-opacity="1" /><path clip-path="url(#clip850)" d="M260.642 493.688 L275.557 493.688 L275.557 496.885 L264.122 496.885 L264.122 503.769 Q264.949 503.487 265.777 503.355 Q266.605 503.204 267.432 503.204 Q272.134 503.204 274.88 505.781 Q277.626 508.358 277.626 512.759 Q277.626 517.291 274.805 519.812 Q271.984 522.313 266.849 522.313 Q265.081 522.313 263.238 522.012 Q261.414 521.711 259.458 521.109 L259.458 517.291 Q261.15 518.213 262.956 518.664 Q264.761 519.116 266.774 519.116 Q270.028 519.116 271.927 517.404 Q273.827 515.693 273.827 512.759 Q273.827 509.825 271.927 508.113 Q270.028 506.402 266.774 506.402 Q265.25 506.402 263.727 506.74 Q262.222 507.079 260.642 507.794 L260.642 493.688 Z" fill="#000000" fill-rule="nonzero" fill-opacity="1" /><path clip-path="url(#clip850)" d="M32.4621 801.797 Q32.4621 806.507 36.1542 809.244 Q39.8145 811.982 46.212 811.982 Q52.6095 811.982 56.3017 809.276 Q59.9619 806.539 59.9619 801.797 Q59.9619 797.118 56.2698 794.381 Q52.5777 791.643 46.212 791.643 Q39.8781 791.643 36.186 794.381 Q32.4621 797.118 32.4621 801.797 M27.4968 801.797 Q27.4968 794.158 32.4621 789.797 Q37.4273 785.437 46.212 785.437 Q54.9649 785.437 59.9619 789.797 Q64.9272 794.158 64.9272 801.797 Q64.9272 809.467 59.9619 813.828 Q54.9649 818.156 46.212 818.156 Q37.4273 818.156 32.4621 813.828 Q27.4968 809.467 27.4968 801.797 Z" fill="#000000" fill-rule="nonzero" fill-opacity="1" /><path clip-path="url(#clip850)" d="M46.212 750.139 Q39.7508 750.139 36.0905 752.812 Q32.3984 755.454 32.3984 760.101 Q32.3984 764.748 36.0905 767.422 Q39.7508 770.064 46.212 770.064 Q52.6732 770.064 56.3653 767.422 Q60.0256 764.748 60.0256 760.101 Q60.0256 755.454 56.3653 752.812 Q52.6732 750.139 46.212 750.139 M33.7671 770.064 Q30.5842 768.218 29.0564 765.417 Q27.4968 762.584 27.4968 758.669 Q27.4968 752.176 32.6531 748.134 Q37.8093 744.06 46.212 744.06 Q54.6147 744.06 59.771 748.134 Q64.9272 752.176 64.9272 758.669 Q64.9272 762.584 63.3994 765.417 Q61.8398 768.218 58.657 770.064 L64.0042 770.064 L64.0042 775.952 L14.479 775.952 L14.479 770.064 L33.7671 770.064 Z" fill="#000000" fill-rule="nonzero" fill-opacity="1" /><path clip-path="url(#clip850)" d="M28.3562 734.352 L28.3562 728.495 L64.6407 728.495 Q71.452 728.495 74.5076 731.105 Q77.5631 733.684 77.5631 739.445 L77.5631 741.673 L72.5979 741.673 L72.5979 740.113 Q72.5979 736.771 71.0383 735.561 Q69.5105 734.352 64.6407 734.352 L28.3562 734.352 M14.479 734.352 L14.479 728.495 L21.895 728.495 L21.895 734.352 L14.479 734.352 Z" fill="#000000" fill-rule="nonzero" fill-opacity="1" /><path clip-path="url(#clip850)" d="M963.971 65.7705 L963.971 89.8329 L956.477 89.8329 L956.477 27.2059 L963.971 27.2059 L963.971 34.0924 Q966.321 30.0415 969.886 28.0971 Q973.491 26.1121 978.473 26.1121 Q986.737 26.1121 991.882 32.6746 Q997.067 39.2371 997.067 49.9314 Q997.067 60.6258 991.882 67.1883 Q986.737 73.7508 978.473 73.7508 Q973.491 73.7508 969.886 71.8063 Q966.321 69.8214 963.971 65.7705 M989.33 49.9314 Q989.33 41.7081 985.927 37.0496 Q982.565 32.3505 976.651 32.3505 Q970.736 32.3505 967.333 37.0496 Q963.971 41.7081 963.971 49.9314 Q963.971 58.1548 967.333 62.8538 Q970.736 67.5124 976.651 67.5124 Q982.565 67.5124 985.927 62.8538 Q989.33 58.1548 989.33 49.9314 Z" fill="#000000" fill-rule="nonzero" fill-opacity="1" /><path clip-path="url(#clip850)" d="M1035.71 34.1734 Q1034.46 33.4443 1032.96 33.1202 Q1031.5 32.7556 1029.72 32.7556 Q1023.4 32.7556 1020 36.8875 Q1016.63 40.9789 1016.63 48.6757 L1016.63 72.576 L1009.14 72.576 L1009.14 27.2059 L1016.63 27.2059 L1016.63 34.2544 Q1018.98 30.1225 1022.75 28.1376 Q1026.52 26.1121 1031.9 26.1121 Q1032.67 26.1121 1033.61 26.2337 Q1034.54 26.3147 1035.67 26.5172 L1035.71 34.1734 Z" fill="#000000" fill-rule="nonzero" fill-opacity="1" /><path clip-path="url(#clip850)" d="M1059.29 32.4315 Q1053.29 32.4315 1049.81 37.1306 Q1046.33 41.7891 1046.33 49.9314 Q1046.33 58.0738 1049.77 62.7728 Q1053.25 67.4314 1059.29 67.4314 Q1065.24 67.4314 1068.73 62.7323 Q1072.21 58.0333 1072.21 49.9314 Q1072.21 41.8701 1068.73 37.1711 Q1065.24 32.4315 1059.29 32.4315 M1059.29 26.1121 Q1069.01 26.1121 1074.56 32.4315 Q1080.11 38.7509 1080.11 49.9314 Q1080.11 61.0714 1074.56 67.4314 Q1069.01 73.7508 1059.29 73.7508 Q1049.53 73.7508 1043.98 67.4314 Q1038.47 61.0714 1038.47 49.9314 Q1038.47 38.7509 1043.98 32.4315 Q1049.53 26.1121 1059.29 26.1121 Z" fill="#000000" fill-rule="nonzero" fill-opacity="1" /><path clip-path="url(#clip850)" d="M1125.04 49.9314 Q1125.04 41.7081 1121.63 37.0496 Q1118.27 32.3505 1112.36 32.3505 Q1106.44 32.3505 1103.04 37.0496 Q1099.68 41.7081 1099.68 49.9314 Q1099.68 58.1548 1103.04 62.8538 Q1106.44 67.5124 1112.36 67.5124 Q1118.27 67.5124 1121.63 62.8538 Q1125.04 58.1548 1125.04 49.9314 M1099.68 34.0924 Q1102.03 30.0415 1105.59 28.0971 Q1109.2 26.1121 1114.18 26.1121 Q1122.44 26.1121 1127.59 32.6746 Q1132.77 39.2371 1132.77 49.9314 Q1132.77 60.6258 1127.59 67.1883 Q1122.44 73.7508 1114.18 73.7508 Q1109.2 73.7508 1105.59 71.8063 Q1102.03 69.8214 1099.68 65.7705 L1099.68 72.576 L1092.18 72.576 L1092.18 9.54393 L1099.68 9.54393 L1099.68 34.0924 Z" fill="#000000" fill-rule="nonzero" fill-opacity="1" /><path clip-path="url(#clip850)" d="M1145.13 9.54393 L1152.58 9.54393 L1152.58 72.576 L1145.13 72.576 L1145.13 9.54393 Z" fill="#000000" fill-rule="nonzero" fill-opacity="1" /><path clip-path="url(#clip850)" d="M1206.98 48.0275 L1206.98 51.6733 L1172.71 51.6733 Q1173.2 59.3701 1177.33 63.421 Q1181.5 67.4314 1188.92 67.4314 Q1193.21 67.4314 1197.22 66.3781 Q1201.27 65.3249 1205.24 63.2184 L1205.24 70.267 Q1201.23 71.9684 1197.02 72.8596 Q1192.81 73.7508 1188.47 73.7508 Q1177.62 73.7508 1171.26 67.4314 Q1164.94 61.1119 1164.94 50.3365 Q1164.94 39.1965 1170.93 32.6746 Q1176.97 26.1121 1187.18 26.1121 Q1196.33 26.1121 1201.64 32.0264 Q1206.98 37.9003 1206.98 48.0275 M1199.53 45.84 Q1199.45 39.7232 1196.09 36.0774 Q1192.77 32.4315 1187.26 32.4315 Q1181.02 32.4315 1177.25 35.9558 Q1173.52 39.4801 1172.96 45.8805 L1199.53 45.84 M1180.86 6.22219 L1192.28 21.3726 L1186.08 21.3726 L1172.88 6.22219 L1180.86 6.22219 Z" fill="#000000" fill-rule="nonzero" fill-opacity="1" /><path clip-path="url(#clip850)" d="M1254.54 35.9153 Q1257.34 30.8922 1261.23 28.5022 Q1265.12 26.1121 1270.38 26.1121 Q1277.47 26.1121 1281.32 31.0947 Q1285.17 36.0368 1285.17 45.1919 L1285.17 72.576 L1277.67 72.576 L1277.67 45.4349 Q1277.67 38.913 1275.36 35.7533 Q1273.06 32.5936 1268.32 32.5936 Q1262.52 32.5936 1259.16 36.4419 Q1255.8 40.2903 1255.8 46.9338 L1255.8 72.576 L1248.3 72.576 L1248.3 45.4349 Q1248.3 38.8725 1246 35.7533 Q1243.69 32.5936 1238.87 32.5936 Q1233.15 32.5936 1229.79 36.4824 Q1226.43 40.3308 1226.43 46.9338 L1226.43 72.576 L1218.94 72.576 L1218.94 27.2059 L1226.43 27.2059 L1226.43 34.2544 Q1228.98 30.082 1232.55 28.0971 Q1236.11 26.1121 1241.01 26.1121 Q1245.95 26.1121 1249.4 28.6237 Q1252.88 31.1352 1254.54 35.9153 Z" fill="#000000" fill-rule="nonzero" fill-opacity="1" /><path clip-path="url(#clip850)" d="M1338.84 48.0275 L1338.84 51.6733 L1304.57 51.6733 Q1305.06 59.3701 1309.19 63.421 Q1313.36 67.4314 1320.77 67.4314 Q1325.07 67.4314 1329.08 66.3781 Q1333.13 65.3249 1337.1 63.2184 L1337.1 70.267 Q1333.09 71.9684 1328.88 72.8596 Q1324.66 73.7508 1320.33 73.7508 Q1309.47 73.7508 1303.11 67.4314 Q1296.79 61.1119 1296.79 50.3365 Q1296.79 39.1965 1302.79 32.6746 Q1308.82 26.1121 1319.03 26.1121 Q1328.19 26.1121 1333.49 32.0264 Q1338.84 37.9003 1338.84 48.0275 M1331.39 45.84 Q1331.31 39.7232 1327.94 36.0774 Q1324.62 32.4315 1319.11 32.4315 Q1312.88 32.4315 1309.11 35.9558 Q1305.38 39.4801 1304.81 45.8805 L1331.39 45.84 Z" fill="#000000" fill-rule="nonzero" fill-opacity="1" /><path clip-path="url(#clip850)" d="M1379.35 62.2867 L1387.9 62.2867 L1387.9 72.576 L1379.35 72.576 L1379.35 62.2867 M1379.35 29.6769 L1387.9 29.6769 L1387.9 39.9662 L1379.35 39.9662 L1379.35 29.6769 Z" fill="#000000" fill-rule="nonzero" fill-opacity="1" /><path clip-path="url(#clip850)" d="M1467.09 35.9153 Q1469.89 30.8922 1473.78 28.5022 Q1477.67 26.1121 1482.93 26.1121 Q1490.02 26.1121 1493.87 31.0947 Q1497.72 36.0368 1497.72 45.1919 L1497.72 72.576 L1490.22 72.576 L1490.22 45.4349 Q1490.22 38.913 1487.92 35.7533 Q1485.61 32.5936 1480.87 32.5936 Q1475.07 32.5936 1471.71 36.4419 Q1468.35 40.2903 1468.35 46.9338 L1468.35 72.576 L1460.86 72.576 L1460.86 45.4349 Q1460.86 38.8725 1458.55 35.7533 Q1456.24 32.5936 1451.42 32.5936 Q1445.7 32.5936 1442.34 36.4824 Q1438.98 40.3308 1438.98 46.9338 L1438.98 72.576 L1431.49 72.576 L1431.49 27.2059 L1438.98 27.2059 L1438.98 34.2544 Q1441.53 30.082 1445.1 28.0971 Q1448.66 26.1121 1453.56 26.1121 Q1458.51 26.1121 1461.95 28.6237 Q1465.43 31.1352 1467.09 35.9153 Z" fill="#000000" fill-rule="nonzero" fill-opacity="1" /><path clip-path="url(#clip850)" d="M1542.44 49.3643 Q1542.44 41.2625 1539.08 36.8065 Q1535.76 32.3505 1529.72 32.3505 Q1523.73 32.3505 1520.36 36.8065 Q1517.04 41.2625 1517.04 49.3643 Q1517.04 57.4256 1520.36 61.8816 Q1523.73 66.3376 1529.72 66.3376 Q1535.76 66.3376 1539.08 61.8816 Q1542.44 57.4256 1542.44 49.3643 M1549.89 66.9452 Q1549.89 78.5308 1544.75 84.1616 Q1539.6 89.8329 1528.99 89.8329 Q1525.06 89.8329 1521.58 89.2252 Q1518.09 88.6581 1514.81 87.4428 L1514.81 80.1917 Q1518.09 81.9741 1521.29 82.8248 Q1524.49 83.6755 1527.82 83.6755 Q1535.15 83.6755 1538.79 79.8271 Q1542.44 76.0193 1542.44 68.282 L1542.44 64.5957 Q1540.13 68.6061 1536.53 70.5911 Q1532.92 72.576 1527.9 72.576 Q1519.55 72.576 1514.45 66.2161 Q1509.34 59.8562 1509.34 49.3643 Q1509.34 38.832 1514.45 32.472 Q1519.55 26.1121 1527.9 26.1121 Q1532.92 26.1121 1536.53 28.0971 Q1540.13 30.082 1542.44 34.0924 L1542.44 27.2059 L1549.89 27.2059 L1549.89 66.9452 Z" fill="#000000" fill-rule="nonzero" fill-opacity="1" /><path clip-path="url(#clip850)" d="M1602.96 45.1919 L1602.96 72.576 L1595.51 72.576 L1595.51 45.4349 Q1595.51 38.994 1593 35.7938 Q1590.48 32.5936 1585.46 32.5936 Q1579.43 32.5936 1575.94 36.4419 Q1572.46 40.2903 1572.46 46.9338 L1572.46 72.576 L1564.96 72.576 L1564.96 9.54393 L1572.46 9.54393 L1572.46 34.2544 Q1575.13 30.163 1578.74 28.1376 Q1582.38 26.1121 1587.12 26.1121 Q1594.94 26.1121 1598.95 30.9732 Q1602.96 35.7938 1602.96 45.1919 Z" fill="#000000" fill-rule="nonzero" fill-opacity="1" /><path clip-path="url(#clip850)" d="M1620.3 65.6895 L1633.67 65.6895 L1633.67 19.5497 L1619.12 22.4663 L1619.12 15.0127 L1633.59 12.096 L1641.77 12.096 L1641.77 65.6895 L1655.14 65.6895 L1655.14 72.576 L1620.3 72.576 L1620.3 65.6895 Z" fill="#000000" fill-rule="nonzero" fill-opacity="1" /><path clip-path="url(#clip850)" d="M1689.16 43.8551 Q1683.33 43.8551 1679.97 46.9743 Q1676.65 50.0935 1676.65 55.5622 Q1676.65 61.0309 1679.97 64.1501 Q1683.33 67.2693 1689.16 67.2693 Q1695 67.2693 1698.36 64.1501 Q1701.72 60.9904 1701.72 55.5622 Q1701.72 50.0935 1698.36 46.9743 Q1695.04 43.8551 1689.16 43.8551 M1680.98 40.3713 Q1675.72 39.075 1672.76 35.4697 Q1669.84 31.8644 1669.84 26.6793 Q1669.84 19.4281 1674.99 15.2152 Q1680.17 11.0023 1689.16 11.0023 Q1698.2 11.0023 1703.34 15.2152 Q1708.49 19.4281 1708.49 26.6793 Q1708.49 31.8644 1705.53 35.4697 Q1702.61 39.075 1697.39 40.3713 Q1703.3 41.7486 1706.58 45.759 Q1709.9 49.7694 1709.9 55.5622 Q1709.9 64.3527 1704.52 69.0517 Q1699.17 73.7508 1689.16 73.7508 Q1679.16 73.7508 1673.77 69.0517 Q1668.42 64.3527 1668.42 55.5622 Q1668.42 49.7694 1671.75 45.759 Q1675.07 41.7486 1680.98 40.3713 M1677.98 27.4489 Q1677.98 32.148 1680.9 34.7811 Q1683.86 37.4142 1689.16 37.4142 Q1694.43 37.4142 1697.39 34.7811 Q1700.39 32.148 1700.39 27.4489 Q1700.39 22.7499 1697.39 20.1168 Q1694.43 17.4837 1689.16 17.4837 Q1683.86 17.4837 1680.9 20.1168 Q1677.98 22.7499 1677.98 27.4489 Z" fill="#000000" fill-rule="nonzero" fill-opacity="1" /><polyline clip-path="url(#clip852)" style="stroke:#009af9; stroke-linecap:round; stroke-linejoin:round; stroke-width:4; stroke-opacity:1; fill:none" points="371.337,160.256 375.177,445.789 379.017,561.438 382.856,563.217 386.696,564.318 390.536,565.449 394.376,566.622 398.215,567.837 402.055,569.096 405.895,570.4 409.734,571.75 413.574,573.148 417.414,574.595 421.254,576.092 425.093,577.64 428.933,579.24 432.773,580.894 436.613,582.602 440.452,584.367 444.292,586.188 448.132,588.068 451.972,590.006 455.811,592.006 459.651,594.066 463.491,596.19 467.331,598.376 471.17,600.627 475.01,602.944 478.85,605.326 482.689,607.776 486.529,610.293 490.369,612.879 494.209,615.535 498.048,618.259 501.888,621.055 505.728,623.921 509.568,626.857 513.407,629.866 517.247,632.946 521.087,636.097 524.927,639.321 528.766,642.616 532.606,645.982 536.446,649.421 540.285,652.93 544.125,656.509 547.965,660.159 551.805,663.879 555.644,667.668 559.484,671.524 563.324,675.448 567.164,679.439 571.003,683.495 574.843,687.615 578.683,691.798 582.523,696.043 586.362,700.348 590.202,704.713 594.042,709.135 597.882,713.613 601.721,718.145 605.561,722.73 609.401,727.366 613.24,732.05 617.08,736.782 620.92,741.56 624.76,746.38 628.599,751.242 632.439,756.143 636.279,761.082 640.119,766.055 643.958,771.062 647.798,776.1 651.638,781.166 655.478,786.259 659.317,791.376 663.157,796.515 666.997,801.675 670.836,806.852 674.676,812.045 678.516,817.251 682.356,822.469 686.195,827.696 690.035,832.93 693.875,838.169 697.715,843.411 701.554,848.654 705.394,853.896 709.234,859.134 713.074,864.367 716.913,869.593 720.753,874.81 724.593,880.016 728.433,885.21 732.272,890.389 736.112,895.552 739.952,900.696 743.791,905.821 747.631,910.925 751.471,916.006 755.311,921.063 759.15,926.094 762.99,931.098 766.83,936.073 770.67,941.018 774.509,945.931 778.349,950.812 782.189,955.66 786.029,960.473 789.868,965.249 793.708,969.989 797.548,974.691 801.388,979.354 805.227,983.977 809.067,988.559 812.907,993.1 816.746,997.599 820.586,1002.05 824.426,1006.47 828.266,1010.83 832.105,1015.16 835.945,1019.43 839.785,1023.67 843.625,1027.85 847.464,1031.99 851.304,1036.08 855.144,1040.13 858.984,1044.12 862.823,1048.07 866.663,1051.97 870.503,1055.83 874.342,1059.63 878.182,1063.39 882.022,1067.09 885.862,1070.75 889.701,1074.36 893.541,1077.92 897.381,1081.44 901.221,1084.9 905.06,1088.32 908.9,1091.69 912.74,1095.01 916.58,1098.28 920.419,1101.51 924.259,1104.68 928.099,1107.82 931.939,1110.9 935.778,1113.94 939.618,1116.93 943.458,1119.88 947.297,1122.78 951.137,1125.63 954.977,1128.44 958.817,1131.21 962.656,1133.93 966.496,1136.61 970.336,1139.25 974.176,1141.85 978.015,1144.4 981.855,1146.91 985.695,1149.38 989.535,1151.81 993.374,1154.2 997.214,1156.55 1001.05,1158.86 1004.89,1161.14 1008.73,1163.37 1012.57,1165.57 1016.41,1167.73 1020.25,1169.85 1024.09,1171.94 1027.93,1174 1031.77,1176.02 1035.61,1178 1039.45,1179.95 1043.29,1181.87 1047.13,1183.75 1050.97,1185.61 1054.81,1187.43 1058.65,1189.22 1062.49,1190.98 1066.33,1192.71 1070.17,1194.41 1074.01,1196.09 1077.85,1197.73 1081.69,1199.35 1085.53,1200.94 1089.37,1202.5 1093.21,1204.03 1097.05,1205.55 1100.89,1207.03 1104.73,1208.49 1108.57,1209.93 1112.41,1211.34 1116.25,1212.73 1120.09,1214.09 1123.93,1215.44 1127.77,1216.76 1131.6,1218.06 1135.44,1219.34 1139.28,1220.6 1143.12,1221.83 1146.96,1223.05 1150.8,1224.25 1154.64,1225.43 1158.48,1226.59 1162.32,1227.74 1166.16,1228.86 1170,1229.97 1173.84,1231.06 1177.68,1232.14 1181.52,1233.2 1185.36,1234.24 1189.2,1235.27 1193.04,1236.28 1196.88,1237.28 1200.72,1238.26 1204.56,1239.23 1208.4,1240.18 1212.24,1241.12 1216.08,1242.05 1219.92,1242.97 1223.76,1243.87 1227.6,1244.76 1231.44,1245.64 1235.28,1246.51 1239.12,1247.36 1242.96,1248.21 1246.8,1249.04 1250.64,1249.87 1254.48,1250.68 1258.32,1251.48 1262.16,1252.27 1266,1253.06 1269.84,1253.83 1273.67,1254.6 1277.51,1255.35 1281.35,1256.1 1285.19,1256.84 1289.03,1257.57 1292.87,1258.29 1296.71,1259.01 1300.55,1259.72 1304.39,1260.42 1308.23,1261.11 1312.07,1261.79 1315.91,1262.47 1319.75,1263.15 1323.59,1263.81 1327.43,1264.47 1331.27,1265.12 1335.11,1265.77 1338.95,1266.41 1342.79,1267.05 1346.63,1267.68 1350.47,1268.3 1354.31,1268.92 1358.15,1269.54 1361.99,1270.15 1365.83,1270.75 1369.67,1271.35 1373.51,1271.95 1377.35,1272.54 1381.19,1273.13 1385.03,1273.71 1388.87,1274.29 1392.71,1274.86 1396.55,1275.44 1400.39,1276 1404.23,1276.57 1408.07,1277.13 1411.91,1277.68 1415.75,1278.24 1419.58,1278.79 1423.42,1279.34 1427.26,1279.88 1431.1,1280.42 1434.94,1280.96 1438.78,1281.49 1442.62,1282.03 1446.46,1282.56 1450.3,1283.09 1454.14,1283.61 1457.98,1284.13 1461.82,1284.65 1465.66,1285.17 1469.5,1285.69 1473.34,1286.2 1477.18,1286.72 1481.02,1287.23 1484.86,1287.74 1488.7,1288.24 1492.54,1288.75 1496.38,1289.25 1500.22,1289.75 1504.06,1290.25 1507.9,1290.75 1511.74,1291.25 1515.58,1291.74 1519.42,1292.24 1523.26,1292.73 1527.1,1293.22 1530.94,1293.71 1534.78,1294.2 1538.62,1294.69 1542.46,1295.17 1546.3,1295.66 1550.14,1296.14 1553.98,1296.63 1557.82,1297.11 1561.66,1297.59 1565.49,1298.07 1569.33,1298.55 1573.17,1299.03 1577.01,1299.51 1580.85,1299.98 1584.69,1300.46 1588.53,1300.94 1592.37,1301.41 1596.21,1301.89 1600.05,1302.36 1603.89,1302.83 1607.73,1303.31 1611.57,1303.78 1615.41,1304.25 1619.25,1304.72 1623.09,1305.19 1626.93,1305.66 1630.77,1306.13 1634.61,1306.6 1638.45,1307.07 1642.29,1307.54 1646.13,1308.01 1649.97,1308.47 1653.81,1308.94 1657.65,1309.41 1661.49,1309.88 1665.33,1310.34 1669.17,1310.81 1673.01,1311.28 1676.85,1311.74 1680.69,1312.21 1684.53,1312.67 1688.37,1313.14 1692.21,1313.6 1696.05,1314.07 1699.89,1314.53 1703.73,1315 1707.57,1315.46 1711.4,1315.93 1715.24,1316.39 1719.08,1316.85 1722.92,1317.32 1726.76,1317.78 1730.6,1318.25 1734.44,1318.71 1738.28,1319.17 1742.12,1319.64 1745.96,1320.1 1749.8,1320.56 1753.64,1321.03 1757.48,1321.49 1761.32,1321.95 1765.16,1322.42 1769,1322.88 1772.84,1323.34 1776.68,1323.81 1780.52,1324.27 1784.36,1324.73 1788.2,1325.2 1792.04,1325.66 1795.88,1326.12 1799.72,1326.59 1803.56,1327.05 1807.4,1327.51 1811.24,1327.98 1815.08,1328.44 1818.92,1328.9 1822.76,1329.37 1826.6,1329.83 1830.44,1330.3 1834.28,1330.76 1838.12,1331.22 1841.96,1331.69 1845.8,1332.15 1849.64,1332.61 1853.48,1333.08 1857.31,1333.54 1861.15,1334.01 1864.99,1334.47 1868.83,1334.93 1872.67,1335.4 1876.51,1335.86 1880.35,1336.33 1884.19,1336.79 1888.03,1337.25 1891.87,1337.72 1895.71,1338.18 1899.55,1338.65 1903.39,1339.11 1907.23,1339.58 1911.07,1340.04 1914.91,1340.51 1918.75,1340.97 1922.59,1341.43 1926.43,1341.9 1930.27,1342.36 1934.11,1342.83 1937.95,1343.29 1941.79,1343.76 1945.63,1344.22 1949.47,1344.69 1953.31,1345.15 1957.15,1345.62 1960.99,1346.08 1964.83,1346.55 1968.67,1347.01 1972.51,1347.48 1976.35,1347.94 1980.19,1348.41 1984.03,1348.87 1987.87,1349.34 1991.71,1349.8 1995.55,1350.27 1999.39,1350.73 2003.22,1351.2 2007.06,1351.66 2010.9,1352.13 2014.74,1352.6 2018.58,1353.06 2022.42,1353.53 2026.26,1353.99 2030.1,1354.46 2033.94,1354.92 2037.78,1355.39 2041.62,1355.85 2045.46,1356.32 2049.3,1356.78 2053.14,1357.25 2056.98,1357.71 2060.82,1358.18 2064.66,1358.64 2068.5,1359.11 2072.34,1359.57 2076.18,1360.04 2080.02,1360.5 2083.86,1360.97 2087.7,1361.43 2091.54,1361.9 2095.38,1362.36 2099.22,1362.82 2103.06,1363.29 2106.9,1363.75 2110.74,1364.22 2114.58,1364.68 2118.42,1365.15 2122.26,1365.61 2126.1,1366.08 2129.94,1366.54 2133.78,1367 2137.62,1367.47 2141.46,1367.93 2145.29,1368.39 2149.13,1368.86 2152.97,1369.32 2156.81,1369.79 2160.65,1370.25 2164.49,1370.71 2168.33,1371.18 2172.17,1371.64 2176.01,1372.1 2179.85,1372.56 2183.69,1373.03 2187.53,1373.49 2191.37,1373.95 2195.21,1374.42 2199.05,1374.88 2202.89,1375.34 2206.73,1375.8 2210.57,1376.26 2214.41,1376.73 2218.25,1377.19 2222.09,1377.65 2225.93,1378.11 2229.77,1378.57 2233.61,1379.03 2237.45,1379.5 2241.29,1379.96 2245.13,1380.42 2248.97,1380.88 2252.81,1381.34 2256.65,1381.8 2260.49,1382.26 2264.33,1382.72 2268.17,1383.18 2272.01,1383.64 2275.85,1384.1 2279.69,1384.56 2283.53,1385.02 2287.37,1385.48 2291.2,1385.94 2295.04,1386.4 "/>
<polyline clip-path="url(#clip852)" style="stroke:#e26f46; stroke-linecap:round; stroke-linejoin:round; stroke-width:4; stroke-opacity:1; fill:none" points="371.337,160.256 375.177,445.789 379.017,561.438 382.856,563.217 386.696,564.318 390.536,565.449 394.376,566.622 398.215,567.837 402.055,569.096 405.895,570.4 409.734,571.75 413.574,573.148 417.414,574.595 421.254,576.092 425.093,577.64 428.933,579.24 432.773,580.894 436.613,582.602 440.452,584.367 444.292,586.188 448.132,588.068 451.972,590.006 455.811,592.006 459.651,594.066 463.491,596.19 467.331,598.376 471.17,600.627 475.01,602.944 478.85,605.326 482.689,607.776 486.529,610.293 490.369,612.879 494.209,615.535 498.048,618.259 501.888,621.055 505.728,623.921 509.568,626.857 513.407,629.866 517.247,632.946 521.087,636.097 524.927,639.321 528.766,642.616 532.606,645.982 536.446,649.421 540.285,652.93 544.125,656.509 547.965,660.159 551.805,663.879 555.644,667.668 559.484,671.524 563.324,675.448 567.164,679.439 571.003,683.495 574.843,687.615 578.683,691.798 582.523,696.043 586.362,700.348 590.202,704.713 594.042,709.135 597.882,713.613 601.721,718.145 605.561,722.73 609.401,727.366 613.24,732.05 617.08,736.782 620.92,741.56 624.76,746.38 628.599,751.242 632.439,756.143 636.279,761.082 640.119,766.055 643.958,771.062 647.798,776.1 651.638,781.166 655.478,786.259 659.317,791.376 663.157,796.515 666.997,801.675 670.836,806.852 674.676,812.045 678.516,817.251 682.356,822.469 686.195,827.696 690.035,832.93 693.875,838.169 697.715,843.411 701.554,848.654 705.394,853.896 709.234,859.134 713.074,864.367 716.913,869.593 720.753,874.81 724.593,880.016 728.433,885.21 732.272,890.389 736.112,895.552 739.952,900.696 743.791,905.821 747.631,910.925 751.471,916.006 755.311,921.063 759.15,926.094 762.99,931.098 766.83,936.073 770.67,941.018 774.509,945.931 778.349,950.812 782.189,955.66 786.029,960.473 789.868,965.249 793.708,969.989 797.548,974.691 801.388,979.354 805.227,983.977 809.067,988.559 812.907,993.1 816.746,997.599 820.586,1002.05 824.426,1006.47 828.266,1010.83 832.105,1015.16 835.945,1019.43 839.785,1023.67 843.625,1027.85 847.464,1031.99 851.304,1036.08 855.144,1040.13 858.984,1044.12 862.823,1048.07 866.663,1051.97 870.503,1055.83 874.342,1059.63 878.182,1063.39 882.022,1067.09 885.862,1070.75 889.701,1074.36 893.541,1077.92 897.381,1081.44 901.221,1084.9 905.06,1088.32 908.9,1091.69 912.74,1095.01 916.58,1098.28 920.419,1101.51 924.259,1104.68 928.099,1107.82 931.939,1110.9 935.778,1113.94 939.618,1116.93 943.458,1119.88 947.297,1122.78 951.137,1125.63 954.977,1128.44 958.817,1131.21 962.656,1133.93 966.496,1136.61 970.336,1139.25 974.176,1141.85 978.015,1144.4 981.855,1146.91 985.695,1149.38 989.535,1151.81 993.374,1154.2 997.214,1156.55 1001.05,1158.86 1004.89,1161.14 1008.73,1163.37 1012.57,1165.57 1016.41,1167.73 1020.25,1169.85 1024.09,1171.94 1027.93,1174 1031.77,1176.02 1035.61,1178 1039.45,1179.95 1043.29,1181.87 1047.13,1183.75 1050.97,1185.61 1054.81,1187.43 1058.65,1189.22 1062.49,1190.98 1066.33,1192.71 1070.17,1194.41 1074.01,1196.09 1077.85,1197.73 1081.69,1199.35 1085.53,1200.94 1089.37,1202.5 1093.21,1204.03 1097.05,1205.55 1100.89,1207.03 1104.73,1208.49 1108.57,1209.93 1112.41,1211.34 1116.25,1212.73 1120.09,1214.09 1123.93,1215.44 1127.77,1216.76 1131.6,1218.06 1135.44,1219.34 1139.28,1220.6 1143.12,1221.83 1146.96,1223.05 1150.8,1224.25 1154.64,1225.43 1158.48,1226.59 1162.32,1227.74 1166.16,1228.86 1170,1229.97 1173.84,1231.06 1177.68,1232.14 1181.52,1233.2 1185.36,1234.24 1189.2,1235.27 1193.04,1236.28 1196.88,1237.28 1200.72,1238.26 1204.56,1239.23 1208.4,1240.18 1212.24,1241.12 1216.08,1242.05 1219.92,1242.97 1223.76,1243.87 1227.6,1244.76 1231.44,1245.64 1235.28,1246.51 1239.12,1247.36 1242.96,1248.21 1246.8,1249.04 1250.64,1249.87 1254.48,1250.68 1258.32,1251.48 1262.16,1252.27 1266,1253.06 1269.84,1253.83 1273.67,1254.6 1277.51,1255.35 1281.35,1256.1 1285.19,1256.84 1289.03,1257.57 1292.87,1258.29 1296.71,1259.01 1300.55,1259.72 1304.39,1260.42 1308.23,1261.11 1312.07,1261.79 1315.91,1262.47 1319.75,1263.15 1323.59,1263.81 1327.43,1264.47 1331.27,1265.12 1335.11,1265.77 1338.95,1266.41 1342.79,1267.05 1346.63,1267.68 1350.47,1268.3 1354.31,1268.92 1358.15,1269.54 1361.99,1270.15 1365.83,1270.75 1369.67,1271.35 1373.51,1271.95 1377.35,1272.54 1381.19,1273.13 1385.03,1273.71 1388.87,1274.29 1392.71,1274.86 1396.55,1275.44 1400.39,1276 1404.23,1276.57 1408.07,1277.13 1411.91,1277.68 1415.75,1278.24 1419.58,1278.79 1423.42,1279.34 1427.26,1279.88 1431.1,1280.42 1434.94,1280.96 1438.78,1281.49 1442.62,1282.03 1446.46,1282.56 1450.3,1283.09 1454.14,1283.61 1457.98,1284.13 1461.82,1284.65 1465.66,1285.17 1469.5,1285.69 1473.34,1286.2 1477.18,1286.72 1481.02,1287.23 1484.86,1287.74 1488.7,1288.24 1492.54,1288.75 1496.38,1289.25 1500.22,1289.75 1504.06,1290.25 1507.9,1290.75 1511.74,1291.25 1515.58,1291.74 1519.42,1292.24 1523.26,1292.73 1527.1,1293.22 1530.94,1293.71 1534.78,1294.2 1538.62,1294.69 1542.46,1295.17 1546.3,1295.66 1550.14,1296.14 1553.98,1296.63 1557.82,1297.11 1561.66,1297.59 1565.49,1298.07 1569.33,1298.55 1573.17,1299.03 1577.01,1299.51 1580.85,1299.98 1584.69,1300.46 1588.53,1300.94 1592.37,1301.41 1596.21,1301.89 1600.05,1302.36 1603.89,1302.83 1607.73,1303.31 1611.57,1303.78 1615.41,1304.25 1619.25,1304.72 1623.09,1305.19 1626.93,1305.66 1630.77,1306.13 1634.61,1306.6 1638.45,1307.07 1642.29,1307.54 1646.13,1308.01 1649.97,1308.47 1653.81,1308.94 1657.65,1309.41 1661.49,1309.88 1665.33,1310.34 1669.17,1310.81 1673.01,1311.28 1676.85,1311.74 1680.69,1312.21 1684.53,1312.67 1688.37,1313.14 1692.21,1313.6 1696.05,1314.07 1699.89,1314.53 1703.73,1315 1707.57,1315.46 1711.4,1315.93 1715.24,1316.39 1719.08,1316.85 1722.92,1317.32 1726.76,1317.78 1730.6,1318.25 1734.44,1318.71 1738.28,1319.17 1742.12,1319.64 1745.96,1320.1 1749.8,1320.56 1753.64,1321.03 1757.48,1321.49 1761.32,1321.95 1765.16,1322.42 1769,1322.88 1772.84,1323.34 1776.68,1323.81 1780.52,1324.27 1784.36,1324.73 1788.2,1325.2 1792.04,1325.66 1795.88,1326.12 1799.72,1326.59 1803.56,1327.05 1807.4,1327.51 1811.24,1327.98 1815.08,1328.44 1818.92,1328.9 1822.76,1329.37 1826.6,1329.83 1830.44,1330.3 1834.28,1330.76 1838.12,1331.22 1841.96,1331.69 1845.8,1332.15 1849.64,1332.61 1853.48,1333.08 1857.31,1333.54 1861.15,1334.01 1864.99,1334.47 1868.83,1334.93 1872.67,1335.4 1876.51,1335.86 1880.35,1336.33 1884.19,1336.79 1888.03,1337.25 1891.87,1337.72 1895.71,1338.18 1899.55,1338.65 1903.39,1339.11 1907.23,1339.58 1911.07,1340.04 1914.91,1340.51 1918.75,1340.97 1922.59,1341.43 1926.43,1341.9 1930.27,1342.36 1934.11,1342.83 1937.95,1343.29 1941.79,1343.76 1945.63,1344.22 1949.47,1344.69 1953.31,1345.15 1957.15,1345.62 1960.99,1346.08 1964.83,1346.55 1968.67,1347.01 1972.51,1347.48 1976.35,1347.94 1980.19,1348.41 1984.03,1348.87 1987.87,1349.34 1991.71,1349.8 1995.55,1350.27 1999.39,1350.73 2003.22,1351.2 2007.06,1351.66 2010.9,1352.13 2014.74,1352.6 2018.58,1353.06 2022.42,1353.53 2026.26,1353.99 2030.1,1354.46 2033.94,1354.92 2037.78,1355.39 2041.62,1355.85 2045.46,1356.32 2049.3,1356.78 2053.14,1357.25 2056.98,1357.71 2060.82,1358.18 2064.66,1358.64 2068.5,1359.11 2072.34,1359.57 2076.18,1360.04 2080.02,1360.5 2083.86,1360.97 2087.7,1361.43 2091.54,1361.9 2095.38,1362.36 2099.22,1362.82 2103.06,1363.29 2106.9,1363.75 2110.74,1364.22 2114.58,1364.68 2118.42,1365.15 2122.26,1365.61 2126.1,1366.08 2129.94,1366.54 2133.78,1367 2137.62,1367.47 2141.46,1367.93 2145.29,1368.39 2149.13,1368.86 2152.97,1369.32 2156.81,1369.79 2160.65,1370.25 2164.49,1370.71 2168.33,1371.18 2172.17,1371.64 2176.01,1372.1 2179.85,1372.56 2183.69,1373.03 2187.53,1373.49 2191.37,1373.95 2195.21,1374.42 2199.05,1374.88 2202.89,1375.34 2206.73,1375.8 2210.57,1376.26 2214.41,1376.73 2218.25,1377.19 2222.09,1377.65 2225.93,1378.11 2229.77,1378.57 2233.61,1379.03 2237.45,1379.5 2241.29,1379.96 2245.13,1380.42 2248.97,1380.88 2252.81,1381.34 2256.65,1381.8 2260.49,1382.26 2264.33,1382.72 2268.17,1383.18 2272.01,1383.64 2275.85,1384.1 2279.69,1384.56 2283.53,1385.02 2287.37,1385.48 2291.2,1385.94 2295.04,1386.4 "/>
<path clip-path="url(#clip850)" d="M1509.3 322.316 L2284.78 322.316 L2284.78 166.796 L1509.3 166.796  Z" fill="#ffffff" fill-rule="evenodd" fill-opacity="1"/>
<polyline clip-path="url(#clip850)" style="stroke:#000000; stroke-linecap:round; stroke-linejoin:round; stroke-width:4; stroke-opacity:1; fill:none" points="1509.3,322.316 2284.78,322.316 2284.78,166.796 1509.3,166.796 1509.3,322.316 "/>
<polyline clip-path="url(#clip850)" style="stroke:#009af9; stroke-linecap:round; stroke-linejoin:round; stroke-width:4; stroke-opacity:1; fill:none" points="1531.96,218.636 1667.9,218.636 "/>
<path clip-path="url(#clip850)" d="M1690.56 201.356 L1695.23 201.356 L1695.23 231.981 L1712.06 231.981 L1712.06 235.916 L1690.56 235.916 L1690.56 201.356 Z" fill="#000000" fill-rule="nonzero" fill-opacity="1" /><path clip-path="url(#clip850)" d="M1716.97 201.356 L1723.94 201.356 L1732.76 224.874 L1741.62 201.356 L1748.59 201.356 L1748.59 235.916 L1744.03 235.916 L1744.03 205.569 L1735.12 229.272 L1730.42 229.272 L1721.51 205.569 L1721.51 235.916 L1716.97 235.916 L1716.97 201.356 Z" fill="#000000" fill-rule="nonzero" fill-opacity="1" /><path clip-path="url(#clip850)" d="M1777.39 243.786 L1777.39 247.096 L1752.76 247.096 L1752.76 243.786 L1777.39 243.786 Z" fill="#000000" fill-rule="nonzero" fill-opacity="1" /><path clip-path="url(#clip850)" d="M1793.13 205.962 L1786.78 223.161 L1799.49 223.161 L1793.13 205.962 M1790.49 201.356 L1795.79 201.356 L1808.96 235.916 L1804.1 235.916 L1800.95 227.05 L1785.37 227.05 L1782.22 235.916 L1777.29 235.916 L1790.49 201.356 Z" fill="#000000" fill-rule="nonzero" fill-opacity="1" /><path clip-path="url(#clip850)" d="M1835.37 220.268 L1835.37 235.916 L1831.11 235.916 L1831.11 220.407 Q1831.11 216.726 1829.68 214.897 Q1828.24 213.069 1825.37 213.069 Q1821.92 213.069 1819.93 215.268 Q1817.94 217.467 1817.94 221.263 L1817.94 235.916 L1813.66 235.916 L1813.66 209.99 L1817.94 209.99 L1817.94 214.018 Q1819.47 211.68 1821.53 210.522 Q1823.61 209.365 1826.32 209.365 Q1830.79 209.365 1833.08 212.143 Q1835.37 214.897 1835.37 220.268 Z" fill="#000000" fill-rule="nonzero" fill-opacity="1" /><path clip-path="url(#clip850)" d="M1860.93 213.925 L1860.93 199.897 L1865.19 199.897 L1865.19 235.916 L1860.93 235.916 L1860.93 232.027 Q1859.58 234.342 1857.52 235.476 Q1855.49 236.587 1852.62 236.587 Q1847.92 236.587 1844.95 232.837 Q1842.01 229.087 1842.01 222.976 Q1842.01 216.865 1844.95 213.115 Q1847.92 209.365 1852.62 209.365 Q1855.49 209.365 1857.52 210.499 Q1859.58 211.61 1860.93 213.925 M1846.41 222.976 Q1846.41 227.675 1848.33 230.36 Q1850.28 233.022 1853.66 233.022 Q1857.04 233.022 1858.98 230.36 Q1860.93 227.675 1860.93 222.976 Q1860.93 218.277 1858.98 215.615 Q1857.04 212.93 1853.66 212.93 Q1850.28 212.93 1848.33 215.615 Q1846.41 218.277 1846.41 222.976 Z" fill="#000000" fill-rule="nonzero" fill-opacity="1" /><path clip-path="url(#clip850)" d="M1888.98 213.971 Q1888.26 213.555 1887.41 213.37 Q1886.57 213.161 1885.56 213.161 Q1881.94 213.161 1880 215.522 Q1878.08 217.86 1878.08 222.258 L1878.08 235.916 L1873.8 235.916 L1873.8 209.99 L1878.08 209.99 L1878.08 214.018 Q1879.42 211.657 1881.57 210.522 Q1883.73 209.365 1886.81 209.365 Q1887.25 209.365 1887.78 209.434 Q1888.31 209.481 1888.96 209.596 L1888.98 213.971 Z" fill="#000000" fill-rule="nonzero" fill-opacity="1" /><path clip-path="url(#clip850)" d="M1914.58 221.888 L1914.58 223.971 L1895 223.971 Q1895.28 228.369 1897.64 230.684 Q1900.02 232.976 1904.26 232.976 Q1906.71 232.976 1909 232.374 Q1911.32 231.772 1913.59 230.569 L1913.59 234.596 Q1911.3 235.568 1908.89 236.078 Q1906.48 236.587 1904 236.587 Q1897.8 236.587 1894.17 232.976 Q1890.56 229.365 1890.56 223.207 Q1890.56 216.842 1893.98 213.115 Q1897.43 209.365 1903.26 209.365 Q1908.5 209.365 1911.53 212.745 Q1914.58 216.101 1914.58 221.888 M1910.32 220.638 Q1910.28 217.143 1908.36 215.059 Q1906.46 212.976 1903.31 212.976 Q1899.75 212.976 1897.59 214.99 Q1895.46 217.004 1895.14 220.661 L1910.32 220.638 Z" fill="#000000" fill-rule="nonzero" fill-opacity="1" /><path clip-path="url(#clip850)" d="M1921.57 209.99 L1925.83 209.99 L1925.83 235.916 L1921.57 235.916 L1921.57 209.99 M1921.57 199.897 L1925.83 199.897 L1925.83 205.291 L1921.57 205.291 L1921.57 199.897 Z" fill="#000000" fill-rule="nonzero" fill-opacity="1" /><path clip-path="url(#clip850)" d="M1954.44 243.786 L1954.44 247.096 L1929.81 247.096 L1929.81 243.786 L1954.44 243.786 Z" fill="#000000" fill-rule="nonzero" fill-opacity="1" /><path clip-path="url(#clip850)" d="M1970.23 222.883 Q1965.07 222.883 1963.08 224.064 Q1961.09 225.244 1961.09 228.092 Q1961.09 230.36 1962.57 231.703 Q1964.07 233.022 1966.64 233.022 Q1970.19 233.022 1972.31 230.522 Q1974.47 227.999 1974.47 223.832 L1974.47 222.883 L1970.23 222.883 M1978.73 221.124 L1978.73 235.916 L1974.47 235.916 L1974.47 231.981 Q1973.01 234.342 1970.83 235.476 Q1968.66 236.587 1965.51 236.587 Q1961.53 236.587 1959.17 234.365 Q1956.83 232.119 1956.83 228.369 Q1956.83 223.994 1959.75 221.772 Q1962.69 219.55 1968.5 219.55 L1974.47 219.55 L1974.47 219.133 Q1974.47 216.194 1972.52 214.596 Q1970.6 212.976 1967.11 212.976 Q1964.88 212.976 1962.78 213.508 Q1960.67 214.041 1958.73 215.106 L1958.73 211.17 Q1961.06 210.268 1963.26 209.828 Q1965.46 209.365 1967.55 209.365 Q1973.17 209.365 1975.95 212.282 Q1978.73 215.198 1978.73 221.124 Z" fill="#000000" fill-rule="nonzero" fill-opacity="1" /><path clip-path="url(#clip850)" d="M1987.5 199.897 L1991.76 199.897 L1991.76 235.916 L1987.5 235.916 L1987.5 199.897 Z" fill="#000000" fill-rule="nonzero" fill-opacity="1" /><path clip-path="url(#clip850)" d="M2004.88 202.629 L2004.88 209.99 L2013.66 209.99 L2013.66 213.3 L2004.88 213.3 L2004.88 227.374 Q2004.88 230.545 2005.74 231.448 Q2006.62 232.351 2009.28 232.351 L2013.66 232.351 L2013.66 235.916 L2009.28 235.916 Q2004.35 235.916 2002.48 234.087 Q2000.6 232.235 2000.6 227.374 L2000.6 213.3 L1997.48 213.3 L1997.48 209.99 L2000.6 209.99 L2000.6 202.629 L2004.88 202.629 Z" fill="#000000" fill-rule="nonzero" fill-opacity="1" /><polyline clip-path="url(#clip850)" style="stroke:#e26f46; stroke-linecap:round; stroke-linejoin:round; stroke-width:4; stroke-opacity:1; fill:none" points="1531.96,270.476 1667.9,270.476 "/>
<path clip-path="url(#clip850)" d="M1690.56 253.196 L1695.23 253.196 L1695.23 283.821 L1712.06 283.821 L1712.06 287.756 L1690.56 287.756 L1690.56 253.196 Z" fill="#000000" fill-rule="nonzero" fill-opacity="1" /><path clip-path="url(#clip850)" d="M1716.97 253.196 L1723.94 253.196 L1732.76 276.714 L1741.62 253.196 L1748.59 253.196 L1748.59 287.756 L1744.03 287.756 L1744.03 257.409 L1735.12 281.112 L1730.42 281.112 L1721.51 257.409 L1721.51 287.756 L1716.97 287.756 L1716.97 253.196 Z" fill="#000000" fill-rule="nonzero" fill-opacity="1" /><path clip-path="url(#clip850)" d="M1777.39 295.626 L1777.39 298.936 L1752.76 298.936 L1752.76 295.626 L1777.39 295.626 Z" fill="#000000" fill-rule="nonzero" fill-opacity="1" /><path clip-path="url(#clip850)" d="M1793.13 257.802 L1786.78 275.001 L1799.49 275.001 L1793.13 257.802 M1790.49 253.196 L1795.79 253.196 L1808.96 287.756 L1804.1 287.756 L1800.95 278.89 L1785.37 278.89 L1782.22 287.756 L1777.29 287.756 L1790.49 253.196 Z" fill="#000000" fill-rule="nonzero" fill-opacity="1" /><path clip-path="url(#clip850)" d="M1835.37 272.108 L1835.37 287.756 L1831.11 287.756 L1831.11 272.247 Q1831.11 268.566 1829.68 266.737 Q1828.24 264.909 1825.37 264.909 Q1821.92 264.909 1819.93 267.108 Q1817.94 269.307 1817.94 273.103 L1817.94 287.756 L1813.66 287.756 L1813.66 261.83 L1817.94 261.83 L1817.94 265.858 Q1819.47 263.52 1821.53 262.362 Q1823.61 261.205 1826.32 261.205 Q1830.79 261.205 1833.08 263.983 Q1835.37 266.737 1835.37 272.108 Z" fill="#000000" fill-rule="nonzero" fill-opacity="1" /><path clip-path="url(#clip850)" d="M1860.93 265.765 L1860.93 251.737 L1865.19 251.737 L1865.19 287.756 L1860.93 287.756 L1860.93 283.867 Q1859.58 286.182 1857.52 287.316 Q1855.49 288.427 1852.62 288.427 Q1847.92 288.427 1844.95 284.677 Q1842.01 280.927 1842.01 274.816 Q1842.01 268.705 1844.95 264.955 Q1847.92 261.205 1852.62 261.205 Q1855.49 261.205 1857.52 262.339 Q1859.58 263.45 1860.93 265.765 M1846.41 274.816 Q1846.41 279.515 1848.33 282.2 Q1850.28 284.862 1853.66 284.862 Q1857.04 284.862 1858.98 282.2 Q1860.93 279.515 1860.93 274.816 Q1860.93 270.117 1858.98 267.455 Q1857.04 264.77 1853.66 264.77 Q1850.28 264.77 1848.33 267.455 Q1846.41 270.117 1846.41 274.816 Z" fill="#000000" fill-rule="nonzero" fill-opacity="1" /><path clip-path="url(#clip850)" d="M1888.98 265.811 Q1888.26 265.395 1887.41 265.21 Q1886.57 265.001 1885.56 265.001 Q1881.94 265.001 1880 267.362 Q1878.08 269.7 1878.08 274.098 L1878.08 287.756 L1873.8 287.756 L1873.8 261.83 L1878.08 261.83 L1878.08 265.858 Q1879.42 263.497 1881.57 262.362 Q1883.73 261.205 1886.81 261.205 Q1887.25 261.205 1887.78 261.274 Q1888.31 261.321 1888.96 261.436 L1888.98 265.811 Z" fill="#000000" fill-rule="nonzero" fill-opacity="1" /><path clip-path="url(#clip850)" d="M1914.58 273.728 L1914.58 275.811 L1895 275.811 Q1895.28 280.209 1897.64 282.524 Q1900.02 284.816 1904.26 284.816 Q1906.71 284.816 1909 284.214 Q1911.32 283.612 1913.59 282.409 L1913.59 286.436 Q1911.3 287.408 1908.89 287.918 Q1906.48 288.427 1904 288.427 Q1897.8 288.427 1894.17 284.816 Q1890.56 281.205 1890.56 275.047 Q1890.56 268.682 1893.98 264.955 Q1897.43 261.205 1903.26 261.205 Q1908.5 261.205 1911.53 264.585 Q1914.58 267.941 1914.58 273.728 M1910.32 272.478 Q1910.28 268.983 1908.36 266.899 Q1906.46 264.816 1903.31 264.816 Q1899.75 264.816 1897.59 266.83 Q1895.46 268.844 1895.14 272.501 L1910.32 272.478 Z" fill="#000000" fill-rule="nonzero" fill-opacity="1" /><path clip-path="url(#clip850)" d="M1921.57 261.83 L1925.83 261.83 L1925.83 287.756 L1921.57 287.756 L1921.57 261.83 M1921.57 251.737 L1925.83 251.737 L1925.83 257.131 L1921.57 257.131 L1921.57 251.737 Z" fill="#000000" fill-rule="nonzero" fill-opacity="1" /><path clip-path="url(#clip850)" d="M1954.44 295.626 L1954.44 298.936 L1929.81 298.936 L1929.81 295.626 L1954.44 295.626 Z" fill="#000000" fill-rule="nonzero" fill-opacity="1" /><path clip-path="url(#clip850)" d="M1970.23 274.723 Q1965.07 274.723 1963.08 275.904 Q1961.09 277.084 1961.09 279.932 Q1961.09 282.2 1962.57 283.543 Q1964.07 284.862 1966.64 284.862 Q1970.19 284.862 1972.31 282.362 Q1974.47 279.839 1974.47 275.672 L1974.47 274.723 L1970.23 274.723 M1978.73 272.964 L1978.73 287.756 L1974.47 287.756 L1974.47 283.821 Q1973.01 286.182 1970.83 287.316 Q1968.66 288.427 1965.51 288.427 Q1961.53 288.427 1959.17 286.205 Q1956.83 283.959 1956.83 280.209 Q1956.83 275.834 1959.75 273.612 Q1962.69 271.39 1968.5 271.39 L1974.47 271.39 L1974.47 270.973 Q1974.47 268.034 1972.52 266.436 Q1970.6 264.816 1967.11 264.816 Q1964.88 264.816 1962.78 265.348 Q1960.67 265.881 1958.73 266.946 L1958.73 263.01 Q1961.06 262.108 1963.26 261.668 Q1965.46 261.205 1967.55 261.205 Q1973.17 261.205 1975.95 264.122 Q1978.73 267.038 1978.73 272.964 Z" fill="#000000" fill-rule="nonzero" fill-opacity="1" /><path clip-path="url(#clip850)" d="M1987.5 251.737 L1991.76 251.737 L1991.76 287.756 L1987.5 287.756 L1987.5 251.737 Z" fill="#000000" fill-rule="nonzero" fill-opacity="1" /><path clip-path="url(#clip850)" d="M2004.88 254.469 L2004.88 261.83 L2013.66 261.83 L2013.66 265.14 L2004.88 265.14 L2004.88 279.214 Q2004.88 282.385 2005.74 283.288 Q2006.62 284.191 2009.28 284.191 L2013.66 284.191 L2013.66 287.756 L2009.28 287.756 Q2004.35 287.756 2002.48 285.927 Q2000.6 284.075 2000.6 279.214 L2000.6 265.14 L1997.48 265.14 L1997.48 261.83 L2000.6 261.83 L2000.6 254.469 L2004.88 254.469 Z" fill="#000000" fill-rule="nonzero" fill-opacity="1" /><path clip-path="url(#clip850)" d="M2038.96 295.626 L2038.96 298.936 L2014.33 298.936 L2014.33 295.626 L2038.96 295.626 Z" fill="#000000" fill-rule="nonzero" fill-opacity="1" /><path clip-path="url(#clip850)" d="M2045.51 274.816 Q2045.51 279.515 2047.43 282.2 Q2049.37 284.862 2052.75 284.862 Q2056.13 284.862 2058.08 282.2 Q2060.02 279.515 2060.02 274.816 Q2060.02 270.117 2058.08 267.455 Q2056.13 264.77 2052.75 264.77 Q2049.37 264.77 2047.43 267.455 Q2045.51 270.117 2045.51 274.816 M2060.02 283.867 Q2058.68 286.182 2056.62 287.316 Q2054.58 288.427 2051.71 288.427 Q2047.01 288.427 2044.05 284.677 Q2041.11 280.927 2041.11 274.816 Q2041.11 268.705 2044.05 264.955 Q2047.01 261.205 2051.71 261.205 Q2054.58 261.205 2056.62 262.339 Q2058.68 263.45 2060.02 265.765 L2060.02 261.83 L2064.28 261.83 L2064.28 297.617 L2060.02 297.617 L2060.02 283.867 Z" fill="#000000" fill-rule="nonzero" fill-opacity="1" /><path clip-path="url(#clip850)" d="M2088.08 265.811 Q2087.36 265.395 2086.5 265.21 Q2085.67 265.001 2084.65 265.001 Q2081.04 265.001 2079.1 267.362 Q2077.18 269.7 2077.18 274.098 L2077.18 287.756 L2072.89 287.756 L2072.89 261.83 L2077.18 261.83 L2077.18 265.858 Q2078.52 263.497 2080.67 262.362 Q2082.82 261.205 2085.9 261.205 Q2086.34 261.205 2086.87 261.274 Q2087.41 261.321 2088.05 261.436 L2088.08 265.811 Z" fill="#000000" fill-rule="nonzero" fill-opacity="1" /><path clip-path="url(#clip850)" d="M2111.9 266.807 Q2113.49 263.936 2115.72 262.571 Q2117.94 261.205 2120.95 261.205 Q2125 261.205 2127.2 264.052 Q2129.4 266.876 2129.4 272.108 L2129.4 287.756 L2125.11 287.756 L2125.11 272.247 Q2125.11 268.52 2123.8 266.714 Q2122.48 264.909 2119.77 264.909 Q2116.46 264.909 2114.54 267.108 Q2112.61 269.307 2112.61 273.103 L2112.61 287.756 L2108.33 287.756 L2108.33 272.247 Q2108.33 268.497 2107.01 266.714 Q2105.69 264.909 2102.94 264.909 Q2099.68 264.909 2097.75 267.131 Q2095.83 269.33 2095.83 273.103 L2095.83 287.756 L2091.55 287.756 L2091.55 261.83 L2095.83 261.83 L2095.83 265.858 Q2097.29 263.473 2099.33 262.339 Q2101.36 261.205 2104.17 261.205 Q2106.99 261.205 2108.96 262.64 Q2110.95 264.075 2111.9 266.807 Z" fill="#000000" fill-rule="nonzero" fill-opacity="1" /><path clip-path="url(#clip850)" d="M2137.45 277.524 L2137.45 261.83 L2141.71 261.83 L2141.71 277.362 Q2141.71 281.043 2143.15 282.895 Q2144.58 284.723 2147.45 284.723 Q2150.9 284.723 2152.89 282.524 Q2154.91 280.325 2154.91 276.529 L2154.91 261.83 L2159.17 261.83 L2159.17 287.756 L2154.91 287.756 L2154.91 283.774 Q2153.36 286.135 2151.3 287.293 Q2149.26 288.427 2146.55 288.427 Q2142.08 288.427 2139.77 285.649 Q2137.45 282.871 2137.45 277.524 M2148.17 261.205 L2148.17 261.205 Z" fill="#000000" fill-rule="nonzero" fill-opacity="1" /><path clip-path="url(#clip850)" d="M2188.12 266.807 Q2189.72 263.936 2191.94 262.571 Q2194.17 261.205 2197.17 261.205 Q2201.23 261.205 2203.42 264.052 Q2205.62 266.876 2205.62 272.108 L2205.62 287.756 L2201.34 287.756 L2201.34 272.247 Q2201.34 268.52 2200.02 266.714 Q2198.7 264.909 2195.99 264.909 Q2192.68 264.909 2190.76 267.108 Q2188.84 269.307 2188.84 273.103 L2188.84 287.756 L2184.56 287.756 L2184.56 272.247 Q2184.56 268.497 2183.24 266.714 Q2181.92 264.909 2179.17 264.909 Q2175.9 264.909 2173.98 267.131 Q2172.06 269.33 2172.06 273.103 L2172.06 287.756 L2167.78 287.756 L2167.78 261.83 L2172.06 261.83 L2172.06 265.858 Q2173.52 263.473 2175.55 262.339 Q2177.59 261.205 2180.39 261.205 Q2183.22 261.205 2185.18 262.64 Q2187.17 264.075 2188.12 266.807 Z" fill="#000000" fill-rule="nonzero" fill-opacity="1" /><path clip-path="url(#clip850)" d="M2218.24 283.867 L2218.24 297.617 L2213.96 297.617 L2213.96 261.83 L2218.24 261.83 L2218.24 265.765 Q2219.58 263.45 2221.62 262.339 Q2223.68 261.205 2226.53 261.205 Q2231.25 261.205 2234.19 264.955 Q2237.15 268.705 2237.15 274.816 Q2237.15 280.927 2234.19 284.677 Q2231.25 288.427 2226.53 288.427 Q2223.68 288.427 2221.62 287.316 Q2219.58 286.182 2218.24 283.867 M2232.73 274.816 Q2232.73 270.117 2230.79 267.455 Q2228.86 264.77 2225.48 264.77 Q2222.1 264.77 2220.16 267.455 Q2218.24 270.117 2218.24 274.816 Q2218.24 279.515 2220.16 282.2 Q2222.1 284.862 2225.48 284.862 Q2228.86 284.862 2230.79 282.2 Q2232.73 279.515 2232.73 274.816 Z" fill="#000000" fill-rule="nonzero" fill-opacity="1" /><path clip-path="url(#clip850)" d="M2260.74 262.594 L2260.74 266.622 Q2258.93 265.696 2256.99 265.233 Q2255.04 264.77 2252.96 264.77 Q2249.79 264.77 2248.19 265.742 Q2246.62 266.714 2246.62 268.659 Q2246.62 270.14 2247.75 270.997 Q2248.89 271.83 2252.31 272.594 L2253.77 272.918 Q2258.31 273.89 2260.21 275.672 Q2262.13 277.432 2262.13 280.603 Q2262.13 284.214 2259.26 286.321 Q2256.41 288.427 2251.41 288.427 Q2249.33 288.427 2247.06 288.01 Q2244.81 287.617 2242.31 286.807 L2242.31 282.409 Q2244.67 283.635 2246.97 284.26 Q2249.26 284.862 2251.5 284.862 Q2254.51 284.862 2256.13 283.844 Q2257.75 282.802 2257.75 280.927 Q2257.75 279.191 2256.57 278.265 Q2255.41 277.339 2251.46 276.483 L2249.98 276.135 Q2246.02 275.302 2244.26 273.589 Q2242.5 271.853 2242.5 268.844 Q2242.5 265.186 2245.09 263.196 Q2247.68 261.205 2252.45 261.205 Q2254.81 261.205 2256.9 261.552 Q2258.98 261.899 2260.74 262.594 Z" fill="#000000" fill-rule="nonzero" fill-opacity="1" /></svg>
