<?xml version="1.0" encoding="utf-8"?>
<svg xmlns="http://www.w3.org/2000/svg" xmlns:xlink="http://www.w3.org/1999/xlink" width="600" height="400" viewBox="0 0 2400 1600">
<defs>
  <clipPath id="clip570">
    <rect x="0" y="0" width="2400" height="1600"/>
  </clipPath>
</defs>
<path clip-path="url(#clip570)" d="M0 1600 L2400 1600 L2400 0 L0 0  Z" fill="#ffffff" fill-rule="evenodd" fill-opacity="1"/>
<defs>
  <clipPath id="clip571">
    <rect x="480" y="0" width="1681" height="1600"/>
  </clipPath>
</defs>
<path clip-path="url(#clip570)" d="M251.372 1423.18 L2352.76 1423.18 L2352.76 123.472 L251.372 123.472  Z" fill="#ffffff" fill-rule="evenodd" fill-opacity="1"/>
<defs>
  <clipPath id="clip572">
    <rect x="251" y="123" width="2102" height="1301"/>
  </clipPath>
</defs>
<polyline clip-path="url(#clip572)" style="stroke:#000000; stroke-linecap:round; stroke-linejoin:round; stroke-width:2; stroke-opacity:0.1; fill:none" points="707.333,1423.18 707.333,123.472 "/>
<polyline clip-path="url(#clip572)" style="stroke:#000000; stroke-linecap:round; stroke-linejoin:round; stroke-width:2; stroke-opacity:0.1; fill:none" points="1202.94,1423.18 1202.94,123.472 "/>
<polyline clip-path="url(#clip572)" style="stroke:#000000; stroke-linecap:round; stroke-linejoin:round; stroke-width:2; stroke-opacity:0.1; fill:none" points="1698.55,1423.18 1698.55,123.472 "/>
<polyline clip-path="url(#clip572)" style="stroke:#000000; stroke-linecap:round; stroke-linejoin:round; stroke-width:2; stroke-opacity:0.1; fill:none" points="2194.16,1423.18 2194.16,123.472 "/>
<polyline clip-path="url(#clip570)" style="stroke:#000000; stroke-linecap:round; stroke-linejoin:round; stroke-width:4; stroke-opacity:1; fill:none" points="251.372,1423.18 2352.76,1423.18 "/>
<polyline clip-path="url(#clip570)" style="stroke:#000000; stroke-linecap:round; stroke-linejoin:round; stroke-width:4; stroke-opacity:1; fill:none" points="707.333,1423.18 707.333,1404.28 "/>
<polyline clip-path="url(#clip570)" style="stroke:#000000; stroke-linecap:round; stroke-linejoin:round; stroke-width:4; stroke-opacity:1; fill:none" points="1202.94,1423.18 1202.94,1404.28 "/>
<polyline clip-path="url(#clip570)" style="stroke:#000000; stroke-linecap:round; stroke-linejoin:round; stroke-width:4; stroke-opacity:1; fill:none" points="1698.55,1423.18 1698.55,1404.28 "/>
<polyline clip-path="url(#clip570)" style="stroke:#000000; stroke-linecap:round; stroke-linejoin:round; stroke-width:4; stroke-opacity:1; fill:none" points="2194.16,1423.18 2194.16,1404.28 "/>
<path clip-path="url(#clip570)" d="M697.611 1451.02 L715.967 1451.02 L715.967 1454.96 L701.893 1454.96 L701.893 1463.43 Q702.912 1463.08 703.93 1462.92 Q704.949 1462.73 705.967 1462.73 Q711.754 1462.73 715.134 1465.9 Q718.513 1469.08 718.513 1474.49 Q718.513 1480.07 715.041 1483.17 Q711.569 1486.25 705.249 1486.25 Q703.074 1486.25 700.805 1485.88 Q698.56 1485.51 696.152 1484.77 L696.152 1480.07 Q698.236 1481.2 700.458 1481.76 Q702.68 1482.32 705.157 1482.32 Q709.161 1482.32 711.499 1480.21 Q713.837 1478.1 713.837 1474.49 Q713.837 1470.88 711.499 1468.77 Q709.161 1466.67 705.157 1466.67 Q703.282 1466.67 701.407 1467.08 Q699.555 1467.5 697.611 1468.38 L697.611 1451.02 Z" fill="#000000" fill-rule="nonzero" fill-opacity="1" /><path clip-path="url(#clip570)" d="M1177.63 1481.64 L1185.27 1481.64 L1185.27 1455.28 L1176.96 1456.95 L1176.96 1452.69 L1185.22 1451.02 L1189.9 1451.02 L1189.9 1481.64 L1197.54 1481.64 L1197.54 1485.58 L1177.63 1485.58 L1177.63 1481.64 Z" fill="#000000" fill-rule="nonzero" fill-opacity="1" /><path clip-path="url(#clip570)" d="M1216.98 1454.1 Q1213.37 1454.1 1211.54 1457.66 Q1209.74 1461.2 1209.74 1468.33 Q1209.74 1475.44 1211.54 1479.01 Q1213.37 1482.55 1216.98 1482.55 Q1220.62 1482.55 1222.42 1479.01 Q1224.25 1475.44 1224.25 1468.33 Q1224.25 1461.2 1222.42 1457.66 Q1220.62 1454.1 1216.98 1454.1 M1216.98 1450.39 Q1222.79 1450.39 1225.85 1455 Q1228.93 1459.58 1228.93 1468.33 Q1228.93 1477.06 1225.85 1481.67 Q1222.79 1486.25 1216.98 1486.25 Q1211.17 1486.25 1208.09 1481.67 Q1205.04 1477.06 1205.04 1468.33 Q1205.04 1459.58 1208.09 1455 Q1211.17 1450.39 1216.98 1450.39 Z" fill="#000000" fill-rule="nonzero" fill-opacity="1" /><path clip-path="url(#clip570)" d="M1673.74 1481.64 L1681.38 1481.64 L1681.38 1455.28 L1673.07 1456.95 L1673.07 1452.69 L1681.33 1451.02 L1686.01 1451.02 L1686.01 1481.64 L1693.64 1481.64 L1693.64 1485.58 L1673.74 1485.58 L1673.74 1481.64 Z" fill="#000000" fill-rule="nonzero" fill-opacity="1" /><path clip-path="url(#clip570)" d="M1703.13 1451.02 L1721.49 1451.02 L1721.49 1454.96 L1707.42 1454.96 L1707.42 1463.43 Q1708.44 1463.08 1709.45 1462.92 Q1710.47 1462.73 1711.49 1462.73 Q1717.28 1462.73 1720.66 1465.9 Q1724.04 1469.08 1724.04 1474.49 Q1724.04 1480.07 1720.57 1483.17 Q1717.09 1486.25 1710.77 1486.25 Q1708.6 1486.25 1706.33 1485.88 Q1704.08 1485.51 1701.68 1484.77 L1701.68 1480.07 Q1703.76 1481.2 1705.98 1481.76 Q1708.2 1482.32 1710.68 1482.32 Q1714.69 1482.32 1717.02 1480.21 Q1719.36 1478.1 1719.36 1474.49 Q1719.36 1470.88 1717.02 1468.77 Q1714.69 1466.67 1710.68 1466.67 Q1708.81 1466.67 1706.93 1467.08 Q1705.08 1467.5 1703.13 1468.38 L1703.13 1451.02 Z" fill="#000000" fill-rule="nonzero" fill-opacity="1" /><path clip-path="url(#clip570)" d="M2172.93 1481.64 L2189.25 1481.64 L2189.25 1485.58 L2167.31 1485.58 L2167.31 1481.64 Q2169.97 1478.89 2174.55 1474.26 Q2179.16 1469.61 2180.34 1468.27 Q2182.59 1465.74 2183.47 1464.01 Q2184.37 1462.25 2184.37 1460.56 Q2184.37 1457.8 2182.42 1456.07 Q2180.5 1454.33 2177.4 1454.33 Q2175.2 1454.33 2172.75 1455.09 Q2170.32 1455.86 2167.54 1457.41 L2167.54 1452.69 Q2170.36 1451.55 2172.82 1450.97 Q2175.27 1450.39 2177.31 1450.39 Q2182.68 1450.39 2185.87 1453.08 Q2189.07 1455.77 2189.07 1460.26 Q2189.07 1462.39 2188.26 1464.31 Q2187.47 1466.2 2185.36 1468.8 Q2184.79 1469.47 2181.68 1472.69 Q2178.58 1475.88 2172.93 1481.64 Z" fill="#000000" fill-rule="nonzero" fill-opacity="1" /><path clip-path="url(#clip570)" d="M2209.07 1454.1 Q2205.46 1454.1 2203.63 1457.66 Q2201.82 1461.2 2201.82 1468.33 Q2201.82 1475.44 2203.63 1479.01 Q2205.46 1482.55 2209.07 1482.55 Q2212.7 1482.55 2214.51 1479.01 Q2216.34 1475.44 2216.34 1468.33 Q2216.34 1461.2 2214.51 1457.66 Q2212.7 1454.1 2209.07 1454.1 M2209.07 1450.39 Q2214.88 1450.39 2217.93 1455 Q2221.01 1459.58 2221.01 1468.33 Q2221.01 1477.06 2217.93 1481.67 Q2214.88 1486.25 2209.07 1486.25 Q2203.26 1486.25 2200.18 1481.67 Q2197.12 1477.06 2197.12 1468.33 Q2197.12 1459.58 2200.18 1455 Q2203.26 1450.39 2209.07 1450.39 Z" fill="#000000" fill-rule="nonzero" fill-opacity="1" /><path clip-path="url(#clip570)" d="M1286.25 1518.52 L1292.13 1518.52 L1292.13 1547.77 L1309.61 1532.4 L1317.09 1532.4 L1298.18 1549.07 L1317.88 1568.04 L1310.24 1568.04 L1292.13 1550.63 L1292.13 1568.04 L1286.25 1568.04 L1286.25 1518.52 Z" fill="#000000" fill-rule="nonzero" fill-opacity="1" /><polyline clip-path="url(#clip572)" style="stroke:#000000; stroke-linecap:round; stroke-linejoin:round; stroke-width:2; stroke-opacity:0.1; fill:none" points="251.372,1309.9 2352.76,1309.9 "/>
<polyline clip-path="url(#clip572)" style="stroke:#000000; stroke-linecap:round; stroke-linejoin:round; stroke-width:2; stroke-opacity:0.1; fill:none" points="251.372,726.918 2352.76,726.918 "/>
<polyline clip-path="url(#clip572)" style="stroke:#000000; stroke-linecap:round; stroke-linejoin:round; stroke-width:2; stroke-opacity:0.1; fill:none" points="251.372,143.933 2352.76,143.933 "/>
<polyline clip-path="url(#clip570)" style="stroke:#000000; stroke-linecap:round; stroke-linejoin:round; stroke-width:4; stroke-opacity:1; fill:none" points="251.372,1423.18 251.372,123.472 "/>
<polyline clip-path="url(#clip570)" style="stroke:#000000; stroke-linecap:round; stroke-linejoin:round; stroke-width:4; stroke-opacity:1; fill:none" points="251.372,1309.9 270.27,1309.9 "/>
<polyline clip-path="url(#clip570)" style="stroke:#000000; stroke-linecap:round; stroke-linejoin:round; stroke-width:4; stroke-opacity:1; fill:none" points="251.372,726.918 270.27,726.918 "/>
<polyline clip-path="url(#clip570)" style="stroke:#000000; stroke-linecap:round; stroke-linejoin:round; stroke-width:4; stroke-opacity:1; fill:none" points="251.372,143.933 270.27,143.933 "/>
<path clip-path="url(#clip570)" d="M115.232 1329.7 L122.871 1329.7 L122.871 1303.33 L114.561 1305 L114.561 1300.74 L122.825 1299.07 L127.501 1299.07 L127.501 1329.7 L135.14 1329.7 L135.14 1333.63 L115.232 1333.63 L115.232 1329.7 Z" fill="#000000" fill-rule="nonzero" fill-opacity="1" /><path clip-path="url(#clip570)" d="M154.584 1302.15 Q150.973 1302.15 149.144 1305.71 Q147.339 1309.26 147.339 1316.39 Q147.339 1323.49 149.144 1327.06 Q150.973 1330.6 154.584 1330.6 Q158.218 1330.6 160.024 1327.06 Q161.852 1323.49 161.852 1316.39 Q161.852 1309.26 160.024 1305.71 Q158.218 1302.15 154.584 1302.15 M154.584 1298.45 Q160.394 1298.45 163.45 1303.05 Q166.528 1307.64 166.528 1316.39 Q166.528 1325.11 163.45 1329.72 Q160.394 1334.3 154.584 1334.3 Q148.774 1334.3 145.695 1329.72 Q142.64 1325.11 142.64 1316.39 Q142.64 1307.64 145.695 1303.05 Q148.774 1298.45 154.584 1298.45 Z" fill="#000000" fill-rule="nonzero" fill-opacity="1" /><path clip-path="url(#clip570)" d="M166.528 1292.55 L190.64 1292.55 L190.64 1295.74 L166.528 1295.74 L166.528 1292.55 Z" fill="#000000" fill-rule="nonzero" fill-opacity="1" /><path clip-path="url(#clip570)" d="M202.113 1303.02 L215.372 1303.02 L215.372 1306.22 L197.542 1306.22 L197.542 1303.02 Q199.705 1300.78 203.429 1297.02 Q207.172 1293.24 208.131 1292.15 Q209.956 1290.1 210.67 1288.69 Q211.404 1287.26 211.404 1285.89 Q211.404 1283.65 209.824 1282.24 Q208.263 1280.83 205.743 1280.83 Q203.956 1280.83 201.962 1281.45 Q199.987 1282.07 197.73 1283.33 L197.73 1279.49 Q200.025 1278.57 202.019 1278.1 Q204.012 1277.63 205.667 1277.63 Q210.031 1277.63 212.626 1279.81 Q215.222 1282 215.222 1285.64 Q215.222 1287.37 214.563 1288.94 Q213.924 1290.48 212.212 1292.58 Q211.742 1293.13 209.222 1295.74 Q206.702 1298.34 202.113 1303.02 Z" fill="#000000" fill-rule="nonzero" fill-opacity="1" /><path clip-path="url(#clip570)" d="M114.931 746.71 L122.57 746.71 L122.57 720.345 L114.26 722.012 L114.26 717.752 L122.524 716.086 L127.2 716.086 L127.2 746.71 L134.839 746.71 L134.839 750.646 L114.931 750.646 L114.931 746.71 Z" fill="#000000" fill-rule="nonzero" fill-opacity="1" /><path clip-path="url(#clip570)" d="M154.283 719.164 Q150.672 719.164 148.843 722.729 Q147.038 726.271 147.038 733.4 Q147.038 740.507 148.843 744.072 Q150.672 747.613 154.283 747.613 Q157.917 747.613 159.723 744.072 Q161.552 740.507 161.552 733.4 Q161.552 726.271 159.723 722.729 Q157.917 719.164 154.283 719.164 M154.283 715.461 Q160.093 715.461 163.149 720.067 Q166.227 724.65 166.227 733.4 Q166.227 742.127 163.149 746.734 Q160.093 751.317 154.283 751.317 Q148.473 751.317 145.394 746.734 Q142.339 742.127 142.339 733.4 Q142.339 724.65 145.394 720.067 Q148.473 715.461 154.283 715.461 Z" fill="#000000" fill-rule="nonzero" fill-opacity="1" /><path clip-path="url(#clip570)" d="M166.227 709.562 L190.339 709.562 L190.339 712.759 L166.227 712.759 L166.227 709.562 Z" fill="#000000" fill-rule="nonzero" fill-opacity="1" /><path clip-path="url(#clip570)" d="M199.197 720.038 L205.404 720.038 L205.404 698.616 L198.652 699.97 L198.652 696.509 L205.366 695.155 L209.166 695.155 L209.166 720.038 L215.372 720.038 L215.372 723.235 L199.197 723.235 L199.197 720.038 Z" fill="#000000" fill-rule="nonzero" fill-opacity="1" /><path clip-path="url(#clip570)" d="M144.667 163.726 L152.305 163.726 L152.305 137.36 L143.995 139.027 L143.995 134.768 L152.259 133.101 L156.935 133.101 L156.935 163.726 L164.574 163.726 L164.574 167.661 L144.667 167.661 L144.667 163.726 Z" fill="#000000" fill-rule="nonzero" fill-opacity="1" /><path clip-path="url(#clip570)" d="M184.018 136.18 Q180.407 136.18 178.578 139.744 Q176.773 143.286 176.773 150.416 Q176.773 157.522 178.578 161.087 Q180.407 164.628 184.018 164.628 Q187.652 164.628 189.458 161.087 Q191.287 157.522 191.287 150.416 Q191.287 143.286 189.458 139.744 Q187.652 136.18 184.018 136.18 M184.018 132.476 Q189.828 132.476 192.884 137.082 Q195.963 141.666 195.963 150.416 Q195.963 159.142 192.884 163.749 Q189.828 168.332 184.018 168.332 Q178.208 168.332 175.129 163.749 Q172.074 159.142 172.074 150.416 Q172.074 141.666 175.129 137.082 Q178.208 132.476 184.018 132.476 Z" fill="#000000" fill-rule="nonzero" fill-opacity="1" /><path clip-path="url(#clip570)" d="M205.667 114.672 Q202.733 114.672 201.248 117.568 Q199.781 120.446 199.781 126.239 Q199.781 132.013 201.248 134.909 Q202.733 137.787 205.667 137.787 Q208.62 137.787 210.087 134.909 Q211.573 132.013 211.573 126.239 Q211.573 120.446 210.087 117.568 Q208.62 114.672 205.667 114.672 M205.667 111.663 Q210.388 111.663 212.871 115.405 Q215.372 119.129 215.372 126.239 Q215.372 133.329 212.871 137.072 Q210.388 140.796 205.667 140.796 Q200.947 140.796 198.445 137.072 Q195.963 133.329 195.963 126.239 Q195.963 119.129 198.445 115.405 Q200.947 111.663 205.667 111.663 Z" fill="#000000" fill-rule="nonzero" fill-opacity="1" /><path clip-path="url(#clip570)" d="M32.4621 801.797 Q32.4621 806.507 36.1542 809.244 Q39.8145 811.982 46.212 811.982 Q52.6095 811.982 56.3017 809.276 Q59.9619 806.539 59.9619 801.797 Q59.9619 797.118 56.2698 794.381 Q52.5777 791.643 46.212 791.643 Q39.8781 791.643 36.186 794.381 Q32.4621 797.118 32.4621 801.797 M27.4968 801.797 Q27.4968 794.158 32.4621 789.797 Q37.4273 785.437 46.212 785.437 Q54.9649 785.437 59.9619 789.797 Q64.9272 794.158 64.9272 801.797 Q64.9272 809.467 59.9619 813.828 Q54.9649 818.156 46.212 818.156 Q37.4273 818.156 32.4621 813.828 Q27.4968 809.467 27.4968 801.797 Z" fill="#000000" fill-rule="nonzero" fill-opacity="1" /><path clip-path="url(#clip570)" d="M46.212 750.139 Q39.7508 750.139 36.0905 752.812 Q32.3984 755.454 32.3984 760.101 Q32.3984 764.748 36.0905 767.422 Q39.7508 770.064 46.212 770.064 Q52.6732 770.064 56.3653 767.422 Q60.0256 764.748 60.0256 760.101 Q60.0256 755.454 56.3653 752.812 Q52.6732 750.139 46.212 750.139 M33.7671 770.064 Q30.5842 768.218 29.0564 765.417 Q27.4968 762.584 27.4968 758.669 Q27.4968 752.176 32.6531 748.134 Q37.8093 744.06 46.212 744.06 Q54.6147 744.06 59.771 748.134 Q64.9272 752.176 64.9272 758.669 Q64.9272 762.584 63.3994 765.417 Q61.8398 768.218 58.657 770.064 L64.0042 770.064 L64.0042 775.952 L14.479 775.952 L14.479 770.064 L33.7671 770.064 Z" fill="#000000" fill-rule="nonzero" fill-opacity="1" /><path clip-path="url(#clip570)" d="M28.3562 734.352 L28.3562 728.495 L64.6407 728.495 Q71.452 728.495 74.5076 731.105 Q77.5631 733.684 77.5631 739.445 L77.5631 741.673 L72.5979 741.673 L72.5979 740.113 Q72.5979 736.771 71.0383 735.561 Q69.5105 734.352 64.6407 734.352 L28.3562 734.352 M14.479 734.352 L14.479 728.495 L21.895 728.495 L21.895 734.352 L14.479 734.352 Z" fill="#000000" fill-rule="nonzero" fill-opacity="1" /><path clip-path="url(#clip570)" d="M933.553 65.7705 L933.553 89.8329 L926.059 89.8329 L926.059 27.2059 L933.553 27.2059 L933.553 34.0924 Q935.903 30.0415 939.468 28.0971 Q943.073 26.1121 948.056 26.1121 Q956.319 26.1121 961.464 32.6746 Q966.649 39.2371 966.649 49.9314 Q966.649 60.6258 961.464 67.1883 Q956.319 73.7508 948.056 73.7508 Q943.073 73.7508 939.468 71.8063 Q935.903 69.8214 933.553 65.7705 M958.912 49.9314 Q958.912 41.7081 955.509 37.0496 Q952.147 32.3505 946.233 32.3505 Q940.318 32.3505 936.916 37.0496 Q933.553 41.7081 933.553 49.9314 Q933.553 58.1548 936.916 62.8538 Q940.318 67.5124 946.233 67.5124 Q952.147 67.5124 955.509 62.8538 Q958.912 58.1548 958.912 49.9314 Z" fill="#000000" fill-rule="nonzero" fill-opacity="1" /><path clip-path="url(#clip570)" d="M1005.29 34.1734 Q1004.04 33.4443 1002.54 33.1202 Q1001.08 32.7556 999.299 32.7556 Q992.98 32.7556 989.577 36.8875 Q986.215 40.9789 986.215 48.6757 L986.215 72.576 L978.721 72.576 L978.721 27.2059 L986.215 27.2059 L986.215 34.2544 Q988.565 30.1225 992.332 28.1376 Q996.099 26.1121 1001.49 26.1121 Q1002.26 26.1121 1003.19 26.2337 Q1004.12 26.3147 1005.25 26.5172 L1005.29 34.1734 Z" fill="#000000" fill-rule="nonzero" fill-opacity="1" /><path clip-path="url(#clip570)" d="M1028.87 32.4315 Q1022.88 32.4315 1019.39 37.1306 Q1015.91 41.7891 1015.91 49.9314 Q1015.91 58.0738 1019.35 62.7728 Q1022.84 67.4314 1028.87 67.4314 Q1034.83 67.4314 1038.31 62.7323 Q1041.79 58.0333 1041.79 49.9314 Q1041.79 41.8701 1038.31 37.1711 Q1034.83 32.4315 1028.87 32.4315 M1028.87 26.1121 Q1038.59 26.1121 1044.14 32.4315 Q1049.69 38.7509 1049.69 49.9314 Q1049.69 61.0714 1044.14 67.4314 Q1038.59 73.7508 1028.87 73.7508 Q1019.11 73.7508 1013.56 67.4314 Q1008.05 61.0714 1008.05 49.9314 Q1008.05 38.7509 1013.56 32.4315 Q1019.11 26.1121 1028.87 26.1121 Z" fill="#000000" fill-rule="nonzero" fill-opacity="1" /><path clip-path="url(#clip570)" d="M1094.62 49.9314 Q1094.62 41.7081 1091.21 37.0496 Q1087.85 32.3505 1081.94 32.3505 Q1076.02 32.3505 1072.62 37.0496 Q1069.26 41.7081 1069.26 49.9314 Q1069.26 58.1548 1072.62 62.8538 Q1076.02 67.5124 1081.94 67.5124 Q1087.85 67.5124 1091.21 62.8538 Q1094.62 58.1548 1094.62 49.9314 M1069.26 34.0924 Q1071.61 30.0415 1075.17 28.0971 Q1078.78 26.1121 1083.76 26.1121 Q1092.02 26.1121 1097.17 32.6746 Q1102.35 39.2371 1102.35 49.9314 Q1102.35 60.6258 1097.17 67.1883 Q1092.02 73.7508 1083.76 73.7508 Q1078.78 73.7508 1075.17 71.8063 Q1071.61 69.8214 1069.26 65.7705 L1069.26 72.576 L1061.76 72.576 L1061.76 9.54393 L1069.26 9.54393 L1069.26 34.0924 Z" fill="#000000" fill-rule="nonzero" fill-opacity="1" /><path clip-path="url(#clip570)" d="M1114.71 9.54393 L1122.16 9.54393 L1122.16 72.576 L1114.71 72.576 L1114.71 9.54393 Z" fill="#000000" fill-rule="nonzero" fill-opacity="1" /><path clip-path="url(#clip570)" d="M1176.57 48.0275 L1176.57 51.6733 L1142.3 51.6733 Q1142.78 59.3701 1146.91 63.421 Q1151.09 67.4314 1158.5 67.4314 Q1162.79 67.4314 1166.8 66.3781 Q1170.86 65.3249 1174.83 63.2184 L1174.83 70.267 Q1170.81 71.9684 1166.6 72.8596 Q1162.39 73.7508 1158.05 73.7508 Q1147.2 73.7508 1140.84 67.4314 Q1134.52 61.1119 1134.52 50.3365 Q1134.52 39.1965 1140.51 32.6746 Q1146.55 26.1121 1156.76 26.1121 Q1165.91 26.1121 1171.22 32.0264 Q1176.57 37.9003 1176.57 48.0275 M1169.11 45.84 Q1169.03 39.7232 1165.67 36.0774 Q1162.35 32.4315 1156.84 32.4315 Q1150.6 32.4315 1146.83 35.9558 Q1143.11 39.4801 1142.54 45.8805 L1169.11 45.84 M1150.44 6.22219 L1161.86 21.3726 L1155.66 21.3726 L1142.46 6.22219 L1150.44 6.22219 Z" fill="#000000" fill-rule="nonzero" fill-opacity="1" /><path clip-path="url(#clip570)" d="M1224.12 35.9153 Q1226.92 30.8922 1230.81 28.5022 Q1234.7 26.1121 1239.96 26.1121 Q1247.05 26.1121 1250.9 31.0947 Q1254.75 36.0368 1254.75 45.1919 L1254.75 72.576 L1247.26 72.576 L1247.26 45.4349 Q1247.26 38.913 1244.95 35.7533 Q1242.64 32.5936 1237.9 32.5936 Q1232.1 32.5936 1228.74 36.4419 Q1225.38 40.2903 1225.38 46.9338 L1225.38 72.576 L1217.89 72.576 L1217.89 45.4349 Q1217.89 38.8725 1215.58 35.7533 Q1213.27 32.5936 1208.45 32.5936 Q1202.74 32.5936 1199.37 36.4824 Q1196.01 40.3308 1196.01 46.9338 L1196.01 72.576 L1188.52 72.576 L1188.52 27.2059 L1196.01 27.2059 L1196.01 34.2544 Q1198.56 30.082 1202.13 28.0971 Q1205.69 26.1121 1210.59 26.1121 Q1215.54 26.1121 1218.98 28.6237 Q1222.46 31.1352 1224.12 35.9153 Z" fill="#000000" fill-rule="nonzero" fill-opacity="1" /><path clip-path="url(#clip570)" d="M1308.42 48.0275 L1308.42 51.6733 L1274.15 51.6733 Q1274.64 59.3701 1278.77 63.421 Q1282.94 67.4314 1290.36 67.4314 Q1294.65 67.4314 1298.66 66.3781 Q1302.71 65.3249 1306.68 63.2184 L1306.68 70.267 Q1302.67 71.9684 1298.46 72.8596 Q1294.25 73.7508 1289.91 73.7508 Q1279.05 73.7508 1272.69 67.4314 Q1266.38 61.1119 1266.38 50.3365 Q1266.38 39.1965 1272.37 32.6746 Q1278.41 26.1121 1288.62 26.1121 Q1297.77 26.1121 1303.08 32.0264 Q1308.42 37.9003 1308.42 48.0275 M1300.97 45.84 Q1300.89 39.7232 1297.53 36.0774 Q1294.21 32.4315 1288.7 32.4315 Q1282.46 32.4315 1278.69 35.9558 Q1274.96 39.4801 1274.4 45.8805 L1300.97 45.84 Z" fill="#000000" fill-rule="nonzero" fill-opacity="1" /><path clip-path="url(#clip570)" d="M1348.93 62.2867 L1357.48 62.2867 L1357.48 72.576 L1348.93 72.576 L1348.93 62.2867 M1348.93 29.6769 L1357.48 29.6769 L1357.48 39.9662 L1348.93 39.9662 L1348.93 29.6769 Z" fill="#000000" fill-rule="nonzero" fill-opacity="1" /><path clip-path="url(#clip570)" d="M1436.68 35.9153 Q1439.47 30.8922 1443.36 28.5022 Q1447.25 26.1121 1452.51 26.1121 Q1459.6 26.1121 1463.45 31.0947 Q1467.3 36.0368 1467.3 45.1919 L1467.3 72.576 L1459.81 72.576 L1459.81 45.4349 Q1459.81 38.913 1457.5 35.7533 Q1455.19 32.5936 1450.45 32.5936 Q1444.66 32.5936 1441.29 36.4419 Q1437.93 40.2903 1437.93 46.9338 L1437.93 72.576 L1430.44 72.576 L1430.44 45.4349 Q1430.44 38.8725 1428.13 35.7533 Q1425.82 32.5936 1421 32.5936 Q1415.29 32.5936 1411.92 36.4824 Q1408.56 40.3308 1408.56 46.9338 L1408.56 72.576 L1401.07 72.576 L1401.07 27.2059 L1408.56 27.2059 L1408.56 34.2544 Q1411.11 30.082 1414.68 28.0971 Q1418.24 26.1121 1423.15 26.1121 Q1428.09 26.1121 1431.53 28.6237 Q1435.01 31.1352 1436.68 35.9153 Z" fill="#000000" fill-rule="nonzero" fill-opacity="1" /><path clip-path="url(#clip570)" d="M1512.02 49.3643 Q1512.02 41.2625 1508.66 36.8065 Q1505.34 32.3505 1499.3 32.3505 Q1493.31 32.3505 1489.94 36.8065 Q1486.62 41.2625 1486.62 49.3643 Q1486.62 57.4256 1489.94 61.8816 Q1493.31 66.3376 1499.3 66.3376 Q1505.34 66.3376 1508.66 61.8816 Q1512.02 57.4256 1512.02 49.3643 M1519.48 66.9452 Q1519.48 78.5308 1514.33 84.1616 Q1509.19 89.8329 1498.57 89.8329 Q1494.64 89.8329 1491.16 89.2252 Q1487.68 88.6581 1484.4 87.4428 L1484.4 80.1917 Q1487.68 81.9741 1490.88 82.8248 Q1494.08 83.6755 1497.4 83.6755 Q1504.73 83.6755 1508.38 79.8271 Q1512.02 76.0193 1512.02 68.282 L1512.02 64.5957 Q1509.71 68.6061 1506.11 70.5911 Q1502.5 72.576 1497.48 72.576 Q1489.13 72.576 1484.03 66.2161 Q1478.93 59.8562 1478.93 49.3643 Q1478.93 38.832 1484.03 32.472 Q1489.13 26.1121 1497.48 26.1121 Q1502.5 26.1121 1506.11 28.0971 Q1509.71 30.082 1512.02 34.0924 L1512.02 27.2059 L1519.48 27.2059 L1519.48 66.9452 Z" fill="#000000" fill-rule="nonzero" fill-opacity="1" /><path clip-path="url(#clip570)" d="M1572.54 45.1919 L1572.54 72.576 L1565.09 72.576 L1565.09 45.4349 Q1565.09 38.994 1562.58 35.7938 Q1560.07 32.5936 1555.04 32.5936 Q1549.01 32.5936 1545.52 36.4419 Q1542.04 40.2903 1542.04 46.9338 L1542.04 72.576 L1534.55 72.576 L1534.55 9.54393 L1542.04 9.54393 L1542.04 34.2544 Q1544.71 30.163 1548.32 28.1376 Q1551.96 26.1121 1556.7 26.1121 Q1564.52 26.1121 1568.53 30.9732 Q1572.54 35.7938 1572.54 45.1919 Z" fill="#000000" fill-rule="nonzero" fill-opacity="1" /><path clip-path="url(#clip570)" d="M1589.88 65.6895 L1603.25 65.6895 L1603.25 19.5497 L1588.71 22.4663 L1588.71 15.0127 L1603.17 12.096 L1611.35 12.096 L1611.35 65.6895 L1624.72 65.6895 L1624.72 72.576 L1589.88 72.576 L1589.88 65.6895 Z" fill="#000000" fill-rule="nonzero" fill-opacity="1" /><path clip-path="url(#clip570)" d="M1639.18 12.096 L1678.07 12.096 L1678.07 15.5798 L1656.11 72.576 L1647.57 72.576 L1668.23 18.9825 L1639.18 18.9825 L1639.18 12.096 Z" fill="#000000" fill-rule="nonzero" fill-opacity="1" /><polyline clip-path="url(#clip572)" style="stroke:#009af9; stroke-linecap:round; stroke-linejoin:round; stroke-width:4; stroke-opacity:1; fill:none" points="310.845,160.256 409.967,937.244 509.089,749.021 608.211,1296.75 707.333,1386.4 806.455,1386.4 905.577,1386.4 1004.7,1386.4 1103.82,1386.4 "/>
<polyline clip-path="url(#clip572)" style="stroke:#e26f46; stroke-linecap:round; stroke-linejoin:round; stroke-width:4; stroke-opacity:1; fill:none" points="310.845,160.256 409.967,937.244 509.089,937.244 608.211,937.244 707.333,937.244 806.455,983.001 905.577,1356 1004.7,1356 1103.82,1379.9 1202.94,1381.36 1302.06,1382.31 1401.19,1384.37 1500.31,1384.79 1599.43,1385.87 1698.55,1386.08 1797.67,1386.33 1896.8,1386.38 1995.92,1386.39 2095.04,1386.4 2194.16,1386.4 2293.28,1386.4 "/>
<polyline clip-path="url(#clip572)" style="stroke:#3da44d; stroke-linecap:round; stroke-linejoin:round; stroke-width:4; stroke-opacity:1; fill:none" points="310.845,160.256 409.967,937.244 509.089,749.021 608.211,1296.75 707.333,1386.4 806.455,1386.4 905.577,1386.4 1004.7,1386.4 1103.82,1386.4 1202.94,1386.4 "/>
<polyline clip-path="url(#clip572)" style="stroke:#c271d2; stroke-linecap:round; stroke-linejoin:round; stroke-width:4; stroke-opacity:1; fill:none" points="310.845,160.256 409.967,937.244 509.089,937.244 608.211,937.244 707.333,937.244 806.455,983.001 905.577,1356 1004.7,1356 1103.82,1379.9 1202.94,1381.36 1302.06,1382.31 1401.19,1384.37 1500.31,1384.79 1599.43,1385.87 1698.55,1386.08 1797.67,1386.33 1896.8,1386.38 1995.92,1386.39 2095.04,1386.4 2194.16,1386.4 2293.28,1386.4 "/>
<polyline clip-path="url(#clip572)" style="stroke:#ac8d18; stroke-linecap:round; stroke-linejoin:round; stroke-width:4; stroke-opacity:1; fill:none" points="310.845,160.256 409.967,937.244 509.089,937.244 608.211,937.244 707.333,937.244 806.455,983.001 905.577,1356 1004.7,1356 1103.82,1379.9 1202.94,1381.36 1302.06,1382.31 1401.19,1384.37 1500.31,1384.79 1599.43,1385.87 1698.55,1386.08 1797.67,1386.33 1896.8,1386.38 1995.92,1386.39 2095.04,1386.4 2194.16,1386.4 2293.28,1386.4 "/>
<path clip-path="url(#clip570)" d="M1749.47 477.836 L2282.71 477.836 L2282.71 166.796 L1749.47 166.796  Z" fill="#ffffff" fill-rule="evenodd" fill-opacity="1"/>
<polyline clip-path="url(#clip570)" style="stroke:#000000; stroke-linecap:round; stroke-linejoin:round; stroke-width:4; stroke-opacity:1; fill:none" points="1749.47,477.836 2282.71,477.836 2282.71,166.796 1749.47,166.796 1749.47,477.836 "/>
<polyline clip-path="url(#clip570)" style="stroke:#009af9; stroke-linecap:round; stroke-linejoin:round; stroke-width:4; stroke-opacity:1; fill:none" points="1772.82,218.636 1912.91,218.636 "/>
<path clip-path="url(#clip570)" d="M1936.26 201.356 L1940.94 201.356 L1940.94 231.981 L1957.77 231.981 L1957.77 235.916 L1936.26 235.916 L1936.26 201.356 Z" fill="#000000" fill-rule="nonzero" fill-opacity="1" /><path clip-path="url(#clip570)" d="M1962.67 201.356 L1969.64 201.356 L1978.46 224.874 L1987.33 201.356 L1994.29 201.356 L1994.29 235.916 L1989.73 235.916 L1989.73 205.569 L1980.82 229.272 L1976.12 229.272 L1967.21 205.569 L1967.21 235.916 L1962.67 235.916 L1962.67 201.356 Z" fill="#000000" fill-rule="nonzero" fill-opacity="1" /><path clip-path="url(#clip570)" d="M2023.09 243.786 L2023.09 247.096 L1998.46 247.096 L1998.46 243.786 L2023.09 243.786 Z" fill="#000000" fill-rule="nonzero" fill-opacity="1" /><path clip-path="url(#clip570)" d="M2048 202.49 L2048 207.05 Q2045.33 205.777 2042.97 205.152 Q2040.61 204.527 2038.41 204.527 Q2034.59 204.527 2032.51 206.008 Q2030.45 207.49 2030.45 210.221 Q2030.45 212.513 2031.82 213.694 Q2033.2 214.851 2037.05 215.569 L2039.87 216.147 Q2045.1 217.143 2047.58 219.666 Q2050.08 222.166 2050.08 226.379 Q2050.08 231.402 2046.7 233.994 Q2043.34 236.587 2036.84 236.587 Q2034.39 236.587 2031.61 236.031 Q2028.85 235.476 2025.89 234.388 L2025.89 229.573 Q2028.74 231.17 2031.47 231.981 Q2034.2 232.791 2036.84 232.791 Q2040.84 232.791 2043.02 231.217 Q2045.2 229.643 2045.2 226.726 Q2045.2 224.18 2043.62 222.744 Q2042.07 221.309 2038.51 220.592 L2035.66 220.036 Q2030.43 218.995 2028.09 216.772 Q2025.75 214.55 2025.75 210.592 Q2025.75 206.008 2028.97 203.37 Q2032.21 200.731 2037.88 200.731 Q2040.31 200.731 2042.83 201.171 Q2045.36 201.61 2048 202.49 Z" fill="#000000" fill-rule="nonzero" fill-opacity="1" /><path clip-path="url(#clip570)" d="M2062.05 205.198 L2062.05 218.184 L2067.93 218.184 Q2071.19 218.184 2072.97 216.495 Q2074.76 214.805 2074.76 211.68 Q2074.76 208.578 2072.97 206.888 Q2071.19 205.198 2067.93 205.198 L2062.05 205.198 M2057.37 201.356 L2067.93 201.356 Q2073.74 201.356 2076.7 203.995 Q2079.69 206.61 2079.69 211.68 Q2079.69 216.795 2076.7 219.411 Q2073.74 222.027 2067.93 222.027 L2062.05 222.027 L2062.05 235.916 L2057.37 235.916 L2057.37 201.356 Z" fill="#000000" fill-rule="nonzero" fill-opacity="1" /><path clip-path="url(#clip570)" d="M2109.52 230.985 L2109.52 221.703 L2101.89 221.703 L2101.89 217.86 L2114.15 217.86 L2114.15 232.698 Q2111.45 234.619 2108.18 235.615 Q2104.92 236.587 2101.21 236.587 Q2093.11 236.587 2088.53 231.865 Q2083.97 227.119 2083.97 218.67 Q2083.97 210.198 2088.53 205.476 Q2093.11 200.731 2101.21 200.731 Q2104.59 200.731 2107.63 201.564 Q2110.68 202.397 2113.25 204.018 L2113.25 208.995 Q2110.66 206.796 2107.74 205.684 Q2104.82 204.573 2101.61 204.573 Q2095.26 204.573 2092.07 208.115 Q2088.9 211.657 2088.9 218.67 Q2088.9 225.661 2092.07 229.203 Q2095.26 232.744 2101.61 232.744 Q2104.08 232.744 2106.03 232.328 Q2107.97 231.888 2109.52 230.985 Z" fill="#000000" fill-rule="nonzero" fill-opacity="1" /><polyline clip-path="url(#clip570)" style="stroke:#e26f46; stroke-linecap:round; stroke-linejoin:round; stroke-width:4; stroke-opacity:1; fill:none" points="1772.82,270.476 1912.91,270.476 "/>
<path clip-path="url(#clip570)" d="M1936.26 253.196 L1940.94 253.196 L1940.94 283.821 L1957.77 283.821 L1957.77 287.756 L1936.26 287.756 L1936.26 253.196 Z" fill="#000000" fill-rule="nonzero" fill-opacity="1" /><path clip-path="url(#clip570)" d="M1962.67 253.196 L1969.64 253.196 L1978.46 276.714 L1987.33 253.196 L1994.29 253.196 L1994.29 287.756 L1989.73 287.756 L1989.73 257.409 L1980.82 281.112 L1976.12 281.112 L1967.21 257.409 L1967.21 287.756 L1962.67 287.756 L1962.67 253.196 Z" fill="#000000" fill-rule="nonzero" fill-opacity="1" /><path clip-path="url(#clip570)" d="M2023.09 295.626 L2023.09 298.936 L1998.46 298.936 L1998.46 295.626 L2023.09 295.626 Z" fill="#000000" fill-rule="nonzero" fill-opacity="1" /><path clip-path="url(#clip570)" d="M2038.83 257.802 L2032.49 275.001 L2045.2 275.001 L2038.83 257.802 M2036.19 253.196 L2041.49 253.196 L2054.66 287.756 L2049.8 287.756 L2046.65 278.89 L2031.08 278.89 L2027.93 287.756 L2023 287.756 L2036.19 253.196 Z" fill="#000000" fill-rule="nonzero" fill-opacity="1" /><path clip-path="url(#clip570)" d="M2081.07 272.108 L2081.07 287.756 L2076.82 287.756 L2076.82 272.247 Q2076.82 268.566 2075.38 266.737 Q2073.95 264.909 2071.08 264.909 Q2067.63 264.909 2065.64 267.108 Q2063.64 269.307 2063.64 273.103 L2063.64 287.756 L2059.36 287.756 L2059.36 261.83 L2063.64 261.83 L2063.64 265.858 Q2065.17 263.52 2067.23 262.362 Q2069.32 261.205 2072.02 261.205 Q2076.49 261.205 2078.78 263.983 Q2081.07 266.737 2081.07 272.108 Z" fill="#000000" fill-rule="nonzero" fill-opacity="1" /><path clip-path="url(#clip570)" d="M2106.63 265.765 L2106.63 251.737 L2110.89 251.737 L2110.89 287.756 L2106.63 287.756 L2106.63 283.867 Q2105.29 286.182 2103.23 287.316 Q2101.19 288.427 2098.32 288.427 Q2093.62 288.427 2090.66 284.677 Q2087.72 280.927 2087.72 274.816 Q2087.72 268.705 2090.66 264.955 Q2093.62 261.205 2098.32 261.205 Q2101.19 261.205 2103.23 262.339 Q2105.29 263.45 2106.63 265.765 M2092.12 274.816 Q2092.12 279.515 2094.04 282.2 Q2095.98 284.862 2099.36 284.862 Q2102.74 284.862 2104.69 282.2 Q2106.63 279.515 2106.63 274.816 Q2106.63 270.117 2104.69 267.455 Q2102.74 264.77 2099.36 264.77 Q2095.98 264.77 2094.04 267.455 Q2092.12 270.117 2092.12 274.816 Z" fill="#000000" fill-rule="nonzero" fill-opacity="1" /><path clip-path="url(#clip570)" d="M2134.69 265.811 Q2133.97 265.395 2133.11 265.21 Q2132.28 265.001 2131.26 265.001 Q2127.65 265.001 2125.7 267.362 Q2123.78 269.7 2123.78 274.098 L2123.78 287.756 L2119.5 287.756 L2119.5 261.83 L2123.78 261.83 L2123.78 265.858 Q2125.13 263.497 2127.28 262.362 Q2129.43 261.205 2132.51 261.205 Q2132.95 261.205 2133.48 261.274 Q2134.01 261.321 2134.66 261.436 L2134.69 265.811 Z" fill="#000000" fill-rule="nonzero" fill-opacity="1" /><path clip-path="url(#clip570)" d="M2160.29 273.728 L2160.29 275.811 L2140.7 275.811 Q2140.98 280.209 2143.34 282.524 Q2145.73 284.816 2149.96 284.816 Q2152.42 284.816 2154.71 284.214 Q2157.02 283.612 2159.29 282.409 L2159.29 286.436 Q2157 287.408 2154.59 287.918 Q2152.19 288.427 2149.71 288.427 Q2143.51 288.427 2139.87 284.816 Q2136.26 281.205 2136.26 275.047 Q2136.26 268.682 2139.69 264.955 Q2143.13 261.205 2148.97 261.205 Q2154.2 261.205 2157.23 264.585 Q2160.29 267.941 2160.29 273.728 M2156.03 272.478 Q2155.98 268.983 2154.06 266.899 Q2152.16 264.816 2149.01 264.816 Q2145.45 264.816 2143.3 266.83 Q2141.17 268.844 2140.84 272.501 L2156.03 272.478 Z" fill="#000000" fill-rule="nonzero" fill-opacity="1" /><path clip-path="url(#clip570)" d="M2167.28 261.83 L2171.54 261.83 L2171.54 287.756 L2167.28 287.756 L2167.28 261.83 M2167.28 251.737 L2171.54 251.737 L2171.54 257.131 L2167.28 257.131 L2167.28 251.737 Z" fill="#000000" fill-rule="nonzero" fill-opacity="1" /><path clip-path="url(#clip570)" d="M2200.15 295.626 L2200.15 298.936 L2175.52 298.936 L2175.52 295.626 L2200.15 295.626 Z" fill="#000000" fill-rule="nonzero" fill-opacity="1" /><path clip-path="url(#clip570)" d="M2215.94 274.723 Q2210.77 274.723 2208.78 275.904 Q2206.79 277.084 2206.79 279.932 Q2206.79 282.2 2208.27 283.543 Q2209.78 284.862 2212.35 284.862 Q2215.89 284.862 2218.02 282.362 Q2220.17 279.839 2220.17 275.672 L2220.17 274.723 L2215.94 274.723 M2224.43 272.964 L2224.43 287.756 L2220.17 287.756 L2220.17 283.821 Q2218.71 286.182 2216.54 287.316 Q2214.36 288.427 2211.21 288.427 Q2207.23 288.427 2204.87 286.205 Q2202.53 283.959 2202.53 280.209 Q2202.53 275.834 2205.45 273.612 Q2208.39 271.39 2214.2 271.39 L2220.17 271.39 L2220.17 270.973 Q2220.17 268.034 2218.23 266.436 Q2216.31 264.816 2212.81 264.816 Q2210.59 264.816 2208.48 265.348 Q2206.38 265.881 2204.43 266.946 L2204.43 263.01 Q2206.77 262.108 2208.97 261.668 Q2211.17 261.205 2213.25 261.205 Q2218.88 261.205 2221.65 264.122 Q2224.43 267.038 2224.43 272.964 Z" fill="#000000" fill-rule="nonzero" fill-opacity="1" /><path clip-path="url(#clip570)" d="M2233.2 251.737 L2237.46 251.737 L2237.46 287.756 L2233.2 287.756 L2233.2 251.737 Z" fill="#000000" fill-rule="nonzero" fill-opacity="1" /><path clip-path="url(#clip570)" d="M2250.59 254.469 L2250.59 261.83 L2259.36 261.83 L2259.36 265.14 L2250.59 265.14 L2250.59 279.214 Q2250.59 282.385 2251.44 283.288 Q2252.32 284.191 2254.99 284.191 L2259.36 284.191 L2259.36 287.756 L2254.99 287.756 Q2250.06 287.756 2248.18 285.927 Q2246.31 284.075 2246.31 279.214 L2246.31 265.14 L2243.18 265.14 L2243.18 261.83 L2246.31 261.83 L2246.31 254.469 L2250.59 254.469 Z" fill="#000000" fill-rule="nonzero" fill-opacity="1" /><polyline clip-path="url(#clip570)" style="stroke:#3da44d; stroke-linecap:round; stroke-linejoin:round; stroke-width:4; stroke-opacity:1; fill:none" points="1772.82,322.316 1912.91,322.316 "/>
<path clip-path="url(#clip570)" d="M1936.26 305.036 L1940.94 305.036 L1940.94 335.661 L1957.77 335.661 L1957.77 339.596 L1936.26 339.596 L1936.26 305.036 Z" fill="#000000" fill-rule="nonzero" fill-opacity="1" /><path clip-path="url(#clip570)" d="M1962.67 305.036 L1969.64 305.036 L1978.46 328.554 L1987.33 305.036 L1994.29 305.036 L1994.29 339.596 L1989.73 339.596 L1989.73 309.249 L1980.82 332.952 L1976.12 332.952 L1967.21 309.249 L1967.21 339.596 L1962.67 339.596 L1962.67 305.036 Z" fill="#000000" fill-rule="nonzero" fill-opacity="1" /><path clip-path="url(#clip570)" d="M2023.09 347.466 L2023.09 350.776 L1998.46 350.776 L1998.46 347.466 L2023.09 347.466 Z" fill="#000000" fill-rule="nonzero" fill-opacity="1" /><path clip-path="url(#clip570)" d="M2038.83 309.642 L2032.49 326.841 L2045.2 326.841 L2038.83 309.642 M2036.19 305.036 L2041.49 305.036 L2054.66 339.596 L2049.8 339.596 L2046.65 330.73 L2031.08 330.73 L2027.93 339.596 L2023 339.596 L2036.19 305.036 Z" fill="#000000" fill-rule="nonzero" fill-opacity="1" /><path clip-path="url(#clip570)" d="M2081.07 323.948 L2081.07 339.596 L2076.82 339.596 L2076.82 324.087 Q2076.82 320.406 2075.38 318.577 Q2073.95 316.749 2071.08 316.749 Q2067.63 316.749 2065.64 318.948 Q2063.64 321.147 2063.64 324.943 L2063.64 339.596 L2059.36 339.596 L2059.36 313.67 L2063.64 313.67 L2063.64 317.698 Q2065.17 315.36 2067.23 314.202 Q2069.32 313.045 2072.02 313.045 Q2076.49 313.045 2078.78 315.823 Q2081.07 318.577 2081.07 323.948 Z" fill="#000000" fill-rule="nonzero" fill-opacity="1" /><path clip-path="url(#clip570)" d="M2106.63 317.605 L2106.63 303.577 L2110.89 303.577 L2110.89 339.596 L2106.63 339.596 L2106.63 335.707 Q2105.29 338.022 2103.23 339.156 Q2101.19 340.267 2098.32 340.267 Q2093.62 340.267 2090.66 336.517 Q2087.72 332.767 2087.72 326.656 Q2087.72 320.545 2090.66 316.795 Q2093.62 313.045 2098.32 313.045 Q2101.19 313.045 2103.23 314.179 Q2105.29 315.29 2106.63 317.605 M2092.12 326.656 Q2092.12 331.355 2094.04 334.04 Q2095.98 336.702 2099.36 336.702 Q2102.74 336.702 2104.69 334.04 Q2106.63 331.355 2106.63 326.656 Q2106.63 321.957 2104.69 319.295 Q2102.74 316.61 2099.36 316.61 Q2095.98 316.61 2094.04 319.295 Q2092.12 321.957 2092.12 326.656 Z" fill="#000000" fill-rule="nonzero" fill-opacity="1" /><path clip-path="url(#clip570)" d="M2134.69 317.651 Q2133.97 317.235 2133.11 317.05 Q2132.28 316.841 2131.26 316.841 Q2127.65 316.841 2125.7 319.202 Q2123.78 321.54 2123.78 325.938 L2123.78 339.596 L2119.5 339.596 L2119.5 313.67 L2123.78 313.67 L2123.78 317.698 Q2125.13 315.337 2127.28 314.202 Q2129.43 313.045 2132.51 313.045 Q2132.95 313.045 2133.48 313.114 Q2134.01 313.161 2134.66 313.276 L2134.69 317.651 Z" fill="#000000" fill-rule="nonzero" fill-opacity="1" /><path clip-path="url(#clip570)" d="M2160.29 325.568 L2160.29 327.651 L2140.7 327.651 Q2140.98 332.049 2143.34 334.364 Q2145.73 336.656 2149.96 336.656 Q2152.42 336.656 2154.71 336.054 Q2157.02 335.452 2159.29 334.249 L2159.29 338.276 Q2157 339.248 2154.59 339.758 Q2152.19 340.267 2149.71 340.267 Q2143.51 340.267 2139.87 336.656 Q2136.26 333.045 2136.26 326.887 Q2136.26 320.522 2139.69 316.795 Q2143.13 313.045 2148.97 313.045 Q2154.2 313.045 2157.23 316.425 Q2160.29 319.781 2160.29 325.568 M2156.03 324.318 Q2155.98 320.823 2154.06 318.739 Q2152.16 316.656 2149.01 316.656 Q2145.45 316.656 2143.3 318.67 Q2141.17 320.684 2140.84 324.341 L2156.03 324.318 Z" fill="#000000" fill-rule="nonzero" fill-opacity="1" /><path clip-path="url(#clip570)" d="M2167.28 313.67 L2171.54 313.67 L2171.54 339.596 L2167.28 339.596 L2167.28 313.67 M2167.28 303.577 L2171.54 303.577 L2171.54 308.971 L2167.28 308.971 L2167.28 303.577 Z" fill="#000000" fill-rule="nonzero" fill-opacity="1" /><polyline clip-path="url(#clip570)" style="stroke:#c271d2; stroke-linecap:round; stroke-linejoin:round; stroke-width:4; stroke-opacity:1; fill:none" points="1772.82,374.156 1912.91,374.156 "/>
<path clip-path="url(#clip570)" d="M1936.26 356.876 L1940.94 356.876 L1940.94 387.501 L1957.77 387.501 L1957.77 391.436 L1936.26 391.436 L1936.26 356.876 Z" fill="#000000" fill-rule="nonzero" fill-opacity="1" /><path clip-path="url(#clip570)" d="M1962.67 356.876 L1969.64 356.876 L1978.46 380.394 L1987.33 356.876 L1994.29 356.876 L1994.29 391.436 L1989.73 391.436 L1989.73 361.089 L1980.82 384.792 L1976.12 384.792 L1967.21 361.089 L1967.21 391.436 L1962.67 391.436 L1962.67 356.876 Z" fill="#000000" fill-rule="nonzero" fill-opacity="1" /><path clip-path="url(#clip570)" d="M2023.09 399.306 L2023.09 402.616 L1998.46 402.616 L1998.46 399.306 L2023.09 399.306 Z" fill="#000000" fill-rule="nonzero" fill-opacity="1" /><path clip-path="url(#clip570)" d="M2048 358.01 L2048 362.57 Q2045.33 361.297 2042.97 360.672 Q2040.61 360.047 2038.41 360.047 Q2034.59 360.047 2032.51 361.528 Q2030.45 363.01 2030.45 365.741 Q2030.45 368.033 2031.82 369.214 Q2033.2 370.371 2037.05 371.089 L2039.87 371.667 Q2045.1 372.663 2047.58 375.186 Q2050.08 377.686 2050.08 381.899 Q2050.08 386.922 2046.7 389.514 Q2043.34 392.107 2036.84 392.107 Q2034.39 392.107 2031.61 391.551 Q2028.85 390.996 2025.89 389.908 L2025.89 385.093 Q2028.74 386.69 2031.47 387.501 Q2034.2 388.311 2036.84 388.311 Q2040.84 388.311 2043.02 386.737 Q2045.2 385.163 2045.2 382.246 Q2045.2 379.7 2043.62 378.264 Q2042.07 376.829 2038.51 376.112 L2035.66 375.556 Q2030.43 374.515 2028.09 372.292 Q2025.75 370.07 2025.75 366.112 Q2025.75 361.528 2028.97 358.89 Q2032.21 356.251 2037.88 356.251 Q2040.31 356.251 2042.83 356.691 Q2045.36 357.13 2048 358.01 Z" fill="#000000" fill-rule="nonzero" fill-opacity="1" /><path clip-path="url(#clip570)" d="M2062.05 360.718 L2062.05 373.704 L2067.93 373.704 Q2071.19 373.704 2072.97 372.015 Q2074.76 370.325 2074.76 367.2 Q2074.76 364.098 2072.97 362.408 Q2071.19 360.718 2067.93 360.718 L2062.05 360.718 M2057.37 356.876 L2067.93 356.876 Q2073.74 356.876 2076.7 359.515 Q2079.69 362.13 2079.69 367.2 Q2079.69 372.315 2076.7 374.931 Q2073.74 377.547 2067.93 377.547 L2062.05 377.547 L2062.05 391.436 L2057.37 391.436 L2057.37 356.876 Z" fill="#000000" fill-rule="nonzero" fill-opacity="1" /><path clip-path="url(#clip570)" d="M2109.52 386.505 L2109.52 377.223 L2101.89 377.223 L2101.89 373.38 L2114.15 373.38 L2114.15 388.218 Q2111.45 390.139 2108.18 391.135 Q2104.92 392.107 2101.21 392.107 Q2093.11 392.107 2088.53 387.385 Q2083.97 382.639 2083.97 374.19 Q2083.97 365.718 2088.53 360.996 Q2093.11 356.251 2101.21 356.251 Q2104.59 356.251 2107.63 357.084 Q2110.68 357.917 2113.25 359.538 L2113.25 364.515 Q2110.66 362.316 2107.74 361.204 Q2104.82 360.093 2101.61 360.093 Q2095.26 360.093 2092.07 363.635 Q2088.9 367.177 2088.9 374.19 Q2088.9 381.181 2092.07 384.723 Q2095.26 388.264 2101.61 388.264 Q2104.08 388.264 2106.03 387.848 Q2107.97 387.408 2109.52 386.505 Z" fill="#000000" fill-rule="nonzero" fill-opacity="1" /><path clip-path="url(#clip570)" d="M2142.21 399.306 L2142.21 402.616 L2117.58 402.616 L2117.58 399.306 L2142.21 399.306 Z" fill="#000000" fill-rule="nonzero" fill-opacity="1" /><path clip-path="url(#clip570)" d="M2158 378.403 Q2152.83 378.403 2150.84 379.584 Q2148.85 380.764 2148.85 383.612 Q2148.85 385.88 2150.33 387.223 Q2151.84 388.542 2154.41 388.542 Q2157.95 388.542 2160.08 386.042 Q2162.23 383.519 2162.23 379.352 L2162.23 378.403 L2158 378.403 M2166.49 376.644 L2166.49 391.436 L2162.23 391.436 L2162.23 387.501 Q2160.77 389.862 2158.6 390.996 Q2156.42 392.107 2153.27 392.107 Q2149.29 392.107 2146.93 389.885 Q2144.59 387.639 2144.59 383.889 Q2144.59 379.514 2147.51 377.292 Q2150.45 375.07 2156.26 375.07 L2162.23 375.07 L2162.23 374.653 Q2162.23 371.714 2160.29 370.116 Q2158.37 368.496 2154.87 368.496 Q2152.65 368.496 2150.54 369.028 Q2148.44 369.561 2146.49 370.626 L2146.49 366.69 Q2148.83 365.788 2151.03 365.348 Q2153.23 364.885 2155.31 364.885 Q2160.94 364.885 2163.71 367.802 Q2166.49 370.718 2166.49 376.644 Z" fill="#000000" fill-rule="nonzero" fill-opacity="1" /><path clip-path="url(#clip570)" d="M2175.26 355.417 L2179.52 355.417 L2179.52 391.436 L2175.26 391.436 L2175.26 355.417 Z" fill="#000000" fill-rule="nonzero" fill-opacity="1" /><path clip-path="url(#clip570)" d="M2192.65 358.149 L2192.65 365.51 L2201.42 365.51 L2201.42 368.82 L2192.65 368.82 L2192.65 382.894 Q2192.65 386.065 2193.5 386.968 Q2194.38 387.871 2197.05 387.871 L2201.42 387.871 L2201.42 391.436 L2197.05 391.436 Q2192.12 391.436 2190.24 389.607 Q2188.37 387.755 2188.37 382.894 L2188.37 368.82 L2185.24 368.82 L2185.24 365.51 L2188.37 365.51 L2188.37 358.149 L2192.65 358.149 Z" fill="#000000" fill-rule="nonzero" fill-opacity="1" /><polyline clip-path="url(#clip570)" style="stroke:#ac8d18; stroke-linecap:round; stroke-linejoin:round; stroke-width:4; stroke-opacity:1; fill:none" points="1772.82,425.996 1912.91,425.996 "/>
<path clip-path="url(#clip570)" d="M1936.26 408.716 L1940.94 408.716 L1940.94 439.341 L1957.77 439.341 L1957.77 443.276 L1936.26 443.276 L1936.26 408.716 Z" fill="#000000" fill-rule="nonzero" fill-opacity="1" /><path clip-path="url(#clip570)" d="M1962.67 408.716 L1969.64 408.716 L1978.46 432.234 L1987.33 408.716 L1994.29 408.716 L1994.29 443.276 L1989.73 443.276 L1989.73 412.929 L1980.82 436.632 L1976.12 436.632 L1967.21 412.929 L1967.21 443.276 L1962.67 443.276 L1962.67 408.716 Z" fill="#000000" fill-rule="nonzero" fill-opacity="1" /></svg>
