<?xml version="1.0" encoding="utf-8"?>
<svg xmlns="http://www.w3.org/2000/svg" xmlns:xlink="http://www.w3.org/1999/xlink" width="600" height="400" viewBox="0 0 2400 1600">
<defs>
  <clipPath id="clip250">
    <rect x="0" y="0" width="2400" height="1600"/>
  </clipPath>
</defs>
<path clip-path="url(#clip250)" d="M0 1600 L2400 1600 L2400 0 L0 0  Z" fill="#ffffff" fill-rule="evenodd" fill-opacity="1"/>
<defs>
  <clipPath id="clip251">
    <rect x="480" y="0" width="1681" height="1600"/>
  </clipPath>
</defs>
<path clip-path="url(#clip250)" d="M251.842 1423.18 L2352.76 1423.18 L2352.76 123.472 L251.842 123.472  Z" fill="#ffffff" fill-rule="evenodd" fill-opacity="1"/>
<defs>
  <clipPath id="clip252">
    <rect x="251" y="123" width="2102" height="1301"/>
  </clipPath>
</defs>
<polyline clip-path="url(#clip252)" style="stroke:#000000; stroke-linecap:round; stroke-linejoin:round; stroke-width:2; stroke-opacity:0.1; fill:none" points="309.32,1423.18 309.32,123.472 "/>
<polyline clip-path="url(#clip252)" style="stroke:#000000; stroke-linecap:round; stroke-linejoin:round; stroke-width:2; stroke-opacity:0.1; fill:none" points="804.819,1423.18 804.819,123.472 "/>
<polyline clip-path="url(#clip252)" style="stroke:#000000; stroke-linecap:round; stroke-linejoin:round; stroke-width:2; stroke-opacity:0.1; fill:none" points="1300.32,1423.18 1300.32,123.472 "/>
<polyline clip-path="url(#clip252)" style="stroke:#000000; stroke-linecap:round; stroke-linejoin:round; stroke-width:2; stroke-opacity:0.1; fill:none" points="1795.82,1423.18 1795.82,123.472 "/>
<polyline clip-path="url(#clip252)" style="stroke:#000000; stroke-linecap:round; stroke-linejoin:round; stroke-width:2; stroke-opacity:0.1; fill:none" points="2291.31,1423.18 2291.31,123.472 "/>
<polyline clip-path="url(#clip250)" style="stroke:#000000; stroke-linecap:round; stroke-linejoin:round; stroke-width:4; stroke-opacity:1; fill:none" points="251.842,1423.18 2352.76,1423.18 "/>
<polyline clip-path="url(#clip250)" style="stroke:#000000; stroke-linecap:round; stroke-linejoin:round; stroke-width:4; stroke-opacity:1; fill:none" points="309.32,1423.18 309.32,1404.28 "/>
<polyline clip-path="url(#clip250)" style="stroke:#000000; stroke-linecap:round; stroke-linejoin:round; stroke-width:4; stroke-opacity:1; fill:none" points="804.819,1423.18 804.819,1404.28 "/>
<polyline clip-path="url(#clip250)" style="stroke:#000000; stroke-linecap:round; stroke-linejoin:round; stroke-width:4; stroke-opacity:1; fill:none" points="1300.32,1423.18 1300.32,1404.28 "/>
<polyline clip-path="url(#clip250)" style="stroke:#000000; stroke-linecap:round; stroke-linejoin:round; stroke-width:4; stroke-opacity:1; fill:none" points="1795.82,1423.18 1795.82,1404.28 "/>
<polyline clip-path="url(#clip250)" style="stroke:#000000; stroke-linecap:round; stroke-linejoin:round; stroke-width:4; stroke-opacity:1; fill:none" points="2291.31,1423.18 2291.31,1404.28 "/>
<path clip-path="url(#clip250)" d="M309.32 1454.1 Q305.709 1454.1 303.88 1457.66 Q302.075 1461.2 302.075 1468.33 Q302.075 1475.44 303.88 1479.01 Q305.709 1482.55 309.32 1482.55 Q312.954 1482.55 314.76 1479.01 Q316.589 1475.44 316.589 1468.33 Q316.589 1461.2 314.76 1457.66 Q312.954 1454.1 309.32 1454.1 M309.32 1450.39 Q315.13 1450.39 318.186 1455 Q321.265 1459.58 321.265 1468.33 Q321.265 1477.06 318.186 1481.67 Q315.13 1486.25 309.32 1486.25 Q303.51 1486.25 300.431 1481.67 Q297.376 1477.06 297.376 1468.33 Q297.376 1459.58 300.431 1455 Q303.51 1450.39 309.32 1450.39 Z" fill="#000000" fill-rule="nonzero" fill-opacity="1" /><path clip-path="url(#clip250)" d="M768.511 1481.64 L784.83 1481.64 L784.83 1485.58 L762.886 1485.58 L762.886 1481.64 Q765.548 1478.89 770.131 1474.26 Q774.738 1469.61 775.918 1468.27 Q778.164 1465.74 779.043 1464.01 Q779.946 1462.25 779.946 1460.56 Q779.946 1457.8 778.002 1456.07 Q776.08 1454.33 772.979 1454.33 Q770.779 1454.33 768.326 1455.09 Q765.895 1455.86 763.118 1457.41 L763.118 1452.69 Q765.942 1451.55 768.395 1450.97 Q770.849 1450.39 772.886 1450.39 Q778.256 1450.39 781.451 1453.08 Q784.645 1455.77 784.645 1460.26 Q784.645 1462.39 783.835 1464.31 Q783.048 1466.2 780.941 1468.8 Q780.363 1469.47 777.261 1472.69 Q774.159 1475.88 768.511 1481.64 Z" fill="#000000" fill-rule="nonzero" fill-opacity="1" /><path clip-path="url(#clip250)" d="M794.691 1451.02 L813.048 1451.02 L813.048 1454.96 L798.974 1454.96 L798.974 1463.43 Q799.992 1463.08 801.011 1462.92 Q802.029 1462.73 803.048 1462.73 Q808.835 1462.73 812.214 1465.9 Q815.594 1469.08 815.594 1474.49 Q815.594 1480.07 812.122 1483.17 Q808.65 1486.25 802.33 1486.25 Q800.154 1486.25 797.886 1485.88 Q795.64 1485.51 793.233 1484.77 L793.233 1480.07 Q795.316 1481.2 797.539 1481.76 Q799.761 1482.32 802.238 1482.32 Q806.242 1482.32 808.58 1480.21 Q810.918 1478.1 810.918 1474.49 Q810.918 1470.88 808.58 1468.77 Q806.242 1466.67 802.238 1466.67 Q800.363 1466.67 798.488 1467.08 Q796.636 1467.5 794.691 1468.38 L794.691 1451.02 Z" fill="#000000" fill-rule="nonzero" fill-opacity="1" /><path clip-path="url(#clip250)" d="M834.807 1454.1 Q831.196 1454.1 829.367 1457.66 Q827.562 1461.2 827.562 1468.33 Q827.562 1475.44 829.367 1479.01 Q831.196 1482.55 834.807 1482.55 Q838.441 1482.55 840.247 1479.01 Q842.075 1475.44 842.075 1468.33 Q842.075 1461.2 840.247 1457.66 Q838.441 1454.1 834.807 1454.1 M834.807 1450.39 Q840.617 1450.39 843.673 1455 Q846.751 1459.58 846.751 1468.33 Q846.751 1477.06 843.673 1481.67 Q840.617 1486.25 834.807 1486.25 Q828.997 1486.25 825.918 1481.67 Q822.863 1477.06 822.863 1468.33 Q822.863 1459.58 825.918 1455 Q828.997 1450.39 834.807 1450.39 Z" fill="#000000" fill-rule="nonzero" fill-opacity="1" /><path clip-path="url(#clip250)" d="M1259.94 1451.02 L1278.29 1451.02 L1278.29 1454.96 L1264.22 1454.96 L1264.22 1463.43 Q1265.24 1463.08 1266.25 1462.92 Q1267.27 1462.73 1268.29 1462.73 Q1274.08 1462.73 1277.46 1465.9 Q1280.84 1469.08 1280.84 1474.49 Q1280.84 1480.07 1277.37 1483.17 Q1273.89 1486.25 1267.57 1486.25 Q1265.4 1486.25 1263.13 1485.88 Q1260.88 1485.51 1258.48 1484.77 L1258.48 1480.07 Q1260.56 1481.2 1262.78 1481.76 Q1265 1482.32 1267.48 1482.32 Q1271.49 1482.32 1273.82 1480.21 Q1276.16 1478.1 1276.16 1474.49 Q1276.16 1470.88 1273.82 1468.77 Q1271.49 1466.67 1267.48 1466.67 Q1265.61 1466.67 1263.73 1467.08 Q1261.88 1467.5 1259.94 1468.38 L1259.94 1451.02 Z" fill="#000000" fill-rule="nonzero" fill-opacity="1" /><path clip-path="url(#clip250)" d="M1300.05 1454.1 Q1296.44 1454.1 1294.61 1457.66 Q1292.81 1461.2 1292.81 1468.33 Q1292.81 1475.44 1294.61 1479.01 Q1296.44 1482.55 1300.05 1482.55 Q1303.69 1482.55 1305.49 1479.01 Q1307.32 1475.44 1307.32 1468.33 Q1307.32 1461.2 1305.49 1457.66 Q1303.69 1454.1 1300.05 1454.1 M1300.05 1450.39 Q1305.86 1450.39 1308.92 1455 Q1312 1459.58 1312 1468.33 Q1312 1477.06 1308.92 1481.67 Q1305.86 1486.25 1300.05 1486.25 Q1294.24 1486.25 1291.16 1481.67 Q1288.11 1477.06 1288.11 1468.33 Q1288.11 1459.58 1291.16 1455 Q1294.24 1450.39 1300.05 1450.39 Z" fill="#000000" fill-rule="nonzero" fill-opacity="1" /><path clip-path="url(#clip250)" d="M1330.21 1454.1 Q1326.6 1454.1 1324.77 1457.66 Q1322.97 1461.2 1322.97 1468.33 Q1322.97 1475.44 1324.77 1479.01 Q1326.6 1482.55 1330.21 1482.55 Q1333.85 1482.55 1335.65 1479.01 Q1337.48 1475.44 1337.48 1468.33 Q1337.48 1461.2 1335.65 1457.66 Q1333.85 1454.1 1330.21 1454.1 M1330.21 1450.39 Q1336.02 1450.39 1339.08 1455 Q1342.16 1459.58 1342.16 1468.33 Q1342.16 1477.06 1339.08 1481.67 Q1336.02 1486.25 1330.21 1486.25 Q1324.4 1486.25 1321.32 1481.67 Q1318.27 1477.06 1318.27 1468.33 Q1318.27 1459.58 1321.32 1455 Q1324.4 1450.39 1330.21 1450.39 Z" fill="#000000" fill-rule="nonzero" fill-opacity="1" /><path clip-path="url(#clip250)" d="M1754.09 1451.02 L1776.31 1451.02 L1776.31 1453.01 L1763.77 1485.58 L1758.88 1485.58 L1770.69 1454.96 L1754.09 1454.96 L1754.09 1451.02 Z" fill="#000000" fill-rule="nonzero" fill-opacity="1" /><path clip-path="url(#clip250)" d="M1785.48 1451.02 L1803.84 1451.02 L1803.84 1454.96 L1789.76 1454.96 L1789.76 1463.43 Q1790.78 1463.08 1791.8 1462.92 Q1792.82 1462.73 1793.84 1462.73 Q1799.62 1462.73 1803 1465.9 Q1806.38 1469.08 1806.38 1474.49 Q1806.38 1480.07 1802.91 1483.17 Q1799.44 1486.25 1793.12 1486.25 Q1790.94 1486.25 1788.67 1485.88 Q1786.43 1485.51 1784.02 1484.77 L1784.02 1480.07 Q1786.11 1481.2 1788.33 1481.76 Q1790.55 1482.32 1793.03 1482.32 Q1797.03 1482.32 1799.37 1480.21 Q1801.71 1478.1 1801.71 1474.49 Q1801.71 1470.88 1799.37 1468.77 Q1797.03 1466.67 1793.03 1466.67 Q1791.15 1466.67 1789.28 1467.08 Q1787.42 1467.5 1785.48 1468.38 L1785.48 1451.02 Z" fill="#000000" fill-rule="nonzero" fill-opacity="1" /><path clip-path="url(#clip250)" d="M1825.6 1454.1 Q1821.98 1454.1 1820.16 1457.66 Q1818.35 1461.2 1818.35 1468.33 Q1818.35 1475.44 1820.16 1479.01 Q1821.98 1482.55 1825.6 1482.55 Q1829.23 1482.55 1831.04 1479.01 Q1832.86 1475.44 1832.86 1468.33 Q1832.86 1461.2 1831.04 1457.66 Q1829.23 1454.1 1825.6 1454.1 M1825.6 1450.39 Q1831.41 1450.39 1834.46 1455 Q1837.54 1459.58 1837.54 1468.33 Q1837.54 1477.06 1834.46 1481.67 Q1831.41 1486.25 1825.6 1486.25 Q1819.79 1486.25 1816.71 1481.67 Q1813.65 1477.06 1813.65 1468.33 Q1813.65 1459.58 1816.71 1455 Q1819.79 1450.39 1825.6 1450.39 Z" fill="#000000" fill-rule="nonzero" fill-opacity="1" /><path clip-path="url(#clip250)" d="M2235.84 1481.64 L2243.48 1481.64 L2243.48 1455.28 L2235.17 1456.95 L2235.17 1452.69 L2243.43 1451.02 L2248.11 1451.02 L2248.11 1481.64 L2255.75 1481.64 L2255.75 1485.58 L2235.84 1485.58 L2235.84 1481.64 Z" fill="#000000" fill-rule="nonzero" fill-opacity="1" /><path clip-path="url(#clip250)" d="M2275.19 1454.1 Q2271.58 1454.1 2269.75 1457.66 Q2267.95 1461.2 2267.95 1468.33 Q2267.95 1475.44 2269.75 1479.01 Q2271.58 1482.55 2275.19 1482.55 Q2278.83 1482.55 2280.63 1479.01 Q2282.46 1475.44 2282.46 1468.33 Q2282.46 1461.2 2280.63 1457.66 Q2278.83 1454.1 2275.19 1454.1 M2275.19 1450.39 Q2281 1450.39 2284.06 1455 Q2287.14 1459.58 2287.14 1468.33 Q2287.14 1477.06 2284.06 1481.67 Q2281 1486.25 2275.19 1486.25 Q2269.38 1486.25 2266.3 1481.67 Q2263.25 1477.06 2263.25 1468.33 Q2263.25 1459.58 2266.3 1455 Q2269.38 1450.39 2275.19 1450.39 Z" fill="#000000" fill-rule="nonzero" fill-opacity="1" /><path clip-path="url(#clip250)" d="M2305.35 1454.1 Q2301.74 1454.1 2299.91 1457.66 Q2298.11 1461.2 2298.11 1468.33 Q2298.11 1475.44 2299.91 1479.01 Q2301.74 1482.55 2305.35 1482.55 Q2308.99 1482.55 2310.79 1479.01 Q2312.62 1475.44 2312.62 1468.33 Q2312.62 1461.2 2310.79 1457.66 Q2308.99 1454.1 2305.35 1454.1 M2305.35 1450.39 Q2311.16 1450.39 2314.22 1455 Q2317.3 1459.58 2317.3 1468.33 Q2317.3 1477.06 2314.22 1481.67 Q2311.16 1486.25 2305.35 1486.25 Q2299.54 1486.25 2296.46 1481.67 Q2293.41 1477.06 2293.41 1468.33 Q2293.41 1459.58 2296.46 1455 Q2299.54 1450.39 2305.35 1450.39 Z" fill="#000000" fill-rule="nonzero" fill-opacity="1" /><path clip-path="url(#clip250)" d="M2335.52 1454.1 Q2331.9 1454.1 2330.08 1457.66 Q2328.27 1461.2 2328.27 1468.33 Q2328.27 1475.44 2330.08 1479.01 Q2331.9 1482.55 2335.52 1482.55 Q2339.15 1482.55 2340.96 1479.01 Q2342.78 1475.44 2342.78 1468.33 Q2342.78 1461.2 2340.96 1457.66 Q2339.15 1454.1 2335.52 1454.1 M2335.52 1450.39 Q2341.33 1450.39 2344.38 1455 Q2347.46 1459.58 2347.46 1468.33 Q2347.46 1477.06 2344.38 1481.67 Q2341.33 1486.25 2335.52 1486.25 Q2329.71 1486.25 2326.63 1481.67 Q2323.57 1477.06 2323.57 1468.33 Q2323.57 1459.58 2326.63 1455 Q2329.71 1450.39 2335.52 1450.39 Z" fill="#000000" fill-rule="nonzero" fill-opacity="1" /><path clip-path="url(#clip250)" d="M1286.48 1518.52 L1292.37 1518.52 L1292.37 1547.77 L1309.84 1532.4 L1317.32 1532.4 L1298.42 1549.07 L1318.12 1568.04 L1310.48 1568.04 L1292.37 1550.63 L1292.37 1568.04 L1286.48 1568.04 L1286.48 1518.52 Z" fill="#000000" fill-rule="nonzero" fill-opacity="1" /><polyline clip-path="url(#clip252)" style="stroke:#000000; stroke-linecap:round; stroke-linejoin:round; stroke-width:2; stroke-opacity:0.1; fill:none" points="251.842,1024.96 2352.76,1024.96 "/>
<polyline clip-path="url(#clip252)" style="stroke:#000000; stroke-linecap:round; stroke-linejoin:round; stroke-width:2; stroke-opacity:0.1; fill:none" points="251.842,371.493 2352.76,371.493 "/>
<polyline clip-path="url(#clip250)" style="stroke:#000000; stroke-linecap:round; stroke-linejoin:round; stroke-width:4; stroke-opacity:1; fill:none" points="251.842,1423.18 251.842,123.472 "/>
<polyline clip-path="url(#clip250)" style="stroke:#000000; stroke-linecap:round; stroke-linejoin:round; stroke-width:4; stroke-opacity:1; fill:none" points="251.842,1024.96 270.74,1024.96 "/>
<polyline clip-path="url(#clip250)" style="stroke:#000000; stroke-linecap:round; stroke-linejoin:round; stroke-width:4; stroke-opacity:1; fill:none" points="251.842,371.493 270.74,371.493 "/>
<path clip-path="url(#clip250)" d="M114.931 1044.76 L122.57 1044.76 L122.57 1018.39 L114.26 1020.06 L114.26 1015.8 L122.524 1014.13 L127.2 1014.13 L127.2 1044.76 L134.839 1044.76 L134.839 1048.69 L114.931 1048.69 L114.931 1044.76 Z" fill="#000000" fill-rule="nonzero" fill-opacity="1" /><path clip-path="url(#clip250)" d="M154.283 1017.21 Q150.672 1017.21 148.843 1020.78 Q147.038 1024.32 147.038 1031.45 Q147.038 1038.55 148.843 1042.12 Q150.672 1045.66 154.283 1045.66 Q157.917 1045.66 159.723 1042.12 Q161.552 1038.55 161.552 1031.45 Q161.552 1024.32 159.723 1020.78 Q157.917 1017.21 154.283 1017.21 M154.283 1013.51 Q160.093 1013.51 163.149 1018.11 Q166.227 1022.7 166.227 1031.45 Q166.227 1040.17 163.149 1044.78 Q160.093 1049.36 154.283 1049.36 Q148.473 1049.36 145.394 1044.78 Q142.339 1040.17 142.339 1031.45 Q142.339 1022.7 145.394 1018.11 Q148.473 1013.51 154.283 1013.51 Z" fill="#000000" fill-rule="nonzero" fill-opacity="1" /><path clip-path="url(#clip250)" d="M166.227 1007.61 L190.339 1007.61 L190.339 1010.81 L166.227 1010.81 L166.227 1007.61 Z" fill="#000000" fill-rule="nonzero" fill-opacity="1" /><path clip-path="url(#clip250)" d="M210.05 1006.14 Q212.777 1006.72 214.3 1008.57 Q215.842 1010.41 215.842 1013.12 Q215.842 1017.28 212.984 1019.55 Q210.125 1021.83 204.859 1021.83 Q203.091 1021.83 201.21 1021.47 Q199.348 1021.13 197.354 1020.44 L197.354 1016.77 Q198.934 1017.69 200.815 1018.16 Q202.696 1018.63 204.746 1018.63 Q208.319 1018.63 210.181 1017.22 Q212.062 1015.81 212.062 1013.12 Q212.062 1010.64 210.313 1009.24 Q208.583 1007.83 205.479 1007.83 L202.207 1007.83 L202.207 1004.71 L205.63 1004.71 Q208.432 1004.71 209.918 1003.6 Q211.404 1002.47 211.404 1000.37 Q211.404 998.204 209.861 997.057 Q208.338 995.891 205.479 995.891 Q203.918 995.891 202.132 996.23 Q200.345 996.568 198.201 997.283 L198.201 993.897 Q200.364 993.296 202.244 992.995 Q204.144 992.694 205.818 992.694 Q210.144 992.694 212.664 994.669 Q215.184 996.625 215.184 999.972 Q215.184 1002.3 213.849 1003.92 Q212.513 1005.52 210.05 1006.14 Z" fill="#000000" fill-rule="nonzero" fill-opacity="1" /><path clip-path="url(#clip250)" d="M145.137 391.285 L152.776 391.285 L152.776 364.92 L144.465 366.587 L144.465 362.327 L152.729 360.661 L157.405 360.661 L157.405 391.285 L165.044 391.285 L165.044 395.221 L145.137 395.221 L145.137 391.285 Z" fill="#000000" fill-rule="nonzero" fill-opacity="1" /><path clip-path="url(#clip250)" d="M184.488 363.739 Q180.877 363.739 179.049 367.304 Q177.243 370.846 177.243 377.975 Q177.243 385.082 179.049 388.647 Q180.877 392.188 184.488 392.188 Q188.123 392.188 189.928 388.647 Q191.757 385.082 191.757 377.975 Q191.757 370.846 189.928 367.304 Q188.123 363.739 184.488 363.739 M184.488 360.036 Q190.299 360.036 193.354 364.642 Q196.433 369.225 196.433 377.975 Q196.433 386.702 193.354 391.309 Q190.299 395.892 184.488 395.892 Q178.678 395.892 175.6 391.309 Q172.544 386.702 172.544 377.975 Q172.544 369.225 175.6 364.642 Q178.678 360.036 184.488 360.036 Z" fill="#000000" fill-rule="nonzero" fill-opacity="1" /><path clip-path="url(#clip250)" d="M206.138 342.232 Q203.204 342.232 201.718 345.128 Q200.251 348.006 200.251 353.798 Q200.251 359.572 201.718 362.469 Q203.204 365.346 206.138 365.346 Q209.09 365.346 210.557 362.469 Q212.043 359.572 212.043 353.798 Q212.043 348.006 210.557 345.128 Q209.09 342.232 206.138 342.232 M206.138 339.222 Q210.858 339.222 213.341 342.965 Q215.842 346.689 215.842 353.798 Q215.842 360.889 213.341 364.632 Q210.858 368.356 206.138 368.356 Q201.417 368.356 198.915 364.632 Q196.433 360.889 196.433 353.798 Q196.433 346.689 198.915 342.965 Q201.417 339.222 206.138 339.222 Z" fill="#000000" fill-rule="nonzero" fill-opacity="1" /><path clip-path="url(#clip250)" d="M32.4621 801.797 Q32.4621 806.507 36.1542 809.244 Q39.8145 811.982 46.212 811.982 Q52.6095 811.982 56.3017 809.276 Q59.9619 806.539 59.9619 801.797 Q59.9619 797.118 56.2698 794.381 Q52.5777 791.643 46.212 791.643 Q39.8781 791.643 36.186 794.381 Q32.4621 797.118 32.4621 801.797 M27.4968 801.797 Q27.4968 794.158 32.4621 789.797 Q37.4273 785.437 46.212 785.437 Q54.9649 785.437 59.9619 789.797 Q64.9272 794.158 64.9272 801.797 Q64.9272 809.467 59.9619 813.828 Q54.9649 818.156 46.212 818.156 Q37.4273 818.156 32.4621 813.828 Q27.4968 809.467 27.4968 801.797 Z" fill="#000000" fill-rule="nonzero" fill-opacity="1" /><path clip-path="url(#clip250)" d="M46.212 750.139 Q39.7508 750.139 36.0905 752.812 Q32.3984 755.454 32.3984 760.101 Q32.3984 764.748 36.0905 767.422 Q39.7508 770.064 46.212 770.064 Q52.6732 770.064 56.3653 767.422 Q60.0256 764.748 60.0256 760.101 Q60.0256 755.454 56.3653 752.812 Q52.6732 750.139 46.212 750.139 M33.7671 770.064 Q30.5842 768.218 29.0564 765.417 Q27.4968 762.584 27.4968 758.669 Q27.4968 752.176 32.6531 748.134 Q37.8093 744.06 46.212 744.06 Q54.6147 744.06 59.771 748.134 Q64.9272 752.176 64.9272 758.669 Q64.9272 762.584 63.3994 765.417 Q61.8398 768.218 58.657 770.064 L64.0042 770.064 L64.0042 775.952 L14.479 775.952 L14.479 770.064 L33.7671 770.064 Z" fill="#000000" fill-rule="nonzero" fill-opacity="1" /><path clip-path="url(#clip250)" d="M28.3562 734.352 L28.3562 728.495 L64.6407 728.495 Q71.452 728.495 74.5076 731.105 Q77.5631 733.684 77.5631 739.445 L77.5631 741.673 L72.5979 741.673 L72.5979 740.113 Q72.5979 736.771 71.0383 735.561 Q69.5105 734.352 64.6407 734.352 L28.3562 734.352 M14.479 734.352 L14.479 728.495 L21.895 728.495 L21.895 734.352 L14.479 734.352 Z" fill="#000000" fill-rule="nonzero" fill-opacity="1" /><path clip-path="url(#clip250)" d="M933.566 65.7705 L933.566 89.8329 L926.071 89.8329 L926.071 27.2059 L933.566 27.2059 L933.566 34.0924 Q935.915 30.0415 939.48 28.0971 Q943.085 26.1121 948.068 26.1121 Q956.332 26.1121 961.476 32.6746 Q966.661 39.2371 966.661 49.9314 Q966.661 60.6258 961.476 67.1883 Q956.332 73.7508 948.068 73.7508 Q943.085 73.7508 939.48 71.8063 Q935.915 69.8214 933.566 65.7705 M958.924 49.9314 Q958.924 41.7081 955.521 37.0496 Q952.159 32.3505 946.245 32.3505 Q940.331 32.3505 936.928 37.0496 Q933.566 41.7081 933.566 49.9314 Q933.566 58.1548 936.928 62.8538 Q940.331 67.5124 946.245 67.5124 Q952.159 67.5124 955.521 62.8538 Q958.924 58.1548 958.924 49.9314 Z" fill="#000000" fill-rule="nonzero" fill-opacity="1" /><path clip-path="url(#clip250)" d="M1005.31 34.1734 Q1004.05 33.4443 1002.55 33.1202 Q1001.09 32.7556 999.312 32.7556 Q992.992 32.7556 989.59 36.8875 Q986.227 40.9789 986.227 48.6757 L986.227 72.576 L978.733 72.576 L978.733 27.2059 L986.227 27.2059 L986.227 34.2544 Q988.577 30.1225 992.344 28.1376 Q996.112 26.1121 1001.5 26.1121 Q1002.27 26.1121 1003.2 26.2337 Q1004.13 26.3147 1005.27 26.5172 L1005.31 34.1734 Z" fill="#000000" fill-rule="nonzero" fill-opacity="1" /><path clip-path="url(#clip250)" d="M1028.88 32.4315 Q1022.89 32.4315 1019.4 37.1306 Q1015.92 41.7891 1015.92 49.9314 Q1015.92 58.0738 1019.36 62.7728 Q1022.85 67.4314 1028.88 67.4314 Q1034.84 67.4314 1038.32 62.7323 Q1041.81 58.0333 1041.81 49.9314 Q1041.81 41.8701 1038.32 37.1711 Q1034.84 32.4315 1028.88 32.4315 M1028.88 26.1121 Q1038.61 26.1121 1044.16 32.4315 Q1049.71 38.7509 1049.71 49.9314 Q1049.71 61.0714 1044.16 67.4314 Q1038.61 73.7508 1028.88 73.7508 Q1019.12 73.7508 1013.57 67.4314 Q1008.06 61.0714 1008.06 49.9314 Q1008.06 38.7509 1013.57 32.4315 Q1019.12 26.1121 1028.88 26.1121 Z" fill="#000000" fill-rule="nonzero" fill-opacity="1" /><path clip-path="url(#clip250)" d="M1094.63 49.9314 Q1094.63 41.7081 1091.23 37.0496 Q1087.86 32.3505 1081.95 32.3505 Q1076.04 32.3505 1072.63 37.0496 Q1069.27 41.7081 1069.27 49.9314 Q1069.27 58.1548 1072.63 62.8538 Q1076.04 67.5124 1081.95 67.5124 Q1087.86 67.5124 1091.23 62.8538 Q1094.63 58.1548 1094.63 49.9314 M1069.27 34.0924 Q1071.62 30.0415 1075.19 28.0971 Q1078.79 26.1121 1083.77 26.1121 Q1092.04 26.1121 1097.18 32.6746 Q1102.37 39.2371 1102.37 49.9314 Q1102.37 60.6258 1097.18 67.1883 Q1092.04 73.7508 1083.77 73.7508 Q1078.79 73.7508 1075.19 71.8063 Q1071.62 69.8214 1069.27 65.7705 L1069.27 72.576 L1061.78 72.576 L1061.78 9.54393 L1069.27 9.54393 L1069.27 34.0924 Z" fill="#000000" fill-rule="nonzero" fill-opacity="1" /><path clip-path="url(#clip250)" d="M1114.72 9.54393 L1122.18 9.54393 L1122.18 72.576 L1114.72 72.576 L1114.72 9.54393 Z" fill="#000000" fill-rule="nonzero" fill-opacity="1" /><path clip-path="url(#clip250)" d="M1176.58 48.0275 L1176.58 51.6733 L1142.31 51.6733 Q1142.79 59.3701 1146.93 63.421 Q1151.1 67.4314 1158.51 67.4314 Q1162.81 67.4314 1166.82 66.3781 Q1170.87 65.3249 1174.84 63.2184 L1174.84 70.267 Q1170.83 71.9684 1166.61 72.8596 Q1162.4 73.7508 1158.07 73.7508 Q1147.21 73.7508 1140.85 67.4314 Q1134.53 61.1119 1134.53 50.3365 Q1134.53 39.1965 1140.53 32.6746 Q1146.56 26.1121 1156.77 26.1121 Q1165.93 26.1121 1171.23 32.0264 Q1176.58 37.9003 1176.58 48.0275 M1169.13 45.84 Q1169.04 39.7232 1165.68 36.0774 Q1162.36 32.4315 1156.85 32.4315 Q1150.61 32.4315 1146.85 35.9558 Q1143.12 39.4801 1142.55 45.8805 L1169.13 45.84 M1150.45 6.22219 L1161.87 21.3726 L1155.68 21.3726 L1142.47 6.22219 L1150.45 6.22219 Z" fill="#000000" fill-rule="nonzero" fill-opacity="1" /><path clip-path="url(#clip250)" d="M1224.14 35.9153 Q1226.93 30.8922 1230.82 28.5022 Q1234.71 26.1121 1239.98 26.1121 Q1247.07 26.1121 1250.91 31.0947 Q1254.76 36.0368 1254.76 45.1919 L1254.76 72.576 L1247.27 72.576 L1247.27 45.4349 Q1247.27 38.913 1244.96 35.7533 Q1242.65 32.5936 1237.91 32.5936 Q1232.12 32.5936 1228.75 36.4419 Q1225.39 40.2903 1225.39 46.9338 L1225.39 72.576 L1217.9 72.576 L1217.9 45.4349 Q1217.9 38.8725 1215.59 35.7533 Q1213.28 32.5936 1208.46 32.5936 Q1202.75 32.5936 1199.39 36.4824 Q1196.02 40.3308 1196.02 46.9338 L1196.02 72.576 L1188.53 72.576 L1188.53 27.2059 L1196.02 27.2059 L1196.02 34.2544 Q1198.58 30.082 1202.14 28.0971 Q1205.71 26.1121 1210.61 26.1121 Q1215.55 26.1121 1218.99 28.6237 Q1222.48 31.1352 1224.14 35.9153 Z" fill="#000000" fill-rule="nonzero" fill-opacity="1" /><path clip-path="url(#clip250)" d="M1308.44 48.0275 L1308.44 51.6733 L1274.17 51.6733 Q1274.65 59.3701 1278.78 63.421 Q1282.96 67.4314 1290.37 67.4314 Q1294.66 67.4314 1298.67 66.3781 Q1302.72 65.3249 1306.69 63.2184 L1306.69 70.267 Q1302.68 71.9684 1298.47 72.8596 Q1294.26 73.7508 1289.92 73.7508 Q1279.07 73.7508 1272.71 67.4314 Q1266.39 61.1119 1266.39 50.3365 Q1266.39 39.1965 1272.38 32.6746 Q1278.42 26.1121 1288.63 26.1121 Q1297.78 26.1121 1303.09 32.0264 Q1308.44 37.9003 1308.44 48.0275 M1300.98 45.84 Q1300.9 39.7232 1297.54 36.0774 Q1294.22 32.4315 1288.71 32.4315 Q1282.47 32.4315 1278.7 35.9558 Q1274.98 39.4801 1274.41 45.8805 L1300.98 45.84 Z" fill="#000000" fill-rule="nonzero" fill-opacity="1" /><path clip-path="url(#clip250)" d="M1348.95 62.2867 L1357.49 62.2867 L1357.49 72.576 L1348.95 72.576 L1348.95 62.2867 M1348.95 29.6769 L1357.49 29.6769 L1357.49 39.9662 L1348.95 39.9662 L1348.95 29.6769 Z" fill="#000000" fill-rule="nonzero" fill-opacity="1" /><path clip-path="url(#clip250)" d="M1436.69 35.9153 Q1439.48 30.8922 1443.37 28.5022 Q1447.26 26.1121 1452.53 26.1121 Q1459.62 26.1121 1463.46 31.0947 Q1467.31 36.0368 1467.31 45.1919 L1467.31 72.576 L1459.82 72.576 L1459.82 45.4349 Q1459.82 38.913 1457.51 35.7533 Q1455.2 32.5936 1450.46 32.5936 Q1444.67 32.5936 1441.31 36.4419 Q1437.94 40.2903 1437.94 46.9338 L1437.94 72.576 L1430.45 72.576 L1430.45 45.4349 Q1430.45 38.8725 1428.14 35.7533 Q1425.83 32.5936 1421.01 32.5936 Q1415.3 32.5936 1411.94 36.4824 Q1408.57 40.3308 1408.57 46.9338 L1408.57 72.576 L1401.08 72.576 L1401.08 27.2059 L1408.57 27.2059 L1408.57 34.2544 Q1411.13 30.082 1414.69 28.0971 Q1418.26 26.1121 1423.16 26.1121 Q1428.1 26.1121 1431.54 28.6237 Q1435.03 31.1352 1436.69 35.9153 Z" fill="#000000" fill-rule="nonzero" fill-opacity="1" /><path clip-path="url(#clip250)" d="M1512.03 49.3643 Q1512.03 41.2625 1508.67 36.8065 Q1505.35 32.3505 1499.31 32.3505 Q1493.32 32.3505 1489.96 36.8065 Q1486.64 41.2625 1486.64 49.3643 Q1486.64 57.4256 1489.96 61.8816 Q1493.32 66.3376 1499.31 66.3376 Q1505.35 66.3376 1508.67 61.8816 Q1512.03 57.4256 1512.03 49.3643 M1519.49 66.9452 Q1519.49 78.5308 1514.34 84.1616 Q1509.2 89.8329 1498.59 89.8329 Q1494.66 89.8329 1491.17 89.2252 Q1487.69 88.6581 1484.41 87.4428 L1484.41 80.1917 Q1487.69 81.9741 1490.89 82.8248 Q1494.09 83.6755 1497.41 83.6755 Q1504.74 83.6755 1508.39 79.8271 Q1512.03 76.0193 1512.03 68.282 L1512.03 64.5957 Q1509.73 68.6061 1506.12 70.5911 Q1502.52 72.576 1497.49 72.576 Q1489.15 72.576 1484.04 66.2161 Q1478.94 59.8562 1478.94 49.3643 Q1478.94 38.832 1484.04 32.472 Q1489.15 26.1121 1497.49 26.1121 Q1502.52 26.1121 1506.12 28.0971 Q1509.73 30.082 1512.03 34.0924 L1512.03 27.2059 L1519.49 27.2059 L1519.49 66.9452 Z" fill="#000000" fill-rule="nonzero" fill-opacity="1" /><path clip-path="url(#clip250)" d="M1572.56 45.1919 L1572.56 72.576 L1565.1 72.576 L1565.1 45.4349 Q1565.1 38.994 1562.59 35.7938 Q1560.08 32.5936 1555.06 32.5936 Q1549.02 32.5936 1545.54 36.4419 Q1542.05 40.2903 1542.05 46.9338 L1542.05 72.576 L1534.56 72.576 L1534.56 9.54393 L1542.05 9.54393 L1542.05 34.2544 Q1544.73 30.163 1548.33 28.1376 Q1551.98 26.1121 1556.72 26.1121 Q1564.53 26.1121 1568.54 30.9732 Q1572.56 35.7938 1572.56 45.1919 Z" fill="#000000" fill-rule="nonzero" fill-opacity="1" /><path clip-path="url(#clip250)" d="M1589.89 65.6895 L1603.26 65.6895 L1603.26 19.5497 L1588.72 22.4663 L1588.72 15.0127 L1603.18 12.096 L1611.36 12.096 L1611.36 65.6895 L1624.73 65.6895 L1624.73 72.576 L1589.89 72.576 L1589.89 65.6895 Z" fill="#000000" fill-rule="nonzero" fill-opacity="1" /><path clip-path="url(#clip250)" d="M1666.05 39.9662 Q1671.92 41.222 1675.21 45.1919 Q1678.53 49.1618 1678.53 54.9951 Q1678.53 63.9476 1672.37 68.8492 Q1666.21 73.7508 1654.87 73.7508 Q1651.06 73.7508 1647.01 72.9811 Q1643 72.2519 1638.71 70.7531 L1638.71 62.8538 Q1642.11 64.8388 1646.16 65.8515 Q1650.21 66.8642 1654.63 66.8642 Q1662.32 66.8642 1666.33 63.826 Q1670.38 60.7879 1670.38 54.9951 Q1670.38 49.6479 1666.62 46.6502 Q1662.89 43.612 1656.21 43.612 L1649.16 43.612 L1649.16 36.8875 L1656.53 36.8875 Q1662.57 36.8875 1665.77 34.4975 Q1668.97 32.067 1668.97 27.5299 Q1668.97 22.8714 1665.64 20.4004 Q1662.36 17.8888 1656.21 17.8888 Q1652.84 17.8888 1649 18.618 Q1645.15 19.3471 1640.53 20.8865 L1640.53 13.5948 Q1645.19 12.2985 1649.24 11.6504 Q1653.33 11.0023 1656.94 11.0023 Q1666.25 11.0023 1671.68 15.2557 Q1677.11 19.4686 1677.11 26.6793 Q1677.11 31.7024 1674.23 35.1862 Q1671.36 38.6294 1666.05 39.9662 Z" fill="#000000" fill-rule="nonzero" fill-opacity="1" /><polyline clip-path="url(#clip252)" style="stroke:#009af9; stroke-linecap:round; stroke-linejoin:round; stroke-width:4; stroke-opacity:1; fill:none" points="311.302,160.256 313.284,337.252 315.266,468.395 317.248,599.538 319.23,730.681 321.212,730.681 323.194,730.681 325.176,730.681 327.158,730.681 329.14,730.681 331.122,730.681 333.104,789.74 335.086,789.74 337.068,798.143 339.05,810.891 341.032,829.42 343.014,829.42 344.996,832.768 346.978,838.997 348.96,850.055 350.942,868.362 352.924,868.362 354.906,871.79 356.888,878.235 358.87,889.766 360.852,889.766 362.834,891.974 364.816,896.217 366.798,904.09 368.78,904.09 370.762,905.618 372.744,908.588 374.726,914.221 376.708,914.221 378.69,915.323 380.672,917.482 382.654,921.636 384.636,929.356 386.618,929.356 388.6,930.854 390.582,933.77 392.564,939.305 394.546,939.305 396.528,940.387 398.51,942.51 400.492,946.597 402.474,946.597 404.456,947.4 406.438,948.985 408.42,952.063 410.402,957.891 412.384,957.891 414.366,959.029 416.348,961.26 418.33,965.545 420.312,965.545 422.294,966.387 424.276,968.046 426.258,971.265 428.24,971.265 430.222,971.901 432.204,973.157 434.186,975.612 436.168,980.31 438.15,980.31 440.132,981.232 442.114,983.045 444.096,986.554 446.078,986.554 448.06,987.246 450.042,988.612 452.024,991.278 454.006,991.278 455.988,991.805 457.97,992.849 459.952,994.898 461.934,998.848 463.916,998.848 465.898,999.625 467.88,1001.16 469.862,1004.14 471.844,1004.14 473.826,1004.73 475.808,1005.89 477.79,1008.17 479.772,1008.17 481.754,1008.63 483.736,1009.52 485.718,1011.29 487.7,1014.7 489.682,1014.7 491.664,1015.38 493.646,1016.71 495.628,1019.31 497.61,1019.31 499.592,1019.82 501.574,1020.84 503.556,1022.84 505.538,1022.84 507.52,1023.23 509.502,1024.02 511.484,1025.57 513.466,1028.59 515.448,1028.59 517.43,1029.19 519.412,1030.37 521.394,1032.68 523.376,1032.68 525.358,1033.13 527.34,1034.04 529.322,1035.82 531.304,1035.82 533.286,1036.18 535.267,1036.88 537.249,1038.27 539.231,1038.27 541.213,1038.55 543.195,1039.1 545.177,1040.19 547.159,1042.32 549.141,1042.32 551.123,1042.74 553.105,1043.58 555.087,1045.24 557.069,1045.24 559.051,1045.57 561.033,1046.22 563.015,1047.51 564.997,1047.51 566.979,1047.77 568.961,1048.28 570.943,1049.29 572.925,1051.28 574.907,1051.28 576.889,1051.67 578.871,1052.45 580.853,1054 582.835,1054 584.817,1054.3 586.799,1054.91 588.781,1056.12 590.763,1056.12 592.745,1056.36 594.727,1056.84 596.709,1057.78 598.691,1059.65 600.673,1059.65 602.655,1060.02 604.637,1060.75 606.619,1062.2 608.601,1062.2 610.583,1062.49 612.565,1063.06 614.547,1064.19 616.529,1064.19 618.511,1064.42 620.493,1064.87 622.475,1065.76 624.457,1067.52 626.439,1067.52 628.421,1067.86 630.403,1068.56 632.385,1069.92 634.367,1069.92 636.349,1070.2 638.331,1070.74 640.313,1071.81 642.295,1071.81 644.277,1072.02 646.259,1072.45 648.241,1073.29 650.223,1074.95 652.205,1074.95 654.187,1075.28 656.169,1075.93 658.151,1077.23 660.133,1077.23 662.115,1077.49 664.097,1078 666.079,1079.02 668.061,1079.02 670.043,1079.22 672.025,1079.62 674.007,1080.42 675.989,1082 677.971,1082 679.953,1082.32 681.935,1082.94 683.917,1084.17 685.899,1084.17 687.881,1084.42 689.863,1084.9 691.845,1085.87 693.827,1085.87 695.809,1086.07 697.791,1086.45 699.773,1087.21 701.755,1088.72 703.737,1088.72 705.719,1089.02 707.701,1089.61 709.683,1090.79 711.665,1090.79 713.647,1091.02 715.629,1091.49 717.611,1092.41 719.593,1092.41 721.575,1092.6 723.557,1092.97 725.539,1093.7 727.521,1095.13 729.503,1095.13 731.485,1095.42 733.467,1095.99 735.449,1097.12 737.431,1097.12 739.413,1097.34 741.395,1097.79 743.377,1098.68 745.359,1098.68 747.341,1098.85 749.323,1099.2 751.305,1099.9 753.287,1101.28 755.269,1101.28 757.251,1101.56 759.233,1102.11 761.215,1103.19 763.197,1103.19 765.179,1103.4 767.161,1103.83 769.143,1104.68 771.125,1104.68 773.107,1104.85 775.089,1105.19 777.071,1105.87 779.053,1105.87 781.035,1106 783.017,1106.27 784.999,1106.8 786.981,1107.85 788.963,1107.85 790.945,1108.06 792.927,1108.48 794.909,1109.31 796.891,1109.31 798.873,1109.48 800.855,1109.81 802.837,1110.47 804.819,1110.47 806.801,1110.6 808.783,1110.86 810.765,1111.38 812.747,1112.41 814.729,1112.41 816.711,1112.61 818.693,1113.02 820.675,1113.83 822.657,1113.83 824.639,1113.99 826.621,1114.31 828.603,1114.95 830.585,1114.95 832.567,1115.08 834.549,1115.34 836.531,1115.84 838.513,1116.85 840.495,1116.85 842.477,1117.05 844.459,1117.45 846.441,1118.24 848.423,1118.24 850.405,1118.4 852.387,1118.72 854.369,1119.34 856.351,1119.34 858.333,1119.47 860.314,1119.72 862.296,1120.21 864.278,1121.2 866.26,1121.2 868.242,1121.39 870.224,1121.78 872.206,1122.56 874.188,1122.56 876.17,1122.71 878.152,1123.02 880.134,1123.63 882.116,1123.63 884.098,1123.75 886.08,1124 888.062,1124.48 890.044,1125.45 892.026,1125.45 894.008,1125.64 895.99,1126.02 897.972,1126.78 899.954,1126.78 901.936,1126.93 903.918,1127.23 905.9,1127.83 907.882,1127.83 909.864,1127.95 911.846,1128.19 913.828,1128.67 915.81,1129.61 917.792,1129.61 919.774,1129.8 921.756,1130.17 923.738,1130.92 925.72,1130.92 927.702,1131.07 929.684,1131.36 931.666,1131.95 933.648,1131.95 935.63,1132.07 937.612,1132.3 939.594,1132.77 941.576,1133.69 943.558,1133.69 945.54,1133.88 947.522,1134.25 949.504,1134.98 951.486,1134.98 953.468,1135.12 955.45,1135.41 957.432,1135.99 959.414,1135.99 961.396,1136.1 963.378,1136.33 965.36,1136.79 967.342,1137.7 969.324,1137.7 971.306,1137.88 973.288,1138.24 975.27,1138.96 977.252,1138.96 979.234,1139.1 981.216,1139.39 983.198,1139.95 985.18,1139.95 987.162,1140.07 989.144,1140.29 991.126,1140.74 993.108,1141.63 995.09,1141.63 997.072,1141.81 999.054,1142.17 1001.04,1142.87 1003.02,1142.87 1005,1143.01 1006.98,1143.29 1008.96,1143.85 1010.95,1143.85 1012.93,1143.96 1014.91,1144.18 1016.89,1144.62 1018.87,1144.62 1020.86,1144.71 1022.84,1144.89 1024.82,1145.24 1026.8,1145.94 1028.78,1145.94 1030.77,1146.08 1032.75,1146.35 1034.73,1146.91 1036.71,1146.91 1038.69,1147.02 1040.68,1147.24 1042.66,1147.67 1044.64,1147.67 1046.62,1147.76 1048.6,1147.94 1050.59,1148.28 1052.57,1148.98 1054.55,1148.98 1056.53,1149.11 1058.51,1149.39 1060.5,1149.94 1062.48,1149.94 1064.46,1150.05 1066.44,1150.27 1068.42,1150.7 1070.41,1150.7 1072.39,1150.79 1074.37,1150.96 1076.35,1151.31 1078.33,1151.99 1080.32,1151.99 1082.3,1152.13 1084.28,1152.4 1086.26,1152.95 1088.24,1152.95 1090.23,1153.05 1092.21,1153.27 1094.19,1153.7 1096.17,1153.7 1098.15,1153.79 1100.14,1153.96 1102.12,1154.3 1104.1,1154.98 1106.08,1154.98 1108.06,1155.12 1110.05,1155.39 1112.03,1155.93 1114.01,1155.93 1115.99,1156.04 1117.97,1156.25 1119.96,1156.68 1121.94,1156.68 1123.92,1156.76 1125.9,1156.94 1127.88,1157.28 1129.87,1157.95 1131.85,1157.95 1133.83,1158.09 1135.81,1158.35 1137.79,1158.89 1139.78,1158.89 1141.76,1159 1143.74,1159.21 1145.72,1159.63 1147.7,1159.63 1149.69,1159.72 1151.67,1159.89 1153.65,1160.23 1155.63,1160.9 1157.61,1160.9 1159.6,1161.03 1161.58,1161.3 1163.56,1161.83 1165.54,1161.83 1167.52,1161.93 1169.51,1162.15 1171.49,1162.57 1173.47,1162.57 1175.45,1162.65 1177.43,1162.82 1179.42,1163.16 1181.4,1163.82 1183.38,1163.82 1185.36,1163.95 1187.34,1164.22 1189.33,1164.75 1191.31,1164.75 1193.29,1164.85 1195.27,1165.06 1197.25,1165.48 1199.24,1165.48 1201.22,1165.56 1203.2,1165.73 1205.18,1166.06 1207.16,1166.73 1209.15,1166.73 1211.13,1166.86 1213.11,1167.12 1215.09,1167.64 1217.07,1167.64 1219.06,1167.75 1221.04,1167.96 1223.02,1168.37 1225,1168.37 1226.98,1168.46 1228.97,1168.62 1230.95,1168.95 1232.93,1169.61 1234.91,1169.61 1236.89,1169.74 1238.88,1170 1240.86,1170.52 1242.84,1170.52 1244.82,1170.63 1246.8,1170.83 1248.79,1171.25 1250.77,1171.25 1252.75,1171.33 1254.73,1171.49 1256.71,1171.82 1258.7,1171.82 1260.68,1171.89 1262.66,1172.02 1264.64,1172.28 1266.62,1172.8 1268.61,1172.8 1270.59,1172.9 1272.57,1173.11 1274.55,1173.52 1276.53,1173.52 1278.52,1173.61 1280.5,1173.77 1282.48,1174.1 1284.46,1174.1 1286.44,1174.16 1288.43,1174.29 1290.41,1174.56 1292.39,1175.08 1294.37,1175.08 1296.35,1175.18 1298.34,1175.39 1300.32,1175.8 1302.3,1175.8 1304.28,1175.88 1306.26,1176.05 1308.25,1176.37 1310.23,1176.37 1312.21,1176.44 1314.19,1176.57 1316.17,1176.83 1318.16,1177.35 1320.14,1177.35 1322.12,1177.46 1324.1,1177.66 1326.08,1178.07 1328.07,1178.07 1330.05,1178.16 1332.03,1178.32 1334.01,1178.65 1335.99,1178.65 1337.98,1178.72 1339.96,1178.85 1341.94,1179.11 1343.92,1179.63 1345.9,1179.63 1347.88,1179.73 1349.87,1179.94 1351.85,1180.35 1353.83,1180.35 1355.81,1180.43 1357.79,1180.6 1359.78,1180.92 1361.76,1180.92 1363.74,1180.99 1365.72,1181.12 1367.7,1181.38 1369.69,1181.9 1371.67,1181.9 1373.65,1182 1375.63,1182.21 1377.61,1182.62 1379.6,1182.62 1381.58,1182.71 1383.56,1182.87 1385.54,1183.2 1387.52,1183.2 1389.51,1183.26 1391.49,1183.39 1393.47,1183.66 1395.45,1184.17 1397.43,1184.17 1399.42,1184.28 1401.4,1184.49 1403.38,1184.9 1405.36,1184.9 1407.34,1184.98 1409.33,1185.14 1411.31,1185.47 1413.29,1185.47 1415.27,1185.54 1417.25,1185.67 1419.24,1185.93 1421.22,1186.45 1423.2,1186.45 1425.18,1186.55 1427.16,1186.76 1429.15,1187.17 1431.13,1187.17 1433.11,1187.25 1435.09,1187.42 1437.07,1187.74 1439.06,1187.74 1441.04,1187.81 1443.02,1187.94 1445,1188.2 1446.98,1188.72 1448.97,1188.72 1450.95,1188.82 1452.93,1189.03 1454.91,1189.44 1456.89,1189.44 1458.88,1189.52 1460.86,1189.69 1462.84,1190.02 1464.82,1190.02 1466.8,1190.08 1468.79,1190.21 1470.77,1190.47 1472.75,1190.99 1474.73,1190.99 1476.71,1191.1 1478.7,1191.3 1480.68,1191.71 1482.66,1191.71 1484.64,1191.8 1486.62,1191.96 1488.61,1192.29 1490.59,1192.29 1492.57,1192.35 1494.55,1192.48 1496.53,1192.74 1498.52,1193.26 1500.5,1193.26 1502.48,1193.37 1504.46,1193.57 1506.44,1193.98 1508.43,1193.98 1510.41,1194.07 1512.39,1194.23 1514.37,1194.56 1516.35,1194.56 1518.34,1194.62 1520.32,1194.75 1522.3,1195.01 1524.28,1195.01 1526.26,1195.07 1528.25,1195.17 1530.23,1195.38 1532.21,1195.79 1534.19,1195.79 1536.17,1195.87 1538.16,1196.04 1540.14,1196.37 1542.12,1196.37 1544.1,1196.43 1546.08,1196.56 1548.07,1196.83 1550.05,1196.83 1552.03,1196.88 1554.01,1196.98 1555.99,1197.19 1557.98,1197.61 1559.96,1197.61 1561.94,1197.69 1563.92,1197.86 1565.9,1198.19 1567.89,1198.19 1569.87,1198.25 1571.85,1198.38 1573.83,1198.65 1575.81,1198.65 1577.8,1198.7 1579.78,1198.8 1581.76,1199.01 1583.74,1199.43 1585.72,1199.43 1587.71,1199.51 1589.69,1199.68 1591.67,1200.01 1593.65,1200.01 1595.63,1200.08 1597.62,1200.21 1599.6,1200.47 1601.58,1200.47 1603.56,1200.53 1605.54,1200.63 1607.53,1200.84 1609.51,1201.26 1611.49,1201.26 1613.47,1201.35 1615.45,1201.51 1617.44,1201.85 1619.42,1201.85 1621.4,1201.91 1623.38,1202.05 1625.36,1202.31 1627.35,1202.31 1629.33,1202.36 1631.31,1202.47 1633.29,1202.68 1635.27,1203.1 1637.26,1203.1 1639.24,1203.19 1641.22,1203.35 1643.2,1203.69 1645.18,1203.69 1647.17,1203.75 1649.15,1203.89 1651.13,1204.15 1653.11,1204.15 1655.09,1204.21 1657.08,1204.31 1659.06,1204.53 1661.04,1204.95 1663.02,1204.95 1665,1205.03 1666.99,1205.2 1668.97,1205.54 1670.95,1205.54 1672.93,1205.6 1674.91,1205.74 1676.9,1206.01 1678.88,1206.01 1680.86,1206.06 1682.84,1206.17 1684.82,1206.38 1686.81,1206.8 1688.79,1206.8 1690.77,1206.89 1692.75,1207.06 1694.73,1207.4 1696.72,1207.4 1698.7,1207.46 1700.68,1207.6 1702.66,1207.87 1704.64,1207.87 1706.63,1207.92 1708.61,1208.03 1710.59,1208.24 1712.57,1208.67 1714.55,1208.67 1716.54,1208.75 1718.52,1208.92 1720.5,1209.26 1722.48,1209.26 1724.46,1209.33 1726.45,1209.46 1728.43,1209.73 1730.41,1209.73 1732.39,1209.79 1734.37,1209.89 1736.36,1210.11 1738.34,1210.54 1740.32,1210.54 1742.3,1210.62 1744.28,1210.79 1746.27,1211.13 1748.25,1211.13 1750.23,1211.2 1752.21,1211.34 1754.19,1211.61 1756.18,1211.61 1758.16,1211.66 1760.14,1211.77 1762.12,1211.98 1764.1,1211.98 1766.09,1212.03 1768.07,1212.11 1770.05,1212.29 1772.03,1212.63 1774.01,1212.63 1776,1212.7 1777.98,1212.83 1779.96,1213.11 1781.94,1213.11 1783.92,1213.16 1785.91,1213.27 1787.89,1213.49 1789.87,1213.49 1791.85,1213.53 1793.83,1213.62 1795.82,1213.79 1797.8,1214.14 1799.78,1214.14 1801.76,1214.2 1803.74,1214.34 1805.73,1214.62 1807.71,1214.62 1809.69,1214.67 1811.67,1214.78 1813.65,1215 1815.64,1215 1817.62,1215.04 1819.6,1215.13 1821.58,1215.31 1823.56,1215.66 1825.55,1215.66 1827.53,1215.72 1829.51,1215.86 1831.49,1216.14 1833.47,1216.14 1835.46,1216.2 1837.44,1216.31 1839.42,1216.53 1841.4,1216.53 1843.38,1216.57 1845.37,1216.66 1847.35,1216.84 1849.33,1217.19 1851.31,1217.19 1853.29,1217.26 1855.28,1217.4 1857.26,1217.67 1859.24,1217.67 1861.22,1217.73 1863.2,1217.84 1865.19,1218.06 1867.17,1218.06 1869.15,1218.11 1871.13,1218.2 1873.11,1218.37 1875.1,1218.73 1877.08,1218.73 1879.06,1218.8 1881.04,1218.94 1883.02,1219.22 1885.01,1219.22 1886.99,1219.28 1888.97,1219.39 1890.95,1219.61 1892.93,1219.61 1894.92,1219.66 1896.9,1219.75 1898.88,1219.93 1900.86,1220.28 1902.84,1220.28 1904.83,1220.35 1906.81,1220.49 1908.79,1220.78 1910.77,1220.78 1912.75,1220.83 1914.74,1220.95 1916.72,1221.17 1918.7,1221.17 1920.68,1221.22 1922.66,1221.31 1924.65,1221.49 1926.63,1221.85 1928.61,1221.85 1930.59,1221.92 1932.57,1222.06 1934.56,1222.35 1936.54,1222.35 1938.52,1222.4 1940.5,1222.52 1942.48,1222.74 1944.47,1222.74 1946.45,1222.79 1948.43,1222.88 1950.41,1223.06 1952.39,1223.42 1954.38,1223.42 1956.36,1223.49 1958.34,1223.64 1960.32,1223.93 1962.3,1223.93 1964.29,1223.98 1966.27,1224.1 1968.25,1224.33 1970.23,1224.33 1972.21,1224.37 1974.2,1224.46 1976.18,1224.65 1978.16,1225.01 1980.14,1225.01 1982.12,1225.08 1984.11,1225.23 1986.09,1225.52 1988.07,1225.52 1990.05,1225.57 1992.03,1225.69 1994.02,1225.92 1996,1225.92 1997.98,1225.97 1999.96,1226.06 2001.94,1226.24 2003.92,1226.61 2005.91,1226.61 2007.89,1226.68 2009.87,1226.83 2011.85,1227.12 2013.83,1227.12 2015.82,1227.18 2017.8,1227.29 2019.78,1227.52 2021.76,1227.52 2023.74,1227.57 2025.73,1227.66 2027.71,1227.85 2029.69,1227.85 2031.67,1227.88 2033.65,1227.96 2035.64,1228.11 2037.62,1228.4 2039.6,1228.4 2041.58,1228.46 2043.56,1228.58 2045.55,1228.81 2047.53,1228.81 2049.51,1228.86 2051.49,1228.95 2053.47,1229.14 2055.46,1229.14 2057.44,1229.18 2059.42,1229.25 2061.4,1229.4 2063.38,1229.7 2065.37,1229.7 2067.35,1229.76 2069.33,1229.87 2071.31,1230.11 2073.29,1230.11 2075.28,1230.16 2077.26,1230.25 2079.24,1230.44 2081.22,1230.44 2083.2,1230.48 2085.19,1230.55 2087.17,1230.7 2089.15,1231 2091.13,1231 2093.11,1231.06 2095.1,1231.18 2097.08,1231.42 2099.06,1231.42 2101.04,1231.47 2103.02,1231.57 2105.01,1231.76 2106.99,1231.76 2108.97,1231.79 2110.95,1231.87 2112.93,1232.02 2114.92,1232.33 2116.9,1232.33 2118.88,1232.39 2120.86,1232.51 2122.84,1232.75 2124.83,1232.75 2126.81,1232.8 2128.79,1232.89 2130.77,1233.09 2132.75,1233.09 2134.74,1233.12 2136.72,1233.2 2138.7,1233.35 2140.68,1233.66 2142.66,1233.66 2144.65,1233.72 2146.63,1233.84 2148.61,1234.09 2150.59,1234.09 2152.57,1234.14 2154.56,1234.23 2156.54,1234.43 2158.52,1234.43 2160.5,1234.47 2162.48,1234.54 2164.47,1234.7 2166.45,1235.01 2168.43,1235.01 2170.41,1235.07 2172.39,1235.19 2174.38,1235.44 2176.36,1235.44 2178.34,1235.49 2180.32,1235.59 2182.3,1235.78 2184.29,1235.78 2186.27,1235.82 2188.25,1235.9 2190.23,1236.06 2192.21,1236.37 2194.2,1236.37 2196.18,1236.43 2198.16,1236.55 2200.14,1236.8 2202.12,1236.8 2204.11,1236.85 2206.09,1236.95 2208.07,1237.15 2210.05,1237.15 2212.03,1237.19 2214.02,1237.27 2216,1237.43 2217.98,1237.74 2219.96,1237.74 2221.94,1237.8 2223.93,1237.93 2225.91,1238.18 2227.89,1238.18 2229.87,1238.23 2231.85,1238.33 2233.84,1238.53 2235.82,1238.53 2237.8,1238.57 2239.78,1238.65 2241.76,1238.81 2243.75,1239.12 2245.73,1239.12 2247.71,1239.19 2249.69,1239.31 2251.67,1239.57 2253.66,1239.57 2255.64,1239.62 2257.62,1239.72 2259.6,1239.92 2261.58,1239.92 2263.57,1239.96 2265.55,1240.04 2267.53,1240.2 2269.51,1240.2 2271.49,1240.23 2273.48,1240.3 2275.46,1240.43 2277.44,1240.68 2279.42,1240.68 2281.4,1240.73 2283.39,1240.84 2285.37,1241.04 2287.35,1241.04 2289.33,1241.08 2291.31,1241.16 2293.3,1241.32 "/>
<polyline clip-path="url(#clip252)" style="stroke:#e26f46; stroke-linecap:round; stroke-linejoin:round; stroke-width:4; stroke-opacity:1; fill:none" points="311.302,160.256 313.284,337.252 315.266,468.395 317.248,599.538 319.23,730.681 321.212,861.824 323.194,992.967 325.176,1124.11 327.158,1255.25 329.14,1386.4 "/>
<polyline clip-path="url(#clip252)" style="stroke:#3da44d; stroke-linecap:round; stroke-linejoin:round; stroke-width:4; stroke-opacity:1; fill:none" points="311.302,160.256 313.284,337.252 315.266,468.395 317.248,599.538 319.23,730.681 321.212,730.681 323.194,730.681 325.176,730.681 327.158,730.681 329.14,730.681 331.122,842.234 333.104,842.234 335.086,878.098 337.068,878.098 339.05,883.621 341.032,883.621 343.014,884.673 344.996,886.71 346.978,886.71 348.96,887.11 350.942,887.901 352.924,889.448 354.906,889.448 356.888,889.754 358.87,890.36 360.852,891.552 362.834,891.552 364.816,891.788 366.798,892.258 368.78,893.186 370.762,894.997 372.744,894.997 374.726,895.355 376.708,896.065 378.69,897.46 380.672,897.46 382.654,897.737 384.636,898.286 386.618,899.371 388.6,899.371 390.582,899.587 392.564,900.016 394.546,900.865 396.528,902.532 398.51,902.532 400.492,902.862 402.474,903.518 404.456,904.811 406.438,904.811 408.42,905.068 410.402,905.579 412.384,906.59 414.366,906.59 416.348,906.791 418.33,907.191 420.312,907.986 422.294,909.548 424.276,909.548 426.258,909.858 428.24,910.475 430.222,911.692 432.204,911.692 434.186,911.934 436.168,912.416 438.15,913.37 440.132,913.37 442.114,913.56 444.096,913.938 446.078,914.69 448.06,916.171 450.042,916.171 452.024,916.465 454.006,917.05 455.988,918.206 457.97,918.206 459.952,918.436 461.934,918.895 463.916,919.803 465.898,919.803 467.88,919.984 469.862,920.344 471.844,921.06 473.826,922.473 475.808,922.473 477.79,922.754 479.772,923.313 481.754,924.418 483.736,924.418 485.718,924.638 487.7,925.077 489.682,925.946 491.664,925.946 493.646,926.119 495.628,926.464 497.61,927.15 499.592,928.505 501.574,928.505 503.556,928.774 505.538,929.31 507.52,930.371 509.502,930.371 511.484,930.582 513.466,931.003 515.448,931.838 517.43,931.838 519.412,932.005 521.394,932.336 523.376,932.996 525.358,934.299 527.34,934.299 529.322,934.558 531.304,935.074 533.286,936.095 535.267,936.095 537.249,936.299 539.231,936.704 541.213,937.509 543.195,937.509 545.177,937.669 547.159,937.989 549.141,938.625 551.123,939.882 553.105,939.882 555.087,940.132 557.069,940.63 559.051,941.616 561.033,941.616 563.015,941.813 564.997,942.204 566.979,942.982 568.961,942.982 570.943,943.137 572.925,943.446 574.907,944.06 576.889,945.275 578.871,945.275 580.853,945.517 582.835,945.999 584.817,946.953 586.799,946.953 588.781,947.143 590.763,947.522 592.745,948.275 594.727,948.275 596.709,948.425 598.691,948.724 600.673,949.319 602.655,949.319 604.637,949.438 606.619,949.675 608.601,950.146 610.583,951.082 612.565,951.082 614.547,951.268 616.529,951.64 618.511,952.377 620.493,952.377 622.475,952.525 624.457,952.818 626.439,953.402 628.421,953.402 630.403,953.518 632.385,953.75 634.367,954.213 636.349,955.131 638.331,955.131 640.313,955.314 642.295,955.678 644.277,956.402 646.259,956.402 648.241,956.547 650.223,956.834 652.205,957.407 654.187,957.407 656.169,957.522 658.151,957.75 660.133,958.204 662.115,959.105 664.097,959.105 666.079,959.285 668.061,959.642 670.043,960.354 672.025,960.354 674.007,960.495 675.989,960.778 677.971,961.341 679.953,961.341 681.935,961.453 683.917,961.677 685.899,962.124 687.881,963.009 689.863,963.009 691.845,963.185 693.827,963.537 695.809,964.236 697.791,964.236 699.773,964.375 701.755,964.653 703.737,965.206 705.719,965.206 707.701,965.317 709.683,965.537 711.665,965.976 713.647,966.846 715.629,966.846 717.611,967.02 719.593,967.366 721.575,968.053 723.557,968.053 725.539,968.19 727.521,968.464 729.503,969.008 731.485,969.008 733.467,969.116 735.449,969.333 737.431,969.765 739.413,970.621 741.395,970.621 743.377,970.792 745.359,971.132 747.341,971.809 749.323,971.809 751.305,971.944 753.287,972.213 755.269,972.748 757.251,972.748 759.233,972.855 761.215,973.069 763.197,973.494 765.179,974.337 767.161,974.337 769.143,974.505 771.125,974.84 773.107,975.506 775.089,975.506 777.071,975.639 779.053,975.904 781.035,976.432 783.017,976.432 784.999,976.537 786.981,976.747 788.963,977.166 790.945,977.997 792.927,977.997 794.909,978.162 796.891,978.493 798.873,979.149 800.855,979.149 802.837,979.28 804.819,979.541 806.801,980.061 808.783,980.061 810.765,980.165 812.747,980.372 814.729,980.784 816.711,981.603 818.693,981.603 820.675,981.767 822.657,982.092 824.639,982.739 826.621,982.739 828.603,982.868 830.585,983.126 832.567,983.639 834.549,983.639 836.531,983.741 838.513,983.945 840.495,984.352 842.477,984.352 844.459,984.433 846.441,984.596 848.423,984.919 850.405,985.562 852.387,985.562 854.369,985.691 856.351,985.947 858.333,986.456 860.314,986.456 862.296,986.558 864.278,986.761 866.26,987.165 868.242,987.165 870.224,987.246 872.206,987.407 874.188,987.729 876.17,988.368 878.152,988.368 880.134,988.496 882.116,988.75 884.098,989.257 886.08,989.257 888.062,989.358 890.044,989.56 892.026,989.962 894.008,989.962 895.99,990.042 897.972,990.203 899.954,990.522 901.936,991.158 903.918,991.158 905.9,991.285 907.882,991.538 909.864,992.042 911.846,992.042 913.828,992.142 915.81,992.343 917.792,992.743 919.774,992.743 921.756,992.823 923.738,992.982 925.72,993.3 927.702,993.932 929.684,993.932 931.666,994.058 933.648,994.31 935.63,994.811 937.612,994.811 939.594,994.911 941.576,995.11 943.558,995.508 945.54,995.508 947.522,995.587 949.504,995.746 951.486,996.062 953.468,996.691 955.45,996.691 957.432,996.817 959.414,997.067 961.396,997.565 963.378,997.565 965.36,997.664 967.342,997.863 969.324,998.259 971.306,998.259 973.288,998.338 975.27,998.495 977.252,998.81 979.234,999.435 981.216,999.435 983.198,999.56 985.18,999.809 987.162,1000.3 989.144,1000.3 991.126,1000.4 993.108,1000.6 995.09,1000.99 997.072,1000.99 999.054,1001.07 1001.04,1001.23 1003.02,1001.54 1005,1002.17 1006.98,1002.17 1008.96,1002.29 1010.95,1002.54 1012.93,1003.03 1014.91,1003.03 1016.89,1003.13 1018.87,1003.33 1020.86,1003.72 1022.84,1003.72 1024.82,1003.8 1026.8,1003.95 1028.78,1004.26 1030.77,1004.88 1032.75,1004.88 1034.73,1005.01 1036.71,1005.25 1038.69,1005.74 1040.68,1005.74 1042.66,1005.84 1044.64,1006.04 1046.62,1006.43 1048.6,1006.43 1050.59,1006.5 1052.57,1006.66 1054.55,1006.97 1056.53,1007.59 1058.51,1007.59 1060.5,1007.71 1062.48,1007.95 1064.46,1008.44 1066.44,1008.44 1068.42,1008.54 1070.41,1008.73 1072.39,1009.12 1074.37,1009.12 1076.35,1009.2 1078.33,1009.35 1080.32,1009.66 1082.3,1010.28 1084.28,1010.28 1086.26,1010.4 1088.24,1010.64 1090.23,1011.13 1092.21,1011.13 1094.19,1011.23 1096.17,1011.42 1098.15,1011.8 1100.14,1011.8 1102.12,1011.88 1104.1,1012.04 1106.08,1012.34 1108.06,1012.34 1110.05,1012.4 1112.03,1012.53 1114.01,1012.77 1115.99,1013.26 1117.97,1013.26 1119.96,1013.36 1121.94,1013.55 1123.92,1013.94 1125.9,1013.94 1127.88,1014.01 1129.87,1014.17 1131.85,1014.47 1133.83,1014.47 1135.81,1014.54 1137.79,1014.66 1139.78,1014.9 1141.76,1015.39 1143.74,1015.39 1145.72,1015.49 1147.7,1015.68 1149.69,1016.07 1151.67,1016.07 1153.65,1016.15 1155.63,1016.3 1157.61,1016.61 1159.6,1016.61 1161.58,1016.67 1163.56,1016.79 1165.54,1017.04 1167.52,1017.53 1169.51,1017.53 1171.49,1017.62 1173.47,1017.82 1175.45,1018.2 1177.43,1018.2 1179.42,1018.28 1181.4,1018.44 1183.38,1018.74 1185.36,1018.74 1187.34,1018.81 1189.33,1018.93 1191.31,1019.17 1193.29,1019.66 1195.27,1019.66 1197.25,1019.76 1199.24,1019.95 1201.22,1020.34 1203.2,1020.34 1205.18,1020.42 1207.16,1020.57 1209.15,1020.88 1211.13,1020.88 1213.11,1020.94 1215.09,1021.07 1217.07,1021.31 1219.06,1021.8 1221.04,1021.8 1223.02,1021.9 1225,1022.1 1226.98,1022.48 1228.97,1022.48 1230.95,1022.56 1232.93,1022.72 1234.91,1023.02 1236.89,1023.02 1238.88,1023.09 1240.86,1023.21 1242.84,1023.46 1244.82,1023.94 1246.8,1023.94 1248.79,1024.04 1250.77,1024.24 1252.75,1024.63 1254.73,1024.63 1256.71,1024.7 1258.7,1024.86 1260.68,1025.17 1262.66,1025.17 1264.64,1025.23 1266.62,1025.35 1268.61,1025.6 1270.59,1026.09 1272.57,1026.09 1274.55,1026.19 1276.53,1026.38 1278.52,1026.77 1280.5,1026.77 1282.48,1026.85 1284.46,1027 1286.44,1027.31 1288.43,1027.31 1290.41,1027.38 1292.39,1027.5 1294.37,1027.75 1296.35,1028.24 1298.34,1028.24 1300.32,1028.33 1302.3,1028.53 1304.28,1028.92 1306.26,1028.92 1308.25,1029 1310.23,1029.15 1312.21,1029.46 1314.19,1029.46 1316.17,1029.52 1318.16,1029.65 1320.14,1029.89 1322.12,1030.39 1324.1,1030.39 1326.08,1030.48 1328.07,1030.68 1330.05,1031.07 1332.03,1031.07 1334.01,1031.15 1335.99,1031.3 1337.98,1031.61 1339.96,1031.61 1341.94,1031.67 1343.92,1031.8 1345.9,1032.04 1347.88,1032.04 1349.87,1032.09 1351.85,1032.19 1353.83,1032.39 1355.81,1032.78 1357.79,1032.78 1359.78,1032.86 1361.76,1033.02 1363.74,1033.33 1365.72,1033.33 1367.7,1033.39 1369.69,1033.52 1371.67,1033.76 1373.65,1033.76 1375.63,1033.81 1377.61,1033.91 1379.6,1034.11 1381.58,1034.5 1383.56,1034.5 1385.54,1034.58 1387.52,1034.74 1389.51,1035.05 1391.49,1035.05 1393.47,1035.12 1395.45,1035.24 1397.43,1035.49 1399.42,1035.49 1401.4,1035.54 1403.38,1035.64 1405.36,1035.84 1407.34,1036.24 1409.33,1036.24 1411.31,1036.32 1413.29,1036.47 1415.27,1036.79 1417.25,1036.79 1419.24,1036.85 1421.22,1036.98 1423.2,1037.23 1425.18,1037.23 1427.16,1037.28 1429.15,1037.38 1431.13,1037.58 1433.11,1037.98 1435.09,1037.98 1437.07,1038.06 1439.06,1038.22 1441.04,1038.53 1443.02,1038.53 1445,1038.6 1446.98,1038.72 1448.97,1038.97 1450.95,1038.97 1452.93,1039.03 1454.91,1039.13 1456.89,1039.33 1458.88,1039.73 1460.86,1039.73 1462.84,1039.81 1464.82,1039.97 1466.8,1040.29 1468.79,1040.29 1470.77,1040.35 1472.75,1040.48 1474.73,1040.73 1476.71,1040.73 1478.7,1040.78 1480.68,1040.88 1482.66,1041.08 1484.64,1041.49 1486.62,1041.49 1488.61,1041.57 1490.59,1041.73 1492.57,1042.05 1494.55,1042.05 1496.53,1042.11 1498.52,1042.24 1500.5,1042.5 1502.48,1042.5 1504.46,1042.55 1506.44,1042.65 1508.43,1042.85 1510.41,1043.26 1512.39,1043.26 1514.37,1043.34 1516.35,1043.5 1518.34,1043.82 1520.32,1043.82 1522.3,1043.88 1524.28,1044.01 1526.26,1044.27 1528.25,1044.27 1530.23,1044.32 1532.21,1044.42 1534.19,1044.63 1536.17,1045.03 1538.16,1045.03 1540.14,1045.11 1542.12,1045.28 1544.1,1045.6 1546.08,1045.6 1548.07,1045.66 1550.05,1045.79 1552.03,1046.05 1554.01,1046.05 1555.99,1046.1 1557.98,1046.21 1559.96,1046.41 1561.94,1046.82 1563.92,1046.82 1565.9,1046.9 1567.89,1047.06 1569.87,1047.39 1571.85,1047.39 1573.83,1047.45 1575.81,1047.58 1577.8,1047.84 1579.78,1047.84 1581.76,1047.89 1583.74,1048 1585.72,1048.2 1587.71,1048.61 1589.69,1048.61 1591.67,1048.7 1593.65,1048.86 1595.63,1049.19 1597.62,1049.19 1599.6,1049.25 1601.58,1049.38 1603.56,1049.64 1605.54,1049.64 1607.53,1049.69 1609.51,1049.8 1611.49,1050 1613.47,1050 1615.45,1050.05 1617.44,1050.13 1619.42,1050.29 1621.4,1050.62 1623.38,1050.62 1625.36,1050.69 1627.35,1050.82 1629.33,1051.08 1631.31,1051.08 1633.29,1051.13 1635.27,1051.24 1637.26,1051.45 1639.24,1051.45 1641.22,1051.49 1643.2,1051.57 1645.18,1051.74 1647.17,1052.07 1649.15,1052.07 1651.13,1052.14 1653.11,1052.27 1655.09,1052.53 1657.08,1052.53 1659.06,1052.59 1661.04,1052.69 1663.02,1052.9 1665,1052.9 1666.99,1052.95 1668.97,1053.03 1670.95,1053.2 1672.93,1053.53 1674.91,1053.53 1676.9,1053.6 1678.88,1053.73 1680.86,1054 1682.84,1054 1684.82,1054.05 1686.81,1054.16 1688.79,1054.37 1690.77,1054.37 1692.75,1054.41 1694.73,1054.5 1696.72,1054.67 1698.7,1055.01 1700.68,1055.01 1702.66,1055.07 1704.64,1055.21 1706.63,1055.48 1708.61,1055.48 1710.59,1055.53 1712.57,1055.64 1714.55,1055.85 1716.54,1055.85 1718.52,1055.89 1720.5,1055.98 1722.48,1056.15 1724.46,1056.49 1726.45,1056.49 1728.43,1056.56 1730.41,1056.7 1732.39,1056.97 1734.37,1056.97 1736.36,1057.02 1738.34,1057.13 1740.32,1057.34 1742.3,1057.34 1744.28,1057.39 1746.27,1057.47 1748.25,1057.65 1750.23,1057.99 1752.21,1057.99 1754.19,1058.06 1756.18,1058.19 1758.16,1058.47 1760.14,1058.47 1762.12,1058.52 1764.1,1058.63 1766.09,1058.85 1768.07,1058.85 1770.05,1058.89 1772.03,1058.98 1774.01,1059.15 1776,1059.5 1777.98,1059.5 1779.96,1059.57 1781.94,1059.7 1783.92,1059.98 1785.91,1059.98 1787.89,1060.03 1789.87,1060.14 1791.85,1060.36 1793.83,1060.36 1795.82,1060.41 1797.8,1060.49 1799.78,1060.67 1801.76,1061.02 1803.74,1061.02 1805.73,1061.09 1807.71,1061.23 1809.69,1061.5 1811.67,1061.5 1813.65,1061.56 1815.64,1061.67 1817.62,1061.89 1819.6,1061.89 1821.58,1061.93 1823.56,1062.02 1825.55,1062.2 1827.53,1062.55 1829.51,1062.55 1831.49,1062.62 1833.47,1062.76 1835.46,1063.04 1837.44,1063.04 1839.42,1063.1 1841.4,1063.21 1843.38,1063.43 1845.37,1063.43 1847.35,1063.47 1849.33,1063.56 1851.31,1063.74 1853.29,1063.74 1855.28,1063.78 1857.26,1063.85 1859.24,1063.99 1861.22,1064.27 1863.2,1064.27 1865.19,1064.33 1867.17,1064.44 1869.15,1064.66 1871.13,1064.66 1873.11,1064.71 1875.1,1064.8 1877.08,1064.98 1879.06,1064.98 1881.04,1065.01 1883.02,1065.09 1885.01,1065.23 1886.99,1065.51 1888.97,1065.51 1890.95,1065.57 1892.93,1065.68 1894.92,1065.91 1896.9,1065.91 1898.88,1065.96 1900.86,1066.05 1902.84,1066.23 1904.83,1066.23 1906.81,1066.27 1908.79,1066.34 1910.77,1066.48 1912.75,1066.77 1914.74,1066.77 1916.72,1066.83 1918.7,1066.94 1920.68,1067.17 1922.66,1067.17 1924.65,1067.22 1926.63,1067.31 1928.61,1067.49 1930.59,1067.49 1932.57,1067.53 1934.56,1067.6 1936.54,1067.75 1938.52,1068.04 1940.5,1068.04 1942.48,1068.1 1944.47,1068.22 1946.45,1068.45 1948.43,1068.45 1950.41,1068.49 1952.39,1068.59 1954.38,1068.77 1956.36,1068.77 1958.34,1068.81 1960.32,1068.88 1962.3,1069.03 1964.29,1069.32 1966.27,1069.32 1968.25,1069.38 1970.23,1069.5 1972.21,1069.73 1974.2,1069.73 1976.18,1069.78 1978.16,1069.87 1980.14,1070.06 1982.12,1070.06 1984.11,1070.1 1986.09,1070.17 1988.07,1070.32 1990.05,1070.62 1992.03,1070.62 1994.02,1070.68 1996,1070.8 1997.98,1071.03 1999.96,1071.03 2001.94,1071.08 2003.92,1071.18 2005.91,1071.37 2007.89,1071.37 2009.87,1071.4 2011.85,1071.48 2013.83,1071.63 2015.82,1071.93 2017.8,1071.93 2019.78,1071.99 2021.76,1072.11 2023.74,1072.35 2025.73,1072.35 2027.71,1072.4 2029.69,1072.49 2031.67,1072.68 2033.65,1072.68 2035.64,1072.72 2037.62,1072.8 2039.6,1072.95 2041.58,1073.25 2043.56,1073.25 2045.55,1073.31 2047.53,1073.43 2049.51,1073.67 2051.49,1073.67 2053.47,1073.72 2055.46,1073.82 2057.44,1074.01 2059.42,1074.01 2061.4,1074.05 2063.38,1074.13 2065.37,1074.28 2067.35,1074.59 2069.33,1074.59 2071.31,1074.65 2073.29,1074.77 2075.28,1075.01 2077.26,1075.01 2079.24,1075.06 2081.22,1075.16 2083.2,1075.35 2085.19,1075.35 2087.17,1075.39 2089.15,1075.47 2091.13,1075.62 2093.11,1075.62 2095.1,1075.66 2097.08,1075.72 2099.06,1075.84 2101.04,1076.09 2103.02,1076.09 2105.01,1076.14 2106.99,1076.24 2108.97,1076.43 2110.95,1076.43 2112.93,1076.47 2114.92,1076.55 2116.9,1076.71 2118.88,1076.71 2120.86,1076.74 2122.84,1076.8 2124.83,1076.93 2126.81,1077.18 2128.79,1077.18 2130.77,1077.23 2132.75,1077.33 2134.74,1077.52 2136.72,1077.52 2138.7,1077.56 2140.68,1077.64 2142.66,1077.8 2144.65,1077.8 2146.63,1077.83 2148.61,1077.9 2150.59,1078.02 2152.57,1078.28 2154.56,1078.28 2156.54,1078.33 2158.52,1078.43 2160.5,1078.63 2162.48,1078.63 2164.47,1078.67 2166.45,1078.75 2168.43,1078.91 2170.41,1078.91 2172.39,1078.94 2174.38,1079.01 2176.36,1079.14 2178.34,1079.39 2180.32,1079.39 2182.3,1079.44 2184.29,1079.55 2186.27,1079.75 2188.25,1079.75 2190.23,1079.79 2192.21,1079.87 2194.2,1080.03 2196.18,1080.03 2198.16,1080.07 2200.14,1080.13 2202.12,1080.26 2204.11,1080.52 2206.09,1080.52 2208.07,1080.57 2210.05,1080.68 2212.03,1080.88 2214.02,1080.88 2216,1080.92 2217.98,1081.01 2219.96,1081.17 2221.94,1081.17 2223.93,1081.2 2225.91,1081.27 2227.89,1081.4 2229.87,1081.66 2231.85,1081.66 2233.84,1081.71 2235.82,1081.82 2237.8,1082.03 2239.78,1082.03 2241.76,1082.07 2243.75,1082.15 2245.73,1082.32 2247.71,1082.32 2249.69,1082.35 2251.67,1082.42 2253.66,1082.55 2255.64,1082.82 2257.62,1082.82 2259.6,1082.87 2261.58,1082.98 2263.57,1083.19 2265.55,1083.19 2267.53,1083.23 2269.51,1083.31 2271.49,1083.48 2273.48,1083.48 2275.46,1083.52 2277.44,1083.58 2279.42,1083.72 2281.4,1083.98 2283.39,1083.98 2285.37,1084.04 2287.35,1084.15 2289.33,1084.36 2291.31,1084.36 2293.3,1084.4 "/>
<polyline clip-path="url(#clip252)" style="stroke:#c271d2; stroke-linecap:round; stroke-linejoin:round; stroke-width:4; stroke-opacity:1; fill:none" points="311.302,160.256 313.284,337.252 315.266,468.395 317.248,599.538 319.23,730.681 321.212,861.824 323.194,992.967 325.176,1124.11 327.158,1255.25 329.14,1386.4 "/>
<polyline clip-path="url(#clip252)" style="stroke:#ac8d18; stroke-linecap:round; stroke-linejoin:round; stroke-width:4; stroke-opacity:1; fill:none" points="311.302,160.256 313.284,337.252 315.266,468.395 317.248,599.538 319.23,730.681 321.212,861.824 323.194,992.967 325.176,1124.11 327.158,1255.25 329.14,1386.4 "/>
<path clip-path="url(#clip250)" d="M1749.53 477.836 L2282.73 477.836 L2282.73 166.796 L1749.53 166.796  Z" fill="#ffffff" fill-rule="evenodd" fill-opacity="1"/>
<polyline clip-path="url(#clip250)" style="stroke:#000000; stroke-linecap:round; stroke-linejoin:round; stroke-width:4; stroke-opacity:1; fill:none" points="1749.53,477.836 2282.73,477.836 2282.73,166.796 1749.53,166.796 1749.53,477.836 "/>
<polyline clip-path="url(#clip250)" style="stroke:#009af9; stroke-linecap:round; stroke-linejoin:round; stroke-width:4; stroke-opacity:1; fill:none" points="1772.88,218.636 1912.94,218.636 "/>
<path clip-path="url(#clip250)" d="M1936.28 201.356 L1940.96 201.356 L1940.96 231.981 L1957.79 231.981 L1957.79 235.916 L1936.28 235.916 L1936.28 201.356 Z" fill="#000000" fill-rule="nonzero" fill-opacity="1" /><path clip-path="url(#clip250)" d="M1962.69 201.356 L1969.66 201.356 L1978.48 224.874 L1987.35 201.356 L1994.31 201.356 L1994.31 235.916 L1989.75 235.916 L1989.75 205.569 L1980.84 229.272 L1976.14 229.272 L1967.23 205.569 L1967.23 235.916 L1962.69 235.916 L1962.69 201.356 Z" fill="#000000" fill-rule="nonzero" fill-opacity="1" /><path clip-path="url(#clip250)" d="M2023.11 243.786 L2023.11 247.096 L1998.48 247.096 L1998.48 243.786 L2023.11 243.786 Z" fill="#000000" fill-rule="nonzero" fill-opacity="1" /><path clip-path="url(#clip250)" d="M2048.02 202.49 L2048.02 207.05 Q2045.36 205.777 2042.99 205.152 Q2040.63 204.527 2038.43 204.527 Q2034.61 204.527 2032.53 206.008 Q2030.47 207.49 2030.47 210.221 Q2030.47 212.513 2031.84 213.694 Q2033.23 214.851 2037.07 215.569 L2039.89 216.147 Q2045.12 217.143 2047.6 219.666 Q2050.1 222.166 2050.1 226.379 Q2050.1 231.402 2046.72 233.994 Q2043.36 236.587 2036.86 236.587 Q2034.41 236.587 2031.63 236.031 Q2028.87 235.476 2025.91 234.388 L2025.91 229.573 Q2028.76 231.17 2031.49 231.981 Q2034.22 232.791 2036.86 232.791 Q2040.86 232.791 2043.04 231.217 Q2045.22 229.643 2045.22 226.726 Q2045.22 224.18 2043.64 222.744 Q2042.09 221.309 2038.53 220.592 L2035.68 220.036 Q2030.45 218.995 2028.11 216.772 Q2025.77 214.55 2025.77 210.592 Q2025.77 206.008 2028.99 203.37 Q2032.23 200.731 2037.9 200.731 Q2040.33 200.731 2042.86 201.171 Q2045.38 201.61 2048.02 202.49 Z" fill="#000000" fill-rule="nonzero" fill-opacity="1" /><path clip-path="url(#clip250)" d="M2062.07 205.198 L2062.07 218.184 L2067.95 218.184 Q2071.21 218.184 2072.99 216.495 Q2074.78 214.805 2074.78 211.68 Q2074.78 208.578 2072.99 206.888 Q2071.21 205.198 2067.95 205.198 L2062.07 205.198 M2057.39 201.356 L2067.95 201.356 Q2073.76 201.356 2076.72 203.995 Q2079.71 206.61 2079.71 211.68 Q2079.71 216.795 2076.72 219.411 Q2073.76 222.027 2067.95 222.027 L2062.07 222.027 L2062.07 235.916 L2057.39 235.916 L2057.39 201.356 Z" fill="#000000" fill-rule="nonzero" fill-opacity="1" /><path clip-path="url(#clip250)" d="M2109.54 230.985 L2109.54 221.703 L2101.91 221.703 L2101.91 217.86 L2114.17 217.86 L2114.17 232.698 Q2111.47 234.619 2108.2 235.615 Q2104.94 236.587 2101.23 236.587 Q2093.13 236.587 2088.55 231.865 Q2083.99 227.119 2083.99 218.67 Q2083.99 210.198 2088.55 205.476 Q2093.13 200.731 2101.23 200.731 Q2104.61 200.731 2107.65 201.564 Q2110.7 202.397 2113.27 204.018 L2113.27 208.995 Q2110.68 206.796 2107.76 205.684 Q2104.85 204.573 2101.63 204.573 Q2095.29 204.573 2092.09 208.115 Q2088.92 211.657 2088.92 218.67 Q2088.92 225.661 2092.09 229.203 Q2095.29 232.744 2101.63 232.744 Q2104.11 232.744 2106.05 232.328 Q2107.99 231.888 2109.54 230.985 Z" fill="#000000" fill-rule="nonzero" fill-opacity="1" /><polyline clip-path="url(#clip250)" style="stroke:#e26f46; stroke-linecap:round; stroke-linejoin:round; stroke-width:4; stroke-opacity:1; fill:none" points="1772.88,270.476 1912.94,270.476 "/>
<path clip-path="url(#clip250)" d="M1936.28 253.196 L1940.96 253.196 L1940.96 283.821 L1957.79 283.821 L1957.79 287.756 L1936.28 287.756 L1936.28 253.196 Z" fill="#000000" fill-rule="nonzero" fill-opacity="1" /><path clip-path="url(#clip250)" d="M1962.69 253.196 L1969.66 253.196 L1978.48 276.714 L1987.35 253.196 L1994.31 253.196 L1994.31 287.756 L1989.75 287.756 L1989.75 257.409 L1980.84 281.112 L1976.14 281.112 L1967.23 257.409 L1967.23 287.756 L1962.69 287.756 L1962.69 253.196 Z" fill="#000000" fill-rule="nonzero" fill-opacity="1" /><path clip-path="url(#clip250)" d="M2023.11 295.626 L2023.11 298.936 L1998.48 298.936 L1998.48 295.626 L2023.11 295.626 Z" fill="#000000" fill-rule="nonzero" fill-opacity="1" /><path clip-path="url(#clip250)" d="M2038.85 257.802 L2032.51 275.001 L2045.22 275.001 L2038.85 257.802 M2036.21 253.196 L2041.51 253.196 L2054.68 287.756 L2049.82 287.756 L2046.67 278.89 L2031.1 278.89 L2027.95 287.756 L2023.02 287.756 L2036.21 253.196 Z" fill="#000000" fill-rule="nonzero" fill-opacity="1" /><path clip-path="url(#clip250)" d="M2081.1 272.108 L2081.1 287.756 L2076.84 287.756 L2076.84 272.247 Q2076.84 268.566 2075.4 266.737 Q2073.97 264.909 2071.1 264.909 Q2067.65 264.909 2065.66 267.108 Q2063.67 269.307 2063.67 273.103 L2063.67 287.756 L2059.38 287.756 L2059.38 261.83 L2063.67 261.83 L2063.67 265.858 Q2065.19 263.52 2067.25 262.362 Q2069.34 261.205 2072.05 261.205 Q2076.51 261.205 2078.8 263.983 Q2081.1 266.737 2081.1 272.108 Z" fill="#000000" fill-rule="nonzero" fill-opacity="1" /><path clip-path="url(#clip250)" d="M2106.65 265.765 L2106.65 251.737 L2110.91 251.737 L2110.91 287.756 L2106.65 287.756 L2106.65 283.867 Q2105.31 286.182 2103.25 287.316 Q2101.21 288.427 2098.34 288.427 Q2093.64 288.427 2090.68 284.677 Q2087.74 280.927 2087.74 274.816 Q2087.74 268.705 2090.68 264.955 Q2093.64 261.205 2098.34 261.205 Q2101.21 261.205 2103.25 262.339 Q2105.31 263.45 2106.65 265.765 M2092.14 274.816 Q2092.14 279.515 2094.06 282.2 Q2096 284.862 2099.38 284.862 Q2102.76 284.862 2104.71 282.2 Q2106.65 279.515 2106.65 274.816 Q2106.65 270.117 2104.71 267.455 Q2102.76 264.77 2099.38 264.77 Q2096 264.77 2094.06 267.455 Q2092.14 270.117 2092.14 274.816 Z" fill="#000000" fill-rule="nonzero" fill-opacity="1" /><path clip-path="url(#clip250)" d="M2134.71 265.811 Q2133.99 265.395 2133.13 265.21 Q2132.3 265.001 2131.28 265.001 Q2127.67 265.001 2125.73 267.362 Q2123.8 269.7 2123.8 274.098 L2123.8 287.756 L2119.52 287.756 L2119.52 261.83 L2123.8 261.83 L2123.8 265.858 Q2125.15 263.497 2127.3 262.362 Q2129.45 261.205 2132.53 261.205 Q2132.97 261.205 2133.5 261.274 Q2134.04 261.321 2134.68 261.436 L2134.71 265.811 Z" fill="#000000" fill-rule="nonzero" fill-opacity="1" /><path clip-path="url(#clip250)" d="M2160.31 273.728 L2160.31 275.811 L2140.73 275.811 Q2141 280.209 2143.36 282.524 Q2145.75 284.816 2149.98 284.816 Q2152.44 284.816 2154.73 284.214 Q2157.04 283.612 2159.31 282.409 L2159.31 286.436 Q2157.02 287.408 2154.61 287.918 Q2152.21 288.427 2149.73 288.427 Q2143.53 288.427 2139.89 284.816 Q2136.28 281.205 2136.28 275.047 Q2136.28 268.682 2139.71 264.955 Q2143.16 261.205 2148.99 261.205 Q2154.22 261.205 2157.25 264.585 Q2160.31 267.941 2160.31 273.728 M2156.05 272.478 Q2156 268.983 2154.08 266.899 Q2152.18 264.816 2149.04 264.816 Q2145.47 264.816 2143.32 266.83 Q2141.19 268.844 2140.86 272.501 L2156.05 272.478 Z" fill="#000000" fill-rule="nonzero" fill-opacity="1" /><path clip-path="url(#clip250)" d="M2167.3 261.83 L2171.56 261.83 L2171.56 287.756 L2167.3 287.756 L2167.3 261.83 M2167.3 251.737 L2171.56 251.737 L2171.56 257.131 L2167.3 257.131 L2167.3 251.737 Z" fill="#000000" fill-rule="nonzero" fill-opacity="1" /><path clip-path="url(#clip250)" d="M2200.17 295.626 L2200.17 298.936 L2175.54 298.936 L2175.54 295.626 L2200.17 295.626 Z" fill="#000000" fill-rule="nonzero" fill-opacity="1" /><path clip-path="url(#clip250)" d="M2215.96 274.723 Q2210.79 274.723 2208.8 275.904 Q2206.81 277.084 2206.81 279.932 Q2206.81 282.2 2208.29 283.543 Q2209.8 284.862 2212.37 284.862 Q2215.91 284.862 2218.04 282.362 Q2220.19 279.839 2220.19 275.672 L2220.19 274.723 L2215.96 274.723 M2224.45 272.964 L2224.45 287.756 L2220.19 287.756 L2220.19 283.821 Q2218.73 286.182 2216.56 287.316 Q2214.38 288.427 2211.23 288.427 Q2207.25 288.427 2204.89 286.205 Q2202.55 283.959 2202.55 280.209 Q2202.55 275.834 2205.47 273.612 Q2208.41 271.39 2214.22 271.39 L2220.19 271.39 L2220.19 270.973 Q2220.19 268.034 2218.25 266.436 Q2216.33 264.816 2212.83 264.816 Q2210.61 264.816 2208.5 265.348 Q2206.4 265.881 2204.45 266.946 L2204.45 263.01 Q2206.79 262.108 2208.99 261.668 Q2211.19 261.205 2213.27 261.205 Q2218.9 261.205 2221.67 264.122 Q2224.45 267.038 2224.45 272.964 Z" fill="#000000" fill-rule="nonzero" fill-opacity="1" /><path clip-path="url(#clip250)" d="M2233.22 251.737 L2237.48 251.737 L2237.48 287.756 L2233.22 287.756 L2233.22 251.737 Z" fill="#000000" fill-rule="nonzero" fill-opacity="1" /><path clip-path="url(#clip250)" d="M2250.61 254.469 L2250.61 261.83 L2259.38 261.83 L2259.38 265.14 L2250.61 265.14 L2250.61 279.214 Q2250.61 282.385 2251.47 283.288 Q2252.34 284.191 2255.01 284.191 L2259.38 284.191 L2259.38 287.756 L2255.01 287.756 Q2250.08 287.756 2248.2 285.927 Q2246.33 284.075 2246.33 279.214 L2246.33 265.14 L2243.2 265.14 L2243.2 261.83 L2246.33 261.83 L2246.33 254.469 L2250.61 254.469 Z" fill="#000000" fill-rule="nonzero" fill-opacity="1" /><polyline clip-path="url(#clip250)" style="stroke:#3da44d; stroke-linecap:round; stroke-linejoin:round; stroke-width:4; stroke-opacity:1; fill:none" points="1772.88,322.316 1912.94,322.316 "/>
<path clip-path="url(#clip250)" d="M1936.28 305.036 L1940.96 305.036 L1940.96 335.661 L1957.79 335.661 L1957.79 339.596 L1936.28 339.596 L1936.28 305.036 Z" fill="#000000" fill-rule="nonzero" fill-opacity="1" /><path clip-path="url(#clip250)" d="M1962.69 305.036 L1969.66 305.036 L1978.48 328.554 L1987.35 305.036 L1994.31 305.036 L1994.31 339.596 L1989.75 339.596 L1989.75 309.249 L1980.84 332.952 L1976.14 332.952 L1967.23 309.249 L1967.23 339.596 L1962.69 339.596 L1962.69 305.036 Z" fill="#000000" fill-rule="nonzero" fill-opacity="1" /><path clip-path="url(#clip250)" d="M2023.11 347.466 L2023.11 350.776 L1998.48 350.776 L1998.48 347.466 L2023.11 347.466 Z" fill="#000000" fill-rule="nonzero" fill-opacity="1" /><path clip-path="url(#clip250)" d="M2038.85 309.642 L2032.51 326.841 L2045.22 326.841 L2038.85 309.642 M2036.21 305.036 L2041.51 305.036 L2054.68 339.596 L2049.82 339.596 L2046.67 330.73 L2031.1 330.73 L2027.95 339.596 L2023.02 339.596 L2036.21 305.036 Z" fill="#000000" fill-rule="nonzero" fill-opacity="1" /><path clip-path="url(#clip250)" d="M2081.1 323.948 L2081.1 339.596 L2076.84 339.596 L2076.84 324.087 Q2076.84 320.406 2075.4 318.577 Q2073.97 316.749 2071.1 316.749 Q2067.65 316.749 2065.66 318.948 Q2063.67 321.147 2063.67 324.943 L2063.67 339.596 L2059.38 339.596 L2059.38 313.67 L2063.67 313.67 L2063.67 317.698 Q2065.19 315.36 2067.25 314.202 Q2069.34 313.045 2072.05 313.045 Q2076.51 313.045 2078.8 315.823 Q2081.1 318.577 2081.1 323.948 Z" fill="#000000" fill-rule="nonzero" fill-opacity="1" /><path clip-path="url(#clip250)" d="M2106.65 317.605 L2106.65 303.577 L2110.91 303.577 L2110.91 339.596 L2106.65 339.596 L2106.65 335.707 Q2105.31 338.022 2103.25 339.156 Q2101.21 340.267 2098.34 340.267 Q2093.64 340.267 2090.68 336.517 Q2087.74 332.767 2087.74 326.656 Q2087.74 320.545 2090.68 316.795 Q2093.64 313.045 2098.34 313.045 Q2101.21 313.045 2103.25 314.179 Q2105.31 315.29 2106.65 317.605 M2092.14 326.656 Q2092.14 331.355 2094.06 334.04 Q2096 336.702 2099.38 336.702 Q2102.76 336.702 2104.71 334.04 Q2106.65 331.355 2106.65 326.656 Q2106.65 321.957 2104.71 319.295 Q2102.76 316.61 2099.38 316.61 Q2096 316.61 2094.06 319.295 Q2092.14 321.957 2092.14 326.656 Z" fill="#000000" fill-rule="nonzero" fill-opacity="1" /><path clip-path="url(#clip250)" d="M2134.71 317.651 Q2133.99 317.235 2133.13 317.05 Q2132.3 316.841 2131.28 316.841 Q2127.67 316.841 2125.73 319.202 Q2123.8 321.54 2123.8 325.938 L2123.8 339.596 L2119.52 339.596 L2119.52 313.67 L2123.8 313.67 L2123.8 317.698 Q2125.15 315.337 2127.3 314.202 Q2129.45 313.045 2132.53 313.045 Q2132.97 313.045 2133.5 313.114 Q2134.04 313.161 2134.68 313.276 L2134.71 317.651 Z" fill="#000000" fill-rule="nonzero" fill-opacity="1" /><path clip-path="url(#clip250)" d="M2160.31 325.568 L2160.31 327.651 L2140.73 327.651 Q2141 332.049 2143.36 334.364 Q2145.75 336.656 2149.98 336.656 Q2152.44 336.656 2154.73 336.054 Q2157.04 335.452 2159.31 334.249 L2159.31 338.276 Q2157.02 339.248 2154.61 339.758 Q2152.21 340.267 2149.73 340.267 Q2143.53 340.267 2139.89 336.656 Q2136.28 333.045 2136.28 326.887 Q2136.28 320.522 2139.71 316.795 Q2143.16 313.045 2148.99 313.045 Q2154.22 313.045 2157.25 316.425 Q2160.31 319.781 2160.31 325.568 M2156.05 324.318 Q2156 320.823 2154.08 318.739 Q2152.18 316.656 2149.04 316.656 Q2145.47 316.656 2143.32 318.67 Q2141.19 320.684 2140.86 324.341 L2156.05 324.318 Z" fill="#000000" fill-rule="nonzero" fill-opacity="1" /><path clip-path="url(#clip250)" d="M2167.3 313.67 L2171.56 313.67 L2171.56 339.596 L2167.3 339.596 L2167.3 313.67 M2167.3 303.577 L2171.56 303.577 L2171.56 308.971 L2167.3 308.971 L2167.3 303.577 Z" fill="#000000" fill-rule="nonzero" fill-opacity="1" /><polyline clip-path="url(#clip250)" style="stroke:#c271d2; stroke-linecap:round; stroke-linejoin:round; stroke-width:4; stroke-opacity:1; fill:none" points="1772.88,374.156 1912.94,374.156 "/>
<path clip-path="url(#clip250)" d="M1936.28 356.876 L1940.96 356.876 L1940.96 387.501 L1957.79 387.501 L1957.79 391.436 L1936.28 391.436 L1936.28 356.876 Z" fill="#000000" fill-rule="nonzero" fill-opacity="1" /><path clip-path="url(#clip250)" d="M1962.69 356.876 L1969.66 356.876 L1978.48 380.394 L1987.35 356.876 L1994.31 356.876 L1994.31 391.436 L1989.75 391.436 L1989.75 361.089 L1980.84 384.792 L1976.14 384.792 L1967.23 361.089 L1967.23 391.436 L1962.69 391.436 L1962.69 356.876 Z" fill="#000000" fill-rule="nonzero" fill-opacity="1" /><path clip-path="url(#clip250)" d="M2023.11 399.306 L2023.11 402.616 L1998.48 402.616 L1998.48 399.306 L2023.11 399.306 Z" fill="#000000" fill-rule="nonzero" fill-opacity="1" /><path clip-path="url(#clip250)" d="M2048.02 358.01 L2048.02 362.57 Q2045.36 361.297 2042.99 360.672 Q2040.63 360.047 2038.43 360.047 Q2034.61 360.047 2032.53 361.528 Q2030.47 363.01 2030.47 365.741 Q2030.47 368.033 2031.84 369.214 Q2033.23 370.371 2037.07 371.089 L2039.89 371.667 Q2045.12 372.663 2047.6 375.186 Q2050.1 377.686 2050.1 381.899 Q2050.1 386.922 2046.72 389.514 Q2043.36 392.107 2036.86 392.107 Q2034.41 392.107 2031.63 391.551 Q2028.87 390.996 2025.91 389.908 L2025.91 385.093 Q2028.76 386.69 2031.49 387.501 Q2034.22 388.311 2036.86 388.311 Q2040.86 388.311 2043.04 386.737 Q2045.22 385.163 2045.22 382.246 Q2045.22 379.7 2043.64 378.264 Q2042.09 376.829 2038.53 376.112 L2035.68 375.556 Q2030.45 374.515 2028.11 372.292 Q2025.77 370.07 2025.77 366.112 Q2025.77 361.528 2028.99 358.89 Q2032.23 356.251 2037.9 356.251 Q2040.33 356.251 2042.86 356.691 Q2045.38 357.13 2048.02 358.01 Z" fill="#000000" fill-rule="nonzero" fill-opacity="1" /><path clip-path="url(#clip250)" d="M2062.07 360.718 L2062.07 373.704 L2067.95 373.704 Q2071.21 373.704 2072.99 372.015 Q2074.78 370.325 2074.78 367.2 Q2074.78 364.098 2072.99 362.408 Q2071.21 360.718 2067.95 360.718 L2062.07 360.718 M2057.39 356.876 L2067.95 356.876 Q2073.76 356.876 2076.72 359.515 Q2079.71 362.13 2079.71 367.2 Q2079.71 372.315 2076.72 374.931 Q2073.76 377.547 2067.95 377.547 L2062.07 377.547 L2062.07 391.436 L2057.39 391.436 L2057.39 356.876 Z" fill="#000000" fill-rule="nonzero" fill-opacity="1" /><path clip-path="url(#clip250)" d="M2109.54 386.505 L2109.54 377.223 L2101.91 377.223 L2101.91 373.38 L2114.17 373.38 L2114.17 388.218 Q2111.47 390.139 2108.2 391.135 Q2104.94 392.107 2101.23 392.107 Q2093.13 392.107 2088.55 387.385 Q2083.99 382.639 2083.99 374.19 Q2083.99 365.718 2088.55 360.996 Q2093.13 356.251 2101.23 356.251 Q2104.61 356.251 2107.65 357.084 Q2110.7 357.917 2113.27 359.538 L2113.27 364.515 Q2110.68 362.316 2107.76 361.204 Q2104.85 360.093 2101.63 360.093 Q2095.29 360.093 2092.09 363.635 Q2088.92 367.177 2088.92 374.19 Q2088.92 381.181 2092.09 384.723 Q2095.29 388.264 2101.63 388.264 Q2104.11 388.264 2106.05 387.848 Q2107.99 387.408 2109.54 386.505 Z" fill="#000000" fill-rule="nonzero" fill-opacity="1" /><path clip-path="url(#clip250)" d="M2142.23 399.306 L2142.23 402.616 L2117.6 402.616 L2117.6 399.306 L2142.23 399.306 Z" fill="#000000" fill-rule="nonzero" fill-opacity="1" /><path clip-path="url(#clip250)" d="M2158.02 378.403 Q2152.85 378.403 2150.86 379.584 Q2148.87 380.764 2148.87 383.612 Q2148.87 385.88 2150.35 387.223 Q2151.86 388.542 2154.43 388.542 Q2157.97 388.542 2160.1 386.042 Q2162.25 383.519 2162.25 379.352 L2162.25 378.403 L2158.02 378.403 M2166.51 376.644 L2166.51 391.436 L2162.25 391.436 L2162.25 387.501 Q2160.79 389.862 2158.62 390.996 Q2156.44 392.107 2153.29 392.107 Q2149.31 392.107 2146.95 389.885 Q2144.61 387.639 2144.61 383.889 Q2144.61 379.514 2147.53 377.292 Q2150.47 375.07 2156.28 375.07 L2162.25 375.07 L2162.25 374.653 Q2162.25 371.714 2160.31 370.116 Q2158.39 368.496 2154.89 368.496 Q2152.67 368.496 2150.56 369.028 Q2148.46 369.561 2146.51 370.626 L2146.51 366.69 Q2148.85 365.788 2151.05 365.348 Q2153.25 364.885 2155.33 364.885 Q2160.96 364.885 2163.73 367.802 Q2166.51 370.718 2166.51 376.644 Z" fill="#000000" fill-rule="nonzero" fill-opacity="1" /><path clip-path="url(#clip250)" d="M2175.29 355.417 L2179.54 355.417 L2179.54 391.436 L2175.29 391.436 L2175.29 355.417 Z" fill="#000000" fill-rule="nonzero" fill-opacity="1" /><path clip-path="url(#clip250)" d="M2192.67 358.149 L2192.67 365.51 L2201.44 365.51 L2201.44 368.82 L2192.67 368.82 L2192.67 382.894 Q2192.67 386.065 2193.53 386.968 Q2194.41 387.871 2197.07 387.871 L2201.44 387.871 L2201.44 391.436 L2197.07 391.436 Q2192.14 391.436 2190.26 389.607 Q2188.39 387.755 2188.39 382.894 L2188.39 368.82 L2185.26 368.82 L2185.26 365.51 L2188.39 365.51 L2188.39 358.149 L2192.67 358.149 Z" fill="#000000" fill-rule="nonzero" fill-opacity="1" /><polyline clip-path="url(#clip250)" style="stroke:#ac8d18; stroke-linecap:round; stroke-linejoin:round; stroke-width:4; stroke-opacity:1; fill:none" points="1772.88,425.996 1912.94,425.996 "/>
<path clip-path="url(#clip250)" d="M1936.28 408.716 L1940.96 408.716 L1940.96 439.341 L1957.79 439.341 L1957.79 443.276 L1936.28 443.276 L1936.28 408.716 Z" fill="#000000" fill-rule="nonzero" fill-opacity="1" /><path clip-path="url(#clip250)" d="M1962.69 408.716 L1969.66 408.716 L1978.48 432.234 L1987.35 408.716 L1994.31 408.716 L1994.31 443.276 L1989.75 443.276 L1989.75 412.929 L1980.84 436.632 L1976.14 436.632 L1967.23 412.929 L1967.23 443.276 L1962.69 443.276 L1962.69 408.716 Z" fill="#000000" fill-rule="nonzero" fill-opacity="1" /></svg>
