<?xml version="1.0" encoding="utf-8"?>
<svg xmlns="http://www.w3.org/2000/svg" xmlns:xlink="http://www.w3.org/1999/xlink" width="600" height="400" viewBox="0 0 2400 1600">
<defs>
  <clipPath id="clip250">
    <rect x="0" y="0" width="2400" height="1600"/>
  </clipPath>
</defs>
<path clip-path="url(#clip250)" d="M0 1600 L2400 1600 L2400 0 L0 0  Z" fill="#ffffff" fill-rule="evenodd" fill-opacity="1"/>
<defs>
  <clipPath id="clip251">
    <rect x="480" y="0" width="1681" height="1600"/>
  </clipPath>
</defs>
<path clip-path="url(#clip250)" d="M244.451 1423.18 L2352.76 1423.18 L2352.76 123.472 L244.451 123.472  Z" fill="#ffffff" fill-rule="evenodd" fill-opacity="1"/>
<defs>
  <clipPath id="clip252">
    <rect x="244" y="123" width="2109" height="1301"/>
  </clipPath>
</defs>
<polyline clip-path="url(#clip252)" style="stroke:#000000; stroke-linecap:round; stroke-linejoin:round; stroke-width:2; stroke-opacity:0.1; fill:none" points="297.016,1423.18 297.016,123.472 "/>
<polyline clip-path="url(#clip252)" style="stroke:#000000; stroke-linecap:round; stroke-linejoin:round; stroke-width:2; stroke-opacity:0.1; fill:none" points="652.189,1423.18 652.189,123.472 "/>
<polyline clip-path="url(#clip252)" style="stroke:#000000; stroke-linecap:round; stroke-linejoin:round; stroke-width:2; stroke-opacity:0.1; fill:none" points="1007.36,1423.18 1007.36,123.472 "/>
<polyline clip-path="url(#clip252)" style="stroke:#000000; stroke-linecap:round; stroke-linejoin:round; stroke-width:2; stroke-opacity:0.1; fill:none" points="1362.53,1423.18 1362.53,123.472 "/>
<polyline clip-path="url(#clip252)" style="stroke:#000000; stroke-linecap:round; stroke-linejoin:round; stroke-width:2; stroke-opacity:0.1; fill:none" points="1717.71,1423.18 1717.71,123.472 "/>
<polyline clip-path="url(#clip252)" style="stroke:#000000; stroke-linecap:round; stroke-linejoin:round; stroke-width:2; stroke-opacity:0.1; fill:none" points="2072.88,1423.18 2072.88,123.472 "/>
<polyline clip-path="url(#clip250)" style="stroke:#000000; stroke-linecap:round; stroke-linejoin:round; stroke-width:4; stroke-opacity:1; fill:none" points="244.451,1423.18 2352.76,1423.18 "/>
<polyline clip-path="url(#clip250)" style="stroke:#000000; stroke-linecap:round; stroke-linejoin:round; stroke-width:4; stroke-opacity:1; fill:none" points="297.016,1423.18 297.016,1404.28 "/>
<polyline clip-path="url(#clip250)" style="stroke:#000000; stroke-linecap:round; stroke-linejoin:round; stroke-width:4; stroke-opacity:1; fill:none" points="652.189,1423.18 652.189,1404.28 "/>
<polyline clip-path="url(#clip250)" style="stroke:#000000; stroke-linecap:round; stroke-linejoin:round; stroke-width:4; stroke-opacity:1; fill:none" points="1007.36,1423.18 1007.36,1404.28 "/>
<polyline clip-path="url(#clip250)" style="stroke:#000000; stroke-linecap:round; stroke-linejoin:round; stroke-width:4; stroke-opacity:1; fill:none" points="1362.53,1423.18 1362.53,1404.28 "/>
<polyline clip-path="url(#clip250)" style="stroke:#000000; stroke-linecap:round; stroke-linejoin:round; stroke-width:4; stroke-opacity:1; fill:none" points="1717.71,1423.18 1717.71,1404.28 "/>
<polyline clip-path="url(#clip250)" style="stroke:#000000; stroke-linecap:round; stroke-linejoin:round; stroke-width:4; stroke-opacity:1; fill:none" points="2072.88,1423.18 2072.88,1404.28 "/>
<path clip-path="url(#clip250)" d="M297.016 1454.1 Q293.405 1454.1 291.577 1457.66 Q289.771 1461.2 289.771 1468.33 Q289.771 1475.44 291.577 1479.01 Q293.405 1482.55 297.016 1482.55 Q300.651 1482.55 302.456 1479.01 Q304.285 1475.44 304.285 1468.33 Q304.285 1461.2 302.456 1457.66 Q300.651 1454.1 297.016 1454.1 M297.016 1450.39 Q302.827 1450.39 305.882 1455 Q308.961 1459.58 308.961 1468.33 Q308.961 1477.06 305.882 1481.67 Q302.827 1486.25 297.016 1486.25 Q291.206 1486.25 288.128 1481.67 Q285.072 1477.06 285.072 1468.33 Q285.072 1459.58 288.128 1455 Q291.206 1450.39 297.016 1450.39 Z" fill="#000000" fill-rule="nonzero" fill-opacity="1" /><path clip-path="url(#clip250)" d="M626.888 1451.02 L645.245 1451.02 L645.245 1454.96 L631.171 1454.96 L631.171 1463.43 Q632.189 1463.08 633.208 1462.92 Q634.226 1462.73 635.245 1462.73 Q641.032 1462.73 644.411 1465.9 Q647.791 1469.08 647.791 1474.49 Q647.791 1480.07 644.319 1483.17 Q640.847 1486.25 634.527 1486.25 Q632.351 1486.25 630.083 1485.88 Q627.837 1485.51 625.43 1484.77 L625.43 1480.07 Q627.513 1481.2 629.736 1481.76 Q631.958 1482.32 634.435 1482.32 Q638.439 1482.32 640.777 1480.21 Q643.115 1478.1 643.115 1474.49 Q643.115 1470.88 640.777 1468.77 Q638.439 1466.67 634.435 1466.67 Q632.56 1466.67 630.685 1467.08 Q628.833 1467.5 626.888 1468.38 L626.888 1451.02 Z" fill="#000000" fill-rule="nonzero" fill-opacity="1" /><path clip-path="url(#clip250)" d="M667.004 1454.1 Q663.393 1454.1 661.564 1457.66 Q659.759 1461.2 659.759 1468.33 Q659.759 1475.44 661.564 1479.01 Q663.393 1482.55 667.004 1482.55 Q670.638 1482.55 672.444 1479.01 Q674.272 1475.44 674.272 1468.33 Q674.272 1461.2 672.444 1457.66 Q670.638 1454.1 667.004 1454.1 M667.004 1450.39 Q672.814 1450.39 675.87 1455 Q678.948 1459.58 678.948 1468.33 Q678.948 1477.06 675.87 1481.67 Q672.814 1486.25 667.004 1486.25 Q661.194 1486.25 658.115 1481.67 Q655.059 1477.06 655.059 1468.33 Q655.059 1459.58 658.115 1455 Q661.194 1450.39 667.004 1450.39 Z" fill="#000000" fill-rule="nonzero" fill-opacity="1" /><path clip-path="url(#clip250)" d="M966.969 1481.64 L974.607 1481.64 L974.607 1455.28 L966.297 1456.95 L966.297 1452.69 L974.561 1451.02 L979.237 1451.02 L979.237 1481.64 L986.876 1481.64 L986.876 1485.58 L966.969 1485.58 L966.969 1481.64 Z" fill="#000000" fill-rule="nonzero" fill-opacity="1" /><path clip-path="url(#clip250)" d="M1006.32 1454.1 Q1002.71 1454.1 1000.88 1457.66 Q999.075 1461.2 999.075 1468.33 Q999.075 1475.44 1000.88 1479.01 Q1002.71 1482.55 1006.32 1482.55 Q1009.95 1482.55 1011.76 1479.01 Q1013.59 1475.44 1013.59 1468.33 Q1013.59 1461.2 1011.76 1457.66 Q1009.95 1454.1 1006.32 1454.1 M1006.32 1450.39 Q1012.13 1450.39 1015.19 1455 Q1018.26 1459.58 1018.26 1468.33 Q1018.26 1477.06 1015.19 1481.67 Q1012.13 1486.25 1006.32 1486.25 Q1000.51 1486.25 997.431 1481.67 Q994.376 1477.06 994.376 1468.33 Q994.376 1459.58 997.431 1455 Q1000.51 1450.39 1006.32 1450.39 Z" fill="#000000" fill-rule="nonzero" fill-opacity="1" /><path clip-path="url(#clip250)" d="M1036.48 1454.1 Q1032.87 1454.1 1031.04 1457.66 Q1029.24 1461.2 1029.24 1468.33 Q1029.24 1475.44 1031.04 1479.01 Q1032.87 1482.55 1036.48 1482.55 Q1040.12 1482.55 1041.92 1479.01 Q1043.75 1475.44 1043.75 1468.33 Q1043.75 1461.2 1041.92 1457.66 Q1040.12 1454.1 1036.48 1454.1 M1036.48 1450.39 Q1042.29 1450.39 1045.35 1455 Q1048.43 1459.58 1048.43 1468.33 Q1048.43 1477.06 1045.35 1481.67 Q1042.29 1486.25 1036.48 1486.25 Q1030.67 1486.25 1027.59 1481.67 Q1024.54 1477.06 1024.54 1468.33 Q1024.54 1459.58 1027.59 1455 Q1030.67 1450.39 1036.48 1450.39 Z" fill="#000000" fill-rule="nonzero" fill-opacity="1" /><path clip-path="url(#clip250)" d="M1322.14 1481.64 L1329.78 1481.64 L1329.78 1455.28 L1321.47 1456.95 L1321.47 1452.69 L1329.73 1451.02 L1334.41 1451.02 L1334.41 1481.64 L1342.05 1481.64 L1342.05 1485.58 L1322.14 1485.58 L1322.14 1481.64 Z" fill="#000000" fill-rule="nonzero" fill-opacity="1" /><path clip-path="url(#clip250)" d="M1351.54 1451.02 L1369.9 1451.02 L1369.9 1454.96 L1355.82 1454.96 L1355.82 1463.43 Q1356.84 1463.08 1357.86 1462.92 Q1358.88 1462.73 1359.9 1462.73 Q1365.68 1462.73 1369.06 1465.9 Q1372.44 1469.08 1372.44 1474.49 Q1372.44 1480.07 1368.97 1483.17 Q1365.5 1486.25 1359.18 1486.25 Q1357 1486.25 1354.73 1485.88 Q1352.49 1485.51 1350.08 1484.77 L1350.08 1480.07 Q1352.16 1481.2 1354.39 1481.76 Q1356.61 1482.32 1359.09 1482.32 Q1363.09 1482.32 1365.43 1480.21 Q1367.77 1478.1 1367.77 1474.49 Q1367.77 1470.88 1365.43 1468.77 Q1363.09 1466.67 1359.09 1466.67 Q1357.21 1466.67 1355.34 1467.08 Q1353.48 1467.5 1351.54 1468.38 L1351.54 1451.02 Z" fill="#000000" fill-rule="nonzero" fill-opacity="1" /><path clip-path="url(#clip250)" d="M1391.65 1454.1 Q1388.04 1454.1 1386.21 1457.66 Q1384.41 1461.2 1384.41 1468.33 Q1384.41 1475.44 1386.21 1479.01 Q1388.04 1482.55 1391.65 1482.55 Q1395.29 1482.55 1397.09 1479.01 Q1398.92 1475.44 1398.92 1468.33 Q1398.92 1461.2 1397.09 1457.66 Q1395.29 1454.1 1391.65 1454.1 M1391.65 1450.39 Q1397.46 1450.39 1400.52 1455 Q1403.6 1459.58 1403.6 1468.33 Q1403.6 1477.06 1400.52 1481.67 Q1397.46 1486.25 1391.65 1486.25 Q1385.84 1486.25 1382.77 1481.67 Q1379.71 1477.06 1379.71 1468.33 Q1379.71 1459.58 1382.77 1455 Q1385.84 1450.39 1391.65 1450.39 Z" fill="#000000" fill-rule="nonzero" fill-opacity="1" /><path clip-path="url(#clip250)" d="M1681.4 1481.64 L1697.72 1481.64 L1697.72 1485.58 L1675.77 1485.58 L1675.77 1481.64 Q1678.44 1478.89 1683.02 1474.26 Q1687.63 1469.61 1688.81 1468.27 Q1691.05 1465.74 1691.93 1464.01 Q1692.83 1462.25 1692.83 1460.56 Q1692.83 1457.8 1690.89 1456.07 Q1688.97 1454.33 1685.87 1454.33 Q1683.67 1454.33 1681.21 1455.09 Q1678.78 1455.86 1676.01 1457.41 L1676.01 1452.69 Q1678.83 1451.55 1681.28 1450.97 Q1683.74 1450.39 1685.77 1450.39 Q1691.14 1450.39 1694.34 1453.08 Q1697.53 1455.77 1697.53 1460.26 Q1697.53 1462.39 1696.72 1464.31 Q1695.94 1466.2 1693.83 1468.8 Q1693.25 1469.47 1690.15 1472.69 Q1687.05 1475.88 1681.4 1481.64 Z" fill="#000000" fill-rule="nonzero" fill-opacity="1" /><path clip-path="url(#clip250)" d="M1717.53 1454.1 Q1713.92 1454.1 1712.09 1457.66 Q1710.29 1461.2 1710.29 1468.33 Q1710.29 1475.44 1712.09 1479.01 Q1713.92 1482.55 1717.53 1482.55 Q1721.17 1482.55 1722.97 1479.01 Q1724.8 1475.44 1724.8 1468.33 Q1724.8 1461.2 1722.97 1457.66 Q1721.17 1454.1 1717.53 1454.1 M1717.53 1450.39 Q1723.34 1450.39 1726.4 1455 Q1729.48 1459.58 1729.48 1468.33 Q1729.48 1477.06 1726.4 1481.67 Q1723.34 1486.25 1717.53 1486.25 Q1711.72 1486.25 1708.64 1481.67 Q1705.59 1477.06 1705.59 1468.33 Q1705.59 1459.58 1708.64 1455 Q1711.72 1450.39 1717.53 1450.39 Z" fill="#000000" fill-rule="nonzero" fill-opacity="1" /><path clip-path="url(#clip250)" d="M1747.7 1454.1 Q1744.08 1454.1 1742.26 1457.66 Q1740.45 1461.2 1740.45 1468.33 Q1740.45 1475.44 1742.26 1479.01 Q1744.08 1482.55 1747.7 1482.55 Q1751.33 1482.55 1753.14 1479.01 Q1754.96 1475.44 1754.96 1468.33 Q1754.96 1461.2 1753.14 1457.66 Q1751.33 1454.1 1747.7 1454.1 M1747.7 1450.39 Q1753.51 1450.39 1756.56 1455 Q1759.64 1459.58 1759.64 1468.33 Q1759.64 1477.06 1756.56 1481.67 Q1753.51 1486.25 1747.7 1486.25 Q1741.89 1486.25 1738.81 1481.67 Q1735.75 1477.06 1735.75 1468.33 Q1735.75 1459.58 1738.81 1455 Q1741.89 1450.39 1747.7 1450.39 Z" fill="#000000" fill-rule="nonzero" fill-opacity="1" /><path clip-path="url(#clip250)" d="M2036.57 1481.64 L2052.89 1481.64 L2052.89 1485.58 L2030.95 1485.58 L2030.95 1481.64 Q2033.61 1478.89 2038.19 1474.26 Q2042.8 1469.61 2043.98 1468.27 Q2046.22 1465.74 2047.1 1464.01 Q2048.01 1462.25 2048.01 1460.56 Q2048.01 1457.8 2046.06 1456.07 Q2044.14 1454.33 2041.04 1454.33 Q2038.84 1454.33 2036.39 1455.09 Q2033.96 1455.86 2031.18 1457.41 L2031.18 1452.69 Q2034 1451.55 2036.46 1450.97 Q2038.91 1450.39 2040.95 1450.39 Q2046.32 1450.39 2049.51 1453.08 Q2052.71 1455.77 2052.71 1460.26 Q2052.71 1462.39 2051.9 1464.31 Q2051.11 1466.2 2049 1468.8 Q2048.42 1469.47 2045.32 1472.69 Q2042.22 1475.88 2036.57 1481.64 Z" fill="#000000" fill-rule="nonzero" fill-opacity="1" /><path clip-path="url(#clip250)" d="M2062.75 1451.02 L2081.11 1451.02 L2081.11 1454.96 L2067.03 1454.96 L2067.03 1463.43 Q2068.05 1463.08 2069.07 1462.92 Q2070.09 1462.73 2071.11 1462.73 Q2076.9 1462.73 2080.28 1465.9 Q2083.66 1469.08 2083.66 1474.49 Q2083.66 1480.07 2080.18 1483.17 Q2076.71 1486.25 2070.39 1486.25 Q2068.22 1486.25 2065.95 1485.88 Q2063.7 1485.51 2061.29 1484.77 L2061.29 1480.07 Q2063.38 1481.2 2065.6 1481.76 Q2067.82 1482.32 2070.3 1482.32 Q2074.3 1482.32 2076.64 1480.21 Q2078.98 1478.1 2078.98 1474.49 Q2078.98 1470.88 2076.64 1468.77 Q2074.3 1466.67 2070.3 1466.67 Q2068.42 1466.67 2066.55 1467.08 Q2064.7 1467.5 2062.75 1468.38 L2062.75 1451.02 Z" fill="#000000" fill-rule="nonzero" fill-opacity="1" /><path clip-path="url(#clip250)" d="M2102.87 1454.1 Q2099.26 1454.1 2097.43 1457.66 Q2095.62 1461.2 2095.62 1468.33 Q2095.62 1475.44 2097.43 1479.01 Q2099.26 1482.55 2102.87 1482.55 Q2106.5 1482.55 2108.31 1479.01 Q2110.14 1475.44 2110.14 1468.33 Q2110.14 1461.2 2108.31 1457.66 Q2106.5 1454.1 2102.87 1454.1 M2102.87 1450.39 Q2108.68 1450.39 2111.73 1455 Q2114.81 1459.58 2114.81 1468.33 Q2114.81 1477.06 2111.73 1481.67 Q2108.68 1486.25 2102.87 1486.25 Q2097.06 1486.25 2093.98 1481.67 Q2090.92 1477.06 2090.92 1468.33 Q2090.92 1459.58 2093.98 1455 Q2097.06 1450.39 2102.87 1450.39 Z" fill="#000000" fill-rule="nonzero" fill-opacity="1" /><path clip-path="url(#clip250)" d="M1282.78 1518.52 L1288.67 1518.52 L1288.67 1547.77 L1306.15 1532.4 L1313.63 1532.4 L1294.72 1549.07 L1314.42 1568.04 L1306.78 1568.04 L1288.67 1550.63 L1288.67 1568.04 L1282.78 1568.04 L1282.78 1518.52 Z" fill="#000000" fill-rule="nonzero" fill-opacity="1" /><polyline clip-path="url(#clip252)" style="stroke:#000000; stroke-linecap:round; stroke-linejoin:round; stroke-width:2; stroke-opacity:0.1; fill:none" points="244.451,910.402 2352.76,910.402 "/>
<polyline clip-path="url(#clip252)" style="stroke:#000000; stroke-linecap:round; stroke-linejoin:round; stroke-width:2; stroke-opacity:0.1; fill:none" points="244.451,245.364 2352.76,245.364 "/>
<polyline clip-path="url(#clip250)" style="stroke:#000000; stroke-linecap:round; stroke-linejoin:round; stroke-width:4; stroke-opacity:1; fill:none" points="244.451,1423.18 244.451,123.472 "/>
<polyline clip-path="url(#clip250)" style="stroke:#000000; stroke-linecap:round; stroke-linejoin:round; stroke-width:4; stroke-opacity:1; fill:none" points="244.451,910.402 263.349,910.402 "/>
<polyline clip-path="url(#clip250)" style="stroke:#000000; stroke-linecap:round; stroke-linejoin:round; stroke-width:4; stroke-opacity:1; fill:none" points="244.451,245.364 263.349,245.364 "/>
<path clip-path="url(#clip250)" d="M138.987 930.194 L146.625 930.194 L146.625 903.829 L138.315 905.495 L138.315 901.236 L146.579 899.569 L151.255 899.569 L151.255 930.194 L158.894 930.194 L158.894 934.129 L138.987 934.129 L138.987 930.194 Z" fill="#000000" fill-rule="nonzero" fill-opacity="1" /><path clip-path="url(#clip250)" d="M178.338 902.648 Q174.727 902.648 172.898 906.213 Q171.093 909.755 171.093 916.884 Q171.093 923.991 172.898 927.555 Q174.727 931.097 178.338 931.097 Q181.972 931.097 183.778 927.555 Q185.607 923.991 185.607 916.884 Q185.607 909.755 183.778 906.213 Q181.972 902.648 178.338 902.648 M178.338 898.944 Q184.148 898.944 187.204 903.551 Q190.283 908.134 190.283 916.884 Q190.283 925.611 187.204 930.217 Q184.148 934.801 178.338 934.801 Q172.528 934.801 169.449 930.217 Q166.394 925.611 166.394 916.884 Q166.394 908.134 169.449 903.551 Q172.528 898.944 178.338 898.944 Z" fill="#000000" fill-rule="nonzero" fill-opacity="1" /><path clip-path="url(#clip250)" d="M191.467 878.639 L206.382 878.639 L206.382 881.836 L194.947 881.836 L194.947 888.72 Q195.774 888.438 196.602 888.306 Q197.43 888.156 198.257 888.156 Q202.959 888.156 205.705 890.732 Q208.451 893.309 208.451 897.71 Q208.451 902.243 205.63 904.763 Q202.809 907.264 197.674 907.264 Q195.906 907.264 194.063 906.963 Q192.239 906.663 190.283 906.061 L190.283 902.243 Q191.975 903.164 193.781 903.616 Q195.586 904.067 197.599 904.067 Q200.853 904.067 202.752 902.356 Q204.652 900.644 204.652 897.71 Q204.652 894.776 202.752 893.065 Q200.853 891.353 197.599 891.353 Q196.075 891.353 194.552 891.692 Q193.047 892.03 191.467 892.745 L191.467 878.639 Z" fill="#000000" fill-rule="nonzero" fill-opacity="1" /><path clip-path="url(#clip250)" d="M114.931 265.156 L122.57 265.156 L122.57 238.791 L114.26 240.457 L114.26 236.198 L122.524 234.531 L127.2 234.531 L127.2 265.156 L134.839 265.156 L134.839 269.091 L114.931 269.091 L114.931 265.156 Z" fill="#000000" fill-rule="nonzero" fill-opacity="1" /><path clip-path="url(#clip250)" d="M154.283 237.61 Q150.672 237.61 148.843 241.175 Q147.038 244.716 147.038 251.846 Q147.038 258.952 148.843 262.517 Q150.672 266.059 154.283 266.059 Q157.917 266.059 159.723 262.517 Q161.552 258.952 161.552 251.846 Q161.552 244.716 159.723 241.175 Q157.917 237.61 154.283 237.61 M154.283 233.906 Q160.093 233.906 163.149 238.513 Q166.227 243.096 166.227 251.846 Q166.227 260.573 163.149 265.179 Q160.093 269.763 154.283 269.763 Q148.473 269.763 145.394 265.179 Q142.339 260.573 142.339 251.846 Q142.339 243.096 145.394 238.513 Q148.473 233.906 154.283 233.906 Z" fill="#000000" fill-rule="nonzero" fill-opacity="1" /><path clip-path="url(#clip250)" d="M166.773 238.484 L172.979 238.484 L172.979 217.061 L166.227 218.416 L166.227 214.955 L172.942 213.601 L176.741 213.601 L176.741 238.484 L182.948 238.484 L182.948 241.681 L166.773 241.681 L166.773 238.484 Z" fill="#000000" fill-rule="nonzero" fill-opacity="1" /><path clip-path="url(#clip250)" d="M198.746 216.102 Q195.812 216.102 194.326 218.999 Q192.859 221.876 192.859 227.669 Q192.859 233.443 194.326 236.339 Q195.812 239.217 198.746 239.217 Q201.699 239.217 203.166 236.339 Q204.652 233.443 204.652 227.669 Q204.652 221.876 203.166 218.999 Q201.699 216.102 198.746 216.102 M198.746 213.093 Q203.467 213.093 205.949 216.836 Q208.451 220.56 208.451 227.669 Q208.451 234.76 205.949 238.502 Q203.467 242.226 198.746 242.226 Q194.025 242.226 191.524 238.502 Q189.041 234.76 189.041 227.669 Q189.041 220.56 191.524 216.836 Q194.025 213.093 198.746 213.093 Z" fill="#000000" fill-rule="nonzero" fill-opacity="1" /><path clip-path="url(#clip250)" d="M45.7664 817.313 Q39.4007 817.313 35.8996 819.955 Q32.3984 822.565 32.3984 827.307 Q32.3984 832.018 35.8996 834.66 Q39.4007 837.27 45.7664 837.27 Q52.1003 837.27 55.6014 834.66 Q59.1026 832.018 59.1026 827.307 Q59.1026 822.565 55.6014 819.955 Q52.1003 817.313 45.7664 817.313 M59.58 811.457 Q68.683 811.457 73.1071 815.499 Q77.5631 819.541 77.5631 827.88 Q77.5631 830.967 77.0857 833.705 Q76.6401 836.442 75.6852 839.02 L69.9879 839.02 Q71.3884 836.442 72.0568 833.928 Q72.7252 831.413 72.7252 828.803 Q72.7252 823.042 69.7015 820.178 Q66.7096 817.313 60.6303 817.313 L57.7339 817.313 Q60.885 819.127 62.4446 821.96 Q64.0042 824.793 64.0042 828.739 Q64.0042 835.296 59.0071 839.307 Q54.01 843.317 45.7664 843.317 Q37.491 843.317 32.4939 839.307 Q27.4968 835.296 27.4968 828.739 Q27.4968 824.793 29.0564 821.96 Q30.616 819.127 33.7671 817.313 L28.3562 817.313 L28.3562 811.457 L59.58 811.457 Z" fill="#000000" fill-rule="nonzero" fill-opacity="1" /><path clip-path="url(#clip250)" d="M33.8307 778.737 Q33.2578 779.724 33.0032 780.901 Q32.7167 782.047 32.7167 783.447 Q32.7167 788.413 35.9632 791.086 Q39.1779 793.728 45.2253 793.728 L64.0042 793.728 L64.0042 799.616 L28.3562 799.616 L28.3562 793.728 L33.8944 793.728 Q30.6479 791.882 29.0883 788.922 Q27.4968 785.962 27.4968 781.729 Q27.4968 781.124 27.5923 780.392 Q27.656 779.66 27.8151 778.769 L33.8307 778.737 Z" fill="#000000" fill-rule="nonzero" fill-opacity="1" /><path clip-path="url(#clip250)" d="M46.0847 756.393 Q46.0847 763.491 47.7079 766.228 Q49.3312 768.965 53.2461 768.965 Q56.3653 768.965 58.2114 766.928 Q60.0256 764.86 60.0256 761.327 Q60.0256 756.457 56.5881 753.529 Q53.1188 750.569 47.3897 750.569 L46.0847 750.569 L46.0847 756.393 M43.6657 744.712 L64.0042 744.712 L64.0042 750.569 L58.5933 750.569 Q61.8398 752.574 63.3994 755.566 Q64.9272 758.558 64.9272 762.886 Q64.9272 768.361 61.8716 771.607 Q58.7843 774.822 53.6281 774.822 Q47.6125 774.822 44.5569 770.812 Q41.5014 766.769 41.5014 758.78 L41.5014 750.569 L40.9285 750.569 Q36.8862 750.569 34.6901 753.242 Q32.4621 755.884 32.4621 760.69 Q32.4621 763.746 33.1941 766.642 Q33.9262 769.538 35.3903 772.212 L29.9795 772.212 Q28.7381 768.997 28.1334 765.974 Q27.4968 762.95 27.4968 760.085 Q27.4968 752.351 31.5072 748.532 Q35.5176 744.712 43.6657 744.712 Z" fill="#000000" fill-rule="nonzero" fill-opacity="1" /><path clip-path="url(#clip250)" d="M33.7671 709.191 L14.479 709.191 L14.479 703.335 L64.0042 703.335 L64.0042 709.191 L58.657 709.191 Q61.8398 711.038 63.3994 713.87 Q64.9272 716.671 64.9272 720.618 Q64.9272 727.079 59.771 731.153 Q54.6147 735.195 46.212 735.195 Q37.8093 735.195 32.6531 731.153 Q27.4968 727.079 27.4968 720.618 Q27.4968 716.671 29.0564 713.87 Q30.5842 711.038 33.7671 709.191 M46.212 729.148 Q52.6732 729.148 56.3653 726.506 Q60.0256 723.833 60.0256 719.186 Q60.0256 714.539 56.3653 711.865 Q52.6732 709.191 46.212 709.191 Q39.7508 709.191 36.0905 711.865 Q32.3984 714.539 32.3984 719.186 Q32.3984 723.833 36.0905 726.506 Q39.7508 729.148 46.212 729.148 Z" fill="#000000" fill-rule="nonzero" fill-opacity="1" /><path clip-path="url(#clip250)" d="M929.303 65.7705 L929.303 89.8329 L921.809 89.8329 L921.809 27.2059 L929.303 27.2059 L929.303 34.0924 Q931.652 30.0415 935.217 28.0971 Q938.822 26.1121 943.805 26.1121 Q952.069 26.1121 957.213 32.6746 Q962.399 39.2371 962.399 49.9314 Q962.399 60.6258 957.213 67.1883 Q952.069 73.7508 943.805 73.7508 Q938.822 73.7508 935.217 71.8063 Q931.652 69.8214 929.303 65.7705 M954.661 49.9314 Q954.661 41.7081 951.259 37.0496 Q947.896 32.3505 941.982 32.3505 Q936.068 32.3505 932.665 37.0496 Q929.303 41.7081 929.303 49.9314 Q929.303 58.1548 932.665 62.8538 Q936.068 67.5124 941.982 67.5124 Q947.896 67.5124 951.259 62.8538 Q954.661 58.1548 954.661 49.9314 Z" fill="#000000" fill-rule="nonzero" fill-opacity="1" /><path clip-path="url(#clip250)" d="M1001.04 34.1734 Q999.788 33.4443 998.29 33.1202 Q996.831 32.7556 995.049 32.7556 Q988.729 32.7556 985.327 36.8875 Q981.964 40.9789 981.964 48.6757 L981.964 72.576 L974.47 72.576 L974.47 27.2059 L981.964 27.2059 L981.964 34.2544 Q984.314 30.1225 988.081 28.1376 Q991.849 26.1121 997.236 26.1121 Q998.006 26.1121 998.938 26.2337 Q999.869 26.3147 1001 26.5172 L1001.04 34.1734 Z" fill="#000000" fill-rule="nonzero" fill-opacity="1" /><path clip-path="url(#clip250)" d="M1024.62 32.4315 Q1018.63 32.4315 1015.14 37.1306 Q1011.66 41.7891 1011.66 49.9314 Q1011.66 58.0738 1015.1 62.7728 Q1018.58 67.4314 1024.62 67.4314 Q1030.58 67.4314 1034.06 62.7323 Q1037.54 58.0333 1037.54 49.9314 Q1037.54 41.8701 1034.06 37.1711 Q1030.58 32.4315 1024.62 32.4315 M1024.62 26.1121 Q1034.34 26.1121 1039.89 32.4315 Q1045.44 38.7509 1045.44 49.9314 Q1045.44 61.0714 1039.89 67.4314 Q1034.34 73.7508 1024.62 73.7508 Q1014.86 73.7508 1009.31 67.4314 Q1003.8 61.0714 1003.8 49.9314 Q1003.8 38.7509 1009.31 32.4315 Q1014.86 26.1121 1024.62 26.1121 Z" fill="#000000" fill-rule="nonzero" fill-opacity="1" /><path clip-path="url(#clip250)" d="M1090.37 49.9314 Q1090.37 41.7081 1086.96 37.0496 Q1083.6 32.3505 1077.69 32.3505 Q1071.77 32.3505 1068.37 37.0496 Q1065.01 41.7081 1065.01 49.9314 Q1065.01 58.1548 1068.37 62.8538 Q1071.77 67.5124 1077.69 67.5124 Q1083.6 67.5124 1086.96 62.8538 Q1090.37 58.1548 1090.37 49.9314 M1065.01 34.0924 Q1067.36 30.0415 1070.92 28.0971 Q1074.53 26.1121 1079.51 26.1121 Q1087.77 26.1121 1092.92 32.6746 Q1098.1 39.2371 1098.1 49.9314 Q1098.1 60.6258 1092.92 67.1883 Q1087.77 73.7508 1079.51 73.7508 Q1074.53 73.7508 1070.92 71.8063 Q1067.36 69.8214 1065.01 65.7705 L1065.01 72.576 L1057.51 72.576 L1057.51 9.54393 L1065.01 9.54393 L1065.01 34.0924 Z" fill="#000000" fill-rule="nonzero" fill-opacity="1" /><path clip-path="url(#clip250)" d="M1110.46 9.54393 L1117.91 9.54393 L1117.91 72.576 L1110.46 72.576 L1110.46 9.54393 Z" fill="#000000" fill-rule="nonzero" fill-opacity="1" /><path clip-path="url(#clip250)" d="M1172.32 48.0275 L1172.32 51.6733 L1138.05 51.6733 Q1138.53 59.3701 1142.66 63.421 Q1146.84 67.4314 1154.25 67.4314 Q1158.54 67.4314 1162.55 66.3781 Q1166.6 65.3249 1170.57 63.2184 L1170.57 70.267 Q1166.56 71.9684 1162.35 72.8596 Q1158.14 73.7508 1153.8 73.7508 Q1142.95 73.7508 1136.59 67.4314 Q1130.27 61.1119 1130.27 50.3365 Q1130.27 39.1965 1136.26 32.6746 Q1142.3 26.1121 1152.51 26.1121 Q1161.66 26.1121 1166.97 32.0264 Q1172.32 37.9003 1172.32 48.0275 M1164.86 45.84 Q1164.78 39.7232 1161.42 36.0774 Q1158.1 32.4315 1152.59 32.4315 Q1146.35 32.4315 1142.58 35.9558 Q1138.86 39.4801 1138.29 45.8805 L1164.86 45.84 M1146.19 6.22219 L1157.61 21.3726 L1151.41 21.3726 L1138.21 6.22219 L1146.19 6.22219 Z" fill="#000000" fill-rule="nonzero" fill-opacity="1" /><path clip-path="url(#clip250)" d="M1219.87 35.9153 Q1222.67 30.8922 1226.56 28.5022 Q1230.45 26.1121 1235.71 26.1121 Q1242.8 26.1121 1246.65 31.0947 Q1250.5 36.0368 1250.5 45.1919 L1250.5 72.576 L1243 72.576 L1243 45.4349 Q1243 38.913 1240.7 35.7533 Q1238.39 32.5936 1233.65 32.5936 Q1227.85 32.5936 1224.49 36.4419 Q1221.13 40.2903 1221.13 46.9338 L1221.13 72.576 L1213.64 72.576 L1213.64 45.4349 Q1213.64 38.8725 1211.33 35.7533 Q1209.02 32.5936 1204.2 32.5936 Q1198.49 32.5936 1195.12 36.4824 Q1191.76 40.3308 1191.76 46.9338 L1191.76 72.576 L1184.27 72.576 L1184.27 27.2059 L1191.76 27.2059 L1191.76 34.2544 Q1194.31 30.082 1197.88 28.0971 Q1201.44 26.1121 1206.34 26.1121 Q1211.29 26.1121 1214.73 28.6237 Q1218.21 31.1352 1219.87 35.9153 Z" fill="#000000" fill-rule="nonzero" fill-opacity="1" /><path clip-path="url(#clip250)" d="M1304.17 48.0275 L1304.17 51.6733 L1269.9 51.6733 Q1270.39 59.3701 1274.52 63.421 Q1278.69 67.4314 1286.11 67.4314 Q1290.4 67.4314 1294.41 66.3781 Q1298.46 65.3249 1302.43 63.2184 L1302.43 70.267 Q1298.42 71.9684 1294.21 72.8596 Q1290 73.7508 1285.66 73.7508 Q1274.8 73.7508 1268.44 67.4314 Q1262.13 61.1119 1262.13 50.3365 Q1262.13 39.1965 1268.12 32.6746 Q1274.16 26.1121 1284.36 26.1121 Q1293.52 26.1121 1298.83 32.0264 Q1304.17 37.9003 1304.17 48.0275 M1296.72 45.84 Q1296.64 39.7232 1293.28 36.0774 Q1289.95 32.4315 1284.45 32.4315 Q1278.21 32.4315 1274.44 35.9558 Q1270.71 39.4801 1270.15 45.8805 L1296.72 45.84 Z" fill="#000000" fill-rule="nonzero" fill-opacity="1" /><path clip-path="url(#clip250)" d="M1344.68 62.2867 L1353.23 62.2867 L1353.23 72.576 L1344.68 72.576 L1344.68 62.2867 M1344.68 29.6769 L1353.23 29.6769 L1353.23 39.9662 L1344.68 39.9662 L1344.68 29.6769 Z" fill="#000000" fill-rule="nonzero" fill-opacity="1" /><path clip-path="url(#clip250)" d="M1432.43 35.9153 Q1435.22 30.8922 1439.11 28.5022 Q1443 26.1121 1448.26 26.1121 Q1455.35 26.1121 1459.2 31.0947 Q1463.05 36.0368 1463.05 45.1919 L1463.05 72.576 L1455.56 72.576 L1455.56 45.4349 Q1455.56 38.913 1453.25 35.7533 Q1450.94 32.5936 1446.2 32.5936 Q1440.41 32.5936 1437.04 36.4419 Q1433.68 40.2903 1433.68 46.9338 L1433.68 72.576 L1426.19 72.576 L1426.19 45.4349 Q1426.19 38.8725 1423.88 35.7533 Q1421.57 32.5936 1416.75 32.5936 Q1411.04 32.5936 1407.67 36.4824 Q1404.31 40.3308 1404.31 46.9338 L1404.31 72.576 L1396.82 72.576 L1396.82 27.2059 L1404.31 27.2059 L1404.31 34.2544 Q1406.86 30.082 1410.43 28.0971 Q1413.99 26.1121 1418.9 26.1121 Q1423.84 26.1121 1427.28 28.6237 Q1430.76 31.1352 1432.43 35.9153 Z" fill="#000000" fill-rule="nonzero" fill-opacity="1" /><path clip-path="url(#clip250)" d="M1507.77 49.3643 Q1507.77 41.2625 1504.41 36.8065 Q1501.09 32.3505 1495.05 32.3505 Q1489.06 32.3505 1485.69 36.8065 Q1482.37 41.2625 1482.37 49.3643 Q1482.37 57.4256 1485.69 61.8816 Q1489.06 66.3376 1495.05 66.3376 Q1501.09 66.3376 1504.41 61.8816 Q1507.77 57.4256 1507.77 49.3643 M1515.23 66.9452 Q1515.23 78.5308 1510.08 84.1616 Q1504.94 89.8329 1494.32 89.8329 Q1490.39 89.8329 1486.91 89.2252 Q1483.43 88.6581 1480.14 87.4428 L1480.14 80.1917 Q1483.43 81.9741 1486.63 82.8248 Q1489.83 83.6755 1493.15 83.6755 Q1500.48 83.6755 1504.13 79.8271 Q1507.77 76.0193 1507.77 68.282 L1507.77 64.5957 Q1505.46 68.6061 1501.86 70.5911 Q1498.25 72.576 1493.23 72.576 Q1484.88 72.576 1479.78 66.2161 Q1474.68 59.8562 1474.68 49.3643 Q1474.68 38.832 1479.78 32.472 Q1484.88 26.1121 1493.23 26.1121 Q1498.25 26.1121 1501.86 28.0971 Q1505.46 30.082 1507.77 34.0924 L1507.77 27.2059 L1515.23 27.2059 L1515.23 66.9452 Z" fill="#000000" fill-rule="nonzero" fill-opacity="1" /><path clip-path="url(#clip250)" d="M1568.29 45.1919 L1568.29 72.576 L1560.84 72.576 L1560.84 45.4349 Q1560.84 38.994 1558.33 35.7938 Q1555.82 32.5936 1550.79 32.5936 Q1544.76 32.5936 1541.27 36.4419 Q1537.79 40.2903 1537.79 46.9338 L1537.79 72.576 L1530.29 72.576 L1530.29 9.54393 L1537.79 9.54393 L1537.79 34.2544 Q1540.46 30.163 1544.07 28.1376 Q1547.71 26.1121 1552.45 26.1121 Q1560.27 26.1121 1564.28 30.9732 Q1568.29 35.7938 1568.29 45.1919 Z" fill="#000000" fill-rule="nonzero" fill-opacity="1" /><path clip-path="url(#clip250)" d="M1585.63 65.6895 L1599 65.6895 L1599 19.5497 L1584.46 22.4663 L1584.46 15.0127 L1598.92 12.096 L1607.1 12.096 L1607.1 65.6895 L1620.47 65.6895 L1620.47 72.576 L1585.63 72.576 L1585.63 65.6895 Z" fill="#000000" fill-rule="nonzero" fill-opacity="1" /><path clip-path="url(#clip250)" d="M1654.5 17.4837 Q1648.18 17.4837 1644.98 23.7221 Q1641.82 29.92 1641.82 42.3968 Q1641.82 54.833 1644.98 61.0714 Q1648.18 67.2693 1654.5 67.2693 Q1660.86 67.2693 1664.02 61.0714 Q1667.22 54.833 1667.22 42.3968 Q1667.22 29.92 1664.02 23.7221 Q1660.86 17.4837 1654.5 17.4837 M1654.5 11.0023 Q1664.66 11.0023 1670.01 19.0636 Q1675.4 27.0843 1675.4 42.3968 Q1675.4 57.6687 1670.01 65.73 Q1664.66 73.7508 1654.5 73.7508 Q1644.33 73.7508 1638.94 65.73 Q1633.59 57.6687 1633.59 42.3968 Q1633.59 27.0843 1638.94 19.0636 Q1644.33 11.0023 1654.5 11.0023 Z" fill="#000000" fill-rule="nonzero" fill-opacity="1" /><polyline clip-path="url(#clip252)" style="stroke:#009af9; stroke-linecap:round; stroke-linejoin:round; stroke-width:4; stroke-opacity:1; fill:none" points="304.12,160.256 311.223,160.256 318.327,160.256 325.43,160.256 332.534,160.256 339.637,160.256 346.741,241.858 353.844,241.858 360.948,241.858 368.051,241.858 375.154,241.858 382.258,241.858 389.361,241.858 396.465,241.858 403.568,247.572 410.672,444.906 417.775,444.906 424.879,444.906 431.982,705.184 439.086,673.348 446.189,608.184 453.292,540.859 460.396,476.04 467.499,421.296 474.603,389.2 481.706,397.558 488.81,462.788 495.913,592.443 503.017,790.625 510.12,1057.01 517.224,1245.46 "/>
<polyline clip-path="url(#clip252)" style="stroke:#e26f46; stroke-linecap:round; stroke-linejoin:round; stroke-width:4; stroke-opacity:1; fill:none" points="304.12,160.256 311.223,160.256 318.327,160.256 325.43,160.256 332.534,160.256 339.637,160.256 346.741,241.858 353.844,241.858 360.948,241.858 368.051,241.858 375.154,241.858 382.258,241.858 389.361,241.858 396.465,241.858 403.568,247.572 410.672,444.906 417.775,295.738 424.879,408.063 431.982,411.186 439.086,523.336 446.189,695.005 453.292,939.22 460.396,1204.71 467.499,1221.29 474.603,1146.1 481.706,1067.48 488.81,988.153 495.913,908.493 503.017,828.7 510.12,748.917 517.224,669.294 524.327,590.065 531.43,602.454 538.534,554.698 545.637,615.151 552.741,615.151 559.844,593.208 566.948,576.396 574.051,579.104 581.155,562.068 588.258,588.325 595.362,532.519 602.465,644.606 609.568,644.606 616.672,644.606 623.775,559.382 630.879,617.186 637.982,617.186 645.086,631.204 652.189,551.949 659.293,554.605 666.396,554.605 673.5,745.704 680.603,661.31 687.706,582.389 694.81,602.744 701.913,546.095 709.017,622.787 716.12,622.787 723.224,580.624 730.327,586.067 737.431,556.34 744.534,598.252 751.637,512.786 758.741,683.442 765.844,683.442 772.948,683.442 780.051,680.841 787.155,608.281 794.258,582.823 801.362,577.463 808.465,567.359 815.569,576.053 822.672,554.537 829.775,594.9 836.879,513.069 843.982,681.477 851.086,681.477 858.189,681.477 865.293,528.425 872.396,680.058 879.5,680.058 886.603,693.916 893.707,614.838 900.81,589.725 907.913,576.289 915.017,575.383 922.12,566.272 929.224,578.357 936.327,552.417 943.431,603.532 950.534,603.532 957.638,513.135 964.741,690.108 971.845,690.108 978.948,690.108 986.051,713.423 993.155,634.399 1000.26,556.877 1007.36,556.877 1014.47,747.783 1021.57,664.872 1028.67,586.852 1035.78,605.37 1042.88,552.62 1049.98,622.313 1057.09,622.313 1064.19,591.344 1071.29,584.764 1078.4,574.089 1085.5,582.717 1092.6,562.192 1099.71,600.758 1106.81,525.095 1113.91,679.52 1121.02,679.52 1128.12,679.52 1135.22,560.473 1142.33,637.441 1149.43,637.441 1156.53,647.6 1163.64,570.6 1170.74,633.861 1177.84,525.948 1184.95,700.86 1192.05,700.86 1199.16,618.521 1206.26,599.192 1213.36,589.078 1220.47,588.658 1227.57,582.359 1234.67,591.966 1241.78,573.823 1248.88,611.226 1255.98,540.538 1263.09,685.602 1270.19,685.602 1277.29,685.602 1284.4,685.602 1291.5,723.233 1298.6,645.691 1305.71,613.323 1312.81,603.865 1319.91,597.509 1327.02,599.758 1334.12,593.407 1341.22,606.491 1348.33,584.284 1355.43,631.595 1362.53,545.094 1369.64,722.846 1376.74,722.846 1383.84,722.846 1390.95,722.846 1398.05,705.215 1405.16,640.546 1412.26,625.753 1419.36,617.043 1426.47,619.331 1433.57,612.929 1440.67,626.874 1447.78,605.993 1454.88,652.38 1461.98,573.673 1469.09,735.684 1476.19,735.684 1483.29,735.684 1490.4,735.684 1497.5,776.391 1504.6,701.964 1511.71,633.243 1518.81,688.239 1525.91,606.259 1533.02,735.381 1540.12,735.381 1547.22,714.02 1554.33,670.654 1561.43,678.064 1568.53,660.46 1575.64,690.736 1582.74,654.97 1589.85,733.294 1596.95,633.845 1604.05,836.732 1611.16,1087.64 1618.26,1088.55 1625.36,1089.97 1632.47,1091.39 1639.57,1092.81 1646.67,1094.24 1653.78,1095.67 1660.88,1097.1 1667.98,1098.53 1675.09,1099.96 1682.19,1101.39 1689.29,1102.82 1696.4,1104.25 1703.5,1105.68 1710.6,1107.11 1717.71,1108.54 1724.81,1109.97 1731.91,1111.4 1739.02,1112.83 1746.12,1114.26 1753.22,1115.69 1760.33,1117.12 1767.43,1118.55 1774.53,1119.98 1781.64,1121.41 1788.74,1122.84 1795.85,1124.27 1802.95,1125.7 1810.05,1127.13 1817.16,1128.56 1824.26,1129.99 1831.36,1131.42 1838.47,1132.85 1845.57,1134.28 1852.67,1135.71 1859.78,1137.14 1866.88,1138.57 1873.98,1140 1881.09,1141.43 1888.19,1142.86 1895.29,1144.29 1902.4,1145.72 1909.5,1147.15 1916.6,1148.57 1923.71,1150 1930.81,1151.43 1937.91,1152.86 1945.02,1154.29 1952.12,1155.72 1959.22,1157.15 1966.33,1158.58 1973.43,1160.01 1980.53,1161.44 1987.64,1162.87 1994.74,1164.3 2001.85,1165.73 2008.95,1167.16 2016.05,1168.59 2023.16,1170.02 2030.26,1171.44 2037.36,1172.87 2044.47,1174.3 2051.57,1175.73 2058.67,1177.16 2065.78,1178.59 2072.88,1180.02 2079.98,1181.45 2087.09,1182.88 2094.19,1184.31 2101.29,1185.74 2108.4,1187.17 2115.5,1188.6 2122.6,1190.02 2129.71,1191.45 2136.81,1192.88 2143.91,1194.31 2151.02,1195.74 2158.12,1197.17 2165.22,1198.6 2172.33,1200.03 2179.43,1201.46 2186.54,1202.89 2193.64,1204.31 2200.74,1205.74 2207.85,1207.17 2214.95,1208.6 2222.05,1210.03 2229.16,1211.46 2236.26,1212.89 2243.36,1214.32 2250.47,1215.75 2257.57,1217.18 2264.67,1218.6 2271.78,1220.03 2278.88,1221.46 2285.98,1222.89 2293.09,1224.32 "/>
<polyline clip-path="url(#clip252)" style="stroke:#3da44d; stroke-linecap:round; stroke-linejoin:round; stroke-width:4; stroke-opacity:1; fill:none" points="304.12,160.256 311.223,160.256 318.327,160.256 325.43,160.256 332.534,160.256 339.637,160.256 346.741,241.858 353.844,241.858 360.948,241.858 368.051,241.858 375.154,241.858 382.258,241.858 389.361,241.858 396.465,241.858 403.568,247.572 410.672,444.906 417.775,295.738 424.879,408.063 431.982,411.186 439.086,523.336 446.189,695.005 453.292,939.22 460.396,1204.71 467.499,1221.29 474.603,1146.1 481.706,1067.48 488.81,988.153 495.913,908.493 503.017,828.7 510.12,748.917 517.224,669.294 524.327,590.065 531.43,590.065 538.534,780.742 545.637,697.051 552.741,617.668 559.844,538.947 566.948,541.81 574.051,463.53 581.155,389.194 588.258,321.082 595.362,265.447 602.465,231.728 609.568,293.937 616.672,265.603 623.775,265.603 630.879,582.065 637.982,582.065 645.086,661.73 652.189,588.365 659.293,522.785 666.396,470.23 673.5,440.198 680.603,440.198 687.706,648.461 694.81,648.461 701.913,828.281 709.017,828.281 716.12,1013.74 723.224,934.393 730.327,856.282 737.431,856.282 744.534,1042.82 751.637,963.337 758.741,884.841 765.844,884.841 772.948,1071.23 780.051,991.648 787.155,912.844 794.258,835.272 801.362,835.272 808.465,1021.98 815.569,942.668 822.672,864.603 829.775,864.603 836.879,1051.13 843.982,971.685 851.086,893.226 858.189,893.226 865.293,1079.61 872.396,1000.05 879.5,921.28 886.603,843.767 893.707,843.767 900.81,1030.47 907.913,951.197 915.017,873.18 922.12,873.18 929.224,1059.7 936.327,980.288 943.431,901.867 950.534,901.867 957.638,1088.24 964.741,1008.72 971.845,929.974 978.948,852.522 986.051,852.522 993.155,1039.21 1000.26,959.986 1007.36,882.018 1014.47,882.018 1021.57,1068.53 1028.67,989.154 1035.78,910.772 1042.88,910.772 1049.98,1097.15 1057.09,1017.64 1064.19,938.933 1071.29,861.543 1078.4,861.543 1085.5,1048.23 1092.6,969.042 1099.71,891.124 1106.81,891.124 1113.91,1077.63 1121.02,998.289 1128.12,919.947 1135.22,919.947 1142.33,1106.32 1149.43,1026.84 1156.53,948.163 1163.64,870.837 1170.74,870.837 1177.84,1057.52 1184.95,978.372 1192.05,900.505 1199.16,900.505 1206.26,1087.01 1213.36,1007.7 1220.47,929.399 1227.57,929.399 1234.67,1115.77 1241.78,1036.32 1248.88,957.671 1255.98,880.41 1263.09,880.41 1270.19,1067.08 1277.29,987.983 1284.4,910.169 1291.5,910.169 1298.6,1096.67 1305.71,1017.39 1312.81,939.134 1319.91,939.134 1327.02,1125.5 1334.12,1046.08 1341.22,967.464 1348.33,967.464 1355.43,1153.72 1362.53,1074.18 1369.64,995.284 1376.74,917.523 1383.84,917.523 1390.95,1104.03 1398.05,1024.78 1405.16,946.563 1412.26,946.563 1419.36,1132.93 1426.47,1053.53 1433.57,974.952 1440.67,974.952 1447.78,1161.21 1454.88,1081.69 1461.98,1002.82 1469.09,925.113 1476.19,925.113 1483.29,1111.62 1490.4,1032.4 1497.5,954.23 1504.6,954.23 1511.71,1140.6 1518.81,1061.23 1525.91,982.68 1533.02,982.68 1540.12,1168.94 1547.22,1089.44 1554.33,1010.6 1561.43,932.947 1568.53,932.947 1575.64,1119.46 1582.74,1040.27 1589.85,962.141 1596.95,962.141 1604.05,1148.52 1611.16,1069.16 1618.26,990.655 1625.36,990.655 1632.47,1176.92 1639.57,1097.44 1646.67,1018.62 1653.78,941.029 1660.88,941.029 1667.98,1127.54 1675.09,1048.38 1682.19,970.303 1689.29,970.303 1696.4,1156.68 1703.5,1077.35 1710.6,998.881 1717.71,998.881 1724.81,1185.15 1731.91,1105.68 1739.02,1026.9 1746.12,949.365 1753.22,949.365 1760.33,1135.89 1767.43,1056.76 1774.53,978.722 1781.64,978.722 1788.74,1165.1 1795.85,1085.8 1802.95,1007.37 1810.05,1007.37 1817.16,1193.63 1824.26,1114.19 1831.36,1035.44 1838.47,957.963 1845.57,957.963 1852.67,1144.49 1859.78,1065.39 1866.88,987.403 1873.98,987.403 1881.09,1173.79 1888.19,1094.51 1895.29,1016.11 1902.4,1016.11 1909.5,1202.39 1916.6,1122.96 1923.71,1044.24 1930.81,966.827 1937.91,966.827 1945.02,1153.36 1952.12,1074.29 1959.22,996.354 1966.33,996.354 1973.43,1182.75 1980.53,1103.49 1987.64,1025.13 1994.74,1025.13 2001.85,1211.41 2008.95,1132.01 2016.05,1053.32 2023.16,975.965 2030.26,975.965 2037.36,1162.5 2044.47,1083.47 2051.57,1005.58 2058.67,1005.58 2065.78,1191.98 2072.88,1112.75 2079.98,1034.43 2087.09,1034.43 2094.19,1220.71 2101.29,1141.33 2108.4,1062.67 2115.5,985.384 2122.6,985.384 2129.71,1171.93 2136.81,1092.92 2143.91,1015.09 2151.02,1015.09 2158.12,1201.49 2165.22,1122.29 2172.33,1044.01 2179.43,1044.01 2186.54,1230.3 "/>
<polyline clip-path="url(#clip252)" style="stroke:#c271d2; stroke-linecap:round; stroke-linejoin:round; stroke-width:4; stroke-opacity:1; fill:none" points="304.12,160.256 311.223,160.256 318.327,160.256 325.43,160.256 332.534,160.256 339.637,160.256 346.741,241.858 353.844,241.858 360.948,241.858 368.051,241.858 375.154,241.858 382.258,241.858 389.361,241.858 396.465,241.858 403.568,247.572 410.672,444.906 417.775,295.738 424.879,408.063 431.982,411.186 439.086,523.336 446.189,695.005 453.292,939.22 460.396,1204.71 467.499,1221.29 474.603,1146.1 481.706,1067.48 488.81,988.153 495.913,908.493 503.017,828.7 510.12,748.917 517.224,669.294 524.327,590.065 531.43,602.584 538.534,554.409 545.637,615.546 552.741,615.546 559.844,592.994 566.948,576.671 574.051,578.631 581.155,562.971 588.258,586.501 595.362,536.224 602.465,636.567 609.568,636.567 616.672,636.567 623.775,564.412 630.879,609.05 637.982,519.773 645.086,678.029 652.189,678.029 659.293,570.485 666.396,607.917 673.5,529.703 680.603,659.695 687.706,659.695 694.81,603.089 701.913,581.892 709.017,575.964 716.12,568.391 723.224,573.305 730.327,559.098 737.431,585.047 744.534,531.482 751.637,640.683 758.741,640.683 765.844,640.683 772.948,640.683 780.051,678.114 787.155,598.738 794.258,592.625 801.362,564.661 808.465,589.831 815.569,534.942 822.672,636.481 829.775,636.481 836.879,636.481 843.982,660.892 851.086,581.93 858.189,602.751 865.293,546.246 872.396,622.731 879.5,622.731 886.603,581.833 893.707,585.898 900.81,558.952 907.913,596.115 915.017,520.902 922.12,669.884 929.224,669.884 936.327,669.884 943.431,685.821 950.534,611.069 957.638,585.048 964.741,580.058 971.845,569.736 978.948,579.271 986.051,556.978 993.155,599.367 1000.26,514.922 1007.36,688.519 1014.47,688.519 1021.57,688.519 1028.67,535.328 1035.78,680.509 1042.88,680.509 1049.98,703.143 1057.09,624.469 1064.19,594.397 1071.29,583.813 1078.4,578.267 1085.5,577.616 1092.6,574.36 1099.71,579.267 1106.81,569.765 1113.91,589.805 1121.02,551.327 1128.12,630.841 1135.22,630.841 1142.33,630.841 1149.43,630.841 1156.53,613.683 1163.64,583.372 1170.74,599.244 1177.84,561.108 1184.95,626.357 1192.05,626.357 1199.16,556.042 1206.26,648.673 1213.36,648.673 1220.47,604.967 1227.57,600.701 1234.67,584.679 1241.78,601.521 1248.88,567.189 1255.98,632.964 1263.09,632.964 1270.19,537.606 1277.29,706.963 1284.4,706.963 1291.5,592.062 1298.6,636.767 1305.71,555.418 1312.81,689.922 1319.91,689.922 1327.02,636.463 1334.12,613.182 1341.22,611.349 1348.33,601.091 1355.43,614.678 1362.53,590.183 1369.64,640.162 1376.74,640.162 1383.84,568.624 1390.95,701.539 1398.05,701.539 1405.16,599.326 1412.26,672.14 1419.36,672.14 1426.47,684.435 1433.57,613.119 1440.67,676.054 1447.78,578.544 1454.88,734.47 1461.98,734.47 1469.09,681.215 1476.19,649.128 1483.29,651.327 1490.4,637.485 1497.5,659.796 1504.6,627.834 1511.71,696.138 1518.81,696.138 1525.91,616.813 1533.02,758.341 1540.12,758.341 1547.22,697.609 1554.33,697.093 1561.43,687.1 1568.53,706.041 1575.64,695.003 1582.74,738.591 1589.85,708.665 1596.95,802.811 1604.05,840.837 1611.16,879.792 1618.26,776.733 1625.36,1386.4 "/>
<polyline clip-path="url(#clip252)" style="stroke:#ac8d18; stroke-linecap:round; stroke-linejoin:round; stroke-width:4; stroke-opacity:1; fill:none" points="304.12,160.256 311.223,160.256 318.327,160.256 325.43,160.256 332.534,160.256 339.637,160.256 346.741,241.858 353.844,241.858 360.948,241.858 368.051,241.858 375.154,241.858 382.258,241.858 389.361,241.858 396.465,241.858 403.568,247.572 410.672,444.906 417.775,295.738 424.879,408.063 431.982,411.186 439.086,523.336 446.189,695.005 453.292,939.22 460.396,1204.71 467.499,1221.29 474.603,1146.1 481.706,1067.48 488.81,988.153 495.913,908.493 503.017,828.7 510.12,748.917 517.224,669.294 524.327,590.065 531.43,590.065 538.534,780.742 545.637,697.051 552.741,617.668 559.844,538.947 566.948,541.81 574.051,541.81 581.155,733.98 588.258,648.465 595.362,569.496 602.465,569.496 609.568,760.945 616.672,676.727 623.775,597.543 630.879,519.228 637.982,522.705 645.086,525.005 652.189,527.325 659.293,529.632 666.396,531.928 673.5,534.213 680.603,536.488 687.706,536.488 694.81,728.368 701.913,643.42 709.017,564.797 716.12,564.797 723.224,755.95 730.327,672.188 737.431,593.28 744.534,515.521 751.637,519.419 758.741,522.225 765.844,525.046 772.948,527.855 780.051,530.651 787.155,533.437 794.258,536.213 801.362,536.213 808.465,727.641 815.569,643.471 822.672,565.289 829.775,565.289 836.879,756.021 843.982,672.877 851.086,594.321 858.189,517.263 865.293,521.685 872.396,525.132 879.5,528.587 886.603,532.03 893.707,535.461 900.81,538.882 907.913,538.882 915.017,729.918 922.12,646.554 929.224,568.927 936.327,568.927 943.431,759.285 950.534,676.787 957.638,598.675 964.741,522.499 971.845,527.632 978.948,531.9 986.051,536.171 993.155,540.43 1000.26,544.678 1007.36,544.678 1014.47,735.377 1021.57,652.877 1028.67,575.951 1035.78,575.951 1042.88,765.978 1049.98,684.174 1057.09,606.626 1064.19,531.559 1071.29,537.635 1078.4,542.953 1085.5,548.27 1092.6,548.27 1099.71,738.889 1106.81,657.134 1113.91,581.094 1121.02,581.094 1128.12,771.006 1135.22,689.818 1142.33,612.982 1149.43,539.309 1156.53,546.668 1163.64,553.334 1170.74,559.997 1177.84,559.997 1184.95,750.399 1192.05,669.714 1199.16,594.797 1206.26,594.797 1213.36,784.472 1220.47,704.149 1227.57,628.218 1234.67,556.303 1241.78,565.257 1248.88,565.257 1255.98,755.791 1263.09,676.044 1270.19,602.544 1277.29,602.544 1284.4,792.281 1291.5,712.741 1298.6,637.954 1305.71,568.243 1312.81,579.308 1319.91,579.308 1327.02,769.899 1334.12,691.475 1341.22,619.763 1348.33,619.763 1355.43,809.489 1362.53,731.026 1369.64,657.686 1376.74,590.732 1383.84,604.421 1390.95,604.421 1398.05,795.06 1405.16,718.352 1412.26,648.886 1419.36,589.172 1426.47,610.102 1433.57,610.102 1440.67,802.201 1447.78,728.733 1454.88,665.208 1461.98,616.2 1469.09,647.708 1476.19,622.855 1483.29,678.808 1490.4,691.238 1497.5,754.869 1504.6,880.448 1511.71,1075.8 1518.81,1345.85 "/>
<path clip-path="url(#clip250)" d="M1748.55 477.836 L2282.48 477.836 L2282.48 166.796 L1748.55 166.796  Z" fill="#ffffff" fill-rule="evenodd" fill-opacity="1"/>
<polyline clip-path="url(#clip250)" style="stroke:#000000; stroke-linecap:round; stroke-linejoin:round; stroke-width:4; stroke-opacity:1; fill:none" points="1748.55,477.836 2282.48,477.836 2282.48,166.796 1748.55,166.796 1748.55,477.836 "/>
<polyline clip-path="url(#clip250)" style="stroke:#009af9; stroke-linecap:round; stroke-linejoin:round; stroke-width:4; stroke-opacity:1; fill:none" points="1771.97,218.636 1912.53,218.636 "/>
<path clip-path="url(#clip250)" d="M1935.95 201.356 L1940.63 201.356 L1940.63 231.981 L1957.46 231.981 L1957.46 235.916 L1935.95 235.916 L1935.95 201.356 Z" fill="#000000" fill-rule="nonzero" fill-opacity="1" /><path clip-path="url(#clip250)" d="M1962.37 201.356 L1969.33 201.356 L1978.15 224.874 L1987.02 201.356 L1993.99 201.356 L1993.99 235.916 L1989.43 235.916 L1989.43 205.569 L1980.51 229.272 L1975.81 229.272 L1966.9 205.569 L1966.9 235.916 L1962.37 235.916 L1962.37 201.356 Z" fill="#000000" fill-rule="nonzero" fill-opacity="1" /><path clip-path="url(#clip250)" d="M2022.78 243.786 L2022.78 247.096 L1998.15 247.096 L1998.15 243.786 L2022.78 243.786 Z" fill="#000000" fill-rule="nonzero" fill-opacity="1" /><path clip-path="url(#clip250)" d="M2047.69 202.49 L2047.69 207.05 Q2045.03 205.777 2042.67 205.152 Q2040.3 204.527 2038.11 204.527 Q2034.29 204.527 2032.2 206.008 Q2030.14 207.49 2030.14 210.221 Q2030.14 212.513 2031.51 213.694 Q2032.9 214.851 2036.74 215.569 L2039.56 216.147 Q2044.8 217.143 2047.27 219.666 Q2049.77 222.166 2049.77 226.379 Q2049.77 231.402 2046.39 233.994 Q2043.04 236.587 2036.53 236.587 Q2034.08 236.587 2031.3 236.031 Q2028.55 235.476 2025.58 234.388 L2025.58 229.573 Q2028.43 231.17 2031.16 231.981 Q2033.89 232.791 2036.53 232.791 Q2040.54 232.791 2042.71 231.217 Q2044.89 229.643 2044.89 226.726 Q2044.89 224.18 2043.31 222.744 Q2041.76 221.309 2038.2 220.592 L2035.35 220.036 Q2030.12 218.995 2027.78 216.772 Q2025.44 214.55 2025.44 210.592 Q2025.44 206.008 2028.66 203.37 Q2031.9 200.731 2037.57 200.731 Q2040 200.731 2042.53 201.171 Q2045.05 201.61 2047.69 202.49 Z" fill="#000000" fill-rule="nonzero" fill-opacity="1" /><path clip-path="url(#clip250)" d="M2061.74 205.198 L2061.74 218.184 L2067.62 218.184 Q2070.88 218.184 2072.67 216.495 Q2074.45 214.805 2074.45 211.68 Q2074.45 208.578 2072.67 206.888 Q2070.88 205.198 2067.62 205.198 L2061.74 205.198 M2057.06 201.356 L2067.62 201.356 Q2073.43 201.356 2076.39 203.995 Q2079.38 206.61 2079.38 211.68 Q2079.38 216.795 2076.39 219.411 Q2073.43 222.027 2067.62 222.027 L2061.74 222.027 L2061.74 235.916 L2057.06 235.916 L2057.06 201.356 Z" fill="#000000" fill-rule="nonzero" fill-opacity="1" /><path clip-path="url(#clip250)" d="M2109.22 230.985 L2109.22 221.703 L2101.58 221.703 L2101.58 217.86 L2113.85 217.86 L2113.85 232.698 Q2111.14 234.619 2107.87 235.615 Q2104.61 236.587 2100.91 236.587 Q2092.8 236.587 2088.22 231.865 Q2083.66 227.119 2083.66 218.67 Q2083.66 210.198 2088.22 205.476 Q2092.8 200.731 2100.91 200.731 Q2104.29 200.731 2107.32 201.564 Q2110.37 202.397 2112.94 204.018 L2112.94 208.995 Q2110.35 206.796 2107.43 205.684 Q2104.52 204.573 2101.3 204.573 Q2094.96 204.573 2091.76 208.115 Q2088.59 211.657 2088.59 218.67 Q2088.59 225.661 2091.76 229.203 Q2094.96 232.744 2101.3 232.744 Q2103.78 232.744 2105.72 232.328 Q2107.67 231.888 2109.22 230.985 Z" fill="#000000" fill-rule="nonzero" fill-opacity="1" /><polyline clip-path="url(#clip250)" style="stroke:#e26f46; stroke-linecap:round; stroke-linejoin:round; stroke-width:4; stroke-opacity:1; fill:none" points="1771.97,270.476 1912.53,270.476 "/>
<path clip-path="url(#clip250)" d="M1935.95 253.196 L1940.63 253.196 L1940.63 283.821 L1957.46 283.821 L1957.46 287.756 L1935.95 287.756 L1935.95 253.196 Z" fill="#000000" fill-rule="nonzero" fill-opacity="1" /><path clip-path="url(#clip250)" d="M1962.37 253.196 L1969.33 253.196 L1978.15 276.714 L1987.02 253.196 L1993.99 253.196 L1993.99 287.756 L1989.43 287.756 L1989.43 257.409 L1980.51 281.112 L1975.81 281.112 L1966.9 257.409 L1966.9 287.756 L1962.37 287.756 L1962.37 253.196 Z" fill="#000000" fill-rule="nonzero" fill-opacity="1" /><path clip-path="url(#clip250)" d="M2022.78 295.626 L2022.78 298.936 L1998.15 298.936 L1998.15 295.626 L2022.78 295.626 Z" fill="#000000" fill-rule="nonzero" fill-opacity="1" /><path clip-path="url(#clip250)" d="M2038.52 257.802 L2032.18 275.001 L2044.89 275.001 L2038.52 257.802 M2035.88 253.196 L2041.18 253.196 L2054.36 287.756 L2049.49 287.756 L2046.35 278.89 L2030.77 278.89 L2027.62 287.756 L2022.69 287.756 L2035.88 253.196 Z" fill="#000000" fill-rule="nonzero" fill-opacity="1" /><path clip-path="url(#clip250)" d="M2080.77 272.108 L2080.77 287.756 L2076.51 287.756 L2076.51 272.247 Q2076.51 268.566 2075.07 266.737 Q2073.64 264.909 2070.77 264.909 Q2067.32 264.909 2065.33 267.108 Q2063.34 269.307 2063.34 273.103 L2063.34 287.756 L2059.05 287.756 L2059.05 261.83 L2063.34 261.83 L2063.34 265.858 Q2064.86 263.52 2066.92 262.362 Q2069.01 261.205 2071.72 261.205 Q2076.18 261.205 2078.48 263.983 Q2080.77 266.737 2080.77 272.108 Z" fill="#000000" fill-rule="nonzero" fill-opacity="1" /><path clip-path="url(#clip250)" d="M2106.32 265.765 L2106.32 251.737 L2110.58 251.737 L2110.58 287.756 L2106.32 287.756 L2106.32 283.867 Q2104.98 286.182 2102.92 287.316 Q2100.88 288.427 2098.01 288.427 Q2093.31 288.427 2090.35 284.677 Q2087.41 280.927 2087.41 274.816 Q2087.41 268.705 2090.35 264.955 Q2093.31 261.205 2098.01 261.205 Q2100.88 261.205 2102.92 262.339 Q2104.98 263.45 2106.32 265.765 M2091.81 274.816 Q2091.81 279.515 2093.73 282.2 Q2095.67 284.862 2099.05 284.862 Q2102.43 284.862 2104.38 282.2 Q2106.32 279.515 2106.32 274.816 Q2106.32 270.117 2104.38 267.455 Q2102.43 264.77 2099.05 264.77 Q2095.67 264.77 2093.73 267.455 Q2091.81 270.117 2091.81 274.816 Z" fill="#000000" fill-rule="nonzero" fill-opacity="1" /><path clip-path="url(#clip250)" d="M2134.38 265.811 Q2133.66 265.395 2132.8 265.21 Q2131.97 265.001 2130.95 265.001 Q2127.34 265.001 2125.4 267.362 Q2123.48 269.7 2123.48 274.098 L2123.48 287.756 L2119.19 287.756 L2119.19 261.83 L2123.48 261.83 L2123.48 265.858 Q2124.82 263.497 2126.97 262.362 Q2129.12 261.205 2132.2 261.205 Q2132.64 261.205 2133.17 261.274 Q2133.71 261.321 2134.36 261.436 L2134.38 265.811 Z" fill="#000000" fill-rule="nonzero" fill-opacity="1" /><path clip-path="url(#clip250)" d="M2159.98 273.728 L2159.98 275.811 L2140.4 275.811 Q2140.67 280.209 2143.04 282.524 Q2145.42 284.816 2149.66 284.816 Q2152.11 284.816 2154.4 284.214 Q2156.72 283.612 2158.98 282.409 L2158.98 286.436 Q2156.69 287.408 2154.29 287.918 Q2151.88 288.427 2149.4 288.427 Q2143.2 288.427 2139.56 284.816 Q2135.95 281.205 2135.95 275.047 Q2135.95 268.682 2139.38 264.955 Q2142.83 261.205 2148.66 261.205 Q2153.89 261.205 2156.92 264.585 Q2159.98 267.941 2159.98 273.728 M2155.72 272.478 Q2155.67 268.983 2153.75 266.899 Q2151.85 264.816 2148.71 264.816 Q2145.14 264.816 2142.99 266.83 Q2140.86 268.844 2140.54 272.501 L2155.72 272.478 Z" fill="#000000" fill-rule="nonzero" fill-opacity="1" /><path clip-path="url(#clip250)" d="M2166.97 261.83 L2171.23 261.83 L2171.23 287.756 L2166.97 287.756 L2166.97 261.83 M2166.97 251.737 L2171.23 251.737 L2171.23 257.131 L2166.97 257.131 L2166.97 251.737 Z" fill="#000000" fill-rule="nonzero" fill-opacity="1" /><path clip-path="url(#clip250)" d="M2199.84 295.626 L2199.84 298.936 L2175.21 298.936 L2175.21 295.626 L2199.84 295.626 Z" fill="#000000" fill-rule="nonzero" fill-opacity="1" /><path clip-path="url(#clip250)" d="M2215.63 274.723 Q2210.47 274.723 2208.48 275.904 Q2206.48 277.084 2206.48 279.932 Q2206.48 282.2 2207.97 283.543 Q2209.47 284.862 2212.04 284.862 Q2215.58 284.862 2217.71 282.362 Q2219.86 279.839 2219.86 275.672 L2219.86 274.723 L2215.63 274.723 M2224.12 272.964 L2224.12 287.756 L2219.86 287.756 L2219.86 283.821 Q2218.41 286.182 2216.23 287.316 Q2214.05 288.427 2210.91 288.427 Q2206.92 288.427 2204.56 286.205 Q2202.23 283.959 2202.23 280.209 Q2202.23 275.834 2205.14 273.612 Q2208.08 271.39 2213.89 271.39 L2219.86 271.39 L2219.86 270.973 Q2219.86 268.034 2217.92 266.436 Q2216 264.816 2212.5 264.816 Q2210.28 264.816 2208.17 265.348 Q2206.07 265.881 2204.12 266.946 L2204.12 263.01 Q2206.46 262.108 2208.66 261.668 Q2210.86 261.205 2212.94 261.205 Q2218.57 261.205 2221.35 264.122 Q2224.12 267.038 2224.12 272.964 Z" fill="#000000" fill-rule="nonzero" fill-opacity="1" /><path clip-path="url(#clip250)" d="M2232.9 251.737 L2237.16 251.737 L2237.16 287.756 L2232.9 287.756 L2232.9 251.737 Z" fill="#000000" fill-rule="nonzero" fill-opacity="1" /><path clip-path="url(#clip250)" d="M2250.28 254.469 L2250.28 261.83 L2259.05 261.83 L2259.05 265.14 L2250.28 265.14 L2250.28 279.214 Q2250.28 282.385 2251.14 283.288 Q2252.02 284.191 2254.68 284.191 L2259.05 284.191 L2259.05 287.756 L2254.68 287.756 Q2249.75 287.756 2247.87 285.927 Q2246 284.075 2246 279.214 L2246 265.14 L2242.87 265.14 L2242.87 261.83 L2246 261.83 L2246 254.469 L2250.28 254.469 Z" fill="#000000" fill-rule="nonzero" fill-opacity="1" /><polyline clip-path="url(#clip250)" style="stroke:#3da44d; stroke-linecap:round; stroke-linejoin:round; stroke-width:4; stroke-opacity:1; fill:none" points="1771.97,322.316 1912.53,322.316 "/>
<path clip-path="url(#clip250)" d="M1935.95 305.036 L1940.63 305.036 L1940.63 335.661 L1957.46 335.661 L1957.46 339.596 L1935.95 339.596 L1935.95 305.036 Z" fill="#000000" fill-rule="nonzero" fill-opacity="1" /><path clip-path="url(#clip250)" d="M1962.37 305.036 L1969.33 305.036 L1978.15 328.554 L1987.02 305.036 L1993.99 305.036 L1993.99 339.596 L1989.43 339.596 L1989.43 309.249 L1980.51 332.952 L1975.81 332.952 L1966.9 309.249 L1966.9 339.596 L1962.37 339.596 L1962.37 305.036 Z" fill="#000000" fill-rule="nonzero" fill-opacity="1" /><path clip-path="url(#clip250)" d="M2022.78 347.466 L2022.78 350.776 L1998.15 350.776 L1998.15 347.466 L2022.78 347.466 Z" fill="#000000" fill-rule="nonzero" fill-opacity="1" /><path clip-path="url(#clip250)" d="M2038.52 309.642 L2032.18 326.841 L2044.89 326.841 L2038.52 309.642 M2035.88 305.036 L2041.18 305.036 L2054.36 339.596 L2049.49 339.596 L2046.35 330.73 L2030.77 330.73 L2027.62 339.596 L2022.69 339.596 L2035.88 305.036 Z" fill="#000000" fill-rule="nonzero" fill-opacity="1" /><path clip-path="url(#clip250)" d="M2080.77 323.948 L2080.77 339.596 L2076.51 339.596 L2076.51 324.087 Q2076.51 320.406 2075.07 318.577 Q2073.64 316.749 2070.77 316.749 Q2067.32 316.749 2065.33 318.948 Q2063.34 321.147 2063.34 324.943 L2063.34 339.596 L2059.05 339.596 L2059.05 313.67 L2063.34 313.67 L2063.34 317.698 Q2064.86 315.36 2066.92 314.202 Q2069.01 313.045 2071.72 313.045 Q2076.18 313.045 2078.48 315.823 Q2080.77 318.577 2080.77 323.948 Z" fill="#000000" fill-rule="nonzero" fill-opacity="1" /><path clip-path="url(#clip250)" d="M2106.32 317.605 L2106.32 303.577 L2110.58 303.577 L2110.58 339.596 L2106.32 339.596 L2106.32 335.707 Q2104.98 338.022 2102.92 339.156 Q2100.88 340.267 2098.01 340.267 Q2093.31 340.267 2090.35 336.517 Q2087.41 332.767 2087.41 326.656 Q2087.41 320.545 2090.35 316.795 Q2093.31 313.045 2098.01 313.045 Q2100.88 313.045 2102.92 314.179 Q2104.98 315.29 2106.32 317.605 M2091.81 326.656 Q2091.81 331.355 2093.73 334.04 Q2095.67 336.702 2099.05 336.702 Q2102.43 336.702 2104.38 334.04 Q2106.32 331.355 2106.32 326.656 Q2106.32 321.957 2104.38 319.295 Q2102.43 316.61 2099.05 316.61 Q2095.67 316.61 2093.73 319.295 Q2091.81 321.957 2091.81 326.656 Z" fill="#000000" fill-rule="nonzero" fill-opacity="1" /><path clip-path="url(#clip250)" d="M2134.38 317.651 Q2133.66 317.235 2132.8 317.05 Q2131.97 316.841 2130.95 316.841 Q2127.34 316.841 2125.4 319.202 Q2123.48 321.54 2123.48 325.938 L2123.48 339.596 L2119.19 339.596 L2119.19 313.67 L2123.48 313.67 L2123.48 317.698 Q2124.82 315.337 2126.97 314.202 Q2129.12 313.045 2132.2 313.045 Q2132.64 313.045 2133.17 313.114 Q2133.71 313.161 2134.36 313.276 L2134.38 317.651 Z" fill="#000000" fill-rule="nonzero" fill-opacity="1" /><path clip-path="url(#clip250)" d="M2159.98 325.568 L2159.98 327.651 L2140.4 327.651 Q2140.67 332.049 2143.04 334.364 Q2145.42 336.656 2149.66 336.656 Q2152.11 336.656 2154.4 336.054 Q2156.72 335.452 2158.98 334.249 L2158.98 338.276 Q2156.69 339.248 2154.29 339.758 Q2151.88 340.267 2149.4 340.267 Q2143.2 340.267 2139.56 336.656 Q2135.95 333.045 2135.95 326.887 Q2135.95 320.522 2139.38 316.795 Q2142.83 313.045 2148.66 313.045 Q2153.89 313.045 2156.92 316.425 Q2159.98 319.781 2159.98 325.568 M2155.72 324.318 Q2155.67 320.823 2153.75 318.739 Q2151.85 316.656 2148.71 316.656 Q2145.14 316.656 2142.99 318.67 Q2140.86 320.684 2140.54 324.341 L2155.72 324.318 Z" fill="#000000" fill-rule="nonzero" fill-opacity="1" /><path clip-path="url(#clip250)" d="M2166.97 313.67 L2171.23 313.67 L2171.23 339.596 L2166.97 339.596 L2166.97 313.67 M2166.97 303.577 L2171.23 303.577 L2171.23 308.971 L2166.97 308.971 L2166.97 303.577 Z" fill="#000000" fill-rule="nonzero" fill-opacity="1" /><polyline clip-path="url(#clip250)" style="stroke:#c271d2; stroke-linecap:round; stroke-linejoin:round; stroke-width:4; stroke-opacity:1; fill:none" points="1771.97,374.156 1912.53,374.156 "/>
<path clip-path="url(#clip250)" d="M1935.95 356.876 L1940.63 356.876 L1940.63 387.501 L1957.46 387.501 L1957.46 391.436 L1935.95 391.436 L1935.95 356.876 Z" fill="#000000" fill-rule="nonzero" fill-opacity="1" /><path clip-path="url(#clip250)" d="M1962.37 356.876 L1969.33 356.876 L1978.15 380.394 L1987.02 356.876 L1993.99 356.876 L1993.99 391.436 L1989.43 391.436 L1989.43 361.089 L1980.51 384.792 L1975.81 384.792 L1966.9 361.089 L1966.9 391.436 L1962.37 391.436 L1962.37 356.876 Z" fill="#000000" fill-rule="nonzero" fill-opacity="1" /><path clip-path="url(#clip250)" d="M2022.78 399.306 L2022.78 402.616 L1998.15 402.616 L1998.15 399.306 L2022.78 399.306 Z" fill="#000000" fill-rule="nonzero" fill-opacity="1" /><path clip-path="url(#clip250)" d="M2047.69 358.01 L2047.69 362.57 Q2045.03 361.297 2042.67 360.672 Q2040.3 360.047 2038.11 360.047 Q2034.29 360.047 2032.2 361.528 Q2030.14 363.01 2030.14 365.741 Q2030.14 368.033 2031.51 369.214 Q2032.9 370.371 2036.74 371.089 L2039.56 371.667 Q2044.8 372.663 2047.27 375.186 Q2049.77 377.686 2049.77 381.899 Q2049.77 386.922 2046.39 389.514 Q2043.04 392.107 2036.53 392.107 Q2034.08 392.107 2031.3 391.551 Q2028.55 390.996 2025.58 389.908 L2025.58 385.093 Q2028.43 386.69 2031.16 387.501 Q2033.89 388.311 2036.53 388.311 Q2040.54 388.311 2042.71 386.737 Q2044.89 385.163 2044.89 382.246 Q2044.89 379.7 2043.31 378.264 Q2041.76 376.829 2038.2 376.112 L2035.35 375.556 Q2030.12 374.515 2027.78 372.292 Q2025.44 370.07 2025.44 366.112 Q2025.44 361.528 2028.66 358.89 Q2031.9 356.251 2037.57 356.251 Q2040 356.251 2042.53 356.691 Q2045.05 357.13 2047.69 358.01 Z" fill="#000000" fill-rule="nonzero" fill-opacity="1" /><path clip-path="url(#clip250)" d="M2061.74 360.718 L2061.74 373.704 L2067.62 373.704 Q2070.88 373.704 2072.67 372.015 Q2074.45 370.325 2074.45 367.2 Q2074.45 364.098 2072.67 362.408 Q2070.88 360.718 2067.62 360.718 L2061.74 360.718 M2057.06 356.876 L2067.62 356.876 Q2073.43 356.876 2076.39 359.515 Q2079.38 362.13 2079.38 367.2 Q2079.38 372.315 2076.39 374.931 Q2073.43 377.547 2067.62 377.547 L2061.74 377.547 L2061.74 391.436 L2057.06 391.436 L2057.06 356.876 Z" fill="#000000" fill-rule="nonzero" fill-opacity="1" /><path clip-path="url(#clip250)" d="M2109.22 386.505 L2109.22 377.223 L2101.58 377.223 L2101.58 373.38 L2113.85 373.38 L2113.85 388.218 Q2111.14 390.139 2107.87 391.135 Q2104.61 392.107 2100.91 392.107 Q2092.8 392.107 2088.22 387.385 Q2083.66 382.639 2083.66 374.19 Q2083.66 365.718 2088.22 360.996 Q2092.8 356.251 2100.91 356.251 Q2104.29 356.251 2107.32 357.084 Q2110.37 357.917 2112.94 359.538 L2112.94 364.515 Q2110.35 362.316 2107.43 361.204 Q2104.52 360.093 2101.3 360.093 Q2094.96 360.093 2091.76 363.635 Q2088.59 367.177 2088.59 374.19 Q2088.59 381.181 2091.76 384.723 Q2094.96 388.264 2101.3 388.264 Q2103.78 388.264 2105.72 387.848 Q2107.67 387.408 2109.22 386.505 Z" fill="#000000" fill-rule="nonzero" fill-opacity="1" /><path clip-path="url(#clip250)" d="M2141.9 399.306 L2141.9 402.616 L2117.27 402.616 L2117.27 399.306 L2141.9 399.306 Z" fill="#000000" fill-rule="nonzero" fill-opacity="1" /><path clip-path="url(#clip250)" d="M2157.69 378.403 Q2152.53 378.403 2150.54 379.584 Q2148.54 380.764 2148.54 383.612 Q2148.54 385.88 2150.03 387.223 Q2151.53 388.542 2154.1 388.542 Q2157.64 388.542 2159.77 386.042 Q2161.92 383.519 2161.92 379.352 L2161.92 378.403 L2157.69 378.403 M2166.18 376.644 L2166.18 391.436 L2161.92 391.436 L2161.92 387.501 Q2160.47 389.862 2158.29 390.996 Q2156.11 392.107 2152.97 392.107 Q2148.98 392.107 2146.62 389.885 Q2144.29 387.639 2144.29 383.889 Q2144.29 379.514 2147.2 377.292 Q2150.14 375.07 2155.95 375.07 L2161.92 375.07 L2161.92 374.653 Q2161.92 371.714 2159.98 370.116 Q2158.06 368.496 2154.56 368.496 Q2152.34 368.496 2150.23 369.028 Q2148.13 369.561 2146.18 370.626 L2146.18 366.69 Q2148.52 365.788 2150.72 365.348 Q2152.92 364.885 2155 364.885 Q2160.63 364.885 2163.41 367.802 Q2166.18 370.718 2166.18 376.644 Z" fill="#000000" fill-rule="nonzero" fill-opacity="1" /><path clip-path="url(#clip250)" d="M2174.96 355.417 L2179.22 355.417 L2179.22 391.436 L2174.96 391.436 L2174.96 355.417 Z" fill="#000000" fill-rule="nonzero" fill-opacity="1" /><path clip-path="url(#clip250)" d="M2192.34 358.149 L2192.34 365.51 L2201.11 365.51 L2201.11 368.82 L2192.34 368.82 L2192.34 382.894 Q2192.34 386.065 2193.2 386.968 Q2194.08 387.871 2196.74 387.871 L2201.11 387.871 L2201.11 391.436 L2196.74 391.436 Q2191.81 391.436 2189.93 389.607 Q2188.06 387.755 2188.06 382.894 L2188.06 368.82 L2184.93 368.82 L2184.93 365.51 L2188.06 365.51 L2188.06 358.149 L2192.34 358.149 Z" fill="#000000" fill-rule="nonzero" fill-opacity="1" /><polyline clip-path="url(#clip250)" style="stroke:#ac8d18; stroke-linecap:round; stroke-linejoin:round; stroke-width:4; stroke-opacity:1; fill:none" points="1771.97,425.996 1912.53,425.996 "/>
<path clip-path="url(#clip250)" d="M1935.95 408.716 L1940.63 408.716 L1940.63 439.341 L1957.46 439.341 L1957.46 443.276 L1935.95 443.276 L1935.95 408.716 Z" fill="#000000" fill-rule="nonzero" fill-opacity="1" /><path clip-path="url(#clip250)" d="M1962.37 408.716 L1969.33 408.716 L1978.15 432.234 L1987.02 408.716 L1993.99 408.716 L1993.99 443.276 L1989.43 443.276 L1989.43 412.929 L1980.51 436.632 L1975.81 436.632 L1966.9 412.929 L1966.9 443.276 L1962.37 443.276 L1962.37 408.716 Z" fill="#000000" fill-rule="nonzero" fill-opacity="1" /></svg>
