<?xml version="1.0" encoding="utf-8"?>
<svg xmlns="http://www.w3.org/2000/svg" xmlns:xlink="http://www.w3.org/1999/xlink" width="600" height="400" viewBox="0 0 2400 1600">
<defs>
  <clipPath id="clip450">
    <rect x="0" y="0" width="2400" height="1600"/>
  </clipPath>
</defs>
<path clip-path="url(#clip450)" d="M0 1600 L2400 1600 L2400 0 L0 0  Z" fill="#ffffff" fill-rule="evenodd" fill-opacity="1"/>
<defs>
  <clipPath id="clip451">
    <rect x="480" y="0" width="1681" height="1600"/>
  </clipPath>
</defs>
<path clip-path="url(#clip450)" d="M251.842 1423.18 L2352.76 1423.18 L2352.76 123.472 L251.842 123.472  Z" fill="#ffffff" fill-rule="evenodd" fill-opacity="1"/>
<defs>
  <clipPath id="clip452">
    <rect x="251" y="123" width="2102" height="1301"/>
  </clipPath>
</defs>
<polyline clip-path="url(#clip452)" style="stroke:#000000; stroke-linecap:round; stroke-linejoin:round; stroke-width:2; stroke-opacity:0.1; fill:none" points="531.524,1423.18 531.524,123.472 "/>
<polyline clip-path="url(#clip452)" style="stroke:#000000; stroke-linecap:round; stroke-linejoin:round; stroke-width:2; stroke-opacity:0.1; fill:none" points="971.967,1423.18 971.967,123.472 "/>
<polyline clip-path="url(#clip452)" style="stroke:#000000; stroke-linecap:round; stroke-linejoin:round; stroke-width:2; stroke-opacity:0.1; fill:none" points="1412.41,1423.18 1412.41,123.472 "/>
<polyline clip-path="url(#clip452)" style="stroke:#000000; stroke-linecap:round; stroke-linejoin:round; stroke-width:2; stroke-opacity:0.1; fill:none" points="1852.85,1423.18 1852.85,123.472 "/>
<polyline clip-path="url(#clip452)" style="stroke:#000000; stroke-linecap:round; stroke-linejoin:round; stroke-width:2; stroke-opacity:0.1; fill:none" points="2293.3,1423.18 2293.3,123.472 "/>
<polyline clip-path="url(#clip450)" style="stroke:#000000; stroke-linecap:round; stroke-linejoin:round; stroke-width:4; stroke-opacity:1; fill:none" points="251.842,1423.18 2352.76,1423.18 "/>
<polyline clip-path="url(#clip450)" style="stroke:#000000; stroke-linecap:round; stroke-linejoin:round; stroke-width:4; stroke-opacity:1; fill:none" points="531.524,1423.18 531.524,1404.28 "/>
<polyline clip-path="url(#clip450)" style="stroke:#000000; stroke-linecap:round; stroke-linejoin:round; stroke-width:4; stroke-opacity:1; fill:none" points="971.967,1423.18 971.967,1404.28 "/>
<polyline clip-path="url(#clip450)" style="stroke:#000000; stroke-linecap:round; stroke-linejoin:round; stroke-width:4; stroke-opacity:1; fill:none" points="1412.41,1423.18 1412.41,1404.28 "/>
<polyline clip-path="url(#clip450)" style="stroke:#000000; stroke-linecap:round; stroke-linejoin:round; stroke-width:4; stroke-opacity:1; fill:none" points="1852.85,1423.18 1852.85,1404.28 "/>
<polyline clip-path="url(#clip450)" style="stroke:#000000; stroke-linecap:round; stroke-linejoin:round; stroke-width:4; stroke-opacity:1; fill:none" points="2293.3,1423.18 2293.3,1404.28 "/>
<path clip-path="url(#clip450)" d="M526.177 1481.64 L542.496 1481.64 L542.496 1485.58 L520.552 1485.58 L520.552 1481.64 Q523.214 1478.89 527.797 1474.26 Q532.403 1469.61 533.584 1468.27 Q535.829 1465.74 536.709 1464.01 Q537.612 1462.25 537.612 1460.56 Q537.612 1457.8 535.667 1456.07 Q533.746 1454.33 530.644 1454.33 Q528.445 1454.33 525.991 1455.09 Q523.561 1455.86 520.783 1457.41 L520.783 1452.69 Q523.607 1451.55 526.061 1450.97 Q528.514 1450.39 530.552 1450.39 Q535.922 1450.39 539.116 1453.08 Q542.311 1455.77 542.311 1460.26 Q542.311 1462.39 541.501 1464.31 Q540.713 1466.2 538.607 1468.8 Q538.028 1469.47 534.926 1472.69 Q531.825 1475.88 526.177 1481.64 Z" fill="#000000" fill-rule="nonzero" fill-opacity="1" /><path clip-path="url(#clip450)" d="M974.976 1455.09 L963.171 1473.54 L974.976 1473.54 L974.976 1455.09 M973.749 1451.02 L979.629 1451.02 L979.629 1473.54 L984.559 1473.54 L984.559 1477.43 L979.629 1477.43 L979.629 1485.58 L974.976 1485.58 L974.976 1477.43 L959.374 1477.43 L959.374 1472.92 L973.749 1451.02 Z" fill="#000000" fill-rule="nonzero" fill-opacity="1" /><path clip-path="url(#clip450)" d="M1412.81 1466.44 Q1409.67 1466.44 1407.82 1468.59 Q1405.99 1470.74 1405.99 1474.49 Q1405.99 1478.22 1407.82 1480.39 Q1409.67 1482.55 1412.81 1482.55 Q1415.96 1482.55 1417.79 1480.39 Q1419.64 1478.22 1419.64 1474.49 Q1419.64 1470.74 1417.79 1468.59 Q1415.96 1466.44 1412.81 1466.44 M1422.1 1451.78 L1422.1 1456.04 Q1420.34 1455.21 1418.53 1454.77 Q1416.75 1454.33 1414.99 1454.33 Q1410.36 1454.33 1407.91 1457.45 Q1405.48 1460.58 1405.13 1466.9 Q1406.5 1464.89 1408.56 1463.82 Q1410.62 1462.73 1413.09 1462.73 Q1418.3 1462.73 1421.31 1465.9 Q1424.34 1469.05 1424.34 1474.49 Q1424.34 1479.82 1421.19 1483.03 Q1418.05 1486.25 1412.81 1486.25 Q1406.82 1486.25 1403.65 1481.67 Q1400.48 1477.06 1400.48 1468.33 Q1400.48 1460.14 1404.37 1455.28 Q1408.25 1450.39 1414.81 1450.39 Q1416.56 1450.39 1418.35 1450.74 Q1420.15 1451.09 1422.1 1451.78 Z" fill="#000000" fill-rule="nonzero" fill-opacity="1" /><path clip-path="url(#clip450)" d="M1852.85 1469.17 Q1849.52 1469.17 1847.6 1470.95 Q1845.7 1472.73 1845.7 1475.86 Q1845.7 1478.98 1847.6 1480.77 Q1849.52 1482.55 1852.85 1482.55 Q1856.19 1482.55 1858.11 1480.77 Q1860.03 1478.96 1860.03 1475.86 Q1860.03 1472.73 1858.11 1470.95 Q1856.21 1469.17 1852.85 1469.17 M1848.18 1467.18 Q1845.17 1466.44 1843.48 1464.38 Q1841.81 1462.32 1841.81 1459.35 Q1841.81 1455.21 1844.75 1452.8 Q1847.71 1450.39 1852.85 1450.39 Q1858.02 1450.39 1860.95 1452.8 Q1863.89 1455.21 1863.89 1459.35 Q1863.89 1462.32 1862.2 1464.38 Q1860.54 1466.44 1857.55 1467.18 Q1860.93 1467.96 1862.81 1470.26 Q1864.7 1472.55 1864.7 1475.86 Q1864.7 1480.88 1861.63 1483.57 Q1858.57 1486.25 1852.85 1486.25 Q1847.14 1486.25 1844.06 1483.57 Q1841 1480.88 1841 1475.86 Q1841 1472.55 1842.9 1470.26 Q1844.8 1467.96 1848.18 1467.18 M1846.46 1459.79 Q1846.46 1462.48 1848.13 1463.98 Q1849.82 1465.49 1852.85 1465.49 Q1855.86 1465.49 1857.55 1463.98 Q1859.27 1462.48 1859.27 1459.79 Q1859.27 1457.11 1857.55 1455.6 Q1855.86 1454.1 1852.85 1454.1 Q1849.82 1454.1 1848.13 1455.6 Q1846.46 1457.11 1846.46 1459.79 Z" fill="#000000" fill-rule="nonzero" fill-opacity="1" /><path clip-path="url(#clip450)" d="M2267.98 1481.64 L2275.62 1481.64 L2275.62 1455.28 L2267.31 1456.95 L2267.31 1452.69 L2275.58 1451.02 L2280.25 1451.02 L2280.25 1481.64 L2287.89 1481.64 L2287.89 1485.58 L2267.98 1485.58 L2267.98 1481.64 Z" fill="#000000" fill-rule="nonzero" fill-opacity="1" /><path clip-path="url(#clip450)" d="M2307.34 1454.1 Q2303.72 1454.1 2301.9 1457.66 Q2300.09 1461.2 2300.09 1468.33 Q2300.09 1475.44 2301.9 1479.01 Q2303.72 1482.55 2307.34 1482.55 Q2310.97 1482.55 2312.78 1479.01 Q2314.6 1475.44 2314.6 1468.33 Q2314.6 1461.2 2312.78 1457.66 Q2310.97 1454.1 2307.34 1454.1 M2307.34 1450.39 Q2313.15 1450.39 2316.2 1455 Q2319.28 1459.58 2319.28 1468.33 Q2319.28 1477.06 2316.2 1481.67 Q2313.15 1486.25 2307.34 1486.25 Q2301.53 1486.25 2298.45 1481.67 Q2295.39 1477.06 2295.39 1468.33 Q2295.39 1459.58 2298.45 1455 Q2301.53 1450.39 2307.34 1450.39 Z" fill="#000000" fill-rule="nonzero" fill-opacity="1" /><path clip-path="url(#clip450)" d="M1286.48 1518.52 L1292.37 1518.52 L1292.37 1547.77 L1309.84 1532.4 L1317.32 1532.4 L1298.42 1549.07 L1318.12 1568.04 L1310.48 1568.04 L1292.37 1550.63 L1292.37 1568.04 L1286.48 1568.04 L1286.48 1518.52 Z" fill="#000000" fill-rule="nonzero" fill-opacity="1" /><polyline clip-path="url(#clip452)" style="stroke:#000000; stroke-linecap:round; stroke-linejoin:round; stroke-width:2; stroke-opacity:0.1; fill:none" points="251.842,1032.54 2352.76,1032.54 "/>
<polyline clip-path="url(#clip452)" style="stroke:#000000; stroke-linecap:round; stroke-linejoin:round; stroke-width:2; stroke-opacity:0.1; fill:none" points="251.842,373.343 2352.76,373.343 "/>
<polyline clip-path="url(#clip450)" style="stroke:#000000; stroke-linecap:round; stroke-linejoin:round; stroke-width:4; stroke-opacity:1; fill:none" points="251.842,1423.18 251.842,123.472 "/>
<polyline clip-path="url(#clip450)" style="stroke:#000000; stroke-linecap:round; stroke-linejoin:round; stroke-width:4; stroke-opacity:1; fill:none" points="251.842,1032.54 270.74,1032.54 "/>
<polyline clip-path="url(#clip450)" style="stroke:#000000; stroke-linecap:round; stroke-linejoin:round; stroke-width:4; stroke-opacity:1; fill:none" points="251.842,373.343 270.74,373.343 "/>
<path clip-path="url(#clip450)" d="M114.931 1052.33 L122.57 1052.33 L122.57 1025.97 L114.26 1027.63 L114.26 1023.37 L122.524 1021.71 L127.2 1021.71 L127.2 1052.33 L134.839 1052.33 L134.839 1056.27 L114.931 1056.27 L114.931 1052.33 Z" fill="#000000" fill-rule="nonzero" fill-opacity="1" /><path clip-path="url(#clip450)" d="M154.283 1024.78 Q150.672 1024.78 148.843 1028.35 Q147.038 1031.89 147.038 1039.02 Q147.038 1046.13 148.843 1049.69 Q150.672 1053.23 154.283 1053.23 Q157.917 1053.23 159.723 1049.69 Q161.552 1046.13 161.552 1039.02 Q161.552 1031.89 159.723 1028.35 Q157.917 1024.78 154.283 1024.78 M154.283 1021.08 Q160.093 1021.08 163.149 1025.69 Q166.227 1030.27 166.227 1039.02 Q166.227 1047.75 163.149 1052.35 Q160.093 1056.94 154.283 1056.94 Q148.473 1056.94 145.394 1052.35 Q142.339 1047.75 142.339 1039.02 Q142.339 1030.27 145.394 1025.69 Q148.473 1021.08 154.283 1021.08 Z" fill="#000000" fill-rule="nonzero" fill-opacity="1" /><path clip-path="url(#clip450)" d="M166.227 1015.18 L190.339 1015.18 L190.339 1018.38 L166.227 1018.38 L166.227 1015.18 Z" fill="#000000" fill-rule="nonzero" fill-opacity="1" /><path clip-path="url(#clip450)" d="M210.05 1013.72 Q212.777 1014.3 214.3 1016.14 Q215.842 1017.98 215.842 1020.69 Q215.842 1024.85 212.984 1027.13 Q210.125 1029.4 204.859 1029.4 Q203.091 1029.4 201.21 1029.04 Q199.348 1028.71 197.354 1028.01 L197.354 1024.34 Q198.934 1025.26 200.815 1025.73 Q202.696 1026.2 204.746 1026.2 Q208.319 1026.2 210.181 1024.79 Q212.062 1023.38 212.062 1020.69 Q212.062 1018.21 210.313 1016.82 Q208.583 1015.41 205.479 1015.41 L202.207 1015.41 L202.207 1012.29 L205.63 1012.29 Q208.432 1012.29 209.918 1011.18 Q211.404 1010.05 211.404 1007.94 Q211.404 1005.78 209.861 1004.63 Q208.338 1003.47 205.479 1003.47 Q203.918 1003.47 202.132 1003.8 Q200.345 1004.14 198.201 1004.86 L198.201 1001.47 Q200.364 1000.87 202.244 1000.57 Q204.144 1000.27 205.818 1000.27 Q210.144 1000.27 212.664 1002.24 Q215.184 1004.2 215.184 1007.55 Q215.184 1009.88 213.849 1011.5 Q212.513 1013.09 210.05 1013.72 Z" fill="#000000" fill-rule="nonzero" fill-opacity="1" /><path clip-path="url(#clip450)" d="M145.137 393.136 L152.776 393.136 L152.776 366.77 L144.465 368.437 L144.465 364.178 L152.729 362.511 L157.405 362.511 L157.405 393.136 L165.044 393.136 L165.044 397.071 L145.137 397.071 L145.137 393.136 Z" fill="#000000" fill-rule="nonzero" fill-opacity="1" /><path clip-path="url(#clip450)" d="M184.488 365.59 Q180.877 365.59 179.049 369.154 Q177.243 372.696 177.243 379.826 Q177.243 386.932 179.049 390.497 Q180.877 394.038 184.488 394.038 Q188.123 394.038 189.928 390.497 Q191.757 386.932 191.757 379.826 Q191.757 372.696 189.928 369.154 Q188.123 365.59 184.488 365.59 M184.488 361.886 Q190.299 361.886 193.354 366.492 Q196.433 371.076 196.433 379.826 Q196.433 388.552 193.354 393.159 Q190.299 397.742 184.488 397.742 Q178.678 397.742 175.6 393.159 Q172.544 388.552 172.544 379.826 Q172.544 371.076 175.6 366.492 Q178.678 361.886 184.488 361.886 Z" fill="#000000" fill-rule="nonzero" fill-opacity="1" /><path clip-path="url(#clip450)" d="M206.138 344.082 Q203.204 344.082 201.718 346.978 Q200.251 349.856 200.251 355.649 Q200.251 361.423 201.718 364.319 Q203.204 367.197 206.138 367.197 Q209.09 367.197 210.557 364.319 Q212.043 361.423 212.043 355.649 Q212.043 349.856 210.557 346.978 Q209.09 344.082 206.138 344.082 M206.138 341.073 Q210.858 341.073 213.341 344.815 Q215.842 348.539 215.842 355.649 Q215.842 362.739 213.341 366.482 Q210.858 370.206 206.138 370.206 Q201.417 370.206 198.915 366.482 Q196.433 362.739 196.433 355.649 Q196.433 348.539 198.915 344.815 Q201.417 341.073 206.138 341.073 Z" fill="#000000" fill-rule="nonzero" fill-opacity="1" /><path clip-path="url(#clip450)" d="M32.4621 801.797 Q32.4621 806.507 36.1542 809.244 Q39.8145 811.982 46.212 811.982 Q52.6095 811.982 56.3017 809.276 Q59.9619 806.539 59.9619 801.797 Q59.9619 797.118 56.2698 794.381 Q52.5777 791.643 46.212 791.643 Q39.8781 791.643 36.186 794.381 Q32.4621 797.118 32.4621 801.797 M27.4968 801.797 Q27.4968 794.158 32.4621 789.797 Q37.4273 785.437 46.212 785.437 Q54.9649 785.437 59.9619 789.797 Q64.9272 794.158 64.9272 801.797 Q64.9272 809.467 59.9619 813.828 Q54.9649 818.156 46.212 818.156 Q37.4273 818.156 32.4621 813.828 Q27.4968 809.467 27.4968 801.797 Z" fill="#000000" fill-rule="nonzero" fill-opacity="1" /><path clip-path="url(#clip450)" d="M46.212 750.139 Q39.7508 750.139 36.0905 752.812 Q32.3984 755.454 32.3984 760.101 Q32.3984 764.748 36.0905 767.422 Q39.7508 770.064 46.212 770.064 Q52.6732 770.064 56.3653 767.422 Q60.0256 764.748 60.0256 760.101 Q60.0256 755.454 56.3653 752.812 Q52.6732 750.139 46.212 750.139 M33.7671 770.064 Q30.5842 768.218 29.0564 765.417 Q27.4968 762.584 27.4968 758.669 Q27.4968 752.176 32.6531 748.134 Q37.8093 744.06 46.212 744.06 Q54.6147 744.06 59.771 748.134 Q64.9272 752.176 64.9272 758.669 Q64.9272 762.584 63.3994 765.417 Q61.8398 768.218 58.657 770.064 L64.0042 770.064 L64.0042 775.952 L14.479 775.952 L14.479 770.064 L33.7671 770.064 Z" fill="#000000" fill-rule="nonzero" fill-opacity="1" /><path clip-path="url(#clip450)" d="M28.3562 734.352 L28.3562 728.495 L64.6407 728.495 Q71.452 728.495 74.5076 731.105 Q77.5631 733.684 77.5631 739.445 L77.5631 741.673 L72.5979 741.673 L72.5979 740.113 Q72.5979 736.771 71.0383 735.561 Q69.5105 734.352 64.6407 734.352 L28.3562 734.352 M14.479 734.352 L14.479 728.495 L21.895 728.495 L21.895 734.352 L14.479 734.352 Z" fill="#000000" fill-rule="nonzero" fill-opacity="1" /><path clip-path="url(#clip450)" d="M933.566 65.7705 L933.566 89.8329 L926.071 89.8329 L926.071 27.2059 L933.566 27.2059 L933.566 34.0924 Q935.915 30.0415 939.48 28.0971 Q943.085 26.1121 948.068 26.1121 Q956.332 26.1121 961.476 32.6746 Q966.661 39.2371 966.661 49.9314 Q966.661 60.6258 961.476 67.1883 Q956.332 73.7508 948.068 73.7508 Q943.085 73.7508 939.48 71.8063 Q935.915 69.8214 933.566 65.7705 M958.924 49.9314 Q958.924 41.7081 955.521 37.0496 Q952.159 32.3505 946.245 32.3505 Q940.331 32.3505 936.928 37.0496 Q933.566 41.7081 933.566 49.9314 Q933.566 58.1548 936.928 62.8538 Q940.331 67.5124 946.245 67.5124 Q952.159 67.5124 955.521 62.8538 Q958.924 58.1548 958.924 49.9314 Z" fill="#000000" fill-rule="nonzero" fill-opacity="1" /><path clip-path="url(#clip450)" d="M1005.31 34.1734 Q1004.05 33.4443 1002.55 33.1202 Q1001.09 32.7556 999.312 32.7556 Q992.992 32.7556 989.59 36.8875 Q986.227 40.9789 986.227 48.6757 L986.227 72.576 L978.733 72.576 L978.733 27.2059 L986.227 27.2059 L986.227 34.2544 Q988.577 30.1225 992.344 28.1376 Q996.112 26.1121 1001.5 26.1121 Q1002.27 26.1121 1003.2 26.2337 Q1004.13 26.3147 1005.27 26.5172 L1005.31 34.1734 Z" fill="#000000" fill-rule="nonzero" fill-opacity="1" /><path clip-path="url(#clip450)" d="M1028.88 32.4315 Q1022.89 32.4315 1019.4 37.1306 Q1015.92 41.7891 1015.92 49.9314 Q1015.92 58.0738 1019.36 62.7728 Q1022.85 67.4314 1028.88 67.4314 Q1034.84 67.4314 1038.32 62.7323 Q1041.81 58.0333 1041.81 49.9314 Q1041.81 41.8701 1038.32 37.1711 Q1034.84 32.4315 1028.88 32.4315 M1028.88 26.1121 Q1038.61 26.1121 1044.16 32.4315 Q1049.71 38.7509 1049.71 49.9314 Q1049.71 61.0714 1044.16 67.4314 Q1038.61 73.7508 1028.88 73.7508 Q1019.12 73.7508 1013.57 67.4314 Q1008.06 61.0714 1008.06 49.9314 Q1008.06 38.7509 1013.57 32.4315 Q1019.12 26.1121 1028.88 26.1121 Z" fill="#000000" fill-rule="nonzero" fill-opacity="1" /><path clip-path="url(#clip450)" d="M1094.63 49.9314 Q1094.63 41.7081 1091.23 37.0496 Q1087.86 32.3505 1081.95 32.3505 Q1076.04 32.3505 1072.63 37.0496 Q1069.27 41.7081 1069.27 49.9314 Q1069.27 58.1548 1072.63 62.8538 Q1076.04 67.5124 1081.95 67.5124 Q1087.86 67.5124 1091.23 62.8538 Q1094.63 58.1548 1094.63 49.9314 M1069.27 34.0924 Q1071.62 30.0415 1075.19 28.0971 Q1078.79 26.1121 1083.77 26.1121 Q1092.04 26.1121 1097.18 32.6746 Q1102.37 39.2371 1102.37 49.9314 Q1102.37 60.6258 1097.18 67.1883 Q1092.04 73.7508 1083.77 73.7508 Q1078.79 73.7508 1075.19 71.8063 Q1071.62 69.8214 1069.27 65.7705 L1069.27 72.576 L1061.78 72.576 L1061.78 9.54393 L1069.27 9.54393 L1069.27 34.0924 Z" fill="#000000" fill-rule="nonzero" fill-opacity="1" /><path clip-path="url(#clip450)" d="M1114.72 9.54393 L1122.18 9.54393 L1122.18 72.576 L1114.72 72.576 L1114.72 9.54393 Z" fill="#000000" fill-rule="nonzero" fill-opacity="1" /><path clip-path="url(#clip450)" d="M1176.58 48.0275 L1176.58 51.6733 L1142.31 51.6733 Q1142.79 59.3701 1146.93 63.421 Q1151.1 67.4314 1158.51 67.4314 Q1162.81 67.4314 1166.82 66.3781 Q1170.87 65.3249 1174.84 63.2184 L1174.84 70.267 Q1170.83 71.9684 1166.61 72.8596 Q1162.4 73.7508 1158.07 73.7508 Q1147.21 73.7508 1140.85 67.4314 Q1134.53 61.1119 1134.53 50.3365 Q1134.53 39.1965 1140.53 32.6746 Q1146.56 26.1121 1156.77 26.1121 Q1165.93 26.1121 1171.23 32.0264 Q1176.58 37.9003 1176.58 48.0275 M1169.13 45.84 Q1169.04 39.7232 1165.68 36.0774 Q1162.36 32.4315 1156.85 32.4315 Q1150.61 32.4315 1146.85 35.9558 Q1143.12 39.4801 1142.55 45.8805 L1169.13 45.84 M1150.45 6.22219 L1161.87 21.3726 L1155.68 21.3726 L1142.47 6.22219 L1150.45 6.22219 Z" fill="#000000" fill-rule="nonzero" fill-opacity="1" /><path clip-path="url(#clip450)" d="M1224.14 35.9153 Q1226.93 30.8922 1230.82 28.5022 Q1234.71 26.1121 1239.98 26.1121 Q1247.07 26.1121 1250.91 31.0947 Q1254.76 36.0368 1254.76 45.1919 L1254.76 72.576 L1247.27 72.576 L1247.27 45.4349 Q1247.27 38.913 1244.96 35.7533 Q1242.65 32.5936 1237.91 32.5936 Q1232.12 32.5936 1228.75 36.4419 Q1225.39 40.2903 1225.39 46.9338 L1225.39 72.576 L1217.9 72.576 L1217.9 45.4349 Q1217.9 38.8725 1215.59 35.7533 Q1213.28 32.5936 1208.46 32.5936 Q1202.75 32.5936 1199.39 36.4824 Q1196.02 40.3308 1196.02 46.9338 L1196.02 72.576 L1188.53 72.576 L1188.53 27.2059 L1196.02 27.2059 L1196.02 34.2544 Q1198.58 30.082 1202.14 28.0971 Q1205.71 26.1121 1210.61 26.1121 Q1215.55 26.1121 1218.99 28.6237 Q1222.48 31.1352 1224.14 35.9153 Z" fill="#000000" fill-rule="nonzero" fill-opacity="1" /><path clip-path="url(#clip450)" d="M1308.44 48.0275 L1308.44 51.6733 L1274.17 51.6733 Q1274.65 59.3701 1278.78 63.421 Q1282.96 67.4314 1290.37 67.4314 Q1294.66 67.4314 1298.67 66.3781 Q1302.72 65.3249 1306.69 63.2184 L1306.69 70.267 Q1302.68 71.9684 1298.47 72.8596 Q1294.26 73.7508 1289.92 73.7508 Q1279.07 73.7508 1272.71 67.4314 Q1266.39 61.1119 1266.39 50.3365 Q1266.39 39.1965 1272.38 32.6746 Q1278.42 26.1121 1288.63 26.1121 Q1297.78 26.1121 1303.09 32.0264 Q1308.44 37.9003 1308.44 48.0275 M1300.98 45.84 Q1300.9 39.7232 1297.54 36.0774 Q1294.22 32.4315 1288.71 32.4315 Q1282.47 32.4315 1278.7 35.9558 Q1274.98 39.4801 1274.41 45.8805 L1300.98 45.84 Z" fill="#000000" fill-rule="nonzero" fill-opacity="1" /><path clip-path="url(#clip450)" d="M1348.95 62.2867 L1357.49 62.2867 L1357.49 72.576 L1348.95 72.576 L1348.95 62.2867 M1348.95 29.6769 L1357.49 29.6769 L1357.49 39.9662 L1348.95 39.9662 L1348.95 29.6769 Z" fill="#000000" fill-rule="nonzero" fill-opacity="1" /><path clip-path="url(#clip450)" d="M1436.69 35.9153 Q1439.48 30.8922 1443.37 28.5022 Q1447.26 26.1121 1452.53 26.1121 Q1459.62 26.1121 1463.46 31.0947 Q1467.31 36.0368 1467.31 45.1919 L1467.31 72.576 L1459.82 72.576 L1459.82 45.4349 Q1459.82 38.913 1457.51 35.7533 Q1455.2 32.5936 1450.46 32.5936 Q1444.67 32.5936 1441.31 36.4419 Q1437.94 40.2903 1437.94 46.9338 L1437.94 72.576 L1430.45 72.576 L1430.45 45.4349 Q1430.45 38.8725 1428.14 35.7533 Q1425.83 32.5936 1421.01 32.5936 Q1415.3 32.5936 1411.94 36.4824 Q1408.57 40.3308 1408.57 46.9338 L1408.57 72.576 L1401.08 72.576 L1401.08 27.2059 L1408.57 27.2059 L1408.57 34.2544 Q1411.13 30.082 1414.69 28.0971 Q1418.26 26.1121 1423.16 26.1121 Q1428.1 26.1121 1431.54 28.6237 Q1435.03 31.1352 1436.69 35.9153 Z" fill="#000000" fill-rule="nonzero" fill-opacity="1" /><path clip-path="url(#clip450)" d="M1512.03 49.3643 Q1512.03 41.2625 1508.67 36.8065 Q1505.35 32.3505 1499.31 32.3505 Q1493.32 32.3505 1489.96 36.8065 Q1486.64 41.2625 1486.64 49.3643 Q1486.64 57.4256 1489.96 61.8816 Q1493.32 66.3376 1499.31 66.3376 Q1505.35 66.3376 1508.67 61.8816 Q1512.03 57.4256 1512.03 49.3643 M1519.49 66.9452 Q1519.49 78.5308 1514.34 84.1616 Q1509.2 89.8329 1498.59 89.8329 Q1494.66 89.8329 1491.17 89.2252 Q1487.69 88.6581 1484.41 87.4428 L1484.41 80.1917 Q1487.69 81.9741 1490.89 82.8248 Q1494.09 83.6755 1497.41 83.6755 Q1504.74 83.6755 1508.39 79.8271 Q1512.03 76.0193 1512.03 68.282 L1512.03 64.5957 Q1509.73 68.6061 1506.12 70.5911 Q1502.52 72.576 1497.49 72.576 Q1489.15 72.576 1484.04 66.2161 Q1478.94 59.8562 1478.94 49.3643 Q1478.94 38.832 1484.04 32.472 Q1489.15 26.1121 1497.49 26.1121 Q1502.52 26.1121 1506.12 28.0971 Q1509.73 30.082 1512.03 34.0924 L1512.03 27.2059 L1519.49 27.2059 L1519.49 66.9452 Z" fill="#000000" fill-rule="nonzero" fill-opacity="1" /><path clip-path="url(#clip450)" d="M1572.56 45.1919 L1572.56 72.576 L1565.1 72.576 L1565.1 45.4349 Q1565.1 38.994 1562.59 35.7938 Q1560.08 32.5936 1555.06 32.5936 Q1549.02 32.5936 1545.54 36.4419 Q1542.05 40.2903 1542.05 46.9338 L1542.05 72.576 L1534.56 72.576 L1534.56 9.54393 L1542.05 9.54393 L1542.05 34.2544 Q1544.73 30.163 1548.33 28.1376 Q1551.98 26.1121 1556.72 26.1121 Q1564.53 26.1121 1568.54 30.9732 Q1572.56 35.7938 1572.56 45.1919 Z" fill="#000000" fill-rule="nonzero" fill-opacity="1" /><path clip-path="url(#clip450)" d="M1589.89 65.6895 L1603.26 65.6895 L1603.26 19.5497 L1588.72 22.4663 L1588.72 15.0127 L1603.18 12.096 L1611.36 12.096 L1611.36 65.6895 L1624.73 65.6895 L1624.73 72.576 L1589.89 72.576 L1589.89 65.6895 Z" fill="#000000" fill-rule="nonzero" fill-opacity="1" /><path clip-path="url(#clip450)" d="M1666.05 39.9662 Q1671.92 41.222 1675.21 45.1919 Q1678.53 49.1618 1678.53 54.9951 Q1678.53 63.9476 1672.37 68.8492 Q1666.21 73.7508 1654.87 73.7508 Q1651.06 73.7508 1647.01 72.9811 Q1643 72.2519 1638.71 70.7531 L1638.71 62.8538 Q1642.11 64.8388 1646.16 65.8515 Q1650.21 66.8642 1654.63 66.8642 Q1662.32 66.8642 1666.33 63.826 Q1670.38 60.7879 1670.38 54.9951 Q1670.38 49.6479 1666.62 46.6502 Q1662.89 43.612 1656.21 43.612 L1649.16 43.612 L1649.16 36.8875 L1656.53 36.8875 Q1662.57 36.8875 1665.77 34.4975 Q1668.97 32.067 1668.97 27.5299 Q1668.97 22.8714 1665.64 20.4004 Q1662.36 17.8888 1656.21 17.8888 Q1652.84 17.8888 1649 18.618 Q1645.15 19.3471 1640.53 20.8865 L1640.53 13.5948 Q1645.19 12.2985 1649.24 11.6504 Q1653.33 11.0023 1656.94 11.0023 Q1666.25 11.0023 1671.68 15.2557 Q1677.11 19.4686 1677.11 26.6793 Q1677.11 31.7024 1674.23 35.1862 Q1671.36 38.6294 1666.05 39.9662 Z" fill="#000000" fill-rule="nonzero" fill-opacity="1" /><polyline clip-path="url(#clip452)" style="stroke:#009af9; stroke-linecap:round; stroke-linejoin:round; stroke-width:4; stroke-opacity:1; fill:none" points="311.302,160.256 531.524,317.936 751.745,460.358 971.967,592.65 1192.19,724.942 1412.41,857.233 1632.63,989.525 1852.85,1121.82 2073.07,1254.11 2293.3,1386.4 "/>
<polyline clip-path="url(#clip452)" style="stroke:#e26f46; stroke-linecap:round; stroke-linejoin:round; stroke-width:4; stroke-opacity:1; fill:none" points="311.302,160.256 531.524,317.936 751.745,460.358 971.967,592.65 1192.19,724.942 1412.41,857.233 1632.63,989.525 1852.85,1121.82 2073.07,1254.11 2293.3,1386.4 "/>
<path clip-path="url(#clip450)" d="M1501.06 322.316 L2282.73 322.316 L2282.73 166.796 L1501.06 166.796  Z" fill="#ffffff" fill-rule="evenodd" fill-opacity="1"/>
<polyline clip-path="url(#clip450)" style="stroke:#000000; stroke-linecap:round; stroke-linejoin:round; stroke-width:4; stroke-opacity:1; fill:none" points="1501.06,322.316 2282.73,322.316 2282.73,166.796 1501.06,166.796 1501.06,322.316 "/>
<polyline clip-path="url(#clip450)" style="stroke:#009af9; stroke-linecap:round; stroke-linejoin:round; stroke-width:4; stroke-opacity:1; fill:none" points="1524.41,218.636 1664.47,218.636 "/>
<path clip-path="url(#clip450)" d="M1687.81 201.356 L1692.49 201.356 L1692.49 231.981 L1709.32 231.981 L1709.32 235.916 L1687.81 235.916 L1687.81 201.356 Z" fill="#000000" fill-rule="nonzero" fill-opacity="1" /><path clip-path="url(#clip450)" d="M1714.22 201.356 L1721.19 201.356 L1730.01 224.874 L1738.88 201.356 L1745.84 201.356 L1745.84 235.916 L1741.28 235.916 L1741.28 205.569 L1732.37 229.272 L1727.67 229.272 L1718.76 205.569 L1718.76 235.916 L1714.22 235.916 L1714.22 201.356 Z" fill="#000000" fill-rule="nonzero" fill-opacity="1" /><path clip-path="url(#clip450)" d="M1774.64 243.786 L1774.64 247.096 L1750.01 247.096 L1750.01 243.786 L1774.64 243.786 Z" fill="#000000" fill-rule="nonzero" fill-opacity="1" /><path clip-path="url(#clip450)" d="M1790.38 205.962 L1784.04 223.161 L1796.75 223.161 L1790.38 205.962 M1787.74 201.356 L1793.04 201.356 L1806.21 235.916 L1801.35 235.916 L1798.2 227.05 L1782.63 227.05 L1779.48 235.916 L1774.55 235.916 L1787.74 201.356 Z" fill="#000000" fill-rule="nonzero" fill-opacity="1" /><path clip-path="url(#clip450)" d="M1832.62 220.268 L1832.62 235.916 L1828.37 235.916 L1828.37 220.407 Q1828.37 216.726 1826.93 214.897 Q1825.5 213.069 1822.63 213.069 Q1819.18 213.069 1817.19 215.268 Q1815.19 217.467 1815.19 221.263 L1815.19 235.916 L1810.91 235.916 L1810.91 209.99 L1815.19 209.99 L1815.19 214.018 Q1816.72 211.68 1818.78 210.522 Q1820.87 209.365 1823.57 209.365 Q1828.04 209.365 1830.33 212.143 Q1832.62 214.897 1832.62 220.268 Z" fill="#000000" fill-rule="nonzero" fill-opacity="1" /><path clip-path="url(#clip450)" d="M1858.18 213.925 L1858.18 199.897 L1862.44 199.897 L1862.44 235.916 L1858.18 235.916 L1858.18 232.027 Q1856.84 234.342 1854.78 235.476 Q1852.74 236.587 1849.87 236.587 Q1845.17 236.587 1842.21 232.837 Q1839.27 229.087 1839.27 222.976 Q1839.27 216.865 1842.21 213.115 Q1845.17 209.365 1849.87 209.365 Q1852.74 209.365 1854.78 210.499 Q1856.84 211.61 1858.18 213.925 M1843.67 222.976 Q1843.67 227.675 1845.59 230.36 Q1847.53 233.022 1850.91 233.022 Q1854.29 233.022 1856.24 230.36 Q1858.18 227.675 1858.18 222.976 Q1858.18 218.277 1856.24 215.615 Q1854.29 212.93 1850.91 212.93 Q1847.53 212.93 1845.59 215.615 Q1843.67 218.277 1843.67 222.976 Z" fill="#000000" fill-rule="nonzero" fill-opacity="1" /><path clip-path="url(#clip450)" d="M1886.24 213.971 Q1885.52 213.555 1884.66 213.37 Q1883.83 213.161 1882.81 213.161 Q1879.2 213.161 1877.25 215.522 Q1875.33 217.86 1875.33 222.258 L1875.33 235.916 L1871.05 235.916 L1871.05 209.99 L1875.33 209.99 L1875.33 214.018 Q1876.68 211.657 1878.83 210.522 Q1880.98 209.365 1884.06 209.365 Q1884.5 209.365 1885.03 209.434 Q1885.56 209.481 1886.21 209.596 L1886.24 213.971 Z" fill="#000000" fill-rule="nonzero" fill-opacity="1" /><path clip-path="url(#clip450)" d="M1911.84 221.888 L1911.84 223.971 L1892.25 223.971 Q1892.53 228.369 1894.89 230.684 Q1897.28 232.976 1901.51 232.976 Q1903.97 232.976 1906.26 232.374 Q1908.57 231.772 1910.84 230.569 L1910.84 234.596 Q1908.55 235.568 1906.14 236.078 Q1903.74 236.587 1901.26 236.587 Q1895.06 236.587 1891.42 232.976 Q1887.81 229.365 1887.81 223.207 Q1887.81 216.842 1891.24 213.115 Q1894.68 209.365 1900.52 209.365 Q1905.75 209.365 1908.78 212.745 Q1911.84 216.101 1911.84 221.888 M1907.58 220.638 Q1907.53 217.143 1905.61 215.059 Q1903.71 212.976 1900.56 212.976 Q1897 212.976 1894.85 214.99 Q1892.72 217.004 1892.39 220.661 L1907.58 220.638 Z" fill="#000000" fill-rule="nonzero" fill-opacity="1" /><path clip-path="url(#clip450)" d="M1918.83 209.99 L1923.09 209.99 L1923.09 235.916 L1918.83 235.916 L1918.83 209.99 M1918.83 199.897 L1923.09 199.897 L1923.09 205.291 L1918.83 205.291 L1918.83 199.897 Z" fill="#000000" fill-rule="nonzero" fill-opacity="1" /><path clip-path="url(#clip450)" d="M1951.7 243.786 L1951.7 247.096 L1927.07 247.096 L1927.07 243.786 L1951.7 243.786 Z" fill="#000000" fill-rule="nonzero" fill-opacity="1" /><path clip-path="url(#clip450)" d="M1967.49 222.883 Q1962.32 222.883 1960.33 224.064 Q1958.34 225.244 1958.34 228.092 Q1958.34 230.36 1959.82 231.703 Q1961.33 233.022 1963.9 233.022 Q1967.44 233.022 1969.57 230.522 Q1971.72 227.999 1971.72 223.832 L1971.72 222.883 L1967.49 222.883 M1975.98 221.124 L1975.98 235.916 L1971.72 235.916 L1971.72 231.981 Q1970.26 234.342 1968.09 235.476 Q1965.91 236.587 1962.76 236.587 Q1958.78 236.587 1956.42 234.365 Q1954.08 232.119 1954.08 228.369 Q1954.08 223.994 1957 221.772 Q1959.94 219.55 1965.75 219.55 L1971.72 219.55 L1971.72 219.133 Q1971.72 216.194 1969.78 214.596 Q1967.86 212.976 1964.36 212.976 Q1962.14 212.976 1960.03 213.508 Q1957.93 214.041 1955.98 215.106 L1955.98 211.17 Q1958.32 210.268 1960.52 209.828 Q1962.72 209.365 1964.8 209.365 Q1970.43 209.365 1973.2 212.282 Q1975.98 215.198 1975.98 221.124 Z" fill="#000000" fill-rule="nonzero" fill-opacity="1" /><path clip-path="url(#clip450)" d="M1984.75 199.897 L1989.01 199.897 L1989.01 235.916 L1984.75 235.916 L1984.75 199.897 Z" fill="#000000" fill-rule="nonzero" fill-opacity="1" /><path clip-path="url(#clip450)" d="M2002.14 202.629 L2002.14 209.99 L2010.91 209.99 L2010.91 213.3 L2002.14 213.3 L2002.14 227.374 Q2002.14 230.545 2002.99 231.448 Q2003.87 232.351 2006.54 232.351 L2010.91 232.351 L2010.91 235.916 L2006.54 235.916 Q2001.61 235.916 1999.73 234.087 Q1997.86 232.235 1997.86 227.374 L1997.86 213.3 L1994.73 213.3 L1994.73 209.99 L1997.86 209.99 L1997.86 202.629 L2002.14 202.629 Z" fill="#000000" fill-rule="nonzero" fill-opacity="1" /><polyline clip-path="url(#clip450)" style="stroke:#e26f46; stroke-linecap:round; stroke-linejoin:round; stroke-width:4; stroke-opacity:1; fill:none" points="1524.41,270.476 1664.47,270.476 "/>
<path clip-path="url(#clip450)" d="M1687.81 253.196 L1692.49 253.196 L1692.49 283.821 L1709.32 283.821 L1709.32 287.756 L1687.81 287.756 L1687.81 253.196 Z" fill="#000000" fill-rule="nonzero" fill-opacity="1" /><path clip-path="url(#clip450)" d="M1714.22 253.196 L1721.19 253.196 L1730.01 276.714 L1738.88 253.196 L1745.84 253.196 L1745.84 287.756 L1741.28 287.756 L1741.28 257.409 L1732.37 281.112 L1727.67 281.112 L1718.76 257.409 L1718.76 287.756 L1714.22 287.756 L1714.22 253.196 Z" fill="#000000" fill-rule="nonzero" fill-opacity="1" /><path clip-path="url(#clip450)" d="M1774.64 295.626 L1774.64 298.936 L1750.01 298.936 L1750.01 295.626 L1774.64 295.626 Z" fill="#000000" fill-rule="nonzero" fill-opacity="1" /><path clip-path="url(#clip450)" d="M1790.38 257.802 L1784.04 275.001 L1796.75 275.001 L1790.38 257.802 M1787.74 253.196 L1793.04 253.196 L1806.21 287.756 L1801.35 287.756 L1798.2 278.89 L1782.63 278.89 L1779.48 287.756 L1774.55 287.756 L1787.74 253.196 Z" fill="#000000" fill-rule="nonzero" fill-opacity="1" /><path clip-path="url(#clip450)" d="M1832.62 272.108 L1832.62 287.756 L1828.37 287.756 L1828.37 272.247 Q1828.37 268.566 1826.93 266.737 Q1825.5 264.909 1822.63 264.909 Q1819.18 264.909 1817.19 267.108 Q1815.19 269.307 1815.19 273.103 L1815.19 287.756 L1810.91 287.756 L1810.91 261.83 L1815.19 261.83 L1815.19 265.858 Q1816.72 263.52 1818.78 262.362 Q1820.87 261.205 1823.57 261.205 Q1828.04 261.205 1830.33 263.983 Q1832.62 266.737 1832.62 272.108 Z" fill="#000000" fill-rule="nonzero" fill-opacity="1" /><path clip-path="url(#clip450)" d="M1858.18 265.765 L1858.18 251.737 L1862.44 251.737 L1862.44 287.756 L1858.18 287.756 L1858.18 283.867 Q1856.84 286.182 1854.78 287.316 Q1852.74 288.427 1849.87 288.427 Q1845.17 288.427 1842.21 284.677 Q1839.27 280.927 1839.27 274.816 Q1839.27 268.705 1842.21 264.955 Q1845.17 261.205 1849.87 261.205 Q1852.74 261.205 1854.78 262.339 Q1856.84 263.45 1858.18 265.765 M1843.67 274.816 Q1843.67 279.515 1845.59 282.2 Q1847.53 284.862 1850.91 284.862 Q1854.29 284.862 1856.24 282.2 Q1858.18 279.515 1858.18 274.816 Q1858.18 270.117 1856.24 267.455 Q1854.29 264.77 1850.91 264.77 Q1847.53 264.77 1845.59 267.455 Q1843.67 270.117 1843.67 274.816 Z" fill="#000000" fill-rule="nonzero" fill-opacity="1" /><path clip-path="url(#clip450)" d="M1886.24 265.811 Q1885.52 265.395 1884.66 265.21 Q1883.83 265.001 1882.81 265.001 Q1879.2 265.001 1877.25 267.362 Q1875.33 269.7 1875.33 274.098 L1875.33 287.756 L1871.05 287.756 L1871.05 261.83 L1875.33 261.83 L1875.33 265.858 Q1876.68 263.497 1878.83 262.362 Q1880.98 261.205 1884.06 261.205 Q1884.5 261.205 1885.03 261.274 Q1885.56 261.321 1886.21 261.436 L1886.24 265.811 Z" fill="#000000" fill-rule="nonzero" fill-opacity="1" /><path clip-path="url(#clip450)" d="M1911.84 273.728 L1911.84 275.811 L1892.25 275.811 Q1892.53 280.209 1894.89 282.524 Q1897.28 284.816 1901.51 284.816 Q1903.97 284.816 1906.26 284.214 Q1908.57 283.612 1910.84 282.409 L1910.84 286.436 Q1908.55 287.408 1906.14 287.918 Q1903.74 288.427 1901.26 288.427 Q1895.06 288.427 1891.42 284.816 Q1887.81 281.205 1887.81 275.047 Q1887.81 268.682 1891.24 264.955 Q1894.68 261.205 1900.52 261.205 Q1905.75 261.205 1908.78 264.585 Q1911.84 267.941 1911.84 273.728 M1907.58 272.478 Q1907.53 268.983 1905.61 266.899 Q1903.71 264.816 1900.56 264.816 Q1897 264.816 1894.85 266.83 Q1892.72 268.844 1892.39 272.501 L1907.58 272.478 Z" fill="#000000" fill-rule="nonzero" fill-opacity="1" /><path clip-path="url(#clip450)" d="M1918.83 261.83 L1923.09 261.83 L1923.09 287.756 L1918.83 287.756 L1918.83 261.83 M1918.83 251.737 L1923.09 251.737 L1923.09 257.131 L1918.83 257.131 L1918.83 251.737 Z" fill="#000000" fill-rule="nonzero" fill-opacity="1" /><path clip-path="url(#clip450)" d="M1951.7 295.626 L1951.7 298.936 L1927.07 298.936 L1927.07 295.626 L1951.7 295.626 Z" fill="#000000" fill-rule="nonzero" fill-opacity="1" /><path clip-path="url(#clip450)" d="M1967.49 274.723 Q1962.32 274.723 1960.33 275.904 Q1958.34 277.084 1958.34 279.932 Q1958.34 282.2 1959.82 283.543 Q1961.33 284.862 1963.9 284.862 Q1967.44 284.862 1969.57 282.362 Q1971.72 279.839 1971.72 275.672 L1971.72 274.723 L1967.49 274.723 M1975.98 272.964 L1975.98 287.756 L1971.72 287.756 L1971.72 283.821 Q1970.26 286.182 1968.09 287.316 Q1965.91 288.427 1962.76 288.427 Q1958.78 288.427 1956.42 286.205 Q1954.08 283.959 1954.08 280.209 Q1954.08 275.834 1957 273.612 Q1959.94 271.39 1965.75 271.39 L1971.72 271.39 L1971.72 270.973 Q1971.72 268.034 1969.78 266.436 Q1967.86 264.816 1964.36 264.816 Q1962.14 264.816 1960.03 265.348 Q1957.93 265.881 1955.98 266.946 L1955.98 263.01 Q1958.32 262.108 1960.52 261.668 Q1962.72 261.205 1964.8 261.205 Q1970.43 261.205 1973.2 264.122 Q1975.98 267.038 1975.98 272.964 Z" fill="#000000" fill-rule="nonzero" fill-opacity="1" /><path clip-path="url(#clip450)" d="M1984.75 251.737 L1989.01 251.737 L1989.01 287.756 L1984.75 287.756 L1984.75 251.737 Z" fill="#000000" fill-rule="nonzero" fill-opacity="1" /><path clip-path="url(#clip450)" d="M2002.14 254.469 L2002.14 261.83 L2010.91 261.83 L2010.91 265.14 L2002.14 265.14 L2002.14 279.214 Q2002.14 282.385 2002.99 283.288 Q2003.87 284.191 2006.54 284.191 L2010.91 284.191 L2010.91 287.756 L2006.54 287.756 Q2001.61 287.756 1999.73 285.927 Q1997.86 284.075 1997.86 279.214 L1997.86 265.14 L1994.73 265.14 L1994.73 261.83 L1997.86 261.83 L1997.86 254.469 L2002.14 254.469 Z" fill="#000000" fill-rule="nonzero" fill-opacity="1" /><path clip-path="url(#clip450)" d="M2036.21 295.626 L2036.21 298.936 L2011.58 298.936 L2011.58 295.626 L2036.21 295.626 Z" fill="#000000" fill-rule="nonzero" fill-opacity="1" /><path clip-path="url(#clip450)" d="M2042.76 274.816 Q2042.76 279.515 2044.68 282.2 Q2046.63 284.862 2050.01 284.862 Q2053.39 284.862 2055.33 282.2 Q2057.28 279.515 2057.28 274.816 Q2057.28 270.117 2055.33 267.455 Q2053.39 264.77 2050.01 264.77 Q2046.63 264.77 2044.68 267.455 Q2042.76 270.117 2042.76 274.816 M2057.28 283.867 Q2055.93 286.182 2053.87 287.316 Q2051.84 288.427 2048.97 288.427 Q2044.27 288.427 2041.3 284.677 Q2038.36 280.927 2038.36 274.816 Q2038.36 268.705 2041.3 264.955 Q2044.27 261.205 2048.97 261.205 Q2051.84 261.205 2053.87 262.339 Q2055.93 263.45 2057.28 265.765 L2057.28 261.83 L2061.54 261.83 L2061.54 297.617 L2057.28 297.617 L2057.28 283.867 Z" fill="#000000" fill-rule="nonzero" fill-opacity="1" /><path clip-path="url(#clip450)" d="M2085.33 265.811 Q2084.61 265.395 2083.76 265.21 Q2082.92 265.001 2081.91 265.001 Q2078.29 265.001 2076.35 267.362 Q2074.43 269.7 2074.43 274.098 L2074.43 287.756 L2070.15 287.756 L2070.15 261.83 L2074.43 261.83 L2074.43 265.858 Q2075.77 263.497 2077.92 262.362 Q2080.08 261.205 2083.16 261.205 Q2083.6 261.205 2084.13 261.274 Q2084.66 261.321 2085.31 261.436 L2085.33 265.811 Z" fill="#000000" fill-rule="nonzero" fill-opacity="1" /><path clip-path="url(#clip450)" d="M2109.15 266.807 Q2110.75 263.936 2112.97 262.571 Q2115.19 261.205 2118.2 261.205 Q2122.25 261.205 2124.45 264.052 Q2126.65 266.876 2126.65 272.108 L2126.65 287.756 L2122.37 287.756 L2122.37 272.247 Q2122.37 268.52 2121.05 266.714 Q2119.73 264.909 2117.02 264.909 Q2113.71 264.909 2111.79 267.108 Q2109.87 269.307 2109.87 273.103 L2109.87 287.756 L2105.59 287.756 L2105.59 272.247 Q2105.59 268.497 2104.27 266.714 Q2102.95 264.909 2100.19 264.909 Q2096.93 264.909 2095.01 267.131 Q2093.09 269.33 2093.09 273.103 L2093.09 287.756 L2088.8 287.756 L2088.8 261.83 L2093.09 261.83 L2093.09 265.858 Q2094.54 263.473 2096.58 262.339 Q2098.62 261.205 2101.42 261.205 Q2104.24 261.205 2106.21 262.64 Q2108.2 264.075 2109.15 266.807 Z" fill="#000000" fill-rule="nonzero" fill-opacity="1" /><path clip-path="url(#clip450)" d="M2134.71 277.524 L2134.71 261.83 L2138.97 261.83 L2138.97 277.362 Q2138.97 281.043 2140.4 282.895 Q2141.84 284.723 2144.71 284.723 Q2148.16 284.723 2150.15 282.524 Q2152.16 280.325 2152.16 276.529 L2152.16 261.83 L2156.42 261.83 L2156.42 287.756 L2152.16 287.756 L2152.16 283.774 Q2150.61 286.135 2148.55 287.293 Q2146.51 288.427 2143.8 288.427 Q2139.34 288.427 2137.02 285.649 Q2134.71 282.871 2134.71 277.524 M2145.42 261.205 L2145.42 261.205 Z" fill="#000000" fill-rule="nonzero" fill-opacity="1" /><path clip-path="url(#clip450)" d="M2185.38 266.807 Q2186.97 263.936 2189.2 262.571 Q2191.42 261.205 2194.43 261.205 Q2198.48 261.205 2200.68 264.052 Q2202.88 266.876 2202.88 272.108 L2202.88 287.756 L2198.6 287.756 L2198.6 272.247 Q2198.6 268.52 2197.28 266.714 Q2195.96 264.909 2193.25 264.909 Q2189.94 264.909 2188.02 267.108 Q2186.1 269.307 2186.1 273.103 L2186.1 287.756 L2181.81 287.756 L2181.81 272.247 Q2181.81 268.497 2180.49 266.714 Q2179.17 264.909 2176.42 264.909 Q2173.16 264.909 2171.23 267.131 Q2169.31 269.33 2169.31 273.103 L2169.31 287.756 L2165.03 287.756 L2165.03 261.83 L2169.31 261.83 L2169.31 265.858 Q2170.77 263.473 2172.81 262.339 Q2174.85 261.205 2177.65 261.205 Q2180.47 261.205 2182.44 262.64 Q2184.43 264.075 2185.38 266.807 Z" fill="#000000" fill-rule="nonzero" fill-opacity="1" /><path clip-path="url(#clip450)" d="M2215.49 283.867 L2215.49 297.617 L2211.21 297.617 L2211.21 261.83 L2215.49 261.83 L2215.49 265.765 Q2216.84 263.45 2218.87 262.339 Q2220.93 261.205 2223.78 261.205 Q2228.5 261.205 2231.44 264.955 Q2234.41 268.705 2234.41 274.816 Q2234.41 280.927 2231.44 284.677 Q2228.5 288.427 2223.78 288.427 Q2220.93 288.427 2218.87 287.316 Q2216.84 286.182 2215.49 283.867 M2229.98 274.816 Q2229.98 270.117 2228.04 267.455 Q2226.12 264.77 2222.74 264.77 Q2219.36 264.77 2217.41 267.455 Q2215.49 270.117 2215.49 274.816 Q2215.49 279.515 2217.41 282.2 Q2219.36 284.862 2222.74 284.862 Q2226.12 284.862 2228.04 282.2 Q2229.98 279.515 2229.98 274.816 Z" fill="#000000" fill-rule="nonzero" fill-opacity="1" /><path clip-path="url(#clip450)" d="M2257.99 262.594 L2257.99 266.622 Q2256.19 265.696 2254.24 265.233 Q2252.3 264.77 2250.22 264.77 Q2247.04 264.77 2245.45 265.742 Q2243.87 266.714 2243.87 268.659 Q2243.87 270.14 2245.01 270.997 Q2246.14 271.83 2249.57 272.594 L2251.03 272.918 Q2255.56 273.89 2257.46 275.672 Q2259.38 277.432 2259.38 280.603 Q2259.38 284.214 2256.51 286.321 Q2253.66 288.427 2248.66 288.427 Q2246.58 288.427 2244.31 288.01 Q2242.07 287.617 2239.57 286.807 L2239.57 282.409 Q2241.93 283.635 2244.22 284.26 Q2246.51 284.862 2248.76 284.862 Q2251.77 284.862 2253.39 283.844 Q2255.01 282.802 2255.01 280.927 Q2255.01 279.191 2253.83 278.265 Q2252.67 277.339 2248.71 276.483 L2247.23 276.135 Q2243.27 275.302 2241.51 273.589 Q2239.75 271.853 2239.75 268.844 Q2239.75 265.186 2242.35 263.196 Q2244.94 261.205 2249.71 261.205 Q2252.07 261.205 2254.15 261.552 Q2256.23 261.899 2257.99 262.594 Z" fill="#000000" fill-rule="nonzero" fill-opacity="1" /></svg>
