<?xml version="1.0" encoding="utf-8"?>
<svg xmlns="http://www.w3.org/2000/svg" xmlns:xlink="http://www.w3.org/1999/xlink" width="600" height="400" viewBox="0 0 2400 1600">
<defs>
  <clipPath id="clip410">
    <rect x="0" y="0" width="2400" height="1600"/>
  </clipPath>
</defs>
<path clip-path="url(#clip410)" d="M0 1600 L2400 1600 L2400 0 L0 0  Z" fill="#ffffff" fill-rule="evenodd" fill-opacity="1"/>
<defs>
  <clipPath id="clip411">
    <rect x="480" y="0" width="1681" height="1600"/>
  </clipPath>
</defs>
<path clip-path="url(#clip410)" d="M251.372 1423.18 L2352.76 1423.18 L2352.76 123.472 L251.372 123.472  Z" fill="#ffffff" fill-rule="evenodd" fill-opacity="1"/>
<defs>
  <clipPath id="clip412">
    <rect x="251" y="123" width="2102" height="1301"/>
  </clipPath>
</defs>
<polyline clip-path="url(#clip412)" style="stroke:#000000; stroke-linecap:round; stroke-linejoin:round; stroke-width:2; stroke-opacity:0.1; fill:none" points="308.863,1423.18 308.863,123.472 "/>
<polyline clip-path="url(#clip412)" style="stroke:#000000; stroke-linecap:round; stroke-linejoin:round; stroke-width:2; stroke-opacity:0.1; fill:none" points="804.472,1423.18 804.472,123.472 "/>
<polyline clip-path="url(#clip412)" style="stroke:#000000; stroke-linecap:round; stroke-linejoin:round; stroke-width:2; stroke-opacity:0.1; fill:none" points="1300.08,1423.18 1300.08,123.472 "/>
<polyline clip-path="url(#clip412)" style="stroke:#000000; stroke-linecap:round; stroke-linejoin:round; stroke-width:2; stroke-opacity:0.1; fill:none" points="1795.69,1423.18 1795.69,123.472 "/>
<polyline clip-path="url(#clip412)" style="stroke:#000000; stroke-linecap:round; stroke-linejoin:round; stroke-width:2; stroke-opacity:0.1; fill:none" points="2291.3,1423.18 2291.3,123.472 "/>
<polyline clip-path="url(#clip410)" style="stroke:#000000; stroke-linecap:round; stroke-linejoin:round; stroke-width:4; stroke-opacity:1; fill:none" points="251.372,1423.18 2352.76,1423.18 "/>
<polyline clip-path="url(#clip410)" style="stroke:#000000; stroke-linecap:round; stroke-linejoin:round; stroke-width:4; stroke-opacity:1; fill:none" points="308.863,1423.18 308.863,1404.28 "/>
<polyline clip-path="url(#clip410)" style="stroke:#000000; stroke-linecap:round; stroke-linejoin:round; stroke-width:4; stroke-opacity:1; fill:none" points="804.472,1423.18 804.472,1404.28 "/>
<polyline clip-path="url(#clip410)" style="stroke:#000000; stroke-linecap:round; stroke-linejoin:round; stroke-width:4; stroke-opacity:1; fill:none" points="1300.08,1423.18 1300.08,1404.28 "/>
<polyline clip-path="url(#clip410)" style="stroke:#000000; stroke-linecap:round; stroke-linejoin:round; stroke-width:4; stroke-opacity:1; fill:none" points="1795.69,1423.18 1795.69,1404.28 "/>
<polyline clip-path="url(#clip410)" style="stroke:#000000; stroke-linecap:round; stroke-linejoin:round; stroke-width:4; stroke-opacity:1; fill:none" points="2291.3,1423.18 2291.3,1404.28 "/>
<path clip-path="url(#clip410)" d="M308.863 1454.1 Q305.252 1454.1 303.423 1457.66 Q301.618 1461.2 301.618 1468.33 Q301.618 1475.44 303.423 1479.01 Q305.252 1482.55 308.863 1482.55 Q312.497 1482.55 314.303 1479.01 Q316.131 1475.44 316.131 1468.33 Q316.131 1461.2 314.303 1457.66 Q312.497 1454.1 308.863 1454.1 M308.863 1450.39 Q314.673 1450.39 317.729 1455 Q320.807 1459.58 320.807 1468.33 Q320.807 1477.06 317.729 1481.67 Q314.673 1486.25 308.863 1486.25 Q303.053 1486.25 299.974 1481.67 Q296.918 1477.06 296.918 1468.33 Q296.918 1459.58 299.974 1455 Q303.053 1450.39 308.863 1450.39 Z" fill="#000000" fill-rule="nonzero" fill-opacity="1" /><path clip-path="url(#clip410)" d="M768.165 1481.64 L784.484 1481.64 L784.484 1485.58 L762.54 1485.58 L762.54 1481.64 Q765.202 1478.89 769.785 1474.26 Q774.391 1469.61 775.572 1468.27 Q777.817 1465.74 778.697 1464.01 Q779.6 1462.25 779.6 1460.56 Q779.6 1457.8 777.655 1456.07 Q775.734 1454.33 772.632 1454.33 Q770.433 1454.33 767.979 1455.09 Q765.549 1455.86 762.771 1457.41 L762.771 1452.69 Q765.595 1451.55 768.049 1450.97 Q770.503 1450.39 772.54 1450.39 Q777.91 1450.39 781.104 1453.08 Q784.299 1455.77 784.299 1460.26 Q784.299 1462.39 783.489 1464.31 Q782.702 1466.2 780.595 1468.8 Q780.016 1469.47 776.915 1472.69 Q773.813 1475.88 768.165 1481.64 Z" fill="#000000" fill-rule="nonzero" fill-opacity="1" /><path clip-path="url(#clip410)" d="M794.345 1451.02 L812.701 1451.02 L812.701 1454.96 L798.627 1454.96 L798.627 1463.43 Q799.646 1463.08 800.664 1462.92 Q801.683 1462.73 802.701 1462.73 Q808.488 1462.73 811.868 1465.9 Q815.248 1469.08 815.248 1474.49 Q815.248 1480.07 811.775 1483.17 Q808.303 1486.25 801.984 1486.25 Q799.808 1486.25 797.539 1485.88 Q795.294 1485.51 792.887 1484.77 L792.887 1480.07 Q794.97 1481.2 797.192 1481.76 Q799.414 1482.32 801.891 1482.32 Q805.896 1482.32 808.234 1480.21 Q810.572 1478.1 810.572 1474.49 Q810.572 1470.88 808.234 1468.77 Q805.896 1466.67 801.891 1466.67 Q800.016 1466.67 798.141 1467.08 Q796.289 1467.5 794.345 1468.38 L794.345 1451.02 Z" fill="#000000" fill-rule="nonzero" fill-opacity="1" /><path clip-path="url(#clip410)" d="M834.46 1454.1 Q830.849 1454.1 829.021 1457.66 Q827.215 1461.2 827.215 1468.33 Q827.215 1475.44 829.021 1479.01 Q830.849 1482.55 834.46 1482.55 Q838.095 1482.55 839.9 1479.01 Q841.729 1475.44 841.729 1468.33 Q841.729 1461.2 839.9 1457.66 Q838.095 1454.1 834.46 1454.1 M834.46 1450.39 Q840.271 1450.39 843.326 1455 Q846.405 1459.58 846.405 1468.33 Q846.405 1477.06 843.326 1481.67 Q840.271 1486.25 834.46 1486.25 Q828.65 1486.25 825.572 1481.67 Q822.516 1477.06 822.516 1468.33 Q822.516 1459.58 825.572 1455 Q828.65 1450.39 834.46 1450.39 Z" fill="#000000" fill-rule="nonzero" fill-opacity="1" /><path clip-path="url(#clip410)" d="M1259.7 1451.02 L1278.06 1451.02 L1278.06 1454.96 L1263.98 1454.96 L1263.98 1463.43 Q1265 1463.08 1266.02 1462.92 Q1267.04 1462.73 1268.06 1462.73 Q1273.84 1462.73 1277.22 1465.9 Q1280.6 1469.08 1280.6 1474.49 Q1280.6 1480.07 1277.13 1483.17 Q1273.66 1486.25 1267.34 1486.25 Q1265.16 1486.25 1262.89 1485.88 Q1260.65 1485.51 1258.24 1484.77 L1258.24 1480.07 Q1260.32 1481.2 1262.55 1481.76 Q1264.77 1482.32 1267.25 1482.32 Q1271.25 1482.32 1273.59 1480.21 Q1275.93 1478.1 1275.93 1474.49 Q1275.93 1470.88 1273.59 1468.77 Q1271.25 1466.67 1267.25 1466.67 Q1265.37 1466.67 1263.5 1467.08 Q1261.64 1467.5 1259.7 1468.38 L1259.7 1451.02 Z" fill="#000000" fill-rule="nonzero" fill-opacity="1" /><path clip-path="url(#clip410)" d="M1299.82 1454.1 Q1296.2 1454.1 1294.38 1457.66 Q1292.57 1461.2 1292.57 1468.33 Q1292.57 1475.44 1294.38 1479.01 Q1296.2 1482.55 1299.82 1482.55 Q1303.45 1482.55 1305.26 1479.01 Q1307.08 1475.44 1307.08 1468.33 Q1307.08 1461.2 1305.26 1457.66 Q1303.45 1454.1 1299.82 1454.1 M1299.82 1450.39 Q1305.63 1450.39 1308.68 1455 Q1311.76 1459.58 1311.76 1468.33 Q1311.76 1477.06 1308.68 1481.67 Q1305.63 1486.25 1299.82 1486.25 Q1294.01 1486.25 1290.93 1481.67 Q1287.87 1477.06 1287.87 1468.33 Q1287.87 1459.58 1290.93 1455 Q1294.01 1450.39 1299.82 1450.39 Z" fill="#000000" fill-rule="nonzero" fill-opacity="1" /><path clip-path="url(#clip410)" d="M1329.98 1454.1 Q1326.37 1454.1 1324.54 1457.66 Q1322.73 1461.2 1322.73 1468.33 Q1322.73 1475.44 1324.54 1479.01 Q1326.37 1482.55 1329.98 1482.55 Q1333.61 1482.55 1335.42 1479.01 Q1337.25 1475.44 1337.25 1468.33 Q1337.25 1461.2 1335.42 1457.66 Q1333.61 1454.1 1329.98 1454.1 M1329.98 1450.39 Q1335.79 1450.39 1338.84 1455 Q1341.92 1459.58 1341.92 1468.33 Q1341.92 1477.06 1338.84 1481.67 Q1335.79 1486.25 1329.98 1486.25 Q1324.17 1486.25 1321.09 1481.67 Q1318.03 1477.06 1318.03 1468.33 Q1318.03 1459.58 1321.09 1455 Q1324.17 1450.39 1329.98 1450.39 Z" fill="#000000" fill-rule="nonzero" fill-opacity="1" /><path clip-path="url(#clip410)" d="M1753.97 1451.02 L1776.19 1451.02 L1776.19 1453.01 L1763.64 1485.58 L1758.76 1485.58 L1770.56 1454.96 L1753.97 1454.96 L1753.97 1451.02 Z" fill="#000000" fill-rule="nonzero" fill-opacity="1" /><path clip-path="url(#clip410)" d="M1785.36 1451.02 L1803.71 1451.02 L1803.71 1454.96 L1789.64 1454.96 L1789.64 1463.43 Q1790.66 1463.08 1791.67 1462.92 Q1792.69 1462.73 1793.71 1462.73 Q1799.5 1462.73 1802.88 1465.9 Q1806.26 1469.08 1806.26 1474.49 Q1806.26 1480.07 1802.79 1483.17 Q1799.31 1486.25 1792.99 1486.25 Q1790.82 1486.25 1788.55 1485.88 Q1786.3 1485.51 1783.9 1484.77 L1783.9 1480.07 Q1785.98 1481.2 1788.2 1481.76 Q1790.42 1482.32 1792.9 1482.32 Q1796.91 1482.32 1799.24 1480.21 Q1801.58 1478.1 1801.58 1474.49 Q1801.58 1470.88 1799.24 1468.77 Q1796.91 1466.67 1792.9 1466.67 Q1791.03 1466.67 1789.15 1467.08 Q1787.3 1467.5 1785.36 1468.38 L1785.36 1451.02 Z" fill="#000000" fill-rule="nonzero" fill-opacity="1" /><path clip-path="url(#clip410)" d="M1825.47 1454.1 Q1821.86 1454.1 1820.03 1457.66 Q1818.23 1461.2 1818.23 1468.33 Q1818.23 1475.44 1820.03 1479.01 Q1821.86 1482.55 1825.47 1482.55 Q1829.11 1482.55 1830.91 1479.01 Q1832.74 1475.44 1832.74 1468.33 Q1832.74 1461.2 1830.91 1457.66 Q1829.11 1454.1 1825.47 1454.1 M1825.47 1450.39 Q1831.28 1450.39 1834.34 1455 Q1837.42 1459.58 1837.42 1468.33 Q1837.42 1477.06 1834.34 1481.67 Q1831.28 1486.25 1825.47 1486.25 Q1819.66 1486.25 1816.58 1481.67 Q1813.53 1477.06 1813.53 1468.33 Q1813.53 1459.58 1816.58 1455 Q1819.66 1450.39 1825.47 1450.39 Z" fill="#000000" fill-rule="nonzero" fill-opacity="1" /><path clip-path="url(#clip410)" d="M2235.83 1481.64 L2243.46 1481.64 L2243.46 1455.28 L2235.15 1456.95 L2235.15 1452.69 L2243.42 1451.02 L2248.09 1451.02 L2248.09 1481.64 L2255.73 1481.64 L2255.73 1485.58 L2235.83 1485.58 L2235.83 1481.64 Z" fill="#000000" fill-rule="nonzero" fill-opacity="1" /><path clip-path="url(#clip410)" d="M2275.18 1454.1 Q2271.57 1454.1 2269.74 1457.66 Q2267.93 1461.2 2267.93 1468.33 Q2267.93 1475.44 2269.74 1479.01 Q2271.57 1482.55 2275.18 1482.55 Q2278.81 1482.55 2280.62 1479.01 Q2282.45 1475.44 2282.45 1468.33 Q2282.45 1461.2 2280.62 1457.66 Q2278.81 1454.1 2275.18 1454.1 M2275.18 1450.39 Q2280.99 1450.39 2284.04 1455 Q2287.12 1459.58 2287.12 1468.33 Q2287.12 1477.06 2284.04 1481.67 Q2280.99 1486.25 2275.18 1486.25 Q2269.37 1486.25 2266.29 1481.67 Q2263.23 1477.06 2263.23 1468.33 Q2263.23 1459.58 2266.29 1455 Q2269.37 1450.39 2275.18 1450.39 Z" fill="#000000" fill-rule="nonzero" fill-opacity="1" /><path clip-path="url(#clip410)" d="M2305.34 1454.1 Q2301.73 1454.1 2299.9 1457.66 Q2298.09 1461.2 2298.09 1468.33 Q2298.09 1475.44 2299.9 1479.01 Q2301.73 1482.55 2305.34 1482.55 Q2308.97 1482.55 2310.78 1479.01 Q2312.61 1475.44 2312.61 1468.33 Q2312.61 1461.2 2310.78 1457.66 Q2308.97 1454.1 2305.34 1454.1 M2305.34 1450.39 Q2311.15 1450.39 2314.21 1455 Q2317.28 1459.58 2317.28 1468.33 Q2317.28 1477.06 2314.21 1481.67 Q2311.15 1486.25 2305.34 1486.25 Q2299.53 1486.25 2296.45 1481.67 Q2293.4 1477.06 2293.4 1468.33 Q2293.4 1459.58 2296.45 1455 Q2299.53 1450.39 2305.34 1450.39 Z" fill="#000000" fill-rule="nonzero" fill-opacity="1" /><path clip-path="url(#clip410)" d="M2335.5 1454.1 Q2331.89 1454.1 2330.06 1457.66 Q2328.26 1461.2 2328.26 1468.33 Q2328.26 1475.44 2330.06 1479.01 Q2331.89 1482.55 2335.5 1482.55 Q2339.14 1482.55 2340.94 1479.01 Q2342.77 1475.44 2342.77 1468.33 Q2342.77 1461.2 2340.94 1457.66 Q2339.14 1454.1 2335.5 1454.1 M2335.5 1450.39 Q2341.31 1450.39 2344.37 1455 Q2347.45 1459.58 2347.45 1468.33 Q2347.45 1477.06 2344.37 1481.67 Q2341.31 1486.25 2335.5 1486.25 Q2329.69 1486.25 2326.61 1481.67 Q2323.56 1477.06 2323.56 1468.33 Q2323.56 1459.58 2326.61 1455 Q2329.69 1450.39 2335.5 1450.39 Z" fill="#000000" fill-rule="nonzero" fill-opacity="1" /><path clip-path="url(#clip410)" d="M1286.25 1518.52 L1292.13 1518.52 L1292.13 1547.77 L1309.61 1532.4 L1317.09 1532.4 L1298.18 1549.07 L1317.88 1568.04 L1310.24 1568.04 L1292.13 1550.63 L1292.13 1568.04 L1286.25 1568.04 L1286.25 1518.52 Z" fill="#000000" fill-rule="nonzero" fill-opacity="1" /><polyline clip-path="url(#clip412)" style="stroke:#000000; stroke-linecap:round; stroke-linejoin:round; stroke-width:2; stroke-opacity:0.1; fill:none" points="251.372,976.569 2352.76,976.569 "/>
<polyline clip-path="url(#clip412)" style="stroke:#000000; stroke-linecap:round; stroke-linejoin:round; stroke-width:2; stroke-opacity:0.1; fill:none" points="251.372,434.523 2352.76,434.523 "/>
<polyline clip-path="url(#clip410)" style="stroke:#000000; stroke-linecap:round; stroke-linejoin:round; stroke-width:4; stroke-opacity:1; fill:none" points="251.372,1423.18 251.372,123.472 "/>
<polyline clip-path="url(#clip410)" style="stroke:#000000; stroke-linecap:round; stroke-linejoin:round; stroke-width:4; stroke-opacity:1; fill:none" points="251.372,976.569 270.27,976.569 "/>
<polyline clip-path="url(#clip410)" style="stroke:#000000; stroke-linecap:round; stroke-linejoin:round; stroke-width:4; stroke-opacity:1; fill:none" points="251.372,434.523 270.27,434.523 "/>
<path clip-path="url(#clip410)" d="M114.931 996.361 L122.57 996.361 L122.57 969.996 L114.26 971.662 L114.26 967.403 L122.524 965.736 L127.2 965.736 L127.2 996.361 L134.839 996.361 L134.839 1000.3 L114.931 1000.3 L114.931 996.361 Z" fill="#000000" fill-rule="nonzero" fill-opacity="1" /><path clip-path="url(#clip410)" d="M154.283 968.815 Q150.672 968.815 148.843 972.38 Q147.038 975.922 147.038 983.051 Q147.038 990.158 148.843 993.722 Q150.672 997.264 154.283 997.264 Q157.917 997.264 159.723 993.722 Q161.552 990.158 161.552 983.051 Q161.552 975.922 159.723 972.38 Q157.917 968.815 154.283 968.815 M154.283 965.111 Q160.093 965.111 163.149 969.718 Q166.227 974.301 166.227 983.051 Q166.227 991.778 163.149 996.384 Q160.093 1000.97 154.283 1000.97 Q148.473 1000.97 145.394 996.384 Q142.339 991.778 142.339 983.051 Q142.339 974.301 145.394 969.718 Q148.473 965.111 154.283 965.111 Z" fill="#000000" fill-rule="nonzero" fill-opacity="1" /><path clip-path="url(#clip410)" d="M166.227 959.213 L190.339 959.213 L190.339 962.41 L166.227 962.41 L166.227 959.213 Z" fill="#000000" fill-rule="nonzero" fill-opacity="1" /><path clip-path="url(#clip410)" d="M199.197 969.689 L205.404 969.689 L205.404 948.267 L198.652 949.621 L198.652 946.16 L205.366 944.806 L209.166 944.806 L209.166 969.689 L215.372 969.689 L215.372 972.886 L199.197 972.886 L199.197 969.689 Z" fill="#000000" fill-rule="nonzero" fill-opacity="1" /><path clip-path="url(#clip410)" d="M144.667 454.315 L152.305 454.315 L152.305 427.949 L143.995 429.616 L143.995 425.357 L152.259 423.69 L156.935 423.69 L156.935 454.315 L164.574 454.315 L164.574 458.25 L144.667 458.25 L144.667 454.315 Z" fill="#000000" fill-rule="nonzero" fill-opacity="1" /><path clip-path="url(#clip410)" d="M184.018 426.769 Q180.407 426.769 178.578 430.334 Q176.773 433.875 176.773 441.005 Q176.773 448.111 178.578 451.676 Q180.407 455.218 184.018 455.218 Q187.652 455.218 189.458 451.676 Q191.287 448.111 191.287 441.005 Q191.287 433.875 189.458 430.334 Q187.652 426.769 184.018 426.769 M184.018 423.065 Q189.828 423.065 192.884 427.672 Q195.963 432.255 195.963 441.005 Q195.963 449.732 192.884 454.338 Q189.828 458.922 184.018 458.922 Q178.208 458.922 175.129 454.338 Q172.074 449.732 172.074 441.005 Q172.074 432.255 175.129 427.672 Q178.208 423.065 184.018 423.065 Z" fill="#000000" fill-rule="nonzero" fill-opacity="1" /><path clip-path="url(#clip410)" d="M205.667 405.261 Q202.733 405.261 201.248 408.158 Q199.781 411.035 199.781 416.828 Q199.781 422.602 201.248 425.498 Q202.733 428.376 205.667 428.376 Q208.62 428.376 210.087 425.498 Q211.573 422.602 211.573 416.828 Q211.573 411.035 210.087 408.158 Q208.62 405.261 205.667 405.261 M205.667 402.252 Q210.388 402.252 212.871 405.995 Q215.372 409.719 215.372 416.828 Q215.372 423.919 212.871 427.661 Q210.388 431.385 205.667 431.385 Q200.947 431.385 198.445 427.661 Q195.963 423.919 195.963 416.828 Q195.963 409.719 198.445 405.995 Q200.947 402.252 205.667 402.252 Z" fill="#000000" fill-rule="nonzero" fill-opacity="1" /><path clip-path="url(#clip410)" d="M32.4621 801.797 Q32.4621 806.507 36.1542 809.244 Q39.8145 811.982 46.212 811.982 Q52.6095 811.982 56.3017 809.276 Q59.9619 806.539 59.9619 801.797 Q59.9619 797.118 56.2698 794.381 Q52.5777 791.643 46.212 791.643 Q39.8781 791.643 36.186 794.381 Q32.4621 797.118 32.4621 801.797 M27.4968 801.797 Q27.4968 794.158 32.4621 789.797 Q37.4273 785.437 46.212 785.437 Q54.9649 785.437 59.9619 789.797 Q64.9272 794.158 64.9272 801.797 Q64.9272 809.467 59.9619 813.828 Q54.9649 818.156 46.212 818.156 Q37.4273 818.156 32.4621 813.828 Q27.4968 809.467 27.4968 801.797 Z" fill="#000000" fill-rule="nonzero" fill-opacity="1" /><path clip-path="url(#clip410)" d="M46.212 750.139 Q39.7508 750.139 36.0905 752.812 Q32.3984 755.454 32.3984 760.101 Q32.3984 764.748 36.0905 767.422 Q39.7508 770.064 46.212 770.064 Q52.6732 770.064 56.3653 767.422 Q60.0256 764.748 60.0256 760.101 Q60.0256 755.454 56.3653 752.812 Q52.6732 750.139 46.212 750.139 M33.7671 770.064 Q30.5842 768.218 29.0564 765.417 Q27.4968 762.584 27.4968 758.669 Q27.4968 752.176 32.6531 748.134 Q37.8093 744.06 46.212 744.06 Q54.6147 744.06 59.771 748.134 Q64.9272 752.176 64.9272 758.669 Q64.9272 762.584 63.3994 765.417 Q61.8398 768.218 58.657 770.064 L64.0042 770.064 L64.0042 775.952 L14.479 775.952 L14.479 770.064 L33.7671 770.064 Z" fill="#000000" fill-rule="nonzero" fill-opacity="1" /><path clip-path="url(#clip410)" d="M28.3562 734.352 L28.3562 728.495 L64.6407 728.495 Q71.452 728.495 74.5076 731.105 Q77.5631 733.684 77.5631 739.445 L77.5631 741.673 L72.5979 741.673 L72.5979 740.113 Q72.5979 736.771 71.0383 735.561 Q69.5105 734.352 64.6407 734.352 L28.3562 734.352 M14.479 734.352 L14.479 728.495 L21.895 728.495 L21.895 734.352 L14.479 734.352 Z" fill="#000000" fill-rule="nonzero" fill-opacity="1" /><path clip-path="url(#clip410)" d="M933.634 65.7705 L933.634 89.8329 L926.14 89.8329 L926.14 27.2059 L933.634 27.2059 L933.634 34.0924 Q935.984 30.0415 939.549 28.0971 Q943.154 26.1121 948.137 26.1121 Q956.4 26.1121 961.545 32.6746 Q966.73 39.2371 966.73 49.9314 Q966.73 60.6258 961.545 67.1883 Q956.4 73.7508 948.137 73.7508 Q943.154 73.7508 939.549 71.8063 Q935.984 69.8214 933.634 65.7705 M958.993 49.9314 Q958.993 41.7081 955.59 37.0496 Q952.228 32.3505 946.314 32.3505 Q940.399 32.3505 936.997 37.0496 Q933.634 41.7081 933.634 49.9314 Q933.634 58.1548 936.997 62.8538 Q940.399 67.5124 946.314 67.5124 Q952.228 67.5124 955.59 62.8538 Q958.993 58.1548 958.993 49.9314 Z" fill="#000000" fill-rule="nonzero" fill-opacity="1" /><path clip-path="url(#clip410)" d="M1005.38 34.1734 Q1004.12 33.4443 1002.62 33.1202 Q1001.16 32.7556 999.38 32.7556 Q993.061 32.7556 989.658 36.8875 Q986.296 40.9789 986.296 48.6757 L986.296 72.576 L978.802 72.576 L978.802 27.2059 L986.296 27.2059 L986.296 34.2544 Q988.646 30.1225 992.413 28.1376 Q996.18 26.1121 1001.57 26.1121 Q1002.34 26.1121 1003.27 26.2337 Q1004.2 26.3147 1005.34 26.5172 L1005.38 34.1734 Z" fill="#000000" fill-rule="nonzero" fill-opacity="1" /><path clip-path="url(#clip410)" d="M1028.95 32.4315 Q1022.96 32.4315 1019.47 37.1306 Q1015.99 41.7891 1015.99 49.9314 Q1015.99 58.0738 1019.43 62.7728 Q1022.92 67.4314 1028.95 67.4314 Q1034.91 67.4314 1038.39 62.7323 Q1041.87 58.0333 1041.87 49.9314 Q1041.87 41.8701 1038.39 37.1711 Q1034.91 32.4315 1028.95 32.4315 M1028.95 26.1121 Q1038.67 26.1121 1044.22 32.4315 Q1049.77 38.7509 1049.77 49.9314 Q1049.77 61.0714 1044.22 67.4314 Q1038.67 73.7508 1028.95 73.7508 Q1019.19 73.7508 1013.64 67.4314 Q1008.13 61.0714 1008.13 49.9314 Q1008.13 38.7509 1013.64 32.4315 Q1019.19 26.1121 1028.95 26.1121 Z" fill="#000000" fill-rule="nonzero" fill-opacity="1" /><path clip-path="url(#clip410)" d="M1094.7 49.9314 Q1094.7 41.7081 1091.3 37.0496 Q1087.93 32.3505 1082.02 32.3505 Q1076.1 32.3505 1072.7 37.0496 Q1069.34 41.7081 1069.34 49.9314 Q1069.34 58.1548 1072.7 62.8538 Q1076.1 67.5124 1082.02 67.5124 Q1087.93 67.5124 1091.3 62.8538 Q1094.7 58.1548 1094.7 49.9314 M1069.34 34.0924 Q1071.69 30.0415 1075.25 28.0971 Q1078.86 26.1121 1083.84 26.1121 Q1092.11 26.1121 1097.25 32.6746 Q1102.44 39.2371 1102.44 49.9314 Q1102.44 60.6258 1097.25 67.1883 Q1092.11 73.7508 1083.84 73.7508 Q1078.86 73.7508 1075.25 71.8063 Q1071.69 69.8214 1069.34 65.7705 L1069.34 72.576 L1061.85 72.576 L1061.85 9.54393 L1069.34 9.54393 L1069.34 34.0924 Z" fill="#000000" fill-rule="nonzero" fill-opacity="1" /><path clip-path="url(#clip410)" d="M1114.79 9.54393 L1122.24 9.54393 L1122.24 72.576 L1114.79 72.576 L1114.79 9.54393 Z" fill="#000000" fill-rule="nonzero" fill-opacity="1" /><path clip-path="url(#clip410)" d="M1176.65 48.0275 L1176.65 51.6733 L1142.38 51.6733 Q1142.86 59.3701 1147 63.421 Q1151.17 67.4314 1158.58 67.4314 Q1162.87 67.4314 1166.89 66.3781 Q1170.94 65.3249 1174.91 63.2184 L1174.91 70.267 Q1170.9 71.9684 1166.68 72.8596 Q1162.47 73.7508 1158.14 73.7508 Q1147.28 73.7508 1140.92 67.4314 Q1134.6 61.1119 1134.6 50.3365 Q1134.6 39.1965 1140.59 32.6746 Q1146.63 26.1121 1156.84 26.1121 Q1165.99 26.1121 1171.3 32.0264 Q1176.65 37.9003 1176.65 48.0275 M1169.19 45.84 Q1169.11 39.7232 1165.75 36.0774 Q1162.43 32.4315 1156.92 32.4315 Q1150.68 32.4315 1146.91 35.9558 Q1143.19 39.4801 1142.62 45.8805 L1169.19 45.84 M1150.52 6.22219 L1161.94 21.3726 L1155.75 21.3726 L1142.54 6.22219 L1150.52 6.22219 Z" fill="#000000" fill-rule="nonzero" fill-opacity="1" /><path clip-path="url(#clip410)" d="M1224.21 35.9153 Q1227 30.8922 1230.89 28.5022 Q1234.78 26.1121 1240.04 26.1121 Q1247.13 26.1121 1250.98 31.0947 Q1254.83 36.0368 1254.83 45.1919 L1254.83 72.576 L1247.34 72.576 L1247.34 45.4349 Q1247.34 38.913 1245.03 35.7533 Q1242.72 32.5936 1237.98 32.5936 Q1232.19 32.5936 1228.82 36.4419 Q1225.46 40.2903 1225.46 46.9338 L1225.46 72.576 L1217.97 72.576 L1217.97 45.4349 Q1217.97 38.8725 1215.66 35.7533 Q1213.35 32.5936 1208.53 32.5936 Q1202.82 32.5936 1199.45 36.4824 Q1196.09 40.3308 1196.09 46.9338 L1196.09 72.576 L1188.6 72.576 L1188.6 27.2059 L1196.09 27.2059 L1196.09 34.2544 Q1198.64 30.082 1202.21 28.0971 Q1205.77 26.1121 1210.68 26.1121 Q1215.62 26.1121 1219.06 28.6237 Q1222.54 31.1352 1224.21 35.9153 Z" fill="#000000" fill-rule="nonzero" fill-opacity="1" /><path clip-path="url(#clip410)" d="M1308.5 48.0275 L1308.5 51.6733 L1274.23 51.6733 Q1274.72 59.3701 1278.85 63.421 Q1283.02 67.4314 1290.44 67.4314 Q1294.73 67.4314 1298.74 66.3781 Q1302.79 65.3249 1306.76 63.2184 L1306.76 70.267 Q1302.75 71.9684 1298.54 72.8596 Q1294.33 73.7508 1289.99 73.7508 Q1279.14 73.7508 1272.78 67.4314 Q1266.46 61.1119 1266.46 50.3365 Q1266.46 39.1965 1272.45 32.6746 Q1278.49 26.1121 1288.7 26.1121 Q1297.85 26.1121 1303.16 32.0264 Q1308.5 37.9003 1308.5 48.0275 M1301.05 45.84 Q1300.97 39.7232 1297.61 36.0774 Q1294.29 32.4315 1288.78 32.4315 Q1282.54 32.4315 1278.77 35.9558 Q1275.04 39.4801 1274.48 45.8805 L1301.05 45.84 Z" fill="#000000" fill-rule="nonzero" fill-opacity="1" /><path clip-path="url(#clip410)" d="M1349.01 62.2867 L1357.56 62.2867 L1357.56 72.576 L1349.01 72.576 L1349.01 62.2867 M1349.01 29.6769 L1357.56 29.6769 L1357.56 39.9662 L1349.01 39.9662 L1349.01 29.6769 Z" fill="#000000" fill-rule="nonzero" fill-opacity="1" /><path clip-path="url(#clip410)" d="M1436.76 35.9153 Q1439.55 30.8922 1443.44 28.5022 Q1447.33 26.1121 1452.6 26.1121 Q1459.68 26.1121 1463.53 31.0947 Q1467.38 36.0368 1467.38 45.1919 L1467.38 72.576 L1459.89 72.576 L1459.89 45.4349 Q1459.89 38.913 1457.58 35.7533 Q1455.27 32.5936 1450.53 32.5936 Q1444.74 32.5936 1441.37 36.4419 Q1438.01 40.2903 1438.01 46.9338 L1438.01 72.576 L1430.52 72.576 L1430.52 45.4349 Q1430.52 38.8725 1428.21 35.7533 Q1425.9 32.5936 1421.08 32.5936 Q1415.37 32.5936 1412.01 36.4824 Q1408.64 40.3308 1408.64 46.9338 L1408.64 72.576 L1401.15 72.576 L1401.15 27.2059 L1408.64 27.2059 L1408.64 34.2544 Q1411.2 30.082 1414.76 28.0971 Q1418.32 26.1121 1423.23 26.1121 Q1428.17 26.1121 1431.61 28.6237 Q1435.1 31.1352 1436.76 35.9153 Z" fill="#000000" fill-rule="nonzero" fill-opacity="1" /><path clip-path="url(#clip410)" d="M1512.1 49.3643 Q1512.1 41.2625 1508.74 36.8065 Q1505.42 32.3505 1499.38 32.3505 Q1493.39 32.3505 1490.03 36.8065 Q1486.7 41.2625 1486.7 49.3643 Q1486.7 57.4256 1490.03 61.8816 Q1493.39 66.3376 1499.38 66.3376 Q1505.42 66.3376 1508.74 61.8816 Q1512.1 57.4256 1512.1 49.3643 M1519.56 66.9452 Q1519.56 78.5308 1514.41 84.1616 Q1509.27 89.8329 1498.65 89.8329 Q1494.73 89.8329 1491.24 89.2252 Q1487.76 88.6581 1484.48 87.4428 L1484.48 80.1917 Q1487.76 81.9741 1490.96 82.8248 Q1494.16 83.6755 1497.48 83.6755 Q1504.81 83.6755 1508.46 79.8271 Q1512.1 76.0193 1512.1 68.282 L1512.1 64.5957 Q1509.79 68.6061 1506.19 70.5911 Q1502.58 72.576 1497.56 72.576 Q1489.22 72.576 1484.11 66.2161 Q1479.01 59.8562 1479.01 49.3643 Q1479.01 38.832 1484.11 32.472 Q1489.22 26.1121 1497.56 26.1121 Q1502.58 26.1121 1506.19 28.0971 Q1509.79 30.082 1512.1 34.0924 L1512.1 27.2059 L1519.56 27.2059 L1519.56 66.9452 Z" fill="#000000" fill-rule="nonzero" fill-opacity="1" /><path clip-path="url(#clip410)" d="M1572.62 45.1919 L1572.62 72.576 L1565.17 72.576 L1565.17 45.4349 Q1565.17 38.994 1562.66 35.7938 Q1560.15 32.5936 1555.12 32.5936 Q1549.09 32.5936 1545.6 36.4419 Q1542.12 40.2903 1542.12 46.9338 L1542.12 72.576 L1534.63 72.576 L1534.63 9.54393 L1542.12 9.54393 L1542.12 34.2544 Q1544.79 30.163 1548.4 28.1376 Q1552.05 26.1121 1556.78 26.1121 Q1564.6 26.1121 1568.61 30.9732 Q1572.62 35.7938 1572.62 45.1919 Z" fill="#000000" fill-rule="nonzero" fill-opacity="1" /><path clip-path="url(#clip410)" d="M1589.96 65.6895 L1603.33 65.6895 L1603.33 19.5497 L1588.79 22.4663 L1588.79 15.0127 L1603.25 12.096 L1611.43 12.096 L1611.43 65.6895 L1624.8 65.6895 L1624.8 72.576 L1589.96 72.576 L1589.96 65.6895 Z" fill="#000000" fill-rule="nonzero" fill-opacity="1" /><path clip-path="url(#clip410)" d="M1641.41 12.096 L1673.53 12.096 L1673.53 18.9825 L1648.9 18.9825 L1648.9 33.8088 Q1650.68 33.2012 1652.47 32.9176 Q1654.25 32.5936 1656.03 32.5936 Q1666.16 32.5936 1672.07 38.1433 Q1677.99 43.6931 1677.99 53.1722 Q1677.99 62.9348 1671.91 68.3631 Q1665.84 73.7508 1654.78 73.7508 Q1650.97 73.7508 1647 73.1026 Q1643.07 72.4545 1638.86 71.1582 L1638.86 62.9348 Q1642.5 64.9198 1646.39 65.892 Q1650.28 66.8642 1654.61 66.8642 Q1661.62 66.8642 1665.71 63.1779 Q1669.81 59.4916 1669.81 53.1722 Q1669.81 46.8528 1665.71 43.1664 Q1661.62 39.4801 1654.61 39.4801 Q1651.33 39.4801 1648.05 40.2093 Q1644.81 40.9384 1641.41 42.4778 L1641.41 12.096 Z" fill="#000000" fill-rule="nonzero" fill-opacity="1" /><polyline clip-path="url(#clip412)" style="stroke:#009af9; stroke-linecap:round; stroke-linejoin:round; stroke-width:4; stroke-opacity:1; fill:none" points="310.845,1051 312.828,160.256 314.81,160.256 316.793,160.256 318.775,160.256 320.757,160.256 322.74,160.256 324.722,160.256 326.705,160.256 328.687,346.322 330.67,346.322 332.652,523.67 334.635,523.67 336.617,523.67 338.599,523.67 340.582,587.293 342.564,644.452 344.547,699.934 346.529,755.395 348.512,755.395 350.494,763.235 352.476,776.982 354.459,798.983 356.441,830.168 358.424,830.168 360.406,835.244 362.389,844.46 364.371,859.949 366.354,859.949 368.336,862.719 370.318,867.94 372.301,877.286 374.283,877.286 376.266,879.025 378.248,882.365 380.231,888.548 382.213,888.548 384.195,889.725 386.178,892.009 388.16,896.328 390.143,904.092 392.125,904.092 394.108,905.545 396.09,908.338 398.073,913.518 400.055,913.518 402.037,914.506 404.02,916.427 406.002,920.061 407.985,920.061 409.967,920.763 411.95,922.138 413.932,924.775 415.914,929.643 417.897,929.643 419.879,930.571 421.862,932.372 423.844,935.768 425.827,935.768 427.809,936.425 429.792,937.708 431.774,940.164 433.756,940.164 435.739,940.643 437.721,941.585 439.704,943.407 441.686,946.824 443.669,946.824 445.651,947.483 447.633,948.77 449.616,951.225 451.598,951.225 453.581,951.703 455.563,952.642 457.546,954.454 459.528,954.454 461.511,954.809 463.493,955.51 465.475,956.875 467.458,959.467 469.44,959.467 471.423,959.971 473.405,960.959 475.388,962.861 477.37,962.861 479.352,963.233 481.335,963.968 483.317,965.394 485.3,965.394 487.282,965.675 489.265,966.231 491.247,967.319 493.23,969.404 495.212,969.404 497.194,969.812 499.177,970.615 501.159,972.172 503.142,972.172 505.124,972.478 507.107,973.084 509.089,974.267 511.071,974.267 513.054,974.501 515.036,974.964 517.019,975.875 519.001,977.635 520.984,977.635 522.966,977.981 524.949,978.664 526.931,979.997 528.913,979.997 530.896,980.26 532.878,980.782 534.861,981.805 536.843,981.805 538.826,982.008 540.808,982.411 542.79,983.205 544.773,984.749 546.755,984.749 548.738,985.054 550.72,985.658 552.703,986.841 554.685,986.841 556.668,987.075 558.65,987.54 560.632,988.457 562.615,988.457 564.597,988.639 566.58,989.001 568.562,989.716 570.545,991.115 572.527,991.115 574.509,991.392 576.492,991.942 578.474,993.023 580.457,993.023 582.439,993.238 584.422,993.665 586.404,994.508 588.387,994.508 590.369,994.676 592.351,995.01 594.334,995.672 596.316,995.672 598.299,995.804 600.281,996.067 602.264,996.588 604.246,997.617 606.228,997.617 608.211,997.821 610.193,998.229 612.176,999.034 614.158,999.034 616.141,999.195 618.123,999.515 620.106,1000.15 622.088,1000.15 624.07,1000.28 626.053,1000.53 628.035,1001.03 630.018,1002.02 632,1002.02 633.983,1002.22 635.965,1002.61 637.947,1003.39 639.93,1003.39 641.912,1003.54 643.895,1003.85 645.877,1004.47 647.86,1004.47 649.842,1004.59 651.825,1004.83 653.807,1005.32 655.789,1006.28 657.772,1006.28 659.754,1006.47 661.737,1006.86 663.719,1007.62 665.702,1007.62 667.684,1007.77 669.666,1008.07 671.649,1008.67 673.631,1008.67 675.614,1008.79 677.596,1009.03 679.579,1009.5 681.561,1010.45 683.544,1010.45 685.526,1010.63 687.508,1011.01 689.491,1011.75 691.473,1011.75 693.456,1011.9 695.438,1012.2 697.421,1012.79 699.403,1012.79 701.385,1012.91 703.368,1013.14 705.35,1013.61 707.333,1014.54 709.315,1014.54 711.298,1014.73 713.28,1015.1 715.263,1015.83 717.245,1015.83 719.227,1015.98 721.21,1016.27 723.192,1016.86 725.175,1016.86 727.157,1016.97 729.14,1017.21 731.122,1017.67 733.104,1018.59 735.087,1018.59 737.069,1018.78 739.052,1019.14 741.034,1019.87 743.017,1019.87 744.999,1020.02 746.982,1020.31 748.964,1020.89 750.946,1020.89 752.929,1021.01 754.911,1021.24 756.894,1021.7 758.876,1022.61 760.859,1022.61 762.841,1022.8 764.823,1023.16 766.806,1023.89 768.788,1023.89 770.771,1024.04 772.753,1024.33 774.736,1024.9 776.718,1024.9 778.701,1025.02 780.683,1025.25 782.665,1025.71 784.648,1026.62 786.63,1026.62 788.613,1026.81 790.595,1027.17 792.578,1027.9 794.56,1027.9 796.542,1028.04 798.525,1028.33 800.507,1028.91 802.49,1028.91 804.472,1029.02 806.455,1029.25 808.437,1029.71 810.42,1030.63 812.402,1030.63 814.384,1030.81 816.367,1031.17 818.349,1031.9 820.332,1031.9 822.314,1032.05 824.297,1032.34 826.279,1032.91 828.261,1032.91 830.244,1033.03 832.226,1033.26 834.209,1033.72 836.191,1034.63 838.174,1034.63 840.156,1034.82 842.139,1035.18 844.121,1035.91 846.103,1035.91 848.086,1036.05 850.068,1036.34 852.051,1036.92 854.033,1036.92 856.016,1037.04 857.998,1037.27 859.98,1037.73 861.963,1037.73 863.945,1037.82 865.928,1038.01 867.91,1038.38 869.893,1039.11 871.875,1039.11 873.858,1039.25 875.84,1039.55 877.822,1040.13 879.805,1040.13 881.787,1040.25 883.77,1040.48 885.752,1040.94 887.735,1040.94 889.717,1041.04 891.699,1041.22 893.682,1041.59 895.664,1042.33 897.647,1042.33 899.629,1042.48 901.612,1042.77 903.594,1043.36 905.577,1043.36 907.559,1043.48 909.541,1043.71 911.524,1044.18 913.506,1044.18 915.489,1044.27 917.471,1044.46 919.454,1044.83 921.436,1045.57 923.418,1045.57 925.401,1045.72 927.383,1046.02 929.366,1046.61 931.348,1046.61 933.331,1046.73 935.313,1046.96 937.296,1047.44 939.278,1047.44 941.26,1047.53 943.243,1047.72 945.225,1048.09 947.208,1048.84 949.19,1048.84 951.173,1048.99 953.155,1049.29 955.137,1049.88 957.12,1049.88 959.102,1050 961.085,1050.24 963.067,1050.72 965.05,1050.72 967.032,1050.81 969.015,1051 970.997,1051.38 972.979,1052.13 974.962,1052.13 976.944,1052.28 978.927,1052.58 980.909,1053.18 982.892,1053.18 984.874,1053.3 986.856,1053.54 988.839,1054.02 990.821,1054.02 992.804,1054.11 994.786,1054.3 996.769,1054.68 998.751,1055.44 1000.73,1055.44 1002.72,1055.59 1004.7,1055.9 1006.68,1056.5 1008.66,1056.5 1010.65,1056.62 1012.63,1056.86 1014.61,1057.34 1016.59,1057.34 1018.58,1057.44 1020.56,1057.63 1022.54,1058.01 1024.52,1058.77 1026.51,1058.77 1028.49,1058.92 1030.47,1059.23 1032.45,1059.83 1034.43,1059.83 1036.42,1059.96 1038.4,1060.2 1040.38,1060.68 1042.36,1060.68 1044.35,1060.78 1046.33,1060.97 1048.31,1061.35 1050.29,1062.12 1052.28,1062.12 1054.26,1062.27 1056.24,1062.58 1058.22,1063.19 1060.21,1063.19 1062.19,1063.31 1064.17,1063.55 1066.15,1064.04 1068.14,1064.04 1070.12,1064.13 1072.1,1064.33 1074.08,1064.71 1076.07,1065.48 1078.05,1065.48 1080.03,1065.64 1082.01,1065.94 1084,1066.55 1085.98,1066.55 1087.96,1066.68 1089.94,1066.92 1091.93,1067.41 1093.91,1067.41 1095.89,1067.5 1097.87,1067.7 1099.86,1068.09 1101.84,1068.09 1103.82,1068.16 1105.8,1068.32 1107.79,1068.63 1109.77,1069.24 1111.75,1069.24 1113.73,1069.37 1115.71,1069.61 1117.7,1070.1 1119.68,1070.1 1121.66,1070.2 1123.64,1070.4 1125.63,1070.79 1127.61,1070.79 1129.59,1070.86 1131.57,1071.02 1133.56,1071.33 1135.54,1071.95 1137.52,1071.95 1139.5,1072.07 1141.49,1072.32 1143.47,1072.81 1145.45,1072.81 1147.43,1072.91 1149.42,1073.11 1151.4,1073.5 1153.38,1073.5 1155.36,1073.58 1157.35,1073.74 1159.33,1074.05 1161.31,1074.67 1163.29,1074.67 1165.28,1074.8 1167.26,1075.05 1169.24,1075.54 1171.22,1075.54 1173.21,1075.64 1175.19,1075.84 1177.17,1076.23 1179.15,1076.23 1181.14,1076.31 1183.12,1076.47 1185.1,1076.78 1187.08,1077.41 1189.07,1077.41 1191.05,1077.53 1193.03,1077.78 1195.01,1078.28 1196.99,1078.28 1198.98,1078.38 1200.96,1078.58 1202.94,1078.98 1204.92,1078.98 1206.91,1079.05 1208.89,1079.21 1210.87,1079.53 1212.85,1080.16 1214.84,1080.16 1216.82,1080.28 1218.8,1080.53 1220.78,1081.03 1222.77,1081.03 1224.75,1081.13 1226.73,1081.33 1228.71,1081.73 1230.7,1081.73 1232.68,1081.81 1234.66,1081.96 1236.64,1082.28 1238.63,1082.91 1240.61,1082.91 1242.59,1083.04 1244.57,1083.29 1246.56,1083.79 1248.54,1083.79 1250.52,1083.89 1252.5,1084.09 1254.49,1084.48 1256.47,1084.48 1258.45,1084.56 1260.43,1084.72 1262.42,1085.04 1264.4,1085.67 1266.38,1085.67 1268.36,1085.79 1270.35,1086.05 1272.33,1086.55 1274.31,1086.55 1276.29,1086.65 1278.27,1086.85 1280.26,1087.24 1282.24,1087.24 1284.22,1087.32 1286.2,1087.48 1288.19,1087.8 1290.17,1088.43 1292.15,1088.43 1294.13,1088.55 1296.12,1088.81 1298.1,1089.31 1300.08,1089.31 1302.06,1089.41 1304.05,1089.61 1306.03,1090 1308.01,1090 1309.99,1090.08 1311.98,1090.24 1313.96,1090.56 1315.94,1091.19 1317.92,1091.19 1319.91,1091.31 1321.89,1091.56 1323.87,1092.06 1325.85,1092.06 1327.84,1092.16 1329.82,1092.36 1331.8,1092.76 1333.78,1092.76 1335.77,1092.84 1337.75,1092.99 1339.73,1093.31 1341.71,1093.31 1343.7,1093.37 1345.68,1093.5 1347.66,1093.75 1349.64,1094.25 1351.62,1094.25 1353.61,1094.35 1355.59,1094.55 1357.57,1094.95 1359.55,1094.95 1361.54,1095.03 1363.52,1095.19 1365.5,1095.5 1367.48,1095.5 1369.47,1095.56 1371.45,1095.69 1373.43,1095.94 1375.41,1096.44 1377.4,1096.44 1379.38,1096.54 1381.36,1096.74 1383.34,1097.14 1385.33,1097.14 1387.31,1097.22 1389.29,1097.38 1391.27,1097.69 1393.26,1097.69 1395.24,1097.76 1397.22,1097.88 1399.2,1098.14 1401.19,1098.64 1403.17,1098.64 1405.15,1098.74 1407.13,1098.94 1409.12,1099.33 1411.1,1099.33 1413.08,1099.41 1415.06,1099.57 1417.05,1099.89 1419.03,1099.89 1421.01,1099.95 1422.99,1100.08 1424.98,1100.33 1426.96,1100.83 1428.94,1100.83 1430.92,1100.93 1432.9,1101.13 1434.89,1101.52 1436.87,1101.52 1438.85,1101.6 1440.83,1101.76 1442.82,1102.08 1444.8,1102.08 1446.78,1102.14 1448.76,1102.27 1450.75,1102.52 1452.73,1103.01 1454.71,1103.01 1456.69,1103.11 1458.68,1103.31 1460.66,1103.71 1462.64,1103.71 1464.62,1103.79 1466.61,1103.95 1468.59,1104.26 1470.57,1104.26 1472.55,1104.32 1474.54,1104.45 1476.52,1104.7 1478.5,1105.19 1480.48,1105.19 1482.47,1105.29 1484.45,1105.49 1486.43,1105.89 1488.41,1105.89 1490.4,1105.96 1492.38,1106.12 1494.36,1106.43 1496.34,1106.43 1498.33,1106.5 1500.31,1106.62 1502.29,1106.87 1504.27,1107.36 1506.26,1107.36 1508.24,1107.46 1510.22,1107.66 1512.2,1108.05 1514.18,1108.05 1516.17,1108.13 1518.15,1108.28 1520.13,1108.6 1522.11,1108.6 1524.1,1108.66 1526.08,1108.78 1528.06,1109.03 1530.04,1109.52 1532.03,1109.52 1534.01,1109.62 1535.99,1109.81 1537.97,1110.2 1539.96,1110.2 1541.94,1110.28 1543.92,1110.43 1545.9,1110.74 1547.89,1110.74 1549.87,1110.8 1551.85,1110.93 1553.83,1111.17 1555.82,1111.66 1557.8,1111.66 1559.78,1111.76 1561.76,1111.95 1563.75,1112.33 1565.73,1112.33 1567.71,1112.41 1569.69,1112.56 1571.68,1112.87 1573.66,1112.87 1575.64,1112.93 1577.62,1113.05 1579.61,1113.3 1581.59,1113.78 1583.57,1113.78 1585.55,1113.87 1587.54,1114.06 1589.52,1114.45 1591.5,1114.45 1593.48,1114.52 1595.46,1114.67 1597.45,1114.98 1599.43,1114.98 1601.41,1115.04 1603.39,1115.16 1605.38,1115.4 1607.36,1115.4 1609.34,1115.44 1611.32,1115.54 1613.31,1115.73 1615.29,1116.11 1617.27,1116.11 1619.25,1116.19 1621.24,1116.34 1623.22,1116.64 1625.2,1116.64 1627.18,1116.7 1629.17,1116.82 1631.15,1117.06 1633.13,1117.06 1635.11,1117.1 1637.1,1117.2 1639.08,1117.39 1641.06,1117.76 1643.04,1117.76 1645.03,1117.84 1647.01,1117.99 1648.99,1118.29 1650.97,1118.29 1652.96,1118.35 1654.94,1118.47 1656.92,1118.7 1658.9,1118.7 1660.89,1118.75 1662.87,1118.85 1664.85,1119.03 1666.83,1119.41 1668.81,1119.41 1670.8,1119.48 1672.78,1119.63 1674.76,1119.93 1676.74,1119.93 1678.73,1119.99 1680.71,1120.1 1682.69,1120.34 1684.67,1120.34 1686.66,1120.39 1688.64,1120.48 1690.62,1120.67 1692.6,1121.04 1694.59,1121.04 1696.57,1121.11 1698.55,1121.26 1700.53,1121.55 1702.52,1121.55 1704.5,1121.61 1706.48,1121.73 1708.46,1121.96 1710.45,1121.96 1712.43,1122.01 1714.41,1122.1 1716.39,1122.28 1718.38,1122.65 1720.36,1122.65 1722.34,1122.72 1724.32,1122.87 1726.31,1123.16 1728.29,1123.16 1730.27,1123.22 1732.25,1123.33 1734.24,1123.56 1736.22,1123.56 1738.2,1123.61 1740.18,1123.7 1742.17,1123.88 1744.15,1124.25 1746.13,1124.25 1748.11,1124.32 1750.09,1124.46 1752.08,1124.75 1754.06,1124.75 1756.04,1124.81 1758.02,1124.92 1760.01,1125.15 1761.99,1125.15 1763.97,1125.19 1765.95,1125.28 1767.94,1125.46 1769.92,1125.82 1771.9,1125.82 1773.88,1125.89 1775.87,1126.04 1777.85,1126.32 1779.83,1126.32 1781.81,1126.37 1783.8,1126.49 1785.78,1126.71 1787.76,1126.71 1789.74,1126.76 1791.73,1126.84 1793.71,1127.02 1795.69,1127.37 1797.67,1127.37 1799.66,1127.45 1801.64,1127.59 1803.62,1127.86 1805.6,1127.86 1807.59,1127.92 1809.57,1128.03 1811.55,1128.25 1813.53,1128.25 1815.52,1128.29 1817.5,1128.38 1819.48,1128.56 1821.46,1128.9 1823.45,1128.9 1825.43,1128.97 1827.41,1129.11 1829.39,1129.38 1831.37,1129.38 1833.36,1129.44 1835.34,1129.55 1837.32,1129.76 1839.3,1129.76 1841.29,1129.81 1843.27,1129.89 1845.25,1130.06 1847.23,1130.06 1849.22,1130.1 1851.2,1130.17 1853.18,1130.3 1855.16,1130.57 1857.15,1130.57 1859.13,1130.63 1861.11,1130.74 1863.09,1130.95 1865.08,1130.95 1867.06,1130.99 1869.04,1131.08 1871.02,1131.25 1873.01,1131.25 1874.99,1131.28 1876.97,1131.35 1878.95,1131.48 1880.94,1131.75 1882.92,1131.75 1884.9,1131.8 1886.88,1131.91 1888.87,1132.12 1890.85,1132.12 1892.83,1132.16 1894.81,1132.25 1896.8,1132.42 1898.78,1132.42 1900.76,1132.45 1902.74,1132.52 1904.73,1132.65 1906.71,1132.91 1908.69,1132.91 1910.67,1132.97 1912.65,1133.07 1914.64,1133.28 1916.62,1133.28 1918.6,1133.32 1920.58,1133.41 1922.57,1133.57 1924.55,1133.57 1926.53,1133.6 1928.51,1133.67 1930.5,1133.8 1932.48,1134.06 1934.46,1134.06 1936.44,1134.11 1938.43,1134.22 1940.41,1134.42 1942.39,1134.42 1944.37,1134.46 1946.36,1134.55 1948.34,1134.71 1950.32,1134.71 1952.3,1134.74 1954.29,1134.81 1956.27,1134.93 1958.25,1135.19 1960.23,1135.19 1962.22,1135.24 1964.2,1135.34 1966.18,1135.55 1968.16,1135.55 1970.15,1135.59 1972.13,1135.67 1974.11,1135.83 1976.09,1135.83 1978.08,1135.86 1980.06,1135.92 1982.04,1136.05 1984.02,1136.3 1986,1136.3 1987.99,1136.35 1989.97,1136.45 1991.95,1136.65 1993.93,1136.65 1995.92,1136.69 1997.9,1136.77 1999.88,1136.93 2001.86,1136.93 2003.85,1136.96 2005.83,1137.02 2007.81,1137.15 2009.79,1137.39 2011.78,1137.39 2013.76,1137.44 2015.74,1137.54 2017.72,1137.74 2019.71,1137.74 2021.69,1137.78 2023.67,1137.85 2025.65,1138.01 2027.64,1138.01 2029.62,1138.04 2031.6,1138.1 2033.58,1138.22 2035.57,1138.46 2037.55,1138.46 2039.53,1138.51 2041.51,1138.61 2043.5,1138.8 2045.48,1138.8 2047.46,1138.84 2049.44,1138.91 2051.43,1139.07 2053.41,1139.07 2055.39,1139.1 2057.37,1139.16 2059.36,1139.28 2061.34,1139.51 2063.32,1139.51 2065.3,1139.56 2067.28,1139.65 2069.27,1139.84 2071.25,1139.84 2073.23,1139.88 2075.21,1139.95 2077.2,1140.1 2079.18,1140.1 2081.16,1140.13 2083.14,1140.19 2085.13,1140.31 2087.11,1140.54 2089.09,1140.54 2091.07,1140.58 2093.06,1140.68 2095.04,1140.86 2097.02,1140.86 2099,1140.9 2100.99,1140.97 2102.97,1141.11 2104.95,1141.11 2106.93,1141.14 2108.92,1141.2 2110.9,1141.31 2112.88,1141.31 2114.86,1141.34 2116.85,1141.38 2118.83,1141.47 2120.81,1141.65 2122.79,1141.65 2124.78,1141.69 2126.76,1141.76 2128.74,1141.9 2130.72,1141.9 2132.71,1141.93 2134.69,1141.98 2136.67,1142.1 2138.65,1142.1 2140.64,1142.12 2142.62,1142.16 2144.6,1142.25 2146.58,1142.43 2148.56,1142.43 2150.55,1142.47 2152.53,1142.54 2154.51,1142.68 2156.49,1142.68 2158.48,1142.7 2160.46,1142.76 2162.44,1142.87 2164.42,1142.87 2166.41,1142.89 2168.39,1142.94 2170.37,1143.02 2172.35,1143.2 2174.34,1143.2 2176.32,1143.23 2178.3,1143.3 2180.28,1143.44 2182.27,1143.44 2184.25,1143.46 2186.23,1143.52 2188.21,1143.63 2190.2,1143.63 2192.18,1143.65 2194.16,1143.69 2196.14,1143.78 2198.13,1143.95 2200.11,1143.95 2202.09,1143.98 2204.07,1144.05 2206.06,1144.18 2208.04,1144.18 2210.02,1144.21 2212,1144.26 2213.99,1144.37 2215.97,1144.37 2217.95,1144.39 2219.93,1144.43 2221.92,1144.52 2223.9,1144.69 2225.88,1144.69 2227.86,1144.72 2229.84,1144.79 2231.83,1144.92 2233.81,1144.92 2235.79,1144.94 2237.77,1145 2239.76,1145.1 2241.74,1145.1 2243.72,1145.12 2245.7,1145.16 2247.69,1145.24 2249.67,1145.41 2251.65,1145.41 2253.63,1145.44 2255.62,1145.51 2257.6,1145.63 2259.58,1145.63 2261.56,1145.66 2263.55,1145.71 2265.53,1145.81 2267.51,1145.81 2269.49,1145.83 2271.48,1145.87 2273.46,1145.95 2275.44,1146.11 2277.42,1146.11 2279.41,1146.15 2281.39,1146.21 2283.37,1146.33 2285.35,1146.33 2287.34,1146.36 2289.32,1146.41 2291.3,1146.51 2293.28,1146.51 "/>
<polyline clip-path="url(#clip412)" style="stroke:#e26f46; stroke-linecap:round; stroke-linejoin:round; stroke-width:4; stroke-opacity:1; fill:none" points="310.845,1051 312.828,1051 314.81,1051 316.793,1051 318.775,1051 320.757,1224.89 322.74,1368.49 324.722,1383.21 326.705,1386.38 328.687,1386.39 330.67,1386.39 332.652,1386.4 334.635,1386.4 336.617,1386.4 338.599,1386.4 340.582,1386.4 342.564,1386.4 344.547,1386.4 346.529,1386.4 348.512,1386.4 350.494,1386.4 "/>
<polyline clip-path="url(#clip412)" style="stroke:#3da44d; stroke-linecap:round; stroke-linejoin:round; stroke-width:4; stroke-opacity:1; fill:none" points="310.845,1051 312.828,160.256 314.81,160.256 316.793,160.256 318.775,160.256 320.757,160.256 322.74,160.256 324.722,160.256 326.705,160.256 328.687,346.322 330.67,346.322 332.652,523.67 334.635,523.67 336.617,523.67 338.599,523.67 340.582,587.293 342.564,644.452 344.547,699.934 346.529,755.395 348.512,810.9 350.494,810.9 352.476,818.842 354.459,832.621 356.441,854.24 358.424,854.24 360.406,857.957 362.389,864.84 364.371,876.783 366.354,876.783 368.336,878.964 370.318,883.111 372.301,890.651 374.283,890.651 376.266,892.069 378.248,894.808 380.231,899.923 382.213,899.923 384.195,900.902 386.178,902.811 388.16,906.44 390.143,913.035 392.125,913.035 394.108,914.278 396.09,916.677 398.073,921.155 400.055,921.155 402.037,922.013 404.02,923.686 406.002,926.864 407.985,932.633 409.967,932.633 411.95,933.722 413.932,935.824 415.914,939.746 417.897,946.638 419.879,946.638 421.862,947.921 423.844,950.371 425.827,954.856 427.809,962.515 429.792,962.515 431.774,963.93 433.756,966.609 435.739,971.458 437.721,979.647 439.704,979.647 441.686,981.173 443.669,984.063 445.651,989.321 447.633,998.387 449.616,1013.32 451.598,1037.44 453.581,1074.49 455.563,1120.25 457.546,1153.81 459.528,1169.79 461.511,1169.79 463.493,1171.74 465.475,1175.22 467.458,1181.82 469.44,1181.82 471.423,1183.18 473.405,1185.84 475.388,1191.07 477.37,1201.19 479.352,1201.19 481.335,1203.27 483.317,1207.31 485.3,1215.1 487.282,1229.62 489.265,1229.62 491.247,1232.54 493.23,1238.14 495.212,1238.14 497.194,1239.26 499.177,1241.47 501.159,1245.76 503.142,1253.88 505.124,1253.88 507.107,1255.5 509.089,1258.65 511.071,1258.65 513.054,1259.28 515.036,1260.52 517.019,1262.97 519.001,1267.67 520.984,1267.67 522.966,1268.61 524.949,1270.45 526.931,1274.02 528.913,1280.72 530.896,1280.72 532.878,1282.05 534.861,1284.63 536.843,1284.63 538.826,1285.14 540.808,1286.15 542.79,1288.14 544.773,1291.94 546.755,1291.94 548.738,1292.69 550.72,1294.16 552.703,1297.01 554.685,1302.29 556.668,1302.29 558.65,1303.33 560.632,1305.34 562.615,1305.34 564.597,1305.73 566.58,1306.52 568.562,1308.05 570.545,1310.95 572.527,1310.95 574.509,1311.52 576.492,1312.64 578.474,1314.78 580.457,1318.69 582.439,1318.69 584.422,1319.45 586.404,1320.92 588.387,1320.92 590.369,1321.2 592.351,1321.77 594.334,1322.87 596.316,1324.94 598.299,1324.94 600.281,1325.35 602.264,1326.14 604.246,1327.63 606.228,1330.33 608.211,1330.33 610.193,1330.84 612.176,1331.83 614.158,1331.83 616.141,1332.03 618.123,1332.41 620.106,1333.15 622.088,1334.52 624.07,1334.52 626.053,1334.78 628.035,1335.3 630.018,1336.27 632,1337.99 633.983,1337.99 635.965,1338.32 637.947,1338.94 639.93,1338.94 641.912,1339.06 643.895,1339.3 645.877,1339.76 647.86,1340.6 649.842,1340.6 651.825,1340.76 653.807,1341.08 655.789,1341.67 657.772,1342.7 659.754,1342.7 661.737,1342.89 663.719,1343.26 665.702,1343.26 667.684,1343.33 669.666,1343.47 671.649,1343.74 673.631,1344.23 675.614,1344.23 677.596,1344.32 679.579,1344.5 681.561,1344.84 683.544,1345.42 685.526,1345.42 687.508,1345.53 689.491,1345.74 691.473,1345.74 693.456,1345.78 695.438,1345.86 697.421,1346 699.403,1346.28 701.385,1346.28 703.368,1346.33 705.35,1346.43 707.333,1346.61 709.315,1346.93 711.298,1346.93 713.28,1346.99 715.263,1347.1 717.245,1347.1 719.227,1347.12 721.21,1347.16 723.192,1347.24 725.175,1347.39 727.157,1347.39 729.14,1347.42 731.122,1347.47 733.104,1347.57 735.087,1347.57 737.069,1347.59 739.052,1347.63 741.034,1347.69 743.017,1347.82 744.999,1347.82 746.982,1347.84 748.964,1347.88 750.946,1347.96 752.929,1347.96 754.911,1347.98 756.894,1348.01 758.876,1348.06 760.859,1348.06 762.841,1348.07 764.823,1348.09 766.806,1348.13 768.788,1348.2 770.771,1348.2 772.753,1348.21 774.736,1348.23 776.718,1348.28 778.701,1348.28 780.683,1348.28 782.665,1348.3 784.648,1348.33 786.63,1348.33 788.613,1348.34 790.595,1348.35 792.578,1348.37 794.56,1348.4 796.542,1348.4 798.525,1348.41 800.507,1348.42 802.49,1348.45 804.472,1348.45 806.455,1348.45 808.437,1348.46 810.42,1348.48 812.402,1348.48 814.384,1348.48 816.367,1348.49 818.349,1348.5 820.332,1348.52 822.314,1348.52 824.297,1348.52 826.279,1348.53 828.261,1348.53 830.244,1348.53 832.226,1348.53 834.209,1348.54 836.191,1348.55 838.174,1348.55 840.156,1348.55 842.139,1348.55 844.121,1348.56 846.103,1348.57 848.086,1348.57 850.068,1348.58 852.051,1348.58 854.033,1348.58 856.016,1348.58 857.998,1348.58 859.98,1348.59 861.963,1348.59 863.945,1348.59 865.928,1348.6 867.91,1348.6 869.893,1348.6 871.875,1348.61 873.858,1348.61 875.84,1348.61 877.822,1348.61 879.805,1348.61 881.787,1348.62 883.77,1348.62 885.752,1348.62 887.735,1348.62 889.717,1348.62 891.699,1348.62 893.682,1348.62 895.664,1348.63 897.647,1348.63 899.629,1348.63 901.612,1348.63 903.594,1348.64 905.577,1348.64 907.559,1348.64 909.541,1348.64 911.524,1348.64 913.506,1348.64 915.489,1348.65 917.471,1348.65 919.454,1348.65 921.436,1348.65 923.418,1348.65 925.401,1348.65 927.383,1348.65 929.366,1348.65 931.348,1348.65 933.331,1348.65 935.313,1348.65 937.296,1348.65 939.278,1348.65 941.26,1348.65 943.243,1348.66 945.225,1348.66 947.208,1348.66 949.19,1348.66 951.173,1348.66 953.155,1348.66 955.137,1348.66 957.12,1348.66 959.102,1348.66 961.085,1348.66 963.067,1348.66 965.05,1348.66 967.032,1348.66 969.015,1348.66 970.997,1348.66 972.979,1348.66 974.962,1348.66 976.944,1348.66 978.927,1348.66 980.909,1348.66 982.892,1348.66 984.874,1348.66 986.856,1348.67 988.839,1348.67 990.821,1348.67 992.804,1348.67 994.786,1348.67 996.769,1348.67 998.751,1348.67 1000.73,1348.67 1002.72,1348.67 1004.7,1348.67 1006.68,1348.67 1008.66,1348.67 1010.65,1348.67 1012.63,1348.67 1014.61,1348.67 1016.59,1348.67 1018.58,1348.67 1020.56,1348.67 1022.54,1348.67 1024.52,1348.67 1026.51,1348.67 1028.49,1348.67 1030.47,1348.67 1032.45,1348.67 1034.43,1348.67 1036.42,1348.67 1038.4,1348.67 1040.38,1348.67 1042.36,1348.67 1044.35,1348.67 1046.33,1348.67 1048.31,1348.67 1050.29,1348.67 1052.28,1348.67 1054.26,1348.67 1056.24,1348.67 1058.22,1348.67 1060.21,1348.67 1062.19,1348.67 1064.17,1348.67 1066.15,1348.67 1068.14,1348.67 1070.12,1348.67 1072.1,1348.67 1074.08,1348.67 1076.07,1348.67 1078.05,1348.67 1080.03,1348.67 1082.01,1348.67 1084,1348.67 1085.98,1348.67 1087.96,1348.67 1089.94,1348.67 1091.93,1348.67 1093.91,1348.67 1095.89,1348.67 1097.87,1348.67 1099.86,1348.67 1101.84,1348.67 1103.82,1348.67 1105.8,1348.67 1107.79,1348.67 1109.77,1348.67 1111.75,1348.67 1113.73,1348.67 1115.71,1348.67 1117.7,1348.67 1119.68,1348.67 1121.66,1348.67 1123.64,1348.67 1125.63,1348.67 1127.61,1348.67 1129.59,1348.67 1131.57,1348.67 1133.56,1348.67 1135.54,1348.67 1137.52,1348.67 1139.5,1348.67 1141.49,1348.67 1143.47,1348.67 1145.45,1348.67 1147.43,1348.67 1149.42,1348.67 1151.4,1348.67 1153.38,1348.67 1155.36,1348.67 1157.35,1348.67 1159.33,1348.67 1161.31,1348.67 1163.29,1348.67 1165.28,1348.67 1167.26,1348.67 1169.24,1348.67 1171.22,1348.67 1173.21,1348.67 1175.19,1348.67 1177.17,1348.67 1179.15,1348.67 1181.14,1348.67 1183.12,1348.67 1185.1,1348.67 1187.08,1348.67 1189.07,1348.67 1191.05,1348.67 1193.03,1348.67 1195.01,1348.67 1196.99,1348.67 1198.98,1348.67 1200.96,1348.67 1202.94,1348.67 1204.92,1348.67 1206.91,1348.67 1208.89,1348.67 1210.87,1348.67 1212.85,1348.67 1214.84,1348.67 1216.82,1348.67 1218.8,1348.67 1220.78,1348.67 1222.77,1348.67 1224.75,1348.67 1226.73,1348.67 1228.71,1348.67 1230.7,1348.67 1232.68,1348.67 1234.66,1348.67 1236.64,1348.67 1238.63,1348.67 1240.61,1348.67 1242.59,1348.67 1244.57,1348.67 1246.56,1348.67 1248.54,1348.67 1250.52,1348.67 1252.5,1348.67 1254.49,1348.67 1256.47,1348.67 1258.45,1348.67 1260.43,1348.67 1262.42,1348.67 1264.4,1348.67 1266.38,1348.67 1268.36,1348.67 1270.35,1348.67 1272.33,1348.67 1274.31,1348.67 1276.29,1348.67 1278.27,1348.67 1280.26,1348.67 1282.24,1348.67 1284.22,1348.67 1286.2,1348.67 1288.19,1348.67 1290.17,1348.67 1292.15,1348.67 1294.13,1348.67 1296.12,1348.67 1298.1,1348.67 1300.08,1348.67 1302.06,1348.67 1304.05,1348.67 1306.03,1348.67 1308.01,1348.67 1309.99,1348.67 1311.98,1348.67 1313.96,1348.67 1315.94,1348.67 1317.92,1348.67 1319.91,1348.67 1321.89,1348.67 1323.87,1348.67 1325.85,1348.67 1327.84,1348.67 1329.82,1348.67 1331.8,1348.67 1333.78,1348.67 1335.77,1348.67 1337.75,1348.67 1339.73,1348.67 1341.71,1348.67 1343.7,1348.67 1345.68,1348.67 1347.66,1348.67 1349.64,1348.67 1351.62,1348.67 1353.61,1348.67 1355.59,1348.67 1357.57,1348.67 1359.55,1348.67 1361.54,1348.67 1363.52,1348.67 1365.5,1348.67 1367.48,1348.67 1369.47,1348.67 1371.45,1348.67 1373.43,1348.67 1375.41,1348.67 1377.4,1348.67 1379.38,1348.67 1381.36,1348.67 1383.34,1348.67 1385.33,1348.67 1387.31,1348.67 1389.29,1348.67 1391.27,1348.67 1393.26,1348.67 1395.24,1348.67 1397.22,1348.67 1399.2,1348.67 1401.19,1348.67 1403.17,1348.67 1405.15,1348.67 1407.13,1348.67 1409.12,1348.67 1411.1,1348.67 1413.08,1348.67 1415.06,1348.67 1417.05,1348.67 1419.03,1348.67 1421.01,1348.67 1422.99,1348.67 1424.98,1348.67 1426.96,1348.67 1428.94,1348.67 1430.92,1348.67 1432.9,1348.67 1434.89,1348.67 1436.87,1348.67 1438.85,1348.67 1440.83,1348.67 1442.82,1348.67 1444.8,1348.67 1446.78,1348.67 1448.76,1348.67 1450.75,1348.67 1452.73,1348.67 1454.71,1348.67 1456.69,1348.67 1458.68,1348.67 1460.66,1348.67 1462.64,1348.67 1464.62,1348.67 1466.61,1348.67 1468.59,1348.67 1470.57,1348.67 1472.55,1348.67 1474.54,1348.67 1476.52,1348.67 1478.5,1348.67 1480.48,1348.67 1482.47,1348.67 1484.45,1348.67 1486.43,1348.67 1488.41,1348.67 1490.4,1348.67 1492.38,1348.67 1494.36,1348.67 1496.34,1348.67 1498.33,1348.67 1500.31,1348.67 1502.29,1348.67 1504.27,1348.67 1506.26,1348.67 1508.24,1348.67 1510.22,1348.67 1512.2,1348.67 1514.18,1348.67 1516.17,1348.67 1518.15,1348.67 1520.13,1348.67 1522.11,1348.67 1524.1,1348.67 1526.08,1348.67 1528.06,1348.67 1530.04,1348.67 1532.03,1348.67 1534.01,1348.67 1535.99,1348.67 1537.97,1348.67 1539.96,1348.67 1541.94,1348.67 1543.92,1348.67 1545.9,1348.67 1547.89,1348.67 1549.87,1348.67 1551.85,1348.67 1553.83,1348.67 1555.82,1348.67 1557.8,1348.67 1559.78,1348.67 1561.76,1348.67 1563.75,1348.67 1565.73,1348.67 1567.71,1348.67 1569.69,1348.67 1571.68,1348.67 1573.66,1348.67 1575.64,1348.67 1577.62,1348.67 1579.61,1348.67 1581.59,1348.67 1583.57,1348.67 1585.55,1348.67 1587.54,1348.67 1589.52,1348.67 1591.5,1348.67 1593.48,1348.67 1595.46,1348.67 1597.45,1348.67 1599.43,1348.67 1601.41,1348.67 1603.39,1348.67 1605.38,1348.67 1607.36,1348.67 1609.34,1348.67 1611.32,1348.67 1613.31,1348.67 1615.29,1348.67 1617.27,1348.67 1619.25,1348.67 1621.24,1348.67 1623.22,1348.67 1625.2,1348.67 1627.18,1348.67 1629.17,1348.67 1631.15,1348.67 1633.13,1348.67 1635.11,1348.67 1637.1,1348.67 1639.08,1348.67 1641.06,1348.67 1643.04,1348.67 1645.03,1348.67 1647.01,1348.67 1648.99,1348.67 1650.97,1348.67 1652.96,1348.67 1654.94,1348.67 1656.92,1348.67 1658.9,1348.67 1660.89,1348.67 1662.87,1348.67 1664.85,1348.67 1666.83,1348.67 1668.81,1348.67 1670.8,1348.67 1672.78,1348.67 1674.76,1348.67 1676.74,1348.67 1678.73,1348.67 1680.71,1348.67 1682.69,1348.67 1684.67,1348.67 1686.66,1348.67 1688.64,1348.67 1690.62,1348.67 1692.6,1348.67 1694.59,1348.67 1696.57,1348.67 1698.55,1348.67 1700.53,1348.67 1702.52,1348.67 1704.5,1348.67 1706.48,1348.67 1708.46,1348.67 1710.45,1348.67 1712.43,1348.67 1714.41,1348.67 1716.39,1348.67 1718.38,1348.67 1720.36,1348.67 1722.34,1348.67 1724.32,1348.67 1726.31,1348.67 1728.29,1348.67 1730.27,1348.67 1732.25,1348.67 1734.24,1348.67 1736.22,1348.67 1738.2,1348.67 1740.18,1348.67 1742.17,1348.67 1744.15,1348.67 1746.13,1348.67 1748.11,1348.67 1750.09,1348.67 1752.08,1348.67 1754.06,1348.67 1756.04,1348.67 1758.02,1348.67 1760.01,1348.67 1761.99,1348.67 1763.97,1348.67 1765.95,1348.67 1767.94,1348.67 1769.92,1348.67 1771.9,1348.67 1773.88,1348.67 1775.87,1348.67 1777.85,1348.67 1779.83,1348.67 1781.81,1348.67 1783.8,1348.67 1785.78,1348.67 1787.76,1348.67 1789.74,1348.67 1791.73,1348.67 1793.71,1348.67 1795.69,1348.67 1797.67,1348.67 1799.66,1348.67 1801.64,1348.67 1803.62,1348.67 1805.6,1348.67 1807.59,1348.67 1809.57,1348.67 1811.55,1348.67 1813.53,1348.67 1815.52,1348.67 1817.5,1348.67 1819.48,1348.67 1821.46,1348.67 1823.45,1348.67 1825.43,1348.67 1827.41,1348.67 1829.39,1348.67 1831.37,1348.67 1833.36,1348.67 1835.34,1348.67 1837.32,1348.67 1839.3,1348.67 1841.29,1348.67 1843.27,1348.67 1845.25,1348.67 1847.23,1348.67 1849.22,1348.67 1851.2,1348.67 1853.18,1348.67 1855.16,1348.67 1857.15,1348.67 1859.13,1348.67 1861.11,1348.67 1863.09,1348.67 1865.08,1348.67 1867.06,1348.67 1869.04,1348.67 1871.02,1348.67 1873.01,1348.67 1874.99,1348.67 1876.97,1348.67 1878.95,1348.67 1880.94,1348.67 1882.92,1348.67 1884.9,1348.67 1886.88,1348.67 1888.87,1348.67 1890.85,1348.67 1892.83,1348.67 1894.81,1348.67 1896.8,1348.67 1898.78,1348.67 1900.76,1348.67 1902.74,1348.67 1904.73,1348.67 1906.71,1348.67 1908.69,1348.67 1910.67,1348.67 1912.65,1348.67 1914.64,1348.67 1916.62,1348.67 1918.6,1348.67 1920.58,1348.67 1922.57,1348.67 1924.55,1348.67 1926.53,1348.67 1928.51,1348.67 1930.5,1348.67 1932.48,1348.67 1934.46,1348.67 1936.44,1348.67 1938.43,1348.67 1940.41,1348.67 1942.39,1348.67 1944.37,1348.67 1946.36,1348.67 1948.34,1348.67 1950.32,1348.67 1952.3,1348.67 1954.29,1348.67 "/>
<polyline clip-path="url(#clip412)" style="stroke:#c271d2; stroke-linecap:round; stroke-linejoin:round; stroke-width:4; stroke-opacity:1; fill:none" points="310.845,1051 312.828,1051 314.81,1051 316.793,1051 318.775,1051 320.757,1224.89 322.74,1368.49 324.722,1383.21 326.705,1386.38 328.687,1386.39 330.67,1386.39 332.652,1386.4 334.635,1386.4 336.617,1386.4 338.599,1386.4 340.582,1386.4 342.564,1386.4 344.547,1386.4 346.529,1386.4 348.512,1386.4 350.494,1386.4 "/>
<polyline clip-path="url(#clip412)" style="stroke:#ac8d18; stroke-linecap:round; stroke-linejoin:round; stroke-width:4; stroke-opacity:1; fill:none" points="310.845,1051 312.828,1051 314.81,1051 316.793,1051 318.775,1051 320.757,1224.89 322.74,1368.49 324.722,1383.21 326.705,1386.38 328.687,1386.39 330.67,1386.39 332.652,1386.4 334.635,1386.4 336.617,1386.4 338.599,1386.4 340.582,1386.4 342.564,1386.4 344.547,1386.4 346.529,1386.4 348.512,1386.4 350.494,1386.4 "/>
<path clip-path="url(#clip410)" d="M1749.47 477.836 L2282.71 477.836 L2282.71 166.796 L1749.47 166.796  Z" fill="#ffffff" fill-rule="evenodd" fill-opacity="1"/>
<polyline clip-path="url(#clip410)" style="stroke:#000000; stroke-linecap:round; stroke-linejoin:round; stroke-width:4; stroke-opacity:1; fill:none" points="1749.47,477.836 2282.71,477.836 2282.71,166.796 1749.47,166.796 1749.47,477.836 "/>
<polyline clip-path="url(#clip410)" style="stroke:#009af9; stroke-linecap:round; stroke-linejoin:round; stroke-width:4; stroke-opacity:1; fill:none" points="1772.82,218.636 1912.91,218.636 "/>
<path clip-path="url(#clip410)" d="M1936.26 201.356 L1940.94 201.356 L1940.94 231.981 L1957.77 231.981 L1957.77 235.916 L1936.26 235.916 L1936.26 201.356 Z" fill="#000000" fill-rule="nonzero" fill-opacity="1" /><path clip-path="url(#clip410)" d="M1962.67 201.356 L1969.64 201.356 L1978.46 224.874 L1987.33 201.356 L1994.29 201.356 L1994.29 235.916 L1989.73 235.916 L1989.73 205.569 L1980.82 229.272 L1976.12 229.272 L1967.21 205.569 L1967.21 235.916 L1962.67 235.916 L1962.67 201.356 Z" fill="#000000" fill-rule="nonzero" fill-opacity="1" /><path clip-path="url(#clip410)" d="M2023.09 243.786 L2023.09 247.096 L1998.46 247.096 L1998.46 243.786 L2023.09 243.786 Z" fill="#000000" fill-rule="nonzero" fill-opacity="1" /><path clip-path="url(#clip410)" d="M2048 202.49 L2048 207.05 Q2045.33 205.777 2042.97 205.152 Q2040.61 204.527 2038.41 204.527 Q2034.59 204.527 2032.51 206.008 Q2030.45 207.49 2030.45 210.221 Q2030.45 212.513 2031.82 213.694 Q2033.2 214.851 2037.05 215.569 L2039.87 216.147 Q2045.1 217.143 2047.58 219.666 Q2050.08 222.166 2050.08 226.379 Q2050.08 231.402 2046.7 233.994 Q2043.34 236.587 2036.84 236.587 Q2034.39 236.587 2031.61 236.031 Q2028.85 235.476 2025.89 234.388 L2025.89 229.573 Q2028.74 231.17 2031.47 231.981 Q2034.2 232.791 2036.84 232.791 Q2040.84 232.791 2043.02 231.217 Q2045.2 229.643 2045.2 226.726 Q2045.2 224.18 2043.62 222.744 Q2042.07 221.309 2038.51 220.592 L2035.66 220.036 Q2030.43 218.995 2028.09 216.772 Q2025.75 214.55 2025.75 210.592 Q2025.75 206.008 2028.97 203.37 Q2032.21 200.731 2037.88 200.731 Q2040.31 200.731 2042.83 201.171 Q2045.36 201.61 2048 202.49 Z" fill="#000000" fill-rule="nonzero" fill-opacity="1" /><path clip-path="url(#clip410)" d="M2062.05 205.198 L2062.05 218.184 L2067.93 218.184 Q2071.19 218.184 2072.97 216.495 Q2074.76 214.805 2074.76 211.68 Q2074.76 208.578 2072.97 206.888 Q2071.19 205.198 2067.93 205.198 L2062.05 205.198 M2057.37 201.356 L2067.93 201.356 Q2073.74 201.356 2076.7 203.995 Q2079.69 206.61 2079.69 211.68 Q2079.69 216.795 2076.7 219.411 Q2073.74 222.027 2067.93 222.027 L2062.05 222.027 L2062.05 235.916 L2057.37 235.916 L2057.37 201.356 Z" fill="#000000" fill-rule="nonzero" fill-opacity="1" /><path clip-path="url(#clip410)" d="M2109.52 230.985 L2109.52 221.703 L2101.89 221.703 L2101.89 217.86 L2114.15 217.86 L2114.15 232.698 Q2111.45 234.619 2108.18 235.615 Q2104.92 236.587 2101.21 236.587 Q2093.11 236.587 2088.53 231.865 Q2083.97 227.119 2083.97 218.67 Q2083.97 210.198 2088.53 205.476 Q2093.11 200.731 2101.21 200.731 Q2104.59 200.731 2107.63 201.564 Q2110.68 202.397 2113.25 204.018 L2113.25 208.995 Q2110.66 206.796 2107.74 205.684 Q2104.82 204.573 2101.61 204.573 Q2095.26 204.573 2092.07 208.115 Q2088.9 211.657 2088.9 218.67 Q2088.9 225.661 2092.07 229.203 Q2095.26 232.744 2101.61 232.744 Q2104.08 232.744 2106.03 232.328 Q2107.97 231.888 2109.52 230.985 Z" fill="#000000" fill-rule="nonzero" fill-opacity="1" /><polyline clip-path="url(#clip410)" style="stroke:#e26f46; stroke-linecap:round; stroke-linejoin:round; stroke-width:4; stroke-opacity:1; fill:none" points="1772.82,270.476 1912.91,270.476 "/>
<path clip-path="url(#clip410)" d="M1936.26 253.196 L1940.94 253.196 L1940.94 283.821 L1957.77 283.821 L1957.77 287.756 L1936.26 287.756 L1936.26 253.196 Z" fill="#000000" fill-rule="nonzero" fill-opacity="1" /><path clip-path="url(#clip410)" d="M1962.67 253.196 L1969.64 253.196 L1978.46 276.714 L1987.33 253.196 L1994.29 253.196 L1994.29 287.756 L1989.73 287.756 L1989.73 257.409 L1980.82 281.112 L1976.12 281.112 L1967.21 257.409 L1967.21 287.756 L1962.67 287.756 L1962.67 253.196 Z" fill="#000000" fill-rule="nonzero" fill-opacity="1" /><path clip-path="url(#clip410)" d="M2023.09 295.626 L2023.09 298.936 L1998.46 298.936 L1998.46 295.626 L2023.09 295.626 Z" fill="#000000" fill-rule="nonzero" fill-opacity="1" /><path clip-path="url(#clip410)" d="M2038.83 257.802 L2032.49 275.001 L2045.2 275.001 L2038.83 257.802 M2036.19 253.196 L2041.49 253.196 L2054.66 287.756 L2049.8 287.756 L2046.65 278.89 L2031.08 278.89 L2027.93 287.756 L2023 287.756 L2036.19 253.196 Z" fill="#000000" fill-rule="nonzero" fill-opacity="1" /><path clip-path="url(#clip410)" d="M2081.07 272.108 L2081.07 287.756 L2076.82 287.756 L2076.82 272.247 Q2076.82 268.566 2075.38 266.737 Q2073.95 264.909 2071.08 264.909 Q2067.63 264.909 2065.64 267.108 Q2063.64 269.307 2063.64 273.103 L2063.64 287.756 L2059.36 287.756 L2059.36 261.83 L2063.64 261.83 L2063.64 265.858 Q2065.17 263.52 2067.23 262.362 Q2069.32 261.205 2072.02 261.205 Q2076.49 261.205 2078.78 263.983 Q2081.07 266.737 2081.07 272.108 Z" fill="#000000" fill-rule="nonzero" fill-opacity="1" /><path clip-path="url(#clip410)" d="M2106.63 265.765 L2106.63 251.737 L2110.89 251.737 L2110.89 287.756 L2106.63 287.756 L2106.63 283.867 Q2105.29 286.182 2103.23 287.316 Q2101.19 288.427 2098.32 288.427 Q2093.62 288.427 2090.66 284.677 Q2087.72 280.927 2087.72 274.816 Q2087.72 268.705 2090.66 264.955 Q2093.62 261.205 2098.32 261.205 Q2101.19 261.205 2103.23 262.339 Q2105.29 263.45 2106.63 265.765 M2092.12 274.816 Q2092.12 279.515 2094.04 282.2 Q2095.98 284.862 2099.36 284.862 Q2102.74 284.862 2104.69 282.2 Q2106.63 279.515 2106.63 274.816 Q2106.63 270.117 2104.69 267.455 Q2102.74 264.77 2099.36 264.77 Q2095.98 264.77 2094.04 267.455 Q2092.12 270.117 2092.12 274.816 Z" fill="#000000" fill-rule="nonzero" fill-opacity="1" /><path clip-path="url(#clip410)" d="M2134.69 265.811 Q2133.97 265.395 2133.11 265.21 Q2132.28 265.001 2131.26 265.001 Q2127.65 265.001 2125.7 267.362 Q2123.78 269.7 2123.78 274.098 L2123.78 287.756 L2119.5 287.756 L2119.5 261.83 L2123.78 261.83 L2123.78 265.858 Q2125.13 263.497 2127.28 262.362 Q2129.43 261.205 2132.51 261.205 Q2132.95 261.205 2133.48 261.274 Q2134.01 261.321 2134.66 261.436 L2134.69 265.811 Z" fill="#000000" fill-rule="nonzero" fill-opacity="1" /><path clip-path="url(#clip410)" d="M2160.29 273.728 L2160.29 275.811 L2140.7 275.811 Q2140.98 280.209 2143.34 282.524 Q2145.73 284.816 2149.96 284.816 Q2152.42 284.816 2154.71 284.214 Q2157.02 283.612 2159.29 282.409 L2159.29 286.436 Q2157 287.408 2154.59 287.918 Q2152.19 288.427 2149.71 288.427 Q2143.51 288.427 2139.87 284.816 Q2136.26 281.205 2136.26 275.047 Q2136.26 268.682 2139.69 264.955 Q2143.13 261.205 2148.97 261.205 Q2154.2 261.205 2157.23 264.585 Q2160.29 267.941 2160.29 273.728 M2156.03 272.478 Q2155.98 268.983 2154.06 266.899 Q2152.16 264.816 2149.01 264.816 Q2145.45 264.816 2143.3 266.83 Q2141.17 268.844 2140.84 272.501 L2156.03 272.478 Z" fill="#000000" fill-rule="nonzero" fill-opacity="1" /><path clip-path="url(#clip410)" d="M2167.28 261.83 L2171.54 261.83 L2171.54 287.756 L2167.28 287.756 L2167.28 261.83 M2167.28 251.737 L2171.54 251.737 L2171.54 257.131 L2167.28 257.131 L2167.28 251.737 Z" fill="#000000" fill-rule="nonzero" fill-opacity="1" /><path clip-path="url(#clip410)" d="M2200.15 295.626 L2200.15 298.936 L2175.52 298.936 L2175.52 295.626 L2200.15 295.626 Z" fill="#000000" fill-rule="nonzero" fill-opacity="1" /><path clip-path="url(#clip410)" d="M2215.94 274.723 Q2210.77 274.723 2208.78 275.904 Q2206.79 277.084 2206.79 279.932 Q2206.79 282.2 2208.27 283.543 Q2209.78 284.862 2212.35 284.862 Q2215.89 284.862 2218.02 282.362 Q2220.17 279.839 2220.17 275.672 L2220.17 274.723 L2215.94 274.723 M2224.43 272.964 L2224.43 287.756 L2220.17 287.756 L2220.17 283.821 Q2218.71 286.182 2216.54 287.316 Q2214.36 288.427 2211.21 288.427 Q2207.23 288.427 2204.87 286.205 Q2202.53 283.959 2202.53 280.209 Q2202.53 275.834 2205.45 273.612 Q2208.39 271.39 2214.2 271.39 L2220.17 271.39 L2220.17 270.973 Q2220.17 268.034 2218.23 266.436 Q2216.31 264.816 2212.81 264.816 Q2210.59 264.816 2208.48 265.348 Q2206.38 265.881 2204.43 266.946 L2204.43 263.01 Q2206.77 262.108 2208.97 261.668 Q2211.17 261.205 2213.25 261.205 Q2218.88 261.205 2221.65 264.122 Q2224.43 267.038 2224.43 272.964 Z" fill="#000000" fill-rule="nonzero" fill-opacity="1" /><path clip-path="url(#clip410)" d="M2233.2 251.737 L2237.46 251.737 L2237.46 287.756 L2233.2 287.756 L2233.2 251.737 Z" fill="#000000" fill-rule="nonzero" fill-opacity="1" /><path clip-path="url(#clip410)" d="M2250.59 254.469 L2250.59 261.83 L2259.36 261.83 L2259.36 265.14 L2250.59 265.14 L2250.59 279.214 Q2250.59 282.385 2251.44 283.288 Q2252.32 284.191 2254.99 284.191 L2259.36 284.191 L2259.36 287.756 L2254.99 287.756 Q2250.06 287.756 2248.18 285.927 Q2246.31 284.075 2246.31 279.214 L2246.31 265.14 L2243.18 265.14 L2243.18 261.83 L2246.31 261.83 L2246.31 254.469 L2250.59 254.469 Z" fill="#000000" fill-rule="nonzero" fill-opacity="1" /><polyline clip-path="url(#clip410)" style="stroke:#3da44d; stroke-linecap:round; stroke-linejoin:round; stroke-width:4; stroke-opacity:1; fill:none" points="1772.82,322.316 1912.91,322.316 "/>
<path clip-path="url(#clip410)" d="M1936.26 305.036 L1940.94 305.036 L1940.94 335.661 L1957.77 335.661 L1957.77 339.596 L1936.26 339.596 L1936.26 305.036 Z" fill="#000000" fill-rule="nonzero" fill-opacity="1" /><path clip-path="url(#clip410)" d="M1962.67 305.036 L1969.64 305.036 L1978.46 328.554 L1987.33 305.036 L1994.29 305.036 L1994.29 339.596 L1989.73 339.596 L1989.73 309.249 L1980.82 332.952 L1976.12 332.952 L1967.21 309.249 L1967.21 339.596 L1962.67 339.596 L1962.67 305.036 Z" fill="#000000" fill-rule="nonzero" fill-opacity="1" /><path clip-path="url(#clip410)" d="M2023.09 347.466 L2023.09 350.776 L1998.46 350.776 L1998.46 347.466 L2023.09 347.466 Z" fill="#000000" fill-rule="nonzero" fill-opacity="1" /><path clip-path="url(#clip410)" d="M2038.83 309.642 L2032.49 326.841 L2045.2 326.841 L2038.83 309.642 M2036.19 305.036 L2041.49 305.036 L2054.66 339.596 L2049.8 339.596 L2046.65 330.73 L2031.08 330.73 L2027.93 339.596 L2023 339.596 L2036.19 305.036 Z" fill="#000000" fill-rule="nonzero" fill-opacity="1" /><path clip-path="url(#clip410)" d="M2081.07 323.948 L2081.07 339.596 L2076.82 339.596 L2076.82 324.087 Q2076.82 320.406 2075.38 318.577 Q2073.95 316.749 2071.08 316.749 Q2067.63 316.749 2065.64 318.948 Q2063.64 321.147 2063.64 324.943 L2063.64 339.596 L2059.36 339.596 L2059.36 313.67 L2063.64 313.67 L2063.64 317.698 Q2065.17 315.36 2067.23 314.202 Q2069.32 313.045 2072.02 313.045 Q2076.49 313.045 2078.78 315.823 Q2081.07 318.577 2081.07 323.948 Z" fill="#000000" fill-rule="nonzero" fill-opacity="1" /><path clip-path="url(#clip410)" d="M2106.63 317.605 L2106.63 303.577 L2110.89 303.577 L2110.89 339.596 L2106.63 339.596 L2106.63 335.707 Q2105.29 338.022 2103.23 339.156 Q2101.19 340.267 2098.32 340.267 Q2093.62 340.267 2090.66 336.517 Q2087.72 332.767 2087.72 326.656 Q2087.72 320.545 2090.66 316.795 Q2093.62 313.045 2098.32 313.045 Q2101.19 313.045 2103.23 314.179 Q2105.29 315.29 2106.63 317.605 M2092.12 326.656 Q2092.12 331.355 2094.04 334.04 Q2095.98 336.702 2099.36 336.702 Q2102.74 336.702 2104.69 334.04 Q2106.63 331.355 2106.63 326.656 Q2106.63 321.957 2104.69 319.295 Q2102.74 316.61 2099.36 316.61 Q2095.98 316.61 2094.04 319.295 Q2092.12 321.957 2092.12 326.656 Z" fill="#000000" fill-rule="nonzero" fill-opacity="1" /><path clip-path="url(#clip410)" d="M2134.69 317.651 Q2133.97 317.235 2133.11 317.05 Q2132.28 316.841 2131.26 316.841 Q2127.65 316.841 2125.7 319.202 Q2123.78 321.54 2123.78 325.938 L2123.78 339.596 L2119.5 339.596 L2119.5 313.67 L2123.78 313.67 L2123.78 317.698 Q2125.13 315.337 2127.28 314.202 Q2129.43 313.045 2132.51 313.045 Q2132.95 313.045 2133.48 313.114 Q2134.01 313.161 2134.66 313.276 L2134.69 317.651 Z" fill="#000000" fill-rule="nonzero" fill-opacity="1" /><path clip-path="url(#clip410)" d="M2160.29 325.568 L2160.29 327.651 L2140.7 327.651 Q2140.98 332.049 2143.34 334.364 Q2145.73 336.656 2149.96 336.656 Q2152.42 336.656 2154.71 336.054 Q2157.02 335.452 2159.29 334.249 L2159.29 338.276 Q2157 339.248 2154.59 339.758 Q2152.19 340.267 2149.71 340.267 Q2143.51 340.267 2139.87 336.656 Q2136.26 333.045 2136.26 326.887 Q2136.26 320.522 2139.69 316.795 Q2143.13 313.045 2148.97 313.045 Q2154.2 313.045 2157.23 316.425 Q2160.29 319.781 2160.29 325.568 M2156.03 324.318 Q2155.98 320.823 2154.06 318.739 Q2152.16 316.656 2149.01 316.656 Q2145.45 316.656 2143.3 318.67 Q2141.17 320.684 2140.84 324.341 L2156.03 324.318 Z" fill="#000000" fill-rule="nonzero" fill-opacity="1" /><path clip-path="url(#clip410)" d="M2167.28 313.67 L2171.54 313.67 L2171.54 339.596 L2167.28 339.596 L2167.28 313.67 M2167.28 303.577 L2171.54 303.577 L2171.54 308.971 L2167.28 308.971 L2167.28 303.577 Z" fill="#000000" fill-rule="nonzero" fill-opacity="1" /><polyline clip-path="url(#clip410)" style="stroke:#c271d2; stroke-linecap:round; stroke-linejoin:round; stroke-width:4; stroke-opacity:1; fill:none" points="1772.82,374.156 1912.91,374.156 "/>
<path clip-path="url(#clip410)" d="M1936.26 356.876 L1940.94 356.876 L1940.94 387.501 L1957.77 387.501 L1957.77 391.436 L1936.26 391.436 L1936.26 356.876 Z" fill="#000000" fill-rule="nonzero" fill-opacity="1" /><path clip-path="url(#clip410)" d="M1962.67 356.876 L1969.64 356.876 L1978.46 380.394 L1987.33 356.876 L1994.29 356.876 L1994.29 391.436 L1989.73 391.436 L1989.73 361.089 L1980.82 384.792 L1976.12 384.792 L1967.21 361.089 L1967.21 391.436 L1962.67 391.436 L1962.67 356.876 Z" fill="#000000" fill-rule="nonzero" fill-opacity="1" /><path clip-path="url(#clip410)" d="M2023.09 399.306 L2023.09 402.616 L1998.46 402.616 L1998.46 399.306 L2023.09 399.306 Z" fill="#000000" fill-rule="nonzero" fill-opacity="1" /><path clip-path="url(#clip410)" d="M2048 358.01 L2048 362.57 Q2045.33 361.297 2042.97 360.672 Q2040.61 360.047 2038.41 360.047 Q2034.59 360.047 2032.51 361.528 Q2030.45 363.01 2030.45 365.741 Q2030.45 368.033 2031.82 369.214 Q2033.2 370.371 2037.05 371.089 L2039.87 371.667 Q2045.1 372.663 2047.58 375.186 Q2050.08 377.686 2050.08 381.899 Q2050.08 386.922 2046.7 389.514 Q2043.34 392.107 2036.84 392.107 Q2034.39 392.107 2031.61 391.551 Q2028.85 390.996 2025.89 389.908 L2025.89 385.093 Q2028.74 386.69 2031.47 387.501 Q2034.2 388.311 2036.84 388.311 Q2040.84 388.311 2043.02 386.737 Q2045.2 385.163 2045.2 382.246 Q2045.2 379.7 2043.62 378.264 Q2042.07 376.829 2038.51 376.112 L2035.66 375.556 Q2030.43 374.515 2028.09 372.292 Q2025.75 370.07 2025.75 366.112 Q2025.75 361.528 2028.97 358.89 Q2032.21 356.251 2037.88 356.251 Q2040.31 356.251 2042.83 356.691 Q2045.36 357.13 2048 358.01 Z" fill="#000000" fill-rule="nonzero" fill-opacity="1" /><path clip-path="url(#clip410)" d="M2062.05 360.718 L2062.05 373.704 L2067.93 373.704 Q2071.19 373.704 2072.97 372.015 Q2074.76 370.325 2074.76 367.2 Q2074.76 364.098 2072.97 362.408 Q2071.19 360.718 2067.93 360.718 L2062.05 360.718 M2057.37 356.876 L2067.93 356.876 Q2073.74 356.876 2076.7 359.515 Q2079.69 362.13 2079.69 367.2 Q2079.69 372.315 2076.7 374.931 Q2073.74 377.547 2067.93 377.547 L2062.05 377.547 L2062.05 391.436 L2057.37 391.436 L2057.37 356.876 Z" fill="#000000" fill-rule="nonzero" fill-opacity="1" /><path clip-path="url(#clip410)" d="M2109.52 386.505 L2109.52 377.223 L2101.89 377.223 L2101.89 373.38 L2114.15 373.38 L2114.15 388.218 Q2111.45 390.139 2108.18 391.135 Q2104.92 392.107 2101.21 392.107 Q2093.11 392.107 2088.53 387.385 Q2083.97 382.639 2083.97 374.19 Q2083.97 365.718 2088.53 360.996 Q2093.11 356.251 2101.21 356.251 Q2104.59 356.251 2107.63 357.084 Q2110.68 357.917 2113.25 359.538 L2113.25 364.515 Q2110.66 362.316 2107.74 361.204 Q2104.82 360.093 2101.61 360.093 Q2095.26 360.093 2092.07 363.635 Q2088.9 367.177 2088.9 374.19 Q2088.9 381.181 2092.07 384.723 Q2095.26 388.264 2101.61 388.264 Q2104.08 388.264 2106.03 387.848 Q2107.97 387.408 2109.52 386.505 Z" fill="#000000" fill-rule="nonzero" fill-opacity="1" /><path clip-path="url(#clip410)" d="M2142.21 399.306 L2142.21 402.616 L2117.58 402.616 L2117.58 399.306 L2142.21 399.306 Z" fill="#000000" fill-rule="nonzero" fill-opacity="1" /><path clip-path="url(#clip410)" d="M2158 378.403 Q2152.83 378.403 2150.84 379.584 Q2148.85 380.764 2148.85 383.612 Q2148.85 385.88 2150.33 387.223 Q2151.84 388.542 2154.41 388.542 Q2157.95 388.542 2160.08 386.042 Q2162.23 383.519 2162.23 379.352 L2162.23 378.403 L2158 378.403 M2166.49 376.644 L2166.49 391.436 L2162.23 391.436 L2162.23 387.501 Q2160.77 389.862 2158.6 390.996 Q2156.42 392.107 2153.27 392.107 Q2149.29 392.107 2146.93 389.885 Q2144.59 387.639 2144.59 383.889 Q2144.59 379.514 2147.51 377.292 Q2150.45 375.07 2156.26 375.07 L2162.23 375.07 L2162.23 374.653 Q2162.23 371.714 2160.29 370.116 Q2158.37 368.496 2154.87 368.496 Q2152.65 368.496 2150.54 369.028 Q2148.44 369.561 2146.49 370.626 L2146.49 366.69 Q2148.83 365.788 2151.03 365.348 Q2153.23 364.885 2155.31 364.885 Q2160.94 364.885 2163.71 367.802 Q2166.49 370.718 2166.49 376.644 Z" fill="#000000" fill-rule="nonzero" fill-opacity="1" /><path clip-path="url(#clip410)" d="M2175.26 355.417 L2179.52 355.417 L2179.52 391.436 L2175.26 391.436 L2175.26 355.417 Z" fill="#000000" fill-rule="nonzero" fill-opacity="1" /><path clip-path="url(#clip410)" d="M2192.65 358.149 L2192.65 365.51 L2201.42 365.51 L2201.42 368.82 L2192.65 368.82 L2192.65 382.894 Q2192.65 386.065 2193.5 386.968 Q2194.38 387.871 2197.05 387.871 L2201.42 387.871 L2201.42 391.436 L2197.05 391.436 Q2192.12 391.436 2190.24 389.607 Q2188.37 387.755 2188.37 382.894 L2188.37 368.82 L2185.24 368.82 L2185.24 365.51 L2188.37 365.51 L2188.37 358.149 L2192.65 358.149 Z" fill="#000000" fill-rule="nonzero" fill-opacity="1" /><polyline clip-path="url(#clip410)" style="stroke:#ac8d18; stroke-linecap:round; stroke-linejoin:round; stroke-width:4; stroke-opacity:1; fill:none" points="1772.82,425.996 1912.91,425.996 "/>
<path clip-path="url(#clip410)" d="M1936.26 408.716 L1940.94 408.716 L1940.94 439.341 L1957.77 439.341 L1957.77 443.276 L1936.26 443.276 L1936.26 408.716 Z" fill="#000000" fill-rule="nonzero" fill-opacity="1" /><path clip-path="url(#clip410)" d="M1962.67 408.716 L1969.64 408.716 L1978.46 432.234 L1987.33 408.716 L1994.29 408.716 L1994.29 443.276 L1989.73 443.276 L1989.73 412.929 L1980.82 436.632 L1976.12 436.632 L1967.21 412.929 L1967.21 443.276 L1962.67 443.276 L1962.67 408.716 Z" fill="#000000" fill-rule="nonzero" fill-opacity="1" /></svg>
