<?xml version="1.0" encoding="utf-8"?>
<svg xmlns="http://www.w3.org/2000/svg" xmlns:xlink="http://www.w3.org/1999/xlink" width="600" height="400" viewBox="0 0 2400 1600">
<defs>
  <clipPath id="clip380">
    <rect x="0" y="0" width="2400" height="1600"/>
  </clipPath>
</defs>
<path clip-path="url(#clip380)" d="M0 1600 L2400 1600 L2400 0 L0 0  Z" fill="#ffffff" fill-rule="evenodd" fill-opacity="1"/>
<defs>
  <clipPath id="clip381">
    <rect x="480" y="0" width="1681" height="1600"/>
  </clipPath>
</defs>
<path clip-path="url(#clip380)" d="M251.56 1423.18 L2352.76 1423.18 L2352.76 123.472 L251.56 123.472  Z" fill="#ffffff" fill-rule="evenodd" fill-opacity="1"/>
<defs>
  <clipPath id="clip382">
    <rect x="251" y="123" width="2102" height="1301"/>
  </clipPath>
</defs>
<polyline clip-path="url(#clip382)" style="stroke:#000000; stroke-linecap:round; stroke-linejoin:round; stroke-width:2; stroke-opacity:0.1; fill:none" points="307.622,1423.18 307.622,123.472 "/>
<polyline clip-path="url(#clip382)" style="stroke:#000000; stroke-linecap:round; stroke-linejoin:round; stroke-width:2; stroke-opacity:0.1; fill:none" points="648.217,1423.18 648.217,123.472 "/>
<polyline clip-path="url(#clip382)" style="stroke:#000000; stroke-linecap:round; stroke-linejoin:round; stroke-width:2; stroke-opacity:0.1; fill:none" points="988.811,1423.18 988.811,123.472 "/>
<polyline clip-path="url(#clip382)" style="stroke:#000000; stroke-linecap:round; stroke-linejoin:round; stroke-width:2; stroke-opacity:0.1; fill:none" points="1329.41,1423.18 1329.41,123.472 "/>
<polyline clip-path="url(#clip382)" style="stroke:#000000; stroke-linecap:round; stroke-linejoin:round; stroke-width:2; stroke-opacity:0.1; fill:none" points="1670,1423.18 1670,123.472 "/>
<polyline clip-path="url(#clip382)" style="stroke:#000000; stroke-linecap:round; stroke-linejoin:round; stroke-width:2; stroke-opacity:0.1; fill:none" points="2010.59,1423.18 2010.59,123.472 "/>
<polyline clip-path="url(#clip382)" style="stroke:#000000; stroke-linecap:round; stroke-linejoin:round; stroke-width:2; stroke-opacity:0.1; fill:none" points="2351.19,1423.18 2351.19,123.472 "/>
<polyline clip-path="url(#clip380)" style="stroke:#000000; stroke-linecap:round; stroke-linejoin:round; stroke-width:4; stroke-opacity:1; fill:none" points="251.56,1423.18 2352.76,1423.18 "/>
<polyline clip-path="url(#clip380)" style="stroke:#000000; stroke-linecap:round; stroke-linejoin:round; stroke-width:4; stroke-opacity:1; fill:none" points="307.622,1423.18 307.622,1404.28 "/>
<polyline clip-path="url(#clip380)" style="stroke:#000000; stroke-linecap:round; stroke-linejoin:round; stroke-width:4; stroke-opacity:1; fill:none" points="648.217,1423.18 648.217,1404.28 "/>
<polyline clip-path="url(#clip380)" style="stroke:#000000; stroke-linecap:round; stroke-linejoin:round; stroke-width:4; stroke-opacity:1; fill:none" points="988.811,1423.18 988.811,1404.28 "/>
<polyline clip-path="url(#clip380)" style="stroke:#000000; stroke-linecap:round; stroke-linejoin:round; stroke-width:4; stroke-opacity:1; fill:none" points="1329.41,1423.18 1329.41,1404.28 "/>
<polyline clip-path="url(#clip380)" style="stroke:#000000; stroke-linecap:round; stroke-linejoin:round; stroke-width:4; stroke-opacity:1; fill:none" points="1670,1423.18 1670,1404.28 "/>
<polyline clip-path="url(#clip380)" style="stroke:#000000; stroke-linecap:round; stroke-linejoin:round; stroke-width:4; stroke-opacity:1; fill:none" points="2010.59,1423.18 2010.59,1404.28 "/>
<polyline clip-path="url(#clip380)" style="stroke:#000000; stroke-linecap:round; stroke-linejoin:round; stroke-width:4; stroke-opacity:1; fill:none" points="2351.19,1423.18 2351.19,1404.28 "/>
<path clip-path="url(#clip380)" d="M307.622 1454.1 Q304.011 1454.1 302.182 1457.66 Q300.377 1461.2 300.377 1468.33 Q300.377 1475.44 302.182 1479.01 Q304.011 1482.55 307.622 1482.55 Q311.256 1482.55 313.062 1479.01 Q314.891 1475.44 314.891 1468.33 Q314.891 1461.2 313.062 1457.66 Q311.256 1454.1 307.622 1454.1 M307.622 1450.39 Q313.432 1450.39 316.488 1455 Q319.566 1459.58 319.566 1468.33 Q319.566 1477.06 316.488 1481.67 Q313.432 1486.25 307.622 1486.25 Q301.812 1486.25 298.733 1481.67 Q295.678 1477.06 295.678 1468.33 Q295.678 1459.58 298.733 1455 Q301.812 1450.39 307.622 1450.39 Z" fill="#000000" fill-rule="nonzero" fill-opacity="1" /><path clip-path="url(#clip380)" d="M607.823 1481.64 L615.462 1481.64 L615.462 1455.28 L607.152 1456.95 L607.152 1452.69 L615.416 1451.02 L620.092 1451.02 L620.092 1481.64 L627.731 1481.64 L627.731 1485.58 L607.823 1485.58 L607.823 1481.64 Z" fill="#000000" fill-rule="nonzero" fill-opacity="1" /><path clip-path="url(#clip380)" d="M647.175 1454.1 Q643.564 1454.1 641.735 1457.66 Q639.93 1461.2 639.93 1468.33 Q639.93 1475.44 641.735 1479.01 Q643.564 1482.55 647.175 1482.55 Q650.809 1482.55 652.615 1479.01 Q654.443 1475.44 654.443 1468.33 Q654.443 1461.2 652.615 1457.66 Q650.809 1454.1 647.175 1454.1 M647.175 1450.39 Q652.985 1450.39 656.041 1455 Q659.119 1459.58 659.119 1468.33 Q659.119 1477.06 656.041 1481.67 Q652.985 1486.25 647.175 1486.25 Q641.365 1486.25 638.286 1481.67 Q635.231 1477.06 635.231 1468.33 Q635.231 1459.58 638.286 1455 Q641.365 1450.39 647.175 1450.39 Z" fill="#000000" fill-rule="nonzero" fill-opacity="1" /><path clip-path="url(#clip380)" d="M677.337 1454.1 Q673.726 1454.1 671.897 1457.66 Q670.092 1461.2 670.092 1468.33 Q670.092 1475.44 671.897 1479.01 Q673.726 1482.55 677.337 1482.55 Q680.971 1482.55 682.777 1479.01 Q684.605 1475.44 684.605 1468.33 Q684.605 1461.2 682.777 1457.66 Q680.971 1454.1 677.337 1454.1 M677.337 1450.39 Q683.147 1450.39 686.203 1455 Q689.281 1459.58 689.281 1468.33 Q689.281 1477.06 686.203 1481.67 Q683.147 1486.25 677.337 1486.25 Q671.527 1486.25 668.448 1481.67 Q665.392 1477.06 665.392 1468.33 Q665.392 1459.58 668.448 1455 Q671.527 1450.39 677.337 1450.39 Z" fill="#000000" fill-rule="nonzero" fill-opacity="1" /><path clip-path="url(#clip380)" d="M952.503 1481.64 L968.823 1481.64 L968.823 1485.58 L946.878 1485.58 L946.878 1481.64 Q949.541 1478.89 954.124 1474.26 Q958.73 1469.61 959.911 1468.27 Q962.156 1465.74 963.036 1464.01 Q963.939 1462.25 963.939 1460.56 Q963.939 1457.8 961.994 1456.07 Q960.073 1454.33 956.971 1454.33 Q954.772 1454.33 952.318 1455.09 Q949.888 1455.86 947.11 1457.41 L947.11 1452.69 Q949.934 1451.55 952.388 1450.97 Q954.841 1450.39 956.878 1450.39 Q962.249 1450.39 965.443 1453.08 Q968.638 1455.77 968.638 1460.26 Q968.638 1462.39 967.827 1464.31 Q967.04 1466.2 964.934 1468.8 Q964.355 1469.47 961.253 1472.69 Q958.152 1475.88 952.503 1481.64 Z" fill="#000000" fill-rule="nonzero" fill-opacity="1" /><path clip-path="url(#clip380)" d="M988.638 1454.1 Q985.026 1454.1 983.198 1457.66 Q981.392 1461.2 981.392 1468.33 Q981.392 1475.44 983.198 1479.01 Q985.026 1482.55 988.638 1482.55 Q992.272 1482.55 994.077 1479.01 Q995.906 1475.44 995.906 1468.33 Q995.906 1461.2 994.077 1457.66 Q992.272 1454.1 988.638 1454.1 M988.638 1450.39 Q994.448 1450.39 997.503 1455 Q1000.58 1459.58 1000.58 1468.33 Q1000.58 1477.06 997.503 1481.67 Q994.448 1486.25 988.638 1486.25 Q982.827 1486.25 979.749 1481.67 Q976.693 1477.06 976.693 1468.33 Q976.693 1459.58 979.749 1455 Q982.827 1450.39 988.638 1450.39 Z" fill="#000000" fill-rule="nonzero" fill-opacity="1" /><path clip-path="url(#clip380)" d="M1018.8 1454.1 Q1015.19 1454.1 1013.36 1457.66 Q1011.55 1461.2 1011.55 1468.33 Q1011.55 1475.44 1013.36 1479.01 Q1015.19 1482.55 1018.8 1482.55 Q1022.43 1482.55 1024.24 1479.01 Q1026.07 1475.44 1026.07 1468.33 Q1026.07 1461.2 1024.24 1457.66 Q1022.43 1454.1 1018.8 1454.1 M1018.8 1450.39 Q1024.61 1450.39 1027.67 1455 Q1030.74 1459.58 1030.74 1468.33 Q1030.74 1477.06 1027.67 1481.67 Q1024.61 1486.25 1018.8 1486.25 Q1012.99 1486.25 1009.91 1481.67 Q1006.86 1477.06 1006.86 1468.33 Q1006.86 1459.58 1009.91 1455 Q1012.99 1450.39 1018.8 1450.39 Z" fill="#000000" fill-rule="nonzero" fill-opacity="1" /><path clip-path="url(#clip380)" d="M1303.17 1466.95 Q1306.52 1467.66 1308.4 1469.93 Q1310.3 1472.2 1310.3 1475.53 Q1310.3 1480.65 1306.78 1483.45 Q1303.26 1486.25 1296.78 1486.25 Q1294.6 1486.25 1292.29 1485.81 Q1290 1485.39 1287.54 1484.54 L1287.54 1480.02 Q1289.49 1481.16 1291.8 1481.74 Q1294.12 1482.32 1296.64 1482.32 Q1301.04 1482.32 1303.33 1480.58 Q1305.64 1478.84 1305.64 1475.53 Q1305.64 1472.48 1303.49 1470.77 Q1301.36 1469.03 1297.54 1469.03 L1293.51 1469.03 L1293.51 1465.19 L1297.73 1465.19 Q1301.18 1465.19 1303.01 1463.82 Q1304.83 1462.43 1304.83 1459.84 Q1304.83 1457.18 1302.94 1455.77 Q1301.06 1454.33 1297.54 1454.33 Q1295.62 1454.33 1293.42 1454.75 Q1291.22 1455.16 1288.58 1456.04 L1288.58 1451.88 Q1291.25 1451.14 1293.56 1450.77 Q1295.9 1450.39 1297.96 1450.39 Q1303.28 1450.39 1306.38 1452.83 Q1309.49 1455.23 1309.49 1459.35 Q1309.49 1462.22 1307.84 1464.21 Q1306.2 1466.18 1303.17 1466.95 Z" fill="#000000" fill-rule="nonzero" fill-opacity="1" /><path clip-path="url(#clip380)" d="M1329.16 1454.1 Q1325.55 1454.1 1323.72 1457.66 Q1321.92 1461.2 1321.92 1468.33 Q1321.92 1475.44 1323.72 1479.01 Q1325.55 1482.55 1329.16 1482.55 Q1332.8 1482.55 1334.6 1479.01 Q1336.43 1475.44 1336.43 1468.33 Q1336.43 1461.2 1334.6 1457.66 Q1332.8 1454.1 1329.16 1454.1 M1329.16 1450.39 Q1334.97 1450.39 1338.03 1455 Q1341.11 1459.58 1341.11 1468.33 Q1341.11 1477.06 1338.03 1481.67 Q1334.97 1486.25 1329.16 1486.25 Q1323.35 1486.25 1320.27 1481.67 Q1317.22 1477.06 1317.22 1468.33 Q1317.22 1459.58 1320.27 1455 Q1323.35 1450.39 1329.16 1450.39 Z" fill="#000000" fill-rule="nonzero" fill-opacity="1" /><path clip-path="url(#clip380)" d="M1359.32 1454.1 Q1355.71 1454.1 1353.88 1457.66 Q1352.08 1461.2 1352.08 1468.33 Q1352.08 1475.44 1353.88 1479.01 Q1355.71 1482.55 1359.32 1482.55 Q1362.96 1482.55 1364.76 1479.01 Q1366.59 1475.44 1366.59 1468.33 Q1366.59 1461.2 1364.76 1457.66 Q1362.96 1454.1 1359.32 1454.1 M1359.32 1450.39 Q1365.13 1450.39 1368.19 1455 Q1371.27 1459.58 1371.27 1468.33 Q1371.27 1477.06 1368.19 1481.67 Q1365.13 1486.25 1359.32 1486.25 Q1353.51 1486.25 1350.44 1481.67 Q1347.38 1477.06 1347.38 1468.33 Q1347.38 1459.58 1350.44 1455 Q1353.51 1450.39 1359.32 1450.39 Z" fill="#000000" fill-rule="nonzero" fill-opacity="1" /><path clip-path="url(#clip380)" d="M1643.09 1455.09 L1631.29 1473.54 L1643.09 1473.54 L1643.09 1455.09 M1641.86 1451.02 L1647.74 1451.02 L1647.74 1473.54 L1652.67 1473.54 L1652.67 1477.43 L1647.74 1477.43 L1647.74 1485.58 L1643.09 1485.58 L1643.09 1477.43 L1627.49 1477.43 L1627.49 1472.92 L1641.86 1451.02 Z" fill="#000000" fill-rule="nonzero" fill-opacity="1" /><path clip-path="url(#clip380)" d="M1670.41 1454.1 Q1666.79 1454.1 1664.97 1457.66 Q1663.16 1461.2 1663.16 1468.33 Q1663.16 1475.44 1664.97 1479.01 Q1666.79 1482.55 1670.41 1482.55 Q1674.04 1482.55 1675.85 1479.01 Q1677.67 1475.44 1677.67 1468.33 Q1677.67 1461.2 1675.85 1457.66 Q1674.04 1454.1 1670.41 1454.1 M1670.41 1450.39 Q1676.22 1450.39 1679.27 1455 Q1682.35 1459.58 1682.35 1468.33 Q1682.35 1477.06 1679.27 1481.67 Q1676.22 1486.25 1670.41 1486.25 Q1664.6 1486.25 1661.52 1481.67 Q1658.46 1477.06 1658.46 1468.33 Q1658.46 1459.58 1661.52 1455 Q1664.6 1450.39 1670.41 1450.39 Z" fill="#000000" fill-rule="nonzero" fill-opacity="1" /><path clip-path="url(#clip380)" d="M1700.57 1454.1 Q1696.96 1454.1 1695.13 1457.66 Q1693.32 1461.2 1693.32 1468.33 Q1693.32 1475.44 1695.13 1479.01 Q1696.96 1482.55 1700.57 1482.55 Q1704.2 1482.55 1706.01 1479.01 Q1707.84 1475.44 1707.84 1468.33 Q1707.84 1461.2 1706.01 1457.66 Q1704.2 1454.1 1700.57 1454.1 M1700.57 1450.39 Q1706.38 1450.39 1709.43 1455 Q1712.51 1459.58 1712.51 1468.33 Q1712.51 1477.06 1709.43 1481.67 Q1706.38 1486.25 1700.57 1486.25 Q1694.76 1486.25 1691.68 1481.67 Q1688.62 1477.06 1688.62 1468.33 Q1688.62 1459.58 1691.68 1455 Q1694.76 1450.39 1700.57 1450.39 Z" fill="#000000" fill-rule="nonzero" fill-opacity="1" /><path clip-path="url(#clip380)" d="M1970.21 1451.02 L1988.57 1451.02 L1988.57 1454.96 L1974.5 1454.96 L1974.5 1463.43 Q1975.51 1463.08 1976.53 1462.92 Q1977.55 1462.73 1978.57 1462.73 Q1984.36 1462.73 1987.74 1465.9 Q1991.12 1469.08 1991.12 1474.49 Q1991.12 1480.07 1987.64 1483.17 Q1984.17 1486.25 1977.85 1486.25 Q1975.68 1486.25 1973.41 1485.88 Q1971.16 1485.51 1968.75 1484.77 L1968.75 1480.07 Q1970.84 1481.2 1973.06 1481.76 Q1975.28 1482.32 1977.76 1482.32 Q1981.76 1482.32 1984.1 1480.21 Q1986.44 1478.1 1986.44 1474.49 Q1986.44 1470.88 1984.1 1468.77 Q1981.76 1466.67 1977.76 1466.67 Q1975.88 1466.67 1974.01 1467.08 Q1972.16 1467.5 1970.21 1468.38 L1970.21 1451.02 Z" fill="#000000" fill-rule="nonzero" fill-opacity="1" /><path clip-path="url(#clip380)" d="M2010.33 1454.1 Q2006.72 1454.1 2004.89 1457.66 Q2003.08 1461.2 2003.08 1468.33 Q2003.08 1475.44 2004.89 1479.01 Q2006.72 1482.55 2010.33 1482.55 Q2013.96 1482.55 2015.77 1479.01 Q2017.6 1475.44 2017.6 1468.33 Q2017.6 1461.2 2015.77 1457.66 Q2013.96 1454.1 2010.33 1454.1 M2010.33 1450.39 Q2016.14 1450.39 2019.19 1455 Q2022.27 1459.58 2022.27 1468.33 Q2022.27 1477.06 2019.19 1481.67 Q2016.14 1486.25 2010.33 1486.25 Q2004.52 1486.25 2001.44 1481.67 Q1998.38 1477.06 1998.38 1468.33 Q1998.38 1459.58 2001.44 1455 Q2004.52 1450.39 2010.33 1450.39 Z" fill="#000000" fill-rule="nonzero" fill-opacity="1" /><path clip-path="url(#clip380)" d="M2040.49 1454.1 Q2036.88 1454.1 2035.05 1457.66 Q2033.25 1461.2 2033.25 1468.33 Q2033.25 1475.44 2035.05 1479.01 Q2036.88 1482.55 2040.49 1482.55 Q2044.12 1482.55 2045.93 1479.01 Q2047.76 1475.44 2047.76 1468.33 Q2047.76 1461.2 2045.93 1457.66 Q2044.12 1454.1 2040.49 1454.1 M2040.49 1450.39 Q2046.3 1450.39 2049.36 1455 Q2052.43 1459.58 2052.43 1468.33 Q2052.43 1477.06 2049.36 1481.67 Q2046.3 1486.25 2040.49 1486.25 Q2034.68 1486.25 2031.6 1481.67 Q2028.55 1477.06 2028.55 1468.33 Q2028.55 1459.58 2031.6 1455 Q2034.68 1450.39 2040.49 1450.39 Z" fill="#000000" fill-rule="nonzero" fill-opacity="1" /><path clip-path="url(#clip380)" d="M2321.51 1466.44 Q2318.37 1466.44 2316.51 1468.59 Q2314.68 1470.74 2314.68 1474.49 Q2314.68 1478.22 2316.51 1480.39 Q2318.37 1482.55 2321.51 1482.55 Q2324.66 1482.55 2326.49 1480.39 Q2328.34 1478.22 2328.34 1474.49 Q2328.34 1470.74 2326.49 1468.59 Q2324.66 1466.44 2321.51 1466.44 M2330.8 1451.78 L2330.8 1456.04 Q2329.04 1455.21 2327.23 1454.77 Q2325.45 1454.33 2323.69 1454.33 Q2319.06 1454.33 2316.61 1457.45 Q2314.18 1460.58 2313.83 1466.9 Q2315.19 1464.89 2317.25 1463.82 Q2319.31 1462.73 2321.79 1462.73 Q2327 1462.73 2330.01 1465.9 Q2333.04 1469.05 2333.04 1474.49 Q2333.04 1479.82 2329.89 1483.03 Q2326.74 1486.25 2321.51 1486.25 Q2315.52 1486.25 2312.35 1481.67 Q2309.18 1477.06 2309.18 1468.33 Q2309.18 1460.14 2313.06 1455.28 Q2316.95 1450.39 2323.5 1450.39 Q2325.26 1450.39 2327.05 1450.74 Q2328.85 1451.09 2330.8 1451.78 Z" fill="#000000" fill-rule="nonzero" fill-opacity="1" /><path clip-path="url(#clip380)" d="M2351.1 1454.1 Q2347.49 1454.1 2345.66 1457.66 Q2343.85 1461.2 2343.85 1468.33 Q2343.85 1475.44 2345.66 1479.01 Q2347.49 1482.55 2351.1 1482.55 Q2354.73 1482.55 2356.54 1479.01 Q2358.37 1475.44 2358.37 1468.33 Q2358.37 1461.2 2356.54 1457.66 Q2354.73 1454.1 2351.1 1454.1 M2351.1 1450.39 Q2356.91 1450.39 2359.96 1455 Q2363.04 1459.58 2363.04 1468.33 Q2363.04 1477.06 2359.96 1481.67 Q2356.91 1486.25 2351.1 1486.25 Q2345.29 1486.25 2342.21 1481.67 Q2339.15 1477.06 2339.15 1468.33 Q2339.15 1459.58 2342.21 1455 Q2345.29 1450.39 2351.1 1450.39 Z" fill="#000000" fill-rule="nonzero" fill-opacity="1" /><path clip-path="url(#clip380)" d="M2381.26 1454.1 Q2377.65 1454.1 2375.82 1457.66 Q2374.01 1461.2 2374.01 1468.33 Q2374.01 1475.44 2375.82 1479.01 Q2377.65 1482.55 2381.26 1482.55 Q2384.89 1482.55 2386.7 1479.01 Q2388.53 1475.44 2388.53 1468.33 Q2388.53 1461.2 2386.7 1457.66 Q2384.89 1454.1 2381.26 1454.1 M2381.26 1450.39 Q2387.07 1450.39 2390.12 1455 Q2393.2 1459.58 2393.2 1468.33 Q2393.2 1477.06 2390.12 1481.67 Q2387.07 1486.25 2381.26 1486.25 Q2375.45 1486.25 2372.37 1481.67 Q2369.31 1477.06 2369.31 1468.33 Q2369.31 1459.58 2372.37 1455 Q2375.45 1450.39 2381.26 1450.39 Z" fill="#000000" fill-rule="nonzero" fill-opacity="1" /><path clip-path="url(#clip380)" d="M1286.34 1518.52 L1292.23 1518.52 L1292.23 1547.77 L1309.7 1532.4 L1317.18 1532.4 L1298.27 1549.07 L1317.98 1568.04 L1310.34 1568.04 L1292.23 1550.63 L1292.23 1568.04 L1286.34 1568.04 L1286.34 1518.52 Z" fill="#000000" fill-rule="nonzero" fill-opacity="1" /><polyline clip-path="url(#clip382)" style="stroke:#000000; stroke-linecap:round; stroke-linejoin:round; stroke-width:2; stroke-opacity:0.1; fill:none" points="251.56,1167.56 2352.76,1167.56 "/>
<polyline clip-path="url(#clip382)" style="stroke:#000000; stroke-linecap:round; stroke-linejoin:round; stroke-width:2; stroke-opacity:0.1; fill:none" points="251.56,357.607 2352.76,357.607 "/>
<polyline clip-path="url(#clip380)" style="stroke:#000000; stroke-linecap:round; stroke-linejoin:round; stroke-width:4; stroke-opacity:1; fill:none" points="251.56,1423.18 251.56,123.472 "/>
<polyline clip-path="url(#clip380)" style="stroke:#000000; stroke-linecap:round; stroke-linejoin:round; stroke-width:4; stroke-opacity:1; fill:none" points="251.56,1167.56 270.458,1167.56 "/>
<polyline clip-path="url(#clip380)" style="stroke:#000000; stroke-linecap:round; stroke-linejoin:round; stroke-width:4; stroke-opacity:1; fill:none" points="251.56,357.607 270.458,357.607 "/>
<path clip-path="url(#clip380)" d="M114.931 1187.36 L122.57 1187.36 L122.57 1160.99 L114.26 1162.66 L114.26 1158.4 L122.524 1156.73 L127.2 1156.73 L127.2 1187.36 L134.839 1187.36 L134.839 1191.29 L114.931 1191.29 L114.931 1187.36 Z" fill="#000000" fill-rule="nonzero" fill-opacity="1" /><path clip-path="url(#clip380)" d="M154.283 1159.81 Q150.672 1159.81 148.843 1163.37 Q147.038 1166.92 147.038 1174.05 Q147.038 1181.15 148.843 1184.72 Q150.672 1188.26 154.283 1188.26 Q157.917 1188.26 159.723 1184.72 Q161.552 1181.15 161.552 1174.05 Q161.552 1166.92 159.723 1163.37 Q157.917 1159.81 154.283 1159.81 M154.283 1156.11 Q160.093 1156.11 163.149 1160.71 Q166.227 1165.3 166.227 1174.05 Q166.227 1182.77 163.149 1187.38 Q160.093 1191.96 154.283 1191.96 Q148.473 1191.96 145.394 1187.38 Q142.339 1182.77 142.339 1174.05 Q142.339 1165.3 145.394 1160.71 Q148.473 1156.11 154.283 1156.11 Z" fill="#000000" fill-rule="nonzero" fill-opacity="1" /><path clip-path="url(#clip380)" d="M166.227 1150.21 L190.339 1150.21 L190.339 1153.4 L166.227 1153.4 L166.227 1150.21 Z" fill="#000000" fill-rule="nonzero" fill-opacity="1" /><path clip-path="url(#clip380)" d="M198.577 1135.8 L213.491 1135.8 L213.491 1139 L202.056 1139 L202.056 1145.88 Q202.884 1145.6 203.711 1145.47 Q204.539 1145.32 205.366 1145.32 Q210.068 1145.32 212.814 1147.89 Q215.56 1150.47 215.56 1154.87 Q215.56 1159.4 212.739 1161.92 Q209.918 1164.43 204.783 1164.43 Q203.015 1164.43 201.172 1164.12 Q199.348 1163.82 197.392 1163.22 L197.392 1159.4 Q199.085 1160.33 200.89 1160.78 Q202.696 1161.23 204.708 1161.23 Q207.962 1161.23 209.861 1159.52 Q211.761 1157.81 211.761 1154.87 Q211.761 1151.94 209.861 1150.23 Q207.962 1148.51 204.708 1148.51 Q203.185 1148.51 201.661 1148.85 Q200.157 1149.19 198.577 1149.91 L198.577 1135.8 Z" fill="#000000" fill-rule="nonzero" fill-opacity="1" /><path clip-path="url(#clip380)" d="M144.855 377.399 L152.493 377.399 L152.493 351.034 L144.183 352.7 L144.183 348.441 L152.447 346.774 L157.123 346.774 L157.123 377.399 L164.762 377.399 L164.762 381.334 L144.855 381.334 L144.855 377.399 Z" fill="#000000" fill-rule="nonzero" fill-opacity="1" /><path clip-path="url(#clip380)" d="M184.206 349.853 Q180.595 349.853 178.766 353.418 Q176.961 356.959 176.961 364.089 Q176.961 371.196 178.766 374.76 Q180.595 378.302 184.206 378.302 Q187.84 378.302 189.646 374.76 Q191.475 371.196 191.475 364.089 Q191.475 356.959 189.646 353.418 Q187.84 349.853 184.206 349.853 M184.206 346.149 Q190.016 346.149 193.072 350.756 Q196.151 355.339 196.151 364.089 Q196.151 372.816 193.072 377.422 Q190.016 382.006 184.206 382.006 Q178.396 382.006 175.317 377.422 Q172.262 372.816 172.262 364.089 Q172.262 355.339 175.317 350.756 Q178.396 346.149 184.206 346.149 Z" fill="#000000" fill-rule="nonzero" fill-opacity="1" /><path clip-path="url(#clip380)" d="M205.855 328.345 Q202.921 328.345 201.436 331.242 Q199.969 334.119 199.969 339.912 Q199.969 345.686 201.436 348.583 Q202.921 351.46 205.855 351.46 Q208.808 351.46 210.275 348.583 Q211.761 345.686 211.761 339.912 Q211.761 334.119 210.275 331.242 Q208.808 328.345 205.855 328.345 M205.855 325.336 Q210.576 325.336 213.059 329.079 Q215.56 332.803 215.56 339.912 Q215.56 347.003 213.059 350.745 Q210.576 354.469 205.855 354.469 Q201.135 354.469 198.633 350.745 Q196.151 347.003 196.151 339.912 Q196.151 332.803 198.633 329.079 Q201.135 325.336 205.855 325.336 Z" fill="#000000" fill-rule="nonzero" fill-opacity="1" /><path clip-path="url(#clip380)" d="M32.4621 801.797 Q32.4621 806.507 36.1542 809.244 Q39.8145 811.982 46.212 811.982 Q52.6095 811.982 56.3017 809.276 Q59.9619 806.539 59.9619 801.797 Q59.9619 797.118 56.2698 794.381 Q52.5777 791.643 46.212 791.643 Q39.8781 791.643 36.186 794.381 Q32.4621 797.118 32.4621 801.797 M27.4968 801.797 Q27.4968 794.158 32.4621 789.797 Q37.4273 785.437 46.212 785.437 Q54.9649 785.437 59.9619 789.797 Q64.9272 794.158 64.9272 801.797 Q64.9272 809.467 59.9619 813.828 Q54.9649 818.156 46.212 818.156 Q37.4273 818.156 32.4621 813.828 Q27.4968 809.467 27.4968 801.797 Z" fill="#000000" fill-rule="nonzero" fill-opacity="1" /><path clip-path="url(#clip380)" d="M46.212 750.139 Q39.7508 750.139 36.0905 752.812 Q32.3984 755.454 32.3984 760.101 Q32.3984 764.748 36.0905 767.422 Q39.7508 770.064 46.212 770.064 Q52.6732 770.064 56.3653 767.422 Q60.0256 764.748 60.0256 760.101 Q60.0256 755.454 56.3653 752.812 Q52.6732 750.139 46.212 750.139 M33.7671 770.064 Q30.5842 768.218 29.0564 765.417 Q27.4968 762.584 27.4968 758.669 Q27.4968 752.176 32.6531 748.134 Q37.8093 744.06 46.212 744.06 Q54.6147 744.06 59.771 748.134 Q64.9272 752.176 64.9272 758.669 Q64.9272 762.584 63.3994 765.417 Q61.8398 768.218 58.657 770.064 L64.0042 770.064 L64.0042 775.952 L14.479 775.952 L14.479 770.064 L33.7671 770.064 Z" fill="#000000" fill-rule="nonzero" fill-opacity="1" /><path clip-path="url(#clip380)" d="M28.3562 734.352 L28.3562 728.495 L64.6407 728.495 Q71.452 728.495 74.5076 731.105 Q77.5631 733.684 77.5631 739.445 L77.5631 741.673 L72.5979 741.673 L72.5979 740.113 Q72.5979 736.771 71.0383 735.561 Q69.5105 734.352 64.6407 734.352 L28.3562 734.352 M14.479 734.352 L14.479 728.495 L21.895 728.495 L21.895 734.352 L14.479 734.352 Z" fill="#000000" fill-rule="nonzero" fill-opacity="1" /><path clip-path="url(#clip380)" d="M933.647 65.7705 L933.647 89.8329 L926.153 89.8329 L926.153 27.2059 L933.647 27.2059 L933.647 34.0924 Q935.997 30.0415 939.562 28.0971 Q943.167 26.1121 948.15 26.1121 Q956.413 26.1121 961.558 32.6746 Q966.743 39.2371 966.743 49.9314 Q966.743 60.6258 961.558 67.1883 Q956.413 73.7508 948.15 73.7508 Q943.167 73.7508 939.562 71.8063 Q935.997 69.8214 933.647 65.7705 M959.006 49.9314 Q959.006 41.7081 955.603 37.0496 Q952.241 32.3505 946.327 32.3505 Q940.412 32.3505 937.01 37.0496 Q933.647 41.7081 933.647 49.9314 Q933.647 58.1548 937.01 62.8538 Q940.412 67.5124 946.327 67.5124 Q952.241 67.5124 955.603 62.8538 Q959.006 58.1548 959.006 49.9314 Z" fill="#000000" fill-rule="nonzero" fill-opacity="1" /><path clip-path="url(#clip380)" d="M1005.39 34.1734 Q1004.13 33.4443 1002.63 33.1202 Q1001.18 32.7556 999.393 32.7556 Q993.074 32.7556 989.671 36.8875 Q986.309 40.9789 986.309 48.6757 L986.309 72.576 L978.815 72.576 L978.815 27.2059 L986.309 27.2059 L986.309 34.2544 Q988.659 30.1225 992.426 28.1376 Q996.193 26.1121 1001.58 26.1121 Q1002.35 26.1121 1003.28 26.2337 Q1004.21 26.3147 1005.35 26.5172 L1005.39 34.1734 Z" fill="#000000" fill-rule="nonzero" fill-opacity="1" /><path clip-path="url(#clip380)" d="M1028.97 32.4315 Q1022.97 32.4315 1019.49 37.1306 Q1016 41.7891 1016 49.9314 Q1016 58.0738 1019.45 62.7728 Q1022.93 67.4314 1028.97 67.4314 Q1034.92 67.4314 1038.4 62.7323 Q1041.89 58.0333 1041.89 49.9314 Q1041.89 41.8701 1038.4 37.1711 Q1034.92 32.4315 1028.97 32.4315 M1028.97 26.1121 Q1038.69 26.1121 1044.24 32.4315 Q1049.79 38.7509 1049.79 49.9314 Q1049.79 61.0714 1044.24 67.4314 Q1038.69 73.7508 1028.97 73.7508 Q1019.2 73.7508 1013.65 67.4314 Q1008.14 61.0714 1008.14 49.9314 Q1008.14 38.7509 1013.65 32.4315 Q1019.2 26.1121 1028.97 26.1121 Z" fill="#000000" fill-rule="nonzero" fill-opacity="1" /><path clip-path="url(#clip380)" d="M1094.71 49.9314 Q1094.71 41.7081 1091.31 37.0496 Q1087.95 32.3505 1082.03 32.3505 Q1076.12 32.3505 1072.71 37.0496 Q1069.35 41.7081 1069.35 49.9314 Q1069.35 58.1548 1072.71 62.8538 Q1076.12 67.5124 1082.03 67.5124 Q1087.95 67.5124 1091.31 62.8538 Q1094.71 58.1548 1094.71 49.9314 M1069.35 34.0924 Q1071.7 30.0415 1075.27 28.0971 Q1078.87 26.1121 1083.85 26.1121 Q1092.12 26.1121 1097.26 32.6746 Q1102.45 39.2371 1102.45 49.9314 Q1102.45 60.6258 1097.26 67.1883 Q1092.12 73.7508 1083.85 73.7508 Q1078.87 73.7508 1075.27 71.8063 Q1071.7 69.8214 1069.35 65.7705 L1069.35 72.576 L1061.86 72.576 L1061.86 9.54393 L1069.35 9.54393 L1069.35 34.0924 Z" fill="#000000" fill-rule="nonzero" fill-opacity="1" /><path clip-path="url(#clip380)" d="M1114.8 9.54393 L1122.26 9.54393 L1122.26 72.576 L1114.8 72.576 L1114.8 9.54393 Z" fill="#000000" fill-rule="nonzero" fill-opacity="1" /><path clip-path="url(#clip380)" d="M1176.66 48.0275 L1176.66 51.6733 L1142.39 51.6733 Q1142.88 59.3701 1147.01 63.421 Q1151.18 67.4314 1158.59 67.4314 Q1162.89 67.4314 1166.9 66.3781 Q1170.95 65.3249 1174.92 63.2184 L1174.92 70.267 Q1170.91 71.9684 1166.7 72.8596 Q1162.48 73.7508 1158.15 73.7508 Q1147.29 73.7508 1140.93 67.4314 Q1134.61 61.1119 1134.61 50.3365 Q1134.61 39.1965 1140.61 32.6746 Q1146.64 26.1121 1156.85 26.1121 Q1166.01 26.1121 1171.31 32.0264 Q1176.66 37.9003 1176.66 48.0275 M1169.21 45.84 Q1169.13 39.7232 1165.76 36.0774 Q1162.44 32.4315 1156.93 32.4315 Q1150.69 32.4315 1146.93 35.9558 Q1143.2 39.4801 1142.63 45.8805 L1169.21 45.84 M1150.53 6.22219 L1161.96 21.3726 L1155.76 21.3726 L1142.55 6.22219 L1150.53 6.22219 Z" fill="#000000" fill-rule="nonzero" fill-opacity="1" /><path clip-path="url(#clip380)" d="M1224.22 35.9153 Q1227.01 30.8922 1230.9 28.5022 Q1234.79 26.1121 1240.06 26.1121 Q1247.15 26.1121 1251 31.0947 Q1254.84 36.0368 1254.84 45.1919 L1254.84 72.576 L1247.35 72.576 L1247.35 45.4349 Q1247.35 38.913 1245.04 35.7533 Q1242.73 32.5936 1237.99 32.5936 Q1232.2 32.5936 1228.84 36.4419 Q1225.47 40.2903 1225.47 46.9338 L1225.47 72.576 L1217.98 72.576 L1217.98 45.4349 Q1217.98 38.8725 1215.67 35.7533 Q1213.36 32.5936 1208.54 32.5936 Q1202.83 32.5936 1199.47 36.4824 Q1196.11 40.3308 1196.11 46.9338 L1196.11 72.576 L1188.61 72.576 L1188.61 27.2059 L1196.11 27.2059 L1196.11 34.2544 Q1198.66 30.082 1202.22 28.0971 Q1205.79 26.1121 1210.69 26.1121 Q1215.63 26.1121 1219.07 28.6237 Q1222.56 31.1352 1224.22 35.9153 Z" fill="#000000" fill-rule="nonzero" fill-opacity="1" /><path clip-path="url(#clip380)" d="M1308.52 48.0275 L1308.52 51.6733 L1274.25 51.6733 Q1274.73 59.3701 1278.87 63.421 Q1283.04 67.4314 1290.45 67.4314 Q1294.74 67.4314 1298.76 66.3781 Q1302.81 65.3249 1306.78 63.2184 L1306.78 70.267 Q1302.77 71.9684 1298.55 72.8596 Q1294.34 73.7508 1290.01 73.7508 Q1279.15 73.7508 1272.79 67.4314 Q1266.47 61.1119 1266.47 50.3365 Q1266.47 39.1965 1272.46 32.6746 Q1278.5 26.1121 1288.71 26.1121 Q1297.86 26.1121 1303.17 32.0264 Q1308.52 37.9003 1308.52 48.0275 M1301.06 45.84 Q1300.98 39.7232 1297.62 36.0774 Q1294.3 32.4315 1288.79 32.4315 Q1282.55 32.4315 1278.78 35.9558 Q1275.06 39.4801 1274.49 45.8805 L1301.06 45.84 Z" fill="#000000" fill-rule="nonzero" fill-opacity="1" /><path clip-path="url(#clip380)" d="M1349.03 62.2867 L1357.57 62.2867 L1357.57 72.576 L1349.03 72.576 L1349.03 62.2867 M1349.03 29.6769 L1357.57 29.6769 L1357.57 39.9662 L1349.03 39.9662 L1349.03 29.6769 Z" fill="#000000" fill-rule="nonzero" fill-opacity="1" /><path clip-path="url(#clip380)" d="M1436.77 35.9153 Q1439.56 30.8922 1443.45 28.5022 Q1447.34 26.1121 1452.61 26.1121 Q1459.7 26.1121 1463.55 31.0947 Q1467.39 36.0368 1467.39 45.1919 L1467.39 72.576 L1459.9 72.576 L1459.9 45.4349 Q1459.9 38.913 1457.59 35.7533 Q1455.28 32.5936 1450.54 32.5936 Q1444.75 32.5936 1441.39 36.4419 Q1438.03 40.2903 1438.03 46.9338 L1438.03 72.576 L1430.53 72.576 L1430.53 45.4349 Q1430.53 38.8725 1428.22 35.7533 Q1425.91 32.5936 1421.09 32.5936 Q1415.38 32.5936 1412.02 36.4824 Q1408.66 40.3308 1408.66 46.9338 L1408.66 72.576 L1401.16 72.576 L1401.16 27.2059 L1408.66 27.2059 L1408.66 34.2544 Q1411.21 30.082 1414.77 28.0971 Q1418.34 26.1121 1423.24 26.1121 Q1428.18 26.1121 1431.62 28.6237 Q1435.11 31.1352 1436.77 35.9153 Z" fill="#000000" fill-rule="nonzero" fill-opacity="1" /><path clip-path="url(#clip380)" d="M1512.12 49.3643 Q1512.12 41.2625 1508.75 36.8065 Q1505.43 32.3505 1499.4 32.3505 Q1493.4 32.3505 1490.04 36.8065 Q1486.72 41.2625 1486.72 49.3643 Q1486.72 57.4256 1490.04 61.8816 Q1493.4 66.3376 1499.4 66.3376 Q1505.43 66.3376 1508.75 61.8816 Q1512.12 57.4256 1512.12 49.3643 M1519.57 66.9452 Q1519.57 78.5308 1514.43 84.1616 Q1509.28 89.8329 1498.67 89.8329 Q1494.74 89.8329 1491.25 89.2252 Q1487.77 88.6581 1484.49 87.4428 L1484.49 80.1917 Q1487.77 81.9741 1490.97 82.8248 Q1494.17 83.6755 1497.49 83.6755 Q1504.82 83.6755 1508.47 79.8271 Q1512.12 76.0193 1512.12 68.282 L1512.12 64.5957 Q1509.81 68.6061 1506.2 70.5911 Q1502.6 72.576 1497.57 72.576 Q1489.23 72.576 1484.12 66.2161 Q1479.02 59.8562 1479.02 49.3643 Q1479.02 38.832 1484.12 32.472 Q1489.23 26.1121 1497.57 26.1121 Q1502.6 26.1121 1506.2 28.0971 Q1509.81 30.082 1512.12 34.0924 L1512.12 27.2059 L1519.57 27.2059 L1519.57 66.9452 Z" fill="#000000" fill-rule="nonzero" fill-opacity="1" /><path clip-path="url(#clip380)" d="M1572.64 45.1919 L1572.64 72.576 L1565.18 72.576 L1565.18 45.4349 Q1565.18 38.994 1562.67 35.7938 Q1560.16 32.5936 1555.14 32.5936 Q1549.1 32.5936 1545.62 36.4419 Q1542.13 40.2903 1542.13 46.9338 L1542.13 72.576 L1534.64 72.576 L1534.64 9.54393 L1542.13 9.54393 L1542.13 34.2544 Q1544.81 30.163 1548.41 28.1376 Q1552.06 26.1121 1556.8 26.1121 Q1564.62 26.1121 1568.63 30.9732 Q1572.64 35.7938 1572.64 45.1919 Z" fill="#000000" fill-rule="nonzero" fill-opacity="1" /><path clip-path="url(#clip380)" d="M1595.61 65.6895 L1624.16 65.6895 L1624.16 72.576 L1585.76 72.576 L1585.76 65.6895 Q1590.42 60.8689 1598.44 52.7671 Q1606.5 44.6248 1608.57 42.2752 Q1612.5 37.8598 1614.04 34.8216 Q1615.62 31.7429 1615.62 28.7857 Q1615.62 23.9651 1612.21 20.927 Q1608.85 17.8888 1603.42 17.8888 Q1599.58 17.8888 1595.28 19.2256 Q1591.03 20.5624 1586.17 23.2765 L1586.17 15.0127 Q1591.11 13.0277 1595.4 12.015 Q1599.7 11.0023 1603.26 11.0023 Q1612.66 11.0023 1618.25 15.7013 Q1623.84 20.4004 1623.84 28.2591 Q1623.84 31.9859 1622.42 35.3482 Q1621.05 38.6699 1617.36 43.2069 Q1616.35 44.3817 1610.92 50.0125 Q1605.49 55.6027 1595.61 65.6895 Z" fill="#000000" fill-rule="nonzero" fill-opacity="1" /><path clip-path="url(#clip380)" d="M1639.27 12.096 L1678.16 12.096 L1678.16 15.5798 L1656.21 72.576 L1647.66 72.576 L1668.32 18.9825 L1639.27 18.9825 L1639.27 12.096 Z" fill="#000000" fill-rule="nonzero" fill-opacity="1" /><polyline clip-path="url(#clip382)" style="stroke:#009af9; stroke-linecap:round; stroke-linejoin:round; stroke-width:4; stroke-opacity:1; fill:none" points="311.028,160.256 314.434,487.639 317.84,723.952 321.246,726.801 324.652,728.106 328.058,729.397 331.464,730.675 334.87,731.941 338.276,733.194 341.682,734.435 345.088,735.665 348.493,736.883 351.899,738.09 355.305,739.287 358.711,740.473 362.117,741.649 365.523,742.814 368.929,743.971 372.335,745.117 375.741,746.255 379.147,747.383 382.553,748.503 385.959,749.614 389.365,750.717 392.771,751.812 396.177,752.899 399.583,753.978 402.989,755.049 406.395,756.113 409.8,757.17 413.206,758.219 416.612,759.262 420.018,760.298 423.424,761.327 426.83,762.35 430.236,763.366 433.642,764.376 437.048,765.38 440.454,766.378 443.86,767.371 447.266,768.357 450.672,769.338 454.078,770.313 457.484,771.283 460.89,772.248 464.296,773.207 467.702,774.161 471.107,775.111 474.513,776.055 477.919,776.995 481.325,777.93 484.731,778.86 488.137,779.786 491.543,780.707 494.949,781.624 498.355,782.536 501.761,783.445 505.167,784.349 508.573,785.249 511.979,786.145 515.385,787.037 518.791,787.925 522.197,788.81 525.603,789.691 529.009,790.568 532.414,791.441 535.82,792.311 539.226,793.177 542.632,794.04 546.038,794.9 549.444,795.756 552.85,796.609 556.256,797.459 559.662,798.305 563.068,799.149 566.474,799.989 569.88,800.827 573.286,801.661 576.692,802.492 580.098,803.321 583.504,804.147 586.91,804.97 590.316,805.79 593.721,806.607 597.127,807.422 600.533,808.234 603.939,809.044 607.345,809.851 610.751,810.656 614.157,811.458 617.563,812.257 620.969,813.055 624.375,813.849 627.781,814.642 631.187,815.432 634.593,816.22 637.999,817.006 641.405,817.789 644.811,818.571 648.217,819.35 651.623,820.127 655.029,820.902 658.434,821.675 661.84,822.446 665.246,823.215 668.652,823.981 672.058,824.746 675.464,825.509 678.87,826.271 682.276,827.03 685.682,827.787 689.088,828.543 692.494,829.297 695.9,830.049 699.306,830.799 702.712,831.548 706.118,832.295 709.524,833.04 712.93,833.783 716.336,834.525 719.741,835.265 723.147,836.004 726.553,836.741 729.959,837.477 733.365,838.211 736.771,838.943 740.177,839.674 743.583,840.404 746.989,841.132 750.395,841.858 753.801,842.584 757.207,843.307 760.613,844.03 764.019,844.751 767.425,845.47 770.831,846.189 774.237,846.906 777.643,847.621 781.048,848.336 784.454,849.049 787.86,849.761 791.266,850.471 794.672,851.181 798.078,851.889 801.484,852.596 804.89,853.302 808.296,854.006 811.702,854.71 815.108,855.412 818.514,856.113 821.92,856.813 825.326,857.512 828.732,858.21 832.138,858.907 835.544,859.602 838.95,860.297 842.355,860.991 845.761,861.683 849.167,862.375 852.573,863.065 855.979,863.755 859.385,864.443 862.791,865.131 866.197,865.817 869.603,866.503 873.009,867.188 876.415,867.871 879.821,868.554 883.227,869.236 886.633,869.917 890.039,870.597 893.445,871.276 896.851,871.955 900.257,872.632 903.663,873.309 907.068,873.985 910.474,874.66 913.88,875.334 917.286,876.007 920.692,876.68 924.098,877.351 927.504,878.022 930.91,878.692 934.316,879.362 937.722,880.03 941.128,880.698 944.534,881.365 947.94,882.032 951.346,882.697 954.752,883.362 958.158,884.026 961.564,884.69 964.97,885.353 968.375,886.015 971.781,886.676 975.187,887.337 978.593,887.997 981.999,888.656 985.405,889.315 988.811,889.973 992.217,890.63 995.623,891.287 999.029,891.943 1002.43,892.599 1005.84,893.253 1009.25,893.908 1012.65,894.561 1016.06,895.214 1019.46,895.867 1022.87,896.519 1026.28,897.17 1029.68,897.821 1033.09,898.471 1036.49,899.12 1039.9,899.769 1043.31,900.418 1046.71,901.066 1050.12,901.713 1053.52,902.36 1056.93,903.006 1060.34,903.652 1063.74,904.297 1067.15,904.942 1070.55,905.586 1073.96,906.23 1077.37,906.873 1080.77,907.515 1084.18,908.158 1087.58,908.799 1090.99,909.441 1094.4,910.081 1097.8,910.722 1101.21,911.361 1104.61,912.001 1108.02,912.64 1111.43,913.278 1114.83,913.916 1118.24,914.554 1121.64,915.191 1125.05,915.827 1128.45,916.464 1131.86,917.099 1135.27,917.735 1138.67,918.37 1142.08,919.004 1145.48,919.638 1148.89,920.272 1152.3,920.905 1155.7,921.538 1159.11,922.171 1162.51,922.803 1165.92,923.435 1169.33,924.066 1172.73,924.697 1176.14,925.328 1179.54,925.958 1182.95,926.588 1186.36,927.217 1189.76,927.846 1193.17,928.475 1196.57,929.104 1199.98,929.732 1203.39,930.359 1206.79,930.987 1210.2,931.614 1213.6,932.24 1217.01,932.867 1220.42,933.493 1223.82,934.118 1227.23,934.744 1230.63,935.369 1234.04,935.993 1237.45,936.618 1240.85,937.242 1244.26,937.866 1247.66,938.489 1251.07,939.112 1254.47,939.735 1257.88,940.358 1261.29,940.98 1264.69,941.602 1268.1,942.223 1271.5,942.845 1274.91,943.466 1278.32,944.087 1281.72,944.707 1285.13,945.327 1288.53,945.947 1291.94,946.567 1295.35,947.186 1298.75,947.806 1302.16,948.424 1305.56,949.043 1308.97,949.661 1312.38,950.279 1315.78,950.897 1319.19,951.515 1322.59,952.132 1326,952.749 1329.41,953.366 1332.81,953.983 1336.22,954.599 1339.62,955.215 1343.03,955.831 1346.44,956.446 1349.84,957.062 1353.25,957.677 1356.65,958.292 1360.06,958.907 1363.47,959.521 1366.87,960.135 1370.28,960.749 1373.68,961.363 1377.09,961.977 1380.49,962.59 1383.9,963.203 1387.31,963.816 1390.71,964.429 1394.12,965.041 1397.52,965.654 1400.93,966.266 1404.34,966.878 1407.74,967.49 1411.15,968.101 1414.55,968.712 1417.96,969.323 1421.37,969.934 1424.77,970.545 1428.18,971.156 1431.58,971.766 1434.99,972.376 1438.4,972.986 1441.8,973.596 1445.21,974.206 1448.61,974.815 1452.02,975.424 1455.43,976.033 1458.83,976.642 1462.24,977.251 1465.64,977.86 1469.05,978.468 1472.46,979.076 1475.86,979.684 1479.27,980.292 1482.67,980.9 1486.08,981.507 1489.49,982.115 1492.89,982.722 1496.3,983.329 1499.7,983.936 1503.11,984.543 1506.51,985.149 1509.92,985.756 1513.33,986.362 1516.73,986.968 1520.14,987.574 1523.54,988.18 1526.95,988.786 1530.36,989.391 1533.76,989.997 1537.17,990.602 1540.57,991.207 1543.98,991.812 1547.39,992.417 1550.79,993.022 1554.2,993.626 1557.6,994.231 1561.01,994.835 1564.42,995.439 1567.82,996.043 1571.23,996.647 1574.63,997.251 1578.04,997.855 1581.45,998.458 1584.85,999.062 1588.26,999.665 1591.66,1000.27 1595.07,1000.87 1598.48,1001.47 1601.88,1002.08 1605.29,1002.68 1608.69,1003.28 1612.1,1003.88 1615.51,1004.49 1618.91,1005.09 1622.32,1005.69 1625.72,1006.29 1629.13,1006.9 1632.53,1007.5 1635.94,1008.1 1639.35,1008.7 1642.75,1009.3 1646.16,1009.9 1649.56,1010.5 1652.97,1011.1 1656.38,1011.71 1659.78,1012.31 1663.19,1012.91 1666.59,1013.51 1670,1014.11 1673.41,1014.71 1676.81,1015.31 1680.22,1015.91 1683.62,1016.51 1687.03,1017.11 1690.44,1017.71 1693.84,1018.31 1697.25,1018.91 1700.65,1019.51 1704.06,1020.11 1707.47,1020.71 1710.87,1021.31 1714.28,1021.91 1717.68,1022.51 1721.09,1023.11 1724.5,1023.71 1727.9,1024.3 1731.31,1024.9 1734.71,1025.5 1738.12,1026.1 1741.52,1026.7 1744.93,1027.3 1748.34,1027.9 1751.74,1028.49 1755.15,1029.09 1758.55,1029.69 1761.96,1030.29 1765.37,1030.89 1768.77,1031.49 1772.18,1032.08 1775.58,1032.68 1778.99,1033.28 1782.4,1033.88 1785.8,1034.47 1789.21,1035.07 1792.61,1035.67 1796.02,1036.27 1799.43,1036.86 1802.83,1037.46 1806.24,1038.06 1809.64,1038.66 1813.05,1039.25 1816.46,1039.85 1819.86,1040.45 1823.27,1041.04 1826.67,1041.64 1830.08,1042.24 1833.49,1042.83 1836.89,1043.43 1840.3,1044.03 1843.7,1044.62 1847.11,1045.22 1850.52,1045.82 1853.92,1046.41 1857.33,1047.01 1860.73,1047.6 1864.14,1048.2 1867.54,1048.8 1870.95,1049.39 1874.36,1049.99 1877.76,1050.58 1881.17,1051.18 1884.57,1051.77 1887.98,1052.37 1891.39,1052.97 1894.79,1053.56 1898.2,1054.16 1901.6,1054.75 1905.01,1055.35 1908.42,1055.94 1911.82,1056.54 1915.23,1057.13 1918.63,1057.73 1922.04,1058.32 1925.45,1058.92 1928.85,1059.51 1932.26,1060.11 1935.66,1060.7 1939.07,1061.3 1942.48,1061.89 1945.88,1062.49 1949.29,1063.08 1952.69,1063.68 1956.1,1064.27 1959.51,1064.87 1962.91,1065.46 1966.32,1066.05 1969.72,1066.65 1973.13,1067.24 1976.54,1067.84 1979.94,1068.43 1983.35,1069.03 1986.75,1069.62 1990.16,1070.21 1993.56,1070.81 1996.97,1071.4 2000.38,1072 2003.78,1072.59 2007.19,1073.18 2010.59,1073.78 2014,1074.37 2017.41,1074.97 2020.81,1075.56 2024.22,1076.15 2027.62,1076.75 2031.03,1077.34 2034.44,1077.93 2037.84,1078.53 2041.25,1079.12 2044.65,1079.71 2048.06,1080.31 2051.47,1080.9 2054.87,1081.49 2058.28,1082.09 2061.68,1082.68 2065.09,1083.27 2068.5,1083.87 2071.9,1084.46 2075.31,1085.05 2078.71,1085.65 2082.12,1086.24 2085.53,1086.83 2088.93,1087.42 2092.34,1088.02 2095.74,1088.61 2099.15,1089.2 2102.56,1089.8 2105.96,1090.39 2109.37,1090.98 2112.77,1091.57 2116.18,1092.17 2119.58,1092.76 2122.99,1093.35 2126.4,1093.94 2129.8,1094.54 2133.21,1095.13 2136.61,1095.72 2140.02,1096.31 2143.43,1096.91 2146.83,1097.5 2150.24,1098.09 2153.64,1098.68 2157.05,1099.28 2160.46,1099.87 2163.86,1100.46 2167.27,1101.05 2170.67,1101.65 2174.08,1102.24 2177.49,1102.83 2180.89,1103.42 2184.3,1104.01 2187.7,1104.61 2191.11,1105.2 2194.52,1105.79 2197.92,1106.38 2201.33,1106.97 2204.73,1107.57 2208.14,1108.16 2211.55,1108.75 2214.95,1109.34 2218.36,1109.93 2221.76,1110.52 2225.17,1111.12 2228.58,1111.71 2231.98,1112.3 2235.39,1112.89 2238.79,1113.48 2242.2,1114.07 2245.6,1114.67 2249.01,1115.26 2252.42,1115.85 2255.82,1116.44 2259.23,1117.03 2262.63,1117.62 2266.04,1118.22 2269.45,1118.81 2272.85,1119.4 2276.26,1119.99 2279.66,1120.58 2283.07,1121.17 2286.48,1121.76 2289.88,1122.35 2293.29,1122.95 "/>
<polyline clip-path="url(#clip382)" style="stroke:#e26f46; stroke-linecap:round; stroke-linejoin:round; stroke-width:4; stroke-opacity:1; fill:none" points="311.028,160.256 314.434,487.639 317.84,723.952 321.246,726.801 324.652,728.106 328.058,729.397 331.464,730.675 334.87,731.941 338.276,733.194 341.682,734.435 345.088,735.665 348.493,736.883 351.899,738.09 355.305,739.287 358.711,740.473 362.117,741.649 365.523,742.814 368.929,743.971 372.335,745.117 375.741,746.255 379.147,747.383 382.553,748.503 385.959,749.614 389.365,750.717 392.771,751.812 396.177,752.899 399.583,753.978 402.989,755.049 406.395,756.113 409.8,757.17 413.206,758.219 416.612,759.262 420.018,760.298 423.424,761.327 426.83,762.35 430.236,763.366 433.642,764.376 437.048,765.38 440.454,766.378 443.86,767.371 447.266,768.357 450.672,769.338 454.078,770.313 457.484,771.283 460.89,772.248 464.296,773.207 467.702,774.161 471.107,775.111 474.513,776.055 477.919,776.995 481.325,777.93 484.731,778.86 488.137,779.786 491.543,780.707 494.949,781.624 498.355,782.536 501.761,783.445 505.167,784.349 508.573,785.249 511.979,786.145 515.385,787.037 518.791,787.925 522.197,788.81 525.603,789.691 529.009,790.568 532.414,791.441 535.82,792.311 539.226,793.177 542.632,794.04 546.038,794.9 549.444,795.756 552.85,796.609 556.256,797.459 559.662,798.305 563.068,799.149 566.474,799.989 569.88,800.827 573.286,801.661 576.692,802.492 580.098,803.321 583.504,804.147 586.91,804.97 590.316,805.79 593.721,806.607 597.127,807.422 600.533,808.234 603.939,809.044 607.345,809.851 610.751,810.656 614.157,811.458 617.563,812.257 620.969,813.055 624.375,813.849 627.781,814.642 631.187,815.432 634.593,816.22 637.999,817.006 641.405,817.789 644.811,818.571 648.217,819.35 651.623,820.127 655.029,820.902 658.434,821.675 661.84,822.446 665.246,823.215 668.652,823.981 672.058,824.746 675.464,825.509 678.87,826.271 682.276,827.03 685.682,827.787 689.088,828.543 692.494,829.297 695.9,830.049 699.306,830.799 702.712,831.548 706.118,832.295 709.524,833.04 712.93,833.783 716.336,834.525 719.741,835.265 723.147,836.004 726.553,836.741 729.959,837.477 733.365,838.211 736.771,838.943 740.177,839.674 743.583,840.404 746.989,841.132 750.395,841.858 753.801,842.584 757.207,843.307 760.613,844.03 764.019,844.751 767.425,845.47 770.831,846.189 774.237,846.906 777.643,847.621 781.048,848.336 784.454,849.049 787.86,849.761 791.266,850.471 794.672,851.181 798.078,851.889 801.484,852.596 804.89,853.302 808.296,854.006 811.702,854.71 815.108,855.412 818.514,856.113 821.92,856.813 825.326,857.512 828.732,858.21 832.138,858.907 835.544,859.602 838.95,860.297 842.355,860.991 845.761,861.683 849.167,862.375 852.573,863.065 855.979,863.755 859.385,864.443 862.791,865.131 866.197,865.817 869.603,866.503 873.009,867.188 876.415,867.871 879.821,868.554 883.227,869.236 886.633,869.917 890.039,870.597 893.445,871.276 896.851,871.955 900.257,872.632 903.663,873.309 907.068,873.985 910.474,874.66 913.88,875.334 917.286,876.007 920.692,876.68 924.098,877.351 927.504,878.022 930.91,878.692 934.316,879.362 937.722,880.03 941.128,880.698 944.534,881.365 947.94,882.032 951.346,882.697 954.752,883.362 958.158,884.026 961.564,884.69 964.97,885.353 968.375,886.015 971.781,886.676 975.187,887.337 978.593,887.997 981.999,888.656 985.405,889.315 988.811,889.973 992.217,890.63 995.623,891.287 999.029,891.943 1002.43,892.599 1005.84,893.253 1009.25,893.908 1012.65,894.561 1016.06,895.214 1019.46,895.867 1022.87,896.519 1026.28,897.17 1029.68,897.821 1033.09,898.471 1036.49,899.12 1039.9,899.769 1043.31,900.418 1046.71,901.066 1050.12,901.713 1053.52,902.36 1056.93,903.006 1060.34,903.652 1063.74,904.297 1067.15,904.942 1070.55,905.586 1073.96,906.23 1077.37,906.873 1080.77,907.515 1084.18,908.158 1087.58,908.799 1090.99,909.441 1094.4,910.081 1097.8,910.722 1101.21,911.361 1104.61,912.001 1108.02,912.64 1111.43,913.278 1114.83,913.916 1118.24,914.554 1121.64,915.191 1125.05,915.827 1128.45,916.464 1131.86,917.099 1135.27,917.735 1138.67,918.37 1142.08,919.004 1145.48,919.638 1148.89,920.272 1152.3,920.905 1155.7,921.538 1159.11,922.171 1162.51,922.803 1165.92,923.435 1169.33,924.066 1172.73,924.697 1176.14,925.328 1179.54,925.958 1182.95,926.588 1186.36,927.217 1189.76,927.846 1193.17,928.475 1196.57,929.104 1199.98,929.732 1203.39,930.359 1206.79,930.987 1210.2,931.614 1213.6,932.24 1217.01,932.867 1220.42,933.493 1223.82,934.118 1227.23,934.744 1230.63,935.369 1234.04,935.993 1237.45,936.618 1240.85,937.242 1244.26,937.866 1247.66,938.489 1251.07,939.112 1254.47,939.735 1257.88,940.358 1261.29,940.98 1264.69,941.602 1268.1,942.223 1271.5,942.845 1274.91,943.466 1278.32,944.087 1281.72,944.707 1285.13,945.327 1288.53,945.947 1291.94,946.567 1295.35,947.186 1298.75,947.806 1302.16,948.424 1305.56,949.043 1308.97,949.661 1312.38,950.279 1315.78,950.897 1319.19,951.515 1322.59,952.132 1326,952.749 1329.41,953.366 1332.81,953.983 1336.22,954.599 1339.62,955.215 1343.03,955.831 1346.44,956.446 1349.84,957.062 1353.25,957.677 1356.65,958.292 1360.06,958.907 1363.47,959.521 1366.87,960.135 1370.28,960.749 1373.68,961.363 1377.09,961.977 1380.49,962.59 1383.9,963.203 1387.31,963.816 1390.71,964.429 1394.12,965.041 1397.52,965.654 1400.93,966.266 1404.34,966.878 1407.74,967.49 1411.15,968.101 1414.55,968.712 1417.96,969.323 1421.37,969.934 1424.77,970.545 1428.18,971.156 1431.58,971.766 1434.99,972.376 1438.4,972.986 1441.8,973.596 1445.21,974.206 1448.61,974.815 1452.02,975.424 1455.43,976.033 1458.83,976.642 1462.24,977.251 1465.64,977.86 1469.05,978.468 1472.46,979.076 1475.86,979.684 1479.27,980.292 1482.67,980.9 1486.08,981.507 1489.49,982.115 1492.89,982.722 1496.3,983.329 1499.7,983.936 1503.11,984.543 1506.51,985.149 1509.92,985.756 1513.33,986.362 1516.73,986.968 1520.14,987.574 1523.54,988.18 1526.95,988.786 1530.36,989.391 1533.76,989.997 1537.17,990.602 1540.57,991.207 1543.98,991.812 1547.39,992.417 1550.79,993.022 1554.2,993.626 1557.6,994.231 1561.01,994.835 1564.42,995.439 1567.82,996.043 1571.23,996.647 1574.63,997.251 1578.04,997.855 1581.45,998.458 1584.85,999.062 1588.26,999.665 1591.66,1000.27 1595.07,1000.87 1598.48,1001.47 1601.88,1002.08 1605.29,1002.68 1608.69,1003.28 1612.1,1003.88 1615.51,1004.49 1618.91,1005.09 1622.32,1005.69 1625.72,1006.29 1629.13,1006.9 1632.53,1007.5 1635.94,1008.1 1639.35,1008.7 1642.75,1009.3 1646.16,1009.9 1649.56,1010.5 1652.97,1011.1 1656.38,1011.71 1659.78,1012.31 1663.19,1012.91 1666.59,1013.51 1670,1014.11 1673.41,1014.71 1676.81,1015.31 1680.22,1015.91 1683.62,1016.51 1687.03,1017.11 1690.44,1017.71 1693.84,1018.31 1697.25,1018.91 1700.65,1019.51 1704.06,1020.11 1707.47,1020.71 1710.87,1021.31 1714.28,1021.91 1717.68,1022.51 1721.09,1023.11 1724.5,1023.71 1727.9,1024.3 1731.31,1024.9 1734.71,1025.5 1738.12,1026.1 1741.52,1026.7 1744.93,1027.3 1748.34,1027.9 1751.74,1028.49 1755.15,1029.09 1758.55,1029.69 1761.96,1030.29 1765.37,1030.89 1768.77,1031.49 1772.18,1032.08 1775.58,1032.68 1778.99,1033.28 1782.4,1033.88 1785.8,1034.47 1789.21,1035.07 1792.61,1035.67 1796.02,1036.27 1799.43,1036.86 1802.83,1037.46 1806.24,1038.06 1809.64,1038.66 1813.05,1039.25 1816.46,1039.85 1819.86,1040.45 1823.27,1041.04 1826.67,1041.64 1830.08,1042.24 1833.49,1042.83 1836.89,1043.43 1840.3,1044.03 1843.7,1044.62 1847.11,1045.22 1850.52,1045.82 1853.92,1046.41 1857.33,1047.01 1860.73,1047.6 1864.14,1048.2 1867.54,1048.8 1870.95,1049.39 1874.36,1049.99 1877.76,1050.58 1881.17,1051.18 1884.57,1051.77 1887.98,1052.37 1891.39,1052.97 1894.79,1053.56 1898.2,1054.16 1901.6,1054.75 1905.01,1055.35 1908.42,1055.94 1911.82,1056.54 1915.23,1057.13 1918.63,1057.73 1922.04,1058.32 1925.45,1058.92 1928.85,1059.51 1932.26,1060.11 1935.66,1060.7 1939.07,1061.3 1942.48,1061.89 1945.88,1062.49 1949.29,1063.08 1952.69,1063.68 1956.1,1064.27 1959.51,1064.87 1962.91,1065.46 1966.32,1066.05 1969.72,1066.65 1973.13,1067.24 1976.54,1067.84 1979.94,1068.43 1983.35,1069.03 1986.75,1069.62 1990.16,1070.21 1993.56,1070.81 1996.97,1071.4 2000.38,1072 2003.78,1072.59 2007.19,1073.18 2010.59,1073.78 2014,1074.37 2017.41,1074.97 2020.81,1075.56 2024.22,1076.15 2027.62,1076.75 2031.03,1077.34 2034.44,1077.93 2037.84,1078.53 2041.25,1079.12 2044.65,1079.71 2048.06,1080.31 2051.47,1080.9 2054.87,1081.49 2058.28,1082.09 2061.68,1082.68 2065.09,1083.27 2068.5,1083.87 2071.9,1084.46 2075.31,1085.05 2078.71,1085.65 2082.12,1086.24 2085.53,1086.83 2088.93,1087.42 2092.34,1088.02 2095.74,1088.61 2099.15,1089.2 2102.56,1089.8 2105.96,1090.39 2109.37,1090.98 2112.77,1091.57 2116.18,1092.17 2119.58,1092.76 2122.99,1093.35 2126.4,1093.94 2129.8,1094.54 2133.21,1095.13 2136.61,1095.72 2140.02,1096.31 2143.43,1096.91 2146.83,1097.5 2150.24,1098.09 2153.64,1098.68 2157.05,1099.28 2160.46,1099.87 2163.86,1100.46 2167.27,1101.05 2170.67,1101.65 2174.08,1102.24 2177.49,1102.83 2180.89,1103.42 2184.3,1104.01 2187.7,1104.61 2191.11,1105.2 2194.52,1105.79 2197.92,1106.38 2201.33,1106.97 2204.73,1107.57 2208.14,1108.16 2211.55,1108.75 2214.95,1109.34 2218.36,1109.93 2221.76,1110.52 2225.17,1111.12 2228.58,1111.71 2231.98,1112.3 2235.39,1112.89 2238.79,1113.48 2242.2,1114.07 2245.6,1114.67 2249.01,1115.26 2252.42,1115.85 2255.82,1116.44 2259.23,1117.03 2262.63,1117.62 2266.04,1118.22 2269.45,1118.81 2272.85,1119.4 2276.26,1119.99 2279.66,1120.58 2283.07,1121.17 2286.48,1121.76 2289.88,1122.35 2293.29,1122.95 "/>
<polyline clip-path="url(#clip382)" style="stroke:#3da44d; stroke-linecap:round; stroke-linejoin:round; stroke-width:4; stroke-opacity:1; fill:none" points="311.028,160.256 314.434,487.639 317.84,723.952 321.246,726.801 324.652,728.106 328.058,729.397 331.464,730.675 334.87,731.941 338.276,733.194 341.682,734.435 345.088,735.665 348.493,736.883 351.899,738.09 355.305,739.287 358.711,740.473 362.117,741.649 365.523,742.814 368.929,743.971 372.335,745.117 375.741,746.255 379.147,747.383 382.553,748.503 385.959,749.614 389.365,750.717 392.771,751.812 396.177,752.899 399.583,753.978 402.989,755.049 406.395,756.113 409.8,757.17 413.206,758.219 416.612,759.262 420.018,760.298 423.424,761.327 426.83,762.35 430.236,763.366 433.642,764.376 437.048,765.38 440.454,766.378 443.86,767.371 447.266,768.357 450.672,769.338 454.078,770.313 457.484,771.283 460.89,772.248 464.296,773.207 467.702,774.161 471.107,775.111 474.513,776.055 477.919,776.995 481.325,777.93 484.731,778.86 488.137,779.786 491.543,780.707 494.949,781.624 498.355,782.536 501.761,783.445 505.167,784.349 508.573,785.249 511.979,786.145 515.385,787.037 518.791,787.925 522.197,788.81 525.603,789.691 529.009,790.568 532.414,791.441 535.82,792.311 539.226,793.177 542.632,794.04 546.038,794.9 549.444,795.756 552.85,796.609 556.256,797.459 559.662,798.305 563.068,799.149 566.474,799.989 569.88,800.827 573.286,801.661 576.692,802.492 580.098,803.321 583.504,804.147 586.91,804.97 590.316,805.79 593.721,806.607 597.127,807.422 600.533,808.234 603.939,809.044 607.345,809.851 610.751,810.656 614.157,811.458 617.563,812.257 620.969,813.055 624.375,813.849 627.781,814.642 631.187,815.432 634.593,816.22 637.999,817.006 641.405,817.789 644.811,818.571 648.217,819.35 651.623,820.127 655.029,820.902 658.434,821.675 661.84,822.446 665.246,823.215 668.652,823.981 672.058,824.746 675.464,825.509 678.87,826.271 682.276,827.03 685.682,827.787 689.088,828.543 692.494,829.297 695.9,830.049 699.306,830.799 702.712,831.548 706.118,832.295 709.524,833.04 712.93,833.783 716.336,834.525 719.741,835.265 723.147,836.004 726.553,836.741 729.959,837.477 733.365,838.211 736.771,838.943 740.177,839.674 743.583,840.404 746.989,841.132 750.395,841.858 753.801,842.584 757.207,843.307 760.613,844.03 764.019,844.751 767.425,845.47 770.831,846.189 774.237,846.906 777.643,847.621 781.048,848.336 784.454,849.049 787.86,849.761 791.266,850.471 794.672,851.181 798.078,851.889 801.484,852.596 804.89,853.302 808.296,854.006 811.702,854.71 815.108,855.412 818.514,856.113 821.92,856.813 825.326,857.512 828.732,858.21 832.138,858.907 835.544,859.602 838.95,860.297 842.355,860.991 845.761,861.683 849.167,862.375 852.573,863.065 855.979,863.755 859.385,864.443 862.791,865.131 866.197,865.817 869.603,866.503 873.009,867.188 876.415,867.871 879.821,868.554 883.227,869.236 886.633,869.917 890.039,870.597 893.445,871.276 896.851,871.955 900.257,872.632 903.663,873.309 907.068,873.985 910.474,874.66 913.88,875.334 917.286,876.007 920.692,876.68 924.098,877.351 927.504,878.022 930.91,878.692 934.316,879.362 937.722,880.03 941.128,880.698 944.534,881.365 947.94,882.032 951.346,882.697 954.752,883.362 958.158,884.026 961.564,884.69 964.97,885.353 968.375,886.015 971.781,886.676 975.187,887.337 978.593,887.997 981.999,888.656 985.405,889.315 988.811,889.973 992.217,890.63 995.623,891.287 999.029,891.943 1002.43,892.599 1005.84,893.253 1009.25,893.908 1012.65,894.561 1016.06,895.214 1019.46,895.867 1022.87,896.519 1026.28,897.17 1029.68,897.821 1033.09,898.471 1036.49,899.12 1039.9,899.769 1043.31,900.418 1046.71,901.066 1050.12,901.713 1053.52,902.36 1056.93,903.006 1060.34,903.652 1063.74,904.297 1067.15,904.942 1070.55,905.586 1073.96,906.23 1077.37,906.873 1080.77,907.515 1084.18,908.158 1087.58,908.799 1090.99,909.441 1094.4,910.081 1097.8,910.722 1101.21,911.361 1104.61,912.001 1108.02,912.64 1111.43,913.278 1114.83,913.916 1118.24,914.554 1121.64,915.191 1125.05,915.827 1128.45,916.464 1131.86,917.099 1135.27,917.735 1138.67,918.37 1142.08,919.004 1145.48,919.638 1148.89,920.272 1152.3,920.905 1155.7,921.538 1159.11,922.171 1162.51,922.803 1165.92,923.435 1169.33,924.066 1172.73,924.697 1176.14,925.328 1179.54,925.958 1182.95,926.588 1186.36,927.217 1189.76,927.846 1193.17,928.475 1196.57,929.104 1199.98,929.732 1203.39,930.359 1206.79,930.987 1210.2,931.614 1213.6,932.24 1217.01,932.867 1220.42,933.493 1223.82,934.118 1227.23,934.744 1230.63,935.369 1234.04,935.993 1237.45,936.618 1240.85,937.242 1244.26,937.866 1247.66,938.489 1251.07,939.112 1254.47,939.735 1257.88,940.358 1261.29,940.98 1264.69,941.602 1268.1,942.223 1271.5,942.845 1274.91,943.466 1278.32,944.087 1281.72,944.707 1285.13,945.327 1288.53,945.947 1291.94,946.567 1295.35,947.186 1298.75,947.806 1302.16,948.424 1305.56,949.043 1308.97,949.661 1312.38,950.279 1315.78,950.897 1319.19,951.515 1322.59,952.132 1326,952.749 1329.41,953.366 1332.81,953.983 1336.22,954.599 1339.62,955.215 1343.03,955.831 1346.44,956.446 1349.84,957.062 1353.25,957.677 1356.65,958.292 1360.06,958.907 1363.47,959.521 1366.87,960.135 1370.28,960.749 1373.68,961.363 1377.09,961.977 1380.49,962.59 1383.9,963.203 1387.31,963.816 1390.71,964.429 1394.12,965.041 1397.52,965.654 1400.93,966.266 1404.34,966.878 1407.74,967.49 1411.15,968.101 1414.55,968.712 1417.96,969.323 1421.37,969.934 1424.77,970.545 1428.18,971.156 1431.58,971.766 1434.99,972.376 1438.4,972.986 1441.8,973.596 1445.21,974.206 1448.61,974.815 1452.02,975.424 1455.43,976.033 1458.83,976.642 1462.24,977.251 1465.64,977.86 1469.05,978.468 1472.46,979.076 1475.86,979.684 1479.27,980.292 1482.67,980.9 1486.08,981.507 1489.49,982.115 1492.89,982.722 1496.3,983.329 1499.7,983.936 1503.11,984.543 1506.51,985.149 1509.92,985.756 1513.33,986.362 1516.73,986.968 1520.14,987.574 1523.54,988.18 1526.95,988.786 1530.36,989.391 1533.76,989.997 1537.17,990.602 1540.57,991.207 1543.98,991.812 1547.39,992.417 1550.79,993.022 1554.2,993.626 1557.6,994.231 1561.01,994.835 1564.42,995.439 1567.82,996.043 1571.23,996.647 1574.63,997.251 1578.04,997.855 1581.45,998.458 1584.85,999.062 1588.26,999.665 1591.66,1000.27 1595.07,1000.87 1598.48,1001.47 1601.88,1002.08 1605.29,1002.68 1608.69,1003.28 1612.1,1003.88 1615.51,1004.49 1618.91,1005.09 1622.32,1005.69 1625.72,1006.29 1629.13,1006.9 1632.53,1007.5 1635.94,1008.1 1639.35,1008.7 1642.75,1009.3 1646.16,1009.9 1649.56,1010.5 1652.97,1011.1 1656.38,1011.71 1659.78,1012.31 1663.19,1012.91 1666.59,1013.51 1670,1014.11 1673.41,1014.71 1676.81,1015.31 1680.22,1015.91 1683.62,1016.51 1687.03,1017.11 1690.44,1017.71 1693.84,1018.31 1697.25,1018.91 1700.65,1019.51 1704.06,1020.11 1707.47,1020.71 1710.87,1021.31 1714.28,1021.91 1717.68,1022.51 1721.09,1023.11 1724.5,1023.71 1727.9,1024.3 1731.31,1024.9 1734.71,1025.5 1738.12,1026.1 1741.52,1026.7 1744.93,1027.3 1748.34,1027.9 1751.74,1028.49 1755.15,1029.09 1758.55,1029.69 1761.96,1030.29 1765.37,1030.89 1768.77,1031.49 1772.18,1032.08 1775.58,1032.68 1778.99,1033.28 1782.4,1033.88 1785.8,1034.47 1789.21,1035.07 1792.61,1035.67 1796.02,1036.27 1799.43,1036.86 1802.83,1037.46 1806.24,1038.06 1809.64,1038.66 1813.05,1039.25 1816.46,1039.85 1819.86,1040.45 1823.27,1041.04 1826.67,1041.64 1830.08,1042.24 1833.49,1042.83 1836.89,1043.43 1840.3,1044.03 1843.7,1044.62 1847.11,1045.22 1850.52,1045.82 1853.92,1046.41 1857.33,1047.01 1860.73,1047.6 1864.14,1048.2 1867.54,1048.8 1870.95,1049.39 1874.36,1049.99 1877.76,1050.58 1881.17,1051.18 1884.57,1051.77 1887.98,1052.37 1891.39,1052.97 1894.79,1053.56 1898.2,1054.16 1901.6,1054.75 1905.01,1055.35 1908.42,1055.94 1911.82,1056.54 1915.23,1057.13 1918.63,1057.73 1922.04,1058.32 1925.45,1058.92 1928.85,1059.51 1932.26,1060.11 1935.66,1060.7 1939.07,1061.3 1942.48,1061.89 1945.88,1062.49 1949.29,1063.08 1952.69,1063.68 1956.1,1064.27 1959.51,1064.87 1962.91,1065.46 1966.32,1066.05 1969.72,1066.65 1973.13,1067.24 1976.54,1067.84 1979.94,1068.43 1983.35,1069.03 1986.75,1069.62 1990.16,1070.21 1993.56,1070.81 1996.97,1071.4 2000.38,1072 2003.78,1072.59 2007.19,1073.18 2010.59,1073.78 2014,1074.37 2017.41,1074.97 2020.81,1075.56 2024.22,1076.15 2027.62,1076.75 2031.03,1077.34 2034.44,1077.93 2037.84,1078.53 2041.25,1079.12 2044.65,1079.71 2048.06,1080.31 2051.47,1080.9 2054.87,1081.49 2058.28,1082.09 2061.68,1082.68 2065.09,1083.27 2068.5,1083.87 2071.9,1084.46 2075.31,1085.05 2078.71,1085.65 2082.12,1086.24 2085.53,1086.83 2088.93,1087.42 2092.34,1088.02 2095.74,1088.61 2099.15,1089.2 2102.56,1089.8 2105.96,1090.39 2109.37,1090.98 2112.77,1091.57 2116.18,1092.17 2119.58,1092.76 2122.99,1093.35 2126.4,1093.94 2129.8,1094.54 2133.21,1095.13 2136.61,1095.72 2140.02,1096.31 2143.43,1096.91 2146.83,1097.5 2150.24,1098.09 2153.64,1098.68 2157.05,1099.28 2160.46,1099.87 2163.86,1100.46 2167.27,1101.05 2170.67,1101.65 2174.08,1102.24 2177.49,1102.83 2180.89,1103.42 2184.3,1104.01 2187.7,1104.61 2191.11,1105.2 2194.52,1105.79 2197.92,1106.38 2201.33,1106.97 2204.73,1107.57 2208.14,1108.16 2211.55,1108.75 2214.95,1109.34 2218.36,1109.93 2221.76,1110.52 2225.17,1111.12 2228.58,1111.71 2231.98,1112.3 2235.39,1112.89 2238.79,1113.48 2242.2,1114.07 2245.6,1114.67 2249.01,1115.26 2252.42,1115.85 2255.82,1116.44 2259.23,1117.03 2262.63,1117.62 2266.04,1118.22 2269.45,1118.81 2272.85,1119.4 2276.26,1119.99 2279.66,1120.58 2283.07,1121.17 2286.48,1121.76 2289.88,1122.35 2293.29,1122.95 "/>
<polyline clip-path="url(#clip382)" style="stroke:#c271d2; stroke-linecap:round; stroke-linejoin:round; stroke-width:4; stroke-opacity:1; fill:none" points="311.028,160.256 314.434,487.639 317.84,723.952 321.246,726.801 324.652,728.106 328.058,729.397 331.464,730.675 334.87,731.941 338.276,733.194 341.682,734.435 345.088,735.665 348.493,736.883 351.899,738.09 355.305,739.287 358.711,740.473 362.117,741.649 365.523,742.814 368.929,743.971 372.335,745.117 375.741,746.255 379.147,747.383 382.553,748.503 385.959,749.614 389.365,750.717 392.771,751.812 396.177,752.899 399.583,753.978 402.989,755.049 406.395,756.113 409.8,757.17 413.206,758.219 416.612,759.262 420.018,760.298 423.424,761.327 426.83,762.35 430.236,763.366 433.642,764.376 437.048,765.38 440.454,766.378 443.86,767.371 447.266,768.357 450.672,769.338 454.078,770.313 457.484,771.283 460.89,772.248 464.296,773.207 467.702,774.161 471.107,775.111 474.513,776.055 477.919,776.995 481.325,777.93 484.731,778.86 488.137,779.786 491.543,780.707 494.949,781.624 498.355,782.536 501.761,783.445 505.167,784.349 508.573,785.249 511.979,786.145 515.385,787.037 518.791,787.925 522.197,788.81 525.603,789.691 529.009,790.568 532.414,791.441 535.82,792.311 539.226,793.177 542.632,794.04 546.038,794.9 549.444,795.756 552.85,796.609 556.256,797.459 559.662,798.305 563.068,799.149 566.474,799.989 569.88,800.827 573.286,801.661 576.692,802.492 580.098,803.321 583.504,804.147 586.91,804.97 590.316,805.79 593.721,806.607 597.127,807.422 600.533,808.234 603.939,809.044 607.345,809.851 610.751,810.656 614.157,811.458 617.563,812.257 620.969,813.055 624.375,813.849 627.781,814.642 631.187,815.432 634.593,816.22 637.999,817.006 641.405,817.789 644.811,818.571 648.217,819.35 651.623,820.127 655.029,820.902 658.434,821.675 661.84,822.446 665.246,823.215 668.652,823.981 672.058,824.746 675.464,825.509 678.87,826.271 682.276,827.03 685.682,827.787 689.088,828.543 692.494,829.297 695.9,830.049 699.306,830.799 702.712,831.548 706.118,832.295 709.524,833.04 712.93,833.783 716.336,834.525 719.741,835.265 723.147,836.004 726.553,836.741 729.959,837.477 733.365,838.211 736.771,838.943 740.177,839.674 743.583,840.404 746.989,841.132 750.395,841.858 753.801,842.584 757.207,843.307 760.613,844.03 764.019,844.751 767.425,845.47 770.831,846.189 774.237,846.906 777.643,847.621 781.048,848.336 784.454,849.049 787.86,849.761 791.266,850.471 794.672,851.181 798.078,851.889 801.484,852.596 804.89,853.302 808.296,854.006 811.702,854.71 815.108,855.412 818.514,856.113 821.92,856.813 825.326,857.512 828.732,858.21 832.138,858.907 835.544,859.602 838.95,860.297 842.355,860.991 845.761,861.683 849.167,862.375 852.573,863.065 855.979,863.755 859.385,864.443 862.791,865.131 866.197,865.817 869.603,866.503 873.009,867.188 876.415,867.871 879.821,868.554 883.227,869.236 886.633,869.917 890.039,870.597 893.445,871.276 896.851,871.955 900.257,872.632 903.663,873.309 907.068,873.985 910.474,874.66 913.88,875.334 917.286,876.007 920.692,876.68 924.098,877.351 927.504,878.022 930.91,878.692 934.316,879.362 937.722,880.03 941.128,880.698 944.534,881.365 947.94,882.032 951.346,882.697 954.752,883.362 958.158,884.026 961.564,884.69 964.97,885.353 968.375,886.015 971.781,886.676 975.187,887.337 978.593,887.997 981.999,888.656 985.405,889.315 988.811,889.973 992.217,890.63 995.623,891.287 999.029,891.943 1002.43,892.599 1005.84,893.253 1009.25,893.908 1012.65,894.561 1016.06,895.214 1019.46,895.867 1022.87,896.519 1026.28,897.17 1029.68,897.821 1033.09,898.471 1036.49,899.12 1039.9,899.769 1043.31,900.418 1046.71,901.066 1050.12,901.713 1053.52,902.36 1056.93,903.006 1060.34,903.652 1063.74,904.297 1067.15,904.942 1070.55,905.586 1073.96,906.23 1077.37,906.873 1080.77,907.515 1084.18,908.158 1087.58,908.799 1090.99,909.441 1094.4,910.081 1097.8,910.722 1101.21,911.361 1104.61,912.001 1108.02,912.64 1111.43,913.278 1114.83,913.916 1118.24,914.554 1121.64,915.191 1125.05,915.827 1128.45,916.464 1131.86,917.099 1135.27,917.735 1138.67,918.37 1142.08,919.004 1145.48,919.638 1148.89,920.272 1152.3,920.905 1155.7,921.538 1159.11,922.171 1162.51,922.803 1165.92,923.435 1169.33,924.066 1172.73,924.697 1176.14,925.328 1179.54,925.958 1182.95,926.588 1186.36,927.217 1189.76,927.846 1193.17,928.475 1196.57,929.104 1199.98,929.732 1203.39,930.359 1206.79,930.987 1210.2,931.614 1213.6,932.24 1217.01,932.867 1220.42,933.493 1223.82,934.118 1227.23,934.744 1230.63,935.369 1234.04,935.993 1237.45,936.618 1240.85,937.242 1244.26,937.866 1247.66,938.489 1251.07,939.112 1254.47,939.735 1257.88,940.358 1261.29,940.98 1264.69,941.602 1268.1,942.223 1271.5,942.845 1274.91,943.466 1278.32,944.087 1281.72,944.707 1285.13,945.327 1288.53,945.947 1291.94,946.567 1295.35,947.186 1298.75,947.806 1302.16,948.424 1305.56,949.043 1308.97,949.661 1312.38,950.279 1315.78,950.897 1319.19,951.515 1322.59,952.132 1326,952.749 1329.41,953.366 1332.81,953.983 1336.22,954.599 1339.62,955.215 1343.03,955.831 1346.44,956.446 1349.84,957.062 1353.25,957.677 1356.65,958.292 1360.06,958.907 1363.47,959.521 1366.87,960.135 1370.28,960.749 1373.68,961.363 1377.09,961.977 1380.49,962.59 1383.9,963.203 1387.31,963.816 1390.71,964.429 1394.12,965.041 1397.52,965.654 1400.93,966.266 1404.34,966.878 1407.74,967.49 1411.15,968.101 1414.55,968.712 1417.96,969.323 1421.37,969.934 1424.77,970.545 1428.18,971.156 1431.58,971.766 1434.99,972.376 1438.4,972.986 1441.8,973.596 1445.21,974.206 1448.61,974.815 1452.02,975.424 1455.43,976.033 1458.83,976.642 1462.24,977.251 1465.64,977.86 1469.05,978.468 1472.46,979.076 1475.86,979.684 1479.27,980.292 1482.67,980.9 1486.08,981.507 1489.49,982.115 1492.89,982.722 1496.3,983.329 1499.7,983.936 1503.11,984.543 1506.51,985.149 1509.92,985.756 1513.33,986.362 1516.73,986.968 1520.14,987.574 1523.54,988.18 1526.95,988.786 1530.36,989.391 1533.76,989.997 1537.17,990.602 1540.57,991.207 1543.98,991.812 1547.39,992.417 1550.79,993.022 1554.2,993.626 1557.6,994.231 1561.01,994.835 1564.42,995.439 1567.82,996.043 1571.23,996.647 1574.63,997.251 1578.04,997.855 1581.45,998.458 1584.85,999.062 1588.26,999.665 1591.66,1000.27 1595.07,1000.87 1598.48,1001.47 1601.88,1002.08 1605.29,1002.68 1608.69,1003.28 1612.1,1003.88 1615.51,1004.49 1618.91,1005.09 1622.32,1005.69 1625.72,1006.29 1629.13,1006.9 1632.53,1007.5 1635.94,1008.1 1639.35,1008.7 1642.75,1009.3 1646.16,1009.9 1649.56,1010.5 1652.97,1011.1 1656.38,1011.71 1659.78,1012.31 1663.19,1012.91 1666.59,1013.51 1670,1014.11 1673.41,1014.71 1676.81,1015.31 1680.22,1015.91 1683.62,1016.51 1687.03,1017.11 1690.44,1017.71 1693.84,1018.31 1697.25,1018.91 1700.65,1019.51 1704.06,1020.11 1707.47,1020.71 1710.87,1021.31 1714.28,1021.91 1717.68,1022.51 1721.09,1023.11 1724.5,1023.71 1727.9,1024.3 1731.31,1024.9 1734.71,1025.5 1738.12,1026.1 1741.52,1026.7 1744.93,1027.3 1748.34,1027.9 1751.74,1028.49 1755.15,1029.09 1758.55,1029.69 1761.96,1030.29 1765.37,1030.89 1768.77,1031.49 1772.18,1032.08 1775.58,1032.68 1778.99,1033.28 1782.4,1033.88 1785.8,1034.47 1789.21,1035.07 1792.61,1035.67 1796.02,1036.27 1799.43,1036.86 1802.83,1037.46 1806.24,1038.06 1809.64,1038.66 1813.05,1039.25 1816.46,1039.85 1819.86,1040.45 1823.27,1041.04 1826.67,1041.64 1830.08,1042.24 1833.49,1042.83 1836.89,1043.43 1840.3,1044.03 1843.7,1044.62 1847.11,1045.22 1850.52,1045.82 1853.92,1046.41 1857.33,1047.01 1860.73,1047.6 1864.14,1048.2 1867.54,1048.8 1870.95,1049.39 1874.36,1049.99 1877.76,1050.58 1881.17,1051.18 1884.57,1051.77 1887.98,1052.37 1891.39,1052.97 1894.79,1053.56 1898.2,1054.16 1901.6,1054.75 1905.01,1055.35 1908.42,1055.94 1911.82,1056.54 1915.23,1057.13 1918.63,1057.73 1922.04,1058.32 1925.45,1058.92 1928.85,1059.51 1932.26,1060.11 1935.66,1060.7 1939.07,1061.3 1942.48,1061.89 1945.88,1062.49 1949.29,1063.08 1952.69,1063.68 1956.1,1064.27 1959.51,1064.87 1962.91,1065.46 1966.32,1066.05 1969.72,1066.65 1973.13,1067.24 1976.54,1067.84 1979.94,1068.43 1983.35,1069.03 1986.75,1069.62 1990.16,1070.21 1993.56,1070.81 1996.97,1071.4 2000.38,1072 2003.78,1072.59 2007.19,1073.18 2010.59,1073.78 2014,1074.37 2017.41,1074.97 2020.81,1075.56 2024.22,1076.15 2027.62,1076.75 2031.03,1077.34 2034.44,1077.93 2037.84,1078.53 2041.25,1079.12 2044.65,1079.71 2048.06,1080.31 2051.47,1080.9 2054.87,1081.49 2058.28,1082.09 2061.68,1082.68 2065.09,1083.27 2068.5,1083.87 2071.9,1084.46 2075.31,1085.05 2078.71,1085.65 2082.12,1086.24 2085.53,1086.83 2088.93,1087.42 2092.34,1088.02 2095.74,1088.61 2099.15,1089.2 2102.56,1089.8 2105.96,1090.39 2109.37,1090.98 2112.77,1091.57 2116.18,1092.17 2119.58,1092.76 2122.99,1093.35 2126.4,1093.94 2129.8,1094.54 2133.21,1095.13 2136.61,1095.72 2140.02,1096.31 2143.43,1096.91 2146.83,1097.5 2150.24,1098.09 2153.64,1098.68 2157.05,1099.28 2160.46,1099.87 2163.86,1100.46 2167.27,1101.05 2170.67,1101.65 2174.08,1102.24 2177.49,1102.83 2180.89,1103.42 2184.3,1104.01 2187.7,1104.61 2191.11,1105.2 2194.52,1105.79 2197.92,1106.38 2201.33,1106.97 2204.73,1107.57 2208.14,1108.16 2211.55,1108.75 2214.95,1109.34 2218.36,1109.93 2221.76,1110.52 2225.17,1111.12 2228.58,1111.71 2231.98,1112.3 2235.39,1112.89 2238.79,1113.48 2242.2,1114.07 2245.6,1114.67 2249.01,1115.26 2252.42,1115.85 2255.82,1116.44 2259.23,1117.03 2262.63,1117.62 2266.04,1118.22 2269.45,1118.81 2272.85,1119.4 2276.26,1119.99 2279.66,1120.58 2283.07,1121.17 2286.48,1121.76 2289.88,1122.35 2293.29,1122.95 "/>
<polyline clip-path="url(#clip382)" style="stroke:#ac8d18; stroke-linecap:round; stroke-linejoin:round; stroke-width:4; stroke-opacity:1; fill:none" points="311.028,160.256 314.434,160.256 317.84,160.256 321.246,290.126 324.652,340.639 328.058,357.575 331.464,357.575 334.87,357.575 338.276,357.607 341.682,357.607 345.088,357.607 348.493,357.607 351.899,357.607 355.305,357.613 358.711,357.613 362.117,362.653 365.523,362.653 368.929,362.653 372.335,362.653 375.741,388.58 379.147,599.554 382.553,682 385.959,766.317 389.365,864.976 392.771,993.848 396.177,1166.27 399.583,1386.4 "/>
<path clip-path="url(#clip380)" d="M1749.5 477.836 L2282.72 477.836 L2282.72 166.796 L1749.5 166.796  Z" fill="#ffffff" fill-rule="evenodd" fill-opacity="1"/>
<polyline clip-path="url(#clip380)" style="stroke:#000000; stroke-linecap:round; stroke-linejoin:round; stroke-width:4; stroke-opacity:1; fill:none" points="1749.5,477.836 2282.72,477.836 2282.72,166.796 1749.5,166.796 1749.5,477.836 "/>
<polyline clip-path="url(#clip380)" style="stroke:#009af9; stroke-linecap:round; stroke-linejoin:round; stroke-width:4; stroke-opacity:1; fill:none" points="1772.84,218.636 1912.92,218.636 "/>
<path clip-path="url(#clip380)" d="M1936.27 201.356 L1940.95 201.356 L1940.95 231.981 L1957.77 231.981 L1957.77 235.916 L1936.27 235.916 L1936.27 201.356 Z" fill="#000000" fill-rule="nonzero" fill-opacity="1" /><path clip-path="url(#clip380)" d="M1962.68 201.356 L1969.65 201.356 L1978.47 224.874 L1987.33 201.356 L1994.3 201.356 L1994.3 235.916 L1989.74 235.916 L1989.74 205.569 L1980.83 229.272 L1976.13 229.272 L1967.22 205.569 L1967.22 235.916 L1962.68 235.916 L1962.68 201.356 Z" fill="#000000" fill-rule="nonzero" fill-opacity="1" /><path clip-path="url(#clip380)" d="M2023.1 243.786 L2023.1 247.096 L1998.47 247.096 L1998.47 243.786 L2023.1 243.786 Z" fill="#000000" fill-rule="nonzero" fill-opacity="1" /><path clip-path="url(#clip380)" d="M2048 202.49 L2048 207.05 Q2045.34 205.777 2042.98 205.152 Q2040.62 204.527 2038.42 204.527 Q2034.6 204.527 2032.52 206.008 Q2030.46 207.49 2030.46 210.221 Q2030.46 212.513 2031.82 213.694 Q2033.21 214.851 2037.06 215.569 L2039.88 216.147 Q2045.11 217.143 2047.59 219.666 Q2050.09 222.166 2050.09 226.379 Q2050.09 231.402 2046.71 233.994 Q2043.35 236.587 2036.85 236.587 Q2034.39 236.587 2031.62 236.031 Q2028.86 235.476 2025.9 234.388 L2025.9 229.573 Q2028.75 231.17 2031.48 231.981 Q2034.21 232.791 2036.85 232.791 Q2040.85 232.791 2043.03 231.217 Q2045.2 229.643 2045.2 226.726 Q2045.2 224.18 2043.63 222.744 Q2042.08 221.309 2038.51 220.592 L2035.67 220.036 Q2030.44 218.995 2028.1 216.772 Q2025.76 214.55 2025.76 210.592 Q2025.76 206.008 2028.98 203.37 Q2032.22 200.731 2037.89 200.731 Q2040.32 200.731 2042.84 201.171 Q2045.37 201.61 2048 202.49 Z" fill="#000000" fill-rule="nonzero" fill-opacity="1" /><path clip-path="url(#clip380)" d="M2062.06 205.198 L2062.06 218.184 L2067.94 218.184 Q2071.2 218.184 2072.98 216.495 Q2074.76 214.805 2074.76 211.68 Q2074.76 208.578 2072.98 206.888 Q2071.2 205.198 2067.94 205.198 L2062.06 205.198 M2057.38 201.356 L2067.94 201.356 Q2073.75 201.356 2076.71 203.995 Q2079.69 206.61 2079.69 211.68 Q2079.69 216.795 2076.71 219.411 Q2073.75 222.027 2067.94 222.027 L2062.06 222.027 L2062.06 235.916 L2057.38 235.916 L2057.38 201.356 Z" fill="#000000" fill-rule="nonzero" fill-opacity="1" /><path clip-path="url(#clip380)" d="M2109.53 230.985 L2109.53 221.703 L2101.89 221.703 L2101.89 217.86 L2114.16 217.86 L2114.16 232.698 Q2111.45 234.619 2108.19 235.615 Q2104.93 236.587 2101.22 236.587 Q2093.12 236.587 2088.54 231.865 Q2083.98 227.119 2083.98 218.67 Q2083.98 210.198 2088.54 205.476 Q2093.12 200.731 2101.22 200.731 Q2104.6 200.731 2107.63 201.564 Q2110.69 202.397 2113.26 204.018 L2113.26 208.995 Q2110.67 206.796 2107.75 205.684 Q2104.83 204.573 2101.62 204.573 Q2095.27 204.573 2092.08 208.115 Q2088.91 211.657 2088.91 218.67 Q2088.91 225.661 2092.08 229.203 Q2095.27 232.744 2101.62 232.744 Q2104.09 232.744 2106.04 232.328 Q2107.98 231.888 2109.53 230.985 Z" fill="#000000" fill-rule="nonzero" fill-opacity="1" /><polyline clip-path="url(#clip380)" style="stroke:#e26f46; stroke-linecap:round; stroke-linejoin:round; stroke-width:4; stroke-opacity:1; fill:none" points="1772.84,270.476 1912.92,270.476 "/>
<path clip-path="url(#clip380)" d="M1936.27 253.196 L1940.95 253.196 L1940.95 283.821 L1957.77 283.821 L1957.77 287.756 L1936.27 287.756 L1936.27 253.196 Z" fill="#000000" fill-rule="nonzero" fill-opacity="1" /><path clip-path="url(#clip380)" d="M1962.68 253.196 L1969.65 253.196 L1978.47 276.714 L1987.33 253.196 L1994.3 253.196 L1994.3 287.756 L1989.74 287.756 L1989.74 257.409 L1980.83 281.112 L1976.13 281.112 L1967.22 257.409 L1967.22 287.756 L1962.68 287.756 L1962.68 253.196 Z" fill="#000000" fill-rule="nonzero" fill-opacity="1" /><path clip-path="url(#clip380)" d="M2023.1 295.626 L2023.1 298.936 L1998.47 298.936 L1998.47 295.626 L2023.1 295.626 Z" fill="#000000" fill-rule="nonzero" fill-opacity="1" /><path clip-path="url(#clip380)" d="M2038.84 257.802 L2032.5 275.001 L2045.2 275.001 L2038.84 257.802 M2036.2 253.196 L2041.5 253.196 L2054.67 287.756 L2049.81 287.756 L2046.66 278.89 L2031.08 278.89 L2027.94 287.756 L2023 287.756 L2036.2 253.196 Z" fill="#000000" fill-rule="nonzero" fill-opacity="1" /><path clip-path="url(#clip380)" d="M2081.08 272.108 L2081.08 287.756 L2076.82 287.756 L2076.82 272.247 Q2076.82 268.566 2075.39 266.737 Q2073.95 264.909 2071.08 264.909 Q2067.63 264.909 2065.64 267.108 Q2063.65 269.307 2063.65 273.103 L2063.65 287.756 L2059.37 287.756 L2059.37 261.83 L2063.65 261.83 L2063.65 265.858 Q2065.18 263.52 2067.24 262.362 Q2069.32 261.205 2072.03 261.205 Q2076.5 261.205 2078.79 263.983 Q2081.08 266.737 2081.08 272.108 Z" fill="#000000" fill-rule="nonzero" fill-opacity="1" /><path clip-path="url(#clip380)" d="M2106.64 265.765 L2106.64 251.737 L2110.9 251.737 L2110.9 287.756 L2106.64 287.756 L2106.64 283.867 Q2105.3 286.182 2103.24 287.316 Q2101.2 288.427 2098.33 288.427 Q2093.63 288.427 2090.67 284.677 Q2087.73 280.927 2087.73 274.816 Q2087.73 268.705 2090.67 264.955 Q2093.63 261.205 2098.33 261.205 Q2101.2 261.205 2103.24 262.339 Q2105.3 263.45 2106.64 265.765 M2092.12 274.816 Q2092.12 279.515 2094.05 282.2 Q2095.99 284.862 2099.37 284.862 Q2102.75 284.862 2104.69 282.2 Q2106.64 279.515 2106.64 274.816 Q2106.64 270.117 2104.69 267.455 Q2102.75 264.77 2099.37 264.77 Q2095.99 264.77 2094.05 267.455 Q2092.12 270.117 2092.12 274.816 Z" fill="#000000" fill-rule="nonzero" fill-opacity="1" /><path clip-path="url(#clip380)" d="M2134.69 265.811 Q2133.98 265.395 2133.12 265.21 Q2132.29 265.001 2131.27 265.001 Q2127.66 265.001 2125.71 267.362 Q2123.79 269.7 2123.79 274.098 L2123.79 287.756 L2119.51 287.756 L2119.51 261.83 L2123.79 261.83 L2123.79 265.858 Q2125.13 263.497 2127.29 262.362 Q2129.44 261.205 2132.52 261.205 Q2132.96 261.205 2133.49 261.274 Q2134.02 261.321 2134.67 261.436 L2134.69 265.811 Z" fill="#000000" fill-rule="nonzero" fill-opacity="1" /><path clip-path="url(#clip380)" d="M2160.3 273.728 L2160.3 275.811 L2140.71 275.811 Q2140.99 280.209 2143.35 282.524 Q2145.74 284.816 2149.97 284.816 Q2152.43 284.816 2154.72 284.214 Q2157.03 283.612 2159.3 282.409 L2159.3 286.436 Q2157.01 287.408 2154.6 287.918 Q2152.19 288.427 2149.72 288.427 Q2143.51 288.427 2139.88 284.816 Q2136.27 281.205 2136.27 275.047 Q2136.27 268.682 2139.69 264.955 Q2143.14 261.205 2148.98 261.205 Q2154.21 261.205 2157.24 264.585 Q2160.3 267.941 2160.3 273.728 M2156.04 272.478 Q2155.99 268.983 2154.07 266.899 Q2152.17 264.816 2149.02 264.816 Q2145.46 264.816 2143.31 266.83 Q2141.18 268.844 2140.85 272.501 L2156.04 272.478 Z" fill="#000000" fill-rule="nonzero" fill-opacity="1" /><path clip-path="url(#clip380)" d="M2167.29 261.83 L2171.55 261.83 L2171.55 287.756 L2167.29 287.756 L2167.29 261.83 M2167.29 251.737 L2171.55 251.737 L2171.55 257.131 L2167.29 257.131 L2167.29 251.737 Z" fill="#000000" fill-rule="nonzero" fill-opacity="1" /><path clip-path="url(#clip380)" d="M2200.16 295.626 L2200.16 298.936 L2175.53 298.936 L2175.53 295.626 L2200.16 295.626 Z" fill="#000000" fill-rule="nonzero" fill-opacity="1" /><path clip-path="url(#clip380)" d="M2215.94 274.723 Q2210.78 274.723 2208.79 275.904 Q2206.8 277.084 2206.8 279.932 Q2206.8 282.2 2208.28 283.543 Q2209.79 284.862 2212.36 284.862 Q2215.9 284.862 2218.03 282.362 Q2220.18 279.839 2220.18 275.672 L2220.18 274.723 L2215.94 274.723 M2224.44 272.964 L2224.44 287.756 L2220.18 287.756 L2220.18 283.821 Q2218.72 286.182 2216.55 287.316 Q2214.37 288.427 2211.22 288.427 Q2207.24 288.427 2204.88 286.205 Q2202.54 283.959 2202.54 280.209 Q2202.54 275.834 2205.46 273.612 Q2208.4 271.39 2214.21 271.39 L2220.18 271.39 L2220.18 270.973 Q2220.18 268.034 2218.24 266.436 Q2216.31 264.816 2212.82 264.816 Q2210.6 264.816 2208.49 265.348 Q2206.38 265.881 2204.44 266.946 L2204.44 263.01 Q2206.78 262.108 2208.98 261.668 Q2211.18 261.205 2213.26 261.205 Q2218.88 261.205 2221.66 264.122 Q2224.44 267.038 2224.44 272.964 Z" fill="#000000" fill-rule="nonzero" fill-opacity="1" /><path clip-path="url(#clip380)" d="M2233.21 251.737 L2237.47 251.737 L2237.47 287.756 L2233.21 287.756 L2233.21 251.737 Z" fill="#000000" fill-rule="nonzero" fill-opacity="1" /><path clip-path="url(#clip380)" d="M2250.6 254.469 L2250.6 261.83 L2259.37 261.83 L2259.37 265.14 L2250.6 265.14 L2250.6 279.214 Q2250.6 282.385 2251.45 283.288 Q2252.33 284.191 2254.99 284.191 L2259.37 284.191 L2259.37 287.756 L2254.99 287.756 Q2250.06 287.756 2248.19 285.927 Q2246.31 284.075 2246.31 279.214 L2246.31 265.14 L2243.19 265.14 L2243.19 261.83 L2246.31 261.83 L2246.31 254.469 L2250.6 254.469 Z" fill="#000000" fill-rule="nonzero" fill-opacity="1" /><polyline clip-path="url(#clip380)" style="stroke:#3da44d; stroke-linecap:round; stroke-linejoin:round; stroke-width:4; stroke-opacity:1; fill:none" points="1772.84,322.316 1912.92,322.316 "/>
<path clip-path="url(#clip380)" d="M1936.27 305.036 L1940.95 305.036 L1940.95 335.661 L1957.77 335.661 L1957.77 339.596 L1936.27 339.596 L1936.27 305.036 Z" fill="#000000" fill-rule="nonzero" fill-opacity="1" /><path clip-path="url(#clip380)" d="M1962.68 305.036 L1969.65 305.036 L1978.47 328.554 L1987.33 305.036 L1994.3 305.036 L1994.3 339.596 L1989.74 339.596 L1989.74 309.249 L1980.83 332.952 L1976.13 332.952 L1967.22 309.249 L1967.22 339.596 L1962.68 339.596 L1962.68 305.036 Z" fill="#000000" fill-rule="nonzero" fill-opacity="1" /><path clip-path="url(#clip380)" d="M2023.1 347.466 L2023.1 350.776 L1998.47 350.776 L1998.47 347.466 L2023.1 347.466 Z" fill="#000000" fill-rule="nonzero" fill-opacity="1" /><path clip-path="url(#clip380)" d="M2038.84 309.642 L2032.5 326.841 L2045.2 326.841 L2038.84 309.642 M2036.2 305.036 L2041.5 305.036 L2054.67 339.596 L2049.81 339.596 L2046.66 330.73 L2031.08 330.73 L2027.94 339.596 L2023 339.596 L2036.2 305.036 Z" fill="#000000" fill-rule="nonzero" fill-opacity="1" /><path clip-path="url(#clip380)" d="M2081.08 323.948 L2081.08 339.596 L2076.82 339.596 L2076.82 324.087 Q2076.82 320.406 2075.39 318.577 Q2073.95 316.749 2071.08 316.749 Q2067.63 316.749 2065.64 318.948 Q2063.65 321.147 2063.65 324.943 L2063.65 339.596 L2059.37 339.596 L2059.37 313.67 L2063.65 313.67 L2063.65 317.698 Q2065.18 315.36 2067.24 314.202 Q2069.32 313.045 2072.03 313.045 Q2076.5 313.045 2078.79 315.823 Q2081.08 318.577 2081.08 323.948 Z" fill="#000000" fill-rule="nonzero" fill-opacity="1" /><path clip-path="url(#clip380)" d="M2106.64 317.605 L2106.64 303.577 L2110.9 303.577 L2110.9 339.596 L2106.64 339.596 L2106.64 335.707 Q2105.3 338.022 2103.24 339.156 Q2101.2 340.267 2098.33 340.267 Q2093.63 340.267 2090.67 336.517 Q2087.73 332.767 2087.73 326.656 Q2087.73 320.545 2090.67 316.795 Q2093.63 313.045 2098.33 313.045 Q2101.2 313.045 2103.24 314.179 Q2105.3 315.29 2106.64 317.605 M2092.12 326.656 Q2092.12 331.355 2094.05 334.04 Q2095.99 336.702 2099.37 336.702 Q2102.75 336.702 2104.69 334.04 Q2106.64 331.355 2106.64 326.656 Q2106.64 321.957 2104.69 319.295 Q2102.75 316.61 2099.37 316.61 Q2095.99 316.61 2094.05 319.295 Q2092.12 321.957 2092.12 326.656 Z" fill="#000000" fill-rule="nonzero" fill-opacity="1" /><path clip-path="url(#clip380)" d="M2134.69 317.651 Q2133.98 317.235 2133.12 317.05 Q2132.29 316.841 2131.27 316.841 Q2127.66 316.841 2125.71 319.202 Q2123.79 321.54 2123.79 325.938 L2123.79 339.596 L2119.51 339.596 L2119.51 313.67 L2123.79 313.67 L2123.79 317.698 Q2125.13 315.337 2127.29 314.202 Q2129.44 313.045 2132.52 313.045 Q2132.96 313.045 2133.49 313.114 Q2134.02 313.161 2134.67 313.276 L2134.69 317.651 Z" fill="#000000" fill-rule="nonzero" fill-opacity="1" /><path clip-path="url(#clip380)" d="M2160.3 325.568 L2160.3 327.651 L2140.71 327.651 Q2140.99 332.049 2143.35 334.364 Q2145.74 336.656 2149.97 336.656 Q2152.43 336.656 2154.72 336.054 Q2157.03 335.452 2159.3 334.249 L2159.3 338.276 Q2157.01 339.248 2154.6 339.758 Q2152.19 340.267 2149.72 340.267 Q2143.51 340.267 2139.88 336.656 Q2136.27 333.045 2136.27 326.887 Q2136.27 320.522 2139.69 316.795 Q2143.14 313.045 2148.98 313.045 Q2154.21 313.045 2157.24 316.425 Q2160.3 319.781 2160.3 325.568 M2156.04 324.318 Q2155.99 320.823 2154.07 318.739 Q2152.17 316.656 2149.02 316.656 Q2145.46 316.656 2143.31 318.67 Q2141.18 320.684 2140.85 324.341 L2156.04 324.318 Z" fill="#000000" fill-rule="nonzero" fill-opacity="1" /><path clip-path="url(#clip380)" d="M2167.29 313.67 L2171.55 313.67 L2171.55 339.596 L2167.29 339.596 L2167.29 313.67 M2167.29 303.577 L2171.55 303.577 L2171.55 308.971 L2167.29 308.971 L2167.29 303.577 Z" fill="#000000" fill-rule="nonzero" fill-opacity="1" /><polyline clip-path="url(#clip380)" style="stroke:#c271d2; stroke-linecap:round; stroke-linejoin:round; stroke-width:4; stroke-opacity:1; fill:none" points="1772.84,374.156 1912.92,374.156 "/>
<path clip-path="url(#clip380)" d="M1936.27 356.876 L1940.95 356.876 L1940.95 387.501 L1957.77 387.501 L1957.77 391.436 L1936.27 391.436 L1936.27 356.876 Z" fill="#000000" fill-rule="nonzero" fill-opacity="1" /><path clip-path="url(#clip380)" d="M1962.68 356.876 L1969.65 356.876 L1978.47 380.394 L1987.33 356.876 L1994.3 356.876 L1994.3 391.436 L1989.74 391.436 L1989.74 361.089 L1980.83 384.792 L1976.13 384.792 L1967.22 361.089 L1967.22 391.436 L1962.68 391.436 L1962.68 356.876 Z" fill="#000000" fill-rule="nonzero" fill-opacity="1" /><path clip-path="url(#clip380)" d="M2023.1 399.306 L2023.1 402.616 L1998.47 402.616 L1998.47 399.306 L2023.1 399.306 Z" fill="#000000" fill-rule="nonzero" fill-opacity="1" /><path clip-path="url(#clip380)" d="M2048 358.01 L2048 362.57 Q2045.34 361.297 2042.98 360.672 Q2040.62 360.047 2038.42 360.047 Q2034.6 360.047 2032.52 361.528 Q2030.46 363.01 2030.46 365.741 Q2030.46 368.033 2031.82 369.214 Q2033.21 370.371 2037.06 371.089 L2039.88 371.667 Q2045.11 372.663 2047.59 375.186 Q2050.09 377.686 2050.09 381.899 Q2050.09 386.922 2046.71 389.514 Q2043.35 392.107 2036.85 392.107 Q2034.39 392.107 2031.62 391.551 Q2028.86 390.996 2025.9 389.908 L2025.9 385.093 Q2028.75 386.69 2031.48 387.501 Q2034.21 388.311 2036.85 388.311 Q2040.85 388.311 2043.03 386.737 Q2045.2 385.163 2045.2 382.246 Q2045.2 379.7 2043.63 378.264 Q2042.08 376.829 2038.51 376.112 L2035.67 375.556 Q2030.44 374.515 2028.1 372.292 Q2025.76 370.07 2025.76 366.112 Q2025.76 361.528 2028.98 358.89 Q2032.22 356.251 2037.89 356.251 Q2040.32 356.251 2042.84 356.691 Q2045.37 357.13 2048 358.01 Z" fill="#000000" fill-rule="nonzero" fill-opacity="1" /><path clip-path="url(#clip380)" d="M2062.06 360.718 L2062.06 373.704 L2067.94 373.704 Q2071.2 373.704 2072.98 372.015 Q2074.76 370.325 2074.76 367.2 Q2074.76 364.098 2072.98 362.408 Q2071.2 360.718 2067.94 360.718 L2062.06 360.718 M2057.38 356.876 L2067.94 356.876 Q2073.75 356.876 2076.71 359.515 Q2079.69 362.13 2079.69 367.2 Q2079.69 372.315 2076.71 374.931 Q2073.75 377.547 2067.94 377.547 L2062.06 377.547 L2062.06 391.436 L2057.38 391.436 L2057.38 356.876 Z" fill="#000000" fill-rule="nonzero" fill-opacity="1" /><path clip-path="url(#clip380)" d="M2109.53 386.505 L2109.53 377.223 L2101.89 377.223 L2101.89 373.38 L2114.16 373.38 L2114.16 388.218 Q2111.45 390.139 2108.19 391.135 Q2104.93 392.107 2101.22 392.107 Q2093.12 392.107 2088.54 387.385 Q2083.98 382.639 2083.98 374.19 Q2083.98 365.718 2088.54 360.996 Q2093.12 356.251 2101.22 356.251 Q2104.6 356.251 2107.63 357.084 Q2110.69 357.917 2113.26 359.538 L2113.26 364.515 Q2110.67 362.316 2107.75 361.204 Q2104.83 360.093 2101.62 360.093 Q2095.27 360.093 2092.08 363.635 Q2088.91 367.177 2088.91 374.19 Q2088.91 381.181 2092.08 384.723 Q2095.27 388.264 2101.62 388.264 Q2104.09 388.264 2106.04 387.848 Q2107.98 387.408 2109.53 386.505 Z" fill="#000000" fill-rule="nonzero" fill-opacity="1" /><path clip-path="url(#clip380)" d="M2142.22 399.306 L2142.22 402.616 L2117.59 402.616 L2117.59 399.306 L2142.22 399.306 Z" fill="#000000" fill-rule="nonzero" fill-opacity="1" /><path clip-path="url(#clip380)" d="M2158 378.403 Q2152.84 378.403 2150.85 379.584 Q2148.86 380.764 2148.86 383.612 Q2148.86 385.88 2150.34 387.223 Q2151.85 388.542 2154.42 388.542 Q2157.96 388.542 2160.09 386.042 Q2162.24 383.519 2162.24 379.352 L2162.24 378.403 L2158 378.403 M2166.5 376.644 L2166.5 391.436 L2162.24 391.436 L2162.24 387.501 Q2160.78 389.862 2158.61 390.996 Q2156.43 392.107 2153.28 392.107 Q2149.3 392.107 2146.94 389.885 Q2144.6 387.639 2144.6 383.889 Q2144.6 379.514 2147.52 377.292 Q2150.46 375.07 2156.27 375.07 L2162.24 375.07 L2162.24 374.653 Q2162.24 371.714 2160.3 370.116 Q2158.37 368.496 2154.88 368.496 Q2152.66 368.496 2150.55 369.028 Q2148.44 369.561 2146.5 370.626 L2146.5 366.69 Q2148.84 365.788 2151.04 365.348 Q2153.24 364.885 2155.32 364.885 Q2160.94 364.885 2163.72 367.802 Q2166.5 370.718 2166.5 376.644 Z" fill="#000000" fill-rule="nonzero" fill-opacity="1" /><path clip-path="url(#clip380)" d="M2175.27 355.417 L2179.53 355.417 L2179.53 391.436 L2175.27 391.436 L2175.27 355.417 Z" fill="#000000" fill-rule="nonzero" fill-opacity="1" /><path clip-path="url(#clip380)" d="M2192.66 358.149 L2192.66 365.51 L2201.43 365.51 L2201.43 368.82 L2192.66 368.82 L2192.66 382.894 Q2192.66 386.065 2193.51 386.968 Q2194.39 387.871 2197.05 387.871 L2201.43 387.871 L2201.43 391.436 L2197.05 391.436 Q2192.12 391.436 2190.25 389.607 Q2188.37 387.755 2188.37 382.894 L2188.37 368.82 L2185.25 368.82 L2185.25 365.51 L2188.37 365.51 L2188.37 358.149 L2192.66 358.149 Z" fill="#000000" fill-rule="nonzero" fill-opacity="1" /><polyline clip-path="url(#clip380)" style="stroke:#ac8d18; stroke-linecap:round; stroke-linejoin:round; stroke-width:4; stroke-opacity:1; fill:none" points="1772.84,425.996 1912.92,425.996 "/>
<path clip-path="url(#clip380)" d="M1936.27 408.716 L1940.95 408.716 L1940.95 439.341 L1957.77 439.341 L1957.77 443.276 L1936.27 443.276 L1936.27 408.716 Z" fill="#000000" fill-rule="nonzero" fill-opacity="1" /><path clip-path="url(#clip380)" d="M1962.68 408.716 L1969.65 408.716 L1978.47 432.234 L1987.33 408.716 L1994.3 408.716 L1994.3 443.276 L1989.74 443.276 L1989.74 412.929 L1980.83 436.632 L1976.13 436.632 L1967.22 412.929 L1967.22 443.276 L1962.68 443.276 L1962.68 408.716 Z" fill="#000000" fill-rule="nonzero" fill-opacity="1" /><path clip-path="url(#clip380)" d="M2023.1 451.146 L2023.1 454.456 L1998.47 454.456 L1998.47 451.146 L2023.1 451.146 Z" fill="#000000" fill-rule="nonzero" fill-opacity="1" /><path clip-path="url(#clip380)" d="M2031.32 409.989 L2031.32 417.35 L2040.09 417.35 L2040.09 420.66 L2031.32 420.66 L2031.32 434.734 Q2031.32 437.905 2032.17 438.808 Q2033.05 439.711 2035.71 439.711 L2040.09 439.711 L2040.09 443.276 L2035.71 443.276 Q2030.78 443.276 2028.91 441.447 Q2027.03 439.595 2027.03 434.734 L2027.03 420.66 L2023.91 420.66 L2023.91 417.35 L2027.03 417.35 L2027.03 409.989 L2031.32 409.989 Z" fill="#000000" fill-rule="nonzero" fill-opacity="1" /><path clip-path="url(#clip380)" d="M2067.87 429.248 L2067.87 431.331 L2048.28 431.331 Q2048.56 435.729 2050.92 438.044 Q2053.31 440.336 2057.54 440.336 Q2060 440.336 2062.29 439.734 Q2064.6 439.132 2066.87 437.929 L2066.87 441.956 Q2064.58 442.928 2062.17 443.438 Q2059.76 443.947 2057.29 443.947 Q2051.08 443.947 2047.45 440.336 Q2043.84 436.725 2043.84 430.567 Q2043.84 424.202 2047.26 420.475 Q2050.71 416.725 2056.55 416.725 Q2061.78 416.725 2064.81 420.105 Q2067.87 423.461 2067.87 429.248 M2063.61 427.998 Q2063.56 424.503 2061.64 422.419 Q2059.74 420.336 2056.59 420.336 Q2053.03 420.336 2050.88 422.35 Q2048.75 424.364 2048.42 428.021 L2063.61 427.998 Z" fill="#000000" fill-rule="nonzero" fill-opacity="1" /><path clip-path="url(#clip380)" d="M2091.38 418.114 L2091.38 422.142 Q2089.58 421.216 2087.63 420.753 Q2085.69 420.29 2083.61 420.29 Q2080.44 420.29 2078.84 421.262 Q2077.26 422.234 2077.26 424.179 Q2077.26 425.66 2078.4 426.517 Q2079.53 427.35 2082.96 428.114 L2084.42 428.438 Q2088.95 429.41 2090.85 431.192 Q2092.77 432.952 2092.77 436.123 Q2092.77 439.734 2089.9 441.841 Q2087.06 443.947 2082.06 443.947 Q2079.97 443.947 2077.7 443.53 Q2075.46 443.137 2072.96 442.327 L2072.96 437.929 Q2075.32 439.155 2077.61 439.78 Q2079.9 440.382 2082.15 440.382 Q2085.16 440.382 2086.78 439.364 Q2088.4 438.322 2088.4 436.447 Q2088.4 434.711 2087.22 433.785 Q2086.06 432.859 2082.1 432.003 L2080.62 431.655 Q2076.66 430.822 2074.9 429.109 Q2073.14 427.373 2073.14 424.364 Q2073.14 420.706 2075.74 418.716 Q2078.33 416.725 2083.1 416.725 Q2085.46 416.725 2087.54 417.072 Q2089.62 417.419 2091.38 418.114 Z" fill="#000000" fill-rule="nonzero" fill-opacity="1" /><path clip-path="url(#clip380)" d="M2103.77 409.989 L2103.77 417.35 L2112.54 417.35 L2112.54 420.66 L2103.77 420.66 L2103.77 434.734 Q2103.77 437.905 2104.62 438.808 Q2105.5 439.711 2108.17 439.711 L2112.54 439.711 L2112.54 443.276 L2108.17 443.276 Q2103.24 443.276 2101.36 441.447 Q2099.49 439.595 2099.49 434.734 L2099.49 420.66 L2096.36 420.66 L2096.36 417.35 L2099.49 417.35 L2099.49 409.989 L2103.77 409.989 Z" fill="#000000" fill-rule="nonzero" fill-opacity="1" /></svg>
