<?xml version="1.0" encoding="utf-8"?>
<svg xmlns="http://www.w3.org/2000/svg" xmlns:xlink="http://www.w3.org/1999/xlink" width="600" height="400" viewBox="0 0 2400 1600">
<defs>
  <clipPath id="clip970">
    <rect x="0" y="0" width="2400" height="1600"/>
  </clipPath>
</defs>
<path clip-path="url(#clip970)" d="M0 1600 L2400 1600 L2400 0 L0 0  Z" fill="#ffffff" fill-rule="evenodd" fill-opacity="1"/>
<defs>
  <clipPath id="clip971">
    <rect x="480" y="0" width="1681" height="1600"/>
  </clipPath>
</defs>
<path clip-path="url(#clip970)" d="M251.842 1423.18 L2352.76 1423.18 L2352.76 123.472 L251.842 123.472  Z" fill="#ffffff" fill-rule="evenodd" fill-opacity="1"/>
<defs>
  <clipPath id="clip972">
    <rect x="251" y="123" width="2102" height="1301"/>
  </clipPath>
</defs>
<polyline clip-path="url(#clip972)" style="stroke:#000000; stroke-linecap:round; stroke-linejoin:round; stroke-width:2; stroke-opacity:0.1; fill:none" points="309.32,1423.18 309.32,123.472 "/>
<polyline clip-path="url(#clip972)" style="stroke:#000000; stroke-linecap:round; stroke-linejoin:round; stroke-width:2; stroke-opacity:0.1; fill:none" points="804.819,1423.18 804.819,123.472 "/>
<polyline clip-path="url(#clip972)" style="stroke:#000000; stroke-linecap:round; stroke-linejoin:round; stroke-width:2; stroke-opacity:0.1; fill:none" points="1300.32,1423.18 1300.32,123.472 "/>
<polyline clip-path="url(#clip972)" style="stroke:#000000; stroke-linecap:round; stroke-linejoin:round; stroke-width:2; stroke-opacity:0.1; fill:none" points="1795.82,1423.18 1795.82,123.472 "/>
<polyline clip-path="url(#clip972)" style="stroke:#000000; stroke-linecap:round; stroke-linejoin:round; stroke-width:2; stroke-opacity:0.1; fill:none" points="2291.31,1423.18 2291.31,123.472 "/>
<polyline clip-path="url(#clip970)" style="stroke:#000000; stroke-linecap:round; stroke-linejoin:round; stroke-width:4; stroke-opacity:1; fill:none" points="251.842,1423.18 2352.76,1423.18 "/>
<polyline clip-path="url(#clip970)" style="stroke:#000000; stroke-linecap:round; stroke-linejoin:round; stroke-width:4; stroke-opacity:1; fill:none" points="309.32,1423.18 309.32,1404.28 "/>
<polyline clip-path="url(#clip970)" style="stroke:#000000; stroke-linecap:round; stroke-linejoin:round; stroke-width:4; stroke-opacity:1; fill:none" points="804.819,1423.18 804.819,1404.28 "/>
<polyline clip-path="url(#clip970)" style="stroke:#000000; stroke-linecap:round; stroke-linejoin:round; stroke-width:4; stroke-opacity:1; fill:none" points="1300.32,1423.18 1300.32,1404.28 "/>
<polyline clip-path="url(#clip970)" style="stroke:#000000; stroke-linecap:round; stroke-linejoin:round; stroke-width:4; stroke-opacity:1; fill:none" points="1795.82,1423.18 1795.82,1404.28 "/>
<polyline clip-path="url(#clip970)" style="stroke:#000000; stroke-linecap:round; stroke-linejoin:round; stroke-width:4; stroke-opacity:1; fill:none" points="2291.31,1423.18 2291.31,1404.28 "/>
<path clip-path="url(#clip970)" d="M309.32 1454.1 Q305.709 1454.1 303.88 1457.66 Q302.075 1461.2 302.075 1468.33 Q302.075 1475.44 303.88 1479.01 Q305.709 1482.55 309.32 1482.55 Q312.954 1482.55 314.76 1479.01 Q316.589 1475.44 316.589 1468.33 Q316.589 1461.2 314.76 1457.66 Q312.954 1454.1 309.32 1454.1 M309.32 1450.39 Q315.13 1450.39 318.186 1455 Q321.265 1459.58 321.265 1468.33 Q321.265 1477.06 318.186 1481.67 Q315.13 1486.25 309.32 1486.25 Q303.51 1486.25 300.431 1481.67 Q297.376 1477.06 297.376 1468.33 Q297.376 1459.58 300.431 1455 Q303.51 1450.39 309.32 1450.39 Z" fill="#000000" fill-rule="nonzero" fill-opacity="1" /><path clip-path="url(#clip970)" d="M768.511 1481.64 L784.83 1481.64 L784.83 1485.58 L762.886 1485.58 L762.886 1481.64 Q765.548 1478.89 770.131 1474.26 Q774.738 1469.61 775.918 1468.27 Q778.164 1465.74 779.043 1464.01 Q779.946 1462.25 779.946 1460.56 Q779.946 1457.8 778.002 1456.07 Q776.08 1454.33 772.979 1454.33 Q770.779 1454.33 768.326 1455.09 Q765.895 1455.86 763.118 1457.41 L763.118 1452.69 Q765.942 1451.55 768.395 1450.97 Q770.849 1450.39 772.886 1450.39 Q778.256 1450.39 781.451 1453.08 Q784.645 1455.77 784.645 1460.26 Q784.645 1462.39 783.835 1464.31 Q783.048 1466.2 780.941 1468.8 Q780.363 1469.47 777.261 1472.69 Q774.159 1475.88 768.511 1481.64 Z" fill="#000000" fill-rule="nonzero" fill-opacity="1" /><path clip-path="url(#clip970)" d="M794.691 1451.02 L813.048 1451.02 L813.048 1454.96 L798.974 1454.96 L798.974 1463.43 Q799.992 1463.08 801.011 1462.92 Q802.029 1462.73 803.048 1462.73 Q808.835 1462.73 812.214 1465.9 Q815.594 1469.08 815.594 1474.49 Q815.594 1480.07 812.122 1483.17 Q808.65 1486.25 802.33 1486.25 Q800.154 1486.25 797.886 1485.88 Q795.64 1485.51 793.233 1484.77 L793.233 1480.07 Q795.316 1481.2 797.539 1481.76 Q799.761 1482.32 802.238 1482.32 Q806.242 1482.32 808.58 1480.21 Q810.918 1478.1 810.918 1474.49 Q810.918 1470.88 808.58 1468.77 Q806.242 1466.67 802.238 1466.67 Q800.363 1466.67 798.488 1467.08 Q796.636 1467.5 794.691 1468.38 L794.691 1451.02 Z" fill="#000000" fill-rule="nonzero" fill-opacity="1" /><path clip-path="url(#clip970)" d="M834.807 1454.1 Q831.196 1454.1 829.367 1457.66 Q827.562 1461.2 827.562 1468.33 Q827.562 1475.44 829.367 1479.01 Q831.196 1482.55 834.807 1482.55 Q838.441 1482.55 840.247 1479.01 Q842.075 1475.44 842.075 1468.33 Q842.075 1461.2 840.247 1457.66 Q838.441 1454.1 834.807 1454.1 M834.807 1450.39 Q840.617 1450.39 843.673 1455 Q846.751 1459.58 846.751 1468.33 Q846.751 1477.06 843.673 1481.67 Q840.617 1486.25 834.807 1486.25 Q828.997 1486.25 825.918 1481.67 Q822.863 1477.06 822.863 1468.33 Q822.863 1459.58 825.918 1455 Q828.997 1450.39 834.807 1450.39 Z" fill="#000000" fill-rule="nonzero" fill-opacity="1" /><path clip-path="url(#clip970)" d="M1259.94 1451.02 L1278.29 1451.02 L1278.29 1454.96 L1264.22 1454.96 L1264.22 1463.43 Q1265.24 1463.08 1266.25 1462.92 Q1267.27 1462.73 1268.29 1462.73 Q1274.08 1462.73 1277.46 1465.9 Q1280.84 1469.08 1280.84 1474.49 Q1280.84 1480.07 1277.37 1483.17 Q1273.89 1486.25 1267.57 1486.25 Q1265.4 1486.25 1263.13 1485.88 Q1260.88 1485.51 1258.48 1484.77 L1258.48 1480.07 Q1260.56 1481.2 1262.78 1481.76 Q1265 1482.32 1267.48 1482.32 Q1271.49 1482.32 1273.82 1480.21 Q1276.16 1478.1 1276.16 1474.49 Q1276.16 1470.88 1273.82 1468.77 Q1271.49 1466.67 1267.48 1466.67 Q1265.61 1466.67 1263.73 1467.08 Q1261.88 1467.5 1259.94 1468.38 L1259.94 1451.02 Z" fill="#000000" fill-rule="nonzero" fill-opacity="1" /><path clip-path="url(#clip970)" d="M1300.05 1454.1 Q1296.44 1454.1 1294.61 1457.66 Q1292.81 1461.2 1292.81 1468.33 Q1292.81 1475.44 1294.61 1479.01 Q1296.44 1482.55 1300.05 1482.55 Q1303.69 1482.55 1305.49 1479.01 Q1307.32 1475.44 1307.32 1468.33 Q1307.32 1461.2 1305.49 1457.66 Q1303.69 1454.1 1300.05 1454.1 M1300.05 1450.39 Q1305.86 1450.39 1308.92 1455 Q1312 1459.58 1312 1468.33 Q1312 1477.06 1308.92 1481.67 Q1305.86 1486.25 1300.05 1486.25 Q1294.24 1486.25 1291.16 1481.67 Q1288.11 1477.06 1288.11 1468.33 Q1288.11 1459.58 1291.16 1455 Q1294.24 1450.39 1300.05 1450.39 Z" fill="#000000" fill-rule="nonzero" fill-opacity="1" /><path clip-path="url(#clip970)" d="M1330.21 1454.1 Q1326.6 1454.1 1324.77 1457.66 Q1322.97 1461.2 1322.97 1468.33 Q1322.97 1475.44 1324.77 1479.01 Q1326.6 1482.55 1330.21 1482.55 Q1333.85 1482.55 1335.65 1479.01 Q1337.48 1475.44 1337.48 1468.33 Q1337.48 1461.2 1335.65 1457.66 Q1333.85 1454.1 1330.21 1454.1 M1330.21 1450.39 Q1336.02 1450.39 1339.08 1455 Q1342.16 1459.58 1342.16 1468.33 Q1342.16 1477.06 1339.08 1481.67 Q1336.02 1486.25 1330.21 1486.25 Q1324.4 1486.25 1321.32 1481.67 Q1318.27 1477.06 1318.27 1468.33 Q1318.27 1459.58 1321.32 1455 Q1324.4 1450.39 1330.21 1450.39 Z" fill="#000000" fill-rule="nonzero" fill-opacity="1" /><path clip-path="url(#clip970)" d="M1754.09 1451.02 L1776.31 1451.02 L1776.31 1453.01 L1763.77 1485.58 L1758.88 1485.58 L1770.69 1454.96 L1754.09 1454.96 L1754.09 1451.02 Z" fill="#000000" fill-rule="nonzero" fill-opacity="1" /><path clip-path="url(#clip970)" d="M1785.48 1451.02 L1803.84 1451.02 L1803.84 1454.96 L1789.76 1454.96 L1789.76 1463.43 Q1790.78 1463.08 1791.8 1462.92 Q1792.82 1462.73 1793.84 1462.73 Q1799.62 1462.73 1803 1465.9 Q1806.38 1469.08 1806.38 1474.49 Q1806.38 1480.07 1802.91 1483.17 Q1799.44 1486.25 1793.12 1486.25 Q1790.94 1486.25 1788.67 1485.88 Q1786.43 1485.51 1784.02 1484.77 L1784.02 1480.07 Q1786.11 1481.2 1788.33 1481.76 Q1790.55 1482.32 1793.03 1482.32 Q1797.03 1482.32 1799.37 1480.21 Q1801.71 1478.1 1801.71 1474.49 Q1801.71 1470.88 1799.37 1468.77 Q1797.03 1466.67 1793.03 1466.67 Q1791.15 1466.67 1789.28 1467.08 Q1787.42 1467.5 1785.48 1468.38 L1785.48 1451.02 Z" fill="#000000" fill-rule="nonzero" fill-opacity="1" /><path clip-path="url(#clip970)" d="M1825.6 1454.1 Q1821.98 1454.1 1820.16 1457.66 Q1818.35 1461.2 1818.35 1468.33 Q1818.35 1475.44 1820.16 1479.01 Q1821.98 1482.55 1825.6 1482.55 Q1829.23 1482.55 1831.04 1479.01 Q1832.86 1475.44 1832.86 1468.33 Q1832.86 1461.2 1831.04 1457.66 Q1829.23 1454.1 1825.6 1454.1 M1825.6 1450.39 Q1831.41 1450.39 1834.46 1455 Q1837.54 1459.58 1837.54 1468.33 Q1837.54 1477.06 1834.46 1481.67 Q1831.41 1486.25 1825.6 1486.25 Q1819.79 1486.25 1816.71 1481.67 Q1813.65 1477.06 1813.65 1468.33 Q1813.65 1459.58 1816.71 1455 Q1819.79 1450.39 1825.6 1450.39 Z" fill="#000000" fill-rule="nonzero" fill-opacity="1" /><path clip-path="url(#clip970)" d="M2235.84 1481.64 L2243.48 1481.64 L2243.48 1455.28 L2235.17 1456.95 L2235.17 1452.69 L2243.43 1451.02 L2248.11 1451.02 L2248.11 1481.64 L2255.75 1481.64 L2255.75 1485.58 L2235.84 1485.58 L2235.84 1481.64 Z" fill="#000000" fill-rule="nonzero" fill-opacity="1" /><path clip-path="url(#clip970)" d="M2275.19 1454.1 Q2271.58 1454.1 2269.75 1457.66 Q2267.95 1461.2 2267.95 1468.33 Q2267.95 1475.44 2269.75 1479.01 Q2271.58 1482.55 2275.19 1482.55 Q2278.83 1482.55 2280.63 1479.01 Q2282.46 1475.44 2282.46 1468.33 Q2282.46 1461.2 2280.63 1457.66 Q2278.83 1454.1 2275.19 1454.1 M2275.19 1450.39 Q2281 1450.39 2284.06 1455 Q2287.14 1459.58 2287.14 1468.33 Q2287.14 1477.06 2284.06 1481.67 Q2281 1486.25 2275.19 1486.25 Q2269.38 1486.25 2266.3 1481.67 Q2263.25 1477.06 2263.25 1468.33 Q2263.25 1459.58 2266.3 1455 Q2269.38 1450.39 2275.19 1450.39 Z" fill="#000000" fill-rule="nonzero" fill-opacity="1" /><path clip-path="url(#clip970)" d="M2305.35 1454.1 Q2301.74 1454.1 2299.91 1457.66 Q2298.11 1461.2 2298.11 1468.33 Q2298.11 1475.44 2299.91 1479.01 Q2301.74 1482.55 2305.35 1482.55 Q2308.99 1482.55 2310.79 1479.01 Q2312.62 1475.44 2312.62 1468.33 Q2312.62 1461.2 2310.79 1457.66 Q2308.99 1454.1 2305.35 1454.1 M2305.35 1450.39 Q2311.16 1450.39 2314.22 1455 Q2317.3 1459.58 2317.3 1468.33 Q2317.3 1477.06 2314.22 1481.67 Q2311.16 1486.25 2305.35 1486.25 Q2299.54 1486.25 2296.46 1481.67 Q2293.41 1477.06 2293.41 1468.33 Q2293.41 1459.58 2296.46 1455 Q2299.54 1450.39 2305.35 1450.39 Z" fill="#000000" fill-rule="nonzero" fill-opacity="1" /><path clip-path="url(#clip970)" d="M2335.52 1454.1 Q2331.9 1454.1 2330.08 1457.66 Q2328.27 1461.2 2328.27 1468.33 Q2328.27 1475.44 2330.08 1479.01 Q2331.9 1482.55 2335.52 1482.55 Q2339.15 1482.55 2340.96 1479.01 Q2342.78 1475.44 2342.78 1468.33 Q2342.78 1461.2 2340.96 1457.66 Q2339.15 1454.1 2335.52 1454.1 M2335.52 1450.39 Q2341.33 1450.39 2344.38 1455 Q2347.46 1459.58 2347.46 1468.33 Q2347.46 1477.06 2344.38 1481.67 Q2341.33 1486.25 2335.52 1486.25 Q2329.71 1486.25 2326.63 1481.67 Q2323.57 1477.06 2323.57 1468.33 Q2323.57 1459.58 2326.63 1455 Q2329.71 1450.39 2335.52 1450.39 Z" fill="#000000" fill-rule="nonzero" fill-opacity="1" /><path clip-path="url(#clip970)" d="M1286.48 1518.52 L1292.37 1518.52 L1292.37 1547.77 L1309.84 1532.4 L1317.32 1532.4 L1298.42 1549.07 L1318.12 1568.04 L1310.48 1568.04 L1292.37 1550.63 L1292.37 1568.04 L1286.48 1568.04 L1286.48 1518.52 Z" fill="#000000" fill-rule="nonzero" fill-opacity="1" /><polyline clip-path="url(#clip972)" style="stroke:#000000; stroke-linecap:round; stroke-linejoin:round; stroke-width:2; stroke-opacity:0.1; fill:none" points="251.842,997.433 2352.76,997.433 "/>
<polyline clip-path="url(#clip972)" style="stroke:#000000; stroke-linecap:round; stroke-linejoin:round; stroke-width:2; stroke-opacity:0.1; fill:none" points="251.842,441.256 2352.76,441.256 "/>
<polyline clip-path="url(#clip970)" style="stroke:#000000; stroke-linecap:round; stroke-linejoin:round; stroke-width:4; stroke-opacity:1; fill:none" points="251.842,1423.18 251.842,123.472 "/>
<polyline clip-path="url(#clip970)" style="stroke:#000000; stroke-linecap:round; stroke-linejoin:round; stroke-width:4; stroke-opacity:1; fill:none" points="251.842,997.433 270.74,997.433 "/>
<polyline clip-path="url(#clip970)" style="stroke:#000000; stroke-linecap:round; stroke-linejoin:round; stroke-width:4; stroke-opacity:1; fill:none" points="251.842,441.256 270.74,441.256 "/>
<path clip-path="url(#clip970)" d="M114.931 1017.23 L122.57 1017.23 L122.57 990.86 L114.26 992.527 L114.26 988.267 L122.524 986.601 L127.2 986.601 L127.2 1017.23 L134.839 1017.23 L134.839 1021.16 L114.931 1021.16 L114.931 1017.23 Z" fill="#000000" fill-rule="nonzero" fill-opacity="1" /><path clip-path="url(#clip970)" d="M154.283 989.679 Q150.672 989.679 148.843 993.244 Q147.038 996.786 147.038 1003.92 Q147.038 1011.02 148.843 1014.59 Q150.672 1018.13 154.283 1018.13 Q157.917 1018.13 159.723 1014.59 Q161.552 1011.02 161.552 1003.92 Q161.552 996.786 159.723 993.244 Q157.917 989.679 154.283 989.679 M154.283 985.976 Q160.093 985.976 163.149 990.582 Q166.227 995.166 166.227 1003.92 Q166.227 1012.64 163.149 1017.25 Q160.093 1021.83 154.283 1021.83 Q148.473 1021.83 145.394 1017.25 Q142.339 1012.64 142.339 1003.92 Q142.339 995.166 145.394 990.582 Q148.473 985.976 154.283 985.976 Z" fill="#000000" fill-rule="nonzero" fill-opacity="1" /><path clip-path="url(#clip970)" d="M166.227 980.077 L190.339 980.077 L190.339 983.274 L166.227 983.274 L166.227 980.077 Z" fill="#000000" fill-rule="nonzero" fill-opacity="1" /><path clip-path="url(#clip970)" d="M210.05 978.61 Q212.777 979.193 214.3 981.036 Q215.842 982.879 215.842 985.588 Q215.842 989.744 212.984 992.02 Q210.125 994.296 204.859 994.296 Q203.091 994.296 201.21 993.938 Q199.348 993.6 197.354 992.904 L197.354 989.236 Q198.934 990.158 200.815 990.628 Q202.696 991.098 204.746 991.098 Q208.319 991.098 210.181 989.688 Q212.062 988.277 212.062 985.588 Q212.062 983.105 210.313 981.713 Q208.583 980.303 205.479 980.303 L202.207 980.303 L202.207 977.181 L205.63 977.181 Q208.432 977.181 209.918 976.071 Q211.404 974.943 211.404 972.836 Q211.404 970.673 209.861 969.526 Q208.338 968.36 205.479 968.36 Q203.918 968.36 202.132 968.698 Q200.345 969.037 198.201 969.752 L198.201 966.366 Q200.364 965.764 202.244 965.463 Q204.144 965.163 205.818 965.163 Q210.144 965.163 212.664 967.137 Q215.184 969.093 215.184 972.441 Q215.184 974.773 213.849 976.391 Q212.513 977.989 210.05 978.61 Z" fill="#000000" fill-rule="nonzero" fill-opacity="1" /><path clip-path="url(#clip970)" d="M145.137 461.049 L152.776 461.049 L152.776 434.683 L144.465 436.35 L144.465 432.09 L152.729 430.424 L157.405 430.424 L157.405 461.049 L165.044 461.049 L165.044 464.984 L145.137 464.984 L145.137 461.049 Z" fill="#000000" fill-rule="nonzero" fill-opacity="1" /><path clip-path="url(#clip970)" d="M184.488 433.503 Q180.877 433.503 179.049 437.067 Q177.243 440.609 177.243 447.739 Q177.243 454.845 179.049 458.41 Q180.877 461.951 184.488 461.951 Q188.123 461.951 189.928 458.41 Q191.757 454.845 191.757 447.739 Q191.757 440.609 189.928 437.067 Q188.123 433.503 184.488 433.503 M184.488 429.799 Q190.299 429.799 193.354 434.405 Q196.433 438.989 196.433 447.739 Q196.433 456.465 193.354 461.072 Q190.299 465.655 184.488 465.655 Q178.678 465.655 175.6 461.072 Q172.544 456.465 172.544 447.739 Q172.544 438.989 175.6 434.405 Q178.678 429.799 184.488 429.799 Z" fill="#000000" fill-rule="nonzero" fill-opacity="1" /><path clip-path="url(#clip970)" d="M206.138 411.995 Q203.204 411.995 201.718 414.891 Q200.251 417.769 200.251 423.562 Q200.251 429.336 201.718 432.232 Q203.204 435.11 206.138 435.11 Q209.09 435.11 210.557 432.232 Q212.043 429.336 212.043 423.562 Q212.043 417.769 210.557 414.891 Q209.09 411.995 206.138 411.995 M206.138 408.986 Q210.858 408.986 213.341 412.728 Q215.842 416.452 215.842 423.562 Q215.842 430.652 213.341 434.395 Q210.858 438.119 206.138 438.119 Q201.417 438.119 198.915 434.395 Q196.433 430.652 196.433 423.562 Q196.433 416.452 198.915 412.728 Q201.417 408.986 206.138 408.986 Z" fill="#000000" fill-rule="nonzero" fill-opacity="1" /><path clip-path="url(#clip970)" d="M32.4621 801.797 Q32.4621 806.507 36.1542 809.244 Q39.8145 811.982 46.212 811.982 Q52.6095 811.982 56.3017 809.276 Q59.9619 806.539 59.9619 801.797 Q59.9619 797.118 56.2698 794.381 Q52.5777 791.643 46.212 791.643 Q39.8781 791.643 36.186 794.381 Q32.4621 797.118 32.4621 801.797 M27.4968 801.797 Q27.4968 794.158 32.4621 789.797 Q37.4273 785.437 46.212 785.437 Q54.9649 785.437 59.9619 789.797 Q64.9272 794.158 64.9272 801.797 Q64.9272 809.467 59.9619 813.828 Q54.9649 818.156 46.212 818.156 Q37.4273 818.156 32.4621 813.828 Q27.4968 809.467 27.4968 801.797 Z" fill="#000000" fill-rule="nonzero" fill-opacity="1" /><path clip-path="url(#clip970)" d="M46.212 750.139 Q39.7508 750.139 36.0905 752.812 Q32.3984 755.454 32.3984 760.101 Q32.3984 764.748 36.0905 767.422 Q39.7508 770.064 46.212 770.064 Q52.6732 770.064 56.3653 767.422 Q60.0256 764.748 60.0256 760.101 Q60.0256 755.454 56.3653 752.812 Q52.6732 750.139 46.212 750.139 M33.7671 770.064 Q30.5842 768.218 29.0564 765.417 Q27.4968 762.584 27.4968 758.669 Q27.4968 752.176 32.6531 748.134 Q37.8093 744.06 46.212 744.06 Q54.6147 744.06 59.771 748.134 Q64.9272 752.176 64.9272 758.669 Q64.9272 762.584 63.3994 765.417 Q61.8398 768.218 58.657 770.064 L64.0042 770.064 L64.0042 775.952 L14.479 775.952 L14.479 770.064 L33.7671 770.064 Z" fill="#000000" fill-rule="nonzero" fill-opacity="1" /><path clip-path="url(#clip970)" d="M28.3562 734.352 L28.3562 728.495 L64.6407 728.495 Q71.452 728.495 74.5076 731.105 Q77.5631 733.684 77.5631 739.445 L77.5631 741.673 L72.5979 741.673 L72.5979 740.113 Q72.5979 736.771 71.0383 735.561 Q69.5105 734.352 64.6407 734.352 L28.3562 734.352 M14.479 734.352 L14.479 728.495 L21.895 728.495 L21.895 734.352 L14.479 734.352 Z" fill="#000000" fill-rule="nonzero" fill-opacity="1" /><path clip-path="url(#clip970)" d="M934.396 65.7705 L934.396 89.8329 L926.902 89.8329 L926.902 27.2059 L934.396 27.2059 L934.396 34.0924 Q936.746 30.0415 940.31 28.0971 Q943.916 26.1121 948.898 26.1121 Q957.162 26.1121 962.307 32.6746 Q967.492 39.2371 967.492 49.9314 Q967.492 60.6258 962.307 67.1883 Q957.162 73.7508 948.898 73.7508 Q943.916 73.7508 940.31 71.8063 Q936.746 69.8214 934.396 65.7705 M959.755 49.9314 Q959.755 41.7081 956.352 37.0496 Q952.99 32.3505 947.075 32.3505 Q941.161 32.3505 937.758 37.0496 Q934.396 41.7081 934.396 49.9314 Q934.396 58.1548 937.758 62.8538 Q941.161 67.5124 947.075 67.5124 Q952.99 67.5124 956.352 62.8538 Q959.755 58.1548 959.755 49.9314 Z" fill="#000000" fill-rule="nonzero" fill-opacity="1" /><path clip-path="url(#clip970)" d="M1006.14 34.1734 Q1004.88 33.4443 1003.38 33.1202 Q1001.92 32.7556 1000.14 32.7556 Q993.823 32.7556 990.42 36.8875 Q987.058 40.9789 987.058 48.6757 L987.058 72.576 L979.564 72.576 L979.564 27.2059 L987.058 27.2059 L987.058 34.2544 Q989.407 30.1225 993.175 28.1376 Q996.942 26.1121 1002.33 26.1121 Q1003.1 26.1121 1004.03 26.2337 Q1004.96 26.3147 1006.1 26.5172 L1006.14 34.1734 Z" fill="#000000" fill-rule="nonzero" fill-opacity="1" /><path clip-path="url(#clip970)" d="M1029.71 32.4315 Q1023.72 32.4315 1020.23 37.1306 Q1016.75 41.7891 1016.75 49.9314 Q1016.75 58.0738 1020.19 62.7728 Q1023.68 67.4314 1029.71 67.4314 Q1035.67 67.4314 1039.15 62.7323 Q1042.64 58.0333 1042.64 49.9314 Q1042.64 41.8701 1039.15 37.1711 Q1035.67 32.4315 1029.71 32.4315 M1029.71 26.1121 Q1039.44 26.1121 1044.99 32.4315 Q1050.54 38.7509 1050.54 49.9314 Q1050.54 61.0714 1044.99 67.4314 Q1039.44 73.7508 1029.71 73.7508 Q1019.95 73.7508 1014.4 67.4314 Q1008.89 61.0714 1008.89 49.9314 Q1008.89 38.7509 1014.4 32.4315 Q1019.95 26.1121 1029.71 26.1121 Z" fill="#000000" fill-rule="nonzero" fill-opacity="1" /><path clip-path="url(#clip970)" d="M1095.46 49.9314 Q1095.46 41.7081 1092.06 37.0496 Q1088.69 32.3505 1082.78 32.3505 Q1076.87 32.3505 1073.46 37.0496 Q1070.1 41.7081 1070.1 49.9314 Q1070.1 58.1548 1073.46 62.8538 Q1076.87 67.5124 1082.78 67.5124 Q1088.69 67.5124 1092.06 62.8538 Q1095.46 58.1548 1095.46 49.9314 M1070.1 34.0924 Q1072.45 30.0415 1076.02 28.0971 Q1079.62 26.1121 1084.6 26.1121 Q1092.87 26.1121 1098.01 32.6746 Q1103.2 39.2371 1103.2 49.9314 Q1103.2 60.6258 1098.01 67.1883 Q1092.87 73.7508 1084.6 73.7508 Q1079.62 73.7508 1076.02 71.8063 Q1072.45 69.8214 1070.1 65.7705 L1070.1 72.576 L1062.61 72.576 L1062.61 9.54393 L1070.1 9.54393 L1070.1 34.0924 Z" fill="#000000" fill-rule="nonzero" fill-opacity="1" /><path clip-path="url(#clip970)" d="M1115.55 9.54393 L1123.01 9.54393 L1123.01 72.576 L1115.55 72.576 L1115.55 9.54393 Z" fill="#000000" fill-rule="nonzero" fill-opacity="1" /><path clip-path="url(#clip970)" d="M1177.41 48.0275 L1177.41 51.6733 L1143.14 51.6733 Q1143.63 59.3701 1147.76 63.421 Q1151.93 67.4314 1159.34 67.4314 Q1163.64 67.4314 1167.65 66.3781 Q1171.7 65.3249 1175.67 63.2184 L1175.67 70.267 Q1171.66 71.9684 1167.44 72.8596 Q1163.23 73.7508 1158.9 73.7508 Q1148.04 73.7508 1141.68 67.4314 Q1135.36 61.1119 1135.36 50.3365 Q1135.36 39.1965 1141.36 32.6746 Q1147.39 26.1121 1157.6 26.1121 Q1166.76 26.1121 1172.06 32.0264 Q1177.41 37.9003 1177.41 48.0275 M1169.96 45.84 Q1169.88 39.7232 1166.51 36.0774 Q1163.19 32.4315 1157.68 32.4315 Q1151.44 32.4315 1147.68 35.9558 Q1143.95 39.4801 1143.38 45.8805 L1169.96 45.84 M1151.28 6.22219 L1162.7 21.3726 L1156.51 21.3726 L1143.3 6.22219 L1151.28 6.22219 Z" fill="#000000" fill-rule="nonzero" fill-opacity="1" /><path clip-path="url(#clip970)" d="M1224.97 35.9153 Q1227.76 30.8922 1231.65 28.5022 Q1235.54 26.1121 1240.81 26.1121 Q1247.9 26.1121 1251.74 31.0947 Q1255.59 36.0368 1255.59 45.1919 L1255.59 72.576 L1248.1 72.576 L1248.1 45.4349 Q1248.1 38.913 1245.79 35.7533 Q1243.48 32.5936 1238.74 32.5936 Q1232.95 32.5936 1229.59 36.4419 Q1226.22 40.2903 1226.22 46.9338 L1226.22 72.576 L1218.73 72.576 L1218.73 45.4349 Q1218.73 38.8725 1216.42 35.7533 Q1214.11 32.5936 1209.29 32.5936 Q1203.58 32.5936 1200.22 36.4824 Q1196.85 40.3308 1196.85 46.9338 L1196.85 72.576 L1189.36 72.576 L1189.36 27.2059 L1196.85 27.2059 L1196.85 34.2544 Q1199.41 30.082 1202.97 28.0971 Q1206.54 26.1121 1211.44 26.1121 Q1216.38 26.1121 1219.82 28.6237 Q1223.31 31.1352 1224.97 35.9153 Z" fill="#000000" fill-rule="nonzero" fill-opacity="1" /><path clip-path="url(#clip970)" d="M1309.27 48.0275 L1309.27 51.6733 L1275 51.6733 Q1275.48 59.3701 1279.61 63.421 Q1283.79 67.4314 1291.2 67.4314 Q1295.49 67.4314 1299.5 66.3781 Q1303.55 65.3249 1307.52 63.2184 L1307.52 70.267 Q1303.51 71.9684 1299.3 72.8596 Q1295.09 73.7508 1290.75 73.7508 Q1279.9 73.7508 1273.54 67.4314 Q1267.22 61.1119 1267.22 50.3365 Q1267.22 39.1965 1273.21 32.6746 Q1279.25 26.1121 1289.46 26.1121 Q1298.61 26.1121 1303.92 32.0264 Q1309.27 37.9003 1309.27 48.0275 M1301.81 45.84 Q1301.73 39.7232 1298.37 36.0774 Q1295.05 32.4315 1289.54 32.4315 Q1283.3 32.4315 1279.53 35.9558 Q1275.81 39.4801 1275.24 45.8805 L1301.81 45.84 Z" fill="#000000" fill-rule="nonzero" fill-opacity="1" /><path clip-path="url(#clip970)" d="M1349.78 62.2867 L1358.32 62.2867 L1358.32 72.576 L1349.78 72.576 L1349.78 62.2867 M1349.78 29.6769 L1358.32 29.6769 L1358.32 39.9662 L1349.78 39.9662 L1349.78 29.6769 Z" fill="#000000" fill-rule="nonzero" fill-opacity="1" /><path clip-path="url(#clip970)" d="M1437.52 35.9153 Q1440.31 30.8922 1444.2 28.5022 Q1448.09 26.1121 1453.36 26.1121 Q1460.45 26.1121 1464.29 31.0947 Q1468.14 36.0368 1468.14 45.1919 L1468.14 72.576 L1460.65 72.576 L1460.65 45.4349 Q1460.65 38.913 1458.34 35.7533 Q1456.03 32.5936 1451.29 32.5936 Q1445.5 32.5936 1442.14 36.4419 Q1438.77 40.2903 1438.77 46.9338 L1438.77 72.576 L1431.28 72.576 L1431.28 45.4349 Q1431.28 38.8725 1428.97 35.7533 Q1426.66 32.5936 1421.84 32.5936 Q1416.13 32.5936 1412.77 36.4824 Q1409.41 40.3308 1409.41 46.9338 L1409.41 72.576 L1401.91 72.576 L1401.91 27.2059 L1409.41 27.2059 L1409.41 34.2544 Q1411.96 30.082 1415.52 28.0971 Q1419.09 26.1121 1423.99 26.1121 Q1428.93 26.1121 1432.37 28.6237 Q1435.86 31.1352 1437.52 35.9153 Z" fill="#000000" fill-rule="nonzero" fill-opacity="1" /><path clip-path="url(#clip970)" d="M1512.87 49.3643 Q1512.87 41.2625 1509.5 36.8065 Q1506.18 32.3505 1500.15 32.3505 Q1494.15 32.3505 1490.79 36.8065 Q1487.47 41.2625 1487.47 49.3643 Q1487.47 57.4256 1490.79 61.8816 Q1494.15 66.3376 1500.15 66.3376 Q1506.18 66.3376 1509.5 61.8816 Q1512.87 57.4256 1512.87 49.3643 M1520.32 66.9452 Q1520.32 78.5308 1515.17 84.1616 Q1510.03 89.8329 1499.42 89.8329 Q1495.49 89.8329 1492 89.2252 Q1488.52 88.6581 1485.24 87.4428 L1485.24 80.1917 Q1488.52 81.9741 1491.72 82.8248 Q1494.92 83.6755 1498.24 83.6755 Q1505.57 83.6755 1509.22 79.8271 Q1512.87 76.0193 1512.87 68.282 L1512.87 64.5957 Q1510.56 68.6061 1506.95 70.5911 Q1503.35 72.576 1498.32 72.576 Q1489.98 72.576 1484.87 66.2161 Q1479.77 59.8562 1479.77 49.3643 Q1479.77 38.832 1484.87 32.472 Q1489.98 26.1121 1498.32 26.1121 Q1503.35 26.1121 1506.95 28.0971 Q1510.56 30.082 1512.87 34.0924 L1512.87 27.2059 L1520.32 27.2059 L1520.32 66.9452 Z" fill="#000000" fill-rule="nonzero" fill-opacity="1" /><path clip-path="url(#clip970)" d="M1573.39 45.1919 L1573.39 72.576 L1565.93 72.576 L1565.93 45.4349 Q1565.93 38.994 1563.42 35.7938 Q1560.91 32.5936 1555.89 32.5936 Q1549.85 32.5936 1546.37 36.4419 Q1542.88 40.2903 1542.88 46.9338 L1542.88 72.576 L1535.39 72.576 L1535.39 9.54393 L1542.88 9.54393 L1542.88 34.2544 Q1545.56 30.163 1549.16 28.1376 Q1552.81 26.1121 1557.55 26.1121 Q1565.36 26.1121 1569.38 30.9732 Q1573.39 35.7938 1573.39 45.1919 Z" fill="#000000" fill-rule="nonzero" fill-opacity="1" /><path clip-path="url(#clip970)" d="M1596.35 65.6895 L1624.91 65.6895 L1624.91 72.576 L1586.51 72.576 L1586.51 65.6895 Q1591.17 60.8689 1599.19 52.7671 Q1607.25 44.6248 1609.32 42.2752 Q1613.25 37.8598 1614.79 34.8216 Q1616.37 31.7429 1616.37 28.7857 Q1616.37 23.9651 1612.96 20.927 Q1609.6 17.8888 1604.17 17.8888 Q1600.32 17.8888 1596.03 19.2256 Q1591.78 20.5624 1586.92 23.2765 L1586.92 15.0127 Q1591.86 13.0277 1596.15 12.015 Q1600.45 11.0023 1604.01 11.0023 Q1613.41 11.0023 1619 15.7013 Q1624.59 20.4004 1624.59 28.2591 Q1624.59 31.9859 1623.17 35.3482 Q1621.79 38.6699 1618.11 43.2069 Q1617.09 44.3817 1611.67 50.0125 Q1606.24 55.6027 1596.35 65.6895 Z" fill="#000000" fill-rule="nonzero" fill-opacity="1" /><path clip-path="url(#clip970)" d="M1649.14 65.6895 L1677.7 65.6895 L1677.7 72.576 L1639.29 72.576 L1639.29 65.6895 Q1643.95 60.8689 1651.97 52.7671 Q1660.03 44.6248 1662.1 42.2752 Q1666.03 37.8598 1667.57 34.8216 Q1669.15 31.7429 1669.15 28.7857 Q1669.15 23.9651 1665.75 20.927 Q1662.38 17.8888 1656.96 17.8888 Q1653.11 17.8888 1648.81 19.2256 Q1644.56 20.5624 1639.7 23.2765 L1639.7 15.0127 Q1644.64 13.0277 1648.94 12.015 Q1653.23 11.0023 1656.79 11.0023 Q1666.19 11.0023 1671.78 15.7013 Q1677.37 20.4004 1677.37 28.2591 Q1677.37 31.9859 1675.95 35.3482 Q1674.58 38.6699 1670.89 43.2069 Q1669.88 44.3817 1664.45 50.0125 Q1659.02 55.6027 1649.14 65.6895 Z" fill="#000000" fill-rule="nonzero" fill-opacity="1" /><polyline clip-path="url(#clip972)" style="stroke:#009af9; stroke-linecap:round; stroke-linejoin:round; stroke-width:4; stroke-opacity:1; fill:none" points="311.302,160.256 313.284,270.223 315.266,381.84 317.248,493.457 319.23,605.075 321.212,716.692 323.194,716.692 325.176,716.692 327.158,716.692 329.14,716.692 331.122,716.692 333.104,822.646 335.086,822.646 337.068,822.646 339.05,834.199 341.032,853.346 343.014,882.72 344.996,882.72 346.978,888.554 348.96,899.294 350.942,917.916 352.924,917.916 354.906,921.651 356.888,928.735 358.87,941.569 360.852,962.959 362.834,962.959 364.816,967.206 366.798,975.015 368.78,988.179 370.762,988.179 372.744,990.707 374.726,995.36 376.708,1003.2 378.69,1003.2 380.672,1004.68 382.654,1007.4 384.636,1012.03 386.618,1012.03 388.6,1012.89 390.582,1014.5 392.564,1017.28 394.546,1021.45 396.528,1021.45 398.51,1022.17 400.492,1023.44 402.474,1025.4 404.456,1025.4 406.438,1025.75 408.42,1026.36 410.402,1027.36 412.384,1027.36 414.366,1027.54 416.348,1027.87 418.33,1028.43 420.312,1029.23 422.294,1029.23 424.276,1029.36 426.258,1029.6 428.24,1029.97 430.222,1029.97 432.204,1030.03 434.186,1030.15 436.168,1030.35 438.15,1030.35 440.132,1030.38 442.114,1030.45 444.096,1030.57 446.078,1030.75 448.06,1030.75 450.042,1030.79 452.024,1030.85 454.006,1030.96 455.988,1030.96 457.97,1030.98 459.952,1031.01 461.934,1031.09 463.916,1031.09 465.898,1031.1 467.88,1031.13 469.862,1031.18 471.844,1031.27 473.826,1031.27 475.808,1031.29 477.79,1031.33 479.772,1031.4 481.754,1031.4 483.736,1031.41 485.718,1031.44 487.7,1031.49 489.682,1031.49 491.664,1031.5 493.646,1031.53 495.628,1031.57 497.61,1031.57 499.592,1031.58 501.574,1031.59 503.556,1031.63 505.538,1031.69 507.52,1031.69 509.502,1031.71 511.484,1031.73 513.466,1031.79 515.448,1031.79 517.43,1031.8 519.412,1031.82 521.394,1031.86 523.376,1031.86 525.358,1031.87 527.34,1031.89 529.322,1031.92 531.304,1031.99 533.286,1031.99 535.267,1032 537.249,1032.03 539.231,1032.09 541.213,1032.09 543.195,1032.1 545.177,1032.12 547.159,1032.16 549.141,1032.16 551.123,1032.17 553.105,1032.19 555.087,1032.22 557.069,1032.29 559.051,1032.29 561.033,1032.31 563.015,1032.34 564.997,1032.39 566.979,1032.39 568.961,1032.4 570.943,1032.43 572.925,1032.47 574.907,1032.47 576.889,1032.48 578.871,1032.5 580.853,1032.53 582.835,1032.61 584.817,1032.61 586.799,1032.62 588.781,1032.65 590.763,1032.71 592.745,1032.71 594.727,1032.72 596.709,1032.74 598.691,1032.79 600.673,1032.79 602.655,1032.8 604.637,1032.82 606.619,1032.85 608.601,1032.93 610.583,1032.93 612.565,1032.94 614.547,1032.97 616.529,1033.03 618.511,1033.03 620.493,1033.04 622.475,1033.07 624.457,1033.12 626.439,1033.12 628.421,1033.12 630.403,1033.14 632.385,1033.18 634.367,1033.26 636.349,1033.26 638.331,1033.27 640.313,1033.31 642.295,1033.37 644.277,1033.37 646.259,1033.38 648.241,1033.4 650.223,1033.45 652.205,1033.45 654.187,1033.46 656.169,1033.48 658.151,1033.52 660.133,1033.6 662.115,1033.6 664.097,1033.62 666.079,1033.65 668.061,1033.71 670.043,1033.71 672.025,1033.72 674.007,1033.75 675.989,1033.8 677.971,1033.8 679.953,1033.81 681.935,1033.83 683.917,1033.87 685.899,1033.95 687.881,1033.95 689.863,1033.97 691.845,1034 693.827,1034.07 695.809,1034.07 697.791,1034.08 699.773,1034.11 701.755,1034.16 703.737,1034.16 705.719,1034.17 707.701,1034.19 709.683,1034.23 711.665,1034.32 713.647,1034.32 715.629,1034.33 717.611,1034.37 719.593,1034.44 721.575,1034.44 723.557,1034.45 725.539,1034.48 727.521,1034.53 729.503,1034.53 731.485,1034.54 733.467,1034.56 735.449,1034.61 737.431,1034.69 739.413,1034.69 741.395,1034.71 743.377,1034.74 745.359,1034.81 747.341,1034.81 749.323,1034.83 751.305,1034.86 753.287,1034.91 755.269,1034.91 757.251,1034.92 759.233,1034.95 761.215,1034.99 763.197,1034.99 765.179,1035 767.161,1035.02 769.143,1035.05 771.125,1035.12 773.107,1035.12 775.089,1035.14 777.071,1035.17 779.053,1035.22 781.035,1035.22 783.017,1035.24 784.999,1035.26 786.981,1035.31 788.963,1035.31 790.945,1035.31 792.927,1035.33 794.909,1035.37 796.891,1035.44 798.873,1035.44 800.855,1035.46 802.837,1035.49 804.819,1035.55 806.801,1035.55 808.783,1035.56 810.765,1035.58 812.747,1035.63 814.729,1035.63 816.711,1035.64 818.693,1035.66 820.675,1035.7 822.657,1035.77 824.639,1035.77 826.621,1035.79 828.603,1035.82 830.585,1035.88 832.567,1035.88 834.549,1035.89 836.531,1035.92 838.513,1035.96 840.495,1035.96 842.477,1035.97 844.459,1035.99 846.441,1036.03 848.423,1036.11 850.405,1036.11 852.387,1036.13 854.369,1036.16 856.351,1036.22 858.333,1036.22 860.314,1036.23 862.296,1036.26 864.278,1036.31 866.26,1036.31 868.242,1036.32 870.224,1036.34 872.206,1036.38 874.188,1036.46 876.17,1036.46 878.152,1036.48 880.134,1036.51 882.116,1036.57 884.098,1036.57 886.08,1036.59 888.062,1036.61 890.044,1036.66 892.026,1036.66 894.008,1036.67 895.99,1036.69 897.972,1036.74 899.954,1036.82 901.936,1036.82 903.918,1036.84 905.9,1036.87 907.882,1036.94 909.864,1036.94 911.846,1036.95 913.828,1036.98 915.81,1037.03 917.792,1037.03 919.774,1037.04 921.756,1037.06 923.738,1037.1 925.72,1037.19 927.702,1037.19 929.684,1037.21 931.666,1037.24 933.648,1037.31 935.63,1037.31 937.612,1037.32 939.594,1037.35 941.576,1037.41 943.558,1037.41 945.54,1037.42 947.522,1037.44 949.504,1037.48 951.486,1037.57 953.468,1037.57 955.45,1037.59 957.432,1037.62 959.414,1037.69 961.396,1037.69 963.378,1037.71 965.36,1037.74 967.342,1037.79 969.324,1037.79 971.306,1037.8 973.288,1037.83 975.27,1037.87 977.252,1037.96 979.234,1037.96 981.216,1037.98 983.198,1038.02 985.18,1038.09 987.162,1038.09 989.144,1038.1 991.126,1038.13 993.108,1038.19 995.09,1038.19 997.072,1038.2 999.054,1038.23 1001.04,1038.27 1003.02,1038.27 1005,1038.28 1006.98,1038.3 1008.96,1038.34 1010.95,1038.41 1012.93,1038.41 1014.91,1038.43 1016.89,1038.46 1018.87,1038.52 1020.86,1038.52 1022.84,1038.53 1024.82,1038.56 1026.8,1038.6 1028.78,1038.6 1030.77,1038.61 1032.75,1038.63 1034.73,1038.67 1036.71,1038.75 1038.69,1038.75 1040.68,1038.76 1042.66,1038.79 1044.64,1038.86 1046.62,1038.86 1048.6,1038.87 1050.59,1038.89 1052.57,1038.94 1054.55,1038.94 1056.53,1038.95 1058.51,1038.97 1060.5,1039.01 1062.48,1039.09 1064.46,1039.09 1066.44,1039.11 1068.42,1039.14 1070.41,1039.2 1072.39,1039.2 1074.37,1039.21 1076.35,1039.24 1078.33,1039.29 1080.32,1039.29 1082.3,1039.3 1084.28,1039.32 1086.26,1039.36 1088.24,1039.44 1090.23,1039.44 1092.21,1039.46 1094.19,1039.49 1096.17,1039.56 1098.15,1039.56 1100.14,1039.57 1102.12,1039.6 1104.1,1039.65 1106.08,1039.65 1108.06,1039.66 1110.05,1039.68 1112.03,1039.72 1114.01,1039.81 1115.99,1039.81 1117.97,1039.82 1119.96,1039.86 1121.94,1039.93 1123.92,1039.93 1125.9,1039.94 1127.88,1039.97 1129.87,1040.02 1131.85,1040.02 1133.83,1040.03 1135.81,1040.05 1137.79,1040.09 1139.78,1040.18 1141.76,1040.18 1143.74,1040.2 1145.72,1040.23 1147.7,1040.3 1149.69,1040.3 1151.67,1040.32 1153.65,1040.34 1155.63,1040.4 1157.61,1040.4 1159.6,1040.41 1161.58,1040.43 1163.56,1040.48 1165.54,1040.57 1167.52,1040.57 1169.51,1040.58 1171.49,1040.62 1173.47,1040.69 1175.45,1040.69 1177.43,1040.71 1179.42,1040.73 1181.4,1040.79 1183.38,1040.79 1185.36,1040.8 1187.34,1040.82 1189.33,1040.87 1191.31,1040.96 1193.29,1040.96 1195.27,1040.98 1197.25,1041.02 1199.24,1041.09 1201.22,1041.09 1203.2,1041.11 1205.18,1041.13 1207.16,1041.19 1209.15,1041.19 1211.13,1041.2 1213.11,1041.23 1215.09,1041.28 1217.07,1041.37 1219.06,1041.37 1221.04,1041.39 1223.02,1041.43 1225,1041.5 1226.98,1041.5 1228.97,1041.52 1230.95,1041.55 1232.93,1041.61 1234.91,1041.61 1236.89,1041.62 1238.88,1041.64 1240.86,1041.69 1242.84,1041.69 1244.82,1041.7 1246.8,1041.72 1248.79,1041.76 1250.77,1041.84 1252.75,1041.84 1254.73,1041.85 1256.71,1041.88 1258.7,1041.95 1260.68,1041.95 1262.66,1041.96 1264.64,1041.98 1266.62,1042.03 1268.61,1042.03 1270.59,1042.04 1272.57,1042.06 1274.55,1042.1 1276.53,1042.18 1278.52,1042.18 1280.5,1042.2 1282.48,1042.23 1284.46,1042.29 1286.44,1042.29 1288.43,1042.31 1290.41,1042.33 1292.39,1042.38 1294.37,1042.38 1296.35,1042.39 1298.34,1042.42 1300.32,1042.46 1302.3,1042.54 1304.28,1042.54 1306.26,1042.55 1308.25,1042.59 1310.23,1042.65 1312.21,1042.65 1314.19,1042.67 1316.17,1042.69 1318.16,1042.75 1320.14,1042.75 1322.12,1042.76 1324.1,1042.78 1326.08,1042.82 1328.07,1042.9 1330.05,1042.9 1332.03,1042.92 1334.01,1042.95 1335.99,1043.02 1337.98,1043.02 1339.96,1043.03 1341.94,1043.06 1343.92,1043.12 1345.9,1043.12 1347.88,1043.13 1349.87,1043.15 1351.85,1043.19 1353.83,1043.28 1355.81,1043.28 1357.79,1043.3 1359.78,1043.33 1361.76,1043.4 1363.74,1043.4 1365.72,1043.41 1367.7,1043.44 1369.69,1043.5 1371.67,1043.5 1373.65,1043.51 1375.63,1043.53 1377.61,1043.58 1379.6,1043.66 1381.58,1043.66 1383.56,1043.68 1385.54,1043.72 1387.52,1043.79 1389.51,1043.79 1391.49,1043.8 1393.47,1043.83 1395.45,1043.89 1397.43,1043.89 1399.42,1043.9 1401.4,1043.92 1403.38,1043.97 1405.36,1044.06 1407.34,1044.06 1409.33,1044.08 1411.31,1044.12 1413.29,1044.19 1415.27,1044.19 1417.25,1044.2 1419.24,1044.23 1421.22,1044.29 1423.2,1044.29 1425.18,1044.3 1427.16,1044.33 1429.15,1044.38 1431.13,1044.47 1433.11,1044.47 1435.09,1044.49 1437.07,1044.53 1439.06,1044.6 1441.04,1044.6 1443.02,1044.62 1445,1044.65 1446.98,1044.71 1448.97,1044.71 1450.95,1044.72 1452.93,1044.74 1454.91,1044.79 1456.89,1044.89 1458.88,1044.89 1460.86,1044.91 1462.84,1044.95 1464.82,1045.02 1466.8,1045.02 1468.79,1045.04 1470.77,1045.07 1472.75,1045.13 1474.73,1045.13 1476.71,1045.15 1478.7,1045.17 1480.68,1045.22 1482.66,1045.32 1484.64,1045.32 1486.62,1045.34 1488.61,1045.38 1490.59,1045.46 1492.57,1045.46 1494.55,1045.48 1496.53,1045.51 1498.52,1045.57 1500.5,1045.57 1502.48,1045.58 1504.46,1045.61 1506.44,1045.66 1508.43,1045.66 1510.41,1045.67 1512.39,1045.69 1514.37,1045.73 1516.35,1045.81 1518.34,1045.81 1520.32,1045.83 1522.3,1045.86 1524.28,1045.93 1526.26,1045.93 1528.25,1045.94 1530.23,1045.97 1532.21,1046.02 1534.19,1046.02 1536.17,1046.03 1538.16,1046.05 1540.14,1046.1 1542.12,1046.18 1544.1,1046.18 1546.08,1046.2 1548.07,1046.23 1550.05,1046.3 1552.03,1046.3 1554.01,1046.31 1555.99,1046.34 1557.98,1046.39 1559.96,1046.39 1561.94,1046.4 1563.92,1046.42 1565.9,1046.47 1567.89,1046.55 1569.87,1046.55 1571.85,1046.57 1573.83,1046.61 1575.81,1046.68 1577.8,1046.68 1579.78,1046.69 1581.76,1046.72 1583.74,1046.77 1585.72,1046.77 1587.71,1046.78 1589.69,1046.81 1591.67,1046.85 1593.65,1046.94 1595.63,1046.94 1597.62,1046.96 1599.6,1046.99 1601.58,1047.06 1603.56,1047.06 1605.54,1047.08 1607.53,1047.11 1609.51,1047.16 1611.49,1047.16 1613.47,1047.18 1615.45,1047.2 1617.44,1047.24 1619.42,1047.34 1621.4,1047.34 1623.38,1047.35 1625.36,1047.39 1627.35,1047.46 1629.33,1047.46 1631.31,1047.48 1633.29,1047.51 1635.27,1047.57 1637.26,1047.57 1639.24,1047.58 1641.22,1047.6 1643.2,1047.65 1645.18,1047.74 1647.17,1047.74 1649.15,1047.76 1651.13,1047.8 1653.11,1047.87 1655.09,1047.87 1657.08,1047.89 1659.06,1047.92 1661.04,1047.98 1663.02,1047.98 1665,1047.99 1666.99,1048.01 1668.97,1048.06 1670.95,1048.16 1672.93,1048.16 1674.91,1048.18 1676.9,1048.22 1678.88,1048.29 1680.86,1048.29 1682.84,1048.31 1684.82,1048.34 1686.81,1048.4 1688.79,1048.4 1690.77,1048.41 1692.75,1048.44 1694.73,1048.49 1696.72,1048.59 1698.7,1048.59 1700.68,1048.61 1702.66,1048.65 1704.64,1048.73 1706.63,1048.73 1708.61,1048.74 1710.59,1048.77 1712.57,1048.84 1714.55,1048.84 1716.54,1048.85 1718.52,1048.88 1720.5,1048.93 1722.48,1049.03 1724.46,1049.03 1726.45,1049.05 1728.43,1049.09 1730.41,1049.17 1732.39,1049.17 1734.37,1049.19 1736.36,1049.22 1738.34,1049.29 1740.32,1049.29 1742.3,1049.3 1744.28,1049.32 1746.27,1049.38 1748.25,1049.38 1750.23,1049.39 1752.21,1049.41 1754.19,1049.45 1756.18,1049.53 1758.16,1049.53 1760.14,1049.55 1762.12,1049.58 1764.1,1049.65 1766.09,1049.65 1768.07,1049.66 1770.05,1049.69 1772.03,1049.74 1774.01,1049.74 1776,1049.76 1777.98,1049.78 1779.96,1049.82 1781.94,1049.91 1783.92,1049.91 1785.91,1049.92 1787.89,1049.96 1789.87,1050.03 1791.85,1050.03 1793.83,1050.04 1795.82,1050.07 1797.8,1050.12 1799.78,1050.12 1801.76,1050.13 1803.74,1050.15 1805.73,1050.2 1807.71,1050.29 1809.69,1050.29 1811.67,1050.3 1813.65,1050.34 1815.64,1050.41 1817.62,1050.41 1819.6,1050.42 1821.58,1050.45 1823.56,1050.51 1825.55,1050.51 1827.53,1050.52 1829.51,1050.54 1831.49,1050.59 1833.47,1050.68 1835.46,1050.68 1837.44,1050.7 1839.42,1050.73 1841.4,1050.81 1843.38,1050.81 1845.37,1050.82 1847.35,1050.85 1849.33,1050.91 1851.31,1050.91 1853.29,1050.92 1855.28,1050.94 1857.26,1050.99 1859.24,1051.08 1861.22,1051.08 1863.2,1051.1 1865.19,1051.14 1867.17,1051.21 1869.15,1051.21 1871.13,1051.23 1873.11,1051.26 1875.1,1051.32 1877.08,1051.32 1879.06,1051.33 1881.04,1051.35 1883.02,1051.4 1885.01,1051.49 1886.99,1051.49 1888.97,1051.51 1890.95,1051.55 1892.93,1051.63 1894.92,1051.63 1896.9,1051.64 1898.88,1051.67 1900.86,1051.74 1902.84,1051.74 1904.83,1051.75 1906.81,1051.77 1908.79,1051.82 1910.77,1051.92 1912.75,1051.92 1914.74,1051.94 1916.72,1051.98 1918.7,1052.06 1920.68,1052.06 1922.66,1052.07 1924.65,1052.1 1926.63,1052.17 1928.61,1052.17 1930.59,1052.18 1932.57,1052.2 1934.56,1052.25 1936.54,1052.35 1938.52,1052.35 1940.5,1052.37 1942.48,1052.41 1944.47,1052.5 1946.45,1052.5 1948.43,1052.51 1950.41,1052.54 1952.39,1052.61 1954.38,1052.61 1956.36,1052.62 1958.34,1052.65 1960.32,1052.7 1962.3,1052.8 1964.29,1052.8 1966.27,1052.82 1968.25,1052.86 1970.23,1052.95 1972.21,1052.95 1974.2,1052.96 1976.18,1053 1978.16,1053.06 1980.14,1053.06 1982.12,1053.07 1984.11,1053.1 1986.09,1053.15 1988.07,1053.26 1990.05,1053.26 1992.03,1053.28 1994.02,1053.32 1996,1053.41 1997.98,1053.41 1999.96,1053.43 2001.94,1053.46 2003.92,1053.53 2005.91,1053.53 2007.89,1053.54 2009.87,1053.57 2011.85,1053.62 2013.83,1053.62 2015.82,1053.63 2017.8,1053.65 2019.78,1053.7 2021.76,1053.79 2023.74,1053.79 2025.73,1053.8 2027.71,1053.84 2029.69,1053.91 2031.67,1053.91 2033.65,1053.92 2035.64,1053.95 2037.62,1054 2039.6,1054 2041.58,1054.02 2043.56,1054.04 2045.55,1054.08 2047.53,1054.17 2049.51,1054.17 2051.49,1054.19 2053.47,1054.23 2055.46,1054.3 2057.44,1054.3 2059.42,1054.31 2061.4,1054.34 2063.38,1054.4 2065.37,1054.4 2067.35,1054.41 2069.33,1054.43 2071.31,1054.48 2073.29,1054.57 2075.28,1054.57 2077.26,1054.59 2079.24,1054.62 2081.22,1054.7 2083.2,1054.7 2085.19,1054.71 2087.17,1054.74 2089.15,1054.8 2091.13,1054.8 2093.11,1054.81 2095.1,1054.83 2097.08,1054.88 2099.06,1054.98 2101.04,1054.98 2103.02,1054.99 2105.01,1055.03 2106.99,1055.11 2108.97,1055.11 2110.95,1055.12 2112.93,1055.15 2114.92,1055.21 2116.9,1055.21 2118.88,1055.22 2120.86,1055.25 2122.84,1055.3 2124.83,1055.39 2126.81,1055.39 2128.79,1055.41 2130.77,1055.45 2132.75,1055.53 2134.74,1055.53 2136.72,1055.54 2138.7,1055.57 2140.68,1055.64 2142.66,1055.64 2144.65,1055.65 2146.63,1055.67 2148.61,1055.72 2150.59,1055.82 2152.57,1055.82 2154.56,1055.84 2156.54,1055.88 2158.52,1055.96 2160.5,1055.96 2162.48,1055.98 2164.47,1056.01 2166.45,1056.07 2168.43,1056.07 2170.41,1056.08 2172.39,1056.11 2174.38,1056.16 2176.36,1056.26 2178.34,1056.26 2180.32,1056.28 2182.3,1056.32 2184.29,1056.4 2186.27,1056.4 2188.25,1056.42 2190.23,1056.45 2192.21,1056.52 2194.2,1056.52 2196.18,1056.53 2198.16,1056.55 2200.14,1056.61 2202.12,1056.71 2204.11,1056.71 2206.09,1056.73 2208.07,1056.77 2210.05,1056.86 2212.03,1056.86 2214.02,1056.87 2216,1056.91 2217.98,1056.97 2219.96,1056.97 2221.94,1056.99 2223.93,1057.01 2225.91,1057.07 2227.89,1057.17 2229.87,1057.17 2231.85,1057.19 2233.84,1057.24 2235.82,1057.32 2237.8,1057.32 2239.78,1057.34 2241.76,1057.37 2243.75,1057.44 2245.73,1057.44 2247.71,1057.46 2249.69,1057.48 2251.67,1057.54 2253.66,1057.54 2255.64,1057.55 2257.62,1057.57 2259.6,1057.61 2261.58,1057.7 2263.57,1057.7 2265.55,1057.72 2267.53,1057.75 2269.51,1057.82 2271.49,1057.82 2273.48,1057.84 2275.46,1057.87 2277.44,1057.92 2279.42,1057.92 2281.4,1057.93 2283.39,1057.96 2285.37,1058 2287.35,1058.09 2289.33,1058.09 2291.31,1058.11 2293.3,1058.14 "/>
<polyline clip-path="url(#clip972)" style="stroke:#e26f46; stroke-linecap:round; stroke-linejoin:round; stroke-width:4; stroke-opacity:1; fill:none" points="311.302,160.256 313.284,270.979 315.266,318.649 317.248,449.294 319.23,561.013 321.212,673.072 323.194,786.795 325.176,909.673 327.158,1043.93 329.14,1084.57 331.122,1266.57 "/>
<polyline clip-path="url(#clip972)" style="stroke:#3da44d; stroke-linecap:round; stroke-linejoin:round; stroke-width:4; stroke-opacity:1; fill:none" points="311.302,160.256 313.284,270.223 315.266,381.84 317.248,493.457 319.23,605.075 321.212,605.075 323.194,605.075 325.176,605.075 327.158,605.075 329.14,605.075 331.122,605.075 333.104,695.553 335.086,695.553 337.068,725.148 339.05,725.148 341.032,730.471 343.014,739.827 344.996,754.961 346.978,777.175 348.96,777.175 350.942,781.383 352.924,789.071 354.906,802.287 356.888,802.287 358.87,804.878 360.852,809.809 362.834,818.841 364.816,818.841 366.798,820.639 368.78,824.125 370.762,830.714 372.744,842.673 374.726,842.673 376.708,845.094 378.69,849.781 380.672,849.781 382.654,850.724 384.636,852.587 386.618,856.226 388.6,863.19 390.582,863.19 392.564,864.604 394.546,867.385 396.528,872.78 398.51,882.988 400.492,882.988 402.474,885.093 404.456,889.219 406.438,889.219 408.42,890.055 410.402,891.714 412.384,894.982 414.366,901.333 416.348,901.333 418.33,902.632 420.312,905.202 422.294,910.233 424.276,919.904 426.258,919.904 428.24,921.913 430.222,925.872 432.204,925.872 434.186,926.676 436.168,928.275 438.15,931.435 440.132,937.611 442.114,937.611 444.096,938.879 446.078,941.391 448.06,946.326 450.042,955.863 452.024,955.863 454.006,957.851 455.988,961.772 457.97,961.772 459.952,962.57 461.934,964.157 463.916,967.295 465.898,973.435 467.88,973.435 469.862,974.696 471.844,977.197 473.826,982.11 475.808,991.603 477.79,991.603 479.772,993.582 481.754,997.482 483.736,997.482 485.718,998.276 487.7,999.853 489.682,1002.97 491.664,1009.05 493.646,1009.05 495.628,1010.3 497.61,1012.77 499.592,1017.62 501.574,1026.93 503.556,1026.93 505.538,1028.86 507.52,1032.66 509.502,1032.66 511.484,1033.43 513.466,1034.96 515.448,1037.97 517.43,1043.81 519.412,1043.81 521.394,1045 523.376,1047.36 525.358,1051.94 527.34,1060.62 529.322,1060.62 531.304,1062.4 533.286,1065.86 535.267,1065.86 537.249,1066.56 539.231,1067.95 541.213,1070.66 543.195,1075.83 545.177,1075.83 547.159,1076.87 549.141,1078.92 551.123,1082.85 553.105,1090.06 555.087,1090.06 557.069,1091.51 559.051,1094.28 561.033,1094.28 563.015,1094.83 564.997,1095.92 566.979,1098.01 568.961,1101.92 570.943,1101.92 572.925,1102.69 574.907,1104.19 576.889,1107 578.871,1111.92 580.853,1111.92 582.835,1112.87 584.817,1114.66 586.799,1114.66 588.781,1115.01 590.763,1115.69 592.745,1116.99 594.727,1119.34 596.709,1119.34 598.691,1119.79 600.673,1120.66 602.655,1122.24 604.637,1124.89 606.619,1124.89 608.601,1125.39 610.583,1126.3 612.565,1126.3 614.547,1126.48 616.529,1126.82 618.511,1127.46 620.493,1128.59 622.475,1128.59 624.457,1128.81 626.439,1129.21 628.421,1129.95 630.403,1129.95 632.385,1130.09 634.367,1130.35 636.349,1130.85 638.331,1130.85 640.313,1130.94 642.295,1131.12 644.277,1131.47 646.259,1132.06 648.241,1132.06 650.223,1132.17 652.205,1132.39 654.187,1132.77 656.169,1132.77 658.151,1132.84 660.133,1132.98 662.115,1133.23 664.097,1133.23 666.079,1133.28 668.061,1133.37 670.043,1133.55 672.025,1133.86 674.007,1133.86 675.989,1133.92 677.971,1134.03 679.953,1134.22 681.935,1134.22 683.917,1134.26 685.899,1134.33 687.881,1134.47 689.863,1134.47 691.845,1134.49 693.827,1134.54 695.809,1134.63 697.791,1134.8 "/>
<polyline clip-path="url(#clip972)" style="stroke:#c271d2; stroke-linecap:round; stroke-linejoin:round; stroke-width:4; stroke-opacity:1; fill:none" points="311.302,160.256 313.284,270.979 315.266,323.199 317.248,449.294 319.23,560.995 321.212,672.984 323.194,786.406 325.176,908.022 327.158,1038.67 329.14,1077.3 331.122,1261.56 "/>
<polyline clip-path="url(#clip972)" style="stroke:#ac8d18; stroke-linecap:round; stroke-linejoin:round; stroke-width:4; stroke-opacity:1; fill:none" points="311.302,160.256 313.284,270.223 315.266,381.84 317.248,493.457 319.23,605.075 321.212,716.692 323.194,828.309 325.176,939.926 327.158,1051.54 329.14,1163.16 331.122,1274.78 333.104,1386.4 "/>
<path clip-path="url(#clip970)" d="M1749.53 477.836 L2282.73 477.836 L2282.73 166.796 L1749.53 166.796  Z" fill="#ffffff" fill-rule="evenodd" fill-opacity="1"/>
<polyline clip-path="url(#clip970)" style="stroke:#000000; stroke-linecap:round; stroke-linejoin:round; stroke-width:4; stroke-opacity:1; fill:none" points="1749.53,477.836 2282.73,477.836 2282.73,166.796 1749.53,166.796 1749.53,477.836 "/>
<polyline clip-path="url(#clip970)" style="stroke:#009af9; stroke-linecap:round; stroke-linejoin:round; stroke-width:4; stroke-opacity:1; fill:none" points="1772.88,218.636 1912.94,218.636 "/>
<path clip-path="url(#clip970)" d="M1936.28 201.356 L1940.96 201.356 L1940.96 231.981 L1957.79 231.981 L1957.79 235.916 L1936.28 235.916 L1936.28 201.356 Z" fill="#000000" fill-rule="nonzero" fill-opacity="1" /><path clip-path="url(#clip970)" d="M1962.69 201.356 L1969.66 201.356 L1978.48 224.874 L1987.35 201.356 L1994.31 201.356 L1994.31 235.916 L1989.75 235.916 L1989.75 205.569 L1980.84 229.272 L1976.14 229.272 L1967.23 205.569 L1967.23 235.916 L1962.69 235.916 L1962.69 201.356 Z" fill="#000000" fill-rule="nonzero" fill-opacity="1" /><path clip-path="url(#clip970)" d="M2023.11 243.786 L2023.11 247.096 L1998.48 247.096 L1998.48 243.786 L2023.11 243.786 Z" fill="#000000" fill-rule="nonzero" fill-opacity="1" /><path clip-path="url(#clip970)" d="M2048.02 202.49 L2048.02 207.05 Q2045.36 205.777 2042.99 205.152 Q2040.63 204.527 2038.43 204.527 Q2034.61 204.527 2032.53 206.008 Q2030.47 207.49 2030.47 210.221 Q2030.47 212.513 2031.84 213.694 Q2033.23 214.851 2037.07 215.569 L2039.89 216.147 Q2045.12 217.143 2047.6 219.666 Q2050.1 222.166 2050.1 226.379 Q2050.1 231.402 2046.72 233.994 Q2043.36 236.587 2036.86 236.587 Q2034.41 236.587 2031.63 236.031 Q2028.87 235.476 2025.91 234.388 L2025.91 229.573 Q2028.76 231.17 2031.49 231.981 Q2034.22 232.791 2036.86 232.791 Q2040.86 232.791 2043.04 231.217 Q2045.22 229.643 2045.22 226.726 Q2045.22 224.18 2043.64 222.744 Q2042.09 221.309 2038.53 220.592 L2035.68 220.036 Q2030.45 218.995 2028.11 216.772 Q2025.77 214.55 2025.77 210.592 Q2025.77 206.008 2028.99 203.37 Q2032.23 200.731 2037.9 200.731 Q2040.33 200.731 2042.86 201.171 Q2045.38 201.61 2048.02 202.49 Z" fill="#000000" fill-rule="nonzero" fill-opacity="1" /><path clip-path="url(#clip970)" d="M2062.07 205.198 L2062.07 218.184 L2067.95 218.184 Q2071.21 218.184 2072.99 216.495 Q2074.78 214.805 2074.78 211.68 Q2074.78 208.578 2072.99 206.888 Q2071.21 205.198 2067.95 205.198 L2062.07 205.198 M2057.39 201.356 L2067.95 201.356 Q2073.76 201.356 2076.72 203.995 Q2079.71 206.61 2079.71 211.68 Q2079.71 216.795 2076.72 219.411 Q2073.76 222.027 2067.95 222.027 L2062.07 222.027 L2062.07 235.916 L2057.39 235.916 L2057.39 201.356 Z" fill="#000000" fill-rule="nonzero" fill-opacity="1" /><path clip-path="url(#clip970)" d="M2109.54 230.985 L2109.54 221.703 L2101.91 221.703 L2101.91 217.86 L2114.17 217.86 L2114.17 232.698 Q2111.47 234.619 2108.2 235.615 Q2104.94 236.587 2101.23 236.587 Q2093.13 236.587 2088.55 231.865 Q2083.99 227.119 2083.99 218.67 Q2083.99 210.198 2088.55 205.476 Q2093.13 200.731 2101.23 200.731 Q2104.61 200.731 2107.65 201.564 Q2110.7 202.397 2113.27 204.018 L2113.27 208.995 Q2110.68 206.796 2107.76 205.684 Q2104.85 204.573 2101.63 204.573 Q2095.29 204.573 2092.09 208.115 Q2088.92 211.657 2088.92 218.67 Q2088.92 225.661 2092.09 229.203 Q2095.29 232.744 2101.63 232.744 Q2104.11 232.744 2106.05 232.328 Q2107.99 231.888 2109.54 230.985 Z" fill="#000000" fill-rule="nonzero" fill-opacity="1" /><polyline clip-path="url(#clip970)" style="stroke:#e26f46; stroke-linecap:round; stroke-linejoin:round; stroke-width:4; stroke-opacity:1; fill:none" points="1772.88,270.476 1912.94,270.476 "/>
<path clip-path="url(#clip970)" d="M1936.28 253.196 L1940.96 253.196 L1940.96 283.821 L1957.79 283.821 L1957.79 287.756 L1936.28 287.756 L1936.28 253.196 Z" fill="#000000" fill-rule="nonzero" fill-opacity="1" /><path clip-path="url(#clip970)" d="M1962.69 253.196 L1969.66 253.196 L1978.48 276.714 L1987.35 253.196 L1994.31 253.196 L1994.31 287.756 L1989.75 287.756 L1989.75 257.409 L1980.84 281.112 L1976.14 281.112 L1967.23 257.409 L1967.23 287.756 L1962.69 287.756 L1962.69 253.196 Z" fill="#000000" fill-rule="nonzero" fill-opacity="1" /><path clip-path="url(#clip970)" d="M2023.11 295.626 L2023.11 298.936 L1998.48 298.936 L1998.48 295.626 L2023.11 295.626 Z" fill="#000000" fill-rule="nonzero" fill-opacity="1" /><path clip-path="url(#clip970)" d="M2038.85 257.802 L2032.51 275.001 L2045.22 275.001 L2038.85 257.802 M2036.21 253.196 L2041.51 253.196 L2054.68 287.756 L2049.82 287.756 L2046.67 278.89 L2031.1 278.89 L2027.95 287.756 L2023.02 287.756 L2036.21 253.196 Z" fill="#000000" fill-rule="nonzero" fill-opacity="1" /><path clip-path="url(#clip970)" d="M2081.1 272.108 L2081.1 287.756 L2076.84 287.756 L2076.84 272.247 Q2076.84 268.566 2075.4 266.737 Q2073.97 264.909 2071.1 264.909 Q2067.65 264.909 2065.66 267.108 Q2063.67 269.307 2063.67 273.103 L2063.67 287.756 L2059.38 287.756 L2059.38 261.83 L2063.67 261.83 L2063.67 265.858 Q2065.19 263.52 2067.25 262.362 Q2069.34 261.205 2072.05 261.205 Q2076.51 261.205 2078.8 263.983 Q2081.1 266.737 2081.1 272.108 Z" fill="#000000" fill-rule="nonzero" fill-opacity="1" /><path clip-path="url(#clip970)" d="M2106.65 265.765 L2106.65 251.737 L2110.91 251.737 L2110.91 287.756 L2106.65 287.756 L2106.65 283.867 Q2105.31 286.182 2103.25 287.316 Q2101.21 288.427 2098.34 288.427 Q2093.64 288.427 2090.68 284.677 Q2087.74 280.927 2087.74 274.816 Q2087.74 268.705 2090.68 264.955 Q2093.64 261.205 2098.34 261.205 Q2101.21 261.205 2103.25 262.339 Q2105.31 263.45 2106.65 265.765 M2092.14 274.816 Q2092.14 279.515 2094.06 282.2 Q2096 284.862 2099.38 284.862 Q2102.76 284.862 2104.71 282.2 Q2106.65 279.515 2106.65 274.816 Q2106.65 270.117 2104.71 267.455 Q2102.76 264.77 2099.38 264.77 Q2096 264.77 2094.06 267.455 Q2092.14 270.117 2092.14 274.816 Z" fill="#000000" fill-rule="nonzero" fill-opacity="1" /><path clip-path="url(#clip970)" d="M2134.71 265.811 Q2133.99 265.395 2133.13 265.21 Q2132.3 265.001 2131.28 265.001 Q2127.67 265.001 2125.73 267.362 Q2123.8 269.7 2123.8 274.098 L2123.8 287.756 L2119.52 287.756 L2119.52 261.83 L2123.8 261.83 L2123.8 265.858 Q2125.15 263.497 2127.3 262.362 Q2129.45 261.205 2132.53 261.205 Q2132.97 261.205 2133.5 261.274 Q2134.04 261.321 2134.68 261.436 L2134.71 265.811 Z" fill="#000000" fill-rule="nonzero" fill-opacity="1" /><path clip-path="url(#clip970)" d="M2160.31 273.728 L2160.31 275.811 L2140.73 275.811 Q2141 280.209 2143.36 282.524 Q2145.75 284.816 2149.98 284.816 Q2152.44 284.816 2154.73 284.214 Q2157.04 283.612 2159.31 282.409 L2159.31 286.436 Q2157.02 287.408 2154.61 287.918 Q2152.21 288.427 2149.73 288.427 Q2143.53 288.427 2139.89 284.816 Q2136.28 281.205 2136.28 275.047 Q2136.28 268.682 2139.71 264.955 Q2143.16 261.205 2148.99 261.205 Q2154.22 261.205 2157.25 264.585 Q2160.31 267.941 2160.31 273.728 M2156.05 272.478 Q2156 268.983 2154.08 266.899 Q2152.18 264.816 2149.04 264.816 Q2145.47 264.816 2143.32 266.83 Q2141.19 268.844 2140.86 272.501 L2156.05 272.478 Z" fill="#000000" fill-rule="nonzero" fill-opacity="1" /><path clip-path="url(#clip970)" d="M2167.3 261.83 L2171.56 261.83 L2171.56 287.756 L2167.3 287.756 L2167.3 261.83 M2167.3 251.737 L2171.56 251.737 L2171.56 257.131 L2167.3 257.131 L2167.3 251.737 Z" fill="#000000" fill-rule="nonzero" fill-opacity="1" /><path clip-path="url(#clip970)" d="M2200.17 295.626 L2200.17 298.936 L2175.54 298.936 L2175.54 295.626 L2200.17 295.626 Z" fill="#000000" fill-rule="nonzero" fill-opacity="1" /><path clip-path="url(#clip970)" d="M2215.96 274.723 Q2210.79 274.723 2208.8 275.904 Q2206.81 277.084 2206.81 279.932 Q2206.81 282.2 2208.29 283.543 Q2209.8 284.862 2212.37 284.862 Q2215.91 284.862 2218.04 282.362 Q2220.19 279.839 2220.19 275.672 L2220.19 274.723 L2215.96 274.723 M2224.45 272.964 L2224.45 287.756 L2220.19 287.756 L2220.19 283.821 Q2218.73 286.182 2216.56 287.316 Q2214.38 288.427 2211.23 288.427 Q2207.25 288.427 2204.89 286.205 Q2202.55 283.959 2202.55 280.209 Q2202.55 275.834 2205.47 273.612 Q2208.41 271.39 2214.22 271.39 L2220.19 271.39 L2220.19 270.973 Q2220.19 268.034 2218.25 266.436 Q2216.33 264.816 2212.83 264.816 Q2210.61 264.816 2208.5 265.348 Q2206.4 265.881 2204.45 266.946 L2204.45 263.01 Q2206.79 262.108 2208.99 261.668 Q2211.19 261.205 2213.27 261.205 Q2218.9 261.205 2221.67 264.122 Q2224.45 267.038 2224.45 272.964 Z" fill="#000000" fill-rule="nonzero" fill-opacity="1" /><path clip-path="url(#clip970)" d="M2233.22 251.737 L2237.48 251.737 L2237.48 287.756 L2233.22 287.756 L2233.22 251.737 Z" fill="#000000" fill-rule="nonzero" fill-opacity="1" /><path clip-path="url(#clip970)" d="M2250.61 254.469 L2250.61 261.83 L2259.38 261.83 L2259.38 265.14 L2250.61 265.14 L2250.61 279.214 Q2250.61 282.385 2251.47 283.288 Q2252.34 284.191 2255.01 284.191 L2259.38 284.191 L2259.38 287.756 L2255.01 287.756 Q2250.08 287.756 2248.2 285.927 Q2246.33 284.075 2246.33 279.214 L2246.33 265.14 L2243.2 265.14 L2243.2 261.83 L2246.33 261.83 L2246.33 254.469 L2250.61 254.469 Z" fill="#000000" fill-rule="nonzero" fill-opacity="1" /><polyline clip-path="url(#clip970)" style="stroke:#3da44d; stroke-linecap:round; stroke-linejoin:round; stroke-width:4; stroke-opacity:1; fill:none" points="1772.88,322.316 1912.94,322.316 "/>
<path clip-path="url(#clip970)" d="M1936.28 305.036 L1940.96 305.036 L1940.96 335.661 L1957.79 335.661 L1957.79 339.596 L1936.28 339.596 L1936.28 305.036 Z" fill="#000000" fill-rule="nonzero" fill-opacity="1" /><path clip-path="url(#clip970)" d="M1962.69 305.036 L1969.66 305.036 L1978.48 328.554 L1987.35 305.036 L1994.31 305.036 L1994.31 339.596 L1989.75 339.596 L1989.75 309.249 L1980.84 332.952 L1976.14 332.952 L1967.23 309.249 L1967.23 339.596 L1962.69 339.596 L1962.69 305.036 Z" fill="#000000" fill-rule="nonzero" fill-opacity="1" /><path clip-path="url(#clip970)" d="M2023.11 347.466 L2023.11 350.776 L1998.48 350.776 L1998.48 347.466 L2023.11 347.466 Z" fill="#000000" fill-rule="nonzero" fill-opacity="1" /><path clip-path="url(#clip970)" d="M2038.85 309.642 L2032.51 326.841 L2045.22 326.841 L2038.85 309.642 M2036.21 305.036 L2041.51 305.036 L2054.68 339.596 L2049.82 339.596 L2046.67 330.73 L2031.1 330.73 L2027.95 339.596 L2023.02 339.596 L2036.21 305.036 Z" fill="#000000" fill-rule="nonzero" fill-opacity="1" /><path clip-path="url(#clip970)" d="M2081.1 323.948 L2081.1 339.596 L2076.84 339.596 L2076.84 324.087 Q2076.84 320.406 2075.4 318.577 Q2073.97 316.749 2071.1 316.749 Q2067.65 316.749 2065.66 318.948 Q2063.67 321.147 2063.67 324.943 L2063.67 339.596 L2059.38 339.596 L2059.38 313.67 L2063.67 313.67 L2063.67 317.698 Q2065.19 315.36 2067.25 314.202 Q2069.34 313.045 2072.05 313.045 Q2076.51 313.045 2078.8 315.823 Q2081.1 318.577 2081.1 323.948 Z" fill="#000000" fill-rule="nonzero" fill-opacity="1" /><path clip-path="url(#clip970)" d="M2106.65 317.605 L2106.65 303.577 L2110.91 303.577 L2110.91 339.596 L2106.65 339.596 L2106.65 335.707 Q2105.31 338.022 2103.25 339.156 Q2101.21 340.267 2098.34 340.267 Q2093.64 340.267 2090.68 336.517 Q2087.74 332.767 2087.74 326.656 Q2087.74 320.545 2090.68 316.795 Q2093.64 313.045 2098.34 313.045 Q2101.21 313.045 2103.25 314.179 Q2105.31 315.29 2106.65 317.605 M2092.14 326.656 Q2092.14 331.355 2094.06 334.04 Q2096 336.702 2099.38 336.702 Q2102.76 336.702 2104.71 334.04 Q2106.65 331.355 2106.65 326.656 Q2106.65 321.957 2104.71 319.295 Q2102.76 316.61 2099.38 316.61 Q2096 316.61 2094.06 319.295 Q2092.14 321.957 2092.14 326.656 Z" fill="#000000" fill-rule="nonzero" fill-opacity="1" /><path clip-path="url(#clip970)" d="M2134.71 317.651 Q2133.99 317.235 2133.13 317.05 Q2132.3 316.841 2131.28 316.841 Q2127.67 316.841 2125.73 319.202 Q2123.8 321.54 2123.8 325.938 L2123.8 339.596 L2119.52 339.596 L2119.52 313.67 L2123.8 313.67 L2123.8 317.698 Q2125.15 315.337 2127.3 314.202 Q2129.45 313.045 2132.53 313.045 Q2132.97 313.045 2133.5 313.114 Q2134.04 313.161 2134.68 313.276 L2134.71 317.651 Z" fill="#000000" fill-rule="nonzero" fill-opacity="1" /><path clip-path="url(#clip970)" d="M2160.31 325.568 L2160.31 327.651 L2140.73 327.651 Q2141 332.049 2143.36 334.364 Q2145.75 336.656 2149.98 336.656 Q2152.44 336.656 2154.73 336.054 Q2157.04 335.452 2159.31 334.249 L2159.31 338.276 Q2157.02 339.248 2154.61 339.758 Q2152.21 340.267 2149.73 340.267 Q2143.53 340.267 2139.89 336.656 Q2136.28 333.045 2136.28 326.887 Q2136.28 320.522 2139.71 316.795 Q2143.16 313.045 2148.99 313.045 Q2154.22 313.045 2157.25 316.425 Q2160.31 319.781 2160.31 325.568 M2156.05 324.318 Q2156 320.823 2154.08 318.739 Q2152.18 316.656 2149.04 316.656 Q2145.47 316.656 2143.32 318.67 Q2141.19 320.684 2140.86 324.341 L2156.05 324.318 Z" fill="#000000" fill-rule="nonzero" fill-opacity="1" /><path clip-path="url(#clip970)" d="M2167.3 313.67 L2171.56 313.67 L2171.56 339.596 L2167.3 339.596 L2167.3 313.67 M2167.3 303.577 L2171.56 303.577 L2171.56 308.971 L2167.3 308.971 L2167.3 303.577 Z" fill="#000000" fill-rule="nonzero" fill-opacity="1" /><polyline clip-path="url(#clip970)" style="stroke:#c271d2; stroke-linecap:round; stroke-linejoin:round; stroke-width:4; stroke-opacity:1; fill:none" points="1772.88,374.156 1912.94,374.156 "/>
<path clip-path="url(#clip970)" d="M1936.28 356.876 L1940.96 356.876 L1940.96 387.501 L1957.79 387.501 L1957.79 391.436 L1936.28 391.436 L1936.28 356.876 Z" fill="#000000" fill-rule="nonzero" fill-opacity="1" /><path clip-path="url(#clip970)" d="M1962.69 356.876 L1969.66 356.876 L1978.48 380.394 L1987.35 356.876 L1994.31 356.876 L1994.31 391.436 L1989.75 391.436 L1989.75 361.089 L1980.84 384.792 L1976.14 384.792 L1967.23 361.089 L1967.23 391.436 L1962.69 391.436 L1962.69 356.876 Z" fill="#000000" fill-rule="nonzero" fill-opacity="1" /><path clip-path="url(#clip970)" d="M2023.11 399.306 L2023.11 402.616 L1998.48 402.616 L1998.48 399.306 L2023.11 399.306 Z" fill="#000000" fill-rule="nonzero" fill-opacity="1" /><path clip-path="url(#clip970)" d="M2048.02 358.01 L2048.02 362.57 Q2045.36 361.297 2042.99 360.672 Q2040.63 360.047 2038.43 360.047 Q2034.61 360.047 2032.53 361.528 Q2030.47 363.01 2030.47 365.741 Q2030.47 368.033 2031.84 369.214 Q2033.23 370.371 2037.07 371.089 L2039.89 371.667 Q2045.12 372.663 2047.6 375.186 Q2050.1 377.686 2050.1 381.899 Q2050.1 386.922 2046.72 389.514 Q2043.36 392.107 2036.86 392.107 Q2034.41 392.107 2031.63 391.551 Q2028.87 390.996 2025.91 389.908 L2025.91 385.093 Q2028.76 386.69 2031.49 387.501 Q2034.22 388.311 2036.86 388.311 Q2040.86 388.311 2043.04 386.737 Q2045.22 385.163 2045.22 382.246 Q2045.22 379.7 2043.64 378.264 Q2042.09 376.829 2038.53 376.112 L2035.68 375.556 Q2030.45 374.515 2028.11 372.292 Q2025.77 370.07 2025.77 366.112 Q2025.77 361.528 2028.99 358.89 Q2032.23 356.251 2037.9 356.251 Q2040.33 356.251 2042.86 356.691 Q2045.38 357.13 2048.02 358.01 Z" fill="#000000" fill-rule="nonzero" fill-opacity="1" /><path clip-path="url(#clip970)" d="M2062.07 360.718 L2062.07 373.704 L2067.95 373.704 Q2071.21 373.704 2072.99 372.015 Q2074.78 370.325 2074.78 367.2 Q2074.78 364.098 2072.99 362.408 Q2071.21 360.718 2067.95 360.718 L2062.07 360.718 M2057.39 356.876 L2067.95 356.876 Q2073.76 356.876 2076.72 359.515 Q2079.71 362.13 2079.71 367.2 Q2079.71 372.315 2076.72 374.931 Q2073.76 377.547 2067.95 377.547 L2062.07 377.547 L2062.07 391.436 L2057.39 391.436 L2057.39 356.876 Z" fill="#000000" fill-rule="nonzero" fill-opacity="1" /><path clip-path="url(#clip970)" d="M2109.54 386.505 L2109.54 377.223 L2101.91 377.223 L2101.91 373.38 L2114.17 373.38 L2114.17 388.218 Q2111.47 390.139 2108.2 391.135 Q2104.94 392.107 2101.23 392.107 Q2093.13 392.107 2088.55 387.385 Q2083.99 382.639 2083.99 374.19 Q2083.99 365.718 2088.55 360.996 Q2093.13 356.251 2101.23 356.251 Q2104.61 356.251 2107.65 357.084 Q2110.7 357.917 2113.27 359.538 L2113.27 364.515 Q2110.68 362.316 2107.76 361.204 Q2104.85 360.093 2101.63 360.093 Q2095.29 360.093 2092.09 363.635 Q2088.92 367.177 2088.92 374.19 Q2088.92 381.181 2092.09 384.723 Q2095.29 388.264 2101.63 388.264 Q2104.11 388.264 2106.05 387.848 Q2107.99 387.408 2109.54 386.505 Z" fill="#000000" fill-rule="nonzero" fill-opacity="1" /><path clip-path="url(#clip970)" d="M2142.23 399.306 L2142.23 402.616 L2117.6 402.616 L2117.6 399.306 L2142.23 399.306 Z" fill="#000000" fill-rule="nonzero" fill-opacity="1" /><path clip-path="url(#clip970)" d="M2158.02 378.403 Q2152.85 378.403 2150.86 379.584 Q2148.87 380.764 2148.87 383.612 Q2148.87 385.88 2150.35 387.223 Q2151.86 388.542 2154.43 388.542 Q2157.97 388.542 2160.1 386.042 Q2162.25 383.519 2162.25 379.352 L2162.25 378.403 L2158.02 378.403 M2166.51 376.644 L2166.51 391.436 L2162.25 391.436 L2162.25 387.501 Q2160.79 389.862 2158.62 390.996 Q2156.44 392.107 2153.29 392.107 Q2149.31 392.107 2146.95 389.885 Q2144.61 387.639 2144.61 383.889 Q2144.61 379.514 2147.53 377.292 Q2150.47 375.07 2156.28 375.07 L2162.25 375.07 L2162.25 374.653 Q2162.25 371.714 2160.31 370.116 Q2158.39 368.496 2154.89 368.496 Q2152.67 368.496 2150.56 369.028 Q2148.46 369.561 2146.51 370.626 L2146.51 366.69 Q2148.85 365.788 2151.05 365.348 Q2153.25 364.885 2155.33 364.885 Q2160.96 364.885 2163.73 367.802 Q2166.51 370.718 2166.51 376.644 Z" fill="#000000" fill-rule="nonzero" fill-opacity="1" /><path clip-path="url(#clip970)" d="M2175.29 355.417 L2179.54 355.417 L2179.54 391.436 L2175.29 391.436 L2175.29 355.417 Z" fill="#000000" fill-rule="nonzero" fill-opacity="1" /><path clip-path="url(#clip970)" d="M2192.67 358.149 L2192.67 365.51 L2201.44 365.51 L2201.44 368.82 L2192.67 368.82 L2192.67 382.894 Q2192.67 386.065 2193.53 386.968 Q2194.41 387.871 2197.07 387.871 L2201.44 387.871 L2201.44 391.436 L2197.07 391.436 Q2192.14 391.436 2190.26 389.607 Q2188.39 387.755 2188.39 382.894 L2188.39 368.82 L2185.26 368.82 L2185.26 365.51 L2188.39 365.51 L2188.39 358.149 L2192.67 358.149 Z" fill="#000000" fill-rule="nonzero" fill-opacity="1" /><polyline clip-path="url(#clip970)" style="stroke:#ac8d18; stroke-linecap:round; stroke-linejoin:round; stroke-width:4; stroke-opacity:1; fill:none" points="1772.88,425.996 1912.94,425.996 "/>
<path clip-path="url(#clip970)" d="M1936.28 408.716 L1940.96 408.716 L1940.96 439.341 L1957.79 439.341 L1957.79 443.276 L1936.28 443.276 L1936.28 408.716 Z" fill="#000000" fill-rule="nonzero" fill-opacity="1" /><path clip-path="url(#clip970)" d="M1962.69 408.716 L1969.66 408.716 L1978.48 432.234 L1987.35 408.716 L1994.31 408.716 L1994.31 443.276 L1989.75 443.276 L1989.75 412.929 L1980.84 436.632 L1976.14 436.632 L1967.23 412.929 L1967.23 443.276 L1962.69 443.276 L1962.69 408.716 Z" fill="#000000" fill-rule="nonzero" fill-opacity="1" /></svg>
