<?xml version="1.0" encoding="utf-8"?>
<svg xmlns="http://www.w3.org/2000/svg" xmlns:xlink="http://www.w3.org/1999/xlink" width="600" height="400" viewBox="0 0 2400 1600">
<defs>
  <clipPath id="clip130">
    <rect x="0" y="0" width="2400" height="1600"/>
  </clipPath>
</defs>
<path clip-path="url(#clip130)" d="M0 1600 L2400 1600 L2400 0 L0 0  Z" fill="#ffffff" fill-rule="evenodd" fill-opacity="1"/>
<defs>
  <clipPath id="clip131">
    <rect x="480" y="0" width="1681" height="1600"/>
  </clipPath>
</defs>
<path clip-path="url(#clip130)" d="M251.372 1423.18 L2352.76 1423.18 L2352.76 123.472 L251.372 123.472  Z" fill="#ffffff" fill-rule="evenodd" fill-opacity="1"/>
<defs>
  <clipPath id="clip132">
    <rect x="251" y="123" width="2102" height="1301"/>
  </clipPath>
</defs>
<polyline clip-path="url(#clip132)" style="stroke:#000000; stroke-linecap:round; stroke-linejoin:round; stroke-width:2; stroke-opacity:0.1; fill:none" points="308.863,1423.18 308.863,123.472 "/>
<polyline clip-path="url(#clip132)" style="stroke:#000000; stroke-linecap:round; stroke-linejoin:round; stroke-width:2; stroke-opacity:0.1; fill:none" points="804.472,1423.18 804.472,123.472 "/>
<polyline clip-path="url(#clip132)" style="stroke:#000000; stroke-linecap:round; stroke-linejoin:round; stroke-width:2; stroke-opacity:0.1; fill:none" points="1300.08,1423.18 1300.08,123.472 "/>
<polyline clip-path="url(#clip132)" style="stroke:#000000; stroke-linecap:round; stroke-linejoin:round; stroke-width:2; stroke-opacity:0.1; fill:none" points="1795.69,1423.18 1795.69,123.472 "/>
<polyline clip-path="url(#clip132)" style="stroke:#000000; stroke-linecap:round; stroke-linejoin:round; stroke-width:2; stroke-opacity:0.1; fill:none" points="2291.3,1423.18 2291.3,123.472 "/>
<polyline clip-path="url(#clip130)" style="stroke:#000000; stroke-linecap:round; stroke-linejoin:round; stroke-width:4; stroke-opacity:1; fill:none" points="251.372,1423.18 2352.76,1423.18 "/>
<polyline clip-path="url(#clip130)" style="stroke:#000000; stroke-linecap:round; stroke-linejoin:round; stroke-width:4; stroke-opacity:1; fill:none" points="308.863,1423.18 308.863,1404.28 "/>
<polyline clip-path="url(#clip130)" style="stroke:#000000; stroke-linecap:round; stroke-linejoin:round; stroke-width:4; stroke-opacity:1; fill:none" points="804.472,1423.18 804.472,1404.28 "/>
<polyline clip-path="url(#clip130)" style="stroke:#000000; stroke-linecap:round; stroke-linejoin:round; stroke-width:4; stroke-opacity:1; fill:none" points="1300.08,1423.18 1300.08,1404.28 "/>
<polyline clip-path="url(#clip130)" style="stroke:#000000; stroke-linecap:round; stroke-linejoin:round; stroke-width:4; stroke-opacity:1; fill:none" points="1795.69,1423.18 1795.69,1404.28 "/>
<polyline clip-path="url(#clip130)" style="stroke:#000000; stroke-linecap:round; stroke-linejoin:round; stroke-width:4; stroke-opacity:1; fill:none" points="2291.3,1423.18 2291.3,1404.28 "/>
<path clip-path="url(#clip130)" d="M308.863 1454.1 Q305.252 1454.1 303.423 1457.66 Q301.618 1461.2 301.618 1468.33 Q301.618 1475.44 303.423 1479.01 Q305.252 1482.55 308.863 1482.55 Q312.497 1482.55 314.303 1479.01 Q316.131 1475.44 316.131 1468.33 Q316.131 1461.2 314.303 1457.66 Q312.497 1454.1 308.863 1454.1 M308.863 1450.39 Q314.673 1450.39 317.729 1455 Q320.807 1459.58 320.807 1468.33 Q320.807 1477.06 317.729 1481.67 Q314.673 1486.25 308.863 1486.25 Q303.053 1486.25 299.974 1481.67 Q296.918 1477.06 296.918 1468.33 Q296.918 1459.58 299.974 1455 Q303.053 1450.39 308.863 1450.39 Z" fill="#000000" fill-rule="nonzero" fill-opacity="1" /><path clip-path="url(#clip130)" d="M768.165 1481.64 L784.484 1481.64 L784.484 1485.58 L762.54 1485.58 L762.54 1481.64 Q765.202 1478.89 769.785 1474.26 Q774.391 1469.61 775.572 1468.27 Q777.817 1465.74 778.697 1464.01 Q779.6 1462.25 779.6 1460.56 Q779.6 1457.8 777.655 1456.07 Q775.734 1454.33 772.632 1454.33 Q770.433 1454.33 767.979 1455.09 Q765.549 1455.86 762.771 1457.41 L762.771 1452.69 Q765.595 1451.55 768.049 1450.97 Q770.503 1450.39 772.54 1450.39 Q777.91 1450.39 781.104 1453.08 Q784.299 1455.77 784.299 1460.26 Q784.299 1462.39 783.489 1464.31 Q782.702 1466.2 780.595 1468.8 Q780.016 1469.47 776.915 1472.69 Q773.813 1475.88 768.165 1481.64 Z" fill="#000000" fill-rule="nonzero" fill-opacity="1" /><path clip-path="url(#clip130)" d="M794.345 1451.02 L812.701 1451.02 L812.701 1454.96 L798.627 1454.96 L798.627 1463.43 Q799.646 1463.08 800.664 1462.92 Q801.683 1462.73 802.701 1462.73 Q808.488 1462.73 811.868 1465.9 Q815.248 1469.08 815.248 1474.49 Q815.248 1480.07 811.775 1483.17 Q808.303 1486.25 801.984 1486.25 Q799.808 1486.25 797.539 1485.88 Q795.294 1485.51 792.887 1484.77 L792.887 1480.07 Q794.97 1481.2 797.192 1481.76 Q799.414 1482.32 801.891 1482.32 Q805.896 1482.32 808.234 1480.21 Q810.572 1478.1 810.572 1474.49 Q810.572 1470.88 808.234 1468.77 Q805.896 1466.67 801.891 1466.67 Q800.016 1466.67 798.141 1467.08 Q796.289 1467.5 794.345 1468.38 L794.345 1451.02 Z" fill="#000000" fill-rule="nonzero" fill-opacity="1" /><path clip-path="url(#clip130)" d="M834.46 1454.1 Q830.849 1454.1 829.021 1457.66 Q827.215 1461.2 827.215 1468.33 Q827.215 1475.44 829.021 1479.01 Q830.849 1482.55 834.46 1482.55 Q838.095 1482.55 839.9 1479.01 Q841.729 1475.44 841.729 1468.33 Q841.729 1461.2 839.9 1457.66 Q838.095 1454.1 834.46 1454.1 M834.46 1450.39 Q840.271 1450.39 843.326 1455 Q846.405 1459.58 846.405 1468.33 Q846.405 1477.06 843.326 1481.67 Q840.271 1486.25 834.46 1486.25 Q828.65 1486.25 825.572 1481.67 Q822.516 1477.06 822.516 1468.33 Q822.516 1459.58 825.572 1455 Q828.65 1450.39 834.46 1450.39 Z" fill="#000000" fill-rule="nonzero" fill-opacity="1" /><path clip-path="url(#clip130)" d="M1259.7 1451.02 L1278.06 1451.02 L1278.06 1454.96 L1263.98 1454.96 L1263.98 1463.43 Q1265 1463.08 1266.02 1462.92 Q1267.04 1462.73 1268.06 1462.73 Q1273.84 1462.73 1277.22 1465.9 Q1280.6 1469.08 1280.6 1474.49 Q1280.6 1480.07 1277.13 1483.17 Q1273.66 1486.25 1267.34 1486.25 Q1265.16 1486.25 1262.89 1485.88 Q1260.65 1485.51 1258.24 1484.77 L1258.24 1480.07 Q1260.32 1481.2 1262.55 1481.76 Q1264.77 1482.32 1267.25 1482.32 Q1271.25 1482.32 1273.59 1480.21 Q1275.93 1478.1 1275.93 1474.49 Q1275.93 1470.88 1273.59 1468.77 Q1271.25 1466.67 1267.25 1466.67 Q1265.37 1466.67 1263.5 1467.08 Q1261.64 1467.5 1259.7 1468.38 L1259.7 1451.02 Z" fill="#000000" fill-rule="nonzero" fill-opacity="1" /><path clip-path="url(#clip130)" d="M1299.82 1454.1 Q1296.2 1454.1 1294.38 1457.66 Q1292.57 1461.2 1292.57 1468.33 Q1292.57 1475.44 1294.38 1479.01 Q1296.2 1482.55 1299.82 1482.55 Q1303.45 1482.55 1305.26 1479.01 Q1307.08 1475.44 1307.08 1468.33 Q1307.08 1461.2 1305.26 1457.66 Q1303.45 1454.1 1299.82 1454.1 M1299.82 1450.39 Q1305.63 1450.39 1308.68 1455 Q1311.76 1459.58 1311.76 1468.33 Q1311.76 1477.06 1308.68 1481.67 Q1305.63 1486.25 1299.82 1486.25 Q1294.01 1486.25 1290.93 1481.67 Q1287.87 1477.06 1287.87 1468.33 Q1287.87 1459.58 1290.93 1455 Q1294.01 1450.39 1299.82 1450.39 Z" fill="#000000" fill-rule="nonzero" fill-opacity="1" /><path clip-path="url(#clip130)" d="M1329.98 1454.1 Q1326.37 1454.1 1324.54 1457.66 Q1322.73 1461.2 1322.73 1468.33 Q1322.73 1475.44 1324.54 1479.01 Q1326.37 1482.55 1329.98 1482.55 Q1333.61 1482.55 1335.42 1479.01 Q1337.25 1475.44 1337.25 1468.33 Q1337.25 1461.2 1335.42 1457.66 Q1333.61 1454.1 1329.98 1454.1 M1329.98 1450.39 Q1335.79 1450.39 1338.84 1455 Q1341.92 1459.58 1341.92 1468.33 Q1341.92 1477.06 1338.84 1481.67 Q1335.79 1486.25 1329.98 1486.25 Q1324.17 1486.25 1321.09 1481.67 Q1318.03 1477.06 1318.03 1468.33 Q1318.03 1459.58 1321.09 1455 Q1324.17 1450.39 1329.98 1450.39 Z" fill="#000000" fill-rule="nonzero" fill-opacity="1" /><path clip-path="url(#clip130)" d="M1753.97 1451.02 L1776.19 1451.02 L1776.19 1453.01 L1763.64 1485.58 L1758.76 1485.58 L1770.56 1454.96 L1753.97 1454.96 L1753.97 1451.02 Z" fill="#000000" fill-rule="nonzero" fill-opacity="1" /><path clip-path="url(#clip130)" d="M1785.36 1451.02 L1803.71 1451.02 L1803.71 1454.96 L1789.64 1454.96 L1789.64 1463.43 Q1790.66 1463.08 1791.67 1462.92 Q1792.69 1462.73 1793.71 1462.73 Q1799.5 1462.73 1802.88 1465.9 Q1806.26 1469.08 1806.26 1474.49 Q1806.26 1480.07 1802.79 1483.17 Q1799.31 1486.25 1792.99 1486.25 Q1790.82 1486.25 1788.55 1485.88 Q1786.3 1485.51 1783.9 1484.77 L1783.9 1480.07 Q1785.98 1481.2 1788.2 1481.76 Q1790.42 1482.32 1792.9 1482.32 Q1796.91 1482.32 1799.24 1480.21 Q1801.58 1478.1 1801.58 1474.49 Q1801.58 1470.88 1799.24 1468.77 Q1796.91 1466.67 1792.9 1466.67 Q1791.03 1466.67 1789.15 1467.08 Q1787.3 1467.5 1785.36 1468.38 L1785.36 1451.02 Z" fill="#000000" fill-rule="nonzero" fill-opacity="1" /><path clip-path="url(#clip130)" d="M1825.47 1454.1 Q1821.86 1454.1 1820.03 1457.66 Q1818.23 1461.2 1818.23 1468.33 Q1818.23 1475.44 1820.03 1479.01 Q1821.86 1482.55 1825.47 1482.55 Q1829.11 1482.55 1830.91 1479.01 Q1832.74 1475.44 1832.74 1468.33 Q1832.74 1461.2 1830.91 1457.66 Q1829.11 1454.1 1825.47 1454.1 M1825.47 1450.39 Q1831.28 1450.39 1834.34 1455 Q1837.42 1459.58 1837.42 1468.33 Q1837.42 1477.06 1834.34 1481.67 Q1831.28 1486.25 1825.47 1486.25 Q1819.66 1486.25 1816.58 1481.67 Q1813.53 1477.06 1813.53 1468.33 Q1813.53 1459.58 1816.58 1455 Q1819.66 1450.39 1825.47 1450.39 Z" fill="#000000" fill-rule="nonzero" fill-opacity="1" /><path clip-path="url(#clip130)" d="M2235.83 1481.64 L2243.46 1481.64 L2243.46 1455.28 L2235.15 1456.95 L2235.15 1452.69 L2243.42 1451.02 L2248.09 1451.02 L2248.09 1481.64 L2255.73 1481.64 L2255.73 1485.58 L2235.83 1485.58 L2235.83 1481.64 Z" fill="#000000" fill-rule="nonzero" fill-opacity="1" /><path clip-path="url(#clip130)" d="M2275.18 1454.1 Q2271.57 1454.1 2269.74 1457.66 Q2267.93 1461.2 2267.93 1468.33 Q2267.93 1475.44 2269.74 1479.01 Q2271.57 1482.55 2275.18 1482.55 Q2278.81 1482.55 2280.62 1479.01 Q2282.45 1475.44 2282.45 1468.33 Q2282.45 1461.2 2280.62 1457.66 Q2278.81 1454.1 2275.18 1454.1 M2275.18 1450.39 Q2280.99 1450.39 2284.04 1455 Q2287.12 1459.58 2287.12 1468.33 Q2287.12 1477.06 2284.04 1481.67 Q2280.99 1486.25 2275.18 1486.25 Q2269.37 1486.25 2266.29 1481.67 Q2263.23 1477.06 2263.23 1468.33 Q2263.23 1459.58 2266.29 1455 Q2269.37 1450.39 2275.18 1450.39 Z" fill="#000000" fill-rule="nonzero" fill-opacity="1" /><path clip-path="url(#clip130)" d="M2305.34 1454.1 Q2301.73 1454.1 2299.9 1457.66 Q2298.09 1461.2 2298.09 1468.33 Q2298.09 1475.44 2299.9 1479.01 Q2301.73 1482.55 2305.34 1482.55 Q2308.97 1482.55 2310.78 1479.01 Q2312.61 1475.44 2312.61 1468.33 Q2312.61 1461.2 2310.78 1457.66 Q2308.97 1454.1 2305.34 1454.1 M2305.34 1450.39 Q2311.15 1450.39 2314.21 1455 Q2317.28 1459.58 2317.28 1468.33 Q2317.28 1477.06 2314.21 1481.67 Q2311.15 1486.25 2305.34 1486.25 Q2299.53 1486.25 2296.45 1481.67 Q2293.4 1477.06 2293.4 1468.33 Q2293.4 1459.58 2296.45 1455 Q2299.53 1450.39 2305.34 1450.39 Z" fill="#000000" fill-rule="nonzero" fill-opacity="1" /><path clip-path="url(#clip130)" d="M2335.5 1454.1 Q2331.89 1454.1 2330.06 1457.66 Q2328.26 1461.2 2328.26 1468.33 Q2328.26 1475.44 2330.06 1479.01 Q2331.89 1482.55 2335.5 1482.55 Q2339.14 1482.55 2340.94 1479.01 Q2342.77 1475.44 2342.77 1468.33 Q2342.77 1461.2 2340.94 1457.66 Q2339.14 1454.1 2335.5 1454.1 M2335.5 1450.39 Q2341.31 1450.39 2344.37 1455 Q2347.45 1459.58 2347.45 1468.33 Q2347.45 1477.06 2344.37 1481.67 Q2341.31 1486.25 2335.5 1486.25 Q2329.69 1486.25 2326.61 1481.67 Q2323.56 1477.06 2323.56 1468.33 Q2323.56 1459.58 2326.61 1455 Q2329.69 1450.39 2335.5 1450.39 Z" fill="#000000" fill-rule="nonzero" fill-opacity="1" /><path clip-path="url(#clip130)" d="M1286.25 1518.52 L1292.13 1518.52 L1292.13 1547.77 L1309.61 1532.4 L1317.09 1532.4 L1298.18 1549.07 L1317.88 1568.04 L1310.24 1568.04 L1292.13 1550.63 L1292.13 1568.04 L1286.25 1568.04 L1286.25 1518.52 Z" fill="#000000" fill-rule="nonzero" fill-opacity="1" /><polyline clip-path="url(#clip132)" style="stroke:#000000; stroke-linecap:round; stroke-linejoin:round; stroke-width:2; stroke-opacity:0.1; fill:none" points="251.372,1137.57 2352.76,1137.57 "/>
<polyline clip-path="url(#clip132)" style="stroke:#000000; stroke-linecap:round; stroke-linejoin:round; stroke-width:2; stroke-opacity:0.1; fill:none" points="251.372,797.033 2352.76,797.033 "/>
<polyline clip-path="url(#clip132)" style="stroke:#000000; stroke-linecap:round; stroke-linejoin:round; stroke-width:2; stroke-opacity:0.1; fill:none" points="251.372,456.492 2352.76,456.492 "/>
<polyline clip-path="url(#clip130)" style="stroke:#000000; stroke-linecap:round; stroke-linejoin:round; stroke-width:4; stroke-opacity:1; fill:none" points="251.372,1423.18 251.372,123.472 "/>
<polyline clip-path="url(#clip130)" style="stroke:#000000; stroke-linecap:round; stroke-linejoin:round; stroke-width:4; stroke-opacity:1; fill:none" points="251.372,1137.57 270.27,1137.57 "/>
<polyline clip-path="url(#clip130)" style="stroke:#000000; stroke-linecap:round; stroke-linejoin:round; stroke-width:4; stroke-opacity:1; fill:none" points="251.372,797.033 270.27,797.033 "/>
<polyline clip-path="url(#clip130)" style="stroke:#000000; stroke-linecap:round; stroke-linejoin:round; stroke-width:4; stroke-opacity:1; fill:none" points="251.372,456.492 270.27,456.492 "/>
<path clip-path="url(#clip130)" d="M115.232 1157.37 L122.871 1157.37 L122.871 1131 L114.561 1132.67 L114.561 1128.41 L122.825 1126.74 L127.501 1126.74 L127.501 1157.37 L135.14 1157.37 L135.14 1161.3 L115.232 1161.3 L115.232 1157.37 Z" fill="#000000" fill-rule="nonzero" fill-opacity="1" /><path clip-path="url(#clip130)" d="M154.584 1129.82 Q150.973 1129.82 149.144 1133.39 Q147.339 1136.93 147.339 1144.06 Q147.339 1151.16 149.144 1154.73 Q150.973 1158.27 154.584 1158.27 Q158.218 1158.27 160.024 1154.73 Q161.852 1151.16 161.852 1144.06 Q161.852 1136.93 160.024 1133.39 Q158.218 1129.82 154.584 1129.82 M154.584 1126.12 Q160.394 1126.12 163.45 1130.72 Q166.528 1135.31 166.528 1144.06 Q166.528 1152.78 163.45 1157.39 Q160.394 1161.97 154.584 1161.97 Q148.774 1161.97 145.695 1157.39 Q142.64 1152.78 142.64 1144.06 Q142.64 1135.31 145.695 1130.72 Q148.774 1126.12 154.584 1126.12 Z" fill="#000000" fill-rule="nonzero" fill-opacity="1" /><path clip-path="url(#clip130)" d="M166.528 1120.22 L190.64 1120.22 L190.64 1123.42 L166.528 1123.42 L166.528 1120.22 Z" fill="#000000" fill-rule="nonzero" fill-opacity="1" /><path clip-path="url(#clip130)" d="M202.113 1130.69 L215.372 1130.69 L215.372 1133.89 L197.542 1133.89 L197.542 1130.69 Q199.705 1128.46 203.429 1124.7 Q207.172 1120.91 208.131 1119.82 Q209.956 1117.77 210.67 1116.36 Q211.404 1114.93 211.404 1113.56 Q211.404 1111.32 209.824 1109.91 Q208.263 1108.5 205.743 1108.5 Q203.956 1108.5 201.962 1109.12 Q199.987 1109.74 197.73 1111 L197.73 1107.17 Q200.025 1106.24 202.019 1105.77 Q204.012 1105.3 205.667 1105.3 Q210.031 1105.3 212.626 1107.49 Q215.222 1109.67 215.222 1113.32 Q215.222 1115.05 214.563 1116.61 Q213.924 1118.15 212.212 1120.26 Q211.742 1120.8 209.222 1123.42 Q206.702 1126.01 202.113 1130.69 Z" fill="#000000" fill-rule="nonzero" fill-opacity="1" /><path clip-path="url(#clip130)" d="M114.931 816.826 L122.57 816.826 L122.57 790.46 L114.26 792.127 L114.26 787.867 L122.524 786.201 L127.2 786.201 L127.2 816.826 L134.839 816.826 L134.839 820.761 L114.931 820.761 L114.931 816.826 Z" fill="#000000" fill-rule="nonzero" fill-opacity="1" /><path clip-path="url(#clip130)" d="M154.283 789.28 Q150.672 789.28 148.843 792.844 Q147.038 796.386 147.038 803.516 Q147.038 810.622 148.843 814.187 Q150.672 817.728 154.283 817.728 Q157.917 817.728 159.723 814.187 Q161.552 810.622 161.552 803.516 Q161.552 796.386 159.723 792.844 Q157.917 789.28 154.283 789.28 M154.283 785.576 Q160.093 785.576 163.149 790.182 Q166.227 794.766 166.227 803.516 Q166.227 812.242 163.149 816.849 Q160.093 821.432 154.283 821.432 Q148.473 821.432 145.394 816.849 Q142.339 812.242 142.339 803.516 Q142.339 794.766 145.394 790.182 Q148.473 785.576 154.283 785.576 Z" fill="#000000" fill-rule="nonzero" fill-opacity="1" /><path clip-path="url(#clip130)" d="M166.227 779.677 L190.339 779.677 L190.339 782.875 L166.227 782.875 L166.227 779.677 Z" fill="#000000" fill-rule="nonzero" fill-opacity="1" /><path clip-path="url(#clip130)" d="M199.197 790.153 L205.404 790.153 L205.404 768.731 L198.652 770.085 L198.652 766.625 L205.366 765.27 L209.166 765.27 L209.166 790.153 L215.372 790.153 L215.372 793.35 L199.197 793.35 L199.197 790.153 Z" fill="#000000" fill-rule="nonzero" fill-opacity="1" /><path clip-path="url(#clip130)" d="M144.667 476.284 L152.305 476.284 L152.305 449.918 L143.995 451.585 L143.995 447.326 L152.259 445.659 L156.935 445.659 L156.935 476.284 L164.574 476.284 L164.574 480.219 L144.667 480.219 L144.667 476.284 Z" fill="#000000" fill-rule="nonzero" fill-opacity="1" /><path clip-path="url(#clip130)" d="M184.018 448.738 Q180.407 448.738 178.578 452.303 Q176.773 455.844 176.773 462.974 Q176.773 470.08 178.578 473.645 Q180.407 477.187 184.018 477.187 Q187.652 477.187 189.458 473.645 Q191.287 470.08 191.287 462.974 Q191.287 455.844 189.458 452.303 Q187.652 448.738 184.018 448.738 M184.018 445.034 Q189.828 445.034 192.884 449.641 Q195.963 454.224 195.963 462.974 Q195.963 471.701 192.884 476.307 Q189.828 480.89 184.018 480.89 Q178.208 480.89 175.129 476.307 Q172.074 471.701 172.074 462.974 Q172.074 454.224 175.129 449.641 Q178.208 445.034 184.018 445.034 Z" fill="#000000" fill-rule="nonzero" fill-opacity="1" /><path clip-path="url(#clip130)" d="M205.667 427.23 Q202.733 427.23 201.248 430.127 Q199.781 433.004 199.781 438.797 Q199.781 444.571 201.248 447.467 Q202.733 450.345 205.667 450.345 Q208.62 450.345 210.087 447.467 Q211.573 444.571 211.573 438.797 Q211.573 433.004 210.087 430.127 Q208.62 427.23 205.667 427.23 M205.667 424.221 Q210.388 424.221 212.871 427.964 Q215.372 431.688 215.372 438.797 Q215.372 445.887 212.871 449.63 Q210.388 453.354 205.667 453.354 Q200.947 453.354 198.445 449.63 Q195.963 445.887 195.963 438.797 Q195.963 431.688 198.445 427.964 Q200.947 424.221 205.667 424.221 Z" fill="#000000" fill-rule="nonzero" fill-opacity="1" /><path clip-path="url(#clip130)" d="M32.4621 801.797 Q32.4621 806.507 36.1542 809.244 Q39.8145 811.982 46.212 811.982 Q52.6095 811.982 56.3017 809.276 Q59.9619 806.539 59.9619 801.797 Q59.9619 797.118 56.2698 794.381 Q52.5777 791.643 46.212 791.643 Q39.8781 791.643 36.186 794.381 Q32.4621 797.118 32.4621 801.797 M27.4968 801.797 Q27.4968 794.158 32.4621 789.797 Q37.4273 785.437 46.212 785.437 Q54.9649 785.437 59.9619 789.797 Q64.9272 794.158 64.9272 801.797 Q64.9272 809.467 59.9619 813.828 Q54.9649 818.156 46.212 818.156 Q37.4273 818.156 32.4621 813.828 Q27.4968 809.467 27.4968 801.797 Z" fill="#000000" fill-rule="nonzero" fill-opacity="1" /><path clip-path="url(#clip130)" d="M46.212 750.139 Q39.7508 750.139 36.0905 752.812 Q32.3984 755.454 32.3984 760.101 Q32.3984 764.748 36.0905 767.422 Q39.7508 770.064 46.212 770.064 Q52.6732 770.064 56.3653 767.422 Q60.0256 764.748 60.0256 760.101 Q60.0256 755.454 56.3653 752.812 Q52.6732 750.139 46.212 750.139 M33.7671 770.064 Q30.5842 768.218 29.0564 765.417 Q27.4968 762.584 27.4968 758.669 Q27.4968 752.176 32.6531 748.134 Q37.8093 744.06 46.212 744.06 Q54.6147 744.06 59.771 748.134 Q64.9272 752.176 64.9272 758.669 Q64.9272 762.584 63.3994 765.417 Q61.8398 768.218 58.657 770.064 L64.0042 770.064 L64.0042 775.952 L14.479 775.952 L14.479 770.064 L33.7671 770.064 Z" fill="#000000" fill-rule="nonzero" fill-opacity="1" /><path clip-path="url(#clip130)" d="M28.3562 734.352 L28.3562 728.495 L64.6407 728.495 Q71.452 728.495 74.5076 731.105 Q77.5631 733.684 77.5631 739.445 L77.5631 741.673 L72.5979 741.673 L72.5979 740.113 Q72.5979 736.771 71.0383 735.561 Q69.5105 734.352 64.6407 734.352 L28.3562 734.352 M14.479 734.352 L14.479 728.495 L21.895 728.495 L21.895 734.352 L14.479 734.352 Z" fill="#000000" fill-rule="nonzero" fill-opacity="1" /><path clip-path="url(#clip130)" d="M932.338 65.7705 L932.338 89.8329 L924.844 89.8329 L924.844 27.2059 L932.338 27.2059 L932.338 34.0924 Q934.688 30.0415 938.252 28.0971 Q941.858 26.1121 946.84 26.1121 Q955.104 26.1121 960.249 32.6746 Q965.434 39.2371 965.434 49.9314 Q965.434 60.6258 960.249 67.1883 Q955.104 73.7508 946.84 73.7508 Q941.858 73.7508 938.252 71.8063 Q934.688 69.8214 932.338 65.7705 M957.697 49.9314 Q957.697 41.7081 954.294 37.0496 Q950.932 32.3505 945.017 32.3505 Q939.103 32.3505 935.7 37.0496 Q932.338 41.7081 932.338 49.9314 Q932.338 58.1548 935.7 62.8538 Q939.103 67.5124 945.017 67.5124 Q950.932 67.5124 954.294 62.8538 Q957.697 58.1548 957.697 49.9314 Z" fill="#000000" fill-rule="nonzero" fill-opacity="1" /><path clip-path="url(#clip130)" d="M1004.08 34.1734 Q1002.82 33.4443 1001.32 33.1202 Q999.867 32.7556 998.084 32.7556 Q991.765 32.7556 988.362 36.8875 Q985 40.9789 985 48.6757 L985 72.576 L977.506 72.576 L977.506 27.2059 L985 27.2059 L985 34.2544 Q987.349 30.1225 991.117 28.1376 Q994.884 26.1121 1000.27 26.1121 Q1001.04 26.1121 1001.97 26.2337 Q1002.9 26.3147 1004.04 26.5172 L1004.08 34.1734 Z" fill="#000000" fill-rule="nonzero" fill-opacity="1" /><path clip-path="url(#clip130)" d="M1027.66 32.4315 Q1021.66 32.4315 1018.18 37.1306 Q1014.69 41.7891 1014.69 49.9314 Q1014.69 58.0738 1018.14 62.7728 Q1021.62 67.4314 1027.66 67.4314 Q1033.61 67.4314 1037.09 62.7323 Q1040.58 58.0333 1040.58 49.9314 Q1040.58 41.8701 1037.09 37.1711 Q1033.61 32.4315 1027.66 32.4315 M1027.66 26.1121 Q1037.38 26.1121 1042.93 32.4315 Q1048.48 38.7509 1048.48 49.9314 Q1048.48 61.0714 1042.93 67.4314 Q1037.38 73.7508 1027.66 73.7508 Q1017.89 73.7508 1012.34 67.4314 Q1006.83 61.0714 1006.83 49.9314 Q1006.83 38.7509 1012.34 32.4315 Q1017.89 26.1121 1027.66 26.1121 Z" fill="#000000" fill-rule="nonzero" fill-opacity="1" /><path clip-path="url(#clip130)" d="M1093.4 49.9314 Q1093.4 41.7081 1090 37.0496 Q1086.64 32.3505 1080.72 32.3505 Q1074.81 32.3505 1071.41 37.0496 Q1068.04 41.7081 1068.04 49.9314 Q1068.04 58.1548 1071.41 62.8538 Q1074.81 67.5124 1080.72 67.5124 Q1086.64 67.5124 1090 62.8538 Q1093.4 58.1548 1093.4 49.9314 M1068.04 34.0924 Q1070.39 30.0415 1073.96 28.0971 Q1077.56 26.1121 1082.55 26.1121 Q1090.81 26.1121 1095.95 32.6746 Q1101.14 39.2371 1101.14 49.9314 Q1101.14 60.6258 1095.95 67.1883 Q1090.81 73.7508 1082.55 73.7508 Q1077.56 73.7508 1073.96 71.8063 Q1070.39 69.8214 1068.04 65.7705 L1068.04 72.576 L1060.55 72.576 L1060.55 9.54393 L1068.04 9.54393 L1068.04 34.0924 Z" fill="#000000" fill-rule="nonzero" fill-opacity="1" /><path clip-path="url(#clip130)" d="M1113.49 9.54393 L1120.95 9.54393 L1120.95 72.576 L1113.49 72.576 L1113.49 9.54393 Z" fill="#000000" fill-rule="nonzero" fill-opacity="1" /><path clip-path="url(#clip130)" d="M1175.35 48.0275 L1175.35 51.6733 L1141.08 51.6733 Q1141.57 59.3701 1145.7 63.421 Q1149.87 67.4314 1157.28 67.4314 Q1161.58 67.4314 1165.59 66.3781 Q1169.64 65.3249 1173.61 63.2184 L1173.61 70.267 Q1169.6 71.9684 1165.39 72.8596 Q1161.17 73.7508 1156.84 73.7508 Q1145.98 73.7508 1139.62 67.4314 Q1133.3 61.1119 1133.3 50.3365 Q1133.3 39.1965 1139.3 32.6746 Q1145.33 26.1121 1155.54 26.1121 Q1164.7 26.1121 1170 32.0264 Q1175.35 37.9003 1175.35 48.0275 M1167.9 45.84 Q1167.82 39.7232 1164.45 36.0774 Q1161.13 32.4315 1155.62 32.4315 Q1149.39 32.4315 1145.62 35.9558 Q1141.89 39.4801 1141.32 45.8805 L1167.9 45.84 M1149.22 6.22219 L1160.65 21.3726 L1154.45 21.3726 L1141.24 6.22219 L1149.22 6.22219 Z" fill="#000000" fill-rule="nonzero" fill-opacity="1" /><path clip-path="url(#clip130)" d="M1222.91 35.9153 Q1225.7 30.8922 1229.59 28.5022 Q1233.48 26.1121 1238.75 26.1121 Q1245.84 26.1121 1249.69 31.0947 Q1253.53 36.0368 1253.53 45.1919 L1253.53 72.576 L1246.04 72.576 L1246.04 45.4349 Q1246.04 38.913 1243.73 35.7533 Q1241.42 32.5936 1236.68 32.5936 Q1230.89 32.5936 1227.53 36.4419 Q1224.17 40.2903 1224.17 46.9338 L1224.17 72.576 L1216.67 72.576 L1216.67 45.4349 Q1216.67 38.8725 1214.36 35.7533 Q1212.05 32.5936 1207.23 32.5936 Q1201.52 32.5936 1198.16 36.4824 Q1194.8 40.3308 1194.8 46.9338 L1194.8 72.576 L1187.3 72.576 L1187.3 27.2059 L1194.8 27.2059 L1194.8 34.2544 Q1197.35 30.082 1200.91 28.0971 Q1204.48 26.1121 1209.38 26.1121 Q1214.32 26.1121 1217.76 28.6237 Q1221.25 31.1352 1222.91 35.9153 Z" fill="#000000" fill-rule="nonzero" fill-opacity="1" /><path clip-path="url(#clip130)" d="M1307.21 48.0275 L1307.21 51.6733 L1272.94 51.6733 Q1273.42 59.3701 1277.56 63.421 Q1281.73 67.4314 1289.14 67.4314 Q1293.44 67.4314 1297.45 66.3781 Q1301.5 65.3249 1305.47 63.2184 L1305.47 70.267 Q1301.46 71.9684 1297.24 72.8596 Q1293.03 73.7508 1288.7 73.7508 Q1277.84 73.7508 1271.48 67.4314 Q1265.16 61.1119 1265.16 50.3365 Q1265.16 39.1965 1271.16 32.6746 Q1277.19 26.1121 1287.4 26.1121 Q1296.55 26.1121 1301.86 32.0264 Q1307.21 37.9003 1307.21 48.0275 M1299.76 45.84 Q1299.67 39.7232 1296.31 36.0774 Q1292.99 32.4315 1287.48 32.4315 Q1281.24 32.4315 1277.48 35.9558 Q1273.75 39.4801 1273.18 45.8805 L1299.76 45.84 Z" fill="#000000" fill-rule="nonzero" fill-opacity="1" /><path clip-path="url(#clip130)" d="M1347.72 62.2867 L1356.27 62.2867 L1356.27 72.576 L1347.72 72.576 L1347.72 62.2867 M1347.72 29.6769 L1356.27 29.6769 L1356.27 39.9662 L1347.72 39.9662 L1347.72 29.6769 Z" fill="#000000" fill-rule="nonzero" fill-opacity="1" /><path clip-path="url(#clip130)" d="M1435.46 35.9153 Q1438.26 30.8922 1442.14 28.5022 Q1446.03 26.1121 1451.3 26.1121 Q1458.39 26.1121 1462.24 31.0947 Q1466.09 36.0368 1466.09 45.1919 L1466.09 72.576 L1458.59 72.576 L1458.59 45.4349 Q1458.59 38.913 1456.28 35.7533 Q1453.97 32.5936 1449.23 32.5936 Q1443.44 32.5936 1440.08 36.4419 Q1436.72 40.2903 1436.72 46.9338 L1436.72 72.576 L1429.22 72.576 L1429.22 45.4349 Q1429.22 38.8725 1426.91 35.7533 Q1424.6 32.5936 1419.78 32.5936 Q1414.07 32.5936 1410.71 36.4824 Q1407.35 40.3308 1407.35 46.9338 L1407.35 72.576 L1399.85 72.576 L1399.85 27.2059 L1407.35 27.2059 L1407.35 34.2544 Q1409.9 30.082 1413.46 28.0971 Q1417.03 26.1121 1421.93 26.1121 Q1426.87 26.1121 1430.32 28.6237 Q1433.8 31.1352 1435.46 35.9153 Z" fill="#000000" fill-rule="nonzero" fill-opacity="1" /><path clip-path="url(#clip130)" d="M1510.81 49.3643 Q1510.81 41.2625 1507.44 36.8065 Q1504.12 32.3505 1498.09 32.3505 Q1492.09 32.3505 1488.73 36.8065 Q1485.41 41.2625 1485.41 49.3643 Q1485.41 57.4256 1488.73 61.8816 Q1492.09 66.3376 1498.09 66.3376 Q1504.12 66.3376 1507.44 61.8816 Q1510.81 57.4256 1510.81 49.3643 M1518.26 66.9452 Q1518.26 78.5308 1513.12 84.1616 Q1507.97 89.8329 1497.36 89.8329 Q1493.43 89.8329 1489.94 89.2252 Q1486.46 88.6581 1483.18 87.4428 L1483.18 80.1917 Q1486.46 81.9741 1489.66 82.8248 Q1492.86 83.6755 1496.18 83.6755 Q1503.52 83.6755 1507.16 79.8271 Q1510.81 76.0193 1510.81 68.282 L1510.81 64.5957 Q1508.5 68.6061 1504.89 70.5911 Q1501.29 72.576 1496.26 72.576 Q1487.92 72.576 1482.82 66.2161 Q1477.71 59.8562 1477.71 49.3643 Q1477.71 38.832 1482.82 32.472 Q1487.92 26.1121 1496.26 26.1121 Q1501.29 26.1121 1504.89 28.0971 Q1508.5 30.082 1510.81 34.0924 L1510.81 27.2059 L1518.26 27.2059 L1518.26 66.9452 Z" fill="#000000" fill-rule="nonzero" fill-opacity="1" /><path clip-path="url(#clip130)" d="M1571.33 45.1919 L1571.33 72.576 L1563.87 72.576 L1563.87 45.4349 Q1563.87 38.994 1561.36 35.7938 Q1558.85 32.5936 1553.83 32.5936 Q1547.79 32.5936 1544.31 36.4419 Q1540.82 40.2903 1540.82 46.9338 L1540.82 72.576 L1533.33 72.576 L1533.33 9.54393 L1540.82 9.54393 L1540.82 34.2544 Q1543.5 30.163 1547.1 28.1376 Q1550.75 26.1121 1555.49 26.1121 Q1563.31 26.1121 1567.32 30.9732 Q1571.33 35.7938 1571.33 45.1919 Z" fill="#000000" fill-rule="nonzero" fill-opacity="1" /><path clip-path="url(#clip130)" d="M1594.3 65.6895 L1622.86 65.6895 L1622.86 72.576 L1584.45 72.576 L1584.45 65.6895 Q1589.11 60.8689 1597.13 52.7671 Q1605.19 44.6248 1607.26 42.2752 Q1611.19 37.8598 1612.73 34.8216 Q1614.31 31.7429 1614.31 28.7857 Q1614.31 23.9651 1610.9 20.927 Q1607.54 17.8888 1602.11 17.8888 Q1598.27 17.8888 1593.97 19.2256 Q1589.72 20.5624 1584.86 23.2765 L1584.86 15.0127 Q1589.8 13.0277 1594.09 12.015 Q1598.39 11.0023 1601.95 11.0023 Q1611.35 11.0023 1616.94 15.7013 Q1622.53 20.4004 1622.53 28.2591 Q1622.53 31.9859 1621.11 35.3482 Q1619.74 38.6699 1616.05 43.2069 Q1615.04 44.3817 1609.61 50.0125 Q1604.18 55.6027 1594.3 65.6895 Z" fill="#000000" fill-rule="nonzero" fill-opacity="1" /><path clip-path="url(#clip130)" d="M1662.51 19.2256 L1641.85 51.5113 L1662.51 51.5113 L1662.51 19.2256 M1660.37 12.096 L1670.66 12.096 L1670.66 51.5113 L1679.28 51.5113 L1679.28 58.3168 L1670.66 58.3168 L1670.66 72.576 L1662.51 72.576 L1662.51 58.3168 L1635.21 58.3168 L1635.21 50.4176 L1660.37 12.096 Z" fill="#000000" fill-rule="nonzero" fill-opacity="1" /><polyline clip-path="url(#clip132)" style="stroke:#009af9; stroke-linecap:round; stroke-linejoin:round; stroke-width:4; stroke-opacity:1; fill:none" points="310.845,393.625 312.828,160.256 314.81,160.256 316.793,327.488 318.775,530.825 320.757,651.219 322.74,357.574 324.722,189.92 326.705,189.92 328.687,373.522 330.67,612.063 332.652,870.375 334.635,638.57 336.617,293.902 338.599,207.91 340.582,207.91 342.564,381.024 344.547,646.133 346.529,902.58 348.512,859.661 350.494,577.082 352.476,278.539 354.459,177.739 356.441,177.739 358.424,355.993 360.406,608.972 362.389,820.401 364.371,618.219 366.354,256.302 368.336,168.44 370.318,168.44 372.301,361.864 374.283,600.316 376.266,837.587 378.248,583.972 380.231,212.587 382.213,182.506 384.195,182.506 386.178,364.568 388.16,622.146 390.143,849.906 392.125,637.658 394.108,296.678 396.09,209.221 398.073,209.221 400.055,382.01 402.037,647.616 404.02,907.274 406.002,877.919 407.985,625.136 409.967,331.028 411.95,178.001 413.932,178.001 415.914,353.933 417.897,599.114 419.879,730.082 421.862,443.663 423.844,208.002 425.827,191.842 427.809,191.842 429.792,375.287 431.774,619.287 433.756,884.289 435.739,698.859 437.721,329.948 439.704,207.836 441.686,207.836 443.669,379.886 445.651,644.486 447.633,887.351 449.616,763.322 451.598,412.766 453.581,204.249 455.563,196.854 457.546,196.854 459.528,370.956 461.511,632.341 463.493,866.719 465.475,722.474 467.458,372.904 469.44,199.826 471.423,199.826 473.405,375.743 475.388,619.095 477.37,882.788 479.352,687.902 481.335,322.457 483.317,207.568 485.3,207.568 487.282,379.976 489.265,644.678 491.247,892.044 493.23,791.105 495.212,448.156 497.194,211.731 499.177,190.795 501.159,190.795 503.142,366.611 505.124,626.295 507.107,862.676 509.089,735.633 511.071,387.345 513.054,201.588 515.036,201.203 517.019,201.203 519.001,374.032 520.984,636.456 522.966,868.135 524.949,707.214 526.931,358.304 528.913,198.636 530.896,198.636 532.878,376.688 534.861,620.841 536.843,887.708 538.826,707.209 540.808,335.671 542.79,208.04 544.773,207.487 546.755,203.273 548.738,203.273 550.72,375.149 552.703,637.859 554.685,865.382 556.668,685.779 558.65,340.612 560.632,197.986 562.615,197.986 564.597,378.11 566.58,623.357 568.562,893.182 570.545,730.415 572.527,353.486 574.509,209.221 576.492,203.757 578.474,203.757 580.457,379.597 582.439,620.901 584.422,888.346 586.404,685.005 588.387,319.761 590.369,207.232 592.351,207.232 594.334,379.822 596.316,644.45 598.299,892.448 600.281,796.537 602.264,456.22 604.246,213.97 606.228,189.526 608.211,189.526 610.193,365.702 612.176,625 614.158,861.865 616.141,738.519 618.123,390.653 620.106,202.05 622.088,200.555 624.07,200.555 626.053,373.553 628.035,635.799 630.018,867.237 632,706.65 633.983,357.968 635.965,198.652 637.947,198.652 639.93,376.725 641.912,620.915 643.895,887.871 645.877,707.907 647.86,336.178 649.842,208.066 651.825,207.389 653.807,203.293 655.789,203.293 657.772,375.173 659.754,637.899 661.737,865.697 663.719,686.818 665.702,341.383 667.684,197.99 669.666,197.99 671.649,378.04 673.631,623.233 675.614,892.94 677.596,729.339 679.579,352.609 681.561,209.15 683.544,203.952 685.526,203.952 687.508,379.71 689.491,621.085 691.473,888.723 693.456,686.205 695.438,320.52 697.421,207.243 699.403,207.243 701.385,379.803 703.368,644.42 705.35,892.025 707.333,793.915 709.315,452.446 711.298,212.927 713.28,190.107 715.263,190.107 717.245,366.116 719.227,625.589 721.21,862.178 723.192,736.92 725.175,388.841 727.157,201.8 729.14,200.907 731.122,200.907 733.104,373.813 735.087,636.155 737.069,867.705 739.052,706.877 741.034,358.084 743.017,198.641 744.999,198.641 746.982,376.71 748.964,620.884 750.946,887.805 752.929,707.621 754.911,335.971 756.894,208.055 758.876,207.429 760.859,203.285 762.841,203.285 764.823,375.163 766.806,637.883 768.788,865.568 770.771,686.389 772.753,341.065 774.736,197.988 776.718,197.988 778.701,378.069 780.683,623.284 782.665,893.04 784.648,729.783 786.63,352.971 788.613,209.179 790.595,203.872 792.578,203.872 794.56,379.664 796.542,621.009 798.525,888.568 800.507,685.71 802.49,320.206 804.472,207.238 806.455,207.238 808.437,379.811 810.42,644.432 812.402,892.201 814.384,795.002 816.367,454.002 818.349,213.352 820.332,189.866 822.314,189.866 824.297,365.945 826.279,625.345 828.261,862.048 830.244,737.584 832.226,389.591 834.209,201.903 836.191,200.762 838.174,200.762 840.156,373.705 842.139,636.007 844.121,867.51 846.103,706.778 848.086,358.032 850.068,198.645 852.051,198.645 854.033,376.717 856.016,620.897 857.998,887.834 859.98,707.745 861.963,336.06 863.945,208.06 865.928,207.412 867.91,203.288 869.893,203.288 871.875,375.167 873.858,637.89 875.84,865.624 877.822,686.574 879.805,341.202 881.787,197.988 883.77,197.988 885.752,378.056 887.735,623.262 889.717,892.997 891.699,729.591 893.682,352.814 895.664,209.166 897.647,203.906 899.629,203.906 901.612,379.684 903.594,621.042 905.577,888.635 907.559,685.924 909.541,320.342 911.524,207.24 913.506,207.24 915.489,379.807 917.471,644.427 919.454,892.125 921.436,794.533 923.418,453.33 925.401,213.168 927.383,189.97 929.366,189.97 931.348,366.019 933.331,625.45 935.313,862.104 937.296,737.297 939.278,389.268 941.26,201.858 943.243,200.825 945.225,200.825 947.208,373.751 949.19,636.071 951.173,867.594 953.155,706.82 955.137,358.054 957.12,198.643 959.102,198.643 961.085,376.714 963.067,620.892 965.05,887.822 967.032,707.692 969.015,336.022 970.997,208.058 972.979,207.419 974.962,203.287 976.944,203.287 978.927,375.165 980.909,637.887 982.892,865.6 984.874,686.496 986.856,341.144 988.839,197.988 990.821,197.988 992.804,378.061 994.786,623.272 996.769,893.015 998.751,729.673 1000.73,352.881 1002.72,209.172 1004.7,203.892 1006.68,203.892 1008.66,379.675 1010.65,621.028 1012.63,888.606 1014.61,685.833 1016.59,320.284 1018.58,207.239 1020.56,207.239 1022.54,379.809 1024.52,644.429 1026.51,892.157 1028.49,794.733 1030.47,453.615 1032.45,213.246 1034.43,189.926 1036.42,189.926 1038.4,365.987 1040.38,625.406 1042.36,862.081 1044.35,737.419 1046.33,389.405 1048.31,201.877 1050.29,200.798 1052.28,200.798 1054.26,373.732 1056.24,636.044 1058.22,867.558 1060.21,706.802 1062.19,358.044 1064.17,198.644 1066.15,198.644 1068.14,376.715 1070.12,620.894 1072.1,887.827 1074.08,707.715 1076.07,336.039 1078.05,208.059 1080.03,207.416 1082.01,203.288 1084,203.288 1085.98,375.166 1087.96,637.888 1089.94,865.61 1091.93,686.529 1093.91,341.169 1095.89,197.988 1097.87,197.988 1099.86,378.059 1101.84,623.268 1103.82,893.007 1105.8,729.638 1107.79,352.852 1109.77,209.169 1111.75,203.898 1113.73,203.898 1115.71,379.679 1117.7,621.034 1119.68,888.619 1121.66,685.872 1123.64,320.309 1125.63,207.24 1127.61,207.24 1129.59,379.808 1131.57,644.428 1133.56,892.143 1135.54,794.647 1137.52,453.493 1139.5,213.212 1141.49,189.944 1143.47,189.944 1145.45,366.001 1147.43,625.425 1149.42,862.091 1151.4,737.367 1153.38,389.346 1155.36,201.869 1157.35,200.809 1159.33,200.809 1161.31,373.74 1163.29,636.056 1165.28,867.573 1167.26,706.81 1169.24,358.048 1171.22,198.644 1173.21,198.644 1175.19,376.715 1177.17,620.893 1179.15,887.825 1181.14,707.705 1183.12,336.032 1185.1,208.059 1187.08,207.417 1189.07,203.287 1191.05,203.287 1193.03,375.166 1195.01,637.888 1196.99,865.606 1198.98,686.515 1200.96,341.158 1202.94,197.988 1204.92,197.988 1206.91,378.06 1208.89,623.269 1210.87,893.011 1212.85,729.653 1214.84,352.864 1216.82,209.17 1218.8,203.895 1220.78,203.895 1222.77,379.677 1224.75,621.031 1226.73,888.613 1228.71,685.856 1230.7,320.298 1232.68,207.239 1234.66,207.239 1236.64,379.808 1238.63,644.429 1240.61,892.149 1242.59,794.684 1244.57,453.545 1246.56,213.227 1248.54,189.936 1250.52,189.936 1252.5,365.995 1254.49,625.417 1256.47,862.087 1258.45,737.389 1260.43,389.371 1262.42,201.872 1264.4,200.804 1266.38,200.804 1268.36,373.737 1270.35,636.051 1272.33,867.567 1274.31,706.807 1276.29,358.047 1278.27,198.644 1280.26,198.644 1282.24,376.715 1284.22,620.893 1286.2,887.826 1288.19,707.709 1290.17,336.035 1292.15,208.059 1294.13,207.417 1296.12,203.287 1298.1,203.287 1300.08,375.166 1302.06,637.888 1304.05,865.608 1306.03,686.521 1308.01,341.163 1309.99,197.988 1311.98,197.988 1313.96,378.06 1315.94,623.269 1317.92,893.009 1319.91,729.646 1321.89,352.859 1323.87,209.17 1325.85,203.896 1327.84,203.896 1329.82,379.678 1331.8,621.032 1333.78,888.616 1335.77,685.863 1337.75,320.303 1339.73,207.239 1341.71,207.239 1343.7,379.808 1345.68,644.429 1347.66,892.147 1349.64,794.668 1351.62,453.523 1353.61,213.221 1355.59,189.94 1357.57,189.94 1359.55,365.997 1361.54,625.42 1363.52,862.088 1365.5,737.38 1367.48,389.361 1369.47,201.871 1371.45,200.806 1373.43,200.806 1375.41,373.738 1377.4,636.053 1379.38,867.57 1381.36,706.808 1383.34,358.047 1385.33,198.644 1387.31,198.644 1389.29,376.715 1391.27,620.893 1393.26,887.825 1395.24,707.708 1397.22,336.033 1399.2,208.059 1401.19,207.417 1403.17,203.287 1405.15,203.287 1407.13,375.166 1409.12,637.888 1411.1,865.607 1413.08,686.519 1415.06,341.161 1417.05,197.988 1419.03,197.988 1421.01,378.06 1422.99,623.269 1424.98,893.01 1426.96,729.649 1428.94,352.861 1430.92,209.17 1432.9,203.896 1434.89,203.896 1436.87,379.678 1438.85,621.032 1440.83,888.615 1442.82,685.86 1444.8,320.301 1446.78,207.239 1448.76,207.239 1450.75,379.808 1452.73,644.429 1454.71,892.148 1456.69,794.675 1458.68,453.532 1460.66,213.223 1462.64,189.938 1464.62,189.938 1466.61,365.996 1468.59,625.419 1470.57,862.088 1472.55,737.384 1474.54,389.365 1476.52,201.871 1478.5,200.806 1480.48,200.806 1482.47,373.737 1484.45,636.052 1486.43,867.568 1488.41,706.808 1490.4,358.047 1492.38,198.644 1494.36,198.644 1496.34,376.715 1498.33,620.893 1500.31,887.825 1502.29,707.708 1504.27,336.034 1506.26,208.059 1508.24,207.417 1510.22,203.287 1512.2,203.287 1514.18,375.166 1516.17,637.888 1518.15,865.607 1520.13,686.52 1522.11,341.162 1524.1,197.988 1526.08,197.988 1528.06,378.06 1530.04,623.269 1532.03,893.009 1534.01,729.648 1535.99,352.861 1537.97,209.17 1539.96,203.896 1541.94,203.896 1543.92,379.678 1545.9,621.032 1547.89,888.615 1549.87,685.861 1551.85,320.302 1553.83,207.239 1555.82,207.239 1557.8,379.808 1559.78,644.429 1561.76,892.147 1563.75,794.672 1565.73,453.528 1567.71,213.222 1569.69,189.939 1571.68,189.939 1573.66,365.997 1575.64,625.419 1577.62,862.088 1579.61,737.382 1581.59,389.363 1583.57,201.871 1585.55,200.806 1587.54,200.806 1589.52,373.738 1591.5,636.052 1593.48,867.569 1595.46,706.808 1597.45,358.047 1599.43,198.644 1601.41,198.644 1603.39,376.715 1605.38,620.893 1607.36,887.825 1609.34,707.708 1611.32,336.034 1613.31,208.059 1615.29,207.417 1617.27,203.287 1619.25,203.287 1621.24,375.166 1623.22,637.888 1625.2,865.607 1627.18,686.519 1629.17,341.161 1631.15,197.988 1633.13,197.988 1635.11,378.06 1637.1,623.269 1639.08,893.01 1641.06,729.648 1643.04,352.861 1645.03,209.17 1647.01,203.896 1648.99,203.896 1650.97,379.678 1652.96,621.032 1654.94,888.615 1656.92,685.86 1658.9,320.301 1660.89,207.239 1662.87,207.239 1664.85,379.808 1666.83,644.429 1668.81,892.147 1670.8,794.673 1672.78,453.53 1674.76,213.223 1676.74,189.939 1678.73,189.939 1680.71,365.997 1682.69,625.419 1684.67,862.088 1686.66,737.383 1688.64,389.364 1690.62,201.871 1692.6,200.806 1694.59,200.806 1696.57,373.738 1698.55,636.052 1700.53,867.569 1702.52,706.808 1704.5,358.047 1706.48,198.644 1708.46,198.644 1710.45,376.715 1712.43,620.893 1714.41,887.825 1716.39,707.708 1718.38,336.034 1720.36,208.059 1722.34,207.417 1724.32,203.287 1726.31,203.287 1728.29,375.166 1730.27,637.888 1732.25,865.607 1734.24,686.519 1736.22,341.162 1738.2,197.988 1740.18,197.988 1742.17,378.06 1744.15,623.269 1746.13,893.01 1748.11,729.648 1750.09,352.861 1752.08,209.17 1754.06,203.896 1756.04,203.896 1758.02,379.678 1760.01,621.032 1761.99,888.615 1763.97,685.861 1765.95,320.301 1767.94,207.239 1769.92,207.239 1771.9,379.808 1773.88,644.429 1775.87,892.147 1777.85,794.673 1779.83,453.529 1781.81,213.222 1783.8,189.939 1785.78,189.939 1787.76,365.997 1789.74,625.419 1791.73,862.088 1793.71,737.382 1795.69,389.364 1797.67,201.871 1799.66,200.806 1801.64,200.806 1803.62,373.738 1805.6,636.052 1807.59,867.569 1809.57,706.808 1811.55,358.047 1813.53,198.644 1815.52,198.644 1817.5,376.715 1819.48,620.893 1821.46,887.825 1823.45,707.708 1825.43,336.034 1827.41,208.059 1829.39,207.417 1831.37,203.287 1833.36,203.287 1835.34,375.166 1837.32,637.888 1839.3,865.607 1841.29,686.519 1843.27,341.161 1845.25,197.988 1847.23,197.988 1849.22,378.06 1851.2,623.269 1853.18,893.01 1855.16,729.648 1857.15,352.861 1859.13,209.17 1861.11,203.896 1863.09,203.896 1865.08,379.678 1867.06,621.032 1869.04,888.615 1871.02,685.86 1873.01,320.301 1874.99,207.239 1876.97,207.239 1878.95,379.808 1880.94,644.429 1882.92,892.147 1884.9,794.673 1886.88,453.53 1888.87,213.222 1890.85,189.939 1892.83,189.939 1894.81,365.997 1896.8,625.419 1898.78,862.088 1900.76,737.383 1902.74,389.364 1904.73,201.871 1906.71,200.806 1908.69,200.806 1910.67,373.738 1912.65,636.052 1914.64,867.569 1916.62,706.808 1918.6,358.047 1920.58,198.644 1922.57,198.644 1924.55,376.715 1926.53,620.893 1928.51,887.825 1930.5,707.708 1932.48,336.034 1934.46,208.059 1936.44,207.417 1938.43,203.287 1940.41,203.287 1942.39,375.166 1944.37,637.888 1946.36,865.607 1948.34,686.519 1950.32,341.161 1952.3,197.988 1954.29,197.988 1956.27,378.06 1958.25,623.269 1960.23,893.01 1962.22,729.648 1964.2,352.861 1966.18,209.17 1968.16,203.896 1970.15,203.896 1972.13,379.678 1974.11,621.032 1976.09,888.615 1978.08,685.861 1980.06,320.301 1982.04,207.239 1984.02,207.239 1986,379.808 1987.99,644.429 1989.97,892.147 1991.95,794.673 1993.93,453.53 1995.92,213.222 1997.9,189.939 1999.88,189.939 2001.86,365.997 2003.85,625.419 2005.83,862.088 2007.81,737.383 2009.79,389.364 2011.78,201.871 2013.76,200.806 2015.74,200.806 2017.72,373.738 2019.71,636.052 2021.69,867.569 2023.67,706.808 2025.65,358.047 2027.64,198.644 2029.62,198.644 2031.6,376.715 2033.58,620.893 2035.57,887.825 2037.55,707.708 2039.53,336.034 2041.51,208.059 2043.5,207.417 2045.48,203.287 2047.46,203.287 2049.44,375.166 2051.43,637.888 2053.41,865.607 2055.39,686.519 2057.37,341.161 2059.36,197.988 2061.34,197.988 2063.32,378.06 2065.3,623.269 2067.28,893.01 2069.27,729.648 2071.25,352.861 2073.23,209.17 2075.21,203.896 2077.2,203.896 2079.18,379.678 2081.16,621.032 2083.14,888.615 2085.13,685.86 2087.11,320.301 2089.09,207.239 2091.07,207.239 2093.06,379.808 2095.04,644.429 2097.02,892.147 2099,794.673 2100.99,453.53 2102.97,213.222 2104.95,189.939 2106.93,189.939 2108.92,365.997 2110.9,625.419 2112.88,862.088 2114.86,737.383 2116.85,389.364 2118.83,201.871 2120.81,200.806 2122.79,200.806 2124.78,373.738 2126.76,636.052 2128.74,867.569 2130.72,706.808 2132.71,358.047 2134.69,198.644 2136.67,198.644 2138.65,376.715 2140.64,620.893 2142.62,887.825 2144.6,707.708 2146.58,336.034 2148.56,208.059 2150.55,207.417 2152.53,203.287 2154.51,203.287 2156.49,375.166 2158.48,637.888 2160.46,865.607 2162.44,686.519 2164.42,341.161 2166.41,197.988 2168.39,197.988 2170.37,378.06 2172.35,623.269 2174.34,893.01 2176.32,729.648 2178.3,352.861 2180.28,209.17 2182.27,203.896 2184.25,203.896 2186.23,379.678 2188.21,621.032 2190.2,888.615 2192.18,685.86 2194.16,320.301 2196.14,207.239 2198.13,207.239 2200.11,379.808 2202.09,644.429 2204.07,892.147 2206.06,794.673 2208.04,453.53 2210.02,213.222 2212,189.939 2213.99,189.939 2215.97,365.997 2217.95,625.419 2219.93,862.088 2221.92,737.383 2223.9,389.364 2225.88,201.871 2227.86,200.806 2229.84,200.806 2231.83,373.738 2233.81,636.052 2235.79,867.569 2237.77,706.808 2239.76,358.047 2241.74,198.644 2243.72,198.644 2245.7,376.715 2247.69,620.893 2249.67,887.825 2251.65,707.708 2253.63,336.034 2255.62,208.059 2257.6,207.417 2259.58,203.287 2261.56,203.287 2263.55,375.166 2265.53,637.888 2267.51,865.607 2269.49,686.519 2271.48,341.161 2273.46,197.988 2275.44,197.988 2277.42,378.06 2279.41,623.269 2281.39,893.01 2283.37,729.648 2285.35,352.861 2287.34,209.17 2289.32,203.896 2291.3,203.896 2293.28,379.678 "/>
<polyline clip-path="url(#clip132)" style="stroke:#e26f46; stroke-linecap:round; stroke-linejoin:round; stroke-width:4; stroke-opacity:1; fill:none" points="310.845,393.625 312.828,393.625 314.81,629.201 316.793,882.821 318.775,968.529 320.757,1141.14 322.74,1236.84 324.722,1315.37 326.705,1359.76 328.687,1377.56 330.67,1381.57 332.652,1382.62 334.635,1382.84 336.617,1382.89 338.599,1382.9 340.582,1382.9 342.564,1382.91 344.547,1382.91 346.529,1382.91 348.512,1382.91 350.494,1382.91 352.476,1382.91 354.459,1382.91 356.441,1382.91 358.424,1382.91 360.406,1382.91 362.389,1382.91 364.371,1382.91 366.354,1382.91 368.336,1382.91 370.318,1382.91 372.301,1382.91 374.283,1382.91 376.266,1382.91 378.248,1382.91 380.231,1382.91 382.213,1382.91 384.195,1382.91 386.178,1382.91 388.16,1382.91 390.143,1382.91 392.125,1382.91 394.108,1382.91 396.09,1382.91 398.073,1382.91 400.055,1382.91 402.037,1382.91 404.02,1382.91 406.002,1382.91 407.985,1382.91 409.967,1382.91 411.95,1382.91 413.932,1382.91 415.914,1382.91 417.897,1382.91 419.879,1382.91 421.862,1382.91 423.844,1382.91 425.827,1382.91 427.809,1382.91 429.792,1382.91 431.774,1382.91 433.756,1382.91 435.739,1382.91 437.721,1382.91 439.704,1382.91 441.686,1382.91 443.669,1382.91 445.651,1382.91 447.633,1382.91 449.616,1382.91 451.598,1382.91 453.581,1382.91 455.563,1382.91 457.546,1382.91 459.528,1382.91 461.511,1382.91 463.493,1382.91 465.475,1382.91 467.458,1382.91 469.44,1382.91 471.423,1382.91 473.405,1382.91 475.388,1382.91 477.37,1382.91 479.352,1382.91 481.335,1382.91 483.317,1382.91 485.3,1382.91 487.282,1382.91 489.265,1382.91 491.247,1382.91 493.23,1382.91 495.212,1382.91 497.194,1382.91 499.177,1382.91 501.159,1382.91 503.142,1382.91 505.124,1382.91 507.107,1382.91 509.089,1382.91 511.071,1382.91 513.054,1382.91 515.036,1382.91 517.019,1382.91 519.001,1382.91 520.984,1382.91 522.966,1382.91 524.949,1382.91 526.931,1382.91 528.913,1382.91 530.896,1382.91 532.878,1382.91 534.861,1382.91 536.843,1382.91 538.826,1382.91 540.808,1382.91 542.79,1382.91 544.773,1382.91 546.755,1382.91 548.738,1382.91 550.72,1382.91 552.703,1382.91 554.685,1382.91 556.668,1382.91 558.65,1382.91 560.632,1382.91 562.615,1382.91 564.597,1382.91 566.58,1382.91 568.562,1382.91 570.545,1382.91 572.527,1382.91 574.509,1382.91 576.492,1382.91 578.474,1382.91 580.457,1382.91 582.439,1382.91 584.422,1382.91 586.404,1382.91 588.387,1382.91 590.369,1382.91 592.351,1382.91 594.334,1382.91 596.316,1382.91 598.299,1382.91 600.281,1382.91 602.264,1382.91 604.246,1382.91 606.228,1382.91 608.211,1382.91 610.193,1382.91 612.176,1382.91 614.158,1382.91 616.141,1382.91 618.123,1382.91 620.106,1382.91 622.088,1382.91 624.07,1382.91 626.053,1382.91 628.035,1382.91 630.018,1382.91 632,1382.91 633.983,1382.91 635.965,1382.91 637.947,1382.91 639.93,1382.91 641.912,1382.91 643.895,1382.91 645.877,1382.91 647.86,1382.91 649.842,1382.91 651.825,1382.91 653.807,1382.91 655.789,1382.91 657.772,1382.91 659.754,1382.91 661.737,1382.91 663.719,1382.91 665.702,1382.91 667.684,1382.91 669.666,1382.91 671.649,1382.91 673.631,1382.91 675.614,1382.91 677.596,1382.91 679.579,1382.91 681.561,1382.91 683.544,1382.91 685.526,1382.91 687.508,1382.91 689.491,1382.91 691.473,1382.91 693.456,1382.91 695.438,1382.91 697.421,1382.91 699.403,1382.92 701.385,1382.92 703.368,1382.92 705.35,1382.92 707.333,1382.92 709.315,1382.92 711.298,1382.92 713.28,1382.92 715.263,1382.92 717.245,1382.92 719.227,1382.92 721.21,1382.92 723.192,1382.92 725.175,1382.92 727.157,1382.92 729.14,1382.92 731.122,1382.92 733.104,1382.92 735.087,1382.92 737.069,1382.92 739.052,1382.92 741.034,1382.92 743.017,1382.92 744.999,1382.92 746.982,1382.92 748.964,1382.92 750.946,1382.92 752.929,1382.92 754.911,1382.92 756.894,1382.92 758.876,1382.92 760.859,1382.92 762.841,1382.92 764.823,1382.92 766.806,1382.92 768.788,1382.92 770.771,1382.92 772.753,1382.92 774.736,1382.92 776.718,1382.92 778.701,1382.92 780.683,1382.92 782.665,1382.92 784.648,1382.92 786.63,1382.92 788.613,1382.92 790.595,1382.92 792.578,1382.92 794.56,1382.92 796.542,1382.92 798.525,1382.92 800.507,1382.92 802.49,1382.92 804.472,1382.92 806.455,1382.92 808.437,1382.92 810.42,1382.92 812.402,1382.92 814.384,1382.92 816.367,1382.92 818.349,1382.92 820.332,1382.92 822.314,1382.92 824.297,1382.92 826.279,1382.92 828.261,1382.92 830.244,1382.92 832.226,1382.92 834.209,1382.92 836.191,1382.92 838.174,1382.92 840.156,1382.92 842.139,1382.92 844.121,1382.92 846.103,1382.92 848.086,1382.92 850.068,1382.92 852.051,1382.92 854.033,1382.92 856.016,1382.92 857.998,1382.92 859.98,1382.92 861.963,1382.92 863.945,1382.92 865.928,1382.92 867.91,1382.92 869.893,1382.92 871.875,1382.92 873.858,1382.92 875.84,1382.92 877.822,1382.92 879.805,1382.92 881.787,1382.92 883.77,1382.92 885.752,1382.92 887.735,1382.92 889.717,1382.92 891.699,1382.92 893.682,1382.92 895.664,1382.92 897.647,1382.92 899.629,1382.92 901.612,1382.92 903.594,1382.92 905.577,1382.92 907.559,1382.92 909.541,1382.92 911.524,1382.92 913.506,1382.92 915.489,1382.92 917.471,1382.92 919.454,1382.92 921.436,1382.92 923.418,1382.92 925.401,1382.92 927.383,1382.92 929.366,1382.92 931.348,1382.92 933.331,1382.92 935.313,1382.92 937.296,1382.92 939.278,1382.92 941.26,1382.92 943.243,1382.92 945.225,1382.92 947.208,1382.92 949.19,1382.92 951.173,1382.92 953.155,1382.92 955.137,1382.92 957.12,1382.92 959.102,1382.92 961.085,1382.92 963.067,1382.92 965.05,1382.92 967.032,1382.92 969.015,1382.92 970.997,1382.92 972.979,1382.92 974.962,1382.92 976.944,1382.92 978.927,1382.92 980.909,1382.92 982.892,1382.92 984.874,1382.92 986.856,1382.92 988.839,1382.92 990.821,1382.92 992.804,1382.92 994.786,1382.92 996.769,1382.92 998.751,1382.92 1000.73,1382.92 1002.72,1382.92 1004.7,1382.92 1006.68,1382.92 1008.66,1382.92 1010.65,1382.92 1012.63,1382.92 1014.61,1382.92 1016.59,1382.92 1018.58,1382.92 1020.56,1382.92 1022.54,1382.92 1024.52,1382.92 1026.51,1382.92 1028.49,1382.92 1030.47,1382.92 1032.45,1382.92 1034.43,1382.92 1036.42,1382.92 1038.4,1382.92 1040.38,1382.92 1042.36,1382.92 1044.35,1382.92 1046.33,1382.92 1048.31,1382.92 1050.29,1382.92 1052.28,1382.92 1054.26,1382.92 1056.24,1382.92 1058.22,1382.92 1060.21,1382.92 1062.19,1382.92 1064.17,1382.92 1066.15,1382.92 1068.14,1382.92 1070.12,1382.92 1072.1,1382.92 1074.08,1382.92 1076.07,1382.92 1078.05,1382.92 1080.03,1382.92 1082.01,1382.92 1084,1382.92 1085.98,1382.92 1087.96,1382.92 1089.94,1382.92 1091.93,1382.92 1093.91,1382.92 1095.89,1382.92 1097.87,1382.92 1099.86,1382.92 1101.84,1382.92 1103.82,1382.92 1105.8,1382.92 1107.79,1382.93 1109.77,1382.93 1111.75,1382.93 1113.73,1382.93 1115.71,1382.93 1117.7,1382.93 1119.68,1382.93 1121.66,1382.93 1123.64,1382.93 1125.63,1382.93 1127.61,1382.93 1129.59,1382.93 1131.57,1382.93 1133.56,1382.93 1135.54,1382.93 1137.52,1382.93 1139.5,1382.93 1141.49,1382.93 1143.47,1382.93 1145.45,1382.93 1147.43,1382.93 1149.42,1382.93 1151.4,1382.93 1153.38,1382.93 1155.36,1382.93 1157.35,1382.93 1159.33,1382.93 1161.31,1382.93 1163.29,1382.93 1165.28,1382.93 1167.26,1382.93 1169.24,1382.93 1171.22,1382.93 1173.21,1382.93 1175.19,1382.93 1177.17,1382.93 1179.15,1382.93 1181.14,1382.93 1183.12,1382.93 1185.1,1382.93 1187.08,1382.93 1189.07,1382.93 1191.05,1382.93 1193.03,1382.93 1195.01,1382.93 1196.99,1382.93 1198.98,1382.93 1200.96,1382.93 1202.94,1382.93 1204.92,1382.93 1206.91,1382.93 1208.89,1382.93 1210.87,1382.93 1212.85,1382.93 1214.84,1382.93 1216.82,1382.93 1218.8,1382.93 1220.78,1382.93 1222.77,1382.93 1224.75,1382.93 1226.73,1382.93 1228.71,1382.93 1230.7,1382.93 1232.68,1382.93 1234.66,1382.93 1236.64,1382.93 1238.63,1382.93 1240.61,1382.93 1242.59,1382.93 1244.57,1382.93 1246.56,1382.93 1248.54,1382.93 1250.52,1382.93 1252.5,1382.93 1254.49,1382.93 1256.47,1382.93 1258.45,1382.93 1260.43,1382.93 1262.42,1382.93 1264.4,1382.93 1266.38,1382.93 1268.36,1382.93 1270.35,1382.93 1272.33,1382.93 1274.31,1382.93 1276.29,1382.93 1278.27,1382.93 1280.26,1382.93 1282.24,1382.93 1284.22,1382.93 1286.2,1382.93 1288.19,1382.93 1290.17,1382.93 1292.15,1382.93 1294.13,1382.93 1296.12,1382.93 1298.1,1382.93 1300.08,1382.93 1302.06,1382.93 1304.05,1382.93 "/>
<polyline clip-path="url(#clip132)" style="stroke:#3da44d; stroke-linecap:round; stroke-linejoin:round; stroke-width:4; stroke-opacity:1; fill:none" points="310.845,393.625 312.828,160.256 314.81,160.256 316.793,327.488 318.775,530.825 320.757,651.219 322.74,357.574 324.722,189.92 326.705,189.92 328.687,373.522 330.67,612.063 332.652,612.063 334.635,988.128 336.617,988.128 338.599,1385.17 340.582,1385.17 342.564,1385.17 344.547,1386.24 346.529,1386.24 348.512,1386.24 350.494,1386.24 352.476,1386.24 354.459,1386.24 356.441,1386.24 "/>
<polyline clip-path="url(#clip132)" style="stroke:#c271d2; stroke-linecap:round; stroke-linejoin:round; stroke-width:4; stroke-opacity:1; fill:none" points="310.845,393.625 312.828,393.625 314.81,629.201 316.793,874.112 318.775,1085.14 320.757,1175.31 322.74,1217.46 324.722,1253.74 326.705,1286.55 328.687,1314.78 330.67,1337.42 332.652,1354.18 334.635,1365.68 336.617,1373.06 338.599,1377.59 340.582,1380.27 342.564,1381.83 344.547,1382.72 346.529,1383.23 348.512,1383.52 350.494,1383.68 352.476,1383.77 354.459,1383.82 356.441,1383.85 358.424,1383.87 360.406,1383.88 362.389,1383.88 364.371,1383.89 366.354,1383.89 368.336,1383.89 370.318,1383.89 372.301,1383.89 374.283,1383.89 376.266,1383.89 378.248,1383.89 380.231,1383.89 382.213,1383.89 384.195,1383.89 386.178,1383.89 388.16,1383.89 390.143,1383.89 392.125,1383.89 394.108,1383.89 396.09,1383.89 398.073,1383.89 400.055,1383.89 402.037,1383.89 404.02,1383.89 406.002,1383.89 407.985,1383.89 409.967,1383.89 411.95,1383.89 413.932,1383.89 415.914,1383.89 417.897,1383.89 419.879,1383.89 421.862,1383.89 423.844,1383.89 425.827,1383.89 427.809,1383.89 429.792,1383.89 431.774,1383.89 433.756,1383.89 435.739,1383.89 437.721,1383.89 439.704,1383.89 441.686,1383.89 443.669,1383.89 445.651,1383.89 447.633,1383.89 449.616,1383.89 451.598,1383.89 453.581,1383.89 455.563,1383.89 457.546,1383.89 459.528,1383.89 461.511,1383.89 463.493,1383.89 465.475,1383.89 467.458,1383.89 469.44,1383.89 471.423,1383.89 473.405,1383.89 475.388,1383.89 477.37,1383.89 479.352,1383.89 481.335,1383.89 483.317,1383.89 485.3,1383.89 487.282,1383.89 489.265,1383.89 491.247,1383.89 493.23,1383.89 495.212,1383.89 497.194,1383.89 499.177,1383.89 501.159,1383.89 503.142,1383.89 505.124,1383.89 507.107,1383.89 509.089,1383.89 511.071,1383.89 513.054,1383.89 515.036,1383.89 517.019,1383.89 519.001,1383.89 520.984,1383.89 522.966,1383.89 524.949,1383.89 526.931,1383.89 528.913,1383.89 530.896,1383.89 532.878,1383.89 534.861,1383.89 536.843,1383.89 538.826,1383.89 540.808,1383.89 542.79,1383.89 544.773,1383.89 546.755,1383.89 548.738,1383.89 550.72,1383.89 552.703,1383.89 554.685,1383.89 556.668,1383.89 558.65,1383.89 560.632,1383.89 562.615,1383.89 564.597,1383.89 566.58,1383.89 568.562,1383.89 570.545,1383.89 572.527,1383.89 574.509,1383.89 576.492,1383.89 578.474,1383.89 580.457,1383.89 582.439,1383.89 584.422,1383.89 586.404,1383.89 588.387,1383.89 590.369,1383.89 592.351,1383.89 594.334,1383.89 596.316,1383.89 598.299,1383.89 600.281,1383.89 602.264,1383.89 604.246,1383.89 606.228,1383.89 608.211,1383.89 610.193,1383.89 612.176,1383.89 614.158,1383.89 616.141,1383.89 618.123,1383.89 620.106,1383.89 622.088,1383.89 624.07,1383.89 626.053,1383.89 628.035,1383.89 630.018,1383.89 632,1383.89 633.983,1383.89 635.965,1383.89 637.947,1383.89 639.93,1383.89 641.912,1383.89 643.895,1383.89 645.877,1383.89 647.86,1383.89 649.842,1383.89 651.825,1383.89 653.807,1383.89 655.789,1383.89 657.772,1383.89 659.754,1383.89 661.737,1383.89 663.719,1383.89 665.702,1383.89 667.684,1383.89 669.666,1383.89 671.649,1383.89 673.631,1383.89 675.614,1383.89 677.596,1383.89 679.579,1383.89 681.561,1383.89 683.544,1383.89 685.526,1383.89 687.508,1383.89 689.491,1383.89 691.473,1383.89 693.456,1383.89 695.438,1383.89 697.421,1383.89 699.403,1383.89 701.385,1383.89 703.368,1383.89 705.35,1383.89 707.333,1383.89 709.315,1383.89 711.298,1383.89 713.28,1383.89 715.263,1383.89 717.245,1383.89 719.227,1383.89 721.21,1383.89 723.192,1383.89 725.175,1383.89 727.157,1383.89 729.14,1383.89 731.122,1383.89 733.104,1383.89 735.087,1383.89 737.069,1383.89 739.052,1383.89 741.034,1383.89 743.017,1383.89 744.999,1383.89 746.982,1383.89 748.964,1383.89 750.946,1383.89 752.929,1383.89 754.911,1383.89 756.894,1383.89 758.876,1383.89 760.859,1383.89 762.841,1383.89 764.823,1383.89 766.806,1383.89 768.788,1383.89 770.771,1383.89 772.753,1383.89 774.736,1383.89 776.718,1383.89 778.701,1383.89 780.683,1383.89 782.665,1383.89 784.648,1383.89 786.63,1383.89 788.613,1383.89 790.595,1383.89 792.578,1383.89 794.56,1383.89 796.542,1383.89 798.525,1383.89 800.507,1383.89 802.49,1383.89 804.472,1383.89 806.455,1383.89 808.437,1383.89 810.42,1383.89 812.402,1383.89 814.384,1383.89 816.367,1383.89 818.349,1383.89 820.332,1383.89 822.314,1383.89 824.297,1383.89 826.279,1383.89 828.261,1383.89 830.244,1383.89 832.226,1383.89 834.209,1383.89 836.191,1383.89 838.174,1383.89 840.156,1383.89 842.139,1383.89 844.121,1383.89 846.103,1383.89 848.086,1383.89 850.068,1383.89 852.051,1383.89 854.033,1383.89 856.016,1383.89 857.998,1383.89 859.98,1383.89 861.963,1383.89 863.945,1383.89 865.928,1383.89 867.91,1383.89 869.893,1383.89 871.875,1383.89 873.858,1383.89 875.84,1383.89 877.822,1383.89 879.805,1383.89 881.787,1383.89 883.77,1383.89 885.752,1383.89 887.735,1383.89 889.717,1383.89 891.699,1383.89 893.682,1383.89 895.664,1383.89 897.647,1383.89 899.629,1383.89 901.612,1383.89 903.594,1383.89 905.577,1383.89 907.559,1383.89 909.541,1383.89 911.524,1383.89 913.506,1383.89 915.489,1383.89 917.471,1383.89 919.454,1383.89 921.436,1383.89 923.418,1383.89 925.401,1383.89 927.383,1383.89 929.366,1383.89 931.348,1383.89 933.331,1383.89 935.313,1383.89 937.296,1383.89 939.278,1383.89 941.26,1383.89 943.243,1383.89 945.225,1383.89 947.208,1383.89 949.19,1383.89 951.173,1383.89 953.155,1383.89 955.137,1383.89 957.12,1383.89 959.102,1383.89 961.085,1383.89 963.067,1383.89 965.05,1383.89 967.032,1383.89 969.015,1383.89 970.997,1383.89 972.979,1383.89 974.962,1383.89 976.944,1383.89 978.927,1383.89 980.909,1383.89 982.892,1383.89 984.874,1383.89 986.856,1383.89 988.839,1383.89 990.821,1383.89 992.804,1383.89 994.786,1383.89 996.769,1383.89 998.751,1383.89 1000.73,1383.89 1002.72,1383.89 1004.7,1383.89 1006.68,1383.89 1008.66,1383.89 1010.65,1383.89 1012.63,1383.89 1014.61,1383.89 1016.59,1383.89 1018.58,1383.89 1020.56,1383.89 1022.54,1383.89 1024.52,1383.89 1026.51,1383.89 1028.49,1383.89 1030.47,1383.89 1032.45,1383.89 1034.43,1383.89 1036.42,1383.89 1038.4,1383.89 1040.38,1383.89 1042.36,1383.89 1044.35,1383.89 1046.33,1383.89 1048.31,1383.89 1050.29,1383.89 1052.28,1383.89 1054.26,1383.89 1056.24,1383.89 1058.22,1383.89 1060.21,1383.89 1062.19,1383.89 1064.17,1383.89 1066.15,1383.89 1068.14,1383.89 1070.12,1383.89 1072.1,1383.89 1074.08,1383.89 1076.07,1383.89 1078.05,1383.89 1080.03,1383.89 1082.01,1383.89 1084,1383.89 1085.98,1383.89 1087.96,1383.89 1089.94,1383.89 1091.93,1383.89 1093.91,1383.89 1095.89,1383.89 1097.87,1383.89 1099.86,1383.89 1101.84,1383.89 1103.82,1383.89 1105.8,1383.89 1107.79,1383.89 1109.77,1383.89 1111.75,1383.89 1113.73,1383.89 1115.71,1383.89 1117.7,1383.89 1119.68,1383.89 1121.66,1383.89 1123.64,1383.89 1125.63,1383.89 1127.61,1383.89 1129.59,1383.89 1131.57,1383.89 1133.56,1383.89 1135.54,1383.89 1137.52,1383.89 1139.5,1383.89 1141.49,1383.89 1143.47,1383.89 1145.45,1383.89 1147.43,1383.89 1149.42,1383.89 1151.4,1383.89 1153.38,1383.89 1155.36,1383.89 1157.35,1383.89 1159.33,1383.89 1161.31,1383.89 1163.29,1383.89 1165.28,1383.89 1167.26,1383.89 1169.24,1383.89 1171.22,1383.89 1173.21,1383.89 1175.19,1383.89 1177.17,1383.89 1179.15,1383.89 1181.14,1383.89 1183.12,1383.89 1185.1,1383.89 1187.08,1383.89 1189.07,1383.89 1191.05,1383.89 1193.03,1383.89 1195.01,1383.89 1196.99,1383.89 1198.98,1383.89 1200.96,1383.89 1202.94,1383.89 1204.92,1383.89 1206.91,1383.89 1208.89,1383.89 1210.87,1383.89 1212.85,1383.89 1214.84,1383.89 1216.82,1383.89 1218.8,1383.89 1220.78,1383.89 1222.77,1383.89 1224.75,1383.89 1226.73,1383.89 1228.71,1383.89 1230.7,1383.89 1232.68,1383.89 1234.66,1383.89 1236.64,1383.89 1238.63,1383.89 1240.61,1383.89 1242.59,1383.89 1244.57,1383.89 1246.56,1383.89 1248.54,1383.89 1250.52,1383.89 1252.5,1383.89 1254.49,1383.89 1256.47,1383.89 1258.45,1383.89 1260.43,1383.89 1262.42,1383.89 1264.4,1383.89 1266.38,1383.89 1268.36,1383.89 1270.35,1383.89 1272.33,1383.89 1274.31,1383.89 1276.29,1383.89 1278.27,1383.89 1280.26,1383.89 1282.24,1383.89 1284.22,1383.89 1286.2,1383.89 1288.19,1383.89 1290.17,1383.89 1292.15,1383.89 1294.13,1383.89 1296.12,1383.89 1298.1,1383.89 1300.08,1383.89 1302.06,1383.89 1304.05,1383.89 "/>
<polyline clip-path="url(#clip132)" style="stroke:#ac8d18; stroke-linecap:round; stroke-linejoin:round; stroke-width:4; stroke-opacity:1; fill:none" points="310.845,393.625 312.828,393.625 314.81,508.611 316.793,756.727 318.775,756.727 320.757,1131.88 322.74,1306.25 324.722,1360.78 326.705,1360.78 328.687,1386.29 330.67,1386.35 332.652,1386.4 334.635,1386.4 336.617,1386.4 338.599,1386.4 340.582,1386.4 "/>
<path clip-path="url(#clip130)" d="M1749.47 477.836 L2282.71 477.836 L2282.71 166.796 L1749.47 166.796  Z" fill="#ffffff" fill-rule="evenodd" fill-opacity="1"/>
<polyline clip-path="url(#clip130)" style="stroke:#000000; stroke-linecap:round; stroke-linejoin:round; stroke-width:4; stroke-opacity:1; fill:none" points="1749.47,477.836 2282.71,477.836 2282.71,166.796 1749.47,166.796 1749.47,477.836 "/>
<polyline clip-path="url(#clip130)" style="stroke:#009af9; stroke-linecap:round; stroke-linejoin:round; stroke-width:4; stroke-opacity:1; fill:none" points="1772.82,218.636 1912.91,218.636 "/>
<path clip-path="url(#clip130)" d="M1936.26 201.356 L1940.94 201.356 L1940.94 231.981 L1957.77 231.981 L1957.77 235.916 L1936.26 235.916 L1936.26 201.356 Z" fill="#000000" fill-rule="nonzero" fill-opacity="1" /><path clip-path="url(#clip130)" d="M1962.67 201.356 L1969.64 201.356 L1978.46 224.874 L1987.33 201.356 L1994.29 201.356 L1994.29 235.916 L1989.73 235.916 L1989.73 205.569 L1980.82 229.272 L1976.12 229.272 L1967.21 205.569 L1967.21 235.916 L1962.67 235.916 L1962.67 201.356 Z" fill="#000000" fill-rule="nonzero" fill-opacity="1" /><path clip-path="url(#clip130)" d="M2023.09 243.786 L2023.09 247.096 L1998.46 247.096 L1998.46 243.786 L2023.09 243.786 Z" fill="#000000" fill-rule="nonzero" fill-opacity="1" /><path clip-path="url(#clip130)" d="M2048 202.49 L2048 207.05 Q2045.33 205.777 2042.97 205.152 Q2040.61 204.527 2038.41 204.527 Q2034.59 204.527 2032.51 206.008 Q2030.45 207.49 2030.45 210.221 Q2030.45 212.513 2031.82 213.694 Q2033.2 214.851 2037.05 215.569 L2039.87 216.147 Q2045.1 217.143 2047.58 219.666 Q2050.08 222.166 2050.08 226.379 Q2050.08 231.402 2046.7 233.994 Q2043.34 236.587 2036.84 236.587 Q2034.39 236.587 2031.61 236.031 Q2028.85 235.476 2025.89 234.388 L2025.89 229.573 Q2028.74 231.17 2031.47 231.981 Q2034.2 232.791 2036.84 232.791 Q2040.84 232.791 2043.02 231.217 Q2045.2 229.643 2045.2 226.726 Q2045.2 224.18 2043.62 222.744 Q2042.07 221.309 2038.51 220.592 L2035.66 220.036 Q2030.43 218.995 2028.09 216.772 Q2025.75 214.55 2025.75 210.592 Q2025.75 206.008 2028.97 203.37 Q2032.21 200.731 2037.88 200.731 Q2040.31 200.731 2042.83 201.171 Q2045.36 201.61 2048 202.49 Z" fill="#000000" fill-rule="nonzero" fill-opacity="1" /><path clip-path="url(#clip130)" d="M2062.05 205.198 L2062.05 218.184 L2067.93 218.184 Q2071.19 218.184 2072.97 216.495 Q2074.76 214.805 2074.76 211.68 Q2074.76 208.578 2072.97 206.888 Q2071.19 205.198 2067.93 205.198 L2062.05 205.198 M2057.37 201.356 L2067.93 201.356 Q2073.74 201.356 2076.7 203.995 Q2079.69 206.61 2079.69 211.68 Q2079.69 216.795 2076.7 219.411 Q2073.74 222.027 2067.93 222.027 L2062.05 222.027 L2062.05 235.916 L2057.37 235.916 L2057.37 201.356 Z" fill="#000000" fill-rule="nonzero" fill-opacity="1" /><path clip-path="url(#clip130)" d="M2109.52 230.985 L2109.52 221.703 L2101.89 221.703 L2101.89 217.86 L2114.15 217.86 L2114.15 232.698 Q2111.45 234.619 2108.18 235.615 Q2104.92 236.587 2101.21 236.587 Q2093.11 236.587 2088.53 231.865 Q2083.97 227.119 2083.97 218.67 Q2083.97 210.198 2088.53 205.476 Q2093.11 200.731 2101.21 200.731 Q2104.59 200.731 2107.63 201.564 Q2110.68 202.397 2113.25 204.018 L2113.25 208.995 Q2110.66 206.796 2107.74 205.684 Q2104.82 204.573 2101.61 204.573 Q2095.26 204.573 2092.07 208.115 Q2088.9 211.657 2088.9 218.67 Q2088.9 225.661 2092.07 229.203 Q2095.26 232.744 2101.61 232.744 Q2104.08 232.744 2106.03 232.328 Q2107.97 231.888 2109.52 230.985 Z" fill="#000000" fill-rule="nonzero" fill-opacity="1" /><polyline clip-path="url(#clip130)" style="stroke:#e26f46; stroke-linecap:round; stroke-linejoin:round; stroke-width:4; stroke-opacity:1; fill:none" points="1772.82,270.476 1912.91,270.476 "/>
<path clip-path="url(#clip130)" d="M1936.26 253.196 L1940.94 253.196 L1940.94 283.821 L1957.77 283.821 L1957.77 287.756 L1936.26 287.756 L1936.26 253.196 Z" fill="#000000" fill-rule="nonzero" fill-opacity="1" /><path clip-path="url(#clip130)" d="M1962.67 253.196 L1969.64 253.196 L1978.46 276.714 L1987.33 253.196 L1994.29 253.196 L1994.29 287.756 L1989.73 287.756 L1989.73 257.409 L1980.82 281.112 L1976.12 281.112 L1967.21 257.409 L1967.21 287.756 L1962.67 287.756 L1962.67 253.196 Z" fill="#000000" fill-rule="nonzero" fill-opacity="1" /><path clip-path="url(#clip130)" d="M2023.09 295.626 L2023.09 298.936 L1998.46 298.936 L1998.46 295.626 L2023.09 295.626 Z" fill="#000000" fill-rule="nonzero" fill-opacity="1" /><path clip-path="url(#clip130)" d="M2038.83 257.802 L2032.49 275.001 L2045.2 275.001 L2038.83 257.802 M2036.19 253.196 L2041.49 253.196 L2054.66 287.756 L2049.8 287.756 L2046.65 278.89 L2031.08 278.89 L2027.93 287.756 L2023 287.756 L2036.19 253.196 Z" fill="#000000" fill-rule="nonzero" fill-opacity="1" /><path clip-path="url(#clip130)" d="M2081.07 272.108 L2081.07 287.756 L2076.82 287.756 L2076.82 272.247 Q2076.82 268.566 2075.38 266.737 Q2073.95 264.909 2071.08 264.909 Q2067.63 264.909 2065.64 267.108 Q2063.64 269.307 2063.64 273.103 L2063.64 287.756 L2059.36 287.756 L2059.36 261.83 L2063.64 261.83 L2063.64 265.858 Q2065.17 263.52 2067.23 262.362 Q2069.32 261.205 2072.02 261.205 Q2076.49 261.205 2078.78 263.983 Q2081.07 266.737 2081.07 272.108 Z" fill="#000000" fill-rule="nonzero" fill-opacity="1" /><path clip-path="url(#clip130)" d="M2106.63 265.765 L2106.63 251.737 L2110.89 251.737 L2110.89 287.756 L2106.63 287.756 L2106.63 283.867 Q2105.29 286.182 2103.23 287.316 Q2101.19 288.427 2098.32 288.427 Q2093.62 288.427 2090.66 284.677 Q2087.72 280.927 2087.72 274.816 Q2087.72 268.705 2090.66 264.955 Q2093.62 261.205 2098.32 261.205 Q2101.19 261.205 2103.23 262.339 Q2105.29 263.45 2106.63 265.765 M2092.12 274.816 Q2092.12 279.515 2094.04 282.2 Q2095.98 284.862 2099.36 284.862 Q2102.74 284.862 2104.69 282.2 Q2106.63 279.515 2106.63 274.816 Q2106.63 270.117 2104.69 267.455 Q2102.74 264.77 2099.36 264.77 Q2095.98 264.77 2094.04 267.455 Q2092.12 270.117 2092.12 274.816 Z" fill="#000000" fill-rule="nonzero" fill-opacity="1" /><path clip-path="url(#clip130)" d="M2134.69 265.811 Q2133.97 265.395 2133.11 265.21 Q2132.28 265.001 2131.26 265.001 Q2127.65 265.001 2125.7 267.362 Q2123.78 269.7 2123.78 274.098 L2123.78 287.756 L2119.5 287.756 L2119.5 261.83 L2123.78 261.83 L2123.78 265.858 Q2125.13 263.497 2127.28 262.362 Q2129.43 261.205 2132.51 261.205 Q2132.95 261.205 2133.48 261.274 Q2134.01 261.321 2134.66 261.436 L2134.69 265.811 Z" fill="#000000" fill-rule="nonzero" fill-opacity="1" /><path clip-path="url(#clip130)" d="M2160.29 273.728 L2160.29 275.811 L2140.7 275.811 Q2140.98 280.209 2143.34 282.524 Q2145.73 284.816 2149.96 284.816 Q2152.42 284.816 2154.71 284.214 Q2157.02 283.612 2159.29 282.409 L2159.29 286.436 Q2157 287.408 2154.59 287.918 Q2152.19 288.427 2149.71 288.427 Q2143.51 288.427 2139.87 284.816 Q2136.26 281.205 2136.26 275.047 Q2136.26 268.682 2139.69 264.955 Q2143.13 261.205 2148.97 261.205 Q2154.2 261.205 2157.23 264.585 Q2160.29 267.941 2160.29 273.728 M2156.03 272.478 Q2155.98 268.983 2154.06 266.899 Q2152.16 264.816 2149.01 264.816 Q2145.45 264.816 2143.3 266.83 Q2141.17 268.844 2140.84 272.501 L2156.03 272.478 Z" fill="#000000" fill-rule="nonzero" fill-opacity="1" /><path clip-path="url(#clip130)" d="M2167.28 261.83 L2171.54 261.83 L2171.54 287.756 L2167.28 287.756 L2167.28 261.83 M2167.28 251.737 L2171.54 251.737 L2171.54 257.131 L2167.28 257.131 L2167.28 251.737 Z" fill="#000000" fill-rule="nonzero" fill-opacity="1" /><path clip-path="url(#clip130)" d="M2200.15 295.626 L2200.15 298.936 L2175.52 298.936 L2175.52 295.626 L2200.15 295.626 Z" fill="#000000" fill-rule="nonzero" fill-opacity="1" /><path clip-path="url(#clip130)" d="M2215.94 274.723 Q2210.77 274.723 2208.78 275.904 Q2206.79 277.084 2206.79 279.932 Q2206.79 282.2 2208.27 283.543 Q2209.78 284.862 2212.35 284.862 Q2215.89 284.862 2218.02 282.362 Q2220.17 279.839 2220.17 275.672 L2220.17 274.723 L2215.94 274.723 M2224.43 272.964 L2224.43 287.756 L2220.17 287.756 L2220.17 283.821 Q2218.71 286.182 2216.54 287.316 Q2214.36 288.427 2211.21 288.427 Q2207.23 288.427 2204.87 286.205 Q2202.53 283.959 2202.53 280.209 Q2202.53 275.834 2205.45 273.612 Q2208.39 271.39 2214.2 271.39 L2220.17 271.39 L2220.17 270.973 Q2220.17 268.034 2218.23 266.436 Q2216.31 264.816 2212.81 264.816 Q2210.59 264.816 2208.48 265.348 Q2206.38 265.881 2204.43 266.946 L2204.43 263.01 Q2206.77 262.108 2208.97 261.668 Q2211.17 261.205 2213.25 261.205 Q2218.88 261.205 2221.65 264.122 Q2224.43 267.038 2224.43 272.964 Z" fill="#000000" fill-rule="nonzero" fill-opacity="1" /><path clip-path="url(#clip130)" d="M2233.2 251.737 L2237.46 251.737 L2237.46 287.756 L2233.2 287.756 L2233.2 251.737 Z" fill="#000000" fill-rule="nonzero" fill-opacity="1" /><path clip-path="url(#clip130)" d="M2250.59 254.469 L2250.59 261.83 L2259.36 261.83 L2259.36 265.14 L2250.59 265.14 L2250.59 279.214 Q2250.59 282.385 2251.44 283.288 Q2252.32 284.191 2254.99 284.191 L2259.36 284.191 L2259.36 287.756 L2254.99 287.756 Q2250.06 287.756 2248.18 285.927 Q2246.31 284.075 2246.31 279.214 L2246.31 265.14 L2243.18 265.14 L2243.18 261.83 L2246.31 261.83 L2246.31 254.469 L2250.59 254.469 Z" fill="#000000" fill-rule="nonzero" fill-opacity="1" /><polyline clip-path="url(#clip130)" style="stroke:#3da44d; stroke-linecap:round; stroke-linejoin:round; stroke-width:4; stroke-opacity:1; fill:none" points="1772.82,322.316 1912.91,322.316 "/>
<path clip-path="url(#clip130)" d="M1936.26 305.036 L1940.94 305.036 L1940.94 335.661 L1957.77 335.661 L1957.77 339.596 L1936.26 339.596 L1936.26 305.036 Z" fill="#000000" fill-rule="nonzero" fill-opacity="1" /><path clip-path="url(#clip130)" d="M1962.67 305.036 L1969.64 305.036 L1978.46 328.554 L1987.33 305.036 L1994.29 305.036 L1994.29 339.596 L1989.73 339.596 L1989.73 309.249 L1980.82 332.952 L1976.12 332.952 L1967.21 309.249 L1967.21 339.596 L1962.67 339.596 L1962.67 305.036 Z" fill="#000000" fill-rule="nonzero" fill-opacity="1" /><path clip-path="url(#clip130)" d="M2023.09 347.466 L2023.09 350.776 L1998.46 350.776 L1998.46 347.466 L2023.09 347.466 Z" fill="#000000" fill-rule="nonzero" fill-opacity="1" /><path clip-path="url(#clip130)" d="M2038.83 309.642 L2032.49 326.841 L2045.2 326.841 L2038.83 309.642 M2036.19 305.036 L2041.49 305.036 L2054.66 339.596 L2049.8 339.596 L2046.65 330.73 L2031.08 330.73 L2027.93 339.596 L2023 339.596 L2036.19 305.036 Z" fill="#000000" fill-rule="nonzero" fill-opacity="1" /><path clip-path="url(#clip130)" d="M2081.07 323.948 L2081.07 339.596 L2076.82 339.596 L2076.82 324.087 Q2076.82 320.406 2075.38 318.577 Q2073.95 316.749 2071.08 316.749 Q2067.63 316.749 2065.64 318.948 Q2063.64 321.147 2063.64 324.943 L2063.64 339.596 L2059.36 339.596 L2059.36 313.67 L2063.64 313.67 L2063.64 317.698 Q2065.17 315.36 2067.23 314.202 Q2069.32 313.045 2072.02 313.045 Q2076.49 313.045 2078.78 315.823 Q2081.07 318.577 2081.07 323.948 Z" fill="#000000" fill-rule="nonzero" fill-opacity="1" /><path clip-path="url(#clip130)" d="M2106.63 317.605 L2106.63 303.577 L2110.89 303.577 L2110.89 339.596 L2106.63 339.596 L2106.63 335.707 Q2105.29 338.022 2103.23 339.156 Q2101.19 340.267 2098.32 340.267 Q2093.62 340.267 2090.66 336.517 Q2087.72 332.767 2087.72 326.656 Q2087.72 320.545 2090.66 316.795 Q2093.62 313.045 2098.32 313.045 Q2101.19 313.045 2103.23 314.179 Q2105.29 315.29 2106.63 317.605 M2092.12 326.656 Q2092.12 331.355 2094.04 334.04 Q2095.98 336.702 2099.36 336.702 Q2102.74 336.702 2104.69 334.04 Q2106.63 331.355 2106.63 326.656 Q2106.63 321.957 2104.69 319.295 Q2102.74 316.61 2099.36 316.61 Q2095.98 316.61 2094.04 319.295 Q2092.12 321.957 2092.12 326.656 Z" fill="#000000" fill-rule="nonzero" fill-opacity="1" /><path clip-path="url(#clip130)" d="M2134.69 317.651 Q2133.97 317.235 2133.11 317.05 Q2132.28 316.841 2131.26 316.841 Q2127.65 316.841 2125.7 319.202 Q2123.78 321.54 2123.78 325.938 L2123.78 339.596 L2119.5 339.596 L2119.5 313.67 L2123.78 313.67 L2123.78 317.698 Q2125.13 315.337 2127.28 314.202 Q2129.43 313.045 2132.51 313.045 Q2132.95 313.045 2133.48 313.114 Q2134.01 313.161 2134.66 313.276 L2134.69 317.651 Z" fill="#000000" fill-rule="nonzero" fill-opacity="1" /><path clip-path="url(#clip130)" d="M2160.29 325.568 L2160.29 327.651 L2140.7 327.651 Q2140.98 332.049 2143.34 334.364 Q2145.73 336.656 2149.96 336.656 Q2152.42 336.656 2154.71 336.054 Q2157.02 335.452 2159.29 334.249 L2159.29 338.276 Q2157 339.248 2154.59 339.758 Q2152.19 340.267 2149.71 340.267 Q2143.51 340.267 2139.87 336.656 Q2136.26 333.045 2136.26 326.887 Q2136.26 320.522 2139.69 316.795 Q2143.13 313.045 2148.97 313.045 Q2154.2 313.045 2157.23 316.425 Q2160.29 319.781 2160.29 325.568 M2156.03 324.318 Q2155.98 320.823 2154.06 318.739 Q2152.16 316.656 2149.01 316.656 Q2145.45 316.656 2143.3 318.67 Q2141.17 320.684 2140.84 324.341 L2156.03 324.318 Z" fill="#000000" fill-rule="nonzero" fill-opacity="1" /><path clip-path="url(#clip130)" d="M2167.28 313.67 L2171.54 313.67 L2171.54 339.596 L2167.28 339.596 L2167.28 313.67 M2167.28 303.577 L2171.54 303.577 L2171.54 308.971 L2167.28 308.971 L2167.28 303.577 Z" fill="#000000" fill-rule="nonzero" fill-opacity="1" /><polyline clip-path="url(#clip130)" style="stroke:#c271d2; stroke-linecap:round; stroke-linejoin:round; stroke-width:4; stroke-opacity:1; fill:none" points="1772.82,374.156 1912.91,374.156 "/>
<path clip-path="url(#clip130)" d="M1936.26 356.876 L1940.94 356.876 L1940.94 387.501 L1957.77 387.501 L1957.77 391.436 L1936.26 391.436 L1936.26 356.876 Z" fill="#000000" fill-rule="nonzero" fill-opacity="1" /><path clip-path="url(#clip130)" d="M1962.67 356.876 L1969.64 356.876 L1978.46 380.394 L1987.33 356.876 L1994.29 356.876 L1994.29 391.436 L1989.73 391.436 L1989.73 361.089 L1980.82 384.792 L1976.12 384.792 L1967.21 361.089 L1967.21 391.436 L1962.67 391.436 L1962.67 356.876 Z" fill="#000000" fill-rule="nonzero" fill-opacity="1" /><path clip-path="url(#clip130)" d="M2023.09 399.306 L2023.09 402.616 L1998.46 402.616 L1998.46 399.306 L2023.09 399.306 Z" fill="#000000" fill-rule="nonzero" fill-opacity="1" /><path clip-path="url(#clip130)" d="M2048 358.01 L2048 362.57 Q2045.33 361.297 2042.97 360.672 Q2040.61 360.047 2038.41 360.047 Q2034.59 360.047 2032.51 361.528 Q2030.45 363.01 2030.45 365.741 Q2030.45 368.033 2031.82 369.214 Q2033.2 370.371 2037.05 371.089 L2039.87 371.667 Q2045.1 372.663 2047.58 375.186 Q2050.08 377.686 2050.08 381.899 Q2050.08 386.922 2046.7 389.514 Q2043.34 392.107 2036.84 392.107 Q2034.39 392.107 2031.61 391.551 Q2028.85 390.996 2025.89 389.908 L2025.89 385.093 Q2028.74 386.69 2031.47 387.501 Q2034.2 388.311 2036.84 388.311 Q2040.84 388.311 2043.02 386.737 Q2045.2 385.163 2045.2 382.246 Q2045.2 379.7 2043.62 378.264 Q2042.07 376.829 2038.51 376.112 L2035.66 375.556 Q2030.43 374.515 2028.09 372.292 Q2025.75 370.07 2025.75 366.112 Q2025.75 361.528 2028.97 358.89 Q2032.21 356.251 2037.88 356.251 Q2040.31 356.251 2042.83 356.691 Q2045.36 357.13 2048 358.01 Z" fill="#000000" fill-rule="nonzero" fill-opacity="1" /><path clip-path="url(#clip130)" d="M2062.05 360.718 L2062.05 373.704 L2067.93 373.704 Q2071.19 373.704 2072.97 372.015 Q2074.76 370.325 2074.76 367.2 Q2074.76 364.098 2072.97 362.408 Q2071.19 360.718 2067.93 360.718 L2062.05 360.718 M2057.37 356.876 L2067.93 356.876 Q2073.74 356.876 2076.7 359.515 Q2079.69 362.13 2079.69 367.2 Q2079.69 372.315 2076.7 374.931 Q2073.74 377.547 2067.93 377.547 L2062.05 377.547 L2062.05 391.436 L2057.37 391.436 L2057.37 356.876 Z" fill="#000000" fill-rule="nonzero" fill-opacity="1" /><path clip-path="url(#clip130)" d="M2109.52 386.505 L2109.52 377.223 L2101.89 377.223 L2101.89 373.38 L2114.15 373.38 L2114.15 388.218 Q2111.45 390.139 2108.18 391.135 Q2104.92 392.107 2101.21 392.107 Q2093.11 392.107 2088.53 387.385 Q2083.97 382.639 2083.97 374.19 Q2083.97 365.718 2088.53 360.996 Q2093.11 356.251 2101.21 356.251 Q2104.59 356.251 2107.63 357.084 Q2110.68 357.917 2113.25 359.538 L2113.25 364.515 Q2110.66 362.316 2107.74 361.204 Q2104.82 360.093 2101.61 360.093 Q2095.26 360.093 2092.07 363.635 Q2088.9 367.177 2088.9 374.19 Q2088.9 381.181 2092.07 384.723 Q2095.26 388.264 2101.61 388.264 Q2104.08 388.264 2106.03 387.848 Q2107.97 387.408 2109.52 386.505 Z" fill="#000000" fill-rule="nonzero" fill-opacity="1" /><path clip-path="url(#clip130)" d="M2142.21 399.306 L2142.21 402.616 L2117.58 402.616 L2117.58 399.306 L2142.21 399.306 Z" fill="#000000" fill-rule="nonzero" fill-opacity="1" /><path clip-path="url(#clip130)" d="M2158 378.403 Q2152.83 378.403 2150.84 379.584 Q2148.85 380.764 2148.85 383.612 Q2148.85 385.88 2150.33 387.223 Q2151.84 388.542 2154.41 388.542 Q2157.95 388.542 2160.08 386.042 Q2162.23 383.519 2162.23 379.352 L2162.23 378.403 L2158 378.403 M2166.49 376.644 L2166.49 391.436 L2162.23 391.436 L2162.23 387.501 Q2160.77 389.862 2158.6 390.996 Q2156.42 392.107 2153.27 392.107 Q2149.29 392.107 2146.93 389.885 Q2144.59 387.639 2144.59 383.889 Q2144.59 379.514 2147.51 377.292 Q2150.45 375.07 2156.26 375.07 L2162.23 375.07 L2162.23 374.653 Q2162.23 371.714 2160.29 370.116 Q2158.37 368.496 2154.87 368.496 Q2152.65 368.496 2150.54 369.028 Q2148.44 369.561 2146.49 370.626 L2146.49 366.69 Q2148.83 365.788 2151.03 365.348 Q2153.23 364.885 2155.31 364.885 Q2160.94 364.885 2163.71 367.802 Q2166.49 370.718 2166.49 376.644 Z" fill="#000000" fill-rule="nonzero" fill-opacity="1" /><path clip-path="url(#clip130)" d="M2175.26 355.417 L2179.52 355.417 L2179.52 391.436 L2175.26 391.436 L2175.26 355.417 Z" fill="#000000" fill-rule="nonzero" fill-opacity="1" /><path clip-path="url(#clip130)" d="M2192.65 358.149 L2192.65 365.51 L2201.42 365.51 L2201.42 368.82 L2192.65 368.82 L2192.65 382.894 Q2192.65 386.065 2193.5 386.968 Q2194.38 387.871 2197.05 387.871 L2201.42 387.871 L2201.42 391.436 L2197.05 391.436 Q2192.12 391.436 2190.24 389.607 Q2188.37 387.755 2188.37 382.894 L2188.37 368.82 L2185.24 368.82 L2185.24 365.51 L2188.37 365.51 L2188.37 358.149 L2192.65 358.149 Z" fill="#000000" fill-rule="nonzero" fill-opacity="1" /><polyline clip-path="url(#clip130)" style="stroke:#ac8d18; stroke-linecap:round; stroke-linejoin:round; stroke-width:4; stroke-opacity:1; fill:none" points="1772.82,425.996 1912.91,425.996 "/>
<path clip-path="url(#clip130)" d="M1936.26 408.716 L1940.94 408.716 L1940.94 439.341 L1957.77 439.341 L1957.77 443.276 L1936.26 443.276 L1936.26 408.716 Z" fill="#000000" fill-rule="nonzero" fill-opacity="1" /><path clip-path="url(#clip130)" d="M1962.67 408.716 L1969.64 408.716 L1978.46 432.234 L1987.33 408.716 L1994.29 408.716 L1994.29 443.276 L1989.73 443.276 L1989.73 412.929 L1980.82 436.632 L1976.12 436.632 L1967.21 412.929 L1967.21 443.276 L1962.67 443.276 L1962.67 408.716 Z" fill="#000000" fill-rule="nonzero" fill-opacity="1" /></svg>
