<?xml version="1.0" encoding="utf-8"?>
<svg xmlns="http://www.w3.org/2000/svg" xmlns:xlink="http://www.w3.org/1999/xlink" width="600" height="400" viewBox="0 0 2400 1600">
<defs>
  <clipPath id="clip380">
    <rect x="0" y="0" width="2400" height="1600"/>
  </clipPath>
</defs>
<path clip-path="url(#clip380)" d="M0 1600 L2400 1600 L2400 0 L0 0  Z" fill="#ffffff" fill-rule="evenodd" fill-opacity="1"/>
<defs>
  <clipPath id="clip381">
    <rect x="480" y="0" width="1681" height="1600"/>
  </clipPath>
</defs>
<path clip-path="url(#clip380)" d="M251.842 1423.18 L2352.76 1423.18 L2352.76 123.472 L251.842 123.472  Z" fill="#ffffff" fill-rule="evenodd" fill-opacity="1"/>
<defs>
  <clipPath id="clip382">
    <rect x="251" y="123" width="2102" height="1301"/>
  </clipPath>
</defs>
<polyline clip-path="url(#clip382)" style="stroke:#000000; stroke-linecap:round; stroke-linejoin:round; stroke-width:2; stroke-opacity:0.1; fill:none" points="307.897,1423.18 307.897,123.472 "/>
<polyline clip-path="url(#clip382)" style="stroke:#000000; stroke-linecap:round; stroke-linejoin:round; stroke-width:2; stroke-opacity:0.1; fill:none" points="648.445,1423.18 648.445,123.472 "/>
<polyline clip-path="url(#clip382)" style="stroke:#000000; stroke-linecap:round; stroke-linejoin:round; stroke-width:2; stroke-opacity:0.1; fill:none" points="988.994,1423.18 988.994,123.472 "/>
<polyline clip-path="url(#clip382)" style="stroke:#000000; stroke-linecap:round; stroke-linejoin:round; stroke-width:2; stroke-opacity:0.1; fill:none" points="1329.54,1423.18 1329.54,123.472 "/>
<polyline clip-path="url(#clip382)" style="stroke:#000000; stroke-linecap:round; stroke-linejoin:round; stroke-width:2; stroke-opacity:0.1; fill:none" points="1670.09,1423.18 1670.09,123.472 "/>
<polyline clip-path="url(#clip382)" style="stroke:#000000; stroke-linecap:round; stroke-linejoin:round; stroke-width:2; stroke-opacity:0.1; fill:none" points="2010.64,1423.18 2010.64,123.472 "/>
<polyline clip-path="url(#clip382)" style="stroke:#000000; stroke-linecap:round; stroke-linejoin:round; stroke-width:2; stroke-opacity:0.1; fill:none" points="2351.19,1423.18 2351.19,123.472 "/>
<polyline clip-path="url(#clip380)" style="stroke:#000000; stroke-linecap:round; stroke-linejoin:round; stroke-width:4; stroke-opacity:1; fill:none" points="251.842,1423.18 2352.76,1423.18 "/>
<polyline clip-path="url(#clip380)" style="stroke:#000000; stroke-linecap:round; stroke-linejoin:round; stroke-width:4; stroke-opacity:1; fill:none" points="307.897,1423.18 307.897,1404.28 "/>
<polyline clip-path="url(#clip380)" style="stroke:#000000; stroke-linecap:round; stroke-linejoin:round; stroke-width:4; stroke-opacity:1; fill:none" points="648.445,1423.18 648.445,1404.28 "/>
<polyline clip-path="url(#clip380)" style="stroke:#000000; stroke-linecap:round; stroke-linejoin:round; stroke-width:4; stroke-opacity:1; fill:none" points="988.994,1423.18 988.994,1404.28 "/>
<polyline clip-path="url(#clip380)" style="stroke:#000000; stroke-linecap:round; stroke-linejoin:round; stroke-width:4; stroke-opacity:1; fill:none" points="1329.54,1423.18 1329.54,1404.28 "/>
<polyline clip-path="url(#clip380)" style="stroke:#000000; stroke-linecap:round; stroke-linejoin:round; stroke-width:4; stroke-opacity:1; fill:none" points="1670.09,1423.18 1670.09,1404.28 "/>
<polyline clip-path="url(#clip380)" style="stroke:#000000; stroke-linecap:round; stroke-linejoin:round; stroke-width:4; stroke-opacity:1; fill:none" points="2010.64,1423.18 2010.64,1404.28 "/>
<polyline clip-path="url(#clip380)" style="stroke:#000000; stroke-linecap:round; stroke-linejoin:round; stroke-width:4; stroke-opacity:1; fill:none" points="2351.19,1423.18 2351.19,1404.28 "/>
<path clip-path="url(#clip380)" d="M307.897 1454.1 Q304.286 1454.1 302.457 1457.66 Q300.651 1461.2 300.651 1468.33 Q300.651 1475.44 302.457 1479.01 Q304.286 1482.55 307.897 1482.55 Q311.531 1482.55 313.336 1479.01 Q315.165 1475.44 315.165 1468.33 Q315.165 1461.2 313.336 1457.66 Q311.531 1454.1 307.897 1454.1 M307.897 1450.39 Q313.707 1450.39 316.762 1455 Q319.841 1459.58 319.841 1468.33 Q319.841 1477.06 316.762 1481.67 Q313.707 1486.25 307.897 1486.25 Q302.087 1486.25 299.008 1481.67 Q295.952 1477.06 295.952 1468.33 Q295.952 1459.58 299.008 1455 Q302.087 1450.39 307.897 1450.39 Z" fill="#000000" fill-rule="nonzero" fill-opacity="1" /><path clip-path="url(#clip380)" d="M608.052 1481.64 L615.691 1481.64 L615.691 1455.28 L607.381 1456.95 L607.381 1452.69 L615.645 1451.02 L620.321 1451.02 L620.321 1481.64 L627.959 1481.64 L627.959 1485.58 L608.052 1485.58 L608.052 1481.64 Z" fill="#000000" fill-rule="nonzero" fill-opacity="1" /><path clip-path="url(#clip380)" d="M647.404 1454.1 Q643.793 1454.1 641.964 1457.66 Q640.158 1461.2 640.158 1468.33 Q640.158 1475.44 641.964 1479.01 Q643.793 1482.55 647.404 1482.55 Q651.038 1482.55 652.844 1479.01 Q654.672 1475.44 654.672 1468.33 Q654.672 1461.2 652.844 1457.66 Q651.038 1454.1 647.404 1454.1 M647.404 1450.39 Q653.214 1450.39 656.27 1455 Q659.348 1459.58 659.348 1468.33 Q659.348 1477.06 656.27 1481.67 Q653.214 1486.25 647.404 1486.25 Q641.594 1486.25 638.515 1481.67 Q635.459 1477.06 635.459 1468.33 Q635.459 1459.58 638.515 1455 Q641.594 1450.39 647.404 1450.39 Z" fill="#000000" fill-rule="nonzero" fill-opacity="1" /><path clip-path="url(#clip380)" d="M677.566 1454.1 Q673.955 1454.1 672.126 1457.66 Q670.32 1461.2 670.32 1468.33 Q670.32 1475.44 672.126 1479.01 Q673.955 1482.55 677.566 1482.55 Q681.2 1482.55 683.005 1479.01 Q684.834 1475.44 684.834 1468.33 Q684.834 1461.2 683.005 1457.66 Q681.2 1454.1 677.566 1454.1 M677.566 1450.39 Q683.376 1450.39 686.431 1455 Q689.51 1459.58 689.51 1468.33 Q689.51 1477.06 686.431 1481.67 Q683.376 1486.25 677.566 1486.25 Q671.756 1486.25 668.677 1481.67 Q665.621 1477.06 665.621 1468.33 Q665.621 1459.58 668.677 1455 Q671.756 1450.39 677.566 1450.39 Z" fill="#000000" fill-rule="nonzero" fill-opacity="1" /><path clip-path="url(#clip380)" d="M952.687 1481.64 L969.006 1481.64 L969.006 1485.58 L947.062 1485.58 L947.062 1481.64 Q949.724 1478.89 954.307 1474.26 Q958.913 1469.61 960.094 1468.27 Q962.339 1465.74 963.219 1464.01 Q964.122 1462.25 964.122 1460.56 Q964.122 1457.8 962.177 1456.07 Q960.256 1454.33 957.154 1454.33 Q954.955 1454.33 952.501 1455.09 Q950.071 1455.86 947.293 1457.41 L947.293 1452.69 Q950.117 1451.55 952.571 1450.97 Q955.025 1450.39 957.062 1450.39 Q962.432 1450.39 965.626 1453.08 Q968.821 1455.77 968.821 1460.26 Q968.821 1462.39 968.011 1464.31 Q967.224 1466.2 965.117 1468.8 Q964.538 1469.47 961.437 1472.69 Q958.335 1475.88 952.687 1481.64 Z" fill="#000000" fill-rule="nonzero" fill-opacity="1" /><path clip-path="url(#clip380)" d="M988.821 1454.1 Q985.21 1454.1 983.381 1457.66 Q981.575 1461.2 981.575 1468.33 Q981.575 1475.44 983.381 1479.01 Q985.21 1482.55 988.821 1482.55 Q992.455 1482.55 994.26 1479.01 Q996.089 1475.44 996.089 1468.33 Q996.089 1461.2 994.26 1457.66 Q992.455 1454.1 988.821 1454.1 M988.821 1450.39 Q994.631 1450.39 997.686 1455 Q1000.77 1459.58 1000.77 1468.33 Q1000.77 1477.06 997.686 1481.67 Q994.631 1486.25 988.821 1486.25 Q983.01 1486.25 979.932 1481.67 Q976.876 1477.06 976.876 1468.33 Q976.876 1459.58 979.932 1455 Q983.01 1450.39 988.821 1450.39 Z" fill="#000000" fill-rule="nonzero" fill-opacity="1" /><path clip-path="url(#clip380)" d="M1018.98 1454.1 Q1015.37 1454.1 1013.54 1457.66 Q1011.74 1461.2 1011.74 1468.33 Q1011.74 1475.44 1013.54 1479.01 Q1015.37 1482.55 1018.98 1482.55 Q1022.62 1482.55 1024.42 1479.01 Q1026.25 1475.44 1026.25 1468.33 Q1026.25 1461.2 1024.42 1457.66 Q1022.62 1454.1 1018.98 1454.1 M1018.98 1450.39 Q1024.79 1450.39 1027.85 1455 Q1030.93 1459.58 1030.93 1468.33 Q1030.93 1477.06 1027.85 1481.67 Q1024.79 1486.25 1018.98 1486.25 Q1013.17 1486.25 1010.09 1481.67 Q1007.04 1477.06 1007.04 1468.33 Q1007.04 1459.58 1010.09 1455 Q1013.17 1450.39 1018.98 1450.39 Z" fill="#000000" fill-rule="nonzero" fill-opacity="1" /><path clip-path="url(#clip380)" d="M1303.3 1466.95 Q1306.66 1467.66 1308.54 1469.93 Q1310.43 1472.2 1310.43 1475.53 Q1310.43 1480.65 1306.92 1483.45 Q1303.4 1486.25 1296.92 1486.25 Q1294.74 1486.25 1292.43 1485.81 Q1290.13 1485.39 1287.68 1484.54 L1287.68 1480.02 Q1289.62 1481.16 1291.94 1481.74 Q1294.25 1482.32 1296.78 1482.32 Q1301.18 1482.32 1303.47 1480.58 Q1305.78 1478.84 1305.78 1475.53 Q1305.78 1472.48 1303.63 1470.77 Q1301.5 1469.03 1297.68 1469.03 L1293.65 1469.03 L1293.65 1465.19 L1297.86 1465.19 Q1301.31 1465.19 1303.14 1463.82 Q1304.97 1462.43 1304.97 1459.84 Q1304.97 1457.18 1303.07 1455.77 Q1301.2 1454.33 1297.68 1454.33 Q1295.76 1454.33 1293.56 1454.75 Q1291.36 1455.16 1288.72 1456.04 L1288.72 1451.88 Q1291.38 1451.14 1293.7 1450.77 Q1296.04 1450.39 1298.1 1450.39 Q1303.42 1450.39 1306.52 1452.83 Q1309.62 1455.23 1309.62 1459.35 Q1309.62 1462.22 1307.98 1464.21 Q1306.34 1466.18 1303.3 1466.95 Z" fill="#000000" fill-rule="nonzero" fill-opacity="1" /><path clip-path="url(#clip380)" d="M1329.3 1454.1 Q1325.69 1454.1 1323.86 1457.66 Q1322.05 1461.2 1322.05 1468.33 Q1322.05 1475.44 1323.86 1479.01 Q1325.69 1482.55 1329.3 1482.55 Q1332.93 1482.55 1334.74 1479.01 Q1336.57 1475.44 1336.57 1468.33 Q1336.57 1461.2 1334.74 1457.66 Q1332.93 1454.1 1329.3 1454.1 M1329.3 1450.39 Q1335.11 1450.39 1338.17 1455 Q1341.24 1459.58 1341.24 1468.33 Q1341.24 1477.06 1338.17 1481.67 Q1335.11 1486.25 1329.3 1486.25 Q1323.49 1486.25 1320.41 1481.67 Q1317.36 1477.06 1317.36 1468.33 Q1317.36 1459.58 1320.41 1455 Q1323.49 1450.39 1329.3 1450.39 Z" fill="#000000" fill-rule="nonzero" fill-opacity="1" /><path clip-path="url(#clip380)" d="M1359.46 1454.1 Q1355.85 1454.1 1354.02 1457.66 Q1352.22 1461.2 1352.22 1468.33 Q1352.22 1475.44 1354.02 1479.01 Q1355.85 1482.55 1359.46 1482.55 Q1363.1 1482.55 1364.9 1479.01 Q1366.73 1475.44 1366.73 1468.33 Q1366.73 1461.2 1364.9 1457.66 Q1363.1 1454.1 1359.46 1454.1 M1359.46 1450.39 Q1365.27 1450.39 1368.33 1455 Q1371.41 1459.58 1371.41 1468.33 Q1371.41 1477.06 1368.33 1481.67 Q1365.27 1486.25 1359.46 1486.25 Q1353.65 1486.25 1350.57 1481.67 Q1347.52 1477.06 1347.52 1468.33 Q1347.52 1459.58 1350.57 1455 Q1353.65 1450.39 1359.46 1450.39 Z" fill="#000000" fill-rule="nonzero" fill-opacity="1" /><path clip-path="url(#clip380)" d="M1643.18 1455.09 L1631.38 1473.54 L1643.18 1473.54 L1643.18 1455.09 M1641.96 1451.02 L1647.83 1451.02 L1647.83 1473.54 L1652.77 1473.54 L1652.77 1477.43 L1647.83 1477.43 L1647.83 1485.58 L1643.18 1485.58 L1643.18 1477.43 L1627.58 1477.43 L1627.58 1472.92 L1641.96 1451.02 Z" fill="#000000" fill-rule="nonzero" fill-opacity="1" /><path clip-path="url(#clip380)" d="M1670.5 1454.1 Q1666.89 1454.1 1665.06 1457.66 Q1663.25 1461.2 1663.25 1468.33 Q1663.25 1475.44 1665.06 1479.01 Q1666.89 1482.55 1670.5 1482.55 Q1674.13 1482.55 1675.94 1479.01 Q1677.77 1475.44 1677.77 1468.33 Q1677.77 1461.2 1675.94 1457.66 Q1674.13 1454.1 1670.5 1454.1 M1670.5 1450.39 Q1676.31 1450.39 1679.36 1455 Q1682.44 1459.58 1682.44 1468.33 Q1682.44 1477.06 1679.36 1481.67 Q1676.31 1486.25 1670.5 1486.25 Q1664.69 1486.25 1661.61 1481.67 Q1658.55 1477.06 1658.55 1468.33 Q1658.55 1459.58 1661.61 1455 Q1664.69 1450.39 1670.5 1450.39 Z" fill="#000000" fill-rule="nonzero" fill-opacity="1" /><path clip-path="url(#clip380)" d="M1700.66 1454.1 Q1697.05 1454.1 1695.22 1457.66 Q1693.41 1461.2 1693.41 1468.33 Q1693.41 1475.44 1695.22 1479.01 Q1697.05 1482.55 1700.66 1482.55 Q1704.29 1482.55 1706.1 1479.01 Q1707.93 1475.44 1707.93 1468.33 Q1707.93 1461.2 1706.1 1457.66 Q1704.29 1454.1 1700.66 1454.1 M1700.66 1450.39 Q1706.47 1450.39 1709.52 1455 Q1712.6 1459.58 1712.6 1468.33 Q1712.6 1477.06 1709.52 1481.67 Q1706.47 1486.25 1700.66 1486.25 Q1694.85 1486.25 1691.77 1481.67 Q1688.71 1477.06 1688.71 1468.33 Q1688.71 1459.58 1691.77 1455 Q1694.85 1450.39 1700.66 1450.39 Z" fill="#000000" fill-rule="nonzero" fill-opacity="1" /><path clip-path="url(#clip380)" d="M1970.26 1451.02 L1988.62 1451.02 L1988.62 1454.96 L1974.54 1454.96 L1974.54 1463.43 Q1975.56 1463.08 1976.58 1462.92 Q1977.6 1462.73 1978.62 1462.73 Q1984.4 1462.73 1987.78 1465.9 Q1991.16 1469.08 1991.16 1474.49 Q1991.16 1480.07 1987.69 1483.17 Q1984.22 1486.25 1977.9 1486.25 Q1975.72 1486.25 1973.45 1485.88 Q1971.21 1485.51 1968.8 1484.77 L1968.8 1480.07 Q1970.88 1481.2 1973.11 1481.76 Q1975.33 1482.32 1977.81 1482.32 Q1981.81 1482.32 1984.15 1480.21 Q1986.49 1478.1 1986.49 1474.49 Q1986.49 1470.88 1984.15 1468.77 Q1981.81 1466.67 1977.81 1466.67 Q1975.93 1466.67 1974.06 1467.08 Q1972.2 1467.5 1970.26 1468.38 L1970.26 1451.02 Z" fill="#000000" fill-rule="nonzero" fill-opacity="1" /><path clip-path="url(#clip380)" d="M2010.37 1454.1 Q2006.76 1454.1 2004.93 1457.66 Q2003.13 1461.2 2003.13 1468.33 Q2003.13 1475.44 2004.93 1479.01 Q2006.76 1482.55 2010.37 1482.55 Q2014.01 1482.55 2015.81 1479.01 Q2017.64 1475.44 2017.64 1468.33 Q2017.64 1461.2 2015.81 1457.66 Q2014.01 1454.1 2010.37 1454.1 M2010.37 1450.39 Q2016.18 1450.39 2019.24 1455 Q2022.32 1459.58 2022.32 1468.33 Q2022.32 1477.06 2019.24 1481.67 Q2016.18 1486.25 2010.37 1486.25 Q2004.56 1486.25 2001.49 1481.67 Q1998.43 1477.06 1998.43 1468.33 Q1998.43 1459.58 2001.49 1455 Q2004.56 1450.39 2010.37 1450.39 Z" fill="#000000" fill-rule="nonzero" fill-opacity="1" /><path clip-path="url(#clip380)" d="M2040.54 1454.1 Q2036.93 1454.1 2035.1 1457.66 Q2033.29 1461.2 2033.29 1468.33 Q2033.29 1475.44 2035.1 1479.01 Q2036.93 1482.55 2040.54 1482.55 Q2044.17 1482.55 2045.98 1479.01 Q2047.8 1475.44 2047.8 1468.33 Q2047.8 1461.2 2045.98 1457.66 Q2044.17 1454.1 2040.54 1454.1 M2040.54 1450.39 Q2046.35 1450.39 2049.4 1455 Q2052.48 1459.58 2052.48 1468.33 Q2052.48 1477.06 2049.4 1481.67 Q2046.35 1486.25 2040.54 1486.25 Q2034.73 1486.25 2031.65 1481.67 Q2028.59 1477.06 2028.59 1468.33 Q2028.59 1459.58 2031.65 1455 Q2034.73 1450.39 2040.54 1450.39 Z" fill="#000000" fill-rule="nonzero" fill-opacity="1" /><path clip-path="url(#clip380)" d="M2321.51 1466.44 Q2318.37 1466.44 2316.51 1468.59 Q2314.68 1470.74 2314.68 1474.49 Q2314.68 1478.22 2316.51 1480.39 Q2318.37 1482.55 2321.51 1482.55 Q2324.66 1482.55 2326.49 1480.39 Q2328.34 1478.22 2328.34 1474.49 Q2328.34 1470.74 2326.49 1468.59 Q2324.66 1466.44 2321.51 1466.44 M2330.8 1451.78 L2330.8 1456.04 Q2329.04 1455.21 2327.23 1454.77 Q2325.45 1454.33 2323.69 1454.33 Q2319.06 1454.33 2316.61 1457.45 Q2314.18 1460.58 2313.83 1466.9 Q2315.19 1464.89 2317.25 1463.82 Q2319.31 1462.73 2321.79 1462.73 Q2327 1462.73 2330.01 1465.9 Q2333.04 1469.05 2333.04 1474.49 Q2333.04 1479.82 2329.89 1483.03 Q2326.75 1486.25 2321.51 1486.25 Q2315.52 1486.25 2312.35 1481.67 Q2309.18 1477.06 2309.18 1468.33 Q2309.18 1460.14 2313.06 1455.28 Q2316.95 1450.39 2323.5 1450.39 Q2325.26 1450.39 2327.05 1450.74 Q2328.85 1451.09 2330.8 1451.78 Z" fill="#000000" fill-rule="nonzero" fill-opacity="1" /><path clip-path="url(#clip380)" d="M2351.1 1454.1 Q2347.49 1454.1 2345.66 1457.66 Q2343.85 1461.2 2343.85 1468.33 Q2343.85 1475.44 2345.66 1479.01 Q2347.49 1482.55 2351.1 1482.55 Q2354.73 1482.55 2356.54 1479.01 Q2358.37 1475.44 2358.37 1468.33 Q2358.37 1461.2 2356.54 1457.66 Q2354.73 1454.1 2351.1 1454.1 M2351.1 1450.39 Q2356.91 1450.39 2359.96 1455 Q2363.04 1459.58 2363.04 1468.33 Q2363.04 1477.06 2359.96 1481.67 Q2356.91 1486.25 2351.1 1486.25 Q2345.29 1486.25 2342.21 1481.67 Q2339.15 1477.06 2339.15 1468.33 Q2339.15 1459.58 2342.21 1455 Q2345.29 1450.39 2351.1 1450.39 Z" fill="#000000" fill-rule="nonzero" fill-opacity="1" /><path clip-path="url(#clip380)" d="M2381.26 1454.1 Q2377.65 1454.1 2375.82 1457.66 Q2374.01 1461.2 2374.01 1468.33 Q2374.01 1475.44 2375.82 1479.01 Q2377.65 1482.55 2381.26 1482.55 Q2384.89 1482.55 2386.7 1479.01 Q2388.53 1475.44 2388.53 1468.33 Q2388.53 1461.2 2386.7 1457.66 Q2384.89 1454.1 2381.26 1454.1 M2381.26 1450.39 Q2387.07 1450.39 2390.12 1455 Q2393.2 1459.58 2393.2 1468.33 Q2393.2 1477.06 2390.12 1481.67 Q2387.07 1486.25 2381.26 1486.25 Q2375.45 1486.25 2372.37 1481.67 Q2369.31 1477.06 2369.31 1468.33 Q2369.31 1459.58 2372.37 1455 Q2375.45 1450.39 2381.26 1450.39 Z" fill="#000000" fill-rule="nonzero" fill-opacity="1" /><path clip-path="url(#clip380)" d="M1286.48 1518.52 L1292.37 1518.52 L1292.37 1547.77 L1309.84 1532.4 L1317.32 1532.4 L1298.42 1549.07 L1318.12 1568.04 L1310.48 1568.04 L1292.37 1550.63 L1292.37 1568.04 L1286.48 1568.04 L1286.48 1518.52 Z" fill="#000000" fill-rule="nonzero" fill-opacity="1" /><polyline clip-path="url(#clip382)" style="stroke:#000000; stroke-linecap:round; stroke-linejoin:round; stroke-width:2; stroke-opacity:0.1; fill:none" points="251.842,1029.93 2352.76,1029.93 "/>
<polyline clip-path="url(#clip382)" style="stroke:#000000; stroke-linecap:round; stroke-linejoin:round; stroke-width:2; stroke-opacity:0.1; fill:none" points="251.842,411.425 2352.76,411.425 "/>
<polyline clip-path="url(#clip380)" style="stroke:#000000; stroke-linecap:round; stroke-linejoin:round; stroke-width:4; stroke-opacity:1; fill:none" points="251.842,1423.18 251.842,123.472 "/>
<polyline clip-path="url(#clip380)" style="stroke:#000000; stroke-linecap:round; stroke-linejoin:round; stroke-width:4; stroke-opacity:1; fill:none" points="251.842,1029.93 270.74,1029.93 "/>
<polyline clip-path="url(#clip380)" style="stroke:#000000; stroke-linecap:round; stroke-linejoin:round; stroke-width:4; stroke-opacity:1; fill:none" points="251.842,411.425 270.74,411.425 "/>
<path clip-path="url(#clip380)" d="M114.931 1049.72 L122.57 1049.72 L122.57 1023.35 L114.26 1025.02 L114.26 1020.76 L122.524 1019.09 L127.2 1019.09 L127.2 1049.72 L134.839 1049.72 L134.839 1053.65 L114.931 1053.65 L114.931 1049.72 Z" fill="#000000" fill-rule="nonzero" fill-opacity="1" /><path clip-path="url(#clip380)" d="M154.283 1022.17 Q150.672 1022.17 148.843 1025.74 Q147.038 1029.28 147.038 1036.41 Q147.038 1043.51 148.843 1047.08 Q150.672 1050.62 154.283 1050.62 Q157.917 1050.62 159.723 1047.08 Q161.552 1043.51 161.552 1036.41 Q161.552 1029.28 159.723 1025.74 Q157.917 1022.17 154.283 1022.17 M154.283 1018.47 Q160.093 1018.47 163.149 1023.07 Q166.227 1027.66 166.227 1036.41 Q166.227 1045.13 163.149 1049.74 Q160.093 1054.32 154.283 1054.32 Q148.473 1054.32 145.394 1049.74 Q142.339 1045.13 142.339 1036.41 Q142.339 1027.66 145.394 1023.07 Q148.473 1018.47 154.283 1018.47 Z" fill="#000000" fill-rule="nonzero" fill-opacity="1" /><path clip-path="url(#clip380)" d="M166.227 1012.57 L190.339 1012.57 L190.339 1015.77 L166.227 1015.77 L166.227 1012.57 Z" fill="#000000" fill-rule="nonzero" fill-opacity="1" /><path clip-path="url(#clip380)" d="M210.05 1011.1 Q212.777 1011.69 214.3 1013.53 Q215.842 1015.37 215.842 1018.08 Q215.842 1022.24 212.984 1024.51 Q210.125 1026.79 204.859 1026.79 Q203.091 1026.79 201.21 1026.43 Q199.348 1026.09 197.354 1025.4 L197.354 1021.73 Q198.934 1022.65 200.815 1023.12 Q202.696 1023.59 204.746 1023.59 Q208.319 1023.59 210.181 1022.18 Q212.062 1020.77 212.062 1018.08 Q212.062 1015.6 210.313 1014.21 Q208.583 1012.8 205.479 1012.8 L202.207 1012.8 L202.207 1009.67 L205.63 1009.67 Q208.432 1009.67 209.918 1008.56 Q211.404 1007.43 211.404 1005.33 Q211.404 1003.17 209.861 1002.02 Q208.338 1000.85 205.479 1000.85 Q203.918 1000.85 202.132 1001.19 Q200.345 1001.53 198.201 1002.24 L198.201 998.859 Q200.364 998.257 202.244 997.956 Q204.144 997.655 205.818 997.655 Q210.144 997.655 212.664 999.63 Q215.184 1001.59 215.184 1004.93 Q215.184 1007.27 213.849 1008.88 Q212.513 1010.48 210.05 1011.1 Z" fill="#000000" fill-rule="nonzero" fill-opacity="1" /><path clip-path="url(#clip380)" d="M145.137 431.217 L152.776 431.217 L152.776 404.852 L144.465 406.518 L144.465 402.259 L152.729 400.593 L157.405 400.593 L157.405 431.217 L165.044 431.217 L165.044 435.153 L145.137 435.153 L145.137 431.217 Z" fill="#000000" fill-rule="nonzero" fill-opacity="1" /><path clip-path="url(#clip380)" d="M184.488 403.671 Q180.877 403.671 179.049 407.236 Q177.243 410.778 177.243 417.907 Q177.243 425.014 179.049 428.579 Q180.877 432.12 184.488 432.12 Q188.123 432.12 189.928 428.579 Q191.757 425.014 191.757 417.907 Q191.757 410.778 189.928 407.236 Q188.123 403.671 184.488 403.671 M184.488 399.968 Q190.299 399.968 193.354 404.574 Q196.433 409.157 196.433 417.907 Q196.433 426.634 193.354 431.241 Q190.299 435.824 184.488 435.824 Q178.678 435.824 175.6 431.241 Q172.544 426.634 172.544 417.907 Q172.544 409.157 175.6 404.574 Q178.678 399.968 184.488 399.968 Z" fill="#000000" fill-rule="nonzero" fill-opacity="1" /><path clip-path="url(#clip380)" d="M206.138 382.164 Q203.204 382.164 201.718 385.06 Q200.251 387.938 200.251 393.73 Q200.251 399.504 201.718 402.401 Q203.204 405.278 206.138 405.278 Q209.09 405.278 210.557 402.401 Q212.043 399.504 212.043 393.73 Q212.043 387.938 210.557 385.06 Q209.09 382.164 206.138 382.164 M206.138 379.154 Q210.858 379.154 213.341 382.897 Q215.842 386.621 215.842 393.73 Q215.842 400.821 213.341 404.564 Q210.858 408.288 206.138 408.288 Q201.417 408.288 198.915 404.564 Q196.433 400.821 196.433 393.73 Q196.433 386.621 198.915 382.897 Q201.417 379.154 206.138 379.154 Z" fill="#000000" fill-rule="nonzero" fill-opacity="1" /><path clip-path="url(#clip380)" d="M32.4621 801.797 Q32.4621 806.507 36.1542 809.244 Q39.8145 811.982 46.212 811.982 Q52.6095 811.982 56.3017 809.276 Q59.9619 806.539 59.9619 801.797 Q59.9619 797.118 56.2698 794.381 Q52.5777 791.643 46.212 791.643 Q39.8781 791.643 36.186 794.381 Q32.4621 797.118 32.4621 801.797 M27.4968 801.797 Q27.4968 794.158 32.4621 789.797 Q37.4273 785.437 46.212 785.437 Q54.9649 785.437 59.9619 789.797 Q64.9272 794.158 64.9272 801.797 Q64.9272 809.467 59.9619 813.828 Q54.9649 818.156 46.212 818.156 Q37.4273 818.156 32.4621 813.828 Q27.4968 809.467 27.4968 801.797 Z" fill="#000000" fill-rule="nonzero" fill-opacity="1" /><path clip-path="url(#clip380)" d="M46.212 750.139 Q39.7508 750.139 36.0905 752.812 Q32.3984 755.454 32.3984 760.101 Q32.3984 764.748 36.0905 767.422 Q39.7508 770.064 46.212 770.064 Q52.6732 770.064 56.3653 767.422 Q60.0256 764.748 60.0256 760.101 Q60.0256 755.454 56.3653 752.812 Q52.6732 750.139 46.212 750.139 M33.7671 770.064 Q30.5842 768.218 29.0564 765.417 Q27.4968 762.584 27.4968 758.669 Q27.4968 752.176 32.6531 748.134 Q37.8093 744.06 46.212 744.06 Q54.6147 744.06 59.771 748.134 Q64.9272 752.176 64.9272 758.669 Q64.9272 762.584 63.3994 765.417 Q61.8398 768.218 58.657 770.064 L64.0042 770.064 L64.0042 775.952 L14.479 775.952 L14.479 770.064 L33.7671 770.064 Z" fill="#000000" fill-rule="nonzero" fill-opacity="1" /><path clip-path="url(#clip380)" d="M28.3562 734.352 L28.3562 728.495 L64.6407 728.495 Q71.452 728.495 74.5076 731.105 Q77.5631 733.684 77.5631 739.445 L77.5631 741.673 L72.5979 741.673 L72.5979 740.113 Q72.5979 736.771 71.0383 735.561 Q69.5105 734.352 64.6407 734.352 L28.3562 734.352 M14.479 734.352 L14.479 728.495 L21.895 728.495 L21.895 734.352 L14.479 734.352 Z" fill="#000000" fill-rule="nonzero" fill-opacity="1" /><path clip-path="url(#clip380)" d="M933.788 65.7705 L933.788 89.8329 L926.294 89.8329 L926.294 27.2059 L933.788 27.2059 L933.788 34.0924 Q936.138 30.0415 939.703 28.0971 Q943.308 26.1121 948.291 26.1121 Q956.554 26.1121 961.699 32.6746 Q966.884 39.2371 966.884 49.9314 Q966.884 60.6258 961.699 67.1883 Q956.554 73.7508 948.291 73.7508 Q943.308 73.7508 939.703 71.8063 Q936.138 69.8214 933.788 65.7705 M959.147 49.9314 Q959.147 41.7081 955.744 37.0496 Q952.382 32.3505 946.468 32.3505 Q940.553 32.3505 937.151 37.0496 Q933.788 41.7081 933.788 49.9314 Q933.788 58.1548 937.151 62.8538 Q940.553 67.5124 946.468 67.5124 Q952.382 67.5124 955.744 62.8538 Q959.147 58.1548 959.147 49.9314 Z" fill="#000000" fill-rule="nonzero" fill-opacity="1" /><path clip-path="url(#clip380)" d="M1005.53 34.1734 Q1004.27 33.4443 1002.78 33.1202 Q1001.32 32.7556 999.535 32.7556 Q993.215 32.7556 989.812 36.8875 Q986.45 40.9789 986.45 48.6757 L986.45 72.576 L978.956 72.576 L978.956 27.2059 L986.45 27.2059 L986.45 34.2544 Q988.8 30.1225 992.567 28.1376 Q996.334 26.1121 1001.72 26.1121 Q1002.49 26.1121 1003.42 26.2337 Q1004.36 26.3147 1005.49 26.5172 L1005.53 34.1734 Z" fill="#000000" fill-rule="nonzero" fill-opacity="1" /><path clip-path="url(#clip380)" d="M1029.11 32.4315 Q1023.11 32.4315 1019.63 37.1306 Q1016.14 41.7891 1016.14 49.9314 Q1016.14 58.0738 1019.59 62.7728 Q1023.07 67.4314 1029.11 67.4314 Q1035.06 67.4314 1038.54 62.7323 Q1042.03 58.0333 1042.03 49.9314 Q1042.03 41.8701 1038.54 37.1711 Q1035.06 32.4315 1029.11 32.4315 M1029.11 26.1121 Q1038.83 26.1121 1044.38 32.4315 Q1049.93 38.7509 1049.93 49.9314 Q1049.93 61.0714 1044.38 67.4314 Q1038.83 73.7508 1029.11 73.7508 Q1019.34 73.7508 1013.79 67.4314 Q1008.28 61.0714 1008.28 49.9314 Q1008.28 38.7509 1013.79 32.4315 Q1019.34 26.1121 1029.11 26.1121 Z" fill="#000000" fill-rule="nonzero" fill-opacity="1" /><path clip-path="url(#clip380)" d="M1094.85 49.9314 Q1094.85 41.7081 1091.45 37.0496 Q1088.09 32.3505 1082.17 32.3505 Q1076.26 32.3505 1072.86 37.0496 Q1069.49 41.7081 1069.49 49.9314 Q1069.49 58.1548 1072.86 62.8538 Q1076.26 67.5124 1082.17 67.5124 Q1088.09 67.5124 1091.45 62.8538 Q1094.85 58.1548 1094.85 49.9314 M1069.49 34.0924 Q1071.84 30.0415 1075.41 28.0971 Q1079.01 26.1121 1084 26.1121 Q1092.26 26.1121 1097.4 32.6746 Q1102.59 39.2371 1102.59 49.9314 Q1102.59 60.6258 1097.4 67.1883 Q1092.26 73.7508 1084 73.7508 Q1079.01 73.7508 1075.41 71.8063 Q1071.84 69.8214 1069.49 65.7705 L1069.49 72.576 L1062 72.576 L1062 9.54393 L1069.49 9.54393 L1069.49 34.0924 Z" fill="#000000" fill-rule="nonzero" fill-opacity="1" /><path clip-path="url(#clip380)" d="M1114.94 9.54393 L1122.4 9.54393 L1122.4 72.576 L1114.94 72.576 L1114.94 9.54393 Z" fill="#000000" fill-rule="nonzero" fill-opacity="1" /><path clip-path="url(#clip380)" d="M1176.8 48.0275 L1176.8 51.6733 L1142.53 51.6733 Q1143.02 59.3701 1147.15 63.421 Q1151.32 67.4314 1158.74 67.4314 Q1163.03 67.4314 1167.04 66.3781 Q1171.09 65.3249 1175.06 63.2184 L1175.06 70.267 Q1171.05 71.9684 1166.84 72.8596 Q1162.62 73.7508 1158.29 73.7508 Q1147.43 73.7508 1141.07 67.4314 Q1134.75 61.1119 1134.75 50.3365 Q1134.75 39.1965 1140.75 32.6746 Q1146.78 26.1121 1156.99 26.1121 Q1166.15 26.1121 1171.45 32.0264 Q1176.8 37.9003 1176.8 48.0275 M1169.35 45.84 Q1169.27 39.7232 1165.91 36.0774 Q1162.58 32.4315 1157.07 32.4315 Q1150.84 32.4315 1147.07 35.9558 Q1143.34 39.4801 1142.77 45.8805 L1169.35 45.84 M1150.67 6.22219 L1162.1 21.3726 L1155.9 21.3726 L1142.69 6.22219 L1150.67 6.22219 Z" fill="#000000" fill-rule="nonzero" fill-opacity="1" /><path clip-path="url(#clip380)" d="M1224.36 35.9153 Q1227.15 30.8922 1231.04 28.5022 Q1234.93 26.1121 1240.2 26.1121 Q1247.29 26.1121 1251.14 31.0947 Q1254.98 36.0368 1254.98 45.1919 L1254.98 72.576 L1247.49 72.576 L1247.49 45.4349 Q1247.49 38.913 1245.18 35.7533 Q1242.87 32.5936 1238.13 32.5936 Q1232.34 32.5936 1228.98 36.4419 Q1225.62 40.2903 1225.62 46.9338 L1225.62 72.576 L1218.12 72.576 L1218.12 45.4349 Q1218.12 38.8725 1215.81 35.7533 Q1213.5 32.5936 1208.68 32.5936 Q1202.97 32.5936 1199.61 36.4824 Q1196.25 40.3308 1196.25 46.9338 L1196.25 72.576 L1188.75 72.576 L1188.75 27.2059 L1196.25 27.2059 L1196.25 34.2544 Q1198.8 30.082 1202.36 28.0971 Q1205.93 26.1121 1210.83 26.1121 Q1215.77 26.1121 1219.22 28.6237 Q1222.7 31.1352 1224.36 35.9153 Z" fill="#000000" fill-rule="nonzero" fill-opacity="1" /><path clip-path="url(#clip380)" d="M1308.66 48.0275 L1308.66 51.6733 L1274.39 51.6733 Q1274.87 59.3701 1279.01 63.421 Q1283.18 67.4314 1290.59 67.4314 Q1294.89 67.4314 1298.9 66.3781 Q1302.95 65.3249 1306.92 63.2184 L1306.92 70.267 Q1302.91 71.9684 1298.69 72.8596 Q1294.48 73.7508 1290.15 73.7508 Q1279.29 73.7508 1272.93 67.4314 Q1266.61 61.1119 1266.61 50.3365 Q1266.61 39.1965 1272.61 32.6746 Q1278.64 26.1121 1288.85 26.1121 Q1298.01 26.1121 1303.31 32.0264 Q1308.66 37.9003 1308.66 48.0275 M1301.21 45.84 Q1301.12 39.7232 1297.76 36.0774 Q1294.44 32.4315 1288.93 32.4315 Q1282.69 32.4315 1278.93 35.9558 Q1275.2 39.4801 1274.63 45.8805 L1301.21 45.84 Z" fill="#000000" fill-rule="nonzero" fill-opacity="1" /><path clip-path="url(#clip380)" d="M1349.17 62.2867 L1357.72 62.2867 L1357.72 72.576 L1349.17 72.576 L1349.17 62.2867 M1349.17 29.6769 L1357.72 29.6769 L1357.72 39.9662 L1349.17 39.9662 L1349.17 29.6769 Z" fill="#000000" fill-rule="nonzero" fill-opacity="1" /><path clip-path="url(#clip380)" d="M1436.91 35.9153 Q1439.71 30.8922 1443.59 28.5022 Q1447.48 26.1121 1452.75 26.1121 Q1459.84 26.1121 1463.69 31.0947 Q1467.54 36.0368 1467.54 45.1919 L1467.54 72.576 L1460.04 72.576 L1460.04 45.4349 Q1460.04 38.913 1457.73 35.7533 Q1455.42 32.5936 1450.68 32.5936 Q1444.89 32.5936 1441.53 36.4419 Q1438.17 40.2903 1438.17 46.9338 L1438.17 72.576 L1430.67 72.576 L1430.67 45.4349 Q1430.67 38.8725 1428.36 35.7533 Q1426.05 32.5936 1421.23 32.5936 Q1415.52 32.5936 1412.16 36.4824 Q1408.8 40.3308 1408.8 46.9338 L1408.8 72.576 L1401.3 72.576 L1401.3 27.2059 L1408.8 27.2059 L1408.8 34.2544 Q1411.35 30.082 1414.91 28.0971 Q1418.48 26.1121 1423.38 26.1121 Q1428.32 26.1121 1431.77 28.6237 Q1435.25 31.1352 1436.91 35.9153 Z" fill="#000000" fill-rule="nonzero" fill-opacity="1" /><path clip-path="url(#clip380)" d="M1512.26 49.3643 Q1512.26 41.2625 1508.9 36.8065 Q1505.57 32.3505 1499.54 32.3505 Q1493.54 32.3505 1490.18 36.8065 Q1486.86 41.2625 1486.86 49.3643 Q1486.86 57.4256 1490.18 61.8816 Q1493.54 66.3376 1499.54 66.3376 Q1505.57 66.3376 1508.9 61.8816 Q1512.26 57.4256 1512.26 49.3643 M1519.71 66.9452 Q1519.71 78.5308 1514.57 84.1616 Q1509.42 89.8329 1498.81 89.8329 Q1494.88 89.8329 1491.4 89.2252 Q1487.91 88.6581 1484.63 87.4428 L1484.63 80.1917 Q1487.91 81.9741 1491.11 82.8248 Q1494.31 83.6755 1497.63 83.6755 Q1504.97 83.6755 1508.61 79.8271 Q1512.26 76.0193 1512.26 68.282 L1512.26 64.5957 Q1509.95 68.6061 1506.34 70.5911 Q1502.74 72.576 1497.71 72.576 Q1489.37 72.576 1484.27 66.2161 Q1479.16 59.8562 1479.16 49.3643 Q1479.16 38.832 1484.27 32.472 Q1489.37 26.1121 1497.71 26.1121 Q1502.74 26.1121 1506.34 28.0971 Q1509.95 30.082 1512.26 34.0924 L1512.26 27.2059 L1519.71 27.2059 L1519.71 66.9452 Z" fill="#000000" fill-rule="nonzero" fill-opacity="1" /><path clip-path="url(#clip380)" d="M1572.78 45.1919 L1572.78 72.576 L1565.32 72.576 L1565.32 45.4349 Q1565.32 38.994 1562.81 35.7938 Q1560.3 32.5936 1555.28 32.5936 Q1549.24 32.5936 1545.76 36.4419 Q1542.27 40.2903 1542.27 46.9338 L1542.27 72.576 L1534.78 72.576 L1534.78 9.54393 L1542.27 9.54393 L1542.27 34.2544 Q1544.95 30.163 1548.55 28.1376 Q1552.2 26.1121 1556.94 26.1121 Q1564.76 26.1121 1568.77 30.9732 Q1572.78 35.7938 1572.78 45.1919 Z" fill="#000000" fill-rule="nonzero" fill-opacity="1" /><path clip-path="url(#clip380)" d="M1595.75 65.6895 L1624.31 65.6895 L1624.31 72.576 L1585.9 72.576 L1585.9 65.6895 Q1590.56 60.8689 1598.58 52.7671 Q1606.64 44.6248 1608.71 42.2752 Q1612.64 37.8598 1614.18 34.8216 Q1615.76 31.7429 1615.76 28.7857 Q1615.76 23.9651 1612.36 20.927 Q1608.99 17.8888 1603.56 17.8888 Q1599.72 17.8888 1595.42 19.2256 Q1591.17 20.5624 1586.31 23.2765 L1586.31 15.0127 Q1591.25 13.0277 1595.54 12.015 Q1599.84 11.0023 1603.4 11.0023 Q1612.8 11.0023 1618.39 15.7013 Q1623.98 20.4004 1623.98 28.2591 Q1623.98 31.9859 1622.56 35.3482 Q1621.19 38.6699 1617.5 43.2069 Q1616.49 44.3817 1611.06 50.0125 Q1605.63 55.6027 1595.75 65.6895 Z" fill="#000000" fill-rule="nonzero" fill-opacity="1" /><path clip-path="url(#clip380)" d="M1639.42 12.096 L1678.3 12.096 L1678.3 15.5798 L1656.35 72.576 L1647.8 72.576 L1668.46 18.9825 L1639.42 18.9825 L1639.42 12.096 Z" fill="#000000" fill-rule="nonzero" fill-opacity="1" /><polyline clip-path="url(#clip382)" style="stroke:#009af9; stroke-linecap:round; stroke-linejoin:round; stroke-width:4; stroke-opacity:1; fill:none" points="311.302,160.256 314.708,576.917 318.113,877.674 321.519,881.3 324.924,882.96 328.33,884.604 331.735,886.231 335.141,887.842 338.546,889.437 341.952,891.016 345.357,892.581 348.763,894.132 352.168,895.668 355.574,897.191 358.979,898.7 362.385,900.196 365.79,901.68 369.195,903.152 372.601,904.611 376.006,906.059 379.412,907.495 382.817,908.92 386.223,910.335 389.628,911.738 393.034,913.131 396.439,914.515 399.845,915.888 403.25,917.251 406.656,918.606 410.061,919.95 413.467,921.286 416.872,922.613 420.278,923.932 423.683,925.242 427.089,926.543 430.494,927.837 433.9,929.122 437.305,930.4 440.711,931.67 444.116,932.933 447.522,934.189 450.927,935.437 454.333,936.678 457.738,937.913 461.144,939.14 464.549,940.361 467.955,941.576 471.36,942.784 474.766,943.986 478.171,945.182 481.577,946.372 484.982,947.556 488.388,948.734 491.793,949.906 495.199,951.073 498.604,952.234 502.01,953.39 505.415,954.541 508.82,955.687 512.226,956.827 515.631,957.963 519.037,959.093 522.442,960.219 525.848,961.34 529.253,962.456 532.659,963.567 536.064,964.675 539.47,965.777 542.875,966.876 546.281,967.969 549.686,969.059 553.092,970.145 556.497,971.226 559.903,972.304 563.308,973.377 566.714,974.447 570.119,975.512 573.525,976.574 576.93,977.633 580.336,978.687 583.741,979.738 587.147,980.785 590.552,981.829 593.958,982.87 597.363,983.907 600.769,984.941 604.174,985.971 607.58,986.998 610.985,988.022 614.391,989.043 617.796,990.061 621.202,991.075 624.607,992.087 628.013,993.095 631.418,994.101 634.824,995.104 638.229,996.104 641.635,997.101 645.04,998.095 648.445,999.087 651.851,1000.08 655.256,1001.06 658.662,1002.05 662.067,1003.03 665.473,1004.01 668.878,1004.98 672.284,1005.96 675.689,1006.93 679.095,1007.9 682.5,1008.86 685.906,1009.83 689.311,1010.79 692.717,1011.75 696.122,1012.7 699.528,1013.66 702.933,1014.61 706.339,1015.56 709.744,1016.51 713.15,1017.46 716.555,1018.4 719.961,1019.34 723.366,1020.28 726.772,1021.22 730.177,1022.16 733.583,1023.09 736.988,1024.02 740.394,1024.95 743.799,1025.88 747.205,1026.81 750.61,1027.73 754.016,1028.66 757.421,1029.58 760.827,1030.5 764.232,1031.42 767.638,1032.33 771.043,1033.25 774.449,1034.16 777.854,1035.07 781.26,1035.98 784.665,1036.89 788.07,1037.79 791.476,1038.7 794.881,1039.6 798.287,1040.5 801.692,1041.4 805.098,1042.3 808.503,1043.19 811.909,1044.09 815.314,1044.98 818.72,1045.88 822.125,1046.77 825.531,1047.66 828.936,1048.54 832.342,1049.43 835.747,1050.32 839.153,1051.2 842.558,1052.08 845.964,1052.96 849.369,1053.84 852.775,1054.72 856.18,1055.6 859.586,1056.48 862.991,1057.35 866.397,1058.23 869.802,1059.1 873.208,1059.97 876.613,1060.84 880.019,1061.71 883.424,1062.58 886.83,1063.44 890.235,1064.31 893.641,1065.17 897.046,1066.04 900.452,1066.9 903.857,1067.76 907.263,1068.62 910.668,1069.48 914.074,1070.34 917.479,1071.2 920.885,1072.05 924.29,1072.91 927.695,1073.76 931.101,1074.61 934.506,1075.46 937.912,1076.32 941.317,1077.17 944.723,1078.01 948.128,1078.86 951.534,1079.71 954.939,1080.56 958.345,1081.4 961.75,1082.25 965.156,1083.09 968.561,1083.93 971.967,1084.77 975.372,1085.61 978.778,1086.45 982.183,1087.29 985.589,1088.13 988.994,1088.97 992.4,1089.81 995.805,1090.64 999.211,1091.48 1002.62,1092.31 1006.02,1093.14 1009.43,1093.98 1012.83,1094.81 1016.24,1095.64 1019.64,1096.47 1023.05,1097.3 1026.45,1098.13 1029.86,1098.96 1033.27,1099.78 1036.67,1100.61 1040.08,1101.44 1043.48,1102.26 1046.89,1103.09 1050.29,1103.91 1053.7,1104.73 1057.1,1105.56 1060.51,1106.38 1063.91,1107.2 1067.32,1108.02 1070.73,1108.84 1074.13,1109.66 1077.54,1110.48 1080.94,1111.3 1084.35,1112.11 1087.75,1112.93 1091.16,1113.75 1094.56,1114.56 1097.97,1115.38 1101.38,1116.19 1104.78,1117 1108.19,1117.82 1111.59,1118.63 1115,1119.44 1118.4,1120.25 1121.81,1121.06 1125.21,1121.87 1128.62,1122.68 1132.02,1123.49 1135.43,1124.3 1138.84,1125.11 1142.24,1125.92 1145.65,1126.72 1149.05,1127.53 1152.46,1128.34 1155.86,1129.14 1159.27,1129.95 1162.67,1130.75 1166.08,1131.56 1169.49,1132.36 1172.89,1133.16 1176.3,1133.97 1179.7,1134.77 1183.11,1135.57 1186.51,1136.37 1189.92,1137.17 1193.32,1137.97 1196.73,1138.77 1200.13,1139.57 1203.54,1140.37 1206.95,1141.17 1210.35,1141.97 1213.76,1142.76 1217.16,1143.56 1220.57,1144.36 1223.97,1145.15 1227.38,1145.95 1230.78,1146.74 1234.19,1147.54 1237.59,1148.33 1241,1149.13 1244.41,1149.92 1247.81,1150.72 1251.22,1151.51 1254.62,1152.3 1258.03,1153.09 1261.43,1153.89 1264.84,1154.68 1268.24,1155.47 1271.65,1156.26 1275.06,1157.05 1278.46,1157.84 1281.87,1158.63 1285.27,1159.42 1288.68,1160.21 1292.08,1161 1295.49,1161.79 1298.89,1162.57 1302.3,1163.36 1305.7,1164.15 1309.11,1164.94 1312.52,1165.72 1315.92,1166.51 1319.33,1167.29 1322.73,1168.08 1326.14,1168.87 1329.54,1169.65 1332.95,1170.43 1336.35,1171.22 1339.76,1172 1343.16,1172.79 1346.57,1173.57 1349.98,1174.35 1353.38,1175.14 1356.79,1175.92 1360.19,1176.7 1363.6,1177.48 1367,1178.27 1370.41,1179.05 1373.81,1179.83 1377.22,1180.61 1380.63,1181.39 1384.03,1182.17 1387.44,1182.95 1390.84,1183.73 1394.25,1184.51 1397.65,1185.29 1401.06,1186.07 1404.46,1186.85 1407.87,1187.63 1411.27,1188.4 1414.68,1189.18 1418.09,1189.96 1421.49,1190.74 1424.9,1191.51 1428.3,1192.29 1431.71,1193.07 1435.11,1193.84 1438.52,1194.62 1441.92,1195.4 1445.33,1196.17 1448.74,1196.95 1452.14,1197.72 1455.55,1198.5 1458.95,1199.27 1462.36,1200.05 1465.76,1200.82 1469.17,1201.6 1472.57,1202.37 1475.98,1203.15 1479.38,1203.92 1482.79,1204.69 1486.2,1205.47 1489.6,1206.24 1493.01,1207.01 1496.41,1207.78 1499.82,1208.56 1503.22,1209.33 1506.63,1210.1 1510.03,1210.87 1513.44,1211.64 1516.84,1212.42 1520.25,1213.19 1523.66,1213.96 1527.06,1214.73 1530.47,1215.5 1533.87,1216.27 1537.28,1217.04 1540.68,1217.81 1544.09,1218.58 1547.49,1219.35 1550.9,1220.12 1554.31,1220.89 1557.71,1221.66 1561.12,1222.43 1564.52,1223.2 1567.93,1223.97 1571.33,1224.73 1574.74,1225.5 1578.14,1226.27 1581.55,1227.04 1584.95,1227.81 1588.36,1228.58 1591.77,1229.34 1595.17,1230.11 1598.58,1230.88 1601.98,1231.64 1605.39,1232.41 1608.79,1233.18 1612.2,1233.95 1615.6,1234.71 1619.01,1235.48 1622.41,1236.24 1625.82,1237.01 1629.23,1237.78 1632.63,1238.54 1636.04,1239.31 1639.44,1240.07 1642.85,1240.84 1646.25,1241.6 1649.66,1242.37 1653.06,1243.13 1656.47,1243.9 1659.88,1244.66 1663.28,1245.43 1666.69,1246.19 1670.09,1246.96 1673.5,1247.72 1676.9,1248.49 1680.31,1249.25 1683.71,1250.01 1687.12,1250.78 1690.52,1251.54 1693.93,1252.3 1697.34,1253.07 1700.74,1253.83 1704.15,1254.59 1707.55,1255.36 1710.96,1256.12 1714.36,1256.88 1717.77,1257.65 1721.17,1258.41 1724.58,1259.17 1727.99,1259.93 1731.39,1260.7 1734.8,1261.46 1738.2,1262.22 1741.61,1262.98 1745.01,1263.74 1748.42,1264.51 1751.82,1265.27 1755.23,1266.03 1758.63,1266.79 1762.04,1267.55 1765.45,1268.31 1768.85,1269.07 1772.26,1269.83 1775.66,1270.59 1779.07,1271.36 1782.47,1272.12 1785.88,1272.88 1789.28,1273.64 1792.69,1274.4 1796.09,1275.16 1799.5,1275.92 1802.91,1276.68 1806.31,1277.44 1809.72,1278.2 1813.12,1278.96 1816.53,1279.72 1819.93,1280.48 1823.34,1281.24 1826.74,1282 1830.15,1282.76 1833.56,1283.52 1836.96,1284.27 1840.37,1285.03 1843.77,1285.79 1847.18,1286.55 1850.58,1287.31 1853.99,1288.07 1857.39,1288.83 1860.8,1289.59 1864.2,1290.35 1867.61,1291.1 1871.02,1291.86 1874.42,1292.62 1877.83,1293.38 1881.23,1294.14 1884.64,1294.9 1888.04,1295.65 1891.45,1296.41 1894.85,1297.17 1898.26,1297.93 1901.66,1298.68 1905.07,1299.44 1908.48,1300.2 1911.88,1300.96 1915.29,1301.72 1918.69,1302.47 1922.1,1303.23 1925.5,1303.99 1928.91,1304.74 1932.31,1305.5 1935.72,1306.26 1939.13,1307.02 1942.53,1307.77 1945.94,1308.53 1949.34,1309.29 1952.75,1310.04 1956.15,1310.8 1959.56,1311.56 1962.96,1312.31 1966.37,1313.07 1969.77,1313.83 1973.18,1314.58 1976.59,1315.34 1979.99,1316.1 1983.4,1316.85 1986.8,1317.61 1990.21,1318.36 1993.61,1319.12 1997.02,1319.88 2000.42,1320.63 2003.83,1321.39 2007.24,1322.14 2010.64,1322.9 2014.05,1323.65 2017.45,1324.41 2020.86,1325.17 2024.26,1325.92 2027.67,1326.68 2031.07,1327.43 2034.48,1328.19 2037.88,1328.94 2041.29,1329.7 2044.7,1330.45 2048.1,1331.21 2051.51,1331.96 2054.91,1332.72 2058.32,1333.47 2061.72,1334.23 2065.13,1334.98 2068.53,1335.74 2071.94,1336.49 2075.34,1337.25 2078.75,1338 2082.16,1338.76 2085.56,1339.51 2088.97,1340.27 2092.37,1341.02 2095.78,1341.78 2099.18,1342.53 2102.59,1343.29 2105.99,1344.04 2109.4,1344.79 2112.81,1345.55 2116.21,1346.3 2119.62,1347.06 2123.02,1347.81 2126.43,1348.57 2129.83,1349.32 2133.24,1350.07 2136.64,1350.83 2140.05,1351.58 2143.45,1352.34 2146.86,1353.09 2150.27,1353.84 2153.67,1354.6 2157.08,1355.35 2160.48,1356.1 2163.89,1356.86 2167.29,1357.61 2170.7,1358.37 2174.1,1359.12 2177.51,1359.87 2180.91,1360.63 2184.32,1361.38 2187.73,1362.13 2191.13,1362.89 2194.54,1363.64 2197.94,1364.39 2201.35,1365.15 2204.75,1365.9 2208.16,1366.65 2211.56,1367.41 2214.97,1368.16 2218.38,1368.91 2221.78,1369.67 2225.19,1370.42 2228.59,1371.17 2232,1371.93 2235.4,1372.68 2238.81,1373.43 2242.21,1374.18 2245.62,1374.94 2249.02,1375.69 2252.43,1376.44 2255.84,1377.2 2259.24,1377.95 2262.65,1378.7 2266.05,1379.45 2269.46,1380.21 2272.86,1380.96 2276.27,1381.71 2279.67,1382.47 2283.08,1383.22 2286.49,1383.97 2289.89,1384.72 2293.3,1385.48 "/>
<polyline clip-path="url(#clip382)" style="stroke:#e26f46; stroke-linecap:round; stroke-linejoin:round; stroke-width:4; stroke-opacity:1; fill:none" points="311.302,160.256 314.708,576.917 318.113,945.495 321.519,948.465 324.924,949.639 328.33,950.809 331.735,951.974 335.141,953.135 338.546,954.291 341.952,955.444 345.357,956.592 348.763,957.736 352.168,958.876 355.574,960.013 358.979,961.145 362.385,962.274 365.79,963.4 369.195,964.521 372.601,965.639 376.006,966.754 379.412,967.865 382.817,968.973 386.223,970.078 389.628,971.179 393.034,972.277 396.439,973.372 399.845,974.464 403.25,975.554 406.656,976.64 410.061,977.723 413.467,978.803 416.872,979.881 420.278,980.956 423.683,982.028 427.089,983.098 430.494,984.165 433.9,985.229 437.305,986.291 440.711,987.351 444.116,988.408 447.522,989.463 450.927,990.515 454.333,991.565 457.738,992.613 461.144,993.659 464.549,994.703 467.955,995.744 471.36,996.783 474.766,997.821 478.171,998.856 481.577,999.889 484.982,1000.92 488.388,1001.95 491.793,1002.98 495.199,1004 498.604,1005.03 502.01,1006.05 505.415,1007.07 508.82,1008.09 512.226,1009.11 515.631,1010.12 519.037,1011.13 522.442,1012.15 525.848,1013.16 529.253,1014.17 532.659,1015.17 536.064,1016.18 539.47,1017.18 542.875,1018.19 546.281,1019.19 549.686,1020.19 553.092,1021.19 556.497,1022.19 559.903,1023.18 563.308,1024.18 566.714,1025.17 570.119,1026.17 573.525,1027.16 576.93,1028.15 580.336,1029.14 583.741,1030.12 587.147,1031.11 590.552,1032.1 593.958,1033.08 597.363,1034.07 600.769,1035.05 604.174,1036.03 607.58,1037.01 610.985,1037.99 614.391,1038.97 617.796,1039.95 621.202,1040.93 624.607,1041.9 628.013,1042.88 631.418,1043.85 634.824,1044.82 638.229,1045.8 641.635,1046.69 645.04,1047.58 648.445,1048.47 651.851,1049.36 655.256,1050.25 658.662,1051.14 662.067,1052.02 665.473,1052.91 668.878,1053.8 672.284,1054.68 675.689,1055.57 679.095,1056.45 682.5,1057.34 685.906,1058.22 689.311,1059.11 692.717,1059.99 696.122,1060.88 699.528,1061.76 702.933,1062.64 706.339,1063.52 709.744,1064.4 713.15,1065.29 716.555,1066.17 719.961,1067.05 723.366,1067.93 726.772,1068.81 730.177,1069.69 733.583,1070.57 736.988,1071.45 740.394,1072.33 743.799,1073.2 747.205,1074.08 750.61,1074.96 754.016,1075.84 757.421,1076.72 760.827,1077.59 764.232,1078.47 767.638,1079.35 771.043,1080.23 774.449,1081.1 777.854,1081.98 781.26,1082.86 784.665,1083.73 788.07,1084.61 791.476,1085.49 794.881,1086.36 798.287,1087.24 801.692,1088.11 805.098,1088.99 808.503,1089.86 811.909,1090.74 815.314,1091.62 818.72,1092.49 822.125,1093.37 825.531,1094.24 828.936,1095.12 832.342,1095.99 835.747,1096.87 839.153,1097.74 842.558,1098.62 845.964,1099.49 849.369,1100.37 852.775,1101.24 856.18,1102.12 859.586,1102.99 862.991,1103.87 866.397,1104.75 869.802,1105.62 873.208,1106.5 876.613,1107.37 880.019,1108.25 883.424,1109.12 886.83,1110 890.235,1110.87 893.641,1111.75 897.046,1112.63 900.452,1113.5 903.857,1114.38 907.263,1115.26 910.668,1116.13 914.074,1117.01 917.479,1117.89 920.885,1118.76 924.29,1119.64 927.695,1120.52 931.101,1121.39 934.506,1122.27 937.912,1123.15 941.317,1124.03 944.723,1124.91 948.128,1125.78 951.534,1126.66 954.939,1127.54 958.345,1128.35 961.75,1129.15 965.156,1129.96 968.561,1130.77 971.967,1131.57 975.372,1132.38 978.778,1133.19 982.183,1134 985.589,1134.8 988.994,1135.61 992.4,1136.42 995.805,1137.23 999.211,1138.04 1002.62,1138.85 1006.02,1139.66 1009.43,1140.47 1012.83,1141.28 1016.24,1142.09 1019.64,1142.9 1023.05,1143.71 1026.45,1144.52 1029.86,1145.33 1033.27,1146.15 1036.67,1146.96 1040.08,1147.77 1043.48,1148.59 1046.89,1149.4 1050.29,1150.21 1053.7,1151.03 1057.1,1151.84 1060.51,1152.66 1063.91,1153.47 1067.32,1154.29 1070.73,1155.1 1074.13,1155.92 1077.54,1156.74 1080.94,1157.55 1084.35,1158.37 1087.75,1159.19 1091.16,1160.01 1094.56,1160.83 1097.97,1161.65 1101.38,1162.46 1104.78,1163.28 1108.19,1164.1 1111.59,1164.93 1115,1165.75 1118.4,1166.57 1121.81,1167.39 1125.21,1168.21 1128.62,1169.03 1132.02,1169.86 1135.43,1170.68 1138.84,1171.51 1142.24,1172.33 1145.65,1173.15 1149.05,1173.98 1152.46,1174.81 1155.86,1175.63 1159.27,1176.46 1162.67,1177.28 1166.08,1178.11 1169.49,1178.94 1172.89,1179.77 1176.3,1180.6 1179.7,1181.43 1183.11,1182.26 1186.51,1183.09 1189.92,1183.92 1193.32,1184.75 1196.73,1185.58 1200.13,1186.41 1203.54,1187.24 1206.95,1188.08 1210.35,1188.91 1213.76,1189.75 1217.16,1190.58 1220.57,1191.41 1223.97,1192.25 1227.38,1193.09 1230.78,1193.92 1234.19,1194.76 1237.59,1195.6 1241,1196.44 1244.41,1197.27 1247.81,1198.11 1251.22,1198.95 1254.62,1199.79 1258.03,1200.63 1261.43,1201.47 1264.84,1202.32 1268.24,1203.16 1271.65,1204 1275.06,1204.77 1278.46,1205.55 1281.87,1206.32 1285.27,1207.1 1288.68,1207.87 1292.08,1208.65 1295.49,1209.43 1298.89,1210.2 1302.3,1210.98 1305.7,1211.76 1309.11,1212.54 1312.52,1213.32 1315.92,1214.1 1319.33,1214.88 1322.73,1215.66 1326.14,1216.44 1329.54,1217.22 1332.95,1218 1336.35,1218.79 1339.76,1219.57 1343.16,1220.35 1346.57,1221.14 1349.98,1221.92 1353.38,1222.71 1356.79,1223.49 1360.19,1224.28 1363.6,1225.07 1367,1225.86 1370.41,1226.65 1373.81,1227.43 1377.22,1228.22 1380.63,1229.01 1384.03,1229.8 1387.44,1230.6 1390.84,1231.39 1394.25,1232.18 1397.65,1232.97 1401.06,1233.77 1404.46,1234.56 1407.87,1235.36 1411.27,1236.15 1414.68,1236.95 1418.09,1237.74 1421.49,1238.54 1424.9,1239.34 1428.3,1240.14 1431.71,1240.94 1435.11,1241.73 1438.52,1242.53 1441.92,1243.34 1445.33,1244.14 1448.74,1244.94 1452.14,1245.74 1455.55,1246.54 1458.95,1247.35 1462.36,1248.15 1465.76,1248.96 1469.17,1249.76 1472.57,1250.57 1475.98,1251.37 1479.38,1252.18 1482.79,1252.99 1486.2,1253.8 1489.6,1254.61 1493.01,1255.42 1496.41,1256.23 1499.82,1257.04 1503.22,1257.85 1506.63,1258.66 1510.03,1259.48 1513.44,1260.29 1516.84,1261.1 1520.25,1261.92 1523.66,1262.73 1527.06,1263.55 1530.47,1264.37 1533.87,1265.18 1537.28,1266 1540.68,1266.82 1544.09,1267.64 1547.49,1268.46 1550.9,1269.28 1554.31,1270.1 1557.71,1270.92 1561.12,1271.75 1564.52,1272.57 1567.93,1273.39 1571.33,1274.22 1574.74,1275.04 1578.14,1275.87 1581.55,1276.69 1584.95,1277.52 1588.36,1278.35 1591.77,1279.11 1595.17,1279.87 1598.58,1280.63 1601.98,1281.39 1605.39,1282.15 1608.79,1282.92 1612.2,1283.68 1615.6,1284.45 1619.01,1285.21 1622.41,1285.98 1625.82,1286.74 1629.23,1287.51 1632.63,1288.28 1636.04,1289.04 1639.44,1289.81 1642.85,1290.58 1646.25,1291.35 1649.66,1292.12 1653.06,1292.89 1656.47,1293.66 1659.88,1294.44 1663.28,1295.21 1666.69,1295.98 1670.09,1296.76 1673.5,1297.53 1676.9,1298.31 1680.31,1299.08 1683.71,1299.86 1687.12,1300.64 1690.52,1301.42 1693.93,1302.2 1697.34,1302.98 1700.74,1303.76 1704.15,1304.54 1707.55,1305.32 1710.96,1306.1 1714.36,1306.88 1717.77,1307.67 1721.17,1308.45 1724.58,1309.24 1727.99,1310.02 1731.39,1310.81 1734.8,1311.59 1738.2,1312.38 1741.61,1313.17 1745.01,1313.96 1748.42,1314.75 1751.82,1315.54 1755.23,1316.33 1758.63,1317.12 1762.04,1317.91 1765.45,1318.7 1768.85,1319.5 1772.26,1320.29 1775.66,1321.09 1779.07,1321.88 1782.47,1322.68 1785.88,1323.47 1789.28,1324.27 1792.69,1325.07 1796.09,1325.87 1799.5,1326.67 1802.91,1327.47 1806.31,1328.27 1809.72,1329.07 1813.12,1329.87 1816.53,1330.68 1819.93,1331.48 1823.34,1332.29 1826.74,1333.09 1830.15,1333.9 1833.56,1334.7 1836.96,1335.51 1840.37,1336.32 1843.77,1337.13 1847.18,1337.94 1850.58,1338.75 1853.99,1339.56 1857.39,1340.37 1860.8,1341.18 1864.2,1341.99 1867.61,1342.81 1871.02,1343.62 1874.42,1344.43 1877.83,1345.25 1881.23,1346.07 1884.64,1346.88 1888.04,1347.7 1891.45,1348.52 1894.85,1349.34 1898.26,1350.16 1901.66,1350.98 1905.07,1351.8 1908.48,1352.55 1911.88,1353.31 1915.29,1354.06 1918.69,1354.82 1922.1,1355.58 1925.5,1356.33 1928.91,1357.09 1932.31,1357.85 1935.72,1358.61 1939.13,1359.37 1942.53,1360.13 1945.94,1360.89 1949.34,1361.65 1952.75,1362.42 1956.15,1363.18 1959.56,1363.94 1962.96,1364.71 1966.37,1365.47 1969.77,1366.24 1973.18,1367.01 1976.59,1367.77 1979.99,1368.54 1983.4,1369.31 1986.8,1370.08 1990.21,1370.85 1993.61,1371.62 1997.02,1372.39 2000.42,1373.16 2003.83,1373.94 2007.24,1374.71 2010.64,1375.48 2014.05,1376.26 2017.45,1377.03 2020.86,1377.81 2024.26,1378.59 2027.67,1379.37 2031.07,1380.14 2034.48,1380.92 2037.88,1381.7 2041.29,1382.48 2044.7,1383.26 2048.1,1384.05 2051.51,1384.83 2054.91,1385.61 2058.32,1386.4 "/>
<polyline clip-path="url(#clip382)" style="stroke:#3da44d; stroke-linecap:round; stroke-linejoin:round; stroke-width:4; stroke-opacity:1; fill:none" points="311.302,160.256 314.708,576.917 318.113,877.674 321.519,881.3 324.924,882.96 328.33,884.604 331.735,886.231 335.141,887.842 338.546,889.437 341.952,891.016 345.357,892.581 348.763,894.132 352.168,895.668 355.574,897.191 358.979,898.7 362.385,900.196 365.79,901.68 369.195,903.152 372.601,904.611 376.006,906.059 379.412,907.495 382.817,908.92 386.223,910.335 389.628,911.738 393.034,913.131 396.439,914.515 399.845,915.888 403.25,917.251 406.656,918.606 410.061,919.95 413.467,921.286 416.872,922.613 420.278,923.932 423.683,925.242 427.089,926.543 430.494,927.837 433.9,929.122 437.305,930.4 440.711,931.67 444.116,932.933 447.522,934.189 450.927,935.437 454.333,936.678 457.738,937.913 461.144,939.14 464.549,940.361 467.955,941.576 471.36,942.784 474.766,943.986 478.171,945.182 481.577,946.372 484.982,947.556 488.388,948.734 491.793,949.906 495.199,951.073 498.604,952.234 502.01,953.39 505.415,954.541 508.82,955.687 512.226,956.827 515.631,957.963 519.037,959.093 522.442,960.219 525.848,961.34 529.253,962.456 532.659,963.567 536.064,964.675 539.47,965.777 542.875,966.876 546.281,967.969 549.686,969.059 553.092,970.145 556.497,971.226 559.903,972.304 563.308,973.377 566.714,974.447 570.119,975.512 573.525,976.574 576.93,977.633 580.336,978.687 583.741,979.738 587.147,980.785 590.552,981.829 593.958,982.87 597.363,983.907 600.769,984.941 604.174,985.971 607.58,986.998 610.985,988.022 614.391,989.043 617.796,990.061 621.202,991.075 624.607,992.087 628.013,993.095 631.418,994.101 634.824,995.104 638.229,996.104 641.635,997.101 645.04,998.095 648.445,999.087 651.851,1000.08 655.256,1001.06 658.662,1002.05 662.067,1003.03 665.473,1004.01 668.878,1004.98 672.284,1005.96 675.689,1006.93 679.095,1007.9 682.5,1008.86 685.906,1009.83 689.311,1010.79 692.717,1011.75 696.122,1012.7 699.528,1013.66 702.933,1014.61 706.339,1015.56 709.744,1016.51 713.15,1017.46 716.555,1018.4 719.961,1019.34 723.366,1020.28 726.772,1021.22 730.177,1022.16 733.583,1023.09 736.988,1024.02 740.394,1024.95 743.799,1025.88 747.205,1026.81 750.61,1027.73 754.016,1028.66 757.421,1029.58 760.827,1030.5 764.232,1031.42 767.638,1032.33 771.043,1033.25 774.449,1034.16 777.854,1035.07 781.26,1035.98 784.665,1036.89 788.07,1037.79 791.476,1038.7 794.881,1039.6 798.287,1040.5 801.692,1041.4 805.098,1042.3 808.503,1043.19 811.909,1044.09 815.314,1044.98 818.72,1045.88 822.125,1046.77 825.531,1047.66 828.936,1048.54 832.342,1049.43 835.747,1050.32 839.153,1051.2 842.558,1052.08 845.964,1052.96 849.369,1053.84 852.775,1054.72 856.18,1055.6 859.586,1056.48 862.991,1057.35 866.397,1058.23 869.802,1059.1 873.208,1059.97 876.613,1060.84 880.019,1061.71 883.424,1062.58 886.83,1063.44 890.235,1064.31 893.641,1065.17 897.046,1066.04 900.452,1066.9 903.857,1067.76 907.263,1068.62 910.668,1069.48 914.074,1070.34 917.479,1071.2 920.885,1072.05 924.29,1072.91 927.695,1073.76 931.101,1074.61 934.506,1075.46 937.912,1076.32 941.317,1077.17 944.723,1078.01 948.128,1078.86 951.534,1079.71 954.939,1080.56 958.345,1081.4 961.75,1082.25 965.156,1083.09 968.561,1083.93 971.967,1084.77 975.372,1085.61 978.778,1086.45 982.183,1087.29 985.589,1088.13 988.994,1088.97 992.4,1089.81 995.805,1090.64 999.211,1091.48 1002.62,1092.31 1006.02,1093.14 1009.43,1093.98 1012.83,1094.81 1016.24,1095.64 1019.64,1096.47 1023.05,1097.3 1026.45,1098.13 1029.86,1098.96 1033.27,1099.78 1036.67,1100.61 1040.08,1101.44 1043.48,1102.26 1046.89,1103.09 1050.29,1103.91 1053.7,1104.73 1057.1,1105.56 1060.51,1106.38 1063.91,1107.2 1067.32,1108.02 1070.73,1108.84 1074.13,1109.66 1077.54,1110.48 1080.94,1111.3 1084.35,1112.11 1087.75,1112.93 1091.16,1113.75 1094.56,1114.56 1097.97,1115.38 1101.38,1116.19 1104.78,1117 1108.19,1117.82 1111.59,1118.63 1115,1119.44 1118.4,1120.25 1121.81,1121.06 1125.21,1121.87 1128.62,1122.68 1132.02,1123.49 1135.43,1124.3 1138.84,1125.11 1142.24,1125.92 1145.65,1126.72 1149.05,1127.53 1152.46,1128.34 1155.86,1129.14 1159.27,1129.95 1162.67,1130.75 1166.08,1131.56 1169.49,1132.36 1172.89,1133.16 1176.3,1133.97 1179.7,1134.77 1183.11,1135.57 1186.51,1136.37 1189.92,1137.17 1193.32,1137.97 1196.73,1138.77 1200.13,1139.57 1203.54,1140.37 1206.95,1141.17 1210.35,1141.97 1213.76,1142.76 1217.16,1143.56 1220.57,1144.36 1223.97,1145.15 1227.38,1145.95 1230.78,1146.74 1234.19,1147.54 1237.59,1148.33 1241,1149.13 1244.41,1149.92 1247.81,1150.72 1251.22,1151.51 1254.62,1152.3 1258.03,1153.09 1261.43,1153.89 1264.84,1154.68 1268.24,1155.47 1271.65,1156.26 1275.06,1157.05 1278.46,1157.84 1281.87,1158.63 1285.27,1159.42 1288.68,1160.21 1292.08,1161 1295.49,1161.79 1298.89,1162.57 1302.3,1163.36 1305.7,1164.15 1309.11,1164.94 1312.52,1165.72 1315.92,1166.51 1319.33,1167.29 1322.73,1168.08 1326.14,1168.87 1329.54,1169.65 1332.95,1170.43 1336.35,1171.22 1339.76,1172 1343.16,1172.79 1346.57,1173.57 1349.98,1174.35 1353.38,1175.14 1356.79,1175.92 1360.19,1176.7 1363.6,1177.48 1367,1178.27 1370.41,1179.05 1373.81,1179.83 1377.22,1180.61 1380.63,1181.39 1384.03,1182.17 1387.44,1182.95 1390.84,1183.73 1394.25,1184.51 1397.65,1185.29 1401.06,1186.07 1404.46,1186.85 1407.87,1187.63 1411.27,1188.4 1414.68,1189.18 1418.09,1189.96 1421.49,1190.74 1424.9,1191.51 1428.3,1192.29 1431.71,1193.07 1435.11,1193.84 1438.52,1194.62 1441.92,1195.4 1445.33,1196.17 1448.74,1196.95 1452.14,1197.72 1455.55,1198.5 1458.95,1199.27 1462.36,1200.05 1465.76,1200.82 1469.17,1201.6 1472.57,1202.37 1475.98,1203.15 1479.38,1203.92 1482.79,1204.69 1486.2,1205.47 1489.6,1206.24 1493.01,1207.01 1496.41,1207.78 1499.82,1208.56 1503.22,1209.33 1506.63,1210.1 1510.03,1210.87 1513.44,1211.64 1516.84,1212.42 1520.25,1213.19 1523.66,1213.96 1527.06,1214.73 1530.47,1215.5 1533.87,1216.27 1537.28,1217.04 1540.68,1217.81 1544.09,1218.58 1547.49,1219.35 1550.9,1220.12 1554.31,1220.89 1557.71,1221.66 1561.12,1222.43 1564.52,1223.2 1567.93,1223.97 1571.33,1224.73 1574.74,1225.5 1578.14,1226.27 1581.55,1227.04 1584.95,1227.81 1588.36,1228.58 1591.77,1229.34 1595.17,1230.11 1598.58,1230.88 1601.98,1231.64 1605.39,1232.41 1608.79,1233.18 1612.2,1233.95 1615.6,1234.71 1619.01,1235.48 1622.41,1236.24 1625.82,1237.01 1629.23,1237.78 1632.63,1238.54 1636.04,1239.31 1639.44,1240.07 1642.85,1240.84 1646.25,1241.6 1649.66,1242.37 1653.06,1243.13 1656.47,1243.9 1659.88,1244.66 1663.28,1245.43 1666.69,1246.19 1670.09,1246.96 1673.5,1247.72 1676.9,1248.49 1680.31,1249.25 1683.71,1250.01 1687.12,1250.78 1690.52,1251.54 1693.93,1252.3 1697.34,1253.07 1700.74,1253.83 1704.15,1254.59 1707.55,1255.36 1710.96,1256.12 1714.36,1256.88 1717.77,1257.65 1721.17,1258.41 1724.58,1259.17 1727.99,1259.93 1731.39,1260.7 1734.8,1261.46 1738.2,1262.22 1741.61,1262.98 1745.01,1263.74 1748.42,1264.51 1751.82,1265.27 1755.23,1266.03 1758.63,1266.79 1762.04,1267.55 1765.45,1268.31 1768.85,1269.07 1772.26,1269.83 1775.66,1270.59 1779.07,1271.36 1782.47,1272.12 1785.88,1272.88 1789.28,1273.64 1792.69,1274.4 1796.09,1275.16 1799.5,1275.92 1802.91,1276.68 1806.31,1277.44 1809.72,1278.2 1813.12,1278.96 1816.53,1279.72 1819.93,1280.48 1823.34,1281.24 1826.74,1282 1830.15,1282.76 1833.56,1283.52 1836.96,1284.27 1840.37,1285.03 1843.77,1285.79 1847.18,1286.55 1850.58,1287.31 1853.99,1288.07 1857.39,1288.83 1860.8,1289.59 1864.2,1290.35 1867.61,1291.1 1871.02,1291.86 1874.42,1292.62 1877.83,1293.38 1881.23,1294.14 1884.64,1294.9 1888.04,1295.65 1891.45,1296.41 1894.85,1297.17 1898.26,1297.93 1901.66,1298.68 1905.07,1299.44 1908.48,1300.2 1911.88,1300.96 1915.29,1301.72 1918.69,1302.47 1922.1,1303.23 1925.5,1303.99 1928.91,1304.74 1932.31,1305.5 1935.72,1306.26 1939.13,1307.02 1942.53,1307.77 1945.94,1308.53 1949.34,1309.29 1952.75,1310.04 1956.15,1310.8 1959.56,1311.56 1962.96,1312.31 1966.37,1313.07 1969.77,1313.83 1973.18,1314.58 1976.59,1315.34 1979.99,1316.1 1983.4,1316.85 1986.8,1317.61 1990.21,1318.36 1993.61,1319.12 1997.02,1319.88 2000.42,1320.63 2003.83,1321.39 2007.24,1322.14 2010.64,1322.9 2014.05,1323.65 2017.45,1324.41 2020.86,1325.17 2024.26,1325.92 2027.67,1326.68 2031.07,1327.43 2034.48,1328.19 2037.88,1328.94 2041.29,1329.7 2044.7,1330.45 2048.1,1331.21 2051.51,1331.96 2054.91,1332.72 2058.32,1333.47 2061.72,1334.23 2065.13,1334.98 2068.53,1335.74 2071.94,1336.49 2075.34,1337.25 2078.75,1338 2082.16,1338.76 2085.56,1339.51 2088.97,1340.27 2092.37,1341.02 2095.78,1341.78 2099.18,1342.53 2102.59,1343.29 2105.99,1344.04 2109.4,1344.79 2112.81,1345.55 2116.21,1346.3 2119.62,1347.06 2123.02,1347.81 2126.43,1348.57 2129.83,1349.32 2133.24,1350.07 2136.64,1350.83 2140.05,1351.58 2143.45,1352.34 2146.86,1353.09 2150.27,1353.84 2153.67,1354.6 2157.08,1355.35 2160.48,1356.1 2163.89,1356.86 2167.29,1357.61 2170.7,1358.37 2174.1,1359.12 2177.51,1359.87 2180.91,1360.63 2184.32,1361.38 2187.73,1362.13 2191.13,1362.89 2194.54,1363.64 2197.94,1364.39 2201.35,1365.15 2204.75,1365.9 2208.16,1366.65 2211.56,1367.41 2214.97,1368.16 2218.38,1368.91 2221.78,1369.67 2225.19,1370.42 2228.59,1371.17 2232,1371.93 2235.4,1372.68 2238.81,1373.43 2242.21,1374.18 2245.62,1374.94 2249.02,1375.69 2252.43,1376.44 2255.84,1377.2 2259.24,1377.95 2262.65,1378.7 2266.05,1379.45 2269.46,1380.21 2272.86,1380.96 2276.27,1381.71 2279.67,1382.47 2283.08,1383.22 2286.49,1383.97 2289.89,1384.72 2293.3,1385.48 "/>
<path clip-path="url(#clip380)" d="M1509.12 374.156 L2282.73 374.156 L2282.73 166.796 L1509.12 166.796  Z" fill="#ffffff" fill-rule="evenodd" fill-opacity="1"/>
<polyline clip-path="url(#clip380)" style="stroke:#000000; stroke-linecap:round; stroke-linejoin:round; stroke-width:4; stroke-opacity:1; fill:none" points="1509.12,374.156 2282.73,374.156 2282.73,166.796 1509.12,166.796 1509.12,374.156 "/>
<polyline clip-path="url(#clip380)" style="stroke:#009af9; stroke-linecap:round; stroke-linejoin:round; stroke-width:4; stroke-opacity:1; fill:none" points="1532.46,218.636 1672.52,218.636 "/>
<path clip-path="url(#clip380)" d="M1695.87 201.356 L1700.54 201.356 L1700.54 231.981 L1717.37 231.981 L1717.37 235.916 L1695.87 235.916 L1695.87 201.356 Z" fill="#000000" fill-rule="nonzero" fill-opacity="1" /><path clip-path="url(#clip380)" d="M1722.28 201.356 L1729.25 201.356 L1738.07 224.874 L1746.93 201.356 L1753.9 201.356 L1753.9 235.916 L1749.34 235.916 L1749.34 205.569 L1740.43 229.272 L1735.73 229.272 L1726.82 205.569 L1726.82 235.916 L1722.28 235.916 L1722.28 201.356 Z" fill="#000000" fill-rule="nonzero" fill-opacity="1" /><path clip-path="url(#clip380)" d="M1782.69 243.786 L1782.69 247.096 L1758.07 247.096 L1758.07 243.786 L1782.69 243.786 Z" fill="#000000" fill-rule="nonzero" fill-opacity="1" /><path clip-path="url(#clip380)" d="M1798.44 205.962 L1792.09 223.161 L1804.8 223.161 L1798.44 205.962 M1795.8 201.356 L1801.1 201.356 L1814.27 235.916 L1809.41 235.916 L1806.26 227.05 L1790.68 227.05 L1787.53 235.916 L1782.6 235.916 L1795.8 201.356 Z" fill="#000000" fill-rule="nonzero" fill-opacity="1" /><path clip-path="url(#clip380)" d="M1840.68 220.268 L1840.68 235.916 L1836.42 235.916 L1836.42 220.407 Q1836.42 216.726 1834.99 214.897 Q1833.55 213.069 1830.68 213.069 Q1827.23 213.069 1825.24 215.268 Q1823.25 217.467 1823.25 221.263 L1823.25 235.916 L1818.97 235.916 L1818.97 209.99 L1823.25 209.99 L1823.25 214.018 Q1824.78 211.68 1826.84 210.522 Q1828.92 209.365 1831.63 209.365 Q1836.1 209.365 1838.39 212.143 Q1840.68 214.897 1840.68 220.268 Z" fill="#000000" fill-rule="nonzero" fill-opacity="1" /><path clip-path="url(#clip380)" d="M1866.24 213.925 L1866.24 199.897 L1870.5 199.897 L1870.5 235.916 L1866.24 235.916 L1866.24 232.027 Q1864.89 234.342 1862.83 235.476 Q1860.8 236.587 1857.93 236.587 Q1853.23 236.587 1850.26 232.837 Q1847.32 229.087 1847.32 222.976 Q1847.32 216.865 1850.26 213.115 Q1853.23 209.365 1857.93 209.365 Q1860.8 209.365 1862.83 210.499 Q1864.89 211.61 1866.24 213.925 M1851.72 222.976 Q1851.72 227.675 1853.64 230.36 Q1855.59 233.022 1858.97 233.022 Q1862.35 233.022 1864.29 230.36 Q1866.24 227.675 1866.24 222.976 Q1866.24 218.277 1864.29 215.615 Q1862.35 212.93 1858.97 212.93 Q1855.59 212.93 1853.64 215.615 Q1851.72 218.277 1851.72 222.976 Z" fill="#000000" fill-rule="nonzero" fill-opacity="1" /><path clip-path="url(#clip380)" d="M1894.29 213.971 Q1893.57 213.555 1892.72 213.37 Q1891.88 213.161 1890.87 213.161 Q1887.25 213.161 1885.31 215.522 Q1883.39 217.86 1883.39 222.258 L1883.39 235.916 L1879.11 235.916 L1879.11 209.99 L1883.39 209.99 L1883.39 214.018 Q1884.73 211.657 1886.88 210.522 Q1889.04 209.365 1892.12 209.365 Q1892.56 209.365 1893.09 209.434 Q1893.62 209.481 1894.27 209.596 L1894.29 213.971 Z" fill="#000000" fill-rule="nonzero" fill-opacity="1" /><path clip-path="url(#clip380)" d="M1919.89 221.888 L1919.89 223.971 L1900.31 223.971 Q1900.59 228.369 1902.95 230.684 Q1905.33 232.976 1909.57 232.976 Q1912.02 232.976 1914.31 232.374 Q1916.63 231.772 1918.9 230.569 L1918.9 234.596 Q1916.61 235.568 1914.2 236.078 Q1911.79 236.587 1909.31 236.587 Q1903.11 236.587 1899.48 232.976 Q1895.87 229.365 1895.87 223.207 Q1895.87 216.842 1899.29 213.115 Q1902.74 209.365 1908.57 209.365 Q1913.81 209.365 1916.84 212.745 Q1919.89 216.101 1919.89 221.888 M1915.63 220.638 Q1915.59 217.143 1913.67 215.059 Q1911.77 212.976 1908.62 212.976 Q1905.06 212.976 1902.9 214.99 Q1900.77 217.004 1900.45 220.661 L1915.63 220.638 Z" fill="#000000" fill-rule="nonzero" fill-opacity="1" /><path clip-path="url(#clip380)" d="M1926.88 209.99 L1931.14 209.99 L1931.14 235.916 L1926.88 235.916 L1926.88 209.99 M1926.88 199.897 L1931.14 199.897 L1931.14 205.291 L1926.88 205.291 L1926.88 199.897 Z" fill="#000000" fill-rule="nonzero" fill-opacity="1" /><path clip-path="url(#clip380)" d="M1959.75 243.786 L1959.75 247.096 L1935.12 247.096 L1935.12 243.786 L1959.75 243.786 Z" fill="#000000" fill-rule="nonzero" fill-opacity="1" /><path clip-path="url(#clip380)" d="M1966.3 222.976 Q1966.3 227.675 1968.23 230.36 Q1970.17 233.022 1973.55 233.022 Q1976.93 233.022 1978.87 230.36 Q1980.82 227.675 1980.82 222.976 Q1980.82 218.277 1978.87 215.615 Q1976.93 212.93 1973.55 212.93 Q1970.17 212.93 1968.23 215.615 Q1966.3 218.277 1966.3 222.976 M1980.82 232.027 Q1979.48 234.342 1977.42 235.476 Q1975.38 236.587 1972.51 236.587 Q1967.81 236.587 1964.85 232.837 Q1961.91 229.087 1961.91 222.976 Q1961.91 216.865 1964.85 213.115 Q1967.81 209.365 1972.51 209.365 Q1975.38 209.365 1977.42 210.499 Q1979.48 211.61 1980.82 213.925 L1980.82 209.99 L1985.08 209.99 L1985.08 245.777 L1980.82 245.777 L1980.82 232.027 Z" fill="#000000" fill-rule="nonzero" fill-opacity="1" /><path clip-path="url(#clip380)" d="M1993.41 225.684 L1993.41 209.99 L1997.67 209.99 L1997.67 225.522 Q1997.67 229.203 1999.11 231.055 Q2000.54 232.883 2003.41 232.883 Q2006.86 232.883 2008.85 230.684 Q2010.86 228.485 2010.86 224.689 L2010.86 209.99 L2015.12 209.99 L2015.12 235.916 L2010.86 235.916 L2010.86 231.934 Q2009.31 234.295 2007.25 235.453 Q2005.22 236.587 2002.51 236.587 Q1998.04 236.587 1995.73 233.809 Q1993.41 231.031 1993.41 225.684 M2004.13 209.365 L2004.13 209.365 Z" fill="#000000" fill-rule="nonzero" fill-opacity="1" /><path clip-path="url(#clip380)" d="M2035.68 222.883 Q2030.52 222.883 2028.53 224.064 Q2026.54 225.244 2026.54 228.092 Q2026.54 230.36 2028.02 231.703 Q2029.52 233.022 2032.09 233.022 Q2035.63 233.022 2037.76 230.522 Q2039.92 227.999 2039.92 223.832 L2039.92 222.883 L2035.68 222.883 M2044.17 221.124 L2044.17 235.916 L2039.92 235.916 L2039.92 231.981 Q2038.46 234.342 2036.28 235.476 Q2034.11 236.587 2030.96 236.587 Q2026.98 236.587 2024.61 234.365 Q2022.28 232.119 2022.28 228.369 Q2022.28 223.994 2025.19 221.772 Q2028.13 219.55 2033.94 219.55 L2039.92 219.55 L2039.92 219.133 Q2039.92 216.194 2037.97 214.596 Q2036.05 212.976 2032.55 212.976 Q2030.33 212.976 2028.23 213.508 Q2026.12 214.041 2024.17 215.106 L2024.17 211.17 Q2026.51 210.268 2028.71 209.828 Q2030.91 209.365 2032.99 209.365 Q2038.62 209.365 2041.4 212.282 Q2044.17 215.198 2044.17 221.124 Z" fill="#000000" fill-rule="nonzero" fill-opacity="1" /><path clip-path="url(#clip380)" d="M2069.48 210.754 L2069.48 214.782 Q2067.67 213.856 2065.73 213.393 Q2063.78 212.93 2061.7 212.93 Q2058.53 212.93 2056.93 213.902 Q2055.36 214.874 2055.36 216.819 Q2055.36 218.3 2056.49 219.157 Q2057.62 219.99 2061.05 220.754 L2062.51 221.078 Q2067.05 222.05 2068.94 223.832 Q2070.86 225.592 2070.86 228.763 Q2070.86 232.374 2067.99 234.481 Q2065.15 236.587 2060.15 236.587 Q2058.06 236.587 2055.8 236.17 Q2053.55 235.777 2051.05 234.967 L2051.05 230.569 Q2053.41 231.795 2055.7 232.42 Q2057.99 233.022 2060.24 233.022 Q2063.25 233.022 2064.87 232.004 Q2066.49 230.962 2066.49 229.087 Q2066.49 227.351 2065.31 226.425 Q2064.15 225.499 2060.19 224.643 L2058.71 224.295 Q2054.75 223.462 2052.99 221.749 Q2051.23 220.013 2051.23 217.004 Q2051.23 213.346 2053.83 211.356 Q2056.42 209.365 2061.19 209.365 Q2063.55 209.365 2065.63 209.712 Q2067.72 210.059 2069.48 210.754 Z" fill="#000000" fill-rule="nonzero" fill-opacity="1" /><path clip-path="url(#clip380)" d="M2077.65 209.99 L2081.91 209.99 L2081.91 235.916 L2077.65 235.916 L2077.65 209.99 M2077.65 199.897 L2081.91 199.897 L2081.91 205.291 L2077.65 205.291 L2077.65 199.897 Z" fill="#000000" fill-rule="nonzero" fill-opacity="1" /><path clip-path="url(#clip380)" d="M2110.52 243.786 L2110.52 247.096 L2085.89 247.096 L2085.89 243.786 L2110.52 243.786 Z" fill="#000000" fill-rule="nonzero" fill-opacity="1" /><path clip-path="url(#clip380)" d="M2136.07 220.268 L2136.07 235.916 L2131.81 235.916 L2131.81 220.407 Q2131.81 216.726 2130.38 214.897 Q2128.94 213.069 2126.07 213.069 Q2122.62 213.069 2120.63 215.268 Q2118.64 217.467 2118.64 221.263 L2118.64 235.916 L2114.36 235.916 L2114.36 209.99 L2118.64 209.99 L2118.64 214.018 Q2120.17 211.68 2122.23 210.522 Q2124.31 209.365 2127.02 209.365 Q2131.49 209.365 2133.78 212.143 Q2136.07 214.897 2136.07 220.268 Z" fill="#000000" fill-rule="nonzero" fill-opacity="1" /><path clip-path="url(#clip380)" d="M2144.13 225.684 L2144.13 209.99 L2148.39 209.99 L2148.39 225.522 Q2148.39 229.203 2149.82 231.055 Q2151.26 232.883 2154.13 232.883 Q2157.58 232.883 2159.57 230.684 Q2161.58 228.485 2161.58 224.689 L2161.58 209.99 L2165.84 209.99 L2165.84 235.916 L2161.58 235.916 L2161.58 231.934 Q2160.03 234.295 2157.97 235.453 Q2155.93 236.587 2153.23 236.587 Q2148.76 236.587 2146.44 233.809 Q2144.13 231.031 2144.13 225.684 M2154.85 209.365 L2154.85 209.365 Z" fill="#000000" fill-rule="nonzero" fill-opacity="1" /><path clip-path="url(#clip380)" d="M2174.61 199.897 L2178.87 199.897 L2178.87 235.916 L2174.61 235.916 L2174.61 199.897 Z" fill="#000000" fill-rule="nonzero" fill-opacity="1" /><path clip-path="url(#clip380)" d="M2207.48 243.786 L2207.48 247.096 L2182.85 247.096 L2182.85 243.786 L2207.48 243.786 Z" fill="#000000" fill-rule="nonzero" fill-opacity="1" /><path clip-path="url(#clip380)" d="M2211.49 199.897 L2215.75 199.897 L2215.75 235.916 L2211.49 235.916 L2211.49 199.897 Z" fill="#000000" fill-rule="nonzero" fill-opacity="1" /><path clip-path="url(#clip380)" d="M2224.66 209.99 L2228.92 209.99 L2228.92 235.916 L2224.66 235.916 L2224.66 209.99 M2224.66 199.897 L2228.92 199.897 L2228.92 205.291 L2224.66 205.291 L2224.66 199.897 Z" fill="#000000" fill-rule="nonzero" fill-opacity="1" /><path clip-path="url(#clip380)" d="M2259.38 220.268 L2259.38 235.916 L2255.12 235.916 L2255.12 220.407 Q2255.12 216.726 2253.69 214.897 Q2252.25 213.069 2249.38 213.069 Q2245.93 213.069 2243.94 215.268 Q2241.95 217.467 2241.95 221.263 L2241.95 235.916 L2237.67 235.916 L2237.67 209.99 L2241.95 209.99 L2241.95 214.018 Q2243.48 211.68 2245.54 210.522 Q2247.62 209.365 2250.33 209.365 Q2254.8 209.365 2257.09 212.143 Q2259.38 214.897 2259.38 220.268 Z" fill="#000000" fill-rule="nonzero" fill-opacity="1" /><polyline clip-path="url(#clip380)" style="stroke:#e26f46; stroke-linecap:round; stroke-linejoin:round; stroke-width:4; stroke-opacity:1; fill:none" points="1532.46,270.476 1672.52,270.476 "/>
<path clip-path="url(#clip380)" d="M1695.87 253.196 L1700.54 253.196 L1700.54 283.821 L1717.37 283.821 L1717.37 287.756 L1695.87 287.756 L1695.87 253.196 Z" fill="#000000" fill-rule="nonzero" fill-opacity="1" /><path clip-path="url(#clip380)" d="M1722.28 253.196 L1729.25 253.196 L1738.07 276.714 L1746.93 253.196 L1753.9 253.196 L1753.9 287.756 L1749.34 287.756 L1749.34 257.409 L1740.43 281.112 L1735.73 281.112 L1726.82 257.409 L1726.82 287.756 L1722.28 287.756 L1722.28 253.196 Z" fill="#000000" fill-rule="nonzero" fill-opacity="1" /><path clip-path="url(#clip380)" d="M1782.69 295.626 L1782.69 298.936 L1758.07 298.936 L1758.07 295.626 L1782.69 295.626 Z" fill="#000000" fill-rule="nonzero" fill-opacity="1" /><path clip-path="url(#clip380)" d="M1784.89 253.196 L1812.05 253.196 L1812.05 256.761 L1790.19 283.821 L1812.58 283.821 L1812.58 287.756 L1784.36 287.756 L1784.36 284.191 L1806.21 257.131 L1784.89 257.131 L1784.89 253.196 Z" fill="#000000" fill-rule="nonzero" fill-opacity="1" /><path clip-path="url(#clip380)" d="M1840.73 272.108 L1840.73 287.756 L1836.47 287.756 L1836.47 272.247 Q1836.47 268.566 1835.03 266.737 Q1833.6 264.909 1830.73 264.909 Q1827.28 264.909 1825.29 267.108 Q1823.3 269.307 1823.3 273.103 L1823.3 287.756 L1819.01 287.756 L1819.01 251.737 L1823.3 251.737 L1823.3 265.858 Q1824.82 263.52 1826.88 262.362 Q1828.97 261.205 1831.68 261.205 Q1836.14 261.205 1838.44 263.983 Q1840.73 266.737 1840.73 272.108 Z" fill="#000000" fill-rule="nonzero" fill-opacity="1" /><path clip-path="url(#clip380)" d="M1848.78 277.524 L1848.78 261.83 L1853.04 261.83 L1853.04 277.362 Q1853.04 281.043 1854.48 282.895 Q1855.91 284.723 1858.78 284.723 Q1862.23 284.723 1864.22 282.524 Q1866.24 280.325 1866.24 276.529 L1866.24 261.83 L1870.5 261.83 L1870.5 287.756 L1866.24 287.756 L1866.24 283.774 Q1864.69 286.135 1862.62 287.293 Q1860.59 288.427 1857.88 288.427 Q1853.41 288.427 1851.1 285.649 Q1848.78 282.871 1848.78 277.524 M1859.5 261.205 L1859.5 261.205 Z" fill="#000000" fill-rule="nonzero" fill-opacity="1" /><path clip-path="url(#clip380)" d="M1898.97 295.626 L1898.97 298.936 L1874.34 298.936 L1874.34 295.626 L1898.97 295.626 Z" fill="#000000" fill-rule="nonzero" fill-opacity="1" /><path clip-path="url(#clip380)" d="M1905.52 274.816 Q1905.52 279.515 1907.44 282.2 Q1909.38 284.862 1912.76 284.862 Q1916.14 284.862 1918.09 282.2 Q1920.03 279.515 1920.03 274.816 Q1920.03 270.117 1918.09 267.455 Q1916.14 264.77 1912.76 264.77 Q1909.38 264.77 1907.44 267.455 Q1905.52 270.117 1905.52 274.816 M1920.03 283.867 Q1918.69 286.182 1916.63 287.316 Q1914.59 288.427 1911.72 288.427 Q1907.02 288.427 1904.06 284.677 Q1901.12 280.927 1901.12 274.816 Q1901.12 268.705 1904.06 264.955 Q1907.02 261.205 1911.72 261.205 Q1914.59 261.205 1916.63 262.339 Q1918.69 263.45 1920.03 265.765 L1920.03 261.83 L1924.29 261.83 L1924.29 297.617 L1920.03 297.617 L1920.03 283.867 Z" fill="#000000" fill-rule="nonzero" fill-opacity="1" /><path clip-path="url(#clip380)" d="M1932.62 277.524 L1932.62 261.83 L1936.88 261.83 L1936.88 277.362 Q1936.88 281.043 1938.32 282.895 Q1939.75 284.723 1942.62 284.723 Q1946.07 284.723 1948.06 282.524 Q1950.08 280.325 1950.08 276.529 L1950.08 261.83 L1954.34 261.83 L1954.34 287.756 L1950.08 287.756 L1950.08 283.774 Q1948.53 286.135 1946.47 287.293 Q1944.43 288.427 1941.72 288.427 Q1937.25 288.427 1934.94 285.649 Q1932.62 282.871 1932.62 277.524 M1943.34 261.205 L1943.34 261.205 Z" fill="#000000" fill-rule="nonzero" fill-opacity="1" /><path clip-path="url(#clip380)" d="M1974.89 274.723 Q1969.73 274.723 1967.74 275.904 Q1965.75 277.084 1965.75 279.932 Q1965.75 282.2 1967.23 283.543 Q1968.74 284.862 1971.3 284.862 Q1974.85 284.862 1976.98 282.362 Q1979.13 279.839 1979.13 275.672 L1979.13 274.723 L1974.89 274.723 M1983.39 272.964 L1983.39 287.756 L1979.13 287.756 L1979.13 283.821 Q1977.67 286.182 1975.49 287.316 Q1973.32 288.427 1970.17 288.427 Q1966.19 288.427 1963.83 286.205 Q1961.49 283.959 1961.49 280.209 Q1961.49 275.834 1964.41 273.612 Q1967.35 271.39 1973.16 271.39 L1979.13 271.39 L1979.13 270.973 Q1979.13 268.034 1977.18 266.436 Q1975.26 264.816 1971.77 264.816 Q1969.55 264.816 1967.44 265.348 Q1965.33 265.881 1963.39 266.946 L1963.39 263.01 Q1965.73 262.108 1967.93 261.668 Q1970.12 261.205 1972.21 261.205 Q1977.83 261.205 1980.61 264.122 Q1983.39 267.038 1983.39 272.964 Z" fill="#000000" fill-rule="nonzero" fill-opacity="1" /><path clip-path="url(#clip380)" d="M2008.69 262.594 L2008.69 266.622 Q2006.88 265.696 2004.94 265.233 Q2002.99 264.77 2000.91 264.77 Q1997.74 264.77 1996.14 265.742 Q1994.57 266.714 1994.57 268.659 Q1994.57 270.14 1995.7 270.997 Q1996.84 271.83 2000.26 272.594 L2001.72 272.918 Q2006.26 273.89 2008.16 275.672 Q2010.08 277.432 2010.08 280.603 Q2010.08 284.214 2007.21 286.321 Q2004.36 288.427 1999.36 288.427 Q1997.28 288.427 1995.01 288.01 Q1992.76 287.617 1990.26 286.807 L1990.26 282.409 Q1992.62 283.635 1994.92 284.26 Q1997.21 284.862 1999.45 284.862 Q2002.46 284.862 2004.08 283.844 Q2005.7 282.802 2005.7 280.927 Q2005.7 279.191 2004.52 278.265 Q2003.36 277.339 1999.41 276.483 L1997.93 276.135 Q1993.97 275.302 1992.21 273.589 Q1990.45 271.853 1990.45 268.844 Q1990.45 265.186 1993.04 263.196 Q1995.63 261.205 2000.4 261.205 Q2002.76 261.205 2004.85 261.552 Q2006.93 261.899 2008.69 262.594 Z" fill="#000000" fill-rule="nonzero" fill-opacity="1" /><path clip-path="url(#clip380)" d="M2016.86 261.83 L2021.12 261.83 L2021.12 287.756 L2016.86 287.756 L2016.86 261.83 M2016.86 251.737 L2021.12 251.737 L2021.12 257.131 L2016.86 257.131 L2016.86 251.737 Z" fill="#000000" fill-rule="nonzero" fill-opacity="1" /><path clip-path="url(#clip380)" d="M2049.73 295.626 L2049.73 298.936 L2025.1 298.936 L2025.1 295.626 L2049.73 295.626 Z" fill="#000000" fill-rule="nonzero" fill-opacity="1" /><path clip-path="url(#clip380)" d="M2075.29 272.108 L2075.29 287.756 L2071.03 287.756 L2071.03 272.247 Q2071.03 268.566 2069.59 266.737 Q2068.16 264.909 2065.29 264.909 Q2061.84 264.909 2059.85 267.108 Q2057.86 269.307 2057.86 273.103 L2057.86 287.756 L2053.57 287.756 L2053.57 261.83 L2057.86 261.83 L2057.86 265.858 Q2059.38 263.52 2061.44 262.362 Q2063.53 261.205 2066.23 261.205 Q2070.7 261.205 2072.99 263.983 Q2075.29 266.737 2075.29 272.108 Z" fill="#000000" fill-rule="nonzero" fill-opacity="1" /><path clip-path="url(#clip380)" d="M2083.34 277.524 L2083.34 261.83 L2087.6 261.83 L2087.6 277.362 Q2087.6 281.043 2089.04 282.895 Q2090.47 284.723 2093.34 284.723 Q2096.79 284.723 2098.78 282.524 Q2100.79 280.325 2100.79 276.529 L2100.79 261.83 L2105.05 261.83 L2105.05 287.756 L2100.79 287.756 L2100.79 283.774 Q2099.24 286.135 2097.18 287.293 Q2095.15 288.427 2092.44 288.427 Q2087.97 288.427 2085.66 285.649 Q2083.34 282.871 2083.34 277.524 M2094.06 261.205 L2094.06 261.205 Z" fill="#000000" fill-rule="nonzero" fill-opacity="1" /><path clip-path="url(#clip380)" d="M2113.83 251.737 L2118.09 251.737 L2118.09 287.756 L2113.83 287.756 L2113.83 251.737 Z" fill="#000000" fill-rule="nonzero" fill-opacity="1" /><path clip-path="url(#clip380)" d="M2146.7 295.626 L2146.7 298.936 L2122.07 298.936 L2122.07 295.626 L2146.7 295.626 Z" fill="#000000" fill-rule="nonzero" fill-opacity="1" /><path clip-path="url(#clip380)" d="M2150.7 251.737 L2154.96 251.737 L2154.96 287.756 L2150.7 287.756 L2150.7 251.737 Z" fill="#000000" fill-rule="nonzero" fill-opacity="1" /><path clip-path="url(#clip380)" d="M2163.87 261.83 L2168.13 261.83 L2168.13 287.756 L2163.87 287.756 L2163.87 261.83 M2163.87 251.737 L2168.13 251.737 L2168.13 257.131 L2163.87 257.131 L2163.87 251.737 Z" fill="#000000" fill-rule="nonzero" fill-opacity="1" /><path clip-path="url(#clip380)" d="M2198.6 272.108 L2198.6 287.756 L2194.34 287.756 L2194.34 272.247 Q2194.34 268.566 2192.9 266.737 Q2191.47 264.909 2188.6 264.909 Q2185.15 264.909 2183.16 267.108 Q2181.16 269.307 2181.16 273.103 L2181.16 287.756 L2176.88 287.756 L2176.88 261.83 L2181.16 261.83 L2181.16 265.858 Q2182.69 263.52 2184.75 262.362 Q2186.84 261.205 2189.54 261.205 Q2194.01 261.205 2196.3 263.983 Q2198.6 266.737 2198.6 272.108 Z" fill="#000000" fill-rule="nonzero" fill-opacity="1" /><polyline clip-path="url(#clip380)" style="stroke:#3da44d; stroke-linecap:round; stroke-linejoin:round; stroke-width:4; stroke-opacity:1; fill:none" points="1532.46,322.316 1672.52,322.316 "/>
<path clip-path="url(#clip380)" d="M1695.87 305.036 L1700.54 305.036 L1700.54 335.661 L1717.37 335.661 L1717.37 339.596 L1695.87 339.596 L1695.87 305.036 Z" fill="#000000" fill-rule="nonzero" fill-opacity="1" /><path clip-path="url(#clip380)" d="M1722.28 305.036 L1729.25 305.036 L1738.07 328.554 L1746.93 305.036 L1753.9 305.036 L1753.9 339.596 L1749.34 339.596 L1749.34 309.249 L1740.43 332.952 L1735.73 332.952 L1726.82 309.249 L1726.82 339.596 L1722.28 339.596 L1722.28 305.036 Z" fill="#000000" fill-rule="nonzero" fill-opacity="1" /><path clip-path="url(#clip380)" d="M1782.69 347.466 L1782.69 350.776 L1758.07 350.776 L1758.07 347.466 L1782.69 347.466 Z" fill="#000000" fill-rule="nonzero" fill-opacity="1" /><path clip-path="url(#clip380)" d="M1807.6 306.17 L1807.6 310.73 Q1804.94 309.457 1802.58 308.832 Q1800.22 308.207 1798.02 308.207 Q1794.2 308.207 1792.12 309.688 Q1790.06 311.17 1790.06 313.901 Q1790.06 316.193 1791.42 317.374 Q1792.81 318.531 1796.65 319.249 L1799.48 319.827 Q1804.71 320.823 1807.19 323.346 Q1809.69 325.846 1809.69 330.059 Q1809.69 335.082 1806.31 337.674 Q1802.95 340.267 1796.44 340.267 Q1793.99 340.267 1791.21 339.711 Q1788.46 339.156 1785.5 338.068 L1785.5 333.253 Q1788.34 334.85 1791.07 335.661 Q1793.81 336.471 1796.44 336.471 Q1800.45 336.471 1802.63 334.897 Q1804.8 333.323 1804.8 330.406 Q1804.8 327.86 1803.23 326.424 Q1801.68 324.989 1798.11 324.272 L1795.26 323.716 Q1790.03 322.675 1787.69 320.452 Q1785.36 318.23 1785.36 314.272 Q1785.36 309.688 1788.57 307.05 Q1791.82 304.411 1797.49 304.411 Q1799.92 304.411 1802.44 304.851 Q1804.96 305.29 1807.6 306.17 Z" fill="#000000" fill-rule="nonzero" fill-opacity="1" /><path clip-path="url(#clip380)" d="M1821.65 308.878 L1821.65 321.864 L1827.53 321.864 Q1830.8 321.864 1832.58 320.175 Q1834.36 318.485 1834.36 315.36 Q1834.36 312.258 1832.58 310.568 Q1830.8 308.878 1827.53 308.878 L1821.65 308.878 M1816.98 305.036 L1827.53 305.036 Q1833.34 305.036 1836.31 307.675 Q1839.29 310.29 1839.29 315.36 Q1839.29 320.475 1836.31 323.091 Q1833.34 325.707 1827.53 325.707 L1821.65 325.707 L1821.65 339.596 L1816.98 339.596 L1816.98 305.036 Z" fill="#000000" fill-rule="nonzero" fill-opacity="1" /><path clip-path="url(#clip380)" d="M1869.13 334.665 L1869.13 325.383 L1861.49 325.383 L1861.49 321.54 L1873.76 321.54 L1873.76 336.378 Q1871.05 338.299 1867.79 339.295 Q1864.52 340.267 1860.82 340.267 Q1852.72 340.267 1848.13 335.545 Q1843.57 330.799 1843.57 322.35 Q1843.57 313.878 1848.13 309.156 Q1852.72 304.411 1860.82 304.411 Q1864.2 304.411 1867.23 305.244 Q1870.29 306.077 1872.86 307.698 L1872.86 312.675 Q1870.26 310.476 1867.35 309.364 Q1864.43 308.253 1861.21 308.253 Q1854.87 308.253 1851.68 311.795 Q1848.5 315.337 1848.5 322.35 Q1848.5 329.341 1851.68 332.883 Q1854.87 336.424 1861.21 336.424 Q1863.69 336.424 1865.63 336.008 Q1867.58 335.568 1869.13 334.665 Z" fill="#000000" fill-rule="nonzero" fill-opacity="1" /><path clip-path="url(#clip380)" d="M1901.81 347.466 L1901.81 350.776 L1877.18 350.776 L1877.18 347.466 L1901.81 347.466 Z" fill="#000000" fill-rule="nonzero" fill-opacity="1" /><path clip-path="url(#clip380)" d="M1908.37 326.656 Q1908.37 331.355 1910.29 334.04 Q1912.23 336.702 1915.61 336.702 Q1918.99 336.702 1920.93 334.04 Q1922.88 331.355 1922.88 326.656 Q1922.88 321.957 1920.93 319.295 Q1918.99 316.61 1915.61 316.61 Q1912.23 316.61 1910.29 319.295 Q1908.37 321.957 1908.37 326.656 M1922.88 335.707 Q1921.54 338.022 1919.48 339.156 Q1917.44 340.267 1914.57 340.267 Q1909.87 340.267 1906.91 336.517 Q1903.97 332.767 1903.97 326.656 Q1903.97 320.545 1906.91 316.795 Q1909.87 313.045 1914.57 313.045 Q1917.44 313.045 1919.48 314.179 Q1921.54 315.29 1922.88 317.605 L1922.88 313.67 L1927.14 313.67 L1927.14 349.457 L1922.88 349.457 L1922.88 335.707 Z" fill="#000000" fill-rule="nonzero" fill-opacity="1" /><path clip-path="url(#clip380)" d="M1935.47 329.364 L1935.47 313.67 L1939.73 313.67 L1939.73 329.202 Q1939.73 332.883 1941.17 334.735 Q1942.6 336.563 1945.47 336.563 Q1948.92 336.563 1950.91 334.364 Q1952.93 332.165 1952.93 328.369 L1952.93 313.67 L1957.18 313.67 L1957.18 339.596 L1952.93 339.596 L1952.93 335.614 Q1951.37 337.975 1949.31 339.133 Q1947.28 340.267 1944.57 340.267 Q1940.1 340.267 1937.79 337.489 Q1935.47 334.711 1935.47 329.364 M1946.19 313.045 L1946.19 313.045 Z" fill="#000000" fill-rule="nonzero" fill-opacity="1" /><path clip-path="url(#clip380)" d="M1977.74 326.563 Q1972.58 326.563 1970.59 327.744 Q1968.6 328.924 1968.6 331.772 Q1968.6 334.04 1970.08 335.383 Q1971.58 336.702 1974.15 336.702 Q1977.69 336.702 1979.82 334.202 Q1981.98 331.679 1981.98 327.512 L1981.98 326.563 L1977.74 326.563 M1986.24 324.804 L1986.24 339.596 L1981.98 339.596 L1981.98 335.661 Q1980.52 338.022 1978.34 339.156 Q1976.17 340.267 1973.02 340.267 Q1969.04 340.267 1966.68 338.045 Q1964.34 335.799 1964.34 332.049 Q1964.34 327.674 1967.25 325.452 Q1970.19 323.23 1976 323.23 L1981.98 323.23 L1981.98 322.813 Q1981.98 319.874 1980.03 318.276 Q1978.11 316.656 1974.61 316.656 Q1972.39 316.656 1970.29 317.188 Q1968.18 317.721 1966.24 318.786 L1966.24 314.85 Q1968.57 313.948 1970.77 313.508 Q1972.97 313.045 1975.05 313.045 Q1980.68 313.045 1983.46 315.962 Q1986.24 318.878 1986.24 324.804 Z" fill="#000000" fill-rule="nonzero" fill-opacity="1" /><path clip-path="url(#clip380)" d="M2011.54 314.434 L2011.54 318.462 Q2009.73 317.536 2007.79 317.073 Q2005.84 316.61 2003.76 316.61 Q2000.59 316.61 1998.99 317.582 Q1997.42 318.554 1997.42 320.499 Q1997.42 321.98 1998.55 322.837 Q1999.68 323.67 2003.11 324.434 L2004.57 324.758 Q2009.11 325.73 2011 327.512 Q2012.92 329.272 2012.92 332.443 Q2012.92 336.054 2010.05 338.161 Q2007.21 340.267 2002.21 340.267 Q2000.12 340.267 1997.86 339.85 Q1995.61 339.457 1993.11 338.647 L1993.11 334.249 Q1995.47 335.475 1997.76 336.1 Q2000.05 336.702 2002.3 336.702 Q2005.31 336.702 2006.93 335.684 Q2008.55 334.642 2008.55 332.767 Q2008.55 331.031 2007.37 330.105 Q2006.21 329.179 2002.25 328.323 L2000.77 327.975 Q1996.81 327.142 1995.05 325.429 Q1993.3 323.693 1993.3 320.684 Q1993.3 317.026 1995.89 315.036 Q1998.48 313.045 2003.25 313.045 Q2005.61 313.045 2007.69 313.392 Q2009.78 313.739 2011.54 314.434 Z" fill="#000000" fill-rule="nonzero" fill-opacity="1" /><path clip-path="url(#clip380)" d="M2019.71 313.67 L2023.97 313.67 L2023.97 339.596 L2019.71 339.596 L2019.71 313.67 M2019.71 303.577 L2023.97 303.577 L2023.97 308.971 L2019.71 308.971 L2019.71 303.577 Z" fill="#000000" fill-rule="nonzero" fill-opacity="1" /><path clip-path="url(#clip380)" d="M2052.58 347.466 L2052.58 350.776 L2027.95 350.776 L2027.95 347.466 L2052.58 347.466 Z" fill="#000000" fill-rule="nonzero" fill-opacity="1" /><path clip-path="url(#clip380)" d="M2078.13 323.948 L2078.13 339.596 L2073.87 339.596 L2073.87 324.087 Q2073.87 320.406 2072.44 318.577 Q2071 316.749 2068.13 316.749 Q2064.68 316.749 2062.69 318.948 Q2060.7 321.147 2060.7 324.943 L2060.7 339.596 L2056.42 339.596 L2056.42 313.67 L2060.7 313.67 L2060.7 317.698 Q2062.23 315.36 2064.29 314.202 Q2066.37 313.045 2069.08 313.045 Q2073.55 313.045 2075.84 315.823 Q2078.13 318.577 2078.13 323.948 Z" fill="#000000" fill-rule="nonzero" fill-opacity="1" /><path clip-path="url(#clip380)" d="M2086.19 329.364 L2086.19 313.67 L2090.45 313.67 L2090.45 329.202 Q2090.45 332.883 2091.88 334.735 Q2093.32 336.563 2096.19 336.563 Q2099.64 336.563 2101.63 334.364 Q2103.64 332.165 2103.64 328.369 L2103.64 313.67 L2107.9 313.67 L2107.9 339.596 L2103.64 339.596 L2103.64 335.614 Q2102.09 337.975 2100.03 339.133 Q2097.99 340.267 2095.29 340.267 Q2090.82 340.267 2088.5 337.489 Q2086.19 334.711 2086.19 329.364 M2096.91 313.045 L2096.91 313.045 Z" fill="#000000" fill-rule="nonzero" fill-opacity="1" /><path clip-path="url(#clip380)" d="M2116.67 303.577 L2120.93 303.577 L2120.93 339.596 L2116.67 339.596 L2116.67 303.577 Z" fill="#000000" fill-rule="nonzero" fill-opacity="1" /><path clip-path="url(#clip380)" d="M2149.54 347.466 L2149.54 350.776 L2124.92 350.776 L2124.92 347.466 L2149.54 347.466 Z" fill="#000000" fill-rule="nonzero" fill-opacity="1" /><path clip-path="url(#clip380)" d="M2153.55 303.577 L2157.81 303.577 L2157.81 339.596 L2153.55 339.596 L2153.55 303.577 Z" fill="#000000" fill-rule="nonzero" fill-opacity="1" /><path clip-path="url(#clip380)" d="M2166.72 313.67 L2170.98 313.67 L2170.98 339.596 L2166.72 339.596 L2166.72 313.67 M2166.72 303.577 L2170.98 303.577 L2170.98 308.971 L2166.72 308.971 L2166.72 303.577 Z" fill="#000000" fill-rule="nonzero" fill-opacity="1" /><path clip-path="url(#clip380)" d="M2201.44 323.948 L2201.44 339.596 L2197.18 339.596 L2197.18 324.087 Q2197.18 320.406 2195.75 318.577 Q2194.31 316.749 2191.44 316.749 Q2187.99 316.749 2186 318.948 Q2184.01 321.147 2184.01 324.943 L2184.01 339.596 L2179.73 339.596 L2179.73 313.67 L2184.01 313.67 L2184.01 317.698 Q2185.54 315.36 2187.6 314.202 Q2189.68 313.045 2192.39 313.045 Q2196.86 313.045 2199.15 315.823 Q2201.44 318.577 2201.44 323.948 Z" fill="#000000" fill-rule="nonzero" fill-opacity="1" /></svg>
