<?xml version="1.0" encoding="utf-8"?>
<svg xmlns="http://www.w3.org/2000/svg" xmlns:xlink="http://www.w3.org/1999/xlink" width="600" height="400" viewBox="0 0 2400 1600">
<defs>
  <clipPath id="clip210">
    <rect x="0" y="0" width="2400" height="1600"/>
  </clipPath>
</defs>
<path clip-path="url(#clip210)" d="M0 1600 L2400 1600 L2400 0 L0 0  Z" fill="#ffffff" fill-rule="evenodd" fill-opacity="1"/>
<defs>
  <clipPath id="clip211">
    <rect x="480" y="0" width="1681" height="1600"/>
  </clipPath>
</defs>
<path clip-path="url(#clip210)" d="M251.842 1423.18 L2352.76 1423.18 L2352.76 123.472 L251.842 123.472  Z" fill="#ffffff" fill-rule="evenodd" fill-opacity="1"/>
<defs>
  <clipPath id="clip212">
    <rect x="251" y="123" width="2102" height="1301"/>
  </clipPath>
</defs>
<polyline clip-path="url(#clip212)" style="stroke:#000000; stroke-linecap:round; stroke-linejoin:round; stroke-width:2; stroke-opacity:0.1; fill:none" points="309.32,1423.18 309.32,123.472 "/>
<polyline clip-path="url(#clip212)" style="stroke:#000000; stroke-linecap:round; stroke-linejoin:round; stroke-width:2; stroke-opacity:0.1; fill:none" points="804.819,1423.18 804.819,123.472 "/>
<polyline clip-path="url(#clip212)" style="stroke:#000000; stroke-linecap:round; stroke-linejoin:round; stroke-width:2; stroke-opacity:0.1; fill:none" points="1300.32,1423.18 1300.32,123.472 "/>
<polyline clip-path="url(#clip212)" style="stroke:#000000; stroke-linecap:round; stroke-linejoin:round; stroke-width:2; stroke-opacity:0.1; fill:none" points="1795.82,1423.18 1795.82,123.472 "/>
<polyline clip-path="url(#clip212)" style="stroke:#000000; stroke-linecap:round; stroke-linejoin:round; stroke-width:2; stroke-opacity:0.1; fill:none" points="2291.31,1423.18 2291.31,123.472 "/>
<polyline clip-path="url(#clip210)" style="stroke:#000000; stroke-linecap:round; stroke-linejoin:round; stroke-width:4; stroke-opacity:1; fill:none" points="251.842,1423.18 2352.76,1423.18 "/>
<polyline clip-path="url(#clip210)" style="stroke:#000000; stroke-linecap:round; stroke-linejoin:round; stroke-width:4; stroke-opacity:1; fill:none" points="309.32,1423.18 309.32,1404.28 "/>
<polyline clip-path="url(#clip210)" style="stroke:#000000; stroke-linecap:round; stroke-linejoin:round; stroke-width:4; stroke-opacity:1; fill:none" points="804.819,1423.18 804.819,1404.28 "/>
<polyline clip-path="url(#clip210)" style="stroke:#000000; stroke-linecap:round; stroke-linejoin:round; stroke-width:4; stroke-opacity:1; fill:none" points="1300.32,1423.18 1300.32,1404.28 "/>
<polyline clip-path="url(#clip210)" style="stroke:#000000; stroke-linecap:round; stroke-linejoin:round; stroke-width:4; stroke-opacity:1; fill:none" points="1795.82,1423.18 1795.82,1404.28 "/>
<polyline clip-path="url(#clip210)" style="stroke:#000000; stroke-linecap:round; stroke-linejoin:round; stroke-width:4; stroke-opacity:1; fill:none" points="2291.31,1423.18 2291.31,1404.28 "/>
<path clip-path="url(#clip210)" d="M309.32 1454.1 Q305.709 1454.1 303.88 1457.66 Q302.075 1461.2 302.075 1468.33 Q302.075 1475.44 303.88 1479.01 Q305.709 1482.55 309.32 1482.55 Q312.954 1482.55 314.76 1479.01 Q316.589 1475.44 316.589 1468.33 Q316.589 1461.2 314.76 1457.66 Q312.954 1454.1 309.32 1454.1 M309.32 1450.39 Q315.13 1450.39 318.186 1455 Q321.265 1459.58 321.265 1468.33 Q321.265 1477.06 318.186 1481.67 Q315.13 1486.25 309.32 1486.25 Q303.51 1486.25 300.431 1481.67 Q297.376 1477.06 297.376 1468.33 Q297.376 1459.58 300.431 1455 Q303.51 1450.39 309.32 1450.39 Z" fill="#000000" fill-rule="nonzero" fill-opacity="1" /><path clip-path="url(#clip210)" d="M768.511 1481.64 L784.83 1481.64 L784.83 1485.58 L762.886 1485.58 L762.886 1481.64 Q765.548 1478.89 770.131 1474.26 Q774.738 1469.61 775.918 1468.27 Q778.164 1465.74 779.043 1464.01 Q779.946 1462.25 779.946 1460.56 Q779.946 1457.8 778.002 1456.07 Q776.08 1454.33 772.979 1454.33 Q770.779 1454.33 768.326 1455.09 Q765.895 1455.86 763.118 1457.41 L763.118 1452.69 Q765.942 1451.55 768.395 1450.97 Q770.849 1450.39 772.886 1450.39 Q778.256 1450.39 781.451 1453.08 Q784.645 1455.77 784.645 1460.26 Q784.645 1462.39 783.835 1464.31 Q783.048 1466.2 780.941 1468.8 Q780.363 1469.47 777.261 1472.69 Q774.159 1475.88 768.511 1481.64 Z" fill="#000000" fill-rule="nonzero" fill-opacity="1" /><path clip-path="url(#clip210)" d="M794.691 1451.02 L813.048 1451.02 L813.048 1454.96 L798.974 1454.96 L798.974 1463.43 Q799.992 1463.08 801.011 1462.92 Q802.029 1462.73 803.048 1462.73 Q808.835 1462.73 812.214 1465.9 Q815.594 1469.08 815.594 1474.49 Q815.594 1480.07 812.122 1483.17 Q808.65 1486.25 802.33 1486.25 Q800.154 1486.25 797.886 1485.88 Q795.64 1485.51 793.233 1484.77 L793.233 1480.07 Q795.316 1481.2 797.539 1481.76 Q799.761 1482.32 802.238 1482.32 Q806.242 1482.32 808.58 1480.21 Q810.918 1478.1 810.918 1474.49 Q810.918 1470.88 808.58 1468.77 Q806.242 1466.67 802.238 1466.67 Q800.363 1466.67 798.488 1467.08 Q796.636 1467.5 794.691 1468.38 L794.691 1451.02 Z" fill="#000000" fill-rule="nonzero" fill-opacity="1" /><path clip-path="url(#clip210)" d="M834.807 1454.1 Q831.196 1454.1 829.367 1457.66 Q827.562 1461.2 827.562 1468.33 Q827.562 1475.44 829.367 1479.01 Q831.196 1482.55 834.807 1482.55 Q838.441 1482.55 840.247 1479.01 Q842.075 1475.44 842.075 1468.33 Q842.075 1461.2 840.247 1457.66 Q838.441 1454.1 834.807 1454.1 M834.807 1450.39 Q840.617 1450.39 843.673 1455 Q846.751 1459.58 846.751 1468.33 Q846.751 1477.06 843.673 1481.67 Q840.617 1486.25 834.807 1486.25 Q828.997 1486.25 825.918 1481.67 Q822.863 1477.06 822.863 1468.33 Q822.863 1459.58 825.918 1455 Q828.997 1450.39 834.807 1450.39 Z" fill="#000000" fill-rule="nonzero" fill-opacity="1" /><path clip-path="url(#clip210)" d="M1259.94 1451.02 L1278.29 1451.02 L1278.29 1454.96 L1264.22 1454.96 L1264.22 1463.43 Q1265.24 1463.08 1266.25 1462.92 Q1267.27 1462.73 1268.29 1462.73 Q1274.08 1462.73 1277.46 1465.9 Q1280.84 1469.08 1280.84 1474.49 Q1280.84 1480.07 1277.37 1483.17 Q1273.89 1486.25 1267.57 1486.25 Q1265.4 1486.25 1263.13 1485.88 Q1260.88 1485.51 1258.48 1484.77 L1258.48 1480.07 Q1260.56 1481.2 1262.78 1481.76 Q1265 1482.32 1267.48 1482.32 Q1271.49 1482.32 1273.82 1480.21 Q1276.16 1478.1 1276.16 1474.49 Q1276.16 1470.88 1273.82 1468.77 Q1271.49 1466.67 1267.48 1466.67 Q1265.61 1466.67 1263.73 1467.08 Q1261.88 1467.5 1259.94 1468.38 L1259.94 1451.02 Z" fill="#000000" fill-rule="nonzero" fill-opacity="1" /><path clip-path="url(#clip210)" d="M1300.05 1454.1 Q1296.44 1454.1 1294.61 1457.66 Q1292.81 1461.2 1292.81 1468.33 Q1292.81 1475.44 1294.61 1479.01 Q1296.44 1482.55 1300.05 1482.55 Q1303.69 1482.55 1305.49 1479.01 Q1307.32 1475.44 1307.32 1468.33 Q1307.32 1461.2 1305.49 1457.66 Q1303.69 1454.1 1300.05 1454.1 M1300.05 1450.39 Q1305.86 1450.39 1308.92 1455 Q1312 1459.58 1312 1468.33 Q1312 1477.06 1308.92 1481.67 Q1305.86 1486.25 1300.05 1486.25 Q1294.24 1486.25 1291.16 1481.67 Q1288.11 1477.06 1288.11 1468.33 Q1288.11 1459.58 1291.16 1455 Q1294.24 1450.39 1300.05 1450.39 Z" fill="#000000" fill-rule="nonzero" fill-opacity="1" /><path clip-path="url(#clip210)" d="M1330.21 1454.1 Q1326.6 1454.1 1324.77 1457.66 Q1322.97 1461.2 1322.97 1468.33 Q1322.97 1475.44 1324.77 1479.01 Q1326.6 1482.55 1330.21 1482.55 Q1333.85 1482.55 1335.65 1479.01 Q1337.48 1475.44 1337.48 1468.33 Q1337.48 1461.2 1335.65 1457.66 Q1333.85 1454.1 1330.21 1454.1 M1330.21 1450.39 Q1336.02 1450.39 1339.08 1455 Q1342.16 1459.58 1342.16 1468.33 Q1342.16 1477.06 1339.08 1481.67 Q1336.02 1486.25 1330.21 1486.25 Q1324.4 1486.25 1321.32 1481.67 Q1318.27 1477.06 1318.27 1468.33 Q1318.27 1459.58 1321.32 1455 Q1324.4 1450.39 1330.21 1450.39 Z" fill="#000000" fill-rule="nonzero" fill-opacity="1" /><path clip-path="url(#clip210)" d="M1754.09 1451.02 L1776.31 1451.02 L1776.31 1453.01 L1763.77 1485.58 L1758.88 1485.58 L1770.69 1454.96 L1754.09 1454.96 L1754.09 1451.02 Z" fill="#000000" fill-rule="nonzero" fill-opacity="1" /><path clip-path="url(#clip210)" d="M1785.48 1451.02 L1803.84 1451.02 L1803.84 1454.96 L1789.76 1454.96 L1789.76 1463.43 Q1790.78 1463.08 1791.8 1462.92 Q1792.82 1462.73 1793.84 1462.73 Q1799.62 1462.73 1803 1465.9 Q1806.38 1469.08 1806.38 1474.49 Q1806.38 1480.07 1802.91 1483.17 Q1799.44 1486.25 1793.12 1486.25 Q1790.94 1486.25 1788.67 1485.88 Q1786.43 1485.51 1784.02 1484.77 L1784.02 1480.07 Q1786.11 1481.2 1788.33 1481.76 Q1790.55 1482.32 1793.03 1482.32 Q1797.03 1482.32 1799.37 1480.21 Q1801.71 1478.1 1801.71 1474.49 Q1801.71 1470.88 1799.37 1468.77 Q1797.03 1466.67 1793.03 1466.67 Q1791.15 1466.67 1789.28 1467.08 Q1787.42 1467.5 1785.48 1468.38 L1785.48 1451.02 Z" fill="#000000" fill-rule="nonzero" fill-opacity="1" /><path clip-path="url(#clip210)" d="M1825.6 1454.1 Q1821.98 1454.1 1820.16 1457.66 Q1818.35 1461.2 1818.35 1468.33 Q1818.35 1475.44 1820.16 1479.01 Q1821.98 1482.55 1825.6 1482.55 Q1829.23 1482.55 1831.04 1479.01 Q1832.86 1475.44 1832.86 1468.33 Q1832.86 1461.2 1831.04 1457.66 Q1829.23 1454.1 1825.6 1454.1 M1825.6 1450.39 Q1831.41 1450.39 1834.46 1455 Q1837.54 1459.58 1837.54 1468.33 Q1837.54 1477.06 1834.46 1481.67 Q1831.41 1486.25 1825.6 1486.25 Q1819.79 1486.25 1816.71 1481.67 Q1813.65 1477.06 1813.65 1468.33 Q1813.65 1459.58 1816.71 1455 Q1819.79 1450.39 1825.6 1450.39 Z" fill="#000000" fill-rule="nonzero" fill-opacity="1" /><path clip-path="url(#clip210)" d="M2235.84 1481.64 L2243.48 1481.64 L2243.48 1455.28 L2235.17 1456.95 L2235.17 1452.69 L2243.43 1451.02 L2248.11 1451.02 L2248.11 1481.64 L2255.75 1481.64 L2255.75 1485.58 L2235.84 1485.58 L2235.84 1481.64 Z" fill="#000000" fill-rule="nonzero" fill-opacity="1" /><path clip-path="url(#clip210)" d="M2275.19 1454.1 Q2271.58 1454.1 2269.75 1457.66 Q2267.95 1461.2 2267.95 1468.33 Q2267.95 1475.44 2269.75 1479.01 Q2271.58 1482.55 2275.19 1482.55 Q2278.83 1482.55 2280.63 1479.01 Q2282.46 1475.44 2282.46 1468.33 Q2282.46 1461.2 2280.63 1457.66 Q2278.83 1454.1 2275.19 1454.1 M2275.19 1450.39 Q2281 1450.39 2284.06 1455 Q2287.14 1459.58 2287.14 1468.33 Q2287.14 1477.06 2284.06 1481.67 Q2281 1486.25 2275.19 1486.25 Q2269.38 1486.25 2266.3 1481.67 Q2263.25 1477.06 2263.25 1468.33 Q2263.25 1459.58 2266.3 1455 Q2269.38 1450.39 2275.19 1450.39 Z" fill="#000000" fill-rule="nonzero" fill-opacity="1" /><path clip-path="url(#clip210)" d="M2305.35 1454.1 Q2301.74 1454.1 2299.91 1457.66 Q2298.11 1461.2 2298.11 1468.33 Q2298.11 1475.44 2299.91 1479.01 Q2301.74 1482.55 2305.35 1482.55 Q2308.99 1482.55 2310.79 1479.01 Q2312.62 1475.44 2312.62 1468.33 Q2312.62 1461.2 2310.79 1457.66 Q2308.99 1454.1 2305.35 1454.1 M2305.35 1450.39 Q2311.16 1450.39 2314.22 1455 Q2317.3 1459.58 2317.3 1468.33 Q2317.3 1477.06 2314.22 1481.67 Q2311.16 1486.25 2305.35 1486.25 Q2299.54 1486.25 2296.46 1481.67 Q2293.41 1477.06 2293.41 1468.33 Q2293.41 1459.58 2296.46 1455 Q2299.54 1450.39 2305.35 1450.39 Z" fill="#000000" fill-rule="nonzero" fill-opacity="1" /><path clip-path="url(#clip210)" d="M2335.52 1454.1 Q2331.9 1454.1 2330.08 1457.66 Q2328.27 1461.2 2328.27 1468.33 Q2328.27 1475.44 2330.08 1479.01 Q2331.9 1482.55 2335.52 1482.55 Q2339.15 1482.55 2340.96 1479.01 Q2342.78 1475.44 2342.78 1468.33 Q2342.78 1461.2 2340.96 1457.66 Q2339.15 1454.1 2335.52 1454.1 M2335.52 1450.39 Q2341.33 1450.39 2344.38 1455 Q2347.46 1459.58 2347.46 1468.33 Q2347.46 1477.06 2344.38 1481.67 Q2341.33 1486.25 2335.52 1486.25 Q2329.71 1486.25 2326.63 1481.67 Q2323.57 1477.06 2323.57 1468.33 Q2323.57 1459.58 2326.63 1455 Q2329.71 1450.39 2335.52 1450.39 Z" fill="#000000" fill-rule="nonzero" fill-opacity="1" /><path clip-path="url(#clip210)" d="M1286.48 1518.52 L1292.37 1518.52 L1292.37 1547.77 L1309.84 1532.4 L1317.32 1532.4 L1298.42 1549.07 L1318.12 1568.04 L1310.48 1568.04 L1292.37 1550.63 L1292.37 1568.04 L1286.48 1568.04 L1286.48 1518.52 Z" fill="#000000" fill-rule="nonzero" fill-opacity="1" /><polyline clip-path="url(#clip212)" style="stroke:#000000; stroke-linecap:round; stroke-linejoin:round; stroke-width:2; stroke-opacity:0.1; fill:none" points="251.842,1020.46 2352.76,1020.46 "/>
<polyline clip-path="url(#clip212)" style="stroke:#000000; stroke-linecap:round; stroke-linejoin:round; stroke-width:2; stroke-opacity:0.1; fill:none" points="251.842,568.48 2352.76,568.48 "/>
<polyline clip-path="url(#clip210)" style="stroke:#000000; stroke-linecap:round; stroke-linejoin:round; stroke-width:4; stroke-opacity:1; fill:none" points="251.842,1423.18 251.842,123.472 "/>
<polyline clip-path="url(#clip210)" style="stroke:#000000; stroke-linecap:round; stroke-linejoin:round; stroke-width:4; stroke-opacity:1; fill:none" points="251.842,1020.46 270.74,1020.46 "/>
<polyline clip-path="url(#clip210)" style="stroke:#000000; stroke-linecap:round; stroke-linejoin:round; stroke-width:4; stroke-opacity:1; fill:none" points="251.842,568.48 270.74,568.48 "/>
<path clip-path="url(#clip210)" d="M114.931 1040.25 L122.57 1040.25 L122.57 1013.89 L114.26 1015.55 L114.26 1011.3 L122.524 1009.63 L127.2 1009.63 L127.2 1040.25 L134.839 1040.25 L134.839 1044.19 L114.931 1044.19 L114.931 1040.25 Z" fill="#000000" fill-rule="nonzero" fill-opacity="1" /><path clip-path="url(#clip210)" d="M154.283 1012.71 Q150.672 1012.71 148.843 1016.27 Q147.038 1019.81 147.038 1026.94 Q147.038 1034.05 148.843 1037.61 Q150.672 1041.16 154.283 1041.16 Q157.917 1041.16 159.723 1037.61 Q161.552 1034.05 161.552 1026.94 Q161.552 1019.81 159.723 1016.27 Q157.917 1012.71 154.283 1012.71 M154.283 1009 Q160.093 1009 163.149 1013.61 Q166.227 1018.19 166.227 1026.94 Q166.227 1035.67 163.149 1040.28 Q160.093 1044.86 154.283 1044.86 Q148.473 1044.86 145.394 1040.28 Q142.339 1035.67 142.339 1026.94 Q142.339 1018.19 145.394 1013.61 Q148.473 1009 154.283 1009 Z" fill="#000000" fill-rule="nonzero" fill-opacity="1" /><path clip-path="url(#clip210)" d="M166.227 1003.11 L190.339 1003.11 L190.339 1006.3 L166.227 1006.3 L166.227 1003.11 Z" fill="#000000" fill-rule="nonzero" fill-opacity="1" /><path clip-path="url(#clip210)" d="M210.05 1001.64 Q212.777 1002.22 214.3 1004.06 Q215.842 1005.91 215.842 1008.62 Q215.842 1012.77 212.984 1015.05 Q210.125 1017.32 204.859 1017.32 Q203.091 1017.32 201.21 1016.97 Q199.348 1016.63 197.354 1015.93 L197.354 1012.26 Q198.934 1013.19 200.815 1013.66 Q202.696 1014.13 204.746 1014.13 Q208.319 1014.13 210.181 1012.72 Q212.062 1011.31 212.062 1008.62 Q212.062 1006.13 210.313 1004.74 Q208.583 1003.33 205.479 1003.33 L202.207 1003.33 L202.207 1000.21 L205.63 1000.21 Q208.432 1000.21 209.918 999.099 Q211.404 997.97 211.404 995.864 Q211.404 993.701 209.861 992.554 Q208.338 991.388 205.479 991.388 Q203.918 991.388 202.132 991.726 Q200.345 992.065 198.201 992.78 L198.201 989.394 Q200.364 988.792 202.244 988.491 Q204.144 988.19 205.818 988.19 Q210.144 988.19 212.664 990.165 Q215.184 992.121 215.184 995.469 Q215.184 997.801 213.849 999.419 Q212.513 1001.02 210.05 1001.64 Z" fill="#000000" fill-rule="nonzero" fill-opacity="1" /><path clip-path="url(#clip210)" d="M145.137 588.273 L152.776 588.273 L152.776 561.907 L144.465 563.574 L144.465 559.314 L152.729 557.648 L157.405 557.648 L157.405 588.273 L165.044 588.273 L165.044 592.208 L145.137 592.208 L145.137 588.273 Z" fill="#000000" fill-rule="nonzero" fill-opacity="1" /><path clip-path="url(#clip210)" d="M184.488 560.726 Q180.877 560.726 179.049 564.291 Q177.243 567.833 177.243 574.962 Q177.243 582.069 179.049 585.634 Q180.877 589.175 184.488 589.175 Q188.123 589.175 189.928 585.634 Q191.757 582.069 191.757 574.962 Q191.757 567.833 189.928 564.291 Q188.123 560.726 184.488 560.726 M184.488 557.023 Q190.299 557.023 193.354 561.629 Q196.433 566.213 196.433 574.962 Q196.433 583.689 193.354 588.296 Q190.299 592.879 184.488 592.879 Q178.678 592.879 175.6 588.296 Q172.544 583.689 172.544 574.962 Q172.544 566.213 175.6 561.629 Q178.678 557.023 184.488 557.023 Z" fill="#000000" fill-rule="nonzero" fill-opacity="1" /><path clip-path="url(#clip210)" d="M206.138 539.219 Q203.204 539.219 201.718 542.115 Q200.251 544.993 200.251 550.786 Q200.251 556.56 201.718 559.456 Q203.204 562.334 206.138 562.334 Q209.09 562.334 210.557 559.456 Q212.043 556.56 212.043 550.786 Q212.043 544.993 210.557 542.115 Q209.09 539.219 206.138 539.219 M206.138 536.21 Q210.858 536.21 213.341 539.952 Q215.842 543.676 215.842 550.786 Q215.842 557.876 213.341 561.619 Q210.858 565.343 206.138 565.343 Q201.417 565.343 198.915 561.619 Q196.433 557.876 196.433 550.786 Q196.433 543.676 198.915 539.952 Q201.417 536.21 206.138 536.21 Z" fill="#000000" fill-rule="nonzero" fill-opacity="1" /><path clip-path="url(#clip210)" d="M45.7664 817.313 Q39.4007 817.313 35.8996 819.955 Q32.3984 822.565 32.3984 827.307 Q32.3984 832.018 35.8996 834.66 Q39.4007 837.27 45.7664 837.27 Q52.1003 837.27 55.6014 834.66 Q59.1026 832.018 59.1026 827.307 Q59.1026 822.565 55.6014 819.955 Q52.1003 817.313 45.7664 817.313 M59.58 811.457 Q68.683 811.457 73.1071 815.499 Q77.5631 819.541 77.5631 827.88 Q77.5631 830.967 77.0857 833.705 Q76.6401 836.442 75.6852 839.02 L69.9879 839.02 Q71.3884 836.442 72.0568 833.928 Q72.7252 831.413 72.7252 828.803 Q72.7252 823.042 69.7015 820.178 Q66.7096 817.313 60.6303 817.313 L57.7339 817.313 Q60.885 819.127 62.4446 821.96 Q64.0042 824.793 64.0042 828.739 Q64.0042 835.296 59.0071 839.307 Q54.01 843.317 45.7664 843.317 Q37.491 843.317 32.4939 839.307 Q27.4968 835.296 27.4968 828.739 Q27.4968 824.793 29.0564 821.96 Q30.616 819.127 33.7671 817.313 L28.3562 817.313 L28.3562 811.457 L59.58 811.457 Z" fill="#000000" fill-rule="nonzero" fill-opacity="1" /><path clip-path="url(#clip210)" d="M33.8307 778.737 Q33.2578 779.724 33.0032 780.901 Q32.7167 782.047 32.7167 783.447 Q32.7167 788.413 35.9632 791.086 Q39.1779 793.728 45.2253 793.728 L64.0042 793.728 L64.0042 799.616 L28.3562 799.616 L28.3562 793.728 L33.8944 793.728 Q30.6479 791.882 29.0883 788.922 Q27.4968 785.962 27.4968 781.729 Q27.4968 781.124 27.5923 780.392 Q27.656 779.66 27.8151 778.769 L33.8307 778.737 Z" fill="#000000" fill-rule="nonzero" fill-opacity="1" /><path clip-path="url(#clip210)" d="M46.0847 756.393 Q46.0847 763.491 47.7079 766.228 Q49.3312 768.965 53.2461 768.965 Q56.3653 768.965 58.2114 766.928 Q60.0256 764.86 60.0256 761.327 Q60.0256 756.457 56.5881 753.529 Q53.1188 750.569 47.3897 750.569 L46.0847 750.569 L46.0847 756.393 M43.6657 744.712 L64.0042 744.712 L64.0042 750.569 L58.5933 750.569 Q61.8398 752.574 63.3994 755.566 Q64.9272 758.558 64.9272 762.886 Q64.9272 768.361 61.8716 771.607 Q58.7843 774.822 53.6281 774.822 Q47.6125 774.822 44.5569 770.812 Q41.5014 766.769 41.5014 758.78 L41.5014 750.569 L40.9285 750.569 Q36.8862 750.569 34.6901 753.242 Q32.4621 755.884 32.4621 760.69 Q32.4621 763.746 33.1941 766.642 Q33.9262 769.538 35.3903 772.212 L29.9795 772.212 Q28.7381 768.997 28.1334 765.974 Q27.4968 762.95 27.4968 760.085 Q27.4968 752.351 31.5072 748.532 Q35.5176 744.712 43.6657 744.712 Z" fill="#000000" fill-rule="nonzero" fill-opacity="1" /><path clip-path="url(#clip210)" d="M33.7671 709.191 L14.479 709.191 L14.479 703.335 L64.0042 703.335 L64.0042 709.191 L58.657 709.191 Q61.8398 711.038 63.3994 713.87 Q64.9272 716.671 64.9272 720.618 Q64.9272 727.079 59.771 731.153 Q54.6147 735.195 46.212 735.195 Q37.8093 735.195 32.6531 731.153 Q27.4968 727.079 27.4968 720.618 Q27.4968 716.671 29.0564 713.87 Q30.5842 711.038 33.7671 709.191 M46.212 729.148 Q52.6732 729.148 56.3653 726.506 Q60.0256 723.833 60.0256 719.186 Q60.0256 714.539 56.3653 711.865 Q52.6732 709.191 46.212 709.191 Q39.7508 709.191 36.0905 711.865 Q32.3984 714.539 32.3984 719.186 Q32.3984 723.833 36.0905 726.506 Q39.7508 729.148 46.212 729.148 Z" fill="#000000" fill-rule="nonzero" fill-opacity="1" /><path clip-path="url(#clip210)" d="M934.396 65.7705 L934.396 89.8329 L926.902 89.8329 L926.902 27.2059 L934.396 27.2059 L934.396 34.0924 Q936.746 30.0415 940.31 28.0971 Q943.916 26.1121 948.898 26.1121 Q957.162 26.1121 962.307 32.6746 Q967.492 39.2371 967.492 49.9314 Q967.492 60.6258 962.307 67.1883 Q957.162 73.7508 948.898 73.7508 Q943.916 73.7508 940.31 71.8063 Q936.746 69.8214 934.396 65.7705 M959.755 49.9314 Q959.755 41.7081 956.352 37.0496 Q952.99 32.3505 947.075 32.3505 Q941.161 32.3505 937.758 37.0496 Q934.396 41.7081 934.396 49.9314 Q934.396 58.1548 937.758 62.8538 Q941.161 67.5124 947.075 67.5124 Q952.99 67.5124 956.352 62.8538 Q959.755 58.1548 959.755 49.9314 Z" fill="#000000" fill-rule="nonzero" fill-opacity="1" /><path clip-path="url(#clip210)" d="M1006.14 34.1734 Q1004.88 33.4443 1003.38 33.1202 Q1001.92 32.7556 1000.14 32.7556 Q993.823 32.7556 990.42 36.8875 Q987.058 40.9789 987.058 48.6757 L987.058 72.576 L979.564 72.576 L979.564 27.2059 L987.058 27.2059 L987.058 34.2544 Q989.407 30.1225 993.175 28.1376 Q996.942 26.1121 1002.33 26.1121 Q1003.1 26.1121 1004.03 26.2337 Q1004.96 26.3147 1006.1 26.5172 L1006.14 34.1734 Z" fill="#000000" fill-rule="nonzero" fill-opacity="1" /><path clip-path="url(#clip210)" d="M1029.71 32.4315 Q1023.72 32.4315 1020.23 37.1306 Q1016.75 41.7891 1016.75 49.9314 Q1016.75 58.0738 1020.19 62.7728 Q1023.68 67.4314 1029.71 67.4314 Q1035.67 67.4314 1039.15 62.7323 Q1042.64 58.0333 1042.64 49.9314 Q1042.64 41.8701 1039.15 37.1711 Q1035.67 32.4315 1029.71 32.4315 M1029.71 26.1121 Q1039.44 26.1121 1044.99 32.4315 Q1050.54 38.7509 1050.54 49.9314 Q1050.54 61.0714 1044.99 67.4314 Q1039.44 73.7508 1029.71 73.7508 Q1019.95 73.7508 1014.4 67.4314 Q1008.89 61.0714 1008.89 49.9314 Q1008.89 38.7509 1014.4 32.4315 Q1019.95 26.1121 1029.71 26.1121 Z" fill="#000000" fill-rule="nonzero" fill-opacity="1" /><path clip-path="url(#clip210)" d="M1095.46 49.9314 Q1095.46 41.7081 1092.06 37.0496 Q1088.69 32.3505 1082.78 32.3505 Q1076.87 32.3505 1073.46 37.0496 Q1070.1 41.7081 1070.1 49.9314 Q1070.1 58.1548 1073.46 62.8538 Q1076.87 67.5124 1082.78 67.5124 Q1088.69 67.5124 1092.06 62.8538 Q1095.46 58.1548 1095.46 49.9314 M1070.1 34.0924 Q1072.45 30.0415 1076.02 28.0971 Q1079.62 26.1121 1084.6 26.1121 Q1092.87 26.1121 1098.01 32.6746 Q1103.2 39.2371 1103.2 49.9314 Q1103.2 60.6258 1098.01 67.1883 Q1092.87 73.7508 1084.6 73.7508 Q1079.62 73.7508 1076.02 71.8063 Q1072.45 69.8214 1070.1 65.7705 L1070.1 72.576 L1062.61 72.576 L1062.61 9.54393 L1070.1 9.54393 L1070.1 34.0924 Z" fill="#000000" fill-rule="nonzero" fill-opacity="1" /><path clip-path="url(#clip210)" d="M1115.55 9.54393 L1123.01 9.54393 L1123.01 72.576 L1115.55 72.576 L1115.55 9.54393 Z" fill="#000000" fill-rule="nonzero" fill-opacity="1" /><path clip-path="url(#clip210)" d="M1177.41 48.0275 L1177.41 51.6733 L1143.14 51.6733 Q1143.63 59.3701 1147.76 63.421 Q1151.93 67.4314 1159.34 67.4314 Q1163.64 67.4314 1167.65 66.3781 Q1171.7 65.3249 1175.67 63.2184 L1175.67 70.267 Q1171.66 71.9684 1167.44 72.8596 Q1163.23 73.7508 1158.9 73.7508 Q1148.04 73.7508 1141.68 67.4314 Q1135.36 61.1119 1135.36 50.3365 Q1135.36 39.1965 1141.36 32.6746 Q1147.39 26.1121 1157.6 26.1121 Q1166.76 26.1121 1172.06 32.0264 Q1177.41 37.9003 1177.41 48.0275 M1169.96 45.84 Q1169.88 39.7232 1166.51 36.0774 Q1163.19 32.4315 1157.68 32.4315 Q1151.44 32.4315 1147.68 35.9558 Q1143.95 39.4801 1143.38 45.8805 L1169.96 45.84 M1151.28 6.22219 L1162.7 21.3726 L1156.51 21.3726 L1143.3 6.22219 L1151.28 6.22219 Z" fill="#000000" fill-rule="nonzero" fill-opacity="1" /><path clip-path="url(#clip210)" d="M1224.97 35.9153 Q1227.76 30.8922 1231.65 28.5022 Q1235.54 26.1121 1240.81 26.1121 Q1247.9 26.1121 1251.74 31.0947 Q1255.59 36.0368 1255.59 45.1919 L1255.59 72.576 L1248.1 72.576 L1248.1 45.4349 Q1248.1 38.913 1245.79 35.7533 Q1243.48 32.5936 1238.74 32.5936 Q1232.95 32.5936 1229.59 36.4419 Q1226.22 40.2903 1226.22 46.9338 L1226.22 72.576 L1218.73 72.576 L1218.73 45.4349 Q1218.73 38.8725 1216.42 35.7533 Q1214.11 32.5936 1209.29 32.5936 Q1203.58 32.5936 1200.22 36.4824 Q1196.85 40.3308 1196.85 46.9338 L1196.85 72.576 L1189.36 72.576 L1189.36 27.2059 L1196.85 27.2059 L1196.85 34.2544 Q1199.41 30.082 1202.97 28.0971 Q1206.54 26.1121 1211.44 26.1121 Q1216.38 26.1121 1219.82 28.6237 Q1223.31 31.1352 1224.97 35.9153 Z" fill="#000000" fill-rule="nonzero" fill-opacity="1" /><path clip-path="url(#clip210)" d="M1309.27 48.0275 L1309.27 51.6733 L1275 51.6733 Q1275.48 59.3701 1279.61 63.421 Q1283.79 67.4314 1291.2 67.4314 Q1295.49 67.4314 1299.5 66.3781 Q1303.55 65.3249 1307.52 63.2184 L1307.52 70.267 Q1303.51 71.9684 1299.3 72.8596 Q1295.09 73.7508 1290.75 73.7508 Q1279.9 73.7508 1273.54 67.4314 Q1267.22 61.1119 1267.22 50.3365 Q1267.22 39.1965 1273.21 32.6746 Q1279.25 26.1121 1289.46 26.1121 Q1298.61 26.1121 1303.92 32.0264 Q1309.27 37.9003 1309.27 48.0275 M1301.81 45.84 Q1301.73 39.7232 1298.37 36.0774 Q1295.05 32.4315 1289.54 32.4315 Q1283.3 32.4315 1279.53 35.9558 Q1275.81 39.4801 1275.24 45.8805 L1301.81 45.84 Z" fill="#000000" fill-rule="nonzero" fill-opacity="1" /><path clip-path="url(#clip210)" d="M1349.78 62.2867 L1358.32 62.2867 L1358.32 72.576 L1349.78 72.576 L1349.78 62.2867 M1349.78 29.6769 L1358.32 29.6769 L1358.32 39.9662 L1349.78 39.9662 L1349.78 29.6769 Z" fill="#000000" fill-rule="nonzero" fill-opacity="1" /><path clip-path="url(#clip210)" d="M1437.52 35.9153 Q1440.31 30.8922 1444.2 28.5022 Q1448.09 26.1121 1453.36 26.1121 Q1460.45 26.1121 1464.29 31.0947 Q1468.14 36.0368 1468.14 45.1919 L1468.14 72.576 L1460.65 72.576 L1460.65 45.4349 Q1460.65 38.913 1458.34 35.7533 Q1456.03 32.5936 1451.29 32.5936 Q1445.5 32.5936 1442.14 36.4419 Q1438.77 40.2903 1438.77 46.9338 L1438.77 72.576 L1431.28 72.576 L1431.28 45.4349 Q1431.28 38.8725 1428.97 35.7533 Q1426.66 32.5936 1421.84 32.5936 Q1416.13 32.5936 1412.77 36.4824 Q1409.41 40.3308 1409.41 46.9338 L1409.41 72.576 L1401.91 72.576 L1401.91 27.2059 L1409.41 27.2059 L1409.41 34.2544 Q1411.96 30.082 1415.52 28.0971 Q1419.09 26.1121 1423.99 26.1121 Q1428.93 26.1121 1432.37 28.6237 Q1435.86 31.1352 1437.52 35.9153 Z" fill="#000000" fill-rule="nonzero" fill-opacity="1" /><path clip-path="url(#clip210)" d="M1512.87 49.3643 Q1512.87 41.2625 1509.5 36.8065 Q1506.18 32.3505 1500.15 32.3505 Q1494.15 32.3505 1490.79 36.8065 Q1487.47 41.2625 1487.47 49.3643 Q1487.47 57.4256 1490.79 61.8816 Q1494.15 66.3376 1500.15 66.3376 Q1506.18 66.3376 1509.5 61.8816 Q1512.87 57.4256 1512.87 49.3643 M1520.32 66.9452 Q1520.32 78.5308 1515.17 84.1616 Q1510.03 89.8329 1499.42 89.8329 Q1495.49 89.8329 1492 89.2252 Q1488.52 88.6581 1485.24 87.4428 L1485.24 80.1917 Q1488.52 81.9741 1491.72 82.8248 Q1494.92 83.6755 1498.24 83.6755 Q1505.57 83.6755 1509.22 79.8271 Q1512.87 76.0193 1512.87 68.282 L1512.87 64.5957 Q1510.56 68.6061 1506.95 70.5911 Q1503.35 72.576 1498.32 72.576 Q1489.98 72.576 1484.87 66.2161 Q1479.77 59.8562 1479.77 49.3643 Q1479.77 38.832 1484.87 32.472 Q1489.98 26.1121 1498.32 26.1121 Q1503.35 26.1121 1506.95 28.0971 Q1510.56 30.082 1512.87 34.0924 L1512.87 27.2059 L1520.32 27.2059 L1520.32 66.9452 Z" fill="#000000" fill-rule="nonzero" fill-opacity="1" /><path clip-path="url(#clip210)" d="M1573.39 45.1919 L1573.39 72.576 L1565.93 72.576 L1565.93 45.4349 Q1565.93 38.994 1563.42 35.7938 Q1560.91 32.5936 1555.89 32.5936 Q1549.85 32.5936 1546.37 36.4419 Q1542.88 40.2903 1542.88 46.9338 L1542.88 72.576 L1535.39 72.576 L1535.39 9.54393 L1542.88 9.54393 L1542.88 34.2544 Q1545.56 30.163 1549.16 28.1376 Q1552.81 26.1121 1557.55 26.1121 Q1565.36 26.1121 1569.38 30.9732 Q1573.39 35.7938 1573.39 45.1919 Z" fill="#000000" fill-rule="nonzero" fill-opacity="1" /><path clip-path="url(#clip210)" d="M1596.35 65.6895 L1624.91 65.6895 L1624.91 72.576 L1586.51 72.576 L1586.51 65.6895 Q1591.17 60.8689 1599.19 52.7671 Q1607.25 44.6248 1609.32 42.2752 Q1613.25 37.8598 1614.79 34.8216 Q1616.37 31.7429 1616.37 28.7857 Q1616.37 23.9651 1612.96 20.927 Q1609.6 17.8888 1604.17 17.8888 Q1600.32 17.8888 1596.03 19.2256 Q1591.78 20.5624 1586.92 23.2765 L1586.92 15.0127 Q1591.86 13.0277 1596.15 12.015 Q1600.45 11.0023 1604.01 11.0023 Q1613.41 11.0023 1619 15.7013 Q1624.59 20.4004 1624.59 28.2591 Q1624.59 31.9859 1623.17 35.3482 Q1621.79 38.6699 1618.11 43.2069 Q1617.09 44.3817 1611.67 50.0125 Q1606.24 55.6027 1596.35 65.6895 Z" fill="#000000" fill-rule="nonzero" fill-opacity="1" /><path clip-path="url(#clip210)" d="M1649.14 65.6895 L1677.7 65.6895 L1677.7 72.576 L1639.29 72.576 L1639.29 65.6895 Q1643.95 60.8689 1651.97 52.7671 Q1660.03 44.6248 1662.1 42.2752 Q1666.03 37.8598 1667.57 34.8216 Q1669.15 31.7429 1669.15 28.7857 Q1669.15 23.9651 1665.75 20.927 Q1662.38 17.8888 1656.96 17.8888 Q1653.11 17.8888 1648.81 19.2256 Q1644.56 20.5624 1639.7 23.2765 L1639.7 15.0127 Q1644.64 13.0277 1648.94 12.015 Q1653.23 11.0023 1656.79 11.0023 Q1666.19 11.0023 1671.78 15.7013 Q1677.37 20.4004 1677.37 28.2591 Q1677.37 31.9859 1675.95 35.3482 Q1674.58 38.6699 1670.89 43.2069 Q1669.88 44.3817 1664.45 50.0125 Q1659.02 55.6027 1649.14 65.6895 Z" fill="#000000" fill-rule="nonzero" fill-opacity="1" /><polyline clip-path="url(#clip212)" style="stroke:#009af9; stroke-linecap:round; stroke-linejoin:round; stroke-width:4; stroke-opacity:1; fill:none" points="311.302,160.256 313.284,294.467 315.266,430.078 317.248,564.4 319.23,694.308 321.212,813.284 323.194,813.284 325.176,813.284 327.158,813.284 329.14,813.284 331.122,813.284 333.104,947.01 335.086,947.01 337.068,947.01 339.05,974.342 341.032,995.455 343.014,1026.86 344.996,1026.86 346.978,1033.03 348.96,1044.2 350.942,1063.36 352.924,1063.36 354.906,1067.21 356.888,1074.5 358.87,1087.78 360.852,1110.65 362.834,1110.65 364.816,1115.43 366.798,1124.46 368.78,1140.98 370.762,1140.98 372.744,1144.44 374.726,1151.11 376.708,1163.67 378.69,1163.67 380.672,1166.29 382.654,1171.4 384.636,1181.18 386.618,1181.18 388.6,1183.21 390.582,1187.19 392.564,1194.88 394.546,1209.36 396.528,1209.36 398.51,1212.43 400.492,1218.39 402.474,1229.75 404.456,1229.75 406.438,1232.13 408.42,1236.78 410.402,1245.71 412.384,1245.71 414.366,1247.56 416.348,1251.19 418.33,1258.2 420.312,1271.24 422.294,1271.24 424.276,1273.96 426.258,1279.2 428.24,1288.95 430.222,1288.95 432.204,1290.94 434.186,1294.77 436.168,1301.88 438.15,1301.88 440.132,1303.3 442.114,1306.05 444.096,1311.14 446.078,1319.8 448.06,1319.8 450.042,1321.46 452.024,1324.5 454.006,1329.61 455.988,1329.61 457.97,1330.56 459.952,1332.31 461.934,1335.26 463.916,1335.26 465.898,1335.81 467.88,1336.82 469.862,1338.55 471.844,1341.09 473.826,1341.09 475.808,1341.53 477.79,1342.28 479.772,1343.42 481.754,1343.42 483.736,1343.62 485.718,1343.96 487.7,1344.52 489.682,1344.52 491.664,1344.62 493.646,1344.79 495.628,1345.09 497.61,1345.09 499.592,1345.14 501.574,1345.24 503.556,1345.41 505.538,1345.66 507.52,1345.66 509.502,1345.7 511.484,1345.77 513.466,1345.89 515.448,1345.89 517.43,1345.91 519.412,1345.94 521.394,1346.01 523.376,1346.01 525.358,1346.02 527.34,1346.04 529.322,1346.07 531.304,1346.12 533.286,1346.12 535.267,1346.13 537.249,1346.15 539.231,1346.18 541.213,1346.18 543.195,1346.18 545.177,1346.19 547.159,1346.2 549.141,1346.2 551.123,1346.2 553.105,1346.21 555.087,1346.22 557.069,1346.23 559.051,1346.23 561.033,1346.24 563.015,1346.24 564.997,1346.25 566.979,1346.25 568.961,1346.25 570.943,1346.26 572.925,1346.26 574.907,1346.26 576.889,1346.26 578.871,1346.27 580.853,1346.27 582.835,1346.28 584.817,1346.28 586.799,1346.28 588.781,1346.29 590.763,1346.29 592.745,1346.29 594.727,1346.3 596.709,1346.3 598.691,1346.3 600.673,1346.3 602.655,1346.3 604.637,1346.31 606.619,1346.31 608.601,1346.32 610.583,1346.32 612.565,1346.32 614.547,1346.33 616.529,1346.34 618.511,1346.34 620.493,1346.34 622.475,1346.34 624.457,1346.35 626.439,1346.35 628.421,1346.35 630.403,1346.35 632.385,1346.36 634.367,1346.37 636.349,1346.37 638.331,1346.37 640.313,1346.37 642.295,1346.38 644.277,1346.38 646.259,1346.38 648.241,1346.39 650.223,1346.39 652.205,1346.39 654.187,1346.4 656.169,1346.4 658.151,1346.41 660.133,1346.42 662.115,1346.42 664.097,1346.42 666.079,1346.43 668.061,1346.44 670.043,1346.44 672.025,1346.44 674.007,1346.44 675.989,1346.45 677.971,1346.45 679.953,1346.45 681.935,1346.46 683.917,1346.46 685.899,1346.48 687.881,1346.48 689.863,1346.48 691.845,1346.48 693.827,1346.5 695.809,1346.5 697.791,1346.5 699.773,1346.5 701.755,1346.51 703.737,1346.51 705.719,1346.51 707.701,1346.52 709.683,1346.53 711.665,1346.54 713.647,1346.54 715.629,1346.54 717.611,1346.55 719.593,1346.56 721.575,1346.56 723.557,1346.57 725.539,1346.57 727.521,1346.58 729.503,1346.58 731.485,1346.58 733.467,1346.59 735.449,1346.6 737.431,1346.61 739.413,1346.61 741.395,1346.62 743.377,1346.63 745.359,1346.64 747.341,1346.64 749.323,1346.64 751.305,1346.65 753.287,1346.66 755.269,1346.66 757.251,1346.66 759.233,1346.67 761.215,1346.68 763.197,1346.68 765.179,1346.68 767.161,1346.68 769.143,1346.69 771.125,1346.71 773.107,1346.71 775.089,1346.71 777.071,1346.72 779.053,1346.73 781.035,1346.73 783.017,1346.73 784.999,1346.74 786.981,1346.75 788.963,1346.75 790.945,1346.75 792.927,1346.75 794.909,1346.76 796.891,1346.78 798.873,1346.78 800.855,1346.78 802.837,1346.79 804.819,1346.8 806.801,1346.8 808.783,1346.8 810.765,1346.81 812.747,1346.82 814.729,1346.82 816.711,1346.82 818.693,1346.83 820.675,1346.84 822.657,1346.86 824.639,1346.86 826.621,1346.86 828.603,1346.87 830.585,1346.88 832.567,1346.88 834.549,1346.88 836.531,1346.89 838.513,1346.9 840.495,1346.9 842.477,1346.91 844.459,1346.91 846.441,1346.92 848.423,1346.94 850.405,1346.94 852.387,1346.94 854.369,1346.95 856.351,1346.97 858.333,1346.97 860.314,1346.97 862.296,1346.98 864.278,1346.99 866.26,1346.99 868.242,1346.99 870.224,1347 872.206,1347.01 874.188,1347.03 876.17,1347.03 878.152,1347.04 880.134,1347.04 882.116,1347.06 884.098,1347.06 886.08,1347.07 888.062,1347.07 890.044,1347.09 892.026,1347.09 894.008,1347.09 895.99,1347.1 897.972,1347.11 899.954,1347.13 901.936,1347.13 903.918,1347.13 905.9,1347.14 907.882,1347.16 909.864,1347.16 911.846,1347.17 913.828,1347.17 915.81,1347.19 917.792,1347.19 919.774,1347.19 921.756,1347.2 923.738,1347.21 925.72,1347.24 927.702,1347.24 929.684,1347.24 931.666,1347.25 933.648,1347.27 935.63,1347.27 937.612,1347.28 939.594,1347.28 941.576,1347.3 943.558,1347.3 945.54,1347.3 947.522,1347.31 949.504,1347.32 951.486,1347.35 953.468,1347.35 955.45,1347.36 957.432,1347.37 959.414,1347.39 961.396,1347.39 963.378,1347.39 965.36,1347.4 967.342,1347.42 969.324,1347.42 971.306,1347.42 973.288,1347.43 975.27,1347.44 977.252,1347.47 979.234,1347.47 981.216,1347.48 983.198,1347.49 985.18,1347.51 987.162,1347.51 989.144,1347.52 991.126,1347.53 993.108,1347.55 995.09,1347.55 997.072,1347.55 999.054,1347.56 1001.04,1347.57 1003.02,1347.57 1005,1347.58 1006.98,1347.58 1008.96,1347.59 1010.95,1347.62 1012.93,1347.62 1014.91,1347.62 1016.89,1347.63 1018.87,1347.65 1020.86,1347.65 1022.84,1347.66 1024.82,1347.67 1026.8,1347.68 1028.78,1347.68 1030.77,1347.69 1032.75,1347.69 1034.73,1347.71 1036.71,1347.73 1038.69,1347.73 1040.68,1347.74 1042.66,1347.75 1044.64,1347.77 1046.62,1347.77 1048.6,1347.77 1050.59,1347.78 1052.57,1347.8 1054.55,1347.8 1056.53,1347.8 1058.51,1347.81 1060.5,1347.82 1062.48,1347.85 1064.46,1347.85 1066.44,1347.86 1068.42,1347.87 1070.41,1347.89 1072.39,1347.89 1074.37,1347.89 1076.35,1347.9 1078.33,1347.92 1080.32,1347.92 1082.3,1347.93 1084.28,1347.93 1086.26,1347.95 1088.24,1347.98 1090.23,1347.98 1092.21,1347.98 1094.19,1348 1096.17,1348.02 1098.15,1348.02 1100.14,1348.02 1102.12,1348.03 1104.1,1348.05 1106.08,1348.05 1108.06,1348.06 1110.05,1348.06 1112.03,1348.08 1114.01,1348.11 1115.99,1348.11 1117.97,1348.12 1119.96,1348.13 1121.94,1348.16 1123.92,1348.16 1125.9,1348.16 1127.88,1348.17 1129.87,1348.19 1131.85,1348.19 1133.83,1348.19 1135.81,1348.2 1137.79,1348.22 1139.78,1348.25 1141.76,1348.25 1143.74,1348.26 1145.72,1348.27 1147.7,1348.3 1149.69,1348.3 1151.67,1348.3 1153.65,1348.32 1155.63,1348.34 1157.61,1348.34 1159.6,1348.34 1161.58,1348.35 1163.56,1348.37 1165.54,1348.4 1167.52,1348.4 1169.51,1348.41 1171.49,1348.42 1173.47,1348.45 1175.45,1348.45 1177.43,1348.46 1179.42,1348.47 1181.4,1348.49 1183.38,1348.49 1185.36,1348.5 1187.34,1348.51 1189.33,1348.52 1191.31,1348.56 1193.29,1348.56 1195.27,1348.57 1197.25,1348.58 1199.24,1348.61 1201.22,1348.61 1203.2,1348.62 1205.18,1348.63 1207.16,1348.65 1209.15,1348.65 1211.13,1348.66 1213.11,1348.67 1215.09,1348.69 1217.07,1348.73 1219.06,1348.73 1221.04,1348.74 1223.02,1348.75 1225,1348.78 1226.98,1348.78 1228.97,1348.79 1230.95,1348.8 1232.93,1348.83 1234.91,1348.83 1236.89,1348.83 1238.88,1348.84 1240.86,1348.86 1242.84,1348.86 1244.82,1348.87 1246.8,1348.88 1248.79,1348.89 1250.77,1348.92 1252.75,1348.92 1254.73,1348.93 1256.71,1348.94 1258.7,1348.97 1260.68,1348.97 1262.66,1348.98 1264.64,1348.99 1266.62,1349.01 1268.61,1349.01 1270.59,1349.01 1272.57,1349.02 1274.55,1349.04 1276.53,1349.07 1278.52,1349.07 1280.5,1349.08 1282.48,1349.09 1284.46,1349.12 1286.44,1349.12 1288.43,1349.13 1290.41,1349.14 1292.39,1349.16 1294.37,1349.16 1296.35,1349.17 1298.34,1349.18 1300.32,1349.19 1302.3,1349.23 1304.28,1349.23 1306.26,1349.24 1308.25,1349.25 1310.23,1349.28 1312.21,1349.28 1314.19,1349.29 1316.17,1349.3 1318.16,1349.32 1320.14,1349.32 1322.12,1349.33 1324.1,1349.34 1326.08,1349.36 1328.07,1349.39 1330.05,1349.39 1332.03,1349.4 1334.01,1349.42 1335.99,1349.45 1337.98,1349.45 1339.96,1349.45 1341.94,1349.47 1343.92,1349.49 1345.9,1349.49 1347.88,1349.5 1349.87,1349.51 1351.85,1349.53 1353.83,1349.57 1355.81,1349.57 1357.79,1349.57 1359.78,1349.59 1361.76,1349.62 1363.74,1349.62 1365.72,1349.63 1367.7,1349.64 1369.69,1349.67 1371.67,1349.67 1373.65,1349.67 1375.63,1349.68 1377.61,1349.7 1379.6,1349.75 1381.58,1349.75 1383.56,1349.75 1385.54,1349.77 1387.52,1349.81 1389.51,1349.81 1391.49,1349.81 1393.47,1349.83 1395.45,1349.85 1397.43,1349.85 1399.42,1349.86 1401.4,1349.87 1403.38,1349.89 1405.36,1349.94 1407.34,1349.94 1409.33,1349.94 1411.31,1349.96 1413.29,1350 1415.27,1350 1417.25,1350 1419.24,1350.02 1421.22,1350.05 1423.2,1350.05 1425.18,1350.05 1427.16,1350.06 1429.15,1350.09 1431.13,1350.13 1433.11,1350.13 1435.09,1350.14 1437.07,1350.16 1439.06,1350.2 1441.04,1350.2 1443.02,1350.21 1445,1350.22 1446.98,1350.25 1448.97,1350.25 1450.95,1350.26 1452.93,1350.27 1454.91,1350.29 1456.89,1350.34 1458.88,1350.34 1460.86,1350.35 1462.84,1350.37 1464.82,1350.41 1466.8,1350.41 1468.79,1350.42 1470.77,1350.43 1472.75,1350.46 1474.73,1350.46 1476.71,1350.47 1478.7,1350.48 1480.68,1350.51 1482.66,1350.56 1484.64,1350.56 1486.62,1350.57 1488.61,1350.59 1490.59,1350.63 1492.57,1350.63 1494.55,1350.64 1496.53,1350.65 1498.52,1350.68 1500.5,1350.68 1502.48,1350.69 1504.46,1350.7 1506.44,1350.73 1508.43,1350.73 1510.41,1350.74 1512.39,1350.75 1514.37,1350.77 1516.35,1350.81 1518.34,1350.81 1520.32,1350.82 1522.3,1350.84 1524.28,1350.87 1526.26,1350.87 1528.25,1350.88 1530.23,1350.89 1532.21,1350.92 1534.19,1350.92 1536.17,1350.92 1538.16,1350.93 1540.14,1350.96 1542.12,1351 1544.1,1351 1546.08,1351.01 1548.07,1351.03 1550.05,1351.06 1552.03,1351.06 1554.01,1351.07 1555.99,1351.08 1557.98,1351.11 1559.96,1351.11 1561.94,1351.12 1563.92,1351.13 1565.9,1351.15 1567.89,1351.2 1569.87,1351.2 1571.85,1351.21 1573.83,1351.23 1575.81,1351.26 1577.8,1351.26 1579.78,1351.27 1581.76,1351.29 1583.74,1351.32 1585.72,1351.32 1587.71,1351.32 1589.69,1351.33 1591.67,1351.36 1593.65,1351.4 1595.63,1351.4 1597.62,1351.41 1599.6,1351.43 1601.58,1351.47 1603.56,1351.47 1605.54,1351.48 1607.53,1351.5 1609.51,1351.53 1611.49,1351.53 1613.47,1351.53 1615.45,1351.55 1617.44,1351.57 1619.42,1351.62 1621.4,1351.62 1623.38,1351.63 1625.36,1351.65 1627.35,1351.69 1629.33,1351.69 1631.31,1351.7 1633.29,1351.71 1635.27,1351.75 1637.26,1351.75 1639.24,1351.75 1641.22,1351.77 1643.2,1351.79 1645.18,1351.84 1647.17,1351.84 1649.15,1351.85 1651.13,1351.88 1653.11,1351.92 1655.09,1351.92 1657.08,1351.93 1659.06,1351.94 1661.04,1351.98 1663.02,1351.98 1665,1351.98 1666.99,1352 1668.97,1352.02 1670.95,1352.08 1672.93,1352.08 1674.91,1352.09 1676.9,1352.11 1678.88,1352.15 1680.86,1352.15 1682.84,1352.16 1684.82,1352.18 1686.81,1352.21 1688.79,1352.21 1690.77,1352.22 1692.75,1352.24 1694.73,1352.26 1696.72,1352.32 1698.7,1352.32 1700.68,1352.33 1702.66,1352.35 1704.64,1352.4 1706.63,1352.4 1708.61,1352.41 1710.59,1352.43 1712.57,1352.46 1714.55,1352.46 1716.54,1352.47 1718.52,1352.48 1720.5,1352.51 1722.48,1352.57 1724.46,1352.57 1726.45,1352.58 1728.43,1352.61 1730.41,1352.66 1732.39,1352.66 1734.37,1352.66 1736.36,1352.68 1738.34,1352.72 1740.32,1352.72 1742.3,1352.73 1744.28,1352.74 1746.27,1352.78 1748.25,1352.78 1750.23,1352.78 1752.21,1352.79 1754.19,1352.82 1756.18,1352.87 1758.16,1352.87 1760.14,1352.88 1762.12,1352.9 1764.1,1352.94 1766.09,1352.94 1768.07,1352.94 1770.05,1352.96 1772.03,1352.99 1774.01,1352.99 1776,1353 1777.98,1353.01 1779.96,1353.04 1781.94,1353.09 1783.92,1353.09 1785.91,1353.1 1787.89,1353.12 1789.87,1353.16 1791.85,1353.16 1793.83,1353.17 1795.82,1353.18 1797.8,1353.22 1799.78,1353.22 1801.76,1353.22 1803.74,1353.24 1805.73,1353.26 1807.71,1353.31 1809.69,1353.31 1811.67,1353.32 1813.65,1353.35 1815.64,1353.39 1817.62,1353.39 1819.6,1353.4 1821.58,1353.41 1823.56,1353.45 1825.55,1353.45 1827.53,1353.45 1829.51,1353.47 1831.49,1353.5 1833.47,1353.55 1835.46,1353.55 1837.44,1353.56 1839.42,1353.58 1841.4,1353.63 1843.38,1353.63 1845.37,1353.64 1847.35,1353.65 1849.33,1353.69 1851.31,1353.69 1853.29,1353.7 1855.28,1353.71 1857.26,1353.74 1859.24,1353.8 1861.22,1353.8 1863.2,1353.81 1865.19,1353.83 1867.17,1353.88 1869.15,1353.88 1871.13,1353.88 1873.11,1353.9 1875.1,1353.94 1877.08,1353.94 1879.06,1353.95 1881.04,1353.96 1883.02,1353.99 1885.01,1354.05 1886.99,1354.05 1888.97,1354.06 1890.95,1354.09 1892.93,1354.13 1894.92,1354.13 1896.9,1354.14 1898.88,1354.16 1900.86,1354.2 1902.84,1354.2 1904.83,1354.21 1906.81,1354.22 1908.79,1354.25 1910.77,1354.31 1912.75,1354.31 1914.74,1354.33 1916.72,1354.35 1918.7,1354.4 1920.68,1354.4 1922.66,1354.41 1924.65,1354.43 1926.63,1354.47 1928.61,1354.47 1930.59,1354.48 1932.57,1354.49 1934.56,1354.52 1936.54,1354.59 1938.52,1354.59 1940.5,1354.6 1942.48,1354.63 1944.47,1354.68 1946.45,1354.68 1948.43,1354.69 1950.41,1354.71 1952.39,1354.75 1954.38,1354.75 1956.36,1354.76 1958.34,1354.77 1960.32,1354.81 1962.3,1354.87 1964.29,1354.87 1966.27,1354.88 1968.25,1354.91 1970.23,1354.96 1972.21,1354.96 1974.2,1354.97 1976.18,1354.99 1978.16,1355.04 1980.14,1355.04 1982.12,1355.05 1984.11,1355.06 1986.09,1355.1 1988.07,1355.17 1990.05,1355.17 1992.03,1355.18 1994.02,1355.21 1996,1355.26 1997.98,1355.26 1999.96,1355.27 2001.94,1355.29 2003.92,1355.34 2005.91,1355.34 2007.89,1355.35 2009.87,1355.36 2011.85,1355.4 2013.83,1355.4 2015.82,1355.41 2017.8,1355.42 2019.78,1355.45 2021.76,1355.51 2023.74,1355.51 2025.73,1355.52 2027.71,1355.54 2029.69,1355.59 2031.67,1355.59 2033.65,1355.59 2035.64,1355.61 2037.62,1355.65 2039.6,1355.65 2041.58,1355.66 2043.56,1355.67 2045.55,1355.7 2047.53,1355.76 2049.51,1355.76 2051.49,1355.77 2053.47,1355.79 2055.46,1355.84 2057.44,1355.84 2059.42,1355.85 2061.4,1355.87 2063.38,1355.91 2065.37,1355.91 2067.35,1355.92 2069.33,1355.93 2071.31,1355.96 2073.29,1356.02 2075.28,1356.02 2077.26,1356.03 2079.24,1356.06 2081.22,1356.11 2083.2,1356.11 2085.19,1356.12 2087.17,1356.14 2089.15,1356.18 2091.13,1356.18 2093.11,1356.18 2095.1,1356.2 2097.08,1356.23 2099.06,1356.29 2101.04,1356.29 2103.02,1356.31 2105.01,1356.33 2106.99,1356.38 2108.97,1356.38 2110.95,1356.39 2112.93,1356.41 2114.92,1356.45 2116.9,1356.45 2118.88,1356.46 2120.86,1356.48 2122.84,1356.51 2124.83,1356.57 2126.81,1356.57 2128.79,1356.59 2130.77,1356.61 2132.75,1356.66 2134.74,1356.66 2136.72,1356.67 2138.7,1356.7 2140.68,1356.74 2142.66,1356.74 2144.65,1356.75 2146.63,1356.76 2148.61,1356.8 2150.59,1356.86 2152.57,1356.86 2154.56,1356.88 2156.54,1356.9 2158.52,1356.96 2160.5,1356.96 2162.48,1356.97 2164.47,1356.99 2166.45,1357.03 2168.43,1357.03 2170.41,1357.04 2172.39,1357.06 2174.38,1357.09 2176.36,1357.16 2178.34,1357.16 2180.32,1357.18 2182.3,1357.2 2184.29,1357.26 2186.27,1357.26 2188.25,1357.27 2190.23,1357.29 2192.21,1357.34 2194.2,1357.34 2196.18,1357.35 2198.16,1357.37 2200.14,1357.4 2202.12,1357.47 2204.11,1357.47 2206.09,1357.49 2208.07,1357.52 2210.05,1357.57 2212.03,1357.57 2214.02,1357.59 2216,1357.61 2217.98,1357.66 2219.96,1357.66 2221.94,1357.66 2223.93,1357.68 2225.91,1357.72 2227.89,1357.79 2229.87,1357.79 2231.85,1357.81 2233.84,1357.84 2235.82,1357.9 2237.8,1357.9 2239.78,1357.91 2241.76,1357.93 2243.75,1357.98 2245.73,1357.98 2247.71,1357.99 2249.69,1358.01 2251.67,1358.05 2253.66,1358.05 2255.64,1358.06 2257.62,1358.07 2259.6,1358.1 2261.58,1358.16 2263.57,1358.16 2265.55,1358.18 2267.53,1358.2 2269.51,1358.25 2271.49,1358.25 2273.48,1358.26 2275.46,1358.28 2277.44,1358.32 2279.42,1358.32 2281.4,1358.33 2283.39,1358.34 2285.37,1358.38 2287.35,1358.44 2289.33,1358.44 2291.31,1358.45 2293.3,1358.48 "/>
<polyline clip-path="url(#clip212)" style="stroke:#e26f46; stroke-linecap:round; stroke-linejoin:round; stroke-width:4; stroke-opacity:1; fill:none" points="311.302,160.256 313.284,295.96 315.266,423.173 317.248,526.485 319.23,652.914 321.212,764.661 323.194,865.26 325.176,975.589 327.158,1223.75 329.14,1097.41 331.122,1376.65 "/>
<polyline clip-path="url(#clip212)" style="stroke:#3da44d; stroke-linecap:round; stroke-linejoin:round; stroke-width:4; stroke-opacity:1; fill:none" points="311.302,160.256 313.284,294.467 315.266,430.078 317.248,564.4 319.23,694.308 321.212,694.308 323.194,694.308 325.176,694.308 327.158,694.308 329.14,694.308 331.122,694.308 333.104,812.896 335.086,812.896 337.068,855.995 339.05,855.995 341.032,862.909 343.014,874.979 344.996,894.293 346.978,921.877 348.96,921.877 350.942,926.992 352.924,936.18 354.906,951.537 356.888,951.537 358.87,954.485 360.852,960.028 362.834,969.959 364.816,969.959 366.798,971.903 368.78,975.639 370.762,982.588 372.744,994.827 374.726,994.827 376.708,997.255 378.69,1001.9 380.672,1001.9 382.654,1002.82 384.636,1004.64 386.618,1008.18 388.6,1014.83 390.582,1014.83 392.564,1016.17 394.546,1018.78 396.528,1023.8 398.51,1033.13 400.492,1033.13 402.474,1035.03 404.456,1038.73 406.438,1038.73 408.42,1039.47 410.402,1040.95 412.384,1043.85 414.366,1049.43 416.348,1049.43 418.33,1050.57 420.312,1052.81 422.294,1057.17 424.276,1065.48 426.258,1065.48 428.24,1067.2 430.222,1070.57 432.204,1070.57 434.186,1071.26 436.168,1072.61 438.15,1075.29 440.132,1080.51 442.114,1080.51 444.096,1081.58 446.078,1083.7 448.06,1087.85 450.042,1095.85 452.024,1095.85 454.006,1097.51 455.988,1100.8 457.97,1100.8 459.952,1101.47 461.934,1102.79 463.916,1105.42 465.898,1110.56 467.88,1110.56 469.862,1111.62 471.844,1113.71 473.826,1117.83 475.808,1125.81 477.79,1125.81 479.772,1127.48 481.754,1130.77 483.736,1130.77 485.718,1131.44 487.7,1132.78 489.682,1135.42 491.664,1140.6 493.646,1140.6 495.628,1141.67 497.61,1143.79 499.592,1147.95 501.574,1156.04 503.556,1156.04 505.538,1157.73 507.52,1161.08 509.502,1161.08 511.484,1161.76 513.466,1163.12 515.448,1165.8 517.43,1171.07 519.412,1171.07 521.394,1172.16 523.376,1174.32 525.358,1178.56 527.34,1186.8 529.322,1186.8 531.304,1188.53 533.286,1191.94 535.267,1191.94 537.249,1192.64 539.231,1194.03 541.213,1196.77 543.195,1202.15 545.177,1202.15 547.159,1203.26 549.141,1205.46 551.123,1209.8 553.105,1218.2 555.087,1218.2 557.069,1219.97 559.051,1223.45 561.033,1223.45 563.015,1224.17 564.997,1225.58 566.979,1228.38 568.961,1233.87 570.943,1233.87 572.925,1235 574.907,1237.25 576.889,1241.67 578.871,1250.23 580.853,1250.23 582.835,1252.03 584.817,1255.58 586.799,1255.58 588.781,1256.3 590.763,1257.74 592.745,1260.59 594.727,1266.17 596.709,1266.17 598.691,1267.32 600.673,1269.6 602.655,1274.08 604.637,1282.74 606.619,1282.74 608.601,1284.56 610.583,1288.14 612.565,1288.14 614.547,1288.87 616.529,1290.32 618.511,1293.19 620.493,1298.78 622.475,1298.78 624.457,1299.94 626.439,1302.22 628.421,1306.69 630.403,1306.69 632.385,1307.61 634.367,1309.43 636.349,1313 638.331,1313 640.313,1313.73 642.295,1315.17 644.277,1318.02 646.259,1323.54 648.241,1323.54 650.223,1324.68 652.205,1326.92 654.187,1331.3 656.169,1331.3 658.151,1332.19 660.133,1333.96 662.115,1337.41 664.097,1337.41 666.079,1338.11 668.061,1339.5 670.043,1342.23 672.025,1347.47 674.007,1347.47 675.989,1348.54 677.971,1350.65 679.953,1354.71 681.935,1354.71 683.917,1355.53 685.899,1357.16 687.881,1360.3 689.863,1360.3 691.845,1360.93 693.827,1362.18 695.809,1364.62 697.791,1369.21 "/>
<polyline clip-path="url(#clip212)" style="stroke:#c271d2; stroke-linecap:round; stroke-linejoin:round; stroke-width:4; stroke-opacity:1; fill:none" points="311.302,160.256 313.284,295.96 315.266,413.884 317.248,524.109 319.23,651.859 321.212,765.714 323.194,867.517 325.176,978.162 327.158,1213.65 329.14,1091.17 331.122,1386.4 "/>
<polyline clip-path="url(#clip212)" style="stroke:#ac8d18; stroke-linecap:round; stroke-linejoin:round; stroke-width:4; stroke-opacity:1; fill:none" points="311.302,160.256 313.284,294.467 315.266,430.078 317.248,564.4 319.23,694.308 321.212,813.284 323.194,917.744 325.176,1013.03 327.158,1104.99 329.14,1196.02 331.122,1286.81 333.104,1377.53 "/>
<path clip-path="url(#clip210)" d="M1749.53 477.836 L2282.73 477.836 L2282.73 166.796 L1749.53 166.796  Z" fill="#ffffff" fill-rule="evenodd" fill-opacity="1"/>
<polyline clip-path="url(#clip210)" style="stroke:#000000; stroke-linecap:round; stroke-linejoin:round; stroke-width:4; stroke-opacity:1; fill:none" points="1749.53,477.836 2282.73,477.836 2282.73,166.796 1749.53,166.796 1749.53,477.836 "/>
<polyline clip-path="url(#clip210)" style="stroke:#009af9; stroke-linecap:round; stroke-linejoin:round; stroke-width:4; stroke-opacity:1; fill:none" points="1772.88,218.636 1912.94,218.636 "/>
<path clip-path="url(#clip210)" d="M1936.28 201.356 L1940.96 201.356 L1940.96 231.981 L1957.79 231.981 L1957.79 235.916 L1936.28 235.916 L1936.28 201.356 Z" fill="#000000" fill-rule="nonzero" fill-opacity="1" /><path clip-path="url(#clip210)" d="M1962.69 201.356 L1969.66 201.356 L1978.48 224.874 L1987.35 201.356 L1994.31 201.356 L1994.31 235.916 L1989.75 235.916 L1989.75 205.569 L1980.84 229.272 L1976.14 229.272 L1967.23 205.569 L1967.23 235.916 L1962.69 235.916 L1962.69 201.356 Z" fill="#000000" fill-rule="nonzero" fill-opacity="1" /><path clip-path="url(#clip210)" d="M2023.11 243.786 L2023.11 247.096 L1998.48 247.096 L1998.48 243.786 L2023.11 243.786 Z" fill="#000000" fill-rule="nonzero" fill-opacity="1" /><path clip-path="url(#clip210)" d="M2048.02 202.49 L2048.02 207.05 Q2045.36 205.777 2042.99 205.152 Q2040.63 204.527 2038.43 204.527 Q2034.61 204.527 2032.53 206.008 Q2030.47 207.49 2030.47 210.221 Q2030.47 212.513 2031.84 213.694 Q2033.23 214.851 2037.07 215.569 L2039.89 216.147 Q2045.12 217.143 2047.6 219.666 Q2050.1 222.166 2050.1 226.379 Q2050.1 231.402 2046.72 233.994 Q2043.36 236.587 2036.86 236.587 Q2034.41 236.587 2031.63 236.031 Q2028.87 235.476 2025.91 234.388 L2025.91 229.573 Q2028.76 231.17 2031.49 231.981 Q2034.22 232.791 2036.86 232.791 Q2040.86 232.791 2043.04 231.217 Q2045.22 229.643 2045.22 226.726 Q2045.22 224.18 2043.64 222.744 Q2042.09 221.309 2038.53 220.592 L2035.68 220.036 Q2030.45 218.995 2028.11 216.772 Q2025.77 214.55 2025.77 210.592 Q2025.77 206.008 2028.99 203.37 Q2032.23 200.731 2037.9 200.731 Q2040.33 200.731 2042.86 201.171 Q2045.38 201.61 2048.02 202.49 Z" fill="#000000" fill-rule="nonzero" fill-opacity="1" /><path clip-path="url(#clip210)" d="M2062.07 205.198 L2062.07 218.184 L2067.95 218.184 Q2071.21 218.184 2072.99 216.495 Q2074.78 214.805 2074.78 211.68 Q2074.78 208.578 2072.99 206.888 Q2071.21 205.198 2067.95 205.198 L2062.07 205.198 M2057.39 201.356 L2067.95 201.356 Q2073.76 201.356 2076.72 203.995 Q2079.71 206.61 2079.71 211.68 Q2079.71 216.795 2076.72 219.411 Q2073.76 222.027 2067.95 222.027 L2062.07 222.027 L2062.07 235.916 L2057.39 235.916 L2057.39 201.356 Z" fill="#000000" fill-rule="nonzero" fill-opacity="1" /><path clip-path="url(#clip210)" d="M2109.54 230.985 L2109.54 221.703 L2101.91 221.703 L2101.91 217.86 L2114.17 217.86 L2114.17 232.698 Q2111.47 234.619 2108.2 235.615 Q2104.94 236.587 2101.23 236.587 Q2093.13 236.587 2088.55 231.865 Q2083.99 227.119 2083.99 218.67 Q2083.99 210.198 2088.55 205.476 Q2093.13 200.731 2101.23 200.731 Q2104.61 200.731 2107.65 201.564 Q2110.7 202.397 2113.27 204.018 L2113.27 208.995 Q2110.68 206.796 2107.76 205.684 Q2104.85 204.573 2101.63 204.573 Q2095.29 204.573 2092.09 208.115 Q2088.92 211.657 2088.92 218.67 Q2088.92 225.661 2092.09 229.203 Q2095.29 232.744 2101.63 232.744 Q2104.11 232.744 2106.05 232.328 Q2107.99 231.888 2109.54 230.985 Z" fill="#000000" fill-rule="nonzero" fill-opacity="1" /><polyline clip-path="url(#clip210)" style="stroke:#e26f46; stroke-linecap:round; stroke-linejoin:round; stroke-width:4; stroke-opacity:1; fill:none" points="1772.88,270.476 1912.94,270.476 "/>
<path clip-path="url(#clip210)" d="M1936.28 253.196 L1940.96 253.196 L1940.96 283.821 L1957.79 283.821 L1957.79 287.756 L1936.28 287.756 L1936.28 253.196 Z" fill="#000000" fill-rule="nonzero" fill-opacity="1" /><path clip-path="url(#clip210)" d="M1962.69 253.196 L1969.66 253.196 L1978.48 276.714 L1987.35 253.196 L1994.31 253.196 L1994.31 287.756 L1989.75 287.756 L1989.75 257.409 L1980.84 281.112 L1976.14 281.112 L1967.23 257.409 L1967.23 287.756 L1962.69 287.756 L1962.69 253.196 Z" fill="#000000" fill-rule="nonzero" fill-opacity="1" /><path clip-path="url(#clip210)" d="M2023.11 295.626 L2023.11 298.936 L1998.48 298.936 L1998.48 295.626 L2023.11 295.626 Z" fill="#000000" fill-rule="nonzero" fill-opacity="1" /><path clip-path="url(#clip210)" d="M2038.85 257.802 L2032.51 275.001 L2045.22 275.001 L2038.85 257.802 M2036.21 253.196 L2041.51 253.196 L2054.68 287.756 L2049.82 287.756 L2046.67 278.89 L2031.1 278.89 L2027.95 287.756 L2023.02 287.756 L2036.21 253.196 Z" fill="#000000" fill-rule="nonzero" fill-opacity="1" /><path clip-path="url(#clip210)" d="M2081.1 272.108 L2081.1 287.756 L2076.84 287.756 L2076.84 272.247 Q2076.84 268.566 2075.4 266.737 Q2073.97 264.909 2071.1 264.909 Q2067.65 264.909 2065.66 267.108 Q2063.67 269.307 2063.67 273.103 L2063.67 287.756 L2059.38 287.756 L2059.38 261.83 L2063.67 261.83 L2063.67 265.858 Q2065.19 263.52 2067.25 262.362 Q2069.34 261.205 2072.05 261.205 Q2076.51 261.205 2078.8 263.983 Q2081.1 266.737 2081.1 272.108 Z" fill="#000000" fill-rule="nonzero" fill-opacity="1" /><path clip-path="url(#clip210)" d="M2106.65 265.765 L2106.65 251.737 L2110.91 251.737 L2110.91 287.756 L2106.65 287.756 L2106.65 283.867 Q2105.31 286.182 2103.25 287.316 Q2101.21 288.427 2098.34 288.427 Q2093.64 288.427 2090.68 284.677 Q2087.74 280.927 2087.74 274.816 Q2087.74 268.705 2090.68 264.955 Q2093.64 261.205 2098.34 261.205 Q2101.21 261.205 2103.25 262.339 Q2105.31 263.45 2106.65 265.765 M2092.14 274.816 Q2092.14 279.515 2094.06 282.2 Q2096 284.862 2099.38 284.862 Q2102.76 284.862 2104.71 282.2 Q2106.65 279.515 2106.65 274.816 Q2106.65 270.117 2104.71 267.455 Q2102.76 264.77 2099.38 264.77 Q2096 264.77 2094.06 267.455 Q2092.14 270.117 2092.14 274.816 Z" fill="#000000" fill-rule="nonzero" fill-opacity="1" /><path clip-path="url(#clip210)" d="M2134.71 265.811 Q2133.99 265.395 2133.13 265.21 Q2132.3 265.001 2131.28 265.001 Q2127.67 265.001 2125.73 267.362 Q2123.8 269.7 2123.8 274.098 L2123.8 287.756 L2119.52 287.756 L2119.52 261.83 L2123.8 261.83 L2123.8 265.858 Q2125.15 263.497 2127.3 262.362 Q2129.45 261.205 2132.53 261.205 Q2132.97 261.205 2133.5 261.274 Q2134.04 261.321 2134.68 261.436 L2134.71 265.811 Z" fill="#000000" fill-rule="nonzero" fill-opacity="1" /><path clip-path="url(#clip210)" d="M2160.31 273.728 L2160.31 275.811 L2140.73 275.811 Q2141 280.209 2143.36 282.524 Q2145.75 284.816 2149.98 284.816 Q2152.44 284.816 2154.73 284.214 Q2157.04 283.612 2159.31 282.409 L2159.31 286.436 Q2157.02 287.408 2154.61 287.918 Q2152.21 288.427 2149.73 288.427 Q2143.53 288.427 2139.89 284.816 Q2136.28 281.205 2136.28 275.047 Q2136.28 268.682 2139.71 264.955 Q2143.16 261.205 2148.99 261.205 Q2154.22 261.205 2157.25 264.585 Q2160.31 267.941 2160.31 273.728 M2156.05 272.478 Q2156 268.983 2154.08 266.899 Q2152.18 264.816 2149.04 264.816 Q2145.47 264.816 2143.32 266.83 Q2141.19 268.844 2140.86 272.501 L2156.05 272.478 Z" fill="#000000" fill-rule="nonzero" fill-opacity="1" /><path clip-path="url(#clip210)" d="M2167.3 261.83 L2171.56 261.83 L2171.56 287.756 L2167.3 287.756 L2167.3 261.83 M2167.3 251.737 L2171.56 251.737 L2171.56 257.131 L2167.3 257.131 L2167.3 251.737 Z" fill="#000000" fill-rule="nonzero" fill-opacity="1" /><path clip-path="url(#clip210)" d="M2200.17 295.626 L2200.17 298.936 L2175.54 298.936 L2175.54 295.626 L2200.17 295.626 Z" fill="#000000" fill-rule="nonzero" fill-opacity="1" /><path clip-path="url(#clip210)" d="M2215.96 274.723 Q2210.79 274.723 2208.8 275.904 Q2206.81 277.084 2206.81 279.932 Q2206.81 282.2 2208.29 283.543 Q2209.8 284.862 2212.37 284.862 Q2215.91 284.862 2218.04 282.362 Q2220.19 279.839 2220.19 275.672 L2220.19 274.723 L2215.96 274.723 M2224.45 272.964 L2224.45 287.756 L2220.19 287.756 L2220.19 283.821 Q2218.73 286.182 2216.56 287.316 Q2214.38 288.427 2211.23 288.427 Q2207.25 288.427 2204.89 286.205 Q2202.55 283.959 2202.55 280.209 Q2202.55 275.834 2205.47 273.612 Q2208.41 271.39 2214.22 271.39 L2220.19 271.39 L2220.19 270.973 Q2220.19 268.034 2218.25 266.436 Q2216.33 264.816 2212.83 264.816 Q2210.61 264.816 2208.5 265.348 Q2206.4 265.881 2204.45 266.946 L2204.45 263.01 Q2206.79 262.108 2208.99 261.668 Q2211.19 261.205 2213.27 261.205 Q2218.9 261.205 2221.67 264.122 Q2224.45 267.038 2224.45 272.964 Z" fill="#000000" fill-rule="nonzero" fill-opacity="1" /><path clip-path="url(#clip210)" d="M2233.22 251.737 L2237.48 251.737 L2237.48 287.756 L2233.22 287.756 L2233.22 251.737 Z" fill="#000000" fill-rule="nonzero" fill-opacity="1" /><path clip-path="url(#clip210)" d="M2250.61 254.469 L2250.61 261.83 L2259.38 261.83 L2259.38 265.14 L2250.61 265.14 L2250.61 279.214 Q2250.61 282.385 2251.47 283.288 Q2252.34 284.191 2255.01 284.191 L2259.38 284.191 L2259.38 287.756 L2255.01 287.756 Q2250.08 287.756 2248.2 285.927 Q2246.33 284.075 2246.33 279.214 L2246.33 265.14 L2243.2 265.14 L2243.2 261.83 L2246.33 261.83 L2246.33 254.469 L2250.61 254.469 Z" fill="#000000" fill-rule="nonzero" fill-opacity="1" /><polyline clip-path="url(#clip210)" style="stroke:#3da44d; stroke-linecap:round; stroke-linejoin:round; stroke-width:4; stroke-opacity:1; fill:none" points="1772.88,322.316 1912.94,322.316 "/>
<path clip-path="url(#clip210)" d="M1936.28 305.036 L1940.96 305.036 L1940.96 335.661 L1957.79 335.661 L1957.79 339.596 L1936.28 339.596 L1936.28 305.036 Z" fill="#000000" fill-rule="nonzero" fill-opacity="1" /><path clip-path="url(#clip210)" d="M1962.69 305.036 L1969.66 305.036 L1978.48 328.554 L1987.35 305.036 L1994.31 305.036 L1994.31 339.596 L1989.75 339.596 L1989.75 309.249 L1980.84 332.952 L1976.14 332.952 L1967.23 309.249 L1967.23 339.596 L1962.69 339.596 L1962.69 305.036 Z" fill="#000000" fill-rule="nonzero" fill-opacity="1" /><path clip-path="url(#clip210)" d="M2023.11 347.466 L2023.11 350.776 L1998.48 350.776 L1998.48 347.466 L2023.11 347.466 Z" fill="#000000" fill-rule="nonzero" fill-opacity="1" /><path clip-path="url(#clip210)" d="M2038.85 309.642 L2032.51 326.841 L2045.22 326.841 L2038.85 309.642 M2036.21 305.036 L2041.51 305.036 L2054.68 339.596 L2049.82 339.596 L2046.67 330.73 L2031.1 330.73 L2027.95 339.596 L2023.02 339.596 L2036.21 305.036 Z" fill="#000000" fill-rule="nonzero" fill-opacity="1" /><path clip-path="url(#clip210)" d="M2081.1 323.948 L2081.1 339.596 L2076.84 339.596 L2076.84 324.087 Q2076.84 320.406 2075.4 318.577 Q2073.97 316.749 2071.1 316.749 Q2067.65 316.749 2065.66 318.948 Q2063.67 321.147 2063.67 324.943 L2063.67 339.596 L2059.38 339.596 L2059.38 313.67 L2063.67 313.67 L2063.67 317.698 Q2065.19 315.36 2067.25 314.202 Q2069.34 313.045 2072.05 313.045 Q2076.51 313.045 2078.8 315.823 Q2081.1 318.577 2081.1 323.948 Z" fill="#000000" fill-rule="nonzero" fill-opacity="1" /><path clip-path="url(#clip210)" d="M2106.65 317.605 L2106.65 303.577 L2110.91 303.577 L2110.91 339.596 L2106.65 339.596 L2106.65 335.707 Q2105.31 338.022 2103.25 339.156 Q2101.21 340.267 2098.34 340.267 Q2093.64 340.267 2090.68 336.517 Q2087.74 332.767 2087.74 326.656 Q2087.74 320.545 2090.68 316.795 Q2093.64 313.045 2098.34 313.045 Q2101.21 313.045 2103.25 314.179 Q2105.31 315.29 2106.65 317.605 M2092.14 326.656 Q2092.14 331.355 2094.06 334.04 Q2096 336.702 2099.38 336.702 Q2102.76 336.702 2104.71 334.04 Q2106.65 331.355 2106.65 326.656 Q2106.65 321.957 2104.71 319.295 Q2102.76 316.61 2099.38 316.61 Q2096 316.61 2094.06 319.295 Q2092.14 321.957 2092.14 326.656 Z" fill="#000000" fill-rule="nonzero" fill-opacity="1" /><path clip-path="url(#clip210)" d="M2134.71 317.651 Q2133.99 317.235 2133.13 317.05 Q2132.3 316.841 2131.28 316.841 Q2127.67 316.841 2125.73 319.202 Q2123.8 321.54 2123.8 325.938 L2123.8 339.596 L2119.52 339.596 L2119.52 313.67 L2123.8 313.67 L2123.8 317.698 Q2125.15 315.337 2127.3 314.202 Q2129.45 313.045 2132.53 313.045 Q2132.97 313.045 2133.5 313.114 Q2134.04 313.161 2134.68 313.276 L2134.71 317.651 Z" fill="#000000" fill-rule="nonzero" fill-opacity="1" /><path clip-path="url(#clip210)" d="M2160.31 325.568 L2160.31 327.651 L2140.73 327.651 Q2141 332.049 2143.36 334.364 Q2145.75 336.656 2149.98 336.656 Q2152.44 336.656 2154.73 336.054 Q2157.04 335.452 2159.31 334.249 L2159.31 338.276 Q2157.02 339.248 2154.61 339.758 Q2152.21 340.267 2149.73 340.267 Q2143.53 340.267 2139.89 336.656 Q2136.28 333.045 2136.28 326.887 Q2136.28 320.522 2139.71 316.795 Q2143.16 313.045 2148.99 313.045 Q2154.22 313.045 2157.25 316.425 Q2160.31 319.781 2160.31 325.568 M2156.05 324.318 Q2156 320.823 2154.08 318.739 Q2152.18 316.656 2149.04 316.656 Q2145.47 316.656 2143.32 318.67 Q2141.19 320.684 2140.86 324.341 L2156.05 324.318 Z" fill="#000000" fill-rule="nonzero" fill-opacity="1" /><path clip-path="url(#clip210)" d="M2167.3 313.67 L2171.56 313.67 L2171.56 339.596 L2167.3 339.596 L2167.3 313.67 M2167.3 303.577 L2171.56 303.577 L2171.56 308.971 L2167.3 308.971 L2167.3 303.577 Z" fill="#000000" fill-rule="nonzero" fill-opacity="1" /><polyline clip-path="url(#clip210)" style="stroke:#c271d2; stroke-linecap:round; stroke-linejoin:round; stroke-width:4; stroke-opacity:1; fill:none" points="1772.88,374.156 1912.94,374.156 "/>
<path clip-path="url(#clip210)" d="M1936.28 356.876 L1940.96 356.876 L1940.96 387.501 L1957.79 387.501 L1957.79 391.436 L1936.28 391.436 L1936.28 356.876 Z" fill="#000000" fill-rule="nonzero" fill-opacity="1" /><path clip-path="url(#clip210)" d="M1962.69 356.876 L1969.66 356.876 L1978.48 380.394 L1987.35 356.876 L1994.31 356.876 L1994.31 391.436 L1989.75 391.436 L1989.75 361.089 L1980.84 384.792 L1976.14 384.792 L1967.23 361.089 L1967.23 391.436 L1962.69 391.436 L1962.69 356.876 Z" fill="#000000" fill-rule="nonzero" fill-opacity="1" /><path clip-path="url(#clip210)" d="M2023.11 399.306 L2023.11 402.616 L1998.48 402.616 L1998.48 399.306 L2023.11 399.306 Z" fill="#000000" fill-rule="nonzero" fill-opacity="1" /><path clip-path="url(#clip210)" d="M2048.02 358.01 L2048.02 362.57 Q2045.36 361.297 2042.99 360.672 Q2040.63 360.047 2038.43 360.047 Q2034.61 360.047 2032.53 361.528 Q2030.47 363.01 2030.47 365.741 Q2030.47 368.033 2031.84 369.214 Q2033.23 370.371 2037.07 371.089 L2039.89 371.667 Q2045.12 372.663 2047.6 375.186 Q2050.1 377.686 2050.1 381.899 Q2050.1 386.922 2046.72 389.514 Q2043.36 392.107 2036.86 392.107 Q2034.41 392.107 2031.63 391.551 Q2028.87 390.996 2025.91 389.908 L2025.91 385.093 Q2028.76 386.69 2031.49 387.501 Q2034.22 388.311 2036.86 388.311 Q2040.86 388.311 2043.04 386.737 Q2045.22 385.163 2045.22 382.246 Q2045.22 379.7 2043.64 378.264 Q2042.09 376.829 2038.53 376.112 L2035.68 375.556 Q2030.45 374.515 2028.11 372.292 Q2025.77 370.07 2025.77 366.112 Q2025.77 361.528 2028.99 358.89 Q2032.23 356.251 2037.9 356.251 Q2040.33 356.251 2042.86 356.691 Q2045.38 357.13 2048.02 358.01 Z" fill="#000000" fill-rule="nonzero" fill-opacity="1" /><path clip-path="url(#clip210)" d="M2062.07 360.718 L2062.07 373.704 L2067.95 373.704 Q2071.21 373.704 2072.99 372.015 Q2074.78 370.325 2074.78 367.2 Q2074.78 364.098 2072.99 362.408 Q2071.21 360.718 2067.95 360.718 L2062.07 360.718 M2057.39 356.876 L2067.95 356.876 Q2073.76 356.876 2076.72 359.515 Q2079.71 362.13 2079.71 367.2 Q2079.71 372.315 2076.72 374.931 Q2073.76 377.547 2067.95 377.547 L2062.07 377.547 L2062.07 391.436 L2057.39 391.436 L2057.39 356.876 Z" fill="#000000" fill-rule="nonzero" fill-opacity="1" /><path clip-path="url(#clip210)" d="M2109.54 386.505 L2109.54 377.223 L2101.91 377.223 L2101.91 373.38 L2114.17 373.38 L2114.17 388.218 Q2111.47 390.139 2108.2 391.135 Q2104.94 392.107 2101.23 392.107 Q2093.13 392.107 2088.55 387.385 Q2083.99 382.639 2083.99 374.19 Q2083.99 365.718 2088.55 360.996 Q2093.13 356.251 2101.23 356.251 Q2104.61 356.251 2107.65 357.084 Q2110.7 357.917 2113.27 359.538 L2113.27 364.515 Q2110.68 362.316 2107.76 361.204 Q2104.85 360.093 2101.63 360.093 Q2095.29 360.093 2092.09 363.635 Q2088.92 367.177 2088.92 374.19 Q2088.92 381.181 2092.09 384.723 Q2095.29 388.264 2101.63 388.264 Q2104.11 388.264 2106.05 387.848 Q2107.99 387.408 2109.54 386.505 Z" fill="#000000" fill-rule="nonzero" fill-opacity="1" /><path clip-path="url(#clip210)" d="M2142.23 399.306 L2142.23 402.616 L2117.6 402.616 L2117.6 399.306 L2142.23 399.306 Z" fill="#000000" fill-rule="nonzero" fill-opacity="1" /><path clip-path="url(#clip210)" d="M2158.02 378.403 Q2152.85 378.403 2150.86 379.584 Q2148.87 380.764 2148.87 383.612 Q2148.87 385.88 2150.35 387.223 Q2151.86 388.542 2154.43 388.542 Q2157.97 388.542 2160.1 386.042 Q2162.25 383.519 2162.25 379.352 L2162.25 378.403 L2158.02 378.403 M2166.51 376.644 L2166.51 391.436 L2162.25 391.436 L2162.25 387.501 Q2160.79 389.862 2158.62 390.996 Q2156.44 392.107 2153.29 392.107 Q2149.31 392.107 2146.95 389.885 Q2144.61 387.639 2144.61 383.889 Q2144.61 379.514 2147.53 377.292 Q2150.47 375.07 2156.28 375.07 L2162.25 375.07 L2162.25 374.653 Q2162.25 371.714 2160.31 370.116 Q2158.39 368.496 2154.89 368.496 Q2152.67 368.496 2150.56 369.028 Q2148.46 369.561 2146.51 370.626 L2146.51 366.69 Q2148.85 365.788 2151.05 365.348 Q2153.25 364.885 2155.33 364.885 Q2160.96 364.885 2163.73 367.802 Q2166.51 370.718 2166.51 376.644 Z" fill="#000000" fill-rule="nonzero" fill-opacity="1" /><path clip-path="url(#clip210)" d="M2175.29 355.417 L2179.54 355.417 L2179.54 391.436 L2175.29 391.436 L2175.29 355.417 Z" fill="#000000" fill-rule="nonzero" fill-opacity="1" /><path clip-path="url(#clip210)" d="M2192.67 358.149 L2192.67 365.51 L2201.44 365.51 L2201.44 368.82 L2192.67 368.82 L2192.67 382.894 Q2192.67 386.065 2193.53 386.968 Q2194.41 387.871 2197.07 387.871 L2201.44 387.871 L2201.44 391.436 L2197.07 391.436 Q2192.14 391.436 2190.26 389.607 Q2188.39 387.755 2188.39 382.894 L2188.39 368.82 L2185.26 368.82 L2185.26 365.51 L2188.39 365.51 L2188.39 358.149 L2192.67 358.149 Z" fill="#000000" fill-rule="nonzero" fill-opacity="1" /><polyline clip-path="url(#clip210)" style="stroke:#ac8d18; stroke-linecap:round; stroke-linejoin:round; stroke-width:4; stroke-opacity:1; fill:none" points="1772.88,425.996 1912.94,425.996 "/>
<path clip-path="url(#clip210)" d="M1936.28 408.716 L1940.96 408.716 L1940.96 439.341 L1957.79 439.341 L1957.79 443.276 L1936.28 443.276 L1936.28 408.716 Z" fill="#000000" fill-rule="nonzero" fill-opacity="1" /><path clip-path="url(#clip210)" d="M1962.69 408.716 L1969.66 408.716 L1978.48 432.234 L1987.35 408.716 L1994.31 408.716 L1994.31 443.276 L1989.75 443.276 L1989.75 412.929 L1980.84 436.632 L1976.14 436.632 L1967.23 412.929 L1967.23 443.276 L1962.69 443.276 L1962.69 408.716 Z" fill="#000000" fill-rule="nonzero" fill-opacity="1" /></svg>
