<?xml version="1.0" encoding="utf-8"?>
<svg xmlns="http://www.w3.org/2000/svg" xmlns:xlink="http://www.w3.org/1999/xlink" width="600" height="400" viewBox="0 0 2400 1600">
<defs>
  <clipPath id="clip850">
    <rect x="0" y="0" width="2400" height="1600"/>
  </clipPath>
</defs>
<path clip-path="url(#clip850)" d="M0 1600 L2400 1600 L2400 0 L0 0  Z" fill="#ffffff" fill-rule="evenodd" fill-opacity="1"/>
<defs>
  <clipPath id="clip851">
    <rect x="480" y="0" width="1681" height="1600"/>
  </clipPath>
</defs>
<path clip-path="url(#clip850)" d="M251.56 1423.18 L2352.76 1423.18 L2352.76 123.472 L251.56 123.472  Z" fill="#ffffff" fill-rule="evenodd" fill-opacity="1"/>
<defs>
  <clipPath id="clip852">
    <rect x="251" y="123" width="2102" height="1301"/>
  </clipPath>
</defs>
<polyline clip-path="url(#clip852)" style="stroke:#000000; stroke-linecap:round; stroke-linejoin:round; stroke-width:2; stroke-opacity:0.1; fill:none" points="311.028,1423.18 311.028,123.472 "/>
<polyline clip-path="url(#clip852)" style="stroke:#000000; stroke-linecap:round; stroke-linejoin:round; stroke-width:2; stroke-opacity:0.1; fill:none" points="806.593,1423.18 806.593,123.472 "/>
<polyline clip-path="url(#clip852)" style="stroke:#000000; stroke-linecap:round; stroke-linejoin:round; stroke-width:2; stroke-opacity:0.1; fill:none" points="1302.16,1423.18 1302.16,123.472 "/>
<polyline clip-path="url(#clip852)" style="stroke:#000000; stroke-linecap:round; stroke-linejoin:round; stroke-width:2; stroke-opacity:0.1; fill:none" points="1797.72,1423.18 1797.72,123.472 "/>
<polyline clip-path="url(#clip852)" style="stroke:#000000; stroke-linecap:round; stroke-linejoin:round; stroke-width:2; stroke-opacity:0.1; fill:none" points="2293.29,1423.18 2293.29,123.472 "/>
<polyline clip-path="url(#clip850)" style="stroke:#000000; stroke-linecap:round; stroke-linejoin:round; stroke-width:4; stroke-opacity:1; fill:none" points="251.56,1423.18 2352.76,1423.18 "/>
<polyline clip-path="url(#clip850)" style="stroke:#000000; stroke-linecap:round; stroke-linejoin:round; stroke-width:4; stroke-opacity:1; fill:none" points="311.028,1423.18 311.028,1404.28 "/>
<polyline clip-path="url(#clip850)" style="stroke:#000000; stroke-linecap:round; stroke-linejoin:round; stroke-width:4; stroke-opacity:1; fill:none" points="806.593,1423.18 806.593,1404.28 "/>
<polyline clip-path="url(#clip850)" style="stroke:#000000; stroke-linecap:round; stroke-linejoin:round; stroke-width:4; stroke-opacity:1; fill:none" points="1302.16,1423.18 1302.16,1404.28 "/>
<polyline clip-path="url(#clip850)" style="stroke:#000000; stroke-linecap:round; stroke-linejoin:round; stroke-width:4; stroke-opacity:1; fill:none" points="1797.72,1423.18 1797.72,1404.28 "/>
<polyline clip-path="url(#clip850)" style="stroke:#000000; stroke-linecap:round; stroke-linejoin:round; stroke-width:4; stroke-opacity:1; fill:none" points="2293.29,1423.18 2293.29,1404.28 "/>
<path clip-path="url(#clip850)" d="M301.41 1481.64 L309.049 1481.64 L309.049 1455.28 L300.739 1456.95 L300.739 1452.69 L309.003 1451.02 L313.679 1451.02 L313.679 1481.64 L321.317 1481.64 L321.317 1485.58 L301.41 1485.58 L301.41 1481.64 Z" fill="#000000" fill-rule="nonzero" fill-opacity="1" /><path clip-path="url(#clip850)" d="M801.246 1481.64 L817.565 1481.64 L817.565 1485.58 L795.621 1485.58 L795.621 1481.64 Q798.283 1478.89 802.866 1474.26 Q807.473 1469.61 808.653 1468.27 Q810.899 1465.74 811.778 1464.01 Q812.681 1462.25 812.681 1460.56 Q812.681 1457.8 810.737 1456.07 Q808.815 1454.33 805.713 1454.33 Q803.514 1454.33 801.061 1455.09 Q798.63 1455.86 795.852 1457.41 L795.852 1452.69 Q798.676 1451.55 801.13 1450.97 Q803.584 1450.39 805.621 1450.39 Q810.991 1450.39 814.186 1453.08 Q817.38 1455.77 817.38 1460.26 Q817.38 1462.39 816.57 1464.31 Q815.783 1466.2 813.676 1468.8 Q813.098 1469.47 809.996 1472.69 Q806.894 1475.88 801.246 1481.64 Z" fill="#000000" fill-rule="nonzero" fill-opacity="1" /><path clip-path="url(#clip850)" d="M1306.41 1466.95 Q1309.76 1467.66 1311.64 1469.93 Q1313.54 1472.2 1313.54 1475.53 Q1313.54 1480.65 1310.02 1483.45 Q1306.5 1486.25 1300.02 1486.25 Q1297.84 1486.25 1295.53 1485.81 Q1293.23 1485.39 1290.78 1484.54 L1290.78 1480.02 Q1292.73 1481.16 1295.04 1481.74 Q1297.35 1482.32 1299.88 1482.32 Q1304.28 1482.32 1306.57 1480.58 Q1308.88 1478.84 1308.88 1475.53 Q1308.88 1472.48 1306.73 1470.77 Q1304.6 1469.03 1300.78 1469.03 L1296.75 1469.03 L1296.75 1465.19 L1300.97 1465.19 Q1304.42 1465.19 1306.24 1463.82 Q1308.07 1462.43 1308.07 1459.84 Q1308.07 1457.18 1306.17 1455.77 Q1304.3 1454.33 1300.78 1454.33 Q1298.86 1454.33 1296.66 1454.75 Q1294.46 1455.16 1291.82 1456.04 L1291.82 1451.88 Q1294.48 1451.14 1296.8 1450.77 Q1299.14 1450.39 1301.2 1450.39 Q1306.52 1450.39 1309.62 1452.83 Q1312.73 1455.23 1312.73 1459.35 Q1312.73 1462.22 1311.08 1464.21 Q1309.44 1466.18 1306.41 1466.95 Z" fill="#000000" fill-rule="nonzero" fill-opacity="1" /><path clip-path="url(#clip850)" d="M1800.73 1455.09 L1788.93 1473.54 L1800.73 1473.54 L1800.73 1455.09 M1799.51 1451.02 L1805.39 1451.02 L1805.39 1473.54 L1810.32 1473.54 L1810.32 1477.43 L1805.39 1477.43 L1805.39 1485.58 L1800.73 1485.58 L1800.73 1477.43 L1785.13 1477.43 L1785.13 1472.92 L1799.51 1451.02 Z" fill="#000000" fill-rule="nonzero" fill-opacity="1" /><path clip-path="url(#clip850)" d="M2283.57 1451.02 L2301.92 1451.02 L2301.92 1454.96 L2287.85 1454.96 L2287.85 1463.43 Q2288.87 1463.08 2289.89 1462.92 Q2290.9 1462.73 2291.92 1462.73 Q2297.71 1462.73 2301.09 1465.9 Q2304.47 1469.08 2304.47 1474.49 Q2304.47 1480.07 2301 1483.17 Q2297.52 1486.25 2291.2 1486.25 Q2289.03 1486.25 2286.76 1485.88 Q2284.52 1485.51 2282.11 1484.77 L2282.11 1480.07 Q2284.19 1481.2 2286.41 1481.76 Q2288.64 1482.32 2291.11 1482.32 Q2295.12 1482.32 2297.45 1480.21 Q2299.79 1478.1 2299.79 1474.49 Q2299.79 1470.88 2297.45 1468.77 Q2295.12 1466.67 2291.11 1466.67 Q2289.24 1466.67 2287.36 1467.08 Q2285.51 1467.5 2283.57 1468.38 L2283.57 1451.02 Z" fill="#000000" fill-rule="nonzero" fill-opacity="1" /><path clip-path="url(#clip850)" d="M1286.34 1518.52 L1292.23 1518.52 L1292.23 1547.77 L1309.7 1532.4 L1317.18 1532.4 L1298.27 1549.07 L1317.98 1568.04 L1310.34 1568.04 L1292.23 1550.63 L1292.23 1568.04 L1286.34 1568.04 L1286.34 1518.52 Z" fill="#000000" fill-rule="nonzero" fill-opacity="1" /><polyline clip-path="url(#clip852)" style="stroke:#000000; stroke-linecap:round; stroke-linejoin:round; stroke-width:2; stroke-opacity:0.1; fill:none" points="251.56,954.557 2352.76,954.557 "/>
<polyline clip-path="url(#clip852)" style="stroke:#000000; stroke-linecap:round; stroke-linejoin:round; stroke-width:2; stroke-opacity:0.1; fill:none" points="251.56,334.111 2352.76,334.111 "/>
<polyline clip-path="url(#clip850)" style="stroke:#000000; stroke-linecap:round; stroke-linejoin:round; stroke-width:4; stroke-opacity:1; fill:none" points="251.56,1423.18 251.56,123.472 "/>
<polyline clip-path="url(#clip850)" style="stroke:#000000; stroke-linecap:round; stroke-linejoin:round; stroke-width:4; stroke-opacity:1; fill:none" points="251.56,954.557 270.458,954.557 "/>
<polyline clip-path="url(#clip850)" style="stroke:#000000; stroke-linecap:round; stroke-linejoin:round; stroke-width:4; stroke-opacity:1; fill:none" points="251.56,334.111 270.458,334.111 "/>
<path clip-path="url(#clip850)" d="M114.931 974.35 L122.57 974.35 L122.57 947.984 L114.26 949.651 L114.26 945.392 L122.524 943.725 L127.2 943.725 L127.2 974.35 L134.839 974.35 L134.839 978.285 L114.931 978.285 L114.931 974.35 Z" fill="#000000" fill-rule="nonzero" fill-opacity="1" /><path clip-path="url(#clip850)" d="M154.283 946.804 Q150.672 946.804 148.843 950.368 Q147.038 953.91 147.038 961.04 Q147.038 968.146 148.843 971.711 Q150.672 975.253 154.283 975.253 Q157.917 975.253 159.723 971.711 Q161.552 968.146 161.552 961.04 Q161.552 953.91 159.723 950.368 Q157.917 946.804 154.283 946.804 M154.283 943.1 Q160.093 943.1 163.149 947.706 Q166.227 952.29 166.227 961.04 Q166.227 969.766 163.149 974.373 Q160.093 978.956 154.283 978.956 Q148.473 978.956 145.394 974.373 Q142.339 969.766 142.339 961.04 Q142.339 952.29 145.394 947.706 Q148.473 943.1 154.283 943.1 Z" fill="#000000" fill-rule="nonzero" fill-opacity="1" /><path clip-path="url(#clip850)" d="M166.227 937.201 L190.339 937.201 L190.339 940.399 L166.227 940.399 L166.227 937.201 Z" fill="#000000" fill-rule="nonzero" fill-opacity="1" /><path clip-path="url(#clip850)" d="M198.577 922.795 L213.491 922.795 L213.491 925.992 L202.056 925.992 L202.056 932.876 Q202.884 932.593 203.711 932.462 Q204.539 932.311 205.366 932.311 Q210.068 932.311 212.814 934.888 Q215.56 937.465 215.56 941.866 Q215.56 946.398 212.739 948.919 Q209.918 951.42 204.783 951.42 Q203.015 951.42 201.172 951.119 Q199.348 950.818 197.392 950.216 L197.392 946.398 Q199.085 947.32 200.89 947.771 Q202.696 948.223 204.708 948.223 Q207.962 948.223 209.861 946.511 Q211.761 944.8 211.761 941.866 Q211.761 938.932 209.861 937.22 Q207.962 935.509 204.708 935.509 Q203.185 935.509 201.661 935.847 Q200.157 936.186 198.577 936.9 L198.577 922.795 Z" fill="#000000" fill-rule="nonzero" fill-opacity="1" /><path clip-path="url(#clip850)" d="M144.855 353.903 L152.493 353.903 L152.493 327.538 L144.183 329.204 L144.183 324.945 L152.447 323.279 L157.123 323.279 L157.123 353.903 L164.762 353.903 L164.762 357.839 L144.855 357.839 L144.855 353.903 Z" fill="#000000" fill-rule="nonzero" fill-opacity="1" /><path clip-path="url(#clip850)" d="M184.206 326.357 Q180.595 326.357 178.766 329.922 Q176.961 333.464 176.961 340.593 Q176.961 347.7 178.766 351.264 Q180.595 354.806 184.206 354.806 Q187.84 354.806 189.646 351.264 Q191.475 347.7 191.475 340.593 Q191.475 333.464 189.646 329.922 Q187.84 326.357 184.206 326.357 M184.206 322.654 Q190.016 322.654 193.072 327.26 Q196.151 331.843 196.151 340.593 Q196.151 349.32 193.072 353.927 Q190.016 358.51 184.206 358.51 Q178.396 358.51 175.317 353.927 Q172.262 349.32 172.262 340.593 Q172.262 331.843 175.317 327.26 Q178.396 322.654 184.206 322.654 Z" fill="#000000" fill-rule="nonzero" fill-opacity="1" /><path clip-path="url(#clip850)" d="M205.855 304.85 Q202.921 304.85 201.436 307.746 Q199.969 310.624 199.969 316.416 Q199.969 322.19 201.436 325.087 Q202.921 327.964 205.855 327.964 Q208.808 327.964 210.275 325.087 Q211.761 322.19 211.761 316.416 Q211.761 310.624 210.275 307.746 Q208.808 304.85 205.855 304.85 M205.855 301.84 Q210.576 301.84 213.059 305.583 Q215.56 309.307 215.56 316.416 Q215.56 323.507 213.059 327.25 Q210.576 330.974 205.855 330.974 Q201.135 330.974 198.633 327.25 Q196.151 323.507 196.151 316.416 Q196.151 309.307 198.633 305.583 Q201.135 301.84 205.855 301.84 Z" fill="#000000" fill-rule="nonzero" fill-opacity="1" /><path clip-path="url(#clip850)" d="M45.7664 817.313 Q39.4007 817.313 35.8996 819.955 Q32.3984 822.565 32.3984 827.307 Q32.3984 832.018 35.8996 834.66 Q39.4007 837.27 45.7664 837.27 Q52.1003 837.27 55.6014 834.66 Q59.1026 832.018 59.1026 827.307 Q59.1026 822.565 55.6014 819.955 Q52.1003 817.313 45.7664 817.313 M59.58 811.457 Q68.683 811.457 73.1071 815.499 Q77.5631 819.541 77.5631 827.88 Q77.5631 830.967 77.0857 833.705 Q76.6401 836.442 75.6852 839.02 L69.9879 839.02 Q71.3884 836.442 72.0568 833.928 Q72.7252 831.413 72.7252 828.803 Q72.7252 823.042 69.7015 820.178 Q66.7096 817.313 60.6303 817.313 L57.7339 817.313 Q60.885 819.127 62.4446 821.96 Q64.0042 824.793 64.0042 828.739 Q64.0042 835.296 59.0071 839.307 Q54.01 843.317 45.7664 843.317 Q37.491 843.317 32.4939 839.307 Q27.4968 835.296 27.4968 828.739 Q27.4968 824.793 29.0564 821.96 Q30.616 819.127 33.7671 817.313 L28.3562 817.313 L28.3562 811.457 L59.58 811.457 Z" fill="#000000" fill-rule="nonzero" fill-opacity="1" /><path clip-path="url(#clip850)" d="M33.8307 778.737 Q33.2578 779.724 33.0032 780.901 Q32.7167 782.047 32.7167 783.447 Q32.7167 788.413 35.9632 791.086 Q39.1779 793.728 45.2253 793.728 L64.0042 793.728 L64.0042 799.616 L28.3562 799.616 L28.3562 793.728 L33.8944 793.728 Q30.6479 791.882 29.0883 788.922 Q27.4968 785.962 27.4968 781.729 Q27.4968 781.124 27.5923 780.392 Q27.656 779.66 27.8151 778.769 L33.8307 778.737 Z" fill="#000000" fill-rule="nonzero" fill-opacity="1" /><path clip-path="url(#clip850)" d="M46.0847 756.393 Q46.0847 763.491 47.7079 766.228 Q49.3312 768.965 53.2461 768.965 Q56.3653 768.965 58.2114 766.928 Q60.0256 764.86 60.0256 761.327 Q60.0256 756.457 56.5881 753.529 Q53.1188 750.569 47.3897 750.569 L46.0847 750.569 L46.0847 756.393 M43.6657 744.712 L64.0042 744.712 L64.0042 750.569 L58.5933 750.569 Q61.8398 752.574 63.3994 755.566 Q64.9272 758.558 64.9272 762.886 Q64.9272 768.361 61.8716 771.607 Q58.7843 774.822 53.6281 774.822 Q47.6125 774.822 44.5569 770.812 Q41.5014 766.769 41.5014 758.78 L41.5014 750.569 L40.9285 750.569 Q36.8862 750.569 34.6901 753.242 Q32.4621 755.884 32.4621 760.69 Q32.4621 763.746 33.1941 766.642 Q33.9262 769.538 35.3903 772.212 L29.9795 772.212 Q28.7381 768.997 28.1334 765.974 Q27.4968 762.95 27.4968 760.085 Q27.4968 752.351 31.5072 748.532 Q35.5176 744.712 43.6657 744.712 Z" fill="#000000" fill-rule="nonzero" fill-opacity="1" /><path clip-path="url(#clip850)" d="M33.7671 709.191 L14.479 709.191 L14.479 703.335 L64.0042 703.335 L64.0042 709.191 L58.657 709.191 Q61.8398 711.038 63.3994 713.87 Q64.9272 716.671 64.9272 720.618 Q64.9272 727.079 59.771 731.153 Q54.6147 735.195 46.212 735.195 Q37.8093 735.195 32.6531 731.153 Q27.4968 727.079 27.4968 720.618 Q27.4968 716.671 29.0564 713.87 Q30.5842 711.038 33.7671 709.191 M46.212 729.148 Q52.6732 729.148 56.3653 726.506 Q60.0256 723.833 60.0256 719.186 Q60.0256 714.539 56.3653 711.865 Q52.6732 709.191 46.212 709.191 Q39.7508 709.191 36.0905 711.865 Q32.3984 714.539 32.3984 719.186 Q32.3984 723.833 36.0905 726.506 Q39.7508 729.148 46.212 729.148 Z" fill="#000000" fill-rule="nonzero" fill-opacity="1" /><path clip-path="url(#clip850)" d="M932.857 65.7705 L932.857 89.8329 L925.363 89.8329 L925.363 27.2059 L932.857 27.2059 L932.857 34.0924 Q935.207 30.0415 938.772 28.0971 Q942.377 26.1121 947.36 26.1121 Q955.623 26.1121 960.768 32.6746 Q965.953 39.2371 965.953 49.9314 Q965.953 60.6258 960.768 67.1883 Q955.623 73.7508 947.36 73.7508 Q942.377 73.7508 938.772 71.8063 Q935.207 69.8214 932.857 65.7705 M958.216 49.9314 Q958.216 41.7081 954.813 37.0496 Q951.451 32.3505 945.537 32.3505 Q939.622 32.3505 936.22 37.0496 Q932.857 41.7081 932.857 49.9314 Q932.857 58.1548 936.22 62.8538 Q939.622 67.5124 945.537 67.5124 Q951.451 67.5124 954.813 62.8538 Q958.216 58.1548 958.216 49.9314 Z" fill="#000000" fill-rule="nonzero" fill-opacity="1" /><path clip-path="url(#clip850)" d="M1004.6 34.1734 Q1003.34 33.4443 1001.84 33.1202 Q1000.39 32.7556 998.604 32.7556 Q992.284 32.7556 988.881 36.8875 Q985.519 40.9789 985.519 48.6757 L985.519 72.576 L978.025 72.576 L978.025 27.2059 L985.519 27.2059 L985.519 34.2544 Q987.869 30.1225 991.636 28.1376 Q995.403 26.1121 1000.79 26.1121 Q1001.56 26.1121 1002.49 26.2337 Q1003.42 26.3147 1004.56 26.5172 L1004.6 34.1734 Z" fill="#000000" fill-rule="nonzero" fill-opacity="1" /><path clip-path="url(#clip850)" d="M1028.18 32.4315 Q1022.18 32.4315 1018.7 37.1306 Q1015.21 41.7891 1015.21 49.9314 Q1015.21 58.0738 1018.66 62.7728 Q1022.14 67.4314 1028.18 67.4314 Q1034.13 67.4314 1037.61 62.7323 Q1041.1 58.0333 1041.1 49.9314 Q1041.1 41.8701 1037.61 37.1711 Q1034.13 32.4315 1028.18 32.4315 M1028.18 26.1121 Q1037.9 26.1121 1043.45 32.4315 Q1049 38.7509 1049 49.9314 Q1049 61.0714 1043.45 67.4314 Q1037.9 73.7508 1028.18 73.7508 Q1018.41 73.7508 1012.86 67.4314 Q1007.35 61.0714 1007.35 49.9314 Q1007.35 38.7509 1012.86 32.4315 Q1018.41 26.1121 1028.18 26.1121 Z" fill="#000000" fill-rule="nonzero" fill-opacity="1" /><path clip-path="url(#clip850)" d="M1093.92 49.9314 Q1093.92 41.7081 1090.52 37.0496 Q1087.16 32.3505 1081.24 32.3505 Q1075.33 32.3505 1071.92 37.0496 Q1068.56 41.7081 1068.56 49.9314 Q1068.56 58.1548 1071.92 62.8538 Q1075.33 67.5124 1081.24 67.5124 Q1087.16 67.5124 1090.52 62.8538 Q1093.92 58.1548 1093.92 49.9314 M1068.56 34.0924 Q1070.91 30.0415 1074.48 28.0971 Q1078.08 26.1121 1083.06 26.1121 Q1091.33 26.1121 1096.47 32.6746 Q1101.66 39.2371 1101.66 49.9314 Q1101.66 60.6258 1096.47 67.1883 Q1091.33 73.7508 1083.06 73.7508 Q1078.08 73.7508 1074.48 71.8063 Q1070.91 69.8214 1068.56 65.7705 L1068.56 72.576 L1061.07 72.576 L1061.07 9.54393 L1068.56 9.54393 L1068.56 34.0924 Z" fill="#000000" fill-rule="nonzero" fill-opacity="1" /><path clip-path="url(#clip850)" d="M1114.01 9.54393 L1121.47 9.54393 L1121.47 72.576 L1114.01 72.576 L1114.01 9.54393 Z" fill="#000000" fill-rule="nonzero" fill-opacity="1" /><path clip-path="url(#clip850)" d="M1175.87 48.0275 L1175.87 51.6733 L1141.6 51.6733 Q1142.09 59.3701 1146.22 63.421 Q1150.39 67.4314 1157.8 67.4314 Q1162.1 67.4314 1166.11 66.3781 Q1170.16 65.3249 1174.13 63.2184 L1174.13 70.267 Q1170.12 71.9684 1165.91 72.8596 Q1161.69 73.7508 1157.36 73.7508 Q1146.5 73.7508 1140.14 67.4314 Q1133.82 61.1119 1133.82 50.3365 Q1133.82 39.1965 1139.82 32.6746 Q1145.85 26.1121 1156.06 26.1121 Q1165.22 26.1121 1170.52 32.0264 Q1175.87 37.9003 1175.87 48.0275 M1168.42 45.84 Q1168.34 39.7232 1164.97 36.0774 Q1161.65 32.4315 1156.14 32.4315 Q1149.9 32.4315 1146.14 35.9558 Q1142.41 39.4801 1141.84 45.8805 L1168.42 45.84 M1149.74 6.22219 L1161.17 21.3726 L1154.97 21.3726 L1141.76 6.22219 L1149.74 6.22219 Z" fill="#000000" fill-rule="nonzero" fill-opacity="1" /><path clip-path="url(#clip850)" d="M1223.43 35.9153 Q1226.22 30.8922 1230.11 28.5022 Q1234 26.1121 1239.27 26.1121 Q1246.36 26.1121 1250.21 31.0947 Q1254.05 36.0368 1254.05 45.1919 L1254.05 72.576 L1246.56 72.576 L1246.56 45.4349 Q1246.56 38.913 1244.25 35.7533 Q1241.94 32.5936 1237.2 32.5936 Q1231.41 32.5936 1228.05 36.4419 Q1224.68 40.2903 1224.68 46.9338 L1224.68 72.576 L1217.19 72.576 L1217.19 45.4349 Q1217.19 38.8725 1214.88 35.7533 Q1212.57 32.5936 1207.75 32.5936 Q1202.04 32.5936 1198.68 36.4824 Q1195.32 40.3308 1195.32 46.9338 L1195.32 72.576 L1187.82 72.576 L1187.82 27.2059 L1195.32 27.2059 L1195.32 34.2544 Q1197.87 30.082 1201.43 28.0971 Q1205 26.1121 1209.9 26.1121 Q1214.84 26.1121 1218.28 28.6237 Q1221.77 31.1352 1223.43 35.9153 Z" fill="#000000" fill-rule="nonzero" fill-opacity="1" /><path clip-path="url(#clip850)" d="M1307.73 48.0275 L1307.73 51.6733 L1273.46 51.6733 Q1273.94 59.3701 1278.08 63.421 Q1282.25 67.4314 1289.66 67.4314 Q1293.95 67.4314 1297.97 66.3781 Q1302.02 65.3249 1305.99 63.2184 L1305.99 70.267 Q1301.98 71.9684 1297.76 72.8596 Q1293.55 73.7508 1289.22 73.7508 Q1278.36 73.7508 1272 67.4314 Q1265.68 61.1119 1265.68 50.3365 Q1265.68 39.1965 1271.68 32.6746 Q1277.71 26.1121 1287.92 26.1121 Q1297.07 26.1121 1302.38 32.0264 Q1307.73 37.9003 1307.73 48.0275 M1300.27 45.84 Q1300.19 39.7232 1296.83 36.0774 Q1293.51 32.4315 1288 32.4315 Q1281.76 32.4315 1277.99 35.9558 Q1274.27 39.4801 1273.7 45.8805 L1300.27 45.84 Z" fill="#000000" fill-rule="nonzero" fill-opacity="1" /><path clip-path="url(#clip850)" d="M1348.24 62.2867 L1356.78 62.2867 L1356.78 72.576 L1348.24 72.576 L1348.24 62.2867 M1348.24 29.6769 L1356.78 29.6769 L1356.78 39.9662 L1348.24 39.9662 L1348.24 29.6769 Z" fill="#000000" fill-rule="nonzero" fill-opacity="1" /><path clip-path="url(#clip850)" d="M1435.98 35.9153 Q1438.77 30.8922 1442.66 28.5022 Q1446.55 26.1121 1451.82 26.1121 Q1458.91 26.1121 1462.76 31.0947 Q1466.6 36.0368 1466.6 45.1919 L1466.6 72.576 L1459.11 72.576 L1459.11 45.4349 Q1459.11 38.913 1456.8 35.7533 Q1454.49 32.5936 1449.75 32.5936 Q1443.96 32.5936 1440.6 36.4419 Q1437.24 40.2903 1437.24 46.9338 L1437.24 72.576 L1429.74 72.576 L1429.74 45.4349 Q1429.74 38.8725 1427.43 35.7533 Q1425.12 32.5936 1420.3 32.5936 Q1414.59 32.5936 1411.23 36.4824 Q1407.87 40.3308 1407.87 46.9338 L1407.87 72.576 L1400.37 72.576 L1400.37 27.2059 L1407.87 27.2059 L1407.87 34.2544 Q1410.42 30.082 1413.98 28.0971 Q1417.55 26.1121 1422.45 26.1121 Q1427.39 26.1121 1430.84 28.6237 Q1434.32 31.1352 1435.98 35.9153 Z" fill="#000000" fill-rule="nonzero" fill-opacity="1" /><path clip-path="url(#clip850)" d="M1511.33 49.3643 Q1511.33 41.2625 1507.96 36.8065 Q1504.64 32.3505 1498.61 32.3505 Q1492.61 32.3505 1489.25 36.8065 Q1485.93 41.2625 1485.93 49.3643 Q1485.93 57.4256 1489.25 61.8816 Q1492.61 66.3376 1498.61 66.3376 Q1504.64 66.3376 1507.96 61.8816 Q1511.33 57.4256 1511.33 49.3643 M1518.78 66.9452 Q1518.78 78.5308 1513.64 84.1616 Q1508.49 89.8329 1497.88 89.8329 Q1493.95 89.8329 1490.46 89.2252 Q1486.98 88.6581 1483.7 87.4428 L1483.7 80.1917 Q1486.98 81.9741 1490.18 82.8248 Q1493.38 83.6755 1496.7 83.6755 Q1504.03 83.6755 1507.68 79.8271 Q1511.33 76.0193 1511.33 68.282 L1511.33 64.5957 Q1509.02 68.6061 1505.41 70.5911 Q1501.81 72.576 1496.78 72.576 Q1488.44 72.576 1483.33 66.2161 Q1478.23 59.8562 1478.23 49.3643 Q1478.23 38.832 1483.33 32.472 Q1488.44 26.1121 1496.78 26.1121 Q1501.81 26.1121 1505.41 28.0971 Q1509.02 30.082 1511.33 34.0924 L1511.33 27.2059 L1518.78 27.2059 L1518.78 66.9452 Z" fill="#000000" fill-rule="nonzero" fill-opacity="1" /><path clip-path="url(#clip850)" d="M1571.85 45.1919 L1571.85 72.576 L1564.39 72.576 L1564.39 45.4349 Q1564.39 38.994 1561.88 35.7938 Q1559.37 32.5936 1554.35 32.5936 Q1548.31 32.5936 1544.83 36.4419 Q1541.34 40.2903 1541.34 46.9338 L1541.34 72.576 L1533.85 72.576 L1533.85 9.54393 L1541.34 9.54393 L1541.34 34.2544 Q1544.02 30.163 1547.62 28.1376 Q1551.27 26.1121 1556.01 26.1121 Q1563.83 26.1121 1567.84 30.9732 Q1571.85 35.7938 1571.85 45.1919 Z" fill="#000000" fill-rule="nonzero" fill-opacity="1" /><path clip-path="url(#clip850)" d="M1612.56 39.9662 Q1618.43 41.222 1621.71 45.1919 Q1625.04 49.1618 1625.04 54.9951 Q1625.04 63.9476 1618.88 68.8492 Q1612.72 73.7508 1601.38 73.7508 Q1597.57 73.7508 1593.52 72.9811 Q1589.51 72.2519 1585.22 70.7531 L1585.22 62.8538 Q1588.62 64.8388 1592.67 65.8515 Q1596.72 66.8642 1601.14 66.8642 Q1608.83 66.8642 1612.84 63.826 Q1616.89 60.7879 1616.89 54.9951 Q1616.89 49.6479 1613.13 46.6502 Q1609.4 43.612 1602.71 43.612 L1595.67 43.612 L1595.67 36.8875 L1603.04 36.8875 Q1609.07 36.8875 1612.28 34.4975 Q1615.48 32.067 1615.48 27.5299 Q1615.48 22.8714 1612.15 20.4004 Q1608.87 17.8888 1602.71 17.8888 Q1599.35 17.8888 1595.5 18.618 Q1591.66 19.3471 1587.04 20.8865 L1587.04 13.5948 Q1591.7 12.2985 1595.75 11.6504 Q1599.84 11.0023 1603.44 11.0023 Q1612.76 11.0023 1618.19 15.2557 Q1623.62 19.4686 1623.62 26.6793 Q1623.62 31.7024 1620.74 35.1862 Q1617.87 38.6294 1612.56 39.9662 Z" fill="#000000" fill-rule="nonzero" fill-opacity="1" /><path clip-path="url(#clip850)" d="M1658.05 17.4837 Q1651.73 17.4837 1648.53 23.7221 Q1645.37 29.92 1645.37 42.3968 Q1645.37 54.833 1648.53 61.0714 Q1651.73 67.2693 1658.05 67.2693 Q1664.41 67.2693 1667.57 61.0714 Q1670.77 54.833 1670.77 42.3968 Q1670.77 29.92 1667.57 23.7221 Q1664.41 17.4837 1658.05 17.4837 M1658.05 11.0023 Q1668.22 11.0023 1673.57 19.0636 Q1678.95 27.0843 1678.95 42.3968 Q1678.95 57.6687 1673.57 65.73 Q1668.22 73.7508 1658.05 73.7508 Q1647.88 73.7508 1642.49 65.73 Q1637.15 57.6687 1637.15 42.3968 Q1637.15 27.0843 1642.49 19.0636 Q1647.88 11.0023 1658.05 11.0023 Z" fill="#000000" fill-rule="nonzero" fill-opacity="1" /><polyline clip-path="url(#clip852)" style="stroke:#009af9; stroke-linecap:round; stroke-linejoin:round; stroke-width:4; stroke-opacity:1; fill:none" points="311.028,160.256 806.593,284.275 1302.16,459.757 1797.72,774.558 2293.29,1386.4 "/>
<polyline clip-path="url(#clip852)" style="stroke:#e26f46; stroke-linecap:round; stroke-linejoin:round; stroke-width:4; stroke-opacity:1; fill:none" points="311.028,160.256 806.593,284.275 1302.16,459.757 1797.72,774.558 2293.29,1386.4 "/>
<polyline clip-path="url(#clip852)" style="stroke:#3da44d; stroke-linecap:round; stroke-linejoin:round; stroke-width:4; stroke-opacity:1; fill:none" points="311.028,160.256 806.593,284.275 1302.16,459.757 1797.72,774.558 2293.29,1386.4 "/>
<polyline clip-path="url(#clip852)" style="stroke:#c271d2; stroke-linecap:round; stroke-linejoin:round; stroke-width:4; stroke-opacity:1; fill:none" points="311.028,160.256 806.593,284.275 1302.16,459.757 1797.72,774.558 2293.29,1386.4 "/>
<polyline clip-path="url(#clip852)" style="stroke:#ac8d18; stroke-linecap:round; stroke-linejoin:round; stroke-width:4; stroke-opacity:1; fill:none" points="311.028,160.256 806.593,284.275 1302.16,459.757 1797.72,774.558 2293.29,1386.4 "/>
<path clip-path="url(#clip850)" d="M1749.5 477.836 L2282.72 477.836 L2282.72 166.796 L1749.5 166.796  Z" fill="#ffffff" fill-rule="evenodd" fill-opacity="1"/>
<polyline clip-path="url(#clip850)" style="stroke:#000000; stroke-linecap:round; stroke-linejoin:round; stroke-width:4; stroke-opacity:1; fill:none" points="1749.5,477.836 2282.72,477.836 2282.72,166.796 1749.5,166.796 1749.5,477.836 "/>
<polyline clip-path="url(#clip850)" style="stroke:#009af9; stroke-linecap:round; stroke-linejoin:round; stroke-width:4; stroke-opacity:1; fill:none" points="1772.84,218.636 1912.92,218.636 "/>
<path clip-path="url(#clip850)" d="M1936.27 201.356 L1940.95 201.356 L1940.95 231.981 L1957.77 231.981 L1957.77 235.916 L1936.27 235.916 L1936.27 201.356 Z" fill="#000000" fill-rule="nonzero" fill-opacity="1" /><path clip-path="url(#clip850)" d="M1962.68 201.356 L1969.65 201.356 L1978.47 224.874 L1987.33 201.356 L1994.3 201.356 L1994.3 235.916 L1989.74 235.916 L1989.74 205.569 L1980.83 229.272 L1976.13 229.272 L1967.22 205.569 L1967.22 235.916 L1962.68 235.916 L1962.68 201.356 Z" fill="#000000" fill-rule="nonzero" fill-opacity="1" /><path clip-path="url(#clip850)" d="M2023.1 243.786 L2023.1 247.096 L1998.47 247.096 L1998.47 243.786 L2023.1 243.786 Z" fill="#000000" fill-rule="nonzero" fill-opacity="1" /><path clip-path="url(#clip850)" d="M2048 202.49 L2048 207.05 Q2045.34 205.777 2042.98 205.152 Q2040.62 204.527 2038.42 204.527 Q2034.6 204.527 2032.52 206.008 Q2030.46 207.49 2030.46 210.221 Q2030.46 212.513 2031.82 213.694 Q2033.21 214.851 2037.06 215.569 L2039.88 216.147 Q2045.11 217.143 2047.59 219.666 Q2050.09 222.166 2050.09 226.379 Q2050.09 231.402 2046.71 233.994 Q2043.35 236.587 2036.85 236.587 Q2034.39 236.587 2031.62 236.031 Q2028.86 235.476 2025.9 234.388 L2025.9 229.573 Q2028.75 231.17 2031.48 231.981 Q2034.21 232.791 2036.85 232.791 Q2040.85 232.791 2043.03 231.217 Q2045.2 229.643 2045.2 226.726 Q2045.2 224.18 2043.63 222.744 Q2042.08 221.309 2038.51 220.592 L2035.67 220.036 Q2030.44 218.995 2028.1 216.772 Q2025.76 214.55 2025.76 210.592 Q2025.76 206.008 2028.98 203.37 Q2032.22 200.731 2037.89 200.731 Q2040.32 200.731 2042.84 201.171 Q2045.37 201.61 2048 202.49 Z" fill="#000000" fill-rule="nonzero" fill-opacity="1" /><path clip-path="url(#clip850)" d="M2062.06 205.198 L2062.06 218.184 L2067.94 218.184 Q2071.2 218.184 2072.98 216.495 Q2074.76 214.805 2074.76 211.68 Q2074.76 208.578 2072.98 206.888 Q2071.2 205.198 2067.94 205.198 L2062.06 205.198 M2057.38 201.356 L2067.94 201.356 Q2073.75 201.356 2076.71 203.995 Q2079.69 206.61 2079.69 211.68 Q2079.69 216.795 2076.71 219.411 Q2073.75 222.027 2067.94 222.027 L2062.06 222.027 L2062.06 235.916 L2057.38 235.916 L2057.38 201.356 Z" fill="#000000" fill-rule="nonzero" fill-opacity="1" /><path clip-path="url(#clip850)" d="M2109.53 230.985 L2109.53 221.703 L2101.89 221.703 L2101.89 217.86 L2114.16 217.86 L2114.16 232.698 Q2111.45 234.619 2108.19 235.615 Q2104.93 236.587 2101.22 236.587 Q2093.12 236.587 2088.54 231.865 Q2083.98 227.119 2083.98 218.67 Q2083.98 210.198 2088.54 205.476 Q2093.12 200.731 2101.22 200.731 Q2104.6 200.731 2107.63 201.564 Q2110.69 202.397 2113.26 204.018 L2113.26 208.995 Q2110.67 206.796 2107.75 205.684 Q2104.83 204.573 2101.62 204.573 Q2095.27 204.573 2092.08 208.115 Q2088.91 211.657 2088.91 218.67 Q2088.91 225.661 2092.08 229.203 Q2095.27 232.744 2101.62 232.744 Q2104.09 232.744 2106.04 232.328 Q2107.98 231.888 2109.53 230.985 Z" fill="#000000" fill-rule="nonzero" fill-opacity="1" /><polyline clip-path="url(#clip850)" style="stroke:#e26f46; stroke-linecap:round; stroke-linejoin:round; stroke-width:4; stroke-opacity:1; fill:none" points="1772.84,270.476 1912.92,270.476 "/>
<path clip-path="url(#clip850)" d="M1936.27 253.196 L1940.95 253.196 L1940.95 283.821 L1957.77 283.821 L1957.77 287.756 L1936.27 287.756 L1936.27 253.196 Z" fill="#000000" fill-rule="nonzero" fill-opacity="1" /><path clip-path="url(#clip850)" d="M1962.68 253.196 L1969.65 253.196 L1978.47 276.714 L1987.33 253.196 L1994.3 253.196 L1994.3 287.756 L1989.74 287.756 L1989.74 257.409 L1980.83 281.112 L1976.13 281.112 L1967.22 257.409 L1967.22 287.756 L1962.68 287.756 L1962.68 253.196 Z" fill="#000000" fill-rule="nonzero" fill-opacity="1" /><path clip-path="url(#clip850)" d="M2023.1 295.626 L2023.1 298.936 L1998.47 298.936 L1998.47 295.626 L2023.1 295.626 Z" fill="#000000" fill-rule="nonzero" fill-opacity="1" /><path clip-path="url(#clip850)" d="M2038.84 257.802 L2032.5 275.001 L2045.2 275.001 L2038.84 257.802 M2036.2 253.196 L2041.5 253.196 L2054.67 287.756 L2049.81 287.756 L2046.66 278.89 L2031.08 278.89 L2027.94 287.756 L2023 287.756 L2036.2 253.196 Z" fill="#000000" fill-rule="nonzero" fill-opacity="1" /><path clip-path="url(#clip850)" d="M2081.08 272.108 L2081.08 287.756 L2076.82 287.756 L2076.82 272.247 Q2076.82 268.566 2075.39 266.737 Q2073.95 264.909 2071.08 264.909 Q2067.63 264.909 2065.64 267.108 Q2063.65 269.307 2063.65 273.103 L2063.65 287.756 L2059.37 287.756 L2059.37 261.83 L2063.65 261.83 L2063.65 265.858 Q2065.18 263.52 2067.24 262.362 Q2069.32 261.205 2072.03 261.205 Q2076.5 261.205 2078.79 263.983 Q2081.08 266.737 2081.08 272.108 Z" fill="#000000" fill-rule="nonzero" fill-opacity="1" /><path clip-path="url(#clip850)" d="M2106.64 265.765 L2106.64 251.737 L2110.9 251.737 L2110.9 287.756 L2106.64 287.756 L2106.64 283.867 Q2105.3 286.182 2103.24 287.316 Q2101.2 288.427 2098.33 288.427 Q2093.63 288.427 2090.67 284.677 Q2087.73 280.927 2087.73 274.816 Q2087.73 268.705 2090.67 264.955 Q2093.63 261.205 2098.33 261.205 Q2101.2 261.205 2103.24 262.339 Q2105.3 263.45 2106.64 265.765 M2092.12 274.816 Q2092.12 279.515 2094.05 282.2 Q2095.99 284.862 2099.37 284.862 Q2102.75 284.862 2104.69 282.2 Q2106.64 279.515 2106.64 274.816 Q2106.64 270.117 2104.69 267.455 Q2102.75 264.77 2099.37 264.77 Q2095.99 264.77 2094.05 267.455 Q2092.12 270.117 2092.12 274.816 Z" fill="#000000" fill-rule="nonzero" fill-opacity="1" /><path clip-path="url(#clip850)" d="M2134.69 265.811 Q2133.98 265.395 2133.12 265.21 Q2132.29 265.001 2131.27 265.001 Q2127.66 265.001 2125.71 267.362 Q2123.79 269.7 2123.79 274.098 L2123.79 287.756 L2119.51 287.756 L2119.51 261.83 L2123.79 261.83 L2123.79 265.858 Q2125.13 263.497 2127.29 262.362 Q2129.44 261.205 2132.52 261.205 Q2132.96 261.205 2133.49 261.274 Q2134.02 261.321 2134.67 261.436 L2134.69 265.811 Z" fill="#000000" fill-rule="nonzero" fill-opacity="1" /><path clip-path="url(#clip850)" d="M2160.3 273.728 L2160.3 275.811 L2140.71 275.811 Q2140.99 280.209 2143.35 282.524 Q2145.74 284.816 2149.97 284.816 Q2152.43 284.816 2154.72 284.214 Q2157.03 283.612 2159.3 282.409 L2159.3 286.436 Q2157.01 287.408 2154.6 287.918 Q2152.19 288.427 2149.72 288.427 Q2143.51 288.427 2139.88 284.816 Q2136.27 281.205 2136.27 275.047 Q2136.27 268.682 2139.69 264.955 Q2143.14 261.205 2148.98 261.205 Q2154.21 261.205 2157.24 264.585 Q2160.3 267.941 2160.3 273.728 M2156.04 272.478 Q2155.99 268.983 2154.07 266.899 Q2152.17 264.816 2149.02 264.816 Q2145.46 264.816 2143.31 266.83 Q2141.18 268.844 2140.85 272.501 L2156.04 272.478 Z" fill="#000000" fill-rule="nonzero" fill-opacity="1" /><path clip-path="url(#clip850)" d="M2167.29 261.83 L2171.55 261.83 L2171.55 287.756 L2167.29 287.756 L2167.29 261.83 M2167.29 251.737 L2171.55 251.737 L2171.55 257.131 L2167.29 257.131 L2167.29 251.737 Z" fill="#000000" fill-rule="nonzero" fill-opacity="1" /><path clip-path="url(#clip850)" d="M2200.16 295.626 L2200.16 298.936 L2175.53 298.936 L2175.53 295.626 L2200.16 295.626 Z" fill="#000000" fill-rule="nonzero" fill-opacity="1" /><path clip-path="url(#clip850)" d="M2215.94 274.723 Q2210.78 274.723 2208.79 275.904 Q2206.8 277.084 2206.8 279.932 Q2206.8 282.2 2208.28 283.543 Q2209.79 284.862 2212.36 284.862 Q2215.9 284.862 2218.03 282.362 Q2220.18 279.839 2220.18 275.672 L2220.18 274.723 L2215.94 274.723 M2224.44 272.964 L2224.44 287.756 L2220.18 287.756 L2220.18 283.821 Q2218.72 286.182 2216.55 287.316 Q2214.37 288.427 2211.22 288.427 Q2207.24 288.427 2204.88 286.205 Q2202.54 283.959 2202.54 280.209 Q2202.54 275.834 2205.46 273.612 Q2208.4 271.39 2214.21 271.39 L2220.18 271.39 L2220.18 270.973 Q2220.18 268.034 2218.24 266.436 Q2216.31 264.816 2212.82 264.816 Q2210.6 264.816 2208.49 265.348 Q2206.38 265.881 2204.44 266.946 L2204.44 263.01 Q2206.78 262.108 2208.98 261.668 Q2211.18 261.205 2213.26 261.205 Q2218.88 261.205 2221.66 264.122 Q2224.44 267.038 2224.44 272.964 Z" fill="#000000" fill-rule="nonzero" fill-opacity="1" /><path clip-path="url(#clip850)" d="M2233.21 251.737 L2237.47 251.737 L2237.47 287.756 L2233.21 287.756 L2233.21 251.737 Z" fill="#000000" fill-rule="nonzero" fill-opacity="1" /><path clip-path="url(#clip850)" d="M2250.6 254.469 L2250.6 261.83 L2259.37 261.83 L2259.37 265.14 L2250.6 265.14 L2250.6 279.214 Q2250.6 282.385 2251.45 283.288 Q2252.33 284.191 2254.99 284.191 L2259.37 284.191 L2259.37 287.756 L2254.99 287.756 Q2250.06 287.756 2248.19 285.927 Q2246.31 284.075 2246.31 279.214 L2246.31 265.14 L2243.19 265.14 L2243.19 261.83 L2246.31 261.83 L2246.31 254.469 L2250.6 254.469 Z" fill="#000000" fill-rule="nonzero" fill-opacity="1" /><polyline clip-path="url(#clip850)" style="stroke:#3da44d; stroke-linecap:round; stroke-linejoin:round; stroke-width:4; stroke-opacity:1; fill:none" points="1772.84,322.316 1912.92,322.316 "/>
<path clip-path="url(#clip850)" d="M1936.27 305.036 L1940.95 305.036 L1940.95 335.661 L1957.77 335.661 L1957.77 339.596 L1936.27 339.596 L1936.27 305.036 Z" fill="#000000" fill-rule="nonzero" fill-opacity="1" /><path clip-path="url(#clip850)" d="M1962.68 305.036 L1969.65 305.036 L1978.47 328.554 L1987.33 305.036 L1994.3 305.036 L1994.3 339.596 L1989.74 339.596 L1989.74 309.249 L1980.83 332.952 L1976.13 332.952 L1967.22 309.249 L1967.22 339.596 L1962.68 339.596 L1962.68 305.036 Z" fill="#000000" fill-rule="nonzero" fill-opacity="1" /><path clip-path="url(#clip850)" d="M2023.1 347.466 L2023.1 350.776 L1998.47 350.776 L1998.47 347.466 L2023.1 347.466 Z" fill="#000000" fill-rule="nonzero" fill-opacity="1" /><path clip-path="url(#clip850)" d="M2038.84 309.642 L2032.5 326.841 L2045.2 326.841 L2038.84 309.642 M2036.2 305.036 L2041.5 305.036 L2054.67 339.596 L2049.81 339.596 L2046.66 330.73 L2031.08 330.73 L2027.94 339.596 L2023 339.596 L2036.2 305.036 Z" fill="#000000" fill-rule="nonzero" fill-opacity="1" /><path clip-path="url(#clip850)" d="M2081.08 323.948 L2081.08 339.596 L2076.82 339.596 L2076.82 324.087 Q2076.82 320.406 2075.39 318.577 Q2073.95 316.749 2071.08 316.749 Q2067.63 316.749 2065.64 318.948 Q2063.65 321.147 2063.65 324.943 L2063.65 339.596 L2059.37 339.596 L2059.37 313.67 L2063.65 313.67 L2063.65 317.698 Q2065.18 315.36 2067.24 314.202 Q2069.32 313.045 2072.03 313.045 Q2076.5 313.045 2078.79 315.823 Q2081.08 318.577 2081.08 323.948 Z" fill="#000000" fill-rule="nonzero" fill-opacity="1" /><path clip-path="url(#clip850)" d="M2106.64 317.605 L2106.64 303.577 L2110.9 303.577 L2110.9 339.596 L2106.64 339.596 L2106.64 335.707 Q2105.3 338.022 2103.24 339.156 Q2101.2 340.267 2098.33 340.267 Q2093.63 340.267 2090.67 336.517 Q2087.73 332.767 2087.73 326.656 Q2087.73 320.545 2090.67 316.795 Q2093.63 313.045 2098.33 313.045 Q2101.2 313.045 2103.24 314.179 Q2105.3 315.29 2106.64 317.605 M2092.12 326.656 Q2092.12 331.355 2094.05 334.04 Q2095.99 336.702 2099.37 336.702 Q2102.75 336.702 2104.69 334.04 Q2106.64 331.355 2106.64 326.656 Q2106.64 321.957 2104.69 319.295 Q2102.75 316.61 2099.37 316.61 Q2095.99 316.61 2094.05 319.295 Q2092.12 321.957 2092.12 326.656 Z" fill="#000000" fill-rule="nonzero" fill-opacity="1" /><path clip-path="url(#clip850)" d="M2134.69 317.651 Q2133.98 317.235 2133.12 317.05 Q2132.29 316.841 2131.27 316.841 Q2127.66 316.841 2125.71 319.202 Q2123.79 321.54 2123.79 325.938 L2123.79 339.596 L2119.51 339.596 L2119.51 313.67 L2123.79 313.67 L2123.79 317.698 Q2125.13 315.337 2127.29 314.202 Q2129.44 313.045 2132.52 313.045 Q2132.96 313.045 2133.49 313.114 Q2134.02 313.161 2134.67 313.276 L2134.69 317.651 Z" fill="#000000" fill-rule="nonzero" fill-opacity="1" /><path clip-path="url(#clip850)" d="M2160.3 325.568 L2160.3 327.651 L2140.71 327.651 Q2140.99 332.049 2143.35 334.364 Q2145.74 336.656 2149.97 336.656 Q2152.43 336.656 2154.72 336.054 Q2157.03 335.452 2159.3 334.249 L2159.3 338.276 Q2157.01 339.248 2154.6 339.758 Q2152.19 340.267 2149.72 340.267 Q2143.51 340.267 2139.88 336.656 Q2136.27 333.045 2136.27 326.887 Q2136.27 320.522 2139.69 316.795 Q2143.14 313.045 2148.98 313.045 Q2154.21 313.045 2157.24 316.425 Q2160.3 319.781 2160.3 325.568 M2156.04 324.318 Q2155.99 320.823 2154.07 318.739 Q2152.17 316.656 2149.02 316.656 Q2145.46 316.656 2143.31 318.67 Q2141.18 320.684 2140.85 324.341 L2156.04 324.318 Z" fill="#000000" fill-rule="nonzero" fill-opacity="1" /><path clip-path="url(#clip850)" d="M2167.29 313.67 L2171.55 313.67 L2171.55 339.596 L2167.29 339.596 L2167.29 313.67 M2167.29 303.577 L2171.55 303.577 L2171.55 308.971 L2167.29 308.971 L2167.29 303.577 Z" fill="#000000" fill-rule="nonzero" fill-opacity="1" /><polyline clip-path="url(#clip850)" style="stroke:#c271d2; stroke-linecap:round; stroke-linejoin:round; stroke-width:4; stroke-opacity:1; fill:none" points="1772.84,374.156 1912.92,374.156 "/>
<path clip-path="url(#clip850)" d="M1936.27 356.876 L1940.95 356.876 L1940.95 387.501 L1957.77 387.501 L1957.77 391.436 L1936.27 391.436 L1936.27 356.876 Z" fill="#000000" fill-rule="nonzero" fill-opacity="1" /><path clip-path="url(#clip850)" d="M1962.68 356.876 L1969.65 356.876 L1978.47 380.394 L1987.33 356.876 L1994.3 356.876 L1994.3 391.436 L1989.74 391.436 L1989.74 361.089 L1980.83 384.792 L1976.13 384.792 L1967.22 361.089 L1967.22 391.436 L1962.68 391.436 L1962.68 356.876 Z" fill="#000000" fill-rule="nonzero" fill-opacity="1" /><path clip-path="url(#clip850)" d="M2023.1 399.306 L2023.1 402.616 L1998.47 402.616 L1998.47 399.306 L2023.1 399.306 Z" fill="#000000" fill-rule="nonzero" fill-opacity="1" /><path clip-path="url(#clip850)" d="M2048 358.01 L2048 362.57 Q2045.34 361.297 2042.98 360.672 Q2040.62 360.047 2038.42 360.047 Q2034.6 360.047 2032.52 361.528 Q2030.46 363.01 2030.46 365.741 Q2030.46 368.033 2031.82 369.214 Q2033.21 370.371 2037.06 371.089 L2039.88 371.667 Q2045.11 372.663 2047.59 375.186 Q2050.09 377.686 2050.09 381.899 Q2050.09 386.922 2046.71 389.514 Q2043.35 392.107 2036.85 392.107 Q2034.39 392.107 2031.62 391.551 Q2028.86 390.996 2025.9 389.908 L2025.9 385.093 Q2028.75 386.69 2031.48 387.501 Q2034.21 388.311 2036.85 388.311 Q2040.85 388.311 2043.03 386.737 Q2045.2 385.163 2045.2 382.246 Q2045.2 379.7 2043.63 378.264 Q2042.08 376.829 2038.51 376.112 L2035.67 375.556 Q2030.44 374.515 2028.1 372.292 Q2025.76 370.07 2025.76 366.112 Q2025.76 361.528 2028.98 358.89 Q2032.22 356.251 2037.89 356.251 Q2040.32 356.251 2042.84 356.691 Q2045.37 357.13 2048 358.01 Z" fill="#000000" fill-rule="nonzero" fill-opacity="1" /><path clip-path="url(#clip850)" d="M2062.06 360.718 L2062.06 373.704 L2067.94 373.704 Q2071.2 373.704 2072.98 372.015 Q2074.76 370.325 2074.76 367.2 Q2074.76 364.098 2072.98 362.408 Q2071.2 360.718 2067.94 360.718 L2062.06 360.718 M2057.38 356.876 L2067.94 356.876 Q2073.75 356.876 2076.71 359.515 Q2079.69 362.13 2079.69 367.2 Q2079.69 372.315 2076.71 374.931 Q2073.75 377.547 2067.94 377.547 L2062.06 377.547 L2062.06 391.436 L2057.38 391.436 L2057.38 356.876 Z" fill="#000000" fill-rule="nonzero" fill-opacity="1" /><path clip-path="url(#clip850)" d="M2109.53 386.505 L2109.53 377.223 L2101.89 377.223 L2101.89 373.38 L2114.16 373.38 L2114.16 388.218 Q2111.45 390.139 2108.19 391.135 Q2104.93 392.107 2101.22 392.107 Q2093.12 392.107 2088.54 387.385 Q2083.98 382.639 2083.98 374.19 Q2083.98 365.718 2088.54 360.996 Q2093.12 356.251 2101.22 356.251 Q2104.6 356.251 2107.63 357.084 Q2110.69 357.917 2113.26 359.538 L2113.26 364.515 Q2110.67 362.316 2107.75 361.204 Q2104.83 360.093 2101.62 360.093 Q2095.27 360.093 2092.08 363.635 Q2088.91 367.177 2088.91 374.19 Q2088.91 381.181 2092.08 384.723 Q2095.27 388.264 2101.62 388.264 Q2104.09 388.264 2106.04 387.848 Q2107.98 387.408 2109.53 386.505 Z" fill="#000000" fill-rule="nonzero" fill-opacity="1" /><path clip-path="url(#clip850)" d="M2142.22 399.306 L2142.22 402.616 L2117.59 402.616 L2117.59 399.306 L2142.22 399.306 Z" fill="#000000" fill-rule="nonzero" fill-opacity="1" /><path clip-path="url(#clip850)" d="M2158 378.403 Q2152.84 378.403 2150.85 379.584 Q2148.86 380.764 2148.86 383.612 Q2148.86 385.88 2150.34 387.223 Q2151.85 388.542 2154.42 388.542 Q2157.96 388.542 2160.09 386.042 Q2162.24 383.519 2162.24 379.352 L2162.24 378.403 L2158 378.403 M2166.5 376.644 L2166.5 391.436 L2162.24 391.436 L2162.24 387.501 Q2160.78 389.862 2158.61 390.996 Q2156.43 392.107 2153.28 392.107 Q2149.3 392.107 2146.94 389.885 Q2144.6 387.639 2144.6 383.889 Q2144.6 379.514 2147.52 377.292 Q2150.46 375.07 2156.27 375.07 L2162.24 375.07 L2162.24 374.653 Q2162.24 371.714 2160.3 370.116 Q2158.37 368.496 2154.88 368.496 Q2152.66 368.496 2150.55 369.028 Q2148.44 369.561 2146.5 370.626 L2146.5 366.69 Q2148.84 365.788 2151.04 365.348 Q2153.24 364.885 2155.32 364.885 Q2160.94 364.885 2163.72 367.802 Q2166.5 370.718 2166.5 376.644 Z" fill="#000000" fill-rule="nonzero" fill-opacity="1" /><path clip-path="url(#clip850)" d="M2175.27 355.417 L2179.53 355.417 L2179.53 391.436 L2175.27 391.436 L2175.27 355.417 Z" fill="#000000" fill-rule="nonzero" fill-opacity="1" /><path clip-path="url(#clip850)" d="M2192.66 358.149 L2192.66 365.51 L2201.43 365.51 L2201.43 368.82 L2192.66 368.82 L2192.66 382.894 Q2192.66 386.065 2193.51 386.968 Q2194.39 387.871 2197.05 387.871 L2201.43 387.871 L2201.43 391.436 L2197.05 391.436 Q2192.12 391.436 2190.25 389.607 Q2188.37 387.755 2188.37 382.894 L2188.37 368.82 L2185.25 368.82 L2185.25 365.51 L2188.37 365.51 L2188.37 358.149 L2192.66 358.149 Z" fill="#000000" fill-rule="nonzero" fill-opacity="1" /><polyline clip-path="url(#clip850)" style="stroke:#ac8d18; stroke-linecap:round; stroke-linejoin:round; stroke-width:4; stroke-opacity:1; fill:none" points="1772.84,425.996 1912.92,425.996 "/>
<path clip-path="url(#clip850)" d="M1936.27 408.716 L1940.95 408.716 L1940.95 439.341 L1957.77 439.341 L1957.77 443.276 L1936.27 443.276 L1936.27 408.716 Z" fill="#000000" fill-rule="nonzero" fill-opacity="1" /><path clip-path="url(#clip850)" d="M1962.68 408.716 L1969.65 408.716 L1978.47 432.234 L1987.33 408.716 L1994.3 408.716 L1994.3 443.276 L1989.74 443.276 L1989.74 412.929 L1980.83 436.632 L1976.13 436.632 L1967.22 412.929 L1967.22 443.276 L1962.68 443.276 L1962.68 408.716 Z" fill="#000000" fill-rule="nonzero" fill-opacity="1" /></svg>
