<?xml version="1.0" encoding="utf-8"?>
<svg xmlns="http://www.w3.org/2000/svg" xmlns:xlink="http://www.w3.org/1999/xlink" width="600" height="400" viewBox="0 0 2400 1600">
<defs>
  <clipPath id="clip700">
    <rect x="0" y="0" width="2400" height="1600"/>
  </clipPath>
</defs>
<path clip-path="url(#clip700)" d="M0 1600 L2400 1600 L2400 0 L0 0  Z" fill="#ffffff" fill-rule="evenodd" fill-opacity="1"/>
<defs>
  <clipPath id="clip701">
    <rect x="480" y="0" width="1681" height="1600"/>
  </clipPath>
</defs>
<path clip-path="url(#clip700)" d="M251.56 1423.18 L2352.76 1423.18 L2352.76 123.472 L251.56 123.472  Z" fill="#ffffff" fill-rule="evenodd" fill-opacity="1"/>
<defs>
  <clipPath id="clip702">
    <rect x="251" y="123" width="2102" height="1301"/>
  </clipPath>
</defs>
<polyline clip-path="url(#clip702)" style="stroke:#000000; stroke-linecap:round; stroke-linejoin:round; stroke-width:2; stroke-opacity:0.1; fill:none" points="509.254,1423.18 509.254,123.472 "/>
<polyline clip-path="url(#clip702)" style="stroke:#000000; stroke-linecap:round; stroke-linejoin:round; stroke-width:2; stroke-opacity:0.1; fill:none" points="905.706,1423.18 905.706,123.472 "/>
<polyline clip-path="url(#clip702)" style="stroke:#000000; stroke-linecap:round; stroke-linejoin:round; stroke-width:2; stroke-opacity:0.1; fill:none" points="1302.16,1423.18 1302.16,123.472 "/>
<polyline clip-path="url(#clip702)" style="stroke:#000000; stroke-linecap:round; stroke-linejoin:round; stroke-width:2; stroke-opacity:0.1; fill:none" points="1698.61,1423.18 1698.61,123.472 "/>
<polyline clip-path="url(#clip702)" style="stroke:#000000; stroke-linecap:round; stroke-linejoin:round; stroke-width:2; stroke-opacity:0.1; fill:none" points="2095.06,1423.18 2095.06,123.472 "/>
<polyline clip-path="url(#clip700)" style="stroke:#000000; stroke-linecap:round; stroke-linejoin:round; stroke-width:4; stroke-opacity:1; fill:none" points="251.56,1423.18 2352.76,1423.18 "/>
<polyline clip-path="url(#clip700)" style="stroke:#000000; stroke-linecap:round; stroke-linejoin:round; stroke-width:4; stroke-opacity:1; fill:none" points="509.254,1423.18 509.254,1404.28 "/>
<polyline clip-path="url(#clip700)" style="stroke:#000000; stroke-linecap:round; stroke-linejoin:round; stroke-width:4; stroke-opacity:1; fill:none" points="905.706,1423.18 905.706,1404.28 "/>
<polyline clip-path="url(#clip700)" style="stroke:#000000; stroke-linecap:round; stroke-linejoin:round; stroke-width:4; stroke-opacity:1; fill:none" points="1302.16,1423.18 1302.16,1404.28 "/>
<polyline clip-path="url(#clip700)" style="stroke:#000000; stroke-linecap:round; stroke-linejoin:round; stroke-width:4; stroke-opacity:1; fill:none" points="1698.61,1423.18 1698.61,1404.28 "/>
<polyline clip-path="url(#clip700)" style="stroke:#000000; stroke-linecap:round; stroke-linejoin:round; stroke-width:4; stroke-opacity:1; fill:none" points="2095.06,1423.18 2095.06,1404.28 "/>
<path clip-path="url(#clip700)" d="M503.907 1481.64 L520.226 1481.64 L520.226 1485.58 L498.282 1485.58 L498.282 1481.64 Q500.944 1478.89 505.527 1474.26 Q510.134 1469.61 511.314 1468.27 Q513.56 1465.74 514.439 1464.01 Q515.342 1462.25 515.342 1460.56 Q515.342 1457.8 513.398 1456.07 Q511.476 1454.33 508.374 1454.33 Q506.175 1454.33 503.722 1455.09 Q501.291 1455.86 498.513 1457.41 L498.513 1452.69 Q501.337 1451.55 503.791 1450.97 Q506.245 1450.39 508.282 1450.39 Q513.652 1450.39 516.847 1453.08 Q520.041 1455.77 520.041 1460.26 Q520.041 1462.39 519.231 1464.31 Q518.444 1466.2 516.337 1468.8 Q515.759 1469.47 512.657 1472.69 Q509.555 1475.88 503.907 1481.64 Z" fill="#000000" fill-rule="nonzero" fill-opacity="1" /><path clip-path="url(#clip700)" d="M908.715 1455.09 L896.91 1473.54 L908.715 1473.54 L908.715 1455.09 M907.488 1451.02 L913.368 1451.02 L913.368 1473.54 L918.299 1473.54 L918.299 1477.43 L913.368 1477.43 L913.368 1485.58 L908.715 1485.58 L908.715 1477.43 L893.114 1477.43 L893.114 1472.92 L907.488 1451.02 Z" fill="#000000" fill-rule="nonzero" fill-opacity="1" /><path clip-path="url(#clip700)" d="M1302.56 1466.44 Q1299.42 1466.44 1297.56 1468.59 Q1295.73 1470.74 1295.73 1474.49 Q1295.73 1478.22 1297.56 1480.39 Q1299.42 1482.55 1302.56 1482.55 Q1305.71 1482.55 1307.54 1480.39 Q1309.39 1478.22 1309.39 1474.49 Q1309.39 1470.74 1307.54 1468.59 Q1305.71 1466.44 1302.56 1466.44 M1311.85 1451.78 L1311.85 1456.04 Q1310.09 1455.21 1308.28 1454.77 Q1306.5 1454.33 1304.74 1454.33 Q1300.11 1454.33 1297.66 1457.45 Q1295.23 1460.58 1294.88 1466.9 Q1296.24 1464.89 1298.3 1463.82 Q1300.36 1462.73 1302.84 1462.73 Q1308.05 1462.73 1311.06 1465.9 Q1314.09 1469.05 1314.09 1474.49 Q1314.09 1479.82 1310.94 1483.03 Q1307.79 1486.25 1302.56 1486.25 Q1296.57 1486.25 1293.4 1481.67 Q1290.23 1477.06 1290.23 1468.33 Q1290.23 1460.14 1294.11 1455.28 Q1298 1450.39 1304.55 1450.39 Q1306.31 1450.39 1308.1 1450.74 Q1309.9 1451.09 1311.85 1451.78 Z" fill="#000000" fill-rule="nonzero" fill-opacity="1" /><path clip-path="url(#clip700)" d="M1698.61 1469.17 Q1695.28 1469.17 1693.36 1470.95 Q1691.46 1472.73 1691.46 1475.86 Q1691.46 1478.98 1693.36 1480.77 Q1695.28 1482.55 1698.61 1482.55 Q1701.94 1482.55 1703.86 1480.77 Q1705.79 1478.96 1705.79 1475.86 Q1705.79 1472.73 1703.86 1470.95 Q1701.97 1469.17 1698.61 1469.17 M1693.93 1467.18 Q1690.92 1466.44 1689.24 1464.38 Q1687.57 1462.32 1687.57 1459.35 Q1687.57 1455.21 1690.51 1452.8 Q1693.47 1450.39 1698.61 1450.39 Q1703.77 1450.39 1706.71 1452.8 Q1709.65 1455.21 1709.65 1459.35 Q1709.65 1462.32 1707.96 1464.38 Q1706.3 1466.44 1703.31 1467.18 Q1706.69 1467.96 1708.56 1470.26 Q1710.46 1472.55 1710.46 1475.86 Q1710.46 1480.88 1707.38 1483.57 Q1704.33 1486.25 1698.61 1486.25 Q1692.89 1486.25 1689.81 1483.57 Q1686.76 1480.88 1686.76 1475.86 Q1686.76 1472.55 1688.66 1470.26 Q1690.55 1467.96 1693.93 1467.18 M1692.22 1459.79 Q1692.22 1462.48 1693.89 1463.98 Q1695.58 1465.49 1698.61 1465.49 Q1701.62 1465.49 1703.31 1463.98 Q1705.02 1462.48 1705.02 1459.79 Q1705.02 1457.11 1703.31 1455.6 Q1701.62 1454.1 1698.61 1454.1 Q1695.58 1454.1 1693.89 1455.6 Q1692.22 1457.11 1692.22 1459.79 Z" fill="#000000" fill-rule="nonzero" fill-opacity="1" /><path clip-path="url(#clip700)" d="M2069.75 1481.64 L2077.39 1481.64 L2077.39 1455.28 L2069.08 1456.95 L2069.08 1452.69 L2077.34 1451.02 L2082.02 1451.02 L2082.02 1481.64 L2089.66 1481.64 L2089.66 1485.58 L2069.75 1485.58 L2069.75 1481.64 Z" fill="#000000" fill-rule="nonzero" fill-opacity="1" /><path clip-path="url(#clip700)" d="M2109.1 1454.1 Q2105.49 1454.1 2103.66 1457.66 Q2101.86 1461.2 2101.86 1468.33 Q2101.86 1475.44 2103.66 1479.01 Q2105.49 1482.55 2109.1 1482.55 Q2112.74 1482.55 2114.54 1479.01 Q2116.37 1475.44 2116.37 1468.33 Q2116.37 1461.2 2114.54 1457.66 Q2112.74 1454.1 2109.1 1454.1 M2109.1 1450.39 Q2114.91 1450.39 2117.97 1455 Q2121.05 1459.58 2121.05 1468.33 Q2121.05 1477.06 2117.97 1481.67 Q2114.91 1486.25 2109.1 1486.25 Q2103.29 1486.25 2100.21 1481.67 Q2097.16 1477.06 2097.16 1468.33 Q2097.16 1459.58 2100.21 1455 Q2103.29 1450.39 2109.1 1450.39 Z" fill="#000000" fill-rule="nonzero" fill-opacity="1" /><path clip-path="url(#clip700)" d="M1286.34 1518.52 L1292.23 1518.52 L1292.23 1547.77 L1309.7 1532.4 L1317.18 1532.4 L1298.27 1549.07 L1317.98 1568.04 L1310.34 1568.04 L1292.23 1550.63 L1292.23 1568.04 L1286.34 1568.04 L1286.34 1518.52 Z" fill="#000000" fill-rule="nonzero" fill-opacity="1" /><polyline clip-path="url(#clip702)" style="stroke:#000000; stroke-linecap:round; stroke-linejoin:round; stroke-width:2; stroke-opacity:0.1; fill:none" points="251.56,1007.25 2352.76,1007.25 "/>
<polyline clip-path="url(#clip702)" style="stroke:#000000; stroke-linecap:round; stroke-linejoin:round; stroke-width:2; stroke-opacity:0.1; fill:none" points="251.56,332.694 2352.76,332.694 "/>
<polyline clip-path="url(#clip700)" style="stroke:#000000; stroke-linecap:round; stroke-linejoin:round; stroke-width:4; stroke-opacity:1; fill:none" points="251.56,1423.18 251.56,123.472 "/>
<polyline clip-path="url(#clip700)" style="stroke:#000000; stroke-linecap:round; stroke-linejoin:round; stroke-width:4; stroke-opacity:1; fill:none" points="251.56,1007.25 270.458,1007.25 "/>
<polyline clip-path="url(#clip700)" style="stroke:#000000; stroke-linecap:round; stroke-linejoin:round; stroke-width:4; stroke-opacity:1; fill:none" points="251.56,332.694 270.458,332.694 "/>
<path clip-path="url(#clip700)" d="M114.931 1027.05 L122.57 1027.05 L122.57 1000.68 L114.26 1002.35 L114.26 998.088 L122.524 996.421 L127.2 996.421 L127.2 1027.05 L134.839 1027.05 L134.839 1030.98 L114.931 1030.98 L114.931 1027.05 Z" fill="#000000" fill-rule="nonzero" fill-opacity="1" /><path clip-path="url(#clip700)" d="M154.283 999.5 Q150.672 999.5 148.843 1003.06 Q147.038 1006.61 147.038 1013.74 Q147.038 1020.84 148.843 1024.41 Q150.672 1027.95 154.283 1027.95 Q157.917 1027.95 159.723 1024.41 Q161.552 1020.84 161.552 1013.74 Q161.552 1006.61 159.723 1003.06 Q157.917 999.5 154.283 999.5 M154.283 995.796 Q160.093 995.796 163.149 1000.4 Q166.227 1004.99 166.227 1013.74 Q166.227 1022.46 163.149 1027.07 Q160.093 1031.65 154.283 1031.65 Q148.473 1031.65 145.394 1027.07 Q142.339 1022.46 142.339 1013.74 Q142.339 1004.99 145.394 1000.4 Q148.473 995.796 154.283 995.796 Z" fill="#000000" fill-rule="nonzero" fill-opacity="1" /><path clip-path="url(#clip700)" d="M166.227 989.898 L190.339 989.898 L190.339 993.095 L166.227 993.095 L166.227 989.898 Z" fill="#000000" fill-rule="nonzero" fill-opacity="1" /><path clip-path="url(#clip700)" d="M198.577 975.491 L213.491 975.491 L213.491 978.688 L202.056 978.688 L202.056 985.572 Q202.884 985.29 203.711 985.158 Q204.539 985.008 205.366 985.008 Q210.068 985.008 212.814 987.584 Q215.56 990.161 215.56 994.562 Q215.56 999.095 212.739 1001.61 Q209.918 1004.12 204.783 1004.12 Q203.015 1004.12 201.172 1003.82 Q199.348 1003.51 197.392 1002.91 L197.392 999.095 Q199.085 1000.02 200.89 1000.47 Q202.696 1000.92 204.708 1000.92 Q207.962 1000.92 209.861 999.207 Q211.761 997.496 211.761 994.562 Q211.761 991.628 209.861 989.916 Q207.962 988.205 204.708 988.205 Q203.185 988.205 201.661 988.543 Q200.157 988.882 198.577 989.597 L198.577 975.491 Z" fill="#000000" fill-rule="nonzero" fill-opacity="1" /><path clip-path="url(#clip700)" d="M144.855 352.487 L152.493 352.487 L152.493 326.121 L144.183 327.788 L144.183 323.528 L152.447 321.862 L157.123 321.862 L157.123 352.487 L164.762 352.487 L164.762 356.422 L144.855 356.422 L144.855 352.487 Z" fill="#000000" fill-rule="nonzero" fill-opacity="1" /><path clip-path="url(#clip700)" d="M184.206 324.94 Q180.595 324.94 178.766 328.505 Q176.961 332.047 176.961 339.176 Q176.961 346.283 178.766 349.848 Q180.595 353.389 184.206 353.389 Q187.84 353.389 189.646 349.848 Q191.475 346.283 191.475 339.176 Q191.475 332.047 189.646 328.505 Q187.84 324.94 184.206 324.94 M184.206 321.237 Q190.016 321.237 193.072 325.843 Q196.151 330.426 196.151 339.176 Q196.151 347.903 193.072 352.51 Q190.016 357.093 184.206 357.093 Q178.396 357.093 175.317 352.51 Q172.262 347.903 172.262 339.176 Q172.262 330.426 175.317 325.843 Q178.396 321.237 184.206 321.237 Z" fill="#000000" fill-rule="nonzero" fill-opacity="1" /><path clip-path="url(#clip700)" d="M205.855 303.433 Q202.921 303.433 201.436 306.329 Q199.969 309.207 199.969 315 Q199.969 320.774 201.436 323.67 Q202.921 326.547 205.855 326.547 Q208.808 326.547 210.275 323.67 Q211.761 320.774 211.761 315 Q211.761 309.207 210.275 306.329 Q208.808 303.433 205.855 303.433 M205.855 300.424 Q210.576 300.424 213.059 304.166 Q215.56 307.89 215.56 315 Q215.56 322.09 213.059 325.833 Q210.576 329.557 205.855 329.557 Q201.135 329.557 198.633 325.833 Q196.151 322.09 196.151 315 Q196.151 307.89 198.633 304.166 Q201.135 300.424 205.855 300.424 Z" fill="#000000" fill-rule="nonzero" fill-opacity="1" /><path clip-path="url(#clip700)" d="M32.4621 801.797 Q32.4621 806.507 36.1542 809.244 Q39.8145 811.982 46.212 811.982 Q52.6095 811.982 56.3017 809.276 Q59.9619 806.539 59.9619 801.797 Q59.9619 797.118 56.2698 794.381 Q52.5777 791.643 46.212 791.643 Q39.8781 791.643 36.186 794.381 Q32.4621 797.118 32.4621 801.797 M27.4968 801.797 Q27.4968 794.158 32.4621 789.797 Q37.4273 785.437 46.212 785.437 Q54.9649 785.437 59.9619 789.797 Q64.9272 794.158 64.9272 801.797 Q64.9272 809.467 59.9619 813.828 Q54.9649 818.156 46.212 818.156 Q37.4273 818.156 32.4621 813.828 Q27.4968 809.467 27.4968 801.797 Z" fill="#000000" fill-rule="nonzero" fill-opacity="1" /><path clip-path="url(#clip700)" d="M46.212 750.139 Q39.7508 750.139 36.0905 752.812 Q32.3984 755.454 32.3984 760.101 Q32.3984 764.748 36.0905 767.422 Q39.7508 770.064 46.212 770.064 Q52.6732 770.064 56.3653 767.422 Q60.0256 764.748 60.0256 760.101 Q60.0256 755.454 56.3653 752.812 Q52.6732 750.139 46.212 750.139 M33.7671 770.064 Q30.5842 768.218 29.0564 765.417 Q27.4968 762.584 27.4968 758.669 Q27.4968 752.176 32.6531 748.134 Q37.8093 744.06 46.212 744.06 Q54.6147 744.06 59.771 748.134 Q64.9272 752.176 64.9272 758.669 Q64.9272 762.584 63.3994 765.417 Q61.8398 768.218 58.657 770.064 L64.0042 770.064 L64.0042 775.952 L14.479 775.952 L14.479 770.064 L33.7671 770.064 Z" fill="#000000" fill-rule="nonzero" fill-opacity="1" /><path clip-path="url(#clip700)" d="M28.3562 734.352 L28.3562 728.495 L64.6407 728.495 Q71.452 728.495 74.5076 731.105 Q77.5631 733.684 77.5631 739.445 L77.5631 741.673 L72.5979 741.673 L72.5979 740.113 Q72.5979 736.771 71.0383 735.561 Q69.5105 734.352 64.6407 734.352 L28.3562 734.352 M14.479 734.352 L14.479 728.495 L21.895 728.495 L21.895 734.352 L14.479 734.352 Z" fill="#000000" fill-rule="nonzero" fill-opacity="1" /><path clip-path="url(#clip700)" d="M933.931 65.7705 L933.931 89.8329 L926.437 89.8329 L926.437 27.2059 L933.931 27.2059 L933.931 34.0924 Q936.28 30.0415 939.845 28.0971 Q943.451 26.1121 948.433 26.1121 Q956.697 26.1121 961.842 32.6746 Q967.027 39.2371 967.027 49.9314 Q967.027 60.6258 961.842 67.1883 Q956.697 73.7508 948.433 73.7508 Q943.451 73.7508 939.845 71.8063 Q936.28 69.8214 933.931 65.7705 M959.29 49.9314 Q959.29 41.7081 955.887 37.0496 Q952.525 32.3505 946.61 32.3505 Q940.696 32.3505 937.293 37.0496 Q933.931 41.7081 933.931 49.9314 Q933.931 58.1548 937.293 62.8538 Q940.696 67.5124 946.61 67.5124 Q952.525 67.5124 955.887 62.8538 Q959.29 58.1548 959.29 49.9314 Z" fill="#000000" fill-rule="nonzero" fill-opacity="1" /><path clip-path="url(#clip700)" d="M1005.67 34.1734 Q1004.42 33.4443 1002.92 33.1202 Q1001.46 32.7556 999.677 32.7556 Q993.358 32.7556 989.955 36.8875 Q986.593 40.9789 986.593 48.6757 L986.593 72.576 L979.098 72.576 L979.098 27.2059 L986.593 27.2059 L986.593 34.2544 Q988.942 30.1225 992.71 28.1376 Q996.477 26.1121 1001.86 26.1121 Q1002.63 26.1121 1003.57 26.2337 Q1004.5 26.3147 1005.63 26.5172 L1005.67 34.1734 Z" fill="#000000" fill-rule="nonzero" fill-opacity="1" /><path clip-path="url(#clip700)" d="M1029.25 32.4315 Q1023.25 32.4315 1019.77 37.1306 Q1016.29 41.7891 1016.29 49.9314 Q1016.29 58.0738 1019.73 62.7728 Q1023.21 67.4314 1029.25 67.4314 Q1035.2 67.4314 1038.69 62.7323 Q1042.17 58.0333 1042.17 49.9314 Q1042.17 41.8701 1038.69 37.1711 Q1035.2 32.4315 1029.25 32.4315 M1029.25 26.1121 Q1038.97 26.1121 1044.52 32.4315 Q1050.07 38.7509 1050.07 49.9314 Q1050.07 61.0714 1044.52 67.4314 Q1038.97 73.7508 1029.25 73.7508 Q1019.49 73.7508 1013.94 67.4314 Q1008.43 61.0714 1008.43 49.9314 Q1008.43 38.7509 1013.94 32.4315 Q1019.49 26.1121 1029.25 26.1121 Z" fill="#000000" fill-rule="nonzero" fill-opacity="1" /><path clip-path="url(#clip700)" d="M1094.99 49.9314 Q1094.99 41.7081 1091.59 37.0496 Q1088.23 32.3505 1082.32 32.3505 Q1076.4 32.3505 1073 37.0496 Q1069.64 41.7081 1069.64 49.9314 Q1069.64 58.1548 1073 62.8538 Q1076.4 67.5124 1082.32 67.5124 Q1088.23 67.5124 1091.59 62.8538 Q1094.99 58.1548 1094.99 49.9314 M1069.64 34.0924 Q1071.99 30.0415 1075.55 28.0971 Q1079.16 26.1121 1084.14 26.1121 Q1092.4 26.1121 1097.55 32.6746 Q1102.73 39.2371 1102.73 49.9314 Q1102.73 60.6258 1097.55 67.1883 Q1092.4 73.7508 1084.14 73.7508 Q1079.16 73.7508 1075.55 71.8063 Q1071.99 69.8214 1069.64 65.7705 L1069.64 72.576 L1062.14 72.576 L1062.14 9.54393 L1069.64 9.54393 L1069.64 34.0924 Z" fill="#000000" fill-rule="nonzero" fill-opacity="1" /><path clip-path="url(#clip700)" d="M1115.09 9.54393 L1122.54 9.54393 L1122.54 72.576 L1115.09 72.576 L1115.09 9.54393 Z" fill="#000000" fill-rule="nonzero" fill-opacity="1" /><path clip-path="url(#clip700)" d="M1176.94 48.0275 L1176.94 51.6733 L1142.67 51.6733 Q1143.16 59.3701 1147.29 63.421 Q1151.46 67.4314 1158.88 67.4314 Q1163.17 67.4314 1167.18 66.3781 Q1171.23 65.3249 1175.2 63.2184 L1175.2 70.267 Q1171.19 71.9684 1166.98 72.8596 Q1162.77 73.7508 1158.43 73.7508 Q1147.58 73.7508 1141.22 67.4314 Q1134.9 61.1119 1134.9 50.3365 Q1134.9 39.1965 1140.89 32.6746 Q1146.93 26.1121 1157.14 26.1121 Q1166.29 26.1121 1171.6 32.0264 Q1176.94 37.9003 1176.94 48.0275 M1169.49 45.84 Q1169.41 39.7232 1166.05 36.0774 Q1162.73 32.4315 1157.22 32.4315 Q1150.98 32.4315 1147.21 35.9558 Q1143.48 39.4801 1142.92 45.8805 L1169.49 45.84 M1150.82 6.22219 L1162.24 21.3726 L1156.04 21.3726 L1142.84 6.22219 L1150.82 6.22219 Z" fill="#000000" fill-rule="nonzero" fill-opacity="1" /><path clip-path="url(#clip700)" d="M1224.5 35.9153 Q1227.3 30.8922 1231.19 28.5022 Q1235.08 26.1121 1240.34 26.1121 Q1247.43 26.1121 1251.28 31.0947 Q1255.13 36.0368 1255.13 45.1919 L1255.13 72.576 L1247.63 72.576 L1247.63 45.4349 Q1247.63 38.913 1245.32 35.7533 Q1243.01 32.5936 1238.28 32.5936 Q1232.48 32.5936 1229.12 36.4419 Q1225.76 40.2903 1225.76 46.9338 L1225.76 72.576 L1218.26 72.576 L1218.26 45.4349 Q1218.26 38.8725 1215.95 35.7533 Q1213.65 32.5936 1208.83 32.5936 Q1203.11 32.5936 1199.75 36.4824 Q1196.39 40.3308 1196.39 46.9338 L1196.39 72.576 L1188.89 72.576 L1188.89 27.2059 L1196.39 27.2059 L1196.39 34.2544 Q1198.94 30.082 1202.51 28.0971 Q1206.07 26.1121 1210.97 26.1121 Q1215.91 26.1121 1219.36 28.6237 Q1222.84 31.1352 1224.5 35.9153 Z" fill="#000000" fill-rule="nonzero" fill-opacity="1" /><path clip-path="url(#clip700)" d="M1308.8 48.0275 L1308.8 51.6733 L1274.53 51.6733 Q1275.02 59.3701 1279.15 63.421 Q1283.32 67.4314 1290.73 67.4314 Q1295.03 67.4314 1299.04 66.3781 Q1303.09 65.3249 1307.06 63.2184 L1307.06 70.267 Q1303.05 71.9684 1298.84 72.8596 Q1294.62 73.7508 1290.29 73.7508 Q1279.43 73.7508 1273.07 67.4314 Q1266.75 61.1119 1266.75 50.3365 Q1266.75 39.1965 1272.75 32.6746 Q1278.78 26.1121 1288.99 26.1121 Q1298.15 26.1121 1303.45 32.0264 Q1308.8 37.9003 1308.8 48.0275 M1301.35 45.84 Q1301.27 39.7232 1297.9 36.0774 Q1294.58 32.4315 1289.07 32.4315 Q1282.84 32.4315 1279.07 35.9558 Q1275.34 39.4801 1274.77 45.8805 L1301.35 45.84 Z" fill="#000000" fill-rule="nonzero" fill-opacity="1" /><path clip-path="url(#clip700)" d="M1349.31 62.2867 L1357.86 62.2867 L1357.86 72.576 L1349.31 72.576 L1349.31 62.2867 M1349.31 29.6769 L1357.86 29.6769 L1357.86 39.9662 L1349.31 39.9662 L1349.31 29.6769 Z" fill="#000000" fill-rule="nonzero" fill-opacity="1" /><path clip-path="url(#clip700)" d="M1437.05 35.9153 Q1439.85 30.8922 1443.74 28.5022 Q1447.63 26.1121 1452.89 26.1121 Q1459.98 26.1121 1463.83 31.0947 Q1467.68 36.0368 1467.68 45.1919 L1467.68 72.576 L1460.18 72.576 L1460.18 45.4349 Q1460.18 38.913 1457.87 35.7533 Q1455.57 32.5936 1450.83 32.5936 Q1445.03 32.5936 1441.67 36.4419 Q1438.31 40.2903 1438.31 46.9338 L1438.31 72.576 L1430.81 72.576 L1430.81 45.4349 Q1430.81 38.8725 1428.51 35.7533 Q1426.2 32.5936 1421.38 32.5936 Q1415.66 32.5936 1412.3 36.4824 Q1408.94 40.3308 1408.94 46.9338 L1408.94 72.576 L1401.45 72.576 L1401.45 27.2059 L1408.94 27.2059 L1408.94 34.2544 Q1411.49 30.082 1415.06 28.0971 Q1418.62 26.1121 1423.52 26.1121 Q1428.47 26.1121 1431.91 28.6237 Q1435.39 31.1352 1437.05 35.9153 Z" fill="#000000" fill-rule="nonzero" fill-opacity="1" /><path clip-path="url(#clip700)" d="M1512.4 49.3643 Q1512.4 41.2625 1509.04 36.8065 Q1505.72 32.3505 1499.68 32.3505 Q1493.68 32.3505 1490.32 36.8065 Q1487 41.2625 1487 49.3643 Q1487 57.4256 1490.32 61.8816 Q1493.68 66.3376 1499.68 66.3376 Q1505.72 66.3376 1509.04 61.8816 Q1512.4 57.4256 1512.4 49.3643 M1519.85 66.9452 Q1519.85 78.5308 1514.71 84.1616 Q1509.56 89.8329 1498.95 89.8329 Q1495.02 89.8329 1491.54 89.2252 Q1488.05 88.6581 1484.77 87.4428 L1484.77 80.1917 Q1488.05 81.9741 1491.25 82.8248 Q1494.45 83.6755 1497.78 83.6755 Q1505.11 83.6755 1508.75 79.8271 Q1512.4 76.0193 1512.4 68.282 L1512.4 64.5957 Q1510.09 68.6061 1506.49 70.5911 Q1502.88 72.576 1497.86 72.576 Q1489.51 72.576 1484.41 66.2161 Q1479.3 59.8562 1479.3 49.3643 Q1479.3 38.832 1484.41 32.472 Q1489.51 26.1121 1497.86 26.1121 Q1502.88 26.1121 1506.49 28.0971 Q1510.09 30.082 1512.4 34.0924 L1512.4 27.2059 L1519.85 27.2059 L1519.85 66.9452 Z" fill="#000000" fill-rule="nonzero" fill-opacity="1" /><path clip-path="url(#clip700)" d="M1572.92 45.1919 L1572.92 72.576 L1565.47 72.576 L1565.47 45.4349 Q1565.47 38.994 1562.96 35.7938 Q1560.44 32.5936 1555.42 32.5936 Q1549.38 32.5936 1545.9 36.4419 Q1542.42 40.2903 1542.42 46.9338 L1542.42 72.576 L1534.92 72.576 L1534.92 9.54393 L1542.42 9.54393 L1542.42 34.2544 Q1545.09 30.163 1548.7 28.1376 Q1552.34 26.1121 1557.08 26.1121 Q1564.9 26.1121 1568.91 30.9732 Q1572.92 35.7938 1572.92 45.1919 Z" fill="#000000" fill-rule="nonzero" fill-opacity="1" /><path clip-path="url(#clip700)" d="M1613.63 39.9662 Q1619.51 41.222 1622.79 45.1919 Q1626.11 49.1618 1626.11 54.9951 Q1626.11 63.9476 1619.95 68.8492 Q1613.79 73.7508 1602.45 73.7508 Q1598.64 73.7508 1594.59 72.9811 Q1590.58 72.2519 1586.29 70.7531 L1586.29 62.8538 Q1589.69 64.8388 1593.74 65.8515 Q1597.79 66.8642 1602.21 66.8642 Q1609.91 66.8642 1613.92 63.826 Q1617.97 60.7879 1617.97 54.9951 Q1617.97 49.6479 1614.2 46.6502 Q1610.47 43.612 1603.79 43.612 L1596.74 43.612 L1596.74 36.8875 L1604.11 36.8875 Q1610.15 36.8875 1613.35 34.4975 Q1616.55 32.067 1616.55 27.5299 Q1616.55 22.8714 1613.23 20.4004 Q1609.95 17.8888 1603.79 17.8888 Q1600.43 17.8888 1596.58 18.618 Q1592.73 19.3471 1588.11 20.8865 L1588.11 13.5948 Q1592.77 12.2985 1596.82 11.6504 Q1600.91 11.0023 1604.52 11.0023 Q1613.83 11.0023 1619.26 15.2557 Q1624.69 19.4686 1624.69 26.6793 Q1624.69 31.7024 1621.81 35.1862 Q1618.94 38.6294 1613.63 39.9662 Z" fill="#000000" fill-rule="nonzero" fill-opacity="1" /><path clip-path="url(#clip700)" d="M1643.04 65.6895 L1656.41 65.6895 L1656.41 19.5497 L1641.87 22.4663 L1641.87 15.0127 L1656.33 12.096 L1664.51 12.096 L1664.51 65.6895 L1677.88 65.6895 L1677.88 72.576 L1643.04 72.576 L1643.04 65.6895 Z" fill="#000000" fill-rule="nonzero" fill-opacity="1" /><polyline clip-path="url(#clip702)" style="stroke:#009af9; stroke-linecap:round; stroke-linejoin:round; stroke-width:4; stroke-opacity:1; fill:none" points="311.028,160.256 509.254,243.98 707.48,303.378 905.706,384.372 1103.93,505.325 1302.16,626.536 1500.38,744.669 1698.61,861.289 1896.84,977.215 2095.06,1092.79 2293.29,1208.17 "/>
<polyline clip-path="url(#clip702)" style="stroke:#e26f46; stroke-linecap:round; stroke-linejoin:round; stroke-width:4; stroke-opacity:1; fill:none" points="311.028,160.256 509.254,243.98 707.48,302.727 905.706,375.728 1103.93,477.683 1302.16,619.691 1500.38,771.095 1698.61,895.556 1896.84,1052.45 2095.06,1353.94 "/>
<polyline clip-path="url(#clip702)" style="stroke:#3da44d; stroke-linecap:round; stroke-linejoin:round; stroke-width:4; stroke-opacity:1; fill:none" points="311.028,160.256 509.254,243.98 707.48,302.727 905.706,375.728 1103.93,477.683 1302.16,619.691 1500.38,771.095 1698.61,895.556 1896.84,1052.45 2095.06,1353.94 "/>
<polyline clip-path="url(#clip702)" style="stroke:#c271d2; stroke-linecap:round; stroke-linejoin:round; stroke-width:4; stroke-opacity:1; fill:none" points="311.028,160.256 509.254,243.98 707.48,303.378 905.706,384.372 1103.93,505.325 1302.16,626.536 1500.38,744.669 1698.61,861.289 1896.84,977.215 2095.06,1092.79 2293.29,1208.17 "/>
<polyline clip-path="url(#clip702)" style="stroke:#ac8d18; stroke-linecap:round; stroke-linejoin:round; stroke-width:4; stroke-opacity:1; fill:none" points="311.028,160.256 509.254,244.269 707.48,349.775 905.706,510.806 1103.93,805.489 1302.16,1386.4 "/>
<path clip-path="url(#clip700)" d="M1749.5 477.836 L2282.72 477.836 L2282.72 166.796 L1749.5 166.796  Z" fill="#ffffff" fill-rule="evenodd" fill-opacity="1"/>
<polyline clip-path="url(#clip700)" style="stroke:#000000; stroke-linecap:round; stroke-linejoin:round; stroke-width:4; stroke-opacity:1; fill:none" points="1749.5,477.836 2282.72,477.836 2282.72,166.796 1749.5,166.796 1749.5,477.836 "/>
<polyline clip-path="url(#clip700)" style="stroke:#009af9; stroke-linecap:round; stroke-linejoin:round; stroke-width:4; stroke-opacity:1; fill:none" points="1772.84,218.636 1912.92,218.636 "/>
<path clip-path="url(#clip700)" d="M1936.27 201.356 L1940.95 201.356 L1940.95 231.981 L1957.77 231.981 L1957.77 235.916 L1936.27 235.916 L1936.27 201.356 Z" fill="#000000" fill-rule="nonzero" fill-opacity="1" /><path clip-path="url(#clip700)" d="M1962.68 201.356 L1969.65 201.356 L1978.47 224.874 L1987.33 201.356 L1994.3 201.356 L1994.3 235.916 L1989.74 235.916 L1989.74 205.569 L1980.83 229.272 L1976.13 229.272 L1967.22 205.569 L1967.22 235.916 L1962.68 235.916 L1962.68 201.356 Z" fill="#000000" fill-rule="nonzero" fill-opacity="1" /><path clip-path="url(#clip700)" d="M2023.1 243.786 L2023.1 247.096 L1998.47 247.096 L1998.47 243.786 L2023.1 243.786 Z" fill="#000000" fill-rule="nonzero" fill-opacity="1" /><path clip-path="url(#clip700)" d="M2048 202.49 L2048 207.05 Q2045.34 205.777 2042.98 205.152 Q2040.62 204.527 2038.42 204.527 Q2034.6 204.527 2032.52 206.008 Q2030.46 207.49 2030.46 210.221 Q2030.46 212.513 2031.82 213.694 Q2033.21 214.851 2037.06 215.569 L2039.88 216.147 Q2045.11 217.143 2047.59 219.666 Q2050.09 222.166 2050.09 226.379 Q2050.09 231.402 2046.71 233.994 Q2043.35 236.587 2036.85 236.587 Q2034.39 236.587 2031.62 236.031 Q2028.86 235.476 2025.9 234.388 L2025.9 229.573 Q2028.75 231.17 2031.48 231.981 Q2034.21 232.791 2036.85 232.791 Q2040.85 232.791 2043.03 231.217 Q2045.2 229.643 2045.2 226.726 Q2045.2 224.18 2043.63 222.744 Q2042.08 221.309 2038.51 220.592 L2035.67 220.036 Q2030.44 218.995 2028.1 216.772 Q2025.76 214.55 2025.76 210.592 Q2025.76 206.008 2028.98 203.37 Q2032.22 200.731 2037.89 200.731 Q2040.32 200.731 2042.84 201.171 Q2045.37 201.61 2048 202.49 Z" fill="#000000" fill-rule="nonzero" fill-opacity="1" /><path clip-path="url(#clip700)" d="M2062.06 205.198 L2062.06 218.184 L2067.94 218.184 Q2071.2 218.184 2072.98 216.495 Q2074.76 214.805 2074.76 211.68 Q2074.76 208.578 2072.98 206.888 Q2071.2 205.198 2067.94 205.198 L2062.06 205.198 M2057.38 201.356 L2067.94 201.356 Q2073.75 201.356 2076.71 203.995 Q2079.69 206.61 2079.69 211.68 Q2079.69 216.795 2076.71 219.411 Q2073.75 222.027 2067.94 222.027 L2062.06 222.027 L2062.06 235.916 L2057.38 235.916 L2057.38 201.356 Z" fill="#000000" fill-rule="nonzero" fill-opacity="1" /><path clip-path="url(#clip700)" d="M2109.53 230.985 L2109.53 221.703 L2101.89 221.703 L2101.89 217.86 L2114.16 217.86 L2114.16 232.698 Q2111.45 234.619 2108.19 235.615 Q2104.93 236.587 2101.22 236.587 Q2093.12 236.587 2088.54 231.865 Q2083.98 227.119 2083.98 218.67 Q2083.98 210.198 2088.54 205.476 Q2093.12 200.731 2101.22 200.731 Q2104.6 200.731 2107.63 201.564 Q2110.69 202.397 2113.26 204.018 L2113.26 208.995 Q2110.67 206.796 2107.75 205.684 Q2104.83 204.573 2101.62 204.573 Q2095.27 204.573 2092.08 208.115 Q2088.91 211.657 2088.91 218.67 Q2088.91 225.661 2092.08 229.203 Q2095.27 232.744 2101.62 232.744 Q2104.09 232.744 2106.04 232.328 Q2107.98 231.888 2109.53 230.985 Z" fill="#000000" fill-rule="nonzero" fill-opacity="1" /><polyline clip-path="url(#clip700)" style="stroke:#e26f46; stroke-linecap:round; stroke-linejoin:round; stroke-width:4; stroke-opacity:1; fill:none" points="1772.84,270.476 1912.92,270.476 "/>
<path clip-path="url(#clip700)" d="M1936.27 253.196 L1940.95 253.196 L1940.95 283.821 L1957.77 283.821 L1957.77 287.756 L1936.27 287.756 L1936.27 253.196 Z" fill="#000000" fill-rule="nonzero" fill-opacity="1" /><path clip-path="url(#clip700)" d="M1962.68 253.196 L1969.65 253.196 L1978.47 276.714 L1987.33 253.196 L1994.3 253.196 L1994.3 287.756 L1989.74 287.756 L1989.74 257.409 L1980.83 281.112 L1976.13 281.112 L1967.22 257.409 L1967.22 287.756 L1962.68 287.756 L1962.68 253.196 Z" fill="#000000" fill-rule="nonzero" fill-opacity="1" /><path clip-path="url(#clip700)" d="M2023.1 295.626 L2023.1 298.936 L1998.47 298.936 L1998.47 295.626 L2023.1 295.626 Z" fill="#000000" fill-rule="nonzero" fill-opacity="1" /><path clip-path="url(#clip700)" d="M2038.84 257.802 L2032.5 275.001 L2045.2 275.001 L2038.84 257.802 M2036.2 253.196 L2041.5 253.196 L2054.67 287.756 L2049.81 287.756 L2046.66 278.89 L2031.08 278.89 L2027.94 287.756 L2023 287.756 L2036.2 253.196 Z" fill="#000000" fill-rule="nonzero" fill-opacity="1" /><path clip-path="url(#clip700)" d="M2081.08 272.108 L2081.08 287.756 L2076.82 287.756 L2076.82 272.247 Q2076.82 268.566 2075.39 266.737 Q2073.95 264.909 2071.08 264.909 Q2067.63 264.909 2065.64 267.108 Q2063.65 269.307 2063.65 273.103 L2063.65 287.756 L2059.37 287.756 L2059.37 261.83 L2063.65 261.83 L2063.65 265.858 Q2065.18 263.52 2067.24 262.362 Q2069.32 261.205 2072.03 261.205 Q2076.5 261.205 2078.79 263.983 Q2081.08 266.737 2081.08 272.108 Z" fill="#000000" fill-rule="nonzero" fill-opacity="1" /><path clip-path="url(#clip700)" d="M2106.64 265.765 L2106.64 251.737 L2110.9 251.737 L2110.9 287.756 L2106.64 287.756 L2106.64 283.867 Q2105.3 286.182 2103.24 287.316 Q2101.2 288.427 2098.33 288.427 Q2093.63 288.427 2090.67 284.677 Q2087.73 280.927 2087.73 274.816 Q2087.73 268.705 2090.67 264.955 Q2093.63 261.205 2098.33 261.205 Q2101.2 261.205 2103.24 262.339 Q2105.3 263.45 2106.64 265.765 M2092.12 274.816 Q2092.12 279.515 2094.05 282.2 Q2095.99 284.862 2099.37 284.862 Q2102.75 284.862 2104.69 282.2 Q2106.64 279.515 2106.64 274.816 Q2106.64 270.117 2104.69 267.455 Q2102.75 264.77 2099.37 264.77 Q2095.99 264.77 2094.05 267.455 Q2092.12 270.117 2092.12 274.816 Z" fill="#000000" fill-rule="nonzero" fill-opacity="1" /><path clip-path="url(#clip700)" d="M2134.69 265.811 Q2133.98 265.395 2133.12 265.21 Q2132.29 265.001 2131.27 265.001 Q2127.66 265.001 2125.71 267.362 Q2123.79 269.7 2123.79 274.098 L2123.79 287.756 L2119.51 287.756 L2119.51 261.83 L2123.79 261.83 L2123.79 265.858 Q2125.13 263.497 2127.29 262.362 Q2129.44 261.205 2132.52 261.205 Q2132.96 261.205 2133.49 261.274 Q2134.02 261.321 2134.67 261.436 L2134.69 265.811 Z" fill="#000000" fill-rule="nonzero" fill-opacity="1" /><path clip-path="url(#clip700)" d="M2160.3 273.728 L2160.3 275.811 L2140.71 275.811 Q2140.99 280.209 2143.35 282.524 Q2145.74 284.816 2149.97 284.816 Q2152.43 284.816 2154.72 284.214 Q2157.03 283.612 2159.3 282.409 L2159.3 286.436 Q2157.01 287.408 2154.6 287.918 Q2152.19 288.427 2149.72 288.427 Q2143.51 288.427 2139.88 284.816 Q2136.27 281.205 2136.27 275.047 Q2136.27 268.682 2139.69 264.955 Q2143.14 261.205 2148.98 261.205 Q2154.21 261.205 2157.24 264.585 Q2160.3 267.941 2160.3 273.728 M2156.04 272.478 Q2155.99 268.983 2154.07 266.899 Q2152.17 264.816 2149.02 264.816 Q2145.46 264.816 2143.31 266.83 Q2141.18 268.844 2140.85 272.501 L2156.04 272.478 Z" fill="#000000" fill-rule="nonzero" fill-opacity="1" /><path clip-path="url(#clip700)" d="M2167.29 261.83 L2171.55 261.83 L2171.55 287.756 L2167.29 287.756 L2167.29 261.83 M2167.29 251.737 L2171.55 251.737 L2171.55 257.131 L2167.29 257.131 L2167.29 251.737 Z" fill="#000000" fill-rule="nonzero" fill-opacity="1" /><path clip-path="url(#clip700)" d="M2200.16 295.626 L2200.16 298.936 L2175.53 298.936 L2175.53 295.626 L2200.16 295.626 Z" fill="#000000" fill-rule="nonzero" fill-opacity="1" /><path clip-path="url(#clip700)" d="M2215.94 274.723 Q2210.78 274.723 2208.79 275.904 Q2206.8 277.084 2206.8 279.932 Q2206.8 282.2 2208.28 283.543 Q2209.79 284.862 2212.36 284.862 Q2215.9 284.862 2218.03 282.362 Q2220.18 279.839 2220.18 275.672 L2220.18 274.723 L2215.94 274.723 M2224.44 272.964 L2224.44 287.756 L2220.18 287.756 L2220.18 283.821 Q2218.72 286.182 2216.55 287.316 Q2214.37 288.427 2211.22 288.427 Q2207.24 288.427 2204.88 286.205 Q2202.54 283.959 2202.54 280.209 Q2202.54 275.834 2205.46 273.612 Q2208.4 271.39 2214.21 271.39 L2220.18 271.39 L2220.18 270.973 Q2220.18 268.034 2218.24 266.436 Q2216.31 264.816 2212.82 264.816 Q2210.6 264.816 2208.49 265.348 Q2206.38 265.881 2204.44 266.946 L2204.44 263.01 Q2206.78 262.108 2208.98 261.668 Q2211.18 261.205 2213.26 261.205 Q2218.88 261.205 2221.66 264.122 Q2224.44 267.038 2224.44 272.964 Z" fill="#000000" fill-rule="nonzero" fill-opacity="1" /><path clip-path="url(#clip700)" d="M2233.21 251.737 L2237.47 251.737 L2237.47 287.756 L2233.21 287.756 L2233.21 251.737 Z" fill="#000000" fill-rule="nonzero" fill-opacity="1" /><path clip-path="url(#clip700)" d="M2250.6 254.469 L2250.6 261.83 L2259.37 261.83 L2259.37 265.14 L2250.6 265.14 L2250.6 279.214 Q2250.6 282.385 2251.45 283.288 Q2252.33 284.191 2254.99 284.191 L2259.37 284.191 L2259.37 287.756 L2254.99 287.756 Q2250.06 287.756 2248.19 285.927 Q2246.31 284.075 2246.31 279.214 L2246.31 265.14 L2243.19 265.14 L2243.19 261.83 L2246.31 261.83 L2246.31 254.469 L2250.6 254.469 Z" fill="#000000" fill-rule="nonzero" fill-opacity="1" /><polyline clip-path="url(#clip700)" style="stroke:#3da44d; stroke-linecap:round; stroke-linejoin:round; stroke-width:4; stroke-opacity:1; fill:none" points="1772.84,322.316 1912.92,322.316 "/>
<path clip-path="url(#clip700)" d="M1936.27 305.036 L1940.95 305.036 L1940.95 335.661 L1957.77 335.661 L1957.77 339.596 L1936.27 339.596 L1936.27 305.036 Z" fill="#000000" fill-rule="nonzero" fill-opacity="1" /><path clip-path="url(#clip700)" d="M1962.68 305.036 L1969.65 305.036 L1978.47 328.554 L1987.33 305.036 L1994.3 305.036 L1994.3 339.596 L1989.74 339.596 L1989.74 309.249 L1980.83 332.952 L1976.13 332.952 L1967.22 309.249 L1967.22 339.596 L1962.68 339.596 L1962.68 305.036 Z" fill="#000000" fill-rule="nonzero" fill-opacity="1" /><path clip-path="url(#clip700)" d="M2023.1 347.466 L2023.1 350.776 L1998.47 350.776 L1998.47 347.466 L2023.1 347.466 Z" fill="#000000" fill-rule="nonzero" fill-opacity="1" /><path clip-path="url(#clip700)" d="M2038.84 309.642 L2032.5 326.841 L2045.2 326.841 L2038.84 309.642 M2036.2 305.036 L2041.5 305.036 L2054.67 339.596 L2049.81 339.596 L2046.66 330.73 L2031.08 330.73 L2027.94 339.596 L2023 339.596 L2036.2 305.036 Z" fill="#000000" fill-rule="nonzero" fill-opacity="1" /><path clip-path="url(#clip700)" d="M2081.08 323.948 L2081.08 339.596 L2076.82 339.596 L2076.82 324.087 Q2076.82 320.406 2075.39 318.577 Q2073.95 316.749 2071.08 316.749 Q2067.63 316.749 2065.64 318.948 Q2063.65 321.147 2063.65 324.943 L2063.65 339.596 L2059.37 339.596 L2059.37 313.67 L2063.65 313.67 L2063.65 317.698 Q2065.18 315.36 2067.24 314.202 Q2069.32 313.045 2072.03 313.045 Q2076.5 313.045 2078.79 315.823 Q2081.08 318.577 2081.08 323.948 Z" fill="#000000" fill-rule="nonzero" fill-opacity="1" /><path clip-path="url(#clip700)" d="M2106.64 317.605 L2106.64 303.577 L2110.9 303.577 L2110.9 339.596 L2106.64 339.596 L2106.64 335.707 Q2105.3 338.022 2103.24 339.156 Q2101.2 340.267 2098.33 340.267 Q2093.63 340.267 2090.67 336.517 Q2087.73 332.767 2087.73 326.656 Q2087.73 320.545 2090.67 316.795 Q2093.63 313.045 2098.33 313.045 Q2101.2 313.045 2103.24 314.179 Q2105.3 315.29 2106.64 317.605 M2092.12 326.656 Q2092.12 331.355 2094.05 334.04 Q2095.99 336.702 2099.37 336.702 Q2102.75 336.702 2104.69 334.04 Q2106.64 331.355 2106.64 326.656 Q2106.64 321.957 2104.69 319.295 Q2102.75 316.61 2099.37 316.61 Q2095.99 316.61 2094.05 319.295 Q2092.12 321.957 2092.12 326.656 Z" fill="#000000" fill-rule="nonzero" fill-opacity="1" /><path clip-path="url(#clip700)" d="M2134.69 317.651 Q2133.98 317.235 2133.12 317.05 Q2132.29 316.841 2131.27 316.841 Q2127.66 316.841 2125.71 319.202 Q2123.79 321.54 2123.79 325.938 L2123.79 339.596 L2119.51 339.596 L2119.51 313.67 L2123.79 313.67 L2123.79 317.698 Q2125.13 315.337 2127.29 314.202 Q2129.44 313.045 2132.52 313.045 Q2132.96 313.045 2133.49 313.114 Q2134.02 313.161 2134.67 313.276 L2134.69 317.651 Z" fill="#000000" fill-rule="nonzero" fill-opacity="1" /><path clip-path="url(#clip700)" d="M2160.3 325.568 L2160.3 327.651 L2140.71 327.651 Q2140.99 332.049 2143.35 334.364 Q2145.74 336.656 2149.97 336.656 Q2152.43 336.656 2154.72 336.054 Q2157.03 335.452 2159.3 334.249 L2159.3 338.276 Q2157.01 339.248 2154.6 339.758 Q2152.19 340.267 2149.72 340.267 Q2143.51 340.267 2139.88 336.656 Q2136.27 333.045 2136.27 326.887 Q2136.27 320.522 2139.69 316.795 Q2143.14 313.045 2148.98 313.045 Q2154.21 313.045 2157.24 316.425 Q2160.3 319.781 2160.3 325.568 M2156.04 324.318 Q2155.99 320.823 2154.07 318.739 Q2152.17 316.656 2149.02 316.656 Q2145.46 316.656 2143.31 318.67 Q2141.18 320.684 2140.85 324.341 L2156.04 324.318 Z" fill="#000000" fill-rule="nonzero" fill-opacity="1" /><path clip-path="url(#clip700)" d="M2167.29 313.67 L2171.55 313.67 L2171.55 339.596 L2167.29 339.596 L2167.29 313.67 M2167.29 303.577 L2171.55 303.577 L2171.55 308.971 L2167.29 308.971 L2167.29 303.577 Z" fill="#000000" fill-rule="nonzero" fill-opacity="1" /><polyline clip-path="url(#clip700)" style="stroke:#c271d2; stroke-linecap:round; stroke-linejoin:round; stroke-width:4; stroke-opacity:1; fill:none" points="1772.84,374.156 1912.92,374.156 "/>
<path clip-path="url(#clip700)" d="M1936.27 356.876 L1940.95 356.876 L1940.95 387.501 L1957.77 387.501 L1957.77 391.436 L1936.27 391.436 L1936.27 356.876 Z" fill="#000000" fill-rule="nonzero" fill-opacity="1" /><path clip-path="url(#clip700)" d="M1962.68 356.876 L1969.65 356.876 L1978.47 380.394 L1987.33 356.876 L1994.3 356.876 L1994.3 391.436 L1989.74 391.436 L1989.74 361.089 L1980.83 384.792 L1976.13 384.792 L1967.22 361.089 L1967.22 391.436 L1962.68 391.436 L1962.68 356.876 Z" fill="#000000" fill-rule="nonzero" fill-opacity="1" /><path clip-path="url(#clip700)" d="M2023.1 399.306 L2023.1 402.616 L1998.47 402.616 L1998.47 399.306 L2023.1 399.306 Z" fill="#000000" fill-rule="nonzero" fill-opacity="1" /><path clip-path="url(#clip700)" d="M2048 358.01 L2048 362.57 Q2045.34 361.297 2042.98 360.672 Q2040.62 360.047 2038.42 360.047 Q2034.6 360.047 2032.52 361.528 Q2030.46 363.01 2030.46 365.741 Q2030.46 368.033 2031.82 369.214 Q2033.21 370.371 2037.06 371.089 L2039.88 371.667 Q2045.11 372.663 2047.59 375.186 Q2050.09 377.686 2050.09 381.899 Q2050.09 386.922 2046.71 389.514 Q2043.35 392.107 2036.85 392.107 Q2034.39 392.107 2031.62 391.551 Q2028.86 390.996 2025.9 389.908 L2025.9 385.093 Q2028.75 386.69 2031.48 387.501 Q2034.21 388.311 2036.85 388.311 Q2040.85 388.311 2043.03 386.737 Q2045.2 385.163 2045.2 382.246 Q2045.2 379.7 2043.63 378.264 Q2042.08 376.829 2038.51 376.112 L2035.67 375.556 Q2030.44 374.515 2028.1 372.292 Q2025.76 370.07 2025.76 366.112 Q2025.76 361.528 2028.98 358.89 Q2032.22 356.251 2037.89 356.251 Q2040.32 356.251 2042.84 356.691 Q2045.37 357.13 2048 358.01 Z" fill="#000000" fill-rule="nonzero" fill-opacity="1" /><path clip-path="url(#clip700)" d="M2062.06 360.718 L2062.06 373.704 L2067.94 373.704 Q2071.2 373.704 2072.98 372.015 Q2074.76 370.325 2074.76 367.2 Q2074.76 364.098 2072.98 362.408 Q2071.2 360.718 2067.94 360.718 L2062.06 360.718 M2057.38 356.876 L2067.94 356.876 Q2073.75 356.876 2076.71 359.515 Q2079.69 362.13 2079.69 367.2 Q2079.69 372.315 2076.71 374.931 Q2073.75 377.547 2067.94 377.547 L2062.06 377.547 L2062.06 391.436 L2057.38 391.436 L2057.38 356.876 Z" fill="#000000" fill-rule="nonzero" fill-opacity="1" /><path clip-path="url(#clip700)" d="M2109.53 386.505 L2109.53 377.223 L2101.89 377.223 L2101.89 373.38 L2114.16 373.38 L2114.16 388.218 Q2111.45 390.139 2108.19 391.135 Q2104.93 392.107 2101.22 392.107 Q2093.12 392.107 2088.54 387.385 Q2083.98 382.639 2083.98 374.19 Q2083.98 365.718 2088.54 360.996 Q2093.12 356.251 2101.22 356.251 Q2104.6 356.251 2107.63 357.084 Q2110.69 357.917 2113.26 359.538 L2113.26 364.515 Q2110.67 362.316 2107.75 361.204 Q2104.83 360.093 2101.62 360.093 Q2095.27 360.093 2092.08 363.635 Q2088.91 367.177 2088.91 374.19 Q2088.91 381.181 2092.08 384.723 Q2095.27 388.264 2101.62 388.264 Q2104.09 388.264 2106.04 387.848 Q2107.98 387.408 2109.53 386.505 Z" fill="#000000" fill-rule="nonzero" fill-opacity="1" /><path clip-path="url(#clip700)" d="M2142.22 399.306 L2142.22 402.616 L2117.59 402.616 L2117.59 399.306 L2142.22 399.306 Z" fill="#000000" fill-rule="nonzero" fill-opacity="1" /><path clip-path="url(#clip700)" d="M2158 378.403 Q2152.84 378.403 2150.85 379.584 Q2148.86 380.764 2148.86 383.612 Q2148.86 385.88 2150.34 387.223 Q2151.85 388.542 2154.42 388.542 Q2157.96 388.542 2160.09 386.042 Q2162.24 383.519 2162.24 379.352 L2162.24 378.403 L2158 378.403 M2166.5 376.644 L2166.5 391.436 L2162.24 391.436 L2162.24 387.501 Q2160.78 389.862 2158.61 390.996 Q2156.43 392.107 2153.28 392.107 Q2149.3 392.107 2146.94 389.885 Q2144.6 387.639 2144.6 383.889 Q2144.6 379.514 2147.52 377.292 Q2150.46 375.07 2156.27 375.07 L2162.24 375.07 L2162.24 374.653 Q2162.24 371.714 2160.3 370.116 Q2158.37 368.496 2154.88 368.496 Q2152.66 368.496 2150.55 369.028 Q2148.44 369.561 2146.5 370.626 L2146.5 366.69 Q2148.84 365.788 2151.04 365.348 Q2153.24 364.885 2155.32 364.885 Q2160.94 364.885 2163.72 367.802 Q2166.5 370.718 2166.5 376.644 Z" fill="#000000" fill-rule="nonzero" fill-opacity="1" /><path clip-path="url(#clip700)" d="M2175.27 355.417 L2179.53 355.417 L2179.53 391.436 L2175.27 391.436 L2175.27 355.417 Z" fill="#000000" fill-rule="nonzero" fill-opacity="1" /><path clip-path="url(#clip700)" d="M2192.66 358.149 L2192.66 365.51 L2201.43 365.51 L2201.43 368.82 L2192.66 368.82 L2192.66 382.894 Q2192.66 386.065 2193.51 386.968 Q2194.39 387.871 2197.05 387.871 L2201.43 387.871 L2201.43 391.436 L2197.05 391.436 Q2192.12 391.436 2190.25 389.607 Q2188.37 387.755 2188.37 382.894 L2188.37 368.82 L2185.25 368.82 L2185.25 365.51 L2188.37 365.51 L2188.37 358.149 L2192.66 358.149 Z" fill="#000000" fill-rule="nonzero" fill-opacity="1" /><polyline clip-path="url(#clip700)" style="stroke:#ac8d18; stroke-linecap:round; stroke-linejoin:round; stroke-width:4; stroke-opacity:1; fill:none" points="1772.84,425.996 1912.92,425.996 "/>
<path clip-path="url(#clip700)" d="M1936.27 408.716 L1940.95 408.716 L1940.95 439.341 L1957.77 439.341 L1957.77 443.276 L1936.27 443.276 L1936.27 408.716 Z" fill="#000000" fill-rule="nonzero" fill-opacity="1" /><path clip-path="url(#clip700)" d="M1962.68 408.716 L1969.65 408.716 L1978.47 432.234 L1987.33 408.716 L1994.3 408.716 L1994.3 443.276 L1989.74 443.276 L1989.74 412.929 L1980.83 436.632 L1976.13 436.632 L1967.22 412.929 L1967.22 443.276 L1962.68 443.276 L1962.68 408.716 Z" fill="#000000" fill-rule="nonzero" fill-opacity="1" /><path clip-path="url(#clip700)" d="M2023.1 451.146 L2023.1 454.456 L1998.47 454.456 L1998.47 451.146 L2023.1 451.146 Z" fill="#000000" fill-rule="nonzero" fill-opacity="1" /><path clip-path="url(#clip700)" d="M2031.32 409.989 L2031.32 417.35 L2040.09 417.35 L2040.09 420.66 L2031.32 420.66 L2031.32 434.734 Q2031.32 437.905 2032.17 438.808 Q2033.05 439.711 2035.71 439.711 L2040.09 439.711 L2040.09 443.276 L2035.71 443.276 Q2030.78 443.276 2028.91 441.447 Q2027.03 439.595 2027.03 434.734 L2027.03 420.66 L2023.91 420.66 L2023.91 417.35 L2027.03 417.35 L2027.03 409.989 L2031.32 409.989 Z" fill="#000000" fill-rule="nonzero" fill-opacity="1" /><path clip-path="url(#clip700)" d="M2067.87 429.248 L2067.87 431.331 L2048.28 431.331 Q2048.56 435.729 2050.92 438.044 Q2053.31 440.336 2057.54 440.336 Q2060 440.336 2062.29 439.734 Q2064.6 439.132 2066.87 437.929 L2066.87 441.956 Q2064.58 442.928 2062.17 443.438 Q2059.76 443.947 2057.29 443.947 Q2051.08 443.947 2047.45 440.336 Q2043.84 436.725 2043.84 430.567 Q2043.84 424.202 2047.26 420.475 Q2050.71 416.725 2056.55 416.725 Q2061.78 416.725 2064.81 420.105 Q2067.87 423.461 2067.87 429.248 M2063.61 427.998 Q2063.56 424.503 2061.64 422.419 Q2059.74 420.336 2056.59 420.336 Q2053.03 420.336 2050.88 422.35 Q2048.75 424.364 2048.42 428.021 L2063.61 427.998 Z" fill="#000000" fill-rule="nonzero" fill-opacity="1" /><path clip-path="url(#clip700)" d="M2091.38 418.114 L2091.38 422.142 Q2089.58 421.216 2087.63 420.753 Q2085.69 420.29 2083.61 420.29 Q2080.44 420.29 2078.84 421.262 Q2077.26 422.234 2077.26 424.179 Q2077.26 425.66 2078.4 426.517 Q2079.53 427.35 2082.96 428.114 L2084.42 428.438 Q2088.95 429.41 2090.85 431.192 Q2092.77 432.952 2092.77 436.123 Q2092.77 439.734 2089.9 441.841 Q2087.06 443.947 2082.06 443.947 Q2079.97 443.947 2077.7 443.53 Q2075.46 443.137 2072.96 442.327 L2072.96 437.929 Q2075.32 439.155 2077.61 439.78 Q2079.9 440.382 2082.15 440.382 Q2085.16 440.382 2086.78 439.364 Q2088.4 438.322 2088.4 436.447 Q2088.4 434.711 2087.22 433.785 Q2086.06 432.859 2082.1 432.003 L2080.62 431.655 Q2076.66 430.822 2074.9 429.109 Q2073.14 427.373 2073.14 424.364 Q2073.14 420.706 2075.74 418.716 Q2078.33 416.725 2083.1 416.725 Q2085.46 416.725 2087.54 417.072 Q2089.62 417.419 2091.38 418.114 Z" fill="#000000" fill-rule="nonzero" fill-opacity="1" /><path clip-path="url(#clip700)" d="M2103.77 409.989 L2103.77 417.35 L2112.54 417.35 L2112.54 420.66 L2103.77 420.66 L2103.77 434.734 Q2103.77 437.905 2104.62 438.808 Q2105.5 439.711 2108.17 439.711 L2112.54 439.711 L2112.54 443.276 L2108.17 443.276 Q2103.24 443.276 2101.36 441.447 Q2099.49 439.595 2099.49 434.734 L2099.49 420.66 L2096.36 420.66 L2096.36 417.35 L2099.49 417.35 L2099.49 409.989 L2103.77 409.989 Z" fill="#000000" fill-rule="nonzero" fill-opacity="1" /></svg>
