<?xml version="1.0" encoding="utf-8"?>
<svg xmlns="http://www.w3.org/2000/svg" xmlns:xlink="http://www.w3.org/1999/xlink" width="600" height="400" viewBox="0 0 2400 1600">
<defs>
  <clipPath id="clip170">
    <rect x="0" y="0" width="2400" height="1600"/>
  </clipPath>
</defs>
<path clip-path="url(#clip170)" d="M0 1600 L2400 1600 L2400 0 L0 0  Z" fill="#ffffff" fill-rule="evenodd" fill-opacity="1"/>
<defs>
  <clipPath id="clip171">
    <rect x="480" y="0" width="1681" height="1600"/>
  </clipPath>
</defs>
<path clip-path="url(#clip170)" d="M251.56 1423.18 L2352.76 1423.18 L2352.76 123.472 L251.56 123.472  Z" fill="#ffffff" fill-rule="evenodd" fill-opacity="1"/>
<defs>
  <clipPath id="clip172">
    <rect x="251" y="123" width="2102" height="1301"/>
  </clipPath>
</defs>
<polyline clip-path="url(#clip172)" style="stroke:#000000; stroke-linecap:round; stroke-linejoin:round; stroke-width:2; stroke-opacity:0.1; fill:none" points="311.028,1423.18 311.028,123.472 "/>
<polyline clip-path="url(#clip172)" style="stroke:#000000; stroke-linecap:round; stroke-linejoin:round; stroke-width:2; stroke-opacity:0.1; fill:none" points="806.593,1423.18 806.593,123.472 "/>
<polyline clip-path="url(#clip172)" style="stroke:#000000; stroke-linecap:round; stroke-linejoin:round; stroke-width:2; stroke-opacity:0.1; fill:none" points="1302.16,1423.18 1302.16,123.472 "/>
<polyline clip-path="url(#clip172)" style="stroke:#000000; stroke-linecap:round; stroke-linejoin:round; stroke-width:2; stroke-opacity:0.1; fill:none" points="1797.72,1423.18 1797.72,123.472 "/>
<polyline clip-path="url(#clip172)" style="stroke:#000000; stroke-linecap:round; stroke-linejoin:round; stroke-width:2; stroke-opacity:0.1; fill:none" points="2293.29,1423.18 2293.29,123.472 "/>
<polyline clip-path="url(#clip170)" style="stroke:#000000; stroke-linecap:round; stroke-linejoin:round; stroke-width:4; stroke-opacity:1; fill:none" points="251.56,1423.18 2352.76,1423.18 "/>
<polyline clip-path="url(#clip170)" style="stroke:#000000; stroke-linecap:round; stroke-linejoin:round; stroke-width:4; stroke-opacity:1; fill:none" points="311.028,1423.18 311.028,1404.28 "/>
<polyline clip-path="url(#clip170)" style="stroke:#000000; stroke-linecap:round; stroke-linejoin:round; stroke-width:4; stroke-opacity:1; fill:none" points="806.593,1423.18 806.593,1404.28 "/>
<polyline clip-path="url(#clip170)" style="stroke:#000000; stroke-linecap:round; stroke-linejoin:round; stroke-width:4; stroke-opacity:1; fill:none" points="1302.16,1423.18 1302.16,1404.28 "/>
<polyline clip-path="url(#clip170)" style="stroke:#000000; stroke-linecap:round; stroke-linejoin:round; stroke-width:4; stroke-opacity:1; fill:none" points="1797.72,1423.18 1797.72,1404.28 "/>
<polyline clip-path="url(#clip170)" style="stroke:#000000; stroke-linecap:round; stroke-linejoin:round; stroke-width:4; stroke-opacity:1; fill:none" points="2293.29,1423.18 2293.29,1404.28 "/>
<path clip-path="url(#clip170)" d="M263.1 1481.64 L270.739 1481.64 L270.739 1455.28 L262.429 1456.95 L262.429 1452.69 L270.693 1451.02 L275.369 1451.02 L275.369 1481.64 L283.007 1481.64 L283.007 1485.58 L263.1 1485.58 L263.1 1481.64 Z" fill="#000000" fill-rule="nonzero" fill-opacity="1" /><path clip-path="url(#clip170)" d="M292.452 1479.7 L297.336 1479.7 L297.336 1485.58 L292.452 1485.58 L292.452 1479.7 Z" fill="#000000" fill-rule="nonzero" fill-opacity="1" /><path clip-path="url(#clip170)" d="M317.521 1454.1 Q313.91 1454.1 312.081 1457.66 Q310.276 1461.2 310.276 1468.33 Q310.276 1475.44 312.081 1479.01 Q313.91 1482.55 317.521 1482.55 Q321.155 1482.55 322.961 1479.01 Q324.79 1475.44 324.79 1468.33 Q324.79 1461.2 322.961 1457.66 Q321.155 1454.1 317.521 1454.1 M317.521 1450.39 Q323.331 1450.39 326.387 1455 Q329.465 1459.58 329.465 1468.33 Q329.465 1477.06 326.387 1481.67 Q323.331 1486.25 317.521 1486.25 Q311.711 1486.25 308.632 1481.67 Q305.577 1477.06 305.577 1468.33 Q305.577 1459.58 308.632 1455 Q311.711 1450.39 317.521 1450.39 Z" fill="#000000" fill-rule="nonzero" fill-opacity="1" /><path clip-path="url(#clip170)" d="M347.683 1454.1 Q344.072 1454.1 342.243 1457.66 Q340.438 1461.2 340.438 1468.33 Q340.438 1475.44 342.243 1479.01 Q344.072 1482.55 347.683 1482.55 Q351.317 1482.55 353.123 1479.01 Q354.951 1475.44 354.951 1468.33 Q354.951 1461.2 353.123 1457.66 Q351.317 1454.1 347.683 1454.1 M347.683 1450.39 Q353.493 1450.39 356.549 1455 Q359.627 1459.58 359.627 1468.33 Q359.627 1477.06 356.549 1481.67 Q353.493 1486.25 347.683 1486.25 Q341.873 1486.25 338.794 1481.67 Q335.739 1477.06 335.739 1468.33 Q335.739 1459.58 338.794 1455 Q341.873 1450.39 347.683 1450.39 Z" fill="#000000" fill-rule="nonzero" fill-opacity="1" /><path clip-path="url(#clip170)" d="M759.163 1481.64 L766.802 1481.64 L766.802 1455.28 L758.491 1456.95 L758.491 1452.69 L766.755 1451.02 L771.431 1451.02 L771.431 1481.64 L779.07 1481.64 L779.07 1485.58 L759.163 1485.58 L759.163 1481.64 Z" fill="#000000" fill-rule="nonzero" fill-opacity="1" /><path clip-path="url(#clip170)" d="M788.514 1479.7 L793.399 1479.7 L793.399 1485.58 L788.514 1485.58 L788.514 1479.7 Z" fill="#000000" fill-rule="nonzero" fill-opacity="1" /><path clip-path="url(#clip170)" d="M807.612 1481.64 L823.931 1481.64 L823.931 1485.58 L801.987 1485.58 L801.987 1481.64 Q804.649 1478.89 809.232 1474.26 Q813.838 1469.61 815.019 1468.27 Q817.264 1465.74 818.144 1464.01 Q819.047 1462.25 819.047 1460.56 Q819.047 1457.8 817.102 1456.07 Q815.181 1454.33 812.079 1454.33 Q809.88 1454.33 807.426 1455.09 Q804.996 1455.86 802.218 1457.41 L802.218 1452.69 Q805.042 1451.55 807.496 1450.97 Q809.95 1450.39 811.987 1450.39 Q817.357 1450.39 820.551 1453.08 Q823.746 1455.77 823.746 1460.26 Q823.746 1462.39 822.936 1464.31 Q822.149 1466.2 820.042 1468.8 Q819.463 1469.47 816.362 1472.69 Q813.26 1475.88 807.612 1481.64 Z" fill="#000000" fill-rule="nonzero" fill-opacity="1" /><path clip-path="url(#clip170)" d="M833.792 1451.02 L852.148 1451.02 L852.148 1454.96 L838.074 1454.96 L838.074 1463.43 Q839.093 1463.08 840.111 1462.92 Q841.13 1462.73 842.148 1462.73 Q847.935 1462.73 851.315 1465.9 Q854.695 1469.08 854.695 1474.49 Q854.695 1480.07 851.222 1483.17 Q847.75 1486.25 841.431 1486.25 Q839.255 1486.25 836.986 1485.88 Q834.741 1485.51 832.334 1484.77 L832.334 1480.07 Q834.417 1481.2 836.639 1481.76 Q838.861 1482.32 841.338 1482.32 Q845.343 1482.32 847.681 1480.21 Q850.019 1478.1 850.019 1474.49 Q850.019 1470.88 847.681 1468.77 Q845.343 1466.67 841.338 1466.67 Q839.463 1466.67 837.588 1467.08 Q835.736 1467.5 833.792 1468.38 L833.792 1451.02 Z" fill="#000000" fill-rule="nonzero" fill-opacity="1" /><path clip-path="url(#clip170)" d="M1254.23 1481.64 L1261.87 1481.64 L1261.87 1455.28 L1253.56 1456.95 L1253.56 1452.69 L1261.82 1451.02 L1266.5 1451.02 L1266.5 1481.64 L1274.14 1481.64 L1274.14 1485.58 L1254.23 1485.58 L1254.23 1481.64 Z" fill="#000000" fill-rule="nonzero" fill-opacity="1" /><path clip-path="url(#clip170)" d="M1283.58 1479.7 L1288.47 1479.7 L1288.47 1485.58 L1283.58 1485.58 L1283.58 1479.7 Z" fill="#000000" fill-rule="nonzero" fill-opacity="1" /><path clip-path="url(#clip170)" d="M1298.7 1451.02 L1317.05 1451.02 L1317.05 1454.96 L1302.98 1454.96 L1302.98 1463.43 Q1304 1463.08 1305.02 1462.92 Q1306.04 1462.73 1307.05 1462.73 Q1312.84 1462.73 1316.22 1465.9 Q1319.6 1469.08 1319.6 1474.49 Q1319.6 1480.07 1316.13 1483.17 Q1312.66 1486.25 1306.34 1486.25 Q1304.16 1486.25 1301.89 1485.88 Q1299.65 1485.51 1297.24 1484.77 L1297.24 1480.07 Q1299.32 1481.2 1301.54 1481.76 Q1303.77 1482.32 1306.24 1482.32 Q1310.25 1482.32 1312.59 1480.21 Q1314.92 1478.1 1314.92 1474.49 Q1314.92 1470.88 1312.59 1468.77 Q1310.25 1466.67 1306.24 1466.67 Q1304.37 1466.67 1302.49 1467.08 Q1300.64 1467.5 1298.7 1468.38 L1298.7 1451.02 Z" fill="#000000" fill-rule="nonzero" fill-opacity="1" /><path clip-path="url(#clip170)" d="M1338.81 1454.1 Q1335.2 1454.1 1333.37 1457.66 Q1331.57 1461.2 1331.57 1468.33 Q1331.57 1475.44 1333.37 1479.01 Q1335.2 1482.55 1338.81 1482.55 Q1342.45 1482.55 1344.25 1479.01 Q1346.08 1475.44 1346.08 1468.33 Q1346.08 1461.2 1344.25 1457.66 Q1342.45 1454.1 1338.81 1454.1 M1338.81 1450.39 Q1344.62 1450.39 1347.68 1455 Q1350.76 1459.58 1350.76 1468.33 Q1350.76 1477.06 1347.68 1481.67 Q1344.62 1486.25 1338.81 1486.25 Q1333 1486.25 1329.92 1481.67 Q1326.87 1477.06 1326.87 1468.33 Q1326.87 1459.58 1329.92 1455 Q1333 1450.39 1338.81 1450.39 Z" fill="#000000" fill-rule="nonzero" fill-opacity="1" /><path clip-path="url(#clip170)" d="M1750.29 1481.64 L1757.93 1481.64 L1757.93 1455.28 L1749.62 1456.95 L1749.62 1452.69 L1757.89 1451.02 L1762.56 1451.02 L1762.56 1481.64 L1770.2 1481.64 L1770.2 1485.58 L1750.29 1485.58 L1750.29 1481.64 Z" fill="#000000" fill-rule="nonzero" fill-opacity="1" /><path clip-path="url(#clip170)" d="M1779.64 1479.7 L1784.53 1479.7 L1784.53 1485.58 L1779.64 1485.58 L1779.64 1479.7 Z" fill="#000000" fill-rule="nonzero" fill-opacity="1" /><path clip-path="url(#clip170)" d="M1793.53 1451.02 L1815.76 1451.02 L1815.76 1453.01 L1803.21 1485.58 L1798.32 1485.58 L1810.13 1454.96 L1793.53 1454.96 L1793.53 1451.02 Z" fill="#000000" fill-rule="nonzero" fill-opacity="1" /><path clip-path="url(#clip170)" d="M1824.92 1451.02 L1843.28 1451.02 L1843.28 1454.96 L1829.2 1454.96 L1829.2 1463.43 Q1830.22 1463.08 1831.24 1462.92 Q1832.26 1462.73 1833.28 1462.73 Q1839.07 1462.73 1842.45 1465.9 Q1845.82 1469.08 1845.82 1474.49 Q1845.82 1480.07 1842.35 1483.17 Q1838.88 1486.25 1832.56 1486.25 Q1830.38 1486.25 1828.12 1485.88 Q1825.87 1485.51 1823.46 1484.77 L1823.46 1480.07 Q1825.55 1481.2 1827.77 1481.76 Q1829.99 1482.32 1832.47 1482.32 Q1836.47 1482.32 1838.81 1480.21 Q1841.15 1478.1 1841.15 1474.49 Q1841.15 1470.88 1838.81 1468.77 Q1836.47 1466.67 1832.47 1466.67 Q1830.59 1466.67 1828.72 1467.08 Q1826.87 1467.5 1824.92 1468.38 L1824.92 1451.02 Z" fill="#000000" fill-rule="nonzero" fill-opacity="1" /><path clip-path="url(#clip170)" d="M2249.45 1481.64 L2265.77 1481.64 L2265.77 1485.58 L2243.82 1485.58 L2243.82 1481.64 Q2246.48 1478.89 2251.07 1474.26 Q2255.67 1469.61 2256.85 1468.27 Q2259.1 1465.74 2259.98 1464.01 Q2260.88 1462.25 2260.88 1460.56 Q2260.88 1457.8 2258.94 1456.07 Q2257.02 1454.33 2253.91 1454.33 Q2251.71 1454.33 2249.26 1455.09 Q2246.83 1455.86 2244.05 1457.41 L2244.05 1452.69 Q2246.88 1451.55 2249.33 1450.97 Q2251.78 1450.39 2253.82 1450.39 Q2259.19 1450.39 2262.39 1453.08 Q2265.58 1455.77 2265.58 1460.26 Q2265.58 1462.39 2264.77 1464.31 Q2263.98 1466.2 2261.88 1468.8 Q2261.3 1469.47 2258.2 1472.69 Q2255.09 1475.88 2249.45 1481.64 Z" fill="#000000" fill-rule="nonzero" fill-opacity="1" /><path clip-path="url(#clip170)" d="M2275.58 1479.7 L2280.46 1479.7 L2280.46 1485.58 L2275.58 1485.58 L2275.58 1479.7 Z" fill="#000000" fill-rule="nonzero" fill-opacity="1" /><path clip-path="url(#clip170)" d="M2300.65 1454.1 Q2297.04 1454.1 2295.21 1457.66 Q2293.4 1461.2 2293.4 1468.33 Q2293.4 1475.44 2295.21 1479.01 Q2297.04 1482.55 2300.65 1482.55 Q2304.28 1482.55 2306.09 1479.01 Q2307.92 1475.44 2307.92 1468.33 Q2307.92 1461.2 2306.09 1457.66 Q2304.28 1454.1 2300.65 1454.1 M2300.65 1450.39 Q2306.46 1450.39 2309.51 1455 Q2312.59 1459.58 2312.59 1468.33 Q2312.59 1477.06 2309.51 1481.67 Q2306.46 1486.25 2300.65 1486.25 Q2294.84 1486.25 2291.76 1481.67 Q2288.7 1477.06 2288.7 1468.33 Q2288.7 1459.58 2291.76 1455 Q2294.84 1450.39 2300.65 1450.39 Z" fill="#000000" fill-rule="nonzero" fill-opacity="1" /><path clip-path="url(#clip170)" d="M2330.81 1454.1 Q2327.2 1454.1 2325.37 1457.66 Q2323.57 1461.2 2323.57 1468.33 Q2323.57 1475.44 2325.37 1479.01 Q2327.2 1482.55 2330.81 1482.55 Q2334.45 1482.55 2336.25 1479.01 Q2338.08 1475.44 2338.08 1468.33 Q2338.08 1461.2 2336.25 1457.66 Q2334.45 1454.1 2330.81 1454.1 M2330.81 1450.39 Q2336.62 1450.39 2339.68 1455 Q2342.76 1459.58 2342.76 1468.33 Q2342.76 1477.06 2339.68 1481.67 Q2336.62 1486.25 2330.81 1486.25 Q2325 1486.25 2321.92 1481.67 Q2318.87 1477.06 2318.87 1468.33 Q2318.87 1459.58 2321.92 1455 Q2325 1450.39 2330.81 1450.39 Z" fill="#000000" fill-rule="nonzero" fill-opacity="1" /><path clip-path="url(#clip170)" d="M1286.34 1518.52 L1292.23 1518.52 L1292.23 1547.77 L1309.7 1532.4 L1317.18 1532.4 L1298.27 1549.07 L1317.98 1568.04 L1310.34 1568.04 L1292.23 1550.63 L1292.23 1568.04 L1286.34 1568.04 L1286.34 1518.52 Z" fill="#000000" fill-rule="nonzero" fill-opacity="1" /><polyline clip-path="url(#clip172)" style="stroke:#000000; stroke-linecap:round; stroke-linejoin:round; stroke-width:2; stroke-opacity:0.1; fill:none" points="251.56,1047.27 2352.76,1047.27 "/>
<polyline clip-path="url(#clip172)" style="stroke:#000000; stroke-linecap:round; stroke-linejoin:round; stroke-width:2; stroke-opacity:0.1; fill:none" points="251.56,651.048 2352.76,651.048 "/>
<polyline clip-path="url(#clip172)" style="stroke:#000000; stroke-linecap:round; stroke-linejoin:round; stroke-width:2; stroke-opacity:0.1; fill:none" points="251.56,254.826 2352.76,254.826 "/>
<polyline clip-path="url(#clip170)" style="stroke:#000000; stroke-linecap:round; stroke-linejoin:round; stroke-width:4; stroke-opacity:1; fill:none" points="251.56,1423.18 251.56,123.472 "/>
<polyline clip-path="url(#clip170)" style="stroke:#000000; stroke-linecap:round; stroke-linejoin:round; stroke-width:4; stroke-opacity:1; fill:none" points="251.56,1047.27 270.458,1047.27 "/>
<polyline clip-path="url(#clip170)" style="stroke:#000000; stroke-linecap:round; stroke-linejoin:round; stroke-width:4; stroke-opacity:1; fill:none" points="251.56,651.048 270.458,651.048 "/>
<polyline clip-path="url(#clip170)" style="stroke:#000000; stroke-linecap:round; stroke-linejoin:round; stroke-width:4; stroke-opacity:1; fill:none" points="251.56,254.826 270.458,254.826 "/>
<path clip-path="url(#clip170)" d="M114.931 1067.06 L122.57 1067.06 L122.57 1040.7 L114.26 1042.36 L114.26 1038.1 L122.524 1036.44 L127.2 1036.44 L127.2 1067.06 L134.839 1067.06 L134.839 1071 L114.931 1071 L114.931 1067.06 Z" fill="#000000" fill-rule="nonzero" fill-opacity="1" /><path clip-path="url(#clip170)" d="M154.283 1039.52 Q150.672 1039.52 148.843 1043.08 Q147.038 1046.62 147.038 1053.75 Q147.038 1060.86 148.843 1064.42 Q150.672 1067.97 154.283 1067.97 Q157.917 1067.97 159.723 1064.42 Q161.552 1060.86 161.552 1053.75 Q161.552 1046.62 159.723 1043.08 Q157.917 1039.52 154.283 1039.52 M154.283 1035.81 Q160.093 1035.81 163.149 1040.42 Q166.227 1045 166.227 1053.75 Q166.227 1062.48 163.149 1067.09 Q160.093 1071.67 154.283 1071.67 Q148.473 1071.67 145.394 1067.09 Q142.339 1062.48 142.339 1053.75 Q142.339 1045 145.394 1040.42 Q148.473 1035.81 154.283 1035.81 Z" fill="#000000" fill-rule="nonzero" fill-opacity="1" /><path clip-path="url(#clip170)" d="M166.227 1029.91 L190.339 1029.91 L190.339 1033.11 L166.227 1033.11 L166.227 1029.91 Z" fill="#000000" fill-rule="nonzero" fill-opacity="1" /><path clip-path="url(#clip170)" d="M198.577 1015.51 L213.491 1015.51 L213.491 1018.7 L202.056 1018.7 L202.056 1025.59 Q202.884 1025.31 203.711 1025.17 Q204.539 1025.02 205.366 1025.02 Q210.068 1025.02 212.814 1027.6 Q215.56 1030.18 215.56 1034.58 Q215.56 1039.11 212.739 1041.63 Q209.918 1044.13 204.783 1044.13 Q203.015 1044.13 201.172 1043.83 Q199.348 1043.53 197.392 1042.93 L197.392 1039.11 Q199.085 1040.03 200.89 1040.48 Q202.696 1040.94 204.708 1040.94 Q207.962 1040.94 209.861 1039.22 Q211.761 1037.51 211.761 1034.58 Q211.761 1031.64 209.861 1029.93 Q207.962 1028.22 204.708 1028.22 Q203.185 1028.22 201.661 1028.56 Q200.157 1028.9 198.577 1029.61 L198.577 1015.51 Z" fill="#000000" fill-rule="nonzero" fill-opacity="1" /><path clip-path="url(#clip170)" d="M144.855 670.84 L152.493 670.84 L152.493 644.475 L144.183 646.141 L144.183 641.882 L152.447 640.216 L157.123 640.216 L157.123 670.84 L164.762 670.84 L164.762 674.776 L144.855 674.776 L144.855 670.84 Z" fill="#000000" fill-rule="nonzero" fill-opacity="1" /><path clip-path="url(#clip170)" d="M184.206 643.294 Q180.595 643.294 178.766 646.859 Q176.961 650.401 176.961 657.53 Q176.961 664.637 178.766 668.202 Q180.595 671.743 184.206 671.743 Q187.84 671.743 189.646 668.202 Q191.475 664.637 191.475 657.53 Q191.475 650.401 189.646 646.859 Q187.84 643.294 184.206 643.294 M184.206 639.591 Q190.016 639.591 193.072 644.197 Q196.151 648.78 196.151 657.53 Q196.151 666.257 193.072 670.864 Q190.016 675.447 184.206 675.447 Q178.396 675.447 175.317 670.864 Q172.262 666.257 172.262 657.53 Q172.262 648.78 175.317 644.197 Q178.396 639.591 184.206 639.591 Z" fill="#000000" fill-rule="nonzero" fill-opacity="1" /><path clip-path="url(#clip170)" d="M205.855 621.787 Q202.921 621.787 201.436 624.683 Q199.969 627.561 199.969 633.353 Q199.969 639.127 201.436 642.024 Q202.921 644.901 205.855 644.901 Q208.808 644.901 210.275 642.024 Q211.761 639.127 211.761 633.353 Q211.761 627.561 210.275 624.683 Q208.808 621.787 205.855 621.787 M205.855 618.777 Q210.576 618.777 213.059 622.52 Q215.56 626.244 215.56 633.353 Q215.56 640.444 213.059 644.187 Q210.576 647.911 205.855 647.911 Q201.135 647.911 198.633 644.187 Q196.151 640.444 196.151 633.353 Q196.151 626.244 198.633 622.52 Q201.135 618.777 205.855 618.777 Z" fill="#000000" fill-rule="nonzero" fill-opacity="1" /><path clip-path="url(#clip170)" d="M146.096 274.618 L153.735 274.618 L153.735 248.252 L145.425 249.919 L145.425 245.66 L153.688 243.993 L158.364 243.993 L158.364 274.618 L166.003 274.618 L166.003 278.553 L146.096 278.553 L146.096 274.618 Z" fill="#000000" fill-rule="nonzero" fill-opacity="1" /><path clip-path="url(#clip170)" d="M185.448 247.072 Q181.836 247.072 180.008 250.637 Q178.202 254.178 178.202 261.308 Q178.202 268.414 180.008 271.979 Q181.836 275.521 185.448 275.521 Q189.082 275.521 190.887 271.979 Q192.716 268.414 192.716 261.308 Q192.716 254.178 190.887 250.637 Q189.082 247.072 185.448 247.072 M185.448 243.368 Q191.258 243.368 194.313 247.975 Q197.392 252.558 197.392 261.308 Q197.392 270.035 194.313 274.641 Q191.258 279.225 185.448 279.225 Q179.637 279.225 176.559 274.641 Q173.503 270.035 173.503 261.308 Q173.503 252.558 176.559 247.975 Q179.637 243.368 185.448 243.368 Z" fill="#000000" fill-rule="nonzero" fill-opacity="1" /><path clip-path="url(#clip170)" d="M198.577 223.063 L213.491 223.063 L213.491 226.26 L202.056 226.26 L202.056 233.144 Q202.884 232.862 203.711 232.73 Q204.539 232.58 205.366 232.58 Q210.068 232.58 212.814 235.156 Q215.56 237.733 215.56 242.134 Q215.56 246.667 212.739 249.187 Q209.918 251.688 204.783 251.688 Q203.015 251.688 201.172 251.387 Q199.348 251.086 197.392 250.485 L197.392 246.667 Q199.085 247.588 200.89 248.04 Q202.696 248.491 204.708 248.491 Q207.962 248.491 209.861 246.779 Q211.761 245.068 211.761 242.134 Q211.761 239.2 209.861 237.488 Q207.962 235.777 204.708 235.777 Q203.185 235.777 201.661 236.115 Q200.157 236.454 198.577 237.169 L198.577 223.063 Z" fill="#000000" fill-rule="nonzero" fill-opacity="1" /><path clip-path="url(#clip170)" d="M45.7664 817.313 Q39.4007 817.313 35.8996 819.955 Q32.3984 822.565 32.3984 827.307 Q32.3984 832.018 35.8996 834.66 Q39.4007 837.27 45.7664 837.27 Q52.1003 837.27 55.6014 834.66 Q59.1026 832.018 59.1026 827.307 Q59.1026 822.565 55.6014 819.955 Q52.1003 817.313 45.7664 817.313 M59.58 811.457 Q68.683 811.457 73.1071 815.499 Q77.5631 819.541 77.5631 827.88 Q77.5631 830.967 77.0857 833.705 Q76.6401 836.442 75.6852 839.02 L69.9879 839.02 Q71.3884 836.442 72.0568 833.928 Q72.7252 831.413 72.7252 828.803 Q72.7252 823.042 69.7015 820.178 Q66.7096 817.313 60.6303 817.313 L57.7339 817.313 Q60.885 819.127 62.4446 821.96 Q64.0042 824.793 64.0042 828.739 Q64.0042 835.296 59.0071 839.307 Q54.01 843.317 45.7664 843.317 Q37.491 843.317 32.4939 839.307 Q27.4968 835.296 27.4968 828.739 Q27.4968 824.793 29.0564 821.96 Q30.616 819.127 33.7671 817.313 L28.3562 817.313 L28.3562 811.457 L59.58 811.457 Z" fill="#000000" fill-rule="nonzero" fill-opacity="1" /><path clip-path="url(#clip170)" d="M33.8307 778.737 Q33.2578 779.724 33.0032 780.901 Q32.7167 782.047 32.7167 783.447 Q32.7167 788.413 35.9632 791.086 Q39.1779 793.728 45.2253 793.728 L64.0042 793.728 L64.0042 799.616 L28.3562 799.616 L28.3562 793.728 L33.8944 793.728 Q30.6479 791.882 29.0883 788.922 Q27.4968 785.962 27.4968 781.729 Q27.4968 781.124 27.5923 780.392 Q27.656 779.66 27.8151 778.769 L33.8307 778.737 Z" fill="#000000" fill-rule="nonzero" fill-opacity="1" /><path clip-path="url(#clip170)" d="M46.0847 756.393 Q46.0847 763.491 47.7079 766.228 Q49.3312 768.965 53.2461 768.965 Q56.3653 768.965 58.2114 766.928 Q60.0256 764.86 60.0256 761.327 Q60.0256 756.457 56.5881 753.529 Q53.1188 750.569 47.3897 750.569 L46.0847 750.569 L46.0847 756.393 M43.6657 744.712 L64.0042 744.712 L64.0042 750.569 L58.5933 750.569 Q61.8398 752.574 63.3994 755.566 Q64.9272 758.558 64.9272 762.886 Q64.9272 768.361 61.8716 771.607 Q58.7843 774.822 53.6281 774.822 Q47.6125 774.822 44.5569 770.812 Q41.5014 766.769 41.5014 758.78 L41.5014 750.569 L40.9285 750.569 Q36.8862 750.569 34.6901 753.242 Q32.4621 755.884 32.4621 760.69 Q32.4621 763.746 33.1941 766.642 Q33.9262 769.538 35.3903 772.212 L29.9795 772.212 Q28.7381 768.997 28.1334 765.974 Q27.4968 762.95 27.4968 760.085 Q27.4968 752.351 31.5072 748.532 Q35.5176 744.712 43.6657 744.712 Z" fill="#000000" fill-rule="nonzero" fill-opacity="1" /><path clip-path="url(#clip170)" d="M33.7671 709.191 L14.479 709.191 L14.479 703.335 L64.0042 703.335 L64.0042 709.191 L58.657 709.191 Q61.8398 711.038 63.3994 713.87 Q64.9272 716.671 64.9272 720.618 Q64.9272 727.079 59.771 731.153 Q54.6147 735.195 46.212 735.195 Q37.8093 735.195 32.6531 731.153 Q27.4968 727.079 27.4968 720.618 Q27.4968 716.671 29.0564 713.87 Q30.5842 711.038 33.7671 709.191 M46.212 729.148 Q52.6732 729.148 56.3653 726.506 Q60.0256 723.833 60.0256 719.186 Q60.0256 714.539 56.3653 711.865 Q52.6732 709.191 46.212 709.191 Q39.7508 709.191 36.0905 711.865 Q32.3984 714.539 32.3984 719.186 Q32.3984 723.833 36.0905 726.506 Q39.7508 729.148 46.212 729.148 Z" fill="#000000" fill-rule="nonzero" fill-opacity="1" /><path clip-path="url(#clip170)" d="M932.432 65.7705 L932.432 89.8329 L924.938 89.8329 L924.938 27.2059 L932.432 27.2059 L932.432 34.0924 Q934.782 30.0415 938.346 28.0971 Q941.952 26.1121 946.934 26.1121 Q955.198 26.1121 960.343 32.6746 Q965.528 39.2371 965.528 49.9314 Q965.528 60.6258 960.343 67.1883 Q955.198 73.7508 946.934 73.7508 Q941.952 73.7508 938.346 71.8063 Q934.782 69.8214 932.432 65.7705 M957.791 49.9314 Q957.791 41.7081 954.388 37.0496 Q951.026 32.3505 945.111 32.3505 Q939.197 32.3505 935.794 37.0496 Q932.432 41.7081 932.432 49.9314 Q932.432 58.1548 935.794 62.8538 Q939.197 67.5124 945.111 67.5124 Q951.026 67.5124 954.388 62.8538 Q957.791 58.1548 957.791 49.9314 Z" fill="#000000" fill-rule="nonzero" fill-opacity="1" /><path clip-path="url(#clip170)" d="M1004.17 34.1734 Q1002.92 33.4443 1001.42 33.1202 Q999.961 32.7556 998.178 32.7556 Q991.859 32.7556 988.456 36.8875 Q985.094 40.9789 985.094 48.6757 L985.094 72.576 L977.6 72.576 L977.6 27.2059 L985.094 27.2059 L985.094 34.2544 Q987.443 30.1225 991.211 28.1376 Q994.978 26.1121 1000.37 26.1121 Q1001.14 26.1121 1002.07 26.2337 Q1003 26.3147 1004.13 26.5172 L1004.17 34.1734 Z" fill="#000000" fill-rule="nonzero" fill-opacity="1" /><path clip-path="url(#clip170)" d="M1027.75 32.4315 Q1021.75 32.4315 1018.27 37.1306 Q1014.79 41.7891 1014.79 49.9314 Q1014.79 58.0738 1018.23 62.7728 Q1021.71 67.4314 1027.75 67.4314 Q1033.7 67.4314 1037.19 62.7323 Q1040.67 58.0333 1040.67 49.9314 Q1040.67 41.8701 1037.19 37.1711 Q1033.7 32.4315 1027.75 32.4315 M1027.75 26.1121 Q1037.47 26.1121 1043.02 32.4315 Q1048.57 38.7509 1048.57 49.9314 Q1048.57 61.0714 1043.02 67.4314 Q1037.47 73.7508 1027.75 73.7508 Q1017.99 73.7508 1012.44 67.4314 Q1006.93 61.0714 1006.93 49.9314 Q1006.93 38.7509 1012.44 32.4315 Q1017.99 26.1121 1027.75 26.1121 Z" fill="#000000" fill-rule="nonzero" fill-opacity="1" /><path clip-path="url(#clip170)" d="M1093.5 49.9314 Q1093.5 41.7081 1090.09 37.0496 Q1086.73 32.3505 1080.82 32.3505 Q1074.9 32.3505 1071.5 37.0496 Q1068.14 41.7081 1068.14 49.9314 Q1068.14 58.1548 1071.5 62.8538 Q1074.9 67.5124 1080.82 67.5124 Q1086.73 67.5124 1090.09 62.8538 Q1093.5 58.1548 1093.5 49.9314 M1068.14 34.0924 Q1070.49 30.0415 1074.05 28.0971 Q1077.66 26.1121 1082.64 26.1121 Q1090.9 26.1121 1096.05 32.6746 Q1101.23 39.2371 1101.23 49.9314 Q1101.23 60.6258 1096.05 67.1883 Q1090.9 73.7508 1082.64 73.7508 Q1077.66 73.7508 1074.05 71.8063 Q1070.49 69.8214 1068.14 65.7705 L1068.14 72.576 L1060.64 72.576 L1060.64 9.54393 L1068.14 9.54393 L1068.14 34.0924 Z" fill="#000000" fill-rule="nonzero" fill-opacity="1" /><path clip-path="url(#clip170)" d="M1113.59 9.54393 L1121.04 9.54393 L1121.04 72.576 L1113.59 72.576 L1113.59 9.54393 Z" fill="#000000" fill-rule="nonzero" fill-opacity="1" /><path clip-path="url(#clip170)" d="M1175.45 48.0275 L1175.45 51.6733 L1141.18 51.6733 Q1141.66 59.3701 1145.79 63.421 Q1149.97 67.4314 1157.38 67.4314 Q1161.67 67.4314 1165.68 66.3781 Q1169.73 65.3249 1173.7 63.2184 L1173.7 70.267 Q1169.69 71.9684 1165.48 72.8596 Q1161.27 73.7508 1156.93 73.7508 Q1146.08 73.7508 1139.72 67.4314 Q1133.4 61.1119 1133.4 50.3365 Q1133.4 39.1965 1139.39 32.6746 Q1145.43 26.1121 1155.64 26.1121 Q1164.79 26.1121 1170.1 32.0264 Q1175.45 37.9003 1175.45 48.0275 M1167.99 45.84 Q1167.91 39.7232 1164.55 36.0774 Q1161.23 32.4315 1155.72 32.4315 Q1149.48 32.4315 1145.71 35.9558 Q1141.99 39.4801 1141.42 45.8805 L1167.99 45.84 M1149.32 6.22219 L1160.74 21.3726 L1154.54 21.3726 L1141.34 6.22219 L1149.32 6.22219 Z" fill="#000000" fill-rule="nonzero" fill-opacity="1" /><path clip-path="url(#clip170)" d="M1223 35.9153 Q1225.8 30.8922 1229.69 28.5022 Q1233.58 26.1121 1238.84 26.1121 Q1245.93 26.1121 1249.78 31.0947 Q1253.63 36.0368 1253.63 45.1919 L1253.63 72.576 L1246.13 72.576 L1246.13 45.4349 Q1246.13 38.913 1243.83 35.7533 Q1241.52 32.5936 1236.78 32.5936 Q1230.98 32.5936 1227.62 36.4419 Q1224.26 40.2903 1224.26 46.9338 L1224.26 72.576 L1216.77 72.576 L1216.77 45.4349 Q1216.77 38.8725 1214.46 35.7533 Q1212.15 32.5936 1207.33 32.5936 Q1201.61 32.5936 1198.25 36.4824 Q1194.89 40.3308 1194.89 46.9338 L1194.89 72.576 L1187.4 72.576 L1187.4 27.2059 L1194.89 27.2059 L1194.89 34.2544 Q1197.44 30.082 1201.01 28.0971 Q1204.57 26.1121 1209.47 26.1121 Q1214.42 26.1121 1217.86 28.6237 Q1221.34 31.1352 1223 35.9153 Z" fill="#000000" fill-rule="nonzero" fill-opacity="1" /><path clip-path="url(#clip170)" d="M1307.3 48.0275 L1307.3 51.6733 L1273.03 51.6733 Q1273.52 59.3701 1277.65 63.421 Q1281.82 67.4314 1289.24 67.4314 Q1293.53 67.4314 1297.54 66.3781 Q1301.59 65.3249 1305.56 63.2184 L1305.56 70.267 Q1301.55 71.9684 1297.34 72.8596 Q1293.12 73.7508 1288.79 73.7508 Q1277.93 73.7508 1271.57 67.4314 Q1265.25 61.1119 1265.25 50.3365 Q1265.25 39.1965 1271.25 32.6746 Q1277.29 26.1121 1287.49 26.1121 Q1296.65 26.1121 1301.96 32.0264 Q1307.3 37.9003 1307.3 48.0275 M1299.85 45.84 Q1299.77 39.7232 1296.41 36.0774 Q1293.08 32.4315 1287.57 32.4315 Q1281.34 32.4315 1277.57 35.9558 Q1273.84 39.4801 1273.28 45.8805 L1299.85 45.84 Z" fill="#000000" fill-rule="nonzero" fill-opacity="1" /><path clip-path="url(#clip170)" d="M1347.81 62.2867 L1356.36 62.2867 L1356.36 72.576 L1347.81 72.576 L1347.81 62.2867 M1347.81 29.6769 L1356.36 29.6769 L1356.36 39.9662 L1347.81 39.9662 L1347.81 29.6769 Z" fill="#000000" fill-rule="nonzero" fill-opacity="1" /><path clip-path="url(#clip170)" d="M1435.55 35.9153 Q1438.35 30.8922 1442.24 28.5022 Q1446.13 26.1121 1451.39 26.1121 Q1458.48 26.1121 1462.33 31.0947 Q1466.18 36.0368 1466.18 45.1919 L1466.18 72.576 L1458.69 72.576 L1458.69 45.4349 Q1458.69 38.913 1456.38 35.7533 Q1454.07 32.5936 1449.33 32.5936 Q1443.53 32.5936 1440.17 36.4419 Q1436.81 40.2903 1436.81 46.9338 L1436.81 72.576 L1429.32 72.576 L1429.32 45.4349 Q1429.32 38.8725 1427.01 35.7533 Q1424.7 32.5936 1419.88 32.5936 Q1414.17 32.5936 1410.8 36.4824 Q1407.44 40.3308 1407.44 46.9338 L1407.44 72.576 L1399.95 72.576 L1399.95 27.2059 L1407.44 27.2059 L1407.44 34.2544 Q1409.99 30.082 1413.56 28.0971 Q1417.12 26.1121 1422.02 26.1121 Q1426.97 26.1121 1430.41 28.6237 Q1433.89 31.1352 1435.55 35.9153 Z" fill="#000000" fill-rule="nonzero" fill-opacity="1" /><path clip-path="url(#clip170)" d="M1510.9 49.3643 Q1510.9 41.2625 1507.54 36.8065 Q1504.22 32.3505 1498.18 32.3505 Q1492.19 32.3505 1488.82 36.8065 Q1485.5 41.2625 1485.5 49.3643 Q1485.5 57.4256 1488.82 61.8816 Q1492.19 66.3376 1498.18 66.3376 Q1504.22 66.3376 1507.54 61.8816 Q1510.9 57.4256 1510.9 49.3643 M1518.35 66.9452 Q1518.35 78.5308 1513.21 84.1616 Q1508.07 89.8329 1497.45 89.8329 Q1493.52 89.8329 1490.04 89.2252 Q1486.56 88.6581 1483.27 87.4428 L1483.27 80.1917 Q1486.56 81.9741 1489.76 82.8248 Q1492.96 83.6755 1496.28 83.6755 Q1503.61 83.6755 1507.26 79.8271 Q1510.9 76.0193 1510.9 68.282 L1510.9 64.5957 Q1508.59 68.6061 1504.99 70.5911 Q1501.38 72.576 1496.36 72.576 Q1488.01 72.576 1482.91 66.2161 Q1477.81 59.8562 1477.81 49.3643 Q1477.81 38.832 1482.91 32.472 Q1488.01 26.1121 1496.36 26.1121 Q1501.38 26.1121 1504.99 28.0971 Q1508.59 30.082 1510.9 34.0924 L1510.9 27.2059 L1518.35 27.2059 L1518.35 66.9452 Z" fill="#000000" fill-rule="nonzero" fill-opacity="1" /><path clip-path="url(#clip170)" d="M1571.42 45.1919 L1571.42 72.576 L1563.97 72.576 L1563.97 45.4349 Q1563.97 38.994 1561.46 35.7938 Q1558.94 32.5936 1553.92 32.5936 Q1547.89 32.5936 1544.4 36.4419 Q1540.92 40.2903 1540.92 46.9338 L1540.92 72.576 L1533.42 72.576 L1533.42 9.54393 L1540.92 9.54393 L1540.92 34.2544 Q1543.59 30.163 1547.2 28.1376 Q1550.84 26.1121 1555.58 26.1121 Q1563.4 26.1121 1567.41 30.9732 Q1571.42 35.7938 1571.42 45.1919 Z" fill="#000000" fill-rule="nonzero" fill-opacity="1" /><path clip-path="url(#clip170)" d="M1612.13 39.9662 Q1618.01 41.222 1621.29 45.1919 Q1624.61 49.1618 1624.61 54.9951 Q1624.61 63.9476 1618.45 68.8492 Q1612.3 73.7508 1600.95 73.7508 Q1597.14 73.7508 1593.09 72.9811 Q1589.08 72.2519 1584.79 70.7531 L1584.79 62.8538 Q1588.19 64.8388 1592.24 65.8515 Q1596.29 66.8642 1600.71 66.8642 Q1608.41 66.8642 1612.42 63.826 Q1616.47 60.7879 1616.47 54.9951 Q1616.47 49.6479 1612.7 46.6502 Q1608.97 43.612 1602.29 43.612 L1595.24 43.612 L1595.24 36.8875 L1602.61 36.8875 Q1608.65 36.8875 1611.85 34.4975 Q1615.05 32.067 1615.05 27.5299 Q1615.05 22.8714 1611.73 20.4004 Q1608.45 17.8888 1602.29 17.8888 Q1598.93 17.8888 1595.08 18.618 Q1591.23 19.3471 1586.61 20.8865 L1586.61 13.5948 Q1591.27 12.2985 1595.32 11.6504 Q1599.41 11.0023 1603.02 11.0023 Q1612.34 11.0023 1617.76 15.2557 Q1623.19 19.4686 1623.19 26.6793 Q1623.19 31.7024 1620.32 35.1862 Q1617.44 38.6294 1612.13 39.9662 Z" fill="#000000" fill-rule="nonzero" fill-opacity="1" /><path clip-path="url(#clip170)" d="M1662.61 19.2256 L1641.95 51.5113 L1662.61 51.5113 L1662.61 19.2256 M1660.46 12.096 L1670.75 12.096 L1670.75 51.5113 L1679.38 51.5113 L1679.38 58.3168 L1670.75 58.3168 L1670.75 72.576 L1662.61 72.576 L1662.61 58.3168 L1635.3 58.3168 L1635.3 50.4176 L1660.46 12.096 Z" fill="#000000" fill-rule="nonzero" fill-opacity="1" /><polyline clip-path="url(#clip172)" style="stroke:#009af9; stroke-linecap:round; stroke-linejoin:round; stroke-width:4; stroke-opacity:1; fill:none" points="311.028,160.256 2293.29,1386.4 "/>
<polyline clip-path="url(#clip172)" style="stroke:#e26f46; stroke-linecap:round; stroke-linejoin:round; stroke-width:4; stroke-opacity:1; fill:none" points="311.028,160.256 2293.29,1386.4 "/>
<polyline clip-path="url(#clip172)" style="stroke:#3da44d; stroke-linecap:round; stroke-linejoin:round; stroke-width:4; stroke-opacity:1; fill:none" points="311.028,160.256 2293.29,1386.4 "/>
<polyline clip-path="url(#clip172)" style="stroke:#c271d2; stroke-linecap:round; stroke-linejoin:round; stroke-width:4; stroke-opacity:1; fill:none" points="311.028,160.256 2293.29,1386.4 "/>
<polyline clip-path="url(#clip172)" style="stroke:#ac8d18; stroke-linecap:round; stroke-linejoin:round; stroke-width:4; stroke-opacity:1; fill:none" points="311.028,160.256 2293.29,1386.4 "/>
<path clip-path="url(#clip170)" d="M1749.5 477.836 L2282.72 477.836 L2282.72 166.796 L1749.5 166.796  Z" fill="#ffffff" fill-rule="evenodd" fill-opacity="1"/>
<polyline clip-path="url(#clip170)" style="stroke:#000000; stroke-linecap:round; stroke-linejoin:round; stroke-width:4; stroke-opacity:1; fill:none" points="1749.5,477.836 2282.72,477.836 2282.72,166.796 1749.5,166.796 1749.5,477.836 "/>
<polyline clip-path="url(#clip170)" style="stroke:#009af9; stroke-linecap:round; stroke-linejoin:round; stroke-width:4; stroke-opacity:1; fill:none" points="1772.84,218.636 1912.92,218.636 "/>
<path clip-path="url(#clip170)" d="M1936.27 201.356 L1940.95 201.356 L1940.95 231.981 L1957.77 231.981 L1957.77 235.916 L1936.27 235.916 L1936.27 201.356 Z" fill="#000000" fill-rule="nonzero" fill-opacity="1" /><path clip-path="url(#clip170)" d="M1962.68 201.356 L1969.65 201.356 L1978.47 224.874 L1987.33 201.356 L1994.3 201.356 L1994.3 235.916 L1989.74 235.916 L1989.74 205.569 L1980.83 229.272 L1976.13 229.272 L1967.22 205.569 L1967.22 235.916 L1962.68 235.916 L1962.68 201.356 Z" fill="#000000" fill-rule="nonzero" fill-opacity="1" /><path clip-path="url(#clip170)" d="M2023.1 243.786 L2023.1 247.096 L1998.47 247.096 L1998.47 243.786 L2023.1 243.786 Z" fill="#000000" fill-rule="nonzero" fill-opacity="1" /><path clip-path="url(#clip170)" d="M2048 202.49 L2048 207.05 Q2045.34 205.777 2042.98 205.152 Q2040.62 204.527 2038.42 204.527 Q2034.6 204.527 2032.52 206.008 Q2030.46 207.49 2030.46 210.221 Q2030.46 212.513 2031.82 213.694 Q2033.21 214.851 2037.06 215.569 L2039.88 216.147 Q2045.11 217.143 2047.59 219.666 Q2050.09 222.166 2050.09 226.379 Q2050.09 231.402 2046.71 233.994 Q2043.35 236.587 2036.85 236.587 Q2034.39 236.587 2031.62 236.031 Q2028.86 235.476 2025.9 234.388 L2025.9 229.573 Q2028.75 231.17 2031.48 231.981 Q2034.21 232.791 2036.85 232.791 Q2040.85 232.791 2043.03 231.217 Q2045.2 229.643 2045.2 226.726 Q2045.2 224.18 2043.63 222.744 Q2042.08 221.309 2038.51 220.592 L2035.67 220.036 Q2030.44 218.995 2028.1 216.772 Q2025.76 214.55 2025.76 210.592 Q2025.76 206.008 2028.98 203.37 Q2032.22 200.731 2037.89 200.731 Q2040.32 200.731 2042.84 201.171 Q2045.37 201.61 2048 202.49 Z" fill="#000000" fill-rule="nonzero" fill-opacity="1" /><path clip-path="url(#clip170)" d="M2062.06 205.198 L2062.06 218.184 L2067.94 218.184 Q2071.2 218.184 2072.98 216.495 Q2074.76 214.805 2074.76 211.68 Q2074.76 208.578 2072.98 206.888 Q2071.2 205.198 2067.94 205.198 L2062.06 205.198 M2057.38 201.356 L2067.94 201.356 Q2073.75 201.356 2076.71 203.995 Q2079.69 206.61 2079.69 211.68 Q2079.69 216.795 2076.71 219.411 Q2073.75 222.027 2067.94 222.027 L2062.06 222.027 L2062.06 235.916 L2057.38 235.916 L2057.38 201.356 Z" fill="#000000" fill-rule="nonzero" fill-opacity="1" /><path clip-path="url(#clip170)" d="M2109.53 230.985 L2109.53 221.703 L2101.89 221.703 L2101.89 217.86 L2114.16 217.86 L2114.16 232.698 Q2111.45 234.619 2108.19 235.615 Q2104.93 236.587 2101.22 236.587 Q2093.12 236.587 2088.54 231.865 Q2083.98 227.119 2083.98 218.67 Q2083.98 210.198 2088.54 205.476 Q2093.12 200.731 2101.22 200.731 Q2104.6 200.731 2107.63 201.564 Q2110.69 202.397 2113.26 204.018 L2113.26 208.995 Q2110.67 206.796 2107.75 205.684 Q2104.83 204.573 2101.62 204.573 Q2095.27 204.573 2092.08 208.115 Q2088.91 211.657 2088.91 218.67 Q2088.91 225.661 2092.08 229.203 Q2095.27 232.744 2101.62 232.744 Q2104.09 232.744 2106.04 232.328 Q2107.98 231.888 2109.53 230.985 Z" fill="#000000" fill-rule="nonzero" fill-opacity="1" /><polyline clip-path="url(#clip170)" style="stroke:#e26f46; stroke-linecap:round; stroke-linejoin:round; stroke-width:4; stroke-opacity:1; fill:none" points="1772.84,270.476 1912.92,270.476 "/>
<path clip-path="url(#clip170)" d="M1936.27 253.196 L1940.95 253.196 L1940.95 283.821 L1957.77 283.821 L1957.77 287.756 L1936.27 287.756 L1936.27 253.196 Z" fill="#000000" fill-rule="nonzero" fill-opacity="1" /><path clip-path="url(#clip170)" d="M1962.68 253.196 L1969.65 253.196 L1978.47 276.714 L1987.33 253.196 L1994.3 253.196 L1994.3 287.756 L1989.74 287.756 L1989.74 257.409 L1980.83 281.112 L1976.13 281.112 L1967.22 257.409 L1967.22 287.756 L1962.68 287.756 L1962.68 253.196 Z" fill="#000000" fill-rule="nonzero" fill-opacity="1" /><path clip-path="url(#clip170)" d="M2023.1 295.626 L2023.1 298.936 L1998.47 298.936 L1998.47 295.626 L2023.1 295.626 Z" fill="#000000" fill-rule="nonzero" fill-opacity="1" /><path clip-path="url(#clip170)" d="M2038.84 257.802 L2032.5 275.001 L2045.2 275.001 L2038.84 257.802 M2036.2 253.196 L2041.5 253.196 L2054.67 287.756 L2049.81 287.756 L2046.66 278.89 L2031.08 278.89 L2027.94 287.756 L2023 287.756 L2036.2 253.196 Z" fill="#000000" fill-rule="nonzero" fill-opacity="1" /><path clip-path="url(#clip170)" d="M2081.08 272.108 L2081.08 287.756 L2076.82 287.756 L2076.82 272.247 Q2076.82 268.566 2075.39 266.737 Q2073.95 264.909 2071.08 264.909 Q2067.63 264.909 2065.64 267.108 Q2063.65 269.307 2063.65 273.103 L2063.65 287.756 L2059.37 287.756 L2059.37 261.83 L2063.65 261.83 L2063.65 265.858 Q2065.18 263.52 2067.24 262.362 Q2069.32 261.205 2072.03 261.205 Q2076.5 261.205 2078.79 263.983 Q2081.08 266.737 2081.08 272.108 Z" fill="#000000" fill-rule="nonzero" fill-opacity="1" /><path clip-path="url(#clip170)" d="M2106.64 265.765 L2106.64 251.737 L2110.9 251.737 L2110.9 287.756 L2106.64 287.756 L2106.64 283.867 Q2105.3 286.182 2103.24 287.316 Q2101.2 288.427 2098.33 288.427 Q2093.63 288.427 2090.67 284.677 Q2087.73 280.927 2087.73 274.816 Q2087.73 268.705 2090.67 264.955 Q2093.63 261.205 2098.33 261.205 Q2101.2 261.205 2103.24 262.339 Q2105.3 263.45 2106.64 265.765 M2092.12 274.816 Q2092.12 279.515 2094.05 282.2 Q2095.99 284.862 2099.37 284.862 Q2102.75 284.862 2104.69 282.2 Q2106.64 279.515 2106.64 274.816 Q2106.64 270.117 2104.69 267.455 Q2102.75 264.77 2099.37 264.77 Q2095.99 264.77 2094.05 267.455 Q2092.12 270.117 2092.12 274.816 Z" fill="#000000" fill-rule="nonzero" fill-opacity="1" /><path clip-path="url(#clip170)" d="M2134.69 265.811 Q2133.98 265.395 2133.12 265.21 Q2132.29 265.001 2131.27 265.001 Q2127.66 265.001 2125.71 267.362 Q2123.79 269.7 2123.79 274.098 L2123.79 287.756 L2119.51 287.756 L2119.51 261.83 L2123.79 261.83 L2123.79 265.858 Q2125.13 263.497 2127.29 262.362 Q2129.44 261.205 2132.52 261.205 Q2132.96 261.205 2133.49 261.274 Q2134.02 261.321 2134.67 261.436 L2134.69 265.811 Z" fill="#000000" fill-rule="nonzero" fill-opacity="1" /><path clip-path="url(#clip170)" d="M2160.3 273.728 L2160.3 275.811 L2140.71 275.811 Q2140.99 280.209 2143.35 282.524 Q2145.74 284.816 2149.97 284.816 Q2152.43 284.816 2154.72 284.214 Q2157.03 283.612 2159.3 282.409 L2159.3 286.436 Q2157.01 287.408 2154.6 287.918 Q2152.19 288.427 2149.72 288.427 Q2143.51 288.427 2139.88 284.816 Q2136.27 281.205 2136.27 275.047 Q2136.27 268.682 2139.69 264.955 Q2143.14 261.205 2148.98 261.205 Q2154.21 261.205 2157.24 264.585 Q2160.3 267.941 2160.3 273.728 M2156.04 272.478 Q2155.99 268.983 2154.07 266.899 Q2152.17 264.816 2149.02 264.816 Q2145.46 264.816 2143.31 266.83 Q2141.18 268.844 2140.85 272.501 L2156.04 272.478 Z" fill="#000000" fill-rule="nonzero" fill-opacity="1" /><path clip-path="url(#clip170)" d="M2167.29 261.83 L2171.55 261.83 L2171.55 287.756 L2167.29 287.756 L2167.29 261.83 M2167.29 251.737 L2171.55 251.737 L2171.55 257.131 L2167.29 257.131 L2167.29 251.737 Z" fill="#000000" fill-rule="nonzero" fill-opacity="1" /><path clip-path="url(#clip170)" d="M2200.16 295.626 L2200.16 298.936 L2175.53 298.936 L2175.53 295.626 L2200.16 295.626 Z" fill="#000000" fill-rule="nonzero" fill-opacity="1" /><path clip-path="url(#clip170)" d="M2215.94 274.723 Q2210.78 274.723 2208.79 275.904 Q2206.8 277.084 2206.8 279.932 Q2206.8 282.2 2208.28 283.543 Q2209.79 284.862 2212.36 284.862 Q2215.9 284.862 2218.03 282.362 Q2220.18 279.839 2220.18 275.672 L2220.18 274.723 L2215.94 274.723 M2224.44 272.964 L2224.44 287.756 L2220.18 287.756 L2220.18 283.821 Q2218.72 286.182 2216.55 287.316 Q2214.37 288.427 2211.22 288.427 Q2207.24 288.427 2204.88 286.205 Q2202.54 283.959 2202.54 280.209 Q2202.54 275.834 2205.46 273.612 Q2208.4 271.39 2214.21 271.39 L2220.18 271.39 L2220.18 270.973 Q2220.18 268.034 2218.24 266.436 Q2216.31 264.816 2212.82 264.816 Q2210.6 264.816 2208.49 265.348 Q2206.38 265.881 2204.44 266.946 L2204.44 263.01 Q2206.78 262.108 2208.98 261.668 Q2211.18 261.205 2213.26 261.205 Q2218.88 261.205 2221.66 264.122 Q2224.44 267.038 2224.44 272.964 Z" fill="#000000" fill-rule="nonzero" fill-opacity="1" /><path clip-path="url(#clip170)" d="M2233.21 251.737 L2237.47 251.737 L2237.47 287.756 L2233.21 287.756 L2233.21 251.737 Z" fill="#000000" fill-rule="nonzero" fill-opacity="1" /><path clip-path="url(#clip170)" d="M2250.6 254.469 L2250.6 261.83 L2259.37 261.83 L2259.37 265.14 L2250.6 265.14 L2250.6 279.214 Q2250.6 282.385 2251.45 283.288 Q2252.33 284.191 2254.99 284.191 L2259.37 284.191 L2259.37 287.756 L2254.99 287.756 Q2250.06 287.756 2248.19 285.927 Q2246.31 284.075 2246.31 279.214 L2246.31 265.14 L2243.19 265.14 L2243.19 261.83 L2246.31 261.83 L2246.31 254.469 L2250.6 254.469 Z" fill="#000000" fill-rule="nonzero" fill-opacity="1" /><polyline clip-path="url(#clip170)" style="stroke:#3da44d; stroke-linecap:round; stroke-linejoin:round; stroke-width:4; stroke-opacity:1; fill:none" points="1772.84,322.316 1912.92,322.316 "/>
<path clip-path="url(#clip170)" d="M1936.27 305.036 L1940.95 305.036 L1940.95 335.661 L1957.77 335.661 L1957.77 339.596 L1936.27 339.596 L1936.27 305.036 Z" fill="#000000" fill-rule="nonzero" fill-opacity="1" /><path clip-path="url(#clip170)" d="M1962.68 305.036 L1969.65 305.036 L1978.47 328.554 L1987.33 305.036 L1994.3 305.036 L1994.3 339.596 L1989.74 339.596 L1989.74 309.249 L1980.83 332.952 L1976.13 332.952 L1967.22 309.249 L1967.22 339.596 L1962.68 339.596 L1962.68 305.036 Z" fill="#000000" fill-rule="nonzero" fill-opacity="1" /><path clip-path="url(#clip170)" d="M2023.1 347.466 L2023.1 350.776 L1998.47 350.776 L1998.47 347.466 L2023.1 347.466 Z" fill="#000000" fill-rule="nonzero" fill-opacity="1" /><path clip-path="url(#clip170)" d="M2038.84 309.642 L2032.5 326.841 L2045.2 326.841 L2038.84 309.642 M2036.2 305.036 L2041.5 305.036 L2054.67 339.596 L2049.81 339.596 L2046.66 330.73 L2031.08 330.73 L2027.94 339.596 L2023 339.596 L2036.2 305.036 Z" fill="#000000" fill-rule="nonzero" fill-opacity="1" /><path clip-path="url(#clip170)" d="M2081.08 323.948 L2081.08 339.596 L2076.82 339.596 L2076.82 324.087 Q2076.82 320.406 2075.39 318.577 Q2073.95 316.749 2071.08 316.749 Q2067.63 316.749 2065.64 318.948 Q2063.65 321.147 2063.65 324.943 L2063.65 339.596 L2059.37 339.596 L2059.37 313.67 L2063.65 313.67 L2063.65 317.698 Q2065.18 315.36 2067.24 314.202 Q2069.32 313.045 2072.03 313.045 Q2076.5 313.045 2078.79 315.823 Q2081.08 318.577 2081.08 323.948 Z" fill="#000000" fill-rule="nonzero" fill-opacity="1" /><path clip-path="url(#clip170)" d="M2106.64 317.605 L2106.64 303.577 L2110.9 303.577 L2110.9 339.596 L2106.64 339.596 L2106.64 335.707 Q2105.3 338.022 2103.24 339.156 Q2101.2 340.267 2098.33 340.267 Q2093.63 340.267 2090.67 336.517 Q2087.73 332.767 2087.73 326.656 Q2087.73 320.545 2090.67 316.795 Q2093.63 313.045 2098.33 313.045 Q2101.2 313.045 2103.24 314.179 Q2105.3 315.29 2106.64 317.605 M2092.12 326.656 Q2092.12 331.355 2094.05 334.04 Q2095.99 336.702 2099.37 336.702 Q2102.75 336.702 2104.69 334.04 Q2106.64 331.355 2106.64 326.656 Q2106.64 321.957 2104.69 319.295 Q2102.75 316.61 2099.37 316.61 Q2095.99 316.61 2094.05 319.295 Q2092.12 321.957 2092.12 326.656 Z" fill="#000000" fill-rule="nonzero" fill-opacity="1" /><path clip-path="url(#clip170)" d="M2134.69 317.651 Q2133.98 317.235 2133.12 317.05 Q2132.29 316.841 2131.27 316.841 Q2127.66 316.841 2125.71 319.202 Q2123.79 321.54 2123.79 325.938 L2123.79 339.596 L2119.51 339.596 L2119.51 313.67 L2123.79 313.67 L2123.79 317.698 Q2125.13 315.337 2127.29 314.202 Q2129.44 313.045 2132.52 313.045 Q2132.96 313.045 2133.49 313.114 Q2134.02 313.161 2134.67 313.276 L2134.69 317.651 Z" fill="#000000" fill-rule="nonzero" fill-opacity="1" /><path clip-path="url(#clip170)" d="M2160.3 325.568 L2160.3 327.651 L2140.71 327.651 Q2140.99 332.049 2143.35 334.364 Q2145.74 336.656 2149.97 336.656 Q2152.43 336.656 2154.72 336.054 Q2157.03 335.452 2159.3 334.249 L2159.3 338.276 Q2157.01 339.248 2154.6 339.758 Q2152.19 340.267 2149.72 340.267 Q2143.51 340.267 2139.88 336.656 Q2136.27 333.045 2136.27 326.887 Q2136.27 320.522 2139.69 316.795 Q2143.14 313.045 2148.98 313.045 Q2154.21 313.045 2157.24 316.425 Q2160.3 319.781 2160.3 325.568 M2156.04 324.318 Q2155.99 320.823 2154.07 318.739 Q2152.17 316.656 2149.02 316.656 Q2145.46 316.656 2143.31 318.67 Q2141.18 320.684 2140.85 324.341 L2156.04 324.318 Z" fill="#000000" fill-rule="nonzero" fill-opacity="1" /><path clip-path="url(#clip170)" d="M2167.29 313.67 L2171.55 313.67 L2171.55 339.596 L2167.29 339.596 L2167.29 313.67 M2167.29 303.577 L2171.55 303.577 L2171.55 308.971 L2167.29 308.971 L2167.29 303.577 Z" fill="#000000" fill-rule="nonzero" fill-opacity="1" /><polyline clip-path="url(#clip170)" style="stroke:#c271d2; stroke-linecap:round; stroke-linejoin:round; stroke-width:4; stroke-opacity:1; fill:none" points="1772.84,374.156 1912.92,374.156 "/>
<path clip-path="url(#clip170)" d="M1936.27 356.876 L1940.95 356.876 L1940.95 387.501 L1957.77 387.501 L1957.77 391.436 L1936.27 391.436 L1936.27 356.876 Z" fill="#000000" fill-rule="nonzero" fill-opacity="1" /><path clip-path="url(#clip170)" d="M1962.68 356.876 L1969.65 356.876 L1978.47 380.394 L1987.33 356.876 L1994.3 356.876 L1994.3 391.436 L1989.74 391.436 L1989.74 361.089 L1980.83 384.792 L1976.13 384.792 L1967.22 361.089 L1967.22 391.436 L1962.68 391.436 L1962.68 356.876 Z" fill="#000000" fill-rule="nonzero" fill-opacity="1" /><path clip-path="url(#clip170)" d="M2023.1 399.306 L2023.1 402.616 L1998.47 402.616 L1998.47 399.306 L2023.1 399.306 Z" fill="#000000" fill-rule="nonzero" fill-opacity="1" /><path clip-path="url(#clip170)" d="M2048 358.01 L2048 362.57 Q2045.34 361.297 2042.98 360.672 Q2040.62 360.047 2038.42 360.047 Q2034.6 360.047 2032.52 361.528 Q2030.46 363.01 2030.46 365.741 Q2030.46 368.033 2031.82 369.214 Q2033.21 370.371 2037.06 371.089 L2039.88 371.667 Q2045.11 372.663 2047.59 375.186 Q2050.09 377.686 2050.09 381.899 Q2050.09 386.922 2046.71 389.514 Q2043.35 392.107 2036.85 392.107 Q2034.39 392.107 2031.62 391.551 Q2028.86 390.996 2025.9 389.908 L2025.9 385.093 Q2028.75 386.69 2031.48 387.501 Q2034.21 388.311 2036.85 388.311 Q2040.85 388.311 2043.03 386.737 Q2045.2 385.163 2045.2 382.246 Q2045.2 379.7 2043.63 378.264 Q2042.08 376.829 2038.51 376.112 L2035.67 375.556 Q2030.44 374.515 2028.1 372.292 Q2025.76 370.07 2025.76 366.112 Q2025.76 361.528 2028.98 358.89 Q2032.22 356.251 2037.89 356.251 Q2040.32 356.251 2042.84 356.691 Q2045.37 357.13 2048 358.01 Z" fill="#000000" fill-rule="nonzero" fill-opacity="1" /><path clip-path="url(#clip170)" d="M2062.06 360.718 L2062.06 373.704 L2067.94 373.704 Q2071.2 373.704 2072.98 372.015 Q2074.76 370.325 2074.76 367.2 Q2074.76 364.098 2072.98 362.408 Q2071.2 360.718 2067.94 360.718 L2062.06 360.718 M2057.38 356.876 L2067.94 356.876 Q2073.75 356.876 2076.71 359.515 Q2079.69 362.13 2079.69 367.2 Q2079.69 372.315 2076.71 374.931 Q2073.75 377.547 2067.94 377.547 L2062.06 377.547 L2062.06 391.436 L2057.38 391.436 L2057.38 356.876 Z" fill="#000000" fill-rule="nonzero" fill-opacity="1" /><path clip-path="url(#clip170)" d="M2109.53 386.505 L2109.53 377.223 L2101.89 377.223 L2101.89 373.38 L2114.16 373.38 L2114.16 388.218 Q2111.45 390.139 2108.19 391.135 Q2104.93 392.107 2101.22 392.107 Q2093.12 392.107 2088.54 387.385 Q2083.98 382.639 2083.98 374.19 Q2083.98 365.718 2088.54 360.996 Q2093.12 356.251 2101.22 356.251 Q2104.6 356.251 2107.63 357.084 Q2110.69 357.917 2113.26 359.538 L2113.26 364.515 Q2110.67 362.316 2107.75 361.204 Q2104.83 360.093 2101.62 360.093 Q2095.27 360.093 2092.08 363.635 Q2088.91 367.177 2088.91 374.19 Q2088.91 381.181 2092.08 384.723 Q2095.27 388.264 2101.62 388.264 Q2104.09 388.264 2106.04 387.848 Q2107.98 387.408 2109.53 386.505 Z" fill="#000000" fill-rule="nonzero" fill-opacity="1" /><path clip-path="url(#clip170)" d="M2142.22 399.306 L2142.22 402.616 L2117.59 402.616 L2117.59 399.306 L2142.22 399.306 Z" fill="#000000" fill-rule="nonzero" fill-opacity="1" /><path clip-path="url(#clip170)" d="M2158 378.403 Q2152.84 378.403 2150.85 379.584 Q2148.86 380.764 2148.86 383.612 Q2148.86 385.88 2150.34 387.223 Q2151.85 388.542 2154.42 388.542 Q2157.96 388.542 2160.09 386.042 Q2162.24 383.519 2162.24 379.352 L2162.24 378.403 L2158 378.403 M2166.5 376.644 L2166.5 391.436 L2162.24 391.436 L2162.24 387.501 Q2160.78 389.862 2158.61 390.996 Q2156.43 392.107 2153.28 392.107 Q2149.3 392.107 2146.94 389.885 Q2144.6 387.639 2144.6 383.889 Q2144.6 379.514 2147.52 377.292 Q2150.46 375.07 2156.27 375.07 L2162.24 375.07 L2162.24 374.653 Q2162.24 371.714 2160.3 370.116 Q2158.37 368.496 2154.88 368.496 Q2152.66 368.496 2150.55 369.028 Q2148.44 369.561 2146.5 370.626 L2146.5 366.69 Q2148.84 365.788 2151.04 365.348 Q2153.24 364.885 2155.32 364.885 Q2160.94 364.885 2163.72 367.802 Q2166.5 370.718 2166.5 376.644 Z" fill="#000000" fill-rule="nonzero" fill-opacity="1" /><path clip-path="url(#clip170)" d="M2175.27 355.417 L2179.53 355.417 L2179.53 391.436 L2175.27 391.436 L2175.27 355.417 Z" fill="#000000" fill-rule="nonzero" fill-opacity="1" /><path clip-path="url(#clip170)" d="M2192.66 358.149 L2192.66 365.51 L2201.43 365.51 L2201.43 368.82 L2192.66 368.82 L2192.66 382.894 Q2192.66 386.065 2193.51 386.968 Q2194.39 387.871 2197.05 387.871 L2201.43 387.871 L2201.43 391.436 L2197.05 391.436 Q2192.12 391.436 2190.25 389.607 Q2188.37 387.755 2188.37 382.894 L2188.37 368.82 L2185.25 368.82 L2185.25 365.51 L2188.37 365.51 L2188.37 358.149 L2192.66 358.149 Z" fill="#000000" fill-rule="nonzero" fill-opacity="1" /><polyline clip-path="url(#clip170)" style="stroke:#ac8d18; stroke-linecap:round; stroke-linejoin:round; stroke-width:4; stroke-opacity:1; fill:none" points="1772.84,425.996 1912.92,425.996 "/>
<path clip-path="url(#clip170)" d="M1936.27 408.716 L1940.95 408.716 L1940.95 439.341 L1957.77 439.341 L1957.77 443.276 L1936.27 443.276 L1936.27 408.716 Z" fill="#000000" fill-rule="nonzero" fill-opacity="1" /><path clip-path="url(#clip170)" d="M1962.68 408.716 L1969.65 408.716 L1978.47 432.234 L1987.33 408.716 L1994.3 408.716 L1994.3 443.276 L1989.74 443.276 L1989.74 412.929 L1980.83 436.632 L1976.13 436.632 L1967.22 412.929 L1967.22 443.276 L1962.68 443.276 L1962.68 408.716 Z" fill="#000000" fill-rule="nonzero" fill-opacity="1" /></svg>
