<?xml version="1.0" encoding="utf-8"?>
<svg xmlns="http://www.w3.org/2000/svg" xmlns:xlink="http://www.w3.org/1999/xlink" width="600" height="400" viewBox="0 0 2400 1600">
<defs>
  <clipPath id="clip130">
    <rect x="0" y="0" width="2400" height="1600"/>
  </clipPath>
</defs>
<path clip-path="url(#clip130)" d="M0 1600 L2400 1600 L2400 0 L0 0  Z" fill="#ffffff" fill-rule="evenodd" fill-opacity="1"/>
<defs>
  <clipPath id="clip131">
    <rect x="480" y="0" width="1681" height="1600"/>
  </clipPath>
</defs>
<path clip-path="url(#clip130)" d="M220.716 1423.18 L2352.76 1423.18 L2352.76 123.472 L220.716 123.472  Z" fill="#ffffff" fill-rule="evenodd" fill-opacity="1"/>
<defs>
  <clipPath id="clip132">
    <rect x="220" y="123" width="2133" height="1301"/>
  </clipPath>
</defs>
<polyline clip-path="url(#clip132)" style="stroke:#000000; stroke-linecap:round; stroke-linejoin:round; stroke-width:2; stroke-opacity:0.1; fill:none" points="281.056,1423.18 281.056,123.472 "/>
<polyline clip-path="url(#clip132)" style="stroke:#000000; stroke-linecap:round; stroke-linejoin:round; stroke-width:2; stroke-opacity:0.1; fill:none" points="783.896,1423.18 783.896,123.472 "/>
<polyline clip-path="url(#clip132)" style="stroke:#000000; stroke-linecap:round; stroke-linejoin:round; stroke-width:2; stroke-opacity:0.1; fill:none" points="1286.74,1423.18 1286.74,123.472 "/>
<polyline clip-path="url(#clip132)" style="stroke:#000000; stroke-linecap:round; stroke-linejoin:round; stroke-width:2; stroke-opacity:0.1; fill:none" points="1789.58,1423.18 1789.58,123.472 "/>
<polyline clip-path="url(#clip132)" style="stroke:#000000; stroke-linecap:round; stroke-linejoin:round; stroke-width:2; stroke-opacity:0.1; fill:none" points="2292.42,1423.18 2292.42,123.472 "/>
<polyline clip-path="url(#clip130)" style="stroke:#000000; stroke-linecap:round; stroke-linejoin:round; stroke-width:4; stroke-opacity:1; fill:none" points="220.716,1423.18 2352.76,1423.18 "/>
<polyline clip-path="url(#clip130)" style="stroke:#000000; stroke-linecap:round; stroke-linejoin:round; stroke-width:4; stroke-opacity:1; fill:none" points="281.056,1423.18 281.056,1404.28 "/>
<polyline clip-path="url(#clip130)" style="stroke:#000000; stroke-linecap:round; stroke-linejoin:round; stroke-width:4; stroke-opacity:1; fill:none" points="783.896,1423.18 783.896,1404.28 "/>
<polyline clip-path="url(#clip130)" style="stroke:#000000; stroke-linecap:round; stroke-linejoin:round; stroke-width:4; stroke-opacity:1; fill:none" points="1286.74,1423.18 1286.74,1404.28 "/>
<polyline clip-path="url(#clip130)" style="stroke:#000000; stroke-linecap:round; stroke-linejoin:round; stroke-width:4; stroke-opacity:1; fill:none" points="1789.58,1423.18 1789.58,1404.28 "/>
<polyline clip-path="url(#clip130)" style="stroke:#000000; stroke-linecap:round; stroke-linejoin:round; stroke-width:4; stroke-opacity:1; fill:none" points="2292.42,1423.18 2292.42,1404.28 "/>
<path clip-path="url(#clip130)" d="M233.128 1481.64 L240.767 1481.64 L240.767 1455.28 L232.457 1456.95 L232.457 1452.69 L240.721 1451.02 L245.397 1451.02 L245.397 1481.64 L253.036 1481.64 L253.036 1485.58 L233.128 1485.58 L233.128 1481.64 Z" fill="#000000" fill-rule="nonzero" fill-opacity="1" /><path clip-path="url(#clip130)" d="M262.48 1479.7 L267.364 1479.7 L267.364 1485.58 L262.48 1485.58 L262.48 1479.7 Z" fill="#000000" fill-rule="nonzero" fill-opacity="1" /><path clip-path="url(#clip130)" d="M287.549 1454.1 Q283.938 1454.1 282.11 1457.66 Q280.304 1461.2 280.304 1468.33 Q280.304 1475.44 282.11 1479.01 Q283.938 1482.55 287.549 1482.55 Q291.184 1482.55 292.989 1479.01 Q294.818 1475.44 294.818 1468.33 Q294.818 1461.2 292.989 1457.66 Q291.184 1454.1 287.549 1454.1 M287.549 1450.39 Q293.359 1450.39 296.415 1455 Q299.494 1459.58 299.494 1468.33 Q299.494 1477.06 296.415 1481.67 Q293.359 1486.25 287.549 1486.25 Q281.739 1486.25 278.66 1481.67 Q275.605 1477.06 275.605 1468.33 Q275.605 1459.58 278.66 1455 Q281.739 1450.39 287.549 1450.39 Z" fill="#000000" fill-rule="nonzero" fill-opacity="1" /><path clip-path="url(#clip130)" d="M317.711 1454.1 Q314.1 1454.1 312.271 1457.66 Q310.466 1461.2 310.466 1468.33 Q310.466 1475.44 312.271 1479.01 Q314.1 1482.55 317.711 1482.55 Q321.345 1482.55 323.151 1479.01 Q324.98 1475.44 324.98 1468.33 Q324.98 1461.2 323.151 1457.66 Q321.345 1454.1 317.711 1454.1 M317.711 1450.39 Q323.521 1450.39 326.577 1455 Q329.656 1459.58 329.656 1468.33 Q329.656 1477.06 326.577 1481.67 Q323.521 1486.25 317.711 1486.25 Q311.901 1486.25 308.822 1481.67 Q305.767 1477.06 305.767 1468.33 Q305.767 1459.58 308.822 1455 Q311.901 1450.39 317.711 1450.39 Z" fill="#000000" fill-rule="nonzero" fill-opacity="1" /><path clip-path="url(#clip130)" d="M736.466 1481.64 L744.105 1481.64 L744.105 1455.28 L735.794 1456.95 L735.794 1452.69 L744.058 1451.02 L748.734 1451.02 L748.734 1481.64 L756.373 1481.64 L756.373 1485.58 L736.466 1485.58 L736.466 1481.64 Z" fill="#000000" fill-rule="nonzero" fill-opacity="1" /><path clip-path="url(#clip130)" d="M765.817 1479.7 L770.702 1479.7 L770.702 1485.58 L765.817 1485.58 L765.817 1479.7 Z" fill="#000000" fill-rule="nonzero" fill-opacity="1" /><path clip-path="url(#clip130)" d="M784.915 1481.64 L801.234 1481.64 L801.234 1485.58 L779.29 1485.58 L779.29 1481.64 Q781.952 1478.89 786.535 1474.26 Q791.141 1469.61 792.322 1468.27 Q794.567 1465.74 795.447 1464.01 Q796.35 1462.25 796.35 1460.56 Q796.35 1457.8 794.405 1456.07 Q792.484 1454.33 789.382 1454.33 Q787.183 1454.33 784.729 1455.09 Q782.299 1455.86 779.521 1457.41 L779.521 1452.69 Q782.345 1451.55 784.799 1450.97 Q787.252 1450.39 789.289 1450.39 Q794.66 1450.39 797.854 1453.08 Q801.049 1455.77 801.049 1460.26 Q801.049 1462.39 800.238 1464.31 Q799.451 1466.2 797.345 1468.8 Q796.766 1469.47 793.664 1472.69 Q790.563 1475.88 784.915 1481.64 Z" fill="#000000" fill-rule="nonzero" fill-opacity="1" /><path clip-path="url(#clip130)" d="M811.095 1451.02 L829.451 1451.02 L829.451 1454.96 L815.377 1454.96 L815.377 1463.43 Q816.396 1463.08 817.414 1462.92 Q818.433 1462.73 819.451 1462.73 Q825.238 1462.73 828.618 1465.9 Q831.998 1469.08 831.998 1474.49 Q831.998 1480.07 828.525 1483.17 Q825.053 1486.25 818.734 1486.25 Q816.558 1486.25 814.289 1485.88 Q812.044 1485.51 809.637 1484.77 L809.637 1480.07 Q811.72 1481.2 813.942 1481.76 Q816.164 1482.32 818.641 1482.32 Q822.646 1482.32 824.984 1480.21 Q827.322 1478.1 827.322 1474.49 Q827.322 1470.88 824.984 1468.77 Q822.646 1466.67 818.641 1466.67 Q816.766 1466.67 814.891 1467.08 Q813.039 1467.5 811.095 1468.38 L811.095 1451.02 Z" fill="#000000" fill-rule="nonzero" fill-opacity="1" /><path clip-path="url(#clip130)" d="M1238.81 1481.64 L1246.45 1481.64 L1246.45 1455.28 L1238.14 1456.95 L1238.14 1452.69 L1246.4 1451.02 L1251.08 1451.02 L1251.08 1481.64 L1258.72 1481.64 L1258.72 1485.58 L1238.81 1485.58 L1238.81 1481.64 Z" fill="#000000" fill-rule="nonzero" fill-opacity="1" /><path clip-path="url(#clip130)" d="M1268.16 1479.7 L1273.04 1479.7 L1273.04 1485.58 L1268.16 1485.58 L1268.16 1479.7 Z" fill="#000000" fill-rule="nonzero" fill-opacity="1" /><path clip-path="url(#clip130)" d="M1283.28 1451.02 L1301.63 1451.02 L1301.63 1454.96 L1287.56 1454.96 L1287.56 1463.43 Q1288.58 1463.08 1289.59 1462.92 Q1290.61 1462.73 1291.63 1462.73 Q1297.42 1462.73 1300.8 1465.9 Q1304.18 1469.08 1304.18 1474.49 Q1304.18 1480.07 1300.71 1483.17 Q1297.23 1486.25 1290.91 1486.25 Q1288.74 1486.25 1286.47 1485.88 Q1284.22 1485.51 1281.82 1484.77 L1281.82 1480.07 Q1283.9 1481.2 1286.12 1481.76 Q1288.34 1482.32 1290.82 1482.32 Q1294.83 1482.32 1297.16 1480.21 Q1299.5 1478.1 1299.5 1474.49 Q1299.5 1470.88 1297.16 1468.77 Q1294.83 1466.67 1290.82 1466.67 Q1288.95 1466.67 1287.07 1467.08 Q1285.22 1467.5 1283.28 1468.38 L1283.28 1451.02 Z" fill="#000000" fill-rule="nonzero" fill-opacity="1" /><path clip-path="url(#clip130)" d="M1323.39 1454.1 Q1319.78 1454.1 1317.95 1457.66 Q1316.15 1461.2 1316.15 1468.33 Q1316.15 1475.44 1317.95 1479.01 Q1319.78 1482.55 1323.39 1482.55 Q1327.02 1482.55 1328.83 1479.01 Q1330.66 1475.44 1330.66 1468.33 Q1330.66 1461.2 1328.83 1457.66 Q1327.02 1454.1 1323.39 1454.1 M1323.39 1450.39 Q1329.2 1450.39 1332.26 1455 Q1335.33 1459.58 1335.33 1468.33 Q1335.33 1477.06 1332.26 1481.67 Q1329.2 1486.25 1323.39 1486.25 Q1317.58 1486.25 1314.5 1481.67 Q1311.45 1477.06 1311.45 1468.33 Q1311.45 1459.58 1314.5 1455 Q1317.58 1450.39 1323.39 1450.39 Z" fill="#000000" fill-rule="nonzero" fill-opacity="1" /><path clip-path="url(#clip130)" d="M1742.15 1481.64 L1749.78 1481.64 L1749.78 1455.28 L1741.47 1456.95 L1741.47 1452.69 L1749.74 1451.02 L1754.41 1451.02 L1754.41 1481.64 L1762.05 1481.64 L1762.05 1485.58 L1742.15 1485.58 L1742.15 1481.64 Z" fill="#000000" fill-rule="nonzero" fill-opacity="1" /><path clip-path="url(#clip130)" d="M1771.5 1479.7 L1776.38 1479.7 L1776.38 1485.58 L1771.5 1485.58 L1771.5 1479.7 Z" fill="#000000" fill-rule="nonzero" fill-opacity="1" /><path clip-path="url(#clip130)" d="M1785.39 1451.02 L1807.61 1451.02 L1807.61 1453.01 L1795.06 1485.58 L1790.18 1485.58 L1801.98 1454.96 L1785.39 1454.96 L1785.39 1451.02 Z" fill="#000000" fill-rule="nonzero" fill-opacity="1" /><path clip-path="url(#clip130)" d="M1816.77 1451.02 L1835.13 1451.02 L1835.13 1454.96 L1821.06 1454.96 L1821.06 1463.43 Q1822.08 1463.08 1823.09 1462.92 Q1824.11 1462.73 1825.13 1462.73 Q1830.92 1462.73 1834.3 1465.9 Q1837.68 1469.08 1837.68 1474.49 Q1837.68 1480.07 1834.2 1483.17 Q1830.73 1486.25 1824.41 1486.25 Q1822.24 1486.25 1819.97 1485.88 Q1817.72 1485.51 1815.32 1484.77 L1815.32 1480.07 Q1817.4 1481.2 1819.62 1481.76 Q1821.84 1482.32 1824.32 1482.32 Q1828.33 1482.32 1830.66 1480.21 Q1833 1478.1 1833 1474.49 Q1833 1470.88 1830.66 1468.77 Q1828.33 1466.67 1824.32 1466.67 Q1822.45 1466.67 1820.57 1467.08 Q1818.72 1467.5 1816.77 1468.38 L1816.77 1451.02 Z" fill="#000000" fill-rule="nonzero" fill-opacity="1" /><path clip-path="url(#clip130)" d="M2248.57 1481.64 L2264.89 1481.64 L2264.89 1485.58 L2242.95 1485.58 L2242.95 1481.64 Q2245.61 1478.89 2250.19 1474.26 Q2254.8 1469.61 2255.98 1468.27 Q2258.23 1465.74 2259.11 1464.01 Q2260.01 1462.25 2260.01 1460.56 Q2260.01 1457.8 2258.06 1456.07 Q2256.14 1454.33 2253.04 1454.33 Q2250.84 1454.33 2248.39 1455.09 Q2245.96 1455.86 2243.18 1457.41 L2243.18 1452.69 Q2246 1451.55 2248.46 1450.97 Q2250.91 1450.39 2252.95 1450.39 Q2258.32 1450.39 2261.51 1453.08 Q2264.71 1455.77 2264.71 1460.26 Q2264.71 1462.39 2263.9 1464.31 Q2263.11 1466.2 2261 1468.8 Q2260.42 1469.47 2257.32 1472.69 Q2254.22 1475.88 2248.57 1481.64 Z" fill="#000000" fill-rule="nonzero" fill-opacity="1" /><path clip-path="url(#clip130)" d="M2274.71 1479.7 L2279.59 1479.7 L2279.59 1485.58 L2274.71 1485.58 L2274.71 1479.7 Z" fill="#000000" fill-rule="nonzero" fill-opacity="1" /><path clip-path="url(#clip130)" d="M2299.78 1454.1 Q2296.17 1454.1 2294.34 1457.66 Q2292.53 1461.2 2292.53 1468.33 Q2292.53 1475.44 2294.34 1479.01 Q2296.17 1482.55 2299.78 1482.55 Q2303.41 1482.55 2305.22 1479.01 Q2307.04 1475.44 2307.04 1468.33 Q2307.04 1461.2 2305.22 1457.66 Q2303.41 1454.1 2299.78 1454.1 M2299.78 1450.39 Q2305.59 1450.39 2308.64 1455 Q2311.72 1459.58 2311.72 1468.33 Q2311.72 1477.06 2308.64 1481.67 Q2305.59 1486.25 2299.78 1486.25 Q2293.97 1486.25 2290.89 1481.67 Q2287.83 1477.06 2287.83 1468.33 Q2287.83 1459.58 2290.89 1455 Q2293.97 1450.39 2299.78 1450.39 Z" fill="#000000" fill-rule="nonzero" fill-opacity="1" /><path clip-path="url(#clip130)" d="M2329.94 1454.1 Q2326.33 1454.1 2324.5 1457.66 Q2322.69 1461.2 2322.69 1468.33 Q2322.69 1475.44 2324.5 1479.01 Q2326.33 1482.55 2329.94 1482.55 Q2333.57 1482.55 2335.38 1479.01 Q2337.21 1475.44 2337.21 1468.33 Q2337.21 1461.2 2335.38 1457.66 Q2333.57 1454.1 2329.94 1454.1 M2329.94 1450.39 Q2335.75 1450.39 2338.8 1455 Q2341.88 1459.58 2341.88 1468.33 Q2341.88 1477.06 2338.8 1481.67 Q2335.75 1486.25 2329.94 1486.25 Q2324.13 1486.25 2321.05 1481.67 Q2317.99 1477.06 2317.99 1468.33 Q2317.99 1459.58 2321.05 1455 Q2324.13 1450.39 2329.94 1450.39 Z" fill="#000000" fill-rule="nonzero" fill-opacity="1" /><path clip-path="url(#clip130)" d="M1270.92 1518.52 L1276.81 1518.52 L1276.81 1547.77 L1294.28 1532.4 L1301.76 1532.4 L1282.85 1549.07 L1302.55 1568.04 L1294.92 1568.04 L1276.81 1550.63 L1276.81 1568.04 L1270.92 1568.04 L1270.92 1518.52 Z" fill="#000000" fill-rule="nonzero" fill-opacity="1" /><polyline clip-path="url(#clip132)" style="stroke:#000000; stroke-linecap:round; stroke-linejoin:round; stroke-width:2; stroke-opacity:0.1; fill:none" points="220.716,1131.09 2352.76,1131.09 "/>
<polyline clip-path="url(#clip132)" style="stroke:#000000; stroke-linecap:round; stroke-linejoin:round; stroke-width:2; stroke-opacity:0.1; fill:none" points="220.716,709.845 2352.76,709.845 "/>
<polyline clip-path="url(#clip132)" style="stroke:#000000; stroke-linecap:round; stroke-linejoin:round; stroke-width:2; stroke-opacity:0.1; fill:none" points="220.716,288.604 2352.76,288.604 "/>
<polyline clip-path="url(#clip130)" style="stroke:#000000; stroke-linecap:round; stroke-linejoin:round; stroke-width:4; stroke-opacity:1; fill:none" points="220.716,1423.18 220.716,123.472 "/>
<polyline clip-path="url(#clip130)" style="stroke:#000000; stroke-linecap:round; stroke-linejoin:round; stroke-width:4; stroke-opacity:1; fill:none" points="220.716,1131.09 239.613,1131.09 "/>
<polyline clip-path="url(#clip130)" style="stroke:#000000; stroke-linecap:round; stroke-linejoin:round; stroke-width:4; stroke-opacity:1; fill:none" points="220.716,709.845 239.613,709.845 "/>
<polyline clip-path="url(#clip130)" style="stroke:#000000; stroke-linecap:round; stroke-linejoin:round; stroke-width:4; stroke-opacity:1; fill:none" points="220.716,288.604 239.613,288.604 "/>
<path clip-path="url(#clip130)" d="M116.699 1150.88 L124.338 1150.88 L124.338 1124.51 L116.028 1126.18 L116.028 1121.92 L124.292 1120.25 L128.968 1120.25 L128.968 1150.88 L136.607 1150.88 L136.607 1154.81 L116.699 1154.81 L116.699 1150.88 Z" fill="#000000" fill-rule="nonzero" fill-opacity="1" /><path clip-path="url(#clip130)" d="M156.051 1123.33 Q152.44 1123.33 150.611 1126.9 Q148.806 1130.44 148.806 1137.57 Q148.806 1144.68 150.611 1148.24 Q152.44 1151.78 156.051 1151.78 Q159.685 1151.78 161.491 1148.24 Q163.32 1144.68 163.32 1137.57 Q163.32 1130.44 161.491 1126.9 Q159.685 1123.33 156.051 1123.33 M156.051 1119.63 Q161.861 1119.63 164.917 1124.24 Q167.995 1128.82 167.995 1137.57 Q167.995 1146.3 164.917 1150.9 Q161.861 1155.49 156.051 1155.49 Q150.241 1155.49 147.162 1150.9 Q144.107 1146.3 144.107 1137.57 Q144.107 1128.82 147.162 1124.24 Q150.241 1119.63 156.051 1119.63 Z" fill="#000000" fill-rule="nonzero" fill-opacity="1" /><path clip-path="url(#clip130)" d="M168.541 1124.21 L174.747 1124.21 L174.747 1102.78 L167.995 1104.14 L167.995 1100.68 L174.71 1099.32 L178.509 1099.32 L178.509 1124.21 L184.716 1124.21 L184.716 1127.4 L168.541 1127.4 L168.541 1124.21 Z" fill="#000000" fill-rule="nonzero" fill-opacity="1" /><path clip-path="url(#clip130)" d="M115.59 729.638 L123.229 729.638 L123.229 703.272 L114.918 704.939 L114.918 700.68 L123.182 699.013 L127.858 699.013 L127.858 729.638 L135.497 729.638 L135.497 733.573 L115.59 733.573 L115.59 729.638 Z" fill="#000000" fill-rule="nonzero" fill-opacity="1" /><path clip-path="url(#clip130)" d="M154.941 702.092 Q151.33 702.092 149.502 705.657 Q147.696 709.198 147.696 716.328 Q147.696 723.434 149.502 726.999 Q151.33 730.541 154.941 730.541 Q158.576 730.541 160.381 726.999 Q162.21 723.434 162.21 716.328 Q162.21 709.198 160.381 705.657 Q158.576 702.092 154.941 702.092 M154.941 698.388 Q160.752 698.388 163.807 702.995 Q166.886 707.578 166.886 716.328 Q166.886 725.055 163.807 729.661 Q160.752 734.244 154.941 734.244 Q149.131 734.244 146.053 729.661 Q142.997 725.055 142.997 716.328 Q142.997 707.578 146.053 702.995 Q149.131 698.388 154.941 698.388 Z" fill="#000000" fill-rule="nonzero" fill-opacity="1" /><path clip-path="url(#clip130)" d="M171.456 702.965 L184.716 702.965 L184.716 706.163 L166.886 706.163 L166.886 702.965 Q169.049 700.727 172.773 696.966 Q176.515 693.185 177.475 692.094 Q179.299 690.044 180.014 688.634 Q180.747 687.204 180.747 685.831 Q180.747 683.593 179.167 682.183 Q177.606 680.772 175.086 680.772 Q173.299 680.772 171.306 681.393 Q169.331 682.013 167.074 683.274 L167.074 679.437 Q169.368 678.515 171.362 678.045 Q173.356 677.575 175.011 677.575 Q179.374 677.575 181.97 679.757 Q184.565 681.938 184.565 685.587 Q184.565 687.317 183.907 688.878 Q183.267 690.421 181.556 692.527 Q181.086 693.072 178.565 695.687 Q176.045 698.282 171.456 702.965 Z" fill="#000000" fill-rule="nonzero" fill-opacity="1" /><path clip-path="url(#clip130)" d="M114.931 308.397 L122.57 308.397 L122.57 282.031 L114.26 283.698 L114.26 279.439 L122.524 277.772 L127.2 277.772 L127.2 308.397 L134.839 308.397 L134.839 312.332 L114.931 312.332 L114.931 308.397 Z" fill="#000000" fill-rule="nonzero" fill-opacity="1" /><path clip-path="url(#clip130)" d="M154.283 280.851 Q150.672 280.851 148.843 284.415 Q147.038 287.957 147.038 295.087 Q147.038 302.193 148.843 305.758 Q150.672 309.3 154.283 309.3 Q157.917 309.3 159.723 305.758 Q161.552 302.193 161.552 295.087 Q161.552 287.957 159.723 284.415 Q157.917 280.851 154.283 280.851 M154.283 277.147 Q160.093 277.147 163.149 281.753 Q166.227 286.337 166.227 295.087 Q166.227 303.813 163.149 308.42 Q160.093 313.003 154.283 313.003 Q148.473 313.003 145.394 308.42 Q142.339 303.813 142.339 295.087 Q142.339 286.337 145.394 281.753 Q148.473 277.147 154.283 277.147 Z" fill="#000000" fill-rule="nonzero" fill-opacity="1" /><path clip-path="url(#clip130)" d="M178.923 269.781 Q181.65 270.364 183.173 272.208 Q184.716 274.051 184.716 276.759 Q184.716 280.916 181.857 283.191 Q178.998 285.467 173.732 285.467 Q171.964 285.467 170.083 285.11 Q168.221 284.771 166.227 284.075 L166.227 280.408 Q167.807 281.329 169.688 281.799 Q171.569 282.27 173.619 282.27 Q177.192 282.27 179.054 280.859 Q180.935 279.448 180.935 276.759 Q180.935 274.276 179.186 272.885 Q177.456 271.474 174.352 271.474 L171.08 271.474 L171.08 268.352 L174.503 268.352 Q177.305 268.352 178.791 267.242 Q180.277 266.114 180.277 264.007 Q180.277 261.844 178.735 260.697 Q177.211 259.531 174.352 259.531 Q172.791 259.531 171.005 259.87 Q169.218 260.208 167.074 260.923 L167.074 257.537 Q169.237 256.936 171.117 256.635 Q173.017 256.334 174.691 256.334 Q179.017 256.334 181.537 258.309 Q184.057 260.265 184.057 263.612 Q184.057 265.945 182.722 267.562 Q181.387 269.161 178.923 269.781 Z" fill="#000000" fill-rule="nonzero" fill-opacity="1" /><path clip-path="url(#clip130)" d="M32.4621 801.797 Q32.4621 806.507 36.1542 809.244 Q39.8145 811.982 46.212 811.982 Q52.6095 811.982 56.3017 809.276 Q59.9619 806.539 59.9619 801.797 Q59.9619 797.118 56.2698 794.381 Q52.5777 791.643 46.212 791.643 Q39.8781 791.643 36.186 794.381 Q32.4621 797.118 32.4621 801.797 M27.4968 801.797 Q27.4968 794.158 32.4621 789.797 Q37.4273 785.437 46.212 785.437 Q54.9649 785.437 59.9619 789.797 Q64.9272 794.158 64.9272 801.797 Q64.9272 809.467 59.9619 813.828 Q54.9649 818.156 46.212 818.156 Q37.4273 818.156 32.4621 813.828 Q27.4968 809.467 27.4968 801.797 Z" fill="#000000" fill-rule="nonzero" fill-opacity="1" /><path clip-path="url(#clip130)" d="M46.212 750.139 Q39.7508 750.139 36.0905 752.812 Q32.3984 755.454 32.3984 760.101 Q32.3984 764.748 36.0905 767.422 Q39.7508 770.064 46.212 770.064 Q52.6732 770.064 56.3653 767.422 Q60.0256 764.748 60.0256 760.101 Q60.0256 755.454 56.3653 752.812 Q52.6732 750.139 46.212 750.139 M33.7671 770.064 Q30.5842 768.218 29.0564 765.417 Q27.4968 762.584 27.4968 758.669 Q27.4968 752.176 32.6531 748.134 Q37.8093 744.06 46.212 744.06 Q54.6147 744.06 59.771 748.134 Q64.9272 752.176 64.9272 758.669 Q64.9272 762.584 63.3994 765.417 Q61.8398 768.218 58.657 770.064 L64.0042 770.064 L64.0042 775.952 L14.479 775.952 L14.479 770.064 L33.7671 770.064 Z" fill="#000000" fill-rule="nonzero" fill-opacity="1" /><path clip-path="url(#clip130)" d="M28.3562 734.352 L28.3562 728.495 L64.6407 728.495 Q71.452 728.495 74.5076 731.105 Q77.5631 733.684 77.5631 739.445 L77.5631 741.673 L72.5979 741.673 L72.5979 740.113 Q72.5979 736.771 71.0383 735.561 Q69.5105 734.352 64.6407 734.352 L28.3562 734.352 M14.479 734.352 L14.479 728.495 L21.895 728.495 L21.895 734.352 L14.479 734.352 Z" fill="#000000" fill-rule="nonzero" fill-opacity="1" /><path clip-path="url(#clip130)" d="M917.01 65.7705 L917.01 89.8329 L909.516 89.8329 L909.516 27.2059 L917.01 27.2059 L917.01 34.0924 Q919.359 30.0415 922.924 28.0971 Q926.529 26.1121 931.512 26.1121 Q939.776 26.1121 944.92 32.6746 Q950.106 39.2371 950.106 49.9314 Q950.106 60.6258 944.92 67.1883 Q939.776 73.7508 931.512 73.7508 Q926.529 73.7508 922.924 71.8063 Q919.359 69.8214 917.01 65.7705 M942.368 49.9314 Q942.368 41.7081 938.966 37.0496 Q935.603 32.3505 929.689 32.3505 Q923.775 32.3505 920.372 37.0496 Q917.01 41.7081 917.01 49.9314 Q917.01 58.1548 920.372 62.8538 Q923.775 67.5124 929.689 67.5124 Q935.603 67.5124 938.966 62.8538 Q942.368 58.1548 942.368 49.9314 Z" fill="#000000" fill-rule="nonzero" fill-opacity="1" /><path clip-path="url(#clip130)" d="M988.751 34.1734 Q987.495 33.4443 985.997 33.1202 Q984.538 32.7556 982.756 32.7556 Q976.436 32.7556 973.034 36.8875 Q969.671 40.9789 969.671 48.6757 L969.671 72.576 L962.177 72.576 L962.177 27.2059 L969.671 27.2059 L969.671 34.2544 Q972.021 30.1225 975.788 28.1376 Q979.556 26.1121 984.943 26.1121 Q985.713 26.1121 986.645 26.2337 Q987.576 26.3147 988.711 26.5172 L988.751 34.1734 Z" fill="#000000" fill-rule="nonzero" fill-opacity="1" /><path clip-path="url(#clip130)" d="M1012.33 32.4315 Q1006.33 32.4315 1002.85 37.1306 Q999.365 41.7891 999.365 49.9314 Q999.365 58.0738 1002.81 62.7728 Q1006.29 67.4314 1012.33 67.4314 Q1018.28 67.4314 1021.77 62.7323 Q1025.25 58.0333 1025.25 49.9314 Q1025.25 41.8701 1021.77 37.1711 Q1018.28 32.4315 1012.33 32.4315 M1012.33 26.1121 Q1022.05 26.1121 1027.6 32.4315 Q1033.15 38.7509 1033.15 49.9314 Q1033.15 61.0714 1027.6 67.4314 Q1022.05 73.7508 1012.33 73.7508 Q1002.56 73.7508 997.015 67.4314 Q991.506 61.0714 991.506 49.9314 Q991.506 38.7509 997.015 32.4315 Q1002.56 26.1121 1012.33 26.1121 Z" fill="#000000" fill-rule="nonzero" fill-opacity="1" /><path clip-path="url(#clip130)" d="M1078.07 49.9314 Q1078.07 41.7081 1074.67 37.0496 Q1071.31 32.3505 1065.39 32.3505 Q1059.48 32.3505 1056.08 37.0496 Q1052.71 41.7081 1052.71 49.9314 Q1052.71 58.1548 1056.08 62.8538 Q1059.48 67.5124 1065.39 67.5124 Q1071.31 67.5124 1074.67 62.8538 Q1078.07 58.1548 1078.07 49.9314 M1052.71 34.0924 Q1055.06 30.0415 1058.63 28.0971 Q1062.23 26.1121 1067.22 26.1121 Q1075.48 26.1121 1080.63 32.6746 Q1085.81 39.2371 1085.81 49.9314 Q1085.81 60.6258 1080.63 67.1883 Q1075.48 73.7508 1067.22 73.7508 Q1062.23 73.7508 1058.63 71.8063 Q1055.06 69.8214 1052.71 65.7705 L1052.71 72.576 L1045.22 72.576 L1045.22 9.54393 L1052.71 9.54393 L1052.71 34.0924 Z" fill="#000000" fill-rule="nonzero" fill-opacity="1" /><path clip-path="url(#clip130)" d="M1098.17 9.54393 L1105.62 9.54393 L1105.62 72.576 L1098.17 72.576 L1098.17 9.54393 Z" fill="#000000" fill-rule="nonzero" fill-opacity="1" /><path clip-path="url(#clip130)" d="M1160.02 48.0275 L1160.02 51.6733 L1125.75 51.6733 Q1126.24 59.3701 1130.37 63.421 Q1134.54 67.4314 1141.96 67.4314 Q1146.25 67.4314 1150.26 66.3781 Q1154.31 65.3249 1158.28 63.2184 L1158.28 70.267 Q1154.27 71.9684 1150.06 72.8596 Q1145.85 73.7508 1141.51 73.7508 Q1130.65 73.7508 1124.29 67.4314 Q1117.98 61.1119 1117.98 50.3365 Q1117.98 39.1965 1123.97 32.6746 Q1130.01 26.1121 1140.21 26.1121 Q1149.37 26.1121 1154.68 32.0264 Q1160.02 37.9003 1160.02 48.0275 M1152.57 45.84 Q1152.49 39.7232 1149.13 36.0774 Q1145.8 32.4315 1140.3 32.4315 Q1134.06 32.4315 1130.29 35.9558 Q1126.56 39.4801 1126 45.8805 L1152.57 45.84 M1133.9 6.22219 L1145.32 21.3726 L1139.12 21.3726 L1125.91 6.22219 L1133.9 6.22219 Z" fill="#000000" fill-rule="nonzero" fill-opacity="1" /><path clip-path="url(#clip130)" d="M1207.58 35.9153 Q1210.38 30.8922 1214.27 28.5022 Q1218.15 26.1121 1223.42 26.1121 Q1230.51 26.1121 1234.36 31.0947 Q1238.21 36.0368 1238.21 45.1919 L1238.21 72.576 L1230.71 72.576 L1230.71 45.4349 Q1230.71 38.913 1228.4 35.7533 Q1226.09 32.5936 1221.35 32.5936 Q1215.56 32.5936 1212.2 36.4419 Q1208.84 40.2903 1208.84 46.9338 L1208.84 72.576 L1201.34 72.576 L1201.34 45.4349 Q1201.34 38.8725 1199.03 35.7533 Q1196.72 32.5936 1191.9 32.5936 Q1186.19 32.5936 1182.83 36.4824 Q1179.47 40.3308 1179.47 46.9338 L1179.47 72.576 L1171.97 72.576 L1171.97 27.2059 L1179.47 27.2059 L1179.47 34.2544 Q1182.02 30.082 1185.58 28.0971 Q1189.15 26.1121 1194.05 26.1121 Q1198.99 26.1121 1202.44 28.6237 Q1205.92 31.1352 1207.58 35.9153 Z" fill="#000000" fill-rule="nonzero" fill-opacity="1" /><path clip-path="url(#clip130)" d="M1291.88 48.0275 L1291.88 51.6733 L1257.61 51.6733 Q1258.1 59.3701 1262.23 63.421 Q1266.4 67.4314 1273.81 67.4314 Q1278.11 67.4314 1282.12 66.3781 Q1286.17 65.3249 1290.14 63.2184 L1290.14 70.267 Q1286.13 71.9684 1281.92 72.8596 Q1277.7 73.7508 1273.37 73.7508 Q1262.51 73.7508 1256.15 67.4314 Q1249.83 61.1119 1249.83 50.3365 Q1249.83 39.1965 1255.83 32.6746 Q1261.86 26.1121 1272.07 26.1121 Q1281.23 26.1121 1286.53 32.0264 Q1291.88 37.9003 1291.88 48.0275 M1284.43 45.84 Q1284.35 39.7232 1280.98 36.0774 Q1277.66 32.4315 1272.15 32.4315 Q1265.91 32.4315 1262.15 35.9558 Q1258.42 39.4801 1257.85 45.8805 L1284.43 45.84 Z" fill="#000000" fill-rule="nonzero" fill-opacity="1" /><path clip-path="url(#clip130)" d="M1332.39 62.2867 L1340.94 62.2867 L1340.94 72.576 L1332.39 72.576 L1332.39 62.2867 M1332.39 29.6769 L1340.94 29.6769 L1340.94 39.9662 L1332.39 39.9662 L1332.39 29.6769 Z" fill="#000000" fill-rule="nonzero" fill-opacity="1" /><path clip-path="url(#clip130)" d="M1420.13 35.9153 Q1422.93 30.8922 1426.82 28.5022 Q1430.7 26.1121 1435.97 26.1121 Q1443.06 26.1121 1446.91 31.0947 Q1450.76 36.0368 1450.76 45.1919 L1450.76 72.576 L1443.26 72.576 L1443.26 45.4349 Q1443.26 38.913 1440.95 35.7533 Q1438.64 32.5936 1433.91 32.5936 Q1428.11 32.5936 1424.75 36.4419 Q1421.39 40.2903 1421.39 46.9338 L1421.39 72.576 L1413.89 72.576 L1413.89 45.4349 Q1413.89 38.8725 1411.58 35.7533 Q1409.28 32.5936 1404.45 32.5936 Q1398.74 32.5936 1395.38 36.4824 Q1392.02 40.3308 1392.02 46.9338 L1392.02 72.576 L1384.52 72.576 L1384.52 27.2059 L1392.02 27.2059 L1392.02 34.2544 Q1394.57 30.082 1398.14 28.0971 Q1401.7 26.1121 1406.6 26.1121 Q1411.54 26.1121 1414.99 28.6237 Q1418.47 31.1352 1420.13 35.9153 Z" fill="#000000" fill-rule="nonzero" fill-opacity="1" /><path clip-path="url(#clip130)" d="M1495.48 49.3643 Q1495.48 41.2625 1492.12 36.8065 Q1488.79 32.3505 1482.76 32.3505 Q1476.76 32.3505 1473.4 36.8065 Q1470.08 41.2625 1470.08 49.3643 Q1470.08 57.4256 1473.4 61.8816 Q1476.76 66.3376 1482.76 66.3376 Q1488.79 66.3376 1492.12 61.8816 Q1495.48 57.4256 1495.48 49.3643 M1502.93 66.9452 Q1502.93 78.5308 1497.79 84.1616 Q1492.64 89.8329 1482.03 89.8329 Q1478.1 89.8329 1474.62 89.2252 Q1471.13 88.6581 1467.85 87.4428 L1467.85 80.1917 Q1471.13 81.9741 1474.33 82.8248 Q1477.53 83.6755 1480.86 83.6755 Q1488.19 83.6755 1491.83 79.8271 Q1495.48 76.0193 1495.48 68.282 L1495.48 64.5957 Q1493.17 68.6061 1489.56 70.5911 Q1485.96 72.576 1480.94 72.576 Q1472.59 72.576 1467.49 66.2161 Q1462.38 59.8562 1462.38 49.3643 Q1462.38 38.832 1467.49 32.472 Q1472.59 26.1121 1480.94 26.1121 Q1485.96 26.1121 1489.56 28.0971 Q1493.17 30.082 1495.48 34.0924 L1495.48 27.2059 L1502.93 27.2059 L1502.93 66.9452 Z" fill="#000000" fill-rule="nonzero" fill-opacity="1" /><path clip-path="url(#clip130)" d="M1556 45.1919 L1556 72.576 L1548.55 72.576 L1548.55 45.4349 Q1548.55 38.994 1546.03 35.7938 Q1543.52 32.5936 1538.5 32.5936 Q1532.46 32.5936 1528.98 36.4419 Q1525.5 40.2903 1525.5 46.9338 L1525.5 72.576 L1518 72.576 L1518 9.54393 L1525.5 9.54393 L1525.5 34.2544 Q1528.17 30.163 1531.77 28.1376 Q1535.42 26.1121 1540.16 26.1121 Q1547.98 26.1121 1551.99 30.9732 Q1556 35.7938 1556 45.1919 Z" fill="#000000" fill-rule="nonzero" fill-opacity="1" /><path clip-path="url(#clip130)" d="M1596.71 39.9662 Q1602.58 41.222 1605.87 45.1919 Q1609.19 49.1618 1609.19 54.9951 Q1609.19 63.9476 1603.03 68.8492 Q1596.87 73.7508 1585.53 73.7508 Q1581.72 73.7508 1577.67 72.9811 Q1573.66 72.2519 1569.37 70.7531 L1569.37 62.8538 Q1572.77 64.8388 1576.82 65.8515 Q1580.87 66.8642 1585.29 66.8642 Q1592.98 66.8642 1596.99 63.826 Q1601.05 60.7879 1601.05 54.9951 Q1601.05 49.6479 1597.28 46.6502 Q1593.55 43.612 1586.87 43.612 L1579.82 43.612 L1579.82 36.8875 L1587.19 36.8875 Q1593.23 36.8875 1596.43 34.4975 Q1599.63 32.067 1599.63 27.5299 Q1599.63 22.8714 1596.31 20.4004 Q1593.02 17.8888 1586.87 17.8888 Q1583.5 17.8888 1579.66 18.618 Q1575.81 19.3471 1571.19 20.8865 L1571.19 13.5948 Q1575.85 12.2985 1579.9 11.6504 Q1583.99 11.0023 1587.6 11.0023 Q1596.91 11.0023 1602.34 15.2557 Q1607.77 19.4686 1607.77 26.6793 Q1607.77 31.7024 1604.89 35.1862 Q1602.02 38.6294 1596.71 39.9662 Z" fill="#000000" fill-rule="nonzero" fill-opacity="1" /><path clip-path="url(#clip130)" d="M1647.19 19.2256 L1626.53 51.5113 L1647.19 51.5113 L1647.19 19.2256 M1645.04 12.096 L1655.33 12.096 L1655.33 51.5113 L1663.96 51.5113 L1663.96 58.3168 L1655.33 58.3168 L1655.33 72.576 L1647.19 72.576 L1647.19 58.3168 L1619.88 58.3168 L1619.88 50.4176 L1645.04 12.096 Z" fill="#000000" fill-rule="nonzero" fill-opacity="1" /><polyline clip-path="url(#clip132)" style="stroke:#009af9; stroke-linecap:round; stroke-linejoin:round; stroke-width:4; stroke-opacity:1; fill:none" points="281.056,160.256 2292.42,1386.4 "/>
<polyline clip-path="url(#clip132)" style="stroke:#e26f46; stroke-linecap:round; stroke-linejoin:round; stroke-width:4; stroke-opacity:1; fill:none" points="281.056,160.256 2292.42,1386.4 "/>
<path clip-path="url(#clip130)" d="M1496.91 322.316 L2281.69 322.316 L2281.69 166.796 L1496.91 166.796  Z" fill="#ffffff" fill-rule="evenodd" fill-opacity="1"/>
<polyline clip-path="url(#clip130)" style="stroke:#000000; stroke-linecap:round; stroke-linejoin:round; stroke-width:4; stroke-opacity:1; fill:none" points="1496.91,322.316 2281.69,322.316 2281.69,166.796 1496.91,166.796 1496.91,322.316 "/>
<polyline clip-path="url(#clip130)" style="stroke:#009af9; stroke-linecap:round; stroke-linejoin:round; stroke-width:4; stroke-opacity:1; fill:none" points="1520.6,218.636 1662.74,218.636 "/>
<path clip-path="url(#clip130)" d="M1686.43 201.356 L1691.1 201.356 L1691.1 231.981 L1707.93 231.981 L1707.93 235.916 L1686.43 235.916 L1686.43 201.356 Z" fill="#000000" fill-rule="nonzero" fill-opacity="1" /><path clip-path="url(#clip130)" d="M1712.84 201.356 L1719.81 201.356 L1728.63 224.874 L1737.49 201.356 L1744.46 201.356 L1744.46 235.916 L1739.9 235.916 L1739.9 205.569 L1730.99 229.272 L1726.29 229.272 L1717.38 205.569 L1717.38 235.916 L1712.84 235.916 L1712.84 201.356 Z" fill="#000000" fill-rule="nonzero" fill-opacity="1" /><path clip-path="url(#clip130)" d="M1773.26 243.786 L1773.26 247.096 L1748.63 247.096 L1748.63 243.786 L1773.26 243.786 Z" fill="#000000" fill-rule="nonzero" fill-opacity="1" /><path clip-path="url(#clip130)" d="M1789 205.962 L1782.65 223.161 L1795.36 223.161 L1789 205.962 M1786.36 201.356 L1791.66 201.356 L1804.83 235.916 L1799.97 235.916 L1796.82 227.05 L1781.24 227.05 L1778.09 235.916 L1773.16 235.916 L1786.36 201.356 Z" fill="#000000" fill-rule="nonzero" fill-opacity="1" /><path clip-path="url(#clip130)" d="M1831.24 220.268 L1831.24 235.916 L1826.98 235.916 L1826.98 220.407 Q1826.98 216.726 1825.55 214.897 Q1824.11 213.069 1821.24 213.069 Q1817.79 213.069 1815.8 215.268 Q1813.81 217.467 1813.81 221.263 L1813.81 235.916 L1809.53 235.916 L1809.53 209.99 L1813.81 209.99 L1813.81 214.018 Q1815.34 211.68 1817.4 210.522 Q1819.48 209.365 1822.19 209.365 Q1826.66 209.365 1828.95 212.143 Q1831.24 214.897 1831.24 220.268 Z" fill="#000000" fill-rule="nonzero" fill-opacity="1" /><path clip-path="url(#clip130)" d="M1856.8 213.925 L1856.8 199.897 L1861.06 199.897 L1861.06 235.916 L1856.8 235.916 L1856.8 232.027 Q1855.45 234.342 1853.39 235.476 Q1851.36 236.587 1848.49 236.587 Q1843.79 236.587 1840.82 232.837 Q1837.89 229.087 1837.89 222.976 Q1837.89 216.865 1840.82 213.115 Q1843.79 209.365 1848.49 209.365 Q1851.36 209.365 1853.39 210.499 Q1855.45 211.61 1856.8 213.925 M1842.28 222.976 Q1842.28 227.675 1844.2 230.36 Q1846.15 233.022 1849.53 233.022 Q1852.91 233.022 1854.85 230.36 Q1856.8 227.675 1856.8 222.976 Q1856.8 218.277 1854.85 215.615 Q1852.91 212.93 1849.53 212.93 Q1846.15 212.93 1844.2 215.615 Q1842.28 218.277 1842.28 222.976 Z" fill="#000000" fill-rule="nonzero" fill-opacity="1" /><path clip-path="url(#clip130)" d="M1884.85 213.971 Q1884.13 213.555 1883.28 213.37 Q1882.45 213.161 1881.43 213.161 Q1877.82 213.161 1875.87 215.522 Q1873.95 217.86 1873.95 222.258 L1873.95 235.916 L1869.67 235.916 L1869.67 209.99 L1873.95 209.99 L1873.95 214.018 Q1875.29 211.657 1877.45 210.522 Q1879.6 209.365 1882.68 209.365 Q1883.12 209.365 1883.65 209.434 Q1884.18 209.481 1884.83 209.596 L1884.85 213.971 Z" fill="#000000" fill-rule="nonzero" fill-opacity="1" /><path clip-path="url(#clip130)" d="M1910.45 221.888 L1910.45 223.971 L1890.87 223.971 Q1891.15 228.369 1893.51 230.684 Q1895.89 232.976 1900.13 232.976 Q1902.58 232.976 1904.88 232.374 Q1907.19 231.772 1909.46 230.569 L1909.46 234.596 Q1907.17 235.568 1904.76 236.078 Q1902.35 236.587 1899.88 236.587 Q1893.67 236.587 1890.04 232.976 Q1886.43 229.365 1886.43 223.207 Q1886.43 216.842 1889.85 213.115 Q1893.3 209.365 1899.13 209.365 Q1904.37 209.365 1907.4 212.745 Q1910.45 216.101 1910.45 221.888 M1906.19 220.638 Q1906.15 217.143 1904.23 215.059 Q1902.33 212.976 1899.18 212.976 Q1895.62 212.976 1893.46 214.99 Q1891.33 217.004 1891.01 220.661 L1906.19 220.638 Z" fill="#000000" fill-rule="nonzero" fill-opacity="1" /><path clip-path="url(#clip130)" d="M1917.44 209.99 L1921.7 209.99 L1921.7 235.916 L1917.44 235.916 L1917.44 209.99 M1917.44 199.897 L1921.7 199.897 L1921.7 205.291 L1917.44 205.291 L1917.44 199.897 Z" fill="#000000" fill-rule="nonzero" fill-opacity="1" /><path clip-path="url(#clip130)" d="M1950.32 243.786 L1950.32 247.096 L1925.69 247.096 L1925.69 243.786 L1950.32 243.786 Z" fill="#000000" fill-rule="nonzero" fill-opacity="1" /><path clip-path="url(#clip130)" d="M1966.1 222.883 Q1960.94 222.883 1958.95 224.064 Q1956.96 225.244 1956.96 228.092 Q1956.96 230.36 1958.44 231.703 Q1959.94 233.022 1962.51 233.022 Q1966.06 233.022 1968.19 230.522 Q1970.34 227.999 1970.34 223.832 L1970.34 222.883 L1966.1 222.883 M1974.6 221.124 L1974.6 235.916 L1970.34 235.916 L1970.34 231.981 Q1968.88 234.342 1966.7 235.476 Q1964.53 236.587 1961.38 236.587 Q1957.4 236.587 1955.04 234.365 Q1952.7 232.119 1952.7 228.369 Q1952.7 223.994 1955.62 221.772 Q1958.56 219.55 1964.37 219.55 L1970.34 219.55 L1970.34 219.133 Q1970.34 216.194 1968.39 214.596 Q1966.47 212.976 1962.98 212.976 Q1960.75 212.976 1958.65 213.508 Q1956.54 214.041 1954.6 215.106 L1954.6 211.17 Q1956.94 210.268 1959.13 209.828 Q1961.33 209.365 1963.42 209.365 Q1969.04 209.365 1971.82 212.282 Q1974.6 215.198 1974.6 221.124 Z" fill="#000000" fill-rule="nonzero" fill-opacity="1" /><path clip-path="url(#clip130)" d="M1983.37 199.897 L1987.63 199.897 L1987.63 235.916 L1983.37 235.916 L1983.37 199.897 Z" fill="#000000" fill-rule="nonzero" fill-opacity="1" /><path clip-path="url(#clip130)" d="M2000.75 202.629 L2000.75 209.99 L2009.53 209.99 L2009.53 213.3 L2000.75 213.3 L2000.75 227.374 Q2000.75 230.545 2001.61 231.448 Q2002.49 232.351 2005.15 232.351 L2009.53 232.351 L2009.53 235.916 L2005.15 235.916 Q2000.22 235.916 1998.35 234.087 Q1996.47 232.235 1996.47 227.374 L1996.47 213.3 L1993.35 213.3 L1993.35 209.99 L1996.47 209.99 L1996.47 202.629 L2000.75 202.629 Z" fill="#000000" fill-rule="nonzero" fill-opacity="1" /><polyline clip-path="url(#clip130)" style="stroke:#e26f46; stroke-linecap:round; stroke-linejoin:round; stroke-width:4; stroke-opacity:1; fill:none" points="1520.6,270.476 1662.74,270.476 "/>
<path clip-path="url(#clip130)" d="M1686.43 253.196 L1691.1 253.196 L1691.1 283.821 L1707.93 283.821 L1707.93 287.756 L1686.43 287.756 L1686.43 253.196 Z" fill="#000000" fill-rule="nonzero" fill-opacity="1" /><path clip-path="url(#clip130)" d="M1712.84 253.196 L1719.81 253.196 L1728.63 276.714 L1737.49 253.196 L1744.46 253.196 L1744.46 287.756 L1739.9 287.756 L1739.9 257.409 L1730.99 281.112 L1726.29 281.112 L1717.38 257.409 L1717.38 287.756 L1712.84 287.756 L1712.84 253.196 Z" fill="#000000" fill-rule="nonzero" fill-opacity="1" /><path clip-path="url(#clip130)" d="M1773.26 295.626 L1773.26 298.936 L1748.63 298.936 L1748.63 295.626 L1773.26 295.626 Z" fill="#000000" fill-rule="nonzero" fill-opacity="1" /><path clip-path="url(#clip130)" d="M1789 257.802 L1782.65 275.001 L1795.36 275.001 L1789 257.802 M1786.36 253.196 L1791.66 253.196 L1804.83 287.756 L1799.97 287.756 L1796.82 278.89 L1781.24 278.89 L1778.09 287.756 L1773.16 287.756 L1786.36 253.196 Z" fill="#000000" fill-rule="nonzero" fill-opacity="1" /><path clip-path="url(#clip130)" d="M1831.24 272.108 L1831.24 287.756 L1826.98 287.756 L1826.98 272.247 Q1826.98 268.566 1825.55 266.737 Q1824.11 264.909 1821.24 264.909 Q1817.79 264.909 1815.8 267.108 Q1813.81 269.307 1813.81 273.103 L1813.81 287.756 L1809.53 287.756 L1809.53 261.83 L1813.81 261.83 L1813.81 265.858 Q1815.34 263.52 1817.4 262.362 Q1819.48 261.205 1822.19 261.205 Q1826.66 261.205 1828.95 263.983 Q1831.24 266.737 1831.24 272.108 Z" fill="#000000" fill-rule="nonzero" fill-opacity="1" /><path clip-path="url(#clip130)" d="M1856.8 265.765 L1856.8 251.737 L1861.06 251.737 L1861.06 287.756 L1856.8 287.756 L1856.8 283.867 Q1855.45 286.182 1853.39 287.316 Q1851.36 288.427 1848.49 288.427 Q1843.79 288.427 1840.82 284.677 Q1837.89 280.927 1837.89 274.816 Q1837.89 268.705 1840.82 264.955 Q1843.79 261.205 1848.49 261.205 Q1851.36 261.205 1853.39 262.339 Q1855.45 263.45 1856.8 265.765 M1842.28 274.816 Q1842.28 279.515 1844.2 282.2 Q1846.15 284.862 1849.53 284.862 Q1852.91 284.862 1854.85 282.2 Q1856.8 279.515 1856.8 274.816 Q1856.8 270.117 1854.85 267.455 Q1852.91 264.77 1849.53 264.77 Q1846.15 264.77 1844.2 267.455 Q1842.28 270.117 1842.28 274.816 Z" fill="#000000" fill-rule="nonzero" fill-opacity="1" /><path clip-path="url(#clip130)" d="M1884.85 265.811 Q1884.13 265.395 1883.28 265.21 Q1882.45 265.001 1881.43 265.001 Q1877.82 265.001 1875.87 267.362 Q1873.95 269.7 1873.95 274.098 L1873.95 287.756 L1869.67 287.756 L1869.67 261.83 L1873.95 261.83 L1873.95 265.858 Q1875.29 263.497 1877.45 262.362 Q1879.6 261.205 1882.68 261.205 Q1883.12 261.205 1883.65 261.274 Q1884.18 261.321 1884.83 261.436 L1884.85 265.811 Z" fill="#000000" fill-rule="nonzero" fill-opacity="1" /><path clip-path="url(#clip130)" d="M1910.45 273.728 L1910.45 275.811 L1890.87 275.811 Q1891.15 280.209 1893.51 282.524 Q1895.89 284.816 1900.13 284.816 Q1902.58 284.816 1904.88 284.214 Q1907.19 283.612 1909.46 282.409 L1909.46 286.436 Q1907.17 287.408 1904.76 287.918 Q1902.35 288.427 1899.88 288.427 Q1893.67 288.427 1890.04 284.816 Q1886.43 281.205 1886.43 275.047 Q1886.43 268.682 1889.85 264.955 Q1893.3 261.205 1899.13 261.205 Q1904.37 261.205 1907.4 264.585 Q1910.45 267.941 1910.45 273.728 M1906.19 272.478 Q1906.15 268.983 1904.23 266.899 Q1902.33 264.816 1899.18 264.816 Q1895.62 264.816 1893.46 266.83 Q1891.33 268.844 1891.01 272.501 L1906.19 272.478 Z" fill="#000000" fill-rule="nonzero" fill-opacity="1" /><path clip-path="url(#clip130)" d="M1917.44 261.83 L1921.7 261.83 L1921.7 287.756 L1917.44 287.756 L1917.44 261.83 M1917.44 251.737 L1921.7 251.737 L1921.7 257.131 L1917.44 257.131 L1917.44 251.737 Z" fill="#000000" fill-rule="nonzero" fill-opacity="1" /><path clip-path="url(#clip130)" d="M1950.32 295.626 L1950.32 298.936 L1925.69 298.936 L1925.69 295.626 L1950.32 295.626 Z" fill="#000000" fill-rule="nonzero" fill-opacity="1" /><path clip-path="url(#clip130)" d="M1966.1 274.723 Q1960.94 274.723 1958.95 275.904 Q1956.96 277.084 1956.96 279.932 Q1956.96 282.2 1958.44 283.543 Q1959.94 284.862 1962.51 284.862 Q1966.06 284.862 1968.19 282.362 Q1970.34 279.839 1970.34 275.672 L1970.34 274.723 L1966.1 274.723 M1974.6 272.964 L1974.6 287.756 L1970.34 287.756 L1970.34 283.821 Q1968.88 286.182 1966.7 287.316 Q1964.53 288.427 1961.38 288.427 Q1957.4 288.427 1955.04 286.205 Q1952.7 283.959 1952.7 280.209 Q1952.7 275.834 1955.62 273.612 Q1958.56 271.39 1964.37 271.39 L1970.34 271.39 L1970.34 270.973 Q1970.34 268.034 1968.39 266.436 Q1966.47 264.816 1962.98 264.816 Q1960.75 264.816 1958.65 265.348 Q1956.54 265.881 1954.6 266.946 L1954.6 263.01 Q1956.94 262.108 1959.13 261.668 Q1961.33 261.205 1963.42 261.205 Q1969.04 261.205 1971.82 264.122 Q1974.6 267.038 1974.6 272.964 Z" fill="#000000" fill-rule="nonzero" fill-opacity="1" /><path clip-path="url(#clip130)" d="M1983.37 251.737 L1987.63 251.737 L1987.63 287.756 L1983.37 287.756 L1983.37 251.737 Z" fill="#000000" fill-rule="nonzero" fill-opacity="1" /><path clip-path="url(#clip130)" d="M2000.75 254.469 L2000.75 261.83 L2009.53 261.83 L2009.53 265.14 L2000.75 265.14 L2000.75 279.214 Q2000.75 282.385 2001.61 283.288 Q2002.49 284.191 2005.15 284.191 L2009.53 284.191 L2009.53 287.756 L2005.15 287.756 Q2000.22 287.756 1998.35 285.927 Q1996.47 284.075 1996.47 279.214 L1996.47 265.14 L1993.35 265.14 L1993.35 261.83 L1996.47 261.83 L1996.47 254.469 L2000.75 254.469 Z" fill="#000000" fill-rule="nonzero" fill-opacity="1" /><path clip-path="url(#clip130)" d="M2034.83 295.626 L2034.83 298.936 L2010.2 298.936 L2010.2 295.626 L2034.83 295.626 Z" fill="#000000" fill-rule="nonzero" fill-opacity="1" /><path clip-path="url(#clip130)" d="M2041.38 274.816 Q2041.38 279.515 2043.3 282.2 Q2045.25 284.862 2048.62 284.862 Q2052 284.862 2053.95 282.2 Q2055.89 279.515 2055.89 274.816 Q2055.89 270.117 2053.95 267.455 Q2052 264.77 2048.62 264.77 Q2045.25 264.77 2043.3 267.455 Q2041.38 270.117 2041.38 274.816 M2055.89 283.867 Q2054.55 286.182 2052.49 287.316 Q2050.45 288.427 2047.58 288.427 Q2042.88 288.427 2039.92 284.677 Q2036.98 280.927 2036.98 274.816 Q2036.98 268.705 2039.92 264.955 Q2042.88 261.205 2047.58 261.205 Q2050.45 261.205 2052.49 262.339 Q2054.55 263.45 2055.89 265.765 L2055.89 261.83 L2060.15 261.83 L2060.15 297.617 L2055.89 297.617 L2055.89 283.867 Z" fill="#000000" fill-rule="nonzero" fill-opacity="1" /><path clip-path="url(#clip130)" d="M2083.95 265.811 Q2083.23 265.395 2082.37 265.21 Q2081.54 265.001 2080.52 265.001 Q2076.91 265.001 2074.97 267.362 Q2073.05 269.7 2073.05 274.098 L2073.05 287.756 L2068.76 287.756 L2068.76 261.83 L2073.05 261.83 L2073.05 265.858 Q2074.39 263.497 2076.54 262.362 Q2078.69 261.205 2081.77 261.205 Q2082.21 261.205 2082.74 261.274 Q2083.28 261.321 2083.93 261.436 L2083.95 265.811 Z" fill="#000000" fill-rule="nonzero" fill-opacity="1" /><path clip-path="url(#clip130)" d="M2107.77 266.807 Q2109.37 263.936 2111.59 262.571 Q2113.81 261.205 2116.82 261.205 Q2120.87 261.205 2123.07 264.052 Q2125.27 266.876 2125.27 272.108 L2125.27 287.756 L2120.99 287.756 L2120.99 272.247 Q2120.99 268.52 2119.67 266.714 Q2118.35 264.909 2115.64 264.909 Q2112.33 264.909 2110.41 267.108 Q2108.49 269.307 2108.49 273.103 L2108.49 287.756 L2104.2 287.756 L2104.2 272.247 Q2104.2 268.497 2102.88 266.714 Q2101.56 264.909 2098.81 264.909 Q2095.55 264.909 2093.62 267.131 Q2091.7 269.33 2091.7 273.103 L2091.7 287.756 L2087.42 287.756 L2087.42 261.83 L2091.7 261.83 L2091.7 265.858 Q2093.16 263.473 2095.2 262.339 Q2097.24 261.205 2100.04 261.205 Q2102.86 261.205 2104.83 262.64 Q2106.82 264.075 2107.77 266.807 Z" fill="#000000" fill-rule="nonzero" fill-opacity="1" /><path clip-path="url(#clip130)" d="M2133.32 277.524 L2133.32 261.83 L2137.58 261.83 L2137.58 277.362 Q2137.58 281.043 2139.02 282.895 Q2140.45 284.723 2143.32 284.723 Q2146.77 284.723 2148.76 282.524 Q2150.78 280.325 2150.78 276.529 L2150.78 261.83 L2155.04 261.83 L2155.04 287.756 L2150.78 287.756 L2150.78 283.774 Q2149.23 286.135 2147.17 287.293 Q2145.13 288.427 2142.42 288.427 Q2137.95 288.427 2135.64 285.649 Q2133.32 282.871 2133.32 277.524 M2144.04 261.205 L2144.04 261.205 Z" fill="#000000" fill-rule="nonzero" fill-opacity="1" /><path clip-path="url(#clip130)" d="M2183.99 266.807 Q2185.59 263.936 2187.81 262.571 Q2190.04 261.205 2193.05 261.205 Q2197.1 261.205 2199.3 264.052 Q2201.49 266.876 2201.49 272.108 L2201.49 287.756 L2197.21 287.756 L2197.21 272.247 Q2197.21 268.52 2195.89 266.714 Q2194.57 264.909 2191.86 264.909 Q2188.55 264.909 2186.63 267.108 Q2184.71 269.307 2184.71 273.103 L2184.71 287.756 L2180.43 287.756 L2180.43 272.247 Q2180.43 268.497 2179.11 266.714 Q2177.79 264.909 2175.04 264.909 Q2171.77 264.909 2169.85 267.131 Q2167.93 269.33 2167.93 273.103 L2167.93 287.756 L2163.65 287.756 L2163.65 261.83 L2167.93 261.83 L2167.93 265.858 Q2169.39 263.473 2171.42 262.339 Q2173.46 261.205 2176.26 261.205 Q2179.09 261.205 2181.05 262.64 Q2183.05 264.075 2183.99 266.807 Z" fill="#000000" fill-rule="nonzero" fill-opacity="1" /><path clip-path="url(#clip130)" d="M2214.11 283.867 L2214.11 297.617 L2209.83 297.617 L2209.83 261.83 L2214.11 261.83 L2214.11 265.765 Q2215.45 263.45 2217.49 262.339 Q2219.55 261.205 2222.4 261.205 Q2227.12 261.205 2230.06 264.955 Q2233.02 268.705 2233.02 274.816 Q2233.02 280.927 2230.06 284.677 Q2227.12 288.427 2222.4 288.427 Q2219.55 288.427 2217.49 287.316 Q2215.45 286.182 2214.11 283.867 M2228.6 274.816 Q2228.6 270.117 2226.66 267.455 Q2224.73 264.77 2221.36 264.77 Q2217.98 264.77 2216.03 267.455 Q2214.11 270.117 2214.11 274.816 Q2214.11 279.515 2216.03 282.2 Q2217.98 284.862 2221.36 284.862 Q2224.73 284.862 2226.66 282.2 Q2228.6 279.515 2228.6 274.816 Z" fill="#000000" fill-rule="nonzero" fill-opacity="1" /><path clip-path="url(#clip130)" d="M2256.61 262.594 L2256.61 266.622 Q2254.8 265.696 2252.86 265.233 Q2250.92 264.77 2248.83 264.77 Q2245.66 264.77 2244.06 265.742 Q2242.49 266.714 2242.49 268.659 Q2242.49 270.14 2243.62 270.997 Q2244.76 271.83 2248.18 272.594 L2249.64 272.918 Q2254.18 273.89 2256.08 275.672 Q2258 277.432 2258 280.603 Q2258 284.214 2255.13 286.321 Q2252.28 288.427 2247.28 288.427 Q2245.2 288.427 2242.93 288.01 Q2240.68 287.617 2238.18 286.807 L2238.18 282.409 Q2240.54 283.635 2242.84 284.26 Q2245.13 284.862 2247.37 284.862 Q2250.38 284.862 2252 283.844 Q2253.62 282.802 2253.62 280.927 Q2253.62 279.191 2252.44 278.265 Q2251.29 277.339 2247.33 276.483 L2245.85 276.135 Q2241.89 275.302 2240.13 273.589 Q2238.37 271.853 2238.37 268.844 Q2238.37 265.186 2240.96 263.196 Q2243.55 261.205 2248.32 261.205 Q2250.68 261.205 2252.77 261.552 Q2254.85 261.899 2256.61 262.594 Z" fill="#000000" fill-rule="nonzero" fill-opacity="1" /></svg>
