<?xml version="1.0" encoding="utf-8"?>
<svg xmlns="http://www.w3.org/2000/svg" xmlns:xlink="http://www.w3.org/1999/xlink" width="600" height="400" viewBox="0 0 2400 1600">
<defs>
  <clipPath id="clip890">
    <rect x="0" y="0" width="2400" height="1600"/>
  </clipPath>
</defs>
<path clip-path="url(#clip890)" d="M0 1600 L2400 1600 L2400 0 L0 0  Z" fill="#ffffff" fill-rule="evenodd" fill-opacity="1"/>
<defs>
  <clipPath id="clip891">
    <rect x="480" y="0" width="1681" height="1600"/>
  </clipPath>
</defs>
<path clip-path="url(#clip890)" d="M251.56 1423.18 L2352.76 1423.18 L2352.76 123.472 L251.56 123.472  Z" fill="#ffffff" fill-rule="evenodd" fill-opacity="1"/>
<defs>
  <clipPath id="clip892">
    <rect x="251" y="123" width="2102" height="1301"/>
  </clipPath>
</defs>
<polyline clip-path="url(#clip892)" style="stroke:#000000; stroke-linecap:round; stroke-linejoin:round; stroke-width:2; stroke-opacity:0.1; fill:none" points="311.028,1423.18 311.028,123.472 "/>
<polyline clip-path="url(#clip892)" style="stroke:#000000; stroke-linecap:round; stroke-linejoin:round; stroke-width:2; stroke-opacity:0.1; fill:none" points="707.48,1423.18 707.48,123.472 "/>
<polyline clip-path="url(#clip892)" style="stroke:#000000; stroke-linecap:round; stroke-linejoin:round; stroke-width:2; stroke-opacity:0.1; fill:none" points="1103.93,1423.18 1103.93,123.472 "/>
<polyline clip-path="url(#clip892)" style="stroke:#000000; stroke-linecap:round; stroke-linejoin:round; stroke-width:2; stroke-opacity:0.1; fill:none" points="1500.38,1423.18 1500.38,123.472 "/>
<polyline clip-path="url(#clip892)" style="stroke:#000000; stroke-linecap:round; stroke-linejoin:round; stroke-width:2; stroke-opacity:0.1; fill:none" points="1896.84,1423.18 1896.84,123.472 "/>
<polyline clip-path="url(#clip892)" style="stroke:#000000; stroke-linecap:round; stroke-linejoin:round; stroke-width:2; stroke-opacity:0.1; fill:none" points="2293.29,1423.18 2293.29,123.472 "/>
<polyline clip-path="url(#clip890)" style="stroke:#000000; stroke-linecap:round; stroke-linejoin:round; stroke-width:4; stroke-opacity:1; fill:none" points="251.56,1423.18 2352.76,1423.18 "/>
<polyline clip-path="url(#clip890)" style="stroke:#000000; stroke-linecap:round; stroke-linejoin:round; stroke-width:4; stroke-opacity:1; fill:none" points="311.028,1423.18 311.028,1404.28 "/>
<polyline clip-path="url(#clip890)" style="stroke:#000000; stroke-linecap:round; stroke-linejoin:round; stroke-width:4; stroke-opacity:1; fill:none" points="707.48,1423.18 707.48,1404.28 "/>
<polyline clip-path="url(#clip890)" style="stroke:#000000; stroke-linecap:round; stroke-linejoin:round; stroke-width:4; stroke-opacity:1; fill:none" points="1103.93,1423.18 1103.93,1404.28 "/>
<polyline clip-path="url(#clip890)" style="stroke:#000000; stroke-linecap:round; stroke-linejoin:round; stroke-width:4; stroke-opacity:1; fill:none" points="1500.38,1423.18 1500.38,1404.28 "/>
<polyline clip-path="url(#clip890)" style="stroke:#000000; stroke-linecap:round; stroke-linejoin:round; stroke-width:4; stroke-opacity:1; fill:none" points="1896.84,1423.18 1896.84,1404.28 "/>
<polyline clip-path="url(#clip890)" style="stroke:#000000; stroke-linecap:round; stroke-linejoin:round; stroke-width:4; stroke-opacity:1; fill:none" points="2293.29,1423.18 2293.29,1404.28 "/>
<path clip-path="url(#clip890)" d="M301.41 1481.64 L309.049 1481.64 L309.049 1455.28 L300.739 1456.95 L300.739 1452.69 L309.003 1451.02 L313.679 1451.02 L313.679 1481.64 L321.317 1481.64 L321.317 1485.58 L301.41 1485.58 L301.41 1481.64 Z" fill="#000000" fill-rule="nonzero" fill-opacity="1" /><path clip-path="url(#clip890)" d="M702.133 1481.64 L718.452 1481.64 L718.452 1485.58 L696.508 1485.58 L696.508 1481.64 Q699.17 1478.89 703.753 1474.26 Q708.36 1469.61 709.54 1468.27 Q711.786 1465.74 712.665 1464.01 Q713.568 1462.25 713.568 1460.56 Q713.568 1457.8 711.624 1456.07 Q709.702 1454.33 706.6 1454.33 Q704.401 1454.33 701.948 1455.09 Q699.517 1455.86 696.739 1457.41 L696.739 1452.69 Q699.563 1451.55 702.017 1450.97 Q704.471 1450.39 706.508 1450.39 Q711.878 1450.39 715.073 1453.08 Q718.267 1455.77 718.267 1460.26 Q718.267 1462.39 717.457 1464.31 Q716.67 1466.2 714.563 1468.8 Q713.985 1469.47 710.883 1472.69 Q707.781 1475.88 702.133 1481.64 Z" fill="#000000" fill-rule="nonzero" fill-opacity="1" /><path clip-path="url(#clip890)" d="M1108.18 1466.95 Q1111.54 1467.66 1113.41 1469.93 Q1115.31 1472.2 1115.31 1475.53 Q1115.31 1480.65 1111.79 1483.45 Q1108.27 1486.25 1101.79 1486.25 Q1099.61 1486.25 1097.3 1485.81 Q1095.01 1485.39 1092.55 1484.54 L1092.55 1480.02 Q1094.5 1481.16 1096.81 1481.74 Q1099.13 1482.32 1101.65 1482.32 Q1106.05 1482.32 1108.34 1480.58 Q1110.66 1478.84 1110.66 1475.53 Q1110.66 1472.48 1108.5 1470.77 Q1106.37 1469.03 1102.55 1469.03 L1098.53 1469.03 L1098.53 1465.19 L1102.74 1465.19 Q1106.19 1465.19 1108.02 1463.82 Q1109.85 1462.43 1109.85 1459.84 Q1109.85 1457.18 1107.95 1455.77 Q1106.07 1454.33 1102.55 1454.33 Q1100.63 1454.33 1098.43 1454.75 Q1096.24 1455.16 1093.6 1456.04 L1093.6 1451.88 Q1096.26 1451.14 1098.57 1450.77 Q1100.91 1450.39 1102.97 1450.39 Q1108.3 1450.39 1111.4 1452.83 Q1114.5 1455.23 1114.5 1459.35 Q1114.5 1462.22 1112.86 1464.21 Q1111.21 1466.18 1108.18 1466.95 Z" fill="#000000" fill-rule="nonzero" fill-opacity="1" /><path clip-path="url(#clip890)" d="M1503.39 1455.09 L1491.59 1473.54 L1503.39 1473.54 L1503.39 1455.09 M1502.17 1451.02 L1508.05 1451.02 L1508.05 1473.54 L1512.98 1473.54 L1512.98 1477.43 L1508.05 1477.43 L1508.05 1485.58 L1503.39 1485.58 L1503.39 1477.43 L1487.79 1477.43 L1487.79 1472.92 L1502.17 1451.02 Z" fill="#000000" fill-rule="nonzero" fill-opacity="1" /><path clip-path="url(#clip890)" d="M1887.11 1451.02 L1905.47 1451.02 L1905.47 1454.96 L1891.4 1454.96 L1891.4 1463.43 Q1892.41 1463.08 1893.43 1462.92 Q1894.45 1462.73 1895.47 1462.73 Q1901.26 1462.73 1904.64 1465.9 Q1908.02 1469.08 1908.02 1474.49 Q1908.02 1480.07 1904.54 1483.17 Q1901.07 1486.25 1894.75 1486.25 Q1892.58 1486.25 1890.31 1485.88 Q1888.06 1485.51 1885.66 1484.77 L1885.66 1480.07 Q1887.74 1481.2 1889.96 1481.76 Q1892.18 1482.32 1894.66 1482.32 Q1898.66 1482.32 1901 1480.21 Q1903.34 1478.1 1903.34 1474.49 Q1903.34 1470.88 1901 1468.77 Q1898.66 1466.67 1894.66 1466.67 Q1892.79 1466.67 1890.91 1467.08 Q1889.06 1467.5 1887.11 1468.38 L1887.11 1451.02 Z" fill="#000000" fill-rule="nonzero" fill-opacity="1" /><path clip-path="url(#clip890)" d="M2293.69 1466.44 Q2290.55 1466.44 2288.69 1468.59 Q2286.86 1470.74 2286.86 1474.49 Q2286.86 1478.22 2288.69 1480.39 Q2290.55 1482.55 2293.69 1482.55 Q2296.84 1482.55 2298.67 1480.39 Q2300.52 1478.22 2300.52 1474.49 Q2300.52 1470.74 2298.67 1468.59 Q2296.84 1466.44 2293.69 1466.44 M2302.98 1451.78 L2302.98 1456.04 Q2301.22 1455.21 2299.41 1454.77 Q2297.63 1454.33 2295.87 1454.33 Q2291.24 1454.33 2288.79 1457.45 Q2286.36 1460.58 2286.01 1466.9 Q2287.37 1464.89 2289.43 1463.82 Q2291.49 1462.73 2293.97 1462.73 Q2299.18 1462.73 2302.19 1465.9 Q2305.22 1469.05 2305.22 1474.49 Q2305.22 1479.82 2302.07 1483.03 Q2298.92 1486.25 2293.69 1486.25 Q2287.7 1486.25 2284.53 1481.67 Q2281.36 1477.06 2281.36 1468.33 Q2281.36 1460.14 2285.24 1455.28 Q2289.13 1450.39 2295.68 1450.39 Q2297.44 1450.39 2299.23 1450.74 Q2301.03 1451.09 2302.98 1451.78 Z" fill="#000000" fill-rule="nonzero" fill-opacity="1" /><path clip-path="url(#clip890)" d="M1286.34 1518.52 L1292.23 1518.52 L1292.23 1547.77 L1309.7 1532.4 L1317.18 1532.4 L1298.27 1549.07 L1317.98 1568.04 L1310.34 1568.04 L1292.23 1550.63 L1292.23 1568.04 L1286.34 1568.04 L1286.34 1518.52 Z" fill="#000000" fill-rule="nonzero" fill-opacity="1" /><polyline clip-path="url(#clip892)" style="stroke:#000000; stroke-linecap:round; stroke-linejoin:round; stroke-width:2; stroke-opacity:0.1; fill:none" points="251.56,1009.13 2352.76,1009.13 "/>
<polyline clip-path="url(#clip892)" style="stroke:#000000; stroke-linecap:round; stroke-linejoin:round; stroke-width:2; stroke-opacity:0.1; fill:none" points="251.56,333.077 2352.76,333.077 "/>
<polyline clip-path="url(#clip890)" style="stroke:#000000; stroke-linecap:round; stroke-linejoin:round; stroke-width:4; stroke-opacity:1; fill:none" points="251.56,1423.18 251.56,123.472 "/>
<polyline clip-path="url(#clip890)" style="stroke:#000000; stroke-linecap:round; stroke-linejoin:round; stroke-width:4; stroke-opacity:1; fill:none" points="251.56,1009.13 270.458,1009.13 "/>
<polyline clip-path="url(#clip890)" style="stroke:#000000; stroke-linecap:round; stroke-linejoin:round; stroke-width:4; stroke-opacity:1; fill:none" points="251.56,333.077 270.458,333.077 "/>
<path clip-path="url(#clip890)" d="M114.931 1028.93 L122.57 1028.93 L122.57 1002.56 L114.26 1004.23 L114.26 999.968 L122.524 998.301 L127.2 998.301 L127.2 1028.93 L134.839 1028.93 L134.839 1032.86 L114.931 1032.86 L114.931 1028.93 Z" fill="#000000" fill-rule="nonzero" fill-opacity="1" /><path clip-path="url(#clip890)" d="M154.283 1001.38 Q150.672 1001.38 148.843 1004.94 Q147.038 1008.49 147.038 1015.62 Q147.038 1022.72 148.843 1026.29 Q150.672 1029.83 154.283 1029.83 Q157.917 1029.83 159.723 1026.29 Q161.552 1022.72 161.552 1015.62 Q161.552 1008.49 159.723 1004.94 Q157.917 1001.38 154.283 1001.38 M154.283 997.676 Q160.093 997.676 163.149 1002.28 Q166.227 1006.87 166.227 1015.62 Q166.227 1024.34 163.149 1028.95 Q160.093 1033.53 154.283 1033.53 Q148.473 1033.53 145.394 1028.95 Q142.339 1024.34 142.339 1015.62 Q142.339 1006.87 145.394 1002.28 Q148.473 997.676 154.283 997.676 Z" fill="#000000" fill-rule="nonzero" fill-opacity="1" /><path clip-path="url(#clip890)" d="M166.227 991.777 L190.339 991.777 L190.339 994.975 L166.227 994.975 L166.227 991.777 Z" fill="#000000" fill-rule="nonzero" fill-opacity="1" /><path clip-path="url(#clip890)" d="M198.577 977.37 L213.491 977.37 L213.491 980.568 L202.056 980.568 L202.056 987.451 Q202.884 987.169 203.711 987.038 Q204.539 986.887 205.366 986.887 Q210.068 986.887 212.814 989.464 Q215.56 992.041 215.56 996.442 Q215.56 1000.97 212.739 1003.49 Q209.918 1006 204.783 1006 Q203.015 1006 201.172 1005.69 Q199.348 1005.39 197.392 1004.79 L197.392 1000.97 Q199.085 1001.9 200.89 1002.35 Q202.696 1002.8 204.708 1002.8 Q207.962 1002.8 209.861 1001.09 Q211.761 999.376 211.761 996.442 Q211.761 993.508 209.861 991.796 Q207.962 990.084 204.708 990.084 Q203.185 990.084 201.661 990.423 Q200.157 990.762 198.577 991.476 L198.577 977.37 Z" fill="#000000" fill-rule="nonzero" fill-opacity="1" /><path clip-path="url(#clip890)" d="M144.855 352.869 L152.493 352.869 L152.493 326.504 L144.183 328.17 L144.183 323.911 L152.447 322.244 L157.123 322.244 L157.123 352.869 L164.762 352.869 L164.762 356.804 L144.855 356.804 L144.855 352.869 Z" fill="#000000" fill-rule="nonzero" fill-opacity="1" /><path clip-path="url(#clip890)" d="M184.206 325.323 Q180.595 325.323 178.766 328.888 Q176.961 332.43 176.961 339.559 Q176.961 346.666 178.766 350.23 Q180.595 353.772 184.206 353.772 Q187.84 353.772 189.646 350.23 Q191.475 346.666 191.475 339.559 Q191.475 332.43 189.646 328.888 Q187.84 325.323 184.206 325.323 M184.206 321.619 Q190.016 321.619 193.072 326.226 Q196.151 330.809 196.151 339.559 Q196.151 348.286 193.072 352.892 Q190.016 357.476 184.206 357.476 Q178.396 357.476 175.317 352.892 Q172.262 348.286 172.262 339.559 Q172.262 330.809 175.317 326.226 Q178.396 321.619 184.206 321.619 Z" fill="#000000" fill-rule="nonzero" fill-opacity="1" /><path clip-path="url(#clip890)" d="M205.855 303.815 Q202.921 303.815 201.436 306.712 Q199.969 309.589 199.969 315.382 Q199.969 321.156 201.436 324.053 Q202.921 326.93 205.855 326.93 Q208.808 326.93 210.275 324.053 Q211.761 321.156 211.761 315.382 Q211.761 309.589 210.275 306.712 Q208.808 303.815 205.855 303.815 M205.855 300.806 Q210.576 300.806 213.059 304.549 Q215.56 308.273 215.56 315.382 Q215.56 322.473 213.059 326.215 Q210.576 329.939 205.855 329.939 Q201.135 329.939 198.633 326.215 Q196.151 322.473 196.151 315.382 Q196.151 308.273 198.633 304.549 Q201.135 300.806 205.855 300.806 Z" fill="#000000" fill-rule="nonzero" fill-opacity="1" /><path clip-path="url(#clip890)" d="M32.4621 801.797 Q32.4621 806.507 36.1542 809.244 Q39.8145 811.982 46.212 811.982 Q52.6095 811.982 56.3017 809.276 Q59.9619 806.539 59.9619 801.797 Q59.9619 797.118 56.2698 794.381 Q52.5777 791.643 46.212 791.643 Q39.8781 791.643 36.186 794.381 Q32.4621 797.118 32.4621 801.797 M27.4968 801.797 Q27.4968 794.158 32.4621 789.797 Q37.4273 785.437 46.212 785.437 Q54.9649 785.437 59.9619 789.797 Q64.9272 794.158 64.9272 801.797 Q64.9272 809.467 59.9619 813.828 Q54.9649 818.156 46.212 818.156 Q37.4273 818.156 32.4621 813.828 Q27.4968 809.467 27.4968 801.797 Z" fill="#000000" fill-rule="nonzero" fill-opacity="1" /><path clip-path="url(#clip890)" d="M46.212 750.139 Q39.7508 750.139 36.0905 752.812 Q32.3984 755.454 32.3984 760.101 Q32.3984 764.748 36.0905 767.422 Q39.7508 770.064 46.212 770.064 Q52.6732 770.064 56.3653 767.422 Q60.0256 764.748 60.0256 760.101 Q60.0256 755.454 56.3653 752.812 Q52.6732 750.139 46.212 750.139 M33.7671 770.064 Q30.5842 768.218 29.0564 765.417 Q27.4968 762.584 27.4968 758.669 Q27.4968 752.176 32.6531 748.134 Q37.8093 744.06 46.212 744.06 Q54.6147 744.06 59.771 748.134 Q64.9272 752.176 64.9272 758.669 Q64.9272 762.584 63.3994 765.417 Q61.8398 768.218 58.657 770.064 L64.0042 770.064 L64.0042 775.952 L14.479 775.952 L14.479 770.064 L33.7671 770.064 Z" fill="#000000" fill-rule="nonzero" fill-opacity="1" /><path clip-path="url(#clip890)" d="M28.3562 734.352 L28.3562 728.495 L64.6407 728.495 Q71.452 728.495 74.5076 731.105 Q77.5631 733.684 77.5631 739.445 L77.5631 741.673 L72.5979 741.673 L72.5979 740.113 Q72.5979 736.771 71.0383 735.561 Q69.5105 734.352 64.6407 734.352 L28.3562 734.352 M14.479 734.352 L14.479 728.495 L21.895 728.495 L21.895 734.352 L14.479 734.352 Z" fill="#000000" fill-rule="nonzero" fill-opacity="1" /><path clip-path="url(#clip890)" d="M933.931 65.7705 L933.931 89.8329 L926.437 89.8329 L926.437 27.2059 L933.931 27.2059 L933.931 34.0924 Q936.28 30.0415 939.845 28.0971 Q943.451 26.1121 948.433 26.1121 Q956.697 26.1121 961.842 32.6746 Q967.027 39.2371 967.027 49.9314 Q967.027 60.6258 961.842 67.1883 Q956.697 73.7508 948.433 73.7508 Q943.451 73.7508 939.845 71.8063 Q936.28 69.8214 933.931 65.7705 M959.29 49.9314 Q959.29 41.7081 955.887 37.0496 Q952.525 32.3505 946.61 32.3505 Q940.696 32.3505 937.293 37.0496 Q933.931 41.7081 933.931 49.9314 Q933.931 58.1548 937.293 62.8538 Q940.696 67.5124 946.61 67.5124 Q952.525 67.5124 955.887 62.8538 Q959.29 58.1548 959.29 49.9314 Z" fill="#000000" fill-rule="nonzero" fill-opacity="1" /><path clip-path="url(#clip890)" d="M1005.67 34.1734 Q1004.42 33.4443 1002.92 33.1202 Q1001.46 32.7556 999.677 32.7556 Q993.358 32.7556 989.955 36.8875 Q986.593 40.9789 986.593 48.6757 L986.593 72.576 L979.098 72.576 L979.098 27.2059 L986.593 27.2059 L986.593 34.2544 Q988.942 30.1225 992.71 28.1376 Q996.477 26.1121 1001.86 26.1121 Q1002.63 26.1121 1003.57 26.2337 Q1004.5 26.3147 1005.63 26.5172 L1005.67 34.1734 Z" fill="#000000" fill-rule="nonzero" fill-opacity="1" /><path clip-path="url(#clip890)" d="M1029.25 32.4315 Q1023.25 32.4315 1019.77 37.1306 Q1016.29 41.7891 1016.29 49.9314 Q1016.29 58.0738 1019.73 62.7728 Q1023.21 67.4314 1029.25 67.4314 Q1035.2 67.4314 1038.69 62.7323 Q1042.17 58.0333 1042.17 49.9314 Q1042.17 41.8701 1038.69 37.1711 Q1035.2 32.4315 1029.25 32.4315 M1029.25 26.1121 Q1038.97 26.1121 1044.52 32.4315 Q1050.07 38.7509 1050.07 49.9314 Q1050.07 61.0714 1044.52 67.4314 Q1038.97 73.7508 1029.25 73.7508 Q1019.49 73.7508 1013.94 67.4314 Q1008.43 61.0714 1008.43 49.9314 Q1008.43 38.7509 1013.94 32.4315 Q1019.49 26.1121 1029.25 26.1121 Z" fill="#000000" fill-rule="nonzero" fill-opacity="1" /><path clip-path="url(#clip890)" d="M1094.99 49.9314 Q1094.99 41.7081 1091.59 37.0496 Q1088.23 32.3505 1082.32 32.3505 Q1076.4 32.3505 1073 37.0496 Q1069.64 41.7081 1069.64 49.9314 Q1069.64 58.1548 1073 62.8538 Q1076.4 67.5124 1082.32 67.5124 Q1088.23 67.5124 1091.59 62.8538 Q1094.99 58.1548 1094.99 49.9314 M1069.64 34.0924 Q1071.99 30.0415 1075.55 28.0971 Q1079.16 26.1121 1084.14 26.1121 Q1092.4 26.1121 1097.55 32.6746 Q1102.73 39.2371 1102.73 49.9314 Q1102.73 60.6258 1097.55 67.1883 Q1092.4 73.7508 1084.14 73.7508 Q1079.16 73.7508 1075.55 71.8063 Q1071.99 69.8214 1069.64 65.7705 L1069.64 72.576 L1062.14 72.576 L1062.14 9.54393 L1069.64 9.54393 L1069.64 34.0924 Z" fill="#000000" fill-rule="nonzero" fill-opacity="1" /><path clip-path="url(#clip890)" d="M1115.09 9.54393 L1122.54 9.54393 L1122.54 72.576 L1115.09 72.576 L1115.09 9.54393 Z" fill="#000000" fill-rule="nonzero" fill-opacity="1" /><path clip-path="url(#clip890)" d="M1176.94 48.0275 L1176.94 51.6733 L1142.67 51.6733 Q1143.16 59.3701 1147.29 63.421 Q1151.46 67.4314 1158.88 67.4314 Q1163.17 67.4314 1167.18 66.3781 Q1171.23 65.3249 1175.2 63.2184 L1175.2 70.267 Q1171.19 71.9684 1166.98 72.8596 Q1162.77 73.7508 1158.43 73.7508 Q1147.58 73.7508 1141.22 67.4314 Q1134.9 61.1119 1134.9 50.3365 Q1134.9 39.1965 1140.89 32.6746 Q1146.93 26.1121 1157.14 26.1121 Q1166.29 26.1121 1171.6 32.0264 Q1176.94 37.9003 1176.94 48.0275 M1169.49 45.84 Q1169.41 39.7232 1166.05 36.0774 Q1162.73 32.4315 1157.22 32.4315 Q1150.98 32.4315 1147.21 35.9558 Q1143.48 39.4801 1142.92 45.8805 L1169.49 45.84 M1150.82 6.22219 L1162.24 21.3726 L1156.04 21.3726 L1142.84 6.22219 L1150.82 6.22219 Z" fill="#000000" fill-rule="nonzero" fill-opacity="1" /><path clip-path="url(#clip890)" d="M1224.5 35.9153 Q1227.3 30.8922 1231.19 28.5022 Q1235.08 26.1121 1240.34 26.1121 Q1247.43 26.1121 1251.28 31.0947 Q1255.13 36.0368 1255.13 45.1919 L1255.13 72.576 L1247.63 72.576 L1247.63 45.4349 Q1247.63 38.913 1245.32 35.7533 Q1243.01 32.5936 1238.28 32.5936 Q1232.48 32.5936 1229.12 36.4419 Q1225.76 40.2903 1225.76 46.9338 L1225.76 72.576 L1218.26 72.576 L1218.26 45.4349 Q1218.26 38.8725 1215.95 35.7533 Q1213.65 32.5936 1208.83 32.5936 Q1203.11 32.5936 1199.75 36.4824 Q1196.39 40.3308 1196.39 46.9338 L1196.39 72.576 L1188.89 72.576 L1188.89 27.2059 L1196.39 27.2059 L1196.39 34.2544 Q1198.94 30.082 1202.51 28.0971 Q1206.07 26.1121 1210.97 26.1121 Q1215.91 26.1121 1219.36 28.6237 Q1222.84 31.1352 1224.5 35.9153 Z" fill="#000000" fill-rule="nonzero" fill-opacity="1" /><path clip-path="url(#clip890)" d="M1308.8 48.0275 L1308.8 51.6733 L1274.53 51.6733 Q1275.02 59.3701 1279.15 63.421 Q1283.32 67.4314 1290.73 67.4314 Q1295.03 67.4314 1299.04 66.3781 Q1303.09 65.3249 1307.06 63.2184 L1307.06 70.267 Q1303.05 71.9684 1298.84 72.8596 Q1294.62 73.7508 1290.29 73.7508 Q1279.43 73.7508 1273.07 67.4314 Q1266.75 61.1119 1266.75 50.3365 Q1266.75 39.1965 1272.75 32.6746 Q1278.78 26.1121 1288.99 26.1121 Q1298.15 26.1121 1303.45 32.0264 Q1308.8 37.9003 1308.8 48.0275 M1301.35 45.84 Q1301.27 39.7232 1297.9 36.0774 Q1294.58 32.4315 1289.07 32.4315 Q1282.84 32.4315 1279.07 35.9558 Q1275.34 39.4801 1274.77 45.8805 L1301.35 45.84 Z" fill="#000000" fill-rule="nonzero" fill-opacity="1" /><path clip-path="url(#clip890)" d="M1349.31 62.2867 L1357.86 62.2867 L1357.86 72.576 L1349.31 72.576 L1349.31 62.2867 M1349.31 29.6769 L1357.86 29.6769 L1357.86 39.9662 L1349.31 39.9662 L1349.31 29.6769 Z" fill="#000000" fill-rule="nonzero" fill-opacity="1" /><path clip-path="url(#clip890)" d="M1437.05 35.9153 Q1439.85 30.8922 1443.74 28.5022 Q1447.63 26.1121 1452.89 26.1121 Q1459.98 26.1121 1463.83 31.0947 Q1467.68 36.0368 1467.68 45.1919 L1467.68 72.576 L1460.18 72.576 L1460.18 45.4349 Q1460.18 38.913 1457.87 35.7533 Q1455.57 32.5936 1450.83 32.5936 Q1445.03 32.5936 1441.67 36.4419 Q1438.31 40.2903 1438.31 46.9338 L1438.31 72.576 L1430.81 72.576 L1430.81 45.4349 Q1430.81 38.8725 1428.51 35.7533 Q1426.2 32.5936 1421.38 32.5936 Q1415.66 32.5936 1412.3 36.4824 Q1408.94 40.3308 1408.94 46.9338 L1408.94 72.576 L1401.45 72.576 L1401.45 27.2059 L1408.94 27.2059 L1408.94 34.2544 Q1411.49 30.082 1415.06 28.0971 Q1418.62 26.1121 1423.52 26.1121 Q1428.47 26.1121 1431.91 28.6237 Q1435.39 31.1352 1437.05 35.9153 Z" fill="#000000" fill-rule="nonzero" fill-opacity="1" /><path clip-path="url(#clip890)" d="M1512.4 49.3643 Q1512.4 41.2625 1509.04 36.8065 Q1505.72 32.3505 1499.68 32.3505 Q1493.68 32.3505 1490.32 36.8065 Q1487 41.2625 1487 49.3643 Q1487 57.4256 1490.32 61.8816 Q1493.68 66.3376 1499.68 66.3376 Q1505.72 66.3376 1509.04 61.8816 Q1512.4 57.4256 1512.4 49.3643 M1519.85 66.9452 Q1519.85 78.5308 1514.71 84.1616 Q1509.56 89.8329 1498.95 89.8329 Q1495.02 89.8329 1491.54 89.2252 Q1488.05 88.6581 1484.77 87.4428 L1484.77 80.1917 Q1488.05 81.9741 1491.25 82.8248 Q1494.45 83.6755 1497.78 83.6755 Q1505.11 83.6755 1508.75 79.8271 Q1512.4 76.0193 1512.4 68.282 L1512.4 64.5957 Q1510.09 68.6061 1506.49 70.5911 Q1502.88 72.576 1497.86 72.576 Q1489.51 72.576 1484.41 66.2161 Q1479.3 59.8562 1479.3 49.3643 Q1479.3 38.832 1484.41 32.472 Q1489.51 26.1121 1497.86 26.1121 Q1502.88 26.1121 1506.49 28.0971 Q1510.09 30.082 1512.4 34.0924 L1512.4 27.2059 L1519.85 27.2059 L1519.85 66.9452 Z" fill="#000000" fill-rule="nonzero" fill-opacity="1" /><path clip-path="url(#clip890)" d="M1572.92 45.1919 L1572.92 72.576 L1565.47 72.576 L1565.47 45.4349 Q1565.47 38.994 1562.96 35.7938 Q1560.44 32.5936 1555.42 32.5936 Q1549.38 32.5936 1545.9 36.4419 Q1542.42 40.2903 1542.42 46.9338 L1542.42 72.576 L1534.92 72.576 L1534.92 9.54393 L1542.42 9.54393 L1542.42 34.2544 Q1545.09 30.163 1548.7 28.1376 Q1552.34 26.1121 1557.08 26.1121 Q1564.9 26.1121 1568.91 30.9732 Q1572.92 35.7938 1572.92 45.1919 Z" fill="#000000" fill-rule="nonzero" fill-opacity="1" /><path clip-path="url(#clip890)" d="M1613.63 39.9662 Q1619.51 41.222 1622.79 45.1919 Q1626.11 49.1618 1626.11 54.9951 Q1626.11 63.9476 1619.95 68.8492 Q1613.79 73.7508 1602.45 73.7508 Q1598.64 73.7508 1594.59 72.9811 Q1590.58 72.2519 1586.29 70.7531 L1586.29 62.8538 Q1589.69 64.8388 1593.74 65.8515 Q1597.79 66.8642 1602.21 66.8642 Q1609.91 66.8642 1613.92 63.826 Q1617.97 60.7879 1617.97 54.9951 Q1617.97 49.6479 1614.2 46.6502 Q1610.47 43.612 1603.79 43.612 L1596.74 43.612 L1596.74 36.8875 L1604.11 36.8875 Q1610.15 36.8875 1613.35 34.4975 Q1616.55 32.067 1616.55 27.5299 Q1616.55 22.8714 1613.23 20.4004 Q1609.95 17.8888 1603.79 17.8888 Q1600.43 17.8888 1596.58 18.618 Q1592.73 19.3471 1588.11 20.8865 L1588.11 13.5948 Q1592.77 12.2985 1596.82 11.6504 Q1600.91 11.0023 1604.52 11.0023 Q1613.83 11.0023 1619.26 15.2557 Q1624.69 19.4686 1624.69 26.6793 Q1624.69 31.7024 1621.81 35.1862 Q1618.94 38.6294 1613.63 39.9662 Z" fill="#000000" fill-rule="nonzero" fill-opacity="1" /><path clip-path="url(#clip890)" d="M1643.04 65.6895 L1656.41 65.6895 L1656.41 19.5497 L1641.87 22.4663 L1641.87 15.0127 L1656.33 12.096 L1664.51 12.096 L1664.51 65.6895 L1677.88 65.6895 L1677.88 72.576 L1643.04 72.576 L1643.04 65.6895 Z" fill="#000000" fill-rule="nonzero" fill-opacity="1" /><polyline clip-path="url(#clip892)" style="stroke:#009af9; stroke-linecap:round; stroke-linejoin:round; stroke-width:4; stroke-opacity:1; fill:none" points="311.028,160.256 707.48,244.166 1103.93,349.799 1500.38,510.908 1896.84,805.579 2293.29,1386.4 "/>
<polyline clip-path="url(#clip892)" style="stroke:#e26f46; stroke-linecap:round; stroke-linejoin:round; stroke-width:4; stroke-opacity:1; fill:none" points="311.028,160.256 707.48,244.166 1103.93,349.799 1500.38,510.908 1896.84,805.579 2293.29,1386.4 "/>
<path clip-path="url(#clip890)" d="M1501.03 322.316 L2282.72 322.316 L2282.72 166.796 L1501.03 166.796  Z" fill="#ffffff" fill-rule="evenodd" fill-opacity="1"/>
<polyline clip-path="url(#clip890)" style="stroke:#000000; stroke-linecap:round; stroke-linejoin:round; stroke-width:4; stroke-opacity:1; fill:none" points="1501.03,322.316 2282.72,322.316 2282.72,166.796 1501.03,166.796 1501.03,322.316 "/>
<polyline clip-path="url(#clip890)" style="stroke:#009af9; stroke-linecap:round; stroke-linejoin:round; stroke-width:4; stroke-opacity:1; fill:none" points="1524.37,218.636 1664.45,218.636 "/>
<path clip-path="url(#clip890)" d="M1687.8 201.356 L1692.47 201.356 L1692.47 231.981 L1709.3 231.981 L1709.3 235.916 L1687.8 235.916 L1687.8 201.356 Z" fill="#000000" fill-rule="nonzero" fill-opacity="1" /><path clip-path="url(#clip890)" d="M1714.21 201.356 L1721.18 201.356 L1730 224.874 L1738.86 201.356 L1745.83 201.356 L1745.83 235.916 L1741.27 235.916 L1741.27 205.569 L1732.36 229.272 L1727.66 229.272 L1718.75 205.569 L1718.75 235.916 L1714.21 235.916 L1714.21 201.356 Z" fill="#000000" fill-rule="nonzero" fill-opacity="1" /><path clip-path="url(#clip890)" d="M1774.63 243.786 L1774.63 247.096 L1750 247.096 L1750 243.786 L1774.63 243.786 Z" fill="#000000" fill-rule="nonzero" fill-opacity="1" /><path clip-path="url(#clip890)" d="M1790.37 205.962 L1784.02 223.161 L1796.73 223.161 L1790.37 205.962 M1787.73 201.356 L1793.03 201.356 L1806.2 235.916 L1801.34 235.916 L1798.19 227.05 L1782.61 227.05 L1779.46 235.916 L1774.53 235.916 L1787.73 201.356 Z" fill="#000000" fill-rule="nonzero" fill-opacity="1" /><path clip-path="url(#clip890)" d="M1832.61 220.268 L1832.61 235.916 L1828.35 235.916 L1828.35 220.407 Q1828.35 216.726 1826.92 214.897 Q1825.48 213.069 1822.61 213.069 Q1819.16 213.069 1817.17 215.268 Q1815.18 217.467 1815.18 221.263 L1815.18 235.916 L1810.9 235.916 L1810.9 209.99 L1815.18 209.99 L1815.18 214.018 Q1816.71 211.68 1818.77 210.522 Q1820.85 209.365 1823.56 209.365 Q1828.03 209.365 1830.32 212.143 Q1832.61 214.897 1832.61 220.268 Z" fill="#000000" fill-rule="nonzero" fill-opacity="1" /><path clip-path="url(#clip890)" d="M1858.17 213.925 L1858.17 199.897 L1862.43 199.897 L1862.43 235.916 L1858.17 235.916 L1858.17 232.027 Q1856.83 234.342 1854.77 235.476 Q1852.73 236.587 1849.86 236.587 Q1845.16 236.587 1842.2 232.837 Q1839.26 229.087 1839.26 222.976 Q1839.26 216.865 1842.2 213.115 Q1845.16 209.365 1849.86 209.365 Q1852.73 209.365 1854.77 210.499 Q1856.83 211.61 1858.17 213.925 M1843.65 222.976 Q1843.65 227.675 1845.58 230.36 Q1847.52 233.022 1850.9 233.022 Q1854.28 233.022 1856.22 230.36 Q1858.17 227.675 1858.17 222.976 Q1858.17 218.277 1856.22 215.615 Q1854.28 212.93 1850.9 212.93 Q1847.52 212.93 1845.58 215.615 Q1843.65 218.277 1843.65 222.976 Z" fill="#000000" fill-rule="nonzero" fill-opacity="1" /><path clip-path="url(#clip890)" d="M1886.22 213.971 Q1885.51 213.555 1884.65 213.37 Q1883.82 213.161 1882.8 213.161 Q1879.19 213.161 1877.24 215.522 Q1875.32 217.86 1875.32 222.258 L1875.32 235.916 L1871.04 235.916 L1871.04 209.99 L1875.32 209.99 L1875.32 214.018 Q1876.66 211.657 1878.82 210.522 Q1880.97 209.365 1884.05 209.365 Q1884.49 209.365 1885.02 209.434 Q1885.55 209.481 1886.2 209.596 L1886.22 213.971 Z" fill="#000000" fill-rule="nonzero" fill-opacity="1" /><path clip-path="url(#clip890)" d="M1911.82 221.888 L1911.82 223.971 L1892.24 223.971 Q1892.52 228.369 1894.88 230.684 Q1897.26 232.976 1901.5 232.976 Q1903.95 232.976 1906.25 232.374 Q1908.56 231.772 1910.83 230.569 L1910.83 234.596 Q1908.54 235.568 1906.13 236.078 Q1903.72 236.587 1901.25 236.587 Q1895.04 236.587 1891.41 232.976 Q1887.8 229.365 1887.8 223.207 Q1887.8 216.842 1891.22 213.115 Q1894.67 209.365 1900.51 209.365 Q1905.74 209.365 1908.77 212.745 Q1911.82 216.101 1911.82 221.888 M1907.57 220.638 Q1907.52 217.143 1905.6 215.059 Q1903.7 212.976 1900.55 212.976 Q1896.99 212.976 1894.83 214.99 Q1892.7 217.004 1892.38 220.661 L1907.57 220.638 Z" fill="#000000" fill-rule="nonzero" fill-opacity="1" /><path clip-path="url(#clip890)" d="M1918.82 209.99 L1923.07 209.99 L1923.07 235.916 L1918.82 235.916 L1918.82 209.99 M1918.82 199.897 L1923.07 199.897 L1923.07 205.291 L1918.82 205.291 L1918.82 199.897 Z" fill="#000000" fill-rule="nonzero" fill-opacity="1" /><path clip-path="url(#clip890)" d="M1951.69 243.786 L1951.69 247.096 L1927.06 247.096 L1927.06 243.786 L1951.69 243.786 Z" fill="#000000" fill-rule="nonzero" fill-opacity="1" /><path clip-path="url(#clip890)" d="M1967.47 222.883 Q1962.31 222.883 1960.32 224.064 Q1958.33 225.244 1958.33 228.092 Q1958.33 230.36 1959.81 231.703 Q1961.32 233.022 1963.88 233.022 Q1967.43 233.022 1969.56 230.522 Q1971.71 227.999 1971.71 223.832 L1971.71 222.883 L1967.47 222.883 M1975.97 221.124 L1975.97 235.916 L1971.71 235.916 L1971.71 231.981 Q1970.25 234.342 1968.07 235.476 Q1965.9 236.587 1962.75 236.587 Q1958.77 236.587 1956.41 234.365 Q1954.07 232.119 1954.07 228.369 Q1954.07 223.994 1956.99 221.772 Q1959.93 219.55 1965.74 219.55 L1971.71 219.55 L1971.71 219.133 Q1971.71 216.194 1969.76 214.596 Q1967.84 212.976 1964.35 212.976 Q1962.13 212.976 1960.02 213.508 Q1957.91 214.041 1955.97 215.106 L1955.97 211.17 Q1958.31 210.268 1960.51 209.828 Q1962.7 209.365 1964.79 209.365 Q1970.41 209.365 1973.19 212.282 Q1975.97 215.198 1975.97 221.124 Z" fill="#000000" fill-rule="nonzero" fill-opacity="1" /><path clip-path="url(#clip890)" d="M1984.74 199.897 L1989 199.897 L1989 235.916 L1984.74 235.916 L1984.74 199.897 Z" fill="#000000" fill-rule="nonzero" fill-opacity="1" /><path clip-path="url(#clip890)" d="M2002.13 202.629 L2002.13 209.99 L2010.9 209.99 L2010.9 213.3 L2002.13 213.3 L2002.13 227.374 Q2002.13 230.545 2002.98 231.448 Q2003.86 232.351 2006.52 232.351 L2010.9 232.351 L2010.9 235.916 L2006.52 235.916 Q2001.59 235.916 1999.72 234.087 Q1997.84 232.235 1997.84 227.374 L1997.84 213.3 L1994.72 213.3 L1994.72 209.99 L1997.84 209.99 L1997.84 202.629 L2002.13 202.629 Z" fill="#000000" fill-rule="nonzero" fill-opacity="1" /><polyline clip-path="url(#clip890)" style="stroke:#e26f46; stroke-linecap:round; stroke-linejoin:round; stroke-width:4; stroke-opacity:1; fill:none" points="1524.37,270.476 1664.45,270.476 "/>
<path clip-path="url(#clip890)" d="M1687.8 253.196 L1692.47 253.196 L1692.47 283.821 L1709.3 283.821 L1709.3 287.756 L1687.8 287.756 L1687.8 253.196 Z" fill="#000000" fill-rule="nonzero" fill-opacity="1" /><path clip-path="url(#clip890)" d="M1714.21 253.196 L1721.18 253.196 L1730 276.714 L1738.86 253.196 L1745.83 253.196 L1745.83 287.756 L1741.27 287.756 L1741.27 257.409 L1732.36 281.112 L1727.66 281.112 L1718.75 257.409 L1718.75 287.756 L1714.21 287.756 L1714.21 253.196 Z" fill="#000000" fill-rule="nonzero" fill-opacity="1" /><path clip-path="url(#clip890)" d="M1774.63 295.626 L1774.63 298.936 L1750 298.936 L1750 295.626 L1774.63 295.626 Z" fill="#000000" fill-rule="nonzero" fill-opacity="1" /><path clip-path="url(#clip890)" d="M1790.37 257.802 L1784.02 275.001 L1796.73 275.001 L1790.37 257.802 M1787.73 253.196 L1793.03 253.196 L1806.2 287.756 L1801.34 287.756 L1798.19 278.89 L1782.61 278.89 L1779.46 287.756 L1774.53 287.756 L1787.73 253.196 Z" fill="#000000" fill-rule="nonzero" fill-opacity="1" /><path clip-path="url(#clip890)" d="M1832.61 272.108 L1832.61 287.756 L1828.35 287.756 L1828.35 272.247 Q1828.35 268.566 1826.92 266.737 Q1825.48 264.909 1822.61 264.909 Q1819.16 264.909 1817.17 267.108 Q1815.18 269.307 1815.18 273.103 L1815.18 287.756 L1810.9 287.756 L1810.9 261.83 L1815.18 261.83 L1815.18 265.858 Q1816.71 263.52 1818.77 262.362 Q1820.85 261.205 1823.56 261.205 Q1828.03 261.205 1830.32 263.983 Q1832.61 266.737 1832.61 272.108 Z" fill="#000000" fill-rule="nonzero" fill-opacity="1" /><path clip-path="url(#clip890)" d="M1858.17 265.765 L1858.17 251.737 L1862.43 251.737 L1862.43 287.756 L1858.17 287.756 L1858.17 283.867 Q1856.83 286.182 1854.77 287.316 Q1852.73 288.427 1849.86 288.427 Q1845.16 288.427 1842.2 284.677 Q1839.26 280.927 1839.26 274.816 Q1839.26 268.705 1842.2 264.955 Q1845.16 261.205 1849.86 261.205 Q1852.73 261.205 1854.77 262.339 Q1856.83 263.45 1858.17 265.765 M1843.65 274.816 Q1843.65 279.515 1845.58 282.2 Q1847.52 284.862 1850.9 284.862 Q1854.28 284.862 1856.22 282.2 Q1858.17 279.515 1858.17 274.816 Q1858.17 270.117 1856.22 267.455 Q1854.28 264.77 1850.9 264.77 Q1847.52 264.77 1845.58 267.455 Q1843.65 270.117 1843.65 274.816 Z" fill="#000000" fill-rule="nonzero" fill-opacity="1" /><path clip-path="url(#clip890)" d="M1886.22 265.811 Q1885.51 265.395 1884.65 265.21 Q1883.82 265.001 1882.8 265.001 Q1879.19 265.001 1877.24 267.362 Q1875.32 269.7 1875.32 274.098 L1875.32 287.756 L1871.04 287.756 L1871.04 261.83 L1875.32 261.83 L1875.32 265.858 Q1876.66 263.497 1878.82 262.362 Q1880.97 261.205 1884.05 261.205 Q1884.49 261.205 1885.02 261.274 Q1885.55 261.321 1886.2 261.436 L1886.22 265.811 Z" fill="#000000" fill-rule="nonzero" fill-opacity="1" /><path clip-path="url(#clip890)" d="M1911.82 273.728 L1911.82 275.811 L1892.24 275.811 Q1892.52 280.209 1894.88 282.524 Q1897.26 284.816 1901.5 284.816 Q1903.95 284.816 1906.25 284.214 Q1908.56 283.612 1910.83 282.409 L1910.83 286.436 Q1908.54 287.408 1906.13 287.918 Q1903.72 288.427 1901.25 288.427 Q1895.04 288.427 1891.41 284.816 Q1887.8 281.205 1887.8 275.047 Q1887.8 268.682 1891.22 264.955 Q1894.67 261.205 1900.51 261.205 Q1905.74 261.205 1908.77 264.585 Q1911.82 267.941 1911.82 273.728 M1907.57 272.478 Q1907.52 268.983 1905.6 266.899 Q1903.7 264.816 1900.55 264.816 Q1896.99 264.816 1894.83 266.83 Q1892.7 268.844 1892.38 272.501 L1907.57 272.478 Z" fill="#000000" fill-rule="nonzero" fill-opacity="1" /><path clip-path="url(#clip890)" d="M1918.82 261.83 L1923.07 261.83 L1923.07 287.756 L1918.82 287.756 L1918.82 261.83 M1918.82 251.737 L1923.07 251.737 L1923.07 257.131 L1918.82 257.131 L1918.82 251.737 Z" fill="#000000" fill-rule="nonzero" fill-opacity="1" /><path clip-path="url(#clip890)" d="M1951.69 295.626 L1951.69 298.936 L1927.06 298.936 L1927.06 295.626 L1951.69 295.626 Z" fill="#000000" fill-rule="nonzero" fill-opacity="1" /><path clip-path="url(#clip890)" d="M1967.47 274.723 Q1962.31 274.723 1960.32 275.904 Q1958.33 277.084 1958.33 279.932 Q1958.33 282.2 1959.81 283.543 Q1961.32 284.862 1963.88 284.862 Q1967.43 284.862 1969.56 282.362 Q1971.71 279.839 1971.71 275.672 L1971.71 274.723 L1967.47 274.723 M1975.97 272.964 L1975.97 287.756 L1971.71 287.756 L1971.71 283.821 Q1970.25 286.182 1968.07 287.316 Q1965.9 288.427 1962.75 288.427 Q1958.77 288.427 1956.41 286.205 Q1954.07 283.959 1954.07 280.209 Q1954.07 275.834 1956.99 273.612 Q1959.93 271.39 1965.74 271.39 L1971.71 271.39 L1971.71 270.973 Q1971.71 268.034 1969.76 266.436 Q1967.84 264.816 1964.35 264.816 Q1962.13 264.816 1960.02 265.348 Q1957.91 265.881 1955.97 266.946 L1955.97 263.01 Q1958.31 262.108 1960.51 261.668 Q1962.7 261.205 1964.79 261.205 Q1970.41 261.205 1973.19 264.122 Q1975.97 267.038 1975.97 272.964 Z" fill="#000000" fill-rule="nonzero" fill-opacity="1" /><path clip-path="url(#clip890)" d="M1984.74 251.737 L1989 251.737 L1989 287.756 L1984.74 287.756 L1984.74 251.737 Z" fill="#000000" fill-rule="nonzero" fill-opacity="1" /><path clip-path="url(#clip890)" d="M2002.13 254.469 L2002.13 261.83 L2010.9 261.83 L2010.9 265.14 L2002.13 265.14 L2002.13 279.214 Q2002.13 282.385 2002.98 283.288 Q2003.86 284.191 2006.52 284.191 L2010.9 284.191 L2010.9 287.756 L2006.52 287.756 Q2001.59 287.756 1999.72 285.927 Q1997.84 284.075 1997.84 279.214 L1997.84 265.14 L1994.72 265.14 L1994.72 261.83 L1997.84 261.83 L1997.84 254.469 L2002.13 254.469 Z" fill="#000000" fill-rule="nonzero" fill-opacity="1" /><path clip-path="url(#clip890)" d="M2036.2 295.626 L2036.2 298.936 L2011.57 298.936 L2011.57 295.626 L2036.2 295.626 Z" fill="#000000" fill-rule="nonzero" fill-opacity="1" /><path clip-path="url(#clip890)" d="M2042.75 274.816 Q2042.75 279.515 2044.67 282.2 Q2046.62 284.862 2050 284.862 Q2053.38 284.862 2055.32 282.2 Q2057.26 279.515 2057.26 274.816 Q2057.26 270.117 2055.32 267.455 Q2053.38 264.77 2050 264.77 Q2046.62 264.77 2044.67 267.455 Q2042.75 270.117 2042.75 274.816 M2057.26 283.867 Q2055.92 286.182 2053.86 287.316 Q2051.82 288.427 2048.95 288.427 Q2044.25 288.427 2041.29 284.677 Q2038.35 280.927 2038.35 274.816 Q2038.35 268.705 2041.29 264.955 Q2044.25 261.205 2048.95 261.205 Q2051.82 261.205 2053.86 262.339 Q2055.92 263.45 2057.26 265.765 L2057.26 261.83 L2061.52 261.83 L2061.52 297.617 L2057.26 297.617 L2057.26 283.867 Z" fill="#000000" fill-rule="nonzero" fill-opacity="1" /><path clip-path="url(#clip890)" d="M2085.32 265.811 Q2084.6 265.395 2083.75 265.21 Q2082.91 265.001 2081.89 265.001 Q2078.28 265.001 2076.34 267.362 Q2074.42 269.7 2074.42 274.098 L2074.42 287.756 L2070.13 287.756 L2070.13 261.83 L2074.42 261.83 L2074.42 265.858 Q2075.76 263.497 2077.91 262.362 Q2080.06 261.205 2083.14 261.205 Q2083.58 261.205 2084.12 261.274 Q2084.65 261.321 2085.3 261.436 L2085.32 265.811 Z" fill="#000000" fill-rule="nonzero" fill-opacity="1" /><path clip-path="url(#clip890)" d="M2109.14 266.807 Q2110.74 263.936 2112.96 262.571 Q2115.18 261.205 2118.19 261.205 Q2122.24 261.205 2124.44 264.052 Q2126.64 266.876 2126.64 272.108 L2126.64 287.756 L2122.36 287.756 L2122.36 272.247 Q2122.36 268.52 2121.04 266.714 Q2119.72 264.909 2117.01 264.909 Q2113.7 264.909 2111.78 267.108 Q2109.86 269.307 2109.86 273.103 L2109.86 287.756 L2105.57 287.756 L2105.57 272.247 Q2105.57 268.497 2104.25 266.714 Q2102.94 264.909 2100.18 264.909 Q2096.92 264.909 2095 267.131 Q2093.07 269.33 2093.07 273.103 L2093.07 287.756 L2088.79 287.756 L2088.79 261.83 L2093.07 261.83 L2093.07 265.858 Q2094.53 263.473 2096.57 262.339 Q2098.61 261.205 2101.41 261.205 Q2104.23 261.205 2106.2 262.64 Q2108.19 264.075 2109.14 266.807 Z" fill="#000000" fill-rule="nonzero" fill-opacity="1" /><path clip-path="url(#clip890)" d="M2134.69 277.524 L2134.69 261.83 L2138.95 261.83 L2138.95 277.362 Q2138.95 281.043 2140.39 282.895 Q2141.82 284.723 2144.69 284.723 Q2148.14 284.723 2150.13 282.524 Q2152.15 280.325 2152.15 276.529 L2152.15 261.83 L2156.41 261.83 L2156.41 287.756 L2152.15 287.756 L2152.15 283.774 Q2150.6 286.135 2148.54 287.293 Q2146.5 288.427 2143.79 288.427 Q2139.32 288.427 2137.01 285.649 Q2134.69 282.871 2134.69 277.524 M2145.41 261.205 L2145.41 261.205 Z" fill="#000000" fill-rule="nonzero" fill-opacity="1" /><path clip-path="url(#clip890)" d="M2185.37 266.807 Q2186.96 263.936 2189.18 262.571 Q2191.41 261.205 2194.42 261.205 Q2198.47 261.205 2200.67 264.052 Q2202.87 266.876 2202.87 272.108 L2202.87 287.756 L2198.58 287.756 L2198.58 272.247 Q2198.58 268.52 2197.26 266.714 Q2195.94 264.909 2193.24 264.909 Q2189.93 264.909 2188 267.108 Q2186.08 269.307 2186.08 273.103 L2186.08 287.756 L2181.8 287.756 L2181.8 272.247 Q2181.8 268.497 2180.48 266.714 Q2179.16 264.909 2176.41 264.909 Q2173.14 264.909 2171.22 267.131 Q2169.3 269.33 2169.3 273.103 L2169.3 287.756 L2165.02 287.756 L2165.02 261.83 L2169.3 261.83 L2169.3 265.858 Q2170.76 263.473 2172.8 262.339 Q2174.83 261.205 2177.63 261.205 Q2180.46 261.205 2182.43 262.64 Q2184.42 264.075 2185.37 266.807 Z" fill="#000000" fill-rule="nonzero" fill-opacity="1" /><path clip-path="url(#clip890)" d="M2215.48 283.867 L2215.48 297.617 L2211.2 297.617 L2211.2 261.83 L2215.48 261.83 L2215.48 265.765 Q2216.82 263.45 2218.86 262.339 Q2220.92 261.205 2223.77 261.205 Q2228.49 261.205 2231.43 264.955 Q2234.39 268.705 2234.39 274.816 Q2234.39 280.927 2231.43 284.677 Q2228.49 288.427 2223.77 288.427 Q2220.92 288.427 2218.86 287.316 Q2216.82 286.182 2215.48 283.867 M2229.97 274.816 Q2229.97 270.117 2228.03 267.455 Q2226.11 264.77 2222.73 264.77 Q2219.35 264.77 2217.4 267.455 Q2215.48 270.117 2215.48 274.816 Q2215.48 279.515 2217.4 282.2 Q2219.35 284.862 2222.73 284.862 Q2226.11 284.862 2228.03 282.2 Q2229.97 279.515 2229.97 274.816 Z" fill="#000000" fill-rule="nonzero" fill-opacity="1" /><path clip-path="url(#clip890)" d="M2257.98 262.594 L2257.98 266.622 Q2256.18 265.696 2254.23 265.233 Q2252.29 264.77 2250.2 264.77 Q2247.03 264.77 2245.43 265.742 Q2243.86 266.714 2243.86 268.659 Q2243.86 270.14 2244.99 270.997 Q2246.13 271.83 2249.55 272.594 L2251.01 272.918 Q2255.55 273.89 2257.45 275.672 Q2259.37 277.432 2259.37 280.603 Q2259.37 284.214 2256.5 286.321 Q2253.65 288.427 2248.65 288.427 Q2246.57 288.427 2244.3 288.01 Q2242.05 287.617 2239.55 286.807 L2239.55 282.409 Q2241.92 283.635 2244.21 284.26 Q2246.5 284.862 2248.74 284.862 Q2251.75 284.862 2253.37 283.844 Q2254.99 282.802 2254.99 280.927 Q2254.99 279.191 2253.81 278.265 Q2252.66 277.339 2248.7 276.483 L2247.22 276.135 Q2243.26 275.302 2241.5 273.589 Q2239.74 271.853 2239.74 268.844 Q2239.74 265.186 2242.33 263.196 Q2244.93 261.205 2249.69 261.205 Q2252.05 261.205 2254.14 261.552 Q2256.22 261.899 2257.98 262.594 Z" fill="#000000" fill-rule="nonzero" fill-opacity="1" /></svg>
