<?xml version="1.0" encoding="utf-8"?>
<svg xmlns="http://www.w3.org/2000/svg" xmlns:xlink="http://www.w3.org/1999/xlink" width="600" height="400" viewBox="0 0 2400 1600">
<defs>
  <clipPath id="clip860">
    <rect x="0" y="0" width="2400" height="1600"/>
  </clipPath>
</defs>
<path clip-path="url(#clip860)" d="M0 1600 L2400 1600 L2400 0 L0 0  Z" fill="#ffffff" fill-rule="evenodd" fill-opacity="1"/>
<defs>
  <clipPath id="clip861">
    <rect x="480" y="0" width="1681" height="1600"/>
  </clipPath>
</defs>
<path clip-path="url(#clip860)" d="M220.716 1423.18 L2352.76 1423.18 L2352.76 123.472 L220.716 123.472  Z" fill="#ffffff" fill-rule="evenodd" fill-opacity="1"/>
<defs>
  <clipPath id="clip862">
    <rect x="220" y="123" width="2133" height="1301"/>
  </clipPath>
</defs>
<polyline clip-path="url(#clip862)" style="stroke:#000000; stroke-linecap:round; stroke-linejoin:round; stroke-width:2; stroke-opacity:0.1; fill:none" points="281.056,1423.18 281.056,123.472 "/>
<polyline clip-path="url(#clip862)" style="stroke:#000000; stroke-linecap:round; stroke-linejoin:round; stroke-width:2; stroke-opacity:0.1; fill:none" points="783.896,1423.18 783.896,123.472 "/>
<polyline clip-path="url(#clip862)" style="stroke:#000000; stroke-linecap:round; stroke-linejoin:round; stroke-width:2; stroke-opacity:0.1; fill:none" points="1286.74,1423.18 1286.74,123.472 "/>
<polyline clip-path="url(#clip862)" style="stroke:#000000; stroke-linecap:round; stroke-linejoin:round; stroke-width:2; stroke-opacity:0.1; fill:none" points="1789.58,1423.18 1789.58,123.472 "/>
<polyline clip-path="url(#clip862)" style="stroke:#000000; stroke-linecap:round; stroke-linejoin:round; stroke-width:2; stroke-opacity:0.1; fill:none" points="2292.42,1423.18 2292.42,123.472 "/>
<polyline clip-path="url(#clip860)" style="stroke:#000000; stroke-linecap:round; stroke-linejoin:round; stroke-width:4; stroke-opacity:1; fill:none" points="220.716,1423.18 2352.76,1423.18 "/>
<polyline clip-path="url(#clip860)" style="stroke:#000000; stroke-linecap:round; stroke-linejoin:round; stroke-width:4; stroke-opacity:1; fill:none" points="281.056,1423.18 281.056,1404.28 "/>
<polyline clip-path="url(#clip860)" style="stroke:#000000; stroke-linecap:round; stroke-linejoin:round; stroke-width:4; stroke-opacity:1; fill:none" points="783.896,1423.18 783.896,1404.28 "/>
<polyline clip-path="url(#clip860)" style="stroke:#000000; stroke-linecap:round; stroke-linejoin:round; stroke-width:4; stroke-opacity:1; fill:none" points="1286.74,1423.18 1286.74,1404.28 "/>
<polyline clip-path="url(#clip860)" style="stroke:#000000; stroke-linecap:round; stroke-linejoin:round; stroke-width:4; stroke-opacity:1; fill:none" points="1789.58,1423.18 1789.58,1404.28 "/>
<polyline clip-path="url(#clip860)" style="stroke:#000000; stroke-linecap:round; stroke-linejoin:round; stroke-width:4; stroke-opacity:1; fill:none" points="2292.42,1423.18 2292.42,1404.28 "/>
<path clip-path="url(#clip860)" d="M248.209 1481.64 L255.848 1481.64 L255.848 1455.28 L247.538 1456.95 L247.538 1452.69 L255.802 1451.02 L260.478 1451.02 L260.478 1481.64 L268.117 1481.64 L268.117 1485.58 L248.209 1485.58 L248.209 1481.64 Z" fill="#000000" fill-rule="nonzero" fill-opacity="1" /><path clip-path="url(#clip860)" d="M277.561 1479.7 L282.445 1479.7 L282.445 1485.58 L277.561 1485.58 L277.561 1479.7 Z" fill="#000000" fill-rule="nonzero" fill-opacity="1" /><path clip-path="url(#clip860)" d="M302.63 1454.1 Q299.019 1454.1 297.19 1457.66 Q295.385 1461.2 295.385 1468.33 Q295.385 1475.44 297.19 1479.01 Q299.019 1482.55 302.63 1482.55 Q306.264 1482.55 308.07 1479.01 Q309.899 1475.44 309.899 1468.33 Q309.899 1461.2 308.07 1457.66 Q306.264 1454.1 302.63 1454.1 M302.63 1450.39 Q308.44 1450.39 311.496 1455 Q314.575 1459.58 314.575 1468.33 Q314.575 1477.06 311.496 1481.67 Q308.44 1486.25 302.63 1486.25 Q296.82 1486.25 293.741 1481.67 Q290.686 1477.06 290.686 1468.33 Q290.686 1459.58 293.741 1455 Q296.82 1450.39 302.63 1450.39 Z" fill="#000000" fill-rule="nonzero" fill-opacity="1" /><path clip-path="url(#clip860)" d="M751.547 1481.64 L759.185 1481.64 L759.185 1455.28 L750.875 1456.95 L750.875 1452.69 L759.139 1451.02 L763.815 1451.02 L763.815 1481.64 L771.454 1481.64 L771.454 1485.58 L751.547 1485.58 L751.547 1481.64 Z" fill="#000000" fill-rule="nonzero" fill-opacity="1" /><path clip-path="url(#clip860)" d="M780.898 1479.7 L785.783 1479.7 L785.783 1485.58 L780.898 1485.58 L780.898 1479.7 Z" fill="#000000" fill-rule="nonzero" fill-opacity="1" /><path clip-path="url(#clip860)" d="M796.014 1451.02 L814.37 1451.02 L814.37 1454.96 L800.296 1454.96 L800.296 1463.43 Q801.315 1463.08 802.333 1462.92 Q803.352 1462.73 804.37 1462.73 Q810.157 1462.73 813.537 1465.9 Q816.917 1469.08 816.917 1474.49 Q816.917 1480.07 813.444 1483.17 Q809.972 1486.25 803.653 1486.25 Q801.477 1486.25 799.208 1485.88 Q796.963 1485.51 794.556 1484.77 L794.556 1480.07 Q796.639 1481.2 798.861 1481.76 Q801.083 1482.32 803.56 1482.32 Q807.565 1482.32 809.903 1480.21 Q812.241 1478.1 812.241 1474.49 Q812.241 1470.88 809.903 1468.77 Q807.565 1466.67 803.56 1466.67 Q801.685 1466.67 799.81 1467.08 Q797.958 1467.5 796.014 1468.38 L796.014 1451.02 Z" fill="#000000" fill-rule="nonzero" fill-opacity="1" /><path clip-path="url(#clip860)" d="M1257.97 1481.64 L1274.29 1481.64 L1274.29 1485.58 L1252.35 1485.58 L1252.35 1481.64 Q1255.01 1478.89 1259.59 1474.26 Q1264.2 1469.61 1265.38 1468.27 Q1267.63 1465.74 1268.51 1464.01 Q1269.41 1462.25 1269.41 1460.56 Q1269.41 1457.8 1267.46 1456.07 Q1265.54 1454.33 1262.44 1454.33 Q1260.24 1454.33 1257.79 1455.09 Q1255.36 1455.86 1252.58 1457.41 L1252.58 1452.69 Q1255.4 1451.55 1257.86 1450.97 Q1260.31 1450.39 1262.35 1450.39 Q1267.72 1450.39 1270.91 1453.08 Q1274.11 1455.77 1274.11 1460.26 Q1274.11 1462.39 1273.3 1464.31 Q1272.51 1466.2 1270.4 1468.8 Q1269.83 1469.47 1266.72 1472.69 Q1263.62 1475.88 1257.97 1481.64 Z" fill="#000000" fill-rule="nonzero" fill-opacity="1" /><path clip-path="url(#clip860)" d="M1284.11 1479.7 L1288.99 1479.7 L1288.99 1485.58 L1284.11 1485.58 L1284.11 1479.7 Z" fill="#000000" fill-rule="nonzero" fill-opacity="1" /><path clip-path="url(#clip860)" d="M1309.18 1454.1 Q1305.57 1454.1 1303.74 1457.66 Q1301.93 1461.2 1301.93 1468.33 Q1301.93 1475.44 1303.74 1479.01 Q1305.57 1482.55 1309.18 1482.55 Q1312.81 1482.55 1314.62 1479.01 Q1316.45 1475.44 1316.45 1468.33 Q1316.45 1461.2 1314.62 1457.66 Q1312.81 1454.1 1309.18 1454.1 M1309.18 1450.39 Q1314.99 1450.39 1318.04 1455 Q1321.12 1459.58 1321.12 1468.33 Q1321.12 1477.06 1318.04 1481.67 Q1314.99 1486.25 1309.18 1486.25 Q1303.37 1486.25 1300.29 1481.67 Q1297.23 1477.06 1297.23 1468.33 Q1297.23 1459.58 1300.29 1455 Q1303.37 1450.39 1309.18 1450.39 Z" fill="#000000" fill-rule="nonzero" fill-opacity="1" /><path clip-path="url(#clip860)" d="M1761.31 1481.64 L1777.63 1481.64 L1777.63 1485.58 L1755.69 1485.58 L1755.69 1481.64 Q1758.35 1478.89 1762.93 1474.26 Q1767.54 1469.61 1768.72 1468.27 Q1770.96 1465.74 1771.84 1464.01 Q1772.75 1462.25 1772.75 1460.56 Q1772.75 1457.8 1770.8 1456.07 Q1768.88 1454.33 1765.78 1454.33 Q1763.58 1454.33 1761.13 1455.09 Q1758.7 1455.86 1755.92 1457.41 L1755.92 1452.69 Q1758.74 1451.55 1761.2 1450.97 Q1763.65 1450.39 1765.69 1450.39 Q1771.06 1450.39 1774.25 1453.08 Q1777.45 1455.77 1777.45 1460.26 Q1777.45 1462.39 1776.64 1464.31 Q1775.85 1466.2 1773.74 1468.8 Q1773.16 1469.47 1770.06 1472.69 Q1766.96 1475.88 1761.31 1481.64 Z" fill="#000000" fill-rule="nonzero" fill-opacity="1" /><path clip-path="url(#clip860)" d="M1787.45 1479.7 L1792.33 1479.7 L1792.33 1485.58 L1787.45 1485.58 L1787.45 1479.7 Z" fill="#000000" fill-rule="nonzero" fill-opacity="1" /><path clip-path="url(#clip860)" d="M1802.56 1451.02 L1820.92 1451.02 L1820.92 1454.96 L1806.84 1454.96 L1806.84 1463.43 Q1807.86 1463.08 1808.88 1462.92 Q1809.9 1462.73 1810.92 1462.73 Q1816.7 1462.73 1820.08 1465.9 Q1823.46 1469.08 1823.46 1474.49 Q1823.46 1480.07 1819.99 1483.17 Q1816.52 1486.25 1810.2 1486.25 Q1808.02 1486.25 1805.76 1485.88 Q1803.51 1485.51 1801.1 1484.77 L1801.1 1480.07 Q1803.19 1481.2 1805.41 1481.76 Q1807.63 1482.32 1810.11 1482.32 Q1814.11 1482.32 1816.45 1480.21 Q1818.79 1478.1 1818.79 1474.49 Q1818.79 1470.88 1816.45 1468.77 Q1814.11 1466.67 1810.11 1466.67 Q1808.23 1466.67 1806.36 1467.08 Q1804.51 1467.5 1802.56 1468.38 L1802.56 1451.02 Z" fill="#000000" fill-rule="nonzero" fill-opacity="1" /><path clip-path="url(#clip860)" d="M2273.72 1466.95 Q2277.08 1467.66 2278.95 1469.93 Q2280.85 1472.2 2280.85 1475.53 Q2280.85 1480.65 2277.33 1483.45 Q2273.82 1486.25 2267.33 1486.25 Q2265.16 1486.25 2262.84 1485.81 Q2260.55 1485.39 2258.1 1484.54 L2258.1 1480.02 Q2260.04 1481.16 2262.36 1481.74 Q2264.67 1482.32 2267.2 1482.32 Q2271.59 1482.32 2273.89 1480.58 Q2276.2 1478.84 2276.2 1475.53 Q2276.2 1472.48 2274.05 1470.77 Q2271.92 1469.03 2268.1 1469.03 L2264.07 1469.03 L2264.07 1465.19 L2268.28 1465.19 Q2271.73 1465.19 2273.56 1463.82 Q2275.39 1462.43 2275.39 1459.84 Q2275.39 1457.18 2273.49 1455.77 Q2271.62 1454.33 2268.1 1454.33 Q2266.18 1454.33 2263.98 1454.75 Q2261.78 1455.16 2259.14 1456.04 L2259.14 1451.88 Q2261.8 1451.14 2264.12 1450.77 Q2266.45 1450.39 2268.51 1450.39 Q2273.84 1450.39 2276.94 1452.83 Q2280.04 1455.23 2280.04 1459.35 Q2280.04 1462.22 2278.4 1464.21 Q2276.76 1466.18 2273.72 1466.95 Z" fill="#000000" fill-rule="nonzero" fill-opacity="1" /><path clip-path="url(#clip860)" d="M2289.72 1479.7 L2294.6 1479.7 L2294.6 1485.58 L2289.72 1485.58 L2289.72 1479.7 Z" fill="#000000" fill-rule="nonzero" fill-opacity="1" /><path clip-path="url(#clip860)" d="M2314.79 1454.1 Q2311.18 1454.1 2309.35 1457.66 Q2307.54 1461.2 2307.54 1468.33 Q2307.54 1475.44 2309.35 1479.01 Q2311.18 1482.55 2314.79 1482.55 Q2318.42 1482.55 2320.23 1479.01 Q2322.06 1475.44 2322.06 1468.33 Q2322.06 1461.2 2320.23 1457.66 Q2318.42 1454.1 2314.79 1454.1 M2314.79 1450.39 Q2320.6 1450.39 2323.65 1455 Q2326.73 1459.58 2326.73 1468.33 Q2326.73 1477.06 2323.65 1481.67 Q2320.6 1486.25 2314.79 1486.25 Q2308.98 1486.25 2305.9 1481.67 Q2302.84 1477.06 2302.84 1468.33 Q2302.84 1459.58 2305.9 1455 Q2308.98 1450.39 2314.79 1450.39 Z" fill="#000000" fill-rule="nonzero" fill-opacity="1" /><path clip-path="url(#clip860)" d="M1270.92 1518.52 L1276.81 1518.52 L1276.81 1547.77 L1294.28 1532.4 L1301.76 1532.4 L1282.85 1549.07 L1302.55 1568.04 L1294.92 1568.04 L1276.81 1550.63 L1276.81 1568.04 L1270.92 1568.04 L1270.92 1518.52 Z" fill="#000000" fill-rule="nonzero" fill-opacity="1" /><polyline clip-path="url(#clip862)" style="stroke:#000000; stroke-linecap:round; stroke-linejoin:round; stroke-width:2; stroke-opacity:0.1; fill:none" points="220.716,1125.58 2352.76,1125.58 "/>
<polyline clip-path="url(#clip862)" style="stroke:#000000; stroke-linecap:round; stroke-linejoin:round; stroke-width:2; stroke-opacity:0.1; fill:none" points="220.716,734.558 2352.76,734.558 "/>
<polyline clip-path="url(#clip862)" style="stroke:#000000; stroke-linecap:round; stroke-linejoin:round; stroke-width:2; stroke-opacity:0.1; fill:none" points="220.716,343.538 2352.76,343.538 "/>
<polyline clip-path="url(#clip860)" style="stroke:#000000; stroke-linecap:round; stroke-linejoin:round; stroke-width:4; stroke-opacity:1; fill:none" points="220.716,1423.18 220.716,123.472 "/>
<polyline clip-path="url(#clip860)" style="stroke:#000000; stroke-linecap:round; stroke-linejoin:round; stroke-width:4; stroke-opacity:1; fill:none" points="220.716,1125.58 239.613,1125.58 "/>
<polyline clip-path="url(#clip860)" style="stroke:#000000; stroke-linecap:round; stroke-linejoin:round; stroke-width:4; stroke-opacity:1; fill:none" points="220.716,734.558 239.613,734.558 "/>
<polyline clip-path="url(#clip860)" style="stroke:#000000; stroke-linecap:round; stroke-linejoin:round; stroke-width:4; stroke-opacity:1; fill:none" points="220.716,343.538 239.613,343.538 "/>
<path clip-path="url(#clip860)" d="M116.699 1145.37 L124.338 1145.37 L124.338 1119.01 L116.028 1120.67 L116.028 1116.41 L124.292 1114.75 L128.968 1114.75 L128.968 1145.37 L136.607 1145.37 L136.607 1149.31 L116.699 1149.31 L116.699 1145.37 Z" fill="#000000" fill-rule="nonzero" fill-opacity="1" /><path clip-path="url(#clip860)" d="M156.051 1117.83 Q152.44 1117.83 150.611 1121.39 Q148.806 1124.93 148.806 1132.06 Q148.806 1139.17 150.611 1142.73 Q152.44 1146.27 156.051 1146.27 Q159.685 1146.27 161.491 1142.73 Q163.32 1139.17 163.32 1132.06 Q163.32 1124.93 161.491 1121.39 Q159.685 1117.83 156.051 1117.83 M156.051 1114.12 Q161.861 1114.12 164.917 1118.73 Q167.995 1123.31 167.995 1132.06 Q167.995 1140.79 164.917 1145.39 Q161.861 1149.98 156.051 1149.98 Q150.241 1149.98 147.162 1145.39 Q144.107 1140.79 144.107 1132.06 Q144.107 1123.31 147.162 1118.73 Q150.241 1114.12 156.051 1114.12 Z" fill="#000000" fill-rule="nonzero" fill-opacity="1" /><path clip-path="url(#clip860)" d="M168.541 1118.7 L174.747 1118.7 L174.747 1097.28 L167.995 1098.63 L167.995 1095.17 L174.71 1093.82 L178.509 1093.82 L178.509 1118.7 L184.716 1118.7 L184.716 1121.9 L168.541 1121.9 L168.541 1118.7 Z" fill="#000000" fill-rule="nonzero" fill-opacity="1" /><path clip-path="url(#clip860)" d="M115.59 754.351 L123.229 754.351 L123.229 727.985 L114.918 729.652 L114.918 725.393 L123.182 723.726 L127.858 723.726 L127.858 754.351 L135.497 754.351 L135.497 758.286 L115.59 758.286 L115.59 754.351 Z" fill="#000000" fill-rule="nonzero" fill-opacity="1" /><path clip-path="url(#clip860)" d="M154.941 726.805 Q151.33 726.805 149.502 730.369 Q147.696 733.911 147.696 741.041 Q147.696 748.147 149.502 751.712 Q151.33 755.254 154.941 755.254 Q158.576 755.254 160.381 751.712 Q162.21 748.147 162.21 741.041 Q162.21 733.911 160.381 730.369 Q158.576 726.805 154.941 726.805 M154.941 723.101 Q160.752 723.101 163.807 727.707 Q166.886 732.291 166.886 741.041 Q166.886 749.767 163.807 754.374 Q160.752 758.957 154.941 758.957 Q149.131 758.957 146.053 754.374 Q142.997 749.767 142.997 741.041 Q142.997 732.291 146.053 727.707 Q149.131 723.101 154.941 723.101 Z" fill="#000000" fill-rule="nonzero" fill-opacity="1" /><path clip-path="url(#clip860)" d="M171.456 727.678 L184.716 727.678 L184.716 730.876 L166.886 730.876 L166.886 727.678 Q169.049 725.44 172.773 721.679 Q176.515 717.898 177.475 716.807 Q179.299 714.757 180.014 713.347 Q180.747 711.917 180.747 710.544 Q180.747 708.306 179.167 706.896 Q177.606 705.485 175.086 705.485 Q173.299 705.485 171.306 706.106 Q169.331 706.726 167.074 707.986 L167.074 704.15 Q169.368 703.228 171.362 702.758 Q173.356 702.288 175.011 702.288 Q179.374 702.288 181.97 704.469 Q184.565 706.651 184.565 710.3 Q184.565 712.03 183.907 713.591 Q183.267 715.133 181.556 717.24 Q181.086 717.785 178.565 720.4 Q176.045 722.995 171.456 727.678 Z" fill="#000000" fill-rule="nonzero" fill-opacity="1" /><path clip-path="url(#clip860)" d="M114.931 363.33 L122.57 363.33 L122.57 336.965 L114.26 338.631 L114.26 334.372 L122.524 332.705 L127.2 332.705 L127.2 363.33 L134.839 363.33 L134.839 367.265 L114.931 367.265 L114.931 363.33 Z" fill="#000000" fill-rule="nonzero" fill-opacity="1" /><path clip-path="url(#clip860)" d="M154.283 335.784 Q150.672 335.784 148.843 339.349 Q147.038 342.89 147.038 350.02 Q147.038 357.126 148.843 360.691 Q150.672 364.233 154.283 364.233 Q157.917 364.233 159.723 360.691 Q161.552 357.126 161.552 350.02 Q161.552 342.89 159.723 339.349 Q157.917 335.784 154.283 335.784 M154.283 332.08 Q160.093 332.08 163.149 336.687 Q166.227 341.27 166.227 350.02 Q166.227 358.747 163.149 363.353 Q160.093 367.937 154.283 367.937 Q148.473 367.937 145.394 363.353 Q142.339 358.747 142.339 350.02 Q142.339 341.27 145.394 336.687 Q148.473 332.08 154.283 332.08 Z" fill="#000000" fill-rule="nonzero" fill-opacity="1" /><path clip-path="url(#clip860)" d="M178.923 324.715 Q181.65 325.298 183.173 327.141 Q184.716 328.984 184.716 331.692 Q184.716 335.849 181.857 338.125 Q178.998 340.4 173.732 340.4 Q171.964 340.4 170.083 340.043 Q168.221 339.704 166.227 339.009 L166.227 335.341 Q167.807 336.263 169.688 336.733 Q171.569 337.203 173.619 337.203 Q177.192 337.203 179.054 335.792 Q180.935 334.382 180.935 331.692 Q180.935 329.21 179.186 327.818 Q177.456 326.407 174.352 326.407 L171.08 326.407 L171.08 323.285 L174.503 323.285 Q177.305 323.285 178.791 322.176 Q180.277 321.047 180.277 318.941 Q180.277 316.778 178.735 315.63 Q177.211 314.464 174.352 314.464 Q172.791 314.464 171.005 314.803 Q169.218 315.141 167.074 315.856 L167.074 312.471 Q169.237 311.869 171.117 311.568 Q173.017 311.267 174.691 311.267 Q179.017 311.267 181.537 313.242 Q184.057 315.198 184.057 318.546 Q184.057 320.878 182.722 322.495 Q181.387 324.094 178.923 324.715 Z" fill="#000000" fill-rule="nonzero" fill-opacity="1" /><path clip-path="url(#clip860)" d="M32.4621 801.797 Q32.4621 806.507 36.1542 809.244 Q39.8145 811.982 46.212 811.982 Q52.6095 811.982 56.3017 809.276 Q59.9619 806.539 59.9619 801.797 Q59.9619 797.118 56.2698 794.381 Q52.5777 791.643 46.212 791.643 Q39.8781 791.643 36.186 794.381 Q32.4621 797.118 32.4621 801.797 M27.4968 801.797 Q27.4968 794.158 32.4621 789.797 Q37.4273 785.437 46.212 785.437 Q54.9649 785.437 59.9619 789.797 Q64.9272 794.158 64.9272 801.797 Q64.9272 809.467 59.9619 813.828 Q54.9649 818.156 46.212 818.156 Q37.4273 818.156 32.4621 813.828 Q27.4968 809.467 27.4968 801.797 Z" fill="#000000" fill-rule="nonzero" fill-opacity="1" /><path clip-path="url(#clip860)" d="M46.212 750.139 Q39.7508 750.139 36.0905 752.812 Q32.3984 755.454 32.3984 760.101 Q32.3984 764.748 36.0905 767.422 Q39.7508 770.064 46.212 770.064 Q52.6732 770.064 56.3653 767.422 Q60.0256 764.748 60.0256 760.101 Q60.0256 755.454 56.3653 752.812 Q52.6732 750.139 46.212 750.139 M33.7671 770.064 Q30.5842 768.218 29.0564 765.417 Q27.4968 762.584 27.4968 758.669 Q27.4968 752.176 32.6531 748.134 Q37.8093 744.06 46.212 744.06 Q54.6147 744.06 59.771 748.134 Q64.9272 752.176 64.9272 758.669 Q64.9272 762.584 63.3994 765.417 Q61.8398 768.218 58.657 770.064 L64.0042 770.064 L64.0042 775.952 L14.479 775.952 L14.479 770.064 L33.7671 770.064 Z" fill="#000000" fill-rule="nonzero" fill-opacity="1" /><path clip-path="url(#clip860)" d="M28.3562 734.352 L28.3562 728.495 L64.6407 728.495 Q71.452 728.495 74.5076 731.105 Q77.5631 733.684 77.5631 739.445 L77.5631 741.673 L72.5979 741.673 L72.5979 740.113 Q72.5979 736.771 71.0383 735.561 Q69.5105 734.352 64.6407 734.352 L28.3562 734.352 M14.479 734.352 L14.479 728.495 L21.895 728.495 L21.895 734.352 L14.479 734.352 Z" fill="#000000" fill-rule="nonzero" fill-opacity="1" /><path clip-path="url(#clip860)" d="M918.002 65.7705 L918.002 89.8329 L910.508 89.8329 L910.508 27.2059 L918.002 27.2059 L918.002 34.0924 Q920.352 30.0415 923.916 28.0971 Q927.522 26.1121 932.504 26.1121 Q940.768 26.1121 945.913 32.6746 Q951.098 39.2371 951.098 49.9314 Q951.098 60.6258 945.913 67.1883 Q940.768 73.7508 932.504 73.7508 Q927.522 73.7508 923.916 71.8063 Q920.352 69.8214 918.002 65.7705 M943.361 49.9314 Q943.361 41.7081 939.958 37.0496 Q936.596 32.3505 930.681 32.3505 Q924.767 32.3505 921.364 37.0496 Q918.002 41.7081 918.002 49.9314 Q918.002 58.1548 921.364 62.8538 Q924.767 67.5124 930.681 67.5124 Q936.596 67.5124 939.958 62.8538 Q943.361 58.1548 943.361 49.9314 Z" fill="#000000" fill-rule="nonzero" fill-opacity="1" /><path clip-path="url(#clip860)" d="M989.744 34.1734 Q988.488 33.4443 986.989 33.1202 Q985.531 32.7556 983.748 32.7556 Q977.429 32.7556 974.026 36.8875 Q970.664 40.9789 970.664 48.6757 L970.664 72.576 L963.17 72.576 L963.17 27.2059 L970.664 27.2059 L970.664 34.2544 Q973.013 30.1225 976.781 28.1376 Q980.548 26.1121 985.936 26.1121 Q986.705 26.1121 987.637 26.2337 Q988.569 26.3147 989.703 26.5172 L989.744 34.1734 Z" fill="#000000" fill-rule="nonzero" fill-opacity="1" /><path clip-path="url(#clip860)" d="M1013.32 32.4315 Q1007.32 32.4315 1003.84 37.1306 Q1000.36 41.7891 1000.36 49.9314 Q1000.36 58.0738 1003.8 62.7728 Q1007.28 67.4314 1013.32 67.4314 Q1019.27 67.4314 1022.76 62.7323 Q1026.24 58.0333 1026.24 49.9314 Q1026.24 41.8701 1022.76 37.1711 Q1019.27 32.4315 1013.32 32.4315 M1013.32 26.1121 Q1023.04 26.1121 1028.59 32.4315 Q1034.14 38.7509 1034.14 49.9314 Q1034.14 61.0714 1028.59 67.4314 Q1023.04 73.7508 1013.32 73.7508 Q1003.56 73.7508 998.008 67.4314 Q992.498 61.0714 992.498 49.9314 Q992.498 38.7509 998.008 32.4315 Q1003.56 26.1121 1013.32 26.1121 Z" fill="#000000" fill-rule="nonzero" fill-opacity="1" /><path clip-path="url(#clip860)" d="M1079.07 49.9314 Q1079.07 41.7081 1075.66 37.0496 Q1072.3 32.3505 1066.39 32.3505 Q1060.47 32.3505 1057.07 37.0496 Q1053.71 41.7081 1053.71 49.9314 Q1053.71 58.1548 1057.07 62.8538 Q1060.47 67.5124 1066.39 67.5124 Q1072.3 67.5124 1075.66 62.8538 Q1079.07 58.1548 1079.07 49.9314 M1053.71 34.0924 Q1056.06 30.0415 1059.62 28.0971 Q1063.23 26.1121 1068.21 26.1121 Q1076.47 26.1121 1081.62 32.6746 Q1086.8 39.2371 1086.8 49.9314 Q1086.8 60.6258 1081.62 67.1883 Q1076.47 73.7508 1068.21 73.7508 Q1063.23 73.7508 1059.62 71.8063 Q1056.06 69.8214 1053.71 65.7705 L1053.71 72.576 L1046.21 72.576 L1046.21 9.54393 L1053.71 9.54393 L1053.71 34.0924 Z" fill="#000000" fill-rule="nonzero" fill-opacity="1" /><path clip-path="url(#clip860)" d="M1099.16 9.54393 L1106.61 9.54393 L1106.61 72.576 L1099.16 72.576 L1099.16 9.54393 Z" fill="#000000" fill-rule="nonzero" fill-opacity="1" /><path clip-path="url(#clip860)" d="M1161.02 48.0275 L1161.02 51.6733 L1126.75 51.6733 Q1127.23 59.3701 1131.36 63.421 Q1135.54 67.4314 1142.95 67.4314 Q1147.24 67.4314 1151.25 66.3781 Q1155.3 65.3249 1159.27 63.2184 L1159.27 70.267 Q1155.26 71.9684 1151.05 72.8596 Q1146.84 73.7508 1142.5 73.7508 Q1131.65 73.7508 1125.29 67.4314 Q1118.97 61.1119 1118.97 50.3365 Q1118.97 39.1965 1124.96 32.6746 Q1131 26.1121 1141.21 26.1121 Q1150.36 26.1121 1155.67 32.0264 Q1161.02 37.9003 1161.02 48.0275 M1153.56 45.84 Q1153.48 39.7232 1150.12 36.0774 Q1146.8 32.4315 1141.29 32.4315 Q1135.05 32.4315 1131.28 35.9558 Q1127.56 39.4801 1126.99 45.8805 L1153.56 45.84 M1134.89 6.22219 L1146.31 21.3726 L1140.11 21.3726 L1126.91 6.22219 L1134.89 6.22219 Z" fill="#000000" fill-rule="nonzero" fill-opacity="1" /><path clip-path="url(#clip860)" d="M1208.57 35.9153 Q1211.37 30.8922 1215.26 28.5022 Q1219.15 26.1121 1224.41 26.1121 Q1231.5 26.1121 1235.35 31.0947 Q1239.2 36.0368 1239.2 45.1919 L1239.2 72.576 L1231.7 72.576 L1231.7 45.4349 Q1231.7 38.913 1229.4 35.7533 Q1227.09 32.5936 1222.35 32.5936 Q1216.55 32.5936 1213.19 36.4419 Q1209.83 40.2903 1209.83 46.9338 L1209.83 72.576 L1202.34 72.576 L1202.34 45.4349 Q1202.34 38.8725 1200.03 35.7533 Q1197.72 32.5936 1192.9 32.5936 Q1187.18 32.5936 1183.82 36.4824 Q1180.46 40.3308 1180.46 46.9338 L1180.46 72.576 L1172.97 72.576 L1172.97 27.2059 L1180.46 27.2059 L1180.46 34.2544 Q1183.01 30.082 1186.58 28.0971 Q1190.14 26.1121 1195.04 26.1121 Q1199.99 26.1121 1203.43 28.6237 Q1206.91 31.1352 1208.57 35.9153 Z" fill="#000000" fill-rule="nonzero" fill-opacity="1" /><path clip-path="url(#clip860)" d="M1292.87 48.0275 L1292.87 51.6733 L1258.6 51.6733 Q1259.09 59.3701 1263.22 63.421 Q1267.39 67.4314 1274.81 67.4314 Q1279.1 67.4314 1283.11 66.3781 Q1287.16 65.3249 1291.13 63.2184 L1291.13 70.267 Q1287.12 71.9684 1282.91 72.8596 Q1278.69 73.7508 1274.36 73.7508 Q1263.5 73.7508 1257.14 67.4314 Q1250.82 61.1119 1250.82 50.3365 Q1250.82 39.1965 1256.82 32.6746 Q1262.86 26.1121 1273.06 26.1121 Q1282.22 26.1121 1287.53 32.0264 Q1292.87 37.9003 1292.87 48.0275 M1285.42 45.84 Q1285.34 39.7232 1281.98 36.0774 Q1278.65 32.4315 1273.14 32.4315 Q1266.91 32.4315 1263.14 35.9558 Q1259.41 39.4801 1258.85 45.8805 L1285.42 45.84 Z" fill="#000000" fill-rule="nonzero" fill-opacity="1" /><path clip-path="url(#clip860)" d="M1333.38 62.2867 L1341.93 62.2867 L1341.93 72.576 L1333.38 72.576 L1333.38 62.2867 M1333.38 29.6769 L1341.93 29.6769 L1341.93 39.9662 L1333.38 39.9662 L1333.38 29.6769 Z" fill="#000000" fill-rule="nonzero" fill-opacity="1" /><path clip-path="url(#clip860)" d="M1421.12 35.9153 Q1423.92 30.8922 1427.81 28.5022 Q1431.7 26.1121 1436.96 26.1121 Q1444.05 26.1121 1447.9 31.0947 Q1451.75 36.0368 1451.75 45.1919 L1451.75 72.576 L1444.26 72.576 L1444.26 45.4349 Q1444.26 38.913 1441.95 35.7533 Q1439.64 32.5936 1434.9 32.5936 Q1429.1 32.5936 1425.74 36.4419 Q1422.38 40.2903 1422.38 46.9338 L1422.38 72.576 L1414.89 72.576 L1414.89 45.4349 Q1414.89 38.8725 1412.58 35.7533 Q1410.27 32.5936 1405.45 32.5936 Q1399.74 32.5936 1396.37 36.4824 Q1393.01 40.3308 1393.01 46.9338 L1393.01 72.576 L1385.52 72.576 L1385.52 27.2059 L1393.01 27.2059 L1393.01 34.2544 Q1395.56 30.082 1399.13 28.0971 Q1402.69 26.1121 1407.59 26.1121 Q1412.54 26.1121 1415.98 28.6237 Q1419.46 31.1352 1421.12 35.9153 Z" fill="#000000" fill-rule="nonzero" fill-opacity="1" /><path clip-path="url(#clip860)" d="M1496.47 49.3643 Q1496.47 41.2625 1493.11 36.8065 Q1489.79 32.3505 1483.75 32.3505 Q1477.76 32.3505 1474.39 36.8065 Q1471.07 41.2625 1471.07 49.3643 Q1471.07 57.4256 1474.39 61.8816 Q1477.76 66.3376 1483.75 66.3376 Q1489.79 66.3376 1493.11 61.8816 Q1496.47 57.4256 1496.47 49.3643 M1503.92 66.9452 Q1503.92 78.5308 1498.78 84.1616 Q1493.64 89.8329 1483.02 89.8329 Q1479.09 89.8329 1475.61 89.2252 Q1472.13 88.6581 1468.84 87.4428 L1468.84 80.1917 Q1472.13 81.9741 1475.33 82.8248 Q1478.53 83.6755 1481.85 83.6755 Q1489.18 83.6755 1492.83 79.8271 Q1496.47 76.0193 1496.47 68.282 L1496.47 64.5957 Q1494.16 68.6061 1490.56 70.5911 Q1486.95 72.576 1481.93 72.576 Q1473.58 72.576 1468.48 66.2161 Q1463.38 59.8562 1463.38 49.3643 Q1463.38 38.832 1468.48 32.472 Q1473.58 26.1121 1481.93 26.1121 Q1486.95 26.1121 1490.56 28.0971 Q1494.16 30.082 1496.47 34.0924 L1496.47 27.2059 L1503.92 27.2059 L1503.92 66.9452 Z" fill="#000000" fill-rule="nonzero" fill-opacity="1" /><path clip-path="url(#clip860)" d="M1556.99 45.1919 L1556.99 72.576 L1549.54 72.576 L1549.54 45.4349 Q1549.54 38.994 1547.03 35.7938 Q1544.51 32.5936 1539.49 32.5936 Q1533.46 32.5936 1529.97 36.4419 Q1526.49 40.2903 1526.49 46.9338 L1526.49 72.576 L1518.99 72.576 L1518.99 9.54393 L1526.49 9.54393 L1526.49 34.2544 Q1529.16 30.163 1532.77 28.1376 Q1536.41 26.1121 1541.15 26.1121 Q1548.97 26.1121 1552.98 30.9732 Q1556.99 35.7938 1556.99 45.1919 Z" fill="#000000" fill-rule="nonzero" fill-opacity="1" /><path clip-path="url(#clip860)" d="M1597.7 39.9662 Q1603.58 41.222 1606.86 45.1919 Q1610.18 49.1618 1610.18 54.9951 Q1610.18 63.9476 1604.02 68.8492 Q1597.87 73.7508 1586.52 73.7508 Q1582.72 73.7508 1578.66 72.9811 Q1574.65 72.2519 1570.36 70.7531 L1570.36 62.8538 Q1573.76 64.8388 1577.81 65.8515 Q1581.86 66.8642 1586.28 66.8642 Q1593.98 66.8642 1597.99 63.826 Q1602.04 60.7879 1602.04 54.9951 Q1602.04 49.6479 1598.27 46.6502 Q1594.54 43.612 1587.86 43.612 L1580.81 43.612 L1580.81 36.8875 L1588.18 36.8875 Q1594.22 36.8875 1597.42 34.4975 Q1600.62 32.067 1600.62 27.5299 Q1600.62 22.8714 1597.3 20.4004 Q1594.02 17.8888 1587.86 17.8888 Q1584.5 17.8888 1580.65 18.618 Q1576.8 19.3471 1572.18 20.8865 L1572.18 13.5948 Q1576.84 12.2985 1580.89 11.6504 Q1584.98 11.0023 1588.59 11.0023 Q1597.91 11.0023 1603.33 15.2557 Q1608.76 19.4686 1608.76 26.6793 Q1608.76 31.7024 1605.89 35.1862 Q1603.01 38.6294 1597.7 39.9662 Z" fill="#000000" fill-rule="nonzero" fill-opacity="1" /><path clip-path="url(#clip860)" d="M1650.49 39.9662 Q1656.36 41.222 1659.64 45.1919 Q1662.96 49.1618 1662.96 54.9951 Q1662.96 63.9476 1656.81 68.8492 Q1650.65 73.7508 1639.31 73.7508 Q1635.5 73.7508 1631.45 72.9811 Q1627.44 72.2519 1623.14 70.7531 L1623.14 62.8538 Q1626.55 64.8388 1630.6 65.8515 Q1634.65 66.8642 1639.06 66.8642 Q1646.76 66.8642 1650.77 63.826 Q1654.82 60.7879 1654.82 54.9951 Q1654.82 49.6479 1651.05 46.6502 Q1647.33 43.612 1640.64 43.612 L1633.59 43.612 L1633.59 36.8875 L1640.97 36.8875 Q1647 36.8875 1650.2 34.4975 Q1653.4 32.067 1653.4 27.5299 Q1653.4 22.8714 1650.08 20.4004 Q1646.8 17.8888 1640.64 17.8888 Q1637.28 17.8888 1633.43 18.618 Q1629.58 19.3471 1624.97 20.8865 L1624.97 13.5948 Q1629.62 12.2985 1633.68 11.6504 Q1637.77 11.0023 1641.37 11.0023 Q1650.69 11.0023 1656.12 15.2557 Q1661.55 19.4686 1661.55 26.6793 Q1661.55 31.7024 1658.67 35.1862 Q1655.79 38.6294 1650.49 39.9662 Z" fill="#000000" fill-rule="nonzero" fill-opacity="1" /><polyline clip-path="url(#clip862)" style="stroke:#009af9; stroke-linecap:round; stroke-linejoin:round; stroke-width:4; stroke-opacity:1; fill:none" points="281.056,160.256 1286.74,1386.4 2292.42,1386.4 "/>
<polyline clip-path="url(#clip862)" style="stroke:#e26f46; stroke-linecap:round; stroke-linejoin:round; stroke-width:4; stroke-opacity:1; fill:none" points="281.056,160.256 1286.74,1386.4 2292.42,1386.4 "/>
<polyline clip-path="url(#clip862)" style="stroke:#3da44d; stroke-linecap:round; stroke-linejoin:round; stroke-width:4; stroke-opacity:1; fill:none" points="281.056,160.256 1286.74,1386.4 2292.42,1386.4 "/>
<polyline clip-path="url(#clip862)" style="stroke:#c271d2; stroke-linecap:round; stroke-linejoin:round; stroke-width:4; stroke-opacity:1; fill:none" points="281.056,160.256 1286.74,1386.4 2292.42,1386.4 "/>
<polyline clip-path="url(#clip862)" style="stroke:#ac8d18; stroke-linecap:round; stroke-linejoin:round; stroke-width:4; stroke-opacity:1; fill:none" points="281.056,160.256 1286.74,1386.4 "/>
<path clip-path="url(#clip860)" d="M1745.38 477.836 L2281.69 477.836 L2281.69 166.796 L1745.38 166.796  Z" fill="#ffffff" fill-rule="evenodd" fill-opacity="1"/>
<polyline clip-path="url(#clip860)" style="stroke:#000000; stroke-linecap:round; stroke-linejoin:round; stroke-width:4; stroke-opacity:1; fill:none" points="1745.38,477.836 2281.69,477.836 2281.69,166.796 1745.38,166.796 1745.38,477.836 "/>
<polyline clip-path="url(#clip860)" style="stroke:#009af9; stroke-linecap:round; stroke-linejoin:round; stroke-width:4; stroke-opacity:1; fill:none" points="1769.07,218.636 1911.21,218.636 "/>
<path clip-path="url(#clip860)" d="M1934.9 201.356 L1939.57 201.356 L1939.57 231.981 L1956.4 231.981 L1956.4 235.916 L1934.9 235.916 L1934.9 201.356 Z" fill="#000000" fill-rule="nonzero" fill-opacity="1" /><path clip-path="url(#clip860)" d="M1961.31 201.356 L1968.28 201.356 L1977.1 224.874 L1985.96 201.356 L1992.93 201.356 L1992.93 235.916 L1988.37 235.916 L1988.37 205.569 L1979.46 229.272 L1974.76 229.272 L1965.85 205.569 L1965.85 235.916 L1961.31 235.916 L1961.31 201.356 Z" fill="#000000" fill-rule="nonzero" fill-opacity="1" /><path clip-path="url(#clip860)" d="M2021.73 243.786 L2021.73 247.096 L1997.1 247.096 L1997.1 243.786 L2021.73 243.786 Z" fill="#000000" fill-rule="nonzero" fill-opacity="1" /><path clip-path="url(#clip860)" d="M2046.63 202.49 L2046.63 207.05 Q2043.97 205.777 2041.61 205.152 Q2039.25 204.527 2037.05 204.527 Q2033.23 204.527 2031.15 206.008 Q2029.09 207.49 2029.09 210.221 Q2029.09 212.513 2030.45 213.694 Q2031.84 214.851 2035.68 215.569 L2038.51 216.147 Q2043.74 217.143 2046.22 219.666 Q2048.72 222.166 2048.72 226.379 Q2048.72 231.402 2045.34 233.994 Q2041.98 236.587 2035.48 236.587 Q2033.02 236.587 2030.25 236.031 Q2027.49 235.476 2024.53 234.388 L2024.53 229.573 Q2027.37 231.17 2030.11 231.981 Q2032.84 232.791 2035.48 232.791 Q2039.48 232.791 2041.66 231.217 Q2043.83 229.643 2043.83 226.726 Q2043.83 224.18 2042.26 222.744 Q2040.71 221.309 2037.14 220.592 L2034.3 220.036 Q2029.06 218.995 2026.73 216.772 Q2024.39 214.55 2024.39 210.592 Q2024.39 206.008 2027.61 203.37 Q2030.85 200.731 2036.52 200.731 Q2038.95 200.731 2041.47 201.171 Q2044 201.61 2046.63 202.49 Z" fill="#000000" fill-rule="nonzero" fill-opacity="1" /><path clip-path="url(#clip860)" d="M2060.68 205.198 L2060.68 218.184 L2066.56 218.184 Q2069.83 218.184 2071.61 216.495 Q2073.39 214.805 2073.39 211.68 Q2073.39 208.578 2071.61 206.888 Q2069.83 205.198 2066.56 205.198 L2060.68 205.198 M2056.01 201.356 L2066.56 201.356 Q2072.37 201.356 2075.34 203.995 Q2078.32 206.61 2078.32 211.68 Q2078.32 216.795 2075.34 219.411 Q2072.37 222.027 2066.56 222.027 L2060.68 222.027 L2060.68 235.916 L2056.01 235.916 L2056.01 201.356 Z" fill="#000000" fill-rule="nonzero" fill-opacity="1" /><path clip-path="url(#clip860)" d="M2108.16 230.985 L2108.16 221.703 L2100.52 221.703 L2100.52 217.86 L2112.79 217.86 L2112.79 232.698 Q2110.08 234.619 2106.82 235.615 Q2103.55 236.587 2099.85 236.587 Q2091.75 236.587 2087.17 231.865 Q2082.61 227.119 2082.61 218.67 Q2082.61 210.198 2087.17 205.476 Q2091.75 200.731 2099.85 200.731 Q2103.23 200.731 2106.26 201.564 Q2109.32 202.397 2111.89 204.018 L2111.89 208.995 Q2109.3 206.796 2106.38 205.684 Q2103.46 204.573 2100.24 204.573 Q2093.9 204.573 2090.71 208.115 Q2087.54 211.657 2087.54 218.67 Q2087.54 225.661 2090.71 229.203 Q2093.9 232.744 2100.24 232.744 Q2102.72 232.744 2104.67 232.328 Q2106.61 231.888 2108.16 230.985 Z" fill="#000000" fill-rule="nonzero" fill-opacity="1" /><polyline clip-path="url(#clip860)" style="stroke:#e26f46; stroke-linecap:round; stroke-linejoin:round; stroke-width:4; stroke-opacity:1; fill:none" points="1769.07,270.476 1911.21,270.476 "/>
<path clip-path="url(#clip860)" d="M1934.9 253.196 L1939.57 253.196 L1939.57 283.821 L1956.4 283.821 L1956.4 287.756 L1934.9 287.756 L1934.9 253.196 Z" fill="#000000" fill-rule="nonzero" fill-opacity="1" /><path clip-path="url(#clip860)" d="M1961.31 253.196 L1968.28 253.196 L1977.1 276.714 L1985.96 253.196 L1992.93 253.196 L1992.93 287.756 L1988.37 287.756 L1988.37 257.409 L1979.46 281.112 L1974.76 281.112 L1965.85 257.409 L1965.85 287.756 L1961.31 287.756 L1961.31 253.196 Z" fill="#000000" fill-rule="nonzero" fill-opacity="1" /><path clip-path="url(#clip860)" d="M2021.73 295.626 L2021.73 298.936 L1997.1 298.936 L1997.1 295.626 L2021.73 295.626 Z" fill="#000000" fill-rule="nonzero" fill-opacity="1" /><path clip-path="url(#clip860)" d="M2037.47 257.802 L2031.12 275.001 L2043.83 275.001 L2037.47 257.802 M2034.83 253.196 L2040.13 253.196 L2053.3 287.756 L2048.44 287.756 L2045.29 278.89 L2029.71 278.89 L2026.56 287.756 L2021.63 287.756 L2034.83 253.196 Z" fill="#000000" fill-rule="nonzero" fill-opacity="1" /><path clip-path="url(#clip860)" d="M2079.71 272.108 L2079.71 287.756 L2075.45 287.756 L2075.45 272.247 Q2075.45 268.566 2074.02 266.737 Q2072.58 264.909 2069.71 264.909 Q2066.26 264.909 2064.27 267.108 Q2062.28 269.307 2062.28 273.103 L2062.28 287.756 L2058 287.756 L2058 261.83 L2062.28 261.83 L2062.28 265.858 Q2063.81 263.52 2065.87 262.362 Q2067.95 261.205 2070.66 261.205 Q2075.13 261.205 2077.42 263.983 Q2079.71 266.737 2079.71 272.108 Z" fill="#000000" fill-rule="nonzero" fill-opacity="1" /><path clip-path="url(#clip860)" d="M2105.27 265.765 L2105.27 251.737 L2109.53 251.737 L2109.53 287.756 L2105.27 287.756 L2105.27 283.867 Q2103.93 286.182 2101.87 287.316 Q2099.83 288.427 2096.96 288.427 Q2092.26 288.427 2089.3 284.677 Q2086.36 280.927 2086.36 274.816 Q2086.36 268.705 2089.3 264.955 Q2092.26 261.205 2096.96 261.205 Q2099.83 261.205 2101.87 262.339 Q2103.93 263.45 2105.27 265.765 M2090.75 274.816 Q2090.75 279.515 2092.68 282.2 Q2094.62 284.862 2098 284.862 Q2101.38 284.862 2103.32 282.2 Q2105.27 279.515 2105.27 274.816 Q2105.27 270.117 2103.32 267.455 Q2101.38 264.77 2098 264.77 Q2094.62 264.77 2092.68 267.455 Q2090.75 270.117 2090.75 274.816 Z" fill="#000000" fill-rule="nonzero" fill-opacity="1" /><path clip-path="url(#clip860)" d="M2133.32 265.811 Q2132.61 265.395 2131.75 265.21 Q2130.92 265.001 2129.9 265.001 Q2126.29 265.001 2124.34 267.362 Q2122.42 269.7 2122.42 274.098 L2122.42 287.756 L2118.14 287.756 L2118.14 261.83 L2122.42 261.83 L2122.42 265.858 Q2123.76 263.497 2125.92 262.362 Q2128.07 261.205 2131.15 261.205 Q2131.59 261.205 2132.12 261.274 Q2132.65 261.321 2133.3 261.436 L2133.32 265.811 Z" fill="#000000" fill-rule="nonzero" fill-opacity="1" /><path clip-path="url(#clip860)" d="M2158.93 273.728 L2158.93 275.811 L2139.34 275.811 Q2139.62 280.209 2141.98 282.524 Q2144.36 284.816 2148.6 284.816 Q2151.05 284.816 2153.35 284.214 Q2155.66 283.612 2157.93 282.409 L2157.93 286.436 Q2155.64 287.408 2153.23 287.918 Q2150.82 288.427 2148.35 288.427 Q2142.14 288.427 2138.51 284.816 Q2134.9 281.205 2134.9 275.047 Q2134.9 268.682 2138.32 264.955 Q2141.77 261.205 2147.61 261.205 Q2152.84 261.205 2155.87 264.585 Q2158.93 267.941 2158.93 273.728 M2154.67 272.478 Q2154.62 268.983 2152.7 266.899 Q2150.8 264.816 2147.65 264.816 Q2144.09 264.816 2141.93 266.83 Q2139.8 268.844 2139.48 272.501 L2154.67 272.478 Z" fill="#000000" fill-rule="nonzero" fill-opacity="1" /><path clip-path="url(#clip860)" d="M2165.92 261.83 L2170.17 261.83 L2170.17 287.756 L2165.92 287.756 L2165.92 261.83 M2165.92 251.737 L2170.17 251.737 L2170.17 257.131 L2165.92 257.131 L2165.92 251.737 Z" fill="#000000" fill-rule="nonzero" fill-opacity="1" /><path clip-path="url(#clip860)" d="M2198.79 295.626 L2198.79 298.936 L2174.16 298.936 L2174.16 295.626 L2198.79 295.626 Z" fill="#000000" fill-rule="nonzero" fill-opacity="1" /><path clip-path="url(#clip860)" d="M2214.57 274.723 Q2209.41 274.723 2207.42 275.904 Q2205.43 277.084 2205.43 279.932 Q2205.43 282.2 2206.91 283.543 Q2208.42 284.862 2210.98 284.862 Q2214.53 284.862 2216.66 282.362 Q2218.81 279.839 2218.81 275.672 L2218.81 274.723 L2214.57 274.723 M2223.07 272.964 L2223.07 287.756 L2218.81 287.756 L2218.81 283.821 Q2217.35 286.182 2215.17 287.316 Q2213 288.427 2209.85 288.427 Q2205.87 288.427 2203.51 286.205 Q2201.17 283.959 2201.17 280.209 Q2201.17 275.834 2204.09 273.612 Q2207.03 271.39 2212.84 271.39 L2218.81 271.39 L2218.81 270.973 Q2218.81 268.034 2216.86 266.436 Q2214.94 264.816 2211.45 264.816 Q2209.23 264.816 2207.12 265.348 Q2205.01 265.881 2203.07 266.946 L2203.07 263.01 Q2205.41 262.108 2207.61 261.668 Q2209.8 261.205 2211.89 261.205 Q2217.51 261.205 2220.29 264.122 Q2223.07 267.038 2223.07 272.964 Z" fill="#000000" fill-rule="nonzero" fill-opacity="1" /><path clip-path="url(#clip860)" d="M2231.84 251.737 L2236.1 251.737 L2236.1 287.756 L2231.84 287.756 L2231.84 251.737 Z" fill="#000000" fill-rule="nonzero" fill-opacity="1" /><path clip-path="url(#clip860)" d="M2249.23 254.469 L2249.23 261.83 L2258 261.83 L2258 265.14 L2249.23 265.14 L2249.23 279.214 Q2249.23 282.385 2250.08 283.288 Q2250.96 284.191 2253.62 284.191 L2258 284.191 L2258 287.756 L2253.62 287.756 Q2248.69 287.756 2246.82 285.927 Q2244.94 284.075 2244.94 279.214 L2244.94 265.14 L2241.82 265.14 L2241.82 261.83 L2244.94 261.83 L2244.94 254.469 L2249.23 254.469 Z" fill="#000000" fill-rule="nonzero" fill-opacity="1" /><polyline clip-path="url(#clip860)" style="stroke:#3da44d; stroke-linecap:round; stroke-linejoin:round; stroke-width:4; stroke-opacity:1; fill:none" points="1769.07,322.316 1911.21,322.316 "/>
<path clip-path="url(#clip860)" d="M1934.9 305.036 L1939.57 305.036 L1939.57 335.661 L1956.4 335.661 L1956.4 339.596 L1934.9 339.596 L1934.9 305.036 Z" fill="#000000" fill-rule="nonzero" fill-opacity="1" /><path clip-path="url(#clip860)" d="M1961.31 305.036 L1968.28 305.036 L1977.1 328.554 L1985.96 305.036 L1992.93 305.036 L1992.93 339.596 L1988.37 339.596 L1988.37 309.249 L1979.46 332.952 L1974.76 332.952 L1965.85 309.249 L1965.85 339.596 L1961.31 339.596 L1961.31 305.036 Z" fill="#000000" fill-rule="nonzero" fill-opacity="1" /><path clip-path="url(#clip860)" d="M2021.73 347.466 L2021.73 350.776 L1997.1 350.776 L1997.1 347.466 L2021.73 347.466 Z" fill="#000000" fill-rule="nonzero" fill-opacity="1" /><path clip-path="url(#clip860)" d="M2037.47 309.642 L2031.12 326.841 L2043.83 326.841 L2037.47 309.642 M2034.83 305.036 L2040.13 305.036 L2053.3 339.596 L2048.44 339.596 L2045.29 330.73 L2029.71 330.73 L2026.56 339.596 L2021.63 339.596 L2034.83 305.036 Z" fill="#000000" fill-rule="nonzero" fill-opacity="1" /><path clip-path="url(#clip860)" d="M2079.71 323.948 L2079.71 339.596 L2075.45 339.596 L2075.45 324.087 Q2075.45 320.406 2074.02 318.577 Q2072.58 316.749 2069.71 316.749 Q2066.26 316.749 2064.27 318.948 Q2062.28 321.147 2062.28 324.943 L2062.28 339.596 L2058 339.596 L2058 313.67 L2062.28 313.67 L2062.28 317.698 Q2063.81 315.36 2065.87 314.202 Q2067.95 313.045 2070.66 313.045 Q2075.13 313.045 2077.42 315.823 Q2079.71 318.577 2079.71 323.948 Z" fill="#000000" fill-rule="nonzero" fill-opacity="1" /><path clip-path="url(#clip860)" d="M2105.27 317.605 L2105.27 303.577 L2109.53 303.577 L2109.53 339.596 L2105.27 339.596 L2105.27 335.707 Q2103.93 338.022 2101.87 339.156 Q2099.83 340.267 2096.96 340.267 Q2092.26 340.267 2089.3 336.517 Q2086.36 332.767 2086.36 326.656 Q2086.36 320.545 2089.3 316.795 Q2092.26 313.045 2096.96 313.045 Q2099.83 313.045 2101.87 314.179 Q2103.93 315.29 2105.27 317.605 M2090.75 326.656 Q2090.75 331.355 2092.68 334.04 Q2094.62 336.702 2098 336.702 Q2101.38 336.702 2103.32 334.04 Q2105.27 331.355 2105.27 326.656 Q2105.27 321.957 2103.32 319.295 Q2101.38 316.61 2098 316.61 Q2094.62 316.61 2092.68 319.295 Q2090.75 321.957 2090.75 326.656 Z" fill="#000000" fill-rule="nonzero" fill-opacity="1" /><path clip-path="url(#clip860)" d="M2133.32 317.651 Q2132.61 317.235 2131.75 317.05 Q2130.92 316.841 2129.9 316.841 Q2126.29 316.841 2124.34 319.202 Q2122.42 321.54 2122.42 325.938 L2122.42 339.596 L2118.14 339.596 L2118.14 313.67 L2122.42 313.67 L2122.42 317.698 Q2123.76 315.337 2125.92 314.202 Q2128.07 313.045 2131.15 313.045 Q2131.59 313.045 2132.12 313.114 Q2132.65 313.161 2133.3 313.276 L2133.32 317.651 Z" fill="#000000" fill-rule="nonzero" fill-opacity="1" /><path clip-path="url(#clip860)" d="M2158.93 325.568 L2158.93 327.651 L2139.34 327.651 Q2139.62 332.049 2141.98 334.364 Q2144.36 336.656 2148.6 336.656 Q2151.05 336.656 2153.35 336.054 Q2155.66 335.452 2157.93 334.249 L2157.93 338.276 Q2155.64 339.248 2153.23 339.758 Q2150.82 340.267 2148.35 340.267 Q2142.14 340.267 2138.51 336.656 Q2134.9 333.045 2134.9 326.887 Q2134.9 320.522 2138.32 316.795 Q2141.77 313.045 2147.61 313.045 Q2152.84 313.045 2155.87 316.425 Q2158.93 319.781 2158.93 325.568 M2154.67 324.318 Q2154.62 320.823 2152.7 318.739 Q2150.8 316.656 2147.65 316.656 Q2144.09 316.656 2141.93 318.67 Q2139.8 320.684 2139.48 324.341 L2154.67 324.318 Z" fill="#000000" fill-rule="nonzero" fill-opacity="1" /><path clip-path="url(#clip860)" d="M2165.92 313.67 L2170.17 313.67 L2170.17 339.596 L2165.92 339.596 L2165.92 313.67 M2165.92 303.577 L2170.17 303.577 L2170.17 308.971 L2165.92 308.971 L2165.92 303.577 Z" fill="#000000" fill-rule="nonzero" fill-opacity="1" /><polyline clip-path="url(#clip860)" style="stroke:#c271d2; stroke-linecap:round; stroke-linejoin:round; stroke-width:4; stroke-opacity:1; fill:none" points="1769.07,374.156 1911.21,374.156 "/>
<path clip-path="url(#clip860)" d="M1934.9 356.876 L1939.57 356.876 L1939.57 387.501 L1956.4 387.501 L1956.4 391.436 L1934.9 391.436 L1934.9 356.876 Z" fill="#000000" fill-rule="nonzero" fill-opacity="1" /><path clip-path="url(#clip860)" d="M1961.31 356.876 L1968.28 356.876 L1977.1 380.394 L1985.96 356.876 L1992.93 356.876 L1992.93 391.436 L1988.37 391.436 L1988.37 361.089 L1979.46 384.792 L1974.76 384.792 L1965.85 361.089 L1965.85 391.436 L1961.31 391.436 L1961.31 356.876 Z" fill="#000000" fill-rule="nonzero" fill-opacity="1" /><path clip-path="url(#clip860)" d="M2021.73 399.306 L2021.73 402.616 L1997.1 402.616 L1997.1 399.306 L2021.73 399.306 Z" fill="#000000" fill-rule="nonzero" fill-opacity="1" /><path clip-path="url(#clip860)" d="M2046.63 358.01 L2046.63 362.57 Q2043.97 361.297 2041.61 360.672 Q2039.25 360.047 2037.05 360.047 Q2033.23 360.047 2031.15 361.528 Q2029.09 363.01 2029.09 365.741 Q2029.09 368.033 2030.45 369.214 Q2031.84 370.371 2035.68 371.089 L2038.51 371.667 Q2043.74 372.663 2046.22 375.186 Q2048.72 377.686 2048.72 381.899 Q2048.72 386.922 2045.34 389.514 Q2041.98 392.107 2035.48 392.107 Q2033.02 392.107 2030.25 391.551 Q2027.49 390.996 2024.53 389.908 L2024.53 385.093 Q2027.37 386.69 2030.11 387.501 Q2032.84 388.311 2035.48 388.311 Q2039.48 388.311 2041.66 386.737 Q2043.83 385.163 2043.83 382.246 Q2043.83 379.7 2042.26 378.264 Q2040.71 376.829 2037.14 376.112 L2034.3 375.556 Q2029.06 374.515 2026.73 372.292 Q2024.39 370.07 2024.39 366.112 Q2024.39 361.528 2027.61 358.89 Q2030.85 356.251 2036.52 356.251 Q2038.95 356.251 2041.47 356.691 Q2044 357.13 2046.63 358.01 Z" fill="#000000" fill-rule="nonzero" fill-opacity="1" /><path clip-path="url(#clip860)" d="M2060.68 360.718 L2060.68 373.704 L2066.56 373.704 Q2069.83 373.704 2071.61 372.015 Q2073.39 370.325 2073.39 367.2 Q2073.39 364.098 2071.61 362.408 Q2069.83 360.718 2066.56 360.718 L2060.68 360.718 M2056.01 356.876 L2066.56 356.876 Q2072.37 356.876 2075.34 359.515 Q2078.32 362.13 2078.32 367.2 Q2078.32 372.315 2075.34 374.931 Q2072.37 377.547 2066.56 377.547 L2060.68 377.547 L2060.68 391.436 L2056.01 391.436 L2056.01 356.876 Z" fill="#000000" fill-rule="nonzero" fill-opacity="1" /><path clip-path="url(#clip860)" d="M2108.16 386.505 L2108.16 377.223 L2100.52 377.223 L2100.52 373.38 L2112.79 373.38 L2112.79 388.218 Q2110.08 390.139 2106.82 391.135 Q2103.55 392.107 2099.85 392.107 Q2091.75 392.107 2087.17 387.385 Q2082.61 382.639 2082.61 374.19 Q2082.61 365.718 2087.17 360.996 Q2091.75 356.251 2099.85 356.251 Q2103.23 356.251 2106.26 357.084 Q2109.32 357.917 2111.89 359.538 L2111.89 364.515 Q2109.3 362.316 2106.38 361.204 Q2103.46 360.093 2100.24 360.093 Q2093.9 360.093 2090.71 363.635 Q2087.54 367.177 2087.54 374.19 Q2087.54 381.181 2090.71 384.723 Q2093.9 388.264 2100.24 388.264 Q2102.72 388.264 2104.67 387.848 Q2106.61 387.408 2108.16 386.505 Z" fill="#000000" fill-rule="nonzero" fill-opacity="1" /><path clip-path="url(#clip860)" d="M2140.85 399.306 L2140.85 402.616 L2116.22 402.616 L2116.22 399.306 L2140.85 399.306 Z" fill="#000000" fill-rule="nonzero" fill-opacity="1" /><path clip-path="url(#clip860)" d="M2156.63 378.403 Q2151.47 378.403 2149.48 379.584 Q2147.49 380.764 2147.49 383.612 Q2147.49 385.88 2148.97 387.223 Q2150.48 388.542 2153.05 388.542 Q2156.59 388.542 2158.72 386.042 Q2160.87 383.519 2160.87 379.352 L2160.87 378.403 L2156.63 378.403 M2165.13 376.644 L2165.13 391.436 L2160.87 391.436 L2160.87 387.501 Q2159.41 389.862 2157.24 390.996 Q2155.06 392.107 2151.91 392.107 Q2147.93 392.107 2145.57 389.885 Q2143.23 387.639 2143.23 383.889 Q2143.23 379.514 2146.15 377.292 Q2149.09 375.07 2154.9 375.07 L2160.87 375.07 L2160.87 374.653 Q2160.87 371.714 2158.93 370.116 Q2157 368.496 2153.51 368.496 Q2151.29 368.496 2149.18 369.028 Q2147.07 369.561 2145.13 370.626 L2145.13 366.69 Q2147.47 365.788 2149.67 365.348 Q2151.86 364.885 2153.95 364.885 Q2159.57 364.885 2162.35 367.802 Q2165.13 370.718 2165.13 376.644 Z" fill="#000000" fill-rule="nonzero" fill-opacity="1" /><path clip-path="url(#clip860)" d="M2173.9 355.417 L2178.16 355.417 L2178.16 391.436 L2173.9 391.436 L2173.9 355.417 Z" fill="#000000" fill-rule="nonzero" fill-opacity="1" /><path clip-path="url(#clip860)" d="M2191.29 358.149 L2191.29 365.51 L2200.06 365.51 L2200.06 368.82 L2191.29 368.82 L2191.29 382.894 Q2191.29 386.065 2192.14 386.968 Q2193.02 387.871 2195.68 387.871 L2200.06 387.871 L2200.06 391.436 L2195.68 391.436 Q2190.75 391.436 2188.88 389.607 Q2187 387.755 2187 382.894 L2187 368.82 L2183.88 368.82 L2183.88 365.51 L2187 365.51 L2187 358.149 L2191.29 358.149 Z" fill="#000000" fill-rule="nonzero" fill-opacity="1" /><polyline clip-path="url(#clip860)" style="stroke:#ac8d18; stroke-linecap:round; stroke-linejoin:round; stroke-width:4; stroke-opacity:1; fill:none" points="1769.07,425.996 1911.21,425.996 "/>
<path clip-path="url(#clip860)" d="M1934.9 408.716 L1939.57 408.716 L1939.57 439.341 L1956.4 439.341 L1956.4 443.276 L1934.9 443.276 L1934.9 408.716 Z" fill="#000000" fill-rule="nonzero" fill-opacity="1" /><path clip-path="url(#clip860)" d="M1961.31 408.716 L1968.28 408.716 L1977.1 432.234 L1985.96 408.716 L1992.93 408.716 L1992.93 443.276 L1988.37 443.276 L1988.37 412.929 L1979.46 436.632 L1974.76 436.632 L1965.85 412.929 L1965.85 443.276 L1961.31 443.276 L1961.31 408.716 Z" fill="#000000" fill-rule="nonzero" fill-opacity="1" /><path clip-path="url(#clip860)" d="M2021.73 451.146 L2021.73 454.456 L1997.1 454.456 L1997.1 451.146 L2021.73 451.146 Z" fill="#000000" fill-rule="nonzero" fill-opacity="1" /><path clip-path="url(#clip860)" d="M2029.94 409.989 L2029.94 417.35 L2038.72 417.35 L2038.72 420.66 L2029.94 420.66 L2029.94 434.734 Q2029.94 437.905 2030.8 438.808 Q2031.68 439.711 2034.34 439.711 L2038.72 439.711 L2038.72 443.276 L2034.34 443.276 Q2029.41 443.276 2027.54 441.447 Q2025.66 439.595 2025.66 434.734 L2025.66 420.66 L2022.54 420.66 L2022.54 417.35 L2025.66 417.35 L2025.66 409.989 L2029.94 409.989 Z" fill="#000000" fill-rule="nonzero" fill-opacity="1" /><path clip-path="url(#clip860)" d="M2066.49 429.248 L2066.49 431.331 L2046.91 431.331 Q2047.19 435.729 2049.55 438.044 Q2051.93 440.336 2056.17 440.336 Q2058.62 440.336 2060.92 439.734 Q2063.23 439.132 2065.5 437.929 L2065.5 441.956 Q2063.21 442.928 2060.8 443.438 Q2058.39 443.947 2055.92 443.947 Q2049.71 443.947 2046.08 440.336 Q2042.47 436.725 2042.47 430.567 Q2042.47 424.202 2045.89 420.475 Q2049.34 416.725 2055.18 416.725 Q2060.41 416.725 2063.44 420.105 Q2066.49 423.461 2066.49 429.248 M2062.24 427.998 Q2062.19 424.503 2060.27 422.419 Q2058.37 420.336 2055.22 420.336 Q2051.66 420.336 2049.5 422.35 Q2047.37 424.364 2047.05 428.021 L2062.24 427.998 Z" fill="#000000" fill-rule="nonzero" fill-opacity="1" /><path clip-path="url(#clip860)" d="M2090.01 418.114 L2090.01 422.142 Q2088.21 421.216 2086.26 420.753 Q2084.32 420.29 2082.24 420.29 Q2079.06 420.29 2077.47 421.262 Q2075.89 422.234 2075.89 424.179 Q2075.89 425.66 2077.03 426.517 Q2078.16 427.35 2081.59 428.114 L2083.05 428.438 Q2087.58 429.41 2089.48 431.192 Q2091.4 432.952 2091.4 436.123 Q2091.4 439.734 2088.53 441.841 Q2085.68 443.947 2080.68 443.947 Q2078.6 443.947 2076.33 443.53 Q2074.09 443.137 2071.59 442.327 L2071.59 437.929 Q2073.95 439.155 2076.24 439.78 Q2078.53 440.382 2080.78 440.382 Q2083.79 440.382 2085.41 439.364 Q2087.03 438.322 2087.03 436.447 Q2087.03 434.711 2085.85 433.785 Q2084.69 432.859 2080.73 432.003 L2079.25 431.655 Q2075.29 430.822 2073.53 429.109 Q2071.77 427.373 2071.77 424.364 Q2071.77 420.706 2074.37 418.716 Q2076.96 416.725 2081.73 416.725 Q2084.09 416.725 2086.17 417.072 Q2088.25 417.419 2090.01 418.114 Z" fill="#000000" fill-rule="nonzero" fill-opacity="1" /><path clip-path="url(#clip860)" d="M2102.4 409.989 L2102.4 417.35 L2111.17 417.35 L2111.17 420.66 L2102.4 420.66 L2102.4 434.734 Q2102.4 437.905 2103.25 438.808 Q2104.13 439.711 2106.8 439.711 L2111.17 439.711 L2111.17 443.276 L2106.8 443.276 Q2101.87 443.276 2099.99 441.447 Q2098.12 439.595 2098.12 434.734 L2098.12 420.66 L2094.99 420.66 L2094.99 417.35 L2098.12 417.35 L2098.12 409.989 L2102.4 409.989 Z" fill="#000000" fill-rule="nonzero" fill-opacity="1" /></svg>
