<?xml version="1.0" encoding="utf-8"?>
<svg xmlns="http://www.w3.org/2000/svg" xmlns:xlink="http://www.w3.org/1999/xlink" width="600" height="400" viewBox="0 0 2400 1600">
<defs>
  <clipPath id="clip700">
    <rect x="0" y="0" width="2400" height="1600"/>
  </clipPath>
</defs>
<path clip-path="url(#clip700)" d="M0 1600 L2400 1600 L2400 0 L0 0  Z" fill="#ffffff" fill-rule="evenodd" fill-opacity="1"/>
<defs>
  <clipPath id="clip701">
    <rect x="480" y="0" width="1681" height="1600"/>
  </clipPath>
</defs>
<path clip-path="url(#clip700)" d="M251.56 1423.18 L2352.76 1423.18 L2352.76 123.472 L251.56 123.472  Z" fill="#ffffff" fill-rule="evenodd" fill-opacity="1"/>
<defs>
  <clipPath id="clip702">
    <rect x="251" y="123" width="2102" height="1301"/>
  </clipPath>
</defs>
<polyline clip-path="url(#clip702)" style="stroke:#000000; stroke-linecap:round; stroke-linejoin:round; stroke-width:2; stroke-opacity:0.1; fill:none" points="509.254,1423.18 509.254,123.472 "/>
<polyline clip-path="url(#clip702)" style="stroke:#000000; stroke-linecap:round; stroke-linejoin:round; stroke-width:2; stroke-opacity:0.1; fill:none" points="905.706,1423.18 905.706,123.472 "/>
<polyline clip-path="url(#clip702)" style="stroke:#000000; stroke-linecap:round; stroke-linejoin:round; stroke-width:2; stroke-opacity:0.1; fill:none" points="1302.16,1423.18 1302.16,123.472 "/>
<polyline clip-path="url(#clip702)" style="stroke:#000000; stroke-linecap:round; stroke-linejoin:round; stroke-width:2; stroke-opacity:0.1; fill:none" points="1698.61,1423.18 1698.61,123.472 "/>
<polyline clip-path="url(#clip702)" style="stroke:#000000; stroke-linecap:round; stroke-linejoin:round; stroke-width:2; stroke-opacity:0.1; fill:none" points="2095.06,1423.18 2095.06,123.472 "/>
<polyline clip-path="url(#clip700)" style="stroke:#000000; stroke-linecap:round; stroke-linejoin:round; stroke-width:4; stroke-opacity:1; fill:none" points="251.56,1423.18 2352.76,1423.18 "/>
<polyline clip-path="url(#clip700)" style="stroke:#000000; stroke-linecap:round; stroke-linejoin:round; stroke-width:4; stroke-opacity:1; fill:none" points="509.254,1423.18 509.254,1404.28 "/>
<polyline clip-path="url(#clip700)" style="stroke:#000000; stroke-linecap:round; stroke-linejoin:round; stroke-width:4; stroke-opacity:1; fill:none" points="905.706,1423.18 905.706,1404.28 "/>
<polyline clip-path="url(#clip700)" style="stroke:#000000; stroke-linecap:round; stroke-linejoin:round; stroke-width:4; stroke-opacity:1; fill:none" points="1302.16,1423.18 1302.16,1404.28 "/>
<polyline clip-path="url(#clip700)" style="stroke:#000000; stroke-linecap:round; stroke-linejoin:round; stroke-width:4; stroke-opacity:1; fill:none" points="1698.61,1423.18 1698.61,1404.28 "/>
<polyline clip-path="url(#clip700)" style="stroke:#000000; stroke-linecap:round; stroke-linejoin:round; stroke-width:4; stroke-opacity:1; fill:none" points="2095.06,1423.18 2095.06,1404.28 "/>
<path clip-path="url(#clip700)" d="M503.907 1481.64 L520.226 1481.64 L520.226 1485.58 L498.282 1485.58 L498.282 1481.64 Q500.944 1478.89 505.527 1474.26 Q510.134 1469.61 511.314 1468.27 Q513.56 1465.74 514.439 1464.01 Q515.342 1462.25 515.342 1460.56 Q515.342 1457.8 513.398 1456.07 Q511.476 1454.33 508.374 1454.33 Q506.175 1454.33 503.722 1455.09 Q501.291 1455.86 498.513 1457.41 L498.513 1452.69 Q501.337 1451.55 503.791 1450.97 Q506.245 1450.39 508.282 1450.39 Q513.652 1450.39 516.847 1453.08 Q520.041 1455.77 520.041 1460.26 Q520.041 1462.39 519.231 1464.31 Q518.444 1466.2 516.337 1468.8 Q515.759 1469.47 512.657 1472.69 Q509.555 1475.88 503.907 1481.64 Z" fill="#000000" fill-rule="nonzero" fill-opacity="1" /><path clip-path="url(#clip700)" d="M908.715 1455.09 L896.91 1473.54 L908.715 1473.54 L908.715 1455.09 M907.488 1451.02 L913.368 1451.02 L913.368 1473.54 L918.299 1473.54 L918.299 1477.43 L913.368 1477.43 L913.368 1485.58 L908.715 1485.58 L908.715 1477.43 L893.114 1477.43 L893.114 1472.92 L907.488 1451.02 Z" fill="#000000" fill-rule="nonzero" fill-opacity="1" /><path clip-path="url(#clip700)" d="M1302.56 1466.44 Q1299.42 1466.44 1297.56 1468.59 Q1295.73 1470.74 1295.73 1474.49 Q1295.73 1478.22 1297.56 1480.39 Q1299.42 1482.55 1302.56 1482.55 Q1305.71 1482.55 1307.54 1480.39 Q1309.39 1478.22 1309.39 1474.49 Q1309.39 1470.74 1307.54 1468.59 Q1305.71 1466.44 1302.56 1466.44 M1311.85 1451.78 L1311.85 1456.04 Q1310.09 1455.21 1308.28 1454.77 Q1306.5 1454.33 1304.74 1454.33 Q1300.11 1454.33 1297.66 1457.45 Q1295.23 1460.58 1294.88 1466.9 Q1296.24 1464.89 1298.3 1463.82 Q1300.36 1462.73 1302.84 1462.73 Q1308.05 1462.73 1311.06 1465.9 Q1314.09 1469.05 1314.09 1474.49 Q1314.09 1479.82 1310.94 1483.03 Q1307.79 1486.25 1302.56 1486.25 Q1296.57 1486.25 1293.4 1481.67 Q1290.23 1477.06 1290.23 1468.33 Q1290.23 1460.14 1294.11 1455.28 Q1298 1450.39 1304.55 1450.39 Q1306.31 1450.39 1308.1 1450.74 Q1309.9 1451.09 1311.85 1451.78 Z" fill="#000000" fill-rule="nonzero" fill-opacity="1" /><path clip-path="url(#clip700)" d="M1698.61 1469.17 Q1695.28 1469.17 1693.36 1470.95 Q1691.46 1472.73 1691.46 1475.86 Q1691.46 1478.98 1693.36 1480.77 Q1695.28 1482.55 1698.61 1482.55 Q1701.94 1482.55 1703.86 1480.77 Q1705.79 1478.96 1705.79 1475.86 Q1705.79 1472.73 1703.86 1470.95 Q1701.97 1469.17 1698.61 1469.17 M1693.93 1467.18 Q1690.92 1466.44 1689.24 1464.38 Q1687.57 1462.32 1687.57 1459.35 Q1687.57 1455.21 1690.51 1452.8 Q1693.47 1450.39 1698.61 1450.39 Q1703.77 1450.39 1706.71 1452.8 Q1709.65 1455.21 1709.65 1459.35 Q1709.65 1462.32 1707.96 1464.38 Q1706.3 1466.44 1703.31 1467.18 Q1706.69 1467.96 1708.56 1470.26 Q1710.46 1472.55 1710.46 1475.86 Q1710.46 1480.88 1707.38 1483.57 Q1704.33 1486.25 1698.61 1486.25 Q1692.89 1486.25 1689.81 1483.57 Q1686.76 1480.88 1686.76 1475.86 Q1686.76 1472.55 1688.66 1470.26 Q1690.55 1467.96 1693.93 1467.18 M1692.22 1459.79 Q1692.22 1462.48 1693.89 1463.98 Q1695.58 1465.49 1698.61 1465.49 Q1701.62 1465.49 1703.31 1463.98 Q1705.02 1462.48 1705.02 1459.79 Q1705.02 1457.11 1703.31 1455.6 Q1701.62 1454.1 1698.61 1454.1 Q1695.58 1454.1 1693.89 1455.6 Q1692.22 1457.11 1692.22 1459.79 Z" fill="#000000" fill-rule="nonzero" fill-opacity="1" /><path clip-path="url(#clip700)" d="M2069.75 1481.64 L2077.39 1481.64 L2077.39 1455.28 L2069.08 1456.95 L2069.08 1452.69 L2077.34 1451.02 L2082.02 1451.02 L2082.02 1481.64 L2089.66 1481.64 L2089.66 1485.58 L2069.75 1485.58 L2069.75 1481.64 Z" fill="#000000" fill-rule="nonzero" fill-opacity="1" /><path clip-path="url(#clip700)" d="M2109.1 1454.1 Q2105.49 1454.1 2103.66 1457.66 Q2101.86 1461.2 2101.86 1468.33 Q2101.86 1475.44 2103.66 1479.01 Q2105.49 1482.55 2109.1 1482.55 Q2112.74 1482.55 2114.54 1479.01 Q2116.37 1475.44 2116.37 1468.33 Q2116.37 1461.2 2114.54 1457.66 Q2112.74 1454.1 2109.1 1454.1 M2109.1 1450.39 Q2114.91 1450.39 2117.97 1455 Q2121.05 1459.58 2121.05 1468.33 Q2121.05 1477.06 2117.97 1481.67 Q2114.91 1486.25 2109.1 1486.25 Q2103.29 1486.25 2100.21 1481.67 Q2097.16 1477.06 2097.16 1468.33 Q2097.16 1459.58 2100.21 1455 Q2103.29 1450.39 2109.1 1450.39 Z" fill="#000000" fill-rule="nonzero" fill-opacity="1" /><path clip-path="url(#clip700)" d="M1286.34 1518.52 L1292.23 1518.52 L1292.23 1547.77 L1309.7 1532.4 L1317.18 1532.4 L1298.27 1549.07 L1317.98 1568.04 L1310.34 1568.04 L1292.23 1550.63 L1292.23 1568.04 L1286.34 1568.04 L1286.34 1518.52 Z" fill="#000000" fill-rule="nonzero" fill-opacity="1" /><polyline clip-path="url(#clip702)" style="stroke:#000000; stroke-linecap:round; stroke-linejoin:round; stroke-width:2; stroke-opacity:0.1; fill:none" points="251.56,1026.77 2352.76,1026.77 "/>
<polyline clip-path="url(#clip702)" style="stroke:#000000; stroke-linecap:round; stroke-linejoin:round; stroke-width:2; stroke-opacity:0.1; fill:none" points="251.56,336.667 2352.76,336.667 "/>
<polyline clip-path="url(#clip700)" style="stroke:#000000; stroke-linecap:round; stroke-linejoin:round; stroke-width:4; stroke-opacity:1; fill:none" points="251.56,1423.18 251.56,123.472 "/>
<polyline clip-path="url(#clip700)" style="stroke:#000000; stroke-linecap:round; stroke-linejoin:round; stroke-width:4; stroke-opacity:1; fill:none" points="251.56,1026.77 270.458,1026.77 "/>
<polyline clip-path="url(#clip700)" style="stroke:#000000; stroke-linecap:round; stroke-linejoin:round; stroke-width:4; stroke-opacity:1; fill:none" points="251.56,336.667 270.458,336.667 "/>
<path clip-path="url(#clip700)" d="M114.931 1046.56 L122.57 1046.56 L122.57 1020.2 L114.26 1021.86 L114.26 1017.6 L122.524 1015.94 L127.2 1015.94 L127.2 1046.56 L134.839 1046.56 L134.839 1050.5 L114.931 1050.5 L114.931 1046.56 Z" fill="#000000" fill-rule="nonzero" fill-opacity="1" /><path clip-path="url(#clip700)" d="M154.283 1019.02 Q150.672 1019.02 148.843 1022.58 Q147.038 1026.12 147.038 1033.25 Q147.038 1040.36 148.843 1043.92 Q150.672 1047.46 154.283 1047.46 Q157.917 1047.46 159.723 1043.92 Q161.552 1040.36 161.552 1033.25 Q161.552 1026.12 159.723 1022.58 Q157.917 1019.02 154.283 1019.02 M154.283 1015.31 Q160.093 1015.31 163.149 1019.92 Q166.227 1024.5 166.227 1033.25 Q166.227 1041.98 163.149 1046.58 Q160.093 1051.17 154.283 1051.17 Q148.473 1051.17 145.394 1046.58 Q142.339 1041.98 142.339 1033.25 Q142.339 1024.5 145.394 1019.92 Q148.473 1015.31 154.283 1015.31 Z" fill="#000000" fill-rule="nonzero" fill-opacity="1" /><path clip-path="url(#clip700)" d="M166.227 1009.41 L190.339 1009.41 L190.339 1012.61 L166.227 1012.61 L166.227 1009.41 Z" fill="#000000" fill-rule="nonzero" fill-opacity="1" /><path clip-path="url(#clip700)" d="M198.577 995.006 L213.491 995.006 L213.491 998.204 L202.056 998.204 L202.056 1005.09 Q202.884 1004.81 203.711 1004.67 Q204.539 1004.52 205.366 1004.52 Q210.068 1004.52 212.814 1007.1 Q215.56 1009.68 215.56 1014.08 Q215.56 1018.61 212.739 1021.13 Q209.918 1023.63 204.783 1023.63 Q203.015 1023.63 201.172 1023.33 Q199.348 1023.03 197.392 1022.43 L197.392 1018.61 Q199.085 1019.53 200.89 1019.98 Q202.696 1020.43 204.708 1020.43 Q207.962 1020.43 209.861 1018.72 Q211.761 1017.01 211.761 1014.08 Q211.761 1011.14 209.861 1009.43 Q207.962 1007.72 204.708 1007.72 Q203.185 1007.72 201.661 1008.06 Q200.157 1008.4 198.577 1009.11 L198.577 995.006 Z" fill="#000000" fill-rule="nonzero" fill-opacity="1" /><path clip-path="url(#clip700)" d="M144.855 356.46 L152.493 356.46 L152.493 330.094 L144.183 331.761 L144.183 327.502 L152.447 325.835 L157.123 325.835 L157.123 356.46 L164.762 356.46 L164.762 360.395 L144.855 360.395 L144.855 356.46 Z" fill="#000000" fill-rule="nonzero" fill-opacity="1" /><path clip-path="url(#clip700)" d="M184.206 328.914 Q180.595 328.914 178.766 332.478 Q176.961 336.02 176.961 343.15 Q176.961 350.256 178.766 353.821 Q180.595 357.362 184.206 357.362 Q187.84 357.362 189.646 353.821 Q191.475 350.256 191.475 343.15 Q191.475 336.02 189.646 332.478 Q187.84 328.914 184.206 328.914 M184.206 325.21 Q190.016 325.21 193.072 329.816 Q196.151 334.4 196.151 343.15 Q196.151 351.876 193.072 356.483 Q190.016 361.066 184.206 361.066 Q178.396 361.066 175.317 356.483 Q172.262 351.876 172.262 343.15 Q172.262 334.4 175.317 329.816 Q178.396 325.21 184.206 325.21 Z" fill="#000000" fill-rule="nonzero" fill-opacity="1" /><path clip-path="url(#clip700)" d="M205.855 307.406 Q202.921 307.406 201.436 310.302 Q199.969 313.18 199.969 318.973 Q199.969 324.747 201.436 327.643 Q202.921 330.521 205.855 330.521 Q208.808 330.521 210.275 327.643 Q211.761 324.747 211.761 318.973 Q211.761 313.18 210.275 310.302 Q208.808 307.406 205.855 307.406 M205.855 304.397 Q210.576 304.397 213.059 308.139 Q215.56 311.863 215.56 318.973 Q215.56 326.063 213.059 329.806 Q210.576 333.53 205.855 333.53 Q201.135 333.53 198.633 329.806 Q196.151 326.063 196.151 318.973 Q196.151 311.863 198.633 308.139 Q201.135 304.397 205.855 304.397 Z" fill="#000000" fill-rule="nonzero" fill-opacity="1" /><path clip-path="url(#clip700)" d="M32.4621 801.797 Q32.4621 806.507 36.1542 809.244 Q39.8145 811.982 46.212 811.982 Q52.6095 811.982 56.3017 809.276 Q59.9619 806.539 59.9619 801.797 Q59.9619 797.118 56.2698 794.381 Q52.5777 791.643 46.212 791.643 Q39.8781 791.643 36.186 794.381 Q32.4621 797.118 32.4621 801.797 M27.4968 801.797 Q27.4968 794.158 32.4621 789.797 Q37.4273 785.437 46.212 785.437 Q54.9649 785.437 59.9619 789.797 Q64.9272 794.158 64.9272 801.797 Q64.9272 809.467 59.9619 813.828 Q54.9649 818.156 46.212 818.156 Q37.4273 818.156 32.4621 813.828 Q27.4968 809.467 27.4968 801.797 Z" fill="#000000" fill-rule="nonzero" fill-opacity="1" /><path clip-path="url(#clip700)" d="M46.212 750.139 Q39.7508 750.139 36.0905 752.812 Q32.3984 755.454 32.3984 760.101 Q32.3984 764.748 36.0905 767.422 Q39.7508 770.064 46.212 770.064 Q52.6732 770.064 56.3653 767.422 Q60.0256 764.748 60.0256 760.101 Q60.0256 755.454 56.3653 752.812 Q52.6732 750.139 46.212 750.139 M33.7671 770.064 Q30.5842 768.218 29.0564 765.417 Q27.4968 762.584 27.4968 758.669 Q27.4968 752.176 32.6531 748.134 Q37.8093 744.06 46.212 744.06 Q54.6147 744.06 59.771 748.134 Q64.9272 752.176 64.9272 758.669 Q64.9272 762.584 63.3994 765.417 Q61.8398 768.218 58.657 770.064 L64.0042 770.064 L64.0042 775.952 L14.479 775.952 L14.479 770.064 L33.7671 770.064 Z" fill="#000000" fill-rule="nonzero" fill-opacity="1" /><path clip-path="url(#clip700)" d="M28.3562 734.352 L28.3562 728.495 L64.6407 728.495 Q71.452 728.495 74.5076 731.105 Q77.5631 733.684 77.5631 739.445 L77.5631 741.673 L72.5979 741.673 L72.5979 740.113 Q72.5979 736.771 71.0383 735.561 Q69.5105 734.352 64.6407 734.352 L28.3562 734.352 M14.479 734.352 L14.479 728.495 L21.895 728.495 L21.895 734.352 L14.479 734.352 Z" fill="#000000" fill-rule="nonzero" fill-opacity="1" /><path clip-path="url(#clip700)" d="M933.931 65.7705 L933.931 89.8329 L926.437 89.8329 L926.437 27.2059 L933.931 27.2059 L933.931 34.0924 Q936.28 30.0415 939.845 28.0971 Q943.451 26.1121 948.433 26.1121 Q956.697 26.1121 961.842 32.6746 Q967.027 39.2371 967.027 49.9314 Q967.027 60.6258 961.842 67.1883 Q956.697 73.7508 948.433 73.7508 Q943.451 73.7508 939.845 71.8063 Q936.28 69.8214 933.931 65.7705 M959.29 49.9314 Q959.29 41.7081 955.887 37.0496 Q952.525 32.3505 946.61 32.3505 Q940.696 32.3505 937.293 37.0496 Q933.931 41.7081 933.931 49.9314 Q933.931 58.1548 937.293 62.8538 Q940.696 67.5124 946.61 67.5124 Q952.525 67.5124 955.887 62.8538 Q959.29 58.1548 959.29 49.9314 Z" fill="#000000" fill-rule="nonzero" fill-opacity="1" /><path clip-path="url(#clip700)" d="M1005.67 34.1734 Q1004.42 33.4443 1002.92 33.1202 Q1001.46 32.7556 999.677 32.7556 Q993.358 32.7556 989.955 36.8875 Q986.593 40.9789 986.593 48.6757 L986.593 72.576 L979.098 72.576 L979.098 27.2059 L986.593 27.2059 L986.593 34.2544 Q988.942 30.1225 992.71 28.1376 Q996.477 26.1121 1001.86 26.1121 Q1002.63 26.1121 1003.57 26.2337 Q1004.5 26.3147 1005.63 26.5172 L1005.67 34.1734 Z" fill="#000000" fill-rule="nonzero" fill-opacity="1" /><path clip-path="url(#clip700)" d="M1029.25 32.4315 Q1023.25 32.4315 1019.77 37.1306 Q1016.29 41.7891 1016.29 49.9314 Q1016.29 58.0738 1019.73 62.7728 Q1023.21 67.4314 1029.25 67.4314 Q1035.2 67.4314 1038.69 62.7323 Q1042.17 58.0333 1042.17 49.9314 Q1042.17 41.8701 1038.69 37.1711 Q1035.2 32.4315 1029.25 32.4315 M1029.25 26.1121 Q1038.97 26.1121 1044.52 32.4315 Q1050.07 38.7509 1050.07 49.9314 Q1050.07 61.0714 1044.52 67.4314 Q1038.97 73.7508 1029.25 73.7508 Q1019.49 73.7508 1013.94 67.4314 Q1008.43 61.0714 1008.43 49.9314 Q1008.43 38.7509 1013.94 32.4315 Q1019.49 26.1121 1029.25 26.1121 Z" fill="#000000" fill-rule="nonzero" fill-opacity="1" /><path clip-path="url(#clip700)" d="M1094.99 49.9314 Q1094.99 41.7081 1091.59 37.0496 Q1088.23 32.3505 1082.32 32.3505 Q1076.4 32.3505 1073 37.0496 Q1069.64 41.7081 1069.64 49.9314 Q1069.64 58.1548 1073 62.8538 Q1076.4 67.5124 1082.32 67.5124 Q1088.23 67.5124 1091.59 62.8538 Q1094.99 58.1548 1094.99 49.9314 M1069.64 34.0924 Q1071.99 30.0415 1075.55 28.0971 Q1079.16 26.1121 1084.14 26.1121 Q1092.4 26.1121 1097.55 32.6746 Q1102.73 39.2371 1102.73 49.9314 Q1102.73 60.6258 1097.55 67.1883 Q1092.4 73.7508 1084.14 73.7508 Q1079.16 73.7508 1075.55 71.8063 Q1071.99 69.8214 1069.64 65.7705 L1069.64 72.576 L1062.14 72.576 L1062.14 9.54393 L1069.64 9.54393 L1069.64 34.0924 Z" fill="#000000" fill-rule="nonzero" fill-opacity="1" /><path clip-path="url(#clip700)" d="M1115.09 9.54393 L1122.54 9.54393 L1122.54 72.576 L1115.09 72.576 L1115.09 9.54393 Z" fill="#000000" fill-rule="nonzero" fill-opacity="1" /><path clip-path="url(#clip700)" d="M1176.94 48.0275 L1176.94 51.6733 L1142.67 51.6733 Q1143.16 59.3701 1147.29 63.421 Q1151.46 67.4314 1158.88 67.4314 Q1163.17 67.4314 1167.18 66.3781 Q1171.23 65.3249 1175.2 63.2184 L1175.2 70.267 Q1171.19 71.9684 1166.98 72.8596 Q1162.77 73.7508 1158.43 73.7508 Q1147.58 73.7508 1141.22 67.4314 Q1134.9 61.1119 1134.9 50.3365 Q1134.9 39.1965 1140.89 32.6746 Q1146.93 26.1121 1157.14 26.1121 Q1166.29 26.1121 1171.6 32.0264 Q1176.94 37.9003 1176.94 48.0275 M1169.49 45.84 Q1169.41 39.7232 1166.05 36.0774 Q1162.73 32.4315 1157.22 32.4315 Q1150.98 32.4315 1147.21 35.9558 Q1143.48 39.4801 1142.92 45.8805 L1169.49 45.84 M1150.82 6.22219 L1162.24 21.3726 L1156.04 21.3726 L1142.84 6.22219 L1150.82 6.22219 Z" fill="#000000" fill-rule="nonzero" fill-opacity="1" /><path clip-path="url(#clip700)" d="M1224.5 35.9153 Q1227.3 30.8922 1231.19 28.5022 Q1235.08 26.1121 1240.34 26.1121 Q1247.43 26.1121 1251.28 31.0947 Q1255.13 36.0368 1255.13 45.1919 L1255.13 72.576 L1247.63 72.576 L1247.63 45.4349 Q1247.63 38.913 1245.32 35.7533 Q1243.01 32.5936 1238.28 32.5936 Q1232.48 32.5936 1229.12 36.4419 Q1225.76 40.2903 1225.76 46.9338 L1225.76 72.576 L1218.26 72.576 L1218.26 45.4349 Q1218.26 38.8725 1215.95 35.7533 Q1213.65 32.5936 1208.83 32.5936 Q1203.11 32.5936 1199.75 36.4824 Q1196.39 40.3308 1196.39 46.9338 L1196.39 72.576 L1188.89 72.576 L1188.89 27.2059 L1196.39 27.2059 L1196.39 34.2544 Q1198.94 30.082 1202.51 28.0971 Q1206.07 26.1121 1210.97 26.1121 Q1215.91 26.1121 1219.36 28.6237 Q1222.84 31.1352 1224.5 35.9153 Z" fill="#000000" fill-rule="nonzero" fill-opacity="1" /><path clip-path="url(#clip700)" d="M1308.8 48.0275 L1308.8 51.6733 L1274.53 51.6733 Q1275.02 59.3701 1279.15 63.421 Q1283.32 67.4314 1290.73 67.4314 Q1295.03 67.4314 1299.04 66.3781 Q1303.09 65.3249 1307.06 63.2184 L1307.06 70.267 Q1303.05 71.9684 1298.84 72.8596 Q1294.62 73.7508 1290.29 73.7508 Q1279.43 73.7508 1273.07 67.4314 Q1266.75 61.1119 1266.75 50.3365 Q1266.75 39.1965 1272.75 32.6746 Q1278.78 26.1121 1288.99 26.1121 Q1298.15 26.1121 1303.45 32.0264 Q1308.8 37.9003 1308.8 48.0275 M1301.35 45.84 Q1301.27 39.7232 1297.9 36.0774 Q1294.58 32.4315 1289.07 32.4315 Q1282.84 32.4315 1279.07 35.9558 Q1275.34 39.4801 1274.77 45.8805 L1301.35 45.84 Z" fill="#000000" fill-rule="nonzero" fill-opacity="1" /><path clip-path="url(#clip700)" d="M1349.31 62.2867 L1357.86 62.2867 L1357.86 72.576 L1349.31 72.576 L1349.31 62.2867 M1349.31 29.6769 L1357.86 29.6769 L1357.86 39.9662 L1349.31 39.9662 L1349.31 29.6769 Z" fill="#000000" fill-rule="nonzero" fill-opacity="1" /><path clip-path="url(#clip700)" d="M1437.05 35.9153 Q1439.85 30.8922 1443.74 28.5022 Q1447.63 26.1121 1452.89 26.1121 Q1459.98 26.1121 1463.83 31.0947 Q1467.68 36.0368 1467.68 45.1919 L1467.68 72.576 L1460.18 72.576 L1460.18 45.4349 Q1460.18 38.913 1457.87 35.7533 Q1455.57 32.5936 1450.83 32.5936 Q1445.03 32.5936 1441.67 36.4419 Q1438.31 40.2903 1438.31 46.9338 L1438.31 72.576 L1430.81 72.576 L1430.81 45.4349 Q1430.81 38.8725 1428.51 35.7533 Q1426.2 32.5936 1421.38 32.5936 Q1415.66 32.5936 1412.3 36.4824 Q1408.94 40.3308 1408.94 46.9338 L1408.94 72.576 L1401.45 72.576 L1401.45 27.2059 L1408.94 27.2059 L1408.94 34.2544 Q1411.49 30.082 1415.06 28.0971 Q1418.62 26.1121 1423.52 26.1121 Q1428.47 26.1121 1431.91 28.6237 Q1435.39 31.1352 1437.05 35.9153 Z" fill="#000000" fill-rule="nonzero" fill-opacity="1" /><path clip-path="url(#clip700)" d="M1512.4 49.3643 Q1512.4 41.2625 1509.04 36.8065 Q1505.72 32.3505 1499.68 32.3505 Q1493.68 32.3505 1490.32 36.8065 Q1487 41.2625 1487 49.3643 Q1487 57.4256 1490.32 61.8816 Q1493.68 66.3376 1499.68 66.3376 Q1505.72 66.3376 1509.04 61.8816 Q1512.4 57.4256 1512.4 49.3643 M1519.85 66.9452 Q1519.85 78.5308 1514.71 84.1616 Q1509.56 89.8329 1498.95 89.8329 Q1495.02 89.8329 1491.54 89.2252 Q1488.05 88.6581 1484.77 87.4428 L1484.77 80.1917 Q1488.05 81.9741 1491.25 82.8248 Q1494.45 83.6755 1497.78 83.6755 Q1505.11 83.6755 1508.75 79.8271 Q1512.4 76.0193 1512.4 68.282 L1512.4 64.5957 Q1510.09 68.6061 1506.49 70.5911 Q1502.88 72.576 1497.86 72.576 Q1489.51 72.576 1484.41 66.2161 Q1479.3 59.8562 1479.3 49.3643 Q1479.3 38.832 1484.41 32.472 Q1489.51 26.1121 1497.86 26.1121 Q1502.88 26.1121 1506.49 28.0971 Q1510.09 30.082 1512.4 34.0924 L1512.4 27.2059 L1519.85 27.2059 L1519.85 66.9452 Z" fill="#000000" fill-rule="nonzero" fill-opacity="1" /><path clip-path="url(#clip700)" d="M1572.92 45.1919 L1572.92 72.576 L1565.47 72.576 L1565.47 45.4349 Q1565.47 38.994 1562.96 35.7938 Q1560.44 32.5936 1555.42 32.5936 Q1549.38 32.5936 1545.9 36.4419 Q1542.42 40.2903 1542.42 46.9338 L1542.42 72.576 L1534.92 72.576 L1534.92 9.54393 L1542.42 9.54393 L1542.42 34.2544 Q1545.09 30.163 1548.7 28.1376 Q1552.34 26.1121 1557.08 26.1121 Q1564.9 26.1121 1568.91 30.9732 Q1572.92 35.7938 1572.92 45.1919 Z" fill="#000000" fill-rule="nonzero" fill-opacity="1" /><path clip-path="url(#clip700)" d="M1613.63 39.9662 Q1619.51 41.222 1622.79 45.1919 Q1626.11 49.1618 1626.11 54.9951 Q1626.11 63.9476 1619.95 68.8492 Q1613.79 73.7508 1602.45 73.7508 Q1598.64 73.7508 1594.59 72.9811 Q1590.58 72.2519 1586.29 70.7531 L1586.29 62.8538 Q1589.69 64.8388 1593.74 65.8515 Q1597.79 66.8642 1602.21 66.8642 Q1609.91 66.8642 1613.92 63.826 Q1617.97 60.7879 1617.97 54.9951 Q1617.97 49.6479 1614.2 46.6502 Q1610.47 43.612 1603.79 43.612 L1596.74 43.612 L1596.74 36.8875 L1604.11 36.8875 Q1610.15 36.8875 1613.35 34.4975 Q1616.55 32.067 1616.55 27.5299 Q1616.55 22.8714 1613.23 20.4004 Q1609.95 17.8888 1603.79 17.8888 Q1600.43 17.8888 1596.58 18.618 Q1592.73 19.3471 1588.11 20.8865 L1588.11 13.5948 Q1592.77 12.2985 1596.82 11.6504 Q1600.91 11.0023 1604.52 11.0023 Q1613.83 11.0023 1619.26 15.2557 Q1624.69 19.4686 1624.69 26.6793 Q1624.69 31.7024 1621.81 35.1862 Q1618.94 38.6294 1613.63 39.9662 Z" fill="#000000" fill-rule="nonzero" fill-opacity="1" /><path clip-path="url(#clip700)" d="M1643.04 65.6895 L1656.41 65.6895 L1656.41 19.5497 L1641.87 22.4663 L1641.87 15.0127 L1656.33 12.096 L1664.51 12.096 L1664.51 65.6895 L1677.88 65.6895 L1677.88 72.576 L1643.04 72.576 L1643.04 65.6895 Z" fill="#000000" fill-rule="nonzero" fill-opacity="1" /><polyline clip-path="url(#clip702)" style="stroke:#009af9; stroke-linecap:round; stroke-linejoin:round; stroke-width:4; stroke-opacity:1; fill:none" points="311.028,160.256 509.254,245.909 707.48,306.01 905.706,380.693 1103.93,484.996 1302.16,633.051 1500.38,786.17 1698.61,912.807 1896.84,1080.29 2095.06,1386.4 "/>
<polyline clip-path="url(#clip702)" style="stroke:#e26f46; stroke-linecap:round; stroke-linejoin:round; stroke-width:4; stroke-opacity:1; fill:none" points="311.028,160.256 509.254,245.909 707.48,306.022 905.706,381.239 1103.93,490.864 1302.16,648.612 1500.38,767.519 1698.61,876.868 1896.84,1107.88 2095.06,1278.97 "/>
<polyline clip-path="url(#clip702)" style="stroke:#3da44d; stroke-linecap:round; stroke-linejoin:round; stroke-width:4; stroke-opacity:1; fill:none" points="311.028,160.256 509.254,245.909 707.48,306.675 905.706,389.535 1103.93,513.275 1302.16,637.28 1500.38,758.134 1698.61,877.442 1896.84,996.038 2095.06,1114.28 2293.29,1232.32 "/>
<path clip-path="url(#clip700)" d="M1509.08 374.156 L2282.72 374.156 L2282.72 166.796 L1509.08 166.796  Z" fill="#ffffff" fill-rule="evenodd" fill-opacity="1"/>
<polyline clip-path="url(#clip700)" style="stroke:#000000; stroke-linecap:round; stroke-linejoin:round; stroke-width:4; stroke-opacity:1; fill:none" points="1509.08,374.156 2282.72,374.156 2282.72,166.796 1509.08,166.796 1509.08,374.156 "/>
<polyline clip-path="url(#clip700)" style="stroke:#009af9; stroke-linecap:round; stroke-linejoin:round; stroke-width:4; stroke-opacity:1; fill:none" points="1532.43,218.636 1672.51,218.636 "/>
<path clip-path="url(#clip700)" d="M1695.85 201.356 L1700.53 201.356 L1700.53 231.981 L1717.36 231.981 L1717.36 235.916 L1695.85 235.916 L1695.85 201.356 Z" fill="#000000" fill-rule="nonzero" fill-opacity="1" /><path clip-path="url(#clip700)" d="M1722.27 201.356 L1729.23 201.356 L1738.05 224.874 L1746.92 201.356 L1753.89 201.356 L1753.89 235.916 L1749.33 235.916 L1749.33 205.569 L1740.41 229.272 L1735.71 229.272 L1726.8 205.569 L1726.8 235.916 L1722.27 235.916 L1722.27 201.356 Z" fill="#000000" fill-rule="nonzero" fill-opacity="1" /><path clip-path="url(#clip700)" d="M1782.68 243.786 L1782.68 247.096 L1758.05 247.096 L1758.05 243.786 L1782.68 243.786 Z" fill="#000000" fill-rule="nonzero" fill-opacity="1" /><path clip-path="url(#clip700)" d="M1798.42 205.962 L1792.08 223.161 L1804.79 223.161 L1798.42 205.962 M1795.78 201.356 L1801.08 201.356 L1814.26 235.916 L1809.39 235.916 L1806.25 227.05 L1790.67 227.05 L1787.52 235.916 L1782.59 235.916 L1795.78 201.356 Z" fill="#000000" fill-rule="nonzero" fill-opacity="1" /><path clip-path="url(#clip700)" d="M1840.67 220.268 L1840.67 235.916 L1836.41 235.916 L1836.41 220.407 Q1836.41 216.726 1834.97 214.897 Q1833.54 213.069 1830.67 213.069 Q1827.22 213.069 1825.23 215.268 Q1823.24 217.467 1823.24 221.263 L1823.24 235.916 L1818.96 235.916 L1818.96 209.99 L1823.24 209.99 L1823.24 214.018 Q1824.77 211.68 1826.83 210.522 Q1828.91 209.365 1831.62 209.365 Q1836.08 209.365 1838.38 212.143 Q1840.67 214.897 1840.67 220.268 Z" fill="#000000" fill-rule="nonzero" fill-opacity="1" /><path clip-path="url(#clip700)" d="M1866.22 213.925 L1866.22 199.897 L1870.48 199.897 L1870.48 235.916 L1866.22 235.916 L1866.22 232.027 Q1864.88 234.342 1862.82 235.476 Q1860.78 236.587 1857.91 236.587 Q1853.21 236.587 1850.25 232.837 Q1847.31 229.087 1847.31 222.976 Q1847.31 216.865 1850.25 213.115 Q1853.21 209.365 1857.91 209.365 Q1860.78 209.365 1862.82 210.499 Q1864.88 211.61 1866.22 213.925 M1851.71 222.976 Q1851.71 227.675 1853.63 230.36 Q1855.58 233.022 1858.95 233.022 Q1862.33 233.022 1864.28 230.36 Q1866.22 227.675 1866.22 222.976 Q1866.22 218.277 1864.28 215.615 Q1862.33 212.93 1858.95 212.93 Q1855.58 212.93 1853.63 215.615 Q1851.71 218.277 1851.71 222.976 Z" fill="#000000" fill-rule="nonzero" fill-opacity="1" /><path clip-path="url(#clip700)" d="M1894.28 213.971 Q1893.56 213.555 1892.7 213.37 Q1891.87 213.161 1890.85 213.161 Q1887.24 213.161 1885.3 215.522 Q1883.38 217.86 1883.38 222.258 L1883.38 235.916 L1879.09 235.916 L1879.09 209.99 L1883.38 209.99 L1883.38 214.018 Q1884.72 211.657 1886.87 210.522 Q1889.02 209.365 1892.1 209.365 Q1892.54 209.365 1893.08 209.434 Q1893.61 209.481 1894.26 209.596 L1894.28 213.971 Z" fill="#000000" fill-rule="nonzero" fill-opacity="1" /><path clip-path="url(#clip700)" d="M1919.88 221.888 L1919.88 223.971 L1900.3 223.971 Q1900.58 228.369 1902.94 230.684 Q1905.32 232.976 1909.56 232.976 Q1912.01 232.976 1914.3 232.374 Q1916.62 231.772 1918.89 230.569 L1918.89 234.596 Q1916.59 235.568 1914.19 236.078 Q1911.78 236.587 1909.3 236.587 Q1903.1 236.587 1899.46 232.976 Q1895.85 229.365 1895.85 223.207 Q1895.85 216.842 1899.28 213.115 Q1902.73 209.365 1908.56 209.365 Q1913.79 209.365 1916.82 212.745 Q1919.88 216.101 1919.88 221.888 M1915.62 220.638 Q1915.57 217.143 1913.65 215.059 Q1911.76 212.976 1908.61 212.976 Q1905.04 212.976 1902.89 214.99 Q1900.76 217.004 1900.44 220.661 L1915.62 220.638 Z" fill="#000000" fill-rule="nonzero" fill-opacity="1" /><path clip-path="url(#clip700)" d="M1926.87 209.99 L1931.13 209.99 L1931.13 235.916 L1926.87 235.916 L1926.87 209.99 M1926.87 199.897 L1931.13 199.897 L1931.13 205.291 L1926.87 205.291 L1926.87 199.897 Z" fill="#000000" fill-rule="nonzero" fill-opacity="1" /><path clip-path="url(#clip700)" d="M1959.74 243.786 L1959.74 247.096 L1935.11 247.096 L1935.11 243.786 L1959.74 243.786 Z" fill="#000000" fill-rule="nonzero" fill-opacity="1" /><path clip-path="url(#clip700)" d="M1966.29 222.976 Q1966.29 227.675 1968.21 230.36 Q1970.16 233.022 1973.54 233.022 Q1976.92 233.022 1978.86 230.36 Q1980.81 227.675 1980.81 222.976 Q1980.81 218.277 1978.86 215.615 Q1976.92 212.93 1973.54 212.93 Q1970.16 212.93 1968.21 215.615 Q1966.29 218.277 1966.29 222.976 M1980.81 232.027 Q1979.46 234.342 1977.4 235.476 Q1975.37 236.587 1972.5 236.587 Q1967.8 236.587 1964.83 232.837 Q1961.89 229.087 1961.89 222.976 Q1961.89 216.865 1964.83 213.115 Q1967.8 209.365 1972.5 209.365 Q1975.37 209.365 1977.4 210.499 Q1979.46 211.61 1980.81 213.925 L1980.81 209.99 L1985.07 209.99 L1985.07 245.777 L1980.81 245.777 L1980.81 232.027 Z" fill="#000000" fill-rule="nonzero" fill-opacity="1" /><path clip-path="url(#clip700)" d="M1993.4 225.684 L1993.4 209.99 L1997.66 209.99 L1997.66 225.522 Q1997.66 229.203 1999.09 231.055 Q2000.53 232.883 2003.4 232.883 Q2006.85 232.883 2008.84 230.684 Q2010.85 228.485 2010.85 224.689 L2010.85 209.99 L2015.11 209.99 L2015.11 235.916 L2010.85 235.916 L2010.85 231.934 Q2009.3 234.295 2007.24 235.453 Q2005.2 236.587 2002.5 236.587 Q1998.03 236.587 1995.71 233.809 Q1993.4 231.031 1993.4 225.684 M2004.12 209.365 L2004.12 209.365 Z" fill="#000000" fill-rule="nonzero" fill-opacity="1" /><path clip-path="url(#clip700)" d="M2035.67 222.883 Q2030.5 222.883 2028.51 224.064 Q2026.52 225.244 2026.52 228.092 Q2026.52 230.36 2028 231.703 Q2029.51 233.022 2032.08 233.022 Q2035.62 233.022 2037.75 230.522 Q2039.9 227.999 2039.9 223.832 L2039.9 222.883 L2035.67 222.883 M2044.16 221.124 L2044.16 235.916 L2039.9 235.916 L2039.9 231.981 Q2038.44 234.342 2036.27 235.476 Q2034.09 236.587 2030.94 236.587 Q2026.96 236.587 2024.6 234.365 Q2022.26 232.119 2022.26 228.369 Q2022.26 223.994 2025.18 221.772 Q2028.12 219.55 2033.93 219.55 L2039.9 219.55 L2039.9 219.133 Q2039.9 216.194 2037.96 214.596 Q2036.04 212.976 2032.54 212.976 Q2030.32 212.976 2028.21 213.508 Q2026.11 214.041 2024.16 215.106 L2024.16 211.17 Q2026.5 210.268 2028.7 209.828 Q2030.9 209.365 2032.98 209.365 Q2038.61 209.365 2041.38 212.282 Q2044.16 215.198 2044.16 221.124 Z" fill="#000000" fill-rule="nonzero" fill-opacity="1" /><path clip-path="url(#clip700)" d="M2069.46 210.754 L2069.46 214.782 Q2067.66 213.856 2065.71 213.393 Q2063.77 212.93 2061.69 212.93 Q2058.51 212.93 2056.92 213.902 Q2055.34 214.874 2055.34 216.819 Q2055.34 218.3 2056.48 219.157 Q2057.61 219.99 2061.04 220.754 L2062.5 221.078 Q2067.03 222.05 2068.93 223.832 Q2070.85 225.592 2070.85 228.763 Q2070.85 232.374 2067.98 234.481 Q2065.13 236.587 2060.13 236.587 Q2058.05 236.587 2055.78 236.17 Q2053.54 235.777 2051.04 234.967 L2051.04 230.569 Q2053.4 231.795 2055.69 232.42 Q2057.98 233.022 2060.23 233.022 Q2063.24 233.022 2064.86 232.004 Q2066.48 230.962 2066.48 229.087 Q2066.48 227.351 2065.3 226.425 Q2064.14 225.499 2060.18 224.643 L2058.7 224.295 Q2054.74 223.462 2052.98 221.749 Q2051.22 220.013 2051.22 217.004 Q2051.22 213.346 2053.81 211.356 Q2056.41 209.365 2061.18 209.365 Q2063.54 209.365 2065.62 209.712 Q2067.7 210.059 2069.46 210.754 Z" fill="#000000" fill-rule="nonzero" fill-opacity="1" /><path clip-path="url(#clip700)" d="M2077.63 209.99 L2081.89 209.99 L2081.89 235.916 L2077.63 235.916 L2077.63 209.99 M2077.63 199.897 L2081.89 199.897 L2081.89 205.291 L2077.63 205.291 L2077.63 199.897 Z" fill="#000000" fill-rule="nonzero" fill-opacity="1" /><path clip-path="url(#clip700)" d="M2110.5 243.786 L2110.5 247.096 L2085.87 247.096 L2085.87 243.786 L2110.5 243.786 Z" fill="#000000" fill-rule="nonzero" fill-opacity="1" /><path clip-path="url(#clip700)" d="M2136.06 220.268 L2136.06 235.916 L2131.8 235.916 L2131.8 220.407 Q2131.8 216.726 2130.37 214.897 Q2128.93 213.069 2126.06 213.069 Q2122.61 213.069 2120.62 215.268 Q2118.63 217.467 2118.63 221.263 L2118.63 235.916 L2114.35 235.916 L2114.35 209.99 L2118.63 209.99 L2118.63 214.018 Q2120.16 211.68 2122.22 210.522 Q2124.3 209.365 2127.01 209.365 Q2131.48 209.365 2133.77 212.143 Q2136.06 214.897 2136.06 220.268 Z" fill="#000000" fill-rule="nonzero" fill-opacity="1" /><path clip-path="url(#clip700)" d="M2144.12 225.684 L2144.12 209.99 L2148.37 209.99 L2148.37 225.522 Q2148.37 229.203 2149.81 231.055 Q2151.25 232.883 2154.12 232.883 Q2157.56 232.883 2159.56 230.684 Q2161.57 228.485 2161.57 224.689 L2161.57 209.99 L2165.83 209.99 L2165.83 235.916 L2161.57 235.916 L2161.57 231.934 Q2160.02 234.295 2157.96 235.453 Q2155.92 236.587 2153.21 236.587 Q2148.75 236.587 2146.43 233.809 Q2144.12 231.031 2144.12 225.684 M2154.83 209.365 L2154.83 209.365 Z" fill="#000000" fill-rule="nonzero" fill-opacity="1" /><path clip-path="url(#clip700)" d="M2174.6 199.897 L2178.86 199.897 L2178.86 235.916 L2174.6 235.916 L2174.6 199.897 Z" fill="#000000" fill-rule="nonzero" fill-opacity="1" /><path clip-path="url(#clip700)" d="M2207.47 243.786 L2207.47 247.096 L2182.84 247.096 L2182.84 243.786 L2207.47 243.786 Z" fill="#000000" fill-rule="nonzero" fill-opacity="1" /><path clip-path="url(#clip700)" d="M2211.48 199.897 L2215.74 199.897 L2215.74 235.916 L2211.48 235.916 L2211.48 199.897 Z" fill="#000000" fill-rule="nonzero" fill-opacity="1" /><path clip-path="url(#clip700)" d="M2224.65 209.99 L2228.91 209.99 L2228.91 235.916 L2224.65 235.916 L2224.65 209.99 M2224.65 199.897 L2228.91 199.897 L2228.91 205.291 L2224.65 205.291 L2224.65 199.897 Z" fill="#000000" fill-rule="nonzero" fill-opacity="1" /><path clip-path="url(#clip700)" d="M2259.37 220.268 L2259.37 235.916 L2255.11 235.916 L2255.11 220.407 Q2255.11 216.726 2253.68 214.897 Q2252.24 213.069 2249.37 213.069 Q2245.92 213.069 2243.93 215.268 Q2241.94 217.467 2241.94 221.263 L2241.94 235.916 L2237.66 235.916 L2237.66 209.99 L2241.94 209.99 L2241.94 214.018 Q2243.47 211.68 2245.53 210.522 Q2247.61 209.365 2250.32 209.365 Q2254.79 209.365 2257.08 212.143 Q2259.37 214.897 2259.37 220.268 Z" fill="#000000" fill-rule="nonzero" fill-opacity="1" /><polyline clip-path="url(#clip700)" style="stroke:#e26f46; stroke-linecap:round; stroke-linejoin:round; stroke-width:4; stroke-opacity:1; fill:none" points="1532.43,270.476 1672.51,270.476 "/>
<path clip-path="url(#clip700)" d="M1695.85 253.196 L1700.53 253.196 L1700.53 283.821 L1717.36 283.821 L1717.36 287.756 L1695.85 287.756 L1695.85 253.196 Z" fill="#000000" fill-rule="nonzero" fill-opacity="1" /><path clip-path="url(#clip700)" d="M1722.27 253.196 L1729.23 253.196 L1738.05 276.714 L1746.92 253.196 L1753.89 253.196 L1753.89 287.756 L1749.33 287.756 L1749.33 257.409 L1740.41 281.112 L1735.71 281.112 L1726.8 257.409 L1726.8 287.756 L1722.27 287.756 L1722.27 253.196 Z" fill="#000000" fill-rule="nonzero" fill-opacity="1" /><path clip-path="url(#clip700)" d="M1782.68 295.626 L1782.68 298.936 L1758.05 298.936 L1758.05 295.626 L1782.68 295.626 Z" fill="#000000" fill-rule="nonzero" fill-opacity="1" /><path clip-path="url(#clip700)" d="M1784.88 253.196 L1812.03 253.196 L1812.03 256.761 L1790.18 283.821 L1812.57 283.821 L1812.57 287.756 L1784.35 287.756 L1784.35 284.191 L1806.2 257.131 L1784.88 257.131 L1784.88 253.196 Z" fill="#000000" fill-rule="nonzero" fill-opacity="1" /><path clip-path="url(#clip700)" d="M1840.71 272.108 L1840.71 287.756 L1836.46 287.756 L1836.46 272.247 Q1836.46 268.566 1835.02 266.737 Q1833.58 264.909 1830.71 264.909 Q1827.27 264.909 1825.27 267.108 Q1823.28 269.307 1823.28 273.103 L1823.28 287.756 L1819 287.756 L1819 251.737 L1823.28 251.737 L1823.28 265.858 Q1824.81 263.52 1826.87 262.362 Q1828.96 261.205 1831.66 261.205 Q1836.13 261.205 1838.42 263.983 Q1840.71 266.737 1840.71 272.108 Z" fill="#000000" fill-rule="nonzero" fill-opacity="1" /><path clip-path="url(#clip700)" d="M1848.77 277.524 L1848.77 261.83 L1853.03 261.83 L1853.03 277.362 Q1853.03 281.043 1854.46 282.895 Q1855.9 284.723 1858.77 284.723 Q1862.22 284.723 1864.21 282.524 Q1866.22 280.325 1866.22 276.529 L1866.22 261.83 L1870.48 261.83 L1870.48 287.756 L1866.22 287.756 L1866.22 283.774 Q1864.67 286.135 1862.61 287.293 Q1860.58 288.427 1857.87 288.427 Q1853.4 288.427 1851.08 285.649 Q1848.77 282.871 1848.77 277.524 M1859.49 261.205 L1859.49 261.205 Z" fill="#000000" fill-rule="nonzero" fill-opacity="1" /><path clip-path="url(#clip700)" d="M1898.95 295.626 L1898.95 298.936 L1874.33 298.936 L1874.33 295.626 L1898.95 295.626 Z" fill="#000000" fill-rule="nonzero" fill-opacity="1" /><path clip-path="url(#clip700)" d="M1905.51 274.816 Q1905.51 279.515 1907.43 282.2 Q1909.37 284.862 1912.75 284.862 Q1916.13 284.862 1918.07 282.2 Q1920.02 279.515 1920.02 274.816 Q1920.02 270.117 1918.07 267.455 Q1916.13 264.77 1912.75 264.77 Q1909.37 264.77 1907.43 267.455 Q1905.51 270.117 1905.51 274.816 M1920.02 283.867 Q1918.68 286.182 1916.62 287.316 Q1914.58 288.427 1911.71 288.427 Q1907.01 288.427 1904.05 284.677 Q1901.11 280.927 1901.11 274.816 Q1901.11 268.705 1904.05 264.955 Q1907.01 261.205 1911.71 261.205 Q1914.58 261.205 1916.62 262.339 Q1918.68 263.45 1920.02 265.765 L1920.02 261.83 L1924.28 261.83 L1924.28 297.617 L1920.02 297.617 L1920.02 283.867 Z" fill="#000000" fill-rule="nonzero" fill-opacity="1" /><path clip-path="url(#clip700)" d="M1932.61 277.524 L1932.61 261.83 L1936.87 261.83 L1936.87 277.362 Q1936.87 281.043 1938.31 282.895 Q1939.74 284.723 1942.61 284.723 Q1946.06 284.723 1948.05 282.524 Q1950.07 280.325 1950.07 276.529 L1950.07 261.83 L1954.32 261.83 L1954.32 287.756 L1950.07 287.756 L1950.07 283.774 Q1948.51 286.135 1946.45 287.293 Q1944.42 288.427 1941.71 288.427 Q1937.24 288.427 1934.93 285.649 Q1932.61 282.871 1932.61 277.524 M1943.33 261.205 L1943.33 261.205 Z" fill="#000000" fill-rule="nonzero" fill-opacity="1" /><path clip-path="url(#clip700)" d="M1974.88 274.723 Q1969.72 274.723 1967.73 275.904 Q1965.74 277.084 1965.74 279.932 Q1965.74 282.2 1967.22 283.543 Q1968.72 284.862 1971.29 284.862 Q1974.83 284.862 1976.96 282.362 Q1979.12 279.839 1979.12 275.672 L1979.12 274.723 L1974.88 274.723 M1983.38 272.964 L1983.38 287.756 L1979.12 287.756 L1979.12 283.821 Q1977.66 286.182 1975.48 287.316 Q1973.31 288.427 1970.16 288.427 Q1966.18 288.427 1963.82 286.205 Q1961.48 283.959 1961.48 280.209 Q1961.48 275.834 1964.39 273.612 Q1967.33 271.39 1973.14 271.39 L1979.12 271.39 L1979.12 270.973 Q1979.12 268.034 1977.17 266.436 Q1975.25 264.816 1971.76 264.816 Q1969.53 264.816 1967.43 265.348 Q1965.32 265.881 1963.38 266.946 L1963.38 263.01 Q1965.71 262.108 1967.91 261.668 Q1970.11 261.205 1972.2 261.205 Q1977.82 261.205 1980.6 264.122 Q1983.38 267.038 1983.38 272.964 Z" fill="#000000" fill-rule="nonzero" fill-opacity="1" /><path clip-path="url(#clip700)" d="M2008.68 262.594 L2008.68 266.622 Q2006.87 265.696 2004.93 265.233 Q2002.98 264.77 2000.9 264.77 Q1997.73 264.77 1996.13 265.742 Q1994.56 266.714 1994.56 268.659 Q1994.56 270.14 1995.69 270.997 Q1996.82 271.83 2000.25 272.594 L2001.71 272.918 Q2006.25 273.89 2008.14 275.672 Q2010.07 277.432 2010.07 280.603 Q2010.07 284.214 2007.19 286.321 Q2004.35 288.427 1999.35 288.427 Q1997.26 288.427 1995 288.01 Q1992.75 287.617 1990.25 286.807 L1990.25 282.409 Q1992.61 283.635 1994.9 284.26 Q1997.19 284.862 1999.44 284.862 Q2002.45 284.862 2004.07 283.844 Q2005.69 282.802 2005.69 280.927 Q2005.69 279.191 2004.51 278.265 Q2003.35 277.339 1999.39 276.483 L1997.91 276.135 Q1993.95 275.302 1992.19 273.589 Q1990.44 271.853 1990.44 268.844 Q1990.44 265.186 1993.03 263.196 Q1995.62 261.205 2000.39 261.205 Q2002.75 261.205 2004.83 261.552 Q2006.92 261.899 2008.68 262.594 Z" fill="#000000" fill-rule="nonzero" fill-opacity="1" /><path clip-path="url(#clip700)" d="M2016.85 261.83 L2021.11 261.83 L2021.11 287.756 L2016.85 287.756 L2016.85 261.83 M2016.85 251.737 L2021.11 251.737 L2021.11 257.131 L2016.85 257.131 L2016.85 251.737 Z" fill="#000000" fill-rule="nonzero" fill-opacity="1" /><path clip-path="url(#clip700)" d="M2049.72 295.626 L2049.72 298.936 L2025.09 298.936 L2025.09 295.626 L2049.72 295.626 Z" fill="#000000" fill-rule="nonzero" fill-opacity="1" /><path clip-path="url(#clip700)" d="M2075.27 272.108 L2075.27 287.756 L2071.01 287.756 L2071.01 272.247 Q2071.01 268.566 2069.58 266.737 Q2068.14 264.909 2065.27 264.909 Q2061.82 264.909 2059.83 267.108 Q2057.84 269.307 2057.84 273.103 L2057.84 287.756 L2053.56 287.756 L2053.56 261.83 L2057.84 261.83 L2057.84 265.858 Q2059.37 263.52 2061.43 262.362 Q2063.51 261.205 2066.22 261.205 Q2070.69 261.205 2072.98 263.983 Q2075.27 266.737 2075.27 272.108 Z" fill="#000000" fill-rule="nonzero" fill-opacity="1" /><path clip-path="url(#clip700)" d="M2083.33 277.524 L2083.33 261.83 L2087.59 261.83 L2087.59 277.362 Q2087.59 281.043 2089.02 282.895 Q2090.46 284.723 2093.33 284.723 Q2096.78 284.723 2098.77 282.524 Q2100.78 280.325 2100.78 276.529 L2100.78 261.83 L2105.04 261.83 L2105.04 287.756 L2100.78 287.756 L2100.78 283.774 Q2099.23 286.135 2097.17 287.293 Q2095.13 288.427 2092.43 288.427 Q2087.96 288.427 2085.64 285.649 Q2083.33 282.871 2083.33 277.524 M2094.05 261.205 L2094.05 261.205 Z" fill="#000000" fill-rule="nonzero" fill-opacity="1" /><path clip-path="url(#clip700)" d="M2113.81 251.737 L2118.07 251.737 L2118.07 287.756 L2113.81 287.756 L2113.81 251.737 Z" fill="#000000" fill-rule="nonzero" fill-opacity="1" /><path clip-path="url(#clip700)" d="M2146.68 295.626 L2146.68 298.936 L2122.06 298.936 L2122.06 295.626 L2146.68 295.626 Z" fill="#000000" fill-rule="nonzero" fill-opacity="1" /><path clip-path="url(#clip700)" d="M2150.69 251.737 L2154.95 251.737 L2154.95 287.756 L2150.69 287.756 L2150.69 251.737 Z" fill="#000000" fill-rule="nonzero" fill-opacity="1" /><path clip-path="url(#clip700)" d="M2163.86 261.83 L2168.12 261.83 L2168.12 287.756 L2163.86 287.756 L2163.86 261.83 M2163.86 251.737 L2168.12 251.737 L2168.12 257.131 L2163.86 257.131 L2163.86 251.737 Z" fill="#000000" fill-rule="nonzero" fill-opacity="1" /><path clip-path="url(#clip700)" d="M2198.58 272.108 L2198.58 287.756 L2194.32 287.756 L2194.32 272.247 Q2194.32 268.566 2192.89 266.737 Q2191.45 264.909 2188.58 264.909 Q2185.13 264.909 2183.14 267.108 Q2181.15 269.307 2181.15 273.103 L2181.15 287.756 L2176.87 287.756 L2176.87 261.83 L2181.15 261.83 L2181.15 265.858 Q2182.68 263.52 2184.74 262.362 Q2186.82 261.205 2189.53 261.205 Q2194 261.205 2196.29 263.983 Q2198.58 266.737 2198.58 272.108 Z" fill="#000000" fill-rule="nonzero" fill-opacity="1" /><polyline clip-path="url(#clip700)" style="stroke:#3da44d; stroke-linecap:round; stroke-linejoin:round; stroke-width:4; stroke-opacity:1; fill:none" points="1532.43,322.316 1672.51,322.316 "/>
<path clip-path="url(#clip700)" d="M1695.85 305.036 L1700.53 305.036 L1700.53 335.661 L1717.36 335.661 L1717.36 339.596 L1695.85 339.596 L1695.85 305.036 Z" fill="#000000" fill-rule="nonzero" fill-opacity="1" /><path clip-path="url(#clip700)" d="M1722.27 305.036 L1729.23 305.036 L1738.05 328.554 L1746.92 305.036 L1753.89 305.036 L1753.89 339.596 L1749.33 339.596 L1749.33 309.249 L1740.41 332.952 L1735.71 332.952 L1726.8 309.249 L1726.8 339.596 L1722.27 339.596 L1722.27 305.036 Z" fill="#000000" fill-rule="nonzero" fill-opacity="1" /><path clip-path="url(#clip700)" d="M1782.68 347.466 L1782.68 350.776 L1758.05 350.776 L1758.05 347.466 L1782.68 347.466 Z" fill="#000000" fill-rule="nonzero" fill-opacity="1" /><path clip-path="url(#clip700)" d="M1807.59 306.17 L1807.59 310.73 Q1804.93 309.457 1802.57 308.832 Q1800.21 308.207 1798.01 308.207 Q1794.19 308.207 1792.1 309.688 Q1790.04 311.17 1790.04 313.901 Q1790.04 316.193 1791.41 317.374 Q1792.8 318.531 1796.64 319.249 L1799.46 319.827 Q1804.7 320.823 1807.17 323.346 Q1809.67 325.846 1809.67 330.059 Q1809.67 335.082 1806.29 337.674 Q1802.94 340.267 1796.43 340.267 Q1793.98 340.267 1791.2 339.711 Q1788.45 339.156 1785.48 338.068 L1785.48 333.253 Q1788.33 334.85 1791.06 335.661 Q1793.79 336.471 1796.43 336.471 Q1800.44 336.471 1802.61 334.897 Q1804.79 333.323 1804.79 330.406 Q1804.79 327.86 1803.21 326.424 Q1801.66 324.989 1798.1 324.272 L1795.25 323.716 Q1790.02 322.675 1787.68 320.452 Q1785.34 318.23 1785.34 314.272 Q1785.34 309.688 1788.56 307.05 Q1791.8 304.411 1797.47 304.411 Q1799.9 304.411 1802.43 304.851 Q1804.95 305.29 1807.59 306.17 Z" fill="#000000" fill-rule="nonzero" fill-opacity="1" /><path clip-path="url(#clip700)" d="M1821.64 308.878 L1821.64 321.864 L1827.52 321.864 Q1830.78 321.864 1832.57 320.175 Q1834.35 318.485 1834.35 315.36 Q1834.35 312.258 1832.57 310.568 Q1830.78 308.878 1827.52 308.878 L1821.64 308.878 M1816.96 305.036 L1827.52 305.036 Q1833.33 305.036 1836.29 307.675 Q1839.28 310.29 1839.28 315.36 Q1839.28 320.475 1836.29 323.091 Q1833.33 325.707 1827.52 325.707 L1821.64 325.707 L1821.64 339.596 L1816.96 339.596 L1816.96 305.036 Z" fill="#000000" fill-rule="nonzero" fill-opacity="1" /><path clip-path="url(#clip700)" d="M1869.12 334.665 L1869.12 325.383 L1861.48 325.383 L1861.48 321.54 L1873.75 321.54 L1873.75 336.378 Q1871.04 338.299 1867.77 339.295 Q1864.51 340.267 1860.81 340.267 Q1852.7 340.267 1848.12 335.545 Q1843.56 330.799 1843.56 322.35 Q1843.56 313.878 1848.12 309.156 Q1852.7 304.411 1860.81 304.411 Q1864.19 304.411 1867.22 305.244 Q1870.27 306.077 1872.84 307.698 L1872.84 312.675 Q1870.25 310.476 1867.33 309.364 Q1864.42 308.253 1861.2 308.253 Q1854.86 308.253 1851.66 311.795 Q1848.49 315.337 1848.49 322.35 Q1848.49 329.341 1851.66 332.883 Q1854.86 336.424 1861.2 336.424 Q1863.68 336.424 1865.62 336.008 Q1867.57 335.568 1869.12 334.665 Z" fill="#000000" fill-rule="nonzero" fill-opacity="1" /><path clip-path="url(#clip700)" d="M1901.8 347.466 L1901.8 350.776 L1877.17 350.776 L1877.17 347.466 L1901.8 347.466 Z" fill="#000000" fill-rule="nonzero" fill-opacity="1" /><path clip-path="url(#clip700)" d="M1908.35 326.656 Q1908.35 331.355 1910.27 334.04 Q1912.22 336.702 1915.6 336.702 Q1918.98 336.702 1920.92 334.04 Q1922.87 331.355 1922.87 326.656 Q1922.87 321.957 1920.92 319.295 Q1918.98 316.61 1915.6 316.61 Q1912.22 316.61 1910.27 319.295 Q1908.35 321.957 1908.35 326.656 M1922.87 335.707 Q1921.52 338.022 1919.46 339.156 Q1917.43 340.267 1914.56 340.267 Q1909.86 340.267 1906.89 336.517 Q1903.95 332.767 1903.95 326.656 Q1903.95 320.545 1906.89 316.795 Q1909.86 313.045 1914.56 313.045 Q1917.43 313.045 1919.46 314.179 Q1921.52 315.29 1922.87 317.605 L1922.87 313.67 L1927.13 313.67 L1927.13 349.457 L1922.87 349.457 L1922.87 335.707 Z" fill="#000000" fill-rule="nonzero" fill-opacity="1" /><path clip-path="url(#clip700)" d="M1935.46 329.364 L1935.46 313.67 L1939.72 313.67 L1939.72 329.202 Q1939.72 332.883 1941.15 334.735 Q1942.59 336.563 1945.46 336.563 Q1948.91 336.563 1950.9 334.364 Q1952.91 332.165 1952.91 328.369 L1952.91 313.67 L1957.17 313.67 L1957.17 339.596 L1952.91 339.596 L1952.91 335.614 Q1951.36 337.975 1949.3 339.133 Q1947.26 340.267 1944.56 340.267 Q1940.09 340.267 1937.77 337.489 Q1935.46 334.711 1935.46 329.364 M1946.18 313.045 L1946.18 313.045 Z" fill="#000000" fill-rule="nonzero" fill-opacity="1" /><path clip-path="url(#clip700)" d="M1977.73 326.563 Q1972.57 326.563 1970.57 327.744 Q1968.58 328.924 1968.58 331.772 Q1968.58 334.04 1970.07 335.383 Q1971.57 336.702 1974.14 336.702 Q1977.68 336.702 1979.81 334.202 Q1981.96 331.679 1981.96 327.512 L1981.96 326.563 L1977.73 326.563 M1986.22 324.804 L1986.22 339.596 L1981.96 339.596 L1981.96 335.661 Q1980.51 338.022 1978.33 339.156 Q1976.15 340.267 1973.01 340.267 Q1969.02 340.267 1966.66 338.045 Q1964.32 335.799 1964.32 332.049 Q1964.32 327.674 1967.24 325.452 Q1970.18 323.23 1975.99 323.23 L1981.96 323.23 L1981.96 322.813 Q1981.96 319.874 1980.02 318.276 Q1978.1 316.656 1974.6 316.656 Q1972.38 316.656 1970.27 317.188 Q1968.17 317.721 1966.22 318.786 L1966.22 314.85 Q1968.56 313.948 1970.76 313.508 Q1972.96 313.045 1975.04 313.045 Q1980.67 313.045 1983.44 315.962 Q1986.22 318.878 1986.22 324.804 Z" fill="#000000" fill-rule="nonzero" fill-opacity="1" /><path clip-path="url(#clip700)" d="M2011.52 314.434 L2011.52 318.462 Q2009.72 317.536 2007.77 317.073 Q2005.83 316.61 2003.75 316.61 Q2000.57 316.61 1998.98 317.582 Q1997.4 318.554 1997.4 320.499 Q1997.4 321.98 1998.54 322.837 Q1999.67 323.67 2003.1 324.434 L2004.56 324.758 Q2009.09 325.73 2010.99 327.512 Q2012.91 329.272 2012.91 332.443 Q2012.91 336.054 2010.04 338.161 Q2007.19 340.267 2002.19 340.267 Q2000.11 340.267 1997.84 339.85 Q1995.6 339.457 1993.1 338.647 L1993.1 334.249 Q1995.46 335.475 1997.75 336.1 Q2000.04 336.702 2002.29 336.702 Q2005.3 336.702 2006.92 335.684 Q2008.54 334.642 2008.54 332.767 Q2008.54 331.031 2007.36 330.105 Q2006.2 329.179 2002.24 328.323 L2000.76 327.975 Q1996.8 327.142 1995.04 325.429 Q1993.28 323.693 1993.28 320.684 Q1993.28 317.026 1995.88 315.036 Q1998.47 313.045 2003.24 313.045 Q2005.6 313.045 2007.68 313.392 Q2009.76 313.739 2011.52 314.434 Z" fill="#000000" fill-rule="nonzero" fill-opacity="1" /><path clip-path="url(#clip700)" d="M2019.69 313.67 L2023.95 313.67 L2023.95 339.596 L2019.69 339.596 L2019.69 313.67 M2019.69 303.577 L2023.95 303.577 L2023.95 308.971 L2019.69 308.971 L2019.69 303.577 Z" fill="#000000" fill-rule="nonzero" fill-opacity="1" /><path clip-path="url(#clip700)" d="M2052.56 347.466 L2052.56 350.776 L2027.94 350.776 L2027.94 347.466 L2052.56 347.466 Z" fill="#000000" fill-rule="nonzero" fill-opacity="1" /><path clip-path="url(#clip700)" d="M2078.12 323.948 L2078.12 339.596 L2073.86 339.596 L2073.86 324.087 Q2073.86 320.406 2072.43 318.577 Q2070.99 316.749 2068.12 316.749 Q2064.67 316.749 2062.68 318.948 Q2060.69 321.147 2060.69 324.943 L2060.69 339.596 L2056.41 339.596 L2056.41 313.67 L2060.69 313.67 L2060.69 317.698 Q2062.22 315.36 2064.28 314.202 Q2066.36 313.045 2069.07 313.045 Q2073.54 313.045 2075.83 315.823 Q2078.12 318.577 2078.12 323.948 Z" fill="#000000" fill-rule="nonzero" fill-opacity="1" /><path clip-path="url(#clip700)" d="M2086.18 329.364 L2086.18 313.67 L2090.44 313.67 L2090.44 329.202 Q2090.44 332.883 2091.87 334.735 Q2093.31 336.563 2096.18 336.563 Q2099.62 336.563 2101.62 334.364 Q2103.63 332.165 2103.63 328.369 L2103.63 313.67 L2107.89 313.67 L2107.89 339.596 L2103.63 339.596 L2103.63 335.614 Q2102.08 337.975 2100.02 339.133 Q2097.98 340.267 2095.27 340.267 Q2090.81 340.267 2088.49 337.489 Q2086.18 334.711 2086.18 329.364 M2096.89 313.045 L2096.89 313.045 Z" fill="#000000" fill-rule="nonzero" fill-opacity="1" /><path clip-path="url(#clip700)" d="M2116.66 303.577 L2120.92 303.577 L2120.92 339.596 L2116.66 339.596 L2116.66 303.577 Z" fill="#000000" fill-rule="nonzero" fill-opacity="1" /><path clip-path="url(#clip700)" d="M2149.53 347.466 L2149.53 350.776 L2124.9 350.776 L2124.9 347.466 L2149.53 347.466 Z" fill="#000000" fill-rule="nonzero" fill-opacity="1" /><path clip-path="url(#clip700)" d="M2153.54 303.577 L2157.8 303.577 L2157.8 339.596 L2153.54 339.596 L2153.54 303.577 Z" fill="#000000" fill-rule="nonzero" fill-opacity="1" /><path clip-path="url(#clip700)" d="M2166.71 313.67 L2170.97 313.67 L2170.97 339.596 L2166.71 339.596 L2166.71 313.67 M2166.71 303.577 L2170.97 303.577 L2170.97 308.971 L2166.71 308.971 L2166.71 303.577 Z" fill="#000000" fill-rule="nonzero" fill-opacity="1" /><path clip-path="url(#clip700)" d="M2201.43 323.948 L2201.43 339.596 L2197.17 339.596 L2197.17 324.087 Q2197.17 320.406 2195.74 318.577 Q2194.3 316.749 2191.43 316.749 Q2187.98 316.749 2185.99 318.948 Q2184 321.147 2184 324.943 L2184 339.596 L2179.72 339.596 L2179.72 313.67 L2184 313.67 L2184 317.698 Q2185.53 315.36 2187.59 314.202 Q2189.67 313.045 2192.38 313.045 Q2196.85 313.045 2199.14 315.823 Q2201.43 318.577 2201.43 323.948 Z" fill="#000000" fill-rule="nonzero" fill-opacity="1" /></svg>
