<?xml version="1.0" encoding="utf-8"?>
<svg xmlns="http://www.w3.org/2000/svg" xmlns:xlink="http://www.w3.org/1999/xlink" width="600" height="400" viewBox="0 0 2400 1600">
<defs>
  <clipPath id="clip620">
    <rect x="0" y="0" width="2400" height="1600"/>
  </clipPath>
</defs>
<path clip-path="url(#clip620)" d="M0 1600 L2400 1600 L2400 0 L0 0  Z" fill="#ffffff" fill-rule="evenodd" fill-opacity="1"/>
<defs>
  <clipPath id="clip621">
    <rect x="480" y="0" width="1681" height="1600"/>
  </clipPath>
</defs>
<path clip-path="url(#clip620)" d="M251.56 1423.18 L2352.76 1423.18 L2352.76 123.472 L251.56 123.472  Z" fill="#ffffff" fill-rule="evenodd" fill-opacity="1"/>
<defs>
  <clipPath id="clip622">
    <rect x="251" y="123" width="2102" height="1301"/>
  </clipPath>
</defs>
<polyline clip-path="url(#clip622)" style="stroke:#000000; stroke-linecap:round; stroke-linejoin:round; stroke-width:2; stroke-opacity:0.1; fill:none" points="531.279,1423.18 531.279,123.472 "/>
<polyline clip-path="url(#clip622)" style="stroke:#000000; stroke-linecap:round; stroke-linejoin:round; stroke-width:2; stroke-opacity:0.1; fill:none" points="971.781,1423.18 971.781,123.472 "/>
<polyline clip-path="url(#clip622)" style="stroke:#000000; stroke-linecap:round; stroke-linejoin:round; stroke-width:2; stroke-opacity:0.1; fill:none" points="1412.28,1423.18 1412.28,123.472 "/>
<polyline clip-path="url(#clip622)" style="stroke:#000000; stroke-linecap:round; stroke-linejoin:round; stroke-width:2; stroke-opacity:0.1; fill:none" points="1852.79,1423.18 1852.79,123.472 "/>
<polyline clip-path="url(#clip622)" style="stroke:#000000; stroke-linecap:round; stroke-linejoin:round; stroke-width:2; stroke-opacity:0.1; fill:none" points="2293.29,1423.18 2293.29,123.472 "/>
<polyline clip-path="url(#clip620)" style="stroke:#000000; stroke-linecap:round; stroke-linejoin:round; stroke-width:4; stroke-opacity:1; fill:none" points="251.56,1423.18 2352.76,1423.18 "/>
<polyline clip-path="url(#clip620)" style="stroke:#000000; stroke-linecap:round; stroke-linejoin:round; stroke-width:4; stroke-opacity:1; fill:none" points="531.279,1423.18 531.279,1404.28 "/>
<polyline clip-path="url(#clip620)" style="stroke:#000000; stroke-linecap:round; stroke-linejoin:round; stroke-width:4; stroke-opacity:1; fill:none" points="971.781,1423.18 971.781,1404.28 "/>
<polyline clip-path="url(#clip620)" style="stroke:#000000; stroke-linecap:round; stroke-linejoin:round; stroke-width:4; stroke-opacity:1; fill:none" points="1412.28,1423.18 1412.28,1404.28 "/>
<polyline clip-path="url(#clip620)" style="stroke:#000000; stroke-linecap:round; stroke-linejoin:round; stroke-width:4; stroke-opacity:1; fill:none" points="1852.79,1423.18 1852.79,1404.28 "/>
<polyline clip-path="url(#clip620)" style="stroke:#000000; stroke-linecap:round; stroke-linejoin:round; stroke-width:4; stroke-opacity:1; fill:none" points="2293.29,1423.18 2293.29,1404.28 "/>
<path clip-path="url(#clip620)" d="M525.932 1481.64 L542.251 1481.64 L542.251 1485.58 L520.307 1485.58 L520.307 1481.64 Q522.969 1478.89 527.552 1474.26 Q532.159 1469.61 533.339 1468.27 Q535.585 1465.74 536.464 1464.01 Q537.367 1462.25 537.367 1460.56 Q537.367 1457.8 535.423 1456.07 Q533.501 1454.33 530.4 1454.33 Q528.2 1454.33 525.747 1455.09 Q523.316 1455.86 520.538 1457.41 L520.538 1452.69 Q523.363 1451.55 525.816 1450.97 Q528.27 1450.39 530.307 1450.39 Q535.677 1450.39 538.872 1453.08 Q542.066 1455.77 542.066 1460.26 Q542.066 1462.39 541.256 1464.31 Q540.469 1466.2 538.362 1468.8 Q537.784 1469.47 534.682 1472.69 Q531.58 1475.88 525.932 1481.64 Z" fill="#000000" fill-rule="nonzero" fill-opacity="1" /><path clip-path="url(#clip620)" d="M974.791 1455.09 L962.985 1473.54 L974.791 1473.54 L974.791 1455.09 M973.564 1451.02 L979.443 1451.02 L979.443 1473.54 L984.374 1473.54 L984.374 1477.43 L979.443 1477.43 L979.443 1485.58 L974.791 1485.58 L974.791 1477.43 L959.189 1477.43 L959.189 1472.92 L973.564 1451.02 Z" fill="#000000" fill-rule="nonzero" fill-opacity="1" /><path clip-path="url(#clip620)" d="M1412.69 1466.44 Q1409.54 1466.44 1407.69 1468.59 Q1405.86 1470.74 1405.86 1474.49 Q1405.86 1478.22 1407.69 1480.39 Q1409.54 1482.55 1412.69 1482.55 Q1415.84 1482.55 1417.67 1480.39 Q1419.52 1478.22 1419.52 1474.49 Q1419.52 1470.74 1417.67 1468.59 Q1415.84 1466.44 1412.69 1466.44 M1421.97 1451.78 L1421.97 1456.04 Q1420.21 1455.21 1418.41 1454.77 Q1416.62 1454.33 1414.86 1454.33 Q1410.24 1454.33 1407.78 1457.45 Q1405.35 1460.58 1405 1466.9 Q1406.37 1464.89 1408.43 1463.82 Q1410.49 1462.73 1412.97 1462.73 Q1418.17 1462.73 1421.18 1465.9 Q1424.22 1469.05 1424.22 1474.49 Q1424.22 1479.82 1421.07 1483.03 Q1417.92 1486.25 1412.69 1486.25 Q1406.69 1486.25 1403.52 1481.67 Q1400.35 1477.06 1400.35 1468.33 Q1400.35 1460.14 1404.24 1455.28 Q1408.13 1450.39 1414.68 1450.39 Q1416.44 1450.39 1418.22 1450.74 Q1420.03 1451.09 1421.97 1451.78 Z" fill="#000000" fill-rule="nonzero" fill-opacity="1" /><path clip-path="url(#clip620)" d="M1852.79 1469.17 Q1849.45 1469.17 1847.53 1470.95 Q1845.63 1472.73 1845.63 1475.86 Q1845.63 1478.98 1847.53 1480.77 Q1849.45 1482.55 1852.79 1482.55 Q1856.12 1482.55 1858.04 1480.77 Q1859.96 1478.96 1859.96 1475.86 Q1859.96 1472.73 1858.04 1470.95 Q1856.14 1469.17 1852.79 1469.17 M1848.11 1467.18 Q1845.1 1466.44 1843.41 1464.38 Q1841.74 1462.32 1841.74 1459.35 Q1841.74 1455.21 1844.68 1452.8 Q1847.65 1450.39 1852.79 1450.39 Q1857.95 1450.39 1860.89 1452.8 Q1863.83 1455.21 1863.83 1459.35 Q1863.83 1462.32 1862.14 1464.38 Q1860.47 1466.44 1857.48 1467.18 Q1860.86 1467.96 1862.74 1470.26 Q1864.64 1472.55 1864.64 1475.86 Q1864.64 1480.88 1861.56 1483.57 Q1858.5 1486.25 1852.79 1486.25 Q1847.07 1486.25 1843.99 1483.57 Q1840.93 1480.88 1840.93 1475.86 Q1840.93 1472.55 1842.83 1470.26 Q1844.73 1467.96 1848.11 1467.18 M1846.4 1459.79 Q1846.4 1462.48 1848.06 1463.98 Q1849.75 1465.49 1852.79 1465.49 Q1855.8 1465.49 1857.48 1463.98 Q1859.2 1462.48 1859.2 1459.79 Q1859.2 1457.11 1857.48 1455.6 Q1855.8 1454.1 1852.79 1454.1 Q1849.75 1454.1 1848.06 1455.6 Q1846.4 1457.11 1846.4 1459.79 Z" fill="#000000" fill-rule="nonzero" fill-opacity="1" /><path clip-path="url(#clip620)" d="M2267.98 1481.64 L2275.61 1481.64 L2275.61 1455.28 L2267.3 1456.95 L2267.3 1452.69 L2275.57 1451.02 L2280.24 1451.02 L2280.24 1481.64 L2287.88 1481.64 L2287.88 1485.58 L2267.98 1485.58 L2267.98 1481.64 Z" fill="#000000" fill-rule="nonzero" fill-opacity="1" /><path clip-path="url(#clip620)" d="M2307.33 1454.1 Q2303.72 1454.1 2301.89 1457.66 Q2300.08 1461.2 2300.08 1468.33 Q2300.08 1475.44 2301.89 1479.01 Q2303.72 1482.55 2307.33 1482.55 Q2310.96 1482.55 2312.77 1479.01 Q2314.6 1475.44 2314.6 1468.33 Q2314.6 1461.2 2312.77 1457.66 Q2310.96 1454.1 2307.33 1454.1 M2307.33 1450.39 Q2313.14 1450.39 2316.19 1455 Q2319.27 1459.58 2319.27 1468.33 Q2319.27 1477.06 2316.19 1481.67 Q2313.14 1486.25 2307.33 1486.25 Q2301.52 1486.25 2298.44 1481.67 Q2295.38 1477.06 2295.38 1468.33 Q2295.38 1459.58 2298.44 1455 Q2301.52 1450.39 2307.33 1450.39 Z" fill="#000000" fill-rule="nonzero" fill-opacity="1" /><path clip-path="url(#clip620)" d="M1286.34 1518.52 L1292.23 1518.52 L1292.23 1547.77 L1309.7 1532.4 L1317.18 1532.4 L1298.27 1549.07 L1317.98 1568.04 L1310.34 1568.04 L1292.23 1550.63 L1292.23 1568.04 L1286.34 1568.04 L1286.34 1518.52 Z" fill="#000000" fill-rule="nonzero" fill-opacity="1" /><polyline clip-path="url(#clip622)" style="stroke:#000000; stroke-linecap:round; stroke-linejoin:round; stroke-width:2; stroke-opacity:0.1; fill:none" points="251.56,943.809 2352.76,943.809 "/>
<polyline clip-path="url(#clip622)" style="stroke:#000000; stroke-linecap:round; stroke-linejoin:round; stroke-width:2; stroke-opacity:0.1; fill:none" points="251.56,251.76 2352.76,251.76 "/>
<polyline clip-path="url(#clip620)" style="stroke:#000000; stroke-linecap:round; stroke-linejoin:round; stroke-width:4; stroke-opacity:1; fill:none" points="251.56,1423.18 251.56,123.472 "/>
<polyline clip-path="url(#clip620)" style="stroke:#000000; stroke-linecap:round; stroke-linejoin:round; stroke-width:4; stroke-opacity:1; fill:none" points="251.56,943.809 270.458,943.809 "/>
<polyline clip-path="url(#clip620)" style="stroke:#000000; stroke-linecap:round; stroke-linejoin:round; stroke-width:4; stroke-opacity:1; fill:none" points="251.56,251.76 270.458,251.76 "/>
<path clip-path="url(#clip620)" d="M114.931 963.602 L122.57 963.602 L122.57 937.236 L114.26 938.903 L114.26 934.644 L122.524 932.977 L127.2 932.977 L127.2 963.602 L134.839 963.602 L134.839 967.537 L114.931 967.537 L114.931 963.602 Z" fill="#000000" fill-rule="nonzero" fill-opacity="1" /><path clip-path="url(#clip620)" d="M154.283 936.056 Q150.672 936.056 148.843 939.62 Q147.038 943.162 147.038 950.292 Q147.038 957.398 148.843 960.963 Q150.672 964.504 154.283 964.504 Q157.917 964.504 159.723 960.963 Q161.552 957.398 161.552 950.292 Q161.552 943.162 159.723 939.62 Q157.917 936.056 154.283 936.056 M154.283 932.352 Q160.093 932.352 163.149 936.958 Q166.227 941.542 166.227 950.292 Q166.227 959.018 163.149 963.625 Q160.093 968.208 154.283 968.208 Q148.473 968.208 145.394 963.625 Q142.339 959.018 142.339 950.292 Q142.339 941.542 145.394 936.958 Q148.473 932.352 154.283 932.352 Z" fill="#000000" fill-rule="nonzero" fill-opacity="1" /><path clip-path="url(#clip620)" d="M166.227 926.453 L190.339 926.453 L190.339 929.651 L166.227 929.651 L166.227 926.453 Z" fill="#000000" fill-rule="nonzero" fill-opacity="1" /><path clip-path="url(#clip620)" d="M198.577 912.046 L213.491 912.046 L213.491 915.244 L202.056 915.244 L202.056 922.127 Q202.884 921.845 203.711 921.714 Q204.539 921.563 205.366 921.563 Q210.068 921.563 212.814 924.14 Q215.56 926.717 215.56 931.118 Q215.56 935.65 212.739 938.17 Q209.918 940.672 204.783 940.672 Q203.015 940.672 201.172 940.371 Q199.348 940.07 197.392 939.468 L197.392 935.65 Q199.085 936.572 200.89 937.023 Q202.696 937.475 204.708 937.475 Q207.962 937.475 209.861 935.763 Q211.761 934.052 211.761 931.118 Q211.761 928.184 209.861 926.472 Q207.962 924.76 204.708 924.76 Q203.185 924.76 201.661 925.099 Q200.157 925.438 198.577 926.152 L198.577 912.046 Z" fill="#000000" fill-rule="nonzero" fill-opacity="1" /><path clip-path="url(#clip620)" d="M144.855 271.553 L152.493 271.553 L152.493 245.187 L144.183 246.854 L144.183 242.595 L152.447 240.928 L157.123 240.928 L157.123 271.553 L164.762 271.553 L164.762 275.488 L144.855 275.488 L144.855 271.553 Z" fill="#000000" fill-rule="nonzero" fill-opacity="1" /><path clip-path="url(#clip620)" d="M184.206 244.007 Q180.595 244.007 178.766 247.571 Q176.961 251.113 176.961 258.243 Q176.961 265.349 178.766 268.914 Q180.595 272.456 184.206 272.456 Q187.84 272.456 189.646 268.914 Q191.475 265.349 191.475 258.243 Q191.475 251.113 189.646 247.571 Q187.84 244.007 184.206 244.007 M184.206 240.303 Q190.016 240.303 193.072 244.909 Q196.151 249.493 196.151 258.243 Q196.151 266.969 193.072 271.576 Q190.016 276.159 184.206 276.159 Q178.396 276.159 175.317 271.576 Q172.262 266.969 172.262 258.243 Q172.262 249.493 175.317 244.909 Q178.396 240.303 184.206 240.303 Z" fill="#000000" fill-rule="nonzero" fill-opacity="1" /><path clip-path="url(#clip620)" d="M205.855 222.499 Q202.921 222.499 201.436 225.395 Q199.969 228.273 199.969 234.066 Q199.969 239.84 201.436 242.736 Q202.921 245.614 205.855 245.614 Q208.808 245.614 210.275 242.736 Q211.761 239.84 211.761 234.066 Q211.761 228.273 210.275 225.395 Q208.808 222.499 205.855 222.499 M205.855 219.49 Q210.576 219.49 213.059 223.232 Q215.56 226.956 215.56 234.066 Q215.56 241.156 213.059 244.899 Q210.576 248.623 205.855 248.623 Q201.135 248.623 198.633 244.899 Q196.151 241.156 196.151 234.066 Q196.151 226.956 198.633 223.232 Q201.135 219.49 205.855 219.49 Z" fill="#000000" fill-rule="nonzero" fill-opacity="1" /><path clip-path="url(#clip620)" d="M32.4621 801.797 Q32.4621 806.507 36.1542 809.244 Q39.8145 811.982 46.212 811.982 Q52.6095 811.982 56.3017 809.276 Q59.9619 806.539 59.9619 801.797 Q59.9619 797.118 56.2698 794.381 Q52.5777 791.643 46.212 791.643 Q39.8781 791.643 36.186 794.381 Q32.4621 797.118 32.4621 801.797 M27.4968 801.797 Q27.4968 794.158 32.4621 789.797 Q37.4273 785.437 46.212 785.437 Q54.9649 785.437 59.9619 789.797 Q64.9272 794.158 64.9272 801.797 Q64.9272 809.467 59.9619 813.828 Q54.9649 818.156 46.212 818.156 Q37.4273 818.156 32.4621 813.828 Q27.4968 809.467 27.4968 801.797 Z" fill="#000000" fill-rule="nonzero" fill-opacity="1" /><path clip-path="url(#clip620)" d="M46.212 750.139 Q39.7508 750.139 36.0905 752.812 Q32.3984 755.454 32.3984 760.101 Q32.3984 764.748 36.0905 767.422 Q39.7508 770.064 46.212 770.064 Q52.6732 770.064 56.3653 767.422 Q60.0256 764.748 60.0256 760.101 Q60.0256 755.454 56.3653 752.812 Q52.6732 750.139 46.212 750.139 M33.7671 770.064 Q30.5842 768.218 29.0564 765.417 Q27.4968 762.584 27.4968 758.669 Q27.4968 752.176 32.6531 748.134 Q37.8093 744.06 46.212 744.06 Q54.6147 744.06 59.771 748.134 Q64.9272 752.176 64.9272 758.669 Q64.9272 762.584 63.3994 765.417 Q61.8398 768.218 58.657 770.064 L64.0042 770.064 L64.0042 775.952 L14.479 775.952 L14.479 770.064 L33.7671 770.064 Z" fill="#000000" fill-rule="nonzero" fill-opacity="1" /><path clip-path="url(#clip620)" d="M28.3562 734.352 L28.3562 728.495 L64.6407 728.495 Q71.452 728.495 74.5076 731.105 Q77.5631 733.684 77.5631 739.445 L77.5631 741.673 L72.5979 741.673 L72.5979 740.113 Q72.5979 736.771 71.0383 735.561 Q69.5105 734.352 64.6407 734.352 L28.3562 734.352 M14.479 734.352 L14.479 728.495 L21.895 728.495 L21.895 734.352 L14.479 734.352 Z" fill="#000000" fill-rule="nonzero" fill-opacity="1" /><path clip-path="url(#clip620)" d="M932.857 65.7705 L932.857 89.8329 L925.363 89.8329 L925.363 27.2059 L932.857 27.2059 L932.857 34.0924 Q935.207 30.0415 938.772 28.0971 Q942.377 26.1121 947.36 26.1121 Q955.623 26.1121 960.768 32.6746 Q965.953 39.2371 965.953 49.9314 Q965.953 60.6258 960.768 67.1883 Q955.623 73.7508 947.36 73.7508 Q942.377 73.7508 938.772 71.8063 Q935.207 69.8214 932.857 65.7705 M958.216 49.9314 Q958.216 41.7081 954.813 37.0496 Q951.451 32.3505 945.537 32.3505 Q939.622 32.3505 936.22 37.0496 Q932.857 41.7081 932.857 49.9314 Q932.857 58.1548 936.22 62.8538 Q939.622 67.5124 945.537 67.5124 Q951.451 67.5124 954.813 62.8538 Q958.216 58.1548 958.216 49.9314 Z" fill="#000000" fill-rule="nonzero" fill-opacity="1" /><path clip-path="url(#clip620)" d="M1004.6 34.1734 Q1003.34 33.4443 1001.84 33.1202 Q1000.39 32.7556 998.604 32.7556 Q992.284 32.7556 988.881 36.8875 Q985.519 40.9789 985.519 48.6757 L985.519 72.576 L978.025 72.576 L978.025 27.2059 L985.519 27.2059 L985.519 34.2544 Q987.869 30.1225 991.636 28.1376 Q995.403 26.1121 1000.79 26.1121 Q1001.56 26.1121 1002.49 26.2337 Q1003.42 26.3147 1004.56 26.5172 L1004.6 34.1734 Z" fill="#000000" fill-rule="nonzero" fill-opacity="1" /><path clip-path="url(#clip620)" d="M1028.18 32.4315 Q1022.18 32.4315 1018.7 37.1306 Q1015.21 41.7891 1015.21 49.9314 Q1015.21 58.0738 1018.66 62.7728 Q1022.14 67.4314 1028.18 67.4314 Q1034.13 67.4314 1037.61 62.7323 Q1041.1 58.0333 1041.1 49.9314 Q1041.1 41.8701 1037.61 37.1711 Q1034.13 32.4315 1028.18 32.4315 M1028.18 26.1121 Q1037.9 26.1121 1043.45 32.4315 Q1049 38.7509 1049 49.9314 Q1049 61.0714 1043.45 67.4314 Q1037.9 73.7508 1028.18 73.7508 Q1018.41 73.7508 1012.86 67.4314 Q1007.35 61.0714 1007.35 49.9314 Q1007.35 38.7509 1012.86 32.4315 Q1018.41 26.1121 1028.18 26.1121 Z" fill="#000000" fill-rule="nonzero" fill-opacity="1" /><path clip-path="url(#clip620)" d="M1093.92 49.9314 Q1093.92 41.7081 1090.52 37.0496 Q1087.16 32.3505 1081.24 32.3505 Q1075.33 32.3505 1071.92 37.0496 Q1068.56 41.7081 1068.56 49.9314 Q1068.56 58.1548 1071.92 62.8538 Q1075.33 67.5124 1081.24 67.5124 Q1087.16 67.5124 1090.52 62.8538 Q1093.92 58.1548 1093.92 49.9314 M1068.56 34.0924 Q1070.91 30.0415 1074.48 28.0971 Q1078.08 26.1121 1083.06 26.1121 Q1091.33 26.1121 1096.47 32.6746 Q1101.66 39.2371 1101.66 49.9314 Q1101.66 60.6258 1096.47 67.1883 Q1091.33 73.7508 1083.06 73.7508 Q1078.08 73.7508 1074.48 71.8063 Q1070.91 69.8214 1068.56 65.7705 L1068.56 72.576 L1061.07 72.576 L1061.07 9.54393 L1068.56 9.54393 L1068.56 34.0924 Z" fill="#000000" fill-rule="nonzero" fill-opacity="1" /><path clip-path="url(#clip620)" d="M1114.01 9.54393 L1121.47 9.54393 L1121.47 72.576 L1114.01 72.576 L1114.01 9.54393 Z" fill="#000000" fill-rule="nonzero" fill-opacity="1" /><path clip-path="url(#clip620)" d="M1175.87 48.0275 L1175.87 51.6733 L1141.6 51.6733 Q1142.09 59.3701 1146.22 63.421 Q1150.39 67.4314 1157.8 67.4314 Q1162.1 67.4314 1166.11 66.3781 Q1170.16 65.3249 1174.13 63.2184 L1174.13 70.267 Q1170.12 71.9684 1165.91 72.8596 Q1161.69 73.7508 1157.36 73.7508 Q1146.5 73.7508 1140.14 67.4314 Q1133.82 61.1119 1133.82 50.3365 Q1133.82 39.1965 1139.82 32.6746 Q1145.85 26.1121 1156.06 26.1121 Q1165.22 26.1121 1170.52 32.0264 Q1175.87 37.9003 1175.87 48.0275 M1168.42 45.84 Q1168.34 39.7232 1164.97 36.0774 Q1161.65 32.4315 1156.14 32.4315 Q1149.9 32.4315 1146.14 35.9558 Q1142.41 39.4801 1141.84 45.8805 L1168.42 45.84 M1149.74 6.22219 L1161.17 21.3726 L1154.97 21.3726 L1141.76 6.22219 L1149.74 6.22219 Z" fill="#000000" fill-rule="nonzero" fill-opacity="1" /><path clip-path="url(#clip620)" d="M1223.43 35.9153 Q1226.22 30.8922 1230.11 28.5022 Q1234 26.1121 1239.27 26.1121 Q1246.36 26.1121 1250.21 31.0947 Q1254.05 36.0368 1254.05 45.1919 L1254.05 72.576 L1246.56 72.576 L1246.56 45.4349 Q1246.56 38.913 1244.25 35.7533 Q1241.94 32.5936 1237.2 32.5936 Q1231.41 32.5936 1228.05 36.4419 Q1224.68 40.2903 1224.68 46.9338 L1224.68 72.576 L1217.19 72.576 L1217.19 45.4349 Q1217.19 38.8725 1214.88 35.7533 Q1212.57 32.5936 1207.75 32.5936 Q1202.04 32.5936 1198.68 36.4824 Q1195.32 40.3308 1195.32 46.9338 L1195.32 72.576 L1187.82 72.576 L1187.82 27.2059 L1195.32 27.2059 L1195.32 34.2544 Q1197.87 30.082 1201.43 28.0971 Q1205 26.1121 1209.9 26.1121 Q1214.84 26.1121 1218.28 28.6237 Q1221.77 31.1352 1223.43 35.9153 Z" fill="#000000" fill-rule="nonzero" fill-opacity="1" /><path clip-path="url(#clip620)" d="M1307.73 48.0275 L1307.73 51.6733 L1273.46 51.6733 Q1273.94 59.3701 1278.08 63.421 Q1282.25 67.4314 1289.66 67.4314 Q1293.95 67.4314 1297.97 66.3781 Q1302.02 65.3249 1305.99 63.2184 L1305.99 70.267 Q1301.98 71.9684 1297.76 72.8596 Q1293.55 73.7508 1289.22 73.7508 Q1278.36 73.7508 1272 67.4314 Q1265.68 61.1119 1265.68 50.3365 Q1265.68 39.1965 1271.68 32.6746 Q1277.71 26.1121 1287.92 26.1121 Q1297.07 26.1121 1302.38 32.0264 Q1307.73 37.9003 1307.73 48.0275 M1300.27 45.84 Q1300.19 39.7232 1296.83 36.0774 Q1293.51 32.4315 1288 32.4315 Q1281.76 32.4315 1277.99 35.9558 Q1274.27 39.4801 1273.7 45.8805 L1300.27 45.84 Z" fill="#000000" fill-rule="nonzero" fill-opacity="1" /><path clip-path="url(#clip620)" d="M1348.24 62.2867 L1356.78 62.2867 L1356.78 72.576 L1348.24 72.576 L1348.24 62.2867 M1348.24 29.6769 L1356.78 29.6769 L1356.78 39.9662 L1348.24 39.9662 L1348.24 29.6769 Z" fill="#000000" fill-rule="nonzero" fill-opacity="1" /><path clip-path="url(#clip620)" d="M1435.98 35.9153 Q1438.77 30.8922 1442.66 28.5022 Q1446.55 26.1121 1451.82 26.1121 Q1458.91 26.1121 1462.76 31.0947 Q1466.6 36.0368 1466.6 45.1919 L1466.6 72.576 L1459.11 72.576 L1459.11 45.4349 Q1459.11 38.913 1456.8 35.7533 Q1454.49 32.5936 1449.75 32.5936 Q1443.96 32.5936 1440.6 36.4419 Q1437.24 40.2903 1437.24 46.9338 L1437.24 72.576 L1429.74 72.576 L1429.74 45.4349 Q1429.74 38.8725 1427.43 35.7533 Q1425.12 32.5936 1420.3 32.5936 Q1414.59 32.5936 1411.23 36.4824 Q1407.87 40.3308 1407.87 46.9338 L1407.87 72.576 L1400.37 72.576 L1400.37 27.2059 L1407.87 27.2059 L1407.87 34.2544 Q1410.42 30.082 1413.98 28.0971 Q1417.55 26.1121 1422.45 26.1121 Q1427.39 26.1121 1430.84 28.6237 Q1434.32 31.1352 1435.98 35.9153 Z" fill="#000000" fill-rule="nonzero" fill-opacity="1" /><path clip-path="url(#clip620)" d="M1511.33 49.3643 Q1511.33 41.2625 1507.96 36.8065 Q1504.64 32.3505 1498.61 32.3505 Q1492.61 32.3505 1489.25 36.8065 Q1485.93 41.2625 1485.93 49.3643 Q1485.93 57.4256 1489.25 61.8816 Q1492.61 66.3376 1498.61 66.3376 Q1504.64 66.3376 1507.96 61.8816 Q1511.33 57.4256 1511.33 49.3643 M1518.78 66.9452 Q1518.78 78.5308 1513.64 84.1616 Q1508.49 89.8329 1497.88 89.8329 Q1493.95 89.8329 1490.46 89.2252 Q1486.98 88.6581 1483.7 87.4428 L1483.7 80.1917 Q1486.98 81.9741 1490.18 82.8248 Q1493.38 83.6755 1496.7 83.6755 Q1504.03 83.6755 1507.68 79.8271 Q1511.33 76.0193 1511.33 68.282 L1511.33 64.5957 Q1509.02 68.6061 1505.41 70.5911 Q1501.81 72.576 1496.78 72.576 Q1488.44 72.576 1483.33 66.2161 Q1478.23 59.8562 1478.23 49.3643 Q1478.23 38.832 1483.33 32.472 Q1488.44 26.1121 1496.78 26.1121 Q1501.81 26.1121 1505.41 28.0971 Q1509.02 30.082 1511.33 34.0924 L1511.33 27.2059 L1518.78 27.2059 L1518.78 66.9452 Z" fill="#000000" fill-rule="nonzero" fill-opacity="1" /><path clip-path="url(#clip620)" d="M1571.85 45.1919 L1571.85 72.576 L1564.39 72.576 L1564.39 45.4349 Q1564.39 38.994 1561.88 35.7938 Q1559.37 32.5936 1554.35 32.5936 Q1548.31 32.5936 1544.83 36.4419 Q1541.34 40.2903 1541.34 46.9338 L1541.34 72.576 L1533.85 72.576 L1533.85 9.54393 L1541.34 9.54393 L1541.34 34.2544 Q1544.02 30.163 1547.62 28.1376 Q1551.27 26.1121 1556.01 26.1121 Q1563.83 26.1121 1567.84 30.9732 Q1571.85 35.7938 1571.85 45.1919 Z" fill="#000000" fill-rule="nonzero" fill-opacity="1" /><path clip-path="url(#clip620)" d="M1612.56 39.9662 Q1618.43 41.222 1621.71 45.1919 Q1625.04 49.1618 1625.04 54.9951 Q1625.04 63.9476 1618.88 68.8492 Q1612.72 73.7508 1601.38 73.7508 Q1597.57 73.7508 1593.52 72.9811 Q1589.51 72.2519 1585.22 70.7531 L1585.22 62.8538 Q1588.62 64.8388 1592.67 65.8515 Q1596.72 66.8642 1601.14 66.8642 Q1608.83 66.8642 1612.84 63.826 Q1616.89 60.7879 1616.89 54.9951 Q1616.89 49.6479 1613.13 46.6502 Q1609.4 43.612 1602.71 43.612 L1595.67 43.612 L1595.67 36.8875 L1603.04 36.8875 Q1609.07 36.8875 1612.28 34.4975 Q1615.48 32.067 1615.48 27.5299 Q1615.48 22.8714 1612.15 20.4004 Q1608.87 17.8888 1602.71 17.8888 Q1599.35 17.8888 1595.5 18.618 Q1591.66 19.3471 1587.04 20.8865 L1587.04 13.5948 Q1591.7 12.2985 1595.75 11.6504 Q1599.84 11.0023 1603.44 11.0023 Q1612.76 11.0023 1618.19 15.2557 Q1623.62 19.4686 1623.62 26.6793 Q1623.62 31.7024 1620.74 35.1862 Q1617.87 38.6294 1612.56 39.9662 Z" fill="#000000" fill-rule="nonzero" fill-opacity="1" /><path clip-path="url(#clip620)" d="M1658.05 17.4837 Q1651.73 17.4837 1648.53 23.7221 Q1645.37 29.92 1645.37 42.3968 Q1645.37 54.833 1648.53 61.0714 Q1651.73 67.2693 1658.05 67.2693 Q1664.41 67.2693 1667.57 61.0714 Q1670.77 54.833 1670.77 42.3968 Q1670.77 29.92 1667.57 23.7221 Q1664.41 17.4837 1658.05 17.4837 M1658.05 11.0023 Q1668.22 11.0023 1673.57 19.0636 Q1678.95 27.0843 1678.95 42.3968 Q1678.95 57.6687 1673.57 65.73 Q1668.22 73.7508 1658.05 73.7508 Q1647.88 73.7508 1642.49 65.73 Q1637.15 57.6687 1637.15 42.3968 Q1637.15 27.0843 1642.49 19.0636 Q1647.88 11.0023 1658.05 11.0023 Z" fill="#000000" fill-rule="nonzero" fill-opacity="1" /><polyline clip-path="url(#clip622)" style="stroke:#009af9; stroke-linecap:round; stroke-linejoin:round; stroke-width:4; stroke-opacity:1; fill:none" points="311.028,160.256 531.279,265.426 751.53,385.984 971.781,518.832 1192.03,661.148 1412.28,858.155 1632.53,1035.5 1852.79,1220.92 2073.04,1386.4 "/>
<polyline clip-path="url(#clip622)" style="stroke:#e26f46; stroke-linecap:round; stroke-linejoin:round; stroke-width:4; stroke-opacity:1; fill:none" points="311.028,160.256 531.279,265.426 751.53,385.613 971.781,532.733 1192.03,677.457 1412.28,822.55 1632.53,972.429 1852.79,1143.5 2073.04,1304.84 "/>
<polyline clip-path="url(#clip622)" style="stroke:#3da44d; stroke-linecap:round; stroke-linejoin:round; stroke-width:4; stroke-opacity:1; fill:none" points="311.028,160.256 531.279,265.426 751.53,385.38 971.781,509.46 1192.03,633.276 1412.28,756.766 1632.53,880.094 1852.79,1003.35 2073.04,1126.57 2293.29,1249.78 "/>
<path clip-path="url(#clip620)" d="M1509.08 374.156 L2282.72 374.156 L2282.72 166.796 L1509.08 166.796  Z" fill="#ffffff" fill-rule="evenodd" fill-opacity="1"/>
<polyline clip-path="url(#clip620)" style="stroke:#000000; stroke-linecap:round; stroke-linejoin:round; stroke-width:4; stroke-opacity:1; fill:none" points="1509.08,374.156 2282.72,374.156 2282.72,166.796 1509.08,166.796 1509.08,374.156 "/>
<polyline clip-path="url(#clip620)" style="stroke:#009af9; stroke-linecap:round; stroke-linejoin:round; stroke-width:4; stroke-opacity:1; fill:none" points="1532.43,218.636 1672.51,218.636 "/>
<path clip-path="url(#clip620)" d="M1695.85 201.356 L1700.53 201.356 L1700.53 231.981 L1717.36 231.981 L1717.36 235.916 L1695.85 235.916 L1695.85 201.356 Z" fill="#000000" fill-rule="nonzero" fill-opacity="1" /><path clip-path="url(#clip620)" d="M1722.27 201.356 L1729.23 201.356 L1738.05 224.874 L1746.92 201.356 L1753.89 201.356 L1753.89 235.916 L1749.33 235.916 L1749.33 205.569 L1740.41 229.272 L1735.71 229.272 L1726.8 205.569 L1726.8 235.916 L1722.27 235.916 L1722.27 201.356 Z" fill="#000000" fill-rule="nonzero" fill-opacity="1" /><path clip-path="url(#clip620)" d="M1782.68 243.786 L1782.68 247.096 L1758.05 247.096 L1758.05 243.786 L1782.68 243.786 Z" fill="#000000" fill-rule="nonzero" fill-opacity="1" /><path clip-path="url(#clip620)" d="M1798.42 205.962 L1792.08 223.161 L1804.79 223.161 L1798.42 205.962 M1795.78 201.356 L1801.08 201.356 L1814.26 235.916 L1809.39 235.916 L1806.25 227.05 L1790.67 227.05 L1787.52 235.916 L1782.59 235.916 L1795.78 201.356 Z" fill="#000000" fill-rule="nonzero" fill-opacity="1" /><path clip-path="url(#clip620)" d="M1840.67 220.268 L1840.67 235.916 L1836.41 235.916 L1836.41 220.407 Q1836.41 216.726 1834.97 214.897 Q1833.54 213.069 1830.67 213.069 Q1827.22 213.069 1825.23 215.268 Q1823.24 217.467 1823.24 221.263 L1823.24 235.916 L1818.96 235.916 L1818.96 209.99 L1823.24 209.99 L1823.24 214.018 Q1824.77 211.68 1826.83 210.522 Q1828.91 209.365 1831.62 209.365 Q1836.08 209.365 1838.38 212.143 Q1840.67 214.897 1840.67 220.268 Z" fill="#000000" fill-rule="nonzero" fill-opacity="1" /><path clip-path="url(#clip620)" d="M1866.22 213.925 L1866.22 199.897 L1870.48 199.897 L1870.48 235.916 L1866.22 235.916 L1866.22 232.027 Q1864.88 234.342 1862.82 235.476 Q1860.78 236.587 1857.91 236.587 Q1853.21 236.587 1850.25 232.837 Q1847.31 229.087 1847.31 222.976 Q1847.31 216.865 1850.25 213.115 Q1853.21 209.365 1857.91 209.365 Q1860.78 209.365 1862.82 210.499 Q1864.88 211.61 1866.22 213.925 M1851.71 222.976 Q1851.71 227.675 1853.63 230.36 Q1855.58 233.022 1858.95 233.022 Q1862.33 233.022 1864.28 230.36 Q1866.22 227.675 1866.22 222.976 Q1866.22 218.277 1864.28 215.615 Q1862.33 212.93 1858.95 212.93 Q1855.58 212.93 1853.63 215.615 Q1851.71 218.277 1851.71 222.976 Z" fill="#000000" fill-rule="nonzero" fill-opacity="1" /><path clip-path="url(#clip620)" d="M1894.28 213.971 Q1893.56 213.555 1892.7 213.37 Q1891.87 213.161 1890.85 213.161 Q1887.24 213.161 1885.3 215.522 Q1883.38 217.86 1883.38 222.258 L1883.38 235.916 L1879.09 235.916 L1879.09 209.99 L1883.38 209.99 L1883.38 214.018 Q1884.72 211.657 1886.87 210.522 Q1889.02 209.365 1892.1 209.365 Q1892.54 209.365 1893.08 209.434 Q1893.61 209.481 1894.26 209.596 L1894.28 213.971 Z" fill="#000000" fill-rule="nonzero" fill-opacity="1" /><path clip-path="url(#clip620)" d="M1919.88 221.888 L1919.88 223.971 L1900.3 223.971 Q1900.58 228.369 1902.94 230.684 Q1905.32 232.976 1909.56 232.976 Q1912.01 232.976 1914.3 232.374 Q1916.62 231.772 1918.89 230.569 L1918.89 234.596 Q1916.59 235.568 1914.19 236.078 Q1911.78 236.587 1909.3 236.587 Q1903.1 236.587 1899.46 232.976 Q1895.85 229.365 1895.85 223.207 Q1895.85 216.842 1899.28 213.115 Q1902.73 209.365 1908.56 209.365 Q1913.79 209.365 1916.82 212.745 Q1919.88 216.101 1919.88 221.888 M1915.62 220.638 Q1915.57 217.143 1913.65 215.059 Q1911.76 212.976 1908.61 212.976 Q1905.04 212.976 1902.89 214.99 Q1900.76 217.004 1900.44 220.661 L1915.62 220.638 Z" fill="#000000" fill-rule="nonzero" fill-opacity="1" /><path clip-path="url(#clip620)" d="M1926.87 209.99 L1931.13 209.99 L1931.13 235.916 L1926.87 235.916 L1926.87 209.99 M1926.87 199.897 L1931.13 199.897 L1931.13 205.291 L1926.87 205.291 L1926.87 199.897 Z" fill="#000000" fill-rule="nonzero" fill-opacity="1" /><path clip-path="url(#clip620)" d="M1959.74 243.786 L1959.74 247.096 L1935.11 247.096 L1935.11 243.786 L1959.74 243.786 Z" fill="#000000" fill-rule="nonzero" fill-opacity="1" /><path clip-path="url(#clip620)" d="M1966.29 222.976 Q1966.29 227.675 1968.21 230.36 Q1970.16 233.022 1973.54 233.022 Q1976.92 233.022 1978.86 230.36 Q1980.81 227.675 1980.81 222.976 Q1980.81 218.277 1978.86 215.615 Q1976.92 212.93 1973.54 212.93 Q1970.16 212.93 1968.21 215.615 Q1966.29 218.277 1966.29 222.976 M1980.81 232.027 Q1979.46 234.342 1977.4 235.476 Q1975.37 236.587 1972.5 236.587 Q1967.8 236.587 1964.83 232.837 Q1961.89 229.087 1961.89 222.976 Q1961.89 216.865 1964.83 213.115 Q1967.8 209.365 1972.5 209.365 Q1975.37 209.365 1977.4 210.499 Q1979.46 211.61 1980.81 213.925 L1980.81 209.99 L1985.07 209.99 L1985.07 245.777 L1980.81 245.777 L1980.81 232.027 Z" fill="#000000" fill-rule="nonzero" fill-opacity="1" /><path clip-path="url(#clip620)" d="M1993.4 225.684 L1993.4 209.99 L1997.66 209.99 L1997.66 225.522 Q1997.66 229.203 1999.09 231.055 Q2000.53 232.883 2003.4 232.883 Q2006.85 232.883 2008.84 230.684 Q2010.85 228.485 2010.85 224.689 L2010.85 209.99 L2015.11 209.99 L2015.11 235.916 L2010.85 235.916 L2010.85 231.934 Q2009.3 234.295 2007.24 235.453 Q2005.2 236.587 2002.5 236.587 Q1998.03 236.587 1995.71 233.809 Q1993.4 231.031 1993.4 225.684 M2004.12 209.365 L2004.12 209.365 Z" fill="#000000" fill-rule="nonzero" fill-opacity="1" /><path clip-path="url(#clip620)" d="M2035.67 222.883 Q2030.5 222.883 2028.51 224.064 Q2026.52 225.244 2026.52 228.092 Q2026.52 230.36 2028 231.703 Q2029.51 233.022 2032.08 233.022 Q2035.62 233.022 2037.75 230.522 Q2039.9 227.999 2039.9 223.832 L2039.9 222.883 L2035.67 222.883 M2044.16 221.124 L2044.16 235.916 L2039.9 235.916 L2039.9 231.981 Q2038.44 234.342 2036.27 235.476 Q2034.09 236.587 2030.94 236.587 Q2026.96 236.587 2024.6 234.365 Q2022.26 232.119 2022.26 228.369 Q2022.26 223.994 2025.18 221.772 Q2028.12 219.55 2033.93 219.55 L2039.9 219.55 L2039.9 219.133 Q2039.9 216.194 2037.96 214.596 Q2036.04 212.976 2032.54 212.976 Q2030.32 212.976 2028.21 213.508 Q2026.11 214.041 2024.16 215.106 L2024.16 211.17 Q2026.5 210.268 2028.7 209.828 Q2030.9 209.365 2032.98 209.365 Q2038.61 209.365 2041.38 212.282 Q2044.16 215.198 2044.16 221.124 Z" fill="#000000" fill-rule="nonzero" fill-opacity="1" /><path clip-path="url(#clip620)" d="M2069.46 210.754 L2069.46 214.782 Q2067.66 213.856 2065.71 213.393 Q2063.77 212.93 2061.69 212.93 Q2058.51 212.93 2056.92 213.902 Q2055.34 214.874 2055.34 216.819 Q2055.34 218.3 2056.48 219.157 Q2057.61 219.99 2061.04 220.754 L2062.5 221.078 Q2067.03 222.05 2068.93 223.832 Q2070.85 225.592 2070.85 228.763 Q2070.85 232.374 2067.98 234.481 Q2065.13 236.587 2060.13 236.587 Q2058.05 236.587 2055.78 236.17 Q2053.54 235.777 2051.04 234.967 L2051.04 230.569 Q2053.4 231.795 2055.69 232.42 Q2057.98 233.022 2060.23 233.022 Q2063.24 233.022 2064.86 232.004 Q2066.48 230.962 2066.48 229.087 Q2066.48 227.351 2065.3 226.425 Q2064.14 225.499 2060.18 224.643 L2058.7 224.295 Q2054.74 223.462 2052.98 221.749 Q2051.22 220.013 2051.22 217.004 Q2051.22 213.346 2053.81 211.356 Q2056.41 209.365 2061.18 209.365 Q2063.54 209.365 2065.62 209.712 Q2067.7 210.059 2069.46 210.754 Z" fill="#000000" fill-rule="nonzero" fill-opacity="1" /><path clip-path="url(#clip620)" d="M2077.63 209.99 L2081.89 209.99 L2081.89 235.916 L2077.63 235.916 L2077.63 209.99 M2077.63 199.897 L2081.89 199.897 L2081.89 205.291 L2077.63 205.291 L2077.63 199.897 Z" fill="#000000" fill-rule="nonzero" fill-opacity="1" /><path clip-path="url(#clip620)" d="M2110.5 243.786 L2110.5 247.096 L2085.87 247.096 L2085.87 243.786 L2110.5 243.786 Z" fill="#000000" fill-rule="nonzero" fill-opacity="1" /><path clip-path="url(#clip620)" d="M2136.06 220.268 L2136.06 235.916 L2131.8 235.916 L2131.8 220.407 Q2131.8 216.726 2130.37 214.897 Q2128.93 213.069 2126.06 213.069 Q2122.61 213.069 2120.62 215.268 Q2118.63 217.467 2118.63 221.263 L2118.63 235.916 L2114.35 235.916 L2114.35 209.99 L2118.63 209.99 L2118.63 214.018 Q2120.16 211.68 2122.22 210.522 Q2124.3 209.365 2127.01 209.365 Q2131.48 209.365 2133.77 212.143 Q2136.06 214.897 2136.06 220.268 Z" fill="#000000" fill-rule="nonzero" fill-opacity="1" /><path clip-path="url(#clip620)" d="M2144.12 225.684 L2144.12 209.99 L2148.37 209.99 L2148.37 225.522 Q2148.37 229.203 2149.81 231.055 Q2151.25 232.883 2154.12 232.883 Q2157.56 232.883 2159.56 230.684 Q2161.57 228.485 2161.57 224.689 L2161.57 209.99 L2165.83 209.99 L2165.83 235.916 L2161.57 235.916 L2161.57 231.934 Q2160.02 234.295 2157.96 235.453 Q2155.92 236.587 2153.21 236.587 Q2148.75 236.587 2146.43 233.809 Q2144.12 231.031 2144.12 225.684 M2154.83 209.365 L2154.83 209.365 Z" fill="#000000" fill-rule="nonzero" fill-opacity="1" /><path clip-path="url(#clip620)" d="M2174.6 199.897 L2178.86 199.897 L2178.86 235.916 L2174.6 235.916 L2174.6 199.897 Z" fill="#000000" fill-rule="nonzero" fill-opacity="1" /><path clip-path="url(#clip620)" d="M2207.47 243.786 L2207.47 247.096 L2182.84 247.096 L2182.84 243.786 L2207.47 243.786 Z" fill="#000000" fill-rule="nonzero" fill-opacity="1" /><path clip-path="url(#clip620)" d="M2211.48 199.897 L2215.74 199.897 L2215.74 235.916 L2211.48 235.916 L2211.48 199.897 Z" fill="#000000" fill-rule="nonzero" fill-opacity="1" /><path clip-path="url(#clip620)" d="M2224.65 209.99 L2228.91 209.99 L2228.91 235.916 L2224.65 235.916 L2224.65 209.99 M2224.65 199.897 L2228.91 199.897 L2228.91 205.291 L2224.65 205.291 L2224.65 199.897 Z" fill="#000000" fill-rule="nonzero" fill-opacity="1" /><path clip-path="url(#clip620)" d="M2259.37 220.268 L2259.37 235.916 L2255.11 235.916 L2255.11 220.407 Q2255.11 216.726 2253.68 214.897 Q2252.24 213.069 2249.37 213.069 Q2245.92 213.069 2243.93 215.268 Q2241.94 217.467 2241.94 221.263 L2241.94 235.916 L2237.66 235.916 L2237.66 209.99 L2241.94 209.99 L2241.94 214.018 Q2243.47 211.68 2245.53 210.522 Q2247.61 209.365 2250.32 209.365 Q2254.79 209.365 2257.08 212.143 Q2259.37 214.897 2259.37 220.268 Z" fill="#000000" fill-rule="nonzero" fill-opacity="1" /><polyline clip-path="url(#clip620)" style="stroke:#e26f46; stroke-linecap:round; stroke-linejoin:round; stroke-width:4; stroke-opacity:1; fill:none" points="1532.43,270.476 1672.51,270.476 "/>
<path clip-path="url(#clip620)" d="M1695.85 253.196 L1700.53 253.196 L1700.53 283.821 L1717.36 283.821 L1717.36 287.756 L1695.85 287.756 L1695.85 253.196 Z" fill="#000000" fill-rule="nonzero" fill-opacity="1" /><path clip-path="url(#clip620)" d="M1722.27 253.196 L1729.23 253.196 L1738.05 276.714 L1746.92 253.196 L1753.89 253.196 L1753.89 287.756 L1749.33 287.756 L1749.33 257.409 L1740.41 281.112 L1735.71 281.112 L1726.8 257.409 L1726.8 287.756 L1722.27 287.756 L1722.27 253.196 Z" fill="#000000" fill-rule="nonzero" fill-opacity="1" /><path clip-path="url(#clip620)" d="M1782.68 295.626 L1782.68 298.936 L1758.05 298.936 L1758.05 295.626 L1782.68 295.626 Z" fill="#000000" fill-rule="nonzero" fill-opacity="1" /><path clip-path="url(#clip620)" d="M1784.88 253.196 L1812.03 253.196 L1812.03 256.761 L1790.18 283.821 L1812.57 283.821 L1812.57 287.756 L1784.35 287.756 L1784.35 284.191 L1806.2 257.131 L1784.88 257.131 L1784.88 253.196 Z" fill="#000000" fill-rule="nonzero" fill-opacity="1" /><path clip-path="url(#clip620)" d="M1840.71 272.108 L1840.71 287.756 L1836.46 287.756 L1836.46 272.247 Q1836.46 268.566 1835.02 266.737 Q1833.58 264.909 1830.71 264.909 Q1827.27 264.909 1825.27 267.108 Q1823.28 269.307 1823.28 273.103 L1823.28 287.756 L1819 287.756 L1819 251.737 L1823.28 251.737 L1823.28 265.858 Q1824.81 263.52 1826.87 262.362 Q1828.96 261.205 1831.66 261.205 Q1836.13 261.205 1838.42 263.983 Q1840.71 266.737 1840.71 272.108 Z" fill="#000000" fill-rule="nonzero" fill-opacity="1" /><path clip-path="url(#clip620)" d="M1848.77 277.524 L1848.77 261.83 L1853.03 261.83 L1853.03 277.362 Q1853.03 281.043 1854.46 282.895 Q1855.9 284.723 1858.77 284.723 Q1862.22 284.723 1864.21 282.524 Q1866.22 280.325 1866.22 276.529 L1866.22 261.83 L1870.48 261.83 L1870.48 287.756 L1866.22 287.756 L1866.22 283.774 Q1864.67 286.135 1862.61 287.293 Q1860.58 288.427 1857.87 288.427 Q1853.4 288.427 1851.08 285.649 Q1848.77 282.871 1848.77 277.524 M1859.49 261.205 L1859.49 261.205 Z" fill="#000000" fill-rule="nonzero" fill-opacity="1" /><path clip-path="url(#clip620)" d="M1898.95 295.626 L1898.95 298.936 L1874.33 298.936 L1874.33 295.626 L1898.95 295.626 Z" fill="#000000" fill-rule="nonzero" fill-opacity="1" /><path clip-path="url(#clip620)" d="M1905.51 274.816 Q1905.51 279.515 1907.43 282.2 Q1909.37 284.862 1912.75 284.862 Q1916.13 284.862 1918.07 282.2 Q1920.02 279.515 1920.02 274.816 Q1920.02 270.117 1918.07 267.455 Q1916.13 264.77 1912.75 264.77 Q1909.37 264.77 1907.43 267.455 Q1905.51 270.117 1905.51 274.816 M1920.02 283.867 Q1918.68 286.182 1916.62 287.316 Q1914.58 288.427 1911.71 288.427 Q1907.01 288.427 1904.05 284.677 Q1901.11 280.927 1901.11 274.816 Q1901.11 268.705 1904.05 264.955 Q1907.01 261.205 1911.71 261.205 Q1914.58 261.205 1916.62 262.339 Q1918.68 263.45 1920.02 265.765 L1920.02 261.83 L1924.28 261.83 L1924.28 297.617 L1920.02 297.617 L1920.02 283.867 Z" fill="#000000" fill-rule="nonzero" fill-opacity="1" /><path clip-path="url(#clip620)" d="M1932.61 277.524 L1932.61 261.83 L1936.87 261.83 L1936.87 277.362 Q1936.87 281.043 1938.31 282.895 Q1939.74 284.723 1942.61 284.723 Q1946.06 284.723 1948.05 282.524 Q1950.07 280.325 1950.07 276.529 L1950.07 261.83 L1954.32 261.83 L1954.32 287.756 L1950.07 287.756 L1950.07 283.774 Q1948.51 286.135 1946.45 287.293 Q1944.42 288.427 1941.71 288.427 Q1937.24 288.427 1934.93 285.649 Q1932.61 282.871 1932.61 277.524 M1943.33 261.205 L1943.33 261.205 Z" fill="#000000" fill-rule="nonzero" fill-opacity="1" /><path clip-path="url(#clip620)" d="M1974.88 274.723 Q1969.72 274.723 1967.73 275.904 Q1965.74 277.084 1965.74 279.932 Q1965.74 282.2 1967.22 283.543 Q1968.72 284.862 1971.29 284.862 Q1974.83 284.862 1976.96 282.362 Q1979.12 279.839 1979.12 275.672 L1979.12 274.723 L1974.88 274.723 M1983.38 272.964 L1983.38 287.756 L1979.12 287.756 L1979.12 283.821 Q1977.66 286.182 1975.48 287.316 Q1973.31 288.427 1970.16 288.427 Q1966.18 288.427 1963.82 286.205 Q1961.48 283.959 1961.48 280.209 Q1961.48 275.834 1964.39 273.612 Q1967.33 271.39 1973.14 271.39 L1979.12 271.39 L1979.12 270.973 Q1979.12 268.034 1977.17 266.436 Q1975.25 264.816 1971.76 264.816 Q1969.53 264.816 1967.43 265.348 Q1965.32 265.881 1963.38 266.946 L1963.38 263.01 Q1965.71 262.108 1967.91 261.668 Q1970.11 261.205 1972.2 261.205 Q1977.82 261.205 1980.6 264.122 Q1983.38 267.038 1983.38 272.964 Z" fill="#000000" fill-rule="nonzero" fill-opacity="1" /><path clip-path="url(#clip620)" d="M2008.68 262.594 L2008.68 266.622 Q2006.87 265.696 2004.93 265.233 Q2002.98 264.77 2000.9 264.77 Q1997.73 264.77 1996.13 265.742 Q1994.56 266.714 1994.56 268.659 Q1994.56 270.14 1995.69 270.997 Q1996.82 271.83 2000.25 272.594 L2001.71 272.918 Q2006.25 273.89 2008.14 275.672 Q2010.07 277.432 2010.07 280.603 Q2010.07 284.214 2007.19 286.321 Q2004.35 288.427 1999.35 288.427 Q1997.26 288.427 1995 288.01 Q1992.75 287.617 1990.25 286.807 L1990.25 282.409 Q1992.61 283.635 1994.9 284.26 Q1997.19 284.862 1999.44 284.862 Q2002.45 284.862 2004.07 283.844 Q2005.69 282.802 2005.69 280.927 Q2005.69 279.191 2004.51 278.265 Q2003.35 277.339 1999.39 276.483 L1997.91 276.135 Q1993.95 275.302 1992.19 273.589 Q1990.44 271.853 1990.44 268.844 Q1990.44 265.186 1993.03 263.196 Q1995.62 261.205 2000.39 261.205 Q2002.75 261.205 2004.83 261.552 Q2006.92 261.899 2008.68 262.594 Z" fill="#000000" fill-rule="nonzero" fill-opacity="1" /><path clip-path="url(#clip620)" d="M2016.85 261.83 L2021.11 261.83 L2021.11 287.756 L2016.85 287.756 L2016.85 261.83 M2016.85 251.737 L2021.11 251.737 L2021.11 257.131 L2016.85 257.131 L2016.85 251.737 Z" fill="#000000" fill-rule="nonzero" fill-opacity="1" /><path clip-path="url(#clip620)" d="M2049.72 295.626 L2049.72 298.936 L2025.09 298.936 L2025.09 295.626 L2049.72 295.626 Z" fill="#000000" fill-rule="nonzero" fill-opacity="1" /><path clip-path="url(#clip620)" d="M2075.27 272.108 L2075.27 287.756 L2071.01 287.756 L2071.01 272.247 Q2071.01 268.566 2069.58 266.737 Q2068.14 264.909 2065.27 264.909 Q2061.82 264.909 2059.83 267.108 Q2057.84 269.307 2057.84 273.103 L2057.84 287.756 L2053.56 287.756 L2053.56 261.83 L2057.84 261.83 L2057.84 265.858 Q2059.37 263.52 2061.43 262.362 Q2063.51 261.205 2066.22 261.205 Q2070.69 261.205 2072.98 263.983 Q2075.27 266.737 2075.27 272.108 Z" fill="#000000" fill-rule="nonzero" fill-opacity="1" /><path clip-path="url(#clip620)" d="M2083.33 277.524 L2083.33 261.83 L2087.59 261.83 L2087.59 277.362 Q2087.59 281.043 2089.02 282.895 Q2090.46 284.723 2093.33 284.723 Q2096.78 284.723 2098.77 282.524 Q2100.78 280.325 2100.78 276.529 L2100.78 261.83 L2105.04 261.83 L2105.04 287.756 L2100.78 287.756 L2100.78 283.774 Q2099.23 286.135 2097.17 287.293 Q2095.13 288.427 2092.43 288.427 Q2087.96 288.427 2085.64 285.649 Q2083.33 282.871 2083.33 277.524 M2094.05 261.205 L2094.05 261.205 Z" fill="#000000" fill-rule="nonzero" fill-opacity="1" /><path clip-path="url(#clip620)" d="M2113.81 251.737 L2118.07 251.737 L2118.07 287.756 L2113.81 287.756 L2113.81 251.737 Z" fill="#000000" fill-rule="nonzero" fill-opacity="1" /><path clip-path="url(#clip620)" d="M2146.68 295.626 L2146.68 298.936 L2122.06 298.936 L2122.06 295.626 L2146.68 295.626 Z" fill="#000000" fill-rule="nonzero" fill-opacity="1" /><path clip-path="url(#clip620)" d="M2150.69 251.737 L2154.95 251.737 L2154.95 287.756 L2150.69 287.756 L2150.69 251.737 Z" fill="#000000" fill-rule="nonzero" fill-opacity="1" /><path clip-path="url(#clip620)" d="M2163.86 261.83 L2168.12 261.83 L2168.12 287.756 L2163.86 287.756 L2163.86 261.83 M2163.86 251.737 L2168.12 251.737 L2168.12 257.131 L2163.86 257.131 L2163.86 251.737 Z" fill="#000000" fill-rule="nonzero" fill-opacity="1" /><path clip-path="url(#clip620)" d="M2198.58 272.108 L2198.58 287.756 L2194.32 287.756 L2194.32 272.247 Q2194.32 268.566 2192.89 266.737 Q2191.45 264.909 2188.58 264.909 Q2185.13 264.909 2183.14 267.108 Q2181.15 269.307 2181.15 273.103 L2181.15 287.756 L2176.87 287.756 L2176.87 261.83 L2181.15 261.83 L2181.15 265.858 Q2182.68 263.52 2184.74 262.362 Q2186.82 261.205 2189.53 261.205 Q2194 261.205 2196.29 263.983 Q2198.58 266.737 2198.58 272.108 Z" fill="#000000" fill-rule="nonzero" fill-opacity="1" /><polyline clip-path="url(#clip620)" style="stroke:#3da44d; stroke-linecap:round; stroke-linejoin:round; stroke-width:4; stroke-opacity:1; fill:none" points="1532.43,322.316 1672.51,322.316 "/>
<path clip-path="url(#clip620)" d="M1695.85 305.036 L1700.53 305.036 L1700.53 335.661 L1717.36 335.661 L1717.36 339.596 L1695.85 339.596 L1695.85 305.036 Z" fill="#000000" fill-rule="nonzero" fill-opacity="1" /><path clip-path="url(#clip620)" d="M1722.27 305.036 L1729.23 305.036 L1738.05 328.554 L1746.92 305.036 L1753.89 305.036 L1753.89 339.596 L1749.33 339.596 L1749.33 309.249 L1740.41 332.952 L1735.71 332.952 L1726.8 309.249 L1726.8 339.596 L1722.27 339.596 L1722.27 305.036 Z" fill="#000000" fill-rule="nonzero" fill-opacity="1" /><path clip-path="url(#clip620)" d="M1782.68 347.466 L1782.68 350.776 L1758.05 350.776 L1758.05 347.466 L1782.68 347.466 Z" fill="#000000" fill-rule="nonzero" fill-opacity="1" /><path clip-path="url(#clip620)" d="M1807.59 306.17 L1807.59 310.73 Q1804.93 309.457 1802.57 308.832 Q1800.21 308.207 1798.01 308.207 Q1794.19 308.207 1792.1 309.688 Q1790.04 311.17 1790.04 313.901 Q1790.04 316.193 1791.41 317.374 Q1792.8 318.531 1796.64 319.249 L1799.46 319.827 Q1804.7 320.823 1807.17 323.346 Q1809.67 325.846 1809.67 330.059 Q1809.67 335.082 1806.29 337.674 Q1802.94 340.267 1796.43 340.267 Q1793.98 340.267 1791.2 339.711 Q1788.45 339.156 1785.48 338.068 L1785.48 333.253 Q1788.33 334.85 1791.06 335.661 Q1793.79 336.471 1796.43 336.471 Q1800.44 336.471 1802.61 334.897 Q1804.79 333.323 1804.79 330.406 Q1804.79 327.86 1803.21 326.424 Q1801.66 324.989 1798.1 324.272 L1795.25 323.716 Q1790.02 322.675 1787.68 320.452 Q1785.34 318.23 1785.34 314.272 Q1785.34 309.688 1788.56 307.05 Q1791.8 304.411 1797.47 304.411 Q1799.9 304.411 1802.43 304.851 Q1804.95 305.29 1807.59 306.17 Z" fill="#000000" fill-rule="nonzero" fill-opacity="1" /><path clip-path="url(#clip620)" d="M1821.64 308.878 L1821.64 321.864 L1827.52 321.864 Q1830.78 321.864 1832.57 320.175 Q1834.35 318.485 1834.35 315.36 Q1834.35 312.258 1832.57 310.568 Q1830.78 308.878 1827.52 308.878 L1821.64 308.878 M1816.96 305.036 L1827.52 305.036 Q1833.33 305.036 1836.29 307.675 Q1839.28 310.29 1839.28 315.36 Q1839.28 320.475 1836.29 323.091 Q1833.33 325.707 1827.52 325.707 L1821.64 325.707 L1821.64 339.596 L1816.96 339.596 L1816.96 305.036 Z" fill="#000000" fill-rule="nonzero" fill-opacity="1" /><path clip-path="url(#clip620)" d="M1869.12 334.665 L1869.12 325.383 L1861.48 325.383 L1861.48 321.54 L1873.75 321.54 L1873.75 336.378 Q1871.04 338.299 1867.77 339.295 Q1864.51 340.267 1860.81 340.267 Q1852.7 340.267 1848.12 335.545 Q1843.56 330.799 1843.56 322.35 Q1843.56 313.878 1848.12 309.156 Q1852.7 304.411 1860.81 304.411 Q1864.19 304.411 1867.22 305.244 Q1870.27 306.077 1872.84 307.698 L1872.84 312.675 Q1870.25 310.476 1867.33 309.364 Q1864.42 308.253 1861.2 308.253 Q1854.86 308.253 1851.66 311.795 Q1848.49 315.337 1848.49 322.35 Q1848.49 329.341 1851.66 332.883 Q1854.86 336.424 1861.2 336.424 Q1863.68 336.424 1865.62 336.008 Q1867.57 335.568 1869.12 334.665 Z" fill="#000000" fill-rule="nonzero" fill-opacity="1" /><path clip-path="url(#clip620)" d="M1901.8 347.466 L1901.8 350.776 L1877.17 350.776 L1877.17 347.466 L1901.8 347.466 Z" fill="#000000" fill-rule="nonzero" fill-opacity="1" /><path clip-path="url(#clip620)" d="M1908.35 326.656 Q1908.35 331.355 1910.27 334.04 Q1912.22 336.702 1915.6 336.702 Q1918.98 336.702 1920.92 334.04 Q1922.87 331.355 1922.87 326.656 Q1922.87 321.957 1920.92 319.295 Q1918.98 316.61 1915.6 316.61 Q1912.22 316.61 1910.27 319.295 Q1908.35 321.957 1908.35 326.656 M1922.87 335.707 Q1921.52 338.022 1919.46 339.156 Q1917.43 340.267 1914.56 340.267 Q1909.86 340.267 1906.89 336.517 Q1903.95 332.767 1903.95 326.656 Q1903.95 320.545 1906.89 316.795 Q1909.86 313.045 1914.56 313.045 Q1917.43 313.045 1919.46 314.179 Q1921.52 315.29 1922.87 317.605 L1922.87 313.67 L1927.13 313.67 L1927.13 349.457 L1922.87 349.457 L1922.87 335.707 Z" fill="#000000" fill-rule="nonzero" fill-opacity="1" /><path clip-path="url(#clip620)" d="M1935.46 329.364 L1935.46 313.67 L1939.72 313.67 L1939.72 329.202 Q1939.72 332.883 1941.15 334.735 Q1942.59 336.563 1945.46 336.563 Q1948.91 336.563 1950.9 334.364 Q1952.91 332.165 1952.91 328.369 L1952.91 313.67 L1957.17 313.67 L1957.17 339.596 L1952.91 339.596 L1952.91 335.614 Q1951.36 337.975 1949.3 339.133 Q1947.26 340.267 1944.56 340.267 Q1940.09 340.267 1937.77 337.489 Q1935.46 334.711 1935.46 329.364 M1946.18 313.045 L1946.18 313.045 Z" fill="#000000" fill-rule="nonzero" fill-opacity="1" /><path clip-path="url(#clip620)" d="M1977.73 326.563 Q1972.57 326.563 1970.57 327.744 Q1968.58 328.924 1968.58 331.772 Q1968.58 334.04 1970.07 335.383 Q1971.57 336.702 1974.14 336.702 Q1977.68 336.702 1979.81 334.202 Q1981.96 331.679 1981.96 327.512 L1981.96 326.563 L1977.73 326.563 M1986.22 324.804 L1986.22 339.596 L1981.96 339.596 L1981.96 335.661 Q1980.51 338.022 1978.33 339.156 Q1976.15 340.267 1973.01 340.267 Q1969.02 340.267 1966.66 338.045 Q1964.32 335.799 1964.32 332.049 Q1964.32 327.674 1967.24 325.452 Q1970.18 323.23 1975.99 323.23 L1981.96 323.23 L1981.96 322.813 Q1981.96 319.874 1980.02 318.276 Q1978.1 316.656 1974.6 316.656 Q1972.38 316.656 1970.27 317.188 Q1968.17 317.721 1966.22 318.786 L1966.22 314.85 Q1968.56 313.948 1970.76 313.508 Q1972.96 313.045 1975.04 313.045 Q1980.67 313.045 1983.44 315.962 Q1986.22 318.878 1986.22 324.804 Z" fill="#000000" fill-rule="nonzero" fill-opacity="1" /><path clip-path="url(#clip620)" d="M2011.52 314.434 L2011.52 318.462 Q2009.72 317.536 2007.77 317.073 Q2005.83 316.61 2003.75 316.61 Q2000.57 316.61 1998.98 317.582 Q1997.4 318.554 1997.4 320.499 Q1997.4 321.98 1998.54 322.837 Q1999.67 323.67 2003.1 324.434 L2004.56 324.758 Q2009.09 325.73 2010.99 327.512 Q2012.91 329.272 2012.91 332.443 Q2012.91 336.054 2010.04 338.161 Q2007.19 340.267 2002.19 340.267 Q2000.11 340.267 1997.84 339.85 Q1995.6 339.457 1993.1 338.647 L1993.1 334.249 Q1995.46 335.475 1997.75 336.1 Q2000.04 336.702 2002.29 336.702 Q2005.3 336.702 2006.92 335.684 Q2008.54 334.642 2008.54 332.767 Q2008.54 331.031 2007.36 330.105 Q2006.2 329.179 2002.24 328.323 L2000.76 327.975 Q1996.8 327.142 1995.04 325.429 Q1993.28 323.693 1993.28 320.684 Q1993.28 317.026 1995.88 315.036 Q1998.47 313.045 2003.24 313.045 Q2005.6 313.045 2007.68 313.392 Q2009.76 313.739 2011.52 314.434 Z" fill="#000000" fill-rule="nonzero" fill-opacity="1" /><path clip-path="url(#clip620)" d="M2019.69 313.67 L2023.95 313.67 L2023.95 339.596 L2019.69 339.596 L2019.69 313.67 M2019.69 303.577 L2023.95 303.577 L2023.95 308.971 L2019.69 308.971 L2019.69 303.577 Z" fill="#000000" fill-rule="nonzero" fill-opacity="1" /><path clip-path="url(#clip620)" d="M2052.56 347.466 L2052.56 350.776 L2027.94 350.776 L2027.94 347.466 L2052.56 347.466 Z" fill="#000000" fill-rule="nonzero" fill-opacity="1" /><path clip-path="url(#clip620)" d="M2078.12 323.948 L2078.12 339.596 L2073.86 339.596 L2073.86 324.087 Q2073.86 320.406 2072.43 318.577 Q2070.99 316.749 2068.12 316.749 Q2064.67 316.749 2062.68 318.948 Q2060.69 321.147 2060.69 324.943 L2060.69 339.596 L2056.41 339.596 L2056.41 313.67 L2060.69 313.67 L2060.69 317.698 Q2062.22 315.36 2064.28 314.202 Q2066.36 313.045 2069.07 313.045 Q2073.54 313.045 2075.83 315.823 Q2078.12 318.577 2078.12 323.948 Z" fill="#000000" fill-rule="nonzero" fill-opacity="1" /><path clip-path="url(#clip620)" d="M2086.18 329.364 L2086.18 313.67 L2090.44 313.67 L2090.44 329.202 Q2090.44 332.883 2091.87 334.735 Q2093.31 336.563 2096.18 336.563 Q2099.62 336.563 2101.62 334.364 Q2103.63 332.165 2103.63 328.369 L2103.63 313.67 L2107.89 313.67 L2107.89 339.596 L2103.63 339.596 L2103.63 335.614 Q2102.08 337.975 2100.02 339.133 Q2097.98 340.267 2095.27 340.267 Q2090.81 340.267 2088.49 337.489 Q2086.18 334.711 2086.18 329.364 M2096.89 313.045 L2096.89 313.045 Z" fill="#000000" fill-rule="nonzero" fill-opacity="1" /><path clip-path="url(#clip620)" d="M2116.66 303.577 L2120.92 303.577 L2120.92 339.596 L2116.66 339.596 L2116.66 303.577 Z" fill="#000000" fill-rule="nonzero" fill-opacity="1" /><path clip-path="url(#clip620)" d="M2149.53 347.466 L2149.53 350.776 L2124.9 350.776 L2124.9 347.466 L2149.53 347.466 Z" fill="#000000" fill-rule="nonzero" fill-opacity="1" /><path clip-path="url(#clip620)" d="M2153.54 303.577 L2157.8 303.577 L2157.8 339.596 L2153.54 339.596 L2153.54 303.577 Z" fill="#000000" fill-rule="nonzero" fill-opacity="1" /><path clip-path="url(#clip620)" d="M2166.71 313.67 L2170.97 313.67 L2170.97 339.596 L2166.71 339.596 L2166.71 313.67 M2166.71 303.577 L2170.97 303.577 L2170.97 308.971 L2166.71 308.971 L2166.71 303.577 Z" fill="#000000" fill-rule="nonzero" fill-opacity="1" /><path clip-path="url(#clip620)" d="M2201.43 323.948 L2201.43 339.596 L2197.17 339.596 L2197.17 324.087 Q2197.17 320.406 2195.74 318.577 Q2194.3 316.749 2191.43 316.749 Q2187.98 316.749 2185.99 318.948 Q2184 321.147 2184 324.943 L2184 339.596 L2179.72 339.596 L2179.72 313.67 L2184 313.67 L2184 317.698 Q2185.53 315.36 2187.59 314.202 Q2189.67 313.045 2192.38 313.045 Q2196.85 313.045 2199.14 315.823 Q2201.43 318.577 2201.43 323.948 Z" fill="#000000" fill-rule="nonzero" fill-opacity="1" /></svg>
