<?xml version="1.0" encoding="utf-8"?>
<svg xmlns="http://www.w3.org/2000/svg" xmlns:xlink="http://www.w3.org/1999/xlink" width="600" height="400" viewBox="0 0 2400 1600">
<defs>
  <clipPath id="clip390">
    <rect x="0" y="0" width="2400" height="1600"/>
  </clipPath>
</defs>
<path clip-path="url(#clip390)" d="M0 1600 L2400 1600 L2400 0 L0 0  Z" fill="#ffffff" fill-rule="evenodd" fill-opacity="1"/>
<defs>
  <clipPath id="clip391">
    <rect x="480" y="0" width="1681" height="1600"/>
  </clipPath>
</defs>
<path clip-path="url(#clip390)" d="M251.56 1423.18 L2352.76 1423.18 L2352.76 123.472 L251.56 123.472  Z" fill="#ffffff" fill-rule="evenodd" fill-opacity="1"/>
<defs>
  <clipPath id="clip392">
    <rect x="251" y="123" width="2102" height="1301"/>
  </clipPath>
</defs>
<polyline clip-path="url(#clip392)" style="stroke:#000000; stroke-linecap:round; stroke-linejoin:round; stroke-width:2; stroke-opacity:0.1; fill:none" points="509.254,1423.18 509.254,123.472 "/>
<polyline clip-path="url(#clip392)" style="stroke:#000000; stroke-linecap:round; stroke-linejoin:round; stroke-width:2; stroke-opacity:0.1; fill:none" points="905.706,1423.18 905.706,123.472 "/>
<polyline clip-path="url(#clip392)" style="stroke:#000000; stroke-linecap:round; stroke-linejoin:round; stroke-width:2; stroke-opacity:0.1; fill:none" points="1302.16,1423.18 1302.16,123.472 "/>
<polyline clip-path="url(#clip392)" style="stroke:#000000; stroke-linecap:round; stroke-linejoin:round; stroke-width:2; stroke-opacity:0.1; fill:none" points="1698.61,1423.18 1698.61,123.472 "/>
<polyline clip-path="url(#clip392)" style="stroke:#000000; stroke-linecap:round; stroke-linejoin:round; stroke-width:2; stroke-opacity:0.1; fill:none" points="2095.06,1423.18 2095.06,123.472 "/>
<polyline clip-path="url(#clip390)" style="stroke:#000000; stroke-linecap:round; stroke-linejoin:round; stroke-width:4; stroke-opacity:1; fill:none" points="251.56,1423.18 2352.76,1423.18 "/>
<polyline clip-path="url(#clip390)" style="stroke:#000000; stroke-linecap:round; stroke-linejoin:round; stroke-width:4; stroke-opacity:1; fill:none" points="509.254,1423.18 509.254,1404.28 "/>
<polyline clip-path="url(#clip390)" style="stroke:#000000; stroke-linecap:round; stroke-linejoin:round; stroke-width:4; stroke-opacity:1; fill:none" points="905.706,1423.18 905.706,1404.28 "/>
<polyline clip-path="url(#clip390)" style="stroke:#000000; stroke-linecap:round; stroke-linejoin:round; stroke-width:4; stroke-opacity:1; fill:none" points="1302.16,1423.18 1302.16,1404.28 "/>
<polyline clip-path="url(#clip390)" style="stroke:#000000; stroke-linecap:round; stroke-linejoin:round; stroke-width:4; stroke-opacity:1; fill:none" points="1698.61,1423.18 1698.61,1404.28 "/>
<polyline clip-path="url(#clip390)" style="stroke:#000000; stroke-linecap:round; stroke-linejoin:round; stroke-width:4; stroke-opacity:1; fill:none" points="2095.06,1423.18 2095.06,1404.28 "/>
<path clip-path="url(#clip390)" d="M503.907 1481.64 L520.226 1481.64 L520.226 1485.58 L498.282 1485.58 L498.282 1481.64 Q500.944 1478.89 505.527 1474.26 Q510.134 1469.61 511.314 1468.27 Q513.56 1465.74 514.439 1464.01 Q515.342 1462.25 515.342 1460.56 Q515.342 1457.8 513.398 1456.07 Q511.476 1454.33 508.374 1454.33 Q506.175 1454.33 503.722 1455.09 Q501.291 1455.86 498.513 1457.41 L498.513 1452.69 Q501.337 1451.55 503.791 1450.97 Q506.245 1450.39 508.282 1450.39 Q513.652 1450.39 516.847 1453.08 Q520.041 1455.77 520.041 1460.26 Q520.041 1462.39 519.231 1464.31 Q518.444 1466.2 516.337 1468.8 Q515.759 1469.47 512.657 1472.69 Q509.555 1475.88 503.907 1481.64 Z" fill="#000000" fill-rule="nonzero" fill-opacity="1" /><path clip-path="url(#clip390)" d="M908.715 1455.09 L896.91 1473.54 L908.715 1473.54 L908.715 1455.09 M907.488 1451.02 L913.368 1451.02 L913.368 1473.54 L918.299 1473.54 L918.299 1477.43 L913.368 1477.43 L913.368 1485.58 L908.715 1485.58 L908.715 1477.43 L893.114 1477.43 L893.114 1472.92 L907.488 1451.02 Z" fill="#000000" fill-rule="nonzero" fill-opacity="1" /><path clip-path="url(#clip390)" d="M1302.56 1466.44 Q1299.42 1466.44 1297.56 1468.59 Q1295.73 1470.74 1295.73 1474.49 Q1295.73 1478.22 1297.56 1480.39 Q1299.42 1482.55 1302.56 1482.55 Q1305.71 1482.55 1307.54 1480.39 Q1309.39 1478.22 1309.39 1474.49 Q1309.39 1470.74 1307.54 1468.59 Q1305.71 1466.44 1302.56 1466.44 M1311.85 1451.78 L1311.85 1456.04 Q1310.09 1455.21 1308.28 1454.77 Q1306.5 1454.33 1304.74 1454.33 Q1300.11 1454.33 1297.66 1457.45 Q1295.23 1460.58 1294.88 1466.9 Q1296.24 1464.89 1298.3 1463.82 Q1300.36 1462.73 1302.84 1462.73 Q1308.05 1462.73 1311.06 1465.9 Q1314.09 1469.05 1314.09 1474.49 Q1314.09 1479.82 1310.94 1483.03 Q1307.79 1486.25 1302.56 1486.25 Q1296.57 1486.25 1293.4 1481.67 Q1290.23 1477.06 1290.23 1468.33 Q1290.23 1460.14 1294.11 1455.28 Q1298 1450.39 1304.55 1450.39 Q1306.31 1450.39 1308.1 1450.74 Q1309.9 1451.09 1311.85 1451.78 Z" fill="#000000" fill-rule="nonzero" fill-opacity="1" /><path clip-path="url(#clip390)" d="M1698.61 1469.17 Q1695.28 1469.17 1693.36 1470.95 Q1691.46 1472.73 1691.46 1475.86 Q1691.46 1478.98 1693.36 1480.77 Q1695.28 1482.55 1698.61 1482.55 Q1701.94 1482.55 1703.86 1480.77 Q1705.79 1478.96 1705.79 1475.86 Q1705.79 1472.73 1703.86 1470.95 Q1701.97 1469.17 1698.61 1469.17 M1693.93 1467.18 Q1690.92 1466.44 1689.24 1464.38 Q1687.57 1462.32 1687.57 1459.35 Q1687.57 1455.21 1690.51 1452.8 Q1693.47 1450.39 1698.61 1450.39 Q1703.77 1450.39 1706.71 1452.8 Q1709.65 1455.21 1709.65 1459.35 Q1709.65 1462.32 1707.96 1464.38 Q1706.3 1466.44 1703.31 1467.18 Q1706.69 1467.96 1708.56 1470.26 Q1710.46 1472.55 1710.46 1475.86 Q1710.46 1480.88 1707.38 1483.57 Q1704.33 1486.25 1698.61 1486.25 Q1692.89 1486.25 1689.81 1483.57 Q1686.76 1480.88 1686.76 1475.86 Q1686.76 1472.55 1688.66 1470.26 Q1690.55 1467.96 1693.93 1467.18 M1692.22 1459.79 Q1692.22 1462.48 1693.89 1463.98 Q1695.58 1465.49 1698.61 1465.49 Q1701.62 1465.49 1703.31 1463.98 Q1705.02 1462.48 1705.02 1459.79 Q1705.02 1457.11 1703.31 1455.6 Q1701.62 1454.1 1698.61 1454.1 Q1695.58 1454.1 1693.89 1455.6 Q1692.22 1457.11 1692.22 1459.79 Z" fill="#000000" fill-rule="nonzero" fill-opacity="1" /><path clip-path="url(#clip390)" d="M2069.75 1481.64 L2077.39 1481.64 L2077.39 1455.28 L2069.08 1456.95 L2069.08 1452.69 L2077.34 1451.02 L2082.02 1451.02 L2082.02 1481.64 L2089.66 1481.64 L2089.66 1485.58 L2069.75 1485.58 L2069.75 1481.64 Z" fill="#000000" fill-rule="nonzero" fill-opacity="1" /><path clip-path="url(#clip390)" d="M2109.1 1454.1 Q2105.49 1454.1 2103.66 1457.66 Q2101.86 1461.2 2101.86 1468.33 Q2101.86 1475.44 2103.66 1479.01 Q2105.49 1482.55 2109.1 1482.55 Q2112.74 1482.55 2114.54 1479.01 Q2116.37 1475.44 2116.37 1468.33 Q2116.37 1461.2 2114.54 1457.66 Q2112.74 1454.1 2109.1 1454.1 M2109.1 1450.39 Q2114.91 1450.39 2117.97 1455 Q2121.05 1459.58 2121.05 1468.33 Q2121.05 1477.06 2117.97 1481.67 Q2114.91 1486.25 2109.1 1486.25 Q2103.29 1486.25 2100.21 1481.67 Q2097.16 1477.06 2097.16 1468.33 Q2097.16 1459.58 2100.21 1455 Q2103.29 1450.39 2109.1 1450.39 Z" fill="#000000" fill-rule="nonzero" fill-opacity="1" /><path clip-path="url(#clip390)" d="M1286.34 1518.52 L1292.23 1518.52 L1292.23 1547.77 L1309.7 1532.4 L1317.18 1532.4 L1298.27 1549.07 L1317.98 1568.04 L1310.34 1568.04 L1292.23 1550.63 L1292.23 1568.04 L1286.34 1568.04 L1286.34 1518.52 Z" fill="#000000" fill-rule="nonzero" fill-opacity="1" /><polyline clip-path="url(#clip392)" style="stroke:#000000; stroke-linecap:round; stroke-linejoin:round; stroke-width:2; stroke-opacity:0.1; fill:none" points="251.56,945.436 2352.76,945.436 "/>
<polyline clip-path="url(#clip392)" style="stroke:#000000; stroke-linecap:round; stroke-linejoin:round; stroke-width:2; stroke-opacity:0.1; fill:none" points="251.56,384.443 2352.76,384.443 "/>
<polyline clip-path="url(#clip390)" style="stroke:#000000; stroke-linecap:round; stroke-linejoin:round; stroke-width:4; stroke-opacity:1; fill:none" points="251.56,1423.18 251.56,123.472 "/>
<polyline clip-path="url(#clip390)" style="stroke:#000000; stroke-linecap:round; stroke-linejoin:round; stroke-width:4; stroke-opacity:1; fill:none" points="251.56,945.436 270.458,945.436 "/>
<polyline clip-path="url(#clip390)" style="stroke:#000000; stroke-linecap:round; stroke-linejoin:round; stroke-width:4; stroke-opacity:1; fill:none" points="251.56,384.443 270.458,384.443 "/>
<path clip-path="url(#clip390)" d="M114.931 965.229 L122.57 965.229 L122.57 938.863 L114.26 940.53 L114.26 936.271 L122.524 934.604 L127.2 934.604 L127.2 965.229 L134.839 965.229 L134.839 969.164 L114.931 969.164 L114.931 965.229 Z" fill="#000000" fill-rule="nonzero" fill-opacity="1" /><path clip-path="url(#clip390)" d="M154.283 937.683 Q150.672 937.683 148.843 941.248 Q147.038 944.789 147.038 951.919 Q147.038 959.025 148.843 962.59 Q150.672 966.132 154.283 966.132 Q157.917 966.132 159.723 962.59 Q161.552 959.025 161.552 951.919 Q161.552 944.789 159.723 941.248 Q157.917 937.683 154.283 937.683 M154.283 933.979 Q160.093 933.979 163.149 938.586 Q166.227 943.169 166.227 951.919 Q166.227 960.646 163.149 965.252 Q160.093 969.835 154.283 969.835 Q148.473 969.835 145.394 965.252 Q142.339 960.646 142.339 951.919 Q142.339 943.169 145.394 938.586 Q148.473 933.979 154.283 933.979 Z" fill="#000000" fill-rule="nonzero" fill-opacity="1" /><path clip-path="url(#clip390)" d="M166.227 928.08 L190.339 928.08 L190.339 931.278 L166.227 931.278 L166.227 928.08 Z" fill="#000000" fill-rule="nonzero" fill-opacity="1" /><path clip-path="url(#clip390)" d="M198.577 913.674 L213.491 913.674 L213.491 916.871 L202.056 916.871 L202.056 923.755 Q202.884 923.473 203.711 923.341 Q204.539 923.19 205.366 923.19 Q210.068 923.19 212.814 925.767 Q215.56 928.344 215.56 932.745 Q215.56 937.277 212.739 939.798 Q209.918 942.299 204.783 942.299 Q203.015 942.299 201.172 941.998 Q199.348 941.697 197.392 941.095 L197.392 937.277 Q199.085 938.199 200.89 938.65 Q202.696 939.102 204.708 939.102 Q207.962 939.102 209.861 937.39 Q211.761 935.679 211.761 932.745 Q211.761 929.811 209.861 928.099 Q207.962 926.388 204.708 926.388 Q203.185 926.388 201.661 926.726 Q200.157 927.065 198.577 927.779 L198.577 913.674 Z" fill="#000000" fill-rule="nonzero" fill-opacity="1" /><path clip-path="url(#clip390)" d="M144.855 404.235 L152.493 404.235 L152.493 377.87 L144.183 379.536 L144.183 375.277 L152.447 373.61 L157.123 373.61 L157.123 404.235 L164.762 404.235 L164.762 408.17 L144.855 408.17 L144.855 404.235 Z" fill="#000000" fill-rule="nonzero" fill-opacity="1" /><path clip-path="url(#clip390)" d="M184.206 376.689 Q180.595 376.689 178.766 380.254 Q176.961 383.796 176.961 390.925 Q176.961 398.032 178.766 401.596 Q180.595 405.138 184.206 405.138 Q187.84 405.138 189.646 401.596 Q191.475 398.032 191.475 390.925 Q191.475 383.796 189.646 380.254 Q187.84 376.689 184.206 376.689 M184.206 372.985 Q190.016 372.985 193.072 377.592 Q196.151 382.175 196.151 390.925 Q196.151 399.652 193.072 404.258 Q190.016 408.842 184.206 408.842 Q178.396 408.842 175.317 404.258 Q172.262 399.652 172.262 390.925 Q172.262 382.175 175.317 377.592 Q178.396 372.985 184.206 372.985 Z" fill="#000000" fill-rule="nonzero" fill-opacity="1" /><path clip-path="url(#clip390)" d="M205.855 355.181 Q202.921 355.181 201.436 358.078 Q199.969 360.955 199.969 366.748 Q199.969 372.522 201.436 375.419 Q202.921 378.296 205.855 378.296 Q208.808 378.296 210.275 375.419 Q211.761 372.522 211.761 366.748 Q211.761 360.955 210.275 358.078 Q208.808 355.181 205.855 355.181 M205.855 352.172 Q210.576 352.172 213.059 355.915 Q215.56 359.639 215.56 366.748 Q215.56 373.839 213.059 377.582 Q210.576 381.305 205.855 381.305 Q201.135 381.305 198.633 377.582 Q196.151 373.839 196.151 366.748 Q196.151 359.639 198.633 355.915 Q201.135 352.172 205.855 352.172 Z" fill="#000000" fill-rule="nonzero" fill-opacity="1" /><path clip-path="url(#clip390)" d="M32.4621 801.797 Q32.4621 806.507 36.1542 809.244 Q39.8145 811.982 46.212 811.982 Q52.6095 811.982 56.3017 809.276 Q59.9619 806.539 59.9619 801.797 Q59.9619 797.118 56.2698 794.381 Q52.5777 791.643 46.212 791.643 Q39.8781 791.643 36.186 794.381 Q32.4621 797.118 32.4621 801.797 M27.4968 801.797 Q27.4968 794.158 32.4621 789.797 Q37.4273 785.437 46.212 785.437 Q54.9649 785.437 59.9619 789.797 Q64.9272 794.158 64.9272 801.797 Q64.9272 809.467 59.9619 813.828 Q54.9649 818.156 46.212 818.156 Q37.4273 818.156 32.4621 813.828 Q27.4968 809.467 27.4968 801.797 Z" fill="#000000" fill-rule="nonzero" fill-opacity="1" /><path clip-path="url(#clip390)" d="M46.212 750.139 Q39.7508 750.139 36.0905 752.812 Q32.3984 755.454 32.3984 760.101 Q32.3984 764.748 36.0905 767.422 Q39.7508 770.064 46.212 770.064 Q52.6732 770.064 56.3653 767.422 Q60.0256 764.748 60.0256 760.101 Q60.0256 755.454 56.3653 752.812 Q52.6732 750.139 46.212 750.139 M33.7671 770.064 Q30.5842 768.218 29.0564 765.417 Q27.4968 762.584 27.4968 758.669 Q27.4968 752.176 32.6531 748.134 Q37.8093 744.06 46.212 744.06 Q54.6147 744.06 59.771 748.134 Q64.9272 752.176 64.9272 758.669 Q64.9272 762.584 63.3994 765.417 Q61.8398 768.218 58.657 770.064 L64.0042 770.064 L64.0042 775.952 L14.479 775.952 L14.479 770.064 L33.7671 770.064 Z" fill="#000000" fill-rule="nonzero" fill-opacity="1" /><path clip-path="url(#clip390)" d="M28.3562 734.352 L28.3562 728.495 L64.6407 728.495 Q71.452 728.495 74.5076 731.105 Q77.5631 733.684 77.5631 739.445 L77.5631 741.673 L72.5979 741.673 L72.5979 740.113 Q72.5979 736.771 71.0383 735.561 Q69.5105 734.352 64.6407 734.352 L28.3562 734.352 M14.479 734.352 L14.479 728.495 L21.895 728.495 L21.895 734.352 L14.479 734.352 Z" fill="#000000" fill-rule="nonzero" fill-opacity="1" /><path clip-path="url(#clip390)" d="M970.045 65.7705 L970.045 89.8329 L962.551 89.8329 L962.551 27.2059 L970.045 27.2059 L970.045 34.0924 Q972.394 30.0415 975.959 28.0971 Q979.564 26.1121 984.547 26.1121 Q992.811 26.1121 997.955 32.6746 Q1003.14 39.2371 1003.14 49.9314 Q1003.14 60.6258 997.955 67.1883 Q992.811 73.7508 984.547 73.7508 Q979.564 73.7508 975.959 71.8063 Q972.394 69.8214 970.045 65.7705 M995.403 49.9314 Q995.403 41.7081 992.001 37.0496 Q988.638 32.3505 982.724 32.3505 Q976.81 32.3505 973.407 37.0496 Q970.045 41.7081 970.045 49.9314 Q970.045 58.1548 973.407 62.8538 Q976.81 67.5124 982.724 67.5124 Q988.638 67.5124 992.001 62.8538 Q995.403 58.1548 995.403 49.9314 Z" fill="#000000" fill-rule="nonzero" fill-opacity="1" /><path clip-path="url(#clip390)" d="M1041.79 34.1734 Q1040.53 33.4443 1039.03 33.1202 Q1037.57 32.7556 1035.79 32.7556 Q1029.47 32.7556 1026.07 36.8875 Q1022.71 40.9789 1022.71 48.6757 L1022.71 72.576 L1015.21 72.576 L1015.21 27.2059 L1022.71 27.2059 L1022.71 34.2544 Q1025.06 30.1225 1028.82 28.1376 Q1032.59 26.1121 1037.98 26.1121 Q1038.75 26.1121 1039.68 26.2337 Q1040.61 26.3147 1041.75 26.5172 L1041.79 34.1734 Z" fill="#000000" fill-rule="nonzero" fill-opacity="1" /><path clip-path="url(#clip390)" d="M1065.36 32.4315 Q1059.37 32.4315 1055.88 37.1306 Q1052.4 41.7891 1052.4 49.9314 Q1052.4 58.0738 1055.84 62.7728 Q1059.33 67.4314 1065.36 67.4314 Q1071.32 67.4314 1074.8 62.7323 Q1078.28 58.0333 1078.28 49.9314 Q1078.28 41.8701 1074.8 37.1711 Q1071.32 32.4315 1065.36 32.4315 M1065.36 26.1121 Q1075.08 26.1121 1080.63 32.4315 Q1086.18 38.7509 1086.18 49.9314 Q1086.18 61.0714 1080.63 67.4314 Q1075.08 73.7508 1065.36 73.7508 Q1055.6 73.7508 1050.05 67.4314 Q1044.54 61.0714 1044.54 49.9314 Q1044.54 38.7509 1050.05 32.4315 Q1055.6 26.1121 1065.36 26.1121 Z" fill="#000000" fill-rule="nonzero" fill-opacity="1" /><path clip-path="url(#clip390)" d="M1131.11 49.9314 Q1131.11 41.7081 1127.71 37.0496 Q1124.34 32.3505 1118.43 32.3505 Q1112.51 32.3505 1109.11 37.0496 Q1105.75 41.7081 1105.75 49.9314 Q1105.75 58.1548 1109.11 62.8538 Q1112.51 67.5124 1118.43 67.5124 Q1124.34 67.5124 1127.71 62.8538 Q1131.11 58.1548 1131.11 49.9314 M1105.75 34.0924 Q1108.1 30.0415 1111.66 28.0971 Q1115.27 26.1121 1120.25 26.1121 Q1128.52 26.1121 1133.66 32.6746 Q1138.85 39.2371 1138.85 49.9314 Q1138.85 60.6258 1133.66 67.1883 Q1128.52 73.7508 1120.25 73.7508 Q1115.27 73.7508 1111.66 71.8063 Q1108.1 69.8214 1105.75 65.7705 L1105.75 72.576 L1098.26 72.576 L1098.26 9.54393 L1105.75 9.54393 L1105.75 34.0924 Z" fill="#000000" fill-rule="nonzero" fill-opacity="1" /><path clip-path="url(#clip390)" d="M1151.2 9.54393 L1158.65 9.54393 L1158.65 72.576 L1151.2 72.576 L1151.2 9.54393 Z" fill="#000000" fill-rule="nonzero" fill-opacity="1" /><path clip-path="url(#clip390)" d="M1213.06 48.0275 L1213.06 51.6733 L1178.79 51.6733 Q1179.27 59.3701 1183.41 63.421 Q1187.58 67.4314 1194.99 67.4314 Q1199.29 67.4314 1203.3 66.3781 Q1207.35 65.3249 1211.32 63.2184 L1211.32 70.267 Q1207.31 71.9684 1203.09 72.8596 Q1198.88 73.7508 1194.55 73.7508 Q1183.69 73.7508 1177.33 67.4314 Q1171.01 61.1119 1171.01 50.3365 Q1171.01 39.1965 1177.01 32.6746 Q1183.04 26.1121 1193.25 26.1121 Q1202.4 26.1121 1207.71 32.0264 Q1213.06 37.9003 1213.06 48.0275 M1205.6 45.84 Q1205.52 39.7232 1202.16 36.0774 Q1198.84 32.4315 1193.33 32.4315 Q1187.09 32.4315 1183.32 35.9558 Q1179.6 39.4801 1179.03 45.8805 L1205.6 45.84 M1186.93 6.22219 L1198.35 21.3726 L1192.16 21.3726 L1178.95 6.22219 L1186.93 6.22219 Z" fill="#000000" fill-rule="nonzero" fill-opacity="1" /><path clip-path="url(#clip390)" d="M1260.62 35.9153 Q1263.41 30.8922 1267.3 28.5022 Q1271.19 26.1121 1276.46 26.1121 Q1283.54 26.1121 1287.39 31.0947 Q1291.24 36.0368 1291.24 45.1919 L1291.24 72.576 L1283.75 72.576 L1283.75 45.4349 Q1283.75 38.913 1281.44 35.7533 Q1279.13 32.5936 1274.39 32.5936 Q1268.6 32.5936 1265.23 36.4419 Q1261.87 40.2903 1261.87 46.9338 L1261.87 72.576 L1254.38 72.576 L1254.38 45.4349 Q1254.38 38.8725 1252.07 35.7533 Q1249.76 32.5936 1244.94 32.5936 Q1239.23 32.5936 1235.87 36.4824 Q1232.5 40.3308 1232.5 46.9338 L1232.5 72.576 L1225.01 72.576 L1225.01 27.2059 L1232.5 27.2059 L1232.5 34.2544 Q1235.05 30.082 1238.62 28.0971 Q1242.18 26.1121 1247.09 26.1121 Q1252.03 26.1121 1255.47 28.6237 Q1258.96 31.1352 1260.62 35.9153 Z" fill="#000000" fill-rule="nonzero" fill-opacity="1" /><path clip-path="url(#clip390)" d="M1344.92 48.0275 L1344.92 51.6733 L1310.64 51.6733 Q1311.13 59.3701 1315.26 63.421 Q1319.44 67.4314 1326.85 67.4314 Q1331.14 67.4314 1335.15 66.3781 Q1339.2 65.3249 1343.17 63.2184 L1343.17 70.267 Q1339.16 71.9684 1334.95 72.8596 Q1330.74 73.7508 1326.4 73.7508 Q1315.55 73.7508 1309.19 67.4314 Q1302.87 61.1119 1302.87 50.3365 Q1302.87 39.1965 1308.86 32.6746 Q1314.9 26.1121 1325.11 26.1121 Q1334.26 26.1121 1339.57 32.0264 Q1344.92 37.9003 1344.92 48.0275 M1337.46 45.84 Q1337.38 39.7232 1334.02 36.0774 Q1330.7 32.4315 1325.19 32.4315 Q1318.95 32.4315 1315.18 35.9558 Q1311.45 39.4801 1310.89 45.8805 L1337.46 45.84 Z" fill="#000000" fill-rule="nonzero" fill-opacity="1" /><path clip-path="url(#clip390)" d="M1385.42 62.2867 L1393.97 62.2867 L1393.97 72.576 L1385.42 72.576 L1385.42 62.2867 M1385.42 29.6769 L1393.97 29.6769 L1393.97 39.9662 L1385.42 39.9662 L1385.42 29.6769 Z" fill="#000000" fill-rule="nonzero" fill-opacity="1" /><path clip-path="url(#clip390)" d="M1438.17 12.096 L1449.19 12.096 L1476 62.6918 L1476 12.096 L1483.94 12.096 L1483.94 72.576 L1472.92 72.576 L1446.11 21.9802 L1446.11 72.576 L1438.17 72.576 L1438.17 12.096 Z" fill="#000000" fill-rule="nonzero" fill-opacity="1" /><path clip-path="url(#clip390)" d="M1496.74 12.096 L1544.26 12.096 L1544.26 18.3344 L1506.02 65.6895 L1545.19 65.6895 L1545.19 72.576 L1495.81 72.576 L1495.81 66.3376 L1534.05 18.9825 L1496.74 18.9825 L1496.74 12.096 Z" fill="#000000" fill-rule="nonzero" fill-opacity="1" /><path clip-path="url(#clip390)" d="M1557.06 12.096 L1591.82 12.096 L1591.82 18.9825 L1565.24 18.9825 L1565.24 36.8065 L1589.23 36.8065 L1589.23 43.6931 L1565.24 43.6931 L1565.24 72.576 L1557.06 72.576 L1557.06 12.096 Z" fill="#000000" fill-rule="nonzero" fill-opacity="1" /><path clip-path="url(#clip390)" d="M1606.93 65.6895 L1620.3 65.6895 L1620.3 19.5497 L1605.75 22.4663 L1605.75 15.0127 L1620.21 12.096 L1628.4 12.096 L1628.4 65.6895 L1641.77 65.6895 L1641.77 72.576 L1606.93 72.576 L1606.93 65.6895 Z" fill="#000000" fill-rule="nonzero" fill-opacity="1" /><polyline clip-path="url(#clip392)" style="stroke:#009af9; stroke-linecap:round; stroke-linejoin:round; stroke-width:4; stroke-opacity:1; fill:none" points="311.028,160.256 509.254,291.161 707.48,350.536 905.706,421.076 1103.93,508.402 1302.16,614.896 1500.38,770.146 1698.61,829.435 1896.84,888.265 2095.06,947.073 2293.29,1005.88 "/>
<polyline clip-path="url(#clip392)" style="stroke:#e26f46; stroke-linecap:round; stroke-linejoin:round; stroke-width:4; stroke-opacity:1; fill:none" points="311.028,160.256 509.254,291.161 707.48,351.713 905.706,385.716 1103.93,427.097 1302.16,529.503 1500.38,658.069 1698.61,901.133 1896.84,1386.4 "/>
<path clip-path="url(#clip390)" d="M1807.44 322.316 L2282.72 322.316 L2282.72 166.796 L1807.44 166.796  Z" fill="#ffffff" fill-rule="evenodd" fill-opacity="1"/>
<polyline clip-path="url(#clip390)" style="stroke:#000000; stroke-linecap:round; stroke-linejoin:round; stroke-width:4; stroke-opacity:1; fill:none" points="1807.44,322.316 2282.72,322.316 2282.72,166.796 1807.44,166.796 1807.44,322.316 "/>
<polyline clip-path="url(#clip390)" style="stroke:#009af9; stroke-linecap:round; stroke-linejoin:round; stroke-width:4; stroke-opacity:1; fill:none" points="1830.78,218.636 1970.86,218.636 "/>
<path clip-path="url(#clip390)" d="M1994.21 201.356 L1998.88 201.356 L1998.88 231.981 L2015.71 231.981 L2015.71 235.916 L1994.21 235.916 L1994.21 201.356 Z" fill="#000000" fill-rule="nonzero" fill-opacity="1" /><path clip-path="url(#clip390)" d="M2020.62 201.356 L2027.59 201.356 L2036.41 224.874 L2045.27 201.356 L2052.24 201.356 L2052.24 235.916 L2047.68 235.916 L2047.68 205.569 L2038.77 229.272 L2034.07 229.272 L2025.16 205.569 L2025.16 235.916 L2020.62 235.916 L2020.62 201.356 Z" fill="#000000" fill-rule="nonzero" fill-opacity="1" /><path clip-path="url(#clip390)" d="M2081.04 243.786 L2081.04 247.096 L2056.41 247.096 L2056.41 243.786 L2081.04 243.786 Z" fill="#000000" fill-rule="nonzero" fill-opacity="1" /><path clip-path="url(#clip390)" d="M2096.78 205.962 L2090.44 223.161 L2103.14 223.161 L2096.78 205.962 M2094.14 201.356 L2099.44 201.356 L2112.61 235.916 L2107.75 235.916 L2104.6 227.05 L2089.02 227.05 L2085.87 235.916 L2080.94 235.916 L2094.14 201.356 Z" fill="#000000" fill-rule="nonzero" fill-opacity="1" /><path clip-path="url(#clip390)" d="M2139.02 220.268 L2139.02 235.916 L2134.76 235.916 L2134.76 220.407 Q2134.76 216.726 2133.33 214.897 Q2131.89 213.069 2129.02 213.069 Q2125.57 213.069 2123.58 215.268 Q2121.59 217.467 2121.59 221.263 L2121.59 235.916 L2117.31 235.916 L2117.31 209.99 L2121.59 209.99 L2121.59 214.018 Q2123.12 211.68 2125.18 210.522 Q2127.26 209.365 2129.97 209.365 Q2134.44 209.365 2136.73 212.143 Q2139.02 214.897 2139.02 220.268 Z" fill="#000000" fill-rule="nonzero" fill-opacity="1" /><path clip-path="url(#clip390)" d="M2164.58 213.925 L2164.58 199.897 L2168.84 199.897 L2168.84 235.916 L2164.58 235.916 L2164.58 232.027 Q2163.24 234.342 2161.18 235.476 Q2159.14 236.587 2156.27 236.587 Q2151.57 236.587 2148.61 232.837 Q2145.67 229.087 2145.67 222.976 Q2145.67 216.865 2148.61 213.115 Q2151.57 209.365 2156.27 209.365 Q2159.14 209.365 2161.18 210.499 Q2163.24 211.61 2164.58 213.925 M2150.06 222.976 Q2150.06 227.675 2151.99 230.36 Q2153.93 233.022 2157.31 233.022 Q2160.69 233.022 2162.63 230.36 Q2164.58 227.675 2164.58 222.976 Q2164.58 218.277 2162.63 215.615 Q2160.69 212.93 2157.31 212.93 Q2153.93 212.93 2151.99 215.615 Q2150.06 218.277 2150.06 222.976 Z" fill="#000000" fill-rule="nonzero" fill-opacity="1" /><path clip-path="url(#clip390)" d="M2192.63 213.971 Q2191.92 213.555 2191.06 213.37 Q2190.23 213.161 2189.21 213.161 Q2185.6 213.161 2183.65 215.522 Q2181.73 217.86 2181.73 222.258 L2181.73 235.916 L2177.45 235.916 L2177.45 209.99 L2181.73 209.99 L2181.73 214.018 Q2183.07 211.657 2185.23 210.522 Q2187.38 209.365 2190.46 209.365 Q2190.9 209.365 2191.43 209.434 Q2191.96 209.481 2192.61 209.596 L2192.63 213.971 Z" fill="#000000" fill-rule="nonzero" fill-opacity="1" /><path clip-path="url(#clip390)" d="M2218.24 221.888 L2218.24 223.971 L2198.65 223.971 Q2198.93 228.369 2201.29 230.684 Q2203.68 232.976 2207.91 232.976 Q2210.37 232.976 2212.66 232.374 Q2214.97 231.772 2217.24 230.569 L2217.24 234.596 Q2214.95 235.568 2212.54 236.078 Q2210.13 236.587 2207.66 236.587 Q2201.45 236.587 2197.82 232.976 Q2194.21 229.365 2194.21 223.207 Q2194.21 216.842 2197.63 213.115 Q2201.08 209.365 2206.92 209.365 Q2212.15 209.365 2215.18 212.745 Q2218.24 216.101 2218.24 221.888 M2213.98 220.638 Q2213.93 217.143 2212.01 215.059 Q2210.11 212.976 2206.96 212.976 Q2203.4 212.976 2201.24 214.99 Q2199.12 217.004 2198.79 220.661 L2213.98 220.638 Z" fill="#000000" fill-rule="nonzero" fill-opacity="1" /><path clip-path="url(#clip390)" d="M2225.23 209.99 L2229.49 209.99 L2229.49 235.916 L2225.23 235.916 L2225.23 209.99 M2225.23 199.897 L2229.49 199.897 L2229.49 205.291 L2225.23 205.291 L2225.23 199.897 Z" fill="#000000" fill-rule="nonzero" fill-opacity="1" /><polyline clip-path="url(#clip390)" style="stroke:#e26f46; stroke-linecap:round; stroke-linejoin:round; stroke-width:4; stroke-opacity:1; fill:none" points="1830.78,270.476 1970.86,270.476 "/>
<path clip-path="url(#clip390)" d="M1994.21 253.196 L1998.88 253.196 L1998.88 283.821 L2015.71 283.821 L2015.71 287.756 L1994.21 287.756 L1994.21 253.196 Z" fill="#000000" fill-rule="nonzero" fill-opacity="1" /><path clip-path="url(#clip390)" d="M2020.62 253.196 L2027.59 253.196 L2036.41 276.714 L2045.27 253.196 L2052.24 253.196 L2052.24 287.756 L2047.68 287.756 L2047.68 257.409 L2038.77 281.112 L2034.07 281.112 L2025.16 257.409 L2025.16 287.756 L2020.62 287.756 L2020.62 253.196 Z" fill="#000000" fill-rule="nonzero" fill-opacity="1" /><path clip-path="url(#clip390)" d="M2081.04 295.626 L2081.04 298.936 L2056.41 298.936 L2056.41 295.626 L2081.04 295.626 Z" fill="#000000" fill-rule="nonzero" fill-opacity="1" /><path clip-path="url(#clip390)" d="M2105.94 254.33 L2105.94 258.89 Q2103.28 257.617 2100.92 256.992 Q2098.56 256.367 2096.36 256.367 Q2092.54 256.367 2090.46 257.848 Q2088.4 259.33 2088.4 262.061 Q2088.4 264.353 2089.76 265.534 Q2091.15 266.691 2095 267.409 L2097.82 267.987 Q2103.05 268.983 2105.53 271.506 Q2108.03 274.006 2108.03 278.219 Q2108.03 283.242 2104.65 285.834 Q2101.29 288.427 2094.79 288.427 Q2092.33 288.427 2089.56 287.871 Q2086.8 287.316 2083.84 286.228 L2083.84 281.413 Q2086.69 283.01 2089.42 283.821 Q2092.15 284.631 2094.79 284.631 Q2098.79 284.631 2100.97 283.057 Q2103.14 281.483 2103.14 278.566 Q2103.14 276.02 2101.57 274.584 Q2100.02 273.149 2096.45 272.432 L2093.61 271.876 Q2088.37 270.835 2086.04 268.612 Q2083.7 266.39 2083.7 262.432 Q2083.7 257.848 2086.92 255.21 Q2090.16 252.571 2095.83 252.571 Q2098.26 252.571 2100.78 253.011 Q2103.31 253.45 2105.94 254.33 Z" fill="#000000" fill-rule="nonzero" fill-opacity="1" /><path clip-path="url(#clip390)" d="M2120 257.038 L2120 270.024 L2125.87 270.024 Q2129.14 270.024 2130.92 268.335 Q2132.7 266.645 2132.7 263.52 Q2132.7 260.418 2130.92 258.728 Q2129.14 257.038 2125.87 257.038 L2120 257.038 M2115.32 253.196 L2125.87 253.196 Q2131.68 253.196 2134.65 255.835 Q2137.63 258.45 2137.63 263.52 Q2137.63 268.635 2134.65 271.251 Q2131.68 273.867 2125.87 273.867 L2120 273.867 L2120 287.756 L2115.32 287.756 L2115.32 253.196 Z" fill="#000000" fill-rule="nonzero" fill-opacity="1" /><path clip-path="url(#clip390)" d="M2167.47 282.825 L2167.47 273.543 L2159.83 273.543 L2159.83 269.7 L2172.1 269.7 L2172.1 284.538 Q2169.39 286.459 2166.13 287.455 Q2162.87 288.427 2159.16 288.427 Q2151.06 288.427 2146.48 283.705 Q2141.92 278.959 2141.92 270.51 Q2141.92 262.038 2146.48 257.316 Q2151.06 252.571 2159.16 252.571 Q2162.54 252.571 2165.57 253.404 Q2168.63 254.237 2171.2 255.858 L2171.2 260.835 Q2168.61 258.636 2165.69 257.524 Q2162.77 256.413 2159.56 256.413 Q2153.21 256.413 2150.02 259.955 Q2146.85 263.497 2146.85 270.51 Q2146.85 277.501 2150.02 281.043 Q2153.21 284.584 2159.56 284.584 Q2162.03 284.584 2163.98 284.168 Q2165.92 283.728 2167.47 282.825 Z" fill="#000000" fill-rule="nonzero" fill-opacity="1" /><path clip-path="url(#clip390)" d="M2200.16 295.626 L2200.16 298.936 L2175.53 298.936 L2175.53 295.626 L2200.16 295.626 Z" fill="#000000" fill-rule="nonzero" fill-opacity="1" /><path clip-path="url(#clip390)" d="M2215.94 274.723 Q2210.78 274.723 2208.79 275.904 Q2206.8 277.084 2206.8 279.932 Q2206.8 282.2 2208.28 283.543 Q2209.79 284.862 2212.36 284.862 Q2215.9 284.862 2218.03 282.362 Q2220.18 279.839 2220.18 275.672 L2220.18 274.723 L2215.94 274.723 M2224.44 272.964 L2224.44 287.756 L2220.18 287.756 L2220.18 283.821 Q2218.72 286.182 2216.55 287.316 Q2214.37 288.427 2211.22 288.427 Q2207.24 288.427 2204.88 286.205 Q2202.54 283.959 2202.54 280.209 Q2202.54 275.834 2205.46 273.612 Q2208.4 271.39 2214.21 271.39 L2220.18 271.39 L2220.18 270.973 Q2220.18 268.034 2218.24 266.436 Q2216.31 264.816 2212.82 264.816 Q2210.6 264.816 2208.49 265.348 Q2206.38 265.881 2204.44 266.946 L2204.44 263.01 Q2206.78 262.108 2208.98 261.668 Q2211.18 261.205 2213.26 261.205 Q2218.88 261.205 2221.66 264.122 Q2224.44 267.038 2224.44 272.964 Z" fill="#000000" fill-rule="nonzero" fill-opacity="1" /><path clip-path="url(#clip390)" d="M2233.21 251.737 L2237.47 251.737 L2237.47 287.756 L2233.21 287.756 L2233.21 251.737 Z" fill="#000000" fill-rule="nonzero" fill-opacity="1" /><path clip-path="url(#clip390)" d="M2250.6 254.469 L2250.6 261.83 L2259.37 261.83 L2259.37 265.14 L2250.6 265.14 L2250.6 279.214 Q2250.6 282.385 2251.45 283.288 Q2252.33 284.191 2254.99 284.191 L2259.37 284.191 L2259.37 287.756 L2254.99 287.756 Q2250.06 287.756 2248.19 285.927 Q2246.31 284.075 2246.31 279.214 L2246.31 265.14 L2243.19 265.14 L2243.19 261.83 L2246.31 261.83 L2246.31 254.469 L2250.6 254.469 Z" fill="#000000" fill-rule="nonzero" fill-opacity="1" /></svg>
