<?xml version="1.0" encoding="utf-8"?>
<svg xmlns="http://www.w3.org/2000/svg" xmlns:xlink="http://www.w3.org/1999/xlink" width="600" height="400" viewBox="0 0 2400 1600">
<defs>
  <clipPath id="clip210">
    <rect x="0" y="0" width="2400" height="1600"/>
  </clipPath>
</defs>
<path clip-path="url(#clip210)" d="M0 1600 L2400 1600 L2400 0 L0 0  Z" fill="#ffffff" fill-rule="evenodd" fill-opacity="1"/>
<defs>
  <clipPath id="clip211">
    <rect x="480" y="0" width="1681" height="1600"/>
  </clipPath>
</defs>
<path clip-path="url(#clip210)" d="M276.876 1423.18 L2352.76 1423.18 L2352.76 123.472 L276.876 123.472  Z" fill="#ffffff" fill-rule="evenodd" fill-opacity="1"/>
<defs>
  <clipPath id="clip212">
    <rect x="276" y="123" width="2077" height="1301"/>
  </clipPath>
</defs>
<polyline clip-path="url(#clip212)" style="stroke:#000000; stroke-linecap:round; stroke-linejoin:round; stroke-width:2; stroke-opacity:0.1; fill:none" points="302.987,1423.18 302.987,123.472 "/>
<polyline clip-path="url(#clip212)" style="stroke:#000000; stroke-linecap:round; stroke-linejoin:round; stroke-width:2; stroke-opacity:0.1; fill:none" points="629.384,1423.18 629.384,123.472 "/>
<polyline clip-path="url(#clip212)" style="stroke:#000000; stroke-linecap:round; stroke-linejoin:round; stroke-width:2; stroke-opacity:0.1; fill:none" points="955.78,1423.18 955.78,123.472 "/>
<polyline clip-path="url(#clip212)" style="stroke:#000000; stroke-linecap:round; stroke-linejoin:round; stroke-width:2; stroke-opacity:0.1; fill:none" points="1282.18,1423.18 1282.18,123.472 "/>
<polyline clip-path="url(#clip212)" style="stroke:#000000; stroke-linecap:round; stroke-linejoin:round; stroke-width:2; stroke-opacity:0.1; fill:none" points="1608.57,1423.18 1608.57,123.472 "/>
<polyline clip-path="url(#clip212)" style="stroke:#000000; stroke-linecap:round; stroke-linejoin:round; stroke-width:2; stroke-opacity:0.1; fill:none" points="1934.97,1423.18 1934.97,123.472 "/>
<polyline clip-path="url(#clip212)" style="stroke:#000000; stroke-linecap:round; stroke-linejoin:round; stroke-width:2; stroke-opacity:0.1; fill:none" points="2261.36,1423.18 2261.36,123.472 "/>
<polyline clip-path="url(#clip210)" style="stroke:#000000; stroke-linecap:round; stroke-linejoin:round; stroke-width:4; stroke-opacity:1; fill:none" points="276.876,1423.18 2352.76,1423.18 "/>
<polyline clip-path="url(#clip210)" style="stroke:#000000; stroke-linecap:round; stroke-linejoin:round; stroke-width:4; stroke-opacity:1; fill:none" points="302.987,1423.18 302.987,1404.28 "/>
<polyline clip-path="url(#clip210)" style="stroke:#000000; stroke-linecap:round; stroke-linejoin:round; stroke-width:4; stroke-opacity:1; fill:none" points="629.384,1423.18 629.384,1404.28 "/>
<polyline clip-path="url(#clip210)" style="stroke:#000000; stroke-linecap:round; stroke-linejoin:round; stroke-width:4; stroke-opacity:1; fill:none" points="955.78,1423.18 955.78,1404.28 "/>
<polyline clip-path="url(#clip210)" style="stroke:#000000; stroke-linecap:round; stroke-linejoin:round; stroke-width:4; stroke-opacity:1; fill:none" points="1282.18,1423.18 1282.18,1404.28 "/>
<polyline clip-path="url(#clip210)" style="stroke:#000000; stroke-linecap:round; stroke-linejoin:round; stroke-width:4; stroke-opacity:1; fill:none" points="1608.57,1423.18 1608.57,1404.28 "/>
<polyline clip-path="url(#clip210)" style="stroke:#000000; stroke-linecap:round; stroke-linejoin:round; stroke-width:4; stroke-opacity:1; fill:none" points="1934.97,1423.18 1934.97,1404.28 "/>
<polyline clip-path="url(#clip210)" style="stroke:#000000; stroke-linecap:round; stroke-linejoin:round; stroke-width:4; stroke-opacity:1; fill:none" points="2261.36,1423.18 2261.36,1404.28 "/>
<path clip-path="url(#clip210)" d="M302.987 1454.1 Q299.376 1454.1 297.547 1457.66 Q295.742 1461.2 295.742 1468.33 Q295.742 1475.44 297.547 1479.01 Q299.376 1482.55 302.987 1482.55 Q306.621 1482.55 308.427 1479.01 Q310.256 1475.44 310.256 1468.33 Q310.256 1461.2 308.427 1457.66 Q306.621 1454.1 302.987 1454.1 M302.987 1450.39 Q308.797 1450.39 311.853 1455 Q314.932 1459.58 314.932 1468.33 Q314.932 1477.06 311.853 1481.67 Q308.797 1486.25 302.987 1486.25 Q297.177 1486.25 294.098 1481.67 Q291.043 1477.06 291.043 1468.33 Q291.043 1459.58 294.098 1455 Q297.177 1450.39 302.987 1450.39 Z" fill="#000000" fill-rule="nonzero" fill-opacity="1" /><path clip-path="url(#clip210)" d="M604.071 1481.64 L611.71 1481.64 L611.71 1455.28 L603.4 1456.95 L603.4 1452.69 L611.664 1451.02 L616.34 1451.02 L616.34 1481.64 L623.978 1481.64 L623.978 1485.58 L604.071 1485.58 L604.071 1481.64 Z" fill="#000000" fill-rule="nonzero" fill-opacity="1" /><path clip-path="url(#clip210)" d="M643.423 1454.1 Q639.812 1454.1 637.983 1457.66 Q636.177 1461.2 636.177 1468.33 Q636.177 1475.44 637.983 1479.01 Q639.812 1482.55 643.423 1482.55 Q647.057 1482.55 648.863 1479.01 Q650.691 1475.44 650.691 1468.33 Q650.691 1461.2 648.863 1457.66 Q647.057 1454.1 643.423 1454.1 M643.423 1450.39 Q649.233 1450.39 652.288 1455 Q655.367 1459.58 655.367 1468.33 Q655.367 1477.06 652.288 1481.67 Q649.233 1486.25 643.423 1486.25 Q637.613 1486.25 634.534 1481.67 Q631.478 1477.06 631.478 1468.33 Q631.478 1459.58 634.534 1455 Q637.613 1450.39 643.423 1450.39 Z" fill="#000000" fill-rule="nonzero" fill-opacity="1" /><path clip-path="url(#clip210)" d="M934.553 1481.64 L950.872 1481.64 L950.872 1485.58 L928.928 1485.58 L928.928 1481.64 Q931.59 1478.89 936.173 1474.26 Q940.78 1469.61 941.96 1468.27 Q944.206 1465.74 945.085 1464.01 Q945.988 1462.25 945.988 1460.56 Q945.988 1457.8 944.044 1456.07 Q942.122 1454.33 939.021 1454.33 Q936.822 1454.33 934.368 1455.09 Q931.937 1455.86 929.16 1457.41 L929.16 1452.69 Q931.984 1451.55 934.437 1450.97 Q936.891 1450.39 938.928 1450.39 Q944.298 1450.39 947.493 1453.08 Q950.687 1455.77 950.687 1460.26 Q950.687 1462.39 949.877 1464.31 Q949.09 1466.2 946.984 1468.8 Q946.405 1469.47 943.303 1472.69 Q940.201 1475.88 934.553 1481.64 Z" fill="#000000" fill-rule="nonzero" fill-opacity="1" /><path clip-path="url(#clip210)" d="M970.687 1454.1 Q967.076 1454.1 965.247 1457.66 Q963.442 1461.2 963.442 1468.33 Q963.442 1475.44 965.247 1479.01 Q967.076 1482.55 970.687 1482.55 Q974.321 1482.55 976.127 1479.01 Q977.956 1475.44 977.956 1468.33 Q977.956 1461.2 976.127 1457.66 Q974.321 1454.1 970.687 1454.1 M970.687 1450.39 Q976.497 1450.39 979.553 1455 Q982.631 1459.58 982.631 1468.33 Q982.631 1477.06 979.553 1481.67 Q976.497 1486.25 970.687 1486.25 Q964.877 1486.25 961.798 1481.67 Q958.743 1477.06 958.743 1468.33 Q958.743 1459.58 961.798 1455 Q964.877 1450.39 970.687 1450.39 Z" fill="#000000" fill-rule="nonzero" fill-opacity="1" /><path clip-path="url(#clip210)" d="M1271.02 1466.95 Q1274.38 1467.66 1276.25 1469.93 Q1278.15 1472.2 1278.15 1475.53 Q1278.15 1480.65 1274.63 1483.45 Q1271.11 1486.25 1264.63 1486.25 Q1262.45 1486.25 1260.14 1485.81 Q1257.85 1485.39 1255.39 1484.54 L1255.39 1480.02 Q1257.34 1481.16 1259.65 1481.74 Q1261.97 1482.32 1264.49 1482.32 Q1268.89 1482.32 1271.18 1480.58 Q1273.5 1478.84 1273.5 1475.53 Q1273.5 1472.48 1271.34 1470.77 Q1269.21 1469.03 1265.39 1469.03 L1261.37 1469.03 L1261.37 1465.19 L1265.58 1465.19 Q1269.03 1465.19 1270.86 1463.82 Q1272.69 1462.43 1272.69 1459.84 Q1272.69 1457.18 1270.79 1455.77 Q1268.91 1454.33 1265.39 1454.33 Q1263.47 1454.33 1261.27 1454.75 Q1259.07 1455.16 1256.44 1456.04 L1256.44 1451.88 Q1259.1 1451.14 1261.41 1450.77 Q1263.75 1450.39 1265.81 1450.39 Q1271.13 1450.39 1274.24 1452.83 Q1277.34 1455.23 1277.34 1459.35 Q1277.34 1462.22 1275.69 1464.21 Q1274.05 1466.18 1271.02 1466.95 Z" fill="#000000" fill-rule="nonzero" fill-opacity="1" /><path clip-path="url(#clip210)" d="M1297.01 1454.1 Q1293.4 1454.1 1291.57 1457.66 Q1289.77 1461.2 1289.77 1468.33 Q1289.77 1475.44 1291.57 1479.01 Q1293.4 1482.55 1297.01 1482.55 Q1300.65 1482.55 1302.45 1479.01 Q1304.28 1475.44 1304.28 1468.33 Q1304.28 1461.2 1302.45 1457.66 Q1300.65 1454.1 1297.01 1454.1 M1297.01 1450.39 Q1302.82 1450.39 1305.88 1455 Q1308.96 1459.58 1308.96 1468.33 Q1308.96 1477.06 1305.88 1481.67 Q1302.82 1486.25 1297.01 1486.25 Q1291.2 1486.25 1288.13 1481.67 Q1285.07 1477.06 1285.07 1468.33 Q1285.07 1459.58 1288.13 1455 Q1291.2 1450.39 1297.01 1450.39 Z" fill="#000000" fill-rule="nonzero" fill-opacity="1" /><path clip-path="url(#clip210)" d="M1596.74 1455.09 L1584.94 1473.54 L1596.74 1473.54 L1596.74 1455.09 M1595.52 1451.02 L1601.4 1451.02 L1601.4 1473.54 L1606.33 1473.54 L1606.33 1477.43 L1601.4 1477.43 L1601.4 1485.58 L1596.74 1485.58 L1596.74 1477.43 L1581.14 1477.43 L1581.14 1472.92 L1595.52 1451.02 Z" fill="#000000" fill-rule="nonzero" fill-opacity="1" /><path clip-path="url(#clip210)" d="M1624.06 1454.1 Q1620.45 1454.1 1618.62 1457.66 Q1616.81 1461.2 1616.81 1468.33 Q1616.81 1475.44 1618.62 1479.01 Q1620.45 1482.55 1624.06 1482.55 Q1627.69 1482.55 1629.5 1479.01 Q1631.33 1475.44 1631.33 1468.33 Q1631.33 1461.2 1629.5 1457.66 Q1627.69 1454.1 1624.06 1454.1 M1624.06 1450.39 Q1629.87 1450.39 1632.92 1455 Q1636 1459.58 1636 1468.33 Q1636 1477.06 1632.92 1481.67 Q1629.87 1486.25 1624.06 1486.25 Q1618.25 1486.25 1615.17 1481.67 Q1612.11 1477.06 1612.11 1468.33 Q1612.11 1459.58 1615.17 1455 Q1618.25 1450.39 1624.06 1450.39 Z" fill="#000000" fill-rule="nonzero" fill-opacity="1" /><path clip-path="url(#clip210)" d="M1909.67 1451.02 L1928.02 1451.02 L1928.02 1454.96 L1913.95 1454.96 L1913.95 1463.43 Q1914.97 1463.08 1915.99 1462.92 Q1917.01 1462.73 1918.02 1462.73 Q1923.81 1462.73 1927.19 1465.9 Q1930.57 1469.08 1930.57 1474.49 Q1930.57 1480.07 1927.1 1483.17 Q1923.63 1486.25 1917.31 1486.25 Q1915.13 1486.25 1912.86 1485.88 Q1910.62 1485.51 1908.21 1484.77 L1908.21 1480.07 Q1910.29 1481.2 1912.52 1481.76 Q1914.74 1482.32 1917.21 1482.32 Q1921.22 1482.32 1923.56 1480.21 Q1925.89 1478.1 1925.89 1474.49 Q1925.89 1470.88 1923.56 1468.77 Q1921.22 1466.67 1917.21 1466.67 Q1915.34 1466.67 1913.46 1467.08 Q1911.61 1467.5 1909.67 1468.38 L1909.67 1451.02 Z" fill="#000000" fill-rule="nonzero" fill-opacity="1" /><path clip-path="url(#clip210)" d="M1949.78 1454.1 Q1946.17 1454.1 1944.34 1457.66 Q1942.54 1461.2 1942.54 1468.33 Q1942.54 1475.44 1944.34 1479.01 Q1946.17 1482.55 1949.78 1482.55 Q1953.42 1482.55 1955.22 1479.01 Q1957.05 1475.44 1957.05 1468.33 Q1957.05 1461.2 1955.22 1457.66 Q1953.42 1454.1 1949.78 1454.1 M1949.78 1450.39 Q1955.59 1450.39 1958.65 1455 Q1961.73 1459.58 1961.73 1468.33 Q1961.73 1477.06 1958.65 1481.67 Q1955.59 1486.25 1949.78 1486.25 Q1943.97 1486.25 1940.89 1481.67 Q1937.84 1477.06 1937.84 1468.33 Q1937.84 1459.58 1940.89 1455 Q1943.97 1450.39 1949.78 1450.39 Z" fill="#000000" fill-rule="nonzero" fill-opacity="1" /><path clip-path="url(#clip210)" d="M2246.77 1466.44 Q2243.62 1466.44 2241.77 1468.59 Q2239.94 1470.74 2239.94 1474.49 Q2239.94 1478.22 2241.77 1480.39 Q2243.62 1482.55 2246.77 1482.55 Q2249.92 1482.55 2251.75 1480.39 Q2253.6 1478.22 2253.6 1474.49 Q2253.6 1470.74 2251.75 1468.59 Q2249.92 1466.44 2246.77 1466.44 M2256.05 1451.78 L2256.05 1456.04 Q2254.29 1455.21 2252.49 1454.77 Q2250.71 1454.33 2248.95 1454.33 Q2244.32 1454.33 2241.86 1457.45 Q2239.43 1460.58 2239.08 1466.9 Q2240.45 1464.89 2242.51 1463.82 Q2244.57 1462.73 2247.05 1462.73 Q2252.26 1462.73 2255.27 1465.9 Q2258.3 1469.05 2258.3 1474.49 Q2258.3 1479.82 2255.15 1483.03 Q2252 1486.25 2246.77 1486.25 Q2240.77 1486.25 2237.6 1481.67 Q2234.43 1477.06 2234.43 1468.33 Q2234.43 1460.14 2238.32 1455.28 Q2242.21 1450.39 2248.76 1450.39 Q2250.52 1450.39 2252.3 1450.74 Q2254.11 1451.09 2256.05 1451.78 Z" fill="#000000" fill-rule="nonzero" fill-opacity="1" /><path clip-path="url(#clip210)" d="M2276.35 1454.1 Q2272.74 1454.1 2270.91 1457.66 Q2269.11 1461.2 2269.11 1468.33 Q2269.11 1475.44 2270.91 1479.01 Q2272.74 1482.55 2276.35 1482.55 Q2279.99 1482.55 2281.79 1479.01 Q2283.62 1475.44 2283.62 1468.33 Q2283.62 1461.2 2281.79 1457.66 Q2279.99 1454.1 2276.35 1454.1 M2276.35 1450.39 Q2282.16 1450.39 2285.22 1455 Q2288.3 1459.58 2288.3 1468.33 Q2288.3 1477.06 2285.22 1481.67 Q2282.16 1486.25 2276.35 1486.25 Q2270.54 1486.25 2267.46 1481.67 Q2264.41 1477.06 2264.41 1468.33 Q2264.41 1459.58 2267.46 1455 Q2270.54 1450.39 2276.35 1450.39 Z" fill="#000000" fill-rule="nonzero" fill-opacity="1" /><path clip-path="url(#clip210)" d="M1299 1518.52 L1304.89 1518.52 L1304.89 1547.77 L1322.36 1532.4 L1329.84 1532.4 L1310.93 1549.07 L1330.63 1568.04 L1323 1568.04 L1304.89 1550.63 L1304.89 1568.04 L1299 1568.04 L1299 1518.52 Z" fill="#000000" fill-rule="nonzero" fill-opacity="1" /><polyline clip-path="url(#clip212)" style="stroke:#000000; stroke-linecap:round; stroke-linejoin:round; stroke-width:2; stroke-opacity:0.1; fill:none" points="276.876,1314.24 2352.76,1314.24 "/>
<polyline clip-path="url(#clip212)" style="stroke:#000000; stroke-linecap:round; stroke-linejoin:round; stroke-width:2; stroke-opacity:0.1; fill:none" points="276.876,1063.88 2352.76,1063.88 "/>
<polyline clip-path="url(#clip212)" style="stroke:#000000; stroke-linecap:round; stroke-linejoin:round; stroke-width:2; stroke-opacity:0.1; fill:none" points="276.876,813.523 2352.76,813.523 "/>
<polyline clip-path="url(#clip212)" style="stroke:#000000; stroke-linecap:round; stroke-linejoin:round; stroke-width:2; stroke-opacity:0.1; fill:none" points="276.876,563.166 2352.76,563.166 "/>
<polyline clip-path="url(#clip212)" style="stroke:#000000; stroke-linecap:round; stroke-linejoin:round; stroke-width:2; stroke-opacity:0.1; fill:none" points="276.876,312.809 2352.76,312.809 "/>
<polyline clip-path="url(#clip210)" style="stroke:#000000; stroke-linecap:round; stroke-linejoin:round; stroke-width:4; stroke-opacity:1; fill:none" points="276.876,1423.18 276.876,123.472 "/>
<polyline clip-path="url(#clip210)" style="stroke:#000000; stroke-linecap:round; stroke-linejoin:round; stroke-width:4; stroke-opacity:1; fill:none" points="276.876,1314.24 295.773,1314.24 "/>
<polyline clip-path="url(#clip210)" style="stroke:#000000; stroke-linecap:round; stroke-linejoin:round; stroke-width:4; stroke-opacity:1; fill:none" points="276.876,1063.88 295.773,1063.88 "/>
<polyline clip-path="url(#clip210)" style="stroke:#000000; stroke-linecap:round; stroke-linejoin:round; stroke-width:4; stroke-opacity:1; fill:none" points="276.876,813.523 295.773,813.523 "/>
<polyline clip-path="url(#clip210)" style="stroke:#000000; stroke-linecap:round; stroke-linejoin:round; stroke-width:4; stroke-opacity:1; fill:none" points="276.876,563.166 295.773,563.166 "/>
<polyline clip-path="url(#clip210)" style="stroke:#000000; stroke-linecap:round; stroke-linejoin:round; stroke-width:4; stroke-opacity:1; fill:none" points="276.876,312.809 295.773,312.809 "/>
<path clip-path="url(#clip210)" d="M114.931 1334.03 L122.57 1334.03 L122.57 1307.66 L114.26 1309.33 L114.26 1305.07 L122.524 1303.4 L127.2 1303.4 L127.2 1334.03 L134.839 1334.03 L134.839 1337.96 L114.931 1337.96 L114.931 1334.03 Z" fill="#000000" fill-rule="nonzero" fill-opacity="1" /><path clip-path="url(#clip210)" d="M154.283 1306.48 Q150.672 1306.48 148.843 1310.05 Q147.038 1313.59 147.038 1320.72 Q147.038 1327.83 148.843 1331.39 Q150.672 1334.93 154.283 1334.93 Q157.917 1334.93 159.723 1331.39 Q161.552 1327.83 161.552 1320.72 Q161.552 1313.59 159.723 1310.05 Q157.917 1306.48 154.283 1306.48 M154.283 1302.78 Q160.093 1302.78 163.149 1307.39 Q166.227 1311.97 166.227 1320.72 Q166.227 1329.45 163.149 1334.05 Q160.093 1338.64 154.283 1338.64 Q148.473 1338.64 145.394 1334.05 Q142.339 1329.45 142.339 1320.72 Q142.339 1311.97 145.394 1307.39 Q148.473 1302.78 154.283 1302.78 Z" fill="#000000" fill-rule="nonzero" fill-opacity="1" /><path clip-path="url(#clip210)" d="M166.227 1296.88 L190.339 1296.88 L190.339 1300.08 L166.227 1300.08 L166.227 1296.88 Z" fill="#000000" fill-rule="nonzero" fill-opacity="1" /><path clip-path="url(#clip210)" d="M199.197 1307.36 L205.404 1307.36 L205.404 1285.93 L198.652 1287.29 L198.652 1283.83 L205.366 1282.47 L209.166 1282.47 L209.166 1307.36 L215.372 1307.36 L215.372 1310.55 L199.197 1310.55 L199.197 1307.36 Z" fill="#000000" fill-rule="nonzero" fill-opacity="1" /><path clip-path="url(#clip210)" d="M231.171 1284.98 Q228.237 1284.98 226.751 1287.87 Q225.284 1290.75 225.284 1296.54 Q225.284 1302.32 226.751 1305.21 Q228.237 1308.09 231.171 1308.09 Q234.124 1308.09 235.591 1305.21 Q237.076 1302.32 237.076 1296.54 Q237.076 1290.75 235.591 1287.87 Q234.124 1284.98 231.171 1284.98 M231.171 1281.97 Q235.891 1281.97 238.374 1285.71 Q240.876 1289.43 240.876 1296.54 Q240.876 1303.63 238.374 1307.38 Q235.891 1311.1 231.171 1311.1 Q226.45 1311.1 223.949 1307.38 Q221.466 1303.63 221.466 1296.54 Q221.466 1289.43 223.949 1285.71 Q226.45 1281.97 231.171 1281.97 Z" fill="#000000" fill-rule="nonzero" fill-opacity="1" /><path clip-path="url(#clip210)" d="M140.247 1083.67 L147.886 1083.67 L147.886 1057.31 L139.575 1058.97 L139.575 1054.71 L147.839 1053.05 L152.515 1053.05 L152.515 1083.67 L160.154 1083.67 L160.154 1087.61 L140.247 1087.61 L140.247 1083.67 Z" fill="#000000" fill-rule="nonzero" fill-opacity="1" /><path clip-path="url(#clip210)" d="M179.598 1056.13 Q175.987 1056.13 174.159 1059.69 Q172.353 1063.23 172.353 1070.36 Q172.353 1077.47 174.159 1081.03 Q175.987 1084.57 179.598 1084.57 Q183.233 1084.57 185.038 1081.03 Q186.867 1077.47 186.867 1070.36 Q186.867 1063.23 185.038 1059.69 Q183.233 1056.13 179.598 1056.13 M179.598 1052.42 Q185.409 1052.42 188.464 1057.03 Q191.543 1061.61 191.543 1070.36 Q191.543 1079.09 188.464 1083.7 Q185.409 1088.28 179.598 1088.28 Q173.788 1088.28 170.71 1083.7 Q167.654 1079.09 167.654 1070.36 Q167.654 1061.61 170.71 1057.03 Q173.788 1052.42 179.598 1052.42 Z" fill="#000000" fill-rule="nonzero" fill-opacity="1" /><path clip-path="url(#clip210)" d="M191.543 1046.52 L215.654 1046.52 L215.654 1049.72 L191.543 1049.72 L191.543 1046.52 Z" fill="#000000" fill-rule="nonzero" fill-opacity="1" /><path clip-path="url(#clip210)" d="M223.892 1032.12 L238.807 1032.12 L238.807 1035.31 L227.372 1035.31 L227.372 1042.2 Q228.199 1041.92 229.027 1041.78 Q229.854 1041.63 230.682 1041.63 Q235.384 1041.63 238.13 1044.21 Q240.876 1046.79 240.876 1051.19 Q240.876 1055.72 238.054 1058.24 Q235.233 1060.74 230.099 1060.74 Q228.331 1060.74 226.488 1060.44 Q224.663 1060.14 222.707 1059.54 L222.707 1055.72 Q224.4 1056.64 226.205 1057.09 Q228.011 1057.54 230.023 1057.54 Q233.277 1057.54 235.177 1055.83 Q237.076 1054.12 237.076 1051.19 Q237.076 1048.25 235.177 1046.54 Q233.277 1044.83 230.023 1044.83 Q228.5 1044.83 226.977 1045.17 Q225.472 1045.51 223.892 1046.22 L223.892 1032.12 Z" fill="#000000" fill-rule="nonzero" fill-opacity="1" /><path clip-path="url(#clip210)" d="M170.17 833.315 L177.809 833.315 L177.809 806.949 L169.499 808.616 L169.499 804.357 L177.762 802.69 L182.438 802.69 L182.438 833.315 L190.077 833.315 L190.077 837.25 L170.17 837.25 L170.17 833.315 Z" fill="#000000" fill-rule="nonzero" fill-opacity="1" /><path clip-path="url(#clip210)" d="M209.522 805.769 Q205.91 805.769 204.082 809.334 Q202.276 812.875 202.276 820.005 Q202.276 827.111 204.082 830.676 Q205.91 834.218 209.522 834.218 Q213.156 834.218 214.961 830.676 Q216.79 827.111 216.79 820.005 Q216.79 812.875 214.961 809.334 Q213.156 805.769 209.522 805.769 M209.522 802.065 Q215.332 802.065 218.387 806.672 Q221.466 811.255 221.466 820.005 Q221.466 828.732 218.387 833.338 Q215.332 837.922 209.522 837.922 Q203.711 837.922 200.633 833.338 Q197.577 828.732 197.577 820.005 Q197.577 811.255 200.633 806.672 Q203.711 802.065 209.522 802.065 Z" fill="#000000" fill-rule="nonzero" fill-opacity="1" /><path clip-path="url(#clip210)" d="M231.171 784.261 Q228.237 784.261 226.751 787.158 Q225.284 790.035 225.284 795.828 Q225.284 801.602 226.751 804.498 Q228.237 807.376 231.171 807.376 Q234.124 807.376 235.591 804.498 Q237.076 801.602 237.076 795.828 Q237.076 790.035 235.591 787.158 Q234.124 784.261 231.171 784.261 M231.171 781.252 Q235.891 781.252 238.374 784.995 Q240.876 788.719 240.876 795.828 Q240.876 802.919 238.374 806.661 Q235.891 810.385 231.171 810.385 Q226.45 810.385 223.949 806.661 Q221.466 802.919 221.466 795.828 Q221.466 788.719 223.949 784.995 Q226.45 781.252 231.171 781.252 Z" fill="#000000" fill-rule="nonzero" fill-opacity="1" /><path clip-path="url(#clip210)" d="M171.411 582.958 L179.05 582.958 L179.05 556.592 L170.74 558.259 L170.74 554 L179.004 552.333 L183.68 552.333 L183.68 582.958 L191.318 582.958 L191.318 586.893 L171.411 586.893 L171.411 582.958 Z" fill="#000000" fill-rule="nonzero" fill-opacity="1" /><path clip-path="url(#clip210)" d="M210.763 555.412 Q207.152 555.412 205.323 558.977 Q203.517 562.518 203.517 569.648 Q203.517 576.754 205.323 580.319 Q207.152 583.861 210.763 583.861 Q214.397 583.861 216.203 580.319 Q218.031 576.754 218.031 569.648 Q218.031 562.518 216.203 558.977 Q214.397 555.412 210.763 555.412 M210.763 551.708 Q216.573 551.708 219.629 556.315 Q222.707 560.898 222.707 569.648 Q222.707 578.375 219.629 582.981 Q216.573 587.565 210.763 587.565 Q204.953 587.565 201.874 582.981 Q198.818 578.375 198.818 569.648 Q198.818 560.898 201.874 556.315 Q204.953 551.708 210.763 551.708 Z" fill="#000000" fill-rule="nonzero" fill-opacity="1" /><path clip-path="url(#clip210)" d="M223.892 531.403 L238.807 531.403 L238.807 534.6 L227.372 534.6 L227.372 541.484 Q228.199 541.202 229.027 541.07 Q229.854 540.92 230.682 540.92 Q235.384 540.92 238.13 543.496 Q240.876 546.073 240.876 550.474 Q240.876 555.007 238.054 557.527 Q235.233 560.028 230.099 560.028 Q228.331 560.028 226.488 559.727 Q224.663 559.426 222.707 558.825 L222.707 555.007 Q224.4 555.928 226.205 556.38 Q228.011 556.831 230.023 556.831 Q233.277 556.831 235.177 555.119 Q237.076 553.408 237.076 550.474 Q237.076 547.54 235.177 545.828 Q233.277 544.117 230.023 544.117 Q228.5 544.117 226.977 544.455 Q225.472 544.794 223.892 545.509 L223.892 531.403 Z" fill="#000000" fill-rule="nonzero" fill-opacity="1" /><path clip-path="url(#clip210)" d="M147.356 332.601 L154.995 332.601 L154.995 306.235 L146.685 307.902 L146.685 303.643 L154.949 301.976 L159.624 301.976 L159.624 332.601 L167.263 332.601 L167.263 336.536 L147.356 336.536 L147.356 332.601 Z" fill="#000000" fill-rule="nonzero" fill-opacity="1" /><path clip-path="url(#clip210)" d="M186.708 305.055 Q183.097 305.055 181.268 308.62 Q179.462 312.161 179.462 319.291 Q179.462 326.397 181.268 329.962 Q183.097 333.504 186.708 333.504 Q190.342 333.504 192.147 329.962 Q193.976 326.397 193.976 319.291 Q193.976 312.161 192.147 308.62 Q190.342 305.055 186.708 305.055 M186.708 301.351 Q192.518 301.351 195.573 305.958 Q198.652 310.541 198.652 319.291 Q198.652 328.018 195.573 332.624 Q192.518 337.207 186.708 337.207 Q180.898 337.207 177.819 332.624 Q174.763 328.018 174.763 319.291 Q174.763 310.541 177.819 305.958 Q180.898 301.351 186.708 301.351 Z" fill="#000000" fill-rule="nonzero" fill-opacity="1" /><path clip-path="url(#clip210)" d="M199.197 305.928 L205.404 305.928 L205.404 284.506 L198.652 285.861 L198.652 282.4 L205.366 281.046 L209.166 281.046 L209.166 305.928 L215.372 305.928 L215.372 309.126 L199.197 309.126 L199.197 305.928 Z" fill="#000000" fill-rule="nonzero" fill-opacity="1" /><path clip-path="url(#clip210)" d="M231.171 283.547 Q228.237 283.547 226.751 286.444 Q225.284 289.321 225.284 295.114 Q225.284 300.888 226.751 303.784 Q228.237 306.662 231.171 306.662 Q234.124 306.662 235.591 303.784 Q237.076 300.888 237.076 295.114 Q237.076 289.321 235.591 286.444 Q234.124 283.547 231.171 283.547 M231.171 280.538 Q235.891 280.538 238.374 284.281 Q240.876 288.005 240.876 295.114 Q240.876 302.205 238.374 305.947 Q235.891 309.671 231.171 309.671 Q226.45 309.671 223.949 305.947 Q221.466 302.205 221.466 295.114 Q221.466 288.005 223.949 284.281 Q226.45 280.538 231.171 280.538 Z" fill="#000000" fill-rule="nonzero" fill-opacity="1" /><path clip-path="url(#clip210)" d="M45.7664 817.313 Q39.4007 817.313 35.8996 819.955 Q32.3984 822.565 32.3984 827.307 Q32.3984 832.018 35.8996 834.66 Q39.4007 837.27 45.7664 837.27 Q52.1003 837.27 55.6014 834.66 Q59.1026 832.018 59.1026 827.307 Q59.1026 822.565 55.6014 819.955 Q52.1003 817.313 45.7664 817.313 M59.58 811.457 Q68.683 811.457 73.1071 815.499 Q77.5631 819.541 77.5631 827.88 Q77.5631 830.967 77.0857 833.705 Q76.6401 836.442 75.6852 839.02 L69.9879 839.02 Q71.3884 836.442 72.0568 833.928 Q72.7252 831.413 72.7252 828.803 Q72.7252 823.042 69.7015 820.178 Q66.7096 817.313 60.6303 817.313 L57.7339 817.313 Q60.885 819.127 62.4446 821.96 Q64.0042 824.793 64.0042 828.739 Q64.0042 835.296 59.0071 839.307 Q54.01 843.317 45.7664 843.317 Q37.491 843.317 32.4939 839.307 Q27.4968 835.296 27.4968 828.739 Q27.4968 824.793 29.0564 821.96 Q30.616 819.127 33.7671 817.313 L28.3562 817.313 L28.3562 811.457 L59.58 811.457 Z" fill="#000000" fill-rule="nonzero" fill-opacity="1" /><path clip-path="url(#clip210)" d="M33.8307 778.737 Q33.2578 779.724 33.0032 780.901 Q32.7167 782.047 32.7167 783.447 Q32.7167 788.413 35.9632 791.086 Q39.1779 793.728 45.2253 793.728 L64.0042 793.728 L64.0042 799.616 L28.3562 799.616 L28.3562 793.728 L33.8944 793.728 Q30.6479 791.882 29.0883 788.922 Q27.4968 785.962 27.4968 781.729 Q27.4968 781.124 27.5923 780.392 Q27.656 779.66 27.8151 778.769 L33.8307 778.737 Z" fill="#000000" fill-rule="nonzero" fill-opacity="1" /><path clip-path="url(#clip210)" d="M46.0847 756.393 Q46.0847 763.491 47.7079 766.228 Q49.3312 768.965 53.2461 768.965 Q56.3653 768.965 58.2114 766.928 Q60.0256 764.86 60.0256 761.327 Q60.0256 756.457 56.5881 753.529 Q53.1188 750.569 47.3897 750.569 L46.0847 750.569 L46.0847 756.393 M43.6657 744.712 L64.0042 744.712 L64.0042 750.569 L58.5933 750.569 Q61.8398 752.574 63.3994 755.566 Q64.9272 758.558 64.9272 762.886 Q64.9272 768.361 61.8716 771.607 Q58.7843 774.822 53.6281 774.822 Q47.6125 774.822 44.5569 770.812 Q41.5014 766.769 41.5014 758.78 L41.5014 750.569 L40.9285 750.569 Q36.8862 750.569 34.6901 753.242 Q32.4621 755.884 32.4621 760.69 Q32.4621 763.746 33.1941 766.642 Q33.9262 769.538 35.3903 772.212 L29.9795 772.212 Q28.7381 768.997 28.1334 765.974 Q27.4968 762.95 27.4968 760.085 Q27.4968 752.351 31.5072 748.532 Q35.5176 744.712 43.6657 744.712 Z" fill="#000000" fill-rule="nonzero" fill-opacity="1" /><path clip-path="url(#clip210)" d="M33.7671 709.191 L14.479 709.191 L14.479 703.335 L64.0042 703.335 L64.0042 709.191 L58.657 709.191 Q61.8398 711.038 63.3994 713.87 Q64.9272 716.671 64.9272 720.618 Q64.9272 727.079 59.771 731.153 Q54.6147 735.195 46.212 735.195 Q37.8093 735.195 32.6531 731.153 Q27.4968 727.079 27.4968 720.618 Q27.4968 716.671 29.0564 713.87 Q30.5842 711.038 33.7671 709.191 M46.212 729.148 Q52.6732 729.148 56.3653 726.506 Q60.0256 723.833 60.0256 719.186 Q60.0256 714.539 56.3653 711.865 Q52.6732 709.191 46.212 709.191 Q39.7508 709.191 36.0905 711.865 Q32.3984 714.539 32.3984 719.186 Q32.3984 723.833 36.0905 726.506 Q39.7508 729.148 46.212 729.148 Z" fill="#000000" fill-rule="nonzero" fill-opacity="1" /><path clip-path="url(#clip210)" d="M982.702 65.7705 L982.702 89.8329 L975.208 89.8329 L975.208 27.2059 L982.702 27.2059 L982.702 34.0924 Q985.052 30.0415 988.617 28.0971 Q992.222 26.1121 997.205 26.1121 Q1005.47 26.1121 1010.61 32.6746 Q1015.8 39.2371 1015.8 49.9314 Q1015.8 60.6258 1010.61 67.1883 Q1005.47 73.7508 997.205 73.7508 Q992.222 73.7508 988.617 71.8063 Q985.052 69.8214 982.702 65.7705 M1008.06 49.9314 Q1008.06 41.7081 1004.66 37.0496 Q1001.3 32.3505 995.382 32.3505 Q989.467 32.3505 986.065 37.0496 Q982.702 41.7081 982.702 49.9314 Q982.702 58.1548 986.065 62.8538 Q989.467 67.5124 995.382 67.5124 Q1001.3 67.5124 1004.66 62.8538 Q1008.06 58.1548 1008.06 49.9314 Z" fill="#000000" fill-rule="nonzero" fill-opacity="1" /><path clip-path="url(#clip210)" d="M1054.44 34.1734 Q1053.19 33.4443 1051.69 33.1202 Q1050.23 32.7556 1048.45 32.7556 Q1042.13 32.7556 1038.73 36.8875 Q1035.36 40.9789 1035.36 48.6757 L1035.36 72.576 L1027.87 72.576 L1027.87 27.2059 L1035.36 27.2059 L1035.36 34.2544 Q1037.71 30.1225 1041.48 28.1376 Q1045.25 26.1121 1050.64 26.1121 Q1051.41 26.1121 1052.34 26.2337 Q1053.27 26.3147 1054.4 26.5172 L1054.44 34.1734 Z" fill="#000000" fill-rule="nonzero" fill-opacity="1" /><path clip-path="url(#clip210)" d="M1078.02 32.4315 Q1072.02 32.4315 1068.54 37.1306 Q1065.06 41.7891 1065.06 49.9314 Q1065.06 58.0738 1068.5 62.7728 Q1071.98 67.4314 1078.02 67.4314 Q1083.97 67.4314 1087.46 62.7323 Q1090.94 58.0333 1090.94 49.9314 Q1090.94 41.8701 1087.46 37.1711 Q1083.97 32.4315 1078.02 32.4315 M1078.02 26.1121 Q1087.74 26.1121 1093.29 32.4315 Q1098.84 38.7509 1098.84 49.9314 Q1098.84 61.0714 1093.29 67.4314 Q1087.74 73.7508 1078.02 73.7508 Q1068.26 73.7508 1062.71 67.4314 Q1057.2 61.0714 1057.2 49.9314 Q1057.2 38.7509 1062.71 32.4315 Q1068.26 26.1121 1078.02 26.1121 Z" fill="#000000" fill-rule="nonzero" fill-opacity="1" /><path clip-path="url(#clip210)" d="M1143.77 49.9314 Q1143.77 41.7081 1140.36 37.0496 Q1137 32.3505 1131.09 32.3505 Q1125.17 32.3505 1121.77 37.0496 Q1118.41 41.7081 1118.41 49.9314 Q1118.41 58.1548 1121.77 62.8538 Q1125.17 67.5124 1131.09 67.5124 Q1137 67.5124 1140.36 62.8538 Q1143.77 58.1548 1143.77 49.9314 M1118.41 34.0924 Q1120.76 30.0415 1124.32 28.0971 Q1127.93 26.1121 1132.91 26.1121 Q1141.17 26.1121 1146.32 32.6746 Q1151.5 39.2371 1151.5 49.9314 Q1151.5 60.6258 1146.32 67.1883 Q1141.17 73.7508 1132.91 73.7508 Q1127.93 73.7508 1124.32 71.8063 Q1120.76 69.8214 1118.41 65.7705 L1118.41 72.576 L1110.91 72.576 L1110.91 9.54393 L1118.41 9.54393 L1118.41 34.0924 Z" fill="#000000" fill-rule="nonzero" fill-opacity="1" /><path clip-path="url(#clip210)" d="M1163.86 9.54393 L1171.31 9.54393 L1171.31 72.576 L1163.86 72.576 L1163.86 9.54393 Z" fill="#000000" fill-rule="nonzero" fill-opacity="1" /><path clip-path="url(#clip210)" d="M1225.72 48.0275 L1225.72 51.6733 L1191.45 51.6733 Q1191.93 59.3701 1196.06 63.421 Q1200.24 67.4314 1207.65 67.4314 Q1211.94 67.4314 1215.95 66.3781 Q1220 65.3249 1223.97 63.2184 L1223.97 70.267 Q1219.96 71.9684 1215.75 72.8596 Q1211.54 73.7508 1207.2 73.7508 Q1196.35 73.7508 1189.99 67.4314 Q1183.67 61.1119 1183.67 50.3365 Q1183.67 39.1965 1189.66 32.6746 Q1195.7 26.1121 1205.91 26.1121 Q1215.06 26.1121 1220.37 32.0264 Q1225.72 37.9003 1225.72 48.0275 M1218.26 45.84 Q1218.18 39.7232 1214.82 36.0774 Q1211.5 32.4315 1205.99 32.4315 Q1199.75 32.4315 1195.98 35.9558 Q1192.26 39.4801 1191.69 45.8805 L1218.26 45.84 M1199.59 6.22219 L1211.01 21.3726 L1204.81 21.3726 L1191.61 6.22219 L1199.59 6.22219 Z" fill="#000000" fill-rule="nonzero" fill-opacity="1" /><path clip-path="url(#clip210)" d="M1273.27 35.9153 Q1276.07 30.8922 1279.96 28.5022 Q1283.85 26.1121 1289.11 26.1121 Q1296.2 26.1121 1300.05 31.0947 Q1303.9 36.0368 1303.9 45.1919 L1303.9 72.576 L1296.4 72.576 L1296.4 45.4349 Q1296.4 38.913 1294.1 35.7533 Q1291.79 32.5936 1287.05 32.5936 Q1281.25 32.5936 1277.89 36.4419 Q1274.53 40.2903 1274.53 46.9338 L1274.53 72.576 L1267.04 72.576 L1267.04 45.4349 Q1267.04 38.8725 1264.73 35.7533 Q1262.42 32.5936 1257.6 32.5936 Q1251.88 32.5936 1248.52 36.4824 Q1245.16 40.3308 1245.16 46.9338 L1245.16 72.576 L1237.67 72.576 L1237.67 27.2059 L1245.16 27.2059 L1245.16 34.2544 Q1247.71 30.082 1251.28 28.0971 Q1254.84 26.1121 1259.74 26.1121 Q1264.69 26.1121 1268.13 28.6237 Q1271.61 31.1352 1273.27 35.9153 Z" fill="#000000" fill-rule="nonzero" fill-opacity="1" /><path clip-path="url(#clip210)" d="M1357.57 48.0275 L1357.57 51.6733 L1323.3 51.6733 Q1323.79 59.3701 1327.92 63.421 Q1332.09 67.4314 1339.51 67.4314 Q1343.8 67.4314 1347.81 66.3781 Q1351.86 65.3249 1355.83 63.2184 L1355.83 70.267 Q1351.82 71.9684 1347.61 72.8596 Q1343.39 73.7508 1339.06 73.7508 Q1328.2 73.7508 1321.84 67.4314 Q1315.52 61.1119 1315.52 50.3365 Q1315.52 39.1965 1321.52 32.6746 Q1327.56 26.1121 1337.76 26.1121 Q1346.92 26.1121 1352.23 32.0264 Q1357.57 37.9003 1357.57 48.0275 M1350.12 45.84 Q1350.04 39.7232 1346.68 36.0774 Q1343.35 32.4315 1337.85 32.4315 Q1331.61 32.4315 1327.84 35.9558 Q1324.11 39.4801 1323.55 45.8805 L1350.12 45.84 Z" fill="#000000" fill-rule="nonzero" fill-opacity="1" /><path clip-path="url(#clip210)" d="M1398.08 62.2867 L1406.63 62.2867 L1406.63 72.576 L1398.08 72.576 L1398.08 62.2867 M1398.08 29.6769 L1406.63 29.6769 L1406.63 39.9662 L1398.08 39.9662 L1398.08 29.6769 Z" fill="#000000" fill-rule="nonzero" fill-opacity="1" /><path clip-path="url(#clip210)" d="M1450.82 12.096 L1461.84 12.096 L1488.66 62.6918 L1488.66 12.096 L1496.6 12.096 L1496.6 72.576 L1485.58 72.576 L1458.76 21.9802 L1458.76 72.576 L1450.82 72.576 L1450.82 12.096 Z" fill="#000000" fill-rule="nonzero" fill-opacity="1" /><path clip-path="url(#clip210)" d="M1509.4 12.096 L1556.92 12.096 L1556.92 18.3344 L1518.68 65.6895 L1557.85 65.6895 L1557.85 72.576 L1508.47 72.576 L1508.47 66.3376 L1546.71 18.9825 L1509.4 18.9825 L1509.4 12.096 Z" fill="#000000" fill-rule="nonzero" fill-opacity="1" /><path clip-path="url(#clip210)" d="M1569.72 12.096 L1604.48 12.096 L1604.48 18.9825 L1577.9 18.9825 L1577.9 36.8065 L1601.88 36.8065 L1601.88 43.6931 L1577.9 43.6931 L1577.9 72.576 L1569.72 72.576 L1569.72 12.096 Z" fill="#000000" fill-rule="nonzero" fill-opacity="1" /><path clip-path="url(#clip210)" d="M1619.59 65.6895 L1632.95 65.6895 L1632.95 19.5497 L1618.41 22.4663 L1618.41 15.0127 L1632.87 12.096 L1641.06 12.096 L1641.06 65.6895 L1654.42 65.6895 L1654.42 72.576 L1619.59 72.576 L1619.59 65.6895 Z" fill="#000000" fill-rule="nonzero" fill-opacity="1" /><polyline clip-path="url(#clip212)" style="stroke:#009af9; stroke-linecap:round; stroke-linejoin:round; stroke-width:4; stroke-opacity:1; fill:none" points="335.627,664.811 368.266,684.445 400.906,709.304 433.546,160.256 466.185,204.047 498.825,204.047 531.465,204.047 564.104,204.047 596.744,204.047 629.384,204.047 662.023,204.047 694.663,204.047 727.302,204.047 759.942,204.047 792.582,204.047 825.221,204.047 857.861,204.047 890.501,204.047 923.14,204.047 955.78,204.047 988.419,204.047 1021.06,204.047 1053.7,244.62 1086.34,281.23 1118.98,312.181 1151.62,337.911 1184.26,360.173 1216.9,380.425 1249.54,399.541 1282.18,418.012 1314.82,436.113 1347.46,454 1380.09,471.762 1412.73,489.45 1445.37,507.093 1478.01,524.707 1510.65,542.299 1543.29,559.869 1575.93,577.412 1608.57,594.916 1641.21,612.361 1673.85,629.718 1706.49,646.942 1739.13,663.961 1771.77,680.611 1804.41,696.405 1837.05,710.194 1869.69,721.299 1902.33,731.642 1934.97,743.514 1967.61,757.423 2000.25,773.113 2032.89,790.428 2065.53,808.229 2098.17,826.291 2130.81,848.305 2163.45,878.773 2196.09,920.898 2228.73,976.38 2261.36,1046.06 2294,1130.37 "/>
<polyline clip-path="url(#clip212)" style="stroke:#e26f46; stroke-linecap:round; stroke-linejoin:round; stroke-width:4; stroke-opacity:1; fill:none" points="335.627,664.811 368.266,684.445 400.906,709.304 433.546,709.304 466.185,753.29 498.825,794.518 531.465,831.092 564.104,887.179 596.744,1060.29 629.384,1386.4 "/>
<polyline clip-path="url(#clip212)" style="stroke:#3da44d; stroke-linecap:round; stroke-linejoin:round; stroke-width:4; stroke-opacity:1; fill:none" points="335.627,664.811 368.266,684.445 400.906,709.304 433.546,160.256 466.185,204.047 498.825,204.047 531.465,204.047 564.104,204.047 596.744,204.047 629.384,204.047 662.023,204.047 694.663,204.047 727.302,204.047 759.942,204.047 792.582,204.047 825.221,204.047 857.861,204.047 890.501,204.047 923.14,204.047 955.78,204.047 988.419,204.047 1021.06,204.047 1053.7,244.62 1086.34,281.23 1118.98,312.181 1151.62,337.911 1184.26,360.173 1216.9,380.425 1249.54,399.541 1282.18,418.012 1314.82,436.113 1347.46,454 1380.09,471.762 1412.73,489.45 1445.37,507.093 1478.01,524.707 1510.65,542.299 1543.29,559.869 1575.93,577.412 1608.57,594.916 1641.21,612.361 1673.85,629.718 1706.49,646.942 1739.13,663.961 1771.77,680.611 1804.41,696.405 1837.05,710.194 1869.69,721.299 1902.33,731.642 1934.97,743.514 1967.61,757.423 2000.25,773.113 2032.89,790.428 2065.53,808.229 2098.17,826.291 2130.81,848.305 2163.45,878.773 2196.09,920.898 2228.73,976.38 2261.36,1046.06 2294,1130.37 "/>
<polyline clip-path="url(#clip212)" style="stroke:#c271d2; stroke-linecap:round; stroke-linejoin:round; stroke-width:4; stroke-opacity:1; fill:none" points="335.627,664.811 368.266,684.445 400.906,709.304 433.546,709.304 466.185,753.29 498.825,794.518 531.465,831.092 564.104,887.179 596.744,1060.29 629.384,1386.4 "/>
<polyline clip-path="url(#clip212)" style="stroke:#ac8d18; stroke-linecap:round; stroke-linejoin:round; stroke-width:4; stroke-opacity:1; fill:none" points="335.627,664.811 368.266,684.445 400.906,709.304 433.546,709.304 466.185,753.29 498.825,794.518 531.465,831.092 564.104,887.179 596.744,1060.29 629.384,1386.4 "/>
<path clip-path="url(#clip210)" d="M1752.87 477.836 L2283.56 477.836 L2283.56 166.796 L1752.87 166.796  Z" fill="#ffffff" fill-rule="evenodd" fill-opacity="1"/>
<polyline clip-path="url(#clip210)" style="stroke:#000000; stroke-linecap:round; stroke-linejoin:round; stroke-width:4; stroke-opacity:1; fill:none" points="1752.87,477.836 2283.56,477.836 2283.56,166.796 1752.87,166.796 1752.87,477.836 "/>
<polyline clip-path="url(#clip210)" style="stroke:#009af9; stroke-linecap:round; stroke-linejoin:round; stroke-width:4; stroke-opacity:1; fill:none" points="1775.94,218.636 1914.33,218.636 "/>
<path clip-path="url(#clip210)" d="M1937.39 201.356 L1942.07 201.356 L1942.07 231.981 L1958.9 231.981 L1958.9 235.916 L1937.39 235.916 L1937.39 201.356 Z" fill="#000000" fill-rule="nonzero" fill-opacity="1" /><path clip-path="url(#clip210)" d="M1963.81 201.356 L1970.77 201.356 L1979.59 224.874 L1988.46 201.356 L1995.43 201.356 L1995.43 235.916 L1990.87 235.916 L1990.87 205.569 L1981.95 229.272 L1977.26 229.272 L1968.34 205.569 L1968.34 235.916 L1963.81 235.916 L1963.81 201.356 Z" fill="#000000" fill-rule="nonzero" fill-opacity="1" /><path clip-path="url(#clip210)" d="M2024.22 243.786 L2024.22 247.096 L1999.59 247.096 L1999.59 243.786 L2024.22 243.786 Z" fill="#000000" fill-rule="nonzero" fill-opacity="1" /><path clip-path="url(#clip210)" d="M2049.13 202.49 L2049.13 207.05 Q2046.47 205.777 2044.11 205.152 Q2041.75 204.527 2039.55 204.527 Q2035.73 204.527 2033.64 206.008 Q2031.58 207.49 2031.58 210.221 Q2031.58 212.513 2032.95 213.694 Q2034.34 214.851 2038.18 215.569 L2041 216.147 Q2046.24 217.143 2048.71 219.666 Q2051.21 222.166 2051.21 226.379 Q2051.21 231.402 2047.83 233.994 Q2044.48 236.587 2037.97 236.587 Q2035.52 236.587 2032.74 236.031 Q2029.99 235.476 2027.02 234.388 L2027.02 229.573 Q2029.87 231.17 2032.6 231.981 Q2035.33 232.791 2037.97 232.791 Q2041.98 232.791 2044.15 231.217 Q2046.33 229.643 2046.33 226.726 Q2046.33 224.18 2044.75 222.744 Q2043.2 221.309 2039.64 220.592 L2036.79 220.036 Q2031.56 218.995 2029.22 216.772 Q2026.88 214.55 2026.88 210.592 Q2026.88 206.008 2030.1 203.37 Q2033.34 200.731 2039.01 200.731 Q2041.44 200.731 2043.97 201.171 Q2046.49 201.61 2049.13 202.49 Z" fill="#000000" fill-rule="nonzero" fill-opacity="1" /><path clip-path="url(#clip210)" d="M2063.18 205.198 L2063.18 218.184 L2069.06 218.184 Q2072.32 218.184 2074.11 216.495 Q2075.89 214.805 2075.89 211.68 Q2075.89 208.578 2074.11 206.888 Q2072.32 205.198 2069.06 205.198 L2063.18 205.198 M2058.5 201.356 L2069.06 201.356 Q2074.87 201.356 2077.83 203.995 Q2080.82 206.61 2080.82 211.68 Q2080.82 216.795 2077.83 219.411 Q2074.87 222.027 2069.06 222.027 L2063.18 222.027 L2063.18 235.916 L2058.5 235.916 L2058.5 201.356 Z" fill="#000000" fill-rule="nonzero" fill-opacity="1" /><path clip-path="url(#clip210)" d="M2110.66 230.985 L2110.66 221.703 L2103.02 221.703 L2103.02 217.86 L2115.29 217.86 L2115.29 232.698 Q2112.58 234.619 2109.31 235.615 Q2106.05 236.587 2102.35 236.587 Q2094.25 236.587 2089.66 231.865 Q2085.1 227.119 2085.1 218.67 Q2085.1 210.198 2089.66 205.476 Q2094.25 200.731 2102.35 200.731 Q2105.73 200.731 2108.76 201.564 Q2111.81 202.397 2114.38 204.018 L2114.38 208.995 Q2111.79 206.796 2108.87 205.684 Q2105.96 204.573 2102.74 204.573 Q2096.4 204.573 2093.2 208.115 Q2090.03 211.657 2090.03 218.67 Q2090.03 225.661 2093.2 229.203 Q2096.4 232.744 2102.74 232.744 Q2105.22 232.744 2107.16 232.328 Q2109.11 231.888 2110.66 230.985 Z" fill="#000000" fill-rule="nonzero" fill-opacity="1" /><polyline clip-path="url(#clip210)" style="stroke:#e26f46; stroke-linecap:round; stroke-linejoin:round; stroke-width:4; stroke-opacity:1; fill:none" points="1775.94,270.476 1914.33,270.476 "/>
<path clip-path="url(#clip210)" d="M1937.39 253.196 L1942.07 253.196 L1942.07 283.821 L1958.9 283.821 L1958.9 287.756 L1937.39 287.756 L1937.39 253.196 Z" fill="#000000" fill-rule="nonzero" fill-opacity="1" /><path clip-path="url(#clip210)" d="M1963.81 253.196 L1970.77 253.196 L1979.59 276.714 L1988.46 253.196 L1995.43 253.196 L1995.43 287.756 L1990.87 287.756 L1990.87 257.409 L1981.95 281.112 L1977.26 281.112 L1968.34 257.409 L1968.34 287.756 L1963.81 287.756 L1963.81 253.196 Z" fill="#000000" fill-rule="nonzero" fill-opacity="1" /><path clip-path="url(#clip210)" d="M2024.22 295.626 L2024.22 298.936 L1999.59 298.936 L1999.59 295.626 L2024.22 295.626 Z" fill="#000000" fill-rule="nonzero" fill-opacity="1" /><path clip-path="url(#clip210)" d="M2039.96 257.802 L2033.62 275.001 L2046.33 275.001 L2039.96 257.802 M2037.32 253.196 L2042.63 253.196 L2055.8 287.756 L2050.94 287.756 L2047.79 278.89 L2032.21 278.89 L2029.06 287.756 L2024.13 287.756 L2037.32 253.196 Z" fill="#000000" fill-rule="nonzero" fill-opacity="1" /><path clip-path="url(#clip210)" d="M2082.21 272.108 L2082.21 287.756 L2077.95 287.756 L2077.95 272.247 Q2077.95 268.566 2076.51 266.737 Q2075.08 264.909 2072.21 264.909 Q2068.76 264.909 2066.77 267.108 Q2064.78 269.307 2064.78 273.103 L2064.78 287.756 L2060.5 287.756 L2060.5 261.83 L2064.78 261.83 L2064.78 265.858 Q2066.31 263.52 2068.37 262.362 Q2070.45 261.205 2073.16 261.205 Q2077.63 261.205 2079.92 263.983 Q2082.21 266.737 2082.21 272.108 Z" fill="#000000" fill-rule="nonzero" fill-opacity="1" /><path clip-path="url(#clip210)" d="M2107.76 265.765 L2107.76 251.737 L2112.02 251.737 L2112.02 287.756 L2107.76 287.756 L2107.76 283.867 Q2106.42 286.182 2104.36 287.316 Q2102.32 288.427 2099.45 288.427 Q2094.75 288.427 2091.79 284.677 Q2088.85 280.927 2088.85 274.816 Q2088.85 268.705 2091.79 264.955 Q2094.75 261.205 2099.45 261.205 Q2102.32 261.205 2104.36 262.339 Q2106.42 263.45 2107.76 265.765 M2093.25 274.816 Q2093.25 279.515 2095.17 282.2 Q2097.12 284.862 2100.5 284.862 Q2103.88 284.862 2105.82 282.2 Q2107.76 279.515 2107.76 274.816 Q2107.76 270.117 2105.82 267.455 Q2103.88 264.77 2100.5 264.77 Q2097.12 264.77 2095.17 267.455 Q2093.25 270.117 2093.25 274.816 Z" fill="#000000" fill-rule="nonzero" fill-opacity="1" /><path clip-path="url(#clip210)" d="M2135.82 265.811 Q2135.1 265.395 2134.25 265.21 Q2133.41 265.001 2132.39 265.001 Q2128.78 265.001 2126.84 267.362 Q2124.92 269.7 2124.92 274.098 L2124.92 287.756 L2120.63 287.756 L2120.63 261.83 L2124.92 261.83 L2124.92 265.858 Q2126.26 263.497 2128.41 262.362 Q2130.56 261.205 2133.64 261.205 Q2134.08 261.205 2134.62 261.274 Q2135.15 261.321 2135.8 261.436 L2135.82 265.811 Z" fill="#000000" fill-rule="nonzero" fill-opacity="1" /><path clip-path="url(#clip210)" d="M2161.42 273.728 L2161.42 275.811 L2141.84 275.811 Q2142.12 280.209 2144.48 282.524 Q2146.86 284.816 2151.1 284.816 Q2153.55 284.816 2155.84 284.214 Q2158.16 283.612 2160.43 282.409 L2160.43 286.436 Q2158.13 287.408 2155.73 287.918 Q2153.32 288.427 2150.84 288.427 Q2144.64 288.427 2141 284.816 Q2137.39 281.205 2137.39 275.047 Q2137.39 268.682 2140.82 264.955 Q2144.27 261.205 2150.1 261.205 Q2155.33 261.205 2158.37 264.585 Q2161.42 267.941 2161.42 273.728 M2157.16 272.478 Q2157.12 268.983 2155.19 266.899 Q2153.3 264.816 2150.15 264.816 Q2146.58 264.816 2144.43 266.83 Q2142.3 268.844 2141.98 272.501 L2157.16 272.478 Z" fill="#000000" fill-rule="nonzero" fill-opacity="1" /><path clip-path="url(#clip210)" d="M2168.41 261.83 L2172.67 261.83 L2172.67 287.756 L2168.41 287.756 L2168.41 261.83 M2168.41 251.737 L2172.67 251.737 L2172.67 257.131 L2168.41 257.131 L2168.41 251.737 Z" fill="#000000" fill-rule="nonzero" fill-opacity="1" /><path clip-path="url(#clip210)" d="M2201.28 295.626 L2201.28 298.936 L2176.65 298.936 L2176.65 295.626 L2201.28 295.626 Z" fill="#000000" fill-rule="nonzero" fill-opacity="1" /><path clip-path="url(#clip210)" d="M2217.07 274.723 Q2211.91 274.723 2209.92 275.904 Q2207.93 277.084 2207.93 279.932 Q2207.93 282.2 2209.41 283.543 Q2210.91 284.862 2213.48 284.862 Q2217.02 284.862 2219.15 282.362 Q2221.3 279.839 2221.3 275.672 L2221.3 274.723 L2217.07 274.723 M2225.56 272.964 L2225.56 287.756 L2221.3 287.756 L2221.3 283.821 Q2219.85 286.182 2217.67 287.316 Q2215.49 288.427 2212.35 288.427 Q2208.37 288.427 2206 286.205 Q2203.67 283.959 2203.67 280.209 Q2203.67 275.834 2206.58 273.612 Q2209.52 271.39 2215.33 271.39 L2221.3 271.39 L2221.3 270.973 Q2221.3 268.034 2219.36 266.436 Q2217.44 264.816 2213.94 264.816 Q2211.72 264.816 2209.62 265.348 Q2207.51 265.881 2205.56 266.946 L2205.56 263.01 Q2207.9 262.108 2210.1 261.668 Q2212.3 261.205 2214.38 261.205 Q2220.01 261.205 2222.79 264.122 Q2225.56 267.038 2225.56 272.964 Z" fill="#000000" fill-rule="nonzero" fill-opacity="1" /><path clip-path="url(#clip210)" d="M2234.34 251.737 L2238.6 251.737 L2238.6 287.756 L2234.34 287.756 L2234.34 251.737 Z" fill="#000000" fill-rule="nonzero" fill-opacity="1" /><path clip-path="url(#clip210)" d="M2251.72 254.469 L2251.72 261.83 L2260.49 261.83 L2260.49 265.14 L2251.72 265.14 L2251.72 279.214 Q2251.72 282.385 2252.58 283.288 Q2253.46 284.191 2256.12 284.191 L2260.49 284.191 L2260.49 287.756 L2256.12 287.756 Q2251.19 287.756 2249.31 285.927 Q2247.44 284.075 2247.44 279.214 L2247.44 265.14 L2244.31 265.14 L2244.31 261.83 L2247.44 261.83 L2247.44 254.469 L2251.72 254.469 Z" fill="#000000" fill-rule="nonzero" fill-opacity="1" /><polyline clip-path="url(#clip210)" style="stroke:#3da44d; stroke-linecap:round; stroke-linejoin:round; stroke-width:4; stroke-opacity:1; fill:none" points="1775.94,322.316 1914.33,322.316 "/>
<path clip-path="url(#clip210)" d="M1937.39 305.036 L1942.07 305.036 L1942.07 335.661 L1958.9 335.661 L1958.9 339.596 L1937.39 339.596 L1937.39 305.036 Z" fill="#000000" fill-rule="nonzero" fill-opacity="1" /><path clip-path="url(#clip210)" d="M1963.81 305.036 L1970.77 305.036 L1979.59 328.554 L1988.46 305.036 L1995.43 305.036 L1995.43 339.596 L1990.87 339.596 L1990.87 309.249 L1981.95 332.952 L1977.26 332.952 L1968.34 309.249 L1968.34 339.596 L1963.81 339.596 L1963.81 305.036 Z" fill="#000000" fill-rule="nonzero" fill-opacity="1" /><path clip-path="url(#clip210)" d="M2024.22 347.466 L2024.22 350.776 L1999.59 350.776 L1999.59 347.466 L2024.22 347.466 Z" fill="#000000" fill-rule="nonzero" fill-opacity="1" /><path clip-path="url(#clip210)" d="M2039.96 309.642 L2033.62 326.841 L2046.33 326.841 L2039.96 309.642 M2037.32 305.036 L2042.63 305.036 L2055.8 339.596 L2050.94 339.596 L2047.79 330.73 L2032.21 330.73 L2029.06 339.596 L2024.13 339.596 L2037.32 305.036 Z" fill="#000000" fill-rule="nonzero" fill-opacity="1" /><path clip-path="url(#clip210)" d="M2082.21 323.948 L2082.21 339.596 L2077.95 339.596 L2077.95 324.087 Q2077.95 320.406 2076.51 318.577 Q2075.08 316.749 2072.21 316.749 Q2068.76 316.749 2066.77 318.948 Q2064.78 321.147 2064.78 324.943 L2064.78 339.596 L2060.5 339.596 L2060.5 313.67 L2064.78 313.67 L2064.78 317.698 Q2066.31 315.36 2068.37 314.202 Q2070.45 313.045 2073.16 313.045 Q2077.63 313.045 2079.92 315.823 Q2082.21 318.577 2082.21 323.948 Z" fill="#000000" fill-rule="nonzero" fill-opacity="1" /><path clip-path="url(#clip210)" d="M2107.76 317.605 L2107.76 303.577 L2112.02 303.577 L2112.02 339.596 L2107.76 339.596 L2107.76 335.707 Q2106.42 338.022 2104.36 339.156 Q2102.32 340.267 2099.45 340.267 Q2094.75 340.267 2091.79 336.517 Q2088.85 332.767 2088.85 326.656 Q2088.85 320.545 2091.79 316.795 Q2094.75 313.045 2099.45 313.045 Q2102.32 313.045 2104.36 314.179 Q2106.42 315.29 2107.76 317.605 M2093.25 326.656 Q2093.25 331.355 2095.17 334.04 Q2097.12 336.702 2100.5 336.702 Q2103.88 336.702 2105.82 334.04 Q2107.76 331.355 2107.76 326.656 Q2107.76 321.957 2105.82 319.295 Q2103.88 316.61 2100.5 316.61 Q2097.12 316.61 2095.17 319.295 Q2093.25 321.957 2093.25 326.656 Z" fill="#000000" fill-rule="nonzero" fill-opacity="1" /><path clip-path="url(#clip210)" d="M2135.82 317.651 Q2135.1 317.235 2134.25 317.05 Q2133.41 316.841 2132.39 316.841 Q2128.78 316.841 2126.84 319.202 Q2124.92 321.54 2124.92 325.938 L2124.92 339.596 L2120.63 339.596 L2120.63 313.67 L2124.92 313.67 L2124.92 317.698 Q2126.26 315.337 2128.41 314.202 Q2130.56 313.045 2133.64 313.045 Q2134.08 313.045 2134.62 313.114 Q2135.15 313.161 2135.8 313.276 L2135.82 317.651 Z" fill="#000000" fill-rule="nonzero" fill-opacity="1" /><path clip-path="url(#clip210)" d="M2161.42 325.568 L2161.42 327.651 L2141.84 327.651 Q2142.12 332.049 2144.48 334.364 Q2146.86 336.656 2151.1 336.656 Q2153.55 336.656 2155.84 336.054 Q2158.16 335.452 2160.43 334.249 L2160.43 338.276 Q2158.13 339.248 2155.73 339.758 Q2153.32 340.267 2150.84 340.267 Q2144.64 340.267 2141 336.656 Q2137.39 333.045 2137.39 326.887 Q2137.39 320.522 2140.82 316.795 Q2144.27 313.045 2150.1 313.045 Q2155.33 313.045 2158.37 316.425 Q2161.42 319.781 2161.42 325.568 M2157.16 324.318 Q2157.12 320.823 2155.19 318.739 Q2153.3 316.656 2150.15 316.656 Q2146.58 316.656 2144.43 318.67 Q2142.3 320.684 2141.98 324.341 L2157.16 324.318 Z" fill="#000000" fill-rule="nonzero" fill-opacity="1" /><path clip-path="url(#clip210)" d="M2168.41 313.67 L2172.67 313.67 L2172.67 339.596 L2168.41 339.596 L2168.41 313.67 M2168.41 303.577 L2172.67 303.577 L2172.67 308.971 L2168.41 308.971 L2168.41 303.577 Z" fill="#000000" fill-rule="nonzero" fill-opacity="1" /><polyline clip-path="url(#clip210)" style="stroke:#c271d2; stroke-linecap:round; stroke-linejoin:round; stroke-width:4; stroke-opacity:1; fill:none" points="1775.94,374.156 1914.33,374.156 "/>
<path clip-path="url(#clip210)" d="M1937.39 356.876 L1942.07 356.876 L1942.07 387.501 L1958.9 387.501 L1958.9 391.436 L1937.39 391.436 L1937.39 356.876 Z" fill="#000000" fill-rule="nonzero" fill-opacity="1" /><path clip-path="url(#clip210)" d="M1963.81 356.876 L1970.77 356.876 L1979.59 380.394 L1988.46 356.876 L1995.43 356.876 L1995.43 391.436 L1990.87 391.436 L1990.87 361.089 L1981.95 384.792 L1977.26 384.792 L1968.34 361.089 L1968.34 391.436 L1963.81 391.436 L1963.81 356.876 Z" fill="#000000" fill-rule="nonzero" fill-opacity="1" /><path clip-path="url(#clip210)" d="M2024.22 399.306 L2024.22 402.616 L1999.59 402.616 L1999.59 399.306 L2024.22 399.306 Z" fill="#000000" fill-rule="nonzero" fill-opacity="1" /><path clip-path="url(#clip210)" d="M2049.13 358.01 L2049.13 362.57 Q2046.47 361.297 2044.11 360.672 Q2041.75 360.047 2039.55 360.047 Q2035.73 360.047 2033.64 361.528 Q2031.58 363.01 2031.58 365.741 Q2031.58 368.033 2032.95 369.214 Q2034.34 370.371 2038.18 371.089 L2041 371.667 Q2046.24 372.663 2048.71 375.186 Q2051.21 377.686 2051.21 381.899 Q2051.21 386.922 2047.83 389.514 Q2044.48 392.107 2037.97 392.107 Q2035.52 392.107 2032.74 391.551 Q2029.99 390.996 2027.02 389.908 L2027.02 385.093 Q2029.87 386.69 2032.6 387.501 Q2035.33 388.311 2037.97 388.311 Q2041.98 388.311 2044.15 386.737 Q2046.33 385.163 2046.33 382.246 Q2046.33 379.7 2044.75 378.264 Q2043.2 376.829 2039.64 376.112 L2036.79 375.556 Q2031.56 374.515 2029.22 372.292 Q2026.88 370.07 2026.88 366.112 Q2026.88 361.528 2030.1 358.89 Q2033.34 356.251 2039.01 356.251 Q2041.44 356.251 2043.97 356.691 Q2046.49 357.13 2049.13 358.01 Z" fill="#000000" fill-rule="nonzero" fill-opacity="1" /><path clip-path="url(#clip210)" d="M2063.18 360.718 L2063.18 373.704 L2069.06 373.704 Q2072.32 373.704 2074.11 372.015 Q2075.89 370.325 2075.89 367.2 Q2075.89 364.098 2074.11 362.408 Q2072.32 360.718 2069.06 360.718 L2063.18 360.718 M2058.5 356.876 L2069.06 356.876 Q2074.87 356.876 2077.83 359.515 Q2080.82 362.13 2080.82 367.2 Q2080.82 372.315 2077.83 374.931 Q2074.87 377.547 2069.06 377.547 L2063.18 377.547 L2063.18 391.436 L2058.5 391.436 L2058.5 356.876 Z" fill="#000000" fill-rule="nonzero" fill-opacity="1" /><path clip-path="url(#clip210)" d="M2110.66 386.505 L2110.66 377.223 L2103.02 377.223 L2103.02 373.38 L2115.29 373.38 L2115.29 388.218 Q2112.58 390.139 2109.31 391.135 Q2106.05 392.107 2102.35 392.107 Q2094.25 392.107 2089.66 387.385 Q2085.1 382.639 2085.1 374.19 Q2085.1 365.718 2089.66 360.996 Q2094.25 356.251 2102.35 356.251 Q2105.73 356.251 2108.76 357.084 Q2111.81 357.917 2114.38 359.538 L2114.38 364.515 Q2111.79 362.316 2108.87 361.204 Q2105.96 360.093 2102.74 360.093 Q2096.4 360.093 2093.2 363.635 Q2090.03 367.177 2090.03 374.19 Q2090.03 381.181 2093.2 384.723 Q2096.4 388.264 2102.74 388.264 Q2105.22 388.264 2107.16 387.848 Q2109.11 387.408 2110.66 386.505 Z" fill="#000000" fill-rule="nonzero" fill-opacity="1" /><path clip-path="url(#clip210)" d="M2143.34 399.306 L2143.34 402.616 L2118.71 402.616 L2118.71 399.306 L2143.34 399.306 Z" fill="#000000" fill-rule="nonzero" fill-opacity="1" /><path clip-path="url(#clip210)" d="M2159.13 378.403 Q2153.97 378.403 2151.98 379.584 Q2149.99 380.764 2149.99 383.612 Q2149.99 385.88 2151.47 387.223 Q2152.97 388.542 2155.54 388.542 Q2159.08 388.542 2161.21 386.042 Q2163.37 383.519 2163.37 379.352 L2163.37 378.403 L2159.13 378.403 M2167.62 376.644 L2167.62 391.436 L2163.37 391.436 L2163.37 387.501 Q2161.91 389.862 2159.73 390.996 Q2157.56 392.107 2154.41 392.107 Q2150.43 392.107 2148.06 389.885 Q2145.73 387.639 2145.73 383.889 Q2145.73 379.514 2148.64 377.292 Q2151.58 375.07 2157.39 375.07 L2163.37 375.07 L2163.37 374.653 Q2163.37 371.714 2161.42 370.116 Q2159.5 368.496 2156 368.496 Q2153.78 368.496 2151.68 369.028 Q2149.57 369.561 2147.62 370.626 L2147.62 366.69 Q2149.96 365.788 2152.16 365.348 Q2154.36 364.885 2156.44 364.885 Q2162.07 364.885 2164.85 367.802 Q2167.62 370.718 2167.62 376.644 Z" fill="#000000" fill-rule="nonzero" fill-opacity="1" /><path clip-path="url(#clip210)" d="M2176.4 355.417 L2180.66 355.417 L2180.66 391.436 L2176.4 391.436 L2176.4 355.417 Z" fill="#000000" fill-rule="nonzero" fill-opacity="1" /><path clip-path="url(#clip210)" d="M2193.78 358.149 L2193.78 365.51 L2202.56 365.51 L2202.56 368.82 L2193.78 368.82 L2193.78 382.894 Q2193.78 386.065 2194.64 386.968 Q2195.52 387.871 2198.18 387.871 L2202.56 387.871 L2202.56 391.436 L2198.18 391.436 Q2193.25 391.436 2191.37 389.607 Q2189.5 387.755 2189.5 382.894 L2189.5 368.82 L2186.37 368.82 L2186.37 365.51 L2189.5 365.51 L2189.5 358.149 L2193.78 358.149 Z" fill="#000000" fill-rule="nonzero" fill-opacity="1" /><polyline clip-path="url(#clip210)" style="stroke:#ac8d18; stroke-linecap:round; stroke-linejoin:round; stroke-width:4; stroke-opacity:1; fill:none" points="1775.94,425.996 1914.33,425.996 "/>
<path clip-path="url(#clip210)" d="M1937.39 408.716 L1942.07 408.716 L1942.07 439.341 L1958.9 439.341 L1958.9 443.276 L1937.39 443.276 L1937.39 408.716 Z" fill="#000000" fill-rule="nonzero" fill-opacity="1" /><path clip-path="url(#clip210)" d="M1963.81 408.716 L1970.77 408.716 L1979.59 432.234 L1988.46 408.716 L1995.43 408.716 L1995.43 443.276 L1990.87 443.276 L1990.87 412.929 L1981.95 436.632 L1977.26 436.632 L1968.34 412.929 L1968.34 443.276 L1963.81 443.276 L1963.81 408.716 Z" fill="#000000" fill-rule="nonzero" fill-opacity="1" /></svg>
