<?xml version="1.0" encoding="utf-8"?>
<svg xmlns="http://www.w3.org/2000/svg" xmlns:xlink="http://www.w3.org/1999/xlink" width="600" height="400" viewBox="0 0 2400 1600">
<defs>
  <clipPath id="clip720">
    <rect x="0" y="0" width="2400" height="1600"/>
  </clipPath>
</defs>
<path clip-path="url(#clip720)" d="M0 1600 L2400 1600 L2400 0 L0 0  Z" fill="#ffffff" fill-rule="evenodd" fill-opacity="1"/>
<defs>
  <clipPath id="clip721">
    <rect x="480" y="0" width="1681" height="1600"/>
  </clipPath>
</defs>
<path clip-path="url(#clip720)" d="M221.637 1423.18 L2352.76 1423.18 L2352.76 123.472 L221.637 123.472  Z" fill="#ffffff" fill-rule="evenodd" fill-opacity="1"/>
<defs>
  <clipPath id="clip722">
    <rect x="221" y="123" width="2132" height="1301"/>
  </clipPath>
</defs>
<polyline clip-path="url(#clip722)" style="stroke:#000000; stroke-linecap:round; stroke-linejoin:round; stroke-width:2; stroke-opacity:0.1; fill:none" points="556.109,1423.18 556.109,123.472 "/>
<polyline clip-path="url(#clip722)" style="stroke:#000000; stroke-linecap:round; stroke-linejoin:round; stroke-width:2; stroke-opacity:0.1; fill:none" points="1013.04,1423.18 1013.04,123.472 "/>
<polyline clip-path="url(#clip722)" style="stroke:#000000; stroke-linecap:round; stroke-linejoin:round; stroke-width:2; stroke-opacity:0.1; fill:none" points="1469.97,1423.18 1469.97,123.472 "/>
<polyline clip-path="url(#clip722)" style="stroke:#000000; stroke-linecap:round; stroke-linejoin:round; stroke-width:2; stroke-opacity:0.1; fill:none" points="1926.9,1423.18 1926.9,123.472 "/>
<polyline clip-path="url(#clip720)" style="stroke:#000000; stroke-linecap:round; stroke-linejoin:round; stroke-width:4; stroke-opacity:1; fill:none" points="221.637,1423.18 2352.76,1423.18 "/>
<polyline clip-path="url(#clip720)" style="stroke:#000000; stroke-linecap:round; stroke-linejoin:round; stroke-width:4; stroke-opacity:1; fill:none" points="556.109,1423.18 556.109,1404.28 "/>
<polyline clip-path="url(#clip720)" style="stroke:#000000; stroke-linecap:round; stroke-linejoin:round; stroke-width:4; stroke-opacity:1; fill:none" points="1013.04,1423.18 1013.04,1404.28 "/>
<polyline clip-path="url(#clip720)" style="stroke:#000000; stroke-linecap:round; stroke-linejoin:round; stroke-width:4; stroke-opacity:1; fill:none" points="1469.97,1423.18 1469.97,1404.28 "/>
<polyline clip-path="url(#clip720)" style="stroke:#000000; stroke-linecap:round; stroke-linejoin:round; stroke-width:4; stroke-opacity:1; fill:none" points="1926.9,1423.18 1926.9,1404.28 "/>
<path clip-path="url(#clip720)" d="M527.846 1481.64 L544.165 1481.64 L544.165 1485.58 L522.221 1485.58 L522.221 1481.64 Q524.883 1478.89 529.466 1474.26 Q534.073 1469.61 535.253 1468.27 Q537.498 1465.74 538.378 1464.01 Q539.281 1462.25 539.281 1460.56 Q539.281 1457.8 537.336 1456.07 Q535.415 1454.33 532.313 1454.33 Q530.114 1454.33 527.661 1455.09 Q525.23 1455.86 522.452 1457.41 L522.452 1452.69 Q525.276 1451.55 527.73 1450.97 Q530.184 1450.39 532.221 1450.39 Q537.591 1450.39 540.785 1453.08 Q543.98 1455.77 543.98 1460.26 Q543.98 1462.39 543.17 1464.31 Q542.383 1466.2 540.276 1468.8 Q539.697 1469.47 536.596 1472.69 Q533.494 1475.88 527.846 1481.64 Z" fill="#000000" fill-rule="nonzero" fill-opacity="1" /><path clip-path="url(#clip720)" d="M553.98 1479.7 L558.864 1479.7 L558.864 1485.58 L553.98 1485.58 L553.98 1479.7 Z" fill="#000000" fill-rule="nonzero" fill-opacity="1" /><path clip-path="url(#clip720)" d="M569.095 1451.02 L587.452 1451.02 L587.452 1454.96 L573.378 1454.96 L573.378 1463.43 Q574.396 1463.08 575.415 1462.92 Q576.433 1462.73 577.452 1462.73 Q583.239 1462.73 586.619 1465.9 Q589.998 1469.08 589.998 1474.49 Q589.998 1480.07 586.526 1483.17 Q583.054 1486.25 576.734 1486.25 Q574.558 1486.25 572.29 1485.88 Q570.045 1485.51 567.637 1484.77 L567.637 1480.07 Q569.72 1481.2 571.943 1481.76 Q574.165 1482.32 576.642 1482.32 Q580.646 1482.32 582.984 1480.21 Q585.322 1478.1 585.322 1474.49 Q585.322 1470.88 582.984 1468.77 Q580.646 1466.67 576.642 1466.67 Q574.767 1466.67 572.892 1467.08 Q571.04 1467.5 569.095 1468.38 L569.095 1451.02 Z" fill="#000000" fill-rule="nonzero" fill-opacity="1" /><path clip-path="url(#clip720)" d="M980.203 1451.02 L998.56 1451.02 L998.56 1454.96 L984.486 1454.96 L984.486 1463.43 Q985.504 1463.08 986.523 1462.92 Q987.541 1462.73 988.56 1462.73 Q994.347 1462.73 997.726 1465.9 Q1001.11 1469.08 1001.11 1474.49 Q1001.11 1480.07 997.634 1483.17 Q994.162 1486.25 987.842 1486.25 Q985.666 1486.25 983.398 1485.88 Q981.152 1485.51 978.745 1484.77 L978.745 1480.07 Q980.828 1481.2 983.051 1481.76 Q985.273 1482.32 987.75 1482.32 Q991.754 1482.32 994.092 1480.21 Q996.43 1478.1 996.43 1474.49 Q996.43 1470.88 994.092 1468.77 Q991.754 1466.67 987.75 1466.67 Q985.875 1466.67 984 1467.08 Q982.148 1467.5 980.203 1468.38 L980.203 1451.02 Z" fill="#000000" fill-rule="nonzero" fill-opacity="1" /><path clip-path="url(#clip720)" d="M1010.32 1479.7 L1015.2 1479.7 L1015.2 1485.58 L1010.32 1485.58 L1010.32 1479.7 Z" fill="#000000" fill-rule="nonzero" fill-opacity="1" /><path clip-path="url(#clip720)" d="M1035.39 1454.1 Q1031.78 1454.1 1029.95 1457.66 Q1028.14 1461.2 1028.14 1468.33 Q1028.14 1475.44 1029.95 1479.01 Q1031.78 1482.55 1035.39 1482.55 Q1039.02 1482.55 1040.83 1479.01 Q1042.66 1475.44 1042.66 1468.33 Q1042.66 1461.2 1040.83 1457.66 Q1039.02 1454.1 1035.39 1454.1 M1035.39 1450.39 Q1041.2 1450.39 1044.25 1455 Q1047.33 1459.58 1047.33 1468.33 Q1047.33 1477.06 1044.25 1481.67 Q1041.2 1486.25 1035.39 1486.25 Q1029.58 1486.25 1026.5 1481.67 Q1023.44 1477.06 1023.44 1468.33 Q1023.44 1459.58 1026.5 1455 Q1029.58 1450.39 1035.39 1450.39 Z" fill="#000000" fill-rule="nonzero" fill-opacity="1" /><path clip-path="url(#clip720)" d="M1436.29 1451.02 L1458.51 1451.02 L1458.51 1453.01 L1445.96 1485.58 L1441.08 1485.58 L1452.89 1454.96 L1436.29 1454.96 L1436.29 1451.02 Z" fill="#000000" fill-rule="nonzero" fill-opacity="1" /><path clip-path="url(#clip720)" d="M1467.63 1479.7 L1472.51 1479.7 L1472.51 1485.58 L1467.63 1485.58 L1467.63 1479.7 Z" fill="#000000" fill-rule="nonzero" fill-opacity="1" /><path clip-path="url(#clip720)" d="M1482.75 1451.02 L1501.1 1451.02 L1501.1 1454.96 L1487.03 1454.96 L1487.03 1463.43 Q1488.05 1463.08 1489.07 1462.92 Q1490.08 1462.73 1491.1 1462.73 Q1496.89 1462.73 1500.27 1465.9 Q1503.65 1469.08 1503.65 1474.49 Q1503.65 1480.07 1500.18 1483.17 Q1496.7 1486.25 1490.38 1486.25 Q1488.21 1486.25 1485.94 1485.88 Q1483.7 1485.51 1481.29 1484.77 L1481.29 1480.07 Q1483.37 1481.2 1485.59 1481.76 Q1487.82 1482.32 1490.29 1482.32 Q1494.3 1482.32 1496.63 1480.21 Q1498.97 1478.1 1498.97 1474.49 Q1498.97 1470.88 1496.63 1468.77 Q1494.3 1466.67 1490.29 1466.67 Q1488.42 1466.67 1486.54 1467.08 Q1484.69 1467.5 1482.75 1468.38 L1482.75 1451.02 Z" fill="#000000" fill-rule="nonzero" fill-opacity="1" /><path clip-path="url(#clip720)" d="M1878.97 1481.64 L1886.61 1481.64 L1886.61 1455.28 L1878.3 1456.95 L1878.3 1452.69 L1886.56 1451.02 L1891.24 1451.02 L1891.24 1481.64 L1898.88 1481.64 L1898.88 1485.58 L1878.97 1485.58 L1878.97 1481.64 Z" fill="#000000" fill-rule="nonzero" fill-opacity="1" /><path clip-path="url(#clip720)" d="M1918.32 1454.1 Q1914.71 1454.1 1912.88 1457.66 Q1911.08 1461.2 1911.08 1468.33 Q1911.08 1475.44 1912.88 1479.01 Q1914.71 1482.55 1918.32 1482.55 Q1921.96 1482.55 1923.76 1479.01 Q1925.59 1475.44 1925.59 1468.33 Q1925.59 1461.2 1923.76 1457.66 Q1921.96 1454.1 1918.32 1454.1 M1918.32 1450.39 Q1924.13 1450.39 1927.19 1455 Q1930.27 1459.58 1930.27 1468.33 Q1930.27 1477.06 1927.19 1481.67 Q1924.13 1486.25 1918.32 1486.25 Q1912.51 1486.25 1909.43 1481.67 Q1906.38 1477.06 1906.38 1468.33 Q1906.38 1459.58 1909.43 1455 Q1912.51 1450.39 1918.32 1450.39 Z" fill="#000000" fill-rule="nonzero" fill-opacity="1" /><path clip-path="url(#clip720)" d="M1938.48 1479.7 L1943.37 1479.7 L1943.37 1485.58 L1938.48 1485.58 L1938.48 1479.7 Z" fill="#000000" fill-rule="nonzero" fill-opacity="1" /><path clip-path="url(#clip720)" d="M1963.55 1454.1 Q1959.94 1454.1 1958.11 1457.66 Q1956.31 1461.2 1956.31 1468.33 Q1956.31 1475.44 1958.11 1479.01 Q1959.94 1482.55 1963.55 1482.55 Q1967.19 1482.55 1968.99 1479.01 Q1970.82 1475.44 1970.82 1468.33 Q1970.82 1461.2 1968.99 1457.66 Q1967.19 1454.1 1963.55 1454.1 M1963.55 1450.39 Q1969.36 1450.39 1972.42 1455 Q1975.5 1459.58 1975.5 1468.33 Q1975.5 1477.06 1972.42 1481.67 Q1969.36 1486.25 1963.55 1486.25 Q1957.74 1486.25 1954.66 1481.67 Q1951.61 1477.06 1951.61 1468.33 Q1951.61 1459.58 1954.66 1455 Q1957.74 1450.39 1963.55 1450.39 Z" fill="#000000" fill-rule="nonzero" fill-opacity="1" /><path clip-path="url(#clip720)" d="M1271.38 1518.52 L1277.27 1518.52 L1277.27 1547.77 L1294.74 1532.4 L1302.22 1532.4 L1283.31 1549.07 L1303.02 1568.04 L1295.38 1568.04 L1277.27 1550.63 L1277.27 1568.04 L1271.38 1568.04 L1271.38 1518.52 Z" fill="#000000" fill-rule="nonzero" fill-opacity="1" /><polyline clip-path="url(#clip722)" style="stroke:#000000; stroke-linecap:round; stroke-linejoin:round; stroke-width:2; stroke-opacity:0.1; fill:none" points="221.637,1291.82 2352.76,1291.82 "/>
<polyline clip-path="url(#clip722)" style="stroke:#000000; stroke-linecap:round; stroke-linejoin:round; stroke-width:2; stroke-opacity:0.1; fill:none" points="221.637,540.743 2352.76,540.743 "/>
<polyline clip-path="url(#clip720)" style="stroke:#000000; stroke-linecap:round; stroke-linejoin:round; stroke-width:4; stroke-opacity:1; fill:none" points="221.637,1423.18 221.637,123.472 "/>
<polyline clip-path="url(#clip720)" style="stroke:#000000; stroke-linecap:round; stroke-linejoin:round; stroke-width:4; stroke-opacity:1; fill:none" points="221.637,1291.82 240.535,1291.82 "/>
<polyline clip-path="url(#clip720)" style="stroke:#000000; stroke-linecap:round; stroke-linejoin:round; stroke-width:4; stroke-opacity:1; fill:none" points="221.637,540.743 240.535,540.743 "/>
<path clip-path="url(#clip720)" d="M114.931 1311.61 L122.57 1311.61 L122.57 1285.25 L114.26 1286.91 L114.26 1282.65 L122.524 1280.99 L127.2 1280.99 L127.2 1311.61 L134.839 1311.61 L134.839 1315.55 L114.931 1315.55 L114.931 1311.61 Z" fill="#000000" fill-rule="nonzero" fill-opacity="1" /><path clip-path="url(#clip720)" d="M154.283 1284.07 Q150.672 1284.07 148.843 1287.63 Q147.038 1291.17 147.038 1298.3 Q147.038 1305.41 148.843 1308.97 Q150.672 1312.51 154.283 1312.51 Q157.917 1312.51 159.723 1308.97 Q161.552 1305.41 161.552 1298.3 Q161.552 1291.17 159.723 1287.63 Q157.917 1284.07 154.283 1284.07 M154.283 1280.36 Q160.093 1280.36 163.149 1284.97 Q166.227 1289.55 166.227 1298.3 Q166.227 1307.03 163.149 1311.64 Q160.093 1316.22 154.283 1316.22 Q148.473 1316.22 145.394 1311.64 Q142.339 1307.03 142.339 1298.3 Q142.339 1289.55 145.394 1284.97 Q148.473 1280.36 154.283 1280.36 Z" fill="#000000" fill-rule="nonzero" fill-opacity="1" /><path clip-path="url(#clip720)" d="M175.932 1262.56 Q172.998 1262.56 171.512 1265.45 Q170.045 1268.33 170.045 1274.12 Q170.045 1279.9 171.512 1282.8 Q172.998 1285.67 175.932 1285.67 Q178.885 1285.67 180.352 1282.8 Q181.838 1279.9 181.838 1274.12 Q181.838 1268.33 180.352 1265.45 Q178.885 1262.56 175.932 1262.56 M175.932 1259.55 Q180.653 1259.55 183.136 1263.29 Q185.637 1267.02 185.637 1274.12 Q185.637 1281.22 183.136 1284.96 Q180.653 1288.68 175.932 1288.68 Q171.212 1288.68 168.71 1284.96 Q166.227 1281.22 166.227 1274.12 Q166.227 1267.02 168.71 1263.29 Q171.212 1259.55 175.932 1259.55 Z" fill="#000000" fill-rule="nonzero" fill-opacity="1" /><path clip-path="url(#clip720)" d="M116.173 560.535 L123.812 560.535 L123.812 534.17 L115.501 535.836 L115.501 531.577 L123.765 529.911 L128.441 529.911 L128.441 560.535 L136.08 560.535 L136.08 564.471 L116.173 564.471 L116.173 560.535 Z" fill="#000000" fill-rule="nonzero" fill-opacity="1" /><path clip-path="url(#clip720)" d="M155.524 532.989 Q151.913 532.989 150.085 536.554 Q148.279 540.096 148.279 547.225 Q148.279 554.332 150.085 557.897 Q151.913 561.438 155.524 561.438 Q159.159 561.438 160.964 557.897 Q162.793 554.332 162.793 547.225 Q162.793 540.096 160.964 536.554 Q159.159 532.989 155.524 532.989 M155.524 529.286 Q161.335 529.286 164.39 533.892 Q167.469 538.475 167.469 547.225 Q167.469 555.952 164.39 560.559 Q161.335 565.142 155.524 565.142 Q149.714 565.142 146.636 560.559 Q143.58 555.952 143.58 547.225 Q143.58 538.475 146.636 533.892 Q149.714 529.286 155.524 529.286 Z" fill="#000000" fill-rule="nonzero" fill-opacity="1" /><path clip-path="url(#clip720)" d="M168.654 508.98 L183.568 508.98 L183.568 512.177 L172.133 512.177 L172.133 519.061 Q172.961 518.779 173.788 518.647 Q174.616 518.497 175.443 518.497 Q180.145 518.497 182.891 521.074 Q185.637 523.65 185.637 528.051 Q185.637 532.584 182.816 535.104 Q179.995 537.606 174.86 537.606 Q173.092 537.606 171.249 537.305 Q169.425 537.004 167.469 536.402 L167.469 532.584 Q169.161 533.505 170.967 533.957 Q172.773 534.408 174.785 534.408 Q178.039 534.408 179.938 532.697 Q181.838 530.985 181.838 528.051 Q181.838 525.117 179.938 523.406 Q178.039 521.694 174.785 521.694 Q173.262 521.694 171.738 522.033 Q170.234 522.371 168.654 523.086 L168.654 508.98 Z" fill="#000000" fill-rule="nonzero" fill-opacity="1" /><path clip-path="url(#clip720)" d="M45.7664 817.313 Q39.4007 817.313 35.8996 819.955 Q32.3984 822.565 32.3984 827.307 Q32.3984 832.018 35.8996 834.66 Q39.4007 837.27 45.7664 837.27 Q52.1003 837.27 55.6014 834.66 Q59.1026 832.018 59.1026 827.307 Q59.1026 822.565 55.6014 819.955 Q52.1003 817.313 45.7664 817.313 M59.58 811.457 Q68.683 811.457 73.1071 815.499 Q77.5631 819.541 77.5631 827.88 Q77.5631 830.967 77.0857 833.705 Q76.6401 836.442 75.6852 839.02 L69.9879 839.02 Q71.3884 836.442 72.0568 833.928 Q72.7252 831.413 72.7252 828.803 Q72.7252 823.042 69.7015 820.178 Q66.7096 817.313 60.6303 817.313 L57.7339 817.313 Q60.885 819.127 62.4446 821.96 Q64.0042 824.793 64.0042 828.739 Q64.0042 835.296 59.0071 839.307 Q54.01 843.317 45.7664 843.317 Q37.491 843.317 32.4939 839.307 Q27.4968 835.296 27.4968 828.739 Q27.4968 824.793 29.0564 821.96 Q30.616 819.127 33.7671 817.313 L28.3562 817.313 L28.3562 811.457 L59.58 811.457 Z" fill="#000000" fill-rule="nonzero" fill-opacity="1" /><path clip-path="url(#clip720)" d="M33.8307 778.737 Q33.2578 779.724 33.0032 780.901 Q32.7167 782.047 32.7167 783.447 Q32.7167 788.413 35.9632 791.086 Q39.1779 793.728 45.2253 793.728 L64.0042 793.728 L64.0042 799.616 L28.3562 799.616 L28.3562 793.728 L33.8944 793.728 Q30.6479 791.882 29.0883 788.922 Q27.4968 785.962 27.4968 781.729 Q27.4968 781.124 27.5923 780.392 Q27.656 779.66 27.8151 778.769 L33.8307 778.737 Z" fill="#000000" fill-rule="nonzero" fill-opacity="1" /><path clip-path="url(#clip720)" d="M46.0847 756.393 Q46.0847 763.491 47.7079 766.228 Q49.3312 768.965 53.2461 768.965 Q56.3653 768.965 58.2114 766.928 Q60.0256 764.86 60.0256 761.327 Q60.0256 756.457 56.5881 753.529 Q53.1188 750.569 47.3897 750.569 L46.0847 750.569 L46.0847 756.393 M43.6657 744.712 L64.0042 744.712 L64.0042 750.569 L58.5933 750.569 Q61.8398 752.574 63.3994 755.566 Q64.9272 758.558 64.9272 762.886 Q64.9272 768.361 61.8716 771.607 Q58.7843 774.822 53.6281 774.822 Q47.6125 774.822 44.5569 770.812 Q41.5014 766.769 41.5014 758.78 L41.5014 750.569 L40.9285 750.569 Q36.8862 750.569 34.6901 753.242 Q32.4621 755.884 32.4621 760.69 Q32.4621 763.746 33.1941 766.642 Q33.9262 769.538 35.3903 772.212 L29.9795 772.212 Q28.7381 768.997 28.1334 765.974 Q27.4968 762.95 27.4968 760.085 Q27.4968 752.351 31.5072 748.532 Q35.5176 744.712 43.6657 744.712 Z" fill="#000000" fill-rule="nonzero" fill-opacity="1" /><path clip-path="url(#clip720)" d="M33.7671 709.191 L14.479 709.191 L14.479 703.335 L64.0042 703.335 L64.0042 709.191 L58.657 709.191 Q61.8398 711.038 63.3994 713.87 Q64.9272 716.671 64.9272 720.618 Q64.9272 727.079 59.771 731.153 Q54.6147 735.195 46.212 735.195 Q37.8093 735.195 32.6531 731.153 Q27.4968 727.079 27.4968 720.618 Q27.4968 716.671 29.0564 713.87 Q30.5842 711.038 33.7671 709.191 M46.212 729.148 Q52.6732 729.148 56.3653 726.506 Q60.0256 723.833 60.0256 719.186 Q60.0256 714.539 56.3653 711.865 Q52.6732 709.191 46.212 709.191 Q39.7508 709.191 36.0905 711.865 Q32.3984 714.539 32.3984 719.186 Q32.3984 723.833 36.0905 726.506 Q39.7508 729.148 46.212 729.148 Z" fill="#000000" fill-rule="nonzero" fill-opacity="1" /><path clip-path="url(#clip720)" d="M678.791 65.7705 L678.791 89.8329 L671.297 89.8329 L671.297 27.2059 L678.791 27.2059 L678.791 34.0924 Q681.141 30.0415 684.706 28.0971 Q688.311 26.1121 693.293 26.1121 Q701.557 26.1121 706.702 32.6746 Q711.887 39.2371 711.887 49.9314 Q711.887 60.6258 706.702 67.1883 Q701.557 73.7508 693.293 73.7508 Q688.311 73.7508 684.706 71.8063 Q681.141 69.8214 678.791 65.7705 M704.15 49.9314 Q704.15 41.7081 700.747 37.0496 Q697.385 32.3505 691.471 32.3505 Q685.556 32.3505 682.153 37.0496 Q678.791 41.7081 678.791 49.9314 Q678.791 58.1548 682.153 62.8538 Q685.556 67.5124 691.471 67.5124 Q697.385 67.5124 700.747 62.8538 Q704.15 58.1548 704.15 49.9314 Z" fill="#000000" fill-rule="nonzero" fill-opacity="1" /><path clip-path="url(#clip720)" d="M750.533 34.1734 Q749.277 33.4443 747.778 33.1202 Q746.32 32.7556 744.537 32.7556 Q738.218 32.7556 734.815 36.8875 Q731.453 40.9789 731.453 48.6757 L731.453 72.576 L723.959 72.576 L723.959 27.2059 L731.453 27.2059 L731.453 34.2544 Q733.802 30.1225 737.57 28.1376 Q741.337 26.1121 746.725 26.1121 Q747.495 26.1121 748.426 26.2337 Q749.358 26.3147 750.492 26.5172 L750.533 34.1734 Z" fill="#000000" fill-rule="nonzero" fill-opacity="1" /><path clip-path="url(#clip720)" d="M774.109 32.4315 Q768.114 32.4315 764.63 37.1306 Q761.146 41.7891 761.146 49.9314 Q761.146 58.0738 764.589 62.7728 Q768.073 67.4314 774.109 67.4314 Q780.064 67.4314 783.548 62.7323 Q787.031 58.0333 787.031 49.9314 Q787.031 41.8701 783.548 37.1711 Q780.064 32.4315 774.109 32.4315 M774.109 26.1121 Q783.831 26.1121 789.381 32.4315 Q794.931 38.7509 794.931 49.9314 Q794.931 61.0714 789.381 67.4314 Q783.831 73.7508 774.109 73.7508 Q764.346 73.7508 758.797 67.4314 Q753.287 61.0714 753.287 49.9314 Q753.287 38.7509 758.797 32.4315 Q764.346 26.1121 774.109 26.1121 Z" fill="#000000" fill-rule="nonzero" fill-opacity="1" /><path clip-path="url(#clip720)" d="M839.855 49.9314 Q839.855 41.7081 836.452 37.0496 Q833.09 32.3505 827.176 32.3505 Q821.261 32.3505 817.859 37.0496 Q814.496 41.7081 814.496 49.9314 Q814.496 58.1548 817.859 62.8538 Q821.261 67.5124 827.176 67.5124 Q833.09 67.5124 836.452 62.8538 Q839.855 58.1548 839.855 49.9314 M814.496 34.0924 Q816.846 30.0415 820.411 28.0971 Q824.016 26.1121 828.999 26.1121 Q837.263 26.1121 842.407 32.6746 Q847.592 39.2371 847.592 49.9314 Q847.592 60.6258 842.407 67.1883 Q837.263 73.7508 828.999 73.7508 Q824.016 73.7508 820.411 71.8063 Q816.846 69.8214 814.496 65.7705 L814.496 72.576 L807.002 72.576 L807.002 9.54393 L814.496 9.54393 L814.496 34.0924 Z" fill="#000000" fill-rule="nonzero" fill-opacity="1" /><path clip-path="url(#clip720)" d="M859.948 9.54393 L867.401 9.54393 L867.401 72.576 L859.948 72.576 L859.948 9.54393 Z" fill="#000000" fill-rule="nonzero" fill-opacity="1" /><path clip-path="url(#clip720)" d="M921.805 48.0275 L921.805 51.6733 L887.534 51.6733 Q888.02 59.3701 892.152 63.421 Q896.325 67.4314 903.738 67.4314 Q908.032 67.4314 912.042 66.3781 Q916.093 65.3249 920.063 63.2184 L920.063 70.267 Q916.053 71.9684 911.84 72.8596 Q907.627 73.7508 903.292 73.7508 Q892.436 73.7508 886.076 67.4314 Q879.757 61.1119 879.757 50.3365 Q879.757 39.1965 885.752 32.6746 Q891.788 26.1121 901.996 26.1121 Q911.151 26.1121 916.458 32.0264 Q921.805 37.9003 921.805 48.0275 M914.351 45.84 Q914.27 39.7232 910.908 36.0774 Q907.586 32.4315 902.077 32.4315 Q895.839 32.4315 892.071 35.9558 Q888.344 39.4801 887.777 45.8805 L914.351 45.84 M895.677 6.22219 L907.1 21.3726 L900.902 21.3726 L887.696 6.22219 L895.677 6.22219 Z" fill="#000000" fill-rule="nonzero" fill-opacity="1" /><path clip-path="url(#clip720)" d="M969.363 35.9153 Q972.158 30.8922 976.047 28.5022 Q979.935 26.1121 985.202 26.1121 Q992.291 26.1121 996.139 31.0947 Q999.987 36.0368 999.987 45.1919 L999.987 72.576 L992.493 72.576 L992.493 45.4349 Q992.493 38.913 990.184 35.7533 Q987.875 32.5936 983.136 32.5936 Q977.343 32.5936 973.981 36.4419 Q970.618 40.2903 970.618 46.9338 L970.618 72.576 L963.124 72.576 L963.124 45.4349 Q963.124 38.8725 960.815 35.7533 Q958.506 32.5936 953.686 32.5936 Q947.974 32.5936 944.612 36.4824 Q941.249 40.3308 941.249 46.9338 L941.249 72.576 L933.755 72.576 L933.755 27.2059 L941.249 27.2059 L941.249 34.2544 Q943.801 30.082 947.366 28.0971 Q950.931 26.1121 955.833 26.1121 Q960.775 26.1121 964.218 28.6237 Q967.702 31.1352 969.363 35.9153 Z" fill="#000000" fill-rule="nonzero" fill-opacity="1" /><path clip-path="url(#clip720)" d="M1053.66 48.0275 L1053.66 51.6733 L1019.39 51.6733 Q1019.88 59.3701 1024.01 63.421 Q1028.18 67.4314 1035.59 67.4314 Q1039.89 67.4314 1043.9 66.3781 Q1047.95 65.3249 1051.92 63.2184 L1051.92 70.267 Q1047.91 71.9684 1043.7 72.8596 Q1039.48 73.7508 1035.15 73.7508 Q1024.29 73.7508 1017.93 67.4314 Q1011.61 61.1119 1011.61 50.3365 Q1011.61 39.1965 1017.61 32.6746 Q1023.64 26.1121 1033.85 26.1121 Q1043.01 26.1121 1048.31 32.0264 Q1053.66 37.9003 1053.66 48.0275 M1046.21 45.84 Q1046.13 39.7232 1042.76 36.0774 Q1039.44 32.4315 1033.93 32.4315 Q1027.7 32.4315 1023.93 35.9558 Q1020.2 39.4801 1019.63 45.8805 L1046.21 45.84 Z" fill="#000000" fill-rule="nonzero" fill-opacity="1" /><path clip-path="url(#clip720)" d="M1094.17 62.2867 L1102.72 62.2867 L1102.72 72.576 L1094.17 72.576 L1094.17 62.2867 M1094.17 29.6769 L1102.72 29.6769 L1102.72 39.9662 L1094.17 39.9662 L1094.17 29.6769 Z" fill="#000000" fill-rule="nonzero" fill-opacity="1" /><path clip-path="url(#clip720)" d="M1153.8 65.7705 L1153.8 89.8329 L1146.31 89.8329 L1146.31 27.2059 L1153.8 27.2059 L1153.8 34.0924 Q1156.15 30.0415 1159.71 28.0971 Q1163.32 26.1121 1168.3 26.1121 Q1176.57 26.1121 1181.71 32.6746 Q1186.9 39.2371 1186.9 49.9314 Q1186.9 60.6258 1181.71 67.1883 Q1176.57 73.7508 1168.3 73.7508 Q1163.32 73.7508 1159.71 71.8063 Q1156.15 69.8214 1153.8 65.7705 M1179.16 49.9314 Q1179.16 41.7081 1175.76 37.0496 Q1172.39 32.3505 1166.48 32.3505 Q1160.57 32.3505 1157.16 37.0496 Q1153.8 41.7081 1153.8 49.9314 Q1153.8 58.1548 1157.16 62.8538 Q1160.57 67.5124 1166.48 67.5124 Q1172.39 67.5124 1175.76 62.8538 Q1179.16 58.1548 1179.16 49.9314 Z" fill="#000000" fill-rule="nonzero" fill-opacity="1" /><path clip-path="url(#clip720)" d="M1225.54 34.1734 Q1224.29 33.4443 1222.79 33.1202 Q1221.33 32.7556 1219.55 32.7556 Q1213.23 32.7556 1209.82 36.8875 Q1206.46 40.9789 1206.46 48.6757 L1206.46 72.576 L1198.97 72.576 L1198.97 27.2059 L1206.46 27.2059 L1206.46 34.2544 Q1208.81 30.1225 1212.58 28.1376 Q1216.35 26.1121 1221.73 26.1121 Q1222.5 26.1121 1223.44 26.2337 Q1224.37 26.3147 1225.5 26.5172 L1225.54 34.1734 Z" fill="#000000" fill-rule="nonzero" fill-opacity="1" /><path clip-path="url(#clip720)" d="M1249.12 32.4315 Q1243.12 32.4315 1239.64 37.1306 Q1236.16 41.7891 1236.16 49.9314 Q1236.16 58.0738 1239.6 62.7728 Q1243.08 67.4314 1249.12 67.4314 Q1255.07 67.4314 1258.56 62.7323 Q1262.04 58.0333 1262.04 49.9314 Q1262.04 41.8701 1258.56 37.1711 Q1255.07 32.4315 1249.12 32.4315 M1249.12 26.1121 Q1258.84 26.1121 1264.39 32.4315 Q1269.94 38.7509 1269.94 49.9314 Q1269.94 61.0714 1264.39 67.4314 Q1258.84 73.7508 1249.12 73.7508 Q1239.36 73.7508 1233.81 67.4314 Q1228.3 61.0714 1228.3 49.9314 Q1228.3 38.7509 1233.81 32.4315 Q1239.36 26.1121 1249.12 26.1121 Z" fill="#000000" fill-rule="nonzero" fill-opacity="1" /><path clip-path="url(#clip720)" d="M1314.86 49.9314 Q1314.86 41.7081 1311.46 37.0496 Q1308.1 32.3505 1302.18 32.3505 Q1296.27 32.3505 1292.87 37.0496 Q1289.51 41.7081 1289.51 49.9314 Q1289.51 58.1548 1292.87 62.8538 Q1296.27 67.5124 1302.18 67.5124 Q1308.1 67.5124 1311.46 62.8538 Q1314.86 58.1548 1314.86 49.9314 M1289.51 34.0924 Q1291.86 30.0415 1295.42 28.0971 Q1299.03 26.1121 1304.01 26.1121 Q1312.27 26.1121 1317.42 32.6746 Q1322.6 39.2371 1322.6 49.9314 Q1322.6 60.6258 1317.42 67.1883 Q1312.27 73.7508 1304.01 73.7508 Q1299.03 73.7508 1295.42 71.8063 Q1291.86 69.8214 1289.51 65.7705 L1289.51 72.576 L1282.01 72.576 L1282.01 9.54393 L1289.51 9.54393 L1289.51 34.0924 Z" fill="#000000" fill-rule="nonzero" fill-opacity="1" /><path clip-path="url(#clip720)" d="M1334.96 9.54393 L1342.41 9.54393 L1342.41 72.576 L1334.96 72.576 L1334.96 9.54393 Z" fill="#000000" fill-rule="nonzero" fill-opacity="1" /><path clip-path="url(#clip720)" d="M1396.81 48.0275 L1396.81 51.6733 L1362.54 51.6733 Q1363.03 59.3701 1367.16 63.421 Q1371.33 67.4314 1378.75 67.4314 Q1383.04 67.4314 1387.05 66.3781 Q1391.1 65.3249 1395.07 63.2184 L1395.07 70.267 Q1391.06 71.9684 1386.85 72.8596 Q1382.64 73.7508 1378.3 73.7508 Q1367.44 73.7508 1361.08 67.4314 Q1354.77 61.1119 1354.77 50.3365 Q1354.77 39.1965 1360.76 32.6746 Q1366.8 26.1121 1377.01 26.1121 Q1386.16 26.1121 1391.47 32.0264 Q1396.81 37.9003 1396.81 48.0275 M1389.36 45.84 Q1389.28 39.7232 1385.92 36.0774 Q1382.6 32.4315 1377.09 32.4315 Q1370.85 32.4315 1367.08 35.9558 Q1363.35 39.4801 1362.79 45.8805 L1389.36 45.84 Z" fill="#000000" fill-rule="nonzero" fill-opacity="1" /><path clip-path="url(#clip720)" d="M1444.37 35.9153 Q1447.17 30.8922 1451.06 28.5022 Q1454.94 26.1121 1460.21 26.1121 Q1467.3 26.1121 1471.15 31.0947 Q1475 36.0368 1475 45.1919 L1475 72.576 L1467.5 72.576 L1467.5 45.4349 Q1467.5 38.913 1465.19 35.7533 Q1462.88 32.5936 1458.14 32.5936 Q1452.35 32.5936 1448.99 36.4419 Q1445.63 40.2903 1445.63 46.9338 L1445.63 72.576 L1438.13 72.576 L1438.13 45.4349 Q1438.13 38.8725 1435.82 35.7533 Q1433.52 32.5936 1428.69 32.5936 Q1422.98 32.5936 1419.62 36.4824 Q1416.26 40.3308 1416.26 46.9338 L1416.26 72.576 L1408.76 72.576 L1408.76 27.2059 L1416.26 27.2059 L1416.26 34.2544 Q1418.81 30.082 1422.38 28.0971 Q1425.94 26.1121 1430.84 26.1121 Q1435.78 26.1121 1439.23 28.6237 Q1442.71 31.1352 1444.37 35.9153 Z" fill="#000000" fill-rule="nonzero" fill-opacity="1" /><path clip-path="url(#clip720)" d="M1486.1 46.5287 L1507.93 46.5287 L1507.93 53.1722 L1486.1 53.1722 L1486.1 46.5287 Z" fill="#000000" fill-rule="nonzero" fill-opacity="1" /><path clip-path="url(#clip720)" d="M1518.79 12.096 L1557.68 12.096 L1557.68 15.5798 L1535.72 72.576 L1527.17 72.576 L1547.83 18.9825 L1518.79 18.9825 L1518.79 12.096 Z" fill="#000000" fill-rule="nonzero" fill-opacity="1" /><path clip-path="url(#clip720)" d="M1598.43 39.9662 Q1604.3 41.222 1607.58 45.1919 Q1610.9 49.1618 1610.9 54.9951 Q1610.9 63.9476 1604.75 68.8492 Q1598.59 73.7508 1587.25 73.7508 Q1583.44 73.7508 1579.39 72.9811 Q1575.38 72.2519 1571.08 70.7531 L1571.08 62.8538 Q1574.49 64.8388 1578.54 65.8515 Q1582.59 66.8642 1587 66.8642 Q1594.7 66.8642 1598.71 63.826 Q1602.76 60.7879 1602.76 54.9951 Q1602.76 49.6479 1598.99 46.6502 Q1595.27 43.612 1588.58 43.612 L1581.54 43.612 L1581.54 36.8875 L1588.91 36.8875 Q1594.94 36.8875 1598.14 34.4975 Q1601.34 32.067 1601.34 27.5299 Q1601.34 22.8714 1598.02 20.4004 Q1594.74 17.8888 1588.58 17.8888 Q1585.22 17.8888 1581.37 18.618 Q1577.52 19.3471 1572.91 20.8865 L1572.91 13.5948 Q1577.57 12.2985 1581.62 11.6504 Q1585.71 11.0023 1589.31 11.0023 Q1598.63 11.0023 1604.06 15.2557 Q1609.49 19.4686 1609.49 26.6793 Q1609.49 31.7024 1606.61 35.1862 Q1603.73 38.6294 1598.43 39.9662 Z" fill="#000000" fill-rule="nonzero" fill-opacity="1" /><path clip-path="url(#clip720)" d="M1621.6 46.5287 L1643.43 46.5287 L1643.43 53.1722 L1621.6 53.1722 L1621.6 46.5287 Z" fill="#000000" fill-rule="nonzero" fill-opacity="1" /><path clip-path="url(#clip720)" d="M1657.77 65.6895 L1671.14 65.6895 L1671.14 19.5497 L1656.6 22.4663 L1656.6 15.0127 L1671.06 12.096 L1679.24 12.096 L1679.24 65.6895 L1692.61 65.6895 L1692.61 72.576 L1657.77 72.576 L1657.77 65.6895 Z" fill="#000000" fill-rule="nonzero" fill-opacity="1" /><path clip-path="url(#clip720)" d="M1710.56 65.6895 L1723.92 65.6895 L1723.92 19.5497 L1709.38 22.4663 L1709.38 15.0127 L1723.84 12.096 L1732.03 12.096 L1732.03 65.6895 L1745.39 65.6895 L1745.39 72.576 L1710.56 72.576 L1710.56 65.6895 Z" fill="#000000" fill-rule="nonzero" fill-opacity="1" /><path clip-path="url(#clip720)" d="M1779.42 17.4837 Q1773.1 17.4837 1769.9 23.7221 Q1766.74 29.92 1766.74 42.3968 Q1766.74 54.833 1769.9 61.0714 Q1773.1 67.2693 1779.42 67.2693 Q1785.78 67.2693 1788.94 61.0714 Q1792.14 54.833 1792.14 42.3968 Q1792.14 29.92 1788.94 23.7221 Q1785.78 17.4837 1779.42 17.4837 M1779.42 11.0023 Q1789.59 11.0023 1794.94 19.0636 Q1800.32 27.0843 1800.32 42.3968 Q1800.32 57.6687 1794.94 65.73 Q1789.59 73.7508 1779.42 73.7508 Q1769.25 73.7508 1763.87 65.73 Q1758.52 57.6687 1758.52 42.3968 Q1758.52 27.0843 1763.87 19.0636 Q1769.25 11.0023 1779.42 11.0023 Z" fill="#000000" fill-rule="nonzero" fill-opacity="1" /><path clip-path="url(#clip720)" d="M1839.5 39.9662 Q1845.37 41.222 1848.65 45.1919 Q1851.97 49.1618 1851.97 54.9951 Q1851.97 63.9476 1845.82 68.8492 Q1839.66 73.7508 1828.32 73.7508 Q1824.51 73.7508 1820.46 72.9811 Q1816.45 72.2519 1812.15 70.7531 L1812.15 62.8538 Q1815.56 64.8388 1819.61 65.8515 Q1823.66 66.8642 1828.07 66.8642 Q1835.77 66.8642 1839.78 63.826 Q1843.83 60.7879 1843.83 54.9951 Q1843.83 49.6479 1840.06 46.6502 Q1836.34 43.612 1829.65 43.612 L1822.6 43.612 L1822.6 36.8875 L1829.98 36.8875 Q1836.01 36.8875 1839.21 34.4975 Q1842.41 32.067 1842.41 27.5299 Q1842.41 22.8714 1839.09 20.4004 Q1835.81 17.8888 1829.65 17.8888 Q1826.29 17.8888 1822.44 18.618 Q1818.59 19.3471 1813.98 20.8865 L1813.98 13.5948 Q1818.63 12.2985 1822.69 11.6504 Q1826.78 11.0023 1830.38 11.0023 Q1839.7 11.0023 1845.13 15.2557 Q1850.56 19.4686 1850.56 26.6793 Q1850.56 31.7024 1847.68 35.1862 Q1844.8 38.6294 1839.5 39.9662 Z" fill="#000000" fill-rule="nonzero" fill-opacity="1" /><path clip-path="url(#clip720)" d="M1874.54 65.6895 L1903.1 65.6895 L1903.1 72.576 L1864.69 72.576 L1864.69 65.6895 Q1869.35 60.8689 1877.37 52.7671 Q1885.43 44.6248 1887.5 42.2752 Q1891.43 37.8598 1892.97 34.8216 Q1894.55 31.7429 1894.55 28.7857 Q1894.55 23.9651 1891.15 20.927 Q1887.78 17.8888 1882.36 17.8888 Q1878.51 17.8888 1874.21 19.2256 Q1869.96 20.5624 1865.1 23.2765 L1865.1 15.0127 Q1870.04 13.0277 1874.33 12.015 Q1878.63 11.0023 1882.19 11.0023 Q1891.59 11.0023 1897.18 15.7013 Q1902.77 20.4004 1902.77 28.2591 Q1902.77 31.9859 1901.35 35.3482 Q1899.98 38.6699 1896.29 43.2069 Q1895.28 44.3817 1889.85 50.0125 Q1884.42 55.6027 1874.54 65.6895 Z" fill="#000000" fill-rule="nonzero" fill-opacity="1" /><polyline clip-path="url(#clip722)" style="stroke:#009af9; stroke-linecap:round; stroke-linejoin:round; stroke-width:4; stroke-opacity:1; fill:none" points="281.952,160.256 464.724,317.292 647.495,488.448 830.267,488.448 1013.04,488.448 1195.81,488.448 1378.58,488.448 1561.35,612.101 1744.13,700.924 1926.9,700.924 2109.67,820.03 2292.44,871.248 "/>
<polyline clip-path="url(#clip722)" style="stroke:#e26f46; stroke-linecap:round; stroke-linejoin:round; stroke-width:4; stroke-opacity:1; fill:none" points="281.952,160.256 464.724,317.292 647.495,488.448 830.267,634.336 1013.04,669.141 1195.81,562.9 1378.58,846.497 1561.35,1068.8 1744.13,1205.59 1926.9,1235.46 2109.67,1386.4 "/>
<polyline clip-path="url(#clip722)" style="stroke:#3da44d; stroke-linecap:round; stroke-linejoin:round; stroke-width:4; stroke-opacity:1; fill:none" points="281.952,160.256 464.724,317.292 647.495,488.448 830.267,488.448 1013.04,488.448 1195.81,488.448 1378.58,488.448 1561.35,612.101 1744.13,612.101 1926.9,749.431 2109.67,749.431 "/>
<polyline clip-path="url(#clip722)" style="stroke:#c271d2; stroke-linecap:round; stroke-linejoin:round; stroke-width:4; stroke-opacity:1; fill:none" points="281.952,160.256 464.724,317.292 647.495,488.448 830.267,634.336 1013.04,669.141 1195.81,562.9 1378.58,846.497 1561.35,1068.8 1744.13,1205.59 1926.9,1229.89 2109.67,1324.67 "/>
<polyline clip-path="url(#clip722)" style="stroke:#ac8d18; stroke-linecap:round; stroke-linejoin:round; stroke-width:4; stroke-opacity:1; fill:none" points="281.952,160.256 464.724,317.292 647.495,488.448 830.267,634.336 1013.04,669.141 1195.81,562.9 1378.58,846.497 1561.35,1068.8 1744.13,1205.59 1926.9,1235.46 2109.67,1386.4 "/>
<path clip-path="url(#clip720)" d="M1745.51 477.836 L2281.72 477.836 L2281.72 166.796 L1745.51 166.796  Z" fill="#ffffff" fill-rule="evenodd" fill-opacity="1"/>
<polyline clip-path="url(#clip720)" style="stroke:#000000; stroke-linecap:round; stroke-linejoin:round; stroke-width:4; stroke-opacity:1; fill:none" points="1745.51,477.836 2281.72,477.836 2281.72,166.796 1745.51,166.796 1745.51,477.836 "/>
<polyline clip-path="url(#clip720)" style="stroke:#009af9; stroke-linecap:round; stroke-linejoin:round; stroke-width:4; stroke-opacity:1; fill:none" points="1769.19,218.636 1911.26,218.636 "/>
<path clip-path="url(#clip720)" d="M1934.94 201.356 L1939.62 201.356 L1939.62 231.981 L1956.44 231.981 L1956.44 235.916 L1934.94 235.916 L1934.94 201.356 Z" fill="#000000" fill-rule="nonzero" fill-opacity="1" /><path clip-path="url(#clip720)" d="M1961.35 201.356 L1968.32 201.356 L1977.14 224.874 L1986 201.356 L1992.97 201.356 L1992.97 235.916 L1988.41 235.916 L1988.41 205.569 L1979.5 229.272 L1974.8 229.272 L1965.89 205.569 L1965.89 235.916 L1961.35 235.916 L1961.35 201.356 Z" fill="#000000" fill-rule="nonzero" fill-opacity="1" /><path clip-path="url(#clip720)" d="M2021.77 243.786 L2021.77 247.096 L1997.14 247.096 L1997.14 243.786 L2021.77 243.786 Z" fill="#000000" fill-rule="nonzero" fill-opacity="1" /><path clip-path="url(#clip720)" d="M2046.67 202.49 L2046.67 207.05 Q2044.01 205.777 2041.65 205.152 Q2039.29 204.527 2037.09 204.527 Q2033.27 204.527 2031.19 206.008 Q2029.13 207.49 2029.13 210.221 Q2029.13 212.513 2030.49 213.694 Q2031.88 214.851 2035.73 215.569 L2038.55 216.147 Q2043.78 217.143 2046.26 219.666 Q2048.76 222.166 2048.76 226.379 Q2048.76 231.402 2045.38 233.994 Q2042.02 236.587 2035.52 236.587 Q2033.06 236.587 2030.29 236.031 Q2027.53 235.476 2024.57 234.388 L2024.57 229.573 Q2027.42 231.17 2030.15 231.981 Q2032.88 232.791 2035.52 232.791 Q2039.52 232.791 2041.7 231.217 Q2043.87 229.643 2043.87 226.726 Q2043.87 224.18 2042.3 222.744 Q2040.75 221.309 2037.18 220.592 L2034.34 220.036 Q2029.11 218.995 2026.77 216.772 Q2024.43 214.55 2024.43 210.592 Q2024.43 206.008 2027.65 203.37 Q2030.89 200.731 2036.56 200.731 Q2038.99 200.731 2041.51 201.171 Q2044.04 201.61 2046.67 202.49 Z" fill="#000000" fill-rule="nonzero" fill-opacity="1" /><path clip-path="url(#clip720)" d="M2060.73 205.198 L2060.73 218.184 L2066.61 218.184 Q2069.87 218.184 2071.65 216.495 Q2073.43 214.805 2073.43 211.68 Q2073.43 208.578 2071.65 206.888 Q2069.87 205.198 2066.61 205.198 L2060.73 205.198 M2056.05 201.356 L2066.61 201.356 Q2072.42 201.356 2075.38 203.995 Q2078.36 206.61 2078.36 211.68 Q2078.36 216.795 2075.38 219.411 Q2072.42 222.027 2066.61 222.027 L2060.73 222.027 L2060.73 235.916 L2056.05 235.916 L2056.05 201.356 Z" fill="#000000" fill-rule="nonzero" fill-opacity="1" /><path clip-path="url(#clip720)" d="M2108.2 230.985 L2108.2 221.703 L2100.56 221.703 L2100.56 217.86 L2112.83 217.86 L2112.83 232.698 Q2110.12 234.619 2106.86 235.615 Q2103.6 236.587 2099.89 236.587 Q2091.79 236.587 2087.21 231.865 Q2082.65 227.119 2082.65 218.67 Q2082.65 210.198 2087.21 205.476 Q2091.79 200.731 2099.89 200.731 Q2103.27 200.731 2106.3 201.564 Q2109.36 202.397 2111.93 204.018 L2111.93 208.995 Q2109.34 206.796 2106.42 205.684 Q2103.5 204.573 2100.29 204.573 Q2093.94 204.573 2090.75 208.115 Q2087.58 211.657 2087.58 218.67 Q2087.58 225.661 2090.75 229.203 Q2093.94 232.744 2100.29 232.744 Q2102.76 232.744 2104.71 232.328 Q2106.65 231.888 2108.2 230.985 Z" fill="#000000" fill-rule="nonzero" fill-opacity="1" /><polyline clip-path="url(#clip720)" style="stroke:#e26f46; stroke-linecap:round; stroke-linejoin:round; stroke-width:4; stroke-opacity:1; fill:none" points="1769.19,270.476 1911.26,270.476 "/>
<path clip-path="url(#clip720)" d="M1934.94 253.196 L1939.62 253.196 L1939.62 283.821 L1956.44 283.821 L1956.44 287.756 L1934.94 287.756 L1934.94 253.196 Z" fill="#000000" fill-rule="nonzero" fill-opacity="1" /><path clip-path="url(#clip720)" d="M1961.35 253.196 L1968.32 253.196 L1977.14 276.714 L1986 253.196 L1992.97 253.196 L1992.97 287.756 L1988.41 287.756 L1988.41 257.409 L1979.5 281.112 L1974.8 281.112 L1965.89 257.409 L1965.89 287.756 L1961.35 287.756 L1961.35 253.196 Z" fill="#000000" fill-rule="nonzero" fill-opacity="1" /><path clip-path="url(#clip720)" d="M2021.77 295.626 L2021.77 298.936 L1997.14 298.936 L1997.14 295.626 L2021.77 295.626 Z" fill="#000000" fill-rule="nonzero" fill-opacity="1" /><path clip-path="url(#clip720)" d="M2037.51 257.802 L2031.17 275.001 L2043.87 275.001 L2037.51 257.802 M2034.87 253.196 L2040.17 253.196 L2053.34 287.756 L2048.48 287.756 L2045.33 278.89 L2029.75 278.89 L2026.61 287.756 L2021.68 287.756 L2034.87 253.196 Z" fill="#000000" fill-rule="nonzero" fill-opacity="1" /><path clip-path="url(#clip720)" d="M2079.75 272.108 L2079.75 287.756 L2075.49 287.756 L2075.49 272.247 Q2075.49 268.566 2074.06 266.737 Q2072.62 264.909 2069.75 264.909 Q2066.3 264.909 2064.31 267.108 Q2062.32 269.307 2062.32 273.103 L2062.32 287.756 L2058.04 287.756 L2058.04 261.83 L2062.32 261.83 L2062.32 265.858 Q2063.85 263.52 2065.91 262.362 Q2067.99 261.205 2070.7 261.205 Q2075.17 261.205 2077.46 263.983 Q2079.75 266.737 2079.75 272.108 Z" fill="#000000" fill-rule="nonzero" fill-opacity="1" /><path clip-path="url(#clip720)" d="M2105.31 265.765 L2105.31 251.737 L2109.57 251.737 L2109.57 287.756 L2105.31 287.756 L2105.31 283.867 Q2103.97 286.182 2101.91 287.316 Q2099.87 288.427 2097 288.427 Q2092.3 288.427 2089.34 284.677 Q2086.4 280.927 2086.4 274.816 Q2086.4 268.705 2089.34 264.955 Q2092.3 261.205 2097 261.205 Q2099.87 261.205 2101.91 262.339 Q2103.97 263.45 2105.31 265.765 M2090.8 274.816 Q2090.8 279.515 2092.72 282.2 Q2094.66 284.862 2098.04 284.862 Q2101.42 284.862 2103.36 282.2 Q2105.31 279.515 2105.31 274.816 Q2105.31 270.117 2103.36 267.455 Q2101.42 264.77 2098.04 264.77 Q2094.66 264.77 2092.72 267.455 Q2090.8 270.117 2090.8 274.816 Z" fill="#000000" fill-rule="nonzero" fill-opacity="1" /><path clip-path="url(#clip720)" d="M2133.36 265.811 Q2132.65 265.395 2131.79 265.21 Q2130.96 265.001 2129.94 265.001 Q2126.33 265.001 2124.38 267.362 Q2122.46 269.7 2122.46 274.098 L2122.46 287.756 L2118.18 287.756 L2118.18 261.83 L2122.46 261.83 L2122.46 265.858 Q2123.8 263.497 2125.96 262.362 Q2128.11 261.205 2131.19 261.205 Q2131.63 261.205 2132.16 261.274 Q2132.69 261.321 2133.34 261.436 L2133.36 265.811 Z" fill="#000000" fill-rule="nonzero" fill-opacity="1" /><path clip-path="url(#clip720)" d="M2158.97 273.728 L2158.97 275.811 L2139.38 275.811 Q2139.66 280.209 2142.02 282.524 Q2144.41 284.816 2148.64 284.816 Q2151.1 284.816 2153.39 284.214 Q2155.7 283.612 2157.97 282.409 L2157.97 286.436 Q2155.68 287.408 2153.27 287.918 Q2150.86 288.427 2148.39 288.427 Q2142.18 288.427 2138.55 284.816 Q2134.94 281.205 2134.94 275.047 Q2134.94 268.682 2138.36 264.955 Q2141.81 261.205 2147.65 261.205 Q2152.88 261.205 2155.91 264.585 Q2158.97 267.941 2158.97 273.728 M2154.71 272.478 Q2154.66 268.983 2152.74 266.899 Q2150.84 264.816 2147.69 264.816 Q2144.13 264.816 2141.98 266.83 Q2139.85 268.844 2139.52 272.501 L2154.71 272.478 Z" fill="#000000" fill-rule="nonzero" fill-opacity="1" /><path clip-path="url(#clip720)" d="M2165.96 261.83 L2170.22 261.83 L2170.22 287.756 L2165.96 287.756 L2165.96 261.83 M2165.96 251.737 L2170.22 251.737 L2170.22 257.131 L2165.96 257.131 L2165.96 251.737 Z" fill="#000000" fill-rule="nonzero" fill-opacity="1" /><path clip-path="url(#clip720)" d="M2198.83 295.626 L2198.83 298.936 L2174.2 298.936 L2174.2 295.626 L2198.83 295.626 Z" fill="#000000" fill-rule="nonzero" fill-opacity="1" /><path clip-path="url(#clip720)" d="M2214.61 274.723 Q2209.45 274.723 2207.46 275.904 Q2205.47 277.084 2205.47 279.932 Q2205.47 282.2 2206.95 283.543 Q2208.46 284.862 2211.03 284.862 Q2214.57 284.862 2216.7 282.362 Q2218.85 279.839 2218.85 275.672 L2218.85 274.723 L2214.61 274.723 M2223.11 272.964 L2223.11 287.756 L2218.85 287.756 L2218.85 283.821 Q2217.39 286.182 2215.22 287.316 Q2213.04 288.427 2209.89 288.427 Q2205.91 288.427 2203.55 286.205 Q2201.21 283.959 2201.21 280.209 Q2201.21 275.834 2204.13 273.612 Q2207.07 271.39 2212.88 271.39 L2218.85 271.39 L2218.85 270.973 Q2218.85 268.034 2216.91 266.436 Q2214.98 264.816 2211.49 264.816 Q2209.27 264.816 2207.16 265.348 Q2205.05 265.881 2203.11 266.946 L2203.11 263.01 Q2205.45 262.108 2207.65 261.668 Q2209.85 261.205 2211.93 261.205 Q2217.55 261.205 2220.33 264.122 Q2223.11 267.038 2223.11 272.964 Z" fill="#000000" fill-rule="nonzero" fill-opacity="1" /><path clip-path="url(#clip720)" d="M2231.88 251.737 L2236.14 251.737 L2236.14 287.756 L2231.88 287.756 L2231.88 251.737 Z" fill="#000000" fill-rule="nonzero" fill-opacity="1" /><path clip-path="url(#clip720)" d="M2249.27 254.469 L2249.27 261.83 L2258.04 261.83 L2258.04 265.14 L2249.27 265.14 L2249.27 279.214 Q2249.27 282.385 2250.12 283.288 Q2251 284.191 2253.66 284.191 L2258.04 284.191 L2258.04 287.756 L2253.66 287.756 Q2248.73 287.756 2246.86 285.927 Q2244.98 284.075 2244.98 279.214 L2244.98 265.14 L2241.86 265.14 L2241.86 261.83 L2244.98 261.83 L2244.98 254.469 L2249.27 254.469 Z" fill="#000000" fill-rule="nonzero" fill-opacity="1" /><polyline clip-path="url(#clip720)" style="stroke:#3da44d; stroke-linecap:round; stroke-linejoin:round; stroke-width:4; stroke-opacity:1; fill:none" points="1769.19,322.316 1911.26,322.316 "/>
<path clip-path="url(#clip720)" d="M1934.94 305.036 L1939.62 305.036 L1939.62 335.661 L1956.44 335.661 L1956.44 339.596 L1934.94 339.596 L1934.94 305.036 Z" fill="#000000" fill-rule="nonzero" fill-opacity="1" /><path clip-path="url(#clip720)" d="M1961.35 305.036 L1968.32 305.036 L1977.14 328.554 L1986 305.036 L1992.97 305.036 L1992.97 339.596 L1988.41 339.596 L1988.41 309.249 L1979.5 332.952 L1974.8 332.952 L1965.89 309.249 L1965.89 339.596 L1961.35 339.596 L1961.35 305.036 Z" fill="#000000" fill-rule="nonzero" fill-opacity="1" /><path clip-path="url(#clip720)" d="M2021.77 347.466 L2021.77 350.776 L1997.14 350.776 L1997.14 347.466 L2021.77 347.466 Z" fill="#000000" fill-rule="nonzero" fill-opacity="1" /><path clip-path="url(#clip720)" d="M2037.51 309.642 L2031.17 326.841 L2043.87 326.841 L2037.51 309.642 M2034.87 305.036 L2040.17 305.036 L2053.34 339.596 L2048.48 339.596 L2045.33 330.73 L2029.75 330.73 L2026.61 339.596 L2021.68 339.596 L2034.87 305.036 Z" fill="#000000" fill-rule="nonzero" fill-opacity="1" /><path clip-path="url(#clip720)" d="M2079.75 323.948 L2079.75 339.596 L2075.49 339.596 L2075.49 324.087 Q2075.49 320.406 2074.06 318.577 Q2072.62 316.749 2069.75 316.749 Q2066.3 316.749 2064.31 318.948 Q2062.32 321.147 2062.32 324.943 L2062.32 339.596 L2058.04 339.596 L2058.04 313.67 L2062.32 313.67 L2062.32 317.698 Q2063.85 315.36 2065.91 314.202 Q2067.99 313.045 2070.7 313.045 Q2075.17 313.045 2077.46 315.823 Q2079.75 318.577 2079.75 323.948 Z" fill="#000000" fill-rule="nonzero" fill-opacity="1" /><path clip-path="url(#clip720)" d="M2105.31 317.605 L2105.31 303.577 L2109.57 303.577 L2109.57 339.596 L2105.31 339.596 L2105.31 335.707 Q2103.97 338.022 2101.91 339.156 Q2099.87 340.267 2097 340.267 Q2092.3 340.267 2089.34 336.517 Q2086.4 332.767 2086.4 326.656 Q2086.4 320.545 2089.34 316.795 Q2092.3 313.045 2097 313.045 Q2099.87 313.045 2101.91 314.179 Q2103.97 315.29 2105.31 317.605 M2090.8 326.656 Q2090.8 331.355 2092.72 334.04 Q2094.66 336.702 2098.04 336.702 Q2101.42 336.702 2103.36 334.04 Q2105.31 331.355 2105.31 326.656 Q2105.31 321.957 2103.36 319.295 Q2101.42 316.61 2098.04 316.61 Q2094.66 316.61 2092.72 319.295 Q2090.8 321.957 2090.8 326.656 Z" fill="#000000" fill-rule="nonzero" fill-opacity="1" /><path clip-path="url(#clip720)" d="M2133.36 317.651 Q2132.65 317.235 2131.79 317.05 Q2130.96 316.841 2129.94 316.841 Q2126.33 316.841 2124.38 319.202 Q2122.46 321.54 2122.46 325.938 L2122.46 339.596 L2118.18 339.596 L2118.18 313.67 L2122.46 313.67 L2122.46 317.698 Q2123.8 315.337 2125.96 314.202 Q2128.11 313.045 2131.19 313.045 Q2131.63 313.045 2132.16 313.114 Q2132.69 313.161 2133.34 313.276 L2133.36 317.651 Z" fill="#000000" fill-rule="nonzero" fill-opacity="1" /><path clip-path="url(#clip720)" d="M2158.97 325.568 L2158.97 327.651 L2139.38 327.651 Q2139.66 332.049 2142.02 334.364 Q2144.41 336.656 2148.64 336.656 Q2151.1 336.656 2153.39 336.054 Q2155.7 335.452 2157.97 334.249 L2157.97 338.276 Q2155.68 339.248 2153.27 339.758 Q2150.86 340.267 2148.39 340.267 Q2142.18 340.267 2138.55 336.656 Q2134.94 333.045 2134.94 326.887 Q2134.94 320.522 2138.36 316.795 Q2141.81 313.045 2147.65 313.045 Q2152.88 313.045 2155.91 316.425 Q2158.97 319.781 2158.97 325.568 M2154.71 324.318 Q2154.66 320.823 2152.74 318.739 Q2150.84 316.656 2147.69 316.656 Q2144.13 316.656 2141.98 318.67 Q2139.85 320.684 2139.52 324.341 L2154.71 324.318 Z" fill="#000000" fill-rule="nonzero" fill-opacity="1" /><path clip-path="url(#clip720)" d="M2165.96 313.67 L2170.22 313.67 L2170.22 339.596 L2165.96 339.596 L2165.96 313.67 M2165.96 303.577 L2170.22 303.577 L2170.22 308.971 L2165.96 308.971 L2165.96 303.577 Z" fill="#000000" fill-rule="nonzero" fill-opacity="1" /><polyline clip-path="url(#clip720)" style="stroke:#c271d2; stroke-linecap:round; stroke-linejoin:round; stroke-width:4; stroke-opacity:1; fill:none" points="1769.19,374.156 1911.26,374.156 "/>
<path clip-path="url(#clip720)" d="M1934.94 356.876 L1939.62 356.876 L1939.62 387.501 L1956.44 387.501 L1956.44 391.436 L1934.94 391.436 L1934.94 356.876 Z" fill="#000000" fill-rule="nonzero" fill-opacity="1" /><path clip-path="url(#clip720)" d="M1961.35 356.876 L1968.32 356.876 L1977.14 380.394 L1986 356.876 L1992.97 356.876 L1992.97 391.436 L1988.41 391.436 L1988.41 361.089 L1979.5 384.792 L1974.8 384.792 L1965.89 361.089 L1965.89 391.436 L1961.35 391.436 L1961.35 356.876 Z" fill="#000000" fill-rule="nonzero" fill-opacity="1" /><path clip-path="url(#clip720)" d="M2021.77 399.306 L2021.77 402.616 L1997.14 402.616 L1997.14 399.306 L2021.77 399.306 Z" fill="#000000" fill-rule="nonzero" fill-opacity="1" /><path clip-path="url(#clip720)" d="M2046.67 358.01 L2046.67 362.57 Q2044.01 361.297 2041.65 360.672 Q2039.29 360.047 2037.09 360.047 Q2033.27 360.047 2031.19 361.528 Q2029.13 363.01 2029.13 365.741 Q2029.13 368.033 2030.49 369.214 Q2031.88 370.371 2035.73 371.089 L2038.55 371.667 Q2043.78 372.663 2046.26 375.186 Q2048.76 377.686 2048.76 381.899 Q2048.76 386.922 2045.38 389.514 Q2042.02 392.107 2035.52 392.107 Q2033.06 392.107 2030.29 391.551 Q2027.53 390.996 2024.57 389.908 L2024.57 385.093 Q2027.42 386.69 2030.15 387.501 Q2032.88 388.311 2035.52 388.311 Q2039.52 388.311 2041.7 386.737 Q2043.87 385.163 2043.87 382.246 Q2043.87 379.7 2042.3 378.264 Q2040.75 376.829 2037.18 376.112 L2034.34 375.556 Q2029.11 374.515 2026.77 372.292 Q2024.43 370.07 2024.43 366.112 Q2024.43 361.528 2027.65 358.89 Q2030.89 356.251 2036.56 356.251 Q2038.99 356.251 2041.51 356.691 Q2044.04 357.13 2046.67 358.01 Z" fill="#000000" fill-rule="nonzero" fill-opacity="1" /><path clip-path="url(#clip720)" d="M2060.73 360.718 L2060.73 373.704 L2066.61 373.704 Q2069.87 373.704 2071.65 372.015 Q2073.43 370.325 2073.43 367.2 Q2073.43 364.098 2071.65 362.408 Q2069.87 360.718 2066.61 360.718 L2060.73 360.718 M2056.05 356.876 L2066.61 356.876 Q2072.42 356.876 2075.38 359.515 Q2078.36 362.13 2078.36 367.2 Q2078.36 372.315 2075.38 374.931 Q2072.42 377.547 2066.61 377.547 L2060.73 377.547 L2060.73 391.436 L2056.05 391.436 L2056.05 356.876 Z" fill="#000000" fill-rule="nonzero" fill-opacity="1" /><path clip-path="url(#clip720)" d="M2108.2 386.505 L2108.2 377.223 L2100.56 377.223 L2100.56 373.38 L2112.83 373.38 L2112.83 388.218 Q2110.12 390.139 2106.86 391.135 Q2103.6 392.107 2099.89 392.107 Q2091.79 392.107 2087.21 387.385 Q2082.65 382.639 2082.65 374.19 Q2082.65 365.718 2087.21 360.996 Q2091.79 356.251 2099.89 356.251 Q2103.27 356.251 2106.3 357.084 Q2109.36 357.917 2111.93 359.538 L2111.93 364.515 Q2109.34 362.316 2106.42 361.204 Q2103.5 360.093 2100.29 360.093 Q2093.94 360.093 2090.75 363.635 Q2087.58 367.177 2087.58 374.19 Q2087.58 381.181 2090.75 384.723 Q2093.94 388.264 2100.29 388.264 Q2102.76 388.264 2104.71 387.848 Q2106.65 387.408 2108.2 386.505 Z" fill="#000000" fill-rule="nonzero" fill-opacity="1" /><path clip-path="url(#clip720)" d="M2140.89 399.306 L2140.89 402.616 L2116.26 402.616 L2116.26 399.306 L2140.89 399.306 Z" fill="#000000" fill-rule="nonzero" fill-opacity="1" /><path clip-path="url(#clip720)" d="M2156.67 378.403 Q2151.51 378.403 2149.52 379.584 Q2147.53 380.764 2147.53 383.612 Q2147.53 385.88 2149.01 387.223 Q2150.52 388.542 2153.09 388.542 Q2156.63 388.542 2158.76 386.042 Q2160.91 383.519 2160.91 379.352 L2160.91 378.403 L2156.67 378.403 M2165.17 376.644 L2165.17 391.436 L2160.91 391.436 L2160.91 387.501 Q2159.45 389.862 2157.28 390.996 Q2155.1 392.107 2151.95 392.107 Q2147.97 392.107 2145.61 389.885 Q2143.27 387.639 2143.27 383.889 Q2143.27 379.514 2146.19 377.292 Q2149.13 375.07 2154.94 375.07 L2160.91 375.07 L2160.91 374.653 Q2160.91 371.714 2158.97 370.116 Q2157.04 368.496 2153.55 368.496 Q2151.33 368.496 2149.22 369.028 Q2147.11 369.561 2145.17 370.626 L2145.17 366.69 Q2147.51 365.788 2149.71 365.348 Q2151.91 364.885 2153.99 364.885 Q2159.61 364.885 2162.39 367.802 Q2165.17 370.718 2165.17 376.644 Z" fill="#000000" fill-rule="nonzero" fill-opacity="1" /><path clip-path="url(#clip720)" d="M2173.94 355.417 L2178.2 355.417 L2178.2 391.436 L2173.94 391.436 L2173.94 355.417 Z" fill="#000000" fill-rule="nonzero" fill-opacity="1" /><path clip-path="url(#clip720)" d="M2191.33 358.149 L2191.33 365.51 L2200.1 365.51 L2200.1 368.82 L2191.33 368.82 L2191.33 382.894 Q2191.33 386.065 2192.18 386.968 Q2193.06 387.871 2195.73 387.871 L2200.1 387.871 L2200.1 391.436 L2195.73 391.436 Q2190.79 391.436 2188.92 389.607 Q2187.04 387.755 2187.04 382.894 L2187.04 368.82 L2183.92 368.82 L2183.92 365.51 L2187.04 365.51 L2187.04 358.149 L2191.33 358.149 Z" fill="#000000" fill-rule="nonzero" fill-opacity="1" /><polyline clip-path="url(#clip720)" style="stroke:#ac8d18; stroke-linecap:round; stroke-linejoin:round; stroke-width:4; stroke-opacity:1; fill:none" points="1769.19,425.996 1911.26,425.996 "/>
<path clip-path="url(#clip720)" d="M1934.94 408.716 L1939.62 408.716 L1939.62 439.341 L1956.44 439.341 L1956.44 443.276 L1934.94 443.276 L1934.94 408.716 Z" fill="#000000" fill-rule="nonzero" fill-opacity="1" /><path clip-path="url(#clip720)" d="M1961.35 408.716 L1968.32 408.716 L1977.14 432.234 L1986 408.716 L1992.97 408.716 L1992.97 443.276 L1988.41 443.276 L1988.41 412.929 L1979.5 436.632 L1974.8 436.632 L1965.89 412.929 L1965.89 443.276 L1961.35 443.276 L1961.35 408.716 Z" fill="#000000" fill-rule="nonzero" fill-opacity="1" /></svg>
