<?xml version="1.0" encoding="utf-8"?>
<svg xmlns="http://www.w3.org/2000/svg" xmlns:xlink="http://www.w3.org/1999/xlink" width="600" height="400" viewBox="0 0 2400 1600">
<defs>
  <clipPath id="clip480">
    <rect x="0" y="0" width="2400" height="1600"/>
  </clipPath>
</defs>
<path clip-path="url(#clip480)" d="M0 1600 L2400 1600 L2400 0 L0 0  Z" fill="#ffffff" fill-rule="evenodd" fill-opacity="1"/>
<defs>
  <clipPath id="clip481">
    <rect x="480" y="0" width="1681" height="1600"/>
  </clipPath>
</defs>
<path clip-path="url(#clip480)" d="M246.802 1423.18 L2352.76 1423.18 L2352.76 123.472 L246.802 123.472  Z" fill="#ffffff" fill-rule="evenodd" fill-opacity="1"/>
<defs>
  <clipPath id="clip482">
    <rect x="246" y="123" width="2107" height="1301"/>
  </clipPath>
</defs>
<polyline clip-path="url(#clip482)" style="stroke:#000000; stroke-linecap:round; stroke-linejoin:round; stroke-width:2; stroke-opacity:0.1; fill:none" points="624.284,1423.18 624.284,123.472 "/>
<polyline clip-path="url(#clip482)" style="stroke:#000000; stroke-linecap:round; stroke-linejoin:round; stroke-width:2; stroke-opacity:0.1; fill:none" points="1021.63,1423.18 1021.63,123.472 "/>
<polyline clip-path="url(#clip482)" style="stroke:#000000; stroke-linecap:round; stroke-linejoin:round; stroke-width:2; stroke-opacity:0.1; fill:none" points="1418.98,1423.18 1418.98,123.472 "/>
<polyline clip-path="url(#clip482)" style="stroke:#000000; stroke-linecap:round; stroke-linejoin:round; stroke-width:2; stroke-opacity:0.1; fill:none" points="1816.33,1423.18 1816.33,123.472 "/>
<polyline clip-path="url(#clip482)" style="stroke:#000000; stroke-linecap:round; stroke-linejoin:round; stroke-width:2; stroke-opacity:0.1; fill:none" points="2213.68,1423.18 2213.68,123.472 "/>
<polyline clip-path="url(#clip480)" style="stroke:#000000; stroke-linecap:round; stroke-linejoin:round; stroke-width:4; stroke-opacity:1; fill:none" points="246.802,1423.18 2352.76,1423.18 "/>
<polyline clip-path="url(#clip480)" style="stroke:#000000; stroke-linecap:round; stroke-linejoin:round; stroke-width:4; stroke-opacity:1; fill:none" points="624.284,1423.18 624.284,1404.28 "/>
<polyline clip-path="url(#clip480)" style="stroke:#000000; stroke-linecap:round; stroke-linejoin:round; stroke-width:4; stroke-opacity:1; fill:none" points="1021.63,1423.18 1021.63,1404.28 "/>
<polyline clip-path="url(#clip480)" style="stroke:#000000; stroke-linecap:round; stroke-linejoin:round; stroke-width:4; stroke-opacity:1; fill:none" points="1418.98,1423.18 1418.98,1404.28 "/>
<polyline clip-path="url(#clip480)" style="stroke:#000000; stroke-linecap:round; stroke-linejoin:round; stroke-width:4; stroke-opacity:1; fill:none" points="1816.33,1423.18 1816.33,1404.28 "/>
<polyline clip-path="url(#clip480)" style="stroke:#000000; stroke-linecap:round; stroke-linejoin:round; stroke-width:4; stroke-opacity:1; fill:none" points="2213.68,1423.18 2213.68,1404.28 "/>
<path clip-path="url(#clip480)" d="M614.562 1451.02 L632.918 1451.02 L632.918 1454.96 L618.844 1454.96 L618.844 1463.43 Q619.863 1463.08 620.881 1462.92 Q621.9 1462.73 622.918 1462.73 Q628.705 1462.73 632.085 1465.9 Q635.465 1469.08 635.465 1474.49 Q635.465 1480.07 631.993 1483.17 Q628.52 1486.25 622.201 1486.25 Q620.025 1486.25 617.756 1485.88 Q615.511 1485.51 613.104 1484.77 L613.104 1480.07 Q615.187 1481.2 617.409 1481.76 Q619.631 1482.32 622.108 1482.32 Q626.113 1482.32 628.451 1480.21 Q630.789 1478.1 630.789 1474.49 Q630.789 1470.88 628.451 1468.77 Q626.113 1466.67 622.108 1466.67 Q620.233 1466.67 618.358 1467.08 Q616.506 1467.5 614.562 1468.38 L614.562 1451.02 Z" fill="#000000" fill-rule="nonzero" fill-opacity="1" /><path clip-path="url(#clip480)" d="M996.322 1481.64 L1003.96 1481.64 L1003.96 1455.28 L995.65 1456.95 L995.65 1452.69 L1003.91 1451.02 L1008.59 1451.02 L1008.59 1481.64 L1016.23 1481.64 L1016.23 1485.58 L996.322 1485.58 L996.322 1481.64 Z" fill="#000000" fill-rule="nonzero" fill-opacity="1" /><path clip-path="url(#clip480)" d="M1035.67 1454.1 Q1032.06 1454.1 1030.23 1457.66 Q1028.43 1461.2 1028.43 1468.33 Q1028.43 1475.44 1030.23 1479.01 Q1032.06 1482.55 1035.67 1482.55 Q1039.31 1482.55 1041.11 1479.01 Q1042.94 1475.44 1042.94 1468.33 Q1042.94 1461.2 1041.11 1457.66 Q1039.31 1454.1 1035.67 1454.1 M1035.67 1450.39 Q1041.48 1450.39 1044.54 1455 Q1047.62 1459.58 1047.62 1468.33 Q1047.62 1477.06 1044.54 1481.67 Q1041.48 1486.25 1035.67 1486.25 Q1029.86 1486.25 1026.78 1481.67 Q1023.73 1477.06 1023.73 1468.33 Q1023.73 1459.58 1026.78 1455 Q1029.86 1450.39 1035.67 1450.39 Z" fill="#000000" fill-rule="nonzero" fill-opacity="1" /><path clip-path="url(#clip480)" d="M1394.17 1481.64 L1401.81 1481.64 L1401.81 1455.28 L1393.5 1456.95 L1393.5 1452.69 L1401.76 1451.02 L1406.44 1451.02 L1406.44 1481.64 L1414.08 1481.64 L1414.08 1485.58 L1394.17 1485.58 L1394.17 1481.64 Z" fill="#000000" fill-rule="nonzero" fill-opacity="1" /><path clip-path="url(#clip480)" d="M1423.57 1451.02 L1441.92 1451.02 L1441.92 1454.96 L1427.85 1454.96 L1427.85 1463.43 Q1428.87 1463.08 1429.89 1462.92 Q1430.91 1462.73 1431.92 1462.73 Q1437.71 1462.73 1441.09 1465.9 Q1444.47 1469.08 1444.47 1474.49 Q1444.47 1480.07 1441 1483.17 Q1437.53 1486.25 1431.21 1486.25 Q1429.03 1486.25 1426.76 1485.88 Q1424.52 1485.51 1422.11 1484.77 L1422.11 1480.07 Q1424.19 1481.2 1426.41 1481.76 Q1428.64 1482.32 1431.11 1482.32 Q1435.12 1482.32 1437.46 1480.21 Q1439.79 1478.1 1439.79 1474.49 Q1439.79 1470.88 1437.46 1468.77 Q1435.12 1466.67 1431.11 1466.67 Q1429.24 1466.67 1427.36 1467.08 Q1425.51 1467.5 1423.57 1468.38 L1423.57 1451.02 Z" fill="#000000" fill-rule="nonzero" fill-opacity="1" /><path clip-path="url(#clip480)" d="M1795.11 1481.64 L1811.43 1481.64 L1811.43 1485.58 L1789.48 1485.58 L1789.48 1481.64 Q1792.14 1478.89 1796.73 1474.26 Q1801.33 1469.61 1802.51 1468.27 Q1804.76 1465.74 1805.64 1464.01 Q1806.54 1462.25 1806.54 1460.56 Q1806.54 1457.8 1804.6 1456.07 Q1802.68 1454.33 1799.57 1454.33 Q1797.38 1454.33 1794.92 1455.09 Q1792.49 1455.86 1789.71 1457.41 L1789.71 1452.69 Q1792.54 1451.55 1794.99 1450.97 Q1797.44 1450.39 1799.48 1450.39 Q1804.85 1450.39 1808.05 1453.08 Q1811.24 1455.77 1811.24 1460.26 Q1811.24 1462.39 1810.43 1464.31 Q1809.64 1466.2 1807.54 1468.8 Q1806.96 1469.47 1803.86 1472.69 Q1800.76 1475.88 1795.11 1481.64 Z" fill="#000000" fill-rule="nonzero" fill-opacity="1" /><path clip-path="url(#clip480)" d="M1831.24 1454.1 Q1827.63 1454.1 1825.8 1457.66 Q1824 1461.2 1824 1468.33 Q1824 1475.44 1825.8 1479.01 Q1827.63 1482.55 1831.24 1482.55 Q1834.88 1482.55 1836.68 1479.01 Q1838.51 1475.44 1838.51 1468.33 Q1838.51 1461.2 1836.68 1457.66 Q1834.88 1454.1 1831.24 1454.1 M1831.24 1450.39 Q1837.05 1450.39 1840.11 1455 Q1843.19 1459.58 1843.19 1468.33 Q1843.19 1477.06 1840.11 1481.67 Q1837.05 1486.25 1831.24 1486.25 Q1825.43 1486.25 1822.35 1481.67 Q1819.3 1477.06 1819.3 1468.33 Q1819.3 1459.58 1822.35 1455 Q1825.43 1450.39 1831.24 1450.39 Z" fill="#000000" fill-rule="nonzero" fill-opacity="1" /><path clip-path="url(#clip480)" d="M2192.95 1481.64 L2209.27 1481.64 L2209.27 1485.58 L2187.33 1485.58 L2187.33 1481.64 Q2189.99 1478.89 2194.57 1474.26 Q2199.18 1469.61 2200.36 1468.27 Q2202.61 1465.74 2203.49 1464.01 Q2204.39 1462.25 2204.39 1460.56 Q2204.39 1457.8 2202.45 1456.07 Q2200.52 1454.33 2197.42 1454.33 Q2195.22 1454.33 2192.77 1455.09 Q2190.34 1455.86 2187.56 1457.41 L2187.56 1452.69 Q2190.38 1451.55 2192.84 1450.97 Q2195.29 1450.39 2197.33 1450.39 Q2202.7 1450.39 2205.89 1453.08 Q2209.09 1455.77 2209.09 1460.26 Q2209.09 1462.39 2208.28 1464.31 Q2207.49 1466.2 2205.38 1468.8 Q2204.81 1469.47 2201.7 1472.69 Q2198.6 1475.88 2192.95 1481.64 Z" fill="#000000" fill-rule="nonzero" fill-opacity="1" /><path clip-path="url(#clip480)" d="M2219.13 1451.02 L2237.49 1451.02 L2237.49 1454.96 L2223.42 1454.96 L2223.42 1463.43 Q2224.44 1463.08 2225.45 1462.92 Q2226.47 1462.73 2227.49 1462.73 Q2233.28 1462.73 2236.66 1465.9 Q2240.04 1469.08 2240.04 1474.49 Q2240.04 1480.07 2236.57 1483.17 Q2233.09 1486.25 2226.77 1486.25 Q2224.6 1486.25 2222.33 1485.88 Q2220.08 1485.51 2217.68 1484.77 L2217.68 1480.07 Q2219.76 1481.2 2221.98 1481.76 Q2224.2 1482.32 2226.68 1482.32 Q2230.69 1482.32 2233.02 1480.21 Q2235.36 1478.1 2235.36 1474.49 Q2235.36 1470.88 2233.02 1468.77 Q2230.69 1466.67 2226.68 1466.67 Q2224.81 1466.67 2222.93 1467.08 Q2221.08 1467.5 2219.13 1468.38 L2219.13 1451.02 Z" fill="#000000" fill-rule="nonzero" fill-opacity="1" /><path clip-path="url(#clip480)" d="M1283.96 1518.52 L1289.85 1518.52 L1289.85 1547.77 L1307.32 1532.4 L1314.8 1532.4 L1295.9 1549.07 L1315.6 1568.04 L1307.96 1568.04 L1289.85 1550.63 L1289.85 1568.04 L1283.96 1568.04 L1283.96 1518.52 Z" fill="#000000" fill-rule="nonzero" fill-opacity="1" /><polyline clip-path="url(#clip482)" style="stroke:#000000; stroke-linecap:round; stroke-linejoin:round; stroke-width:2; stroke-opacity:0.1; fill:none" points="246.802,957.819 2352.76,957.819 "/>
<polyline clip-path="url(#clip482)" style="stroke:#000000; stroke-linecap:round; stroke-linejoin:round; stroke-width:2; stroke-opacity:0.1; fill:none" points="246.802,442.307 2352.76,442.307 "/>
<polyline clip-path="url(#clip480)" style="stroke:#000000; stroke-linecap:round; stroke-linejoin:round; stroke-width:4; stroke-opacity:1; fill:none" points="246.802,1423.18 246.802,123.472 "/>
<polyline clip-path="url(#clip480)" style="stroke:#000000; stroke-linecap:round; stroke-linejoin:round; stroke-width:4; stroke-opacity:1; fill:none" points="246.802,957.819 265.7,957.819 "/>
<polyline clip-path="url(#clip480)" style="stroke:#000000; stroke-linecap:round; stroke-linejoin:round; stroke-width:4; stroke-opacity:1; fill:none" points="246.802,442.307 265.7,442.307 "/>
<path clip-path="url(#clip480)" d="M115.872 977.612 L123.511 977.612 L123.511 951.246 L115.201 952.913 L115.201 948.654 L123.464 946.987 L128.14 946.987 L128.14 977.612 L135.779 977.612 L135.779 981.547 L115.872 981.547 L115.872 977.612 Z" fill="#000000" fill-rule="nonzero" fill-opacity="1" /><path clip-path="url(#clip480)" d="M155.223 950.066 Q151.612 950.066 149.784 953.631 Q147.978 957.172 147.978 964.302 Q147.978 971.408 149.784 974.973 Q151.612 978.515 155.223 978.515 Q158.858 978.515 160.663 974.973 Q162.492 971.408 162.492 964.302 Q162.492 957.172 160.663 953.631 Q158.858 950.066 155.223 950.066 M155.223 946.362 Q161.034 946.362 164.089 950.969 Q167.168 955.552 167.168 964.302 Q167.168 973.029 164.089 977.635 Q161.034 982.218 155.223 982.218 Q149.413 982.218 146.335 977.635 Q143.279 973.029 143.279 964.302 Q143.279 955.552 146.335 950.969 Q149.413 946.362 155.223 946.362 Z" fill="#000000" fill-rule="nonzero" fill-opacity="1" /><path clip-path="url(#clip480)" d="M171.738 950.939 L184.998 950.939 L184.998 954.137 L167.168 954.137 L167.168 950.939 Q169.331 948.701 173.055 944.94 Q176.797 941.159 177.757 940.068 Q179.581 938.018 180.296 936.608 Q181.029 935.178 181.029 933.805 Q181.029 931.567 179.449 930.157 Q177.888 928.746 175.368 928.746 Q173.581 928.746 171.588 929.367 Q169.613 929.987 167.356 931.248 L167.356 927.411 Q169.65 926.489 171.644 926.019 Q173.638 925.549 175.293 925.549 Q179.656 925.549 182.252 927.731 Q184.847 929.912 184.847 933.561 Q184.847 935.291 184.189 936.852 Q183.549 938.395 181.838 940.501 Q181.368 941.046 178.847 943.661 Q176.327 946.256 171.738 950.939 Z" fill="#000000" fill-rule="nonzero" fill-opacity="1" /><path clip-path="url(#clip480)" d="M201.097 928.558 Q198.163 928.558 196.677 931.454 Q195.21 934.332 195.21 940.125 Q195.21 945.899 196.677 948.795 Q198.163 951.673 201.097 951.673 Q204.05 951.673 205.517 948.795 Q207.003 945.899 207.003 940.125 Q207.003 934.332 205.517 931.454 Q204.05 928.558 201.097 928.558 M201.097 925.549 Q205.818 925.549 208.3 929.292 Q210.802 933.016 210.802 940.125 Q210.802 947.215 208.3 950.958 Q205.818 954.682 201.097 954.682 Q196.376 954.682 193.875 950.958 Q191.392 947.215 191.392 940.125 Q191.392 933.016 193.875 929.292 Q196.376 925.549 201.097 925.549 Z" fill="#000000" fill-rule="nonzero" fill-opacity="1" /><path clip-path="url(#clip480)" d="M114.931 462.1 L122.57 462.1 L122.57 435.734 L114.26 437.401 L114.26 433.141 L122.524 431.475 L127.2 431.475 L127.2 462.1 L134.839 462.1 L134.839 466.035 L114.931 466.035 L114.931 462.1 Z" fill="#000000" fill-rule="nonzero" fill-opacity="1" /><path clip-path="url(#clip480)" d="M154.283 434.553 Q150.672 434.553 148.843 438.118 Q147.038 441.66 147.038 448.789 Q147.038 455.896 148.843 459.461 Q150.672 463.002 154.283 463.002 Q157.917 463.002 159.723 459.461 Q161.552 455.896 161.552 448.789 Q161.552 441.66 159.723 438.118 Q157.917 434.553 154.283 434.553 M154.283 430.85 Q160.093 430.85 163.149 435.456 Q166.227 440.04 166.227 448.789 Q166.227 457.516 163.149 462.123 Q160.093 466.706 154.283 466.706 Q148.473 466.706 145.394 462.123 Q142.339 457.516 142.339 448.789 Q142.339 440.04 145.394 435.456 Q148.473 430.85 154.283 430.85 Z" fill="#000000" fill-rule="nonzero" fill-opacity="1" /><path clip-path="url(#clip480)" d="M178.904 413.855 L169.312 428.844 L178.904 428.844 L178.904 413.855 M177.907 410.544 L182.684 410.544 L182.684 428.844 L186.69 428.844 L186.69 432.004 L182.684 432.004 L182.684 438.624 L178.904 438.624 L178.904 432.004 L166.227 432.004 L166.227 428.337 L177.907 410.544 Z" fill="#000000" fill-rule="nonzero" fill-opacity="1" /><path clip-path="url(#clip480)" d="M201.097 413.046 Q198.163 413.046 196.677 415.942 Q195.21 418.82 195.21 424.613 Q195.21 430.387 196.677 433.283 Q198.163 436.161 201.097 436.161 Q204.05 436.161 205.517 433.283 Q207.003 430.387 207.003 424.613 Q207.003 418.82 205.517 415.942 Q204.05 413.046 201.097 413.046 M201.097 410.037 Q205.818 410.037 208.3 413.779 Q210.802 417.503 210.802 424.613 Q210.802 431.703 208.3 435.446 Q205.818 439.17 201.097 439.17 Q196.376 439.17 193.875 435.446 Q191.392 431.703 191.392 424.613 Q191.392 417.503 193.875 413.779 Q196.376 410.037 201.097 410.037 Z" fill="#000000" fill-rule="nonzero" fill-opacity="1" /><path clip-path="url(#clip480)" d="M45.7664 817.313 Q39.4007 817.313 35.8996 819.955 Q32.3984 822.565 32.3984 827.307 Q32.3984 832.018 35.8996 834.66 Q39.4007 837.27 45.7664 837.27 Q52.1003 837.27 55.6014 834.66 Q59.1026 832.018 59.1026 827.307 Q59.1026 822.565 55.6014 819.955 Q52.1003 817.313 45.7664 817.313 M59.58 811.457 Q68.683 811.457 73.1071 815.499 Q77.5631 819.541 77.5631 827.88 Q77.5631 830.967 77.0857 833.705 Q76.6401 836.442 75.6852 839.02 L69.9879 839.02 Q71.3884 836.442 72.0568 833.928 Q72.7252 831.413 72.7252 828.803 Q72.7252 823.042 69.7015 820.178 Q66.7096 817.313 60.6303 817.313 L57.7339 817.313 Q60.885 819.127 62.4446 821.96 Q64.0042 824.793 64.0042 828.739 Q64.0042 835.296 59.0071 839.307 Q54.01 843.317 45.7664 843.317 Q37.491 843.317 32.4939 839.307 Q27.4968 835.296 27.4968 828.739 Q27.4968 824.793 29.0564 821.96 Q30.616 819.127 33.7671 817.313 L28.3562 817.313 L28.3562 811.457 L59.58 811.457 Z" fill="#000000" fill-rule="nonzero" fill-opacity="1" /><path clip-path="url(#clip480)" d="M33.8307 778.737 Q33.2578 779.724 33.0032 780.901 Q32.7167 782.047 32.7167 783.447 Q32.7167 788.413 35.9632 791.086 Q39.1779 793.728 45.2253 793.728 L64.0042 793.728 L64.0042 799.616 L28.3562 799.616 L28.3562 793.728 L33.8944 793.728 Q30.6479 791.882 29.0883 788.922 Q27.4968 785.962 27.4968 781.729 Q27.4968 781.124 27.5923 780.392 Q27.656 779.66 27.8151 778.769 L33.8307 778.737 Z" fill="#000000" fill-rule="nonzero" fill-opacity="1" /><path clip-path="url(#clip480)" d="M46.0847 756.393 Q46.0847 763.491 47.7079 766.228 Q49.3312 768.965 53.2461 768.965 Q56.3653 768.965 58.2114 766.928 Q60.0256 764.86 60.0256 761.327 Q60.0256 756.457 56.5881 753.529 Q53.1188 750.569 47.3897 750.569 L46.0847 750.569 L46.0847 756.393 M43.6657 744.712 L64.0042 744.712 L64.0042 750.569 L58.5933 750.569 Q61.8398 752.574 63.3994 755.566 Q64.9272 758.558 64.9272 762.886 Q64.9272 768.361 61.8716 771.607 Q58.7843 774.822 53.6281 774.822 Q47.6125 774.822 44.5569 770.812 Q41.5014 766.769 41.5014 758.78 L41.5014 750.569 L40.9285 750.569 Q36.8862 750.569 34.6901 753.242 Q32.4621 755.884 32.4621 760.69 Q32.4621 763.746 33.1941 766.642 Q33.9262 769.538 35.3903 772.212 L29.9795 772.212 Q28.7381 768.997 28.1334 765.974 Q27.4968 762.95 27.4968 760.085 Q27.4968 752.351 31.5072 748.532 Q35.5176 744.712 43.6657 744.712 Z" fill="#000000" fill-rule="nonzero" fill-opacity="1" /><path clip-path="url(#clip480)" d="M33.7671 709.191 L14.479 709.191 L14.479 703.335 L64.0042 703.335 L64.0042 709.191 L58.657 709.191 Q61.8398 711.038 63.3994 713.87 Q64.9272 716.671 64.9272 720.618 Q64.9272 727.079 59.771 731.153 Q54.6147 735.195 46.212 735.195 Q37.8093 735.195 32.6531 731.153 Q27.4968 727.079 27.4968 720.618 Q27.4968 716.671 29.0564 713.87 Q30.5842 711.038 33.7671 709.191 M46.212 729.148 Q52.6732 729.148 56.3653 726.506 Q60.0256 723.833 60.0256 719.186 Q60.0256 714.539 56.3653 711.865 Q52.6732 709.191 46.212 709.191 Q39.7508 709.191 36.0905 711.865 Q32.3984 714.539 32.3984 719.186 Q32.3984 723.833 36.0905 726.506 Q39.7508 729.148 46.212 729.148 Z" fill="#000000" fill-rule="nonzero" fill-opacity="1" /><path clip-path="url(#clip480)" d="M716.226 65.7705 L716.226 89.8329 L708.732 89.8329 L708.732 27.2059 L716.226 27.2059 L716.226 34.0924 Q718.575 30.0415 722.14 28.0971 Q725.746 26.1121 730.728 26.1121 Q738.992 26.1121 744.137 32.6746 Q749.322 39.2371 749.322 49.9314 Q749.322 60.6258 744.137 67.1883 Q738.992 73.7508 730.728 73.7508 Q725.746 73.7508 722.14 71.8063 Q718.575 69.8214 716.226 65.7705 M741.585 49.9314 Q741.585 41.7081 738.182 37.0496 Q734.82 32.3505 728.905 32.3505 Q722.991 32.3505 719.588 37.0496 Q716.226 41.7081 716.226 49.9314 Q716.226 58.1548 719.588 62.8538 Q722.991 67.5124 728.905 67.5124 Q734.82 67.5124 738.182 62.8538 Q741.585 58.1548 741.585 49.9314 Z" fill="#000000" fill-rule="nonzero" fill-opacity="1" /><path clip-path="url(#clip480)" d="M787.967 34.1734 Q786.712 33.4443 785.213 33.1202 Q783.754 32.7556 781.972 32.7556 Q775.653 32.7556 772.25 36.8875 Q768.888 40.9789 768.888 48.6757 L768.888 72.576 L761.393 72.576 L761.393 27.2059 L768.888 27.2059 L768.888 34.2544 Q771.237 30.1225 775.005 28.1376 Q778.772 26.1121 784.16 26.1121 Q784.929 26.1121 785.861 26.2337 Q786.793 26.3147 787.927 26.5172 L787.967 34.1734 Z" fill="#000000" fill-rule="nonzero" fill-opacity="1" /><path clip-path="url(#clip480)" d="M811.544 32.4315 Q805.548 32.4315 802.065 37.1306 Q798.581 41.7891 798.581 49.9314 Q798.581 58.0738 802.024 62.7728 Q805.508 67.4314 811.544 67.4314 Q817.498 67.4314 820.982 62.7323 Q824.466 58.0333 824.466 49.9314 Q824.466 41.8701 820.982 37.1711 Q817.498 32.4315 811.544 32.4315 M811.544 26.1121 Q821.266 26.1121 826.816 32.4315 Q832.365 38.7509 832.365 49.9314 Q832.365 61.0714 826.816 67.4314 Q821.266 73.7508 811.544 73.7508 Q801.781 73.7508 796.231 67.4314 Q790.722 61.0714 790.722 49.9314 Q790.722 38.7509 796.231 32.4315 Q801.781 26.1121 811.544 26.1121 Z" fill="#000000" fill-rule="nonzero" fill-opacity="1" /><path clip-path="url(#clip480)" d="M877.29 49.9314 Q877.29 41.7081 873.887 37.0496 Q870.525 32.3505 864.611 32.3505 Q858.696 32.3505 855.293 37.0496 Q851.931 41.7081 851.931 49.9314 Q851.931 58.1548 855.293 62.8538 Q858.696 67.5124 864.611 67.5124 Q870.525 67.5124 873.887 62.8538 Q877.29 58.1548 877.29 49.9314 M851.931 34.0924 Q854.281 30.0415 857.845 28.0971 Q861.451 26.1121 866.433 26.1121 Q874.697 26.1121 879.842 32.6746 Q885.027 39.2371 885.027 49.9314 Q885.027 60.6258 879.842 67.1883 Q874.697 73.7508 866.433 73.7508 Q861.451 73.7508 857.845 71.8063 Q854.281 69.8214 851.931 65.7705 L851.931 72.576 L844.437 72.576 L844.437 9.54393 L851.931 9.54393 L851.931 34.0924 Z" fill="#000000" fill-rule="nonzero" fill-opacity="1" /><path clip-path="url(#clip480)" d="M897.382 9.54393 L904.836 9.54393 L904.836 72.576 L897.382 72.576 L897.382 9.54393 Z" fill="#000000" fill-rule="nonzero" fill-opacity="1" /><path clip-path="url(#clip480)" d="M959.24 48.0275 L959.24 51.6733 L924.969 51.6733 Q925.455 59.3701 929.587 63.421 Q933.759 67.4314 941.173 67.4314 Q945.467 67.4314 949.477 66.3781 Q953.528 65.3249 957.498 63.2184 L957.498 70.267 Q953.487 71.9684 949.274 72.8596 Q945.061 73.7508 940.727 73.7508 Q929.871 73.7508 923.511 67.4314 Q917.191 61.1119 917.191 50.3365 Q917.191 39.1965 923.187 32.6746 Q929.222 26.1121 939.431 26.1121 Q948.586 26.1121 953.892 32.0264 Q959.24 37.9003 959.24 48.0275 M951.786 45.84 Q951.705 39.7232 948.343 36.0774 Q945.021 32.4315 939.512 32.4315 Q933.273 32.4315 929.506 35.9558 Q925.779 39.4801 925.212 45.8805 L951.786 45.84 M933.111 6.22219 L944.535 21.3726 L938.337 21.3726 L925.131 6.22219 L933.111 6.22219 Z" fill="#000000" fill-rule="nonzero" fill-opacity="1" /><path clip-path="url(#clip480)" d="M1006.8 35.9153 Q1009.59 30.8922 1013.48 28.5022 Q1017.37 26.1121 1022.64 26.1121 Q1029.73 26.1121 1033.57 31.0947 Q1037.42 36.0368 1037.42 45.1919 L1037.42 72.576 L1029.93 72.576 L1029.93 45.4349 Q1029.93 38.913 1027.62 35.7533 Q1025.31 32.5936 1020.57 32.5936 Q1014.78 32.5936 1011.42 36.4419 Q1008.05 40.2903 1008.05 46.9338 L1008.05 72.576 L1000.56 72.576 L1000.56 45.4349 Q1000.56 38.8725 998.25 35.7533 Q995.941 32.5936 991.12 32.5936 Q985.408 32.5936 982.046 36.4824 Q978.684 40.3308 978.684 46.9338 L978.684 72.576 L971.19 72.576 L971.19 27.2059 L978.684 27.2059 L978.684 34.2544 Q981.236 30.082 984.801 28.0971 Q988.366 26.1121 993.267 26.1121 Q998.209 26.1121 1001.65 28.6237 Q1005.14 31.1352 1006.8 35.9153 Z" fill="#000000" fill-rule="nonzero" fill-opacity="1" /><path clip-path="url(#clip480)" d="M1091.1 48.0275 L1091.1 51.6733 L1056.83 51.6733 Q1057.31 59.3701 1061.44 63.421 Q1065.62 67.4314 1073.03 67.4314 Q1077.32 67.4314 1081.33 66.3781 Q1085.38 65.3249 1089.35 63.2184 L1089.35 70.267 Q1085.34 71.9684 1081.13 72.8596 Q1076.92 73.7508 1072.58 73.7508 Q1061.73 73.7508 1055.37 67.4314 Q1049.05 61.1119 1049.05 50.3365 Q1049.05 39.1965 1055.04 32.6746 Q1061.08 26.1121 1071.29 26.1121 Q1080.44 26.1121 1085.75 32.0264 Q1091.1 37.9003 1091.1 48.0275 M1083.64 45.84 Q1083.56 39.7232 1080.2 36.0774 Q1076.88 32.4315 1071.37 32.4315 Q1065.13 32.4315 1061.36 35.9558 Q1057.64 39.4801 1057.07 45.8805 L1083.64 45.84 Z" fill="#000000" fill-rule="nonzero" fill-opacity="1" /><path clip-path="url(#clip480)" d="M1131.61 62.2867 L1140.15 62.2867 L1140.15 72.576 L1131.61 72.576 L1131.61 62.2867 M1131.61 29.6769 L1140.15 29.6769 L1140.15 39.9662 L1131.61 39.9662 L1131.61 29.6769 Z" fill="#000000" fill-rule="nonzero" fill-opacity="1" /><path clip-path="url(#clip480)" d="M1191.23 65.7705 L1191.23 89.8329 L1183.74 89.8329 L1183.74 27.2059 L1191.23 27.2059 L1191.23 34.0924 Q1193.58 30.0415 1197.15 28.0971 Q1200.75 26.1121 1205.74 26.1121 Q1214 26.1121 1219.15 32.6746 Q1224.33 39.2371 1224.33 49.9314 Q1224.33 60.6258 1219.15 67.1883 Q1214 73.7508 1205.74 73.7508 Q1200.75 73.7508 1197.15 71.8063 Q1193.58 69.8214 1191.23 65.7705 M1216.59 49.9314 Q1216.59 41.7081 1213.19 37.0496 Q1209.83 32.3505 1203.91 32.3505 Q1198 32.3505 1194.6 37.0496 Q1191.23 41.7081 1191.23 49.9314 Q1191.23 58.1548 1194.6 62.8538 Q1198 67.5124 1203.91 67.5124 Q1209.83 67.5124 1213.19 62.8538 Q1216.59 58.1548 1216.59 49.9314 Z" fill="#000000" fill-rule="nonzero" fill-opacity="1" /><path clip-path="url(#clip480)" d="M1262.98 34.1734 Q1261.72 33.4443 1260.22 33.1202 Q1258.76 32.7556 1256.98 32.7556 Q1250.66 32.7556 1247.26 36.8875 Q1243.9 40.9789 1243.9 48.6757 L1243.9 72.576 L1236.4 72.576 L1236.4 27.2059 L1243.9 27.2059 L1243.9 34.2544 Q1246.25 30.1225 1250.01 28.1376 Q1253.78 26.1121 1259.17 26.1121 Q1259.94 26.1121 1260.87 26.2337 Q1261.8 26.3147 1262.94 26.5172 L1262.98 34.1734 Z" fill="#000000" fill-rule="nonzero" fill-opacity="1" /><path clip-path="url(#clip480)" d="M1286.55 32.4315 Q1280.56 32.4315 1277.07 37.1306 Q1273.59 41.7891 1273.59 49.9314 Q1273.59 58.0738 1277.03 62.7728 Q1280.52 67.4314 1286.55 67.4314 Q1292.51 67.4314 1295.99 62.7323 Q1299.48 58.0333 1299.48 49.9314 Q1299.48 41.8701 1295.99 37.1711 Q1292.51 32.4315 1286.55 32.4315 M1286.55 26.1121 Q1296.27 26.1121 1301.82 32.4315 Q1307.37 38.7509 1307.37 49.9314 Q1307.37 61.0714 1301.82 67.4314 Q1296.27 73.7508 1286.55 73.7508 Q1276.79 73.7508 1271.24 67.4314 Q1265.73 61.0714 1265.73 49.9314 Q1265.73 38.7509 1271.24 32.4315 Q1276.79 26.1121 1286.55 26.1121 Z" fill="#000000" fill-rule="nonzero" fill-opacity="1" /><path clip-path="url(#clip480)" d="M1352.3 49.9314 Q1352.3 41.7081 1348.9 37.0496 Q1345.53 32.3505 1339.62 32.3505 Q1333.71 32.3505 1330.3 37.0496 Q1326.94 41.7081 1326.94 49.9314 Q1326.94 58.1548 1330.3 62.8538 Q1333.71 67.5124 1339.62 67.5124 Q1345.53 67.5124 1348.9 62.8538 Q1352.3 58.1548 1352.3 49.9314 M1326.94 34.0924 Q1329.29 30.0415 1332.85 28.0971 Q1336.46 26.1121 1341.44 26.1121 Q1349.71 26.1121 1354.85 32.6746 Q1360.04 39.2371 1360.04 49.9314 Q1360.04 60.6258 1354.85 67.1883 Q1349.71 73.7508 1341.44 73.7508 Q1336.46 73.7508 1332.85 71.8063 Q1329.29 69.8214 1326.94 65.7705 L1326.94 72.576 L1319.45 72.576 L1319.45 9.54393 L1326.94 9.54393 L1326.94 34.0924 Z" fill="#000000" fill-rule="nonzero" fill-opacity="1" /><path clip-path="url(#clip480)" d="M1372.39 9.54393 L1379.85 9.54393 L1379.85 72.576 L1372.39 72.576 L1372.39 9.54393 Z" fill="#000000" fill-rule="nonzero" fill-opacity="1" /><path clip-path="url(#clip480)" d="M1434.25 48.0275 L1434.25 51.6733 L1399.98 51.6733 Q1400.46 59.3701 1404.6 63.421 Q1408.77 67.4314 1416.18 67.4314 Q1420.48 67.4314 1424.49 66.3781 Q1428.54 65.3249 1432.51 63.2184 L1432.51 70.267 Q1428.5 71.9684 1424.28 72.8596 Q1420.07 73.7508 1415.74 73.7508 Q1404.88 73.7508 1398.52 67.4314 Q1392.2 61.1119 1392.2 50.3365 Q1392.2 39.1965 1398.2 32.6746 Q1404.23 26.1121 1414.44 26.1121 Q1423.59 26.1121 1428.9 32.0264 Q1434.25 37.9003 1434.25 48.0275 M1426.79 45.84 Q1426.71 39.7232 1423.35 36.0774 Q1420.03 32.4315 1414.52 32.4315 Q1408.28 32.4315 1404.52 35.9558 Q1400.79 39.4801 1400.22 45.8805 L1426.79 45.84 Z" fill="#000000" fill-rule="nonzero" fill-opacity="1" /><path clip-path="url(#clip480)" d="M1481.81 35.9153 Q1484.6 30.8922 1488.49 28.5022 Q1492.38 26.1121 1497.65 26.1121 Q1504.73 26.1121 1508.58 31.0947 Q1512.43 36.0368 1512.43 45.1919 L1512.43 72.576 L1504.94 72.576 L1504.94 45.4349 Q1504.94 38.913 1502.63 35.7533 Q1500.32 32.5936 1495.58 32.5936 Q1489.79 32.5936 1486.42 36.4419 Q1483.06 40.2903 1483.06 46.9338 L1483.06 72.576 L1475.57 72.576 L1475.57 45.4349 Q1475.57 38.8725 1473.26 35.7533 Q1470.95 32.5936 1466.13 32.5936 Q1460.42 32.5936 1457.06 36.4824 Q1453.69 40.3308 1453.69 46.9338 L1453.69 72.576 L1446.2 72.576 L1446.2 27.2059 L1453.69 27.2059 L1453.69 34.2544 Q1456.25 30.082 1459.81 28.0971 Q1463.37 26.1121 1468.28 26.1121 Q1473.22 26.1121 1476.66 28.6237 Q1480.15 31.1352 1481.81 35.9153 Z" fill="#000000" fill-rule="nonzero" fill-opacity="1" /><path clip-path="url(#clip480)" d="M1523.53 46.5287 L1545.36 46.5287 L1545.36 53.1722 L1523.53 53.1722 L1523.53 46.5287 Z" fill="#000000" fill-rule="nonzero" fill-opacity="1" /><path clip-path="url(#clip480)" d="M1580.77 19.2256 L1560.11 51.5113 L1580.77 51.5113 L1580.77 19.2256 M1578.62 12.096 L1588.91 12.096 L1588.91 51.5113 L1597.54 51.5113 L1597.54 58.3168 L1588.91 58.3168 L1588.91 72.576 L1580.77 72.576 L1580.77 58.3168 L1553.47 58.3168 L1553.47 50.4176 L1578.62 12.096 Z" fill="#000000" fill-rule="nonzero" fill-opacity="1" /><path clip-path="url(#clip480)" d="M1611.31 71.3202 L1611.31 63.8666 Q1614.39 65.3249 1617.55 66.0946 Q1620.71 66.8642 1623.75 66.8642 Q1631.85 66.8642 1636.11 61.436 Q1640.4 55.9673 1641.01 44.8678 Q1638.66 48.3516 1635.05 50.215 Q1631.45 52.0784 1627.07 52.0784 Q1618 52.0784 1612.69 46.6097 Q1607.42 41.1005 1607.42 31.5808 Q1607.42 22.2638 1612.93 16.633 Q1618.44 11.0023 1627.6 11.0023 Q1638.09 11.0023 1643.6 19.0636 Q1649.15 27.0843 1649.15 42.3968 Q1649.15 56.6965 1642.34 65.2439 Q1635.58 73.7508 1624.11 73.7508 Q1621.04 73.7508 1617.88 73.1431 Q1614.72 72.5355 1611.31 71.3202 M1627.6 45.678 Q1633.11 45.678 1636.31 41.9107 Q1639.55 38.1433 1639.55 31.5808 Q1639.55 25.0589 1636.31 21.2916 Q1633.11 17.4837 1627.6 17.4837 Q1622.09 17.4837 1618.85 21.2916 Q1615.65 25.0589 1615.65 31.5808 Q1615.65 38.1433 1618.85 41.9107 Q1622.09 45.678 1627.6 45.678 Z" fill="#000000" fill-rule="nonzero" fill-opacity="1" /><path clip-path="url(#clip480)" d="M1659.03 46.5287 L1680.87 46.5287 L1680.87 53.1722 L1659.03 53.1722 L1659.03 46.5287 Z" fill="#000000" fill-rule="nonzero" fill-opacity="1" /><path clip-path="url(#clip480)" d="M1691.72 12.096 L1730.61 12.096 L1730.61 15.5798 L1708.66 72.576 L1700.11 72.576 L1720.77 18.9825 L1691.72 18.9825 L1691.72 12.096 Z" fill="#000000" fill-rule="nonzero" fill-opacity="1" /><path clip-path="url(#clip480)" d="M1744.51 12.096 L1783.4 12.096 L1783.4 15.5798 L1761.44 72.576 L1752.89 72.576 L1773.55 18.9825 L1744.51 18.9825 L1744.51 12.096 Z" fill="#000000" fill-rule="nonzero" fill-opacity="1" /><path clip-path="url(#clip480)" d="M1797.29 12.096 L1836.18 12.096 L1836.18 15.5798 L1814.22 72.576 L1805.68 72.576 L1826.34 18.9825 L1797.29 18.9825 L1797.29 12.096 Z" fill="#000000" fill-rule="nonzero" fill-opacity="1" /><path clip-path="url(#clip480)" d="M1870.65 39.075 Q1865.14 39.075 1861.9 42.8424 Q1858.7 46.6097 1858.7 53.1722 Q1858.7 59.6941 1861.9 63.502 Q1865.14 67.2693 1870.65 67.2693 Q1876.16 67.2693 1879.36 63.502 Q1882.6 59.6941 1882.6 53.1722 Q1882.6 46.6097 1879.36 42.8424 Q1876.16 39.075 1870.65 39.075 M1886.9 13.4328 L1886.9 20.8865 Q1883.82 19.4281 1880.66 18.6585 Q1877.54 17.8888 1874.46 17.8888 Q1866.36 17.8888 1862.06 23.3575 Q1857.81 28.8262 1857.2 39.8852 Q1859.59 36.3609 1863.2 34.4975 Q1866.8 32.5936 1871.14 32.5936 Q1880.25 32.5936 1885.52 38.1433 Q1890.83 43.6525 1890.83 53.1722 Q1890.83 62.4892 1885.32 68.12 Q1879.81 73.7508 1870.65 73.7508 Q1860.16 73.7508 1854.61 65.73 Q1849.06 57.6687 1849.06 42.3968 Q1849.06 28.0566 1855.87 19.5497 Q1862.67 11.0023 1874.14 11.0023 Q1877.22 11.0023 1880.33 11.6099 Q1883.49 12.2175 1886.9 13.4328 Z" fill="#000000" fill-rule="nonzero" fill-opacity="1" /><polyline clip-path="url(#clip482)" style="stroke:#009af9; stroke-linecap:round; stroke-linejoin:round; stroke-width:4; stroke-opacity:1; fill:none" points="306.404,1283.12 385.874,1150.17 465.344,160.256 544.814,182.707 624.284,182.707 703.754,182.707 783.224,182.707 862.694,182.707 942.164,182.707 1021.63,182.707 1101.1,182.707 1180.57,182.707 1260.04,182.707 1339.51,182.707 1418.98,182.707 1498.45,182.707 1577.92,182.707 1657.39,182.707 1736.86,182.707 1816.33,182.707 1895.8,182.707 1975.27,182.707 2054.74,182.707 2134.21,182.707 2213.68,182.707 2293.15,182.707 "/>
<polyline clip-path="url(#clip482)" style="stroke:#e26f46; stroke-linecap:round; stroke-linejoin:round; stroke-width:4; stroke-opacity:1; fill:none" points="306.404,1283.12 385.874,1283.12 465.344,1247.79 544.814,1267.5 624.284,1309 703.754,1300.08 783.224,1332.39 862.694,1355.12 942.164,1381.52 1021.63,1384.7 1101.1,1385.35 1180.57,1385.68 1260.04,1386.04 1339.51,1386.23 1418.98,1386.4 "/>
<polyline clip-path="url(#clip482)" style="stroke:#3da44d; stroke-linecap:round; stroke-linejoin:round; stroke-width:4; stroke-opacity:1; fill:none" points="306.404,1283.12 385.874,1150.17 465.344,160.256 544.814,182.707 624.284,182.707 703.754,182.707 783.224,182.707 862.694,182.707 942.164,182.707 1021.63,182.707 1101.1,182.707 1180.57,182.707 1260.04,182.707 1339.51,182.707 1418.98,182.707 1498.45,182.707 1577.92,182.707 1657.39,182.707 1736.86,182.707 1816.33,182.707 1895.8,182.707 1975.27,182.707 2054.74,182.707 2134.21,182.707 "/>
<polyline clip-path="url(#clip482)" style="stroke:#c271d2; stroke-linecap:round; stroke-linejoin:round; stroke-width:4; stroke-opacity:1; fill:none" points="306.404,1283.12 385.874,1283.12 465.344,1247.79 544.814,1247.79 624.284,1247.79 703.754,1247.79 783.224,1247.79 862.694,1247.79 942.164,1247.79 1021.63,1247.79 1101.1,1247.79 1180.57,1247.79 1260.04,1247.79 1339.51,1219.51 1418.98,1236.98 1498.45,1274.96 1577.92,1312.89 "/>
<polyline clip-path="url(#clip482)" style="stroke:#ac8d18; stroke-linecap:round; stroke-linejoin:round; stroke-width:4; stroke-opacity:1; fill:none" points="306.404,1283.12 385.874,1283.12 465.344,1283.12 544.814,1283.12 624.284,1283.12 703.754,1283.12 783.224,1283.12 862.694,1283.12 942.164,1283.12 1021.63,1289.11 1101.1,1299.69 1180.57,1314.33 1260.04,1297.05 1339.51,1305.51 1418.98,1325.1 1498.45,1322.02 1577.92,1315.51 1657.39,1320.46 1736.86,1309.63 "/>
<path clip-path="url(#clip480)" d="M1748.86 477.836 L2282.56 477.836 L2282.56 166.796 L1748.86 166.796  Z" fill="#ffffff" fill-rule="evenodd" fill-opacity="1"/>
<polyline clip-path="url(#clip480)" style="stroke:#000000; stroke-linecap:round; stroke-linejoin:round; stroke-width:4; stroke-opacity:1; fill:none" points="1748.86,477.836 2282.56,477.836 2282.56,166.796 1748.86,166.796 1748.86,477.836 "/>
<polyline clip-path="url(#clip480)" style="stroke:#009af9; stroke-linecap:round; stroke-linejoin:round; stroke-width:4; stroke-opacity:1; fill:none" points="1772.26,218.636 1912.66,218.636 "/>
<path clip-path="url(#clip480)" d="M1936.06 201.356 L1940.73 201.356 L1940.73 231.981 L1957.56 231.981 L1957.56 235.916 L1936.06 235.916 L1936.06 201.356 Z" fill="#000000" fill-rule="nonzero" fill-opacity="1" /><path clip-path="url(#clip480)" d="M1962.47 201.356 L1969.44 201.356 L1978.26 224.874 L1987.12 201.356 L1994.09 201.356 L1994.09 235.916 L1989.53 235.916 L1989.53 205.569 L1980.62 229.272 L1975.92 229.272 L1967.01 205.569 L1967.01 235.916 L1962.47 235.916 L1962.47 201.356 Z" fill="#000000" fill-rule="nonzero" fill-opacity="1" /><path clip-path="url(#clip480)" d="M2022.89 243.786 L2022.89 247.096 L1998.26 247.096 L1998.26 243.786 L2022.89 243.786 Z" fill="#000000" fill-rule="nonzero" fill-opacity="1" /><path clip-path="url(#clip480)" d="M2047.79 202.49 L2047.79 207.05 Q2045.13 205.777 2042.77 205.152 Q2040.41 204.527 2038.21 204.527 Q2034.39 204.527 2032.31 206.008 Q2030.25 207.49 2030.25 210.221 Q2030.25 212.513 2031.61 213.694 Q2033 214.851 2036.84 215.569 L2039.67 216.147 Q2044.9 217.143 2047.38 219.666 Q2049.88 222.166 2049.88 226.379 Q2049.88 231.402 2046.5 233.994 Q2043.14 236.587 2036.64 236.587 Q2034.18 236.587 2031.4 236.031 Q2028.65 235.476 2025.69 234.388 L2025.69 229.573 Q2028.53 231.17 2031.27 231.981 Q2034 232.791 2036.64 232.791 Q2040.64 232.791 2042.82 231.217 Q2044.99 229.643 2044.99 226.726 Q2044.99 224.18 2043.42 222.744 Q2041.87 221.309 2038.3 220.592 L2035.46 220.036 Q2030.22 218.995 2027.89 216.772 Q2025.55 214.55 2025.55 210.592 Q2025.55 206.008 2028.77 203.37 Q2032.01 200.731 2037.68 200.731 Q2040.11 200.731 2042.63 201.171 Q2045.15 201.61 2047.79 202.49 Z" fill="#000000" fill-rule="nonzero" fill-opacity="1" /><path clip-path="url(#clip480)" d="M2061.84 205.198 L2061.84 218.184 L2067.72 218.184 Q2070.99 218.184 2072.77 216.495 Q2074.55 214.805 2074.55 211.68 Q2074.55 208.578 2072.77 206.888 Q2070.99 205.198 2067.72 205.198 L2061.84 205.198 M2057.17 201.356 L2067.72 201.356 Q2073.53 201.356 2076.5 203.995 Q2079.48 206.61 2079.48 211.68 Q2079.48 216.795 2076.5 219.411 Q2073.53 222.027 2067.72 222.027 L2061.84 222.027 L2061.84 235.916 L2057.17 235.916 L2057.17 201.356 Z" fill="#000000" fill-rule="nonzero" fill-opacity="1" /><path clip-path="url(#clip480)" d="M2109.32 230.985 L2109.32 221.703 L2101.68 221.703 L2101.68 217.86 L2113.95 217.86 L2113.95 232.698 Q2111.24 234.619 2107.98 235.615 Q2104.71 236.587 2101.01 236.587 Q2092.91 236.587 2088.33 231.865 Q2083.77 227.119 2083.77 218.67 Q2083.77 210.198 2088.33 205.476 Q2092.91 200.731 2101.01 200.731 Q2104.39 200.731 2107.42 201.564 Q2110.48 202.397 2113.05 204.018 L2113.05 208.995 Q2110.46 206.796 2107.54 205.684 Q2104.62 204.573 2101.4 204.573 Q2095.06 204.573 2091.87 208.115 Q2088.7 211.657 2088.7 218.67 Q2088.7 225.661 2091.87 229.203 Q2095.06 232.744 2101.4 232.744 Q2103.88 232.744 2105.83 232.328 Q2107.77 231.888 2109.32 230.985 Z" fill="#000000" fill-rule="nonzero" fill-opacity="1" /><polyline clip-path="url(#clip480)" style="stroke:#e26f46; stroke-linecap:round; stroke-linejoin:round; stroke-width:4; stroke-opacity:1; fill:none" points="1772.26,270.476 1912.66,270.476 "/>
<path clip-path="url(#clip480)" d="M1936.06 253.196 L1940.73 253.196 L1940.73 283.821 L1957.56 283.821 L1957.56 287.756 L1936.06 287.756 L1936.06 253.196 Z" fill="#000000" fill-rule="nonzero" fill-opacity="1" /><path clip-path="url(#clip480)" d="M1962.47 253.196 L1969.44 253.196 L1978.26 276.714 L1987.12 253.196 L1994.09 253.196 L1994.09 287.756 L1989.53 287.756 L1989.53 257.409 L1980.62 281.112 L1975.92 281.112 L1967.01 257.409 L1967.01 287.756 L1962.47 287.756 L1962.47 253.196 Z" fill="#000000" fill-rule="nonzero" fill-opacity="1" /><path clip-path="url(#clip480)" d="M2022.89 295.626 L2022.89 298.936 L1998.26 298.936 L1998.26 295.626 L2022.89 295.626 Z" fill="#000000" fill-rule="nonzero" fill-opacity="1" /><path clip-path="url(#clip480)" d="M2038.63 257.802 L2032.28 275.001 L2044.99 275.001 L2038.63 257.802 M2035.99 253.196 L2041.29 253.196 L2054.46 287.756 L2049.6 287.756 L2046.45 278.89 L2030.87 278.89 L2027.72 287.756 L2022.79 287.756 L2035.99 253.196 Z" fill="#000000" fill-rule="nonzero" fill-opacity="1" /><path clip-path="url(#clip480)" d="M2080.87 272.108 L2080.87 287.756 L2076.61 287.756 L2076.61 272.247 Q2076.61 268.566 2075.18 266.737 Q2073.74 264.909 2070.87 264.909 Q2067.42 264.909 2065.43 267.108 Q2063.44 269.307 2063.44 273.103 L2063.44 287.756 L2059.16 287.756 L2059.16 261.83 L2063.44 261.83 L2063.44 265.858 Q2064.97 263.52 2067.03 262.362 Q2069.11 261.205 2071.82 261.205 Q2076.29 261.205 2078.58 263.983 Q2080.87 266.737 2080.87 272.108 Z" fill="#000000" fill-rule="nonzero" fill-opacity="1" /><path clip-path="url(#clip480)" d="M2106.43 265.765 L2106.43 251.737 L2110.69 251.737 L2110.69 287.756 L2106.43 287.756 L2106.43 283.867 Q2105.08 286.182 2103.02 287.316 Q2100.99 288.427 2098.12 288.427 Q2093.42 288.427 2090.46 284.677 Q2087.52 280.927 2087.52 274.816 Q2087.52 268.705 2090.46 264.955 Q2093.42 261.205 2098.12 261.205 Q2100.99 261.205 2103.02 262.339 Q2105.08 263.45 2106.43 265.765 M2091.91 274.816 Q2091.91 279.515 2093.83 282.2 Q2095.78 284.862 2099.16 284.862 Q2102.54 284.862 2104.48 282.2 Q2106.43 279.515 2106.43 274.816 Q2106.43 270.117 2104.48 267.455 Q2102.54 264.77 2099.16 264.77 Q2095.78 264.77 2093.83 267.455 Q2091.91 270.117 2091.91 274.816 Z" fill="#000000" fill-rule="nonzero" fill-opacity="1" /><path clip-path="url(#clip480)" d="M2134.48 265.811 Q2133.77 265.395 2132.91 265.21 Q2132.08 265.001 2131.06 265.001 Q2127.45 265.001 2125.5 267.362 Q2123.58 269.7 2123.58 274.098 L2123.58 287.756 L2119.3 287.756 L2119.3 261.83 L2123.58 261.83 L2123.58 265.858 Q2124.92 263.497 2127.08 262.362 Q2129.23 261.205 2132.31 261.205 Q2132.75 261.205 2133.28 261.274 Q2133.81 261.321 2134.46 261.436 L2134.48 265.811 Z" fill="#000000" fill-rule="nonzero" fill-opacity="1" /><path clip-path="url(#clip480)" d="M2160.08 273.728 L2160.08 275.811 L2140.5 275.811 Q2140.78 280.209 2143.14 282.524 Q2145.52 284.816 2149.76 284.816 Q2152.21 284.816 2154.51 284.214 Q2156.82 283.612 2159.09 282.409 L2159.09 286.436 Q2156.8 287.408 2154.39 287.918 Q2151.98 288.427 2149.51 288.427 Q2143.3 288.427 2139.67 284.816 Q2136.06 281.205 2136.06 275.047 Q2136.06 268.682 2139.48 264.955 Q2142.93 261.205 2148.77 261.205 Q2154 261.205 2157.03 264.585 Q2160.08 267.941 2160.08 273.728 M2155.83 272.478 Q2155.78 268.983 2153.86 266.899 Q2151.96 264.816 2148.81 264.816 Q2145.25 264.816 2143.09 266.83 Q2140.96 268.844 2140.64 272.501 L2155.83 272.478 Z" fill="#000000" fill-rule="nonzero" fill-opacity="1" /><path clip-path="url(#clip480)" d="M2167.08 261.83 L2171.33 261.83 L2171.33 287.756 L2167.08 287.756 L2167.08 261.83 M2167.08 251.737 L2171.33 251.737 L2171.33 257.131 L2167.08 257.131 L2167.08 251.737 Z" fill="#000000" fill-rule="nonzero" fill-opacity="1" /><path clip-path="url(#clip480)" d="M2199.95 295.626 L2199.95 298.936 L2175.32 298.936 L2175.32 295.626 L2199.95 295.626 Z" fill="#000000" fill-rule="nonzero" fill-opacity="1" /><path clip-path="url(#clip480)" d="M2215.73 274.723 Q2210.57 274.723 2208.58 275.904 Q2206.59 277.084 2206.59 279.932 Q2206.59 282.2 2208.07 283.543 Q2209.57 284.862 2212.14 284.862 Q2215.69 284.862 2217.82 282.362 Q2219.97 279.839 2219.97 275.672 L2219.97 274.723 L2215.73 274.723 M2224.23 272.964 L2224.23 287.756 L2219.97 287.756 L2219.97 283.821 Q2218.51 286.182 2216.33 287.316 Q2214.16 288.427 2211.01 288.427 Q2207.03 288.427 2204.67 286.205 Q2202.33 283.959 2202.33 280.209 Q2202.33 275.834 2205.25 273.612 Q2208.19 271.39 2214 271.39 L2219.97 271.39 L2219.97 270.973 Q2219.97 268.034 2218.02 266.436 Q2216.1 264.816 2212.61 264.816 Q2210.39 264.816 2208.28 265.348 Q2206.17 265.881 2204.23 266.946 L2204.23 263.01 Q2206.57 262.108 2208.76 261.668 Q2210.96 261.205 2213.05 261.205 Q2218.67 261.205 2221.45 264.122 Q2224.23 267.038 2224.23 272.964 Z" fill="#000000" fill-rule="nonzero" fill-opacity="1" /><path clip-path="url(#clip480)" d="M2233 251.737 L2237.26 251.737 L2237.26 287.756 L2233 287.756 L2233 251.737 Z" fill="#000000" fill-rule="nonzero" fill-opacity="1" /><path clip-path="url(#clip480)" d="M2250.38 254.469 L2250.38 261.83 L2259.16 261.83 L2259.16 265.14 L2250.38 265.14 L2250.38 279.214 Q2250.38 282.385 2251.24 283.288 Q2252.12 284.191 2254.78 284.191 L2259.16 284.191 L2259.16 287.756 L2254.78 287.756 Q2249.85 287.756 2247.98 285.927 Q2246.1 284.075 2246.1 279.214 L2246.1 265.14 L2242.98 265.14 L2242.98 261.83 L2246.1 261.83 L2246.1 254.469 L2250.38 254.469 Z" fill="#000000" fill-rule="nonzero" fill-opacity="1" /><polyline clip-path="url(#clip480)" style="stroke:#3da44d; stroke-linecap:round; stroke-linejoin:round; stroke-width:4; stroke-opacity:1; fill:none" points="1772.26,322.316 1912.66,322.316 "/>
<path clip-path="url(#clip480)" d="M1936.06 305.036 L1940.73 305.036 L1940.73 335.661 L1957.56 335.661 L1957.56 339.596 L1936.06 339.596 L1936.06 305.036 Z" fill="#000000" fill-rule="nonzero" fill-opacity="1" /><path clip-path="url(#clip480)" d="M1962.47 305.036 L1969.44 305.036 L1978.26 328.554 L1987.12 305.036 L1994.09 305.036 L1994.09 339.596 L1989.53 339.596 L1989.53 309.249 L1980.62 332.952 L1975.92 332.952 L1967.01 309.249 L1967.01 339.596 L1962.47 339.596 L1962.47 305.036 Z" fill="#000000" fill-rule="nonzero" fill-opacity="1" /><path clip-path="url(#clip480)" d="M2022.89 347.466 L2022.89 350.776 L1998.26 350.776 L1998.26 347.466 L2022.89 347.466 Z" fill="#000000" fill-rule="nonzero" fill-opacity="1" /><path clip-path="url(#clip480)" d="M2038.63 309.642 L2032.28 326.841 L2044.99 326.841 L2038.63 309.642 M2035.99 305.036 L2041.29 305.036 L2054.46 339.596 L2049.6 339.596 L2046.45 330.73 L2030.87 330.73 L2027.72 339.596 L2022.79 339.596 L2035.99 305.036 Z" fill="#000000" fill-rule="nonzero" fill-opacity="1" /><path clip-path="url(#clip480)" d="M2080.87 323.948 L2080.87 339.596 L2076.61 339.596 L2076.61 324.087 Q2076.61 320.406 2075.18 318.577 Q2073.74 316.749 2070.87 316.749 Q2067.42 316.749 2065.43 318.948 Q2063.44 321.147 2063.44 324.943 L2063.44 339.596 L2059.16 339.596 L2059.16 313.67 L2063.44 313.67 L2063.44 317.698 Q2064.97 315.36 2067.03 314.202 Q2069.11 313.045 2071.82 313.045 Q2076.29 313.045 2078.58 315.823 Q2080.87 318.577 2080.87 323.948 Z" fill="#000000" fill-rule="nonzero" fill-opacity="1" /><path clip-path="url(#clip480)" d="M2106.43 317.605 L2106.43 303.577 L2110.69 303.577 L2110.69 339.596 L2106.43 339.596 L2106.43 335.707 Q2105.08 338.022 2103.02 339.156 Q2100.99 340.267 2098.12 340.267 Q2093.42 340.267 2090.46 336.517 Q2087.52 332.767 2087.52 326.656 Q2087.52 320.545 2090.46 316.795 Q2093.42 313.045 2098.12 313.045 Q2100.99 313.045 2103.02 314.179 Q2105.08 315.29 2106.43 317.605 M2091.91 326.656 Q2091.91 331.355 2093.83 334.04 Q2095.78 336.702 2099.16 336.702 Q2102.54 336.702 2104.48 334.04 Q2106.43 331.355 2106.43 326.656 Q2106.43 321.957 2104.48 319.295 Q2102.54 316.61 2099.16 316.61 Q2095.78 316.61 2093.83 319.295 Q2091.91 321.957 2091.91 326.656 Z" fill="#000000" fill-rule="nonzero" fill-opacity="1" /><path clip-path="url(#clip480)" d="M2134.48 317.651 Q2133.77 317.235 2132.91 317.05 Q2132.08 316.841 2131.06 316.841 Q2127.45 316.841 2125.5 319.202 Q2123.58 321.54 2123.58 325.938 L2123.58 339.596 L2119.3 339.596 L2119.3 313.67 L2123.58 313.67 L2123.58 317.698 Q2124.92 315.337 2127.08 314.202 Q2129.23 313.045 2132.31 313.045 Q2132.75 313.045 2133.28 313.114 Q2133.81 313.161 2134.46 313.276 L2134.48 317.651 Z" fill="#000000" fill-rule="nonzero" fill-opacity="1" /><path clip-path="url(#clip480)" d="M2160.08 325.568 L2160.08 327.651 L2140.5 327.651 Q2140.78 332.049 2143.14 334.364 Q2145.52 336.656 2149.76 336.656 Q2152.21 336.656 2154.51 336.054 Q2156.82 335.452 2159.09 334.249 L2159.09 338.276 Q2156.8 339.248 2154.39 339.758 Q2151.98 340.267 2149.51 340.267 Q2143.3 340.267 2139.67 336.656 Q2136.06 333.045 2136.06 326.887 Q2136.06 320.522 2139.48 316.795 Q2142.93 313.045 2148.77 313.045 Q2154 313.045 2157.03 316.425 Q2160.08 319.781 2160.08 325.568 M2155.83 324.318 Q2155.78 320.823 2153.86 318.739 Q2151.96 316.656 2148.81 316.656 Q2145.25 316.656 2143.09 318.67 Q2140.96 320.684 2140.64 324.341 L2155.83 324.318 Z" fill="#000000" fill-rule="nonzero" fill-opacity="1" /><path clip-path="url(#clip480)" d="M2167.08 313.67 L2171.33 313.67 L2171.33 339.596 L2167.08 339.596 L2167.08 313.67 M2167.08 303.577 L2171.33 303.577 L2171.33 308.971 L2167.08 308.971 L2167.08 303.577 Z" fill="#000000" fill-rule="nonzero" fill-opacity="1" /><polyline clip-path="url(#clip480)" style="stroke:#c271d2; stroke-linecap:round; stroke-linejoin:round; stroke-width:4; stroke-opacity:1; fill:none" points="1772.26,374.156 1912.66,374.156 "/>
<path clip-path="url(#clip480)" d="M1936.06 356.876 L1940.73 356.876 L1940.73 387.501 L1957.56 387.501 L1957.56 391.436 L1936.06 391.436 L1936.06 356.876 Z" fill="#000000" fill-rule="nonzero" fill-opacity="1" /><path clip-path="url(#clip480)" d="M1962.47 356.876 L1969.44 356.876 L1978.26 380.394 L1987.12 356.876 L1994.09 356.876 L1994.09 391.436 L1989.53 391.436 L1989.53 361.089 L1980.62 384.792 L1975.92 384.792 L1967.01 361.089 L1967.01 391.436 L1962.47 391.436 L1962.47 356.876 Z" fill="#000000" fill-rule="nonzero" fill-opacity="1" /><path clip-path="url(#clip480)" d="M2022.89 399.306 L2022.89 402.616 L1998.26 402.616 L1998.26 399.306 L2022.89 399.306 Z" fill="#000000" fill-rule="nonzero" fill-opacity="1" /><path clip-path="url(#clip480)" d="M2047.79 358.01 L2047.79 362.57 Q2045.13 361.297 2042.77 360.672 Q2040.41 360.047 2038.21 360.047 Q2034.39 360.047 2032.31 361.528 Q2030.25 363.01 2030.25 365.741 Q2030.25 368.033 2031.61 369.214 Q2033 370.371 2036.84 371.089 L2039.67 371.667 Q2044.9 372.663 2047.38 375.186 Q2049.88 377.686 2049.88 381.899 Q2049.88 386.922 2046.5 389.514 Q2043.14 392.107 2036.64 392.107 Q2034.18 392.107 2031.4 391.551 Q2028.65 390.996 2025.69 389.908 L2025.69 385.093 Q2028.53 386.69 2031.27 387.501 Q2034 388.311 2036.64 388.311 Q2040.64 388.311 2042.82 386.737 Q2044.99 385.163 2044.99 382.246 Q2044.99 379.7 2043.42 378.264 Q2041.87 376.829 2038.3 376.112 L2035.46 375.556 Q2030.22 374.515 2027.89 372.292 Q2025.55 370.07 2025.55 366.112 Q2025.55 361.528 2028.77 358.89 Q2032.01 356.251 2037.68 356.251 Q2040.11 356.251 2042.63 356.691 Q2045.15 357.13 2047.79 358.01 Z" fill="#000000" fill-rule="nonzero" fill-opacity="1" /><path clip-path="url(#clip480)" d="M2061.84 360.718 L2061.84 373.704 L2067.72 373.704 Q2070.99 373.704 2072.77 372.015 Q2074.55 370.325 2074.55 367.2 Q2074.55 364.098 2072.77 362.408 Q2070.99 360.718 2067.72 360.718 L2061.84 360.718 M2057.17 356.876 L2067.72 356.876 Q2073.53 356.876 2076.5 359.515 Q2079.48 362.13 2079.48 367.2 Q2079.48 372.315 2076.5 374.931 Q2073.53 377.547 2067.72 377.547 L2061.84 377.547 L2061.84 391.436 L2057.17 391.436 L2057.17 356.876 Z" fill="#000000" fill-rule="nonzero" fill-opacity="1" /><path clip-path="url(#clip480)" d="M2109.32 386.505 L2109.32 377.223 L2101.68 377.223 L2101.68 373.38 L2113.95 373.38 L2113.95 388.218 Q2111.24 390.139 2107.98 391.135 Q2104.71 392.107 2101.01 392.107 Q2092.91 392.107 2088.33 387.385 Q2083.77 382.639 2083.77 374.19 Q2083.77 365.718 2088.33 360.996 Q2092.91 356.251 2101.01 356.251 Q2104.39 356.251 2107.42 357.084 Q2110.48 357.917 2113.05 359.538 L2113.05 364.515 Q2110.46 362.316 2107.54 361.204 Q2104.62 360.093 2101.4 360.093 Q2095.06 360.093 2091.87 363.635 Q2088.7 367.177 2088.7 374.19 Q2088.7 381.181 2091.87 384.723 Q2095.06 388.264 2101.4 388.264 Q2103.88 388.264 2105.83 387.848 Q2107.77 387.408 2109.32 386.505 Z" fill="#000000" fill-rule="nonzero" fill-opacity="1" /><path clip-path="url(#clip480)" d="M2142.01 399.306 L2142.01 402.616 L2117.38 402.616 L2117.38 399.306 L2142.01 399.306 Z" fill="#000000" fill-rule="nonzero" fill-opacity="1" /><path clip-path="url(#clip480)" d="M2157.79 378.403 Q2152.63 378.403 2150.64 379.584 Q2148.65 380.764 2148.65 383.612 Q2148.65 385.88 2150.13 387.223 Q2151.64 388.542 2154.2 388.542 Q2157.75 388.542 2159.88 386.042 Q2162.03 383.519 2162.03 379.352 L2162.03 378.403 L2157.79 378.403 M2166.29 376.644 L2166.29 391.436 L2162.03 391.436 L2162.03 387.501 Q2160.57 389.862 2158.39 390.996 Q2156.22 392.107 2153.07 392.107 Q2149.09 392.107 2146.73 389.885 Q2144.39 387.639 2144.39 383.889 Q2144.39 379.514 2147.31 377.292 Q2150.25 375.07 2156.06 375.07 L2162.03 375.07 L2162.03 374.653 Q2162.03 371.714 2160.08 370.116 Q2158.16 368.496 2154.67 368.496 Q2152.45 368.496 2150.34 369.028 Q2148.23 369.561 2146.29 370.626 L2146.29 366.69 Q2148.63 365.788 2150.83 365.348 Q2153.02 364.885 2155.11 364.885 Q2160.73 364.885 2163.51 367.802 Q2166.29 370.718 2166.29 376.644 Z" fill="#000000" fill-rule="nonzero" fill-opacity="1" /><path clip-path="url(#clip480)" d="M2175.06 355.417 L2179.32 355.417 L2179.32 391.436 L2175.06 391.436 L2175.06 355.417 Z" fill="#000000" fill-rule="nonzero" fill-opacity="1" /><path clip-path="url(#clip480)" d="M2192.45 358.149 L2192.45 365.51 L2201.22 365.51 L2201.22 368.82 L2192.45 368.82 L2192.45 382.894 Q2192.45 386.065 2193.3 386.968 Q2194.18 387.871 2196.84 387.871 L2201.22 387.871 L2201.22 391.436 L2196.84 391.436 Q2191.91 391.436 2190.04 389.607 Q2188.16 387.755 2188.16 382.894 L2188.16 368.82 L2185.04 368.82 L2185.04 365.51 L2188.16 365.51 L2188.16 358.149 L2192.45 358.149 Z" fill="#000000" fill-rule="nonzero" fill-opacity="1" /><polyline clip-path="url(#clip480)" style="stroke:#ac8d18; stroke-linecap:round; stroke-linejoin:round; stroke-width:4; stroke-opacity:1; fill:none" points="1772.26,425.996 1912.66,425.996 "/>
<path clip-path="url(#clip480)" d="M1936.06 408.716 L1940.73 408.716 L1940.73 439.341 L1957.56 439.341 L1957.56 443.276 L1936.06 443.276 L1936.06 408.716 Z" fill="#000000" fill-rule="nonzero" fill-opacity="1" /><path clip-path="url(#clip480)" d="M1962.47 408.716 L1969.44 408.716 L1978.26 432.234 L1987.12 408.716 L1994.09 408.716 L1994.09 443.276 L1989.53 443.276 L1989.53 412.929 L1980.62 436.632 L1975.92 436.632 L1967.01 412.929 L1967.01 443.276 L1962.47 443.276 L1962.47 408.716 Z" fill="#000000" fill-rule="nonzero" fill-opacity="1" /></svg>
