<?xml version="1.0" encoding="utf-8"?>
<svg xmlns="http://www.w3.org/2000/svg" xmlns:xlink="http://www.w3.org/1999/xlink" width="600" height="400" viewBox="0 0 2400 1600">
<defs>
  <clipPath id="clip450">
    <rect x="0" y="0" width="2400" height="1600"/>
  </clipPath>
</defs>
<path clip-path="url(#clip450)" d="M0 1600 L2400 1600 L2400 0 L0 0  Z" fill="#ffffff" fill-rule="evenodd" fill-opacity="1"/>
<defs>
  <clipPath id="clip451">
    <rect x="480" y="0" width="1681" height="1600"/>
  </clipPath>
</defs>
<path clip-path="url(#clip450)" d="M251.56 1423.18 L2352.76 1423.18 L2352.76 123.472 L251.56 123.472  Z" fill="#ffffff" fill-rule="evenodd" fill-opacity="1"/>
<defs>
  <clipPath id="clip452">
    <rect x="251" y="123" width="2102" height="1301"/>
  </clipPath>
</defs>
<polyline clip-path="url(#clip452)" style="stroke:#000000; stroke-linecap:round; stroke-linejoin:round; stroke-width:2; stroke-opacity:0.1; fill:none" points="311.028,1423.18 311.028,123.472 "/>
<polyline clip-path="url(#clip452)" style="stroke:#000000; stroke-linecap:round; stroke-linejoin:round; stroke-width:2; stroke-opacity:0.1; fill:none" points="707.48,1423.18 707.48,123.472 "/>
<polyline clip-path="url(#clip452)" style="stroke:#000000; stroke-linecap:round; stroke-linejoin:round; stroke-width:2; stroke-opacity:0.1; fill:none" points="1103.93,1423.18 1103.93,123.472 "/>
<polyline clip-path="url(#clip452)" style="stroke:#000000; stroke-linecap:round; stroke-linejoin:round; stroke-width:2; stroke-opacity:0.1; fill:none" points="1500.38,1423.18 1500.38,123.472 "/>
<polyline clip-path="url(#clip452)" style="stroke:#000000; stroke-linecap:round; stroke-linejoin:round; stroke-width:2; stroke-opacity:0.1; fill:none" points="1896.84,1423.18 1896.84,123.472 "/>
<polyline clip-path="url(#clip452)" style="stroke:#000000; stroke-linecap:round; stroke-linejoin:round; stroke-width:2; stroke-opacity:0.1; fill:none" points="2293.29,1423.18 2293.29,123.472 "/>
<polyline clip-path="url(#clip450)" style="stroke:#000000; stroke-linecap:round; stroke-linejoin:round; stroke-width:4; stroke-opacity:1; fill:none" points="251.56,1423.18 2352.76,1423.18 "/>
<polyline clip-path="url(#clip450)" style="stroke:#000000; stroke-linecap:round; stroke-linejoin:round; stroke-width:4; stroke-opacity:1; fill:none" points="311.028,1423.18 311.028,1404.28 "/>
<polyline clip-path="url(#clip450)" style="stroke:#000000; stroke-linecap:round; stroke-linejoin:round; stroke-width:4; stroke-opacity:1; fill:none" points="707.48,1423.18 707.48,1404.28 "/>
<polyline clip-path="url(#clip450)" style="stroke:#000000; stroke-linecap:round; stroke-linejoin:round; stroke-width:4; stroke-opacity:1; fill:none" points="1103.93,1423.18 1103.93,1404.28 "/>
<polyline clip-path="url(#clip450)" style="stroke:#000000; stroke-linecap:round; stroke-linejoin:round; stroke-width:4; stroke-opacity:1; fill:none" points="1500.38,1423.18 1500.38,1404.28 "/>
<polyline clip-path="url(#clip450)" style="stroke:#000000; stroke-linecap:round; stroke-linejoin:round; stroke-width:4; stroke-opacity:1; fill:none" points="1896.84,1423.18 1896.84,1404.28 "/>
<polyline clip-path="url(#clip450)" style="stroke:#000000; stroke-linecap:round; stroke-linejoin:round; stroke-width:4; stroke-opacity:1; fill:none" points="2293.29,1423.18 2293.29,1404.28 "/>
<path clip-path="url(#clip450)" d="M301.41 1481.64 L309.049 1481.64 L309.049 1455.28 L300.739 1456.95 L300.739 1452.69 L309.003 1451.02 L313.679 1451.02 L313.679 1481.64 L321.317 1481.64 L321.317 1485.58 L301.41 1485.58 L301.41 1481.64 Z" fill="#000000" fill-rule="nonzero" fill-opacity="1" /><path clip-path="url(#clip450)" d="M702.133 1481.64 L718.452 1481.64 L718.452 1485.58 L696.508 1485.58 L696.508 1481.64 Q699.17 1478.89 703.753 1474.26 Q708.36 1469.61 709.54 1468.27 Q711.786 1465.74 712.665 1464.01 Q713.568 1462.25 713.568 1460.56 Q713.568 1457.8 711.624 1456.07 Q709.702 1454.33 706.6 1454.33 Q704.401 1454.33 701.948 1455.09 Q699.517 1455.86 696.739 1457.41 L696.739 1452.69 Q699.563 1451.55 702.017 1450.97 Q704.471 1450.39 706.508 1450.39 Q711.878 1450.39 715.073 1453.08 Q718.267 1455.77 718.267 1460.26 Q718.267 1462.39 717.457 1464.31 Q716.67 1466.2 714.563 1468.8 Q713.985 1469.47 710.883 1472.69 Q707.781 1475.88 702.133 1481.64 Z" fill="#000000" fill-rule="nonzero" fill-opacity="1" /><path clip-path="url(#clip450)" d="M1108.18 1466.95 Q1111.54 1467.66 1113.41 1469.93 Q1115.31 1472.2 1115.31 1475.53 Q1115.31 1480.65 1111.79 1483.45 Q1108.27 1486.25 1101.79 1486.25 Q1099.61 1486.25 1097.3 1485.81 Q1095.01 1485.39 1092.55 1484.54 L1092.55 1480.02 Q1094.5 1481.16 1096.81 1481.74 Q1099.13 1482.32 1101.65 1482.32 Q1106.05 1482.32 1108.34 1480.58 Q1110.66 1478.84 1110.66 1475.53 Q1110.66 1472.48 1108.5 1470.77 Q1106.37 1469.03 1102.55 1469.03 L1098.53 1469.03 L1098.53 1465.19 L1102.74 1465.19 Q1106.19 1465.19 1108.02 1463.82 Q1109.85 1462.43 1109.85 1459.84 Q1109.85 1457.18 1107.95 1455.77 Q1106.07 1454.33 1102.55 1454.33 Q1100.63 1454.33 1098.43 1454.75 Q1096.24 1455.16 1093.6 1456.04 L1093.6 1451.88 Q1096.26 1451.14 1098.57 1450.77 Q1100.91 1450.39 1102.97 1450.39 Q1108.3 1450.39 1111.4 1452.83 Q1114.5 1455.23 1114.5 1459.35 Q1114.5 1462.22 1112.86 1464.21 Q1111.21 1466.18 1108.18 1466.95 Z" fill="#000000" fill-rule="nonzero" fill-opacity="1" /><path clip-path="url(#clip450)" d="M1503.39 1455.09 L1491.59 1473.54 L1503.39 1473.54 L1503.39 1455.09 M1502.17 1451.02 L1508.05 1451.02 L1508.05 1473.54 L1512.98 1473.54 L1512.98 1477.43 L1508.05 1477.43 L1508.05 1485.58 L1503.39 1485.58 L1503.39 1477.43 L1487.79 1477.43 L1487.79 1472.92 L1502.17 1451.02 Z" fill="#000000" fill-rule="nonzero" fill-opacity="1" /><path clip-path="url(#clip450)" d="M1887.11 1451.02 L1905.47 1451.02 L1905.47 1454.96 L1891.4 1454.96 L1891.4 1463.43 Q1892.41 1463.08 1893.43 1462.92 Q1894.45 1462.73 1895.47 1462.73 Q1901.26 1462.73 1904.64 1465.9 Q1908.02 1469.08 1908.02 1474.49 Q1908.02 1480.07 1904.54 1483.17 Q1901.07 1486.25 1894.75 1486.25 Q1892.58 1486.25 1890.31 1485.88 Q1888.06 1485.51 1885.66 1484.77 L1885.66 1480.07 Q1887.74 1481.2 1889.96 1481.76 Q1892.18 1482.32 1894.66 1482.32 Q1898.66 1482.32 1901 1480.21 Q1903.34 1478.1 1903.34 1474.49 Q1903.34 1470.88 1901 1468.77 Q1898.66 1466.67 1894.66 1466.67 Q1892.79 1466.67 1890.91 1467.08 Q1889.06 1467.5 1887.11 1468.38 L1887.11 1451.02 Z" fill="#000000" fill-rule="nonzero" fill-opacity="1" /><path clip-path="url(#clip450)" d="M2293.69 1466.44 Q2290.55 1466.44 2288.69 1468.59 Q2286.86 1470.74 2286.86 1474.49 Q2286.86 1478.22 2288.69 1480.39 Q2290.55 1482.55 2293.69 1482.55 Q2296.84 1482.55 2298.67 1480.39 Q2300.52 1478.22 2300.52 1474.49 Q2300.52 1470.74 2298.67 1468.59 Q2296.84 1466.44 2293.69 1466.44 M2302.98 1451.78 L2302.98 1456.04 Q2301.22 1455.21 2299.41 1454.77 Q2297.63 1454.33 2295.87 1454.33 Q2291.24 1454.33 2288.79 1457.45 Q2286.36 1460.58 2286.01 1466.9 Q2287.37 1464.89 2289.43 1463.82 Q2291.49 1462.73 2293.97 1462.73 Q2299.18 1462.73 2302.19 1465.9 Q2305.22 1469.05 2305.22 1474.49 Q2305.22 1479.82 2302.07 1483.03 Q2298.92 1486.25 2293.69 1486.25 Q2287.7 1486.25 2284.53 1481.67 Q2281.36 1477.06 2281.36 1468.33 Q2281.36 1460.14 2285.24 1455.28 Q2289.13 1450.39 2295.68 1450.39 Q2297.44 1450.39 2299.23 1450.74 Q2301.03 1451.09 2302.98 1451.78 Z" fill="#000000" fill-rule="nonzero" fill-opacity="1" /><path clip-path="url(#clip450)" d="M1286.34 1518.52 L1292.23 1518.52 L1292.23 1547.77 L1309.7 1532.4 L1317.18 1532.4 L1298.27 1549.07 L1317.98 1568.04 L1310.34 1568.04 L1292.23 1550.63 L1292.23 1568.04 L1286.34 1568.04 L1286.34 1518.52 Z" fill="#000000" fill-rule="nonzero" fill-opacity="1" /><polyline clip-path="url(#clip452)" style="stroke:#000000; stroke-linecap:round; stroke-linejoin:round; stroke-width:2; stroke-opacity:0.1; fill:none" points="251.56,880.166 2352.76,880.166 "/>
<polyline clip-path="url(#clip452)" style="stroke:#000000; stroke-linecap:round; stroke-linejoin:round; stroke-width:2; stroke-opacity:0.1; fill:none" points="251.56,139.83 2352.76,139.83 "/>
<polyline clip-path="url(#clip450)" style="stroke:#000000; stroke-linecap:round; stroke-linejoin:round; stroke-width:4; stroke-opacity:1; fill:none" points="251.56,1423.18 251.56,123.472 "/>
<polyline clip-path="url(#clip450)" style="stroke:#000000; stroke-linecap:round; stroke-linejoin:round; stroke-width:4; stroke-opacity:1; fill:none" points="251.56,880.166 270.458,880.166 "/>
<polyline clip-path="url(#clip450)" style="stroke:#000000; stroke-linecap:round; stroke-linejoin:round; stroke-width:4; stroke-opacity:1; fill:none" points="251.56,139.83 270.458,139.83 "/>
<path clip-path="url(#clip450)" d="M114.931 899.958 L122.57 899.958 L122.57 873.592 L114.26 875.259 L114.26 871 L122.524 869.333 L127.2 869.333 L127.2 899.958 L134.839 899.958 L134.839 903.893 L114.931 903.893 L114.931 899.958 Z" fill="#000000" fill-rule="nonzero" fill-opacity="1" /><path clip-path="url(#clip450)" d="M154.283 872.412 Q150.672 872.412 148.843 875.977 Q147.038 879.518 147.038 886.648 Q147.038 893.754 148.843 897.319 Q150.672 900.861 154.283 900.861 Q157.917 900.861 159.723 897.319 Q161.552 893.754 161.552 886.648 Q161.552 879.518 159.723 875.977 Q157.917 872.412 154.283 872.412 M154.283 868.708 Q160.093 868.708 163.149 873.315 Q166.227 877.898 166.227 886.648 Q166.227 895.375 163.149 899.981 Q160.093 904.564 154.283 904.564 Q148.473 904.564 145.394 899.981 Q142.339 895.375 142.339 886.648 Q142.339 877.898 145.394 873.315 Q148.473 868.708 154.283 868.708 Z" fill="#000000" fill-rule="nonzero" fill-opacity="1" /><path clip-path="url(#clip450)" d="M166.227 862.81 L190.339 862.81 L190.339 866.007 L166.227 866.007 L166.227 862.81 Z" fill="#000000" fill-rule="nonzero" fill-opacity="1" /><path clip-path="url(#clip450)" d="M198.577 848.403 L213.491 848.403 L213.491 851.6 L202.056 851.6 L202.056 858.484 Q202.884 858.202 203.711 858.07 Q204.539 857.919 205.366 857.919 Q210.068 857.919 212.814 860.496 Q215.56 863.073 215.56 867.474 Q215.56 872.007 212.739 874.527 Q209.918 877.028 204.783 877.028 Q203.015 877.028 201.172 876.727 Q199.348 876.426 197.392 875.824 L197.392 872.007 Q199.085 872.928 200.89 873.379 Q202.696 873.831 204.708 873.831 Q207.962 873.831 209.861 872.119 Q211.761 870.408 211.761 867.474 Q211.761 864.54 209.861 862.828 Q207.962 861.117 204.708 861.117 Q203.185 861.117 201.661 861.455 Q200.157 861.794 198.577 862.509 L198.577 848.403 Z" fill="#000000" fill-rule="nonzero" fill-opacity="1" /><path clip-path="url(#clip450)" d="M144.855 159.623 L152.493 159.623 L152.493 133.257 L144.183 134.924 L144.183 130.664 L152.447 128.998 L157.123 128.998 L157.123 159.623 L164.762 159.623 L164.762 163.558 L144.855 163.558 L144.855 159.623 Z" fill="#000000" fill-rule="nonzero" fill-opacity="1" /><path clip-path="url(#clip450)" d="M184.206 132.076 Q180.595 132.076 178.766 135.641 Q176.961 139.183 176.961 146.313 Q176.961 153.419 178.766 156.984 Q180.595 160.525 184.206 160.525 Q187.84 160.525 189.646 156.984 Q191.475 153.419 191.475 146.313 Q191.475 139.183 189.646 135.641 Q187.84 132.076 184.206 132.076 M184.206 128.373 Q190.016 128.373 193.072 132.979 Q196.151 137.563 196.151 146.313 Q196.151 155.039 193.072 159.646 Q190.016 164.229 184.206 164.229 Q178.396 164.229 175.317 159.646 Q172.262 155.039 172.262 146.313 Q172.262 137.563 175.317 132.979 Q178.396 128.373 184.206 128.373 Z" fill="#000000" fill-rule="nonzero" fill-opacity="1" /><path clip-path="url(#clip450)" d="M205.855 110.569 Q202.921 110.569 201.436 113.465 Q199.969 116.343 199.969 122.136 Q199.969 127.91 201.436 130.806 Q202.921 133.684 205.855 133.684 Q208.808 133.684 210.275 130.806 Q211.761 127.91 211.761 122.136 Q211.761 116.343 210.275 113.465 Q208.808 110.569 205.855 110.569 M205.855 107.56 Q210.576 107.56 213.059 111.302 Q215.56 115.026 215.56 122.136 Q215.56 129.226 213.059 132.969 Q210.576 136.693 205.855 136.693 Q201.135 136.693 198.633 132.969 Q196.151 129.226 196.151 122.136 Q196.151 115.026 198.633 111.302 Q201.135 107.56 205.855 107.56 Z" fill="#000000" fill-rule="nonzero" fill-opacity="1" /><path clip-path="url(#clip450)" d="M32.4621 801.797 Q32.4621 806.507 36.1542 809.244 Q39.8145 811.982 46.212 811.982 Q52.6095 811.982 56.3017 809.276 Q59.9619 806.539 59.9619 801.797 Q59.9619 797.118 56.2698 794.381 Q52.5777 791.643 46.212 791.643 Q39.8781 791.643 36.186 794.381 Q32.4621 797.118 32.4621 801.797 M27.4968 801.797 Q27.4968 794.158 32.4621 789.797 Q37.4273 785.437 46.212 785.437 Q54.9649 785.437 59.9619 789.797 Q64.9272 794.158 64.9272 801.797 Q64.9272 809.467 59.9619 813.828 Q54.9649 818.156 46.212 818.156 Q37.4273 818.156 32.4621 813.828 Q27.4968 809.467 27.4968 801.797 Z" fill="#000000" fill-rule="nonzero" fill-opacity="1" /><path clip-path="url(#clip450)" d="M46.212 750.139 Q39.7508 750.139 36.0905 752.812 Q32.3984 755.454 32.3984 760.101 Q32.3984 764.748 36.0905 767.422 Q39.7508 770.064 46.212 770.064 Q52.6732 770.064 56.3653 767.422 Q60.0256 764.748 60.0256 760.101 Q60.0256 755.454 56.3653 752.812 Q52.6732 750.139 46.212 750.139 M33.7671 770.064 Q30.5842 768.218 29.0564 765.417 Q27.4968 762.584 27.4968 758.669 Q27.4968 752.176 32.6531 748.134 Q37.8093 744.06 46.212 744.06 Q54.6147 744.06 59.771 748.134 Q64.9272 752.176 64.9272 758.669 Q64.9272 762.584 63.3994 765.417 Q61.8398 768.218 58.657 770.064 L64.0042 770.064 L64.0042 775.952 L14.479 775.952 L14.479 770.064 L33.7671 770.064 Z" fill="#000000" fill-rule="nonzero" fill-opacity="1" /><path clip-path="url(#clip450)" d="M28.3562 734.352 L28.3562 728.495 L64.6407 728.495 Q71.452 728.495 74.5076 731.105 Q77.5631 733.684 77.5631 739.445 L77.5631 741.673 L72.5979 741.673 L72.5979 740.113 Q72.5979 736.771 71.0383 735.561 Q69.5105 734.352 64.6407 734.352 L28.3562 734.352 M14.479 734.352 L14.479 728.495 L21.895 728.495 L21.895 734.352 L14.479 734.352 Z" fill="#000000" fill-rule="nonzero" fill-opacity="1" /><path clip-path="url(#clip450)" d="M957.467 65.7705 L957.467 89.8329 L949.972 89.8329 L949.972 27.2059 L957.467 27.2059 L957.467 34.0924 Q959.816 30.0415 963.381 28.0971 Q966.986 26.1121 971.969 26.1121 Q980.233 26.1121 985.377 32.6746 Q990.563 39.2371 990.563 49.9314 Q990.563 60.6258 985.377 67.1883 Q980.233 73.7508 971.969 73.7508 Q966.986 73.7508 963.381 71.8063 Q959.816 69.8214 957.467 65.7705 M982.825 49.9314 Q982.825 41.7081 979.423 37.0496 Q976.06 32.3505 970.146 32.3505 Q964.232 32.3505 960.829 37.0496 Q957.467 41.7081 957.467 49.9314 Q957.467 58.1548 960.829 62.8538 Q964.232 67.5124 970.146 67.5124 Q976.06 67.5124 979.423 62.8538 Q982.825 58.1548 982.825 49.9314 Z" fill="#000000" fill-rule="nonzero" fill-opacity="1" /><path clip-path="url(#clip450)" d="M1029.21 34.1734 Q1027.95 33.4443 1026.45 33.1202 Q1025 32.7556 1023.21 32.7556 Q1016.89 32.7556 1013.49 36.8875 Q1010.13 40.9789 1010.13 48.6757 L1010.13 72.576 L1002.63 72.576 L1002.63 27.2059 L1010.13 27.2059 L1010.13 34.2544 Q1012.48 30.1225 1016.25 28.1376 Q1020.01 26.1121 1025.4 26.1121 Q1026.17 26.1121 1027.1 26.2337 Q1028.03 26.3147 1029.17 26.5172 L1029.21 34.1734 Z" fill="#000000" fill-rule="nonzero" fill-opacity="1" /><path clip-path="url(#clip450)" d="M1052.78 32.4315 Q1046.79 32.4315 1043.31 37.1306 Q1039.82 41.7891 1039.82 49.9314 Q1039.82 58.0738 1043.26 62.7728 Q1046.75 67.4314 1052.78 67.4314 Q1058.74 67.4314 1062.22 62.7323 Q1065.71 58.0333 1065.71 49.9314 Q1065.71 41.8701 1062.22 37.1711 Q1058.74 32.4315 1052.78 32.4315 M1052.78 26.1121 Q1062.51 26.1121 1068.06 32.4315 Q1073.61 38.7509 1073.61 49.9314 Q1073.61 61.0714 1068.06 67.4314 Q1062.51 73.7508 1052.78 73.7508 Q1043.02 73.7508 1037.47 67.4314 Q1031.96 61.0714 1031.96 49.9314 Q1031.96 38.7509 1037.47 32.4315 Q1043.02 26.1121 1052.78 26.1121 Z" fill="#000000" fill-rule="nonzero" fill-opacity="1" /><path clip-path="url(#clip450)" d="M1118.53 49.9314 Q1118.53 41.7081 1115.13 37.0496 Q1111.77 32.3505 1105.85 32.3505 Q1099.94 32.3505 1096.53 37.0496 Q1093.17 41.7081 1093.17 49.9314 Q1093.17 58.1548 1096.53 62.8538 Q1099.94 67.5124 1105.85 67.5124 Q1111.77 67.5124 1115.13 62.8538 Q1118.53 58.1548 1118.53 49.9314 M1093.17 34.0924 Q1095.52 30.0415 1099.09 28.0971 Q1102.69 26.1121 1107.67 26.1121 Q1115.94 26.1121 1121.08 32.6746 Q1126.27 39.2371 1126.27 49.9314 Q1126.27 60.6258 1121.08 67.1883 Q1115.94 73.7508 1107.67 73.7508 Q1102.69 73.7508 1099.09 71.8063 Q1095.52 69.8214 1093.17 65.7705 L1093.17 72.576 L1085.68 72.576 L1085.68 9.54393 L1093.17 9.54393 L1093.17 34.0924 Z" fill="#000000" fill-rule="nonzero" fill-opacity="1" /><path clip-path="url(#clip450)" d="M1138.62 9.54393 L1146.08 9.54393 L1146.08 72.576 L1138.62 72.576 L1138.62 9.54393 Z" fill="#000000" fill-rule="nonzero" fill-opacity="1" /><path clip-path="url(#clip450)" d="M1200.48 48.0275 L1200.48 51.6733 L1166.21 51.6733 Q1166.7 59.3701 1170.83 63.421 Q1175 67.4314 1182.41 67.4314 Q1186.71 67.4314 1190.72 66.3781 Q1194.77 65.3249 1198.74 63.2184 L1198.74 70.267 Q1194.73 71.9684 1190.52 72.8596 Q1186.3 73.7508 1181.97 73.7508 Q1171.11 73.7508 1164.75 67.4314 Q1158.43 61.1119 1158.43 50.3365 Q1158.43 39.1965 1164.43 32.6746 Q1170.46 26.1121 1180.67 26.1121 Q1189.83 26.1121 1195.13 32.0264 Q1200.48 37.9003 1200.48 48.0275 M1193.03 45.84 Q1192.95 39.7232 1189.58 36.0774 Q1186.26 32.4315 1180.75 32.4315 Q1174.51 32.4315 1170.75 35.9558 Q1167.02 39.4801 1166.45 45.8805 L1193.03 45.84 M1174.35 6.22219 L1185.78 21.3726 L1179.58 21.3726 L1166.37 6.22219 L1174.35 6.22219 Z" fill="#000000" fill-rule="nonzero" fill-opacity="1" /><path clip-path="url(#clip450)" d="M1248.04 35.9153 Q1250.83 30.8922 1254.72 28.5022 Q1258.61 26.1121 1263.88 26.1121 Q1270.97 26.1121 1274.81 31.0947 Q1278.66 36.0368 1278.66 45.1919 L1278.66 72.576 L1271.17 72.576 L1271.17 45.4349 Q1271.17 38.913 1268.86 35.7533 Q1266.55 32.5936 1261.81 32.5936 Q1256.02 32.5936 1252.66 36.4419 Q1249.29 40.2903 1249.29 46.9338 L1249.29 72.576 L1241.8 72.576 L1241.8 45.4349 Q1241.8 38.8725 1239.49 35.7533 Q1237.18 32.5936 1232.36 32.5936 Q1226.65 32.5936 1223.29 36.4824 Q1219.92 40.3308 1219.92 46.9338 L1219.92 72.576 L1212.43 72.576 L1212.43 27.2059 L1219.92 27.2059 L1219.92 34.2544 Q1222.48 30.082 1226.04 28.0971 Q1229.61 26.1121 1234.51 26.1121 Q1239.45 26.1121 1242.89 28.6237 Q1246.38 31.1352 1248.04 35.9153 Z" fill="#000000" fill-rule="nonzero" fill-opacity="1" /><path clip-path="url(#clip450)" d="M1332.34 48.0275 L1332.34 51.6733 L1298.07 51.6733 Q1298.55 59.3701 1302.68 63.421 Q1306.86 67.4314 1314.27 67.4314 Q1318.56 67.4314 1322.57 66.3781 Q1326.63 65.3249 1330.6 63.2184 L1330.6 70.267 Q1326.59 71.9684 1322.37 72.8596 Q1318.16 73.7508 1313.82 73.7508 Q1302.97 73.7508 1296.61 67.4314 Q1290.29 61.1119 1290.29 50.3365 Q1290.29 39.1965 1296.28 32.6746 Q1302.32 26.1121 1312.53 26.1121 Q1321.68 26.1121 1326.99 32.0264 Q1332.34 37.9003 1332.34 48.0275 M1324.88 45.84 Q1324.8 39.7232 1321.44 36.0774 Q1318.12 32.4315 1312.61 32.4315 Q1306.37 32.4315 1302.6 35.9558 Q1298.88 39.4801 1298.31 45.8805 L1324.88 45.84 Z" fill="#000000" fill-rule="nonzero" fill-opacity="1" /><path clip-path="url(#clip450)" d="M1372.85 62.2867 L1381.39 62.2867 L1381.39 72.576 L1372.85 72.576 L1372.85 62.2867 M1372.85 29.6769 L1381.39 29.6769 L1381.39 39.9662 L1372.85 39.9662 L1372.85 29.6769 Z" fill="#000000" fill-rule="nonzero" fill-opacity="1" /><path clip-path="url(#clip450)" d="M1432.64 14.324 L1432.64 27.2059 L1447.99 27.2059 L1447.99 32.9987 L1432.64 32.9987 L1432.64 57.6282 Q1432.64 63.1779 1434.14 64.7578 Q1435.68 66.3376 1440.33 66.3376 L1447.99 66.3376 L1447.99 72.576 L1440.33 72.576 Q1431.71 72.576 1428.42 69.3758 Q1425.14 66.1351 1425.14 57.6282 L1425.14 32.9987 L1419.67 32.9987 L1419.67 27.2059 L1425.14 27.2059 L1425.14 14.324 L1432.64 14.324 Z" fill="#000000" fill-rule="nonzero" fill-opacity="1" /><path clip-path="url(#clip450)" d="M1465 65.7705 L1465 89.8329 L1457.51 89.8329 L1457.51 27.2059 L1465 27.2059 L1465 34.0924 Q1467.35 30.0415 1470.92 28.0971 Q1474.52 26.1121 1479.51 26.1121 Q1487.77 26.1121 1492.92 32.6746 Q1498.1 39.2371 1498.1 49.9314 Q1498.1 60.6258 1492.92 67.1883 Q1487.77 73.7508 1479.51 73.7508 Q1474.52 73.7508 1470.92 71.8063 Q1467.35 69.8214 1465 65.7705 M1490.36 49.9314 Q1490.36 41.7081 1486.96 37.0496 Q1483.6 32.3505 1477.68 32.3505 Q1471.77 32.3505 1468.37 37.0496 Q1465 41.7081 1465 49.9314 Q1465 58.1548 1468.37 62.8538 Q1471.77 67.5124 1477.68 67.5124 Q1483.6 67.5124 1486.96 62.8538 Q1490.36 58.1548 1490.36 49.9314 Z" fill="#000000" fill-rule="nonzero" fill-opacity="1" /><path clip-path="url(#clip450)" d="M1518.56 65.6895 L1547.12 65.6895 L1547.12 72.576 L1508.71 72.576 L1508.71 65.6895 Q1513.37 60.8689 1521.39 52.7671 Q1529.45 44.6248 1531.52 42.2752 Q1535.45 37.8598 1536.99 34.8216 Q1538.57 31.7429 1538.57 28.7857 Q1538.57 23.9651 1535.17 20.927 Q1531.8 17.8888 1526.38 17.8888 Q1522.53 17.8888 1518.23 19.2256 Q1513.98 20.5624 1509.12 23.2765 L1509.12 15.0127 Q1514.06 13.0277 1518.35 12.015 Q1522.65 11.0023 1526.21 11.0023 Q1535.61 11.0023 1541.2 15.7013 Q1546.79 20.4004 1546.79 28.2591 Q1546.79 31.9859 1545.37 35.3482 Q1544 38.6699 1540.31 43.2069 Q1539.3 44.3817 1533.87 50.0125 Q1528.44 55.6027 1518.56 65.6895 Z" fill="#000000" fill-rule="nonzero" fill-opacity="1" /><path clip-path="url(#clip450)" d="M1581.79 17.4837 Q1575.47 17.4837 1572.27 23.7221 Q1569.11 29.92 1569.11 42.3968 Q1569.11 54.833 1572.27 61.0714 Q1575.47 67.2693 1581.79 67.2693 Q1588.15 67.2693 1591.31 61.0714 Q1594.51 54.833 1594.51 42.3968 Q1594.51 29.92 1591.31 23.7221 Q1588.15 17.4837 1581.79 17.4837 M1581.79 11.0023 Q1591.96 11.0023 1597.31 19.0636 Q1602.69 27.0843 1602.69 42.3968 Q1602.69 57.6687 1597.31 65.73 Q1591.96 73.7508 1581.79 73.7508 Q1571.62 73.7508 1566.24 65.73 Q1560.89 57.6687 1560.89 42.3968 Q1560.89 27.0843 1566.24 19.0636 Q1571.62 11.0023 1581.79 11.0023 Z" fill="#000000" fill-rule="nonzero" fill-opacity="1" /><path clip-path="url(#clip450)" d="M1641.87 39.9662 Q1647.74 41.222 1651.02 45.1919 Q1654.34 49.1618 1654.34 54.9951 Q1654.34 63.9476 1648.19 68.8492 Q1642.03 73.7508 1630.69 73.7508 Q1626.88 73.7508 1622.83 72.9811 Q1618.82 72.2519 1614.52 70.7531 L1614.52 62.8538 Q1617.93 64.8388 1621.98 65.8515 Q1626.03 66.8642 1630.44 66.8642 Q1638.14 66.8642 1642.15 63.826 Q1646.2 60.7879 1646.2 54.9951 Q1646.2 49.6479 1642.43 46.6502 Q1638.71 43.612 1632.02 43.612 L1624.97 43.612 L1624.97 36.8875 L1632.35 36.8875 Q1638.38 36.8875 1641.58 34.4975 Q1644.78 32.067 1644.78 27.5299 Q1644.78 22.8714 1641.46 20.4004 Q1638.18 17.8888 1632.02 17.8888 Q1628.66 17.8888 1624.81 18.618 Q1620.96 19.3471 1616.35 20.8865 L1616.35 13.5948 Q1621 12.2985 1625.06 11.6504 Q1629.15 11.0023 1632.75 11.0023 Q1642.07 11.0023 1647.5 15.2557 Q1652.93 19.4686 1652.93 26.6793 Q1652.93 31.7024 1650.05 35.1862 Q1647.17 38.6294 1641.87 39.9662 Z" fill="#000000" fill-rule="nonzero" fill-opacity="1" /><polyline clip-path="url(#clip452)" style="stroke:#009af9; stroke-linecap:round; stroke-linejoin:round; stroke-width:4; stroke-opacity:1; fill:none" points="311.028,160.256 707.48,197.326 1103.93,245.082 1500.38,349.696 1896.84,763.357 2293.29,1386.4 "/>
<polyline clip-path="url(#clip452)" style="stroke:#e26f46; stroke-linecap:round; stroke-linejoin:round; stroke-width:4; stroke-opacity:1; fill:none" points="311.028,160.256 707.48,197.326 1103.93,245.082 1500.38,349.696 1896.84,763.357 2293.29,1386.4 "/>
<path clip-path="url(#clip450)" d="M1501.03 322.316 L2282.72 322.316 L2282.72 166.796 L1501.03 166.796  Z" fill="#ffffff" fill-rule="evenodd" fill-opacity="1"/>
<polyline clip-path="url(#clip450)" style="stroke:#000000; stroke-linecap:round; stroke-linejoin:round; stroke-width:4; stroke-opacity:1; fill:none" points="1501.03,322.316 2282.72,322.316 2282.72,166.796 1501.03,166.796 1501.03,322.316 "/>
<polyline clip-path="url(#clip450)" style="stroke:#009af9; stroke-linecap:round; stroke-linejoin:round; stroke-width:4; stroke-opacity:1; fill:none" points="1524.37,218.636 1664.45,218.636 "/>
<path clip-path="url(#clip450)" d="M1687.8 201.356 L1692.47 201.356 L1692.47 231.981 L1709.3 231.981 L1709.3 235.916 L1687.8 235.916 L1687.8 201.356 Z" fill="#000000" fill-rule="nonzero" fill-opacity="1" /><path clip-path="url(#clip450)" d="M1714.21 201.356 L1721.18 201.356 L1730 224.874 L1738.86 201.356 L1745.83 201.356 L1745.83 235.916 L1741.27 235.916 L1741.27 205.569 L1732.36 229.272 L1727.66 229.272 L1718.75 205.569 L1718.75 235.916 L1714.21 235.916 L1714.21 201.356 Z" fill="#000000" fill-rule="nonzero" fill-opacity="1" /><path clip-path="url(#clip450)" d="M1774.63 243.786 L1774.63 247.096 L1750 247.096 L1750 243.786 L1774.63 243.786 Z" fill="#000000" fill-rule="nonzero" fill-opacity="1" /><path clip-path="url(#clip450)" d="M1790.37 205.962 L1784.02 223.161 L1796.73 223.161 L1790.37 205.962 M1787.73 201.356 L1793.03 201.356 L1806.2 235.916 L1801.34 235.916 L1798.19 227.05 L1782.61 227.05 L1779.46 235.916 L1774.53 235.916 L1787.73 201.356 Z" fill="#000000" fill-rule="nonzero" fill-opacity="1" /><path clip-path="url(#clip450)" d="M1832.61 220.268 L1832.61 235.916 L1828.35 235.916 L1828.35 220.407 Q1828.35 216.726 1826.92 214.897 Q1825.48 213.069 1822.61 213.069 Q1819.16 213.069 1817.17 215.268 Q1815.18 217.467 1815.18 221.263 L1815.18 235.916 L1810.9 235.916 L1810.9 209.99 L1815.18 209.99 L1815.18 214.018 Q1816.71 211.68 1818.77 210.522 Q1820.85 209.365 1823.56 209.365 Q1828.03 209.365 1830.32 212.143 Q1832.61 214.897 1832.61 220.268 Z" fill="#000000" fill-rule="nonzero" fill-opacity="1" /><path clip-path="url(#clip450)" d="M1858.17 213.925 L1858.17 199.897 L1862.43 199.897 L1862.43 235.916 L1858.17 235.916 L1858.17 232.027 Q1856.83 234.342 1854.77 235.476 Q1852.73 236.587 1849.86 236.587 Q1845.16 236.587 1842.2 232.837 Q1839.26 229.087 1839.26 222.976 Q1839.26 216.865 1842.2 213.115 Q1845.16 209.365 1849.86 209.365 Q1852.73 209.365 1854.77 210.499 Q1856.83 211.61 1858.17 213.925 M1843.65 222.976 Q1843.65 227.675 1845.58 230.36 Q1847.52 233.022 1850.9 233.022 Q1854.28 233.022 1856.22 230.36 Q1858.17 227.675 1858.17 222.976 Q1858.17 218.277 1856.22 215.615 Q1854.28 212.93 1850.9 212.93 Q1847.52 212.93 1845.58 215.615 Q1843.65 218.277 1843.65 222.976 Z" fill="#000000" fill-rule="nonzero" fill-opacity="1" /><path clip-path="url(#clip450)" d="M1886.22 213.971 Q1885.51 213.555 1884.65 213.37 Q1883.82 213.161 1882.8 213.161 Q1879.19 213.161 1877.24 215.522 Q1875.32 217.86 1875.32 222.258 L1875.32 235.916 L1871.04 235.916 L1871.04 209.99 L1875.32 209.99 L1875.32 214.018 Q1876.66 211.657 1878.82 210.522 Q1880.97 209.365 1884.05 209.365 Q1884.49 209.365 1885.02 209.434 Q1885.55 209.481 1886.2 209.596 L1886.22 213.971 Z" fill="#000000" fill-rule="nonzero" fill-opacity="1" /><path clip-path="url(#clip450)" d="M1911.82 221.888 L1911.82 223.971 L1892.24 223.971 Q1892.52 228.369 1894.88 230.684 Q1897.26 232.976 1901.5 232.976 Q1903.95 232.976 1906.25 232.374 Q1908.56 231.772 1910.83 230.569 L1910.83 234.596 Q1908.54 235.568 1906.13 236.078 Q1903.72 236.587 1901.25 236.587 Q1895.04 236.587 1891.41 232.976 Q1887.8 229.365 1887.8 223.207 Q1887.8 216.842 1891.22 213.115 Q1894.67 209.365 1900.51 209.365 Q1905.74 209.365 1908.77 212.745 Q1911.82 216.101 1911.82 221.888 M1907.57 220.638 Q1907.52 217.143 1905.6 215.059 Q1903.7 212.976 1900.55 212.976 Q1896.99 212.976 1894.83 214.99 Q1892.7 217.004 1892.38 220.661 L1907.57 220.638 Z" fill="#000000" fill-rule="nonzero" fill-opacity="1" /><path clip-path="url(#clip450)" d="M1918.82 209.99 L1923.07 209.99 L1923.07 235.916 L1918.82 235.916 L1918.82 209.99 M1918.82 199.897 L1923.07 199.897 L1923.07 205.291 L1918.82 205.291 L1918.82 199.897 Z" fill="#000000" fill-rule="nonzero" fill-opacity="1" /><path clip-path="url(#clip450)" d="M1951.69 243.786 L1951.69 247.096 L1927.06 247.096 L1927.06 243.786 L1951.69 243.786 Z" fill="#000000" fill-rule="nonzero" fill-opacity="1" /><path clip-path="url(#clip450)" d="M1967.47 222.883 Q1962.31 222.883 1960.32 224.064 Q1958.33 225.244 1958.33 228.092 Q1958.33 230.36 1959.81 231.703 Q1961.32 233.022 1963.88 233.022 Q1967.43 233.022 1969.56 230.522 Q1971.71 227.999 1971.71 223.832 L1971.71 222.883 L1967.47 222.883 M1975.97 221.124 L1975.97 235.916 L1971.71 235.916 L1971.71 231.981 Q1970.25 234.342 1968.07 235.476 Q1965.9 236.587 1962.75 236.587 Q1958.77 236.587 1956.41 234.365 Q1954.07 232.119 1954.07 228.369 Q1954.07 223.994 1956.99 221.772 Q1959.93 219.55 1965.74 219.55 L1971.71 219.55 L1971.71 219.133 Q1971.71 216.194 1969.76 214.596 Q1967.84 212.976 1964.35 212.976 Q1962.13 212.976 1960.02 213.508 Q1957.91 214.041 1955.97 215.106 L1955.97 211.17 Q1958.31 210.268 1960.51 209.828 Q1962.7 209.365 1964.79 209.365 Q1970.41 209.365 1973.19 212.282 Q1975.97 215.198 1975.97 221.124 Z" fill="#000000" fill-rule="nonzero" fill-opacity="1" /><path clip-path="url(#clip450)" d="M1984.74 199.897 L1989 199.897 L1989 235.916 L1984.74 235.916 L1984.74 199.897 Z" fill="#000000" fill-rule="nonzero" fill-opacity="1" /><path clip-path="url(#clip450)" d="M2002.13 202.629 L2002.13 209.99 L2010.9 209.99 L2010.9 213.3 L2002.13 213.3 L2002.13 227.374 Q2002.13 230.545 2002.98 231.448 Q2003.86 232.351 2006.52 232.351 L2010.9 232.351 L2010.9 235.916 L2006.52 235.916 Q2001.59 235.916 1999.72 234.087 Q1997.84 232.235 1997.84 227.374 L1997.84 213.3 L1994.72 213.3 L1994.72 209.99 L1997.84 209.99 L1997.84 202.629 L2002.13 202.629 Z" fill="#000000" fill-rule="nonzero" fill-opacity="1" /><polyline clip-path="url(#clip450)" style="stroke:#e26f46; stroke-linecap:round; stroke-linejoin:round; stroke-width:4; stroke-opacity:1; fill:none" points="1524.37,270.476 1664.45,270.476 "/>
<path clip-path="url(#clip450)" d="M1687.8 253.196 L1692.47 253.196 L1692.47 283.821 L1709.3 283.821 L1709.3 287.756 L1687.8 287.756 L1687.8 253.196 Z" fill="#000000" fill-rule="nonzero" fill-opacity="1" /><path clip-path="url(#clip450)" d="M1714.21 253.196 L1721.18 253.196 L1730 276.714 L1738.86 253.196 L1745.83 253.196 L1745.83 287.756 L1741.27 287.756 L1741.27 257.409 L1732.36 281.112 L1727.66 281.112 L1718.75 257.409 L1718.75 287.756 L1714.21 287.756 L1714.21 253.196 Z" fill="#000000" fill-rule="nonzero" fill-opacity="1" /><path clip-path="url(#clip450)" d="M1774.63 295.626 L1774.63 298.936 L1750 298.936 L1750 295.626 L1774.63 295.626 Z" fill="#000000" fill-rule="nonzero" fill-opacity="1" /><path clip-path="url(#clip450)" d="M1790.37 257.802 L1784.02 275.001 L1796.73 275.001 L1790.37 257.802 M1787.73 253.196 L1793.03 253.196 L1806.2 287.756 L1801.34 287.756 L1798.19 278.89 L1782.61 278.89 L1779.46 287.756 L1774.53 287.756 L1787.73 253.196 Z" fill="#000000" fill-rule="nonzero" fill-opacity="1" /><path clip-path="url(#clip450)" d="M1832.61 272.108 L1832.61 287.756 L1828.35 287.756 L1828.35 272.247 Q1828.35 268.566 1826.92 266.737 Q1825.48 264.909 1822.61 264.909 Q1819.16 264.909 1817.17 267.108 Q1815.18 269.307 1815.18 273.103 L1815.18 287.756 L1810.9 287.756 L1810.9 261.83 L1815.18 261.83 L1815.18 265.858 Q1816.71 263.52 1818.77 262.362 Q1820.85 261.205 1823.56 261.205 Q1828.03 261.205 1830.32 263.983 Q1832.61 266.737 1832.61 272.108 Z" fill="#000000" fill-rule="nonzero" fill-opacity="1" /><path clip-path="url(#clip450)" d="M1858.17 265.765 L1858.17 251.737 L1862.43 251.737 L1862.43 287.756 L1858.17 287.756 L1858.17 283.867 Q1856.83 286.182 1854.77 287.316 Q1852.73 288.427 1849.86 288.427 Q1845.16 288.427 1842.2 284.677 Q1839.26 280.927 1839.26 274.816 Q1839.26 268.705 1842.2 264.955 Q1845.16 261.205 1849.86 261.205 Q1852.73 261.205 1854.77 262.339 Q1856.83 263.45 1858.17 265.765 M1843.65 274.816 Q1843.65 279.515 1845.58 282.2 Q1847.52 284.862 1850.9 284.862 Q1854.28 284.862 1856.22 282.2 Q1858.17 279.515 1858.17 274.816 Q1858.17 270.117 1856.22 267.455 Q1854.28 264.77 1850.9 264.77 Q1847.52 264.77 1845.58 267.455 Q1843.65 270.117 1843.65 274.816 Z" fill="#000000" fill-rule="nonzero" fill-opacity="1" /><path clip-path="url(#clip450)" d="M1886.22 265.811 Q1885.51 265.395 1884.65 265.21 Q1883.82 265.001 1882.8 265.001 Q1879.19 265.001 1877.24 267.362 Q1875.32 269.7 1875.32 274.098 L1875.32 287.756 L1871.04 287.756 L1871.04 261.83 L1875.32 261.83 L1875.32 265.858 Q1876.66 263.497 1878.82 262.362 Q1880.97 261.205 1884.05 261.205 Q1884.49 261.205 1885.02 261.274 Q1885.55 261.321 1886.2 261.436 L1886.22 265.811 Z" fill="#000000" fill-rule="nonzero" fill-opacity="1" /><path clip-path="url(#clip450)" d="M1911.82 273.728 L1911.82 275.811 L1892.24 275.811 Q1892.52 280.209 1894.88 282.524 Q1897.26 284.816 1901.5 284.816 Q1903.95 284.816 1906.25 284.214 Q1908.56 283.612 1910.83 282.409 L1910.83 286.436 Q1908.54 287.408 1906.13 287.918 Q1903.72 288.427 1901.25 288.427 Q1895.04 288.427 1891.41 284.816 Q1887.8 281.205 1887.8 275.047 Q1887.8 268.682 1891.22 264.955 Q1894.67 261.205 1900.51 261.205 Q1905.74 261.205 1908.77 264.585 Q1911.82 267.941 1911.82 273.728 M1907.57 272.478 Q1907.52 268.983 1905.6 266.899 Q1903.7 264.816 1900.55 264.816 Q1896.99 264.816 1894.83 266.83 Q1892.7 268.844 1892.38 272.501 L1907.57 272.478 Z" fill="#000000" fill-rule="nonzero" fill-opacity="1" /><path clip-path="url(#clip450)" d="M1918.82 261.83 L1923.07 261.83 L1923.07 287.756 L1918.82 287.756 L1918.82 261.83 M1918.82 251.737 L1923.07 251.737 L1923.07 257.131 L1918.82 257.131 L1918.82 251.737 Z" fill="#000000" fill-rule="nonzero" fill-opacity="1" /><path clip-path="url(#clip450)" d="M1951.69 295.626 L1951.69 298.936 L1927.06 298.936 L1927.06 295.626 L1951.69 295.626 Z" fill="#000000" fill-rule="nonzero" fill-opacity="1" /><path clip-path="url(#clip450)" d="M1967.47 274.723 Q1962.31 274.723 1960.32 275.904 Q1958.33 277.084 1958.33 279.932 Q1958.33 282.2 1959.81 283.543 Q1961.32 284.862 1963.88 284.862 Q1967.43 284.862 1969.56 282.362 Q1971.71 279.839 1971.71 275.672 L1971.71 274.723 L1967.47 274.723 M1975.97 272.964 L1975.97 287.756 L1971.71 287.756 L1971.71 283.821 Q1970.25 286.182 1968.07 287.316 Q1965.9 288.427 1962.75 288.427 Q1958.77 288.427 1956.41 286.205 Q1954.07 283.959 1954.07 280.209 Q1954.07 275.834 1956.99 273.612 Q1959.93 271.39 1965.74 271.39 L1971.71 271.39 L1971.71 270.973 Q1971.71 268.034 1969.76 266.436 Q1967.84 264.816 1964.35 264.816 Q1962.13 264.816 1960.02 265.348 Q1957.91 265.881 1955.97 266.946 L1955.97 263.01 Q1958.31 262.108 1960.51 261.668 Q1962.7 261.205 1964.79 261.205 Q1970.41 261.205 1973.19 264.122 Q1975.97 267.038 1975.97 272.964 Z" fill="#000000" fill-rule="nonzero" fill-opacity="1" /><path clip-path="url(#clip450)" d="M1984.74 251.737 L1989 251.737 L1989 287.756 L1984.74 287.756 L1984.74 251.737 Z" fill="#000000" fill-rule="nonzero" fill-opacity="1" /><path clip-path="url(#clip450)" d="M2002.13 254.469 L2002.13 261.83 L2010.9 261.83 L2010.9 265.14 L2002.13 265.14 L2002.13 279.214 Q2002.13 282.385 2002.98 283.288 Q2003.86 284.191 2006.52 284.191 L2010.9 284.191 L2010.9 287.756 L2006.52 287.756 Q2001.59 287.756 1999.72 285.927 Q1997.84 284.075 1997.84 279.214 L1997.84 265.14 L1994.72 265.14 L1994.72 261.83 L1997.84 261.83 L1997.84 254.469 L2002.13 254.469 Z" fill="#000000" fill-rule="nonzero" fill-opacity="1" /><path clip-path="url(#clip450)" d="M2036.2 295.626 L2036.2 298.936 L2011.57 298.936 L2011.57 295.626 L2036.2 295.626 Z" fill="#000000" fill-rule="nonzero" fill-opacity="1" /><path clip-path="url(#clip450)" d="M2042.75 274.816 Q2042.75 279.515 2044.67 282.2 Q2046.62 284.862 2050 284.862 Q2053.38 284.862 2055.32 282.2 Q2057.26 279.515 2057.26 274.816 Q2057.26 270.117 2055.32 267.455 Q2053.38 264.77 2050 264.77 Q2046.62 264.77 2044.67 267.455 Q2042.75 270.117 2042.75 274.816 M2057.26 283.867 Q2055.92 286.182 2053.86 287.316 Q2051.82 288.427 2048.95 288.427 Q2044.25 288.427 2041.29 284.677 Q2038.35 280.927 2038.35 274.816 Q2038.35 268.705 2041.29 264.955 Q2044.25 261.205 2048.95 261.205 Q2051.82 261.205 2053.86 262.339 Q2055.92 263.45 2057.26 265.765 L2057.26 261.83 L2061.52 261.83 L2061.52 297.617 L2057.26 297.617 L2057.26 283.867 Z" fill="#000000" fill-rule="nonzero" fill-opacity="1" /><path clip-path="url(#clip450)" d="M2085.32 265.811 Q2084.6 265.395 2083.75 265.21 Q2082.91 265.001 2081.89 265.001 Q2078.28 265.001 2076.34 267.362 Q2074.42 269.7 2074.42 274.098 L2074.42 287.756 L2070.13 287.756 L2070.13 261.83 L2074.42 261.83 L2074.42 265.858 Q2075.76 263.497 2077.91 262.362 Q2080.06 261.205 2083.14 261.205 Q2083.58 261.205 2084.12 261.274 Q2084.65 261.321 2085.3 261.436 L2085.32 265.811 Z" fill="#000000" fill-rule="nonzero" fill-opacity="1" /><path clip-path="url(#clip450)" d="M2109.14 266.807 Q2110.74 263.936 2112.96 262.571 Q2115.18 261.205 2118.19 261.205 Q2122.24 261.205 2124.44 264.052 Q2126.64 266.876 2126.64 272.108 L2126.64 287.756 L2122.36 287.756 L2122.36 272.247 Q2122.36 268.52 2121.04 266.714 Q2119.72 264.909 2117.01 264.909 Q2113.7 264.909 2111.78 267.108 Q2109.86 269.307 2109.86 273.103 L2109.86 287.756 L2105.57 287.756 L2105.57 272.247 Q2105.57 268.497 2104.25 266.714 Q2102.94 264.909 2100.18 264.909 Q2096.92 264.909 2095 267.131 Q2093.07 269.33 2093.07 273.103 L2093.07 287.756 L2088.79 287.756 L2088.79 261.83 L2093.07 261.83 L2093.07 265.858 Q2094.53 263.473 2096.57 262.339 Q2098.61 261.205 2101.41 261.205 Q2104.23 261.205 2106.2 262.64 Q2108.19 264.075 2109.14 266.807 Z" fill="#000000" fill-rule="nonzero" fill-opacity="1" /><path clip-path="url(#clip450)" d="M2134.69 277.524 L2134.69 261.83 L2138.95 261.83 L2138.95 277.362 Q2138.95 281.043 2140.39 282.895 Q2141.82 284.723 2144.69 284.723 Q2148.14 284.723 2150.13 282.524 Q2152.15 280.325 2152.15 276.529 L2152.15 261.83 L2156.41 261.83 L2156.41 287.756 L2152.15 287.756 L2152.15 283.774 Q2150.6 286.135 2148.54 287.293 Q2146.5 288.427 2143.79 288.427 Q2139.32 288.427 2137.01 285.649 Q2134.69 282.871 2134.69 277.524 M2145.41 261.205 L2145.41 261.205 Z" fill="#000000" fill-rule="nonzero" fill-opacity="1" /><path clip-path="url(#clip450)" d="M2185.37 266.807 Q2186.96 263.936 2189.18 262.571 Q2191.41 261.205 2194.42 261.205 Q2198.47 261.205 2200.67 264.052 Q2202.87 266.876 2202.87 272.108 L2202.87 287.756 L2198.58 287.756 L2198.58 272.247 Q2198.58 268.52 2197.26 266.714 Q2195.94 264.909 2193.24 264.909 Q2189.93 264.909 2188 267.108 Q2186.08 269.307 2186.08 273.103 L2186.08 287.756 L2181.8 287.756 L2181.8 272.247 Q2181.8 268.497 2180.48 266.714 Q2179.16 264.909 2176.41 264.909 Q2173.14 264.909 2171.22 267.131 Q2169.3 269.33 2169.3 273.103 L2169.3 287.756 L2165.02 287.756 L2165.02 261.83 L2169.3 261.83 L2169.3 265.858 Q2170.76 263.473 2172.8 262.339 Q2174.83 261.205 2177.63 261.205 Q2180.46 261.205 2182.43 262.64 Q2184.42 264.075 2185.37 266.807 Z" fill="#000000" fill-rule="nonzero" fill-opacity="1" /><path clip-path="url(#clip450)" d="M2215.48 283.867 L2215.48 297.617 L2211.2 297.617 L2211.2 261.83 L2215.48 261.83 L2215.48 265.765 Q2216.82 263.45 2218.86 262.339 Q2220.92 261.205 2223.77 261.205 Q2228.49 261.205 2231.43 264.955 Q2234.39 268.705 2234.39 274.816 Q2234.39 280.927 2231.43 284.677 Q2228.49 288.427 2223.77 288.427 Q2220.92 288.427 2218.86 287.316 Q2216.82 286.182 2215.48 283.867 M2229.97 274.816 Q2229.97 270.117 2228.03 267.455 Q2226.11 264.77 2222.73 264.77 Q2219.35 264.77 2217.4 267.455 Q2215.48 270.117 2215.48 274.816 Q2215.48 279.515 2217.4 282.2 Q2219.35 284.862 2222.73 284.862 Q2226.11 284.862 2228.03 282.2 Q2229.97 279.515 2229.97 274.816 Z" fill="#000000" fill-rule="nonzero" fill-opacity="1" /><path clip-path="url(#clip450)" d="M2257.98 262.594 L2257.98 266.622 Q2256.18 265.696 2254.23 265.233 Q2252.29 264.77 2250.2 264.77 Q2247.03 264.77 2245.43 265.742 Q2243.86 266.714 2243.86 268.659 Q2243.86 270.14 2244.99 270.997 Q2246.13 271.83 2249.55 272.594 L2251.01 272.918 Q2255.55 273.89 2257.45 275.672 Q2259.37 277.432 2259.37 280.603 Q2259.37 284.214 2256.5 286.321 Q2253.65 288.427 2248.65 288.427 Q2246.57 288.427 2244.3 288.01 Q2242.05 287.617 2239.55 286.807 L2239.55 282.409 Q2241.92 283.635 2244.21 284.26 Q2246.5 284.862 2248.74 284.862 Q2251.75 284.862 2253.37 283.844 Q2254.99 282.802 2254.99 280.927 Q2254.99 279.191 2253.81 278.265 Q2252.66 277.339 2248.7 276.483 L2247.22 276.135 Q2243.26 275.302 2241.5 273.589 Q2239.74 271.853 2239.74 268.844 Q2239.74 265.186 2242.33 263.196 Q2244.93 261.205 2249.69 261.205 Q2252.05 261.205 2254.14 261.552 Q2256.22 261.899 2257.98 262.594 Z" fill="#000000" fill-rule="nonzero" fill-opacity="1" /></svg>
