<?xml version="1.0" encoding="utf-8"?>
<svg xmlns="http://www.w3.org/2000/svg" xmlns:xlink="http://www.w3.org/1999/xlink" width="600" height="400" viewBox="0 0 2400 1600">
<defs>
  <clipPath id="clip530">
    <rect x="0" y="0" width="2400" height="1600"/>
  </clipPath>
</defs>
<path clip-path="url(#clip530)" d="M0 1600 L2400 1600 L2400 0 L0 0  Z" fill="#ffffff" fill-rule="evenodd" fill-opacity="1"/>
<defs>
  <clipPath id="clip531">
    <rect x="480" y="0" width="1681" height="1600"/>
  </clipPath>
</defs>
<path clip-path="url(#clip530)" d="M313.626 1423.18 L2352.76 1423.18 L2352.76 123.472 L313.626 123.472  Z" fill="#ffffff" fill-rule="evenodd" fill-opacity="1"/>
<defs>
  <clipPath id="clip532">
    <rect x="313" y="123" width="2040" height="1301"/>
  </clipPath>
</defs>
<polyline clip-path="url(#clip532)" style="stroke:#000000; stroke-linecap:round; stroke-linejoin:round; stroke-width:2; stroke-opacity:0.1; fill:none" points="314.757,1423.18 314.757,123.472 "/>
<polyline clip-path="url(#clip532)" style="stroke:#000000; stroke-linecap:round; stroke-linejoin:round; stroke-width:2; stroke-opacity:0.1; fill:none" points="880.554,1423.18 880.554,123.472 "/>
<polyline clip-path="url(#clip532)" style="stroke:#000000; stroke-linecap:round; stroke-linejoin:round; stroke-width:2; stroke-opacity:0.1; fill:none" points="1446.35,1423.18 1446.35,123.472 "/>
<polyline clip-path="url(#clip532)" style="stroke:#000000; stroke-linecap:round; stroke-linejoin:round; stroke-width:2; stroke-opacity:0.1; fill:none" points="2012.15,1423.18 2012.15,123.472 "/>
<polyline clip-path="url(#clip530)" style="stroke:#000000; stroke-linecap:round; stroke-linejoin:round; stroke-width:4; stroke-opacity:1; fill:none" points="313.626,1423.18 2352.76,1423.18 "/>
<polyline clip-path="url(#clip530)" style="stroke:#000000; stroke-linecap:round; stroke-linejoin:round; stroke-width:4; stroke-opacity:1; fill:none" points="314.757,1423.18 314.757,1404.28 "/>
<polyline clip-path="url(#clip530)" style="stroke:#000000; stroke-linecap:round; stroke-linejoin:round; stroke-width:4; stroke-opacity:1; fill:none" points="880.554,1423.18 880.554,1404.28 "/>
<polyline clip-path="url(#clip530)" style="stroke:#000000; stroke-linecap:round; stroke-linejoin:round; stroke-width:4; stroke-opacity:1; fill:none" points="1446.35,1423.18 1446.35,1404.28 "/>
<polyline clip-path="url(#clip530)" style="stroke:#000000; stroke-linecap:round; stroke-linejoin:round; stroke-width:4; stroke-opacity:1; fill:none" points="2012.15,1423.18 2012.15,1404.28 "/>
<path clip-path="url(#clip530)" d="M314.757 1454.1 Q311.146 1454.1 309.318 1457.66 Q307.512 1461.2 307.512 1468.33 Q307.512 1475.44 309.318 1479.01 Q311.146 1482.55 314.757 1482.55 Q318.392 1482.55 320.197 1479.01 Q322.026 1475.44 322.026 1468.33 Q322.026 1461.2 320.197 1457.66 Q318.392 1454.1 314.757 1454.1 M314.757 1450.39 Q320.568 1450.39 323.623 1455 Q326.702 1459.58 326.702 1468.33 Q326.702 1477.06 323.623 1481.67 Q320.568 1486.25 314.757 1486.25 Q308.947 1486.25 305.869 1481.67 Q302.813 1477.06 302.813 1468.33 Q302.813 1459.58 305.869 1455 Q308.947 1450.39 314.757 1450.39 Z" fill="#000000" fill-rule="nonzero" fill-opacity="1" /><path clip-path="url(#clip530)" d="M855.241 1481.64 L862.88 1481.64 L862.88 1455.28 L854.57 1456.95 L854.57 1452.69 L862.834 1451.02 L867.51 1451.02 L867.51 1481.64 L875.149 1481.64 L875.149 1485.58 L855.241 1485.58 L855.241 1481.64 Z" fill="#000000" fill-rule="nonzero" fill-opacity="1" /><path clip-path="url(#clip530)" d="M894.593 1454.1 Q890.982 1454.1 889.153 1457.66 Q887.348 1461.2 887.348 1468.33 Q887.348 1475.44 889.153 1479.01 Q890.982 1482.55 894.593 1482.55 Q898.227 1482.55 900.033 1479.01 Q901.862 1475.44 901.862 1468.33 Q901.862 1461.2 900.033 1457.66 Q898.227 1454.1 894.593 1454.1 M894.593 1450.39 Q900.403 1450.39 903.459 1455 Q906.537 1459.58 906.537 1468.33 Q906.537 1477.06 903.459 1481.67 Q900.403 1486.25 894.593 1486.25 Q888.783 1486.25 885.704 1481.67 Q882.649 1477.06 882.649 1468.33 Q882.649 1459.58 885.704 1455 Q888.783 1450.39 894.593 1450.39 Z" fill="#000000" fill-rule="nonzero" fill-opacity="1" /><path clip-path="url(#clip530)" d="M1425.12 1481.64 L1441.44 1481.64 L1441.44 1485.58 L1419.5 1485.58 L1419.5 1481.64 Q1422.16 1478.89 1426.74 1474.26 Q1431.35 1469.61 1432.53 1468.27 Q1434.78 1465.74 1435.66 1464.01 Q1436.56 1462.25 1436.56 1460.56 Q1436.56 1457.8 1434.61 1456.07 Q1432.69 1454.33 1429.59 1454.33 Q1427.39 1454.33 1424.94 1455.09 Q1422.51 1455.86 1419.73 1457.41 L1419.73 1452.69 Q1422.55 1451.55 1425.01 1450.97 Q1427.46 1450.39 1429.5 1450.39 Q1434.87 1450.39 1438.06 1453.08 Q1441.26 1455.77 1441.26 1460.26 Q1441.26 1462.39 1440.45 1464.31 Q1439.66 1466.2 1437.55 1468.8 Q1436.98 1469.47 1433.87 1472.69 Q1430.77 1475.88 1425.12 1481.64 Z" fill="#000000" fill-rule="nonzero" fill-opacity="1" /><path clip-path="url(#clip530)" d="M1461.26 1454.1 Q1457.65 1454.1 1455.82 1457.66 Q1454.01 1461.2 1454.01 1468.33 Q1454.01 1475.44 1455.82 1479.01 Q1457.65 1482.55 1461.26 1482.55 Q1464.89 1482.55 1466.7 1479.01 Q1468.53 1475.44 1468.53 1468.33 Q1468.53 1461.2 1466.7 1457.66 Q1464.89 1454.1 1461.26 1454.1 M1461.26 1450.39 Q1467.07 1450.39 1470.12 1455 Q1473.2 1459.58 1473.2 1468.33 Q1473.2 1477.06 1470.12 1481.67 Q1467.07 1486.25 1461.26 1486.25 Q1455.45 1486.25 1452.37 1481.67 Q1449.31 1477.06 1449.31 1468.33 Q1449.31 1459.58 1452.37 1455 Q1455.45 1450.39 1461.26 1450.39 Z" fill="#000000" fill-rule="nonzero" fill-opacity="1" /><path clip-path="url(#clip530)" d="M2000.99 1466.95 Q2004.35 1467.66 2006.22 1469.93 Q2008.12 1472.2 2008.12 1475.53 Q2008.12 1480.65 2004.6 1483.45 Q2001.08 1486.25 1994.6 1486.25 Q1992.42 1486.25 1990.11 1485.81 Q1987.82 1485.39 1985.36 1484.54 L1985.36 1480.02 Q1987.31 1481.16 1989.62 1481.74 Q1991.94 1482.32 1994.46 1482.32 Q1998.86 1482.32 2001.15 1480.58 Q2003.47 1478.84 2003.47 1475.53 Q2003.47 1472.48 2001.31 1470.77 Q1999.18 1469.03 1995.36 1469.03 L1991.34 1469.03 L1991.34 1465.19 L1995.55 1465.19 Q1999 1465.19 2000.83 1463.82 Q2002.66 1462.43 2002.66 1459.84 Q2002.66 1457.18 2000.76 1455.77 Q1998.88 1454.33 1995.36 1454.33 Q1993.44 1454.33 1991.24 1454.75 Q1989.04 1455.16 1986.41 1456.04 L1986.41 1451.88 Q1989.07 1451.14 1991.38 1450.77 Q1993.72 1450.39 1995.78 1450.39 Q2001.1 1450.39 2004.21 1452.83 Q2007.31 1455.23 2007.31 1459.35 Q2007.31 1462.22 2005.67 1464.21 Q2004.02 1466.18 2000.99 1466.95 Z" fill="#000000" fill-rule="nonzero" fill-opacity="1" /><path clip-path="url(#clip530)" d="M2026.98 1454.1 Q2023.37 1454.1 2021.54 1457.66 Q2019.74 1461.2 2019.74 1468.33 Q2019.74 1475.44 2021.54 1479.01 Q2023.37 1482.55 2026.98 1482.55 Q2030.62 1482.55 2032.42 1479.01 Q2034.25 1475.44 2034.25 1468.33 Q2034.25 1461.2 2032.42 1457.66 Q2030.62 1454.1 2026.98 1454.1 M2026.98 1450.39 Q2032.79 1450.39 2035.85 1455 Q2038.93 1459.58 2038.93 1468.33 Q2038.93 1477.06 2035.85 1481.67 Q2032.79 1486.25 2026.98 1486.25 Q2021.17 1486.25 2018.1 1481.67 Q2015.04 1477.06 2015.04 1468.33 Q2015.04 1459.58 2018.1 1455 Q2021.17 1450.39 2026.98 1450.39 Z" fill="#000000" fill-rule="nonzero" fill-opacity="1" /><path clip-path="url(#clip530)" d="M1317.37 1518.52 L1323.26 1518.52 L1323.26 1547.77 L1340.73 1532.4 L1348.21 1532.4 L1329.31 1549.07 L1349.01 1568.04 L1341.37 1568.04 L1323.26 1550.63 L1323.26 1568.04 L1317.37 1568.04 L1317.37 1518.52 Z" fill="#000000" fill-rule="nonzero" fill-opacity="1" /><polyline clip-path="url(#clip532)" style="stroke:#000000; stroke-linecap:round; stroke-linejoin:round; stroke-width:2; stroke-opacity:0.1; fill:none" points="313.626,1231.05 2352.76,1231.05 "/>
<polyline clip-path="url(#clip532)" style="stroke:#000000; stroke-linecap:round; stroke-linejoin:round; stroke-width:2; stroke-opacity:0.1; fill:none" points="313.626,801.02 2352.76,801.02 "/>
<polyline clip-path="url(#clip532)" style="stroke:#000000; stroke-linecap:round; stroke-linejoin:round; stroke-width:2; stroke-opacity:0.1; fill:none" points="313.626,370.99 2352.76,370.99 "/>
<polyline clip-path="url(#clip530)" style="stroke:#000000; stroke-linecap:round; stroke-linejoin:round; stroke-width:4; stroke-opacity:1; fill:none" points="313.626,1423.18 313.626,123.472 "/>
<polyline clip-path="url(#clip530)" style="stroke:#000000; stroke-linecap:round; stroke-linejoin:round; stroke-width:4; stroke-opacity:1; fill:none" points="313.626,1231.05 332.524,1231.05 "/>
<polyline clip-path="url(#clip530)" style="stroke:#000000; stroke-linecap:round; stroke-linejoin:round; stroke-width:4; stroke-opacity:1; fill:none" points="313.626,801.02 332.524,801.02 "/>
<polyline clip-path="url(#clip530)" style="stroke:#000000; stroke-linecap:round; stroke-linejoin:round; stroke-width:4; stroke-opacity:1; fill:none" points="313.626,370.99 332.524,370.99 "/>
<path clip-path="url(#clip530)" d="M115.74 1250.84 L123.379 1250.84 L123.379 1224.48 L115.069 1226.14 L115.069 1221.88 L123.333 1220.22 L128.009 1220.22 L128.009 1250.84 L135.647 1250.84 L135.647 1254.78 L115.74 1254.78 L115.74 1250.84 Z" fill="#000000" fill-rule="nonzero" fill-opacity="1" /><path clip-path="url(#clip530)" d="M155.092 1223.3 Q151.481 1223.3 149.652 1226.86 Q147.846 1230.4 147.846 1237.53 Q147.846 1244.64 149.652 1248.2 Q151.481 1251.74 155.092 1251.74 Q158.726 1251.74 160.532 1248.2 Q162.36 1244.64 162.36 1237.53 Q162.36 1230.4 160.532 1226.86 Q158.726 1223.3 155.092 1223.3 M155.092 1219.59 Q160.902 1219.59 163.958 1224.2 Q167.036 1228.78 167.036 1237.53 Q167.036 1246.26 163.958 1250.87 Q160.902 1255.45 155.092 1255.45 Q149.282 1255.45 146.203 1250.87 Q143.147 1246.26 143.147 1237.53 Q143.147 1228.78 146.203 1224.2 Q149.282 1219.59 155.092 1219.59 Z" fill="#000000" fill-rule="nonzero" fill-opacity="1" /><path clip-path="url(#clip530)" d="M167.036 1213.69 L191.148 1213.69 L191.148 1216.89 L167.036 1216.89 L167.036 1213.69 Z" fill="#000000" fill-rule="nonzero" fill-opacity="1" /><path clip-path="url(#clip530)" d="M207.473 1201.79 Q204.539 1201.79 203.053 1204.68 Q201.586 1207.56 201.586 1213.36 Q201.586 1219.13 203.053 1222.03 Q204.539 1224.9 207.473 1224.9 Q210.426 1224.9 211.893 1222.03 Q213.379 1219.13 213.379 1213.36 Q213.379 1207.56 211.893 1204.68 Q210.426 1201.79 207.473 1201.79 M207.473 1198.78 Q212.194 1198.78 214.676 1202.52 Q217.178 1206.25 217.178 1213.36 Q217.178 1220.45 214.676 1224.19 Q212.194 1227.91 207.473 1227.91 Q202.752 1227.91 200.251 1224.19 Q197.768 1220.45 197.768 1213.36 Q197.768 1206.25 200.251 1202.52 Q202.752 1198.78 207.473 1198.78 Z" fill="#000000" fill-rule="nonzero" fill-opacity="1" /><path clip-path="url(#clip530)" d="M223.854 1222.59 L227.823 1222.59 L227.823 1227.37 L223.854 1227.37 L223.854 1222.59 Z" fill="#000000" fill-rule="nonzero" fill-opacity="1" /><path clip-path="url(#clip530)" d="M247.609 1212.23 Q250.336 1212.81 251.859 1214.65 Q253.401 1216.5 253.401 1219.2 Q253.401 1223.36 250.543 1225.64 Q247.684 1227.91 242.418 1227.91 Q240.65 1227.91 238.769 1227.55 Q236.907 1227.22 234.913 1226.52 L234.913 1222.85 Q236.493 1223.77 238.374 1224.24 Q240.255 1224.71 242.305 1224.71 Q245.878 1224.71 247.74 1223.3 Q249.621 1221.89 249.621 1219.2 Q249.621 1216.72 247.872 1215.33 Q246.142 1213.92 243.038 1213.92 L239.766 1213.92 L239.766 1210.8 L243.189 1210.8 Q245.991 1210.8 247.477 1209.69 Q248.963 1208.56 248.963 1206.45 Q248.963 1204.29 247.421 1203.14 Q245.897 1201.98 243.038 1201.98 Q241.477 1201.98 239.691 1202.31 Q237.904 1202.65 235.76 1203.37 L235.76 1199.98 Q237.923 1199.38 239.803 1199.08 Q241.703 1198.78 243.377 1198.78 Q247.703 1198.78 250.223 1200.75 Q252.743 1202.71 252.743 1206.06 Q252.743 1208.39 251.408 1210.01 Q250.073 1211.61 247.609 1212.23 Z" fill="#000000" fill-rule="nonzero" fill-opacity="1" /><path clip-path="url(#clip530)" d="M260.642 1199.29 L275.557 1199.29 L275.557 1202.48 L264.122 1202.48 L264.122 1209.37 Q264.949 1209.09 265.777 1208.95 Q266.605 1208.8 267.432 1208.8 Q272.134 1208.8 274.88 1211.38 Q277.626 1213.96 277.626 1218.36 Q277.626 1222.89 274.805 1225.41 Q271.984 1227.91 266.849 1227.91 Q265.081 1227.91 263.238 1227.61 Q261.414 1227.31 259.458 1226.71 L259.458 1222.89 Q261.15 1223.81 262.956 1224.26 Q264.761 1224.71 266.774 1224.71 Q270.028 1224.71 271.927 1223 Q273.827 1221.29 273.827 1218.36 Q273.827 1215.42 271.927 1213.71 Q270.028 1212 266.774 1212 Q265.25 1212 263.727 1212.34 Q262.222 1212.68 260.642 1213.39 L260.642 1199.29 Z" fill="#000000" fill-rule="nonzero" fill-opacity="1" /><path clip-path="url(#clip530)" d="M114.931 820.812 L122.57 820.812 L122.57 794.447 L114.26 796.113 L114.26 791.854 L122.524 790.187 L127.2 790.187 L127.2 820.812 L134.839 820.812 L134.839 824.747 L114.931 824.747 L114.931 820.812 Z" fill="#000000" fill-rule="nonzero" fill-opacity="1" /><path clip-path="url(#clip530)" d="M154.283 793.266 Q150.672 793.266 148.843 796.831 Q147.038 800.373 147.038 807.502 Q147.038 814.609 148.843 818.173 Q150.672 821.715 154.283 821.715 Q157.917 821.715 159.723 818.173 Q161.552 814.609 161.552 807.502 Q161.552 800.373 159.723 796.831 Q157.917 793.266 154.283 793.266 M154.283 789.562 Q160.093 789.562 163.149 794.169 Q166.227 798.752 166.227 807.502 Q166.227 816.229 163.149 820.835 Q160.093 825.419 154.283 825.419 Q148.473 825.419 145.394 820.835 Q142.339 816.229 142.339 807.502 Q142.339 798.752 145.394 794.169 Q148.473 789.562 154.283 789.562 Z" fill="#000000" fill-rule="nonzero" fill-opacity="1" /><path clip-path="url(#clip530)" d="M166.227 783.664 L190.339 783.664 L190.339 786.861 L166.227 786.861 L166.227 783.664 Z" fill="#000000" fill-rule="nonzero" fill-opacity="1" /><path clip-path="url(#clip530)" d="M206.664 771.758 Q203.73 771.758 202.244 774.655 Q200.777 777.532 200.777 783.325 Q200.777 789.099 202.244 791.996 Q203.73 794.873 206.664 794.873 Q209.617 794.873 211.084 791.996 Q212.57 789.099 212.57 783.325 Q212.57 777.532 211.084 774.655 Q209.617 771.758 206.664 771.758 M206.664 768.749 Q211.385 768.749 213.868 772.492 Q216.369 776.216 216.369 783.325 Q216.369 790.416 213.868 794.159 Q211.385 797.882 206.664 797.882 Q201.943 797.882 199.442 794.159 Q196.959 790.416 196.959 783.325 Q196.959 776.216 199.442 772.492 Q201.943 768.749 206.664 768.749 Z" fill="#000000" fill-rule="nonzero" fill-opacity="1" /><path clip-path="url(#clip530)" d="M223.046 792.56 L227.014 792.56 L227.014 797.337 L223.046 797.337 L223.046 792.56 Z" fill="#000000" fill-rule="nonzero" fill-opacity="1" /><path clip-path="url(#clip530)" d="M246.8 782.197 Q249.527 782.78 251.051 784.623 Q252.593 786.466 252.593 789.174 Q252.593 793.331 249.734 795.607 Q246.875 797.882 241.609 797.882 Q239.841 797.882 237.96 797.525 Q236.098 797.187 234.105 796.491 L234.105 792.823 Q235.685 793.745 237.565 794.215 Q239.446 794.685 241.496 794.685 Q245.07 794.685 246.932 793.275 Q248.812 791.864 248.812 789.174 Q248.812 786.692 247.063 785.3 Q245.333 783.889 242.23 783.889 L238.957 783.889 L238.957 780.767 L242.38 780.767 Q245.182 780.767 246.668 779.658 Q248.154 778.529 248.154 776.423 Q248.154 774.26 246.612 773.113 Q245.088 771.947 242.23 771.947 Q240.669 771.947 238.882 772.285 Q237.095 772.624 234.951 773.338 L234.951 769.953 Q237.114 769.351 238.995 769.05 Q240.894 768.749 242.568 768.749 Q246.894 768.749 249.414 770.724 Q251.934 772.68 251.934 776.028 Q251.934 778.36 250.599 779.977 Q249.264 781.576 246.8 782.197 Z" fill="#000000" fill-rule="nonzero" fill-opacity="1" /><path clip-path="url(#clip530)" d="M267.921 771.758 Q264.987 771.758 263.501 774.655 Q262.034 777.532 262.034 783.325 Q262.034 789.099 263.501 791.996 Q264.987 794.873 267.921 794.873 Q270.874 794.873 272.341 791.996 Q273.827 789.099 273.827 783.325 Q273.827 777.532 272.341 774.655 Q270.874 771.758 267.921 771.758 M267.921 768.749 Q272.642 768.749 275.124 772.492 Q277.626 776.216 277.626 783.325 Q277.626 790.416 275.124 794.159 Q272.642 797.882 267.921 797.882 Q263.2 797.882 260.699 794.159 Q258.216 790.416 258.216 783.325 Q258.216 776.216 260.699 772.492 Q263.2 768.749 267.921 768.749 Z" fill="#000000" fill-rule="nonzero" fill-opacity="1" /><path clip-path="url(#clip530)" d="M115.74 390.783 L123.379 390.783 L123.379 364.417 L115.069 366.084 L115.069 361.824 L123.333 360.158 L128.009 360.158 L128.009 390.783 L135.647 390.783 L135.647 394.718 L115.74 394.718 L115.74 390.783 Z" fill="#000000" fill-rule="nonzero" fill-opacity="1" /><path clip-path="url(#clip530)" d="M155.092 363.236 Q151.481 363.236 149.652 366.801 Q147.846 370.343 147.846 377.472 Q147.846 384.579 149.652 388.144 Q151.481 391.685 155.092 391.685 Q158.726 391.685 160.532 388.144 Q162.36 384.579 162.36 377.472 Q162.36 370.343 160.532 366.801 Q158.726 363.236 155.092 363.236 M155.092 359.533 Q160.902 359.533 163.958 364.139 Q167.036 368.722 167.036 377.472 Q167.036 386.199 163.958 390.806 Q160.902 395.389 155.092 395.389 Q149.282 395.389 146.203 390.806 Q143.147 386.199 143.147 377.472 Q143.147 368.722 146.203 364.139 Q149.282 359.533 155.092 359.533 Z" fill="#000000" fill-rule="nonzero" fill-opacity="1" /><path clip-path="url(#clip530)" d="M167.036 353.634 L191.148 353.634 L191.148 356.831 L167.036 356.831 L167.036 353.634 Z" fill="#000000" fill-rule="nonzero" fill-opacity="1" /><path clip-path="url(#clip530)" d="M207.473 341.729 Q204.539 341.729 203.053 344.625 Q201.586 347.503 201.586 353.295 Q201.586 359.069 203.053 361.966 Q204.539 364.843 207.473 364.843 Q210.426 364.843 211.893 361.966 Q213.379 359.069 213.379 353.295 Q213.379 347.503 211.893 344.625 Q210.426 341.729 207.473 341.729 M207.473 338.719 Q212.194 338.719 214.676 342.462 Q217.178 346.186 217.178 353.295 Q217.178 360.386 214.676 364.129 Q212.194 367.853 207.473 367.853 Q202.752 367.853 200.251 364.129 Q197.768 360.386 197.768 353.295 Q197.768 346.186 200.251 342.462 Q202.752 338.719 207.473 338.719 Z" fill="#000000" fill-rule="nonzero" fill-opacity="1" /><path clip-path="url(#clip530)" d="M223.854 362.53 L227.823 362.53 L227.823 367.307 L223.854 367.307 L223.854 362.53 Z" fill="#000000" fill-rule="nonzero" fill-opacity="1" /><path clip-path="url(#clip530)" d="M239.371 364.11 L252.63 364.11 L252.63 367.307 L234.801 367.307 L234.801 364.11 Q236.963 361.872 240.687 358.11 Q244.43 354.33 245.389 353.239 Q247.214 351.189 247.928 349.778 Q248.662 348.349 248.662 346.976 Q248.662 344.738 247.082 343.327 Q245.521 341.917 243.001 341.917 Q241.214 341.917 239.22 342.537 Q237.246 343.158 234.989 344.418 L234.989 340.581 Q237.283 339.66 239.277 339.19 Q241.27 338.719 242.926 338.719 Q247.289 338.719 249.884 340.901 Q252.48 343.083 252.48 346.732 Q252.48 348.462 251.822 350.023 Q251.182 351.565 249.471 353.672 Q249 354.217 246.48 356.831 Q243.96 359.427 239.371 364.11 Z" fill="#000000" fill-rule="nonzero" fill-opacity="1" /><path clip-path="url(#clip530)" d="M260.642 339.227 L275.557 339.227 L275.557 342.425 L264.122 342.425 L264.122 349.308 Q264.949 349.026 265.777 348.894 Q266.605 348.744 267.432 348.744 Q272.134 348.744 274.88 351.321 Q277.626 353.897 277.626 358.298 Q277.626 362.831 274.805 365.351 Q271.984 367.853 266.849 367.853 Q265.081 367.853 263.238 367.552 Q261.414 367.251 259.458 366.649 L259.458 362.831 Q261.15 363.753 262.956 364.204 Q264.761 364.655 266.774 364.655 Q270.028 364.655 271.927 362.944 Q273.827 361.232 273.827 358.298 Q273.827 355.364 271.927 353.653 Q270.028 351.941 266.774 351.941 Q265.25 351.941 263.727 352.28 Q262.222 352.618 260.642 353.333 L260.642 339.227 Z" fill="#000000" fill-rule="nonzero" fill-opacity="1" /><path clip-path="url(#clip530)" d="M32.4621 801.797 Q32.4621 806.507 36.1542 809.244 Q39.8145 811.982 46.212 811.982 Q52.6095 811.982 56.3017 809.276 Q59.9619 806.539 59.9619 801.797 Q59.9619 797.118 56.2698 794.381 Q52.5777 791.643 46.212 791.643 Q39.8781 791.643 36.186 794.381 Q32.4621 797.118 32.4621 801.797 M27.4968 801.797 Q27.4968 794.158 32.4621 789.797 Q37.4273 785.437 46.212 785.437 Q54.9649 785.437 59.9619 789.797 Q64.9272 794.158 64.9272 801.797 Q64.9272 809.467 59.9619 813.828 Q54.9649 818.156 46.212 818.156 Q37.4273 818.156 32.4621 813.828 Q27.4968 809.467 27.4968 801.797 Z" fill="#000000" fill-rule="nonzero" fill-opacity="1" /><path clip-path="url(#clip530)" d="M46.212 750.139 Q39.7508 750.139 36.0905 752.812 Q32.3984 755.454 32.3984 760.101 Q32.3984 764.748 36.0905 767.422 Q39.7508 770.064 46.212 770.064 Q52.6732 770.064 56.3653 767.422 Q60.0256 764.748 60.0256 760.101 Q60.0256 755.454 56.3653 752.812 Q52.6732 750.139 46.212 750.139 M33.7671 770.064 Q30.5842 768.218 29.0564 765.417 Q27.4968 762.584 27.4968 758.669 Q27.4968 752.176 32.6531 748.134 Q37.8093 744.06 46.212 744.06 Q54.6147 744.06 59.771 748.134 Q64.9272 752.176 64.9272 758.669 Q64.9272 762.584 63.3994 765.417 Q61.8398 768.218 58.657 770.064 L64.0042 770.064 L64.0042 775.952 L14.479 775.952 L14.479 770.064 L33.7671 770.064 Z" fill="#000000" fill-rule="nonzero" fill-opacity="1" /><path clip-path="url(#clip530)" d="M28.3562 734.352 L28.3562 728.495 L64.6407 728.495 Q71.452 728.495 74.5076 731.105 Q77.5631 733.684 77.5631 739.445 L77.5631 741.673 L72.5979 741.673 L72.5979 740.113 Q72.5979 736.771 71.0383 735.561 Q69.5105 734.352 64.6407 734.352 L28.3562 734.352 M14.479 734.352 L14.479 728.495 L21.895 728.495 L21.895 734.352 L14.479 734.352 Z" fill="#000000" fill-rule="nonzero" fill-opacity="1" /><path clip-path="url(#clip530)" d="M987.507 65.7705 L987.507 89.8329 L980.013 89.8329 L980.013 27.2059 L987.507 27.2059 L987.507 34.0924 Q989.857 30.0415 993.421 28.0971 Q997.027 26.1121 1002.01 26.1121 Q1010.27 26.1121 1015.42 32.6746 Q1020.6 39.2371 1020.6 49.9314 Q1020.6 60.6258 1015.42 67.1883 Q1010.27 73.7508 1002.01 73.7508 Q997.027 73.7508 993.421 71.8063 Q989.857 69.8214 987.507 65.7705 M1012.87 49.9314 Q1012.87 41.7081 1009.46 37.0496 Q1006.1 32.3505 1000.19 32.3505 Q994.272 32.3505 990.869 37.0496 Q987.507 41.7081 987.507 49.9314 Q987.507 58.1548 990.869 62.8538 Q994.272 67.5124 1000.19 67.5124 Q1006.1 67.5124 1009.46 62.8538 Q1012.87 58.1548 1012.87 49.9314 Z" fill="#000000" fill-rule="nonzero" fill-opacity="1" /><path clip-path="url(#clip530)" d="M1059.25 34.1734 Q1057.99 33.4443 1056.49 33.1202 Q1055.04 32.7556 1053.25 32.7556 Q1046.93 32.7556 1043.53 36.8875 Q1040.17 40.9789 1040.17 48.6757 L1040.17 72.576 L1032.67 72.576 L1032.67 27.2059 L1040.17 27.2059 L1040.17 34.2544 Q1042.52 30.1225 1046.29 28.1376 Q1050.05 26.1121 1055.44 26.1121 Q1056.21 26.1121 1057.14 26.2337 Q1058.07 26.3147 1059.21 26.5172 L1059.25 34.1734 Z" fill="#000000" fill-rule="nonzero" fill-opacity="1" /><path clip-path="url(#clip530)" d="M1082.82 32.4315 Q1076.83 32.4315 1073.35 37.1306 Q1069.86 41.7891 1069.86 49.9314 Q1069.86 58.0738 1073.31 62.7728 Q1076.79 67.4314 1082.82 67.4314 Q1088.78 67.4314 1092.26 62.7323 Q1095.75 58.0333 1095.75 49.9314 Q1095.75 41.8701 1092.26 37.1711 Q1088.78 32.4315 1082.82 32.4315 M1082.82 26.1121 Q1092.55 26.1121 1098.1 32.4315 Q1103.65 38.7509 1103.65 49.9314 Q1103.65 61.0714 1098.1 67.4314 Q1092.55 73.7508 1082.82 73.7508 Q1073.06 73.7508 1067.51 67.4314 Q1062 61.0714 1062 49.9314 Q1062 38.7509 1067.51 32.4315 Q1073.06 26.1121 1082.82 26.1121 Z" fill="#000000" fill-rule="nonzero" fill-opacity="1" /><path clip-path="url(#clip530)" d="M1148.57 49.9314 Q1148.57 41.7081 1145.17 37.0496 Q1141.81 32.3505 1135.89 32.3505 Q1129.98 32.3505 1126.57 37.0496 Q1123.21 41.7081 1123.21 49.9314 Q1123.21 58.1548 1126.57 62.8538 Q1129.98 67.5124 1135.89 67.5124 Q1141.81 67.5124 1145.17 62.8538 Q1148.57 58.1548 1148.57 49.9314 M1123.21 34.0924 Q1125.56 30.0415 1129.13 28.0971 Q1132.73 26.1121 1137.71 26.1121 Q1145.98 26.1121 1151.12 32.6746 Q1156.31 39.2371 1156.31 49.9314 Q1156.31 60.6258 1151.12 67.1883 Q1145.98 73.7508 1137.71 73.7508 Q1132.73 73.7508 1129.13 71.8063 Q1125.56 69.8214 1123.21 65.7705 L1123.21 72.576 L1115.72 72.576 L1115.72 9.54393 L1123.21 9.54393 L1123.21 34.0924 Z" fill="#000000" fill-rule="nonzero" fill-opacity="1" /><path clip-path="url(#clip530)" d="M1168.66 9.54393 L1176.12 9.54393 L1176.12 72.576 L1168.66 72.576 L1168.66 9.54393 Z" fill="#000000" fill-rule="nonzero" fill-opacity="1" /><path clip-path="url(#clip530)" d="M1230.52 48.0275 L1230.52 51.6733 L1196.25 51.6733 Q1196.74 59.3701 1200.87 63.421 Q1205.04 67.4314 1212.45 67.4314 Q1216.75 67.4314 1220.76 66.3781 Q1224.81 65.3249 1228.78 63.2184 L1228.78 70.267 Q1224.77 71.9684 1220.56 72.8596 Q1216.34 73.7508 1212.01 73.7508 Q1201.15 73.7508 1194.79 67.4314 Q1188.47 61.1119 1188.47 50.3365 Q1188.47 39.1965 1194.47 32.6746 Q1200.5 26.1121 1210.71 26.1121 Q1219.87 26.1121 1225.17 32.0264 Q1230.52 37.9003 1230.52 48.0275 M1223.07 45.84 Q1222.99 39.7232 1219.62 36.0774 Q1216.3 32.4315 1210.79 32.4315 Q1204.55 32.4315 1200.79 35.9558 Q1197.06 39.4801 1196.49 45.8805 L1223.07 45.84 M1204.39 6.22219 L1215.82 21.3726 L1209.62 21.3726 L1196.41 6.22219 L1204.39 6.22219 Z" fill="#000000" fill-rule="nonzero" fill-opacity="1" /><path clip-path="url(#clip530)" d="M1278.08 35.9153 Q1280.87 30.8922 1284.76 28.5022 Q1288.65 26.1121 1293.92 26.1121 Q1301.01 26.1121 1304.85 31.0947 Q1308.7 36.0368 1308.7 45.1919 L1308.7 72.576 L1301.21 72.576 L1301.21 45.4349 Q1301.21 38.913 1298.9 35.7533 Q1296.59 32.5936 1291.85 32.5936 Q1286.06 32.5936 1282.7 36.4419 Q1279.33 40.2903 1279.33 46.9338 L1279.33 72.576 L1271.84 72.576 L1271.84 45.4349 Q1271.84 38.8725 1269.53 35.7533 Q1267.22 32.5936 1262.4 32.5936 Q1256.69 32.5936 1253.33 36.4824 Q1249.97 40.3308 1249.97 46.9338 L1249.97 72.576 L1242.47 72.576 L1242.47 27.2059 L1249.97 27.2059 L1249.97 34.2544 Q1252.52 30.082 1256.08 28.0971 Q1259.65 26.1121 1264.55 26.1121 Q1269.49 26.1121 1272.93 28.6237 Q1276.42 31.1352 1278.08 35.9153 Z" fill="#000000" fill-rule="nonzero" fill-opacity="1" /><path clip-path="url(#clip530)" d="M1362.38 48.0275 L1362.38 51.6733 L1328.11 51.6733 Q1328.59 59.3701 1332.73 63.421 Q1336.9 67.4314 1344.31 67.4314 Q1348.6 67.4314 1352.61 66.3781 Q1356.67 65.3249 1360.64 63.2184 L1360.64 70.267 Q1356.63 71.9684 1352.41 72.8596 Q1348.2 73.7508 1343.87 73.7508 Q1333.01 73.7508 1326.65 67.4314 Q1320.33 61.1119 1320.33 50.3365 Q1320.33 39.1965 1326.32 32.6746 Q1332.36 26.1121 1342.57 26.1121 Q1351.72 26.1121 1357.03 32.0264 Q1362.38 37.9003 1362.38 48.0275 M1354.92 45.84 Q1354.84 39.7232 1351.48 36.0774 Q1348.16 32.4315 1342.65 32.4315 Q1336.41 32.4315 1332.64 35.9558 Q1328.92 39.4801 1328.35 45.8805 L1354.92 45.84 Z" fill="#000000" fill-rule="nonzero" fill-opacity="1" /><path clip-path="url(#clip530)" d="M1402.89 62.2867 L1411.43 62.2867 L1411.43 72.576 L1402.89 72.576 L1402.89 62.2867 M1402.89 29.6769 L1411.43 29.6769 L1411.43 39.9662 L1402.89 39.9662 L1402.89 29.6769 Z" fill="#000000" fill-rule="nonzero" fill-opacity="1" /><path clip-path="url(#clip530)" d="M1462.68 14.324 L1462.68 27.2059 L1478.03 27.2059 L1478.03 32.9987 L1462.68 32.9987 L1462.68 57.6282 Q1462.68 63.1779 1464.18 64.7578 Q1465.72 66.3376 1470.37 66.3376 L1478.03 66.3376 L1478.03 72.576 L1470.37 72.576 Q1461.75 72.576 1458.47 69.3758 Q1455.18 66.1351 1455.18 57.6282 L1455.18 32.9987 L1449.72 32.9987 L1449.72 27.2059 L1455.18 27.2059 L1455.18 14.324 L1462.68 14.324 Z" fill="#000000" fill-rule="nonzero" fill-opacity="1" /><path clip-path="url(#clip530)" d="M1495.04 65.7705 L1495.04 89.8329 L1487.55 89.8329 L1487.55 27.2059 L1495.04 27.2059 L1495.04 34.0924 Q1497.39 30.0415 1500.96 28.0971 Q1504.56 26.1121 1509.55 26.1121 Q1517.81 26.1121 1522.96 32.6746 Q1528.14 39.2371 1528.14 49.9314 Q1528.14 60.6258 1522.96 67.1883 Q1517.81 73.7508 1509.55 73.7508 Q1504.56 73.7508 1500.96 71.8063 Q1497.39 69.8214 1495.04 65.7705 M1520.4 49.9314 Q1520.4 41.7081 1517 37.0496 Q1513.64 32.3505 1507.72 32.3505 Q1501.81 32.3505 1498.41 37.0496 Q1495.04 41.7081 1495.04 49.9314 Q1495.04 58.1548 1498.41 62.8538 Q1501.81 67.5124 1507.72 67.5124 Q1513.64 67.5124 1517 62.8538 Q1520.4 58.1548 1520.4 49.9314 Z" fill="#000000" fill-rule="nonzero" fill-opacity="1" /><path clip-path="url(#clip530)" d="M1548.6 65.6895 L1577.16 65.6895 L1577.16 72.576 L1538.75 72.576 L1538.75 65.6895 Q1543.41 60.8689 1551.43 52.7671 Q1559.49 44.6248 1561.56 42.2752 Q1565.49 37.8598 1567.03 34.8216 Q1568.61 31.7429 1568.61 28.7857 Q1568.61 23.9651 1565.21 20.927 Q1561.84 17.8888 1556.42 17.8888 Q1552.57 17.8888 1548.27 19.2256 Q1544.02 20.5624 1539.16 23.2765 L1539.16 15.0127 Q1544.1 13.0277 1548.4 12.015 Q1552.69 11.0023 1556.25 11.0023 Q1565.65 11.0023 1571.24 15.7013 Q1576.83 20.4004 1576.83 28.2591 Q1576.83 31.9859 1575.41 35.3482 Q1574.04 38.6699 1570.35 43.2069 Q1569.34 44.3817 1563.91 50.0125 Q1558.48 55.6027 1548.6 65.6895 Z" fill="#000000" fill-rule="nonzero" fill-opacity="1" /><path clip-path="url(#clip530)" d="M1611.83 17.4837 Q1605.51 17.4837 1602.31 23.7221 Q1599.15 29.92 1599.15 42.3968 Q1599.15 54.833 1602.31 61.0714 Q1605.51 67.2693 1611.83 67.2693 Q1618.19 67.2693 1621.35 61.0714 Q1624.55 54.833 1624.55 42.3968 Q1624.55 29.92 1621.35 23.7221 Q1618.19 17.4837 1611.83 17.4837 M1611.83 11.0023 Q1622 11.0023 1627.35 19.0636 Q1632.74 27.0843 1632.74 42.3968 Q1632.74 57.6687 1627.35 65.73 Q1622 73.7508 1611.83 73.7508 Q1601.66 73.7508 1596.28 65.73 Q1590.93 57.6687 1590.93 42.3968 Q1590.93 27.0843 1596.28 19.0636 Q1601.66 11.0023 1611.83 11.0023 Z" fill="#000000" fill-rule="nonzero" fill-opacity="1" /><path clip-path="url(#clip530)" d="M1669.6 19.2256 L1648.94 51.5113 L1669.6 51.5113 L1669.6 19.2256 M1667.45 12.096 L1677.74 12.096 L1677.74 51.5113 L1686.37 51.5113 L1686.37 58.3168 L1677.74 58.3168 L1677.74 72.576 L1669.6 72.576 L1669.6 58.3168 L1642.3 58.3168 L1642.3 50.4176 L1667.45 12.096 Z" fill="#000000" fill-rule="nonzero" fill-opacity="1" /><polyline clip-path="url(#clip532)" style="stroke:#009af9; stroke-linecap:round; stroke-linejoin:round; stroke-width:4; stroke-opacity:1; fill:none" points="371.337,160.256 427.917,1238.71 484.496,1345.34 541.076,1370.66 597.656,1381.66 654.235,1385.35 710.815,1385.35 767.395,1385.35 823.974,1385.35 880.554,1385.35 937.133,1385.35 993.713,1385.35 1050.29,1385.35 1106.87,1385.42 1163.45,1385.82 1220.03,1386.38 1276.61,1386.39 1333.19,1386.39 1389.77,1386.39 1446.35,1386.4 1502.93,1386.4 1559.51,1386.4 1616.09,1386.4 1672.67,1386.4 1729.25,1386.4 1785.83,1386.4 1842.41,1386.4 1898.99,1386.4 1955.57,1386.4 2012.15,1386.4 2068.73,1386.4 2125.31,1386.4 2181.89,1386.4 2238.47,1386.4 2295.04,1386.4 "/>
<polyline clip-path="url(#clip532)" style="stroke:#e26f46; stroke-linecap:round; stroke-linejoin:round; stroke-width:4; stroke-opacity:1; fill:none" points="371.337,160.256 427.917,1238.71 484.496,1345.34 541.076,1370.66 597.656,1381.66 654.235,1385.35 710.815,1385.35 767.395,1385.35 823.974,1385.35 880.554,1385.35 937.133,1385.35 993.713,1385.35 1050.29,1385.35 1106.87,1385.42 1163.45,1385.82 1220.03,1386.38 1276.61,1386.39 1333.19,1386.39 1389.77,1386.39 1446.35,1386.4 1502.93,1386.4 1559.51,1386.4 1616.09,1386.4 1672.67,1386.4 1729.25,1386.4 1785.83,1386.4 1842.41,1386.4 1898.99,1386.4 1955.57,1386.4 2012.15,1386.4 2068.73,1386.4 2125.31,1386.4 2181.89,1386.4 2238.47,1386.4 2295.04,1386.4 "/>
<path clip-path="url(#clip530)" d="M1509.3 322.316 L2284.78 322.316 L2284.78 166.796 L1509.3 166.796  Z" fill="#ffffff" fill-rule="evenodd" fill-opacity="1"/>
<polyline clip-path="url(#clip530)" style="stroke:#000000; stroke-linecap:round; stroke-linejoin:round; stroke-width:4; stroke-opacity:1; fill:none" points="1509.3,322.316 2284.78,322.316 2284.78,166.796 1509.3,166.796 1509.3,322.316 "/>
<polyline clip-path="url(#clip530)" style="stroke:#009af9; stroke-linecap:round; stroke-linejoin:round; stroke-width:4; stroke-opacity:1; fill:none" points="1531.96,218.636 1667.9,218.636 "/>
<path clip-path="url(#clip530)" d="M1690.56 201.356 L1695.23 201.356 L1695.23 231.981 L1712.06 231.981 L1712.06 235.916 L1690.56 235.916 L1690.56 201.356 Z" fill="#000000" fill-rule="nonzero" fill-opacity="1" /><path clip-path="url(#clip530)" d="M1716.97 201.356 L1723.94 201.356 L1732.76 224.874 L1741.62 201.356 L1748.59 201.356 L1748.59 235.916 L1744.03 235.916 L1744.03 205.569 L1735.12 229.272 L1730.42 229.272 L1721.51 205.569 L1721.51 235.916 L1716.97 235.916 L1716.97 201.356 Z" fill="#000000" fill-rule="nonzero" fill-opacity="1" /><path clip-path="url(#clip530)" d="M1777.39 243.786 L1777.39 247.096 L1752.76 247.096 L1752.76 243.786 L1777.39 243.786 Z" fill="#000000" fill-rule="nonzero" fill-opacity="1" /><path clip-path="url(#clip530)" d="M1793.13 205.962 L1786.78 223.161 L1799.49 223.161 L1793.13 205.962 M1790.49 201.356 L1795.79 201.356 L1808.96 235.916 L1804.1 235.916 L1800.95 227.05 L1785.37 227.05 L1782.22 235.916 L1777.29 235.916 L1790.49 201.356 Z" fill="#000000" fill-rule="nonzero" fill-opacity="1" /><path clip-path="url(#clip530)" d="M1835.37 220.268 L1835.37 235.916 L1831.11 235.916 L1831.11 220.407 Q1831.11 216.726 1829.68 214.897 Q1828.24 213.069 1825.37 213.069 Q1821.92 213.069 1819.93 215.268 Q1817.94 217.467 1817.94 221.263 L1817.94 235.916 L1813.66 235.916 L1813.66 209.99 L1817.94 209.99 L1817.94 214.018 Q1819.47 211.68 1821.53 210.522 Q1823.61 209.365 1826.32 209.365 Q1830.79 209.365 1833.08 212.143 Q1835.37 214.897 1835.37 220.268 Z" fill="#000000" fill-rule="nonzero" fill-opacity="1" /><path clip-path="url(#clip530)" d="M1860.93 213.925 L1860.93 199.897 L1865.19 199.897 L1865.19 235.916 L1860.93 235.916 L1860.93 232.027 Q1859.58 234.342 1857.52 235.476 Q1855.49 236.587 1852.62 236.587 Q1847.92 236.587 1844.95 232.837 Q1842.01 229.087 1842.01 222.976 Q1842.01 216.865 1844.95 213.115 Q1847.92 209.365 1852.62 209.365 Q1855.49 209.365 1857.52 210.499 Q1859.58 211.61 1860.93 213.925 M1846.41 222.976 Q1846.41 227.675 1848.33 230.36 Q1850.28 233.022 1853.66 233.022 Q1857.04 233.022 1858.98 230.36 Q1860.93 227.675 1860.93 222.976 Q1860.93 218.277 1858.98 215.615 Q1857.04 212.93 1853.66 212.93 Q1850.28 212.93 1848.33 215.615 Q1846.41 218.277 1846.41 222.976 Z" fill="#000000" fill-rule="nonzero" fill-opacity="1" /><path clip-path="url(#clip530)" d="M1888.98 213.971 Q1888.26 213.555 1887.41 213.37 Q1886.57 213.161 1885.56 213.161 Q1881.94 213.161 1880 215.522 Q1878.08 217.86 1878.08 222.258 L1878.08 235.916 L1873.8 235.916 L1873.8 209.99 L1878.08 209.99 L1878.08 214.018 Q1879.42 211.657 1881.57 210.522 Q1883.73 209.365 1886.81 209.365 Q1887.25 209.365 1887.78 209.434 Q1888.31 209.481 1888.96 209.596 L1888.98 213.971 Z" fill="#000000" fill-rule="nonzero" fill-opacity="1" /><path clip-path="url(#clip530)" d="M1914.58 221.888 L1914.58 223.971 L1895 223.971 Q1895.28 228.369 1897.64 230.684 Q1900.02 232.976 1904.26 232.976 Q1906.71 232.976 1909 232.374 Q1911.32 231.772 1913.59 230.569 L1913.59 234.596 Q1911.3 235.568 1908.89 236.078 Q1906.48 236.587 1904 236.587 Q1897.8 236.587 1894.17 232.976 Q1890.56 229.365 1890.56 223.207 Q1890.56 216.842 1893.98 213.115 Q1897.43 209.365 1903.26 209.365 Q1908.5 209.365 1911.53 212.745 Q1914.58 216.101 1914.58 221.888 M1910.32 220.638 Q1910.28 217.143 1908.36 215.059 Q1906.46 212.976 1903.31 212.976 Q1899.75 212.976 1897.59 214.99 Q1895.46 217.004 1895.14 220.661 L1910.32 220.638 Z" fill="#000000" fill-rule="nonzero" fill-opacity="1" /><path clip-path="url(#clip530)" d="M1921.57 209.99 L1925.83 209.99 L1925.83 235.916 L1921.57 235.916 L1921.57 209.99 M1921.57 199.897 L1925.83 199.897 L1925.83 205.291 L1921.57 205.291 L1921.57 199.897 Z" fill="#000000" fill-rule="nonzero" fill-opacity="1" /><path clip-path="url(#clip530)" d="M1954.44 243.786 L1954.44 247.096 L1929.81 247.096 L1929.81 243.786 L1954.44 243.786 Z" fill="#000000" fill-rule="nonzero" fill-opacity="1" /><path clip-path="url(#clip530)" d="M1970.23 222.883 Q1965.07 222.883 1963.08 224.064 Q1961.09 225.244 1961.09 228.092 Q1961.09 230.36 1962.57 231.703 Q1964.07 233.022 1966.64 233.022 Q1970.19 233.022 1972.31 230.522 Q1974.47 227.999 1974.47 223.832 L1974.47 222.883 L1970.23 222.883 M1978.73 221.124 L1978.73 235.916 L1974.47 235.916 L1974.47 231.981 Q1973.01 234.342 1970.83 235.476 Q1968.66 236.587 1965.51 236.587 Q1961.53 236.587 1959.17 234.365 Q1956.83 232.119 1956.83 228.369 Q1956.83 223.994 1959.75 221.772 Q1962.69 219.55 1968.5 219.55 L1974.47 219.55 L1974.47 219.133 Q1974.47 216.194 1972.52 214.596 Q1970.6 212.976 1967.11 212.976 Q1964.88 212.976 1962.78 213.508 Q1960.67 214.041 1958.73 215.106 L1958.73 211.17 Q1961.06 210.268 1963.26 209.828 Q1965.46 209.365 1967.55 209.365 Q1973.17 209.365 1975.95 212.282 Q1978.73 215.198 1978.73 221.124 Z" fill="#000000" fill-rule="nonzero" fill-opacity="1" /><path clip-path="url(#clip530)" d="M1987.5 199.897 L1991.76 199.897 L1991.76 235.916 L1987.5 235.916 L1987.5 199.897 Z" fill="#000000" fill-rule="nonzero" fill-opacity="1" /><path clip-path="url(#clip530)" d="M2004.88 202.629 L2004.88 209.99 L2013.66 209.99 L2013.66 213.3 L2004.88 213.3 L2004.88 227.374 Q2004.88 230.545 2005.74 231.448 Q2006.62 232.351 2009.28 232.351 L2013.66 232.351 L2013.66 235.916 L2009.28 235.916 Q2004.35 235.916 2002.48 234.087 Q2000.6 232.235 2000.6 227.374 L2000.6 213.3 L1997.48 213.3 L1997.48 209.99 L2000.6 209.99 L2000.6 202.629 L2004.88 202.629 Z" fill="#000000" fill-rule="nonzero" fill-opacity="1" /><polyline clip-path="url(#clip530)" style="stroke:#e26f46; stroke-linecap:round; stroke-linejoin:round; stroke-width:4; stroke-opacity:1; fill:none" points="1531.96,270.476 1667.9,270.476 "/>
<path clip-path="url(#clip530)" d="M1690.56 253.196 L1695.23 253.196 L1695.23 283.821 L1712.06 283.821 L1712.06 287.756 L1690.56 287.756 L1690.56 253.196 Z" fill="#000000" fill-rule="nonzero" fill-opacity="1" /><path clip-path="url(#clip530)" d="M1716.97 253.196 L1723.94 253.196 L1732.76 276.714 L1741.62 253.196 L1748.59 253.196 L1748.59 287.756 L1744.03 287.756 L1744.03 257.409 L1735.12 281.112 L1730.42 281.112 L1721.51 257.409 L1721.51 287.756 L1716.97 287.756 L1716.97 253.196 Z" fill="#000000" fill-rule="nonzero" fill-opacity="1" /><path clip-path="url(#clip530)" d="M1777.39 295.626 L1777.39 298.936 L1752.76 298.936 L1752.76 295.626 L1777.39 295.626 Z" fill="#000000" fill-rule="nonzero" fill-opacity="1" /><path clip-path="url(#clip530)" d="M1793.13 257.802 L1786.78 275.001 L1799.49 275.001 L1793.13 257.802 M1790.49 253.196 L1795.79 253.196 L1808.96 287.756 L1804.1 287.756 L1800.95 278.89 L1785.37 278.89 L1782.22 287.756 L1777.29 287.756 L1790.49 253.196 Z" fill="#000000" fill-rule="nonzero" fill-opacity="1" /><path clip-path="url(#clip530)" d="M1835.37 272.108 L1835.37 287.756 L1831.11 287.756 L1831.11 272.247 Q1831.11 268.566 1829.68 266.737 Q1828.24 264.909 1825.37 264.909 Q1821.92 264.909 1819.93 267.108 Q1817.94 269.307 1817.94 273.103 L1817.94 287.756 L1813.66 287.756 L1813.66 261.83 L1817.94 261.83 L1817.94 265.858 Q1819.47 263.52 1821.53 262.362 Q1823.61 261.205 1826.32 261.205 Q1830.79 261.205 1833.08 263.983 Q1835.37 266.737 1835.37 272.108 Z" fill="#000000" fill-rule="nonzero" fill-opacity="1" /><path clip-path="url(#clip530)" d="M1860.93 265.765 L1860.93 251.737 L1865.19 251.737 L1865.19 287.756 L1860.93 287.756 L1860.93 283.867 Q1859.58 286.182 1857.52 287.316 Q1855.49 288.427 1852.62 288.427 Q1847.92 288.427 1844.95 284.677 Q1842.01 280.927 1842.01 274.816 Q1842.01 268.705 1844.95 264.955 Q1847.92 261.205 1852.62 261.205 Q1855.49 261.205 1857.52 262.339 Q1859.58 263.45 1860.93 265.765 M1846.41 274.816 Q1846.41 279.515 1848.33 282.2 Q1850.28 284.862 1853.66 284.862 Q1857.04 284.862 1858.98 282.2 Q1860.93 279.515 1860.93 274.816 Q1860.93 270.117 1858.98 267.455 Q1857.04 264.77 1853.66 264.77 Q1850.28 264.77 1848.33 267.455 Q1846.41 270.117 1846.41 274.816 Z" fill="#000000" fill-rule="nonzero" fill-opacity="1" /><path clip-path="url(#clip530)" d="M1888.98 265.811 Q1888.26 265.395 1887.41 265.21 Q1886.57 265.001 1885.56 265.001 Q1881.94 265.001 1880 267.362 Q1878.08 269.7 1878.08 274.098 L1878.08 287.756 L1873.8 287.756 L1873.8 261.83 L1878.08 261.83 L1878.08 265.858 Q1879.42 263.497 1881.57 262.362 Q1883.73 261.205 1886.81 261.205 Q1887.25 261.205 1887.78 261.274 Q1888.31 261.321 1888.96 261.436 L1888.98 265.811 Z" fill="#000000" fill-rule="nonzero" fill-opacity="1" /><path clip-path="url(#clip530)" d="M1914.58 273.728 L1914.58 275.811 L1895 275.811 Q1895.28 280.209 1897.64 282.524 Q1900.02 284.816 1904.26 284.816 Q1906.71 284.816 1909 284.214 Q1911.32 283.612 1913.59 282.409 L1913.59 286.436 Q1911.3 287.408 1908.89 287.918 Q1906.48 288.427 1904 288.427 Q1897.8 288.427 1894.17 284.816 Q1890.56 281.205 1890.56 275.047 Q1890.56 268.682 1893.98 264.955 Q1897.43 261.205 1903.26 261.205 Q1908.5 261.205 1911.53 264.585 Q1914.58 267.941 1914.58 273.728 M1910.32 272.478 Q1910.28 268.983 1908.36 266.899 Q1906.46 264.816 1903.31 264.816 Q1899.75 264.816 1897.59 266.83 Q1895.46 268.844 1895.14 272.501 L1910.32 272.478 Z" fill="#000000" fill-rule="nonzero" fill-opacity="1" /><path clip-path="url(#clip530)" d="M1921.57 261.83 L1925.83 261.83 L1925.83 287.756 L1921.57 287.756 L1921.57 261.83 M1921.57 251.737 L1925.83 251.737 L1925.83 257.131 L1921.57 257.131 L1921.57 251.737 Z" fill="#000000" fill-rule="nonzero" fill-opacity="1" /><path clip-path="url(#clip530)" d="M1954.44 295.626 L1954.44 298.936 L1929.81 298.936 L1929.81 295.626 L1954.44 295.626 Z" fill="#000000" fill-rule="nonzero" fill-opacity="1" /><path clip-path="url(#clip530)" d="M1970.23 274.723 Q1965.07 274.723 1963.08 275.904 Q1961.09 277.084 1961.09 279.932 Q1961.09 282.2 1962.57 283.543 Q1964.07 284.862 1966.64 284.862 Q1970.19 284.862 1972.31 282.362 Q1974.47 279.839 1974.47 275.672 L1974.47 274.723 L1970.23 274.723 M1978.73 272.964 L1978.73 287.756 L1974.47 287.756 L1974.47 283.821 Q1973.01 286.182 1970.83 287.316 Q1968.66 288.427 1965.51 288.427 Q1961.53 288.427 1959.17 286.205 Q1956.83 283.959 1956.83 280.209 Q1956.83 275.834 1959.75 273.612 Q1962.69 271.39 1968.5 271.39 L1974.47 271.39 L1974.47 270.973 Q1974.47 268.034 1972.52 266.436 Q1970.6 264.816 1967.11 264.816 Q1964.88 264.816 1962.78 265.348 Q1960.67 265.881 1958.73 266.946 L1958.73 263.01 Q1961.06 262.108 1963.26 261.668 Q1965.46 261.205 1967.55 261.205 Q1973.17 261.205 1975.95 264.122 Q1978.73 267.038 1978.73 272.964 Z" fill="#000000" fill-rule="nonzero" fill-opacity="1" /><path clip-path="url(#clip530)" d="M1987.5 251.737 L1991.76 251.737 L1991.76 287.756 L1987.5 287.756 L1987.5 251.737 Z" fill="#000000" fill-rule="nonzero" fill-opacity="1" /><path clip-path="url(#clip530)" d="M2004.88 254.469 L2004.88 261.83 L2013.66 261.83 L2013.66 265.14 L2004.88 265.14 L2004.88 279.214 Q2004.88 282.385 2005.74 283.288 Q2006.62 284.191 2009.28 284.191 L2013.66 284.191 L2013.66 287.756 L2009.28 287.756 Q2004.35 287.756 2002.48 285.927 Q2000.6 284.075 2000.6 279.214 L2000.6 265.14 L1997.48 265.14 L1997.48 261.83 L2000.6 261.83 L2000.6 254.469 L2004.88 254.469 Z" fill="#000000" fill-rule="nonzero" fill-opacity="1" /><path clip-path="url(#clip530)" d="M2038.96 295.626 L2038.96 298.936 L2014.33 298.936 L2014.33 295.626 L2038.96 295.626 Z" fill="#000000" fill-rule="nonzero" fill-opacity="1" /><path clip-path="url(#clip530)" d="M2045.51 274.816 Q2045.51 279.515 2047.43 282.2 Q2049.37 284.862 2052.75 284.862 Q2056.13 284.862 2058.08 282.2 Q2060.02 279.515 2060.02 274.816 Q2060.02 270.117 2058.08 267.455 Q2056.13 264.77 2052.75 264.77 Q2049.37 264.77 2047.43 267.455 Q2045.51 270.117 2045.51 274.816 M2060.02 283.867 Q2058.68 286.182 2056.62 287.316 Q2054.58 288.427 2051.71 288.427 Q2047.01 288.427 2044.05 284.677 Q2041.11 280.927 2041.11 274.816 Q2041.11 268.705 2044.05 264.955 Q2047.01 261.205 2051.71 261.205 Q2054.58 261.205 2056.62 262.339 Q2058.68 263.45 2060.02 265.765 L2060.02 261.83 L2064.28 261.83 L2064.28 297.617 L2060.02 297.617 L2060.02 283.867 Z" fill="#000000" fill-rule="nonzero" fill-opacity="1" /><path clip-path="url(#clip530)" d="M2088.08 265.811 Q2087.36 265.395 2086.5 265.21 Q2085.67 265.001 2084.65 265.001 Q2081.04 265.001 2079.1 267.362 Q2077.18 269.7 2077.18 274.098 L2077.18 287.756 L2072.89 287.756 L2072.89 261.83 L2077.18 261.83 L2077.18 265.858 Q2078.52 263.497 2080.67 262.362 Q2082.82 261.205 2085.9 261.205 Q2086.34 261.205 2086.87 261.274 Q2087.41 261.321 2088.05 261.436 L2088.08 265.811 Z" fill="#000000" fill-rule="nonzero" fill-opacity="1" /><path clip-path="url(#clip530)" d="M2111.9 266.807 Q2113.49 263.936 2115.72 262.571 Q2117.94 261.205 2120.95 261.205 Q2125 261.205 2127.2 264.052 Q2129.4 266.876 2129.4 272.108 L2129.4 287.756 L2125.11 287.756 L2125.11 272.247 Q2125.11 268.52 2123.8 266.714 Q2122.48 264.909 2119.77 264.909 Q2116.46 264.909 2114.54 267.108 Q2112.61 269.307 2112.61 273.103 L2112.61 287.756 L2108.33 287.756 L2108.33 272.247 Q2108.33 268.497 2107.01 266.714 Q2105.69 264.909 2102.94 264.909 Q2099.68 264.909 2097.75 267.131 Q2095.83 269.33 2095.83 273.103 L2095.83 287.756 L2091.55 287.756 L2091.55 261.83 L2095.83 261.83 L2095.83 265.858 Q2097.29 263.473 2099.33 262.339 Q2101.36 261.205 2104.17 261.205 Q2106.99 261.205 2108.96 262.64 Q2110.95 264.075 2111.9 266.807 Z" fill="#000000" fill-rule="nonzero" fill-opacity="1" /><path clip-path="url(#clip530)" d="M2137.45 277.524 L2137.45 261.83 L2141.71 261.83 L2141.71 277.362 Q2141.71 281.043 2143.15 282.895 Q2144.58 284.723 2147.45 284.723 Q2150.9 284.723 2152.89 282.524 Q2154.91 280.325 2154.91 276.529 L2154.91 261.83 L2159.17 261.83 L2159.17 287.756 L2154.91 287.756 L2154.91 283.774 Q2153.36 286.135 2151.3 287.293 Q2149.26 288.427 2146.55 288.427 Q2142.08 288.427 2139.77 285.649 Q2137.45 282.871 2137.45 277.524 M2148.17 261.205 L2148.17 261.205 Z" fill="#000000" fill-rule="nonzero" fill-opacity="1" /><path clip-path="url(#clip530)" d="M2188.12 266.807 Q2189.72 263.936 2191.94 262.571 Q2194.17 261.205 2197.17 261.205 Q2201.23 261.205 2203.42 264.052 Q2205.62 266.876 2205.62 272.108 L2205.62 287.756 L2201.34 287.756 L2201.34 272.247 Q2201.34 268.52 2200.02 266.714 Q2198.7 264.909 2195.99 264.909 Q2192.68 264.909 2190.76 267.108 Q2188.84 269.307 2188.84 273.103 L2188.84 287.756 L2184.56 287.756 L2184.56 272.247 Q2184.56 268.497 2183.24 266.714 Q2181.92 264.909 2179.17 264.909 Q2175.9 264.909 2173.98 267.131 Q2172.06 269.33 2172.06 273.103 L2172.06 287.756 L2167.78 287.756 L2167.78 261.83 L2172.06 261.83 L2172.06 265.858 Q2173.52 263.473 2175.55 262.339 Q2177.59 261.205 2180.39 261.205 Q2183.22 261.205 2185.18 262.64 Q2187.17 264.075 2188.12 266.807 Z" fill="#000000" fill-rule="nonzero" fill-opacity="1" /><path clip-path="url(#clip530)" d="M2218.24 283.867 L2218.24 297.617 L2213.96 297.617 L2213.96 261.83 L2218.24 261.83 L2218.24 265.765 Q2219.58 263.45 2221.62 262.339 Q2223.68 261.205 2226.53 261.205 Q2231.25 261.205 2234.19 264.955 Q2237.15 268.705 2237.15 274.816 Q2237.15 280.927 2234.19 284.677 Q2231.25 288.427 2226.53 288.427 Q2223.68 288.427 2221.62 287.316 Q2219.58 286.182 2218.24 283.867 M2232.73 274.816 Q2232.73 270.117 2230.79 267.455 Q2228.86 264.77 2225.48 264.77 Q2222.1 264.77 2220.16 267.455 Q2218.24 270.117 2218.24 274.816 Q2218.24 279.515 2220.16 282.2 Q2222.1 284.862 2225.48 284.862 Q2228.86 284.862 2230.79 282.2 Q2232.73 279.515 2232.73 274.816 Z" fill="#000000" fill-rule="nonzero" fill-opacity="1" /><path clip-path="url(#clip530)" d="M2260.74 262.594 L2260.74 266.622 Q2258.93 265.696 2256.99 265.233 Q2255.04 264.77 2252.96 264.77 Q2249.79 264.77 2248.19 265.742 Q2246.62 266.714 2246.62 268.659 Q2246.62 270.14 2247.75 270.997 Q2248.89 271.83 2252.31 272.594 L2253.77 272.918 Q2258.31 273.89 2260.21 275.672 Q2262.13 277.432 2262.13 280.603 Q2262.13 284.214 2259.26 286.321 Q2256.41 288.427 2251.41 288.427 Q2249.33 288.427 2247.06 288.01 Q2244.81 287.617 2242.31 286.807 L2242.31 282.409 Q2244.67 283.635 2246.97 284.26 Q2249.26 284.862 2251.5 284.862 Q2254.51 284.862 2256.13 283.844 Q2257.75 282.802 2257.75 280.927 Q2257.75 279.191 2256.57 278.265 Q2255.41 277.339 2251.46 276.483 L2249.98 276.135 Q2246.02 275.302 2244.26 273.589 Q2242.5 271.853 2242.5 268.844 Q2242.5 265.186 2245.09 263.196 Q2247.68 261.205 2252.45 261.205 Q2254.81 261.205 2256.9 261.552 Q2258.98 261.899 2260.74 262.594 Z" fill="#000000" fill-rule="nonzero" fill-opacity="1" /></svg>
