<?xml version="1.0" encoding="utf-8"?>
<svg xmlns="http://www.w3.org/2000/svg" xmlns:xlink="http://www.w3.org/1999/xlink" width="600" height="400" viewBox="0 0 2400 1600">
<defs>
  <clipPath id="clip340">
    <rect x="0" y="0" width="2400" height="1600"/>
  </clipPath>
</defs>
<path clip-path="url(#clip340)" d="M0 1600 L2400 1600 L2400 0 L0 0  Z" fill="#ffffff" fill-rule="evenodd" fill-opacity="1"/>
<defs>
  <clipPath id="clip341">
    <rect x="480" y="0" width="1681" height="1600"/>
  </clipPath>
</defs>
<path clip-path="url(#clip340)" d="M313.626 1423.18 L2352.76 1423.18 L2352.76 123.472 L313.626 123.472  Z" fill="#ffffff" fill-rule="evenodd" fill-opacity="1"/>
<defs>
  <clipPath id="clip342">
    <rect x="313" y="123" width="2040" height="1301"/>
  </clipPath>
</defs>
<polyline clip-path="url(#clip342)" style="stroke:#000000; stroke-linecap:round; stroke-linejoin:round; stroke-width:2; stroke-opacity:0.1; fill:none" points="338.17,1423.18 338.17,123.472 "/>
<polyline clip-path="url(#clip342)" style="stroke:#000000; stroke-linecap:round; stroke-linejoin:round; stroke-width:2; stroke-opacity:0.1; fill:none" points="669.843,1423.18 669.843,123.472 "/>
<polyline clip-path="url(#clip342)" style="stroke:#000000; stroke-linecap:round; stroke-linejoin:round; stroke-width:2; stroke-opacity:0.1; fill:none" points="1001.52,1423.18 1001.52,123.472 "/>
<polyline clip-path="url(#clip342)" style="stroke:#000000; stroke-linecap:round; stroke-linejoin:round; stroke-width:2; stroke-opacity:0.1; fill:none" points="1333.19,1423.18 1333.19,123.472 "/>
<polyline clip-path="url(#clip342)" style="stroke:#000000; stroke-linecap:round; stroke-linejoin:round; stroke-width:2; stroke-opacity:0.1; fill:none" points="1664.86,1423.18 1664.86,123.472 "/>
<polyline clip-path="url(#clip342)" style="stroke:#000000; stroke-linecap:round; stroke-linejoin:round; stroke-width:2; stroke-opacity:0.1; fill:none" points="1996.54,1423.18 1996.54,123.472 "/>
<polyline clip-path="url(#clip342)" style="stroke:#000000; stroke-linecap:round; stroke-linejoin:round; stroke-width:2; stroke-opacity:0.1; fill:none" points="2328.21,1423.18 2328.21,123.472 "/>
<polyline clip-path="url(#clip340)" style="stroke:#000000; stroke-linecap:round; stroke-linejoin:round; stroke-width:4; stroke-opacity:1; fill:none" points="313.626,1423.18 2352.76,1423.18 "/>
<polyline clip-path="url(#clip340)" style="stroke:#000000; stroke-linecap:round; stroke-linejoin:round; stroke-width:4; stroke-opacity:1; fill:none" points="338.17,1423.18 338.17,1404.28 "/>
<polyline clip-path="url(#clip340)" style="stroke:#000000; stroke-linecap:round; stroke-linejoin:round; stroke-width:4; stroke-opacity:1; fill:none" points="669.843,1423.18 669.843,1404.28 "/>
<polyline clip-path="url(#clip340)" style="stroke:#000000; stroke-linecap:round; stroke-linejoin:round; stroke-width:4; stroke-opacity:1; fill:none" points="1001.52,1423.18 1001.52,1404.28 "/>
<polyline clip-path="url(#clip340)" style="stroke:#000000; stroke-linecap:round; stroke-linejoin:round; stroke-width:4; stroke-opacity:1; fill:none" points="1333.19,1423.18 1333.19,1404.28 "/>
<polyline clip-path="url(#clip340)" style="stroke:#000000; stroke-linecap:round; stroke-linejoin:round; stroke-width:4; stroke-opacity:1; fill:none" points="1664.86,1423.18 1664.86,1404.28 "/>
<polyline clip-path="url(#clip340)" style="stroke:#000000; stroke-linecap:round; stroke-linejoin:round; stroke-width:4; stroke-opacity:1; fill:none" points="1996.54,1423.18 1996.54,1404.28 "/>
<polyline clip-path="url(#clip340)" style="stroke:#000000; stroke-linecap:round; stroke-linejoin:round; stroke-width:4; stroke-opacity:1; fill:none" points="2328.21,1423.18 2328.21,1404.28 "/>
<path clip-path="url(#clip340)" d="M338.17 1454.1 Q334.559 1454.1 332.73 1457.66 Q330.924 1461.2 330.924 1468.33 Q330.924 1475.44 332.73 1479.01 Q334.559 1482.55 338.17 1482.55 Q341.804 1482.55 343.61 1479.01 Q345.438 1475.44 345.438 1468.33 Q345.438 1461.2 343.61 1457.66 Q341.804 1454.1 338.17 1454.1 M338.17 1450.39 Q343.98 1450.39 347.035 1455 Q350.114 1459.58 350.114 1468.33 Q350.114 1477.06 347.035 1481.67 Q343.98 1486.25 338.17 1486.25 Q332.36 1486.25 329.281 1481.67 Q326.225 1477.06 326.225 1468.33 Q326.225 1459.58 329.281 1455 Q332.36 1450.39 338.17 1450.39 Z" fill="#000000" fill-rule="nonzero" fill-opacity="1" /><path clip-path="url(#clip340)" d="M644.531 1481.64 L652.17 1481.64 L652.17 1455.28 L643.86 1456.95 L643.86 1452.69 L652.124 1451.02 L656.8 1451.02 L656.8 1481.64 L664.438 1481.64 L664.438 1485.58 L644.531 1485.58 L644.531 1481.64 Z" fill="#000000" fill-rule="nonzero" fill-opacity="1" /><path clip-path="url(#clip340)" d="M683.883 1454.1 Q680.272 1454.1 678.443 1457.66 Q676.637 1461.2 676.637 1468.33 Q676.637 1475.44 678.443 1479.01 Q680.272 1482.55 683.883 1482.55 Q687.517 1482.55 689.323 1479.01 Q691.151 1475.44 691.151 1468.33 Q691.151 1461.2 689.323 1457.66 Q687.517 1454.1 683.883 1454.1 M683.883 1450.39 Q689.693 1450.39 692.748 1455 Q695.827 1459.58 695.827 1468.33 Q695.827 1477.06 692.748 1481.67 Q689.693 1486.25 683.883 1486.25 Q678.073 1486.25 674.994 1481.67 Q671.938 1477.06 671.938 1468.33 Q671.938 1459.58 674.994 1455 Q678.073 1450.39 683.883 1450.39 Z" fill="#000000" fill-rule="nonzero" fill-opacity="1" /><path clip-path="url(#clip340)" d="M980.29 1481.64 L996.61 1481.64 L996.61 1485.58 L974.665 1485.58 L974.665 1481.64 Q977.327 1478.89 981.911 1474.26 Q986.517 1469.61 987.698 1468.27 Q989.943 1465.74 990.823 1464.01 Q991.726 1462.25 991.726 1460.56 Q991.726 1457.8 989.781 1456.07 Q987.86 1454.33 984.758 1454.33 Q982.559 1454.33 980.105 1455.09 Q977.675 1455.86 974.897 1457.41 L974.897 1452.69 Q977.721 1451.55 980.175 1450.97 Q982.628 1450.39 984.665 1450.39 Q990.036 1450.39 993.23 1453.08 Q996.425 1455.77 996.425 1460.26 Q996.425 1462.39 995.614 1464.31 Q994.827 1466.2 992.721 1468.8 Q992.142 1469.47 989.04 1472.69 Q985.939 1475.88 980.29 1481.64 Z" fill="#000000" fill-rule="nonzero" fill-opacity="1" /><path clip-path="url(#clip340)" d="M1016.42 1454.1 Q1012.81 1454.1 1010.98 1457.66 Q1009.18 1461.2 1009.18 1468.33 Q1009.18 1475.44 1010.98 1479.01 Q1012.81 1482.55 1016.42 1482.55 Q1020.06 1482.55 1021.86 1479.01 Q1023.69 1475.44 1023.69 1468.33 Q1023.69 1461.2 1021.86 1457.66 Q1020.06 1454.1 1016.42 1454.1 M1016.42 1450.39 Q1022.23 1450.39 1025.29 1455 Q1028.37 1459.58 1028.37 1468.33 Q1028.37 1477.06 1025.29 1481.67 Q1022.23 1486.25 1016.42 1486.25 Q1010.61 1486.25 1007.54 1481.67 Q1004.48 1477.06 1004.48 1468.33 Q1004.48 1459.58 1007.54 1455 Q1010.61 1450.39 1016.42 1450.39 Z" fill="#000000" fill-rule="nonzero" fill-opacity="1" /><path clip-path="url(#clip340)" d="M1322.03 1466.95 Q1325.39 1467.66 1327.27 1469.93 Q1329.16 1472.2 1329.16 1475.53 Q1329.16 1480.65 1325.64 1483.45 Q1322.13 1486.25 1315.64 1486.25 Q1313.47 1486.25 1311.15 1485.81 Q1308.86 1485.39 1306.41 1484.54 L1306.41 1480.02 Q1308.35 1481.16 1310.67 1481.74 Q1312.98 1482.32 1315.51 1482.32 Q1319.9 1482.32 1322.2 1480.58 Q1324.51 1478.84 1324.51 1475.53 Q1324.51 1472.48 1322.36 1470.77 Q1320.23 1469.03 1316.41 1469.03 L1312.38 1469.03 L1312.38 1465.19 L1316.59 1465.19 Q1320.04 1465.19 1321.87 1463.82 Q1323.7 1462.43 1323.7 1459.84 Q1323.7 1457.18 1321.8 1455.77 Q1319.93 1454.33 1316.41 1454.33 Q1314.49 1454.33 1312.29 1454.75 Q1310.09 1455.16 1307.45 1456.04 L1307.45 1451.88 Q1310.11 1451.14 1312.43 1450.77 Q1314.77 1450.39 1316.83 1450.39 Q1322.15 1450.39 1325.25 1452.83 Q1328.35 1455.23 1328.35 1459.35 Q1328.35 1462.22 1326.71 1464.21 Q1325.07 1466.18 1322.03 1466.95 Z" fill="#000000" fill-rule="nonzero" fill-opacity="1" /><path clip-path="url(#clip340)" d="M1348.03 1454.1 Q1344.42 1454.1 1342.59 1457.66 Q1340.78 1461.2 1340.78 1468.33 Q1340.78 1475.44 1342.59 1479.01 Q1344.42 1482.55 1348.03 1482.55 Q1351.66 1482.55 1353.47 1479.01 Q1355.3 1475.44 1355.3 1468.33 Q1355.3 1461.2 1353.47 1457.66 Q1351.66 1454.1 1348.03 1454.1 M1348.03 1450.39 Q1353.84 1450.39 1356.89 1455 Q1359.97 1459.58 1359.97 1468.33 Q1359.97 1477.06 1356.89 1481.67 Q1353.84 1486.25 1348.03 1486.25 Q1342.22 1486.25 1339.14 1481.67 Q1336.08 1477.06 1336.08 1468.33 Q1336.08 1459.58 1339.14 1455 Q1342.22 1450.39 1348.03 1450.39 Z" fill="#000000" fill-rule="nonzero" fill-opacity="1" /><path clip-path="url(#clip340)" d="M1653.04 1455.09 L1641.23 1473.54 L1653.04 1473.54 L1653.04 1455.09 M1651.81 1451.02 L1657.69 1451.02 L1657.69 1473.54 L1662.62 1473.54 L1662.62 1477.43 L1657.69 1477.43 L1657.69 1485.58 L1653.04 1485.58 L1653.04 1477.43 L1637.43 1477.43 L1637.43 1472.92 L1651.81 1451.02 Z" fill="#000000" fill-rule="nonzero" fill-opacity="1" /><path clip-path="url(#clip340)" d="M1680.35 1454.1 Q1676.74 1454.1 1674.91 1457.66 Q1673.11 1461.2 1673.11 1468.33 Q1673.11 1475.44 1674.91 1479.01 Q1676.74 1482.55 1680.35 1482.55 Q1683.98 1482.55 1685.79 1479.01 Q1687.62 1475.44 1687.62 1468.33 Q1687.62 1461.2 1685.79 1457.66 Q1683.98 1454.1 1680.35 1454.1 M1680.35 1450.39 Q1686.16 1450.39 1689.22 1455 Q1692.3 1459.58 1692.3 1468.33 Q1692.3 1477.06 1689.22 1481.67 Q1686.16 1486.25 1680.35 1486.25 Q1674.54 1486.25 1671.46 1481.67 Q1668.41 1477.06 1668.41 1468.33 Q1668.41 1459.58 1671.46 1455 Q1674.54 1450.39 1680.35 1450.39 Z" fill="#000000" fill-rule="nonzero" fill-opacity="1" /><path clip-path="url(#clip340)" d="M1971.24 1451.02 L1989.59 1451.02 L1989.59 1454.96 L1975.52 1454.96 L1975.52 1463.43 Q1976.54 1463.08 1977.56 1462.92 Q1978.58 1462.73 1979.59 1462.73 Q1985.38 1462.73 1988.76 1465.9 Q1992.14 1469.08 1992.14 1474.49 Q1992.14 1480.07 1988.67 1483.17 Q1985.2 1486.25 1978.88 1486.25 Q1976.7 1486.25 1974.43 1485.88 Q1972.19 1485.51 1969.78 1484.77 L1969.78 1480.07 Q1971.86 1481.2 1974.08 1481.76 Q1976.31 1482.32 1978.78 1482.32 Q1982.79 1482.32 1985.13 1480.21 Q1987.46 1478.1 1987.46 1474.49 Q1987.46 1470.88 1985.13 1468.77 Q1982.79 1466.67 1978.78 1466.67 Q1976.91 1466.67 1975.03 1467.08 Q1973.18 1467.5 1971.24 1468.38 L1971.24 1451.02 Z" fill="#000000" fill-rule="nonzero" fill-opacity="1" /><path clip-path="url(#clip340)" d="M2011.35 1454.1 Q2007.74 1454.1 2005.91 1457.66 Q2004.11 1461.2 2004.11 1468.33 Q2004.11 1475.44 2005.91 1479.01 Q2007.74 1482.55 2011.35 1482.55 Q2014.99 1482.55 2016.79 1479.01 Q2018.62 1475.44 2018.62 1468.33 Q2018.62 1461.2 2016.79 1457.66 Q2014.99 1454.1 2011.35 1454.1 M2011.35 1450.39 Q2017.16 1450.39 2020.22 1455 Q2023.3 1459.58 2023.3 1468.33 Q2023.3 1477.06 2020.22 1481.67 Q2017.16 1486.25 2011.35 1486.25 Q2005.54 1486.25 2002.46 1481.67 Q1999.41 1477.06 1999.41 1468.33 Q1999.41 1459.58 2002.46 1455 Q2005.54 1450.39 2011.35 1450.39 Z" fill="#000000" fill-rule="nonzero" fill-opacity="1" /><path clip-path="url(#clip340)" d="M2313.62 1466.44 Q2310.47 1466.44 2308.62 1468.59 Q2306.79 1470.74 2306.79 1474.49 Q2306.79 1478.22 2308.62 1480.39 Q2310.47 1482.55 2313.62 1482.55 Q2316.77 1482.55 2318.59 1480.39 Q2320.45 1478.22 2320.45 1474.49 Q2320.45 1470.74 2318.59 1468.59 Q2316.77 1466.44 2313.62 1466.44 M2322.9 1451.78 L2322.9 1456.04 Q2321.14 1455.21 2319.33 1454.77 Q2317.55 1454.33 2315.79 1454.33 Q2311.16 1454.33 2308.71 1457.45 Q2306.28 1460.58 2305.93 1466.9 Q2307.3 1464.89 2309.36 1463.82 Q2311.42 1462.73 2313.89 1462.73 Q2319.1 1462.73 2322.11 1465.9 Q2325.14 1469.05 2325.14 1474.49 Q2325.14 1479.82 2322 1483.03 Q2318.85 1486.25 2313.62 1486.25 Q2307.62 1486.25 2304.45 1481.67 Q2301.28 1477.06 2301.28 1468.33 Q2301.28 1460.14 2305.17 1455.28 Q2309.06 1450.39 2315.61 1450.39 Q2317.37 1450.39 2319.15 1450.74 Q2320.96 1451.09 2322.9 1451.78 Z" fill="#000000" fill-rule="nonzero" fill-opacity="1" /><path clip-path="url(#clip340)" d="M2343.2 1454.1 Q2339.59 1454.1 2337.76 1457.66 Q2335.96 1461.2 2335.96 1468.33 Q2335.96 1475.44 2337.76 1479.01 Q2339.59 1482.55 2343.2 1482.55 Q2346.83 1482.55 2348.64 1479.01 Q2350.47 1475.44 2350.47 1468.33 Q2350.47 1461.2 2348.64 1457.66 Q2346.83 1454.1 2343.2 1454.1 M2343.2 1450.39 Q2349.01 1450.39 2352.07 1455 Q2355.14 1459.58 2355.14 1468.33 Q2355.14 1477.06 2352.07 1481.67 Q2349.01 1486.25 2343.2 1486.25 Q2337.39 1486.25 2334.31 1481.67 Q2331.26 1477.06 2331.26 1468.33 Q2331.26 1459.58 2334.31 1455 Q2337.39 1450.39 2343.2 1450.39 Z" fill="#000000" fill-rule="nonzero" fill-opacity="1" /><path clip-path="url(#clip340)" d="M1317.37 1518.52 L1323.26 1518.52 L1323.26 1547.77 L1340.73 1532.4 L1348.21 1532.4 L1329.31 1549.07 L1349.01 1568.04 L1341.37 1568.04 L1323.26 1550.63 L1323.26 1568.04 L1317.37 1568.04 L1317.37 1518.52 Z" fill="#000000" fill-rule="nonzero" fill-opacity="1" /><polyline clip-path="url(#clip342)" style="stroke:#000000; stroke-linecap:round; stroke-linejoin:round; stroke-width:2; stroke-opacity:0.1; fill:none" points="313.626,1231.05 2352.76,1231.05 "/>
<polyline clip-path="url(#clip342)" style="stroke:#000000; stroke-linecap:round; stroke-linejoin:round; stroke-width:2; stroke-opacity:0.1; fill:none" points="313.626,801.02 2352.76,801.02 "/>
<polyline clip-path="url(#clip342)" style="stroke:#000000; stroke-linecap:round; stroke-linejoin:round; stroke-width:2; stroke-opacity:0.1; fill:none" points="313.626,370.99 2352.76,370.99 "/>
<polyline clip-path="url(#clip340)" style="stroke:#000000; stroke-linecap:round; stroke-linejoin:round; stroke-width:4; stroke-opacity:1; fill:none" points="313.626,1423.18 313.626,123.472 "/>
<polyline clip-path="url(#clip340)" style="stroke:#000000; stroke-linecap:round; stroke-linejoin:round; stroke-width:4; stroke-opacity:1; fill:none" points="313.626,1231.05 332.524,1231.05 "/>
<polyline clip-path="url(#clip340)" style="stroke:#000000; stroke-linecap:round; stroke-linejoin:round; stroke-width:4; stroke-opacity:1; fill:none" points="313.626,801.02 332.524,801.02 "/>
<polyline clip-path="url(#clip340)" style="stroke:#000000; stroke-linecap:round; stroke-linejoin:round; stroke-width:4; stroke-opacity:1; fill:none" points="313.626,370.99 332.524,370.99 "/>
<path clip-path="url(#clip340)" d="M115.74 1250.84 L123.379 1250.84 L123.379 1224.48 L115.069 1226.14 L115.069 1221.88 L123.333 1220.22 L128.009 1220.22 L128.009 1250.84 L135.647 1250.84 L135.647 1254.78 L115.74 1254.78 L115.74 1250.84 Z" fill="#000000" fill-rule="nonzero" fill-opacity="1" /><path clip-path="url(#clip340)" d="M155.092 1223.3 Q151.481 1223.3 149.652 1226.86 Q147.846 1230.4 147.846 1237.53 Q147.846 1244.64 149.652 1248.2 Q151.481 1251.74 155.092 1251.74 Q158.726 1251.74 160.532 1248.2 Q162.36 1244.64 162.36 1237.53 Q162.36 1230.4 160.532 1226.86 Q158.726 1223.3 155.092 1223.3 M155.092 1219.59 Q160.902 1219.59 163.958 1224.2 Q167.036 1228.78 167.036 1237.53 Q167.036 1246.26 163.958 1250.87 Q160.902 1255.45 155.092 1255.45 Q149.282 1255.45 146.203 1250.87 Q143.147 1246.26 143.147 1237.53 Q143.147 1228.78 146.203 1224.2 Q149.282 1219.59 155.092 1219.59 Z" fill="#000000" fill-rule="nonzero" fill-opacity="1" /><path clip-path="url(#clip340)" d="M167.036 1213.69 L191.148 1213.69 L191.148 1216.89 L167.036 1216.89 L167.036 1213.69 Z" fill="#000000" fill-rule="nonzero" fill-opacity="1" /><path clip-path="url(#clip340)" d="M207.473 1201.79 Q204.539 1201.79 203.053 1204.68 Q201.586 1207.56 201.586 1213.36 Q201.586 1219.13 203.053 1222.03 Q204.539 1224.9 207.473 1224.9 Q210.426 1224.9 211.893 1222.03 Q213.379 1219.13 213.379 1213.36 Q213.379 1207.56 211.893 1204.68 Q210.426 1201.79 207.473 1201.79 M207.473 1198.78 Q212.194 1198.78 214.676 1202.52 Q217.178 1206.25 217.178 1213.36 Q217.178 1220.45 214.676 1224.19 Q212.194 1227.91 207.473 1227.91 Q202.752 1227.91 200.251 1224.19 Q197.768 1220.45 197.768 1213.36 Q197.768 1206.25 200.251 1202.52 Q202.752 1198.78 207.473 1198.78 Z" fill="#000000" fill-rule="nonzero" fill-opacity="1" /><path clip-path="url(#clip340)" d="M223.854 1222.59 L227.823 1222.59 L227.823 1227.37 L223.854 1227.37 L223.854 1222.59 Z" fill="#000000" fill-rule="nonzero" fill-opacity="1" /><path clip-path="url(#clip340)" d="M247.609 1212.23 Q250.336 1212.81 251.859 1214.65 Q253.401 1216.5 253.401 1219.2 Q253.401 1223.36 250.543 1225.64 Q247.684 1227.91 242.418 1227.91 Q240.65 1227.91 238.769 1227.55 Q236.907 1227.22 234.913 1226.52 L234.913 1222.85 Q236.493 1223.77 238.374 1224.24 Q240.255 1224.71 242.305 1224.71 Q245.878 1224.71 247.74 1223.3 Q249.621 1221.89 249.621 1219.2 Q249.621 1216.72 247.872 1215.33 Q246.142 1213.92 243.038 1213.92 L239.766 1213.92 L239.766 1210.8 L243.189 1210.8 Q245.991 1210.8 247.477 1209.69 Q248.963 1208.56 248.963 1206.45 Q248.963 1204.29 247.421 1203.14 Q245.897 1201.98 243.038 1201.98 Q241.477 1201.98 239.691 1202.31 Q237.904 1202.65 235.76 1203.37 L235.76 1199.98 Q237.923 1199.38 239.803 1199.08 Q241.703 1198.78 243.377 1198.78 Q247.703 1198.78 250.223 1200.75 Q252.743 1202.71 252.743 1206.06 Q252.743 1208.39 251.408 1210.01 Q250.073 1211.61 247.609 1212.23 Z" fill="#000000" fill-rule="nonzero" fill-opacity="1" /><path clip-path="url(#clip340)" d="M260.642 1199.29 L275.557 1199.29 L275.557 1202.48 L264.122 1202.48 L264.122 1209.37 Q264.949 1209.09 265.777 1208.95 Q266.605 1208.8 267.432 1208.8 Q272.134 1208.8 274.88 1211.38 Q277.626 1213.96 277.626 1218.36 Q277.626 1222.89 274.805 1225.41 Q271.984 1227.91 266.849 1227.91 Q265.081 1227.91 263.238 1227.61 Q261.414 1227.31 259.458 1226.71 L259.458 1222.89 Q261.15 1223.81 262.956 1224.26 Q264.761 1224.71 266.774 1224.71 Q270.028 1224.71 271.927 1223 Q273.827 1221.29 273.827 1218.36 Q273.827 1215.42 271.927 1213.71 Q270.028 1212 266.774 1212 Q265.25 1212 263.727 1212.34 Q262.222 1212.68 260.642 1213.39 L260.642 1199.29 Z" fill="#000000" fill-rule="nonzero" fill-opacity="1" /><path clip-path="url(#clip340)" d="M114.931 820.812 L122.57 820.812 L122.57 794.447 L114.26 796.113 L114.26 791.854 L122.524 790.187 L127.2 790.187 L127.2 820.812 L134.839 820.812 L134.839 824.747 L114.931 824.747 L114.931 820.812 Z" fill="#000000" fill-rule="nonzero" fill-opacity="1" /><path clip-path="url(#clip340)" d="M154.283 793.266 Q150.672 793.266 148.843 796.831 Q147.038 800.373 147.038 807.502 Q147.038 814.609 148.843 818.173 Q150.672 821.715 154.283 821.715 Q157.917 821.715 159.723 818.173 Q161.552 814.609 161.552 807.502 Q161.552 800.373 159.723 796.831 Q157.917 793.266 154.283 793.266 M154.283 789.562 Q160.093 789.562 163.149 794.169 Q166.227 798.752 166.227 807.502 Q166.227 816.229 163.149 820.835 Q160.093 825.419 154.283 825.419 Q148.473 825.419 145.394 820.835 Q142.339 816.229 142.339 807.502 Q142.339 798.752 145.394 794.169 Q148.473 789.562 154.283 789.562 Z" fill="#000000" fill-rule="nonzero" fill-opacity="1" /><path clip-path="url(#clip340)" d="M166.227 783.664 L190.339 783.664 L190.339 786.861 L166.227 786.861 L166.227 783.664 Z" fill="#000000" fill-rule="nonzero" fill-opacity="1" /><path clip-path="url(#clip340)" d="M206.664 771.758 Q203.73 771.758 202.244 774.655 Q200.777 777.532 200.777 783.325 Q200.777 789.099 202.244 791.996 Q203.73 794.873 206.664 794.873 Q209.617 794.873 211.084 791.996 Q212.57 789.099 212.57 783.325 Q212.57 777.532 211.084 774.655 Q209.617 771.758 206.664 771.758 M206.664 768.749 Q211.385 768.749 213.868 772.492 Q216.369 776.216 216.369 783.325 Q216.369 790.416 213.868 794.159 Q211.385 797.882 206.664 797.882 Q201.943 797.882 199.442 794.159 Q196.959 790.416 196.959 783.325 Q196.959 776.216 199.442 772.492 Q201.943 768.749 206.664 768.749 Z" fill="#000000" fill-rule="nonzero" fill-opacity="1" /><path clip-path="url(#clip340)" d="M223.046 792.56 L227.014 792.56 L227.014 797.337 L223.046 797.337 L223.046 792.56 Z" fill="#000000" fill-rule="nonzero" fill-opacity="1" /><path clip-path="url(#clip340)" d="M246.8 782.197 Q249.527 782.78 251.051 784.623 Q252.593 786.466 252.593 789.174 Q252.593 793.331 249.734 795.607 Q246.875 797.882 241.609 797.882 Q239.841 797.882 237.96 797.525 Q236.098 797.187 234.105 796.491 L234.105 792.823 Q235.685 793.745 237.565 794.215 Q239.446 794.685 241.496 794.685 Q245.07 794.685 246.932 793.275 Q248.812 791.864 248.812 789.174 Q248.812 786.692 247.063 785.3 Q245.333 783.889 242.23 783.889 L238.957 783.889 L238.957 780.767 L242.38 780.767 Q245.182 780.767 246.668 779.658 Q248.154 778.529 248.154 776.423 Q248.154 774.26 246.612 773.113 Q245.088 771.947 242.23 771.947 Q240.669 771.947 238.882 772.285 Q237.095 772.624 234.951 773.338 L234.951 769.953 Q237.114 769.351 238.995 769.05 Q240.894 768.749 242.568 768.749 Q246.894 768.749 249.414 770.724 Q251.934 772.68 251.934 776.028 Q251.934 778.36 250.599 779.977 Q249.264 781.576 246.8 782.197 Z" fill="#000000" fill-rule="nonzero" fill-opacity="1" /><path clip-path="url(#clip340)" d="M267.921 771.758 Q264.987 771.758 263.501 774.655 Q262.034 777.532 262.034 783.325 Q262.034 789.099 263.501 791.996 Q264.987 794.873 267.921 794.873 Q270.874 794.873 272.341 791.996 Q273.827 789.099 273.827 783.325 Q273.827 777.532 272.341 774.655 Q270.874 771.758 267.921 771.758 M267.921 768.749 Q272.642 768.749 275.124 772.492 Q277.626 776.216 277.626 783.325 Q277.626 790.416 275.124 794.159 Q272.642 797.882 267.921 797.882 Q263.2 797.882 260.699 794.159 Q258.216 790.416 258.216 783.325 Q258.216 776.216 260.699 772.492 Q263.2 768.749 267.921 768.749 Z" fill="#000000" fill-rule="nonzero" fill-opacity="1" /><path clip-path="url(#clip340)" d="M115.74 390.783 L123.379 390.783 L123.379 364.417 L115.069 366.084 L115.069 361.824 L123.333 360.158 L128.009 360.158 L128.009 390.783 L135.647 390.783 L135.647 394.718 L115.74 394.718 L115.74 390.783 Z" fill="#000000" fill-rule="nonzero" fill-opacity="1" /><path clip-path="url(#clip340)" d="M155.092 363.236 Q151.481 363.236 149.652 366.801 Q147.846 370.343 147.846 377.472 Q147.846 384.579 149.652 388.144 Q151.481 391.685 155.092 391.685 Q158.726 391.685 160.532 388.144 Q162.36 384.579 162.36 377.472 Q162.36 370.343 160.532 366.801 Q158.726 363.236 155.092 363.236 M155.092 359.533 Q160.902 359.533 163.958 364.139 Q167.036 368.722 167.036 377.472 Q167.036 386.199 163.958 390.806 Q160.902 395.389 155.092 395.389 Q149.282 395.389 146.203 390.806 Q143.147 386.199 143.147 377.472 Q143.147 368.722 146.203 364.139 Q149.282 359.533 155.092 359.533 Z" fill="#000000" fill-rule="nonzero" fill-opacity="1" /><path clip-path="url(#clip340)" d="M167.036 353.634 L191.148 353.634 L191.148 356.831 L167.036 356.831 L167.036 353.634 Z" fill="#000000" fill-rule="nonzero" fill-opacity="1" /><path clip-path="url(#clip340)" d="M207.473 341.729 Q204.539 341.729 203.053 344.625 Q201.586 347.503 201.586 353.295 Q201.586 359.069 203.053 361.966 Q204.539 364.843 207.473 364.843 Q210.426 364.843 211.893 361.966 Q213.379 359.069 213.379 353.295 Q213.379 347.503 211.893 344.625 Q210.426 341.729 207.473 341.729 M207.473 338.719 Q212.194 338.719 214.676 342.462 Q217.178 346.186 217.178 353.295 Q217.178 360.386 214.676 364.129 Q212.194 367.853 207.473 367.853 Q202.752 367.853 200.251 364.129 Q197.768 360.386 197.768 353.295 Q197.768 346.186 200.251 342.462 Q202.752 338.719 207.473 338.719 Z" fill="#000000" fill-rule="nonzero" fill-opacity="1" /><path clip-path="url(#clip340)" d="M223.854 362.53 L227.823 362.53 L227.823 367.307 L223.854 367.307 L223.854 362.53 Z" fill="#000000" fill-rule="nonzero" fill-opacity="1" /><path clip-path="url(#clip340)" d="M239.371 364.11 L252.63 364.11 L252.63 367.307 L234.801 367.307 L234.801 364.11 Q236.963 361.872 240.687 358.11 Q244.43 354.33 245.389 353.239 Q247.214 351.189 247.928 349.778 Q248.662 348.349 248.662 346.976 Q248.662 344.738 247.082 343.327 Q245.521 341.917 243.001 341.917 Q241.214 341.917 239.22 342.537 Q237.246 343.158 234.989 344.418 L234.989 340.581 Q237.283 339.66 239.277 339.19 Q241.27 338.719 242.926 338.719 Q247.289 338.719 249.884 340.901 Q252.48 343.083 252.48 346.732 Q252.48 348.462 251.822 350.023 Q251.182 351.565 249.471 353.672 Q249 354.217 246.48 356.831 Q243.96 359.427 239.371 364.11 Z" fill="#000000" fill-rule="nonzero" fill-opacity="1" /><path clip-path="url(#clip340)" d="M260.642 339.227 L275.557 339.227 L275.557 342.425 L264.122 342.425 L264.122 349.308 Q264.949 349.026 265.777 348.894 Q266.605 348.744 267.432 348.744 Q272.134 348.744 274.88 351.321 Q277.626 353.897 277.626 358.298 Q277.626 362.831 274.805 365.351 Q271.984 367.853 266.849 367.853 Q265.081 367.853 263.238 367.552 Q261.414 367.251 259.458 366.649 L259.458 362.831 Q261.15 363.753 262.956 364.204 Q264.761 364.655 266.774 364.655 Q270.028 364.655 271.927 362.944 Q273.827 361.232 273.827 358.298 Q273.827 355.364 271.927 353.653 Q270.028 351.941 266.774 351.941 Q265.25 351.941 263.727 352.28 Q262.222 352.618 260.642 353.333 L260.642 339.227 Z" fill="#000000" fill-rule="nonzero" fill-opacity="1" /><path clip-path="url(#clip340)" d="M32.4621 801.797 Q32.4621 806.507 36.1542 809.244 Q39.8145 811.982 46.212 811.982 Q52.6095 811.982 56.3017 809.276 Q59.9619 806.539 59.9619 801.797 Q59.9619 797.118 56.2698 794.381 Q52.5777 791.643 46.212 791.643 Q39.8781 791.643 36.186 794.381 Q32.4621 797.118 32.4621 801.797 M27.4968 801.797 Q27.4968 794.158 32.4621 789.797 Q37.4273 785.437 46.212 785.437 Q54.9649 785.437 59.9619 789.797 Q64.9272 794.158 64.9272 801.797 Q64.9272 809.467 59.9619 813.828 Q54.9649 818.156 46.212 818.156 Q37.4273 818.156 32.4621 813.828 Q27.4968 809.467 27.4968 801.797 Z" fill="#000000" fill-rule="nonzero" fill-opacity="1" /><path clip-path="url(#clip340)" d="M46.212 750.139 Q39.7508 750.139 36.0905 752.812 Q32.3984 755.454 32.3984 760.101 Q32.3984 764.748 36.0905 767.422 Q39.7508 770.064 46.212 770.064 Q52.6732 770.064 56.3653 767.422 Q60.0256 764.748 60.0256 760.101 Q60.0256 755.454 56.3653 752.812 Q52.6732 750.139 46.212 750.139 M33.7671 770.064 Q30.5842 768.218 29.0564 765.417 Q27.4968 762.584 27.4968 758.669 Q27.4968 752.176 32.6531 748.134 Q37.8093 744.06 46.212 744.06 Q54.6147 744.06 59.771 748.134 Q64.9272 752.176 64.9272 758.669 Q64.9272 762.584 63.3994 765.417 Q61.8398 768.218 58.657 770.064 L64.0042 770.064 L64.0042 775.952 L14.479 775.952 L14.479 770.064 L33.7671 770.064 Z" fill="#000000" fill-rule="nonzero" fill-opacity="1" /><path clip-path="url(#clip340)" d="M28.3562 734.352 L28.3562 728.495 L64.6407 728.495 Q71.452 728.495 74.5076 731.105 Q77.5631 733.684 77.5631 739.445 L77.5631 741.673 L72.5979 741.673 L72.5979 740.113 Q72.5979 736.771 71.0383 735.561 Q69.5105 734.352 64.6407 734.352 L28.3562 734.352 M14.479 734.352 L14.479 728.495 L21.895 728.495 L21.895 734.352 L14.479 734.352 Z" fill="#000000" fill-rule="nonzero" fill-opacity="1" /><path clip-path="url(#clip340)" d="M987.507 65.7705 L987.507 89.8329 L980.013 89.8329 L980.013 27.2059 L987.507 27.2059 L987.507 34.0924 Q989.857 30.0415 993.421 28.0971 Q997.027 26.1121 1002.01 26.1121 Q1010.27 26.1121 1015.42 32.6746 Q1020.6 39.2371 1020.6 49.9314 Q1020.6 60.6258 1015.42 67.1883 Q1010.27 73.7508 1002.01 73.7508 Q997.027 73.7508 993.421 71.8063 Q989.857 69.8214 987.507 65.7705 M1012.87 49.9314 Q1012.87 41.7081 1009.46 37.0496 Q1006.1 32.3505 1000.19 32.3505 Q994.272 32.3505 990.869 37.0496 Q987.507 41.7081 987.507 49.9314 Q987.507 58.1548 990.869 62.8538 Q994.272 67.5124 1000.19 67.5124 Q1006.1 67.5124 1009.46 62.8538 Q1012.87 58.1548 1012.87 49.9314 Z" fill="#000000" fill-rule="nonzero" fill-opacity="1" /><path clip-path="url(#clip340)" d="M1059.25 34.1734 Q1057.99 33.4443 1056.49 33.1202 Q1055.04 32.7556 1053.25 32.7556 Q1046.93 32.7556 1043.53 36.8875 Q1040.17 40.9789 1040.17 48.6757 L1040.17 72.576 L1032.67 72.576 L1032.67 27.2059 L1040.17 27.2059 L1040.17 34.2544 Q1042.52 30.1225 1046.29 28.1376 Q1050.05 26.1121 1055.44 26.1121 Q1056.21 26.1121 1057.14 26.2337 Q1058.07 26.3147 1059.21 26.5172 L1059.25 34.1734 Z" fill="#000000" fill-rule="nonzero" fill-opacity="1" /><path clip-path="url(#clip340)" d="M1082.82 32.4315 Q1076.83 32.4315 1073.35 37.1306 Q1069.86 41.7891 1069.86 49.9314 Q1069.86 58.0738 1073.31 62.7728 Q1076.79 67.4314 1082.82 67.4314 Q1088.78 67.4314 1092.26 62.7323 Q1095.75 58.0333 1095.75 49.9314 Q1095.75 41.8701 1092.26 37.1711 Q1088.78 32.4315 1082.82 32.4315 M1082.82 26.1121 Q1092.55 26.1121 1098.1 32.4315 Q1103.65 38.7509 1103.65 49.9314 Q1103.65 61.0714 1098.1 67.4314 Q1092.55 73.7508 1082.82 73.7508 Q1073.06 73.7508 1067.51 67.4314 Q1062 61.0714 1062 49.9314 Q1062 38.7509 1067.51 32.4315 Q1073.06 26.1121 1082.82 26.1121 Z" fill="#000000" fill-rule="nonzero" fill-opacity="1" /><path clip-path="url(#clip340)" d="M1148.57 49.9314 Q1148.57 41.7081 1145.17 37.0496 Q1141.81 32.3505 1135.89 32.3505 Q1129.98 32.3505 1126.57 37.0496 Q1123.21 41.7081 1123.21 49.9314 Q1123.21 58.1548 1126.57 62.8538 Q1129.98 67.5124 1135.89 67.5124 Q1141.81 67.5124 1145.17 62.8538 Q1148.57 58.1548 1148.57 49.9314 M1123.21 34.0924 Q1125.56 30.0415 1129.13 28.0971 Q1132.73 26.1121 1137.71 26.1121 Q1145.98 26.1121 1151.12 32.6746 Q1156.31 39.2371 1156.31 49.9314 Q1156.31 60.6258 1151.12 67.1883 Q1145.98 73.7508 1137.71 73.7508 Q1132.73 73.7508 1129.13 71.8063 Q1125.56 69.8214 1123.21 65.7705 L1123.21 72.576 L1115.72 72.576 L1115.72 9.54393 L1123.21 9.54393 L1123.21 34.0924 Z" fill="#000000" fill-rule="nonzero" fill-opacity="1" /><path clip-path="url(#clip340)" d="M1168.66 9.54393 L1176.12 9.54393 L1176.12 72.576 L1168.66 72.576 L1168.66 9.54393 Z" fill="#000000" fill-rule="nonzero" fill-opacity="1" /><path clip-path="url(#clip340)" d="M1230.52 48.0275 L1230.52 51.6733 L1196.25 51.6733 Q1196.74 59.3701 1200.87 63.421 Q1205.04 67.4314 1212.45 67.4314 Q1216.75 67.4314 1220.76 66.3781 Q1224.81 65.3249 1228.78 63.2184 L1228.78 70.267 Q1224.77 71.9684 1220.56 72.8596 Q1216.34 73.7508 1212.01 73.7508 Q1201.15 73.7508 1194.79 67.4314 Q1188.47 61.1119 1188.47 50.3365 Q1188.47 39.1965 1194.47 32.6746 Q1200.5 26.1121 1210.71 26.1121 Q1219.87 26.1121 1225.17 32.0264 Q1230.52 37.9003 1230.52 48.0275 M1223.07 45.84 Q1222.99 39.7232 1219.62 36.0774 Q1216.3 32.4315 1210.79 32.4315 Q1204.55 32.4315 1200.79 35.9558 Q1197.06 39.4801 1196.49 45.8805 L1223.07 45.84 M1204.39 6.22219 L1215.82 21.3726 L1209.62 21.3726 L1196.41 6.22219 L1204.39 6.22219 Z" fill="#000000" fill-rule="nonzero" fill-opacity="1" /><path clip-path="url(#clip340)" d="M1278.08 35.9153 Q1280.87 30.8922 1284.76 28.5022 Q1288.65 26.1121 1293.92 26.1121 Q1301.01 26.1121 1304.85 31.0947 Q1308.7 36.0368 1308.7 45.1919 L1308.7 72.576 L1301.21 72.576 L1301.21 45.4349 Q1301.21 38.913 1298.9 35.7533 Q1296.59 32.5936 1291.85 32.5936 Q1286.06 32.5936 1282.7 36.4419 Q1279.33 40.2903 1279.33 46.9338 L1279.33 72.576 L1271.84 72.576 L1271.84 45.4349 Q1271.84 38.8725 1269.53 35.7533 Q1267.22 32.5936 1262.4 32.5936 Q1256.69 32.5936 1253.33 36.4824 Q1249.97 40.3308 1249.97 46.9338 L1249.97 72.576 L1242.47 72.576 L1242.47 27.2059 L1249.97 27.2059 L1249.97 34.2544 Q1252.52 30.082 1256.08 28.0971 Q1259.65 26.1121 1264.55 26.1121 Q1269.49 26.1121 1272.93 28.6237 Q1276.42 31.1352 1278.08 35.9153 Z" fill="#000000" fill-rule="nonzero" fill-opacity="1" /><path clip-path="url(#clip340)" d="M1362.38 48.0275 L1362.38 51.6733 L1328.11 51.6733 Q1328.59 59.3701 1332.73 63.421 Q1336.9 67.4314 1344.31 67.4314 Q1348.6 67.4314 1352.61 66.3781 Q1356.67 65.3249 1360.64 63.2184 L1360.64 70.267 Q1356.63 71.9684 1352.41 72.8596 Q1348.2 73.7508 1343.87 73.7508 Q1333.01 73.7508 1326.65 67.4314 Q1320.33 61.1119 1320.33 50.3365 Q1320.33 39.1965 1326.32 32.6746 Q1332.36 26.1121 1342.57 26.1121 Q1351.72 26.1121 1357.03 32.0264 Q1362.38 37.9003 1362.38 48.0275 M1354.92 45.84 Q1354.84 39.7232 1351.48 36.0774 Q1348.16 32.4315 1342.65 32.4315 Q1336.41 32.4315 1332.64 35.9558 Q1328.92 39.4801 1328.35 45.8805 L1354.92 45.84 Z" fill="#000000" fill-rule="nonzero" fill-opacity="1" /><path clip-path="url(#clip340)" d="M1402.89 62.2867 L1411.43 62.2867 L1411.43 72.576 L1402.89 72.576 L1402.89 62.2867 M1402.89 29.6769 L1411.43 29.6769 L1411.43 39.9662 L1402.89 39.9662 L1402.89 29.6769 Z" fill="#000000" fill-rule="nonzero" fill-opacity="1" /><path clip-path="url(#clip340)" d="M1462.68 14.324 L1462.68 27.2059 L1478.03 27.2059 L1478.03 32.9987 L1462.68 32.9987 L1462.68 57.6282 Q1462.68 63.1779 1464.18 64.7578 Q1465.72 66.3376 1470.37 66.3376 L1478.03 66.3376 L1478.03 72.576 L1470.37 72.576 Q1461.75 72.576 1458.47 69.3758 Q1455.18 66.1351 1455.18 57.6282 L1455.18 32.9987 L1449.72 32.9987 L1449.72 27.2059 L1455.18 27.2059 L1455.18 14.324 L1462.68 14.324 Z" fill="#000000" fill-rule="nonzero" fill-opacity="1" /><path clip-path="url(#clip340)" d="M1495.04 65.7705 L1495.04 89.8329 L1487.55 89.8329 L1487.55 27.2059 L1495.04 27.2059 L1495.04 34.0924 Q1497.39 30.0415 1500.96 28.0971 Q1504.56 26.1121 1509.55 26.1121 Q1517.81 26.1121 1522.96 32.6746 Q1528.14 39.2371 1528.14 49.9314 Q1528.14 60.6258 1522.96 67.1883 Q1517.81 73.7508 1509.55 73.7508 Q1504.56 73.7508 1500.96 71.8063 Q1497.39 69.8214 1495.04 65.7705 M1520.4 49.9314 Q1520.4 41.7081 1517 37.0496 Q1513.64 32.3505 1507.72 32.3505 Q1501.81 32.3505 1498.41 37.0496 Q1495.04 41.7081 1495.04 49.9314 Q1495.04 58.1548 1498.41 62.8538 Q1501.81 67.5124 1507.72 67.5124 Q1513.64 67.5124 1517 62.8538 Q1520.4 58.1548 1520.4 49.9314 Z" fill="#000000" fill-rule="nonzero" fill-opacity="1" /><path clip-path="url(#clip340)" d="M1548.6 65.6895 L1577.16 65.6895 L1577.16 72.576 L1538.75 72.576 L1538.75 65.6895 Q1543.41 60.8689 1551.43 52.7671 Q1559.49 44.6248 1561.56 42.2752 Q1565.49 37.8598 1567.03 34.8216 Q1568.61 31.7429 1568.61 28.7857 Q1568.61 23.9651 1565.21 20.927 Q1561.84 17.8888 1556.42 17.8888 Q1552.57 17.8888 1548.27 19.2256 Q1544.02 20.5624 1539.16 23.2765 L1539.16 15.0127 Q1544.1 13.0277 1548.4 12.015 Q1552.69 11.0023 1556.25 11.0023 Q1565.65 11.0023 1571.24 15.7013 Q1576.83 20.4004 1576.83 28.2591 Q1576.83 31.9859 1575.41 35.3482 Q1574.04 38.6699 1570.35 43.2069 Q1569.34 44.3817 1563.91 50.0125 Q1558.48 55.6027 1548.6 65.6895 Z" fill="#000000" fill-rule="nonzero" fill-opacity="1" /><path clip-path="url(#clip340)" d="M1611.83 17.4837 Q1605.51 17.4837 1602.31 23.7221 Q1599.15 29.92 1599.15 42.3968 Q1599.15 54.833 1602.31 61.0714 Q1605.51 67.2693 1611.83 67.2693 Q1618.19 67.2693 1621.35 61.0714 Q1624.55 54.833 1624.55 42.3968 Q1624.55 29.92 1621.35 23.7221 Q1618.19 17.4837 1611.83 17.4837 M1611.83 11.0023 Q1622 11.0023 1627.35 19.0636 Q1632.74 27.0843 1632.74 42.3968 Q1632.74 57.6687 1627.35 65.73 Q1622 73.7508 1611.83 73.7508 Q1601.66 73.7508 1596.28 65.73 Q1590.93 57.6687 1590.93 42.3968 Q1590.93 27.0843 1596.28 19.0636 Q1601.66 11.0023 1611.83 11.0023 Z" fill="#000000" fill-rule="nonzero" fill-opacity="1" /><path clip-path="url(#clip340)" d="M1669.6 19.2256 L1648.94 51.5113 L1669.6 51.5113 L1669.6 19.2256 M1667.45 12.096 L1677.74 12.096 L1677.74 51.5113 L1686.37 51.5113 L1686.37 58.3168 L1677.74 58.3168 L1677.74 72.576 L1669.6 72.576 L1669.6 58.3168 L1642.3 58.3168 L1642.3 50.4176 L1667.45 12.096 Z" fill="#000000" fill-rule="nonzero" fill-opacity="1" /><polyline clip-path="url(#clip342)" style="stroke:#009af9; stroke-linecap:round; stroke-linejoin:round; stroke-width:4; stroke-opacity:1; fill:none" points="371.337,160.256 404.504,1238.71 437.672,1345.34 470.839,1345.34 504.007,1345.34 537.174,1345.34 570.341,1345.34 603.509,1345.34 636.676,1345.34 669.843,1345.34 703.011,1365.24 736.178,1365.24 769.346,1381.88 802.513,1384.84 835.68,1385.72 868.848,1386.19 902.015,1386.37 935.182,1386.37 968.35,1386.39 1001.52,1386.39 1034.68,1386.39 1067.85,1386.4 1101.02,1386.4 1134.19,1386.4 1167.35,1386.4 1200.52,1386.4 1233.69,1386.4 1266.86,1386.4 1300.02,1386.4 1333.19,1386.4 1366.36,1386.4 1399.53,1386.4 1432.69,1386.4 1465.86,1386.4 1499.03,1386.4 1532.2,1386.4 1565.36,1386.4 1598.53,1386.4 1631.7,1386.4 1664.86,1386.4 1698.03,1386.4 1731.2,1386.4 "/>
<polyline clip-path="url(#clip342)" style="stroke:#e26f46; stroke-linecap:round; stroke-linejoin:round; stroke-width:4; stroke-opacity:1; fill:none" points="371.337,160.256 404.504,1238.71 437.672,1349.2 470.839,1354.07 504.007,1354.07 537.174,1354.07 570.341,1354.07 603.509,1354.07 636.676,1354.07 669.843,1354.07 703.011,1354.07 736.178,1354.07 769.346,1382.22 802.513,1385.99 835.68,1386.29 868.848,1386.36 902.015,1386.38 935.182,1386.39 968.35,1386.39 1001.52,1386.39 1034.68,1386.39 1067.85,1386.4 1101.02,1386.4 1134.19,1386.4 1167.35,1386.4 1200.52,1386.4 1233.69,1386.4 1266.86,1386.4 1300.02,1386.4 1333.19,1386.4 1366.36,1386.4 1399.53,1386.4 1432.69,1386.4 1465.86,1386.4 1499.03,1386.4 1532.2,1386.4 1565.36,1386.4 1598.53,1386.4 1631.7,1386.4 1664.86,1386.4 1698.03,1386.4 1731.2,1386.4 1764.37,1386.4 "/>
<polyline clip-path="url(#clip342)" style="stroke:#3da44d; stroke-linecap:round; stroke-linejoin:round; stroke-width:4; stroke-opacity:1; fill:none" points="371.337,160.256 404.504,1238.71 437.672,1362.63 470.839,1373.31 504.007,1378.77 537.174,1381.94 570.341,1383.79 603.509,1384.88 636.676,1385.51 669.843,1385.88 703.011,1386.09 736.178,1386.22 769.346,1386.29 802.513,1386.33 835.68,1386.36 868.848,1386.37 902.015,1386.38 935.182,1386.39 968.35,1386.39 1001.52,1386.39 1034.68,1386.39 1067.85,1386.39 1101.02,1386.4 1134.19,1386.4 1167.35,1386.4 1200.52,1386.4 1233.69,1386.4 1266.86,1386.4 1300.02,1386.4 1333.19,1386.4 1366.36,1386.4 1399.53,1386.4 1432.69,1386.4 1465.86,1386.4 1499.03,1386.4 1532.2,1386.4 1565.36,1386.4 1598.53,1386.4 1631.7,1386.4 1664.86,1386.4 1698.03,1386.4 1731.2,1386.4 1764.37,1386.4 1797.53,1386.4 1830.7,1386.4 1863.87,1386.4 1897.04,1386.4 1930.2,1386.4 1963.37,1386.4 1996.54,1386.4 2029.71,1386.4 2062.87,1386.4 2096.04,1386.4 2129.21,1386.4 2162.38,1386.4 2195.54,1386.4 2228.71,1386.4 2261.88,1386.4 2295.04,1386.4 "/>
<path clip-path="url(#clip340)" d="M1517.36 374.156 L2284.78 374.156 L2284.78 166.796 L1517.36 166.796  Z" fill="#ffffff" fill-rule="evenodd" fill-opacity="1"/>
<polyline clip-path="url(#clip340)" style="stroke:#000000; stroke-linecap:round; stroke-linejoin:round; stroke-width:4; stroke-opacity:1; fill:none" points="1517.36,374.156 2284.78,374.156 2284.78,166.796 1517.36,166.796 1517.36,374.156 "/>
<polyline clip-path="url(#clip340)" style="stroke:#009af9; stroke-linecap:round; stroke-linejoin:round; stroke-width:4; stroke-opacity:1; fill:none" points="1540.01,218.636 1675.96,218.636 "/>
<path clip-path="url(#clip340)" d="M1698.61 201.356 L1703.29 201.356 L1703.29 231.981 L1720.12 231.981 L1720.12 235.916 L1698.61 235.916 L1698.61 201.356 Z" fill="#000000" fill-rule="nonzero" fill-opacity="1" /><path clip-path="url(#clip340)" d="M1725.02 201.356 L1731.99 201.356 L1740.81 224.874 L1749.68 201.356 L1756.64 201.356 L1756.64 235.916 L1752.08 235.916 L1752.08 205.569 L1743.17 229.272 L1738.47 229.272 L1729.56 205.569 L1729.56 235.916 L1725.02 235.916 L1725.02 201.356 Z" fill="#000000" fill-rule="nonzero" fill-opacity="1" /><path clip-path="url(#clip340)" d="M1785.44 243.786 L1785.44 247.096 L1760.81 247.096 L1760.81 243.786 L1785.44 243.786 Z" fill="#000000" fill-rule="nonzero" fill-opacity="1" /><path clip-path="url(#clip340)" d="M1801.18 205.962 L1794.84 223.161 L1807.55 223.161 L1801.18 205.962 M1798.54 201.356 L1803.84 201.356 L1817.01 235.916 L1812.15 235.916 L1809.01 227.05 L1793.43 227.05 L1790.28 235.916 L1785.35 235.916 L1798.54 201.356 Z" fill="#000000" fill-rule="nonzero" fill-opacity="1" /><path clip-path="url(#clip340)" d="M1843.43 220.268 L1843.43 235.916 L1839.17 235.916 L1839.17 220.407 Q1839.17 216.726 1837.73 214.897 Q1836.3 213.069 1833.43 213.069 Q1829.98 213.069 1827.99 215.268 Q1826 217.467 1826 221.263 L1826 235.916 L1821.71 235.916 L1821.71 209.99 L1826 209.99 L1826 214.018 Q1827.52 211.68 1829.58 210.522 Q1831.67 209.365 1834.38 209.365 Q1838.84 209.365 1841.13 212.143 Q1843.43 214.897 1843.43 220.268 Z" fill="#000000" fill-rule="nonzero" fill-opacity="1" /><path clip-path="url(#clip340)" d="M1868.98 213.925 L1868.98 199.897 L1873.24 199.897 L1873.24 235.916 L1868.98 235.916 L1868.98 232.027 Q1867.64 234.342 1865.58 235.476 Q1863.54 236.587 1860.67 236.587 Q1855.97 236.587 1853.01 232.837 Q1850.07 229.087 1850.07 222.976 Q1850.07 216.865 1853.01 213.115 Q1855.97 209.365 1860.67 209.365 Q1863.54 209.365 1865.58 210.499 Q1867.64 211.61 1868.98 213.925 M1854.47 222.976 Q1854.47 227.675 1856.39 230.36 Q1858.33 233.022 1861.71 233.022 Q1865.09 233.022 1867.04 230.36 Q1868.98 227.675 1868.98 222.976 Q1868.98 218.277 1867.04 215.615 Q1865.09 212.93 1861.71 212.93 Q1858.33 212.93 1856.39 215.615 Q1854.47 218.277 1854.47 222.976 Z" fill="#000000" fill-rule="nonzero" fill-opacity="1" /><path clip-path="url(#clip340)" d="M1897.04 213.971 Q1896.32 213.555 1895.46 213.37 Q1894.63 213.161 1893.61 213.161 Q1890 213.161 1888.06 215.522 Q1886.13 217.86 1886.13 222.258 L1886.13 235.916 L1881.85 235.916 L1881.85 209.99 L1886.13 209.99 L1886.13 214.018 Q1887.48 211.657 1889.63 210.522 Q1891.78 209.365 1894.86 209.365 Q1895.3 209.365 1895.83 209.434 Q1896.37 209.481 1897.01 209.596 L1897.04 213.971 Z" fill="#000000" fill-rule="nonzero" fill-opacity="1" /><path clip-path="url(#clip340)" d="M1922.64 221.888 L1922.64 223.971 L1903.06 223.971 Q1903.33 228.369 1905.69 230.684 Q1908.08 232.976 1912.31 232.976 Q1914.77 232.976 1917.06 232.374 Q1919.38 231.772 1921.64 230.569 L1921.64 234.596 Q1919.35 235.568 1916.94 236.078 Q1914.54 236.587 1912.06 236.587 Q1905.86 236.587 1902.22 232.976 Q1898.61 229.365 1898.61 223.207 Q1898.61 216.842 1902.04 213.115 Q1905.49 209.365 1911.32 209.365 Q1916.55 209.365 1919.58 212.745 Q1922.64 216.101 1922.64 221.888 M1918.38 220.638 Q1918.33 217.143 1916.41 215.059 Q1914.51 212.976 1911.37 212.976 Q1907.8 212.976 1905.65 214.99 Q1903.52 217.004 1903.19 220.661 L1918.38 220.638 Z" fill="#000000" fill-rule="nonzero" fill-opacity="1" /><path clip-path="url(#clip340)" d="M1929.63 209.99 L1933.89 209.99 L1933.89 235.916 L1929.63 235.916 L1929.63 209.99 M1929.63 199.897 L1933.89 199.897 L1933.89 205.291 L1929.63 205.291 L1929.63 199.897 Z" fill="#000000" fill-rule="nonzero" fill-opacity="1" /><path clip-path="url(#clip340)" d="M1962.5 243.786 L1962.5 247.096 L1937.87 247.096 L1937.87 243.786 L1962.5 243.786 Z" fill="#000000" fill-rule="nonzero" fill-opacity="1" /><path clip-path="url(#clip340)" d="M1969.05 222.976 Q1969.05 227.675 1970.97 230.36 Q1972.92 233.022 1976.3 233.022 Q1979.68 233.022 1981.62 230.36 Q1983.56 227.675 1983.56 222.976 Q1983.56 218.277 1981.62 215.615 Q1979.68 212.93 1976.3 212.93 Q1972.92 212.93 1970.97 215.615 Q1969.05 218.277 1969.05 222.976 M1983.56 232.027 Q1982.22 234.342 1980.16 235.476 Q1978.12 236.587 1975.25 236.587 Q1970.56 236.587 1967.59 232.837 Q1964.65 229.087 1964.65 222.976 Q1964.65 216.865 1967.59 213.115 Q1970.56 209.365 1975.25 209.365 Q1978.12 209.365 1980.16 210.499 Q1982.22 211.61 1983.56 213.925 L1983.56 209.99 L1987.82 209.99 L1987.82 245.777 L1983.56 245.777 L1983.56 232.027 Z" fill="#000000" fill-rule="nonzero" fill-opacity="1" /><path clip-path="url(#clip340)" d="M1996.16 225.684 L1996.16 209.99 L2000.42 209.99 L2000.42 225.522 Q2000.42 229.203 2001.85 231.055 Q2003.29 232.883 2006.16 232.883 Q2009.61 232.883 2011.6 230.684 Q2013.61 228.485 2013.61 224.689 L2013.61 209.99 L2017.87 209.99 L2017.87 235.916 L2013.61 235.916 L2013.61 231.934 Q2012.06 234.295 2010 235.453 Q2007.96 236.587 2005.25 236.587 Q2000.79 236.587 1998.47 233.809 Q1996.16 231.031 1996.16 225.684 M2006.87 209.365 L2006.87 209.365 Z" fill="#000000" fill-rule="nonzero" fill-opacity="1" /><path clip-path="url(#clip340)" d="M2038.43 222.883 Q2033.26 222.883 2031.27 224.064 Q2029.28 225.244 2029.28 228.092 Q2029.28 230.36 2030.76 231.703 Q2032.27 233.022 2034.84 233.022 Q2038.38 233.022 2040.51 230.522 Q2042.66 227.999 2042.66 223.832 L2042.66 222.883 L2038.43 222.883 M2046.92 221.124 L2046.92 235.916 L2042.66 235.916 L2042.66 231.981 Q2041.2 234.342 2039.03 235.476 Q2036.85 236.587 2033.7 236.587 Q2029.72 236.587 2027.36 234.365 Q2025.02 232.119 2025.02 228.369 Q2025.02 223.994 2027.94 221.772 Q2030.88 219.55 2036.69 219.55 L2042.66 219.55 L2042.66 219.133 Q2042.66 216.194 2040.72 214.596 Q2038.8 212.976 2035.3 212.976 Q2033.08 212.976 2030.97 213.508 Q2028.87 214.041 2026.92 215.106 L2026.92 211.17 Q2029.26 210.268 2031.46 209.828 Q2033.66 209.365 2035.74 209.365 Q2041.37 209.365 2044.14 212.282 Q2046.92 215.198 2046.92 221.124 Z" fill="#000000" fill-rule="nonzero" fill-opacity="1" /><path clip-path="url(#clip340)" d="M2072.22 210.754 L2072.22 214.782 Q2070.42 213.856 2068.47 213.393 Q2066.53 212.93 2064.44 212.93 Q2061.27 212.93 2059.68 213.902 Q2058.1 214.874 2058.1 216.819 Q2058.1 218.3 2059.24 219.157 Q2060.37 219.99 2063.8 220.754 L2065.25 221.078 Q2069.79 222.05 2071.69 223.832 Q2073.61 225.592 2073.61 228.763 Q2073.61 232.374 2070.74 234.481 Q2067.89 236.587 2062.89 236.587 Q2060.81 236.587 2058.54 236.17 Q2056.3 235.777 2053.8 234.967 L2053.8 230.569 Q2056.16 231.795 2058.45 232.42 Q2060.74 233.022 2062.99 233.022 Q2065.99 233.022 2067.62 232.004 Q2069.24 230.962 2069.24 229.087 Q2069.24 227.351 2068.05 226.425 Q2066.9 225.499 2062.94 224.643 L2061.46 224.295 Q2057.5 223.462 2055.74 221.749 Q2053.98 220.013 2053.98 217.004 Q2053.98 213.346 2056.57 211.356 Q2059.17 209.365 2063.93 209.365 Q2066.3 209.365 2068.38 209.712 Q2070.46 210.059 2072.22 210.754 Z" fill="#000000" fill-rule="nonzero" fill-opacity="1" /><path clip-path="url(#clip340)" d="M2080.39 209.99 L2084.65 209.99 L2084.65 235.916 L2080.39 235.916 L2080.39 209.99 M2080.39 199.897 L2084.65 199.897 L2084.65 205.291 L2080.39 205.291 L2080.39 199.897 Z" fill="#000000" fill-rule="nonzero" fill-opacity="1" /><path clip-path="url(#clip340)" d="M2113.26 243.786 L2113.26 247.096 L2088.63 247.096 L2088.63 243.786 L2113.26 243.786 Z" fill="#000000" fill-rule="nonzero" fill-opacity="1" /><path clip-path="url(#clip340)" d="M2138.82 220.268 L2138.82 235.916 L2134.56 235.916 L2134.56 220.407 Q2134.56 216.726 2133.12 214.897 Q2131.69 213.069 2128.82 213.069 Q2125.37 213.069 2123.38 215.268 Q2121.39 217.467 2121.39 221.263 L2121.39 235.916 L2117.11 235.916 L2117.11 209.99 L2121.39 209.99 L2121.39 214.018 Q2122.92 211.68 2124.98 210.522 Q2127.06 209.365 2129.77 209.365 Q2134.24 209.365 2136.53 212.143 Q2138.82 214.897 2138.82 220.268 Z" fill="#000000" fill-rule="nonzero" fill-opacity="1" /><path clip-path="url(#clip340)" d="M2146.87 225.684 L2146.87 209.99 L2151.13 209.99 L2151.13 225.522 Q2151.13 229.203 2152.57 231.055 Q2154 232.883 2156.87 232.883 Q2160.32 232.883 2162.31 230.684 Q2164.33 228.485 2164.33 224.689 L2164.33 209.99 L2168.59 209.99 L2168.59 235.916 L2164.33 235.916 L2164.33 231.934 Q2162.78 234.295 2160.72 235.453 Q2158.68 236.587 2155.97 236.587 Q2151.5 236.587 2149.19 233.809 Q2146.87 231.031 2146.87 225.684 M2157.59 209.365 L2157.59 209.365 Z" fill="#000000" fill-rule="nonzero" fill-opacity="1" /><path clip-path="url(#clip340)" d="M2177.36 199.897 L2181.62 199.897 L2181.62 235.916 L2177.36 235.916 L2177.36 199.897 Z" fill="#000000" fill-rule="nonzero" fill-opacity="1" /><path clip-path="url(#clip340)" d="M2210.23 243.786 L2210.23 247.096 L2185.6 247.096 L2185.6 243.786 L2210.23 243.786 Z" fill="#000000" fill-rule="nonzero" fill-opacity="1" /><path clip-path="url(#clip340)" d="M2214.23 199.897 L2218.49 199.897 L2218.49 235.916 L2214.23 235.916 L2214.23 199.897 Z" fill="#000000" fill-rule="nonzero" fill-opacity="1" /><path clip-path="url(#clip340)" d="M2227.41 209.99 L2231.67 209.99 L2231.67 235.916 L2227.41 235.916 L2227.41 209.99 M2227.41 199.897 L2231.67 199.897 L2231.67 205.291 L2227.41 205.291 L2227.41 199.897 Z" fill="#000000" fill-rule="nonzero" fill-opacity="1" /><path clip-path="url(#clip340)" d="M2262.13 220.268 L2262.13 235.916 L2257.87 235.916 L2257.87 220.407 Q2257.87 216.726 2256.43 214.897 Q2255 213.069 2252.13 213.069 Q2248.68 213.069 2246.69 215.268 Q2244.7 217.467 2244.7 221.263 L2244.7 235.916 L2240.42 235.916 L2240.42 209.99 L2244.7 209.99 L2244.7 214.018 Q2246.23 211.68 2248.29 210.522 Q2250.37 209.365 2253.08 209.365 Q2257.54 209.365 2259.84 212.143 Q2262.13 214.897 2262.13 220.268 Z" fill="#000000" fill-rule="nonzero" fill-opacity="1" /><polyline clip-path="url(#clip340)" style="stroke:#e26f46; stroke-linecap:round; stroke-linejoin:round; stroke-width:4; stroke-opacity:1; fill:none" points="1540.01,270.476 1675.96,270.476 "/>
<path clip-path="url(#clip340)" d="M1698.61 253.196 L1703.29 253.196 L1703.29 283.821 L1720.12 283.821 L1720.12 287.756 L1698.61 287.756 L1698.61 253.196 Z" fill="#000000" fill-rule="nonzero" fill-opacity="1" /><path clip-path="url(#clip340)" d="M1725.02 253.196 L1731.99 253.196 L1740.81 276.714 L1749.68 253.196 L1756.64 253.196 L1756.64 287.756 L1752.08 287.756 L1752.08 257.409 L1743.17 281.112 L1738.47 281.112 L1729.56 257.409 L1729.56 287.756 L1725.02 287.756 L1725.02 253.196 Z" fill="#000000" fill-rule="nonzero" fill-opacity="1" /><path clip-path="url(#clip340)" d="M1785.44 295.626 L1785.44 298.936 L1760.81 298.936 L1760.81 295.626 L1785.44 295.626 Z" fill="#000000" fill-rule="nonzero" fill-opacity="1" /><path clip-path="url(#clip340)" d="M1787.64 253.196 L1814.79 253.196 L1814.79 256.761 L1792.94 283.821 L1815.32 283.821 L1815.32 287.756 L1787.11 287.756 L1787.11 284.191 L1808.96 257.131 L1787.64 257.131 L1787.64 253.196 Z" fill="#000000" fill-rule="nonzero" fill-opacity="1" /><path clip-path="url(#clip340)" d="M1843.47 272.108 L1843.47 287.756 L1839.21 287.756 L1839.21 272.247 Q1839.21 268.566 1837.78 266.737 Q1836.34 264.909 1833.47 264.909 Q1830.02 264.909 1828.03 267.108 Q1826.04 269.307 1826.04 273.103 L1826.04 287.756 L1821.76 287.756 L1821.76 251.737 L1826.04 251.737 L1826.04 265.858 Q1827.57 263.52 1829.63 262.362 Q1831.71 261.205 1834.42 261.205 Q1838.89 261.205 1841.18 263.983 Q1843.47 266.737 1843.47 272.108 Z" fill="#000000" fill-rule="nonzero" fill-opacity="1" /><path clip-path="url(#clip340)" d="M1851.53 277.524 L1851.53 261.83 L1855.79 261.83 L1855.79 277.362 Q1855.79 281.043 1857.22 282.895 Q1858.66 284.723 1861.53 284.723 Q1864.98 284.723 1866.97 282.524 Q1868.98 280.325 1868.98 276.529 L1868.98 261.83 L1873.24 261.83 L1873.24 287.756 L1868.98 287.756 L1868.98 283.774 Q1867.43 286.135 1865.37 287.293 Q1863.33 288.427 1860.63 288.427 Q1856.16 288.427 1853.84 285.649 Q1851.53 282.871 1851.53 277.524 M1862.25 261.205 L1862.25 261.205 Z" fill="#000000" fill-rule="nonzero" fill-opacity="1" /><path clip-path="url(#clip340)" d="M1901.71 295.626 L1901.71 298.936 L1877.08 298.936 L1877.08 295.626 L1901.71 295.626 Z" fill="#000000" fill-rule="nonzero" fill-opacity="1" /><path clip-path="url(#clip340)" d="M1908.26 274.816 Q1908.26 279.515 1910.19 282.2 Q1912.13 284.862 1915.51 284.862 Q1918.89 284.862 1920.83 282.2 Q1922.78 279.515 1922.78 274.816 Q1922.78 270.117 1920.83 267.455 Q1918.89 264.77 1915.51 264.77 Q1912.13 264.77 1910.19 267.455 Q1908.26 270.117 1908.26 274.816 M1922.78 283.867 Q1921.44 286.182 1919.38 287.316 Q1917.34 288.427 1914.47 288.427 Q1909.77 288.427 1906.81 284.677 Q1903.87 280.927 1903.87 274.816 Q1903.87 268.705 1906.81 264.955 Q1909.77 261.205 1914.47 261.205 Q1917.34 261.205 1919.38 262.339 Q1921.44 263.45 1922.78 265.765 L1922.78 261.83 L1927.04 261.83 L1927.04 297.617 L1922.78 297.617 L1922.78 283.867 Z" fill="#000000" fill-rule="nonzero" fill-opacity="1" /><path clip-path="url(#clip340)" d="M1935.37 277.524 L1935.37 261.83 L1939.63 261.83 L1939.63 277.362 Q1939.63 281.043 1941.06 282.895 Q1942.5 284.723 1945.37 284.723 Q1948.82 284.723 1950.81 282.524 Q1952.82 280.325 1952.82 276.529 L1952.82 261.83 L1957.08 261.83 L1957.08 287.756 L1952.82 287.756 L1952.82 283.774 Q1951.27 286.135 1949.21 287.293 Q1947.18 288.427 1944.47 288.427 Q1940 288.427 1937.69 285.649 Q1935.37 282.871 1935.37 277.524 M1946.09 261.205 L1946.09 261.205 Z" fill="#000000" fill-rule="nonzero" fill-opacity="1" /><path clip-path="url(#clip340)" d="M1977.64 274.723 Q1972.48 274.723 1970.49 275.904 Q1968.5 277.084 1968.5 279.932 Q1968.5 282.2 1969.98 283.543 Q1971.48 284.862 1974.05 284.862 Q1977.59 284.862 1979.72 282.362 Q1981.87 279.839 1981.87 275.672 L1981.87 274.723 L1977.64 274.723 M1986.13 272.964 L1986.13 287.756 L1981.87 287.756 L1981.87 283.821 Q1980.42 286.182 1978.24 287.316 Q1976.06 288.427 1972.92 288.427 Q1968.94 288.427 1966.57 286.205 Q1964.24 283.959 1964.24 280.209 Q1964.24 275.834 1967.15 273.612 Q1970.09 271.39 1975.9 271.39 L1981.87 271.39 L1981.87 270.973 Q1981.87 268.034 1979.93 266.436 Q1978.01 264.816 1974.51 264.816 Q1972.29 264.816 1970.19 265.348 Q1968.08 265.881 1966.13 266.946 L1966.13 263.01 Q1968.47 262.108 1970.67 261.668 Q1972.87 261.205 1974.95 261.205 Q1980.58 261.205 1983.36 264.122 Q1986.13 267.038 1986.13 272.964 Z" fill="#000000" fill-rule="nonzero" fill-opacity="1" /><path clip-path="url(#clip340)" d="M2011.43 262.594 L2011.43 266.622 Q2009.63 265.696 2007.68 265.233 Q2005.74 264.77 2003.66 264.77 Q2000.49 264.77 1998.89 265.742 Q1997.31 266.714 1997.31 268.659 Q1997.31 270.14 1998.45 270.997 Q1999.58 271.83 2003.01 272.594 L2004.47 272.918 Q2009 273.89 2010.9 275.672 Q2012.82 277.432 2012.82 280.603 Q2012.82 284.214 2009.95 286.321 Q2007.11 288.427 2002.11 288.427 Q2000.02 288.427 1997.75 288.01 Q1995.51 287.617 1993.01 286.807 L1993.01 282.409 Q1995.37 283.635 1997.66 284.26 Q1999.95 284.862 2002.2 284.862 Q2005.21 284.862 2006.83 283.844 Q2008.45 282.802 2008.45 280.927 Q2008.45 279.191 2007.27 278.265 Q2006.11 277.339 2002.15 276.483 L2000.67 276.135 Q1996.71 275.302 1994.95 273.589 Q1993.19 271.853 1993.19 268.844 Q1993.19 265.186 1995.79 263.196 Q1998.38 261.205 2003.15 261.205 Q2005.51 261.205 2007.59 261.552 Q2009.68 261.899 2011.43 262.594 Z" fill="#000000" fill-rule="nonzero" fill-opacity="1" /><path clip-path="url(#clip340)" d="M2019.61 261.83 L2023.87 261.83 L2023.87 287.756 L2019.61 287.756 L2019.61 261.83 M2019.61 251.737 L2023.87 251.737 L2023.87 257.131 L2019.61 257.131 L2019.61 251.737 Z" fill="#000000" fill-rule="nonzero" fill-opacity="1" /><path clip-path="url(#clip340)" d="M2052.48 295.626 L2052.48 298.936 L2027.85 298.936 L2027.85 295.626 L2052.48 295.626 Z" fill="#000000" fill-rule="nonzero" fill-opacity="1" /><path clip-path="url(#clip340)" d="M2078.03 272.108 L2078.03 287.756 L2073.77 287.756 L2073.77 272.247 Q2073.77 268.566 2072.34 266.737 Q2070.9 264.909 2068.03 264.909 Q2064.58 264.909 2062.59 267.108 Q2060.6 269.307 2060.6 273.103 L2060.6 287.756 L2056.32 287.756 L2056.32 261.83 L2060.6 261.83 L2060.6 265.858 Q2062.13 263.52 2064.19 262.362 Q2066.27 261.205 2068.98 261.205 Q2073.45 261.205 2075.74 263.983 Q2078.03 266.737 2078.03 272.108 Z" fill="#000000" fill-rule="nonzero" fill-opacity="1" /><path clip-path="url(#clip340)" d="M2086.09 277.524 L2086.09 261.83 L2090.35 261.83 L2090.35 277.362 Q2090.35 281.043 2091.78 282.895 Q2093.22 284.723 2096.09 284.723 Q2099.54 284.723 2101.53 282.524 Q2103.54 280.325 2103.54 276.529 L2103.54 261.83 L2107.8 261.83 L2107.8 287.756 L2103.54 287.756 L2103.54 283.774 Q2101.99 286.135 2099.93 287.293 Q2097.89 288.427 2095.18 288.427 Q2090.72 288.427 2088.4 285.649 Q2086.09 282.871 2086.09 277.524 M2096.8 261.205 L2096.8 261.205 Z" fill="#000000" fill-rule="nonzero" fill-opacity="1" /><path clip-path="url(#clip340)" d="M2116.57 251.737 L2120.83 251.737 L2120.83 287.756 L2116.57 287.756 L2116.57 251.737 Z" fill="#000000" fill-rule="nonzero" fill-opacity="1" /><path clip-path="url(#clip340)" d="M2149.44 295.626 L2149.44 298.936 L2124.81 298.936 L2124.81 295.626 L2149.44 295.626 Z" fill="#000000" fill-rule="nonzero" fill-opacity="1" /><path clip-path="url(#clip340)" d="M2153.45 251.737 L2157.71 251.737 L2157.71 287.756 L2153.45 287.756 L2153.45 251.737 Z" fill="#000000" fill-rule="nonzero" fill-opacity="1" /><path clip-path="url(#clip340)" d="M2166.62 261.83 L2170.88 261.83 L2170.88 287.756 L2166.62 287.756 L2166.62 261.83 M2166.62 251.737 L2170.88 251.737 L2170.88 257.131 L2166.62 257.131 L2166.62 251.737 Z" fill="#000000" fill-rule="nonzero" fill-opacity="1" /><path clip-path="url(#clip340)" d="M2201.34 272.108 L2201.34 287.756 L2197.08 287.756 L2197.08 272.247 Q2197.08 268.566 2195.65 266.737 Q2194.21 264.909 2191.34 264.909 Q2187.89 264.909 2185.9 267.108 Q2183.91 269.307 2183.91 273.103 L2183.91 287.756 L2179.63 287.756 L2179.63 261.83 L2183.91 261.83 L2183.91 265.858 Q2185.44 263.52 2187.5 262.362 Q2189.58 261.205 2192.29 261.205 Q2196.76 261.205 2199.05 263.983 Q2201.34 266.737 2201.34 272.108 Z" fill="#000000" fill-rule="nonzero" fill-opacity="1" /><polyline clip-path="url(#clip340)" style="stroke:#3da44d; stroke-linecap:round; stroke-linejoin:round; stroke-width:4; stroke-opacity:1; fill:none" points="1540.01,322.316 1675.96,322.316 "/>
<path clip-path="url(#clip340)" d="M1698.61 305.036 L1703.29 305.036 L1703.29 335.661 L1720.12 335.661 L1720.12 339.596 L1698.61 339.596 L1698.61 305.036 Z" fill="#000000" fill-rule="nonzero" fill-opacity="1" /><path clip-path="url(#clip340)" d="M1725.02 305.036 L1731.99 305.036 L1740.81 328.554 L1749.68 305.036 L1756.64 305.036 L1756.64 339.596 L1752.08 339.596 L1752.08 309.249 L1743.17 332.952 L1738.47 332.952 L1729.56 309.249 L1729.56 339.596 L1725.02 339.596 L1725.02 305.036 Z" fill="#000000" fill-rule="nonzero" fill-opacity="1" /><path clip-path="url(#clip340)" d="M1785.44 347.466 L1785.44 350.776 L1760.81 350.776 L1760.81 347.466 L1785.44 347.466 Z" fill="#000000" fill-rule="nonzero" fill-opacity="1" /><path clip-path="url(#clip340)" d="M1810.35 306.17 L1810.35 310.73 Q1807.69 309.457 1805.32 308.832 Q1802.96 308.207 1800.76 308.207 Q1796.95 308.207 1794.86 309.688 Q1792.8 311.17 1792.8 313.901 Q1792.8 316.193 1794.17 317.374 Q1795.56 318.531 1799.4 319.249 L1802.22 319.827 Q1807.45 320.823 1809.93 323.346 Q1812.43 325.846 1812.43 330.059 Q1812.43 335.082 1809.05 337.674 Q1805.7 340.267 1799.19 340.267 Q1796.74 340.267 1793.96 339.711 Q1791.2 339.156 1788.24 338.068 L1788.24 333.253 Q1791.09 334.85 1793.82 335.661 Q1796.55 336.471 1799.19 336.471 Q1803.2 336.471 1805.37 334.897 Q1807.55 333.323 1807.55 330.406 Q1807.55 327.86 1805.97 326.424 Q1804.42 324.989 1800.86 324.272 L1798.01 323.716 Q1792.78 322.675 1790.44 320.452 Q1788.1 318.23 1788.1 314.272 Q1788.1 309.688 1791.32 307.05 Q1794.56 304.411 1800.23 304.411 Q1802.66 304.411 1805.19 304.851 Q1807.71 305.29 1810.35 306.17 Z" fill="#000000" fill-rule="nonzero" fill-opacity="1" /><path clip-path="url(#clip340)" d="M1824.4 308.878 L1824.4 321.864 L1830.28 321.864 Q1833.54 321.864 1835.32 320.175 Q1837.11 318.485 1837.11 315.36 Q1837.11 312.258 1835.32 310.568 Q1833.54 308.878 1830.28 308.878 L1824.4 308.878 M1819.72 305.036 L1830.28 305.036 Q1836.09 305.036 1839.05 307.675 Q1842.04 310.29 1842.04 315.36 Q1842.04 320.475 1839.05 323.091 Q1836.09 325.707 1830.28 325.707 L1824.4 325.707 L1824.4 339.596 L1819.72 339.596 L1819.72 305.036 Z" fill="#000000" fill-rule="nonzero" fill-opacity="1" /><path clip-path="url(#clip340)" d="M1871.88 334.665 L1871.88 325.383 L1864.24 325.383 L1864.24 321.54 L1876.5 321.54 L1876.5 336.378 Q1873.8 338.299 1870.53 339.295 Q1867.27 340.267 1863.57 340.267 Q1855.46 340.267 1850.88 335.545 Q1846.32 330.799 1846.32 322.35 Q1846.32 313.878 1850.88 309.156 Q1855.46 304.411 1863.57 304.411 Q1866.94 304.411 1869.98 305.244 Q1873.03 306.077 1875.6 307.698 L1875.6 312.675 Q1873.01 310.476 1870.09 309.364 Q1867.18 308.253 1863.96 308.253 Q1857.62 308.253 1854.42 311.795 Q1851.25 315.337 1851.25 322.35 Q1851.25 329.341 1854.42 332.883 Q1857.62 336.424 1863.96 336.424 Q1866.44 336.424 1868.38 336.008 Q1870.32 335.568 1871.88 334.665 Z" fill="#000000" fill-rule="nonzero" fill-opacity="1" /><path clip-path="url(#clip340)" d="M1904.56 347.466 L1904.56 350.776 L1879.93 350.776 L1879.93 347.466 L1904.56 347.466 Z" fill="#000000" fill-rule="nonzero" fill-opacity="1" /><path clip-path="url(#clip340)" d="M1911.11 326.656 Q1911.11 331.355 1913.03 334.04 Q1914.98 336.702 1918.36 336.702 Q1921.74 336.702 1923.68 334.04 Q1925.63 331.355 1925.63 326.656 Q1925.63 321.957 1923.68 319.295 Q1921.74 316.61 1918.36 316.61 Q1914.98 316.61 1913.03 319.295 Q1911.11 321.957 1911.11 326.656 M1925.63 335.707 Q1924.28 338.022 1922.22 339.156 Q1920.19 340.267 1917.31 340.267 Q1912.62 340.267 1909.65 336.517 Q1906.71 332.767 1906.71 326.656 Q1906.71 320.545 1909.65 316.795 Q1912.62 313.045 1917.31 313.045 Q1920.19 313.045 1922.22 314.179 Q1924.28 315.29 1925.63 317.605 L1925.63 313.67 L1929.88 313.67 L1929.88 349.457 L1925.63 349.457 L1925.63 335.707 Z" fill="#000000" fill-rule="nonzero" fill-opacity="1" /><path clip-path="url(#clip340)" d="M1938.22 329.364 L1938.22 313.67 L1942.48 313.67 L1942.48 329.202 Q1942.48 332.883 1943.91 334.735 Q1945.35 336.563 1948.22 336.563 Q1951.67 336.563 1953.66 334.364 Q1955.67 332.165 1955.67 328.369 L1955.67 313.67 L1959.93 313.67 L1959.93 339.596 L1955.67 339.596 L1955.67 335.614 Q1954.12 337.975 1952.06 339.133 Q1950.02 340.267 1947.31 340.267 Q1942.85 340.267 1940.53 337.489 Q1938.22 334.711 1938.22 329.364 M1948.94 313.045 L1948.94 313.045 Z" fill="#000000" fill-rule="nonzero" fill-opacity="1" /><path clip-path="url(#clip340)" d="M1980.49 326.563 Q1975.32 326.563 1973.33 327.744 Q1971.34 328.924 1971.34 331.772 Q1971.34 334.04 1972.82 335.383 Q1974.33 336.702 1976.9 336.702 Q1980.44 336.702 1982.57 334.202 Q1984.72 331.679 1984.72 327.512 L1984.72 326.563 L1980.49 326.563 M1988.98 324.804 L1988.98 339.596 L1984.72 339.596 L1984.72 335.661 Q1983.26 338.022 1981.09 339.156 Q1978.91 340.267 1975.76 340.267 Q1971.78 340.267 1969.42 338.045 Q1967.08 335.799 1967.08 332.049 Q1967.08 327.674 1970 325.452 Q1972.94 323.23 1978.75 323.23 L1984.72 323.23 L1984.72 322.813 Q1984.72 319.874 1982.78 318.276 Q1980.86 316.656 1977.36 316.656 Q1975.14 316.656 1973.03 317.188 Q1970.93 317.721 1968.98 318.786 L1968.98 314.85 Q1971.32 313.948 1973.52 313.508 Q1975.72 313.045 1977.8 313.045 Q1983.43 313.045 1986.2 315.962 Q1988.98 318.878 1988.98 324.804 Z" fill="#000000" fill-rule="nonzero" fill-opacity="1" /><path clip-path="url(#clip340)" d="M2014.28 314.434 L2014.28 318.462 Q2012.48 317.536 2010.53 317.073 Q2008.59 316.61 2006.5 316.61 Q2003.33 316.61 2001.74 317.582 Q2000.16 318.554 2000.16 320.499 Q2000.16 321.98 2001.3 322.837 Q2002.43 323.67 2005.86 324.434 L2007.31 324.758 Q2011.85 325.73 2013.75 327.512 Q2015.67 329.272 2015.67 332.443 Q2015.67 336.054 2012.8 338.161 Q2009.95 340.267 2004.95 340.267 Q2002.87 340.267 2000.6 339.85 Q1998.36 339.457 1995.86 338.647 L1995.86 334.249 Q1998.22 335.475 2000.51 336.1 Q2002.8 336.702 2005.05 336.702 Q2008.06 336.702 2009.68 335.684 Q2011.3 334.642 2011.3 332.767 Q2011.3 331.031 2010.12 330.105 Q2008.96 329.179 2005 328.323 L2003.52 327.975 Q1999.56 327.142 1997.8 325.429 Q1996.04 323.693 1996.04 320.684 Q1996.04 317.026 1998.63 315.036 Q2001.23 313.045 2006 313.045 Q2008.36 313.045 2010.44 313.392 Q2012.52 313.739 2014.28 314.434 Z" fill="#000000" fill-rule="nonzero" fill-opacity="1" /><path clip-path="url(#clip340)" d="M2022.45 313.67 L2026.71 313.67 L2026.71 339.596 L2022.45 339.596 L2022.45 313.67 M2022.45 303.577 L2026.71 303.577 L2026.71 308.971 L2022.45 308.971 L2022.45 303.577 Z" fill="#000000" fill-rule="nonzero" fill-opacity="1" /><path clip-path="url(#clip340)" d="M2055.32 347.466 L2055.32 350.776 L2030.69 350.776 L2030.69 347.466 L2055.32 347.466 Z" fill="#000000" fill-rule="nonzero" fill-opacity="1" /><path clip-path="url(#clip340)" d="M2080.88 323.948 L2080.88 339.596 L2076.62 339.596 L2076.62 324.087 Q2076.62 320.406 2075.18 318.577 Q2073.75 316.749 2070.88 316.749 Q2067.43 316.749 2065.44 318.948 Q2063.45 321.147 2063.45 324.943 L2063.45 339.596 L2059.17 339.596 L2059.17 313.67 L2063.45 313.67 L2063.45 317.698 Q2064.98 315.36 2067.04 314.202 Q2069.12 313.045 2071.83 313.045 Q2076.3 313.045 2078.59 315.823 Q2080.88 318.577 2080.88 323.948 Z" fill="#000000" fill-rule="nonzero" fill-opacity="1" /><path clip-path="url(#clip340)" d="M2088.93 329.364 L2088.93 313.67 L2093.19 313.67 L2093.19 329.202 Q2093.19 332.883 2094.63 334.735 Q2096.06 336.563 2098.93 336.563 Q2102.38 336.563 2104.37 334.364 Q2106.39 332.165 2106.39 328.369 L2106.39 313.67 L2110.65 313.67 L2110.65 339.596 L2106.39 339.596 L2106.39 335.614 Q2104.84 337.975 2102.78 339.133 Q2100.74 340.267 2098.03 340.267 Q2093.56 340.267 2091.25 337.489 Q2088.93 334.711 2088.93 329.364 M2099.65 313.045 L2099.65 313.045 Z" fill="#000000" fill-rule="nonzero" fill-opacity="1" /><path clip-path="url(#clip340)" d="M2119.42 303.577 L2123.68 303.577 L2123.68 339.596 L2119.42 339.596 L2119.42 303.577 Z" fill="#000000" fill-rule="nonzero" fill-opacity="1" /><path clip-path="url(#clip340)" d="M2152.29 347.466 L2152.29 350.776 L2127.66 350.776 L2127.66 347.466 L2152.29 347.466 Z" fill="#000000" fill-rule="nonzero" fill-opacity="1" /><path clip-path="url(#clip340)" d="M2156.3 303.577 L2160.55 303.577 L2160.55 339.596 L2156.3 339.596 L2156.3 303.577 Z" fill="#000000" fill-rule="nonzero" fill-opacity="1" /><path clip-path="url(#clip340)" d="M2169.47 313.67 L2173.73 313.67 L2173.73 339.596 L2169.47 339.596 L2169.47 313.67 M2169.47 303.577 L2173.73 303.577 L2173.73 308.971 L2169.47 308.971 L2169.47 303.577 Z" fill="#000000" fill-rule="nonzero" fill-opacity="1" /><path clip-path="url(#clip340)" d="M2204.19 323.948 L2204.19 339.596 L2199.93 339.596 L2199.93 324.087 Q2199.93 320.406 2198.49 318.577 Q2197.06 316.749 2194.19 316.749 Q2190.74 316.749 2188.75 318.948 Q2186.76 321.147 2186.76 324.943 L2186.76 339.596 L2182.48 339.596 L2182.48 313.67 L2186.76 313.67 L2186.76 317.698 Q2188.29 315.36 2190.35 314.202 Q2192.43 313.045 2195.14 313.045 Q2199.61 313.045 2201.9 315.823 Q2204.19 318.577 2204.19 323.948 Z" fill="#000000" fill-rule="nonzero" fill-opacity="1" /></svg>
