<?xml version="1.0" encoding="utf-8"?>
<svg xmlns="http://www.w3.org/2000/svg" xmlns:xlink="http://www.w3.org/1999/xlink" width="600" height="400" viewBox="0 0 2400 1600">
<defs>
  <clipPath id="clip340">
    <rect x="0" y="0" width="2400" height="1600"/>
  </clipPath>
</defs>
<path clip-path="url(#clip340)" d="M0 1600 L2400 1600 L2400 0 L0 0  Z" fill="#ffffff" fill-rule="evenodd" fill-opacity="1"/>
<defs>
  <clipPath id="clip341">
    <rect x="480" y="0" width="1681" height="1600"/>
  </clipPath>
</defs>
<path clip-path="url(#clip340)" d="M313.626 1423.18 L2352.76 1423.18 L2352.76 123.472 L313.626 123.472  Z" fill="#ffffff" fill-rule="evenodd" fill-opacity="1"/>
<defs>
  <clipPath id="clip342">
    <rect x="313" y="123" width="2040" height="1301"/>
  </clipPath>
</defs>
<polyline clip-path="url(#clip342)" style="stroke:#000000; stroke-linecap:round; stroke-linejoin:round; stroke-width:2; stroke-opacity:0.1; fill:none" points="338.17,1423.18 338.17,123.472 "/>
<polyline clip-path="url(#clip342)" style="stroke:#000000; stroke-linecap:round; stroke-linejoin:round; stroke-width:2; stroke-opacity:0.1; fill:none" points="669.843,1423.18 669.843,123.472 "/>
<polyline clip-path="url(#clip342)" style="stroke:#000000; stroke-linecap:round; stroke-linejoin:round; stroke-width:2; stroke-opacity:0.1; fill:none" points="1001.52,1423.18 1001.52,123.472 "/>
<polyline clip-path="url(#clip342)" style="stroke:#000000; stroke-linecap:round; stroke-linejoin:round; stroke-width:2; stroke-opacity:0.1; fill:none" points="1333.19,1423.18 1333.19,123.472 "/>
<polyline clip-path="url(#clip342)" style="stroke:#000000; stroke-linecap:round; stroke-linejoin:round; stroke-width:2; stroke-opacity:0.1; fill:none" points="1664.86,1423.18 1664.86,123.472 "/>
<polyline clip-path="url(#clip342)" style="stroke:#000000; stroke-linecap:round; stroke-linejoin:round; stroke-width:2; stroke-opacity:0.1; fill:none" points="1996.54,1423.18 1996.54,123.472 "/>
<polyline clip-path="url(#clip342)" style="stroke:#000000; stroke-linecap:round; stroke-linejoin:round; stroke-width:2; stroke-opacity:0.1; fill:none" points="2328.21,1423.18 2328.21,123.472 "/>
<polyline clip-path="url(#clip340)" style="stroke:#000000; stroke-linecap:round; stroke-linejoin:round; stroke-width:4; stroke-opacity:1; fill:none" points="313.626,1423.18 2352.76,1423.18 "/>
<polyline clip-path="url(#clip340)" style="stroke:#000000; stroke-linecap:round; stroke-linejoin:round; stroke-width:4; stroke-opacity:1; fill:none" points="338.17,1423.18 338.17,1404.28 "/>
<polyline clip-path="url(#clip340)" style="stroke:#000000; stroke-linecap:round; stroke-linejoin:round; stroke-width:4; stroke-opacity:1; fill:none" points="669.843,1423.18 669.843,1404.28 "/>
<polyline clip-path="url(#clip340)" style="stroke:#000000; stroke-linecap:round; stroke-linejoin:round; stroke-width:4; stroke-opacity:1; fill:none" points="1001.52,1423.18 1001.52,1404.28 "/>
<polyline clip-path="url(#clip340)" style="stroke:#000000; stroke-linecap:round; stroke-linejoin:round; stroke-width:4; stroke-opacity:1; fill:none" points="1333.19,1423.18 1333.19,1404.28 "/>
<polyline clip-path="url(#clip340)" style="stroke:#000000; stroke-linecap:round; stroke-linejoin:round; stroke-width:4; stroke-opacity:1; fill:none" points="1664.86,1423.18 1664.86,1404.28 "/>
<polyline clip-path="url(#clip340)" style="stroke:#000000; stroke-linecap:round; stroke-linejoin:round; stroke-width:4; stroke-opacity:1; fill:none" points="1996.54,1423.18 1996.54,1404.28 "/>
<polyline clip-path="url(#clip340)" style="stroke:#000000; stroke-linecap:round; stroke-linejoin:round; stroke-width:4; stroke-opacity:1; fill:none" points="2328.21,1423.18 2328.21,1404.28 "/>
<path clip-path="url(#clip340)" d="M338.17 1454.1 Q334.559 1454.1 332.73 1457.66 Q330.924 1461.2 330.924 1468.33 Q330.924 1475.44 332.73 1479.01 Q334.559 1482.55 338.17 1482.55 Q341.804 1482.55 343.61 1479.01 Q345.438 1475.44 345.438 1468.33 Q345.438 1461.2 343.61 1457.66 Q341.804 1454.1 338.17 1454.1 M338.17 1450.39 Q343.98 1450.39 347.035 1455 Q350.114 1459.58 350.114 1468.33 Q350.114 1477.06 347.035 1481.67 Q343.98 1486.25 338.17 1486.25 Q332.36 1486.25 329.281 1481.67 Q326.225 1477.06 326.225 1468.33 Q326.225 1459.58 329.281 1455 Q332.36 1450.39 338.17 1450.39 Z" fill="#000000" fill-rule="nonzero" fill-opacity="1" /><path clip-path="url(#clip340)" d="M644.531 1481.64 L652.17 1481.64 L652.17 1455.28 L643.86 1456.95 L643.86 1452.69 L652.124 1451.02 L656.8 1451.02 L656.8 1481.64 L664.438 1481.64 L664.438 1485.58 L644.531 1485.58 L644.531 1481.64 Z" fill="#000000" fill-rule="nonzero" fill-opacity="1" /><path clip-path="url(#clip340)" d="M683.883 1454.1 Q680.272 1454.1 678.443 1457.66 Q676.637 1461.2 676.637 1468.33 Q676.637 1475.44 678.443 1479.01 Q680.272 1482.55 683.883 1482.55 Q687.517 1482.55 689.323 1479.01 Q691.151 1475.44 691.151 1468.33 Q691.151 1461.2 689.323 1457.66 Q687.517 1454.1 683.883 1454.1 M683.883 1450.39 Q689.693 1450.39 692.748 1455 Q695.827 1459.58 695.827 1468.33 Q695.827 1477.06 692.748 1481.67 Q689.693 1486.25 683.883 1486.25 Q678.073 1486.25 674.994 1481.67 Q671.938 1477.06 671.938 1468.33 Q671.938 1459.58 674.994 1455 Q678.073 1450.39 683.883 1450.39 Z" fill="#000000" fill-rule="nonzero" fill-opacity="1" /><path clip-path="url(#clip340)" d="M980.29 1481.64 L996.61 1481.64 L996.61 1485.58 L974.665 1485.58 L974.665 1481.64 Q977.327 1478.89 981.911 1474.26 Q986.517 1469.61 987.698 1468.27 Q989.943 1465.74 990.823 1464.01 Q991.726 1462.25 991.726 1460.56 Q991.726 1457.8 989.781 1456.07 Q987.86 1454.33 984.758 1454.33 Q982.559 1454.33 980.105 1455.09 Q977.675 1455.86 974.897 1457.41 L974.897 1452.69 Q977.721 1451.55 980.175 1450.97 Q982.628 1450.39 984.665 1450.39 Q990.036 1450.39 993.23 1453.08 Q996.425 1455.77 996.425 1460.26 Q996.425 1462.39 995.614 1464.31 Q994.827 1466.2 992.721 1468.8 Q992.142 1469.47 989.04 1472.69 Q985.939 1475.88 980.29 1481.64 Z" fill="#000000" fill-rule="nonzero" fill-opacity="1" /><path clip-path="url(#clip340)" d="M1016.42 1454.1 Q1012.81 1454.1 1010.98 1457.66 Q1009.18 1461.2 1009.18 1468.33 Q1009.18 1475.44 1010.98 1479.01 Q1012.81 1482.55 1016.42 1482.55 Q1020.06 1482.55 1021.86 1479.01 Q1023.69 1475.44 1023.69 1468.33 Q1023.69 1461.2 1021.86 1457.66 Q1020.06 1454.1 1016.42 1454.1 M1016.42 1450.39 Q1022.23 1450.39 1025.29 1455 Q1028.37 1459.58 1028.37 1468.33 Q1028.37 1477.06 1025.29 1481.67 Q1022.23 1486.25 1016.42 1486.25 Q1010.61 1486.25 1007.54 1481.67 Q1004.48 1477.06 1004.48 1468.33 Q1004.48 1459.58 1007.54 1455 Q1010.61 1450.39 1016.42 1450.39 Z" fill="#000000" fill-rule="nonzero" fill-opacity="1" /><path clip-path="url(#clip340)" d="M1322.03 1466.95 Q1325.39 1467.66 1327.27 1469.93 Q1329.16 1472.2 1329.16 1475.53 Q1329.16 1480.65 1325.64 1483.45 Q1322.13 1486.25 1315.64 1486.25 Q1313.47 1486.25 1311.15 1485.81 Q1308.86 1485.39 1306.41 1484.54 L1306.41 1480.02 Q1308.35 1481.16 1310.67 1481.74 Q1312.98 1482.32 1315.51 1482.32 Q1319.9 1482.32 1322.2 1480.58 Q1324.51 1478.84 1324.51 1475.53 Q1324.51 1472.48 1322.36 1470.77 Q1320.23 1469.03 1316.41 1469.03 L1312.38 1469.03 L1312.38 1465.19 L1316.59 1465.19 Q1320.04 1465.19 1321.87 1463.82 Q1323.7 1462.43 1323.7 1459.84 Q1323.7 1457.18 1321.8 1455.77 Q1319.93 1454.33 1316.41 1454.33 Q1314.49 1454.33 1312.29 1454.75 Q1310.09 1455.16 1307.45 1456.04 L1307.45 1451.88 Q1310.11 1451.14 1312.43 1450.77 Q1314.77 1450.39 1316.83 1450.39 Q1322.15 1450.39 1325.25 1452.83 Q1328.35 1455.23 1328.35 1459.35 Q1328.35 1462.22 1326.71 1464.21 Q1325.07 1466.18 1322.03 1466.95 Z" fill="#000000" fill-rule="nonzero" fill-opacity="1" /><path clip-path="url(#clip340)" d="M1348.03 1454.1 Q1344.42 1454.1 1342.59 1457.66 Q1340.78 1461.2 1340.78 1468.33 Q1340.78 1475.44 1342.59 1479.01 Q1344.42 1482.55 1348.03 1482.55 Q1351.66 1482.55 1353.47 1479.01 Q1355.3 1475.44 1355.3 1468.33 Q1355.3 1461.2 1353.47 1457.66 Q1351.66 1454.1 1348.03 1454.1 M1348.03 1450.39 Q1353.84 1450.39 1356.89 1455 Q1359.97 1459.58 1359.97 1468.33 Q1359.97 1477.06 1356.89 1481.67 Q1353.84 1486.25 1348.03 1486.25 Q1342.22 1486.25 1339.14 1481.67 Q1336.08 1477.06 1336.08 1468.33 Q1336.08 1459.58 1339.14 1455 Q1342.22 1450.39 1348.03 1450.39 Z" fill="#000000" fill-rule="nonzero" fill-opacity="1" /><path clip-path="url(#clip340)" d="M1653.04 1455.09 L1641.23 1473.54 L1653.04 1473.54 L1653.04 1455.09 M1651.81 1451.02 L1657.69 1451.02 L1657.69 1473.54 L1662.62 1473.54 L1662.62 1477.43 L1657.69 1477.43 L1657.69 1485.58 L1653.04 1485.58 L1653.04 1477.43 L1637.43 1477.43 L1637.43 1472.92 L1651.81 1451.02 Z" fill="#000000" fill-rule="nonzero" fill-opacity="1" /><path clip-path="url(#clip340)" d="M1680.35 1454.1 Q1676.74 1454.1 1674.91 1457.66 Q1673.11 1461.2 1673.11 1468.33 Q1673.11 1475.44 1674.91 1479.01 Q1676.74 1482.55 1680.35 1482.55 Q1683.98 1482.55 1685.79 1479.01 Q1687.62 1475.44 1687.62 1468.33 Q1687.62 1461.2 1685.79 1457.66 Q1683.98 1454.1 1680.35 1454.1 M1680.35 1450.39 Q1686.16 1450.39 1689.22 1455 Q1692.3 1459.58 1692.3 1468.33 Q1692.3 1477.06 1689.22 1481.67 Q1686.16 1486.25 1680.35 1486.25 Q1674.54 1486.25 1671.46 1481.67 Q1668.41 1477.06 1668.41 1468.33 Q1668.41 1459.58 1671.46 1455 Q1674.54 1450.39 1680.35 1450.39 Z" fill="#000000" fill-rule="nonzero" fill-opacity="1" /><path clip-path="url(#clip340)" d="M1971.24 1451.02 L1989.59 1451.02 L1989.59 1454.96 L1975.52 1454.96 L1975.52 1463.43 Q1976.54 1463.08 1977.56 1462.92 Q1978.58 1462.73 1979.59 1462.73 Q1985.38 1462.73 1988.76 1465.9 Q1992.14 1469.08 1992.14 1474.49 Q1992.14 1480.07 1988.67 1483.17 Q1985.2 1486.25 1978.88 1486.25 Q1976.7 1486.25 1974.43 1485.88 Q1972.19 1485.51 1969.78 1484.77 L1969.78 1480.07 Q1971.86 1481.2 1974.08 1481.76 Q1976.31 1482.32 1978.78 1482.32 Q1982.79 1482.32 1985.13 1480.21 Q1987.46 1478.1 1987.46 1474.49 Q1987.46 1470.88 1985.13 1468.77 Q1982.79 1466.67 1978.78 1466.67 Q1976.91 1466.67 1975.03 1467.08 Q1973.18 1467.5 1971.24 1468.38 L1971.24 1451.02 Z" fill="#000000" fill-rule="nonzero" fill-opacity="1" /><path clip-path="url(#clip340)" d="M2011.35 1454.1 Q2007.74 1454.1 2005.91 1457.66 Q2004.11 1461.2 2004.11 1468.33 Q2004.11 1475.44 2005.91 1479.01 Q2007.74 1482.55 2011.35 1482.55 Q2014.99 1482.55 2016.79 1479.01 Q2018.62 1475.44 2018.62 1468.33 Q2018.62 1461.2 2016.79 1457.66 Q2014.99 1454.1 2011.35 1454.1 M2011.35 1450.39 Q2017.16 1450.39 2020.22 1455 Q2023.3 1459.58 2023.3 1468.33 Q2023.3 1477.06 2020.22 1481.67 Q2017.16 1486.25 2011.35 1486.25 Q2005.54 1486.25 2002.46 1481.67 Q1999.41 1477.06 1999.41 1468.33 Q1999.41 1459.58 2002.46 1455 Q2005.54 1450.39 2011.35 1450.39 Z" fill="#000000" fill-rule="nonzero" fill-opacity="1" /><path clip-path="url(#clip340)" d="M2313.62 1466.44 Q2310.47 1466.44 2308.62 1468.59 Q2306.79 1470.74 2306.79 1474.49 Q2306.79 1478.22 2308.62 1480.39 Q2310.47 1482.55 2313.62 1482.55 Q2316.77 1482.55 2318.59 1480.39 Q2320.45 1478.22 2320.45 1474.49 Q2320.45 1470.74 2318.59 1468.59 Q2316.77 1466.44 2313.62 1466.44 M2322.9 1451.78 L2322.9 1456.04 Q2321.14 1455.21 2319.33 1454.77 Q2317.55 1454.33 2315.79 1454.33 Q2311.16 1454.33 2308.71 1457.45 Q2306.28 1460.58 2305.93 1466.9 Q2307.3 1464.89 2309.36 1463.82 Q2311.42 1462.73 2313.89 1462.73 Q2319.1 1462.73 2322.11 1465.9 Q2325.14 1469.05 2325.14 1474.49 Q2325.14 1479.82 2322 1483.03 Q2318.85 1486.25 2313.62 1486.25 Q2307.62 1486.25 2304.45 1481.67 Q2301.28 1477.06 2301.28 1468.33 Q2301.28 1460.14 2305.17 1455.28 Q2309.06 1450.39 2315.61 1450.39 Q2317.37 1450.39 2319.15 1450.74 Q2320.96 1451.09 2322.9 1451.78 Z" fill="#000000" fill-rule="nonzero" fill-opacity="1" /><path clip-path="url(#clip340)" d="M2343.2 1454.1 Q2339.59 1454.1 2337.76 1457.66 Q2335.96 1461.2 2335.96 1468.33 Q2335.96 1475.44 2337.76 1479.01 Q2339.59 1482.55 2343.2 1482.55 Q2346.83 1482.55 2348.64 1479.01 Q2350.47 1475.44 2350.47 1468.33 Q2350.47 1461.2 2348.64 1457.66 Q2346.83 1454.1 2343.2 1454.1 M2343.2 1450.39 Q2349.01 1450.39 2352.07 1455 Q2355.14 1459.58 2355.14 1468.33 Q2355.14 1477.06 2352.07 1481.67 Q2349.01 1486.25 2343.2 1486.25 Q2337.39 1486.25 2334.31 1481.67 Q2331.26 1477.06 2331.26 1468.33 Q2331.26 1459.58 2334.31 1455 Q2337.39 1450.39 2343.2 1450.39 Z" fill="#000000" fill-rule="nonzero" fill-opacity="1" /><path clip-path="url(#clip340)" d="M1317.37 1518.52 L1323.26 1518.52 L1323.26 1547.77 L1340.73 1532.4 L1348.21 1532.4 L1329.31 1549.07 L1349.01 1568.04 L1341.37 1568.04 L1323.26 1550.63 L1323.26 1568.04 L1317.37 1568.04 L1317.37 1518.52 Z" fill="#000000" fill-rule="nonzero" fill-opacity="1" /><polyline clip-path="url(#clip342)" style="stroke:#000000; stroke-linecap:round; stroke-linejoin:round; stroke-width:2; stroke-opacity:0.1; fill:none" points="313.626,1231.05 2352.76,1231.05 "/>
<polyline clip-path="url(#clip342)" style="stroke:#000000; stroke-linecap:round; stroke-linejoin:round; stroke-width:2; stroke-opacity:0.1; fill:none" points="313.626,801.02 2352.76,801.02 "/>
<polyline clip-path="url(#clip342)" style="stroke:#000000; stroke-linecap:round; stroke-linejoin:round; stroke-width:2; stroke-opacity:0.1; fill:none" points="313.626,370.99 2352.76,370.99 "/>
<polyline clip-path="url(#clip340)" style="stroke:#000000; stroke-linecap:round; stroke-linejoin:round; stroke-width:4; stroke-opacity:1; fill:none" points="313.626,1423.18 313.626,123.472 "/>
<polyline clip-path="url(#clip340)" style="stroke:#000000; stroke-linecap:round; stroke-linejoin:round; stroke-width:4; stroke-opacity:1; fill:none" points="313.626,1231.05 332.524,1231.05 "/>
<polyline clip-path="url(#clip340)" style="stroke:#000000; stroke-linecap:round; stroke-linejoin:round; stroke-width:4; stroke-opacity:1; fill:none" points="313.626,801.02 332.524,801.02 "/>
<polyline clip-path="url(#clip340)" style="stroke:#000000; stroke-linecap:round; stroke-linejoin:round; stroke-width:4; stroke-opacity:1; fill:none" points="313.626,370.99 332.524,370.99 "/>
<path clip-path="url(#clip340)" d="M115.74 1250.84 L123.379 1250.84 L123.379 1224.48 L115.069 1226.14 L115.069 1221.88 L123.333 1220.22 L128.009 1220.22 L128.009 1250.84 L135.647 1250.84 L135.647 1254.78 L115.74 1254.78 L115.74 1250.84 Z" fill="#000000" fill-rule="nonzero" fill-opacity="1" /><path clip-path="url(#clip340)" d="M155.092 1223.3 Q151.481 1223.3 149.652 1226.86 Q147.846 1230.4 147.846 1237.53 Q147.846 1244.64 149.652 1248.2 Q151.481 1251.74 155.092 1251.74 Q158.726 1251.74 160.532 1248.2 Q162.36 1244.64 162.36 1237.53 Q162.36 1230.4 160.532 1226.86 Q158.726 1223.3 155.092 1223.3 M155.092 1219.59 Q160.902 1219.59 163.958 1224.2 Q167.036 1228.78 167.036 1237.53 Q167.036 1246.26 163.958 1250.87 Q160.902 1255.45 155.092 1255.45 Q149.282 1255.45 146.203 1250.87 Q143.147 1246.26 143.147 1237.53 Q143.147 1228.78 146.203 1224.2 Q149.282 1219.59 155.092 1219.59 Z" fill="#000000" fill-rule="nonzero" fill-opacity="1" /><path clip-path="url(#clip340)" d="M167.036 1213.69 L191.148 1213.69 L191.148 1216.89 L167.036 1216.89 L167.036 1213.69 Z" fill="#000000" fill-rule="nonzero" fill-opacity="1" /><path clip-path="url(#clip340)" d="M207.473 1201.79 Q204.539 1201.79 203.053 1204.68 Q201.586 1207.56 201.586 1213.36 Q201.586 1219.13 203.053 1222.03 Q204.539 1224.9 207.473 1224.9 Q210.426 1224.9 211.893 1222.03 Q213.379 1219.13 213.379 1213.36 Q213.379 1207.56 211.893 1204.68 Q210.426 1201.79 207.473 1201.79 M207.473 1198.78 Q212.194 1198.78 214.676 1202.52 Q217.178 1206.25 217.178 1213.36 Q217.178 1220.45 214.676 1224.19 Q212.194 1227.91 207.473 1227.91 Q202.752 1227.91 200.251 1224.19 Q197.768 1220.45 197.768 1213.36 Q197.768 1206.25 200.251 1202.52 Q202.752 1198.78 207.473 1198.78 Z" fill="#000000" fill-rule="nonzero" fill-opacity="1" /><path clip-path="url(#clip340)" d="M223.854 1222.59 L227.823 1222.59 L227.823 1227.37 L223.854 1227.37 L223.854 1222.59 Z" fill="#000000" fill-rule="nonzero" fill-opacity="1" /><path clip-path="url(#clip340)" d="M247.609 1212.23 Q250.336 1212.81 251.859 1214.65 Q253.401 1216.5 253.401 1219.2 Q253.401 1223.36 250.543 1225.64 Q247.684 1227.91 242.418 1227.91 Q240.65 1227.91 238.769 1227.55 Q236.907 1227.22 234.913 1226.52 L234.913 1222.85 Q236.493 1223.77 238.374 1224.24 Q240.255 1224.71 242.305 1224.71 Q245.878 1224.71 247.74 1223.3 Q249.621 1221.89 249.621 1219.2 Q249.621 1216.72 247.872 1215.33 Q246.142 1213.92 243.038 1213.92 L239.766 1213.92 L239.766 1210.8 L243.189 1210.8 Q245.991 1210.8 247.477 1209.69 Q248.963 1208.56 248.963 1206.45 Q248.963 1204.29 247.421 1203.14 Q245.897 1201.98 243.038 1201.98 Q241.477 1201.98 239.691 1202.31 Q237.904 1202.65 235.76 1203.37 L235.76 1199.98 Q237.923 1199.38 239.803 1199.08 Q241.703 1198.78 243.377 1198.78 Q247.703 1198.78 250.223 1200.75 Q252.743 1202.71 252.743 1206.06 Q252.743 1208.39 251.408 1210.01 Q250.073 1211.61 247.609 1212.23 Z" fill="#000000" fill-rule="nonzero" fill-opacity="1" /><path clip-path="url(#clip340)" d="M260.642 1199.29 L275.557 1199.29 L275.557 1202.48 L264.122 1202.48 L264.122 1209.37 Q264.949 1209.09 265.777 1208.95 Q266.605 1208.8 267.432 1208.8 Q272.134 1208.8 274.88 1211.38 Q277.626 1213.96 277.626 1218.36 Q277.626 1222.89 274.805 1225.41 Q271.984 1227.91 266.849 1227.91 Q265.081 1227.91 263.238 1227.61 Q261.414 1227.31 259.458 1226.71 L259.458 1222.89 Q261.15 1223.81 262.956 1224.26 Q264.761 1224.71 266.774 1224.71 Q270.028 1224.71 271.927 1223 Q273.827 1221.29 273.827 1218.36 Q273.827 1215.42 271.927 1213.71 Q270.028 1212 266.774 1212 Q265.25 1212 263.727 1212.34 Q262.222 1212.68 260.642 1213.39 L260.642 1199.29 Z" fill="#000000" fill-rule="nonzero" fill-opacity="1" /><path clip-path="url(#clip340)" d="M114.931 820.812 L122.57 820.812 L122.57 794.447 L114.26 796.113 L114.26 791.854 L122.524 790.187 L127.2 790.187 L127.2 820.812 L134.839 820.812 L134.839 824.747 L114.931 824.747 L114.931 820.812 Z" fill="#000000" fill-rule="nonzero" fill-opacity="1" /><path clip-path="url(#clip340)" d="M154.283 793.266 Q150.672 793.266 148.843 796.831 Q147.038 800.373 147.038 807.502 Q147.038 814.609 148.843 818.173 Q150.672 821.715 154.283 821.715 Q157.917 821.715 159.723 818.173 Q161.552 814.609 161.552 807.502 Q161.552 800.373 159.723 796.831 Q157.917 793.266 154.283 793.266 M154.283 789.562 Q160.093 789.562 163.149 794.169 Q166.227 798.752 166.227 807.502 Q166.227 816.229 163.149 820.835 Q160.093 825.419 154.283 825.419 Q148.473 825.419 145.394 820.835 Q142.339 816.229 142.339 807.502 Q142.339 798.752 145.394 794.169 Q148.473 789.562 154.283 789.562 Z" fill="#000000" fill-rule="nonzero" fill-opacity="1" /><path clip-path="url(#clip340)" d="M166.227 783.664 L190.339 783.664 L190.339 786.861 L166.227 786.861 L166.227 783.664 Z" fill="#000000" fill-rule="nonzero" fill-opacity="1" /><path clip-path="url(#clip340)" d="M206.664 771.758 Q203.73 771.758 202.244 774.655 Q200.777 777.532 200.777 783.325 Q200.777 789.099 202.244 791.996 Q203.73 794.873 206.664 794.873 Q209.617 794.873 211.084 791.996 Q212.57 789.099 212.57 783.325 Q212.57 777.532 211.084 774.655 Q209.617 771.758 206.664 771.758 M206.664 768.749 Q211.385 768.749 213.868 772.492 Q216.369 776.216 216.369 783.325 Q216.369 790.416 213.868 794.159 Q211.385 797.882 206.664 797.882 Q201.943 797.882 199.442 794.159 Q196.959 790.416 196.959 783.325 Q196.959 776.216 199.442 772.492 Q201.943 768.749 206.664 768.749 Z" fill="#000000" fill-rule="nonzero" fill-opacity="1" /><path clip-path="url(#clip340)" d="M223.046 792.56 L227.014 792.56 L227.014 797.337 L223.046 797.337 L223.046 792.56 Z" fill="#000000" fill-rule="nonzero" fill-opacity="1" /><path clip-path="url(#clip340)" d="M246.8 782.197 Q249.527 782.78 251.051 784.623 Q252.593 786.466 252.593 789.174 Q252.593 793.331 249.734 795.607 Q246.875 797.882 241.609 797.882 Q239.841 797.882 237.96 797.525 Q236.098 797.187 234.105 796.491 L234.105 792.823 Q235.685 793.745 237.565 794.215 Q239.446 794.685 241.496 794.685 Q245.07 794.685 246.932 793.275 Q248.812 791.864 248.812 789.174 Q248.812 786.692 247.063 785.3 Q245.333 783.889 242.23 783.889 L238.957 783.889 L238.957 780.767 L242.38 780.767 Q245.182 780.767 246.668 779.658 Q248.154 778.529 248.154 776.423 Q248.154 774.26 246.612 773.113 Q245.088 771.947 242.23 771.947 Q240.669 771.947 238.882 772.285 Q237.095 772.624 234.951 773.338 L234.951 769.953 Q237.114 769.351 238.995 769.05 Q240.894 768.749 242.568 768.749 Q246.894 768.749 249.414 770.724 Q251.934 772.68 251.934 776.028 Q251.934 778.36 250.599 779.977 Q249.264 781.576 246.8 782.197 Z" fill="#000000" fill-rule="nonzero" fill-opacity="1" /><path clip-path="url(#clip340)" d="M267.921 771.758 Q264.987 771.758 263.501 774.655 Q262.034 777.532 262.034 783.325 Q262.034 789.099 263.501 791.996 Q264.987 794.873 267.921 794.873 Q270.874 794.873 272.341 791.996 Q273.827 789.099 273.827 783.325 Q273.827 777.532 272.341 774.655 Q270.874 771.758 267.921 771.758 M267.921 768.749 Q272.642 768.749 275.124 772.492 Q277.626 776.216 277.626 783.325 Q277.626 790.416 275.124 794.159 Q272.642 797.882 267.921 797.882 Q263.2 797.882 260.699 794.159 Q258.216 790.416 258.216 783.325 Q258.216 776.216 260.699 772.492 Q263.2 768.749 267.921 768.749 Z" fill="#000000" fill-rule="nonzero" fill-opacity="1" /><path clip-path="url(#clip340)" d="M115.74 390.783 L123.379 390.783 L123.379 364.417 L115.069 366.084 L115.069 361.824 L123.333 360.158 L128.009 360.158 L128.009 390.783 L135.647 390.783 L135.647 394.718 L115.74 394.718 L115.74 390.783 Z" fill="#000000" fill-rule="nonzero" fill-opacity="1" /><path clip-path="url(#clip340)" d="M155.092 363.236 Q151.481 363.236 149.652 366.801 Q147.846 370.343 147.846 377.472 Q147.846 384.579 149.652 388.144 Q151.481 391.685 155.092 391.685 Q158.726 391.685 160.532 388.144 Q162.36 384.579 162.36 377.472 Q162.36 370.343 160.532 366.801 Q158.726 363.236 155.092 363.236 M155.092 359.533 Q160.902 359.533 163.958 364.139 Q167.036 368.722 167.036 377.472 Q167.036 386.199 163.958 390.806 Q160.902 395.389 155.092 395.389 Q149.282 395.389 146.203 390.806 Q143.147 386.199 143.147 377.472 Q143.147 368.722 146.203 364.139 Q149.282 359.533 155.092 359.533 Z" fill="#000000" fill-rule="nonzero" fill-opacity="1" /><path clip-path="url(#clip340)" d="M167.036 353.634 L191.148 353.634 L191.148 356.831 L167.036 356.831 L167.036 353.634 Z" fill="#000000" fill-rule="nonzero" fill-opacity="1" /><path clip-path="url(#clip340)" d="M207.473 341.729 Q204.539 341.729 203.053 344.625 Q201.586 347.503 201.586 353.295 Q201.586 359.069 203.053 361.966 Q204.539 364.843 207.473 364.843 Q210.426 364.843 211.893 361.966 Q213.379 359.069 213.379 353.295 Q213.379 347.503 211.893 344.625 Q210.426 341.729 207.473 341.729 M207.473 338.719 Q212.194 338.719 214.676 342.462 Q217.178 346.186 217.178 353.295 Q217.178 360.386 214.676 364.129 Q212.194 367.853 207.473 367.853 Q202.752 367.853 200.251 364.129 Q197.768 360.386 197.768 353.295 Q197.768 346.186 200.251 342.462 Q202.752 338.719 207.473 338.719 Z" fill="#000000" fill-rule="nonzero" fill-opacity="1" /><path clip-path="url(#clip340)" d="M223.854 362.53 L227.823 362.53 L227.823 367.307 L223.854 367.307 L223.854 362.53 Z" fill="#000000" fill-rule="nonzero" fill-opacity="1" /><path clip-path="url(#clip340)" d="M239.371 364.11 L252.63 364.11 L252.63 367.307 L234.801 367.307 L234.801 364.11 Q236.963 361.872 240.687 358.11 Q244.43 354.33 245.389 353.239 Q247.214 351.189 247.928 349.778 Q248.662 348.349 248.662 346.976 Q248.662 344.738 247.082 343.327 Q245.521 341.917 243.001 341.917 Q241.214 341.917 239.22 342.537 Q237.246 343.158 234.989 344.418 L234.989 340.581 Q237.283 339.66 239.277 339.19 Q241.27 338.719 242.926 338.719 Q247.289 338.719 249.884 340.901 Q252.48 343.083 252.48 346.732 Q252.48 348.462 251.822 350.023 Q251.182 351.565 249.471 353.672 Q249 354.217 246.48 356.831 Q243.96 359.427 239.371 364.11 Z" fill="#000000" fill-rule="nonzero" fill-opacity="1" /><path clip-path="url(#clip340)" d="M260.642 339.227 L275.557 339.227 L275.557 342.425 L264.122 342.425 L264.122 349.308 Q264.949 349.026 265.777 348.894 Q266.605 348.744 267.432 348.744 Q272.134 348.744 274.88 351.321 Q277.626 353.897 277.626 358.298 Q277.626 362.831 274.805 365.351 Q271.984 367.853 266.849 367.853 Q265.081 367.853 263.238 367.552 Q261.414 367.251 259.458 366.649 L259.458 362.831 Q261.15 363.753 262.956 364.204 Q264.761 364.655 266.774 364.655 Q270.028 364.655 271.927 362.944 Q273.827 361.232 273.827 358.298 Q273.827 355.364 271.927 353.653 Q270.028 351.941 266.774 351.941 Q265.25 351.941 263.727 352.28 Q262.222 352.618 260.642 353.333 L260.642 339.227 Z" fill="#000000" fill-rule="nonzero" fill-opacity="1" /><path clip-path="url(#clip340)" d="M32.4621 801.797 Q32.4621 806.507 36.1542 809.244 Q39.8145 811.982 46.212 811.982 Q52.6095 811.982 56.3017 809.276 Q59.9619 806.539 59.9619 801.797 Q59.9619 797.118 56.2698 794.381 Q52.5777 791.643 46.212 791.643 Q39.8781 791.643 36.186 794.381 Q32.4621 797.118 32.4621 801.797 M27.4968 801.797 Q27.4968 794.158 32.4621 789.797 Q37.4273 785.437 46.212 785.437 Q54.9649 785.437 59.9619 789.797 Q64.9272 794.158 64.9272 801.797 Q64.9272 809.467 59.9619 813.828 Q54.9649 818.156 46.212 818.156 Q37.4273 818.156 32.4621 813.828 Q27.4968 809.467 27.4968 801.797 Z" fill="#000000" fill-rule="nonzero" fill-opacity="1" /><path clip-path="url(#clip340)" d="M46.212 750.139 Q39.7508 750.139 36.0905 752.812 Q32.3984 755.454 32.3984 760.101 Q32.3984 764.748 36.0905 767.422 Q39.7508 770.064 46.212 770.064 Q52.6732 770.064 56.3653 767.422 Q60.0256 764.748 60.0256 760.101 Q60.0256 755.454 56.3653 752.812 Q52.6732 750.139 46.212 750.139 M33.7671 770.064 Q30.5842 768.218 29.0564 765.417 Q27.4968 762.584 27.4968 758.669 Q27.4968 752.176 32.6531 748.134 Q37.8093 744.06 46.212 744.06 Q54.6147 744.06 59.771 748.134 Q64.9272 752.176 64.9272 758.669 Q64.9272 762.584 63.3994 765.417 Q61.8398 768.218 58.657 770.064 L64.0042 770.064 L64.0042 775.952 L14.479 775.952 L14.479 770.064 L33.7671 770.064 Z" fill="#000000" fill-rule="nonzero" fill-opacity="1" /><path clip-path="url(#clip340)" d="M28.3562 734.352 L28.3562 728.495 L64.6407 728.495 Q71.452 728.495 74.5076 731.105 Q77.5631 733.684 77.5631 739.445 L77.5631 741.673 L72.5979 741.673 L72.5979 740.113 Q72.5979 736.771 71.0383 735.561 Q69.5105 734.352 64.6407 734.352 L28.3562 734.352 M14.479 734.352 L14.479 728.495 L21.895 728.495 L21.895 734.352 L14.479 734.352 Z" fill="#000000" fill-rule="nonzero" fill-opacity="1" /><path clip-path="url(#clip340)" d="M987.507 65.7705 L987.507 89.8329 L980.013 89.8329 L980.013 27.2059 L987.507 27.2059 L987.507 34.0924 Q989.857 30.0415 993.421 28.0971 Q997.027 26.1121 1002.01 26.1121 Q1010.27 26.1121 1015.42 32.6746 Q1020.6 39.2371 1020.6 49.9314 Q1020.6 60.6258 1015.42 67.1883 Q1010.27 73.7508 1002.01 73.7508 Q997.027 73.7508 993.421 71.8063 Q989.857 69.8214 987.507 65.7705 M1012.87 49.9314 Q1012.87 41.7081 1009.46 37.0496 Q1006.1 32.3505 1000.19 32.3505 Q994.272 32.3505 990.869 37.0496 Q987.507 41.7081 987.507 49.9314 Q987.507 58.1548 990.869 62.8538 Q994.272 67.5124 1000.19 67.5124 Q1006.1 67.5124 1009.46 62.8538 Q1012.87 58.1548 1012.87 49.9314 Z" fill="#000000" fill-rule="nonzero" fill-opacity="1" /><path clip-path="url(#clip340)" d="M1059.25 34.1734 Q1057.99 33.4443 1056.49 33.1202 Q1055.04 32.7556 1053.25 32.7556 Q1046.93 32.7556 1043.53 36.8875 Q1040.17 40.9789 1040.17 48.6757 L1040.17 72.576 L1032.67 72.576 L1032.67 27.2059 L1040.17 27.2059 L1040.17 34.2544 Q1042.52 30.1225 1046.29 28.1376 Q1050.05 26.1121 1055.44 26.1121 Q1056.21 26.1121 1057.14 26.2337 Q1058.07 26.3147 1059.21 26.5172 L1059.25 34.1734 Z" fill="#000000" fill-rule="nonzero" fill-opacity="1" /><path clip-path="url(#clip340)" d="M1082.82 32.4315 Q1076.83 32.4315 1073.35 37.1306 Q1069.86 41.7891 1069.86 49.9314 Q1069.86 58.0738 1073.31 62.7728 Q1076.79 67.4314 1082.82 67.4314 Q1088.78 67.4314 1092.26 62.7323 Q1095.75 58.0333 1095.75 49.9314 Q1095.75 41.8701 1092.26 37.1711 Q1088.78 32.4315 1082.82 32.4315 M1082.82 26.1121 Q1092.55 26.1121 1098.1 32.4315 Q1103.65 38.7509 1103.65 49.9314 Q1103.65 61.0714 1098.1 67.4314 Q1092.55 73.7508 1082.82 73.7508 Q1073.06 73.7508 1067.51 67.4314 Q1062 61.0714 1062 49.9314 Q1062 38.7509 1067.51 32.4315 Q1073.06 26.1121 1082.82 26.1121 Z" fill="#000000" fill-rule="nonzero" fill-opacity="1" /><path clip-path="url(#clip340)" d="M1148.57 49.9314 Q1148.57 41.7081 1145.17 37.0496 Q1141.81 32.3505 1135.89 32.3505 Q1129.98 32.3505 1126.57 37.0496 Q1123.21 41.7081 1123.21 49.9314 Q1123.21 58.1548 1126.57 62.8538 Q1129.98 67.5124 1135.89 67.5124 Q1141.81 67.5124 1145.17 62.8538 Q1148.57 58.1548 1148.57 49.9314 M1123.21 34.0924 Q1125.56 30.0415 1129.13 28.0971 Q1132.73 26.1121 1137.71 26.1121 Q1145.98 26.1121 1151.12 32.6746 Q1156.31 39.2371 1156.31 49.9314 Q1156.31 60.6258 1151.12 67.1883 Q1145.98 73.7508 1137.71 73.7508 Q1132.73 73.7508 1129.13 71.8063 Q1125.56 69.8214 1123.21 65.7705 L1123.21 72.576 L1115.72 72.576 L1115.72 9.54393 L1123.21 9.54393 L1123.21 34.0924 Z" fill="#000000" fill-rule="nonzero" fill-opacity="1" /><path clip-path="url(#clip340)" d="M1168.66 9.54393 L1176.12 9.54393 L1176.12 72.576 L1168.66 72.576 L1168.66 9.54393 Z" fill="#000000" fill-rule="nonzero" fill-opacity="1" /><path clip-path="url(#clip340)" d="M1230.52 48.0275 L1230.52 51.6733 L1196.25 51.6733 Q1196.74 59.3701 1200.87 63.421 Q1205.04 67.4314 1212.45 67.4314 Q1216.75 67.4314 1220.76 66.3781 Q1224.81 65.3249 1228.78 63.2184 L1228.78 70.267 Q1224.77 71.9684 1220.56 72.8596 Q1216.34 73.7508 1212.01 73.7508 Q1201.15 73.7508 1194.79 67.4314 Q1188.47 61.1119 1188.47 50.3365 Q1188.47 39.1965 1194.47 32.6746 Q1200.5 26.1121 1210.71 26.1121 Q1219.87 26.1121 1225.17 32.0264 Q1230.52 37.9003 1230.52 48.0275 M1223.07 45.84 Q1222.99 39.7232 1219.62 36.0774 Q1216.3 32.4315 1210.79 32.4315 Q1204.55 32.4315 1200.79 35.9558 Q1197.06 39.4801 1196.49 45.8805 L1223.07 45.84 M1204.39 6.22219 L1215.82 21.3726 L1209.62 21.3726 L1196.41 6.22219 L1204.39 6.22219 Z" fill="#000000" fill-rule="nonzero" fill-opacity="1" /><path clip-path="url(#clip340)" d="M1278.08 35.9153 Q1280.87 30.8922 1284.76 28.5022 Q1288.65 26.1121 1293.92 26.1121 Q1301.01 26.1121 1304.85 31.0947 Q1308.7 36.0368 1308.7 45.1919 L1308.7 72.576 L1301.21 72.576 L1301.21 45.4349 Q1301.21 38.913 1298.9 35.7533 Q1296.59 32.5936 1291.85 32.5936 Q1286.06 32.5936 1282.7 36.4419 Q1279.33 40.2903 1279.33 46.9338 L1279.33 72.576 L1271.84 72.576 L1271.84 45.4349 Q1271.84 38.8725 1269.53 35.7533 Q1267.22 32.5936 1262.4 32.5936 Q1256.69 32.5936 1253.33 36.4824 Q1249.97 40.3308 1249.97 46.9338 L1249.97 72.576 L1242.47 72.576 L1242.47 27.2059 L1249.97 27.2059 L1249.97 34.2544 Q1252.52 30.082 1256.08 28.0971 Q1259.65 26.1121 1264.55 26.1121 Q1269.49 26.1121 1272.93 28.6237 Q1276.42 31.1352 1278.08 35.9153 Z" fill="#000000" fill-rule="nonzero" fill-opacity="1" /><path clip-path="url(#clip340)" d="M1362.38 48.0275 L1362.38 51.6733 L1328.11 51.6733 Q1328.59 59.3701 1332.73 63.421 Q1336.9 67.4314 1344.31 67.4314 Q1348.6 67.4314 1352.61 66.3781 Q1356.67 65.3249 1360.64 63.2184 L1360.64 70.267 Q1356.63 71.9684 1352.41 72.8596 Q1348.2 73.7508 1343.87 73.7508 Q1333.01 73.7508 1326.65 67.4314 Q1320.33 61.1119 1320.33 50.3365 Q1320.33 39.1965 1326.32 32.6746 Q1332.36 26.1121 1342.57 26.1121 Q1351.72 26.1121 1357.03 32.0264 Q1362.38 37.9003 1362.38 48.0275 M1354.92 45.84 Q1354.84 39.7232 1351.48 36.0774 Q1348.16 32.4315 1342.65 32.4315 Q1336.41 32.4315 1332.64 35.9558 Q1328.92 39.4801 1328.35 45.8805 L1354.92 45.84 Z" fill="#000000" fill-rule="nonzero" fill-opacity="1" /><path clip-path="url(#clip340)" d="M1402.89 62.2867 L1411.43 62.2867 L1411.43 72.576 L1402.89 72.576 L1402.89 62.2867 M1402.89 29.6769 L1411.43 29.6769 L1411.43 39.9662 L1402.89 39.9662 L1402.89 29.6769 Z" fill="#000000" fill-rule="nonzero" fill-opacity="1" /><path clip-path="url(#clip340)" d="M1462.68 14.324 L1462.68 27.2059 L1478.03 27.2059 L1478.03 32.9987 L1462.68 32.9987 L1462.68 57.6282 Q1462.68 63.1779 1464.18 64.7578 Q1465.72 66.3376 1470.37 66.3376 L1478.03 66.3376 L1478.03 72.576 L1470.37 72.576 Q1461.75 72.576 1458.47 69.3758 Q1455.18 66.1351 1455.18 57.6282 L1455.18 32.9987 L1449.72 32.9987 L1449.72 27.2059 L1455.18 27.2059 L1455.18 14.324 L1462.68 14.324 Z" fill="#000000" fill-rule="nonzero" fill-opacity="1" /><path clip-path="url(#clip340)" d="M1495.04 65.7705 L1495.04 89.8329 L1487.55 89.8329 L1487.55 27.2059 L1495.04 27.2059 L1495.04 34.0924 Q1497.39 30.0415 1500.96 28.0971 Q1504.56 26.1121 1509.55 26.1121 Q1517.81 26.1121 1522.96 32.6746 Q1528.14 39.2371 1528.14 49.9314 Q1528.14 60.6258 1522.96 67.1883 Q1517.81 73.7508 1509.55 73.7508 Q1504.56 73.7508 1500.96 71.8063 Q1497.39 69.8214 1495.04 65.7705 M1520.4 49.9314 Q1520.4 41.7081 1517 37.0496 Q1513.64 32.3505 1507.72 32.3505 Q1501.81 32.3505 1498.41 37.0496 Q1495.04 41.7081 1495.04 49.9314 Q1495.04 58.1548 1498.41 62.8538 Q1501.81 67.5124 1507.72 67.5124 Q1513.64 67.5124 1517 62.8538 Q1520.4 58.1548 1520.4 49.9314 Z" fill="#000000" fill-rule="nonzero" fill-opacity="1" /><path clip-path="url(#clip340)" d="M1548.6 65.6895 L1577.16 65.6895 L1577.16 72.576 L1538.75 72.576 L1538.75 65.6895 Q1543.41 60.8689 1551.43 52.7671 Q1559.49 44.6248 1561.56 42.2752 Q1565.49 37.8598 1567.03 34.8216 Q1568.61 31.7429 1568.61 28.7857 Q1568.61 23.9651 1565.21 20.927 Q1561.84 17.8888 1556.42 17.8888 Q1552.57 17.8888 1548.27 19.2256 Q1544.02 20.5624 1539.16 23.2765 L1539.16 15.0127 Q1544.1 13.0277 1548.4 12.015 Q1552.69 11.0023 1556.25 11.0023 Q1565.65 11.0023 1571.24 15.7013 Q1576.83 20.4004 1576.83 28.2591 Q1576.83 31.9859 1575.41 35.3482 Q1574.04 38.6699 1570.35 43.2069 Q1569.34 44.3817 1563.91 50.0125 Q1558.48 55.6027 1548.6 65.6895 Z" fill="#000000" fill-rule="nonzero" fill-opacity="1" /><path clip-path="url(#clip340)" d="M1611.83 17.4837 Q1605.51 17.4837 1602.31 23.7221 Q1599.15 29.92 1599.15 42.3968 Q1599.15 54.833 1602.31 61.0714 Q1605.51 67.2693 1611.83 67.2693 Q1618.19 67.2693 1621.35 61.0714 Q1624.55 54.833 1624.55 42.3968 Q1624.55 29.92 1621.35 23.7221 Q1618.19 17.4837 1611.83 17.4837 M1611.83 11.0023 Q1622 11.0023 1627.35 19.0636 Q1632.74 27.0843 1632.74 42.3968 Q1632.74 57.6687 1627.35 65.73 Q1622 73.7508 1611.83 73.7508 Q1601.66 73.7508 1596.28 65.73 Q1590.93 57.6687 1590.93 42.3968 Q1590.93 27.0843 1596.28 19.0636 Q1601.66 11.0023 1611.83 11.0023 Z" fill="#000000" fill-rule="nonzero" fill-opacity="1" /><path clip-path="url(#clip340)" d="M1669.6 19.2256 L1648.94 51.5113 L1669.6 51.5113 L1669.6 19.2256 M1667.45 12.096 L1677.74 12.096 L1677.74 51.5113 L1686.37 51.5113 L1686.37 58.3168 L1677.74 58.3168 L1677.74 72.576 L1669.6 72.576 L1669.6 58.3168 L1642.3 58.3168 L1642.3 50.4176 L1667.45 12.096 Z" fill="#000000" fill-rule="nonzero" fill-opacity="1" /><polyline clip-path="url(#clip342)" style="stroke:#009af9; stroke-linecap:round; stroke-linejoin:round; stroke-width:4; stroke-opacity:1; fill:none" points="371.337,160.256 404.504,1238.71 437.672,1362.63 470.839,1373.31 504.007,1378.77 537.174,1381.94 570.341,1383.79 603.509,1384.88 636.676,1385.51 669.843,1385.88 703.011,1386.09 736.178,1386.22 769.346,1386.29 802.513,1386.33 835.68,1386.36 868.848,1386.37 902.015,1386.38 935.182,1386.39 968.35,1386.39 1001.52,1386.39 1034.68,1386.39 1067.85,1386.39 1101.02,1386.4 1134.19,1386.4 1167.35,1386.4 1200.52,1386.4 1233.69,1386.4 1266.86,1386.4 1300.02,1386.4 1333.19,1386.4 1366.36,1386.4 1399.53,1386.4 1432.69,1386.4 1465.86,1386.4 1499.03,1386.4 1532.2,1386.4 1565.36,1386.4 1598.53,1386.4 1631.7,1386.4 1664.86,1386.4 1698.03,1386.4 1731.2,1386.4 1764.37,1386.4 1797.53,1386.4 1830.7,1386.4 1863.87,1386.4 1897.04,1386.4 1930.2,1386.4 1963.37,1386.4 1996.54,1386.4 2029.71,1386.4 2062.87,1386.4 2096.04,1386.4 2129.21,1386.4 2162.38,1386.4 2195.54,1386.4 2228.71,1386.4 2261.88,1386.4 2295.04,1386.4 "/>
<polyline clip-path="url(#clip342)" style="stroke:#e26f46; stroke-linecap:round; stroke-linejoin:round; stroke-width:4; stroke-opacity:1; fill:none" points="371.337,160.256 404.504,1238.71 437.672,1345.34 470.839,1370.66 504.007,1381.66 537.174,1385.35 570.341,1385.35 603.509,1385.35 636.676,1385.35 669.843,1385.35 703.011,1385.35 736.178,1385.35 769.346,1385.35 802.513,1385.42 835.68,1385.82 868.848,1386.38 902.015,1386.39 935.182,1386.39 968.35,1386.39 1001.52,1386.4 1034.68,1386.4 1067.85,1386.4 1101.02,1386.4 1134.19,1386.4 1167.35,1386.4 1200.52,1386.4 1233.69,1386.4 1266.86,1386.4 1300.02,1386.4 1333.19,1386.4 1366.36,1386.4 1399.53,1386.4 1432.69,1386.4 1465.86,1386.4 1499.03,1386.4 1532.2,1386.4 1565.36,1386.4 1598.53,1386.4 "/>
<polyline clip-path="url(#clip342)" style="stroke:#3da44d; stroke-linecap:round; stroke-linejoin:round; stroke-width:4; stroke-opacity:1; fill:none" points="371.337,160.256 404.504,1238.71 437.672,1345.34 470.839,1370.66 504.007,1381.66 537.174,1385.35 570.341,1385.35 603.509,1385.35 636.676,1385.35 669.843,1385.35 703.011,1385.35 736.178,1385.35 769.346,1385.35 802.513,1385.42 835.68,1385.82 868.848,1386.38 902.015,1386.39 935.182,1386.39 968.35,1386.39 1001.52,1386.4 1034.68,1386.4 1067.85,1386.4 1101.02,1386.4 1134.19,1386.4 1167.35,1386.4 1200.52,1386.4 1233.69,1386.4 1266.86,1386.4 1300.02,1386.4 1333.19,1386.4 1366.36,1386.4 1399.53,1386.4 1432.69,1386.4 1465.86,1386.4 1499.03,1386.4 1532.2,1386.4 1565.36,1386.4 1598.53,1386.4 "/>
<polyline clip-path="url(#clip342)" style="stroke:#c271d2; stroke-linecap:round; stroke-linejoin:round; stroke-width:4; stroke-opacity:1; fill:none" points="371.337,160.256 404.504,1238.71 437.672,1362.63 470.839,1373.31 504.007,1378.77 537.174,1381.94 570.341,1383.79 603.509,1384.88 636.676,1385.51 669.843,1385.88 703.011,1386.09 736.178,1386.22 769.346,1386.29 802.513,1386.33 835.68,1386.36 868.848,1386.37 902.015,1386.38 935.182,1386.39 968.35,1386.39 1001.52,1386.39 1034.68,1386.39 1067.85,1386.39 1101.02,1386.4 1134.19,1386.4 1167.35,1386.4 1200.52,1386.4 1233.69,1386.4 1266.86,1386.4 1300.02,1386.4 1333.19,1386.4 1366.36,1386.4 1399.53,1386.4 1432.69,1386.4 1465.86,1386.4 1499.03,1386.4 1532.2,1386.4 1565.36,1386.4 1598.53,1386.4 1631.7,1386.4 1664.86,1386.4 1698.03,1386.4 1731.2,1386.4 1764.37,1386.4 1797.53,1386.4 1830.7,1386.4 1863.87,1386.4 1897.04,1386.4 1930.2,1386.4 1963.37,1386.4 1996.54,1386.4 2029.71,1386.4 2062.87,1386.4 2096.04,1386.4 2129.21,1386.4 2162.38,1386.4 2195.54,1386.4 2228.71,1386.4 2261.88,1386.4 2295.04,1386.4 "/>
<polyline clip-path="url(#clip342)" style="stroke:#ac8d18; stroke-linecap:round; stroke-linejoin:round; stroke-width:4; stroke-opacity:1; fill:none" points="371.337,160.256 404.504,1022.92 437.672,1022.92 470.839,1022.92 504.007,1022.92 537.174,1022.92 570.341,1022.92 603.509,1022.92 636.676,1022.92 669.843,1022.92 703.011,1318.21 736.178,1363.14 769.346,1377.17 802.513,1382.58 835.68,1385.14 868.848,1385.14 902.015,1385.51 935.182,1385.9 968.35,1386.16 1001.52,1386.33 1034.68,1386.37 1067.85,1386.37 1101.02,1386.39 1134.19,1386.39 1167.35,1386.39 1200.52,1386.4 1233.69,1386.4 1266.86,1386.4 1300.02,1386.4 1333.19,1386.4 1366.36,1386.4 1399.53,1386.4 1432.69,1386.4 1465.86,1386.4 1499.03,1386.4 1532.2,1386.4 1565.36,1386.4 1598.53,1386.4 1631.7,1386.4 1664.86,1386.4 1698.03,1386.4 1731.2,1386.4 1764.37,1386.4 1797.53,1386.4 1830.7,1386.4 1863.87,1386.4 "/>
<path clip-path="url(#clip340)" d="M1757.77 477.836 L2284.78 477.836 L2284.78 166.796 L1757.77 166.796  Z" fill="#ffffff" fill-rule="evenodd" fill-opacity="1"/>
<polyline clip-path="url(#clip340)" style="stroke:#000000; stroke-linecap:round; stroke-linejoin:round; stroke-width:4; stroke-opacity:1; fill:none" points="1757.77,477.836 2284.78,477.836 2284.78,166.796 1757.77,166.796 1757.77,477.836 "/>
<polyline clip-path="url(#clip340)" style="stroke:#009af9; stroke-linecap:round; stroke-linejoin:round; stroke-width:4; stroke-opacity:1; fill:none" points="1780.43,218.636 1916.37,218.636 "/>
<path clip-path="url(#clip340)" d="M1939.03 201.356 L1943.7 201.356 L1943.7 231.981 L1960.53 231.981 L1960.53 235.916 L1939.03 235.916 L1939.03 201.356 Z" fill="#000000" fill-rule="nonzero" fill-opacity="1" /><path clip-path="url(#clip340)" d="M1965.44 201.356 L1972.41 201.356 L1981.23 224.874 L1990.09 201.356 L1997.06 201.356 L1997.06 235.916 L1992.5 235.916 L1992.5 205.569 L1983.59 229.272 L1978.89 229.272 L1969.98 205.569 L1969.98 235.916 L1965.44 235.916 L1965.44 201.356 Z" fill="#000000" fill-rule="nonzero" fill-opacity="1" /><path clip-path="url(#clip340)" d="M2025.86 243.786 L2025.86 247.096 L2001.23 247.096 L2001.23 243.786 L2025.86 243.786 Z" fill="#000000" fill-rule="nonzero" fill-opacity="1" /><path clip-path="url(#clip340)" d="M2050.76 202.49 L2050.76 207.05 Q2048.1 205.777 2045.74 205.152 Q2043.38 204.527 2041.18 204.527 Q2037.36 204.527 2035.28 206.008 Q2033.22 207.49 2033.22 210.221 Q2033.22 212.513 2034.58 213.694 Q2035.97 214.851 2039.81 215.569 L2042.64 216.147 Q2047.87 217.143 2050.35 219.666 Q2052.85 222.166 2052.85 226.379 Q2052.85 231.402 2049.47 233.994 Q2046.11 236.587 2039.61 236.587 Q2037.15 236.587 2034.37 236.031 Q2031.62 235.476 2028.66 234.388 L2028.66 229.573 Q2031.5 231.17 2034.24 231.981 Q2036.97 232.791 2039.61 232.791 Q2043.61 232.791 2045.79 231.217 Q2047.96 229.643 2047.96 226.726 Q2047.96 224.18 2046.39 222.744 Q2044.84 221.309 2041.27 220.592 L2038.43 220.036 Q2033.19 218.995 2030.86 216.772 Q2028.52 214.55 2028.52 210.592 Q2028.52 206.008 2031.74 203.37 Q2034.98 200.731 2040.65 200.731 Q2043.08 200.731 2045.6 201.171 Q2048.12 201.61 2050.76 202.49 Z" fill="#000000" fill-rule="nonzero" fill-opacity="1" /><path clip-path="url(#clip340)" d="M2064.81 205.198 L2064.81 218.184 L2070.69 218.184 Q2073.96 218.184 2075.74 216.495 Q2077.52 214.805 2077.52 211.68 Q2077.52 208.578 2075.74 206.888 Q2073.96 205.198 2070.69 205.198 L2064.81 205.198 M2060.14 201.356 L2070.69 201.356 Q2076.5 201.356 2079.47 203.995 Q2082.45 206.61 2082.45 211.68 Q2082.45 216.795 2079.47 219.411 Q2076.5 222.027 2070.69 222.027 L2064.81 222.027 L2064.81 235.916 L2060.14 235.916 L2060.14 201.356 Z" fill="#000000" fill-rule="nonzero" fill-opacity="1" /><path clip-path="url(#clip340)" d="M2112.29 230.985 L2112.29 221.703 L2104.65 221.703 L2104.65 217.86 L2116.92 217.86 L2116.92 232.698 Q2114.21 234.619 2110.95 235.615 Q2107.68 236.587 2103.98 236.587 Q2095.88 236.587 2091.3 231.865 Q2086.74 227.119 2086.74 218.67 Q2086.74 210.198 2091.3 205.476 Q2095.88 200.731 2103.98 200.731 Q2107.36 200.731 2110.39 201.564 Q2113.45 202.397 2116.02 204.018 L2116.02 208.995 Q2113.42 206.796 2110.51 205.684 Q2107.59 204.573 2104.37 204.573 Q2098.03 204.573 2094.84 208.115 Q2091.67 211.657 2091.67 218.67 Q2091.67 225.661 2094.84 229.203 Q2098.03 232.744 2104.37 232.744 Q2106.85 232.744 2108.8 232.328 Q2110.74 231.888 2112.29 230.985 Z" fill="#000000" fill-rule="nonzero" fill-opacity="1" /><polyline clip-path="url(#clip340)" style="stroke:#e26f46; stroke-linecap:round; stroke-linejoin:round; stroke-width:4; stroke-opacity:1; fill:none" points="1780.43,270.476 1916.37,270.476 "/>
<path clip-path="url(#clip340)" d="M1939.03 253.196 L1943.7 253.196 L1943.7 283.821 L1960.53 283.821 L1960.53 287.756 L1939.03 287.756 L1939.03 253.196 Z" fill="#000000" fill-rule="nonzero" fill-opacity="1" /><path clip-path="url(#clip340)" d="M1965.44 253.196 L1972.41 253.196 L1981.23 276.714 L1990.09 253.196 L1997.06 253.196 L1997.06 287.756 L1992.5 287.756 L1992.5 257.409 L1983.59 281.112 L1978.89 281.112 L1969.98 257.409 L1969.98 287.756 L1965.44 287.756 L1965.44 253.196 Z" fill="#000000" fill-rule="nonzero" fill-opacity="1" /><path clip-path="url(#clip340)" d="M2025.86 295.626 L2025.86 298.936 L2001.23 298.936 L2001.23 295.626 L2025.86 295.626 Z" fill="#000000" fill-rule="nonzero" fill-opacity="1" /><path clip-path="url(#clip340)" d="M2041.6 257.802 L2035.25 275.001 L2047.96 275.001 L2041.6 257.802 M2038.96 253.196 L2044.26 253.196 L2057.43 287.756 L2052.57 287.756 L2049.42 278.89 L2033.84 278.89 L2030.69 287.756 L2025.76 287.756 L2038.96 253.196 Z" fill="#000000" fill-rule="nonzero" fill-opacity="1" /><path clip-path="url(#clip340)" d="M2083.84 272.108 L2083.84 287.756 L2079.58 287.756 L2079.58 272.247 Q2079.58 268.566 2078.15 266.737 Q2076.71 264.909 2073.84 264.909 Q2070.39 264.909 2068.4 267.108 Q2066.41 269.307 2066.41 273.103 L2066.41 287.756 L2062.13 287.756 L2062.13 261.83 L2066.41 261.83 L2066.41 265.858 Q2067.94 263.52 2070 262.362 Q2072.08 261.205 2074.79 261.205 Q2079.26 261.205 2081.55 263.983 Q2083.84 266.737 2083.84 272.108 Z" fill="#000000" fill-rule="nonzero" fill-opacity="1" /><path clip-path="url(#clip340)" d="M2109.4 265.765 L2109.4 251.737 L2113.66 251.737 L2113.66 287.756 L2109.4 287.756 L2109.4 283.867 Q2108.05 286.182 2105.99 287.316 Q2103.96 288.427 2101.09 288.427 Q2096.39 288.427 2093.43 284.677 Q2090.49 280.927 2090.49 274.816 Q2090.49 268.705 2093.43 264.955 Q2096.39 261.205 2101.09 261.205 Q2103.96 261.205 2105.99 262.339 Q2108.05 263.45 2109.4 265.765 M2094.88 274.816 Q2094.88 279.515 2096.8 282.2 Q2098.75 284.862 2102.13 284.862 Q2105.51 284.862 2107.45 282.2 Q2109.4 279.515 2109.4 274.816 Q2109.4 270.117 2107.45 267.455 Q2105.51 264.77 2102.13 264.77 Q2098.75 264.77 2096.8 267.455 Q2094.88 270.117 2094.88 274.816 Z" fill="#000000" fill-rule="nonzero" fill-opacity="1" /><path clip-path="url(#clip340)" d="M2137.45 265.811 Q2136.74 265.395 2135.88 265.21 Q2135.05 265.001 2134.03 265.001 Q2130.42 265.001 2128.47 267.362 Q2126.55 269.7 2126.55 274.098 L2126.55 287.756 L2122.27 287.756 L2122.27 261.83 L2126.55 261.83 L2126.55 265.858 Q2127.89 263.497 2130.05 262.362 Q2132.2 261.205 2135.28 261.205 Q2135.72 261.205 2136.25 261.274 Q2136.78 261.321 2137.43 261.436 L2137.45 265.811 Z" fill="#000000" fill-rule="nonzero" fill-opacity="1" /><path clip-path="url(#clip340)" d="M2163.05 273.728 L2163.05 275.811 L2143.47 275.811 Q2143.75 280.209 2146.11 282.524 Q2148.49 284.816 2152.73 284.816 Q2155.18 284.816 2157.48 284.214 Q2159.79 283.612 2162.06 282.409 L2162.06 286.436 Q2159.77 287.408 2157.36 287.918 Q2154.95 288.427 2152.48 288.427 Q2146.27 288.427 2142.64 284.816 Q2139.03 281.205 2139.03 275.047 Q2139.03 268.682 2142.45 264.955 Q2145.9 261.205 2151.73 261.205 Q2156.97 261.205 2160 264.585 Q2163.05 267.941 2163.05 273.728 M2158.8 272.478 Q2158.75 268.983 2156.83 266.899 Q2154.93 264.816 2151.78 264.816 Q2148.22 264.816 2146.06 266.83 Q2143.93 268.844 2143.61 272.501 L2158.8 272.478 Z" fill="#000000" fill-rule="nonzero" fill-opacity="1" /><path clip-path="url(#clip340)" d="M2170.05 261.83 L2174.3 261.83 L2174.3 287.756 L2170.05 287.756 L2170.05 261.83 M2170.05 251.737 L2174.3 251.737 L2174.3 257.131 L2170.05 257.131 L2170.05 251.737 Z" fill="#000000" fill-rule="nonzero" fill-opacity="1" /><path clip-path="url(#clip340)" d="M2202.92 295.626 L2202.92 298.936 L2178.29 298.936 L2178.29 295.626 L2202.92 295.626 Z" fill="#000000" fill-rule="nonzero" fill-opacity="1" /><path clip-path="url(#clip340)" d="M2218.7 274.723 Q2213.54 274.723 2211.55 275.904 Q2209.56 277.084 2209.56 279.932 Q2209.56 282.2 2211.04 283.543 Q2212.54 284.862 2215.11 284.862 Q2218.66 284.862 2220.79 282.362 Q2222.94 279.839 2222.94 275.672 L2222.94 274.723 L2218.7 274.723 M2227.2 272.964 L2227.2 287.756 L2222.94 287.756 L2222.94 283.821 Q2221.48 286.182 2219.3 287.316 Q2217.13 288.427 2213.98 288.427 Q2210 288.427 2207.64 286.205 Q2205.3 283.959 2205.3 280.209 Q2205.3 275.834 2208.22 273.612 Q2211.16 271.39 2216.97 271.39 L2222.94 271.39 L2222.94 270.973 Q2222.94 268.034 2220.99 266.436 Q2219.07 264.816 2215.58 264.816 Q2213.36 264.816 2211.25 265.348 Q2209.14 265.881 2207.2 266.946 L2207.2 263.01 Q2209.54 262.108 2211.73 261.668 Q2213.93 261.205 2216.02 261.205 Q2221.64 261.205 2224.42 264.122 Q2227.2 267.038 2227.2 272.964 Z" fill="#000000" fill-rule="nonzero" fill-opacity="1" /><path clip-path="url(#clip340)" d="M2235.97 251.737 L2240.23 251.737 L2240.23 287.756 L2235.97 287.756 L2235.97 251.737 Z" fill="#000000" fill-rule="nonzero" fill-opacity="1" /><path clip-path="url(#clip340)" d="M2253.35 254.469 L2253.35 261.83 L2262.13 261.83 L2262.13 265.14 L2253.35 265.14 L2253.35 279.214 Q2253.35 282.385 2254.21 283.288 Q2255.09 284.191 2257.75 284.191 L2262.13 284.191 L2262.13 287.756 L2257.75 287.756 Q2252.82 287.756 2250.95 285.927 Q2249.07 284.075 2249.07 279.214 L2249.07 265.14 L2245.95 265.14 L2245.95 261.83 L2249.07 261.83 L2249.07 254.469 L2253.35 254.469 Z" fill="#000000" fill-rule="nonzero" fill-opacity="1" /><polyline clip-path="url(#clip340)" style="stroke:#3da44d; stroke-linecap:round; stroke-linejoin:round; stroke-width:4; stroke-opacity:1; fill:none" points="1780.43,322.316 1916.37,322.316 "/>
<path clip-path="url(#clip340)" d="M1939.03 305.036 L1943.7 305.036 L1943.7 335.661 L1960.53 335.661 L1960.53 339.596 L1939.03 339.596 L1939.03 305.036 Z" fill="#000000" fill-rule="nonzero" fill-opacity="1" /><path clip-path="url(#clip340)" d="M1965.44 305.036 L1972.41 305.036 L1981.23 328.554 L1990.09 305.036 L1997.06 305.036 L1997.06 339.596 L1992.5 339.596 L1992.5 309.249 L1983.59 332.952 L1978.89 332.952 L1969.98 309.249 L1969.98 339.596 L1965.44 339.596 L1965.44 305.036 Z" fill="#000000" fill-rule="nonzero" fill-opacity="1" /><path clip-path="url(#clip340)" d="M2025.86 347.466 L2025.86 350.776 L2001.23 350.776 L2001.23 347.466 L2025.86 347.466 Z" fill="#000000" fill-rule="nonzero" fill-opacity="1" /><path clip-path="url(#clip340)" d="M2041.6 309.642 L2035.25 326.841 L2047.96 326.841 L2041.6 309.642 M2038.96 305.036 L2044.26 305.036 L2057.43 339.596 L2052.57 339.596 L2049.42 330.73 L2033.84 330.73 L2030.69 339.596 L2025.76 339.596 L2038.96 305.036 Z" fill="#000000" fill-rule="nonzero" fill-opacity="1" /><path clip-path="url(#clip340)" d="M2083.84 323.948 L2083.84 339.596 L2079.58 339.596 L2079.58 324.087 Q2079.58 320.406 2078.15 318.577 Q2076.71 316.749 2073.84 316.749 Q2070.39 316.749 2068.4 318.948 Q2066.41 321.147 2066.41 324.943 L2066.41 339.596 L2062.13 339.596 L2062.13 313.67 L2066.41 313.67 L2066.41 317.698 Q2067.94 315.36 2070 314.202 Q2072.08 313.045 2074.79 313.045 Q2079.26 313.045 2081.55 315.823 Q2083.84 318.577 2083.84 323.948 Z" fill="#000000" fill-rule="nonzero" fill-opacity="1" /><path clip-path="url(#clip340)" d="M2109.4 317.605 L2109.4 303.577 L2113.66 303.577 L2113.66 339.596 L2109.4 339.596 L2109.4 335.707 Q2108.05 338.022 2105.99 339.156 Q2103.96 340.267 2101.09 340.267 Q2096.39 340.267 2093.43 336.517 Q2090.49 332.767 2090.49 326.656 Q2090.49 320.545 2093.43 316.795 Q2096.39 313.045 2101.09 313.045 Q2103.96 313.045 2105.99 314.179 Q2108.05 315.29 2109.4 317.605 M2094.88 326.656 Q2094.88 331.355 2096.8 334.04 Q2098.75 336.702 2102.13 336.702 Q2105.51 336.702 2107.45 334.04 Q2109.4 331.355 2109.4 326.656 Q2109.4 321.957 2107.45 319.295 Q2105.51 316.61 2102.13 316.61 Q2098.75 316.61 2096.8 319.295 Q2094.88 321.957 2094.88 326.656 Z" fill="#000000" fill-rule="nonzero" fill-opacity="1" /><path clip-path="url(#clip340)" d="M2137.45 317.651 Q2136.74 317.235 2135.88 317.05 Q2135.05 316.841 2134.03 316.841 Q2130.42 316.841 2128.47 319.202 Q2126.55 321.54 2126.55 325.938 L2126.55 339.596 L2122.27 339.596 L2122.27 313.67 L2126.55 313.67 L2126.55 317.698 Q2127.89 315.337 2130.05 314.202 Q2132.2 313.045 2135.28 313.045 Q2135.72 313.045 2136.25 313.114 Q2136.78 313.161 2137.43 313.276 L2137.45 317.651 Z" fill="#000000" fill-rule="nonzero" fill-opacity="1" /><path clip-path="url(#clip340)" d="M2163.05 325.568 L2163.05 327.651 L2143.47 327.651 Q2143.75 332.049 2146.11 334.364 Q2148.49 336.656 2152.73 336.656 Q2155.18 336.656 2157.48 336.054 Q2159.79 335.452 2162.06 334.249 L2162.06 338.276 Q2159.77 339.248 2157.36 339.758 Q2154.95 340.267 2152.48 340.267 Q2146.27 340.267 2142.64 336.656 Q2139.03 333.045 2139.03 326.887 Q2139.03 320.522 2142.45 316.795 Q2145.9 313.045 2151.73 313.045 Q2156.97 313.045 2160 316.425 Q2163.05 319.781 2163.05 325.568 M2158.8 324.318 Q2158.75 320.823 2156.83 318.739 Q2154.93 316.656 2151.78 316.656 Q2148.22 316.656 2146.06 318.67 Q2143.93 320.684 2143.61 324.341 L2158.8 324.318 Z" fill="#000000" fill-rule="nonzero" fill-opacity="1" /><path clip-path="url(#clip340)" d="M2170.05 313.67 L2174.3 313.67 L2174.3 339.596 L2170.05 339.596 L2170.05 313.67 M2170.05 303.577 L2174.3 303.577 L2174.3 308.971 L2170.05 308.971 L2170.05 303.577 Z" fill="#000000" fill-rule="nonzero" fill-opacity="1" /><polyline clip-path="url(#clip340)" style="stroke:#c271d2; stroke-linecap:round; stroke-linejoin:round; stroke-width:4; stroke-opacity:1; fill:none" points="1780.43,374.156 1916.37,374.156 "/>
<path clip-path="url(#clip340)" d="M1939.03 356.876 L1943.7 356.876 L1943.7 387.501 L1960.53 387.501 L1960.53 391.436 L1939.03 391.436 L1939.03 356.876 Z" fill="#000000" fill-rule="nonzero" fill-opacity="1" /><path clip-path="url(#clip340)" d="M1965.44 356.876 L1972.41 356.876 L1981.23 380.394 L1990.09 356.876 L1997.06 356.876 L1997.06 391.436 L1992.5 391.436 L1992.5 361.089 L1983.59 384.792 L1978.89 384.792 L1969.98 361.089 L1969.98 391.436 L1965.44 391.436 L1965.44 356.876 Z" fill="#000000" fill-rule="nonzero" fill-opacity="1" /><path clip-path="url(#clip340)" d="M2025.86 399.306 L2025.86 402.616 L2001.23 402.616 L2001.23 399.306 L2025.86 399.306 Z" fill="#000000" fill-rule="nonzero" fill-opacity="1" /><path clip-path="url(#clip340)" d="M2050.76 358.01 L2050.76 362.57 Q2048.1 361.297 2045.74 360.672 Q2043.38 360.047 2041.18 360.047 Q2037.36 360.047 2035.28 361.528 Q2033.22 363.01 2033.22 365.741 Q2033.22 368.033 2034.58 369.214 Q2035.97 370.371 2039.81 371.089 L2042.64 371.667 Q2047.87 372.663 2050.35 375.186 Q2052.85 377.686 2052.85 381.899 Q2052.85 386.922 2049.47 389.514 Q2046.11 392.107 2039.61 392.107 Q2037.15 392.107 2034.37 391.551 Q2031.62 390.996 2028.66 389.908 L2028.66 385.093 Q2031.5 386.69 2034.24 387.501 Q2036.97 388.311 2039.61 388.311 Q2043.61 388.311 2045.79 386.737 Q2047.96 385.163 2047.96 382.246 Q2047.96 379.7 2046.39 378.264 Q2044.84 376.829 2041.27 376.112 L2038.43 375.556 Q2033.19 374.515 2030.86 372.292 Q2028.52 370.07 2028.52 366.112 Q2028.52 361.528 2031.74 358.89 Q2034.98 356.251 2040.65 356.251 Q2043.08 356.251 2045.6 356.691 Q2048.12 357.13 2050.76 358.01 Z" fill="#000000" fill-rule="nonzero" fill-opacity="1" /><path clip-path="url(#clip340)" d="M2064.81 360.718 L2064.81 373.704 L2070.69 373.704 Q2073.96 373.704 2075.74 372.015 Q2077.52 370.325 2077.52 367.2 Q2077.52 364.098 2075.74 362.408 Q2073.96 360.718 2070.69 360.718 L2064.81 360.718 M2060.14 356.876 L2070.69 356.876 Q2076.5 356.876 2079.47 359.515 Q2082.45 362.13 2082.45 367.2 Q2082.45 372.315 2079.47 374.931 Q2076.5 377.547 2070.69 377.547 L2064.81 377.547 L2064.81 391.436 L2060.14 391.436 L2060.14 356.876 Z" fill="#000000" fill-rule="nonzero" fill-opacity="1" /><path clip-path="url(#clip340)" d="M2112.29 386.505 L2112.29 377.223 L2104.65 377.223 L2104.65 373.38 L2116.92 373.38 L2116.92 388.218 Q2114.21 390.139 2110.95 391.135 Q2107.68 392.107 2103.98 392.107 Q2095.88 392.107 2091.3 387.385 Q2086.74 382.639 2086.74 374.19 Q2086.74 365.718 2091.3 360.996 Q2095.88 356.251 2103.98 356.251 Q2107.36 356.251 2110.39 357.084 Q2113.45 357.917 2116.02 359.538 L2116.02 364.515 Q2113.42 362.316 2110.51 361.204 Q2107.59 360.093 2104.37 360.093 Q2098.03 360.093 2094.84 363.635 Q2091.67 367.177 2091.67 374.19 Q2091.67 381.181 2094.84 384.723 Q2098.03 388.264 2104.37 388.264 Q2106.85 388.264 2108.8 387.848 Q2110.74 387.408 2112.29 386.505 Z" fill="#000000" fill-rule="nonzero" fill-opacity="1" /><path clip-path="url(#clip340)" d="M2144.98 399.306 L2144.98 402.616 L2120.35 402.616 L2120.35 399.306 L2144.98 399.306 Z" fill="#000000" fill-rule="nonzero" fill-opacity="1" /><path clip-path="url(#clip340)" d="M2160.76 378.403 Q2155.6 378.403 2153.61 379.584 Q2151.62 380.764 2151.62 383.612 Q2151.62 385.88 2153.1 387.223 Q2154.61 388.542 2157.17 388.542 Q2160.72 388.542 2162.85 386.042 Q2165 383.519 2165 379.352 L2165 378.403 L2160.76 378.403 M2169.26 376.644 L2169.26 391.436 L2165 391.436 L2165 387.501 Q2163.54 389.862 2161.36 390.996 Q2159.19 392.107 2156.04 392.107 Q2152.06 392.107 2149.7 389.885 Q2147.36 387.639 2147.36 383.889 Q2147.36 379.514 2150.28 377.292 Q2153.22 375.07 2159.03 375.07 L2165 375.07 L2165 374.653 Q2165 371.714 2163.05 370.116 Q2161.13 368.496 2157.64 368.496 Q2155.42 368.496 2153.31 369.028 Q2151.2 369.561 2149.26 370.626 L2149.26 366.69 Q2151.6 365.788 2153.8 365.348 Q2155.99 364.885 2158.08 364.885 Q2163.7 364.885 2166.48 367.802 Q2169.26 370.718 2169.26 376.644 Z" fill="#000000" fill-rule="nonzero" fill-opacity="1" /><path clip-path="url(#clip340)" d="M2178.03 355.417 L2182.29 355.417 L2182.29 391.436 L2178.03 391.436 L2178.03 355.417 Z" fill="#000000" fill-rule="nonzero" fill-opacity="1" /><path clip-path="url(#clip340)" d="M2195.42 358.149 L2195.42 365.51 L2204.19 365.51 L2204.19 368.82 L2195.42 368.82 L2195.42 382.894 Q2195.42 386.065 2196.27 386.968 Q2197.15 387.871 2199.81 387.871 L2204.19 387.871 L2204.19 391.436 L2199.81 391.436 Q2194.88 391.436 2193.01 389.607 Q2191.13 387.755 2191.13 382.894 L2191.13 368.82 L2188.01 368.82 L2188.01 365.51 L2191.13 365.51 L2191.13 358.149 L2195.42 358.149 Z" fill="#000000" fill-rule="nonzero" fill-opacity="1" /><polyline clip-path="url(#clip340)" style="stroke:#ac8d18; stroke-linecap:round; stroke-linejoin:round; stroke-width:4; stroke-opacity:1; fill:none" points="1780.43,425.996 1916.37,425.996 "/>
<path clip-path="url(#clip340)" d="M1939.03 408.716 L1943.7 408.716 L1943.7 439.341 L1960.53 439.341 L1960.53 443.276 L1939.03 443.276 L1939.03 408.716 Z" fill="#000000" fill-rule="nonzero" fill-opacity="1" /><path clip-path="url(#clip340)" d="M1965.44 408.716 L1972.41 408.716 L1981.23 432.234 L1990.09 408.716 L1997.06 408.716 L1997.06 443.276 L1992.5 443.276 L1992.5 412.929 L1983.59 436.632 L1978.89 436.632 L1969.98 412.929 L1969.98 443.276 L1965.44 443.276 L1965.44 408.716 Z" fill="#000000" fill-rule="nonzero" fill-opacity="1" /><path clip-path="url(#clip340)" d="M2025.86 451.146 L2025.86 454.456 L2001.23 454.456 L2001.23 451.146 L2025.86 451.146 Z" fill="#000000" fill-rule="nonzero" fill-opacity="1" /><path clip-path="url(#clip340)" d="M2034.07 409.989 L2034.07 417.35 L2042.85 417.35 L2042.85 420.66 L2034.07 420.66 L2034.07 434.734 Q2034.07 437.905 2034.93 438.808 Q2035.81 439.711 2038.47 439.711 L2042.85 439.711 L2042.85 443.276 L2038.47 443.276 Q2033.54 443.276 2031.67 441.447 Q2029.79 439.595 2029.79 434.734 L2029.79 420.66 L2026.67 420.66 L2026.67 417.35 L2029.79 417.35 L2029.79 409.989 L2034.07 409.989 Z" fill="#000000" fill-rule="nonzero" fill-opacity="1" /><path clip-path="url(#clip340)" d="M2070.62 429.248 L2070.62 431.331 L2051.04 431.331 Q2051.32 435.729 2053.68 438.044 Q2056.06 440.336 2060.3 440.336 Q2062.75 440.336 2065.05 439.734 Q2067.36 439.132 2069.63 437.929 L2069.63 441.956 Q2067.34 442.928 2064.93 443.438 Q2062.52 443.947 2060.05 443.947 Q2053.84 443.947 2050.21 440.336 Q2046.6 436.725 2046.6 430.567 Q2046.6 424.202 2050.02 420.475 Q2053.47 416.725 2059.3 416.725 Q2064.54 416.725 2067.57 420.105 Q2070.62 423.461 2070.62 429.248 M2066.37 427.998 Q2066.32 424.503 2064.4 422.419 Q2062.5 420.336 2059.35 420.336 Q2055.79 420.336 2053.63 422.35 Q2051.5 424.364 2051.18 428.021 L2066.37 427.998 Z" fill="#000000" fill-rule="nonzero" fill-opacity="1" /><path clip-path="url(#clip340)" d="M2094.14 418.114 L2094.14 422.142 Q2092.34 421.216 2090.39 420.753 Q2088.45 420.29 2086.36 420.29 Q2083.19 420.29 2081.6 421.262 Q2080.02 422.234 2080.02 424.179 Q2080.02 425.66 2081.16 426.517 Q2082.29 427.35 2085.72 428.114 L2087.18 428.438 Q2091.71 429.41 2093.61 431.192 Q2095.53 432.952 2095.53 436.123 Q2095.53 439.734 2092.66 441.841 Q2089.81 443.947 2084.81 443.947 Q2082.73 443.947 2080.46 443.53 Q2078.22 443.137 2075.72 442.327 L2075.72 437.929 Q2078.08 439.155 2080.37 439.78 Q2082.66 440.382 2084.91 440.382 Q2087.92 440.382 2089.54 439.364 Q2091.16 438.322 2091.16 436.447 Q2091.16 434.711 2089.98 433.785 Q2088.82 432.859 2084.86 432.003 L2083.38 431.655 Q2079.42 430.822 2077.66 429.109 Q2075.9 427.373 2075.9 424.364 Q2075.9 420.706 2078.49 418.716 Q2081.09 416.725 2085.86 416.725 Q2088.22 416.725 2090.3 417.072 Q2092.38 417.419 2094.14 418.114 Z" fill="#000000" fill-rule="nonzero" fill-opacity="1" /><path clip-path="url(#clip340)" d="M2106.53 409.989 L2106.53 417.35 L2115.3 417.35 L2115.3 420.66 L2106.53 420.66 L2106.53 434.734 Q2106.53 437.905 2107.38 438.808 Q2108.26 439.711 2110.93 439.711 L2115.3 439.711 L2115.3 443.276 L2110.93 443.276 Q2105.99 443.276 2104.12 441.447 Q2102.24 439.595 2102.24 434.734 L2102.24 420.66 L2099.12 420.66 L2099.12 417.35 L2102.24 417.35 L2102.24 409.989 L2106.53 409.989 Z" fill="#000000" fill-rule="nonzero" fill-opacity="1" /></svg>
