<?xml version="1.0" encoding="utf-8"?>
<svg xmlns="http://www.w3.org/2000/svg" xmlns:xlink="http://www.w3.org/1999/xlink" width="600" height="400" viewBox="0 0 2400 1600">
<defs>
  <clipPath id="clip730">
    <rect x="0" y="0" width="2400" height="1600"/>
  </clipPath>
</defs>
<path clip-path="url(#clip730)" d="M0 1600 L2400 1600 L2400 0 L0 0  Z" fill="#ffffff" fill-rule="evenodd" fill-opacity="1"/>
<defs>
  <clipPath id="clip731">
    <rect x="480" y="0" width="1681" height="1600"/>
  </clipPath>
</defs>
<path clip-path="url(#clip730)" d="M280.487 1423.18 L2352.76 1423.18 L2352.76 123.472 L280.487 123.472  Z" fill="#ffffff" fill-rule="evenodd" fill-opacity="1"/>
<defs>
  <clipPath id="clip732">
    <rect x="280" y="123" width="2073" height="1301"/>
  </clipPath>
</defs>
<polyline clip-path="url(#clip730)" style="stroke:#000000; stroke-linecap:round; stroke-linejoin:round; stroke-width:4; stroke-opacity:1; fill:none" points="1295.9,1423.18 38638.2,1423.18 "/>
<path clip-path="url(#clip730)" d="M5432.9 1481.64 L5449.22 1481.64 L5449.22 1485.58 L5427.27 1485.58 L5427.27 1481.64 Q5429.93 1478.89 5434.52 1474.26 Q5439.12 1469.61 5440.3 1468.27 Q5442.55 1465.74 5443.43 1464.01 Q5444.33 1462.25 5444.33 1460.56 Q5444.33 1457.8 5442.39 1456.07 Q5440.47 1454.33 5437.36 1454.33 Q5435.16 1454.33 5432.71 1455.09 Q5430.28 1455.86 5427.5 1457.41 L5427.5 1452.69 Q5430.33 1451.55 5432.78 1450.97 Q5435.23 1450.39 5437.27 1450.39 Q5442.64 1450.39 5445.84 1453.08 Q5449.03 1455.77 5449.03 1460.26 Q5449.03 1462.39 5448.22 1464.31 Q5447.43 1466.2 5445.33 1468.8 Q5444.75 1469.47 5441.65 1472.69 Q5438.54 1475.88 5432.9 1481.64 Z" fill="#000000" fill-rule="nonzero" fill-opacity="1" /><path clip-path="url(#clip730)" d="M5459.03 1479.7 L5463.91 1479.7 L5463.91 1485.58 L5459.03 1485.58 L5459.03 1479.7 Z" fill="#000000" fill-rule="nonzero" fill-opacity="1" /><path clip-path="url(#clip730)" d="M5474.15 1451.02 L5492.5 1451.02 L5492.5 1454.96 L5478.43 1454.96 L5478.43 1463.43 Q5479.45 1463.08 5480.47 1462.92 Q5481.48 1462.73 5482.5 1462.73 Q5488.29 1462.73 5491.67 1465.9 Q5495.05 1469.08 5495.05 1474.49 Q5495.05 1480.07 5491.58 1483.17 Q5488.1 1486.25 5481.78 1486.25 Q5479.61 1486.25 5477.34 1485.88 Q5475.09 1485.51 5472.69 1484.77 L5472.69 1480.07 Q5474.77 1481.2 5476.99 1481.76 Q5479.22 1482.32 5481.69 1482.32 Q5485.7 1482.32 5488.03 1480.21 Q5490.37 1478.1 5490.37 1474.49 Q5490.37 1470.88 5488.03 1468.77 Q5485.7 1466.67 5481.69 1466.67 Q5479.82 1466.67 5477.94 1467.08 Q5476.09 1467.5 5474.15 1468.38 L5474.15 1451.02 Z" fill="#000000" fill-rule="nonzero" fill-opacity="1" /><path clip-path="url(#clip730)" d="M10609 1451.02 L10627.4 1451.02 L10627.4 1454.96 L10613.3 1454.96 L10613.3 1463.43 Q10614.3 1463.08 10615.3 1462.92 Q10616.3 1462.73 10617.4 1462.73 Q10623.1 1462.73 10626.5 1465.9 Q10629.9 1469.08 10629.9 1474.49 Q10629.9 1480.07 10626.4 1483.17 Q10623 1486.25 10616.6 1486.25 Q10614.5 1486.25 10612.2 1485.88 Q10609.9 1485.51 10607.5 1484.77 L10607.5 1480.07 Q10609.6 1481.2 10611.8 1481.76 Q10614.1 1482.32 10616.5 1482.32 Q10620.5 1482.32 10622.9 1480.21 Q10625.2 1478.1 10625.2 1474.49 Q10625.2 1470.88 10622.9 1468.77 Q10620.5 1466.67 10616.5 1466.67 Q10614.7 1466.67 10612.8 1467.08 Q10610.9 1467.5 10609 1468.38 L10609 1451.02 Z" fill="#000000" fill-rule="nonzero" fill-opacity="1" /><path clip-path="url(#clip730)" d="M10639.1 1479.7 L10644 1479.7 L10644 1485.58 L10639.1 1485.58 L10639.1 1479.7 Z" fill="#000000" fill-rule="nonzero" fill-opacity="1" /><path clip-path="url(#clip730)" d="M10664.2 1454.1 Q10660.6 1454.1 10658.7 1457.66 Q10656.9 1461.2 10656.9 1468.33 Q10656.9 1475.44 10658.7 1479.01 Q10660.6 1482.55 10664.2 1482.55 Q10667.8 1482.55 10669.6 1479.01 Q10671.5 1475.44 10671.5 1468.33 Q10671.5 1461.2 10669.6 1457.66 Q10667.8 1454.1 10664.2 1454.1 M10664.2 1450.39 Q10670 1450.39 10673 1455 Q10676.1 1459.58 10676.1 1468.33 Q10676.1 1477.06 10673 1481.67 Q10670 1486.25 10664.2 1486.25 Q10658.4 1486.25 10655.3 1481.67 Q10652.2 1477.06 10652.2 1468.33 Q10652.2 1459.58 10655.3 1455 Q10658.4 1450.39 10664.2 1450.39 Z" fill="#000000" fill-rule="nonzero" fill-opacity="1" /><path clip-path="url(#clip730)" d="M15788.8 1451.02 L15811 1451.02 L15811 1453.01 L15798.5 1485.58 L15793.6 1485.58 L15805.4 1454.96 L15788.8 1454.96 L15788.8 1451.02 Z" fill="#000000" fill-rule="nonzero" fill-opacity="1" /><path clip-path="url(#clip730)" d="M15820.2 1479.7 L15825.1 1479.7 L15825.1 1485.58 L15820.2 1485.58 L15820.2 1479.7 Z" fill="#000000" fill-rule="nonzero" fill-opacity="1" /><path clip-path="url(#clip730)" d="M15835.3 1451.02 L15853.6 1451.02 L15853.6 1454.96 L15839.6 1454.96 L15839.6 1463.43 Q15840.6 1463.08 15841.6 1462.92 Q15842.6 1462.73 15843.6 1462.73 Q15849.4 1462.73 15852.8 1465.9 Q15856.2 1469.08 15856.2 1474.49 Q15856.2 1480.07 15852.7 1483.17 Q15849.2 1486.25 15842.9 1486.25 Q15840.7 1486.25 15838.5 1485.88 Q15836.2 1485.51 15833.8 1484.77 L15833.8 1480.07 Q15835.9 1481.2 15838.1 1481.76 Q15840.4 1482.32 15842.8 1482.32 Q15846.8 1482.32 15849.2 1480.21 Q15851.5 1478.1 15851.5 1474.49 Q15851.5 1470.88 15849.2 1468.77 Q15846.8 1466.67 15842.8 1466.67 Q15841 1466.67 15839.1 1467.08 Q15837.2 1467.5 15835.3 1468.38 L15835.3 1451.02 Z" fill="#000000" fill-rule="nonzero" fill-opacity="1" /><path clip-path="url(#clip730)" d="M20955.3 1481.64 L20962.9 1481.64 L20962.9 1455.28 L20954.6 1456.95 L20954.6 1452.69 L20962.8 1451.02 L20967.5 1451.02 L20967.5 1481.64 L20975.2 1481.64 L20975.2 1485.58 L20955.3 1485.58 L20955.3 1481.64 Z" fill="#000000" fill-rule="nonzero" fill-opacity="1" /><path clip-path="url(#clip730)" d="M20994.6 1454.1 Q20991 1454.1 20989.2 1457.66 Q20987.4 1461.2 20987.4 1468.33 Q20987.4 1475.44 20989.2 1479.01 Q20991 1482.55 20994.6 1482.55 Q20998.2 1482.55 21000 1479.01 Q21001.9 1475.44 21001.9 1468.33 Q21001.9 1461.2 21000 1457.66 Q20998.2 1454.1 20994.6 1454.1 M20994.6 1450.39 Q21000.4 1450.39 21003.5 1455 Q21006.5 1459.58 21006.5 1468.33 Q21006.5 1477.06 21003.5 1481.67 Q21000.4 1486.25 20994.6 1486.25 Q20988.8 1486.25 20985.7 1481.67 Q20982.7 1477.06 20982.7 1468.33 Q20982.7 1459.58 20985.7 1455 Q20988.8 1450.39 20994.6 1450.39 Z" fill="#000000" fill-rule="nonzero" fill-opacity="1" /><path clip-path="url(#clip730)" d="M21014.8 1479.7 L21019.6 1479.7 L21019.6 1485.58 L21014.8 1485.58 L21014.8 1479.7 Z" fill="#000000" fill-rule="nonzero" fill-opacity="1" /><path clip-path="url(#clip730)" d="M21039.8 1454.1 Q21036.2 1454.1 21034.4 1457.66 Q21032.6 1461.2 21032.6 1468.33 Q21032.6 1475.44 21034.4 1479.01 Q21036.2 1482.55 21039.8 1482.55 Q21043.5 1482.55 21045.3 1479.01 Q21047.1 1475.44 21047.1 1468.33 Q21047.1 1461.2 21045.3 1457.66 Q21043.5 1454.1 21039.8 1454.1 M21039.8 1450.39 Q21045.6 1450.39 21048.7 1455 Q21051.8 1459.58 21051.8 1468.33 Q21051.8 1477.06 21048.7 1481.67 Q21045.6 1486.25 21039.8 1486.25 Q21034 1486.25 21030.9 1481.67 Q21027.9 1477.06 21027.9 1468.33 Q21027.9 1459.58 21030.9 1455 Q21034 1450.39 21039.8 1450.39 Z" fill="#000000" fill-rule="nonzero" fill-opacity="1" /><path clip-path="url(#clip730)" d="M26136.4 1481.64 L26144.1 1481.64 L26144.1 1455.28 L26135.8 1456.95 L26135.8 1452.69 L26144 1451.02 L26148.7 1451.02 L26148.7 1481.64 L26156.3 1481.64 L26156.3 1485.58 L26136.4 1485.58 L26136.4 1481.64 Z" fill="#000000" fill-rule="nonzero" fill-opacity="1" /><path clip-path="url(#clip730)" d="M26169.8 1481.64 L26186.1 1481.64 L26186.1 1485.58 L26164.2 1485.58 L26164.2 1481.64 Q26166.8 1478.89 26171.4 1474.26 Q26176 1469.61 26177.2 1468.27 Q26179.5 1465.74 26180.3 1464.01 Q26181.2 1462.25 26181.2 1460.56 Q26181.2 1457.8 26179.3 1456.07 Q26177.4 1454.33 26174.3 1454.33 Q26172.1 1454.33 26169.6 1455.09 Q26167.2 1455.86 26164.4 1457.41 L26164.4 1452.69 Q26167.2 1451.55 26169.7 1450.97 Q26172.1 1450.39 26174.2 1450.39 Q26179.5 1450.39 26182.7 1453.08 Q26185.9 1455.77 26185.9 1460.26 Q26185.9 1462.39 26185.1 1464.31 Q26184.3 1466.2 26182.2 1468.8 Q26181.7 1469.47 26178.6 1472.69 Q26175.5 1475.88 26169.8 1481.64 Z" fill="#000000" fill-rule="nonzero" fill-opacity="1" /><path clip-path="url(#clip730)" d="M26195.9 1479.7 L26200.8 1479.7 L26200.8 1485.58 L26195.9 1485.58 L26195.9 1479.7 Z" fill="#000000" fill-rule="nonzero" fill-opacity="1" /><path clip-path="url(#clip730)" d="M26211.1 1451.02 L26229.4 1451.02 L26229.4 1454.96 L26215.3 1454.96 L26215.3 1463.43 Q26216.4 1463.08 26217.4 1462.92 Q26218.4 1462.73 26219.4 1462.73 Q26225.2 1462.73 26228.6 1465.9 Q26232 1469.08 26232 1474.49 Q26232 1480.07 26228.5 1483.17 Q26225 1486.25 26218.7 1486.25 Q26216.5 1486.25 26214.2 1485.88 Q26212 1485.51 26209.6 1484.77 L26209.6 1480.07 Q26211.7 1481.2 26213.9 1481.76 Q26216.1 1482.32 26218.6 1482.32 Q26222.6 1482.32 26224.9 1480.21 Q26227.3 1478.1 26227.3 1474.49 Q26227.3 1470.88 26224.9 1468.77 Q26222.6 1466.67 26218.6 1466.67 Q26216.7 1466.67 26214.8 1467.08 Q26213 1467.5 26211.1 1468.38 L26211.1 1451.02 Z" fill="#000000" fill-rule="nonzero" fill-opacity="1" /><path clip-path="url(#clip730)" d="M31316.6 1481.64 L31324.2 1481.64 L31324.2 1455.28 L31315.9 1456.95 L31315.9 1452.69 L31324.2 1451.02 L31328.9 1451.02 L31328.9 1481.64 L31336.5 1481.64 L31336.5 1485.58 L31316.6 1485.58 L31316.6 1481.64 Z" fill="#000000" fill-rule="nonzero" fill-opacity="1" /><path clip-path="url(#clip730)" d="M31346 1451.02 L31364.4 1451.02 L31364.4 1454.96 L31350.3 1454.96 L31350.3 1463.43 Q31351.3 1463.08 31352.3 1462.92 Q31353.3 1462.73 31354.4 1462.73 Q31360.1 1462.73 31363.5 1465.9 Q31366.9 1469.08 31366.9 1474.49 Q31366.9 1480.07 31363.4 1483.17 Q31360 1486.25 31353.6 1486.25 Q31351.5 1486.25 31349.2 1485.88 Q31346.9 1485.51 31344.5 1484.77 L31344.5 1480.07 Q31346.6 1481.2 31348.8 1481.76 Q31351.1 1482.32 31353.5 1482.32 Q31357.5 1482.32 31359.9 1480.21 Q31362.2 1478.1 31362.2 1474.49 Q31362.2 1470.88 31359.9 1468.77 Q31357.5 1466.67 31353.5 1466.67 Q31351.7 1466.67 31349.8 1467.08 Q31347.9 1467.5 31346 1468.38 L31346 1451.02 Z" fill="#000000" fill-rule="nonzero" fill-opacity="1" /><path clip-path="url(#clip730)" d="M31376.1 1479.7 L31381 1479.7 L31381 1485.58 L31376.1 1485.58 L31376.1 1479.7 Z" fill="#000000" fill-rule="nonzero" fill-opacity="1" /><path clip-path="url(#clip730)" d="M31401.2 1454.1 Q31397.6 1454.1 31395.7 1457.66 Q31393.9 1461.2 31393.9 1468.33 Q31393.9 1475.44 31395.7 1479.01 Q31397.6 1482.55 31401.2 1482.55 Q31404.8 1482.55 31406.6 1479.01 Q31408.4 1475.44 31408.4 1468.33 Q31408.4 1461.2 31406.6 1457.66 Q31404.8 1454.1 31401.2 1454.1 M31401.2 1450.39 Q31407 1450.39 31410 1455 Q31413.1 1459.58 31413.1 1468.33 Q31413.1 1477.06 31410 1481.67 Q31407 1486.25 31401.2 1486.25 Q31395.4 1486.25 31392.3 1481.67 Q31389.2 1477.06 31389.2 1468.33 Q31389.2 1459.58 31392.3 1455 Q31395.4 1450.39 31401.2 1450.39 Z" fill="#000000" fill-rule="nonzero" fill-opacity="1" /><path clip-path="url(#clip730)" d="M36497.8 1481.64 L36505.4 1481.64 L36505.4 1455.28 L36497.1 1456.95 L36497.1 1452.69 L36505.4 1451.02 L36510 1451.02 L36510 1481.64 L36517.7 1481.64 L36517.7 1485.58 L36497.8 1485.58 L36497.8 1481.64 Z" fill="#000000" fill-rule="nonzero" fill-opacity="1" /><path clip-path="url(#clip730)" d="M36525.9 1451.02 L36548.2 1451.02 L36548.2 1453.01 L36535.6 1485.58 L36530.7 1485.58 L36542.5 1454.96 L36525.9 1454.96 L36525.9 1451.02 Z" fill="#000000" fill-rule="nonzero" fill-opacity="1" /><path clip-path="url(#clip730)" d="M36557.3 1479.7 L36562.2 1479.7 L36562.2 1485.58 L36557.3 1485.58 L36557.3 1479.7 Z" fill="#000000" fill-rule="nonzero" fill-opacity="1" /><path clip-path="url(#clip730)" d="M36572.4 1451.02 L36590.8 1451.02 L36590.8 1454.96 L36576.7 1454.96 L36576.7 1463.43 Q36577.7 1463.08 36578.7 1462.92 Q36579.7 1462.73 36580.8 1462.73 Q36586.5 1462.73 36589.9 1465.9 Q36593.3 1469.08 36593.3 1474.49 Q36593.3 1480.07 36589.8 1483.17 Q36586.4 1486.25 36580 1486.25 Q36577.9 1486.25 36575.6 1485.88 Q36573.3 1485.51 36570.9 1484.77 L36570.9 1480.07 Q36573 1481.2 36575.2 1481.76 Q36577.5 1482.32 36579.9 1482.32 Q36583.9 1482.32 36586.3 1480.21 Q36588.6 1478.1 36588.6 1474.49 Q36588.6 1470.88 36586.3 1468.77 Q36583.9 1466.67 36579.9 1466.67 Q36578.1 1466.67 36576.2 1467.08 Q36574.3 1467.5 36572.4 1468.38 L36572.4 1451.02 Z" fill="#000000" fill-rule="nonzero" fill-opacity="1" /><path clip-path="url(#clip730)" d="M1300.8 1518.52 L1306.69 1518.52 L1306.69 1547.77 L1324.16 1532.4 L1331.64 1532.4 L1312.74 1549.07 L1332.44 1568.04 L1324.8 1568.04 L1306.69 1550.63 L1306.69 1568.04 L1300.8 1568.04 L1300.8 1518.52 Z" fill="#000000" fill-rule="nonzero" fill-opacity="1" /><polyline clip-path="url(#clip732)" style="stroke:#000000; stroke-linecap:round; stroke-linejoin:round; stroke-width:2; stroke-opacity:0.1; fill:none" points="1295.9,1423.18 38638.2,1423.18 "/>
<polyline clip-path="url(#clip730)" style="stroke:#000000; stroke-linecap:round; stroke-linejoin:round; stroke-width:4; stroke-opacity:1; fill:none" points="1295.9,1423.18 1636.43,1423.18 "/>
<path clip-path="url(#clip730)" d="M1130.34 1442.97 L1137.98 1442.97 L1137.98 1416.61 L1129.67 1418.27 L1129.67 1414.01 L1137.94 1412.35 L1142.61 1412.35 L1142.61 1442.97 L1150.25 1442.97 L1150.25 1446.91 L1130.34 1446.91 L1130.34 1442.97 Z" fill="#000000" fill-rule="nonzero" fill-opacity="1" /><path clip-path="url(#clip730)" d="M1169.7 1415.43 Q1166.08 1415.43 1164.26 1418.99 Q1162.45 1422.53 1162.45 1429.66 Q1162.45 1436.77 1164.26 1440.33 Q1166.08 1443.88 1169.7 1443.88 Q1173.33 1443.88 1175.13 1440.33 Q1176.96 1436.77 1176.96 1429.66 Q1176.96 1422.53 1175.13 1418.99 Q1173.33 1415.43 1169.7 1415.43 M1169.7 1411.72 Q1175.51 1411.72 1178.56 1416.33 Q1181.64 1420.91 1181.64 1429.66 Q1181.64 1438.39 1178.56 1443 Q1175.51 1447.58 1169.7 1447.58 Q1163.88 1447.58 1160.81 1443 Q1157.75 1438.39 1157.75 1429.66 Q1157.75 1420.91 1160.81 1416.33 Q1163.88 1411.72 1169.7 1411.72 Z" fill="#000000" fill-rule="nonzero" fill-opacity="1" /><path clip-path="url(#clip730)" d="M1181.64 1405.82 L1205.75 1405.82 L1205.75 1409.02 L1181.64 1409.02 L1181.64 1405.82 Z" fill="#000000" fill-rule="nonzero" fill-opacity="1" /><path clip-path="url(#clip730)" d="M1213.61 1391.42 L1217.41 1391.42 L1217.41 1419.5 L1213.61 1419.5 L1213.61 1391.42 Z" fill="#000000" fill-rule="nonzero" fill-opacity="1" /><path clip-path="url(#clip730)" d="M1242.33 1406.78 L1242.33 1419.5 L1238.87 1419.5 L1238.87 1406.9 Q1238.87 1403.91 1237.71 1402.42 Q1236.54 1400.93 1234.21 1400.93 Q1231.4 1400.93 1229.79 1402.72 Q1228.17 1404.51 1228.17 1407.59 L1228.17 1419.5 L1224.69 1419.5 L1224.69 1398.43 L1228.17 1398.43 L1228.17 1401.7 Q1229.41 1399.81 1231.09 1398.86 Q1232.78 1397.92 1234.98 1397.92 Q1238.61 1397.92 1240.47 1400.18 Q1242.33 1402.42 1242.33 1406.78 Z" fill="#000000" fill-rule="nonzero" fill-opacity="1" /><path clip-path="url(#clip730)" d="M1259.9 1390.23 L1259.9 1393.11 L1256.59 1393.11 Q1254.73 1393.11 1253.99 1393.86 Q1253.28 1394.61 1253.28 1396.57 L1253.28 1398.43 L1258.98 1398.43 L1258.98 1401.12 L1253.28 1401.12 L1253.28 1419.5 L1249.8 1419.5 L1249.8 1401.12 L1246.49 1401.12 L1246.49 1398.43 L1249.8 1398.43 L1249.8 1396.97 Q1249.8 1393.45 1251.44 1391.85 Q1253.07 1390.23 1256.63 1390.23 L1259.9 1390.23 Z" fill="#000000" fill-rule="nonzero" fill-opacity="1" /><path clip-path="url(#clip730)" d="Mnan nan Lnan nan Lnan nan Lnan nan Lnan nan Lnan nan Lnan nan Lnan nan Lnan nan Lnan nan Lnan nan Lnan nan Z" fill="#000000" fill-rule="nonzero" fill-opacity="1" /><path clip-path="url(#clip730)" d="Mnan nan Qnan nan nan nan Qnan nan nan nan Qnan nan nan nan Qnan nan nan nan Qnan nan nan nan Qnan nan nan nan Qnan nan nan nan Qnan nan nan nan Mnan nan Qnan nan nan nan Qnan nan nan nan Qnan nan nan nan Qnan nan nan nan Qnan nan nan nan Qnan nan nan nan Qnan nan nan nan Qnan nan nan nan Z" fill="#000000" fill-rule="nonzero" fill-opacity="1" /><path clip-path="url(#clip730)" d="Mnan nan Lnan nan Lnan nan Lnan nan Lnan nan Lnan nan Lnan nan Lnan nan Lnan nan Lnan nan Lnan nan Z" fill="#000000" fill-rule="nonzero" fill-opacity="1" /><path clip-path="url(#clip730)" d="Mnan nan Qnan nan nan nan Qnan nan nan nan Qnan nan nan nan Qnan nan nan nan Qnan nan nan nan Qnan nan nan nan Lnan nan Lnan nan Mnan nan Lnan nan Lnan nan Lnan nan Qnan nan nan nan Qnan nan nan nan Qnan nan nan nan Qnan nan nan nan Qnan nan nan nan Qnan nan nan nan Lnan nan Lnan nan Qnan nan nan nan Qnan nan nan nan Qnan nan nan nan Qnan nan nan nan Lnan nan Qnan nan nan nan Qnan nan nan nan Qnan nan nan nan Qnan nan nan nan Z" fill="#000000" fill-rule="nonzero" fill-opacity="1" /><path clip-path="url(#clip730)" d="Mnan nan Lnan nan Lnan nan Lnan nan Lnan nan Lnan nan Lnan nan Lnan nan Lnan nan Lnan nan Lnan nan Z" fill="#000000" fill-rule="nonzero" fill-opacity="1" /><path clip-path="url(#clip730)" d="M45.7664 817.313 Q39.4007 817.313 35.8996 819.955 Q32.3984 822.565 32.3984 827.307 Q32.3984 832.018 35.8996 834.66 Q39.4007 837.27 45.7664 837.27 Q52.1003 837.27 55.6014 834.66 Q59.1026 832.018 59.1026 827.307 Q59.1026 822.565 55.6014 819.955 Q52.1003 817.313 45.7664 817.313 M59.58 811.457 Q68.683 811.457 73.1071 815.499 Q77.5631 819.541 77.5631 827.88 Q77.5631 830.967 77.0857 833.705 Q76.6401 836.442 75.6852 839.02 L69.9879 839.02 Q71.3884 836.442 72.0568 833.928 Q72.7252 831.413 72.7252 828.803 Q72.7252 823.042 69.7015 820.178 Q66.7096 817.313 60.6303 817.313 L57.7339 817.313 Q60.885 819.127 62.4446 821.96 Q64.0042 824.793 64.0042 828.739 Q64.0042 835.296 59.0071 839.307 Q54.01 843.317 45.7664 843.317 Q37.491 843.317 32.4939 839.307 Q27.4968 835.296 27.4968 828.739 Q27.4968 824.793 29.0564 821.96 Q30.616 819.127 33.7671 817.313 L28.3562 817.313 L28.3562 811.457 L59.58 811.457 Z" fill="#000000" fill-rule="nonzero" fill-opacity="1" /><path clip-path="url(#clip730)" d="M33.8307 778.737 Q33.2578 779.724 33.0032 780.901 Q32.7167 782.047 32.7167 783.447 Q32.7167 788.413 35.9632 791.086 Q39.1779 793.728 45.2253 793.728 L64.0042 793.728 L64.0042 799.616 L28.3562 799.616 L28.3562 793.728 L33.8944 793.728 Q30.6479 791.882 29.0883 788.922 Q27.4968 785.962 27.4968 781.729 Q27.4968 781.124 27.5923 780.392 Q27.656 779.66 27.8151 778.769 L33.8307 778.737 Z" fill="#000000" fill-rule="nonzero" fill-opacity="1" /><path clip-path="url(#clip730)" d="M46.0847 756.393 Q46.0847 763.491 47.7079 766.228 Q49.3312 768.965 53.2461 768.965 Q56.3653 768.965 58.2114 766.928 Q60.0256 764.86 60.0256 761.327 Q60.0256 756.457 56.5881 753.529 Q53.1188 750.569 47.3897 750.569 L46.0847 750.569 L46.0847 756.393 M43.6657 744.712 L64.0042 744.712 L64.0042 750.569 L58.5933 750.569 Q61.8398 752.574 63.3994 755.566 Q64.9272 758.558 64.9272 762.886 Q64.9272 768.361 61.8716 771.607 Q58.7843 774.822 53.6281 774.822 Q47.6125 774.822 44.5569 770.812 Q41.5014 766.769 41.5014 758.78 L41.5014 750.569 L40.9285 750.569 Q36.8862 750.569 34.6901 753.242 Q32.4621 755.884 32.4621 760.69 Q32.4621 763.746 33.1941 766.642 Q33.9262 769.538 35.3903 772.212 L29.9795 772.212 Q28.7381 768.997 28.1334 765.974 Q27.4968 762.95 27.4968 760.085 Q27.4968 752.351 31.5072 748.532 Q35.5176 744.712 43.6657 744.712 Z" fill="#000000" fill-rule="nonzero" fill-opacity="1" /><path clip-path="url(#clip730)" d="M33.7671 709.191 L14.479 709.191 L14.479 703.335 L64.0042 703.335 L64.0042 709.191 L58.657 709.191 Q61.8398 711.038 63.3994 713.87 Q64.9272 716.671 64.9272 720.618 Q64.9272 727.079 59.771 731.153 Q54.6147 735.195 46.212 735.195 Q37.8093 735.195 32.6531 731.153 Q27.4968 727.079 27.4968 720.618 Q27.4968 716.671 29.0564 713.87 Q30.5842 711.038 33.7671 709.191 M46.212 729.148 Q52.6732 729.148 56.3653 726.506 Q60.0256 723.833 60.0256 719.186 Q60.0256 714.539 56.3653 711.865 Q52.6732 709.191 46.212 709.191 Q39.7508 709.191 36.0905 711.865 Q32.3984 714.539 32.3984 719.186 Q32.3984 723.833 36.0905 726.506 Q39.7508 729.148 46.212 729.148 Z" fill="#000000" fill-rule="nonzero" fill-opacity="1" /><path clip-path="url(#clip730)" d="M971.221 65.7705 L971.221 89.8329 L963.727 89.8329 L963.727 27.2059 L971.221 27.2059 L971.221 34.0924 Q973.57 30.0415 977.135 28.0971 Q980.741 26.1121 985.723 26.1121 Q993.987 26.1121 999.132 32.6746 Q1004.32 39.2371 1004.32 49.9314 Q1004.32 60.6258 999.132 67.1883 Q993.987 73.7508 985.723 73.7508 Q980.741 73.7508 977.135 71.8063 Q973.57 69.8214 971.221 65.7705 M996.58 49.9314 Q996.58 41.7081 993.177 37.0496 Q989.815 32.3505 983.9 32.3505 Q977.986 32.3505 974.583 37.0496 Q971.221 41.7081 971.221 49.9314 Q971.221 58.1548 974.583 62.8538 Q977.986 67.5124 983.9 67.5124 Q989.815 67.5124 993.177 62.8538 Q996.58 58.1548 996.58 49.9314 Z" fill="#000000" fill-rule="nonzero" fill-opacity="1" /><path clip-path="url(#clip730)" d="M1042.96 34.1734 Q1041.71 33.4443 1040.21 33.1202 Q1038.75 32.7556 1036.97 32.7556 Q1030.65 32.7556 1027.24 36.8875 Q1023.88 40.9789 1023.88 48.6757 L1023.88 72.576 L1016.39 72.576 L1016.39 27.2059 L1023.88 27.2059 L1023.88 34.2544 Q1026.23 30.1225 1030 28.1376 Q1033.77 26.1121 1039.15 26.1121 Q1039.92 26.1121 1040.86 26.2337 Q1041.79 26.3147 1042.92 26.5172 L1042.96 34.1734 Z" fill="#000000" fill-rule="nonzero" fill-opacity="1" /><path clip-path="url(#clip730)" d="M1066.54 32.4315 Q1060.54 32.4315 1057.06 37.1306 Q1053.58 41.7891 1053.58 49.9314 Q1053.58 58.0738 1057.02 62.7728 Q1060.5 67.4314 1066.54 67.4314 Q1072.49 67.4314 1075.98 62.7323 Q1079.46 58.0333 1079.46 49.9314 Q1079.46 41.8701 1075.98 37.1711 Q1072.49 32.4315 1066.54 32.4315 M1066.54 26.1121 Q1076.26 26.1121 1081.81 32.4315 Q1087.36 38.7509 1087.36 49.9314 Q1087.36 61.0714 1081.81 67.4314 Q1076.26 73.7508 1066.54 73.7508 Q1056.78 73.7508 1051.23 67.4314 Q1045.72 61.0714 1045.72 49.9314 Q1045.72 38.7509 1051.23 32.4315 Q1056.78 26.1121 1066.54 26.1121 Z" fill="#000000" fill-rule="nonzero" fill-opacity="1" /><path clip-path="url(#clip730)" d="M1132.28 49.9314 Q1132.28 41.7081 1128.88 37.0496 Q1125.52 32.3505 1119.61 32.3505 Q1113.69 32.3505 1110.29 37.0496 Q1106.93 41.7081 1106.93 49.9314 Q1106.93 58.1548 1110.29 62.8538 Q1113.69 67.5124 1119.61 67.5124 Q1125.52 67.5124 1128.88 62.8538 Q1132.28 58.1548 1132.28 49.9314 M1106.93 34.0924 Q1109.28 30.0415 1112.84 28.0971 Q1116.45 26.1121 1121.43 26.1121 Q1129.69 26.1121 1134.84 32.6746 Q1140.02 39.2371 1140.02 49.9314 Q1140.02 60.6258 1134.84 67.1883 Q1129.69 73.7508 1121.43 73.7508 Q1116.45 73.7508 1112.84 71.8063 Q1109.28 69.8214 1106.93 65.7705 L1106.93 72.576 L1099.43 72.576 L1099.43 9.54393 L1106.93 9.54393 L1106.93 34.0924 Z" fill="#000000" fill-rule="nonzero" fill-opacity="1" /><path clip-path="url(#clip730)" d="M1152.38 9.54393 L1159.83 9.54393 L1159.83 72.576 L1152.38 72.576 L1152.38 9.54393 Z" fill="#000000" fill-rule="nonzero" fill-opacity="1" /><path clip-path="url(#clip730)" d="M1214.23 48.0275 L1214.23 51.6733 L1179.96 51.6733 Q1180.45 59.3701 1184.58 63.421 Q1188.75 67.4314 1196.17 67.4314 Q1200.46 67.4314 1204.47 66.3781 Q1208.52 65.3249 1212.49 63.2184 L1212.49 70.267 Q1208.48 71.9684 1204.27 72.8596 Q1200.06 73.7508 1195.72 73.7508 Q1184.87 73.7508 1178.51 67.4314 Q1172.19 61.1119 1172.19 50.3365 Q1172.19 39.1965 1178.18 32.6746 Q1184.22 26.1121 1194.43 26.1121 Q1203.58 26.1121 1208.89 32.0264 Q1214.23 37.9003 1214.23 48.0275 M1206.78 45.84 Q1206.7 39.7232 1203.34 36.0774 Q1200.02 32.4315 1194.51 32.4315 Q1188.27 32.4315 1184.5 35.9558 Q1180.77 39.4801 1180.21 45.8805 L1206.78 45.84 M1188.11 6.22219 L1199.53 21.3726 L1193.33 21.3726 L1180.13 6.22219 L1188.11 6.22219 Z" fill="#000000" fill-rule="nonzero" fill-opacity="1" /><path clip-path="url(#clip730)" d="M1261.79 35.9153 Q1264.59 30.8922 1268.48 28.5022 Q1272.37 26.1121 1277.63 26.1121 Q1284.72 26.1121 1288.57 31.0947 Q1292.42 36.0368 1292.42 45.1919 L1292.42 72.576 L1284.92 72.576 L1284.92 45.4349 Q1284.92 38.913 1282.61 35.7533 Q1280.3 32.5936 1275.57 32.5936 Q1269.77 32.5936 1266.41 36.4419 Q1263.05 40.2903 1263.05 46.9338 L1263.05 72.576 L1255.55 72.576 L1255.55 45.4349 Q1255.55 38.8725 1253.24 35.7533 Q1250.94 32.5936 1246.12 32.5936 Q1240.4 32.5936 1237.04 36.4824 Q1233.68 40.3308 1233.68 46.9338 L1233.68 72.576 L1226.18 72.576 L1226.18 27.2059 L1233.68 27.2059 L1233.68 34.2544 Q1236.23 30.082 1239.8 28.0971 Q1243.36 26.1121 1248.26 26.1121 Q1253.2 26.1121 1256.65 28.6237 Q1260.13 31.1352 1261.79 35.9153 Z" fill="#000000" fill-rule="nonzero" fill-opacity="1" /><path clip-path="url(#clip730)" d="M1346.09 48.0275 L1346.09 51.6733 L1311.82 51.6733 Q1312.31 59.3701 1316.44 63.421 Q1320.61 67.4314 1328.02 67.4314 Q1332.32 67.4314 1336.33 66.3781 Q1340.38 65.3249 1344.35 63.2184 L1344.35 70.267 Q1340.34 71.9684 1336.13 72.8596 Q1331.91 73.7508 1327.58 73.7508 Q1316.72 73.7508 1310.36 67.4314 Q1304.04 61.1119 1304.04 50.3365 Q1304.04 39.1965 1310.04 32.6746 Q1316.07 26.1121 1326.28 26.1121 Q1335.44 26.1121 1340.74 32.0264 Q1346.09 37.9003 1346.09 48.0275 M1338.64 45.84 Q1338.56 39.7232 1335.19 36.0774 Q1331.87 32.4315 1326.36 32.4315 Q1320.13 32.4315 1316.36 35.9558 Q1312.63 39.4801 1312.06 45.8805 L1338.64 45.84 Z" fill="#000000" fill-rule="nonzero" fill-opacity="1" /><path clip-path="url(#clip730)" d="M1386.6 62.2867 L1395.15 62.2867 L1395.15 72.576 L1386.6 72.576 L1386.6 62.2867 M1386.6 29.6769 L1395.15 29.6769 L1395.15 39.9662 L1386.6 39.9662 L1386.6 29.6769 Z" fill="#000000" fill-rule="nonzero" fill-opacity="1" /><path clip-path="url(#clip730)" d="M1446.39 14.324 L1446.39 27.2059 L1461.74 27.2059 L1461.74 32.9987 L1446.39 32.9987 L1446.39 57.6282 Q1446.39 63.1779 1447.89 64.7578 Q1449.43 66.3376 1454.09 66.3376 L1461.74 66.3376 L1461.74 72.576 L1454.09 72.576 Q1445.46 72.576 1442.18 69.3758 Q1438.9 66.1351 1438.9 57.6282 L1438.9 32.9987 L1433.43 32.9987 L1433.43 27.2059 L1438.9 27.2059 L1438.9 14.324 L1446.39 14.324 Z" fill="#000000" fill-rule="nonzero" fill-opacity="1" /><path clip-path="url(#clip730)" d="M1478.76 65.7705 L1478.76 89.8329 L1471.26 89.8329 L1471.26 27.2059 L1478.76 27.2059 L1478.76 34.0924 Q1481.11 30.0415 1484.67 28.0971 Q1488.28 26.1121 1493.26 26.1121 Q1501.52 26.1121 1506.67 32.6746 Q1511.85 39.2371 1511.85 49.9314 Q1511.85 60.6258 1506.67 67.1883 Q1501.52 73.7508 1493.26 73.7508 Q1488.28 73.7508 1484.67 71.8063 Q1481.11 69.8214 1478.76 65.7705 M1504.12 49.9314 Q1504.12 41.7081 1500.71 37.0496 Q1497.35 32.3505 1491.44 32.3505 Q1485.52 32.3505 1482.12 37.0496 Q1478.76 41.7081 1478.76 49.9314 Q1478.76 58.1548 1482.12 62.8538 Q1485.52 67.5124 1491.44 67.5124 Q1497.35 67.5124 1500.71 62.8538 Q1504.12 58.1548 1504.12 49.9314 Z" fill="#000000" fill-rule="nonzero" fill-opacity="1" /><path clip-path="url(#clip730)" d="M1532.31 65.6895 L1560.87 65.6895 L1560.87 72.576 L1522.47 72.576 L1522.47 65.6895 Q1527.13 60.8689 1535.15 52.7671 Q1543.21 44.6248 1545.27 42.2752 Q1549.2 37.8598 1550.74 34.8216 Q1552.32 31.7429 1552.32 28.7857 Q1552.32 23.9651 1548.92 20.927 Q1545.56 17.8888 1540.13 17.8888 Q1536.28 17.8888 1531.99 19.2256 Q1527.73 20.5624 1522.87 23.2765 L1522.87 15.0127 Q1527.82 13.0277 1532.11 12.015 Q1536.4 11.0023 1539.97 11.0023 Q1549.37 11.0023 1554.96 15.7013 Q1560.55 20.4004 1560.55 28.2591 Q1560.55 31.9859 1559.13 35.3482 Q1557.75 38.6699 1554.07 43.2069 Q1553.05 44.3817 1547.62 50.0125 Q1542.2 55.6027 1532.31 65.6895 Z" fill="#000000" fill-rule="nonzero" fill-opacity="1" /><path clip-path="url(#clip730)" d="M1595.55 17.4837 Q1589.23 17.4837 1586.03 23.7221 Q1582.87 29.92 1582.87 42.3968 Q1582.87 54.833 1586.03 61.0714 Q1589.23 67.2693 1595.55 67.2693 Q1601.91 67.2693 1605.07 61.0714 Q1608.27 54.833 1608.27 42.3968 Q1608.27 29.92 1605.07 23.7221 Q1601.91 17.4837 1595.55 17.4837 M1595.55 11.0023 Q1605.71 11.0023 1611.06 19.0636 Q1616.45 27.0843 1616.45 42.3968 Q1616.45 57.6687 1611.06 65.73 Q1605.71 73.7508 1595.55 73.7508 Q1585.38 73.7508 1579.99 65.73 Q1574.64 57.6687 1574.64 42.3968 Q1574.64 27.0843 1579.99 19.0636 Q1585.38 11.0023 1595.55 11.0023 Z" fill="#000000" fill-rule="nonzero" fill-opacity="1" /><path clip-path="url(#clip730)" d="M1649.34 39.075 Q1643.83 39.075 1640.59 42.8424 Q1637.39 46.6097 1637.39 53.1722 Q1637.39 59.6941 1640.59 63.502 Q1643.83 67.2693 1649.34 67.2693 Q1654.85 67.2693 1658.05 63.502 Q1661.29 59.6941 1661.29 53.1722 Q1661.29 46.6097 1658.05 42.8424 Q1654.85 39.075 1649.34 39.075 M1665.59 13.4328 L1665.59 20.8865 Q1662.51 19.4281 1659.35 18.6585 Q1656.23 17.8888 1653.15 17.8888 Q1645.05 17.8888 1640.75 23.3575 Q1636.5 28.8262 1635.89 39.8852 Q1638.28 36.3609 1641.89 34.4975 Q1645.49 32.5936 1649.83 32.5936 Q1658.94 32.5936 1664.21 38.1433 Q1669.52 43.6525 1669.52 53.1722 Q1669.52 62.4892 1664.01 68.12 Q1658.5 73.7508 1649.34 73.7508 Q1638.85 73.7508 1633.3 65.73 Q1627.75 57.6687 1627.75 42.3968 Q1627.75 28.0566 1634.56 19.5497 Q1641.36 11.0023 1652.83 11.0023 Q1655.9 11.0023 1659.02 11.6099 Q1662.18 12.2175 1665.59 13.4328 Z" fill="#000000" fill-rule="nonzero" fill-opacity="1" /><polyline clip-path="url(#clip732)" style="stroke:#009af9; stroke-linecap:round; stroke-linejoin:round; stroke-width:4; stroke-opacity:1; fill:none" points="2352.76,-285886 4425.03,-12643 6497.29,-12643 8569.56,-12643 10641.8,-12643 12714.1,-12643 14786.4,-12643 16858.6,-12643 18930.9,-12643 21003.2,-1671.98 23075.4,365.869 25147.7,1205.44 27220,1398.13 29292.3,1421.65 31364.5,1423.13 33436.8,1423.18 "/>
<polyline clip-path="url(#clip732)" style="stroke:#e26f46; stroke-linecap:round; stroke-linejoin:round; stroke-width:4; stroke-opacity:1; fill:none" points="2352.76,-285886 4425.03,-4142.62 6497.29,1405.91 8569.56,1423.18 "/>
<polyline clip-path="url(#clip732)" style="stroke:#3da44d; stroke-linecap:round; stroke-linejoin:round; stroke-width:4; stroke-opacity:1; fill:none" points="2352.76,-285886 4425.03,-12643 6497.29,-12643 8569.56,-12643 10641.8,-12643 12714.1,-12643 14786.4,-12643 16858.6,-12643 18930.9,-12643 21003.2,-1671.98 23075.4,365.869 25147.7,1205.44 27220,1398.13 29292.3,1421.65 31364.5,1423.13 33436.8,1423.13 35509.1,1423.17 37581.3,1423.18 "/>
<polyline clip-path="url(#clip732)" style="stroke:#c271d2; stroke-linecap:round; stroke-linejoin:round; stroke-width:4; stroke-opacity:1; fill:none" points="2352.76,-285886 4425.03,-4142.62 6497.29,1405.91 8569.56,1423.18 "/>
<polyline clip-path="url(#clip732)" style="stroke:#ac8d18; stroke-linecap:round; stroke-linejoin:round; stroke-width:4; stroke-opacity:1; fill:none" points="2352.76,-285886 4425.03,-12643 6497.29,1423.18 "/>
<path clip-path="url(#clip730)" d="M1753.35 477.836 L2283.68 477.836 L2283.68 166.796 L1753.35 166.796  Z" fill="#ffffff" fill-rule="evenodd" fill-opacity="1"/>
<polyline clip-path="url(#clip730)" style="stroke:#000000; stroke-linecap:round; stroke-linejoin:round; stroke-width:4; stroke-opacity:1; fill:none" points="1753.35,477.836 2283.68,477.836 2283.68,166.796 1753.35,166.796 1753.35,477.836 "/>
<polyline clip-path="url(#clip730)" style="stroke:#009af9; stroke-linecap:round; stroke-linejoin:round; stroke-width:4; stroke-opacity:1; fill:none" points="1776.38,218.636 1914.53,218.636 "/>
<path clip-path="url(#clip730)" d="M1937.55 201.356 L1942.23 201.356 L1942.23 231.981 L1959.06 231.981 L1959.06 235.916 L1937.55 235.916 L1937.55 201.356 Z" fill="#000000" fill-rule="nonzero" fill-opacity="1" /><path clip-path="url(#clip730)" d="M1963.97 201.356 L1970.93 201.356 L1979.75 224.874 L1988.62 201.356 L1995.59 201.356 L1995.59 235.916 L1991.03 235.916 L1991.03 205.569 L1982.11 229.272 L1977.42 229.272 L1968.5 205.569 L1968.5 235.916 L1963.97 235.916 L1963.97 201.356 Z" fill="#000000" fill-rule="nonzero" fill-opacity="1" /><path clip-path="url(#clip730)" d="M2024.38 243.786 L2024.38 247.096 L1999.75 247.096 L1999.75 243.786 L2024.38 243.786 Z" fill="#000000" fill-rule="nonzero" fill-opacity="1" /><path clip-path="url(#clip730)" d="M2049.29 202.49 L2049.29 207.05 Q2046.63 205.777 2044.27 205.152 Q2041.91 204.527 2039.71 204.527 Q2035.89 204.527 2033.8 206.008 Q2031.74 207.49 2031.74 210.221 Q2031.74 212.513 2033.11 213.694 Q2034.5 214.851 2038.34 215.569 L2041.17 216.147 Q2046.4 217.143 2048.87 219.666 Q2051.37 222.166 2051.37 226.379 Q2051.37 231.402 2047.99 233.994 Q2044.64 236.587 2038.13 236.587 Q2035.68 236.587 2032.9 236.031 Q2030.15 235.476 2027.18 234.388 L2027.18 229.573 Q2030.03 231.17 2032.76 231.981 Q2035.49 232.791 2038.13 232.791 Q2042.14 232.791 2044.31 231.217 Q2046.49 229.643 2046.49 226.726 Q2046.49 224.18 2044.92 222.744 Q2043.36 221.309 2039.8 220.592 L2036.95 220.036 Q2031.72 218.995 2029.38 216.772 Q2027.05 214.55 2027.05 210.592 Q2027.05 206.008 2030.26 203.37 Q2033.5 200.731 2039.17 200.731 Q2041.61 200.731 2044.13 201.171 Q2046.65 201.61 2049.29 202.49 Z" fill="#000000" fill-rule="nonzero" fill-opacity="1" /><path clip-path="url(#clip730)" d="M2063.34 205.198 L2063.34 218.184 L2069.22 218.184 Q2072.48 218.184 2074.27 216.495 Q2076.05 214.805 2076.05 211.68 Q2076.05 208.578 2074.27 206.888 Q2072.48 205.198 2069.22 205.198 L2063.34 205.198 M2058.67 201.356 L2069.22 201.356 Q2075.03 201.356 2077.99 203.995 Q2080.98 206.61 2080.98 211.68 Q2080.98 216.795 2077.99 219.411 Q2075.03 222.027 2069.22 222.027 L2063.34 222.027 L2063.34 235.916 L2058.67 235.916 L2058.67 201.356 Z" fill="#000000" fill-rule="nonzero" fill-opacity="1" /><path clip-path="url(#clip730)" d="M2110.82 230.985 L2110.82 221.703 L2103.18 221.703 L2103.18 217.86 L2115.45 217.86 L2115.45 232.698 Q2112.74 234.619 2109.48 235.615 Q2106.21 236.587 2102.51 236.587 Q2094.41 236.587 2089.82 231.865 Q2085.26 227.119 2085.26 218.67 Q2085.26 210.198 2089.82 205.476 Q2094.41 200.731 2102.51 200.731 Q2105.89 200.731 2108.92 201.564 Q2111.98 202.397 2114.54 204.018 L2114.54 208.995 Q2111.95 206.796 2109.04 205.684 Q2106.12 204.573 2102.9 204.573 Q2096.56 204.573 2093.36 208.115 Q2090.19 211.657 2090.19 218.67 Q2090.19 225.661 2093.36 229.203 Q2096.56 232.744 2102.9 232.744 Q2105.38 232.744 2107.32 232.328 Q2109.27 231.888 2110.82 230.985 Z" fill="#000000" fill-rule="nonzero" fill-opacity="1" /><polyline clip-path="url(#clip730)" style="stroke:#e26f46; stroke-linecap:round; stroke-linejoin:round; stroke-width:4; stroke-opacity:1; fill:none" points="1776.38,270.476 1914.53,270.476 "/>
<path clip-path="url(#clip730)" d="M1937.55 253.196 L1942.23 253.196 L1942.23 283.821 L1959.06 283.821 L1959.06 287.756 L1937.55 287.756 L1937.55 253.196 Z" fill="#000000" fill-rule="nonzero" fill-opacity="1" /><path clip-path="url(#clip730)" d="M1963.97 253.196 L1970.93 253.196 L1979.75 276.714 L1988.62 253.196 L1995.59 253.196 L1995.59 287.756 L1991.03 287.756 L1991.03 257.409 L1982.11 281.112 L1977.42 281.112 L1968.5 257.409 L1968.5 287.756 L1963.97 287.756 L1963.97 253.196 Z" fill="#000000" fill-rule="nonzero" fill-opacity="1" /><path clip-path="url(#clip730)" d="M2024.38 295.626 L2024.38 298.936 L1999.75 298.936 L1999.75 295.626 L2024.38 295.626 Z" fill="#000000" fill-rule="nonzero" fill-opacity="1" /><path clip-path="url(#clip730)" d="M2040.12 257.802 L2033.78 275.001 L2046.49 275.001 L2040.12 257.802 M2037.48 253.196 L2042.79 253.196 L2055.96 287.756 L2051.1 287.756 L2047.95 278.89 L2032.37 278.89 L2029.22 287.756 L2024.29 287.756 L2037.48 253.196 Z" fill="#000000" fill-rule="nonzero" fill-opacity="1" /><path clip-path="url(#clip730)" d="M2082.37 272.108 L2082.37 287.756 L2078.11 287.756 L2078.11 272.247 Q2078.11 268.566 2076.67 266.737 Q2075.24 264.909 2072.37 264.909 Q2068.92 264.909 2066.93 267.108 Q2064.94 269.307 2064.94 273.103 L2064.94 287.756 L2060.66 287.756 L2060.66 261.83 L2064.94 261.83 L2064.94 265.858 Q2066.47 263.52 2068.53 262.362 Q2070.61 261.205 2073.32 261.205 Q2077.79 261.205 2080.08 263.983 Q2082.37 266.737 2082.37 272.108 Z" fill="#000000" fill-rule="nonzero" fill-opacity="1" /><path clip-path="url(#clip730)" d="M2107.92 265.765 L2107.92 251.737 L2112.18 251.737 L2112.18 287.756 L2107.92 287.756 L2107.92 283.867 Q2106.58 286.182 2104.52 287.316 Q2102.48 288.427 2099.61 288.427 Q2094.92 288.427 2091.95 284.677 Q2089.01 280.927 2089.01 274.816 Q2089.01 268.705 2091.95 264.955 Q2094.92 261.205 2099.61 261.205 Q2102.48 261.205 2104.52 262.339 Q2106.58 263.45 2107.92 265.765 M2093.41 274.816 Q2093.41 279.515 2095.33 282.2 Q2097.28 284.862 2100.66 284.862 Q2104.04 284.862 2105.98 282.2 Q2107.92 279.515 2107.92 274.816 Q2107.92 270.117 2105.98 267.455 Q2104.04 264.77 2100.66 264.77 Q2097.28 264.77 2095.33 267.455 Q2093.41 270.117 2093.41 274.816 Z" fill="#000000" fill-rule="nonzero" fill-opacity="1" /><path clip-path="url(#clip730)" d="M2135.98 265.811 Q2135.26 265.395 2134.41 265.21 Q2133.57 265.001 2132.55 265.001 Q2128.94 265.001 2127 267.362 Q2125.08 269.7 2125.08 274.098 L2125.08 287.756 L2120.79 287.756 L2120.79 261.83 L2125.08 261.83 L2125.08 265.858 Q2126.42 263.497 2128.57 262.362 Q2130.73 261.205 2133.8 261.205 Q2134.24 261.205 2134.78 261.274 Q2135.31 261.321 2135.96 261.436 L2135.98 265.811 Z" fill="#000000" fill-rule="nonzero" fill-opacity="1" /><path clip-path="url(#clip730)" d="M2161.58 273.728 L2161.58 275.811 L2142 275.811 Q2142.28 280.209 2144.64 282.524 Q2147.02 284.816 2151.26 284.816 Q2153.71 284.816 2156 284.214 Q2158.32 283.612 2160.59 282.409 L2160.59 286.436 Q2158.29 287.408 2155.89 287.918 Q2153.48 288.427 2151 288.427 Q2144.8 288.427 2141.16 284.816 Q2137.55 281.205 2137.55 275.047 Q2137.55 268.682 2140.98 264.955 Q2144.43 261.205 2150.26 261.205 Q2155.49 261.205 2158.53 264.585 Q2161.58 267.941 2161.58 273.728 M2157.32 272.478 Q2157.28 268.983 2155.35 266.899 Q2153.46 264.816 2150.31 264.816 Q2146.74 264.816 2144.59 266.83 Q2142.46 268.844 2142.14 272.501 L2157.32 272.478 Z" fill="#000000" fill-rule="nonzero" fill-opacity="1" /><path clip-path="url(#clip730)" d="M2168.57 261.83 L2172.83 261.83 L2172.83 287.756 L2168.57 287.756 L2168.57 261.83 M2168.57 251.737 L2172.83 251.737 L2172.83 257.131 L2168.57 257.131 L2168.57 251.737 Z" fill="#000000" fill-rule="nonzero" fill-opacity="1" /><path clip-path="url(#clip730)" d="M2201.44 295.626 L2201.44 298.936 L2176.81 298.936 L2176.81 295.626 L2201.44 295.626 Z" fill="#000000" fill-rule="nonzero" fill-opacity="1" /><path clip-path="url(#clip730)" d="M2217.23 274.723 Q2212.07 274.723 2210.08 275.904 Q2208.09 277.084 2208.09 279.932 Q2208.09 282.2 2209.57 283.543 Q2211.07 284.862 2213.64 284.862 Q2217.18 284.862 2219.31 282.362 Q2221.47 279.839 2221.47 275.672 L2221.47 274.723 L2217.23 274.723 M2225.72 272.964 L2225.72 287.756 L2221.47 287.756 L2221.47 283.821 Q2220.01 286.182 2217.83 287.316 Q2215.66 288.427 2212.51 288.427 Q2208.53 288.427 2206.16 286.205 Q2203.83 283.959 2203.83 280.209 Q2203.83 275.834 2206.74 273.612 Q2209.68 271.39 2215.49 271.39 L2221.47 271.39 L2221.47 270.973 Q2221.47 268.034 2219.52 266.436 Q2217.6 264.816 2214.1 264.816 Q2211.88 264.816 2209.78 265.348 Q2207.67 265.881 2205.72 266.946 L2205.72 263.01 Q2208.06 262.108 2210.26 261.668 Q2212.46 261.205 2214.54 261.205 Q2220.17 261.205 2222.95 264.122 Q2225.72 267.038 2225.72 272.964 Z" fill="#000000" fill-rule="nonzero" fill-opacity="1" /><path clip-path="url(#clip730)" d="M2234.5 251.737 L2238.76 251.737 L2238.76 287.756 L2234.5 287.756 L2234.5 251.737 Z" fill="#000000" fill-rule="nonzero" fill-opacity="1" /><path clip-path="url(#clip730)" d="M2251.88 254.469 L2251.88 261.83 L2260.66 261.83 L2260.66 265.14 L2251.88 265.14 L2251.88 279.214 Q2251.88 282.385 2252.74 283.288 Q2253.62 284.191 2256.28 284.191 L2260.66 284.191 L2260.66 287.756 L2256.28 287.756 Q2251.35 287.756 2249.47 285.927 Q2247.6 284.075 2247.6 279.214 L2247.6 265.14 L2244.47 265.14 L2244.47 261.83 L2247.6 261.83 L2247.6 254.469 L2251.88 254.469 Z" fill="#000000" fill-rule="nonzero" fill-opacity="1" /><polyline clip-path="url(#clip730)" style="stroke:#3da44d; stroke-linecap:round; stroke-linejoin:round; stroke-width:4; stroke-opacity:1; fill:none" points="1776.38,322.316 1914.53,322.316 "/>
<path clip-path="url(#clip730)" d="M1937.55 305.036 L1942.23 305.036 L1942.23 335.661 L1959.06 335.661 L1959.06 339.596 L1937.55 339.596 L1937.55 305.036 Z" fill="#000000" fill-rule="nonzero" fill-opacity="1" /><path clip-path="url(#clip730)" d="M1963.97 305.036 L1970.93 305.036 L1979.75 328.554 L1988.62 305.036 L1995.59 305.036 L1995.59 339.596 L1991.03 339.596 L1991.03 309.249 L1982.11 332.952 L1977.42 332.952 L1968.5 309.249 L1968.5 339.596 L1963.97 339.596 L1963.97 305.036 Z" fill="#000000" fill-rule="nonzero" fill-opacity="1" /><path clip-path="url(#clip730)" d="M2024.38 347.466 L2024.38 350.776 L1999.75 350.776 L1999.75 347.466 L2024.38 347.466 Z" fill="#000000" fill-rule="nonzero" fill-opacity="1" /><path clip-path="url(#clip730)" d="M2040.12 309.642 L2033.78 326.841 L2046.49 326.841 L2040.12 309.642 M2037.48 305.036 L2042.79 305.036 L2055.96 339.596 L2051.1 339.596 L2047.95 330.73 L2032.37 330.73 L2029.22 339.596 L2024.29 339.596 L2037.48 305.036 Z" fill="#000000" fill-rule="nonzero" fill-opacity="1" /><path clip-path="url(#clip730)" d="M2082.37 323.948 L2082.37 339.596 L2078.11 339.596 L2078.11 324.087 Q2078.11 320.406 2076.67 318.577 Q2075.24 316.749 2072.37 316.749 Q2068.92 316.749 2066.93 318.948 Q2064.94 321.147 2064.94 324.943 L2064.94 339.596 L2060.66 339.596 L2060.66 313.67 L2064.94 313.67 L2064.94 317.698 Q2066.47 315.36 2068.53 314.202 Q2070.61 313.045 2073.32 313.045 Q2077.79 313.045 2080.08 315.823 Q2082.37 318.577 2082.37 323.948 Z" fill="#000000" fill-rule="nonzero" fill-opacity="1" /><path clip-path="url(#clip730)" d="M2107.92 317.605 L2107.92 303.577 L2112.18 303.577 L2112.18 339.596 L2107.92 339.596 L2107.92 335.707 Q2106.58 338.022 2104.52 339.156 Q2102.48 340.267 2099.61 340.267 Q2094.92 340.267 2091.95 336.517 Q2089.01 332.767 2089.01 326.656 Q2089.01 320.545 2091.95 316.795 Q2094.92 313.045 2099.61 313.045 Q2102.48 313.045 2104.52 314.179 Q2106.58 315.29 2107.92 317.605 M2093.41 326.656 Q2093.41 331.355 2095.33 334.04 Q2097.28 336.702 2100.66 336.702 Q2104.04 336.702 2105.98 334.04 Q2107.92 331.355 2107.92 326.656 Q2107.92 321.957 2105.98 319.295 Q2104.04 316.61 2100.66 316.61 Q2097.28 316.61 2095.33 319.295 Q2093.41 321.957 2093.41 326.656 Z" fill="#000000" fill-rule="nonzero" fill-opacity="1" /><path clip-path="url(#clip730)" d="M2135.98 317.651 Q2135.26 317.235 2134.41 317.05 Q2133.57 316.841 2132.55 316.841 Q2128.94 316.841 2127 319.202 Q2125.08 321.54 2125.08 325.938 L2125.08 339.596 L2120.79 339.596 L2120.79 313.67 L2125.08 313.67 L2125.08 317.698 Q2126.42 315.337 2128.57 314.202 Q2130.73 313.045 2133.8 313.045 Q2134.24 313.045 2134.78 313.114 Q2135.31 313.161 2135.96 313.276 L2135.98 317.651 Z" fill="#000000" fill-rule="nonzero" fill-opacity="1" /><path clip-path="url(#clip730)" d="M2161.58 325.568 L2161.58 327.651 L2142 327.651 Q2142.28 332.049 2144.64 334.364 Q2147.02 336.656 2151.26 336.656 Q2153.71 336.656 2156 336.054 Q2158.32 335.452 2160.59 334.249 L2160.59 338.276 Q2158.29 339.248 2155.89 339.758 Q2153.48 340.267 2151 340.267 Q2144.8 340.267 2141.16 336.656 Q2137.55 333.045 2137.55 326.887 Q2137.55 320.522 2140.98 316.795 Q2144.43 313.045 2150.26 313.045 Q2155.49 313.045 2158.53 316.425 Q2161.58 319.781 2161.58 325.568 M2157.32 324.318 Q2157.28 320.823 2155.35 318.739 Q2153.46 316.656 2150.31 316.656 Q2146.74 316.656 2144.59 318.67 Q2142.46 320.684 2142.14 324.341 L2157.32 324.318 Z" fill="#000000" fill-rule="nonzero" fill-opacity="1" /><path clip-path="url(#clip730)" d="M2168.57 313.67 L2172.83 313.67 L2172.83 339.596 L2168.57 339.596 L2168.57 313.67 M2168.57 303.577 L2172.83 303.577 L2172.83 308.971 L2168.57 308.971 L2168.57 303.577 Z" fill="#000000" fill-rule="nonzero" fill-opacity="1" /><polyline clip-path="url(#clip730)" style="stroke:#c271d2; stroke-linecap:round; stroke-linejoin:round; stroke-width:4; stroke-opacity:1; fill:none" points="1776.38,374.156 1914.53,374.156 "/>
<path clip-path="url(#clip730)" d="M1937.55 356.876 L1942.23 356.876 L1942.23 387.501 L1959.06 387.501 L1959.06 391.436 L1937.55 391.436 L1937.55 356.876 Z" fill="#000000" fill-rule="nonzero" fill-opacity="1" /><path clip-path="url(#clip730)" d="M1963.97 356.876 L1970.93 356.876 L1979.75 380.394 L1988.62 356.876 L1995.59 356.876 L1995.59 391.436 L1991.03 391.436 L1991.03 361.089 L1982.11 384.792 L1977.42 384.792 L1968.5 361.089 L1968.5 391.436 L1963.97 391.436 L1963.97 356.876 Z" fill="#000000" fill-rule="nonzero" fill-opacity="1" /><path clip-path="url(#clip730)" d="M2024.38 399.306 L2024.38 402.616 L1999.75 402.616 L1999.75 399.306 L2024.38 399.306 Z" fill="#000000" fill-rule="nonzero" fill-opacity="1" /><path clip-path="url(#clip730)" d="M2049.29 358.01 L2049.29 362.57 Q2046.63 361.297 2044.27 360.672 Q2041.91 360.047 2039.71 360.047 Q2035.89 360.047 2033.8 361.528 Q2031.74 363.01 2031.74 365.741 Q2031.74 368.033 2033.11 369.214 Q2034.5 370.371 2038.34 371.089 L2041.17 371.667 Q2046.4 372.663 2048.87 375.186 Q2051.37 377.686 2051.37 381.899 Q2051.37 386.922 2047.99 389.514 Q2044.64 392.107 2038.13 392.107 Q2035.68 392.107 2032.9 391.551 Q2030.15 390.996 2027.18 389.908 L2027.18 385.093 Q2030.03 386.69 2032.76 387.501 Q2035.49 388.311 2038.13 388.311 Q2042.14 388.311 2044.31 386.737 Q2046.49 385.163 2046.49 382.246 Q2046.49 379.7 2044.92 378.264 Q2043.36 376.829 2039.8 376.112 L2036.95 375.556 Q2031.72 374.515 2029.38 372.292 Q2027.05 370.07 2027.05 366.112 Q2027.05 361.528 2030.26 358.89 Q2033.5 356.251 2039.17 356.251 Q2041.61 356.251 2044.13 356.691 Q2046.65 357.13 2049.29 358.01 Z" fill="#000000" fill-rule="nonzero" fill-opacity="1" /><path clip-path="url(#clip730)" d="M2063.34 360.718 L2063.34 373.704 L2069.22 373.704 Q2072.48 373.704 2074.27 372.015 Q2076.05 370.325 2076.05 367.2 Q2076.05 364.098 2074.27 362.408 Q2072.48 360.718 2069.22 360.718 L2063.34 360.718 M2058.67 356.876 L2069.22 356.876 Q2075.03 356.876 2077.99 359.515 Q2080.98 362.13 2080.98 367.2 Q2080.98 372.315 2077.99 374.931 Q2075.03 377.547 2069.22 377.547 L2063.34 377.547 L2063.34 391.436 L2058.67 391.436 L2058.67 356.876 Z" fill="#000000" fill-rule="nonzero" fill-opacity="1" /><path clip-path="url(#clip730)" d="M2110.82 386.505 L2110.82 377.223 L2103.18 377.223 L2103.18 373.38 L2115.45 373.38 L2115.45 388.218 Q2112.74 390.139 2109.48 391.135 Q2106.21 392.107 2102.51 392.107 Q2094.41 392.107 2089.82 387.385 Q2085.26 382.639 2085.26 374.19 Q2085.26 365.718 2089.82 360.996 Q2094.41 356.251 2102.51 356.251 Q2105.89 356.251 2108.92 357.084 Q2111.98 357.917 2114.54 359.538 L2114.54 364.515 Q2111.95 362.316 2109.04 361.204 Q2106.12 360.093 2102.9 360.093 Q2096.56 360.093 2093.36 363.635 Q2090.19 367.177 2090.19 374.19 Q2090.19 381.181 2093.36 384.723 Q2096.56 388.264 2102.9 388.264 Q2105.38 388.264 2107.32 387.848 Q2109.27 387.408 2110.82 386.505 Z" fill="#000000" fill-rule="nonzero" fill-opacity="1" /><path clip-path="url(#clip730)" d="M2143.5 399.306 L2143.5 402.616 L2118.87 402.616 L2118.87 399.306 L2143.5 399.306 Z" fill="#000000" fill-rule="nonzero" fill-opacity="1" /><path clip-path="url(#clip730)" d="M2159.29 378.403 Q2154.13 378.403 2152.14 379.584 Q2150.15 380.764 2150.15 383.612 Q2150.15 385.88 2151.63 387.223 Q2153.13 388.542 2155.7 388.542 Q2159.24 388.542 2161.37 386.042 Q2163.53 383.519 2163.53 379.352 L2163.53 378.403 L2159.29 378.403 M2167.79 376.644 L2167.79 391.436 L2163.53 391.436 L2163.53 387.501 Q2162.07 389.862 2159.89 390.996 Q2157.72 392.107 2154.57 392.107 Q2150.59 392.107 2148.23 389.885 Q2145.89 387.639 2145.89 383.889 Q2145.89 379.514 2148.8 377.292 Q2151.74 375.07 2157.55 375.07 L2163.53 375.07 L2163.53 374.653 Q2163.53 371.714 2161.58 370.116 Q2159.66 368.496 2156.16 368.496 Q2153.94 368.496 2151.84 369.028 Q2149.73 369.561 2147.79 370.626 L2147.79 366.69 Q2150.12 365.788 2152.32 365.348 Q2154.52 364.885 2156.6 364.885 Q2162.23 364.885 2165.01 367.802 Q2167.79 370.718 2167.79 376.644 Z" fill="#000000" fill-rule="nonzero" fill-opacity="1" /><path clip-path="url(#clip730)" d="M2176.56 355.417 L2180.82 355.417 L2180.82 391.436 L2176.56 391.436 L2176.56 355.417 Z" fill="#000000" fill-rule="nonzero" fill-opacity="1" /><path clip-path="url(#clip730)" d="M2193.94 358.149 L2193.94 365.51 L2202.72 365.51 L2202.72 368.82 L2193.94 368.82 L2193.94 382.894 Q2193.94 386.065 2194.8 386.968 Q2195.68 387.871 2198.34 387.871 L2202.72 387.871 L2202.72 391.436 L2198.34 391.436 Q2193.41 391.436 2191.54 389.607 Q2189.66 387.755 2189.66 382.894 L2189.66 368.82 L2186.54 368.82 L2186.54 365.51 L2189.66 365.51 L2189.66 358.149 L2193.94 358.149 Z" fill="#000000" fill-rule="nonzero" fill-opacity="1" /><polyline clip-path="url(#clip730)" style="stroke:#ac8d18; stroke-linecap:round; stroke-linejoin:round; stroke-width:4; stroke-opacity:1; fill:none" points="1776.38,425.996 1914.53,425.996 "/>
<path clip-path="url(#clip730)" d="M1937.55 408.716 L1942.23 408.716 L1942.23 439.341 L1959.06 439.341 L1959.06 443.276 L1937.55 443.276 L1937.55 408.716 Z" fill="#000000" fill-rule="nonzero" fill-opacity="1" /><path clip-path="url(#clip730)" d="M1963.97 408.716 L1970.93 408.716 L1979.75 432.234 L1988.62 408.716 L1995.59 408.716 L1995.59 443.276 L1991.03 443.276 L1991.03 412.929 L1982.11 436.632 L1977.42 436.632 L1968.5 412.929 L1968.5 443.276 L1963.97 443.276 L1963.97 408.716 Z" fill="#000000" fill-rule="nonzero" fill-opacity="1" /></svg>
