<?xml version="1.0" encoding="utf-8"?>
<svg xmlns="http://www.w3.org/2000/svg" xmlns:xlink="http://www.w3.org/1999/xlink" width="600" height="400" viewBox="0 0 2400 1600">
<defs>
  <clipPath id="clip010">
    <rect x="0" y="0" width="2400" height="1600"/>
  </clipPath>
</defs>
<path clip-path="url(#clip010)" d="M0 1600 L2400 1600 L2400 0 L0 0  Z" fill="#ffffff" fill-rule="evenodd" fill-opacity="1"/>
<defs>
  <clipPath id="clip011">
    <rect x="480" y="0" width="1681" height="1600"/>
  </clipPath>
</defs>
<path clip-path="url(#clip010)" d="M276.876 1423.18 L2352.76 1423.18 L2352.76 123.472 L276.876 123.472  Z" fill="#ffffff" fill-rule="evenodd" fill-opacity="1"/>
<defs>
  <clipPath id="clip012">
    <rect x="276" y="123" width="2077" height="1301"/>
  </clipPath>
</defs>
<polyline clip-path="url(#clip012)" style="stroke:#000000; stroke-linecap:round; stroke-linejoin:round; stroke-width:2; stroke-opacity:0.1; fill:none" points="330.743,1423.18 330.743,123.472 "/>
<polyline clip-path="url(#clip012)" style="stroke:#000000; stroke-linecap:round; stroke-linejoin:round; stroke-width:2; stroke-opacity:0.1; fill:none" points="819.117,1423.18 819.117,123.472 "/>
<polyline clip-path="url(#clip012)" style="stroke:#000000; stroke-linecap:round; stroke-linejoin:round; stroke-width:2; stroke-opacity:0.1; fill:none" points="1307.49,1423.18 1307.49,123.472 "/>
<polyline clip-path="url(#clip012)" style="stroke:#000000; stroke-linecap:round; stroke-linejoin:round; stroke-width:2; stroke-opacity:0.1; fill:none" points="1795.86,1423.18 1795.86,123.472 "/>
<polyline clip-path="url(#clip012)" style="stroke:#000000; stroke-linecap:round; stroke-linejoin:round; stroke-width:2; stroke-opacity:0.1; fill:none" points="2284.24,1423.18 2284.24,123.472 "/>
<polyline clip-path="url(#clip010)" style="stroke:#000000; stroke-linecap:round; stroke-linejoin:round; stroke-width:4; stroke-opacity:1; fill:none" points="276.876,1423.18 2352.76,1423.18 "/>
<polyline clip-path="url(#clip010)" style="stroke:#000000; stroke-linecap:round; stroke-linejoin:round; stroke-width:4; stroke-opacity:1; fill:none" points="330.743,1423.18 330.743,1404.28 "/>
<polyline clip-path="url(#clip010)" style="stroke:#000000; stroke-linecap:round; stroke-linejoin:round; stroke-width:4; stroke-opacity:1; fill:none" points="819.117,1423.18 819.117,1404.28 "/>
<polyline clip-path="url(#clip010)" style="stroke:#000000; stroke-linecap:round; stroke-linejoin:round; stroke-width:4; stroke-opacity:1; fill:none" points="1307.49,1423.18 1307.49,1404.28 "/>
<polyline clip-path="url(#clip010)" style="stroke:#000000; stroke-linecap:round; stroke-linejoin:round; stroke-width:4; stroke-opacity:1; fill:none" points="1795.86,1423.18 1795.86,1404.28 "/>
<polyline clip-path="url(#clip010)" style="stroke:#000000; stroke-linecap:round; stroke-linejoin:round; stroke-width:4; stroke-opacity:1; fill:none" points="2284.24,1423.18 2284.24,1404.28 "/>
<path clip-path="url(#clip010)" d="M330.743 1454.1 Q327.132 1454.1 325.303 1457.66 Q323.498 1461.2 323.498 1468.33 Q323.498 1475.44 325.303 1479.01 Q327.132 1482.55 330.743 1482.55 Q334.377 1482.55 336.183 1479.01 Q338.012 1475.44 338.012 1468.33 Q338.012 1461.2 336.183 1457.66 Q334.377 1454.1 330.743 1454.1 M330.743 1450.39 Q336.553 1450.39 339.609 1455 Q342.687 1459.58 342.687 1468.33 Q342.687 1477.06 339.609 1481.67 Q336.553 1486.25 330.743 1486.25 Q324.933 1486.25 321.854 1481.67 Q318.799 1477.06 318.799 1468.33 Q318.799 1459.58 321.854 1455 Q324.933 1450.39 330.743 1450.39 Z" fill="#000000" fill-rule="nonzero" fill-opacity="1" /><path clip-path="url(#clip010)" d="M778.723 1481.64 L786.362 1481.64 L786.362 1455.28 L778.052 1456.95 L778.052 1452.69 L786.316 1451.02 L790.992 1451.02 L790.992 1481.64 L798.631 1481.64 L798.631 1485.58 L778.723 1485.58 L778.723 1481.64 Z" fill="#000000" fill-rule="nonzero" fill-opacity="1" /><path clip-path="url(#clip010)" d="M818.075 1454.1 Q814.464 1454.1 812.635 1457.66 Q810.83 1461.2 810.83 1468.33 Q810.83 1475.44 812.635 1479.01 Q814.464 1482.55 818.075 1482.55 Q821.709 1482.55 823.515 1479.01 Q825.343 1475.44 825.343 1468.33 Q825.343 1461.2 823.515 1457.66 Q821.709 1454.1 818.075 1454.1 M818.075 1450.39 Q823.885 1450.39 826.941 1455 Q830.019 1459.58 830.019 1468.33 Q830.019 1477.06 826.941 1481.67 Q823.885 1486.25 818.075 1486.25 Q812.265 1486.25 809.186 1481.67 Q806.131 1477.06 806.131 1468.33 Q806.131 1459.58 809.186 1455 Q812.265 1450.39 818.075 1450.39 Z" fill="#000000" fill-rule="nonzero" fill-opacity="1" /><path clip-path="url(#clip010)" d="M848.237 1454.1 Q844.626 1454.1 842.797 1457.66 Q840.991 1461.2 840.991 1468.33 Q840.991 1475.44 842.797 1479.01 Q844.626 1482.55 848.237 1482.55 Q851.871 1482.55 853.677 1479.01 Q855.505 1475.44 855.505 1468.33 Q855.505 1461.2 853.677 1457.66 Q851.871 1454.1 848.237 1454.1 M848.237 1450.39 Q854.047 1450.39 857.103 1455 Q860.181 1459.58 860.181 1468.33 Q860.181 1477.06 857.103 1481.67 Q854.047 1486.25 848.237 1486.25 Q842.427 1486.25 839.348 1481.67 Q836.292 1477.06 836.292 1468.33 Q836.292 1459.58 839.348 1455 Q842.427 1450.39 848.237 1450.39 Z" fill="#000000" fill-rule="nonzero" fill-opacity="1" /><path clip-path="url(#clip010)" d="M1271.18 1481.64 L1287.5 1481.64 L1287.5 1485.58 L1265.56 1485.58 L1265.56 1481.64 Q1268.22 1478.89 1272.8 1474.26 Q1277.41 1469.61 1278.59 1468.27 Q1280.84 1465.74 1281.71 1464.01 Q1282.62 1462.25 1282.62 1460.56 Q1282.62 1457.8 1280.67 1456.07 Q1278.75 1454.33 1275.65 1454.33 Q1273.45 1454.33 1271 1455.09 Q1268.57 1455.86 1265.79 1457.41 L1265.79 1452.69 Q1268.61 1451.55 1271.07 1450.97 Q1273.52 1450.39 1275.56 1450.39 Q1280.93 1450.39 1284.12 1453.08 Q1287.32 1455.77 1287.32 1460.26 Q1287.32 1462.39 1286.51 1464.31 Q1285.72 1466.2 1283.61 1468.8 Q1283.03 1469.47 1279.93 1472.69 Q1276.83 1475.88 1271.18 1481.64 Z" fill="#000000" fill-rule="nonzero" fill-opacity="1" /><path clip-path="url(#clip010)" d="M1307.32 1454.1 Q1303.71 1454.1 1301.88 1457.66 Q1300.07 1461.2 1300.07 1468.33 Q1300.07 1475.44 1301.88 1479.01 Q1303.71 1482.55 1307.32 1482.55 Q1310.95 1482.55 1312.76 1479.01 Q1314.58 1475.44 1314.58 1468.33 Q1314.58 1461.2 1312.76 1457.66 Q1310.95 1454.1 1307.32 1454.1 M1307.32 1450.39 Q1313.13 1450.39 1316.18 1455 Q1319.26 1459.58 1319.26 1468.33 Q1319.26 1477.06 1316.18 1481.67 Q1313.13 1486.25 1307.32 1486.25 Q1301.51 1486.25 1298.43 1481.67 Q1295.37 1477.06 1295.37 1468.33 Q1295.37 1459.58 1298.43 1455 Q1301.51 1450.39 1307.32 1450.39 Z" fill="#000000" fill-rule="nonzero" fill-opacity="1" /><path clip-path="url(#clip010)" d="M1337.48 1454.1 Q1333.87 1454.1 1332.04 1457.66 Q1330.23 1461.2 1330.23 1468.33 Q1330.23 1475.44 1332.04 1479.01 Q1333.87 1482.55 1337.48 1482.55 Q1341.11 1482.55 1342.92 1479.01 Q1344.75 1475.44 1344.75 1468.33 Q1344.75 1461.2 1342.92 1457.66 Q1341.11 1454.1 1337.48 1454.1 M1337.48 1450.39 Q1343.29 1450.39 1346.34 1455 Q1349.42 1459.58 1349.42 1468.33 Q1349.42 1477.06 1346.34 1481.67 Q1343.29 1486.25 1337.48 1486.25 Q1331.67 1486.25 1328.59 1481.67 Q1325.53 1477.06 1325.53 1468.33 Q1325.53 1459.58 1328.59 1455 Q1331.67 1450.39 1337.48 1450.39 Z" fill="#000000" fill-rule="nonzero" fill-opacity="1" /><path clip-path="url(#clip010)" d="M1769.63 1466.95 Q1772.98 1467.66 1774.86 1469.93 Q1776.75 1472.2 1776.75 1475.53 Q1776.75 1480.65 1773.24 1483.45 Q1769.72 1486.25 1763.24 1486.25 Q1761.06 1486.25 1758.75 1485.81 Q1756.45 1485.39 1754 1484.54 L1754 1480.02 Q1755.94 1481.16 1758.26 1481.74 Q1760.57 1482.32 1763.1 1482.32 Q1767.5 1482.32 1769.79 1480.58 Q1772.1 1478.84 1772.1 1475.53 Q1772.1 1472.48 1769.95 1470.77 Q1767.82 1469.03 1764 1469.03 L1759.97 1469.03 L1759.97 1465.19 L1764.19 1465.19 Q1767.63 1465.19 1769.46 1463.82 Q1771.29 1462.43 1771.29 1459.84 Q1771.29 1457.18 1769.39 1455.77 Q1767.52 1454.33 1764 1454.33 Q1762.08 1454.33 1759.88 1454.75 Q1757.68 1455.16 1755.04 1456.04 L1755.04 1451.88 Q1757.7 1451.14 1760.02 1450.77 Q1762.36 1450.39 1764.42 1450.39 Q1769.74 1450.39 1772.84 1452.83 Q1775.94 1455.23 1775.94 1459.35 Q1775.94 1462.22 1774.3 1464.21 Q1772.66 1466.18 1769.63 1466.95 Z" fill="#000000" fill-rule="nonzero" fill-opacity="1" /><path clip-path="url(#clip010)" d="M1795.62 1454.1 Q1792.01 1454.1 1790.18 1457.66 Q1788.38 1461.2 1788.38 1468.33 Q1788.38 1475.44 1790.18 1479.01 Q1792.01 1482.55 1795.62 1482.55 Q1799.25 1482.55 1801.06 1479.01 Q1802.89 1475.44 1802.89 1468.33 Q1802.89 1461.2 1801.06 1457.66 Q1799.25 1454.1 1795.62 1454.1 M1795.62 1450.39 Q1801.43 1450.39 1804.49 1455 Q1807.56 1459.58 1807.56 1468.33 Q1807.56 1477.06 1804.49 1481.67 Q1801.43 1486.25 1795.62 1486.25 Q1789.81 1486.25 1786.73 1481.67 Q1783.68 1477.06 1783.68 1468.33 Q1783.68 1459.58 1786.73 1455 Q1789.81 1450.39 1795.62 1450.39 Z" fill="#000000" fill-rule="nonzero" fill-opacity="1" /><path clip-path="url(#clip010)" d="M1825.78 1454.1 Q1822.17 1454.1 1820.34 1457.66 Q1818.54 1461.2 1818.54 1468.33 Q1818.54 1475.44 1820.34 1479.01 Q1822.17 1482.55 1825.78 1482.55 Q1829.42 1482.55 1831.22 1479.01 Q1833.05 1475.44 1833.05 1468.33 Q1833.05 1461.2 1831.22 1457.66 Q1829.42 1454.1 1825.78 1454.1 M1825.78 1450.39 Q1831.59 1450.39 1834.65 1455 Q1837.73 1459.58 1837.73 1468.33 Q1837.73 1477.06 1834.65 1481.67 Q1831.59 1486.25 1825.78 1486.25 Q1819.97 1486.25 1816.89 1481.67 Q1813.84 1477.06 1813.84 1468.33 Q1813.84 1459.58 1816.89 1455 Q1819.97 1450.39 1825.78 1450.39 Z" fill="#000000" fill-rule="nonzero" fill-opacity="1" /><path clip-path="url(#clip010)" d="M2257.33 1455.09 L2245.52 1473.54 L2257.33 1473.54 L2257.33 1455.09 M2256.1 1451.02 L2261.98 1451.02 L2261.98 1473.54 L2266.91 1473.54 L2266.91 1477.43 L2261.98 1477.43 L2261.98 1485.58 L2257.33 1485.58 L2257.33 1477.43 L2241.73 1477.43 L2241.73 1472.92 L2256.1 1451.02 Z" fill="#000000" fill-rule="nonzero" fill-opacity="1" /><path clip-path="url(#clip010)" d="M2284.64 1454.1 Q2281.03 1454.1 2279.2 1457.66 Q2277.4 1461.2 2277.4 1468.33 Q2277.4 1475.44 2279.2 1479.01 Q2281.03 1482.55 2284.64 1482.55 Q2288.28 1482.55 2290.08 1479.01 Q2291.91 1475.44 2291.91 1468.33 Q2291.91 1461.2 2290.08 1457.66 Q2288.28 1454.1 2284.64 1454.1 M2284.64 1450.39 Q2290.45 1450.39 2293.51 1455 Q2296.59 1459.58 2296.59 1468.33 Q2296.59 1477.06 2293.51 1481.67 Q2290.45 1486.25 2284.64 1486.25 Q2278.83 1486.25 2275.75 1481.67 Q2272.7 1477.06 2272.7 1468.33 Q2272.7 1459.58 2275.75 1455 Q2278.83 1450.39 2284.64 1450.39 Z" fill="#000000" fill-rule="nonzero" fill-opacity="1" /><path clip-path="url(#clip010)" d="M2314.8 1454.1 Q2311.19 1454.1 2309.36 1457.66 Q2307.56 1461.2 2307.56 1468.33 Q2307.56 1475.44 2309.36 1479.01 Q2311.19 1482.55 2314.8 1482.55 Q2318.44 1482.55 2320.24 1479.01 Q2322.07 1475.44 2322.07 1468.33 Q2322.07 1461.2 2320.24 1457.66 Q2318.44 1454.1 2314.8 1454.1 M2314.8 1450.39 Q2320.61 1450.39 2323.67 1455 Q2326.75 1459.58 2326.75 1468.33 Q2326.75 1477.06 2323.67 1481.67 Q2320.61 1486.25 2314.8 1486.25 Q2308.99 1486.25 2305.92 1481.67 Q2302.86 1477.06 2302.86 1468.33 Q2302.86 1459.58 2305.92 1455 Q2308.99 1450.39 2314.8 1450.39 Z" fill="#000000" fill-rule="nonzero" fill-opacity="1" /><path clip-path="url(#clip010)" d="M1299 1518.52 L1304.89 1518.52 L1304.89 1547.77 L1322.36 1532.4 L1329.84 1532.4 L1310.93 1549.07 L1330.63 1568.04 L1323 1568.04 L1304.89 1550.63 L1304.89 1568.04 L1299 1568.04 L1299 1518.52 Z" fill="#000000" fill-rule="nonzero" fill-opacity="1" /><polyline clip-path="url(#clip012)" style="stroke:#000000; stroke-linecap:round; stroke-linejoin:round; stroke-width:2; stroke-opacity:0.1; fill:none" points="276.876,1277.52 2352.76,1277.52 "/>
<polyline clip-path="url(#clip012)" style="stroke:#000000; stroke-linecap:round; stroke-linejoin:round; stroke-width:2; stroke-opacity:0.1; fill:none" points="276.876,835.685 2352.76,835.685 "/>
<polyline clip-path="url(#clip012)" style="stroke:#000000; stroke-linecap:round; stroke-linejoin:round; stroke-width:2; stroke-opacity:0.1; fill:none" points="276.876,393.85 2352.76,393.85 "/>
<polyline clip-path="url(#clip010)" style="stroke:#000000; stroke-linecap:round; stroke-linejoin:round; stroke-width:4; stroke-opacity:1; fill:none" points="276.876,1423.18 276.876,123.472 "/>
<polyline clip-path="url(#clip010)" style="stroke:#000000; stroke-linecap:round; stroke-linejoin:round; stroke-width:4; stroke-opacity:1; fill:none" points="276.876,1277.52 295.773,1277.52 "/>
<polyline clip-path="url(#clip010)" style="stroke:#000000; stroke-linecap:round; stroke-linejoin:round; stroke-width:4; stroke-opacity:1; fill:none" points="276.876,835.685 295.773,835.685 "/>
<polyline clip-path="url(#clip010)" style="stroke:#000000; stroke-linecap:round; stroke-linejoin:round; stroke-width:4; stroke-opacity:1; fill:none" points="276.876,393.85 295.773,393.85 "/>
<path clip-path="url(#clip010)" d="M114.931 1297.31 L122.57 1297.31 L122.57 1270.95 L114.26 1272.61 L114.26 1268.35 L122.524 1266.69 L127.2 1266.69 L127.2 1297.31 L134.839 1297.31 L134.839 1301.25 L114.931 1301.25 L114.931 1297.31 Z" fill="#000000" fill-rule="nonzero" fill-opacity="1" /><path clip-path="url(#clip010)" d="M154.283 1269.77 Q150.672 1269.77 148.843 1273.33 Q147.038 1276.87 147.038 1284 Q147.038 1291.11 148.843 1294.67 Q150.672 1298.21 154.283 1298.21 Q157.917 1298.21 159.723 1294.67 Q161.552 1291.11 161.552 1284 Q161.552 1276.87 159.723 1273.33 Q157.917 1269.77 154.283 1269.77 M154.283 1266.06 Q160.093 1266.06 163.149 1270.67 Q166.227 1275.25 166.227 1284 Q166.227 1292.73 163.149 1297.33 Q160.093 1301.92 154.283 1301.92 Q148.473 1301.92 145.394 1297.33 Q142.339 1292.73 142.339 1284 Q142.339 1275.25 145.394 1270.67 Q148.473 1266.06 154.283 1266.06 Z" fill="#000000" fill-rule="nonzero" fill-opacity="1" /><path clip-path="url(#clip010)" d="M166.227 1260.16 L190.339 1260.16 L190.339 1263.36 L166.227 1263.36 L166.227 1260.16 Z" fill="#000000" fill-rule="nonzero" fill-opacity="1" /><path clip-path="url(#clip010)" d="M199.197 1270.64 L205.404 1270.64 L205.404 1249.22 L198.652 1250.57 L198.652 1247.11 L205.366 1245.76 L209.166 1245.76 L209.166 1270.64 L215.372 1270.64 L215.372 1273.84 L199.197 1273.84 L199.197 1270.64 Z" fill="#000000" fill-rule="nonzero" fill-opacity="1" /><path clip-path="url(#clip010)" d="M231.171 1248.26 Q228.237 1248.26 226.751 1251.15 Q225.284 1254.03 225.284 1259.82 Q225.284 1265.6 226.751 1268.5 Q228.237 1271.37 231.171 1271.37 Q234.124 1271.37 235.591 1268.5 Q237.076 1265.6 237.076 1259.82 Q237.076 1254.03 235.591 1251.15 Q234.124 1248.26 231.171 1248.26 M231.171 1245.25 Q235.891 1245.25 238.374 1248.99 Q240.876 1252.72 240.876 1259.82 Q240.876 1266.92 238.374 1270.66 Q235.891 1274.38 231.171 1274.38 Q226.45 1274.38 223.949 1270.66 Q221.466 1266.92 221.466 1259.82 Q221.466 1252.72 223.949 1248.99 Q226.45 1245.25 231.171 1245.25 Z" fill="#000000" fill-rule="nonzero" fill-opacity="1" /><path clip-path="url(#clip010)" d="M140.247 855.477 L147.886 855.477 L147.886 829.112 L139.575 830.778 L139.575 826.519 L147.839 824.853 L152.515 824.853 L152.515 855.477 L160.154 855.477 L160.154 859.413 L140.247 859.413 L140.247 855.477 Z" fill="#000000" fill-rule="nonzero" fill-opacity="1" /><path clip-path="url(#clip010)" d="M179.598 827.931 Q175.987 827.931 174.159 831.496 Q172.353 835.038 172.353 842.167 Q172.353 849.274 174.159 852.838 Q175.987 856.38 179.598 856.38 Q183.233 856.38 185.038 852.838 Q186.867 849.274 186.867 842.167 Q186.867 835.038 185.038 831.496 Q183.233 827.931 179.598 827.931 M179.598 824.228 Q185.409 824.228 188.464 828.834 Q191.543 833.417 191.543 842.167 Q191.543 850.894 188.464 855.501 Q185.409 860.084 179.598 860.084 Q173.788 860.084 170.71 855.501 Q167.654 850.894 167.654 842.167 Q167.654 833.417 170.71 828.834 Q173.788 824.228 179.598 824.228 Z" fill="#000000" fill-rule="nonzero" fill-opacity="1" /><path clip-path="url(#clip010)" d="M191.543 818.329 L215.654 818.329 L215.654 821.526 L191.543 821.526 L191.543 818.329 Z" fill="#000000" fill-rule="nonzero" fill-opacity="1" /><path clip-path="url(#clip010)" d="M223.892 803.922 L238.807 803.922 L238.807 807.119 L227.372 807.119 L227.372 814.003 Q228.199 813.721 229.027 813.589 Q229.854 813.439 230.682 813.439 Q235.384 813.439 238.13 816.016 Q240.876 818.592 240.876 822.993 Q240.876 827.526 238.054 830.046 Q235.233 832.548 230.099 832.548 Q228.331 832.548 226.488 832.247 Q224.663 831.946 222.707 831.344 L222.707 827.526 Q224.4 828.447 226.205 828.899 Q228.011 829.35 230.023 829.35 Q233.277 829.35 235.177 827.639 Q237.076 825.927 237.076 822.993 Q237.076 820.059 235.177 818.348 Q233.277 816.636 230.023 816.636 Q228.5 816.636 226.977 816.975 Q225.472 817.313 223.892 818.028 L223.892 803.922 Z" fill="#000000" fill-rule="nonzero" fill-opacity="1" /><path clip-path="url(#clip010)" d="M170.17 413.643 L177.809 413.643 L177.809 387.277 L169.499 388.944 L169.499 384.685 L177.762 383.018 L182.438 383.018 L182.438 413.643 L190.077 413.643 L190.077 417.578 L170.17 417.578 L170.17 413.643 Z" fill="#000000" fill-rule="nonzero" fill-opacity="1" /><path clip-path="url(#clip010)" d="M209.522 386.097 Q205.91 386.097 204.082 389.662 Q202.276 393.203 202.276 400.333 Q202.276 407.439 204.082 411.004 Q205.91 414.546 209.522 414.546 Q213.156 414.546 214.961 411.004 Q216.79 407.439 216.79 400.333 Q216.79 393.203 214.961 389.662 Q213.156 386.097 209.522 386.097 M209.522 382.393 Q215.332 382.393 218.387 387 Q221.466 391.583 221.466 400.333 Q221.466 409.06 218.387 413.666 Q215.332 418.249 209.522 418.249 Q203.711 418.249 200.633 413.666 Q197.577 409.06 197.577 400.333 Q197.577 391.583 200.633 387 Q203.711 382.393 209.522 382.393 Z" fill="#000000" fill-rule="nonzero" fill-opacity="1" /><path clip-path="url(#clip010)" d="M231.171 364.589 Q228.237 364.589 226.751 367.486 Q225.284 370.363 225.284 376.156 Q225.284 381.93 226.751 384.826 Q228.237 387.704 231.171 387.704 Q234.124 387.704 235.591 384.826 Q237.076 381.93 237.076 376.156 Q237.076 370.363 235.591 367.486 Q234.124 364.589 231.171 364.589 M231.171 361.58 Q235.891 361.58 238.374 365.323 Q240.876 369.047 240.876 376.156 Q240.876 383.246 238.374 386.989 Q235.891 390.713 231.171 390.713 Q226.45 390.713 223.949 386.989 Q221.466 383.246 221.466 376.156 Q221.466 369.047 223.949 365.323 Q226.45 361.58 231.171 361.58 Z" fill="#000000" fill-rule="nonzero" fill-opacity="1" /><path clip-path="url(#clip010)" d="M32.4621 801.797 Q32.4621 806.507 36.1542 809.244 Q39.8145 811.982 46.212 811.982 Q52.6095 811.982 56.3017 809.276 Q59.9619 806.539 59.9619 801.797 Q59.9619 797.118 56.2698 794.381 Q52.5777 791.643 46.212 791.643 Q39.8781 791.643 36.186 794.381 Q32.4621 797.118 32.4621 801.797 M27.4968 801.797 Q27.4968 794.158 32.4621 789.797 Q37.4273 785.437 46.212 785.437 Q54.9649 785.437 59.9619 789.797 Q64.9272 794.158 64.9272 801.797 Q64.9272 809.467 59.9619 813.828 Q54.9649 818.156 46.212 818.156 Q37.4273 818.156 32.4621 813.828 Q27.4968 809.467 27.4968 801.797 Z" fill="#000000" fill-rule="nonzero" fill-opacity="1" /><path clip-path="url(#clip010)" d="M46.212 750.139 Q39.7508 750.139 36.0905 752.812 Q32.3984 755.454 32.3984 760.101 Q32.3984 764.748 36.0905 767.422 Q39.7508 770.064 46.212 770.064 Q52.6732 770.064 56.3653 767.422 Q60.0256 764.748 60.0256 760.101 Q60.0256 755.454 56.3653 752.812 Q52.6732 750.139 46.212 750.139 M33.7671 770.064 Q30.5842 768.218 29.0564 765.417 Q27.4968 762.584 27.4968 758.669 Q27.4968 752.176 32.6531 748.134 Q37.8093 744.06 46.212 744.06 Q54.6147 744.06 59.771 748.134 Q64.9272 752.176 64.9272 758.669 Q64.9272 762.584 63.3994 765.417 Q61.8398 768.218 58.657 770.064 L64.0042 770.064 L64.0042 775.952 L14.479 775.952 L14.479 770.064 L33.7671 770.064 Z" fill="#000000" fill-rule="nonzero" fill-opacity="1" /><path clip-path="url(#clip010)" d="M28.3562 734.352 L28.3562 728.495 L64.6407 728.495 Q71.452 728.495 74.5076 731.105 Q77.5631 733.684 77.5631 739.445 L77.5631 741.673 L72.5979 741.673 L72.5979 740.113 Q72.5979 736.771 71.0383 735.561 Q69.5105 734.352 64.6407 734.352 L28.3562 734.352 M14.479 734.352 L14.479 728.495 L21.895 728.495 L21.895 734.352 L14.479 734.352 Z" fill="#000000" fill-rule="nonzero" fill-opacity="1" /><path clip-path="url(#clip010)" d="M969.557 65.7705 L969.557 89.8329 L962.063 89.8329 L962.063 27.2059 L969.557 27.2059 L969.557 34.0924 Q971.907 30.0415 975.471 28.0971 Q979.077 26.1121 984.059 26.1121 Q992.323 26.1121 997.468 32.6746 Q1002.65 39.2371 1002.65 49.9314 Q1002.65 60.6258 997.468 67.1883 Q992.323 73.7508 984.059 73.7508 Q979.077 73.7508 975.471 71.8063 Q971.907 69.8214 969.557 65.7705 M994.916 49.9314 Q994.916 41.7081 991.513 37.0496 Q988.151 32.3505 982.236 32.3505 Q976.322 32.3505 972.919 37.0496 Q969.557 41.7081 969.557 49.9314 Q969.557 58.1548 972.919 62.8538 Q976.322 67.5124 982.236 67.5124 Q988.151 67.5124 991.513 62.8538 Q994.916 58.1548 994.916 49.9314 Z" fill="#000000" fill-rule="nonzero" fill-opacity="1" /><path clip-path="url(#clip010)" d="M1041.3 34.1734 Q1040.04 33.4443 1038.54 33.1202 Q1037.09 32.7556 1035.3 32.7556 Q1028.98 32.7556 1025.58 36.8875 Q1022.22 40.9789 1022.22 48.6757 L1022.22 72.576 L1014.72 72.576 L1014.72 27.2059 L1022.22 27.2059 L1022.22 34.2544 Q1024.57 30.1225 1028.34 28.1376 Q1032.1 26.1121 1037.49 26.1121 Q1038.26 26.1121 1039.19 26.2337 Q1040.12 26.3147 1041.26 26.5172 L1041.3 34.1734 Z" fill="#000000" fill-rule="nonzero" fill-opacity="1" /><path clip-path="url(#clip010)" d="M1064.87 32.4315 Q1058.88 32.4315 1055.4 37.1306 Q1051.91 41.7891 1051.91 49.9314 Q1051.91 58.0738 1055.36 62.7728 Q1058.84 67.4314 1064.87 67.4314 Q1070.83 67.4314 1074.31 62.7323 Q1077.8 58.0333 1077.8 49.9314 Q1077.8 41.8701 1074.31 37.1711 Q1070.83 32.4315 1064.87 32.4315 M1064.87 26.1121 Q1074.6 26.1121 1080.15 32.4315 Q1085.7 38.7509 1085.7 49.9314 Q1085.7 61.0714 1080.15 67.4314 Q1074.6 73.7508 1064.87 73.7508 Q1055.11 73.7508 1049.56 67.4314 Q1044.05 61.0714 1044.05 49.9314 Q1044.05 38.7509 1049.56 32.4315 Q1055.11 26.1121 1064.87 26.1121 Z" fill="#000000" fill-rule="nonzero" fill-opacity="1" /><path clip-path="url(#clip010)" d="M1130.62 49.9314 Q1130.62 41.7081 1127.22 37.0496 Q1123.86 32.3505 1117.94 32.3505 Q1112.03 32.3505 1108.62 37.0496 Q1105.26 41.7081 1105.26 49.9314 Q1105.26 58.1548 1108.62 62.8538 Q1112.03 67.5124 1117.94 67.5124 Q1123.86 67.5124 1127.22 62.8538 Q1130.62 58.1548 1130.62 49.9314 M1105.26 34.0924 Q1107.61 30.0415 1111.18 28.0971 Q1114.78 26.1121 1119.76 26.1121 Q1128.03 26.1121 1133.17 32.6746 Q1138.36 39.2371 1138.36 49.9314 Q1138.36 60.6258 1133.17 67.1883 Q1128.03 73.7508 1119.76 73.7508 Q1114.78 73.7508 1111.18 71.8063 Q1107.61 69.8214 1105.26 65.7705 L1105.26 72.576 L1097.77 72.576 L1097.77 9.54393 L1105.26 9.54393 L1105.26 34.0924 Z" fill="#000000" fill-rule="nonzero" fill-opacity="1" /><path clip-path="url(#clip010)" d="M1150.71 9.54393 L1158.17 9.54393 L1158.17 72.576 L1150.71 72.576 L1150.71 9.54393 Z" fill="#000000" fill-rule="nonzero" fill-opacity="1" /><path clip-path="url(#clip010)" d="M1212.57 48.0275 L1212.57 51.6733 L1178.3 51.6733 Q1178.79 59.3701 1182.92 63.421 Q1187.09 67.4314 1194.5 67.4314 Q1198.8 67.4314 1202.81 66.3781 Q1206.86 65.3249 1210.83 63.2184 L1210.83 70.267 Q1206.82 71.9684 1202.61 72.8596 Q1198.39 73.7508 1194.06 73.7508 Q1183.2 73.7508 1176.84 67.4314 Q1170.52 61.1119 1170.52 50.3365 Q1170.52 39.1965 1176.52 32.6746 Q1182.55 26.1121 1192.76 26.1121 Q1201.92 26.1121 1207.22 32.0264 Q1212.57 37.9003 1212.57 48.0275 M1205.12 45.84 Q1205.04 39.7232 1201.67 36.0774 Q1198.35 32.4315 1192.84 32.4315 Q1186.6 32.4315 1182.84 35.9558 Q1179.11 39.4801 1178.54 45.8805 L1205.12 45.84 M1186.44 6.22219 L1197.87 21.3726 L1191.67 21.3726 L1178.46 6.22219 L1186.44 6.22219 Z" fill="#000000" fill-rule="nonzero" fill-opacity="1" /><path clip-path="url(#clip010)" d="M1260.13 35.9153 Q1262.92 30.8922 1266.81 28.5022 Q1270.7 26.1121 1275.97 26.1121 Q1283.06 26.1121 1286.9 31.0947 Q1290.75 36.0368 1290.75 45.1919 L1290.75 72.576 L1283.26 72.576 L1283.26 45.4349 Q1283.26 38.913 1280.95 35.7533 Q1278.64 32.5936 1273.9 32.5936 Q1268.11 32.5936 1264.75 36.4419 Q1261.38 40.2903 1261.38 46.9338 L1261.38 72.576 L1253.89 72.576 L1253.89 45.4349 Q1253.89 38.8725 1251.58 35.7533 Q1249.27 32.5936 1244.45 32.5936 Q1238.74 32.5936 1235.38 36.4824 Q1232.02 40.3308 1232.02 46.9338 L1232.02 72.576 L1224.52 72.576 L1224.52 27.2059 L1232.02 27.2059 L1232.02 34.2544 Q1234.57 30.082 1238.13 28.0971 Q1241.7 26.1121 1246.6 26.1121 Q1251.54 26.1121 1254.98 28.6237 Q1258.47 31.1352 1260.13 35.9153 Z" fill="#000000" fill-rule="nonzero" fill-opacity="1" /><path clip-path="url(#clip010)" d="M1344.43 48.0275 L1344.43 51.6733 L1310.16 51.6733 Q1310.64 59.3701 1314.78 63.421 Q1318.95 67.4314 1326.36 67.4314 Q1330.65 67.4314 1334.67 66.3781 Q1338.72 65.3249 1342.69 63.2184 L1342.69 70.267 Q1338.68 71.9684 1334.46 72.8596 Q1330.25 73.7508 1325.92 73.7508 Q1315.06 73.7508 1308.7 67.4314 Q1302.38 61.1119 1302.38 50.3365 Q1302.38 39.1965 1308.37 32.6746 Q1314.41 26.1121 1324.62 26.1121 Q1333.77 26.1121 1339.08 32.0264 Q1344.43 37.9003 1344.43 48.0275 M1336.97 45.84 Q1336.89 39.7232 1333.53 36.0774 Q1330.21 32.4315 1324.7 32.4315 Q1318.46 32.4315 1314.69 35.9558 Q1310.97 39.4801 1310.4 45.8805 L1336.97 45.84 Z" fill="#000000" fill-rule="nonzero" fill-opacity="1" /><path clip-path="url(#clip010)" d="M1384.94 62.2867 L1393.48 62.2867 L1393.48 72.576 L1384.94 72.576 L1384.94 62.2867 M1384.94 29.6769 L1393.48 29.6769 L1393.48 39.9662 L1384.94 39.9662 L1384.94 29.6769 Z" fill="#000000" fill-rule="nonzero" fill-opacity="1" /><path clip-path="url(#clip010)" d="M1444.73 14.324 L1444.73 27.2059 L1460.08 27.2059 L1460.08 32.9987 L1444.73 32.9987 L1444.73 57.6282 Q1444.73 63.1779 1446.23 64.7578 Q1447.77 66.3376 1452.42 66.3376 L1460.08 66.3376 L1460.08 72.576 L1452.42 72.576 Q1443.8 72.576 1440.52 69.3758 Q1437.23 66.1351 1437.23 57.6282 L1437.23 32.9987 L1431.77 32.9987 L1431.77 27.2059 L1437.23 27.2059 L1437.23 14.324 L1444.73 14.324 Z" fill="#000000" fill-rule="nonzero" fill-opacity="1" /><path clip-path="url(#clip010)" d="M1477.09 65.7705 L1477.09 89.8329 L1469.6 89.8329 L1469.6 27.2059 L1477.09 27.2059 L1477.09 34.0924 Q1479.44 30.0415 1483.01 28.0971 Q1486.61 26.1121 1491.6 26.1121 Q1499.86 26.1121 1505.01 32.6746 Q1510.19 39.2371 1510.19 49.9314 Q1510.19 60.6258 1505.01 67.1883 Q1499.86 73.7508 1491.6 73.7508 Q1486.61 73.7508 1483.01 71.8063 Q1479.44 69.8214 1477.09 65.7705 M1502.45 49.9314 Q1502.45 41.7081 1499.05 37.0496 Q1495.69 32.3505 1489.77 32.3505 Q1483.86 32.3505 1480.46 37.0496 Q1477.09 41.7081 1477.09 49.9314 Q1477.09 58.1548 1480.46 62.8538 Q1483.86 67.5124 1489.77 67.5124 Q1495.69 67.5124 1499.05 62.8538 Q1502.45 58.1548 1502.45 49.9314 Z" fill="#000000" fill-rule="nonzero" fill-opacity="1" /><path clip-path="url(#clip010)" d="M1530.65 65.6895 L1559.21 65.6895 L1559.21 72.576 L1520.8 72.576 L1520.8 65.6895 Q1525.46 60.8689 1533.48 52.7671 Q1541.54 44.6248 1543.61 42.2752 Q1547.54 37.8598 1549.08 34.8216 Q1550.66 31.7429 1550.66 28.7857 Q1550.66 23.9651 1547.26 20.927 Q1543.89 17.8888 1538.47 17.8888 Q1534.62 17.8888 1530.32 19.2256 Q1526.07 20.5624 1521.21 23.2765 L1521.21 15.0127 Q1526.15 13.0277 1530.45 12.015 Q1534.74 11.0023 1538.3 11.0023 Q1547.7 11.0023 1553.29 15.7013 Q1558.88 20.4004 1558.88 28.2591 Q1558.88 31.9859 1557.46 35.3482 Q1556.09 38.6699 1552.4 43.2069 Q1551.39 44.3817 1545.96 50.0125 Q1540.53 55.6027 1530.65 65.6895 Z" fill="#000000" fill-rule="nonzero" fill-opacity="1" /><path clip-path="url(#clip010)" d="M1577.8 65.6895 L1591.17 65.6895 L1591.17 19.5497 L1576.63 22.4663 L1576.63 15.0127 L1591.09 12.096 L1599.27 12.096 L1599.27 65.6895 L1612.64 65.6895 L1612.64 72.576 L1577.8 72.576 L1577.8 65.6895 Z" fill="#000000" fill-rule="nonzero" fill-opacity="1" /><path clip-path="url(#clip010)" d="M1646.67 17.4837 Q1640.35 17.4837 1637.15 23.7221 Q1633.99 29.92 1633.99 42.3968 Q1633.99 54.833 1637.15 61.0714 Q1640.35 67.2693 1646.67 67.2693 Q1653.03 67.2693 1656.19 61.0714 Q1659.39 54.833 1659.39 42.3968 Q1659.39 29.92 1656.19 23.7221 Q1653.03 17.4837 1646.67 17.4837 M1646.67 11.0023 Q1656.83 11.0023 1662.18 19.0636 Q1667.57 27.0843 1667.57 42.3968 Q1667.57 57.6687 1662.18 65.73 Q1656.83 73.7508 1646.67 73.7508 Q1636.5 73.7508 1631.11 65.73 Q1625.76 57.6687 1625.76 42.3968 Q1625.76 27.0843 1631.11 19.0636 Q1636.5 11.0023 1646.67 11.0023 Z" fill="#000000" fill-rule="nonzero" fill-opacity="1" /><polyline clip-path="url(#clip012)" style="stroke:#009af9; stroke-linecap:round; stroke-linejoin:round; stroke-width:4; stroke-opacity:1; fill:none" points="335.627,160.256 340.511,195.408 345.394,295.964 350.278,373.782 355.162,373.9 360.046,373.9 364.929,373.901 369.813,373.904 374.697,373.917 379.58,373.975 384.464,374.132 389.348,374.374 394.232,374.479 399.115,374.818 403.999,374.818 408.883,374.818 413.767,374.818 418.65,374.818 423.534,374.818 428.418,374.818 433.302,374.818 438.185,374.818 443.069,374.818 447.953,374.956 452.836,375.125 457.72,375.318 462.604,375.526 467.488,375.742 472.371,375.961 477.255,376.188 482.139,376.405 487.023,376.645 491.906,376.814 496.79,377.105 501.674,377.105 506.558,377.105 511.441,377.105 516.325,377.284 521.209,377.494 526.093,377.686 530.976,377.942 535.86,377.942 540.744,378.127 545.627,378.369 550.511,378.369 555.395,378.534 560.279,378.723 565.162,378.957 570.046,379.048 574.93,379.43 579.814,379.43 584.697,379.61 589.581,379.846 594.465,379.889 599.349,380.331 604.232,380.331 609.116,380.515 614,380.739 618.883,380.925 623.767,381.213 628.651,381.213 633.535,381.381 638.418,381.669 643.302,381.669 648.186,381.845 653.07,382.053 657.953,382.288 662.837,382.505 667.721,382.78 672.605,382.78 677.488,382.973 682.372,383.256 687.256,383.256 692.139,383.456 697.023,383.685 701.907,383.914 706.791,384.181 711.674,384.326 716.558,384.701 721.442,384.701 726.326,384.701 731.209,384.832 736.093,385.033 740.977,385.263 745.861,385.379 750.744,385.769 755.628,385.769 760.512,385.943 765.396,386.157 770.279,386.402 775.163,386.637 780.047,386.924 784.93,386.965 789.814,387.483 794.698,387.483 799.582,387.483 804.465,387.618 809.349,387.823 814.233,388.06 819.117,388.296 824,388.586 828.884,388.622 833.768,389.158 838.652,389.158 843.535,389.158 848.419,389.263 853.303,389.451 858.186,389.672 863.07,389.918 867.954,390.194 872.838,390.439 877.721,390.758 882.605,390.758 887.489,390.92 892.373,391.31 897.256,391.31 902.14,391.514 907.024,391.755 911.908,392.021 916.791,392.302 921.675,392.591 926.559,392.885 931.443,393.182 936.326,393.484 941.21,393.783 946.094,394.092 950.977,394.384 955.861,394.71 960.745,394.918 965.629,395.333 970.512,395.333 975.396,395.333 980.28,395.333 985.164,395.333 990.047,395.574 994.931,395.863 999.815,396.015 1004.7,396.474 1009.58,396.474 1014.47,396.714 1019.35,396.99 1024.23,397.227 1029.12,397.6 1034,397.6 1038.88,397.851 1043.77,398.166 1048.65,398.183 1053.54,398.828 1058.42,398.828 1063.3,399.062 1068.19,399.405 1073.07,399.405 1077.95,399.745 1082.84,399.915 1087.72,400.174 1092.61,400.472 1097.49,400.557 1102.37,401.135 1107.26,401.135 1112.14,401.36 1117.02,401.633 1121.91,401.938 1126.79,402.265 1131.68,402.604 1136.56,402.952 1141.44,403.303 1146.33,403.66 1151.21,404.015 1156.09,404.381 1160.98,404.732 1165.86,405.116 1170.75,405.395 1175.63,405.857 1180.51,405.857 1185.4,405.857 1190.28,405.857 1195.16,405.857 1200.05,406.121 1204.93,406.43 1209.82,406.778 1214.7,407.117 1219.58,407.515 1224.47,407.661 1229.35,408.294 1234.23,408.294 1239.12,408.294 1244,408.496 1248.89,408.788 1253.77,409.123 1258.65,409.464 1263.54,409.871 1268.42,409.983 1273.3,410.683 1278.19,410.683 1283.07,410.683 1287.96,410.82 1292.84,411.071 1297.72,411.38 1302.61,411.734 1307.49,412.118 1312.37,412.512 1317.26,412.933 1322.14,413.318 1327.03,413.779 1331.91,413.786 1336.79,414.674 1341.68,414.674 1346.56,414.674 1351.44,414.674 1356.33,414.798 1361.21,415.032 1366.09,415.365 1370.98,415.365 1375.86,415.619 1380.75,415.805 1385.63,416.129 1390.51,416.488 1395.4,416.848 1400.28,417.322 1405.16,417.322 1410.05,417.665 1414.93,418.055 1419.82,418.491 1424.7,418.903 1429.58,419.402 1434.47,419.406 1439.35,420.386 1444.23,420.386 1449.12,420.386 1454,420.659 1458.89,421.034 1463.77,421.467 1468.65,421.856 1473.54,422.405 1478.42,422.405 1483.3,422.795 1488.19,423.293 1493.07,423.293 1497.96,423.673 1502.84,424.076 1507.72,424.507 1512.61,425.023 1517.49,425.219 1522.37,426.067 1527.26,426.067 1532.14,426.395 1537.03,427.002 1541.91,427.002 1546.79,427.242 1551.68,427.642 1556.56,428.084 1561.44,428.51 1566.33,429.109 1571.21,429.109 1576.1,429.535 1580.98,430.022 1585.86,430.543 1590.75,431.104 1595.63,431.639 1600.51,432.259 1605.4,432.511 1610.28,433.461 1615.17,433.461 1620.05,433.461 1624.93,433.921 1629.82,434.475 1634.7,434.806 1639.58,435.658 1644.47,435.658 1649.35,436.106 1654.24,436.635 1659.12,437.207 1664,437.835 1668.89,438.419 1673.77,439.127 1678.65,439.127 1683.54,439.572 1688.42,440.417 1693.31,440.417 1698.19,440.795 1703.07,441.65 1707.96,441.65 1712.84,441.958 1717.72,442.476 1722.61,443.048 1727.49,443.601 1732.38,444.379 1737.26,444.379 1742.14,444.935 1747.03,445.572 1751.91,446.253 1756.79,446.991 1761.68,447.695 1766.56,448.514 1771.44,448.861 1776.33,450.11 1781.21,450.11 1786.1,450.11 1790.98,450.718 1795.86,451.487 1800.75,451.487 1805.63,451.953 1810.51,452.593 1815.4,452.593 1820.28,453.033 1825.17,453.38 1830.05,453.991 1834.93,454.677 1839.82,455.399 1844.7,456.296 1849.58,456.379 1854.47,458.139 1859.35,458.139 1864.24,458.139 1869.12,458.358 1874,458.778 1878.89,459.482 1883.77,460.261 1888.65,460.962 1893.54,462.068 1898.42,462.068 1903.31,462.824 1908.19,463.701 1913.07,464.608 1917.96,465.658 1922.84,466.42 1927.72,467.751 1932.61,467.751 1937.49,467.751 1942.38,468.514 1947.26,469.376 1952.14,470.342 1957.03,471.446 1961.91,472.436 1966.79,473.732 1971.68,473.83 1976.56,476.248 1981.45,476.248 1986.33,476.248 1991.21,477.039 1996.1,478.054 2000.98,479.222 2005.86,480.401 2010.75,481.809 2015.63,482.762 2020.52,484.575 2025.4,484.575 2030.28,484.575 2035.17,485.472 2040.05,486.651 2044.93,488.048 2049.82,489.261 2054.7,491.042 2059.59,491.042 2064.47,492.347 2069.35,493.987 2074.24,495.014 2079.12,497.39 2084,497.39 2088.89,498.073 2093.77,500.891 2098.66,500.891 2103.54,501.897 2108.42,503.389 2113.31,505.132 2118.19,506.949 2123.07,509.084 2127.96,511.079 2132.84,513.525 2137.73,515.404 2142.61,518.366 2147.49,518.366 2152.38,518.387 2157.26,523.895 2162.14,523.895 2167.03,523.895 2171.91,525.044 2176.79,527.082 2181.68,529.375 2186.56,531.99 2191.45,535.237 2196.33,537.104 2201.21,542.268 2206.1,542.268 2210.98,545.351 2215.86,549.259 2220.75,552.985 2225.63,557.96 2230.52,562.294 2235.4,568.353 2240.28,573.566 2245.17,580.891 2250.05,587.566 2254.93,596.37 2259.82,605.055 2264.7,612.131 2269.59,630.053 2274.47,644.181 2279.35,668.511 2284.24,685.923 2289.12,713.679 2294,1386.4 "/>
<polyline clip-path="url(#clip012)" style="stroke:#e26f46; stroke-linecap:round; stroke-linejoin:round; stroke-width:4; stroke-opacity:1; fill:none" points="335.627,160.256 340.511,195.408 345.394,295.964 350.278,373.782 355.162,373.9 360.046,373.9 364.929,373.901 369.813,373.904 374.697,373.917 379.58,373.975 384.464,374.132 389.348,374.374 394.232,374.479 399.115,374.818 403.999,374.818 408.883,374.818 413.767,374.818 418.65,374.818 423.534,374.818 428.418,374.818 433.302,374.818 438.185,374.818 443.069,374.818 447.953,374.956 452.836,375.125 457.72,375.318 462.604,375.526 467.488,375.742 472.371,375.961 477.255,376.188 482.139,376.405 487.023,376.645 491.906,376.814 496.79,377.105 501.674,377.105 506.558,377.105 511.441,377.105 516.325,377.284 521.209,377.494 526.093,377.686 530.976,377.942 535.86,377.942 540.744,378.127 545.627,378.369 550.511,378.369 555.395,378.534 560.279,378.723 565.162,378.957 570.046,379.048 574.93,379.43 579.814,379.43 584.697,379.61 589.581,379.846 594.465,379.889 599.349,380.331 604.232,380.331 609.116,380.515 614,380.739 618.883,380.925 623.767,381.213 628.651,381.213 633.535,381.381 638.418,381.669 643.302,381.669 648.186,381.845 653.07,382.053 657.953,382.288 662.837,382.505 667.721,382.78 672.605,382.78 677.488,382.973 682.372,383.256 687.256,383.256 692.139,383.456 697.023,383.685 701.907,383.914 706.791,384.181 711.674,384.326 716.558,384.701 721.442,384.701 726.326,384.701 731.209,384.832 736.093,385.033 740.977,385.263 745.861,385.379 750.744,385.769 755.628,385.769 760.512,385.943 765.396,386.157 770.279,386.402 775.163,386.637 780.047,386.924 784.93,386.965 789.814,387.483 794.698,387.483 799.582,387.483 804.465,387.618 809.349,387.823 814.233,388.06 819.117,388.296 824,388.586 828.884,388.622 833.768,389.158 838.652,389.158 843.535,389.158 848.419,389.263 853.303,389.451 858.186,389.672 863.07,389.918 867.954,390.194 872.838,390.439 877.721,390.758 882.605,390.758 887.489,390.92 892.373,391.31 897.256,391.31 902.14,391.514 907.024,391.755 911.908,392.021 916.791,392.302 921.675,392.591 926.559,392.885 931.443,393.182 936.326,393.484 941.21,393.783 946.094,394.092 950.977,394.384 955.861,394.71 960.745,394.918 965.629,395.333 970.512,395.333 975.396,395.333 980.28,395.333 985.164,395.333 990.047,395.574 994.931,395.863 999.815,396.015 1004.7,396.474 1009.58,396.474 1014.47,396.714 1019.35,396.99 1024.23,397.227 1029.12,397.6 1034,397.6 1038.88,397.851 1043.77,398.166 1048.65,398.183 1053.54,398.828 1058.42,398.828 1063.3,399.062 1068.19,399.405 1073.07,399.405 1077.95,399.745 1082.84,399.915 1087.72,400.174 1092.61,400.472 1097.49,400.557 1102.37,401.135 1107.26,401.135 1112.14,401.36 1117.02,401.633 1121.91,401.938 1126.79,402.265 1131.68,402.604 1136.56,402.952 1141.44,403.303 1146.33,403.66 1151.21,404.015 1156.09,404.381 1160.98,404.732 1165.86,405.116 1170.75,405.395 1175.63,405.857 1180.51,405.857 1185.4,405.857 1190.28,405.857 1195.16,405.857 1200.05,406.121 1204.93,406.43 1209.82,406.778 1214.7,407.117 1219.58,407.515 1224.47,407.661 1229.35,408.294 1234.23,408.294 1239.12,408.294 1244,408.496 1248.89,408.788 1253.77,409.123 1258.65,409.464 1263.54,409.871 1268.42,409.982 1273.3,410.683 1278.19,410.683 1283.07,410.683 1287.96,410.82 1292.84,411.071 1297.72,411.38 1302.61,411.734 1307.49,412.118 1312.37,412.512 1317.26,412.933 1322.14,413.318 1327.03,413.779 1331.91,413.786 1336.79,414.674 1341.68,414.674 1346.56,414.674 1351.44,414.674 1356.33,414.798 1361.21,415.032 1366.09,415.365 1370.98,415.365 1375.86,415.619 1380.75,415.805 1385.63,416.129 1390.51,416.488 1395.4,416.848 1400.28,417.322 1405.16,417.322 1410.05,417.665 1414.93,418.055 1419.82,418.491 1424.7,418.903 1429.58,419.402 1434.47,419.406 1439.35,420.386 1444.23,420.386 1449.12,420.386 1454,420.659 1458.89,421.034 1463.77,421.467 1468.65,421.856 1473.54,422.405 1478.42,422.405 1483.3,422.795 1488.19,423.293 1493.07,423.293 1497.96,423.673 1502.84,424.076 1507.72,424.507 1512.61,425.023 1517.49,425.219 1522.37,426.067 1527.26,426.067 1532.14,426.395 1537.03,427.002 1541.91,427.002 1546.79,427.242 1551.68,427.642 1556.56,428.084 1561.44,428.51 1566.33,429.109 1571.21,429.109 1576.1,429.535 1580.98,430.022 1585.86,430.543 1590.75,431.104 1595.63,431.639 1600.51,432.259 1605.4,432.511 1610.28,433.461 1615.17,433.461 1620.05,433.461 1624.93,433.921 1629.82,434.475 1634.7,434.806 1639.58,435.658 1644.47,435.658 1649.35,436.106 1654.24,436.635 1659.12,437.207 1664,437.835 1668.89,438.419 1673.77,439.127 1678.65,439.127 1683.54,439.573 1688.42,440.417 1693.31,440.417 1698.19,440.795 1703.07,441.65 1707.96,441.65 1712.84,441.958 1717.72,442.475 1722.61,443.048 1727.49,443.601 1732.38,444.379 1737.26,444.379 1742.14,444.935 1747.03,445.571 1751.91,446.253 1756.79,446.991 1761.68,447.695 1766.56,448.514 1771.44,448.861 1776.33,450.11 1781.21,450.11 1786.1,450.11 1790.98,450.718 1795.86,451.487 1800.75,451.487 1805.63,451.953 1810.51,452.593 1815.4,452.593 1820.28,453.033 1825.17,453.38 1830.05,453.991 1834.93,454.677 1839.82,455.399 1844.7,456.296 1849.58,456.379 1854.47,458.139 1859.35,458.139 1864.24,458.139 1869.12,458.358 1874,458.778 1878.89,459.482 1883.77,460.261 1888.65,460.962 1893.54,462.068 1898.42,462.068 1903.31,462.823 1908.19,463.701 1913.07,464.608 1917.96,465.658 1922.84,466.42 1927.72,467.751 1932.61,467.751 1937.49,467.751 1942.38,468.514 1947.26,469.376 1952.14,470.342 1957.03,471.446 1961.91,472.436 1966.79,473.732 1971.68,473.83 1976.56,476.248 1981.45,476.248 1986.33,476.248 1991.21,477.039 1996.1,478.054 2000.98,479.222 2005.86,480.401 2010.75,481.809 2015.63,482.762 2020.52,484.575 2025.4,484.575 2030.28,484.575 2035.17,485.472 2040.05,486.651 2044.93,488.048 2049.82,489.261 2054.7,491.042 2059.59,491.042 2064.47,492.347 2069.35,493.987 2074.24,495.013 2079.12,497.39 2084,497.39 2088.89,498.072 2093.77,500.891 2098.66,500.891 2103.54,501.897 2108.42,503.389 2113.31,505.133 2118.19,506.95 2123.07,509.084 2127.96,511.08 2132.84,513.526 2137.73,515.407 2142.61,518.367 2147.49,518.367 2152.38,518.405 2157.26,523.892 2162.14,523.892 2167.03,523.892 2171.91,525.042 2176.79,527.08 2181.68,529.372 2186.56,531.988 2191.45,535.234 2196.33,537.101 2201.21,542.265 2206.1,542.265 2210.98,545.348 2215.86,549.256 2220.75,552.981 2225.63,557.957 2230.52,562.289 2235.4,568.349 2240.28,573.558 2245.17,580.887 2250.05,587.556 2254.93,596.371 2259.82,605.05 2264.7,612.277 2269.59,629.972 2274.47,644.081 2279.35,668.376 2284.24,685.776 2289.12,713.389 2294,1386.37 "/>
<path clip-path="url(#clip010)" d="M1504.4 322.316 L2283.56 322.316 L2283.56 166.796 L1504.4 166.796  Z" fill="#ffffff" fill-rule="evenodd" fill-opacity="1"/>
<polyline clip-path="url(#clip010)" style="stroke:#000000; stroke-linecap:round; stroke-linejoin:round; stroke-width:4; stroke-opacity:1; fill:none" points="1504.4,322.316 2283.56,322.316 2283.56,166.796 1504.4,166.796 1504.4,322.316 "/>
<polyline clip-path="url(#clip010)" style="stroke:#009af9; stroke-linecap:round; stroke-linejoin:round; stroke-width:4; stroke-opacity:1; fill:none" points="1527.47,218.636 1665.86,218.636 "/>
<path clip-path="url(#clip010)" d="M1688.92 201.356 L1693.6 201.356 L1693.6 231.981 L1710.43 231.981 L1710.43 235.916 L1688.92 235.916 L1688.92 201.356 Z" fill="#000000" fill-rule="nonzero" fill-opacity="1" /><path clip-path="url(#clip010)" d="M1715.34 201.356 L1722.3 201.356 L1731.12 224.874 L1739.99 201.356 L1746.96 201.356 L1746.96 235.916 L1742.4 235.916 L1742.4 205.569 L1733.48 229.272 L1728.78 229.272 L1719.87 205.569 L1719.87 235.916 L1715.34 235.916 L1715.34 201.356 Z" fill="#000000" fill-rule="nonzero" fill-opacity="1" /><path clip-path="url(#clip010)" d="M1775.75 243.786 L1775.75 247.096 L1751.12 247.096 L1751.12 243.786 L1775.75 243.786 Z" fill="#000000" fill-rule="nonzero" fill-opacity="1" /><path clip-path="url(#clip010)" d="M1791.49 205.962 L1785.15 223.161 L1797.86 223.161 L1791.49 205.962 M1788.85 201.356 L1794.15 201.356 L1807.33 235.916 L1802.46 235.916 L1799.32 227.05 L1783.74 227.05 L1780.59 235.916 L1775.66 235.916 L1788.85 201.356 Z" fill="#000000" fill-rule="nonzero" fill-opacity="1" /><path clip-path="url(#clip010)" d="M1833.74 220.268 L1833.74 235.916 L1829.48 235.916 L1829.48 220.407 Q1829.48 216.726 1828.04 214.897 Q1826.61 213.069 1823.74 213.069 Q1820.29 213.069 1818.3 215.268 Q1816.31 217.467 1816.31 221.263 L1816.31 235.916 L1812.02 235.916 L1812.02 209.99 L1816.31 209.99 L1816.31 214.018 Q1817.83 211.68 1819.9 210.522 Q1821.98 209.365 1824.69 209.365 Q1829.15 209.365 1831.45 212.143 Q1833.74 214.897 1833.74 220.268 Z" fill="#000000" fill-rule="nonzero" fill-opacity="1" /><path clip-path="url(#clip010)" d="M1859.29 213.925 L1859.29 199.897 L1863.55 199.897 L1863.55 235.916 L1859.29 235.916 L1859.29 232.027 Q1857.95 234.342 1855.89 235.476 Q1853.85 236.587 1850.98 236.587 Q1846.28 236.587 1843.32 232.837 Q1840.38 229.087 1840.38 222.976 Q1840.38 216.865 1843.32 213.115 Q1846.28 209.365 1850.98 209.365 Q1853.85 209.365 1855.89 210.499 Q1857.95 211.61 1859.29 213.925 M1844.78 222.976 Q1844.78 227.675 1846.7 230.36 Q1848.64 233.022 1852.02 233.022 Q1855.4 233.022 1857.35 230.36 Q1859.29 227.675 1859.29 222.976 Q1859.29 218.277 1857.35 215.615 Q1855.4 212.93 1852.02 212.93 Q1848.64 212.93 1846.7 215.615 Q1844.78 218.277 1844.78 222.976 Z" fill="#000000" fill-rule="nonzero" fill-opacity="1" /><path clip-path="url(#clip010)" d="M1887.35 213.971 Q1886.63 213.555 1885.77 213.37 Q1884.94 213.161 1883.92 213.161 Q1880.31 213.161 1878.37 215.522 Q1876.45 217.86 1876.45 222.258 L1876.45 235.916 L1872.16 235.916 L1872.16 209.99 L1876.45 209.99 L1876.45 214.018 Q1877.79 211.657 1879.94 210.522 Q1882.09 209.365 1885.17 209.365 Q1885.61 209.365 1886.14 209.434 Q1886.68 209.481 1887.33 209.596 L1887.35 213.971 Z" fill="#000000" fill-rule="nonzero" fill-opacity="1" /><path clip-path="url(#clip010)" d="M1912.95 221.888 L1912.95 223.971 L1893.37 223.971 Q1893.64 228.369 1896.01 230.684 Q1898.39 232.976 1902.63 232.976 Q1905.08 232.976 1907.37 232.374 Q1909.69 231.772 1911.95 230.569 L1911.95 234.596 Q1909.66 235.568 1907.26 236.078 Q1904.85 236.587 1902.37 236.587 Q1896.17 236.587 1892.53 232.976 Q1888.92 229.365 1888.92 223.207 Q1888.92 216.842 1892.35 213.115 Q1895.8 209.365 1901.63 209.365 Q1906.86 209.365 1909.89 212.745 Q1912.95 216.101 1912.95 221.888 M1908.69 220.638 Q1908.64 217.143 1906.72 215.059 Q1904.83 212.976 1901.68 212.976 Q1898.11 212.976 1895.96 214.99 Q1893.83 217.004 1893.51 220.661 L1908.69 220.638 Z" fill="#000000" fill-rule="nonzero" fill-opacity="1" /><path clip-path="url(#clip010)" d="M1919.94 209.99 L1924.2 209.99 L1924.2 235.916 L1919.94 235.916 L1919.94 209.99 M1919.94 199.897 L1924.2 199.897 L1924.2 205.291 L1919.94 205.291 L1919.94 199.897 Z" fill="#000000" fill-rule="nonzero" fill-opacity="1" /><path clip-path="url(#clip010)" d="M1952.81 243.786 L1952.81 247.096 L1928.18 247.096 L1928.18 243.786 L1952.81 243.786 Z" fill="#000000" fill-rule="nonzero" fill-opacity="1" /><path clip-path="url(#clip010)" d="M1968.6 222.883 Q1963.44 222.883 1961.45 224.064 Q1959.45 225.244 1959.45 228.092 Q1959.45 230.36 1960.94 231.703 Q1962.44 233.022 1965.01 233.022 Q1968.55 233.022 1970.68 230.522 Q1972.83 227.999 1972.83 223.832 L1972.83 222.883 L1968.6 222.883 M1977.09 221.124 L1977.09 235.916 L1972.83 235.916 L1972.83 231.981 Q1971.38 234.342 1969.2 235.476 Q1967.02 236.587 1963.88 236.587 Q1959.89 236.587 1957.53 234.365 Q1955.2 232.119 1955.2 228.369 Q1955.2 223.994 1958.11 221.772 Q1961.05 219.55 1966.86 219.55 L1972.83 219.55 L1972.83 219.133 Q1972.83 216.194 1970.89 214.596 Q1968.97 212.976 1965.47 212.976 Q1963.25 212.976 1961.14 213.508 Q1959.04 214.041 1957.09 215.106 L1957.09 211.17 Q1959.43 210.268 1961.63 209.828 Q1963.83 209.365 1965.91 209.365 Q1971.54 209.365 1974.32 212.282 Q1977.09 215.198 1977.09 221.124 Z" fill="#000000" fill-rule="nonzero" fill-opacity="1" /><path clip-path="url(#clip010)" d="M1985.87 199.897 L1990.13 199.897 L1990.13 235.916 L1985.87 235.916 L1985.87 199.897 Z" fill="#000000" fill-rule="nonzero" fill-opacity="1" /><path clip-path="url(#clip010)" d="M2003.25 202.629 L2003.25 209.99 L2012.02 209.99 L2012.02 213.3 L2003.25 213.3 L2003.25 227.374 Q2003.25 230.545 2004.11 231.448 Q2004.99 232.351 2007.65 232.351 L2012.02 232.351 L2012.02 235.916 L2007.65 235.916 Q2002.72 235.916 2000.84 234.087 Q1998.97 232.235 1998.97 227.374 L1998.97 213.3 L1995.84 213.3 L1995.84 209.99 L1998.97 209.99 L1998.97 202.629 L2003.25 202.629 Z" fill="#000000" fill-rule="nonzero" fill-opacity="1" /><polyline clip-path="url(#clip010)" style="stroke:#e26f46; stroke-linecap:round; stroke-linejoin:round; stroke-width:4; stroke-opacity:1; fill:none" points="1527.47,270.476 1665.86,270.476 "/>
<path clip-path="url(#clip010)" d="M1688.92 253.196 L1693.6 253.196 L1693.6 283.821 L1710.43 283.821 L1710.43 287.756 L1688.92 287.756 L1688.92 253.196 Z" fill="#000000" fill-rule="nonzero" fill-opacity="1" /><path clip-path="url(#clip010)" d="M1715.34 253.196 L1722.3 253.196 L1731.12 276.714 L1739.99 253.196 L1746.96 253.196 L1746.96 287.756 L1742.4 287.756 L1742.4 257.409 L1733.48 281.112 L1728.78 281.112 L1719.87 257.409 L1719.87 287.756 L1715.34 287.756 L1715.34 253.196 Z" fill="#000000" fill-rule="nonzero" fill-opacity="1" /><path clip-path="url(#clip010)" d="M1775.75 295.626 L1775.75 298.936 L1751.12 298.936 L1751.12 295.626 L1775.75 295.626 Z" fill="#000000" fill-rule="nonzero" fill-opacity="1" /><path clip-path="url(#clip010)" d="M1791.49 257.802 L1785.15 275.001 L1797.86 275.001 L1791.49 257.802 M1788.85 253.196 L1794.15 253.196 L1807.33 287.756 L1802.46 287.756 L1799.32 278.89 L1783.74 278.89 L1780.59 287.756 L1775.66 287.756 L1788.85 253.196 Z" fill="#000000" fill-rule="nonzero" fill-opacity="1" /><path clip-path="url(#clip010)" d="M1833.74 272.108 L1833.74 287.756 L1829.48 287.756 L1829.48 272.247 Q1829.48 268.566 1828.04 266.737 Q1826.61 264.909 1823.74 264.909 Q1820.29 264.909 1818.3 267.108 Q1816.31 269.307 1816.31 273.103 L1816.31 287.756 L1812.02 287.756 L1812.02 261.83 L1816.31 261.83 L1816.31 265.858 Q1817.83 263.52 1819.9 262.362 Q1821.98 261.205 1824.69 261.205 Q1829.15 261.205 1831.45 263.983 Q1833.74 266.737 1833.74 272.108 Z" fill="#000000" fill-rule="nonzero" fill-opacity="1" /><path clip-path="url(#clip010)" d="M1859.29 265.765 L1859.29 251.737 L1863.55 251.737 L1863.55 287.756 L1859.29 287.756 L1859.29 283.867 Q1857.95 286.182 1855.89 287.316 Q1853.85 288.427 1850.98 288.427 Q1846.28 288.427 1843.32 284.677 Q1840.38 280.927 1840.38 274.816 Q1840.38 268.705 1843.32 264.955 Q1846.28 261.205 1850.98 261.205 Q1853.85 261.205 1855.89 262.339 Q1857.95 263.45 1859.29 265.765 M1844.78 274.816 Q1844.78 279.515 1846.7 282.2 Q1848.64 284.862 1852.02 284.862 Q1855.4 284.862 1857.35 282.2 Q1859.29 279.515 1859.29 274.816 Q1859.29 270.117 1857.35 267.455 Q1855.4 264.77 1852.02 264.77 Q1848.64 264.77 1846.7 267.455 Q1844.78 270.117 1844.78 274.816 Z" fill="#000000" fill-rule="nonzero" fill-opacity="1" /><path clip-path="url(#clip010)" d="M1887.35 265.811 Q1886.63 265.395 1885.77 265.21 Q1884.94 265.001 1883.92 265.001 Q1880.31 265.001 1878.37 267.362 Q1876.45 269.7 1876.45 274.098 L1876.45 287.756 L1872.16 287.756 L1872.16 261.83 L1876.45 261.83 L1876.45 265.858 Q1877.79 263.497 1879.94 262.362 Q1882.09 261.205 1885.17 261.205 Q1885.61 261.205 1886.14 261.274 Q1886.68 261.321 1887.33 261.436 L1887.35 265.811 Z" fill="#000000" fill-rule="nonzero" fill-opacity="1" /><path clip-path="url(#clip010)" d="M1912.95 273.728 L1912.95 275.811 L1893.37 275.811 Q1893.64 280.209 1896.01 282.524 Q1898.39 284.816 1902.63 284.816 Q1905.08 284.816 1907.37 284.214 Q1909.69 283.612 1911.95 282.409 L1911.95 286.436 Q1909.66 287.408 1907.26 287.918 Q1904.85 288.427 1902.37 288.427 Q1896.17 288.427 1892.53 284.816 Q1888.92 281.205 1888.92 275.047 Q1888.92 268.682 1892.35 264.955 Q1895.8 261.205 1901.63 261.205 Q1906.86 261.205 1909.89 264.585 Q1912.95 267.941 1912.95 273.728 M1908.69 272.478 Q1908.64 268.983 1906.72 266.899 Q1904.83 264.816 1901.68 264.816 Q1898.11 264.816 1895.96 266.83 Q1893.83 268.844 1893.51 272.501 L1908.69 272.478 Z" fill="#000000" fill-rule="nonzero" fill-opacity="1" /><path clip-path="url(#clip010)" d="M1919.94 261.83 L1924.2 261.83 L1924.2 287.756 L1919.94 287.756 L1919.94 261.83 M1919.94 251.737 L1924.2 251.737 L1924.2 257.131 L1919.94 257.131 L1919.94 251.737 Z" fill="#000000" fill-rule="nonzero" fill-opacity="1" /><path clip-path="url(#clip010)" d="M1952.81 295.626 L1952.81 298.936 L1928.18 298.936 L1928.18 295.626 L1952.81 295.626 Z" fill="#000000" fill-rule="nonzero" fill-opacity="1" /><path clip-path="url(#clip010)" d="M1968.6 274.723 Q1963.44 274.723 1961.45 275.904 Q1959.45 277.084 1959.45 279.932 Q1959.45 282.2 1960.94 283.543 Q1962.44 284.862 1965.01 284.862 Q1968.55 284.862 1970.68 282.362 Q1972.83 279.839 1972.83 275.672 L1972.83 274.723 L1968.6 274.723 M1977.09 272.964 L1977.09 287.756 L1972.83 287.756 L1972.83 283.821 Q1971.38 286.182 1969.2 287.316 Q1967.02 288.427 1963.88 288.427 Q1959.89 288.427 1957.53 286.205 Q1955.2 283.959 1955.2 280.209 Q1955.2 275.834 1958.11 273.612 Q1961.05 271.39 1966.86 271.39 L1972.83 271.39 L1972.83 270.973 Q1972.83 268.034 1970.89 266.436 Q1968.97 264.816 1965.47 264.816 Q1963.25 264.816 1961.14 265.348 Q1959.04 265.881 1957.09 266.946 L1957.09 263.01 Q1959.43 262.108 1961.63 261.668 Q1963.83 261.205 1965.91 261.205 Q1971.54 261.205 1974.32 264.122 Q1977.09 267.038 1977.09 272.964 Z" fill="#000000" fill-rule="nonzero" fill-opacity="1" /><path clip-path="url(#clip010)" d="M1985.87 251.737 L1990.13 251.737 L1990.13 287.756 L1985.87 287.756 L1985.87 251.737 Z" fill="#000000" fill-rule="nonzero" fill-opacity="1" /><path clip-path="url(#clip010)" d="M2003.25 254.469 L2003.25 261.83 L2012.02 261.83 L2012.02 265.14 L2003.25 265.14 L2003.25 279.214 Q2003.25 282.385 2004.11 283.288 Q2004.99 284.191 2007.65 284.191 L2012.02 284.191 L2012.02 287.756 L2007.65 287.756 Q2002.72 287.756 2000.84 285.927 Q1998.97 284.075 1998.97 279.214 L1998.97 265.14 L1995.84 265.14 L1995.84 261.83 L1998.97 261.83 L1998.97 254.469 L2003.25 254.469 Z" fill="#000000" fill-rule="nonzero" fill-opacity="1" /><path clip-path="url(#clip010)" d="M2037.32 295.626 L2037.32 298.936 L2012.69 298.936 L2012.69 295.626 L2037.32 295.626 Z" fill="#000000" fill-rule="nonzero" fill-opacity="1" /><path clip-path="url(#clip010)" d="M2043.88 274.816 Q2043.88 279.515 2045.8 282.2 Q2047.74 284.862 2051.12 284.862 Q2054.5 284.862 2056.44 282.2 Q2058.39 279.515 2058.39 274.816 Q2058.39 270.117 2056.44 267.455 Q2054.5 264.77 2051.12 264.77 Q2047.74 264.77 2045.8 267.455 Q2043.88 270.117 2043.88 274.816 M2058.39 283.867 Q2057.05 286.182 2054.99 287.316 Q2052.95 288.427 2050.08 288.427 Q2045.38 288.427 2042.42 284.677 Q2039.48 280.927 2039.48 274.816 Q2039.48 268.705 2042.42 264.955 Q2045.38 261.205 2050.08 261.205 Q2052.95 261.205 2054.99 262.339 Q2057.05 263.45 2058.39 265.765 L2058.39 261.83 L2062.65 261.83 L2062.65 297.617 L2058.39 297.617 L2058.39 283.867 Z" fill="#000000" fill-rule="nonzero" fill-opacity="1" /><path clip-path="url(#clip010)" d="M2086.44 265.811 Q2085.73 265.395 2084.87 265.21 Q2084.04 265.001 2083.02 265.001 Q2079.41 265.001 2077.46 267.362 Q2075.54 269.7 2075.54 274.098 L2075.54 287.756 L2071.26 287.756 L2071.26 261.83 L2075.54 261.83 L2075.54 265.858 Q2076.88 263.497 2079.04 262.362 Q2081.19 261.205 2084.27 261.205 Q2084.71 261.205 2085.24 261.274 Q2085.77 261.321 2086.42 261.436 L2086.44 265.811 Z" fill="#000000" fill-rule="nonzero" fill-opacity="1" /><path clip-path="url(#clip010)" d="M2110.26 266.807 Q2111.86 263.936 2114.08 262.571 Q2116.31 261.205 2119.31 261.205 Q2123.37 261.205 2125.56 264.052 Q2127.76 266.876 2127.76 272.108 L2127.76 287.756 L2123.48 287.756 L2123.48 272.247 Q2123.48 268.52 2122.16 266.714 Q2120.84 264.909 2118.13 264.909 Q2114.82 264.909 2112.9 267.108 Q2110.98 269.307 2110.98 273.103 L2110.98 287.756 L2106.7 287.756 L2106.7 272.247 Q2106.7 268.497 2105.38 266.714 Q2104.06 264.909 2101.31 264.909 Q2098.04 264.909 2096.12 267.131 Q2094.2 269.33 2094.2 273.103 L2094.2 287.756 L2089.92 287.756 L2089.92 261.83 L2094.2 261.83 L2094.2 265.858 Q2095.66 263.473 2097.69 262.339 Q2099.73 261.205 2102.53 261.205 Q2105.36 261.205 2107.32 262.64 Q2109.31 264.075 2110.26 266.807 Z" fill="#000000" fill-rule="nonzero" fill-opacity="1" /><path clip-path="url(#clip010)" d="M2135.82 277.524 L2135.82 261.83 L2140.08 261.83 L2140.08 277.362 Q2140.08 281.043 2141.51 282.895 Q2142.95 284.723 2145.82 284.723 Q2149.27 284.723 2151.26 282.524 Q2153.27 280.325 2153.27 276.529 L2153.27 261.83 L2157.53 261.83 L2157.53 287.756 L2153.27 287.756 L2153.27 283.774 Q2151.72 286.135 2149.66 287.293 Q2147.62 288.427 2144.92 288.427 Q2140.45 288.427 2138.13 285.649 Q2135.82 282.871 2135.82 277.524 M2146.54 261.205 L2146.54 261.205 Z" fill="#000000" fill-rule="nonzero" fill-opacity="1" /><path clip-path="url(#clip010)" d="M2186.49 266.807 Q2188.09 263.936 2190.31 262.571 Q2192.53 261.205 2195.54 261.205 Q2199.59 261.205 2201.79 264.052 Q2203.99 266.876 2203.99 272.108 L2203.99 287.756 L2199.71 287.756 L2199.71 272.247 Q2199.71 268.52 2198.39 266.714 Q2197.07 264.909 2194.36 264.909 Q2191.05 264.909 2189.13 267.108 Q2187.21 269.307 2187.21 273.103 L2187.21 287.756 L2182.93 287.756 L2182.93 272.247 Q2182.93 268.497 2181.61 266.714 Q2180.29 264.909 2177.53 264.909 Q2174.27 264.909 2172.35 267.131 Q2170.43 269.33 2170.43 273.103 L2170.43 287.756 L2166.14 287.756 L2166.14 261.83 L2170.43 261.83 L2170.43 265.858 Q2171.88 263.473 2173.92 262.339 Q2175.96 261.205 2178.76 261.205 Q2181.58 261.205 2183.55 262.64 Q2185.54 264.075 2186.49 266.807 Z" fill="#000000" fill-rule="nonzero" fill-opacity="1" /><path clip-path="url(#clip010)" d="M2216.61 283.867 L2216.61 297.617 L2212.32 297.617 L2212.32 261.83 L2216.61 261.83 L2216.61 265.765 Q2217.95 263.45 2219.99 262.339 Q2222.05 261.205 2224.89 261.205 Q2229.62 261.205 2232.55 264.955 Q2235.52 268.705 2235.52 274.816 Q2235.52 280.927 2232.55 284.677 Q2229.62 288.427 2224.89 288.427 Q2222.05 288.427 2219.99 287.316 Q2217.95 286.182 2216.61 283.867 M2231.1 274.816 Q2231.1 270.117 2229.15 267.455 Q2227.23 264.77 2223.85 264.77 Q2220.47 264.77 2218.53 267.455 Q2216.61 270.117 2216.61 274.816 Q2216.61 279.515 2218.53 282.2 Q2220.47 284.862 2223.85 284.862 Q2227.23 284.862 2229.15 282.2 Q2231.1 279.515 2231.1 274.816 Z" fill="#000000" fill-rule="nonzero" fill-opacity="1" /><path clip-path="url(#clip010)" d="M2259.11 262.594 L2259.11 266.622 Q2257.3 265.696 2255.36 265.233 Q2253.41 264.77 2251.33 264.77 Q2248.16 264.77 2246.56 265.742 Q2244.99 266.714 2244.99 268.659 Q2244.99 270.14 2246.12 270.997 Q2247.25 271.83 2250.68 272.594 L2252.14 272.918 Q2256.68 273.89 2258.57 275.672 Q2260.49 277.432 2260.49 280.603 Q2260.49 284.214 2257.62 286.321 Q2254.78 288.427 2249.78 288.427 Q2247.69 288.427 2245.43 288.01 Q2243.18 287.617 2240.68 286.807 L2240.68 282.409 Q2243.04 283.635 2245.33 284.26 Q2247.62 284.862 2249.87 284.862 Q2252.88 284.862 2254.5 283.844 Q2256.12 282.802 2256.12 280.927 Q2256.12 279.191 2254.94 278.265 Q2253.78 277.339 2249.82 276.483 L2248.34 276.135 Q2244.38 275.302 2242.62 273.589 Q2240.87 271.853 2240.87 268.844 Q2240.87 265.186 2243.46 263.196 Q2246.05 261.205 2250.82 261.205 Q2253.18 261.205 2255.26 261.552 Q2257.35 261.899 2259.11 262.594 Z" fill="#000000" fill-rule="nonzero" fill-opacity="1" /></svg>
