<?xml version="1.0" encoding="utf-8"?>
<svg xmlns="http://www.w3.org/2000/svg" xmlns:xlink="http://www.w3.org/1999/xlink" width="600" height="400" viewBox="0 0 2400 1600">
<defs>
  <clipPath id="clip900">
    <rect x="0" y="0" width="2400" height="1600"/>
  </clipPath>
</defs>
<path clip-path="url(#clip900)" d="M0 1600 L2400 1600 L2400 0 L0 0  Z" fill="#ffffff" fill-rule="evenodd" fill-opacity="1"/>
<defs>
  <clipPath id="clip901">
    <rect x="480" y="0" width="1681" height="1600"/>
  </clipPath>
</defs>
<path clip-path="url(#clip900)" d="M251.56 1423.18 L2352.76 1423.18 L2352.76 123.472 L251.56 123.472  Z" fill="#ffffff" fill-rule="evenodd" fill-opacity="1"/>
<defs>
  <clipPath id="clip902">
    <rect x="251" y="123" width="2102" height="1301"/>
  </clipPath>
</defs>
<polyline clip-path="url(#clip902)" style="stroke:#000000; stroke-linecap:round; stroke-linejoin:round; stroke-width:2; stroke-opacity:0.1; fill:none" points="306.613,1423.18 306.613,123.472 "/>
<polyline clip-path="url(#clip902)" style="stroke:#000000; stroke-linecap:round; stroke-linejoin:round; stroke-width:2; stroke-opacity:0.1; fill:none" points="748.097,1423.18 748.097,123.472 "/>
<polyline clip-path="url(#clip902)" style="stroke:#000000; stroke-linecap:round; stroke-linejoin:round; stroke-width:2; stroke-opacity:0.1; fill:none" points="1189.58,1423.18 1189.58,123.472 "/>
<polyline clip-path="url(#clip902)" style="stroke:#000000; stroke-linecap:round; stroke-linejoin:round; stroke-width:2; stroke-opacity:0.1; fill:none" points="1631.06,1423.18 1631.06,123.472 "/>
<polyline clip-path="url(#clip902)" style="stroke:#000000; stroke-linecap:round; stroke-linejoin:round; stroke-width:2; stroke-opacity:0.1; fill:none" points="2072.55,1423.18 2072.55,123.472 "/>
<polyline clip-path="url(#clip900)" style="stroke:#000000; stroke-linecap:round; stroke-linejoin:round; stroke-width:4; stroke-opacity:1; fill:none" points="251.56,1423.18 2352.76,1423.18 "/>
<polyline clip-path="url(#clip900)" style="stroke:#000000; stroke-linecap:round; stroke-linejoin:round; stroke-width:4; stroke-opacity:1; fill:none" points="306.613,1423.18 306.613,1404.28 "/>
<polyline clip-path="url(#clip900)" style="stroke:#000000; stroke-linecap:round; stroke-linejoin:round; stroke-width:4; stroke-opacity:1; fill:none" points="748.097,1423.18 748.097,1404.28 "/>
<polyline clip-path="url(#clip900)" style="stroke:#000000; stroke-linecap:round; stroke-linejoin:round; stroke-width:4; stroke-opacity:1; fill:none" points="1189.58,1423.18 1189.58,1404.28 "/>
<polyline clip-path="url(#clip900)" style="stroke:#000000; stroke-linecap:round; stroke-linejoin:round; stroke-width:4; stroke-opacity:1; fill:none" points="1631.06,1423.18 1631.06,1404.28 "/>
<polyline clip-path="url(#clip900)" style="stroke:#000000; stroke-linecap:round; stroke-linejoin:round; stroke-width:4; stroke-opacity:1; fill:none" points="2072.55,1423.18 2072.55,1404.28 "/>
<path clip-path="url(#clip900)" d="M306.613 1454.1 Q303.002 1454.1 301.173 1457.66 Q299.368 1461.2 299.368 1468.33 Q299.368 1475.44 301.173 1479.01 Q303.002 1482.55 306.613 1482.55 Q310.247 1482.55 312.053 1479.01 Q313.882 1475.44 313.882 1468.33 Q313.882 1461.2 312.053 1457.66 Q310.247 1454.1 306.613 1454.1 M306.613 1450.39 Q312.423 1450.39 315.479 1455 Q318.558 1459.58 318.558 1468.33 Q318.558 1477.06 315.479 1481.67 Q312.423 1486.25 306.613 1486.25 Q300.803 1486.25 297.724 1481.67 Q294.669 1477.06 294.669 1468.33 Q294.669 1459.58 297.724 1455 Q300.803 1450.39 306.613 1450.39 Z" fill="#000000" fill-rule="nonzero" fill-opacity="1" /><path clip-path="url(#clip900)" d="M707.703 1481.64 L715.342 1481.64 L715.342 1455.28 L707.032 1456.95 L707.032 1452.69 L715.296 1451.02 L719.972 1451.02 L719.972 1481.64 L727.611 1481.64 L727.611 1485.58 L707.703 1485.58 L707.703 1481.64 Z" fill="#000000" fill-rule="nonzero" fill-opacity="1" /><path clip-path="url(#clip900)" d="M747.055 1454.1 Q743.444 1454.1 741.615 1457.66 Q739.81 1461.2 739.81 1468.33 Q739.81 1475.44 741.615 1479.01 Q743.444 1482.55 747.055 1482.55 Q750.689 1482.55 752.495 1479.01 Q754.323 1475.44 754.323 1468.33 Q754.323 1461.2 752.495 1457.66 Q750.689 1454.1 747.055 1454.1 M747.055 1450.39 Q752.865 1450.39 755.921 1455 Q758.999 1459.58 758.999 1468.33 Q758.999 1477.06 755.921 1481.67 Q752.865 1486.25 747.055 1486.25 Q741.245 1486.25 738.166 1481.67 Q735.11 1477.06 735.11 1468.33 Q735.11 1459.58 738.166 1455 Q741.245 1450.39 747.055 1450.39 Z" fill="#000000" fill-rule="nonzero" fill-opacity="1" /><path clip-path="url(#clip900)" d="M777.217 1454.1 Q773.606 1454.1 771.777 1457.66 Q769.971 1461.2 769.971 1468.33 Q769.971 1475.44 771.777 1479.01 Q773.606 1482.55 777.217 1482.55 Q780.851 1482.55 782.657 1479.01 Q784.485 1475.44 784.485 1468.33 Q784.485 1461.2 782.657 1457.66 Q780.851 1454.1 777.217 1454.1 M777.217 1450.39 Q783.027 1450.39 786.082 1455 Q789.161 1459.58 789.161 1468.33 Q789.161 1477.06 786.082 1481.67 Q783.027 1486.25 777.217 1486.25 Q771.407 1486.25 768.328 1481.67 Q765.272 1477.06 765.272 1468.33 Q765.272 1459.58 768.328 1455 Q771.407 1450.39 777.217 1450.39 Z" fill="#000000" fill-rule="nonzero" fill-opacity="1" /><path clip-path="url(#clip900)" d="M1153.27 1481.64 L1169.59 1481.64 L1169.59 1485.58 L1147.65 1485.58 L1147.65 1481.64 Q1150.31 1478.89 1154.89 1474.26 Q1159.5 1469.61 1160.68 1468.27 Q1162.92 1465.74 1163.8 1464.01 Q1164.71 1462.25 1164.71 1460.56 Q1164.71 1457.8 1162.76 1456.07 Q1160.84 1454.33 1157.74 1454.33 Q1155.54 1454.33 1153.09 1455.09 Q1150.66 1455.86 1147.88 1457.41 L1147.88 1452.69 Q1150.7 1451.55 1153.16 1450.97 Q1155.61 1450.39 1157.65 1450.39 Q1163.02 1450.39 1166.21 1453.08 Q1169.41 1455.77 1169.41 1460.26 Q1169.41 1462.39 1168.6 1464.31 Q1167.81 1466.2 1165.7 1468.8 Q1165.12 1469.47 1162.02 1472.69 Q1158.92 1475.88 1153.27 1481.64 Z" fill="#000000" fill-rule="nonzero" fill-opacity="1" /><path clip-path="url(#clip900)" d="M1189.41 1454.1 Q1185.8 1454.1 1183.97 1457.66 Q1182.16 1461.2 1182.16 1468.33 Q1182.16 1475.44 1183.97 1479.01 Q1185.8 1482.55 1189.41 1482.55 Q1193.04 1482.55 1194.85 1479.01 Q1196.67 1475.44 1196.67 1468.33 Q1196.67 1461.2 1194.85 1457.66 Q1193.04 1454.1 1189.41 1454.1 M1189.41 1450.39 Q1195.22 1450.39 1198.27 1455 Q1201.35 1459.58 1201.35 1468.33 Q1201.35 1477.06 1198.27 1481.67 Q1195.22 1486.25 1189.41 1486.25 Q1183.6 1486.25 1180.52 1481.67 Q1177.46 1477.06 1177.46 1468.33 Q1177.46 1459.58 1180.52 1455 Q1183.6 1450.39 1189.41 1450.39 Z" fill="#000000" fill-rule="nonzero" fill-opacity="1" /><path clip-path="url(#clip900)" d="M1219.57 1454.1 Q1215.96 1454.1 1214.13 1457.66 Q1212.32 1461.2 1212.32 1468.33 Q1212.32 1475.44 1214.13 1479.01 Q1215.96 1482.55 1219.57 1482.55 Q1223.2 1482.55 1225.01 1479.01 Q1226.84 1475.44 1226.84 1468.33 Q1226.84 1461.2 1225.01 1457.66 Q1223.2 1454.1 1219.57 1454.1 M1219.57 1450.39 Q1225.38 1450.39 1228.43 1455 Q1231.51 1459.58 1231.51 1468.33 Q1231.51 1477.06 1228.43 1481.67 Q1225.38 1486.25 1219.57 1486.25 Q1213.76 1486.25 1210.68 1481.67 Q1207.62 1477.06 1207.62 1468.33 Q1207.62 1459.58 1210.68 1455 Q1213.76 1450.39 1219.57 1450.39 Z" fill="#000000" fill-rule="nonzero" fill-opacity="1" /><path clip-path="url(#clip900)" d="M1604.82 1466.95 Q1608.18 1467.66 1610.06 1469.93 Q1611.95 1472.2 1611.95 1475.53 Q1611.95 1480.65 1608.44 1483.45 Q1604.92 1486.25 1598.44 1486.25 Q1596.26 1486.25 1593.95 1485.81 Q1591.65 1485.39 1589.2 1484.54 L1589.2 1480.02 Q1591.14 1481.16 1593.46 1481.74 Q1595.77 1482.32 1598.3 1482.32 Q1602.7 1482.32 1604.99 1480.58 Q1607.3 1478.84 1607.3 1475.53 Q1607.3 1472.48 1605.15 1470.77 Q1603.02 1469.03 1599.2 1469.03 L1595.17 1469.03 L1595.17 1465.19 L1599.39 1465.19 Q1602.83 1465.19 1604.66 1463.82 Q1606.49 1462.43 1606.49 1459.84 Q1606.49 1457.18 1604.59 1455.77 Q1602.72 1454.33 1599.2 1454.33 Q1597.28 1454.33 1595.08 1454.75 Q1592.88 1455.16 1590.24 1456.04 L1590.24 1451.88 Q1592.9 1451.14 1595.22 1450.77 Q1597.56 1450.39 1599.62 1450.39 Q1604.94 1450.39 1608.04 1452.83 Q1611.14 1455.23 1611.14 1459.35 Q1611.14 1462.22 1609.5 1464.21 Q1607.86 1466.18 1604.82 1466.95 Z" fill="#000000" fill-rule="nonzero" fill-opacity="1" /><path clip-path="url(#clip900)" d="M1630.82 1454.1 Q1627.21 1454.1 1625.38 1457.66 Q1623.57 1461.2 1623.57 1468.33 Q1623.57 1475.44 1625.38 1479.01 Q1627.21 1482.55 1630.82 1482.55 Q1634.45 1482.55 1636.26 1479.01 Q1638.09 1475.44 1638.09 1468.33 Q1638.09 1461.2 1636.26 1457.66 Q1634.45 1454.1 1630.82 1454.1 M1630.82 1450.39 Q1636.63 1450.39 1639.69 1455 Q1642.76 1459.58 1642.76 1468.33 Q1642.76 1477.06 1639.69 1481.67 Q1636.63 1486.25 1630.82 1486.25 Q1625.01 1486.25 1621.93 1481.67 Q1618.88 1477.06 1618.88 1468.33 Q1618.88 1459.58 1621.93 1455 Q1625.01 1450.39 1630.82 1450.39 Z" fill="#000000" fill-rule="nonzero" fill-opacity="1" /><path clip-path="url(#clip900)" d="M1660.98 1454.1 Q1657.37 1454.1 1655.54 1457.66 Q1653.74 1461.2 1653.74 1468.33 Q1653.74 1475.44 1655.54 1479.01 Q1657.37 1482.55 1660.98 1482.55 Q1664.62 1482.55 1666.42 1479.01 Q1668.25 1475.44 1668.25 1468.33 Q1668.25 1461.2 1666.42 1457.66 Q1664.62 1454.1 1660.98 1454.1 M1660.98 1450.39 Q1666.79 1450.39 1669.85 1455 Q1672.93 1459.58 1672.93 1468.33 Q1672.93 1477.06 1669.85 1481.67 Q1666.79 1486.25 1660.98 1486.25 Q1655.17 1486.25 1652.09 1481.67 Q1649.04 1477.06 1649.04 1468.33 Q1649.04 1459.58 1652.09 1455 Q1655.17 1450.39 1660.98 1450.39 Z" fill="#000000" fill-rule="nonzero" fill-opacity="1" /><path clip-path="url(#clip900)" d="M2045.64 1455.09 L2033.83 1473.54 L2045.64 1473.54 L2045.64 1455.09 M2044.41 1451.02 L2050.29 1451.02 L2050.29 1473.54 L2055.22 1473.54 L2055.22 1477.43 L2050.29 1477.43 L2050.29 1485.58 L2045.64 1485.58 L2045.64 1477.43 L2030.04 1477.43 L2030.04 1472.92 L2044.41 1451.02 Z" fill="#000000" fill-rule="nonzero" fill-opacity="1" /><path clip-path="url(#clip900)" d="M2072.95 1454.1 Q2069.34 1454.1 2067.51 1457.66 Q2065.71 1461.2 2065.71 1468.33 Q2065.71 1475.44 2067.51 1479.01 Q2069.34 1482.55 2072.95 1482.55 Q2076.59 1482.55 2078.39 1479.01 Q2080.22 1475.44 2080.22 1468.33 Q2080.22 1461.2 2078.39 1457.66 Q2076.59 1454.1 2072.95 1454.1 M2072.95 1450.39 Q2078.76 1450.39 2081.82 1455 Q2084.9 1459.58 2084.9 1468.33 Q2084.9 1477.06 2081.82 1481.67 Q2078.76 1486.25 2072.95 1486.25 Q2067.14 1486.25 2064.06 1481.67 Q2061.01 1477.06 2061.01 1468.33 Q2061.01 1459.58 2064.06 1455 Q2067.14 1450.39 2072.95 1450.39 Z" fill="#000000" fill-rule="nonzero" fill-opacity="1" /><path clip-path="url(#clip900)" d="M2103.11 1454.1 Q2099.5 1454.1 2097.67 1457.66 Q2095.87 1461.2 2095.87 1468.33 Q2095.87 1475.44 2097.67 1479.01 Q2099.5 1482.55 2103.11 1482.55 Q2106.75 1482.55 2108.55 1479.01 Q2110.38 1475.44 2110.38 1468.33 Q2110.38 1461.2 2108.55 1457.66 Q2106.75 1454.1 2103.11 1454.1 M2103.11 1450.39 Q2108.92 1450.39 2111.98 1455 Q2115.06 1459.58 2115.06 1468.33 Q2115.06 1477.06 2111.98 1481.67 Q2108.92 1486.25 2103.11 1486.25 Q2097.3 1486.25 2094.22 1481.67 Q2091.17 1477.06 2091.17 1468.33 Q2091.17 1459.58 2094.22 1455 Q2097.3 1450.39 2103.11 1450.39 Z" fill="#000000" fill-rule="nonzero" fill-opacity="1" /><path clip-path="url(#clip900)" d="M1286.34 1518.52 L1292.23 1518.52 L1292.23 1547.77 L1309.7 1532.4 L1317.18 1532.4 L1298.27 1549.07 L1317.98 1568.04 L1310.34 1568.04 L1292.23 1550.63 L1292.23 1568.04 L1286.34 1568.04 L1286.34 1518.52 Z" fill="#000000" fill-rule="nonzero" fill-opacity="1" /><polyline clip-path="url(#clip902)" style="stroke:#000000; stroke-linecap:round; stroke-linejoin:round; stroke-width:2; stroke-opacity:0.1; fill:none" points="251.56,1206.35 2352.76,1206.35 "/>
<polyline clip-path="url(#clip902)" style="stroke:#000000; stroke-linecap:round; stroke-linejoin:round; stroke-width:2; stroke-opacity:0.1; fill:none" points="251.56,393.818 2352.76,393.818 "/>
<polyline clip-path="url(#clip900)" style="stroke:#000000; stroke-linecap:round; stroke-linejoin:round; stroke-width:4; stroke-opacity:1; fill:none" points="251.56,1423.18 251.56,123.472 "/>
<polyline clip-path="url(#clip900)" style="stroke:#000000; stroke-linecap:round; stroke-linejoin:round; stroke-width:4; stroke-opacity:1; fill:none" points="251.56,1206.35 270.458,1206.35 "/>
<polyline clip-path="url(#clip900)" style="stroke:#000000; stroke-linecap:round; stroke-linejoin:round; stroke-width:4; stroke-opacity:1; fill:none" points="251.56,393.818 270.458,393.818 "/>
<path clip-path="url(#clip900)" d="M114.931 1226.14 L122.57 1226.14 L122.57 1199.77 L114.26 1201.44 L114.26 1197.18 L122.524 1195.51 L127.2 1195.51 L127.2 1226.14 L134.839 1226.14 L134.839 1230.07 L114.931 1230.07 L114.931 1226.14 Z" fill="#000000" fill-rule="nonzero" fill-opacity="1" /><path clip-path="url(#clip900)" d="M154.283 1198.59 Q150.672 1198.59 148.843 1202.16 Q147.038 1205.7 147.038 1212.83 Q147.038 1219.93 148.843 1223.5 Q150.672 1227.04 154.283 1227.04 Q157.917 1227.04 159.723 1223.5 Q161.552 1219.93 161.552 1212.83 Q161.552 1205.7 159.723 1202.16 Q157.917 1198.59 154.283 1198.59 M154.283 1194.89 Q160.093 1194.89 163.149 1199.49 Q166.227 1204.08 166.227 1212.83 Q166.227 1221.55 163.149 1226.16 Q160.093 1230.74 154.283 1230.74 Q148.473 1230.74 145.394 1226.16 Q142.339 1221.55 142.339 1212.83 Q142.339 1204.08 145.394 1199.49 Q148.473 1194.89 154.283 1194.89 Z" fill="#000000" fill-rule="nonzero" fill-opacity="1" /><path clip-path="url(#clip900)" d="M166.227 1188.99 L190.339 1188.99 L190.339 1192.19 L166.227 1192.19 L166.227 1188.99 Z" fill="#000000" fill-rule="nonzero" fill-opacity="1" /><path clip-path="url(#clip900)" d="M198.577 1174.58 L213.491 1174.58 L213.491 1177.78 L202.056 1177.78 L202.056 1184.66 Q202.884 1184.38 203.711 1184.25 Q204.539 1184.1 205.366 1184.1 Q210.068 1184.1 212.814 1186.68 Q215.56 1189.25 215.56 1193.65 Q215.56 1198.19 212.739 1200.71 Q209.918 1203.21 204.783 1203.21 Q203.015 1203.21 201.172 1202.91 Q199.348 1202.61 197.392 1202 L197.392 1198.19 Q199.085 1199.11 200.89 1199.56 Q202.696 1200.01 204.708 1200.01 Q207.962 1200.01 209.861 1198.3 Q211.761 1196.59 211.761 1193.65 Q211.761 1190.72 209.861 1189.01 Q207.962 1187.3 204.708 1187.3 Q203.185 1187.3 201.661 1187.64 Q200.157 1187.97 198.577 1188.69 L198.577 1174.58 Z" fill="#000000" fill-rule="nonzero" fill-opacity="1" /><path clip-path="url(#clip900)" d="M144.855 413.61 L152.493 413.61 L152.493 387.245 L144.183 388.911 L144.183 384.652 L152.447 382.985 L157.123 382.985 L157.123 413.61 L164.762 413.61 L164.762 417.545 L144.855 417.545 L144.855 413.61 Z" fill="#000000" fill-rule="nonzero" fill-opacity="1" /><path clip-path="url(#clip900)" d="M184.206 386.064 Q180.595 386.064 178.766 389.629 Q176.961 393.171 176.961 400.3 Q176.961 407.407 178.766 410.971 Q180.595 414.513 184.206 414.513 Q187.84 414.513 189.646 410.971 Q191.475 407.407 191.475 400.3 Q191.475 393.171 189.646 389.629 Q187.84 386.064 184.206 386.064 M184.206 382.36 Q190.016 382.36 193.072 386.967 Q196.151 391.55 196.151 400.3 Q196.151 409.027 193.072 413.633 Q190.016 418.217 184.206 418.217 Q178.396 418.217 175.317 413.633 Q172.262 409.027 172.262 400.3 Q172.262 391.55 175.317 386.967 Q178.396 382.36 184.206 382.36 Z" fill="#000000" fill-rule="nonzero" fill-opacity="1" /><path clip-path="url(#clip900)" d="M205.855 364.556 Q202.921 364.556 201.436 367.453 Q199.969 370.33 199.969 376.123 Q199.969 381.897 201.436 384.794 Q202.921 387.671 205.855 387.671 Q208.808 387.671 210.275 384.794 Q211.761 381.897 211.761 376.123 Q211.761 370.33 210.275 367.453 Q208.808 364.556 205.855 364.556 M205.855 361.547 Q210.576 361.547 213.059 365.29 Q215.56 369.014 215.56 376.123 Q215.56 383.214 213.059 386.956 Q210.576 390.68 205.855 390.68 Q201.135 390.68 198.633 386.956 Q196.151 383.214 196.151 376.123 Q196.151 369.014 198.633 365.29 Q201.135 361.547 205.855 361.547 Z" fill="#000000" fill-rule="nonzero" fill-opacity="1" /><path clip-path="url(#clip900)" d="M32.4621 801.797 Q32.4621 806.507 36.1542 809.244 Q39.8145 811.982 46.212 811.982 Q52.6095 811.982 56.3017 809.276 Q59.9619 806.539 59.9619 801.797 Q59.9619 797.118 56.2698 794.381 Q52.5777 791.643 46.212 791.643 Q39.8781 791.643 36.186 794.381 Q32.4621 797.118 32.4621 801.797 M27.4968 801.797 Q27.4968 794.158 32.4621 789.797 Q37.4273 785.437 46.212 785.437 Q54.9649 785.437 59.9619 789.797 Q64.9272 794.158 64.9272 801.797 Q64.9272 809.467 59.9619 813.828 Q54.9649 818.156 46.212 818.156 Q37.4273 818.156 32.4621 813.828 Q27.4968 809.467 27.4968 801.797 Z" fill="#000000" fill-rule="nonzero" fill-opacity="1" /><path clip-path="url(#clip900)" d="M46.212 750.139 Q39.7508 750.139 36.0905 752.812 Q32.3984 755.454 32.3984 760.101 Q32.3984 764.748 36.0905 767.422 Q39.7508 770.064 46.212 770.064 Q52.6732 770.064 56.3653 767.422 Q60.0256 764.748 60.0256 760.101 Q60.0256 755.454 56.3653 752.812 Q52.6732 750.139 46.212 750.139 M33.7671 770.064 Q30.5842 768.218 29.0564 765.417 Q27.4968 762.584 27.4968 758.669 Q27.4968 752.176 32.6531 748.134 Q37.8093 744.06 46.212 744.06 Q54.6147 744.06 59.771 748.134 Q64.9272 752.176 64.9272 758.669 Q64.9272 762.584 63.3994 765.417 Q61.8398 768.218 58.657 770.064 L64.0042 770.064 L64.0042 775.952 L14.479 775.952 L14.479 770.064 L33.7671 770.064 Z" fill="#000000" fill-rule="nonzero" fill-opacity="1" /><path clip-path="url(#clip900)" d="M28.3562 734.352 L28.3562 728.495 L64.6407 728.495 Q71.452 728.495 74.5076 731.105 Q77.5631 733.684 77.5631 739.445 L77.5631 741.673 L72.5979 741.673 L72.5979 740.113 Q72.5979 736.771 71.0383 735.561 Q69.5105 734.352 64.6407 734.352 L28.3562 734.352 M14.479 734.352 L14.479 728.495 L21.895 728.495 L21.895 734.352 L14.479 734.352 Z" fill="#000000" fill-rule="nonzero" fill-opacity="1" /><path clip-path="url(#clip900)" d="M957.973 65.7705 L957.973 89.8329 L950.479 89.8329 L950.479 27.2059 L957.973 27.2059 L957.973 34.0924 Q960.323 30.0415 963.887 28.0971 Q967.493 26.1121 972.475 26.1121 Q980.739 26.1121 985.884 32.6746 Q991.069 39.2371 991.069 49.9314 Q991.069 60.6258 985.884 67.1883 Q980.739 73.7508 972.475 73.7508 Q967.493 73.7508 963.887 71.8063 Q960.323 69.8214 957.973 65.7705 M983.332 49.9314 Q983.332 41.7081 979.929 37.0496 Q976.567 32.3505 970.652 32.3505 Q964.738 32.3505 961.335 37.0496 Q957.973 41.7081 957.973 49.9314 Q957.973 58.1548 961.335 62.8538 Q964.738 67.5124 970.652 67.5124 Q976.567 67.5124 979.929 62.8538 Q983.332 58.1548 983.332 49.9314 Z" fill="#000000" fill-rule="nonzero" fill-opacity="1" /><path clip-path="url(#clip900)" d="M1029.71 34.1734 Q1028.46 33.4443 1026.96 33.1202 Q1025.5 32.7556 1023.72 32.7556 Q1017.4 32.7556 1014 36.8875 Q1010.63 40.9789 1010.63 48.6757 L1010.63 72.576 L1003.14 72.576 L1003.14 27.2059 L1010.63 27.2059 L1010.63 34.2544 Q1012.98 30.1225 1016.75 28.1376 Q1020.52 26.1121 1025.91 26.1121 Q1026.68 26.1121 1027.61 26.2337 Q1028.54 26.3147 1029.67 26.5172 L1029.71 34.1734 Z" fill="#000000" fill-rule="nonzero" fill-opacity="1" /><path clip-path="url(#clip900)" d="M1053.29 32.4315 Q1047.3 32.4315 1043.81 37.1306 Q1040.33 41.7891 1040.33 49.9314 Q1040.33 58.0738 1043.77 62.7728 Q1047.25 67.4314 1053.29 67.4314 Q1059.25 67.4314 1062.73 62.7323 Q1066.21 58.0333 1066.21 49.9314 Q1066.21 41.8701 1062.73 37.1711 Q1059.25 32.4315 1053.29 32.4315 M1053.29 26.1121 Q1063.01 26.1121 1068.56 32.4315 Q1074.11 38.7509 1074.11 49.9314 Q1074.11 61.0714 1068.56 67.4314 Q1063.01 73.7508 1053.29 73.7508 Q1043.53 73.7508 1037.98 67.4314 Q1032.47 61.0714 1032.47 49.9314 Q1032.47 38.7509 1037.98 32.4315 Q1043.53 26.1121 1053.29 26.1121 Z" fill="#000000" fill-rule="nonzero" fill-opacity="1" /><path clip-path="url(#clip900)" d="M1119.04 49.9314 Q1119.04 41.7081 1115.63 37.0496 Q1112.27 32.3505 1106.36 32.3505 Q1100.44 32.3505 1097.04 37.0496 Q1093.68 41.7081 1093.68 49.9314 Q1093.68 58.1548 1097.04 62.8538 Q1100.44 67.5124 1106.36 67.5124 Q1112.27 67.5124 1115.63 62.8538 Q1119.04 58.1548 1119.04 49.9314 M1093.68 34.0924 Q1096.03 30.0415 1099.59 28.0971 Q1103.2 26.1121 1108.18 26.1121 Q1116.44 26.1121 1121.59 32.6746 Q1126.77 39.2371 1126.77 49.9314 Q1126.77 60.6258 1121.59 67.1883 Q1116.44 73.7508 1108.18 73.7508 Q1103.2 73.7508 1099.59 71.8063 Q1096.03 69.8214 1093.68 65.7705 L1093.68 72.576 L1086.18 72.576 L1086.18 9.54393 L1093.68 9.54393 L1093.68 34.0924 Z" fill="#000000" fill-rule="nonzero" fill-opacity="1" /><path clip-path="url(#clip900)" d="M1139.13 9.54393 L1146.58 9.54393 L1146.58 72.576 L1139.13 72.576 L1139.13 9.54393 Z" fill="#000000" fill-rule="nonzero" fill-opacity="1" /><path clip-path="url(#clip900)" d="M1200.99 48.0275 L1200.99 51.6733 L1166.72 51.6733 Q1167.2 59.3701 1171.33 63.421 Q1175.51 67.4314 1182.92 67.4314 Q1187.21 67.4314 1191.22 66.3781 Q1195.27 65.3249 1199.24 63.2184 L1199.24 70.267 Q1195.23 71.9684 1191.02 72.8596 Q1186.81 73.7508 1182.47 73.7508 Q1171.62 73.7508 1165.26 67.4314 Q1158.94 61.1119 1158.94 50.3365 Q1158.94 39.1965 1164.93 32.6746 Q1170.97 26.1121 1181.18 26.1121 Q1190.33 26.1121 1195.64 32.0264 Q1200.99 37.9003 1200.99 48.0275 M1193.53 45.84 Q1193.45 39.7232 1190.09 36.0774 Q1186.77 32.4315 1181.26 32.4315 Q1175.02 32.4315 1171.25 35.9558 Q1167.53 39.4801 1166.96 45.8805 L1193.53 45.84 M1174.86 6.22219 L1186.28 21.3726 L1180.08 21.3726 L1166.88 6.22219 L1174.86 6.22219 Z" fill="#000000" fill-rule="nonzero" fill-opacity="1" /><path clip-path="url(#clip900)" d="M1248.54 35.9153 Q1251.34 30.8922 1255.23 28.5022 Q1259.12 26.1121 1264.38 26.1121 Q1271.47 26.1121 1275.32 31.0947 Q1279.17 36.0368 1279.17 45.1919 L1279.17 72.576 L1271.68 72.576 L1271.68 45.4349 Q1271.68 38.913 1269.37 35.7533 Q1267.06 32.5936 1262.32 32.5936 Q1256.52 32.5936 1253.16 36.4419 Q1249.8 40.2903 1249.8 46.9338 L1249.8 72.576 L1242.31 72.576 L1242.31 45.4349 Q1242.31 38.8725 1240 35.7533 Q1237.69 32.5936 1232.87 32.5936 Q1227.16 32.5936 1223.79 36.4824 Q1220.43 40.3308 1220.43 46.9338 L1220.43 72.576 L1212.94 72.576 L1212.94 27.2059 L1220.43 27.2059 L1220.43 34.2544 Q1222.98 30.082 1226.55 28.0971 Q1230.11 26.1121 1235.01 26.1121 Q1239.96 26.1121 1243.4 28.6237 Q1246.88 31.1352 1248.54 35.9153 Z" fill="#000000" fill-rule="nonzero" fill-opacity="1" /><path clip-path="url(#clip900)" d="M1332.84 48.0275 L1332.84 51.6733 L1298.57 51.6733 Q1299.06 59.3701 1303.19 63.421 Q1307.36 67.4314 1314.78 67.4314 Q1319.07 67.4314 1323.08 66.3781 Q1327.13 65.3249 1331.1 63.2184 L1331.1 70.267 Q1327.09 71.9684 1322.88 72.8596 Q1318.67 73.7508 1314.33 73.7508 Q1303.47 73.7508 1297.11 67.4314 Q1290.8 61.1119 1290.8 50.3365 Q1290.8 39.1965 1296.79 32.6746 Q1302.83 26.1121 1313.03 26.1121 Q1322.19 26.1121 1327.5 32.0264 Q1332.84 37.9003 1332.84 48.0275 M1325.39 45.84 Q1325.31 39.7232 1321.95 36.0774 Q1318.63 32.4315 1313.12 32.4315 Q1306.88 32.4315 1303.11 35.9558 Q1299.38 39.4801 1298.82 45.8805 L1325.39 45.84 Z" fill="#000000" fill-rule="nonzero" fill-opacity="1" /><path clip-path="url(#clip900)" d="M1373.35 62.2867 L1381.9 62.2867 L1381.9 72.576 L1373.35 72.576 L1373.35 62.2867 M1373.35 29.6769 L1381.9 29.6769 L1381.9 39.9662 L1373.35 39.9662 L1373.35 29.6769 Z" fill="#000000" fill-rule="nonzero" fill-opacity="1" /><path clip-path="url(#clip900)" d="M1433.14 14.324 L1433.14 27.2059 L1448.5 27.2059 L1448.5 32.9987 L1433.14 32.9987 L1433.14 57.6282 Q1433.14 63.1779 1434.64 64.7578 Q1436.18 66.3376 1440.84 66.3376 L1448.5 66.3376 L1448.5 72.576 L1440.84 72.576 Q1432.21 72.576 1428.93 69.3758 Q1425.65 66.1351 1425.65 57.6282 L1425.65 32.9987 L1420.18 32.9987 L1420.18 27.2059 L1425.65 27.2059 L1425.65 14.324 L1433.14 14.324 Z" fill="#000000" fill-rule="nonzero" fill-opacity="1" /><path clip-path="url(#clip900)" d="M1465.51 65.7705 L1465.51 89.8329 L1458.02 89.8329 L1458.02 27.2059 L1465.51 27.2059 L1465.51 34.0924 Q1467.86 30.0415 1471.43 28.0971 Q1475.03 26.1121 1480.01 26.1121 Q1488.28 26.1121 1493.42 32.6746 Q1498.61 39.2371 1498.61 49.9314 Q1498.61 60.6258 1493.42 67.1883 Q1488.28 73.7508 1480.01 73.7508 Q1475.03 73.7508 1471.43 71.8063 Q1467.86 69.8214 1465.51 65.7705 M1490.87 49.9314 Q1490.87 41.7081 1487.47 37.0496 Q1484.1 32.3505 1478.19 32.3505 Q1472.28 32.3505 1468.87 37.0496 Q1465.51 41.7081 1465.51 49.9314 Q1465.51 58.1548 1468.87 62.8538 Q1472.28 67.5124 1478.19 67.5124 Q1484.1 67.5124 1487.47 62.8538 Q1490.87 58.1548 1490.87 49.9314 Z" fill="#000000" fill-rule="nonzero" fill-opacity="1" /><path clip-path="url(#clip900)" d="M1519.06 65.6895 L1547.62 65.6895 L1547.62 72.576 L1509.22 72.576 L1509.22 65.6895 Q1513.88 60.8689 1521.9 52.7671 Q1529.96 44.6248 1532.03 42.2752 Q1535.96 37.8598 1537.5 34.8216 Q1539.08 31.7429 1539.08 28.7857 Q1539.08 23.9651 1535.67 20.927 Q1532.31 17.8888 1526.88 17.8888 Q1523.03 17.8888 1518.74 19.2256 Q1514.49 20.5624 1509.63 23.2765 L1509.63 15.0127 Q1514.57 13.0277 1518.86 12.015 Q1523.16 11.0023 1526.72 11.0023 Q1536.12 11.0023 1541.71 15.7013 Q1547.3 20.4004 1547.3 28.2591 Q1547.3 31.9859 1545.88 35.3482 Q1544.5 38.6699 1540.82 43.2069 Q1539.8 44.3817 1534.38 50.0125 Q1528.95 55.6027 1519.06 65.6895 Z" fill="#000000" fill-rule="nonzero" fill-opacity="1" /><path clip-path="url(#clip900)" d="M1566.22 65.6895 L1579.58 65.6895 L1579.58 19.5497 L1565.04 22.4663 L1565.04 15.0127 L1579.5 12.096 L1587.69 12.096 L1587.69 65.6895 L1601.05 65.6895 L1601.05 72.576 L1566.22 72.576 L1566.22 65.6895 Z" fill="#000000" fill-rule="nonzero" fill-opacity="1" /><path clip-path="url(#clip900)" d="M1619 65.6895 L1632.37 65.6895 L1632.37 19.5497 L1617.82 22.4663 L1617.82 15.0127 L1632.29 12.096 L1640.47 12.096 L1640.47 65.6895 L1653.84 65.6895 L1653.84 72.576 L1619 72.576 L1619 65.6895 Z" fill="#000000" fill-rule="nonzero" fill-opacity="1" /><polyline clip-path="url(#clip902)" style="stroke:#009af9; stroke-linecap:round; stroke-linejoin:round; stroke-width:4; stroke-opacity:1; fill:none" points="311.028,160.256 315.443,210.278 319.858,224.877 324.273,267.663 328.687,370.005 333.102,370.005 337.517,370.005 341.932,370.005 346.347,370.005 350.762,370.005 355.176,370.005 359.591,370.005 364.006,408.15 368.421,435.75 372.836,444.118 377.251,451.608 381.665,458.15 386.08,463.944 390.495,469.157 394.91,473.913 399.325,478.303 403.74,482.393 408.154,486.235 412.569,489.867 416.984,493.319 421.399,496.617 425.814,499.779 430.229,502.822 434.643,505.758 439.058,508.6 443.473,511.357 447.888,514.036 452.303,516.644 456.718,519.189 461.132,521.675 465.547,524.106 469.962,526.487 474.377,528.822 478.792,531.114 483.207,533.365 487.621,535.579 492.036,537.758 496.451,539.904 500.866,542.018 505.281,544.104 509.696,546.162 514.11,548.194 518.525,550.201 522.94,552.185 527.355,554.147 531.77,556.088 536.185,558.008 540.599,559.91 545.014,561.793 549.429,563.659 553.844,565.509 558.259,567.343 562.674,569.161 567.088,570.965 571.503,572.755 575.918,574.532 580.333,576.296 584.748,578.047 589.163,579.787 593.577,581.515 597.992,583.233 602.407,584.94 606.822,586.636 611.237,588.323 615.652,590.001 620.066,591.669 624.481,593.328 628.896,594.979 633.311,596.622 637.726,598.257 642.141,599.884 646.555,601.504 650.97,603.116 655.385,604.722 659.8,606.321 664.215,607.913 668.63,609.499 673.044,611.079 677.459,612.653 681.874,614.221 686.289,615.783 690.704,617.34 695.119,618.892 699.533,620.438 703.948,621.98 708.363,623.517 712.778,625.049 717.193,626.576 721.608,628.099 726.022,629.618 730.437,631.132 734.852,632.643 739.267,634.149 743.682,635.651 748.097,637.15 752.511,638.645 756.926,640.137 761.341,641.625 765.756,643.109 770.171,644.59 774.586,646.068 779,647.543 783.415,649.015 787.83,650.484 792.245,651.949 796.66,653.412 801.075,654.873 805.489,656.33 809.904,657.785 814.319,659.237 818.734,660.687 823.149,662.134 827.564,663.579 831.978,665.022 836.393,666.462 840.808,667.9 845.223,669.336 849.638,670.77 854.053,672.201 858.467,673.631 862.882,675.059 867.297,676.484 871.712,677.908 876.127,679.33 880.542,680.75 884.956,682.169 889.371,683.585 893.786,685 898.201,686.414 902.616,687.825 907.031,689.235 911.445,690.644 915.86,692.051 920.275,693.456 924.69,694.861 929.105,696.263 933.52,697.665 937.934,699.065 942.349,700.463 946.764,701.861 951.179,703.257 955.594,704.652 960.009,706.045 964.423,707.438 968.838,708.829 973.253,710.219 977.668,711.608 982.083,712.996 986.498,714.383 990.912,715.769 995.327,717.153 999.742,718.537 1004.16,719.92 1008.57,721.302 1012.99,722.683 1017.4,724.063 1021.82,725.442 1026.23,726.82 1030.65,728.198 1035.06,729.574 1039.48,730.95 1043.89,732.325 1048.31,733.699 1052.72,735.072 1057.13,736.445 1061.55,737.816 1065.96,739.187 1070.38,740.558 1074.79,741.927 1079.21,743.296 1083.62,744.665 1088.04,746.032 1092.45,747.399 1096.87,748.765 1101.28,750.131 1105.7,751.496 1110.11,752.861 1114.53,754.225 1118.94,755.588 1123.36,756.951 1127.77,758.313 1132.19,759.675 1136.6,761.036 1141.02,762.397 1145.43,763.757 1149.85,765.116 1154.26,766.475 1158.68,767.834 1163.09,769.192 1167.51,770.55 1171.92,771.907 1176.34,773.264 1180.75,774.621 1185.17,775.977 1189.58,777.332 1193.99,778.687 1198.41,780.042 1202.82,781.397 1207.24,782.751 1211.65,784.104 1216.07,785.457 1220.48,786.81 1224.9,788.163 1229.31,789.515 1233.73,790.867 1238.14,792.218 1242.56,793.57 1246.97,794.92 1251.39,796.271 1255.8,797.621 1260.22,798.971 1264.63,800.321 1269.05,801.67 1273.46,803.019 1277.88,804.368 1282.29,805.716 1286.71,807.065 1291.12,808.413 1295.54,809.76 1299.95,811.108 1304.37,812.455 1308.78,813.802 1313.2,815.149 1317.61,816.495 1322.02,817.841 1326.44,819.187 1330.85,820.533 1335.27,821.879 1339.68,823.224 1344.1,824.569 1348.51,825.914 1352.93,827.259 1357.34,828.604 1361.76,829.948 1366.17,831.292 1370.59,832.636 1375,833.98 1379.42,835.324 1383.83,836.667 1388.25,838.01 1392.66,839.354 1397.08,840.697 1401.49,842.039 1405.91,843.382 1410.32,844.724 1414.74,846.067 1419.15,847.409 1423.57,848.751 1427.98,850.093 1432.4,851.435 1436.81,852.776 1441.23,854.118 1445.64,855.459 1450.05,856.8 1454.47,858.141 1458.88,859.482 1463.3,860.823 1467.71,862.164 1472.13,863.504 1476.54,864.845 1480.96,866.185 1485.37,867.525 1489.79,868.865 1494.2,870.205 1498.62,871.545 1503.03,872.885 1507.45,874.225 1511.86,875.564 1516.28,876.904 1520.69,878.243 1525.11,879.582 1529.52,880.922 1533.94,882.261 1538.35,883.6 1542.77,884.939 1547.18,886.277 1551.6,887.616 1556.01,888.955 1560.43,890.293 1564.84,891.632 1569.26,892.97 1573.67,894.309 1578.09,895.647 1582.5,896.985 1586.91,898.323 1591.33,899.661 1595.74,900.999 1600.16,902.337 1604.57,903.675 1608.99,905.013 1613.4,906.351 1617.82,907.688 1622.23,909.026 1626.65,910.364 1631.06,911.701 1635.48,913.039 1639.89,914.376 1644.31,915.713 1648.72,917.05 1653.14,918.388 1657.55,919.725 1661.97,921.062 1666.38,922.399 1670.8,923.736 1675.21,925.073 1679.63,926.41 1684.04,927.747 1688.46,929.083 1692.87,930.42 1697.29,931.757 1701.7,933.093 1706.12,934.43 1710.53,935.767 1714.94,937.103 1719.36,938.44 1723.77,939.776 1728.19,941.113 1732.6,942.449 1737.02,943.785 1741.43,945.122 1745.85,946.458 1750.26,947.794 1754.68,949.13 1759.09,950.466 1763.51,951.803 1767.92,953.139 1772.34,954.475 1776.75,955.811 1781.17,957.147 1785.58,958.483 1790,959.819 1794.41,961.154 1798.83,962.49 1803.24,963.826 1807.66,965.162 1812.07,966.498 1816.49,967.834 1820.9,969.169 1825.32,970.505 1829.73,971.841 1834.15,973.176 1838.56,974.512 1842.98,975.848 1847.39,977.183 1851.8,978.519 1856.22,979.854 1860.63,981.19 1865.05,982.525 1869.46,983.861 1873.88,985.196 1878.29,986.532 1882.71,987.867 1887.12,989.202 1891.54,990.538 1895.95,991.873 1900.37,993.208 1904.78,994.544 1909.2,995.879 1913.61,997.214 1918.03,998.55 1922.44,999.885 1926.86,1001.22 1931.27,1002.56 1935.69,1003.89 1940.1,1005.23 1944.52,1006.56 1948.93,1007.9 1953.35,1009.23 1957.76,1010.57 1962.18,1011.9 1966.59,1013.24 1971.01,1014.57 1975.42,1015.91 1979.83,1017.24 1984.25,1018.58 1988.66,1019.91 1993.08,1021.25 1997.49,1022.58 2001.91,1023.92 2006.32,1025.25 2010.74,1026.59 2015.15,1027.92 2019.57,1029.26 2023.98,1030.59 2028.4,1031.93 2032.81,1033.26 2037.23,1034.6 2041.64,1035.93 2046.06,1037.27 2050.47,1038.6 2054.89,1039.94 2059.3,1041.27 2063.72,1042.61 2068.13,1043.94 2072.55,1045.27 2076.96,1046.61 2081.38,1047.94 2085.79,1049.28 2090.21,1050.61 2094.62,1051.95 2099.04,1053.28 2103.45,1054.62 2107.87,1055.95 2112.28,1057.29 2116.69,1058.62 2121.11,1059.96 2125.52,1061.29 2129.94,1062.63 2134.35,1063.96 2138.77,1065.3 2143.18,1066.63 2147.6,1067.97 2152.01,1069.3 2156.43,1070.63 2160.84,1071.97 2165.26,1073.3 2169.67,1074.64 2174.09,1075.97 2178.5,1077.31 2182.92,1078.64 2187.33,1079.98 2191.75,1081.31 2196.16,1082.65 2200.58,1083.98 2204.99,1085.32 2209.41,1086.65 2213.82,1087.98 2218.24,1089.32 2222.65,1090.65 2227.07,1091.99 2231.48,1093.32 2235.9,1094.66 2240.31,1095.99 2244.72,1097.33 2249.14,1098.66 2253.55,1100 2257.97,1101.33 2262.38,1102.67 2266.8,1104 2271.21,1105.33 2275.63,1106.67 2280.04,1108 2284.46,1109.34 2288.87,1110.67 2293.29,1112.01 "/>
<polyline clip-path="url(#clip902)" style="stroke:#e26f46; stroke-linecap:round; stroke-linejoin:round; stroke-width:4; stroke-opacity:1; fill:none" points="311.028,160.256 315.443,210.278 319.858,280.545 324.273,366.982 328.687,367.121 333.102,367.242 337.517,368.215 341.932,374.321 346.347,385.137 350.762,404.97 355.176,404.97 359.591,404.97 364.006,404.97 368.421,404.97 372.836,404.97 377.251,404.97 381.665,404.97 386.08,408.069 390.495,438.924 394.91,445.546 399.325,455.23 403.74,469.15 408.154,480.035 412.569,494.089 416.984,510.815 421.399,517.571 425.814,549.995 430.229,567.232 434.643,602.191 439.058,630.565 443.473,677.389 447.888,721.493 452.303,729.147 456.718,758.647 461.132,766.179 465.547,796.205 469.962,803.649 474.377,833.631 478.792,841.035 483.207,870.97 487.621,878.355 492.036,908.262 496.451,915.636 500.866,945.526 505.281,952.895 509.696,982.774 514.11,990.14 518.525,1020.01 522.94,1027.38 527.355,1057.25 531.77,1064.61 536.185,1094.48 540.599,1101.84 545.014,1131.7 549.429,1139.07 "/>
<polyline clip-path="url(#clip902)" style="stroke:#3da44d; stroke-linecap:round; stroke-linejoin:round; stroke-width:4; stroke-opacity:1; fill:none" points="311.028,160.256 315.443,210.278 319.858,280.545 324.273,366.982 328.687,367.121 333.102,367.242 337.517,368.215 341.932,374.321 346.347,385.137 350.762,404.97 355.176,404.97 359.591,404.97 364.006,404.97 368.421,404.97 372.836,404.97 377.251,404.97 381.665,404.97 386.08,408.069 390.495,438.924 394.91,445.546 399.325,455.23 403.74,469.406 408.154,480.497 412.569,494.857 416.984,511.747 421.399,521.583 425.814,550.707 430.229,569.954 434.643,602.572 439.058,629.989 443.473,674.699 447.888,725.32 452.303,732.958 456.718,762.383 461.132,769.902 465.547,799.924 469.962,807.363 474.377,837.34 478.792,844.742 483.207,874.674 487.621,882.057 492.036,911.962 496.451,919.336 500.866,949.224 505.281,956.593 509.696,986.471 514.11,993.837 518.525,1023.71 522.94,1031.07 527.355,1060.94 531.77,1068.31 536.185,1098.17 540.599,1105.53 545.014,1135.4 549.429,1142.76 "/>
<polyline clip-path="url(#clip902)" style="stroke:#c271d2; stroke-linecap:round; stroke-linejoin:round; stroke-width:4; stroke-opacity:1; fill:none" points="311.028,160.256 315.443,210.278 319.858,224.877 324.273,267.663 328.687,370.005 333.102,370.005 337.517,370.005 341.932,370.005 346.347,370.005 350.762,370.005 355.176,370.005 359.591,370.005 364.006,408.15 368.421,435.75 372.836,444.118 377.251,451.608 381.665,458.15 386.08,463.944 390.495,469.157 394.91,473.913 399.325,478.303 403.74,482.393 408.154,486.235 412.569,489.867 416.984,493.319 421.399,496.617 425.814,499.779 430.229,502.822 434.643,505.758 439.058,508.6 443.473,511.357 447.888,514.036 452.303,516.644 456.718,519.189 461.132,521.675 465.547,524.106 469.962,526.487 474.377,528.822 478.792,531.114 483.207,533.365 487.621,535.579 492.036,537.758 496.451,539.904 500.866,542.018 505.281,544.104 509.696,546.162 514.11,548.194 518.525,550.201 522.94,552.185 527.355,554.147 531.77,556.088 536.185,558.008 540.599,559.91 545.014,561.793 549.429,563.659 553.844,565.509 558.259,567.343 562.674,569.161 567.088,570.965 571.503,572.755 575.918,574.532 580.333,576.296 584.748,578.047 589.163,579.787 593.577,581.515 597.992,583.233 602.407,584.94 606.822,586.636 611.237,588.323 615.652,590.001 620.066,591.669 624.481,593.328 628.896,594.979 633.311,596.622 637.726,598.257 642.141,599.884 646.555,601.504 650.97,603.116 655.385,604.722 659.8,606.321 664.215,607.913 668.63,609.499 673.044,611.079 677.459,612.653 681.874,614.221 686.289,615.783 690.704,617.34 695.119,618.892 699.533,620.438 703.948,621.98 708.363,623.517 712.778,625.049 717.193,626.576 721.608,628.099 726.022,629.618 730.437,631.132 734.852,632.643 739.267,634.149 743.682,635.651 748.097,637.15 752.511,638.645 756.926,640.137 761.341,641.625 765.756,643.109 770.171,644.59 774.586,646.068 779,647.543 783.415,649.015 787.83,650.484 792.245,651.949 796.66,653.412 801.075,654.873 805.489,656.33 809.904,657.785 814.319,659.237 818.734,660.687 823.149,662.134 827.564,663.579 831.978,665.022 836.393,666.462 840.808,667.9 845.223,669.336 849.638,670.77 854.053,672.201 858.467,673.631 862.882,675.059 867.297,676.484 871.712,677.908 876.127,679.33 880.542,680.75 884.956,682.169 889.371,683.585 893.786,685 898.201,686.414 902.616,687.825 907.031,689.235 911.445,690.644 915.86,692.051 920.275,693.456 924.69,694.861 929.105,696.263 933.52,697.665 937.934,699.065 942.349,700.463 946.764,701.861 951.179,703.257 955.594,704.652 960.009,706.045 964.423,707.438 968.838,708.829 973.253,710.219 977.668,711.608 982.083,712.996 986.498,714.383 990.912,715.769 995.327,717.153 999.742,718.537 1004.16,719.92 1008.57,721.302 1012.99,722.683 1017.4,724.063 1021.82,725.442 1026.23,726.82 1030.65,728.198 1035.06,729.574 1039.48,730.95 1043.89,732.325 1048.31,733.699 1052.72,735.072 1057.13,736.445 1061.55,737.816 1065.96,739.187 1070.38,740.558 1074.79,741.927 1079.21,743.296 1083.62,744.665 1088.04,746.032 1092.45,747.399 1096.87,748.765 1101.28,750.131 1105.7,751.496 1110.11,752.861 1114.53,754.225 1118.94,755.588 1123.36,756.951 1127.77,758.313 1132.19,759.675 1136.6,761.036 1141.02,762.397 1145.43,763.757 1149.85,765.116 1154.26,766.475 1158.68,767.834 1163.09,769.192 1167.51,770.55 1171.92,771.907 1176.34,773.264 1180.75,774.621 1185.17,775.977 1189.58,777.332 1193.99,778.687 1198.41,780.042 1202.82,781.397 1207.24,782.751 1211.65,784.104 1216.07,785.457 1220.48,786.81 1224.9,788.163 1229.31,789.515 1233.73,790.867 1238.14,792.218 1242.56,793.57 1246.97,794.92 1251.39,796.271 1255.8,797.621 1260.22,798.971 1264.63,800.321 1269.05,801.67 1273.46,803.019 1277.88,804.368 1282.29,805.716 1286.71,807.065 1291.12,808.413 1295.54,809.76 1299.95,811.108 1304.37,812.455 1308.78,813.802 1313.2,815.149 1317.61,816.495 1322.02,817.841 1326.44,819.187 1330.85,820.533 1335.27,821.879 1339.68,823.224 1344.1,824.569 1348.51,825.914 1352.93,827.259 1357.34,828.604 1361.76,829.948 1366.17,831.292 1370.59,832.636 1375,833.98 1379.42,835.324 1383.83,836.667 1388.25,838.01 1392.66,839.354 1397.08,840.697 1401.49,842.039 1405.91,843.382 1410.32,844.724 1414.74,846.067 1419.15,847.409 1423.57,848.751 1427.98,850.093 1432.4,851.435 1436.81,852.776 1441.23,854.118 1445.64,855.459 1450.05,856.8 1454.47,858.141 1458.88,859.482 1463.3,860.823 1467.71,862.164 1472.13,863.504 1476.54,864.845 1480.96,866.185 1485.37,867.525 1489.79,868.865 1494.2,870.205 1498.62,871.545 1503.03,872.885 1507.45,874.225 1511.86,875.564 1516.28,876.904 1520.69,878.243 1525.11,879.582 1529.52,880.922 1533.94,882.261 1538.35,883.6 1542.77,884.939 1547.18,886.277 1551.6,887.616 1556.01,888.955 1560.43,890.293 1564.84,891.632 1569.26,892.97 1573.67,894.309 1578.09,895.647 1582.5,896.985 1586.91,898.323 1591.33,899.661 1595.74,900.999 1600.16,902.337 1604.57,903.675 1608.99,905.013 1613.4,906.351 1617.82,907.688 1622.23,909.026 1626.65,910.364 1631.06,911.701 1635.48,913.039 1639.89,914.376 1644.31,915.713 1648.72,917.05 1653.14,918.388 1657.55,919.725 1661.97,921.062 1666.38,922.399 1670.8,923.736 1675.21,925.073 1679.63,926.41 1684.04,927.747 1688.46,929.083 1692.87,930.42 1697.29,931.757 1701.7,933.093 1706.12,934.43 1710.53,935.767 1714.94,937.103 1719.36,938.44 1723.77,939.776 1728.19,941.113 1732.6,942.449 1737.02,943.785 1741.43,945.122 1745.85,946.458 1750.26,947.794 1754.68,949.13 1759.09,950.466 1763.51,951.803 1767.92,953.139 1772.34,954.475 1776.75,955.811 1781.17,957.147 1785.58,958.483 1790,959.819 1794.41,961.154 1798.83,962.49 1803.24,963.826 1807.66,965.162 1812.07,966.498 1816.49,967.834 1820.9,969.169 1825.32,970.505 1829.73,971.841 1834.15,973.176 1838.56,974.512 1842.98,975.848 1847.39,977.183 1851.8,978.519 1856.22,979.854 1860.63,981.19 1865.05,982.525 1869.46,983.861 1873.88,985.196 1878.29,986.532 1882.71,987.867 1887.12,989.202 1891.54,990.538 1895.95,991.873 1900.37,993.208 1904.78,994.544 1909.2,995.879 1913.61,997.214 1918.03,998.55 1922.44,999.885 1926.86,1001.22 1931.27,1002.56 1935.69,1003.89 1940.1,1005.23 1944.52,1006.56 1948.93,1007.9 1953.35,1009.23 1957.76,1010.57 1962.18,1011.9 1966.59,1013.24 1971.01,1014.57 1975.42,1015.91 1979.83,1017.24 1984.25,1018.58 1988.66,1019.91 1993.08,1021.25 1997.49,1022.58 2001.91,1023.92 2006.32,1025.25 2010.74,1026.59 2015.15,1027.92 2019.57,1029.26 2023.98,1030.59 2028.4,1031.93 2032.81,1033.26 2037.23,1034.6 2041.64,1035.93 2046.06,1037.27 2050.47,1038.6 2054.89,1039.94 2059.3,1041.27 2063.72,1042.61 2068.13,1043.94 2072.55,1045.27 2076.96,1046.61 2081.38,1047.94 2085.79,1049.28 2090.21,1050.61 2094.62,1051.95 2099.04,1053.28 2103.45,1054.62 2107.87,1055.95 2112.28,1057.29 2116.69,1058.62 2121.11,1059.96 2125.52,1061.29 2129.94,1062.63 2134.35,1063.96 2138.77,1065.3 2143.18,1066.63 2147.6,1067.97 2152.01,1069.3 2156.43,1070.63 2160.84,1071.97 2165.26,1073.3 2169.67,1074.64 2174.09,1075.97 2178.5,1077.31 2182.92,1078.64 2187.33,1079.98 2191.75,1081.31 2196.16,1082.65 2200.58,1083.98 2204.99,1085.32 2209.41,1086.65 2213.82,1087.98 2218.24,1089.32 2222.65,1090.65 2227.07,1091.99 2231.48,1093.32 2235.9,1094.66 2240.31,1095.99 2244.72,1097.33 2249.14,1098.66 2253.55,1100 2257.97,1101.33 2262.38,1102.67 2266.8,1104 2271.21,1105.33 2275.63,1106.67 2280.04,1108 2284.46,1109.34 2288.87,1110.67 2293.29,1112.01 "/>
<polyline clip-path="url(#clip902)" style="stroke:#ac8d18; stroke-linecap:round; stroke-linejoin:round; stroke-width:4; stroke-opacity:1; fill:none" points="311.028,160.256 315.443,160.256 319.858,160.256 324.273,160.256 328.687,160.256 333.102,160.256 337.517,160.256 341.932,160.256 346.347,210.278 350.762,271.766 355.176,323.338 359.591,582.039 364.006,591.644 368.421,716.795 372.836,817.322 377.251,966.214 381.665,1154.6 386.08,1386.4 "/>
<path clip-path="url(#clip900)" d="M1749.5 477.836 L2282.72 477.836 L2282.72 166.796 L1749.5 166.796  Z" fill="#ffffff" fill-rule="evenodd" fill-opacity="1"/>
<polyline clip-path="url(#clip900)" style="stroke:#000000; stroke-linecap:round; stroke-linejoin:round; stroke-width:4; stroke-opacity:1; fill:none" points="1749.5,477.836 2282.72,477.836 2282.72,166.796 1749.5,166.796 1749.5,477.836 "/>
<polyline clip-path="url(#clip900)" style="stroke:#009af9; stroke-linecap:round; stroke-linejoin:round; stroke-width:4; stroke-opacity:1; fill:none" points="1772.84,218.636 1912.92,218.636 "/>
<path clip-path="url(#clip900)" d="M1936.27 201.356 L1940.95 201.356 L1940.95 231.981 L1957.77 231.981 L1957.77 235.916 L1936.27 235.916 L1936.27 201.356 Z" fill="#000000" fill-rule="nonzero" fill-opacity="1" /><path clip-path="url(#clip900)" d="M1962.68 201.356 L1969.65 201.356 L1978.47 224.874 L1987.33 201.356 L1994.3 201.356 L1994.3 235.916 L1989.74 235.916 L1989.74 205.569 L1980.83 229.272 L1976.13 229.272 L1967.22 205.569 L1967.22 235.916 L1962.68 235.916 L1962.68 201.356 Z" fill="#000000" fill-rule="nonzero" fill-opacity="1" /><path clip-path="url(#clip900)" d="M2023.1 243.786 L2023.1 247.096 L1998.47 247.096 L1998.47 243.786 L2023.1 243.786 Z" fill="#000000" fill-rule="nonzero" fill-opacity="1" /><path clip-path="url(#clip900)" d="M2048 202.49 L2048 207.05 Q2045.34 205.777 2042.98 205.152 Q2040.62 204.527 2038.42 204.527 Q2034.6 204.527 2032.52 206.008 Q2030.46 207.49 2030.46 210.221 Q2030.46 212.513 2031.82 213.694 Q2033.21 214.851 2037.06 215.569 L2039.88 216.147 Q2045.11 217.143 2047.59 219.666 Q2050.09 222.166 2050.09 226.379 Q2050.09 231.402 2046.71 233.994 Q2043.35 236.587 2036.85 236.587 Q2034.39 236.587 2031.62 236.031 Q2028.86 235.476 2025.9 234.388 L2025.9 229.573 Q2028.75 231.17 2031.48 231.981 Q2034.21 232.791 2036.85 232.791 Q2040.85 232.791 2043.03 231.217 Q2045.2 229.643 2045.2 226.726 Q2045.2 224.18 2043.63 222.744 Q2042.08 221.309 2038.51 220.592 L2035.67 220.036 Q2030.44 218.995 2028.1 216.772 Q2025.76 214.55 2025.76 210.592 Q2025.76 206.008 2028.98 203.37 Q2032.22 200.731 2037.89 200.731 Q2040.32 200.731 2042.84 201.171 Q2045.37 201.61 2048 202.49 Z" fill="#000000" fill-rule="nonzero" fill-opacity="1" /><path clip-path="url(#clip900)" d="M2062.06 205.198 L2062.06 218.184 L2067.94 218.184 Q2071.2 218.184 2072.98 216.495 Q2074.76 214.805 2074.76 211.68 Q2074.76 208.578 2072.98 206.888 Q2071.2 205.198 2067.94 205.198 L2062.06 205.198 M2057.38 201.356 L2067.94 201.356 Q2073.75 201.356 2076.71 203.995 Q2079.69 206.61 2079.69 211.68 Q2079.69 216.795 2076.71 219.411 Q2073.75 222.027 2067.94 222.027 L2062.06 222.027 L2062.06 235.916 L2057.38 235.916 L2057.38 201.356 Z" fill="#000000" fill-rule="nonzero" fill-opacity="1" /><path clip-path="url(#clip900)" d="M2109.53 230.985 L2109.53 221.703 L2101.89 221.703 L2101.89 217.86 L2114.16 217.86 L2114.16 232.698 Q2111.45 234.619 2108.19 235.615 Q2104.93 236.587 2101.22 236.587 Q2093.12 236.587 2088.54 231.865 Q2083.98 227.119 2083.98 218.67 Q2083.98 210.198 2088.54 205.476 Q2093.12 200.731 2101.22 200.731 Q2104.6 200.731 2107.63 201.564 Q2110.69 202.397 2113.26 204.018 L2113.26 208.995 Q2110.67 206.796 2107.75 205.684 Q2104.83 204.573 2101.62 204.573 Q2095.27 204.573 2092.08 208.115 Q2088.91 211.657 2088.91 218.67 Q2088.91 225.661 2092.08 229.203 Q2095.27 232.744 2101.62 232.744 Q2104.09 232.744 2106.04 232.328 Q2107.98 231.888 2109.53 230.985 Z" fill="#000000" fill-rule="nonzero" fill-opacity="1" /><polyline clip-path="url(#clip900)" style="stroke:#e26f46; stroke-linecap:round; stroke-linejoin:round; stroke-width:4; stroke-opacity:1; fill:none" points="1772.84,270.476 1912.92,270.476 "/>
<path clip-path="url(#clip900)" d="M1936.27 253.196 L1940.95 253.196 L1940.95 283.821 L1957.77 283.821 L1957.77 287.756 L1936.27 287.756 L1936.27 253.196 Z" fill="#000000" fill-rule="nonzero" fill-opacity="1" /><path clip-path="url(#clip900)" d="M1962.68 253.196 L1969.65 253.196 L1978.47 276.714 L1987.33 253.196 L1994.3 253.196 L1994.3 287.756 L1989.74 287.756 L1989.74 257.409 L1980.83 281.112 L1976.13 281.112 L1967.22 257.409 L1967.22 287.756 L1962.68 287.756 L1962.68 253.196 Z" fill="#000000" fill-rule="nonzero" fill-opacity="1" /><path clip-path="url(#clip900)" d="M2023.1 295.626 L2023.1 298.936 L1998.47 298.936 L1998.47 295.626 L2023.1 295.626 Z" fill="#000000" fill-rule="nonzero" fill-opacity="1" /><path clip-path="url(#clip900)" d="M2038.84 257.802 L2032.5 275.001 L2045.2 275.001 L2038.84 257.802 M2036.2 253.196 L2041.5 253.196 L2054.67 287.756 L2049.81 287.756 L2046.66 278.89 L2031.08 278.89 L2027.94 287.756 L2023 287.756 L2036.2 253.196 Z" fill="#000000" fill-rule="nonzero" fill-opacity="1" /><path clip-path="url(#clip900)" d="M2081.08 272.108 L2081.08 287.756 L2076.82 287.756 L2076.82 272.247 Q2076.82 268.566 2075.39 266.737 Q2073.95 264.909 2071.08 264.909 Q2067.63 264.909 2065.64 267.108 Q2063.65 269.307 2063.65 273.103 L2063.65 287.756 L2059.37 287.756 L2059.37 261.83 L2063.65 261.83 L2063.65 265.858 Q2065.18 263.52 2067.24 262.362 Q2069.32 261.205 2072.03 261.205 Q2076.5 261.205 2078.79 263.983 Q2081.08 266.737 2081.08 272.108 Z" fill="#000000" fill-rule="nonzero" fill-opacity="1" /><path clip-path="url(#clip900)" d="M2106.64 265.765 L2106.64 251.737 L2110.9 251.737 L2110.9 287.756 L2106.64 287.756 L2106.64 283.867 Q2105.3 286.182 2103.24 287.316 Q2101.2 288.427 2098.33 288.427 Q2093.63 288.427 2090.67 284.677 Q2087.73 280.927 2087.73 274.816 Q2087.73 268.705 2090.67 264.955 Q2093.63 261.205 2098.33 261.205 Q2101.2 261.205 2103.24 262.339 Q2105.3 263.45 2106.64 265.765 M2092.12 274.816 Q2092.12 279.515 2094.05 282.2 Q2095.99 284.862 2099.37 284.862 Q2102.75 284.862 2104.69 282.2 Q2106.64 279.515 2106.64 274.816 Q2106.64 270.117 2104.69 267.455 Q2102.75 264.77 2099.37 264.77 Q2095.99 264.77 2094.05 267.455 Q2092.12 270.117 2092.12 274.816 Z" fill="#000000" fill-rule="nonzero" fill-opacity="1" /><path clip-path="url(#clip900)" d="M2134.69 265.811 Q2133.98 265.395 2133.12 265.21 Q2132.29 265.001 2131.27 265.001 Q2127.66 265.001 2125.71 267.362 Q2123.79 269.7 2123.79 274.098 L2123.79 287.756 L2119.51 287.756 L2119.51 261.83 L2123.79 261.83 L2123.79 265.858 Q2125.13 263.497 2127.29 262.362 Q2129.44 261.205 2132.52 261.205 Q2132.96 261.205 2133.49 261.274 Q2134.02 261.321 2134.67 261.436 L2134.69 265.811 Z" fill="#000000" fill-rule="nonzero" fill-opacity="1" /><path clip-path="url(#clip900)" d="M2160.3 273.728 L2160.3 275.811 L2140.71 275.811 Q2140.99 280.209 2143.35 282.524 Q2145.74 284.816 2149.97 284.816 Q2152.43 284.816 2154.72 284.214 Q2157.03 283.612 2159.3 282.409 L2159.3 286.436 Q2157.01 287.408 2154.6 287.918 Q2152.19 288.427 2149.72 288.427 Q2143.51 288.427 2139.88 284.816 Q2136.27 281.205 2136.27 275.047 Q2136.27 268.682 2139.69 264.955 Q2143.14 261.205 2148.98 261.205 Q2154.21 261.205 2157.24 264.585 Q2160.3 267.941 2160.3 273.728 M2156.04 272.478 Q2155.99 268.983 2154.07 266.899 Q2152.17 264.816 2149.02 264.816 Q2145.46 264.816 2143.31 266.83 Q2141.18 268.844 2140.85 272.501 L2156.04 272.478 Z" fill="#000000" fill-rule="nonzero" fill-opacity="1" /><path clip-path="url(#clip900)" d="M2167.29 261.83 L2171.55 261.83 L2171.55 287.756 L2167.29 287.756 L2167.29 261.83 M2167.29 251.737 L2171.55 251.737 L2171.55 257.131 L2167.29 257.131 L2167.29 251.737 Z" fill="#000000" fill-rule="nonzero" fill-opacity="1" /><path clip-path="url(#clip900)" d="M2200.16 295.626 L2200.16 298.936 L2175.53 298.936 L2175.53 295.626 L2200.16 295.626 Z" fill="#000000" fill-rule="nonzero" fill-opacity="1" /><path clip-path="url(#clip900)" d="M2215.94 274.723 Q2210.78 274.723 2208.79 275.904 Q2206.8 277.084 2206.8 279.932 Q2206.8 282.2 2208.28 283.543 Q2209.79 284.862 2212.36 284.862 Q2215.9 284.862 2218.03 282.362 Q2220.18 279.839 2220.18 275.672 L2220.18 274.723 L2215.94 274.723 M2224.44 272.964 L2224.44 287.756 L2220.18 287.756 L2220.18 283.821 Q2218.72 286.182 2216.55 287.316 Q2214.37 288.427 2211.22 288.427 Q2207.24 288.427 2204.88 286.205 Q2202.54 283.959 2202.54 280.209 Q2202.54 275.834 2205.46 273.612 Q2208.4 271.39 2214.21 271.39 L2220.18 271.39 L2220.18 270.973 Q2220.18 268.034 2218.24 266.436 Q2216.31 264.816 2212.82 264.816 Q2210.6 264.816 2208.49 265.348 Q2206.38 265.881 2204.44 266.946 L2204.44 263.01 Q2206.78 262.108 2208.98 261.668 Q2211.18 261.205 2213.26 261.205 Q2218.88 261.205 2221.66 264.122 Q2224.44 267.038 2224.44 272.964 Z" fill="#000000" fill-rule="nonzero" fill-opacity="1" /><path clip-path="url(#clip900)" d="M2233.21 251.737 L2237.47 251.737 L2237.47 287.756 L2233.21 287.756 L2233.21 251.737 Z" fill="#000000" fill-rule="nonzero" fill-opacity="1" /><path clip-path="url(#clip900)" d="M2250.6 254.469 L2250.6 261.83 L2259.37 261.83 L2259.37 265.14 L2250.6 265.14 L2250.6 279.214 Q2250.6 282.385 2251.45 283.288 Q2252.33 284.191 2254.99 284.191 L2259.37 284.191 L2259.37 287.756 L2254.99 287.756 Q2250.06 287.756 2248.19 285.927 Q2246.31 284.075 2246.31 279.214 L2246.31 265.14 L2243.19 265.14 L2243.19 261.83 L2246.31 261.83 L2246.31 254.469 L2250.6 254.469 Z" fill="#000000" fill-rule="nonzero" fill-opacity="1" /><polyline clip-path="url(#clip900)" style="stroke:#3da44d; stroke-linecap:round; stroke-linejoin:round; stroke-width:4; stroke-opacity:1; fill:none" points="1772.84,322.316 1912.92,322.316 "/>
<path clip-path="url(#clip900)" d="M1936.27 305.036 L1940.95 305.036 L1940.95 335.661 L1957.77 335.661 L1957.77 339.596 L1936.27 339.596 L1936.27 305.036 Z" fill="#000000" fill-rule="nonzero" fill-opacity="1" /><path clip-path="url(#clip900)" d="M1962.68 305.036 L1969.65 305.036 L1978.47 328.554 L1987.33 305.036 L1994.3 305.036 L1994.3 339.596 L1989.74 339.596 L1989.74 309.249 L1980.83 332.952 L1976.13 332.952 L1967.22 309.249 L1967.22 339.596 L1962.68 339.596 L1962.68 305.036 Z" fill="#000000" fill-rule="nonzero" fill-opacity="1" /><path clip-path="url(#clip900)" d="M2023.1 347.466 L2023.1 350.776 L1998.47 350.776 L1998.47 347.466 L2023.1 347.466 Z" fill="#000000" fill-rule="nonzero" fill-opacity="1" /><path clip-path="url(#clip900)" d="M2038.84 309.642 L2032.5 326.841 L2045.2 326.841 L2038.84 309.642 M2036.2 305.036 L2041.5 305.036 L2054.67 339.596 L2049.81 339.596 L2046.66 330.73 L2031.08 330.73 L2027.94 339.596 L2023 339.596 L2036.2 305.036 Z" fill="#000000" fill-rule="nonzero" fill-opacity="1" /><path clip-path="url(#clip900)" d="M2081.08 323.948 L2081.08 339.596 L2076.82 339.596 L2076.82 324.087 Q2076.82 320.406 2075.39 318.577 Q2073.95 316.749 2071.08 316.749 Q2067.63 316.749 2065.64 318.948 Q2063.65 321.147 2063.65 324.943 L2063.65 339.596 L2059.37 339.596 L2059.37 313.67 L2063.65 313.67 L2063.65 317.698 Q2065.18 315.36 2067.24 314.202 Q2069.32 313.045 2072.03 313.045 Q2076.5 313.045 2078.79 315.823 Q2081.08 318.577 2081.08 323.948 Z" fill="#000000" fill-rule="nonzero" fill-opacity="1" /><path clip-path="url(#clip900)" d="M2106.64 317.605 L2106.64 303.577 L2110.9 303.577 L2110.9 339.596 L2106.64 339.596 L2106.64 335.707 Q2105.3 338.022 2103.24 339.156 Q2101.2 340.267 2098.33 340.267 Q2093.63 340.267 2090.67 336.517 Q2087.73 332.767 2087.73 326.656 Q2087.73 320.545 2090.67 316.795 Q2093.63 313.045 2098.33 313.045 Q2101.2 313.045 2103.24 314.179 Q2105.3 315.29 2106.64 317.605 M2092.12 326.656 Q2092.12 331.355 2094.05 334.04 Q2095.99 336.702 2099.37 336.702 Q2102.75 336.702 2104.69 334.04 Q2106.64 331.355 2106.64 326.656 Q2106.64 321.957 2104.69 319.295 Q2102.75 316.61 2099.37 316.61 Q2095.99 316.61 2094.05 319.295 Q2092.12 321.957 2092.12 326.656 Z" fill="#000000" fill-rule="nonzero" fill-opacity="1" /><path clip-path="url(#clip900)" d="M2134.69 317.651 Q2133.98 317.235 2133.12 317.05 Q2132.29 316.841 2131.27 316.841 Q2127.66 316.841 2125.71 319.202 Q2123.79 321.54 2123.79 325.938 L2123.79 339.596 L2119.51 339.596 L2119.51 313.67 L2123.79 313.67 L2123.79 317.698 Q2125.13 315.337 2127.29 314.202 Q2129.44 313.045 2132.52 313.045 Q2132.96 313.045 2133.49 313.114 Q2134.02 313.161 2134.67 313.276 L2134.69 317.651 Z" fill="#000000" fill-rule="nonzero" fill-opacity="1" /><path clip-path="url(#clip900)" d="M2160.3 325.568 L2160.3 327.651 L2140.71 327.651 Q2140.99 332.049 2143.35 334.364 Q2145.74 336.656 2149.97 336.656 Q2152.43 336.656 2154.72 336.054 Q2157.03 335.452 2159.3 334.249 L2159.3 338.276 Q2157.01 339.248 2154.6 339.758 Q2152.19 340.267 2149.72 340.267 Q2143.51 340.267 2139.88 336.656 Q2136.27 333.045 2136.27 326.887 Q2136.27 320.522 2139.69 316.795 Q2143.14 313.045 2148.98 313.045 Q2154.21 313.045 2157.24 316.425 Q2160.3 319.781 2160.3 325.568 M2156.04 324.318 Q2155.99 320.823 2154.07 318.739 Q2152.17 316.656 2149.02 316.656 Q2145.46 316.656 2143.31 318.67 Q2141.18 320.684 2140.85 324.341 L2156.04 324.318 Z" fill="#000000" fill-rule="nonzero" fill-opacity="1" /><path clip-path="url(#clip900)" d="M2167.29 313.67 L2171.55 313.67 L2171.55 339.596 L2167.29 339.596 L2167.29 313.67 M2167.29 303.577 L2171.55 303.577 L2171.55 308.971 L2167.29 308.971 L2167.29 303.577 Z" fill="#000000" fill-rule="nonzero" fill-opacity="1" /><polyline clip-path="url(#clip900)" style="stroke:#c271d2; stroke-linecap:round; stroke-linejoin:round; stroke-width:4; stroke-opacity:1; fill:none" points="1772.84,374.156 1912.92,374.156 "/>
<path clip-path="url(#clip900)" d="M1936.27 356.876 L1940.95 356.876 L1940.95 387.501 L1957.77 387.501 L1957.77 391.436 L1936.27 391.436 L1936.27 356.876 Z" fill="#000000" fill-rule="nonzero" fill-opacity="1" /><path clip-path="url(#clip900)" d="M1962.68 356.876 L1969.65 356.876 L1978.47 380.394 L1987.33 356.876 L1994.3 356.876 L1994.3 391.436 L1989.74 391.436 L1989.74 361.089 L1980.83 384.792 L1976.13 384.792 L1967.22 361.089 L1967.22 391.436 L1962.68 391.436 L1962.68 356.876 Z" fill="#000000" fill-rule="nonzero" fill-opacity="1" /><path clip-path="url(#clip900)" d="M2023.1 399.306 L2023.1 402.616 L1998.47 402.616 L1998.47 399.306 L2023.1 399.306 Z" fill="#000000" fill-rule="nonzero" fill-opacity="1" /><path clip-path="url(#clip900)" d="M2048 358.01 L2048 362.57 Q2045.34 361.297 2042.98 360.672 Q2040.62 360.047 2038.42 360.047 Q2034.6 360.047 2032.52 361.528 Q2030.46 363.01 2030.46 365.741 Q2030.46 368.033 2031.82 369.214 Q2033.21 370.371 2037.06 371.089 L2039.88 371.667 Q2045.11 372.663 2047.59 375.186 Q2050.09 377.686 2050.09 381.899 Q2050.09 386.922 2046.71 389.514 Q2043.35 392.107 2036.85 392.107 Q2034.39 392.107 2031.62 391.551 Q2028.86 390.996 2025.9 389.908 L2025.9 385.093 Q2028.75 386.69 2031.48 387.501 Q2034.21 388.311 2036.85 388.311 Q2040.85 388.311 2043.03 386.737 Q2045.2 385.163 2045.2 382.246 Q2045.2 379.7 2043.63 378.264 Q2042.08 376.829 2038.51 376.112 L2035.67 375.556 Q2030.44 374.515 2028.1 372.292 Q2025.76 370.07 2025.76 366.112 Q2025.76 361.528 2028.98 358.89 Q2032.22 356.251 2037.89 356.251 Q2040.32 356.251 2042.84 356.691 Q2045.37 357.13 2048 358.01 Z" fill="#000000" fill-rule="nonzero" fill-opacity="1" /><path clip-path="url(#clip900)" d="M2062.06 360.718 L2062.06 373.704 L2067.94 373.704 Q2071.2 373.704 2072.98 372.015 Q2074.76 370.325 2074.76 367.2 Q2074.76 364.098 2072.98 362.408 Q2071.2 360.718 2067.94 360.718 L2062.06 360.718 M2057.38 356.876 L2067.94 356.876 Q2073.75 356.876 2076.71 359.515 Q2079.69 362.13 2079.69 367.2 Q2079.69 372.315 2076.71 374.931 Q2073.75 377.547 2067.94 377.547 L2062.06 377.547 L2062.06 391.436 L2057.38 391.436 L2057.38 356.876 Z" fill="#000000" fill-rule="nonzero" fill-opacity="1" /><path clip-path="url(#clip900)" d="M2109.53 386.505 L2109.53 377.223 L2101.89 377.223 L2101.89 373.38 L2114.16 373.38 L2114.16 388.218 Q2111.45 390.139 2108.19 391.135 Q2104.93 392.107 2101.22 392.107 Q2093.12 392.107 2088.54 387.385 Q2083.98 382.639 2083.98 374.19 Q2083.98 365.718 2088.54 360.996 Q2093.12 356.251 2101.22 356.251 Q2104.6 356.251 2107.63 357.084 Q2110.69 357.917 2113.26 359.538 L2113.26 364.515 Q2110.67 362.316 2107.75 361.204 Q2104.83 360.093 2101.62 360.093 Q2095.27 360.093 2092.08 363.635 Q2088.91 367.177 2088.91 374.19 Q2088.91 381.181 2092.08 384.723 Q2095.27 388.264 2101.62 388.264 Q2104.09 388.264 2106.04 387.848 Q2107.98 387.408 2109.53 386.505 Z" fill="#000000" fill-rule="nonzero" fill-opacity="1" /><path clip-path="url(#clip900)" d="M2142.22 399.306 L2142.22 402.616 L2117.59 402.616 L2117.59 399.306 L2142.22 399.306 Z" fill="#000000" fill-rule="nonzero" fill-opacity="1" /><path clip-path="url(#clip900)" d="M2158 378.403 Q2152.84 378.403 2150.85 379.584 Q2148.86 380.764 2148.86 383.612 Q2148.86 385.88 2150.34 387.223 Q2151.85 388.542 2154.42 388.542 Q2157.96 388.542 2160.09 386.042 Q2162.24 383.519 2162.24 379.352 L2162.24 378.403 L2158 378.403 M2166.5 376.644 L2166.5 391.436 L2162.24 391.436 L2162.24 387.501 Q2160.78 389.862 2158.61 390.996 Q2156.43 392.107 2153.28 392.107 Q2149.3 392.107 2146.94 389.885 Q2144.6 387.639 2144.6 383.889 Q2144.6 379.514 2147.52 377.292 Q2150.46 375.07 2156.27 375.07 L2162.24 375.07 L2162.24 374.653 Q2162.24 371.714 2160.3 370.116 Q2158.37 368.496 2154.88 368.496 Q2152.66 368.496 2150.55 369.028 Q2148.44 369.561 2146.5 370.626 L2146.5 366.69 Q2148.84 365.788 2151.04 365.348 Q2153.24 364.885 2155.32 364.885 Q2160.94 364.885 2163.72 367.802 Q2166.5 370.718 2166.5 376.644 Z" fill="#000000" fill-rule="nonzero" fill-opacity="1" /><path clip-path="url(#clip900)" d="M2175.27 355.417 L2179.53 355.417 L2179.53 391.436 L2175.27 391.436 L2175.27 355.417 Z" fill="#000000" fill-rule="nonzero" fill-opacity="1" /><path clip-path="url(#clip900)" d="M2192.66 358.149 L2192.66 365.51 L2201.43 365.51 L2201.43 368.82 L2192.66 368.82 L2192.66 382.894 Q2192.66 386.065 2193.51 386.968 Q2194.39 387.871 2197.05 387.871 L2201.43 387.871 L2201.43 391.436 L2197.05 391.436 Q2192.12 391.436 2190.25 389.607 Q2188.37 387.755 2188.37 382.894 L2188.37 368.82 L2185.25 368.82 L2185.25 365.51 L2188.37 365.51 L2188.37 358.149 L2192.66 358.149 Z" fill="#000000" fill-rule="nonzero" fill-opacity="1" /><polyline clip-path="url(#clip900)" style="stroke:#ac8d18; stroke-linecap:round; stroke-linejoin:round; stroke-width:4; stroke-opacity:1; fill:none" points="1772.84,425.996 1912.92,425.996 "/>
<path clip-path="url(#clip900)" d="M1936.27 408.716 L1940.95 408.716 L1940.95 439.341 L1957.77 439.341 L1957.77 443.276 L1936.27 443.276 L1936.27 408.716 Z" fill="#000000" fill-rule="nonzero" fill-opacity="1" /><path clip-path="url(#clip900)" d="M1962.68 408.716 L1969.65 408.716 L1978.47 432.234 L1987.33 408.716 L1994.3 408.716 L1994.3 443.276 L1989.74 443.276 L1989.74 412.929 L1980.83 436.632 L1976.13 436.632 L1967.22 412.929 L1967.22 443.276 L1962.68 443.276 L1962.68 408.716 Z" fill="#000000" fill-rule="nonzero" fill-opacity="1" /><path clip-path="url(#clip900)" d="M2023.1 451.146 L2023.1 454.456 L1998.47 454.456 L1998.47 451.146 L2023.1 451.146 Z" fill="#000000" fill-rule="nonzero" fill-opacity="1" /><path clip-path="url(#clip900)" d="M2031.32 409.989 L2031.32 417.35 L2040.09 417.35 L2040.09 420.66 L2031.32 420.66 L2031.32 434.734 Q2031.32 437.905 2032.17 438.808 Q2033.05 439.711 2035.71 439.711 L2040.09 439.711 L2040.09 443.276 L2035.71 443.276 Q2030.78 443.276 2028.91 441.447 Q2027.03 439.595 2027.03 434.734 L2027.03 420.66 L2023.91 420.66 L2023.91 417.35 L2027.03 417.35 L2027.03 409.989 L2031.32 409.989 Z" fill="#000000" fill-rule="nonzero" fill-opacity="1" /><path clip-path="url(#clip900)" d="M2067.87 429.248 L2067.87 431.331 L2048.28 431.331 Q2048.56 435.729 2050.92 438.044 Q2053.31 440.336 2057.54 440.336 Q2060 440.336 2062.29 439.734 Q2064.6 439.132 2066.87 437.929 L2066.87 441.956 Q2064.58 442.928 2062.17 443.438 Q2059.76 443.947 2057.29 443.947 Q2051.08 443.947 2047.45 440.336 Q2043.84 436.725 2043.84 430.567 Q2043.84 424.202 2047.26 420.475 Q2050.71 416.725 2056.55 416.725 Q2061.78 416.725 2064.81 420.105 Q2067.87 423.461 2067.87 429.248 M2063.61 427.998 Q2063.56 424.503 2061.64 422.419 Q2059.74 420.336 2056.59 420.336 Q2053.03 420.336 2050.88 422.35 Q2048.75 424.364 2048.42 428.021 L2063.61 427.998 Z" fill="#000000" fill-rule="nonzero" fill-opacity="1" /><path clip-path="url(#clip900)" d="M2091.38 418.114 L2091.38 422.142 Q2089.58 421.216 2087.63 420.753 Q2085.69 420.29 2083.61 420.29 Q2080.44 420.29 2078.84 421.262 Q2077.26 422.234 2077.26 424.179 Q2077.26 425.66 2078.4 426.517 Q2079.53 427.35 2082.96 428.114 L2084.42 428.438 Q2088.95 429.41 2090.85 431.192 Q2092.77 432.952 2092.77 436.123 Q2092.77 439.734 2089.9 441.841 Q2087.06 443.947 2082.06 443.947 Q2079.97 443.947 2077.7 443.53 Q2075.46 443.137 2072.96 442.327 L2072.96 437.929 Q2075.32 439.155 2077.61 439.78 Q2079.9 440.382 2082.15 440.382 Q2085.16 440.382 2086.78 439.364 Q2088.4 438.322 2088.4 436.447 Q2088.4 434.711 2087.22 433.785 Q2086.06 432.859 2082.1 432.003 L2080.62 431.655 Q2076.66 430.822 2074.9 429.109 Q2073.14 427.373 2073.14 424.364 Q2073.14 420.706 2075.74 418.716 Q2078.33 416.725 2083.1 416.725 Q2085.46 416.725 2087.54 417.072 Q2089.62 417.419 2091.38 418.114 Z" fill="#000000" fill-rule="nonzero" fill-opacity="1" /><path clip-path="url(#clip900)" d="M2103.77 409.989 L2103.77 417.35 L2112.54 417.35 L2112.54 420.66 L2103.77 420.66 L2103.77 434.734 Q2103.77 437.905 2104.62 438.808 Q2105.5 439.711 2108.17 439.711 L2112.54 439.711 L2112.54 443.276 L2108.17 443.276 Q2103.24 443.276 2101.36 441.447 Q2099.49 439.595 2099.49 434.734 L2099.49 420.66 L2096.36 420.66 L2096.36 417.35 L2099.49 417.35 L2099.49 409.989 L2103.77 409.989 Z" fill="#000000" fill-rule="nonzero" fill-opacity="1" /></svg>
