<?xml version="1.0" encoding="utf-8"?>
<svg xmlns="http://www.w3.org/2000/svg" xmlns:xlink="http://www.w3.org/1999/xlink" width="600" height="400" viewBox="0 0 2400 1600">
<defs>
  <clipPath id="clip890">
    <rect x="0" y="0" width="2400" height="1600"/>
  </clipPath>
</defs>
<path clip-path="url(#clip890)" d="M0 1600 L2400 1600 L2400 0 L0 0  Z" fill="#ffffff" fill-rule="evenodd" fill-opacity="1"/>
<defs>
  <clipPath id="clip891">
    <rect x="480" y="0" width="1681" height="1600"/>
  </clipPath>
</defs>
<path clip-path="url(#clip890)" d="M251.56 1423.18 L2352.76 1423.18 L2352.76 123.472 L251.56 123.472  Z" fill="#ffffff" fill-rule="evenodd" fill-opacity="1"/>
<defs>
  <clipPath id="clip892">
    <rect x="251" y="123" width="2102" height="1301"/>
  </clipPath>
</defs>
<polyline clip-path="url(#clip892)" style="stroke:#000000; stroke-linecap:round; stroke-linejoin:round; stroke-width:2; stroke-opacity:0.1; fill:none" points="308.061,1423.18 308.061,123.472 "/>
<polyline clip-path="url(#clip892)" style="stroke:#000000; stroke-linecap:round; stroke-linejoin:round; stroke-width:2; stroke-opacity:0.1; fill:none" points="604.806,1423.18 604.806,123.472 "/>
<polyline clip-path="url(#clip892)" style="stroke:#000000; stroke-linecap:round; stroke-linejoin:round; stroke-width:2; stroke-opacity:0.1; fill:none" points="901.552,1423.18 901.552,123.472 "/>
<polyline clip-path="url(#clip892)" style="stroke:#000000; stroke-linecap:round; stroke-linejoin:round; stroke-width:2; stroke-opacity:0.1; fill:none" points="1198.3,1423.18 1198.3,123.472 "/>
<polyline clip-path="url(#clip892)" style="stroke:#000000; stroke-linecap:round; stroke-linejoin:round; stroke-width:2; stroke-opacity:0.1; fill:none" points="1495.04,1423.18 1495.04,123.472 "/>
<polyline clip-path="url(#clip892)" style="stroke:#000000; stroke-linecap:round; stroke-linejoin:round; stroke-width:2; stroke-opacity:0.1; fill:none" points="1791.79,1423.18 1791.79,123.472 "/>
<polyline clip-path="url(#clip892)" style="stroke:#000000; stroke-linecap:round; stroke-linejoin:round; stroke-width:2; stroke-opacity:0.1; fill:none" points="2088.53,1423.18 2088.53,123.472 "/>
<polyline clip-path="url(#clip890)" style="stroke:#000000; stroke-linecap:round; stroke-linejoin:round; stroke-width:4; stroke-opacity:1; fill:none" points="251.56,1423.18 2352.76,1423.18 "/>
<polyline clip-path="url(#clip890)" style="stroke:#000000; stroke-linecap:round; stroke-linejoin:round; stroke-width:4; stroke-opacity:1; fill:none" points="308.061,1423.18 308.061,1404.28 "/>
<polyline clip-path="url(#clip890)" style="stroke:#000000; stroke-linecap:round; stroke-linejoin:round; stroke-width:4; stroke-opacity:1; fill:none" points="604.806,1423.18 604.806,1404.28 "/>
<polyline clip-path="url(#clip890)" style="stroke:#000000; stroke-linecap:round; stroke-linejoin:round; stroke-width:4; stroke-opacity:1; fill:none" points="901.552,1423.18 901.552,1404.28 "/>
<polyline clip-path="url(#clip890)" style="stroke:#000000; stroke-linecap:round; stroke-linejoin:round; stroke-width:4; stroke-opacity:1; fill:none" points="1198.3,1423.18 1198.3,1404.28 "/>
<polyline clip-path="url(#clip890)" style="stroke:#000000; stroke-linecap:round; stroke-linejoin:round; stroke-width:4; stroke-opacity:1; fill:none" points="1495.04,1423.18 1495.04,1404.28 "/>
<polyline clip-path="url(#clip890)" style="stroke:#000000; stroke-linecap:round; stroke-linejoin:round; stroke-width:4; stroke-opacity:1; fill:none" points="1791.79,1423.18 1791.79,1404.28 "/>
<polyline clip-path="url(#clip890)" style="stroke:#000000; stroke-linecap:round; stroke-linejoin:round; stroke-width:4; stroke-opacity:1; fill:none" points="2088.53,1423.18 2088.53,1404.28 "/>
<path clip-path="url(#clip890)" d="M308.061 1454.1 Q304.45 1454.1 302.621 1457.66 Q300.815 1461.2 300.815 1468.33 Q300.815 1475.44 302.621 1479.01 Q304.45 1482.55 308.061 1482.55 Q311.695 1482.55 313.5 1479.01 Q315.329 1475.44 315.329 1468.33 Q315.329 1461.2 313.5 1457.66 Q311.695 1454.1 308.061 1454.1 M308.061 1450.39 Q313.871 1450.39 316.926 1455 Q320.005 1459.58 320.005 1468.33 Q320.005 1477.06 316.926 1481.67 Q313.871 1486.25 308.061 1486.25 Q302.25 1486.25 299.172 1481.67 Q296.116 1477.06 296.116 1468.33 Q296.116 1459.58 299.172 1455 Q302.25 1450.39 308.061 1450.39 Z" fill="#000000" fill-rule="nonzero" fill-opacity="1" /><path clip-path="url(#clip890)" d="M564.413 1481.64 L572.052 1481.64 L572.052 1455.28 L563.742 1456.95 L563.742 1452.69 L572.005 1451.02 L576.681 1451.02 L576.681 1481.64 L584.32 1481.64 L584.32 1485.58 L564.413 1485.58 L564.413 1481.64 Z" fill="#000000" fill-rule="nonzero" fill-opacity="1" /><path clip-path="url(#clip890)" d="M603.764 1454.1 Q600.153 1454.1 598.325 1457.66 Q596.519 1461.2 596.519 1468.33 Q596.519 1475.44 598.325 1479.01 Q600.153 1482.55 603.764 1482.55 Q607.399 1482.55 609.204 1479.01 Q611.033 1475.44 611.033 1468.33 Q611.033 1461.2 609.204 1457.66 Q607.399 1454.1 603.764 1454.1 M603.764 1450.39 Q609.575 1450.39 612.63 1455 Q615.709 1459.58 615.709 1468.33 Q615.709 1477.06 612.63 1481.67 Q609.575 1486.25 603.764 1486.25 Q597.954 1486.25 594.876 1481.67 Q591.82 1477.06 591.82 1468.33 Q591.82 1459.58 594.876 1455 Q597.954 1450.39 603.764 1450.39 Z" fill="#000000" fill-rule="nonzero" fill-opacity="1" /><path clip-path="url(#clip890)" d="M633.926 1454.1 Q630.315 1454.1 628.487 1457.66 Q626.681 1461.2 626.681 1468.33 Q626.681 1475.44 628.487 1479.01 Q630.315 1482.55 633.926 1482.55 Q637.561 1482.55 639.366 1479.01 Q641.195 1475.44 641.195 1468.33 Q641.195 1461.2 639.366 1457.66 Q637.561 1454.1 633.926 1454.1 M633.926 1450.39 Q639.736 1450.39 642.792 1455 Q645.871 1459.58 645.871 1468.33 Q645.871 1477.06 642.792 1481.67 Q639.736 1486.25 633.926 1486.25 Q628.116 1486.25 625.037 1481.67 Q621.982 1477.06 621.982 1468.33 Q621.982 1459.58 625.037 1455 Q628.116 1450.39 633.926 1450.39 Z" fill="#000000" fill-rule="nonzero" fill-opacity="1" /><path clip-path="url(#clip890)" d="M865.244 1481.64 L881.563 1481.64 L881.563 1485.58 L859.619 1485.58 L859.619 1481.64 Q862.281 1478.89 866.864 1474.26 Q871.471 1469.61 872.651 1468.27 Q874.897 1465.74 875.776 1464.01 Q876.679 1462.25 876.679 1460.56 Q876.679 1457.8 874.735 1456.07 Q872.813 1454.33 869.712 1454.33 Q867.512 1454.33 865.059 1455.09 Q862.628 1455.86 859.85 1457.41 L859.85 1452.69 Q862.675 1451.55 865.128 1450.97 Q867.582 1450.39 869.619 1450.39 Q874.989 1450.39 878.184 1453.08 Q881.378 1455.77 881.378 1460.26 Q881.378 1462.39 880.568 1464.31 Q879.781 1466.2 877.674 1468.8 Q877.096 1469.47 873.994 1472.69 Q870.892 1475.88 865.244 1481.64 Z" fill="#000000" fill-rule="nonzero" fill-opacity="1" /><path clip-path="url(#clip890)" d="M901.378 1454.1 Q897.767 1454.1 895.938 1457.66 Q894.133 1461.2 894.133 1468.33 Q894.133 1475.44 895.938 1479.01 Q897.767 1482.55 901.378 1482.55 Q905.012 1482.55 906.818 1479.01 Q908.647 1475.44 908.647 1468.33 Q908.647 1461.2 906.818 1457.66 Q905.012 1454.1 901.378 1454.1 M901.378 1450.39 Q907.188 1450.39 910.244 1455 Q913.322 1459.58 913.322 1468.33 Q913.322 1477.06 910.244 1481.67 Q907.188 1486.25 901.378 1486.25 Q895.568 1486.25 892.489 1481.67 Q889.434 1477.06 889.434 1468.33 Q889.434 1459.58 892.489 1455 Q895.568 1450.39 901.378 1450.39 Z" fill="#000000" fill-rule="nonzero" fill-opacity="1" /><path clip-path="url(#clip890)" d="M931.54 1454.1 Q927.929 1454.1 926.1 1457.66 Q924.295 1461.2 924.295 1468.33 Q924.295 1475.44 926.1 1479.01 Q927.929 1482.55 931.54 1482.55 Q935.174 1482.55 936.98 1479.01 Q938.808 1475.44 938.808 1468.33 Q938.808 1461.2 936.98 1457.66 Q935.174 1454.1 931.54 1454.1 M931.54 1450.39 Q937.35 1450.39 940.406 1455 Q943.484 1459.58 943.484 1468.33 Q943.484 1477.06 940.406 1481.67 Q937.35 1486.25 931.54 1486.25 Q925.73 1486.25 922.651 1481.67 Q919.596 1477.06 919.596 1468.33 Q919.596 1459.58 922.651 1455 Q925.73 1450.39 931.54 1450.39 Z" fill="#000000" fill-rule="nonzero" fill-opacity="1" /><path clip-path="url(#clip890)" d="M1172.06 1466.95 Q1175.42 1467.66 1177.29 1469.93 Q1179.19 1472.2 1179.19 1475.53 Q1179.19 1480.65 1175.67 1483.45 Q1172.15 1486.25 1165.67 1486.25 Q1163.49 1486.25 1161.18 1485.81 Q1158.89 1485.39 1156.43 1484.54 L1156.43 1480.02 Q1158.38 1481.16 1160.69 1481.74 Q1163.01 1482.32 1165.53 1482.32 Q1169.93 1482.32 1172.22 1480.58 Q1174.54 1478.84 1174.54 1475.53 Q1174.54 1472.48 1172.38 1470.77 Q1170.25 1469.03 1166.43 1469.03 L1162.41 1469.03 L1162.41 1465.19 L1166.62 1465.19 Q1170.07 1465.19 1171.9 1463.82 Q1173.73 1462.43 1173.73 1459.84 Q1173.73 1457.18 1171.83 1455.77 Q1169.95 1454.33 1166.43 1454.33 Q1164.51 1454.33 1162.31 1454.75 Q1160.11 1455.16 1157.48 1456.04 L1157.48 1451.88 Q1160.14 1451.14 1162.45 1450.77 Q1164.79 1450.39 1166.85 1450.39 Q1172.17 1450.39 1175.28 1452.83 Q1178.38 1455.23 1178.38 1459.35 Q1178.38 1462.22 1176.73 1464.21 Q1175.09 1466.18 1172.06 1466.95 Z" fill="#000000" fill-rule="nonzero" fill-opacity="1" /><path clip-path="url(#clip890)" d="M1198.05 1454.1 Q1194.44 1454.1 1192.61 1457.66 Q1190.81 1461.2 1190.81 1468.33 Q1190.81 1475.44 1192.61 1479.01 Q1194.44 1482.55 1198.05 1482.55 Q1201.69 1482.55 1203.49 1479.01 Q1205.32 1475.44 1205.32 1468.33 Q1205.32 1461.2 1203.49 1457.66 Q1201.69 1454.1 1198.05 1454.1 M1198.05 1450.39 Q1203.86 1450.39 1206.92 1455 Q1210 1459.58 1210 1468.33 Q1210 1477.06 1206.92 1481.67 Q1203.86 1486.25 1198.05 1486.25 Q1192.24 1486.25 1189.17 1481.67 Q1186.11 1477.06 1186.11 1468.33 Q1186.11 1459.58 1189.17 1455 Q1192.24 1450.39 1198.05 1450.39 Z" fill="#000000" fill-rule="nonzero" fill-opacity="1" /><path clip-path="url(#clip890)" d="M1228.22 1454.1 Q1224.6 1454.1 1222.78 1457.66 Q1220.97 1461.2 1220.97 1468.33 Q1220.97 1475.44 1222.78 1479.01 Q1224.6 1482.55 1228.22 1482.55 Q1231.85 1482.55 1233.66 1479.01 Q1235.48 1475.44 1235.48 1468.33 Q1235.48 1461.2 1233.66 1457.66 Q1231.85 1454.1 1228.22 1454.1 M1228.22 1450.39 Q1234.03 1450.39 1237.08 1455 Q1240.16 1459.58 1240.16 1468.33 Q1240.16 1477.06 1237.08 1481.67 Q1234.03 1486.25 1228.22 1486.25 Q1222.41 1486.25 1219.33 1481.67 Q1216.27 1477.06 1216.27 1468.33 Q1216.27 1459.58 1219.33 1455 Q1222.41 1450.39 1228.22 1450.39 Z" fill="#000000" fill-rule="nonzero" fill-opacity="1" /><path clip-path="url(#clip890)" d="M1468.13 1455.09 L1456.33 1473.54 L1468.13 1473.54 L1468.13 1455.09 M1466.91 1451.02 L1472.79 1451.02 L1472.79 1473.54 L1477.72 1473.54 L1477.72 1477.43 L1472.79 1477.43 L1472.79 1485.58 L1468.13 1485.58 L1468.13 1477.43 L1452.53 1477.43 L1452.53 1472.92 L1466.91 1451.02 Z" fill="#000000" fill-rule="nonzero" fill-opacity="1" /><path clip-path="url(#clip890)" d="M1495.45 1454.1 Q1491.84 1454.1 1490.01 1457.66 Q1488.2 1461.2 1488.2 1468.33 Q1488.2 1475.44 1490.01 1479.01 Q1491.84 1482.55 1495.45 1482.55 Q1499.08 1482.55 1500.89 1479.01 Q1502.72 1475.44 1502.72 1468.33 Q1502.72 1461.2 1500.89 1457.66 Q1499.08 1454.1 1495.45 1454.1 M1495.45 1450.39 Q1501.26 1450.39 1504.31 1455 Q1507.39 1459.58 1507.39 1468.33 Q1507.39 1477.06 1504.31 1481.67 Q1501.26 1486.25 1495.45 1486.25 Q1489.64 1486.25 1486.56 1481.67 Q1483.5 1477.06 1483.5 1468.33 Q1483.5 1459.58 1486.56 1455 Q1489.64 1450.39 1495.45 1450.39 Z" fill="#000000" fill-rule="nonzero" fill-opacity="1" /><path clip-path="url(#clip890)" d="M1525.61 1454.1 Q1522 1454.1 1520.17 1457.66 Q1518.36 1461.2 1518.36 1468.33 Q1518.36 1475.44 1520.17 1479.01 Q1522 1482.55 1525.61 1482.55 Q1529.24 1482.55 1531.05 1479.01 Q1532.88 1475.44 1532.88 1468.33 Q1532.88 1461.2 1531.05 1457.66 Q1529.24 1454.1 1525.61 1454.1 M1525.61 1450.39 Q1531.42 1450.39 1534.48 1455 Q1537.55 1459.58 1537.55 1468.33 Q1537.55 1477.06 1534.48 1481.67 Q1531.42 1486.25 1525.61 1486.25 Q1519.8 1486.25 1516.72 1481.67 Q1513.67 1477.06 1513.67 1468.33 Q1513.67 1459.58 1516.72 1455 Q1519.8 1450.39 1525.61 1450.39 Z" fill="#000000" fill-rule="nonzero" fill-opacity="1" /><path clip-path="url(#clip890)" d="M1751.41 1451.02 L1769.76 1451.02 L1769.76 1454.96 L1755.69 1454.96 L1755.69 1463.43 Q1756.71 1463.08 1757.73 1462.92 Q1758.74 1462.73 1759.76 1462.73 Q1765.55 1462.73 1768.93 1465.9 Q1772.31 1469.08 1772.31 1474.49 Q1772.31 1480.07 1768.84 1483.17 Q1765.36 1486.25 1759.05 1486.25 Q1756.87 1486.25 1754.6 1485.88 Q1752.36 1485.51 1749.95 1484.77 L1749.95 1480.07 Q1752.03 1481.2 1754.25 1481.76 Q1756.48 1482.32 1758.95 1482.32 Q1762.96 1482.32 1765.3 1480.21 Q1767.63 1478.1 1767.63 1474.49 Q1767.63 1470.88 1765.3 1468.77 Q1762.96 1466.67 1758.95 1466.67 Q1757.08 1466.67 1755.2 1467.08 Q1753.35 1467.5 1751.41 1468.38 L1751.41 1451.02 Z" fill="#000000" fill-rule="nonzero" fill-opacity="1" /><path clip-path="url(#clip890)" d="M1791.52 1454.1 Q1787.91 1454.1 1786.08 1457.66 Q1784.28 1461.2 1784.28 1468.33 Q1784.28 1475.44 1786.08 1479.01 Q1787.91 1482.55 1791.52 1482.55 Q1795.16 1482.55 1796.96 1479.01 Q1798.79 1475.44 1798.79 1468.33 Q1798.79 1461.2 1796.96 1457.66 Q1795.16 1454.1 1791.52 1454.1 M1791.52 1450.39 Q1797.33 1450.39 1800.39 1455 Q1803.47 1459.58 1803.47 1468.33 Q1803.47 1477.06 1800.39 1481.67 Q1797.33 1486.25 1791.52 1486.25 Q1785.71 1486.25 1782.63 1481.67 Q1779.58 1477.06 1779.58 1468.33 Q1779.58 1459.58 1782.63 1455 Q1785.71 1450.39 1791.52 1450.39 Z" fill="#000000" fill-rule="nonzero" fill-opacity="1" /><path clip-path="url(#clip890)" d="M1821.68 1454.1 Q1818.07 1454.1 1816.24 1457.66 Q1814.44 1461.2 1814.44 1468.33 Q1814.44 1475.44 1816.24 1479.01 Q1818.07 1482.55 1821.68 1482.55 Q1825.32 1482.55 1827.12 1479.01 Q1828.95 1475.44 1828.95 1468.33 Q1828.95 1461.2 1827.12 1457.66 Q1825.32 1454.1 1821.68 1454.1 M1821.68 1450.39 Q1827.49 1450.39 1830.55 1455 Q1833.63 1459.58 1833.63 1468.33 Q1833.63 1477.06 1830.55 1481.67 Q1827.49 1486.25 1821.68 1486.25 Q1815.87 1486.25 1812.8 1481.67 Q1809.74 1477.06 1809.74 1468.33 Q1809.74 1459.58 1812.8 1455 Q1815.87 1450.39 1821.68 1450.39 Z" fill="#000000" fill-rule="nonzero" fill-opacity="1" /><path clip-path="url(#clip890)" d="M2058.86 1466.44 Q2055.71 1466.44 2053.86 1468.59 Q2052.03 1470.74 2052.03 1474.49 Q2052.03 1478.22 2053.86 1480.39 Q2055.71 1482.55 2058.86 1482.55 Q2062.01 1482.55 2063.83 1480.39 Q2065.69 1478.22 2065.69 1474.49 Q2065.69 1470.74 2063.83 1468.59 Q2062.01 1466.44 2058.86 1466.44 M2068.14 1451.78 L2068.14 1456.04 Q2066.38 1455.21 2064.58 1454.77 Q2062.79 1454.33 2061.03 1454.33 Q2056.4 1454.33 2053.95 1457.45 Q2051.52 1460.58 2051.17 1466.9 Q2052.54 1464.89 2054.6 1463.82 Q2056.66 1462.73 2059.14 1462.73 Q2064.34 1462.73 2067.35 1465.9 Q2070.39 1469.05 2070.39 1474.49 Q2070.39 1479.82 2067.24 1483.03 Q2064.09 1486.25 2058.86 1486.25 Q2052.86 1486.25 2049.69 1481.67 Q2046.52 1477.06 2046.52 1468.33 Q2046.52 1460.14 2050.41 1455.28 Q2054.3 1450.39 2060.85 1450.39 Q2062.61 1450.39 2064.39 1450.74 Q2066.2 1451.09 2068.14 1451.78 Z" fill="#000000" fill-rule="nonzero" fill-opacity="1" /><path clip-path="url(#clip890)" d="M2088.44 1454.1 Q2084.83 1454.1 2083 1457.66 Q2081.2 1461.2 2081.2 1468.33 Q2081.2 1475.44 2083 1479.01 Q2084.83 1482.55 2088.44 1482.55 Q2092.08 1482.55 2093.88 1479.01 Q2095.71 1475.44 2095.71 1468.33 Q2095.71 1461.2 2093.88 1457.66 Q2092.08 1454.1 2088.44 1454.1 M2088.44 1450.39 Q2094.25 1450.39 2097.31 1455 Q2100.39 1459.58 2100.39 1468.33 Q2100.39 1477.06 2097.31 1481.67 Q2094.25 1486.25 2088.44 1486.25 Q2082.63 1486.25 2079.55 1481.67 Q2076.5 1477.06 2076.5 1468.33 Q2076.5 1459.58 2079.55 1455 Q2082.63 1450.39 2088.44 1450.39 Z" fill="#000000" fill-rule="nonzero" fill-opacity="1" /><path clip-path="url(#clip890)" d="M2118.6 1454.1 Q2114.99 1454.1 2113.16 1457.66 Q2111.36 1461.2 2111.36 1468.33 Q2111.36 1475.44 2113.16 1479.01 Q2114.99 1482.55 2118.6 1482.55 Q2122.24 1482.55 2124.04 1479.01 Q2125.87 1475.44 2125.87 1468.33 Q2125.87 1461.2 2124.04 1457.66 Q2122.24 1454.1 2118.6 1454.1 M2118.6 1450.39 Q2124.41 1450.39 2127.47 1455 Q2130.55 1459.58 2130.55 1468.33 Q2130.55 1477.06 2127.47 1481.67 Q2124.41 1486.25 2118.6 1486.25 Q2112.79 1486.25 2109.71 1481.67 Q2106.66 1477.06 2106.66 1468.33 Q2106.66 1459.58 2109.71 1455 Q2112.79 1450.39 2118.6 1450.39 Z" fill="#000000" fill-rule="nonzero" fill-opacity="1" /><path clip-path="url(#clip890)" d="M1286.34 1518.52 L1292.23 1518.52 L1292.23 1547.77 L1309.7 1532.4 L1317.18 1532.4 L1298.27 1549.07 L1317.98 1568.04 L1310.34 1568.04 L1292.23 1550.63 L1292.23 1568.04 L1286.34 1568.04 L1286.34 1518.52 Z" fill="#000000" fill-rule="nonzero" fill-opacity="1" /><polyline clip-path="url(#clip892)" style="stroke:#000000; stroke-linecap:round; stroke-linejoin:round; stroke-width:2; stroke-opacity:0.1; fill:none" points="251.56,1206.35 2352.76,1206.35 "/>
<polyline clip-path="url(#clip892)" style="stroke:#000000; stroke-linecap:round; stroke-linejoin:round; stroke-width:2; stroke-opacity:0.1; fill:none" points="251.56,393.818 2352.76,393.818 "/>
<polyline clip-path="url(#clip890)" style="stroke:#000000; stroke-linecap:round; stroke-linejoin:round; stroke-width:4; stroke-opacity:1; fill:none" points="251.56,1423.18 251.56,123.472 "/>
<polyline clip-path="url(#clip890)" style="stroke:#000000; stroke-linecap:round; stroke-linejoin:round; stroke-width:4; stroke-opacity:1; fill:none" points="251.56,1206.35 270.458,1206.35 "/>
<polyline clip-path="url(#clip890)" style="stroke:#000000; stroke-linecap:round; stroke-linejoin:round; stroke-width:4; stroke-opacity:1; fill:none" points="251.56,393.818 270.458,393.818 "/>
<path clip-path="url(#clip890)" d="M114.931 1226.14 L122.57 1226.14 L122.57 1199.77 L114.26 1201.44 L114.26 1197.18 L122.524 1195.51 L127.2 1195.51 L127.2 1226.14 L134.839 1226.14 L134.839 1230.07 L114.931 1230.07 L114.931 1226.14 Z" fill="#000000" fill-rule="nonzero" fill-opacity="1" /><path clip-path="url(#clip890)" d="M154.283 1198.59 Q150.672 1198.59 148.843 1202.16 Q147.038 1205.7 147.038 1212.83 Q147.038 1219.93 148.843 1223.5 Q150.672 1227.04 154.283 1227.04 Q157.917 1227.04 159.723 1223.5 Q161.552 1219.93 161.552 1212.83 Q161.552 1205.7 159.723 1202.16 Q157.917 1198.59 154.283 1198.59 M154.283 1194.89 Q160.093 1194.89 163.149 1199.49 Q166.227 1204.08 166.227 1212.83 Q166.227 1221.55 163.149 1226.16 Q160.093 1230.74 154.283 1230.74 Q148.473 1230.74 145.394 1226.16 Q142.339 1221.55 142.339 1212.83 Q142.339 1204.08 145.394 1199.49 Q148.473 1194.89 154.283 1194.89 Z" fill="#000000" fill-rule="nonzero" fill-opacity="1" /><path clip-path="url(#clip890)" d="M166.227 1188.99 L190.339 1188.99 L190.339 1192.19 L166.227 1192.19 L166.227 1188.99 Z" fill="#000000" fill-rule="nonzero" fill-opacity="1" /><path clip-path="url(#clip890)" d="M198.577 1174.58 L213.491 1174.58 L213.491 1177.78 L202.056 1177.78 L202.056 1184.66 Q202.884 1184.38 203.711 1184.25 Q204.539 1184.1 205.366 1184.1 Q210.068 1184.1 212.814 1186.68 Q215.56 1189.25 215.56 1193.65 Q215.56 1198.19 212.739 1200.71 Q209.918 1203.21 204.783 1203.21 Q203.015 1203.21 201.172 1202.91 Q199.348 1202.61 197.392 1202 L197.392 1198.19 Q199.085 1199.11 200.89 1199.56 Q202.696 1200.01 204.708 1200.01 Q207.962 1200.01 209.861 1198.3 Q211.761 1196.59 211.761 1193.65 Q211.761 1190.72 209.861 1189.01 Q207.962 1187.3 204.708 1187.3 Q203.185 1187.3 201.661 1187.64 Q200.157 1187.97 198.577 1188.69 L198.577 1174.58 Z" fill="#000000" fill-rule="nonzero" fill-opacity="1" /><path clip-path="url(#clip890)" d="M144.855 413.61 L152.493 413.61 L152.493 387.245 L144.183 388.911 L144.183 384.652 L152.447 382.985 L157.123 382.985 L157.123 413.61 L164.762 413.61 L164.762 417.545 L144.855 417.545 L144.855 413.61 Z" fill="#000000" fill-rule="nonzero" fill-opacity="1" /><path clip-path="url(#clip890)" d="M184.206 386.064 Q180.595 386.064 178.766 389.629 Q176.961 393.171 176.961 400.3 Q176.961 407.407 178.766 410.971 Q180.595 414.513 184.206 414.513 Q187.84 414.513 189.646 410.971 Q191.475 407.407 191.475 400.3 Q191.475 393.171 189.646 389.629 Q187.84 386.064 184.206 386.064 M184.206 382.36 Q190.016 382.36 193.072 386.967 Q196.151 391.55 196.151 400.3 Q196.151 409.027 193.072 413.633 Q190.016 418.217 184.206 418.217 Q178.396 418.217 175.317 413.633 Q172.262 409.027 172.262 400.3 Q172.262 391.55 175.317 386.967 Q178.396 382.36 184.206 382.36 Z" fill="#000000" fill-rule="nonzero" fill-opacity="1" /><path clip-path="url(#clip890)" d="M205.855 364.556 Q202.921 364.556 201.436 367.453 Q199.969 370.33 199.969 376.123 Q199.969 381.897 201.436 384.794 Q202.921 387.671 205.855 387.671 Q208.808 387.671 210.275 384.794 Q211.761 381.897 211.761 376.123 Q211.761 370.33 210.275 367.453 Q208.808 364.556 205.855 364.556 M205.855 361.547 Q210.576 361.547 213.059 365.29 Q215.56 369.014 215.56 376.123 Q215.56 383.214 213.059 386.956 Q210.576 390.68 205.855 390.68 Q201.135 390.68 198.633 386.956 Q196.151 383.214 196.151 376.123 Q196.151 369.014 198.633 365.29 Q201.135 361.547 205.855 361.547 Z" fill="#000000" fill-rule="nonzero" fill-opacity="1" /><path clip-path="url(#clip890)" d="M32.4621 801.797 Q32.4621 806.507 36.1542 809.244 Q39.8145 811.982 46.212 811.982 Q52.6095 811.982 56.3017 809.276 Q59.9619 806.539 59.9619 801.797 Q59.9619 797.118 56.2698 794.381 Q52.5777 791.643 46.212 791.643 Q39.8781 791.643 36.186 794.381 Q32.4621 797.118 32.4621 801.797 M27.4968 801.797 Q27.4968 794.158 32.4621 789.797 Q37.4273 785.437 46.212 785.437 Q54.9649 785.437 59.9619 789.797 Q64.9272 794.158 64.9272 801.797 Q64.9272 809.467 59.9619 813.828 Q54.9649 818.156 46.212 818.156 Q37.4273 818.156 32.4621 813.828 Q27.4968 809.467 27.4968 801.797 Z" fill="#000000" fill-rule="nonzero" fill-opacity="1" /><path clip-path="url(#clip890)" d="M46.212 750.139 Q39.7508 750.139 36.0905 752.812 Q32.3984 755.454 32.3984 760.101 Q32.3984 764.748 36.0905 767.422 Q39.7508 770.064 46.212 770.064 Q52.6732 770.064 56.3653 767.422 Q60.0256 764.748 60.0256 760.101 Q60.0256 755.454 56.3653 752.812 Q52.6732 750.139 46.212 750.139 M33.7671 770.064 Q30.5842 768.218 29.0564 765.417 Q27.4968 762.584 27.4968 758.669 Q27.4968 752.176 32.6531 748.134 Q37.8093 744.06 46.212 744.06 Q54.6147 744.06 59.771 748.134 Q64.9272 752.176 64.9272 758.669 Q64.9272 762.584 63.3994 765.417 Q61.8398 768.218 58.657 770.064 L64.0042 770.064 L64.0042 775.952 L14.479 775.952 L14.479 770.064 L33.7671 770.064 Z" fill="#000000" fill-rule="nonzero" fill-opacity="1" /><path clip-path="url(#clip890)" d="M28.3562 734.352 L28.3562 728.495 L64.6407 728.495 Q71.452 728.495 74.5076 731.105 Q77.5631 733.684 77.5631 739.445 L77.5631 741.673 L72.5979 741.673 L72.5979 740.113 Q72.5979 736.771 71.0383 735.561 Q69.5105 734.352 64.6407 734.352 L28.3562 734.352 M14.479 734.352 L14.479 728.495 L21.895 728.495 L21.895 734.352 L14.479 734.352 Z" fill="#000000" fill-rule="nonzero" fill-opacity="1" /><path clip-path="url(#clip890)" d="M957.973 65.7705 L957.973 89.8329 L950.479 89.8329 L950.479 27.2059 L957.973 27.2059 L957.973 34.0924 Q960.323 30.0415 963.887 28.0971 Q967.493 26.1121 972.475 26.1121 Q980.739 26.1121 985.884 32.6746 Q991.069 39.2371 991.069 49.9314 Q991.069 60.6258 985.884 67.1883 Q980.739 73.7508 972.475 73.7508 Q967.493 73.7508 963.887 71.8063 Q960.323 69.8214 957.973 65.7705 M983.332 49.9314 Q983.332 41.7081 979.929 37.0496 Q976.567 32.3505 970.652 32.3505 Q964.738 32.3505 961.335 37.0496 Q957.973 41.7081 957.973 49.9314 Q957.973 58.1548 961.335 62.8538 Q964.738 67.5124 970.652 67.5124 Q976.567 67.5124 979.929 62.8538 Q983.332 58.1548 983.332 49.9314 Z" fill="#000000" fill-rule="nonzero" fill-opacity="1" /><path clip-path="url(#clip890)" d="M1029.71 34.1734 Q1028.46 33.4443 1026.96 33.1202 Q1025.5 32.7556 1023.72 32.7556 Q1017.4 32.7556 1014 36.8875 Q1010.63 40.9789 1010.63 48.6757 L1010.63 72.576 L1003.14 72.576 L1003.14 27.2059 L1010.63 27.2059 L1010.63 34.2544 Q1012.98 30.1225 1016.75 28.1376 Q1020.52 26.1121 1025.91 26.1121 Q1026.68 26.1121 1027.61 26.2337 Q1028.54 26.3147 1029.67 26.5172 L1029.71 34.1734 Z" fill="#000000" fill-rule="nonzero" fill-opacity="1" /><path clip-path="url(#clip890)" d="M1053.29 32.4315 Q1047.3 32.4315 1043.81 37.1306 Q1040.33 41.7891 1040.33 49.9314 Q1040.33 58.0738 1043.77 62.7728 Q1047.25 67.4314 1053.29 67.4314 Q1059.25 67.4314 1062.73 62.7323 Q1066.21 58.0333 1066.21 49.9314 Q1066.21 41.8701 1062.73 37.1711 Q1059.25 32.4315 1053.29 32.4315 M1053.29 26.1121 Q1063.01 26.1121 1068.56 32.4315 Q1074.11 38.7509 1074.11 49.9314 Q1074.11 61.0714 1068.56 67.4314 Q1063.01 73.7508 1053.29 73.7508 Q1043.53 73.7508 1037.98 67.4314 Q1032.47 61.0714 1032.47 49.9314 Q1032.47 38.7509 1037.98 32.4315 Q1043.53 26.1121 1053.29 26.1121 Z" fill="#000000" fill-rule="nonzero" fill-opacity="1" /><path clip-path="url(#clip890)" d="M1119.04 49.9314 Q1119.04 41.7081 1115.63 37.0496 Q1112.27 32.3505 1106.36 32.3505 Q1100.44 32.3505 1097.04 37.0496 Q1093.68 41.7081 1093.68 49.9314 Q1093.68 58.1548 1097.04 62.8538 Q1100.44 67.5124 1106.36 67.5124 Q1112.27 67.5124 1115.63 62.8538 Q1119.04 58.1548 1119.04 49.9314 M1093.68 34.0924 Q1096.03 30.0415 1099.59 28.0971 Q1103.2 26.1121 1108.18 26.1121 Q1116.44 26.1121 1121.59 32.6746 Q1126.77 39.2371 1126.77 49.9314 Q1126.77 60.6258 1121.59 67.1883 Q1116.44 73.7508 1108.18 73.7508 Q1103.2 73.7508 1099.59 71.8063 Q1096.03 69.8214 1093.68 65.7705 L1093.68 72.576 L1086.18 72.576 L1086.18 9.54393 L1093.68 9.54393 L1093.68 34.0924 Z" fill="#000000" fill-rule="nonzero" fill-opacity="1" /><path clip-path="url(#clip890)" d="M1139.13 9.54393 L1146.58 9.54393 L1146.58 72.576 L1139.13 72.576 L1139.13 9.54393 Z" fill="#000000" fill-rule="nonzero" fill-opacity="1" /><path clip-path="url(#clip890)" d="M1200.99 48.0275 L1200.99 51.6733 L1166.72 51.6733 Q1167.2 59.3701 1171.33 63.421 Q1175.51 67.4314 1182.92 67.4314 Q1187.21 67.4314 1191.22 66.3781 Q1195.27 65.3249 1199.24 63.2184 L1199.24 70.267 Q1195.23 71.9684 1191.02 72.8596 Q1186.81 73.7508 1182.47 73.7508 Q1171.62 73.7508 1165.26 67.4314 Q1158.94 61.1119 1158.94 50.3365 Q1158.94 39.1965 1164.93 32.6746 Q1170.97 26.1121 1181.18 26.1121 Q1190.33 26.1121 1195.64 32.0264 Q1200.99 37.9003 1200.99 48.0275 M1193.53 45.84 Q1193.45 39.7232 1190.09 36.0774 Q1186.77 32.4315 1181.26 32.4315 Q1175.02 32.4315 1171.25 35.9558 Q1167.53 39.4801 1166.96 45.8805 L1193.53 45.84 M1174.86 6.22219 L1186.28 21.3726 L1180.08 21.3726 L1166.88 6.22219 L1174.86 6.22219 Z" fill="#000000" fill-rule="nonzero" fill-opacity="1" /><path clip-path="url(#clip890)" d="M1248.54 35.9153 Q1251.34 30.8922 1255.23 28.5022 Q1259.12 26.1121 1264.38 26.1121 Q1271.47 26.1121 1275.32 31.0947 Q1279.17 36.0368 1279.17 45.1919 L1279.17 72.576 L1271.68 72.576 L1271.68 45.4349 Q1271.68 38.913 1269.37 35.7533 Q1267.06 32.5936 1262.32 32.5936 Q1256.52 32.5936 1253.16 36.4419 Q1249.8 40.2903 1249.8 46.9338 L1249.8 72.576 L1242.31 72.576 L1242.31 45.4349 Q1242.31 38.8725 1240 35.7533 Q1237.69 32.5936 1232.87 32.5936 Q1227.16 32.5936 1223.79 36.4824 Q1220.43 40.3308 1220.43 46.9338 L1220.43 72.576 L1212.94 72.576 L1212.94 27.2059 L1220.43 27.2059 L1220.43 34.2544 Q1222.98 30.082 1226.55 28.0971 Q1230.11 26.1121 1235.01 26.1121 Q1239.96 26.1121 1243.4 28.6237 Q1246.88 31.1352 1248.54 35.9153 Z" fill="#000000" fill-rule="nonzero" fill-opacity="1" /><path clip-path="url(#clip890)" d="M1332.84 48.0275 L1332.84 51.6733 L1298.57 51.6733 Q1299.06 59.3701 1303.19 63.421 Q1307.36 67.4314 1314.78 67.4314 Q1319.07 67.4314 1323.08 66.3781 Q1327.13 65.3249 1331.1 63.2184 L1331.1 70.267 Q1327.09 71.9684 1322.88 72.8596 Q1318.67 73.7508 1314.33 73.7508 Q1303.47 73.7508 1297.11 67.4314 Q1290.8 61.1119 1290.8 50.3365 Q1290.8 39.1965 1296.79 32.6746 Q1302.83 26.1121 1313.03 26.1121 Q1322.19 26.1121 1327.5 32.0264 Q1332.84 37.9003 1332.84 48.0275 M1325.39 45.84 Q1325.31 39.7232 1321.95 36.0774 Q1318.63 32.4315 1313.12 32.4315 Q1306.88 32.4315 1303.11 35.9558 Q1299.38 39.4801 1298.82 45.8805 L1325.39 45.84 Z" fill="#000000" fill-rule="nonzero" fill-opacity="1" /><path clip-path="url(#clip890)" d="M1373.35 62.2867 L1381.9 62.2867 L1381.9 72.576 L1373.35 72.576 L1373.35 62.2867 M1373.35 29.6769 L1381.9 29.6769 L1381.9 39.9662 L1373.35 39.9662 L1373.35 29.6769 Z" fill="#000000" fill-rule="nonzero" fill-opacity="1" /><path clip-path="url(#clip890)" d="M1433.14 14.324 L1433.14 27.2059 L1448.5 27.2059 L1448.5 32.9987 L1433.14 32.9987 L1433.14 57.6282 Q1433.14 63.1779 1434.64 64.7578 Q1436.18 66.3376 1440.84 66.3376 L1448.5 66.3376 L1448.5 72.576 L1440.84 72.576 Q1432.21 72.576 1428.93 69.3758 Q1425.65 66.1351 1425.65 57.6282 L1425.65 32.9987 L1420.18 32.9987 L1420.18 27.2059 L1425.65 27.2059 L1425.65 14.324 L1433.14 14.324 Z" fill="#000000" fill-rule="nonzero" fill-opacity="1" /><path clip-path="url(#clip890)" d="M1465.51 65.7705 L1465.51 89.8329 L1458.02 89.8329 L1458.02 27.2059 L1465.51 27.2059 L1465.51 34.0924 Q1467.86 30.0415 1471.43 28.0971 Q1475.03 26.1121 1480.01 26.1121 Q1488.28 26.1121 1493.42 32.6746 Q1498.61 39.2371 1498.61 49.9314 Q1498.61 60.6258 1493.42 67.1883 Q1488.28 73.7508 1480.01 73.7508 Q1475.03 73.7508 1471.43 71.8063 Q1467.86 69.8214 1465.51 65.7705 M1490.87 49.9314 Q1490.87 41.7081 1487.47 37.0496 Q1484.1 32.3505 1478.19 32.3505 Q1472.28 32.3505 1468.87 37.0496 Q1465.51 41.7081 1465.51 49.9314 Q1465.51 58.1548 1468.87 62.8538 Q1472.28 67.5124 1478.19 67.5124 Q1484.1 67.5124 1487.47 62.8538 Q1490.87 58.1548 1490.87 49.9314 Z" fill="#000000" fill-rule="nonzero" fill-opacity="1" /><path clip-path="url(#clip890)" d="M1519.06 65.6895 L1547.62 65.6895 L1547.62 72.576 L1509.22 72.576 L1509.22 65.6895 Q1513.88 60.8689 1521.9 52.7671 Q1529.96 44.6248 1532.03 42.2752 Q1535.96 37.8598 1537.5 34.8216 Q1539.08 31.7429 1539.08 28.7857 Q1539.08 23.9651 1535.67 20.927 Q1532.31 17.8888 1526.88 17.8888 Q1523.03 17.8888 1518.74 19.2256 Q1514.49 20.5624 1509.63 23.2765 L1509.63 15.0127 Q1514.57 13.0277 1518.86 12.015 Q1523.16 11.0023 1526.72 11.0023 Q1536.12 11.0023 1541.71 15.7013 Q1547.3 20.4004 1547.3 28.2591 Q1547.3 31.9859 1545.88 35.3482 Q1544.5 38.6699 1540.82 43.2069 Q1539.8 44.3817 1534.38 50.0125 Q1528.95 55.6027 1519.06 65.6895 Z" fill="#000000" fill-rule="nonzero" fill-opacity="1" /><path clip-path="url(#clip890)" d="M1566.22 65.6895 L1579.58 65.6895 L1579.58 19.5497 L1565.04 22.4663 L1565.04 15.0127 L1579.5 12.096 L1587.69 12.096 L1587.69 65.6895 L1601.05 65.6895 L1601.05 72.576 L1566.22 72.576 L1566.22 65.6895 Z" fill="#000000" fill-rule="nonzero" fill-opacity="1" /><path clip-path="url(#clip890)" d="M1619 65.6895 L1632.37 65.6895 L1632.37 19.5497 L1617.82 22.4663 L1617.82 15.0127 L1632.29 12.096 L1640.47 12.096 L1640.47 65.6895 L1653.84 65.6895 L1653.84 72.576 L1619 72.576 L1619 65.6895 Z" fill="#000000" fill-rule="nonzero" fill-opacity="1" /><polyline clip-path="url(#clip892)" style="stroke:#009af9; stroke-linecap:round; stroke-linejoin:round; stroke-width:4; stroke-opacity:1; fill:none" points="311.028,160.256 313.996,160.256 316.963,160.256 319.93,160.256 322.898,160.256 325.865,160.256 328.833,160.256 331.8,160.256 334.768,210.278 337.735,210.278 340.703,210.278 343.67,210.278 346.638,227.917 349.605,253.013 352.572,293.205 355.54,348.362 358.507,383.717 361.475,391.754 364.442,400.362 367.41,414.821 370.377,414.821 373.345,419.396 376.312,425.629 379.28,435.365 382.247,445.422 385.214,445.422 388.182,455.664 391.149,460.889 394.117,469.387 397.084,469.387 400.052,471.611 403.019,474.786 405.987,480.539 408.954,480.539 411.922,481.736 414.889,483.905 417.856,487.995 420.824,495.283 423.791,495.283 426.759,496.884 429.726,499.66 432.694,504.86 435.661,504.86 438.629,505.919 441.596,507.928 444.564,511.778 447.531,511.778 450.498,512.55 453.466,514.055 456.433,516.975 459.401,522.488 462.368,522.488 465.336,523.614 468.303,525.769 471.271,529.916 474.238,529.916 477.206,530.751 480.173,532.384 483.14,535.563 486.108,535.563 489.075,536.201 492.043,537.46 495.01,539.927 497.978,539.927 500.945,540.422 503.913,541.402 506.88,543.333 509.848,547.082 512.815,547.082 515.782,547.838 518.75,549.326 521.717,552.24 524.685,552.24 527.652,552.826 530.62,553.986 533.587,556.268 536.555,556.268 539.522,556.727 542.49,557.637 545.457,559.435 548.424,562.945 551.392,562.945 554.359,563.654 557.327,565.054 560.294,567.805 563.262,567.805 566.229,568.359 569.197,569.458 572.164,571.626 575.132,571.626 578.099,572.062 581.066,572.928 584.034,574.644 587.001,578.003 589.969,578.003 592.936,578.682 595.904,580.027 598.871,582.675 601.839,582.675 604.806,583.209 607.774,584.269 610.741,586.364 613.708,586.364 616.676,586.786 619.643,587.625 622.611,589.288 625.578,592.552 628.546,592.552 631.513,593.213 634.481,594.523 637.448,597.106 640.416,597.106 643.383,597.627 646.35,598.663 649.318,600.714 652.285,600.714 655.253,601.126 658.22,601.949 661.188,603.579 664.155,606.786 667.123,606.786 670.09,607.435 673.058,608.724 676.025,611.269 678.992,611.269 681.96,611.783 684.927,612.806 687.895,614.83 690.862,614.83 693.83,615.238 696.797,616.051 699.765,617.663 702.732,620.839 705.7,620.839 708.667,621.482 711.635,622.761 714.602,625.287 717.569,625.287 720.537,625.797 723.504,626.813 726.472,628.826 729.439,628.826 732.407,629.232 735.374,630.041 738.342,631.646 741.309,634.81 744.277,634.81 747.244,635.452 750.211,636.727 753.179,639.249 756.146,639.249 759.114,639.759 762.081,640.774 765.049,642.786 768.016,642.786 770.984,643.192 773.951,644.002 776.919,645.608 779.886,648.777 782.853,648.777 785.821,649.42 788.788,650.698 791.756,653.227 794.723,653.227 797.691,653.739 800.658,654.758 803.626,656.778 806.593,656.778 809.561,657.186 812.528,657.998 815.495,659.613 818.463,662.798 821.43,662.798 824.398,663.445 827.365,664.731 830.333,667.277 833.3,667.277 836.268,667.792 839.235,668.818 842.203,670.853 845.17,670.853 848.137,671.264 851.105,672.084 854.072,673.711 857.04,673.711 860.007,674.039 862.975,674.694 865.942,675.996 868.91,678.572 871.877,678.572 874.845,679.094 877.812,680.133 880.779,682.194 883.747,682.194 886.714,682.611 889.682,683.441 892.649,685.09 895.617,685.09 898.584,685.422 901.552,686.086 904.519,687.405 907.487,690.017 910.454,690.017 913.421,690.546 916.389,691.6 919.356,693.69 922.324,693.69 925.291,694.113 928.259,694.955 931.226,696.629 934.194,696.629 937.161,696.966 940.129,697.639 943.096,698.979 946.063,701.63 949.031,701.63 951.998,702.167 954.966,703.238 957.933,705.36 960.901,705.36 963.868,705.79 966.836,706.645 969.803,708.345 972.771,708.345 975.738,708.688 978.705,709.373 981.673,710.734 984.64,713.428 987.608,713.428 990.575,713.974 993.543,715.062 996.51,717.221 999.478,717.221 1002.45,717.657 1005.41,718.528 1008.38,720.257 1011.35,720.257 1014.31,720.605 1017.28,721.302 1020.25,722.686 1023.22,725.427 1026.18,725.427 1029.15,725.983 1032.12,727.09 1035.09,729.287 1038.05,729.287 1041.02,729.731 1043.99,730.617 1046.96,732.377 1049.92,732.377 1052.89,732.732 1055.86,733.441 1058.83,734.851 1061.79,737.641 1064.76,737.641 1067.73,738.208 1070.7,739.336 1073.66,741.573 1076.63,741.573 1079.6,742.026 1082.57,742.928 1085.53,744.721 1088.5,744.721 1091.47,745.084 1094.44,745.806 1097.4,747.242 1100.37,750.085 1103.34,750.085 1106.31,750.663 1109.27,751.813 1112.24,754.093 1115.21,754.093 1118.18,754.555 1121.14,755.475 1124.11,757.303 1127.08,757.303 1130.05,757.672 1133.01,758.409 1135.98,759.874 1138.95,762.772 1141.92,762.772 1144.88,763.361 1147.85,764.534 1150.82,766.86 1153.79,766.86 1156.75,767.331 1159.72,768.27 1162.69,770.135 1165.66,770.135 1168.62,770.511 1171.59,771.263 1174.56,772.758 1177.52,775.715 1180.49,775.715 1183.46,776.316 1186.43,777.513 1189.39,779.886 1192.36,779.886 1195.33,780.367 1198.3,781.325 1201.26,783.228 1204.23,783.228 1207.2,783.613 1210.17,784.38 1213.13,785.906 1216.1,785.906 1219.07,786.214 1222.04,786.828 1225,788.051 1227.97,790.475 1230.94,790.475 1233.91,790.966 1236.87,791.945 1239.84,793.89 1242.81,793.89 1245.78,794.283 1248.74,795.067 1251.71,796.626 1254.68,796.626 1257.65,796.94 1260.61,797.568 1263.58,798.817 1266.55,801.293 1269.52,801.293 1272.48,801.796 1275.45,802.796 1278.42,804.783 1281.39,804.783 1284.35,805.185 1287.32,805.986 1290.29,807.579 1293.26,807.579 1296.22,807.901 1299.19,808.542 1302.16,809.819 1305.13,812.35 1308.09,812.35 1311.06,812.863 1314.03,813.886 1317,815.917 1319.96,815.917 1322.93,816.328 1325.9,817.147 1328.87,818.775 1331.83,818.775 1334.8,819.104 1337.77,819.76 1340.73,821.065 1343.7,823.652 1346.67,823.652 1349.64,824.177 1352.6,825.223 1355.57,827.299 1358.54,827.299 1361.51,827.719 1364.47,828.556 1367.44,830.221 1370.41,830.221 1373.38,830.557 1376.34,831.228 1379.31,832.563 1382.28,835.207 1385.25,835.207 1388.21,835.744 1391.18,836.813 1394.15,838.936 1397.12,838.936 1400.08,839.365 1403.05,840.222 1406.02,841.924 1408.99,841.924 1411.95,842.268 1414.92,842.954 1417.89,844.319 1420.86,847.022 1423.82,847.022 1426.79,847.571 1429.76,848.665 1432.73,850.836 1435.69,850.836 1438.66,851.275 1441.63,852.151 1444.6,853.892 1447.56,853.892 1450.53,854.244 1453.5,854.945 1456.47,856.342 1459.43,859.106 1462.4,859.106 1465.37,859.668 1468.34,860.787 1471.3,863.006 1474.27,863.006 1477.24,863.456 1480.21,864.352 1483.17,866.133 1486.14,866.133 1489.11,866.493 1492.08,867.211 1495.04,868.639 1498.01,871.466 1500.98,871.466 1503.95,872.041 1506.91,873.185 1509.88,875.456 1512.85,875.456 1515.81,875.916 1518.78,876.832 1521.75,878.654 1524.72,878.654 1527.68,879.022 1530.65,879.757 1533.62,881.218 1536.59,884.11 1539.55,884.11 1542.52,884.698 1545.49,885.869 1548.46,888.191 1551.42,888.191 1554.39,888.662 1557.36,889.6 1560.33,891.464 1563.29,891.464 1566.26,891.84 1569.23,892.592 1572.2,894.087 1575.16,897.045 1578.13,897.045 1581.1,897.647 1584.07,898.845 1587.03,901.221 1590,901.221 1592.97,901.702 1595.94,902.662 1598.9,904.569 1601.87,904.569 1604.84,904.955 1607.81,905.724 1610.77,907.253 1613.74,907.253 1616.71,907.562 1619.68,908.177 1622.64,909.404 1625.61,911.835 1628.58,911.835 1631.55,912.328 1634.51,913.31 1637.48,915.261 1640.45,915.261 1643.42,915.656 1646.38,916.443 1649.35,918.008 1652.32,918.008 1655.29,918.324 1658.25,918.954 1661.22,920.209 1664.19,922.697 1667.16,922.697 1670.12,923.201 1673.09,924.207 1676.06,926.204 1679.02,926.204 1681.99,926.608 1684.96,927.413 1687.93,929.015 1690.89,929.015 1693.86,929.339 1696.83,929.984 1699.8,931.268 1702.76,933.814 1705.73,933.814 1708.7,934.33 1711.67,935.359 1714.63,937.403 1717.6,937.403 1720.57,937.816 1723.54,938.641 1726.5,940.28 1729.47,940.28 1732.44,940.611 1735.41,941.271 1738.37,942.586 1741.34,945.191 1744.31,945.191 1747.28,945.72 1750.24,946.773 1753.21,948.864 1756.18,948.864 1759.15,949.288 1762.11,950.132 1765.08,951.81 1768.05,951.81 1771.02,952.148 1773.98,952.824 1776.95,954.17 1779.92,956.835 1782.89,956.835 1785.85,957.377 1788.82,958.455 1791.79,960.595 1794.76,960.595 1797.72,961.029 1800.69,961.892 1803.66,963.61 1806.63,963.61 1809.59,963.957 1812.56,964.649 1815.53,966.026 1818.5,968.754 1821.46,968.754 1824.43,969.308 1827.4,970.411 1830.37,972.602 1833.33,972.602 1836.3,973.046 1839.27,973.93 1842.23,975.688 1845.2,975.688 1848.17,976.043 1851.14,976.751 1854.1,978.161 1857.07,980.952 1860.04,980.952 1863.01,981.52 1865.97,982.649 1868.94,984.891 1871.91,984.891 1874.88,985.346 1877.84,986.251 1880.81,988.05 1883.78,988.05 1886.75,988.413 1889.71,989.139 1892.68,990.582 1895.65,993.438 1898.62,993.438 1901.58,994.019 1904.55,995.176 1907.52,997.47 1910.49,997.47 1913.45,997.935 1916.42,998.862 1919.39,1000.7 1922.36,1000.7 1925.32,1001.08 1928.29,1001.82 1931.26,1003.29 1934.23,1006.22 1937.19,1006.22 1940.16,1006.81 1943.13,1008 1946.1,1010.35 1949.06,1010.35 1952.03,1010.82 1955,1011.77 1957.97,1013.66 1960.93,1013.66 1963.9,1014.04 1966.87,1014.8 1969.84,1016.31 1972.8,1016.31 1975.77,1016.61 1978.74,1017.22 1981.71,1018.43 1984.67,1020.84 1987.64,1020.84 1990.61,1021.32 1993.58,1022.3 1996.54,1024.23 1999.51,1024.23 2002.48,1024.62 2005.44,1025.39 2008.41,1026.94 2011.38,1026.94 2014.35,1027.25 2017.31,1027.88 2020.28,1029.12 2023.25,1031.58 2026.22,1031.58 2029.18,1032.08 2032.15,1033.07 2035.12,1035.05 2038.09,1035.05 2041.05,1035.45 2044.02,1036.24 2046.99,1037.83 2049.96,1037.83 2052.92,1038.15 2055.89,1038.78 2058.86,1040.05 2061.83,1042.57 2064.79,1042.57 2067.76,1043.08 2070.73,1044.1 2073.7,1046.12 2076.66,1046.12 2079.63,1046.53 2082.6,1047.35 2085.57,1048.97 2088.53,1048.97 2091.5,1049.3 2094.47,1049.95 2097.44,1051.25 2100.4,1053.83 2103.37,1053.83 2106.34,1054.35 2109.31,1055.39 2112.27,1057.46 2115.24,1057.46 2118.21,1057.88 2121.18,1058.72 2124.14,1060.38 2127.11,1060.38 2130.08,1060.71 2133.05,1061.38 2136.01,1062.71 2138.98,1065.35 2141.95,1065.35 2144.92,1065.88 2147.88,1066.95 2150.85,1069.07 2153.82,1069.07 2156.79,1069.5 2159.75,1070.35 2162.72,1072.05 2165.69,1072.05 2168.65,1072.4 2171.62,1073.08 2174.59,1074.44 2177.56,1077.14 2180.52,1077.14 2183.49,1077.69 2186.46,1078.78 2189.43,1080.95 2192.39,1080.95 2195.36,1081.39 2198.33,1082.27 2201.3,1084.01 2204.26,1084.01 2207.23,1084.36 2210.2,1085.06 2213.17,1086.45 2216.13,1089.22 2219.1,1089.22 2222.07,1089.78 2225.04,1090.9 2228,1093.12 2230.97,1093.12 2233.94,1093.56 2236.91,1094.46 2239.87,1096.24 2242.84,1096.24 2245.81,1096.6 2248.78,1097.32 2251.74,1098.75 2254.71,1101.58 2257.68,1101.58 2260.65,1102.15 2263.61,1103.3 2266.58,1105.57 2269.55,1105.57 2272.52,1106.03 2275.48,1106.94 2278.45,1108.77 2281.42,1108.77 2284.39,1109.14 2287.35,1109.87 2290.32,1111.33 2293.29,1114.23 "/>
<polyline clip-path="url(#clip892)" style="stroke:#e26f46; stroke-linecap:round; stroke-linejoin:round; stroke-width:4; stroke-opacity:1; fill:none" points="311.028,160.256 313.996,160.256 316.963,160.256 319.93,160.256 322.898,160.256 325.865,160.256 328.833,160.256 331.8,160.256 334.768,210.278 337.735,271.766 340.703,323.338 343.67,582.039 346.638,591.644 349.605,716.795 352.572,817.322 355.54,966.214 358.507,1154.6 361.475,1386.4 "/>
<polyline clip-path="url(#clip892)" style="stroke:#3da44d; stroke-linecap:round; stroke-linejoin:round; stroke-width:4; stroke-opacity:1; fill:none" points="311.028,160.256 313.996,160.256 316.963,160.256 319.93,160.256 322.898,160.256 325.865,160.256 328.833,160.256 331.8,160.256 334.768,210.278 337.735,210.278 340.703,210.278 343.67,210.278 346.638,227.917 349.605,253.013 352.572,293.205 355.54,348.362 358.507,383.717 361.475,383.717 364.442,386.473 367.41,386.473 370.377,386.869 373.345,387.466 376.312,388.237 379.28,389.201 382.247,390.703 385.214,393.544 388.182,399.102 391.149,409.604 394.117,421.174 397.084,421.174 400.052,431.655 403.019,438.296 405.987,447.988 408.954,459.105 411.922,472.816 414.889,472.816 417.856,491.273 420.824,498.278 423.791,509.679 426.759,525.507 429.726,546.299 432.694,579.219 435.661,637.318 438.629,734.9 441.596,880.185 444.564,880.185 447.531,880.185 450.498,900.415 453.466,914.165 456.433,914.165 459.401,917.137 462.368,922.96 465.336,934.159 468.303,955.016 471.271,955.016 474.238,959.708 477.206,968.798 480.173,968.798 483.14,970.712 486.108,974.49 489.075,981.852 492.043,995.88 495.01,995.88 497.978,998.917 500.945,1004.87 503.913,1016.3 506.88,1037.57 509.848,1037.57 512.815,1042.36 515.782,1051.65 518.75,1051.65 521.717,1053.61 524.685,1057.47 527.652,1065 530.62,1079.32 533.587,1079.32 536.555,1082.43 539.522,1088.51 542.49,1100.2 545.457,1121.9 "/>
<polyline clip-path="url(#clip892)" style="stroke:#c271d2; stroke-linecap:round; stroke-linejoin:round; stroke-width:4; stroke-opacity:1; fill:none" points="311.028,160.256 313.996,160.256 316.963,160.256 319.93,160.256 322.898,160.256 325.865,160.256 328.833,160.256 331.8,160.256 334.768,210.278 337.735,271.766 340.703,323.338 343.67,582.039 346.638,591.644 349.605,716.795 352.572,817.322 355.54,966.214 358.507,1154.6 361.475,1386.4 "/>
<polyline clip-path="url(#clip892)" style="stroke:#ac8d18; stroke-linecap:round; stroke-linejoin:round; stroke-width:4; stroke-opacity:1; fill:none" points="311.028,160.256 313.996,160.256 316.963,160.256 319.93,160.256 322.898,160.256 325.865,160.256 328.833,160.256 331.8,160.256 334.768,210.278 337.735,271.766 340.703,323.338 343.67,582.039 346.638,591.644 349.605,716.795 352.572,817.322 355.54,966.214 358.507,1154.6 361.475,1386.4 "/>
<path clip-path="url(#clip890)" d="M1749.5 477.836 L2282.72 477.836 L2282.72 166.796 L1749.5 166.796  Z" fill="#ffffff" fill-rule="evenodd" fill-opacity="1"/>
<polyline clip-path="url(#clip890)" style="stroke:#000000; stroke-linecap:round; stroke-linejoin:round; stroke-width:4; stroke-opacity:1; fill:none" points="1749.5,477.836 2282.72,477.836 2282.72,166.796 1749.5,166.796 1749.5,477.836 "/>
<polyline clip-path="url(#clip890)" style="stroke:#009af9; stroke-linecap:round; stroke-linejoin:round; stroke-width:4; stroke-opacity:1; fill:none" points="1772.84,218.636 1912.92,218.636 "/>
<path clip-path="url(#clip890)" d="M1936.27 201.356 L1940.95 201.356 L1940.95 231.981 L1957.77 231.981 L1957.77 235.916 L1936.27 235.916 L1936.27 201.356 Z" fill="#000000" fill-rule="nonzero" fill-opacity="1" /><path clip-path="url(#clip890)" d="M1962.68 201.356 L1969.65 201.356 L1978.47 224.874 L1987.33 201.356 L1994.3 201.356 L1994.3 235.916 L1989.74 235.916 L1989.74 205.569 L1980.83 229.272 L1976.13 229.272 L1967.22 205.569 L1967.22 235.916 L1962.68 235.916 L1962.68 201.356 Z" fill="#000000" fill-rule="nonzero" fill-opacity="1" /><path clip-path="url(#clip890)" d="M2023.1 243.786 L2023.1 247.096 L1998.47 247.096 L1998.47 243.786 L2023.1 243.786 Z" fill="#000000" fill-rule="nonzero" fill-opacity="1" /><path clip-path="url(#clip890)" d="M2048 202.49 L2048 207.05 Q2045.34 205.777 2042.98 205.152 Q2040.62 204.527 2038.42 204.527 Q2034.6 204.527 2032.52 206.008 Q2030.46 207.49 2030.46 210.221 Q2030.46 212.513 2031.82 213.694 Q2033.21 214.851 2037.06 215.569 L2039.88 216.147 Q2045.11 217.143 2047.59 219.666 Q2050.09 222.166 2050.09 226.379 Q2050.09 231.402 2046.71 233.994 Q2043.35 236.587 2036.85 236.587 Q2034.39 236.587 2031.62 236.031 Q2028.86 235.476 2025.9 234.388 L2025.9 229.573 Q2028.75 231.17 2031.48 231.981 Q2034.21 232.791 2036.85 232.791 Q2040.85 232.791 2043.03 231.217 Q2045.2 229.643 2045.2 226.726 Q2045.2 224.18 2043.63 222.744 Q2042.08 221.309 2038.51 220.592 L2035.67 220.036 Q2030.44 218.995 2028.1 216.772 Q2025.76 214.55 2025.76 210.592 Q2025.76 206.008 2028.98 203.37 Q2032.22 200.731 2037.89 200.731 Q2040.32 200.731 2042.84 201.171 Q2045.37 201.61 2048 202.49 Z" fill="#000000" fill-rule="nonzero" fill-opacity="1" /><path clip-path="url(#clip890)" d="M2062.06 205.198 L2062.06 218.184 L2067.94 218.184 Q2071.2 218.184 2072.98 216.495 Q2074.76 214.805 2074.76 211.68 Q2074.76 208.578 2072.98 206.888 Q2071.2 205.198 2067.94 205.198 L2062.06 205.198 M2057.38 201.356 L2067.94 201.356 Q2073.75 201.356 2076.71 203.995 Q2079.69 206.61 2079.69 211.68 Q2079.69 216.795 2076.71 219.411 Q2073.75 222.027 2067.94 222.027 L2062.06 222.027 L2062.06 235.916 L2057.38 235.916 L2057.38 201.356 Z" fill="#000000" fill-rule="nonzero" fill-opacity="1" /><path clip-path="url(#clip890)" d="M2109.53 230.985 L2109.53 221.703 L2101.89 221.703 L2101.89 217.86 L2114.16 217.86 L2114.16 232.698 Q2111.45 234.619 2108.19 235.615 Q2104.93 236.587 2101.22 236.587 Q2093.12 236.587 2088.54 231.865 Q2083.98 227.119 2083.98 218.67 Q2083.98 210.198 2088.54 205.476 Q2093.12 200.731 2101.22 200.731 Q2104.6 200.731 2107.63 201.564 Q2110.69 202.397 2113.26 204.018 L2113.26 208.995 Q2110.67 206.796 2107.75 205.684 Q2104.83 204.573 2101.62 204.573 Q2095.27 204.573 2092.08 208.115 Q2088.91 211.657 2088.91 218.67 Q2088.91 225.661 2092.08 229.203 Q2095.27 232.744 2101.62 232.744 Q2104.09 232.744 2106.04 232.328 Q2107.98 231.888 2109.53 230.985 Z" fill="#000000" fill-rule="nonzero" fill-opacity="1" /><polyline clip-path="url(#clip890)" style="stroke:#e26f46; stroke-linecap:round; stroke-linejoin:round; stroke-width:4; stroke-opacity:1; fill:none" points="1772.84,270.476 1912.92,270.476 "/>
<path clip-path="url(#clip890)" d="M1936.27 253.196 L1940.95 253.196 L1940.95 283.821 L1957.77 283.821 L1957.77 287.756 L1936.27 287.756 L1936.27 253.196 Z" fill="#000000" fill-rule="nonzero" fill-opacity="1" /><path clip-path="url(#clip890)" d="M1962.68 253.196 L1969.65 253.196 L1978.47 276.714 L1987.33 253.196 L1994.3 253.196 L1994.3 287.756 L1989.74 287.756 L1989.74 257.409 L1980.83 281.112 L1976.13 281.112 L1967.22 257.409 L1967.22 287.756 L1962.68 287.756 L1962.68 253.196 Z" fill="#000000" fill-rule="nonzero" fill-opacity="1" /><path clip-path="url(#clip890)" d="M2023.1 295.626 L2023.1 298.936 L1998.47 298.936 L1998.47 295.626 L2023.1 295.626 Z" fill="#000000" fill-rule="nonzero" fill-opacity="1" /><path clip-path="url(#clip890)" d="M2038.84 257.802 L2032.5 275.001 L2045.2 275.001 L2038.84 257.802 M2036.2 253.196 L2041.5 253.196 L2054.67 287.756 L2049.81 287.756 L2046.66 278.89 L2031.08 278.89 L2027.94 287.756 L2023 287.756 L2036.2 253.196 Z" fill="#000000" fill-rule="nonzero" fill-opacity="1" /><path clip-path="url(#clip890)" d="M2081.08 272.108 L2081.08 287.756 L2076.82 287.756 L2076.82 272.247 Q2076.82 268.566 2075.39 266.737 Q2073.95 264.909 2071.08 264.909 Q2067.63 264.909 2065.64 267.108 Q2063.65 269.307 2063.65 273.103 L2063.65 287.756 L2059.37 287.756 L2059.37 261.83 L2063.65 261.83 L2063.65 265.858 Q2065.18 263.52 2067.24 262.362 Q2069.32 261.205 2072.03 261.205 Q2076.5 261.205 2078.79 263.983 Q2081.08 266.737 2081.08 272.108 Z" fill="#000000" fill-rule="nonzero" fill-opacity="1" /><path clip-path="url(#clip890)" d="M2106.64 265.765 L2106.64 251.737 L2110.9 251.737 L2110.9 287.756 L2106.64 287.756 L2106.64 283.867 Q2105.3 286.182 2103.24 287.316 Q2101.2 288.427 2098.33 288.427 Q2093.63 288.427 2090.67 284.677 Q2087.73 280.927 2087.73 274.816 Q2087.73 268.705 2090.67 264.955 Q2093.63 261.205 2098.33 261.205 Q2101.2 261.205 2103.24 262.339 Q2105.3 263.45 2106.64 265.765 M2092.12 274.816 Q2092.12 279.515 2094.05 282.2 Q2095.99 284.862 2099.37 284.862 Q2102.75 284.862 2104.69 282.2 Q2106.64 279.515 2106.64 274.816 Q2106.64 270.117 2104.69 267.455 Q2102.75 264.77 2099.37 264.77 Q2095.99 264.77 2094.05 267.455 Q2092.12 270.117 2092.12 274.816 Z" fill="#000000" fill-rule="nonzero" fill-opacity="1" /><path clip-path="url(#clip890)" d="M2134.69 265.811 Q2133.98 265.395 2133.12 265.21 Q2132.29 265.001 2131.27 265.001 Q2127.66 265.001 2125.71 267.362 Q2123.79 269.7 2123.79 274.098 L2123.79 287.756 L2119.51 287.756 L2119.51 261.83 L2123.79 261.83 L2123.79 265.858 Q2125.13 263.497 2127.29 262.362 Q2129.44 261.205 2132.52 261.205 Q2132.96 261.205 2133.49 261.274 Q2134.02 261.321 2134.67 261.436 L2134.69 265.811 Z" fill="#000000" fill-rule="nonzero" fill-opacity="1" /><path clip-path="url(#clip890)" d="M2160.3 273.728 L2160.3 275.811 L2140.71 275.811 Q2140.99 280.209 2143.35 282.524 Q2145.74 284.816 2149.97 284.816 Q2152.43 284.816 2154.72 284.214 Q2157.03 283.612 2159.3 282.409 L2159.3 286.436 Q2157.01 287.408 2154.6 287.918 Q2152.19 288.427 2149.72 288.427 Q2143.51 288.427 2139.88 284.816 Q2136.27 281.205 2136.27 275.047 Q2136.27 268.682 2139.69 264.955 Q2143.14 261.205 2148.98 261.205 Q2154.21 261.205 2157.24 264.585 Q2160.3 267.941 2160.3 273.728 M2156.04 272.478 Q2155.99 268.983 2154.07 266.899 Q2152.17 264.816 2149.02 264.816 Q2145.46 264.816 2143.31 266.83 Q2141.18 268.844 2140.85 272.501 L2156.04 272.478 Z" fill="#000000" fill-rule="nonzero" fill-opacity="1" /><path clip-path="url(#clip890)" d="M2167.29 261.83 L2171.55 261.83 L2171.55 287.756 L2167.29 287.756 L2167.29 261.83 M2167.29 251.737 L2171.55 251.737 L2171.55 257.131 L2167.29 257.131 L2167.29 251.737 Z" fill="#000000" fill-rule="nonzero" fill-opacity="1" /><path clip-path="url(#clip890)" d="M2200.16 295.626 L2200.16 298.936 L2175.53 298.936 L2175.53 295.626 L2200.16 295.626 Z" fill="#000000" fill-rule="nonzero" fill-opacity="1" /><path clip-path="url(#clip890)" d="M2215.94 274.723 Q2210.78 274.723 2208.79 275.904 Q2206.8 277.084 2206.8 279.932 Q2206.8 282.2 2208.28 283.543 Q2209.79 284.862 2212.36 284.862 Q2215.9 284.862 2218.03 282.362 Q2220.18 279.839 2220.18 275.672 L2220.18 274.723 L2215.94 274.723 M2224.44 272.964 L2224.44 287.756 L2220.18 287.756 L2220.18 283.821 Q2218.72 286.182 2216.55 287.316 Q2214.37 288.427 2211.22 288.427 Q2207.24 288.427 2204.88 286.205 Q2202.54 283.959 2202.54 280.209 Q2202.54 275.834 2205.46 273.612 Q2208.4 271.39 2214.21 271.39 L2220.18 271.39 L2220.18 270.973 Q2220.18 268.034 2218.24 266.436 Q2216.31 264.816 2212.82 264.816 Q2210.6 264.816 2208.49 265.348 Q2206.38 265.881 2204.44 266.946 L2204.44 263.01 Q2206.78 262.108 2208.98 261.668 Q2211.18 261.205 2213.26 261.205 Q2218.88 261.205 2221.66 264.122 Q2224.44 267.038 2224.44 272.964 Z" fill="#000000" fill-rule="nonzero" fill-opacity="1" /><path clip-path="url(#clip890)" d="M2233.21 251.737 L2237.47 251.737 L2237.47 287.756 L2233.21 287.756 L2233.21 251.737 Z" fill="#000000" fill-rule="nonzero" fill-opacity="1" /><path clip-path="url(#clip890)" d="M2250.6 254.469 L2250.6 261.83 L2259.37 261.83 L2259.37 265.14 L2250.6 265.14 L2250.6 279.214 Q2250.6 282.385 2251.45 283.288 Q2252.33 284.191 2254.99 284.191 L2259.37 284.191 L2259.37 287.756 L2254.99 287.756 Q2250.06 287.756 2248.19 285.927 Q2246.31 284.075 2246.31 279.214 L2246.31 265.14 L2243.19 265.14 L2243.19 261.83 L2246.31 261.83 L2246.31 254.469 L2250.6 254.469 Z" fill="#000000" fill-rule="nonzero" fill-opacity="1" /><polyline clip-path="url(#clip890)" style="stroke:#3da44d; stroke-linecap:round; stroke-linejoin:round; stroke-width:4; stroke-opacity:1; fill:none" points="1772.84,322.316 1912.92,322.316 "/>
<path clip-path="url(#clip890)" d="M1936.27 305.036 L1940.95 305.036 L1940.95 335.661 L1957.77 335.661 L1957.77 339.596 L1936.27 339.596 L1936.27 305.036 Z" fill="#000000" fill-rule="nonzero" fill-opacity="1" /><path clip-path="url(#clip890)" d="M1962.68 305.036 L1969.65 305.036 L1978.47 328.554 L1987.33 305.036 L1994.3 305.036 L1994.3 339.596 L1989.74 339.596 L1989.74 309.249 L1980.83 332.952 L1976.13 332.952 L1967.22 309.249 L1967.22 339.596 L1962.68 339.596 L1962.68 305.036 Z" fill="#000000" fill-rule="nonzero" fill-opacity="1" /><path clip-path="url(#clip890)" d="M2023.1 347.466 L2023.1 350.776 L1998.47 350.776 L1998.47 347.466 L2023.1 347.466 Z" fill="#000000" fill-rule="nonzero" fill-opacity="1" /><path clip-path="url(#clip890)" d="M2038.84 309.642 L2032.5 326.841 L2045.2 326.841 L2038.84 309.642 M2036.2 305.036 L2041.5 305.036 L2054.67 339.596 L2049.81 339.596 L2046.66 330.73 L2031.08 330.73 L2027.94 339.596 L2023 339.596 L2036.2 305.036 Z" fill="#000000" fill-rule="nonzero" fill-opacity="1" /><path clip-path="url(#clip890)" d="M2081.08 323.948 L2081.08 339.596 L2076.82 339.596 L2076.82 324.087 Q2076.82 320.406 2075.39 318.577 Q2073.95 316.749 2071.08 316.749 Q2067.63 316.749 2065.64 318.948 Q2063.65 321.147 2063.65 324.943 L2063.65 339.596 L2059.37 339.596 L2059.37 313.67 L2063.65 313.67 L2063.65 317.698 Q2065.18 315.36 2067.24 314.202 Q2069.32 313.045 2072.03 313.045 Q2076.5 313.045 2078.79 315.823 Q2081.08 318.577 2081.08 323.948 Z" fill="#000000" fill-rule="nonzero" fill-opacity="1" /><path clip-path="url(#clip890)" d="M2106.64 317.605 L2106.64 303.577 L2110.9 303.577 L2110.9 339.596 L2106.64 339.596 L2106.64 335.707 Q2105.3 338.022 2103.24 339.156 Q2101.2 340.267 2098.33 340.267 Q2093.63 340.267 2090.67 336.517 Q2087.73 332.767 2087.73 326.656 Q2087.73 320.545 2090.67 316.795 Q2093.63 313.045 2098.33 313.045 Q2101.2 313.045 2103.24 314.179 Q2105.3 315.29 2106.64 317.605 M2092.12 326.656 Q2092.12 331.355 2094.05 334.04 Q2095.99 336.702 2099.37 336.702 Q2102.75 336.702 2104.69 334.04 Q2106.64 331.355 2106.64 326.656 Q2106.64 321.957 2104.69 319.295 Q2102.75 316.61 2099.37 316.61 Q2095.99 316.61 2094.05 319.295 Q2092.12 321.957 2092.12 326.656 Z" fill="#000000" fill-rule="nonzero" fill-opacity="1" /><path clip-path="url(#clip890)" d="M2134.69 317.651 Q2133.98 317.235 2133.12 317.05 Q2132.29 316.841 2131.27 316.841 Q2127.66 316.841 2125.71 319.202 Q2123.79 321.54 2123.79 325.938 L2123.79 339.596 L2119.51 339.596 L2119.51 313.67 L2123.79 313.67 L2123.79 317.698 Q2125.13 315.337 2127.29 314.202 Q2129.44 313.045 2132.52 313.045 Q2132.96 313.045 2133.49 313.114 Q2134.02 313.161 2134.67 313.276 L2134.69 317.651 Z" fill="#000000" fill-rule="nonzero" fill-opacity="1" /><path clip-path="url(#clip890)" d="M2160.3 325.568 L2160.3 327.651 L2140.71 327.651 Q2140.99 332.049 2143.35 334.364 Q2145.74 336.656 2149.97 336.656 Q2152.43 336.656 2154.72 336.054 Q2157.03 335.452 2159.3 334.249 L2159.3 338.276 Q2157.01 339.248 2154.6 339.758 Q2152.19 340.267 2149.72 340.267 Q2143.51 340.267 2139.88 336.656 Q2136.27 333.045 2136.27 326.887 Q2136.27 320.522 2139.69 316.795 Q2143.14 313.045 2148.98 313.045 Q2154.21 313.045 2157.24 316.425 Q2160.3 319.781 2160.3 325.568 M2156.04 324.318 Q2155.99 320.823 2154.07 318.739 Q2152.17 316.656 2149.02 316.656 Q2145.46 316.656 2143.31 318.67 Q2141.18 320.684 2140.85 324.341 L2156.04 324.318 Z" fill="#000000" fill-rule="nonzero" fill-opacity="1" /><path clip-path="url(#clip890)" d="M2167.29 313.67 L2171.55 313.67 L2171.55 339.596 L2167.29 339.596 L2167.29 313.67 M2167.29 303.577 L2171.55 303.577 L2171.55 308.971 L2167.29 308.971 L2167.29 303.577 Z" fill="#000000" fill-rule="nonzero" fill-opacity="1" /><polyline clip-path="url(#clip890)" style="stroke:#c271d2; stroke-linecap:round; stroke-linejoin:round; stroke-width:4; stroke-opacity:1; fill:none" points="1772.84,374.156 1912.92,374.156 "/>
<path clip-path="url(#clip890)" d="M1936.27 356.876 L1940.95 356.876 L1940.95 387.501 L1957.77 387.501 L1957.77 391.436 L1936.27 391.436 L1936.27 356.876 Z" fill="#000000" fill-rule="nonzero" fill-opacity="1" /><path clip-path="url(#clip890)" d="M1962.68 356.876 L1969.65 356.876 L1978.47 380.394 L1987.33 356.876 L1994.3 356.876 L1994.3 391.436 L1989.74 391.436 L1989.74 361.089 L1980.83 384.792 L1976.13 384.792 L1967.22 361.089 L1967.22 391.436 L1962.68 391.436 L1962.68 356.876 Z" fill="#000000" fill-rule="nonzero" fill-opacity="1" /><path clip-path="url(#clip890)" d="M2023.1 399.306 L2023.1 402.616 L1998.47 402.616 L1998.47 399.306 L2023.1 399.306 Z" fill="#000000" fill-rule="nonzero" fill-opacity="1" /><path clip-path="url(#clip890)" d="M2048 358.01 L2048 362.57 Q2045.34 361.297 2042.98 360.672 Q2040.62 360.047 2038.42 360.047 Q2034.6 360.047 2032.52 361.528 Q2030.46 363.01 2030.46 365.741 Q2030.46 368.033 2031.82 369.214 Q2033.21 370.371 2037.06 371.089 L2039.88 371.667 Q2045.11 372.663 2047.59 375.186 Q2050.09 377.686 2050.09 381.899 Q2050.09 386.922 2046.71 389.514 Q2043.35 392.107 2036.85 392.107 Q2034.39 392.107 2031.62 391.551 Q2028.86 390.996 2025.9 389.908 L2025.9 385.093 Q2028.75 386.69 2031.48 387.501 Q2034.21 388.311 2036.85 388.311 Q2040.85 388.311 2043.03 386.737 Q2045.2 385.163 2045.2 382.246 Q2045.2 379.7 2043.63 378.264 Q2042.08 376.829 2038.51 376.112 L2035.67 375.556 Q2030.44 374.515 2028.1 372.292 Q2025.76 370.07 2025.76 366.112 Q2025.76 361.528 2028.98 358.89 Q2032.22 356.251 2037.89 356.251 Q2040.32 356.251 2042.84 356.691 Q2045.37 357.13 2048 358.01 Z" fill="#000000" fill-rule="nonzero" fill-opacity="1" /><path clip-path="url(#clip890)" d="M2062.06 360.718 L2062.06 373.704 L2067.94 373.704 Q2071.2 373.704 2072.98 372.015 Q2074.76 370.325 2074.76 367.2 Q2074.76 364.098 2072.98 362.408 Q2071.2 360.718 2067.94 360.718 L2062.06 360.718 M2057.38 356.876 L2067.94 356.876 Q2073.75 356.876 2076.71 359.515 Q2079.69 362.13 2079.69 367.2 Q2079.69 372.315 2076.71 374.931 Q2073.75 377.547 2067.94 377.547 L2062.06 377.547 L2062.06 391.436 L2057.38 391.436 L2057.38 356.876 Z" fill="#000000" fill-rule="nonzero" fill-opacity="1" /><path clip-path="url(#clip890)" d="M2109.53 386.505 L2109.53 377.223 L2101.89 377.223 L2101.89 373.38 L2114.16 373.38 L2114.16 388.218 Q2111.45 390.139 2108.19 391.135 Q2104.93 392.107 2101.22 392.107 Q2093.12 392.107 2088.54 387.385 Q2083.98 382.639 2083.98 374.19 Q2083.98 365.718 2088.54 360.996 Q2093.12 356.251 2101.22 356.251 Q2104.6 356.251 2107.63 357.084 Q2110.69 357.917 2113.26 359.538 L2113.26 364.515 Q2110.67 362.316 2107.75 361.204 Q2104.83 360.093 2101.62 360.093 Q2095.27 360.093 2092.08 363.635 Q2088.91 367.177 2088.91 374.19 Q2088.91 381.181 2092.08 384.723 Q2095.27 388.264 2101.62 388.264 Q2104.09 388.264 2106.04 387.848 Q2107.98 387.408 2109.53 386.505 Z" fill="#000000" fill-rule="nonzero" fill-opacity="1" /><path clip-path="url(#clip890)" d="M2142.22 399.306 L2142.22 402.616 L2117.59 402.616 L2117.59 399.306 L2142.22 399.306 Z" fill="#000000" fill-rule="nonzero" fill-opacity="1" /><path clip-path="url(#clip890)" d="M2158 378.403 Q2152.84 378.403 2150.85 379.584 Q2148.86 380.764 2148.86 383.612 Q2148.86 385.88 2150.34 387.223 Q2151.85 388.542 2154.42 388.542 Q2157.96 388.542 2160.09 386.042 Q2162.24 383.519 2162.24 379.352 L2162.24 378.403 L2158 378.403 M2166.5 376.644 L2166.5 391.436 L2162.24 391.436 L2162.24 387.501 Q2160.78 389.862 2158.61 390.996 Q2156.43 392.107 2153.28 392.107 Q2149.3 392.107 2146.94 389.885 Q2144.6 387.639 2144.6 383.889 Q2144.6 379.514 2147.52 377.292 Q2150.46 375.07 2156.27 375.07 L2162.24 375.07 L2162.24 374.653 Q2162.24 371.714 2160.3 370.116 Q2158.37 368.496 2154.88 368.496 Q2152.66 368.496 2150.55 369.028 Q2148.44 369.561 2146.5 370.626 L2146.5 366.69 Q2148.84 365.788 2151.04 365.348 Q2153.24 364.885 2155.32 364.885 Q2160.94 364.885 2163.72 367.802 Q2166.5 370.718 2166.5 376.644 Z" fill="#000000" fill-rule="nonzero" fill-opacity="1" /><path clip-path="url(#clip890)" d="M2175.27 355.417 L2179.53 355.417 L2179.53 391.436 L2175.27 391.436 L2175.27 355.417 Z" fill="#000000" fill-rule="nonzero" fill-opacity="1" /><path clip-path="url(#clip890)" d="M2192.66 358.149 L2192.66 365.51 L2201.43 365.51 L2201.43 368.82 L2192.66 368.82 L2192.66 382.894 Q2192.66 386.065 2193.51 386.968 Q2194.39 387.871 2197.05 387.871 L2201.43 387.871 L2201.43 391.436 L2197.05 391.436 Q2192.12 391.436 2190.25 389.607 Q2188.37 387.755 2188.37 382.894 L2188.37 368.82 L2185.25 368.82 L2185.25 365.51 L2188.37 365.51 L2188.37 358.149 L2192.66 358.149 Z" fill="#000000" fill-rule="nonzero" fill-opacity="1" /><polyline clip-path="url(#clip890)" style="stroke:#ac8d18; stroke-linecap:round; stroke-linejoin:round; stroke-width:4; stroke-opacity:1; fill:none" points="1772.84,425.996 1912.92,425.996 "/>
<path clip-path="url(#clip890)" d="M1936.27 408.716 L1940.95 408.716 L1940.95 439.341 L1957.77 439.341 L1957.77 443.276 L1936.27 443.276 L1936.27 408.716 Z" fill="#000000" fill-rule="nonzero" fill-opacity="1" /><path clip-path="url(#clip890)" d="M1962.68 408.716 L1969.65 408.716 L1978.47 432.234 L1987.33 408.716 L1994.3 408.716 L1994.3 443.276 L1989.74 443.276 L1989.74 412.929 L1980.83 436.632 L1976.13 436.632 L1967.22 412.929 L1967.22 443.276 L1962.68 443.276 L1962.68 408.716 Z" fill="#000000" fill-rule="nonzero" fill-opacity="1" /></svg>
