<?xml version="1.0" encoding="utf-8"?>
<svg xmlns="http://www.w3.org/2000/svg" xmlns:xlink="http://www.w3.org/1999/xlink" width="600" height="400" viewBox="0 0 2400 1600">
<defs>
  <clipPath id="clip290">
    <rect x="0" y="0" width="2400" height="1600"/>
  </clipPath>
</defs>
<path clip-path="url(#clip290)" d="M0 1600 L2400 1600 L2400 0 L0 0  Z" fill="#ffffff" fill-rule="evenodd" fill-opacity="1"/>
<defs>
  <clipPath id="clip291">
    <rect x="480" y="0" width="1681" height="1600"/>
  </clipPath>
</defs>
<path clip-path="url(#clip290)" d="M221.637 1423.18 L2352.76 1423.18 L2352.76 123.472 L221.637 123.472  Z" fill="#ffffff" fill-rule="evenodd" fill-opacity="1"/>
<defs>
  <clipPath id="clip292">
    <rect x="221" y="123" width="2132" height="1301"/>
  </clipPath>
</defs>
<polyline clip-path="url(#clip292)" style="stroke:#000000; stroke-linecap:round; stroke-linejoin:round; stroke-width:2; stroke-opacity:0.1; fill:none" points="236.259,1423.18 236.259,123.472 "/>
<polyline clip-path="url(#clip292)" style="stroke:#000000; stroke-linecap:round; stroke-linejoin:round; stroke-width:2; stroke-opacity:0.1; fill:none" points="693.188,1423.18 693.188,123.472 "/>
<polyline clip-path="url(#clip292)" style="stroke:#000000; stroke-linecap:round; stroke-linejoin:round; stroke-width:2; stroke-opacity:0.1; fill:none" points="1150.12,1423.18 1150.12,123.472 "/>
<polyline clip-path="url(#clip292)" style="stroke:#000000; stroke-linecap:round; stroke-linejoin:round; stroke-width:2; stroke-opacity:0.1; fill:none" points="1607.05,1423.18 1607.05,123.472 "/>
<polyline clip-path="url(#clip292)" style="stroke:#000000; stroke-linecap:round; stroke-linejoin:round; stroke-width:2; stroke-opacity:0.1; fill:none" points="2063.98,1423.18 2063.98,123.472 "/>
<polyline clip-path="url(#clip290)" style="stroke:#000000; stroke-linecap:round; stroke-linejoin:round; stroke-width:4; stroke-opacity:1; fill:none" points="221.637,1423.18 2352.76,1423.18 "/>
<polyline clip-path="url(#clip290)" style="stroke:#000000; stroke-linecap:round; stroke-linejoin:round; stroke-width:4; stroke-opacity:1; fill:none" points="236.259,1423.18 236.259,1404.28 "/>
<polyline clip-path="url(#clip290)" style="stroke:#000000; stroke-linecap:round; stroke-linejoin:round; stroke-width:4; stroke-opacity:1; fill:none" points="693.188,1423.18 693.188,1404.28 "/>
<polyline clip-path="url(#clip290)" style="stroke:#000000; stroke-linecap:round; stroke-linejoin:round; stroke-width:4; stroke-opacity:1; fill:none" points="1150.12,1423.18 1150.12,1404.28 "/>
<polyline clip-path="url(#clip290)" style="stroke:#000000; stroke-linecap:round; stroke-linejoin:round; stroke-width:4; stroke-opacity:1; fill:none" points="1607.05,1423.18 1607.05,1404.28 "/>
<polyline clip-path="url(#clip290)" style="stroke:#000000; stroke-linecap:round; stroke-linejoin:round; stroke-width:4; stroke-opacity:1; fill:none" points="2063.98,1423.18 2063.98,1404.28 "/>
<path clip-path="url(#clip290)" d="M236.259 1454.1 Q232.648 1454.1 230.819 1457.66 Q229.013 1461.2 229.013 1468.33 Q229.013 1475.44 230.819 1479.01 Q232.648 1482.55 236.259 1482.55 Q239.893 1482.55 241.699 1479.01 Q243.527 1475.44 243.527 1468.33 Q243.527 1461.2 241.699 1457.66 Q239.893 1454.1 236.259 1454.1 M236.259 1450.39 Q242.069 1450.39 245.125 1455 Q248.203 1459.58 248.203 1468.33 Q248.203 1477.06 245.125 1481.67 Q242.069 1486.25 236.259 1486.25 Q230.449 1486.25 227.37 1481.67 Q224.314 1477.06 224.314 1468.33 Q224.314 1459.58 227.37 1455 Q230.449 1450.39 236.259 1450.39 Z" fill="#000000" fill-rule="nonzero" fill-opacity="1" /><path clip-path="url(#clip290)" d="M667.876 1481.64 L675.515 1481.64 L675.515 1455.28 L667.205 1456.95 L667.205 1452.69 L675.468 1451.02 L680.144 1451.02 L680.144 1481.64 L687.783 1481.64 L687.783 1485.58 L667.876 1485.58 L667.876 1481.64 Z" fill="#000000" fill-rule="nonzero" fill-opacity="1" /><path clip-path="url(#clip290)" d="M707.228 1454.1 Q703.616 1454.1 701.788 1457.66 Q699.982 1461.2 699.982 1468.33 Q699.982 1475.44 701.788 1479.01 Q703.616 1482.55 707.228 1482.55 Q710.862 1482.55 712.667 1479.01 Q714.496 1475.44 714.496 1468.33 Q714.496 1461.2 712.667 1457.66 Q710.862 1454.1 707.228 1454.1 M707.228 1450.39 Q713.038 1450.39 716.093 1455 Q719.172 1459.58 719.172 1468.33 Q719.172 1477.06 716.093 1481.67 Q713.038 1486.25 707.228 1486.25 Q701.417 1486.25 698.339 1481.67 Q695.283 1477.06 695.283 1468.33 Q695.283 1459.58 698.339 1455 Q701.417 1450.39 707.228 1450.39 Z" fill="#000000" fill-rule="nonzero" fill-opacity="1" /><path clip-path="url(#clip290)" d="M1128.89 1481.64 L1145.21 1481.64 L1145.21 1485.58 L1123.27 1485.58 L1123.27 1481.64 Q1125.93 1478.89 1130.51 1474.26 Q1135.12 1469.61 1136.3 1468.27 Q1138.54 1465.74 1139.42 1464.01 Q1140.33 1462.25 1140.33 1460.56 Q1140.33 1457.8 1138.38 1456.07 Q1136.46 1454.33 1133.36 1454.33 Q1131.16 1454.33 1128.71 1455.09 Q1126.28 1455.86 1123.5 1457.41 L1123.5 1452.69 Q1126.32 1451.55 1128.78 1450.97 Q1131.23 1450.39 1133.27 1450.39 Q1138.64 1450.39 1141.83 1453.08 Q1145.03 1455.77 1145.03 1460.26 Q1145.03 1462.39 1144.21 1464.31 Q1143.43 1466.2 1141.32 1468.8 Q1140.74 1469.47 1137.64 1472.69 Q1134.54 1475.88 1128.89 1481.64 Z" fill="#000000" fill-rule="nonzero" fill-opacity="1" /><path clip-path="url(#clip290)" d="M1165.02 1454.1 Q1161.41 1454.1 1159.59 1457.66 Q1157.78 1461.2 1157.78 1468.33 Q1157.78 1475.44 1159.59 1479.01 Q1161.41 1482.55 1165.02 1482.55 Q1168.66 1482.55 1170.46 1479.01 Q1172.29 1475.44 1172.29 1468.33 Q1172.29 1461.2 1170.46 1457.66 Q1168.66 1454.1 1165.02 1454.1 M1165.02 1450.39 Q1170.84 1450.39 1173.89 1455 Q1176.97 1459.58 1176.97 1468.33 Q1176.97 1477.06 1173.89 1481.67 Q1170.84 1486.25 1165.02 1486.25 Q1159.21 1486.25 1156.14 1481.67 Q1153.08 1477.06 1153.08 1468.33 Q1153.08 1459.58 1156.14 1455 Q1159.21 1450.39 1165.02 1450.39 Z" fill="#000000" fill-rule="nonzero" fill-opacity="1" /><path clip-path="url(#clip290)" d="M1595.89 1466.95 Q1599.25 1467.66 1601.12 1469.93 Q1603.02 1472.2 1603.02 1475.53 Q1603.02 1480.65 1599.5 1483.45 Q1595.98 1486.25 1589.5 1486.25 Q1587.32 1486.25 1585.01 1485.81 Q1582.72 1485.39 1580.26 1484.54 L1580.26 1480.02 Q1582.21 1481.16 1584.52 1481.74 Q1586.84 1482.32 1589.36 1482.32 Q1593.76 1482.32 1596.05 1480.58 Q1598.37 1478.84 1598.37 1475.53 Q1598.37 1472.48 1596.21 1470.77 Q1594.08 1469.03 1590.26 1469.03 L1586.24 1469.03 L1586.24 1465.19 L1590.45 1465.19 Q1593.9 1465.19 1595.73 1463.82 Q1597.56 1462.43 1597.56 1459.84 Q1597.56 1457.18 1595.66 1455.77 Q1593.78 1454.33 1590.26 1454.33 Q1588.34 1454.33 1586.14 1454.75 Q1583.95 1455.16 1581.31 1456.04 L1581.31 1451.88 Q1583.97 1451.14 1586.28 1450.77 Q1588.62 1450.39 1590.68 1450.39 Q1596.01 1450.39 1599.11 1452.83 Q1602.21 1455.23 1602.21 1459.35 Q1602.21 1462.22 1600.57 1464.21 Q1598.92 1466.18 1595.89 1466.95 Z" fill="#000000" fill-rule="nonzero" fill-opacity="1" /><path clip-path="url(#clip290)" d="M1621.88 1454.1 Q1618.27 1454.1 1616.45 1457.66 Q1614.64 1461.2 1614.64 1468.33 Q1614.64 1475.44 1616.45 1479.01 Q1618.27 1482.55 1621.88 1482.55 Q1625.52 1482.55 1627.32 1479.01 Q1629.15 1475.44 1629.15 1468.33 Q1629.15 1461.2 1627.32 1457.66 Q1625.52 1454.1 1621.88 1454.1 M1621.88 1450.39 Q1627.7 1450.39 1630.75 1455 Q1633.83 1459.58 1633.83 1468.33 Q1633.83 1477.06 1630.75 1481.67 Q1627.7 1486.25 1621.88 1486.25 Q1616.07 1486.25 1613 1481.67 Q1609.94 1477.06 1609.94 1468.33 Q1609.94 1459.58 1613 1455 Q1616.07 1450.39 1621.88 1450.39 Z" fill="#000000" fill-rule="nonzero" fill-opacity="1" /><path clip-path="url(#clip290)" d="M2052.15 1455.09 L2040.34 1473.54 L2052.15 1473.54 L2052.15 1455.09 M2050.92 1451.02 L2056.8 1451.02 L2056.8 1473.54 L2061.73 1473.54 L2061.73 1477.43 L2056.8 1477.43 L2056.8 1485.58 L2052.15 1485.58 L2052.15 1477.43 L2036.55 1477.43 L2036.55 1472.92 L2050.92 1451.02 Z" fill="#000000" fill-rule="nonzero" fill-opacity="1" /><path clip-path="url(#clip290)" d="M2079.46 1454.1 Q2075.85 1454.1 2074.02 1457.66 Q2072.22 1461.2 2072.22 1468.33 Q2072.22 1475.44 2074.02 1479.01 Q2075.85 1482.55 2079.46 1482.55 Q2083.1 1482.55 2084.9 1479.01 Q2086.73 1475.44 2086.73 1468.33 Q2086.73 1461.2 2084.9 1457.66 Q2083.1 1454.1 2079.46 1454.1 M2079.46 1450.39 Q2085.27 1450.39 2088.33 1455 Q2091.41 1459.58 2091.41 1468.33 Q2091.41 1477.06 2088.33 1481.67 Q2085.27 1486.25 2079.46 1486.25 Q2073.65 1486.25 2070.57 1481.67 Q2067.52 1477.06 2067.52 1468.33 Q2067.52 1459.58 2070.57 1455 Q2073.65 1450.39 2079.46 1450.39 Z" fill="#000000" fill-rule="nonzero" fill-opacity="1" /><path clip-path="url(#clip290)" d="M1271.38 1518.52 L1277.27 1518.52 L1277.27 1547.77 L1294.74 1532.4 L1302.22 1532.4 L1283.31 1549.07 L1303.02 1568.04 L1295.38 1568.04 L1277.27 1550.63 L1277.27 1568.04 L1271.38 1568.04 L1271.38 1518.52 Z" fill="#000000" fill-rule="nonzero" fill-opacity="1" /><polyline clip-path="url(#clip292)" style="stroke:#000000; stroke-linecap:round; stroke-linejoin:round; stroke-width:2; stroke-opacity:0.1; fill:none" points="221.637,1142.44 2352.76,1142.44 "/>
<polyline clip-path="url(#clip292)" style="stroke:#000000; stroke-linecap:round; stroke-linejoin:round; stroke-width:2; stroke-opacity:0.1; fill:none" points="221.637,441.445 2352.76,441.445 "/>
<polyline clip-path="url(#clip290)" style="stroke:#000000; stroke-linecap:round; stroke-linejoin:round; stroke-width:4; stroke-opacity:1; fill:none" points="221.637,1423.18 221.637,123.472 "/>
<polyline clip-path="url(#clip290)" style="stroke:#000000; stroke-linecap:round; stroke-linejoin:round; stroke-width:4; stroke-opacity:1; fill:none" points="221.637,1142.44 240.535,1142.44 "/>
<polyline clip-path="url(#clip290)" style="stroke:#000000; stroke-linecap:round; stroke-linejoin:round; stroke-width:4; stroke-opacity:1; fill:none" points="221.637,441.445 240.535,441.445 "/>
<path clip-path="url(#clip290)" d="M114.931 1162.23 L122.57 1162.23 L122.57 1135.87 L114.26 1137.53 L114.26 1133.27 L122.524 1131.61 L127.2 1131.61 L127.2 1162.23 L134.839 1162.23 L134.839 1166.17 L114.931 1166.17 L114.931 1162.23 Z" fill="#000000" fill-rule="nonzero" fill-opacity="1" /><path clip-path="url(#clip290)" d="M154.283 1134.69 Q150.672 1134.69 148.843 1138.25 Q147.038 1141.79 147.038 1148.92 Q147.038 1156.03 148.843 1159.59 Q150.672 1163.14 154.283 1163.14 Q157.917 1163.14 159.723 1159.59 Q161.552 1156.03 161.552 1148.92 Q161.552 1141.79 159.723 1138.25 Q157.917 1134.69 154.283 1134.69 M154.283 1130.98 Q160.093 1130.98 163.149 1135.59 Q166.227 1140.17 166.227 1148.92 Q166.227 1157.65 163.149 1162.26 Q160.093 1166.84 154.283 1166.84 Q148.473 1166.84 145.394 1162.26 Q142.339 1157.65 142.339 1148.92 Q142.339 1140.17 145.394 1135.59 Q148.473 1130.98 154.283 1130.98 Z" fill="#000000" fill-rule="nonzero" fill-opacity="1" /><path clip-path="url(#clip290)" d="M175.932 1113.18 Q172.998 1113.18 171.512 1116.08 Q170.045 1118.95 170.045 1124.75 Q170.045 1130.52 171.512 1133.42 Q172.998 1136.29 175.932 1136.29 Q178.885 1136.29 180.352 1133.42 Q181.838 1130.52 181.838 1124.75 Q181.838 1118.95 180.352 1116.08 Q178.885 1113.18 175.932 1113.18 M175.932 1110.17 Q180.653 1110.17 183.136 1113.91 Q185.637 1117.64 185.637 1124.75 Q185.637 1131.84 183.136 1135.58 Q180.653 1139.3 175.932 1139.3 Q171.212 1139.3 168.71 1135.58 Q166.227 1131.84 166.227 1124.75 Q166.227 1117.64 168.71 1113.91 Q171.212 1110.17 175.932 1110.17 Z" fill="#000000" fill-rule="nonzero" fill-opacity="1" /><path clip-path="url(#clip290)" d="M116.173 461.238 L123.812 461.238 L123.812 434.872 L115.501 436.539 L115.501 432.28 L123.765 430.613 L128.441 430.613 L128.441 461.238 L136.08 461.238 L136.08 465.173 L116.173 465.173 L116.173 461.238 Z" fill="#000000" fill-rule="nonzero" fill-opacity="1" /><path clip-path="url(#clip290)" d="M155.524 433.692 Q151.913 433.692 150.085 437.257 Q148.279 440.798 148.279 447.928 Q148.279 455.034 150.085 458.599 Q151.913 462.141 155.524 462.141 Q159.159 462.141 160.964 458.599 Q162.793 455.034 162.793 447.928 Q162.793 440.798 160.964 437.257 Q159.159 433.692 155.524 433.692 M155.524 429.988 Q161.335 429.988 164.39 434.595 Q167.469 439.178 167.469 447.928 Q167.469 456.655 164.39 461.261 Q161.335 465.844 155.524 465.844 Q149.714 465.844 146.636 461.261 Q143.58 456.655 143.58 447.928 Q143.58 439.178 146.636 434.595 Q149.714 429.988 155.524 429.988 Z" fill="#000000" fill-rule="nonzero" fill-opacity="1" /><path clip-path="url(#clip290)" d="M168.654 409.683 L183.568 409.683 L183.568 412.88 L172.133 412.88 L172.133 419.764 Q172.961 419.482 173.788 419.35 Q174.616 419.199 175.443 419.199 Q180.145 419.199 182.891 421.776 Q185.637 424.353 185.637 428.754 Q185.637 433.286 182.816 435.807 Q179.995 438.308 174.86 438.308 Q173.092 438.308 171.249 438.007 Q169.425 437.706 167.469 437.104 L167.469 433.286 Q169.161 434.208 170.967 434.659 Q172.773 435.111 174.785 435.111 Q178.039 435.111 179.938 433.399 Q181.838 431.688 181.838 428.754 Q181.838 425.82 179.938 424.108 Q178.039 422.397 174.785 422.397 Q173.262 422.397 171.738 422.735 Q170.234 423.074 168.654 423.788 L168.654 409.683 Z" fill="#000000" fill-rule="nonzero" fill-opacity="1" /><path clip-path="url(#clip290)" d="M45.7664 817.313 Q39.4007 817.313 35.8996 819.955 Q32.3984 822.565 32.3984 827.307 Q32.3984 832.018 35.8996 834.66 Q39.4007 837.27 45.7664 837.27 Q52.1003 837.27 55.6014 834.66 Q59.1026 832.018 59.1026 827.307 Q59.1026 822.565 55.6014 819.955 Q52.1003 817.313 45.7664 817.313 M59.58 811.457 Q68.683 811.457 73.1071 815.499 Q77.5631 819.541 77.5631 827.88 Q77.5631 830.967 77.0857 833.705 Q76.6401 836.442 75.6852 839.02 L69.9879 839.02 Q71.3884 836.442 72.0568 833.928 Q72.7252 831.413 72.7252 828.803 Q72.7252 823.042 69.7015 820.178 Q66.7096 817.313 60.6303 817.313 L57.7339 817.313 Q60.885 819.127 62.4446 821.96 Q64.0042 824.793 64.0042 828.739 Q64.0042 835.296 59.0071 839.307 Q54.01 843.317 45.7664 843.317 Q37.491 843.317 32.4939 839.307 Q27.4968 835.296 27.4968 828.739 Q27.4968 824.793 29.0564 821.96 Q30.616 819.127 33.7671 817.313 L28.3562 817.313 L28.3562 811.457 L59.58 811.457 Z" fill="#000000" fill-rule="nonzero" fill-opacity="1" /><path clip-path="url(#clip290)" d="M33.8307 778.737 Q33.2578 779.724 33.0032 780.901 Q32.7167 782.047 32.7167 783.447 Q32.7167 788.413 35.9632 791.086 Q39.1779 793.728 45.2253 793.728 L64.0042 793.728 L64.0042 799.616 L28.3562 799.616 L28.3562 793.728 L33.8944 793.728 Q30.6479 791.882 29.0883 788.922 Q27.4968 785.962 27.4968 781.729 Q27.4968 781.124 27.5923 780.392 Q27.656 779.66 27.8151 778.769 L33.8307 778.737 Z" fill="#000000" fill-rule="nonzero" fill-opacity="1" /><path clip-path="url(#clip290)" d="M46.0847 756.393 Q46.0847 763.491 47.7079 766.228 Q49.3312 768.965 53.2461 768.965 Q56.3653 768.965 58.2114 766.928 Q60.0256 764.86 60.0256 761.327 Q60.0256 756.457 56.5881 753.529 Q53.1188 750.569 47.3897 750.569 L46.0847 750.569 L46.0847 756.393 M43.6657 744.712 L64.0042 744.712 L64.0042 750.569 L58.5933 750.569 Q61.8398 752.574 63.3994 755.566 Q64.9272 758.558 64.9272 762.886 Q64.9272 768.361 61.8716 771.607 Q58.7843 774.822 53.6281 774.822 Q47.6125 774.822 44.5569 770.812 Q41.5014 766.769 41.5014 758.78 L41.5014 750.569 L40.9285 750.569 Q36.8862 750.569 34.6901 753.242 Q32.4621 755.884 32.4621 760.69 Q32.4621 763.746 33.1941 766.642 Q33.9262 769.538 35.3903 772.212 L29.9795 772.212 Q28.7381 768.997 28.1334 765.974 Q27.4968 762.95 27.4968 760.085 Q27.4968 752.351 31.5072 748.532 Q35.5176 744.712 43.6657 744.712 Z" fill="#000000" fill-rule="nonzero" fill-opacity="1" /><path clip-path="url(#clip290)" d="M33.7671 709.191 L14.479 709.191 L14.479 703.335 L64.0042 703.335 L64.0042 709.191 L58.657 709.191 Q61.8398 711.038 63.3994 713.87 Q64.9272 716.671 64.9272 720.618 Q64.9272 727.079 59.771 731.153 Q54.6147 735.195 46.212 735.195 Q37.8093 735.195 32.6531 731.153 Q27.4968 727.079 27.4968 720.618 Q27.4968 716.671 29.0564 713.87 Q30.5842 711.038 33.7671 709.191 M46.212 729.148 Q52.6732 729.148 56.3653 726.506 Q60.0256 723.833 60.0256 719.186 Q60.0256 714.539 56.3653 711.865 Q52.6732 709.191 46.212 709.191 Q39.7508 709.191 36.0905 711.865 Q32.3984 714.539 32.3984 719.186 Q32.3984 723.833 36.0905 726.506 Q39.7508 729.148 46.212 729.148 Z" fill="#000000" fill-rule="nonzero" fill-opacity="1" /><path clip-path="url(#clip290)" d="M942.505 65.7705 L942.505 89.8329 L935.011 89.8329 L935.011 27.2059 L942.505 27.2059 L942.505 34.0924 Q944.855 30.0415 948.419 28.0971 Q952.025 26.1121 957.007 26.1121 Q965.271 26.1121 970.416 32.6746 Q975.601 39.2371 975.601 49.9314 Q975.601 60.6258 970.416 67.1883 Q965.271 73.7508 957.007 73.7508 Q952.025 73.7508 948.419 71.8063 Q944.855 69.8214 942.505 65.7705 M967.864 49.9314 Q967.864 41.7081 964.461 37.0496 Q961.099 32.3505 955.184 32.3505 Q949.27 32.3505 945.867 37.0496 Q942.505 41.7081 942.505 49.9314 Q942.505 58.1548 945.867 62.8538 Q949.27 67.5124 955.184 67.5124 Q961.099 67.5124 964.461 62.8538 Q967.864 58.1548 967.864 49.9314 Z" fill="#000000" fill-rule="nonzero" fill-opacity="1" /><path clip-path="url(#clip290)" d="M1014.25 34.1734 Q1012.99 33.4443 1011.49 33.1202 Q1010.03 32.7556 1008.25 32.7556 Q1001.93 32.7556 998.529 36.8875 Q995.167 40.9789 995.167 48.6757 L995.167 72.576 L987.673 72.576 L987.673 27.2059 L995.167 27.2059 L995.167 34.2544 Q997.516 30.1225 1001.28 28.1376 Q1005.05 26.1121 1010.44 26.1121 Q1011.21 26.1121 1012.14 26.2337 Q1013.07 26.3147 1014.21 26.5172 L1014.25 34.1734 Z" fill="#000000" fill-rule="nonzero" fill-opacity="1" /><path clip-path="url(#clip290)" d="M1037.82 32.4315 Q1031.83 32.4315 1028.34 37.1306 Q1024.86 41.7891 1024.86 49.9314 Q1024.86 58.0738 1028.3 62.7728 Q1031.79 67.4314 1037.82 67.4314 Q1043.78 67.4314 1047.26 62.7323 Q1050.75 58.0333 1050.75 49.9314 Q1050.75 41.8701 1047.26 37.1711 Q1043.78 32.4315 1037.82 32.4315 M1037.82 26.1121 Q1047.55 26.1121 1053.09 32.4315 Q1058.64 38.7509 1058.64 49.9314 Q1058.64 61.0714 1053.09 67.4314 Q1047.55 73.7508 1037.82 73.7508 Q1028.06 73.7508 1022.51 67.4314 Q1017 61.0714 1017 49.9314 Q1017 38.7509 1022.51 32.4315 Q1028.06 26.1121 1037.82 26.1121 Z" fill="#000000" fill-rule="nonzero" fill-opacity="1" /><path clip-path="url(#clip290)" d="M1103.57 49.9314 Q1103.57 41.7081 1100.17 37.0496 Q1096.8 32.3505 1090.89 32.3505 Q1084.98 32.3505 1081.57 37.0496 Q1078.21 41.7081 1078.21 49.9314 Q1078.21 58.1548 1081.57 62.8538 Q1084.98 67.5124 1090.89 67.5124 Q1096.8 67.5124 1100.17 62.8538 Q1103.57 58.1548 1103.57 49.9314 M1078.21 34.0924 Q1080.56 30.0415 1084.12 28.0971 Q1087.73 26.1121 1092.71 26.1121 Q1100.98 26.1121 1106.12 32.6746 Q1111.31 39.2371 1111.31 49.9314 Q1111.31 60.6258 1106.12 67.1883 Q1100.98 73.7508 1092.71 73.7508 Q1087.73 73.7508 1084.12 71.8063 Q1080.56 69.8214 1078.21 65.7705 L1078.21 72.576 L1070.72 72.576 L1070.72 9.54393 L1078.21 9.54393 L1078.21 34.0924 Z" fill="#000000" fill-rule="nonzero" fill-opacity="1" /><path clip-path="url(#clip290)" d="M1123.66 9.54393 L1131.12 9.54393 L1131.12 72.576 L1123.66 72.576 L1123.66 9.54393 Z" fill="#000000" fill-rule="nonzero" fill-opacity="1" /><path clip-path="url(#clip290)" d="M1185.52 48.0275 L1185.52 51.6733 L1151.25 51.6733 Q1151.73 59.3701 1155.87 63.421 Q1160.04 67.4314 1167.45 67.4314 Q1171.75 67.4314 1175.76 66.3781 Q1179.81 65.3249 1183.78 63.2184 L1183.78 70.267 Q1179.77 71.9684 1175.55 72.8596 Q1171.34 73.7508 1167.01 73.7508 Q1156.15 73.7508 1149.79 67.4314 Q1143.47 61.1119 1143.47 50.3365 Q1143.47 39.1965 1149.47 32.6746 Q1155.5 26.1121 1165.71 26.1121 Q1174.86 26.1121 1180.17 32.0264 Q1185.52 37.9003 1185.52 48.0275 M1178.07 45.84 Q1177.98 39.7232 1174.62 36.0774 Q1171.3 32.4315 1165.79 32.4315 Q1159.55 32.4315 1155.79 35.9558 Q1152.06 39.4801 1151.49 45.8805 L1178.07 45.84 M1159.39 6.22219 L1170.81 21.3726 L1164.62 21.3726 L1151.41 6.22219 L1159.39 6.22219 Z" fill="#000000" fill-rule="nonzero" fill-opacity="1" /><path clip-path="url(#clip290)" d="M1233.08 35.9153 Q1235.87 30.8922 1239.76 28.5022 Q1243.65 26.1121 1248.92 26.1121 Q1256 26.1121 1259.85 31.0947 Q1263.7 36.0368 1263.7 45.1919 L1263.7 72.576 L1256.21 72.576 L1256.21 45.4349 Q1256.21 38.913 1253.9 35.7533 Q1251.59 32.5936 1246.85 32.5936 Q1241.06 32.5936 1237.69 36.4419 Q1234.33 40.2903 1234.33 46.9338 L1234.33 72.576 L1226.84 72.576 L1226.84 45.4349 Q1226.84 38.8725 1224.53 35.7533 Q1222.22 32.5936 1217.4 32.5936 Q1211.69 32.5936 1208.33 36.4824 Q1204.96 40.3308 1204.96 46.9338 L1204.96 72.576 L1197.47 72.576 L1197.47 27.2059 L1204.96 27.2059 L1204.96 34.2544 Q1207.52 30.082 1211.08 28.0971 Q1214.64 26.1121 1219.55 26.1121 Q1224.49 26.1121 1227.93 28.6237 Q1231.42 31.1352 1233.08 35.9153 Z" fill="#000000" fill-rule="nonzero" fill-opacity="1" /><path clip-path="url(#clip290)" d="M1317.38 48.0275 L1317.38 51.6733 L1283.11 51.6733 Q1283.59 59.3701 1287.72 63.421 Q1291.9 67.4314 1299.31 67.4314 Q1303.6 67.4314 1307.61 66.3781 Q1311.66 65.3249 1315.63 63.2184 L1315.63 70.267 Q1311.62 71.9684 1307.41 72.8596 Q1303.2 73.7508 1298.86 73.7508 Q1288.01 73.7508 1281.65 67.4314 Q1275.33 61.1119 1275.33 50.3365 Q1275.33 39.1965 1281.32 32.6746 Q1287.36 26.1121 1297.57 26.1121 Q1306.72 26.1121 1312.03 32.0264 Q1317.38 37.9003 1317.38 48.0275 M1309.92 45.84 Q1309.84 39.7232 1306.48 36.0774 Q1303.16 32.4315 1297.65 32.4315 Q1291.41 32.4315 1287.64 35.9558 Q1283.92 39.4801 1283.35 45.8805 L1309.92 45.84 Z" fill="#000000" fill-rule="nonzero" fill-opacity="1" /><path clip-path="url(#clip290)" d="M1357.88 62.2867 L1366.43 62.2867 L1366.43 72.576 L1357.88 72.576 L1357.88 62.2867 M1357.88 29.6769 L1366.43 29.6769 L1366.43 39.9662 L1357.88 39.9662 L1357.88 29.6769 Z" fill="#000000" fill-rule="nonzero" fill-opacity="1" /><path clip-path="url(#clip290)" d="M1417.68 14.324 L1417.68 27.2059 L1433.03 27.2059 L1433.03 32.9987 L1417.68 32.9987 L1417.68 57.6282 Q1417.68 63.1779 1419.17 64.7578 Q1420.71 66.3376 1425.37 66.3376 L1433.03 66.3376 L1433.03 72.576 L1425.37 72.576 Q1416.74 72.576 1413.46 69.3758 Q1410.18 66.1351 1410.18 57.6282 L1410.18 32.9987 L1404.71 32.9987 L1404.71 27.2059 L1410.18 27.2059 L1410.18 14.324 L1417.68 14.324 Z" fill="#000000" fill-rule="nonzero" fill-opacity="1" /><path clip-path="url(#clip290)" d="M1450.04 65.7705 L1450.04 89.8329 L1442.55 89.8329 L1442.55 27.2059 L1450.04 27.2059 L1450.04 34.0924 Q1452.39 30.0415 1455.96 28.0971 Q1459.56 26.1121 1464.55 26.1121 Q1472.81 26.1121 1477.95 32.6746 Q1483.14 39.2371 1483.14 49.9314 Q1483.14 60.6258 1477.95 67.1883 Q1472.81 73.7508 1464.55 73.7508 Q1459.56 73.7508 1455.96 71.8063 Q1452.39 69.8214 1450.04 65.7705 M1475.4 49.9314 Q1475.4 41.7081 1472 37.0496 Q1468.64 32.3505 1462.72 32.3505 Q1456.81 32.3505 1453.41 37.0496 Q1450.04 41.7081 1450.04 49.9314 Q1450.04 58.1548 1453.41 62.8538 Q1456.81 67.5124 1462.72 67.5124 Q1468.64 67.5124 1472 62.8538 Q1475.4 58.1548 1475.4 49.9314 Z" fill="#000000" fill-rule="nonzero" fill-opacity="1" /><path clip-path="url(#clip290)" d="M1503.6 65.6895 L1532.15 65.6895 L1532.15 72.576 L1493.75 72.576 L1493.75 65.6895 Q1498.41 60.8689 1506.43 52.7671 Q1514.49 44.6248 1516.56 42.2752 Q1520.49 37.8598 1522.03 34.8216 Q1523.61 31.7429 1523.61 28.7857 Q1523.61 23.9651 1520.2 20.927 Q1516.84 17.8888 1511.41 17.8888 Q1507.57 17.8888 1503.27 19.2256 Q1499.02 20.5624 1494.16 23.2765 L1494.16 15.0127 Q1499.1 13.0277 1503.39 12.015 Q1507.69 11.0023 1511.25 11.0023 Q1520.65 11.0023 1526.24 15.7013 Q1531.83 20.4004 1531.83 28.2591 Q1531.83 31.9859 1530.41 35.3482 Q1529.04 38.6699 1525.35 43.2069 Q1524.34 44.3817 1518.91 50.0125 Q1513.48 55.6027 1503.6 65.6895 Z" fill="#000000" fill-rule="nonzero" fill-opacity="1" /><path clip-path="url(#clip290)" d="M1550.75 65.6895 L1564.12 65.6895 L1564.12 19.5497 L1549.57 22.4663 L1549.57 15.0127 L1564.04 12.096 L1572.22 12.096 L1572.22 65.6895 L1585.59 65.6895 L1585.59 72.576 L1550.75 72.576 L1550.75 65.6895 Z" fill="#000000" fill-rule="nonzero" fill-opacity="1" /><path clip-path="url(#clip290)" d="M1626.91 39.9662 Q1632.78 41.222 1636.06 45.1919 Q1639.38 49.1618 1639.38 54.9951 Q1639.38 63.9476 1633.22 68.8492 Q1627.07 73.7508 1615.72 73.7508 Q1611.92 73.7508 1607.87 72.9811 Q1603.86 72.2519 1599.56 70.7531 L1599.56 62.8538 Q1602.96 64.8388 1607.02 65.8515 Q1611.07 66.8642 1615.48 66.8642 Q1623.18 66.8642 1627.19 63.826 Q1631.24 60.7879 1631.24 54.9951 Q1631.24 49.6479 1627.47 46.6502 Q1623.75 43.612 1617.06 43.612 L1610.01 43.612 L1610.01 36.8875 L1617.39 36.8875 Q1623.42 36.8875 1626.62 34.4975 Q1629.82 32.067 1629.82 27.5299 Q1629.82 22.8714 1626.5 20.4004 Q1623.22 17.8888 1617.06 17.8888 Q1613.7 17.8888 1609.85 18.618 Q1606 19.3471 1601.38 20.8865 L1601.38 13.5948 Q1606.04 12.2985 1610.09 11.6504 Q1614.19 11.0023 1617.79 11.0023 Q1627.11 11.0023 1632.54 15.2557 Q1637.96 19.4686 1637.96 26.6793 Q1637.96 31.7024 1635.09 35.1862 Q1632.21 38.6294 1626.91 39.9662 Z" fill="#000000" fill-rule="nonzero" fill-opacity="1" /><polyline clip-path="url(#clip292)" style="stroke:#009af9; stroke-linecap:round; stroke-linejoin:round; stroke-width:4; stroke-opacity:1; fill:none" points="281.952,160.256 327.645,282.87 373.338,282.87 419.031,405.484 464.724,405.484 510.416,405.484 556.109,405.484 601.802,405.484 647.495,405.484 693.188,405.484 738.881,405.484 784.574,405.484 830.267,405.484 875.96,405.484 921.653,405.484 967.346,520.41 1013.04,625.187 1058.73,714.191 1104.42,787.405 1150.12,849.646 1195.81,905.371 1241.5,957.272 1287.2,1006.82 1332.89,1054.83 1378.58,1101.84 1424.28,1148.47 1469.97,1195.68 1515.66,1241.21 1561.35,1241.21 1607.05,1244.94 1652.74,1251.15 1698.43,1259.87 1744.13,1259.87 1789.82,1261.07 1835.51,1263.31 1881.2,1267.22 1926.9,1267.22 1972.59,1267.92 2018.28,1269.28 2063.98,1271.84 2109.67,1276.53 2155.36,1276.53 2201.06,1277.42 2246.75,1279.15 2292.44,1282.46 "/>
<polyline clip-path="url(#clip292)" style="stroke:#e26f46; stroke-linecap:round; stroke-linejoin:round; stroke-width:4; stroke-opacity:1; fill:none" points="281.952,160.256 327.645,282.87 373.338,405.484 419.031,528.098 464.724,650.712 510.416,773.326 556.109,895.94 601.802,1018.55 647.495,1141.17 693.188,1263.78 738.881,1386.4 "/>
<polyline clip-path="url(#clip292)" style="stroke:#3da44d; stroke-linecap:round; stroke-linejoin:round; stroke-width:4; stroke-opacity:1; fill:none" points="281.952,160.256 327.645,282.87 373.338,282.87 419.031,405.484 464.724,405.484 510.416,405.484 556.109,405.484 601.802,405.484 647.495,405.484 693.188,405.484 738.881,405.484 784.574,405.484 830.267,405.484 875.96,405.484 921.653,405.484 967.346,405.484 1013.04,478.994 1058.73,542.023 1104.42,598.898 1150.12,652.256 1195.81,703.566 1241.5,753.63 1287.2,802.883 1332.89,851.553 1378.58,899.742 1424.28,947.48 1469.97,994.756 1515.66,1041.55 1561.35,1087.91 1607.05,1134.06 1652.74,1180.69 1698.43,1227.74 1744.13,1260.68 1789.82,1276.11 1835.51,1298.44 "/>
<polyline clip-path="url(#clip292)" style="stroke:#c271d2; stroke-linecap:round; stroke-linejoin:round; stroke-width:4; stroke-opacity:1; fill:none" points="281.952,160.256 327.645,282.87 373.338,405.484 419.031,528.098 464.724,650.712 510.416,773.326 556.109,895.94 601.802,1018.55 647.495,1141.17 693.188,1263.78 738.881,1386.4 "/>
<polyline clip-path="url(#clip292)" style="stroke:#ac8d18; stroke-linecap:round; stroke-linejoin:round; stroke-width:4; stroke-opacity:1; fill:none" points="281.952,160.256 327.645,282.87 373.338,405.484 419.031,528.098 464.724,650.712 510.416,773.326 556.109,895.94 601.802,1018.55 647.495,1141.17 693.188,1263.78 738.881,1386.4 "/>
<path clip-path="url(#clip290)" d="M1745.51 477.836 L2281.72 477.836 L2281.72 166.796 L1745.51 166.796  Z" fill="#ffffff" fill-rule="evenodd" fill-opacity="1"/>
<polyline clip-path="url(#clip290)" style="stroke:#000000; stroke-linecap:round; stroke-linejoin:round; stroke-width:4; stroke-opacity:1; fill:none" points="1745.51,477.836 2281.72,477.836 2281.72,166.796 1745.51,166.796 1745.51,477.836 "/>
<polyline clip-path="url(#clip290)" style="stroke:#009af9; stroke-linecap:round; stroke-linejoin:round; stroke-width:4; stroke-opacity:1; fill:none" points="1769.19,218.636 1911.26,218.636 "/>
<path clip-path="url(#clip290)" d="M1934.94 201.356 L1939.62 201.356 L1939.62 231.981 L1956.44 231.981 L1956.44 235.916 L1934.94 235.916 L1934.94 201.356 Z" fill="#000000" fill-rule="nonzero" fill-opacity="1" /><path clip-path="url(#clip290)" d="M1961.35 201.356 L1968.32 201.356 L1977.14 224.874 L1986 201.356 L1992.97 201.356 L1992.97 235.916 L1988.41 235.916 L1988.41 205.569 L1979.5 229.272 L1974.8 229.272 L1965.89 205.569 L1965.89 235.916 L1961.35 235.916 L1961.35 201.356 Z" fill="#000000" fill-rule="nonzero" fill-opacity="1" /><path clip-path="url(#clip290)" d="M2021.77 243.786 L2021.77 247.096 L1997.14 247.096 L1997.14 243.786 L2021.77 243.786 Z" fill="#000000" fill-rule="nonzero" fill-opacity="1" /><path clip-path="url(#clip290)" d="M2046.67 202.49 L2046.67 207.05 Q2044.01 205.777 2041.65 205.152 Q2039.29 204.527 2037.09 204.527 Q2033.27 204.527 2031.19 206.008 Q2029.13 207.49 2029.13 210.221 Q2029.13 212.513 2030.49 213.694 Q2031.88 214.851 2035.73 215.569 L2038.55 216.147 Q2043.78 217.143 2046.26 219.666 Q2048.76 222.166 2048.76 226.379 Q2048.76 231.402 2045.38 233.994 Q2042.02 236.587 2035.52 236.587 Q2033.06 236.587 2030.29 236.031 Q2027.53 235.476 2024.57 234.388 L2024.57 229.573 Q2027.42 231.17 2030.15 231.981 Q2032.88 232.791 2035.52 232.791 Q2039.52 232.791 2041.7 231.217 Q2043.87 229.643 2043.87 226.726 Q2043.87 224.18 2042.3 222.744 Q2040.75 221.309 2037.18 220.592 L2034.34 220.036 Q2029.11 218.995 2026.77 216.772 Q2024.43 214.55 2024.43 210.592 Q2024.43 206.008 2027.65 203.37 Q2030.89 200.731 2036.56 200.731 Q2038.99 200.731 2041.51 201.171 Q2044.04 201.61 2046.67 202.49 Z" fill="#000000" fill-rule="nonzero" fill-opacity="1" /><path clip-path="url(#clip290)" d="M2060.73 205.198 L2060.73 218.184 L2066.61 218.184 Q2069.87 218.184 2071.65 216.495 Q2073.43 214.805 2073.43 211.68 Q2073.43 208.578 2071.65 206.888 Q2069.87 205.198 2066.61 205.198 L2060.73 205.198 M2056.05 201.356 L2066.61 201.356 Q2072.42 201.356 2075.38 203.995 Q2078.36 206.61 2078.36 211.68 Q2078.36 216.795 2075.38 219.411 Q2072.42 222.027 2066.61 222.027 L2060.73 222.027 L2060.73 235.916 L2056.05 235.916 L2056.05 201.356 Z" fill="#000000" fill-rule="nonzero" fill-opacity="1" /><path clip-path="url(#clip290)" d="M2108.2 230.985 L2108.2 221.703 L2100.56 221.703 L2100.56 217.86 L2112.83 217.86 L2112.83 232.698 Q2110.12 234.619 2106.86 235.615 Q2103.6 236.587 2099.89 236.587 Q2091.79 236.587 2087.21 231.865 Q2082.65 227.119 2082.65 218.67 Q2082.65 210.198 2087.21 205.476 Q2091.79 200.731 2099.89 200.731 Q2103.27 200.731 2106.3 201.564 Q2109.36 202.397 2111.93 204.018 L2111.93 208.995 Q2109.34 206.796 2106.42 205.684 Q2103.5 204.573 2100.29 204.573 Q2093.94 204.573 2090.75 208.115 Q2087.58 211.657 2087.58 218.67 Q2087.58 225.661 2090.75 229.203 Q2093.94 232.744 2100.29 232.744 Q2102.76 232.744 2104.71 232.328 Q2106.65 231.888 2108.2 230.985 Z" fill="#000000" fill-rule="nonzero" fill-opacity="1" /><polyline clip-path="url(#clip290)" style="stroke:#e26f46; stroke-linecap:round; stroke-linejoin:round; stroke-width:4; stroke-opacity:1; fill:none" points="1769.19,270.476 1911.26,270.476 "/>
<path clip-path="url(#clip290)" d="M1934.94 253.196 L1939.62 253.196 L1939.62 283.821 L1956.44 283.821 L1956.44 287.756 L1934.94 287.756 L1934.94 253.196 Z" fill="#000000" fill-rule="nonzero" fill-opacity="1" /><path clip-path="url(#clip290)" d="M1961.35 253.196 L1968.32 253.196 L1977.14 276.714 L1986 253.196 L1992.97 253.196 L1992.97 287.756 L1988.41 287.756 L1988.41 257.409 L1979.5 281.112 L1974.8 281.112 L1965.89 257.409 L1965.89 287.756 L1961.35 287.756 L1961.35 253.196 Z" fill="#000000" fill-rule="nonzero" fill-opacity="1" /><path clip-path="url(#clip290)" d="M2021.77 295.626 L2021.77 298.936 L1997.14 298.936 L1997.14 295.626 L2021.77 295.626 Z" fill="#000000" fill-rule="nonzero" fill-opacity="1" /><path clip-path="url(#clip290)" d="M2037.51 257.802 L2031.17 275.001 L2043.87 275.001 L2037.51 257.802 M2034.87 253.196 L2040.17 253.196 L2053.34 287.756 L2048.48 287.756 L2045.33 278.89 L2029.75 278.89 L2026.61 287.756 L2021.68 287.756 L2034.87 253.196 Z" fill="#000000" fill-rule="nonzero" fill-opacity="1" /><path clip-path="url(#clip290)" d="M2079.75 272.108 L2079.75 287.756 L2075.49 287.756 L2075.49 272.247 Q2075.49 268.566 2074.06 266.737 Q2072.62 264.909 2069.75 264.909 Q2066.3 264.909 2064.31 267.108 Q2062.32 269.307 2062.32 273.103 L2062.32 287.756 L2058.04 287.756 L2058.04 261.83 L2062.32 261.83 L2062.32 265.858 Q2063.85 263.52 2065.91 262.362 Q2067.99 261.205 2070.7 261.205 Q2075.17 261.205 2077.46 263.983 Q2079.75 266.737 2079.75 272.108 Z" fill="#000000" fill-rule="nonzero" fill-opacity="1" /><path clip-path="url(#clip290)" d="M2105.31 265.765 L2105.31 251.737 L2109.57 251.737 L2109.57 287.756 L2105.31 287.756 L2105.31 283.867 Q2103.97 286.182 2101.91 287.316 Q2099.87 288.427 2097 288.427 Q2092.3 288.427 2089.34 284.677 Q2086.4 280.927 2086.4 274.816 Q2086.4 268.705 2089.34 264.955 Q2092.3 261.205 2097 261.205 Q2099.87 261.205 2101.91 262.339 Q2103.97 263.45 2105.31 265.765 M2090.8 274.816 Q2090.8 279.515 2092.72 282.2 Q2094.66 284.862 2098.04 284.862 Q2101.42 284.862 2103.36 282.2 Q2105.31 279.515 2105.31 274.816 Q2105.31 270.117 2103.36 267.455 Q2101.42 264.77 2098.04 264.77 Q2094.66 264.77 2092.72 267.455 Q2090.8 270.117 2090.8 274.816 Z" fill="#000000" fill-rule="nonzero" fill-opacity="1" /><path clip-path="url(#clip290)" d="M2133.36 265.811 Q2132.65 265.395 2131.79 265.21 Q2130.96 265.001 2129.94 265.001 Q2126.33 265.001 2124.38 267.362 Q2122.46 269.7 2122.46 274.098 L2122.46 287.756 L2118.18 287.756 L2118.18 261.83 L2122.46 261.83 L2122.46 265.858 Q2123.8 263.497 2125.96 262.362 Q2128.11 261.205 2131.19 261.205 Q2131.63 261.205 2132.16 261.274 Q2132.69 261.321 2133.34 261.436 L2133.36 265.811 Z" fill="#000000" fill-rule="nonzero" fill-opacity="1" /><path clip-path="url(#clip290)" d="M2158.97 273.728 L2158.97 275.811 L2139.38 275.811 Q2139.66 280.209 2142.02 282.524 Q2144.41 284.816 2148.64 284.816 Q2151.1 284.816 2153.39 284.214 Q2155.7 283.612 2157.97 282.409 L2157.97 286.436 Q2155.68 287.408 2153.27 287.918 Q2150.86 288.427 2148.39 288.427 Q2142.18 288.427 2138.55 284.816 Q2134.94 281.205 2134.94 275.047 Q2134.94 268.682 2138.36 264.955 Q2141.81 261.205 2147.65 261.205 Q2152.88 261.205 2155.91 264.585 Q2158.97 267.941 2158.97 273.728 M2154.71 272.478 Q2154.66 268.983 2152.74 266.899 Q2150.84 264.816 2147.69 264.816 Q2144.13 264.816 2141.98 266.83 Q2139.85 268.844 2139.52 272.501 L2154.71 272.478 Z" fill="#000000" fill-rule="nonzero" fill-opacity="1" /><path clip-path="url(#clip290)" d="M2165.96 261.83 L2170.22 261.83 L2170.22 287.756 L2165.96 287.756 L2165.96 261.83 M2165.96 251.737 L2170.22 251.737 L2170.22 257.131 L2165.96 257.131 L2165.96 251.737 Z" fill="#000000" fill-rule="nonzero" fill-opacity="1" /><path clip-path="url(#clip290)" d="M2198.83 295.626 L2198.83 298.936 L2174.2 298.936 L2174.2 295.626 L2198.83 295.626 Z" fill="#000000" fill-rule="nonzero" fill-opacity="1" /><path clip-path="url(#clip290)" d="M2214.61 274.723 Q2209.45 274.723 2207.46 275.904 Q2205.47 277.084 2205.47 279.932 Q2205.47 282.2 2206.95 283.543 Q2208.46 284.862 2211.03 284.862 Q2214.57 284.862 2216.7 282.362 Q2218.85 279.839 2218.85 275.672 L2218.85 274.723 L2214.61 274.723 M2223.11 272.964 L2223.11 287.756 L2218.85 287.756 L2218.85 283.821 Q2217.39 286.182 2215.22 287.316 Q2213.04 288.427 2209.89 288.427 Q2205.91 288.427 2203.55 286.205 Q2201.21 283.959 2201.21 280.209 Q2201.21 275.834 2204.13 273.612 Q2207.07 271.39 2212.88 271.39 L2218.85 271.39 L2218.85 270.973 Q2218.85 268.034 2216.91 266.436 Q2214.98 264.816 2211.49 264.816 Q2209.27 264.816 2207.16 265.348 Q2205.05 265.881 2203.11 266.946 L2203.11 263.01 Q2205.45 262.108 2207.65 261.668 Q2209.85 261.205 2211.93 261.205 Q2217.55 261.205 2220.33 264.122 Q2223.11 267.038 2223.11 272.964 Z" fill="#000000" fill-rule="nonzero" fill-opacity="1" /><path clip-path="url(#clip290)" d="M2231.88 251.737 L2236.14 251.737 L2236.14 287.756 L2231.88 287.756 L2231.88 251.737 Z" fill="#000000" fill-rule="nonzero" fill-opacity="1" /><path clip-path="url(#clip290)" d="M2249.27 254.469 L2249.27 261.83 L2258.04 261.83 L2258.04 265.14 L2249.27 265.14 L2249.27 279.214 Q2249.27 282.385 2250.12 283.288 Q2251 284.191 2253.66 284.191 L2258.04 284.191 L2258.04 287.756 L2253.66 287.756 Q2248.73 287.756 2246.86 285.927 Q2244.98 284.075 2244.98 279.214 L2244.98 265.14 L2241.86 265.14 L2241.86 261.83 L2244.98 261.83 L2244.98 254.469 L2249.27 254.469 Z" fill="#000000" fill-rule="nonzero" fill-opacity="1" /><polyline clip-path="url(#clip290)" style="stroke:#3da44d; stroke-linecap:round; stroke-linejoin:round; stroke-width:4; stroke-opacity:1; fill:none" points="1769.19,322.316 1911.26,322.316 "/>
<path clip-path="url(#clip290)" d="M1934.94 305.036 L1939.62 305.036 L1939.62 335.661 L1956.44 335.661 L1956.44 339.596 L1934.94 339.596 L1934.94 305.036 Z" fill="#000000" fill-rule="nonzero" fill-opacity="1" /><path clip-path="url(#clip290)" d="M1961.35 305.036 L1968.32 305.036 L1977.14 328.554 L1986 305.036 L1992.97 305.036 L1992.97 339.596 L1988.41 339.596 L1988.41 309.249 L1979.5 332.952 L1974.8 332.952 L1965.89 309.249 L1965.89 339.596 L1961.35 339.596 L1961.35 305.036 Z" fill="#000000" fill-rule="nonzero" fill-opacity="1" /><path clip-path="url(#clip290)" d="M2021.77 347.466 L2021.77 350.776 L1997.14 350.776 L1997.14 347.466 L2021.77 347.466 Z" fill="#000000" fill-rule="nonzero" fill-opacity="1" /><path clip-path="url(#clip290)" d="M2037.51 309.642 L2031.17 326.841 L2043.87 326.841 L2037.51 309.642 M2034.87 305.036 L2040.17 305.036 L2053.34 339.596 L2048.48 339.596 L2045.33 330.73 L2029.75 330.73 L2026.61 339.596 L2021.68 339.596 L2034.87 305.036 Z" fill="#000000" fill-rule="nonzero" fill-opacity="1" /><path clip-path="url(#clip290)" d="M2079.75 323.948 L2079.75 339.596 L2075.49 339.596 L2075.49 324.087 Q2075.49 320.406 2074.06 318.577 Q2072.62 316.749 2069.75 316.749 Q2066.3 316.749 2064.31 318.948 Q2062.32 321.147 2062.32 324.943 L2062.32 339.596 L2058.04 339.596 L2058.04 313.67 L2062.32 313.67 L2062.32 317.698 Q2063.85 315.36 2065.91 314.202 Q2067.99 313.045 2070.7 313.045 Q2075.17 313.045 2077.46 315.823 Q2079.75 318.577 2079.75 323.948 Z" fill="#000000" fill-rule="nonzero" fill-opacity="1" /><path clip-path="url(#clip290)" d="M2105.31 317.605 L2105.31 303.577 L2109.57 303.577 L2109.57 339.596 L2105.31 339.596 L2105.31 335.707 Q2103.97 338.022 2101.91 339.156 Q2099.87 340.267 2097 340.267 Q2092.3 340.267 2089.34 336.517 Q2086.4 332.767 2086.4 326.656 Q2086.4 320.545 2089.34 316.795 Q2092.3 313.045 2097 313.045 Q2099.87 313.045 2101.91 314.179 Q2103.97 315.29 2105.31 317.605 M2090.8 326.656 Q2090.8 331.355 2092.72 334.04 Q2094.66 336.702 2098.04 336.702 Q2101.42 336.702 2103.36 334.04 Q2105.31 331.355 2105.31 326.656 Q2105.31 321.957 2103.36 319.295 Q2101.42 316.61 2098.04 316.61 Q2094.66 316.61 2092.72 319.295 Q2090.8 321.957 2090.8 326.656 Z" fill="#000000" fill-rule="nonzero" fill-opacity="1" /><path clip-path="url(#clip290)" d="M2133.36 317.651 Q2132.65 317.235 2131.79 317.05 Q2130.96 316.841 2129.94 316.841 Q2126.33 316.841 2124.38 319.202 Q2122.46 321.54 2122.46 325.938 L2122.46 339.596 L2118.18 339.596 L2118.18 313.67 L2122.46 313.67 L2122.46 317.698 Q2123.8 315.337 2125.96 314.202 Q2128.11 313.045 2131.19 313.045 Q2131.63 313.045 2132.16 313.114 Q2132.69 313.161 2133.34 313.276 L2133.36 317.651 Z" fill="#000000" fill-rule="nonzero" fill-opacity="1" /><path clip-path="url(#clip290)" d="M2158.97 325.568 L2158.97 327.651 L2139.38 327.651 Q2139.66 332.049 2142.02 334.364 Q2144.41 336.656 2148.64 336.656 Q2151.1 336.656 2153.39 336.054 Q2155.7 335.452 2157.97 334.249 L2157.97 338.276 Q2155.68 339.248 2153.27 339.758 Q2150.86 340.267 2148.39 340.267 Q2142.18 340.267 2138.55 336.656 Q2134.94 333.045 2134.94 326.887 Q2134.94 320.522 2138.36 316.795 Q2141.81 313.045 2147.65 313.045 Q2152.88 313.045 2155.91 316.425 Q2158.97 319.781 2158.97 325.568 M2154.71 324.318 Q2154.66 320.823 2152.74 318.739 Q2150.84 316.656 2147.69 316.656 Q2144.13 316.656 2141.98 318.67 Q2139.85 320.684 2139.52 324.341 L2154.71 324.318 Z" fill="#000000" fill-rule="nonzero" fill-opacity="1" /><path clip-path="url(#clip290)" d="M2165.96 313.67 L2170.22 313.67 L2170.22 339.596 L2165.96 339.596 L2165.96 313.67 M2165.96 303.577 L2170.22 303.577 L2170.22 308.971 L2165.96 308.971 L2165.96 303.577 Z" fill="#000000" fill-rule="nonzero" fill-opacity="1" /><polyline clip-path="url(#clip290)" style="stroke:#c271d2; stroke-linecap:round; stroke-linejoin:round; stroke-width:4; stroke-opacity:1; fill:none" points="1769.19,374.156 1911.26,374.156 "/>
<path clip-path="url(#clip290)" d="M1934.94 356.876 L1939.62 356.876 L1939.62 387.501 L1956.44 387.501 L1956.44 391.436 L1934.94 391.436 L1934.94 356.876 Z" fill="#000000" fill-rule="nonzero" fill-opacity="1" /><path clip-path="url(#clip290)" d="M1961.35 356.876 L1968.32 356.876 L1977.14 380.394 L1986 356.876 L1992.97 356.876 L1992.97 391.436 L1988.41 391.436 L1988.41 361.089 L1979.5 384.792 L1974.8 384.792 L1965.89 361.089 L1965.89 391.436 L1961.35 391.436 L1961.35 356.876 Z" fill="#000000" fill-rule="nonzero" fill-opacity="1" /><path clip-path="url(#clip290)" d="M2021.77 399.306 L2021.77 402.616 L1997.14 402.616 L1997.14 399.306 L2021.77 399.306 Z" fill="#000000" fill-rule="nonzero" fill-opacity="1" /><path clip-path="url(#clip290)" d="M2046.67 358.01 L2046.67 362.57 Q2044.01 361.297 2041.65 360.672 Q2039.29 360.047 2037.09 360.047 Q2033.27 360.047 2031.19 361.528 Q2029.13 363.01 2029.13 365.741 Q2029.13 368.033 2030.49 369.214 Q2031.88 370.371 2035.73 371.089 L2038.55 371.667 Q2043.78 372.663 2046.26 375.186 Q2048.76 377.686 2048.76 381.899 Q2048.76 386.922 2045.38 389.514 Q2042.02 392.107 2035.52 392.107 Q2033.06 392.107 2030.29 391.551 Q2027.53 390.996 2024.57 389.908 L2024.57 385.093 Q2027.42 386.69 2030.15 387.501 Q2032.88 388.311 2035.52 388.311 Q2039.52 388.311 2041.7 386.737 Q2043.87 385.163 2043.87 382.246 Q2043.87 379.7 2042.3 378.264 Q2040.75 376.829 2037.18 376.112 L2034.34 375.556 Q2029.11 374.515 2026.77 372.292 Q2024.43 370.07 2024.43 366.112 Q2024.43 361.528 2027.65 358.89 Q2030.89 356.251 2036.56 356.251 Q2038.99 356.251 2041.51 356.691 Q2044.04 357.13 2046.67 358.01 Z" fill="#000000" fill-rule="nonzero" fill-opacity="1" /><path clip-path="url(#clip290)" d="M2060.73 360.718 L2060.73 373.704 L2066.61 373.704 Q2069.87 373.704 2071.65 372.015 Q2073.43 370.325 2073.43 367.2 Q2073.43 364.098 2071.65 362.408 Q2069.87 360.718 2066.61 360.718 L2060.73 360.718 M2056.05 356.876 L2066.61 356.876 Q2072.42 356.876 2075.38 359.515 Q2078.36 362.13 2078.36 367.2 Q2078.36 372.315 2075.38 374.931 Q2072.42 377.547 2066.61 377.547 L2060.73 377.547 L2060.73 391.436 L2056.05 391.436 L2056.05 356.876 Z" fill="#000000" fill-rule="nonzero" fill-opacity="1" /><path clip-path="url(#clip290)" d="M2108.2 386.505 L2108.2 377.223 L2100.56 377.223 L2100.56 373.38 L2112.83 373.38 L2112.83 388.218 Q2110.12 390.139 2106.86 391.135 Q2103.6 392.107 2099.89 392.107 Q2091.79 392.107 2087.21 387.385 Q2082.65 382.639 2082.65 374.19 Q2082.65 365.718 2087.21 360.996 Q2091.79 356.251 2099.89 356.251 Q2103.27 356.251 2106.3 357.084 Q2109.36 357.917 2111.93 359.538 L2111.93 364.515 Q2109.34 362.316 2106.42 361.204 Q2103.5 360.093 2100.29 360.093 Q2093.94 360.093 2090.75 363.635 Q2087.58 367.177 2087.58 374.19 Q2087.58 381.181 2090.75 384.723 Q2093.94 388.264 2100.29 388.264 Q2102.76 388.264 2104.71 387.848 Q2106.65 387.408 2108.2 386.505 Z" fill="#000000" fill-rule="nonzero" fill-opacity="1" /><path clip-path="url(#clip290)" d="M2140.89 399.306 L2140.89 402.616 L2116.26 402.616 L2116.26 399.306 L2140.89 399.306 Z" fill="#000000" fill-rule="nonzero" fill-opacity="1" /><path clip-path="url(#clip290)" d="M2156.67 378.403 Q2151.51 378.403 2149.52 379.584 Q2147.53 380.764 2147.53 383.612 Q2147.53 385.88 2149.01 387.223 Q2150.52 388.542 2153.09 388.542 Q2156.63 388.542 2158.76 386.042 Q2160.91 383.519 2160.91 379.352 L2160.91 378.403 L2156.67 378.403 M2165.17 376.644 L2165.17 391.436 L2160.91 391.436 L2160.91 387.501 Q2159.45 389.862 2157.28 390.996 Q2155.1 392.107 2151.95 392.107 Q2147.97 392.107 2145.61 389.885 Q2143.27 387.639 2143.27 383.889 Q2143.27 379.514 2146.19 377.292 Q2149.13 375.07 2154.94 375.07 L2160.91 375.07 L2160.91 374.653 Q2160.91 371.714 2158.97 370.116 Q2157.04 368.496 2153.55 368.496 Q2151.33 368.496 2149.22 369.028 Q2147.11 369.561 2145.17 370.626 L2145.17 366.69 Q2147.51 365.788 2149.71 365.348 Q2151.91 364.885 2153.99 364.885 Q2159.61 364.885 2162.39 367.802 Q2165.17 370.718 2165.17 376.644 Z" fill="#000000" fill-rule="nonzero" fill-opacity="1" /><path clip-path="url(#clip290)" d="M2173.94 355.417 L2178.2 355.417 L2178.2 391.436 L2173.94 391.436 L2173.94 355.417 Z" fill="#000000" fill-rule="nonzero" fill-opacity="1" /><path clip-path="url(#clip290)" d="M2191.33 358.149 L2191.33 365.51 L2200.1 365.51 L2200.1 368.82 L2191.33 368.82 L2191.33 382.894 Q2191.33 386.065 2192.18 386.968 Q2193.06 387.871 2195.73 387.871 L2200.1 387.871 L2200.1 391.436 L2195.73 391.436 Q2190.79 391.436 2188.92 389.607 Q2187.04 387.755 2187.04 382.894 L2187.04 368.82 L2183.92 368.82 L2183.92 365.51 L2187.04 365.51 L2187.04 358.149 L2191.33 358.149 Z" fill="#000000" fill-rule="nonzero" fill-opacity="1" /><polyline clip-path="url(#clip290)" style="stroke:#ac8d18; stroke-linecap:round; stroke-linejoin:round; stroke-width:4; stroke-opacity:1; fill:none" points="1769.19,425.996 1911.26,425.996 "/>
<path clip-path="url(#clip290)" d="M1934.94 408.716 L1939.62 408.716 L1939.62 439.341 L1956.44 439.341 L1956.44 443.276 L1934.94 443.276 L1934.94 408.716 Z" fill="#000000" fill-rule="nonzero" fill-opacity="1" /><path clip-path="url(#clip290)" d="M1961.35 408.716 L1968.32 408.716 L1977.14 432.234 L1986 408.716 L1992.97 408.716 L1992.97 443.276 L1988.41 443.276 L1988.41 412.929 L1979.5 436.632 L1974.8 436.632 L1965.89 412.929 L1965.89 443.276 L1961.35 443.276 L1961.35 408.716 Z" fill="#000000" fill-rule="nonzero" fill-opacity="1" /></svg>
