<?xml version="1.0" encoding="utf-8"?>
<svg xmlns="http://www.w3.org/2000/svg" xmlns:xlink="http://www.w3.org/1999/xlink" width="600" height="400" viewBox="0 0 2400 1600">
<defs>
  <clipPath id="clip820">
    <rect x="0" y="0" width="2400" height="1600"/>
  </clipPath>
</defs>
<path clip-path="url(#clip820)" d="M0 1600 L2400 1600 L2400 0 L0 0  Z" fill="#ffffff" fill-rule="evenodd" fill-opacity="1"/>
<defs>
  <clipPath id="clip821">
    <rect x="480" y="0" width="1681" height="1600"/>
  </clipPath>
</defs>
<path clip-path="url(#clip820)" d="M251.842 1423.18 L2352.76 1423.18 L2352.76 123.472 L251.842 123.472  Z" fill="#ffffff" fill-rule="evenodd" fill-opacity="1"/>
<defs>
  <clipPath id="clip822">
    <rect x="251" y="123" width="2102" height="1301"/>
  </clipPath>
</defs>
<polyline clip-path="url(#clip822)" style="stroke:#000000; stroke-linecap:round; stroke-linejoin:round; stroke-width:2; stroke-opacity:0.1; fill:none" points="309.32,1423.18 309.32,123.472 "/>
<polyline clip-path="url(#clip822)" style="stroke:#000000; stroke-linecap:round; stroke-linejoin:round; stroke-width:2; stroke-opacity:0.1; fill:none" points="804.819,1423.18 804.819,123.472 "/>
<polyline clip-path="url(#clip822)" style="stroke:#000000; stroke-linecap:round; stroke-linejoin:round; stroke-width:2; stroke-opacity:0.1; fill:none" points="1300.32,1423.18 1300.32,123.472 "/>
<polyline clip-path="url(#clip822)" style="stroke:#000000; stroke-linecap:round; stroke-linejoin:round; stroke-width:2; stroke-opacity:0.1; fill:none" points="1795.82,1423.18 1795.82,123.472 "/>
<polyline clip-path="url(#clip822)" style="stroke:#000000; stroke-linecap:round; stroke-linejoin:round; stroke-width:2; stroke-opacity:0.1; fill:none" points="2291.31,1423.18 2291.31,123.472 "/>
<polyline clip-path="url(#clip820)" style="stroke:#000000; stroke-linecap:round; stroke-linejoin:round; stroke-width:4; stroke-opacity:1; fill:none" points="251.842,1423.18 2352.76,1423.18 "/>
<polyline clip-path="url(#clip820)" style="stroke:#000000; stroke-linecap:round; stroke-linejoin:round; stroke-width:4; stroke-opacity:1; fill:none" points="309.32,1423.18 309.32,1404.28 "/>
<polyline clip-path="url(#clip820)" style="stroke:#000000; stroke-linecap:round; stroke-linejoin:round; stroke-width:4; stroke-opacity:1; fill:none" points="804.819,1423.18 804.819,1404.28 "/>
<polyline clip-path="url(#clip820)" style="stroke:#000000; stroke-linecap:round; stroke-linejoin:round; stroke-width:4; stroke-opacity:1; fill:none" points="1300.32,1423.18 1300.32,1404.28 "/>
<polyline clip-path="url(#clip820)" style="stroke:#000000; stroke-linecap:round; stroke-linejoin:round; stroke-width:4; stroke-opacity:1; fill:none" points="1795.82,1423.18 1795.82,1404.28 "/>
<polyline clip-path="url(#clip820)" style="stroke:#000000; stroke-linecap:round; stroke-linejoin:round; stroke-width:4; stroke-opacity:1; fill:none" points="2291.31,1423.18 2291.31,1404.28 "/>
<path clip-path="url(#clip820)" d="M309.32 1454.1 Q305.709 1454.1 303.88 1457.66 Q302.075 1461.2 302.075 1468.33 Q302.075 1475.44 303.88 1479.01 Q305.709 1482.55 309.32 1482.55 Q312.954 1482.55 314.76 1479.01 Q316.589 1475.44 316.589 1468.33 Q316.589 1461.2 314.76 1457.66 Q312.954 1454.1 309.32 1454.1 M309.32 1450.39 Q315.13 1450.39 318.186 1455 Q321.265 1459.58 321.265 1468.33 Q321.265 1477.06 318.186 1481.67 Q315.13 1486.25 309.32 1486.25 Q303.51 1486.25 300.431 1481.67 Q297.376 1477.06 297.376 1468.33 Q297.376 1459.58 300.431 1455 Q303.51 1450.39 309.32 1450.39 Z" fill="#000000" fill-rule="nonzero" fill-opacity="1" /><path clip-path="url(#clip820)" d="M768.511 1481.64 L784.83 1481.64 L784.83 1485.58 L762.886 1485.58 L762.886 1481.64 Q765.548 1478.89 770.131 1474.26 Q774.738 1469.61 775.918 1468.27 Q778.164 1465.74 779.043 1464.01 Q779.946 1462.25 779.946 1460.56 Q779.946 1457.8 778.002 1456.07 Q776.08 1454.33 772.979 1454.33 Q770.779 1454.33 768.326 1455.09 Q765.895 1455.86 763.118 1457.41 L763.118 1452.69 Q765.942 1451.55 768.395 1450.97 Q770.849 1450.39 772.886 1450.39 Q778.256 1450.39 781.451 1453.08 Q784.645 1455.77 784.645 1460.26 Q784.645 1462.39 783.835 1464.31 Q783.048 1466.2 780.941 1468.8 Q780.363 1469.47 777.261 1472.69 Q774.159 1475.88 768.511 1481.64 Z" fill="#000000" fill-rule="nonzero" fill-opacity="1" /><path clip-path="url(#clip820)" d="M794.691 1451.02 L813.048 1451.02 L813.048 1454.96 L798.974 1454.96 L798.974 1463.43 Q799.992 1463.08 801.011 1462.92 Q802.029 1462.73 803.048 1462.73 Q808.835 1462.73 812.214 1465.9 Q815.594 1469.08 815.594 1474.49 Q815.594 1480.07 812.122 1483.17 Q808.65 1486.25 802.33 1486.25 Q800.154 1486.25 797.886 1485.88 Q795.64 1485.51 793.233 1484.77 L793.233 1480.07 Q795.316 1481.2 797.539 1481.76 Q799.761 1482.32 802.238 1482.32 Q806.242 1482.32 808.58 1480.21 Q810.918 1478.1 810.918 1474.49 Q810.918 1470.88 808.58 1468.77 Q806.242 1466.67 802.238 1466.67 Q800.363 1466.67 798.488 1467.08 Q796.636 1467.5 794.691 1468.38 L794.691 1451.02 Z" fill="#000000" fill-rule="nonzero" fill-opacity="1" /><path clip-path="url(#clip820)" d="M834.807 1454.1 Q831.196 1454.1 829.367 1457.66 Q827.562 1461.2 827.562 1468.33 Q827.562 1475.44 829.367 1479.01 Q831.196 1482.55 834.807 1482.55 Q838.441 1482.55 840.247 1479.01 Q842.075 1475.44 842.075 1468.33 Q842.075 1461.2 840.247 1457.66 Q838.441 1454.1 834.807 1454.1 M834.807 1450.39 Q840.617 1450.39 843.673 1455 Q846.751 1459.58 846.751 1468.33 Q846.751 1477.06 843.673 1481.67 Q840.617 1486.25 834.807 1486.25 Q828.997 1486.25 825.918 1481.67 Q822.863 1477.06 822.863 1468.33 Q822.863 1459.58 825.918 1455 Q828.997 1450.39 834.807 1450.39 Z" fill="#000000" fill-rule="nonzero" fill-opacity="1" /><path clip-path="url(#clip820)" d="M1259.94 1451.02 L1278.29 1451.02 L1278.29 1454.96 L1264.22 1454.96 L1264.22 1463.43 Q1265.24 1463.08 1266.25 1462.92 Q1267.27 1462.73 1268.29 1462.73 Q1274.08 1462.73 1277.46 1465.9 Q1280.84 1469.08 1280.84 1474.49 Q1280.84 1480.07 1277.37 1483.17 Q1273.89 1486.25 1267.57 1486.25 Q1265.4 1486.25 1263.13 1485.88 Q1260.88 1485.51 1258.48 1484.77 L1258.48 1480.07 Q1260.56 1481.2 1262.78 1481.76 Q1265 1482.32 1267.48 1482.32 Q1271.49 1482.32 1273.82 1480.21 Q1276.16 1478.1 1276.16 1474.49 Q1276.16 1470.88 1273.82 1468.77 Q1271.49 1466.67 1267.48 1466.67 Q1265.61 1466.67 1263.73 1467.08 Q1261.88 1467.5 1259.94 1468.38 L1259.94 1451.02 Z" fill="#000000" fill-rule="nonzero" fill-opacity="1" /><path clip-path="url(#clip820)" d="M1300.05 1454.1 Q1296.44 1454.1 1294.61 1457.66 Q1292.81 1461.2 1292.81 1468.33 Q1292.81 1475.44 1294.61 1479.01 Q1296.44 1482.55 1300.05 1482.55 Q1303.69 1482.55 1305.49 1479.01 Q1307.32 1475.44 1307.32 1468.33 Q1307.32 1461.2 1305.49 1457.66 Q1303.69 1454.1 1300.05 1454.1 M1300.05 1450.39 Q1305.86 1450.39 1308.92 1455 Q1312 1459.58 1312 1468.33 Q1312 1477.06 1308.92 1481.67 Q1305.86 1486.25 1300.05 1486.25 Q1294.24 1486.25 1291.16 1481.67 Q1288.11 1477.06 1288.11 1468.33 Q1288.11 1459.58 1291.16 1455 Q1294.24 1450.39 1300.05 1450.39 Z" fill="#000000" fill-rule="nonzero" fill-opacity="1" /><path clip-path="url(#clip820)" d="M1330.21 1454.1 Q1326.6 1454.1 1324.77 1457.66 Q1322.97 1461.2 1322.97 1468.33 Q1322.97 1475.44 1324.77 1479.01 Q1326.6 1482.55 1330.21 1482.55 Q1333.85 1482.55 1335.65 1479.01 Q1337.48 1475.44 1337.48 1468.33 Q1337.48 1461.2 1335.65 1457.66 Q1333.85 1454.1 1330.21 1454.1 M1330.21 1450.39 Q1336.02 1450.39 1339.08 1455 Q1342.16 1459.58 1342.16 1468.33 Q1342.16 1477.06 1339.08 1481.67 Q1336.02 1486.25 1330.21 1486.25 Q1324.4 1486.25 1321.32 1481.67 Q1318.27 1477.06 1318.27 1468.33 Q1318.27 1459.58 1321.32 1455 Q1324.4 1450.39 1330.21 1450.39 Z" fill="#000000" fill-rule="nonzero" fill-opacity="1" /><path clip-path="url(#clip820)" d="M1754.09 1451.02 L1776.31 1451.02 L1776.31 1453.01 L1763.77 1485.58 L1758.88 1485.58 L1770.69 1454.96 L1754.09 1454.96 L1754.09 1451.02 Z" fill="#000000" fill-rule="nonzero" fill-opacity="1" /><path clip-path="url(#clip820)" d="M1785.48 1451.02 L1803.84 1451.02 L1803.84 1454.96 L1789.76 1454.96 L1789.76 1463.43 Q1790.78 1463.08 1791.8 1462.92 Q1792.82 1462.73 1793.84 1462.73 Q1799.62 1462.73 1803 1465.9 Q1806.38 1469.08 1806.38 1474.49 Q1806.38 1480.07 1802.91 1483.17 Q1799.44 1486.25 1793.12 1486.25 Q1790.94 1486.25 1788.67 1485.88 Q1786.43 1485.51 1784.02 1484.77 L1784.02 1480.07 Q1786.11 1481.2 1788.33 1481.76 Q1790.55 1482.32 1793.03 1482.32 Q1797.03 1482.32 1799.37 1480.21 Q1801.71 1478.1 1801.71 1474.49 Q1801.71 1470.88 1799.37 1468.77 Q1797.03 1466.67 1793.03 1466.67 Q1791.15 1466.67 1789.28 1467.08 Q1787.42 1467.5 1785.48 1468.38 L1785.48 1451.02 Z" fill="#000000" fill-rule="nonzero" fill-opacity="1" /><path clip-path="url(#clip820)" d="M1825.6 1454.1 Q1821.98 1454.1 1820.16 1457.66 Q1818.35 1461.2 1818.35 1468.33 Q1818.35 1475.44 1820.16 1479.01 Q1821.98 1482.55 1825.6 1482.55 Q1829.23 1482.55 1831.04 1479.01 Q1832.86 1475.44 1832.86 1468.33 Q1832.86 1461.2 1831.04 1457.66 Q1829.23 1454.1 1825.6 1454.1 M1825.6 1450.39 Q1831.41 1450.39 1834.46 1455 Q1837.54 1459.58 1837.54 1468.33 Q1837.54 1477.06 1834.46 1481.67 Q1831.41 1486.25 1825.6 1486.25 Q1819.79 1486.25 1816.71 1481.67 Q1813.65 1477.06 1813.65 1468.33 Q1813.65 1459.58 1816.71 1455 Q1819.79 1450.39 1825.6 1450.39 Z" fill="#000000" fill-rule="nonzero" fill-opacity="1" /><path clip-path="url(#clip820)" d="M2235.84 1481.64 L2243.48 1481.64 L2243.48 1455.28 L2235.17 1456.95 L2235.17 1452.69 L2243.43 1451.02 L2248.11 1451.02 L2248.11 1481.64 L2255.75 1481.64 L2255.75 1485.58 L2235.84 1485.58 L2235.84 1481.64 Z" fill="#000000" fill-rule="nonzero" fill-opacity="1" /><path clip-path="url(#clip820)" d="M2275.19 1454.1 Q2271.58 1454.1 2269.75 1457.66 Q2267.95 1461.2 2267.95 1468.33 Q2267.95 1475.44 2269.75 1479.01 Q2271.58 1482.55 2275.19 1482.55 Q2278.83 1482.55 2280.63 1479.01 Q2282.46 1475.44 2282.46 1468.33 Q2282.46 1461.2 2280.63 1457.66 Q2278.83 1454.1 2275.19 1454.1 M2275.19 1450.39 Q2281 1450.39 2284.06 1455 Q2287.14 1459.58 2287.14 1468.33 Q2287.14 1477.06 2284.06 1481.67 Q2281 1486.25 2275.19 1486.25 Q2269.38 1486.25 2266.3 1481.67 Q2263.25 1477.06 2263.25 1468.33 Q2263.25 1459.58 2266.3 1455 Q2269.38 1450.39 2275.19 1450.39 Z" fill="#000000" fill-rule="nonzero" fill-opacity="1" /><path clip-path="url(#clip820)" d="M2305.35 1454.1 Q2301.74 1454.1 2299.91 1457.66 Q2298.11 1461.2 2298.11 1468.33 Q2298.11 1475.44 2299.91 1479.01 Q2301.74 1482.55 2305.35 1482.55 Q2308.99 1482.55 2310.79 1479.01 Q2312.62 1475.44 2312.62 1468.33 Q2312.62 1461.2 2310.79 1457.66 Q2308.99 1454.1 2305.35 1454.1 M2305.35 1450.39 Q2311.16 1450.39 2314.22 1455 Q2317.3 1459.58 2317.3 1468.33 Q2317.3 1477.06 2314.22 1481.67 Q2311.16 1486.25 2305.35 1486.25 Q2299.54 1486.25 2296.46 1481.67 Q2293.41 1477.06 2293.41 1468.33 Q2293.41 1459.58 2296.46 1455 Q2299.54 1450.39 2305.35 1450.39 Z" fill="#000000" fill-rule="nonzero" fill-opacity="1" /><path clip-path="url(#clip820)" d="M2335.52 1454.1 Q2331.9 1454.1 2330.08 1457.66 Q2328.27 1461.2 2328.27 1468.33 Q2328.27 1475.44 2330.08 1479.01 Q2331.9 1482.55 2335.52 1482.55 Q2339.15 1482.55 2340.96 1479.01 Q2342.78 1475.44 2342.78 1468.33 Q2342.78 1461.2 2340.96 1457.66 Q2339.15 1454.1 2335.52 1454.1 M2335.52 1450.39 Q2341.33 1450.39 2344.38 1455 Q2347.46 1459.58 2347.46 1468.33 Q2347.46 1477.06 2344.38 1481.67 Q2341.33 1486.25 2335.52 1486.25 Q2329.71 1486.25 2326.63 1481.67 Q2323.57 1477.06 2323.57 1468.33 Q2323.57 1459.58 2326.63 1455 Q2329.71 1450.39 2335.52 1450.39 Z" fill="#000000" fill-rule="nonzero" fill-opacity="1" /><path clip-path="url(#clip820)" d="M1286.48 1518.52 L1292.37 1518.52 L1292.37 1547.77 L1309.84 1532.4 L1317.32 1532.4 L1298.42 1549.07 L1318.12 1568.04 L1310.48 1568.04 L1292.37 1550.63 L1292.37 1568.04 L1286.48 1568.04 L1286.48 1518.52 Z" fill="#000000" fill-rule="nonzero" fill-opacity="1" /><polyline clip-path="url(#clip822)" style="stroke:#000000; stroke-linecap:round; stroke-linejoin:round; stroke-width:2; stroke-opacity:0.1; fill:none" points="251.842,1256.2 2352.76,1256.2 "/>
<polyline clip-path="url(#clip822)" style="stroke:#000000; stroke-linecap:round; stroke-linejoin:round; stroke-width:2; stroke-opacity:0.1; fill:none" points="251.842,673.61 2352.76,673.61 "/>
<polyline clip-path="url(#clip820)" style="stroke:#000000; stroke-linecap:round; stroke-linejoin:round; stroke-width:4; stroke-opacity:1; fill:none" points="251.842,1423.18 251.842,123.472 "/>
<polyline clip-path="url(#clip820)" style="stroke:#000000; stroke-linecap:round; stroke-linejoin:round; stroke-width:4; stroke-opacity:1; fill:none" points="251.842,1256.2 270.74,1256.2 "/>
<polyline clip-path="url(#clip820)" style="stroke:#000000; stroke-linecap:round; stroke-linejoin:round; stroke-width:4; stroke-opacity:1; fill:none" points="251.842,673.61 270.74,673.61 "/>
<path clip-path="url(#clip820)" d="M114.931 1276 L122.57 1276 L122.57 1249.63 L114.26 1251.3 L114.26 1247.04 L122.524 1245.37 L127.2 1245.37 L127.2 1276 L134.839 1276 L134.839 1279.93 L114.931 1279.93 L114.931 1276 Z" fill="#000000" fill-rule="nonzero" fill-opacity="1" /><path clip-path="url(#clip820)" d="M154.283 1248.45 Q150.672 1248.45 148.843 1252.01 Q147.038 1255.56 147.038 1262.69 Q147.038 1269.79 148.843 1273.36 Q150.672 1276.9 154.283 1276.9 Q157.917 1276.9 159.723 1273.36 Q161.552 1269.79 161.552 1262.69 Q161.552 1255.56 159.723 1252.01 Q157.917 1248.45 154.283 1248.45 M154.283 1244.75 Q160.093 1244.75 163.149 1249.35 Q166.227 1253.94 166.227 1262.69 Q166.227 1271.41 163.149 1276.02 Q160.093 1280.6 154.283 1280.6 Q148.473 1280.6 145.394 1276.02 Q142.339 1271.41 142.339 1262.69 Q142.339 1253.94 145.394 1249.35 Q148.473 1244.75 154.283 1244.75 Z" fill="#000000" fill-rule="nonzero" fill-opacity="1" /><path clip-path="url(#clip820)" d="M166.227 1238.85 L190.339 1238.85 L190.339 1242.04 L166.227 1242.04 L166.227 1238.85 Z" fill="#000000" fill-rule="nonzero" fill-opacity="1" /><path clip-path="url(#clip820)" d="M210.05 1237.38 Q212.777 1237.96 214.3 1239.81 Q215.842 1241.65 215.842 1244.36 Q215.842 1248.51 212.984 1250.79 Q210.125 1253.07 204.859 1253.07 Q203.091 1253.07 201.21 1252.71 Q199.348 1252.37 197.354 1251.67 L197.354 1248.01 Q198.934 1248.93 200.815 1249.4 Q202.696 1249.87 204.746 1249.87 Q208.319 1249.87 210.181 1248.46 Q212.062 1247.05 212.062 1244.36 Q212.062 1241.88 210.313 1240.48 Q208.583 1239.07 205.479 1239.07 L202.207 1239.07 L202.207 1235.95 L205.63 1235.95 Q208.432 1235.95 209.918 1234.84 Q211.404 1233.71 211.404 1231.61 Q211.404 1229.44 209.861 1228.3 Q208.338 1227.13 205.479 1227.13 Q203.918 1227.13 202.132 1227.47 Q200.345 1227.81 198.201 1228.52 L198.201 1225.14 Q200.364 1224.53 202.244 1224.23 Q204.144 1223.93 205.818 1223.93 Q210.144 1223.93 212.664 1225.91 Q215.184 1227.86 215.184 1231.21 Q215.184 1233.54 213.849 1235.16 Q212.513 1236.76 210.05 1237.38 Z" fill="#000000" fill-rule="nonzero" fill-opacity="1" /><path clip-path="url(#clip820)" d="M145.137 693.402 L152.776 693.402 L152.776 667.037 L144.465 668.703 L144.465 664.444 L152.729 662.777 L157.405 662.777 L157.405 693.402 L165.044 693.402 L165.044 697.337 L145.137 697.337 L145.137 693.402 Z" fill="#000000" fill-rule="nonzero" fill-opacity="1" /><path clip-path="url(#clip820)" d="M184.488 665.856 Q180.877 665.856 179.049 669.421 Q177.243 672.963 177.243 680.092 Q177.243 687.199 179.049 690.763 Q180.877 694.305 184.488 694.305 Q188.123 694.305 189.928 690.763 Q191.757 687.199 191.757 680.092 Q191.757 672.963 189.928 669.421 Q188.123 665.856 184.488 665.856 M184.488 662.152 Q190.299 662.152 193.354 666.759 Q196.433 671.342 196.433 680.092 Q196.433 688.819 193.354 693.425 Q190.299 698.009 184.488 698.009 Q178.678 698.009 175.6 693.425 Q172.544 688.819 172.544 680.092 Q172.544 671.342 175.6 666.759 Q178.678 662.152 184.488 662.152 Z" fill="#000000" fill-rule="nonzero" fill-opacity="1" /><path clip-path="url(#clip820)" d="M206.138 644.349 Q203.204 644.349 201.718 647.245 Q200.251 650.122 200.251 655.915 Q200.251 661.689 201.718 664.586 Q203.204 667.463 206.138 667.463 Q209.09 667.463 210.557 664.586 Q212.043 661.689 212.043 655.915 Q212.043 650.122 210.557 647.245 Q209.09 644.349 206.138 644.349 M206.138 641.339 Q210.858 641.339 213.341 645.082 Q215.842 648.806 215.842 655.915 Q215.842 663.006 213.341 666.749 Q210.858 670.472 206.138 670.472 Q201.417 670.472 198.915 666.749 Q196.433 663.006 196.433 655.915 Q196.433 648.806 198.915 645.082 Q201.417 641.339 206.138 641.339 Z" fill="#000000" fill-rule="nonzero" fill-opacity="1" /><path clip-path="url(#clip820)" d="M32.4621 801.797 Q32.4621 806.507 36.1542 809.244 Q39.8145 811.982 46.212 811.982 Q52.6095 811.982 56.3017 809.276 Q59.9619 806.539 59.9619 801.797 Q59.9619 797.118 56.2698 794.381 Q52.5777 791.643 46.212 791.643 Q39.8781 791.643 36.186 794.381 Q32.4621 797.118 32.4621 801.797 M27.4968 801.797 Q27.4968 794.158 32.4621 789.797 Q37.4273 785.437 46.212 785.437 Q54.9649 785.437 59.9619 789.797 Q64.9272 794.158 64.9272 801.797 Q64.9272 809.467 59.9619 813.828 Q54.9649 818.156 46.212 818.156 Q37.4273 818.156 32.4621 813.828 Q27.4968 809.467 27.4968 801.797 Z" fill="#000000" fill-rule="nonzero" fill-opacity="1" /><path clip-path="url(#clip820)" d="M46.212 750.139 Q39.7508 750.139 36.0905 752.812 Q32.3984 755.454 32.3984 760.101 Q32.3984 764.748 36.0905 767.422 Q39.7508 770.064 46.212 770.064 Q52.6732 770.064 56.3653 767.422 Q60.0256 764.748 60.0256 760.101 Q60.0256 755.454 56.3653 752.812 Q52.6732 750.139 46.212 750.139 M33.7671 770.064 Q30.5842 768.218 29.0564 765.417 Q27.4968 762.584 27.4968 758.669 Q27.4968 752.176 32.6531 748.134 Q37.8093 744.06 46.212 744.06 Q54.6147 744.06 59.771 748.134 Q64.9272 752.176 64.9272 758.669 Q64.9272 762.584 63.3994 765.417 Q61.8398 768.218 58.657 770.064 L64.0042 770.064 L64.0042 775.952 L14.479 775.952 L14.479 770.064 L33.7671 770.064 Z" fill="#000000" fill-rule="nonzero" fill-opacity="1" /><path clip-path="url(#clip820)" d="M28.3562 734.352 L28.3562 728.495 L64.6407 728.495 Q71.452 728.495 74.5076 731.105 Q77.5631 733.684 77.5631 739.445 L77.5631 741.673 L72.5979 741.673 L72.5979 740.113 Q72.5979 736.771 71.0383 735.561 Q69.5105 734.352 64.6407 734.352 L28.3562 734.352 M14.479 734.352 L14.479 728.495 L21.895 728.495 L21.895 734.352 L14.479 734.352 Z" fill="#000000" fill-rule="nonzero" fill-opacity="1" /><path clip-path="url(#clip820)" d="M957.041 65.7705 L957.041 89.8329 L949.546 89.8329 L949.546 27.2059 L957.041 27.2059 L957.041 34.0924 Q959.39 30.0415 962.955 28.0971 Q966.56 26.1121 971.543 26.1121 Q979.807 26.1121 984.951 32.6746 Q990.136 39.2371 990.136 49.9314 Q990.136 60.6258 984.951 67.1883 Q979.807 73.7508 971.543 73.7508 Q966.56 73.7508 962.955 71.8063 Q959.39 69.8214 957.041 65.7705 M982.399 49.9314 Q982.399 41.7081 978.996 37.0496 Q975.634 32.3505 969.72 32.3505 Q963.806 32.3505 960.403 37.0496 Q957.041 41.7081 957.041 49.9314 Q957.041 58.1548 960.403 62.8538 Q963.806 67.5124 969.72 67.5124 Q975.634 67.5124 978.996 62.8538 Q982.399 58.1548 982.399 49.9314 Z" fill="#000000" fill-rule="nonzero" fill-opacity="1" /><path clip-path="url(#clip820)" d="M1028.78 34.1734 Q1027.53 33.4443 1026.03 33.1202 Q1024.57 32.7556 1022.79 32.7556 Q1016.47 32.7556 1013.06 36.8875 Q1009.7 40.9789 1009.7 48.6757 L1009.7 72.576 L1002.21 72.576 L1002.21 27.2059 L1009.7 27.2059 L1009.7 34.2544 Q1012.05 30.1225 1015.82 28.1376 Q1019.59 26.1121 1024.97 26.1121 Q1025.74 26.1121 1026.68 26.2337 Q1027.61 26.3147 1028.74 26.5172 L1028.78 34.1734 Z" fill="#000000" fill-rule="nonzero" fill-opacity="1" /><path clip-path="url(#clip820)" d="M1052.36 32.4315 Q1046.36 32.4315 1042.88 37.1306 Q1039.4 41.7891 1039.4 49.9314 Q1039.4 58.0738 1042.84 62.7728 Q1046.32 67.4314 1052.36 67.4314 Q1058.31 67.4314 1061.8 62.7323 Q1065.28 58.0333 1065.28 49.9314 Q1065.28 41.8701 1061.8 37.1711 Q1058.31 32.4315 1052.36 32.4315 M1052.36 26.1121 Q1062.08 26.1121 1067.63 32.4315 Q1073.18 38.7509 1073.18 49.9314 Q1073.18 61.0714 1067.63 67.4314 Q1062.08 73.7508 1052.36 73.7508 Q1042.6 73.7508 1037.05 67.4314 Q1031.54 61.0714 1031.54 49.9314 Q1031.54 38.7509 1037.05 32.4315 Q1042.6 26.1121 1052.36 26.1121 Z" fill="#000000" fill-rule="nonzero" fill-opacity="1" /><path clip-path="url(#clip820)" d="M1118.1 49.9314 Q1118.1 41.7081 1114.7 37.0496 Q1111.34 32.3505 1105.43 32.3505 Q1099.51 32.3505 1096.11 37.0496 Q1092.75 41.7081 1092.75 49.9314 Q1092.75 58.1548 1096.11 62.8538 Q1099.51 67.5124 1105.43 67.5124 Q1111.34 67.5124 1114.7 62.8538 Q1118.1 58.1548 1118.1 49.9314 M1092.75 34.0924 Q1095.1 30.0415 1098.66 28.0971 Q1102.27 26.1121 1107.25 26.1121 Q1115.51 26.1121 1120.66 32.6746 Q1125.84 39.2371 1125.84 49.9314 Q1125.84 60.6258 1120.66 67.1883 Q1115.51 73.7508 1107.25 73.7508 Q1102.27 73.7508 1098.66 71.8063 Q1095.1 69.8214 1092.75 65.7705 L1092.75 72.576 L1085.25 72.576 L1085.25 9.54393 L1092.75 9.54393 L1092.75 34.0924 Z" fill="#000000" fill-rule="nonzero" fill-opacity="1" /><path clip-path="url(#clip820)" d="M1138.2 9.54393 L1145.65 9.54393 L1145.65 72.576 L1138.2 72.576 L1138.2 9.54393 Z" fill="#000000" fill-rule="nonzero" fill-opacity="1" /><path clip-path="url(#clip820)" d="M1200.05 48.0275 L1200.05 51.6733 L1165.78 51.6733 Q1166.27 59.3701 1170.4 63.421 Q1174.57 67.4314 1181.99 67.4314 Q1186.28 67.4314 1190.29 66.3781 Q1194.34 65.3249 1198.31 63.2184 L1198.31 70.267 Q1194.3 71.9684 1190.09 72.8596 Q1185.88 73.7508 1181.54 73.7508 Q1170.69 73.7508 1164.33 67.4314 Q1158.01 61.1119 1158.01 50.3365 Q1158.01 39.1965 1164 32.6746 Q1170.04 26.1121 1180.25 26.1121 Q1189.4 26.1121 1194.71 32.0264 Q1200.05 37.9003 1200.05 48.0275 M1192.6 45.84 Q1192.52 39.7232 1189.16 36.0774 Q1185.84 32.4315 1180.33 32.4315 Q1174.09 32.4315 1170.32 35.9558 Q1166.59 39.4801 1166.03 45.8805 L1192.6 45.84 M1173.93 6.22219 L1185.35 21.3726 L1179.15 21.3726 L1165.95 6.22219 L1173.93 6.22219 Z" fill="#000000" fill-rule="nonzero" fill-opacity="1" /><path clip-path="url(#clip820)" d="M1247.61 35.9153 Q1250.41 30.8922 1254.3 28.5022 Q1258.18 26.1121 1263.45 26.1121 Q1270.54 26.1121 1274.39 31.0947 Q1278.24 36.0368 1278.24 45.1919 L1278.24 72.576 L1270.74 72.576 L1270.74 45.4349 Q1270.74 38.913 1268.43 35.7533 Q1266.12 32.5936 1261.39 32.5936 Q1255.59 32.5936 1252.23 36.4419 Q1248.87 40.2903 1248.87 46.9338 L1248.87 72.576 L1241.37 72.576 L1241.37 45.4349 Q1241.37 38.8725 1239.06 35.7533 Q1236.76 32.5936 1231.93 32.5936 Q1226.22 32.5936 1222.86 36.4824 Q1219.5 40.3308 1219.5 46.9338 L1219.5 72.576 L1212 72.576 L1212 27.2059 L1219.5 27.2059 L1219.5 34.2544 Q1222.05 30.082 1225.62 28.0971 Q1229.18 26.1121 1234.08 26.1121 Q1239.02 26.1121 1242.47 28.6237 Q1245.95 31.1352 1247.61 35.9153 Z" fill="#000000" fill-rule="nonzero" fill-opacity="1" /><path clip-path="url(#clip820)" d="M1331.91 48.0275 L1331.91 51.6733 L1297.64 51.6733 Q1298.13 59.3701 1302.26 63.421 Q1306.43 67.4314 1313.84 67.4314 Q1318.14 67.4314 1322.15 66.3781 Q1326.2 65.3249 1330.17 63.2184 L1330.17 70.267 Q1326.16 71.9684 1321.95 72.8596 Q1317.73 73.7508 1313.4 73.7508 Q1302.54 73.7508 1296.18 67.4314 Q1289.86 61.1119 1289.86 50.3365 Q1289.86 39.1965 1295.86 32.6746 Q1301.89 26.1121 1312.1 26.1121 Q1321.26 26.1121 1326.56 32.0264 Q1331.91 37.9003 1331.91 48.0275 M1324.46 45.84 Q1324.38 39.7232 1321.01 36.0774 Q1317.69 32.4315 1312.18 32.4315 Q1305.94 32.4315 1302.18 35.9558 Q1298.45 39.4801 1297.88 45.8805 L1324.46 45.84 Z" fill="#000000" fill-rule="nonzero" fill-opacity="1" /><path clip-path="url(#clip820)" d="M1372.42 62.2867 L1380.97 62.2867 L1380.97 72.576 L1372.42 72.576 L1372.42 62.2867 M1372.42 29.6769 L1380.97 29.6769 L1380.97 39.9662 L1372.42 39.9662 L1372.42 29.6769 Z" fill="#000000" fill-rule="nonzero" fill-opacity="1" /><path clip-path="url(#clip820)" d="M1432.21 14.324 L1432.21 27.2059 L1447.56 27.2059 L1447.56 32.9987 L1432.21 32.9987 L1432.21 57.6282 Q1432.21 63.1779 1433.71 64.7578 Q1435.25 66.3376 1439.91 66.3376 L1447.56 66.3376 L1447.56 72.576 L1439.91 72.576 Q1431.28 72.576 1428 69.3758 Q1424.72 66.1351 1424.72 57.6282 L1424.72 32.9987 L1419.25 32.9987 L1419.25 27.2059 L1424.72 27.2059 L1424.72 14.324 L1432.21 14.324 Z" fill="#000000" fill-rule="nonzero" fill-opacity="1" /><path clip-path="url(#clip820)" d="M1464.58 65.7705 L1464.58 89.8329 L1457.08 89.8329 L1457.08 27.2059 L1464.58 27.2059 L1464.58 34.0924 Q1466.93 30.0415 1470.49 28.0971 Q1474.1 26.1121 1479.08 26.1121 Q1487.34 26.1121 1492.49 32.6746 Q1497.67 39.2371 1497.67 49.9314 Q1497.67 60.6258 1492.49 67.1883 Q1487.34 73.7508 1479.08 73.7508 Q1474.1 73.7508 1470.49 71.8063 Q1466.93 69.8214 1464.58 65.7705 M1489.94 49.9314 Q1489.94 41.7081 1486.53 37.0496 Q1483.17 32.3505 1477.26 32.3505 Q1471.34 32.3505 1467.94 37.0496 Q1464.58 41.7081 1464.58 49.9314 Q1464.58 58.1548 1467.94 62.8538 Q1471.34 67.5124 1477.26 67.5124 Q1483.17 67.5124 1486.53 62.8538 Q1489.94 58.1548 1489.94 49.9314 Z" fill="#000000" fill-rule="nonzero" fill-opacity="1" /><path clip-path="url(#clip820)" d="M1518.13 65.6895 L1546.69 65.6895 L1546.69 72.576 L1508.29 72.576 L1508.29 65.6895 Q1512.95 60.8689 1520.97 52.7671 Q1529.03 44.6248 1531.09 42.2752 Q1535.02 37.8598 1536.56 34.8216 Q1538.14 31.7429 1538.14 28.7857 Q1538.14 23.9651 1534.74 20.927 Q1531.38 17.8888 1525.95 17.8888 Q1522.1 17.8888 1517.81 19.2256 Q1513.55 20.5624 1508.69 23.2765 L1508.69 15.0127 Q1513.63 13.0277 1517.93 12.015 Q1522.22 11.0023 1525.79 11.0023 Q1535.19 11.0023 1540.78 15.7013 Q1546.37 20.4004 1546.37 28.2591 Q1546.37 31.9859 1544.95 35.3482 Q1543.57 38.6699 1539.88 43.2069 Q1538.87 44.3817 1533.44 50.0125 Q1528.02 55.6027 1518.13 65.6895 Z" fill="#000000" fill-rule="nonzero" fill-opacity="1" /><path clip-path="url(#clip820)" d="M1565.28 65.6895 L1578.65 65.6895 L1578.65 19.5497 L1564.11 22.4663 L1564.11 15.0127 L1578.57 12.096 L1586.75 12.096 L1586.75 65.6895 L1600.12 65.6895 L1600.12 72.576 L1565.28 72.576 L1565.28 65.6895 Z" fill="#000000" fill-rule="nonzero" fill-opacity="1" /><path clip-path="url(#clip820)" d="M1634.15 17.4837 Q1627.83 17.4837 1624.63 23.7221 Q1621.47 29.92 1621.47 42.3968 Q1621.47 54.833 1624.63 61.0714 Q1627.83 67.2693 1634.15 67.2693 Q1640.51 67.2693 1643.67 61.0714 Q1646.87 54.833 1646.87 42.3968 Q1646.87 29.92 1643.67 23.7221 Q1640.51 17.4837 1634.15 17.4837 M1634.15 11.0023 Q1644.32 11.0023 1649.66 19.0636 Q1655.05 27.0843 1655.05 42.3968 Q1655.05 57.6687 1649.66 65.73 Q1644.32 73.7508 1634.15 73.7508 Q1623.98 73.7508 1618.59 65.73 Q1613.25 57.6687 1613.25 42.3968 Q1613.25 27.0843 1618.59 19.0636 Q1623.98 11.0023 1634.15 11.0023 Z" fill="#000000" fill-rule="nonzero" fill-opacity="1" /><polyline clip-path="url(#clip822)" style="stroke:#009af9; stroke-linecap:round; stroke-linejoin:round; stroke-width:4; stroke-opacity:1; fill:none" points="311.302,160.256 313.284,237.507 315.266,458.491 317.248,629.507 319.23,629.767 321.212,629.767 323.194,629.769 325.176,629.775 327.158,629.804 329.14,629.931 331.122,630.26 333.104,630.816 335.086,630.816 337.068,630.816 339.05,630.816 341.032,630.816 343.014,630.816 344.996,630.816 346.978,630.816 348.96,630.816 350.942,631.122 352.924,631.735 354.906,631.735 356.888,632.096 358.87,632.52 360.852,632.968 362.834,633.453 364.816,633.901 366.798,634.436 368.78,634.589 370.762,635.456 372.744,635.456 374.726,635.456 376.708,635.821 378.69,636.297 380.672,636.297 382.654,636.479 384.636,636.802 386.618,637.201 388.6,637.654 390.582,638.118 392.564,638.635 394.546,639.053 396.528,639.655 398.51,639.655 400.492,639.696 402.474,640.692 404.456,640.692 406.438,641.077 408.42,641.527 410.402,641.962 412.384,642.523 414.366,642.523 416.348,642.953 418.33,643.441 420.312,643.913 422.294,644.477 424.276,644.673 426.258,645.568 428.24,645.568 430.222,645.568 432.204,645.857 434.186,646.272 436.168,646.758 438.15,647.173 440.132,647.792 442.114,647.792 444.096,648.187 446.078,648.648 448.06,649.168 450.042,649.657 452.024,650.257 454.006,650.3 455.988,651.42 457.97,651.42 459.952,651.42 461.934,651.758 463.916,652.205 465.898,652.723 467.88,653.17 469.862,653.813 471.844,653.813 473.826,654.248 475.808,654.748 477.79,655.283 479.772,655.85 481.754,656.411 483.736,657.014 485.718,657.532 487.7,658.199 489.682,658.199 491.664,658.199 493.646,658.679 495.628,659.218 497.61,659.776 499.592,660.378 501.574,660.922 503.556,661.588 505.538,661.588 507.52,661.833 509.502,662.807 511.484,662.807 513.466,662.93 515.448,663.978 517.43,663.978 519.412,664.253 521.394,664.689 523.376,665.202 525.358,665.763 527.34,666.372 529.322,666.959 531.304,667.627 533.286,668.01 535.267,668.914 537.249,668.914 539.231,668.914 541.213,669.401 543.195,669.962 545.177,670.509 547.159,671.201 549.141,671.201 551.123,671.737 553.105,672.345 555.087,672.921 557.069,673.633 559.051,673.633 561.033,674.178 563.015,674.865 564.997,674.865 566.979,675.356 568.961,675.911 570.943,676.575 572.925,676.91 574.907,677.925 576.889,677.925 578.871,678.335 580.853,679.138 582.835,679.138 584.817,679.377 586.799,679.827 588.781,680.37 590.763,680.981 592.745,681.65 594.727,682.307 596.709,683.05 598.691,683.513 600.673,684.492 602.655,684.492 604.637,684.492 606.619,684.964 608.601,685.547 610.583,686.213 612.565,686.838 614.547,687.637 616.529,687.637 618.511,688.235 620.493,688.99 622.475,688.99 624.457,689.5 626.439,690.102 628.421,690.833 630.403,691.104 632.385,692.347 634.367,692.347 636.349,692.824 638.331,693.672 640.313,693.672 642.295,693.896 644.277,694.307 646.259,694.888 648.241,695.559 650.223,696.26 652.205,697.06 654.187,697.625 656.169,698.646 658.151,698.646 660.133,698.646 662.115,698.908 664.097,699.385 666.079,700.007 668.061,700.72 670.043,701.463 672.025,702.296 674.007,702.949 675.989,703.949 677.971,703.949 679.953,704.076 681.935,705.61 683.917,705.61 685.899,706.174 687.881,706.842 689.863,707.59 691.845,708.424 693.827,709.192 695.809,710.151 697.791,710.151 699.773,710.78 701.755,711.812 703.737,711.812 705.719,712.374 707.701,713.091 709.683,713.921 711.665,714.639 713.647,715.667 715.629,715.667 717.611,716.351 719.593,717.146 721.575,718.015 723.557,718.911 725.539,719.865 727.521,720.754 729.503,721.794 731.485,722.084 733.467,723.798 735.449,723.798 737.431,723.798 739.413,724.097 741.395,725.653 743.377,725.653 745.359,726.1 747.341,726.855 749.323,727.7 751.305,728.47 753.287,729.579 755.269,729.579 757.251,730.185 759.233,730.996 761.215,731.937 763.197,732.726 765.179,733.937 767.161,733.937 769.143,734.709 771.125,735.612 773.107,736.604 775.089,737.641 777.071,738.733 779.053,739.794 781.035,740.967 783.017,741.81 784.999,743.245 786.981,743.245 788.963,743.245 790.945,744.001 792.927,745.297 794.909,745.297 796.891,745.78 798.873,746.602 800.855,747.559 802.837,748.6 804.819,749.779 806.801,750.726 808.783,752.162 810.765,752.162 812.747,752.946 814.729,754.392 816.711,754.392 818.693,754.969 820.675,755.912 822.657,756.967 824.639,757.973 826.621,759.327 828.603,759.327 830.585,760.079 832.567,761.103 834.549,762.294 836.531,763.262 838.513,764.838 840.495,764.838 842.477,765.899 844.459,767.085 846.441,767.851 848.423,769.721 850.405,769.721 852.387,770.689 854.369,771.814 856.351,773.066 858.333,774.473 860.314,775.72 862.296,777.361 864.278,777.361 866.26,778.551 868.242,780.075 870.224,780.075 872.206,781.046 874.188,781.5 876.17,783.984 878.152,783.984 880.134,784.491 882.116,785.439 884.098,786.655 886.08,788.054 888.062,789.56 890.044,791.18 892.026,792.766 894.008,794.545 895.99,795.767 897.972,798.026 899.954,798.026 901.936,798.026 903.918,799.266 905.9,801.038 907.882,801.038 909.864,801.53 911.846,802.43 913.828,803.849 915.81,805.454 917.792,805.454 919.774,806.283 921.756,807.568 923.738,809.081 925.72,810.768 927.702,812.663 929.684,814.382 931.666,816.58 933.648,816.58 935.63,816.58 937.612,817.145 939.594,818.033 941.576,819.527 943.558,821.231 945.54,823.043 947.522,825.222 949.504,826.147 951.486,829.659 953.468,829.659 955.45,829.659 957.432,830.226 959.414,831.266 961.396,832.978 963.378,834.918 965.36,836.865 967.342,839.404 969.324,839.404 971.306,841.165 973.288,843.721 975.27,843.721 977.252,844.422 979.234,845.685 981.216,847.684 983.198,849.96 985.18,849.96 987.162,851.147 989.144,852.951 991.126,854.4 993.108,858.084 995.09,858.084 997.072,858.933 999.054,860.455 1001.04,862.705 1003.02,865.41 1005,865.41 1006.98,866.805 1008.96,868.938 1010.95,870.154 1012.93,875.029 1014.91,875.029 1016.89,876.067 1018.87,877.898 1020.86,880.444 1022.84,883.377 1024.82,883.377 1026.8,884.236 1028.78,885.746 1030.77,888.36 1032.75,890.778 1034.73,895.359 1036.71,895.359 1038.69,896.63 1040.68,898.836 1042.66,901.82 1044.64,905.407 1046.62,905.407 1048.6,906.463 1050.59,908.295 1052.57,911.446 1054.55,914.66 1056.53,919.811 1058.51,919.811 1060.5,921.379 1062.48,924.04 1064.46,927.714 1066.44,932.047 1068.42,932.047 1070.41,933.357 1072.39,935.581 1074.37,939.452 1076.35,943.931 1078.33,949.561 1080.32,949.561 1082.3,951.523 1084.28,954.741 1086.26,959.514 1088.24,965.301 1090.23,973.294 1092.21,973.294 1094.19,976.197 1096.17,980.689 1098.15,986.134 1100.14,996.579 1102.12,996.804 1104.1,1016.06 1106.08,1016.06 1108.06,1020.48 1110.05,1026.67 1112.03,1034.87 1114.01,1048.56 1115.99,1055.64 1117.97,1079.88 1119.96,1088.94 1121.94,1120.57 1123.92,1137.55 1125.9,1168 1127.88,1194.41 1129.87,1219.79 1131.85,1253.33 1133.83,1274.75 1135.81,1311.38 1137.79,1330.48 1139.78,1368.05 1141.76,1386.4 "/>
<polyline clip-path="url(#clip822)" style="stroke:#e26f46; stroke-linecap:round; stroke-linejoin:round; stroke-width:4; stroke-opacity:1; fill:none" points="311.302,160.256 313.284,237.507 315.266,458.491 317.248,629.507 319.23,629.767 321.212,629.767 323.194,629.769 325.176,629.775 327.158,629.804 329.14,629.931 331.122,630.258 333.104,630.817 335.086,630.817 337.068,630.817 339.05,630.817 341.032,630.817 343.014,630.817 344.996,630.817 346.978,630.817 348.96,630.817 350.942,631.112 352.924,631.738 354.906,631.738 356.888,632.099 358.87,632.525 360.852,632.968 362.834,633.46 364.816,633.871 366.798,634.438 368.78,634.438 370.762,634.654 372.744,635.396 374.726,635.396 376.708,635.726 378.69,636.132 380.672,636.603 382.654,637.01 384.636,637.576 386.618,637.576 388.6,637.977 390.582,638.443 392.564,638.868 394.546,639.422 396.528,639.422 398.51,639.815 400.492,640.261 402.474,640.754 404.456,641.23 406.438,641.782 408.42,642.081 410.402,642.842 412.384,642.842 414.366,642.842 416.348,643.192 418.33,643.622 420.312,644.125 422.294,644.522 424.276,645.16 426.258,645.16 428.24,645.581 430.222,646.088 432.204,646.416 434.186,647.14 436.168,647.14 438.15,647.555 440.132,648.044 442.114,648.511 444.096,649.103 446.078,649.103 448.06,649.563 450.042,650.098 452.024,650.523 454.006,651.187 455.988,651.187 457.97,651.623 459.952,652.184 461.934,652.189 463.916,653.345 465.898,653.345 467.88,653.775 469.862,654.331 471.844,654.395 473.826,655.496 475.808,655.496 477.79,655.937 479.772,656.464 481.754,656.878 483.736,657.581 485.718,657.581 487.7,658.007 489.682,658.506 491.664,659.06 493.646,659.617 495.628,660.233 497.61,660.72 499.592,661.441 501.574,661.441 503.556,661.441 505.538,661.787 507.52,662.261 509.502,662.826 511.484,663.176 513.466,664.015 515.448,664.015 517.43,664.481 519.412,665.021 521.394,665.55 523.376,666.215 525.358,666.215 527.34,666.731 529.322,667.313 531.304,667.892 533.286,668.554 535.267,668.969 537.249,669.841 539.231,669.841 541.213,669.841 543.195,670.172 545.177,670.665 547.159,671.234 549.141,671.764 551.123,672.463 553.105,672.463 555.087,672.905 557.069,673.44 559.051,674.069 561.033,674.512 563.015,675.367 564.997,675.367 566.979,675.889 568.961,676.522 570.943,676.753 572.925,677.865 574.907,677.865 576.889,678.376 578.871,678.955 580.853,679.138 582.835,680.264 584.817,680.264 586.799,680.566 588.781,681.046 590.763,681.617 592.745,682.251 594.727,682.928 596.709,683.617 598.691,684.34 600.673,685.023 602.655,685.797 604.637,686.2 606.619,687.281 608.601,687.281 610.583,687.281 612.565,687.281 614.547,687.562 616.529,688.048 618.511,688.638 620.493,689.3 622.475,690.004 624.457,690.739 626.439,691.478 628.421,692.252 630.403,692.975 632.385,693.801 634.367,694.146 636.349,695.388 638.331,695.388 640.313,695.388 642.295,695.388 644.277,695.829 646.259,696.441 648.241,697.146 650.223,697.766 652.205,698.652 654.187,698.652 656.169,699.217 658.151,699.886 660.133,700.642 662.115,701.35 664.097,702.237 666.079,702.237 668.061,702.882 670.043,703.732 672.025,703.954 674.007,705.363 675.989,705.363 677.971,705.953 679.953,706.67 681.935,707.473 683.917,708.247 685.899,709.164 687.881,709.356 689.863,710.966 691.845,710.966 693.827,710.966 695.809,711.422 697.791,712.094 699.773,712.875 701.755,713.663 703.737,714.601 705.719,714.864 707.701,716.465 709.683,716.465 711.665,716.465 713.647,716.783 715.629,717.351 717.611,718.082 719.593,718.917 721.575,719.762 723.557,720.742 725.539,721.255 727.521,722.674 729.503,722.674 731.485,722.674 733.467,723.072 735.449,723.757 737.431,724.542 739.413,725.392 741.395,726.382 743.377,726.999 745.359,728.372 747.341,728.372 749.323,728.372 751.305,728.624 753.287,729.085 755.269,729.859 757.251,730.713 759.233,731.474 761.215,732.631 763.197,732.631 765.179,733.231 767.161,734.054 769.143,735.005 771.125,735.849 773.107,737.042 775.089,737.042 777.071,737.808 779.053,738.717 781.035,739.747 783.017,740.716 784.999,741.931 786.981,741.931 788.963,742.84 790.945,743.975 792.927,743.975 794.909,744.543 796.891,745.434 798.873,746.459 800.855,747.097 802.837,748.708 804.819,748.708 806.801,749.535 808.783,750.504 810.765,751.575 812.747,752.762 814.729,753.864 816.711,755.218 818.693,755.218 820.675,756.105 822.657,757.61 824.639,757.61 826.621,758.55 828.603,759.613 830.585,760.74 832.567,762.067 834.549,762.774 836.531,764.73 838.513,764.73 840.495,764.73 842.477,765.091 844.459,765.75 846.441,766.803 848.423,767.984 850.405,768.902 852.387,770.607 854.369,770.607 856.351,771.564 858.333,772.697 860.314,773.97 862.296,775.361 864.278,776.753 866.26,778.298 868.242,779.487 870.224,781.343 872.206,781.343 874.188,781.343 876.17,782.466 878.152,783.724 880.134,785.105 882.116,786.67 884.098,787.983 886.08,789.86 888.062,789.86 890.044,789.86 892.026,790.312 894.008,791.058 895.99,792.307 897.972,793.706 899.954,795.074 901.936,796.858 903.918,796.858 905.9,797.999 907.882,799.368 909.864,800.933 911.846,802.608 913.828,804.416 915.81,806.158 917.792,808.161 919.774,809.219 921.756,812.071 923.738,812.071 925.72,812.071 927.702,813.332 929.684,815.502 931.666,815.502 933.648,816.079 935.63,817.141 937.612,818.745 939.594,820.594 941.576,820.594 943.558,821.571 945.54,823.06 947.522,824.795 949.504,826.704 951.486,828.882 953.468,830.679 955.45,833.35 957.432,833.35 959.414,833.35 961.396,833.974 963.378,835.013 965.36,836.793 967.342,838.78 969.324,838.78 971.306,839.788 973.288,841.301 975.27,843.144 977.252,845.578 979.234,845.578 981.216,846.282 983.198,847.53 985.18,849.526 987.162,851.783 989.144,851.783 991.126,853.006 993.108,854.875 995.09,856.935 997.072,859.85 999.054,859.85 1001.04,860.69 1003.02,862.208 1005,864.481 1006.98,867.228 1008.96,867.228 1010.95,868.565 1012.93,870.687 1014.91,872.73 1016.89,876.52 1018.87,876.52 1020.86,877.543 1022.84,879.457 1024.82,882.128 1026.8,885.201 1028.78,885.201 1030.77,886.907 1032.75,889.437 1034.73,890.086 1036.71,896.897 1038.69,896.897 1040.68,898.11 1042.66,900.288 1044.64,903.419 1046.62,907.11 1048.6,907.11 1050.59,909.171 1052.57,912.365 1054.55,915.955 1056.53,920.666 1058.51,920.666 1060.5,922.201 1062.48,924.85 1064.46,928.661 1066.44,928.661 1068.42,931.144 1070.41,933.332 1072.39,936.92 1074.37,940.987 1076.35,946.647 1078.33,946.647 1080.32,948.55 1082.3,952.071 1084.28,956.772 1086.26,961.488 1088.24,969.146 1090.23,969.146 1092.21,971.905 1094.19,976.381 1096.17,980.658 1098.15,992.789 1100.14,999.914 1102.12,1010.89 1104.1,1020.09 1106.08,1020.09 1108.06,1033.02 1110.05,1038.99 1112.03,1047.36 1114.01,1058.07 1115.99,1071.44 1117.97,1071.44 1119.96,1086.62 1121.94,1097.85 1123.92,1110.51 1125.9,1125.53 1127.88,1142.66 1129.87,1152.55 1131.85,1206.98 1133.83,1223.22 1135.81,1240.52 1137.79,1258.86 1139.78,1305.92 1141.76,1327.59 1143.74,1344.04 1145.72,1361.43 "/>
<polyline clip-path="url(#clip822)" style="stroke:#3da44d; stroke-linecap:round; stroke-linejoin:round; stroke-width:4; stroke-opacity:1; fill:none" points="311.302,160.256 313.284,237.507 315.266,462.403 317.248,628.83 319.23,628.985 321.212,628.986 323.194,628.988 325.176,628.99 327.158,628.991 329.14,628.993 331.122,628.995 333.104,628.996 335.086,628.998 337.068,629 339.05,629.001 341.032,629.003 343.014,629.005 344.996,629.006 346.978,629.008 348.96,629.01 350.942,629.011 352.924,629.013 354.906,629.015 356.888,629.016 358.87,629.018 360.852,629.02 362.834,629.021 364.816,629.023 366.798,629.025 368.78,629.026 370.762,629.028 372.744,629.03 374.726,629.031 376.708,629.033 378.69,629.035 380.672,629.036 382.654,629.038 384.636,629.04 386.618,629.041 388.6,629.043 390.582,629.045 392.564,629.046 394.546,629.048 396.528,629.05 398.51,629.051 400.492,629.053 402.474,629.055 404.456,629.056 406.438,629.058 408.42,629.06 410.402,629.061 412.384,629.063 414.366,629.065 416.348,629.066 418.33,629.068 420.312,629.07 422.294,629.071 424.276,629.073 426.258,629.075 428.24,629.076 430.222,629.078 432.204,629.08 434.186,629.082 436.168,629.083 438.15,629.085 440.132,629.087 442.114,629.088 444.096,629.09 446.078,629.092 448.06,629.093 450.042,629.095 452.024,629.097 454.006,629.098 455.988,629.1 457.97,629.102 459.952,629.103 461.934,629.105 463.916,629.107 465.898,629.108 467.88,629.11 469.862,629.112 471.844,629.113 473.826,629.115 475.808,629.117 477.79,629.118 479.772,629.12 481.754,629.122 483.736,629.123 485.718,629.125 487.7,629.127 489.682,629.128 491.664,629.13 493.646,629.132 495.628,629.133 497.61,629.135 499.592,629.137 501.574,629.138 503.556,629.14 505.538,629.142 507.52,629.143 509.502,629.145 511.484,629.147 513.466,629.149 515.448,629.15 517.43,629.152 519.412,629.154 521.394,629.155 523.376,629.157 525.358,629.159 527.34,629.16 529.322,629.162 531.304,629.164 533.286,629.165 535.267,629.167 537.249,629.169 539.231,629.17 541.213,629.172 543.195,629.174 545.177,629.175 547.159,629.177 549.141,629.179 551.123,629.18 553.105,629.182 555.087,629.184 557.069,629.185 559.051,629.187 561.033,629.189 563.015,629.19 564.997,629.192 566.979,629.194 568.961,629.195 570.943,629.197 572.925,629.199 574.907,629.201 576.889,629.202 578.871,629.204 580.853,629.206 582.835,629.207 584.817,629.209 586.799,629.211 588.781,629.212 590.763,629.214 592.745,629.216 594.727,629.217 596.709,629.219 598.691,629.221 600.673,629.222 602.655,629.224 604.637,629.226 606.619,629.227 608.601,629.229 610.583,629.231 612.565,629.232 614.547,629.234 616.529,629.236 618.511,629.238 620.493,629.239 622.475,629.241 624.457,629.243 626.439,629.244 628.421,629.246 630.403,629.248 632.385,629.249 634.367,629.251 636.349,629.253 638.331,629.254 640.313,629.256 642.295,629.258 644.277,629.259 646.259,629.261 648.241,629.263 650.223,629.264 652.205,629.266 654.187,629.268 656.169,629.27 658.151,629.271 660.133,629.273 662.115,629.275 664.097,629.276 666.079,629.278 668.061,629.28 670.043,629.281 672.025,629.283 674.007,629.285 675.989,629.286 677.971,629.288 679.953,629.29 681.935,629.291 683.917,629.293 685.899,629.295 687.881,629.296 689.863,629.298 691.845,629.3 693.827,629.302 695.809,629.303 697.791,629.305 699.773,629.307 701.755,629.308 703.737,629.31 705.719,629.312 707.701,629.313 709.683,629.315 711.665,629.317 713.647,629.318 715.629,629.32 717.611,629.322 719.593,629.323 721.575,629.325 723.557,629.327 725.539,629.329 727.521,629.33 729.503,629.332 731.485,629.334 733.467,629.335 735.449,629.337 737.431,629.339 739.413,629.34 741.395,629.342 743.377,629.344 745.359,629.345 747.341,629.347 749.323,629.349 751.305,629.351 753.287,629.352 755.269,629.354 757.251,629.356 759.233,629.357 761.215,629.359 763.197,629.361 765.179,629.362 767.161,629.364 769.143,629.366 771.125,629.367 773.107,629.369 775.089,629.371 777.071,629.372 779.053,629.374 781.035,629.376 783.017,629.378 784.999,629.379 786.981,629.381 788.963,629.383 790.945,629.384 792.927,629.386 794.909,629.388 796.891,629.389 798.873,629.391 800.855,629.393 802.837,629.394 804.819,629.396 806.801,629.398 808.783,629.4 810.765,629.401 812.747,629.403 814.729,629.405 816.711,629.406 818.693,629.408 820.675,629.41 822.657,629.411 824.639,629.413 826.621,629.415 828.603,629.416 830.585,629.418 832.567,629.42 834.549,629.422 836.531,629.423 838.513,629.425 840.495,629.427 842.477,629.428 844.459,629.43 846.441,629.432 848.423,629.433 850.405,629.435 852.387,629.437 854.369,629.439 856.351,629.44 858.333,629.442 860.314,629.444 862.296,629.445 864.278,629.447 866.26,629.449 868.242,629.45 870.224,629.452 872.206,629.454 874.188,629.455 876.17,629.457 878.152,629.459 880.134,629.461 882.116,629.462 884.098,629.464 886.08,629.466 888.062,629.467 890.044,629.469 892.026,629.471 894.008,629.472 895.99,629.474 897.972,629.476 899.954,629.478 901.936,629.479 903.918,629.481 905.9,629.483 907.882,629.484 909.864,629.486 911.846,629.488 913.828,629.489 915.81,629.491 917.792,629.493 919.774,629.495 921.756,629.496 923.738,629.498 925.72,629.5 927.702,629.501 929.684,629.503 931.666,629.505 933.648,629.506 935.63,629.508 937.612,629.51 939.594,629.512 941.576,629.513 943.558,629.515 945.54,629.517 947.522,629.518 949.504,629.52 951.486,629.522 953.468,629.523 955.45,629.525 957.432,629.527 959.414,629.529 961.396,629.53 963.378,629.532 965.36,629.534 967.342,629.535 969.324,629.537 971.306,629.539 973.288,629.54 975.27,629.542 977.252,629.544 979.234,629.546 981.216,629.547 983.198,629.549 985.18,629.551 987.162,629.552 989.144,629.554 991.126,629.556 993.108,629.557 995.09,629.559 997.072,629.561 999.054,629.563 1001.04,629.564 1003.02,629.566 1005,629.568 1006.98,629.569 1008.96,629.571 1010.95,629.573 1012.93,629.575 1014.91,629.576 1016.89,629.578 1018.87,629.58 1020.86,629.581 1022.84,629.583 1024.82,629.585 1026.8,629.586 1028.78,629.588 1030.77,629.59 1032.75,629.592 1034.73,629.593 1036.71,629.595 1038.69,629.597 1040.68,629.598 1042.66,629.6 1044.64,629.602 1046.62,629.604 1048.6,629.605 1050.59,629.607 1052.57,629.609 1054.55,629.61 1056.53,629.612 1058.51,629.614 1060.5,629.615 1062.48,629.617 1064.46,629.619 1066.44,629.621 1068.42,629.622 1070.41,629.624 1072.39,629.626 1074.37,629.627 1076.35,629.629 1078.33,629.631 1080.32,629.633 1082.3,629.634 1084.28,629.636 1086.26,629.638 1088.24,629.639 1090.23,629.641 1092.21,629.643 1094.19,629.644 1096.17,629.646 1098.15,629.648 1100.14,629.65 1102.12,629.651 1104.1,629.653 1106.08,629.655 1108.06,629.656 1110.05,629.658 1112.03,629.66 1114.01,629.662 1115.99,629.663 1117.97,629.665 1119.96,629.667 1121.94,629.668 1123.92,629.67 1125.9,629.672 1127.88,629.674 1129.87,629.675 1131.85,629.677 1133.83,629.679 1135.81,629.68 1137.79,629.682 1139.78,629.684 1141.76,629.686 1143.74,629.687 1145.72,629.689 1147.7,629.691 1149.69,629.692 1151.67,629.694 1153.65,629.696 1155.63,629.698 1157.61,629.699 1159.6,629.701 1161.58,629.703 1163.56,629.704 1165.54,629.706 1167.52,629.708 1169.51,629.71 1171.49,629.711 1173.47,629.713 1175.45,629.715 1177.43,629.716 1179.42,629.718 1181.4,629.72 1183.38,629.722 1185.36,629.723 1187.34,629.725 1189.33,629.727 1191.31,629.728 1193.29,629.73 1195.27,629.732 1197.25,629.734 1199.24,629.735 1201.22,629.737 1203.2,629.739 1205.18,629.74 1207.16,629.742 1209.15,629.744 1211.13,629.746 1213.11,629.747 1215.09,629.749 1217.07,629.751 1219.06,629.752 1221.04,629.754 1223.02,629.756 1225,629.758 1226.98,629.759 1228.97,629.761 1230.95,629.763 1232.93,629.764 1234.91,629.766 1236.89,629.768 1238.88,629.77 1240.86,629.771 1242.84,629.773 1244.82,629.775 1246.8,629.776 1248.79,629.778 1250.77,629.78 1252.75,629.782 1254.73,629.783 1256.71,629.785 1258.7,629.787 1260.68,629.788 1262.66,629.79 1264.64,629.792 1266.62,629.794 1268.61,629.795 1270.59,629.797 1272.57,629.799 1274.55,629.8 1276.53,629.802 1278.52,629.804 1280.5,629.806 1282.48,629.807 1284.46,629.809 1286.44,629.811 1288.43,629.812 1290.41,629.814 1292.39,629.816 1294.37,629.818 1296.35,629.819 1298.34,629.821 1300.32,629.823 1302.3,629.825 1304.28,629.826 1306.26,629.828 1308.25,629.83 1310.23,629.831 1312.21,629.833 1314.19,629.835 1316.17,629.837 1318.16,629.838 1320.14,629.84 1322.12,629.842 1324.1,629.843 1326.08,629.845 1328.07,629.847 1330.05,629.849 1332.03,629.85 1334.01,629.852 1335.99,629.854 1337.98,629.856 1339.96,629.857 1341.94,629.859 1343.92,629.861 1345.9,629.862 1347.88,629.864 1349.87,629.866 1351.85,629.868 1353.83,629.869 1355.81,629.871 1357.79,629.873 1359.78,629.874 1361.76,629.876 1363.74,629.878 1365.72,629.88 1367.7,629.881 1369.69,629.883 1371.67,629.885 1373.65,629.887 1375.63,629.888 1377.61,629.89 1379.6,629.892 1381.58,629.893 1383.56,629.895 1385.54,629.897 1387.52,629.899 1389.51,629.9 1391.49,629.902 1393.47,629.904 1395.45,629.906 1397.43,629.907 1399.42,629.909 1401.4,629.911 1403.38,629.912 1405.36,629.914 1407.34,629.916 1409.33,629.918 1411.31,629.919 1413.29,629.921 1415.27,629.923 1417.25,629.925 1419.24,629.926 1421.22,629.928 1423.2,629.93 1425.18,629.931 1427.16,629.933 1429.15,629.935 1431.13,629.937 1433.11,629.938 1435.09,629.94 1437.07,629.942 1439.06,629.944 1441.04,629.945 1443.02,629.947 1445,629.949 1446.98,629.95 1448.97,629.952 1450.95,629.954 1452.93,629.956 1454.91,629.957 1456.89,629.959 1458.88,629.961 1460.86,629.963 1462.84,629.964 1464.82,629.966 1466.8,629.968 1468.79,629.969 1470.77,629.971 1472.75,629.973 1474.73,629.975 1476.71,629.976 1478.7,629.978 1480.68,629.98 1482.66,629.982 1484.64,629.983 1486.62,629.985 1488.61,629.987 1490.59,629.989 1492.57,629.99 1494.55,629.992 1496.53,629.994 1498.52,629.995 1500.5,629.997 1502.48,629.999 1504.46,630.001 1506.44,630.002 1508.43,630.004 1510.41,630.006 1512.39,630.008 1514.37,630.009 1516.35,630.011 1518.34,630.013 1520.32,630.014 1522.3,630.016 1524.28,630.018 1526.26,630.02 1528.25,630.021 1530.23,630.023 1532.21,630.025 1534.19,630.027 1536.17,630.028 1538.16,630.03 1540.14,630.032 1542.12,630.034 1544.1,630.035 1546.08,630.037 1548.07,630.039 1550.05,630.04 1552.03,630.042 1554.01,630.044 1555.99,630.046 1557.98,630.047 1559.96,630.049 1561.94,630.051 1563.92,630.053 1565.9,630.054 1567.89,630.056 1569.87,630.058 1571.85,630.06 1573.83,630.061 1575.81,630.063 1577.8,630.065 1579.78,630.067 1581.76,630.068 1583.74,630.07 1585.72,630.072 1587.71,630.073 1589.69,630.075 1591.67,630.077 1593.65,630.079 1595.63,630.08 1597.62,630.082 1599.6,630.084 1601.58,630.086 1603.56,630.087 1605.54,630.089 1607.53,630.091 1609.51,630.093 1611.49,630.094 1613.47,630.096 1615.45,630.098 1617.44,630.1 1619.42,630.101 1621.4,630.103 1623.38,630.105 1625.36,630.106 1627.35,630.108 1629.33,630.11 1631.31,630.112 1633.29,630.113 1635.27,630.115 1637.26,630.117 1639.24,630.119 1641.22,630.12 1643.2,630.122 1645.18,630.124 1647.17,630.126 1649.15,630.127 1651.13,630.129 1653.11,630.131 1655.09,630.133 1657.08,630.134 1659.06,630.136 1661.04,630.138 1663.02,630.14 1665,630.141 1666.99,630.143 1668.97,630.145 1670.95,630.147 1672.93,630.148 1674.91,630.15 1676.9,630.152 1678.88,630.153 1680.86,630.155 1682.84,630.157 1684.82,630.159 1686.81,630.16 1688.79,630.162 1690.77,630.164 1692.75,630.166 1694.73,630.167 1696.72,630.169 1698.7,630.171 1700.68,630.173 1702.66,630.174 1704.64,630.176 1706.63,630.178 1708.61,630.18 1710.59,630.181 1712.57,630.183 1714.55,630.185 1716.54,630.187 1718.52,630.188 1720.5,630.19 1722.48,630.192 1724.46,630.194 1726.45,630.195 1728.43,630.197 1730.41,630.199 1732.39,630.201 1734.37,630.202 1736.36,630.204 1738.34,630.206 1740.32,630.208 1742.3,630.209 1744.28,630.211 1746.27,630.213 1748.25,630.215 1750.23,630.216 1752.21,630.218 1754.19,630.22 1756.18,630.222 1758.16,630.223 1760.14,630.225 1762.12,630.227 1764.1,630.229 1766.09,630.23 1768.07,630.232 1770.05,630.234 1772.03,630.236 1774.01,630.237 1776,630.239 1777.98,630.241 1779.96,630.243 1781.94,630.244 1783.92,630.246 1785.91,630.248 1787.89,630.249 1789.87,630.251 1791.85,630.253 1793.83,630.255 1795.82,630.256 1797.8,630.258 1799.78,630.26 1801.76,630.262 1803.74,630.263 1805.73,630.265 1807.71,630.267 1809.69,630.269 1811.67,630.27 1813.65,630.272 1815.64,630.274 1817.62,630.276 1819.6,630.277 1821.58,630.279 1823.56,630.281 1825.55,630.283 1827.53,630.284 1829.51,630.286 1831.49,630.288 1833.47,630.29 1835.46,630.291 1837.44,630.293 1839.42,630.295 1841.4,630.297 1843.38,630.299 1845.37,630.3 1847.35,630.302 1849.33,630.304 1851.31,630.306 1853.29,630.307 1855.28,630.309 1857.26,630.311 1859.24,630.313 1861.22,630.314 1863.2,630.316 1865.19,630.318 1867.17,630.32 1869.15,630.321 1871.13,630.323 1873.11,630.325 1875.1,630.327 1877.08,630.328 1879.06,630.33 1881.04,630.332 1883.02,630.334 1885.01,630.335 1886.99,630.337 1888.97,630.339 1890.95,630.341 1892.93,630.342 1894.92,630.344 1896.9,630.346 1898.88,630.348 1900.86,630.349 1902.84,630.351 1904.83,630.353 1906.81,630.355 1908.79,630.356 1910.77,630.358 1912.75,630.36 1914.74,630.362 1916.72,630.363 1918.7,630.365 1920.68,630.367 1922.66,630.369 1924.65,630.37 1926.63,630.372 1928.61,630.374 1930.59,630.376 1932.57,630.377 1934.56,630.379 1936.54,630.381 1938.52,630.383 1940.5,630.384 1942.48,630.386 1944.47,630.388 1946.45,630.39 1948.43,630.392 1950.41,630.393 1952.39,630.395 1954.38,630.397 1956.36,630.399 1958.34,630.4 1960.32,630.402 1962.3,630.404 1964.29,630.406 1966.27,630.407 1968.25,630.409 1970.23,630.411 1972.21,630.413 1974.2,630.414 1976.18,630.416 1978.16,630.418 1980.14,630.42 1982.12,630.421 1984.11,630.423 1986.09,630.425 1988.07,630.427 1990.05,630.428 1992.03,630.43 1994.02,630.432 1996,630.434 1997.98,630.436 1999.96,630.437 2001.94,630.439 2003.92,630.441 2005.91,630.443 2007.89,630.444 2009.87,630.446 2011.85,630.448 2013.83,630.45 2015.82,630.451 2017.8,630.453 2019.78,630.455 2021.76,630.457 2023.74,630.458 2025.73,630.46 2027.71,630.462 2029.69,630.464 2031.67,630.465 2033.65,630.467 2035.64,630.469 2037.62,630.471 2039.6,630.473 2041.58,630.474 2043.56,630.476 2045.55,630.478 2047.53,630.48 2049.51,630.481 2051.49,630.483 2053.47,630.485 2055.46,630.487 2057.44,630.488 2059.42,630.49 2061.4,630.492 2063.38,630.494 2065.37,630.495 2067.35,630.497 2069.33,630.499 2071.31,630.501 2073.29,630.503 2075.28,630.504 2077.26,630.506 2079.24,630.508 2081.22,630.51 2083.2,630.511 2085.19,630.513 2087.17,630.515 2089.15,630.517 2091.13,630.518 2093.11,630.52 2095.1,630.522 2097.08,630.524 2099.06,630.525 2101.04,630.527 2103.02,630.529 2105.01,630.531 2106.99,630.533 2108.97,630.534 2110.95,630.536 2112.93,630.538 2114.92,630.54 2116.9,630.541 2118.88,630.543 2120.86,630.545 2122.84,630.547 2124.83,630.548 2126.81,630.55 2128.79,630.552 2130.77,630.554 2132.75,630.556 2134.74,630.557 2136.72,630.559 2138.7,630.561 2140.68,630.563 2142.66,630.564 2144.65,630.566 2146.63,630.568 2148.61,630.57 2150.59,630.571 2152.57,630.573 2154.56,630.575 2156.54,630.577 2158.52,630.579 2160.5,630.58 2162.48,630.582 2164.47,630.584 2166.45,630.586 2168.43,630.587 2170.41,630.589 2172.39,630.591 2174.38,630.593 2176.36,630.594 2178.34,630.596 2180.32,630.598 2182.3,630.6 2184.29,630.602 2186.27,630.603 2188.25,630.605 2190.23,630.607 2192.21,630.609 2194.2,630.61 2196.18,630.612 2198.16,630.614 2200.14,630.616 2202.12,630.618 2204.11,630.619 2206.09,630.621 2208.07,630.623 2210.05,630.625 2212.03,630.626 2214.02,630.628 2216,630.63 2217.98,630.632 2219.96,630.633 2221.94,630.635 2223.93,630.637 2225.91,630.639 2227.89,630.641 2229.87,630.642 2231.85,630.644 2233.84,630.646 2235.82,630.648 2237.8,630.649 2239.78,630.651 2241.76,630.653 2243.75,630.655 2245.73,630.657 2247.71,630.658 2249.69,630.66 2251.67,630.662 2253.66,630.664 2255.64,630.665 2257.62,630.667 2259.6,630.669 2261.58,630.671 2263.57,630.673 2265.55,630.674 2267.53,630.676 2269.51,630.678 2271.49,630.68 2273.48,630.681 2275.46,630.683 2277.44,630.685 2279.42,630.687 2281.4,630.689 2283.39,630.69 2285.37,630.692 2287.35,630.694 2289.33,630.696 2291.31,630.697 2293.3,630.699 "/>
<path clip-path="url(#clip820)" d="M1509.12 374.156 L2282.73 374.156 L2282.73 166.796 L1509.12 166.796  Z" fill="#ffffff" fill-rule="evenodd" fill-opacity="1"/>
<polyline clip-path="url(#clip820)" style="stroke:#000000; stroke-linecap:round; stroke-linejoin:round; stroke-width:4; stroke-opacity:1; fill:none" points="1509.12,374.156 2282.73,374.156 2282.73,166.796 1509.12,166.796 1509.12,374.156 "/>
<polyline clip-path="url(#clip820)" style="stroke:#009af9; stroke-linecap:round; stroke-linejoin:round; stroke-width:4; stroke-opacity:1; fill:none" points="1532.46,218.636 1672.52,218.636 "/>
<path clip-path="url(#clip820)" d="M1695.87 201.356 L1700.54 201.356 L1700.54 231.981 L1717.37 231.981 L1717.37 235.916 L1695.87 235.916 L1695.87 201.356 Z" fill="#000000" fill-rule="nonzero" fill-opacity="1" /><path clip-path="url(#clip820)" d="M1722.28 201.356 L1729.25 201.356 L1738.07 224.874 L1746.93 201.356 L1753.9 201.356 L1753.9 235.916 L1749.34 235.916 L1749.34 205.569 L1740.43 229.272 L1735.73 229.272 L1726.82 205.569 L1726.82 235.916 L1722.28 235.916 L1722.28 201.356 Z" fill="#000000" fill-rule="nonzero" fill-opacity="1" /><path clip-path="url(#clip820)" d="M1782.69 243.786 L1782.69 247.096 L1758.07 247.096 L1758.07 243.786 L1782.69 243.786 Z" fill="#000000" fill-rule="nonzero" fill-opacity="1" /><path clip-path="url(#clip820)" d="M1798.44 205.962 L1792.09 223.161 L1804.8 223.161 L1798.44 205.962 M1795.8 201.356 L1801.1 201.356 L1814.27 235.916 L1809.41 235.916 L1806.26 227.05 L1790.68 227.05 L1787.53 235.916 L1782.6 235.916 L1795.8 201.356 Z" fill="#000000" fill-rule="nonzero" fill-opacity="1" /><path clip-path="url(#clip820)" d="M1840.68 220.268 L1840.68 235.916 L1836.42 235.916 L1836.42 220.407 Q1836.42 216.726 1834.99 214.897 Q1833.55 213.069 1830.68 213.069 Q1827.23 213.069 1825.24 215.268 Q1823.25 217.467 1823.25 221.263 L1823.25 235.916 L1818.97 235.916 L1818.97 209.99 L1823.25 209.99 L1823.25 214.018 Q1824.78 211.68 1826.84 210.522 Q1828.92 209.365 1831.63 209.365 Q1836.1 209.365 1838.39 212.143 Q1840.68 214.897 1840.68 220.268 Z" fill="#000000" fill-rule="nonzero" fill-opacity="1" /><path clip-path="url(#clip820)" d="M1866.24 213.925 L1866.24 199.897 L1870.5 199.897 L1870.5 235.916 L1866.24 235.916 L1866.24 232.027 Q1864.89 234.342 1862.83 235.476 Q1860.8 236.587 1857.93 236.587 Q1853.23 236.587 1850.26 232.837 Q1847.32 229.087 1847.32 222.976 Q1847.32 216.865 1850.26 213.115 Q1853.23 209.365 1857.93 209.365 Q1860.8 209.365 1862.83 210.499 Q1864.89 211.61 1866.24 213.925 M1851.72 222.976 Q1851.72 227.675 1853.64 230.36 Q1855.59 233.022 1858.97 233.022 Q1862.35 233.022 1864.29 230.36 Q1866.24 227.675 1866.24 222.976 Q1866.24 218.277 1864.29 215.615 Q1862.35 212.93 1858.97 212.93 Q1855.59 212.93 1853.64 215.615 Q1851.72 218.277 1851.72 222.976 Z" fill="#000000" fill-rule="nonzero" fill-opacity="1" /><path clip-path="url(#clip820)" d="M1894.29 213.971 Q1893.57 213.555 1892.72 213.37 Q1891.88 213.161 1890.87 213.161 Q1887.25 213.161 1885.31 215.522 Q1883.39 217.86 1883.39 222.258 L1883.39 235.916 L1879.11 235.916 L1879.11 209.99 L1883.39 209.99 L1883.39 214.018 Q1884.73 211.657 1886.88 210.522 Q1889.04 209.365 1892.12 209.365 Q1892.56 209.365 1893.09 209.434 Q1893.62 209.481 1894.27 209.596 L1894.29 213.971 Z" fill="#000000" fill-rule="nonzero" fill-opacity="1" /><path clip-path="url(#clip820)" d="M1919.89 221.888 L1919.89 223.971 L1900.31 223.971 Q1900.59 228.369 1902.95 230.684 Q1905.33 232.976 1909.57 232.976 Q1912.02 232.976 1914.31 232.374 Q1916.63 231.772 1918.9 230.569 L1918.9 234.596 Q1916.61 235.568 1914.2 236.078 Q1911.79 236.587 1909.31 236.587 Q1903.11 236.587 1899.48 232.976 Q1895.87 229.365 1895.87 223.207 Q1895.87 216.842 1899.29 213.115 Q1902.74 209.365 1908.57 209.365 Q1913.81 209.365 1916.84 212.745 Q1919.89 216.101 1919.89 221.888 M1915.63 220.638 Q1915.59 217.143 1913.67 215.059 Q1911.77 212.976 1908.62 212.976 Q1905.06 212.976 1902.9 214.99 Q1900.77 217.004 1900.45 220.661 L1915.63 220.638 Z" fill="#000000" fill-rule="nonzero" fill-opacity="1" /><path clip-path="url(#clip820)" d="M1926.88 209.99 L1931.14 209.99 L1931.14 235.916 L1926.88 235.916 L1926.88 209.99 M1926.88 199.897 L1931.14 199.897 L1931.14 205.291 L1926.88 205.291 L1926.88 199.897 Z" fill="#000000" fill-rule="nonzero" fill-opacity="1" /><path clip-path="url(#clip820)" d="M1959.75 243.786 L1959.75 247.096 L1935.12 247.096 L1935.12 243.786 L1959.75 243.786 Z" fill="#000000" fill-rule="nonzero" fill-opacity="1" /><path clip-path="url(#clip820)" d="M1966.3 222.976 Q1966.3 227.675 1968.23 230.36 Q1970.17 233.022 1973.55 233.022 Q1976.93 233.022 1978.87 230.36 Q1980.82 227.675 1980.82 222.976 Q1980.82 218.277 1978.87 215.615 Q1976.93 212.93 1973.55 212.93 Q1970.17 212.93 1968.23 215.615 Q1966.3 218.277 1966.3 222.976 M1980.82 232.027 Q1979.48 234.342 1977.42 235.476 Q1975.38 236.587 1972.51 236.587 Q1967.81 236.587 1964.85 232.837 Q1961.91 229.087 1961.91 222.976 Q1961.91 216.865 1964.85 213.115 Q1967.81 209.365 1972.51 209.365 Q1975.38 209.365 1977.42 210.499 Q1979.48 211.61 1980.82 213.925 L1980.82 209.99 L1985.08 209.99 L1985.08 245.777 L1980.82 245.777 L1980.82 232.027 Z" fill="#000000" fill-rule="nonzero" fill-opacity="1" /><path clip-path="url(#clip820)" d="M1993.41 225.684 L1993.41 209.99 L1997.67 209.99 L1997.67 225.522 Q1997.67 229.203 1999.11 231.055 Q2000.54 232.883 2003.41 232.883 Q2006.86 232.883 2008.85 230.684 Q2010.86 228.485 2010.86 224.689 L2010.86 209.99 L2015.12 209.99 L2015.12 235.916 L2010.86 235.916 L2010.86 231.934 Q2009.31 234.295 2007.25 235.453 Q2005.22 236.587 2002.51 236.587 Q1998.04 236.587 1995.73 233.809 Q1993.41 231.031 1993.41 225.684 M2004.13 209.365 L2004.13 209.365 Z" fill="#000000" fill-rule="nonzero" fill-opacity="1" /><path clip-path="url(#clip820)" d="M2035.68 222.883 Q2030.52 222.883 2028.53 224.064 Q2026.54 225.244 2026.54 228.092 Q2026.54 230.36 2028.02 231.703 Q2029.52 233.022 2032.09 233.022 Q2035.63 233.022 2037.76 230.522 Q2039.92 227.999 2039.92 223.832 L2039.92 222.883 L2035.68 222.883 M2044.17 221.124 L2044.17 235.916 L2039.92 235.916 L2039.92 231.981 Q2038.46 234.342 2036.28 235.476 Q2034.11 236.587 2030.96 236.587 Q2026.98 236.587 2024.61 234.365 Q2022.28 232.119 2022.28 228.369 Q2022.28 223.994 2025.19 221.772 Q2028.13 219.55 2033.94 219.55 L2039.92 219.55 L2039.92 219.133 Q2039.92 216.194 2037.97 214.596 Q2036.05 212.976 2032.55 212.976 Q2030.33 212.976 2028.23 213.508 Q2026.12 214.041 2024.17 215.106 L2024.17 211.17 Q2026.51 210.268 2028.71 209.828 Q2030.91 209.365 2032.99 209.365 Q2038.62 209.365 2041.4 212.282 Q2044.17 215.198 2044.17 221.124 Z" fill="#000000" fill-rule="nonzero" fill-opacity="1" /><path clip-path="url(#clip820)" d="M2069.48 210.754 L2069.48 214.782 Q2067.67 213.856 2065.73 213.393 Q2063.78 212.93 2061.7 212.93 Q2058.53 212.93 2056.93 213.902 Q2055.36 214.874 2055.36 216.819 Q2055.36 218.3 2056.49 219.157 Q2057.62 219.99 2061.05 220.754 L2062.51 221.078 Q2067.05 222.05 2068.94 223.832 Q2070.86 225.592 2070.86 228.763 Q2070.86 232.374 2067.99 234.481 Q2065.15 236.587 2060.15 236.587 Q2058.06 236.587 2055.8 236.17 Q2053.55 235.777 2051.05 234.967 L2051.05 230.569 Q2053.41 231.795 2055.7 232.42 Q2057.99 233.022 2060.24 233.022 Q2063.25 233.022 2064.87 232.004 Q2066.49 230.962 2066.49 229.087 Q2066.49 227.351 2065.31 226.425 Q2064.15 225.499 2060.19 224.643 L2058.71 224.295 Q2054.75 223.462 2052.99 221.749 Q2051.23 220.013 2051.23 217.004 Q2051.23 213.346 2053.83 211.356 Q2056.42 209.365 2061.19 209.365 Q2063.55 209.365 2065.63 209.712 Q2067.72 210.059 2069.48 210.754 Z" fill="#000000" fill-rule="nonzero" fill-opacity="1" /><path clip-path="url(#clip820)" d="M2077.65 209.99 L2081.91 209.99 L2081.91 235.916 L2077.65 235.916 L2077.65 209.99 M2077.65 199.897 L2081.91 199.897 L2081.91 205.291 L2077.65 205.291 L2077.65 199.897 Z" fill="#000000" fill-rule="nonzero" fill-opacity="1" /><path clip-path="url(#clip820)" d="M2110.52 243.786 L2110.52 247.096 L2085.89 247.096 L2085.89 243.786 L2110.52 243.786 Z" fill="#000000" fill-rule="nonzero" fill-opacity="1" /><path clip-path="url(#clip820)" d="M2136.07 220.268 L2136.07 235.916 L2131.81 235.916 L2131.81 220.407 Q2131.81 216.726 2130.38 214.897 Q2128.94 213.069 2126.07 213.069 Q2122.62 213.069 2120.63 215.268 Q2118.64 217.467 2118.64 221.263 L2118.64 235.916 L2114.36 235.916 L2114.36 209.99 L2118.64 209.99 L2118.64 214.018 Q2120.17 211.68 2122.23 210.522 Q2124.31 209.365 2127.02 209.365 Q2131.49 209.365 2133.78 212.143 Q2136.07 214.897 2136.07 220.268 Z" fill="#000000" fill-rule="nonzero" fill-opacity="1" /><path clip-path="url(#clip820)" d="M2144.13 225.684 L2144.13 209.99 L2148.39 209.99 L2148.39 225.522 Q2148.39 229.203 2149.82 231.055 Q2151.26 232.883 2154.13 232.883 Q2157.58 232.883 2159.57 230.684 Q2161.58 228.485 2161.58 224.689 L2161.58 209.99 L2165.84 209.99 L2165.84 235.916 L2161.58 235.916 L2161.58 231.934 Q2160.03 234.295 2157.97 235.453 Q2155.93 236.587 2153.23 236.587 Q2148.76 236.587 2146.44 233.809 Q2144.13 231.031 2144.13 225.684 M2154.85 209.365 L2154.85 209.365 Z" fill="#000000" fill-rule="nonzero" fill-opacity="1" /><path clip-path="url(#clip820)" d="M2174.61 199.897 L2178.87 199.897 L2178.87 235.916 L2174.61 235.916 L2174.61 199.897 Z" fill="#000000" fill-rule="nonzero" fill-opacity="1" /><path clip-path="url(#clip820)" d="M2207.48 243.786 L2207.48 247.096 L2182.85 247.096 L2182.85 243.786 L2207.48 243.786 Z" fill="#000000" fill-rule="nonzero" fill-opacity="1" /><path clip-path="url(#clip820)" d="M2211.49 199.897 L2215.75 199.897 L2215.75 235.916 L2211.49 235.916 L2211.49 199.897 Z" fill="#000000" fill-rule="nonzero" fill-opacity="1" /><path clip-path="url(#clip820)" d="M2224.66 209.99 L2228.92 209.99 L2228.92 235.916 L2224.66 235.916 L2224.66 209.99 M2224.66 199.897 L2228.92 199.897 L2228.92 205.291 L2224.66 205.291 L2224.66 199.897 Z" fill="#000000" fill-rule="nonzero" fill-opacity="1" /><path clip-path="url(#clip820)" d="M2259.38 220.268 L2259.38 235.916 L2255.12 235.916 L2255.12 220.407 Q2255.12 216.726 2253.69 214.897 Q2252.25 213.069 2249.38 213.069 Q2245.93 213.069 2243.94 215.268 Q2241.95 217.467 2241.95 221.263 L2241.95 235.916 L2237.67 235.916 L2237.67 209.99 L2241.95 209.99 L2241.95 214.018 Q2243.48 211.68 2245.54 210.522 Q2247.62 209.365 2250.33 209.365 Q2254.8 209.365 2257.09 212.143 Q2259.38 214.897 2259.38 220.268 Z" fill="#000000" fill-rule="nonzero" fill-opacity="1" /><polyline clip-path="url(#clip820)" style="stroke:#e26f46; stroke-linecap:round; stroke-linejoin:round; stroke-width:4; stroke-opacity:1; fill:none" points="1532.46,270.476 1672.52,270.476 "/>
<path clip-path="url(#clip820)" d="M1695.87 253.196 L1700.54 253.196 L1700.54 283.821 L1717.37 283.821 L1717.37 287.756 L1695.87 287.756 L1695.87 253.196 Z" fill="#000000" fill-rule="nonzero" fill-opacity="1" /><path clip-path="url(#clip820)" d="M1722.28 253.196 L1729.25 253.196 L1738.07 276.714 L1746.93 253.196 L1753.9 253.196 L1753.9 287.756 L1749.34 287.756 L1749.34 257.409 L1740.43 281.112 L1735.73 281.112 L1726.82 257.409 L1726.82 287.756 L1722.28 287.756 L1722.28 253.196 Z" fill="#000000" fill-rule="nonzero" fill-opacity="1" /><path clip-path="url(#clip820)" d="M1782.69 295.626 L1782.69 298.936 L1758.07 298.936 L1758.07 295.626 L1782.69 295.626 Z" fill="#000000" fill-rule="nonzero" fill-opacity="1" /><path clip-path="url(#clip820)" d="M1784.89 253.196 L1812.05 253.196 L1812.05 256.761 L1790.19 283.821 L1812.58 283.821 L1812.58 287.756 L1784.36 287.756 L1784.36 284.191 L1806.21 257.131 L1784.89 257.131 L1784.89 253.196 Z" fill="#000000" fill-rule="nonzero" fill-opacity="1" /><path clip-path="url(#clip820)" d="M1840.73 272.108 L1840.73 287.756 L1836.47 287.756 L1836.47 272.247 Q1836.47 268.566 1835.03 266.737 Q1833.6 264.909 1830.73 264.909 Q1827.28 264.909 1825.29 267.108 Q1823.3 269.307 1823.3 273.103 L1823.3 287.756 L1819.01 287.756 L1819.01 251.737 L1823.3 251.737 L1823.3 265.858 Q1824.82 263.52 1826.88 262.362 Q1828.97 261.205 1831.68 261.205 Q1836.14 261.205 1838.44 263.983 Q1840.73 266.737 1840.73 272.108 Z" fill="#000000" fill-rule="nonzero" fill-opacity="1" /><path clip-path="url(#clip820)" d="M1848.78 277.524 L1848.78 261.83 L1853.04 261.83 L1853.04 277.362 Q1853.04 281.043 1854.48 282.895 Q1855.91 284.723 1858.78 284.723 Q1862.23 284.723 1864.22 282.524 Q1866.24 280.325 1866.24 276.529 L1866.24 261.83 L1870.5 261.83 L1870.5 287.756 L1866.24 287.756 L1866.24 283.774 Q1864.69 286.135 1862.62 287.293 Q1860.59 288.427 1857.88 288.427 Q1853.41 288.427 1851.1 285.649 Q1848.78 282.871 1848.78 277.524 M1859.5 261.205 L1859.5 261.205 Z" fill="#000000" fill-rule="nonzero" fill-opacity="1" /><path clip-path="url(#clip820)" d="M1898.97 295.626 L1898.97 298.936 L1874.34 298.936 L1874.34 295.626 L1898.97 295.626 Z" fill="#000000" fill-rule="nonzero" fill-opacity="1" /><path clip-path="url(#clip820)" d="M1905.52 274.816 Q1905.52 279.515 1907.44 282.2 Q1909.38 284.862 1912.76 284.862 Q1916.14 284.862 1918.09 282.2 Q1920.03 279.515 1920.03 274.816 Q1920.03 270.117 1918.09 267.455 Q1916.14 264.77 1912.76 264.77 Q1909.38 264.77 1907.44 267.455 Q1905.52 270.117 1905.52 274.816 M1920.03 283.867 Q1918.69 286.182 1916.63 287.316 Q1914.59 288.427 1911.72 288.427 Q1907.02 288.427 1904.06 284.677 Q1901.12 280.927 1901.12 274.816 Q1901.12 268.705 1904.06 264.955 Q1907.02 261.205 1911.72 261.205 Q1914.59 261.205 1916.63 262.339 Q1918.69 263.45 1920.03 265.765 L1920.03 261.83 L1924.29 261.83 L1924.29 297.617 L1920.03 297.617 L1920.03 283.867 Z" fill="#000000" fill-rule="nonzero" fill-opacity="1" /><path clip-path="url(#clip820)" d="M1932.62 277.524 L1932.62 261.83 L1936.88 261.83 L1936.88 277.362 Q1936.88 281.043 1938.32 282.895 Q1939.75 284.723 1942.62 284.723 Q1946.07 284.723 1948.06 282.524 Q1950.08 280.325 1950.08 276.529 L1950.08 261.83 L1954.34 261.83 L1954.34 287.756 L1950.08 287.756 L1950.08 283.774 Q1948.53 286.135 1946.47 287.293 Q1944.43 288.427 1941.72 288.427 Q1937.25 288.427 1934.94 285.649 Q1932.62 282.871 1932.62 277.524 M1943.34 261.205 L1943.34 261.205 Z" fill="#000000" fill-rule="nonzero" fill-opacity="1" /><path clip-path="url(#clip820)" d="M1974.89 274.723 Q1969.73 274.723 1967.74 275.904 Q1965.75 277.084 1965.75 279.932 Q1965.75 282.2 1967.23 283.543 Q1968.74 284.862 1971.3 284.862 Q1974.85 284.862 1976.98 282.362 Q1979.13 279.839 1979.13 275.672 L1979.13 274.723 L1974.89 274.723 M1983.39 272.964 L1983.39 287.756 L1979.13 287.756 L1979.13 283.821 Q1977.67 286.182 1975.49 287.316 Q1973.32 288.427 1970.17 288.427 Q1966.19 288.427 1963.83 286.205 Q1961.49 283.959 1961.49 280.209 Q1961.49 275.834 1964.41 273.612 Q1967.35 271.39 1973.16 271.39 L1979.13 271.39 L1979.13 270.973 Q1979.13 268.034 1977.18 266.436 Q1975.26 264.816 1971.77 264.816 Q1969.55 264.816 1967.44 265.348 Q1965.33 265.881 1963.39 266.946 L1963.39 263.01 Q1965.73 262.108 1967.93 261.668 Q1970.12 261.205 1972.21 261.205 Q1977.83 261.205 1980.61 264.122 Q1983.39 267.038 1983.39 272.964 Z" fill="#000000" fill-rule="nonzero" fill-opacity="1" /><path clip-path="url(#clip820)" d="M2008.69 262.594 L2008.69 266.622 Q2006.88 265.696 2004.94 265.233 Q2002.99 264.77 2000.91 264.77 Q1997.74 264.77 1996.14 265.742 Q1994.57 266.714 1994.57 268.659 Q1994.57 270.14 1995.7 270.997 Q1996.84 271.83 2000.26 272.594 L2001.72 272.918 Q2006.26 273.89 2008.16 275.672 Q2010.08 277.432 2010.08 280.603 Q2010.08 284.214 2007.21 286.321 Q2004.36 288.427 1999.36 288.427 Q1997.28 288.427 1995.01 288.01 Q1992.76 287.617 1990.26 286.807 L1990.26 282.409 Q1992.62 283.635 1994.92 284.26 Q1997.21 284.862 1999.45 284.862 Q2002.46 284.862 2004.08 283.844 Q2005.7 282.802 2005.7 280.927 Q2005.7 279.191 2004.52 278.265 Q2003.36 277.339 1999.41 276.483 L1997.93 276.135 Q1993.97 275.302 1992.21 273.589 Q1990.45 271.853 1990.45 268.844 Q1990.45 265.186 1993.04 263.196 Q1995.63 261.205 2000.4 261.205 Q2002.76 261.205 2004.85 261.552 Q2006.93 261.899 2008.69 262.594 Z" fill="#000000" fill-rule="nonzero" fill-opacity="1" /><path clip-path="url(#clip820)" d="M2016.86 261.83 L2021.12 261.83 L2021.12 287.756 L2016.86 287.756 L2016.86 261.83 M2016.86 251.737 L2021.12 251.737 L2021.12 257.131 L2016.86 257.131 L2016.86 251.737 Z" fill="#000000" fill-rule="nonzero" fill-opacity="1" /><path clip-path="url(#clip820)" d="M2049.73 295.626 L2049.73 298.936 L2025.1 298.936 L2025.1 295.626 L2049.73 295.626 Z" fill="#000000" fill-rule="nonzero" fill-opacity="1" /><path clip-path="url(#clip820)" d="M2075.29 272.108 L2075.29 287.756 L2071.03 287.756 L2071.03 272.247 Q2071.03 268.566 2069.59 266.737 Q2068.16 264.909 2065.29 264.909 Q2061.84 264.909 2059.85 267.108 Q2057.86 269.307 2057.86 273.103 L2057.86 287.756 L2053.57 287.756 L2053.57 261.83 L2057.86 261.83 L2057.86 265.858 Q2059.38 263.52 2061.44 262.362 Q2063.53 261.205 2066.23 261.205 Q2070.7 261.205 2072.99 263.983 Q2075.29 266.737 2075.29 272.108 Z" fill="#000000" fill-rule="nonzero" fill-opacity="1" /><path clip-path="url(#clip820)" d="M2083.34 277.524 L2083.34 261.83 L2087.6 261.83 L2087.6 277.362 Q2087.6 281.043 2089.04 282.895 Q2090.47 284.723 2093.34 284.723 Q2096.79 284.723 2098.78 282.524 Q2100.79 280.325 2100.79 276.529 L2100.79 261.83 L2105.05 261.83 L2105.05 287.756 L2100.79 287.756 L2100.79 283.774 Q2099.24 286.135 2097.18 287.293 Q2095.15 288.427 2092.44 288.427 Q2087.97 288.427 2085.66 285.649 Q2083.34 282.871 2083.34 277.524 M2094.06 261.205 L2094.06 261.205 Z" fill="#000000" fill-rule="nonzero" fill-opacity="1" /><path clip-path="url(#clip820)" d="M2113.83 251.737 L2118.09 251.737 L2118.09 287.756 L2113.83 287.756 L2113.83 251.737 Z" fill="#000000" fill-rule="nonzero" fill-opacity="1" /><path clip-path="url(#clip820)" d="M2146.7 295.626 L2146.7 298.936 L2122.07 298.936 L2122.07 295.626 L2146.7 295.626 Z" fill="#000000" fill-rule="nonzero" fill-opacity="1" /><path clip-path="url(#clip820)" d="M2150.7 251.737 L2154.96 251.737 L2154.96 287.756 L2150.7 287.756 L2150.7 251.737 Z" fill="#000000" fill-rule="nonzero" fill-opacity="1" /><path clip-path="url(#clip820)" d="M2163.87 261.83 L2168.13 261.83 L2168.13 287.756 L2163.87 287.756 L2163.87 261.83 M2163.87 251.737 L2168.13 251.737 L2168.13 257.131 L2163.87 257.131 L2163.87 251.737 Z" fill="#000000" fill-rule="nonzero" fill-opacity="1" /><path clip-path="url(#clip820)" d="M2198.6 272.108 L2198.6 287.756 L2194.34 287.756 L2194.34 272.247 Q2194.34 268.566 2192.9 266.737 Q2191.47 264.909 2188.6 264.909 Q2185.15 264.909 2183.16 267.108 Q2181.16 269.307 2181.16 273.103 L2181.16 287.756 L2176.88 287.756 L2176.88 261.83 L2181.16 261.83 L2181.16 265.858 Q2182.69 263.52 2184.75 262.362 Q2186.84 261.205 2189.54 261.205 Q2194.01 261.205 2196.3 263.983 Q2198.6 266.737 2198.6 272.108 Z" fill="#000000" fill-rule="nonzero" fill-opacity="1" /><polyline clip-path="url(#clip820)" style="stroke:#3da44d; stroke-linecap:round; stroke-linejoin:round; stroke-width:4; stroke-opacity:1; fill:none" points="1532.46,322.316 1672.52,322.316 "/>
<path clip-path="url(#clip820)" d="M1695.87 305.036 L1700.54 305.036 L1700.54 335.661 L1717.37 335.661 L1717.37 339.596 L1695.87 339.596 L1695.87 305.036 Z" fill="#000000" fill-rule="nonzero" fill-opacity="1" /><path clip-path="url(#clip820)" d="M1722.28 305.036 L1729.25 305.036 L1738.07 328.554 L1746.93 305.036 L1753.9 305.036 L1753.9 339.596 L1749.34 339.596 L1749.34 309.249 L1740.43 332.952 L1735.73 332.952 L1726.82 309.249 L1726.82 339.596 L1722.28 339.596 L1722.28 305.036 Z" fill="#000000" fill-rule="nonzero" fill-opacity="1" /><path clip-path="url(#clip820)" d="M1782.69 347.466 L1782.69 350.776 L1758.07 350.776 L1758.07 347.466 L1782.69 347.466 Z" fill="#000000" fill-rule="nonzero" fill-opacity="1" /><path clip-path="url(#clip820)" d="M1807.6 306.17 L1807.6 310.73 Q1804.94 309.457 1802.58 308.832 Q1800.22 308.207 1798.02 308.207 Q1794.2 308.207 1792.12 309.688 Q1790.06 311.17 1790.06 313.901 Q1790.06 316.193 1791.42 317.374 Q1792.81 318.531 1796.65 319.249 L1799.48 319.827 Q1804.71 320.823 1807.19 323.346 Q1809.69 325.846 1809.69 330.059 Q1809.69 335.082 1806.31 337.674 Q1802.95 340.267 1796.44 340.267 Q1793.99 340.267 1791.21 339.711 Q1788.46 339.156 1785.5 338.068 L1785.5 333.253 Q1788.34 334.85 1791.07 335.661 Q1793.81 336.471 1796.44 336.471 Q1800.45 336.471 1802.63 334.897 Q1804.8 333.323 1804.8 330.406 Q1804.8 327.86 1803.23 326.424 Q1801.68 324.989 1798.11 324.272 L1795.26 323.716 Q1790.03 322.675 1787.69 320.452 Q1785.36 318.23 1785.36 314.272 Q1785.36 309.688 1788.57 307.05 Q1791.82 304.411 1797.49 304.411 Q1799.92 304.411 1802.44 304.851 Q1804.96 305.29 1807.6 306.17 Z" fill="#000000" fill-rule="nonzero" fill-opacity="1" /><path clip-path="url(#clip820)" d="M1821.65 308.878 L1821.65 321.864 L1827.53 321.864 Q1830.8 321.864 1832.58 320.175 Q1834.36 318.485 1834.36 315.36 Q1834.36 312.258 1832.58 310.568 Q1830.8 308.878 1827.53 308.878 L1821.65 308.878 M1816.98 305.036 L1827.53 305.036 Q1833.34 305.036 1836.31 307.675 Q1839.29 310.29 1839.29 315.36 Q1839.29 320.475 1836.31 323.091 Q1833.34 325.707 1827.53 325.707 L1821.65 325.707 L1821.65 339.596 L1816.98 339.596 L1816.98 305.036 Z" fill="#000000" fill-rule="nonzero" fill-opacity="1" /><path clip-path="url(#clip820)" d="M1869.13 334.665 L1869.13 325.383 L1861.49 325.383 L1861.49 321.54 L1873.76 321.54 L1873.76 336.378 Q1871.05 338.299 1867.79 339.295 Q1864.52 340.267 1860.82 340.267 Q1852.72 340.267 1848.13 335.545 Q1843.57 330.799 1843.57 322.35 Q1843.57 313.878 1848.13 309.156 Q1852.72 304.411 1860.82 304.411 Q1864.2 304.411 1867.23 305.244 Q1870.29 306.077 1872.86 307.698 L1872.86 312.675 Q1870.26 310.476 1867.35 309.364 Q1864.43 308.253 1861.21 308.253 Q1854.87 308.253 1851.68 311.795 Q1848.5 315.337 1848.5 322.35 Q1848.5 329.341 1851.68 332.883 Q1854.87 336.424 1861.21 336.424 Q1863.69 336.424 1865.63 336.008 Q1867.58 335.568 1869.13 334.665 Z" fill="#000000" fill-rule="nonzero" fill-opacity="1" /><path clip-path="url(#clip820)" d="M1901.81 347.466 L1901.81 350.776 L1877.18 350.776 L1877.18 347.466 L1901.81 347.466 Z" fill="#000000" fill-rule="nonzero" fill-opacity="1" /><path clip-path="url(#clip820)" d="M1908.37 326.656 Q1908.37 331.355 1910.29 334.04 Q1912.23 336.702 1915.61 336.702 Q1918.99 336.702 1920.93 334.04 Q1922.88 331.355 1922.88 326.656 Q1922.88 321.957 1920.93 319.295 Q1918.99 316.61 1915.61 316.61 Q1912.23 316.61 1910.29 319.295 Q1908.37 321.957 1908.37 326.656 M1922.88 335.707 Q1921.54 338.022 1919.48 339.156 Q1917.44 340.267 1914.57 340.267 Q1909.87 340.267 1906.91 336.517 Q1903.97 332.767 1903.97 326.656 Q1903.97 320.545 1906.91 316.795 Q1909.87 313.045 1914.57 313.045 Q1917.44 313.045 1919.48 314.179 Q1921.54 315.29 1922.88 317.605 L1922.88 313.67 L1927.14 313.67 L1927.14 349.457 L1922.88 349.457 L1922.88 335.707 Z" fill="#000000" fill-rule="nonzero" fill-opacity="1" /><path clip-path="url(#clip820)" d="M1935.47 329.364 L1935.47 313.67 L1939.73 313.67 L1939.73 329.202 Q1939.73 332.883 1941.17 334.735 Q1942.6 336.563 1945.47 336.563 Q1948.92 336.563 1950.91 334.364 Q1952.93 332.165 1952.93 328.369 L1952.93 313.67 L1957.18 313.67 L1957.18 339.596 L1952.93 339.596 L1952.93 335.614 Q1951.37 337.975 1949.31 339.133 Q1947.28 340.267 1944.57 340.267 Q1940.1 340.267 1937.79 337.489 Q1935.47 334.711 1935.47 329.364 M1946.19 313.045 L1946.19 313.045 Z" fill="#000000" fill-rule="nonzero" fill-opacity="1" /><path clip-path="url(#clip820)" d="M1977.74 326.563 Q1972.58 326.563 1970.59 327.744 Q1968.6 328.924 1968.6 331.772 Q1968.6 334.04 1970.08 335.383 Q1971.58 336.702 1974.15 336.702 Q1977.69 336.702 1979.82 334.202 Q1981.98 331.679 1981.98 327.512 L1981.98 326.563 L1977.74 326.563 M1986.24 324.804 L1986.24 339.596 L1981.98 339.596 L1981.98 335.661 Q1980.52 338.022 1978.34 339.156 Q1976.17 340.267 1973.02 340.267 Q1969.04 340.267 1966.68 338.045 Q1964.34 335.799 1964.34 332.049 Q1964.34 327.674 1967.25 325.452 Q1970.19 323.23 1976 323.23 L1981.98 323.23 L1981.98 322.813 Q1981.98 319.874 1980.03 318.276 Q1978.11 316.656 1974.61 316.656 Q1972.39 316.656 1970.29 317.188 Q1968.18 317.721 1966.24 318.786 L1966.24 314.85 Q1968.57 313.948 1970.77 313.508 Q1972.97 313.045 1975.05 313.045 Q1980.68 313.045 1983.46 315.962 Q1986.24 318.878 1986.24 324.804 Z" fill="#000000" fill-rule="nonzero" fill-opacity="1" /><path clip-path="url(#clip820)" d="M2011.54 314.434 L2011.54 318.462 Q2009.73 317.536 2007.79 317.073 Q2005.84 316.61 2003.76 316.61 Q2000.59 316.61 1998.99 317.582 Q1997.42 318.554 1997.42 320.499 Q1997.42 321.98 1998.55 322.837 Q1999.68 323.67 2003.11 324.434 L2004.57 324.758 Q2009.11 325.73 2011 327.512 Q2012.92 329.272 2012.92 332.443 Q2012.92 336.054 2010.05 338.161 Q2007.21 340.267 2002.21 340.267 Q2000.12 340.267 1997.86 339.85 Q1995.61 339.457 1993.11 338.647 L1993.11 334.249 Q1995.47 335.475 1997.76 336.1 Q2000.05 336.702 2002.3 336.702 Q2005.31 336.702 2006.93 335.684 Q2008.55 334.642 2008.55 332.767 Q2008.55 331.031 2007.37 330.105 Q2006.21 329.179 2002.25 328.323 L2000.77 327.975 Q1996.81 327.142 1995.05 325.429 Q1993.3 323.693 1993.3 320.684 Q1993.3 317.026 1995.89 315.036 Q1998.48 313.045 2003.25 313.045 Q2005.61 313.045 2007.69 313.392 Q2009.78 313.739 2011.54 314.434 Z" fill="#000000" fill-rule="nonzero" fill-opacity="1" /><path clip-path="url(#clip820)" d="M2019.71 313.67 L2023.97 313.67 L2023.97 339.596 L2019.71 339.596 L2019.71 313.67 M2019.71 303.577 L2023.97 303.577 L2023.97 308.971 L2019.71 308.971 L2019.71 303.577 Z" fill="#000000" fill-rule="nonzero" fill-opacity="1" /><path clip-path="url(#clip820)" d="M2052.58 347.466 L2052.58 350.776 L2027.95 350.776 L2027.95 347.466 L2052.58 347.466 Z" fill="#000000" fill-rule="nonzero" fill-opacity="1" /><path clip-path="url(#clip820)" d="M2078.13 323.948 L2078.13 339.596 L2073.87 339.596 L2073.87 324.087 Q2073.87 320.406 2072.44 318.577 Q2071 316.749 2068.13 316.749 Q2064.68 316.749 2062.69 318.948 Q2060.7 321.147 2060.7 324.943 L2060.7 339.596 L2056.42 339.596 L2056.42 313.67 L2060.7 313.67 L2060.7 317.698 Q2062.23 315.36 2064.29 314.202 Q2066.37 313.045 2069.08 313.045 Q2073.55 313.045 2075.84 315.823 Q2078.13 318.577 2078.13 323.948 Z" fill="#000000" fill-rule="nonzero" fill-opacity="1" /><path clip-path="url(#clip820)" d="M2086.19 329.364 L2086.19 313.67 L2090.45 313.67 L2090.45 329.202 Q2090.45 332.883 2091.88 334.735 Q2093.32 336.563 2096.19 336.563 Q2099.64 336.563 2101.63 334.364 Q2103.64 332.165 2103.64 328.369 L2103.64 313.67 L2107.9 313.67 L2107.9 339.596 L2103.64 339.596 L2103.64 335.614 Q2102.09 337.975 2100.03 339.133 Q2097.99 340.267 2095.29 340.267 Q2090.82 340.267 2088.5 337.489 Q2086.19 334.711 2086.19 329.364 M2096.91 313.045 L2096.91 313.045 Z" fill="#000000" fill-rule="nonzero" fill-opacity="1" /><path clip-path="url(#clip820)" d="M2116.67 303.577 L2120.93 303.577 L2120.93 339.596 L2116.67 339.596 L2116.67 303.577 Z" fill="#000000" fill-rule="nonzero" fill-opacity="1" /><path clip-path="url(#clip820)" d="M2149.54 347.466 L2149.54 350.776 L2124.92 350.776 L2124.92 347.466 L2149.54 347.466 Z" fill="#000000" fill-rule="nonzero" fill-opacity="1" /><path clip-path="url(#clip820)" d="M2153.55 303.577 L2157.81 303.577 L2157.81 339.596 L2153.55 339.596 L2153.55 303.577 Z" fill="#000000" fill-rule="nonzero" fill-opacity="1" /><path clip-path="url(#clip820)" d="M2166.72 313.67 L2170.98 313.67 L2170.98 339.596 L2166.72 339.596 L2166.72 313.67 M2166.72 303.577 L2170.98 303.577 L2170.98 308.971 L2166.72 308.971 L2166.72 303.577 Z" fill="#000000" fill-rule="nonzero" fill-opacity="1" /><path clip-path="url(#clip820)" d="M2201.44 323.948 L2201.44 339.596 L2197.18 339.596 L2197.18 324.087 Q2197.18 320.406 2195.75 318.577 Q2194.31 316.749 2191.44 316.749 Q2187.99 316.749 2186 318.948 Q2184.01 321.147 2184.01 324.943 L2184.01 339.596 L2179.73 339.596 L2179.73 313.67 L2184.01 313.67 L2184.01 317.698 Q2185.54 315.36 2187.6 314.202 Q2189.68 313.045 2192.39 313.045 Q2196.86 313.045 2199.15 315.823 Q2201.44 318.577 2201.44 323.948 Z" fill="#000000" fill-rule="nonzero" fill-opacity="1" /></svg>
