<?xml version="1.0" encoding="utf-8"?>
<svg xmlns="http://www.w3.org/2000/svg" xmlns:xlink="http://www.w3.org/1999/xlink" width="600" height="400" viewBox="0 0 2400 1600">
<defs>
  <clipPath id="clip050">
    <rect x="0" y="0" width="2400" height="1600"/>
  </clipPath>
</defs>
<path clip-path="url(#clip050)" d="M0 1600 L2400 1600 L2400 0 L0 0  Z" fill="#ffffff" fill-rule="evenodd" fill-opacity="1"/>
<defs>
  <clipPath id="clip051">
    <rect x="480" y="0" width="1681" height="1600"/>
  </clipPath>
</defs>
<path clip-path="url(#clip050)" d="M221.637 1423.18 L2352.76 1423.18 L2352.76 123.472 L221.637 123.472  Z" fill="#ffffff" fill-rule="evenodd" fill-opacity="1"/>
<defs>
  <clipPath id="clip052">
    <rect x="221" y="123" width="2132" height="1301"/>
  </clipPath>
</defs>
<polyline clip-path="url(#clip052)" style="stroke:#000000; stroke-linecap:round; stroke-linejoin:round; stroke-width:2; stroke-opacity:0.1; fill:none" points="277.963,1423.18 277.963,123.472 "/>
<polyline clip-path="url(#clip052)" style="stroke:#000000; stroke-linecap:round; stroke-linejoin:round; stroke-width:2; stroke-opacity:0.1; fill:none" points="676.869,1423.18 676.869,123.472 "/>
<polyline clip-path="url(#clip052)" style="stroke:#000000; stroke-linecap:round; stroke-linejoin:round; stroke-width:2; stroke-opacity:0.1; fill:none" points="1075.78,1423.18 1075.78,123.472 "/>
<polyline clip-path="url(#clip052)" style="stroke:#000000; stroke-linecap:round; stroke-linejoin:round; stroke-width:2; stroke-opacity:0.1; fill:none" points="1474.68,1423.18 1474.68,123.472 "/>
<polyline clip-path="url(#clip052)" style="stroke:#000000; stroke-linecap:round; stroke-linejoin:round; stroke-width:2; stroke-opacity:0.1; fill:none" points="1873.59,1423.18 1873.59,123.472 "/>
<polyline clip-path="url(#clip052)" style="stroke:#000000; stroke-linecap:round; stroke-linejoin:round; stroke-width:2; stroke-opacity:0.1; fill:none" points="2272.5,1423.18 2272.5,123.472 "/>
<polyline clip-path="url(#clip050)" style="stroke:#000000; stroke-linecap:round; stroke-linejoin:round; stroke-width:4; stroke-opacity:1; fill:none" points="221.637,1423.18 2352.76,1423.18 "/>
<polyline clip-path="url(#clip050)" style="stroke:#000000; stroke-linecap:round; stroke-linejoin:round; stroke-width:4; stroke-opacity:1; fill:none" points="277.963,1423.18 277.963,1404.28 "/>
<polyline clip-path="url(#clip050)" style="stroke:#000000; stroke-linecap:round; stroke-linejoin:round; stroke-width:4; stroke-opacity:1; fill:none" points="676.869,1423.18 676.869,1404.28 "/>
<polyline clip-path="url(#clip050)" style="stroke:#000000; stroke-linecap:round; stroke-linejoin:round; stroke-width:4; stroke-opacity:1; fill:none" points="1075.78,1423.18 1075.78,1404.28 "/>
<polyline clip-path="url(#clip050)" style="stroke:#000000; stroke-linecap:round; stroke-linejoin:round; stroke-width:4; stroke-opacity:1; fill:none" points="1474.68,1423.18 1474.68,1404.28 "/>
<polyline clip-path="url(#clip050)" style="stroke:#000000; stroke-linecap:round; stroke-linejoin:round; stroke-width:4; stroke-opacity:1; fill:none" points="1873.59,1423.18 1873.59,1404.28 "/>
<polyline clip-path="url(#clip050)" style="stroke:#000000; stroke-linecap:round; stroke-linejoin:round; stroke-width:4; stroke-opacity:1; fill:none" points="2272.5,1423.18 2272.5,1404.28 "/>
<path clip-path="url(#clip050)" d="M277.963 1454.1 Q274.352 1454.1 272.523 1457.66 Q270.717 1461.2 270.717 1468.33 Q270.717 1475.44 272.523 1479.01 Q274.352 1482.55 277.963 1482.55 Q281.597 1482.55 283.402 1479.01 Q285.231 1475.44 285.231 1468.33 Q285.231 1461.2 283.402 1457.66 Q281.597 1454.1 277.963 1454.1 M277.963 1450.39 Q283.773 1450.39 286.828 1455 Q289.907 1459.58 289.907 1468.33 Q289.907 1477.06 286.828 1481.67 Q283.773 1486.25 277.963 1486.25 Q272.153 1486.25 269.074 1481.67 Q266.018 1477.06 266.018 1468.33 Q266.018 1459.58 269.074 1455 Q272.153 1450.39 277.963 1450.39 Z" fill="#000000" fill-rule="nonzero" fill-opacity="1" /><path clip-path="url(#clip050)" d="M636.476 1481.64 L644.115 1481.64 L644.115 1455.28 L635.805 1456.95 L635.805 1452.69 L644.069 1451.02 L648.744 1451.02 L648.744 1481.64 L656.383 1481.64 L656.383 1485.58 L636.476 1485.58 L636.476 1481.64 Z" fill="#000000" fill-rule="nonzero" fill-opacity="1" /><path clip-path="url(#clip050)" d="M675.828 1454.1 Q672.217 1454.1 670.388 1457.66 Q668.582 1461.2 668.582 1468.33 Q668.582 1475.44 670.388 1479.01 Q672.217 1482.55 675.828 1482.55 Q679.462 1482.55 681.267 1479.01 Q683.096 1475.44 683.096 1468.33 Q683.096 1461.2 681.267 1457.66 Q679.462 1454.1 675.828 1454.1 M675.828 1450.39 Q681.638 1450.39 684.693 1455 Q687.772 1459.58 687.772 1468.33 Q687.772 1477.06 684.693 1481.67 Q681.638 1486.25 675.828 1486.25 Q670.018 1486.25 666.939 1481.67 Q663.883 1477.06 663.883 1468.33 Q663.883 1459.58 666.939 1455 Q670.018 1450.39 675.828 1450.39 Z" fill="#000000" fill-rule="nonzero" fill-opacity="1" /><path clip-path="url(#clip050)" d="M705.99 1454.1 Q702.378 1454.1 700.55 1457.66 Q698.744 1461.2 698.744 1468.33 Q698.744 1475.44 700.55 1479.01 Q702.378 1482.55 705.99 1482.55 Q709.624 1482.55 711.429 1479.01 Q713.258 1475.44 713.258 1468.33 Q713.258 1461.2 711.429 1457.66 Q709.624 1454.1 705.99 1454.1 M705.99 1450.39 Q711.8 1450.39 714.855 1455 Q717.934 1459.58 717.934 1468.33 Q717.934 1477.06 714.855 1481.67 Q711.8 1486.25 705.99 1486.25 Q700.179 1486.25 697.101 1481.67 Q694.045 1477.06 694.045 1468.33 Q694.045 1459.58 697.101 1455 Q700.179 1450.39 705.99 1450.39 Z" fill="#000000" fill-rule="nonzero" fill-opacity="1" /><path clip-path="url(#clip050)" d="M1039.47 1481.64 L1055.79 1481.64 L1055.79 1485.58 L1033.84 1485.58 L1033.84 1481.64 Q1036.51 1478.89 1041.09 1474.26 Q1045.7 1469.61 1046.88 1468.27 Q1049.12 1465.74 1050 1464.01 Q1050.9 1462.25 1050.9 1460.56 Q1050.9 1457.8 1048.96 1456.07 Q1047.04 1454.33 1043.94 1454.33 Q1041.74 1454.33 1039.28 1455.09 Q1036.85 1455.86 1034.07 1457.41 L1034.07 1452.69 Q1036.9 1451.55 1039.35 1450.97 Q1041.81 1450.39 1043.84 1450.39 Q1049.21 1450.39 1052.41 1453.08 Q1055.6 1455.77 1055.6 1460.26 Q1055.6 1462.39 1054.79 1464.31 Q1054.01 1466.2 1051.9 1468.8 Q1051.32 1469.47 1048.22 1472.69 Q1045.12 1475.88 1039.47 1481.64 Z" fill="#000000" fill-rule="nonzero" fill-opacity="1" /><path clip-path="url(#clip050)" d="M1075.6 1454.1 Q1071.99 1454.1 1070.16 1457.66 Q1068.36 1461.2 1068.36 1468.33 Q1068.36 1475.44 1070.16 1479.01 Q1071.99 1482.55 1075.6 1482.55 Q1079.24 1482.55 1081.04 1479.01 Q1082.87 1475.44 1082.87 1468.33 Q1082.87 1461.2 1081.04 1457.66 Q1079.24 1454.1 1075.6 1454.1 M1075.6 1450.39 Q1081.41 1450.39 1084.47 1455 Q1087.55 1459.58 1087.55 1468.33 Q1087.55 1477.06 1084.47 1481.67 Q1081.41 1486.25 1075.6 1486.25 Q1069.79 1486.25 1066.71 1481.67 Q1063.66 1477.06 1063.66 1468.33 Q1063.66 1459.58 1066.71 1455 Q1069.79 1450.39 1075.6 1450.39 Z" fill="#000000" fill-rule="nonzero" fill-opacity="1" /><path clip-path="url(#clip050)" d="M1105.76 1454.1 Q1102.15 1454.1 1100.32 1457.66 Q1098.52 1461.2 1098.52 1468.33 Q1098.52 1475.44 1100.32 1479.01 Q1102.15 1482.55 1105.76 1482.55 Q1109.4 1482.55 1111.2 1479.01 Q1113.03 1475.44 1113.03 1468.33 Q1113.03 1461.2 1111.2 1457.66 Q1109.4 1454.1 1105.76 1454.1 M1105.76 1450.39 Q1111.57 1450.39 1114.63 1455 Q1117.71 1459.58 1117.71 1468.33 Q1117.71 1477.06 1114.63 1481.67 Q1111.57 1486.25 1105.76 1486.25 Q1099.95 1486.25 1096.88 1481.67 Q1093.82 1477.06 1093.82 1468.33 Q1093.82 1459.58 1096.88 1455 Q1099.95 1450.39 1105.76 1450.39 Z" fill="#000000" fill-rule="nonzero" fill-opacity="1" /><path clip-path="url(#clip050)" d="M1448.44 1466.95 Q1451.8 1467.66 1453.68 1469.93 Q1455.57 1472.2 1455.57 1475.53 Q1455.57 1480.65 1452.06 1483.45 Q1448.54 1486.25 1442.06 1486.25 Q1439.88 1486.25 1437.56 1485.81 Q1435.27 1485.39 1432.82 1484.54 L1432.82 1480.02 Q1434.76 1481.16 1437.08 1481.74 Q1439.39 1482.32 1441.92 1482.32 Q1446.31 1482.32 1448.61 1480.58 Q1450.92 1478.84 1450.92 1475.53 Q1450.92 1472.48 1448.77 1470.77 Q1446.64 1469.03 1442.82 1469.03 L1438.79 1469.03 L1438.79 1465.19 L1443 1465.19 Q1446.45 1465.19 1448.28 1463.82 Q1450.11 1462.43 1450.11 1459.84 Q1450.11 1457.18 1448.21 1455.77 Q1446.34 1454.33 1442.82 1454.33 Q1440.9 1454.33 1438.7 1454.75 Q1436.5 1455.16 1433.86 1456.04 L1433.86 1451.88 Q1436.52 1451.14 1438.84 1450.77 Q1441.18 1450.39 1443.24 1450.39 Q1448.56 1450.39 1451.66 1452.83 Q1454.76 1455.23 1454.76 1459.35 Q1454.76 1462.22 1453.12 1464.21 Q1451.48 1466.18 1448.44 1466.95 Z" fill="#000000" fill-rule="nonzero" fill-opacity="1" /><path clip-path="url(#clip050)" d="M1474.44 1454.1 Q1470.83 1454.1 1469 1457.66 Q1467.19 1461.2 1467.19 1468.33 Q1467.19 1475.44 1469 1479.01 Q1470.83 1482.55 1474.44 1482.55 Q1478.07 1482.55 1479.88 1479.01 Q1481.71 1475.44 1481.71 1468.33 Q1481.71 1461.2 1479.88 1457.66 Q1478.07 1454.1 1474.44 1454.1 M1474.44 1450.39 Q1480.25 1450.39 1483.31 1455 Q1486.38 1459.58 1486.38 1468.33 Q1486.38 1477.06 1483.31 1481.67 Q1480.25 1486.25 1474.44 1486.25 Q1468.63 1486.25 1465.55 1481.67 Q1462.5 1477.06 1462.5 1468.33 Q1462.5 1459.58 1465.55 1455 Q1468.63 1450.39 1474.44 1450.39 Z" fill="#000000" fill-rule="nonzero" fill-opacity="1" /><path clip-path="url(#clip050)" d="M1504.6 1454.1 Q1500.99 1454.1 1499.16 1457.66 Q1497.36 1461.2 1497.36 1468.33 Q1497.36 1475.44 1499.16 1479.01 Q1500.99 1482.55 1504.6 1482.55 Q1508.24 1482.55 1510.04 1479.01 Q1511.87 1475.44 1511.87 1468.33 Q1511.87 1461.2 1510.04 1457.66 Q1508.24 1454.1 1504.6 1454.1 M1504.6 1450.39 Q1510.41 1450.39 1513.47 1455 Q1516.55 1459.58 1516.55 1468.33 Q1516.55 1477.06 1513.47 1481.67 Q1510.41 1486.25 1504.6 1486.25 Q1498.79 1486.25 1495.71 1481.67 Q1492.66 1477.06 1492.66 1468.33 Q1492.66 1459.58 1495.71 1455 Q1498.79 1450.39 1504.6 1450.39 Z" fill="#000000" fill-rule="nonzero" fill-opacity="1" /><path clip-path="url(#clip050)" d="M1846.68 1455.09 L1834.87 1473.54 L1846.68 1473.54 L1846.68 1455.09 M1845.45 1451.02 L1851.33 1451.02 L1851.33 1473.54 L1856.26 1473.54 L1856.26 1477.43 L1851.33 1477.43 L1851.33 1485.58 L1846.68 1485.58 L1846.68 1477.43 L1831.08 1477.43 L1831.08 1472.92 L1845.45 1451.02 Z" fill="#000000" fill-rule="nonzero" fill-opacity="1" /><path clip-path="url(#clip050)" d="M1873.99 1454.1 Q1870.38 1454.1 1868.55 1457.66 Q1866.75 1461.2 1866.75 1468.33 Q1866.75 1475.44 1868.55 1479.01 Q1870.38 1482.55 1873.99 1482.55 Q1877.63 1482.55 1879.43 1479.01 Q1881.26 1475.44 1881.26 1468.33 Q1881.26 1461.2 1879.43 1457.66 Q1877.63 1454.1 1873.99 1454.1 M1873.99 1450.39 Q1879.8 1450.39 1882.86 1455 Q1885.94 1459.58 1885.94 1468.33 Q1885.94 1477.06 1882.86 1481.67 Q1879.8 1486.25 1873.99 1486.25 Q1868.18 1486.25 1865.11 1481.67 Q1862.05 1477.06 1862.05 1468.33 Q1862.05 1459.58 1865.11 1455 Q1868.18 1450.39 1873.99 1450.39 Z" fill="#000000" fill-rule="nonzero" fill-opacity="1" /><path clip-path="url(#clip050)" d="M1904.16 1454.1 Q1900.55 1454.1 1898.72 1457.66 Q1896.91 1461.2 1896.91 1468.33 Q1896.91 1475.44 1898.72 1479.01 Q1900.55 1482.55 1904.16 1482.55 Q1907.79 1482.55 1909.6 1479.01 Q1911.42 1475.44 1911.42 1468.33 Q1911.42 1461.2 1909.6 1457.66 Q1907.79 1454.1 1904.16 1454.1 M1904.16 1450.39 Q1909.97 1450.39 1913.02 1455 Q1916.1 1459.58 1916.1 1468.33 Q1916.1 1477.06 1913.02 1481.67 Q1909.97 1486.25 1904.16 1486.25 Q1898.35 1486.25 1895.27 1481.67 Q1892.21 1477.06 1892.21 1468.33 Q1892.21 1459.58 1895.27 1455 Q1898.35 1450.39 1904.16 1450.39 Z" fill="#000000" fill-rule="nonzero" fill-opacity="1" /><path clip-path="url(#clip050)" d="M2232.11 1451.02 L2250.47 1451.02 L2250.47 1454.96 L2236.4 1454.96 L2236.4 1463.43 Q2237.42 1463.08 2238.43 1462.92 Q2239.45 1462.73 2240.47 1462.73 Q2246.26 1462.73 2249.64 1465.9 Q2253.02 1469.08 2253.02 1474.49 Q2253.02 1480.07 2249.54 1483.17 Q2246.07 1486.25 2239.75 1486.25 Q2237.58 1486.25 2235.31 1485.88 Q2233.06 1485.51 2230.66 1484.77 L2230.66 1480.07 Q2232.74 1481.2 2234.96 1481.76 Q2237.18 1482.32 2239.66 1482.32 Q2243.67 1482.32 2246 1480.21 Q2248.34 1478.1 2248.34 1474.49 Q2248.34 1470.88 2246 1468.77 Q2243.67 1466.67 2239.66 1466.67 Q2237.79 1466.67 2235.91 1467.08 Q2234.06 1467.5 2232.11 1468.38 L2232.11 1451.02 Z" fill="#000000" fill-rule="nonzero" fill-opacity="1" /><path clip-path="url(#clip050)" d="M2272.23 1454.1 Q2268.62 1454.1 2266.79 1457.66 Q2264.98 1461.2 2264.98 1468.33 Q2264.98 1475.44 2266.79 1479.01 Q2268.62 1482.55 2272.23 1482.55 Q2275.86 1482.55 2277.67 1479.01 Q2279.5 1475.44 2279.5 1468.33 Q2279.5 1461.2 2277.67 1457.66 Q2275.86 1454.1 2272.23 1454.1 M2272.23 1450.39 Q2278.04 1450.39 2281.1 1455 Q2284.17 1459.58 2284.17 1468.33 Q2284.17 1477.06 2281.1 1481.67 Q2278.04 1486.25 2272.23 1486.25 Q2266.42 1486.25 2263.34 1481.67 Q2260.29 1477.06 2260.29 1468.33 Q2260.29 1459.58 2263.34 1455 Q2266.42 1450.39 2272.23 1450.39 Z" fill="#000000" fill-rule="nonzero" fill-opacity="1" /><path clip-path="url(#clip050)" d="M2302.39 1454.1 Q2298.78 1454.1 2296.95 1457.66 Q2295.15 1461.2 2295.15 1468.33 Q2295.15 1475.44 2296.95 1479.01 Q2298.78 1482.55 2302.39 1482.55 Q2306.03 1482.55 2307.83 1479.01 Q2309.66 1475.44 2309.66 1468.33 Q2309.66 1461.2 2307.83 1457.66 Q2306.03 1454.1 2302.39 1454.1 M2302.39 1450.39 Q2308.2 1450.39 2311.26 1455 Q2314.34 1459.58 2314.34 1468.33 Q2314.34 1477.06 2311.26 1481.67 Q2308.2 1486.25 2302.39 1486.25 Q2296.58 1486.25 2293.5 1481.67 Q2290.45 1477.06 2290.45 1468.33 Q2290.45 1459.58 2293.5 1455 Q2296.58 1450.39 2302.39 1450.39 Z" fill="#000000" fill-rule="nonzero" fill-opacity="1" /><path clip-path="url(#clip050)" d="M1271.38 1518.52 L1277.27 1518.52 L1277.27 1547.77 L1294.74 1532.4 L1302.22 1532.4 L1283.31 1549.07 L1303.02 1568.04 L1295.38 1568.04 L1277.27 1550.63 L1277.27 1568.04 L1271.38 1568.04 L1271.38 1518.52 Z" fill="#000000" fill-rule="nonzero" fill-opacity="1" /><polyline clip-path="url(#clip052)" style="stroke:#000000; stroke-linecap:round; stroke-linejoin:round; stroke-width:2; stroke-opacity:0.1; fill:none" points="221.637,867.068 2352.76,867.068 "/>
<polyline clip-path="url(#clip052)" style="stroke:#000000; stroke-linecap:round; stroke-linejoin:round; stroke-width:2; stroke-opacity:0.1; fill:none" points="221.637,292.806 2352.76,292.806 "/>
<polyline clip-path="url(#clip050)" style="stroke:#000000; stroke-linecap:round; stroke-linejoin:round; stroke-width:4; stroke-opacity:1; fill:none" points="221.637,1423.18 221.637,123.472 "/>
<polyline clip-path="url(#clip050)" style="stroke:#000000; stroke-linecap:round; stroke-linejoin:round; stroke-width:4; stroke-opacity:1; fill:none" points="221.637,867.068 240.535,867.068 "/>
<polyline clip-path="url(#clip050)" style="stroke:#000000; stroke-linecap:round; stroke-linejoin:round; stroke-width:4; stroke-opacity:1; fill:none" points="221.637,292.806 240.535,292.806 "/>
<path clip-path="url(#clip050)" d="M114.931 886.861 L122.57 886.861 L122.57 860.495 L114.26 862.162 L114.26 857.902 L122.524 856.236 L127.2 856.236 L127.2 886.861 L134.839 886.861 L134.839 890.796 L114.931 890.796 L114.931 886.861 Z" fill="#000000" fill-rule="nonzero" fill-opacity="1" /><path clip-path="url(#clip050)" d="M154.283 859.314 Q150.672 859.314 148.843 862.879 Q147.038 866.421 147.038 873.55 Q147.038 880.657 148.843 884.222 Q150.672 887.763 154.283 887.763 Q157.917 887.763 159.723 884.222 Q161.552 880.657 161.552 873.55 Q161.552 866.421 159.723 862.879 Q157.917 859.314 154.283 859.314 M154.283 855.611 Q160.093 855.611 163.149 860.217 Q166.227 864.8 166.227 873.55 Q166.227 882.277 163.149 886.884 Q160.093 891.467 154.283 891.467 Q148.473 891.467 145.394 886.884 Q142.339 882.277 142.339 873.55 Q142.339 864.8 145.394 860.217 Q148.473 855.611 154.283 855.611 Z" fill="#000000" fill-rule="nonzero" fill-opacity="1" /><path clip-path="url(#clip050)" d="M175.932 837.807 Q172.998 837.807 171.512 840.703 Q170.045 843.581 170.045 849.374 Q170.045 855.147 171.512 858.044 Q172.998 860.921 175.932 860.921 Q178.885 860.921 180.352 858.044 Q181.838 855.147 181.838 849.374 Q181.838 843.581 180.352 840.703 Q178.885 837.807 175.932 837.807 M175.932 834.797 Q180.653 834.797 183.136 838.54 Q185.637 842.264 185.637 849.374 Q185.637 856.464 183.136 860.207 Q180.653 863.931 175.932 863.931 Q171.212 863.931 168.71 860.207 Q166.227 856.464 166.227 849.374 Q166.227 842.264 168.71 838.54 Q171.212 834.797 175.932 834.797 Z" fill="#000000" fill-rule="nonzero" fill-opacity="1" /><path clip-path="url(#clip050)" d="M116.173 312.598 L123.812 312.598 L123.812 286.233 L115.501 287.899 L115.501 283.64 L123.765 281.973 L128.441 281.973 L128.441 312.598 L136.08 312.598 L136.08 316.533 L116.173 316.533 L116.173 312.598 Z" fill="#000000" fill-rule="nonzero" fill-opacity="1" /><path clip-path="url(#clip050)" d="M155.524 285.052 Q151.913 285.052 150.085 288.617 Q148.279 292.158 148.279 299.288 Q148.279 306.394 150.085 309.959 Q151.913 313.501 155.524 313.501 Q159.159 313.501 160.964 309.959 Q162.793 306.394 162.793 299.288 Q162.793 292.158 160.964 288.617 Q159.159 285.052 155.524 285.052 M155.524 281.348 Q161.335 281.348 164.39 285.955 Q167.469 290.538 167.469 299.288 Q167.469 308.015 164.39 312.621 Q161.335 317.205 155.524 317.205 Q149.714 317.205 146.636 312.621 Q143.58 308.015 143.58 299.288 Q143.58 290.538 146.636 285.955 Q149.714 281.348 155.524 281.348 Z" fill="#000000" fill-rule="nonzero" fill-opacity="1" /><path clip-path="url(#clip050)" d="M168.654 261.043 L183.568 261.043 L183.568 264.24 L172.133 264.24 L172.133 271.124 Q172.961 270.842 173.788 270.71 Q174.616 270.56 175.443 270.56 Q180.145 270.56 182.891 273.136 Q185.637 275.713 185.637 280.114 Q185.637 284.647 182.816 287.167 Q179.995 289.668 174.86 289.668 Q173.092 289.668 171.249 289.367 Q169.425 289.066 167.469 288.465 L167.469 284.647 Q169.161 285.568 170.967 286.02 Q172.773 286.471 174.785 286.471 Q178.039 286.471 179.938 284.76 Q181.838 283.048 181.838 280.114 Q181.838 277.18 179.938 275.468 Q178.039 273.757 174.785 273.757 Q173.262 273.757 171.738 274.096 Q170.234 274.434 168.654 275.149 L168.654 261.043 Z" fill="#000000" fill-rule="nonzero" fill-opacity="1" /><path clip-path="url(#clip050)" d="M45.7664 817.313 Q39.4007 817.313 35.8996 819.955 Q32.3984 822.565 32.3984 827.307 Q32.3984 832.018 35.8996 834.66 Q39.4007 837.27 45.7664 837.27 Q52.1003 837.27 55.6014 834.66 Q59.1026 832.018 59.1026 827.307 Q59.1026 822.565 55.6014 819.955 Q52.1003 817.313 45.7664 817.313 M59.58 811.457 Q68.683 811.457 73.1071 815.499 Q77.5631 819.541 77.5631 827.88 Q77.5631 830.967 77.0857 833.705 Q76.6401 836.442 75.6852 839.02 L69.9879 839.02 Q71.3884 836.442 72.0568 833.928 Q72.7252 831.413 72.7252 828.803 Q72.7252 823.042 69.7015 820.178 Q66.7096 817.313 60.6303 817.313 L57.7339 817.313 Q60.885 819.127 62.4446 821.96 Q64.0042 824.793 64.0042 828.739 Q64.0042 835.296 59.0071 839.307 Q54.01 843.317 45.7664 843.317 Q37.491 843.317 32.4939 839.307 Q27.4968 835.296 27.4968 828.739 Q27.4968 824.793 29.0564 821.96 Q30.616 819.127 33.7671 817.313 L28.3562 817.313 L28.3562 811.457 L59.58 811.457 Z" fill="#000000" fill-rule="nonzero" fill-opacity="1" /><path clip-path="url(#clip050)" d="M33.8307 778.737 Q33.2578 779.724 33.0032 780.901 Q32.7167 782.047 32.7167 783.447 Q32.7167 788.413 35.9632 791.086 Q39.1779 793.728 45.2253 793.728 L64.0042 793.728 L64.0042 799.616 L28.3562 799.616 L28.3562 793.728 L33.8944 793.728 Q30.6479 791.882 29.0883 788.922 Q27.4968 785.962 27.4968 781.729 Q27.4968 781.124 27.5923 780.392 Q27.656 779.66 27.8151 778.769 L33.8307 778.737 Z" fill="#000000" fill-rule="nonzero" fill-opacity="1" /><path clip-path="url(#clip050)" d="M46.0847 756.393 Q46.0847 763.491 47.7079 766.228 Q49.3312 768.965 53.2461 768.965 Q56.3653 768.965 58.2114 766.928 Q60.0256 764.86 60.0256 761.327 Q60.0256 756.457 56.5881 753.529 Q53.1188 750.569 47.3897 750.569 L46.0847 750.569 L46.0847 756.393 M43.6657 744.712 L64.0042 744.712 L64.0042 750.569 L58.5933 750.569 Q61.8398 752.574 63.3994 755.566 Q64.9272 758.558 64.9272 762.886 Q64.9272 768.361 61.8716 771.607 Q58.7843 774.822 53.6281 774.822 Q47.6125 774.822 44.5569 770.812 Q41.5014 766.769 41.5014 758.78 L41.5014 750.569 L40.9285 750.569 Q36.8862 750.569 34.6901 753.242 Q32.4621 755.884 32.4621 760.69 Q32.4621 763.746 33.1941 766.642 Q33.9262 769.538 35.3903 772.212 L29.9795 772.212 Q28.7381 768.997 28.1334 765.974 Q27.4968 762.95 27.4968 760.085 Q27.4968 752.351 31.5072 748.532 Q35.5176 744.712 43.6657 744.712 Z" fill="#000000" fill-rule="nonzero" fill-opacity="1" /><path clip-path="url(#clip050)" d="M33.7671 709.191 L14.479 709.191 L14.479 703.335 L64.0042 703.335 L64.0042 709.191 L58.657 709.191 Q61.8398 711.038 63.3994 713.87 Q64.9272 716.671 64.9272 720.618 Q64.9272 727.079 59.771 731.153 Q54.6147 735.195 46.212 735.195 Q37.8093 735.195 32.6531 731.153 Q27.4968 727.079 27.4968 720.618 Q27.4968 716.671 29.0564 713.87 Q30.5842 711.038 33.7671 709.191 M46.212 729.148 Q52.6732 729.148 56.3653 726.506 Q60.0256 723.833 60.0256 719.186 Q60.0256 714.539 56.3653 711.865 Q52.6732 709.191 46.212 709.191 Q39.7508 709.191 36.0905 711.865 Q32.3984 714.539 32.3984 719.186 Q32.3984 723.833 36.0905 726.506 Q39.7508 729.148 46.212 729.148 Z" fill="#000000" fill-rule="nonzero" fill-opacity="1" /><path clip-path="url(#clip050)" d="M941.938 65.7705 L941.938 89.8329 L934.444 89.8329 L934.444 27.2059 L941.938 27.2059 L941.938 34.0924 Q944.287 30.0415 947.852 28.0971 Q951.458 26.1121 956.44 26.1121 Q964.704 26.1121 969.849 32.6746 Q975.034 39.2371 975.034 49.9314 Q975.034 60.6258 969.849 67.1883 Q964.704 73.7508 956.44 73.7508 Q951.458 73.7508 947.852 71.8063 Q944.287 69.8214 941.938 65.7705 M967.297 49.9314 Q967.297 41.7081 963.894 37.0496 Q960.532 32.3505 954.617 32.3505 Q948.703 32.3505 945.3 37.0496 Q941.938 41.7081 941.938 49.9314 Q941.938 58.1548 945.3 62.8538 Q948.703 67.5124 954.617 67.5124 Q960.532 67.5124 963.894 62.8538 Q967.297 58.1548 967.297 49.9314 Z" fill="#000000" fill-rule="nonzero" fill-opacity="1" /><path clip-path="url(#clip050)" d="M1013.68 34.1734 Q1012.42 33.4443 1010.92 33.1202 Q1009.47 32.7556 1007.68 32.7556 Q1001.36 32.7556 997.962 36.8875 Q994.6 40.9789 994.6 48.6757 L994.6 72.576 L987.106 72.576 L987.106 27.2059 L994.6 27.2059 L994.6 34.2544 Q996.949 30.1225 1000.72 28.1376 Q1004.48 26.1121 1009.87 26.1121 Q1010.64 26.1121 1011.57 26.2337 Q1012.5 26.3147 1013.64 26.5172 L1013.68 34.1734 Z" fill="#000000" fill-rule="nonzero" fill-opacity="1" /><path clip-path="url(#clip050)" d="M1037.26 32.4315 Q1031.26 32.4315 1027.78 37.1306 Q1024.29 41.7891 1024.29 49.9314 Q1024.29 58.0738 1027.74 62.7728 Q1031.22 67.4314 1037.26 67.4314 Q1043.21 67.4314 1046.69 62.7323 Q1050.18 58.0333 1050.18 49.9314 Q1050.18 41.8701 1046.69 37.1711 Q1043.21 32.4315 1037.26 32.4315 M1037.26 26.1121 Q1046.98 26.1121 1052.53 32.4315 Q1058.08 38.7509 1058.08 49.9314 Q1058.08 61.0714 1052.53 67.4314 Q1046.98 73.7508 1037.26 73.7508 Q1027.49 73.7508 1021.94 67.4314 Q1016.43 61.0714 1016.43 49.9314 Q1016.43 38.7509 1021.94 32.4315 Q1027.49 26.1121 1037.26 26.1121 Z" fill="#000000" fill-rule="nonzero" fill-opacity="1" /><path clip-path="url(#clip050)" d="M1103 49.9314 Q1103 41.7081 1099.6 37.0496 Q1096.24 32.3505 1090.32 32.3505 Q1084.41 32.3505 1081.01 37.0496 Q1077.64 41.7081 1077.64 49.9314 Q1077.64 58.1548 1081.01 62.8538 Q1084.41 67.5124 1090.32 67.5124 Q1096.24 67.5124 1099.6 62.8538 Q1103 58.1548 1103 49.9314 M1077.64 34.0924 Q1079.99 30.0415 1083.56 28.0971 Q1087.16 26.1121 1092.15 26.1121 Q1100.41 26.1121 1105.55 32.6746 Q1110.74 39.2371 1110.74 49.9314 Q1110.74 60.6258 1105.55 67.1883 Q1100.41 73.7508 1092.15 73.7508 Q1087.16 73.7508 1083.56 71.8063 Q1079.99 69.8214 1077.64 65.7705 L1077.64 72.576 L1070.15 72.576 L1070.15 9.54393 L1077.64 9.54393 L1077.64 34.0924 Z" fill="#000000" fill-rule="nonzero" fill-opacity="1" /><path clip-path="url(#clip050)" d="M1123.09 9.54393 L1130.55 9.54393 L1130.55 72.576 L1123.09 72.576 L1123.09 9.54393 Z" fill="#000000" fill-rule="nonzero" fill-opacity="1" /><path clip-path="url(#clip050)" d="M1184.95 48.0275 L1184.95 51.6733 L1150.68 51.6733 Q1151.17 59.3701 1155.3 63.421 Q1159.47 67.4314 1166.88 67.4314 Q1171.18 67.4314 1175.19 66.3781 Q1179.24 65.3249 1183.21 63.2184 L1183.21 70.267 Q1179.2 71.9684 1174.99 72.8596 Q1170.77 73.7508 1166.44 73.7508 Q1155.58 73.7508 1149.22 67.4314 Q1142.9 61.1119 1142.9 50.3365 Q1142.9 39.1965 1148.9 32.6746 Q1154.93 26.1121 1165.14 26.1121 Q1174.3 26.1121 1179.6 32.0264 Q1184.95 37.9003 1184.95 48.0275 M1177.5 45.84 Q1177.42 39.7232 1174.05 36.0774 Q1170.73 32.4315 1165.22 32.4315 Q1158.99 32.4315 1155.22 35.9558 Q1151.49 39.4801 1150.92 45.8805 L1177.5 45.84 M1158.82 6.22219 L1170.25 21.3726 L1164.05 21.3726 L1150.84 6.22219 L1158.82 6.22219 Z" fill="#000000" fill-rule="nonzero" fill-opacity="1" /><path clip-path="url(#clip050)" d="M1232.51 35.9153 Q1235.3 30.8922 1239.19 28.5022 Q1243.08 26.1121 1248.35 26.1121 Q1255.44 26.1121 1259.29 31.0947 Q1263.13 36.0368 1263.13 45.1919 L1263.13 72.576 L1255.64 72.576 L1255.64 45.4349 Q1255.64 38.913 1253.33 35.7533 Q1251.02 32.5936 1246.28 32.5936 Q1240.49 32.5936 1237.13 36.4419 Q1233.77 40.2903 1233.77 46.9338 L1233.77 72.576 L1226.27 72.576 L1226.27 45.4349 Q1226.27 38.8725 1223.96 35.7533 Q1221.65 32.5936 1216.83 32.5936 Q1211.12 32.5936 1207.76 36.4824 Q1204.4 40.3308 1204.4 46.9338 L1204.4 72.576 L1196.9 72.576 L1196.9 27.2059 L1204.4 27.2059 L1204.4 34.2544 Q1206.95 30.082 1210.51 28.0971 Q1214.08 26.1121 1218.98 26.1121 Q1223.92 26.1121 1227.36 28.6237 Q1230.85 31.1352 1232.51 35.9153 Z" fill="#000000" fill-rule="nonzero" fill-opacity="1" /><path clip-path="url(#clip050)" d="M1316.81 48.0275 L1316.81 51.6733 L1282.54 51.6733 Q1283.02 59.3701 1287.16 63.421 Q1291.33 67.4314 1298.74 67.4314 Q1303.04 67.4314 1307.05 66.3781 Q1311.1 65.3249 1315.07 63.2184 L1315.07 70.267 Q1311.06 71.9684 1306.84 72.8596 Q1302.63 73.7508 1298.3 73.7508 Q1287.44 73.7508 1281.08 67.4314 Q1274.76 61.1119 1274.76 50.3365 Q1274.76 39.1965 1280.76 32.6746 Q1286.79 26.1121 1297 26.1121 Q1306.15 26.1121 1311.46 32.0264 Q1316.81 37.9003 1316.81 48.0275 M1309.35 45.84 Q1309.27 39.7232 1305.91 36.0774 Q1302.59 32.4315 1297.08 32.4315 Q1290.84 32.4315 1287.07 35.9558 Q1283.35 39.4801 1282.78 45.8805 L1309.35 45.84 Z" fill="#000000" fill-rule="nonzero" fill-opacity="1" /><path clip-path="url(#clip050)" d="M1357.32 62.2867 L1365.87 62.2867 L1365.87 72.576 L1357.32 72.576 L1357.32 62.2867 M1357.32 29.6769 L1365.87 29.6769 L1365.87 39.9662 L1357.32 39.9662 L1357.32 29.6769 Z" fill="#000000" fill-rule="nonzero" fill-opacity="1" /><path clip-path="url(#clip050)" d="M1417.11 14.324 L1417.11 27.2059 L1432.46 27.2059 L1432.46 32.9987 L1417.11 32.9987 L1417.11 57.6282 Q1417.11 63.1779 1418.61 64.7578 Q1420.15 66.3376 1424.81 66.3376 L1432.46 66.3376 L1432.46 72.576 L1424.81 72.576 Q1416.18 72.576 1412.9 69.3758 Q1409.61 66.1351 1409.61 57.6282 L1409.61 32.9987 L1404.15 32.9987 L1404.15 27.2059 L1409.61 27.2059 L1409.61 14.324 L1417.11 14.324 Z" fill="#000000" fill-rule="nonzero" fill-opacity="1" /><path clip-path="url(#clip050)" d="M1449.48 65.7705 L1449.48 89.8329 L1441.98 89.8329 L1441.98 27.2059 L1449.48 27.2059 L1449.48 34.0924 Q1451.83 30.0415 1455.39 28.0971 Q1459 26.1121 1463.98 26.1121 Q1472.24 26.1121 1477.39 32.6746 Q1482.57 39.2371 1482.57 49.9314 Q1482.57 60.6258 1477.39 67.1883 Q1472.24 73.7508 1463.98 73.7508 Q1459 73.7508 1455.39 71.8063 Q1451.83 69.8214 1449.48 65.7705 M1474.83 49.9314 Q1474.83 41.7081 1471.43 37.0496 Q1468.07 32.3505 1462.16 32.3505 Q1456.24 32.3505 1452.84 37.0496 Q1449.48 41.7081 1449.48 49.9314 Q1449.48 58.1548 1452.84 62.8538 Q1456.24 67.5124 1462.16 67.5124 Q1468.07 67.5124 1471.43 62.8538 Q1474.83 58.1548 1474.83 49.9314 Z" fill="#000000" fill-rule="nonzero" fill-opacity="1" /><path clip-path="url(#clip050)" d="M1503.03 65.6895 L1531.59 65.6895 L1531.59 72.576 L1493.18 72.576 L1493.18 65.6895 Q1497.84 60.8689 1505.86 52.7671 Q1513.93 44.6248 1515.99 42.2752 Q1519.92 37.8598 1521.46 34.8216 Q1523.04 31.7429 1523.04 28.7857 Q1523.04 23.9651 1519.64 20.927 Q1516.28 17.8888 1510.85 17.8888 Q1507 17.8888 1502.7 19.2256 Q1498.45 20.5624 1493.59 23.2765 L1493.59 15.0127 Q1498.53 13.0277 1502.83 12.015 Q1507.12 11.0023 1510.68 11.0023 Q1520.08 11.0023 1525.67 15.7013 Q1531.26 20.4004 1531.26 28.2591 Q1531.26 31.9859 1529.85 35.3482 Q1528.47 38.6699 1524.78 43.2069 Q1523.77 44.3817 1518.34 50.0125 Q1512.91 55.6027 1503.03 65.6895 Z" fill="#000000" fill-rule="nonzero" fill-opacity="1" /><path clip-path="url(#clip050)" d="M1550.18 65.6895 L1563.55 65.6895 L1563.55 19.5497 L1549.01 22.4663 L1549.01 15.0127 L1563.47 12.096 L1571.65 12.096 L1571.65 65.6895 L1585.02 65.6895 L1585.02 72.576 L1550.18 72.576 L1550.18 65.6895 Z" fill="#000000" fill-rule="nonzero" fill-opacity="1" /><path clip-path="url(#clip050)" d="M1619.05 17.4837 Q1612.73 17.4837 1609.53 23.7221 Q1606.37 29.92 1606.37 42.3968 Q1606.37 54.833 1609.53 61.0714 Q1612.73 67.2693 1619.05 67.2693 Q1625.41 67.2693 1628.57 61.0714 Q1631.77 54.833 1631.77 42.3968 Q1631.77 29.92 1628.57 23.7221 Q1625.41 17.4837 1619.05 17.4837 M1619.05 11.0023 Q1629.21 11.0023 1634.56 19.0636 Q1639.95 27.0843 1639.95 42.3968 Q1639.95 57.6687 1634.56 65.73 Q1629.21 73.7508 1619.05 73.7508 Q1608.88 73.7508 1603.49 65.73 Q1598.14 57.6687 1598.14 42.3968 Q1598.14 27.0843 1603.49 19.0636 Q1608.88 11.0023 1619.05 11.0023 Z" fill="#000000" fill-rule="nonzero" fill-opacity="1" /><polyline clip-path="url(#clip052)" style="stroke:#009af9; stroke-linecap:round; stroke-linejoin:round; stroke-width:4; stroke-opacity:1; fill:none" points="281.952,171.243 285.941,171.243 289.93,171.243 293.919,171.243 297.908,171.243 301.897,171.243 305.886,171.243 309.875,171.243 313.864,233.808 317.853,212.191 321.842,160.256 325.832,160.256 329.821,299.912 333.81,327.173 337.799,327.173 341.788,576.725 345.777,458.968 349.766,427.662 353.755,417.288 357.744,474.209 361.733,474.209 365.722,654.086 369.711,597.278 373.7,597.278 377.689,834.976 381.678,834.976 385.667,990.354 389.657,923.352 393.646,923.352 397.635,1053 401.624,1011.8 405.613,946.767 409.602,946.767 413.591,1058.31 417.58,1030.61 421.569,969.704 425.558,969.704 429.547,1060.94 433.536,1045.06 437.525,991.914 441.514,925.075 445.503,925.075 449.493,1054.93 453.482,1013.57 457.471,948.516 461.46,948.516 465.449,1060.29 469.438,1032.44 473.427,971.476 477.416,971.476 481.405,1062.96 485.394,1046.97 489.383,993.71 493.372,926.876 497.361,926.876 501.35,1056.91 505.339,1015.42 509.329,950.344 513.318,950.344 517.307,1062.32 521.296,1034.34 525.285,973.327 529.274,973.327 533.263,1065.02 537.252,1048.93 541.241,995.584 545.23,928.757 549.219,928.757 553.208,1058.94 557.197,1017.33 561.186,952.251 565.175,952.251 569.165,1064.4 573.154,1036.31 577.143,975.257 581.132,975.257 585.121,1067.12 589.11,1050.95 593.099,997.537 597.088,997.537 601.077,1068.48 605.066,1060.44 609.055,1018.49 613.044,953.352 617.033,953.352 621.022,1066.02 625.011,1037.58 629.001,976.388 632.99,976.388 636.979,1068.8 640.968,1052.36 644.957,998.705 648.946,998.705 652.935,1070.19 656.924,1061.99 660.913,1019.72 664.902,954.522 668.891,954.522 672.88,1067.68 676.869,1038.91 680.858,977.589 684.847,977.589 688.837,1070.52 692.826,1053.83 696.815,999.941 700.804,999.941 704.793,1071.93 708.782,1063.59 712.771,1021.01 716.76,955.764 720.749,955.764 724.738,1069.37 728.727,1040.3 732.716,978.861 736.705,978.861 740.694,1072.27 744.683,1055.34 748.673,1001.25 752.662,1001.25 756.651,1073.72 760.64,1065.23 764.629,1022.36 768.618,957.079 772.607,957.079 776.596,1071.11 780.585,1041.75 784.574,980.206 788.563,980.206 792.552,1074.07 796.541,1056.92 800.53,1002.63 804.519,1002.63 808.509,1075.54 812.498,1066.92 816.487,1023.79 820.476,958.469 824.465,958.469 828.454,1072.9 832.443,1043.26 836.432,981.626 840.421,981.626 844.41,1075.9 848.399,1058.54 852.388,1004.08 856.377,1004.08 860.366,1077.4 864.355,1068.65 868.345,1025.29 872.334,959.936 876.323,959.936 880.312,1074.72 884.301,1044.84 888.29,983.122 892.279,983.122 896.268,1077.78 900.257,1060.23 904.246,1005.61 908.235,1005.61 912.224,1079.31 916.213,1070.44 920.202,1026.86 924.191,961.481 928.181,961.481 932.17,1076.59 936.159,1046.49 940.148,984.697 944.137,984.697 948.126,1079.7 952.115,1061.97 956.104,1007.21 960.093,1007.21 964.082,1081.25 968.071,1072.28 972.06,1028.5 976.049,963.106 980.038,963.106 984.027,1078.51 988.017,1048.21 992.006,986.352 995.995,986.352 999.984,1081.66 1003.97,1063.78 1007.96,1008.9 1011.95,1008.9 1015.94,1083.23 1019.93,1074.17 1023.92,1030.22 1027.91,964.813 1031.9,964.813 1035.89,1080.47 1039.87,1050 1043.86,988.089 1047.85,988.089 1051.84,1083.66 1055.83,1065.65 1059.82,1010.66 1063.81,1010.66 1067.8,1085.26 1071.79,1076.12 1075.78,1032.02 1079.77,1032.02 1083.75,1086.12 1087.74,1081.99 1091.73,1051.11 1095.72,989.06 1099.71,989.06 1103.7,1085.26 1107.69,1066.92 1111.68,1011.68 1115.67,1011.68 1119.66,1086.9 1123.64,1077.55 1127.63,1033.1 1131.62,1033.1 1135.61,1087.78 1139.6,1083.54 1143.59,1052.28 1147.58,990.101 1151.57,990.101 1155.56,1086.89 1159.55,1068.24 1163.54,1012.76 1167.52,1012.76 1171.51,1088.57 1175.5,1079.03 1179.49,1034.23 1183.48,1034.23 1187.47,1089.47 1191.46,1085.14 1195.45,1053.51 1199.44,991.215 1203.43,991.215 1207.42,1088.56 1211.4,1069.62 1215.39,1013.91 1219.38,1013.91 1223.37,1090.28 "/>
<polyline clip-path="url(#clip052)" style="stroke:#e26f46; stroke-linecap:round; stroke-linejoin:round; stroke-width:4; stroke-opacity:1; fill:none" points="281.952,171.243 285.941,171.243 289.93,171.243 293.919,171.243 297.908,171.243 301.897,171.243 305.886,171.243 309.875,171.243 313.864,233.808 317.853,233.808 321.842,369.092 325.832,597.406 329.821,857.098 333.81,856.607 337.799,856.64 341.788,857.274 345.777,866.573 349.766,750.658 353.755,604.962 357.744,640.218 361.733,583.066 365.722,687.067 369.711,687.067 373.7,687.067 377.689,687.067 381.678,687.067 385.667,595.205 389.657,687.041 393.646,687.041 397.635,679.566 401.624,610.665 405.613,610.665 409.602,766.477 413.591,700.366 417.58,631.32 421.569,653.596 425.558,602.186 429.547,673.138 433.536,673.138 437.525,627.501 441.514,647.633 445.503,603.341 449.493,674.637 453.482,674.637 457.471,601.638 461.46,696.76 465.449,696.76 469.438,690.58 473.427,621.711 477.416,621.711 481.405,777.307 485.394,711.473 489.383,642.468 493.372,658.105 497.361,614.518 501.35,672.161 505.339,672.161 509.329,643.447 513.318,643.944 517.307,628.998 521.296,648.842 525.285,610.126 529.274,683.689 533.263,683.689 537.252,683.689 541.241,666.42 545.23,637.896 549.219,654.58 553.208,617.463 557.197,680.545 561.186,680.545 565.175,606.347 569.165,715.436 573.154,715.436 577.143,691.857 581.132,644.343 585.121,663.142 589.11,620.163 593.099,688.349 597.088,688.349 601.077,622.889 605.066,693.87 609.055,693.87 613.044,676.463 617.033,645.734 621.022,663.371 625.011,624.211 629.001,690.57 632.99,690.57 636.979,613.764 640.968,724.651 644.957,724.651 648.946,701.868 652.935,654.693 656.924,668.566 660.913,632.053 664.902,687.957 668.891,687.957 672.88,641.071 676.869,683.876 680.858,603.886 684.847,747.154 688.837,747.154 692.826,620.484 696.815,738.564 700.804,738.564 704.793,751.573 708.782,683.121 712.771,672.241 716.76,654.929 720.749,666.696 724.738,639.281 728.727,687.866 732.716,687.866 736.705,623.719 740.694,728.517 744.683,728.517 748.673,680.248 752.662,668.257 756.651,661.035 760.64,661.608 764.629,655.427 768.618,665.147 772.607,645.817 776.596,684.11 780.585,684.11 784.574,615.08 788.563,748.273 792.552,748.273 796.541,748.273 800.53,737.614 804.519,679.581 808.509,676.314 812.498,657.828 816.487,676.844 820.476,636.943 824.465,710.705 828.454,710.705 832.443,710.705 836.432,709.387 840.421,679.201 844.41,672.075 848.399,663.66 852.388,668.742 856.377,654.872 860.366,679.604 864.355,630.526 868.345,727.578 872.334,727.578 876.323,727.578 880.312,727.578 884.301,783.548 888.29,715.598 892.279,681.668 896.268,674.824 900.257,664.681 904.246,671.837 908.235,653.639 912.224,686.303 916.213,621.351 920.202,750.263 924.191,750.263 928.181,750.263 932.17,652.53 936.159,713.411 940.148,713.411 944.137,726.543 948.126,658.523 952.115,658.523 956.104,818.423 960.093,751.282 964.082,683.214 968.071,690.88 972.06,654.291 976.049,697.57 980.038,697.57 984.027,691.6 988.017,663.725 992.006,685.431 995.995,638.413 999.984,721.34 1003.97,721.34 1007.96,721.34 1011.95,762.783 1015.94,694.542 1019.93,686.446 1023.92,665.062 1027.91,681.525 1031.9,644.128 1035.89,710.479 1039.87,710.479 1043.86,619.337 1047.85,767.418 1051.84,767.418 1055.83,693.735 1059.82,681.47 1063.81,668.61 1067.8,674.345 1071.79,656.542 1075.78,686.499 1079.77,626.375 1083.75,745.48 1087.74,745.48 1091.73,745.48 1095.72,689.266 1099.71,681.158 1103.7,666.509 1107.69,677.132 1111.68,651.149 1115.67,697.378 1119.66,697.378 1123.64,632.403 1127.63,742.504 1131.62,742.504 1135.61,682.695 1139.6,684.599 1143.59,659.385 1147.58,689.435 1151.57,628.784 1155.56,744.346 1159.55,744.346 1163.54,744.346 1167.52,787.2 1171.51,718.93 1175.5,651.544 1179.49,654.248 1183.48,654.248 1187.47,817.139 1191.46,747.554 1195.45,679.779 1199.44,696.098 1203.43,649.957 1207.42,709.97 1211.4,709.97 1215.39,683.577 1219.38,676.364 1223.37,668.829 1227.36,672.52 1231.35,660.947 1235.34,681.111 1239.33,640.534 1243.32,721.192 1247.31,721.192 1251.29,721.192 1255.28,630.853 1259.27,757.596 1263.26,757.596 1267.25,727.12 1271.24,659.723 1275.23,659.723 1279.22,822.869 1283.21,753.26 1287.2,685.533 1291.19,694.923 1295.17,656.72 1299.16,702.958 1303.15,702.958 1307.14,694.407 1311.13,668.671 1315.12,687.234 1319.11,645.921 1323.1,718.518 1327.09,718.518 1331.08,626.042 1335.07,768.512 1339.05,768.512 1343.04,721.779 1347.03,677.148 1351.02,690.487 1355.01,653.699 1359,709.703 1362.99,709.703 1366.98,664.493 1370.97,702.532 1374.96,628.898 1378.95,761.844 1382.93,761.844 1386.92,664.298 1390.91,711.42 1394.9,624.858 1398.89,774.356 1402.88,774.356 1406.87,687.335 1410.86,690.364 1414.85,665.72 1418.84,696.976 1422.82,635.118 1426.81,754.044 1430.8,754.044 1434.79,754.044 1438.78,787.549 1442.77,719.573 1446.76,692.844 1450.75,683.885 1454.74,678.571 1458.73,678.615 1462.72,674.387 1466.7,680.947 1470.69,667.873 1474.68,694.226 1478.67,642.906 1482.66,746.765 1486.65,746.765 1490.64,746.765 1494.63,746.765 1498.62,697.167 1502.61,693.98 1506.6,676.673 1510.58,694.564 1514.57,657.254 1518.56,726.857 1522.55,726.857 1526.54,726.857 1530.53,733.181 1534.52,666.664 1538.51,670.027 1542.5,670.027 1546.49,832.824 1550.47,763.643 1554.46,696.628 1558.45,711.579 1562.44,668.335 1566.43,724.112 1570.42,724.112 1574.41,704.174 1578.4,691.24 1582.39,692.85 1586.38,681.979 1590.37,698.801 1594.35,669.388 1598.34,723.999 1602.33,723.999 1606.32,642.32 1610.31,785.122 1614.3,785.122 1618.29,785.122 1622.28,820.406 1626.27,752.734 1630.26,686.637 1634.25,735.487 1638.23,651.154 1642.22,784.788 1646.21,784.788 1650.2,735.706 1654.19,702.554 1658.18,710.448 1662.17,684.632 1666.16,723.689 1670.15,659.757 1674.14,774.363 1678.13,774.363 1682.11,774.363 1686.1,786.121 1690.09,719.757 1694.08,724.625 1698.07,697.314 1702.06,722.076 1706.05,680.09 1710.04,750.904 1714.03,750.904 1718.02,668.987 1722,787.862 1725.99,787.862 1729.98,743.874 1733.97,715.747 1737.96,723.457 1741.95,705.007 1745.94,727.805 1749.93,694.185 1753.92,751.476 1757.91,751.476 1761.9,677.988 1765.88,796.69 1769.87,796.69 1773.86,710.371 1777.85,758.737 1781.84,685.267 1785.83,802.377 1789.82,802.377 1793.81,742.709 1797.8,740.125 1801.79,727.112 1805.78,748.908 1809.76,713.005 1813.75,772.44 1817.74,689.22 1821.73,832.877 1825.72,832.877 1829.71,832.877 1833.7,766.384 1837.69,754.203 1841.68,759.924 1845.67,737.826 1849.65,785.687 1853.64,718.984 1857.63,830.028 1861.62,830.028 1865.61,727.5 1869.6,845.153 1873.59,721.363 1877.58,878.471 1881.57,878.471 1885.56,801.282 1889.55,796.07 1893.53,817.319 1897.52,773.472 1901.51,875.505 1905.5,783.379 1909.49,890.855 1913.48,844.398 1917.47,860.104 1921.46,949.435 1925.45,857.995 1929.44,1386.4 "/>
<polyline clip-path="url(#clip052)" style="stroke:#3da44d; stroke-linecap:round; stroke-linejoin:round; stroke-width:4; stroke-opacity:1; fill:none" points="281.952,171.243 285.941,171.243 289.93,171.243 293.919,171.243 297.908,171.243 301.897,171.243 305.886,171.243 309.875,171.243 313.864,233.808 317.853,212.191 321.842,212.191 325.832,274.572 329.821,302.354 333.81,302.354 337.799,643.37 341.788,433.229 345.777,433.229 349.766,718.744 353.755,609.623 357.744,609.623 361.733,845.912 365.722,845.912 369.711,845.912 373.7,935.755 377.689,935.771 381.678,935.744 385.667,935.118 389.657,926.544 393.646,883.413 397.635,817.684 401.624,817.684 405.613,932.094 409.602,902.383 413.591,840.404 417.58,772.398 421.569,704.556 425.558,637.927 429.547,573.704 433.536,513.992 437.525,462.27 441.514,423.449 445.503,403.014 449.493,451.73 453.482,442.872 457.471,505.616 461.46,505.616 465.449,685.074 469.438,635.142 473.427,635.142 477.416,871.438 481.405,871.438 485.394,871.438 489.383,1092.62 "/>
<polyline clip-path="url(#clip052)" style="stroke:#c271d2; stroke-linecap:round; stroke-linejoin:round; stroke-width:4; stroke-opacity:1; fill:none" points="281.952,171.243 285.941,171.243 289.93,171.243 293.919,171.243 297.908,171.243 301.897,171.243 305.886,171.243 309.875,171.243 313.864,233.808 317.853,233.808 321.842,370.866 325.832,609.302 329.821,849.321 333.81,867.617 337.799,867.618 341.788,867.617 345.777,867.617 349.766,867.616 353.755,867.615 357.744,867.615 361.733,867.614 365.722,867.614 369.711,867.613 373.7,867.612 377.689,867.612 381.678,867.611 385.667,867.611 389.657,867.61 393.646,867.609 397.635,867.609 401.624,867.608 405.613,867.608 409.602,867.607 413.591,867.606 417.58,867.606 421.569,867.605 425.558,867.605 429.547,867.604 433.536,867.603 437.525,867.603 441.514,867.602 445.503,867.602 449.493,867.601 453.482,867.6 457.471,867.6 461.46,867.599 465.449,867.599 469.438,867.598 473.427,867.597 477.416,867.597 481.405,867.596 485.394,867.596 489.383,867.595 493.372,867.594 497.361,867.594 501.35,867.593 505.339,867.593 509.329,867.592 513.318,867.591 517.307,867.591 521.296,867.59 525.285,867.59 529.274,867.589 533.263,867.588 537.252,867.588 541.241,867.587 545.23,867.587 549.219,867.586 553.208,867.585 557.197,867.585 561.186,867.584 565.175,867.584 569.165,867.583 573.154,867.582 577.143,867.582 581.132,867.581 585.121,867.581 589.11,867.58 593.099,867.579 597.088,867.579 601.077,867.578 605.066,867.578 609.055,867.577 613.044,867.576 617.033,867.576 621.022,867.575 625.011,867.575 629.001,867.574 632.99,867.573 636.979,867.573 640.968,867.572 644.957,867.572 648.946,867.571 652.935,867.57 656.924,867.57 660.913,867.569 664.902,867.569 668.891,867.568 672.88,867.567 676.869,867.567 680.858,867.566 684.847,867.566 688.837,867.565 692.826,867.564 696.815,867.564 700.804,867.563 704.793,867.563 708.782,867.562 712.771,867.561 716.76,867.561 720.749,867.56 724.738,867.56 728.727,867.559 732.716,867.558 736.705,867.558 740.694,867.557 744.683,867.557 748.673,867.556 752.662,867.555 756.651,867.555 760.64,867.554 764.629,867.554 768.618,867.553 772.607,867.552 776.596,867.552 780.585,867.551 784.574,867.551 788.563,867.55 792.552,867.549 796.541,867.549 800.53,867.548 804.519,867.548 808.509,867.547 812.498,867.546 816.487,867.546 820.476,867.545 824.465,867.545 828.454,867.544 832.443,867.543 836.432,867.543 840.421,867.542 844.41,867.542 848.399,867.541 852.388,867.54 856.377,867.54 860.366,867.539 864.355,867.539 868.345,867.538 872.334,867.537 876.323,867.537 880.312,867.536 884.301,867.536 888.29,867.535 892.279,867.534 896.268,867.534 900.257,867.533 904.246,867.532 908.235,867.532 912.224,867.531 916.213,867.531 920.202,867.53 924.191,867.529 928.181,867.529 932.17,867.528 936.159,867.528 940.148,867.527 944.137,867.526 948.126,867.526 952.115,867.525 956.104,867.525 960.093,867.524 964.082,867.523 968.071,867.523 972.06,867.522 976.049,867.522 980.038,867.521 984.027,867.52 988.017,867.52 992.006,867.519 995.995,867.519 999.984,867.518 1003.97,867.517 1007.96,867.517 1011.95,867.516 1015.94,867.516 1019.93,867.515 1023.92,867.514 1027.91,867.514 1031.9,867.513 1035.89,867.513 1039.87,867.512 1043.86,867.511 1047.85,867.511 1051.84,867.51 1055.83,867.51 1059.82,867.509 1063.81,867.508 1067.8,867.508 1071.79,867.507 1075.78,867.507 1079.77,867.506 1083.75,867.505 1087.74,867.505 1091.73,867.504 1095.72,867.504 1099.71,867.503 1103.7,867.502 1107.69,867.502 1111.68,867.501 1115.67,867.5 1119.66,867.5 1123.64,867.499 1127.63,867.499 1131.62,867.498 1135.61,867.497 1139.6,867.497 1143.59,867.496 1147.58,867.496 1151.57,867.495 1155.56,867.494 1159.55,867.494 1163.54,867.493 1167.52,867.493 1171.51,867.492 1175.5,867.491 1179.49,867.491 1183.48,867.49 1187.47,867.49 1191.46,867.489 1195.45,867.488 1199.44,867.488 1203.43,867.487 1207.42,867.487 1211.4,867.486 1215.39,867.485 1219.38,867.485 1223.37,867.484 1227.36,867.484 1231.35,867.483 1235.34,867.482 1239.33,867.482 1243.32,867.481 1247.31,867.48 1251.29,867.48 1255.28,867.479 1259.27,867.479 1263.26,867.478 1267.25,867.477 1271.24,867.477 1275.23,867.476 1279.22,867.476 1283.21,867.475 1287.2,867.474 1291.19,867.474 1295.17,867.473 1299.16,867.473 1303.15,867.472 1307.14,867.471 1311.13,867.471 1315.12,867.47 1319.11,867.47 1323.1,867.469 1327.09,867.468 1331.08,867.468 1335.07,867.467 1339.05,867.467 1343.04,867.466 1347.03,867.465 1351.02,867.465 1355.01,867.464 1359,867.464 1362.99,867.463 1366.98,867.462 1370.97,867.462 1374.96,867.461 1378.95,867.46 1382.93,867.46 1386.92,867.459 1390.91,867.459 1394.9,867.458 1398.89,867.457 1402.88,867.457 1406.87,867.456 1410.86,867.456 1414.85,867.455 1418.84,867.454 1422.82,867.454 1426.81,867.453 1430.8,867.453 1434.79,867.452 1438.78,867.451 1442.77,867.451 1446.76,867.45 1450.75,867.45 1454.74,867.449 1458.73,867.448 1462.72,867.448 1466.7,867.447 1470.69,867.447 1474.68,867.446 1478.67,867.445 1482.66,867.445 1486.65,867.444 1490.64,867.443 1494.63,867.443 1498.62,867.442 1502.61,867.442 1506.6,867.441 1510.58,867.44 1514.57,867.44 1518.56,867.439 1522.55,867.439 1526.54,867.438 1530.53,867.437 1534.52,867.437 1538.51,867.436 1542.5,867.436 1546.49,867.435 1550.47,867.434 1554.46,867.434 1558.45,867.433 1562.44,867.433 1566.43,867.432 1570.42,867.431 1574.41,867.431 1578.4,867.43 1582.39,867.429 1586.38,867.429 1590.37,867.428 1594.35,867.428 1598.34,867.427 1602.33,867.426 1606.32,867.426 1610.31,867.425 1614.3,867.425 1618.29,867.424 1622.28,867.423 1626.27,867.423 1630.26,867.422 1634.25,867.422 1638.23,867.421 1642.22,867.42 1646.21,867.42 1650.2,867.419 1654.19,867.419 1658.18,867.418 1662.17,867.417 1666.16,867.417 1670.15,867.416 1674.14,867.415 1678.13,867.415 1682.11,867.414 1686.1,867.414 1690.09,867.413 1694.08,867.412 1698.07,867.412 1702.06,867.411 1706.05,867.411 1710.04,867.41 1714.03,867.409 1718.02,867.409 1722,867.408 1725.99,867.408 1729.98,867.407 1733.97,867.406 1737.96,867.406 1741.95,867.405 1745.94,867.405 1749.93,867.404 1753.92,867.403 1757.91,867.403 1761.9,867.402 1765.88,867.401 1769.87,867.401 1773.86,867.4 1777.85,867.4 1781.84,867.399 1785.83,867.398 1789.82,867.398 1793.81,867.397 1797.8,867.397 1801.79,867.396 1805.78,867.395 1809.76,867.395 1813.75,867.394 1817.74,867.394 1821.73,867.393 1825.72,867.392 1829.71,867.392 1833.7,867.391 1837.69,867.39 1841.68,867.39 1845.67,867.389 1849.65,867.389 1853.64,867.388 1857.63,867.387 1861.62,867.387 1865.61,867.386 1869.6,867.386 1873.59,867.385 1877.58,867.384 1881.57,867.384 1885.56,867.383 1889.55,867.383 1893.53,867.382 1897.52,867.381 1901.51,867.381 1905.5,867.38 1909.49,867.379 1913.48,867.379 1917.47,867.378 1921.46,867.378 1925.45,867.377 1929.44,867.376 1933.43,867.376 1937.41,867.375 1941.4,867.375 1945.39,867.374 1949.38,867.373 1953.37,867.373 1957.36,867.372 1961.35,867.372 1965.34,867.371 1969.33,867.37 1973.32,867.37 1977.3,867.369 1981.29,867.368 1985.28,867.368 1989.27,867.367 1993.26,867.367 1997.25,867.366 2001.24,867.365 2005.23,867.365 2009.22,867.364 2013.21,867.364 2017.2,867.363 2021.18,867.362 2025.17,867.362 2029.16,867.361 2033.15,867.361 2037.14,867.36 2041.13,867.359 2045.12,867.359 2049.11,867.358 2053.1,867.357 2057.09,867.357 2061.08,867.356 2065.06,867.356 2069.05,867.355 2073.04,867.354 2077.03,867.354 2081.02,867.353 2085.01,867.353 2089,867.352 2092.99,867.351 2096.98,867.351 2100.97,867.35 2104.96,867.349 2108.94,867.349 2112.93,867.348 2116.92,867.348 2120.91,867.347 2124.9,867.346 2128.89,867.346 2132.88,867.345 2136.87,867.345 2140.86,867.344 2144.85,867.343 2148.83,867.343 2152.82,867.342 2156.81,867.342 2160.8,867.341 2164.79,867.34 2168.78,867.34 2172.77,867.339 2176.76,867.338 2180.75,867.338 2184.74,867.337 2188.73,867.337 2192.71,867.336 2196.7,867.335 2200.69,867.335 2204.68,867.334 2208.67,867.334 2212.66,867.333 2216.65,867.332 2220.64,867.332 2224.63,867.331 2228.62,867.33 2232.61,867.33 2236.59,867.329 2240.58,867.329 2244.57,867.328 2248.56,867.327 2252.55,867.327 2256.54,867.326 2260.53,867.326 2264.52,867.325 2268.51,867.324 2272.5,867.324 2276.48,867.323 2280.47,867.322 2284.46,867.322 2288.45,867.321 2292.44,867.321 "/>
<polyline clip-path="url(#clip052)" style="stroke:#ac8d18; stroke-linecap:round; stroke-linejoin:round; stroke-width:4; stroke-opacity:1; fill:none" points="281.952,171.243 285.941,171.243 289.93,171.243 293.919,171.243 297.908,171.243 301.897,171.243 305.886,171.243 309.875,171.243 313.864,233.808 317.853,233.808 321.842,330.105 325.832,330.105 329.821,478.17 333.81,478.17 337.799,663.642 341.788,608.053 345.777,606.788 349.766,606.788 353.755,762.631 357.744,696.745 361.733,627.718 365.722,627.718 369.711,783.364 373.7,717.569 377.689,648.566 381.678,648.566 385.667,803.518 389.657,738.6 393.646,669.672 397.635,600.671 401.624,599.246 405.613,598.238 409.602,597.228 413.591,596.214 417.58,595.198 421.569,594.182 425.558,593.169 429.547,592.162 433.536,591.165 437.525,590.183 441.514,589.22 445.503,588.282 449.493,587.376 453.482,586.509 457.471,585.689 461.46,584.925 465.449,584.227 469.438,583.606 473.427,583.073 477.416,582.639 481.405,582.318 485.394,582.121 489.383,582.061 493.372,582.149 497.361,582.395 501.35,582.808 505.339,583.395 509.329,584.161 513.318,585.107 517.307,586.233 521.296,587.535 525.285,589.006 529.274,590.637 533.263,592.419 537.252,594.337 541.241,596.379 545.23,598.53 549.219,600.775 553.208,603.101 557.197,605.493 561.186,607.939 565.175,610.425 569.165,612.942 573.154,615.479 577.143,618.028 581.132,620.58 585.121,623.128 589.11,625.668 593.099,628.194 597.088,630.701 601.077,633.187 605.066,635.648 609.055,638.083 613.044,640.489 617.033,640.489 621.022,803.262 625.011,733.835 629.001,666.051 632.99,666.051 636.979,827.135 640.968,759.141 644.957,691.143 648.946,624.059 652.935,627.325 656.924,630.151 660.913,632.928 664.902,635.652 668.891,638.324 672.88,640.944 676.869,640.944 680.858,804.295 684.847,734.455 688.837,666.77 692.826,666.77 696.815,828.734 700.804,760.014 704.793,692.063 708.782,625.137 712.771,628.594 716.76,631.574 720.749,634.49 724.738,637.338 728.727,640.123 732.716,640.123 736.705,803.777 740.694,733.739 744.683,666.158 748.673,666.158 752.662,828.678 756.651,759.497 760.64,691.607 764.629,624.851 768.618,628.46 772.607,631.584 776.596,634.634 780.585,637.61 784.574,640.515 788.563,640.515 792.552,804.245 796.541,734.186 800.53,666.712 804.519,666.712 808.509,829.492 812.498,760.094 816.487,692.276 820.476,625.692 824.465,629.412 828.454,632.66 832.443,635.831 836.432,638.925 840.421,641.946 844.41,641.946 848.399,805.625 852.388,735.656 856.377,668.305 860.366,668.305 864.355,831.17 868.345,761.71 872.334,693.982 876.323,627.596 880.312,631.431 884.301,634.818 888.29,638.127 892.279,641.358 896.268,644.516 900.257,644.516 904.246,808.075 908.235,738.271 912.224,671.072 916.213,671.072 920.202,833.919 924.191,764.501 928.181,696.891 932.17,630.748 936.159,634.729 940.148,638.294 944.137,641.78 948.126,645.191 952.115,648.529 956.104,648.529 960.093,811.931 964.082,742.35 968.071,675.344 972.06,675.344 976.049,838.113 980.038,768.811 984.027,701.353 988.017,635.517 992.006,639.7 995.995,643.502 999.984,647.227 1003.97,650.878 1007.96,654.459 1011.95,654.459 1015.94,817.687 1019.93,748.381 1023.92,681.622 1027.91,681.622 1031.9,844.277 1035.89,775.153 1039.87,707.891 1043.86,642.447 1047.85,646.913 1051.84,651.034 1055.83,655.08 1059.82,659.054 1063.81,659.054 1067.8,822.201 1071.79,753.18 1075.78,686.772 1079.77,686.772 1083.75,849.38 1087.74,780.454 1091.73,713.471 1095.72,648.579 1099.71,653.51 1103.7,658.121 1107.69,662.655 1111.68,662.655 1115.67,825.797 1119.66,757.096 1123.64,691.162 1127.63,691.162 1131.62,853.774 1135.61,785.082 1139.6,718.477 1143.59,654.324 1147.58,659.924 1151.57,665.217 1155.56,670.431 1159.55,670.431 1163.54,833.535 1167.52,765.252 1171.51,699.903 1175.5,699.903 1179.49,862.482 1183.48,794.112 1187.47,727.976 1191.46,664.735 1195.45,671.157 1199.44,677.298 1203.43,677.298 1207.42,840.458 1211.4,772.662 1215.39,708.087 1219.38,708.087 1223.37,870.704 1227.36,802.717 1231.35,737.201 1235.34,675.162 1239.33,682.71 1243.32,689.994 1247.31,689.994 1251.29,853.199 1255.28,786.031 1259.27,722.421 1263.26,722.421 1267.25,885.064 1271.24,817.577 1275.23,752.839 1279.22,692.298 1283.21,701.253 1287.2,701.253 1291.19,864.635 1295.17,798.217 1299.16,735.871 1303.15,735.871 1307.14,898.645 1311.13,831.758 1315.12,768.041 1319.11,709.448 1323.1,720.277 1327.09,720.277 1331.08,883.872 1335.07,818.412 1339.05,757.652 1343.04,704.587 1347.03,720.913 1351.02,720.913 1355.01,885.691 1359,822.581 1362.99,766.28 1366.98,721.304 1370.97,745.626 1374.96,745.626 1378.95,912.071 1382.93,852.695 1386.92,803.066 1390.91,769.698 1394.9,805.522 1398.89,798.064 1402.88,859.78 1406.87,889.865 1410.86,968.67 1414.85,1104.52 "/>
<path clip-path="url(#clip050)" d="M1745.51 477.836 L2281.72 477.836 L2281.72 166.796 L1745.51 166.796  Z" fill="#ffffff" fill-rule="evenodd" fill-opacity="1"/>
<polyline clip-path="url(#clip050)" style="stroke:#000000; stroke-linecap:round; stroke-linejoin:round; stroke-width:4; stroke-opacity:1; fill:none" points="1745.51,477.836 2281.72,477.836 2281.72,166.796 1745.51,166.796 1745.51,477.836 "/>
<polyline clip-path="url(#clip050)" style="stroke:#009af9; stroke-linecap:round; stroke-linejoin:round; stroke-width:4; stroke-opacity:1; fill:none" points="1769.19,218.636 1911.26,218.636 "/>
<path clip-path="url(#clip050)" d="M1934.94 201.356 L1939.62 201.356 L1939.62 231.981 L1956.44 231.981 L1956.44 235.916 L1934.94 235.916 L1934.94 201.356 Z" fill="#000000" fill-rule="nonzero" fill-opacity="1" /><path clip-path="url(#clip050)" d="M1961.35 201.356 L1968.32 201.356 L1977.14 224.874 L1986 201.356 L1992.97 201.356 L1992.97 235.916 L1988.41 235.916 L1988.41 205.569 L1979.5 229.272 L1974.8 229.272 L1965.89 205.569 L1965.89 235.916 L1961.35 235.916 L1961.35 201.356 Z" fill="#000000" fill-rule="nonzero" fill-opacity="1" /><path clip-path="url(#clip050)" d="M2021.77 243.786 L2021.77 247.096 L1997.14 247.096 L1997.14 243.786 L2021.77 243.786 Z" fill="#000000" fill-rule="nonzero" fill-opacity="1" /><path clip-path="url(#clip050)" d="M2046.67 202.49 L2046.67 207.05 Q2044.01 205.777 2041.65 205.152 Q2039.29 204.527 2037.09 204.527 Q2033.27 204.527 2031.19 206.008 Q2029.13 207.49 2029.13 210.221 Q2029.13 212.513 2030.49 213.694 Q2031.88 214.851 2035.73 215.569 L2038.55 216.147 Q2043.78 217.143 2046.26 219.666 Q2048.76 222.166 2048.76 226.379 Q2048.76 231.402 2045.38 233.994 Q2042.02 236.587 2035.52 236.587 Q2033.06 236.587 2030.29 236.031 Q2027.53 235.476 2024.57 234.388 L2024.57 229.573 Q2027.42 231.17 2030.15 231.981 Q2032.88 232.791 2035.52 232.791 Q2039.52 232.791 2041.7 231.217 Q2043.87 229.643 2043.87 226.726 Q2043.87 224.18 2042.3 222.744 Q2040.75 221.309 2037.18 220.592 L2034.34 220.036 Q2029.11 218.995 2026.77 216.772 Q2024.43 214.55 2024.43 210.592 Q2024.43 206.008 2027.65 203.37 Q2030.89 200.731 2036.56 200.731 Q2038.99 200.731 2041.51 201.171 Q2044.04 201.61 2046.67 202.49 Z" fill="#000000" fill-rule="nonzero" fill-opacity="1" /><path clip-path="url(#clip050)" d="M2060.73 205.198 L2060.73 218.184 L2066.61 218.184 Q2069.87 218.184 2071.65 216.495 Q2073.43 214.805 2073.43 211.68 Q2073.43 208.578 2071.65 206.888 Q2069.87 205.198 2066.61 205.198 L2060.73 205.198 M2056.05 201.356 L2066.61 201.356 Q2072.42 201.356 2075.38 203.995 Q2078.36 206.61 2078.36 211.68 Q2078.36 216.795 2075.38 219.411 Q2072.42 222.027 2066.61 222.027 L2060.73 222.027 L2060.73 235.916 L2056.05 235.916 L2056.05 201.356 Z" fill="#000000" fill-rule="nonzero" fill-opacity="1" /><path clip-path="url(#clip050)" d="M2108.2 230.985 L2108.2 221.703 L2100.56 221.703 L2100.56 217.86 L2112.83 217.86 L2112.83 232.698 Q2110.12 234.619 2106.86 235.615 Q2103.6 236.587 2099.89 236.587 Q2091.79 236.587 2087.21 231.865 Q2082.65 227.119 2082.65 218.67 Q2082.65 210.198 2087.21 205.476 Q2091.79 200.731 2099.89 200.731 Q2103.27 200.731 2106.3 201.564 Q2109.36 202.397 2111.93 204.018 L2111.93 208.995 Q2109.34 206.796 2106.42 205.684 Q2103.5 204.573 2100.29 204.573 Q2093.94 204.573 2090.75 208.115 Q2087.58 211.657 2087.58 218.67 Q2087.58 225.661 2090.75 229.203 Q2093.94 232.744 2100.29 232.744 Q2102.76 232.744 2104.71 232.328 Q2106.65 231.888 2108.2 230.985 Z" fill="#000000" fill-rule="nonzero" fill-opacity="1" /><polyline clip-path="url(#clip050)" style="stroke:#e26f46; stroke-linecap:round; stroke-linejoin:round; stroke-width:4; stroke-opacity:1; fill:none" points="1769.19,270.476 1911.26,270.476 "/>
<path clip-path="url(#clip050)" d="M1934.94 253.196 L1939.62 253.196 L1939.62 283.821 L1956.44 283.821 L1956.44 287.756 L1934.94 287.756 L1934.94 253.196 Z" fill="#000000" fill-rule="nonzero" fill-opacity="1" /><path clip-path="url(#clip050)" d="M1961.35 253.196 L1968.32 253.196 L1977.14 276.714 L1986 253.196 L1992.97 253.196 L1992.97 287.756 L1988.41 287.756 L1988.41 257.409 L1979.5 281.112 L1974.8 281.112 L1965.89 257.409 L1965.89 287.756 L1961.35 287.756 L1961.35 253.196 Z" fill="#000000" fill-rule="nonzero" fill-opacity="1" /><path clip-path="url(#clip050)" d="M2021.77 295.626 L2021.77 298.936 L1997.14 298.936 L1997.14 295.626 L2021.77 295.626 Z" fill="#000000" fill-rule="nonzero" fill-opacity="1" /><path clip-path="url(#clip050)" d="M2037.51 257.802 L2031.17 275.001 L2043.87 275.001 L2037.51 257.802 M2034.87 253.196 L2040.17 253.196 L2053.34 287.756 L2048.48 287.756 L2045.33 278.89 L2029.75 278.89 L2026.61 287.756 L2021.68 287.756 L2034.87 253.196 Z" fill="#000000" fill-rule="nonzero" fill-opacity="1" /><path clip-path="url(#clip050)" d="M2079.75 272.108 L2079.75 287.756 L2075.49 287.756 L2075.49 272.247 Q2075.49 268.566 2074.06 266.737 Q2072.62 264.909 2069.75 264.909 Q2066.3 264.909 2064.31 267.108 Q2062.32 269.307 2062.32 273.103 L2062.32 287.756 L2058.04 287.756 L2058.04 261.83 L2062.32 261.83 L2062.32 265.858 Q2063.85 263.52 2065.91 262.362 Q2067.99 261.205 2070.7 261.205 Q2075.17 261.205 2077.46 263.983 Q2079.75 266.737 2079.75 272.108 Z" fill="#000000" fill-rule="nonzero" fill-opacity="1" /><path clip-path="url(#clip050)" d="M2105.31 265.765 L2105.31 251.737 L2109.57 251.737 L2109.57 287.756 L2105.31 287.756 L2105.31 283.867 Q2103.97 286.182 2101.91 287.316 Q2099.87 288.427 2097 288.427 Q2092.3 288.427 2089.34 284.677 Q2086.4 280.927 2086.4 274.816 Q2086.4 268.705 2089.34 264.955 Q2092.3 261.205 2097 261.205 Q2099.87 261.205 2101.91 262.339 Q2103.97 263.45 2105.31 265.765 M2090.8 274.816 Q2090.8 279.515 2092.72 282.2 Q2094.66 284.862 2098.04 284.862 Q2101.42 284.862 2103.36 282.2 Q2105.31 279.515 2105.31 274.816 Q2105.31 270.117 2103.36 267.455 Q2101.42 264.77 2098.04 264.77 Q2094.66 264.77 2092.72 267.455 Q2090.8 270.117 2090.8 274.816 Z" fill="#000000" fill-rule="nonzero" fill-opacity="1" /><path clip-path="url(#clip050)" d="M2133.36 265.811 Q2132.65 265.395 2131.79 265.21 Q2130.96 265.001 2129.94 265.001 Q2126.33 265.001 2124.38 267.362 Q2122.46 269.7 2122.46 274.098 L2122.46 287.756 L2118.18 287.756 L2118.18 261.83 L2122.46 261.83 L2122.46 265.858 Q2123.8 263.497 2125.96 262.362 Q2128.11 261.205 2131.19 261.205 Q2131.63 261.205 2132.16 261.274 Q2132.69 261.321 2133.34 261.436 L2133.36 265.811 Z" fill="#000000" fill-rule="nonzero" fill-opacity="1" /><path clip-path="url(#clip050)" d="M2158.97 273.728 L2158.97 275.811 L2139.38 275.811 Q2139.66 280.209 2142.02 282.524 Q2144.41 284.816 2148.64 284.816 Q2151.1 284.816 2153.39 284.214 Q2155.7 283.612 2157.97 282.409 L2157.97 286.436 Q2155.68 287.408 2153.27 287.918 Q2150.86 288.427 2148.39 288.427 Q2142.18 288.427 2138.55 284.816 Q2134.94 281.205 2134.94 275.047 Q2134.94 268.682 2138.36 264.955 Q2141.81 261.205 2147.65 261.205 Q2152.88 261.205 2155.91 264.585 Q2158.97 267.941 2158.97 273.728 M2154.71 272.478 Q2154.66 268.983 2152.74 266.899 Q2150.84 264.816 2147.69 264.816 Q2144.13 264.816 2141.98 266.83 Q2139.85 268.844 2139.52 272.501 L2154.71 272.478 Z" fill="#000000" fill-rule="nonzero" fill-opacity="1" /><path clip-path="url(#clip050)" d="M2165.96 261.83 L2170.22 261.83 L2170.22 287.756 L2165.96 287.756 L2165.96 261.83 M2165.96 251.737 L2170.22 251.737 L2170.22 257.131 L2165.96 257.131 L2165.96 251.737 Z" fill="#000000" fill-rule="nonzero" fill-opacity="1" /><path clip-path="url(#clip050)" d="M2198.83 295.626 L2198.83 298.936 L2174.2 298.936 L2174.2 295.626 L2198.83 295.626 Z" fill="#000000" fill-rule="nonzero" fill-opacity="1" /><path clip-path="url(#clip050)" d="M2214.61 274.723 Q2209.45 274.723 2207.46 275.904 Q2205.47 277.084 2205.47 279.932 Q2205.47 282.2 2206.95 283.543 Q2208.46 284.862 2211.03 284.862 Q2214.57 284.862 2216.7 282.362 Q2218.85 279.839 2218.85 275.672 L2218.85 274.723 L2214.61 274.723 M2223.11 272.964 L2223.11 287.756 L2218.85 287.756 L2218.85 283.821 Q2217.39 286.182 2215.22 287.316 Q2213.04 288.427 2209.89 288.427 Q2205.91 288.427 2203.55 286.205 Q2201.21 283.959 2201.21 280.209 Q2201.21 275.834 2204.13 273.612 Q2207.07 271.39 2212.88 271.39 L2218.85 271.39 L2218.85 270.973 Q2218.85 268.034 2216.91 266.436 Q2214.98 264.816 2211.49 264.816 Q2209.27 264.816 2207.16 265.348 Q2205.05 265.881 2203.11 266.946 L2203.11 263.01 Q2205.45 262.108 2207.65 261.668 Q2209.85 261.205 2211.93 261.205 Q2217.55 261.205 2220.33 264.122 Q2223.11 267.038 2223.11 272.964 Z" fill="#000000" fill-rule="nonzero" fill-opacity="1" /><path clip-path="url(#clip050)" d="M2231.88 251.737 L2236.14 251.737 L2236.14 287.756 L2231.88 287.756 L2231.88 251.737 Z" fill="#000000" fill-rule="nonzero" fill-opacity="1" /><path clip-path="url(#clip050)" d="M2249.27 254.469 L2249.27 261.83 L2258.04 261.83 L2258.04 265.14 L2249.27 265.14 L2249.27 279.214 Q2249.27 282.385 2250.12 283.288 Q2251 284.191 2253.66 284.191 L2258.04 284.191 L2258.04 287.756 L2253.66 287.756 Q2248.73 287.756 2246.86 285.927 Q2244.98 284.075 2244.98 279.214 L2244.98 265.14 L2241.86 265.14 L2241.86 261.83 L2244.98 261.83 L2244.98 254.469 L2249.27 254.469 Z" fill="#000000" fill-rule="nonzero" fill-opacity="1" /><polyline clip-path="url(#clip050)" style="stroke:#3da44d; stroke-linecap:round; stroke-linejoin:round; stroke-width:4; stroke-opacity:1; fill:none" points="1769.19,322.316 1911.26,322.316 "/>
<path clip-path="url(#clip050)" d="M1934.94 305.036 L1939.62 305.036 L1939.62 335.661 L1956.44 335.661 L1956.44 339.596 L1934.94 339.596 L1934.94 305.036 Z" fill="#000000" fill-rule="nonzero" fill-opacity="1" /><path clip-path="url(#clip050)" d="M1961.35 305.036 L1968.32 305.036 L1977.14 328.554 L1986 305.036 L1992.97 305.036 L1992.97 339.596 L1988.41 339.596 L1988.41 309.249 L1979.5 332.952 L1974.8 332.952 L1965.89 309.249 L1965.89 339.596 L1961.35 339.596 L1961.35 305.036 Z" fill="#000000" fill-rule="nonzero" fill-opacity="1" /><path clip-path="url(#clip050)" d="M2021.77 347.466 L2021.77 350.776 L1997.14 350.776 L1997.14 347.466 L2021.77 347.466 Z" fill="#000000" fill-rule="nonzero" fill-opacity="1" /><path clip-path="url(#clip050)" d="M2037.51 309.642 L2031.17 326.841 L2043.87 326.841 L2037.51 309.642 M2034.87 305.036 L2040.17 305.036 L2053.34 339.596 L2048.48 339.596 L2045.33 330.73 L2029.75 330.73 L2026.61 339.596 L2021.68 339.596 L2034.87 305.036 Z" fill="#000000" fill-rule="nonzero" fill-opacity="1" /><path clip-path="url(#clip050)" d="M2079.75 323.948 L2079.75 339.596 L2075.49 339.596 L2075.49 324.087 Q2075.49 320.406 2074.06 318.577 Q2072.62 316.749 2069.75 316.749 Q2066.3 316.749 2064.31 318.948 Q2062.32 321.147 2062.32 324.943 L2062.32 339.596 L2058.04 339.596 L2058.04 313.67 L2062.32 313.67 L2062.32 317.698 Q2063.85 315.36 2065.91 314.202 Q2067.99 313.045 2070.7 313.045 Q2075.17 313.045 2077.46 315.823 Q2079.75 318.577 2079.75 323.948 Z" fill="#000000" fill-rule="nonzero" fill-opacity="1" /><path clip-path="url(#clip050)" d="M2105.31 317.605 L2105.31 303.577 L2109.57 303.577 L2109.57 339.596 L2105.31 339.596 L2105.31 335.707 Q2103.97 338.022 2101.91 339.156 Q2099.87 340.267 2097 340.267 Q2092.3 340.267 2089.34 336.517 Q2086.4 332.767 2086.4 326.656 Q2086.4 320.545 2089.34 316.795 Q2092.3 313.045 2097 313.045 Q2099.87 313.045 2101.91 314.179 Q2103.97 315.29 2105.31 317.605 M2090.8 326.656 Q2090.8 331.355 2092.72 334.04 Q2094.66 336.702 2098.04 336.702 Q2101.42 336.702 2103.36 334.04 Q2105.31 331.355 2105.31 326.656 Q2105.31 321.957 2103.36 319.295 Q2101.42 316.61 2098.04 316.61 Q2094.66 316.61 2092.72 319.295 Q2090.8 321.957 2090.8 326.656 Z" fill="#000000" fill-rule="nonzero" fill-opacity="1" /><path clip-path="url(#clip050)" d="M2133.36 317.651 Q2132.65 317.235 2131.79 317.05 Q2130.96 316.841 2129.94 316.841 Q2126.33 316.841 2124.38 319.202 Q2122.46 321.54 2122.46 325.938 L2122.46 339.596 L2118.18 339.596 L2118.18 313.67 L2122.46 313.67 L2122.46 317.698 Q2123.8 315.337 2125.96 314.202 Q2128.11 313.045 2131.19 313.045 Q2131.63 313.045 2132.16 313.114 Q2132.69 313.161 2133.34 313.276 L2133.36 317.651 Z" fill="#000000" fill-rule="nonzero" fill-opacity="1" /><path clip-path="url(#clip050)" d="M2158.97 325.568 L2158.97 327.651 L2139.38 327.651 Q2139.66 332.049 2142.02 334.364 Q2144.41 336.656 2148.64 336.656 Q2151.1 336.656 2153.39 336.054 Q2155.7 335.452 2157.97 334.249 L2157.97 338.276 Q2155.68 339.248 2153.27 339.758 Q2150.86 340.267 2148.39 340.267 Q2142.18 340.267 2138.55 336.656 Q2134.94 333.045 2134.94 326.887 Q2134.94 320.522 2138.36 316.795 Q2141.81 313.045 2147.65 313.045 Q2152.88 313.045 2155.91 316.425 Q2158.97 319.781 2158.97 325.568 M2154.71 324.318 Q2154.66 320.823 2152.74 318.739 Q2150.84 316.656 2147.69 316.656 Q2144.13 316.656 2141.98 318.67 Q2139.85 320.684 2139.52 324.341 L2154.71 324.318 Z" fill="#000000" fill-rule="nonzero" fill-opacity="1" /><path clip-path="url(#clip050)" d="M2165.96 313.67 L2170.22 313.67 L2170.22 339.596 L2165.96 339.596 L2165.96 313.67 M2165.96 303.577 L2170.22 303.577 L2170.22 308.971 L2165.96 308.971 L2165.96 303.577 Z" fill="#000000" fill-rule="nonzero" fill-opacity="1" /><polyline clip-path="url(#clip050)" style="stroke:#c271d2; stroke-linecap:round; stroke-linejoin:round; stroke-width:4; stroke-opacity:1; fill:none" points="1769.19,374.156 1911.26,374.156 "/>
<path clip-path="url(#clip050)" d="M1934.94 356.876 L1939.62 356.876 L1939.62 387.501 L1956.44 387.501 L1956.44 391.436 L1934.94 391.436 L1934.94 356.876 Z" fill="#000000" fill-rule="nonzero" fill-opacity="1" /><path clip-path="url(#clip050)" d="M1961.35 356.876 L1968.32 356.876 L1977.14 380.394 L1986 356.876 L1992.97 356.876 L1992.97 391.436 L1988.41 391.436 L1988.41 361.089 L1979.5 384.792 L1974.8 384.792 L1965.89 361.089 L1965.89 391.436 L1961.35 391.436 L1961.35 356.876 Z" fill="#000000" fill-rule="nonzero" fill-opacity="1" /><path clip-path="url(#clip050)" d="M2021.77 399.306 L2021.77 402.616 L1997.14 402.616 L1997.14 399.306 L2021.77 399.306 Z" fill="#000000" fill-rule="nonzero" fill-opacity="1" /><path clip-path="url(#clip050)" d="M2046.67 358.01 L2046.67 362.57 Q2044.01 361.297 2041.65 360.672 Q2039.29 360.047 2037.09 360.047 Q2033.27 360.047 2031.19 361.528 Q2029.13 363.01 2029.13 365.741 Q2029.13 368.033 2030.49 369.214 Q2031.88 370.371 2035.73 371.089 L2038.55 371.667 Q2043.78 372.663 2046.26 375.186 Q2048.76 377.686 2048.76 381.899 Q2048.76 386.922 2045.38 389.514 Q2042.02 392.107 2035.52 392.107 Q2033.06 392.107 2030.29 391.551 Q2027.53 390.996 2024.57 389.908 L2024.57 385.093 Q2027.42 386.69 2030.15 387.501 Q2032.88 388.311 2035.52 388.311 Q2039.52 388.311 2041.7 386.737 Q2043.87 385.163 2043.87 382.246 Q2043.87 379.7 2042.3 378.264 Q2040.75 376.829 2037.18 376.112 L2034.34 375.556 Q2029.11 374.515 2026.77 372.292 Q2024.43 370.07 2024.43 366.112 Q2024.43 361.528 2027.65 358.89 Q2030.89 356.251 2036.56 356.251 Q2038.99 356.251 2041.51 356.691 Q2044.04 357.13 2046.67 358.01 Z" fill="#000000" fill-rule="nonzero" fill-opacity="1" /><path clip-path="url(#clip050)" d="M2060.73 360.718 L2060.73 373.704 L2066.61 373.704 Q2069.87 373.704 2071.65 372.015 Q2073.43 370.325 2073.43 367.2 Q2073.43 364.098 2071.65 362.408 Q2069.87 360.718 2066.61 360.718 L2060.73 360.718 M2056.05 356.876 L2066.61 356.876 Q2072.42 356.876 2075.38 359.515 Q2078.36 362.13 2078.36 367.2 Q2078.36 372.315 2075.38 374.931 Q2072.42 377.547 2066.61 377.547 L2060.73 377.547 L2060.73 391.436 L2056.05 391.436 L2056.05 356.876 Z" fill="#000000" fill-rule="nonzero" fill-opacity="1" /><path clip-path="url(#clip050)" d="M2108.2 386.505 L2108.2 377.223 L2100.56 377.223 L2100.56 373.38 L2112.83 373.38 L2112.83 388.218 Q2110.12 390.139 2106.86 391.135 Q2103.6 392.107 2099.89 392.107 Q2091.79 392.107 2087.21 387.385 Q2082.65 382.639 2082.65 374.19 Q2082.65 365.718 2087.21 360.996 Q2091.79 356.251 2099.89 356.251 Q2103.27 356.251 2106.3 357.084 Q2109.36 357.917 2111.93 359.538 L2111.93 364.515 Q2109.34 362.316 2106.42 361.204 Q2103.5 360.093 2100.29 360.093 Q2093.94 360.093 2090.75 363.635 Q2087.58 367.177 2087.58 374.19 Q2087.58 381.181 2090.75 384.723 Q2093.94 388.264 2100.29 388.264 Q2102.76 388.264 2104.71 387.848 Q2106.65 387.408 2108.2 386.505 Z" fill="#000000" fill-rule="nonzero" fill-opacity="1" /><path clip-path="url(#clip050)" d="M2140.89 399.306 L2140.89 402.616 L2116.26 402.616 L2116.26 399.306 L2140.89 399.306 Z" fill="#000000" fill-rule="nonzero" fill-opacity="1" /><path clip-path="url(#clip050)" d="M2156.67 378.403 Q2151.51 378.403 2149.52 379.584 Q2147.53 380.764 2147.53 383.612 Q2147.53 385.88 2149.01 387.223 Q2150.52 388.542 2153.09 388.542 Q2156.63 388.542 2158.76 386.042 Q2160.91 383.519 2160.91 379.352 L2160.91 378.403 L2156.67 378.403 M2165.17 376.644 L2165.17 391.436 L2160.91 391.436 L2160.91 387.501 Q2159.45 389.862 2157.28 390.996 Q2155.1 392.107 2151.95 392.107 Q2147.97 392.107 2145.61 389.885 Q2143.27 387.639 2143.27 383.889 Q2143.27 379.514 2146.19 377.292 Q2149.13 375.07 2154.94 375.07 L2160.91 375.07 L2160.91 374.653 Q2160.91 371.714 2158.97 370.116 Q2157.04 368.496 2153.55 368.496 Q2151.33 368.496 2149.22 369.028 Q2147.11 369.561 2145.17 370.626 L2145.17 366.69 Q2147.51 365.788 2149.71 365.348 Q2151.91 364.885 2153.99 364.885 Q2159.61 364.885 2162.39 367.802 Q2165.17 370.718 2165.17 376.644 Z" fill="#000000" fill-rule="nonzero" fill-opacity="1" /><path clip-path="url(#clip050)" d="M2173.94 355.417 L2178.2 355.417 L2178.2 391.436 L2173.94 391.436 L2173.94 355.417 Z" fill="#000000" fill-rule="nonzero" fill-opacity="1" /><path clip-path="url(#clip050)" d="M2191.33 358.149 L2191.33 365.51 L2200.1 365.51 L2200.1 368.82 L2191.33 368.82 L2191.33 382.894 Q2191.33 386.065 2192.18 386.968 Q2193.06 387.871 2195.73 387.871 L2200.1 387.871 L2200.1 391.436 L2195.73 391.436 Q2190.79 391.436 2188.92 389.607 Q2187.04 387.755 2187.04 382.894 L2187.04 368.82 L2183.92 368.82 L2183.92 365.51 L2187.04 365.51 L2187.04 358.149 L2191.33 358.149 Z" fill="#000000" fill-rule="nonzero" fill-opacity="1" /><polyline clip-path="url(#clip050)" style="stroke:#ac8d18; stroke-linecap:round; stroke-linejoin:round; stroke-width:4; stroke-opacity:1; fill:none" points="1769.19,425.996 1911.26,425.996 "/>
<path clip-path="url(#clip050)" d="M1934.94 408.716 L1939.62 408.716 L1939.62 439.341 L1956.44 439.341 L1956.44 443.276 L1934.94 443.276 L1934.94 408.716 Z" fill="#000000" fill-rule="nonzero" fill-opacity="1" /><path clip-path="url(#clip050)" d="M1961.35 408.716 L1968.32 408.716 L1977.14 432.234 L1986 408.716 L1992.97 408.716 L1992.97 443.276 L1988.41 443.276 L1988.41 412.929 L1979.5 436.632 L1974.8 436.632 L1965.89 412.929 L1965.89 443.276 L1961.35 443.276 L1961.35 408.716 Z" fill="#000000" fill-rule="nonzero" fill-opacity="1" /></svg>
