<?xml version="1.0" encoding="utf-8"?>
<svg xmlns="http://www.w3.org/2000/svg" xmlns:xlink="http://www.w3.org/1999/xlink" width="600" height="400" viewBox="0 0 2400 1600">
<defs>
  <clipPath id="clip370">
    <rect x="0" y="0" width="2400" height="1600"/>
  </clipPath>
</defs>
<path clip-path="url(#clip370)" d="M0 1600 L2400 1600 L2400 0 L0 0  Z" fill="#ffffff" fill-rule="evenodd" fill-opacity="1"/>
<defs>
  <clipPath id="clip371">
    <rect x="480" y="0" width="1681" height="1600"/>
  </clipPath>
</defs>
<path clip-path="url(#clip370)" d="M251.56 1423.18 L2352.76 1423.18 L2352.76 123.472 L251.56 123.472  Z" fill="#ffffff" fill-rule="evenodd" fill-opacity="1"/>
<defs>
  <clipPath id="clip372">
    <rect x="251" y="123" width="2102" height="1301"/>
  </clipPath>
</defs>
<polyline clip-path="url(#clip372)" style="stroke:#000000; stroke-linecap:round; stroke-linejoin:round; stroke-width:2; stroke-opacity:0.1; fill:none" points="309.046,1423.18 309.046,123.472 "/>
<polyline clip-path="url(#clip372)" style="stroke:#000000; stroke-linecap:round; stroke-linejoin:round; stroke-width:2; stroke-opacity:0.1; fill:none" points="804.611,1423.18 804.611,123.472 "/>
<polyline clip-path="url(#clip372)" style="stroke:#000000; stroke-linecap:round; stroke-linejoin:round; stroke-width:2; stroke-opacity:0.1; fill:none" points="1300.18,1423.18 1300.18,123.472 "/>
<polyline clip-path="url(#clip372)" style="stroke:#000000; stroke-linecap:round; stroke-linejoin:round; stroke-width:2; stroke-opacity:0.1; fill:none" points="1795.74,1423.18 1795.74,123.472 "/>
<polyline clip-path="url(#clip372)" style="stroke:#000000; stroke-linecap:round; stroke-linejoin:round; stroke-width:2; stroke-opacity:0.1; fill:none" points="2291.31,1423.18 2291.31,123.472 "/>
<polyline clip-path="url(#clip370)" style="stroke:#000000; stroke-linecap:round; stroke-linejoin:round; stroke-width:4; stroke-opacity:1; fill:none" points="251.56,1423.18 2352.76,1423.18 "/>
<polyline clip-path="url(#clip370)" style="stroke:#000000; stroke-linecap:round; stroke-linejoin:round; stroke-width:4; stroke-opacity:1; fill:none" points="309.046,1423.18 309.046,1404.28 "/>
<polyline clip-path="url(#clip370)" style="stroke:#000000; stroke-linecap:round; stroke-linejoin:round; stroke-width:4; stroke-opacity:1; fill:none" points="804.611,1423.18 804.611,1404.28 "/>
<polyline clip-path="url(#clip370)" style="stroke:#000000; stroke-linecap:round; stroke-linejoin:round; stroke-width:4; stroke-opacity:1; fill:none" points="1300.18,1423.18 1300.18,1404.28 "/>
<polyline clip-path="url(#clip370)" style="stroke:#000000; stroke-linecap:round; stroke-linejoin:round; stroke-width:4; stroke-opacity:1; fill:none" points="1795.74,1423.18 1795.74,1404.28 "/>
<polyline clip-path="url(#clip370)" style="stroke:#000000; stroke-linecap:round; stroke-linejoin:round; stroke-width:4; stroke-opacity:1; fill:none" points="2291.31,1423.18 2291.31,1404.28 "/>
<path clip-path="url(#clip370)" d="M309.046 1454.1 Q305.435 1454.1 303.606 1457.66 Q301.8 1461.2 301.8 1468.33 Q301.8 1475.44 303.606 1479.01 Q305.435 1482.55 309.046 1482.55 Q312.68 1482.55 314.486 1479.01 Q316.314 1475.44 316.314 1468.33 Q316.314 1461.2 314.486 1457.66 Q312.68 1454.1 309.046 1454.1 M309.046 1450.39 Q314.856 1450.39 317.911 1455 Q320.99 1459.58 320.99 1468.33 Q320.99 1477.06 317.911 1481.67 Q314.856 1486.25 309.046 1486.25 Q303.236 1486.25 300.157 1481.67 Q297.101 1477.06 297.101 1468.33 Q297.101 1459.58 300.157 1455 Q303.236 1450.39 309.046 1450.39 Z" fill="#000000" fill-rule="nonzero" fill-opacity="1" /><path clip-path="url(#clip370)" d="M768.303 1481.64 L784.622 1481.64 L784.622 1485.58 L762.678 1485.58 L762.678 1481.64 Q765.34 1478.89 769.923 1474.26 Q774.53 1469.61 775.71 1468.27 Q777.956 1465.74 778.835 1464.01 Q779.738 1462.25 779.738 1460.56 Q779.738 1457.8 777.794 1456.07 Q775.873 1454.33 772.771 1454.33 Q770.572 1454.33 768.118 1455.09 Q765.687 1455.86 762.91 1457.41 L762.91 1452.69 Q765.734 1451.55 768.187 1450.97 Q770.641 1450.39 772.678 1450.39 Q778.048 1450.39 781.243 1453.08 Q784.437 1455.77 784.437 1460.26 Q784.437 1462.39 783.627 1464.31 Q782.84 1466.2 780.734 1468.8 Q780.155 1469.47 777.053 1472.69 Q773.951 1475.88 768.303 1481.64 Z" fill="#000000" fill-rule="nonzero" fill-opacity="1" /><path clip-path="url(#clip370)" d="M794.484 1451.02 L812.84 1451.02 L812.84 1454.96 L798.766 1454.96 L798.766 1463.43 Q799.784 1463.08 800.803 1462.92 Q801.821 1462.73 802.84 1462.73 Q808.627 1462.73 812.007 1465.9 Q815.386 1469.08 815.386 1474.49 Q815.386 1480.07 811.914 1483.17 Q808.442 1486.25 802.122 1486.25 Q799.946 1486.25 797.678 1485.88 Q795.433 1485.51 793.025 1484.77 L793.025 1480.07 Q795.109 1481.2 797.331 1481.76 Q799.553 1482.32 802.03 1482.32 Q806.034 1482.32 808.372 1480.21 Q810.71 1478.1 810.71 1474.49 Q810.71 1470.88 808.372 1468.77 Q806.034 1466.67 802.03 1466.67 Q800.155 1466.67 798.28 1467.08 Q796.428 1467.5 794.484 1468.38 L794.484 1451.02 Z" fill="#000000" fill-rule="nonzero" fill-opacity="1" /><path clip-path="url(#clip370)" d="M834.599 1454.1 Q830.988 1454.1 829.159 1457.66 Q827.354 1461.2 827.354 1468.33 Q827.354 1475.44 829.159 1479.01 Q830.988 1482.55 834.599 1482.55 Q838.233 1482.55 840.039 1479.01 Q841.868 1475.44 841.868 1468.33 Q841.868 1461.2 840.039 1457.66 Q838.233 1454.1 834.599 1454.1 M834.599 1450.39 Q840.409 1450.39 843.465 1455 Q846.543 1459.58 846.543 1468.33 Q846.543 1477.06 843.465 1481.67 Q840.409 1486.25 834.599 1486.25 Q828.789 1486.25 825.71 1481.67 Q822.655 1477.06 822.655 1468.33 Q822.655 1459.58 825.71 1455 Q828.789 1450.39 834.599 1450.39 Z" fill="#000000" fill-rule="nonzero" fill-opacity="1" /><path clip-path="url(#clip370)" d="M1259.79 1451.02 L1278.15 1451.02 L1278.15 1454.96 L1264.08 1454.96 L1264.08 1463.43 Q1265.09 1463.08 1266.11 1462.92 Q1267.13 1462.73 1268.15 1462.73 Q1273.94 1462.73 1277.32 1465.9 Q1280.7 1469.08 1280.7 1474.49 Q1280.7 1480.07 1277.22 1483.17 Q1273.75 1486.25 1267.43 1486.25 Q1265.26 1486.25 1262.99 1485.88 Q1260.74 1485.51 1258.34 1484.77 L1258.34 1480.07 Q1260.42 1481.2 1262.64 1481.76 Q1264.86 1482.32 1267.34 1482.32 Q1271.34 1482.32 1273.68 1480.21 Q1276.02 1478.1 1276.02 1474.49 Q1276.02 1470.88 1273.68 1468.77 Q1271.34 1466.67 1267.34 1466.67 Q1265.47 1466.67 1263.59 1467.08 Q1261.74 1467.5 1259.79 1468.38 L1259.79 1451.02 Z" fill="#000000" fill-rule="nonzero" fill-opacity="1" /><path clip-path="url(#clip370)" d="M1299.91 1454.1 Q1296.3 1454.1 1294.47 1457.66 Q1292.66 1461.2 1292.66 1468.33 Q1292.66 1475.44 1294.47 1479.01 Q1296.3 1482.55 1299.91 1482.55 Q1303.54 1482.55 1305.35 1479.01 Q1307.18 1475.44 1307.18 1468.33 Q1307.18 1461.2 1305.35 1457.66 Q1303.54 1454.1 1299.91 1454.1 M1299.91 1450.39 Q1305.72 1450.39 1308.78 1455 Q1311.85 1459.58 1311.85 1468.33 Q1311.85 1477.06 1308.78 1481.67 Q1305.72 1486.25 1299.91 1486.25 Q1294.1 1486.25 1291.02 1481.67 Q1287.97 1477.06 1287.97 1468.33 Q1287.97 1459.58 1291.02 1455 Q1294.1 1450.39 1299.91 1450.39 Z" fill="#000000" fill-rule="nonzero" fill-opacity="1" /><path clip-path="url(#clip370)" d="M1330.07 1454.1 Q1326.46 1454.1 1324.63 1457.66 Q1322.83 1461.2 1322.83 1468.33 Q1322.83 1475.44 1324.63 1479.01 Q1326.46 1482.55 1330.07 1482.55 Q1333.71 1482.55 1335.51 1479.01 Q1337.34 1475.44 1337.34 1468.33 Q1337.34 1461.2 1335.51 1457.66 Q1333.71 1454.1 1330.07 1454.1 M1330.07 1450.39 Q1335.88 1450.39 1338.94 1455 Q1342.02 1459.58 1342.02 1468.33 Q1342.02 1477.06 1338.94 1481.67 Q1335.88 1486.25 1330.07 1486.25 Q1324.26 1486.25 1321.18 1481.67 Q1318.13 1477.06 1318.13 1468.33 Q1318.13 1459.58 1321.18 1455 Q1324.26 1450.39 1330.07 1450.39 Z" fill="#000000" fill-rule="nonzero" fill-opacity="1" /><path clip-path="url(#clip370)" d="M1754.02 1451.02 L1776.24 1451.02 L1776.24 1453.01 L1763.69 1485.58 L1758.81 1485.58 L1770.61 1454.96 L1754.02 1454.96 L1754.02 1451.02 Z" fill="#000000" fill-rule="nonzero" fill-opacity="1" /><path clip-path="url(#clip370)" d="M1785.41 1451.02 L1803.76 1451.02 L1803.76 1454.96 L1789.69 1454.96 L1789.69 1463.43 Q1790.71 1463.08 1791.72 1462.92 Q1792.74 1462.73 1793.76 1462.73 Q1799.55 1462.73 1802.93 1465.9 Q1806.31 1469.08 1806.31 1474.49 Q1806.31 1480.07 1802.84 1483.17 Q1799.36 1486.25 1793.04 1486.25 Q1790.87 1486.25 1788.6 1485.88 Q1786.35 1485.51 1783.95 1484.77 L1783.95 1480.07 Q1786.03 1481.2 1788.25 1481.76 Q1790.47 1482.32 1792.95 1482.32 Q1796.96 1482.32 1799.29 1480.21 Q1801.63 1478.1 1801.63 1474.49 Q1801.63 1470.88 1799.29 1468.77 Q1796.96 1466.67 1792.95 1466.67 Q1791.08 1466.67 1789.2 1467.08 Q1787.35 1467.5 1785.41 1468.38 L1785.41 1451.02 Z" fill="#000000" fill-rule="nonzero" fill-opacity="1" /><path clip-path="url(#clip370)" d="M1825.52 1454.1 Q1821.91 1454.1 1820.08 1457.66 Q1818.28 1461.2 1818.28 1468.33 Q1818.28 1475.44 1820.08 1479.01 Q1821.91 1482.55 1825.52 1482.55 Q1829.16 1482.55 1830.96 1479.01 Q1832.79 1475.44 1832.79 1468.33 Q1832.79 1461.2 1830.96 1457.66 Q1829.16 1454.1 1825.52 1454.1 M1825.52 1450.39 Q1831.33 1450.39 1834.39 1455 Q1837.47 1459.58 1837.47 1468.33 Q1837.47 1477.06 1834.39 1481.67 Q1831.33 1486.25 1825.52 1486.25 Q1819.71 1486.25 1816.63 1481.67 Q1813.58 1477.06 1813.58 1468.33 Q1813.58 1459.58 1816.63 1455 Q1819.71 1450.39 1825.52 1450.39 Z" fill="#000000" fill-rule="nonzero" fill-opacity="1" /><path clip-path="url(#clip370)" d="M2235.83 1481.64 L2243.47 1481.64 L2243.47 1455.28 L2235.16 1456.95 L2235.16 1452.69 L2243.42 1451.02 L2248.1 1451.02 L2248.1 1481.64 L2255.74 1481.64 L2255.74 1485.58 L2235.83 1485.58 L2235.83 1481.64 Z" fill="#000000" fill-rule="nonzero" fill-opacity="1" /><path clip-path="url(#clip370)" d="M2275.18 1454.1 Q2271.57 1454.1 2269.74 1457.66 Q2267.94 1461.2 2267.94 1468.33 Q2267.94 1475.44 2269.74 1479.01 Q2271.57 1482.55 2275.18 1482.55 Q2278.82 1482.55 2280.62 1479.01 Q2282.45 1475.44 2282.45 1468.33 Q2282.45 1461.2 2280.62 1457.66 Q2278.82 1454.1 2275.18 1454.1 M2275.18 1450.39 Q2280.99 1450.39 2284.05 1455 Q2287.13 1459.58 2287.13 1468.33 Q2287.13 1477.06 2284.05 1481.67 Q2280.99 1486.25 2275.18 1486.25 Q2269.37 1486.25 2266.29 1481.67 Q2263.24 1477.06 2263.24 1468.33 Q2263.24 1459.58 2266.29 1455 Q2269.37 1450.39 2275.18 1450.39 Z" fill="#000000" fill-rule="nonzero" fill-opacity="1" /><path clip-path="url(#clip370)" d="M2305.35 1454.1 Q2301.73 1454.1 2299.91 1457.66 Q2298.1 1461.2 2298.1 1468.33 Q2298.1 1475.44 2299.91 1479.01 Q2301.73 1482.55 2305.35 1482.55 Q2308.98 1482.55 2310.78 1479.01 Q2312.61 1475.44 2312.61 1468.33 Q2312.61 1461.2 2310.78 1457.66 Q2308.98 1454.1 2305.35 1454.1 M2305.35 1450.39 Q2311.16 1450.39 2314.21 1455 Q2317.29 1459.58 2317.29 1468.33 Q2317.29 1477.06 2314.21 1481.67 Q2311.16 1486.25 2305.35 1486.25 Q2299.53 1486.25 2296.46 1481.67 Q2293.4 1477.06 2293.4 1468.33 Q2293.4 1459.58 2296.46 1455 Q2299.53 1450.39 2305.35 1450.39 Z" fill="#000000" fill-rule="nonzero" fill-opacity="1" /><path clip-path="url(#clip370)" d="M2335.51 1454.1 Q2331.9 1454.1 2330.07 1457.66 Q2328.26 1461.2 2328.26 1468.33 Q2328.26 1475.44 2330.07 1479.01 Q2331.9 1482.55 2335.51 1482.55 Q2339.14 1482.55 2340.95 1479.01 Q2342.78 1475.44 2342.78 1468.33 Q2342.78 1461.2 2340.95 1457.66 Q2339.14 1454.1 2335.51 1454.1 M2335.51 1450.39 Q2341.32 1450.39 2344.37 1455 Q2347.45 1459.58 2347.45 1468.33 Q2347.45 1477.06 2344.37 1481.67 Q2341.32 1486.25 2335.51 1486.25 Q2329.7 1486.25 2326.62 1481.67 Q2323.56 1477.06 2323.56 1468.33 Q2323.56 1459.58 2326.62 1455 Q2329.7 1450.39 2335.51 1450.39 Z" fill="#000000" fill-rule="nonzero" fill-opacity="1" /><path clip-path="url(#clip370)" d="M1286.34 1518.52 L1292.23 1518.52 L1292.23 1547.77 L1309.7 1532.4 L1317.18 1532.4 L1298.27 1549.07 L1317.98 1568.04 L1310.34 1568.04 L1292.23 1550.63 L1292.23 1568.04 L1286.34 1568.04 L1286.34 1518.52 Z" fill="#000000" fill-rule="nonzero" fill-opacity="1" /><polyline clip-path="url(#clip372)" style="stroke:#000000; stroke-linecap:round; stroke-linejoin:round; stroke-width:2; stroke-opacity:0.1; fill:none" points="251.56,1013.23 2352.76,1013.23 "/>
<polyline clip-path="url(#clip372)" style="stroke:#000000; stroke-linecap:round; stroke-linejoin:round; stroke-width:2; stroke-opacity:0.1; fill:none" points="251.56,482.399 2352.76,482.399 "/>
<polyline clip-path="url(#clip370)" style="stroke:#000000; stroke-linecap:round; stroke-linejoin:round; stroke-width:4; stroke-opacity:1; fill:none" points="251.56,1423.18 251.56,123.472 "/>
<polyline clip-path="url(#clip370)" style="stroke:#000000; stroke-linecap:round; stroke-linejoin:round; stroke-width:4; stroke-opacity:1; fill:none" points="251.56,1013.23 270.458,1013.23 "/>
<polyline clip-path="url(#clip370)" style="stroke:#000000; stroke-linecap:round; stroke-linejoin:round; stroke-width:4; stroke-opacity:1; fill:none" points="251.56,482.399 270.458,482.399 "/>
<path clip-path="url(#clip370)" d="M114.931 1033.02 L122.57 1033.02 L122.57 1006.66 L114.26 1008.32 L114.26 1004.06 L122.524 1002.4 L127.2 1002.4 L127.2 1033.02 L134.839 1033.02 L134.839 1036.96 L114.931 1036.96 L114.931 1033.02 Z" fill="#000000" fill-rule="nonzero" fill-opacity="1" /><path clip-path="url(#clip370)" d="M154.283 1005.48 Q150.672 1005.48 148.843 1009.04 Q147.038 1012.58 147.038 1019.71 Q147.038 1026.82 148.843 1030.38 Q150.672 1033.93 154.283 1033.93 Q157.917 1033.93 159.723 1030.38 Q161.552 1026.82 161.552 1019.71 Q161.552 1012.58 159.723 1009.04 Q157.917 1005.48 154.283 1005.48 M154.283 1001.77 Q160.093 1001.77 163.149 1006.38 Q166.227 1010.96 166.227 1019.71 Q166.227 1028.44 163.149 1033.05 Q160.093 1037.63 154.283 1037.63 Q148.473 1037.63 145.394 1033.05 Q142.339 1028.44 142.339 1019.71 Q142.339 1010.96 145.394 1006.38 Q148.473 1001.77 154.283 1001.77 Z" fill="#000000" fill-rule="nonzero" fill-opacity="1" /><path clip-path="url(#clip370)" d="M166.227 995.874 L190.339 995.874 L190.339 999.071 L166.227 999.071 L166.227 995.874 Z" fill="#000000" fill-rule="nonzero" fill-opacity="1" /><path clip-path="url(#clip370)" d="M198.577 981.467 L213.491 981.467 L213.491 984.665 L202.056 984.665 L202.056 991.548 Q202.884 991.266 203.711 991.135 Q204.539 990.984 205.366 990.984 Q210.068 990.984 212.814 993.561 Q215.56 996.137 215.56 1000.54 Q215.56 1005.07 212.739 1007.59 Q209.918 1010.09 204.783 1010.09 Q203.015 1010.09 201.172 1009.79 Q199.348 1009.49 197.392 1008.89 L197.392 1005.07 Q199.085 1005.99 200.89 1006.44 Q202.696 1006.9 204.708 1006.9 Q207.962 1006.9 209.861 1005.18 Q211.761 1003.47 211.761 1000.54 Q211.761 997.604 209.861 995.893 Q207.962 994.181 204.708 994.181 Q203.185 994.181 201.661 994.52 Q200.157 994.859 198.577 995.573 L198.577 981.467 Z" fill="#000000" fill-rule="nonzero" fill-opacity="1" /><path clip-path="url(#clip370)" d="M144.855 502.192 L152.493 502.192 L152.493 475.826 L144.183 477.493 L144.183 473.234 L152.447 471.567 L157.123 471.567 L157.123 502.192 L164.762 502.192 L164.762 506.127 L144.855 506.127 L144.855 502.192 Z" fill="#000000" fill-rule="nonzero" fill-opacity="1" /><path clip-path="url(#clip370)" d="M184.206 474.646 Q180.595 474.646 178.766 478.211 Q176.961 481.752 176.961 488.882 Q176.961 495.988 178.766 499.553 Q180.595 503.095 184.206 503.095 Q187.84 503.095 189.646 499.553 Q191.475 495.988 191.475 488.882 Q191.475 481.752 189.646 478.211 Q187.84 474.646 184.206 474.646 M184.206 470.942 Q190.016 470.942 193.072 475.549 Q196.151 480.132 196.151 488.882 Q196.151 497.609 193.072 502.215 Q190.016 506.798 184.206 506.798 Q178.396 506.798 175.317 502.215 Q172.262 497.609 172.262 488.882 Q172.262 480.132 175.317 475.549 Q178.396 470.942 184.206 470.942 Z" fill="#000000" fill-rule="nonzero" fill-opacity="1" /><path clip-path="url(#clip370)" d="M205.855 453.138 Q202.921 453.138 201.436 456.034 Q199.969 458.912 199.969 464.705 Q199.969 470.479 201.436 473.375 Q202.921 476.253 205.855 476.253 Q208.808 476.253 210.275 473.375 Q211.761 470.479 211.761 464.705 Q211.761 458.912 210.275 456.034 Q208.808 453.138 205.855 453.138 M205.855 450.129 Q210.576 450.129 213.059 453.872 Q215.56 457.596 215.56 464.705 Q215.56 471.795 213.059 475.538 Q210.576 479.262 205.855 479.262 Q201.135 479.262 198.633 475.538 Q196.151 471.795 196.151 464.705 Q196.151 457.596 198.633 453.872 Q201.135 450.129 205.855 450.129 Z" fill="#000000" fill-rule="nonzero" fill-opacity="1" /><path clip-path="url(#clip370)" d="M45.7664 817.313 Q39.4007 817.313 35.8996 819.955 Q32.3984 822.565 32.3984 827.307 Q32.3984 832.018 35.8996 834.66 Q39.4007 837.27 45.7664 837.27 Q52.1003 837.27 55.6014 834.66 Q59.1026 832.018 59.1026 827.307 Q59.1026 822.565 55.6014 819.955 Q52.1003 817.313 45.7664 817.313 M59.58 811.457 Q68.683 811.457 73.1071 815.499 Q77.5631 819.541 77.5631 827.88 Q77.5631 830.967 77.0857 833.705 Q76.6401 836.442 75.6852 839.02 L69.9879 839.02 Q71.3884 836.442 72.0568 833.928 Q72.7252 831.413 72.7252 828.803 Q72.7252 823.042 69.7015 820.178 Q66.7096 817.313 60.6303 817.313 L57.7339 817.313 Q60.885 819.127 62.4446 821.96 Q64.0042 824.793 64.0042 828.739 Q64.0042 835.296 59.0071 839.307 Q54.01 843.317 45.7664 843.317 Q37.491 843.317 32.4939 839.307 Q27.4968 835.296 27.4968 828.739 Q27.4968 824.793 29.0564 821.96 Q30.616 819.127 33.7671 817.313 L28.3562 817.313 L28.3562 811.457 L59.58 811.457 Z" fill="#000000" fill-rule="nonzero" fill-opacity="1" /><path clip-path="url(#clip370)" d="M33.8307 778.737 Q33.2578 779.724 33.0032 780.901 Q32.7167 782.047 32.7167 783.447 Q32.7167 788.413 35.9632 791.086 Q39.1779 793.728 45.2253 793.728 L64.0042 793.728 L64.0042 799.616 L28.3562 799.616 L28.3562 793.728 L33.8944 793.728 Q30.6479 791.882 29.0883 788.922 Q27.4968 785.962 27.4968 781.729 Q27.4968 781.124 27.5923 780.392 Q27.656 779.66 27.8151 778.769 L33.8307 778.737 Z" fill="#000000" fill-rule="nonzero" fill-opacity="1" /><path clip-path="url(#clip370)" d="M46.0847 756.393 Q46.0847 763.491 47.7079 766.228 Q49.3312 768.965 53.2461 768.965 Q56.3653 768.965 58.2114 766.928 Q60.0256 764.86 60.0256 761.327 Q60.0256 756.457 56.5881 753.529 Q53.1188 750.569 47.3897 750.569 L46.0847 750.569 L46.0847 756.393 M43.6657 744.712 L64.0042 744.712 L64.0042 750.569 L58.5933 750.569 Q61.8398 752.574 63.3994 755.566 Q64.9272 758.558 64.9272 762.886 Q64.9272 768.361 61.8716 771.607 Q58.7843 774.822 53.6281 774.822 Q47.6125 774.822 44.5569 770.812 Q41.5014 766.769 41.5014 758.78 L41.5014 750.569 L40.9285 750.569 Q36.8862 750.569 34.6901 753.242 Q32.4621 755.884 32.4621 760.69 Q32.4621 763.746 33.1941 766.642 Q33.9262 769.538 35.3903 772.212 L29.9795 772.212 Q28.7381 768.997 28.1334 765.974 Q27.4968 762.95 27.4968 760.085 Q27.4968 752.351 31.5072 748.532 Q35.5176 744.712 43.6657 744.712 Z" fill="#000000" fill-rule="nonzero" fill-opacity="1" /><path clip-path="url(#clip370)" d="M33.7671 709.191 L14.479 709.191 L14.479 703.335 L64.0042 703.335 L64.0042 709.191 L58.657 709.191 Q61.8398 711.038 63.3994 713.87 Q64.9272 716.671 64.9272 720.618 Q64.9272 727.079 59.771 731.153 Q54.6147 735.195 46.212 735.195 Q37.8093 735.195 32.6531 731.153 Q27.4968 727.079 27.4968 720.618 Q27.4968 716.671 29.0564 713.87 Q30.5842 711.038 33.7671 709.191 M46.212 729.148 Q52.6732 729.148 56.3653 726.506 Q60.0256 723.833 60.0256 719.186 Q60.0256 714.539 56.3653 711.865 Q52.6732 709.191 46.212 709.191 Q39.7508 709.191 36.0905 711.865 Q32.3984 714.539 32.3984 719.186 Q32.3984 723.833 36.0905 726.506 Q39.7508 729.148 46.212 729.148 Z" fill="#000000" fill-rule="nonzero" fill-opacity="1" /><path clip-path="url(#clip370)" d="M957.062 65.7705 L957.062 89.8329 L949.567 89.8329 L949.567 27.2059 L957.062 27.2059 L957.062 34.0924 Q959.411 30.0415 962.976 28.0971 Q966.581 26.1121 971.564 26.1121 Q979.828 26.1121 984.972 32.6746 Q990.157 39.2371 990.157 49.9314 Q990.157 60.6258 984.972 67.1883 Q979.828 73.7508 971.564 73.7508 Q966.581 73.7508 962.976 71.8063 Q959.411 69.8214 957.062 65.7705 M982.42 49.9314 Q982.42 41.7081 979.017 37.0496 Q975.655 32.3505 969.741 32.3505 Q963.827 32.3505 960.424 37.0496 Q957.062 41.7081 957.062 49.9314 Q957.062 58.1548 960.424 62.8538 Q963.827 67.5124 969.741 67.5124 Q975.655 67.5124 979.017 62.8538 Q982.42 58.1548 982.42 49.9314 Z" fill="#000000" fill-rule="nonzero" fill-opacity="1" /><path clip-path="url(#clip370)" d="M1028.8 34.1734 Q1027.55 33.4443 1026.05 33.1202 Q1024.59 32.7556 1022.81 32.7556 Q1016.49 32.7556 1013.09 36.8875 Q1009.72 40.9789 1009.72 48.6757 L1009.72 72.576 L1002.23 72.576 L1002.23 27.2059 L1009.72 27.2059 L1009.72 34.2544 Q1012.07 30.1225 1015.84 28.1376 Q1019.61 26.1121 1025 26.1121 Q1025.76 26.1121 1026.7 26.2337 Q1027.63 26.3147 1028.76 26.5172 L1028.8 34.1734 Z" fill="#000000" fill-rule="nonzero" fill-opacity="1" /><path clip-path="url(#clip370)" d="M1052.38 32.4315 Q1046.38 32.4315 1042.9 37.1306 Q1039.42 41.7891 1039.42 49.9314 Q1039.42 58.0738 1042.86 62.7728 Q1046.34 67.4314 1052.38 67.4314 Q1058.33 67.4314 1061.82 62.7323 Q1065.3 58.0333 1065.3 49.9314 Q1065.3 41.8701 1061.82 37.1711 Q1058.33 32.4315 1052.38 32.4315 M1052.38 26.1121 Q1062.1 26.1121 1067.65 32.4315 Q1073.2 38.7509 1073.2 49.9314 Q1073.2 61.0714 1067.65 67.4314 Q1062.1 73.7508 1052.38 73.7508 Q1042.62 73.7508 1037.07 67.4314 Q1031.56 61.0714 1031.56 49.9314 Q1031.56 38.7509 1037.07 32.4315 Q1042.62 26.1121 1052.38 26.1121 Z" fill="#000000" fill-rule="nonzero" fill-opacity="1" /><path clip-path="url(#clip370)" d="M1118.13 49.9314 Q1118.13 41.7081 1114.72 37.0496 Q1111.36 32.3505 1105.45 32.3505 Q1099.53 32.3505 1096.13 37.0496 Q1092.77 41.7081 1092.77 49.9314 Q1092.77 58.1548 1096.13 62.8538 Q1099.53 67.5124 1105.45 67.5124 Q1111.36 67.5124 1114.72 62.8538 Q1118.13 58.1548 1118.13 49.9314 M1092.77 34.0924 Q1095.12 30.0415 1098.68 28.0971 Q1102.29 26.1121 1107.27 26.1121 Q1115.53 26.1121 1120.68 32.6746 Q1125.86 39.2371 1125.86 49.9314 Q1125.86 60.6258 1120.68 67.1883 Q1115.53 73.7508 1107.27 73.7508 Q1102.29 73.7508 1098.68 71.8063 Q1095.12 69.8214 1092.77 65.7705 L1092.77 72.576 L1085.27 72.576 L1085.27 9.54393 L1092.77 9.54393 L1092.77 34.0924 Z" fill="#000000" fill-rule="nonzero" fill-opacity="1" /><path clip-path="url(#clip370)" d="M1138.22 9.54393 L1145.67 9.54393 L1145.67 72.576 L1138.22 72.576 L1138.22 9.54393 Z" fill="#000000" fill-rule="nonzero" fill-opacity="1" /><path clip-path="url(#clip370)" d="M1200.08 48.0275 L1200.08 51.6733 L1165.8 51.6733 Q1166.29 59.3701 1170.42 63.421 Q1174.6 67.4314 1182.01 67.4314 Q1186.3 67.4314 1190.31 66.3781 Q1194.36 65.3249 1198.33 63.2184 L1198.33 70.267 Q1194.32 71.9684 1190.11 72.8596 Q1185.9 73.7508 1181.56 73.7508 Q1170.71 73.7508 1164.35 67.4314 Q1158.03 61.1119 1158.03 50.3365 Q1158.03 39.1965 1164.02 32.6746 Q1170.06 26.1121 1180.27 26.1121 Q1189.42 26.1121 1194.73 32.0264 Q1200.08 37.9003 1200.08 48.0275 M1192.62 45.84 Q1192.54 39.7232 1189.18 36.0774 Q1185.86 32.4315 1180.35 32.4315 Q1174.11 32.4315 1170.34 35.9558 Q1166.61 39.4801 1166.05 45.8805 L1192.62 45.84 M1173.95 6.22219 L1185.37 21.3726 L1179.17 21.3726 L1165.97 6.22219 L1173.95 6.22219 Z" fill="#000000" fill-rule="nonzero" fill-opacity="1" /><path clip-path="url(#clip370)" d="M1247.63 35.9153 Q1250.43 30.8922 1254.32 28.5022 Q1258.21 26.1121 1263.47 26.1121 Q1270.56 26.1121 1274.41 31.0947 Q1278.26 36.0368 1278.26 45.1919 L1278.26 72.576 L1270.76 72.576 L1270.76 45.4349 Q1270.76 38.913 1268.45 35.7533 Q1266.15 32.5936 1261.41 32.5936 Q1255.61 32.5936 1252.25 36.4419 Q1248.89 40.2903 1248.89 46.9338 L1248.89 72.576 L1241.39 72.576 L1241.39 45.4349 Q1241.39 38.8725 1239.09 35.7533 Q1236.78 32.5936 1231.96 32.5936 Q1226.24 32.5936 1222.88 36.4824 Q1219.52 40.3308 1219.52 46.9338 L1219.52 72.576 L1212.03 72.576 L1212.03 27.2059 L1219.52 27.2059 L1219.52 34.2544 Q1222.07 30.082 1225.64 28.0971 Q1229.2 26.1121 1234.1 26.1121 Q1239.04 26.1121 1242.49 28.6237 Q1245.97 31.1352 1247.63 35.9153 Z" fill="#000000" fill-rule="nonzero" fill-opacity="1" /><path clip-path="url(#clip370)" d="M1331.93 48.0275 L1331.93 51.6733 L1297.66 51.6733 Q1298.15 59.3701 1302.28 63.421 Q1306.45 67.4314 1313.87 67.4314 Q1318.16 67.4314 1322.17 66.3781 Q1326.22 65.3249 1330.19 63.2184 L1330.19 70.267 Q1326.18 71.9684 1321.97 72.8596 Q1317.75 73.7508 1313.42 73.7508 Q1302.56 73.7508 1296.2 67.4314 Q1289.88 61.1119 1289.88 50.3365 Q1289.88 39.1965 1295.88 32.6746 Q1301.92 26.1121 1312.12 26.1121 Q1321.28 26.1121 1326.59 32.0264 Q1331.93 37.9003 1331.93 48.0275 M1324.48 45.84 Q1324.4 39.7232 1321.04 36.0774 Q1317.71 32.4315 1312.2 32.4315 Q1305.97 32.4315 1302.2 35.9558 Q1298.47 39.4801 1297.9 45.8805 L1324.48 45.84 Z" fill="#000000" fill-rule="nonzero" fill-opacity="1" /><path clip-path="url(#clip370)" d="M1372.44 62.2867 L1380.99 62.2867 L1380.99 72.576 L1372.44 72.576 L1372.44 62.2867 M1372.44 29.6769 L1380.99 29.6769 L1380.99 39.9662 L1372.44 39.9662 L1372.44 29.6769 Z" fill="#000000" fill-rule="nonzero" fill-opacity="1" /><path clip-path="url(#clip370)" d="M1432.23 14.324 L1432.23 27.2059 L1447.59 27.2059 L1447.59 32.9987 L1432.23 32.9987 L1432.23 57.6282 Q1432.23 63.1779 1433.73 64.7578 Q1435.27 66.3376 1439.93 66.3376 L1447.59 66.3376 L1447.59 72.576 L1439.93 72.576 Q1431.3 72.576 1428.02 69.3758 Q1424.74 66.1351 1424.74 57.6282 L1424.74 32.9987 L1419.27 32.9987 L1419.27 27.2059 L1424.74 27.2059 L1424.74 14.324 L1432.23 14.324 Z" fill="#000000" fill-rule="nonzero" fill-opacity="1" /><path clip-path="url(#clip370)" d="M1464.6 65.7705 L1464.6 89.8329 L1457.11 89.8329 L1457.11 27.2059 L1464.6 27.2059 L1464.6 34.0924 Q1466.95 30.0415 1470.51 28.0971 Q1474.12 26.1121 1479.1 26.1121 Q1487.37 26.1121 1492.51 32.6746 Q1497.7 39.2371 1497.7 49.9314 Q1497.7 60.6258 1492.51 67.1883 Q1487.37 73.7508 1479.1 73.7508 Q1474.12 73.7508 1470.51 71.8063 Q1466.95 69.8214 1464.6 65.7705 M1489.96 49.9314 Q1489.96 41.7081 1486.56 37.0496 Q1483.19 32.3505 1477.28 32.3505 Q1471.36 32.3505 1467.96 37.0496 Q1464.6 41.7081 1464.6 49.9314 Q1464.6 58.1548 1467.96 62.8538 Q1471.36 67.5124 1477.28 67.5124 Q1483.19 67.5124 1486.56 62.8538 Q1489.96 58.1548 1489.96 49.9314 Z" fill="#000000" fill-rule="nonzero" fill-opacity="1" /><path clip-path="url(#clip370)" d="M1518.15 65.6895 L1546.71 65.6895 L1546.71 72.576 L1508.31 72.576 L1508.31 65.6895 Q1512.97 60.8689 1520.99 52.7671 Q1529.05 44.6248 1531.12 42.2752 Q1535.04 37.8598 1536.58 34.8216 Q1538.16 31.7429 1538.16 28.7857 Q1538.16 23.9651 1534.76 20.927 Q1531.4 17.8888 1525.97 17.8888 Q1522.12 17.8888 1517.83 19.2256 Q1513.57 20.5624 1508.71 23.2765 L1508.71 15.0127 Q1513.66 13.0277 1517.95 12.015 Q1522.24 11.0023 1525.81 11.0023 Q1535.21 11.0023 1540.8 15.7013 Q1546.39 20.4004 1546.39 28.2591 Q1546.39 31.9859 1544.97 35.3482 Q1543.59 38.6699 1539.91 43.2069 Q1538.89 44.3817 1533.46 50.0125 Q1528.04 55.6027 1518.15 65.6895 Z" fill="#000000" fill-rule="nonzero" fill-opacity="1" /><path clip-path="url(#clip370)" d="M1570.94 65.6895 L1599.49 65.6895 L1599.49 72.576 L1561.09 72.576 L1561.09 65.6895 Q1565.75 60.8689 1573.77 52.7671 Q1581.83 44.6248 1583.9 42.2752 Q1587.83 37.8598 1589.37 34.8216 Q1590.95 31.7429 1590.95 28.7857 Q1590.95 23.9651 1587.54 20.927 Q1584.18 17.8888 1578.75 17.8888 Q1574.91 17.8888 1570.61 19.2256 Q1566.36 20.5624 1561.5 23.2765 L1561.5 15.0127 Q1566.44 13.0277 1570.73 12.015 Q1575.03 11.0023 1578.59 11.0023 Q1587.99 11.0023 1593.58 15.7013 Q1599.17 20.4004 1599.17 28.2591 Q1599.17 31.9859 1597.75 35.3482 Q1596.38 38.6699 1592.69 43.2069 Q1591.68 44.3817 1586.25 50.0125 Q1580.82 55.6027 1570.94 65.6895 Z" fill="#000000" fill-rule="nonzero" fill-opacity="1" /><path clip-path="url(#clip370)" d="M1616.91 71.3202 L1616.91 63.8666 Q1619.99 65.3249 1623.15 66.0946 Q1626.31 66.8642 1629.35 66.8642 Q1637.45 66.8642 1641.7 61.436 Q1646 55.9673 1646.61 44.8678 Q1644.26 48.3516 1640.65 50.215 Q1637.05 52.0784 1632.67 52.0784 Q1623.6 52.0784 1618.29 46.6097 Q1613.02 41.1005 1613.02 31.5808 Q1613.02 22.2638 1618.53 16.633 Q1624.04 11.0023 1633.2 11.0023 Q1643.69 11.0023 1649.2 19.0636 Q1654.75 27.0843 1654.75 42.3968 Q1654.75 56.6965 1647.94 65.2439 Q1641.18 73.7508 1629.71 73.7508 Q1626.64 73.7508 1623.48 73.1431 Q1620.32 72.5355 1616.91 71.3202 M1633.2 45.678 Q1638.71 45.678 1641.91 41.9107 Q1645.15 38.1433 1645.15 31.5808 Q1645.15 25.0589 1641.91 21.2916 Q1638.71 17.4837 1633.2 17.4837 Q1627.69 17.4837 1624.45 21.2916 Q1621.25 25.0589 1621.25 31.5808 Q1621.25 38.1433 1624.45 41.9107 Q1627.69 45.678 1633.2 45.678 Z" fill="#000000" fill-rule="nonzero" fill-opacity="1" /><polyline clip-path="url(#clip372)" style="stroke:#009af9; stroke-linecap:round; stroke-linejoin:round; stroke-width:4; stroke-opacity:1; fill:none" points="311.028,263.052 313.01,160.256 314.993,160.256 316.975,160.256 318.957,160.256 320.939,160.256 322.922,160.256 324.904,160.256 326.886,301.049 328.868,284.451 330.851,583.29 332.833,583.29 334.815,583.29 336.797,583.29 338.78,667.612 340.762,670.736 342.744,670.736 344.726,670.901 346.709,671.222 348.691,671.86 350.673,671.86 352.656,671.989 354.638,672.245 356.62,672.755 358.602,672.755 360.585,672.858 362.567,673.063 364.549,673.471 366.531,674.283 368.514,674.283 370.496,674.447 372.478,674.773 374.46,675.422 376.443,675.422 378.425,675.553 380.407,675.814 382.389,676.333 384.372,676.333 386.354,676.438 388.336,676.646 390.318,677.062 392.301,677.888 394.283,677.888 396.265,678.055 398.247,678.387 400.23,679.048 402.212,679.048 404.194,679.181 406.177,679.446 408.159,679.975 410.141,679.975 412.123,680.081 414.106,680.293 416.088,680.716 418.07,681.557 420.052,681.557 422.035,681.727 424.017,682.065 425.999,682.738 427.981,682.738 429.964,682.874 431.946,683.144 433.928,683.682 435.91,683.682 437.893,683.79 439.875,684.006 441.857,684.437 443.839,685.293 445.822,685.293 447.804,685.466 449.786,685.811 451.769,686.496 453.751,686.496 455.733,686.634 457.715,686.909 459.698,687.457 461.68,687.457 463.662,687.568 465.644,687.788 467.627,688.226 469.609,688.226 471.591,688.315 473.573,688.49 475.556,688.841 477.538,689.54 479.52,689.54 481.502,689.681 483.485,689.962 485.467,690.521 487.449,690.521 489.431,690.633 491.414,690.858 493.396,691.305 495.378,691.305 497.36,691.395 499.343,691.575 501.325,691.933 503.307,692.645 505.29,692.645 507.272,692.789 509.254,693.075 511.236,693.646 513.219,693.646 515.201,693.76 517.183,693.989 519.165,694.446 521.148,694.446 523.13,694.537 525.112,694.72 527.094,695.086 529.077,695.813 531.059,695.813 533.041,695.959 535.023,696.251 537.006,696.833 538.988,696.833 540.97,696.95 542.952,697.184 544.935,697.65 546.917,697.65 548.899,697.743 550.882,697.93 552.864,698.303 554.846,699.044 556.828,699.044 558.811,699.194 560.793,699.492 562.775,700.086 564.757,700.086 566.74,700.205 568.722,700.443 570.704,700.919 572.686,700.919 574.669,701.014 576.651,701.205 578.633,701.585 580.615,702.342 582.598,702.342 584.58,702.495 586.562,702.799 588.544,703.405 590.527,703.405 592.509,703.527 594.491,703.77 596.474,704.255 598.456,704.255 600.438,704.352 602.42,704.547 604.403,704.935 606.385,705.708 608.367,705.708 610.349,705.863 612.332,706.174 614.314,706.792 616.296,706.792 618.278,706.917 620.261,707.165 622.243,707.66 624.225,707.66 626.207,707.759 628.19,707.958 630.172,708.354 632.154,709.143 634.136,709.143 636.119,709.302 638.101,709.619 640.083,710.25 642.065,710.25 644.048,710.377 646.03,710.631 648.012,711.136 649.995,711.136 651.977,711.238 653.959,711.441 655.941,711.845 657.924,712.65 659.906,712.65 661.888,712.813 663.87,713.136 665.853,713.781 667.835,713.781 669.817,713.91 671.799,714.169 673.782,714.685 675.764,714.685 677.746,714.789 679.728,714.996 681.711,715.409 683.693,716.231 685.675,716.231 687.657,716.397 689.64,716.728 691.622,717.386 693.604,717.386 695.587,717.518 697.569,717.783 699.551,718.31 701.533,718.31 703.516,718.416 705.498,718.627 707.48,719.049 709.462,719.049 711.445,719.134 713.427,719.303 715.409,719.64 717.391,720.313 719.374,720.313 721.356,720.448 723.338,720.719 725.32,721.257 727.303,721.257 729.285,721.365 731.267,721.582 733.249,722.013 735.232,722.013 737.214,722.099 739.196,722.272 741.178,722.617 743.161,723.305 745.143,723.305 747.125,723.443 749.108,723.719 751.09,724.269 753.072,724.269 755.054,724.38 757.037,724.601 759.019,725.041 761.001,725.041 762.983,725.13 764.966,725.307 766.948,725.659 768.93,726.362 770.912,726.362 772.895,726.503 774.877,726.785 776.859,727.348 778.841,727.348 780.824,727.461 782.806,727.687 784.788,728.137 786.77,728.137 788.753,728.227 790.735,728.408 792.717,728.768 794.7,729.486 796.682,729.486 798.664,729.631 800.646,729.919 802.629,730.494 804.611,730.494 806.593,730.61 808.575,730.84 810.558,731.301 812.54,731.301 814.522,731.393 816.504,731.578 818.487,731.946 820.469,732.68 822.451,732.68 824.433,732.828 826.416,733.123 828.398,733.71 830.38,733.71 832.362,733.828 834.345,734.064 836.327,734.535 838.309,734.535 840.291,734.629 842.274,734.818 844.256,735.195 846.238,735.945 848.221,735.945 850.203,736.096 852.185,736.397 854.167,736.998 856.15,736.998 858.132,737.119 860.114,737.36 862.096,737.841 864.079,737.841 866.061,737.938 868.043,738.131 870.025,738.516 872.008,739.282 873.99,739.282 875.972,739.437 877.954,739.745 879.937,740.359 881.919,740.359 883.901,740.483 885.883,740.729 887.866,741.221 889.848,741.221 891.83,741.32 893.813,741.517 895.795,741.911 897.777,742.695 899.759,742.695 901.742,742.852 903.724,743.167 905.706,743.795 907.688,743.795 909.671,743.922 911.653,744.174 913.635,744.677 915.617,744.677 917.6,744.778 919.582,744.979 921.564,745.382 923.546,746.183 925.529,746.183 927.511,746.345 929.493,746.667 931.475,747.309 933.458,747.309 935.44,747.438 937.422,747.696 939.404,748.21 941.387,748.21 943.369,748.313 945.351,748.519 947.334,748.931 949.316,749.751 951.298,749.751 953.28,749.916 955.263,750.245 957.245,750.902 959.227,750.902 961.209,751.034 963.192,751.297 965.174,751.823 967.156,751.823 969.138,751.929 971.121,752.14 973.103,752.56 975.085,752.56 977.067,752.645 979.05,752.814 981.032,753.151 983.014,753.822 984.996,753.822 986.979,753.957 988.961,754.227 990.943,754.765 992.926,754.765 994.908,754.873 996.89,755.089 998.872,755.519 1000.85,755.519 1002.84,755.606 1004.82,755.778 1006.8,756.123 1008.78,756.81 1010.77,756.81 1012.75,756.948 1014.73,757.224 1016.71,757.774 1018.69,757.774 1020.68,757.885 1022.66,758.105 1024.64,758.546 1026.62,758.546 1028.61,758.634 1030.59,758.811 1032.57,759.164 1034.55,759.866 1036.54,759.866 1038.52,760.007 1040.5,760.29 1042.48,760.852 1044.46,760.852 1046.45,760.965 1048.43,761.191 1050.41,761.642 1052.39,761.642 1054.38,761.732 1056.36,761.913 1058.34,762.274 1060.32,762.993 1062.3,762.993 1064.29,763.137 1066.27,763.426 1068.25,764.002 1070.23,764.002 1072.22,764.117 1074.2,764.348 1076.18,764.809 1078.16,764.809 1080.14,764.902 1082.13,765.087 1084.11,765.456 1086.09,766.191 1088.07,766.191 1090.06,766.339 1092.04,766.635 1094.02,767.223 1096,767.223 1097.99,767.342 1099.97,767.578 1101.95,768.05 1103.93,768.05 1105.91,768.145 1107.9,768.334 1109.88,768.711 1111.86,769.464 1113.84,769.464 1115.83,769.615 1117.81,769.917 1119.79,770.52 1121.77,770.52 1123.75,770.641 1125.74,770.883 1127.72,771.365 1129.7,771.365 1131.68,771.462 1133.67,771.656 1135.65,772.042 1137.63,772.811 1139.61,772.811 1141.6,772.966 1143.58,773.276 1145.56,773.892 1147.54,773.892 1149.52,774.016 1151.51,774.263 1153.49,774.757 1155.47,774.757 1157.45,774.856 1159.44,775.054 1161.42,775.45 1163.4,776.237 1165.38,776.237 1167.36,776.395 1169.35,776.712 1171.33,777.342 1173.31,777.342 1175.29,777.469 1177.28,777.723 1179.26,778.228 1181.24,778.228 1183.22,778.329 1185.2,778.532 1187.19,778.936 1189.17,779.742 1191.15,779.742 1193.13,779.904 1195.12,780.228 1197.1,780.873 1199.08,780.873 1201.06,781.003 1203.05,781.262 1205.03,781.779 1207.01,781.779 1208.99,781.882 1210.97,782.09 1212.96,782.504 1214.94,782.504 1216.92,782.587 1218.9,782.753 1220.89,783.084 1222.87,783.745 1224.85,783.745 1226.83,783.877 1228.81,784.143 1230.8,784.671 1232.78,784.671 1234.76,784.778 1236.74,784.99 1238.73,785.414 1240.71,785.414 1242.69,785.499 1244.67,785.668 1246.65,786.008 1248.64,786.683 1250.62,786.683 1252.6,786.819 1254.58,787.091 1256.57,787.632 1258.55,787.632 1260.53,787.741 1262.51,787.958 1264.5,788.391 1266.48,788.391 1268.46,788.478 1270.44,788.652 1272.42,788.999 1274.41,789.691 1276.39,789.691 1278.37,789.83 1280.35,790.108 1282.34,790.662 1284.32,790.662 1286.3,790.773 1288.28,790.995 1290.26,791.439 1292.25,791.439 1294.23,791.528 1296.21,791.706 1298.19,792.061 1300.18,792.769 1302.16,792.769 1304.14,792.911 1306.12,793.196 1308.1,793.763 1310.09,793.763 1312.07,793.877 1314.05,794.104 1316.03,794.558 1318.02,794.558 1320,794.649 1321.98,794.831 1323.96,795.195 1325.95,795.919 1327.93,795.919 1329.91,796.065 1331.89,796.356 1333.87,796.936 1335.86,796.936 1337.84,797.053 1339.82,797.286 1341.8,797.75 1343.79,797.75 1345.77,797.844 1347.75,798.03 1349.73,798.402 1351.71,799.143 1353.7,799.143 1355.68,799.293 1357.66,799.59 1359.64,800.184 1361.63,800.184 1363.61,800.304 1365.59,800.542 1367.57,801.018 1369.55,801.018 1371.54,801.113 1373.52,801.304 1375.5,801.685 1377.48,802.443 1379.47,802.443 1381.45,802.596 1383.43,802.901 1385.41,803.508 1387.4,803.508 1389.38,803.631 1391.36,803.875 1393.34,804.361 1395.32,804.361 1397.31,804.459 1399.29,804.655 1401.27,805.044 1403.25,805.821 1405.24,805.821 1407.22,805.977 1409.2,806.289 1411.18,806.911 1413.16,806.911 1415.15,807.036 1417.13,807.286 1419.11,807.784 1421.09,807.784 1423.08,807.884 1425.06,808.084 1427.04,808.483 1429.02,809.277 1431,809.277 1432.99,809.437 1434.97,809.757 1436.95,810.393 1438.93,810.393 1440.92,810.521 1442.9,810.777 1444.88,811.287 1446.86,811.287 1448.85,811.389 1450.83,811.594 1452.81,812.002 1454.79,812.815 1456.77,812.815 1458.76,812.979 1460.74,813.306 1462.72,813.958 1464.7,813.958 1466.69,814.089 1468.67,814.35 1470.65,814.872 1472.63,814.872 1474.61,814.977 1476.6,815.187 1478.58,815.605 1480.56,815.605 1482.54,815.689 1484.53,815.856 1486.51,816.191 1488.49,816.858 1490.47,816.858 1492.46,816.992 1494.44,817.26 1496.42,817.794 1498.4,817.794 1500.38,817.901 1502.37,818.116 1504.35,818.544 1506.33,818.544 1508.31,818.63 1510.3,818.801 1512.28,819.144 1514.26,819.826 1516.24,819.826 1518.22,819.964 1520.21,820.238 1522.19,820.785 1524.17,820.785 1526.15,820.895 1528.14,821.114 1530.12,821.552 1532.1,821.552 1534.08,821.64 1536.06,821.816 1538.05,822.167 1540.03,822.865 1542.01,822.865 1543.99,823.006 1545.98,823.287 1547.96,823.846 1549.94,823.846 1551.92,823.959 1553.91,824.184 1555.89,824.632 1557.87,824.632 1559.85,824.722 1561.83,824.902 1563.82,825.261 1565.8,825.976 1567.78,825.976 1569.76,826.12 1571.75,826.407 1573.73,826.98 1575.71,826.98 1577.69,827.096 1579.67,827.326 1581.66,827.785 1583.64,827.785 1585.62,827.877 1587.6,828.061 1589.59,828.428 1591.57,829.161 1593.55,829.161 1595.53,829.308 1597.51,829.602 1599.5,830.189 1601.48,830.189 1603.46,830.307 1605.44,830.542 1607.43,831.012 1609.41,831.012 1611.39,831.106 1613.37,831.295 1615.36,831.671 1617.34,832.42 1619.32,832.42 1621.3,832.571 1623.28,832.872 1625.27,833.473 1627.25,833.473 1629.23,833.594 1631.21,833.835 1633.2,834.316 1635.18,834.316 1637.16,834.412 1639.14,834.605 1641.12,834.99 1643.11,835.757 1645.09,835.757 1647.07,835.912 1649.05,836.22 1651.04,836.835 1653.02,836.835 1655,836.958 1656.98,837.205 1658.96,837.697 1660.95,837.697 1662.93,837.796 1664.91,837.994 1666.89,838.388 1668.88,839.173 1670.86,839.173 1672.84,839.331 1674.82,839.647 1676.81,840.276 1678.79,840.276 1680.77,840.403 1682.75,840.656 1684.73,841.16 1686.72,841.16 1688.7,841.261 1690.68,841.463 1692.66,841.867 1694.65,842.67 1696.63,842.67 1698.61,842.832 1700.59,843.155 1702.57,843.799 1704.56,843.799 1706.54,843.929 1708.52,844.188 1710.5,844.704 1712.49,844.704 1714.47,844.807 1716.45,845.014 1718.43,845.428 1720.41,845.428 1722.4,845.51 1724.38,845.676 1726.36,846.007 1728.34,846.666 1730.33,846.666 1732.31,846.799 1734.29,847.064 1736.27,847.592 1738.26,847.592 1740.24,847.698 1742.22,847.91 1744.2,848.333 1746.18,848.333 1748.17,848.418 1750.15,848.588 1752.13,848.926 1754.11,849.601 1756.1,849.601 1758.08,849.737 1760.06,850.008 1762.04,850.549 1764.02,850.549 1766.01,850.658 1767.99,850.875 1769.97,851.308 1771.95,851.308 1773.94,851.395 1775.92,851.568 1777.9,851.915 1779.88,852.606 1781.87,852.606 1783.85,852.745 1785.83,853.023 1787.81,853.576 1789.79,853.576 1791.78,853.688 1793.76,853.91 1795.74,854.353 1797.72,854.353 1799.71,854.442 1801.69,854.62 1803.67,854.975 1805.65,855.682 1807.63,855.682 1809.62,855.825 1811.6,856.109 1813.58,856.676 1815.56,856.676 1817.55,856.79 1819.53,857.017 1821.51,857.471 1823.49,857.471 1825.47,857.562 1827.46,857.744 1829.44,858.108 1831.42,858.832 1833.4,858.832 1835.39,858.977 1837.37,859.268 1839.35,859.849 1841.33,859.849 1843.32,859.965 1845.3,860.198 1847.28,860.663 1849.26,860.663 1851.24,860.756 1853.23,860.943 1855.21,861.315 1857.19,862.056 1859.17,862.056 1861.16,862.205 1863.14,862.503 1865.12,863.097 1867.1,863.097 1869.08,863.216 1871.07,863.455 1873.05,863.931 1875.03,863.931 1877.01,864.026 1879,864.217 1880.98,864.598 1882.96,865.357 1884.94,865.357 1886.92,865.51 1888.91,865.815 1890.89,866.423 1892.87,866.423 1894.85,866.545 1896.84,866.789 1898.82,867.276 1900.8,867.276 1902.78,867.374 1904.77,867.569 1906.75,867.959 1908.73,868.736 1910.71,868.736 1912.69,868.893 1914.68,869.205 1916.66,869.827 1918.64,869.827 1920.62,869.953 1922.61,870.203 1924.59,870.701 1926.57,870.701 1928.55,870.801 1930.53,871.001 1932.52,871.401 1934.5,872.196 1936.48,872.196 1938.46,872.356 1940.45,872.676 1942.43,873.313 1944.41,873.313 1946.39,873.441 1948.37,873.697 1950.36,874.208 1952.34,874.208 1954.32,874.31 1956.3,874.515 1958.29,874.924 1960.27,874.924 1962.25,875.006 1964.23,875.17 1966.22,875.497 1968.2,876.15 1970.18,876.15 1972.16,876.281 1974.14,876.543 1976.13,877.066 1978.11,877.066 1980.09,877.171 1982.07,877.38 1984.06,877.799 1986.04,877.799 1988.02,877.883 1990,878.051 1991.98,878.386 1993.97,879.054 1995.95,879.054 1997.93,879.188 1999.91,879.457 2001.9,879.992 2003.88,879.992 2005.86,880.099 2007.84,880.314 2009.82,880.742 2011.81,880.742 2013.79,880.829 2015.77,881 2017.75,881.344 2019.74,882.027 2021.72,882.027 2023.7,882.165 2025.68,882.44 2027.67,882.987 2029.65,882.987 2031.63,883.097 2033.61,883.317 2035.59,883.756 2037.58,883.756 2039.56,883.844 2041.54,884.02 2043.52,884.372 2045.51,885.072 2047.49,885.072 2049.47,885.212 2051.45,885.494 2053.43,886.055 2055.42,886.055 2057.4,886.167 2059.38,886.392 2061.36,886.842 2063.35,886.842 2065.33,886.932 2067.31,887.112 2069.29,887.472 2071.27,888.188 2073.26,888.188 2075.24,888.333 2077.22,888.621 2079.2,889.195 2081.19,889.195 2083.17,889.31 2085.15,889.541 2087.13,890.001 2089.12,890.001 2091.1,890.093 2093.08,890.277 2095.06,890.646 2097.04,891.379 2099.03,891.379 2101.01,891.527 2102.99,891.822 2104.97,892.41 2106.96,892.41 2108.94,892.528 2110.92,892.764 2112.9,893.235 2114.88,893.235 2116.87,893.329 2118.85,893.518 2120.83,893.895 2122.81,894.647 2124.8,894.647 2126.78,894.798 2128.76,895.1 2130.74,895.701 2132.73,895.701 2134.71,895.822 2136.69,896.064 2138.67,896.546 2140.65,896.546 2142.64,896.643 2144.62,896.836 2146.6,897.223 2148.58,897.991 2150.57,897.991 2152.55,898.146 2154.53,898.455 2156.51,899.072 2158.49,899.072 2160.48,899.195 2162.46,899.443 2164.44,899.936 2166.42,899.936 2168.41,900.036 2170.39,900.234 2172.37,900.629 2174.35,901.416 2176.33,901.416 2178.32,901.575 2180.3,901.891 2182.28,902.522 2184.26,902.522 2186.25,902.649 2188.23,902.902 2190.21,903.407 2192.19,903.407 2194.18,903.509 2196.16,903.712 2198.14,904.116 2200.12,904.922 2202.1,904.922 2204.09,905.085 2206.07,905.409 2208.05,906.055 2210.03,906.055 2212.02,906.184 2214,906.444 2215.98,906.961 2217.96,906.961 2219.94,907.065 2221.93,907.273 2223.91,907.687 2225.89,907.687 2227.87,907.77 2229.86,907.936 2231.84,908.268 2233.82,908.929 2235.8,908.929 2237.78,909.062 2239.77,909.328 2241.75,909.858 2243.73,909.858 2245.71,909.964 2247.7,910.177 2249.68,910.601 2251.66,910.601 2253.64,910.686 2255.63,910.856 2257.61,911.196 2259.59,911.873 2261.57,911.873 2263.55,912.009 2265.54,912.281 2267.52,912.823 2269.5,912.823 2271.48,912.932 2273.47,913.15 2275.45,913.584 2277.43,913.584 2279.41,913.672 2281.39,913.846 2283.38,914.194 2285.36,914.887 2287.34,914.887 2289.32,915.026 2291.31,915.305 2293.29,915.86 "/>
<polyline clip-path="url(#clip372)" style="stroke:#e26f46; stroke-linecap:round; stroke-linejoin:round; stroke-width:4; stroke-opacity:1; fill:none" points="311.028,263.052 313.01,263.052 314.993,263.052 316.975,263.052 318.957,263.052 320.939,263.052 322.922,263.052 324.904,263.052 326.886,320.741 328.868,320.741 330.851,405.115 332.833,391.946 334.815,391.946 336.797,456.495 338.78,444.827 340.762,393.514 342.744,415.386 344.726,400.643 346.709,461.702 348.691,434.451 350.673,442.004 352.656,466.964 354.638,519.454 356.62,609.722 358.602,748.96 360.585,944.409 362.567,1162.63 "/>
<polyline clip-path="url(#clip372)" style="stroke:#3da44d; stroke-linecap:round; stroke-linejoin:round; stroke-width:4; stroke-opacity:1; fill:none" points="311.028,263.052 313.01,160.256 314.993,160.256 316.975,160.256 318.957,160.256 320.939,160.256 322.922,160.256 324.904,160.256 326.886,160.256 328.868,204.917 330.851,207.535 332.833,207.535 334.815,290.45 336.797,290.45 338.78,290.45 340.762,317.596 342.744,361.592 344.726,425.741 346.709,478.316 348.691,474.372 350.673,441.386 352.656,420.906 354.638,416.972 356.62,424.048 358.602,445.822 360.585,445.822 362.567,616.383 364.549,580.285 366.531,580.285 368.514,647.97 370.496,650.001 372.478,639.609 374.46,624.858 376.443,624.858 378.425,692.106 380.407,697.743 382.389,697.748 384.372,700.364 386.354,700.364 388.336,754.169 390.318,766.331 392.301,766.331 394.283,770.868 396.265,776.696 398.247,787.488 400.23,805.911 402.212,805.911 404.194,812.362 406.177,821.329 408.159,837.654 410.141,865.552 412.123,865.552 414.106,873.756 416.088,887.359 418.07,887.359 420.052,890.431 422.035,896.364 424.017,907.55 425.999,927.722 427.981,927.722 429.964,932.537 431.946,941.691 433.928,958.477 435.91,987.538 437.893,987.538 439.875,995.005 441.857,1008.89 443.839,1008.89 445.822,1012.02 447.804,1018.08 449.786,1029.5 451.769,1050.06 453.751,1050.06 455.733,1054.98 457.715,1064.33 459.698,1081.45 461.68,1111.02 463.662,1111.02 465.644,1118.65 "/>
<polyline clip-path="url(#clip372)" style="stroke:#c271d2; stroke-linecap:round; stroke-linejoin:round; stroke-width:4; stroke-opacity:1; fill:none" points="311.028,263.052 313.01,263.052 314.993,263.052 316.975,263.052 318.957,263.052 320.939,263.052 322.922,263.052 324.904,263.052 326.886,320.741 328.868,320.741 330.851,405.115 332.833,391.946 334.815,391.946 336.797,456.495 338.78,444.827 340.762,438.432 342.744,452.671 344.726,443.213 346.709,468.792 348.691,425.316 350.673,514.37 352.656,520.221 354.638,534.204 356.62,545.869 358.602,556.027 360.585,564.934 362.567,572.833 364.549,579.921 366.531,586.361 368.514,592.28 370.496,597.778 372.478,602.932 374.46,607.806 376.443,612.448 378.425,616.896 380.407,621.181 382.389,625.329 384.372,454.561 386.354,1386.4 "/>
<polyline clip-path="url(#clip372)" style="stroke:#ac8d18; stroke-linecap:round; stroke-linejoin:round; stroke-width:4; stroke-opacity:1; fill:none" points="311.028,263.052 313.01,263.052 314.993,263.052 316.975,263.052 318.957,263.052 320.939,263.052 322.922,263.052 324.904,263.052 326.886,320.741 328.868,320.741 330.851,405.115 332.833,391.946 334.815,391.946 336.797,456.495 338.78,444.827 340.762,393.514 342.744,415.386 344.726,400.643 346.709,461.702 348.691,434.451 350.673,442.004 352.656,466.964 354.638,519.454 356.62,609.722 358.602,748.96 360.585,944.409 362.567,1162.63 "/>
<path clip-path="url(#clip370)" d="M1749.5 477.836 L2282.72 477.836 L2282.72 166.796 L1749.5 166.796  Z" fill="#ffffff" fill-rule="evenodd" fill-opacity="1"/>
<polyline clip-path="url(#clip370)" style="stroke:#000000; stroke-linecap:round; stroke-linejoin:round; stroke-width:4; stroke-opacity:1; fill:none" points="1749.5,477.836 2282.72,477.836 2282.72,166.796 1749.5,166.796 1749.5,477.836 "/>
<polyline clip-path="url(#clip370)" style="stroke:#009af9; stroke-linecap:round; stroke-linejoin:round; stroke-width:4; stroke-opacity:1; fill:none" points="1772.84,218.636 1912.92,218.636 "/>
<path clip-path="url(#clip370)" d="M1936.27 201.356 L1940.95 201.356 L1940.95 231.981 L1957.77 231.981 L1957.77 235.916 L1936.27 235.916 L1936.27 201.356 Z" fill="#000000" fill-rule="nonzero" fill-opacity="1" /><path clip-path="url(#clip370)" d="M1962.68 201.356 L1969.65 201.356 L1978.47 224.874 L1987.33 201.356 L1994.3 201.356 L1994.3 235.916 L1989.74 235.916 L1989.74 205.569 L1980.83 229.272 L1976.13 229.272 L1967.22 205.569 L1967.22 235.916 L1962.68 235.916 L1962.68 201.356 Z" fill="#000000" fill-rule="nonzero" fill-opacity="1" /><path clip-path="url(#clip370)" d="M2023.1 243.786 L2023.1 247.096 L1998.47 247.096 L1998.47 243.786 L2023.1 243.786 Z" fill="#000000" fill-rule="nonzero" fill-opacity="1" /><path clip-path="url(#clip370)" d="M2048 202.49 L2048 207.05 Q2045.34 205.777 2042.98 205.152 Q2040.62 204.527 2038.42 204.527 Q2034.6 204.527 2032.52 206.008 Q2030.46 207.49 2030.46 210.221 Q2030.46 212.513 2031.82 213.694 Q2033.21 214.851 2037.06 215.569 L2039.88 216.147 Q2045.11 217.143 2047.59 219.666 Q2050.09 222.166 2050.09 226.379 Q2050.09 231.402 2046.71 233.994 Q2043.35 236.587 2036.85 236.587 Q2034.39 236.587 2031.62 236.031 Q2028.86 235.476 2025.9 234.388 L2025.9 229.573 Q2028.75 231.17 2031.48 231.981 Q2034.21 232.791 2036.85 232.791 Q2040.85 232.791 2043.03 231.217 Q2045.2 229.643 2045.2 226.726 Q2045.2 224.18 2043.63 222.744 Q2042.08 221.309 2038.51 220.592 L2035.67 220.036 Q2030.44 218.995 2028.1 216.772 Q2025.76 214.55 2025.76 210.592 Q2025.76 206.008 2028.98 203.37 Q2032.22 200.731 2037.89 200.731 Q2040.32 200.731 2042.84 201.171 Q2045.37 201.61 2048 202.49 Z" fill="#000000" fill-rule="nonzero" fill-opacity="1" /><path clip-path="url(#clip370)" d="M2062.06 205.198 L2062.06 218.184 L2067.94 218.184 Q2071.2 218.184 2072.98 216.495 Q2074.76 214.805 2074.76 211.68 Q2074.76 208.578 2072.98 206.888 Q2071.2 205.198 2067.94 205.198 L2062.06 205.198 M2057.38 201.356 L2067.94 201.356 Q2073.75 201.356 2076.71 203.995 Q2079.69 206.61 2079.69 211.68 Q2079.69 216.795 2076.71 219.411 Q2073.75 222.027 2067.94 222.027 L2062.06 222.027 L2062.06 235.916 L2057.38 235.916 L2057.38 201.356 Z" fill="#000000" fill-rule="nonzero" fill-opacity="1" /><path clip-path="url(#clip370)" d="M2109.53 230.985 L2109.53 221.703 L2101.89 221.703 L2101.89 217.86 L2114.16 217.86 L2114.16 232.698 Q2111.45 234.619 2108.19 235.615 Q2104.93 236.587 2101.22 236.587 Q2093.12 236.587 2088.54 231.865 Q2083.98 227.119 2083.98 218.67 Q2083.98 210.198 2088.54 205.476 Q2093.12 200.731 2101.22 200.731 Q2104.6 200.731 2107.63 201.564 Q2110.69 202.397 2113.26 204.018 L2113.26 208.995 Q2110.67 206.796 2107.75 205.684 Q2104.83 204.573 2101.62 204.573 Q2095.27 204.573 2092.08 208.115 Q2088.91 211.657 2088.91 218.67 Q2088.91 225.661 2092.08 229.203 Q2095.27 232.744 2101.62 232.744 Q2104.09 232.744 2106.04 232.328 Q2107.98 231.888 2109.53 230.985 Z" fill="#000000" fill-rule="nonzero" fill-opacity="1" /><polyline clip-path="url(#clip370)" style="stroke:#e26f46; stroke-linecap:round; stroke-linejoin:round; stroke-width:4; stroke-opacity:1; fill:none" points="1772.84,270.476 1912.92,270.476 "/>
<path clip-path="url(#clip370)" d="M1936.27 253.196 L1940.95 253.196 L1940.95 283.821 L1957.77 283.821 L1957.77 287.756 L1936.27 287.756 L1936.27 253.196 Z" fill="#000000" fill-rule="nonzero" fill-opacity="1" /><path clip-path="url(#clip370)" d="M1962.68 253.196 L1969.65 253.196 L1978.47 276.714 L1987.33 253.196 L1994.3 253.196 L1994.3 287.756 L1989.74 287.756 L1989.74 257.409 L1980.83 281.112 L1976.13 281.112 L1967.22 257.409 L1967.22 287.756 L1962.68 287.756 L1962.68 253.196 Z" fill="#000000" fill-rule="nonzero" fill-opacity="1" /><path clip-path="url(#clip370)" d="M2023.1 295.626 L2023.1 298.936 L1998.47 298.936 L1998.47 295.626 L2023.1 295.626 Z" fill="#000000" fill-rule="nonzero" fill-opacity="1" /><path clip-path="url(#clip370)" d="M2038.84 257.802 L2032.5 275.001 L2045.2 275.001 L2038.84 257.802 M2036.2 253.196 L2041.5 253.196 L2054.67 287.756 L2049.81 287.756 L2046.66 278.89 L2031.08 278.89 L2027.94 287.756 L2023 287.756 L2036.2 253.196 Z" fill="#000000" fill-rule="nonzero" fill-opacity="1" /><path clip-path="url(#clip370)" d="M2081.08 272.108 L2081.08 287.756 L2076.82 287.756 L2076.82 272.247 Q2076.82 268.566 2075.39 266.737 Q2073.95 264.909 2071.08 264.909 Q2067.63 264.909 2065.64 267.108 Q2063.65 269.307 2063.65 273.103 L2063.65 287.756 L2059.37 287.756 L2059.37 261.83 L2063.65 261.83 L2063.65 265.858 Q2065.18 263.52 2067.24 262.362 Q2069.32 261.205 2072.03 261.205 Q2076.5 261.205 2078.79 263.983 Q2081.08 266.737 2081.08 272.108 Z" fill="#000000" fill-rule="nonzero" fill-opacity="1" /><path clip-path="url(#clip370)" d="M2106.64 265.765 L2106.64 251.737 L2110.9 251.737 L2110.9 287.756 L2106.64 287.756 L2106.64 283.867 Q2105.3 286.182 2103.24 287.316 Q2101.2 288.427 2098.33 288.427 Q2093.63 288.427 2090.67 284.677 Q2087.73 280.927 2087.73 274.816 Q2087.73 268.705 2090.67 264.955 Q2093.63 261.205 2098.33 261.205 Q2101.2 261.205 2103.24 262.339 Q2105.3 263.45 2106.64 265.765 M2092.12 274.816 Q2092.12 279.515 2094.05 282.2 Q2095.99 284.862 2099.37 284.862 Q2102.75 284.862 2104.69 282.2 Q2106.64 279.515 2106.64 274.816 Q2106.64 270.117 2104.69 267.455 Q2102.75 264.77 2099.37 264.77 Q2095.99 264.77 2094.05 267.455 Q2092.12 270.117 2092.12 274.816 Z" fill="#000000" fill-rule="nonzero" fill-opacity="1" /><path clip-path="url(#clip370)" d="M2134.69 265.811 Q2133.98 265.395 2133.12 265.21 Q2132.29 265.001 2131.27 265.001 Q2127.66 265.001 2125.71 267.362 Q2123.79 269.7 2123.79 274.098 L2123.79 287.756 L2119.51 287.756 L2119.51 261.83 L2123.79 261.83 L2123.79 265.858 Q2125.13 263.497 2127.29 262.362 Q2129.44 261.205 2132.52 261.205 Q2132.96 261.205 2133.49 261.274 Q2134.02 261.321 2134.67 261.436 L2134.69 265.811 Z" fill="#000000" fill-rule="nonzero" fill-opacity="1" /><path clip-path="url(#clip370)" d="M2160.3 273.728 L2160.3 275.811 L2140.71 275.811 Q2140.99 280.209 2143.35 282.524 Q2145.74 284.816 2149.97 284.816 Q2152.43 284.816 2154.72 284.214 Q2157.03 283.612 2159.3 282.409 L2159.3 286.436 Q2157.01 287.408 2154.6 287.918 Q2152.19 288.427 2149.72 288.427 Q2143.51 288.427 2139.88 284.816 Q2136.27 281.205 2136.27 275.047 Q2136.27 268.682 2139.69 264.955 Q2143.14 261.205 2148.98 261.205 Q2154.21 261.205 2157.24 264.585 Q2160.3 267.941 2160.3 273.728 M2156.04 272.478 Q2155.99 268.983 2154.07 266.899 Q2152.17 264.816 2149.02 264.816 Q2145.46 264.816 2143.31 266.83 Q2141.18 268.844 2140.85 272.501 L2156.04 272.478 Z" fill="#000000" fill-rule="nonzero" fill-opacity="1" /><path clip-path="url(#clip370)" d="M2167.29 261.83 L2171.55 261.83 L2171.55 287.756 L2167.29 287.756 L2167.29 261.83 M2167.29 251.737 L2171.55 251.737 L2171.55 257.131 L2167.29 257.131 L2167.29 251.737 Z" fill="#000000" fill-rule="nonzero" fill-opacity="1" /><path clip-path="url(#clip370)" d="M2200.16 295.626 L2200.16 298.936 L2175.53 298.936 L2175.53 295.626 L2200.16 295.626 Z" fill="#000000" fill-rule="nonzero" fill-opacity="1" /><path clip-path="url(#clip370)" d="M2215.94 274.723 Q2210.78 274.723 2208.79 275.904 Q2206.8 277.084 2206.8 279.932 Q2206.8 282.2 2208.28 283.543 Q2209.79 284.862 2212.36 284.862 Q2215.9 284.862 2218.03 282.362 Q2220.18 279.839 2220.18 275.672 L2220.18 274.723 L2215.94 274.723 M2224.44 272.964 L2224.44 287.756 L2220.18 287.756 L2220.18 283.821 Q2218.72 286.182 2216.55 287.316 Q2214.37 288.427 2211.22 288.427 Q2207.24 288.427 2204.88 286.205 Q2202.54 283.959 2202.54 280.209 Q2202.54 275.834 2205.46 273.612 Q2208.4 271.39 2214.21 271.39 L2220.18 271.39 L2220.18 270.973 Q2220.18 268.034 2218.24 266.436 Q2216.31 264.816 2212.82 264.816 Q2210.6 264.816 2208.49 265.348 Q2206.38 265.881 2204.44 266.946 L2204.44 263.01 Q2206.78 262.108 2208.98 261.668 Q2211.18 261.205 2213.26 261.205 Q2218.88 261.205 2221.66 264.122 Q2224.44 267.038 2224.44 272.964 Z" fill="#000000" fill-rule="nonzero" fill-opacity="1" /><path clip-path="url(#clip370)" d="M2233.21 251.737 L2237.47 251.737 L2237.47 287.756 L2233.21 287.756 L2233.21 251.737 Z" fill="#000000" fill-rule="nonzero" fill-opacity="1" /><path clip-path="url(#clip370)" d="M2250.6 254.469 L2250.6 261.83 L2259.37 261.83 L2259.37 265.14 L2250.6 265.14 L2250.6 279.214 Q2250.6 282.385 2251.45 283.288 Q2252.33 284.191 2254.99 284.191 L2259.37 284.191 L2259.37 287.756 L2254.99 287.756 Q2250.06 287.756 2248.19 285.927 Q2246.31 284.075 2246.31 279.214 L2246.31 265.14 L2243.19 265.14 L2243.19 261.83 L2246.31 261.83 L2246.31 254.469 L2250.6 254.469 Z" fill="#000000" fill-rule="nonzero" fill-opacity="1" /><polyline clip-path="url(#clip370)" style="stroke:#3da44d; stroke-linecap:round; stroke-linejoin:round; stroke-width:4; stroke-opacity:1; fill:none" points="1772.84,322.316 1912.92,322.316 "/>
<path clip-path="url(#clip370)" d="M1936.27 305.036 L1940.95 305.036 L1940.95 335.661 L1957.77 335.661 L1957.77 339.596 L1936.27 339.596 L1936.27 305.036 Z" fill="#000000" fill-rule="nonzero" fill-opacity="1" /><path clip-path="url(#clip370)" d="M1962.68 305.036 L1969.65 305.036 L1978.47 328.554 L1987.33 305.036 L1994.3 305.036 L1994.3 339.596 L1989.74 339.596 L1989.74 309.249 L1980.83 332.952 L1976.13 332.952 L1967.22 309.249 L1967.22 339.596 L1962.68 339.596 L1962.68 305.036 Z" fill="#000000" fill-rule="nonzero" fill-opacity="1" /><path clip-path="url(#clip370)" d="M2023.1 347.466 L2023.1 350.776 L1998.47 350.776 L1998.47 347.466 L2023.1 347.466 Z" fill="#000000" fill-rule="nonzero" fill-opacity="1" /><path clip-path="url(#clip370)" d="M2038.84 309.642 L2032.5 326.841 L2045.2 326.841 L2038.84 309.642 M2036.2 305.036 L2041.5 305.036 L2054.67 339.596 L2049.81 339.596 L2046.66 330.73 L2031.08 330.73 L2027.94 339.596 L2023 339.596 L2036.2 305.036 Z" fill="#000000" fill-rule="nonzero" fill-opacity="1" /><path clip-path="url(#clip370)" d="M2081.08 323.948 L2081.08 339.596 L2076.82 339.596 L2076.82 324.087 Q2076.82 320.406 2075.39 318.577 Q2073.95 316.749 2071.08 316.749 Q2067.63 316.749 2065.64 318.948 Q2063.65 321.147 2063.65 324.943 L2063.65 339.596 L2059.37 339.596 L2059.37 313.67 L2063.65 313.67 L2063.65 317.698 Q2065.18 315.36 2067.24 314.202 Q2069.32 313.045 2072.03 313.045 Q2076.5 313.045 2078.79 315.823 Q2081.08 318.577 2081.08 323.948 Z" fill="#000000" fill-rule="nonzero" fill-opacity="1" /><path clip-path="url(#clip370)" d="M2106.64 317.605 L2106.64 303.577 L2110.9 303.577 L2110.9 339.596 L2106.64 339.596 L2106.64 335.707 Q2105.3 338.022 2103.24 339.156 Q2101.2 340.267 2098.33 340.267 Q2093.63 340.267 2090.67 336.517 Q2087.73 332.767 2087.73 326.656 Q2087.73 320.545 2090.67 316.795 Q2093.63 313.045 2098.33 313.045 Q2101.2 313.045 2103.24 314.179 Q2105.3 315.29 2106.64 317.605 M2092.12 326.656 Q2092.12 331.355 2094.05 334.04 Q2095.99 336.702 2099.37 336.702 Q2102.75 336.702 2104.69 334.04 Q2106.64 331.355 2106.64 326.656 Q2106.64 321.957 2104.69 319.295 Q2102.75 316.61 2099.37 316.61 Q2095.99 316.61 2094.05 319.295 Q2092.12 321.957 2092.12 326.656 Z" fill="#000000" fill-rule="nonzero" fill-opacity="1" /><path clip-path="url(#clip370)" d="M2134.69 317.651 Q2133.98 317.235 2133.12 317.05 Q2132.29 316.841 2131.27 316.841 Q2127.66 316.841 2125.71 319.202 Q2123.79 321.54 2123.79 325.938 L2123.79 339.596 L2119.51 339.596 L2119.51 313.67 L2123.79 313.67 L2123.79 317.698 Q2125.13 315.337 2127.29 314.202 Q2129.44 313.045 2132.52 313.045 Q2132.96 313.045 2133.49 313.114 Q2134.02 313.161 2134.67 313.276 L2134.69 317.651 Z" fill="#000000" fill-rule="nonzero" fill-opacity="1" /><path clip-path="url(#clip370)" d="M2160.3 325.568 L2160.3 327.651 L2140.71 327.651 Q2140.99 332.049 2143.35 334.364 Q2145.74 336.656 2149.97 336.656 Q2152.43 336.656 2154.72 336.054 Q2157.03 335.452 2159.3 334.249 L2159.3 338.276 Q2157.01 339.248 2154.6 339.758 Q2152.19 340.267 2149.72 340.267 Q2143.51 340.267 2139.88 336.656 Q2136.27 333.045 2136.27 326.887 Q2136.27 320.522 2139.69 316.795 Q2143.14 313.045 2148.98 313.045 Q2154.21 313.045 2157.24 316.425 Q2160.3 319.781 2160.3 325.568 M2156.04 324.318 Q2155.99 320.823 2154.07 318.739 Q2152.17 316.656 2149.02 316.656 Q2145.46 316.656 2143.31 318.67 Q2141.18 320.684 2140.85 324.341 L2156.04 324.318 Z" fill="#000000" fill-rule="nonzero" fill-opacity="1" /><path clip-path="url(#clip370)" d="M2167.29 313.67 L2171.55 313.67 L2171.55 339.596 L2167.29 339.596 L2167.29 313.67 M2167.29 303.577 L2171.55 303.577 L2171.55 308.971 L2167.29 308.971 L2167.29 303.577 Z" fill="#000000" fill-rule="nonzero" fill-opacity="1" /><polyline clip-path="url(#clip370)" style="stroke:#c271d2; stroke-linecap:round; stroke-linejoin:round; stroke-width:4; stroke-opacity:1; fill:none" points="1772.84,374.156 1912.92,374.156 "/>
<path clip-path="url(#clip370)" d="M1936.27 356.876 L1940.95 356.876 L1940.95 387.501 L1957.77 387.501 L1957.77 391.436 L1936.27 391.436 L1936.27 356.876 Z" fill="#000000" fill-rule="nonzero" fill-opacity="1" /><path clip-path="url(#clip370)" d="M1962.68 356.876 L1969.65 356.876 L1978.47 380.394 L1987.33 356.876 L1994.3 356.876 L1994.3 391.436 L1989.74 391.436 L1989.74 361.089 L1980.83 384.792 L1976.13 384.792 L1967.22 361.089 L1967.22 391.436 L1962.68 391.436 L1962.68 356.876 Z" fill="#000000" fill-rule="nonzero" fill-opacity="1" /><path clip-path="url(#clip370)" d="M2023.1 399.306 L2023.1 402.616 L1998.47 402.616 L1998.47 399.306 L2023.1 399.306 Z" fill="#000000" fill-rule="nonzero" fill-opacity="1" /><path clip-path="url(#clip370)" d="M2048 358.01 L2048 362.57 Q2045.34 361.297 2042.98 360.672 Q2040.62 360.047 2038.42 360.047 Q2034.6 360.047 2032.52 361.528 Q2030.46 363.01 2030.46 365.741 Q2030.46 368.033 2031.82 369.214 Q2033.21 370.371 2037.06 371.089 L2039.88 371.667 Q2045.11 372.663 2047.59 375.186 Q2050.09 377.686 2050.09 381.899 Q2050.09 386.922 2046.71 389.514 Q2043.35 392.107 2036.85 392.107 Q2034.39 392.107 2031.62 391.551 Q2028.86 390.996 2025.9 389.908 L2025.9 385.093 Q2028.75 386.69 2031.48 387.501 Q2034.21 388.311 2036.85 388.311 Q2040.85 388.311 2043.03 386.737 Q2045.2 385.163 2045.2 382.246 Q2045.2 379.7 2043.63 378.264 Q2042.08 376.829 2038.51 376.112 L2035.67 375.556 Q2030.44 374.515 2028.1 372.292 Q2025.76 370.07 2025.76 366.112 Q2025.76 361.528 2028.98 358.89 Q2032.22 356.251 2037.89 356.251 Q2040.32 356.251 2042.84 356.691 Q2045.37 357.13 2048 358.01 Z" fill="#000000" fill-rule="nonzero" fill-opacity="1" /><path clip-path="url(#clip370)" d="M2062.06 360.718 L2062.06 373.704 L2067.94 373.704 Q2071.2 373.704 2072.98 372.015 Q2074.76 370.325 2074.76 367.2 Q2074.76 364.098 2072.98 362.408 Q2071.2 360.718 2067.94 360.718 L2062.06 360.718 M2057.38 356.876 L2067.94 356.876 Q2073.75 356.876 2076.71 359.515 Q2079.69 362.13 2079.69 367.2 Q2079.69 372.315 2076.71 374.931 Q2073.75 377.547 2067.94 377.547 L2062.06 377.547 L2062.06 391.436 L2057.38 391.436 L2057.38 356.876 Z" fill="#000000" fill-rule="nonzero" fill-opacity="1" /><path clip-path="url(#clip370)" d="M2109.53 386.505 L2109.53 377.223 L2101.89 377.223 L2101.89 373.38 L2114.16 373.38 L2114.16 388.218 Q2111.45 390.139 2108.19 391.135 Q2104.93 392.107 2101.22 392.107 Q2093.12 392.107 2088.54 387.385 Q2083.98 382.639 2083.98 374.19 Q2083.98 365.718 2088.54 360.996 Q2093.12 356.251 2101.22 356.251 Q2104.6 356.251 2107.63 357.084 Q2110.69 357.917 2113.26 359.538 L2113.26 364.515 Q2110.67 362.316 2107.75 361.204 Q2104.83 360.093 2101.62 360.093 Q2095.27 360.093 2092.08 363.635 Q2088.91 367.177 2088.91 374.19 Q2088.91 381.181 2092.08 384.723 Q2095.27 388.264 2101.62 388.264 Q2104.09 388.264 2106.04 387.848 Q2107.98 387.408 2109.53 386.505 Z" fill="#000000" fill-rule="nonzero" fill-opacity="1" /><path clip-path="url(#clip370)" d="M2142.22 399.306 L2142.22 402.616 L2117.59 402.616 L2117.59 399.306 L2142.22 399.306 Z" fill="#000000" fill-rule="nonzero" fill-opacity="1" /><path clip-path="url(#clip370)" d="M2158 378.403 Q2152.84 378.403 2150.85 379.584 Q2148.86 380.764 2148.86 383.612 Q2148.86 385.88 2150.34 387.223 Q2151.85 388.542 2154.42 388.542 Q2157.96 388.542 2160.09 386.042 Q2162.24 383.519 2162.24 379.352 L2162.24 378.403 L2158 378.403 M2166.5 376.644 L2166.5 391.436 L2162.24 391.436 L2162.24 387.501 Q2160.78 389.862 2158.61 390.996 Q2156.43 392.107 2153.28 392.107 Q2149.3 392.107 2146.94 389.885 Q2144.6 387.639 2144.6 383.889 Q2144.6 379.514 2147.52 377.292 Q2150.46 375.07 2156.27 375.07 L2162.24 375.07 L2162.24 374.653 Q2162.24 371.714 2160.3 370.116 Q2158.37 368.496 2154.88 368.496 Q2152.66 368.496 2150.55 369.028 Q2148.44 369.561 2146.5 370.626 L2146.5 366.69 Q2148.84 365.788 2151.04 365.348 Q2153.24 364.885 2155.32 364.885 Q2160.94 364.885 2163.72 367.802 Q2166.5 370.718 2166.5 376.644 Z" fill="#000000" fill-rule="nonzero" fill-opacity="1" /><path clip-path="url(#clip370)" d="M2175.27 355.417 L2179.53 355.417 L2179.53 391.436 L2175.27 391.436 L2175.27 355.417 Z" fill="#000000" fill-rule="nonzero" fill-opacity="1" /><path clip-path="url(#clip370)" d="M2192.66 358.149 L2192.66 365.51 L2201.43 365.51 L2201.43 368.82 L2192.66 368.82 L2192.66 382.894 Q2192.66 386.065 2193.51 386.968 Q2194.39 387.871 2197.05 387.871 L2201.43 387.871 L2201.43 391.436 L2197.05 391.436 Q2192.12 391.436 2190.25 389.607 Q2188.37 387.755 2188.37 382.894 L2188.37 368.82 L2185.25 368.82 L2185.25 365.51 L2188.37 365.51 L2188.37 358.149 L2192.66 358.149 Z" fill="#000000" fill-rule="nonzero" fill-opacity="1" /><polyline clip-path="url(#clip370)" style="stroke:#ac8d18; stroke-linecap:round; stroke-linejoin:round; stroke-width:4; stroke-opacity:1; fill:none" points="1772.84,425.996 1912.92,425.996 "/>
<path clip-path="url(#clip370)" d="M1936.27 408.716 L1940.95 408.716 L1940.95 439.341 L1957.77 439.341 L1957.77 443.276 L1936.27 443.276 L1936.27 408.716 Z" fill="#000000" fill-rule="nonzero" fill-opacity="1" /><path clip-path="url(#clip370)" d="M1962.68 408.716 L1969.65 408.716 L1978.47 432.234 L1987.33 408.716 L1994.3 408.716 L1994.3 443.276 L1989.74 443.276 L1989.74 412.929 L1980.83 436.632 L1976.13 436.632 L1967.22 412.929 L1967.22 443.276 L1962.68 443.276 L1962.68 408.716 Z" fill="#000000" fill-rule="nonzero" fill-opacity="1" /></svg>
