<?xml version="1.0" encoding="utf-8"?>
<svg xmlns="http://www.w3.org/2000/svg" xmlns:xlink="http://www.w3.org/1999/xlink" width="600" height="400" viewBox="0 0 2400 1600">
<defs>
  <clipPath id="clip450">
    <rect x="0" y="0" width="2400" height="1600"/>
  </clipPath>
</defs>
<path clip-path="url(#clip450)" d="M0 1600 L2400 1600 L2400 0 L0 0  Z" fill="#ffffff" fill-rule="evenodd" fill-opacity="1"/>
<defs>
  <clipPath id="clip451">
    <rect x="480" y="0" width="1681" height="1600"/>
  </clipPath>
</defs>
<path clip-path="url(#clip450)" d="M276.876 1423.18 L2352.76 1423.18 L2352.76 123.472 L276.876 123.472  Z" fill="#ffffff" fill-rule="evenodd" fill-opacity="1"/>
<defs>
  <clipPath id="clip452">
    <rect x="276" y="123" width="2077" height="1301"/>
  </clipPath>
</defs>
<polyline clip-path="url(#clip452)" style="stroke:#000000; stroke-linecap:round; stroke-linejoin:round; stroke-width:2; stroke-opacity:0.1; fill:none" points="335.627,1423.18 335.627,123.472 "/>
<polyline clip-path="url(#clip452)" style="stroke:#000000; stroke-linecap:round; stroke-linejoin:round; stroke-width:2; stroke-opacity:0.1; fill:none" points="825.221,1423.18 825.221,123.472 "/>
<polyline clip-path="url(#clip452)" style="stroke:#000000; stroke-linecap:round; stroke-linejoin:round; stroke-width:2; stroke-opacity:0.1; fill:none" points="1314.82,1423.18 1314.82,123.472 "/>
<polyline clip-path="url(#clip452)" style="stroke:#000000; stroke-linecap:round; stroke-linejoin:round; stroke-width:2; stroke-opacity:0.1; fill:none" points="1804.41,1423.18 1804.41,123.472 "/>
<polyline clip-path="url(#clip452)" style="stroke:#000000; stroke-linecap:round; stroke-linejoin:round; stroke-width:2; stroke-opacity:0.1; fill:none" points="2294,1423.18 2294,123.472 "/>
<polyline clip-path="url(#clip450)" style="stroke:#000000; stroke-linecap:round; stroke-linejoin:round; stroke-width:4; stroke-opacity:1; fill:none" points="276.876,1423.18 2352.76,1423.18 "/>
<polyline clip-path="url(#clip450)" style="stroke:#000000; stroke-linecap:round; stroke-linejoin:round; stroke-width:4; stroke-opacity:1; fill:none" points="335.627,1423.18 335.627,1404.28 "/>
<polyline clip-path="url(#clip450)" style="stroke:#000000; stroke-linecap:round; stroke-linejoin:round; stroke-width:4; stroke-opacity:1; fill:none" points="825.221,1423.18 825.221,1404.28 "/>
<polyline clip-path="url(#clip450)" style="stroke:#000000; stroke-linecap:round; stroke-linejoin:round; stroke-width:4; stroke-opacity:1; fill:none" points="1314.82,1423.18 1314.82,1404.28 "/>
<polyline clip-path="url(#clip450)" style="stroke:#000000; stroke-linecap:round; stroke-linejoin:round; stroke-width:4; stroke-opacity:1; fill:none" points="1804.41,1423.18 1804.41,1404.28 "/>
<polyline clip-path="url(#clip450)" style="stroke:#000000; stroke-linecap:round; stroke-linejoin:round; stroke-width:4; stroke-opacity:1; fill:none" points="2294,1423.18 2294,1404.28 "/>
<path clip-path="url(#clip450)" d="M287.699 1481.64 L295.338 1481.64 L295.338 1455.28 L287.028 1456.95 L287.028 1452.69 L295.291 1451.02 L299.967 1451.02 L299.967 1481.64 L307.606 1481.64 L307.606 1485.58 L287.699 1485.58 L287.699 1481.64 Z" fill="#000000" fill-rule="nonzero" fill-opacity="1" /><path clip-path="url(#clip450)" d="M317.051 1479.7 L321.935 1479.7 L321.935 1485.58 L317.051 1485.58 L317.051 1479.7 Z" fill="#000000" fill-rule="nonzero" fill-opacity="1" /><path clip-path="url(#clip450)" d="M342.12 1454.1 Q338.509 1454.1 336.68 1457.66 Q334.875 1461.2 334.875 1468.33 Q334.875 1475.44 336.68 1479.01 Q338.509 1482.55 342.12 1482.55 Q345.754 1482.55 347.56 1479.01 Q349.388 1475.44 349.388 1468.33 Q349.388 1461.2 347.56 1457.66 Q345.754 1454.1 342.12 1454.1 M342.12 1450.39 Q347.93 1450.39 350.986 1455 Q354.064 1459.58 354.064 1468.33 Q354.064 1477.06 350.986 1481.67 Q347.93 1486.25 342.12 1486.25 Q336.31 1486.25 333.231 1481.67 Q330.175 1477.06 330.175 1468.33 Q330.175 1459.58 333.231 1455 Q336.31 1450.39 342.12 1450.39 Z" fill="#000000" fill-rule="nonzero" fill-opacity="1" /><path clip-path="url(#clip450)" d="M372.282 1454.1 Q368.671 1454.1 366.842 1457.66 Q365.036 1461.2 365.036 1468.33 Q365.036 1475.44 366.842 1479.01 Q368.671 1482.55 372.282 1482.55 Q375.916 1482.55 377.722 1479.01 Q379.55 1475.44 379.55 1468.33 Q379.55 1461.2 377.722 1457.66 Q375.916 1454.1 372.282 1454.1 M372.282 1450.39 Q378.092 1450.39 381.147 1455 Q384.226 1459.58 384.226 1468.33 Q384.226 1477.06 381.147 1481.67 Q378.092 1486.25 372.282 1486.25 Q366.472 1486.25 363.393 1481.67 Q360.337 1477.06 360.337 1468.33 Q360.337 1459.58 363.393 1455 Q366.472 1450.39 372.282 1450.39 Z" fill="#000000" fill-rule="nonzero" fill-opacity="1" /><path clip-path="url(#clip450)" d="M777.791 1481.64 L785.43 1481.64 L785.43 1455.28 L777.12 1456.95 L777.12 1452.69 L785.384 1451.02 L790.059 1451.02 L790.059 1481.64 L797.698 1481.64 L797.698 1485.58 L777.791 1485.58 L777.791 1481.64 Z" fill="#000000" fill-rule="nonzero" fill-opacity="1" /><path clip-path="url(#clip450)" d="M807.143 1479.7 L812.027 1479.7 L812.027 1485.58 L807.143 1485.58 L807.143 1479.7 Z" fill="#000000" fill-rule="nonzero" fill-opacity="1" /><path clip-path="url(#clip450)" d="M826.24 1481.64 L842.559 1481.64 L842.559 1485.58 L820.615 1485.58 L820.615 1481.64 Q823.277 1478.89 827.86 1474.26 Q832.467 1469.61 833.647 1468.27 Q835.893 1465.74 836.772 1464.01 Q837.675 1462.25 837.675 1460.56 Q837.675 1457.8 835.73 1456.07 Q833.809 1454.33 830.707 1454.33 Q828.508 1454.33 826.055 1455.09 Q823.624 1455.86 820.846 1457.41 L820.846 1452.69 Q823.67 1451.55 826.124 1450.97 Q828.578 1450.39 830.615 1450.39 Q835.985 1450.39 839.18 1453.08 Q842.374 1455.77 842.374 1460.26 Q842.374 1462.39 841.564 1464.31 Q840.777 1466.2 838.67 1468.8 Q838.092 1469.47 834.99 1472.69 Q831.888 1475.88 826.24 1481.64 Z" fill="#000000" fill-rule="nonzero" fill-opacity="1" /><path clip-path="url(#clip450)" d="M852.42 1451.02 L870.777 1451.02 L870.777 1454.96 L856.703 1454.96 L856.703 1463.43 Q857.721 1463.08 858.74 1462.92 Q859.758 1462.73 860.777 1462.73 Q866.564 1462.73 869.943 1465.9 Q873.323 1469.08 873.323 1474.49 Q873.323 1480.07 869.851 1483.17 Q866.378 1486.25 860.059 1486.25 Q857.883 1486.25 855.615 1485.88 Q853.369 1485.51 850.962 1484.77 L850.962 1480.07 Q853.045 1481.2 855.267 1481.76 Q857.49 1482.32 859.966 1482.32 Q863.971 1482.32 866.309 1480.21 Q868.647 1478.1 868.647 1474.49 Q868.647 1470.88 866.309 1468.77 Q863.971 1466.67 859.966 1466.67 Q858.091 1466.67 856.216 1467.08 Q854.365 1467.5 852.42 1468.38 L852.42 1451.02 Z" fill="#000000" fill-rule="nonzero" fill-opacity="1" /><path clip-path="url(#clip450)" d="M1266.89 1481.64 L1274.53 1481.64 L1274.53 1455.28 L1266.22 1456.95 L1266.22 1452.69 L1274.48 1451.02 L1279.16 1451.02 L1279.16 1481.64 L1286.8 1481.64 L1286.8 1485.58 L1266.89 1485.58 L1266.89 1481.64 Z" fill="#000000" fill-rule="nonzero" fill-opacity="1" /><path clip-path="url(#clip450)" d="M1296.24 1479.7 L1301.12 1479.7 L1301.12 1485.58 L1296.24 1485.58 L1296.24 1479.7 Z" fill="#000000" fill-rule="nonzero" fill-opacity="1" /><path clip-path="url(#clip450)" d="M1311.36 1451.02 L1329.71 1451.02 L1329.71 1454.96 L1315.64 1454.96 L1315.64 1463.43 Q1316.66 1463.08 1317.67 1462.92 Q1318.69 1462.73 1319.71 1462.73 Q1325.5 1462.73 1328.88 1465.9 Q1332.26 1469.08 1332.26 1474.49 Q1332.26 1480.07 1328.79 1483.17 Q1325.31 1486.25 1318.99 1486.25 Q1316.82 1486.25 1314.55 1485.88 Q1312.3 1485.51 1309.9 1484.77 L1309.9 1480.07 Q1311.98 1481.2 1314.2 1481.76 Q1316.42 1482.32 1318.9 1482.32 Q1322.91 1482.32 1325.24 1480.21 Q1327.58 1478.1 1327.58 1474.49 Q1327.58 1470.88 1325.24 1468.77 Q1322.91 1466.67 1318.9 1466.67 Q1317.03 1466.67 1315.15 1467.08 Q1313.3 1467.5 1311.36 1468.38 L1311.36 1451.02 Z" fill="#000000" fill-rule="nonzero" fill-opacity="1" /><path clip-path="url(#clip450)" d="M1351.47 1454.1 Q1347.86 1454.1 1346.03 1457.66 Q1344.23 1461.2 1344.23 1468.33 Q1344.23 1475.44 1346.03 1479.01 Q1347.86 1482.55 1351.47 1482.55 Q1355.1 1482.55 1356.91 1479.01 Q1358.74 1475.44 1358.74 1468.33 Q1358.74 1461.2 1356.91 1457.66 Q1355.1 1454.1 1351.47 1454.1 M1351.47 1450.39 Q1357.28 1450.39 1360.34 1455 Q1363.41 1459.58 1363.41 1468.33 Q1363.41 1477.06 1360.34 1481.67 Q1357.28 1486.25 1351.47 1486.25 Q1345.66 1486.25 1342.58 1481.67 Q1339.53 1477.06 1339.53 1468.33 Q1339.53 1459.58 1342.58 1455 Q1345.66 1450.39 1351.47 1450.39 Z" fill="#000000" fill-rule="nonzero" fill-opacity="1" /><path clip-path="url(#clip450)" d="M1756.98 1481.64 L1764.62 1481.64 L1764.62 1455.28 L1756.31 1456.95 L1756.31 1452.69 L1764.57 1451.02 L1769.25 1451.02 L1769.25 1481.64 L1776.89 1481.64 L1776.89 1485.58 L1756.98 1485.58 L1756.98 1481.64 Z" fill="#000000" fill-rule="nonzero" fill-opacity="1" /><path clip-path="url(#clip450)" d="M1786.33 1479.7 L1791.22 1479.7 L1791.22 1485.58 L1786.33 1485.58 L1786.33 1479.7 Z" fill="#000000" fill-rule="nonzero" fill-opacity="1" /><path clip-path="url(#clip450)" d="M1800.22 1451.02 L1822.44 1451.02 L1822.44 1453.01 L1809.9 1485.58 L1805.01 1485.58 L1816.82 1454.96 L1800.22 1454.96 L1800.22 1451.02 Z" fill="#000000" fill-rule="nonzero" fill-opacity="1" /><path clip-path="url(#clip450)" d="M1831.61 1451.02 L1849.97 1451.02 L1849.97 1454.96 L1835.89 1454.96 L1835.89 1463.43 Q1836.91 1463.08 1837.93 1462.92 Q1838.95 1462.73 1839.97 1462.73 Q1845.75 1462.73 1849.13 1465.9 Q1852.51 1469.08 1852.51 1474.49 Q1852.51 1480.07 1849.04 1483.17 Q1845.57 1486.25 1839.25 1486.25 Q1837.07 1486.25 1834.8 1485.88 Q1832.56 1485.51 1830.15 1484.77 L1830.15 1480.07 Q1832.23 1481.2 1834.46 1481.76 Q1836.68 1482.32 1839.16 1482.32 Q1843.16 1482.32 1845.5 1480.21 Q1847.84 1478.1 1847.84 1474.49 Q1847.84 1470.88 1845.5 1468.77 Q1843.16 1466.67 1839.16 1466.67 Q1837.28 1466.67 1835.41 1467.08 Q1833.55 1467.5 1831.61 1468.38 L1831.61 1451.02 Z" fill="#000000" fill-rule="nonzero" fill-opacity="1" /><path clip-path="url(#clip450)" d="M2250.16 1481.64 L2266.48 1481.64 L2266.48 1485.58 L2244.54 1485.58 L2244.54 1481.64 Q2247.2 1478.89 2251.78 1474.26 Q2256.39 1469.61 2257.57 1468.27 Q2259.81 1465.74 2260.69 1464.01 Q2261.6 1462.25 2261.6 1460.56 Q2261.6 1457.8 2259.65 1456.07 Q2257.73 1454.33 2254.63 1454.33 Q2252.43 1454.33 2249.98 1455.09 Q2247.55 1455.86 2244.77 1457.41 L2244.77 1452.69 Q2247.59 1451.55 2250.05 1450.97 Q2252.5 1450.39 2254.54 1450.39 Q2259.91 1450.39 2263.1 1453.08 Q2266.3 1455.77 2266.3 1460.26 Q2266.3 1462.39 2265.49 1464.31 Q2264.7 1466.2 2262.59 1468.8 Q2262.01 1469.47 2258.91 1472.69 Q2255.81 1475.88 2250.16 1481.64 Z" fill="#000000" fill-rule="nonzero" fill-opacity="1" /><path clip-path="url(#clip450)" d="M2276.3 1479.7 L2281.18 1479.7 L2281.18 1485.58 L2276.3 1485.58 L2276.3 1479.7 Z" fill="#000000" fill-rule="nonzero" fill-opacity="1" /><path clip-path="url(#clip450)" d="M2301.37 1454.1 Q2297.75 1454.1 2295.93 1457.66 Q2294.12 1461.2 2294.12 1468.33 Q2294.12 1475.44 2295.93 1479.01 Q2297.75 1482.55 2301.37 1482.55 Q2305 1482.55 2306.81 1479.01 Q2308.63 1475.44 2308.63 1468.33 Q2308.63 1461.2 2306.81 1457.66 Q2305 1454.1 2301.37 1454.1 M2301.37 1450.39 Q2307.18 1450.39 2310.23 1455 Q2313.31 1459.58 2313.31 1468.33 Q2313.31 1477.06 2310.23 1481.67 Q2307.18 1486.25 2301.37 1486.25 Q2295.56 1486.25 2292.48 1481.67 Q2289.42 1477.06 2289.42 1468.33 Q2289.42 1459.58 2292.48 1455 Q2295.56 1450.39 2301.37 1450.39 Z" fill="#000000" fill-rule="nonzero" fill-opacity="1" /><path clip-path="url(#clip450)" d="M2331.53 1454.1 Q2327.92 1454.1 2326.09 1457.66 Q2324.28 1461.2 2324.28 1468.33 Q2324.28 1475.44 2326.09 1479.01 Q2327.92 1482.55 2331.53 1482.55 Q2335.16 1482.55 2336.97 1479.01 Q2338.8 1475.44 2338.8 1468.33 Q2338.8 1461.2 2336.97 1457.66 Q2335.16 1454.1 2331.53 1454.1 M2331.53 1450.39 Q2337.34 1450.39 2340.39 1455 Q2343.47 1459.58 2343.47 1468.33 Q2343.47 1477.06 2340.39 1481.67 Q2337.34 1486.25 2331.53 1486.25 Q2325.72 1486.25 2322.64 1481.67 Q2319.58 1477.06 2319.58 1468.33 Q2319.58 1459.58 2322.64 1455 Q2325.72 1450.39 2331.53 1450.39 Z" fill="#000000" fill-rule="nonzero" fill-opacity="1" /><path clip-path="url(#clip450)" d="M1299 1518.52 L1304.89 1518.52 L1304.89 1547.77 L1322.36 1532.4 L1329.84 1532.4 L1310.93 1549.07 L1330.63 1568.04 L1323 1568.04 L1304.89 1550.63 L1304.89 1568.04 L1299 1568.04 L1299 1518.52 Z" fill="#000000" fill-rule="nonzero" fill-opacity="1" /><polyline clip-path="url(#clip452)" style="stroke:#000000; stroke-linecap:round; stroke-linejoin:round; stroke-width:2; stroke-opacity:0.1; fill:none" points="276.876,1093.86 2352.76,1093.86 "/>
<polyline clip-path="url(#clip452)" style="stroke:#000000; stroke-linecap:round; stroke-linejoin:round; stroke-width:2; stroke-opacity:0.1; fill:none" points="276.876,720.95 2352.76,720.95 "/>
<polyline clip-path="url(#clip452)" style="stroke:#000000; stroke-linecap:round; stroke-linejoin:round; stroke-width:2; stroke-opacity:0.1; fill:none" points="276.876,348.046 2352.76,348.046 "/>
<polyline clip-path="url(#clip450)" style="stroke:#000000; stroke-linecap:round; stroke-linejoin:round; stroke-width:4; stroke-opacity:1; fill:none" points="276.876,1423.18 276.876,123.472 "/>
<polyline clip-path="url(#clip450)" style="stroke:#000000; stroke-linecap:round; stroke-linejoin:round; stroke-width:4; stroke-opacity:1; fill:none" points="276.876,1093.86 295.773,1093.86 "/>
<polyline clip-path="url(#clip450)" style="stroke:#000000; stroke-linecap:round; stroke-linejoin:round; stroke-width:4; stroke-opacity:1; fill:none" points="276.876,720.95 295.773,720.95 "/>
<polyline clip-path="url(#clip450)" style="stroke:#000000; stroke-linecap:round; stroke-linejoin:round; stroke-width:4; stroke-opacity:1; fill:none" points="276.876,348.046 295.773,348.046 "/>
<path clip-path="url(#clip450)" d="M114.931 1113.65 L122.57 1113.65 L122.57 1087.28 L114.26 1088.95 L114.26 1084.69 L122.524 1083.02 L127.2 1083.02 L127.2 1113.65 L134.839 1113.65 L134.839 1117.58 L114.931 1117.58 L114.931 1113.65 Z" fill="#000000" fill-rule="nonzero" fill-opacity="1" /><path clip-path="url(#clip450)" d="M154.283 1086.1 Q150.672 1086.1 148.843 1089.67 Q147.038 1093.21 147.038 1100.34 Q147.038 1107.44 148.843 1111.01 Q150.672 1114.55 154.283 1114.55 Q157.917 1114.55 159.723 1111.01 Q161.552 1107.44 161.552 1100.34 Q161.552 1093.21 159.723 1089.67 Q157.917 1086.1 154.283 1086.1 M154.283 1082.4 Q160.093 1082.4 163.149 1087 Q166.227 1091.59 166.227 1100.34 Q166.227 1109.06 163.149 1113.67 Q160.093 1118.25 154.283 1118.25 Q148.473 1118.25 145.394 1113.67 Q142.339 1109.06 142.339 1100.34 Q142.339 1091.59 145.394 1087 Q148.473 1082.4 154.283 1082.4 Z" fill="#000000" fill-rule="nonzero" fill-opacity="1" /><path clip-path="url(#clip450)" d="M166.227 1076.5 L190.339 1076.5 L190.339 1079.7 L166.227 1079.7 L166.227 1076.5 Z" fill="#000000" fill-rule="nonzero" fill-opacity="1" /><path clip-path="url(#clip450)" d="M199.197 1086.98 L205.404 1086.98 L205.404 1065.55 L198.652 1066.91 L198.652 1063.45 L205.366 1062.09 L209.166 1062.09 L209.166 1086.98 L215.372 1086.98 L215.372 1090.17 L199.197 1090.17 L199.197 1086.98 Z" fill="#000000" fill-rule="nonzero" fill-opacity="1" /><path clip-path="url(#clip450)" d="M231.171 1064.59 Q228.237 1064.59 226.751 1067.49 Q225.284 1070.37 225.284 1076.16 Q225.284 1081.93 226.751 1084.83 Q228.237 1087.71 231.171 1087.71 Q234.124 1087.71 235.591 1084.83 Q237.076 1081.93 237.076 1076.16 Q237.076 1070.37 235.591 1067.49 Q234.124 1064.59 231.171 1064.59 M231.171 1061.58 Q235.891 1061.58 238.374 1065.33 Q240.876 1069.05 240.876 1076.16 Q240.876 1083.25 238.374 1086.99 Q235.891 1090.72 231.171 1090.72 Q226.45 1090.72 223.949 1086.99 Q221.466 1083.25 221.466 1076.16 Q221.466 1069.05 223.949 1065.33 Q226.45 1061.58 231.171 1061.58 Z" fill="#000000" fill-rule="nonzero" fill-opacity="1" /><path clip-path="url(#clip450)" d="M140.247 740.743 L147.886 740.743 L147.886 714.377 L139.575 716.044 L139.575 711.785 L147.839 710.118 L152.515 710.118 L152.515 740.743 L160.154 740.743 L160.154 744.678 L140.247 744.678 L140.247 740.743 Z" fill="#000000" fill-rule="nonzero" fill-opacity="1" /><path clip-path="url(#clip450)" d="M179.598 713.197 Q175.987 713.197 174.159 716.761 Q172.353 720.303 172.353 727.433 Q172.353 734.539 174.159 738.104 Q175.987 741.646 179.598 741.646 Q183.233 741.646 185.038 738.104 Q186.867 734.539 186.867 727.433 Q186.867 720.303 185.038 716.761 Q183.233 713.197 179.598 713.197 M179.598 709.493 Q185.409 709.493 188.464 714.099 Q191.543 718.683 191.543 727.433 Q191.543 736.16 188.464 740.766 Q185.409 745.349 179.598 745.349 Q173.788 745.349 170.71 740.766 Q167.654 736.16 167.654 727.433 Q167.654 718.683 170.71 714.099 Q173.788 709.493 179.598 709.493 Z" fill="#000000" fill-rule="nonzero" fill-opacity="1" /><path clip-path="url(#clip450)" d="M191.543 703.594 L215.654 703.594 L215.654 706.792 L191.543 706.792 L191.543 703.594 Z" fill="#000000" fill-rule="nonzero" fill-opacity="1" /><path clip-path="url(#clip450)" d="M223.892 689.188 L238.807 689.188 L238.807 692.385 L227.372 692.385 L227.372 699.269 Q228.199 698.986 229.027 698.855 Q229.854 698.704 230.682 698.704 Q235.384 698.704 238.13 701.281 Q240.876 703.858 240.876 708.259 Q240.876 712.791 238.054 715.312 Q235.233 717.813 230.099 717.813 Q228.331 717.813 226.488 717.512 Q224.663 717.211 222.707 716.609 L222.707 712.791 Q224.4 713.713 226.205 714.164 Q228.011 714.616 230.023 714.616 Q233.277 714.616 235.177 712.904 Q237.076 711.193 237.076 708.259 Q237.076 705.325 235.177 703.613 Q233.277 701.902 230.023 701.902 Q228.5 701.902 226.977 702.24 Q225.472 702.579 223.892 703.293 L223.892 689.188 Z" fill="#000000" fill-rule="nonzero" fill-opacity="1" /><path clip-path="url(#clip450)" d="M170.17 367.838 L177.809 367.838 L177.809 341.472 L169.499 343.139 L169.499 338.88 L177.762 337.213 L182.438 337.213 L182.438 367.838 L190.077 367.838 L190.077 371.773 L170.17 371.773 L170.17 367.838 Z" fill="#000000" fill-rule="nonzero" fill-opacity="1" /><path clip-path="url(#clip450)" d="M209.522 340.292 Q205.91 340.292 204.082 343.857 Q202.276 347.398 202.276 354.528 Q202.276 361.634 204.082 365.199 Q205.91 368.741 209.522 368.741 Q213.156 368.741 214.961 365.199 Q216.79 361.634 216.79 354.528 Q216.79 347.398 214.961 343.857 Q213.156 340.292 209.522 340.292 M209.522 336.588 Q215.332 336.588 218.387 341.195 Q221.466 345.778 221.466 354.528 Q221.466 363.255 218.387 367.861 Q215.332 372.444 209.522 372.444 Q203.711 372.444 200.633 367.861 Q197.577 363.255 197.577 354.528 Q197.577 345.778 200.633 341.195 Q203.711 336.588 209.522 336.588 Z" fill="#000000" fill-rule="nonzero" fill-opacity="1" /><path clip-path="url(#clip450)" d="M231.171 318.784 Q228.237 318.784 226.751 321.681 Q225.284 324.558 225.284 330.351 Q225.284 336.125 226.751 339.021 Q228.237 341.899 231.171 341.899 Q234.124 341.899 235.591 339.021 Q237.076 336.125 237.076 330.351 Q237.076 324.558 235.591 321.681 Q234.124 318.784 231.171 318.784 M231.171 315.775 Q235.891 315.775 238.374 319.518 Q240.876 323.242 240.876 330.351 Q240.876 337.441 238.374 341.184 Q235.891 344.908 231.171 344.908 Q226.45 344.908 223.949 341.184 Q221.466 337.441 221.466 330.351 Q221.466 323.242 223.949 319.518 Q226.45 315.775 231.171 315.775 Z" fill="#000000" fill-rule="nonzero" fill-opacity="1" /><path clip-path="url(#clip450)" d="M45.7664 817.313 Q39.4007 817.313 35.8996 819.955 Q32.3984 822.565 32.3984 827.307 Q32.3984 832.018 35.8996 834.66 Q39.4007 837.27 45.7664 837.27 Q52.1003 837.27 55.6014 834.66 Q59.1026 832.018 59.1026 827.307 Q59.1026 822.565 55.6014 819.955 Q52.1003 817.313 45.7664 817.313 M59.58 811.457 Q68.683 811.457 73.1071 815.499 Q77.5631 819.541 77.5631 827.88 Q77.5631 830.967 77.0857 833.705 Q76.6401 836.442 75.6852 839.02 L69.9879 839.02 Q71.3884 836.442 72.0568 833.928 Q72.7252 831.413 72.7252 828.803 Q72.7252 823.042 69.7015 820.178 Q66.7096 817.313 60.6303 817.313 L57.7339 817.313 Q60.885 819.127 62.4446 821.96 Q64.0042 824.793 64.0042 828.739 Q64.0042 835.296 59.0071 839.307 Q54.01 843.317 45.7664 843.317 Q37.491 843.317 32.4939 839.307 Q27.4968 835.296 27.4968 828.739 Q27.4968 824.793 29.0564 821.96 Q30.616 819.127 33.7671 817.313 L28.3562 817.313 L28.3562 811.457 L59.58 811.457 Z" fill="#000000" fill-rule="nonzero" fill-opacity="1" /><path clip-path="url(#clip450)" d="M33.8307 778.737 Q33.2578 779.724 33.0032 780.901 Q32.7167 782.047 32.7167 783.447 Q32.7167 788.413 35.9632 791.086 Q39.1779 793.728 45.2253 793.728 L64.0042 793.728 L64.0042 799.616 L28.3562 799.616 L28.3562 793.728 L33.8944 793.728 Q30.6479 791.882 29.0883 788.922 Q27.4968 785.962 27.4968 781.729 Q27.4968 781.124 27.5923 780.392 Q27.656 779.66 27.8151 778.769 L33.8307 778.737 Z" fill="#000000" fill-rule="nonzero" fill-opacity="1" /><path clip-path="url(#clip450)" d="M46.0847 756.393 Q46.0847 763.491 47.7079 766.228 Q49.3312 768.965 53.2461 768.965 Q56.3653 768.965 58.2114 766.928 Q60.0256 764.86 60.0256 761.327 Q60.0256 756.457 56.5881 753.529 Q53.1188 750.569 47.3897 750.569 L46.0847 750.569 L46.0847 756.393 M43.6657 744.712 L64.0042 744.712 L64.0042 750.569 L58.5933 750.569 Q61.8398 752.574 63.3994 755.566 Q64.9272 758.558 64.9272 762.886 Q64.9272 768.361 61.8716 771.607 Q58.7843 774.822 53.6281 774.822 Q47.6125 774.822 44.5569 770.812 Q41.5014 766.769 41.5014 758.78 L41.5014 750.569 L40.9285 750.569 Q36.8862 750.569 34.6901 753.242 Q32.4621 755.884 32.4621 760.69 Q32.4621 763.746 33.1941 766.642 Q33.9262 769.538 35.3903 772.212 L29.9795 772.212 Q28.7381 768.997 28.1334 765.974 Q27.4968 762.95 27.4968 760.085 Q27.4968 752.351 31.5072 748.532 Q35.5176 744.712 43.6657 744.712 Z" fill="#000000" fill-rule="nonzero" fill-opacity="1" /><path clip-path="url(#clip450)" d="M33.7671 709.191 L14.479 709.191 L14.479 703.335 L64.0042 703.335 L64.0042 709.191 L58.657 709.191 Q61.8398 711.038 63.3994 713.87 Q64.9272 716.671 64.9272 720.618 Q64.9272 727.079 59.771 731.153 Q54.6147 735.195 46.212 735.195 Q37.8093 735.195 32.6531 731.153 Q27.4968 727.079 27.4968 720.618 Q27.4968 716.671 29.0564 713.87 Q30.5842 711.038 33.7671 709.191 M46.212 729.148 Q52.6732 729.148 56.3653 726.506 Q60.0256 723.833 60.0256 719.186 Q60.0256 714.539 56.3653 711.865 Q52.6732 709.191 46.212 709.191 Q39.7508 709.191 36.0905 711.865 Q32.3984 714.539 32.3984 719.186 Q32.3984 723.833 36.0905 726.506 Q39.7508 729.148 46.212 729.148 Z" fill="#000000" fill-rule="nonzero" fill-opacity="1" /><path clip-path="url(#clip450)" d="M969.557 65.7705 L969.557 89.8329 L962.063 89.8329 L962.063 27.2059 L969.557 27.2059 L969.557 34.0924 Q971.907 30.0415 975.471 28.0971 Q979.077 26.1121 984.059 26.1121 Q992.323 26.1121 997.468 32.6746 Q1002.65 39.2371 1002.65 49.9314 Q1002.65 60.6258 997.468 67.1883 Q992.323 73.7508 984.059 73.7508 Q979.077 73.7508 975.471 71.8063 Q971.907 69.8214 969.557 65.7705 M994.916 49.9314 Q994.916 41.7081 991.513 37.0496 Q988.151 32.3505 982.236 32.3505 Q976.322 32.3505 972.919 37.0496 Q969.557 41.7081 969.557 49.9314 Q969.557 58.1548 972.919 62.8538 Q976.322 67.5124 982.236 67.5124 Q988.151 67.5124 991.513 62.8538 Q994.916 58.1548 994.916 49.9314 Z" fill="#000000" fill-rule="nonzero" fill-opacity="1" /><path clip-path="url(#clip450)" d="M1041.3 34.1734 Q1040.04 33.4443 1038.54 33.1202 Q1037.09 32.7556 1035.3 32.7556 Q1028.98 32.7556 1025.58 36.8875 Q1022.22 40.9789 1022.22 48.6757 L1022.22 72.576 L1014.72 72.576 L1014.72 27.2059 L1022.22 27.2059 L1022.22 34.2544 Q1024.57 30.1225 1028.34 28.1376 Q1032.1 26.1121 1037.49 26.1121 Q1038.26 26.1121 1039.19 26.2337 Q1040.12 26.3147 1041.26 26.5172 L1041.3 34.1734 Z" fill="#000000" fill-rule="nonzero" fill-opacity="1" /><path clip-path="url(#clip450)" d="M1064.87 32.4315 Q1058.88 32.4315 1055.4 37.1306 Q1051.91 41.7891 1051.91 49.9314 Q1051.91 58.0738 1055.36 62.7728 Q1058.84 67.4314 1064.87 67.4314 Q1070.83 67.4314 1074.31 62.7323 Q1077.8 58.0333 1077.8 49.9314 Q1077.8 41.8701 1074.31 37.1711 Q1070.83 32.4315 1064.87 32.4315 M1064.87 26.1121 Q1074.6 26.1121 1080.15 32.4315 Q1085.7 38.7509 1085.7 49.9314 Q1085.7 61.0714 1080.15 67.4314 Q1074.6 73.7508 1064.87 73.7508 Q1055.11 73.7508 1049.56 67.4314 Q1044.05 61.0714 1044.05 49.9314 Q1044.05 38.7509 1049.56 32.4315 Q1055.11 26.1121 1064.87 26.1121 Z" fill="#000000" fill-rule="nonzero" fill-opacity="1" /><path clip-path="url(#clip450)" d="M1130.62 49.9314 Q1130.62 41.7081 1127.22 37.0496 Q1123.86 32.3505 1117.94 32.3505 Q1112.03 32.3505 1108.62 37.0496 Q1105.26 41.7081 1105.26 49.9314 Q1105.26 58.1548 1108.62 62.8538 Q1112.03 67.5124 1117.94 67.5124 Q1123.86 67.5124 1127.22 62.8538 Q1130.62 58.1548 1130.62 49.9314 M1105.26 34.0924 Q1107.61 30.0415 1111.18 28.0971 Q1114.78 26.1121 1119.76 26.1121 Q1128.03 26.1121 1133.17 32.6746 Q1138.36 39.2371 1138.36 49.9314 Q1138.36 60.6258 1133.17 67.1883 Q1128.03 73.7508 1119.76 73.7508 Q1114.78 73.7508 1111.18 71.8063 Q1107.61 69.8214 1105.26 65.7705 L1105.26 72.576 L1097.77 72.576 L1097.77 9.54393 L1105.26 9.54393 L1105.26 34.0924 Z" fill="#000000" fill-rule="nonzero" fill-opacity="1" /><path clip-path="url(#clip450)" d="M1150.71 9.54393 L1158.17 9.54393 L1158.17 72.576 L1150.71 72.576 L1150.71 9.54393 Z" fill="#000000" fill-rule="nonzero" fill-opacity="1" /><path clip-path="url(#clip450)" d="M1212.57 48.0275 L1212.57 51.6733 L1178.3 51.6733 Q1178.79 59.3701 1182.92 63.421 Q1187.09 67.4314 1194.5 67.4314 Q1198.8 67.4314 1202.81 66.3781 Q1206.86 65.3249 1210.83 63.2184 L1210.83 70.267 Q1206.82 71.9684 1202.61 72.8596 Q1198.39 73.7508 1194.06 73.7508 Q1183.2 73.7508 1176.84 67.4314 Q1170.52 61.1119 1170.52 50.3365 Q1170.52 39.1965 1176.52 32.6746 Q1182.55 26.1121 1192.76 26.1121 Q1201.92 26.1121 1207.22 32.0264 Q1212.57 37.9003 1212.57 48.0275 M1205.12 45.84 Q1205.04 39.7232 1201.67 36.0774 Q1198.35 32.4315 1192.84 32.4315 Q1186.6 32.4315 1182.84 35.9558 Q1179.11 39.4801 1178.54 45.8805 L1205.12 45.84 M1186.44 6.22219 L1197.87 21.3726 L1191.67 21.3726 L1178.46 6.22219 L1186.44 6.22219 Z" fill="#000000" fill-rule="nonzero" fill-opacity="1" /><path clip-path="url(#clip450)" d="M1260.13 35.9153 Q1262.92 30.8922 1266.81 28.5022 Q1270.7 26.1121 1275.97 26.1121 Q1283.06 26.1121 1286.9 31.0947 Q1290.75 36.0368 1290.75 45.1919 L1290.75 72.576 L1283.26 72.576 L1283.26 45.4349 Q1283.26 38.913 1280.95 35.7533 Q1278.64 32.5936 1273.9 32.5936 Q1268.11 32.5936 1264.75 36.4419 Q1261.38 40.2903 1261.38 46.9338 L1261.38 72.576 L1253.89 72.576 L1253.89 45.4349 Q1253.89 38.8725 1251.58 35.7533 Q1249.27 32.5936 1244.45 32.5936 Q1238.74 32.5936 1235.38 36.4824 Q1232.02 40.3308 1232.02 46.9338 L1232.02 72.576 L1224.52 72.576 L1224.52 27.2059 L1232.02 27.2059 L1232.02 34.2544 Q1234.57 30.082 1238.13 28.0971 Q1241.7 26.1121 1246.6 26.1121 Q1251.54 26.1121 1254.98 28.6237 Q1258.47 31.1352 1260.13 35.9153 Z" fill="#000000" fill-rule="nonzero" fill-opacity="1" /><path clip-path="url(#clip450)" d="M1344.43 48.0275 L1344.43 51.6733 L1310.16 51.6733 Q1310.64 59.3701 1314.78 63.421 Q1318.95 67.4314 1326.36 67.4314 Q1330.65 67.4314 1334.67 66.3781 Q1338.72 65.3249 1342.69 63.2184 L1342.69 70.267 Q1338.68 71.9684 1334.46 72.8596 Q1330.25 73.7508 1325.92 73.7508 Q1315.06 73.7508 1308.7 67.4314 Q1302.38 61.1119 1302.38 50.3365 Q1302.38 39.1965 1308.37 32.6746 Q1314.41 26.1121 1324.62 26.1121 Q1333.77 26.1121 1339.08 32.0264 Q1344.43 37.9003 1344.43 48.0275 M1336.97 45.84 Q1336.89 39.7232 1333.53 36.0774 Q1330.21 32.4315 1324.7 32.4315 Q1318.46 32.4315 1314.69 35.9558 Q1310.97 39.4801 1310.4 45.8805 L1336.97 45.84 Z" fill="#000000" fill-rule="nonzero" fill-opacity="1" /><path clip-path="url(#clip450)" d="M1384.94 62.2867 L1393.48 62.2867 L1393.48 72.576 L1384.94 72.576 L1384.94 62.2867 M1384.94 29.6769 L1393.48 29.6769 L1393.48 39.9662 L1384.94 39.9662 L1384.94 29.6769 Z" fill="#000000" fill-rule="nonzero" fill-opacity="1" /><path clip-path="url(#clip450)" d="M1444.73 14.324 L1444.73 27.2059 L1460.08 27.2059 L1460.08 32.9987 L1444.73 32.9987 L1444.73 57.6282 Q1444.73 63.1779 1446.23 64.7578 Q1447.77 66.3376 1452.42 66.3376 L1460.08 66.3376 L1460.08 72.576 L1452.42 72.576 Q1443.8 72.576 1440.52 69.3758 Q1437.23 66.1351 1437.23 57.6282 L1437.23 32.9987 L1431.77 32.9987 L1431.77 27.2059 L1437.23 27.2059 L1437.23 14.324 L1444.73 14.324 Z" fill="#000000" fill-rule="nonzero" fill-opacity="1" /><path clip-path="url(#clip450)" d="M1477.09 65.7705 L1477.09 89.8329 L1469.6 89.8329 L1469.6 27.2059 L1477.09 27.2059 L1477.09 34.0924 Q1479.44 30.0415 1483.01 28.0971 Q1486.61 26.1121 1491.6 26.1121 Q1499.86 26.1121 1505.01 32.6746 Q1510.19 39.2371 1510.19 49.9314 Q1510.19 60.6258 1505.01 67.1883 Q1499.86 73.7508 1491.6 73.7508 Q1486.61 73.7508 1483.01 71.8063 Q1479.44 69.8214 1477.09 65.7705 M1502.45 49.9314 Q1502.45 41.7081 1499.05 37.0496 Q1495.69 32.3505 1489.77 32.3505 Q1483.86 32.3505 1480.46 37.0496 Q1477.09 41.7081 1477.09 49.9314 Q1477.09 58.1548 1480.46 62.8538 Q1483.86 67.5124 1489.77 67.5124 Q1495.69 67.5124 1499.05 62.8538 Q1502.45 58.1548 1502.45 49.9314 Z" fill="#000000" fill-rule="nonzero" fill-opacity="1" /><path clip-path="url(#clip450)" d="M1530.65 65.6895 L1559.21 65.6895 L1559.21 72.576 L1520.8 72.576 L1520.8 65.6895 Q1525.46 60.8689 1533.48 52.7671 Q1541.54 44.6248 1543.61 42.2752 Q1547.54 37.8598 1549.08 34.8216 Q1550.66 31.7429 1550.66 28.7857 Q1550.66 23.9651 1547.26 20.927 Q1543.89 17.8888 1538.47 17.8888 Q1534.62 17.8888 1530.32 19.2256 Q1526.07 20.5624 1521.21 23.2765 L1521.21 15.0127 Q1526.15 13.0277 1530.45 12.015 Q1534.74 11.0023 1538.3 11.0023 Q1547.7 11.0023 1553.29 15.7013 Q1558.88 20.4004 1558.88 28.2591 Q1558.88 31.9859 1557.46 35.3482 Q1556.09 38.6699 1552.4 43.2069 Q1551.39 44.3817 1545.96 50.0125 Q1540.53 55.6027 1530.65 65.6895 Z" fill="#000000" fill-rule="nonzero" fill-opacity="1" /><path clip-path="url(#clip450)" d="M1598.87 19.2256 L1578.21 51.5113 L1598.87 51.5113 L1598.87 19.2256 M1596.72 12.096 L1607.01 12.096 L1607.01 51.5113 L1615.64 51.5113 L1615.64 58.3168 L1607.01 58.3168 L1607.01 72.576 L1598.87 72.576 L1598.87 58.3168 L1571.56 58.3168 L1571.56 50.4176 L1596.72 12.096 Z" fill="#000000" fill-rule="nonzero" fill-opacity="1" /><path clip-path="url(#clip450)" d="M1646.67 17.4837 Q1640.35 17.4837 1637.15 23.7221 Q1633.99 29.92 1633.99 42.3968 Q1633.99 54.833 1637.15 61.0714 Q1640.35 67.2693 1646.67 67.2693 Q1653.03 67.2693 1656.19 61.0714 Q1659.39 54.833 1659.39 42.3968 Q1659.39 29.92 1656.19 23.7221 Q1653.03 17.4837 1646.67 17.4837 M1646.67 11.0023 Q1656.83 11.0023 1662.18 19.0636 Q1667.57 27.0843 1667.57 42.3968 Q1667.57 57.6687 1662.18 65.73 Q1656.83 73.7508 1646.67 73.7508 Q1636.5 73.7508 1631.11 65.73 Q1625.76 57.6687 1625.76 42.3968 Q1625.76 27.0843 1631.11 19.0636 Q1636.5 11.0023 1646.67 11.0023 Z" fill="#000000" fill-rule="nonzero" fill-opacity="1" /><polyline clip-path="url(#clip452)" style="stroke:#009af9; stroke-linecap:round; stroke-linejoin:round; stroke-width:4; stroke-opacity:1; fill:none" points="335.627,160.256 2294,1386.4 "/>
<polyline clip-path="url(#clip452)" style="stroke:#e26f46; stroke-linecap:round; stroke-linejoin:round; stroke-width:4; stroke-opacity:1; fill:none" points="335.627,160.256 2294,1386.4 "/>
<polyline clip-path="url(#clip452)" style="stroke:#3da44d; stroke-linecap:round; stroke-linejoin:round; stroke-width:4; stroke-opacity:1; fill:none" points="335.627,160.256 2294,1386.4 "/>
<polyline clip-path="url(#clip452)" style="stroke:#c271d2; stroke-linecap:round; stroke-linejoin:round; stroke-width:4; stroke-opacity:1; fill:none" points="335.627,160.256 2294,1386.4 "/>
<polyline clip-path="url(#clip452)" style="stroke:#ac8d18; stroke-linecap:round; stroke-linejoin:round; stroke-width:4; stroke-opacity:1; fill:none" points="335.627,160.256 2294,1386.4 "/>
<path clip-path="url(#clip450)" d="M1752.87 477.836 L2283.56 477.836 L2283.56 166.796 L1752.87 166.796  Z" fill="#ffffff" fill-rule="evenodd" fill-opacity="1"/>
<polyline clip-path="url(#clip450)" style="stroke:#000000; stroke-linecap:round; stroke-linejoin:round; stroke-width:4; stroke-opacity:1; fill:none" points="1752.87,477.836 2283.56,477.836 2283.56,166.796 1752.87,166.796 1752.87,477.836 "/>
<polyline clip-path="url(#clip450)" style="stroke:#009af9; stroke-linecap:round; stroke-linejoin:round; stroke-width:4; stroke-opacity:1; fill:none" points="1775.94,218.636 1914.33,218.636 "/>
<path clip-path="url(#clip450)" d="M1937.39 201.356 L1942.07 201.356 L1942.07 231.981 L1958.9 231.981 L1958.9 235.916 L1937.39 235.916 L1937.39 201.356 Z" fill="#000000" fill-rule="nonzero" fill-opacity="1" /><path clip-path="url(#clip450)" d="M1963.81 201.356 L1970.77 201.356 L1979.59 224.874 L1988.46 201.356 L1995.43 201.356 L1995.43 235.916 L1990.87 235.916 L1990.87 205.569 L1981.95 229.272 L1977.26 229.272 L1968.34 205.569 L1968.34 235.916 L1963.81 235.916 L1963.81 201.356 Z" fill="#000000" fill-rule="nonzero" fill-opacity="1" /><path clip-path="url(#clip450)" d="M2024.22 243.786 L2024.22 247.096 L1999.59 247.096 L1999.59 243.786 L2024.22 243.786 Z" fill="#000000" fill-rule="nonzero" fill-opacity="1" /><path clip-path="url(#clip450)" d="M2049.13 202.49 L2049.13 207.05 Q2046.47 205.777 2044.11 205.152 Q2041.75 204.527 2039.55 204.527 Q2035.73 204.527 2033.64 206.008 Q2031.58 207.49 2031.58 210.221 Q2031.58 212.513 2032.95 213.694 Q2034.34 214.851 2038.18 215.569 L2041 216.147 Q2046.24 217.143 2048.71 219.666 Q2051.21 222.166 2051.21 226.379 Q2051.21 231.402 2047.83 233.994 Q2044.48 236.587 2037.97 236.587 Q2035.52 236.587 2032.74 236.031 Q2029.99 235.476 2027.02 234.388 L2027.02 229.573 Q2029.87 231.17 2032.6 231.981 Q2035.33 232.791 2037.97 232.791 Q2041.98 232.791 2044.15 231.217 Q2046.33 229.643 2046.33 226.726 Q2046.33 224.18 2044.75 222.744 Q2043.2 221.309 2039.64 220.592 L2036.79 220.036 Q2031.56 218.995 2029.22 216.772 Q2026.88 214.55 2026.88 210.592 Q2026.88 206.008 2030.1 203.37 Q2033.34 200.731 2039.01 200.731 Q2041.44 200.731 2043.97 201.171 Q2046.49 201.61 2049.13 202.49 Z" fill="#000000" fill-rule="nonzero" fill-opacity="1" /><path clip-path="url(#clip450)" d="M2063.18 205.198 L2063.18 218.184 L2069.06 218.184 Q2072.32 218.184 2074.11 216.495 Q2075.89 214.805 2075.89 211.68 Q2075.89 208.578 2074.11 206.888 Q2072.32 205.198 2069.06 205.198 L2063.18 205.198 M2058.5 201.356 L2069.06 201.356 Q2074.87 201.356 2077.83 203.995 Q2080.82 206.61 2080.82 211.68 Q2080.82 216.795 2077.83 219.411 Q2074.87 222.027 2069.06 222.027 L2063.18 222.027 L2063.18 235.916 L2058.5 235.916 L2058.5 201.356 Z" fill="#000000" fill-rule="nonzero" fill-opacity="1" /><path clip-path="url(#clip450)" d="M2110.66 230.985 L2110.66 221.703 L2103.02 221.703 L2103.02 217.86 L2115.29 217.86 L2115.29 232.698 Q2112.58 234.619 2109.31 235.615 Q2106.05 236.587 2102.35 236.587 Q2094.25 236.587 2089.66 231.865 Q2085.1 227.119 2085.1 218.67 Q2085.1 210.198 2089.66 205.476 Q2094.25 200.731 2102.35 200.731 Q2105.73 200.731 2108.76 201.564 Q2111.81 202.397 2114.38 204.018 L2114.38 208.995 Q2111.79 206.796 2108.87 205.684 Q2105.96 204.573 2102.74 204.573 Q2096.4 204.573 2093.2 208.115 Q2090.03 211.657 2090.03 218.67 Q2090.03 225.661 2093.2 229.203 Q2096.4 232.744 2102.74 232.744 Q2105.22 232.744 2107.16 232.328 Q2109.11 231.888 2110.66 230.985 Z" fill="#000000" fill-rule="nonzero" fill-opacity="1" /><polyline clip-path="url(#clip450)" style="stroke:#e26f46; stroke-linecap:round; stroke-linejoin:round; stroke-width:4; stroke-opacity:1; fill:none" points="1775.94,270.476 1914.33,270.476 "/>
<path clip-path="url(#clip450)" d="M1937.39 253.196 L1942.07 253.196 L1942.07 283.821 L1958.9 283.821 L1958.9 287.756 L1937.39 287.756 L1937.39 253.196 Z" fill="#000000" fill-rule="nonzero" fill-opacity="1" /><path clip-path="url(#clip450)" d="M1963.81 253.196 L1970.77 253.196 L1979.59 276.714 L1988.46 253.196 L1995.43 253.196 L1995.43 287.756 L1990.87 287.756 L1990.87 257.409 L1981.95 281.112 L1977.26 281.112 L1968.34 257.409 L1968.34 287.756 L1963.81 287.756 L1963.81 253.196 Z" fill="#000000" fill-rule="nonzero" fill-opacity="1" /><path clip-path="url(#clip450)" d="M2024.22 295.626 L2024.22 298.936 L1999.59 298.936 L1999.59 295.626 L2024.22 295.626 Z" fill="#000000" fill-rule="nonzero" fill-opacity="1" /><path clip-path="url(#clip450)" d="M2039.96 257.802 L2033.62 275.001 L2046.33 275.001 L2039.96 257.802 M2037.32 253.196 L2042.63 253.196 L2055.8 287.756 L2050.94 287.756 L2047.79 278.89 L2032.21 278.89 L2029.06 287.756 L2024.13 287.756 L2037.32 253.196 Z" fill="#000000" fill-rule="nonzero" fill-opacity="1" /><path clip-path="url(#clip450)" d="M2082.21 272.108 L2082.21 287.756 L2077.95 287.756 L2077.95 272.247 Q2077.95 268.566 2076.51 266.737 Q2075.08 264.909 2072.21 264.909 Q2068.76 264.909 2066.77 267.108 Q2064.78 269.307 2064.78 273.103 L2064.78 287.756 L2060.5 287.756 L2060.5 261.83 L2064.78 261.83 L2064.78 265.858 Q2066.31 263.52 2068.37 262.362 Q2070.45 261.205 2073.16 261.205 Q2077.63 261.205 2079.92 263.983 Q2082.21 266.737 2082.21 272.108 Z" fill="#000000" fill-rule="nonzero" fill-opacity="1" /><path clip-path="url(#clip450)" d="M2107.76 265.765 L2107.76 251.737 L2112.02 251.737 L2112.02 287.756 L2107.76 287.756 L2107.76 283.867 Q2106.42 286.182 2104.36 287.316 Q2102.32 288.427 2099.45 288.427 Q2094.75 288.427 2091.79 284.677 Q2088.85 280.927 2088.85 274.816 Q2088.85 268.705 2091.79 264.955 Q2094.75 261.205 2099.45 261.205 Q2102.32 261.205 2104.36 262.339 Q2106.42 263.45 2107.76 265.765 M2093.25 274.816 Q2093.25 279.515 2095.17 282.2 Q2097.12 284.862 2100.5 284.862 Q2103.88 284.862 2105.82 282.2 Q2107.76 279.515 2107.76 274.816 Q2107.76 270.117 2105.82 267.455 Q2103.88 264.77 2100.5 264.77 Q2097.12 264.77 2095.17 267.455 Q2093.25 270.117 2093.25 274.816 Z" fill="#000000" fill-rule="nonzero" fill-opacity="1" /><path clip-path="url(#clip450)" d="M2135.82 265.811 Q2135.1 265.395 2134.25 265.21 Q2133.41 265.001 2132.39 265.001 Q2128.78 265.001 2126.84 267.362 Q2124.92 269.7 2124.92 274.098 L2124.92 287.756 L2120.63 287.756 L2120.63 261.83 L2124.92 261.83 L2124.92 265.858 Q2126.26 263.497 2128.41 262.362 Q2130.56 261.205 2133.64 261.205 Q2134.08 261.205 2134.62 261.274 Q2135.15 261.321 2135.8 261.436 L2135.82 265.811 Z" fill="#000000" fill-rule="nonzero" fill-opacity="1" /><path clip-path="url(#clip450)" d="M2161.42 273.728 L2161.42 275.811 L2141.84 275.811 Q2142.12 280.209 2144.48 282.524 Q2146.86 284.816 2151.1 284.816 Q2153.55 284.816 2155.84 284.214 Q2158.16 283.612 2160.43 282.409 L2160.43 286.436 Q2158.13 287.408 2155.73 287.918 Q2153.32 288.427 2150.84 288.427 Q2144.64 288.427 2141 284.816 Q2137.39 281.205 2137.39 275.047 Q2137.39 268.682 2140.82 264.955 Q2144.27 261.205 2150.1 261.205 Q2155.33 261.205 2158.37 264.585 Q2161.42 267.941 2161.42 273.728 M2157.16 272.478 Q2157.12 268.983 2155.19 266.899 Q2153.3 264.816 2150.15 264.816 Q2146.58 264.816 2144.43 266.83 Q2142.3 268.844 2141.98 272.501 L2157.16 272.478 Z" fill="#000000" fill-rule="nonzero" fill-opacity="1" /><path clip-path="url(#clip450)" d="M2168.41 261.83 L2172.67 261.83 L2172.67 287.756 L2168.41 287.756 L2168.41 261.83 M2168.41 251.737 L2172.67 251.737 L2172.67 257.131 L2168.41 257.131 L2168.41 251.737 Z" fill="#000000" fill-rule="nonzero" fill-opacity="1" /><path clip-path="url(#clip450)" d="M2201.28 295.626 L2201.28 298.936 L2176.65 298.936 L2176.65 295.626 L2201.28 295.626 Z" fill="#000000" fill-rule="nonzero" fill-opacity="1" /><path clip-path="url(#clip450)" d="M2217.07 274.723 Q2211.91 274.723 2209.92 275.904 Q2207.93 277.084 2207.93 279.932 Q2207.93 282.2 2209.41 283.543 Q2210.91 284.862 2213.48 284.862 Q2217.02 284.862 2219.15 282.362 Q2221.3 279.839 2221.3 275.672 L2221.3 274.723 L2217.07 274.723 M2225.56 272.964 L2225.56 287.756 L2221.3 287.756 L2221.3 283.821 Q2219.85 286.182 2217.67 287.316 Q2215.49 288.427 2212.35 288.427 Q2208.37 288.427 2206 286.205 Q2203.67 283.959 2203.67 280.209 Q2203.67 275.834 2206.58 273.612 Q2209.52 271.39 2215.33 271.39 L2221.3 271.39 L2221.3 270.973 Q2221.3 268.034 2219.36 266.436 Q2217.44 264.816 2213.94 264.816 Q2211.72 264.816 2209.62 265.348 Q2207.51 265.881 2205.56 266.946 L2205.56 263.01 Q2207.9 262.108 2210.1 261.668 Q2212.3 261.205 2214.38 261.205 Q2220.01 261.205 2222.79 264.122 Q2225.56 267.038 2225.56 272.964 Z" fill="#000000" fill-rule="nonzero" fill-opacity="1" /><path clip-path="url(#clip450)" d="M2234.34 251.737 L2238.6 251.737 L2238.6 287.756 L2234.34 287.756 L2234.34 251.737 Z" fill="#000000" fill-rule="nonzero" fill-opacity="1" /><path clip-path="url(#clip450)" d="M2251.72 254.469 L2251.72 261.83 L2260.49 261.83 L2260.49 265.14 L2251.72 265.14 L2251.72 279.214 Q2251.72 282.385 2252.58 283.288 Q2253.46 284.191 2256.12 284.191 L2260.49 284.191 L2260.49 287.756 L2256.12 287.756 Q2251.19 287.756 2249.31 285.927 Q2247.44 284.075 2247.44 279.214 L2247.44 265.14 L2244.31 265.14 L2244.31 261.83 L2247.44 261.83 L2247.44 254.469 L2251.72 254.469 Z" fill="#000000" fill-rule="nonzero" fill-opacity="1" /><polyline clip-path="url(#clip450)" style="stroke:#3da44d; stroke-linecap:round; stroke-linejoin:round; stroke-width:4; stroke-opacity:1; fill:none" points="1775.94,322.316 1914.33,322.316 "/>
<path clip-path="url(#clip450)" d="M1937.39 305.036 L1942.07 305.036 L1942.07 335.661 L1958.9 335.661 L1958.9 339.596 L1937.39 339.596 L1937.39 305.036 Z" fill="#000000" fill-rule="nonzero" fill-opacity="1" /><path clip-path="url(#clip450)" d="M1963.81 305.036 L1970.77 305.036 L1979.59 328.554 L1988.46 305.036 L1995.43 305.036 L1995.43 339.596 L1990.87 339.596 L1990.87 309.249 L1981.95 332.952 L1977.26 332.952 L1968.34 309.249 L1968.34 339.596 L1963.81 339.596 L1963.81 305.036 Z" fill="#000000" fill-rule="nonzero" fill-opacity="1" /><path clip-path="url(#clip450)" d="M2024.22 347.466 L2024.22 350.776 L1999.59 350.776 L1999.59 347.466 L2024.22 347.466 Z" fill="#000000" fill-rule="nonzero" fill-opacity="1" /><path clip-path="url(#clip450)" d="M2039.96 309.642 L2033.62 326.841 L2046.33 326.841 L2039.96 309.642 M2037.32 305.036 L2042.63 305.036 L2055.8 339.596 L2050.94 339.596 L2047.79 330.73 L2032.21 330.73 L2029.06 339.596 L2024.13 339.596 L2037.32 305.036 Z" fill="#000000" fill-rule="nonzero" fill-opacity="1" /><path clip-path="url(#clip450)" d="M2082.21 323.948 L2082.21 339.596 L2077.95 339.596 L2077.95 324.087 Q2077.95 320.406 2076.51 318.577 Q2075.08 316.749 2072.21 316.749 Q2068.76 316.749 2066.77 318.948 Q2064.78 321.147 2064.78 324.943 L2064.78 339.596 L2060.5 339.596 L2060.5 313.67 L2064.78 313.67 L2064.78 317.698 Q2066.31 315.36 2068.37 314.202 Q2070.45 313.045 2073.16 313.045 Q2077.63 313.045 2079.92 315.823 Q2082.21 318.577 2082.21 323.948 Z" fill="#000000" fill-rule="nonzero" fill-opacity="1" /><path clip-path="url(#clip450)" d="M2107.76 317.605 L2107.76 303.577 L2112.02 303.577 L2112.02 339.596 L2107.76 339.596 L2107.76 335.707 Q2106.42 338.022 2104.36 339.156 Q2102.32 340.267 2099.45 340.267 Q2094.75 340.267 2091.79 336.517 Q2088.85 332.767 2088.85 326.656 Q2088.85 320.545 2091.79 316.795 Q2094.75 313.045 2099.45 313.045 Q2102.32 313.045 2104.36 314.179 Q2106.42 315.29 2107.76 317.605 M2093.25 326.656 Q2093.25 331.355 2095.17 334.04 Q2097.12 336.702 2100.5 336.702 Q2103.88 336.702 2105.82 334.04 Q2107.76 331.355 2107.76 326.656 Q2107.76 321.957 2105.82 319.295 Q2103.88 316.61 2100.5 316.61 Q2097.12 316.61 2095.17 319.295 Q2093.25 321.957 2093.25 326.656 Z" fill="#000000" fill-rule="nonzero" fill-opacity="1" /><path clip-path="url(#clip450)" d="M2135.82 317.651 Q2135.1 317.235 2134.25 317.05 Q2133.41 316.841 2132.39 316.841 Q2128.78 316.841 2126.84 319.202 Q2124.92 321.54 2124.92 325.938 L2124.92 339.596 L2120.63 339.596 L2120.63 313.67 L2124.92 313.67 L2124.92 317.698 Q2126.26 315.337 2128.41 314.202 Q2130.56 313.045 2133.64 313.045 Q2134.08 313.045 2134.62 313.114 Q2135.15 313.161 2135.8 313.276 L2135.82 317.651 Z" fill="#000000" fill-rule="nonzero" fill-opacity="1" /><path clip-path="url(#clip450)" d="M2161.42 325.568 L2161.42 327.651 L2141.84 327.651 Q2142.12 332.049 2144.48 334.364 Q2146.86 336.656 2151.1 336.656 Q2153.55 336.656 2155.84 336.054 Q2158.16 335.452 2160.43 334.249 L2160.43 338.276 Q2158.13 339.248 2155.73 339.758 Q2153.32 340.267 2150.84 340.267 Q2144.64 340.267 2141 336.656 Q2137.39 333.045 2137.39 326.887 Q2137.39 320.522 2140.82 316.795 Q2144.27 313.045 2150.1 313.045 Q2155.33 313.045 2158.37 316.425 Q2161.42 319.781 2161.42 325.568 M2157.16 324.318 Q2157.12 320.823 2155.19 318.739 Q2153.3 316.656 2150.15 316.656 Q2146.58 316.656 2144.43 318.67 Q2142.3 320.684 2141.98 324.341 L2157.16 324.318 Z" fill="#000000" fill-rule="nonzero" fill-opacity="1" /><path clip-path="url(#clip450)" d="M2168.41 313.67 L2172.67 313.67 L2172.67 339.596 L2168.41 339.596 L2168.41 313.67 M2168.41 303.577 L2172.67 303.577 L2172.67 308.971 L2168.41 308.971 L2168.41 303.577 Z" fill="#000000" fill-rule="nonzero" fill-opacity="1" /><polyline clip-path="url(#clip450)" style="stroke:#c271d2; stroke-linecap:round; stroke-linejoin:round; stroke-width:4; stroke-opacity:1; fill:none" points="1775.94,374.156 1914.33,374.156 "/>
<path clip-path="url(#clip450)" d="M1937.39 356.876 L1942.07 356.876 L1942.07 387.501 L1958.9 387.501 L1958.9 391.436 L1937.39 391.436 L1937.39 356.876 Z" fill="#000000" fill-rule="nonzero" fill-opacity="1" /><path clip-path="url(#clip450)" d="M1963.81 356.876 L1970.77 356.876 L1979.59 380.394 L1988.46 356.876 L1995.43 356.876 L1995.43 391.436 L1990.87 391.436 L1990.87 361.089 L1981.95 384.792 L1977.26 384.792 L1968.34 361.089 L1968.34 391.436 L1963.81 391.436 L1963.81 356.876 Z" fill="#000000" fill-rule="nonzero" fill-opacity="1" /><path clip-path="url(#clip450)" d="M2024.22 399.306 L2024.22 402.616 L1999.59 402.616 L1999.59 399.306 L2024.22 399.306 Z" fill="#000000" fill-rule="nonzero" fill-opacity="1" /><path clip-path="url(#clip450)" d="M2049.13 358.01 L2049.13 362.57 Q2046.47 361.297 2044.11 360.672 Q2041.75 360.047 2039.55 360.047 Q2035.73 360.047 2033.64 361.528 Q2031.58 363.01 2031.58 365.741 Q2031.58 368.033 2032.95 369.214 Q2034.34 370.371 2038.18 371.089 L2041 371.667 Q2046.24 372.663 2048.71 375.186 Q2051.21 377.686 2051.21 381.899 Q2051.21 386.922 2047.83 389.514 Q2044.48 392.107 2037.97 392.107 Q2035.52 392.107 2032.74 391.551 Q2029.99 390.996 2027.02 389.908 L2027.02 385.093 Q2029.87 386.69 2032.6 387.501 Q2035.33 388.311 2037.97 388.311 Q2041.98 388.311 2044.15 386.737 Q2046.33 385.163 2046.33 382.246 Q2046.33 379.7 2044.75 378.264 Q2043.2 376.829 2039.64 376.112 L2036.79 375.556 Q2031.56 374.515 2029.22 372.292 Q2026.88 370.07 2026.88 366.112 Q2026.88 361.528 2030.1 358.89 Q2033.34 356.251 2039.01 356.251 Q2041.44 356.251 2043.97 356.691 Q2046.49 357.13 2049.13 358.01 Z" fill="#000000" fill-rule="nonzero" fill-opacity="1" /><path clip-path="url(#clip450)" d="M2063.18 360.718 L2063.18 373.704 L2069.06 373.704 Q2072.32 373.704 2074.11 372.015 Q2075.89 370.325 2075.89 367.2 Q2075.89 364.098 2074.11 362.408 Q2072.32 360.718 2069.06 360.718 L2063.18 360.718 M2058.5 356.876 L2069.06 356.876 Q2074.87 356.876 2077.83 359.515 Q2080.82 362.13 2080.82 367.2 Q2080.82 372.315 2077.83 374.931 Q2074.87 377.547 2069.06 377.547 L2063.18 377.547 L2063.18 391.436 L2058.5 391.436 L2058.5 356.876 Z" fill="#000000" fill-rule="nonzero" fill-opacity="1" /><path clip-path="url(#clip450)" d="M2110.66 386.505 L2110.66 377.223 L2103.02 377.223 L2103.02 373.38 L2115.29 373.38 L2115.29 388.218 Q2112.58 390.139 2109.31 391.135 Q2106.05 392.107 2102.35 392.107 Q2094.25 392.107 2089.66 387.385 Q2085.1 382.639 2085.1 374.19 Q2085.1 365.718 2089.66 360.996 Q2094.25 356.251 2102.35 356.251 Q2105.73 356.251 2108.76 357.084 Q2111.81 357.917 2114.38 359.538 L2114.38 364.515 Q2111.79 362.316 2108.87 361.204 Q2105.96 360.093 2102.74 360.093 Q2096.4 360.093 2093.2 363.635 Q2090.03 367.177 2090.03 374.19 Q2090.03 381.181 2093.2 384.723 Q2096.4 388.264 2102.74 388.264 Q2105.22 388.264 2107.16 387.848 Q2109.11 387.408 2110.66 386.505 Z" fill="#000000" fill-rule="nonzero" fill-opacity="1" /><path clip-path="url(#clip450)" d="M2143.34 399.306 L2143.34 402.616 L2118.71 402.616 L2118.71 399.306 L2143.34 399.306 Z" fill="#000000" fill-rule="nonzero" fill-opacity="1" /><path clip-path="url(#clip450)" d="M2159.13 378.403 Q2153.97 378.403 2151.98 379.584 Q2149.99 380.764 2149.99 383.612 Q2149.99 385.88 2151.47 387.223 Q2152.97 388.542 2155.54 388.542 Q2159.08 388.542 2161.21 386.042 Q2163.37 383.519 2163.37 379.352 L2163.37 378.403 L2159.13 378.403 M2167.62 376.644 L2167.62 391.436 L2163.37 391.436 L2163.37 387.501 Q2161.91 389.862 2159.73 390.996 Q2157.56 392.107 2154.41 392.107 Q2150.43 392.107 2148.06 389.885 Q2145.73 387.639 2145.73 383.889 Q2145.73 379.514 2148.64 377.292 Q2151.58 375.07 2157.39 375.07 L2163.37 375.07 L2163.37 374.653 Q2163.37 371.714 2161.42 370.116 Q2159.5 368.496 2156 368.496 Q2153.78 368.496 2151.68 369.028 Q2149.57 369.561 2147.62 370.626 L2147.62 366.69 Q2149.96 365.788 2152.16 365.348 Q2154.36 364.885 2156.44 364.885 Q2162.07 364.885 2164.85 367.802 Q2167.62 370.718 2167.62 376.644 Z" fill="#000000" fill-rule="nonzero" fill-opacity="1" /><path clip-path="url(#clip450)" d="M2176.4 355.417 L2180.66 355.417 L2180.66 391.436 L2176.4 391.436 L2176.4 355.417 Z" fill="#000000" fill-rule="nonzero" fill-opacity="1" /><path clip-path="url(#clip450)" d="M2193.78 358.149 L2193.78 365.51 L2202.56 365.51 L2202.56 368.82 L2193.78 368.82 L2193.78 382.894 Q2193.78 386.065 2194.64 386.968 Q2195.52 387.871 2198.18 387.871 L2202.56 387.871 L2202.56 391.436 L2198.18 391.436 Q2193.25 391.436 2191.37 389.607 Q2189.5 387.755 2189.5 382.894 L2189.5 368.82 L2186.37 368.82 L2186.37 365.51 L2189.5 365.51 L2189.5 358.149 L2193.78 358.149 Z" fill="#000000" fill-rule="nonzero" fill-opacity="1" /><polyline clip-path="url(#clip450)" style="stroke:#ac8d18; stroke-linecap:round; stroke-linejoin:round; stroke-width:4; stroke-opacity:1; fill:none" points="1775.94,425.996 1914.33,425.996 "/>
<path clip-path="url(#clip450)" d="M1937.39 408.716 L1942.07 408.716 L1942.07 439.341 L1958.9 439.341 L1958.9 443.276 L1937.39 443.276 L1937.39 408.716 Z" fill="#000000" fill-rule="nonzero" fill-opacity="1" /><path clip-path="url(#clip450)" d="M1963.81 408.716 L1970.77 408.716 L1979.59 432.234 L1988.46 408.716 L1995.43 408.716 L1995.43 443.276 L1990.87 443.276 L1990.87 412.929 L1981.95 436.632 L1977.26 436.632 L1968.34 412.929 L1968.34 443.276 L1963.81 443.276 L1963.81 408.716 Z" fill="#000000" fill-rule="nonzero" fill-opacity="1" /></svg>
