<?xml version="1.0" encoding="utf-8"?>
<svg xmlns="http://www.w3.org/2000/svg" xmlns:xlink="http://www.w3.org/1999/xlink" width="600" height="400" viewBox="0 0 2400 1600">
<defs>
  <clipPath id="clip620">
    <rect x="0" y="0" width="2400" height="1600"/>
  </clipPath>
</defs>
<path clip-path="url(#clip620)" d="M0 1600 L2400 1600 L2400 0 L0 0  Z" fill="#ffffff" fill-rule="evenodd" fill-opacity="1"/>
<defs>
  <clipPath id="clip621">
    <rect x="480" y="0" width="1681" height="1600"/>
  </clipPath>
</defs>
<path clip-path="url(#clip620)" d="M251.56 1423.18 L2352.76 1423.18 L2352.76 123.472 L251.56 123.472  Z" fill="#ffffff" fill-rule="evenodd" fill-opacity="1"/>
<defs>
  <clipPath id="clip622">
    <rect x="251" y="123" width="2102" height="1301"/>
  </clipPath>
</defs>
<polyline clip-path="url(#clip622)" style="stroke:#000000; stroke-linecap:round; stroke-linejoin:round; stroke-width:2; stroke-opacity:0.1; fill:none" points="258.863,1423.18 258.863,123.472 "/>
<polyline clip-path="url(#clip622)" style="stroke:#000000; stroke-linecap:round; stroke-linejoin:round; stroke-width:2; stroke-opacity:0.1; fill:none" points="780.511,1423.18 780.511,123.472 "/>
<polyline clip-path="url(#clip622)" style="stroke:#000000; stroke-linecap:round; stroke-linejoin:round; stroke-width:2; stroke-opacity:0.1; fill:none" points="1302.16,1423.18 1302.16,123.472 "/>
<polyline clip-path="url(#clip622)" style="stroke:#000000; stroke-linecap:round; stroke-linejoin:round; stroke-width:2; stroke-opacity:0.1; fill:none" points="1823.81,1423.18 1823.81,123.472 "/>
<polyline clip-path="url(#clip622)" style="stroke:#000000; stroke-linecap:round; stroke-linejoin:round; stroke-width:2; stroke-opacity:0.1; fill:none" points="2345.45,1423.18 2345.45,123.472 "/>
<polyline clip-path="url(#clip620)" style="stroke:#000000; stroke-linecap:round; stroke-linejoin:round; stroke-width:4; stroke-opacity:1; fill:none" points="251.56,1423.18 2352.76,1423.18 "/>
<polyline clip-path="url(#clip620)" style="stroke:#000000; stroke-linecap:round; stroke-linejoin:round; stroke-width:4; stroke-opacity:1; fill:none" points="258.863,1423.18 258.863,1404.28 "/>
<polyline clip-path="url(#clip620)" style="stroke:#000000; stroke-linecap:round; stroke-linejoin:round; stroke-width:4; stroke-opacity:1; fill:none" points="780.511,1423.18 780.511,1404.28 "/>
<polyline clip-path="url(#clip620)" style="stroke:#000000; stroke-linecap:round; stroke-linejoin:round; stroke-width:4; stroke-opacity:1; fill:none" points="1302.16,1423.18 1302.16,1404.28 "/>
<polyline clip-path="url(#clip620)" style="stroke:#000000; stroke-linecap:round; stroke-linejoin:round; stroke-width:4; stroke-opacity:1; fill:none" points="1823.81,1423.18 1823.81,1404.28 "/>
<polyline clip-path="url(#clip620)" style="stroke:#000000; stroke-linecap:round; stroke-linejoin:round; stroke-width:4; stroke-opacity:1; fill:none" points="2345.45,1423.18 2345.45,1404.28 "/>
<path clip-path="url(#clip620)" d="M258.863 1454.1 Q255.252 1454.1 253.424 1457.66 Q251.618 1461.2 251.618 1468.33 Q251.618 1475.44 253.424 1479.01 Q255.252 1482.55 258.863 1482.55 Q262.498 1482.55 264.303 1479.01 Q266.132 1475.44 266.132 1468.33 Q266.132 1461.2 264.303 1457.66 Q262.498 1454.1 258.863 1454.1 M258.863 1450.39 Q264.673 1450.39 267.729 1455 Q270.808 1459.58 270.808 1468.33 Q270.808 1477.06 267.729 1481.67 Q264.673 1486.25 258.863 1486.25 Q253.053 1486.25 249.974 1481.67 Q246.919 1477.06 246.919 1468.33 Q246.919 1459.58 249.974 1455 Q253.053 1450.39 258.863 1450.39 Z" fill="#000000" fill-rule="nonzero" fill-opacity="1" /><path clip-path="url(#clip620)" d="M755.198 1481.64 L762.837 1481.64 L762.837 1455.28 L754.527 1456.95 L754.527 1452.69 L762.791 1451.02 L767.467 1451.02 L767.467 1481.64 L775.106 1481.64 L775.106 1485.58 L755.198 1485.58 L755.198 1481.64 Z" fill="#000000" fill-rule="nonzero" fill-opacity="1" /><path clip-path="url(#clip620)" d="M794.55 1454.1 Q790.939 1454.1 789.11 1457.66 Q787.305 1461.2 787.305 1468.33 Q787.305 1475.44 789.11 1479.01 Q790.939 1482.55 794.55 1482.55 Q798.184 1482.55 799.99 1479.01 Q801.818 1475.44 801.818 1468.33 Q801.818 1461.2 799.99 1457.66 Q798.184 1454.1 794.55 1454.1 M794.55 1450.39 Q800.36 1450.39 803.416 1455 Q806.494 1459.58 806.494 1468.33 Q806.494 1477.06 803.416 1481.67 Q800.36 1486.25 794.55 1486.25 Q788.74 1486.25 785.661 1481.67 Q782.606 1477.06 782.606 1468.33 Q782.606 1459.58 785.661 1455 Q788.74 1450.39 794.55 1450.39 Z" fill="#000000" fill-rule="nonzero" fill-opacity="1" /><path clip-path="url(#clip620)" d="M1280.93 1481.64 L1297.25 1481.64 L1297.25 1485.58 L1275.31 1485.58 L1275.31 1481.64 Q1277.97 1478.89 1282.55 1474.26 Q1287.16 1469.61 1288.34 1468.27 Q1290.58 1465.74 1291.46 1464.01 Q1292.37 1462.25 1292.37 1460.56 Q1292.37 1457.8 1290.42 1456.07 Q1288.5 1454.33 1285.4 1454.33 Q1283.2 1454.33 1280.75 1455.09 Q1278.32 1455.86 1275.54 1457.41 L1275.54 1452.69 Q1278.36 1451.55 1280.82 1450.97 Q1283.27 1450.39 1285.31 1450.39 Q1290.68 1450.39 1293.87 1453.08 Q1297.07 1455.77 1297.07 1460.26 Q1297.07 1462.39 1296.26 1464.31 Q1295.47 1466.2 1293.36 1468.8 Q1292.78 1469.47 1289.68 1472.69 Q1286.58 1475.88 1280.93 1481.64 Z" fill="#000000" fill-rule="nonzero" fill-opacity="1" /><path clip-path="url(#clip620)" d="M1317.07 1454.1 Q1313.45 1454.1 1311.63 1457.66 Q1309.82 1461.2 1309.82 1468.33 Q1309.82 1475.44 1311.63 1479.01 Q1313.45 1482.55 1317.07 1482.55 Q1320.7 1482.55 1322.51 1479.01 Q1324.33 1475.44 1324.33 1468.33 Q1324.33 1461.2 1322.51 1457.66 Q1320.7 1454.1 1317.07 1454.1 M1317.07 1450.39 Q1322.88 1450.39 1325.93 1455 Q1329.01 1459.58 1329.01 1468.33 Q1329.01 1477.06 1325.93 1481.67 Q1322.88 1486.25 1317.07 1486.25 Q1311.26 1486.25 1308.18 1481.67 Q1305.12 1477.06 1305.12 1468.33 Q1305.12 1459.58 1308.18 1455 Q1311.26 1450.39 1317.07 1450.39 Z" fill="#000000" fill-rule="nonzero" fill-opacity="1" /><path clip-path="url(#clip620)" d="M1812.65 1466.95 Q1816 1467.66 1817.88 1469.93 Q1819.78 1472.2 1819.78 1475.53 Q1819.78 1480.65 1816.26 1483.45 Q1812.74 1486.25 1806.26 1486.25 Q1804.08 1486.25 1801.77 1485.81 Q1799.48 1485.39 1797.02 1484.54 L1797.02 1480.02 Q1798.97 1481.16 1801.28 1481.74 Q1803.6 1482.32 1806.12 1482.32 Q1810.52 1482.32 1812.81 1480.58 Q1815.12 1478.84 1815.12 1475.53 Q1815.12 1472.48 1812.97 1470.77 Q1810.84 1469.03 1807.02 1469.03 L1803 1469.03 L1803 1465.19 L1807.21 1465.19 Q1810.66 1465.19 1812.49 1463.82 Q1814.31 1462.43 1814.31 1459.84 Q1814.31 1457.18 1812.42 1455.77 Q1810.54 1454.33 1807.02 1454.33 Q1805.1 1454.33 1802.9 1454.75 Q1800.7 1455.16 1798.06 1456.04 L1798.06 1451.88 Q1800.73 1451.14 1803.04 1450.77 Q1805.38 1450.39 1807.44 1450.39 Q1812.76 1450.39 1815.87 1452.83 Q1818.97 1455.23 1818.97 1459.35 Q1818.97 1462.22 1817.32 1464.21 Q1815.68 1466.18 1812.65 1466.95 Z" fill="#000000" fill-rule="nonzero" fill-opacity="1" /><path clip-path="url(#clip620)" d="M1838.64 1454.1 Q1835.03 1454.1 1833.2 1457.66 Q1831.4 1461.2 1831.4 1468.33 Q1831.4 1475.44 1833.2 1479.01 Q1835.03 1482.55 1838.64 1482.55 Q1842.28 1482.55 1844.08 1479.01 Q1845.91 1475.44 1845.91 1468.33 Q1845.91 1461.2 1844.08 1457.66 Q1842.28 1454.1 1838.64 1454.1 M1838.64 1450.39 Q1844.45 1450.39 1847.51 1455 Q1850.59 1459.58 1850.59 1468.33 Q1850.59 1477.06 1847.51 1481.67 Q1844.45 1486.25 1838.64 1486.25 Q1832.83 1486.25 1829.75 1481.67 Q1826.7 1477.06 1826.7 1468.33 Q1826.7 1459.58 1829.75 1455 Q1832.83 1450.39 1838.64 1450.39 Z" fill="#000000" fill-rule="nonzero" fill-opacity="1" /><path clip-path="url(#clip620)" d="M2333.62 1455.09 L2321.82 1473.54 L2333.62 1473.54 L2333.62 1455.09 M2332.4 1451.02 L2338.28 1451.02 L2338.28 1473.54 L2343.21 1473.54 L2343.21 1477.43 L2338.28 1477.43 L2338.28 1485.58 L2333.62 1485.58 L2333.62 1477.43 L2318.02 1477.43 L2318.02 1472.92 L2332.4 1451.02 Z" fill="#000000" fill-rule="nonzero" fill-opacity="1" /><path clip-path="url(#clip620)" d="M2360.94 1454.1 Q2357.33 1454.1 2355.5 1457.66 Q2353.69 1461.2 2353.69 1468.33 Q2353.69 1475.44 2355.5 1479.01 Q2357.33 1482.55 2360.94 1482.55 Q2364.57 1482.55 2366.38 1479.01 Q2368.21 1475.44 2368.21 1468.33 Q2368.21 1461.2 2366.38 1457.66 Q2364.57 1454.1 2360.94 1454.1 M2360.94 1450.39 Q2366.75 1450.39 2369.8 1455 Q2372.88 1459.58 2372.88 1468.33 Q2372.88 1477.06 2369.8 1481.67 Q2366.75 1486.25 2360.94 1486.25 Q2355.13 1486.25 2352.05 1481.67 Q2348.99 1477.06 2348.99 1468.33 Q2348.99 1459.58 2352.05 1455 Q2355.13 1450.39 2360.94 1450.39 Z" fill="#000000" fill-rule="nonzero" fill-opacity="1" /><path clip-path="url(#clip620)" d="M1286.34 1518.52 L1292.23 1518.52 L1292.23 1547.77 L1309.7 1532.4 L1317.18 1532.4 L1298.27 1549.07 L1317.98 1568.04 L1310.34 1568.04 L1292.23 1550.63 L1292.23 1568.04 L1286.34 1568.04 L1286.34 1518.52 Z" fill="#000000" fill-rule="nonzero" fill-opacity="1" /><polyline clip-path="url(#clip622)" style="stroke:#000000; stroke-linecap:round; stroke-linejoin:round; stroke-width:2; stroke-opacity:0.1; fill:none" points="251.56,1106.19 2352.76,1106.19 "/>
<polyline clip-path="url(#clip622)" style="stroke:#000000; stroke-linecap:round; stroke-linejoin:round; stroke-width:2; stroke-opacity:0.1; fill:none" points="251.56,240.29 2352.76,240.29 "/>
<polyline clip-path="url(#clip620)" style="stroke:#000000; stroke-linecap:round; stroke-linejoin:round; stroke-width:4; stroke-opacity:1; fill:none" points="251.56,1423.18 251.56,123.472 "/>
<polyline clip-path="url(#clip620)" style="stroke:#000000; stroke-linecap:round; stroke-linejoin:round; stroke-width:4; stroke-opacity:1; fill:none" points="251.56,1106.19 270.458,1106.19 "/>
<polyline clip-path="url(#clip620)" style="stroke:#000000; stroke-linecap:round; stroke-linejoin:round; stroke-width:4; stroke-opacity:1; fill:none" points="251.56,240.29 270.458,240.29 "/>
<path clip-path="url(#clip620)" d="M114.931 1125.99 L122.57 1125.99 L122.57 1099.62 L114.26 1101.29 L114.26 1097.03 L122.524 1095.36 L127.2 1095.36 L127.2 1125.99 L134.839 1125.99 L134.839 1129.92 L114.931 1129.92 L114.931 1125.99 Z" fill="#000000" fill-rule="nonzero" fill-opacity="1" /><path clip-path="url(#clip620)" d="M154.283 1098.44 Q150.672 1098.44 148.843 1102.01 Q147.038 1105.55 147.038 1112.68 Q147.038 1119.78 148.843 1123.35 Q150.672 1126.89 154.283 1126.89 Q157.917 1126.89 159.723 1123.35 Q161.552 1119.78 161.552 1112.68 Q161.552 1105.55 159.723 1102.01 Q157.917 1098.44 154.283 1098.44 M154.283 1094.74 Q160.093 1094.74 163.149 1099.34 Q166.227 1103.93 166.227 1112.68 Q166.227 1121.4 163.149 1126.01 Q160.093 1130.59 154.283 1130.59 Q148.473 1130.59 145.394 1126.01 Q142.339 1121.4 142.339 1112.68 Q142.339 1103.93 145.394 1099.34 Q148.473 1094.74 154.283 1094.74 Z" fill="#000000" fill-rule="nonzero" fill-opacity="1" /><path clip-path="url(#clip620)" d="M166.227 1088.84 L190.339 1088.84 L190.339 1092.04 L166.227 1092.04 L166.227 1088.84 Z" fill="#000000" fill-rule="nonzero" fill-opacity="1" /><path clip-path="url(#clip620)" d="M198.577 1074.43 L213.491 1074.43 L213.491 1077.63 L202.056 1077.63 L202.056 1084.51 Q202.884 1084.23 203.711 1084.1 Q204.539 1083.95 205.366 1083.95 Q210.068 1083.95 212.814 1086.53 Q215.56 1089.1 215.56 1093.5 Q215.56 1098.04 212.739 1100.56 Q209.918 1103.06 204.783 1103.06 Q203.015 1103.06 201.172 1102.76 Q199.348 1102.46 197.392 1101.85 L197.392 1098.04 Q199.085 1098.96 200.89 1099.41 Q202.696 1099.86 204.708 1099.86 Q207.962 1099.86 209.861 1098.15 Q211.761 1096.44 211.761 1093.5 Q211.761 1090.57 209.861 1088.86 Q207.962 1087.15 204.708 1087.15 Q203.185 1087.15 201.661 1087.48 Q200.157 1087.82 198.577 1088.54 L198.577 1074.43 Z" fill="#000000" fill-rule="nonzero" fill-opacity="1" /><path clip-path="url(#clip620)" d="M144.855 260.083 L152.493 260.083 L152.493 233.717 L144.183 235.384 L144.183 231.124 L152.447 229.458 L157.123 229.458 L157.123 260.083 L164.762 260.083 L164.762 264.018 L144.855 264.018 L144.855 260.083 Z" fill="#000000" fill-rule="nonzero" fill-opacity="1" /><path clip-path="url(#clip620)" d="M184.206 232.536 Q180.595 232.536 178.766 236.101 Q176.961 239.643 176.961 246.772 Q176.961 253.879 178.766 257.444 Q180.595 260.985 184.206 260.985 Q187.84 260.985 189.646 257.444 Q191.475 253.879 191.475 246.772 Q191.475 239.643 189.646 236.101 Q187.84 232.536 184.206 232.536 M184.206 228.833 Q190.016 228.833 193.072 233.439 Q196.151 238.022 196.151 246.772 Q196.151 255.499 193.072 260.106 Q190.016 264.689 184.206 264.689 Q178.396 264.689 175.317 260.106 Q172.262 255.499 172.262 246.772 Q172.262 238.022 175.317 233.439 Q178.396 228.833 184.206 228.833 Z" fill="#000000" fill-rule="nonzero" fill-opacity="1" /><path clip-path="url(#clip620)" d="M205.855 211.029 Q202.921 211.029 201.436 213.925 Q199.969 216.803 199.969 222.596 Q199.969 228.369 201.436 231.266 Q202.921 234.143 205.855 234.143 Q208.808 234.143 210.275 231.266 Q211.761 228.369 211.761 222.596 Q211.761 216.803 210.275 213.925 Q208.808 211.029 205.855 211.029 M205.855 208.019 Q210.576 208.019 213.059 211.762 Q215.56 215.486 215.56 222.596 Q215.56 229.686 213.059 233.429 Q210.576 237.153 205.855 237.153 Q201.135 237.153 198.633 233.429 Q196.151 229.686 196.151 222.596 Q196.151 215.486 198.633 211.762 Q201.135 208.019 205.855 208.019 Z" fill="#000000" fill-rule="nonzero" fill-opacity="1" /><path clip-path="url(#clip620)" d="M32.4621 801.797 Q32.4621 806.507 36.1542 809.244 Q39.8145 811.982 46.212 811.982 Q52.6095 811.982 56.3017 809.276 Q59.9619 806.539 59.9619 801.797 Q59.9619 797.118 56.2698 794.381 Q52.5777 791.643 46.212 791.643 Q39.8781 791.643 36.186 794.381 Q32.4621 797.118 32.4621 801.797 M27.4968 801.797 Q27.4968 794.158 32.4621 789.797 Q37.4273 785.437 46.212 785.437 Q54.9649 785.437 59.9619 789.797 Q64.9272 794.158 64.9272 801.797 Q64.9272 809.467 59.9619 813.828 Q54.9649 818.156 46.212 818.156 Q37.4273 818.156 32.4621 813.828 Q27.4968 809.467 27.4968 801.797 Z" fill="#000000" fill-rule="nonzero" fill-opacity="1" /><path clip-path="url(#clip620)" d="M46.212 750.139 Q39.7508 750.139 36.0905 752.812 Q32.3984 755.454 32.3984 760.101 Q32.3984 764.748 36.0905 767.422 Q39.7508 770.064 46.212 770.064 Q52.6732 770.064 56.3653 767.422 Q60.0256 764.748 60.0256 760.101 Q60.0256 755.454 56.3653 752.812 Q52.6732 750.139 46.212 750.139 M33.7671 770.064 Q30.5842 768.218 29.0564 765.417 Q27.4968 762.584 27.4968 758.669 Q27.4968 752.176 32.6531 748.134 Q37.8093 744.06 46.212 744.06 Q54.6147 744.06 59.771 748.134 Q64.9272 752.176 64.9272 758.669 Q64.9272 762.584 63.3994 765.417 Q61.8398 768.218 58.657 770.064 L64.0042 770.064 L64.0042 775.952 L14.479 775.952 L14.479 770.064 L33.7671 770.064 Z" fill="#000000" fill-rule="nonzero" fill-opacity="1" /><path clip-path="url(#clip620)" d="M28.3562 734.352 L28.3562 728.495 L64.6407 728.495 Q71.452 728.495 74.5076 731.105 Q77.5631 733.684 77.5631 739.445 L77.5631 741.673 L72.5979 741.673 L72.5979 740.113 Q72.5979 736.771 71.0383 735.561 Q69.5105 734.352 64.6407 734.352 L28.3562 734.352 M14.479 734.352 L14.479 728.495 L21.895 728.495 L21.895 734.352 L14.479 734.352 Z" fill="#000000" fill-rule="nonzero" fill-opacity="1" /><path clip-path="url(#clip620)" d="M956.758 65.7705 L956.758 89.8329 L949.264 89.8329 L949.264 27.2059 L956.758 27.2059 L956.758 34.0924 Q959.107 30.0415 962.672 28.0971 Q966.277 26.1121 971.26 26.1121 Q979.524 26.1121 984.668 32.6746 Q989.854 39.2371 989.854 49.9314 Q989.854 60.6258 984.668 67.1883 Q979.524 73.7508 971.26 73.7508 Q966.277 73.7508 962.672 71.8063 Q959.107 69.8214 956.758 65.7705 M982.116 49.9314 Q982.116 41.7081 978.714 37.0496 Q975.351 32.3505 969.437 32.3505 Q963.523 32.3505 960.12 37.0496 Q956.758 41.7081 956.758 49.9314 Q956.758 58.1548 960.12 62.8538 Q963.523 67.5124 969.437 67.5124 Q975.351 67.5124 978.714 62.8538 Q982.116 58.1548 982.116 49.9314 Z" fill="#000000" fill-rule="nonzero" fill-opacity="1" /><path clip-path="url(#clip620)" d="M1028.5 34.1734 Q1027.24 33.4443 1025.74 33.1202 Q1024.29 32.7556 1022.5 32.7556 Q1016.18 32.7556 1012.78 36.8875 Q1009.42 40.9789 1009.42 48.6757 L1009.42 72.576 L1001.93 72.576 L1001.93 27.2059 L1009.42 27.2059 L1009.42 34.2544 Q1011.77 30.1225 1015.54 28.1376 Q1019.3 26.1121 1024.69 26.1121 Q1025.46 26.1121 1026.39 26.2337 Q1027.32 26.3147 1028.46 26.5172 L1028.5 34.1734 Z" fill="#000000" fill-rule="nonzero" fill-opacity="1" /><path clip-path="url(#clip620)" d="M1052.08 32.4315 Q1046.08 32.4315 1042.6 37.1306 Q1039.11 41.7891 1039.11 49.9314 Q1039.11 58.0738 1042.56 62.7728 Q1046.04 67.4314 1052.08 67.4314 Q1058.03 67.4314 1061.51 62.7323 Q1065 58.0333 1065 49.9314 Q1065 41.8701 1061.51 37.1711 Q1058.03 32.4315 1052.08 32.4315 M1052.08 26.1121 Q1061.8 26.1121 1067.35 32.4315 Q1072.9 38.7509 1072.9 49.9314 Q1072.9 61.0714 1067.35 67.4314 Q1061.8 73.7508 1052.08 73.7508 Q1042.31 73.7508 1036.76 67.4314 Q1031.25 61.0714 1031.25 49.9314 Q1031.25 38.7509 1036.76 32.4315 Q1042.31 26.1121 1052.08 26.1121 Z" fill="#000000" fill-rule="nonzero" fill-opacity="1" /><path clip-path="url(#clip620)" d="M1117.82 49.9314 Q1117.82 41.7081 1114.42 37.0496 Q1111.06 32.3505 1105.14 32.3505 Q1099.23 32.3505 1095.83 37.0496 Q1092.46 41.7081 1092.46 49.9314 Q1092.46 58.1548 1095.83 62.8538 Q1099.23 67.5124 1105.14 67.5124 Q1111.06 67.5124 1114.42 62.8538 Q1117.82 58.1548 1117.82 49.9314 M1092.46 34.0924 Q1094.81 30.0415 1098.38 28.0971 Q1101.98 26.1121 1106.97 26.1121 Q1115.23 26.1121 1120.37 32.6746 Q1125.56 39.2371 1125.56 49.9314 Q1125.56 60.6258 1120.37 67.1883 Q1115.23 73.7508 1106.97 73.7508 Q1101.98 73.7508 1098.38 71.8063 Q1094.81 69.8214 1092.46 65.7705 L1092.46 72.576 L1084.97 72.576 L1084.97 9.54393 L1092.46 9.54393 L1092.46 34.0924 Z" fill="#000000" fill-rule="nonzero" fill-opacity="1" /><path clip-path="url(#clip620)" d="M1137.91 9.54393 L1145.37 9.54393 L1145.37 72.576 L1137.91 72.576 L1137.91 9.54393 Z" fill="#000000" fill-rule="nonzero" fill-opacity="1" /><path clip-path="url(#clip620)" d="M1199.77 48.0275 L1199.77 51.6733 L1165.5 51.6733 Q1165.99 59.3701 1170.12 63.421 Q1174.29 67.4314 1181.7 67.4314 Q1186 67.4314 1190.01 66.3781 Q1194.06 65.3249 1198.03 63.2184 L1198.03 70.267 Q1194.02 71.9684 1189.81 72.8596 Q1185.59 73.7508 1181.26 73.7508 Q1170.4 73.7508 1164.04 67.4314 Q1157.72 61.1119 1157.72 50.3365 Q1157.72 39.1965 1163.72 32.6746 Q1169.75 26.1121 1179.96 26.1121 Q1189.12 26.1121 1194.42 32.0264 Q1199.77 37.9003 1199.77 48.0275 M1192.32 45.84 Q1192.24 39.7232 1188.87 36.0774 Q1185.55 32.4315 1180.04 32.4315 Q1173.81 32.4315 1170.04 35.9558 Q1166.31 39.4801 1165.74 45.8805 L1192.32 45.84 M1173.64 6.22219 L1185.07 21.3726 L1178.87 21.3726 L1165.66 6.22219 L1173.64 6.22219 Z" fill="#000000" fill-rule="nonzero" fill-opacity="1" /><path clip-path="url(#clip620)" d="M1247.33 35.9153 Q1250.12 30.8922 1254.01 28.5022 Q1257.9 26.1121 1263.17 26.1121 Q1270.26 26.1121 1274.11 31.0947 Q1277.95 36.0368 1277.95 45.1919 L1277.95 72.576 L1270.46 72.576 L1270.46 45.4349 Q1270.46 38.913 1268.15 35.7533 Q1265.84 32.5936 1261.1 32.5936 Q1255.31 32.5936 1251.95 36.4419 Q1248.58 40.2903 1248.58 46.9338 L1248.58 72.576 L1241.09 72.576 L1241.09 45.4349 Q1241.09 38.8725 1238.78 35.7533 Q1236.47 32.5936 1231.65 32.5936 Q1225.94 32.5936 1222.58 36.4824 Q1219.22 40.3308 1219.22 46.9338 L1219.22 72.576 L1211.72 72.576 L1211.72 27.2059 L1219.22 27.2059 L1219.22 34.2544 Q1221.77 30.082 1225.33 28.0971 Q1228.9 26.1121 1233.8 26.1121 Q1238.74 26.1121 1242.18 28.6237 Q1245.67 31.1352 1247.33 35.9153 Z" fill="#000000" fill-rule="nonzero" fill-opacity="1" /><path clip-path="url(#clip620)" d="M1331.63 48.0275 L1331.63 51.6733 L1297.36 51.6733 Q1297.84 59.3701 1301.98 63.421 Q1306.15 67.4314 1313.56 67.4314 Q1317.86 67.4314 1321.87 66.3781 Q1325.92 65.3249 1329.89 63.2184 L1329.89 70.267 Q1325.88 71.9684 1321.66 72.8596 Q1317.45 73.7508 1313.12 73.7508 Q1302.26 73.7508 1295.9 67.4314 Q1289.58 61.1119 1289.58 50.3365 Q1289.58 39.1965 1295.58 32.6746 Q1301.61 26.1121 1311.82 26.1121 Q1320.97 26.1121 1326.28 32.0264 Q1331.63 37.9003 1331.63 48.0275 M1324.17 45.84 Q1324.09 39.7232 1320.73 36.0774 Q1317.41 32.4315 1311.9 32.4315 Q1305.66 32.4315 1301.89 35.9558 Q1298.17 39.4801 1297.6 45.8805 L1324.17 45.84 Z" fill="#000000" fill-rule="nonzero" fill-opacity="1" /><path clip-path="url(#clip620)" d="M1372.14 62.2867 L1380.68 62.2867 L1380.68 72.576 L1372.14 72.576 L1372.14 62.2867 M1372.14 29.6769 L1380.68 29.6769 L1380.68 39.9662 L1372.14 39.9662 L1372.14 29.6769 Z" fill="#000000" fill-rule="nonzero" fill-opacity="1" /><path clip-path="url(#clip620)" d="M1431.93 14.324 L1431.93 27.2059 L1447.28 27.2059 L1447.28 32.9987 L1431.93 32.9987 L1431.93 57.6282 Q1431.93 63.1779 1433.43 64.7578 Q1434.97 66.3376 1439.63 66.3376 L1447.28 66.3376 L1447.28 72.576 L1439.63 72.576 Q1431 72.576 1427.72 69.3758 Q1424.43 66.1351 1424.43 57.6282 L1424.43 32.9987 L1418.97 32.9987 L1418.97 27.2059 L1424.43 27.2059 L1424.43 14.324 L1431.93 14.324 Z" fill="#000000" fill-rule="nonzero" fill-opacity="1" /><path clip-path="url(#clip620)" d="M1464.3 65.7705 L1464.3 89.8329 L1456.8 89.8329 L1456.8 27.2059 L1464.3 27.2059 L1464.3 34.0924 Q1466.65 30.0415 1470.21 28.0971 Q1473.82 26.1121 1478.8 26.1121 Q1487.06 26.1121 1492.21 32.6746 Q1497.39 39.2371 1497.39 49.9314 Q1497.39 60.6258 1492.21 67.1883 Q1487.06 73.7508 1478.8 73.7508 Q1473.82 73.7508 1470.21 71.8063 Q1466.65 69.8214 1464.3 65.7705 M1489.65 49.9314 Q1489.65 41.7081 1486.25 37.0496 Q1482.89 32.3505 1476.97 32.3505 Q1471.06 32.3505 1467.66 37.0496 Q1464.3 41.7081 1464.3 49.9314 Q1464.3 58.1548 1467.66 62.8538 Q1471.06 67.5124 1476.97 67.5124 Q1482.89 67.5124 1486.25 62.8538 Q1489.65 58.1548 1489.65 49.9314 Z" fill="#000000" fill-rule="nonzero" fill-opacity="1" /><path clip-path="url(#clip620)" d="M1517.85 65.6895 L1546.41 65.6895 L1546.41 72.576 L1508 72.576 L1508 65.6895 Q1512.66 60.8689 1520.68 52.7671 Q1528.75 44.6248 1530.81 42.2752 Q1534.74 37.8598 1536.28 34.8216 Q1537.86 31.7429 1537.86 28.7857 Q1537.86 23.9651 1534.46 20.927 Q1531.09 17.8888 1525.67 17.8888 Q1521.82 17.8888 1517.52 19.2256 Q1513.27 20.5624 1508.41 23.2765 L1508.41 15.0127 Q1513.35 13.0277 1517.65 12.015 Q1521.94 11.0023 1525.5 11.0023 Q1534.9 11.0023 1540.49 15.7013 Q1546.08 20.4004 1546.08 28.2591 Q1546.08 31.9859 1544.67 35.3482 Q1543.29 38.6699 1539.6 43.2069 Q1538.59 44.3817 1533.16 50.0125 Q1527.73 55.6027 1517.85 65.6895 Z" fill="#000000" fill-rule="nonzero" fill-opacity="1" /><path clip-path="url(#clip620)" d="M1586.07 19.2256 L1565.41 51.5113 L1586.07 51.5113 L1586.07 19.2256 M1583.92 12.096 L1594.21 12.096 L1594.21 51.5113 L1602.84 51.5113 L1602.84 58.3168 L1594.21 58.3168 L1594.21 72.576 L1586.07 72.576 L1586.07 58.3168 L1558.76 58.3168 L1558.76 50.4176 L1583.92 12.096 Z" fill="#000000" fill-rule="nonzero" fill-opacity="1" /><path clip-path="url(#clip620)" d="M1634.88 39.075 Q1629.37 39.075 1626.13 42.8424 Q1622.93 46.6097 1622.93 53.1722 Q1622.93 59.6941 1626.13 63.502 Q1629.37 67.2693 1634.88 67.2693 Q1640.39 67.2693 1643.59 63.502 Q1646.83 59.6941 1646.83 53.1722 Q1646.83 46.6097 1643.59 42.8424 Q1640.39 39.075 1634.88 39.075 M1651.12 13.4328 L1651.12 20.8865 Q1648.04 19.4281 1644.88 18.6585 Q1641.77 17.8888 1638.69 17.8888 Q1630.59 17.8888 1626.29 23.3575 Q1622.04 28.8262 1621.43 39.8852 Q1623.82 36.3609 1627.43 34.4975 Q1631.03 32.5936 1635.37 32.5936 Q1644.48 32.5936 1649.75 38.1433 Q1655.05 43.6525 1655.05 53.1722 Q1655.05 62.4892 1649.54 68.12 Q1644.03 73.7508 1634.88 73.7508 Q1624.39 73.7508 1618.84 65.73 Q1613.29 57.6687 1613.29 42.3968 Q1613.29 28.0566 1620.09 19.5497 Q1626.9 11.0023 1638.36 11.0023 Q1641.44 11.0023 1644.56 11.6099 Q1647.72 12.2175 1651.12 13.4328 Z" fill="#000000" fill-rule="nonzero" fill-opacity="1" /><polyline clip-path="url(#clip622)" style="stroke:#009af9; stroke-linecap:round; stroke-linejoin:round; stroke-width:4; stroke-opacity:1; fill:none" points="311.028,160.256 363.193,216.609 415.358,285.724 467.522,350.322 519.687,396.146 571.852,437.891 624.016,483.767 676.181,522.503 728.346,565.16 780.511,647.437 832.675,714.272 884.84,804.293 937.005,853.504 989.17,882.381 1041.33,917.593 1093.5,946.412 1145.66,980.266 1197.83,1009.1 1249.99,1042.78 1302.16,1071.62 1354.32,1105.28 1406.49,1134.13 1458.65,1167.78 1510.82,1196.63 1562.98,1230.28 1615.15,1259.13 1667.31,1292.78 1719.48,1321.62 1771.64,1355.28 1823.81,1384.12 "/>
<polyline clip-path="url(#clip622)" style="stroke:#e26f46; stroke-linecap:round; stroke-linejoin:round; stroke-width:4; stroke-opacity:1; fill:none" points="311.028,160.256 363.193,216.609 415.358,274.112 467.522,364.225 519.687,402.198 571.852,445.992 624.016,476.429 676.181,502.287 728.346,531.13 780.511,601.002 832.675,631.81 884.84,673.481 937.005,702.635 989.17,744.355 1041.33,768.408 1093.5,795.71 1145.66,846.319 1197.83,869.727 1249.99,895.538 1302.16,920.789 1354.32,942.756 1406.49,967.04 1458.65,993.752 1510.82,1018.83 1562.98,1040.89 1615.15,1065.31 1667.31,1092.1 1719.48,1117.03 1771.64,1139.02 1823.81,1163.32 1875.97,1190.06 1928.13,1215.2 1980.3,1237.27 2032.46,1261.69 2084.63,1288.49 2136.79,1313.38 2188.96,1335.37 2241.12,1359.66 2293.29,1386.4 "/>
<polyline clip-path="url(#clip622)" style="stroke:#3da44d; stroke-linecap:round; stroke-linejoin:round; stroke-width:4; stroke-opacity:1; fill:none" points="311.028,160.256 363.193,216.609 415.358,280.163 467.522,372.08 519.687,430.887 571.852,480.869 624.016,526.361 676.181,570.203 728.346,613.433 780.511,656.418 832.675,699.296 884.84,742.121 937.005,784.919 989.17,827.703 1041.33,870.479 1093.5,913.25 1145.66,956.019 1197.83,998.787 1249.99,1041.55 1302.16,1084.32 1354.32,1127.09 1406.49,1169.85 1458.65,1212.62 1510.82,1255.38 1562.98,1298.15 1615.15,1340.92 1667.31,1383.68 "/>
<path clip-path="url(#clip620)" d="M1509.08 374.156 L2282.72 374.156 L2282.72 166.796 L1509.08 166.796  Z" fill="#ffffff" fill-rule="evenodd" fill-opacity="1"/>
<polyline clip-path="url(#clip620)" style="stroke:#000000; stroke-linecap:round; stroke-linejoin:round; stroke-width:4; stroke-opacity:1; fill:none" points="1509.08,374.156 2282.72,374.156 2282.72,166.796 1509.08,166.796 1509.08,374.156 "/>
<polyline clip-path="url(#clip620)" style="stroke:#009af9; stroke-linecap:round; stroke-linejoin:round; stroke-width:4; stroke-opacity:1; fill:none" points="1532.43,218.636 1672.51,218.636 "/>
<path clip-path="url(#clip620)" d="M1695.85 201.356 L1700.53 201.356 L1700.53 231.981 L1717.36 231.981 L1717.36 235.916 L1695.85 235.916 L1695.85 201.356 Z" fill="#000000" fill-rule="nonzero" fill-opacity="1" /><path clip-path="url(#clip620)" d="M1722.27 201.356 L1729.23 201.356 L1738.05 224.874 L1746.92 201.356 L1753.89 201.356 L1753.89 235.916 L1749.33 235.916 L1749.33 205.569 L1740.41 229.272 L1735.71 229.272 L1726.8 205.569 L1726.8 235.916 L1722.27 235.916 L1722.27 201.356 Z" fill="#000000" fill-rule="nonzero" fill-opacity="1" /><path clip-path="url(#clip620)" d="M1782.68 243.786 L1782.68 247.096 L1758.05 247.096 L1758.05 243.786 L1782.68 243.786 Z" fill="#000000" fill-rule="nonzero" fill-opacity="1" /><path clip-path="url(#clip620)" d="M1798.42 205.962 L1792.08 223.161 L1804.79 223.161 L1798.42 205.962 M1795.78 201.356 L1801.08 201.356 L1814.26 235.916 L1809.39 235.916 L1806.25 227.05 L1790.67 227.05 L1787.52 235.916 L1782.59 235.916 L1795.78 201.356 Z" fill="#000000" fill-rule="nonzero" fill-opacity="1" /><path clip-path="url(#clip620)" d="M1840.67 220.268 L1840.67 235.916 L1836.41 235.916 L1836.41 220.407 Q1836.41 216.726 1834.97 214.897 Q1833.54 213.069 1830.67 213.069 Q1827.22 213.069 1825.23 215.268 Q1823.24 217.467 1823.24 221.263 L1823.24 235.916 L1818.96 235.916 L1818.96 209.99 L1823.24 209.99 L1823.24 214.018 Q1824.77 211.68 1826.83 210.522 Q1828.91 209.365 1831.62 209.365 Q1836.08 209.365 1838.38 212.143 Q1840.67 214.897 1840.67 220.268 Z" fill="#000000" fill-rule="nonzero" fill-opacity="1" /><path clip-path="url(#clip620)" d="M1866.22 213.925 L1866.22 199.897 L1870.48 199.897 L1870.48 235.916 L1866.22 235.916 L1866.22 232.027 Q1864.88 234.342 1862.82 235.476 Q1860.78 236.587 1857.91 236.587 Q1853.21 236.587 1850.25 232.837 Q1847.31 229.087 1847.31 222.976 Q1847.31 216.865 1850.25 213.115 Q1853.21 209.365 1857.91 209.365 Q1860.78 209.365 1862.82 210.499 Q1864.88 211.61 1866.22 213.925 M1851.71 222.976 Q1851.71 227.675 1853.63 230.36 Q1855.58 233.022 1858.95 233.022 Q1862.33 233.022 1864.28 230.36 Q1866.22 227.675 1866.22 222.976 Q1866.22 218.277 1864.28 215.615 Q1862.33 212.93 1858.95 212.93 Q1855.58 212.93 1853.63 215.615 Q1851.71 218.277 1851.71 222.976 Z" fill="#000000" fill-rule="nonzero" fill-opacity="1" /><path clip-path="url(#clip620)" d="M1894.28 213.971 Q1893.56 213.555 1892.7 213.37 Q1891.87 213.161 1890.85 213.161 Q1887.24 213.161 1885.3 215.522 Q1883.38 217.86 1883.38 222.258 L1883.38 235.916 L1879.09 235.916 L1879.09 209.99 L1883.38 209.99 L1883.38 214.018 Q1884.72 211.657 1886.87 210.522 Q1889.02 209.365 1892.1 209.365 Q1892.54 209.365 1893.08 209.434 Q1893.61 209.481 1894.26 209.596 L1894.28 213.971 Z" fill="#000000" fill-rule="nonzero" fill-opacity="1" /><path clip-path="url(#clip620)" d="M1919.88 221.888 L1919.88 223.971 L1900.3 223.971 Q1900.58 228.369 1902.94 230.684 Q1905.32 232.976 1909.56 232.976 Q1912.01 232.976 1914.3 232.374 Q1916.62 231.772 1918.89 230.569 L1918.89 234.596 Q1916.59 235.568 1914.19 236.078 Q1911.78 236.587 1909.3 236.587 Q1903.1 236.587 1899.46 232.976 Q1895.85 229.365 1895.85 223.207 Q1895.85 216.842 1899.28 213.115 Q1902.73 209.365 1908.56 209.365 Q1913.79 209.365 1916.82 212.745 Q1919.88 216.101 1919.88 221.888 M1915.62 220.638 Q1915.57 217.143 1913.65 215.059 Q1911.76 212.976 1908.61 212.976 Q1905.04 212.976 1902.89 214.99 Q1900.76 217.004 1900.44 220.661 L1915.62 220.638 Z" fill="#000000" fill-rule="nonzero" fill-opacity="1" /><path clip-path="url(#clip620)" d="M1926.87 209.99 L1931.13 209.99 L1931.13 235.916 L1926.87 235.916 L1926.87 209.99 M1926.87 199.897 L1931.13 199.897 L1931.13 205.291 L1926.87 205.291 L1926.87 199.897 Z" fill="#000000" fill-rule="nonzero" fill-opacity="1" /><path clip-path="url(#clip620)" d="M1959.74 243.786 L1959.74 247.096 L1935.11 247.096 L1935.11 243.786 L1959.74 243.786 Z" fill="#000000" fill-rule="nonzero" fill-opacity="1" /><path clip-path="url(#clip620)" d="M1966.29 222.976 Q1966.29 227.675 1968.21 230.36 Q1970.16 233.022 1973.54 233.022 Q1976.92 233.022 1978.86 230.36 Q1980.81 227.675 1980.81 222.976 Q1980.81 218.277 1978.86 215.615 Q1976.92 212.93 1973.54 212.93 Q1970.16 212.93 1968.21 215.615 Q1966.29 218.277 1966.29 222.976 M1980.81 232.027 Q1979.46 234.342 1977.4 235.476 Q1975.37 236.587 1972.5 236.587 Q1967.8 236.587 1964.83 232.837 Q1961.89 229.087 1961.89 222.976 Q1961.89 216.865 1964.83 213.115 Q1967.8 209.365 1972.5 209.365 Q1975.37 209.365 1977.4 210.499 Q1979.46 211.61 1980.81 213.925 L1980.81 209.99 L1985.07 209.99 L1985.07 245.777 L1980.81 245.777 L1980.81 232.027 Z" fill="#000000" fill-rule="nonzero" fill-opacity="1" /><path clip-path="url(#clip620)" d="M1993.4 225.684 L1993.4 209.99 L1997.66 209.99 L1997.66 225.522 Q1997.66 229.203 1999.09 231.055 Q2000.53 232.883 2003.4 232.883 Q2006.85 232.883 2008.84 230.684 Q2010.85 228.485 2010.85 224.689 L2010.85 209.99 L2015.11 209.99 L2015.11 235.916 L2010.85 235.916 L2010.85 231.934 Q2009.3 234.295 2007.24 235.453 Q2005.2 236.587 2002.5 236.587 Q1998.03 236.587 1995.71 233.809 Q1993.4 231.031 1993.4 225.684 M2004.12 209.365 L2004.12 209.365 Z" fill="#000000" fill-rule="nonzero" fill-opacity="1" /><path clip-path="url(#clip620)" d="M2035.67 222.883 Q2030.5 222.883 2028.51 224.064 Q2026.52 225.244 2026.52 228.092 Q2026.52 230.36 2028 231.703 Q2029.51 233.022 2032.08 233.022 Q2035.62 233.022 2037.75 230.522 Q2039.9 227.999 2039.9 223.832 L2039.9 222.883 L2035.67 222.883 M2044.16 221.124 L2044.16 235.916 L2039.9 235.916 L2039.9 231.981 Q2038.44 234.342 2036.27 235.476 Q2034.09 236.587 2030.94 236.587 Q2026.96 236.587 2024.6 234.365 Q2022.26 232.119 2022.26 228.369 Q2022.26 223.994 2025.18 221.772 Q2028.12 219.55 2033.93 219.55 L2039.9 219.55 L2039.9 219.133 Q2039.9 216.194 2037.96 214.596 Q2036.04 212.976 2032.54 212.976 Q2030.32 212.976 2028.21 213.508 Q2026.11 214.041 2024.16 215.106 L2024.16 211.17 Q2026.5 210.268 2028.7 209.828 Q2030.9 209.365 2032.98 209.365 Q2038.61 209.365 2041.38 212.282 Q2044.16 215.198 2044.16 221.124 Z" fill="#000000" fill-rule="nonzero" fill-opacity="1" /><path clip-path="url(#clip620)" d="M2069.46 210.754 L2069.46 214.782 Q2067.66 213.856 2065.71 213.393 Q2063.77 212.93 2061.69 212.93 Q2058.51 212.93 2056.92 213.902 Q2055.34 214.874 2055.34 216.819 Q2055.34 218.3 2056.48 219.157 Q2057.61 219.99 2061.04 220.754 L2062.5 221.078 Q2067.03 222.05 2068.93 223.832 Q2070.85 225.592 2070.85 228.763 Q2070.85 232.374 2067.98 234.481 Q2065.13 236.587 2060.13 236.587 Q2058.05 236.587 2055.78 236.17 Q2053.54 235.777 2051.04 234.967 L2051.04 230.569 Q2053.4 231.795 2055.69 232.42 Q2057.98 233.022 2060.23 233.022 Q2063.24 233.022 2064.86 232.004 Q2066.48 230.962 2066.48 229.087 Q2066.48 227.351 2065.3 226.425 Q2064.14 225.499 2060.18 224.643 L2058.7 224.295 Q2054.74 223.462 2052.98 221.749 Q2051.22 220.013 2051.22 217.004 Q2051.22 213.346 2053.81 211.356 Q2056.41 209.365 2061.18 209.365 Q2063.54 209.365 2065.62 209.712 Q2067.7 210.059 2069.46 210.754 Z" fill="#000000" fill-rule="nonzero" fill-opacity="1" /><path clip-path="url(#clip620)" d="M2077.63 209.99 L2081.89 209.99 L2081.89 235.916 L2077.63 235.916 L2077.63 209.99 M2077.63 199.897 L2081.89 199.897 L2081.89 205.291 L2077.63 205.291 L2077.63 199.897 Z" fill="#000000" fill-rule="nonzero" fill-opacity="1" /><path clip-path="url(#clip620)" d="M2110.5 243.786 L2110.5 247.096 L2085.87 247.096 L2085.87 243.786 L2110.5 243.786 Z" fill="#000000" fill-rule="nonzero" fill-opacity="1" /><path clip-path="url(#clip620)" d="M2136.06 220.268 L2136.06 235.916 L2131.8 235.916 L2131.8 220.407 Q2131.8 216.726 2130.37 214.897 Q2128.93 213.069 2126.06 213.069 Q2122.61 213.069 2120.62 215.268 Q2118.63 217.467 2118.63 221.263 L2118.63 235.916 L2114.35 235.916 L2114.35 209.99 L2118.63 209.99 L2118.63 214.018 Q2120.16 211.68 2122.22 210.522 Q2124.3 209.365 2127.01 209.365 Q2131.48 209.365 2133.77 212.143 Q2136.06 214.897 2136.06 220.268 Z" fill="#000000" fill-rule="nonzero" fill-opacity="1" /><path clip-path="url(#clip620)" d="M2144.12 225.684 L2144.12 209.99 L2148.37 209.99 L2148.37 225.522 Q2148.37 229.203 2149.81 231.055 Q2151.25 232.883 2154.12 232.883 Q2157.56 232.883 2159.56 230.684 Q2161.57 228.485 2161.57 224.689 L2161.57 209.99 L2165.83 209.99 L2165.83 235.916 L2161.57 235.916 L2161.57 231.934 Q2160.02 234.295 2157.96 235.453 Q2155.92 236.587 2153.21 236.587 Q2148.75 236.587 2146.43 233.809 Q2144.12 231.031 2144.12 225.684 M2154.83 209.365 L2154.83 209.365 Z" fill="#000000" fill-rule="nonzero" fill-opacity="1" /><path clip-path="url(#clip620)" d="M2174.6 199.897 L2178.86 199.897 L2178.86 235.916 L2174.6 235.916 L2174.6 199.897 Z" fill="#000000" fill-rule="nonzero" fill-opacity="1" /><path clip-path="url(#clip620)" d="M2207.47 243.786 L2207.47 247.096 L2182.84 247.096 L2182.84 243.786 L2207.47 243.786 Z" fill="#000000" fill-rule="nonzero" fill-opacity="1" /><path clip-path="url(#clip620)" d="M2211.48 199.897 L2215.74 199.897 L2215.74 235.916 L2211.48 235.916 L2211.48 199.897 Z" fill="#000000" fill-rule="nonzero" fill-opacity="1" /><path clip-path="url(#clip620)" d="M2224.65 209.99 L2228.91 209.99 L2228.91 235.916 L2224.65 235.916 L2224.65 209.99 M2224.65 199.897 L2228.91 199.897 L2228.91 205.291 L2224.65 205.291 L2224.65 199.897 Z" fill="#000000" fill-rule="nonzero" fill-opacity="1" /><path clip-path="url(#clip620)" d="M2259.37 220.268 L2259.37 235.916 L2255.11 235.916 L2255.11 220.407 Q2255.11 216.726 2253.68 214.897 Q2252.24 213.069 2249.37 213.069 Q2245.92 213.069 2243.93 215.268 Q2241.94 217.467 2241.94 221.263 L2241.94 235.916 L2237.66 235.916 L2237.66 209.99 L2241.94 209.99 L2241.94 214.018 Q2243.47 211.68 2245.53 210.522 Q2247.61 209.365 2250.32 209.365 Q2254.79 209.365 2257.08 212.143 Q2259.37 214.897 2259.37 220.268 Z" fill="#000000" fill-rule="nonzero" fill-opacity="1" /><polyline clip-path="url(#clip620)" style="stroke:#e26f46; stroke-linecap:round; stroke-linejoin:round; stroke-width:4; stroke-opacity:1; fill:none" points="1532.43,270.476 1672.51,270.476 "/>
<path clip-path="url(#clip620)" d="M1695.85 253.196 L1700.53 253.196 L1700.53 283.821 L1717.36 283.821 L1717.36 287.756 L1695.85 287.756 L1695.85 253.196 Z" fill="#000000" fill-rule="nonzero" fill-opacity="1" /><path clip-path="url(#clip620)" d="M1722.27 253.196 L1729.23 253.196 L1738.05 276.714 L1746.92 253.196 L1753.89 253.196 L1753.89 287.756 L1749.33 287.756 L1749.33 257.409 L1740.41 281.112 L1735.71 281.112 L1726.8 257.409 L1726.8 287.756 L1722.27 287.756 L1722.27 253.196 Z" fill="#000000" fill-rule="nonzero" fill-opacity="1" /><path clip-path="url(#clip620)" d="M1782.68 295.626 L1782.68 298.936 L1758.05 298.936 L1758.05 295.626 L1782.68 295.626 Z" fill="#000000" fill-rule="nonzero" fill-opacity="1" /><path clip-path="url(#clip620)" d="M1784.88 253.196 L1812.03 253.196 L1812.03 256.761 L1790.18 283.821 L1812.57 283.821 L1812.57 287.756 L1784.35 287.756 L1784.35 284.191 L1806.2 257.131 L1784.88 257.131 L1784.88 253.196 Z" fill="#000000" fill-rule="nonzero" fill-opacity="1" /><path clip-path="url(#clip620)" d="M1840.71 272.108 L1840.71 287.756 L1836.46 287.756 L1836.46 272.247 Q1836.46 268.566 1835.02 266.737 Q1833.58 264.909 1830.71 264.909 Q1827.27 264.909 1825.27 267.108 Q1823.28 269.307 1823.28 273.103 L1823.28 287.756 L1819 287.756 L1819 251.737 L1823.28 251.737 L1823.28 265.858 Q1824.81 263.52 1826.87 262.362 Q1828.96 261.205 1831.66 261.205 Q1836.13 261.205 1838.42 263.983 Q1840.71 266.737 1840.71 272.108 Z" fill="#000000" fill-rule="nonzero" fill-opacity="1" /><path clip-path="url(#clip620)" d="M1848.77 277.524 L1848.77 261.83 L1853.03 261.83 L1853.03 277.362 Q1853.03 281.043 1854.46 282.895 Q1855.9 284.723 1858.77 284.723 Q1862.22 284.723 1864.21 282.524 Q1866.22 280.325 1866.22 276.529 L1866.22 261.83 L1870.48 261.83 L1870.48 287.756 L1866.22 287.756 L1866.22 283.774 Q1864.67 286.135 1862.61 287.293 Q1860.58 288.427 1857.87 288.427 Q1853.4 288.427 1851.08 285.649 Q1848.77 282.871 1848.77 277.524 M1859.49 261.205 L1859.49 261.205 Z" fill="#000000" fill-rule="nonzero" fill-opacity="1" /><path clip-path="url(#clip620)" d="M1898.95 295.626 L1898.95 298.936 L1874.33 298.936 L1874.33 295.626 L1898.95 295.626 Z" fill="#000000" fill-rule="nonzero" fill-opacity="1" /><path clip-path="url(#clip620)" d="M1905.51 274.816 Q1905.51 279.515 1907.43 282.2 Q1909.37 284.862 1912.75 284.862 Q1916.13 284.862 1918.07 282.2 Q1920.02 279.515 1920.02 274.816 Q1920.02 270.117 1918.07 267.455 Q1916.13 264.77 1912.75 264.77 Q1909.37 264.77 1907.43 267.455 Q1905.51 270.117 1905.51 274.816 M1920.02 283.867 Q1918.68 286.182 1916.62 287.316 Q1914.58 288.427 1911.71 288.427 Q1907.01 288.427 1904.05 284.677 Q1901.11 280.927 1901.11 274.816 Q1901.11 268.705 1904.05 264.955 Q1907.01 261.205 1911.71 261.205 Q1914.58 261.205 1916.62 262.339 Q1918.68 263.45 1920.02 265.765 L1920.02 261.83 L1924.28 261.83 L1924.28 297.617 L1920.02 297.617 L1920.02 283.867 Z" fill="#000000" fill-rule="nonzero" fill-opacity="1" /><path clip-path="url(#clip620)" d="M1932.61 277.524 L1932.61 261.83 L1936.87 261.83 L1936.87 277.362 Q1936.87 281.043 1938.31 282.895 Q1939.74 284.723 1942.61 284.723 Q1946.06 284.723 1948.05 282.524 Q1950.07 280.325 1950.07 276.529 L1950.07 261.83 L1954.32 261.83 L1954.32 287.756 L1950.07 287.756 L1950.07 283.774 Q1948.51 286.135 1946.45 287.293 Q1944.42 288.427 1941.71 288.427 Q1937.24 288.427 1934.93 285.649 Q1932.61 282.871 1932.61 277.524 M1943.33 261.205 L1943.33 261.205 Z" fill="#000000" fill-rule="nonzero" fill-opacity="1" /><path clip-path="url(#clip620)" d="M1974.88 274.723 Q1969.72 274.723 1967.73 275.904 Q1965.74 277.084 1965.74 279.932 Q1965.74 282.2 1967.22 283.543 Q1968.72 284.862 1971.29 284.862 Q1974.83 284.862 1976.96 282.362 Q1979.12 279.839 1979.12 275.672 L1979.12 274.723 L1974.88 274.723 M1983.38 272.964 L1983.38 287.756 L1979.12 287.756 L1979.12 283.821 Q1977.66 286.182 1975.48 287.316 Q1973.31 288.427 1970.16 288.427 Q1966.18 288.427 1963.82 286.205 Q1961.48 283.959 1961.48 280.209 Q1961.48 275.834 1964.39 273.612 Q1967.33 271.39 1973.14 271.39 L1979.12 271.39 L1979.12 270.973 Q1979.12 268.034 1977.17 266.436 Q1975.25 264.816 1971.76 264.816 Q1969.53 264.816 1967.43 265.348 Q1965.32 265.881 1963.38 266.946 L1963.38 263.01 Q1965.71 262.108 1967.91 261.668 Q1970.11 261.205 1972.2 261.205 Q1977.82 261.205 1980.6 264.122 Q1983.38 267.038 1983.38 272.964 Z" fill="#000000" fill-rule="nonzero" fill-opacity="1" /><path clip-path="url(#clip620)" d="M2008.68 262.594 L2008.68 266.622 Q2006.87 265.696 2004.93 265.233 Q2002.98 264.77 2000.9 264.77 Q1997.73 264.77 1996.13 265.742 Q1994.56 266.714 1994.56 268.659 Q1994.56 270.14 1995.69 270.997 Q1996.82 271.83 2000.25 272.594 L2001.71 272.918 Q2006.25 273.89 2008.14 275.672 Q2010.07 277.432 2010.07 280.603 Q2010.07 284.214 2007.19 286.321 Q2004.35 288.427 1999.35 288.427 Q1997.26 288.427 1995 288.01 Q1992.75 287.617 1990.25 286.807 L1990.25 282.409 Q1992.61 283.635 1994.9 284.26 Q1997.19 284.862 1999.44 284.862 Q2002.45 284.862 2004.07 283.844 Q2005.69 282.802 2005.69 280.927 Q2005.69 279.191 2004.51 278.265 Q2003.35 277.339 1999.39 276.483 L1997.91 276.135 Q1993.95 275.302 1992.19 273.589 Q1990.44 271.853 1990.44 268.844 Q1990.44 265.186 1993.03 263.196 Q1995.62 261.205 2000.39 261.205 Q2002.75 261.205 2004.83 261.552 Q2006.92 261.899 2008.68 262.594 Z" fill="#000000" fill-rule="nonzero" fill-opacity="1" /><path clip-path="url(#clip620)" d="M2016.85 261.83 L2021.11 261.83 L2021.11 287.756 L2016.85 287.756 L2016.85 261.83 M2016.85 251.737 L2021.11 251.737 L2021.11 257.131 L2016.85 257.131 L2016.85 251.737 Z" fill="#000000" fill-rule="nonzero" fill-opacity="1" /><path clip-path="url(#clip620)" d="M2049.72 295.626 L2049.72 298.936 L2025.09 298.936 L2025.09 295.626 L2049.72 295.626 Z" fill="#000000" fill-rule="nonzero" fill-opacity="1" /><path clip-path="url(#clip620)" d="M2075.27 272.108 L2075.27 287.756 L2071.01 287.756 L2071.01 272.247 Q2071.01 268.566 2069.58 266.737 Q2068.14 264.909 2065.27 264.909 Q2061.82 264.909 2059.83 267.108 Q2057.84 269.307 2057.84 273.103 L2057.84 287.756 L2053.56 287.756 L2053.56 261.83 L2057.84 261.83 L2057.84 265.858 Q2059.37 263.52 2061.43 262.362 Q2063.51 261.205 2066.22 261.205 Q2070.69 261.205 2072.98 263.983 Q2075.27 266.737 2075.27 272.108 Z" fill="#000000" fill-rule="nonzero" fill-opacity="1" /><path clip-path="url(#clip620)" d="M2083.33 277.524 L2083.33 261.83 L2087.59 261.83 L2087.59 277.362 Q2087.59 281.043 2089.02 282.895 Q2090.46 284.723 2093.33 284.723 Q2096.78 284.723 2098.77 282.524 Q2100.78 280.325 2100.78 276.529 L2100.78 261.83 L2105.04 261.83 L2105.04 287.756 L2100.78 287.756 L2100.78 283.774 Q2099.23 286.135 2097.17 287.293 Q2095.13 288.427 2092.43 288.427 Q2087.96 288.427 2085.64 285.649 Q2083.33 282.871 2083.33 277.524 M2094.05 261.205 L2094.05 261.205 Z" fill="#000000" fill-rule="nonzero" fill-opacity="1" /><path clip-path="url(#clip620)" d="M2113.81 251.737 L2118.07 251.737 L2118.07 287.756 L2113.81 287.756 L2113.81 251.737 Z" fill="#000000" fill-rule="nonzero" fill-opacity="1" /><path clip-path="url(#clip620)" d="M2146.68 295.626 L2146.68 298.936 L2122.06 298.936 L2122.06 295.626 L2146.68 295.626 Z" fill="#000000" fill-rule="nonzero" fill-opacity="1" /><path clip-path="url(#clip620)" d="M2150.69 251.737 L2154.95 251.737 L2154.95 287.756 L2150.69 287.756 L2150.69 251.737 Z" fill="#000000" fill-rule="nonzero" fill-opacity="1" /><path clip-path="url(#clip620)" d="M2163.86 261.83 L2168.12 261.83 L2168.12 287.756 L2163.86 287.756 L2163.86 261.83 M2163.86 251.737 L2168.12 251.737 L2168.12 257.131 L2163.86 257.131 L2163.86 251.737 Z" fill="#000000" fill-rule="nonzero" fill-opacity="1" /><path clip-path="url(#clip620)" d="M2198.58 272.108 L2198.58 287.756 L2194.32 287.756 L2194.32 272.247 Q2194.32 268.566 2192.89 266.737 Q2191.45 264.909 2188.58 264.909 Q2185.13 264.909 2183.14 267.108 Q2181.15 269.307 2181.15 273.103 L2181.15 287.756 L2176.87 287.756 L2176.87 261.83 L2181.15 261.83 L2181.15 265.858 Q2182.68 263.52 2184.74 262.362 Q2186.82 261.205 2189.53 261.205 Q2194 261.205 2196.29 263.983 Q2198.58 266.737 2198.58 272.108 Z" fill="#000000" fill-rule="nonzero" fill-opacity="1" /><polyline clip-path="url(#clip620)" style="stroke:#3da44d; stroke-linecap:round; stroke-linejoin:round; stroke-width:4; stroke-opacity:1; fill:none" points="1532.43,322.316 1672.51,322.316 "/>
<path clip-path="url(#clip620)" d="M1695.85 305.036 L1700.53 305.036 L1700.53 335.661 L1717.36 335.661 L1717.36 339.596 L1695.85 339.596 L1695.85 305.036 Z" fill="#000000" fill-rule="nonzero" fill-opacity="1" /><path clip-path="url(#clip620)" d="M1722.27 305.036 L1729.23 305.036 L1738.05 328.554 L1746.92 305.036 L1753.89 305.036 L1753.89 339.596 L1749.33 339.596 L1749.33 309.249 L1740.41 332.952 L1735.71 332.952 L1726.8 309.249 L1726.8 339.596 L1722.27 339.596 L1722.27 305.036 Z" fill="#000000" fill-rule="nonzero" fill-opacity="1" /><path clip-path="url(#clip620)" d="M1782.68 347.466 L1782.68 350.776 L1758.05 350.776 L1758.05 347.466 L1782.68 347.466 Z" fill="#000000" fill-rule="nonzero" fill-opacity="1" /><path clip-path="url(#clip620)" d="M1807.59 306.17 L1807.59 310.73 Q1804.93 309.457 1802.57 308.832 Q1800.21 308.207 1798.01 308.207 Q1794.19 308.207 1792.1 309.688 Q1790.04 311.17 1790.04 313.901 Q1790.04 316.193 1791.41 317.374 Q1792.8 318.531 1796.64 319.249 L1799.46 319.827 Q1804.7 320.823 1807.17 323.346 Q1809.67 325.846 1809.67 330.059 Q1809.67 335.082 1806.29 337.674 Q1802.94 340.267 1796.43 340.267 Q1793.98 340.267 1791.2 339.711 Q1788.45 339.156 1785.48 338.068 L1785.48 333.253 Q1788.33 334.85 1791.06 335.661 Q1793.79 336.471 1796.43 336.471 Q1800.44 336.471 1802.61 334.897 Q1804.79 333.323 1804.79 330.406 Q1804.79 327.86 1803.21 326.424 Q1801.66 324.989 1798.1 324.272 L1795.25 323.716 Q1790.02 322.675 1787.68 320.452 Q1785.34 318.23 1785.34 314.272 Q1785.34 309.688 1788.56 307.05 Q1791.8 304.411 1797.47 304.411 Q1799.9 304.411 1802.43 304.851 Q1804.95 305.29 1807.59 306.17 Z" fill="#000000" fill-rule="nonzero" fill-opacity="1" /><path clip-path="url(#clip620)" d="M1821.64 308.878 L1821.64 321.864 L1827.52 321.864 Q1830.78 321.864 1832.57 320.175 Q1834.35 318.485 1834.35 315.36 Q1834.35 312.258 1832.57 310.568 Q1830.78 308.878 1827.52 308.878 L1821.64 308.878 M1816.96 305.036 L1827.52 305.036 Q1833.33 305.036 1836.29 307.675 Q1839.28 310.29 1839.28 315.36 Q1839.28 320.475 1836.29 323.091 Q1833.33 325.707 1827.52 325.707 L1821.64 325.707 L1821.64 339.596 L1816.96 339.596 L1816.96 305.036 Z" fill="#000000" fill-rule="nonzero" fill-opacity="1" /><path clip-path="url(#clip620)" d="M1869.12 334.665 L1869.12 325.383 L1861.48 325.383 L1861.48 321.54 L1873.75 321.54 L1873.75 336.378 Q1871.04 338.299 1867.77 339.295 Q1864.51 340.267 1860.81 340.267 Q1852.7 340.267 1848.12 335.545 Q1843.56 330.799 1843.56 322.35 Q1843.56 313.878 1848.12 309.156 Q1852.7 304.411 1860.81 304.411 Q1864.19 304.411 1867.22 305.244 Q1870.27 306.077 1872.84 307.698 L1872.84 312.675 Q1870.25 310.476 1867.33 309.364 Q1864.42 308.253 1861.2 308.253 Q1854.86 308.253 1851.66 311.795 Q1848.49 315.337 1848.49 322.35 Q1848.49 329.341 1851.66 332.883 Q1854.86 336.424 1861.2 336.424 Q1863.68 336.424 1865.62 336.008 Q1867.57 335.568 1869.12 334.665 Z" fill="#000000" fill-rule="nonzero" fill-opacity="1" /><path clip-path="url(#clip620)" d="M1901.8 347.466 L1901.8 350.776 L1877.17 350.776 L1877.17 347.466 L1901.8 347.466 Z" fill="#000000" fill-rule="nonzero" fill-opacity="1" /><path clip-path="url(#clip620)" d="M1908.35 326.656 Q1908.35 331.355 1910.27 334.04 Q1912.22 336.702 1915.6 336.702 Q1918.98 336.702 1920.92 334.04 Q1922.87 331.355 1922.87 326.656 Q1922.87 321.957 1920.92 319.295 Q1918.98 316.61 1915.6 316.61 Q1912.22 316.61 1910.27 319.295 Q1908.35 321.957 1908.35 326.656 M1922.87 335.707 Q1921.52 338.022 1919.46 339.156 Q1917.43 340.267 1914.56 340.267 Q1909.86 340.267 1906.89 336.517 Q1903.95 332.767 1903.95 326.656 Q1903.95 320.545 1906.89 316.795 Q1909.86 313.045 1914.56 313.045 Q1917.43 313.045 1919.46 314.179 Q1921.52 315.29 1922.87 317.605 L1922.87 313.67 L1927.13 313.67 L1927.13 349.457 L1922.87 349.457 L1922.87 335.707 Z" fill="#000000" fill-rule="nonzero" fill-opacity="1" /><path clip-path="url(#clip620)" d="M1935.46 329.364 L1935.46 313.67 L1939.72 313.67 L1939.72 329.202 Q1939.72 332.883 1941.15 334.735 Q1942.59 336.563 1945.46 336.563 Q1948.91 336.563 1950.9 334.364 Q1952.91 332.165 1952.91 328.369 L1952.91 313.67 L1957.17 313.67 L1957.17 339.596 L1952.91 339.596 L1952.91 335.614 Q1951.36 337.975 1949.3 339.133 Q1947.26 340.267 1944.56 340.267 Q1940.09 340.267 1937.77 337.489 Q1935.46 334.711 1935.46 329.364 M1946.18 313.045 L1946.18 313.045 Z" fill="#000000" fill-rule="nonzero" fill-opacity="1" /><path clip-path="url(#clip620)" d="M1977.73 326.563 Q1972.57 326.563 1970.57 327.744 Q1968.58 328.924 1968.58 331.772 Q1968.58 334.04 1970.07 335.383 Q1971.57 336.702 1974.14 336.702 Q1977.68 336.702 1979.81 334.202 Q1981.96 331.679 1981.96 327.512 L1981.96 326.563 L1977.73 326.563 M1986.22 324.804 L1986.22 339.596 L1981.96 339.596 L1981.96 335.661 Q1980.51 338.022 1978.33 339.156 Q1976.15 340.267 1973.01 340.267 Q1969.02 340.267 1966.66 338.045 Q1964.32 335.799 1964.32 332.049 Q1964.32 327.674 1967.24 325.452 Q1970.18 323.23 1975.99 323.23 L1981.96 323.23 L1981.96 322.813 Q1981.96 319.874 1980.02 318.276 Q1978.1 316.656 1974.6 316.656 Q1972.38 316.656 1970.27 317.188 Q1968.17 317.721 1966.22 318.786 L1966.22 314.85 Q1968.56 313.948 1970.76 313.508 Q1972.96 313.045 1975.04 313.045 Q1980.67 313.045 1983.44 315.962 Q1986.22 318.878 1986.22 324.804 Z" fill="#000000" fill-rule="nonzero" fill-opacity="1" /><path clip-path="url(#clip620)" d="M2011.52 314.434 L2011.52 318.462 Q2009.72 317.536 2007.77 317.073 Q2005.83 316.61 2003.75 316.61 Q2000.57 316.61 1998.98 317.582 Q1997.4 318.554 1997.4 320.499 Q1997.4 321.98 1998.54 322.837 Q1999.67 323.67 2003.1 324.434 L2004.56 324.758 Q2009.09 325.73 2010.99 327.512 Q2012.91 329.272 2012.91 332.443 Q2012.91 336.054 2010.04 338.161 Q2007.19 340.267 2002.19 340.267 Q2000.11 340.267 1997.84 339.85 Q1995.6 339.457 1993.1 338.647 L1993.1 334.249 Q1995.46 335.475 1997.75 336.1 Q2000.04 336.702 2002.29 336.702 Q2005.3 336.702 2006.92 335.684 Q2008.54 334.642 2008.54 332.767 Q2008.54 331.031 2007.36 330.105 Q2006.2 329.179 2002.24 328.323 L2000.76 327.975 Q1996.8 327.142 1995.04 325.429 Q1993.28 323.693 1993.28 320.684 Q1993.28 317.026 1995.88 315.036 Q1998.47 313.045 2003.24 313.045 Q2005.6 313.045 2007.68 313.392 Q2009.76 313.739 2011.52 314.434 Z" fill="#000000" fill-rule="nonzero" fill-opacity="1" /><path clip-path="url(#clip620)" d="M2019.69 313.67 L2023.95 313.67 L2023.95 339.596 L2019.69 339.596 L2019.69 313.67 M2019.69 303.577 L2023.95 303.577 L2023.95 308.971 L2019.69 308.971 L2019.69 303.577 Z" fill="#000000" fill-rule="nonzero" fill-opacity="1" /><path clip-path="url(#clip620)" d="M2052.56 347.466 L2052.56 350.776 L2027.94 350.776 L2027.94 347.466 L2052.56 347.466 Z" fill="#000000" fill-rule="nonzero" fill-opacity="1" /><path clip-path="url(#clip620)" d="M2078.12 323.948 L2078.12 339.596 L2073.86 339.596 L2073.86 324.087 Q2073.86 320.406 2072.43 318.577 Q2070.99 316.749 2068.12 316.749 Q2064.67 316.749 2062.68 318.948 Q2060.69 321.147 2060.69 324.943 L2060.69 339.596 L2056.41 339.596 L2056.41 313.67 L2060.69 313.67 L2060.69 317.698 Q2062.22 315.36 2064.28 314.202 Q2066.36 313.045 2069.07 313.045 Q2073.54 313.045 2075.83 315.823 Q2078.12 318.577 2078.12 323.948 Z" fill="#000000" fill-rule="nonzero" fill-opacity="1" /><path clip-path="url(#clip620)" d="M2086.18 329.364 L2086.18 313.67 L2090.44 313.67 L2090.44 329.202 Q2090.44 332.883 2091.87 334.735 Q2093.31 336.563 2096.18 336.563 Q2099.62 336.563 2101.62 334.364 Q2103.63 332.165 2103.63 328.369 L2103.63 313.67 L2107.89 313.67 L2107.89 339.596 L2103.63 339.596 L2103.63 335.614 Q2102.08 337.975 2100.02 339.133 Q2097.98 340.267 2095.27 340.267 Q2090.81 340.267 2088.49 337.489 Q2086.18 334.711 2086.18 329.364 M2096.89 313.045 L2096.89 313.045 Z" fill="#000000" fill-rule="nonzero" fill-opacity="1" /><path clip-path="url(#clip620)" d="M2116.66 303.577 L2120.92 303.577 L2120.92 339.596 L2116.66 339.596 L2116.66 303.577 Z" fill="#000000" fill-rule="nonzero" fill-opacity="1" /><path clip-path="url(#clip620)" d="M2149.53 347.466 L2149.53 350.776 L2124.9 350.776 L2124.9 347.466 L2149.53 347.466 Z" fill="#000000" fill-rule="nonzero" fill-opacity="1" /><path clip-path="url(#clip620)" d="M2153.54 303.577 L2157.8 303.577 L2157.8 339.596 L2153.54 339.596 L2153.54 303.577 Z" fill="#000000" fill-rule="nonzero" fill-opacity="1" /><path clip-path="url(#clip620)" d="M2166.71 313.67 L2170.97 313.67 L2170.97 339.596 L2166.71 339.596 L2166.71 313.67 M2166.71 303.577 L2170.97 303.577 L2170.97 308.971 L2166.71 308.971 L2166.71 303.577 Z" fill="#000000" fill-rule="nonzero" fill-opacity="1" /><path clip-path="url(#clip620)" d="M2201.43 323.948 L2201.43 339.596 L2197.17 339.596 L2197.17 324.087 Q2197.17 320.406 2195.74 318.577 Q2194.3 316.749 2191.43 316.749 Q2187.98 316.749 2185.99 318.948 Q2184 321.147 2184 324.943 L2184 339.596 L2179.72 339.596 L2179.72 313.67 L2184 313.67 L2184 317.698 Q2185.53 315.36 2187.59 314.202 Q2189.67 313.045 2192.38 313.045 Q2196.85 313.045 2199.14 315.823 Q2201.43 318.577 2201.43 323.948 Z" fill="#000000" fill-rule="nonzero" fill-opacity="1" /></svg>
