<?xml version="1.0" encoding="utf-8"?>
<svg xmlns="http://www.w3.org/2000/svg" xmlns:xlink="http://www.w3.org/1999/xlink" width="600" height="400" viewBox="0 0 2400 1600">
<defs>
  <clipPath id="clip300">
    <rect x="0" y="0" width="2400" height="1600"/>
  </clipPath>
</defs>
<path clip-path="url(#clip300)" d="M0 1600 L2400 1600 L2400 0 L0 0  Z" fill="#ffffff" fill-rule="evenodd" fill-opacity="1"/>
<defs>
  <clipPath id="clip301">
    <rect x="480" y="0" width="1681" height="1600"/>
  </clipPath>
</defs>
<path clip-path="url(#clip300)" d="M251.56 1423.18 L2352.76 1423.18 L2352.76 123.472 L251.56 123.472  Z" fill="#ffffff" fill-rule="evenodd" fill-opacity="1"/>
<defs>
  <clipPath id="clip302">
    <rect x="251" y="123" width="2102" height="1301"/>
  </clipPath>
</defs>
<polyline clip-path="url(#clip302)" style="stroke:#000000; stroke-linecap:round; stroke-linejoin:round; stroke-width:2; stroke-opacity:0.1; fill:none" points="280.994,1423.18 280.994,123.472 "/>
<polyline clip-path="url(#clip302)" style="stroke:#000000; stroke-linecap:round; stroke-linejoin:round; stroke-width:2; stroke-opacity:0.1; fill:none" points="581.336,1423.18 581.336,123.472 "/>
<polyline clip-path="url(#clip302)" style="stroke:#000000; stroke-linecap:round; stroke-linejoin:round; stroke-width:2; stroke-opacity:0.1; fill:none" points="881.679,1423.18 881.679,123.472 "/>
<polyline clip-path="url(#clip302)" style="stroke:#000000; stroke-linecap:round; stroke-linejoin:round; stroke-width:2; stroke-opacity:0.1; fill:none" points="1182.02,1423.18 1182.02,123.472 "/>
<polyline clip-path="url(#clip302)" style="stroke:#000000; stroke-linecap:round; stroke-linejoin:round; stroke-width:2; stroke-opacity:0.1; fill:none" points="1482.36,1423.18 1482.36,123.472 "/>
<polyline clip-path="url(#clip302)" style="stroke:#000000; stroke-linecap:round; stroke-linejoin:round; stroke-width:2; stroke-opacity:0.1; fill:none" points="1782.71,1423.18 1782.71,123.472 "/>
<polyline clip-path="url(#clip302)" style="stroke:#000000; stroke-linecap:round; stroke-linejoin:round; stroke-width:2; stroke-opacity:0.1; fill:none" points="2083.05,1423.18 2083.05,123.472 "/>
<polyline clip-path="url(#clip300)" style="stroke:#000000; stroke-linecap:round; stroke-linejoin:round; stroke-width:4; stroke-opacity:1; fill:none" points="251.56,1423.18 2352.76,1423.18 "/>
<polyline clip-path="url(#clip300)" style="stroke:#000000; stroke-linecap:round; stroke-linejoin:round; stroke-width:4; stroke-opacity:1; fill:none" points="280.994,1423.18 280.994,1404.28 "/>
<polyline clip-path="url(#clip300)" style="stroke:#000000; stroke-linecap:round; stroke-linejoin:round; stroke-width:4; stroke-opacity:1; fill:none" points="581.336,1423.18 581.336,1404.28 "/>
<polyline clip-path="url(#clip300)" style="stroke:#000000; stroke-linecap:round; stroke-linejoin:round; stroke-width:4; stroke-opacity:1; fill:none" points="881.679,1423.18 881.679,1404.28 "/>
<polyline clip-path="url(#clip300)" style="stroke:#000000; stroke-linecap:round; stroke-linejoin:round; stroke-width:4; stroke-opacity:1; fill:none" points="1182.02,1423.18 1182.02,1404.28 "/>
<polyline clip-path="url(#clip300)" style="stroke:#000000; stroke-linecap:round; stroke-linejoin:round; stroke-width:4; stroke-opacity:1; fill:none" points="1482.36,1423.18 1482.36,1404.28 "/>
<polyline clip-path="url(#clip300)" style="stroke:#000000; stroke-linecap:round; stroke-linejoin:round; stroke-width:4; stroke-opacity:1; fill:none" points="1782.71,1423.18 1782.71,1404.28 "/>
<polyline clip-path="url(#clip300)" style="stroke:#000000; stroke-linecap:round; stroke-linejoin:round; stroke-width:4; stroke-opacity:1; fill:none" points="2083.05,1423.18 2083.05,1404.28 "/>
<path clip-path="url(#clip300)" d="M280.994 1454.1 Q277.383 1454.1 275.554 1457.66 Q273.748 1461.2 273.748 1468.33 Q273.748 1475.44 275.554 1479.01 Q277.383 1482.55 280.994 1482.55 Q284.628 1482.55 286.434 1479.01 Q288.262 1475.44 288.262 1468.33 Q288.262 1461.2 286.434 1457.66 Q284.628 1454.1 280.994 1454.1 M280.994 1450.39 Q286.804 1450.39 289.86 1455 Q292.938 1459.58 292.938 1468.33 Q292.938 1477.06 289.86 1481.67 Q286.804 1486.25 280.994 1486.25 Q275.184 1486.25 272.105 1481.67 Q269.049 1477.06 269.049 1468.33 Q269.049 1459.58 272.105 1455 Q275.184 1450.39 280.994 1450.39 Z" fill="#000000" fill-rule="nonzero" fill-opacity="1" /><path clip-path="url(#clip300)" d="M556.024 1481.64 L563.663 1481.64 L563.663 1455.28 L555.353 1456.95 L555.353 1452.69 L563.616 1451.02 L568.292 1451.02 L568.292 1481.64 L575.931 1481.64 L575.931 1485.58 L556.024 1485.58 L556.024 1481.64 Z" fill="#000000" fill-rule="nonzero" fill-opacity="1" /><path clip-path="url(#clip300)" d="M595.376 1454.1 Q591.764 1454.1 589.936 1457.66 Q588.13 1461.2 588.13 1468.33 Q588.13 1475.44 589.936 1479.01 Q591.764 1482.55 595.376 1482.55 Q599.01 1482.55 600.815 1479.01 Q602.644 1475.44 602.644 1468.33 Q602.644 1461.2 600.815 1457.66 Q599.01 1454.1 595.376 1454.1 M595.376 1450.39 Q601.186 1450.39 604.241 1455 Q607.32 1459.58 607.32 1468.33 Q607.32 1477.06 604.241 1481.67 Q601.186 1486.25 595.376 1486.25 Q589.565 1486.25 586.487 1481.67 Q583.431 1477.06 583.431 1468.33 Q583.431 1459.58 586.487 1455 Q589.565 1450.39 595.376 1450.39 Z" fill="#000000" fill-rule="nonzero" fill-opacity="1" /><path clip-path="url(#clip300)" d="M860.452 1481.64 L876.771 1481.64 L876.771 1485.58 L854.827 1485.58 L854.827 1481.64 Q857.489 1478.89 862.072 1474.26 Q866.679 1469.61 867.859 1468.27 Q870.105 1465.74 870.984 1464.01 Q871.887 1462.25 871.887 1460.56 Q871.887 1457.8 869.943 1456.07 Q868.021 1454.33 864.92 1454.33 Q862.72 1454.33 860.267 1455.09 Q857.836 1455.86 855.058 1457.41 L855.058 1452.69 Q857.883 1451.55 860.336 1450.97 Q862.79 1450.39 864.827 1450.39 Q870.197 1450.39 873.392 1453.08 Q876.586 1455.77 876.586 1460.26 Q876.586 1462.39 875.776 1464.31 Q874.989 1466.2 872.882 1468.8 Q872.304 1469.47 869.202 1472.69 Q866.1 1475.88 860.452 1481.64 Z" fill="#000000" fill-rule="nonzero" fill-opacity="1" /><path clip-path="url(#clip300)" d="M896.586 1454.1 Q892.975 1454.1 891.146 1457.66 Q889.341 1461.2 889.341 1468.33 Q889.341 1475.44 891.146 1479.01 Q892.975 1482.55 896.586 1482.55 Q900.22 1482.55 902.026 1479.01 Q903.854 1475.44 903.854 1468.33 Q903.854 1461.2 902.026 1457.66 Q900.22 1454.1 896.586 1454.1 M896.586 1450.39 Q902.396 1450.39 905.452 1455 Q908.53 1459.58 908.53 1468.33 Q908.53 1477.06 905.452 1481.67 Q902.396 1486.25 896.586 1486.25 Q890.776 1486.25 887.697 1481.67 Q884.642 1477.06 884.642 1468.33 Q884.642 1459.58 887.697 1455 Q890.776 1450.39 896.586 1450.39 Z" fill="#000000" fill-rule="nonzero" fill-opacity="1" /><path clip-path="url(#clip300)" d="M1170.86 1466.95 Q1174.22 1467.66 1176.1 1469.93 Q1177.99 1472.2 1177.99 1475.53 Q1177.99 1480.65 1174.47 1483.45 Q1170.96 1486.25 1164.47 1486.25 Q1162.3 1486.25 1159.98 1485.81 Q1157.69 1485.39 1155.24 1484.54 L1155.24 1480.02 Q1157.18 1481.16 1159.5 1481.74 Q1161.81 1482.32 1164.34 1482.32 Q1168.73 1482.32 1171.03 1480.58 Q1173.34 1478.84 1173.34 1475.53 Q1173.34 1472.48 1171.19 1470.77 Q1169.06 1469.03 1165.24 1469.03 L1161.21 1469.03 L1161.21 1465.19 L1165.42 1465.19 Q1168.87 1465.19 1170.7 1463.82 Q1172.53 1462.43 1172.53 1459.84 Q1172.53 1457.18 1170.63 1455.77 Q1168.76 1454.33 1165.24 1454.33 Q1163.32 1454.33 1161.12 1454.75 Q1158.92 1455.16 1156.28 1456.04 L1156.28 1451.88 Q1158.94 1451.14 1161.26 1450.77 Q1163.6 1450.39 1165.66 1450.39 Q1170.98 1450.39 1174.08 1452.83 Q1177.18 1455.23 1177.18 1459.35 Q1177.18 1462.22 1175.54 1464.21 Q1173.9 1466.18 1170.86 1466.95 Z" fill="#000000" fill-rule="nonzero" fill-opacity="1" /><path clip-path="url(#clip300)" d="M1196.86 1454.1 Q1193.25 1454.1 1191.42 1457.66 Q1189.61 1461.2 1189.61 1468.33 Q1189.61 1475.44 1191.42 1479.01 Q1193.25 1482.55 1196.86 1482.55 Q1200.49 1482.55 1202.3 1479.01 Q1204.13 1475.44 1204.13 1468.33 Q1204.13 1461.2 1202.3 1457.66 Q1200.49 1454.1 1196.86 1454.1 M1196.86 1450.39 Q1202.67 1450.39 1205.72 1455 Q1208.8 1459.58 1208.8 1468.33 Q1208.8 1477.06 1205.72 1481.67 Q1202.67 1486.25 1196.86 1486.25 Q1191.05 1486.25 1187.97 1481.67 Q1184.91 1477.06 1184.91 1468.33 Q1184.91 1459.58 1187.97 1455 Q1191.05 1450.39 1196.86 1450.39 Z" fill="#000000" fill-rule="nonzero" fill-opacity="1" /><path clip-path="url(#clip300)" d="M1470.53 1455.09 L1458.73 1473.54 L1470.53 1473.54 L1470.53 1455.09 M1469.31 1451.02 L1475.19 1451.02 L1475.19 1473.54 L1480.12 1473.54 L1480.12 1477.43 L1475.19 1477.43 L1475.19 1485.58 L1470.53 1485.58 L1470.53 1477.43 L1454.93 1477.43 L1454.93 1472.92 L1469.31 1451.02 Z" fill="#000000" fill-rule="nonzero" fill-opacity="1" /><path clip-path="url(#clip300)" d="M1497.85 1454.1 Q1494.24 1454.1 1492.41 1457.66 Q1490.6 1461.2 1490.6 1468.33 Q1490.6 1475.44 1492.41 1479.01 Q1494.24 1482.55 1497.85 1482.55 Q1501.48 1482.55 1503.29 1479.01 Q1505.12 1475.44 1505.12 1468.33 Q1505.12 1461.2 1503.29 1457.66 Q1501.48 1454.1 1497.85 1454.1 M1497.85 1450.39 Q1503.66 1450.39 1506.72 1455 Q1509.79 1459.58 1509.79 1468.33 Q1509.79 1477.06 1506.72 1481.67 Q1503.66 1486.25 1497.85 1486.25 Q1492.04 1486.25 1488.96 1481.67 Q1485.91 1477.06 1485.91 1468.33 Q1485.91 1459.58 1488.96 1455 Q1492.04 1450.39 1497.85 1450.39 Z" fill="#000000" fill-rule="nonzero" fill-opacity="1" /><path clip-path="url(#clip300)" d="M1757.41 1451.02 L1775.76 1451.02 L1775.76 1454.96 L1761.69 1454.96 L1761.69 1463.43 Q1762.71 1463.08 1763.72 1462.92 Q1764.74 1462.73 1765.76 1462.73 Q1771.55 1462.73 1774.93 1465.9 Q1778.31 1469.08 1778.31 1474.49 Q1778.31 1480.07 1774.84 1483.17 Q1771.36 1486.25 1765.04 1486.25 Q1762.87 1486.25 1760.6 1485.88 Q1758.35 1485.51 1755.95 1484.77 L1755.95 1480.07 Q1758.03 1481.2 1760.25 1481.76 Q1762.47 1482.32 1764.95 1482.32 Q1768.96 1482.32 1771.29 1480.21 Q1773.63 1478.1 1773.63 1474.49 Q1773.63 1470.88 1771.29 1468.77 Q1768.96 1466.67 1764.95 1466.67 Q1763.08 1466.67 1761.2 1467.08 Q1759.35 1467.5 1757.41 1468.38 L1757.41 1451.02 Z" fill="#000000" fill-rule="nonzero" fill-opacity="1" /><path clip-path="url(#clip300)" d="M1797.52 1454.1 Q1793.91 1454.1 1792.08 1457.66 Q1790.28 1461.2 1790.28 1468.33 Q1790.28 1475.44 1792.08 1479.01 Q1793.91 1482.55 1797.52 1482.55 Q1801.15 1482.55 1802.96 1479.01 Q1804.79 1475.44 1804.79 1468.33 Q1804.79 1461.2 1802.96 1457.66 Q1801.15 1454.1 1797.52 1454.1 M1797.52 1450.39 Q1803.33 1450.39 1806.39 1455 Q1809.47 1459.58 1809.47 1468.33 Q1809.47 1477.06 1806.39 1481.67 Q1803.33 1486.25 1797.52 1486.25 Q1791.71 1486.25 1788.63 1481.67 Q1785.58 1477.06 1785.58 1468.33 Q1785.58 1459.58 1788.63 1455 Q1791.71 1450.39 1797.52 1450.39 Z" fill="#000000" fill-rule="nonzero" fill-opacity="1" /><path clip-path="url(#clip300)" d="M2068.45 1466.44 Q2065.31 1466.44 2063.45 1468.59 Q2061.62 1470.74 2061.62 1474.49 Q2061.62 1478.22 2063.45 1480.39 Q2065.31 1482.55 2068.45 1482.55 Q2071.6 1482.55 2073.43 1480.39 Q2075.28 1478.22 2075.28 1474.49 Q2075.28 1470.74 2073.43 1468.59 Q2071.6 1466.44 2068.45 1466.44 M2077.74 1451.78 L2077.74 1456.04 Q2075.98 1455.21 2074.17 1454.77 Q2072.39 1454.33 2070.63 1454.33 Q2066 1454.33 2063.55 1457.45 Q2061.12 1460.58 2060.77 1466.9 Q2062.13 1464.89 2064.19 1463.82 Q2066.25 1462.73 2068.73 1462.73 Q2073.94 1462.73 2076.95 1465.9 Q2079.98 1469.05 2079.98 1474.49 Q2079.98 1479.82 2076.83 1483.03 Q2073.69 1486.25 2068.45 1486.25 Q2062.46 1486.25 2059.29 1481.67 Q2056.12 1477.06 2056.12 1468.33 Q2056.12 1460.14 2060 1455.28 Q2063.89 1450.39 2070.44 1450.39 Q2072.2 1450.39 2073.99 1450.74 Q2075.79 1451.09 2077.74 1451.78 Z" fill="#000000" fill-rule="nonzero" fill-opacity="1" /><path clip-path="url(#clip300)" d="M2098.04 1454.1 Q2094.43 1454.1 2092.6 1457.66 Q2090.79 1461.2 2090.79 1468.33 Q2090.79 1475.44 2092.6 1479.01 Q2094.43 1482.55 2098.04 1482.55 Q2101.67 1482.55 2103.48 1479.01 Q2105.31 1475.44 2105.31 1468.33 Q2105.31 1461.2 2103.48 1457.66 Q2101.67 1454.1 2098.04 1454.1 M2098.04 1450.39 Q2103.85 1450.39 2106.9 1455 Q2109.98 1459.58 2109.98 1468.33 Q2109.98 1477.06 2106.9 1481.67 Q2103.85 1486.25 2098.04 1486.25 Q2092.23 1486.25 2089.15 1481.67 Q2086.09 1477.06 2086.09 1468.33 Q2086.09 1459.58 2089.15 1455 Q2092.23 1450.39 2098.04 1450.39 Z" fill="#000000" fill-rule="nonzero" fill-opacity="1" /><path clip-path="url(#clip300)" d="M1286.34 1518.52 L1292.23 1518.52 L1292.23 1547.77 L1309.7 1532.4 L1317.18 1532.4 L1298.27 1549.07 L1317.98 1568.04 L1310.34 1568.04 L1292.23 1550.63 L1292.23 1568.04 L1286.34 1568.04 L1286.34 1518.52 Z" fill="#000000" fill-rule="nonzero" fill-opacity="1" /><polyline clip-path="url(#clip302)" style="stroke:#000000; stroke-linecap:round; stroke-linejoin:round; stroke-width:2; stroke-opacity:0.1; fill:none" points="251.56,1242.04 2352.76,1242.04 "/>
<polyline clip-path="url(#clip302)" style="stroke:#000000; stroke-linecap:round; stroke-linejoin:round; stroke-width:2; stroke-opacity:0.1; fill:none" points="251.56,396.808 2352.76,396.808 "/>
<polyline clip-path="url(#clip300)" style="stroke:#000000; stroke-linecap:round; stroke-linejoin:round; stroke-width:4; stroke-opacity:1; fill:none" points="251.56,1423.18 251.56,123.472 "/>
<polyline clip-path="url(#clip300)" style="stroke:#000000; stroke-linecap:round; stroke-linejoin:round; stroke-width:4; stroke-opacity:1; fill:none" points="251.56,1242.04 270.458,1242.04 "/>
<polyline clip-path="url(#clip300)" style="stroke:#000000; stroke-linecap:round; stroke-linejoin:round; stroke-width:4; stroke-opacity:1; fill:none" points="251.56,396.808 270.458,396.808 "/>
<path clip-path="url(#clip300)" d="M114.931 1261.83 L122.57 1261.83 L122.57 1235.47 L114.26 1237.13 L114.26 1232.88 L122.524 1231.21 L127.2 1231.21 L127.2 1261.83 L134.839 1261.83 L134.839 1265.77 L114.931 1265.77 L114.931 1261.83 Z" fill="#000000" fill-rule="nonzero" fill-opacity="1" /><path clip-path="url(#clip300)" d="M154.283 1234.29 Q150.672 1234.29 148.843 1237.85 Q147.038 1241.39 147.038 1248.52 Q147.038 1255.63 148.843 1259.19 Q150.672 1262.74 154.283 1262.74 Q157.917 1262.74 159.723 1259.19 Q161.552 1255.63 161.552 1248.52 Q161.552 1241.39 159.723 1237.85 Q157.917 1234.29 154.283 1234.29 M154.283 1230.58 Q160.093 1230.58 163.149 1235.19 Q166.227 1239.77 166.227 1248.52 Q166.227 1257.25 163.149 1261.86 Q160.093 1266.44 154.283 1266.44 Q148.473 1266.44 145.394 1261.86 Q142.339 1257.25 142.339 1248.52 Q142.339 1239.77 145.394 1235.19 Q148.473 1230.58 154.283 1230.58 Z" fill="#000000" fill-rule="nonzero" fill-opacity="1" /><path clip-path="url(#clip300)" d="M166.227 1224.69 L190.339 1224.69 L190.339 1227.88 L166.227 1227.88 L166.227 1224.69 Z" fill="#000000" fill-rule="nonzero" fill-opacity="1" /><path clip-path="url(#clip300)" d="M198.577 1210.28 L213.491 1210.28 L213.491 1213.48 L202.056 1213.48 L202.056 1220.36 Q202.884 1220.08 203.711 1219.95 Q204.539 1219.8 205.366 1219.8 Q210.068 1219.8 212.814 1222.37 Q215.56 1224.95 215.56 1229.35 Q215.56 1233.88 212.739 1236.4 Q209.918 1238.9 204.783 1238.9 Q203.015 1238.9 201.172 1238.6 Q199.348 1238.3 197.392 1237.7 L197.392 1233.88 Q199.085 1234.8 200.89 1235.26 Q202.696 1235.71 204.708 1235.71 Q207.962 1235.71 209.861 1233.99 Q211.761 1232.28 211.761 1229.35 Q211.761 1226.42 209.861 1224.7 Q207.962 1222.99 204.708 1222.99 Q203.185 1222.99 201.661 1223.33 Q200.157 1223.67 198.577 1224.38 L198.577 1210.28 Z" fill="#000000" fill-rule="nonzero" fill-opacity="1" /><path clip-path="url(#clip300)" d="M144.855 416.6 L152.493 416.6 L152.493 390.234 L144.183 391.901 L144.183 387.642 L152.447 385.975 L157.123 385.975 L157.123 416.6 L164.762 416.6 L164.762 420.535 L144.855 420.535 L144.855 416.6 Z" fill="#000000" fill-rule="nonzero" fill-opacity="1" /><path clip-path="url(#clip300)" d="M184.206 389.054 Q180.595 389.054 178.766 392.619 Q176.961 396.16 176.961 403.29 Q176.961 410.396 178.766 413.961 Q180.595 417.503 184.206 417.503 Q187.84 417.503 189.646 413.961 Q191.475 410.396 191.475 403.29 Q191.475 396.16 189.646 392.619 Q187.84 389.054 184.206 389.054 M184.206 385.35 Q190.016 385.35 193.072 389.957 Q196.151 394.54 196.151 403.29 Q196.151 412.017 193.072 416.623 Q190.016 421.207 184.206 421.207 Q178.396 421.207 175.317 416.623 Q172.262 412.017 172.262 403.29 Q172.262 394.54 175.317 389.957 Q178.396 385.35 184.206 385.35 Z" fill="#000000" fill-rule="nonzero" fill-opacity="1" /><path clip-path="url(#clip300)" d="M205.855 367.546 Q202.921 367.546 201.436 370.443 Q199.969 373.32 199.969 379.113 Q199.969 384.887 201.436 387.783 Q202.921 390.661 205.855 390.661 Q208.808 390.661 210.275 387.783 Q211.761 384.887 211.761 379.113 Q211.761 373.32 210.275 370.443 Q208.808 367.546 205.855 367.546 M205.855 364.537 Q210.576 364.537 213.059 368.28 Q215.56 372.004 215.56 379.113 Q215.56 386.204 213.059 389.946 Q210.576 393.67 205.855 393.67 Q201.135 393.67 198.633 389.946 Q196.151 386.204 196.151 379.113 Q196.151 372.004 198.633 368.28 Q201.135 364.537 205.855 364.537 Z" fill="#000000" fill-rule="nonzero" fill-opacity="1" /><path clip-path="url(#clip300)" d="M32.4621 801.797 Q32.4621 806.507 36.1542 809.244 Q39.8145 811.982 46.212 811.982 Q52.6095 811.982 56.3017 809.276 Q59.9619 806.539 59.9619 801.797 Q59.9619 797.118 56.2698 794.381 Q52.5777 791.643 46.212 791.643 Q39.8781 791.643 36.186 794.381 Q32.4621 797.118 32.4621 801.797 M27.4968 801.797 Q27.4968 794.158 32.4621 789.797 Q37.4273 785.437 46.212 785.437 Q54.9649 785.437 59.9619 789.797 Q64.9272 794.158 64.9272 801.797 Q64.9272 809.467 59.9619 813.828 Q54.9649 818.156 46.212 818.156 Q37.4273 818.156 32.4621 813.828 Q27.4968 809.467 27.4968 801.797 Z" fill="#000000" fill-rule="nonzero" fill-opacity="1" /><path clip-path="url(#clip300)" d="M46.212 750.139 Q39.7508 750.139 36.0905 752.812 Q32.3984 755.454 32.3984 760.101 Q32.3984 764.748 36.0905 767.422 Q39.7508 770.064 46.212 770.064 Q52.6732 770.064 56.3653 767.422 Q60.0256 764.748 60.0256 760.101 Q60.0256 755.454 56.3653 752.812 Q52.6732 750.139 46.212 750.139 M33.7671 770.064 Q30.5842 768.218 29.0564 765.417 Q27.4968 762.584 27.4968 758.669 Q27.4968 752.176 32.6531 748.134 Q37.8093 744.06 46.212 744.06 Q54.6147 744.06 59.771 748.134 Q64.9272 752.176 64.9272 758.669 Q64.9272 762.584 63.3994 765.417 Q61.8398 768.218 58.657 770.064 L64.0042 770.064 L64.0042 775.952 L14.479 775.952 L14.479 770.064 L33.7671 770.064 Z" fill="#000000" fill-rule="nonzero" fill-opacity="1" /><path clip-path="url(#clip300)" d="M28.3562 734.352 L28.3562 728.495 L64.6407 728.495 Q71.452 728.495 74.5076 731.105 Q77.5631 733.684 77.5631 739.445 L77.5631 741.673 L72.5979 741.673 L72.5979 740.113 Q72.5979 736.771 71.0383 735.561 Q69.5105 734.352 64.6407 734.352 L28.3562 734.352 M14.479 734.352 L14.479 728.495 L21.895 728.495 L21.895 734.352 L14.479 734.352 Z" fill="#000000" fill-rule="nonzero" fill-opacity="1" /><path clip-path="url(#clip300)" d="M957.973 65.7705 L957.973 89.8329 L950.479 89.8329 L950.479 27.2059 L957.973 27.2059 L957.973 34.0924 Q960.323 30.0415 963.887 28.0971 Q967.493 26.1121 972.475 26.1121 Q980.739 26.1121 985.884 32.6746 Q991.069 39.2371 991.069 49.9314 Q991.069 60.6258 985.884 67.1883 Q980.739 73.7508 972.475 73.7508 Q967.493 73.7508 963.887 71.8063 Q960.323 69.8214 957.973 65.7705 M983.332 49.9314 Q983.332 41.7081 979.929 37.0496 Q976.567 32.3505 970.652 32.3505 Q964.738 32.3505 961.335 37.0496 Q957.973 41.7081 957.973 49.9314 Q957.973 58.1548 961.335 62.8538 Q964.738 67.5124 970.652 67.5124 Q976.567 67.5124 979.929 62.8538 Q983.332 58.1548 983.332 49.9314 Z" fill="#000000" fill-rule="nonzero" fill-opacity="1" /><path clip-path="url(#clip300)" d="M1029.71 34.1734 Q1028.46 33.4443 1026.96 33.1202 Q1025.5 32.7556 1023.72 32.7556 Q1017.4 32.7556 1014 36.8875 Q1010.63 40.9789 1010.63 48.6757 L1010.63 72.576 L1003.14 72.576 L1003.14 27.2059 L1010.63 27.2059 L1010.63 34.2544 Q1012.98 30.1225 1016.75 28.1376 Q1020.52 26.1121 1025.91 26.1121 Q1026.68 26.1121 1027.61 26.2337 Q1028.54 26.3147 1029.67 26.5172 L1029.71 34.1734 Z" fill="#000000" fill-rule="nonzero" fill-opacity="1" /><path clip-path="url(#clip300)" d="M1053.29 32.4315 Q1047.3 32.4315 1043.81 37.1306 Q1040.33 41.7891 1040.33 49.9314 Q1040.33 58.0738 1043.77 62.7728 Q1047.25 67.4314 1053.29 67.4314 Q1059.25 67.4314 1062.73 62.7323 Q1066.21 58.0333 1066.21 49.9314 Q1066.21 41.8701 1062.73 37.1711 Q1059.25 32.4315 1053.29 32.4315 M1053.29 26.1121 Q1063.01 26.1121 1068.56 32.4315 Q1074.11 38.7509 1074.11 49.9314 Q1074.11 61.0714 1068.56 67.4314 Q1063.01 73.7508 1053.29 73.7508 Q1043.53 73.7508 1037.98 67.4314 Q1032.47 61.0714 1032.47 49.9314 Q1032.47 38.7509 1037.98 32.4315 Q1043.53 26.1121 1053.29 26.1121 Z" fill="#000000" fill-rule="nonzero" fill-opacity="1" /><path clip-path="url(#clip300)" d="M1119.04 49.9314 Q1119.04 41.7081 1115.63 37.0496 Q1112.27 32.3505 1106.36 32.3505 Q1100.44 32.3505 1097.04 37.0496 Q1093.68 41.7081 1093.68 49.9314 Q1093.68 58.1548 1097.04 62.8538 Q1100.44 67.5124 1106.36 67.5124 Q1112.27 67.5124 1115.63 62.8538 Q1119.04 58.1548 1119.04 49.9314 M1093.68 34.0924 Q1096.03 30.0415 1099.59 28.0971 Q1103.2 26.1121 1108.18 26.1121 Q1116.44 26.1121 1121.59 32.6746 Q1126.77 39.2371 1126.77 49.9314 Q1126.77 60.6258 1121.59 67.1883 Q1116.44 73.7508 1108.18 73.7508 Q1103.2 73.7508 1099.59 71.8063 Q1096.03 69.8214 1093.68 65.7705 L1093.68 72.576 L1086.18 72.576 L1086.18 9.54393 L1093.68 9.54393 L1093.68 34.0924 Z" fill="#000000" fill-rule="nonzero" fill-opacity="1" /><path clip-path="url(#clip300)" d="M1139.13 9.54393 L1146.58 9.54393 L1146.58 72.576 L1139.13 72.576 L1139.13 9.54393 Z" fill="#000000" fill-rule="nonzero" fill-opacity="1" /><path clip-path="url(#clip300)" d="M1200.99 48.0275 L1200.99 51.6733 L1166.72 51.6733 Q1167.2 59.3701 1171.33 63.421 Q1175.51 67.4314 1182.92 67.4314 Q1187.21 67.4314 1191.22 66.3781 Q1195.27 65.3249 1199.24 63.2184 L1199.24 70.267 Q1195.23 71.9684 1191.02 72.8596 Q1186.81 73.7508 1182.47 73.7508 Q1171.62 73.7508 1165.26 67.4314 Q1158.94 61.1119 1158.94 50.3365 Q1158.94 39.1965 1164.93 32.6746 Q1170.97 26.1121 1181.18 26.1121 Q1190.33 26.1121 1195.64 32.0264 Q1200.99 37.9003 1200.99 48.0275 M1193.53 45.84 Q1193.45 39.7232 1190.09 36.0774 Q1186.77 32.4315 1181.26 32.4315 Q1175.02 32.4315 1171.25 35.9558 Q1167.53 39.4801 1166.96 45.8805 L1193.53 45.84 M1174.86 6.22219 L1186.28 21.3726 L1180.08 21.3726 L1166.88 6.22219 L1174.86 6.22219 Z" fill="#000000" fill-rule="nonzero" fill-opacity="1" /><path clip-path="url(#clip300)" d="M1248.54 35.9153 Q1251.34 30.8922 1255.23 28.5022 Q1259.12 26.1121 1264.38 26.1121 Q1271.47 26.1121 1275.32 31.0947 Q1279.17 36.0368 1279.17 45.1919 L1279.17 72.576 L1271.68 72.576 L1271.68 45.4349 Q1271.68 38.913 1269.37 35.7533 Q1267.06 32.5936 1262.32 32.5936 Q1256.52 32.5936 1253.16 36.4419 Q1249.8 40.2903 1249.8 46.9338 L1249.8 72.576 L1242.31 72.576 L1242.31 45.4349 Q1242.31 38.8725 1240 35.7533 Q1237.69 32.5936 1232.87 32.5936 Q1227.16 32.5936 1223.79 36.4824 Q1220.43 40.3308 1220.43 46.9338 L1220.43 72.576 L1212.94 72.576 L1212.94 27.2059 L1220.43 27.2059 L1220.43 34.2544 Q1222.98 30.082 1226.55 28.0971 Q1230.11 26.1121 1235.01 26.1121 Q1239.96 26.1121 1243.4 28.6237 Q1246.88 31.1352 1248.54 35.9153 Z" fill="#000000" fill-rule="nonzero" fill-opacity="1" /><path clip-path="url(#clip300)" d="M1332.84 48.0275 L1332.84 51.6733 L1298.57 51.6733 Q1299.06 59.3701 1303.19 63.421 Q1307.36 67.4314 1314.78 67.4314 Q1319.07 67.4314 1323.08 66.3781 Q1327.13 65.3249 1331.1 63.2184 L1331.1 70.267 Q1327.09 71.9684 1322.88 72.8596 Q1318.67 73.7508 1314.33 73.7508 Q1303.47 73.7508 1297.11 67.4314 Q1290.8 61.1119 1290.8 50.3365 Q1290.8 39.1965 1296.79 32.6746 Q1302.83 26.1121 1313.03 26.1121 Q1322.19 26.1121 1327.5 32.0264 Q1332.84 37.9003 1332.84 48.0275 M1325.39 45.84 Q1325.31 39.7232 1321.95 36.0774 Q1318.63 32.4315 1313.12 32.4315 Q1306.88 32.4315 1303.11 35.9558 Q1299.38 39.4801 1298.82 45.8805 L1325.39 45.84 Z" fill="#000000" fill-rule="nonzero" fill-opacity="1" /><path clip-path="url(#clip300)" d="M1373.35 62.2867 L1381.9 62.2867 L1381.9 72.576 L1373.35 72.576 L1373.35 62.2867 M1373.35 29.6769 L1381.9 29.6769 L1381.9 39.9662 L1373.35 39.9662 L1373.35 29.6769 Z" fill="#000000" fill-rule="nonzero" fill-opacity="1" /><path clip-path="url(#clip300)" d="M1433.14 14.324 L1433.14 27.2059 L1448.5 27.2059 L1448.5 32.9987 L1433.14 32.9987 L1433.14 57.6282 Q1433.14 63.1779 1434.64 64.7578 Q1436.18 66.3376 1440.84 66.3376 L1448.5 66.3376 L1448.5 72.576 L1440.84 72.576 Q1432.21 72.576 1428.93 69.3758 Q1425.65 66.1351 1425.65 57.6282 L1425.65 32.9987 L1420.18 32.9987 L1420.18 27.2059 L1425.65 27.2059 L1425.65 14.324 L1433.14 14.324 Z" fill="#000000" fill-rule="nonzero" fill-opacity="1" /><path clip-path="url(#clip300)" d="M1465.51 65.7705 L1465.51 89.8329 L1458.02 89.8329 L1458.02 27.2059 L1465.51 27.2059 L1465.51 34.0924 Q1467.86 30.0415 1471.43 28.0971 Q1475.03 26.1121 1480.01 26.1121 Q1488.28 26.1121 1493.42 32.6746 Q1498.61 39.2371 1498.61 49.9314 Q1498.61 60.6258 1493.42 67.1883 Q1488.28 73.7508 1480.01 73.7508 Q1475.03 73.7508 1471.43 71.8063 Q1467.86 69.8214 1465.51 65.7705 M1490.87 49.9314 Q1490.87 41.7081 1487.47 37.0496 Q1484.1 32.3505 1478.19 32.3505 Q1472.28 32.3505 1468.87 37.0496 Q1465.51 41.7081 1465.51 49.9314 Q1465.51 58.1548 1468.87 62.8538 Q1472.28 67.5124 1478.19 67.5124 Q1484.1 67.5124 1487.47 62.8538 Q1490.87 58.1548 1490.87 49.9314 Z" fill="#000000" fill-rule="nonzero" fill-opacity="1" /><path clip-path="url(#clip300)" d="M1519.06 65.6895 L1547.62 65.6895 L1547.62 72.576 L1509.22 72.576 L1509.22 65.6895 Q1513.88 60.8689 1521.9 52.7671 Q1529.96 44.6248 1532.03 42.2752 Q1535.96 37.8598 1537.5 34.8216 Q1539.08 31.7429 1539.08 28.7857 Q1539.08 23.9651 1535.67 20.927 Q1532.31 17.8888 1526.88 17.8888 Q1523.03 17.8888 1518.74 19.2256 Q1514.49 20.5624 1509.63 23.2765 L1509.63 15.0127 Q1514.57 13.0277 1518.86 12.015 Q1523.16 11.0023 1526.72 11.0023 Q1536.12 11.0023 1541.71 15.7013 Q1547.3 20.4004 1547.3 28.2591 Q1547.3 31.9859 1545.88 35.3482 Q1544.5 38.6699 1540.82 43.2069 Q1539.8 44.3817 1534.38 50.0125 Q1528.95 55.6027 1519.06 65.6895 Z" fill="#000000" fill-rule="nonzero" fill-opacity="1" /><path clip-path="url(#clip300)" d="M1587.28 19.2256 L1566.62 51.5113 L1587.28 51.5113 L1587.28 19.2256 M1585.13 12.096 L1595.42 12.096 L1595.42 51.5113 L1604.05 51.5113 L1604.05 58.3168 L1595.42 58.3168 L1595.42 72.576 L1587.28 72.576 L1587.28 58.3168 L1559.98 58.3168 L1559.98 50.4176 L1585.13 12.096 Z" fill="#000000" fill-rule="nonzero" fill-opacity="1" /><path clip-path="url(#clip300)" d="M1619 65.6895 L1632.37 65.6895 L1632.37 19.5497 L1617.82 22.4663 L1617.82 15.0127 L1632.29 12.096 L1640.47 12.096 L1640.47 65.6895 L1653.84 65.6895 L1653.84 72.576 L1619 72.576 L1619 65.6895 Z" fill="#000000" fill-rule="nonzero" fill-opacity="1" /><polyline clip-path="url(#clip302)" style="stroke:#009af9; stroke-linecap:round; stroke-linejoin:round; stroke-width:4; stroke-opacity:1; fill:none" points="311.028,160.256 341.062,160.256 371.097,160.256 401.131,160.256 431.165,160.256 461.199,160.256 491.234,160.256 521.268,160.256 551.302,160.256 581.336,160.256 611.37,193.111 641.405,193.111 671.439,205.952 701.473,222.439 731.507,242.001 761.542,266.663 791.576,295.17 821.61,327.153 851.644,363.115 881.679,405.259 911.713,455.313 941.747,505.708 971.781,546.659 1001.82,576.451 1031.85,601.081 1061.88,622.886 1091.92,642.841 1121.95,661.564 1151.99,679.462 1182.02,696.807 1212.06,713.776 1242.09,730.487 1272.12,747.02 1302.16,763.428 1332.19,779.748 1362.23,796.005 1392.26,812.217 1422.3,828.395 1452.33,844.548 1482.36,860.682 1512.4,876.803 1542.43,892.913 1572.47,909.015 1602.5,925.11 1632.53,941.2 1662.57,957.287 1692.6,973.37 1722.64,989.451 1752.67,1005.53 1782.71,1021.61 1812.74,1037.68 1842.77,1053.76 1872.81,1069.83 1902.84,1085.91 1932.88,1101.98 1962.91,1118.05 1992.95,1134.13 2022.98,1150.2 2053.01,1166.27 2083.05,1182.34 2113.08,1198.42 2143.12,1214.49 2173.15,1230.56 2203.19,1246.63 2233.22,1262.7 2263.25,1278.77 2293.29,1294.85 "/>
<polyline clip-path="url(#clip302)" style="stroke:#e26f46; stroke-linecap:round; stroke-linejoin:round; stroke-width:4; stroke-opacity:1; fill:none" points="311.028,160.256 341.062,160.256 371.097,160.256 401.131,160.256 431.165,160.256 461.199,160.256 491.234,160.256 521.268,160.256 551.302,160.256 581.336,160.256 611.37,193.111 641.405,193.111 671.439,205.952 701.473,222.439 731.507,241.518 761.542,266.129 791.576,294.715 821.61,326.915 851.644,362.731 881.679,400.124 911.713,442.383 941.747,485.319 971.781,524.431 1001.82,566.01 1031.85,592.838 1061.88,615.891 1091.92,638.469 1121.95,658.709 1151.99,679.654 1182.02,698.959 1212.06,719.405 1242.09,738.687 1272.12,759.141 1302.16,778.843 1332.19,798.995 1362.23,818.919 1392.26,838.737 1422.3,858.141 1452.33,878.334 1482.36,897.506 1512.4,917.724 1542.43,936.856 1572.47,957.085 1602.5,976.199 1632.53,996.43 1662.57,1015.54 1692.6,1035.77 1722.64,1054.87 1752.67,1075.1 1782.71,1094.19 1812.74,1114.42 1842.77,1133.52 1872.81,1153.75 1902.84,1172.84 1932.88,1193.07 1962.91,1212.17 1992.95,1232.39 2022.98,1251.49 2053.01,1271.72 2083.05,1290.81 2113.08,1311.04 "/>
<polyline clip-path="url(#clip302)" style="stroke:#3da44d; stroke-linecap:round; stroke-linejoin:round; stroke-width:4; stroke-opacity:1; fill:none" points="311.028,160.256 341.062,160.256 371.097,160.256 401.131,160.256 431.165,160.256 461.199,160.256 491.234,160.256 521.268,160.256 551.302,160.256 581.336,160.256 611.37,193.111 641.405,193.111 671.439,205.952 701.473,222.439 731.507,241.518 761.542,266.129 791.576,294.715 821.61,326.915 851.644,362.731 881.679,400.124 911.713,442.383 941.747,485.319 971.781,524.431 1001.82,566.01 1031.85,592.838 1061.88,615.891 1091.92,638.469 1121.95,658.709 1151.99,679.654 1182.02,698.959 1212.06,719.405 1242.09,738.687 1272.12,759.141 1302.16,778.843 1332.19,798.995 1362.23,818.919 1392.26,838.737 1422.3,858.141 1452.33,878.334 1482.36,897.506 1512.4,917.724 1542.43,936.856 1572.47,957.085 1602.5,976.199 1632.53,996.43 1662.57,1015.54 1692.6,1035.77 1722.64,1054.87 1752.67,1075.1 1782.71,1094.19 1812.74,1114.42 1842.77,1133.52 1872.81,1153.75 1902.84,1172.84 1932.88,1193.07 1962.91,1212.17 1992.95,1232.39 2022.98,1251.49 2053.01,1271.72 2083.05,1290.81 2113.08,1311.04 "/>
<polyline clip-path="url(#clip302)" style="stroke:#c271d2; stroke-linecap:round; stroke-linejoin:round; stroke-width:4; stroke-opacity:1; fill:none" points="311.028,160.256 341.062,160.256 371.097,160.256 401.131,160.256 431.165,160.256 461.199,160.256 491.234,160.256 521.268,160.256 551.302,160.256 581.336,160.256 611.37,193.111 641.405,193.111 671.439,205.952 701.473,222.439 731.507,242.001 761.542,266.663 791.576,295.17 821.61,327.153 851.644,363.115 881.679,405.259 911.713,455.313 941.747,505.708 971.781,546.659 1001.82,576.451 1031.85,601.081 1061.88,622.886 1091.92,642.841 1121.95,661.564 1151.99,679.462 1182.02,696.807 1212.06,713.776 1242.09,730.487 1272.12,747.02 1302.16,763.428 1332.19,779.748 1362.23,796.005 1392.26,812.217 1422.3,828.395 1452.33,844.548 1482.36,860.682 1512.4,876.803 1542.43,892.913 1572.47,909.015 1602.5,925.11 1632.53,941.2 1662.57,957.287 1692.6,973.37 1722.64,989.451 1752.67,1005.53 1782.71,1021.61 1812.74,1037.68 1842.77,1053.76 1872.81,1069.83 1902.84,1085.91 1932.88,1101.98 1962.91,1118.05 1992.95,1134.13 2022.98,1150.2 2053.01,1166.27 2083.05,1182.34 2113.08,1198.42 2143.12,1214.49 2173.15,1230.56 2203.19,1246.63 2233.22,1262.7 2263.25,1278.77 2293.29,1294.85 "/>
<polyline clip-path="url(#clip302)" style="stroke:#ac8d18; stroke-linecap:round; stroke-linejoin:round; stroke-width:4; stroke-opacity:1; fill:none" points="311.028,160.256 341.062,160.256 371.097,160.256 401.131,160.256 431.165,160.256 461.199,160.256 491.234,160.256 521.268,160.256 551.302,160.256 581.336,160.256 611.37,193.323 641.405,193.323 671.439,206.056 701.473,222.54 731.507,245.718 761.542,275.571 791.576,310.634 821.61,350.277 851.644,396.106 881.679,450.3 911.713,505.549 941.747,551.55 971.781,594.899 1001.82,645.081 1031.85,713.098 1061.88,814.176 1091.92,958.831 1121.95,1148.85 1151.99,1386.4 "/>
<path clip-path="url(#clip300)" d="M1749.5 477.836 L2282.72 477.836 L2282.72 166.796 L1749.5 166.796  Z" fill="#ffffff" fill-rule="evenodd" fill-opacity="1"/>
<polyline clip-path="url(#clip300)" style="stroke:#000000; stroke-linecap:round; stroke-linejoin:round; stroke-width:4; stroke-opacity:1; fill:none" points="1749.5,477.836 2282.72,477.836 2282.72,166.796 1749.5,166.796 1749.5,477.836 "/>
<polyline clip-path="url(#clip300)" style="stroke:#009af9; stroke-linecap:round; stroke-linejoin:round; stroke-width:4; stroke-opacity:1; fill:none" points="1772.84,218.636 1912.92,218.636 "/>
<path clip-path="url(#clip300)" d="M1936.27 201.356 L1940.95 201.356 L1940.95 231.981 L1957.77 231.981 L1957.77 235.916 L1936.27 235.916 L1936.27 201.356 Z" fill="#000000" fill-rule="nonzero" fill-opacity="1" /><path clip-path="url(#clip300)" d="M1962.68 201.356 L1969.65 201.356 L1978.47 224.874 L1987.33 201.356 L1994.3 201.356 L1994.3 235.916 L1989.74 235.916 L1989.74 205.569 L1980.83 229.272 L1976.13 229.272 L1967.22 205.569 L1967.22 235.916 L1962.68 235.916 L1962.68 201.356 Z" fill="#000000" fill-rule="nonzero" fill-opacity="1" /><path clip-path="url(#clip300)" d="M2023.1 243.786 L2023.1 247.096 L1998.47 247.096 L1998.47 243.786 L2023.1 243.786 Z" fill="#000000" fill-rule="nonzero" fill-opacity="1" /><path clip-path="url(#clip300)" d="M2048 202.49 L2048 207.05 Q2045.34 205.777 2042.98 205.152 Q2040.62 204.527 2038.42 204.527 Q2034.6 204.527 2032.52 206.008 Q2030.46 207.49 2030.46 210.221 Q2030.46 212.513 2031.82 213.694 Q2033.21 214.851 2037.06 215.569 L2039.88 216.147 Q2045.11 217.143 2047.59 219.666 Q2050.09 222.166 2050.09 226.379 Q2050.09 231.402 2046.71 233.994 Q2043.35 236.587 2036.85 236.587 Q2034.39 236.587 2031.62 236.031 Q2028.86 235.476 2025.9 234.388 L2025.9 229.573 Q2028.75 231.17 2031.48 231.981 Q2034.21 232.791 2036.85 232.791 Q2040.85 232.791 2043.03 231.217 Q2045.2 229.643 2045.2 226.726 Q2045.2 224.18 2043.63 222.744 Q2042.08 221.309 2038.51 220.592 L2035.67 220.036 Q2030.44 218.995 2028.1 216.772 Q2025.76 214.55 2025.76 210.592 Q2025.76 206.008 2028.98 203.37 Q2032.22 200.731 2037.89 200.731 Q2040.32 200.731 2042.84 201.171 Q2045.37 201.61 2048 202.49 Z" fill="#000000" fill-rule="nonzero" fill-opacity="1" /><path clip-path="url(#clip300)" d="M2062.06 205.198 L2062.06 218.184 L2067.94 218.184 Q2071.2 218.184 2072.98 216.495 Q2074.76 214.805 2074.76 211.68 Q2074.76 208.578 2072.98 206.888 Q2071.2 205.198 2067.94 205.198 L2062.06 205.198 M2057.38 201.356 L2067.94 201.356 Q2073.75 201.356 2076.71 203.995 Q2079.69 206.61 2079.69 211.68 Q2079.69 216.795 2076.71 219.411 Q2073.75 222.027 2067.94 222.027 L2062.06 222.027 L2062.06 235.916 L2057.38 235.916 L2057.38 201.356 Z" fill="#000000" fill-rule="nonzero" fill-opacity="1" /><path clip-path="url(#clip300)" d="M2109.53 230.985 L2109.53 221.703 L2101.89 221.703 L2101.89 217.86 L2114.16 217.86 L2114.16 232.698 Q2111.45 234.619 2108.19 235.615 Q2104.93 236.587 2101.22 236.587 Q2093.12 236.587 2088.54 231.865 Q2083.98 227.119 2083.98 218.67 Q2083.98 210.198 2088.54 205.476 Q2093.12 200.731 2101.22 200.731 Q2104.6 200.731 2107.63 201.564 Q2110.69 202.397 2113.26 204.018 L2113.26 208.995 Q2110.67 206.796 2107.75 205.684 Q2104.83 204.573 2101.62 204.573 Q2095.27 204.573 2092.08 208.115 Q2088.91 211.657 2088.91 218.67 Q2088.91 225.661 2092.08 229.203 Q2095.27 232.744 2101.62 232.744 Q2104.09 232.744 2106.04 232.328 Q2107.98 231.888 2109.53 230.985 Z" fill="#000000" fill-rule="nonzero" fill-opacity="1" /><polyline clip-path="url(#clip300)" style="stroke:#e26f46; stroke-linecap:round; stroke-linejoin:round; stroke-width:4; stroke-opacity:1; fill:none" points="1772.84,270.476 1912.92,270.476 "/>
<path clip-path="url(#clip300)" d="M1936.27 253.196 L1940.95 253.196 L1940.95 283.821 L1957.77 283.821 L1957.77 287.756 L1936.27 287.756 L1936.27 253.196 Z" fill="#000000" fill-rule="nonzero" fill-opacity="1" /><path clip-path="url(#clip300)" d="M1962.68 253.196 L1969.65 253.196 L1978.47 276.714 L1987.33 253.196 L1994.3 253.196 L1994.3 287.756 L1989.74 287.756 L1989.74 257.409 L1980.83 281.112 L1976.13 281.112 L1967.22 257.409 L1967.22 287.756 L1962.68 287.756 L1962.68 253.196 Z" fill="#000000" fill-rule="nonzero" fill-opacity="1" /><path clip-path="url(#clip300)" d="M2023.1 295.626 L2023.1 298.936 L1998.47 298.936 L1998.47 295.626 L2023.1 295.626 Z" fill="#000000" fill-rule="nonzero" fill-opacity="1" /><path clip-path="url(#clip300)" d="M2038.84 257.802 L2032.5 275.001 L2045.2 275.001 L2038.84 257.802 M2036.2 253.196 L2041.5 253.196 L2054.67 287.756 L2049.81 287.756 L2046.66 278.89 L2031.08 278.89 L2027.94 287.756 L2023 287.756 L2036.2 253.196 Z" fill="#000000" fill-rule="nonzero" fill-opacity="1" /><path clip-path="url(#clip300)" d="M2081.08 272.108 L2081.08 287.756 L2076.82 287.756 L2076.82 272.247 Q2076.82 268.566 2075.39 266.737 Q2073.95 264.909 2071.08 264.909 Q2067.63 264.909 2065.64 267.108 Q2063.65 269.307 2063.65 273.103 L2063.65 287.756 L2059.37 287.756 L2059.37 261.83 L2063.65 261.83 L2063.65 265.858 Q2065.18 263.52 2067.24 262.362 Q2069.32 261.205 2072.03 261.205 Q2076.5 261.205 2078.79 263.983 Q2081.08 266.737 2081.08 272.108 Z" fill="#000000" fill-rule="nonzero" fill-opacity="1" /><path clip-path="url(#clip300)" d="M2106.64 265.765 L2106.64 251.737 L2110.9 251.737 L2110.9 287.756 L2106.64 287.756 L2106.64 283.867 Q2105.3 286.182 2103.24 287.316 Q2101.2 288.427 2098.33 288.427 Q2093.63 288.427 2090.67 284.677 Q2087.73 280.927 2087.73 274.816 Q2087.73 268.705 2090.67 264.955 Q2093.63 261.205 2098.33 261.205 Q2101.2 261.205 2103.24 262.339 Q2105.3 263.45 2106.64 265.765 M2092.12 274.816 Q2092.12 279.515 2094.05 282.2 Q2095.99 284.862 2099.37 284.862 Q2102.75 284.862 2104.69 282.2 Q2106.64 279.515 2106.64 274.816 Q2106.64 270.117 2104.69 267.455 Q2102.75 264.77 2099.37 264.77 Q2095.99 264.77 2094.05 267.455 Q2092.12 270.117 2092.12 274.816 Z" fill="#000000" fill-rule="nonzero" fill-opacity="1" /><path clip-path="url(#clip300)" d="M2134.69 265.811 Q2133.98 265.395 2133.12 265.21 Q2132.29 265.001 2131.27 265.001 Q2127.66 265.001 2125.71 267.362 Q2123.79 269.7 2123.79 274.098 L2123.79 287.756 L2119.51 287.756 L2119.51 261.83 L2123.79 261.83 L2123.79 265.858 Q2125.13 263.497 2127.29 262.362 Q2129.44 261.205 2132.52 261.205 Q2132.96 261.205 2133.49 261.274 Q2134.02 261.321 2134.67 261.436 L2134.69 265.811 Z" fill="#000000" fill-rule="nonzero" fill-opacity="1" /><path clip-path="url(#clip300)" d="M2160.3 273.728 L2160.3 275.811 L2140.71 275.811 Q2140.99 280.209 2143.35 282.524 Q2145.74 284.816 2149.97 284.816 Q2152.43 284.816 2154.72 284.214 Q2157.03 283.612 2159.3 282.409 L2159.3 286.436 Q2157.01 287.408 2154.6 287.918 Q2152.19 288.427 2149.72 288.427 Q2143.51 288.427 2139.88 284.816 Q2136.27 281.205 2136.27 275.047 Q2136.27 268.682 2139.69 264.955 Q2143.14 261.205 2148.98 261.205 Q2154.21 261.205 2157.24 264.585 Q2160.3 267.941 2160.3 273.728 M2156.04 272.478 Q2155.99 268.983 2154.07 266.899 Q2152.17 264.816 2149.02 264.816 Q2145.46 264.816 2143.31 266.83 Q2141.18 268.844 2140.85 272.501 L2156.04 272.478 Z" fill="#000000" fill-rule="nonzero" fill-opacity="1" /><path clip-path="url(#clip300)" d="M2167.29 261.83 L2171.55 261.83 L2171.55 287.756 L2167.29 287.756 L2167.29 261.83 M2167.29 251.737 L2171.55 251.737 L2171.55 257.131 L2167.29 257.131 L2167.29 251.737 Z" fill="#000000" fill-rule="nonzero" fill-opacity="1" /><path clip-path="url(#clip300)" d="M2200.16 295.626 L2200.16 298.936 L2175.53 298.936 L2175.53 295.626 L2200.16 295.626 Z" fill="#000000" fill-rule="nonzero" fill-opacity="1" /><path clip-path="url(#clip300)" d="M2215.94 274.723 Q2210.78 274.723 2208.79 275.904 Q2206.8 277.084 2206.8 279.932 Q2206.8 282.2 2208.28 283.543 Q2209.79 284.862 2212.36 284.862 Q2215.9 284.862 2218.03 282.362 Q2220.18 279.839 2220.18 275.672 L2220.18 274.723 L2215.94 274.723 M2224.44 272.964 L2224.44 287.756 L2220.18 287.756 L2220.18 283.821 Q2218.72 286.182 2216.55 287.316 Q2214.37 288.427 2211.22 288.427 Q2207.24 288.427 2204.88 286.205 Q2202.54 283.959 2202.54 280.209 Q2202.54 275.834 2205.46 273.612 Q2208.4 271.39 2214.21 271.39 L2220.18 271.39 L2220.18 270.973 Q2220.18 268.034 2218.24 266.436 Q2216.31 264.816 2212.82 264.816 Q2210.6 264.816 2208.49 265.348 Q2206.38 265.881 2204.44 266.946 L2204.44 263.01 Q2206.78 262.108 2208.98 261.668 Q2211.18 261.205 2213.26 261.205 Q2218.88 261.205 2221.66 264.122 Q2224.44 267.038 2224.44 272.964 Z" fill="#000000" fill-rule="nonzero" fill-opacity="1" /><path clip-path="url(#clip300)" d="M2233.21 251.737 L2237.47 251.737 L2237.47 287.756 L2233.21 287.756 L2233.21 251.737 Z" fill="#000000" fill-rule="nonzero" fill-opacity="1" /><path clip-path="url(#clip300)" d="M2250.6 254.469 L2250.6 261.83 L2259.37 261.83 L2259.37 265.14 L2250.6 265.14 L2250.6 279.214 Q2250.6 282.385 2251.45 283.288 Q2252.33 284.191 2254.99 284.191 L2259.37 284.191 L2259.37 287.756 L2254.99 287.756 Q2250.06 287.756 2248.19 285.927 Q2246.31 284.075 2246.31 279.214 L2246.31 265.14 L2243.19 265.14 L2243.19 261.83 L2246.31 261.83 L2246.31 254.469 L2250.6 254.469 Z" fill="#000000" fill-rule="nonzero" fill-opacity="1" /><polyline clip-path="url(#clip300)" style="stroke:#3da44d; stroke-linecap:round; stroke-linejoin:round; stroke-width:4; stroke-opacity:1; fill:none" points="1772.84,322.316 1912.92,322.316 "/>
<path clip-path="url(#clip300)" d="M1936.27 305.036 L1940.95 305.036 L1940.95 335.661 L1957.77 335.661 L1957.77 339.596 L1936.27 339.596 L1936.27 305.036 Z" fill="#000000" fill-rule="nonzero" fill-opacity="1" /><path clip-path="url(#clip300)" d="M1962.68 305.036 L1969.65 305.036 L1978.47 328.554 L1987.33 305.036 L1994.3 305.036 L1994.3 339.596 L1989.74 339.596 L1989.74 309.249 L1980.83 332.952 L1976.13 332.952 L1967.22 309.249 L1967.22 339.596 L1962.68 339.596 L1962.68 305.036 Z" fill="#000000" fill-rule="nonzero" fill-opacity="1" /><path clip-path="url(#clip300)" d="M2023.1 347.466 L2023.1 350.776 L1998.47 350.776 L1998.47 347.466 L2023.1 347.466 Z" fill="#000000" fill-rule="nonzero" fill-opacity="1" /><path clip-path="url(#clip300)" d="M2038.84 309.642 L2032.5 326.841 L2045.2 326.841 L2038.84 309.642 M2036.2 305.036 L2041.5 305.036 L2054.67 339.596 L2049.81 339.596 L2046.66 330.73 L2031.08 330.73 L2027.94 339.596 L2023 339.596 L2036.2 305.036 Z" fill="#000000" fill-rule="nonzero" fill-opacity="1" /><path clip-path="url(#clip300)" d="M2081.08 323.948 L2081.08 339.596 L2076.82 339.596 L2076.82 324.087 Q2076.82 320.406 2075.39 318.577 Q2073.95 316.749 2071.08 316.749 Q2067.63 316.749 2065.64 318.948 Q2063.65 321.147 2063.65 324.943 L2063.65 339.596 L2059.37 339.596 L2059.37 313.67 L2063.65 313.67 L2063.65 317.698 Q2065.18 315.36 2067.24 314.202 Q2069.32 313.045 2072.03 313.045 Q2076.5 313.045 2078.79 315.823 Q2081.08 318.577 2081.08 323.948 Z" fill="#000000" fill-rule="nonzero" fill-opacity="1" /><path clip-path="url(#clip300)" d="M2106.64 317.605 L2106.64 303.577 L2110.9 303.577 L2110.9 339.596 L2106.64 339.596 L2106.64 335.707 Q2105.3 338.022 2103.24 339.156 Q2101.2 340.267 2098.33 340.267 Q2093.63 340.267 2090.67 336.517 Q2087.73 332.767 2087.73 326.656 Q2087.73 320.545 2090.67 316.795 Q2093.63 313.045 2098.33 313.045 Q2101.2 313.045 2103.24 314.179 Q2105.3 315.29 2106.64 317.605 M2092.12 326.656 Q2092.12 331.355 2094.05 334.04 Q2095.99 336.702 2099.37 336.702 Q2102.75 336.702 2104.69 334.04 Q2106.64 331.355 2106.64 326.656 Q2106.64 321.957 2104.69 319.295 Q2102.75 316.61 2099.37 316.61 Q2095.99 316.61 2094.05 319.295 Q2092.12 321.957 2092.12 326.656 Z" fill="#000000" fill-rule="nonzero" fill-opacity="1" /><path clip-path="url(#clip300)" d="M2134.69 317.651 Q2133.98 317.235 2133.12 317.05 Q2132.29 316.841 2131.27 316.841 Q2127.66 316.841 2125.71 319.202 Q2123.79 321.54 2123.79 325.938 L2123.79 339.596 L2119.51 339.596 L2119.51 313.67 L2123.79 313.67 L2123.79 317.698 Q2125.13 315.337 2127.29 314.202 Q2129.44 313.045 2132.52 313.045 Q2132.96 313.045 2133.49 313.114 Q2134.02 313.161 2134.67 313.276 L2134.69 317.651 Z" fill="#000000" fill-rule="nonzero" fill-opacity="1" /><path clip-path="url(#clip300)" d="M2160.3 325.568 L2160.3 327.651 L2140.71 327.651 Q2140.99 332.049 2143.35 334.364 Q2145.74 336.656 2149.97 336.656 Q2152.43 336.656 2154.72 336.054 Q2157.03 335.452 2159.3 334.249 L2159.3 338.276 Q2157.01 339.248 2154.6 339.758 Q2152.19 340.267 2149.72 340.267 Q2143.51 340.267 2139.88 336.656 Q2136.27 333.045 2136.27 326.887 Q2136.27 320.522 2139.69 316.795 Q2143.14 313.045 2148.98 313.045 Q2154.21 313.045 2157.24 316.425 Q2160.3 319.781 2160.3 325.568 M2156.04 324.318 Q2155.99 320.823 2154.07 318.739 Q2152.17 316.656 2149.02 316.656 Q2145.46 316.656 2143.31 318.67 Q2141.18 320.684 2140.85 324.341 L2156.04 324.318 Z" fill="#000000" fill-rule="nonzero" fill-opacity="1" /><path clip-path="url(#clip300)" d="M2167.29 313.67 L2171.55 313.67 L2171.55 339.596 L2167.29 339.596 L2167.29 313.67 M2167.29 303.577 L2171.55 303.577 L2171.55 308.971 L2167.29 308.971 L2167.29 303.577 Z" fill="#000000" fill-rule="nonzero" fill-opacity="1" /><polyline clip-path="url(#clip300)" style="stroke:#c271d2; stroke-linecap:round; stroke-linejoin:round; stroke-width:4; stroke-opacity:1; fill:none" points="1772.84,374.156 1912.92,374.156 "/>
<path clip-path="url(#clip300)" d="M1936.27 356.876 L1940.95 356.876 L1940.95 387.501 L1957.77 387.501 L1957.77 391.436 L1936.27 391.436 L1936.27 356.876 Z" fill="#000000" fill-rule="nonzero" fill-opacity="1" /><path clip-path="url(#clip300)" d="M1962.68 356.876 L1969.65 356.876 L1978.47 380.394 L1987.33 356.876 L1994.3 356.876 L1994.3 391.436 L1989.74 391.436 L1989.74 361.089 L1980.83 384.792 L1976.13 384.792 L1967.22 361.089 L1967.22 391.436 L1962.68 391.436 L1962.68 356.876 Z" fill="#000000" fill-rule="nonzero" fill-opacity="1" /><path clip-path="url(#clip300)" d="M2023.1 399.306 L2023.1 402.616 L1998.47 402.616 L1998.47 399.306 L2023.1 399.306 Z" fill="#000000" fill-rule="nonzero" fill-opacity="1" /><path clip-path="url(#clip300)" d="M2048 358.01 L2048 362.57 Q2045.34 361.297 2042.98 360.672 Q2040.62 360.047 2038.42 360.047 Q2034.6 360.047 2032.52 361.528 Q2030.46 363.01 2030.46 365.741 Q2030.46 368.033 2031.82 369.214 Q2033.21 370.371 2037.06 371.089 L2039.88 371.667 Q2045.11 372.663 2047.59 375.186 Q2050.09 377.686 2050.09 381.899 Q2050.09 386.922 2046.71 389.514 Q2043.35 392.107 2036.85 392.107 Q2034.39 392.107 2031.62 391.551 Q2028.86 390.996 2025.9 389.908 L2025.9 385.093 Q2028.75 386.69 2031.48 387.501 Q2034.21 388.311 2036.85 388.311 Q2040.85 388.311 2043.03 386.737 Q2045.2 385.163 2045.2 382.246 Q2045.2 379.7 2043.63 378.264 Q2042.08 376.829 2038.51 376.112 L2035.67 375.556 Q2030.44 374.515 2028.1 372.292 Q2025.76 370.07 2025.76 366.112 Q2025.76 361.528 2028.98 358.89 Q2032.22 356.251 2037.89 356.251 Q2040.32 356.251 2042.84 356.691 Q2045.37 357.13 2048 358.01 Z" fill="#000000" fill-rule="nonzero" fill-opacity="1" /><path clip-path="url(#clip300)" d="M2062.06 360.718 L2062.06 373.704 L2067.94 373.704 Q2071.2 373.704 2072.98 372.015 Q2074.76 370.325 2074.76 367.2 Q2074.76 364.098 2072.98 362.408 Q2071.2 360.718 2067.94 360.718 L2062.06 360.718 M2057.38 356.876 L2067.94 356.876 Q2073.75 356.876 2076.71 359.515 Q2079.69 362.13 2079.69 367.2 Q2079.69 372.315 2076.71 374.931 Q2073.75 377.547 2067.94 377.547 L2062.06 377.547 L2062.06 391.436 L2057.38 391.436 L2057.38 356.876 Z" fill="#000000" fill-rule="nonzero" fill-opacity="1" /><path clip-path="url(#clip300)" d="M2109.53 386.505 L2109.53 377.223 L2101.89 377.223 L2101.89 373.38 L2114.16 373.38 L2114.16 388.218 Q2111.45 390.139 2108.19 391.135 Q2104.93 392.107 2101.22 392.107 Q2093.12 392.107 2088.54 387.385 Q2083.98 382.639 2083.98 374.19 Q2083.98 365.718 2088.54 360.996 Q2093.12 356.251 2101.22 356.251 Q2104.6 356.251 2107.63 357.084 Q2110.69 357.917 2113.26 359.538 L2113.26 364.515 Q2110.67 362.316 2107.75 361.204 Q2104.83 360.093 2101.62 360.093 Q2095.27 360.093 2092.08 363.635 Q2088.91 367.177 2088.91 374.19 Q2088.91 381.181 2092.08 384.723 Q2095.27 388.264 2101.62 388.264 Q2104.09 388.264 2106.04 387.848 Q2107.98 387.408 2109.53 386.505 Z" fill="#000000" fill-rule="nonzero" fill-opacity="1" /><path clip-path="url(#clip300)" d="M2142.22 399.306 L2142.22 402.616 L2117.59 402.616 L2117.59 399.306 L2142.22 399.306 Z" fill="#000000" fill-rule="nonzero" fill-opacity="1" /><path clip-path="url(#clip300)" d="M2158 378.403 Q2152.84 378.403 2150.85 379.584 Q2148.86 380.764 2148.86 383.612 Q2148.86 385.88 2150.34 387.223 Q2151.85 388.542 2154.42 388.542 Q2157.96 388.542 2160.09 386.042 Q2162.24 383.519 2162.24 379.352 L2162.24 378.403 L2158 378.403 M2166.5 376.644 L2166.5 391.436 L2162.24 391.436 L2162.24 387.501 Q2160.78 389.862 2158.61 390.996 Q2156.43 392.107 2153.28 392.107 Q2149.3 392.107 2146.94 389.885 Q2144.6 387.639 2144.6 383.889 Q2144.6 379.514 2147.52 377.292 Q2150.46 375.07 2156.27 375.07 L2162.24 375.07 L2162.24 374.653 Q2162.24 371.714 2160.3 370.116 Q2158.37 368.496 2154.88 368.496 Q2152.66 368.496 2150.55 369.028 Q2148.44 369.561 2146.5 370.626 L2146.5 366.69 Q2148.84 365.788 2151.04 365.348 Q2153.24 364.885 2155.32 364.885 Q2160.94 364.885 2163.72 367.802 Q2166.5 370.718 2166.5 376.644 Z" fill="#000000" fill-rule="nonzero" fill-opacity="1" /><path clip-path="url(#clip300)" d="M2175.27 355.417 L2179.53 355.417 L2179.53 391.436 L2175.27 391.436 L2175.27 355.417 Z" fill="#000000" fill-rule="nonzero" fill-opacity="1" /><path clip-path="url(#clip300)" d="M2192.66 358.149 L2192.66 365.51 L2201.43 365.51 L2201.43 368.82 L2192.66 368.82 L2192.66 382.894 Q2192.66 386.065 2193.51 386.968 Q2194.39 387.871 2197.05 387.871 L2201.43 387.871 L2201.43 391.436 L2197.05 391.436 Q2192.12 391.436 2190.25 389.607 Q2188.37 387.755 2188.37 382.894 L2188.37 368.82 L2185.25 368.82 L2185.25 365.51 L2188.37 365.51 L2188.37 358.149 L2192.66 358.149 Z" fill="#000000" fill-rule="nonzero" fill-opacity="1" /><polyline clip-path="url(#clip300)" style="stroke:#ac8d18; stroke-linecap:round; stroke-linejoin:round; stroke-width:4; stroke-opacity:1; fill:none" points="1772.84,425.996 1912.92,425.996 "/>
<path clip-path="url(#clip300)" d="M1936.27 408.716 L1940.95 408.716 L1940.95 439.341 L1957.77 439.341 L1957.77 443.276 L1936.27 443.276 L1936.27 408.716 Z" fill="#000000" fill-rule="nonzero" fill-opacity="1" /><path clip-path="url(#clip300)" d="M1962.68 408.716 L1969.65 408.716 L1978.47 432.234 L1987.33 408.716 L1994.3 408.716 L1994.3 443.276 L1989.74 443.276 L1989.74 412.929 L1980.83 436.632 L1976.13 436.632 L1967.22 412.929 L1967.22 443.276 L1962.68 443.276 L1962.68 408.716 Z" fill="#000000" fill-rule="nonzero" fill-opacity="1" /><path clip-path="url(#clip300)" d="M2023.1 451.146 L2023.1 454.456 L1998.47 454.456 L1998.47 451.146 L2023.1 451.146 Z" fill="#000000" fill-rule="nonzero" fill-opacity="1" /><path clip-path="url(#clip300)" d="M2031.32 409.989 L2031.32 417.35 L2040.09 417.35 L2040.09 420.66 L2031.32 420.66 L2031.32 434.734 Q2031.32 437.905 2032.17 438.808 Q2033.05 439.711 2035.71 439.711 L2040.09 439.711 L2040.09 443.276 L2035.71 443.276 Q2030.78 443.276 2028.91 441.447 Q2027.03 439.595 2027.03 434.734 L2027.03 420.66 L2023.91 420.66 L2023.91 417.35 L2027.03 417.35 L2027.03 409.989 L2031.32 409.989 Z" fill="#000000" fill-rule="nonzero" fill-opacity="1" /><path clip-path="url(#clip300)" d="M2067.87 429.248 L2067.87 431.331 L2048.28 431.331 Q2048.56 435.729 2050.92 438.044 Q2053.31 440.336 2057.54 440.336 Q2060 440.336 2062.29 439.734 Q2064.6 439.132 2066.87 437.929 L2066.87 441.956 Q2064.58 442.928 2062.17 443.438 Q2059.76 443.947 2057.29 443.947 Q2051.08 443.947 2047.45 440.336 Q2043.84 436.725 2043.84 430.567 Q2043.84 424.202 2047.26 420.475 Q2050.71 416.725 2056.55 416.725 Q2061.78 416.725 2064.81 420.105 Q2067.87 423.461 2067.87 429.248 M2063.61 427.998 Q2063.56 424.503 2061.64 422.419 Q2059.74 420.336 2056.59 420.336 Q2053.03 420.336 2050.88 422.35 Q2048.75 424.364 2048.42 428.021 L2063.61 427.998 Z" fill="#000000" fill-rule="nonzero" fill-opacity="1" /><path clip-path="url(#clip300)" d="M2091.38 418.114 L2091.38 422.142 Q2089.58 421.216 2087.63 420.753 Q2085.69 420.29 2083.61 420.29 Q2080.44 420.29 2078.84 421.262 Q2077.26 422.234 2077.26 424.179 Q2077.26 425.66 2078.4 426.517 Q2079.53 427.35 2082.96 428.114 L2084.42 428.438 Q2088.95 429.41 2090.85 431.192 Q2092.77 432.952 2092.77 436.123 Q2092.77 439.734 2089.9 441.841 Q2087.06 443.947 2082.06 443.947 Q2079.97 443.947 2077.7 443.53 Q2075.46 443.137 2072.96 442.327 L2072.96 437.929 Q2075.32 439.155 2077.61 439.78 Q2079.9 440.382 2082.15 440.382 Q2085.16 440.382 2086.78 439.364 Q2088.4 438.322 2088.4 436.447 Q2088.4 434.711 2087.22 433.785 Q2086.06 432.859 2082.1 432.003 L2080.62 431.655 Q2076.66 430.822 2074.9 429.109 Q2073.14 427.373 2073.14 424.364 Q2073.14 420.706 2075.74 418.716 Q2078.33 416.725 2083.1 416.725 Q2085.46 416.725 2087.54 417.072 Q2089.62 417.419 2091.38 418.114 Z" fill="#000000" fill-rule="nonzero" fill-opacity="1" /><path clip-path="url(#clip300)" d="M2103.77 409.989 L2103.77 417.35 L2112.54 417.35 L2112.54 420.66 L2103.77 420.66 L2103.77 434.734 Q2103.77 437.905 2104.62 438.808 Q2105.5 439.711 2108.17 439.711 L2112.54 439.711 L2112.54 443.276 L2108.17 443.276 Q2103.24 443.276 2101.36 441.447 Q2099.49 439.595 2099.49 434.734 L2099.49 420.66 L2096.36 420.66 L2096.36 417.35 L2099.49 417.35 L2099.49 409.989 L2103.77 409.989 Z" fill="#000000" fill-rule="nonzero" fill-opacity="1" /></svg>
