<?xml version="1.0" encoding="utf-8"?>
<svg xmlns="http://www.w3.org/2000/svg" xmlns:xlink="http://www.w3.org/1999/xlink" width="600" height="400" viewBox="0 0 2400 1600">
<defs>
  <clipPath id="clip450">
    <rect x="0" y="0" width="2400" height="1600"/>
  </clipPath>
</defs>
<path clip-path="url(#clip450)" d="M0 1600 L2400 1600 L2400 0 L0 0  Z" fill="#ffffff" fill-rule="evenodd" fill-opacity="1"/>
<defs>
  <clipPath id="clip451">
    <rect x="480" y="0" width="1681" height="1600"/>
  </clipPath>
</defs>
<path clip-path="url(#clip450)" d="M244.451 1423.18 L2352.76 1423.18 L2352.76 123.472 L244.451 123.472  Z" fill="#ffffff" fill-rule="evenodd" fill-opacity="1"/>
<defs>
  <clipPath id="clip452">
    <rect x="244" y="123" width="2109" height="1301"/>
  </clipPath>
</defs>
<polyline clip-path="url(#clip452)" style="stroke:#000000; stroke-linecap:round; stroke-linejoin:round; stroke-width:2; stroke-opacity:0.1; fill:none" points="302.131,1423.18 302.131,123.472 "/>
<polyline clip-path="url(#clip452)" style="stroke:#000000; stroke-linecap:round; stroke-linejoin:round; stroke-width:2; stroke-opacity:0.1; fill:none" points="799.373,1423.18 799.373,123.472 "/>
<polyline clip-path="url(#clip452)" style="stroke:#000000; stroke-linecap:round; stroke-linejoin:round; stroke-width:2; stroke-opacity:0.1; fill:none" points="1296.61,1423.18 1296.61,123.472 "/>
<polyline clip-path="url(#clip452)" style="stroke:#000000; stroke-linecap:round; stroke-linejoin:round; stroke-width:2; stroke-opacity:0.1; fill:none" points="1793.86,1423.18 1793.86,123.472 "/>
<polyline clip-path="url(#clip452)" style="stroke:#000000; stroke-linecap:round; stroke-linejoin:round; stroke-width:2; stroke-opacity:0.1; fill:none" points="2291.1,1423.18 2291.1,123.472 "/>
<polyline clip-path="url(#clip450)" style="stroke:#000000; stroke-linecap:round; stroke-linejoin:round; stroke-width:4; stroke-opacity:1; fill:none" points="244.451,1423.18 2352.76,1423.18 "/>
<polyline clip-path="url(#clip450)" style="stroke:#000000; stroke-linecap:round; stroke-linejoin:round; stroke-width:4; stroke-opacity:1; fill:none" points="302.131,1423.18 302.131,1404.28 "/>
<polyline clip-path="url(#clip450)" style="stroke:#000000; stroke-linecap:round; stroke-linejoin:round; stroke-width:4; stroke-opacity:1; fill:none" points="799.373,1423.18 799.373,1404.28 "/>
<polyline clip-path="url(#clip450)" style="stroke:#000000; stroke-linecap:round; stroke-linejoin:round; stroke-width:4; stroke-opacity:1; fill:none" points="1296.61,1423.18 1296.61,1404.28 "/>
<polyline clip-path="url(#clip450)" style="stroke:#000000; stroke-linecap:round; stroke-linejoin:round; stroke-width:4; stroke-opacity:1; fill:none" points="1793.86,1423.18 1793.86,1404.28 "/>
<polyline clip-path="url(#clip450)" style="stroke:#000000; stroke-linecap:round; stroke-linejoin:round; stroke-width:4; stroke-opacity:1; fill:none" points="2291.1,1423.18 2291.1,1404.28 "/>
<path clip-path="url(#clip450)" d="M302.131 1454.1 Q298.52 1454.1 296.691 1457.66 Q294.886 1461.2 294.886 1468.33 Q294.886 1475.44 296.691 1479.01 Q298.52 1482.55 302.131 1482.55 Q305.765 1482.55 307.571 1479.01 Q309.399 1475.44 309.399 1468.33 Q309.399 1461.2 307.571 1457.66 Q305.765 1454.1 302.131 1454.1 M302.131 1450.39 Q307.941 1450.39 310.997 1455 Q314.075 1459.58 314.075 1468.33 Q314.075 1477.06 310.997 1481.67 Q307.941 1486.25 302.131 1486.25 Q296.321 1486.25 293.242 1481.67 Q290.187 1477.06 290.187 1468.33 Q290.187 1459.58 293.242 1455 Q296.321 1450.39 302.131 1450.39 Z" fill="#000000" fill-rule="nonzero" fill-opacity="1" /><path clip-path="url(#clip450)" d="M763.065 1481.64 L779.384 1481.64 L779.384 1485.58 L757.44 1485.58 L757.44 1481.64 Q760.102 1478.89 764.685 1474.26 Q769.292 1469.61 770.472 1468.27 Q772.718 1465.74 773.597 1464.01 Q774.5 1462.25 774.5 1460.56 Q774.5 1457.8 772.556 1456.07 Q770.634 1454.33 767.533 1454.33 Q765.334 1454.33 762.88 1455.09 Q760.449 1455.86 757.672 1457.41 L757.672 1452.69 Q760.496 1451.55 762.949 1450.97 Q765.403 1450.39 767.44 1450.39 Q772.81 1450.39 776.005 1453.08 Q779.199 1455.77 779.199 1460.26 Q779.199 1462.39 778.389 1464.31 Q777.602 1466.2 775.496 1468.8 Q774.917 1469.47 771.815 1472.69 Q768.713 1475.88 763.065 1481.64 Z" fill="#000000" fill-rule="nonzero" fill-opacity="1" /><path clip-path="url(#clip450)" d="M789.245 1451.02 L807.602 1451.02 L807.602 1454.96 L793.528 1454.96 L793.528 1463.43 Q794.546 1463.08 795.565 1462.92 Q796.583 1462.73 797.602 1462.73 Q803.389 1462.73 806.768 1465.9 Q810.148 1469.08 810.148 1474.49 Q810.148 1480.07 806.676 1483.17 Q803.204 1486.25 796.884 1486.25 Q794.708 1486.25 792.44 1485.88 Q790.195 1485.51 787.787 1484.77 L787.787 1480.07 Q789.87 1481.2 792.093 1481.76 Q794.315 1482.32 796.792 1482.32 Q800.796 1482.32 803.134 1480.21 Q805.472 1478.1 805.472 1474.49 Q805.472 1470.88 803.134 1468.77 Q800.796 1466.67 796.792 1466.67 Q794.917 1466.67 793.042 1467.08 Q791.19 1467.5 789.245 1468.38 L789.245 1451.02 Z" fill="#000000" fill-rule="nonzero" fill-opacity="1" /><path clip-path="url(#clip450)" d="M829.361 1454.1 Q825.75 1454.1 823.921 1457.66 Q822.116 1461.2 822.116 1468.33 Q822.116 1475.44 823.921 1479.01 Q825.75 1482.55 829.361 1482.55 Q832.995 1482.55 834.801 1479.01 Q836.629 1475.44 836.629 1468.33 Q836.629 1461.2 834.801 1457.66 Q832.995 1454.1 829.361 1454.1 M829.361 1450.39 Q835.171 1450.39 838.227 1455 Q841.305 1459.58 841.305 1468.33 Q841.305 1477.06 838.227 1481.67 Q835.171 1486.25 829.361 1486.25 Q823.551 1486.25 820.472 1481.67 Q817.417 1477.06 817.417 1468.33 Q817.417 1459.58 820.472 1455 Q823.551 1450.39 829.361 1450.39 Z" fill="#000000" fill-rule="nonzero" fill-opacity="1" /><path clip-path="url(#clip450)" d="M1256.23 1451.02 L1274.59 1451.02 L1274.59 1454.96 L1260.52 1454.96 L1260.52 1463.43 Q1261.53 1463.08 1262.55 1462.92 Q1263.57 1462.73 1264.59 1462.73 Q1270.38 1462.73 1273.76 1465.9 Q1277.14 1469.08 1277.14 1474.49 Q1277.14 1480.07 1273.66 1483.17 Q1270.19 1486.25 1263.87 1486.25 Q1261.7 1486.25 1259.43 1485.88 Q1257.18 1485.51 1254.77 1484.77 L1254.77 1480.07 Q1256.86 1481.2 1259.08 1481.76 Q1261.3 1482.32 1263.78 1482.32 Q1267.78 1482.32 1270.12 1480.21 Q1272.46 1478.1 1272.46 1474.49 Q1272.46 1470.88 1270.12 1468.77 Q1267.78 1466.67 1263.78 1466.67 Q1261.9 1466.67 1260.03 1467.08 Q1258.18 1467.5 1256.23 1468.38 L1256.23 1451.02 Z" fill="#000000" fill-rule="nonzero" fill-opacity="1" /><path clip-path="url(#clip450)" d="M1296.35 1454.1 Q1292.74 1454.1 1290.91 1457.66 Q1289.1 1461.2 1289.1 1468.33 Q1289.1 1475.44 1290.91 1479.01 Q1292.74 1482.55 1296.35 1482.55 Q1299.98 1482.55 1301.79 1479.01 Q1303.62 1475.44 1303.62 1468.33 Q1303.62 1461.2 1301.79 1457.66 Q1299.98 1454.1 1296.35 1454.1 M1296.35 1450.39 Q1302.16 1450.39 1305.21 1455 Q1308.29 1459.58 1308.29 1468.33 Q1308.29 1477.06 1305.21 1481.67 Q1302.16 1486.25 1296.35 1486.25 Q1290.54 1486.25 1287.46 1481.67 Q1284.4 1477.06 1284.4 1468.33 Q1284.4 1459.58 1287.46 1455 Q1290.54 1450.39 1296.35 1450.39 Z" fill="#000000" fill-rule="nonzero" fill-opacity="1" /><path clip-path="url(#clip450)" d="M1326.51 1454.1 Q1322.9 1454.1 1321.07 1457.66 Q1319.26 1461.2 1319.26 1468.33 Q1319.26 1475.44 1321.07 1479.01 Q1322.9 1482.55 1326.51 1482.55 Q1330.14 1482.55 1331.95 1479.01 Q1333.78 1475.44 1333.78 1468.33 Q1333.78 1461.2 1331.95 1457.66 Q1330.14 1454.1 1326.51 1454.1 M1326.51 1450.39 Q1332.32 1450.39 1335.38 1455 Q1338.45 1459.58 1338.45 1468.33 Q1338.45 1477.06 1335.38 1481.67 Q1332.32 1486.25 1326.51 1486.25 Q1320.7 1486.25 1317.62 1481.67 Q1314.57 1477.06 1314.57 1468.33 Q1314.57 1459.58 1317.62 1455 Q1320.7 1450.39 1326.51 1450.39 Z" fill="#000000" fill-rule="nonzero" fill-opacity="1" /><path clip-path="url(#clip450)" d="M1752.13 1451.02 L1774.35 1451.02 L1774.35 1453.01 L1761.81 1485.58 L1756.92 1485.58 L1768.73 1454.96 L1752.13 1454.96 L1752.13 1451.02 Z" fill="#000000" fill-rule="nonzero" fill-opacity="1" /><path clip-path="url(#clip450)" d="M1783.52 1451.02 L1801.88 1451.02 L1801.88 1454.96 L1787.8 1454.96 L1787.8 1463.43 Q1788.82 1463.08 1789.84 1462.92 Q1790.86 1462.73 1791.88 1462.73 Q1797.66 1462.73 1801.04 1465.9 Q1804.42 1469.08 1804.42 1474.49 Q1804.42 1480.07 1800.95 1483.17 Q1797.48 1486.25 1791.16 1486.25 Q1788.98 1486.25 1786.72 1485.88 Q1784.47 1485.51 1782.06 1484.77 L1782.06 1480.07 Q1784.15 1481.2 1786.37 1481.76 Q1788.59 1482.32 1791.07 1482.32 Q1795.07 1482.32 1797.41 1480.21 Q1799.75 1478.1 1799.75 1474.49 Q1799.75 1470.88 1797.41 1468.77 Q1795.07 1466.67 1791.07 1466.67 Q1789.19 1466.67 1787.32 1467.08 Q1785.47 1467.5 1783.52 1468.38 L1783.52 1451.02 Z" fill="#000000" fill-rule="nonzero" fill-opacity="1" /><path clip-path="url(#clip450)" d="M1823.64 1454.1 Q1820.03 1454.1 1818.2 1457.66 Q1816.39 1461.2 1816.39 1468.33 Q1816.39 1475.44 1818.2 1479.01 Q1820.03 1482.55 1823.64 1482.55 Q1827.27 1482.55 1829.08 1479.01 Q1830.9 1475.44 1830.9 1468.33 Q1830.9 1461.2 1829.08 1457.66 Q1827.27 1454.1 1823.64 1454.1 M1823.64 1450.39 Q1829.45 1450.39 1832.5 1455 Q1835.58 1459.58 1835.58 1468.33 Q1835.58 1477.06 1832.5 1481.67 Q1829.45 1486.25 1823.64 1486.25 Q1817.83 1486.25 1814.75 1481.67 Q1811.69 1477.06 1811.69 1468.33 Q1811.69 1459.58 1814.75 1455 Q1817.83 1450.39 1823.64 1450.39 Z" fill="#000000" fill-rule="nonzero" fill-opacity="1" /><path clip-path="url(#clip450)" d="M2235.62 1481.64 L2243.26 1481.64 L2243.26 1455.28 L2234.95 1456.95 L2234.95 1452.69 L2243.22 1451.02 L2247.89 1451.02 L2247.89 1481.64 L2255.53 1481.64 L2255.53 1485.58 L2235.62 1485.58 L2235.62 1481.64 Z" fill="#000000" fill-rule="nonzero" fill-opacity="1" /><path clip-path="url(#clip450)" d="M2274.98 1454.1 Q2271.36 1454.1 2269.54 1457.66 Q2267.73 1461.2 2267.73 1468.33 Q2267.73 1475.44 2269.54 1479.01 Q2271.36 1482.55 2274.98 1482.55 Q2278.61 1482.55 2280.42 1479.01 Q2282.24 1475.44 2282.24 1468.33 Q2282.24 1461.2 2280.42 1457.66 Q2278.61 1454.1 2274.98 1454.1 M2274.98 1450.39 Q2280.79 1450.39 2283.84 1455 Q2286.92 1459.58 2286.92 1468.33 Q2286.92 1477.06 2283.84 1481.67 Q2280.79 1486.25 2274.98 1486.25 Q2269.17 1486.25 2266.09 1481.67 Q2263.03 1477.06 2263.03 1468.33 Q2263.03 1459.58 2266.09 1455 Q2269.17 1450.39 2274.98 1450.39 Z" fill="#000000" fill-rule="nonzero" fill-opacity="1" /><path clip-path="url(#clip450)" d="M2305.14 1454.1 Q2301.53 1454.1 2299.7 1457.66 Q2297.89 1461.2 2297.89 1468.33 Q2297.89 1475.44 2299.7 1479.01 Q2301.53 1482.55 2305.14 1482.55 Q2308.77 1482.55 2310.58 1479.01 Q2312.41 1475.44 2312.41 1468.33 Q2312.41 1461.2 2310.58 1457.66 Q2308.77 1454.1 2305.14 1454.1 M2305.14 1450.39 Q2310.95 1450.39 2314 1455 Q2317.08 1459.58 2317.08 1468.33 Q2317.08 1477.06 2314 1481.67 Q2310.95 1486.25 2305.14 1486.25 Q2299.33 1486.25 2296.25 1481.67 Q2293.19 1477.06 2293.19 1468.33 Q2293.19 1459.58 2296.25 1455 Q2299.33 1450.39 2305.14 1450.39 Z" fill="#000000" fill-rule="nonzero" fill-opacity="1" /><path clip-path="url(#clip450)" d="M2335.3 1454.1 Q2331.69 1454.1 2329.86 1457.66 Q2328.05 1461.2 2328.05 1468.33 Q2328.05 1475.44 2329.86 1479.01 Q2331.69 1482.55 2335.3 1482.55 Q2338.93 1482.55 2340.74 1479.01 Q2342.57 1475.44 2342.57 1468.33 Q2342.57 1461.2 2340.74 1457.66 Q2338.93 1454.1 2335.3 1454.1 M2335.3 1450.39 Q2341.11 1450.39 2344.16 1455 Q2347.24 1459.58 2347.24 1468.33 Q2347.24 1477.06 2344.16 1481.67 Q2341.11 1486.25 2335.3 1486.25 Q2329.49 1486.25 2326.41 1481.67 Q2323.35 1477.06 2323.35 1468.33 Q2323.35 1459.58 2326.41 1455 Q2329.49 1450.39 2335.3 1450.39 Z" fill="#000000" fill-rule="nonzero" fill-opacity="1" /><path clip-path="url(#clip450)" d="M1282.78 1518.52 L1288.67 1518.52 L1288.67 1547.77 L1306.15 1532.4 L1313.63 1532.4 L1294.72 1549.07 L1314.42 1568.04 L1306.78 1568.04 L1288.67 1550.63 L1288.67 1568.04 L1282.78 1568.04 L1282.78 1518.52 Z" fill="#000000" fill-rule="nonzero" fill-opacity="1" /><polyline clip-path="url(#clip452)" style="stroke:#000000; stroke-linecap:round; stroke-linejoin:round; stroke-width:2; stroke-opacity:0.1; fill:none" points="244.451,984.108 2352.76,984.108 "/>
<polyline clip-path="url(#clip452)" style="stroke:#000000; stroke-linecap:round; stroke-linejoin:round; stroke-width:2; stroke-opacity:0.1; fill:none" points="244.451,436.479 2352.76,436.479 "/>
<polyline clip-path="url(#clip450)" style="stroke:#000000; stroke-linecap:round; stroke-linejoin:round; stroke-width:4; stroke-opacity:1; fill:none" points="244.451,1423.18 244.451,123.472 "/>
<polyline clip-path="url(#clip450)" style="stroke:#000000; stroke-linecap:round; stroke-linejoin:round; stroke-width:4; stroke-opacity:1; fill:none" points="244.451,984.108 263.349,984.108 "/>
<polyline clip-path="url(#clip450)" style="stroke:#000000; stroke-linecap:round; stroke-linejoin:round; stroke-width:4; stroke-opacity:1; fill:none" points="244.451,436.479 263.349,436.479 "/>
<path clip-path="url(#clip450)" d="M137.745 1003.9 L145.384 1003.9 L145.384 977.534 L137.074 979.201 L137.074 974.942 L145.338 973.275 L150.014 973.275 L150.014 1003.9 L157.653 1003.9 L157.653 1007.84 L137.745 1007.84 L137.745 1003.9 Z" fill="#000000" fill-rule="nonzero" fill-opacity="1" /><path clip-path="url(#clip450)" d="M177.097 976.354 Q173.486 976.354 171.657 979.919 Q169.852 983.46 169.852 990.59 Q169.852 997.696 171.657 1001.26 Q173.486 1004.8 177.097 1004.8 Q180.731 1004.8 182.537 1001.26 Q184.365 997.696 184.365 990.59 Q184.365 983.46 182.537 979.919 Q180.731 976.354 177.097 976.354 M177.097 972.65 Q182.907 972.65 185.963 977.257 Q189.041 981.84 189.041 990.59 Q189.041 999.317 185.963 1003.92 Q182.907 1008.51 177.097 1008.51 Q171.287 1008.51 168.208 1003.92 Q165.153 999.317 165.153 990.59 Q165.153 981.84 168.208 977.257 Q171.287 972.65 177.097 972.65 Z" fill="#000000" fill-rule="nonzero" fill-opacity="1" /><path clip-path="url(#clip450)" d="M198.746 954.846 Q195.812 954.846 194.326 957.743 Q192.859 960.62 192.859 966.413 Q192.859 972.187 194.326 975.083 Q195.812 977.961 198.746 977.961 Q201.699 977.961 203.166 975.083 Q204.652 972.187 204.652 966.413 Q204.652 960.62 203.166 957.743 Q201.699 954.846 198.746 954.846 M198.746 951.837 Q203.467 951.837 205.949 955.58 Q208.451 959.304 208.451 966.413 Q208.451 973.503 205.949 977.246 Q203.467 980.97 198.746 980.97 Q194.025 980.97 191.524 977.246 Q189.041 973.503 189.041 966.413 Q189.041 959.304 191.524 955.58 Q194.025 951.837 198.746 951.837 Z" fill="#000000" fill-rule="nonzero" fill-opacity="1" /><path clip-path="url(#clip450)" d="M114.931 456.272 L122.57 456.272 L122.57 429.906 L114.26 431.573 L114.26 427.314 L122.524 425.647 L127.2 425.647 L127.2 456.272 L134.839 456.272 L134.839 460.207 L114.931 460.207 L114.931 456.272 Z" fill="#000000" fill-rule="nonzero" fill-opacity="1" /><path clip-path="url(#clip450)" d="M154.283 428.726 Q150.672 428.726 148.843 432.29 Q147.038 435.832 147.038 442.962 Q147.038 450.068 148.843 453.633 Q150.672 457.174 154.283 457.174 Q157.917 457.174 159.723 453.633 Q161.552 450.068 161.552 442.962 Q161.552 435.832 159.723 432.29 Q157.917 428.726 154.283 428.726 M154.283 425.022 Q160.093 425.022 163.149 429.628 Q166.227 434.212 166.227 442.962 Q166.227 451.688 163.149 456.295 Q160.093 460.878 154.283 460.878 Q148.473 460.878 145.394 456.295 Q142.339 451.688 142.339 442.962 Q142.339 434.212 145.394 429.628 Q148.473 425.022 154.283 425.022 Z" fill="#000000" fill-rule="nonzero" fill-opacity="1" /><path clip-path="url(#clip450)" d="M166.773 429.599 L172.979 429.599 L172.979 408.177 L166.227 409.531 L166.227 406.071 L172.942 404.716 L176.741 404.716 L176.741 429.599 L182.948 429.599 L182.948 432.796 L166.773 432.796 L166.773 429.599 Z" fill="#000000" fill-rule="nonzero" fill-opacity="1" /><path clip-path="url(#clip450)" d="M198.746 407.218 Q195.812 407.218 194.326 410.114 Q192.859 412.992 192.859 418.785 Q192.859 424.559 194.326 427.455 Q195.812 430.333 198.746 430.333 Q201.699 430.333 203.166 427.455 Q204.652 424.559 204.652 418.785 Q204.652 412.992 203.166 410.114 Q201.699 407.218 198.746 407.218 M198.746 404.209 Q203.467 404.209 205.949 407.951 Q208.451 411.675 208.451 418.785 Q208.451 425.875 205.949 429.618 Q203.467 433.342 198.746 433.342 Q194.025 433.342 191.524 429.618 Q189.041 425.875 189.041 418.785 Q189.041 411.675 191.524 407.951 Q194.025 404.209 198.746 404.209 Z" fill="#000000" fill-rule="nonzero" fill-opacity="1" /><path clip-path="url(#clip450)" d="M32.4621 801.797 Q32.4621 806.507 36.1542 809.244 Q39.8145 811.982 46.212 811.982 Q52.6095 811.982 56.3017 809.276 Q59.9619 806.539 59.9619 801.797 Q59.9619 797.118 56.2698 794.381 Q52.5777 791.643 46.212 791.643 Q39.8781 791.643 36.186 794.381 Q32.4621 797.118 32.4621 801.797 M27.4968 801.797 Q27.4968 794.158 32.4621 789.797 Q37.4273 785.437 46.212 785.437 Q54.9649 785.437 59.9619 789.797 Q64.9272 794.158 64.9272 801.797 Q64.9272 809.467 59.9619 813.828 Q54.9649 818.156 46.212 818.156 Q37.4273 818.156 32.4621 813.828 Q27.4968 809.467 27.4968 801.797 Z" fill="#000000" fill-rule="nonzero" fill-opacity="1" /><path clip-path="url(#clip450)" d="M46.212 750.139 Q39.7508 750.139 36.0905 752.812 Q32.3984 755.454 32.3984 760.101 Q32.3984 764.748 36.0905 767.422 Q39.7508 770.064 46.212 770.064 Q52.6732 770.064 56.3653 767.422 Q60.0256 764.748 60.0256 760.101 Q60.0256 755.454 56.3653 752.812 Q52.6732 750.139 46.212 750.139 M33.7671 770.064 Q30.5842 768.218 29.0564 765.417 Q27.4968 762.584 27.4968 758.669 Q27.4968 752.176 32.6531 748.134 Q37.8093 744.06 46.212 744.06 Q54.6147 744.06 59.771 748.134 Q64.9272 752.176 64.9272 758.669 Q64.9272 762.584 63.3994 765.417 Q61.8398 768.218 58.657 770.064 L64.0042 770.064 L64.0042 775.952 L14.479 775.952 L14.479 770.064 L33.7671 770.064 Z" fill="#000000" fill-rule="nonzero" fill-opacity="1" /><path clip-path="url(#clip450)" d="M28.3562 734.352 L28.3562 728.495 L64.6407 728.495 Q71.452 728.495 74.5076 731.105 Q77.5631 733.684 77.5631 739.445 L77.5631 741.673 L72.5979 741.673 L72.5979 740.113 Q72.5979 736.771 71.0383 735.561 Q69.5105 734.352 64.6407 734.352 L28.3562 734.352 M14.479 734.352 L14.479 728.495 L21.895 728.495 L21.895 734.352 L14.479 734.352 Z" fill="#000000" fill-rule="nonzero" fill-opacity="1" /><path clip-path="url(#clip450)" d="M952.919 65.7705 L952.919 89.8329 L945.425 89.8329 L945.425 27.2059 L952.919 27.2059 L952.919 34.0924 Q955.269 30.0415 958.834 28.0971 Q962.439 26.1121 967.422 26.1121 Q975.686 26.1121 980.83 32.6746 Q986.015 39.2371 986.015 49.9314 Q986.015 60.6258 980.83 67.1883 Q975.686 73.7508 967.422 73.7508 Q962.439 73.7508 958.834 71.8063 Q955.269 69.8214 952.919 65.7705 M978.278 49.9314 Q978.278 41.7081 974.875 37.0496 Q971.513 32.3505 965.599 32.3505 Q959.685 32.3505 956.282 37.0496 Q952.919 41.7081 952.919 49.9314 Q952.919 58.1548 956.282 62.8538 Q959.685 67.5124 965.599 67.5124 Q971.513 67.5124 974.875 62.8538 Q978.278 58.1548 978.278 49.9314 Z" fill="#000000" fill-rule="nonzero" fill-opacity="1" /><path clip-path="url(#clip450)" d="M1024.66 34.1734 Q1023.41 33.4443 1021.91 33.1202 Q1020.45 32.7556 1018.67 32.7556 Q1012.35 32.7556 1008.94 36.8875 Q1005.58 40.9789 1005.58 48.6757 L1005.58 72.576 L998.087 72.576 L998.087 27.2059 L1005.58 27.2059 L1005.58 34.2544 Q1007.93 30.1225 1011.7 28.1376 Q1015.47 26.1121 1020.85 26.1121 Q1021.62 26.1121 1022.55 26.2337 Q1023.49 26.3147 1024.62 26.5172 L1024.66 34.1734 Z" fill="#000000" fill-rule="nonzero" fill-opacity="1" /><path clip-path="url(#clip450)" d="M1048.24 32.4315 Q1042.24 32.4315 1038.76 37.1306 Q1035.27 41.7891 1035.27 49.9314 Q1035.27 58.0738 1038.72 62.7728 Q1042.2 67.4314 1048.24 67.4314 Q1054.19 67.4314 1057.68 62.7323 Q1061.16 58.0333 1061.16 49.9314 Q1061.16 41.8701 1057.68 37.1711 Q1054.19 32.4315 1048.24 32.4315 M1048.24 26.1121 Q1057.96 26.1121 1063.51 32.4315 Q1069.06 38.7509 1069.06 49.9314 Q1069.06 61.0714 1063.51 67.4314 Q1057.96 73.7508 1048.24 73.7508 Q1038.47 73.7508 1032.92 67.4314 Q1027.42 61.0714 1027.42 49.9314 Q1027.42 38.7509 1032.92 32.4315 Q1038.47 26.1121 1048.24 26.1121 Z" fill="#000000" fill-rule="nonzero" fill-opacity="1" /><path clip-path="url(#clip450)" d="M1113.98 49.9314 Q1113.98 41.7081 1110.58 37.0496 Q1107.22 32.3505 1101.3 32.3505 Q1095.39 32.3505 1091.99 37.0496 Q1088.62 41.7081 1088.62 49.9314 Q1088.62 58.1548 1091.99 62.8538 Q1095.39 67.5124 1101.3 67.5124 Q1107.22 67.5124 1110.58 62.8538 Q1113.98 58.1548 1113.98 49.9314 M1088.62 34.0924 Q1090.97 30.0415 1094.54 28.0971 Q1098.14 26.1121 1103.13 26.1121 Q1111.39 26.1121 1116.54 32.6746 Q1121.72 39.2371 1121.72 49.9314 Q1121.72 60.6258 1116.54 67.1883 Q1111.39 73.7508 1103.13 73.7508 Q1098.14 73.7508 1094.54 71.8063 Q1090.97 69.8214 1088.62 65.7705 L1088.62 72.576 L1081.13 72.576 L1081.13 9.54393 L1088.62 9.54393 L1088.62 34.0924 Z" fill="#000000" fill-rule="nonzero" fill-opacity="1" /><path clip-path="url(#clip450)" d="M1134.08 9.54393 L1141.53 9.54393 L1141.53 72.576 L1134.08 72.576 L1134.08 9.54393 Z" fill="#000000" fill-rule="nonzero" fill-opacity="1" /><path clip-path="url(#clip450)" d="M1195.93 48.0275 L1195.93 51.6733 L1161.66 51.6733 Q1162.15 59.3701 1166.28 63.421 Q1170.45 67.4314 1177.87 67.4314 Q1182.16 67.4314 1186.17 66.3781 Q1190.22 65.3249 1194.19 63.2184 L1194.19 70.267 Q1190.18 71.9684 1185.97 72.8596 Q1181.76 73.7508 1177.42 73.7508 Q1166.56 73.7508 1160.2 67.4314 Q1153.88 61.1119 1153.88 50.3365 Q1153.88 39.1965 1159.88 32.6746 Q1165.92 26.1121 1176.12 26.1121 Q1185.28 26.1121 1190.59 32.0264 Q1195.93 37.9003 1195.93 48.0275 M1188.48 45.84 Q1188.4 39.7232 1185.04 36.0774 Q1181.71 32.4315 1176.21 32.4315 Q1169.97 32.4315 1166.2 35.9558 Q1162.47 39.4801 1161.91 45.8805 L1188.48 45.84 M1169.8 6.22219 L1181.23 21.3726 L1175.03 21.3726 L1161.82 6.22219 L1169.8 6.22219 Z" fill="#000000" fill-rule="nonzero" fill-opacity="1" /><path clip-path="url(#clip450)" d="M1243.49 35.9153 Q1246.29 30.8922 1250.17 28.5022 Q1254.06 26.1121 1259.33 26.1121 Q1266.42 26.1121 1270.27 31.0947 Q1274.12 36.0368 1274.12 45.1919 L1274.12 72.576 L1266.62 72.576 L1266.62 45.4349 Q1266.62 38.913 1264.31 35.7533 Q1262 32.5936 1257.26 32.5936 Q1251.47 32.5936 1248.11 36.4419 Q1244.75 40.2903 1244.75 46.9338 L1244.75 72.576 L1237.25 72.576 L1237.25 45.4349 Q1237.25 38.8725 1234.94 35.7533 Q1232.63 32.5936 1227.81 32.5936 Q1222.1 32.5936 1218.74 36.4824 Q1215.38 40.3308 1215.38 46.9338 L1215.38 72.576 L1207.88 72.576 L1207.88 27.2059 L1215.38 27.2059 L1215.38 34.2544 Q1217.93 30.082 1221.49 28.0971 Q1225.06 26.1121 1229.96 26.1121 Q1234.9 26.1121 1238.35 28.6237 Q1241.83 31.1352 1243.49 35.9153 Z" fill="#000000" fill-rule="nonzero" fill-opacity="1" /><path clip-path="url(#clip450)" d="M1327.79 48.0275 L1327.79 51.6733 L1293.52 51.6733 Q1294.01 59.3701 1298.14 63.421 Q1302.31 67.4314 1309.72 67.4314 Q1314.02 67.4314 1318.03 66.3781 Q1322.08 65.3249 1326.05 63.2184 L1326.05 70.267 Q1322.04 71.9684 1317.82 72.8596 Q1313.61 73.7508 1309.28 73.7508 Q1298.42 73.7508 1292.06 67.4314 Q1285.74 61.1119 1285.74 50.3365 Q1285.74 39.1965 1291.74 32.6746 Q1297.77 26.1121 1307.98 26.1121 Q1317.14 26.1121 1322.44 32.0264 Q1327.79 37.9003 1327.79 48.0275 M1320.34 45.84 Q1320.26 39.7232 1316.89 36.0774 Q1313.57 32.4315 1308.06 32.4315 Q1301.82 32.4315 1298.06 35.9558 Q1294.33 39.4801 1293.76 45.8805 L1320.34 45.84 Z" fill="#000000" fill-rule="nonzero" fill-opacity="1" /><path clip-path="url(#clip450)" d="M1368.3 62.2867 L1376.85 62.2867 L1376.85 72.576 L1368.3 72.576 L1368.3 62.2867 M1368.3 29.6769 L1376.85 29.6769 L1376.85 39.9662 L1368.3 39.9662 L1368.3 29.6769 Z" fill="#000000" fill-rule="nonzero" fill-opacity="1" /><path clip-path="url(#clip450)" d="M1428.09 14.324 L1428.09 27.2059 L1443.44 27.2059 L1443.44 32.9987 L1428.09 32.9987 L1428.09 57.6282 Q1428.09 63.1779 1429.59 64.7578 Q1431.13 66.3376 1435.79 66.3376 L1443.44 66.3376 L1443.44 72.576 L1435.79 72.576 Q1427.16 72.576 1423.88 69.3758 Q1420.6 66.1351 1420.6 57.6282 L1420.6 32.9987 L1415.13 32.9987 L1415.13 27.2059 L1420.6 27.2059 L1420.6 14.324 L1428.09 14.324 Z" fill="#000000" fill-rule="nonzero" fill-opacity="1" /><path clip-path="url(#clip450)" d="M1460.46 65.7705 L1460.46 89.8329 L1452.96 89.8329 L1452.96 27.2059 L1460.46 27.2059 L1460.46 34.0924 Q1462.81 30.0415 1466.37 28.0971 Q1469.98 26.1121 1474.96 26.1121 Q1483.22 26.1121 1488.37 32.6746 Q1493.55 39.2371 1493.55 49.9314 Q1493.55 60.6258 1488.37 67.1883 Q1483.22 73.7508 1474.96 73.7508 Q1469.98 73.7508 1466.37 71.8063 Q1462.81 69.8214 1460.46 65.7705 M1485.82 49.9314 Q1485.82 41.7081 1482.41 37.0496 Q1479.05 32.3505 1473.14 32.3505 Q1467.22 32.3505 1463.82 37.0496 Q1460.46 41.7081 1460.46 49.9314 Q1460.46 58.1548 1463.82 62.8538 Q1467.22 67.5124 1473.14 67.5124 Q1479.05 67.5124 1482.41 62.8538 Q1485.82 58.1548 1485.82 49.9314 Z" fill="#000000" fill-rule="nonzero" fill-opacity="1" /><path clip-path="url(#clip450)" d="M1514.01 65.6895 L1542.57 65.6895 L1542.57 72.576 L1504.17 72.576 L1504.17 65.6895 Q1508.83 60.8689 1516.85 52.7671 Q1524.91 44.6248 1526.97 42.2752 Q1530.9 37.8598 1532.44 34.8216 Q1534.02 31.7429 1534.02 28.7857 Q1534.02 23.9651 1530.62 20.927 Q1527.26 17.8888 1521.83 17.8888 Q1517.98 17.8888 1513.69 19.2256 Q1509.43 20.5624 1504.57 23.2765 L1504.57 15.0127 Q1509.51 13.0277 1513.81 12.015 Q1518.1 11.0023 1521.67 11.0023 Q1531.06 11.0023 1536.65 15.7013 Q1542.25 20.4004 1542.25 28.2591 Q1542.25 31.9859 1540.83 35.3482 Q1539.45 38.6699 1535.76 43.2069 Q1534.75 44.3817 1529.32 50.0125 Q1523.89 55.6027 1514.01 65.6895 Z" fill="#000000" fill-rule="nonzero" fill-opacity="1" /><path clip-path="url(#clip450)" d="M1582.23 19.2256 L1561.57 51.5113 L1582.23 51.5113 L1582.23 19.2256 M1580.08 12.096 L1590.37 12.096 L1590.37 51.5113 L1599 51.5113 L1599 58.3168 L1590.37 58.3168 L1590.37 72.576 L1582.23 72.576 L1582.23 58.3168 L1554.92 58.3168 L1554.92 50.4176 L1580.08 12.096 Z" fill="#000000" fill-rule="nonzero" fill-opacity="1" /><path clip-path="url(#clip450)" d="M1635.01 19.2256 L1614.35 51.5113 L1635.01 51.5113 L1635.01 19.2256 M1632.86 12.096 L1643.15 12.096 L1643.15 51.5113 L1651.78 51.5113 L1651.78 58.3168 L1643.15 58.3168 L1643.15 72.576 L1635.01 72.576 L1635.01 58.3168 L1607.71 58.3168 L1607.71 50.4176 L1632.86 12.096 Z" fill="#000000" fill-rule="nonzero" fill-opacity="1" /><polyline clip-path="url(#clip452)" style="stroke:#009af9; stroke-linecap:round; stroke-linejoin:round; stroke-width:4; stroke-opacity:1; fill:none" points="304.12,978.527 306.109,974.721 308.098,160.256 310.087,717.73 312.076,752.054 314.065,752.054 316.054,752.054 318.043,752.054 320.032,752.054 322.021,752.054 324.01,752.054 325.999,752.054 327.988,752.054 329.976,752.054 331.965,752.054 333.954,752.054 335.943,783.301 337.932,783.301 339.921,868.141 341.91,868.141 343.899,879.532 345.888,880.379 347.877,881.906 349.866,884.459 351.855,888.3 353.844,893.44 355.833,899.642 357.822,906.585 359.811,913.99 361.8,921.647 363.789,929.397 365.778,929.496 367.767,929.496 369.756,931.659 371.745,934.992 373.734,934.994 375.723,934.994 377.712,936.1 379.701,938.011 381.69,938.011 383.679,938.011 385.668,938.692 387.657,939.931 389.646,939.931 391.634,939.931 393.623,939.931 395.612,939.931 397.601,939.931 399.59,939.931 401.579,939.931 403.568,939.931 405.557,939.931 407.546,939.931 409.535,939.931 411.524,939.931 413.513,939.931 415.502,939.931 417.491,939.931 419.48,939.931 421.469,939.931 423.458,939.931 425.447,939.931 427.436,939.931 429.425,939.931 431.414,939.931 433.403,939.931 435.392,939.931 437.381,939.931 439.37,939.931 441.359,939.931 443.348,939.931 445.337,939.931 447.326,939.931 449.315,939.931 451.303,939.931 453.292,939.931 455.281,939.931 457.27,939.931 459.259,939.931 461.248,939.931 463.237,939.931 465.226,939.931 467.215,939.931 469.204,939.931 471.193,939.931 473.182,939.931 475.171,939.931 477.16,939.931 479.149,939.931 481.138,939.931 483.127,939.931 485.116,939.931 487.105,939.931 489.094,939.931 491.083,939.931 493.072,939.931 495.061,939.931 497.05,939.931 499.039,939.931 501.028,939.931 503.017,939.931 505.006,939.931 506.995,939.931 508.984,939.931 510.972,939.931 512.961,939.931 514.95,939.931 516.939,939.931 518.928,939.931 520.917,939.931 522.906,939.931 524.895,939.931 526.884,939.931 528.873,939.931 530.862,939.931 532.851,939.931 534.84,939.931 536.829,939.931 538.818,939.931 540.807,939.931 542.796,939.931 544.785,939.931 546.774,939.931 548.763,939.931 550.752,939.931 552.741,939.931 554.73,939.931 556.719,939.931 558.708,939.931 560.697,939.931 562.686,939.931 564.675,939.931 566.664,939.931 568.653,939.931 570.641,939.931 572.63,939.931 574.619,939.931 576.608,939.931 578.597,939.931 580.586,939.931 582.575,939.931 584.564,939.931 586.553,939.931 588.542,939.931 590.531,939.931 592.52,939.931 594.509,939.931 596.498,939.931 598.487,939.931 600.476,939.931 602.465,939.931 604.454,939.931 606.443,939.931 608.432,939.931 610.421,939.931 612.41,939.931 614.399,939.931 616.388,939.931 618.377,939.931 620.366,939.931 622.355,939.931 624.344,939.931 626.333,939.931 628.322,939.931 630.311,939.931 632.299,939.931 634.288,939.931 636.277,939.931 638.266,939.931 640.255,939.931 642.244,939.931 644.233,939.931 646.222,939.931 648.211,939.931 650.2,939.931 652.189,939.931 654.178,939.931 656.167,939.931 658.156,939.931 660.145,939.931 662.134,939.931 664.123,939.931 666.112,939.931 668.101,939.931 670.09,939.931 672.079,939.931 674.068,939.931 676.057,939.931 678.046,939.931 680.035,939.931 682.024,939.931 684.013,939.931 686.002,939.931 687.991,939.931 689.98,939.931 691.968,939.931 693.957,939.931 695.946,939.931 697.935,939.931 699.924,939.931 701.913,939.931 703.902,939.931 705.891,939.931 707.88,939.931 709.869,939.931 711.858,939.931 713.847,939.931 715.836,939.931 717.825,939.931 719.814,939.931 721.803,939.931 723.792,939.931 725.781,939.931 727.77,939.931 729.759,939.931 731.748,939.931 733.737,939.931 735.726,939.931 737.715,939.931 739.704,939.931 741.693,939.931 743.682,939.931 745.671,939.931 747.66,939.931 749.649,939.931 751.637,939.931 753.626,939.931 755.615,939.931 757.604,939.931 759.593,939.931 761.582,939.931 763.571,939.931 765.56,939.931 767.549,939.931 769.538,939.931 771.527,939.931 773.516,939.931 775.505,939.931 777.494,939.931 779.483,939.931 781.472,939.931 783.461,939.931 785.45,939.931 787.439,939.931 789.428,939.931 791.417,939.931 793.406,939.931 795.395,939.931 797.384,939.931 799.373,939.931 801.362,939.931 803.351,939.931 805.34,939.931 807.329,939.931 809.318,939.931 811.307,939.931 813.295,939.931 815.284,939.931 817.273,939.931 819.262,939.931 821.251,939.931 823.24,939.931 825.229,939.931 827.218,939.931 829.207,939.931 831.196,939.931 833.185,939.931 835.174,939.931 837.163,939.931 839.152,939.931 841.141,939.931 843.13,939.931 845.119,939.931 847.108,939.931 849.097,939.931 851.086,939.931 853.075,939.931 855.064,939.931 857.053,939.931 859.042,939.931 861.031,939.931 863.02,939.931 865.009,939.931 866.998,939.931 868.987,939.931 870.976,939.931 872.964,939.931 874.953,939.931 876.942,939.931 878.931,939.931 880.92,939.931 882.909,939.931 884.898,939.931 886.887,939.931 888.876,939.931 890.865,939.931 892.854,939.931 894.843,939.931 896.832,939.931 898.821,939.931 900.81,939.931 902.799,939.931 904.788,939.931 906.777,939.931 908.766,939.931 910.755,939.931 912.744,939.931 914.733,939.931 916.722,939.931 918.711,939.931 920.7,939.931 922.689,939.931 924.678,939.931 926.667,939.931 928.656,939.931 930.645,939.931 932.633,939.931 934.622,939.931 936.611,939.931 938.6,939.931 940.589,939.931 942.578,939.931 944.567,939.931 946.556,939.931 948.545,939.931 950.534,939.931 952.523,939.931 954.512,939.931 956.501,939.931 958.49,939.931 960.479,939.931 962.468,939.931 964.457,939.931 966.446,939.931 968.435,939.931 970.424,939.931 972.413,939.931 974.402,939.931 976.391,939.931 978.38,939.931 980.369,939.931 982.358,939.931 984.347,939.931 986.336,939.931 988.325,939.931 990.314,939.931 992.302,939.931 994.291,939.931 996.28,939.931 998.269,939.931 1000.26,939.931 1002.25,939.931 1004.24,939.931 1006.23,939.931 1008.21,939.931 1010.2,939.931 1012.19,939.931 1014.18,939.931 1016.17,939.931 1018.16,939.931 1020.15,939.931 1022.14,939.931 1024.13,939.931 1026.11,939.931 1028.1,939.931 1030.09,939.931 1032.08,939.931 1034.07,939.931 1036.06,939.931 1038.05,939.931 1040.04,939.931 1042.03,939.931 1044.02,939.931 1046,939.931 1047.99,939.931 1049.98,939.931 1051.97,939.931 1053.96,939.931 1055.95,939.931 1057.94,939.931 1059.93,939.931 1061.92,939.931 1063.91,939.931 1065.89,939.931 1067.88,939.931 1069.87,939.931 1071.86,939.931 1073.85,939.931 1075.84,939.931 1077.83,939.931 1079.82,939.931 1081.81,939.931 1083.79,939.931 1085.78,939.931 1087.77,939.931 1089.76,939.931 1091.75,939.931 1093.74,939.931 1095.73,939.931 1097.72,939.931 1099.71,939.931 1101.7,939.931 1103.68,939.931 1105.67,939.931 1107.66,939.931 1109.65,939.931 1111.64,939.931 1113.63,939.931 1115.62,939.931 1117.61,939.931 1119.6,939.931 1121.59,939.931 1123.57,939.931 1125.56,939.931 1127.55,939.931 1129.54,939.931 1131.53,939.931 1133.52,939.931 1135.51,939.931 1137.5,939.931 1139.49,939.931 1141.48,939.931 1143.46,939.931 1145.45,939.931 1147.44,939.931 1149.43,939.931 1151.42,939.931 1153.41,939.931 1155.4,939.931 1157.39,939.931 1159.38,939.931 1161.36,939.931 1163.35,939.931 1165.34,939.931 1167.33,939.931 1169.32,939.931 1171.31,939.931 1173.3,939.931 1175.29,939.931 1177.28,939.931 1179.27,939.931 1181.25,939.931 1183.24,939.931 1185.23,939.931 1187.22,939.931 1189.21,939.931 1191.2,939.931 1193.19,939.931 1195.18,939.931 1197.17,939.931 1199.16,939.931 1201.14,939.931 1203.13,939.931 1205.12,939.931 1207.11,939.931 1209.1,939.931 1211.09,939.931 1213.08,939.931 1215.07,939.931 1217.06,939.931 1219.04,939.931 1221.03,939.931 1223.02,939.931 1225.01,939.931 1227,939.931 1228.99,939.931 1230.98,939.931 1232.97,939.931 1234.96,939.931 1236.95,939.931 1238.93,939.931 1240.92,939.931 1242.91,939.931 1244.9,939.931 1246.89,939.931 1248.88,939.931 1250.87,939.931 1252.86,939.931 1254.85,939.931 1256.84,939.931 1258.82,939.931 1260.81,939.931 1262.8,939.931 1264.79,939.931 1266.78,939.931 1268.77,939.931 1270.76,939.931 1272.75,939.931 1274.74,939.931 1276.72,939.931 1278.71,939.931 1280.7,939.931 1282.69,939.931 1284.68,939.931 1286.67,939.931 1288.66,939.931 1290.65,939.931 1292.64,939.931 1294.63,939.931 1296.61,939.931 1298.6,939.931 1300.59,939.931 1302.58,939.931 1304.57,939.931 1306.56,939.931 1308.55,939.931 1310.54,939.931 1312.53,939.931 1314.52,939.931 1316.5,939.931 1318.49,939.931 1320.48,939.931 1322.47,939.931 1324.46,939.931 1326.45,939.931 1328.44,939.931 1330.43,939.931 1332.42,939.931 1334.4,939.931 1336.39,939.931 1338.38,939.931 1340.37,939.931 1342.36,939.931 1344.35,939.931 1346.34,939.931 1348.33,939.931 1350.32,939.931 1352.31,939.931 1354.29,939.931 1356.28,939.931 1358.27,939.931 1360.26,939.931 1362.25,939.931 1364.24,939.931 1366.23,939.931 1368.22,939.931 1370.21,939.931 1372.2,939.931 1374.18,939.931 1376.17,939.931 1378.16,939.931 1380.15,939.931 1382.14,939.931 1384.13,939.931 1386.12,939.931 1388.11,939.931 1390.1,939.931 1392.08,939.931 1394.07,939.931 1396.06,939.931 1398.05,939.931 1400.04,939.931 1402.03,939.931 1404.02,939.931 1406.01,939.931 1408,939.931 1409.99,939.931 1411.97,939.931 1413.96,939.931 1415.95,939.931 1417.94,939.931 1419.93,939.931 1421.92,939.931 1423.91,939.931 1425.9,939.931 1427.89,939.931 1429.88,939.931 1431.86,939.931 1433.85,939.931 1435.84,939.931 1437.83,939.931 1439.82,939.931 1441.81,939.931 1443.8,939.931 1445.79,939.931 1447.78,939.931 1449.76,939.931 1451.75,939.931 1453.74,939.931 1455.73,939.931 1457.72,939.931 1459.71,939.931 1461.7,939.931 1463.69,939.931 1465.68,939.931 1467.67,939.931 1469.65,939.931 1471.64,939.931 1473.63,939.931 1475.62,939.931 1477.61,939.931 1479.6,939.931 1481.59,939.931 1483.58,939.931 1485.57,939.931 1487.56,939.931 1489.54,939.931 1491.53,939.931 1493.52,939.931 1495.51,939.931 1497.5,939.931 1499.49,939.931 1501.48,939.931 1503.47,939.931 1505.46,939.931 1507.44,939.931 1509.43,939.931 1511.42,939.931 1513.41,939.931 1515.4,939.931 1517.39,939.931 1519.38,939.931 1521.37,939.931 1523.36,939.931 1525.35,939.931 1527.33,939.931 1529.32,939.931 1531.31,939.931 1533.3,939.931 1535.29,939.931 1537.28,939.931 1539.27,939.931 1541.26,939.931 1543.25,939.931 1545.24,939.931 1547.22,939.931 1549.21,939.931 1551.2,939.931 1553.19,939.931 1555.18,939.931 1557.17,939.931 1559.16,939.931 1561.15,939.931 1563.14,939.931 1565.12,939.931 1567.11,939.931 1569.1,939.931 1571.09,939.931 1573.08,939.931 1575.07,939.931 1577.06,939.931 1579.05,939.931 1581.04,939.931 1583.03,939.931 1585.01,939.931 1587,939.931 1588.99,939.931 1590.98,939.931 1592.97,939.931 1594.96,939.931 1596.95,939.931 1598.94,939.931 1600.93,939.931 1602.92,939.931 1604.9,939.931 1606.89,939.931 1608.88,939.931 1610.87,939.931 1612.86,939.931 1614.85,939.931 1616.84,939.931 1618.83,939.931 1620.82,939.931 1622.81,939.931 1624.79,939.931 1626.78,939.931 1628.77,939.931 1630.76,939.931 1632.75,939.931 1634.74,939.931 1636.73,939.931 1638.72,939.931 1640.71,939.931 1642.69,939.931 1644.68,939.931 1646.67,939.931 1648.66,939.931 1650.65,939.931 1652.64,939.931 1654.63,939.931 1656.62,939.931 1658.61,939.931 1660.6,939.931 1662.58,939.931 1664.57,939.931 1666.56,939.931 1668.55,939.931 1670.54,939.931 1672.53,939.931 1674.52,939.931 1676.51,939.931 1678.5,939.931 1680.49,939.931 1682.47,939.931 1684.46,939.931 1686.45,939.931 1688.44,939.931 1690.43,939.931 1692.42,939.931 1694.41,939.931 1696.4,939.931 1698.39,939.931 1700.37,939.931 1702.36,939.931 1704.35,939.931 1706.34,939.931 1708.33,939.931 1710.32,939.931 1712.31,939.931 1714.3,939.931 1716.29,939.931 1718.28,939.931 1720.26,939.931 1722.25,939.931 1724.24,939.931 1726.23,939.931 1728.22,939.931 1730.21,939.931 1732.2,939.931 1734.19,939.931 1736.18,939.931 1738.17,939.931 1740.15,939.931 1742.14,939.931 1744.13,939.931 1746.12,939.931 1748.11,939.931 1750.1,939.931 1752.09,939.931 1754.08,939.931 1756.07,939.931 1758.05,939.931 1760.04,939.931 1762.03,939.931 1764.02,939.931 1766.01,939.931 1768,939.931 1769.99,939.931 1771.98,939.931 1773.97,939.931 1775.96,939.931 1777.94,939.931 1779.93,939.931 1781.92,939.931 1783.91,939.931 1785.9,939.931 1787.89,939.931 1789.88,939.931 1791.87,939.931 1793.86,939.931 1795.85,939.931 1797.83,939.931 1799.82,939.931 1801.81,939.931 1803.8,939.931 1805.79,939.931 1807.78,939.931 1809.77,939.931 1811.76,939.931 1813.75,939.931 1815.73,939.931 1817.72,939.931 1819.71,939.931 1821.7,939.931 1823.69,939.931 1825.68,939.931 1827.67,939.931 1829.66,939.931 1831.65,939.931 1833.64,939.931 1835.62,939.931 1837.61,939.931 1839.6,939.931 1841.59,939.931 1843.58,939.931 1845.57,939.931 1847.56,939.931 1849.55,939.931 1851.54,939.931 1853.53,939.931 1855.51,939.931 1857.5,939.931 1859.49,939.931 1861.48,939.931 1863.47,939.931 1865.46,939.931 1867.45,939.931 1869.44,939.931 1871.43,939.931 1873.41,939.931 1875.4,939.931 1877.39,939.931 1879.38,939.931 1881.37,939.931 1883.36,939.931 1885.35,939.931 1887.34,939.931 1889.33,939.931 1891.32,939.931 1893.3,939.931 1895.29,939.931 1897.28,939.931 1899.27,939.931 1901.26,939.931 1903.25,939.931 1905.24,939.931 1907.23,939.931 1909.22,939.931 1911.21,939.931 1913.19,939.931 1915.18,939.931 1917.17,939.931 1919.16,939.931 1921.15,939.931 1923.14,939.931 1925.13,939.931 1927.12,939.931 1929.11,939.931 1931.09,939.931 1933.08,939.931 1935.07,939.931 1937.06,939.931 1939.05,939.931 1941.04,939.931 1943.03,939.931 1945.02,939.931 1947.01,939.931 1949,939.931 1950.98,939.931 1952.97,939.931 1954.96,939.931 1956.95,939.931 1958.94,939.931 1960.93,939.931 1962.92,939.931 1964.91,939.931 1966.9,939.931 1968.89,939.931 1970.87,939.931 1972.86,939.931 1974.85,939.931 1976.84,939.931 1978.83,939.931 1980.82,939.931 1982.81,939.931 1984.8,939.931 1986.79,939.931 1988.77,939.931 1990.76,939.931 1992.75,939.931 1994.74,939.931 1996.73,939.931 1998.72,939.931 2000.71,939.931 2002.7,939.931 2004.69,939.931 2006.68,939.931 2008.66,939.931 2010.65,939.931 2012.64,939.931 2014.63,939.931 2016.62,939.931 2018.61,939.931 2020.6,939.931 2022.59,939.931 2024.58,939.931 2026.57,939.931 2028.55,939.931 2030.54,939.931 2032.53,939.931 2034.52,939.931 2036.51,939.931 2038.5,939.931 2040.49,939.931 2042.48,939.931 2044.47,939.931 2046.45,939.931 2048.44,939.931 2050.43,939.931 2052.42,939.931 2054.41,939.931 2056.4,939.931 2058.39,939.931 2060.38,939.931 2062.37,939.931 2064.36,939.931 2066.34,939.931 2068.33,939.931 2070.32,939.931 2072.31,939.931 2074.3,939.931 2076.29,939.931 2078.28,939.931 2080.27,939.931 2082.26,939.931 2084.25,939.931 2086.23,939.931 2088.22,939.931 2090.21,939.931 2092.2,939.931 2094.19,939.931 2096.18,939.931 2098.17,939.931 2100.16,939.931 2102.15,939.931 2104.14,939.931 2106.12,939.931 2108.11,939.931 2110.1,939.931 2112.09,939.931 2114.08,939.931 2116.07,939.931 2118.06,939.931 2120.05,939.931 2122.04,939.931 2124.02,939.931 2126.01,939.931 2128,939.931 2129.99,939.931 2131.98,939.931 2133.97,939.931 2135.96,939.931 2137.95,939.931 2139.94,939.931 2141.93,939.931 2143.91,939.931 2145.9,939.931 2147.89,939.931 2149.88,939.931 2151.87,939.931 2153.86,939.931 2155.85,939.931 2157.84,939.931 2159.83,939.931 2161.82,939.931 2163.8,939.931 2165.79,939.931 2167.78,939.931 2169.77,939.931 2171.76,939.931 2173.75,939.931 2175.74,939.931 2177.73,939.931 2179.72,939.931 2181.7,939.931 2183.69,939.931 2185.68,939.931 2187.67,939.931 2189.66,939.931 2191.65,939.931 2193.64,939.931 2195.63,939.931 2197.62,939.931 2199.61,939.931 2201.59,939.931 2203.58,939.931 2205.57,939.931 2207.56,939.931 2209.55,939.931 2211.54,939.931 2213.53,939.931 2215.52,939.931 2217.51,939.931 2219.5,939.931 2221.48,939.931 2223.47,939.931 2225.46,939.931 2227.45,939.931 2229.44,939.931 2231.43,939.931 2233.42,939.931 2235.41,939.931 2237.4,939.931 2239.38,939.931 2241.37,939.931 2243.36,939.931 2245.35,939.931 2247.34,939.931 2249.33,939.931 2251.32,939.931 2253.31,939.931 2255.3,939.931 2257.29,939.931 2259.27,939.931 2261.26,939.931 2263.25,939.931 2265.24,939.931 2267.23,939.931 2269.22,939.931 2271.21,939.931 2273.2,939.931 2275.19,939.931 2277.18,939.931 2279.16,939.931 2281.15,939.931 2283.14,939.931 2285.13,939.931 2287.12,939.931 2289.11,939.931 2291.1,939.931 2293.09,939.931 "/>
<polyline clip-path="url(#clip452)" style="stroke:#e26f46; stroke-linecap:round; stroke-linejoin:round; stroke-width:4; stroke-opacity:1; fill:none" points="304.12,978.527 306.109,978.527 308.098,978.527 310.087,978.527 312.076,978.527 314.065,978.527 316.054,990.512 318.043,1012.72 320.032,1048.66 322.021,1092.74 324.01,1144.39 325.999,1209.29 327.988,1289.8 329.976,1386.4 "/>
<polyline clip-path="url(#clip452)" style="stroke:#3da44d; stroke-linecap:round; stroke-linejoin:round; stroke-width:4; stroke-opacity:1; fill:none" points="304.12,978.527 306.109,974.721 308.098,160.256 310.087,717.73 312.076,717.73 314.065,717.73 316.054,717.73 318.043,717.73 320.032,717.73 322.021,717.73 324.01,717.73 325.999,717.73 327.988,717.73 329.976,717.73 331.965,717.73 333.954,717.73 335.943,717.73 337.932,717.73 339.921,717.73 341.91,717.73 343.899,717.73 345.888,717.73 347.877,717.73 349.866,717.73 351.855,717.73 353.844,717.73 355.833,834.915 357.822,834.915 359.811,834.915 361.8,834.915 363.789,834.915 365.778,834.915 367.767,834.915 369.756,834.915 371.745,834.915 373.734,834.915 375.723,834.915 377.712,834.915 379.701,834.915 381.69,834.915 383.679,834.915 385.668,834.915 387.657,834.915 389.646,834.915 391.634,834.915 393.623,834.915 395.612,834.915 397.601,834.915 399.59,834.915 401.579,834.915 403.568,834.915 405.557,834.915 407.546,834.915 409.535,834.915 411.524,834.915 413.513,834.915 415.502,834.915 417.491,834.915 419.48,834.915 421.469,834.915 423.458,834.915 425.447,834.915 427.436,834.915 429.425,834.915 431.414,834.915 433.403,834.915 435.392,834.915 437.381,834.915 439.37,834.915 441.359,834.915 443.348,834.915 445.337,834.915 447.326,834.915 449.315,834.915 451.303,834.915 453.292,834.915 455.281,834.915 457.27,834.915 459.259,834.915 461.248,834.915 463.237,834.915 465.226,834.915 467.215,834.915 469.204,834.915 471.193,834.915 473.182,834.915 475.171,834.915 477.16,834.915 479.149,834.915 481.138,834.915 483.127,834.915 485.116,834.915 487.105,834.915 489.094,834.915 491.083,834.915 493.072,834.915 495.061,834.915 497.05,834.915 499.039,834.915 501.028,834.915 503.017,834.915 505.006,834.915 506.995,834.915 508.984,834.915 510.972,834.915 512.961,834.915 514.95,834.915 516.939,834.915 518.928,834.915 520.917,834.915 522.906,834.915 524.895,834.915 526.884,834.915 528.873,834.915 530.862,834.915 532.851,834.915 534.84,834.915 536.829,834.915 538.818,834.915 540.807,834.915 542.796,834.915 544.785,834.915 546.774,834.915 548.763,834.915 550.752,834.915 552.741,834.915 554.73,834.915 556.719,834.915 558.708,834.915 560.697,834.915 562.686,834.915 564.675,834.915 566.664,834.915 568.653,834.915 570.641,834.915 572.63,834.915 574.619,834.915 576.608,834.915 578.597,834.915 580.586,834.915 582.575,834.915 584.564,834.915 586.553,834.915 588.542,834.915 590.531,834.915 592.52,834.915 594.509,834.915 596.498,834.915 598.487,834.915 600.476,834.915 602.465,834.915 604.454,834.915 606.443,834.915 608.432,834.915 610.421,834.915 612.41,834.915 614.399,834.915 616.388,834.915 618.377,834.915 620.366,834.915 622.355,834.915 624.344,834.915 626.333,834.915 628.322,834.915 630.311,834.915 632.299,834.915 634.288,834.915 636.277,834.915 638.266,834.915 640.255,834.915 642.244,834.915 644.233,834.915 646.222,834.915 648.211,834.915 650.2,834.915 652.189,834.915 654.178,834.915 656.167,834.915 658.156,834.915 660.145,834.915 662.134,834.915 664.123,834.915 666.112,834.915 668.101,834.915 670.09,834.915 672.079,834.915 674.068,834.915 676.057,834.915 678.046,834.915 680.035,834.915 682.024,834.915 684.013,834.915 686.002,834.915 687.991,834.915 689.98,834.915 691.968,834.915 693.957,834.915 695.946,834.915 697.935,834.915 699.924,834.915 701.913,834.915 703.902,834.915 705.891,834.915 707.88,834.915 709.869,834.915 711.858,834.915 713.847,834.915 715.836,834.915 717.825,834.915 719.814,834.915 721.803,834.915 723.792,834.915 725.781,834.915 727.77,834.915 729.759,834.915 731.748,834.915 733.737,834.915 735.726,834.915 737.715,834.915 739.704,834.915 741.693,834.915 743.682,834.915 745.671,834.915 747.66,834.915 749.649,834.915 751.637,834.915 753.626,834.915 755.615,834.915 757.604,834.915 759.593,834.915 761.582,834.915 763.571,834.915 765.56,834.915 767.549,834.915 769.538,834.915 771.527,834.915 773.516,834.915 775.505,834.915 777.494,834.915 779.483,834.915 781.472,834.915 783.461,834.915 785.45,834.915 787.439,834.915 789.428,834.915 791.417,834.915 793.406,834.915 795.395,834.915 797.384,834.915 799.373,834.915 801.362,834.915 803.351,834.915 805.34,834.915 807.329,834.915 809.318,834.915 811.307,834.915 813.295,834.915 815.284,834.915 817.273,834.915 819.262,834.915 821.251,834.915 823.24,834.915 825.229,834.915 827.218,834.915 829.207,834.915 831.196,834.915 833.185,834.915 835.174,834.915 837.163,834.915 839.152,834.915 841.141,834.915 843.13,834.915 845.119,834.915 847.108,834.915 849.097,834.915 851.086,834.915 853.075,834.915 855.064,834.915 857.053,834.915 859.042,834.915 861.031,834.915 863.02,834.915 865.009,834.915 866.998,834.915 868.987,834.915 870.976,834.915 872.964,834.915 874.953,834.915 876.942,834.915 878.931,834.915 880.92,834.915 882.909,834.915 884.898,834.915 886.887,834.915 888.876,834.915 890.865,834.915 892.854,834.915 894.843,834.915 896.832,834.915 898.821,834.915 900.81,834.915 902.799,834.915 904.788,834.915 906.777,834.915 908.766,834.915 910.755,834.915 912.744,834.915 914.733,834.915 916.722,834.915 918.711,834.915 920.7,834.915 922.689,834.915 924.678,834.915 926.667,834.915 928.656,834.915 930.645,834.915 932.633,834.915 934.622,834.915 936.611,834.915 938.6,834.915 940.589,834.915 942.578,834.915 944.567,834.915 946.556,834.915 948.545,834.915 950.534,834.915 952.523,834.915 954.512,834.915 956.501,834.915 958.49,834.915 960.479,834.915 962.468,834.915 964.457,834.915 966.446,834.915 968.435,834.915 970.424,834.915 972.413,834.915 974.402,834.915 976.391,834.915 978.38,834.915 980.369,834.915 982.358,834.915 984.347,834.915 986.336,834.915 988.325,834.915 990.314,834.915 992.302,834.915 994.291,834.915 996.28,834.915 998.269,834.915 1000.26,834.915 1002.25,834.915 1004.24,834.915 1006.23,834.915 1008.21,834.915 1010.2,834.915 1012.19,834.915 1014.18,834.915 1016.17,834.915 1018.16,834.915 1020.15,834.915 1022.14,834.915 1024.13,834.915 1026.11,834.915 1028.1,834.915 1030.09,834.915 1032.08,834.915 1034.07,834.915 1036.06,834.915 1038.05,834.915 1040.04,834.915 1042.03,834.915 1044.02,834.915 1046,834.915 1047.99,834.915 1049.98,834.915 1051.97,834.915 1053.96,834.915 1055.95,834.915 1057.94,834.915 1059.93,834.915 1061.92,834.915 1063.91,834.915 1065.89,834.915 1067.88,834.915 1069.87,834.915 1071.86,834.915 1073.85,834.915 1075.84,834.915 1077.83,834.915 1079.82,834.915 1081.81,834.915 1083.79,834.915 1085.78,834.915 1087.77,834.915 1089.76,834.915 1091.75,834.915 1093.74,834.915 1095.73,834.915 1097.72,834.915 1099.71,834.915 1101.7,834.915 1103.68,834.915 1105.67,834.915 1107.66,834.915 1109.65,834.915 1111.64,834.915 1113.63,834.915 1115.62,834.915 1117.61,834.915 1119.6,834.915 1121.59,834.915 1123.57,834.915 1125.56,834.915 1127.55,834.915 1129.54,834.915 1131.53,834.915 1133.52,834.915 1135.51,834.915 1137.5,834.915 1139.49,834.915 1141.48,834.915 1143.46,834.915 1145.45,834.915 1147.44,834.915 1149.43,834.915 1151.42,834.915 1153.41,834.915 1155.4,834.915 1157.39,834.915 1159.38,834.915 1161.36,834.915 1163.35,834.915 1165.34,834.915 1167.33,834.915 1169.32,834.915 1171.31,834.915 1173.3,834.915 1175.29,834.915 1177.28,834.915 1179.27,834.915 1181.25,834.915 1183.24,834.915 1185.23,834.915 1187.22,834.915 1189.21,834.915 1191.2,834.915 1193.19,834.915 1195.18,834.915 1197.17,834.915 1199.16,834.915 1201.14,834.915 1203.13,834.915 1205.12,834.915 1207.11,834.915 1209.1,834.915 1211.09,834.915 1213.08,834.915 1215.07,834.915 1217.06,834.915 1219.04,834.915 1221.03,834.915 1223.02,834.915 1225.01,834.915 1227,834.915 1228.99,834.915 1230.98,834.915 1232.97,834.915 1234.96,834.915 1236.95,834.915 1238.93,834.915 1240.92,834.915 1242.91,834.915 1244.9,834.915 1246.89,834.915 1248.88,834.915 1250.87,834.915 1252.86,834.915 1254.85,834.915 1256.84,834.915 1258.82,834.915 1260.81,834.915 1262.8,834.915 1264.79,834.915 1266.78,834.915 1268.77,834.915 1270.76,834.915 1272.75,834.915 1274.74,834.915 1276.72,834.915 1278.71,834.915 1280.7,834.915 1282.69,834.915 1284.68,834.915 1286.67,834.915 1288.66,834.915 1290.65,834.915 1292.64,834.915 1294.63,834.915 1296.61,834.915 1298.6,834.915 1300.59,834.915 1302.58,834.915 1304.57,834.915 1306.56,834.915 1308.55,834.915 1310.54,834.915 1312.53,834.915 1314.52,834.915 1316.5,834.915 1318.49,834.915 1320.48,834.915 1322.47,834.915 1324.46,834.915 1326.45,834.915 1328.44,834.915 1330.43,834.915 1332.42,834.915 1334.4,834.915 1336.39,834.915 1338.38,834.915 1340.37,834.915 1342.36,834.915 1344.35,834.915 1346.34,834.915 1348.33,834.915 1350.32,834.915 1352.31,834.915 1354.29,834.915 1356.28,834.915 1358.27,834.915 1360.26,834.915 1362.25,834.915 1364.24,834.915 1366.23,834.915 1368.22,834.915 1370.21,834.915 1372.2,834.915 1374.18,834.915 1376.17,834.915 1378.16,834.915 1380.15,834.915 1382.14,834.915 1384.13,834.915 1386.12,834.915 1388.11,834.915 1390.1,834.915 1392.08,834.915 1394.07,834.915 1396.06,834.915 1398.05,834.915 1400.04,834.915 1402.03,834.915 1404.02,834.915 1406.01,834.915 1408,834.915 1409.99,834.915 1411.97,834.915 1413.96,834.915 1415.95,834.915 1417.94,834.915 1419.93,834.915 1421.92,834.915 1423.91,834.915 1425.9,834.915 1427.89,834.915 1429.88,834.915 1431.86,834.915 1433.85,834.915 1435.84,834.915 1437.83,834.915 1439.82,834.915 1441.81,834.915 1443.8,834.915 1445.79,834.915 1447.78,834.915 1449.76,834.915 1451.75,834.915 1453.74,834.915 1455.73,834.915 1457.72,834.915 1459.71,834.915 1461.7,834.915 1463.69,834.915 1465.68,834.915 1467.67,834.915 1469.65,834.915 1471.64,834.915 1473.63,834.915 1475.62,834.915 1477.61,834.915 1479.6,834.915 1481.59,834.915 1483.58,834.915 1485.57,834.915 1487.56,834.915 1489.54,834.915 1491.53,834.915 1493.52,834.915 1495.51,834.915 1497.5,834.915 1499.49,834.915 1501.48,834.915 1503.47,834.915 1505.46,834.915 1507.44,834.915 1509.43,834.915 1511.42,834.915 1513.41,834.915 1515.4,834.915 1517.39,834.915 1519.38,834.915 1521.37,834.915 1523.36,834.915 1525.35,834.915 1527.33,834.915 1529.32,834.915 1531.31,834.915 1533.3,834.915 1535.29,834.915 1537.28,834.915 1539.27,834.915 1541.26,834.915 1543.25,834.915 1545.24,834.915 1547.22,834.915 1549.21,834.915 1551.2,834.915 1553.19,834.915 1555.18,834.915 1557.17,834.915 1559.16,834.915 1561.15,834.915 1563.14,834.915 1565.12,834.915 1567.11,834.915 1569.1,834.915 1571.09,834.915 1573.08,834.915 1575.07,834.915 1577.06,834.915 1579.05,834.915 1581.04,834.915 1583.03,834.915 1585.01,834.915 1587,834.915 1588.99,834.915 1590.98,834.915 1592.97,834.915 1594.96,834.915 1596.95,834.915 1598.94,834.915 1600.93,834.915 1602.92,834.915 1604.9,834.915 1606.89,834.915 1608.88,834.915 1610.87,834.915 1612.86,834.915 1614.85,834.915 1616.84,834.915 1618.83,834.915 1620.82,834.915 1622.81,834.915 1624.79,834.915 1626.78,834.915 1628.77,834.915 1630.76,834.915 1632.75,834.915 1634.74,834.915 1636.73,834.915 1638.72,834.915 1640.71,834.915 1642.69,834.915 1644.68,834.915 1646.67,834.915 1648.66,834.915 1650.65,834.915 1652.64,834.915 1654.63,834.915 1656.62,834.915 1658.61,834.915 1660.6,834.915 1662.58,834.915 1664.57,834.915 1666.56,834.915 1668.55,834.915 1670.54,834.915 1672.53,834.915 1674.52,834.915 1676.51,834.915 1678.5,834.915 1680.49,834.915 1682.47,834.915 1684.46,834.915 1686.45,834.915 1688.44,834.915 1690.43,834.915 1692.42,834.915 1694.41,834.915 1696.4,834.915 1698.39,834.915 1700.37,834.915 1702.36,834.915 1704.35,834.915 1706.34,834.915 1708.33,834.915 1710.32,834.915 1712.31,834.915 1714.3,834.915 1716.29,834.915 1718.28,834.915 1720.26,834.915 1722.25,834.915 1724.24,834.915 1726.23,834.915 1728.22,834.915 1730.21,834.915 1732.2,834.915 1734.19,834.915 1736.18,834.915 1738.17,834.915 1740.15,834.915 1742.14,834.915 1744.13,834.915 1746.12,834.915 1748.11,834.915 1750.1,834.915 1752.09,834.915 1754.08,834.915 1756.07,834.915 1758.05,834.915 1760.04,834.915 1762.03,834.915 1764.02,834.915 1766.01,834.915 1768,834.915 1769.99,834.915 1771.98,834.915 1773.97,834.915 1775.96,834.915 1777.94,834.915 1779.93,834.915 1781.92,834.915 1783.91,834.915 1785.9,834.915 1787.89,834.915 1789.88,834.915 1791.87,834.915 1793.86,834.915 1795.85,834.915 1797.83,834.915 1799.82,834.915 1801.81,834.915 1803.8,834.915 1805.79,834.915 1807.78,834.915 1809.77,834.915 1811.76,834.915 1813.75,834.915 1815.73,834.915 1817.72,834.915 1819.71,834.915 1821.7,834.915 1823.69,834.915 1825.68,834.915 1827.67,834.915 1829.66,834.915 1831.65,834.915 1833.64,834.915 1835.62,834.915 1837.61,834.915 1839.6,834.915 1841.59,834.915 1843.58,834.915 1845.57,834.915 1847.56,834.915 1849.55,834.915 1851.54,834.915 1853.53,834.915 1855.51,834.915 1857.5,834.915 1859.49,834.915 1861.48,834.915 1863.47,834.915 1865.46,834.915 1867.45,834.915 1869.44,834.915 1871.43,834.915 1873.41,834.915 1875.4,834.915 1877.39,834.915 1879.38,834.915 1881.37,834.915 1883.36,834.915 1885.35,834.915 1887.34,834.915 1889.33,834.915 1891.32,834.915 1893.3,834.915 1895.29,834.915 1897.28,834.915 1899.27,834.915 1901.26,834.915 1903.25,834.915 1905.24,834.915 1907.23,834.915 1909.22,834.915 1911.21,834.915 1913.19,834.915 1915.18,834.915 1917.17,834.915 1919.16,834.915 1921.15,834.915 1923.14,834.915 1925.13,834.915 1927.12,834.915 1929.11,834.915 1931.09,834.915 1933.08,834.915 1935.07,834.915 1937.06,834.915 1939.05,834.915 1941.04,834.915 1943.03,834.915 1945.02,834.915 1947.01,834.915 1949,834.915 1950.98,834.915 1952.97,834.915 1954.96,834.915 1956.95,834.915 1958.94,834.915 1960.93,834.915 1962.92,834.915 1964.91,834.915 1966.9,834.915 1968.89,834.915 1970.87,834.915 1972.86,834.915 1974.85,834.915 1976.84,834.915 1978.83,834.915 1980.82,834.915 1982.81,834.915 1984.8,834.915 1986.79,834.915 1988.77,834.915 1990.76,834.915 1992.75,834.915 1994.74,834.915 1996.73,834.915 1998.72,834.915 2000.71,834.915 2002.7,834.915 2004.69,834.915 2006.68,834.915 2008.66,834.915 2010.65,834.915 2012.64,834.915 2014.63,834.915 2016.62,834.915 2018.61,834.915 2020.6,834.915 2022.59,834.915 2024.58,834.915 2026.57,834.915 2028.55,834.915 2030.54,834.915 2032.53,834.915 2034.52,834.915 2036.51,834.915 2038.5,834.915 2040.49,834.915 2042.48,834.915 2044.47,834.915 2046.45,834.915 2048.44,834.915 2050.43,834.915 2052.42,834.915 2054.41,834.915 2056.4,834.915 2058.39,834.915 2060.38,834.915 2062.37,834.915 2064.36,834.915 2066.34,834.915 2068.33,834.915 2070.32,834.915 2072.31,834.915 2074.3,834.915 2076.29,834.915 2078.28,834.915 2080.27,834.915 2082.26,834.915 2084.25,834.915 2086.23,834.915 2088.22,834.915 2090.21,834.915 2092.2,834.915 2094.19,834.915 2096.18,834.915 2098.17,834.915 2100.16,834.915 2102.15,834.915 2104.14,834.915 2106.12,834.915 2108.11,834.915 2110.1,834.915 2112.09,834.915 2114.08,834.915 2116.07,834.915 2118.06,834.915 2120.05,834.915 2122.04,834.915 2124.02,834.915 2126.01,834.915 2128,834.915 2129.99,834.915 2131.98,834.915 2133.97,834.915 2135.96,834.915 2137.95,834.915 2139.94,834.915 2141.93,834.915 2143.91,834.915 2145.9,834.915 2147.89,834.915 2149.88,834.915 2151.87,834.915 2153.86,834.915 2155.85,834.915 2157.84,834.915 2159.83,834.915 2161.82,834.915 2163.8,834.915 2165.79,834.915 2167.78,834.915 2169.77,834.915 2171.76,834.915 2173.75,834.915 2175.74,834.915 2177.73,834.915 2179.72,834.915 2181.7,834.915 2183.69,834.915 2185.68,834.915 2187.67,834.915 2189.66,834.915 2191.65,834.915 2193.64,834.915 2195.63,834.915 2197.62,834.915 2199.61,834.915 2201.59,834.915 2203.58,834.915 2205.57,834.915 2207.56,834.915 2209.55,834.915 2211.54,834.915 2213.53,834.915 2215.52,834.915 2217.51,834.915 2219.5,834.915 2221.48,834.915 2223.47,834.915 2225.46,834.915 2227.45,834.915 2229.44,834.915 2231.43,834.915 2233.42,834.915 2235.41,834.915 2237.4,834.915 2239.38,834.915 2241.37,834.915 2243.36,834.915 2245.35,834.915 2247.34,834.915 2249.33,834.915 2251.32,834.915 2253.31,834.915 2255.3,834.915 2257.29,834.915 2259.27,834.915 2261.26,834.915 2263.25,834.915 2265.24,834.915 2267.23,834.915 2269.22,834.915 2271.21,834.915 2273.2,834.915 2275.19,834.915 2277.18,834.915 2279.16,834.915 2281.15,834.915 2283.14,834.915 2285.13,834.915 2287.12,834.915 2289.11,834.915 2291.1,834.915 2293.09,834.915 "/>
<polyline clip-path="url(#clip452)" style="stroke:#c271d2; stroke-linecap:round; stroke-linejoin:round; stroke-width:4; stroke-opacity:1; fill:none" points="304.12,978.527 306.109,978.527 308.098,978.527 310.087,978.527 312.076,978.527 314.065,978.527 316.054,990.512 318.043,1012.72 320.032,1048.66 322.021,1092.74 324.01,1144.39 325.999,1209.29 327.988,1289.8 329.976,1386.4 "/>
<polyline clip-path="url(#clip452)" style="stroke:#ac8d18; stroke-linecap:round; stroke-linejoin:round; stroke-width:4; stroke-opacity:1; fill:none" points="304.12,978.527 306.109,978.527 308.098,978.527 310.087,978.527 312.076,978.527 314.065,978.527 316.054,990.512 318.043,1012.72 320.032,1048.66 322.021,1092.74 324.01,1144.39 325.999,1209.29 327.988,1289.8 329.976,1386.4 "/>
<path clip-path="url(#clip450)" d="M1748.55 477.836 L2282.48 477.836 L2282.48 166.796 L1748.55 166.796  Z" fill="#ffffff" fill-rule="evenodd" fill-opacity="1"/>
<polyline clip-path="url(#clip450)" style="stroke:#000000; stroke-linecap:round; stroke-linejoin:round; stroke-width:4; stroke-opacity:1; fill:none" points="1748.55,477.836 2282.48,477.836 2282.48,166.796 1748.55,166.796 1748.55,477.836 "/>
<polyline clip-path="url(#clip450)" style="stroke:#009af9; stroke-linecap:round; stroke-linejoin:round; stroke-width:4; stroke-opacity:1; fill:none" points="1771.97,218.636 1912.53,218.636 "/>
<path clip-path="url(#clip450)" d="M1935.95 201.356 L1940.63 201.356 L1940.63 231.981 L1957.46 231.981 L1957.46 235.916 L1935.95 235.916 L1935.95 201.356 Z" fill="#000000" fill-rule="nonzero" fill-opacity="1" /><path clip-path="url(#clip450)" d="M1962.37 201.356 L1969.33 201.356 L1978.15 224.874 L1987.02 201.356 L1993.99 201.356 L1993.99 235.916 L1989.43 235.916 L1989.43 205.569 L1980.51 229.272 L1975.81 229.272 L1966.9 205.569 L1966.9 235.916 L1962.37 235.916 L1962.37 201.356 Z" fill="#000000" fill-rule="nonzero" fill-opacity="1" /><path clip-path="url(#clip450)" d="M2022.78 243.786 L2022.78 247.096 L1998.15 247.096 L1998.15 243.786 L2022.78 243.786 Z" fill="#000000" fill-rule="nonzero" fill-opacity="1" /><path clip-path="url(#clip450)" d="M2047.69 202.49 L2047.69 207.05 Q2045.03 205.777 2042.67 205.152 Q2040.3 204.527 2038.11 204.527 Q2034.29 204.527 2032.2 206.008 Q2030.14 207.49 2030.14 210.221 Q2030.14 212.513 2031.51 213.694 Q2032.9 214.851 2036.74 215.569 L2039.56 216.147 Q2044.8 217.143 2047.27 219.666 Q2049.77 222.166 2049.77 226.379 Q2049.77 231.402 2046.39 233.994 Q2043.04 236.587 2036.53 236.587 Q2034.08 236.587 2031.3 236.031 Q2028.55 235.476 2025.58 234.388 L2025.58 229.573 Q2028.43 231.17 2031.16 231.981 Q2033.89 232.791 2036.53 232.791 Q2040.54 232.791 2042.71 231.217 Q2044.89 229.643 2044.89 226.726 Q2044.89 224.18 2043.31 222.744 Q2041.76 221.309 2038.2 220.592 L2035.35 220.036 Q2030.12 218.995 2027.78 216.772 Q2025.44 214.55 2025.44 210.592 Q2025.44 206.008 2028.66 203.37 Q2031.9 200.731 2037.57 200.731 Q2040 200.731 2042.53 201.171 Q2045.05 201.61 2047.69 202.49 Z" fill="#000000" fill-rule="nonzero" fill-opacity="1" /><path clip-path="url(#clip450)" d="M2061.74 205.198 L2061.74 218.184 L2067.62 218.184 Q2070.88 218.184 2072.67 216.495 Q2074.45 214.805 2074.45 211.68 Q2074.45 208.578 2072.67 206.888 Q2070.88 205.198 2067.62 205.198 L2061.74 205.198 M2057.06 201.356 L2067.62 201.356 Q2073.43 201.356 2076.39 203.995 Q2079.38 206.61 2079.38 211.68 Q2079.38 216.795 2076.39 219.411 Q2073.43 222.027 2067.62 222.027 L2061.74 222.027 L2061.74 235.916 L2057.06 235.916 L2057.06 201.356 Z" fill="#000000" fill-rule="nonzero" fill-opacity="1" /><path clip-path="url(#clip450)" d="M2109.22 230.985 L2109.22 221.703 L2101.58 221.703 L2101.58 217.86 L2113.85 217.86 L2113.85 232.698 Q2111.14 234.619 2107.87 235.615 Q2104.61 236.587 2100.91 236.587 Q2092.8 236.587 2088.22 231.865 Q2083.66 227.119 2083.66 218.67 Q2083.66 210.198 2088.22 205.476 Q2092.8 200.731 2100.91 200.731 Q2104.29 200.731 2107.32 201.564 Q2110.37 202.397 2112.94 204.018 L2112.94 208.995 Q2110.35 206.796 2107.43 205.684 Q2104.52 204.573 2101.3 204.573 Q2094.96 204.573 2091.76 208.115 Q2088.59 211.657 2088.59 218.67 Q2088.59 225.661 2091.76 229.203 Q2094.96 232.744 2101.3 232.744 Q2103.78 232.744 2105.72 232.328 Q2107.67 231.888 2109.22 230.985 Z" fill="#000000" fill-rule="nonzero" fill-opacity="1" /><polyline clip-path="url(#clip450)" style="stroke:#e26f46; stroke-linecap:round; stroke-linejoin:round; stroke-width:4; stroke-opacity:1; fill:none" points="1771.97,270.476 1912.53,270.476 "/>
<path clip-path="url(#clip450)" d="M1935.95 253.196 L1940.63 253.196 L1940.63 283.821 L1957.46 283.821 L1957.46 287.756 L1935.95 287.756 L1935.95 253.196 Z" fill="#000000" fill-rule="nonzero" fill-opacity="1" /><path clip-path="url(#clip450)" d="M1962.37 253.196 L1969.33 253.196 L1978.15 276.714 L1987.02 253.196 L1993.99 253.196 L1993.99 287.756 L1989.43 287.756 L1989.43 257.409 L1980.51 281.112 L1975.81 281.112 L1966.9 257.409 L1966.9 287.756 L1962.37 287.756 L1962.37 253.196 Z" fill="#000000" fill-rule="nonzero" fill-opacity="1" /><path clip-path="url(#clip450)" d="M2022.78 295.626 L2022.78 298.936 L1998.15 298.936 L1998.15 295.626 L2022.78 295.626 Z" fill="#000000" fill-rule="nonzero" fill-opacity="1" /><path clip-path="url(#clip450)" d="M2038.52 257.802 L2032.18 275.001 L2044.89 275.001 L2038.52 257.802 M2035.88 253.196 L2041.18 253.196 L2054.36 287.756 L2049.49 287.756 L2046.35 278.89 L2030.77 278.89 L2027.62 287.756 L2022.69 287.756 L2035.88 253.196 Z" fill="#000000" fill-rule="nonzero" fill-opacity="1" /><path clip-path="url(#clip450)" d="M2080.77 272.108 L2080.77 287.756 L2076.51 287.756 L2076.51 272.247 Q2076.51 268.566 2075.07 266.737 Q2073.64 264.909 2070.77 264.909 Q2067.32 264.909 2065.33 267.108 Q2063.34 269.307 2063.34 273.103 L2063.34 287.756 L2059.05 287.756 L2059.05 261.83 L2063.34 261.83 L2063.34 265.858 Q2064.86 263.52 2066.92 262.362 Q2069.01 261.205 2071.72 261.205 Q2076.18 261.205 2078.48 263.983 Q2080.77 266.737 2080.77 272.108 Z" fill="#000000" fill-rule="nonzero" fill-opacity="1" /><path clip-path="url(#clip450)" d="M2106.32 265.765 L2106.32 251.737 L2110.58 251.737 L2110.58 287.756 L2106.32 287.756 L2106.32 283.867 Q2104.98 286.182 2102.92 287.316 Q2100.88 288.427 2098.01 288.427 Q2093.31 288.427 2090.35 284.677 Q2087.41 280.927 2087.41 274.816 Q2087.41 268.705 2090.35 264.955 Q2093.31 261.205 2098.01 261.205 Q2100.88 261.205 2102.92 262.339 Q2104.98 263.45 2106.32 265.765 M2091.81 274.816 Q2091.81 279.515 2093.73 282.2 Q2095.67 284.862 2099.05 284.862 Q2102.43 284.862 2104.38 282.2 Q2106.32 279.515 2106.32 274.816 Q2106.32 270.117 2104.38 267.455 Q2102.43 264.77 2099.05 264.77 Q2095.67 264.77 2093.73 267.455 Q2091.81 270.117 2091.81 274.816 Z" fill="#000000" fill-rule="nonzero" fill-opacity="1" /><path clip-path="url(#clip450)" d="M2134.38 265.811 Q2133.66 265.395 2132.8 265.21 Q2131.97 265.001 2130.95 265.001 Q2127.34 265.001 2125.4 267.362 Q2123.48 269.7 2123.48 274.098 L2123.48 287.756 L2119.19 287.756 L2119.19 261.83 L2123.48 261.83 L2123.48 265.858 Q2124.82 263.497 2126.97 262.362 Q2129.12 261.205 2132.2 261.205 Q2132.64 261.205 2133.17 261.274 Q2133.71 261.321 2134.36 261.436 L2134.38 265.811 Z" fill="#000000" fill-rule="nonzero" fill-opacity="1" /><path clip-path="url(#clip450)" d="M2159.98 273.728 L2159.98 275.811 L2140.4 275.811 Q2140.67 280.209 2143.04 282.524 Q2145.42 284.816 2149.66 284.816 Q2152.11 284.816 2154.4 284.214 Q2156.72 283.612 2158.98 282.409 L2158.98 286.436 Q2156.69 287.408 2154.29 287.918 Q2151.88 288.427 2149.4 288.427 Q2143.2 288.427 2139.56 284.816 Q2135.95 281.205 2135.95 275.047 Q2135.95 268.682 2139.38 264.955 Q2142.83 261.205 2148.66 261.205 Q2153.89 261.205 2156.92 264.585 Q2159.98 267.941 2159.98 273.728 M2155.72 272.478 Q2155.67 268.983 2153.75 266.899 Q2151.85 264.816 2148.71 264.816 Q2145.14 264.816 2142.99 266.83 Q2140.86 268.844 2140.54 272.501 L2155.72 272.478 Z" fill="#000000" fill-rule="nonzero" fill-opacity="1" /><path clip-path="url(#clip450)" d="M2166.97 261.83 L2171.23 261.83 L2171.23 287.756 L2166.97 287.756 L2166.97 261.83 M2166.97 251.737 L2171.23 251.737 L2171.23 257.131 L2166.97 257.131 L2166.97 251.737 Z" fill="#000000" fill-rule="nonzero" fill-opacity="1" /><path clip-path="url(#clip450)" d="M2199.84 295.626 L2199.84 298.936 L2175.21 298.936 L2175.21 295.626 L2199.84 295.626 Z" fill="#000000" fill-rule="nonzero" fill-opacity="1" /><path clip-path="url(#clip450)" d="M2215.63 274.723 Q2210.47 274.723 2208.48 275.904 Q2206.48 277.084 2206.48 279.932 Q2206.48 282.2 2207.97 283.543 Q2209.47 284.862 2212.04 284.862 Q2215.58 284.862 2217.71 282.362 Q2219.86 279.839 2219.86 275.672 L2219.86 274.723 L2215.63 274.723 M2224.12 272.964 L2224.12 287.756 L2219.86 287.756 L2219.86 283.821 Q2218.41 286.182 2216.23 287.316 Q2214.05 288.427 2210.91 288.427 Q2206.92 288.427 2204.56 286.205 Q2202.23 283.959 2202.23 280.209 Q2202.23 275.834 2205.14 273.612 Q2208.08 271.39 2213.89 271.39 L2219.86 271.39 L2219.86 270.973 Q2219.86 268.034 2217.92 266.436 Q2216 264.816 2212.5 264.816 Q2210.28 264.816 2208.17 265.348 Q2206.07 265.881 2204.12 266.946 L2204.12 263.01 Q2206.46 262.108 2208.66 261.668 Q2210.86 261.205 2212.94 261.205 Q2218.57 261.205 2221.35 264.122 Q2224.12 267.038 2224.12 272.964 Z" fill="#000000" fill-rule="nonzero" fill-opacity="1" /><path clip-path="url(#clip450)" d="M2232.9 251.737 L2237.16 251.737 L2237.16 287.756 L2232.9 287.756 L2232.9 251.737 Z" fill="#000000" fill-rule="nonzero" fill-opacity="1" /><path clip-path="url(#clip450)" d="M2250.28 254.469 L2250.28 261.83 L2259.05 261.83 L2259.05 265.14 L2250.28 265.14 L2250.28 279.214 Q2250.28 282.385 2251.14 283.288 Q2252.02 284.191 2254.68 284.191 L2259.05 284.191 L2259.05 287.756 L2254.68 287.756 Q2249.75 287.756 2247.87 285.927 Q2246 284.075 2246 279.214 L2246 265.14 L2242.87 265.14 L2242.87 261.83 L2246 261.83 L2246 254.469 L2250.28 254.469 Z" fill="#000000" fill-rule="nonzero" fill-opacity="1" /><polyline clip-path="url(#clip450)" style="stroke:#3da44d; stroke-linecap:round; stroke-linejoin:round; stroke-width:4; stroke-opacity:1; fill:none" points="1771.97,322.316 1912.53,322.316 "/>
<path clip-path="url(#clip450)" d="M1935.95 305.036 L1940.63 305.036 L1940.63 335.661 L1957.46 335.661 L1957.46 339.596 L1935.95 339.596 L1935.95 305.036 Z" fill="#000000" fill-rule="nonzero" fill-opacity="1" /><path clip-path="url(#clip450)" d="M1962.37 305.036 L1969.33 305.036 L1978.15 328.554 L1987.02 305.036 L1993.99 305.036 L1993.99 339.596 L1989.43 339.596 L1989.43 309.249 L1980.51 332.952 L1975.81 332.952 L1966.9 309.249 L1966.9 339.596 L1962.37 339.596 L1962.37 305.036 Z" fill="#000000" fill-rule="nonzero" fill-opacity="1" /><path clip-path="url(#clip450)" d="M2022.78 347.466 L2022.78 350.776 L1998.15 350.776 L1998.15 347.466 L2022.78 347.466 Z" fill="#000000" fill-rule="nonzero" fill-opacity="1" /><path clip-path="url(#clip450)" d="M2038.52 309.642 L2032.18 326.841 L2044.89 326.841 L2038.52 309.642 M2035.88 305.036 L2041.18 305.036 L2054.36 339.596 L2049.49 339.596 L2046.35 330.73 L2030.77 330.73 L2027.62 339.596 L2022.69 339.596 L2035.88 305.036 Z" fill="#000000" fill-rule="nonzero" fill-opacity="1" /><path clip-path="url(#clip450)" d="M2080.77 323.948 L2080.77 339.596 L2076.51 339.596 L2076.51 324.087 Q2076.51 320.406 2075.07 318.577 Q2073.64 316.749 2070.77 316.749 Q2067.32 316.749 2065.33 318.948 Q2063.34 321.147 2063.34 324.943 L2063.34 339.596 L2059.05 339.596 L2059.05 313.67 L2063.34 313.67 L2063.34 317.698 Q2064.86 315.36 2066.92 314.202 Q2069.01 313.045 2071.72 313.045 Q2076.18 313.045 2078.48 315.823 Q2080.77 318.577 2080.77 323.948 Z" fill="#000000" fill-rule="nonzero" fill-opacity="1" /><path clip-path="url(#clip450)" d="M2106.32 317.605 L2106.32 303.577 L2110.58 303.577 L2110.58 339.596 L2106.32 339.596 L2106.32 335.707 Q2104.98 338.022 2102.92 339.156 Q2100.88 340.267 2098.01 340.267 Q2093.31 340.267 2090.35 336.517 Q2087.41 332.767 2087.41 326.656 Q2087.41 320.545 2090.35 316.795 Q2093.31 313.045 2098.01 313.045 Q2100.88 313.045 2102.92 314.179 Q2104.98 315.29 2106.32 317.605 M2091.81 326.656 Q2091.81 331.355 2093.73 334.04 Q2095.67 336.702 2099.05 336.702 Q2102.43 336.702 2104.38 334.04 Q2106.32 331.355 2106.32 326.656 Q2106.32 321.957 2104.38 319.295 Q2102.43 316.61 2099.05 316.61 Q2095.67 316.61 2093.73 319.295 Q2091.81 321.957 2091.81 326.656 Z" fill="#000000" fill-rule="nonzero" fill-opacity="1" /><path clip-path="url(#clip450)" d="M2134.38 317.651 Q2133.66 317.235 2132.8 317.05 Q2131.97 316.841 2130.95 316.841 Q2127.34 316.841 2125.4 319.202 Q2123.48 321.54 2123.48 325.938 L2123.48 339.596 L2119.19 339.596 L2119.19 313.67 L2123.48 313.67 L2123.48 317.698 Q2124.82 315.337 2126.97 314.202 Q2129.12 313.045 2132.2 313.045 Q2132.64 313.045 2133.17 313.114 Q2133.71 313.161 2134.36 313.276 L2134.38 317.651 Z" fill="#000000" fill-rule="nonzero" fill-opacity="1" /><path clip-path="url(#clip450)" d="M2159.98 325.568 L2159.98 327.651 L2140.4 327.651 Q2140.67 332.049 2143.04 334.364 Q2145.42 336.656 2149.66 336.656 Q2152.11 336.656 2154.4 336.054 Q2156.72 335.452 2158.98 334.249 L2158.98 338.276 Q2156.69 339.248 2154.29 339.758 Q2151.88 340.267 2149.4 340.267 Q2143.2 340.267 2139.56 336.656 Q2135.95 333.045 2135.95 326.887 Q2135.95 320.522 2139.38 316.795 Q2142.83 313.045 2148.66 313.045 Q2153.89 313.045 2156.92 316.425 Q2159.98 319.781 2159.98 325.568 M2155.72 324.318 Q2155.67 320.823 2153.75 318.739 Q2151.85 316.656 2148.71 316.656 Q2145.14 316.656 2142.99 318.67 Q2140.86 320.684 2140.54 324.341 L2155.72 324.318 Z" fill="#000000" fill-rule="nonzero" fill-opacity="1" /><path clip-path="url(#clip450)" d="M2166.97 313.67 L2171.23 313.67 L2171.23 339.596 L2166.97 339.596 L2166.97 313.67 M2166.97 303.577 L2171.23 303.577 L2171.23 308.971 L2166.97 308.971 L2166.97 303.577 Z" fill="#000000" fill-rule="nonzero" fill-opacity="1" /><polyline clip-path="url(#clip450)" style="stroke:#c271d2; stroke-linecap:round; stroke-linejoin:round; stroke-width:4; stroke-opacity:1; fill:none" points="1771.97,374.156 1912.53,374.156 "/>
<path clip-path="url(#clip450)" d="M1935.95 356.876 L1940.63 356.876 L1940.63 387.501 L1957.46 387.501 L1957.46 391.436 L1935.95 391.436 L1935.95 356.876 Z" fill="#000000" fill-rule="nonzero" fill-opacity="1" /><path clip-path="url(#clip450)" d="M1962.37 356.876 L1969.33 356.876 L1978.15 380.394 L1987.02 356.876 L1993.99 356.876 L1993.99 391.436 L1989.43 391.436 L1989.43 361.089 L1980.51 384.792 L1975.81 384.792 L1966.9 361.089 L1966.9 391.436 L1962.37 391.436 L1962.37 356.876 Z" fill="#000000" fill-rule="nonzero" fill-opacity="1" /><path clip-path="url(#clip450)" d="M2022.78 399.306 L2022.78 402.616 L1998.15 402.616 L1998.15 399.306 L2022.78 399.306 Z" fill="#000000" fill-rule="nonzero" fill-opacity="1" /><path clip-path="url(#clip450)" d="M2047.69 358.01 L2047.69 362.57 Q2045.03 361.297 2042.67 360.672 Q2040.3 360.047 2038.11 360.047 Q2034.29 360.047 2032.2 361.528 Q2030.14 363.01 2030.14 365.741 Q2030.14 368.033 2031.51 369.214 Q2032.9 370.371 2036.74 371.089 L2039.56 371.667 Q2044.8 372.663 2047.27 375.186 Q2049.77 377.686 2049.77 381.899 Q2049.77 386.922 2046.39 389.514 Q2043.04 392.107 2036.53 392.107 Q2034.08 392.107 2031.3 391.551 Q2028.55 390.996 2025.58 389.908 L2025.58 385.093 Q2028.43 386.69 2031.16 387.501 Q2033.89 388.311 2036.53 388.311 Q2040.54 388.311 2042.71 386.737 Q2044.89 385.163 2044.89 382.246 Q2044.89 379.7 2043.31 378.264 Q2041.76 376.829 2038.2 376.112 L2035.35 375.556 Q2030.12 374.515 2027.78 372.292 Q2025.44 370.07 2025.44 366.112 Q2025.44 361.528 2028.66 358.89 Q2031.9 356.251 2037.57 356.251 Q2040 356.251 2042.53 356.691 Q2045.05 357.13 2047.69 358.01 Z" fill="#000000" fill-rule="nonzero" fill-opacity="1" /><path clip-path="url(#clip450)" d="M2061.74 360.718 L2061.74 373.704 L2067.62 373.704 Q2070.88 373.704 2072.67 372.015 Q2074.45 370.325 2074.45 367.2 Q2074.45 364.098 2072.67 362.408 Q2070.88 360.718 2067.62 360.718 L2061.74 360.718 M2057.06 356.876 L2067.62 356.876 Q2073.43 356.876 2076.39 359.515 Q2079.38 362.13 2079.38 367.2 Q2079.38 372.315 2076.39 374.931 Q2073.43 377.547 2067.62 377.547 L2061.74 377.547 L2061.74 391.436 L2057.06 391.436 L2057.06 356.876 Z" fill="#000000" fill-rule="nonzero" fill-opacity="1" /><path clip-path="url(#clip450)" d="M2109.22 386.505 L2109.22 377.223 L2101.58 377.223 L2101.58 373.38 L2113.85 373.38 L2113.85 388.218 Q2111.14 390.139 2107.87 391.135 Q2104.61 392.107 2100.91 392.107 Q2092.8 392.107 2088.22 387.385 Q2083.66 382.639 2083.66 374.19 Q2083.66 365.718 2088.22 360.996 Q2092.8 356.251 2100.91 356.251 Q2104.29 356.251 2107.32 357.084 Q2110.37 357.917 2112.94 359.538 L2112.94 364.515 Q2110.35 362.316 2107.43 361.204 Q2104.52 360.093 2101.3 360.093 Q2094.96 360.093 2091.76 363.635 Q2088.59 367.177 2088.59 374.19 Q2088.59 381.181 2091.76 384.723 Q2094.96 388.264 2101.3 388.264 Q2103.78 388.264 2105.72 387.848 Q2107.67 387.408 2109.22 386.505 Z" fill="#000000" fill-rule="nonzero" fill-opacity="1" /><path clip-path="url(#clip450)" d="M2141.9 399.306 L2141.9 402.616 L2117.27 402.616 L2117.27 399.306 L2141.9 399.306 Z" fill="#000000" fill-rule="nonzero" fill-opacity="1" /><path clip-path="url(#clip450)" d="M2157.69 378.403 Q2152.53 378.403 2150.54 379.584 Q2148.54 380.764 2148.54 383.612 Q2148.54 385.88 2150.03 387.223 Q2151.53 388.542 2154.1 388.542 Q2157.64 388.542 2159.77 386.042 Q2161.92 383.519 2161.92 379.352 L2161.92 378.403 L2157.69 378.403 M2166.18 376.644 L2166.18 391.436 L2161.92 391.436 L2161.92 387.501 Q2160.47 389.862 2158.29 390.996 Q2156.11 392.107 2152.97 392.107 Q2148.98 392.107 2146.62 389.885 Q2144.29 387.639 2144.29 383.889 Q2144.29 379.514 2147.2 377.292 Q2150.14 375.07 2155.95 375.07 L2161.92 375.07 L2161.92 374.653 Q2161.92 371.714 2159.98 370.116 Q2158.06 368.496 2154.56 368.496 Q2152.34 368.496 2150.23 369.028 Q2148.13 369.561 2146.18 370.626 L2146.18 366.69 Q2148.52 365.788 2150.72 365.348 Q2152.92 364.885 2155 364.885 Q2160.63 364.885 2163.41 367.802 Q2166.18 370.718 2166.18 376.644 Z" fill="#000000" fill-rule="nonzero" fill-opacity="1" /><path clip-path="url(#clip450)" d="M2174.96 355.417 L2179.22 355.417 L2179.22 391.436 L2174.96 391.436 L2174.96 355.417 Z" fill="#000000" fill-rule="nonzero" fill-opacity="1" /><path clip-path="url(#clip450)" d="M2192.34 358.149 L2192.34 365.51 L2201.11 365.51 L2201.11 368.82 L2192.34 368.82 L2192.34 382.894 Q2192.34 386.065 2193.2 386.968 Q2194.08 387.871 2196.74 387.871 L2201.11 387.871 L2201.11 391.436 L2196.74 391.436 Q2191.81 391.436 2189.93 389.607 Q2188.06 387.755 2188.06 382.894 L2188.06 368.82 L2184.93 368.82 L2184.93 365.51 L2188.06 365.51 L2188.06 358.149 L2192.34 358.149 Z" fill="#000000" fill-rule="nonzero" fill-opacity="1" /><polyline clip-path="url(#clip450)" style="stroke:#ac8d18; stroke-linecap:round; stroke-linejoin:round; stroke-width:4; stroke-opacity:1; fill:none" points="1771.97,425.996 1912.53,425.996 "/>
<path clip-path="url(#clip450)" d="M1935.95 408.716 L1940.63 408.716 L1940.63 439.341 L1957.46 439.341 L1957.46 443.276 L1935.95 443.276 L1935.95 408.716 Z" fill="#000000" fill-rule="nonzero" fill-opacity="1" /><path clip-path="url(#clip450)" d="M1962.37 408.716 L1969.33 408.716 L1978.15 432.234 L1987.02 408.716 L1993.99 408.716 L1993.99 443.276 L1989.43 443.276 L1989.43 412.929 L1980.51 436.632 L1975.81 436.632 L1966.9 412.929 L1966.9 443.276 L1962.37 443.276 L1962.37 408.716 Z" fill="#000000" fill-rule="nonzero" fill-opacity="1" /></svg>
