<?xml version="1.0" encoding="utf-8"?>
<svg xmlns="http://www.w3.org/2000/svg" xmlns:xlink="http://www.w3.org/1999/xlink" width="600" height="400" viewBox="0 0 2400 1600">
<defs>
  <clipPath id="clip650">
    <rect x="0" y="0" width="2400" height="1600"/>
  </clipPath>
</defs>
<path clip-path="url(#clip650)" d="M0 1600 L2400 1600 L2400 0 L0 0  Z" fill="#ffffff" fill-rule="evenodd" fill-opacity="1"/>
<defs>
  <clipPath id="clip651">
    <rect x="480" y="0" width="1681" height="1600"/>
  </clipPath>
</defs>
<path clip-path="url(#clip650)" d="M276.876 1423.18 L2352.76 1423.18 L2352.76 123.472 L276.876 123.472  Z" fill="#ffffff" fill-rule="evenodd" fill-opacity="1"/>
<defs>
  <clipPath id="clip652">
    <rect x="276" y="123" width="2077" height="1301"/>
  </clipPath>
</defs>
<polyline clip-path="url(#clip652)" style="stroke:#000000; stroke-linecap:round; stroke-linejoin:round; stroke-width:2; stroke-opacity:0.1; fill:none" points="580.424,1423.18 580.424,123.472 "/>
<polyline clip-path="url(#clip652)" style="stroke:#000000; stroke-linecap:round; stroke-linejoin:round; stroke-width:2; stroke-opacity:0.1; fill:none" points="1070.02,1423.18 1070.02,123.472 "/>
<polyline clip-path="url(#clip652)" style="stroke:#000000; stroke-linecap:round; stroke-linejoin:round; stroke-width:2; stroke-opacity:0.1; fill:none" points="1559.61,1423.18 1559.61,123.472 "/>
<polyline clip-path="url(#clip652)" style="stroke:#000000; stroke-linecap:round; stroke-linejoin:round; stroke-width:2; stroke-opacity:0.1; fill:none" points="2049.21,1423.18 2049.21,123.472 "/>
<polyline clip-path="url(#clip650)" style="stroke:#000000; stroke-linecap:round; stroke-linejoin:round; stroke-width:4; stroke-opacity:1; fill:none" points="276.876,1423.18 2352.76,1423.18 "/>
<polyline clip-path="url(#clip650)" style="stroke:#000000; stroke-linecap:round; stroke-linejoin:round; stroke-width:4; stroke-opacity:1; fill:none" points="580.424,1423.18 580.424,1404.28 "/>
<polyline clip-path="url(#clip650)" style="stroke:#000000; stroke-linecap:round; stroke-linejoin:round; stroke-width:4; stroke-opacity:1; fill:none" points="1070.02,1423.18 1070.02,1404.28 "/>
<polyline clip-path="url(#clip650)" style="stroke:#000000; stroke-linecap:round; stroke-linejoin:round; stroke-width:4; stroke-opacity:1; fill:none" points="1559.61,1423.18 1559.61,1404.28 "/>
<polyline clip-path="url(#clip650)" style="stroke:#000000; stroke-linecap:round; stroke-linejoin:round; stroke-width:4; stroke-opacity:1; fill:none" points="2049.21,1423.18 2049.21,1404.28 "/>
<path clip-path="url(#clip650)" d="M575.077 1481.64 L591.396 1481.64 L591.396 1485.58 L569.452 1485.58 L569.452 1481.64 Q572.114 1478.89 576.697 1474.26 Q581.304 1469.61 582.484 1468.27 Q584.73 1465.74 585.609 1464.01 Q586.512 1462.25 586.512 1460.56 Q586.512 1457.8 584.568 1456.07 Q582.646 1454.33 579.544 1454.33 Q577.345 1454.33 574.892 1455.09 Q572.461 1455.86 569.683 1457.41 L569.683 1452.69 Q572.507 1451.55 574.961 1450.97 Q577.415 1450.39 579.452 1450.39 Q584.822 1450.39 588.017 1453.08 Q591.211 1455.77 591.211 1460.26 Q591.211 1462.39 590.401 1464.31 Q589.614 1466.2 587.507 1468.8 Q586.929 1469.47 583.827 1472.69 Q580.725 1475.88 575.077 1481.64 Z" fill="#000000" fill-rule="nonzero" fill-opacity="1" /><path clip-path="url(#clip650)" d="M1073.03 1455.09 L1061.22 1473.54 L1073.03 1473.54 L1073.03 1455.09 M1071.8 1451.02 L1077.68 1451.02 L1077.68 1473.54 L1082.61 1473.54 L1082.61 1477.43 L1077.68 1477.43 L1077.68 1485.58 L1073.03 1485.58 L1073.03 1477.43 L1057.43 1477.43 L1057.43 1472.92 L1071.8 1451.02 Z" fill="#000000" fill-rule="nonzero" fill-opacity="1" /><path clip-path="url(#clip650)" d="M1560.02 1466.44 Q1556.87 1466.44 1555.02 1468.59 Q1553.19 1470.74 1553.19 1474.49 Q1553.19 1478.22 1555.02 1480.39 Q1556.87 1482.55 1560.02 1482.55 Q1563.17 1482.55 1564.99 1480.39 Q1566.85 1478.22 1566.85 1474.49 Q1566.85 1470.74 1564.99 1468.59 Q1563.17 1466.44 1560.02 1466.44 M1569.3 1451.78 L1569.3 1456.04 Q1567.54 1455.21 1565.74 1454.77 Q1563.95 1454.33 1562.19 1454.33 Q1557.56 1454.33 1555.11 1457.45 Q1552.68 1460.58 1552.33 1466.9 Q1553.7 1464.89 1555.76 1463.82 Q1557.82 1462.73 1560.3 1462.73 Q1565.5 1462.73 1568.51 1465.9 Q1571.55 1469.05 1571.55 1474.49 Q1571.55 1479.82 1568.4 1483.03 Q1565.25 1486.25 1560.02 1486.25 Q1554.02 1486.25 1550.85 1481.67 Q1547.68 1477.06 1547.68 1468.33 Q1547.68 1460.14 1551.57 1455.28 Q1555.46 1450.39 1562.01 1450.39 Q1563.77 1450.39 1565.55 1450.74 Q1567.36 1451.09 1569.3 1451.78 Z" fill="#000000" fill-rule="nonzero" fill-opacity="1" /><path clip-path="url(#clip650)" d="M2049.21 1469.17 Q2045.87 1469.17 2043.95 1470.95 Q2042.05 1472.73 2042.05 1475.86 Q2042.05 1478.98 2043.95 1480.77 Q2045.87 1482.55 2049.21 1482.55 Q2052.54 1482.55 2054.46 1480.77 Q2056.38 1478.96 2056.38 1475.86 Q2056.38 1472.73 2054.46 1470.95 Q2052.56 1469.17 2049.21 1469.17 M2044.53 1467.18 Q2041.52 1466.44 2039.83 1464.38 Q2038.17 1462.32 2038.17 1459.35 Q2038.17 1455.21 2041.11 1452.8 Q2044.07 1450.39 2049.21 1450.39 Q2054.37 1450.39 2057.31 1452.8 Q2060.25 1455.21 2060.25 1459.35 Q2060.25 1462.32 2058.56 1464.38 Q2056.89 1466.44 2053.91 1467.18 Q2057.29 1467.96 2059.16 1470.26 Q2061.06 1472.55 2061.06 1475.86 Q2061.06 1480.88 2057.98 1483.57 Q2054.92 1486.25 2049.21 1486.25 Q2043.49 1486.25 2040.41 1483.57 Q2037.36 1480.88 2037.36 1475.86 Q2037.36 1472.55 2039.25 1470.26 Q2041.15 1467.96 2044.53 1467.18 M2042.82 1459.79 Q2042.82 1462.48 2044.49 1463.98 Q2046.17 1465.49 2049.21 1465.49 Q2052.22 1465.49 2053.91 1463.98 Q2055.62 1462.48 2055.62 1459.79 Q2055.62 1457.11 2053.91 1455.6 Q2052.22 1454.1 2049.21 1454.1 Q2046.17 1454.1 2044.49 1455.6 Q2042.82 1457.11 2042.82 1459.79 Z" fill="#000000" fill-rule="nonzero" fill-opacity="1" /><path clip-path="url(#clip650)" d="M1299 1518.52 L1304.89 1518.52 L1304.89 1547.77 L1322.36 1532.4 L1329.84 1532.4 L1310.93 1549.07 L1330.63 1568.04 L1323 1568.04 L1304.89 1550.63 L1304.89 1568.04 L1299 1568.04 L1299 1518.52 Z" fill="#000000" fill-rule="nonzero" fill-opacity="1" /><polyline clip-path="url(#clip652)" style="stroke:#000000; stroke-linecap:round; stroke-linejoin:round; stroke-width:2; stroke-opacity:0.1; fill:none" points="276.876,1349.71 2352.76,1349.71 "/>
<polyline clip-path="url(#clip652)" style="stroke:#000000; stroke-linecap:round; stroke-linejoin:round; stroke-width:2; stroke-opacity:0.1; fill:none" points="276.876,760.983 2352.76,760.983 "/>
<polyline clip-path="url(#clip652)" style="stroke:#000000; stroke-linecap:round; stroke-linejoin:round; stroke-width:2; stroke-opacity:0.1; fill:none" points="276.876,172.255 2352.76,172.255 "/>
<polyline clip-path="url(#clip650)" style="stroke:#000000; stroke-linecap:round; stroke-linejoin:round; stroke-width:4; stroke-opacity:1; fill:none" points="276.876,1423.18 276.876,123.472 "/>
<polyline clip-path="url(#clip650)" style="stroke:#000000; stroke-linecap:round; stroke-linejoin:round; stroke-width:4; stroke-opacity:1; fill:none" points="276.876,1349.71 295.773,1349.71 "/>
<polyline clip-path="url(#clip650)" style="stroke:#000000; stroke-linecap:round; stroke-linejoin:round; stroke-width:4; stroke-opacity:1; fill:none" points="276.876,760.983 295.773,760.983 "/>
<polyline clip-path="url(#clip650)" style="stroke:#000000; stroke-linecap:round; stroke-linejoin:round; stroke-width:4; stroke-opacity:1; fill:none" points="276.876,172.255 295.773,172.255 "/>
<path clip-path="url(#clip650)" d="M114.931 1369.5 L122.57 1369.5 L122.57 1343.14 L114.26 1344.8 L114.26 1340.54 L122.524 1338.88 L127.2 1338.88 L127.2 1369.5 L134.839 1369.5 L134.839 1373.44 L114.931 1373.44 L114.931 1369.5 Z" fill="#000000" fill-rule="nonzero" fill-opacity="1" /><path clip-path="url(#clip650)" d="M154.283 1341.96 Q150.672 1341.96 148.843 1345.52 Q147.038 1349.06 147.038 1356.19 Q147.038 1363.3 148.843 1366.86 Q150.672 1370.41 154.283 1370.41 Q157.917 1370.41 159.723 1366.86 Q161.552 1363.3 161.552 1356.19 Q161.552 1349.06 159.723 1345.52 Q157.917 1341.96 154.283 1341.96 M154.283 1338.25 Q160.093 1338.25 163.149 1342.86 Q166.227 1347.44 166.227 1356.19 Q166.227 1364.92 163.149 1369.53 Q160.093 1374.11 154.283 1374.11 Q148.473 1374.11 145.394 1369.53 Q142.339 1364.92 142.339 1356.19 Q142.339 1347.44 145.394 1342.86 Q148.473 1338.25 154.283 1338.25 Z" fill="#000000" fill-rule="nonzero" fill-opacity="1" /><path clip-path="url(#clip650)" d="M166.227 1332.35 L190.339 1332.35 L190.339 1335.55 L166.227 1335.55 L166.227 1332.35 Z" fill="#000000" fill-rule="nonzero" fill-opacity="1" /><path clip-path="url(#clip650)" d="M199.197 1342.83 L205.404 1342.83 L205.404 1321.41 L198.652 1322.76 L198.652 1319.3 L205.366 1317.95 L209.166 1317.95 L209.166 1342.83 L215.372 1342.83 L215.372 1346.03 L199.197 1346.03 L199.197 1342.83 Z" fill="#000000" fill-rule="nonzero" fill-opacity="1" /><path clip-path="url(#clip650)" d="M231.171 1320.45 Q228.237 1320.45 226.751 1323.35 Q225.284 1326.22 225.284 1332.02 Q225.284 1337.79 226.751 1340.69 Q228.237 1343.56 231.171 1343.56 Q234.124 1343.56 235.591 1340.69 Q237.076 1337.79 237.076 1332.02 Q237.076 1326.22 235.591 1323.35 Q234.124 1320.45 231.171 1320.45 M231.171 1317.44 Q235.891 1317.44 238.374 1321.18 Q240.876 1324.91 240.876 1332.02 Q240.876 1339.11 238.374 1342.85 Q235.891 1346.57 231.171 1346.57 Q226.45 1346.57 223.949 1342.85 Q221.466 1339.11 221.466 1332.02 Q221.466 1324.91 223.949 1321.18 Q226.45 1317.44 231.171 1317.44 Z" fill="#000000" fill-rule="nonzero" fill-opacity="1" /><path clip-path="url(#clip650)" d="M140.247 780.775 L147.886 780.775 L147.886 754.41 L139.575 756.076 L139.575 751.817 L147.839 750.15 L152.515 750.15 L152.515 780.775 L160.154 780.775 L160.154 784.71 L140.247 784.71 L140.247 780.775 Z" fill="#000000" fill-rule="nonzero" fill-opacity="1" /><path clip-path="url(#clip650)" d="M179.598 753.229 Q175.987 753.229 174.159 756.794 Q172.353 760.336 172.353 767.465 Q172.353 774.572 174.159 778.136 Q175.987 781.678 179.598 781.678 Q183.233 781.678 185.038 778.136 Q186.867 774.572 186.867 767.465 Q186.867 760.336 185.038 756.794 Q183.233 753.229 179.598 753.229 M179.598 749.525 Q185.409 749.525 188.464 754.132 Q191.543 758.715 191.543 767.465 Q191.543 776.192 188.464 780.798 Q185.409 785.382 179.598 785.382 Q173.788 785.382 170.71 780.798 Q167.654 776.192 167.654 767.465 Q167.654 758.715 170.71 754.132 Q173.788 749.525 179.598 749.525 Z" fill="#000000" fill-rule="nonzero" fill-opacity="1" /><path clip-path="url(#clip650)" d="M191.543 743.627 L215.654 743.627 L215.654 746.824 L191.543 746.824 L191.543 743.627 Z" fill="#000000" fill-rule="nonzero" fill-opacity="1" /><path clip-path="url(#clip650)" d="M223.892 729.22 L238.807 729.22 L238.807 732.417 L227.372 732.417 L227.372 739.301 Q228.199 739.019 229.027 738.887 Q229.854 738.737 230.682 738.737 Q235.384 738.737 238.13 741.313 Q240.876 743.89 240.876 748.291 Q240.876 752.824 238.054 755.344 Q235.233 757.845 230.099 757.845 Q228.331 757.845 226.488 757.545 Q224.663 757.244 222.707 756.642 L222.707 752.824 Q224.4 753.745 226.205 754.197 Q228.011 754.648 230.023 754.648 Q233.277 754.648 235.177 752.937 Q237.076 751.225 237.076 748.291 Q237.076 745.357 235.177 743.646 Q233.277 741.934 230.023 741.934 Q228.5 741.934 226.977 742.273 Q225.472 742.611 223.892 743.326 L223.892 729.22 Z" fill="#000000" fill-rule="nonzero" fill-opacity="1" /><path clip-path="url(#clip650)" d="M170.17 192.047 L177.809 192.047 L177.809 165.682 L169.499 167.348 L169.499 163.089 L177.762 161.423 L182.438 161.423 L182.438 192.047 L190.077 192.047 L190.077 195.983 L170.17 195.983 L170.17 192.047 Z" fill="#000000" fill-rule="nonzero" fill-opacity="1" /><path clip-path="url(#clip650)" d="M209.522 164.501 Q205.91 164.501 204.082 168.066 Q202.276 171.608 202.276 178.737 Q202.276 185.844 204.082 189.409 Q205.91 192.95 209.522 192.95 Q213.156 192.95 214.961 189.409 Q216.79 185.844 216.79 178.737 Q216.79 171.608 214.961 168.066 Q213.156 164.501 209.522 164.501 M209.522 160.798 Q215.332 160.798 218.387 165.404 Q221.466 169.987 221.466 178.737 Q221.466 187.464 218.387 192.071 Q215.332 196.654 209.522 196.654 Q203.711 196.654 200.633 192.071 Q197.577 187.464 197.577 178.737 Q197.577 169.987 200.633 165.404 Q203.711 160.798 209.522 160.798 Z" fill="#000000" fill-rule="nonzero" fill-opacity="1" /><path clip-path="url(#clip650)" d="M231.171 142.994 Q228.237 142.994 226.751 145.89 Q225.284 148.768 225.284 154.56 Q225.284 160.334 226.751 163.231 Q228.237 166.108 231.171 166.108 Q234.124 166.108 235.591 163.231 Q237.076 160.334 237.076 154.56 Q237.076 148.768 235.591 145.89 Q234.124 142.994 231.171 142.994 M231.171 139.984 Q235.891 139.984 238.374 143.727 Q240.876 147.451 240.876 154.56 Q240.876 161.651 238.374 165.394 Q235.891 169.118 231.171 169.118 Q226.45 169.118 223.949 165.394 Q221.466 161.651 221.466 154.56 Q221.466 147.451 223.949 143.727 Q226.45 139.984 231.171 139.984 Z" fill="#000000" fill-rule="nonzero" fill-opacity="1" /><path clip-path="url(#clip650)" d="M32.4621 801.797 Q32.4621 806.507 36.1542 809.244 Q39.8145 811.982 46.212 811.982 Q52.6095 811.982 56.3017 809.276 Q59.9619 806.539 59.9619 801.797 Q59.9619 797.118 56.2698 794.381 Q52.5777 791.643 46.212 791.643 Q39.8781 791.643 36.186 794.381 Q32.4621 797.118 32.4621 801.797 M27.4968 801.797 Q27.4968 794.158 32.4621 789.797 Q37.4273 785.437 46.212 785.437 Q54.9649 785.437 59.9619 789.797 Q64.9272 794.158 64.9272 801.797 Q64.9272 809.467 59.9619 813.828 Q54.9649 818.156 46.212 818.156 Q37.4273 818.156 32.4621 813.828 Q27.4968 809.467 27.4968 801.797 Z" fill="#000000" fill-rule="nonzero" fill-opacity="1" /><path clip-path="url(#clip650)" d="M46.212 750.139 Q39.7508 750.139 36.0905 752.812 Q32.3984 755.454 32.3984 760.101 Q32.3984 764.748 36.0905 767.422 Q39.7508 770.064 46.212 770.064 Q52.6732 770.064 56.3653 767.422 Q60.0256 764.748 60.0256 760.101 Q60.0256 755.454 56.3653 752.812 Q52.6732 750.139 46.212 750.139 M33.7671 770.064 Q30.5842 768.218 29.0564 765.417 Q27.4968 762.584 27.4968 758.669 Q27.4968 752.176 32.6531 748.134 Q37.8093 744.06 46.212 744.06 Q54.6147 744.06 59.771 748.134 Q64.9272 752.176 64.9272 758.669 Q64.9272 762.584 63.3994 765.417 Q61.8398 768.218 58.657 770.064 L64.0042 770.064 L64.0042 775.952 L14.479 775.952 L14.479 770.064 L33.7671 770.064 Z" fill="#000000" fill-rule="nonzero" fill-opacity="1" /><path clip-path="url(#clip650)" d="M28.3562 734.352 L28.3562 728.495 L64.6407 728.495 Q71.452 728.495 74.5076 731.105 Q77.5631 733.684 77.5631 739.445 L77.5631 741.673 L72.5979 741.673 L72.5979 740.113 Q72.5979 736.771 71.0383 735.561 Q69.5105 734.352 64.6407 734.352 L28.3562 734.352 M14.479 734.352 L14.479 728.495 L21.895 728.495 L21.895 734.352 L14.479 734.352 Z" fill="#000000" fill-rule="nonzero" fill-opacity="1" /><path clip-path="url(#clip650)" d="M969.132 65.7705 L969.132 89.8329 L961.638 89.8329 L961.638 27.2059 L969.132 27.2059 L969.132 34.0924 Q971.481 30.0415 975.046 28.0971 Q978.651 26.1121 983.634 26.1121 Q991.898 26.1121 997.043 32.6746 Q1002.23 39.2371 1002.23 49.9314 Q1002.23 60.6258 997.043 67.1883 Q991.898 73.7508 983.634 73.7508 Q978.651 73.7508 975.046 71.8063 Q971.481 69.8214 969.132 65.7705 M994.49 49.9314 Q994.49 41.7081 991.088 37.0496 Q987.725 32.3505 981.811 32.3505 Q975.897 32.3505 972.494 37.0496 Q969.132 41.7081 969.132 49.9314 Q969.132 58.1548 972.494 62.8538 Q975.897 67.5124 981.811 67.5124 Q987.725 67.5124 991.088 62.8538 Q994.49 58.1548 994.49 49.9314 Z" fill="#000000" fill-rule="nonzero" fill-opacity="1" /><path clip-path="url(#clip650)" d="M1040.87 34.1734 Q1039.62 33.4443 1038.12 33.1202 Q1036.66 32.7556 1034.88 32.7556 Q1028.56 32.7556 1025.16 36.8875 Q1021.79 40.9789 1021.79 48.6757 L1021.79 72.576 L1014.3 72.576 L1014.3 27.2059 L1021.79 27.2059 L1021.79 34.2544 Q1024.14 30.1225 1027.91 28.1376 Q1031.68 26.1121 1037.07 26.1121 Q1037.84 26.1121 1038.77 26.2337 Q1039.7 26.3147 1040.83 26.5172 L1040.87 34.1734 Z" fill="#000000" fill-rule="nonzero" fill-opacity="1" /><path clip-path="url(#clip650)" d="M1064.45 32.4315 Q1058.45 32.4315 1054.97 37.1306 Q1051.49 41.7891 1051.49 49.9314 Q1051.49 58.0738 1054.93 62.7728 Q1058.41 67.4314 1064.45 67.4314 Q1070.4 67.4314 1073.89 62.7323 Q1077.37 58.0333 1077.37 49.9314 Q1077.37 41.8701 1073.89 37.1711 Q1070.4 32.4315 1064.45 32.4315 M1064.45 26.1121 Q1074.17 26.1121 1079.72 32.4315 Q1085.27 38.7509 1085.27 49.9314 Q1085.27 61.0714 1079.72 67.4314 Q1074.17 73.7508 1064.45 73.7508 Q1054.69 73.7508 1049.14 67.4314 Q1043.63 61.0714 1043.63 49.9314 Q1043.63 38.7509 1049.14 32.4315 Q1054.69 26.1121 1064.45 26.1121 Z" fill="#000000" fill-rule="nonzero" fill-opacity="1" /><path clip-path="url(#clip650)" d="M1130.2 49.9314 Q1130.2 41.7081 1126.79 37.0496 Q1123.43 32.3505 1117.52 32.3505 Q1111.6 32.3505 1108.2 37.0496 Q1104.84 41.7081 1104.84 49.9314 Q1104.84 58.1548 1108.2 62.8538 Q1111.6 67.5124 1117.52 67.5124 Q1123.43 67.5124 1126.79 62.8538 Q1130.2 58.1548 1130.2 49.9314 M1104.84 34.0924 Q1107.19 30.0415 1110.75 28.0971 Q1114.36 26.1121 1119.34 26.1121 Q1127.6 26.1121 1132.75 32.6746 Q1137.93 39.2371 1137.93 49.9314 Q1137.93 60.6258 1132.75 67.1883 Q1127.6 73.7508 1119.34 73.7508 Q1114.36 73.7508 1110.75 71.8063 Q1107.19 69.8214 1104.84 65.7705 L1104.84 72.576 L1097.34 72.576 L1097.34 9.54393 L1104.84 9.54393 L1104.84 34.0924 Z" fill="#000000" fill-rule="nonzero" fill-opacity="1" /><path clip-path="url(#clip650)" d="M1150.29 9.54393 L1157.74 9.54393 L1157.74 72.576 L1150.29 72.576 L1150.29 9.54393 Z" fill="#000000" fill-rule="nonzero" fill-opacity="1" /><path clip-path="url(#clip650)" d="M1212.15 48.0275 L1212.15 51.6733 L1177.87 51.6733 Q1178.36 59.3701 1182.49 63.421 Q1186.67 67.4314 1194.08 67.4314 Q1198.37 67.4314 1202.38 66.3781 Q1206.43 65.3249 1210.4 63.2184 L1210.4 70.267 Q1206.39 71.9684 1202.18 72.8596 Q1197.97 73.7508 1193.63 73.7508 Q1182.78 73.7508 1176.42 67.4314 Q1170.1 61.1119 1170.1 50.3365 Q1170.1 39.1965 1176.09 32.6746 Q1182.13 26.1121 1192.34 26.1121 Q1201.49 26.1121 1206.8 32.0264 Q1212.15 37.9003 1212.15 48.0275 M1204.69 45.84 Q1204.61 39.7232 1201.25 36.0774 Q1197.93 32.4315 1192.42 32.4315 Q1186.18 32.4315 1182.41 35.9558 Q1178.69 39.4801 1178.12 45.8805 L1204.69 45.84 M1186.02 6.22219 L1197.44 21.3726 L1191.24 21.3726 L1178.04 6.22219 L1186.02 6.22219 Z" fill="#000000" fill-rule="nonzero" fill-opacity="1" /><path clip-path="url(#clip650)" d="M1259.7 35.9153 Q1262.5 30.8922 1266.39 28.5022 Q1270.28 26.1121 1275.54 26.1121 Q1282.63 26.1121 1286.48 31.0947 Q1290.33 36.0368 1290.33 45.1919 L1290.33 72.576 L1282.83 72.576 L1282.83 45.4349 Q1282.83 38.913 1280.52 35.7533 Q1278.22 32.5936 1273.48 32.5936 Q1267.68 32.5936 1264.32 36.4419 Q1260.96 40.2903 1260.96 46.9338 L1260.96 72.576 L1253.46 72.576 L1253.46 45.4349 Q1253.46 38.8725 1251.16 35.7533 Q1248.85 32.5936 1244.03 32.5936 Q1238.31 32.5936 1234.95 36.4824 Q1231.59 40.3308 1231.59 46.9338 L1231.59 72.576 L1224.1 72.576 L1224.1 27.2059 L1231.59 27.2059 L1231.59 34.2544 Q1234.14 30.082 1237.71 28.0971 Q1241.27 26.1121 1246.17 26.1121 Q1251.12 26.1121 1254.56 28.6237 Q1258.04 31.1352 1259.7 35.9153 Z" fill="#000000" fill-rule="nonzero" fill-opacity="1" /><path clip-path="url(#clip650)" d="M1344 48.0275 L1344 51.6733 L1309.73 51.6733 Q1310.22 59.3701 1314.35 63.421 Q1318.52 67.4314 1325.94 67.4314 Q1330.23 67.4314 1334.24 66.3781 Q1338.29 65.3249 1342.26 63.2184 L1342.26 70.267 Q1338.25 71.9684 1334.04 72.8596 Q1329.82 73.7508 1325.49 73.7508 Q1314.63 73.7508 1308.27 67.4314 Q1301.95 61.1119 1301.95 50.3365 Q1301.95 39.1965 1307.95 32.6746 Q1313.99 26.1121 1324.19 26.1121 Q1333.35 26.1121 1338.66 32.0264 Q1344 37.9003 1344 48.0275 M1336.55 45.84 Q1336.47 39.7232 1333.11 36.0774 Q1329.78 32.4315 1324.27 32.4315 Q1318.04 32.4315 1314.27 35.9558 Q1310.54 39.4801 1309.97 45.8805 L1336.55 45.84 Z" fill="#000000" fill-rule="nonzero" fill-opacity="1" /><path clip-path="url(#clip650)" d="M1384.51 62.2867 L1393.06 62.2867 L1393.06 72.576 L1384.51 72.576 L1384.51 62.2867 M1384.51 29.6769 L1393.06 29.6769 L1393.06 39.9662 L1384.51 39.9662 L1384.51 29.6769 Z" fill="#000000" fill-rule="nonzero" fill-opacity="1" /><path clip-path="url(#clip650)" d="M1444.3 14.324 L1444.3 27.2059 L1459.66 27.2059 L1459.66 32.9987 L1444.3 32.9987 L1444.3 57.6282 Q1444.3 63.1779 1445.8 64.7578 Q1447.34 66.3376 1452 66.3376 L1459.66 66.3376 L1459.66 72.576 L1452 72.576 Q1443.37 72.576 1440.09 69.3758 Q1436.81 66.1351 1436.81 57.6282 L1436.81 32.9987 L1431.34 32.9987 L1431.34 27.2059 L1436.81 27.2059 L1436.81 14.324 L1444.3 14.324 Z" fill="#000000" fill-rule="nonzero" fill-opacity="1" /><path clip-path="url(#clip650)" d="M1476.67 65.7705 L1476.67 89.8329 L1469.18 89.8329 L1469.18 27.2059 L1476.67 27.2059 L1476.67 34.0924 Q1479.02 30.0415 1482.58 28.0971 Q1486.19 26.1121 1491.17 26.1121 Q1499.44 26.1121 1504.58 32.6746 Q1509.77 39.2371 1509.77 49.9314 Q1509.77 60.6258 1504.58 67.1883 Q1499.44 73.7508 1491.17 73.7508 Q1486.19 73.7508 1482.58 71.8063 Q1479.02 69.8214 1476.67 65.7705 M1502.03 49.9314 Q1502.03 41.7081 1498.63 37.0496 Q1495.26 32.3505 1489.35 32.3505 Q1483.43 32.3505 1480.03 37.0496 Q1476.67 41.7081 1476.67 49.9314 Q1476.67 58.1548 1480.03 62.8538 Q1483.43 67.5124 1489.35 67.5124 Q1495.26 67.5124 1498.63 62.8538 Q1502.03 58.1548 1502.03 49.9314 Z" fill="#000000" fill-rule="nonzero" fill-opacity="1" /><path clip-path="url(#clip650)" d="M1530.22 65.6895 L1558.78 65.6895 L1558.78 72.576 L1520.38 72.576 L1520.38 65.6895 Q1525.04 60.8689 1533.06 52.7671 Q1541.12 44.6248 1543.19 42.2752 Q1547.11 37.8598 1548.65 34.8216 Q1550.23 31.7429 1550.23 28.7857 Q1550.23 23.9651 1546.83 20.927 Q1543.47 17.8888 1538.04 17.8888 Q1534.19 17.8888 1529.9 19.2256 Q1525.65 20.5624 1520.78 23.2765 L1520.78 15.0127 Q1525.73 13.0277 1530.02 12.015 Q1534.31 11.0023 1537.88 11.0023 Q1547.28 11.0023 1552.87 15.7013 Q1558.46 20.4004 1558.46 28.2591 Q1558.46 31.9859 1557.04 35.3482 Q1555.66 38.6699 1551.98 43.2069 Q1550.96 44.3817 1545.53 50.0125 Q1540.11 55.6027 1530.22 65.6895 Z" fill="#000000" fill-rule="nonzero" fill-opacity="1" /><path clip-path="url(#clip650)" d="M1598.44 19.2256 L1577.78 51.5113 L1598.44 51.5113 L1598.44 19.2256 M1596.29 12.096 L1606.58 12.096 L1606.58 51.5113 L1615.21 51.5113 L1615.21 58.3168 L1606.58 58.3168 L1606.58 72.576 L1598.44 72.576 L1598.44 58.3168 L1571.14 58.3168 L1571.14 50.4176 L1596.29 12.096 Z" fill="#000000" fill-rule="nonzero" fill-opacity="1" /><path clip-path="url(#clip650)" d="M1651.22 19.2256 L1630.56 51.5113 L1651.22 51.5113 L1651.22 19.2256 M1649.08 12.096 L1659.37 12.096 L1659.37 51.5113 L1667.99 51.5113 L1667.99 58.3168 L1659.37 58.3168 L1659.37 72.576 L1651.22 72.576 L1651.22 58.3168 L1623.92 58.3168 L1623.92 50.4176 L1649.08 12.096 Z" fill="#000000" fill-rule="nonzero" fill-opacity="1" /><polyline clip-path="url(#clip652)" style="stroke:#009af9; stroke-linecap:round; stroke-linejoin:round; stroke-width:4; stroke-opacity:1; fill:none" points="335.627,160.256 580.424,168.818 825.221,174.233 1070.02,178.353 1314.82,195.379 1559.61,289.17 1804.41,453.455 2049.21,770.747 2294,1386.4 "/>
<polyline clip-path="url(#clip652)" style="stroke:#e26f46; stroke-linecap:round; stroke-linejoin:round; stroke-width:4; stroke-opacity:1; fill:none" points="335.627,160.256 580.424,168.818 825.221,174.233 1070.02,178.353 1314.82,195.379 1559.61,289.17 1804.41,453.455 2049.21,770.747 2294,1386.4 "/>
<path clip-path="url(#clip650)" d="M1504.4 322.316 L2283.56 322.316 L2283.56 166.796 L1504.4 166.796  Z" fill="#ffffff" fill-rule="evenodd" fill-opacity="1"/>
<polyline clip-path="url(#clip650)" style="stroke:#000000; stroke-linecap:round; stroke-linejoin:round; stroke-width:4; stroke-opacity:1; fill:none" points="1504.4,322.316 2283.56,322.316 2283.56,166.796 1504.4,166.796 1504.4,322.316 "/>
<polyline clip-path="url(#clip650)" style="stroke:#009af9; stroke-linecap:round; stroke-linejoin:round; stroke-width:4; stroke-opacity:1; fill:none" points="1527.47,218.636 1665.86,218.636 "/>
<path clip-path="url(#clip650)" d="M1688.92 201.356 L1693.6 201.356 L1693.6 231.981 L1710.43 231.981 L1710.43 235.916 L1688.92 235.916 L1688.92 201.356 Z" fill="#000000" fill-rule="nonzero" fill-opacity="1" /><path clip-path="url(#clip650)" d="M1715.34 201.356 L1722.3 201.356 L1731.12 224.874 L1739.99 201.356 L1746.96 201.356 L1746.96 235.916 L1742.4 235.916 L1742.4 205.569 L1733.48 229.272 L1728.78 229.272 L1719.87 205.569 L1719.87 235.916 L1715.34 235.916 L1715.34 201.356 Z" fill="#000000" fill-rule="nonzero" fill-opacity="1" /><path clip-path="url(#clip650)" d="M1775.75 243.786 L1775.75 247.096 L1751.12 247.096 L1751.12 243.786 L1775.75 243.786 Z" fill="#000000" fill-rule="nonzero" fill-opacity="1" /><path clip-path="url(#clip650)" d="M1791.49 205.962 L1785.15 223.161 L1797.86 223.161 L1791.49 205.962 M1788.85 201.356 L1794.15 201.356 L1807.33 235.916 L1802.46 235.916 L1799.32 227.05 L1783.74 227.05 L1780.59 235.916 L1775.66 235.916 L1788.85 201.356 Z" fill="#000000" fill-rule="nonzero" fill-opacity="1" /><path clip-path="url(#clip650)" d="M1833.74 220.268 L1833.74 235.916 L1829.48 235.916 L1829.48 220.407 Q1829.48 216.726 1828.04 214.897 Q1826.61 213.069 1823.74 213.069 Q1820.29 213.069 1818.3 215.268 Q1816.31 217.467 1816.31 221.263 L1816.31 235.916 L1812.02 235.916 L1812.02 209.99 L1816.31 209.99 L1816.31 214.018 Q1817.83 211.68 1819.9 210.522 Q1821.98 209.365 1824.69 209.365 Q1829.15 209.365 1831.45 212.143 Q1833.74 214.897 1833.74 220.268 Z" fill="#000000" fill-rule="nonzero" fill-opacity="1" /><path clip-path="url(#clip650)" d="M1859.29 213.925 L1859.29 199.897 L1863.55 199.897 L1863.55 235.916 L1859.29 235.916 L1859.29 232.027 Q1857.95 234.342 1855.89 235.476 Q1853.85 236.587 1850.98 236.587 Q1846.28 236.587 1843.32 232.837 Q1840.38 229.087 1840.38 222.976 Q1840.38 216.865 1843.32 213.115 Q1846.28 209.365 1850.98 209.365 Q1853.85 209.365 1855.89 210.499 Q1857.95 211.61 1859.29 213.925 M1844.78 222.976 Q1844.78 227.675 1846.7 230.36 Q1848.64 233.022 1852.02 233.022 Q1855.4 233.022 1857.35 230.36 Q1859.29 227.675 1859.29 222.976 Q1859.29 218.277 1857.35 215.615 Q1855.4 212.93 1852.02 212.93 Q1848.64 212.93 1846.7 215.615 Q1844.78 218.277 1844.78 222.976 Z" fill="#000000" fill-rule="nonzero" fill-opacity="1" /><path clip-path="url(#clip650)" d="M1887.35 213.971 Q1886.63 213.555 1885.77 213.37 Q1884.94 213.161 1883.92 213.161 Q1880.31 213.161 1878.37 215.522 Q1876.45 217.86 1876.45 222.258 L1876.45 235.916 L1872.16 235.916 L1872.16 209.99 L1876.45 209.99 L1876.45 214.018 Q1877.79 211.657 1879.94 210.522 Q1882.09 209.365 1885.17 209.365 Q1885.61 209.365 1886.14 209.434 Q1886.68 209.481 1887.33 209.596 L1887.35 213.971 Z" fill="#000000" fill-rule="nonzero" fill-opacity="1" /><path clip-path="url(#clip650)" d="M1912.95 221.888 L1912.95 223.971 L1893.37 223.971 Q1893.64 228.369 1896.01 230.684 Q1898.39 232.976 1902.63 232.976 Q1905.08 232.976 1907.37 232.374 Q1909.69 231.772 1911.95 230.569 L1911.95 234.596 Q1909.66 235.568 1907.26 236.078 Q1904.85 236.587 1902.37 236.587 Q1896.17 236.587 1892.53 232.976 Q1888.92 229.365 1888.92 223.207 Q1888.92 216.842 1892.35 213.115 Q1895.8 209.365 1901.63 209.365 Q1906.86 209.365 1909.89 212.745 Q1912.95 216.101 1912.95 221.888 M1908.69 220.638 Q1908.64 217.143 1906.72 215.059 Q1904.83 212.976 1901.68 212.976 Q1898.11 212.976 1895.96 214.99 Q1893.83 217.004 1893.51 220.661 L1908.69 220.638 Z" fill="#000000" fill-rule="nonzero" fill-opacity="1" /><path clip-path="url(#clip650)" d="M1919.94 209.99 L1924.2 209.99 L1924.2 235.916 L1919.94 235.916 L1919.94 209.99 M1919.94 199.897 L1924.2 199.897 L1924.2 205.291 L1919.94 205.291 L1919.94 199.897 Z" fill="#000000" fill-rule="nonzero" fill-opacity="1" /><path clip-path="url(#clip650)" d="M1952.81 243.786 L1952.81 247.096 L1928.18 247.096 L1928.18 243.786 L1952.81 243.786 Z" fill="#000000" fill-rule="nonzero" fill-opacity="1" /><path clip-path="url(#clip650)" d="M1968.6 222.883 Q1963.44 222.883 1961.45 224.064 Q1959.45 225.244 1959.45 228.092 Q1959.45 230.36 1960.94 231.703 Q1962.44 233.022 1965.01 233.022 Q1968.55 233.022 1970.68 230.522 Q1972.83 227.999 1972.83 223.832 L1972.83 222.883 L1968.6 222.883 M1977.09 221.124 L1977.09 235.916 L1972.83 235.916 L1972.83 231.981 Q1971.38 234.342 1969.2 235.476 Q1967.02 236.587 1963.88 236.587 Q1959.89 236.587 1957.53 234.365 Q1955.2 232.119 1955.2 228.369 Q1955.2 223.994 1958.11 221.772 Q1961.05 219.55 1966.86 219.55 L1972.83 219.55 L1972.83 219.133 Q1972.83 216.194 1970.89 214.596 Q1968.97 212.976 1965.47 212.976 Q1963.25 212.976 1961.14 213.508 Q1959.04 214.041 1957.09 215.106 L1957.09 211.17 Q1959.43 210.268 1961.63 209.828 Q1963.83 209.365 1965.91 209.365 Q1971.54 209.365 1974.32 212.282 Q1977.09 215.198 1977.09 221.124 Z" fill="#000000" fill-rule="nonzero" fill-opacity="1" /><path clip-path="url(#clip650)" d="M1985.87 199.897 L1990.13 199.897 L1990.13 235.916 L1985.87 235.916 L1985.87 199.897 Z" fill="#000000" fill-rule="nonzero" fill-opacity="1" /><path clip-path="url(#clip650)" d="M2003.25 202.629 L2003.25 209.99 L2012.02 209.99 L2012.02 213.3 L2003.25 213.3 L2003.25 227.374 Q2003.25 230.545 2004.11 231.448 Q2004.99 232.351 2007.65 232.351 L2012.02 232.351 L2012.02 235.916 L2007.65 235.916 Q2002.72 235.916 2000.84 234.087 Q1998.97 232.235 1998.97 227.374 L1998.97 213.3 L1995.84 213.3 L1995.84 209.99 L1998.97 209.99 L1998.97 202.629 L2003.25 202.629 Z" fill="#000000" fill-rule="nonzero" fill-opacity="1" /><polyline clip-path="url(#clip650)" style="stroke:#e26f46; stroke-linecap:round; stroke-linejoin:round; stroke-width:4; stroke-opacity:1; fill:none" points="1527.47,270.476 1665.86,270.476 "/>
<path clip-path="url(#clip650)" d="M1688.92 253.196 L1693.6 253.196 L1693.6 283.821 L1710.43 283.821 L1710.43 287.756 L1688.92 287.756 L1688.92 253.196 Z" fill="#000000" fill-rule="nonzero" fill-opacity="1" /><path clip-path="url(#clip650)" d="M1715.34 253.196 L1722.3 253.196 L1731.12 276.714 L1739.99 253.196 L1746.96 253.196 L1746.96 287.756 L1742.4 287.756 L1742.4 257.409 L1733.48 281.112 L1728.78 281.112 L1719.87 257.409 L1719.87 287.756 L1715.34 287.756 L1715.34 253.196 Z" fill="#000000" fill-rule="nonzero" fill-opacity="1" /><path clip-path="url(#clip650)" d="M1775.75 295.626 L1775.75 298.936 L1751.12 298.936 L1751.12 295.626 L1775.75 295.626 Z" fill="#000000" fill-rule="nonzero" fill-opacity="1" /><path clip-path="url(#clip650)" d="M1791.49 257.802 L1785.15 275.001 L1797.86 275.001 L1791.49 257.802 M1788.85 253.196 L1794.15 253.196 L1807.33 287.756 L1802.46 287.756 L1799.32 278.89 L1783.74 278.89 L1780.59 287.756 L1775.66 287.756 L1788.85 253.196 Z" fill="#000000" fill-rule="nonzero" fill-opacity="1" /><path clip-path="url(#clip650)" d="M1833.74 272.108 L1833.74 287.756 L1829.48 287.756 L1829.48 272.247 Q1829.48 268.566 1828.04 266.737 Q1826.61 264.909 1823.74 264.909 Q1820.29 264.909 1818.3 267.108 Q1816.31 269.307 1816.31 273.103 L1816.31 287.756 L1812.02 287.756 L1812.02 261.83 L1816.31 261.83 L1816.31 265.858 Q1817.83 263.52 1819.9 262.362 Q1821.98 261.205 1824.69 261.205 Q1829.15 261.205 1831.45 263.983 Q1833.74 266.737 1833.74 272.108 Z" fill="#000000" fill-rule="nonzero" fill-opacity="1" /><path clip-path="url(#clip650)" d="M1859.29 265.765 L1859.29 251.737 L1863.55 251.737 L1863.55 287.756 L1859.29 287.756 L1859.29 283.867 Q1857.95 286.182 1855.89 287.316 Q1853.85 288.427 1850.98 288.427 Q1846.28 288.427 1843.32 284.677 Q1840.38 280.927 1840.38 274.816 Q1840.38 268.705 1843.32 264.955 Q1846.28 261.205 1850.98 261.205 Q1853.85 261.205 1855.89 262.339 Q1857.95 263.45 1859.29 265.765 M1844.78 274.816 Q1844.78 279.515 1846.7 282.2 Q1848.64 284.862 1852.02 284.862 Q1855.4 284.862 1857.35 282.2 Q1859.29 279.515 1859.29 274.816 Q1859.29 270.117 1857.35 267.455 Q1855.4 264.77 1852.02 264.77 Q1848.64 264.77 1846.7 267.455 Q1844.78 270.117 1844.78 274.816 Z" fill="#000000" fill-rule="nonzero" fill-opacity="1" /><path clip-path="url(#clip650)" d="M1887.35 265.811 Q1886.63 265.395 1885.77 265.21 Q1884.94 265.001 1883.92 265.001 Q1880.31 265.001 1878.37 267.362 Q1876.45 269.7 1876.45 274.098 L1876.45 287.756 L1872.16 287.756 L1872.16 261.83 L1876.45 261.83 L1876.45 265.858 Q1877.79 263.497 1879.94 262.362 Q1882.09 261.205 1885.17 261.205 Q1885.61 261.205 1886.14 261.274 Q1886.68 261.321 1887.33 261.436 L1887.35 265.811 Z" fill="#000000" fill-rule="nonzero" fill-opacity="1" /><path clip-path="url(#clip650)" d="M1912.95 273.728 L1912.95 275.811 L1893.37 275.811 Q1893.64 280.209 1896.01 282.524 Q1898.39 284.816 1902.63 284.816 Q1905.08 284.816 1907.37 284.214 Q1909.69 283.612 1911.95 282.409 L1911.95 286.436 Q1909.66 287.408 1907.26 287.918 Q1904.85 288.427 1902.37 288.427 Q1896.17 288.427 1892.53 284.816 Q1888.92 281.205 1888.92 275.047 Q1888.92 268.682 1892.35 264.955 Q1895.8 261.205 1901.63 261.205 Q1906.86 261.205 1909.89 264.585 Q1912.95 267.941 1912.95 273.728 M1908.69 272.478 Q1908.64 268.983 1906.72 266.899 Q1904.83 264.816 1901.68 264.816 Q1898.11 264.816 1895.96 266.83 Q1893.83 268.844 1893.51 272.501 L1908.69 272.478 Z" fill="#000000" fill-rule="nonzero" fill-opacity="1" /><path clip-path="url(#clip650)" d="M1919.94 261.83 L1924.2 261.83 L1924.2 287.756 L1919.94 287.756 L1919.94 261.83 M1919.94 251.737 L1924.2 251.737 L1924.2 257.131 L1919.94 257.131 L1919.94 251.737 Z" fill="#000000" fill-rule="nonzero" fill-opacity="1" /><path clip-path="url(#clip650)" d="M1952.81 295.626 L1952.81 298.936 L1928.18 298.936 L1928.18 295.626 L1952.81 295.626 Z" fill="#000000" fill-rule="nonzero" fill-opacity="1" /><path clip-path="url(#clip650)" d="M1968.6 274.723 Q1963.44 274.723 1961.45 275.904 Q1959.45 277.084 1959.45 279.932 Q1959.45 282.2 1960.94 283.543 Q1962.44 284.862 1965.01 284.862 Q1968.55 284.862 1970.68 282.362 Q1972.83 279.839 1972.83 275.672 L1972.83 274.723 L1968.6 274.723 M1977.09 272.964 L1977.09 287.756 L1972.83 287.756 L1972.83 283.821 Q1971.38 286.182 1969.2 287.316 Q1967.02 288.427 1963.88 288.427 Q1959.89 288.427 1957.53 286.205 Q1955.2 283.959 1955.2 280.209 Q1955.2 275.834 1958.11 273.612 Q1961.05 271.39 1966.86 271.39 L1972.83 271.39 L1972.83 270.973 Q1972.83 268.034 1970.89 266.436 Q1968.97 264.816 1965.47 264.816 Q1963.25 264.816 1961.14 265.348 Q1959.04 265.881 1957.09 266.946 L1957.09 263.01 Q1959.43 262.108 1961.63 261.668 Q1963.83 261.205 1965.91 261.205 Q1971.54 261.205 1974.32 264.122 Q1977.09 267.038 1977.09 272.964 Z" fill="#000000" fill-rule="nonzero" fill-opacity="1" /><path clip-path="url(#clip650)" d="M1985.87 251.737 L1990.13 251.737 L1990.13 287.756 L1985.87 287.756 L1985.87 251.737 Z" fill="#000000" fill-rule="nonzero" fill-opacity="1" /><path clip-path="url(#clip650)" d="M2003.25 254.469 L2003.25 261.83 L2012.02 261.83 L2012.02 265.14 L2003.25 265.14 L2003.25 279.214 Q2003.25 282.385 2004.11 283.288 Q2004.99 284.191 2007.65 284.191 L2012.02 284.191 L2012.02 287.756 L2007.65 287.756 Q2002.72 287.756 2000.84 285.927 Q1998.97 284.075 1998.97 279.214 L1998.97 265.14 L1995.84 265.14 L1995.84 261.83 L1998.97 261.83 L1998.97 254.469 L2003.25 254.469 Z" fill="#000000" fill-rule="nonzero" fill-opacity="1" /><path clip-path="url(#clip650)" d="M2037.32 295.626 L2037.32 298.936 L2012.69 298.936 L2012.69 295.626 L2037.32 295.626 Z" fill="#000000" fill-rule="nonzero" fill-opacity="1" /><path clip-path="url(#clip650)" d="M2043.88 274.816 Q2043.88 279.515 2045.8 282.2 Q2047.74 284.862 2051.12 284.862 Q2054.5 284.862 2056.44 282.2 Q2058.39 279.515 2058.39 274.816 Q2058.39 270.117 2056.44 267.455 Q2054.5 264.77 2051.12 264.77 Q2047.74 264.77 2045.8 267.455 Q2043.88 270.117 2043.88 274.816 M2058.39 283.867 Q2057.05 286.182 2054.99 287.316 Q2052.95 288.427 2050.08 288.427 Q2045.38 288.427 2042.42 284.677 Q2039.48 280.927 2039.48 274.816 Q2039.48 268.705 2042.42 264.955 Q2045.38 261.205 2050.08 261.205 Q2052.95 261.205 2054.99 262.339 Q2057.05 263.45 2058.39 265.765 L2058.39 261.83 L2062.65 261.83 L2062.65 297.617 L2058.39 297.617 L2058.39 283.867 Z" fill="#000000" fill-rule="nonzero" fill-opacity="1" /><path clip-path="url(#clip650)" d="M2086.44 265.811 Q2085.73 265.395 2084.87 265.21 Q2084.04 265.001 2083.02 265.001 Q2079.41 265.001 2077.46 267.362 Q2075.54 269.7 2075.54 274.098 L2075.54 287.756 L2071.26 287.756 L2071.26 261.83 L2075.54 261.83 L2075.54 265.858 Q2076.88 263.497 2079.04 262.362 Q2081.19 261.205 2084.27 261.205 Q2084.71 261.205 2085.24 261.274 Q2085.77 261.321 2086.42 261.436 L2086.44 265.811 Z" fill="#000000" fill-rule="nonzero" fill-opacity="1" /><path clip-path="url(#clip650)" d="M2110.26 266.807 Q2111.86 263.936 2114.08 262.571 Q2116.31 261.205 2119.31 261.205 Q2123.37 261.205 2125.56 264.052 Q2127.76 266.876 2127.76 272.108 L2127.76 287.756 L2123.48 287.756 L2123.48 272.247 Q2123.48 268.52 2122.16 266.714 Q2120.84 264.909 2118.13 264.909 Q2114.82 264.909 2112.9 267.108 Q2110.98 269.307 2110.98 273.103 L2110.98 287.756 L2106.7 287.756 L2106.7 272.247 Q2106.7 268.497 2105.38 266.714 Q2104.06 264.909 2101.31 264.909 Q2098.04 264.909 2096.12 267.131 Q2094.2 269.33 2094.2 273.103 L2094.2 287.756 L2089.92 287.756 L2089.92 261.83 L2094.2 261.83 L2094.2 265.858 Q2095.66 263.473 2097.69 262.339 Q2099.73 261.205 2102.53 261.205 Q2105.36 261.205 2107.32 262.64 Q2109.31 264.075 2110.26 266.807 Z" fill="#000000" fill-rule="nonzero" fill-opacity="1" /><path clip-path="url(#clip650)" d="M2135.82 277.524 L2135.82 261.83 L2140.08 261.83 L2140.08 277.362 Q2140.08 281.043 2141.51 282.895 Q2142.95 284.723 2145.82 284.723 Q2149.27 284.723 2151.26 282.524 Q2153.27 280.325 2153.27 276.529 L2153.27 261.83 L2157.53 261.83 L2157.53 287.756 L2153.27 287.756 L2153.27 283.774 Q2151.72 286.135 2149.66 287.293 Q2147.62 288.427 2144.92 288.427 Q2140.45 288.427 2138.13 285.649 Q2135.82 282.871 2135.82 277.524 M2146.54 261.205 L2146.54 261.205 Z" fill="#000000" fill-rule="nonzero" fill-opacity="1" /><path clip-path="url(#clip650)" d="M2186.49 266.807 Q2188.09 263.936 2190.31 262.571 Q2192.53 261.205 2195.54 261.205 Q2199.59 261.205 2201.79 264.052 Q2203.99 266.876 2203.99 272.108 L2203.99 287.756 L2199.71 287.756 L2199.71 272.247 Q2199.71 268.52 2198.39 266.714 Q2197.07 264.909 2194.36 264.909 Q2191.05 264.909 2189.13 267.108 Q2187.21 269.307 2187.21 273.103 L2187.21 287.756 L2182.93 287.756 L2182.93 272.247 Q2182.93 268.497 2181.61 266.714 Q2180.29 264.909 2177.53 264.909 Q2174.27 264.909 2172.35 267.131 Q2170.43 269.33 2170.43 273.103 L2170.43 287.756 L2166.14 287.756 L2166.14 261.83 L2170.43 261.83 L2170.43 265.858 Q2171.88 263.473 2173.92 262.339 Q2175.96 261.205 2178.76 261.205 Q2181.58 261.205 2183.55 262.64 Q2185.54 264.075 2186.49 266.807 Z" fill="#000000" fill-rule="nonzero" fill-opacity="1" /><path clip-path="url(#clip650)" d="M2216.61 283.867 L2216.61 297.617 L2212.32 297.617 L2212.32 261.83 L2216.61 261.83 L2216.61 265.765 Q2217.95 263.45 2219.99 262.339 Q2222.05 261.205 2224.89 261.205 Q2229.62 261.205 2232.55 264.955 Q2235.52 268.705 2235.52 274.816 Q2235.52 280.927 2232.55 284.677 Q2229.62 288.427 2224.89 288.427 Q2222.05 288.427 2219.99 287.316 Q2217.95 286.182 2216.61 283.867 M2231.1 274.816 Q2231.1 270.117 2229.15 267.455 Q2227.23 264.77 2223.85 264.77 Q2220.47 264.77 2218.53 267.455 Q2216.61 270.117 2216.61 274.816 Q2216.61 279.515 2218.53 282.2 Q2220.47 284.862 2223.85 284.862 Q2227.23 284.862 2229.15 282.2 Q2231.1 279.515 2231.1 274.816 Z" fill="#000000" fill-rule="nonzero" fill-opacity="1" /><path clip-path="url(#clip650)" d="M2259.11 262.594 L2259.11 266.622 Q2257.3 265.696 2255.36 265.233 Q2253.41 264.77 2251.33 264.77 Q2248.16 264.77 2246.56 265.742 Q2244.99 266.714 2244.99 268.659 Q2244.99 270.14 2246.12 270.997 Q2247.25 271.83 2250.68 272.594 L2252.14 272.918 Q2256.68 273.89 2258.57 275.672 Q2260.49 277.432 2260.49 280.603 Q2260.49 284.214 2257.62 286.321 Q2254.78 288.427 2249.78 288.427 Q2247.69 288.427 2245.43 288.01 Q2243.18 287.617 2240.68 286.807 L2240.68 282.409 Q2243.04 283.635 2245.33 284.26 Q2247.62 284.862 2249.87 284.862 Q2252.88 284.862 2254.5 283.844 Q2256.12 282.802 2256.12 280.927 Q2256.12 279.191 2254.94 278.265 Q2253.78 277.339 2249.82 276.483 L2248.34 276.135 Q2244.38 275.302 2242.62 273.589 Q2240.87 271.853 2240.87 268.844 Q2240.87 265.186 2243.46 263.196 Q2246.05 261.205 2250.82 261.205 Q2253.18 261.205 2255.26 261.552 Q2257.35 261.899 2259.11 262.594 Z" fill="#000000" fill-rule="nonzero" fill-opacity="1" /></svg>
