<?xml version="1.0" encoding="utf-8"?>
<svg xmlns="http://www.w3.org/2000/svg" xmlns:xlink="http://www.w3.org/1999/xlink" width="600" height="400" viewBox="0 0 2400 1600">
<defs>
  <clipPath id="clip410">
    <rect x="0" y="0" width="2400" height="1600"/>
  </clipPath>
</defs>
<path clip-path="url(#clip410)" d="M0 1600 L2400 1600 L2400 0 L0 0  Z" fill="#ffffff" fill-rule="evenodd" fill-opacity="1"/>
<defs>
  <clipPath id="clip411">
    <rect x="480" y="0" width="1681" height="1600"/>
  </clipPath>
</defs>
<path clip-path="url(#clip410)" d="M276.876 1423.18 L2352.76 1423.18 L2352.76 123.472 L276.876 123.472  Z" fill="#ffffff" fill-rule="evenodd" fill-opacity="1"/>
<defs>
  <clipPath id="clip412">
    <rect x="276" y="123" width="2077" height="1301"/>
  </clipPath>
</defs>
<polyline clip-path="url(#clip412)" style="stroke:#000000; stroke-linecap:round; stroke-linejoin:round; stroke-width:2; stroke-opacity:0.1; fill:none" points="335.627,1423.18 335.627,123.472 "/>
<polyline clip-path="url(#clip412)" style="stroke:#000000; stroke-linecap:round; stroke-linejoin:round; stroke-width:2; stroke-opacity:0.1; fill:none" points="825.221,1423.18 825.221,123.472 "/>
<polyline clip-path="url(#clip412)" style="stroke:#000000; stroke-linecap:round; stroke-linejoin:round; stroke-width:2; stroke-opacity:0.1; fill:none" points="1314.82,1423.18 1314.82,123.472 "/>
<polyline clip-path="url(#clip412)" style="stroke:#000000; stroke-linecap:round; stroke-linejoin:round; stroke-width:2; stroke-opacity:0.1; fill:none" points="1804.41,1423.18 1804.41,123.472 "/>
<polyline clip-path="url(#clip412)" style="stroke:#000000; stroke-linecap:round; stroke-linejoin:round; stroke-width:2; stroke-opacity:0.1; fill:none" points="2294,1423.18 2294,123.472 "/>
<polyline clip-path="url(#clip410)" style="stroke:#000000; stroke-linecap:round; stroke-linejoin:round; stroke-width:4; stroke-opacity:1; fill:none" points="276.876,1423.18 2352.76,1423.18 "/>
<polyline clip-path="url(#clip410)" style="stroke:#000000; stroke-linecap:round; stroke-linejoin:round; stroke-width:4; stroke-opacity:1; fill:none" points="335.627,1423.18 335.627,1404.28 "/>
<polyline clip-path="url(#clip410)" style="stroke:#000000; stroke-linecap:round; stroke-linejoin:round; stroke-width:4; stroke-opacity:1; fill:none" points="825.221,1423.18 825.221,1404.28 "/>
<polyline clip-path="url(#clip410)" style="stroke:#000000; stroke-linecap:round; stroke-linejoin:round; stroke-width:4; stroke-opacity:1; fill:none" points="1314.82,1423.18 1314.82,1404.28 "/>
<polyline clip-path="url(#clip410)" style="stroke:#000000; stroke-linecap:round; stroke-linejoin:round; stroke-width:4; stroke-opacity:1; fill:none" points="1804.41,1423.18 1804.41,1404.28 "/>
<polyline clip-path="url(#clip410)" style="stroke:#000000; stroke-linecap:round; stroke-linejoin:round; stroke-width:4; stroke-opacity:1; fill:none" points="2294,1423.18 2294,1404.28 "/>
<path clip-path="url(#clip410)" d="M302.78 1481.64 L310.419 1481.64 L310.419 1455.28 L302.109 1456.95 L302.109 1452.69 L310.372 1451.02 L315.048 1451.02 L315.048 1481.64 L322.687 1481.64 L322.687 1485.58 L302.78 1485.58 L302.78 1481.64 Z" fill="#000000" fill-rule="nonzero" fill-opacity="1" /><path clip-path="url(#clip410)" d="M332.131 1479.7 L337.016 1479.7 L337.016 1485.58 L332.131 1485.58 L332.131 1479.7 Z" fill="#000000" fill-rule="nonzero" fill-opacity="1" /><path clip-path="url(#clip410)" d="M357.201 1454.1 Q353.59 1454.1 351.761 1457.66 Q349.955 1461.2 349.955 1468.33 Q349.955 1475.44 351.761 1479.01 Q353.59 1482.55 357.201 1482.55 Q360.835 1482.55 362.641 1479.01 Q364.469 1475.44 364.469 1468.33 Q364.469 1461.2 362.641 1457.66 Q360.835 1454.1 357.201 1454.1 M357.201 1450.39 Q363.011 1450.39 366.066 1455 Q369.145 1459.58 369.145 1468.33 Q369.145 1477.06 366.066 1481.67 Q363.011 1486.25 357.201 1486.25 Q351.391 1486.25 348.312 1481.67 Q345.256 1477.06 345.256 1468.33 Q345.256 1459.58 348.312 1455 Q351.391 1450.39 357.201 1450.39 Z" fill="#000000" fill-rule="nonzero" fill-opacity="1" /><path clip-path="url(#clip410)" d="M792.872 1481.64 L800.511 1481.64 L800.511 1455.28 L792.201 1456.95 L792.201 1452.69 L800.464 1451.02 L805.14 1451.02 L805.14 1481.64 L812.779 1481.64 L812.779 1485.58 L792.872 1485.58 L792.872 1481.64 Z" fill="#000000" fill-rule="nonzero" fill-opacity="1" /><path clip-path="url(#clip410)" d="M822.224 1479.7 L827.108 1479.7 L827.108 1485.58 L822.224 1485.58 L822.224 1479.7 Z" fill="#000000" fill-rule="nonzero" fill-opacity="1" /><path clip-path="url(#clip410)" d="M837.339 1451.02 L855.696 1451.02 L855.696 1454.96 L841.622 1454.96 L841.622 1463.43 Q842.64 1463.08 843.659 1462.92 Q844.677 1462.73 845.696 1462.73 Q851.483 1462.73 854.862 1465.9 Q858.242 1469.08 858.242 1474.49 Q858.242 1480.07 854.77 1483.17 Q851.298 1486.25 844.978 1486.25 Q842.802 1486.25 840.534 1485.88 Q838.288 1485.51 835.881 1484.77 L835.881 1480.07 Q837.964 1481.2 840.186 1481.76 Q842.409 1482.32 844.886 1482.32 Q848.89 1482.32 851.228 1480.21 Q853.566 1478.1 853.566 1474.49 Q853.566 1470.88 851.228 1468.77 Q848.89 1466.67 844.886 1466.67 Q843.011 1466.67 841.136 1467.08 Q839.284 1467.5 837.339 1468.38 L837.339 1451.02 Z" fill="#000000" fill-rule="nonzero" fill-opacity="1" /><path clip-path="url(#clip410)" d="M1286.05 1481.64 L1302.37 1481.64 L1302.37 1485.58 L1280.43 1485.58 L1280.43 1481.64 Q1283.09 1478.89 1287.67 1474.26 Q1292.28 1469.61 1293.46 1468.27 Q1295.71 1465.74 1296.59 1464.01 Q1297.49 1462.25 1297.49 1460.56 Q1297.49 1457.8 1295.54 1456.07 Q1293.62 1454.33 1290.52 1454.33 Q1288.32 1454.33 1285.87 1455.09 Q1283.44 1455.86 1280.66 1457.41 L1280.66 1452.69 Q1283.48 1451.55 1285.94 1450.97 Q1288.39 1450.39 1290.43 1450.39 Q1295.8 1450.39 1298.99 1453.08 Q1302.19 1455.77 1302.19 1460.26 Q1302.19 1462.39 1301.38 1464.31 Q1300.59 1466.2 1298.48 1468.8 Q1297.91 1469.47 1294.8 1472.69 Q1291.7 1475.88 1286.05 1481.64 Z" fill="#000000" fill-rule="nonzero" fill-opacity="1" /><path clip-path="url(#clip410)" d="M1312.19 1479.7 L1317.07 1479.7 L1317.07 1485.58 L1312.19 1485.58 L1312.19 1479.7 Z" fill="#000000" fill-rule="nonzero" fill-opacity="1" /><path clip-path="url(#clip410)" d="M1337.26 1454.1 Q1333.65 1454.1 1331.82 1457.66 Q1330.01 1461.2 1330.01 1468.33 Q1330.01 1475.44 1331.82 1479.01 Q1333.65 1482.55 1337.26 1482.55 Q1340.89 1482.55 1342.7 1479.01 Q1344.53 1475.44 1344.53 1468.33 Q1344.53 1461.2 1342.7 1457.66 Q1340.89 1454.1 1337.26 1454.1 M1337.26 1450.39 Q1343.07 1450.39 1346.12 1455 Q1349.2 1459.58 1349.2 1468.33 Q1349.2 1477.06 1346.12 1481.67 Q1343.07 1486.25 1337.26 1486.25 Q1331.45 1486.25 1328.37 1481.67 Q1325.31 1477.06 1325.31 1468.33 Q1325.31 1459.58 1328.37 1455 Q1331.45 1450.39 1337.26 1450.39 Z" fill="#000000" fill-rule="nonzero" fill-opacity="1" /><path clip-path="url(#clip410)" d="M1776.15 1481.64 L1792.47 1481.64 L1792.47 1485.58 L1770.52 1485.58 L1770.52 1481.64 Q1773.18 1478.89 1777.77 1474.26 Q1782.37 1469.61 1783.55 1468.27 Q1785.8 1465.74 1786.68 1464.01 Q1787.58 1462.25 1787.58 1460.56 Q1787.58 1457.8 1785.64 1456.07 Q1783.72 1454.33 1780.61 1454.33 Q1778.41 1454.33 1775.96 1455.09 Q1773.53 1455.86 1770.75 1457.41 L1770.75 1452.69 Q1773.58 1451.55 1776.03 1450.97 Q1778.48 1450.39 1780.52 1450.39 Q1785.89 1450.39 1789.09 1453.08 Q1792.28 1455.77 1792.28 1460.26 Q1792.28 1462.39 1791.47 1464.31 Q1790.68 1466.2 1788.58 1468.8 Q1788 1469.47 1784.9 1472.69 Q1781.79 1475.88 1776.15 1481.64 Z" fill="#000000" fill-rule="nonzero" fill-opacity="1" /><path clip-path="url(#clip410)" d="M1802.28 1479.7 L1807.16 1479.7 L1807.16 1485.58 L1802.28 1485.58 L1802.28 1479.7 Z" fill="#000000" fill-rule="nonzero" fill-opacity="1" /><path clip-path="url(#clip410)" d="M1817.4 1451.02 L1835.75 1451.02 L1835.75 1454.96 L1821.68 1454.96 L1821.68 1463.43 Q1822.7 1463.08 1823.72 1462.92 Q1824.73 1462.73 1825.75 1462.73 Q1831.54 1462.73 1834.92 1465.9 Q1838.3 1469.08 1838.3 1474.49 Q1838.3 1480.07 1834.83 1483.17 Q1831.35 1486.25 1825.04 1486.25 Q1822.86 1486.25 1820.59 1485.88 Q1818.35 1485.51 1815.94 1484.77 L1815.94 1480.07 Q1818.02 1481.2 1820.24 1481.76 Q1822.47 1482.32 1824.94 1482.32 Q1828.95 1482.32 1831.28 1480.21 Q1833.62 1478.1 1833.62 1474.49 Q1833.62 1470.88 1831.28 1468.77 Q1828.95 1466.67 1824.94 1466.67 Q1823.07 1466.67 1821.19 1467.08 Q1819.34 1467.5 1817.4 1468.38 L1817.4 1451.02 Z" fill="#000000" fill-rule="nonzero" fill-opacity="1" /><path clip-path="url(#clip410)" d="M2275.31 1466.95 Q2278.67 1467.66 2280.54 1469.93 Q2282.44 1472.2 2282.44 1475.53 Q2282.44 1480.65 2278.92 1483.45 Q2275.41 1486.25 2268.92 1486.25 Q2266.75 1486.25 2264.43 1485.81 Q2262.14 1485.39 2259.69 1484.54 L2259.69 1480.02 Q2261.63 1481.16 2263.95 1481.74 Q2266.26 1482.32 2268.78 1482.32 Q2273.18 1482.32 2275.47 1480.58 Q2277.79 1478.84 2277.79 1475.53 Q2277.79 1472.48 2275.64 1470.77 Q2273.51 1469.03 2269.69 1469.03 L2265.66 1469.03 L2265.66 1465.19 L2269.87 1465.19 Q2273.32 1465.19 2275.15 1463.82 Q2276.98 1462.43 2276.98 1459.84 Q2276.98 1457.18 2275.08 1455.77 Q2273.21 1454.33 2269.69 1454.33 Q2267.77 1454.33 2265.57 1454.75 Q2263.37 1455.16 2260.73 1456.04 L2260.73 1451.88 Q2263.39 1451.14 2265.71 1450.77 Q2268.04 1450.39 2270.1 1450.39 Q2275.43 1450.39 2278.53 1452.83 Q2281.63 1455.23 2281.63 1459.35 Q2281.63 1462.22 2279.99 1464.21 Q2278.34 1466.18 2275.31 1466.95 Z" fill="#000000" fill-rule="nonzero" fill-opacity="1" /><path clip-path="url(#clip410)" d="M2291.31 1479.7 L2296.19 1479.7 L2296.19 1485.58 L2291.31 1485.58 L2291.31 1479.7 Z" fill="#000000" fill-rule="nonzero" fill-opacity="1" /><path clip-path="url(#clip410)" d="M2316.38 1454.1 Q2312.77 1454.1 2310.94 1457.66 Q2309.13 1461.2 2309.13 1468.33 Q2309.13 1475.44 2310.94 1479.01 Q2312.77 1482.55 2316.38 1482.55 Q2320.01 1482.55 2321.82 1479.01 Q2323.65 1475.44 2323.65 1468.33 Q2323.65 1461.2 2321.82 1457.66 Q2320.01 1454.1 2316.38 1454.1 M2316.38 1450.39 Q2322.19 1450.39 2325.24 1455 Q2328.32 1459.58 2328.32 1468.33 Q2328.32 1477.06 2325.24 1481.67 Q2322.19 1486.25 2316.38 1486.25 Q2310.57 1486.25 2307.49 1481.67 Q2304.43 1477.06 2304.43 1468.33 Q2304.43 1459.58 2307.49 1455 Q2310.57 1450.39 2316.38 1450.39 Z" fill="#000000" fill-rule="nonzero" fill-opacity="1" /><path clip-path="url(#clip410)" d="M1299 1518.52 L1304.89 1518.52 L1304.89 1547.77 L1322.36 1532.4 L1329.84 1532.4 L1310.93 1549.07 L1330.63 1568.04 L1323 1568.04 L1304.89 1550.63 L1304.89 1568.04 L1299 1568.04 L1299 1518.52 Z" fill="#000000" fill-rule="nonzero" fill-opacity="1" /><polyline clip-path="url(#clip412)" style="stroke:#000000; stroke-linecap:round; stroke-linejoin:round; stroke-width:2; stroke-opacity:0.1; fill:none" points="276.876,1335.79 2352.76,1335.79 "/>
<polyline clip-path="url(#clip412)" style="stroke:#000000; stroke-linecap:round; stroke-linejoin:round; stroke-width:2; stroke-opacity:0.1; fill:none" points="276.876,855.456 2352.76,855.456 "/>
<polyline clip-path="url(#clip412)" style="stroke:#000000; stroke-linecap:round; stroke-linejoin:round; stroke-width:2; stroke-opacity:0.1; fill:none" points="276.876,375.119 2352.76,375.119 "/>
<polyline clip-path="url(#clip410)" style="stroke:#000000; stroke-linecap:round; stroke-linejoin:round; stroke-width:4; stroke-opacity:1; fill:none" points="276.876,1423.18 276.876,123.472 "/>
<polyline clip-path="url(#clip410)" style="stroke:#000000; stroke-linecap:round; stroke-linejoin:round; stroke-width:4; stroke-opacity:1; fill:none" points="276.876,1335.79 295.773,1335.79 "/>
<polyline clip-path="url(#clip410)" style="stroke:#000000; stroke-linecap:round; stroke-linejoin:round; stroke-width:4; stroke-opacity:1; fill:none" points="276.876,855.456 295.773,855.456 "/>
<polyline clip-path="url(#clip410)" style="stroke:#000000; stroke-linecap:round; stroke-linejoin:round; stroke-width:4; stroke-opacity:1; fill:none" points="276.876,375.119 295.773,375.119 "/>
<path clip-path="url(#clip410)" d="M114.931 1355.59 L122.57 1355.59 L122.57 1329.22 L114.26 1330.89 L114.26 1326.63 L122.524 1324.96 L127.2 1324.96 L127.2 1355.59 L134.839 1355.59 L134.839 1359.52 L114.931 1359.52 L114.931 1355.59 Z" fill="#000000" fill-rule="nonzero" fill-opacity="1" /><path clip-path="url(#clip410)" d="M154.283 1328.04 Q150.672 1328.04 148.843 1331.61 Q147.038 1335.15 147.038 1342.28 Q147.038 1349.38 148.843 1352.95 Q150.672 1356.49 154.283 1356.49 Q157.917 1356.49 159.723 1352.95 Q161.552 1349.38 161.552 1342.28 Q161.552 1335.15 159.723 1331.61 Q157.917 1328.04 154.283 1328.04 M154.283 1324.34 Q160.093 1324.34 163.149 1328.94 Q166.227 1333.53 166.227 1342.28 Q166.227 1351 163.149 1355.61 Q160.093 1360.19 154.283 1360.19 Q148.473 1360.19 145.394 1355.61 Q142.339 1351 142.339 1342.28 Q142.339 1333.53 145.394 1328.94 Q148.473 1324.34 154.283 1324.34 Z" fill="#000000" fill-rule="nonzero" fill-opacity="1" /><path clip-path="url(#clip410)" d="M166.227 1318.44 L190.339 1318.44 L190.339 1321.64 L166.227 1321.64 L166.227 1318.44 Z" fill="#000000" fill-rule="nonzero" fill-opacity="1" /><path clip-path="url(#clip410)" d="M199.197 1328.91 L205.404 1328.91 L205.404 1307.49 L198.652 1308.85 L198.652 1305.39 L205.366 1304.03 L209.166 1304.03 L209.166 1328.91 L215.372 1328.91 L215.372 1332.11 L199.197 1332.11 L199.197 1328.91 Z" fill="#000000" fill-rule="nonzero" fill-opacity="1" /><path clip-path="url(#clip410)" d="M231.171 1306.53 Q228.237 1306.53 226.751 1309.43 Q225.284 1312.31 225.284 1318.1 Q225.284 1323.87 226.751 1326.77 Q228.237 1329.65 231.171 1329.65 Q234.124 1329.65 235.591 1326.77 Q237.076 1323.87 237.076 1318.1 Q237.076 1312.31 235.591 1309.43 Q234.124 1306.53 231.171 1306.53 M231.171 1303.52 Q235.891 1303.52 238.374 1307.27 Q240.876 1310.99 240.876 1318.1 Q240.876 1325.19 238.374 1328.93 Q235.891 1332.66 231.171 1332.66 Q226.45 1332.66 223.949 1328.93 Q221.466 1325.19 221.466 1318.1 Q221.466 1310.99 223.949 1307.27 Q226.45 1303.52 231.171 1303.52 Z" fill="#000000" fill-rule="nonzero" fill-opacity="1" /><path clip-path="url(#clip410)" d="M140.247 875.249 L147.886 875.249 L147.886 848.883 L139.575 850.55 L139.575 846.291 L147.839 844.624 L152.515 844.624 L152.515 875.249 L160.154 875.249 L160.154 879.184 L140.247 879.184 L140.247 875.249 Z" fill="#000000" fill-rule="nonzero" fill-opacity="1" /><path clip-path="url(#clip410)" d="M179.598 847.703 Q175.987 847.703 174.159 851.268 Q172.353 854.809 172.353 861.939 Q172.353 869.045 174.159 872.61 Q175.987 876.152 179.598 876.152 Q183.233 876.152 185.038 872.61 Q186.867 869.045 186.867 861.939 Q186.867 854.809 185.038 851.268 Q183.233 847.703 179.598 847.703 M179.598 843.999 Q185.409 843.999 188.464 848.606 Q191.543 853.189 191.543 861.939 Q191.543 870.666 188.464 875.272 Q185.409 879.855 179.598 879.855 Q173.788 879.855 170.71 875.272 Q167.654 870.666 167.654 861.939 Q167.654 853.189 170.71 848.606 Q173.788 843.999 179.598 843.999 Z" fill="#000000" fill-rule="nonzero" fill-opacity="1" /><path clip-path="url(#clip410)" d="M191.543 838.1 L215.654 838.1 L215.654 841.298 L191.543 841.298 L191.543 838.1 Z" fill="#000000" fill-rule="nonzero" fill-opacity="1" /><path clip-path="url(#clip410)" d="M223.892 823.694 L238.807 823.694 L238.807 826.891 L227.372 826.891 L227.372 833.775 Q228.199 833.492 229.027 833.361 Q229.854 833.21 230.682 833.21 Q235.384 833.21 238.13 835.787 Q240.876 838.364 240.876 842.765 Q240.876 847.297 238.054 849.818 Q235.233 852.319 230.099 852.319 Q228.331 852.319 226.488 852.018 Q224.663 851.717 222.707 851.115 L222.707 847.297 Q224.4 848.219 226.205 848.67 Q228.011 849.122 230.023 849.122 Q233.277 849.122 235.177 847.41 Q237.076 845.699 237.076 842.765 Q237.076 839.831 235.177 838.119 Q233.277 836.408 230.023 836.408 Q228.5 836.408 226.977 836.746 Q225.472 837.085 223.892 837.799 L223.892 823.694 Z" fill="#000000" fill-rule="nonzero" fill-opacity="1" /><path clip-path="url(#clip410)" d="M170.17 394.911 L177.809 394.911 L177.809 368.545 L169.499 370.212 L169.499 365.953 L177.762 364.286 L182.438 364.286 L182.438 394.911 L190.077 394.911 L190.077 398.846 L170.17 398.846 L170.17 394.911 Z" fill="#000000" fill-rule="nonzero" fill-opacity="1" /><path clip-path="url(#clip410)" d="M209.522 367.365 Q205.91 367.365 204.082 370.93 Q202.276 374.471 202.276 381.601 Q202.276 388.707 204.082 392.272 Q205.91 395.814 209.522 395.814 Q213.156 395.814 214.961 392.272 Q216.79 388.707 216.79 381.601 Q216.79 374.471 214.961 370.93 Q213.156 367.365 209.522 367.365 M209.522 363.661 Q215.332 363.661 218.387 368.268 Q221.466 372.851 221.466 381.601 Q221.466 390.328 218.387 394.934 Q215.332 399.517 209.522 399.517 Q203.711 399.517 200.633 394.934 Q197.577 390.328 197.577 381.601 Q197.577 372.851 200.633 368.268 Q203.711 363.661 209.522 363.661 Z" fill="#000000" fill-rule="nonzero" fill-opacity="1" /><path clip-path="url(#clip410)" d="M231.171 345.857 Q228.237 345.857 226.751 348.754 Q225.284 351.631 225.284 357.424 Q225.284 363.198 226.751 366.094 Q228.237 368.972 231.171 368.972 Q234.124 368.972 235.591 366.094 Q237.076 363.198 237.076 357.424 Q237.076 351.631 235.591 348.754 Q234.124 345.857 231.171 345.857 M231.171 342.848 Q235.891 342.848 238.374 346.591 Q240.876 350.315 240.876 357.424 Q240.876 364.514 238.374 368.257 Q235.891 371.981 231.171 371.981 Q226.45 371.981 223.949 368.257 Q221.466 364.514 221.466 357.424 Q221.466 350.315 223.949 346.591 Q226.45 342.848 231.171 342.848 Z" fill="#000000" fill-rule="nonzero" fill-opacity="1" /><path clip-path="url(#clip410)" d="M32.4621 801.797 Q32.4621 806.507 36.1542 809.244 Q39.8145 811.982 46.212 811.982 Q52.6095 811.982 56.3017 809.276 Q59.9619 806.539 59.9619 801.797 Q59.9619 797.118 56.2698 794.381 Q52.5777 791.643 46.212 791.643 Q39.8781 791.643 36.186 794.381 Q32.4621 797.118 32.4621 801.797 M27.4968 801.797 Q27.4968 794.158 32.4621 789.797 Q37.4273 785.437 46.212 785.437 Q54.9649 785.437 59.9619 789.797 Q64.9272 794.158 64.9272 801.797 Q64.9272 809.467 59.9619 813.828 Q54.9649 818.156 46.212 818.156 Q37.4273 818.156 32.4621 813.828 Q27.4968 809.467 27.4968 801.797 Z" fill="#000000" fill-rule="nonzero" fill-opacity="1" /><path clip-path="url(#clip410)" d="M46.212 750.139 Q39.7508 750.139 36.0905 752.812 Q32.3984 755.454 32.3984 760.101 Q32.3984 764.748 36.0905 767.422 Q39.7508 770.064 46.212 770.064 Q52.6732 770.064 56.3653 767.422 Q60.0256 764.748 60.0256 760.101 Q60.0256 755.454 56.3653 752.812 Q52.6732 750.139 46.212 750.139 M33.7671 770.064 Q30.5842 768.218 29.0564 765.417 Q27.4968 762.584 27.4968 758.669 Q27.4968 752.176 32.6531 748.134 Q37.8093 744.06 46.212 744.06 Q54.6147 744.06 59.771 748.134 Q64.9272 752.176 64.9272 758.669 Q64.9272 762.584 63.3994 765.417 Q61.8398 768.218 58.657 770.064 L64.0042 770.064 L64.0042 775.952 L14.479 775.952 L14.479 770.064 L33.7671 770.064 Z" fill="#000000" fill-rule="nonzero" fill-opacity="1" /><path clip-path="url(#clip410)" d="M28.3562 734.352 L28.3562 728.495 L64.6407 728.495 Q71.452 728.495 74.5076 731.105 Q77.5631 733.684 77.5631 739.445 L77.5631 741.673 L72.5979 741.673 L72.5979 740.113 Q72.5979 736.771 71.0383 735.561 Q69.5105 734.352 64.6407 734.352 L28.3562 734.352 M14.479 734.352 L14.479 728.495 L21.895 728.495 L21.895 734.352 L14.479 734.352 Z" fill="#000000" fill-rule="nonzero" fill-opacity="1" /><path clip-path="url(#clip410)" d="M969.557 65.7705 L969.557 89.8329 L962.063 89.8329 L962.063 27.2059 L969.557 27.2059 L969.557 34.0924 Q971.907 30.0415 975.471 28.0971 Q979.077 26.1121 984.059 26.1121 Q992.323 26.1121 997.468 32.6746 Q1002.65 39.2371 1002.65 49.9314 Q1002.65 60.6258 997.468 67.1883 Q992.323 73.7508 984.059 73.7508 Q979.077 73.7508 975.471 71.8063 Q971.907 69.8214 969.557 65.7705 M994.916 49.9314 Q994.916 41.7081 991.513 37.0496 Q988.151 32.3505 982.236 32.3505 Q976.322 32.3505 972.919 37.0496 Q969.557 41.7081 969.557 49.9314 Q969.557 58.1548 972.919 62.8538 Q976.322 67.5124 982.236 67.5124 Q988.151 67.5124 991.513 62.8538 Q994.916 58.1548 994.916 49.9314 Z" fill="#000000" fill-rule="nonzero" fill-opacity="1" /><path clip-path="url(#clip410)" d="M1041.3 34.1734 Q1040.04 33.4443 1038.54 33.1202 Q1037.09 32.7556 1035.3 32.7556 Q1028.98 32.7556 1025.58 36.8875 Q1022.22 40.9789 1022.22 48.6757 L1022.22 72.576 L1014.72 72.576 L1014.72 27.2059 L1022.22 27.2059 L1022.22 34.2544 Q1024.57 30.1225 1028.34 28.1376 Q1032.1 26.1121 1037.49 26.1121 Q1038.26 26.1121 1039.19 26.2337 Q1040.12 26.3147 1041.26 26.5172 L1041.3 34.1734 Z" fill="#000000" fill-rule="nonzero" fill-opacity="1" /><path clip-path="url(#clip410)" d="M1064.87 32.4315 Q1058.88 32.4315 1055.4 37.1306 Q1051.91 41.7891 1051.91 49.9314 Q1051.91 58.0738 1055.36 62.7728 Q1058.84 67.4314 1064.87 67.4314 Q1070.83 67.4314 1074.31 62.7323 Q1077.8 58.0333 1077.8 49.9314 Q1077.8 41.8701 1074.31 37.1711 Q1070.83 32.4315 1064.87 32.4315 M1064.87 26.1121 Q1074.6 26.1121 1080.15 32.4315 Q1085.7 38.7509 1085.7 49.9314 Q1085.7 61.0714 1080.15 67.4314 Q1074.6 73.7508 1064.87 73.7508 Q1055.11 73.7508 1049.56 67.4314 Q1044.05 61.0714 1044.05 49.9314 Q1044.05 38.7509 1049.56 32.4315 Q1055.11 26.1121 1064.87 26.1121 Z" fill="#000000" fill-rule="nonzero" fill-opacity="1" /><path clip-path="url(#clip410)" d="M1130.62 49.9314 Q1130.62 41.7081 1127.22 37.0496 Q1123.86 32.3505 1117.94 32.3505 Q1112.03 32.3505 1108.62 37.0496 Q1105.26 41.7081 1105.26 49.9314 Q1105.26 58.1548 1108.62 62.8538 Q1112.03 67.5124 1117.94 67.5124 Q1123.86 67.5124 1127.22 62.8538 Q1130.62 58.1548 1130.62 49.9314 M1105.26 34.0924 Q1107.61 30.0415 1111.18 28.0971 Q1114.78 26.1121 1119.76 26.1121 Q1128.03 26.1121 1133.17 32.6746 Q1138.36 39.2371 1138.36 49.9314 Q1138.36 60.6258 1133.17 67.1883 Q1128.03 73.7508 1119.76 73.7508 Q1114.78 73.7508 1111.18 71.8063 Q1107.61 69.8214 1105.26 65.7705 L1105.26 72.576 L1097.77 72.576 L1097.77 9.54393 L1105.26 9.54393 L1105.26 34.0924 Z" fill="#000000" fill-rule="nonzero" fill-opacity="1" /><path clip-path="url(#clip410)" d="M1150.71 9.54393 L1158.17 9.54393 L1158.17 72.576 L1150.71 72.576 L1150.71 9.54393 Z" fill="#000000" fill-rule="nonzero" fill-opacity="1" /><path clip-path="url(#clip410)" d="M1212.57 48.0275 L1212.57 51.6733 L1178.3 51.6733 Q1178.79 59.3701 1182.92 63.421 Q1187.09 67.4314 1194.5 67.4314 Q1198.8 67.4314 1202.81 66.3781 Q1206.86 65.3249 1210.83 63.2184 L1210.83 70.267 Q1206.82 71.9684 1202.61 72.8596 Q1198.39 73.7508 1194.06 73.7508 Q1183.2 73.7508 1176.84 67.4314 Q1170.52 61.1119 1170.52 50.3365 Q1170.52 39.1965 1176.52 32.6746 Q1182.55 26.1121 1192.76 26.1121 Q1201.92 26.1121 1207.22 32.0264 Q1212.57 37.9003 1212.57 48.0275 M1205.12 45.84 Q1205.04 39.7232 1201.67 36.0774 Q1198.35 32.4315 1192.84 32.4315 Q1186.6 32.4315 1182.84 35.9558 Q1179.11 39.4801 1178.54 45.8805 L1205.12 45.84 M1186.44 6.22219 L1197.87 21.3726 L1191.67 21.3726 L1178.46 6.22219 L1186.44 6.22219 Z" fill="#000000" fill-rule="nonzero" fill-opacity="1" /><path clip-path="url(#clip410)" d="M1260.13 35.9153 Q1262.92 30.8922 1266.81 28.5022 Q1270.7 26.1121 1275.97 26.1121 Q1283.06 26.1121 1286.9 31.0947 Q1290.75 36.0368 1290.75 45.1919 L1290.75 72.576 L1283.26 72.576 L1283.26 45.4349 Q1283.26 38.913 1280.95 35.7533 Q1278.64 32.5936 1273.9 32.5936 Q1268.11 32.5936 1264.75 36.4419 Q1261.38 40.2903 1261.38 46.9338 L1261.38 72.576 L1253.89 72.576 L1253.89 45.4349 Q1253.89 38.8725 1251.58 35.7533 Q1249.27 32.5936 1244.45 32.5936 Q1238.74 32.5936 1235.38 36.4824 Q1232.02 40.3308 1232.02 46.9338 L1232.02 72.576 L1224.52 72.576 L1224.52 27.2059 L1232.02 27.2059 L1232.02 34.2544 Q1234.57 30.082 1238.13 28.0971 Q1241.7 26.1121 1246.6 26.1121 Q1251.54 26.1121 1254.98 28.6237 Q1258.47 31.1352 1260.13 35.9153 Z" fill="#000000" fill-rule="nonzero" fill-opacity="1" /><path clip-path="url(#clip410)" d="M1344.43 48.0275 L1344.43 51.6733 L1310.16 51.6733 Q1310.64 59.3701 1314.78 63.421 Q1318.95 67.4314 1326.36 67.4314 Q1330.65 67.4314 1334.67 66.3781 Q1338.72 65.3249 1342.69 63.2184 L1342.69 70.267 Q1338.68 71.9684 1334.46 72.8596 Q1330.25 73.7508 1325.92 73.7508 Q1315.06 73.7508 1308.7 67.4314 Q1302.38 61.1119 1302.38 50.3365 Q1302.38 39.1965 1308.37 32.6746 Q1314.41 26.1121 1324.62 26.1121 Q1333.77 26.1121 1339.08 32.0264 Q1344.43 37.9003 1344.43 48.0275 M1336.97 45.84 Q1336.89 39.7232 1333.53 36.0774 Q1330.21 32.4315 1324.7 32.4315 Q1318.46 32.4315 1314.69 35.9558 Q1310.97 39.4801 1310.4 45.8805 L1336.97 45.84 Z" fill="#000000" fill-rule="nonzero" fill-opacity="1" /><path clip-path="url(#clip410)" d="M1384.94 62.2867 L1393.48 62.2867 L1393.48 72.576 L1384.94 72.576 L1384.94 62.2867 M1384.94 29.6769 L1393.48 29.6769 L1393.48 39.9662 L1384.94 39.9662 L1384.94 29.6769 Z" fill="#000000" fill-rule="nonzero" fill-opacity="1" /><path clip-path="url(#clip410)" d="M1444.73 14.324 L1444.73 27.2059 L1460.08 27.2059 L1460.08 32.9987 L1444.73 32.9987 L1444.73 57.6282 Q1444.73 63.1779 1446.23 64.7578 Q1447.77 66.3376 1452.42 66.3376 L1460.08 66.3376 L1460.08 72.576 L1452.42 72.576 Q1443.8 72.576 1440.52 69.3758 Q1437.23 66.1351 1437.23 57.6282 L1437.23 32.9987 L1431.77 32.9987 L1431.77 27.2059 L1437.23 27.2059 L1437.23 14.324 L1444.73 14.324 Z" fill="#000000" fill-rule="nonzero" fill-opacity="1" /><path clip-path="url(#clip410)" d="M1477.09 65.7705 L1477.09 89.8329 L1469.6 89.8329 L1469.6 27.2059 L1477.09 27.2059 L1477.09 34.0924 Q1479.44 30.0415 1483.01 28.0971 Q1486.61 26.1121 1491.6 26.1121 Q1499.86 26.1121 1505.01 32.6746 Q1510.19 39.2371 1510.19 49.9314 Q1510.19 60.6258 1505.01 67.1883 Q1499.86 73.7508 1491.6 73.7508 Q1486.61 73.7508 1483.01 71.8063 Q1479.44 69.8214 1477.09 65.7705 M1502.45 49.9314 Q1502.45 41.7081 1499.05 37.0496 Q1495.69 32.3505 1489.77 32.3505 Q1483.86 32.3505 1480.46 37.0496 Q1477.09 41.7081 1477.09 49.9314 Q1477.09 58.1548 1480.46 62.8538 Q1483.86 67.5124 1489.77 67.5124 Q1495.69 67.5124 1499.05 62.8538 Q1502.45 58.1548 1502.45 49.9314 Z" fill="#000000" fill-rule="nonzero" fill-opacity="1" /><path clip-path="url(#clip410)" d="M1530.65 65.6895 L1559.21 65.6895 L1559.21 72.576 L1520.8 72.576 L1520.8 65.6895 Q1525.46 60.8689 1533.48 52.7671 Q1541.54 44.6248 1543.61 42.2752 Q1547.54 37.8598 1549.08 34.8216 Q1550.66 31.7429 1550.66 28.7857 Q1550.66 23.9651 1547.26 20.927 Q1543.89 17.8888 1538.47 17.8888 Q1534.62 17.8888 1530.32 19.2256 Q1526.07 20.5624 1521.21 23.2765 L1521.21 15.0127 Q1526.15 13.0277 1530.45 12.015 Q1534.74 11.0023 1538.3 11.0023 Q1547.7 11.0023 1553.29 15.7013 Q1558.88 20.4004 1558.88 28.2591 Q1558.88 31.9859 1557.46 35.3482 Q1556.09 38.6699 1552.4 43.2069 Q1551.39 44.3817 1545.96 50.0125 Q1540.53 55.6027 1530.65 65.6895 Z" fill="#000000" fill-rule="nonzero" fill-opacity="1" /><path clip-path="url(#clip410)" d="M1598.87 19.2256 L1578.21 51.5113 L1598.87 51.5113 L1598.87 19.2256 M1596.72 12.096 L1607.01 12.096 L1607.01 51.5113 L1615.64 51.5113 L1615.64 58.3168 L1607.01 58.3168 L1607.01 72.576 L1598.87 72.576 L1598.87 58.3168 L1571.56 58.3168 L1571.56 50.4176 L1596.72 12.096 Z" fill="#000000" fill-rule="nonzero" fill-opacity="1" /><path clip-path="url(#clip410)" d="M1646.67 17.4837 Q1640.35 17.4837 1637.15 23.7221 Q1633.99 29.92 1633.99 42.3968 Q1633.99 54.833 1637.15 61.0714 Q1640.35 67.2693 1646.67 67.2693 Q1653.03 67.2693 1656.19 61.0714 Q1659.39 54.833 1659.39 42.3968 Q1659.39 29.92 1656.19 23.7221 Q1653.03 17.4837 1646.67 17.4837 M1646.67 11.0023 Q1656.83 11.0023 1662.18 19.0636 Q1667.57 27.0843 1667.57 42.3968 Q1667.57 57.6687 1662.18 65.73 Q1656.83 73.7508 1646.67 73.7508 Q1636.5 73.7508 1631.11 65.73 Q1625.76 57.6687 1625.76 42.3968 Q1625.76 27.0843 1631.11 19.0636 Q1636.5 11.0023 1646.67 11.0023 Z" fill="#000000" fill-rule="nonzero" fill-opacity="1" /><polyline clip-path="url(#clip412)" style="stroke:#009af9; stroke-linecap:round; stroke-linejoin:round; stroke-width:4; stroke-opacity:1; fill:none" points="335.627,160.256 1314.82,773.528 2294,1386.4 "/>
<polyline clip-path="url(#clip412)" style="stroke:#e26f46; stroke-linecap:round; stroke-linejoin:round; stroke-width:4; stroke-opacity:1; fill:none" points="335.627,160.256 1314.82,773.528 2294,1386.4 "/>
<path clip-path="url(#clip410)" d="M1504.4 322.316 L2283.56 322.316 L2283.56 166.796 L1504.4 166.796  Z" fill="#ffffff" fill-rule="evenodd" fill-opacity="1"/>
<polyline clip-path="url(#clip410)" style="stroke:#000000; stroke-linecap:round; stroke-linejoin:round; stroke-width:4; stroke-opacity:1; fill:none" points="1504.4,322.316 2283.56,322.316 2283.56,166.796 1504.4,166.796 1504.4,322.316 "/>
<polyline clip-path="url(#clip410)" style="stroke:#009af9; stroke-linecap:round; stroke-linejoin:round; stroke-width:4; stroke-opacity:1; fill:none" points="1527.47,218.636 1665.86,218.636 "/>
<path clip-path="url(#clip410)" d="M1688.92 201.356 L1693.6 201.356 L1693.6 231.981 L1710.43 231.981 L1710.43 235.916 L1688.92 235.916 L1688.92 201.356 Z" fill="#000000" fill-rule="nonzero" fill-opacity="1" /><path clip-path="url(#clip410)" d="M1715.34 201.356 L1722.3 201.356 L1731.12 224.874 L1739.99 201.356 L1746.96 201.356 L1746.96 235.916 L1742.4 235.916 L1742.4 205.569 L1733.48 229.272 L1728.78 229.272 L1719.87 205.569 L1719.87 235.916 L1715.34 235.916 L1715.34 201.356 Z" fill="#000000" fill-rule="nonzero" fill-opacity="1" /><path clip-path="url(#clip410)" d="M1775.75 243.786 L1775.75 247.096 L1751.12 247.096 L1751.12 243.786 L1775.75 243.786 Z" fill="#000000" fill-rule="nonzero" fill-opacity="1" /><path clip-path="url(#clip410)" d="M1791.49 205.962 L1785.15 223.161 L1797.86 223.161 L1791.49 205.962 M1788.85 201.356 L1794.15 201.356 L1807.33 235.916 L1802.46 235.916 L1799.32 227.05 L1783.74 227.05 L1780.59 235.916 L1775.66 235.916 L1788.85 201.356 Z" fill="#000000" fill-rule="nonzero" fill-opacity="1" /><path clip-path="url(#clip410)" d="M1833.74 220.268 L1833.74 235.916 L1829.48 235.916 L1829.48 220.407 Q1829.48 216.726 1828.04 214.897 Q1826.61 213.069 1823.74 213.069 Q1820.29 213.069 1818.3 215.268 Q1816.31 217.467 1816.31 221.263 L1816.31 235.916 L1812.02 235.916 L1812.02 209.99 L1816.31 209.99 L1816.31 214.018 Q1817.83 211.68 1819.9 210.522 Q1821.98 209.365 1824.69 209.365 Q1829.15 209.365 1831.45 212.143 Q1833.74 214.897 1833.74 220.268 Z" fill="#000000" fill-rule="nonzero" fill-opacity="1" /><path clip-path="url(#clip410)" d="M1859.29 213.925 L1859.29 199.897 L1863.55 199.897 L1863.55 235.916 L1859.29 235.916 L1859.29 232.027 Q1857.95 234.342 1855.89 235.476 Q1853.85 236.587 1850.98 236.587 Q1846.28 236.587 1843.32 232.837 Q1840.38 229.087 1840.38 222.976 Q1840.38 216.865 1843.32 213.115 Q1846.28 209.365 1850.98 209.365 Q1853.85 209.365 1855.89 210.499 Q1857.95 211.61 1859.29 213.925 M1844.78 222.976 Q1844.78 227.675 1846.7 230.36 Q1848.64 233.022 1852.02 233.022 Q1855.4 233.022 1857.35 230.36 Q1859.29 227.675 1859.29 222.976 Q1859.29 218.277 1857.35 215.615 Q1855.4 212.93 1852.02 212.93 Q1848.64 212.93 1846.7 215.615 Q1844.78 218.277 1844.78 222.976 Z" fill="#000000" fill-rule="nonzero" fill-opacity="1" /><path clip-path="url(#clip410)" d="M1887.35 213.971 Q1886.63 213.555 1885.77 213.37 Q1884.94 213.161 1883.92 213.161 Q1880.31 213.161 1878.37 215.522 Q1876.45 217.86 1876.45 222.258 L1876.45 235.916 L1872.16 235.916 L1872.16 209.99 L1876.45 209.99 L1876.45 214.018 Q1877.79 211.657 1879.94 210.522 Q1882.09 209.365 1885.17 209.365 Q1885.61 209.365 1886.14 209.434 Q1886.68 209.481 1887.33 209.596 L1887.35 213.971 Z" fill="#000000" fill-rule="nonzero" fill-opacity="1" /><path clip-path="url(#clip410)" d="M1912.95 221.888 L1912.95 223.971 L1893.37 223.971 Q1893.64 228.369 1896.01 230.684 Q1898.39 232.976 1902.63 232.976 Q1905.08 232.976 1907.37 232.374 Q1909.69 231.772 1911.95 230.569 L1911.95 234.596 Q1909.66 235.568 1907.26 236.078 Q1904.85 236.587 1902.37 236.587 Q1896.17 236.587 1892.53 232.976 Q1888.92 229.365 1888.92 223.207 Q1888.92 216.842 1892.35 213.115 Q1895.8 209.365 1901.63 209.365 Q1906.86 209.365 1909.89 212.745 Q1912.95 216.101 1912.95 221.888 M1908.69 220.638 Q1908.64 217.143 1906.72 215.059 Q1904.83 212.976 1901.68 212.976 Q1898.11 212.976 1895.96 214.99 Q1893.83 217.004 1893.51 220.661 L1908.69 220.638 Z" fill="#000000" fill-rule="nonzero" fill-opacity="1" /><path clip-path="url(#clip410)" d="M1919.94 209.99 L1924.2 209.99 L1924.2 235.916 L1919.94 235.916 L1919.94 209.99 M1919.94 199.897 L1924.2 199.897 L1924.2 205.291 L1919.94 205.291 L1919.94 199.897 Z" fill="#000000" fill-rule="nonzero" fill-opacity="1" /><path clip-path="url(#clip410)" d="M1952.81 243.786 L1952.81 247.096 L1928.18 247.096 L1928.18 243.786 L1952.81 243.786 Z" fill="#000000" fill-rule="nonzero" fill-opacity="1" /><path clip-path="url(#clip410)" d="M1968.6 222.883 Q1963.44 222.883 1961.45 224.064 Q1959.45 225.244 1959.45 228.092 Q1959.45 230.36 1960.94 231.703 Q1962.44 233.022 1965.01 233.022 Q1968.55 233.022 1970.68 230.522 Q1972.83 227.999 1972.83 223.832 L1972.83 222.883 L1968.6 222.883 M1977.09 221.124 L1977.09 235.916 L1972.83 235.916 L1972.83 231.981 Q1971.38 234.342 1969.2 235.476 Q1967.02 236.587 1963.88 236.587 Q1959.89 236.587 1957.53 234.365 Q1955.2 232.119 1955.2 228.369 Q1955.2 223.994 1958.11 221.772 Q1961.05 219.55 1966.86 219.55 L1972.83 219.55 L1972.83 219.133 Q1972.83 216.194 1970.89 214.596 Q1968.97 212.976 1965.47 212.976 Q1963.25 212.976 1961.14 213.508 Q1959.04 214.041 1957.09 215.106 L1957.09 211.17 Q1959.43 210.268 1961.63 209.828 Q1963.83 209.365 1965.91 209.365 Q1971.54 209.365 1974.32 212.282 Q1977.09 215.198 1977.09 221.124 Z" fill="#000000" fill-rule="nonzero" fill-opacity="1" /><path clip-path="url(#clip410)" d="M1985.87 199.897 L1990.13 199.897 L1990.13 235.916 L1985.87 235.916 L1985.87 199.897 Z" fill="#000000" fill-rule="nonzero" fill-opacity="1" /><path clip-path="url(#clip410)" d="M2003.25 202.629 L2003.25 209.99 L2012.02 209.99 L2012.02 213.3 L2003.25 213.3 L2003.25 227.374 Q2003.25 230.545 2004.11 231.448 Q2004.99 232.351 2007.65 232.351 L2012.02 232.351 L2012.02 235.916 L2007.65 235.916 Q2002.72 235.916 2000.84 234.087 Q1998.97 232.235 1998.97 227.374 L1998.97 213.3 L1995.84 213.3 L1995.84 209.99 L1998.97 209.99 L1998.97 202.629 L2003.25 202.629 Z" fill="#000000" fill-rule="nonzero" fill-opacity="1" /><polyline clip-path="url(#clip410)" style="stroke:#e26f46; stroke-linecap:round; stroke-linejoin:round; stroke-width:4; stroke-opacity:1; fill:none" points="1527.47,270.476 1665.86,270.476 "/>
<path clip-path="url(#clip410)" d="M1688.92 253.196 L1693.6 253.196 L1693.6 283.821 L1710.43 283.821 L1710.43 287.756 L1688.92 287.756 L1688.92 253.196 Z" fill="#000000" fill-rule="nonzero" fill-opacity="1" /><path clip-path="url(#clip410)" d="M1715.34 253.196 L1722.3 253.196 L1731.12 276.714 L1739.99 253.196 L1746.96 253.196 L1746.96 287.756 L1742.4 287.756 L1742.4 257.409 L1733.48 281.112 L1728.78 281.112 L1719.87 257.409 L1719.87 287.756 L1715.34 287.756 L1715.34 253.196 Z" fill="#000000" fill-rule="nonzero" fill-opacity="1" /><path clip-path="url(#clip410)" d="M1775.75 295.626 L1775.75 298.936 L1751.12 298.936 L1751.12 295.626 L1775.75 295.626 Z" fill="#000000" fill-rule="nonzero" fill-opacity="1" /><path clip-path="url(#clip410)" d="M1791.49 257.802 L1785.15 275.001 L1797.86 275.001 L1791.49 257.802 M1788.85 253.196 L1794.15 253.196 L1807.33 287.756 L1802.46 287.756 L1799.32 278.89 L1783.74 278.89 L1780.59 287.756 L1775.66 287.756 L1788.85 253.196 Z" fill="#000000" fill-rule="nonzero" fill-opacity="1" /><path clip-path="url(#clip410)" d="M1833.74 272.108 L1833.74 287.756 L1829.48 287.756 L1829.48 272.247 Q1829.48 268.566 1828.04 266.737 Q1826.61 264.909 1823.74 264.909 Q1820.29 264.909 1818.3 267.108 Q1816.31 269.307 1816.31 273.103 L1816.31 287.756 L1812.02 287.756 L1812.02 261.83 L1816.31 261.83 L1816.31 265.858 Q1817.83 263.52 1819.9 262.362 Q1821.98 261.205 1824.69 261.205 Q1829.15 261.205 1831.45 263.983 Q1833.74 266.737 1833.74 272.108 Z" fill="#000000" fill-rule="nonzero" fill-opacity="1" /><path clip-path="url(#clip410)" d="M1859.29 265.765 L1859.29 251.737 L1863.55 251.737 L1863.55 287.756 L1859.29 287.756 L1859.29 283.867 Q1857.95 286.182 1855.89 287.316 Q1853.85 288.427 1850.98 288.427 Q1846.28 288.427 1843.32 284.677 Q1840.38 280.927 1840.38 274.816 Q1840.38 268.705 1843.32 264.955 Q1846.28 261.205 1850.98 261.205 Q1853.85 261.205 1855.89 262.339 Q1857.95 263.45 1859.29 265.765 M1844.78 274.816 Q1844.78 279.515 1846.7 282.2 Q1848.64 284.862 1852.02 284.862 Q1855.4 284.862 1857.35 282.2 Q1859.29 279.515 1859.29 274.816 Q1859.29 270.117 1857.35 267.455 Q1855.4 264.77 1852.02 264.77 Q1848.64 264.77 1846.7 267.455 Q1844.78 270.117 1844.78 274.816 Z" fill="#000000" fill-rule="nonzero" fill-opacity="1" /><path clip-path="url(#clip410)" d="M1887.35 265.811 Q1886.63 265.395 1885.77 265.21 Q1884.94 265.001 1883.92 265.001 Q1880.31 265.001 1878.37 267.362 Q1876.45 269.7 1876.45 274.098 L1876.45 287.756 L1872.16 287.756 L1872.16 261.83 L1876.45 261.83 L1876.45 265.858 Q1877.79 263.497 1879.94 262.362 Q1882.09 261.205 1885.17 261.205 Q1885.61 261.205 1886.14 261.274 Q1886.68 261.321 1887.33 261.436 L1887.35 265.811 Z" fill="#000000" fill-rule="nonzero" fill-opacity="1" /><path clip-path="url(#clip410)" d="M1912.95 273.728 L1912.95 275.811 L1893.37 275.811 Q1893.64 280.209 1896.01 282.524 Q1898.39 284.816 1902.63 284.816 Q1905.08 284.816 1907.37 284.214 Q1909.69 283.612 1911.95 282.409 L1911.95 286.436 Q1909.66 287.408 1907.26 287.918 Q1904.85 288.427 1902.37 288.427 Q1896.17 288.427 1892.53 284.816 Q1888.92 281.205 1888.92 275.047 Q1888.92 268.682 1892.35 264.955 Q1895.8 261.205 1901.63 261.205 Q1906.86 261.205 1909.89 264.585 Q1912.95 267.941 1912.95 273.728 M1908.69 272.478 Q1908.64 268.983 1906.72 266.899 Q1904.83 264.816 1901.68 264.816 Q1898.11 264.816 1895.96 266.83 Q1893.83 268.844 1893.51 272.501 L1908.69 272.478 Z" fill="#000000" fill-rule="nonzero" fill-opacity="1" /><path clip-path="url(#clip410)" d="M1919.94 261.83 L1924.2 261.83 L1924.2 287.756 L1919.94 287.756 L1919.94 261.83 M1919.94 251.737 L1924.2 251.737 L1924.2 257.131 L1919.94 257.131 L1919.94 251.737 Z" fill="#000000" fill-rule="nonzero" fill-opacity="1" /><path clip-path="url(#clip410)" d="M1952.81 295.626 L1952.81 298.936 L1928.18 298.936 L1928.18 295.626 L1952.81 295.626 Z" fill="#000000" fill-rule="nonzero" fill-opacity="1" /><path clip-path="url(#clip410)" d="M1968.6 274.723 Q1963.44 274.723 1961.45 275.904 Q1959.45 277.084 1959.45 279.932 Q1959.45 282.2 1960.94 283.543 Q1962.44 284.862 1965.01 284.862 Q1968.55 284.862 1970.68 282.362 Q1972.83 279.839 1972.83 275.672 L1972.83 274.723 L1968.6 274.723 M1977.09 272.964 L1977.09 287.756 L1972.83 287.756 L1972.83 283.821 Q1971.38 286.182 1969.2 287.316 Q1967.02 288.427 1963.88 288.427 Q1959.89 288.427 1957.53 286.205 Q1955.2 283.959 1955.2 280.209 Q1955.2 275.834 1958.11 273.612 Q1961.05 271.39 1966.86 271.39 L1972.83 271.39 L1972.83 270.973 Q1972.83 268.034 1970.89 266.436 Q1968.97 264.816 1965.47 264.816 Q1963.25 264.816 1961.14 265.348 Q1959.04 265.881 1957.09 266.946 L1957.09 263.01 Q1959.43 262.108 1961.63 261.668 Q1963.83 261.205 1965.91 261.205 Q1971.54 261.205 1974.32 264.122 Q1977.09 267.038 1977.09 272.964 Z" fill="#000000" fill-rule="nonzero" fill-opacity="1" /><path clip-path="url(#clip410)" d="M1985.87 251.737 L1990.13 251.737 L1990.13 287.756 L1985.87 287.756 L1985.87 251.737 Z" fill="#000000" fill-rule="nonzero" fill-opacity="1" /><path clip-path="url(#clip410)" d="M2003.25 254.469 L2003.25 261.83 L2012.02 261.83 L2012.02 265.14 L2003.25 265.14 L2003.25 279.214 Q2003.25 282.385 2004.11 283.288 Q2004.99 284.191 2007.65 284.191 L2012.02 284.191 L2012.02 287.756 L2007.65 287.756 Q2002.72 287.756 2000.84 285.927 Q1998.97 284.075 1998.97 279.214 L1998.97 265.14 L1995.84 265.14 L1995.84 261.83 L1998.97 261.83 L1998.97 254.469 L2003.25 254.469 Z" fill="#000000" fill-rule="nonzero" fill-opacity="1" /><path clip-path="url(#clip410)" d="M2037.32 295.626 L2037.32 298.936 L2012.69 298.936 L2012.69 295.626 L2037.32 295.626 Z" fill="#000000" fill-rule="nonzero" fill-opacity="1" /><path clip-path="url(#clip410)" d="M2043.88 274.816 Q2043.88 279.515 2045.8 282.2 Q2047.74 284.862 2051.12 284.862 Q2054.5 284.862 2056.44 282.2 Q2058.39 279.515 2058.39 274.816 Q2058.39 270.117 2056.44 267.455 Q2054.5 264.77 2051.12 264.77 Q2047.74 264.77 2045.8 267.455 Q2043.88 270.117 2043.88 274.816 M2058.39 283.867 Q2057.05 286.182 2054.99 287.316 Q2052.95 288.427 2050.08 288.427 Q2045.38 288.427 2042.42 284.677 Q2039.48 280.927 2039.48 274.816 Q2039.48 268.705 2042.42 264.955 Q2045.38 261.205 2050.08 261.205 Q2052.95 261.205 2054.99 262.339 Q2057.05 263.45 2058.39 265.765 L2058.39 261.83 L2062.65 261.83 L2062.65 297.617 L2058.39 297.617 L2058.39 283.867 Z" fill="#000000" fill-rule="nonzero" fill-opacity="1" /><path clip-path="url(#clip410)" d="M2086.44 265.811 Q2085.73 265.395 2084.87 265.21 Q2084.04 265.001 2083.02 265.001 Q2079.41 265.001 2077.46 267.362 Q2075.54 269.7 2075.54 274.098 L2075.54 287.756 L2071.26 287.756 L2071.26 261.83 L2075.54 261.83 L2075.54 265.858 Q2076.88 263.497 2079.04 262.362 Q2081.19 261.205 2084.27 261.205 Q2084.71 261.205 2085.24 261.274 Q2085.77 261.321 2086.42 261.436 L2086.44 265.811 Z" fill="#000000" fill-rule="nonzero" fill-opacity="1" /><path clip-path="url(#clip410)" d="M2110.26 266.807 Q2111.86 263.936 2114.08 262.571 Q2116.31 261.205 2119.31 261.205 Q2123.37 261.205 2125.56 264.052 Q2127.76 266.876 2127.76 272.108 L2127.76 287.756 L2123.48 287.756 L2123.48 272.247 Q2123.48 268.52 2122.16 266.714 Q2120.84 264.909 2118.13 264.909 Q2114.82 264.909 2112.9 267.108 Q2110.98 269.307 2110.98 273.103 L2110.98 287.756 L2106.7 287.756 L2106.7 272.247 Q2106.7 268.497 2105.38 266.714 Q2104.06 264.909 2101.31 264.909 Q2098.04 264.909 2096.12 267.131 Q2094.2 269.33 2094.2 273.103 L2094.2 287.756 L2089.92 287.756 L2089.92 261.83 L2094.2 261.83 L2094.2 265.858 Q2095.66 263.473 2097.69 262.339 Q2099.73 261.205 2102.53 261.205 Q2105.36 261.205 2107.32 262.64 Q2109.31 264.075 2110.26 266.807 Z" fill="#000000" fill-rule="nonzero" fill-opacity="1" /><path clip-path="url(#clip410)" d="M2135.82 277.524 L2135.82 261.83 L2140.08 261.83 L2140.08 277.362 Q2140.08 281.043 2141.51 282.895 Q2142.95 284.723 2145.82 284.723 Q2149.27 284.723 2151.26 282.524 Q2153.27 280.325 2153.27 276.529 L2153.27 261.83 L2157.53 261.83 L2157.53 287.756 L2153.27 287.756 L2153.27 283.774 Q2151.72 286.135 2149.66 287.293 Q2147.62 288.427 2144.92 288.427 Q2140.45 288.427 2138.13 285.649 Q2135.82 282.871 2135.82 277.524 M2146.54 261.205 L2146.54 261.205 Z" fill="#000000" fill-rule="nonzero" fill-opacity="1" /><path clip-path="url(#clip410)" d="M2186.49 266.807 Q2188.09 263.936 2190.31 262.571 Q2192.53 261.205 2195.54 261.205 Q2199.59 261.205 2201.79 264.052 Q2203.99 266.876 2203.99 272.108 L2203.99 287.756 L2199.71 287.756 L2199.71 272.247 Q2199.71 268.52 2198.39 266.714 Q2197.07 264.909 2194.36 264.909 Q2191.05 264.909 2189.13 267.108 Q2187.21 269.307 2187.21 273.103 L2187.21 287.756 L2182.93 287.756 L2182.93 272.247 Q2182.93 268.497 2181.61 266.714 Q2180.29 264.909 2177.53 264.909 Q2174.27 264.909 2172.35 267.131 Q2170.43 269.33 2170.43 273.103 L2170.43 287.756 L2166.14 287.756 L2166.14 261.83 L2170.43 261.83 L2170.43 265.858 Q2171.88 263.473 2173.92 262.339 Q2175.96 261.205 2178.76 261.205 Q2181.58 261.205 2183.55 262.64 Q2185.54 264.075 2186.49 266.807 Z" fill="#000000" fill-rule="nonzero" fill-opacity="1" /><path clip-path="url(#clip410)" d="M2216.61 283.867 L2216.61 297.617 L2212.32 297.617 L2212.32 261.83 L2216.61 261.83 L2216.61 265.765 Q2217.95 263.45 2219.99 262.339 Q2222.05 261.205 2224.89 261.205 Q2229.62 261.205 2232.55 264.955 Q2235.52 268.705 2235.52 274.816 Q2235.52 280.927 2232.55 284.677 Q2229.62 288.427 2224.89 288.427 Q2222.05 288.427 2219.99 287.316 Q2217.95 286.182 2216.61 283.867 M2231.1 274.816 Q2231.1 270.117 2229.15 267.455 Q2227.23 264.77 2223.85 264.77 Q2220.47 264.77 2218.53 267.455 Q2216.61 270.117 2216.61 274.816 Q2216.61 279.515 2218.53 282.2 Q2220.47 284.862 2223.85 284.862 Q2227.23 284.862 2229.15 282.2 Q2231.1 279.515 2231.1 274.816 Z" fill="#000000" fill-rule="nonzero" fill-opacity="1" /><path clip-path="url(#clip410)" d="M2259.11 262.594 L2259.11 266.622 Q2257.3 265.696 2255.36 265.233 Q2253.41 264.77 2251.33 264.77 Q2248.16 264.77 2246.56 265.742 Q2244.99 266.714 2244.99 268.659 Q2244.99 270.14 2246.12 270.997 Q2247.25 271.83 2250.68 272.594 L2252.14 272.918 Q2256.68 273.89 2258.57 275.672 Q2260.49 277.432 2260.49 280.603 Q2260.49 284.214 2257.62 286.321 Q2254.78 288.427 2249.78 288.427 Q2247.69 288.427 2245.43 288.01 Q2243.18 287.617 2240.68 286.807 L2240.68 282.409 Q2243.04 283.635 2245.33 284.26 Q2247.62 284.862 2249.87 284.862 Q2252.88 284.862 2254.5 283.844 Q2256.12 282.802 2256.12 280.927 Q2256.12 279.191 2254.94 278.265 Q2253.78 277.339 2249.82 276.483 L2248.34 276.135 Q2244.38 275.302 2242.62 273.589 Q2240.87 271.853 2240.87 268.844 Q2240.87 265.186 2243.46 263.196 Q2246.05 261.205 2250.82 261.205 Q2253.18 261.205 2255.26 261.552 Q2257.35 261.899 2259.11 262.594 Z" fill="#000000" fill-rule="nonzero" fill-opacity="1" /></svg>
