<?xml version="1.0" encoding="utf-8"?>
<svg xmlns="http://www.w3.org/2000/svg" xmlns:xlink="http://www.w3.org/1999/xlink" width="600" height="400" viewBox="0 0 2400 1600">
<defs>
  <clipPath id="clip810">
    <rect x="0" y="0" width="2400" height="1600"/>
  </clipPath>
</defs>
<path clip-path="url(#clip810)" d="M0 1600 L2400 1600 L2400 0 L0 0  Z" fill="#ffffff" fill-rule="evenodd" fill-opacity="1"/>
<defs>
  <clipPath id="clip811">
    <rect x="480" y="0" width="1681" height="1600"/>
  </clipPath>
</defs>
<path clip-path="url(#clip810)" d="M276.876 1423.18 L2352.76 1423.18 L2352.76 123.472 L276.876 123.472  Z" fill="#ffffff" fill-rule="evenodd" fill-opacity="1"/>
<defs>
  <clipPath id="clip812">
    <rect x="276" y="123" width="2077" height="1301"/>
  </clipPath>
</defs>
<polyline clip-path="url(#clip812)" style="stroke:#000000; stroke-linecap:round; stroke-linejoin:round; stroke-width:2; stroke-opacity:0.1; fill:none" points="335.627,1423.18 335.627,123.472 "/>
<polyline clip-path="url(#clip812)" style="stroke:#000000; stroke-linecap:round; stroke-linejoin:round; stroke-width:2; stroke-opacity:0.1; fill:none" points="662.023,1423.18 662.023,123.472 "/>
<polyline clip-path="url(#clip812)" style="stroke:#000000; stroke-linecap:round; stroke-linejoin:round; stroke-width:2; stroke-opacity:0.1; fill:none" points="988.419,1423.18 988.419,123.472 "/>
<polyline clip-path="url(#clip812)" style="stroke:#000000; stroke-linecap:round; stroke-linejoin:round; stroke-width:2; stroke-opacity:0.1; fill:none" points="1314.82,1423.18 1314.82,123.472 "/>
<polyline clip-path="url(#clip812)" style="stroke:#000000; stroke-linecap:round; stroke-linejoin:round; stroke-width:2; stroke-opacity:0.1; fill:none" points="1641.21,1423.18 1641.21,123.472 "/>
<polyline clip-path="url(#clip812)" style="stroke:#000000; stroke-linecap:round; stroke-linejoin:round; stroke-width:2; stroke-opacity:0.1; fill:none" points="1967.61,1423.18 1967.61,123.472 "/>
<polyline clip-path="url(#clip812)" style="stroke:#000000; stroke-linecap:round; stroke-linejoin:round; stroke-width:2; stroke-opacity:0.1; fill:none" points="2294,1423.18 2294,123.472 "/>
<polyline clip-path="url(#clip810)" style="stroke:#000000; stroke-linecap:round; stroke-linejoin:round; stroke-width:4; stroke-opacity:1; fill:none" points="276.876,1423.18 2352.76,1423.18 "/>
<polyline clip-path="url(#clip810)" style="stroke:#000000; stroke-linecap:round; stroke-linejoin:round; stroke-width:4; stroke-opacity:1; fill:none" points="335.627,1423.18 335.627,1404.28 "/>
<polyline clip-path="url(#clip810)" style="stroke:#000000; stroke-linecap:round; stroke-linejoin:round; stroke-width:4; stroke-opacity:1; fill:none" points="662.023,1423.18 662.023,1404.28 "/>
<polyline clip-path="url(#clip810)" style="stroke:#000000; stroke-linecap:round; stroke-linejoin:round; stroke-width:4; stroke-opacity:1; fill:none" points="988.419,1423.18 988.419,1404.28 "/>
<polyline clip-path="url(#clip810)" style="stroke:#000000; stroke-linecap:round; stroke-linejoin:round; stroke-width:4; stroke-opacity:1; fill:none" points="1314.82,1423.18 1314.82,1404.28 "/>
<polyline clip-path="url(#clip810)" style="stroke:#000000; stroke-linecap:round; stroke-linejoin:round; stroke-width:4; stroke-opacity:1; fill:none" points="1641.21,1423.18 1641.21,1404.28 "/>
<polyline clip-path="url(#clip810)" style="stroke:#000000; stroke-linecap:round; stroke-linejoin:round; stroke-width:4; stroke-opacity:1; fill:none" points="1967.61,1423.18 1967.61,1404.28 "/>
<polyline clip-path="url(#clip810)" style="stroke:#000000; stroke-linecap:round; stroke-linejoin:round; stroke-width:4; stroke-opacity:1; fill:none" points="2294,1423.18 2294,1404.28 "/>
<path clip-path="url(#clip810)" d="M326.009 1481.64 L333.648 1481.64 L333.648 1455.28 L325.338 1456.95 L325.338 1452.69 L333.601 1451.02 L338.277 1451.02 L338.277 1481.64 L345.916 1481.64 L345.916 1485.58 L326.009 1485.58 L326.009 1481.64 Z" fill="#000000" fill-rule="nonzero" fill-opacity="1" /><path clip-path="url(#clip810)" d="M656.676 1481.64 L672.995 1481.64 L672.995 1485.58 L651.051 1485.58 L651.051 1481.64 Q653.713 1478.89 658.296 1474.26 Q662.903 1469.61 664.083 1468.27 Q666.329 1465.74 667.208 1464.01 Q668.111 1462.25 668.111 1460.56 Q668.111 1457.8 666.167 1456.07 Q664.245 1454.33 661.144 1454.33 Q658.944 1454.33 656.491 1455.09 Q654.06 1455.86 651.282 1457.41 L651.282 1452.69 Q654.107 1451.55 656.56 1450.97 Q659.014 1450.39 661.051 1450.39 Q666.421 1450.39 669.616 1453.08 Q672.81 1455.77 672.81 1460.26 Q672.81 1462.39 672 1464.31 Q671.213 1466.2 669.106 1468.8 Q668.528 1469.47 665.426 1472.69 Q662.324 1475.88 656.676 1481.64 Z" fill="#000000" fill-rule="nonzero" fill-opacity="1" /><path clip-path="url(#clip810)" d="M992.667 1466.95 Q996.024 1467.66 997.899 1469.93 Q999.797 1472.2 999.797 1475.53 Q999.797 1480.65 996.278 1483.45 Q992.76 1486.25 986.278 1486.25 Q984.102 1486.25 981.788 1485.81 Q979.496 1485.39 977.042 1484.54 L977.042 1480.02 Q978.987 1481.16 981.301 1481.74 Q983.616 1482.32 986.139 1482.32 Q990.537 1482.32 992.829 1480.58 Q995.144 1478.84 995.144 1475.53 Q995.144 1472.48 992.991 1470.77 Q990.862 1469.03 987.042 1469.03 L983.014 1469.03 L983.014 1465.19 L987.227 1465.19 Q990.676 1465.19 992.505 1463.82 Q994.334 1462.43 994.334 1459.84 Q994.334 1457.18 992.436 1455.77 Q990.561 1454.33 987.042 1454.33 Q985.121 1454.33 982.922 1454.75 Q980.723 1455.16 978.084 1456.04 L978.084 1451.88 Q980.746 1451.14 983.061 1450.77 Q985.399 1450.39 987.459 1450.39 Q992.783 1450.39 995.885 1452.83 Q998.986 1455.23 998.986 1459.35 Q998.986 1462.22 997.343 1464.21 Q995.699 1466.18 992.667 1466.95 Z" fill="#000000" fill-rule="nonzero" fill-opacity="1" /><path clip-path="url(#clip810)" d="M1317.82 1455.09 L1306.02 1473.54 L1317.82 1473.54 L1317.82 1455.09 M1316.6 1451.02 L1322.48 1451.02 L1322.48 1473.54 L1327.41 1473.54 L1327.41 1477.43 L1322.48 1477.43 L1322.48 1485.58 L1317.82 1485.58 L1317.82 1477.43 L1302.22 1477.43 L1302.22 1472.92 L1316.6 1451.02 Z" fill="#000000" fill-rule="nonzero" fill-opacity="1" /><path clip-path="url(#clip810)" d="M1631.49 1451.02 L1649.85 1451.02 L1649.85 1454.96 L1635.77 1454.96 L1635.77 1463.43 Q1636.79 1463.08 1637.81 1462.92 Q1638.83 1462.73 1639.85 1462.73 Q1645.63 1462.73 1649.01 1465.9 Q1652.39 1469.08 1652.39 1474.49 Q1652.39 1480.07 1648.92 1483.17 Q1645.45 1486.25 1639.13 1486.25 Q1636.95 1486.25 1634.68 1485.88 Q1632.44 1485.51 1630.03 1484.77 L1630.03 1480.07 Q1632.11 1481.2 1634.34 1481.76 Q1636.56 1482.32 1639.04 1482.32 Q1643.04 1482.32 1645.38 1480.21 Q1647.72 1478.1 1647.72 1474.49 Q1647.72 1470.88 1645.38 1468.77 Q1643.04 1466.67 1639.04 1466.67 Q1637.16 1466.67 1635.29 1467.08 Q1633.43 1467.5 1631.49 1468.38 L1631.49 1451.02 Z" fill="#000000" fill-rule="nonzero" fill-opacity="1" /><path clip-path="url(#clip810)" d="M1968.01 1466.44 Q1964.87 1466.44 1963.01 1468.59 Q1961.18 1470.74 1961.18 1474.49 Q1961.18 1478.22 1963.01 1480.39 Q1964.87 1482.55 1968.01 1482.55 Q1971.16 1482.55 1972.99 1480.39 Q1974.84 1478.22 1974.84 1474.49 Q1974.84 1470.74 1972.99 1468.59 Q1971.16 1466.44 1968.01 1466.44 M1977.3 1451.78 L1977.3 1456.04 Q1975.54 1455.21 1973.73 1454.77 Q1971.95 1454.33 1970.19 1454.33 Q1965.56 1454.33 1963.11 1457.45 Q1960.68 1460.58 1960.33 1466.9 Q1961.69 1464.89 1963.75 1463.82 Q1965.81 1462.73 1968.29 1462.73 Q1973.5 1462.73 1976.51 1465.9 Q1979.54 1469.05 1979.54 1474.49 Q1979.54 1479.82 1976.39 1483.03 Q1973.24 1486.25 1968.01 1486.25 Q1962.02 1486.25 1958.85 1481.67 Q1955.68 1477.06 1955.68 1468.33 Q1955.68 1460.14 1959.56 1455.28 Q1963.45 1450.39 1970 1450.39 Q1971.76 1450.39 1973.55 1450.74 Q1975.35 1451.09 1977.3 1451.78 Z" fill="#000000" fill-rule="nonzero" fill-opacity="1" /><path clip-path="url(#clip810)" d="M2282.89 1451.02 L2305.12 1451.02 L2305.12 1453.01 L2292.57 1485.58 L2287.69 1485.58 L2299.49 1454.96 L2282.89 1454.96 L2282.89 1451.02 Z" fill="#000000" fill-rule="nonzero" fill-opacity="1" /><path clip-path="url(#clip810)" d="M1299 1518.52 L1304.89 1518.52 L1304.89 1547.77 L1322.36 1532.4 L1329.84 1532.4 L1310.93 1549.07 L1330.63 1568.04 L1323 1568.04 L1304.89 1550.63 L1304.89 1568.04 L1299 1568.04 L1299 1518.52 Z" fill="#000000" fill-rule="nonzero" fill-opacity="1" /><polyline clip-path="url(#clip812)" style="stroke:#000000; stroke-linecap:round; stroke-linejoin:round; stroke-width:2; stroke-opacity:0.1; fill:none" points="276.876,1421.63 2352.76,1421.63 "/>
<polyline clip-path="url(#clip812)" style="stroke:#000000; stroke-linecap:round; stroke-linejoin:round; stroke-width:2; stroke-opacity:0.1; fill:none" points="276.876,818.802 2352.76,818.802 "/>
<polyline clip-path="url(#clip812)" style="stroke:#000000; stroke-linecap:round; stroke-linejoin:round; stroke-width:2; stroke-opacity:0.1; fill:none" points="276.876,215.974 2352.76,215.974 "/>
<polyline clip-path="url(#clip810)" style="stroke:#000000; stroke-linecap:round; stroke-linejoin:round; stroke-width:4; stroke-opacity:1; fill:none" points="276.876,1423.18 276.876,123.472 "/>
<polyline clip-path="url(#clip810)" style="stroke:#000000; stroke-linecap:round; stroke-linejoin:round; stroke-width:4; stroke-opacity:1; fill:none" points="276.876,1421.63 295.773,1421.63 "/>
<polyline clip-path="url(#clip810)" style="stroke:#000000; stroke-linecap:round; stroke-linejoin:round; stroke-width:4; stroke-opacity:1; fill:none" points="276.876,818.802 295.773,818.802 "/>
<polyline clip-path="url(#clip810)" style="stroke:#000000; stroke-linecap:round; stroke-linejoin:round; stroke-width:4; stroke-opacity:1; fill:none" points="276.876,215.974 295.773,215.974 "/>
<path clip-path="url(#clip810)" d="M114.931 1441.42 L122.57 1441.42 L122.57 1415.06 L114.26 1416.72 L114.26 1412.46 L122.524 1410.8 L127.2 1410.8 L127.2 1441.42 L134.839 1441.42 L134.839 1445.36 L114.931 1445.36 L114.931 1441.42 Z" fill="#000000" fill-rule="nonzero" fill-opacity="1" /><path clip-path="url(#clip810)" d="M154.283 1413.88 Q150.672 1413.88 148.843 1417.44 Q147.038 1420.98 147.038 1428.11 Q147.038 1435.22 148.843 1438.78 Q150.672 1442.32 154.283 1442.32 Q157.917 1442.32 159.723 1438.78 Q161.552 1435.22 161.552 1428.11 Q161.552 1420.98 159.723 1417.44 Q157.917 1413.88 154.283 1413.88 M154.283 1410.17 Q160.093 1410.17 163.149 1414.78 Q166.227 1419.36 166.227 1428.11 Q166.227 1436.84 163.149 1441.44 Q160.093 1446.03 154.283 1446.03 Q148.473 1446.03 145.394 1441.44 Q142.339 1436.84 142.339 1428.11 Q142.339 1419.36 145.394 1414.78 Q148.473 1410.17 154.283 1410.17 Z" fill="#000000" fill-rule="nonzero" fill-opacity="1" /><path clip-path="url(#clip810)" d="M166.227 1404.27 L190.339 1404.27 L190.339 1407.47 L166.227 1407.47 L166.227 1404.27 Z" fill="#000000" fill-rule="nonzero" fill-opacity="1" /><path clip-path="url(#clip810)" d="M199.197 1414.75 L205.404 1414.75 L205.404 1393.33 L198.652 1394.68 L198.652 1391.22 L205.366 1389.87 L209.166 1389.87 L209.166 1414.75 L215.372 1414.75 L215.372 1417.95 L199.197 1417.95 L199.197 1414.75 Z" fill="#000000" fill-rule="nonzero" fill-opacity="1" /><path clip-path="url(#clip810)" d="M231.171 1392.37 Q228.237 1392.37 226.751 1395.26 Q225.284 1398.14 225.284 1403.93 Q225.284 1409.71 226.751 1412.6 Q228.237 1415.48 231.171 1415.48 Q234.124 1415.48 235.591 1412.6 Q237.076 1409.71 237.076 1403.93 Q237.076 1398.14 235.591 1395.26 Q234.124 1392.37 231.171 1392.37 M231.171 1389.36 Q235.891 1389.36 238.374 1393.1 Q240.876 1396.83 240.876 1403.93 Q240.876 1411.03 238.374 1414.77 Q235.891 1418.49 231.171 1418.49 Q226.45 1418.49 223.949 1414.77 Q221.466 1411.03 221.466 1403.93 Q221.466 1396.83 223.949 1393.1 Q226.45 1389.36 231.171 1389.36 Z" fill="#000000" fill-rule="nonzero" fill-opacity="1" /><path clip-path="url(#clip810)" d="M140.247 838.594 L147.886 838.594 L147.886 812.229 L139.575 813.895 L139.575 809.636 L147.839 807.969 L152.515 807.969 L152.515 838.594 L160.154 838.594 L160.154 842.529 L140.247 842.529 L140.247 838.594 Z" fill="#000000" fill-rule="nonzero" fill-opacity="1" /><path clip-path="url(#clip810)" d="M179.598 811.048 Q175.987 811.048 174.159 814.613 Q172.353 818.154 172.353 825.284 Q172.353 832.391 174.159 835.955 Q175.987 839.497 179.598 839.497 Q183.233 839.497 185.038 835.955 Q186.867 832.391 186.867 825.284 Q186.867 818.154 185.038 814.613 Q183.233 811.048 179.598 811.048 M179.598 807.344 Q185.409 807.344 188.464 811.951 Q191.543 816.534 191.543 825.284 Q191.543 834.011 188.464 838.617 Q185.409 843.201 179.598 843.201 Q173.788 843.201 170.71 838.617 Q167.654 834.011 167.654 825.284 Q167.654 816.534 170.71 811.951 Q173.788 807.344 179.598 807.344 Z" fill="#000000" fill-rule="nonzero" fill-opacity="1" /><path clip-path="url(#clip810)" d="M191.543 801.446 L215.654 801.446 L215.654 804.643 L191.543 804.643 L191.543 801.446 Z" fill="#000000" fill-rule="nonzero" fill-opacity="1" /><path clip-path="url(#clip810)" d="M223.892 787.039 L238.807 787.039 L238.807 790.236 L227.372 790.236 L227.372 797.12 Q228.199 796.838 229.027 796.706 Q229.854 796.556 230.682 796.556 Q235.384 796.556 238.13 799.132 Q240.876 801.709 240.876 806.11 Q240.876 810.643 238.054 813.163 Q235.233 815.664 230.099 815.664 Q228.331 815.664 226.488 815.363 Q224.663 815.063 222.707 814.461 L222.707 810.643 Q224.4 811.564 226.205 812.016 Q228.011 812.467 230.023 812.467 Q233.277 812.467 235.177 810.756 Q237.076 809.044 237.076 806.11 Q237.076 803.176 235.177 801.465 Q233.277 799.753 230.023 799.753 Q228.5 799.753 226.977 800.092 Q225.472 800.43 223.892 801.145 L223.892 787.039 Z" fill="#000000" fill-rule="nonzero" fill-opacity="1" /><path clip-path="url(#clip810)" d="M170.17 235.767 L177.809 235.767 L177.809 209.401 L169.499 211.068 L169.499 206.809 L177.762 205.142 L182.438 205.142 L182.438 235.767 L190.077 235.767 L190.077 239.702 L170.17 239.702 L170.17 235.767 Z" fill="#000000" fill-rule="nonzero" fill-opacity="1" /><path clip-path="url(#clip810)" d="M209.522 208.221 Q205.91 208.221 204.082 211.785 Q202.276 215.327 202.276 222.457 Q202.276 229.563 204.082 233.128 Q205.91 236.67 209.522 236.67 Q213.156 236.67 214.961 233.128 Q216.79 229.563 216.79 222.457 Q216.79 215.327 214.961 211.785 Q213.156 208.221 209.522 208.221 M209.522 204.517 Q215.332 204.517 218.387 209.123 Q221.466 213.707 221.466 222.457 Q221.466 231.184 218.387 235.79 Q215.332 240.373 209.522 240.373 Q203.711 240.373 200.633 235.79 Q197.577 231.184 197.577 222.457 Q197.577 213.707 200.633 209.123 Q203.711 204.517 209.522 204.517 Z" fill="#000000" fill-rule="nonzero" fill-opacity="1" /><path clip-path="url(#clip810)" d="M231.171 186.713 Q228.237 186.713 226.751 189.609 Q225.284 192.487 225.284 198.28 Q225.284 204.054 226.751 206.95 Q228.237 209.828 231.171 209.828 Q234.124 209.828 235.591 206.95 Q237.076 204.054 237.076 198.28 Q237.076 192.487 235.591 189.609 Q234.124 186.713 231.171 186.713 M231.171 183.704 Q235.891 183.704 238.374 187.447 Q240.876 191.17 240.876 198.28 Q240.876 205.37 238.374 209.113 Q235.891 212.837 231.171 212.837 Q226.45 212.837 223.949 209.113 Q221.466 205.37 221.466 198.28 Q221.466 191.17 223.949 187.447 Q226.45 183.704 231.171 183.704 Z" fill="#000000" fill-rule="nonzero" fill-opacity="1" /><path clip-path="url(#clip810)" d="M32.4621 801.797 Q32.4621 806.507 36.1542 809.244 Q39.8145 811.982 46.212 811.982 Q52.6095 811.982 56.3017 809.276 Q59.9619 806.539 59.9619 801.797 Q59.9619 797.118 56.2698 794.381 Q52.5777 791.643 46.212 791.643 Q39.8781 791.643 36.186 794.381 Q32.4621 797.118 32.4621 801.797 M27.4968 801.797 Q27.4968 794.158 32.4621 789.797 Q37.4273 785.437 46.212 785.437 Q54.9649 785.437 59.9619 789.797 Q64.9272 794.158 64.9272 801.797 Q64.9272 809.467 59.9619 813.828 Q54.9649 818.156 46.212 818.156 Q37.4273 818.156 32.4621 813.828 Q27.4968 809.467 27.4968 801.797 Z" fill="#000000" fill-rule="nonzero" fill-opacity="1" /><path clip-path="url(#clip810)" d="M46.212 750.139 Q39.7508 750.139 36.0905 752.812 Q32.3984 755.454 32.3984 760.101 Q32.3984 764.748 36.0905 767.422 Q39.7508 770.064 46.212 770.064 Q52.6732 770.064 56.3653 767.422 Q60.0256 764.748 60.0256 760.101 Q60.0256 755.454 56.3653 752.812 Q52.6732 750.139 46.212 750.139 M33.7671 770.064 Q30.5842 768.218 29.0564 765.417 Q27.4968 762.584 27.4968 758.669 Q27.4968 752.176 32.6531 748.134 Q37.8093 744.06 46.212 744.06 Q54.6147 744.06 59.771 748.134 Q64.9272 752.176 64.9272 758.669 Q64.9272 762.584 63.3994 765.417 Q61.8398 768.218 58.657 770.064 L64.0042 770.064 L64.0042 775.952 L14.479 775.952 L14.479 770.064 L33.7671 770.064 Z" fill="#000000" fill-rule="nonzero" fill-opacity="1" /><path clip-path="url(#clip810)" d="M28.3562 734.352 L28.3562 728.495 L64.6407 728.495 Q71.452 728.495 74.5076 731.105 Q77.5631 733.684 77.5631 739.445 L77.5631 741.673 L72.5979 741.673 L72.5979 740.113 Q72.5979 736.771 71.0383 735.561 Q69.5105 734.352 64.6407 734.352 L28.3562 734.352 M14.479 734.352 L14.479 728.495 L21.895 728.495 L21.895 734.352 L14.479 734.352 Z" fill="#000000" fill-rule="nonzero" fill-opacity="1" /><path clip-path="url(#clip810)" d="M969.415 65.7705 L969.415 89.8329 L961.921 89.8329 L961.921 27.2059 L969.415 27.2059 L969.415 34.0924 Q971.765 30.0415 975.33 28.0971 Q978.935 26.1121 983.918 26.1121 Q992.181 26.1121 997.326 32.6746 Q1002.51 39.2371 1002.51 49.9314 Q1002.51 60.6258 997.326 67.1883 Q992.181 73.7508 983.918 73.7508 Q978.935 73.7508 975.33 71.8063 Q971.765 69.8214 969.415 65.7705 M994.774 49.9314 Q994.774 41.7081 991.371 37.0496 Q988.009 32.3505 982.095 32.3505 Q976.18 32.3505 972.778 37.0496 Q969.415 41.7081 969.415 49.9314 Q969.415 58.1548 972.778 62.8538 Q976.18 67.5124 982.095 67.5124 Q988.009 67.5124 991.371 62.8538 Q994.774 58.1548 994.774 49.9314 Z" fill="#000000" fill-rule="nonzero" fill-opacity="1" /><path clip-path="url(#clip810)" d="M1041.16 34.1734 Q1039.9 33.4443 1038.4 33.1202 Q1036.94 32.7556 1035.16 32.7556 Q1028.84 32.7556 1025.44 36.8875 Q1022.08 40.9789 1022.08 48.6757 L1022.08 72.576 L1014.58 72.576 L1014.58 27.2059 L1022.08 27.2059 L1022.08 34.2544 Q1024.43 30.1225 1028.19 28.1376 Q1031.96 26.1121 1037.35 26.1121 Q1038.12 26.1121 1039.05 26.2337 Q1039.98 26.3147 1041.12 26.5172 L1041.16 34.1734 Z" fill="#000000" fill-rule="nonzero" fill-opacity="1" /><path clip-path="url(#clip810)" d="M1064.73 32.4315 Q1058.74 32.4315 1055.25 37.1306 Q1051.77 41.7891 1051.77 49.9314 Q1051.77 58.0738 1055.21 62.7728 Q1058.7 67.4314 1064.73 67.4314 Q1070.69 67.4314 1074.17 62.7323 Q1077.66 58.0333 1077.66 49.9314 Q1077.66 41.8701 1074.17 37.1711 Q1070.69 32.4315 1064.73 32.4315 M1064.73 26.1121 Q1074.46 26.1121 1080.01 32.4315 Q1085.55 38.7509 1085.55 49.9314 Q1085.55 61.0714 1080.01 67.4314 Q1074.46 73.7508 1064.73 73.7508 Q1054.97 73.7508 1049.42 67.4314 Q1043.91 61.0714 1043.91 49.9314 Q1043.91 38.7509 1049.42 32.4315 Q1054.97 26.1121 1064.73 26.1121 Z" fill="#000000" fill-rule="nonzero" fill-opacity="1" /><path clip-path="url(#clip810)" d="M1130.48 49.9314 Q1130.48 41.7081 1127.08 37.0496 Q1123.71 32.3505 1117.8 32.3505 Q1111.89 32.3505 1108.48 37.0496 Q1105.12 41.7081 1105.12 49.9314 Q1105.12 58.1548 1108.48 62.8538 Q1111.89 67.5124 1117.8 67.5124 Q1123.71 67.5124 1127.08 62.8538 Q1130.48 58.1548 1130.48 49.9314 M1105.12 34.0924 Q1107.47 30.0415 1111.03 28.0971 Q1114.64 26.1121 1119.62 26.1121 Q1127.89 26.1121 1133.03 32.6746 Q1138.22 39.2371 1138.22 49.9314 Q1138.22 60.6258 1133.03 67.1883 Q1127.89 73.7508 1119.62 73.7508 Q1114.64 73.7508 1111.03 71.8063 Q1107.47 69.8214 1105.12 65.7705 L1105.12 72.576 L1097.63 72.576 L1097.63 9.54393 L1105.12 9.54393 L1105.12 34.0924 Z" fill="#000000" fill-rule="nonzero" fill-opacity="1" /><path clip-path="url(#clip810)" d="M1150.57 9.54393 L1158.03 9.54393 L1158.03 72.576 L1150.57 72.576 L1150.57 9.54393 Z" fill="#000000" fill-rule="nonzero" fill-opacity="1" /><path clip-path="url(#clip810)" d="M1212.43 48.0275 L1212.43 51.6733 L1178.16 51.6733 Q1178.64 59.3701 1182.78 63.421 Q1186.95 67.4314 1194.36 67.4314 Q1198.66 67.4314 1202.67 66.3781 Q1206.72 65.3249 1210.69 63.2184 L1210.69 70.267 Q1206.68 71.9684 1202.46 72.8596 Q1198.25 73.7508 1193.92 73.7508 Q1183.06 73.7508 1176.7 67.4314 Q1170.38 61.1119 1170.38 50.3365 Q1170.38 39.1965 1176.38 32.6746 Q1182.41 26.1121 1192.62 26.1121 Q1201.78 26.1121 1207.08 32.0264 Q1212.43 37.9003 1212.43 48.0275 M1204.98 45.84 Q1204.89 39.7232 1201.53 36.0774 Q1198.21 32.4315 1192.7 32.4315 Q1186.46 32.4315 1182.7 35.9558 Q1178.97 39.4801 1178.4 45.8805 L1204.98 45.84 M1186.3 6.22219 L1197.72 21.3726 L1191.53 21.3726 L1178.32 6.22219 L1186.3 6.22219 Z" fill="#000000" fill-rule="nonzero" fill-opacity="1" /><path clip-path="url(#clip810)" d="M1259.99 35.9153 Q1262.78 30.8922 1266.67 28.5022 Q1270.56 26.1121 1275.83 26.1121 Q1282.91 26.1121 1286.76 31.0947 Q1290.61 36.0368 1290.61 45.1919 L1290.61 72.576 L1283.12 72.576 L1283.12 45.4349 Q1283.12 38.913 1280.81 35.7533 Q1278.5 32.5936 1273.76 32.5936 Q1267.97 32.5936 1264.6 36.4419 Q1261.24 40.2903 1261.24 46.9338 L1261.24 72.576 L1253.75 72.576 L1253.75 45.4349 Q1253.75 38.8725 1251.44 35.7533 Q1249.13 32.5936 1244.31 32.5936 Q1238.6 32.5936 1235.24 36.4824 Q1231.87 40.3308 1231.87 46.9338 L1231.87 72.576 L1224.38 72.576 L1224.38 27.2059 L1231.87 27.2059 L1231.87 34.2544 Q1234.43 30.082 1237.99 28.0971 Q1241.56 26.1121 1246.46 26.1121 Q1251.4 26.1121 1254.84 28.6237 Q1258.33 31.1352 1259.99 35.9153 Z" fill="#000000" fill-rule="nonzero" fill-opacity="1" /><path clip-path="url(#clip810)" d="M1344.29 48.0275 L1344.29 51.6733 L1310.02 51.6733 Q1310.5 59.3701 1314.63 63.421 Q1318.81 67.4314 1326.22 67.4314 Q1330.51 67.4314 1334.52 66.3781 Q1338.57 65.3249 1342.54 63.2184 L1342.54 70.267 Q1338.53 71.9684 1334.32 72.8596 Q1330.11 73.7508 1325.77 73.7508 Q1314.92 73.7508 1308.56 67.4314 Q1302.24 61.1119 1302.24 50.3365 Q1302.24 39.1965 1308.23 32.6746 Q1314.27 26.1121 1324.48 26.1121 Q1333.63 26.1121 1338.94 32.0264 Q1344.29 37.9003 1344.29 48.0275 M1336.83 45.84 Q1336.75 39.7232 1333.39 36.0774 Q1330.07 32.4315 1324.56 32.4315 Q1318.32 32.4315 1314.55 35.9558 Q1310.83 39.4801 1310.26 45.8805 L1336.83 45.84 Z" fill="#000000" fill-rule="nonzero" fill-opacity="1" /><path clip-path="url(#clip810)" d="M1384.8 62.2867 L1393.34 62.2867 L1393.34 72.576 L1384.8 72.576 L1384.8 62.2867 M1384.8 29.6769 L1393.34 29.6769 L1393.34 39.9662 L1384.8 39.9662 L1384.8 29.6769 Z" fill="#000000" fill-rule="nonzero" fill-opacity="1" /><path clip-path="url(#clip810)" d="M1444.59 14.324 L1444.59 27.2059 L1459.94 27.2059 L1459.94 32.9987 L1444.59 32.9987 L1444.59 57.6282 Q1444.59 63.1779 1446.09 64.7578 Q1447.62 66.3376 1452.28 66.3376 L1459.94 66.3376 L1459.94 72.576 L1452.28 72.576 Q1443.65 72.576 1440.37 69.3758 Q1437.09 66.1351 1437.09 57.6282 L1437.09 32.9987 L1431.62 32.9987 L1431.62 27.2059 L1437.09 27.2059 L1437.09 14.324 L1444.59 14.324 Z" fill="#000000" fill-rule="nonzero" fill-opacity="1" /><path clip-path="url(#clip810)" d="M1476.95 65.7705 L1476.95 89.8329 L1469.46 89.8329 L1469.46 27.2059 L1476.95 27.2059 L1476.95 34.0924 Q1479.3 30.0415 1482.87 28.0971 Q1486.47 26.1121 1491.46 26.1121 Q1499.72 26.1121 1504.86 32.6746 Q1510.05 39.2371 1510.05 49.9314 Q1510.05 60.6258 1504.86 67.1883 Q1499.72 73.7508 1491.46 73.7508 Q1486.47 73.7508 1482.87 71.8063 Q1479.3 69.8214 1476.95 65.7705 M1502.31 49.9314 Q1502.31 41.7081 1498.91 37.0496 Q1495.55 32.3505 1489.63 32.3505 Q1483.72 32.3505 1480.32 37.0496 Q1476.95 41.7081 1476.95 49.9314 Q1476.95 58.1548 1480.32 62.8538 Q1483.72 67.5124 1489.63 67.5124 Q1495.55 67.5124 1498.91 62.8538 Q1502.31 58.1548 1502.31 49.9314 Z" fill="#000000" fill-rule="nonzero" fill-opacity="1" /><path clip-path="url(#clip810)" d="M1530.51 65.6895 L1559.06 65.6895 L1559.06 72.576 L1520.66 72.576 L1520.66 65.6895 Q1525.32 60.8689 1533.34 52.7671 Q1541.4 44.6248 1543.47 42.2752 Q1547.4 37.8598 1548.94 34.8216 Q1550.52 31.7429 1550.52 28.7857 Q1550.52 23.9651 1547.11 20.927 Q1543.75 17.8888 1538.32 17.8888 Q1534.48 17.8888 1530.18 19.2256 Q1525.93 20.5624 1521.07 23.2765 L1521.07 15.0127 Q1526.01 13.0277 1530.3 12.015 Q1534.6 11.0023 1538.16 11.0023 Q1547.56 11.0023 1553.15 15.7013 Q1558.74 20.4004 1558.74 28.2591 Q1558.74 31.9859 1557.32 35.3482 Q1555.95 38.6699 1552.26 43.2069 Q1551.25 44.3817 1545.82 50.0125 Q1540.39 55.6027 1530.51 65.6895 Z" fill="#000000" fill-rule="nonzero" fill-opacity="1" /><path clip-path="url(#clip810)" d="M1598.72 19.2256 L1578.06 51.5113 L1598.72 51.5113 L1598.72 19.2256 M1596.58 12.096 L1606.87 12.096 L1606.87 51.5113 L1615.49 51.5113 L1615.49 58.3168 L1606.87 58.3168 L1606.87 72.576 L1598.72 72.576 L1598.72 58.3168 L1571.42 58.3168 L1571.42 50.4176 L1596.58 12.096 Z" fill="#000000" fill-rule="nonzero" fill-opacity="1" /><path clip-path="url(#clip810)" d="M1647.54 39.075 Q1642.03 39.075 1638.79 42.8424 Q1635.59 46.6097 1635.59 53.1722 Q1635.59 59.6941 1638.79 63.502 Q1642.03 67.2693 1647.54 67.2693 Q1653.05 67.2693 1656.25 63.502 Q1659.49 59.6941 1659.49 53.1722 Q1659.49 46.6097 1656.25 42.8424 Q1653.05 39.075 1647.54 39.075 M1663.78 13.4328 L1663.78 20.8865 Q1660.7 19.4281 1657.54 18.6585 Q1654.42 17.8888 1651.34 17.8888 Q1643.24 17.8888 1638.95 23.3575 Q1634.7 28.8262 1634.09 39.8852 Q1636.48 36.3609 1640.08 34.4975 Q1643.69 32.5936 1648.02 32.5936 Q1657.14 32.5936 1662.4 38.1433 Q1667.71 43.6525 1667.71 53.1722 Q1667.71 62.4892 1662.2 68.12 Q1656.69 73.7508 1647.54 73.7508 Q1637.04 73.7508 1631.5 65.73 Q1625.95 57.6687 1625.95 42.3968 Q1625.95 28.0566 1632.75 19.5497 Q1639.56 11.0023 1651.02 11.0023 Q1654.1 11.0023 1657.22 11.6099 Q1660.38 12.2175 1663.78 13.4328 Z" fill="#000000" fill-rule="nonzero" fill-opacity="1" /><polyline clip-path="url(#clip812)" style="stroke:#009af9; stroke-linecap:round; stroke-linejoin:round; stroke-width:4; stroke-opacity:1; fill:none" points="335.627,160.256 662.023,199.488 988.419,247.605 1314.82,292.577 1641.21,324.478 1967.61,379.246 2294,1386.4 "/>
<polyline clip-path="url(#clip812)" style="stroke:#e26f46; stroke-linecap:round; stroke-linejoin:round; stroke-width:4; stroke-opacity:1; fill:none" points="335.627,160.256 662.023,199.488 988.419,247.605 1314.82,292.577 1641.21,324.478 1967.61,379.246 2294,1386.4 "/>
<path clip-path="url(#clip810)" d="M1504.4 322.316 L2283.56 322.316 L2283.56 166.796 L1504.4 166.796  Z" fill="#ffffff" fill-rule="evenodd" fill-opacity="1"/>
<polyline clip-path="url(#clip810)" style="stroke:#000000; stroke-linecap:round; stroke-linejoin:round; stroke-width:4; stroke-opacity:1; fill:none" points="1504.4,322.316 2283.56,322.316 2283.56,166.796 1504.4,166.796 1504.4,322.316 "/>
<polyline clip-path="url(#clip810)" style="stroke:#009af9; stroke-linecap:round; stroke-linejoin:round; stroke-width:4; stroke-opacity:1; fill:none" points="1527.47,218.636 1665.86,218.636 "/>
<path clip-path="url(#clip810)" d="M1688.92 201.356 L1693.6 201.356 L1693.6 231.981 L1710.43 231.981 L1710.43 235.916 L1688.92 235.916 L1688.92 201.356 Z" fill="#000000" fill-rule="nonzero" fill-opacity="1" /><path clip-path="url(#clip810)" d="M1715.34 201.356 L1722.3 201.356 L1731.12 224.874 L1739.99 201.356 L1746.96 201.356 L1746.96 235.916 L1742.4 235.916 L1742.4 205.569 L1733.48 229.272 L1728.78 229.272 L1719.87 205.569 L1719.87 235.916 L1715.34 235.916 L1715.34 201.356 Z" fill="#000000" fill-rule="nonzero" fill-opacity="1" /><path clip-path="url(#clip810)" d="M1775.75 243.786 L1775.75 247.096 L1751.12 247.096 L1751.12 243.786 L1775.75 243.786 Z" fill="#000000" fill-rule="nonzero" fill-opacity="1" /><path clip-path="url(#clip810)" d="M1791.49 205.962 L1785.15 223.161 L1797.86 223.161 L1791.49 205.962 M1788.85 201.356 L1794.15 201.356 L1807.33 235.916 L1802.46 235.916 L1799.32 227.05 L1783.74 227.05 L1780.59 235.916 L1775.66 235.916 L1788.85 201.356 Z" fill="#000000" fill-rule="nonzero" fill-opacity="1" /><path clip-path="url(#clip810)" d="M1833.74 220.268 L1833.74 235.916 L1829.48 235.916 L1829.48 220.407 Q1829.48 216.726 1828.04 214.897 Q1826.61 213.069 1823.74 213.069 Q1820.29 213.069 1818.3 215.268 Q1816.31 217.467 1816.31 221.263 L1816.31 235.916 L1812.02 235.916 L1812.02 209.99 L1816.31 209.99 L1816.31 214.018 Q1817.83 211.68 1819.9 210.522 Q1821.98 209.365 1824.69 209.365 Q1829.15 209.365 1831.45 212.143 Q1833.74 214.897 1833.74 220.268 Z" fill="#000000" fill-rule="nonzero" fill-opacity="1" /><path clip-path="url(#clip810)" d="M1859.29 213.925 L1859.29 199.897 L1863.55 199.897 L1863.55 235.916 L1859.29 235.916 L1859.29 232.027 Q1857.95 234.342 1855.89 235.476 Q1853.85 236.587 1850.98 236.587 Q1846.28 236.587 1843.32 232.837 Q1840.38 229.087 1840.38 222.976 Q1840.38 216.865 1843.32 213.115 Q1846.28 209.365 1850.98 209.365 Q1853.85 209.365 1855.89 210.499 Q1857.95 211.61 1859.29 213.925 M1844.78 222.976 Q1844.78 227.675 1846.7 230.36 Q1848.64 233.022 1852.02 233.022 Q1855.4 233.022 1857.35 230.36 Q1859.29 227.675 1859.29 222.976 Q1859.29 218.277 1857.35 215.615 Q1855.4 212.93 1852.02 212.93 Q1848.64 212.93 1846.7 215.615 Q1844.78 218.277 1844.78 222.976 Z" fill="#000000" fill-rule="nonzero" fill-opacity="1" /><path clip-path="url(#clip810)" d="M1887.35 213.971 Q1886.63 213.555 1885.77 213.37 Q1884.94 213.161 1883.92 213.161 Q1880.31 213.161 1878.37 215.522 Q1876.45 217.86 1876.45 222.258 L1876.45 235.916 L1872.16 235.916 L1872.16 209.99 L1876.45 209.99 L1876.45 214.018 Q1877.79 211.657 1879.94 210.522 Q1882.09 209.365 1885.17 209.365 Q1885.61 209.365 1886.14 209.434 Q1886.68 209.481 1887.33 209.596 L1887.35 213.971 Z" fill="#000000" fill-rule="nonzero" fill-opacity="1" /><path clip-path="url(#clip810)" d="M1912.95 221.888 L1912.95 223.971 L1893.37 223.971 Q1893.64 228.369 1896.01 230.684 Q1898.39 232.976 1902.63 232.976 Q1905.08 232.976 1907.37 232.374 Q1909.69 231.772 1911.95 230.569 L1911.95 234.596 Q1909.66 235.568 1907.26 236.078 Q1904.85 236.587 1902.37 236.587 Q1896.17 236.587 1892.53 232.976 Q1888.92 229.365 1888.92 223.207 Q1888.92 216.842 1892.35 213.115 Q1895.8 209.365 1901.63 209.365 Q1906.86 209.365 1909.89 212.745 Q1912.95 216.101 1912.95 221.888 M1908.69 220.638 Q1908.64 217.143 1906.72 215.059 Q1904.83 212.976 1901.68 212.976 Q1898.11 212.976 1895.96 214.99 Q1893.83 217.004 1893.51 220.661 L1908.69 220.638 Z" fill="#000000" fill-rule="nonzero" fill-opacity="1" /><path clip-path="url(#clip810)" d="M1919.94 209.99 L1924.2 209.99 L1924.2 235.916 L1919.94 235.916 L1919.94 209.99 M1919.94 199.897 L1924.2 199.897 L1924.2 205.291 L1919.94 205.291 L1919.94 199.897 Z" fill="#000000" fill-rule="nonzero" fill-opacity="1" /><path clip-path="url(#clip810)" d="M1952.81 243.786 L1952.81 247.096 L1928.18 247.096 L1928.18 243.786 L1952.81 243.786 Z" fill="#000000" fill-rule="nonzero" fill-opacity="1" /><path clip-path="url(#clip810)" d="M1968.6 222.883 Q1963.44 222.883 1961.45 224.064 Q1959.45 225.244 1959.45 228.092 Q1959.45 230.36 1960.94 231.703 Q1962.44 233.022 1965.01 233.022 Q1968.55 233.022 1970.68 230.522 Q1972.83 227.999 1972.83 223.832 L1972.83 222.883 L1968.6 222.883 M1977.09 221.124 L1977.09 235.916 L1972.83 235.916 L1972.83 231.981 Q1971.38 234.342 1969.2 235.476 Q1967.02 236.587 1963.88 236.587 Q1959.89 236.587 1957.53 234.365 Q1955.2 232.119 1955.2 228.369 Q1955.2 223.994 1958.11 221.772 Q1961.05 219.55 1966.86 219.55 L1972.83 219.55 L1972.83 219.133 Q1972.83 216.194 1970.89 214.596 Q1968.97 212.976 1965.47 212.976 Q1963.25 212.976 1961.14 213.508 Q1959.04 214.041 1957.09 215.106 L1957.09 211.17 Q1959.43 210.268 1961.63 209.828 Q1963.83 209.365 1965.91 209.365 Q1971.54 209.365 1974.32 212.282 Q1977.09 215.198 1977.09 221.124 Z" fill="#000000" fill-rule="nonzero" fill-opacity="1" /><path clip-path="url(#clip810)" d="M1985.87 199.897 L1990.13 199.897 L1990.13 235.916 L1985.87 235.916 L1985.87 199.897 Z" fill="#000000" fill-rule="nonzero" fill-opacity="1" /><path clip-path="url(#clip810)" d="M2003.25 202.629 L2003.25 209.99 L2012.02 209.99 L2012.02 213.3 L2003.25 213.3 L2003.25 227.374 Q2003.25 230.545 2004.11 231.448 Q2004.99 232.351 2007.65 232.351 L2012.02 232.351 L2012.02 235.916 L2007.65 235.916 Q2002.72 235.916 2000.84 234.087 Q1998.97 232.235 1998.97 227.374 L1998.97 213.3 L1995.84 213.3 L1995.84 209.99 L1998.97 209.99 L1998.97 202.629 L2003.25 202.629 Z" fill="#000000" fill-rule="nonzero" fill-opacity="1" /><polyline clip-path="url(#clip810)" style="stroke:#e26f46; stroke-linecap:round; stroke-linejoin:round; stroke-width:4; stroke-opacity:1; fill:none" points="1527.47,270.476 1665.86,270.476 "/>
<path clip-path="url(#clip810)" d="M1688.92 253.196 L1693.6 253.196 L1693.6 283.821 L1710.43 283.821 L1710.43 287.756 L1688.92 287.756 L1688.92 253.196 Z" fill="#000000" fill-rule="nonzero" fill-opacity="1" /><path clip-path="url(#clip810)" d="M1715.34 253.196 L1722.3 253.196 L1731.12 276.714 L1739.99 253.196 L1746.96 253.196 L1746.96 287.756 L1742.4 287.756 L1742.4 257.409 L1733.48 281.112 L1728.78 281.112 L1719.87 257.409 L1719.87 287.756 L1715.34 287.756 L1715.34 253.196 Z" fill="#000000" fill-rule="nonzero" fill-opacity="1" /><path clip-path="url(#clip810)" d="M1775.75 295.626 L1775.75 298.936 L1751.12 298.936 L1751.12 295.626 L1775.75 295.626 Z" fill="#000000" fill-rule="nonzero" fill-opacity="1" /><path clip-path="url(#clip810)" d="M1791.49 257.802 L1785.15 275.001 L1797.86 275.001 L1791.49 257.802 M1788.85 253.196 L1794.15 253.196 L1807.33 287.756 L1802.46 287.756 L1799.32 278.89 L1783.74 278.89 L1780.59 287.756 L1775.66 287.756 L1788.85 253.196 Z" fill="#000000" fill-rule="nonzero" fill-opacity="1" /><path clip-path="url(#clip810)" d="M1833.74 272.108 L1833.74 287.756 L1829.48 287.756 L1829.48 272.247 Q1829.48 268.566 1828.04 266.737 Q1826.61 264.909 1823.74 264.909 Q1820.29 264.909 1818.3 267.108 Q1816.31 269.307 1816.31 273.103 L1816.31 287.756 L1812.02 287.756 L1812.02 261.83 L1816.31 261.83 L1816.31 265.858 Q1817.83 263.52 1819.9 262.362 Q1821.98 261.205 1824.69 261.205 Q1829.15 261.205 1831.45 263.983 Q1833.74 266.737 1833.74 272.108 Z" fill="#000000" fill-rule="nonzero" fill-opacity="1" /><path clip-path="url(#clip810)" d="M1859.29 265.765 L1859.29 251.737 L1863.55 251.737 L1863.55 287.756 L1859.29 287.756 L1859.29 283.867 Q1857.95 286.182 1855.89 287.316 Q1853.85 288.427 1850.98 288.427 Q1846.28 288.427 1843.32 284.677 Q1840.38 280.927 1840.38 274.816 Q1840.38 268.705 1843.32 264.955 Q1846.28 261.205 1850.98 261.205 Q1853.85 261.205 1855.89 262.339 Q1857.95 263.45 1859.29 265.765 M1844.78 274.816 Q1844.78 279.515 1846.7 282.2 Q1848.64 284.862 1852.02 284.862 Q1855.4 284.862 1857.35 282.2 Q1859.29 279.515 1859.29 274.816 Q1859.29 270.117 1857.35 267.455 Q1855.4 264.77 1852.02 264.77 Q1848.64 264.77 1846.7 267.455 Q1844.78 270.117 1844.78 274.816 Z" fill="#000000" fill-rule="nonzero" fill-opacity="1" /><path clip-path="url(#clip810)" d="M1887.35 265.811 Q1886.63 265.395 1885.77 265.21 Q1884.94 265.001 1883.92 265.001 Q1880.31 265.001 1878.37 267.362 Q1876.45 269.7 1876.45 274.098 L1876.45 287.756 L1872.16 287.756 L1872.16 261.83 L1876.45 261.83 L1876.45 265.858 Q1877.79 263.497 1879.94 262.362 Q1882.09 261.205 1885.17 261.205 Q1885.61 261.205 1886.14 261.274 Q1886.68 261.321 1887.33 261.436 L1887.35 265.811 Z" fill="#000000" fill-rule="nonzero" fill-opacity="1" /><path clip-path="url(#clip810)" d="M1912.95 273.728 L1912.95 275.811 L1893.37 275.811 Q1893.64 280.209 1896.01 282.524 Q1898.39 284.816 1902.63 284.816 Q1905.08 284.816 1907.37 284.214 Q1909.69 283.612 1911.95 282.409 L1911.95 286.436 Q1909.66 287.408 1907.26 287.918 Q1904.85 288.427 1902.37 288.427 Q1896.17 288.427 1892.53 284.816 Q1888.92 281.205 1888.92 275.047 Q1888.92 268.682 1892.35 264.955 Q1895.8 261.205 1901.63 261.205 Q1906.86 261.205 1909.89 264.585 Q1912.95 267.941 1912.95 273.728 M1908.69 272.478 Q1908.64 268.983 1906.72 266.899 Q1904.83 264.816 1901.68 264.816 Q1898.11 264.816 1895.96 266.83 Q1893.83 268.844 1893.51 272.501 L1908.69 272.478 Z" fill="#000000" fill-rule="nonzero" fill-opacity="1" /><path clip-path="url(#clip810)" d="M1919.94 261.83 L1924.2 261.83 L1924.2 287.756 L1919.94 287.756 L1919.94 261.83 M1919.94 251.737 L1924.2 251.737 L1924.2 257.131 L1919.94 257.131 L1919.94 251.737 Z" fill="#000000" fill-rule="nonzero" fill-opacity="1" /><path clip-path="url(#clip810)" d="M1952.81 295.626 L1952.81 298.936 L1928.18 298.936 L1928.18 295.626 L1952.81 295.626 Z" fill="#000000" fill-rule="nonzero" fill-opacity="1" /><path clip-path="url(#clip810)" d="M1968.6 274.723 Q1963.44 274.723 1961.45 275.904 Q1959.45 277.084 1959.45 279.932 Q1959.45 282.2 1960.94 283.543 Q1962.44 284.862 1965.01 284.862 Q1968.55 284.862 1970.68 282.362 Q1972.83 279.839 1972.83 275.672 L1972.83 274.723 L1968.6 274.723 M1977.09 272.964 L1977.09 287.756 L1972.83 287.756 L1972.83 283.821 Q1971.38 286.182 1969.2 287.316 Q1967.02 288.427 1963.88 288.427 Q1959.89 288.427 1957.53 286.205 Q1955.2 283.959 1955.2 280.209 Q1955.2 275.834 1958.11 273.612 Q1961.05 271.39 1966.86 271.39 L1972.83 271.39 L1972.83 270.973 Q1972.83 268.034 1970.89 266.436 Q1968.97 264.816 1965.47 264.816 Q1963.25 264.816 1961.14 265.348 Q1959.04 265.881 1957.09 266.946 L1957.09 263.01 Q1959.43 262.108 1961.63 261.668 Q1963.83 261.205 1965.91 261.205 Q1971.54 261.205 1974.32 264.122 Q1977.09 267.038 1977.09 272.964 Z" fill="#000000" fill-rule="nonzero" fill-opacity="1" /><path clip-path="url(#clip810)" d="M1985.87 251.737 L1990.13 251.737 L1990.13 287.756 L1985.87 287.756 L1985.87 251.737 Z" fill="#000000" fill-rule="nonzero" fill-opacity="1" /><path clip-path="url(#clip810)" d="M2003.25 254.469 L2003.25 261.83 L2012.02 261.83 L2012.02 265.14 L2003.25 265.14 L2003.25 279.214 Q2003.25 282.385 2004.11 283.288 Q2004.99 284.191 2007.65 284.191 L2012.02 284.191 L2012.02 287.756 L2007.65 287.756 Q2002.72 287.756 2000.84 285.927 Q1998.97 284.075 1998.97 279.214 L1998.97 265.14 L1995.84 265.14 L1995.84 261.83 L1998.97 261.83 L1998.97 254.469 L2003.25 254.469 Z" fill="#000000" fill-rule="nonzero" fill-opacity="1" /><path clip-path="url(#clip810)" d="M2037.32 295.626 L2037.32 298.936 L2012.69 298.936 L2012.69 295.626 L2037.32 295.626 Z" fill="#000000" fill-rule="nonzero" fill-opacity="1" /><path clip-path="url(#clip810)" d="M2043.88 274.816 Q2043.88 279.515 2045.8 282.2 Q2047.74 284.862 2051.12 284.862 Q2054.5 284.862 2056.44 282.2 Q2058.39 279.515 2058.39 274.816 Q2058.39 270.117 2056.44 267.455 Q2054.5 264.77 2051.12 264.77 Q2047.74 264.77 2045.8 267.455 Q2043.88 270.117 2043.88 274.816 M2058.39 283.867 Q2057.05 286.182 2054.99 287.316 Q2052.95 288.427 2050.08 288.427 Q2045.38 288.427 2042.42 284.677 Q2039.48 280.927 2039.48 274.816 Q2039.48 268.705 2042.42 264.955 Q2045.38 261.205 2050.08 261.205 Q2052.95 261.205 2054.99 262.339 Q2057.05 263.45 2058.39 265.765 L2058.39 261.83 L2062.65 261.83 L2062.65 297.617 L2058.39 297.617 L2058.39 283.867 Z" fill="#000000" fill-rule="nonzero" fill-opacity="1" /><path clip-path="url(#clip810)" d="M2086.44 265.811 Q2085.73 265.395 2084.87 265.21 Q2084.04 265.001 2083.02 265.001 Q2079.41 265.001 2077.46 267.362 Q2075.54 269.7 2075.54 274.098 L2075.54 287.756 L2071.26 287.756 L2071.26 261.83 L2075.54 261.83 L2075.54 265.858 Q2076.88 263.497 2079.04 262.362 Q2081.19 261.205 2084.27 261.205 Q2084.71 261.205 2085.24 261.274 Q2085.77 261.321 2086.42 261.436 L2086.44 265.811 Z" fill="#000000" fill-rule="nonzero" fill-opacity="1" /><path clip-path="url(#clip810)" d="M2110.26 266.807 Q2111.86 263.936 2114.08 262.571 Q2116.31 261.205 2119.31 261.205 Q2123.37 261.205 2125.56 264.052 Q2127.76 266.876 2127.76 272.108 L2127.76 287.756 L2123.48 287.756 L2123.48 272.247 Q2123.48 268.52 2122.16 266.714 Q2120.84 264.909 2118.13 264.909 Q2114.82 264.909 2112.9 267.108 Q2110.98 269.307 2110.98 273.103 L2110.98 287.756 L2106.7 287.756 L2106.7 272.247 Q2106.7 268.497 2105.38 266.714 Q2104.06 264.909 2101.31 264.909 Q2098.04 264.909 2096.12 267.131 Q2094.2 269.33 2094.2 273.103 L2094.2 287.756 L2089.92 287.756 L2089.92 261.83 L2094.2 261.83 L2094.2 265.858 Q2095.66 263.473 2097.69 262.339 Q2099.73 261.205 2102.53 261.205 Q2105.36 261.205 2107.32 262.64 Q2109.31 264.075 2110.26 266.807 Z" fill="#000000" fill-rule="nonzero" fill-opacity="1" /><path clip-path="url(#clip810)" d="M2135.82 277.524 L2135.82 261.83 L2140.08 261.83 L2140.08 277.362 Q2140.08 281.043 2141.51 282.895 Q2142.95 284.723 2145.82 284.723 Q2149.27 284.723 2151.26 282.524 Q2153.27 280.325 2153.27 276.529 L2153.27 261.83 L2157.53 261.83 L2157.53 287.756 L2153.27 287.756 L2153.27 283.774 Q2151.72 286.135 2149.66 287.293 Q2147.62 288.427 2144.92 288.427 Q2140.45 288.427 2138.13 285.649 Q2135.82 282.871 2135.82 277.524 M2146.54 261.205 L2146.54 261.205 Z" fill="#000000" fill-rule="nonzero" fill-opacity="1" /><path clip-path="url(#clip810)" d="M2186.49 266.807 Q2188.09 263.936 2190.31 262.571 Q2192.53 261.205 2195.54 261.205 Q2199.59 261.205 2201.79 264.052 Q2203.99 266.876 2203.99 272.108 L2203.99 287.756 L2199.71 287.756 L2199.71 272.247 Q2199.71 268.52 2198.39 266.714 Q2197.07 264.909 2194.36 264.909 Q2191.05 264.909 2189.13 267.108 Q2187.21 269.307 2187.21 273.103 L2187.21 287.756 L2182.93 287.756 L2182.93 272.247 Q2182.93 268.497 2181.61 266.714 Q2180.29 264.909 2177.53 264.909 Q2174.27 264.909 2172.35 267.131 Q2170.43 269.33 2170.43 273.103 L2170.43 287.756 L2166.14 287.756 L2166.14 261.83 L2170.43 261.83 L2170.43 265.858 Q2171.88 263.473 2173.92 262.339 Q2175.96 261.205 2178.76 261.205 Q2181.58 261.205 2183.55 262.64 Q2185.54 264.075 2186.49 266.807 Z" fill="#000000" fill-rule="nonzero" fill-opacity="1" /><path clip-path="url(#clip810)" d="M2216.61 283.867 L2216.61 297.617 L2212.32 297.617 L2212.32 261.83 L2216.61 261.83 L2216.61 265.765 Q2217.95 263.45 2219.99 262.339 Q2222.05 261.205 2224.89 261.205 Q2229.62 261.205 2232.55 264.955 Q2235.52 268.705 2235.52 274.816 Q2235.52 280.927 2232.55 284.677 Q2229.62 288.427 2224.89 288.427 Q2222.05 288.427 2219.99 287.316 Q2217.95 286.182 2216.61 283.867 M2231.1 274.816 Q2231.1 270.117 2229.15 267.455 Q2227.23 264.77 2223.85 264.77 Q2220.47 264.77 2218.53 267.455 Q2216.61 270.117 2216.61 274.816 Q2216.61 279.515 2218.53 282.2 Q2220.47 284.862 2223.85 284.862 Q2227.23 284.862 2229.15 282.2 Q2231.1 279.515 2231.1 274.816 Z" fill="#000000" fill-rule="nonzero" fill-opacity="1" /><path clip-path="url(#clip810)" d="M2259.11 262.594 L2259.11 266.622 Q2257.3 265.696 2255.36 265.233 Q2253.41 264.77 2251.33 264.77 Q2248.16 264.77 2246.56 265.742 Q2244.99 266.714 2244.99 268.659 Q2244.99 270.14 2246.12 270.997 Q2247.25 271.83 2250.68 272.594 L2252.14 272.918 Q2256.68 273.89 2258.57 275.672 Q2260.49 277.432 2260.49 280.603 Q2260.49 284.214 2257.62 286.321 Q2254.78 288.427 2249.78 288.427 Q2247.69 288.427 2245.43 288.01 Q2243.18 287.617 2240.68 286.807 L2240.68 282.409 Q2243.04 283.635 2245.33 284.26 Q2247.62 284.862 2249.87 284.862 Q2252.88 284.862 2254.5 283.844 Q2256.12 282.802 2256.12 280.927 Q2256.12 279.191 2254.94 278.265 Q2253.78 277.339 2249.82 276.483 L2248.34 276.135 Q2244.38 275.302 2242.62 273.589 Q2240.87 271.853 2240.87 268.844 Q2240.87 265.186 2243.46 263.196 Q2246.05 261.205 2250.82 261.205 Q2253.18 261.205 2255.26 261.552 Q2257.35 261.899 2259.11 262.594 Z" fill="#000000" fill-rule="nonzero" fill-opacity="1" /></svg>
