<?xml version="1.0" encoding="utf-8"?>
<svg xmlns="http://www.w3.org/2000/svg" xmlns:xlink="http://www.w3.org/1999/xlink" width="600" height="400" viewBox="0 0 2400 1600">
<defs>
  <clipPath id="clip770">
    <rect x="0" y="0" width="2400" height="1600"/>
  </clipPath>
</defs>
<path clip-path="url(#clip770)" d="M0 1600 L2400 1600 L2400 0 L0 0  Z" fill="#ffffff" fill-rule="evenodd" fill-opacity="1"/>
<defs>
  <clipPath id="clip771">
    <rect x="480" y="0" width="1681" height="1600"/>
  </clipPath>
</defs>
<path clip-path="url(#clip770)" d="M251.56 1423.18 L2352.76 1423.18 L2352.76 123.472 L251.56 123.472  Z" fill="#ffffff" fill-rule="evenodd" fill-opacity="1"/>
<defs>
  <clipPath id="clip772">
    <rect x="251" y="123" width="2102" height="1301"/>
  </clipPath>
</defs>
<polyline clip-path="url(#clip772)" style="stroke:#000000; stroke-linecap:round; stroke-linejoin:round; stroke-width:2; stroke-opacity:0.1; fill:none" points="309.046,1423.18 309.046,123.472 "/>
<polyline clip-path="url(#clip772)" style="stroke:#000000; stroke-linecap:round; stroke-linejoin:round; stroke-width:2; stroke-opacity:0.1; fill:none" points="804.611,1423.18 804.611,123.472 "/>
<polyline clip-path="url(#clip772)" style="stroke:#000000; stroke-linecap:round; stroke-linejoin:round; stroke-width:2; stroke-opacity:0.1; fill:none" points="1300.18,1423.18 1300.18,123.472 "/>
<polyline clip-path="url(#clip772)" style="stroke:#000000; stroke-linecap:round; stroke-linejoin:round; stroke-width:2; stroke-opacity:0.1; fill:none" points="1795.74,1423.18 1795.74,123.472 "/>
<polyline clip-path="url(#clip772)" style="stroke:#000000; stroke-linecap:round; stroke-linejoin:round; stroke-width:2; stroke-opacity:0.1; fill:none" points="2291.31,1423.18 2291.31,123.472 "/>
<polyline clip-path="url(#clip770)" style="stroke:#000000; stroke-linecap:round; stroke-linejoin:round; stroke-width:4; stroke-opacity:1; fill:none" points="251.56,1423.18 2352.76,1423.18 "/>
<polyline clip-path="url(#clip770)" style="stroke:#000000; stroke-linecap:round; stroke-linejoin:round; stroke-width:4; stroke-opacity:1; fill:none" points="309.046,1423.18 309.046,1404.28 "/>
<polyline clip-path="url(#clip770)" style="stroke:#000000; stroke-linecap:round; stroke-linejoin:round; stroke-width:4; stroke-opacity:1; fill:none" points="804.611,1423.18 804.611,1404.28 "/>
<polyline clip-path="url(#clip770)" style="stroke:#000000; stroke-linecap:round; stroke-linejoin:round; stroke-width:4; stroke-opacity:1; fill:none" points="1300.18,1423.18 1300.18,1404.28 "/>
<polyline clip-path="url(#clip770)" style="stroke:#000000; stroke-linecap:round; stroke-linejoin:round; stroke-width:4; stroke-opacity:1; fill:none" points="1795.74,1423.18 1795.74,1404.28 "/>
<polyline clip-path="url(#clip770)" style="stroke:#000000; stroke-linecap:round; stroke-linejoin:round; stroke-width:4; stroke-opacity:1; fill:none" points="2291.31,1423.18 2291.31,1404.28 "/>
<path clip-path="url(#clip770)" d="M309.046 1454.1 Q305.435 1454.1 303.606 1457.66 Q301.8 1461.2 301.8 1468.33 Q301.8 1475.44 303.606 1479.01 Q305.435 1482.55 309.046 1482.55 Q312.68 1482.55 314.486 1479.01 Q316.314 1475.44 316.314 1468.33 Q316.314 1461.2 314.486 1457.66 Q312.68 1454.1 309.046 1454.1 M309.046 1450.39 Q314.856 1450.39 317.911 1455 Q320.99 1459.58 320.99 1468.33 Q320.99 1477.06 317.911 1481.67 Q314.856 1486.25 309.046 1486.25 Q303.236 1486.25 300.157 1481.67 Q297.101 1477.06 297.101 1468.33 Q297.101 1459.58 300.157 1455 Q303.236 1450.39 309.046 1450.39 Z" fill="#000000" fill-rule="nonzero" fill-opacity="1" /><path clip-path="url(#clip770)" d="M768.303 1481.64 L784.622 1481.64 L784.622 1485.58 L762.678 1485.58 L762.678 1481.64 Q765.34 1478.89 769.923 1474.26 Q774.53 1469.61 775.71 1468.27 Q777.956 1465.74 778.835 1464.01 Q779.738 1462.25 779.738 1460.56 Q779.738 1457.8 777.794 1456.07 Q775.873 1454.33 772.771 1454.33 Q770.572 1454.33 768.118 1455.09 Q765.687 1455.86 762.91 1457.41 L762.91 1452.69 Q765.734 1451.55 768.187 1450.97 Q770.641 1450.39 772.678 1450.39 Q778.048 1450.39 781.243 1453.08 Q784.437 1455.77 784.437 1460.26 Q784.437 1462.39 783.627 1464.31 Q782.84 1466.2 780.734 1468.8 Q780.155 1469.47 777.053 1472.69 Q773.951 1475.88 768.303 1481.64 Z" fill="#000000" fill-rule="nonzero" fill-opacity="1" /><path clip-path="url(#clip770)" d="M794.484 1451.02 L812.84 1451.02 L812.84 1454.96 L798.766 1454.96 L798.766 1463.43 Q799.784 1463.08 800.803 1462.92 Q801.821 1462.73 802.84 1462.73 Q808.627 1462.73 812.007 1465.9 Q815.386 1469.08 815.386 1474.49 Q815.386 1480.07 811.914 1483.17 Q808.442 1486.25 802.122 1486.25 Q799.946 1486.25 797.678 1485.88 Q795.433 1485.51 793.025 1484.77 L793.025 1480.07 Q795.109 1481.2 797.331 1481.76 Q799.553 1482.32 802.03 1482.32 Q806.034 1482.32 808.372 1480.21 Q810.71 1478.1 810.71 1474.49 Q810.71 1470.88 808.372 1468.77 Q806.034 1466.67 802.03 1466.67 Q800.155 1466.67 798.28 1467.08 Q796.428 1467.5 794.484 1468.38 L794.484 1451.02 Z" fill="#000000" fill-rule="nonzero" fill-opacity="1" /><path clip-path="url(#clip770)" d="M834.599 1454.1 Q830.988 1454.1 829.159 1457.66 Q827.354 1461.2 827.354 1468.33 Q827.354 1475.44 829.159 1479.01 Q830.988 1482.55 834.599 1482.55 Q838.233 1482.55 840.039 1479.01 Q841.868 1475.44 841.868 1468.33 Q841.868 1461.2 840.039 1457.66 Q838.233 1454.1 834.599 1454.1 M834.599 1450.39 Q840.409 1450.39 843.465 1455 Q846.543 1459.58 846.543 1468.33 Q846.543 1477.06 843.465 1481.67 Q840.409 1486.25 834.599 1486.25 Q828.789 1486.25 825.71 1481.67 Q822.655 1477.06 822.655 1468.33 Q822.655 1459.58 825.71 1455 Q828.789 1450.39 834.599 1450.39 Z" fill="#000000" fill-rule="nonzero" fill-opacity="1" /><path clip-path="url(#clip770)" d="M1259.79 1451.02 L1278.15 1451.02 L1278.15 1454.96 L1264.08 1454.96 L1264.08 1463.43 Q1265.09 1463.08 1266.11 1462.92 Q1267.13 1462.73 1268.15 1462.73 Q1273.94 1462.73 1277.32 1465.9 Q1280.7 1469.08 1280.7 1474.49 Q1280.7 1480.07 1277.22 1483.17 Q1273.75 1486.25 1267.43 1486.25 Q1265.26 1486.25 1262.99 1485.88 Q1260.74 1485.51 1258.34 1484.77 L1258.34 1480.07 Q1260.42 1481.2 1262.64 1481.76 Q1264.86 1482.32 1267.34 1482.32 Q1271.34 1482.32 1273.68 1480.21 Q1276.02 1478.1 1276.02 1474.49 Q1276.02 1470.88 1273.68 1468.77 Q1271.34 1466.67 1267.34 1466.67 Q1265.47 1466.67 1263.59 1467.08 Q1261.74 1467.5 1259.79 1468.38 L1259.79 1451.02 Z" fill="#000000" fill-rule="nonzero" fill-opacity="1" /><path clip-path="url(#clip770)" d="M1299.91 1454.1 Q1296.3 1454.1 1294.47 1457.66 Q1292.66 1461.2 1292.66 1468.33 Q1292.66 1475.44 1294.47 1479.01 Q1296.3 1482.55 1299.91 1482.55 Q1303.54 1482.55 1305.35 1479.01 Q1307.18 1475.44 1307.18 1468.33 Q1307.18 1461.2 1305.35 1457.66 Q1303.54 1454.1 1299.91 1454.1 M1299.91 1450.39 Q1305.72 1450.39 1308.78 1455 Q1311.85 1459.58 1311.85 1468.33 Q1311.85 1477.06 1308.78 1481.67 Q1305.72 1486.25 1299.91 1486.25 Q1294.1 1486.25 1291.02 1481.67 Q1287.97 1477.06 1287.97 1468.33 Q1287.97 1459.58 1291.02 1455 Q1294.1 1450.39 1299.91 1450.39 Z" fill="#000000" fill-rule="nonzero" fill-opacity="1" /><path clip-path="url(#clip770)" d="M1330.07 1454.1 Q1326.46 1454.1 1324.63 1457.66 Q1322.83 1461.2 1322.83 1468.33 Q1322.83 1475.44 1324.63 1479.01 Q1326.46 1482.55 1330.07 1482.55 Q1333.71 1482.55 1335.51 1479.01 Q1337.34 1475.44 1337.34 1468.33 Q1337.34 1461.2 1335.51 1457.66 Q1333.71 1454.1 1330.07 1454.1 M1330.07 1450.39 Q1335.88 1450.39 1338.94 1455 Q1342.02 1459.58 1342.02 1468.33 Q1342.02 1477.06 1338.94 1481.67 Q1335.88 1486.25 1330.07 1486.25 Q1324.26 1486.25 1321.18 1481.67 Q1318.13 1477.06 1318.13 1468.33 Q1318.13 1459.58 1321.18 1455 Q1324.26 1450.39 1330.07 1450.39 Z" fill="#000000" fill-rule="nonzero" fill-opacity="1" /><path clip-path="url(#clip770)" d="M1754.02 1451.02 L1776.24 1451.02 L1776.24 1453.01 L1763.69 1485.58 L1758.81 1485.58 L1770.61 1454.96 L1754.02 1454.96 L1754.02 1451.02 Z" fill="#000000" fill-rule="nonzero" fill-opacity="1" /><path clip-path="url(#clip770)" d="M1785.41 1451.02 L1803.76 1451.02 L1803.76 1454.96 L1789.69 1454.96 L1789.69 1463.43 Q1790.71 1463.08 1791.72 1462.92 Q1792.74 1462.73 1793.76 1462.73 Q1799.55 1462.73 1802.93 1465.9 Q1806.31 1469.08 1806.31 1474.49 Q1806.31 1480.07 1802.84 1483.17 Q1799.36 1486.25 1793.04 1486.25 Q1790.87 1486.25 1788.6 1485.88 Q1786.35 1485.51 1783.95 1484.77 L1783.95 1480.07 Q1786.03 1481.2 1788.25 1481.76 Q1790.47 1482.32 1792.95 1482.32 Q1796.96 1482.32 1799.29 1480.21 Q1801.63 1478.1 1801.63 1474.49 Q1801.63 1470.88 1799.29 1468.77 Q1796.96 1466.67 1792.95 1466.67 Q1791.08 1466.67 1789.2 1467.08 Q1787.35 1467.5 1785.41 1468.38 L1785.41 1451.02 Z" fill="#000000" fill-rule="nonzero" fill-opacity="1" /><path clip-path="url(#clip770)" d="M1825.52 1454.1 Q1821.91 1454.1 1820.08 1457.66 Q1818.28 1461.2 1818.28 1468.33 Q1818.28 1475.44 1820.08 1479.01 Q1821.91 1482.55 1825.52 1482.55 Q1829.16 1482.55 1830.96 1479.01 Q1832.79 1475.44 1832.79 1468.33 Q1832.79 1461.2 1830.96 1457.66 Q1829.16 1454.1 1825.52 1454.1 M1825.52 1450.39 Q1831.33 1450.39 1834.39 1455 Q1837.47 1459.58 1837.47 1468.33 Q1837.47 1477.06 1834.39 1481.67 Q1831.33 1486.25 1825.52 1486.25 Q1819.71 1486.25 1816.63 1481.67 Q1813.58 1477.06 1813.58 1468.33 Q1813.58 1459.58 1816.63 1455 Q1819.71 1450.39 1825.52 1450.39 Z" fill="#000000" fill-rule="nonzero" fill-opacity="1" /><path clip-path="url(#clip770)" d="M2235.83 1481.64 L2243.47 1481.64 L2243.47 1455.28 L2235.16 1456.95 L2235.16 1452.69 L2243.42 1451.02 L2248.1 1451.02 L2248.1 1481.64 L2255.74 1481.64 L2255.74 1485.58 L2235.83 1485.58 L2235.83 1481.64 Z" fill="#000000" fill-rule="nonzero" fill-opacity="1" /><path clip-path="url(#clip770)" d="M2275.18 1454.1 Q2271.57 1454.1 2269.74 1457.66 Q2267.94 1461.2 2267.94 1468.33 Q2267.94 1475.44 2269.74 1479.01 Q2271.57 1482.55 2275.18 1482.55 Q2278.82 1482.55 2280.62 1479.01 Q2282.45 1475.44 2282.45 1468.33 Q2282.45 1461.2 2280.62 1457.66 Q2278.82 1454.1 2275.18 1454.1 M2275.18 1450.39 Q2280.99 1450.39 2284.05 1455 Q2287.13 1459.58 2287.13 1468.33 Q2287.13 1477.06 2284.05 1481.67 Q2280.99 1486.25 2275.18 1486.25 Q2269.37 1486.25 2266.29 1481.67 Q2263.24 1477.06 2263.24 1468.33 Q2263.24 1459.58 2266.29 1455 Q2269.37 1450.39 2275.18 1450.39 Z" fill="#000000" fill-rule="nonzero" fill-opacity="1" /><path clip-path="url(#clip770)" d="M2305.35 1454.1 Q2301.73 1454.1 2299.91 1457.66 Q2298.1 1461.2 2298.1 1468.33 Q2298.1 1475.44 2299.91 1479.01 Q2301.73 1482.55 2305.35 1482.55 Q2308.98 1482.55 2310.78 1479.01 Q2312.61 1475.44 2312.61 1468.33 Q2312.61 1461.2 2310.78 1457.66 Q2308.98 1454.1 2305.35 1454.1 M2305.35 1450.39 Q2311.16 1450.39 2314.21 1455 Q2317.29 1459.58 2317.29 1468.33 Q2317.29 1477.06 2314.21 1481.67 Q2311.16 1486.25 2305.35 1486.25 Q2299.53 1486.25 2296.46 1481.67 Q2293.4 1477.06 2293.4 1468.33 Q2293.4 1459.58 2296.46 1455 Q2299.53 1450.39 2305.35 1450.39 Z" fill="#000000" fill-rule="nonzero" fill-opacity="1" /><path clip-path="url(#clip770)" d="M2335.51 1454.1 Q2331.9 1454.1 2330.07 1457.66 Q2328.26 1461.2 2328.26 1468.33 Q2328.26 1475.44 2330.07 1479.01 Q2331.9 1482.55 2335.51 1482.55 Q2339.14 1482.55 2340.95 1479.01 Q2342.78 1475.44 2342.78 1468.33 Q2342.78 1461.2 2340.95 1457.66 Q2339.14 1454.1 2335.51 1454.1 M2335.51 1450.39 Q2341.32 1450.39 2344.37 1455 Q2347.45 1459.58 2347.45 1468.33 Q2347.45 1477.06 2344.37 1481.67 Q2341.32 1486.25 2335.51 1486.25 Q2329.7 1486.25 2326.62 1481.67 Q2323.56 1477.06 2323.56 1468.33 Q2323.56 1459.58 2326.62 1455 Q2329.7 1450.39 2335.51 1450.39 Z" fill="#000000" fill-rule="nonzero" fill-opacity="1" /><path clip-path="url(#clip770)" d="M1286.34 1518.52 L1292.23 1518.52 L1292.23 1547.77 L1309.7 1532.4 L1317.18 1532.4 L1298.27 1549.07 L1317.98 1568.04 L1310.34 1568.04 L1292.23 1550.63 L1292.23 1568.04 L1286.34 1568.04 L1286.34 1518.52 Z" fill="#000000" fill-rule="nonzero" fill-opacity="1" /><polyline clip-path="url(#clip772)" style="stroke:#000000; stroke-linecap:round; stroke-linejoin:round; stroke-width:2; stroke-opacity:0.1; fill:none" points="251.56,913.723 2352.76,913.723 "/>
<polyline clip-path="url(#clip772)" style="stroke:#000000; stroke-linecap:round; stroke-linejoin:round; stroke-width:2; stroke-opacity:0.1; fill:none" points="251.56,365.585 2352.76,365.585 "/>
<polyline clip-path="url(#clip770)" style="stroke:#000000; stroke-linecap:round; stroke-linejoin:round; stroke-width:4; stroke-opacity:1; fill:none" points="251.56,1423.18 251.56,123.472 "/>
<polyline clip-path="url(#clip770)" style="stroke:#000000; stroke-linecap:round; stroke-linejoin:round; stroke-width:4; stroke-opacity:1; fill:none" points="251.56,913.723 270.458,913.723 "/>
<polyline clip-path="url(#clip770)" style="stroke:#000000; stroke-linecap:round; stroke-linejoin:round; stroke-width:4; stroke-opacity:1; fill:none" points="251.56,365.585 270.458,365.585 "/>
<path clip-path="url(#clip770)" d="M114.931 933.515 L122.57 933.515 L122.57 907.15 L114.26 908.816 L114.26 904.557 L122.524 902.89 L127.2 902.89 L127.2 933.515 L134.839 933.515 L134.839 937.45 L114.931 937.45 L114.931 933.515 Z" fill="#000000" fill-rule="nonzero" fill-opacity="1" /><path clip-path="url(#clip770)" d="M154.283 905.969 Q150.672 905.969 148.843 909.534 Q147.038 913.076 147.038 920.205 Q147.038 927.312 148.843 930.876 Q150.672 934.418 154.283 934.418 Q157.917 934.418 159.723 930.876 Q161.552 927.312 161.552 920.205 Q161.552 913.076 159.723 909.534 Q157.917 905.969 154.283 905.969 M154.283 902.265 Q160.093 902.265 163.149 906.872 Q166.227 911.455 166.227 920.205 Q166.227 928.932 163.149 933.538 Q160.093 938.122 154.283 938.122 Q148.473 938.122 145.394 933.538 Q142.339 928.932 142.339 920.205 Q142.339 911.455 145.394 906.872 Q148.473 902.265 154.283 902.265 Z" fill="#000000" fill-rule="nonzero" fill-opacity="1" /><path clip-path="url(#clip770)" d="M166.227 896.367 L190.339 896.367 L190.339 899.564 L166.227 899.564 L166.227 896.367 Z" fill="#000000" fill-rule="nonzero" fill-opacity="1" /><path clip-path="url(#clip770)" d="M198.577 881.96 L213.491 881.96 L213.491 885.157 L202.056 885.157 L202.056 892.041 Q202.884 891.759 203.711 891.627 Q204.539 891.477 205.366 891.477 Q210.068 891.477 212.814 894.053 Q215.56 896.63 215.56 901.031 Q215.56 905.564 212.739 908.084 Q209.918 910.585 204.783 910.585 Q203.015 910.585 201.172 910.284 Q199.348 909.984 197.392 909.382 L197.392 905.564 Q199.085 906.485 200.89 906.937 Q202.696 907.388 204.708 907.388 Q207.962 907.388 209.861 905.677 Q211.761 903.965 211.761 901.031 Q211.761 898.097 209.861 896.386 Q207.962 894.674 204.708 894.674 Q203.185 894.674 201.661 895.013 Q200.157 895.351 198.577 896.066 L198.577 881.96 Z" fill="#000000" fill-rule="nonzero" fill-opacity="1" /><path clip-path="url(#clip770)" d="M144.855 385.377 L152.493 385.377 L152.493 359.011 L144.183 360.678 L144.183 356.419 L152.447 354.752 L157.123 354.752 L157.123 385.377 L164.762 385.377 L164.762 389.312 L144.855 389.312 L144.855 385.377 Z" fill="#000000" fill-rule="nonzero" fill-opacity="1" /><path clip-path="url(#clip770)" d="M184.206 357.831 Q180.595 357.831 178.766 361.396 Q176.961 364.937 176.961 372.067 Q176.961 379.173 178.766 382.738 Q180.595 386.28 184.206 386.28 Q187.84 386.28 189.646 382.738 Q191.475 379.173 191.475 372.067 Q191.475 364.937 189.646 361.396 Q187.84 357.831 184.206 357.831 M184.206 354.127 Q190.016 354.127 193.072 358.734 Q196.151 363.317 196.151 372.067 Q196.151 380.794 193.072 385.4 Q190.016 389.983 184.206 389.983 Q178.396 389.983 175.317 385.4 Q172.262 380.794 172.262 372.067 Q172.262 363.317 175.317 358.734 Q178.396 354.127 184.206 354.127 Z" fill="#000000" fill-rule="nonzero" fill-opacity="1" /><path clip-path="url(#clip770)" d="M205.855 336.323 Q202.921 336.323 201.436 339.22 Q199.969 342.097 199.969 347.89 Q199.969 353.664 201.436 356.56 Q202.921 359.438 205.855 359.438 Q208.808 359.438 210.275 356.56 Q211.761 353.664 211.761 347.89 Q211.761 342.097 210.275 339.22 Q208.808 336.323 205.855 336.323 M205.855 333.314 Q210.576 333.314 213.059 337.057 Q215.56 340.781 215.56 347.89 Q215.56 354.981 213.059 358.723 Q210.576 362.447 205.855 362.447 Q201.135 362.447 198.633 358.723 Q196.151 354.981 196.151 347.89 Q196.151 340.781 198.633 337.057 Q201.135 333.314 205.855 333.314 Z" fill="#000000" fill-rule="nonzero" fill-opacity="1" /><path clip-path="url(#clip770)" d="M45.7664 817.313 Q39.4007 817.313 35.8996 819.955 Q32.3984 822.565 32.3984 827.307 Q32.3984 832.018 35.8996 834.66 Q39.4007 837.27 45.7664 837.27 Q52.1003 837.27 55.6014 834.66 Q59.1026 832.018 59.1026 827.307 Q59.1026 822.565 55.6014 819.955 Q52.1003 817.313 45.7664 817.313 M59.58 811.457 Q68.683 811.457 73.1071 815.499 Q77.5631 819.541 77.5631 827.88 Q77.5631 830.967 77.0857 833.705 Q76.6401 836.442 75.6852 839.02 L69.9879 839.02 Q71.3884 836.442 72.0568 833.928 Q72.7252 831.413 72.7252 828.803 Q72.7252 823.042 69.7015 820.178 Q66.7096 817.313 60.6303 817.313 L57.7339 817.313 Q60.885 819.127 62.4446 821.96 Q64.0042 824.793 64.0042 828.739 Q64.0042 835.296 59.0071 839.307 Q54.01 843.317 45.7664 843.317 Q37.491 843.317 32.4939 839.307 Q27.4968 835.296 27.4968 828.739 Q27.4968 824.793 29.0564 821.96 Q30.616 819.127 33.7671 817.313 L28.3562 817.313 L28.3562 811.457 L59.58 811.457 Z" fill="#000000" fill-rule="nonzero" fill-opacity="1" /><path clip-path="url(#clip770)" d="M33.8307 778.737 Q33.2578 779.724 33.0032 780.901 Q32.7167 782.047 32.7167 783.447 Q32.7167 788.413 35.9632 791.086 Q39.1779 793.728 45.2253 793.728 L64.0042 793.728 L64.0042 799.616 L28.3562 799.616 L28.3562 793.728 L33.8944 793.728 Q30.6479 791.882 29.0883 788.922 Q27.4968 785.962 27.4968 781.729 Q27.4968 781.124 27.5923 780.392 Q27.656 779.66 27.8151 778.769 L33.8307 778.737 Z" fill="#000000" fill-rule="nonzero" fill-opacity="1" /><path clip-path="url(#clip770)" d="M46.0847 756.393 Q46.0847 763.491 47.7079 766.228 Q49.3312 768.965 53.2461 768.965 Q56.3653 768.965 58.2114 766.928 Q60.0256 764.86 60.0256 761.327 Q60.0256 756.457 56.5881 753.529 Q53.1188 750.569 47.3897 750.569 L46.0847 750.569 L46.0847 756.393 M43.6657 744.712 L64.0042 744.712 L64.0042 750.569 L58.5933 750.569 Q61.8398 752.574 63.3994 755.566 Q64.9272 758.558 64.9272 762.886 Q64.9272 768.361 61.8716 771.607 Q58.7843 774.822 53.6281 774.822 Q47.6125 774.822 44.5569 770.812 Q41.5014 766.769 41.5014 758.78 L41.5014 750.569 L40.9285 750.569 Q36.8862 750.569 34.6901 753.242 Q32.4621 755.884 32.4621 760.69 Q32.4621 763.746 33.1941 766.642 Q33.9262 769.538 35.3903 772.212 L29.9795 772.212 Q28.7381 768.997 28.1334 765.974 Q27.4968 762.95 27.4968 760.085 Q27.4968 752.351 31.5072 748.532 Q35.5176 744.712 43.6657 744.712 Z" fill="#000000" fill-rule="nonzero" fill-opacity="1" /><path clip-path="url(#clip770)" d="M33.7671 709.191 L14.479 709.191 L14.479 703.335 L64.0042 703.335 L64.0042 709.191 L58.657 709.191 Q61.8398 711.038 63.3994 713.87 Q64.9272 716.671 64.9272 720.618 Q64.9272 727.079 59.771 731.153 Q54.6147 735.195 46.212 735.195 Q37.8093 735.195 32.6531 731.153 Q27.4968 727.079 27.4968 720.618 Q27.4968 716.671 29.0564 713.87 Q30.5842 711.038 33.7671 709.191 M46.212 729.148 Q52.6732 729.148 56.3653 726.506 Q60.0256 723.833 60.0256 719.186 Q60.0256 714.539 56.3653 711.865 Q52.6732 709.191 46.212 709.191 Q39.7508 709.191 36.0905 711.865 Q32.3984 714.539 32.3984 719.186 Q32.3984 723.833 36.0905 726.506 Q39.7508 729.148 46.212 729.148 Z" fill="#000000" fill-rule="nonzero" fill-opacity="1" /><path clip-path="url(#clip770)" d="M957.77 65.7705 L957.77 89.8329 L950.276 89.8329 L950.276 27.2059 L957.77 27.2059 L957.77 34.0924 Q960.12 30.0415 963.685 28.0971 Q967.29 26.1121 972.273 26.1121 Q980.537 26.1121 985.681 32.6746 Q990.866 39.2371 990.866 49.9314 Q990.866 60.6258 985.681 67.1883 Q980.537 73.7508 972.273 73.7508 Q967.29 73.7508 963.685 71.8063 Q960.12 69.8214 957.77 65.7705 M983.129 49.9314 Q983.129 41.7081 979.726 37.0496 Q976.364 32.3505 970.45 32.3505 Q964.535 32.3505 961.133 37.0496 Q957.77 41.7081 957.77 49.9314 Q957.77 58.1548 961.133 62.8538 Q964.535 67.5124 970.45 67.5124 Q976.364 67.5124 979.726 62.8538 Q983.129 58.1548 983.129 49.9314 Z" fill="#000000" fill-rule="nonzero" fill-opacity="1" /><path clip-path="url(#clip770)" d="M1029.51 34.1734 Q1028.26 33.4443 1026.76 33.1202 Q1025.3 32.7556 1023.52 32.7556 Q1017.2 32.7556 1013.79 36.8875 Q1010.43 40.9789 1010.43 48.6757 L1010.43 72.576 L1002.94 72.576 L1002.94 27.2059 L1010.43 27.2059 L1010.43 34.2544 Q1012.78 30.1225 1016.55 28.1376 Q1020.32 26.1121 1025.7 26.1121 Q1026.47 26.1121 1027.41 26.2337 Q1028.34 26.3147 1029.47 26.5172 L1029.51 34.1734 Z" fill="#000000" fill-rule="nonzero" fill-opacity="1" /><path clip-path="url(#clip770)" d="M1053.09 32.4315 Q1047.09 32.4315 1043.61 37.1306 Q1040.13 41.7891 1040.13 49.9314 Q1040.13 58.0738 1043.57 62.7728 Q1047.05 67.4314 1053.09 67.4314 Q1059.04 67.4314 1062.53 62.7323 Q1066.01 58.0333 1066.01 49.9314 Q1066.01 41.8701 1062.53 37.1711 Q1059.04 32.4315 1053.09 32.4315 M1053.09 26.1121 Q1062.81 26.1121 1068.36 32.4315 Q1073.91 38.7509 1073.91 49.9314 Q1073.91 61.0714 1068.36 67.4314 Q1062.81 73.7508 1053.09 73.7508 Q1043.33 73.7508 1037.78 67.4314 Q1032.27 61.0714 1032.27 49.9314 Q1032.27 38.7509 1037.78 32.4315 Q1043.33 26.1121 1053.09 26.1121 Z" fill="#000000" fill-rule="nonzero" fill-opacity="1" /><path clip-path="url(#clip770)" d="M1118.83 49.9314 Q1118.83 41.7081 1115.43 37.0496 Q1112.07 32.3505 1106.16 32.3505 Q1100.24 32.3505 1096.84 37.0496 Q1093.48 41.7081 1093.48 49.9314 Q1093.48 58.1548 1096.84 62.8538 Q1100.24 67.5124 1106.16 67.5124 Q1112.07 67.5124 1115.43 62.8538 Q1118.83 58.1548 1118.83 49.9314 M1093.48 34.0924 Q1095.83 30.0415 1099.39 28.0971 Q1103 26.1121 1107.98 26.1121 Q1116.24 26.1121 1121.39 32.6746 Q1126.57 39.2371 1126.57 49.9314 Q1126.57 60.6258 1121.39 67.1883 Q1116.24 73.7508 1107.98 73.7508 Q1103 73.7508 1099.39 71.8063 Q1095.83 69.8214 1093.48 65.7705 L1093.48 72.576 L1085.98 72.576 L1085.98 9.54393 L1093.48 9.54393 L1093.48 34.0924 Z" fill="#000000" fill-rule="nonzero" fill-opacity="1" /><path clip-path="url(#clip770)" d="M1138.93 9.54393 L1146.38 9.54393 L1146.38 72.576 L1138.93 72.576 L1138.93 9.54393 Z" fill="#000000" fill-rule="nonzero" fill-opacity="1" /><path clip-path="url(#clip770)" d="M1200.78 48.0275 L1200.78 51.6733 L1166.51 51.6733 Q1167 59.3701 1171.13 63.421 Q1175.3 67.4314 1182.72 67.4314 Q1187.01 67.4314 1191.02 66.3781 Q1195.07 65.3249 1199.04 63.2184 L1199.04 70.267 Q1195.03 71.9684 1190.82 72.8596 Q1186.61 73.7508 1182.27 73.7508 Q1171.42 73.7508 1165.06 67.4314 Q1158.74 61.1119 1158.74 50.3365 Q1158.74 39.1965 1164.73 32.6746 Q1170.77 26.1121 1180.98 26.1121 Q1190.13 26.1121 1195.44 32.0264 Q1200.78 37.9003 1200.78 48.0275 M1193.33 45.84 Q1193.25 39.7232 1189.89 36.0774 Q1186.57 32.4315 1181.06 32.4315 Q1174.82 32.4315 1171.05 35.9558 Q1167.32 39.4801 1166.76 45.8805 L1193.33 45.84 M1174.66 6.22219 L1186.08 21.3726 L1179.88 21.3726 L1166.68 6.22219 L1174.66 6.22219 Z" fill="#000000" fill-rule="nonzero" fill-opacity="1" /><path clip-path="url(#clip770)" d="M1248.34 35.9153 Q1251.14 30.8922 1255.03 28.5022 Q1258.91 26.1121 1264.18 26.1121 Q1271.27 26.1121 1275.12 31.0947 Q1278.97 36.0368 1278.97 45.1919 L1278.97 72.576 L1271.47 72.576 L1271.47 45.4349 Q1271.47 38.913 1269.16 35.7533 Q1266.85 32.5936 1262.11 32.5936 Q1256.32 32.5936 1252.96 36.4419 Q1249.6 40.2903 1249.6 46.9338 L1249.6 72.576 L1242.1 72.576 L1242.1 45.4349 Q1242.1 38.8725 1239.79 35.7533 Q1237.49 32.5936 1232.66 32.5936 Q1226.95 32.5936 1223.59 36.4824 Q1220.23 40.3308 1220.23 46.9338 L1220.23 72.576 L1212.73 72.576 L1212.73 27.2059 L1220.23 27.2059 L1220.23 34.2544 Q1222.78 30.082 1226.35 28.0971 Q1229.91 26.1121 1234.81 26.1121 Q1239.75 26.1121 1243.2 28.6237 Q1246.68 31.1352 1248.34 35.9153 Z" fill="#000000" fill-rule="nonzero" fill-opacity="1" /><path clip-path="url(#clip770)" d="M1332.64 48.0275 L1332.64 51.6733 L1298.37 51.6733 Q1298.86 59.3701 1302.99 63.421 Q1307.16 67.4314 1314.57 67.4314 Q1318.87 67.4314 1322.88 66.3781 Q1326.93 65.3249 1330.9 63.2184 L1330.9 70.267 Q1326.89 71.9684 1322.68 72.8596 Q1318.46 73.7508 1314.13 73.7508 Q1303.27 73.7508 1296.91 67.4314 Q1290.59 61.1119 1290.59 50.3365 Q1290.59 39.1965 1296.59 32.6746 Q1302.62 26.1121 1312.83 26.1121 Q1321.99 26.1121 1327.29 32.0264 Q1332.64 37.9003 1332.64 48.0275 M1325.19 45.84 Q1325.11 39.7232 1321.74 36.0774 Q1318.42 32.4315 1312.91 32.4315 Q1306.67 32.4315 1302.91 35.9558 Q1299.18 39.4801 1298.61 45.8805 L1325.19 45.84 Z" fill="#000000" fill-rule="nonzero" fill-opacity="1" /><path clip-path="url(#clip770)" d="M1373.15 62.2867 L1381.7 62.2867 L1381.7 72.576 L1373.15 72.576 L1373.15 62.2867 M1373.15 29.6769 L1381.7 29.6769 L1381.7 39.9662 L1373.15 39.9662 L1373.15 29.6769 Z" fill="#000000" fill-rule="nonzero" fill-opacity="1" /><path clip-path="url(#clip770)" d="M1432.94 14.324 L1432.94 27.2059 L1448.29 27.2059 L1448.29 32.9987 L1432.94 32.9987 L1432.94 57.6282 Q1432.94 63.1779 1434.44 64.7578 Q1435.98 66.3376 1440.64 66.3376 L1448.29 66.3376 L1448.29 72.576 L1440.64 72.576 Q1432.01 72.576 1428.73 69.3758 Q1425.45 66.1351 1425.45 57.6282 L1425.45 32.9987 L1419.98 32.9987 L1419.98 27.2059 L1425.45 27.2059 L1425.45 14.324 L1432.94 14.324 Z" fill="#000000" fill-rule="nonzero" fill-opacity="1" /><path clip-path="url(#clip770)" d="M1465.31 65.7705 L1465.31 89.8329 L1457.81 89.8329 L1457.81 27.2059 L1465.31 27.2059 L1465.31 34.0924 Q1467.66 30.0415 1471.22 28.0971 Q1474.83 26.1121 1479.81 26.1121 Q1488.07 26.1121 1493.22 32.6746 Q1498.4 39.2371 1498.4 49.9314 Q1498.4 60.6258 1493.22 67.1883 Q1488.07 73.7508 1479.81 73.7508 Q1474.83 73.7508 1471.22 71.8063 Q1467.66 69.8214 1465.31 65.7705 M1490.67 49.9314 Q1490.67 41.7081 1487.26 37.0496 Q1483.9 32.3505 1477.99 32.3505 Q1472.07 32.3505 1468.67 37.0496 Q1465.31 41.7081 1465.31 49.9314 Q1465.31 58.1548 1468.67 62.8538 Q1472.07 67.5124 1477.99 67.5124 Q1483.9 67.5124 1487.26 62.8538 Q1490.67 58.1548 1490.67 49.9314 Z" fill="#000000" fill-rule="nonzero" fill-opacity="1" /><path clip-path="url(#clip770)" d="M1518.86 65.6895 L1547.42 65.6895 L1547.42 72.576 L1509.02 72.576 L1509.02 65.6895 Q1513.68 60.8689 1521.7 52.7671 Q1529.76 44.6248 1531.82 42.2752 Q1535.75 37.8598 1537.29 34.8216 Q1538.87 31.7429 1538.87 28.7857 Q1538.87 23.9651 1535.47 20.927 Q1532.11 17.8888 1526.68 17.8888 Q1522.83 17.8888 1518.54 19.2256 Q1514.28 20.5624 1509.42 23.2765 L1509.42 15.0127 Q1514.36 13.0277 1518.66 12.015 Q1522.95 11.0023 1526.52 11.0023 Q1535.92 11.0023 1541.51 15.7013 Q1547.1 20.4004 1547.1 28.2591 Q1547.1 31.9859 1545.68 35.3482 Q1544.3 38.6699 1540.61 43.2069 Q1539.6 44.3817 1534.17 50.0125 Q1528.75 55.6027 1518.86 65.6895 Z" fill="#000000" fill-rule="nonzero" fill-opacity="1" /><path clip-path="url(#clip770)" d="M1587.08 19.2256 L1566.42 51.5113 L1587.08 51.5113 L1587.08 19.2256 M1584.93 12.096 L1595.22 12.096 L1595.22 51.5113 L1603.85 51.5113 L1603.85 58.3168 L1595.22 58.3168 L1595.22 72.576 L1587.08 72.576 L1587.08 58.3168 L1559.78 58.3168 L1559.78 50.4176 L1584.93 12.096 Z" fill="#000000" fill-rule="nonzero" fill-opacity="1" /><path clip-path="url(#clip770)" d="M1617.46 12.096 L1649.58 12.096 L1649.58 18.9825 L1624.95 18.9825 L1624.95 33.8088 Q1626.74 33.2012 1628.52 32.9176 Q1630.3 32.5936 1632.08 32.5936 Q1642.21 32.5936 1648.13 38.1433 Q1654.04 43.6931 1654.04 53.1722 Q1654.04 62.9348 1647.96 68.3631 Q1641.89 73.7508 1630.83 73.7508 Q1627.02 73.7508 1623.05 73.1026 Q1619.12 72.4545 1614.91 71.1582 L1614.91 62.9348 Q1618.55 64.9198 1622.44 65.892 Q1626.33 66.8642 1630.67 66.8642 Q1637.67 66.8642 1641.77 63.1779 Q1645.86 59.4916 1645.86 53.1722 Q1645.86 46.8528 1641.77 43.1664 Q1637.67 39.4801 1630.67 39.4801 Q1627.38 39.4801 1624.1 40.2093 Q1620.86 40.9384 1617.46 42.4778 L1617.46 12.096 Z" fill="#000000" fill-rule="nonzero" fill-opacity="1" /><polyline clip-path="url(#clip772)" style="stroke:#009af9; stroke-linecap:round; stroke-linejoin:round; stroke-width:4; stroke-opacity:1; fill:none" points="311.028,160.256 313.01,414.251 314.993,500.173 316.975,623.613 318.957,878.936 320.939,1386.4 "/>
<polyline clip-path="url(#clip772)" style="stroke:#e26f46; stroke-linecap:round; stroke-linejoin:round; stroke-width:4; stroke-opacity:1; fill:none" points="311.028,160.256 313.01,414.251 314.993,500.173 316.975,623.613 318.957,878.936 320.939,1386.4 "/>
<polyline clip-path="url(#clip772)" style="stroke:#3da44d; stroke-linecap:round; stroke-linejoin:round; stroke-width:4; stroke-opacity:1; fill:none" points="311.028,160.256 313.01,414.251 314.993,414.251 316.975,414.251 318.957,414.251 320.939,414.251 322.922,414.251 324.904,414.251 326.886,516.175 328.868,609.385 330.851,609.385 332.833,609.385 334.815,623.262 336.797,632.256 338.78,643.981 340.762,663.32 342.744,663.32 344.726,667.545 346.709,675.083 348.691,686.774 350.673,686.774 352.656,689.02 354.638,692.845 356.62,698.295 358.602,703.668 360.585,706.491 362.567,707.321 364.549,707.321 366.531,707.321 368.514,707.331 370.496,707.349 372.478,707.381 374.46,707.381 376.443,707.387 378.425,707.399 380.407,707.421 382.389,707.421 384.372,707.426 386.354,707.435 388.336,707.451 390.318,707.484 392.301,707.484 394.283,707.491 396.265,707.503 398.247,707.528 400.23,707.528 402.212,707.533 404.194,707.543 406.177,707.563 408.159,707.563 410.141,707.567 412.123,707.575 414.106,707.591 416.088,707.622 418.07,707.622 420.052,707.628 422.035,707.641 424.017,707.666 425.999,707.666 427.981,707.671 429.964,707.681 431.946,707.701 433.928,707.701 435.91,707.705 437.893,707.713 439.875,707.729 441.857,707.761 443.839,707.761 445.822,707.767 447.804,707.78 449.786,707.806 451.769,707.806 453.751,707.811 455.733,707.821 457.715,707.842 459.698,707.842 461.68,707.846 463.662,707.854 465.644,707.87 467.627,707.903 469.609,707.903 471.591,707.909 473.573,707.923 475.556,707.949 477.538,707.949 479.52,707.954 481.502,707.965 483.485,707.985 485.467,707.985 487.449,707.99 489.431,707.998 491.414,708.015 493.396,708.048 495.378,708.048 497.36,708.055 499.343,708.069 501.325,708.095 503.307,708.095 505.29,708.101 507.272,708.112 509.254,708.133 511.236,708.133 513.219,708.137 515.201,708.146 517.183,708.163 519.165,708.198 521.148,708.198 523.13,708.204 525.112,708.218 527.094,708.246 529.077,708.246 531.059,708.251 533.041,708.262 535.023,708.284 537.006,708.284 538.988,708.289 540.97,708.298 542.952,708.315 544.935,708.351 546.917,708.351 548.899,708.358 550.882,708.372 552.864,708.4 554.846,708.4 556.828,708.406 558.811,708.417 560.793,708.439 562.775,708.439 564.757,708.444 566.74,708.453 568.722,708.471 570.704,708.507 572.686,708.507 574.669,708.515 576.651,708.529 578.633,708.558 580.615,708.558 582.598,708.564 584.58,708.575 586.562,708.598 588.544,708.598 590.527,708.603 592.509,708.612 594.491,708.631 596.474,708.631 598.456,708.635 600.438,708.642 602.42,708.657 604.403,708.687 606.385,708.687 608.367,708.692 610.349,708.704 612.332,708.728 614.314,708.728 616.296,708.733 618.278,708.742 620.261,708.761 622.243,708.761 624.225,708.765 626.207,708.773 628.19,708.788 630.172,708.818 632.154,708.818 634.136,708.824 636.119,708.837 638.101,708.861 640.083,708.861 642.065,708.866 644.048,708.876 646.03,708.895 648.012,708.895 649.995,708.899 651.977,708.907 653.959,708.922 655.941,708.954 657.924,708.954 659.906,708.96 661.888,708.972 663.87,708.997 665.853,708.997 667.835,709.002 669.817,709.012 671.799,709.032 673.782,709.032 675.764,709.036 677.746,709.044 679.728,709.06 681.711,709.092 683.693,709.092 685.675,709.098 687.657,709.111 689.64,709.137 691.622,709.137 693.604,709.142 695.587,709.152 697.569,709.173 699.551,709.173 701.533,709.177 703.516,709.185 705.498,709.201 707.48,709.234 709.462,709.234 711.445,709.241 713.427,709.254 715.409,709.28 717.391,709.28 719.374,709.285 721.356,709.296 723.338,709.317 725.32,709.317 727.303,709.321 729.285,709.329 731.267,709.346 733.249,709.379 735.232,709.379 737.214,709.386 739.196,709.4 741.178,709.427 743.161,709.427 745.143,709.432 747.125,709.443 749.108,709.464 751.09,709.464 753.072,709.468 755.054,709.477 757.037,709.494 759.019,709.529 761.001,709.529 762.983,709.536 764.966,709.549 766.948,709.577 768.93,709.577 770.912,709.582 772.895,709.593 774.877,709.615 776.859,709.615 778.841,709.62 780.824,709.629 782.806,709.646 784.788,709.682 786.77,709.682 788.753,709.689 790.735,709.703 792.717,709.731 794.7,709.731 796.682,709.737 798.664,709.748 800.646,709.771 802.629,709.771 804.611,709.775 806.593,709.784 808.575,709.802 810.558,709.838 812.54,709.838 814.522,709.846 816.504,709.86 818.487,709.889 820.469,709.889 822.451,709.895 824.433,709.906 826.416,709.93 828.398,709.93 830.38,709.934 832.362,709.943 834.345,709.962 836.327,709.962 838.309,709.966 840.291,709.973 842.274,709.988 844.256,710.018 846.238,710.018 848.221,710.024 850.203,710.035 852.185,710.059 854.167,710.059 856.15,710.064 858.132,710.073 860.114,710.092 862.096,710.092 864.079,710.096 866.061,710.104 868.043,710.119 870.025,710.149 872.008,710.149 873.99,710.155 875.972,710.168 877.954,710.192 879.937,710.192 881.919,710.197 883.901,710.207 885.883,710.226 887.866,710.226 889.848,710.23 891.83,710.238 893.813,710.253 895.795,710.284 897.777,710.284 899.759,710.291 901.742,710.303 903.724,710.328 905.706,710.328 907.688,710.333 909.671,710.343 911.653,710.363 913.635,710.363 915.617,710.367 917.6,710.375 919.582,710.391 921.564,710.423 923.546,710.423 925.529,710.429 927.511,710.442 929.493,710.468 931.475,710.468 933.458,710.473 935.44,710.483 937.422,710.503 939.404,710.503 941.387,710.508 943.369,710.516 945.351,710.532 947.334,710.565 949.316,710.565 951.298,710.571 953.28,710.584 955.263,710.611 957.245,710.611 959.227,710.616 961.209,710.626 963.192,710.647 965.174,710.647 967.156,710.652 969.138,710.66 971.121,710.677 973.103,710.71 975.085,710.71 977.067,710.717 979.05,710.73 981.032,710.757 983.014,710.757 984.996,710.763 986.979,710.773 988.961,710.795 990.943,710.795 992.926,710.799 994.908,710.808 996.89,710.825 998.872,710.859 1000.85,710.859 1002.84,710.866 1004.82,710.88 1006.8,710.908 1008.78,710.908 1010.77,710.913 1012.75,710.924 1014.73,710.946 1016.71,710.946 1018.69,710.95 1020.68,710.959 1022.66,710.977 1024.64,711.012 1026.62,711.012 1028.61,711.019 1030.59,711.033 1032.57,711.062 1034.55,711.062 1036.54,711.067 1038.52,711.078 1040.5,711.101 1042.48,711.101 1044.46,711.106 1046.45,711.115 1048.43,711.133 1050.41,711.169 1052.39,711.169 1054.38,711.176 1056.36,711.191 1058.34,711.219 1060.32,711.219 1062.3,711.225 1064.29,711.237 1066.27,711.26 1068.25,711.26 1070.23,711.265 1072.22,711.274 1074.2,711.292 1076.18,711.329 1078.16,711.329 1080.14,711.337 1082.13,711.352 1084.11,711.381 1086.09,711.381 1088.07,711.387 1090.06,711.399 1092.04,711.423 1094.02,711.423 1096,711.428 1097.99,711.437 1099.97,711.456 1101.95,711.456 1103.93,711.46 1105.91,711.467 1107.9,711.483 1109.88,711.513 1111.86,711.513 1113.84,711.519 1115.83,711.531 1117.81,711.556 1119.79,711.556 1121.77,711.56 1123.75,711.57 1125.74,711.59 1127.72,711.59 1129.7,711.593 1131.68,711.601 1133.67,711.617 1135.65,711.648 1137.63,711.648 1139.61,711.654 1141.6,711.667 1143.58,711.692 1145.56,711.692 1147.54,711.697 1149.52,711.707 1151.51,711.726 1153.49,711.726 1155.47,711.73 1157.45,711.738 1159.44,711.754 1161.42,711.786 1163.4,711.786 1165.38,711.793 1167.36,711.805 1169.35,711.831 1171.33,711.831 1173.31,711.836 1175.29,711.846 1177.28,711.867 1179.26,711.867 1181.24,711.871 1183.22,711.879 1185.2,711.895 1187.19,711.928 1189.17,711.928 1191.15,711.935 1193.13,711.948 1195.12,711.974 1197.1,711.974 1199.08,711.979 1201.06,711.99 1203.05,712.011 1205.03,712.011 1207.01,712.015 1208.99,712.023 1210.97,712.04 1212.96,712.073 1214.94,712.073 1216.92,712.08 1218.9,712.094 1220.89,712.12 1222.87,712.12 1224.85,712.126 1226.83,712.137 1228.81,712.158 1230.8,712.158 1232.78,712.162 1234.76,712.171 1236.74,712.188 1238.73,712.222 1240.71,712.222 1242.69,712.229 1244.67,712.243 1246.65,712.271 1248.64,712.271 1250.62,712.276 1252.6,712.287 1254.58,712.309 1256.57,712.309 1258.55,712.313 1260.53,712.322 1262.51,712.34 1264.5,712.375 1266.48,712.375 1268.46,712.382 1270.44,712.396 1272.42,712.424 1274.41,712.424 1276.39,712.43 1278.37,712.441 1280.35,712.464 1282.34,712.464 1284.32,712.468 1286.3,712.477 1288.28,712.496 1290.26,712.532 1292.25,712.532 1294.23,712.539 1296.21,712.553 1298.19,712.582 1300.18,712.582 1302.16,712.588 1304.14,712.6 1306.12,712.623 1308.1,712.623 1310.09,712.627 1312.07,712.637 1314.05,712.655 1316.03,712.692 1318.02,712.692 1320,712.699 1321.98,712.714 1323.96,712.744 1325.95,712.744 1327.93,712.75 1329.91,712.762 1331.89,712.785 1333.87,712.785 1335.86,712.79 1337.84,712.8 1339.82,712.819 1341.8,712.819 1343.79,712.822 1345.77,712.83 1347.75,712.845 1349.73,712.875 1351.71,712.875 1353.7,712.881 1355.68,712.894 1357.66,712.918 1359.64,712.918 1361.63,712.923 1363.61,712.932 1365.59,712.952 1367.57,712.952 1369.55,712.956 1371.54,712.964 1373.52,712.979 1375.5,713.01 1377.48,713.01 1379.47,713.016 1381.45,713.029 1383.43,713.054 1385.41,713.054 1387.4,713.059 1389.38,713.069 1391.36,713.089 1393.34,713.089 1395.32,713.093 1397.31,713.101 1399.29,713.117 1401.27,713.148 1403.25,713.148 1405.24,713.155 1407.22,713.168 1409.2,713.193 1411.18,713.193 1413.16,713.198 1415.15,713.208 1417.13,713.229 1419.11,713.229 1421.09,713.233 1423.08,713.241 1425.06,713.257 1427.04,713.29 1429.02,713.29 1431,713.297 1432.99,713.31 1434.97,713.336 1436.95,713.336 1438.93,713.341 1440.92,713.352 1442.9,713.372 1444.88,713.372 1446.86,713.377 1448.85,713.385 1450.83,713.402 1452.81,713.435 1454.79,713.435 1456.77,713.442 1458.76,713.455 1460.74,713.482 1462.72,713.482 1464.7,713.487 1466.69,713.498 1468.67,713.52 1470.65,713.52 1472.63,713.524 1474.61,713.532 1476.6,713.55 1478.58,713.584 1480.56,713.584 1482.54,713.591 1484.53,713.605 1486.51,713.632 1488.49,713.632 1490.47,713.638 1492.46,713.648 1494.44,713.67 1496.42,713.67 1498.4,713.675 1500.38,713.684 1502.37,713.701 1504.35,713.736 1506.33,713.736 1508.31,713.743 1510.3,713.758 1512.28,713.786 1514.26,713.786 1516.24,713.791 1518.22,713.803 1520.21,713.825 1522.19,713.825 1524.17,713.83 1526.15,713.839 1528.14,713.857 1530.12,713.893 1532.1,713.893 1534.08,713.9 1536.06,713.914 1538.05,713.943 1540.03,713.943 1542.01,713.949 1543.99,713.96 1545.98,713.984 1547.96,713.984 1549.94,713.988 1551.92,713.997 1553.91,714.016 1555.89,714.053 1557.87,714.053 1559.85,714.06 1561.83,714.075 1563.82,714.105 1565.8,714.105 1567.78,714.11 1569.76,714.122 1571.75,714.146 1573.73,714.146 1575.71,714.151 1577.69,714.16 1579.67,714.179 1581.66,714.217 1583.64,714.217 1585.62,714.225 1587.6,714.24 1589.59,714.27 1591.57,714.27 1593.55,714.276 1595.53,714.288 1597.51,714.312 1599.5,714.312 1601.48,714.317 1603.46,714.327 1605.44,714.346 1607.43,714.346 1609.41,714.35 1611.39,714.358 1613.37,714.374 1615.36,714.405 1617.34,714.405 1619.32,714.411 1621.3,714.423 1623.28,714.448 1625.27,714.448 1627.25,714.453 1629.23,714.463 1631.21,714.483 1633.2,714.483 1635.18,714.487 1637.16,714.495 1639.14,714.511 1641.12,714.543 1643.11,714.543 1645.09,714.549 1647.07,714.562 1649.05,714.587 1651.04,714.587 1653.02,714.592 1655,714.602 1656.98,714.623 1658.96,714.623 1660.95,714.627 1662.93,714.635 1664.91,714.651 1666.89,714.684 1668.88,714.684 1670.86,714.691 1672.84,714.704 1674.82,714.73 1676.81,714.73 1678.79,714.735 1680.77,714.745 1682.75,714.766 1684.73,714.766 1686.72,714.77 1688.7,714.779 1690.68,714.796 1692.66,714.829 1694.65,714.829 1696.63,714.836 1698.61,714.849 1700.59,714.876 1702.57,714.876 1704.56,714.881 1706.54,714.892 1708.52,714.913 1710.5,714.913 1712.49,714.917 1714.47,714.926 1716.45,714.943 1718.43,714.977 1720.41,714.977 1722.4,714.984 1724.38,714.998 1726.36,715.025 1728.34,715.025 1730.33,715.031 1732.31,715.042 1734.29,715.064 1736.27,715.064 1738.26,715.068 1740.24,715.077 1742.22,715.095 1744.2,715.13 1746.18,715.13 1748.17,715.137 1750.15,715.151 1752.13,715.179 1754.11,715.179 1756.1,715.184 1758.08,715.196 1760.06,715.218 1762.04,715.218 1764.02,715.223 1766.01,715.232 1767.99,715.25 1769.97,715.286 1771.95,715.286 1773.94,715.293 1775.92,715.307 1777.9,715.336 1779.88,715.336 1781.87,715.342 1783.85,715.353 1785.83,715.376 1787.81,715.376 1789.79,715.381 1791.78,715.39 1793.76,715.409 1795.74,715.445 1797.72,715.445 1799.71,715.453 1801.69,715.468 1803.67,715.497 1805.65,715.497 1807.63,715.503 1809.62,715.515 1811.6,715.538 1813.58,715.538 1815.56,715.543 1817.55,715.553 1819.53,715.572 1821.51,715.609 1823.49,715.609 1825.47,715.617 1827.46,715.632 1829.44,715.662 1831.42,715.662 1833.4,715.668 1835.39,715.68 1837.37,715.705 1839.35,715.705 1841.33,715.709 1843.32,715.719 1845.3,715.738 1847.28,715.738 1849.26,715.742 1851.24,715.75 1853.23,715.766 1855.21,715.797 1857.19,715.797 1859.17,715.803 1861.16,715.815 1863.14,715.84 1865.12,715.84 1867.1,715.845 1869.08,715.855 1871.07,715.875 1873.05,715.875 1875.03,715.879 1877.01,715.887 1879,715.903 1880.98,715.934 1882.96,715.934 1884.94,715.941 1886.92,715.953 1888.91,715.979 1890.89,715.979 1892.87,715.984 1894.85,715.994 1896.84,716.014 1898.82,716.014 1900.8,716.018 1902.78,716.027 1904.77,716.043 1906.75,716.075 1908.73,716.075 1910.71,716.082 1912.69,716.095 1914.68,716.121 1916.66,716.121 1918.64,716.126 1920.62,716.137 1922.61,716.157 1924.59,716.157 1926.57,716.162 1928.55,716.17 1930.53,716.187 1932.52,716.22 1934.5,716.22 1936.48,716.227 1938.46,716.24 1940.45,716.267 1942.43,716.267 1944.41,716.272 1946.39,716.283 1948.37,716.304 1950.36,716.304 1952.34,716.308 1954.32,716.317 1956.3,716.334 1958.29,716.368 1960.27,716.368 1962.25,716.375 1964.23,716.389 1966.22,716.416 1968.2,716.416 1970.18,716.422 1972.16,716.432 1974.14,716.454 1976.13,716.454 1978.11,716.459 1980.09,716.467 1982.07,716.485 1984.06,716.52 1986.04,716.52 1988.02,716.527 1990,716.541 1991.98,716.569 1993.97,716.569 1995.95,716.575 1997.93,716.586 1999.91,716.608 2001.9,716.608 2003.88,716.613 2005.86,716.622 2007.84,716.64 2009.82,716.676 2011.81,716.676 2013.79,716.683 2015.77,716.697 2017.75,716.726 2019.74,716.726 2021.72,716.732 2023.7,716.743 2025.68,716.766 2027.67,716.766 2029.65,716.771 2031.63,716.78 2033.61,716.798 2035.59,716.835 2037.58,716.835 2039.56,716.843 2041.54,716.857 2043.52,716.887 2045.51,716.887 2047.49,716.893 2049.47,716.904 2051.45,716.928 2053.43,716.928 2055.42,716.933 2057.4,716.942 2059.38,716.961 2061.36,716.999 2063.35,716.999 2065.33,717.006 2067.31,717.021 2069.29,717.051 2071.27,717.051 2073.26,717.057 2075.24,717.07 2077.22,717.094 2079.2,717.094 2081.19,717.098 2083.17,717.108 2085.15,717.127 2087.13,717.127 2089.12,717.131 2091.1,717.139 2093.08,717.155 2095.06,717.185 2097.04,717.185 2099.03,717.192 2101.01,717.204 2102.99,717.229 2104.97,717.229 2106.96,717.234 2108.94,717.244 2110.92,717.263 2112.9,717.263 2114.88,717.267 2116.87,717.275 2118.85,717.291 2120.83,717.323 2122.81,717.323 2124.8,717.329 2126.78,717.342 2128.76,717.367 2130.74,717.367 2132.73,717.372 2134.71,717.382 2136.69,717.403 2138.67,717.403 2140.65,717.407 2142.64,717.415 2144.62,717.431 2146.6,717.464 2148.58,717.464 2150.57,717.47 2152.55,717.483 2154.53,717.509 2156.51,717.509 2158.49,717.514 2160.48,717.525 2162.46,717.545 2164.44,717.545 2166.42,717.55 2168.41,717.558 2170.39,717.574 2172.37,717.608 2174.35,717.608 2176.33,717.614 2178.32,717.628 2180.3,717.654 2182.28,717.654 2184.26,717.66 2186.25,717.67 2188.23,717.692 2190.21,717.692 2192.19,717.696 2194.18,717.704 2196.16,717.721 2198.14,717.756 2200.12,717.756 2202.1,717.762 2204.09,717.776 2206.07,717.803 2208.05,717.803 2210.03,717.809 2212.02,717.82 2214,717.841 2215.98,717.841 2217.96,717.846 2219.94,717.855 2221.93,717.872 2223.91,717.907 2225.89,717.907 2227.87,717.914 2229.86,717.928 2231.84,717.956 2233.82,717.956 2235.8,717.962 2237.78,717.973 2239.77,717.995 2241.75,717.995 2243.73,718 2245.71,718.008 2247.7,718.026 2249.68,718.062 2251.66,718.062 2253.64,718.069 2255.63,718.084 2257.61,718.112 2259.59,718.112 2261.57,718.118 2263.55,718.13 2265.54,718.152 2267.52,718.152 2269.5,718.157 2271.48,718.166 2273.47,718.185 2275.45,718.221 2277.43,718.221 2279.41,718.229 2281.39,718.243 2283.38,718.273 2285.36,718.273 2287.34,718.278 2289.32,718.29 2291.31,718.314 2293.29,718.314 "/>
<polyline clip-path="url(#clip772)" style="stroke:#c271d2; stroke-linecap:round; stroke-linejoin:round; stroke-width:4; stroke-opacity:1; fill:none" points="311.028,160.256 313.01,414.251 314.993,500.871 316.975,640.727 318.957,826.45 320.939,1292.5 "/>
<polyline clip-path="url(#clip772)" style="stroke:#ac8d18; stroke-linecap:round; stroke-linejoin:round; stroke-width:4; stroke-opacity:1; fill:none" points="311.028,160.256 313.01,414.251 314.993,500.173 316.975,623.613 318.957,878.936 320.939,1386.4 "/>
<path clip-path="url(#clip770)" d="M1749.5 477.836 L2282.72 477.836 L2282.72 166.796 L1749.5 166.796  Z" fill="#ffffff" fill-rule="evenodd" fill-opacity="1"/>
<polyline clip-path="url(#clip770)" style="stroke:#000000; stroke-linecap:round; stroke-linejoin:round; stroke-width:4; stroke-opacity:1; fill:none" points="1749.5,477.836 2282.72,477.836 2282.72,166.796 1749.5,166.796 1749.5,477.836 "/>
<polyline clip-path="url(#clip770)" style="stroke:#009af9; stroke-linecap:round; stroke-linejoin:round; stroke-width:4; stroke-opacity:1; fill:none" points="1772.84,218.636 1912.92,218.636 "/>
<path clip-path="url(#clip770)" d="M1936.27 201.356 L1940.95 201.356 L1940.95 231.981 L1957.77 231.981 L1957.77 235.916 L1936.27 235.916 L1936.27 201.356 Z" fill="#000000" fill-rule="nonzero" fill-opacity="1" /><path clip-path="url(#clip770)" d="M1962.68 201.356 L1969.65 201.356 L1978.47 224.874 L1987.33 201.356 L1994.3 201.356 L1994.3 235.916 L1989.74 235.916 L1989.74 205.569 L1980.83 229.272 L1976.13 229.272 L1967.22 205.569 L1967.22 235.916 L1962.68 235.916 L1962.68 201.356 Z" fill="#000000" fill-rule="nonzero" fill-opacity="1" /><path clip-path="url(#clip770)" d="M2023.1 243.786 L2023.1 247.096 L1998.47 247.096 L1998.47 243.786 L2023.1 243.786 Z" fill="#000000" fill-rule="nonzero" fill-opacity="1" /><path clip-path="url(#clip770)" d="M2048 202.49 L2048 207.05 Q2045.34 205.777 2042.98 205.152 Q2040.62 204.527 2038.42 204.527 Q2034.6 204.527 2032.52 206.008 Q2030.46 207.49 2030.46 210.221 Q2030.46 212.513 2031.82 213.694 Q2033.21 214.851 2037.06 215.569 L2039.88 216.147 Q2045.11 217.143 2047.59 219.666 Q2050.09 222.166 2050.09 226.379 Q2050.09 231.402 2046.71 233.994 Q2043.35 236.587 2036.85 236.587 Q2034.39 236.587 2031.62 236.031 Q2028.86 235.476 2025.9 234.388 L2025.9 229.573 Q2028.75 231.17 2031.48 231.981 Q2034.21 232.791 2036.85 232.791 Q2040.85 232.791 2043.03 231.217 Q2045.2 229.643 2045.2 226.726 Q2045.2 224.18 2043.63 222.744 Q2042.08 221.309 2038.51 220.592 L2035.67 220.036 Q2030.44 218.995 2028.1 216.772 Q2025.76 214.55 2025.76 210.592 Q2025.76 206.008 2028.98 203.37 Q2032.22 200.731 2037.89 200.731 Q2040.32 200.731 2042.84 201.171 Q2045.37 201.61 2048 202.49 Z" fill="#000000" fill-rule="nonzero" fill-opacity="1" /><path clip-path="url(#clip770)" d="M2062.06 205.198 L2062.06 218.184 L2067.94 218.184 Q2071.2 218.184 2072.98 216.495 Q2074.76 214.805 2074.76 211.68 Q2074.76 208.578 2072.98 206.888 Q2071.2 205.198 2067.94 205.198 L2062.06 205.198 M2057.38 201.356 L2067.94 201.356 Q2073.75 201.356 2076.71 203.995 Q2079.69 206.61 2079.69 211.68 Q2079.69 216.795 2076.71 219.411 Q2073.75 222.027 2067.94 222.027 L2062.06 222.027 L2062.06 235.916 L2057.38 235.916 L2057.38 201.356 Z" fill="#000000" fill-rule="nonzero" fill-opacity="1" /><path clip-path="url(#clip770)" d="M2109.53 230.985 L2109.53 221.703 L2101.89 221.703 L2101.89 217.86 L2114.16 217.86 L2114.16 232.698 Q2111.45 234.619 2108.19 235.615 Q2104.93 236.587 2101.22 236.587 Q2093.12 236.587 2088.54 231.865 Q2083.98 227.119 2083.98 218.67 Q2083.98 210.198 2088.54 205.476 Q2093.12 200.731 2101.22 200.731 Q2104.6 200.731 2107.63 201.564 Q2110.69 202.397 2113.26 204.018 L2113.26 208.995 Q2110.67 206.796 2107.75 205.684 Q2104.83 204.573 2101.62 204.573 Q2095.27 204.573 2092.08 208.115 Q2088.91 211.657 2088.91 218.67 Q2088.91 225.661 2092.08 229.203 Q2095.27 232.744 2101.62 232.744 Q2104.09 232.744 2106.04 232.328 Q2107.98 231.888 2109.53 230.985 Z" fill="#000000" fill-rule="nonzero" fill-opacity="1" /><polyline clip-path="url(#clip770)" style="stroke:#e26f46; stroke-linecap:round; stroke-linejoin:round; stroke-width:4; stroke-opacity:1; fill:none" points="1772.84,270.476 1912.92,270.476 "/>
<path clip-path="url(#clip770)" d="M1936.27 253.196 L1940.95 253.196 L1940.95 283.821 L1957.77 283.821 L1957.77 287.756 L1936.27 287.756 L1936.27 253.196 Z" fill="#000000" fill-rule="nonzero" fill-opacity="1" /><path clip-path="url(#clip770)" d="M1962.68 253.196 L1969.65 253.196 L1978.47 276.714 L1987.33 253.196 L1994.3 253.196 L1994.3 287.756 L1989.74 287.756 L1989.74 257.409 L1980.83 281.112 L1976.13 281.112 L1967.22 257.409 L1967.22 287.756 L1962.68 287.756 L1962.68 253.196 Z" fill="#000000" fill-rule="nonzero" fill-opacity="1" /><path clip-path="url(#clip770)" d="M2023.1 295.626 L2023.1 298.936 L1998.47 298.936 L1998.47 295.626 L2023.1 295.626 Z" fill="#000000" fill-rule="nonzero" fill-opacity="1" /><path clip-path="url(#clip770)" d="M2038.84 257.802 L2032.5 275.001 L2045.2 275.001 L2038.84 257.802 M2036.2 253.196 L2041.5 253.196 L2054.67 287.756 L2049.81 287.756 L2046.66 278.89 L2031.08 278.89 L2027.94 287.756 L2023 287.756 L2036.2 253.196 Z" fill="#000000" fill-rule="nonzero" fill-opacity="1" /><path clip-path="url(#clip770)" d="M2081.08 272.108 L2081.08 287.756 L2076.82 287.756 L2076.82 272.247 Q2076.82 268.566 2075.39 266.737 Q2073.95 264.909 2071.08 264.909 Q2067.63 264.909 2065.64 267.108 Q2063.65 269.307 2063.65 273.103 L2063.65 287.756 L2059.37 287.756 L2059.37 261.83 L2063.65 261.83 L2063.65 265.858 Q2065.18 263.52 2067.24 262.362 Q2069.32 261.205 2072.03 261.205 Q2076.5 261.205 2078.79 263.983 Q2081.08 266.737 2081.08 272.108 Z" fill="#000000" fill-rule="nonzero" fill-opacity="1" /><path clip-path="url(#clip770)" d="M2106.64 265.765 L2106.64 251.737 L2110.9 251.737 L2110.9 287.756 L2106.64 287.756 L2106.64 283.867 Q2105.3 286.182 2103.24 287.316 Q2101.2 288.427 2098.33 288.427 Q2093.63 288.427 2090.67 284.677 Q2087.73 280.927 2087.73 274.816 Q2087.73 268.705 2090.67 264.955 Q2093.63 261.205 2098.33 261.205 Q2101.2 261.205 2103.24 262.339 Q2105.3 263.45 2106.64 265.765 M2092.12 274.816 Q2092.12 279.515 2094.05 282.2 Q2095.99 284.862 2099.37 284.862 Q2102.75 284.862 2104.69 282.2 Q2106.64 279.515 2106.64 274.816 Q2106.64 270.117 2104.69 267.455 Q2102.75 264.77 2099.37 264.77 Q2095.99 264.77 2094.05 267.455 Q2092.12 270.117 2092.12 274.816 Z" fill="#000000" fill-rule="nonzero" fill-opacity="1" /><path clip-path="url(#clip770)" d="M2134.69 265.811 Q2133.98 265.395 2133.12 265.21 Q2132.29 265.001 2131.27 265.001 Q2127.66 265.001 2125.71 267.362 Q2123.79 269.7 2123.79 274.098 L2123.79 287.756 L2119.51 287.756 L2119.51 261.83 L2123.79 261.83 L2123.79 265.858 Q2125.13 263.497 2127.29 262.362 Q2129.44 261.205 2132.52 261.205 Q2132.96 261.205 2133.49 261.274 Q2134.02 261.321 2134.67 261.436 L2134.69 265.811 Z" fill="#000000" fill-rule="nonzero" fill-opacity="1" /><path clip-path="url(#clip770)" d="M2160.3 273.728 L2160.3 275.811 L2140.71 275.811 Q2140.99 280.209 2143.35 282.524 Q2145.74 284.816 2149.97 284.816 Q2152.43 284.816 2154.72 284.214 Q2157.03 283.612 2159.3 282.409 L2159.3 286.436 Q2157.01 287.408 2154.6 287.918 Q2152.19 288.427 2149.72 288.427 Q2143.51 288.427 2139.88 284.816 Q2136.27 281.205 2136.27 275.047 Q2136.27 268.682 2139.69 264.955 Q2143.14 261.205 2148.98 261.205 Q2154.21 261.205 2157.24 264.585 Q2160.3 267.941 2160.3 273.728 M2156.04 272.478 Q2155.99 268.983 2154.07 266.899 Q2152.17 264.816 2149.02 264.816 Q2145.46 264.816 2143.31 266.83 Q2141.18 268.844 2140.85 272.501 L2156.04 272.478 Z" fill="#000000" fill-rule="nonzero" fill-opacity="1" /><path clip-path="url(#clip770)" d="M2167.29 261.83 L2171.55 261.83 L2171.55 287.756 L2167.29 287.756 L2167.29 261.83 M2167.29 251.737 L2171.55 251.737 L2171.55 257.131 L2167.29 257.131 L2167.29 251.737 Z" fill="#000000" fill-rule="nonzero" fill-opacity="1" /><path clip-path="url(#clip770)" d="M2200.16 295.626 L2200.16 298.936 L2175.53 298.936 L2175.53 295.626 L2200.16 295.626 Z" fill="#000000" fill-rule="nonzero" fill-opacity="1" /><path clip-path="url(#clip770)" d="M2215.94 274.723 Q2210.78 274.723 2208.79 275.904 Q2206.8 277.084 2206.8 279.932 Q2206.8 282.2 2208.28 283.543 Q2209.79 284.862 2212.36 284.862 Q2215.9 284.862 2218.03 282.362 Q2220.18 279.839 2220.18 275.672 L2220.18 274.723 L2215.94 274.723 M2224.44 272.964 L2224.44 287.756 L2220.18 287.756 L2220.18 283.821 Q2218.72 286.182 2216.55 287.316 Q2214.37 288.427 2211.22 288.427 Q2207.24 288.427 2204.88 286.205 Q2202.54 283.959 2202.54 280.209 Q2202.54 275.834 2205.46 273.612 Q2208.4 271.39 2214.21 271.39 L2220.18 271.39 L2220.18 270.973 Q2220.18 268.034 2218.24 266.436 Q2216.31 264.816 2212.82 264.816 Q2210.6 264.816 2208.49 265.348 Q2206.38 265.881 2204.44 266.946 L2204.44 263.01 Q2206.78 262.108 2208.98 261.668 Q2211.18 261.205 2213.26 261.205 Q2218.88 261.205 2221.66 264.122 Q2224.44 267.038 2224.44 272.964 Z" fill="#000000" fill-rule="nonzero" fill-opacity="1" /><path clip-path="url(#clip770)" d="M2233.21 251.737 L2237.47 251.737 L2237.47 287.756 L2233.21 287.756 L2233.21 251.737 Z" fill="#000000" fill-rule="nonzero" fill-opacity="1" /><path clip-path="url(#clip770)" d="M2250.6 254.469 L2250.6 261.83 L2259.37 261.83 L2259.37 265.14 L2250.6 265.14 L2250.6 279.214 Q2250.6 282.385 2251.45 283.288 Q2252.33 284.191 2254.99 284.191 L2259.37 284.191 L2259.37 287.756 L2254.99 287.756 Q2250.06 287.756 2248.19 285.927 Q2246.31 284.075 2246.31 279.214 L2246.31 265.14 L2243.19 265.14 L2243.19 261.83 L2246.31 261.83 L2246.31 254.469 L2250.6 254.469 Z" fill="#000000" fill-rule="nonzero" fill-opacity="1" /><polyline clip-path="url(#clip770)" style="stroke:#3da44d; stroke-linecap:round; stroke-linejoin:round; stroke-width:4; stroke-opacity:1; fill:none" points="1772.84,322.316 1912.92,322.316 "/>
<path clip-path="url(#clip770)" d="M1936.27 305.036 L1940.95 305.036 L1940.95 335.661 L1957.77 335.661 L1957.77 339.596 L1936.27 339.596 L1936.27 305.036 Z" fill="#000000" fill-rule="nonzero" fill-opacity="1" /><path clip-path="url(#clip770)" d="M1962.68 305.036 L1969.65 305.036 L1978.47 328.554 L1987.33 305.036 L1994.3 305.036 L1994.3 339.596 L1989.74 339.596 L1989.74 309.249 L1980.83 332.952 L1976.13 332.952 L1967.22 309.249 L1967.22 339.596 L1962.68 339.596 L1962.68 305.036 Z" fill="#000000" fill-rule="nonzero" fill-opacity="1" /><path clip-path="url(#clip770)" d="M2023.1 347.466 L2023.1 350.776 L1998.47 350.776 L1998.47 347.466 L2023.1 347.466 Z" fill="#000000" fill-rule="nonzero" fill-opacity="1" /><path clip-path="url(#clip770)" d="M2038.84 309.642 L2032.5 326.841 L2045.2 326.841 L2038.84 309.642 M2036.2 305.036 L2041.5 305.036 L2054.67 339.596 L2049.81 339.596 L2046.66 330.73 L2031.08 330.73 L2027.94 339.596 L2023 339.596 L2036.2 305.036 Z" fill="#000000" fill-rule="nonzero" fill-opacity="1" /><path clip-path="url(#clip770)" d="M2081.08 323.948 L2081.08 339.596 L2076.82 339.596 L2076.82 324.087 Q2076.82 320.406 2075.39 318.577 Q2073.95 316.749 2071.08 316.749 Q2067.63 316.749 2065.64 318.948 Q2063.65 321.147 2063.65 324.943 L2063.65 339.596 L2059.37 339.596 L2059.37 313.67 L2063.65 313.67 L2063.65 317.698 Q2065.18 315.36 2067.24 314.202 Q2069.32 313.045 2072.03 313.045 Q2076.5 313.045 2078.79 315.823 Q2081.08 318.577 2081.08 323.948 Z" fill="#000000" fill-rule="nonzero" fill-opacity="1" /><path clip-path="url(#clip770)" d="M2106.64 317.605 L2106.64 303.577 L2110.9 303.577 L2110.9 339.596 L2106.64 339.596 L2106.64 335.707 Q2105.3 338.022 2103.24 339.156 Q2101.2 340.267 2098.33 340.267 Q2093.63 340.267 2090.67 336.517 Q2087.73 332.767 2087.73 326.656 Q2087.73 320.545 2090.67 316.795 Q2093.63 313.045 2098.33 313.045 Q2101.2 313.045 2103.24 314.179 Q2105.3 315.29 2106.64 317.605 M2092.12 326.656 Q2092.12 331.355 2094.05 334.04 Q2095.99 336.702 2099.37 336.702 Q2102.75 336.702 2104.69 334.04 Q2106.64 331.355 2106.64 326.656 Q2106.64 321.957 2104.69 319.295 Q2102.75 316.61 2099.37 316.61 Q2095.99 316.61 2094.05 319.295 Q2092.12 321.957 2092.12 326.656 Z" fill="#000000" fill-rule="nonzero" fill-opacity="1" /><path clip-path="url(#clip770)" d="M2134.69 317.651 Q2133.98 317.235 2133.12 317.05 Q2132.29 316.841 2131.27 316.841 Q2127.66 316.841 2125.71 319.202 Q2123.79 321.54 2123.79 325.938 L2123.79 339.596 L2119.51 339.596 L2119.51 313.67 L2123.79 313.67 L2123.79 317.698 Q2125.13 315.337 2127.29 314.202 Q2129.44 313.045 2132.52 313.045 Q2132.96 313.045 2133.49 313.114 Q2134.02 313.161 2134.67 313.276 L2134.69 317.651 Z" fill="#000000" fill-rule="nonzero" fill-opacity="1" /><path clip-path="url(#clip770)" d="M2160.3 325.568 L2160.3 327.651 L2140.71 327.651 Q2140.99 332.049 2143.35 334.364 Q2145.74 336.656 2149.97 336.656 Q2152.43 336.656 2154.72 336.054 Q2157.03 335.452 2159.3 334.249 L2159.3 338.276 Q2157.01 339.248 2154.6 339.758 Q2152.19 340.267 2149.72 340.267 Q2143.51 340.267 2139.88 336.656 Q2136.27 333.045 2136.27 326.887 Q2136.27 320.522 2139.69 316.795 Q2143.14 313.045 2148.98 313.045 Q2154.21 313.045 2157.24 316.425 Q2160.3 319.781 2160.3 325.568 M2156.04 324.318 Q2155.99 320.823 2154.07 318.739 Q2152.17 316.656 2149.02 316.656 Q2145.46 316.656 2143.31 318.67 Q2141.18 320.684 2140.85 324.341 L2156.04 324.318 Z" fill="#000000" fill-rule="nonzero" fill-opacity="1" /><path clip-path="url(#clip770)" d="M2167.29 313.67 L2171.55 313.67 L2171.55 339.596 L2167.29 339.596 L2167.29 313.67 M2167.29 303.577 L2171.55 303.577 L2171.55 308.971 L2167.29 308.971 L2167.29 303.577 Z" fill="#000000" fill-rule="nonzero" fill-opacity="1" /><polyline clip-path="url(#clip770)" style="stroke:#c271d2; stroke-linecap:round; stroke-linejoin:round; stroke-width:4; stroke-opacity:1; fill:none" points="1772.84,374.156 1912.92,374.156 "/>
<path clip-path="url(#clip770)" d="M1936.27 356.876 L1940.95 356.876 L1940.95 387.501 L1957.77 387.501 L1957.77 391.436 L1936.27 391.436 L1936.27 356.876 Z" fill="#000000" fill-rule="nonzero" fill-opacity="1" /><path clip-path="url(#clip770)" d="M1962.68 356.876 L1969.65 356.876 L1978.47 380.394 L1987.33 356.876 L1994.3 356.876 L1994.3 391.436 L1989.74 391.436 L1989.74 361.089 L1980.83 384.792 L1976.13 384.792 L1967.22 361.089 L1967.22 391.436 L1962.68 391.436 L1962.68 356.876 Z" fill="#000000" fill-rule="nonzero" fill-opacity="1" /><path clip-path="url(#clip770)" d="M2023.1 399.306 L2023.1 402.616 L1998.47 402.616 L1998.47 399.306 L2023.1 399.306 Z" fill="#000000" fill-rule="nonzero" fill-opacity="1" /><path clip-path="url(#clip770)" d="M2048 358.01 L2048 362.57 Q2045.34 361.297 2042.98 360.672 Q2040.62 360.047 2038.42 360.047 Q2034.6 360.047 2032.52 361.528 Q2030.46 363.01 2030.46 365.741 Q2030.46 368.033 2031.82 369.214 Q2033.21 370.371 2037.06 371.089 L2039.88 371.667 Q2045.11 372.663 2047.59 375.186 Q2050.09 377.686 2050.09 381.899 Q2050.09 386.922 2046.71 389.514 Q2043.35 392.107 2036.85 392.107 Q2034.39 392.107 2031.62 391.551 Q2028.86 390.996 2025.9 389.908 L2025.9 385.093 Q2028.75 386.69 2031.48 387.501 Q2034.21 388.311 2036.85 388.311 Q2040.85 388.311 2043.03 386.737 Q2045.2 385.163 2045.2 382.246 Q2045.2 379.7 2043.63 378.264 Q2042.08 376.829 2038.51 376.112 L2035.67 375.556 Q2030.44 374.515 2028.1 372.292 Q2025.76 370.07 2025.76 366.112 Q2025.76 361.528 2028.98 358.89 Q2032.22 356.251 2037.89 356.251 Q2040.32 356.251 2042.84 356.691 Q2045.37 357.13 2048 358.01 Z" fill="#000000" fill-rule="nonzero" fill-opacity="1" /><path clip-path="url(#clip770)" d="M2062.06 360.718 L2062.06 373.704 L2067.94 373.704 Q2071.2 373.704 2072.98 372.015 Q2074.76 370.325 2074.76 367.2 Q2074.76 364.098 2072.98 362.408 Q2071.2 360.718 2067.94 360.718 L2062.06 360.718 M2057.38 356.876 L2067.94 356.876 Q2073.75 356.876 2076.71 359.515 Q2079.69 362.13 2079.69 367.2 Q2079.69 372.315 2076.71 374.931 Q2073.75 377.547 2067.94 377.547 L2062.06 377.547 L2062.06 391.436 L2057.38 391.436 L2057.38 356.876 Z" fill="#000000" fill-rule="nonzero" fill-opacity="1" /><path clip-path="url(#clip770)" d="M2109.53 386.505 L2109.53 377.223 L2101.89 377.223 L2101.89 373.38 L2114.16 373.38 L2114.16 388.218 Q2111.45 390.139 2108.19 391.135 Q2104.93 392.107 2101.22 392.107 Q2093.12 392.107 2088.54 387.385 Q2083.98 382.639 2083.98 374.19 Q2083.98 365.718 2088.54 360.996 Q2093.12 356.251 2101.22 356.251 Q2104.6 356.251 2107.63 357.084 Q2110.69 357.917 2113.26 359.538 L2113.26 364.515 Q2110.67 362.316 2107.75 361.204 Q2104.83 360.093 2101.62 360.093 Q2095.27 360.093 2092.08 363.635 Q2088.91 367.177 2088.91 374.19 Q2088.91 381.181 2092.08 384.723 Q2095.27 388.264 2101.62 388.264 Q2104.09 388.264 2106.04 387.848 Q2107.98 387.408 2109.53 386.505 Z" fill="#000000" fill-rule="nonzero" fill-opacity="1" /><path clip-path="url(#clip770)" d="M2142.22 399.306 L2142.22 402.616 L2117.59 402.616 L2117.59 399.306 L2142.22 399.306 Z" fill="#000000" fill-rule="nonzero" fill-opacity="1" /><path clip-path="url(#clip770)" d="M2158 378.403 Q2152.84 378.403 2150.85 379.584 Q2148.86 380.764 2148.86 383.612 Q2148.86 385.88 2150.34 387.223 Q2151.85 388.542 2154.42 388.542 Q2157.96 388.542 2160.09 386.042 Q2162.24 383.519 2162.24 379.352 L2162.24 378.403 L2158 378.403 M2166.5 376.644 L2166.5 391.436 L2162.24 391.436 L2162.24 387.501 Q2160.78 389.862 2158.61 390.996 Q2156.43 392.107 2153.28 392.107 Q2149.3 392.107 2146.94 389.885 Q2144.6 387.639 2144.6 383.889 Q2144.6 379.514 2147.52 377.292 Q2150.46 375.07 2156.27 375.07 L2162.24 375.07 L2162.24 374.653 Q2162.24 371.714 2160.3 370.116 Q2158.37 368.496 2154.88 368.496 Q2152.66 368.496 2150.55 369.028 Q2148.44 369.561 2146.5 370.626 L2146.5 366.69 Q2148.84 365.788 2151.04 365.348 Q2153.24 364.885 2155.32 364.885 Q2160.94 364.885 2163.72 367.802 Q2166.5 370.718 2166.5 376.644 Z" fill="#000000" fill-rule="nonzero" fill-opacity="1" /><path clip-path="url(#clip770)" d="M2175.27 355.417 L2179.53 355.417 L2179.53 391.436 L2175.27 391.436 L2175.27 355.417 Z" fill="#000000" fill-rule="nonzero" fill-opacity="1" /><path clip-path="url(#clip770)" d="M2192.66 358.149 L2192.66 365.51 L2201.43 365.51 L2201.43 368.82 L2192.66 368.82 L2192.66 382.894 Q2192.66 386.065 2193.51 386.968 Q2194.39 387.871 2197.05 387.871 L2201.43 387.871 L2201.43 391.436 L2197.05 391.436 Q2192.12 391.436 2190.25 389.607 Q2188.37 387.755 2188.37 382.894 L2188.37 368.82 L2185.25 368.82 L2185.25 365.51 L2188.37 365.51 L2188.37 358.149 L2192.66 358.149 Z" fill="#000000" fill-rule="nonzero" fill-opacity="1" /><polyline clip-path="url(#clip770)" style="stroke:#ac8d18; stroke-linecap:round; stroke-linejoin:round; stroke-width:4; stroke-opacity:1; fill:none" points="1772.84,425.996 1912.92,425.996 "/>
<path clip-path="url(#clip770)" d="M1936.27 408.716 L1940.95 408.716 L1940.95 439.341 L1957.77 439.341 L1957.77 443.276 L1936.27 443.276 L1936.27 408.716 Z" fill="#000000" fill-rule="nonzero" fill-opacity="1" /><path clip-path="url(#clip770)" d="M1962.68 408.716 L1969.65 408.716 L1978.47 432.234 L1987.33 408.716 L1994.3 408.716 L1994.3 443.276 L1989.74 443.276 L1989.74 412.929 L1980.83 436.632 L1976.13 436.632 L1967.22 412.929 L1967.22 443.276 L1962.68 443.276 L1962.68 408.716 Z" fill="#000000" fill-rule="nonzero" fill-opacity="1" /></svg>
