<?xml version="1.0" encoding="utf-8"?>
<svg xmlns="http://www.w3.org/2000/svg" xmlns:xlink="http://www.w3.org/1999/xlink" width="600" height="400" viewBox="0 0 2400 1600">
<defs>
  <clipPath id="clip770">
    <rect x="0" y="0" width="2400" height="1600"/>
  </clipPath>
</defs>
<path clip-path="url(#clip770)" d="M0 1600 L2400 1600 L2400 0 L0 0  Z" fill="#ffffff" fill-rule="evenodd" fill-opacity="1"/>
<defs>
  <clipPath id="clip771">
    <rect x="480" y="0" width="1681" height="1600"/>
  </clipPath>
</defs>
<path clip-path="url(#clip770)" d="M251.842 1423.18 L2352.76 1423.18 L2352.76 123.472 L251.842 123.472  Z" fill="#ffffff" fill-rule="evenodd" fill-opacity="1"/>
<defs>
  <clipPath id="clip772">
    <rect x="251" y="123" width="2102" height="1301"/>
  </clipPath>
</defs>
<polyline clip-path="url(#clip772)" style="stroke:#000000; stroke-linecap:round; stroke-linejoin:round; stroke-width:2; stroke-opacity:0.1; fill:none" points="309.32,1423.18 309.32,123.472 "/>
<polyline clip-path="url(#clip772)" style="stroke:#000000; stroke-linecap:round; stroke-linejoin:round; stroke-width:2; stroke-opacity:0.1; fill:none" points="804.819,1423.18 804.819,123.472 "/>
<polyline clip-path="url(#clip772)" style="stroke:#000000; stroke-linecap:round; stroke-linejoin:round; stroke-width:2; stroke-opacity:0.1; fill:none" points="1300.32,1423.18 1300.32,123.472 "/>
<polyline clip-path="url(#clip772)" style="stroke:#000000; stroke-linecap:round; stroke-linejoin:round; stroke-width:2; stroke-opacity:0.1; fill:none" points="1795.82,1423.18 1795.82,123.472 "/>
<polyline clip-path="url(#clip772)" style="stroke:#000000; stroke-linecap:round; stroke-linejoin:round; stroke-width:2; stroke-opacity:0.1; fill:none" points="2291.31,1423.18 2291.31,123.472 "/>
<polyline clip-path="url(#clip770)" style="stroke:#000000; stroke-linecap:round; stroke-linejoin:round; stroke-width:4; stroke-opacity:1; fill:none" points="251.842,1423.18 2352.76,1423.18 "/>
<polyline clip-path="url(#clip770)" style="stroke:#000000; stroke-linecap:round; stroke-linejoin:round; stroke-width:4; stroke-opacity:1; fill:none" points="309.32,1423.18 309.32,1404.28 "/>
<polyline clip-path="url(#clip770)" style="stroke:#000000; stroke-linecap:round; stroke-linejoin:round; stroke-width:4; stroke-opacity:1; fill:none" points="804.819,1423.18 804.819,1404.28 "/>
<polyline clip-path="url(#clip770)" style="stroke:#000000; stroke-linecap:round; stroke-linejoin:round; stroke-width:4; stroke-opacity:1; fill:none" points="1300.32,1423.18 1300.32,1404.28 "/>
<polyline clip-path="url(#clip770)" style="stroke:#000000; stroke-linecap:round; stroke-linejoin:round; stroke-width:4; stroke-opacity:1; fill:none" points="1795.82,1423.18 1795.82,1404.28 "/>
<polyline clip-path="url(#clip770)" style="stroke:#000000; stroke-linecap:round; stroke-linejoin:round; stroke-width:4; stroke-opacity:1; fill:none" points="2291.31,1423.18 2291.31,1404.28 "/>
<path clip-path="url(#clip770)" d="M309.32 1454.1 Q305.709 1454.1 303.88 1457.66 Q302.075 1461.2 302.075 1468.33 Q302.075 1475.44 303.88 1479.01 Q305.709 1482.55 309.32 1482.55 Q312.954 1482.55 314.76 1479.01 Q316.589 1475.44 316.589 1468.33 Q316.589 1461.2 314.76 1457.66 Q312.954 1454.1 309.32 1454.1 M309.32 1450.39 Q315.13 1450.39 318.186 1455 Q321.265 1459.58 321.265 1468.33 Q321.265 1477.06 318.186 1481.67 Q315.13 1486.25 309.32 1486.25 Q303.51 1486.25 300.431 1481.67 Q297.376 1477.06 297.376 1468.33 Q297.376 1459.58 300.431 1455 Q303.51 1450.39 309.32 1450.39 Z" fill="#000000" fill-rule="nonzero" fill-opacity="1" /><path clip-path="url(#clip770)" d="M768.511 1481.64 L784.83 1481.64 L784.83 1485.58 L762.886 1485.58 L762.886 1481.64 Q765.548 1478.89 770.131 1474.26 Q774.738 1469.61 775.918 1468.27 Q778.164 1465.74 779.043 1464.01 Q779.946 1462.25 779.946 1460.56 Q779.946 1457.8 778.002 1456.07 Q776.08 1454.33 772.979 1454.33 Q770.779 1454.33 768.326 1455.09 Q765.895 1455.86 763.118 1457.41 L763.118 1452.69 Q765.942 1451.55 768.395 1450.97 Q770.849 1450.39 772.886 1450.39 Q778.256 1450.39 781.451 1453.08 Q784.645 1455.77 784.645 1460.26 Q784.645 1462.39 783.835 1464.31 Q783.048 1466.2 780.941 1468.8 Q780.363 1469.47 777.261 1472.69 Q774.159 1475.88 768.511 1481.64 Z" fill="#000000" fill-rule="nonzero" fill-opacity="1" /><path clip-path="url(#clip770)" d="M794.691 1451.02 L813.048 1451.02 L813.048 1454.96 L798.974 1454.96 L798.974 1463.43 Q799.992 1463.08 801.011 1462.92 Q802.029 1462.73 803.048 1462.73 Q808.835 1462.73 812.214 1465.9 Q815.594 1469.08 815.594 1474.49 Q815.594 1480.07 812.122 1483.17 Q808.65 1486.25 802.33 1486.25 Q800.154 1486.25 797.886 1485.88 Q795.64 1485.51 793.233 1484.77 L793.233 1480.07 Q795.316 1481.2 797.539 1481.76 Q799.761 1482.32 802.238 1482.32 Q806.242 1482.32 808.58 1480.21 Q810.918 1478.1 810.918 1474.49 Q810.918 1470.88 808.58 1468.77 Q806.242 1466.67 802.238 1466.67 Q800.363 1466.67 798.488 1467.08 Q796.636 1467.5 794.691 1468.38 L794.691 1451.02 Z" fill="#000000" fill-rule="nonzero" fill-opacity="1" /><path clip-path="url(#clip770)" d="M834.807 1454.1 Q831.196 1454.1 829.367 1457.66 Q827.562 1461.2 827.562 1468.33 Q827.562 1475.44 829.367 1479.01 Q831.196 1482.55 834.807 1482.55 Q838.441 1482.55 840.247 1479.01 Q842.075 1475.44 842.075 1468.33 Q842.075 1461.2 840.247 1457.66 Q838.441 1454.1 834.807 1454.1 M834.807 1450.39 Q840.617 1450.39 843.673 1455 Q846.751 1459.58 846.751 1468.33 Q846.751 1477.06 843.673 1481.67 Q840.617 1486.25 834.807 1486.25 Q828.997 1486.25 825.918 1481.67 Q822.863 1477.06 822.863 1468.33 Q822.863 1459.58 825.918 1455 Q828.997 1450.39 834.807 1450.39 Z" fill="#000000" fill-rule="nonzero" fill-opacity="1" /><path clip-path="url(#clip770)" d="M1259.94 1451.02 L1278.29 1451.02 L1278.29 1454.96 L1264.22 1454.96 L1264.22 1463.43 Q1265.24 1463.08 1266.25 1462.92 Q1267.27 1462.73 1268.29 1462.73 Q1274.08 1462.73 1277.46 1465.9 Q1280.84 1469.08 1280.84 1474.49 Q1280.84 1480.07 1277.37 1483.17 Q1273.89 1486.25 1267.57 1486.25 Q1265.4 1486.25 1263.13 1485.88 Q1260.88 1485.51 1258.48 1484.77 L1258.48 1480.07 Q1260.56 1481.2 1262.78 1481.76 Q1265 1482.32 1267.48 1482.32 Q1271.49 1482.32 1273.82 1480.21 Q1276.16 1478.1 1276.16 1474.49 Q1276.16 1470.88 1273.82 1468.77 Q1271.49 1466.67 1267.48 1466.67 Q1265.61 1466.67 1263.73 1467.08 Q1261.88 1467.5 1259.94 1468.38 L1259.94 1451.02 Z" fill="#000000" fill-rule="nonzero" fill-opacity="1" /><path clip-path="url(#clip770)" d="M1300.05 1454.1 Q1296.44 1454.1 1294.61 1457.66 Q1292.81 1461.2 1292.81 1468.33 Q1292.81 1475.44 1294.61 1479.01 Q1296.44 1482.55 1300.05 1482.55 Q1303.69 1482.55 1305.49 1479.01 Q1307.32 1475.44 1307.32 1468.33 Q1307.32 1461.2 1305.49 1457.66 Q1303.69 1454.1 1300.05 1454.1 M1300.05 1450.39 Q1305.86 1450.39 1308.92 1455 Q1312 1459.58 1312 1468.33 Q1312 1477.06 1308.92 1481.67 Q1305.86 1486.25 1300.05 1486.25 Q1294.24 1486.25 1291.16 1481.67 Q1288.11 1477.06 1288.11 1468.33 Q1288.11 1459.58 1291.16 1455 Q1294.24 1450.39 1300.05 1450.39 Z" fill="#000000" fill-rule="nonzero" fill-opacity="1" /><path clip-path="url(#clip770)" d="M1330.21 1454.1 Q1326.6 1454.1 1324.77 1457.66 Q1322.97 1461.2 1322.97 1468.33 Q1322.97 1475.44 1324.77 1479.01 Q1326.6 1482.55 1330.21 1482.55 Q1333.85 1482.55 1335.65 1479.01 Q1337.48 1475.44 1337.48 1468.33 Q1337.48 1461.2 1335.65 1457.66 Q1333.85 1454.1 1330.21 1454.1 M1330.21 1450.39 Q1336.02 1450.39 1339.08 1455 Q1342.16 1459.58 1342.16 1468.33 Q1342.16 1477.06 1339.08 1481.67 Q1336.02 1486.25 1330.21 1486.25 Q1324.4 1486.25 1321.32 1481.67 Q1318.27 1477.06 1318.27 1468.33 Q1318.27 1459.58 1321.32 1455 Q1324.4 1450.39 1330.21 1450.39 Z" fill="#000000" fill-rule="nonzero" fill-opacity="1" /><path clip-path="url(#clip770)" d="M1754.09 1451.02 L1776.31 1451.02 L1776.31 1453.01 L1763.77 1485.58 L1758.88 1485.58 L1770.69 1454.96 L1754.09 1454.96 L1754.09 1451.02 Z" fill="#000000" fill-rule="nonzero" fill-opacity="1" /><path clip-path="url(#clip770)" d="M1785.48 1451.02 L1803.84 1451.02 L1803.84 1454.96 L1789.76 1454.96 L1789.76 1463.43 Q1790.78 1463.08 1791.8 1462.92 Q1792.82 1462.73 1793.84 1462.73 Q1799.62 1462.73 1803 1465.9 Q1806.38 1469.08 1806.38 1474.49 Q1806.38 1480.07 1802.91 1483.17 Q1799.44 1486.25 1793.12 1486.25 Q1790.94 1486.25 1788.67 1485.88 Q1786.43 1485.51 1784.02 1484.77 L1784.02 1480.07 Q1786.11 1481.2 1788.33 1481.76 Q1790.55 1482.32 1793.03 1482.32 Q1797.03 1482.32 1799.37 1480.21 Q1801.71 1478.1 1801.71 1474.49 Q1801.71 1470.88 1799.37 1468.77 Q1797.03 1466.67 1793.03 1466.67 Q1791.15 1466.67 1789.28 1467.08 Q1787.42 1467.5 1785.48 1468.38 L1785.48 1451.02 Z" fill="#000000" fill-rule="nonzero" fill-opacity="1" /><path clip-path="url(#clip770)" d="M1825.6 1454.1 Q1821.98 1454.1 1820.16 1457.66 Q1818.35 1461.2 1818.35 1468.33 Q1818.35 1475.44 1820.16 1479.01 Q1821.98 1482.55 1825.6 1482.55 Q1829.23 1482.55 1831.04 1479.01 Q1832.86 1475.44 1832.86 1468.33 Q1832.86 1461.2 1831.04 1457.66 Q1829.23 1454.1 1825.6 1454.1 M1825.6 1450.39 Q1831.41 1450.39 1834.46 1455 Q1837.54 1459.58 1837.54 1468.33 Q1837.54 1477.06 1834.46 1481.67 Q1831.41 1486.25 1825.6 1486.25 Q1819.79 1486.25 1816.71 1481.67 Q1813.65 1477.06 1813.65 1468.33 Q1813.65 1459.58 1816.71 1455 Q1819.79 1450.39 1825.6 1450.39 Z" fill="#000000" fill-rule="nonzero" fill-opacity="1" /><path clip-path="url(#clip770)" d="M2235.84 1481.64 L2243.48 1481.64 L2243.48 1455.28 L2235.17 1456.95 L2235.17 1452.69 L2243.43 1451.02 L2248.11 1451.02 L2248.11 1481.64 L2255.75 1481.64 L2255.75 1485.58 L2235.84 1485.58 L2235.84 1481.64 Z" fill="#000000" fill-rule="nonzero" fill-opacity="1" /><path clip-path="url(#clip770)" d="M2275.19 1454.1 Q2271.58 1454.1 2269.75 1457.66 Q2267.95 1461.2 2267.95 1468.33 Q2267.95 1475.44 2269.75 1479.01 Q2271.58 1482.55 2275.19 1482.55 Q2278.83 1482.55 2280.63 1479.01 Q2282.46 1475.44 2282.46 1468.33 Q2282.46 1461.2 2280.63 1457.66 Q2278.83 1454.1 2275.19 1454.1 M2275.19 1450.39 Q2281 1450.39 2284.06 1455 Q2287.14 1459.58 2287.14 1468.33 Q2287.14 1477.06 2284.06 1481.67 Q2281 1486.25 2275.19 1486.25 Q2269.38 1486.25 2266.3 1481.67 Q2263.25 1477.06 2263.25 1468.33 Q2263.25 1459.58 2266.3 1455 Q2269.38 1450.39 2275.19 1450.39 Z" fill="#000000" fill-rule="nonzero" fill-opacity="1" /><path clip-path="url(#clip770)" d="M2305.35 1454.1 Q2301.74 1454.1 2299.91 1457.66 Q2298.11 1461.2 2298.11 1468.33 Q2298.11 1475.44 2299.91 1479.01 Q2301.74 1482.55 2305.35 1482.55 Q2308.99 1482.55 2310.79 1479.01 Q2312.62 1475.44 2312.62 1468.33 Q2312.62 1461.2 2310.79 1457.66 Q2308.99 1454.1 2305.35 1454.1 M2305.35 1450.39 Q2311.16 1450.39 2314.22 1455 Q2317.3 1459.58 2317.3 1468.33 Q2317.3 1477.06 2314.22 1481.67 Q2311.16 1486.25 2305.35 1486.25 Q2299.54 1486.25 2296.46 1481.67 Q2293.41 1477.06 2293.41 1468.33 Q2293.41 1459.58 2296.46 1455 Q2299.54 1450.39 2305.35 1450.39 Z" fill="#000000" fill-rule="nonzero" fill-opacity="1" /><path clip-path="url(#clip770)" d="M2335.52 1454.1 Q2331.9 1454.1 2330.08 1457.66 Q2328.27 1461.2 2328.27 1468.33 Q2328.27 1475.44 2330.08 1479.01 Q2331.9 1482.55 2335.52 1482.55 Q2339.15 1482.55 2340.96 1479.01 Q2342.78 1475.44 2342.78 1468.33 Q2342.78 1461.2 2340.96 1457.66 Q2339.15 1454.1 2335.52 1454.1 M2335.52 1450.39 Q2341.33 1450.39 2344.38 1455 Q2347.46 1459.58 2347.46 1468.33 Q2347.46 1477.06 2344.38 1481.67 Q2341.33 1486.25 2335.52 1486.25 Q2329.71 1486.25 2326.63 1481.67 Q2323.57 1477.06 2323.57 1468.33 Q2323.57 1459.58 2326.63 1455 Q2329.71 1450.39 2335.52 1450.39 Z" fill="#000000" fill-rule="nonzero" fill-opacity="1" /><path clip-path="url(#clip770)" d="M1286.48 1518.52 L1292.37 1518.52 L1292.37 1547.77 L1309.84 1532.4 L1317.32 1532.4 L1298.42 1549.07 L1318.12 1568.04 L1310.48 1568.04 L1292.37 1550.63 L1292.37 1568.04 L1286.48 1568.04 L1286.48 1518.52 Z" fill="#000000" fill-rule="nonzero" fill-opacity="1" /><polyline clip-path="url(#clip772)" style="stroke:#000000; stroke-linecap:round; stroke-linejoin:round; stroke-width:2; stroke-opacity:0.1; fill:none" points="251.842,1092.21 2352.76,1092.21 "/>
<polyline clip-path="url(#clip772)" style="stroke:#000000; stroke-linecap:round; stroke-linejoin:round; stroke-width:2; stroke-opacity:0.1; fill:none" points="251.842,421.132 2352.76,421.132 "/>
<polyline clip-path="url(#clip770)" style="stroke:#000000; stroke-linecap:round; stroke-linejoin:round; stroke-width:4; stroke-opacity:1; fill:none" points="251.842,1423.18 251.842,123.472 "/>
<polyline clip-path="url(#clip770)" style="stroke:#000000; stroke-linecap:round; stroke-linejoin:round; stroke-width:4; stroke-opacity:1; fill:none" points="251.842,1092.21 270.74,1092.21 "/>
<polyline clip-path="url(#clip770)" style="stroke:#000000; stroke-linecap:round; stroke-linejoin:round; stroke-width:4; stroke-opacity:1; fill:none" points="251.842,421.132 270.74,421.132 "/>
<path clip-path="url(#clip770)" d="M114.931 1112 L122.57 1112 L122.57 1085.64 L114.26 1087.3 L114.26 1083.05 L122.524 1081.38 L127.2 1081.38 L127.2 1112 L134.839 1112 L134.839 1115.94 L114.931 1115.94 L114.931 1112 Z" fill="#000000" fill-rule="nonzero" fill-opacity="1" /><path clip-path="url(#clip770)" d="M154.283 1084.46 Q150.672 1084.46 148.843 1088.02 Q147.038 1091.56 147.038 1098.69 Q147.038 1105.8 148.843 1109.36 Q150.672 1112.91 154.283 1112.91 Q157.917 1112.91 159.723 1109.36 Q161.552 1105.8 161.552 1098.69 Q161.552 1091.56 159.723 1088.02 Q157.917 1084.46 154.283 1084.46 M154.283 1080.75 Q160.093 1080.75 163.149 1085.36 Q166.227 1089.94 166.227 1098.69 Q166.227 1107.42 163.149 1112.03 Q160.093 1116.61 154.283 1116.61 Q148.473 1116.61 145.394 1112.03 Q142.339 1107.42 142.339 1098.69 Q142.339 1089.94 145.394 1085.36 Q148.473 1080.75 154.283 1080.75 Z" fill="#000000" fill-rule="nonzero" fill-opacity="1" /><path clip-path="url(#clip770)" d="M166.227 1074.85 L190.339 1074.85 L190.339 1078.05 L166.227 1078.05 L166.227 1074.85 Z" fill="#000000" fill-rule="nonzero" fill-opacity="1" /><path clip-path="url(#clip770)" d="M210.05 1073.39 Q212.777 1073.97 214.3 1075.81 Q215.842 1077.66 215.842 1080.37 Q215.842 1084.52 212.984 1086.8 Q210.125 1089.07 204.859 1089.07 Q203.091 1089.07 201.21 1088.72 Q199.348 1088.38 197.354 1087.68 L197.354 1084.01 Q198.934 1084.94 200.815 1085.41 Q202.696 1085.88 204.746 1085.88 Q208.319 1085.88 210.181 1084.47 Q212.062 1083.05 212.062 1080.37 Q212.062 1077.88 210.313 1076.49 Q208.583 1075.08 205.479 1075.08 L202.207 1075.08 L202.207 1071.96 L205.63 1071.96 Q208.432 1071.96 209.918 1070.85 Q211.404 1069.72 211.404 1067.61 Q211.404 1065.45 209.861 1064.3 Q208.338 1063.14 205.479 1063.14 Q203.918 1063.14 202.132 1063.48 Q200.345 1063.81 198.201 1064.53 L198.201 1061.14 Q200.364 1060.54 202.244 1060.24 Q204.144 1059.94 205.818 1059.94 Q210.144 1059.94 212.664 1061.92 Q215.184 1063.87 215.184 1067.22 Q215.184 1069.55 213.849 1071.17 Q212.513 1072.77 210.05 1073.39 Z" fill="#000000" fill-rule="nonzero" fill-opacity="1" /><path clip-path="url(#clip770)" d="M145.137 440.924 L152.776 440.924 L152.776 414.558 L144.465 416.225 L144.465 411.966 L152.729 410.299 L157.405 410.299 L157.405 440.924 L165.044 440.924 L165.044 444.859 L145.137 444.859 L145.137 440.924 Z" fill="#000000" fill-rule="nonzero" fill-opacity="1" /><path clip-path="url(#clip770)" d="M184.488 413.378 Q180.877 413.378 179.049 416.943 Q177.243 420.484 177.243 427.614 Q177.243 434.72 179.049 438.285 Q180.877 441.827 184.488 441.827 Q188.123 441.827 189.928 438.285 Q191.757 434.72 191.757 427.614 Q191.757 420.484 189.928 416.943 Q188.123 413.378 184.488 413.378 M184.488 409.674 Q190.299 409.674 193.354 414.281 Q196.433 418.864 196.433 427.614 Q196.433 436.341 193.354 440.947 Q190.299 445.53 184.488 445.53 Q178.678 445.53 175.6 440.947 Q172.544 436.341 172.544 427.614 Q172.544 418.864 175.6 414.281 Q178.678 409.674 184.488 409.674 Z" fill="#000000" fill-rule="nonzero" fill-opacity="1" /><path clip-path="url(#clip770)" d="M206.138 391.87 Q203.204 391.87 201.718 394.767 Q200.251 397.644 200.251 403.437 Q200.251 409.211 201.718 412.107 Q203.204 414.985 206.138 414.985 Q209.09 414.985 210.557 412.107 Q212.043 409.211 212.043 403.437 Q212.043 397.644 210.557 394.767 Q209.09 391.87 206.138 391.87 M206.138 388.861 Q210.858 388.861 213.341 392.604 Q215.842 396.328 215.842 403.437 Q215.842 410.527 213.341 414.27 Q210.858 417.994 206.138 417.994 Q201.417 417.994 198.915 414.27 Q196.433 410.527 196.433 403.437 Q196.433 396.328 198.915 392.604 Q201.417 388.861 206.138 388.861 Z" fill="#000000" fill-rule="nonzero" fill-opacity="1" /><path clip-path="url(#clip770)" d="M32.4621 801.797 Q32.4621 806.507 36.1542 809.244 Q39.8145 811.982 46.212 811.982 Q52.6095 811.982 56.3017 809.276 Q59.9619 806.539 59.9619 801.797 Q59.9619 797.118 56.2698 794.381 Q52.5777 791.643 46.212 791.643 Q39.8781 791.643 36.186 794.381 Q32.4621 797.118 32.4621 801.797 M27.4968 801.797 Q27.4968 794.158 32.4621 789.797 Q37.4273 785.437 46.212 785.437 Q54.9649 785.437 59.9619 789.797 Q64.9272 794.158 64.9272 801.797 Q64.9272 809.467 59.9619 813.828 Q54.9649 818.156 46.212 818.156 Q37.4273 818.156 32.4621 813.828 Q27.4968 809.467 27.4968 801.797 Z" fill="#000000" fill-rule="nonzero" fill-opacity="1" /><path clip-path="url(#clip770)" d="M46.212 750.139 Q39.7508 750.139 36.0905 752.812 Q32.3984 755.454 32.3984 760.101 Q32.3984 764.748 36.0905 767.422 Q39.7508 770.064 46.212 770.064 Q52.6732 770.064 56.3653 767.422 Q60.0256 764.748 60.0256 760.101 Q60.0256 755.454 56.3653 752.812 Q52.6732 750.139 46.212 750.139 M33.7671 770.064 Q30.5842 768.218 29.0564 765.417 Q27.4968 762.584 27.4968 758.669 Q27.4968 752.176 32.6531 748.134 Q37.8093 744.06 46.212 744.06 Q54.6147 744.06 59.771 748.134 Q64.9272 752.176 64.9272 758.669 Q64.9272 762.584 63.3994 765.417 Q61.8398 768.218 58.657 770.064 L64.0042 770.064 L64.0042 775.952 L14.479 775.952 L14.479 770.064 L33.7671 770.064 Z" fill="#000000" fill-rule="nonzero" fill-opacity="1" /><path clip-path="url(#clip770)" d="M28.3562 734.352 L28.3562 728.495 L64.6407 728.495 Q71.452 728.495 74.5076 731.105 Q77.5631 733.684 77.5631 739.445 L77.5631 741.673 L72.5979 741.673 L72.5979 740.113 Q72.5979 736.771 71.0383 735.561 Q69.5105 734.352 64.6407 734.352 L28.3562 734.352 M14.479 734.352 L14.479 728.495 L21.895 728.495 L21.895 734.352 L14.479 734.352 Z" fill="#000000" fill-rule="nonzero" fill-opacity="1" /><path clip-path="url(#clip770)" d="M956.899 65.7705 L956.899 89.8329 L949.405 89.8329 L949.405 27.2059 L956.899 27.2059 L956.899 34.0924 Q959.248 30.0415 962.813 28.0971 Q966.418 26.1121 971.401 26.1121 Q979.665 26.1121 984.81 32.6746 Q989.995 39.2371 989.995 49.9314 Q989.995 60.6258 984.81 67.1883 Q979.665 73.7508 971.401 73.7508 Q966.418 73.7508 962.813 71.8063 Q959.248 69.8214 956.899 65.7705 M982.257 49.9314 Q982.257 41.7081 978.855 37.0496 Q975.492 32.3505 969.578 32.3505 Q963.664 32.3505 960.261 37.0496 Q956.899 41.7081 956.899 49.9314 Q956.899 58.1548 960.261 62.8538 Q963.664 67.5124 969.578 67.5124 Q975.492 67.5124 978.855 62.8538 Q982.257 58.1548 982.257 49.9314 Z" fill="#000000" fill-rule="nonzero" fill-opacity="1" /><path clip-path="url(#clip770)" d="M1028.64 34.1734 Q1027.38 33.4443 1025.89 33.1202 Q1024.43 32.7556 1022.64 32.7556 Q1016.33 32.7556 1012.92 36.8875 Q1009.56 40.9789 1009.56 48.6757 L1009.56 72.576 L1002.07 72.576 L1002.07 27.2059 L1009.56 27.2059 L1009.56 34.2544 Q1011.91 30.1225 1015.68 28.1376 Q1019.44 26.1121 1024.83 26.1121 Q1025.6 26.1121 1026.53 26.2337 Q1027.47 26.3147 1028.6 26.5172 L1028.64 34.1734 Z" fill="#000000" fill-rule="nonzero" fill-opacity="1" /><path clip-path="url(#clip770)" d="M1052.22 32.4315 Q1046.22 32.4315 1042.74 37.1306 Q1039.25 41.7891 1039.25 49.9314 Q1039.25 58.0738 1042.7 62.7728 Q1046.18 67.4314 1052.22 67.4314 Q1058.17 67.4314 1061.66 62.7323 Q1065.14 58.0333 1065.14 49.9314 Q1065.14 41.8701 1061.66 37.1711 Q1058.17 32.4315 1052.22 32.4315 M1052.22 26.1121 Q1061.94 26.1121 1067.49 32.4315 Q1073.04 38.7509 1073.04 49.9314 Q1073.04 61.0714 1067.49 67.4314 Q1061.94 73.7508 1052.22 73.7508 Q1042.45 73.7508 1036.9 67.4314 Q1031.39 61.0714 1031.39 49.9314 Q1031.39 38.7509 1036.9 32.4315 Q1042.45 26.1121 1052.22 26.1121 Z" fill="#000000" fill-rule="nonzero" fill-opacity="1" /><path clip-path="url(#clip770)" d="M1117.96 49.9314 Q1117.96 41.7081 1114.56 37.0496 Q1111.2 32.3505 1105.28 32.3505 Q1099.37 32.3505 1095.97 37.0496 Q1092.6 41.7081 1092.6 49.9314 Q1092.6 58.1548 1095.97 62.8538 Q1099.37 67.5124 1105.28 67.5124 Q1111.2 67.5124 1114.56 62.8538 Q1117.96 58.1548 1117.96 49.9314 M1092.6 34.0924 Q1094.95 30.0415 1098.52 28.0971 Q1102.12 26.1121 1107.11 26.1121 Q1115.37 26.1121 1120.51 32.6746 Q1125.7 39.2371 1125.7 49.9314 Q1125.7 60.6258 1120.51 67.1883 Q1115.37 73.7508 1107.11 73.7508 Q1102.12 73.7508 1098.52 71.8063 Q1094.95 69.8214 1092.6 65.7705 L1092.6 72.576 L1085.11 72.576 L1085.11 9.54393 L1092.6 9.54393 L1092.6 34.0924 Z" fill="#000000" fill-rule="nonzero" fill-opacity="1" /><path clip-path="url(#clip770)" d="M1138.06 9.54393 L1145.51 9.54393 L1145.51 72.576 L1138.06 72.576 L1138.06 9.54393 Z" fill="#000000" fill-rule="nonzero" fill-opacity="1" /><path clip-path="url(#clip770)" d="M1199.91 48.0275 L1199.91 51.6733 L1165.64 51.6733 Q1166.13 59.3701 1170.26 63.421 Q1174.43 67.4314 1181.85 67.4314 Q1186.14 67.4314 1190.15 66.3781 Q1194.2 65.3249 1198.17 63.2184 L1198.17 70.267 Q1194.16 71.9684 1189.95 72.8596 Q1185.73 73.7508 1181.4 73.7508 Q1170.54 73.7508 1164.18 67.4314 Q1157.86 61.1119 1157.86 50.3365 Q1157.86 39.1965 1163.86 32.6746 Q1169.9 26.1121 1180.1 26.1121 Q1189.26 26.1121 1194.57 32.0264 Q1199.91 37.9003 1199.91 48.0275 M1192.46 45.84 Q1192.38 39.7232 1189.02 36.0774 Q1185.69 32.4315 1180.18 32.4315 Q1173.95 32.4315 1170.18 35.9558 Q1166.45 39.4801 1165.88 45.8805 L1192.46 45.84 M1173.78 6.22219 L1185.21 21.3726 L1179.01 21.3726 L1165.8 6.22219 L1173.78 6.22219 Z" fill="#000000" fill-rule="nonzero" fill-opacity="1" /><path clip-path="url(#clip770)" d="M1247.47 35.9153 Q1250.27 30.8922 1254.15 28.5022 Q1258.04 26.1121 1263.31 26.1121 Q1270.4 26.1121 1274.25 31.0947 Q1278.09 36.0368 1278.09 45.1919 L1278.09 72.576 L1270.6 72.576 L1270.6 45.4349 Q1270.6 38.913 1268.29 35.7533 Q1265.98 32.5936 1261.24 32.5936 Q1255.45 32.5936 1252.09 36.4419 Q1248.73 40.2903 1248.73 46.9338 L1248.73 72.576 L1241.23 72.576 L1241.23 45.4349 Q1241.23 38.8725 1238.92 35.7533 Q1236.61 32.5936 1231.79 32.5936 Q1226.08 32.5936 1222.72 36.4824 Q1219.36 40.3308 1219.36 46.9338 L1219.36 72.576 L1211.86 72.576 L1211.86 27.2059 L1219.36 27.2059 L1219.36 34.2544 Q1221.91 30.082 1225.47 28.0971 Q1229.04 26.1121 1233.94 26.1121 Q1238.88 26.1121 1242.33 28.6237 Q1245.81 31.1352 1247.47 35.9153 Z" fill="#000000" fill-rule="nonzero" fill-opacity="1" /><path clip-path="url(#clip770)" d="M1331.77 48.0275 L1331.77 51.6733 L1297.5 51.6733 Q1297.98 59.3701 1302.12 63.421 Q1306.29 67.4314 1313.7 67.4314 Q1318 67.4314 1322.01 66.3781 Q1326.06 65.3249 1330.03 63.2184 L1330.03 70.267 Q1326.02 71.9684 1321.8 72.8596 Q1317.59 73.7508 1313.26 73.7508 Q1302.4 73.7508 1296.04 67.4314 Q1289.72 61.1119 1289.72 50.3365 Q1289.72 39.1965 1295.72 32.6746 Q1301.75 26.1121 1311.96 26.1121 Q1321.12 26.1121 1326.42 32.0264 Q1331.77 37.9003 1331.77 48.0275 M1324.32 45.84 Q1324.23 39.7232 1320.87 36.0774 Q1317.55 32.4315 1312.04 32.4315 Q1305.8 32.4315 1302.04 35.9558 Q1298.31 39.4801 1297.74 45.8805 L1324.32 45.84 Z" fill="#000000" fill-rule="nonzero" fill-opacity="1" /><path clip-path="url(#clip770)" d="M1372.28 62.2867 L1380.83 62.2867 L1380.83 72.576 L1372.28 72.576 L1372.28 62.2867 M1372.28 29.6769 L1380.83 29.6769 L1380.83 39.9662 L1372.28 39.9662 L1372.28 29.6769 Z" fill="#000000" fill-rule="nonzero" fill-opacity="1" /><path clip-path="url(#clip770)" d="M1432.07 14.324 L1432.07 27.2059 L1447.42 27.2059 L1447.42 32.9987 L1432.07 32.9987 L1432.07 57.6282 Q1432.07 63.1779 1433.57 64.7578 Q1435.11 66.3376 1439.77 66.3376 L1447.42 66.3376 L1447.42 72.576 L1439.77 72.576 Q1431.14 72.576 1427.86 69.3758 Q1424.58 66.1351 1424.58 57.6282 L1424.58 32.9987 L1419.11 32.9987 L1419.11 27.2059 L1424.58 27.2059 L1424.58 14.324 L1432.07 14.324 Z" fill="#000000" fill-rule="nonzero" fill-opacity="1" /><path clip-path="url(#clip770)" d="M1464.44 65.7705 L1464.44 89.8329 L1456.94 89.8329 L1456.94 27.2059 L1464.44 27.2059 L1464.44 34.0924 Q1466.79 30.0415 1470.35 28.0971 Q1473.96 26.1121 1478.94 26.1121 Q1487.2 26.1121 1492.35 32.6746 Q1497.53 39.2371 1497.53 49.9314 Q1497.53 60.6258 1492.35 67.1883 Q1487.2 73.7508 1478.94 73.7508 Q1473.96 73.7508 1470.35 71.8063 Q1466.79 69.8214 1464.44 65.7705 M1489.8 49.9314 Q1489.8 41.7081 1486.39 37.0496 Q1483.03 32.3505 1477.12 32.3505 Q1471.2 32.3505 1467.8 37.0496 Q1464.44 41.7081 1464.44 49.9314 Q1464.44 58.1548 1467.8 62.8538 Q1471.2 67.5124 1477.12 67.5124 Q1483.03 67.5124 1486.39 62.8538 Q1489.8 58.1548 1489.8 49.9314 Z" fill="#000000" fill-rule="nonzero" fill-opacity="1" /><path clip-path="url(#clip770)" d="M1517.99 65.6895 L1546.55 65.6895 L1546.55 72.576 L1508.15 72.576 L1508.15 65.6895 Q1512.8 60.8689 1520.83 52.7671 Q1528.89 44.6248 1530.95 42.2752 Q1534.88 37.8598 1536.42 34.8216 Q1538 31.7429 1538 28.7857 Q1538 23.9651 1534.6 20.927 Q1531.24 17.8888 1525.81 17.8888 Q1521.96 17.8888 1517.67 19.2256 Q1513.41 20.5624 1508.55 23.2765 L1508.55 15.0127 Q1513.49 13.0277 1517.79 12.015 Q1522.08 11.0023 1525.65 11.0023 Q1535.04 11.0023 1540.63 15.7013 Q1546.22 20.4004 1546.22 28.2591 Q1546.22 31.9859 1544.81 35.3482 Q1543.43 38.6699 1539.74 43.2069 Q1538.73 44.3817 1533.3 50.0125 Q1527.87 55.6027 1517.99 65.6895 Z" fill="#000000" fill-rule="nonzero" fill-opacity="1" /><path clip-path="url(#clip770)" d="M1563.81 12.096 L1595.93 12.096 L1595.93 18.9825 L1571.3 18.9825 L1571.3 33.8088 Q1573.08 33.2012 1574.86 32.9176 Q1576.65 32.5936 1578.43 32.5936 Q1588.56 32.5936 1594.47 38.1433 Q1600.38 43.6931 1600.38 53.1722 Q1600.38 62.9348 1594.31 68.3631 Q1588.23 73.7508 1577.17 73.7508 Q1573.37 73.7508 1569.4 73.1026 Q1565.47 72.4545 1561.25 71.1582 L1561.25 62.9348 Q1564.9 64.9198 1568.79 65.892 Q1572.68 66.8642 1577.01 66.8642 Q1584.02 66.8642 1588.11 63.1779 Q1592.2 59.4916 1592.2 53.1722 Q1592.2 46.8528 1588.11 43.1664 Q1584.02 39.4801 1577.01 39.4801 Q1573.73 39.4801 1570.45 40.2093 Q1567.21 40.9384 1563.81 42.4778 L1563.81 12.096 Z" fill="#000000" fill-rule="nonzero" fill-opacity="1" /><path clip-path="url(#clip770)" d="M1635.02 39.075 Q1629.51 39.075 1626.27 42.8424 Q1623.07 46.6097 1623.07 53.1722 Q1623.07 59.6941 1626.27 63.502 Q1629.51 67.2693 1635.02 67.2693 Q1640.53 67.2693 1643.73 63.502 Q1646.97 59.6941 1646.97 53.1722 Q1646.97 46.6097 1643.73 42.8424 Q1640.53 39.075 1635.02 39.075 M1651.26 13.4328 L1651.26 20.8865 Q1648.19 19.4281 1645.03 18.6585 Q1641.91 17.8888 1638.83 17.8888 Q1630.73 17.8888 1626.43 23.3575 Q1622.18 28.8262 1621.57 39.8852 Q1623.96 36.3609 1627.57 34.4975 Q1631.17 32.5936 1635.51 32.5936 Q1644.62 32.5936 1649.89 38.1433 Q1655.19 43.6525 1655.19 53.1722 Q1655.19 62.4892 1649.68 68.12 Q1644.18 73.7508 1635.02 73.7508 Q1624.53 73.7508 1618.98 65.73 Q1613.43 57.6687 1613.43 42.3968 Q1613.43 28.0566 1620.23 19.5497 Q1627.04 11.0023 1638.5 11.0023 Q1641.58 11.0023 1644.7 11.6099 Q1647.86 12.2175 1651.26 13.4328 Z" fill="#000000" fill-rule="nonzero" fill-opacity="1" /><polyline clip-path="url(#clip772)" style="stroke:#009af9; stroke-linecap:round; stroke-linejoin:round; stroke-width:4; stroke-opacity:1; fill:none" points="311.302,160.256 313.284,308.982 315.266,443.659 317.248,578.336 319.23,713.012 321.212,713.012 323.194,713.012 325.176,713.012 327.158,713.012 329.14,713.012 331.122,713.012 333.104,818.472 335.086,818.472 337.068,842.226 339.05,842.226 341.032,845.806 343.014,851.825 344.996,861.069 346.978,861.069 348.96,862.704 350.942,865.751 352.924,871.182 354.906,871.182 356.888,872.212 358.87,874.201 360.852,877.947 362.834,884.756 364.816,884.756 366.798,886.064 368.78,888.604 370.762,893.419 372.744,893.419 374.726,894.361 376.708,896.207 378.69,899.771 380.672,899.771 382.654,900.473 384.636,901.858 386.618,904.556 388.6,909.695 390.582,909.695 392.564,910.701 394.546,912.678 396.528,916.494 398.51,916.494 400.492,917.245 402.474,918.728 404.456,921.616 406.438,921.616 408.42,922.187 410.402,923.318 412.384,925.533 414.366,929.795 416.348,929.795 418.33,930.633 420.312,932.285 422.294,935.493 424.276,935.493 426.258,936.127 428.24,937.379 430.222,939.83 432.204,939.83 434.186,940.315 436.168,941.278 438.15,943.17 440.132,946.83 442.114,946.83 444.096,947.552 446.078,948.977 448.06,951.755 450.042,951.755 452.024,952.305 454.006,953.393 455.988,955.529 457.97,955.529 459.952,955.952 461.934,956.793 463.916,958.449 465.898,961.666 467.88,961.666 469.862,962.301 471.844,963.557 473.826,966.014 475.808,966.014 477.79,966.501 479.772,967.466 481.754,969.363 483.736,969.363 485.718,969.739 487.7,970.487 489.682,971.963 491.664,974.84 493.646,974.84 495.628,975.408 497.61,976.534 499.592,978.742 501.574,978.742 503.556,979.179 505.538,980.047 507.52,981.758 509.502,981.758 511.484,982.097 513.466,982.773 515.448,984.107 517.43,986.713 519.412,986.713 521.394,987.229 523.376,988.251 525.358,990.259 527.34,990.259 529.322,990.657 531.304,991.449 533.286,993.008 535.267,993.008 537.249,993.318 539.231,993.935 541.213,995.155 543.195,997.542 545.177,997.542 547.159,998.015 549.141,998.953 551.123,1000.8 553.105,1000.8 555.087,1001.16 557.069,1001.89 559.051,1003.33 561.033,1003.33 563.015,1003.61 564.997,1004.18 566.979,1005.31 568.961,1005.31 570.943,1005.53 572.925,1005.98 574.907,1006.86 576.889,1008.61 578.871,1008.61 580.853,1008.95 582.835,1009.64 584.817,1011 586.799,1011 588.781,1011.27 590.763,1011.81 592.745,1012.87 594.727,1012.87 596.709,1013.09 598.691,1013.51 600.673,1014.35 602.655,1016 604.637,1016 606.619,1016.33 608.601,1016.99 610.583,1018.28 612.565,1018.28 614.547,1018.53 616.529,1019.05 618.511,1020.06 620.493,1020.06 622.475,1020.26 624.457,1020.66 626.439,1021.46 628.421,1023.04 630.403,1023.04 632.385,1023.35 634.367,1023.98 636.349,1025.21 638.331,1025.21 640.313,1025.45 642.295,1025.94 644.277,1026.91 646.259,1026.91 648.241,1027.1 650.223,1027.49 652.205,1028.25 654.187,1029.75 656.169,1029.75 658.151,1030.05 660.133,1030.65 662.115,1031.83 664.097,1031.83 666.079,1032.06 668.061,1032.53 670.043,1033.46 672.025,1033.46 674.007,1033.64 675.989,1034.01 677.971,1034.74 679.953,1036.18 681.935,1036.18 683.917,1036.47 685.899,1037.04 687.881,1038.17 689.863,1038.17 691.845,1038.4 693.827,1038.84 695.809,1039.73 697.791,1039.73 699.773,1039.91 701.755,1040.26 703.737,1040.97 705.719,1042.35 707.701,1042.35 709.683,1042.63 711.665,1043.18 713.647,1044.27 715.629,1044.27 717.611,1044.48 719.593,1044.91 721.575,1045.77 723.557,1045.77 725.539,1045.94 727.521,1046.28 729.503,1046.96 731.485,1048.29 733.467,1048.29 735.449,1048.56 737.431,1049.09 739.413,1050.14 741.395,1050.14 743.377,1050.34 745.359,1050.76 747.341,1051.59 749.323,1051.59 751.305,1051.75 753.287,1052.08 755.269,1052.73 757.251,1054.02 759.233,1054.02 761.215,1054.28 763.197,1054.79 765.179,1055.8 767.161,1055.8 769.143,1056 771.125,1056.4 773.107,1057.2 775.089,1057.2 777.071,1057.36 779.053,1057.68 781.035,1058.31 783.017,1059.56 784.999,1059.56 786.981,1059.81 788.963,1060.3 790.945,1061.28 792.927,1061.28 794.909,1061.48 796.891,1061.86 798.873,1062.64 800.855,1062.64 802.837,1062.79 804.819,1063.1 806.801,1063.71 808.783,1063.71 810.765,1063.83 812.747,1064.07 814.729,1064.56 816.711,1065.52 818.693,1065.52 820.675,1065.71 822.657,1066.09 824.639,1066.85 826.621,1066.85 828.603,1067 830.585,1067.3 832.567,1067.9 834.549,1067.9 836.531,1068.02 838.513,1068.26 840.495,1068.74 842.477,1069.68 844.459,1069.68 846.441,1069.87 848.423,1070.24 850.405,1070.98 852.387,1070.98 854.369,1071.13 856.351,1071.43 858.333,1072.02 860.314,1072.02 862.296,1072.13 864.278,1072.37 866.26,1072.84 868.242,1073.76 870.224,1073.76 872.206,1073.95 874.188,1074.31 876.17,1075.04 878.152,1075.04 880.134,1075.19 882.116,1075.48 884.098,1076.06 886.08,1076.06 888.062,1076.17 890.044,1076.4 892.026,1076.86 894.008,1077.77 895.99,1077.77 897.972,1077.95 899.954,1078.31 901.936,1079.03 903.918,1079.03 905.9,1079.17 907.882,1079.46 909.864,1080.03 911.846,1080.03 913.828,1080.14 915.81,1080.37 917.792,1080.82 919.774,1081.71 921.756,1081.71 923.738,1081.89 925.72,1082.25 927.702,1082.95 929.684,1082.95 931.666,1083.09 933.648,1083.37 935.63,1083.93 937.612,1083.93 939.594,1084.04 941.576,1084.27 943.558,1084.71 945.54,1085.59 947.522,1085.59 949.504,1085.77 951.486,1086.12 953.468,1086.81 955.45,1086.81 957.432,1086.95 959.414,1087.23 961.396,1087.78 963.378,1087.78 965.36,1087.89 967.342,1088.1 969.324,1088.54 971.306,1089.41 973.288,1089.41 975.27,1089.58 977.252,1089.92 979.234,1090.61 981.216,1090.61 983.198,1090.74 985.18,1091.02 987.162,1091.56 989.144,1091.56 991.126,1091.67 993.108,1091.88 995.09,1092.31 997.072,1093.17 999.054,1093.17 1001.04,1093.34 1003.02,1093.68 1005,1094.35 1006.98,1094.35 1008.96,1094.48 1010.95,1094.75 1012.93,1095.29 1014.91,1095.29 1016.89,1095.39 1018.87,1095.61 1020.86,1096.03 1022.84,1096.87 1024.82,1096.87 1026.8,1097.04 1028.78,1097.37 1030.77,1098.04 1032.75,1098.04 1034.73,1098.17 1036.71,1098.44 1038.69,1098.96 1040.68,1098.96 1042.66,1099.07 1044.64,1099.28 1046.62,1099.69 1048.6,1099.69 1050.59,1099.78 1052.57,1099.94 1054.55,1100.28 1056.53,1100.94 1058.51,1100.94 1060.5,1101.07 1062.48,1101.33 1064.46,1101.86 1066.44,1101.86 1068.42,1101.96 1070.41,1102.17 1072.39,1102.58 1074.37,1102.58 1076.35,1102.67 1078.33,1102.83 1080.32,1103.16 1082.3,1103.82 1084.28,1103.82 1086.26,1103.95 1088.24,1104.21 1090.23,1104.73 1092.21,1104.73 1094.19,1104.84 1096.17,1105.04 1098.15,1105.46 1100.14,1105.46 1102.12,1105.54 1104.1,1105.7 1106.08,1106.03 1108.06,1106.69 1110.05,1106.69 1112.03,1106.82 1114.01,1107.08 1115.99,1107.59 1117.97,1107.59 1119.96,1107.7 1121.94,1107.9 1123.92,1108.31 1125.9,1108.31 1127.88,1108.4 1129.87,1108.56 1131.85,1108.89 1133.83,1109.54 1135.81,1109.54 1137.79,1109.66 1139.78,1109.92 1141.76,1110.44 1143.74,1110.44 1145.72,1110.54 1147.7,1110.75 1149.69,1111.15 1151.67,1111.15 1153.65,1111.24 1155.63,1111.4 1157.61,1111.72 1159.6,1112.37 1161.58,1112.37 1163.56,1112.5 1165.54,1112.75 1167.52,1113.27 1169.51,1113.27 1171.49,1113.37 1173.47,1113.57 1175.45,1113.98 1177.43,1113.98 1179.42,1114.06 1181.4,1114.22 1183.38,1114.55 1185.36,1115.19 1187.34,1115.19 1189.33,1115.32 1191.31,1115.57 1193.29,1116.08 1195.27,1116.08 1197.25,1116.18 1199.24,1116.39 1201.22,1116.79 1203.2,1116.79 1205.18,1116.87 1207.16,1117.03 1209.15,1117.35 1211.13,1117.99 1213.11,1117.99 1215.09,1118.12 1217.07,1118.37 1219.06,1118.88 1221.04,1118.88 1223.02,1118.98 1225,1119.18 1226.98,1119.59 1228.97,1119.59 1230.95,1119.67 1232.93,1119.83 1234.91,1120.15 1236.89,1120.78 1238.88,1120.78 1240.86,1120.91 1242.84,1121.16 1244.82,1121.67 1246.8,1121.67 1248.79,1121.77 1250.77,1121.97 1252.75,1122.37 1254.73,1122.37 1256.71,1122.45 1258.7,1122.61 1260.68,1122.93 1262.66,1123.56 1264.64,1123.56 1266.62,1123.68 1268.61,1123.94 1270.59,1124.44 1272.57,1124.44 1274.55,1124.54 1276.53,1124.74 1278.52,1125.14 1280.5,1125.14 1282.48,1125.22 1284.46,1125.37 1286.44,1125.69 1288.43,1125.69 1290.41,1125.76 1292.39,1125.88 1294.37,1126.13 1296.35,1126.64 1298.34,1126.64 1300.32,1126.74 1302.3,1126.94 1304.28,1127.33 1306.26,1127.33 1308.25,1127.41 1310.23,1127.57 1312.21,1127.89 1314.19,1127.89 1316.17,1127.95 1318.16,1128.08 1320.14,1128.33 1322.12,1128.84 1324.1,1128.84 1326.08,1128.94 1328.07,1129.14 1330.05,1129.54 1332.03,1129.54 1334.01,1129.62 1335.99,1129.77 1337.98,1130.09 1339.96,1130.09 1341.94,1130.16 1343.92,1130.28 1345.9,1130.54 1347.88,1131.04 1349.87,1131.04 1351.85,1131.14 1353.83,1131.34 1355.81,1131.74 1357.79,1131.74 1359.78,1131.82 1361.76,1131.98 1363.74,1132.3 1365.72,1132.3 1367.7,1132.36 1369.69,1132.49 1371.67,1132.74 1373.65,1133.24 1375.63,1133.24 1377.61,1133.34 1379.6,1133.54 1381.58,1133.94 1383.56,1133.94 1385.54,1134.02 1387.52,1134.18 1389.51,1134.5 1391.49,1134.5 1393.47,1134.57 1395.45,1134.69 1397.43,1134.95 1399.42,1135.45 1401.4,1135.45 1403.38,1135.55 1405.36,1135.75 1407.34,1136.15 1409.33,1136.15 1411.31,1136.23 1413.29,1136.39 1415.27,1136.71 1417.25,1136.71 1419.24,1136.77 1421.22,1136.9 1423.2,1137.15 1425.18,1137.66 1427.16,1137.66 1429.15,1137.76 1431.13,1137.96 1433.11,1138.36 1435.09,1138.36 1437.07,1138.44 1439.06,1138.6 1441.04,1138.92 1443.02,1138.92 1445,1138.98 1446.98,1139.11 1448.97,1139.37 1450.95,1139.87 1452.93,1139.87 1454.91,1139.97 1456.89,1140.17 1458.88,1140.57 1460.86,1140.57 1462.84,1140.65 1464.82,1140.81 1466.8,1141.13 1468.79,1141.13 1470.77,1141.2 1472.75,1141.32 1474.73,1141.58 1476.71,1142.08 1478.7,1142.08 1480.68,1142.19 1482.66,1142.39 1484.64,1142.79 1486.62,1142.79 1488.61,1142.87 1490.59,1143.03 1492.57,1143.35 1494.55,1143.35 1496.53,1143.41 1498.52,1143.54 1500.5,1143.79 1502.48,1144.3 1504.46,1144.3 1506.44,1144.4 1508.43,1144.6 1510.41,1145 1512.39,1145 1514.37,1145.08 1516.35,1145.25 1518.34,1145.56 1520.32,1145.56 1522.3,1145.63 1524.28,1145.76 1526.26,1146.01 1528.25,1146.52 1530.23,1146.52 1532.21,1146.62 1534.19,1146.82 1536.17,1147.22 1538.16,1147.22 1540.14,1147.3 1542.12,1147.46 1544.1,1147.78 1546.08,1147.78 1548.07,1147.85 1550.05,1147.98 1552.03,1148.23 1554.01,1148.23 1555.99,1148.28 1557.98,1148.38 1559.96,1148.59 1561.94,1148.99 1563.92,1148.99 1565.9,1149.07 1567.89,1149.23 1569.87,1149.55 1571.85,1149.55 1573.83,1149.62 1575.81,1149.75 1577.8,1150 1579.78,1150 1581.76,1150.05 1583.74,1150.16 1585.72,1150.36 1587.71,1150.77 1589.69,1150.77 1591.67,1150.85 1593.65,1151.01 1595.63,1151.33 1597.62,1151.33 1599.6,1151.4 1601.58,1151.53 1603.56,1151.79 1605.54,1151.79 1607.53,1151.84 1609.51,1151.94 1611.49,1152.14 1613.47,1152.55 1615.45,1152.55 1617.44,1152.64 1619.42,1152.8 1621.4,1153.12 1623.38,1153.12 1625.36,1153.19 1627.35,1153.32 1629.33,1153.58 1631.31,1153.58 1633.29,1153.63 1635.27,1153.73 1637.26,1153.94 1639.24,1154.35 1641.22,1154.35 1643.2,1154.43 1645.18,1154.6 1647.17,1154.92 1649.15,1154.92 1651.13,1154.99 1653.11,1155.12 1655.09,1155.38 1657.08,1155.38 1659.06,1155.43 1661.04,1155.53 1663.02,1155.74 1665,1156.16 1666.99,1156.16 1668.97,1156.24 1670.95,1156.4 1672.93,1156.73 1674.91,1156.73 1676.9,1156.8 1678.88,1156.93 1680.86,1157.19 1682.84,1157.19 1684.82,1157.24 1686.81,1157.35 1688.79,1157.55 1690.77,1157.97 1692.75,1157.97 1694.73,1158.05 1696.72,1158.22 1698.7,1158.55 1700.68,1158.55 1702.66,1158.61 1704.64,1158.75 1706.63,1159.01 1708.61,1159.01 1710.59,1159.06 1712.57,1159.17 1714.55,1159.38 1716.54,1159.79 1718.52,1159.79 1720.5,1159.88 1722.48,1160.04 1724.46,1160.38 1726.45,1160.38 1728.43,1160.44 1730.41,1160.57 1732.39,1160.84 1734.37,1160.84 1736.36,1160.89 1738.34,1161 1740.32,1161.21 1742.3,1161.63 1744.28,1161.63 1746.27,1161.71 1748.25,1161.88 1750.23,1162.21 1752.21,1162.21 1754.19,1162.28 1756.18,1162.41 1758.16,1162.68 1760.14,1162.68 1762.12,1162.73 1764.1,1162.84 1766.09,1163.05 1768.07,1163.47 1770.05,1163.47 1772.03,1163.55 1774.01,1163.72 1776,1164.06 1777.98,1164.06 1779.96,1164.12 1781.94,1164.26 1783.92,1164.52 1785.91,1164.52 1787.89,1164.58 1789.87,1164.68 1791.85,1164.9 1793.83,1164.9 1795.82,1164.94 1797.8,1165.02 1799.78,1165.19 1801.76,1165.53 1803.74,1165.53 1805.73,1165.6 1807.71,1165.73 1809.69,1166 1811.67,1166 1813.65,1166.05 1815.64,1166.16 1817.62,1166.38 1819.6,1166.38 1821.58,1166.42 1823.56,1166.51 1825.55,1166.68 1827.53,1167.02 1829.51,1167.02 1831.49,1167.08 1833.47,1167.22 1835.46,1167.49 1837.44,1167.49 1839.42,1167.55 1841.4,1167.65 1843.38,1167.87 1845.37,1167.87 1847.35,1167.91 1849.33,1168 1851.31,1168.17 1853.29,1168.52 1855.28,1168.52 1857.26,1168.58 1859.24,1168.72 1861.22,1169 1863.2,1169 1865.19,1169.05 1867.17,1169.16 1869.15,1169.38 1871.13,1169.38 1873.11,1169.42 1875.1,1169.51 1877.08,1169.68 1879.06,1170.03 1881.04,1170.03 1883.02,1170.1 1885.01,1170.24 1886.99,1170.51 1888.97,1170.51 1890.95,1170.57 1892.93,1170.68 1894.92,1170.9 1896.9,1170.9 1898.88,1170.94 1900.86,1171.03 1902.84,1171.2 1904.83,1171.55 1906.81,1171.55 1908.79,1171.62 1910.77,1171.76 1912.75,1172.04 1914.74,1172.04 1916.72,1172.09 1918.7,1172.21 1920.68,1172.43 1922.66,1172.43 1924.65,1172.47 1926.63,1172.56 1928.61,1172.74 1930.59,1173.09 1932.57,1173.09 1934.56,1173.16 1936.54,1173.3 1938.52,1173.58 1940.5,1173.58 1942.48,1173.64 1944.47,1173.75 1946.45,1173.97 1948.43,1173.97 1950.41,1174.01 1952.39,1174.1 1954.38,1174.28 1956.36,1174.64 1958.34,1174.64 1960.32,1174.71 1962.3,1174.85 1964.29,1175.13 1966.27,1175.13 1968.25,1175.19 1970.23,1175.3 1972.21,1175.53 1974.2,1175.53 1976.18,1175.57 1978.16,1175.66 1980.14,1175.84 1982.12,1176.2 1984.11,1176.2 1986.09,1176.27 1988.07,1176.41 1990.05,1176.7 1992.03,1176.7 1994.02,1176.75 1996,1176.87 1997.98,1177.09 1999.96,1177.09 2001.94,1177.14 2003.92,1177.23 2005.91,1177.41 2007.89,1177.77 2009.87,1177.77 2011.85,1177.84 2013.83,1177.99 2015.82,1178.27 2017.8,1178.27 2019.78,1178.33 2021.76,1178.44 2023.74,1178.67 2025.73,1178.67 2027.71,1178.72 2029.69,1178.81 2031.67,1178.99 2033.65,1179.35 2035.64,1179.35 2037.62,1179.43 2039.6,1179.57 2041.58,1179.86 2043.56,1179.86 2045.55,1179.92 2047.53,1180.03 2049.51,1180.26 2051.49,1180.26 2053.47,1180.31 2055.46,1180.4 2057.44,1180.58 2059.42,1180.58 2061.4,1180.62 2063.38,1180.69 2065.37,1180.84 2067.35,1181.13 2069.33,1181.13 2071.31,1181.19 2073.29,1181.31 2075.28,1181.54 2077.26,1181.54 2079.24,1181.59 2081.22,1181.68 2083.2,1181.86 2085.19,1181.86 2087.17,1181.9 2089.15,1181.98 2091.13,1182.12 2093.11,1182.42 2095.1,1182.42 2097.08,1182.48 2099.06,1182.59 2101.04,1182.83 2103.02,1182.83 2105.01,1182.88 2106.99,1182.97 2108.97,1183.16 2110.95,1183.16 2112.93,1183.19 2114.92,1183.27 2116.9,1183.42 2118.88,1183.72 2120.86,1183.72 2122.84,1183.78 2124.83,1183.9 2126.81,1184.13 2128.79,1184.13 2130.77,1184.18 2132.75,1184.28 2134.74,1184.46 2136.72,1184.46 2138.7,1184.5 2140.68,1184.58 2142.66,1184.73 2144.65,1185.03 2146.63,1185.03 2148.61,1185.09 2150.59,1185.21 2152.57,1185.45 2154.56,1185.45 2156.54,1185.5 2158.52,1185.59 2160.5,1185.78 2162.48,1185.78 2164.47,1185.82 2166.45,1185.9 2168.43,1186.05 2170.41,1186.36 2172.39,1186.36 2174.38,1186.42 2176.36,1186.54 2178.34,1186.78 2180.32,1186.78 2182.3,1186.83 2184.29,1186.93 2186.27,1187.12 2188.25,1187.12 2190.23,1187.16 2192.21,1187.23 2194.2,1187.39 2196.18,1187.7 2198.16,1187.7 2200.14,1187.76 2202.12,1187.88 2204.11,1188.12 2206.09,1188.12 2208.07,1188.17 2210.05,1188.27 2212.03,1188.47 2214.02,1188.47 2216,1188.5 2217.98,1188.58 2219.96,1188.74 2221.94,1189.05 2223.93,1189.05 2225.91,1189.11 2227.89,1189.23 2229.87,1189.48 2231.85,1189.48 2233.84,1189.53 2235.82,1189.63 2237.8,1189.83 2239.78,1189.83 2241.76,1189.86 2243.75,1189.94 2245.73,1190.1 2247.71,1190.41 2249.69,1190.41 2251.67,1190.48 2253.66,1190.6 2255.64,1190.85 2257.62,1190.85 2259.6,1190.9 2261.58,1191 2263.57,1191.2 2265.55,1191.2 2267.53,1191.24 2269.51,1191.32 2271.49,1191.48 2273.48,1191.79 2275.46,1191.79 2277.44,1191.86 2279.42,1191.98 2281.4,1192.23 2283.39,1192.23 2285.37,1192.28 2287.35,1192.38 2289.33,1192.59 2291.31,1192.59 2293.3,1192.63 "/>
<polyline clip-path="url(#clip772)" style="stroke:#e26f46; stroke-linecap:round; stroke-linejoin:round; stroke-width:4; stroke-opacity:1; fill:none" points="311.302,160.256 313.284,308.982 315.266,443.659 317.248,578.336 319.23,713.012 321.212,847.689 323.194,982.366 325.176,1117.04 327.158,1251.72 329.14,1386.4 "/>
<polyline clip-path="url(#clip772)" style="stroke:#3da44d; stroke-linecap:round; stroke-linejoin:round; stroke-width:4; stroke-opacity:1; fill:none" points="311.302,160.256 313.284,308.982 315.266,443.659 317.248,578.336 319.23,713.012 321.212,847.689 323.194,982.366 325.176,982.366 327.158,982.366 329.14,982.366 331.122,982.366 333.104,982.366 335.086,982.366 337.068,982.366 339.05,987.744 341.032,997.305 343.014,997.305 344.996,999.136 346.978,1002.67 348.96,1009.25 350.942,1009.25 352.924,1010.52 354.906,1013 356.888,1017.7 358.87,1026.22 360.852,1026.22 362.834,1027.84 364.816,1030.97 366.798,1036.78 368.78,1046.9 370.762,1046.9 372.744,1048.79 374.726,1052.37 376.708,1052.37 378.69,1053.07 380.672,1054.43 382.654,1057.05 384.636,1061.89 386.618,1061.89 388.6,1062.82 390.582,1064.62 392.564,1068 394.546,1074.03 396.528,1074.03 398.51,1075.16 400.492,1077.33 402.474,1077.33 404.456,1077.75 406.438,1078.58 408.42,1080.18 410.402,1083.18 412.384,1083.18 414.366,1083.76 416.348,1084.88 418.33,1087.02 420.312,1090.91 422.294,1090.91 424.276,1091.64 426.258,1093.06 428.24,1093.06 430.222,1093.34 432.204,1093.89 434.186,1094.95 436.168,1096.97 438.15,1096.97 440.132,1097.36 442.114,1098.13 444.096,1098.13 446.078,1098.28 448.06,1098.58 450.042,1099.17 452.024,1100.32 454.006,1100.32 455.988,1100.54 457.97,1100.98 459.952,1101.85 461.934,1103.51 463.916,1103.51 465.898,1103.83 467.88,1104.47 469.862,1104.47 471.844,1104.59 473.826,1104.84 475.808,1105.33 477.79,1106.29 479.772,1106.29 481.754,1106.48 483.736,1106.85 485.718,1107.59 487.7,1107.59 489.682,1107.73 491.664,1108.02 493.646,1108.58 495.628,1108.58 497.61,1108.69 499.592,1108.92 501.574,1109.36 503.556,1110.22 505.538,1110.22 507.52,1110.39 509.502,1110.72 511.484,1111.39 513.466,1111.39 515.448,1111.52 517.43,1111.78 519.412,1112.29 521.394,1112.29 523.376,1112.39 525.358,1112.59 527.34,1113 529.322,1113.78 531.304,1113.78 533.286,1113.94 535.267,1114.25 537.249,1114.85 539.231,1114.85 541.213,1114.97 543.195,1115.21 545.177,1115.69 547.159,1115.69 549.141,1115.78 551.123,1115.97 553.105,1116.34 555.087,1117.07 557.069,1117.07 559.051,1117.21 561.033,1117.5 563.015,1118.06 564.997,1118.06 566.979,1118.18 568.961,1118.4 570.943,1118.84 572.925,1118.84 574.907,1118.93 576.889,1119.11 578.871,1119.45 580.853,1120.14 582.835,1120.14 584.817,1120.28 586.799,1120.55 588.781,1121.08 590.763,1121.08 592.745,1121.19 594.727,1121.4 596.709,1121.82 598.691,1121.82 600.673,1121.9 602.655,1122.07 604.637,1122.4 606.619,1122.4 608.601,1122.46 610.583,1122.6 612.565,1122.86 614.547,1123.37 616.529,1123.37 618.511,1123.48 620.493,1123.68 622.475,1124.09 624.457,1124.09 626.439,1124.17 628.421,1124.33 630.403,1124.65 632.385,1124.65 634.367,1124.72 636.349,1124.84 638.331,1125.1 640.313,1125.6 642.295,1125.6 644.277,1125.7 646.259,1125.9 648.241,1126.3 650.223,1126.3 652.205,1126.38 654.187,1126.53 656.169,1126.85 658.151,1126.85 660.133,1126.91 662.115,1127.03 664.097,1127.28 666.079,1127.77 668.061,1127.77 670.043,1127.87 672.025,1128.07 674.007,1128.46 675.989,1128.46 677.971,1128.53 679.953,1128.69 681.935,1129 683.917,1129 685.899,1129.06 687.881,1129.18 689.863,1129.42 691.845,1129.91 693.827,1129.91 695.809,1130 697.791,1130.19 699.773,1130.58 701.755,1130.58 703.737,1130.65 705.719,1130.8 707.701,1131.11 709.683,1131.11 711.665,1131.17 713.647,1131.29 715.629,1131.53 717.611,1132 719.593,1132 721.575,1132.1 723.557,1132.29 725.539,1132.67 727.521,1132.67 729.503,1132.74 731.485,1132.89 733.467,1133.19 735.449,1133.19 737.431,1133.25 739.413,1133.37 741.395,1133.61 743.377,1134.08 745.359,1134.08 747.341,1134.17 749.323,1134.36 751.305,1134.73 753.287,1134.73 755.269,1134.81 757.251,1134.95 759.233,1135.25 761.215,1135.25 763.197,1135.31 765.179,1135.43 767.161,1135.66 769.143,1136.13 771.125,1136.13 773.107,1136.22 775.089,1136.41 777.071,1136.78 779.053,1136.78 781.035,1136.85 783.017,1137 784.999,1137.29 786.981,1137.29 788.963,1137.35 790.945,1137.47 792.927,1137.7 794.909,1138.17 796.891,1138.17 798.873,1138.26 800.855,1138.44 802.837,1138.81 804.819,1138.81 806.801,1138.88 808.783,1139.03 810.765,1139.32 812.747,1139.32 814.729,1139.38 816.711,1139.5 818.693,1139.73 820.675,1140.19 822.657,1140.19 824.639,1140.28 826.621,1140.47 828.603,1140.83 830.585,1140.83 832.567,1140.91 834.549,1141.05 836.531,1141.34 838.513,1141.34 840.495,1141.4 842.477,1141.52 844.459,1141.75 846.441,1141.75 848.423,1141.8 850.405,1141.89 852.387,1142.07 854.369,1142.44 856.351,1142.44 858.333,1142.51 860.314,1142.66 862.296,1142.95 864.278,1142.95 866.26,1143.01 868.242,1143.12 870.224,1143.36 872.206,1143.36 874.188,1143.4 876.17,1143.5 878.152,1143.68 880.134,1144.05 882.116,1144.05 884.098,1144.12 886.08,1144.27 888.062,1144.56 890.044,1144.56 892.026,1144.62 894.008,1144.74 895.99,1144.97 897.972,1144.97 899.954,1145.02 901.936,1145.11 903.918,1145.29 905.9,1145.66 907.882,1145.66 909.864,1145.74 911.846,1145.88 913.828,1146.18 915.81,1146.18 917.792,1146.24 919.774,1146.35 921.756,1146.59 923.738,1146.59 925.72,1146.63 927.702,1146.73 929.684,1146.91 931.666,1147.28 933.648,1147.28 935.63,1147.36 937.612,1147.51 939.594,1147.8 941.576,1147.8 943.558,1147.86 945.54,1147.98 947.522,1148.21 949.504,1148.21 951.486,1148.26 953.468,1148.35 955.45,1148.54 957.432,1148.91 959.414,1148.91 961.396,1148.99 963.378,1149.13 965.36,1149.43 967.342,1149.43 969.324,1149.49 971.306,1149.61 973.288,1149.84 975.27,1149.84 977.252,1149.89 979.234,1149.98 981.216,1150.17 983.198,1150.55 985.18,1150.55 987.162,1150.62 989.144,1150.77 991.126,1151.07 993.108,1151.07 995.09,1151.13 997.072,1151.25 999.054,1151.48 1001.04,1151.48 1003.02,1151.53 1005,1151.62 1006.98,1151.81 1008.96,1152.19 1010.95,1152.19 1012.93,1152.26 1014.91,1152.41 1016.89,1152.71 1018.87,1152.71 1020.86,1152.77 1022.84,1152.89 1024.82,1153.13 1026.8,1153.13 1028.78,1153.18 1030.77,1153.27 1032.75,1153.46 1034.73,1153.84 1036.71,1153.84 1038.69,1153.91 1040.68,1154.07 1042.66,1154.37 1044.64,1154.37 1046.62,1154.43 1048.6,1154.55 1050.59,1154.78 1052.57,1154.78 1054.55,1154.83 1056.53,1154.93 1058.51,1155.12 1060.5,1155.5 1062.48,1155.5 1064.46,1155.57 1066.44,1155.73 1068.42,1156.03 1070.41,1156.03 1072.39,1156.09 1074.37,1156.21 1076.35,1156.45 1078.33,1156.45 1080.32,1156.5 1082.3,1156.59 1084.28,1156.78 1086.26,1157.17 1088.24,1157.17 1090.23,1157.24 1092.21,1157.39 1094.19,1157.7 1096.17,1157.7 1098.15,1157.76 1100.14,1157.88 1102.12,1158.12 1104.1,1158.12 1106.08,1158.17 1108.06,1158.27 1110.05,1158.46 1112.03,1158.46 1114.01,1158.5 1115.99,1158.58 1117.97,1158.73 1119.96,1159.04 1121.94,1159.04 1123.92,1159.1 1125.9,1159.22 1127.88,1159.46 1129.87,1159.46 1131.85,1159.51 1133.83,1159.61 1135.81,1159.8 1137.79,1159.8 1139.78,1159.84 1141.76,1159.92 1143.74,1160.07 1145.72,1160.38 1147.7,1160.38 1149.69,1160.45 1151.67,1160.57 1153.65,1160.82 1155.63,1160.82 1157.61,1160.86 1159.6,1160.96 1161.58,1161.16 1163.56,1161.16 1165.54,1161.2 1167.52,1161.28 1169.51,1161.43 1171.49,1161.75 1173.47,1161.75 1175.45,1161.81 1177.43,1161.93 1179.42,1162.18 1181.4,1162.18 1183.38,1162.23 1185.36,1162.33 1187.34,1162.53 1189.33,1162.53 1191.31,1162.57 1193.29,1162.65 1195.27,1162.8 1197.25,1163.12 1199.24,1163.12 1201.22,1163.18 1203.2,1163.31 1205.18,1163.56 1207.16,1163.56 1209.15,1163.61 1211.13,1163.71 1213.11,1163.91 1215.09,1163.91 1217.07,1163.95 1219.06,1164.03 1221.04,1164.19 1223.02,1164.5 1225,1164.5 1226.98,1164.57 1228.97,1164.7 1230.95,1164.95 1232.93,1164.95 1234.91,1165 1236.89,1165.1 1238.88,1165.3 1240.86,1165.3 1242.84,1165.34 1244.82,1165.42 1246.8,1165.58 1248.79,1165.9 1250.77,1165.9 1252.75,1165.97 1254.73,1166.1 1256.71,1166.35 1258.7,1166.35 1260.68,1166.4 1262.66,1166.5 1264.64,1166.71 1266.62,1166.71 1268.61,1166.75 1270.59,1166.83 1272.57,1166.99 1274.55,1167.31 1276.53,1167.31 1278.52,1167.38 1280.5,1167.51 1282.48,1167.77 1284.46,1167.77 1286.44,1167.82 1288.43,1167.92 1290.41,1168.12 1292.39,1168.12 1294.37,1168.17 1296.35,1168.25 1298.34,1168.41 1300.32,1168.74 1302.3,1168.74 1304.28,1168.8 1306.26,1168.93 1308.25,1169.19 1310.23,1169.19 1312.21,1169.24 1314.19,1169.35 1316.17,1169.56 1318.16,1169.56 1320.14,1169.6 1322.12,1169.68 1324.1,1169.84 1326.08,1170.17 1328.07,1170.17 1330.05,1170.24 1332.03,1170.37 1334.01,1170.63 1335.99,1170.63 1337.98,1170.68 1339.96,1170.79 1341.94,1171 1343.92,1171 1345.9,1171.04 1347.88,1171.12 1349.87,1171.29 1351.85,1171.29 1353.83,1171.32 1355.81,1171.39 1357.79,1171.52 1359.78,1171.79 1361.76,1171.79 1363.74,1171.84 1365.72,1171.95 1367.7,1172.16 1369.69,1172.16 1371.67,1172.2 1373.65,1172.28 1375.63,1172.45 1377.61,1172.45 1379.6,1172.49 1381.58,1172.55 1383.56,1172.69 1385.54,1172.96 1387.52,1172.96 1389.51,1173.01 1391.49,1173.12 1393.47,1173.33 1395.45,1173.33 1397.43,1173.37 1399.42,1173.46 1401.4,1173.63 1403.38,1173.63 1405.36,1173.66 1407.34,1173.73 1409.33,1173.87 1411.31,1174.14 1413.29,1174.14 1415.27,1174.19 1417.25,1174.3 1419.24,1174.52 1421.22,1174.52 1423.2,1174.56 1425.18,1174.65 1427.16,1174.82 1429.15,1174.82 1431.13,1174.85 1433.11,1174.92 1435.09,1175.06 1437.07,1175.33 1439.06,1175.33 1441.04,1175.39 1443.02,1175.5 1445,1175.72 1446.98,1175.72 1448.97,1175.76 1450.95,1175.85 1452.93,1176.02 1454.91,1176.02 1456.89,1176.06 1458.88,1176.13 1460.86,1176.26 1462.84,1176.54 1464.82,1176.54 1466.8,1176.6 1468.79,1176.71 1470.77,1176.93 1472.75,1176.93 1474.73,1176.97 1476.71,1177.06 1478.7,1177.24 1480.68,1177.24 1482.66,1177.27 1484.64,1177.34 1486.62,1177.48 1488.61,1177.76 1490.59,1177.76 1492.57,1177.82 1494.55,1177.93 1496.53,1178.16 1498.52,1178.16 1500.5,1178.2 1502.48,1178.29 1504.46,1178.47 1506.44,1178.47 1508.43,1178.5 1510.41,1178.57 1512.39,1178.72 1514.37,1179 1516.35,1179 1518.34,1179.06 1520.32,1179.17 1522.3,1179.4 1524.28,1179.4 1526.26,1179.44 1528.25,1179.53 1530.23,1179.71 1532.21,1179.71 1534.19,1179.75 1536.17,1179.82 1538.16,1179.96 1540.14,1180.25 1542.12,1180.25 1544.1,1180.31 1546.08,1180.42 1548.07,1180.65 1550.05,1180.65 1552.03,1180.69 1554.01,1180.79 1555.99,1180.97 1557.98,1180.97 1559.96,1181 1561.94,1181.08 1563.92,1181.22 1565.9,1181.51 1567.89,1181.51 1569.87,1181.57 1571.85,1181.69 1573.83,1181.92 1575.81,1181.92 1577.8,1181.96 1579.78,1182.05 1581.76,1182.24 1583.74,1182.24 1585.72,1182.27 1587.71,1182.35 1589.69,1182.5 1591.67,1182.79 1593.65,1182.79 1595.63,1182.85 1597.62,1182.96 1599.6,1183.2 1601.58,1183.2 1603.56,1183.24 1605.54,1183.34 1607.53,1183.52 1609.51,1183.52 1611.49,1183.56 1613.47,1183.63 1615.45,1183.78 1617.44,1183.78 1619.42,1183.81 1621.4,1183.87 1623.38,1183.99 1625.36,1184.22 1627.35,1184.22 1629.33,1184.27 1631.31,1184.37 1633.29,1184.55 1635.27,1184.55 1637.26,1184.59 1639.24,1184.67 1641.22,1184.82 1643.2,1184.82 1645.18,1184.85 1647.17,1184.91 1649.15,1185.03 1651.13,1185.27 1653.11,1185.27 1655.09,1185.31 1657.08,1185.41 1659.06,1185.6 1661.04,1185.6 1663.02,1185.64 1665,1185.72 1666.99,1185.87 1668.97,1185.87 1670.95,1185.9 1672.93,1185.96 1674.91,1186.08 1676.9,1186.32 1678.88,1186.32 1680.86,1186.37 1682.84,1186.47 1684.82,1186.66 1686.81,1186.66 1688.79,1186.7 1690.77,1186.78 1692.75,1186.93 1694.73,1186.93 1696.72,1186.96 1698.7,1187.02 1700.68,1187.15 1702.66,1187.39 1704.64,1187.39 1706.63,1187.44 1708.61,1187.54 1710.59,1187.73 1712.57,1187.73 1714.55,1187.77 1716.54,1187.85 1718.52,1188.01 1720.5,1188.01 1722.48,1188.04 1724.46,1188.1 1726.45,1188.23 1728.43,1188.47 1730.41,1188.47 1732.39,1188.52 1734.37,1188.62 1736.36,1188.82 1738.34,1188.82 1740.32,1188.86 1742.3,1188.94 1744.28,1189.1 1746.27,1189.1 1748.25,1189.13 1750.23,1189.19 1752.21,1189.32 1754.19,1189.57 1756.18,1189.57 1758.16,1189.62 1760.14,1189.72 1762.12,1189.92 1764.1,1189.92 1766.09,1189.96 1768.07,1190.04 1770.05,1190.2 1772.03,1190.2 1774.01,1190.23 1776,1190.3 1777.98,1190.43 1779.96,1190.68 1781.94,1190.68 1783.92,1190.73 1785.91,1190.83 1787.89,1191.04 1789.87,1191.04 1791.85,1191.08 1793.83,1191.16 1795.82,1191.32 1797.8,1191.32 1799.78,1191.35 1801.76,1191.42 1803.74,1191.55 1805.73,1191.8 1807.71,1191.8 1809.69,1191.86 1811.67,1191.96 1813.65,1192.16 1815.64,1192.16 1817.62,1192.21 1819.6,1192.29 1821.58,1192.45 1823.56,1192.45 1825.55,1192.48 1827.53,1192.55 1829.51,1192.68 1831.49,1192.94 1833.47,1192.94 1835.46,1192.99 1837.44,1193.1 1839.42,1193.31 1841.4,1193.31 1843.38,1193.35 1845.37,1193.43 1847.35,1193.6 1849.33,1193.6 1851.31,1193.63 1853.29,1193.7 1855.28,1193.83 1857.26,1193.83 1859.24,1193.86 1861.22,1193.91 1863.2,1194.01 1865.19,1194.22 1867.17,1194.22 1869.15,1194.27 1871.13,1194.35 1873.11,1194.52 1875.1,1194.52 1877.08,1194.55 1879.06,1194.62 1881.04,1194.75 1883.02,1194.75 1885.01,1194.78 1886.99,1194.84 1888.97,1194.94 1890.95,1195.16 1892.93,1195.16 1894.92,1195.2 1896.9,1195.28 1898.88,1195.46 1900.86,1195.46 1902.84,1195.49 1904.83,1195.56 1906.81,1195.69 1908.79,1195.69 1910.77,1195.72 1912.75,1195.78 1914.74,1195.88 1916.72,1196.1 1918.7,1196.1 1920.68,1196.14 1922.66,1196.23 1924.65,1196.4 1926.63,1196.4 1928.61,1196.44 1930.59,1196.51 1932.57,1196.65 1934.56,1196.65 1936.54,1196.67 1938.52,1196.73 1940.5,1196.84 1942.48,1197.06 1944.47,1197.06 1946.45,1197.1 1948.43,1197.19 1950.41,1197.37 1952.39,1197.37 1954.38,1197.4 1956.36,1197.47 1958.34,1197.61 1960.32,1197.61 1962.3,1197.64 1964.29,1197.7 1966.27,1197.81 1968.25,1198.03 1970.23,1198.03 1972.21,1198.07 1974.2,1198.16 1976.18,1198.34 1978.16,1198.34 1980.14,1198.38 1982.12,1198.45 1984.11,1198.59 1986.09,1198.59 1988.07,1198.62 1990.05,1198.68 1992.03,1198.79 1994.02,1199.01 1996,1199.01 1997.98,1199.06 1999.96,1199.15 2001.94,1199.33 2003.92,1199.33 2005.91,1199.37 2007.89,1199.44 2009.87,1199.58 2011.85,1199.58 2013.83,1199.61 2015.82,1199.67 2017.8,1199.78 2019.78,1200.01 2021.76,1200.01 2023.74,1200.06 2025.73,1200.15 2027.71,1200.33 2029.69,1200.33 2031.67,1200.37 2033.65,1200.44 2035.64,1200.59 2037.62,1200.59 2039.6,1200.62 2041.58,1200.68 2043.56,1200.79 2045.55,1201.02 2047.53,1201.02 2049.51,1201.07 2051.49,1201.16 2053.47,1201.35 2055.46,1201.35 2057.44,1201.39 2059.42,1201.46 2061.4,1201.61 2063.38,1201.61 2065.37,1201.64 2067.35,1201.7 2069.33,1201.81 2071.31,1202.05 2073.29,1202.05 2075.28,1202.1 2077.26,1202.19 2079.24,1202.38 2081.22,1202.38 2083.2,1202.42 2085.19,1202.49 2087.17,1202.64 2089.15,1202.64 2091.13,1202.67 2093.11,1202.73 2095.1,1202.85 2097.08,1202.85 2099.06,1202.87 2101.04,1202.92 2103.02,1203.02 2105.01,1203.21 2106.99,1203.21 2108.97,1203.24 2110.95,1203.32 2112.93,1203.47 2114.92,1203.47 2116.9,1203.5 2118.88,1203.56 2120.86,1203.68 2122.84,1203.68 2124.83,1203.71 2126.81,1203.76 2128.79,1203.85 2130.77,1204.05 2132.75,1204.05 2134.74,1204.09 2136.72,1204.16 2138.7,1204.32 2140.68,1204.32 2142.66,1204.35 2144.65,1204.41 2146.63,1204.53 2148.61,1204.53 2150.59,1204.56 2152.57,1204.61 2154.56,1204.71 2156.54,1204.9 2158.52,1204.9 2160.5,1204.94 2162.48,1205.02 2164.47,1205.18 2166.45,1205.18 2168.43,1205.21 2170.41,1205.27 2172.39,1205.39 2174.38,1205.39 2176.36,1205.42 2178.34,1205.47 2180.32,1205.57 2182.3,1205.77 2184.29,1205.77 2186.27,1205.81 2188.25,1205.89 2190.23,1206.05 2192.21,1206.05 2194.2,1206.08 2196.18,1206.14 2198.16,1206.27 2200.14,1206.27 2202.12,1206.29 2204.11,1206.35 2206.09,1206.45 2208.07,1206.65 2210.05,1206.65 2212.03,1206.69 2214.02,1206.77 2216,1206.93 2217.98,1206.93 2219.96,1206.96 2221.94,1207.03 2223.93,1207.16 2225.91,1207.16 2227.89,1207.18 2229.87,1207.23 2231.85,1207.34 2233.84,1207.54 2235.82,1207.54 2237.8,1207.58 2239.78,1207.66 2241.76,1207.83 2243.75,1207.83 2245.73,1207.86 2247.71,1207.93 2249.69,1208.06 2251.67,1208.06 2253.66,1208.08 2255.64,1208.13 2257.62,1208.24 2259.6,1208.45 2261.58,1208.45 2263.57,1208.49 2265.55,1208.57 2267.53,1208.74 2269.51,1208.74 2271.49,1208.77 2273.48,1208.84 2275.46,1208.97 2277.44,1208.97 2279.42,1209 2281.4,1209.05 2283.39,1209.15 2285.37,1209.37 2287.35,1209.37 2289.33,1209.41 2291.31,1209.49 2293.3,1209.66 "/>
<polyline clip-path="url(#clip772)" style="stroke:#c271d2; stroke-linecap:round; stroke-linejoin:round; stroke-width:4; stroke-opacity:1; fill:none" points="311.302,160.256 313.284,308.982 315.266,443.659 317.248,578.336 319.23,713.012 321.212,847.689 323.194,982.366 325.176,1117.04 327.158,1251.72 329.14,1386.4 "/>
<polyline clip-path="url(#clip772)" style="stroke:#ac8d18; stroke-linecap:round; stroke-linejoin:round; stroke-width:4; stroke-opacity:1; fill:none" points="311.302,160.256 313.284,308.982 315.266,443.659 317.248,578.336 319.23,713.012 321.212,847.689 323.194,982.366 325.176,1117.04 327.158,1251.72 329.14,1386.4 "/>
<path clip-path="url(#clip770)" d="M1749.53 477.836 L2282.73 477.836 L2282.73 166.796 L1749.53 166.796  Z" fill="#ffffff" fill-rule="evenodd" fill-opacity="1"/>
<polyline clip-path="url(#clip770)" style="stroke:#000000; stroke-linecap:round; stroke-linejoin:round; stroke-width:4; stroke-opacity:1; fill:none" points="1749.53,477.836 2282.73,477.836 2282.73,166.796 1749.53,166.796 1749.53,477.836 "/>
<polyline clip-path="url(#clip770)" style="stroke:#009af9; stroke-linecap:round; stroke-linejoin:round; stroke-width:4; stroke-opacity:1; fill:none" points="1772.88,218.636 1912.94,218.636 "/>
<path clip-path="url(#clip770)" d="M1936.28 201.356 L1940.96 201.356 L1940.96 231.981 L1957.79 231.981 L1957.79 235.916 L1936.28 235.916 L1936.28 201.356 Z" fill="#000000" fill-rule="nonzero" fill-opacity="1" /><path clip-path="url(#clip770)" d="M1962.69 201.356 L1969.66 201.356 L1978.48 224.874 L1987.35 201.356 L1994.31 201.356 L1994.31 235.916 L1989.75 235.916 L1989.75 205.569 L1980.84 229.272 L1976.14 229.272 L1967.23 205.569 L1967.23 235.916 L1962.69 235.916 L1962.69 201.356 Z" fill="#000000" fill-rule="nonzero" fill-opacity="1" /><path clip-path="url(#clip770)" d="M2023.11 243.786 L2023.11 247.096 L1998.48 247.096 L1998.48 243.786 L2023.11 243.786 Z" fill="#000000" fill-rule="nonzero" fill-opacity="1" /><path clip-path="url(#clip770)" d="M2048.02 202.49 L2048.02 207.05 Q2045.36 205.777 2042.99 205.152 Q2040.63 204.527 2038.43 204.527 Q2034.61 204.527 2032.53 206.008 Q2030.47 207.49 2030.47 210.221 Q2030.47 212.513 2031.84 213.694 Q2033.23 214.851 2037.07 215.569 L2039.89 216.147 Q2045.12 217.143 2047.6 219.666 Q2050.1 222.166 2050.1 226.379 Q2050.1 231.402 2046.72 233.994 Q2043.36 236.587 2036.86 236.587 Q2034.41 236.587 2031.63 236.031 Q2028.87 235.476 2025.91 234.388 L2025.91 229.573 Q2028.76 231.17 2031.49 231.981 Q2034.22 232.791 2036.86 232.791 Q2040.86 232.791 2043.04 231.217 Q2045.22 229.643 2045.22 226.726 Q2045.22 224.18 2043.64 222.744 Q2042.09 221.309 2038.53 220.592 L2035.68 220.036 Q2030.45 218.995 2028.11 216.772 Q2025.77 214.55 2025.77 210.592 Q2025.77 206.008 2028.99 203.37 Q2032.23 200.731 2037.9 200.731 Q2040.33 200.731 2042.86 201.171 Q2045.38 201.61 2048.02 202.49 Z" fill="#000000" fill-rule="nonzero" fill-opacity="1" /><path clip-path="url(#clip770)" d="M2062.07 205.198 L2062.07 218.184 L2067.95 218.184 Q2071.21 218.184 2072.99 216.495 Q2074.78 214.805 2074.78 211.68 Q2074.78 208.578 2072.99 206.888 Q2071.21 205.198 2067.95 205.198 L2062.07 205.198 M2057.39 201.356 L2067.95 201.356 Q2073.76 201.356 2076.72 203.995 Q2079.71 206.61 2079.71 211.68 Q2079.71 216.795 2076.72 219.411 Q2073.76 222.027 2067.95 222.027 L2062.07 222.027 L2062.07 235.916 L2057.39 235.916 L2057.39 201.356 Z" fill="#000000" fill-rule="nonzero" fill-opacity="1" /><path clip-path="url(#clip770)" d="M2109.54 230.985 L2109.54 221.703 L2101.91 221.703 L2101.91 217.86 L2114.17 217.86 L2114.17 232.698 Q2111.47 234.619 2108.2 235.615 Q2104.94 236.587 2101.23 236.587 Q2093.13 236.587 2088.55 231.865 Q2083.99 227.119 2083.99 218.67 Q2083.99 210.198 2088.55 205.476 Q2093.13 200.731 2101.23 200.731 Q2104.61 200.731 2107.65 201.564 Q2110.7 202.397 2113.27 204.018 L2113.27 208.995 Q2110.68 206.796 2107.76 205.684 Q2104.85 204.573 2101.63 204.573 Q2095.29 204.573 2092.09 208.115 Q2088.92 211.657 2088.92 218.67 Q2088.92 225.661 2092.09 229.203 Q2095.29 232.744 2101.63 232.744 Q2104.11 232.744 2106.05 232.328 Q2107.99 231.888 2109.54 230.985 Z" fill="#000000" fill-rule="nonzero" fill-opacity="1" /><polyline clip-path="url(#clip770)" style="stroke:#e26f46; stroke-linecap:round; stroke-linejoin:round; stroke-width:4; stroke-opacity:1; fill:none" points="1772.88,270.476 1912.94,270.476 "/>
<path clip-path="url(#clip770)" d="M1936.28 253.196 L1940.96 253.196 L1940.96 283.821 L1957.79 283.821 L1957.79 287.756 L1936.28 287.756 L1936.28 253.196 Z" fill="#000000" fill-rule="nonzero" fill-opacity="1" /><path clip-path="url(#clip770)" d="M1962.69 253.196 L1969.66 253.196 L1978.48 276.714 L1987.35 253.196 L1994.31 253.196 L1994.31 287.756 L1989.75 287.756 L1989.75 257.409 L1980.84 281.112 L1976.14 281.112 L1967.23 257.409 L1967.23 287.756 L1962.69 287.756 L1962.69 253.196 Z" fill="#000000" fill-rule="nonzero" fill-opacity="1" /><path clip-path="url(#clip770)" d="M2023.11 295.626 L2023.11 298.936 L1998.48 298.936 L1998.48 295.626 L2023.11 295.626 Z" fill="#000000" fill-rule="nonzero" fill-opacity="1" /><path clip-path="url(#clip770)" d="M2038.85 257.802 L2032.51 275.001 L2045.22 275.001 L2038.85 257.802 M2036.21 253.196 L2041.51 253.196 L2054.68 287.756 L2049.82 287.756 L2046.67 278.89 L2031.1 278.89 L2027.95 287.756 L2023.02 287.756 L2036.21 253.196 Z" fill="#000000" fill-rule="nonzero" fill-opacity="1" /><path clip-path="url(#clip770)" d="M2081.1 272.108 L2081.1 287.756 L2076.84 287.756 L2076.84 272.247 Q2076.84 268.566 2075.4 266.737 Q2073.97 264.909 2071.1 264.909 Q2067.65 264.909 2065.66 267.108 Q2063.67 269.307 2063.67 273.103 L2063.67 287.756 L2059.38 287.756 L2059.38 261.83 L2063.67 261.83 L2063.67 265.858 Q2065.19 263.52 2067.25 262.362 Q2069.34 261.205 2072.05 261.205 Q2076.51 261.205 2078.8 263.983 Q2081.1 266.737 2081.1 272.108 Z" fill="#000000" fill-rule="nonzero" fill-opacity="1" /><path clip-path="url(#clip770)" d="M2106.65 265.765 L2106.65 251.737 L2110.91 251.737 L2110.91 287.756 L2106.65 287.756 L2106.65 283.867 Q2105.31 286.182 2103.25 287.316 Q2101.21 288.427 2098.34 288.427 Q2093.64 288.427 2090.68 284.677 Q2087.74 280.927 2087.74 274.816 Q2087.74 268.705 2090.68 264.955 Q2093.64 261.205 2098.34 261.205 Q2101.21 261.205 2103.25 262.339 Q2105.31 263.45 2106.65 265.765 M2092.14 274.816 Q2092.14 279.515 2094.06 282.2 Q2096 284.862 2099.38 284.862 Q2102.76 284.862 2104.71 282.2 Q2106.65 279.515 2106.65 274.816 Q2106.65 270.117 2104.71 267.455 Q2102.76 264.77 2099.38 264.77 Q2096 264.77 2094.06 267.455 Q2092.14 270.117 2092.14 274.816 Z" fill="#000000" fill-rule="nonzero" fill-opacity="1" /><path clip-path="url(#clip770)" d="M2134.71 265.811 Q2133.99 265.395 2133.13 265.21 Q2132.3 265.001 2131.28 265.001 Q2127.67 265.001 2125.73 267.362 Q2123.8 269.7 2123.8 274.098 L2123.8 287.756 L2119.52 287.756 L2119.52 261.83 L2123.8 261.83 L2123.8 265.858 Q2125.15 263.497 2127.3 262.362 Q2129.45 261.205 2132.53 261.205 Q2132.97 261.205 2133.5 261.274 Q2134.04 261.321 2134.68 261.436 L2134.71 265.811 Z" fill="#000000" fill-rule="nonzero" fill-opacity="1" /><path clip-path="url(#clip770)" d="M2160.31 273.728 L2160.31 275.811 L2140.73 275.811 Q2141 280.209 2143.36 282.524 Q2145.75 284.816 2149.98 284.816 Q2152.44 284.816 2154.73 284.214 Q2157.04 283.612 2159.31 282.409 L2159.31 286.436 Q2157.02 287.408 2154.61 287.918 Q2152.21 288.427 2149.73 288.427 Q2143.53 288.427 2139.89 284.816 Q2136.28 281.205 2136.28 275.047 Q2136.28 268.682 2139.71 264.955 Q2143.16 261.205 2148.99 261.205 Q2154.22 261.205 2157.25 264.585 Q2160.31 267.941 2160.31 273.728 M2156.05 272.478 Q2156 268.983 2154.08 266.899 Q2152.18 264.816 2149.04 264.816 Q2145.47 264.816 2143.32 266.83 Q2141.19 268.844 2140.86 272.501 L2156.05 272.478 Z" fill="#000000" fill-rule="nonzero" fill-opacity="1" /><path clip-path="url(#clip770)" d="M2167.3 261.83 L2171.56 261.83 L2171.56 287.756 L2167.3 287.756 L2167.3 261.83 M2167.3 251.737 L2171.56 251.737 L2171.56 257.131 L2167.3 257.131 L2167.3 251.737 Z" fill="#000000" fill-rule="nonzero" fill-opacity="1" /><path clip-path="url(#clip770)" d="M2200.17 295.626 L2200.17 298.936 L2175.54 298.936 L2175.54 295.626 L2200.17 295.626 Z" fill="#000000" fill-rule="nonzero" fill-opacity="1" /><path clip-path="url(#clip770)" d="M2215.96 274.723 Q2210.79 274.723 2208.8 275.904 Q2206.81 277.084 2206.81 279.932 Q2206.81 282.2 2208.29 283.543 Q2209.8 284.862 2212.37 284.862 Q2215.91 284.862 2218.04 282.362 Q2220.19 279.839 2220.19 275.672 L2220.19 274.723 L2215.96 274.723 M2224.45 272.964 L2224.45 287.756 L2220.19 287.756 L2220.19 283.821 Q2218.73 286.182 2216.56 287.316 Q2214.38 288.427 2211.23 288.427 Q2207.25 288.427 2204.89 286.205 Q2202.55 283.959 2202.55 280.209 Q2202.55 275.834 2205.47 273.612 Q2208.41 271.39 2214.22 271.39 L2220.19 271.39 L2220.19 270.973 Q2220.19 268.034 2218.25 266.436 Q2216.33 264.816 2212.83 264.816 Q2210.61 264.816 2208.5 265.348 Q2206.4 265.881 2204.45 266.946 L2204.45 263.01 Q2206.79 262.108 2208.99 261.668 Q2211.19 261.205 2213.27 261.205 Q2218.9 261.205 2221.67 264.122 Q2224.45 267.038 2224.45 272.964 Z" fill="#000000" fill-rule="nonzero" fill-opacity="1" /><path clip-path="url(#clip770)" d="M2233.22 251.737 L2237.48 251.737 L2237.48 287.756 L2233.22 287.756 L2233.22 251.737 Z" fill="#000000" fill-rule="nonzero" fill-opacity="1" /><path clip-path="url(#clip770)" d="M2250.61 254.469 L2250.61 261.83 L2259.38 261.83 L2259.38 265.14 L2250.61 265.14 L2250.61 279.214 Q2250.61 282.385 2251.47 283.288 Q2252.34 284.191 2255.01 284.191 L2259.38 284.191 L2259.38 287.756 L2255.01 287.756 Q2250.08 287.756 2248.2 285.927 Q2246.33 284.075 2246.33 279.214 L2246.33 265.14 L2243.2 265.14 L2243.2 261.83 L2246.33 261.83 L2246.33 254.469 L2250.61 254.469 Z" fill="#000000" fill-rule="nonzero" fill-opacity="1" /><polyline clip-path="url(#clip770)" style="stroke:#3da44d; stroke-linecap:round; stroke-linejoin:round; stroke-width:4; stroke-opacity:1; fill:none" points="1772.88,322.316 1912.94,322.316 "/>
<path clip-path="url(#clip770)" d="M1936.28 305.036 L1940.96 305.036 L1940.96 335.661 L1957.79 335.661 L1957.79 339.596 L1936.28 339.596 L1936.28 305.036 Z" fill="#000000" fill-rule="nonzero" fill-opacity="1" /><path clip-path="url(#clip770)" d="M1962.69 305.036 L1969.66 305.036 L1978.48 328.554 L1987.35 305.036 L1994.31 305.036 L1994.31 339.596 L1989.75 339.596 L1989.75 309.249 L1980.84 332.952 L1976.14 332.952 L1967.23 309.249 L1967.23 339.596 L1962.69 339.596 L1962.69 305.036 Z" fill="#000000" fill-rule="nonzero" fill-opacity="1" /><path clip-path="url(#clip770)" d="M2023.11 347.466 L2023.11 350.776 L1998.48 350.776 L1998.48 347.466 L2023.11 347.466 Z" fill="#000000" fill-rule="nonzero" fill-opacity="1" /><path clip-path="url(#clip770)" d="M2038.85 309.642 L2032.51 326.841 L2045.22 326.841 L2038.85 309.642 M2036.21 305.036 L2041.51 305.036 L2054.68 339.596 L2049.82 339.596 L2046.67 330.73 L2031.1 330.73 L2027.95 339.596 L2023.02 339.596 L2036.21 305.036 Z" fill="#000000" fill-rule="nonzero" fill-opacity="1" /><path clip-path="url(#clip770)" d="M2081.1 323.948 L2081.1 339.596 L2076.84 339.596 L2076.84 324.087 Q2076.84 320.406 2075.4 318.577 Q2073.97 316.749 2071.1 316.749 Q2067.65 316.749 2065.66 318.948 Q2063.67 321.147 2063.67 324.943 L2063.67 339.596 L2059.38 339.596 L2059.38 313.67 L2063.67 313.67 L2063.67 317.698 Q2065.19 315.36 2067.25 314.202 Q2069.34 313.045 2072.05 313.045 Q2076.51 313.045 2078.8 315.823 Q2081.1 318.577 2081.1 323.948 Z" fill="#000000" fill-rule="nonzero" fill-opacity="1" /><path clip-path="url(#clip770)" d="M2106.65 317.605 L2106.65 303.577 L2110.91 303.577 L2110.91 339.596 L2106.65 339.596 L2106.65 335.707 Q2105.31 338.022 2103.25 339.156 Q2101.21 340.267 2098.34 340.267 Q2093.64 340.267 2090.68 336.517 Q2087.74 332.767 2087.74 326.656 Q2087.74 320.545 2090.68 316.795 Q2093.64 313.045 2098.34 313.045 Q2101.21 313.045 2103.25 314.179 Q2105.31 315.29 2106.65 317.605 M2092.14 326.656 Q2092.14 331.355 2094.06 334.04 Q2096 336.702 2099.38 336.702 Q2102.76 336.702 2104.71 334.04 Q2106.65 331.355 2106.65 326.656 Q2106.65 321.957 2104.71 319.295 Q2102.76 316.61 2099.38 316.61 Q2096 316.61 2094.06 319.295 Q2092.14 321.957 2092.14 326.656 Z" fill="#000000" fill-rule="nonzero" fill-opacity="1" /><path clip-path="url(#clip770)" d="M2134.71 317.651 Q2133.99 317.235 2133.13 317.05 Q2132.3 316.841 2131.28 316.841 Q2127.67 316.841 2125.73 319.202 Q2123.8 321.54 2123.8 325.938 L2123.8 339.596 L2119.52 339.596 L2119.52 313.67 L2123.8 313.67 L2123.8 317.698 Q2125.15 315.337 2127.3 314.202 Q2129.45 313.045 2132.53 313.045 Q2132.97 313.045 2133.5 313.114 Q2134.04 313.161 2134.68 313.276 L2134.71 317.651 Z" fill="#000000" fill-rule="nonzero" fill-opacity="1" /><path clip-path="url(#clip770)" d="M2160.31 325.568 L2160.31 327.651 L2140.73 327.651 Q2141 332.049 2143.36 334.364 Q2145.75 336.656 2149.98 336.656 Q2152.44 336.656 2154.73 336.054 Q2157.04 335.452 2159.31 334.249 L2159.31 338.276 Q2157.02 339.248 2154.61 339.758 Q2152.21 340.267 2149.73 340.267 Q2143.53 340.267 2139.89 336.656 Q2136.28 333.045 2136.28 326.887 Q2136.28 320.522 2139.71 316.795 Q2143.16 313.045 2148.99 313.045 Q2154.22 313.045 2157.25 316.425 Q2160.31 319.781 2160.31 325.568 M2156.05 324.318 Q2156 320.823 2154.08 318.739 Q2152.18 316.656 2149.04 316.656 Q2145.47 316.656 2143.32 318.67 Q2141.19 320.684 2140.86 324.341 L2156.05 324.318 Z" fill="#000000" fill-rule="nonzero" fill-opacity="1" /><path clip-path="url(#clip770)" d="M2167.3 313.67 L2171.56 313.67 L2171.56 339.596 L2167.3 339.596 L2167.3 313.67 M2167.3 303.577 L2171.56 303.577 L2171.56 308.971 L2167.3 308.971 L2167.3 303.577 Z" fill="#000000" fill-rule="nonzero" fill-opacity="1" /><polyline clip-path="url(#clip770)" style="stroke:#c271d2; stroke-linecap:round; stroke-linejoin:round; stroke-width:4; stroke-opacity:1; fill:none" points="1772.88,374.156 1912.94,374.156 "/>
<path clip-path="url(#clip770)" d="M1936.28 356.876 L1940.96 356.876 L1940.96 387.501 L1957.79 387.501 L1957.79 391.436 L1936.28 391.436 L1936.28 356.876 Z" fill="#000000" fill-rule="nonzero" fill-opacity="1" /><path clip-path="url(#clip770)" d="M1962.69 356.876 L1969.66 356.876 L1978.48 380.394 L1987.35 356.876 L1994.31 356.876 L1994.31 391.436 L1989.75 391.436 L1989.75 361.089 L1980.84 384.792 L1976.14 384.792 L1967.23 361.089 L1967.23 391.436 L1962.69 391.436 L1962.69 356.876 Z" fill="#000000" fill-rule="nonzero" fill-opacity="1" /><path clip-path="url(#clip770)" d="M2023.11 399.306 L2023.11 402.616 L1998.48 402.616 L1998.48 399.306 L2023.11 399.306 Z" fill="#000000" fill-rule="nonzero" fill-opacity="1" /><path clip-path="url(#clip770)" d="M2048.02 358.01 L2048.02 362.57 Q2045.36 361.297 2042.99 360.672 Q2040.63 360.047 2038.43 360.047 Q2034.61 360.047 2032.53 361.528 Q2030.47 363.01 2030.47 365.741 Q2030.47 368.033 2031.84 369.214 Q2033.23 370.371 2037.07 371.089 L2039.89 371.667 Q2045.12 372.663 2047.6 375.186 Q2050.1 377.686 2050.1 381.899 Q2050.1 386.922 2046.72 389.514 Q2043.36 392.107 2036.86 392.107 Q2034.41 392.107 2031.63 391.551 Q2028.87 390.996 2025.91 389.908 L2025.91 385.093 Q2028.76 386.69 2031.49 387.501 Q2034.22 388.311 2036.86 388.311 Q2040.86 388.311 2043.04 386.737 Q2045.22 385.163 2045.22 382.246 Q2045.22 379.7 2043.64 378.264 Q2042.09 376.829 2038.53 376.112 L2035.68 375.556 Q2030.45 374.515 2028.11 372.292 Q2025.77 370.07 2025.77 366.112 Q2025.77 361.528 2028.99 358.89 Q2032.23 356.251 2037.9 356.251 Q2040.33 356.251 2042.86 356.691 Q2045.38 357.13 2048.02 358.01 Z" fill="#000000" fill-rule="nonzero" fill-opacity="1" /><path clip-path="url(#clip770)" d="M2062.07 360.718 L2062.07 373.704 L2067.95 373.704 Q2071.21 373.704 2072.99 372.015 Q2074.78 370.325 2074.78 367.2 Q2074.78 364.098 2072.99 362.408 Q2071.21 360.718 2067.95 360.718 L2062.07 360.718 M2057.39 356.876 L2067.95 356.876 Q2073.76 356.876 2076.72 359.515 Q2079.71 362.13 2079.71 367.2 Q2079.71 372.315 2076.72 374.931 Q2073.76 377.547 2067.95 377.547 L2062.07 377.547 L2062.07 391.436 L2057.39 391.436 L2057.39 356.876 Z" fill="#000000" fill-rule="nonzero" fill-opacity="1" /><path clip-path="url(#clip770)" d="M2109.54 386.505 L2109.54 377.223 L2101.91 377.223 L2101.91 373.38 L2114.17 373.38 L2114.17 388.218 Q2111.47 390.139 2108.2 391.135 Q2104.94 392.107 2101.23 392.107 Q2093.13 392.107 2088.55 387.385 Q2083.99 382.639 2083.99 374.19 Q2083.99 365.718 2088.55 360.996 Q2093.13 356.251 2101.23 356.251 Q2104.61 356.251 2107.65 357.084 Q2110.7 357.917 2113.27 359.538 L2113.27 364.515 Q2110.68 362.316 2107.76 361.204 Q2104.85 360.093 2101.63 360.093 Q2095.29 360.093 2092.09 363.635 Q2088.92 367.177 2088.92 374.19 Q2088.92 381.181 2092.09 384.723 Q2095.29 388.264 2101.63 388.264 Q2104.11 388.264 2106.05 387.848 Q2107.99 387.408 2109.54 386.505 Z" fill="#000000" fill-rule="nonzero" fill-opacity="1" /><path clip-path="url(#clip770)" d="M2142.23 399.306 L2142.23 402.616 L2117.6 402.616 L2117.6 399.306 L2142.23 399.306 Z" fill="#000000" fill-rule="nonzero" fill-opacity="1" /><path clip-path="url(#clip770)" d="M2158.02 378.403 Q2152.85 378.403 2150.86 379.584 Q2148.87 380.764 2148.87 383.612 Q2148.87 385.88 2150.35 387.223 Q2151.86 388.542 2154.43 388.542 Q2157.97 388.542 2160.1 386.042 Q2162.25 383.519 2162.25 379.352 L2162.25 378.403 L2158.02 378.403 M2166.51 376.644 L2166.51 391.436 L2162.25 391.436 L2162.25 387.501 Q2160.79 389.862 2158.62 390.996 Q2156.44 392.107 2153.29 392.107 Q2149.31 392.107 2146.95 389.885 Q2144.61 387.639 2144.61 383.889 Q2144.61 379.514 2147.53 377.292 Q2150.47 375.07 2156.28 375.07 L2162.25 375.07 L2162.25 374.653 Q2162.25 371.714 2160.31 370.116 Q2158.39 368.496 2154.89 368.496 Q2152.67 368.496 2150.56 369.028 Q2148.46 369.561 2146.51 370.626 L2146.51 366.69 Q2148.85 365.788 2151.05 365.348 Q2153.25 364.885 2155.33 364.885 Q2160.96 364.885 2163.73 367.802 Q2166.51 370.718 2166.51 376.644 Z" fill="#000000" fill-rule="nonzero" fill-opacity="1" /><path clip-path="url(#clip770)" d="M2175.29 355.417 L2179.54 355.417 L2179.54 391.436 L2175.29 391.436 L2175.29 355.417 Z" fill="#000000" fill-rule="nonzero" fill-opacity="1" /><path clip-path="url(#clip770)" d="M2192.67 358.149 L2192.67 365.51 L2201.44 365.51 L2201.44 368.82 L2192.67 368.82 L2192.67 382.894 Q2192.67 386.065 2193.53 386.968 Q2194.41 387.871 2197.07 387.871 L2201.44 387.871 L2201.44 391.436 L2197.07 391.436 Q2192.14 391.436 2190.26 389.607 Q2188.39 387.755 2188.39 382.894 L2188.39 368.82 L2185.26 368.82 L2185.26 365.51 L2188.39 365.51 L2188.39 358.149 L2192.67 358.149 Z" fill="#000000" fill-rule="nonzero" fill-opacity="1" /><polyline clip-path="url(#clip770)" style="stroke:#ac8d18; stroke-linecap:round; stroke-linejoin:round; stroke-width:4; stroke-opacity:1; fill:none" points="1772.88,425.996 1912.94,425.996 "/>
<path clip-path="url(#clip770)" d="M1936.28 408.716 L1940.96 408.716 L1940.96 439.341 L1957.79 439.341 L1957.79 443.276 L1936.28 443.276 L1936.28 408.716 Z" fill="#000000" fill-rule="nonzero" fill-opacity="1" /><path clip-path="url(#clip770)" d="M1962.69 408.716 L1969.66 408.716 L1978.48 432.234 L1987.35 408.716 L1994.31 408.716 L1994.31 443.276 L1989.75 443.276 L1989.75 412.929 L1980.84 436.632 L1976.14 436.632 L1967.23 412.929 L1967.23 443.276 L1962.69 443.276 L1962.69 408.716 Z" fill="#000000" fill-rule="nonzero" fill-opacity="1" /></svg>
