<?xml version="1.0" encoding="utf-8"?>
<svg xmlns="http://www.w3.org/2000/svg" xmlns:xlink="http://www.w3.org/1999/xlink" width="600" height="400" viewBox="0 0 2400 1600">
<defs>
  <clipPath id="clip090">
    <rect x="0" y="0" width="2400" height="1600"/>
  </clipPath>
</defs>
<path clip-path="url(#clip090)" d="M0 1600 L2400 1600 L2400 0 L0 0  Z" fill="#ffffff" fill-rule="evenodd" fill-opacity="1"/>
<defs>
  <clipPath id="clip091">
    <rect x="480" y="0" width="1681" height="1600"/>
  </clipPath>
</defs>
<path clip-path="url(#clip090)" d="M251.56 1423.18 L2352.76 1423.18 L2352.76 123.472 L251.56 123.472  Z" fill="#ffffff" fill-rule="evenodd" fill-opacity="1"/>
<defs>
  <clipPath id="clip092">
    <rect x="251" y="123" width="2102" height="1301"/>
  </clipPath>
</defs>
<polyline clip-path="url(#clip092)" style="stroke:#000000; stroke-linecap:round; stroke-linejoin:round; stroke-width:2; stroke-opacity:0.1; fill:none" points="304.755,1423.18 304.755,123.472 "/>
<polyline clip-path="url(#clip092)" style="stroke:#000000; stroke-linecap:round; stroke-linejoin:round; stroke-width:2; stroke-opacity:0.1; fill:none" points="932.053,1423.18 932.053,123.472 "/>
<polyline clip-path="url(#clip092)" style="stroke:#000000; stroke-linecap:round; stroke-linejoin:round; stroke-width:2; stroke-opacity:0.1; fill:none" points="1559.35,1423.18 1559.35,123.472 "/>
<polyline clip-path="url(#clip092)" style="stroke:#000000; stroke-linecap:round; stroke-linejoin:round; stroke-width:2; stroke-opacity:0.1; fill:none" points="2186.65,1423.18 2186.65,123.472 "/>
<polyline clip-path="url(#clip090)" style="stroke:#000000; stroke-linecap:round; stroke-linejoin:round; stroke-width:4; stroke-opacity:1; fill:none" points="251.56,1423.18 2352.76,1423.18 "/>
<polyline clip-path="url(#clip090)" style="stroke:#000000; stroke-linecap:round; stroke-linejoin:round; stroke-width:4; stroke-opacity:1; fill:none" points="304.755,1423.18 304.755,1404.28 "/>
<polyline clip-path="url(#clip090)" style="stroke:#000000; stroke-linecap:round; stroke-linejoin:round; stroke-width:4; stroke-opacity:1; fill:none" points="932.053,1423.18 932.053,1404.28 "/>
<polyline clip-path="url(#clip090)" style="stroke:#000000; stroke-linecap:round; stroke-linejoin:round; stroke-width:4; stroke-opacity:1; fill:none" points="1559.35,1423.18 1559.35,1404.28 "/>
<polyline clip-path="url(#clip090)" style="stroke:#000000; stroke-linecap:round; stroke-linejoin:round; stroke-width:4; stroke-opacity:1; fill:none" points="2186.65,1423.18 2186.65,1404.28 "/>
<path clip-path="url(#clip090)" d="M304.755 1454.1 Q301.144 1454.1 299.315 1457.66 Q297.51 1461.2 297.51 1468.33 Q297.51 1475.44 299.315 1479.01 Q301.144 1482.55 304.755 1482.55 Q308.389 1482.55 310.195 1479.01 Q312.024 1475.44 312.024 1468.33 Q312.024 1461.2 310.195 1457.66 Q308.389 1454.1 304.755 1454.1 M304.755 1450.39 Q310.565 1450.39 313.621 1455 Q316.699 1459.58 316.699 1468.33 Q316.699 1477.06 313.621 1481.67 Q310.565 1486.25 304.755 1486.25 Q298.945 1486.25 295.866 1481.67 Q292.811 1477.06 292.811 1468.33 Q292.811 1459.58 295.866 1455 Q298.945 1450.39 304.755 1450.39 Z" fill="#000000" fill-rule="nonzero" fill-opacity="1" /><path clip-path="url(#clip090)" d="M891.659 1481.64 L899.298 1481.64 L899.298 1455.28 L890.988 1456.95 L890.988 1452.69 L899.252 1451.02 L903.928 1451.02 L903.928 1481.64 L911.567 1481.64 L911.567 1485.58 L891.659 1485.58 L891.659 1481.64 Z" fill="#000000" fill-rule="nonzero" fill-opacity="1" /><path clip-path="url(#clip090)" d="M931.011 1454.1 Q927.4 1454.1 925.571 1457.66 Q923.766 1461.2 923.766 1468.33 Q923.766 1475.44 925.571 1479.01 Q927.4 1482.55 931.011 1482.55 Q934.645 1482.55 936.451 1479.01 Q938.279 1475.44 938.279 1468.33 Q938.279 1461.2 936.451 1457.66 Q934.645 1454.1 931.011 1454.1 M931.011 1450.39 Q936.821 1450.39 939.877 1455 Q942.955 1459.58 942.955 1468.33 Q942.955 1477.06 939.877 1481.67 Q936.821 1486.25 931.011 1486.25 Q925.201 1486.25 922.122 1481.67 Q919.067 1477.06 919.067 1468.33 Q919.067 1459.58 922.122 1455 Q925.201 1450.39 931.011 1450.39 Z" fill="#000000" fill-rule="nonzero" fill-opacity="1" /><path clip-path="url(#clip090)" d="M961.173 1454.1 Q957.562 1454.1 955.733 1457.66 Q953.927 1461.2 953.927 1468.33 Q953.927 1475.44 955.733 1479.01 Q957.562 1482.55 961.173 1482.55 Q964.807 1482.55 966.613 1479.01 Q968.441 1475.44 968.441 1468.33 Q968.441 1461.2 966.613 1457.66 Q964.807 1454.1 961.173 1454.1 M961.173 1450.39 Q966.983 1450.39 970.038 1455 Q973.117 1459.58 973.117 1468.33 Q973.117 1477.06 970.038 1481.67 Q966.983 1486.25 961.173 1486.25 Q955.363 1486.25 952.284 1481.67 Q949.228 1477.06 949.228 1468.33 Q949.228 1459.58 952.284 1455 Q955.363 1450.39 961.173 1450.39 Z" fill="#000000" fill-rule="nonzero" fill-opacity="1" /><path clip-path="url(#clip090)" d="M1523.04 1481.64 L1539.36 1481.64 L1539.36 1485.58 L1517.42 1485.58 L1517.42 1481.64 Q1520.08 1478.89 1524.66 1474.26 Q1529.27 1469.61 1530.45 1468.27 Q1532.7 1465.74 1533.57 1464.01 Q1534.48 1462.25 1534.48 1460.56 Q1534.48 1457.8 1532.53 1456.07 Q1530.61 1454.33 1527.51 1454.33 Q1525.31 1454.33 1522.86 1455.09 Q1520.43 1455.86 1517.65 1457.41 L1517.65 1452.69 Q1520.47 1451.55 1522.93 1450.97 Q1525.38 1450.39 1527.42 1450.39 Q1532.79 1450.39 1535.98 1453.08 Q1539.18 1455.77 1539.18 1460.26 Q1539.18 1462.39 1538.37 1464.31 Q1537.58 1466.2 1535.47 1468.8 Q1534.89 1469.47 1531.79 1472.69 Q1528.69 1475.88 1523.04 1481.64 Z" fill="#000000" fill-rule="nonzero" fill-opacity="1" /><path clip-path="url(#clip090)" d="M1559.18 1454.1 Q1555.57 1454.1 1553.74 1457.66 Q1551.93 1461.2 1551.93 1468.33 Q1551.93 1475.44 1553.74 1479.01 Q1555.57 1482.55 1559.18 1482.55 Q1562.81 1482.55 1564.62 1479.01 Q1566.44 1475.44 1566.44 1468.33 Q1566.44 1461.2 1564.62 1457.66 Q1562.81 1454.1 1559.18 1454.1 M1559.18 1450.39 Q1564.99 1450.39 1568.04 1455 Q1571.12 1459.58 1571.12 1468.33 Q1571.12 1477.06 1568.04 1481.67 Q1564.99 1486.25 1559.18 1486.25 Q1553.37 1486.25 1550.29 1481.67 Q1547.23 1477.06 1547.23 1468.33 Q1547.23 1459.58 1550.29 1455 Q1553.37 1450.39 1559.18 1450.39 Z" fill="#000000" fill-rule="nonzero" fill-opacity="1" /><path clip-path="url(#clip090)" d="M1589.34 1454.1 Q1585.73 1454.1 1583.9 1457.66 Q1582.09 1461.2 1582.09 1468.33 Q1582.09 1475.44 1583.9 1479.01 Q1585.73 1482.55 1589.34 1482.55 Q1592.97 1482.55 1594.78 1479.01 Q1596.61 1475.44 1596.61 1468.33 Q1596.61 1461.2 1594.78 1457.66 Q1592.97 1454.1 1589.34 1454.1 M1589.34 1450.39 Q1595.15 1450.39 1598.2 1455 Q1601.28 1459.58 1601.28 1468.33 Q1601.28 1477.06 1598.2 1481.67 Q1595.15 1486.25 1589.34 1486.25 Q1583.53 1486.25 1580.45 1481.67 Q1577.39 1477.06 1577.39 1468.33 Q1577.39 1459.58 1580.45 1455 Q1583.53 1450.39 1589.34 1450.39 Z" fill="#000000" fill-rule="nonzero" fill-opacity="1" /><path clip-path="url(#clip090)" d="M2160.41 1466.95 Q2163.77 1467.66 2165.64 1469.93 Q2167.54 1472.2 2167.54 1475.53 Q2167.54 1480.65 2164.02 1483.45 Q2160.5 1486.25 2154.02 1486.25 Q2151.84 1486.25 2149.53 1485.81 Q2147.24 1485.39 2144.78 1484.54 L2144.78 1480.02 Q2146.73 1481.16 2149.04 1481.74 Q2151.36 1482.32 2153.88 1482.32 Q2158.28 1482.32 2160.57 1480.58 Q2162.89 1478.84 2162.89 1475.53 Q2162.89 1472.48 2160.73 1470.77 Q2158.6 1469.03 2154.78 1469.03 L2150.76 1469.03 L2150.76 1465.19 L2154.97 1465.19 Q2158.42 1465.19 2160.25 1463.82 Q2162.08 1462.43 2162.08 1459.84 Q2162.08 1457.18 2160.18 1455.77 Q2158.3 1454.33 2154.78 1454.33 Q2152.86 1454.33 2150.66 1454.75 Q2148.46 1455.16 2145.83 1456.04 L2145.83 1451.88 Q2148.49 1451.14 2150.8 1450.77 Q2153.14 1450.39 2155.2 1450.39 Q2160.52 1450.39 2163.63 1452.83 Q2166.73 1455.23 2166.73 1459.35 Q2166.73 1462.22 2165.09 1464.21 Q2163.44 1466.18 2160.41 1466.95 Z" fill="#000000" fill-rule="nonzero" fill-opacity="1" /><path clip-path="url(#clip090)" d="M2186.4 1454.1 Q2182.79 1454.1 2180.96 1457.66 Q2179.16 1461.2 2179.16 1468.33 Q2179.16 1475.44 2180.96 1479.01 Q2182.79 1482.55 2186.4 1482.55 Q2190.04 1482.55 2191.84 1479.01 Q2193.67 1475.44 2193.67 1468.33 Q2193.67 1461.2 2191.84 1457.66 Q2190.04 1454.1 2186.4 1454.1 M2186.4 1450.39 Q2192.21 1450.39 2195.27 1455 Q2198.35 1459.58 2198.35 1468.33 Q2198.35 1477.06 2195.27 1481.67 Q2192.21 1486.25 2186.4 1486.25 Q2180.59 1486.25 2177.52 1481.67 Q2174.46 1477.06 2174.46 1468.33 Q2174.46 1459.58 2177.52 1455 Q2180.59 1450.39 2186.4 1450.39 Z" fill="#000000" fill-rule="nonzero" fill-opacity="1" /><path clip-path="url(#clip090)" d="M2216.57 1454.1 Q2212.96 1454.1 2211.13 1457.66 Q2209.32 1461.2 2209.32 1468.33 Q2209.32 1475.44 2211.13 1479.01 Q2212.96 1482.55 2216.57 1482.55 Q2220.2 1482.55 2222.01 1479.01 Q2223.83 1475.44 2223.83 1468.33 Q2223.83 1461.2 2222.01 1457.66 Q2220.2 1454.1 2216.57 1454.1 M2216.57 1450.39 Q2222.38 1450.39 2225.43 1455 Q2228.51 1459.58 2228.51 1468.33 Q2228.51 1477.06 2225.43 1481.67 Q2222.38 1486.25 2216.57 1486.25 Q2210.76 1486.25 2207.68 1481.67 Q2204.62 1477.06 2204.62 1468.33 Q2204.62 1459.58 2207.68 1455 Q2210.76 1450.39 2216.57 1450.39 Z" fill="#000000" fill-rule="nonzero" fill-opacity="1" /><path clip-path="url(#clip090)" d="M1286.34 1518.52 L1292.23 1518.52 L1292.23 1547.77 L1309.7 1532.4 L1317.18 1532.4 L1298.27 1549.07 L1317.98 1568.04 L1310.34 1568.04 L1292.23 1550.63 L1292.23 1568.04 L1286.34 1568.04 L1286.34 1518.52 Z" fill="#000000" fill-rule="nonzero" fill-opacity="1" /><polyline clip-path="url(#clip092)" style="stroke:#000000; stroke-linecap:round; stroke-linejoin:round; stroke-width:2; stroke-opacity:0.1; fill:none" points="251.56,1160.05 2352.76,1160.05 "/>
<polyline clip-path="url(#clip092)" style="stroke:#000000; stroke-linecap:round; stroke-linejoin:round; stroke-width:2; stroke-opacity:0.1; fill:none" points="251.56,599.232 2352.76,599.232 "/>
<polyline clip-path="url(#clip090)" style="stroke:#000000; stroke-linecap:round; stroke-linejoin:round; stroke-width:4; stroke-opacity:1; fill:none" points="251.56,1423.18 251.56,123.472 "/>
<polyline clip-path="url(#clip090)" style="stroke:#000000; stroke-linecap:round; stroke-linejoin:round; stroke-width:4; stroke-opacity:1; fill:none" points="251.56,1160.05 270.458,1160.05 "/>
<polyline clip-path="url(#clip090)" style="stroke:#000000; stroke-linecap:round; stroke-linejoin:round; stroke-width:4; stroke-opacity:1; fill:none" points="251.56,599.232 270.458,599.232 "/>
<path clip-path="url(#clip090)" d="M114.931 1179.84 L122.57 1179.84 L122.57 1153.47 L114.26 1155.14 L114.26 1150.88 L122.524 1149.21 L127.2 1149.21 L127.2 1179.84 L134.839 1179.84 L134.839 1183.77 L114.931 1183.77 L114.931 1179.84 Z" fill="#000000" fill-rule="nonzero" fill-opacity="1" /><path clip-path="url(#clip090)" d="M154.283 1152.29 Q150.672 1152.29 148.843 1155.86 Q147.038 1159.4 147.038 1166.53 Q147.038 1173.63 148.843 1177.2 Q150.672 1180.74 154.283 1180.74 Q157.917 1180.74 159.723 1177.2 Q161.552 1173.63 161.552 1166.53 Q161.552 1159.4 159.723 1155.86 Q157.917 1152.29 154.283 1152.29 M154.283 1148.59 Q160.093 1148.59 163.149 1153.19 Q166.227 1157.78 166.227 1166.53 Q166.227 1175.25 163.149 1179.86 Q160.093 1184.44 154.283 1184.44 Q148.473 1184.44 145.394 1179.86 Q142.339 1175.25 142.339 1166.53 Q142.339 1157.78 145.394 1153.19 Q148.473 1148.59 154.283 1148.59 Z" fill="#000000" fill-rule="nonzero" fill-opacity="1" /><path clip-path="url(#clip090)" d="M166.227 1142.69 L190.339 1142.69 L190.339 1145.89 L166.227 1145.89 L166.227 1142.69 Z" fill="#000000" fill-rule="nonzero" fill-opacity="1" /><path clip-path="url(#clip090)" d="M198.577 1128.28 L213.491 1128.28 L213.491 1131.48 L202.056 1131.48 L202.056 1138.36 Q202.884 1138.08 203.711 1137.95 Q204.539 1137.8 205.366 1137.8 Q210.068 1137.8 212.814 1140.38 Q215.56 1142.95 215.56 1147.35 Q215.56 1151.89 212.739 1154.41 Q209.918 1156.91 204.783 1156.91 Q203.015 1156.91 201.172 1156.61 Q199.348 1156.31 197.392 1155.7 L197.392 1151.89 Q199.085 1152.81 200.89 1153.26 Q202.696 1153.71 204.708 1153.71 Q207.962 1153.71 209.861 1152 Q211.761 1150.29 211.761 1147.35 Q211.761 1144.42 209.861 1142.71 Q207.962 1141 204.708 1141 Q203.185 1141 201.661 1141.34 Q200.157 1141.67 198.577 1142.39 L198.577 1128.28 Z" fill="#000000" fill-rule="nonzero" fill-opacity="1" /><path clip-path="url(#clip090)" d="M144.855 619.024 L152.493 619.024 L152.493 592.659 L144.183 594.325 L144.183 590.066 L152.447 588.399 L157.123 588.399 L157.123 619.024 L164.762 619.024 L164.762 622.959 L144.855 622.959 L144.855 619.024 Z" fill="#000000" fill-rule="nonzero" fill-opacity="1" /><path clip-path="url(#clip090)" d="M184.206 591.478 Q180.595 591.478 178.766 595.043 Q176.961 598.585 176.961 605.714 Q176.961 612.821 178.766 616.385 Q180.595 619.927 184.206 619.927 Q187.84 619.927 189.646 616.385 Q191.475 612.821 191.475 605.714 Q191.475 598.585 189.646 595.043 Q187.84 591.478 184.206 591.478 M184.206 587.774 Q190.016 587.774 193.072 592.381 Q196.151 596.964 196.151 605.714 Q196.151 614.441 193.072 619.047 Q190.016 623.631 184.206 623.631 Q178.396 623.631 175.317 619.047 Q172.262 614.441 172.262 605.714 Q172.262 596.964 175.317 592.381 Q178.396 587.774 184.206 587.774 Z" fill="#000000" fill-rule="nonzero" fill-opacity="1" /><path clip-path="url(#clip090)" d="M205.855 569.97 Q202.921 569.97 201.436 572.867 Q199.969 575.744 199.969 581.537 Q199.969 587.311 201.436 590.208 Q202.921 593.085 205.855 593.085 Q208.808 593.085 210.275 590.208 Q211.761 587.311 211.761 581.537 Q211.761 575.744 210.275 572.867 Q208.808 569.97 205.855 569.97 M205.855 566.961 Q210.576 566.961 213.059 570.704 Q215.56 574.428 215.56 581.537 Q215.56 588.628 213.059 592.371 Q210.576 596.094 205.855 596.094 Q201.135 596.094 198.633 592.371 Q196.151 588.628 196.151 581.537 Q196.151 574.428 198.633 570.704 Q201.135 566.961 205.855 566.961 Z" fill="#000000" fill-rule="nonzero" fill-opacity="1" /><path clip-path="url(#clip090)" d="M45.7664 817.313 Q39.4007 817.313 35.8996 819.955 Q32.3984 822.565 32.3984 827.307 Q32.3984 832.018 35.8996 834.66 Q39.4007 837.27 45.7664 837.27 Q52.1003 837.27 55.6014 834.66 Q59.1026 832.018 59.1026 827.307 Q59.1026 822.565 55.6014 819.955 Q52.1003 817.313 45.7664 817.313 M59.58 811.457 Q68.683 811.457 73.1071 815.499 Q77.5631 819.541 77.5631 827.88 Q77.5631 830.967 77.0857 833.705 Q76.6401 836.442 75.6852 839.02 L69.9879 839.02 Q71.3884 836.442 72.0568 833.928 Q72.7252 831.413 72.7252 828.803 Q72.7252 823.042 69.7015 820.178 Q66.7096 817.313 60.6303 817.313 L57.7339 817.313 Q60.885 819.127 62.4446 821.96 Q64.0042 824.793 64.0042 828.739 Q64.0042 835.296 59.0071 839.307 Q54.01 843.317 45.7664 843.317 Q37.491 843.317 32.4939 839.307 Q27.4968 835.296 27.4968 828.739 Q27.4968 824.793 29.0564 821.96 Q30.616 819.127 33.7671 817.313 L28.3562 817.313 L28.3562 811.457 L59.58 811.457 Z" fill="#000000" fill-rule="nonzero" fill-opacity="1" /><path clip-path="url(#clip090)" d="M33.8307 778.737 Q33.2578 779.724 33.0032 780.901 Q32.7167 782.047 32.7167 783.447 Q32.7167 788.413 35.9632 791.086 Q39.1779 793.728 45.2253 793.728 L64.0042 793.728 L64.0042 799.616 L28.3562 799.616 L28.3562 793.728 L33.8944 793.728 Q30.6479 791.882 29.0883 788.922 Q27.4968 785.962 27.4968 781.729 Q27.4968 781.124 27.5923 780.392 Q27.656 779.66 27.8151 778.769 L33.8307 778.737 Z" fill="#000000" fill-rule="nonzero" fill-opacity="1" /><path clip-path="url(#clip090)" d="M46.0847 756.393 Q46.0847 763.491 47.7079 766.228 Q49.3312 768.965 53.2461 768.965 Q56.3653 768.965 58.2114 766.928 Q60.0256 764.86 60.0256 761.327 Q60.0256 756.457 56.5881 753.529 Q53.1188 750.569 47.3897 750.569 L46.0847 750.569 L46.0847 756.393 M43.6657 744.712 L64.0042 744.712 L64.0042 750.569 L58.5933 750.569 Q61.8398 752.574 63.3994 755.566 Q64.9272 758.558 64.9272 762.886 Q64.9272 768.361 61.8716 771.607 Q58.7843 774.822 53.6281 774.822 Q47.6125 774.822 44.5569 770.812 Q41.5014 766.769 41.5014 758.78 L41.5014 750.569 L40.9285 750.569 Q36.8862 750.569 34.6901 753.242 Q32.4621 755.884 32.4621 760.69 Q32.4621 763.746 33.1941 766.642 Q33.9262 769.538 35.3903 772.212 L29.9795 772.212 Q28.7381 768.997 28.1334 765.974 Q27.4968 762.95 27.4968 760.085 Q27.4968 752.351 31.5072 748.532 Q35.5176 744.712 43.6657 744.712 Z" fill="#000000" fill-rule="nonzero" fill-opacity="1" /><path clip-path="url(#clip090)" d="M33.7671 709.191 L14.479 709.191 L14.479 703.335 L64.0042 703.335 L64.0042 709.191 L58.657 709.191 Q61.8398 711.038 63.3994 713.87 Q64.9272 716.671 64.9272 720.618 Q64.9272 727.079 59.771 731.153 Q54.6147 735.195 46.212 735.195 Q37.8093 735.195 32.6531 731.153 Q27.4968 727.079 27.4968 720.618 Q27.4968 716.671 29.0564 713.87 Q30.5842 711.038 33.7671 709.191 M46.212 729.148 Q52.6732 729.148 56.3653 726.506 Q60.0256 723.833 60.0256 719.186 Q60.0256 714.539 56.3653 711.865 Q52.6732 709.191 46.212 709.191 Q39.7508 709.191 36.0905 711.865 Q32.3984 714.539 32.3984 719.186 Q32.3984 723.833 36.0905 726.506 Q39.7508 729.148 46.212 729.148 Z" fill="#000000" fill-rule="nonzero" fill-opacity="1" /><path clip-path="url(#clip090)" d="M956.9 65.7705 L956.9 89.8329 L949.405 89.8329 L949.405 27.2059 L956.9 27.2059 L956.9 34.0924 Q959.249 30.0415 962.814 28.0971 Q966.419 26.1121 971.402 26.1121 Q979.666 26.1121 984.81 32.6746 Q989.995 39.2371 989.995 49.9314 Q989.995 60.6258 984.81 67.1883 Q979.666 73.7508 971.402 73.7508 Q966.419 73.7508 962.814 71.8063 Q959.249 69.8214 956.9 65.7705 M982.258 49.9314 Q982.258 41.7081 978.855 37.0496 Q975.493 32.3505 969.579 32.3505 Q963.665 32.3505 960.262 37.0496 Q956.9 41.7081 956.9 49.9314 Q956.9 58.1548 960.262 62.8538 Q963.665 67.5124 969.579 67.5124 Q975.493 67.5124 978.855 62.8538 Q982.258 58.1548 982.258 49.9314 Z" fill="#000000" fill-rule="nonzero" fill-opacity="1" /><path clip-path="url(#clip090)" d="M1028.64 34.1734 Q1027.39 33.4443 1025.89 33.1202 Q1024.43 32.7556 1022.65 32.7556 Q1016.33 32.7556 1012.92 36.8875 Q1009.56 40.9789 1009.56 48.6757 L1009.56 72.576 L1002.07 72.576 L1002.07 27.2059 L1009.56 27.2059 L1009.56 34.2544 Q1011.91 30.1225 1015.68 28.1376 Q1019.45 26.1121 1024.83 26.1121 Q1025.6 26.1121 1026.53 26.2337 Q1027.47 26.3147 1028.6 26.5172 L1028.64 34.1734 Z" fill="#000000" fill-rule="nonzero" fill-opacity="1" /><path clip-path="url(#clip090)" d="M1052.22 32.4315 Q1046.22 32.4315 1042.74 37.1306 Q1039.25 41.7891 1039.25 49.9314 Q1039.25 58.0738 1042.7 62.7728 Q1046.18 67.4314 1052.22 67.4314 Q1058.17 67.4314 1061.66 62.7323 Q1065.14 58.0333 1065.14 49.9314 Q1065.14 41.8701 1061.66 37.1711 Q1058.17 32.4315 1052.22 32.4315 M1052.22 26.1121 Q1061.94 26.1121 1067.49 32.4315 Q1073.04 38.7509 1073.04 49.9314 Q1073.04 61.0714 1067.49 67.4314 Q1061.94 73.7508 1052.22 73.7508 Q1042.45 73.7508 1036.9 67.4314 Q1031.4 61.0714 1031.4 49.9314 Q1031.4 38.7509 1036.9 32.4315 Q1042.45 26.1121 1052.22 26.1121 Z" fill="#000000" fill-rule="nonzero" fill-opacity="1" /><path clip-path="url(#clip090)" d="M1117.96 49.9314 Q1117.96 41.7081 1114.56 37.0496 Q1111.2 32.3505 1105.28 32.3505 Q1099.37 32.3505 1095.97 37.0496 Q1092.6 41.7081 1092.6 49.9314 Q1092.6 58.1548 1095.97 62.8538 Q1099.37 67.5124 1105.28 67.5124 Q1111.2 67.5124 1114.56 62.8538 Q1117.96 58.1548 1117.96 49.9314 M1092.6 34.0924 Q1094.95 30.0415 1098.52 28.0971 Q1102.12 26.1121 1107.11 26.1121 Q1115.37 26.1121 1120.52 32.6746 Q1125.7 39.2371 1125.7 49.9314 Q1125.7 60.6258 1120.52 67.1883 Q1115.37 73.7508 1107.11 73.7508 Q1102.12 73.7508 1098.52 71.8063 Q1094.95 69.8214 1092.6 65.7705 L1092.6 72.576 L1085.11 72.576 L1085.11 9.54393 L1092.6 9.54393 L1092.6 34.0924 Z" fill="#000000" fill-rule="nonzero" fill-opacity="1" /><path clip-path="url(#clip090)" d="M1138.06 9.54393 L1145.51 9.54393 L1145.51 72.576 L1138.06 72.576 L1138.06 9.54393 Z" fill="#000000" fill-rule="nonzero" fill-opacity="1" /><path clip-path="url(#clip090)" d="M1199.91 48.0275 L1199.91 51.6733 L1165.64 51.6733 Q1166.13 59.3701 1170.26 63.421 Q1174.43 67.4314 1181.85 67.4314 Q1186.14 67.4314 1190.15 66.3781 Q1194.2 65.3249 1198.17 63.2184 L1198.17 70.267 Q1194.16 71.9684 1189.95 72.8596 Q1185.74 73.7508 1181.4 73.7508 Q1170.54 73.7508 1164.18 67.4314 Q1157.86 61.1119 1157.86 50.3365 Q1157.86 39.1965 1163.86 32.6746 Q1169.9 26.1121 1180.1 26.1121 Q1189.26 26.1121 1194.57 32.0264 Q1199.91 37.9003 1199.91 48.0275 M1192.46 45.84 Q1192.38 39.7232 1189.02 36.0774 Q1185.69 32.4315 1180.19 32.4315 Q1173.95 32.4315 1170.18 35.9558 Q1166.45 39.4801 1165.89 45.8805 L1192.46 45.84 M1173.78 6.22219 L1185.21 21.3726 L1179.01 21.3726 L1165.8 6.22219 L1173.78 6.22219 Z" fill="#000000" fill-rule="nonzero" fill-opacity="1" /><path clip-path="url(#clip090)" d="M1247.47 35.9153 Q1250.27 30.8922 1254.15 28.5022 Q1258.04 26.1121 1263.31 26.1121 Q1270.4 26.1121 1274.25 31.0947 Q1278.1 36.0368 1278.1 45.1919 L1278.1 72.576 L1270.6 72.576 L1270.6 45.4349 Q1270.6 38.913 1268.29 35.7533 Q1265.98 32.5936 1261.24 32.5936 Q1255.45 32.5936 1252.09 36.4419 Q1248.73 40.2903 1248.73 46.9338 L1248.73 72.576 L1241.23 72.576 L1241.23 45.4349 Q1241.23 38.8725 1238.92 35.7533 Q1236.61 32.5936 1231.79 32.5936 Q1226.08 32.5936 1222.72 36.4824 Q1219.36 40.3308 1219.36 46.9338 L1219.36 72.576 L1211.86 72.576 L1211.86 27.2059 L1219.36 27.2059 L1219.36 34.2544 Q1221.91 30.082 1225.47 28.0971 Q1229.04 26.1121 1233.94 26.1121 Q1238.88 26.1121 1242.33 28.6237 Q1245.81 31.1352 1247.47 35.9153 Z" fill="#000000" fill-rule="nonzero" fill-opacity="1" /><path clip-path="url(#clip090)" d="M1331.77 48.0275 L1331.77 51.6733 L1297.5 51.6733 Q1297.99 59.3701 1302.12 63.421 Q1306.29 67.4314 1313.7 67.4314 Q1318 67.4314 1322.01 66.3781 Q1326.06 65.3249 1330.03 63.2184 L1330.03 70.267 Q1326.02 71.9684 1321.8 72.8596 Q1317.59 73.7508 1313.26 73.7508 Q1302.4 73.7508 1296.04 67.4314 Q1289.72 61.1119 1289.72 50.3365 Q1289.72 39.1965 1295.72 32.6746 Q1301.75 26.1121 1311.96 26.1121 Q1321.12 26.1121 1326.42 32.0264 Q1331.77 37.9003 1331.77 48.0275 M1324.32 45.84 Q1324.24 39.7232 1320.87 36.0774 Q1317.55 32.4315 1312.04 32.4315 Q1305.8 32.4315 1302.04 35.9558 Q1298.31 39.4801 1297.74 45.8805 L1324.32 45.84 Z" fill="#000000" fill-rule="nonzero" fill-opacity="1" /><path clip-path="url(#clip090)" d="M1372.28 62.2867 L1380.83 62.2867 L1380.83 72.576 L1372.28 72.576 L1372.28 62.2867 M1372.28 29.6769 L1380.83 29.6769 L1380.83 39.9662 L1372.28 39.9662 L1372.28 29.6769 Z" fill="#000000" fill-rule="nonzero" fill-opacity="1" /><path clip-path="url(#clip090)" d="M1432.07 14.324 L1432.07 27.2059 L1447.42 27.2059 L1447.42 32.9987 L1432.07 32.9987 L1432.07 57.6282 Q1432.07 63.1779 1433.57 64.7578 Q1435.11 66.3376 1439.77 66.3376 L1447.42 66.3376 L1447.42 72.576 L1439.77 72.576 Q1431.14 72.576 1427.86 69.3758 Q1424.58 66.1351 1424.58 57.6282 L1424.58 32.9987 L1419.11 32.9987 L1419.11 27.2059 L1424.58 27.2059 L1424.58 14.324 L1432.07 14.324 Z" fill="#000000" fill-rule="nonzero" fill-opacity="1" /><path clip-path="url(#clip090)" d="M1464.44 65.7705 L1464.44 89.8329 L1456.94 89.8329 L1456.94 27.2059 L1464.44 27.2059 L1464.44 34.0924 Q1466.79 30.0415 1470.35 28.0971 Q1473.96 26.1121 1478.94 26.1121 Q1487.2 26.1121 1492.35 32.6746 Q1497.53 39.2371 1497.53 49.9314 Q1497.53 60.6258 1492.35 67.1883 Q1487.2 73.7508 1478.94 73.7508 Q1473.96 73.7508 1470.35 71.8063 Q1466.79 69.8214 1464.44 65.7705 M1489.8 49.9314 Q1489.8 41.7081 1486.39 37.0496 Q1483.03 32.3505 1477.12 32.3505 Q1471.2 32.3505 1467.8 37.0496 Q1464.44 41.7081 1464.44 49.9314 Q1464.44 58.1548 1467.8 62.8538 Q1471.2 67.5124 1477.12 67.5124 Q1483.03 67.5124 1486.39 62.8538 Q1489.8 58.1548 1489.8 49.9314 Z" fill="#000000" fill-rule="nonzero" fill-opacity="1" /><path clip-path="url(#clip090)" d="M1517.99 65.6895 L1546.55 65.6895 L1546.55 72.576 L1508.15 72.576 L1508.15 65.6895 Q1512.81 60.8689 1520.83 52.7671 Q1528.89 44.6248 1530.95 42.2752 Q1534.88 37.8598 1536.42 34.8216 Q1538 31.7429 1538 28.7857 Q1538 23.9651 1534.6 20.927 Q1531.24 17.8888 1525.81 17.8888 Q1521.96 17.8888 1517.67 19.2256 Q1513.41 20.5624 1508.55 23.2765 L1508.55 15.0127 Q1513.49 13.0277 1517.79 12.015 Q1522.08 11.0023 1525.65 11.0023 Q1535.04 11.0023 1540.63 15.7013 Q1546.23 20.4004 1546.23 28.2591 Q1546.23 31.9859 1544.81 35.3482 Q1543.43 38.6699 1539.74 43.2069 Q1538.73 44.3817 1533.3 50.0125 Q1527.87 55.6027 1517.99 65.6895 Z" fill="#000000" fill-rule="nonzero" fill-opacity="1" /><path clip-path="url(#clip090)" d="M1582.24 39.075 Q1576.73 39.075 1573.49 42.8424 Q1570.29 46.6097 1570.29 53.1722 Q1570.29 59.6941 1573.49 63.502 Q1576.73 67.2693 1582.24 67.2693 Q1587.75 67.2693 1590.95 63.502 Q1594.19 59.6941 1594.19 53.1722 Q1594.19 46.6097 1590.95 42.8424 Q1587.75 39.075 1582.24 39.075 M1598.48 13.4328 L1598.48 20.8865 Q1595.4 19.4281 1592.24 18.6585 Q1589.12 17.8888 1586.05 17.8888 Q1577.94 17.8888 1573.65 23.3575 Q1569.4 28.8262 1568.79 39.8852 Q1571.18 36.3609 1574.78 34.4975 Q1578.39 32.5936 1582.72 32.5936 Q1591.84 32.5936 1597.1 38.1433 Q1602.41 43.6525 1602.41 53.1722 Q1602.41 62.4892 1596.9 68.12 Q1591.39 73.7508 1582.24 73.7508 Q1571.75 73.7508 1566.2 65.73 Q1560.65 57.6687 1560.65 42.3968 Q1560.65 28.0566 1567.45 19.5497 Q1574.26 11.0023 1585.72 11.0023 Q1588.8 11.0023 1591.92 11.6099 Q1595.08 12.2175 1598.48 13.4328 Z" fill="#000000" fill-rule="nonzero" fill-opacity="1" /><path clip-path="url(#clip090)" d="M1634.01 17.4837 Q1627.69 17.4837 1624.49 23.7221 Q1621.33 29.92 1621.33 42.3968 Q1621.33 54.833 1624.49 61.0714 Q1627.69 67.2693 1634.01 67.2693 Q1640.37 67.2693 1643.53 61.0714 Q1646.73 54.833 1646.73 42.3968 Q1646.73 29.92 1643.53 23.7221 Q1640.37 17.4837 1634.01 17.4837 M1634.01 11.0023 Q1644.18 11.0023 1649.52 19.0636 Q1654.91 27.0843 1654.91 42.3968 Q1654.91 57.6687 1649.52 65.73 Q1644.18 73.7508 1634.01 73.7508 Q1623.84 73.7508 1618.45 65.73 Q1613.11 57.6687 1613.11 42.3968 Q1613.11 27.0843 1618.45 19.0636 Q1623.84 11.0023 1634.01 11.0023 Z" fill="#000000" fill-rule="nonzero" fill-opacity="1" /><polyline clip-path="url(#clip092)" style="stroke:#009af9; stroke-linecap:round; stroke-linejoin:round; stroke-width:4; stroke-opacity:1; fill:none" points="311.028,160.256 317.301,271.382 323.574,375.976 329.847,512.473 336.12,718.34 342.393,911.521 348.666,911.521 354.939,911.521 361.212,911.521 367.485,911.521 373.758,911.521 380.031,911.521 386.304,911.521 392.577,994.24 398.85,994.24 405.123,1001.93 411.396,999.769 417.669,994.578 423.942,994.578 430.215,999.023 436.488,997.326 442.761,993.248 449.033,985.31 455.306,985.31 461.579,993.051 467.852,989.971 474.125,983.377 480.398,983.377 486.671,989.44 492.944,987.108 499.217,981.787 505.49,981.787 511.763,986.373 518.036,984.624 524.309,980.436 530.582,972.356 536.855,972.356 543.128,980.281 549.401,977.112 555.674,970.377 561.947,970.377 568.22,976.61 574.493,974.207 580.766,968.756 587.039,968.756 593.312,973.487 599.585,971.683 605.858,967.383 612.131,959.162 618.404,959.162 624.677,967.273 630.95,964.012 637.223,957.136 643.496,957.136 649.769,963.539 656.042,961.063 662.315,955.482 668.588,955.482 674.861,960.361 681.134,958.501 687.407,954.086 693.68,945.724 699.952,945.724 706.225,954.022 712.498,950.667 718.771,943.65 725.044,943.65 731.317,950.226 737.59,947.675 743.863,941.961 750.136,941.961 756.409,946.99 762.682,945.072 768.955,940.541 775.228,940.541 781.501,944.26 787.774,942.826 794.047,939.311 800.32,932.15 806.593,932.15 812.866,938.902 819.139,936.273 825.412,930.426 831.685,930.426 837.958,935.608 844.231,933.63 850.504,928.981 856.777,928.981 863.05,932.826 869.323,931.347 875.596,927.732 881.869,920.427 888.142,920.427 894.415,927.357 900.688,924.649 906.961,918.665 913.234,918.665 919.507,924.004 925.78,921.964 932.053,917.194 938.326,917.194 944.599,921.169 950.871,919.643 957.144,915.926 963.417,908.474 969.69,908.474 975.963,915.585 982.236,912.796 988.509,906.672 994.782,906.672 1001.06,912.172 1007.33,910.068 1013.6,905.173 1019.87,905.173 1026.15,909.282 1032.42,907.707 1038.69,903.884 1044.97,896.28 1051.24,896.28 1057.51,903.58 1063.79,900.706 1070.06,894.437 1076.33,894.437 1082.6,900.103 1088.88,897.933 1095.15,892.908 1101.42,892.908 1107.7,897.156 1113.97,895.53 1120.24,891.597 1126.51,883.831 1132.79,883.831 1139.06,891.329 1145.33,888.367 1151.61,881.943 1157.88,881.943 1164.15,887.786 1170.43,885.545 1176.7,880.382 1182.97,880.382 1189.24,884.778 1195.52,883.098 1201.79,879.048 1208.06,871.102 1214.34,871.102 1220.61,878.817 1226.88,875.76 1233.16,869.167 1239.43,869.167 1245.7,875.201 1251.97,872.886 1258.25,867.571 1264.52,867.571 1270.79,872.127 1277.07,870.389 1283.34,866.21 1289.61,858.05 1295.89,858.05 1302.16,866.017 1308.43,862.856 1314.7,856.063 1320.98,856.063 1327.25,862.318 1333.52,859.92 1339.8,854.428 1346.07,854.428 1352.34,859.166 1358.61,857.364 1364.89,853.037 1371.16,844.6 1377.43,844.6 1383.71,852.884 1389.98,849.603 1396.25,842.554 1402.53,842.554 1408.8,849.083 1415.07,846.589 1421.34,840.875 1427.62,840.875 1433.89,845.836 1440.16,843.96 1446.44,839.447 1452.71,830.614 1458.98,830.614 1465.26,839.337 1471.53,835.908 1477.8,828.498 1484.07,828.498 1490.35,835.403 1496.62,832.79 1502.89,826.766 1509.17,826.766 1515.44,832.028 1521.71,830.058 1527.99,825.291 1534.26,825.291 1540.53,829.162 1546.8,827.685 1553.08,823.994 1559.35,816.103 1565.62,816.103 1571.9,823.5 1578.17,820.74 1584.44,814.306 1590.71,814.306 1596.99,819.963 1603.26,817.876 1609.53,812.775 1615.81,812.775 1622.08,816.943 1628.35,815.375 1634.63,811.421 1640.9,802.794 1647.17,802.794 1653.44,810.936 1659.72,807.972 1665.99,800.907 1672.26,800.907 1678.54,807.161 1684.81,804.912 1691.08,799.296 1697.36,799.296 1703.63,803.911 1709.9,802.216 1716.17,797.858 1722.45,788.028 1728.72,788.028 1734.99,797.38 1741.27,794.1 1747.54,785.988 1753.81,785.988 1760.09,793.226 1766.36,790.724 1772.63,784.242 1778.9,784.242 1785.18,789.605 1791.45,787.707 1797.72,782.665 1804,770.752 1810.27,770.752 1816.54,782.198 1822.81,778.373 1829.09,768.377 1835.36,768.377 1841.63,777.389 1847.91,774.439 1854.18,766.345 1860.45,766.345 1866.73,773.108 1873,770.846 1879.27,764.491 1885.54,748.771 1891.82,748.771 1898.09,764.066 1904.36,759.152 1910.64,745.459 1916.91,745.459 1923.18,757.979 1929.46,754.092 1935.73,742.591 1942,742.591 1948.27,752.351 1954.55,749.296 1960.82,739.963 1967.09,716.898 1973.37,716.898 1979.64,739.657 1985.91,732.018 1992.19,710.241 1998.46,710.241 2004.73,730.47 2011,723.958 2017.28,703.817 2023.55,703.817 2029.82,721.239 2036.1,715.682 2042.37,697.431 2048.64,659.413 2054.92,659.413 2061.19,696.151 2067.46,678.059 2073.73,636.158 2080.01,636.158 2086.28,672.711 2092.55,651.657 2098.83,602.938 2105.1,537.923 2111.37,537.923 2117.64,555.609 2123.92,555.609 2130.19,592.148 2136.46,576.546 2142.74,520.209 2149.01,520.209 2155.28,590.762 2161.56,594.546 2167.83,569.178 2174.1,528.681 2180.37,493.486 2186.65,467.784 2192.92,452.027 2199.19,429.92 2205.47,344.711 2211.74,344.711 2218.01,489.509 2224.29,514.212 2230.56,604.777 2236.83,744.457 2243.1,744.457 2249.38,946.612 2255.65,946.612 2261.92,964.331 2268.2,987.837 2274.47,1027.11 2280.74,1027.11 2287.02,1037.98 2293.29,1057.62 "/>
<polyline clip-path="url(#clip092)" style="stroke:#e26f46; stroke-linecap:round; stroke-linejoin:round; stroke-width:4; stroke-opacity:1; fill:none" points="311.028,160.256 317.301,271.382 323.574,375.976 329.847,512.473 336.12,718.34 342.393,911.521 348.666,959.759 354.939,952.816 361.212,945.519 367.485,938.214 373.758,930.908 380.031,923.599 386.304,916.286 392.577,908.967 398.85,901.64 405.123,894.302 411.396,886.947 417.669,879.57 423.942,872.16 430.215,864.707 436.488,857.194 442.761,849.601 449.033,841.898 455.306,834.05 461.579,826.012 467.852,817.724 474.125,809.12 480.398,800.117 486.671,790.625 492.944,780.55 499.217,769.794 505.49,758.264 511.763,745.866 518.036,732.506 524.309,718.065 530.582,702.383 536.855,685.215 543.128,666.182 549.401,644.687 555.674,619.798 561.947,590.038 568.22,553.12 574.493,553.12 580.766,553.12 587.039,553.12 593.312,553.12 599.585,553.12 605.858,553.12 612.131,519.632 618.404,519.632 624.677,575.406 630.95,575.406 637.223,574.295 643.496,500.171 649.769,501.242 656.042,474.785 662.315,510.609 668.588,471.081 674.861,543.356 681.134,525.687 687.407,500.248 693.68,543.611 699.952,527.514 706.225,578.46 712.498,578.46 718.771,578.46 725.044,520.064 731.317,608.464 737.59,594.744 743.863,578.571 750.136,584.328 756.409,597.744 762.682,531.985 768.955,603.005 775.228,912.304 781.501,1386.4 "/>
<polyline clip-path="url(#clip092)" style="stroke:#3da44d; stroke-linecap:round; stroke-linejoin:round; stroke-width:4; stroke-opacity:1; fill:none" points="311.028,160.256 317.301,271.382 323.574,375.976 329.847,512.473 336.12,718.34 342.393,718.34 348.666,718.34 354.939,718.34 361.212,718.34 367.485,718.34 373.758,718.34 380.031,718.34 386.304,718.34 392.577,718.34 398.85,783.81 405.123,811.924 411.396,835.401 417.669,873.434 423.942,930.417 430.215,993.521 436.488,1005 442.761,997.351 449.033,985.879 455.306,985.879 461.579,998.919 467.852,992.41 474.125,981.862 480.398,981.862 486.671,993.332 492.944,988.089 499.217,978.703 505.49,978.703 511.763,988.419 518.036,984.301 524.309,976.221 530.582,964.666 536.855,964.666 543.128,977.849 549.401,971.202 555.674,960.545 561.947,960.545 568.22,972.189 574.493,966.819 580.766,957.302 587.039,957.302 593.312,967.205 599.585,962.976 605.858,954.756 612.131,943.123 618.404,943.123 624.677,956.447 630.95,949.66 637.223,938.897 643.496,938.897 649.769,950.713 656.042,945.213 662.315,935.567 668.588,935.567 674.861,945.657 681.134,941.315 687.407,932.953 693.68,921.241 699.952,921.241 706.225,934.707 712.498,927.779 718.771,916.905 725.044,916.905 731.317,928.896 737.59,923.264 743.863,913.484 750.136,913.484 756.409,923.765 762.682,919.307 768.955,910.799 775.228,898.994 781.501,898.994 787.774,912.615 794.047,905.54 800.32,894.539 806.593,894.539 812.866,906.722 819.139,900.952 825.412,891.021 831.685,891.021 837.958,901.512 844.231,896.932 850.504,888.259 856.777,876.311 863.05,876.311 869.323,890.144 875.596,882.903 881.869,871.719 888.142,871.719 894.415,884.157 900.688,878.229 906.961,868.088 913.234,868.088 919.507,878.852 925.78,874.132 932.053,865.239 938.326,852.999 944.599,852.999 950.871,867.217 957.144,859.756 963.417,848.223 969.69,848.223 975.963,861.104 982.236,854.968 988.509,844.444 994.782,844.444 1001.06,855.669 1007.33,850.762 1013.6,841.482 1019.87,828.539 1026.15,828.539 1032.42,843.639 1038.69,835.796 1044.97,823.446 1051.24,823.446 1057.51,837.313 1063.79,830.814 1070.06,819.416 1076.33,819.416 1082.6,831.645 1088.88,826.415 1095.15,816.27 1101.42,801.548 1107.7,801.548 1113.97,818.854 1120.24,810.156 1126.51,795.748 1132.79,795.748 1139.06,812.071 1145.33,804.746 1151.61,791.123 1157.88,791.123 1164.15,805.882 1170.43,799.903 1176.7,787.513 1182.97,768.534 1189.24,768.534 1195.52,791.207 1201.79,780.211 1208.06,760.751 1214.34,760.751 1220.61,783.194 1226.88,773.53 1233.16,754.167 1239.43,754.167 1245.7,775.53 1251.97,767.291 1258.25,748.679 1264.52,748.679 1270.79,768.203 1277.07,761.365 1283.34,744.123 1289.61,715.552 1295.89,715.552 1302.16,749.115 1308.43,733 1314.7,702.375 1320.98,702.375 1327.25,736.778 1333.52,721.182 1339.8,688.589 1346.07,648.018 1352.34,648.018 1358.61,691.742 1364.89,655.332 1371.16,606.579 1377.43,606.579 1383.71,646.878 1389.98,600.031 1396.25,536.684 1402.53,445.744 1408.8,331.533 1415.07,331.533 1421.34,465.421 1427.62,447.324 1433.89,451.083 1440.16,364.749 1446.44,439.919 1452.71,439.919 1458.98,576.956 1465.26,576.956 1471.53,576.956 1477.8,722.055 1484.07,745.524 1490.35,745.524 1496.62,746.066 1502.89,746.925 1509.17,748.477 1515.44,748.477 1521.71,748.789 1527.99,749.402 1534.26,750.614 1540.53,752.992 1546.8,752.992 1553.08,753.496 1559.35,754.467 1565.62,756.383 1571.9,756.383 1578.17,756.78 1584.44,757.557 1590.71,759.098 1596.99,762.11 1603.26,762.11 1609.53,762.761 1615.81,763.999 1622.08,766.434 1628.35,766.434 1634.63,766.942 1640.9,767.935 1647.17,769.896 1653.44,773.704 1659.72,773.704 1665.99,774.547 1672.26,776.123 1678.54,779.214 1684.81,785.059 1691.08,785.059 1697.36,786.516 1703.63,789.011 1709.9,793.834 1716.17,793.834 1722.45,794.904 1728.72,796.912 1734.99,800.833 1741.27,808.23 1747.54,808.23 1753.81,810.041 1760.09,813.211 1766.36,819.317 1772.63,819.317 1778.9,820.663 1785.18,823.218 1791.45,828.187 1797.72,837.545 1804,837.545 1810.27,839.758 1816.54,843.782 1822.81,851.492 1829.09,865.628 1835.36,865.628 1841.63,869.199 1847.91,875.485 1854.18,887.295 1860.45,908.377 1866.73,908.377 1873,913.837 1879.27,923.541 1885.54,941.306 1891.82,971.975 1898.09,971.975 1904.36,980.067 1910.64,994.788 1916.91,1020.79 1923.18,1063.65 "/>
<polyline clip-path="url(#clip092)" style="stroke:#c271d2; stroke-linecap:round; stroke-linejoin:round; stroke-width:4; stroke-opacity:1; fill:none" points="311.028,160.256 317.301,271.382 323.574,375.976 329.847,512.473 336.12,718.34 342.393,911.521 348.666,959.759 354.939,952.816 361.212,945.519 367.485,938.214 373.758,930.908 380.031,923.599 386.304,916.286 392.577,908.967 398.85,901.64 405.123,894.302 411.396,886.947 417.669,879.57 423.942,872.16 430.215,864.707 436.488,857.194 442.761,849.601 449.033,841.898 455.306,834.05 461.579,826.012 467.852,817.724 474.125,809.12 480.398,800.117 486.671,790.625 492.944,780.55 499.217,769.794 505.49,758.264 511.763,745.866 518.036,732.506 524.309,718.065 530.582,702.383 536.855,685.215 543.128,666.182 549.401,644.687 555.674,619.798 561.947,590.038 568.22,553.12 574.493,553.12 580.766,614.017 587.039,600.162 593.312,570.982 599.585,527.907 605.858,544.338 612.131,520.12 618.404,572.647 624.677,572.647 630.95,572.647 637.223,572.647 643.496,572.647 649.769,572.647 656.042,572.647 662.315,572.647 668.588,480.263 674.861,492.14 681.134,530.981 687.407,473.935 693.68,543.869 699.952,497.423 706.225,542.879 712.498,534.404 718.771,567.176 725.044,514.196 731.317,618.064 737.59,622.588 743.863,629.183 750.136,634.907 756.409,639.999 762.682,644.619 768.955,648.889 775.228,652.894 781.501,656.695 787.774,660.336 794.047,663.849 800.32,667.259 806.593,670.584 812.866,673.839 819.139,677.036 825.412,680.182 831.685,683.287 837.958,686.357 844.231,689.395 850.504,692.407 856.777,695.397 863.05,524.157 869.323,801.572 875.596,1351.37 "/>
<polyline clip-path="url(#clip092)" style="stroke:#ac8d18; stroke-linecap:round; stroke-linejoin:round; stroke-width:4; stroke-opacity:1; fill:none" points="311.028,160.256 317.301,271.382 323.574,375.976 329.847,512.473 336.12,718.34 342.393,911.521 348.666,959.759 354.939,952.816 361.212,945.519 367.485,938.214 373.758,930.908 380.031,923.599 386.304,916.286 392.577,908.967 398.85,901.64 405.123,894.302 411.396,886.947 417.669,879.57 423.942,872.16 430.215,864.707 436.488,857.194 442.761,849.601 449.033,841.898 455.306,834.05 461.579,826.012 467.852,817.724 474.125,809.12 480.398,800.117 486.671,790.625 492.944,780.55 499.217,769.794 505.49,758.264 511.763,745.866 518.036,732.506 524.309,718.065 530.582,702.383 536.855,685.215 543.128,666.182 549.401,644.687 555.674,619.798 561.947,590.038 568.22,553.12 574.493,553.12 580.766,553.12 587.039,553.12 593.312,553.12 599.585,553.12 605.858,553.12 612.131,519.632 618.404,519.632 624.677,510.385 630.95,510.385 637.223,576.69 643.496,545.58 649.769,495.601 656.042,540.668 662.315,490.429 668.588,467.569 674.861,484.904 681.134,484.904 687.407,566.172 693.68,535.243 699.952,535.243 706.225,595.826 712.498,568.788 718.771,502.534 725.044,502.534 731.317,578.85 737.59,593.445 743.863,562.558 750.136,534.895 756.409,523.724 762.682,522.846 768.955,542.972 775.228,596.19 781.501,696.989 787.774,857.217 794.047,1076.14 "/>
<path clip-path="url(#clip090)" d="M1749.5 477.836 L2282.72 477.836 L2282.72 166.796 L1749.5 166.796  Z" fill="#ffffff" fill-rule="evenodd" fill-opacity="1"/>
<polyline clip-path="url(#clip090)" style="stroke:#000000; stroke-linecap:round; stroke-linejoin:round; stroke-width:4; stroke-opacity:1; fill:none" points="1749.5,477.836 2282.72,477.836 2282.72,166.796 1749.5,166.796 1749.5,477.836 "/>
<polyline clip-path="url(#clip090)" style="stroke:#009af9; stroke-linecap:round; stroke-linejoin:round; stroke-width:4; stroke-opacity:1; fill:none" points="1772.84,218.636 1912.92,218.636 "/>
<path clip-path="url(#clip090)" d="M1936.27 201.356 L1940.95 201.356 L1940.95 231.981 L1957.77 231.981 L1957.77 235.916 L1936.27 235.916 L1936.27 201.356 Z" fill="#000000" fill-rule="nonzero" fill-opacity="1" /><path clip-path="url(#clip090)" d="M1962.68 201.356 L1969.65 201.356 L1978.47 224.874 L1987.33 201.356 L1994.3 201.356 L1994.3 235.916 L1989.74 235.916 L1989.74 205.569 L1980.83 229.272 L1976.13 229.272 L1967.22 205.569 L1967.22 235.916 L1962.68 235.916 L1962.68 201.356 Z" fill="#000000" fill-rule="nonzero" fill-opacity="1" /><path clip-path="url(#clip090)" d="M2023.1 243.786 L2023.1 247.096 L1998.47 247.096 L1998.47 243.786 L2023.1 243.786 Z" fill="#000000" fill-rule="nonzero" fill-opacity="1" /><path clip-path="url(#clip090)" d="M2048 202.49 L2048 207.05 Q2045.34 205.777 2042.98 205.152 Q2040.62 204.527 2038.42 204.527 Q2034.6 204.527 2032.52 206.008 Q2030.46 207.49 2030.46 210.221 Q2030.46 212.513 2031.82 213.694 Q2033.21 214.851 2037.06 215.569 L2039.88 216.147 Q2045.11 217.143 2047.59 219.666 Q2050.09 222.166 2050.09 226.379 Q2050.09 231.402 2046.71 233.994 Q2043.35 236.587 2036.85 236.587 Q2034.39 236.587 2031.62 236.031 Q2028.86 235.476 2025.9 234.388 L2025.9 229.573 Q2028.75 231.17 2031.48 231.981 Q2034.21 232.791 2036.85 232.791 Q2040.85 232.791 2043.03 231.217 Q2045.2 229.643 2045.2 226.726 Q2045.2 224.18 2043.63 222.744 Q2042.08 221.309 2038.51 220.592 L2035.67 220.036 Q2030.44 218.995 2028.1 216.772 Q2025.76 214.55 2025.76 210.592 Q2025.76 206.008 2028.98 203.37 Q2032.22 200.731 2037.89 200.731 Q2040.32 200.731 2042.84 201.171 Q2045.37 201.61 2048 202.49 Z" fill="#000000" fill-rule="nonzero" fill-opacity="1" /><path clip-path="url(#clip090)" d="M2062.06 205.198 L2062.06 218.184 L2067.94 218.184 Q2071.2 218.184 2072.98 216.495 Q2074.76 214.805 2074.76 211.68 Q2074.76 208.578 2072.98 206.888 Q2071.2 205.198 2067.94 205.198 L2062.06 205.198 M2057.38 201.356 L2067.94 201.356 Q2073.75 201.356 2076.71 203.995 Q2079.69 206.61 2079.69 211.68 Q2079.69 216.795 2076.71 219.411 Q2073.75 222.027 2067.94 222.027 L2062.06 222.027 L2062.06 235.916 L2057.38 235.916 L2057.38 201.356 Z" fill="#000000" fill-rule="nonzero" fill-opacity="1" /><path clip-path="url(#clip090)" d="M2109.53 230.985 L2109.53 221.703 L2101.89 221.703 L2101.89 217.86 L2114.16 217.86 L2114.16 232.698 Q2111.45 234.619 2108.19 235.615 Q2104.93 236.587 2101.22 236.587 Q2093.12 236.587 2088.54 231.865 Q2083.98 227.119 2083.98 218.67 Q2083.98 210.198 2088.54 205.476 Q2093.12 200.731 2101.22 200.731 Q2104.6 200.731 2107.63 201.564 Q2110.69 202.397 2113.26 204.018 L2113.26 208.995 Q2110.67 206.796 2107.75 205.684 Q2104.83 204.573 2101.62 204.573 Q2095.27 204.573 2092.08 208.115 Q2088.91 211.657 2088.91 218.67 Q2088.91 225.661 2092.08 229.203 Q2095.27 232.744 2101.62 232.744 Q2104.09 232.744 2106.04 232.328 Q2107.98 231.888 2109.53 230.985 Z" fill="#000000" fill-rule="nonzero" fill-opacity="1" /><polyline clip-path="url(#clip090)" style="stroke:#e26f46; stroke-linecap:round; stroke-linejoin:round; stroke-width:4; stroke-opacity:1; fill:none" points="1772.84,270.476 1912.92,270.476 "/>
<path clip-path="url(#clip090)" d="M1936.27 253.196 L1940.95 253.196 L1940.95 283.821 L1957.77 283.821 L1957.77 287.756 L1936.27 287.756 L1936.27 253.196 Z" fill="#000000" fill-rule="nonzero" fill-opacity="1" /><path clip-path="url(#clip090)" d="M1962.68 253.196 L1969.65 253.196 L1978.47 276.714 L1987.33 253.196 L1994.3 253.196 L1994.3 287.756 L1989.74 287.756 L1989.74 257.409 L1980.83 281.112 L1976.13 281.112 L1967.22 257.409 L1967.22 287.756 L1962.68 287.756 L1962.68 253.196 Z" fill="#000000" fill-rule="nonzero" fill-opacity="1" /><path clip-path="url(#clip090)" d="M2023.1 295.626 L2023.1 298.936 L1998.47 298.936 L1998.47 295.626 L2023.1 295.626 Z" fill="#000000" fill-rule="nonzero" fill-opacity="1" /><path clip-path="url(#clip090)" d="M2038.84 257.802 L2032.5 275.001 L2045.2 275.001 L2038.84 257.802 M2036.2 253.196 L2041.5 253.196 L2054.67 287.756 L2049.81 287.756 L2046.66 278.89 L2031.08 278.89 L2027.94 287.756 L2023 287.756 L2036.2 253.196 Z" fill="#000000" fill-rule="nonzero" fill-opacity="1" /><path clip-path="url(#clip090)" d="M2081.08 272.108 L2081.08 287.756 L2076.82 287.756 L2076.82 272.247 Q2076.82 268.566 2075.39 266.737 Q2073.95 264.909 2071.08 264.909 Q2067.63 264.909 2065.64 267.108 Q2063.65 269.307 2063.65 273.103 L2063.65 287.756 L2059.37 287.756 L2059.37 261.83 L2063.65 261.83 L2063.65 265.858 Q2065.18 263.52 2067.24 262.362 Q2069.32 261.205 2072.03 261.205 Q2076.5 261.205 2078.79 263.983 Q2081.08 266.737 2081.08 272.108 Z" fill="#000000" fill-rule="nonzero" fill-opacity="1" /><path clip-path="url(#clip090)" d="M2106.64 265.765 L2106.64 251.737 L2110.9 251.737 L2110.9 287.756 L2106.64 287.756 L2106.64 283.867 Q2105.3 286.182 2103.24 287.316 Q2101.2 288.427 2098.33 288.427 Q2093.63 288.427 2090.67 284.677 Q2087.73 280.927 2087.73 274.816 Q2087.73 268.705 2090.67 264.955 Q2093.63 261.205 2098.33 261.205 Q2101.2 261.205 2103.24 262.339 Q2105.3 263.45 2106.64 265.765 M2092.12 274.816 Q2092.12 279.515 2094.05 282.2 Q2095.99 284.862 2099.37 284.862 Q2102.75 284.862 2104.69 282.2 Q2106.64 279.515 2106.64 274.816 Q2106.64 270.117 2104.69 267.455 Q2102.75 264.77 2099.37 264.77 Q2095.99 264.77 2094.05 267.455 Q2092.12 270.117 2092.12 274.816 Z" fill="#000000" fill-rule="nonzero" fill-opacity="1" /><path clip-path="url(#clip090)" d="M2134.69 265.811 Q2133.98 265.395 2133.12 265.21 Q2132.29 265.001 2131.27 265.001 Q2127.66 265.001 2125.71 267.362 Q2123.79 269.7 2123.79 274.098 L2123.79 287.756 L2119.51 287.756 L2119.51 261.83 L2123.79 261.83 L2123.79 265.858 Q2125.13 263.497 2127.29 262.362 Q2129.44 261.205 2132.52 261.205 Q2132.96 261.205 2133.49 261.274 Q2134.02 261.321 2134.67 261.436 L2134.69 265.811 Z" fill="#000000" fill-rule="nonzero" fill-opacity="1" /><path clip-path="url(#clip090)" d="M2160.3 273.728 L2160.3 275.811 L2140.71 275.811 Q2140.99 280.209 2143.35 282.524 Q2145.74 284.816 2149.97 284.816 Q2152.43 284.816 2154.72 284.214 Q2157.03 283.612 2159.3 282.409 L2159.3 286.436 Q2157.01 287.408 2154.6 287.918 Q2152.19 288.427 2149.72 288.427 Q2143.51 288.427 2139.88 284.816 Q2136.27 281.205 2136.27 275.047 Q2136.27 268.682 2139.69 264.955 Q2143.14 261.205 2148.98 261.205 Q2154.21 261.205 2157.24 264.585 Q2160.3 267.941 2160.3 273.728 M2156.04 272.478 Q2155.99 268.983 2154.07 266.899 Q2152.17 264.816 2149.02 264.816 Q2145.46 264.816 2143.31 266.83 Q2141.18 268.844 2140.85 272.501 L2156.04 272.478 Z" fill="#000000" fill-rule="nonzero" fill-opacity="1" /><path clip-path="url(#clip090)" d="M2167.29 261.83 L2171.55 261.83 L2171.55 287.756 L2167.29 287.756 L2167.29 261.83 M2167.29 251.737 L2171.55 251.737 L2171.55 257.131 L2167.29 257.131 L2167.29 251.737 Z" fill="#000000" fill-rule="nonzero" fill-opacity="1" /><path clip-path="url(#clip090)" d="M2200.16 295.626 L2200.16 298.936 L2175.53 298.936 L2175.53 295.626 L2200.16 295.626 Z" fill="#000000" fill-rule="nonzero" fill-opacity="1" /><path clip-path="url(#clip090)" d="M2215.94 274.723 Q2210.78 274.723 2208.79 275.904 Q2206.8 277.084 2206.8 279.932 Q2206.8 282.2 2208.28 283.543 Q2209.79 284.862 2212.36 284.862 Q2215.9 284.862 2218.03 282.362 Q2220.18 279.839 2220.18 275.672 L2220.18 274.723 L2215.94 274.723 M2224.44 272.964 L2224.44 287.756 L2220.18 287.756 L2220.18 283.821 Q2218.72 286.182 2216.55 287.316 Q2214.37 288.427 2211.22 288.427 Q2207.24 288.427 2204.88 286.205 Q2202.54 283.959 2202.54 280.209 Q2202.54 275.834 2205.46 273.612 Q2208.4 271.39 2214.21 271.39 L2220.18 271.39 L2220.18 270.973 Q2220.18 268.034 2218.24 266.436 Q2216.31 264.816 2212.82 264.816 Q2210.6 264.816 2208.49 265.348 Q2206.38 265.881 2204.44 266.946 L2204.44 263.01 Q2206.78 262.108 2208.98 261.668 Q2211.18 261.205 2213.26 261.205 Q2218.88 261.205 2221.66 264.122 Q2224.44 267.038 2224.44 272.964 Z" fill="#000000" fill-rule="nonzero" fill-opacity="1" /><path clip-path="url(#clip090)" d="M2233.21 251.737 L2237.47 251.737 L2237.47 287.756 L2233.21 287.756 L2233.21 251.737 Z" fill="#000000" fill-rule="nonzero" fill-opacity="1" /><path clip-path="url(#clip090)" d="M2250.6 254.469 L2250.6 261.83 L2259.37 261.83 L2259.37 265.14 L2250.6 265.14 L2250.6 279.214 Q2250.6 282.385 2251.45 283.288 Q2252.33 284.191 2254.99 284.191 L2259.37 284.191 L2259.37 287.756 L2254.99 287.756 Q2250.06 287.756 2248.19 285.927 Q2246.31 284.075 2246.31 279.214 L2246.31 265.14 L2243.19 265.14 L2243.19 261.83 L2246.31 261.83 L2246.31 254.469 L2250.6 254.469 Z" fill="#000000" fill-rule="nonzero" fill-opacity="1" /><polyline clip-path="url(#clip090)" style="stroke:#3da44d; stroke-linecap:round; stroke-linejoin:round; stroke-width:4; stroke-opacity:1; fill:none" points="1772.84,322.316 1912.92,322.316 "/>
<path clip-path="url(#clip090)" d="M1936.27 305.036 L1940.95 305.036 L1940.95 335.661 L1957.77 335.661 L1957.77 339.596 L1936.27 339.596 L1936.27 305.036 Z" fill="#000000" fill-rule="nonzero" fill-opacity="1" /><path clip-path="url(#clip090)" d="M1962.68 305.036 L1969.65 305.036 L1978.47 328.554 L1987.33 305.036 L1994.3 305.036 L1994.3 339.596 L1989.74 339.596 L1989.74 309.249 L1980.83 332.952 L1976.13 332.952 L1967.22 309.249 L1967.22 339.596 L1962.68 339.596 L1962.68 305.036 Z" fill="#000000" fill-rule="nonzero" fill-opacity="1" /><path clip-path="url(#clip090)" d="M2023.1 347.466 L2023.1 350.776 L1998.47 350.776 L1998.47 347.466 L2023.1 347.466 Z" fill="#000000" fill-rule="nonzero" fill-opacity="1" /><path clip-path="url(#clip090)" d="M2038.84 309.642 L2032.5 326.841 L2045.2 326.841 L2038.84 309.642 M2036.2 305.036 L2041.5 305.036 L2054.67 339.596 L2049.81 339.596 L2046.66 330.73 L2031.08 330.73 L2027.94 339.596 L2023 339.596 L2036.2 305.036 Z" fill="#000000" fill-rule="nonzero" fill-opacity="1" /><path clip-path="url(#clip090)" d="M2081.08 323.948 L2081.08 339.596 L2076.82 339.596 L2076.82 324.087 Q2076.82 320.406 2075.39 318.577 Q2073.95 316.749 2071.08 316.749 Q2067.63 316.749 2065.64 318.948 Q2063.65 321.147 2063.65 324.943 L2063.65 339.596 L2059.37 339.596 L2059.37 313.67 L2063.65 313.67 L2063.65 317.698 Q2065.18 315.36 2067.24 314.202 Q2069.32 313.045 2072.03 313.045 Q2076.5 313.045 2078.79 315.823 Q2081.08 318.577 2081.08 323.948 Z" fill="#000000" fill-rule="nonzero" fill-opacity="1" /><path clip-path="url(#clip090)" d="M2106.64 317.605 L2106.64 303.577 L2110.9 303.577 L2110.9 339.596 L2106.64 339.596 L2106.64 335.707 Q2105.3 338.022 2103.24 339.156 Q2101.2 340.267 2098.33 340.267 Q2093.63 340.267 2090.67 336.517 Q2087.73 332.767 2087.73 326.656 Q2087.73 320.545 2090.67 316.795 Q2093.63 313.045 2098.33 313.045 Q2101.2 313.045 2103.24 314.179 Q2105.3 315.29 2106.64 317.605 M2092.12 326.656 Q2092.12 331.355 2094.05 334.04 Q2095.99 336.702 2099.37 336.702 Q2102.75 336.702 2104.69 334.04 Q2106.64 331.355 2106.64 326.656 Q2106.64 321.957 2104.69 319.295 Q2102.75 316.61 2099.37 316.61 Q2095.99 316.61 2094.05 319.295 Q2092.12 321.957 2092.12 326.656 Z" fill="#000000" fill-rule="nonzero" fill-opacity="1" /><path clip-path="url(#clip090)" d="M2134.69 317.651 Q2133.98 317.235 2133.12 317.05 Q2132.29 316.841 2131.27 316.841 Q2127.66 316.841 2125.71 319.202 Q2123.79 321.54 2123.79 325.938 L2123.79 339.596 L2119.51 339.596 L2119.51 313.67 L2123.79 313.67 L2123.79 317.698 Q2125.13 315.337 2127.29 314.202 Q2129.44 313.045 2132.52 313.045 Q2132.96 313.045 2133.49 313.114 Q2134.02 313.161 2134.67 313.276 L2134.69 317.651 Z" fill="#000000" fill-rule="nonzero" fill-opacity="1" /><path clip-path="url(#clip090)" d="M2160.3 325.568 L2160.3 327.651 L2140.71 327.651 Q2140.99 332.049 2143.35 334.364 Q2145.74 336.656 2149.97 336.656 Q2152.43 336.656 2154.72 336.054 Q2157.03 335.452 2159.3 334.249 L2159.3 338.276 Q2157.01 339.248 2154.6 339.758 Q2152.19 340.267 2149.72 340.267 Q2143.51 340.267 2139.88 336.656 Q2136.27 333.045 2136.27 326.887 Q2136.27 320.522 2139.69 316.795 Q2143.14 313.045 2148.98 313.045 Q2154.21 313.045 2157.24 316.425 Q2160.3 319.781 2160.3 325.568 M2156.04 324.318 Q2155.99 320.823 2154.07 318.739 Q2152.17 316.656 2149.02 316.656 Q2145.46 316.656 2143.31 318.67 Q2141.18 320.684 2140.85 324.341 L2156.04 324.318 Z" fill="#000000" fill-rule="nonzero" fill-opacity="1" /><path clip-path="url(#clip090)" d="M2167.29 313.67 L2171.55 313.67 L2171.55 339.596 L2167.29 339.596 L2167.29 313.67 M2167.29 303.577 L2171.55 303.577 L2171.55 308.971 L2167.29 308.971 L2167.29 303.577 Z" fill="#000000" fill-rule="nonzero" fill-opacity="1" /><polyline clip-path="url(#clip090)" style="stroke:#c271d2; stroke-linecap:round; stroke-linejoin:round; stroke-width:4; stroke-opacity:1; fill:none" points="1772.84,374.156 1912.92,374.156 "/>
<path clip-path="url(#clip090)" d="M1936.27 356.876 L1940.95 356.876 L1940.95 387.501 L1957.77 387.501 L1957.77 391.436 L1936.27 391.436 L1936.27 356.876 Z" fill="#000000" fill-rule="nonzero" fill-opacity="1" /><path clip-path="url(#clip090)" d="M1962.68 356.876 L1969.65 356.876 L1978.47 380.394 L1987.33 356.876 L1994.3 356.876 L1994.3 391.436 L1989.74 391.436 L1989.74 361.089 L1980.83 384.792 L1976.13 384.792 L1967.22 361.089 L1967.22 391.436 L1962.68 391.436 L1962.68 356.876 Z" fill="#000000" fill-rule="nonzero" fill-opacity="1" /><path clip-path="url(#clip090)" d="M2023.1 399.306 L2023.1 402.616 L1998.47 402.616 L1998.47 399.306 L2023.1 399.306 Z" fill="#000000" fill-rule="nonzero" fill-opacity="1" /><path clip-path="url(#clip090)" d="M2048 358.01 L2048 362.57 Q2045.34 361.297 2042.98 360.672 Q2040.62 360.047 2038.42 360.047 Q2034.6 360.047 2032.52 361.528 Q2030.46 363.01 2030.46 365.741 Q2030.46 368.033 2031.82 369.214 Q2033.21 370.371 2037.06 371.089 L2039.88 371.667 Q2045.11 372.663 2047.59 375.186 Q2050.09 377.686 2050.09 381.899 Q2050.09 386.922 2046.71 389.514 Q2043.35 392.107 2036.85 392.107 Q2034.39 392.107 2031.62 391.551 Q2028.86 390.996 2025.9 389.908 L2025.9 385.093 Q2028.75 386.69 2031.48 387.501 Q2034.21 388.311 2036.85 388.311 Q2040.85 388.311 2043.03 386.737 Q2045.2 385.163 2045.2 382.246 Q2045.2 379.7 2043.63 378.264 Q2042.08 376.829 2038.51 376.112 L2035.67 375.556 Q2030.44 374.515 2028.1 372.292 Q2025.76 370.07 2025.76 366.112 Q2025.76 361.528 2028.98 358.89 Q2032.22 356.251 2037.89 356.251 Q2040.32 356.251 2042.84 356.691 Q2045.37 357.13 2048 358.01 Z" fill="#000000" fill-rule="nonzero" fill-opacity="1" /><path clip-path="url(#clip090)" d="M2062.06 360.718 L2062.06 373.704 L2067.94 373.704 Q2071.2 373.704 2072.98 372.015 Q2074.76 370.325 2074.76 367.2 Q2074.76 364.098 2072.98 362.408 Q2071.2 360.718 2067.94 360.718 L2062.06 360.718 M2057.38 356.876 L2067.94 356.876 Q2073.75 356.876 2076.71 359.515 Q2079.69 362.13 2079.69 367.2 Q2079.69 372.315 2076.71 374.931 Q2073.75 377.547 2067.94 377.547 L2062.06 377.547 L2062.06 391.436 L2057.38 391.436 L2057.38 356.876 Z" fill="#000000" fill-rule="nonzero" fill-opacity="1" /><path clip-path="url(#clip090)" d="M2109.53 386.505 L2109.53 377.223 L2101.89 377.223 L2101.89 373.38 L2114.16 373.38 L2114.16 388.218 Q2111.45 390.139 2108.19 391.135 Q2104.93 392.107 2101.22 392.107 Q2093.12 392.107 2088.54 387.385 Q2083.98 382.639 2083.98 374.19 Q2083.98 365.718 2088.54 360.996 Q2093.12 356.251 2101.22 356.251 Q2104.6 356.251 2107.63 357.084 Q2110.69 357.917 2113.26 359.538 L2113.26 364.515 Q2110.67 362.316 2107.75 361.204 Q2104.83 360.093 2101.62 360.093 Q2095.27 360.093 2092.08 363.635 Q2088.91 367.177 2088.91 374.19 Q2088.91 381.181 2092.08 384.723 Q2095.27 388.264 2101.62 388.264 Q2104.09 388.264 2106.04 387.848 Q2107.98 387.408 2109.53 386.505 Z" fill="#000000" fill-rule="nonzero" fill-opacity="1" /><path clip-path="url(#clip090)" d="M2142.22 399.306 L2142.22 402.616 L2117.59 402.616 L2117.59 399.306 L2142.22 399.306 Z" fill="#000000" fill-rule="nonzero" fill-opacity="1" /><path clip-path="url(#clip090)" d="M2158 378.403 Q2152.84 378.403 2150.85 379.584 Q2148.86 380.764 2148.86 383.612 Q2148.86 385.88 2150.34 387.223 Q2151.85 388.542 2154.42 388.542 Q2157.96 388.542 2160.09 386.042 Q2162.24 383.519 2162.24 379.352 L2162.24 378.403 L2158 378.403 M2166.5 376.644 L2166.5 391.436 L2162.24 391.436 L2162.24 387.501 Q2160.78 389.862 2158.61 390.996 Q2156.43 392.107 2153.28 392.107 Q2149.3 392.107 2146.94 389.885 Q2144.6 387.639 2144.6 383.889 Q2144.6 379.514 2147.52 377.292 Q2150.46 375.07 2156.27 375.07 L2162.24 375.07 L2162.24 374.653 Q2162.24 371.714 2160.3 370.116 Q2158.37 368.496 2154.88 368.496 Q2152.66 368.496 2150.55 369.028 Q2148.44 369.561 2146.5 370.626 L2146.5 366.69 Q2148.84 365.788 2151.04 365.348 Q2153.24 364.885 2155.32 364.885 Q2160.94 364.885 2163.72 367.802 Q2166.5 370.718 2166.5 376.644 Z" fill="#000000" fill-rule="nonzero" fill-opacity="1" /><path clip-path="url(#clip090)" d="M2175.27 355.417 L2179.53 355.417 L2179.53 391.436 L2175.27 391.436 L2175.27 355.417 Z" fill="#000000" fill-rule="nonzero" fill-opacity="1" /><path clip-path="url(#clip090)" d="M2192.66 358.149 L2192.66 365.51 L2201.43 365.51 L2201.43 368.82 L2192.66 368.82 L2192.66 382.894 Q2192.66 386.065 2193.51 386.968 Q2194.39 387.871 2197.05 387.871 L2201.43 387.871 L2201.43 391.436 L2197.05 391.436 Q2192.12 391.436 2190.25 389.607 Q2188.37 387.755 2188.37 382.894 L2188.37 368.82 L2185.25 368.82 L2185.25 365.51 L2188.37 365.51 L2188.37 358.149 L2192.66 358.149 Z" fill="#000000" fill-rule="nonzero" fill-opacity="1" /><polyline clip-path="url(#clip090)" style="stroke:#ac8d18; stroke-linecap:round; stroke-linejoin:round; stroke-width:4; stroke-opacity:1; fill:none" points="1772.84,425.996 1912.92,425.996 "/>
<path clip-path="url(#clip090)" d="M1936.27 408.716 L1940.95 408.716 L1940.95 439.341 L1957.77 439.341 L1957.77 443.276 L1936.27 443.276 L1936.27 408.716 Z" fill="#000000" fill-rule="nonzero" fill-opacity="1" /><path clip-path="url(#clip090)" d="M1962.68 408.716 L1969.65 408.716 L1978.47 432.234 L1987.33 408.716 L1994.3 408.716 L1994.3 443.276 L1989.74 443.276 L1989.74 412.929 L1980.83 436.632 L1976.13 436.632 L1967.22 412.929 L1967.22 443.276 L1962.68 443.276 L1962.68 408.716 Z" fill="#000000" fill-rule="nonzero" fill-opacity="1" /></svg>
