<?xml version="1.0" encoding="utf-8"?>
<svg xmlns="http://www.w3.org/2000/svg" xmlns:xlink="http://www.w3.org/1999/xlink" width="600" height="400" viewBox="0 0 2400 1600">
<defs>
  <clipPath id="clip090">
    <rect x="0" y="0" width="2400" height="1600"/>
  </clipPath>
</defs>
<path clip-path="url(#clip090)" d="M0 1600 L2400 1600 L2400 0 L0 0  Z" fill="#ffffff" fill-rule="evenodd" fill-opacity="1"/>
<defs>
  <clipPath id="clip091">
    <rect x="480" y="0" width="1681" height="1600"/>
  </clipPath>
</defs>
<path clip-path="url(#clip090)" d="M245.861 1423.18 L2352.76 1423.18 L2352.76 123.472 L245.861 123.472  Z" fill="#ffffff" fill-rule="evenodd" fill-opacity="1"/>
<defs>
  <clipPath id="clip092">
    <rect x="245" y="123" width="2108" height="1301"/>
  </clipPath>
</defs>
<polyline clip-path="url(#clip092)" style="stroke:#000000; stroke-linecap:round; stroke-linejoin:round; stroke-width:2; stroke-opacity:0.1; fill:none" points="303.503,1423.18 303.503,123.472 "/>
<polyline clip-path="url(#clip092)" style="stroke:#000000; stroke-linecap:round; stroke-linejoin:round; stroke-width:2; stroke-opacity:0.1; fill:none" points="800.412,1423.18 800.412,123.472 "/>
<polyline clip-path="url(#clip092)" style="stroke:#000000; stroke-linecap:round; stroke-linejoin:round; stroke-width:2; stroke-opacity:0.1; fill:none" points="1297.32,1423.18 1297.32,123.472 "/>
<polyline clip-path="url(#clip092)" style="stroke:#000000; stroke-linecap:round; stroke-linejoin:round; stroke-width:2; stroke-opacity:0.1; fill:none" points="1794.23,1423.18 1794.23,123.472 "/>
<polyline clip-path="url(#clip092)" style="stroke:#000000; stroke-linecap:round; stroke-linejoin:round; stroke-width:2; stroke-opacity:0.1; fill:none" points="2291.14,1423.18 2291.14,123.472 "/>
<polyline clip-path="url(#clip090)" style="stroke:#000000; stroke-linecap:round; stroke-linejoin:round; stroke-width:4; stroke-opacity:1; fill:none" points="245.861,1423.18 2352.76,1423.18 "/>
<polyline clip-path="url(#clip090)" style="stroke:#000000; stroke-linecap:round; stroke-linejoin:round; stroke-width:4; stroke-opacity:1; fill:none" points="303.503,1423.18 303.503,1404.28 "/>
<polyline clip-path="url(#clip090)" style="stroke:#000000; stroke-linecap:round; stroke-linejoin:round; stroke-width:4; stroke-opacity:1; fill:none" points="800.412,1423.18 800.412,1404.28 "/>
<polyline clip-path="url(#clip090)" style="stroke:#000000; stroke-linecap:round; stroke-linejoin:round; stroke-width:4; stroke-opacity:1; fill:none" points="1297.32,1423.18 1297.32,1404.28 "/>
<polyline clip-path="url(#clip090)" style="stroke:#000000; stroke-linecap:round; stroke-linejoin:round; stroke-width:4; stroke-opacity:1; fill:none" points="1794.23,1423.18 1794.23,1404.28 "/>
<polyline clip-path="url(#clip090)" style="stroke:#000000; stroke-linecap:round; stroke-linejoin:round; stroke-width:4; stroke-opacity:1; fill:none" points="2291.14,1423.18 2291.14,1404.28 "/>
<path clip-path="url(#clip090)" d="M303.503 1454.1 Q299.892 1454.1 298.063 1457.66 Q296.258 1461.2 296.258 1468.33 Q296.258 1475.44 298.063 1479.01 Q299.892 1482.55 303.503 1482.55 Q307.137 1482.55 308.943 1479.01 Q310.771 1475.44 310.771 1468.33 Q310.771 1461.2 308.943 1457.66 Q307.137 1454.1 303.503 1454.1 M303.503 1450.39 Q309.313 1450.39 312.369 1455 Q315.447 1459.58 315.447 1468.33 Q315.447 1477.06 312.369 1481.67 Q309.313 1486.25 303.503 1486.25 Q297.693 1486.25 294.614 1481.67 Q291.559 1477.06 291.559 1468.33 Q291.559 1459.58 294.614 1455 Q297.693 1450.39 303.503 1450.39 Z" fill="#000000" fill-rule="nonzero" fill-opacity="1" /><path clip-path="url(#clip090)" d="M764.104 1481.64 L780.424 1481.64 L780.424 1485.58 L758.479 1485.58 L758.479 1481.64 Q761.141 1478.89 765.725 1474.26 Q770.331 1469.61 771.512 1468.27 Q773.757 1465.74 774.637 1464.01 Q775.539 1462.25 775.539 1460.56 Q775.539 1457.8 773.595 1456.07 Q771.674 1454.33 768.572 1454.33 Q766.373 1454.33 763.919 1455.09 Q761.489 1455.86 758.711 1457.41 L758.711 1452.69 Q761.535 1451.55 763.989 1450.97 Q766.442 1450.39 768.479 1450.39 Q773.85 1450.39 777.044 1453.08 Q780.239 1455.77 780.239 1460.26 Q780.239 1462.39 779.428 1464.31 Q778.641 1466.2 776.535 1468.8 Q775.956 1469.47 772.854 1472.69 Q769.752 1475.88 764.104 1481.64 Z" fill="#000000" fill-rule="nonzero" fill-opacity="1" /><path clip-path="url(#clip090)" d="M790.285 1451.02 L808.641 1451.02 L808.641 1454.96 L794.567 1454.96 L794.567 1463.43 Q795.586 1463.08 796.604 1462.92 Q797.623 1462.73 798.641 1462.73 Q804.428 1462.73 807.808 1465.9 Q811.187 1469.08 811.187 1474.49 Q811.187 1480.07 807.715 1483.17 Q804.243 1486.25 797.924 1486.25 Q795.748 1486.25 793.479 1485.88 Q791.234 1485.51 788.826 1484.77 L788.826 1480.07 Q790.91 1481.2 793.132 1481.76 Q795.354 1482.32 797.831 1482.32 Q801.836 1482.32 804.174 1480.21 Q806.512 1478.1 806.512 1474.49 Q806.512 1470.88 804.174 1468.77 Q801.836 1466.67 797.831 1466.67 Q795.956 1466.67 794.081 1467.08 Q792.229 1467.5 790.285 1468.38 L790.285 1451.02 Z" fill="#000000" fill-rule="nonzero" fill-opacity="1" /><path clip-path="url(#clip090)" d="M830.4 1454.1 Q826.789 1454.1 824.96 1457.66 Q823.155 1461.2 823.155 1468.33 Q823.155 1475.44 824.96 1479.01 Q826.789 1482.55 830.4 1482.55 Q834.035 1482.55 835.84 1479.01 Q837.669 1475.44 837.669 1468.33 Q837.669 1461.2 835.84 1457.66 Q834.035 1454.1 830.4 1454.1 M830.4 1450.39 Q836.21 1450.39 839.266 1455 Q842.345 1459.58 842.345 1468.33 Q842.345 1477.06 839.266 1481.67 Q836.21 1486.25 830.4 1486.25 Q824.59 1486.25 821.511 1481.67 Q818.456 1477.06 818.456 1468.33 Q818.456 1459.58 821.511 1455 Q824.59 1450.39 830.4 1450.39 Z" fill="#000000" fill-rule="nonzero" fill-opacity="1" /><path clip-path="url(#clip090)" d="M1256.94 1451.02 L1275.3 1451.02 L1275.3 1454.96 L1261.22 1454.96 L1261.22 1463.43 Q1262.24 1463.08 1263.26 1462.92 Q1264.28 1462.73 1265.3 1462.73 Q1271.08 1462.73 1274.46 1465.9 Q1277.84 1469.08 1277.84 1474.49 Q1277.84 1480.07 1274.37 1483.17 Q1270.9 1486.25 1264.58 1486.25 Q1262.4 1486.25 1260.13 1485.88 Q1257.89 1485.51 1255.48 1484.77 L1255.48 1480.07 Q1257.56 1481.2 1259.79 1481.76 Q1262.01 1482.32 1264.49 1482.32 Q1268.49 1482.32 1270.83 1480.21 Q1273.17 1478.1 1273.17 1474.49 Q1273.17 1470.88 1270.83 1468.77 Q1268.49 1466.67 1264.49 1466.67 Q1262.61 1466.67 1260.74 1467.08 Q1258.88 1467.5 1256.94 1468.38 L1256.94 1451.02 Z" fill="#000000" fill-rule="nonzero" fill-opacity="1" /><path clip-path="url(#clip090)" d="M1297.05 1454.1 Q1293.44 1454.1 1291.62 1457.66 Q1289.81 1461.2 1289.81 1468.33 Q1289.81 1475.44 1291.62 1479.01 Q1293.44 1482.55 1297.05 1482.55 Q1300.69 1482.55 1302.49 1479.01 Q1304.32 1475.44 1304.32 1468.33 Q1304.32 1461.2 1302.49 1457.66 Q1300.69 1454.1 1297.05 1454.1 M1297.05 1450.39 Q1302.87 1450.39 1305.92 1455 Q1309 1459.58 1309 1468.33 Q1309 1477.06 1305.92 1481.67 Q1302.87 1486.25 1297.05 1486.25 Q1291.24 1486.25 1288.17 1481.67 Q1285.11 1477.06 1285.11 1468.33 Q1285.11 1459.58 1288.17 1455 Q1291.24 1450.39 1297.05 1450.39 Z" fill="#000000" fill-rule="nonzero" fill-opacity="1" /><path clip-path="url(#clip090)" d="M1327.22 1454.1 Q1323.61 1454.1 1321.78 1457.66 Q1319.97 1461.2 1319.97 1468.33 Q1319.97 1475.44 1321.78 1479.01 Q1323.61 1482.55 1327.22 1482.55 Q1330.85 1482.55 1332.66 1479.01 Q1334.49 1475.44 1334.49 1468.33 Q1334.49 1461.2 1332.66 1457.66 Q1330.85 1454.1 1327.22 1454.1 M1327.22 1450.39 Q1333.03 1450.39 1336.08 1455 Q1339.16 1459.58 1339.16 1468.33 Q1339.16 1477.06 1336.08 1481.67 Q1333.03 1486.25 1327.22 1486.25 Q1321.41 1486.25 1318.33 1481.67 Q1315.27 1477.06 1315.27 1468.33 Q1315.27 1459.58 1318.33 1455 Q1321.41 1450.39 1327.22 1450.39 Z" fill="#000000" fill-rule="nonzero" fill-opacity="1" /><path clip-path="url(#clip090)" d="M1752.51 1451.02 L1774.73 1451.02 L1774.73 1453.01 L1762.18 1485.58 L1757.3 1485.58 L1769.1 1454.96 L1752.51 1454.96 L1752.51 1451.02 Z" fill="#000000" fill-rule="nonzero" fill-opacity="1" /><path clip-path="url(#clip090)" d="M1783.89 1451.02 L1802.25 1451.02 L1802.25 1454.96 L1788.18 1454.96 L1788.18 1463.43 Q1789.2 1463.08 1790.21 1462.92 Q1791.23 1462.73 1792.25 1462.73 Q1798.04 1462.73 1801.42 1465.9 Q1804.8 1469.08 1804.8 1474.49 Q1804.8 1480.07 1801.32 1483.17 Q1797.85 1486.25 1791.53 1486.25 Q1789.36 1486.25 1787.09 1485.88 Q1784.84 1485.51 1782.44 1484.77 L1782.44 1480.07 Q1784.52 1481.2 1786.74 1481.76 Q1788.96 1482.32 1791.44 1482.32 Q1795.45 1482.32 1797.78 1480.21 Q1800.12 1478.1 1800.12 1474.49 Q1800.12 1470.88 1797.78 1468.77 Q1795.45 1466.67 1791.44 1466.67 Q1789.57 1466.67 1787.69 1467.08 Q1785.84 1467.5 1783.89 1468.38 L1783.89 1451.02 Z" fill="#000000" fill-rule="nonzero" fill-opacity="1" /><path clip-path="url(#clip090)" d="M1824.01 1454.1 Q1820.4 1454.1 1818.57 1457.66 Q1816.76 1461.2 1816.76 1468.33 Q1816.76 1475.44 1818.57 1479.01 Q1820.4 1482.55 1824.01 1482.55 Q1827.64 1482.55 1829.45 1479.01 Q1831.28 1475.44 1831.28 1468.33 Q1831.28 1461.2 1829.45 1457.66 Q1827.64 1454.1 1824.01 1454.1 M1824.01 1450.39 Q1829.82 1450.39 1832.88 1455 Q1835.95 1459.58 1835.95 1468.33 Q1835.95 1477.06 1832.88 1481.67 Q1829.82 1486.25 1824.01 1486.25 Q1818.2 1486.25 1815.12 1481.67 Q1812.07 1477.06 1812.07 1468.33 Q1812.07 1459.58 1815.12 1455 Q1818.2 1450.39 1824.01 1450.39 Z" fill="#000000" fill-rule="nonzero" fill-opacity="1" /><path clip-path="url(#clip090)" d="M2235.66 1481.64 L2243.3 1481.64 L2243.3 1455.28 L2234.99 1456.95 L2234.99 1452.69 L2243.26 1451.02 L2247.93 1451.02 L2247.93 1481.64 L2255.57 1481.64 L2255.57 1485.58 L2235.66 1485.58 L2235.66 1481.64 Z" fill="#000000" fill-rule="nonzero" fill-opacity="1" /><path clip-path="url(#clip090)" d="M2275.02 1454.1 Q2271.41 1454.1 2269.58 1457.66 Q2267.77 1461.2 2267.77 1468.33 Q2267.77 1475.44 2269.58 1479.01 Q2271.41 1482.55 2275.02 1482.55 Q2278.65 1482.55 2280.46 1479.01 Q2282.29 1475.44 2282.29 1468.33 Q2282.29 1461.2 2280.46 1457.66 Q2278.65 1454.1 2275.02 1454.1 M2275.02 1450.39 Q2280.83 1450.39 2283.88 1455 Q2286.96 1459.58 2286.96 1468.33 Q2286.96 1477.06 2283.88 1481.67 Q2280.83 1486.25 2275.02 1486.25 Q2269.21 1486.25 2266.13 1481.67 Q2263.07 1477.06 2263.07 1468.33 Q2263.07 1459.58 2266.13 1455 Q2269.21 1450.39 2275.02 1450.39 Z" fill="#000000" fill-rule="nonzero" fill-opacity="1" /><path clip-path="url(#clip090)" d="M2305.18 1454.1 Q2301.57 1454.1 2299.74 1457.66 Q2297.93 1461.2 2297.93 1468.33 Q2297.93 1475.44 2299.74 1479.01 Q2301.57 1482.55 2305.18 1482.55 Q2308.81 1482.55 2310.62 1479.01 Q2312.45 1475.44 2312.45 1468.33 Q2312.45 1461.2 2310.62 1457.66 Q2308.81 1454.1 2305.18 1454.1 M2305.18 1450.39 Q2310.99 1450.39 2314.04 1455 Q2317.12 1459.58 2317.12 1468.33 Q2317.12 1477.06 2314.04 1481.67 Q2310.99 1486.25 2305.18 1486.25 Q2299.37 1486.25 2296.29 1481.67 Q2293.23 1477.06 2293.23 1468.33 Q2293.23 1459.58 2296.29 1455 Q2299.37 1450.39 2305.18 1450.39 Z" fill="#000000" fill-rule="nonzero" fill-opacity="1" /><path clip-path="url(#clip090)" d="M2335.34 1454.1 Q2331.73 1454.1 2329.9 1457.66 Q2328.1 1461.2 2328.1 1468.33 Q2328.1 1475.44 2329.9 1479.01 Q2331.73 1482.55 2335.34 1482.55 Q2338.97 1482.55 2340.78 1479.01 Q2342.61 1475.44 2342.61 1468.33 Q2342.61 1461.2 2340.78 1457.66 Q2338.97 1454.1 2335.34 1454.1 M2335.34 1450.39 Q2341.15 1450.39 2344.21 1455 Q2347.28 1459.58 2347.28 1468.33 Q2347.28 1477.06 2344.21 1481.67 Q2341.15 1486.25 2335.34 1486.25 Q2329.53 1486.25 2326.45 1481.67 Q2323.4 1477.06 2323.4 1468.33 Q2323.4 1459.58 2326.45 1455 Q2329.53 1450.39 2335.34 1450.39 Z" fill="#000000" fill-rule="nonzero" fill-opacity="1" /><path clip-path="url(#clip090)" d="M1283.49 1518.52 L1289.38 1518.52 L1289.38 1547.77 L1306.85 1532.4 L1314.33 1532.4 L1295.43 1549.07 L1315.13 1568.04 L1307.49 1568.04 L1289.38 1550.63 L1289.38 1568.04 L1283.49 1568.04 L1283.49 1518.52 Z" fill="#000000" fill-rule="nonzero" fill-opacity="1" /><polyline clip-path="url(#clip092)" style="stroke:#000000; stroke-linecap:round; stroke-linejoin:round; stroke-width:2; stroke-opacity:0.1; fill:none" points="245.861,1105.26 2352.76,1105.26 "/>
<polyline clip-path="url(#clip092)" style="stroke:#000000; stroke-linecap:round; stroke-linejoin:round; stroke-width:2; stroke-opacity:0.1; fill:none" points="245.861,690.426 2352.76,690.426 "/>
<polyline clip-path="url(#clip092)" style="stroke:#000000; stroke-linecap:round; stroke-linejoin:round; stroke-width:2; stroke-opacity:0.1; fill:none" points="245.861,275.592 2352.76,275.592 "/>
<polyline clip-path="url(#clip090)" style="stroke:#000000; stroke-linecap:round; stroke-linejoin:round; stroke-width:4; stroke-opacity:1; fill:none" points="245.861,1423.18 245.861,123.472 "/>
<polyline clip-path="url(#clip090)" style="stroke:#000000; stroke-linecap:round; stroke-linejoin:round; stroke-width:4; stroke-opacity:1; fill:none" points="245.861,1105.26 264.759,1105.26 "/>
<polyline clip-path="url(#clip090)" style="stroke:#000000; stroke-linecap:round; stroke-linejoin:round; stroke-width:4; stroke-opacity:1; fill:none" points="245.861,690.426 264.759,690.426 "/>
<polyline clip-path="url(#clip090)" style="stroke:#000000; stroke-linecap:round; stroke-linejoin:round; stroke-width:4; stroke-opacity:1; fill:none" points="245.861,275.592 264.759,275.592 "/>
<path clip-path="url(#clip090)" d="M139.156 1125.05 L146.795 1125.05 L146.795 1098.69 L138.485 1100.35 L138.485 1096.09 L146.748 1094.43 L151.424 1094.43 L151.424 1125.05 L159.063 1125.05 L159.063 1128.99 L139.156 1128.99 L139.156 1125.05 Z" fill="#000000" fill-rule="nonzero" fill-opacity="1" /><path clip-path="url(#clip090)" d="M178.507 1097.51 Q174.896 1097.51 173.068 1101.07 Q171.262 1104.61 171.262 1111.74 Q171.262 1118.85 173.068 1122.41 Q174.896 1125.96 178.507 1125.96 Q182.142 1125.96 183.947 1122.41 Q185.776 1118.85 185.776 1111.74 Q185.776 1104.61 183.947 1101.07 Q182.142 1097.51 178.507 1097.51 M178.507 1093.8 Q184.318 1093.8 187.373 1098.41 Q190.452 1102.99 190.452 1111.74 Q190.452 1120.47 187.373 1125.08 Q184.318 1129.66 178.507 1129.66 Q172.697 1129.66 169.619 1125.08 Q166.563 1120.47 166.563 1111.74 Q166.563 1102.99 169.619 1098.41 Q172.697 1093.8 178.507 1093.8 Z" fill="#000000" fill-rule="nonzero" fill-opacity="1" /><path clip-path="url(#clip090)" d="M200.157 1076 Q197.223 1076 195.737 1078.9 Q194.27 1081.77 194.27 1087.57 Q194.27 1093.34 195.737 1096.24 Q197.223 1099.11 200.157 1099.11 Q203.11 1099.11 204.577 1096.24 Q206.062 1093.34 206.062 1087.57 Q206.062 1081.77 204.577 1078.9 Q203.11 1076 200.157 1076 M200.157 1072.99 Q204.877 1072.99 207.36 1076.73 Q209.861 1080.46 209.861 1087.57 Q209.861 1094.66 207.36 1098.4 Q204.877 1102.12 200.157 1102.12 Q195.436 1102.12 192.935 1098.4 Q190.452 1094.66 190.452 1087.57 Q190.452 1080.46 192.935 1076.73 Q195.436 1072.99 200.157 1072.99 Z" fill="#000000" fill-rule="nonzero" fill-opacity="1" /><path clip-path="url(#clip090)" d="M116.342 710.219 L123.981 710.219 L123.981 683.853 L115.671 685.52 L115.671 681.261 L123.935 679.594 L128.61 679.594 L128.61 710.219 L136.249 710.219 L136.249 714.154 L116.342 714.154 L116.342 710.219 Z" fill="#000000" fill-rule="nonzero" fill-opacity="1" /><path clip-path="url(#clip090)" d="M155.694 682.673 Q152.083 682.673 150.254 686.237 Q148.448 689.779 148.448 696.909 Q148.448 704.015 150.254 707.58 Q152.083 711.122 155.694 711.122 Q159.328 711.122 161.133 707.58 Q162.962 704.015 162.962 696.909 Q162.962 689.779 161.133 686.237 Q159.328 682.673 155.694 682.673 M155.694 678.969 Q161.504 678.969 164.559 683.575 Q167.638 688.159 167.638 696.909 Q167.638 705.635 164.559 710.242 Q161.504 714.825 155.694 714.825 Q149.884 714.825 146.805 710.242 Q143.749 705.635 143.749 696.909 Q143.749 688.159 146.805 683.575 Q149.884 678.969 155.694 678.969 Z" fill="#000000" fill-rule="nonzero" fill-opacity="1" /><path clip-path="url(#clip090)" d="M168.183 683.546 L174.39 683.546 L174.39 662.124 L167.638 663.478 L167.638 660.018 L174.352 658.664 L178.152 658.664 L178.152 683.546 L184.358 683.546 L184.358 686.744 L168.183 686.744 L168.183 683.546 Z" fill="#000000" fill-rule="nonzero" fill-opacity="1" /><path clip-path="url(#clip090)" d="M200.157 661.165 Q197.223 661.165 195.737 664.061 Q194.27 666.939 194.27 672.732 Q194.27 678.506 195.737 681.402 Q197.223 684.28 200.157 684.28 Q203.11 684.28 204.577 681.402 Q206.062 678.506 206.062 672.732 Q206.062 666.939 204.577 664.061 Q203.11 661.165 200.157 661.165 M200.157 658.156 Q204.877 658.156 207.36 661.898 Q209.861 665.622 209.861 672.732 Q209.861 679.822 207.36 683.565 Q204.877 687.289 200.157 687.289 Q195.436 687.289 192.935 683.565 Q190.452 679.822 190.452 672.732 Q190.452 665.622 192.935 661.898 Q195.436 658.156 200.157 658.156 Z" fill="#000000" fill-rule="nonzero" fill-opacity="1" /><path clip-path="url(#clip090)" d="M114.931 295.385 L122.57 295.385 L122.57 269.019 L114.26 270.686 L114.26 266.427 L122.524 264.76 L127.2 264.76 L127.2 295.385 L134.839 295.385 L134.839 299.32 L114.931 299.32 L114.931 295.385 Z" fill="#000000" fill-rule="nonzero" fill-opacity="1" /><path clip-path="url(#clip090)" d="M154.283 267.839 Q150.672 267.839 148.843 271.403 Q147.038 274.945 147.038 282.075 Q147.038 289.181 148.843 292.746 Q150.672 296.287 154.283 296.287 Q157.917 296.287 159.723 292.746 Q161.552 289.181 161.552 282.075 Q161.552 274.945 159.723 271.403 Q157.917 267.839 154.283 267.839 M154.283 264.135 Q160.093 264.135 163.149 268.741 Q166.227 273.325 166.227 282.075 Q166.227 290.801 163.149 295.408 Q160.093 299.991 154.283 299.991 Q148.473 299.991 145.394 295.408 Q142.339 290.801 142.339 282.075 Q142.339 273.325 145.394 268.741 Q148.473 264.135 154.283 264.135 Z" fill="#000000" fill-rule="nonzero" fill-opacity="1" /><path clip-path="url(#clip090)" d="M170.798 268.712 L184.057 268.712 L184.057 271.909 L166.227 271.909 L166.227 268.712 Q168.39 266.474 172.114 262.712 Q175.857 258.932 176.816 257.841 Q178.641 255.791 179.355 254.381 Q180.089 252.951 180.089 251.578 Q180.089 249.34 178.509 247.93 Q176.948 246.519 174.428 246.519 Q172.641 246.519 170.647 247.14 Q168.672 247.76 166.416 249.02 L166.416 245.184 Q168.71 244.262 170.704 243.792 Q172.697 243.322 174.352 243.322 Q178.716 243.322 181.311 245.503 Q183.907 247.685 183.907 251.334 Q183.907 253.064 183.249 254.625 Q182.609 256.167 180.898 258.274 Q180.427 258.819 177.907 261.434 Q175.387 264.029 170.798 268.712 Z" fill="#000000" fill-rule="nonzero" fill-opacity="1" /><path clip-path="url(#clip090)" d="M200.157 246.331 Q197.223 246.331 195.737 249.227 Q194.27 252.105 194.27 257.898 Q194.27 263.672 195.737 266.568 Q197.223 269.446 200.157 269.446 Q203.11 269.446 204.577 266.568 Q206.062 263.672 206.062 257.898 Q206.062 252.105 204.577 249.227 Q203.11 246.331 200.157 246.331 M200.157 243.322 Q204.877 243.322 207.36 247.064 Q209.861 250.788 209.861 257.898 Q209.861 264.988 207.36 268.731 Q204.877 272.455 200.157 272.455 Q195.436 272.455 192.935 268.731 Q190.452 264.988 190.452 257.898 Q190.452 250.788 192.935 247.064 Q195.436 243.322 200.157 243.322 Z" fill="#000000" fill-rule="nonzero" fill-opacity="1" /><path clip-path="url(#clip090)" d="M32.4621 801.797 Q32.4621 806.507 36.1542 809.244 Q39.8145 811.982 46.212 811.982 Q52.6095 811.982 56.3017 809.276 Q59.9619 806.539 59.9619 801.797 Q59.9619 797.118 56.2698 794.381 Q52.5777 791.643 46.212 791.643 Q39.8781 791.643 36.186 794.381 Q32.4621 797.118 32.4621 801.797 M27.4968 801.797 Q27.4968 794.158 32.4621 789.797 Q37.4273 785.437 46.212 785.437 Q54.9649 785.437 59.9619 789.797 Q64.9272 794.158 64.9272 801.797 Q64.9272 809.467 59.9619 813.828 Q54.9649 818.156 46.212 818.156 Q37.4273 818.156 32.4621 813.828 Q27.4968 809.467 27.4968 801.797 Z" fill="#000000" fill-rule="nonzero" fill-opacity="1" /><path clip-path="url(#clip090)" d="M46.212 750.139 Q39.7508 750.139 36.0905 752.812 Q32.3984 755.454 32.3984 760.101 Q32.3984 764.748 36.0905 767.422 Q39.7508 770.064 46.212 770.064 Q52.6732 770.064 56.3653 767.422 Q60.0256 764.748 60.0256 760.101 Q60.0256 755.454 56.3653 752.812 Q52.6732 750.139 46.212 750.139 M33.7671 770.064 Q30.5842 768.218 29.0564 765.417 Q27.4968 762.584 27.4968 758.669 Q27.4968 752.176 32.6531 748.134 Q37.8093 744.06 46.212 744.06 Q54.6147 744.06 59.771 748.134 Q64.9272 752.176 64.9272 758.669 Q64.9272 762.584 63.3994 765.417 Q61.8398 768.218 58.657 770.064 L64.0042 770.064 L64.0042 775.952 L14.479 775.952 L14.479 770.064 L33.7671 770.064 Z" fill="#000000" fill-rule="nonzero" fill-opacity="1" /><path clip-path="url(#clip090)" d="M28.3562 734.352 L28.3562 728.495 L64.6407 728.495 Q71.452 728.495 74.5076 731.105 Q77.5631 733.684 77.5631 739.445 L77.5631 741.673 L72.5979 741.673 L72.5979 740.113 Q72.5979 736.771 71.0383 735.561 Q69.5105 734.352 64.6407 734.352 L28.3562 734.352 M14.479 734.352 L14.479 728.495 L21.895 728.495 L21.895 734.352 L14.479 734.352 Z" fill="#000000" fill-rule="nonzero" fill-opacity="1" /><path clip-path="url(#clip090)" d="M954.84 65.7705 L954.84 89.8329 L947.346 89.8329 L947.346 27.2059 L954.84 27.2059 L954.84 34.0924 Q957.19 30.0415 960.754 28.0971 Q964.36 26.1121 969.342 26.1121 Q977.606 26.1121 982.751 32.6746 Q987.936 39.2371 987.936 49.9314 Q987.936 60.6258 982.751 67.1883 Q977.606 73.7508 969.342 73.7508 Q964.36 73.7508 960.754 71.8063 Q957.19 69.8214 954.84 65.7705 M980.199 49.9314 Q980.199 41.7081 976.796 37.0496 Q973.434 32.3505 967.519 32.3505 Q961.605 32.3505 958.202 37.0496 Q954.84 41.7081 954.84 49.9314 Q954.84 58.1548 958.202 62.8538 Q961.605 67.5124 967.519 67.5124 Q973.434 67.5124 976.796 62.8538 Q980.199 58.1548 980.199 49.9314 Z" fill="#000000" fill-rule="nonzero" fill-opacity="1" /><path clip-path="url(#clip090)" d="M1026.58 34.1734 Q1025.33 33.4443 1023.83 33.1202 Q1022.37 32.7556 1020.59 32.7556 Q1014.27 32.7556 1010.86 36.8875 Q1007.5 40.9789 1007.5 48.6757 L1007.5 72.576 L1000.01 72.576 L1000.01 27.2059 L1007.5 27.2059 L1007.5 34.2544 Q1009.85 30.1225 1013.62 28.1376 Q1017.39 26.1121 1022.77 26.1121 Q1023.54 26.1121 1024.48 26.2337 Q1025.41 26.3147 1026.54 26.5172 L1026.58 34.1734 Z" fill="#000000" fill-rule="nonzero" fill-opacity="1" /><path clip-path="url(#clip090)" d="M1050.16 32.4315 Q1044.16 32.4315 1040.68 37.1306 Q1037.19 41.7891 1037.19 49.9314 Q1037.19 58.0738 1040.64 62.7728 Q1044.12 67.4314 1050.16 67.4314 Q1056.11 67.4314 1059.6 62.7323 Q1063.08 58.0333 1063.08 49.9314 Q1063.08 41.8701 1059.6 37.1711 Q1056.11 32.4315 1050.16 32.4315 M1050.16 26.1121 Q1059.88 26.1121 1065.43 32.4315 Q1070.98 38.7509 1070.98 49.9314 Q1070.98 61.0714 1065.43 67.4314 Q1059.88 73.7508 1050.16 73.7508 Q1040.4 73.7508 1034.85 67.4314 Q1029.34 61.0714 1029.34 49.9314 Q1029.34 38.7509 1034.85 32.4315 Q1040.4 26.1121 1050.16 26.1121 Z" fill="#000000" fill-rule="nonzero" fill-opacity="1" /><path clip-path="url(#clip090)" d="M1115.9 49.9314 Q1115.9 41.7081 1112.5 37.0496 Q1109.14 32.3505 1103.22 32.3505 Q1097.31 32.3505 1093.91 37.0496 Q1090.55 41.7081 1090.55 49.9314 Q1090.55 58.1548 1093.91 62.8538 Q1097.31 67.5124 1103.22 67.5124 Q1109.14 67.5124 1112.5 62.8538 Q1115.9 58.1548 1115.9 49.9314 M1090.55 34.0924 Q1092.89 30.0415 1096.46 28.0971 Q1100.06 26.1121 1105.05 26.1121 Q1113.31 26.1121 1118.46 32.6746 Q1123.64 39.2371 1123.64 49.9314 Q1123.64 60.6258 1118.46 67.1883 Q1113.31 73.7508 1105.05 73.7508 Q1100.06 73.7508 1096.46 71.8063 Q1092.89 69.8214 1090.55 65.7705 L1090.55 72.576 L1083.05 72.576 L1083.05 9.54393 L1090.55 9.54393 L1090.55 34.0924 Z" fill="#000000" fill-rule="nonzero" fill-opacity="1" /><path clip-path="url(#clip090)" d="M1136 9.54393 L1143.45 9.54393 L1143.45 72.576 L1136 72.576 L1136 9.54393 Z" fill="#000000" fill-rule="nonzero" fill-opacity="1" /><path clip-path="url(#clip090)" d="M1197.85 48.0275 L1197.85 51.6733 L1163.58 51.6733 Q1164.07 59.3701 1168.2 63.421 Q1172.37 67.4314 1179.79 67.4314 Q1184.08 67.4314 1188.09 66.3781 Q1192.14 65.3249 1196.11 63.2184 L1196.11 70.267 Q1192.1 71.9684 1187.89 72.8596 Q1183.68 73.7508 1179.34 73.7508 Q1168.48 73.7508 1162.12 67.4314 Q1155.81 61.1119 1155.81 50.3365 Q1155.81 39.1965 1161.8 32.6746 Q1167.84 26.1121 1178.04 26.1121 Q1187.2 26.1121 1192.51 32.0264 Q1197.85 37.9003 1197.85 48.0275 M1190.4 45.84 Q1190.32 39.7232 1186.96 36.0774 Q1183.64 32.4315 1178.13 32.4315 Q1171.89 32.4315 1168.12 35.9558 Q1164.39 39.4801 1163.83 45.8805 L1190.4 45.84 M1171.73 6.22219 L1183.15 21.3726 L1176.95 21.3726 L1163.75 6.22219 L1171.73 6.22219 Z" fill="#000000" fill-rule="nonzero" fill-opacity="1" /><path clip-path="url(#clip090)" d="M1245.41 35.9153 Q1248.21 30.8922 1252.1 28.5022 Q1255.98 26.1121 1261.25 26.1121 Q1268.34 26.1121 1272.19 31.0947 Q1276.04 36.0368 1276.04 45.1919 L1276.04 72.576 L1268.54 72.576 L1268.54 45.4349 Q1268.54 38.913 1266.23 35.7533 Q1263.92 32.5936 1259.18 32.5936 Q1253.39 32.5936 1250.03 36.4419 Q1246.67 40.2903 1246.67 46.9338 L1246.67 72.576 L1239.17 72.576 L1239.17 45.4349 Q1239.17 38.8725 1236.86 35.7533 Q1234.55 32.5936 1229.73 32.5936 Q1224.02 32.5936 1220.66 36.4824 Q1217.3 40.3308 1217.3 46.9338 L1217.3 72.576 L1209.8 72.576 L1209.8 27.2059 L1217.3 27.2059 L1217.3 34.2544 Q1219.85 30.082 1223.42 28.0971 Q1226.98 26.1121 1231.88 26.1121 Q1236.82 26.1121 1240.27 28.6237 Q1243.75 31.1352 1245.41 35.9153 Z" fill="#000000" fill-rule="nonzero" fill-opacity="1" /><path clip-path="url(#clip090)" d="M1329.71 48.0275 L1329.71 51.6733 L1295.44 51.6733 Q1295.93 59.3701 1300.06 63.421 Q1304.23 67.4314 1311.64 67.4314 Q1315.94 67.4314 1319.95 66.3781 Q1324 65.3249 1327.97 63.2184 L1327.97 70.267 Q1323.96 71.9684 1319.75 72.8596 Q1315.53 73.7508 1311.2 73.7508 Q1300.34 73.7508 1293.98 67.4314 Q1287.66 61.1119 1287.66 50.3365 Q1287.66 39.1965 1293.66 32.6746 Q1299.69 26.1121 1309.9 26.1121 Q1319.06 26.1121 1324.36 32.0264 Q1329.71 37.9003 1329.71 48.0275 M1322.26 45.84 Q1322.18 39.7232 1318.81 36.0774 Q1315.49 32.4315 1309.98 32.4315 Q1303.74 32.4315 1299.98 35.9558 Q1296.25 39.4801 1295.68 45.8805 L1322.26 45.84 Z" fill="#000000" fill-rule="nonzero" fill-opacity="1" /><path clip-path="url(#clip090)" d="M1370.22 62.2867 L1378.77 62.2867 L1378.77 72.576 L1370.22 72.576 L1370.22 62.2867 M1370.22 29.6769 L1378.77 29.6769 L1378.77 39.9662 L1370.22 39.9662 L1370.22 29.6769 Z" fill="#000000" fill-rule="nonzero" fill-opacity="1" /><path clip-path="url(#clip090)" d="M1430.01 14.324 L1430.01 27.2059 L1445.36 27.2059 L1445.36 32.9987 L1430.01 32.9987 L1430.01 57.6282 Q1430.01 63.1779 1431.51 64.7578 Q1433.05 66.3376 1437.71 66.3376 L1445.36 66.3376 L1445.36 72.576 L1437.71 72.576 Q1429.08 72.576 1425.8 69.3758 Q1422.52 66.1351 1422.52 57.6282 L1422.52 32.9987 L1417.05 32.9987 L1417.05 27.2059 L1422.52 27.2059 L1422.52 14.324 L1430.01 14.324 Z" fill="#000000" fill-rule="nonzero" fill-opacity="1" /><path clip-path="url(#clip090)" d="M1462.38 65.7705 L1462.38 89.8329 L1454.88 89.8329 L1454.88 27.2059 L1462.38 27.2059 L1462.38 34.0924 Q1464.73 30.0415 1468.29 28.0971 Q1471.9 26.1121 1476.88 26.1121 Q1485.14 26.1121 1490.29 32.6746 Q1495.47 39.2371 1495.47 49.9314 Q1495.47 60.6258 1490.29 67.1883 Q1485.14 73.7508 1476.88 73.7508 Q1471.9 73.7508 1468.29 71.8063 Q1464.73 69.8214 1462.38 65.7705 M1487.74 49.9314 Q1487.74 41.7081 1484.33 37.0496 Q1480.97 32.3505 1475.06 32.3505 Q1469.14 32.3505 1465.74 37.0496 Q1462.38 41.7081 1462.38 49.9314 Q1462.38 58.1548 1465.74 62.8538 Q1469.14 67.5124 1475.06 67.5124 Q1480.97 67.5124 1484.33 62.8538 Q1487.74 58.1548 1487.74 49.9314 Z" fill="#000000" fill-rule="nonzero" fill-opacity="1" /><path clip-path="url(#clip090)" d="M1515.93 65.6895 L1544.49 65.6895 L1544.49 72.576 L1506.09 72.576 L1506.09 65.6895 Q1510.75 60.8689 1518.77 52.7671 Q1526.83 44.6248 1528.89 42.2752 Q1532.82 37.8598 1534.36 34.8216 Q1535.94 31.7429 1535.94 28.7857 Q1535.94 23.9651 1532.54 20.927 Q1529.18 17.8888 1523.75 17.8888 Q1519.9 17.8888 1515.61 19.2256 Q1511.35 20.5624 1506.49 23.2765 L1506.49 15.0127 Q1511.43 13.0277 1515.73 12.015 Q1520.02 11.0023 1523.59 11.0023 Q1532.99 11.0023 1538.58 15.7013 Q1544.17 20.4004 1544.17 28.2591 Q1544.17 31.9859 1542.75 35.3482 Q1541.37 38.6699 1537.68 43.2069 Q1536.67 44.3817 1531.24 50.0125 Q1525.82 55.6027 1515.93 65.6895 Z" fill="#000000" fill-rule="nonzero" fill-opacity="1" /><path clip-path="url(#clip090)" d="M1580.18 39.075 Q1574.67 39.075 1571.43 42.8424 Q1568.23 46.6097 1568.23 53.1722 Q1568.23 59.6941 1571.43 63.502 Q1574.67 67.2693 1580.18 67.2693 Q1585.69 67.2693 1588.89 63.502 Q1592.13 59.6941 1592.13 53.1722 Q1592.13 46.6097 1588.89 42.8424 Q1585.69 39.075 1580.18 39.075 M1596.42 13.4328 L1596.42 20.8865 Q1593.34 19.4281 1590.18 18.6585 Q1587.06 17.8888 1583.99 17.8888 Q1575.88 17.8888 1571.59 23.3575 Q1567.34 28.8262 1566.73 39.8852 Q1569.12 36.3609 1572.72 34.4975 Q1576.33 32.5936 1580.66 32.5936 Q1589.78 32.5936 1595.04 38.1433 Q1600.35 43.6525 1600.35 53.1722 Q1600.35 62.4892 1594.84 68.12 Q1589.33 73.7508 1580.18 73.7508 Q1569.69 73.7508 1564.14 65.73 Q1558.59 57.6687 1558.59 42.3968 Q1558.59 28.0566 1565.39 19.5497 Q1572.2 11.0023 1583.66 11.0023 Q1586.74 11.0023 1589.86 11.6099 Q1593.02 12.2175 1596.42 13.4328 Z" fill="#000000" fill-rule="nonzero" fill-opacity="1" /><path clip-path="url(#clip090)" d="M1612.38 12.096 L1651.27 12.096 L1651.27 15.5798 L1629.32 72.576 L1620.77 72.576 L1641.43 18.9825 L1612.38 18.9825 L1612.38 12.096 Z" fill="#000000" fill-rule="nonzero" fill-opacity="1" /><polyline clip-path="url(#clip092)" style="stroke:#009af9; stroke-linecap:round; stroke-linejoin:round; stroke-width:4; stroke-opacity:1; fill:none" points="305.491,1097.77 307.478,1097.77 309.466,1117.51 311.453,160.256 313.441,178.272 315.429,178.272 317.416,178.272 319.404,178.272 321.392,178.272 323.379,178.272 325.367,178.272 327.355,178.272 329.342,178.272 331.33,178.272 333.317,178.272 335.305,178.272 337.293,178.272 339.28,178.272 341.268,178.272 343.256,178.272 345.243,178.272 347.231,178.272 349.219,178.272 351.206,178.272 353.194,178.272 355.181,178.272 357.169,178.272 359.157,178.272 361.144,178.272 363.132,178.272 365.12,178.272 367.107,178.272 369.095,178.272 371.083,178.272 373.07,178.272 375.058,178.272 377.045,178.272 379.033,178.272 381.021,178.272 383.008,178.272 384.996,178.272 386.984,178.272 388.971,178.272 390.959,178.272 392.947,178.272 394.934,178.272 396.922,178.272 398.909,178.272 400.897,178.272 402.885,178.272 404.872,178.272 406.86,178.272 408.848,178.272 410.835,178.272 412.823,178.272 414.811,178.272 416.798,178.272 418.786,184.085 420.773,190.087 422.761,196.197 424.749,202.368 426.736,208.571 428.724,214.793 430.712,221.025 432.699,227.262 434.687,233.502 436.675,239.744 438.662,245.987 440.65,252.23 442.637,258.473 444.625,264.717 446.613,270.961 448.6,277.205 450.588,283.449 452.576,289.692 454.563,295.936 456.551,302.18 458.539,308.424 460.526,314.668 462.514,320.912 464.501,327.155 466.489,333.399 468.477,339.643 470.464,345.887 472.452,352.131 474.44,358.374 476.427,364.618 478.415,370.862 480.403,377.106 482.39,383.35 484.378,389.593 486.365,395.837 488.353,402.081 490.341,408.325 492.328,414.569 494.316,420.812 496.304,427.056 498.291,433.3 500.279,439.544 502.267,445.787 504.254,452.031 506.242,458.275 508.229,464.518 510.217,470.762 512.205,477.006 514.192,483.249 516.18,489.493 518.168,495.737 520.155,501.98 522.143,508.224 524.131,514.468 526.118,520.711 528.106,526.955 530.093,533.198 532.081,539.442 534.069,545.685 536.056,551.929 538.044,558.172 540.032,564.415 542.019,570.659 544.007,576.902 545.995,583.145 547.982,589.389 549.97,595.632 551.957,601.875 553.945,608.118 555.933,614.361 557.92,620.604 559.908,626.847 561.896,633.09 563.883,639.333 565.871,645.576 567.859,651.818 569.846,658.061 571.834,664.304 573.821,670.546 575.809,676.788 577.797,683.031 579.784,689.273 581.772,695.515 583.76,701.757 585.747,707.998 587.735,714.24 589.723,720.481 591.71,726.723 593.698,732.964 595.685,739.205 597.673,745.445 599.661,751.686 601.648,757.926 603.636,764.166 605.624,770.406 607.611,776.645 609.599,782.884 611.587,789.123 613.574,795.362 615.562,801.599 617.549,807.837 619.537,814.074 621.525,820.311 623.512,826.547 625.5,832.782 627.488,839.017 629.475,845.251 631.463,851.484 633.451,857.717 635.438,863.948 637.426,870.179 639.413,876.408 641.401,882.636 643.389,888.863 645.376,895.088 647.364,901.312 649.352,907.534 651.339,913.754 653.327,919.971 655.315,926.186 657.302,932.398 659.29,938.607 661.277,944.812 663.265,951.012 665.253,957.208 667.24,963.398 669.228,969.582 671.216,975.758 673.203,981.926 675.191,988.084 677.179,994.229 679.166,1000.36 681.154,1006.48 683.141,1012.58 685.129,1018.65 687.117,1024.7 689.104,1030.72 691.092,1036.71 693.08,1042.65 695.067,1048.55 697.055,1054.37 699.043,1060.09 701.03,1065.65 703.018,1070.93 705.005,1075.77 706.993,1079.9 708.981,1083.11 710.968,1085.32 712.956,1086.69 714.944,1087.53 716.931,1088.17 718.919,1088.9 720.907,1089.96 722.894,1091.44 724.882,1093.26 726.869,1095.13 728.857,1096.74 730.845,1097.93 732.832,1098.68 734.82,1099.12 736.808,1099.35 738.795,1099.47 740.783,1099.53 742.771,1099.53 744.758,1099.54 746.746,1099.54 748.733,1099.55 750.721,1099.55 752.709,1099.55 754.696,1099.56 756.684,1099.56 758.672,1099.56 760.659,1099.56 762.647,1099.56 764.635,1099.57 766.622,1099.57 768.61,1099.57 770.597,1099.57 772.585,1099.57 774.573,1099.57 776.56,1099.57 778.548,1099.57 780.536,1099.57 782.523,1099.57 784.511,1099.57 786.499,1099.57 788.486,1099.57 790.474,1099.58 792.461,1099.58 794.449,1099.58 796.437,1099.58 798.424,1099.58 800.412,1099.58 802.4,1099.58 804.387,1099.58 806.375,1099.58 808.363,1099.58 810.35,1099.58 812.338,1099.58 814.325,1099.58 816.313,1099.58 818.301,1099.58 820.288,1099.58 822.276,1099.58 824.264,1099.58 826.251,1099.58 828.239,1099.58 830.227,1099.58 832.214,1099.58 834.202,1099.58 836.189,1099.58 838.177,1099.58 840.165,1099.58 842.152,1099.58 844.14,1099.58 846.128,1099.59 848.115,1099.59 850.103,1099.59 852.091,1099.59 854.078,1099.59 856.066,1099.59 858.053,1099.59 860.041,1099.59 862.029,1099.59 864.016,1099.59 866.004,1099.59 867.992,1099.59 869.979,1099.59 871.967,1099.59 873.955,1099.59 875.942,1099.59 877.93,1099.59 879.917,1099.59 881.905,1099.59 883.893,1099.59 885.88,1099.59 887.868,1099.59 889.856,1099.59 891.843,1099.59 893.831,1099.59 895.819,1099.59 897.806,1099.6 899.794,1099.6 901.781,1099.6 903.769,1099.6 905.757,1099.6 907.744,1099.6 909.732,1099.6 911.72,1099.6 913.707,1099.6 915.695,1099.6 917.683,1099.6 919.67,1099.61 921.658,1099.61 923.645,1099.61 925.633,1099.61 927.621,1099.61 929.608,1099.62 931.596,1099.62 933.584,1099.62 935.571,1099.62 937.559,1099.63 939.547,1099.63 941.534,1099.64 943.522,1099.64 945.509,1099.66 947.497,1099.66 949.485,1099.66 951.472,1099.67 953.46,1099.7 955.448,1099.81 957.435,1099.81 959.423,1099.88 961.411,1100.15 963.398,1104.96 965.386,1104.96 967.373,1119.02 969.361,1119.86 971.349,1119.94 973.336,1119.94 975.324,1119.96 977.312,1120 979.299,1120.08 981.287,1120.08 983.275,1120.1 985.262,1120.14 987.25,1120.23 989.237,1120.23 991.225,1120.25 993.213,1120.29 995.2,1120.38 997.188,1120.6 999.176,1120.6 1001.16,1120.66 1003.15,1120.79 1005.14,1121.11 1007.13,1121.11 1009.11,1121.21 1011.1,1121.41 1013.09,1121.94 1015.08,1121.94 1017.06,1122.12 1019.05,1122.51 1021.04,1123.54 1023.03,1124.72 1025.01,1120.57 1027,1143.11 1028.99,1143.11 1030.98,1143.11 1032.97,1143.11 1034.95,1143.11 1036.94,1143.11 1038.93,1143.11 1040.92,1143.11 1042.9,1143.11 1044.89,1143.11 1046.88,1143.11 1048.87,1143.11 1050.85,1143.11 1052.84,1143.11 1054.83,1143.11 1056.82,1143.11 "/>
<polyline clip-path="url(#clip092)" style="stroke:#e26f46; stroke-linecap:round; stroke-linejoin:round; stroke-width:4; stroke-opacity:1; fill:none" points="305.491,1097.77 307.478,1106.54 309.466,1106.54 311.453,1106.54 313.441,1106.54 315.429,1106.54 317.416,1106.54 319.404,1116.07 321.392,1116.77 323.379,1122.97 325.367,1132.97 327.355,1137.54 329.342,1149.1 331.33,1153.82 333.317,1153.82 335.305,1155.54 337.293,1156.44 339.28,1157.37 341.268,1158 343.256,1158.46 345.243,1158.46 347.231,1158.52 349.219,1158.59 351.206,1158.65 353.194,1158.68 355.181,1158.68 357.169,1158.7 359.157,1158.7 361.144,1158.7 363.132,1158.7 365.12,1158.7 367.107,1158.7 369.095,1158.71 371.083,1158.71 373.07,1158.71 375.058,1158.71 377.045,1158.71 379.033,1158.71 381.021,1158.71 383.008,1158.71 384.996,1158.71 386.984,1158.71 388.971,1158.71 390.959,1158.71 392.947,1158.71 394.934,1158.71 396.922,1158.71 398.909,1158.71 400.897,1158.71 402.885,1158.71 404.872,1158.71 406.86,1158.71 408.848,1158.71 410.835,1158.71 412.823,1158.71 "/>
<polyline clip-path="url(#clip092)" style="stroke:#3da44d; stroke-linecap:round; stroke-linejoin:round; stroke-width:4; stroke-opacity:1; fill:none" points="305.491,1097.77 307.478,1097.77 309.466,1117.51 311.453,160.256 313.441,178.272 315.429,178.272 317.416,178.272 319.404,178.272 321.392,178.272 323.379,178.272 325.367,178.272 327.355,178.272 329.342,178.272 331.33,178.272 333.317,178.272 335.305,178.272 337.293,178.272 339.28,178.272 341.268,178.272 343.256,178.272 345.243,178.272 347.231,178.272 349.219,178.272 351.206,178.272 353.194,178.272 355.181,178.272 357.169,178.272 359.157,178.272 361.144,178.272 363.132,178.272 365.12,178.272 367.107,178.272 369.095,178.272 371.083,178.272 373.07,178.272 375.058,178.272 377.045,178.272 379.033,178.272 381.021,178.272 383.008,178.272 384.996,178.272 386.984,178.272 388.971,178.272 390.959,178.272 392.947,178.272 394.934,178.272 396.922,178.272 398.909,178.272 400.897,178.272 402.885,178.272 404.872,178.272 406.86,178.272 408.848,178.272 410.835,178.272 412.823,178.272 414.811,178.272 416.798,178.272 418.786,184.085 420.773,190.087 422.761,196.197 424.749,202.368 426.736,208.571 428.724,214.793 430.712,221.025 432.699,227.262 434.687,233.502 436.675,239.744 438.662,245.987 440.65,252.23 442.637,258.473 444.625,264.717 446.613,270.961 448.6,277.205 450.588,283.449 452.576,289.692 454.563,295.936 456.551,302.18 458.539,308.424 460.526,314.668 462.514,320.912 464.501,327.155 466.489,333.399 468.477,339.643 470.464,345.887 472.452,352.131 474.44,358.374 476.427,364.618 478.415,370.862 480.403,377.106 482.39,383.35 484.378,389.593 486.365,395.837 488.353,402.081 490.341,408.325 492.328,414.569 494.316,420.812 496.304,427.056 498.291,433.3 500.279,439.544 502.267,445.787 504.254,452.031 506.242,458.275 508.229,464.518 510.217,470.762 512.205,477.006 514.192,483.249 516.18,489.493 518.168,495.737 520.155,501.98 522.143,508.224 524.131,514.468 526.118,520.711 528.106,526.955 530.093,533.198 532.081,539.442 534.069,545.685 536.056,551.929 538.044,558.172 540.032,564.415 542.019,570.659 544.007,576.902 545.995,583.145 547.982,589.389 549.97,595.632 551.957,601.875 553.945,608.118 555.933,614.361 557.92,620.604 559.908,626.847 561.896,633.09 563.883,639.333 565.871,645.576 567.859,651.818 569.846,658.061 571.834,664.304 573.821,670.546 575.809,676.788 577.797,683.031 579.784,689.273 581.772,695.515 583.76,701.757 585.747,707.998 587.735,714.24 589.723,720.481 591.71,726.723 593.698,732.964 595.685,739.205 597.673,745.445 599.661,751.686 601.648,757.926 603.636,764.166 605.624,770.406 607.611,776.645 609.599,782.884 611.587,789.123 613.574,795.362 615.562,801.599 617.549,807.837 619.537,814.074 621.525,820.311 623.512,820.311 625.5,821.217 627.488,822.792 629.475,822.792 631.463,823.077 633.451,823.621 635.438,824.62 637.426,824.62 639.413,824.807 641.401,825.17 643.389,825.855 645.376,825.855 647.364,825.986 649.352,826.242 651.339,826.734 653.327,826.734 655.315,826.829 657.302,827.016 659.29,827.38 661.277,827.38 663.265,827.451 665.253,827.591 667.24,827.865 669.228,827.865 671.216,827.919 673.203,828.026 675.191,828.236 677.179,828.641 679.166,828.641 681.154,828.72 683.141,828.876 685.129,829.179 687.117,829.179 689.104,829.239 691.092,829.357 693.08,829.588 695.067,829.588 697.055,829.634 699.043,829.724 701.03,829.902 703.018,829.902 705.005,829.937 706.993,830.007 708.981,830.146 710.968,830.146 712.956,830.173 714.944,830.228 716.931,830.336 718.919,830.549 720.907,830.549 722.894,830.591 724.882,830.674 726.869,830.838 728.857,830.838 730.845,830.871 732.832,830.935 734.82,831.063 736.808,831.063 738.795,831.089 740.783,831.139 742.771,831.239 744.758,831.239 746.746,831.259 748.733,831.299 750.721,831.378 752.709,831.533 754.696,831.533 756.684,831.564 758.672,831.626 760.659,831.747 762.647,831.747 764.635,831.771 766.622,831.819 768.61,831.914 770.597,831.914 772.585,831.933 774.573,831.971 776.56,832.046 778.548,832.046 780.536,832.061 782.523,832.09 784.511,832.15 786.499,832.267 788.486,832.267 790.474,832.29 792.461,832.336 794.449,832.428 796.437,832.428 798.424,832.447 800.412,832.483 802.4,832.556 804.387,832.556 806.375,832.57 808.363,832.599 810.35,832.656 812.338,832.77 814.325,832.77 816.313,832.792 818.301,832.837 820.288,832.926 822.276,832.926 824.264,832.944 826.251,832.979 828.239,833.05 830.227,833.05 832.214,833.064 834.202,833.092 836.189,833.147 838.177,833.147 840.165,833.158 842.152,833.18 844.14,833.224 846.128,833.312 848.115,833.312 850.103,833.329 852.091,833.364 854.078,833.433 856.066,833.433 858.053,833.446 860.041,833.474 862.029,833.528 864.016,833.528 866.004,833.539 867.992,833.561 869.979,833.604 871.967,833.69 873.955,833.69 875.942,833.707 877.93,833.741 879.917,833.809 881.905,833.809 883.893,833.822 885.88,833.849 887.868,833.903 889.856,833.903 891.843,833.913 893.831,833.935 895.819,833.977 897.806,833.977 899.794,833.986 901.781,834.003 903.769,834.036 905.757,834.103 907.744,834.103 909.732,834.117 911.72,834.143 913.707,834.196 915.695,834.196 917.683,834.207 919.67,834.228 921.658,834.27 923.645,834.27 925.633,834.279 927.621,834.295 929.608,834.329 931.596,834.395 933.584,834.395 935.571,834.409 937.559,834.435 939.547,834.488 941.534,834.488 943.522,834.498 945.509,834.519 947.497,834.561 949.485,834.561 951.472,834.569 953.46,834.586 955.448,834.619 957.435,834.619 959.423,834.625 961.411,834.639 963.398,834.665 965.386,834.718 967.373,834.718 969.361,834.728 971.349,834.749 973.336,834.791 975.324,834.791 977.312,834.799 979.299,834.816 981.287,834.849 983.275,834.849 985.262,834.855 987.25,834.868 989.237,834.895 991.225,834.947 993.213,834.947 995.2,834.958 997.188,834.978 999.176,835.02 1001.16,835.02 1003.15,835.028 1005.14,835.045 1007.13,835.078 1009.11,835.078 1011.1,835.085 1013.09,835.098 1015.08,835.124 1017.06,835.176 1019.05,835.176 1021.04,835.187 1023.03,835.208 1025.01,835.249 1027,835.249 1028.99,835.257 1030.98,835.274 1032.97,835.307 1034.95,835.307 1036.94,835.313 1038.93,835.327 1040.92,835.353 1042.9,835.353 1044.89,835.358 1046.88,835.369 1048.87,835.389 1050.85,835.431 1052.84,835.431 1054.83,835.439 1056.82,835.456 1058.8,835.489 1060.79,835.489 1062.78,835.496 1064.77,835.509 1066.76,835.535 1068.74,835.535 1070.73,835.54 1072.72,835.551 1074.71,835.572 1076.69,835.614 1078.68,835.614 1080.67,835.622 1082.66,835.639 1084.64,835.672 1086.63,835.672 1088.62,835.679 1090.61,835.692 1092.59,835.718 1094.58,835.718 1096.57,835.723 1098.56,835.734 1100.55,835.755 1102.53,835.797 1104.52,835.797 1106.51,835.805 1108.5,835.822 1110.48,835.855 1112.47,835.855 1114.46,835.862 1116.45,835.875 1118.43,835.902 1120.42,835.902 1122.41,835.907 1124.4,835.918 1126.38,835.939 1128.37,835.939 1130.36,835.943 1132.35,835.951 1134.33,835.968 1136.32,836.002 1138.31,836.002 1140.3,836.008 1142.29,836.022 1144.27,836.049 1146.26,836.049 1148.25,836.054 1150.24,836.065 1152.22,836.086 1154.21,836.086 1156.2,836.09 1158.19,836.099 1160.17,836.115 1162.16,836.149 1164.15,836.149 1166.14,836.156 1168.12,836.169 1170.11,836.196 1172.1,836.196 1174.09,836.202 1176.08,836.212 1178.06,836.234 1180.05,836.234 1182.04,836.238 1184.03,836.247 1186.01,836.264 1188,836.298 1189.99,836.298 1191.98,836.305 1193.96,836.318 1195.95,836.345 1197.94,836.345 1199.93,836.351 1201.91,836.362 1203.9,836.383 1205.89,836.383 1207.88,836.387 1209.87,836.396 1211.85,836.413 1213.84,836.448 1215.83,836.448 1217.82,836.454 1219.8,836.468 1221.79,836.495 1223.78,836.495 1225.77,836.501 1227.75,836.512 1229.74,836.533 1231.73,836.533 1233.72,836.538 1235.7,836.546 1237.69,836.564 1239.68,836.564 1241.67,836.567 1243.65,836.574 1245.64,836.588 1247.63,836.615 1249.62,836.615 1251.61,836.621 1253.59,836.632 1255.58,836.654 1257.57,836.654 1259.56,836.658 1261.54,836.667 1263.53,836.685 1265.52,836.685 1267.51,836.688 1269.49,836.695 1271.48,836.709 1273.47,836.737 1275.46,836.737 1277.44,836.742 1279.43,836.753 1281.42,836.776 1283.41,836.776 1285.4,836.78 1287.38,836.789 1289.37,836.807 1291.36,836.807 1293.35,836.81 1295.33,836.817 1297.32,836.831 1299.31,836.859 1301.3,836.859 1303.28,836.865 1305.27,836.876 1307.26,836.899 1309.25,836.899 1311.23,836.903 1313.22,836.912 1315.21,836.93 1317.2,836.93 1319.19,836.934 1321.17,836.941 1323.16,836.955 1325.15,836.983 1327.14,836.983 1329.12,836.989 1331.11,837 1333.1,837.023 1335.09,837.023 1337.07,837.027 1339.06,837.036 1341.05,837.054 1343.04,837.054 1345.02,837.058 1347.01,837.065 1349,837.08 1350.99,837.108 1352.97,837.108 1354.96,837.114 1356.95,837.126 1358.94,837.148 1360.93,837.148 1362.91,837.153 1364.9,837.162 1366.89,837.18 1368.88,837.18 1370.86,837.184 1372.85,837.191 1374.84,837.206 1376.83,837.206 1378.81,837.209 1380.8,837.214 1382.79,837.226 1384.78,837.249 1386.76,837.249 1388.75,837.254 1390.74,837.263 1392.73,837.281 1394.72,837.281 1396.7,837.285 1398.69,837.292 1400.68,837.307 1402.67,837.307 1404.65,837.31 1406.64,837.316 1408.63,837.328 1410.62,837.351 1412.6,837.351 1414.59,837.356 1416.58,837.365 1418.57,837.384 1420.55,837.384 1422.54,837.388 1424.53,837.395 1426.52,837.41 1428.51,837.41 1430.49,837.413 1432.48,837.419 1434.47,837.431 1436.46,837.454 1438.44,837.454 1440.43,837.459 1442.42,837.469 1444.41,837.487 1446.39,837.487 1448.38,837.491 1450.37,837.499 1452.36,837.514 1454.34,837.514 1456.33,837.517 1458.32,837.523 1460.31,837.535 1462.29,837.559 1464.28,837.559 1466.27,837.564 1468.26,837.573 1470.25,837.592 1472.23,837.592 1474.22,837.596 1476.21,837.604 1478.2,837.619 1480.18,837.619 1482.17,837.622 1484.16,837.628 1486.15,837.64 1488.13,837.64 1490.12,837.643 1492.11,837.648 1494.1,837.657 1496.08,837.677 1498.07,837.677 1500.06,837.681 1502.05,837.688 1504.04,837.704 1506.02,837.704 1508.01,837.707 1510,837.713 1511.99,837.726 1513.97,837.726 1515.96,837.728 1517.95,837.733 1519.94,837.743 1521.92,837.762 1523.91,837.762 1525.9,837.766 1527.89,837.774 1529.87,837.79 1531.86,837.79 1533.85,837.793 1535.84,837.799 1537.83,837.812 1539.81,837.812 1541.8,837.814 1543.79,837.819 1545.78,837.829 1547.76,837.849 1549.75,837.849 1551.74,837.853 1553.73,837.861 1555.71,837.877 1557.7,837.877 1559.69,837.88 1561.68,837.887 1563.66,837.899 1565.65,837.899 1567.64,837.902 1569.63,837.907 1571.61,837.917 1573.6,837.937 1575.59,837.937 1577.58,837.941 1579.57,837.949 1581.55,837.966 1583.54,837.966 1585.53,837.969 1587.52,837.975 1589.5,837.988 1591.49,837.988 1593.48,837.991 1595.47,837.996 1597.45,838.006 1599.44,838.027 1601.43,838.027 1603.42,838.031 1605.4,838.039 1607.39,838.055 1609.38,838.055 1611.37,838.059 1613.36,838.065 1615.34,838.078 1617.33,838.078 1619.32,838.081 1621.31,838.086 1623.29,838.096 1625.28,838.117 1627.27,838.117 1629.26,838.121 1631.24,838.13 1633.23,838.146 1635.22,838.146 1637.21,838.15 1639.19,838.156 1641.18,838.169 1643.17,838.169 1645.16,838.172 1647.15,838.177 1649.13,838.188 1651.12,838.188 1653.11,838.19 1655.1,838.194 1657.08,838.203 1659.07,838.219 1661.06,838.219 1663.05,838.223 1665.03,838.23 1667.02,838.243 1669.01,838.243 1671,838.246 1672.98,838.251 1674.97,838.262 1676.96,838.262 1678.95,838.264 1680.93,838.268 1682.92,838.277 1684.91,838.294 1686.9,838.294 1688.89,838.297 1690.87,838.304 1692.86,838.318 1694.85,838.318 1696.84,838.321 1698.82,838.326 1700.81,838.337 1702.8,838.337 1704.79,838.339 1706.77,838.343 1708.76,838.352 1710.75,838.369 1712.74,838.369 1714.72,838.373 1716.71,838.38 1718.7,838.394 1720.69,838.394 1722.68,838.396 1724.66,838.402 1726.65,838.413 1728.64,838.413 1730.63,838.415 1732.61,838.42 1734.6,838.429 1736.59,838.446 1738.58,838.446 1740.56,838.45 1742.55,838.457 1744.54,838.471 1746.53,838.471 1748.51,838.474 1750.5,838.479 1752.49,838.49 1754.48,838.49 1756.47,838.493 1758.45,838.497 1760.44,838.506 1762.43,838.524 1764.42,838.524 1766.4,838.528 1768.39,838.535 1770.38,838.549 1772.37,838.549 1774.35,838.552 1776.34,838.558 1778.33,838.569 1780.32,838.569 1782.3,838.571 1784.29,838.576 1786.28,838.585 1788.27,838.585 1790.25,838.587 1792.24,838.59 1794.23,838.598 1796.22,838.612 1798.21,838.612 1800.19,838.615 1802.18,838.621 1804.17,838.632 1806.16,838.632 1808.14,838.635 1810.13,838.639 1812.12,838.649 1814.11,838.649 1816.09,838.651 1818.08,838.654 1820.07,838.662 1822.06,838.676 1824.04,838.676 1826.03,838.679 1828.02,838.685 1830.01,838.697 1832,838.697 1833.98,838.699 1835.97,838.704 1837.96,838.713 1839.95,838.713 1841.93,838.715 1843.92,838.719 1845.91,838.727 1847.9,838.742 1849.88,838.742 1851.87,838.745 1853.86,838.751 1855.85,838.763 1857.83,838.763 1859.82,838.765 1861.81,838.77 1863.8,838.779 1865.79,838.779 1867.77,838.781 1869.76,838.785 1871.75,838.793 1873.74,838.808 1875.72,838.808 1877.71,838.811 1879.7,838.817 1881.69,838.829 1883.67,838.829 1885.66,838.832 1887.65,838.837 1889.64,838.846 1891.62,838.846 1893.61,838.848 1895.6,838.852 1897.59,838.86 1899.57,838.875 1901.56,838.875 1903.55,838.878 1905.54,838.885 1907.53,838.897 1909.51,838.897 1911.5,838.9 1913.49,838.904 1915.48,838.914 1917.46,838.914 1919.45,838.916 1921.44,838.92 1923.43,838.928 1925.41,838.944 1927.4,838.944 1929.39,838.947 1931.38,838.953 1933.36,838.966 1935.35,838.966 1937.34,838.968 1939.33,838.973 1941.32,838.983 1943.3,838.983 1945.29,838.985 1947.28,838.99 1949.27,838.998 1951.25,838.998 1953.24,838.999 1955.23,839.002 1957.22,839.009 1959.2,839.022 1961.19,839.022 1963.18,839.024 1965.17,839.029 1967.15,839.039 1969.14,839.039 1971.13,839.041 1973.12,839.046 1975.11,839.054 1977.09,839.054 1979.08,839.055 1981.07,839.059 1983.06,839.065 1985.04,839.078 1987.03,839.078 1989.02,839.081 1991.01,839.086 1992.99,839.096 1994.98,839.096 1996.97,839.098 1998.96,839.103 2000.94,839.111 2002.93,839.111 2004.92,839.113 2006.91,839.116 2008.89,839.122 2010.88,839.136 2012.87,839.136 2014.86,839.138 2016.85,839.144 2018.83,839.154 2020.82,839.154 2022.81,839.156 2024.8,839.161 2026.78,839.169 2028.77,839.169 2030.76,839.171 2032.75,839.174 2034.73,839.181 2036.72,839.194 2038.71,839.194 2040.7,839.197 2042.68,839.202 2044.67,839.213 2046.66,839.213 2048.65,839.215 2050.64,839.22 2052.62,839.228 2054.61,839.228 2056.6,839.23 2058.59,839.233 2060.57,839.24 2062.56,839.254 2064.55,839.254 2066.54,839.257 2068.52,839.262 2070.51,839.273 2072.5,839.273 2074.49,839.275 2076.47,839.28 2078.46,839.288 2080.45,839.288 2082.44,839.29 2084.43,839.294 2086.41,839.301 2088.4,839.315 2090.39,839.315 2092.38,839.317 2094.36,839.323 2096.35,839.334 2098.34,839.334 2100.33,839.336 2102.31,839.341 2104.3,839.35 2106.29,839.35 2108.28,839.351 2110.26,839.355 2112.25,839.362 2114.24,839.362 2116.23,839.363 2118.21,839.366 2120.2,839.372 2122.19,839.383 2124.18,839.383 2126.17,839.386 2128.15,839.39 2130.14,839.399 2132.13,839.399 2134.12,839.401 2136.1,839.405 2138.09,839.412 2140.08,839.412 2142.07,839.413 2144.05,839.416 2146.04,839.422 2148.03,839.433 2150.02,839.433 2152,839.436 2153.99,839.44 2155.98,839.45 2157.97,839.45 2159.96,839.451 2161.94,839.455 2163.93,839.462 2165.92,839.462 2167.91,839.464 2169.89,839.467 2171.88,839.473 2173.87,839.484 2175.86,839.484 2177.84,839.487 2179.83,839.492 2181.82,839.501 2183.81,839.501 2185.79,839.503 2187.78,839.507 2189.77,839.514 2191.76,839.514 2193.75,839.516 2195.73,839.519 2197.72,839.525 2199.71,839.536 2201.7,839.536 2203.68,839.539 2205.67,839.544 2207.66,839.553 2209.65,839.553 2211.63,839.555 2213.62,839.559 2215.61,839.567 2217.6,839.567 2219.58,839.568 2221.57,839.571 2223.56,839.577 2225.55,839.589 2227.53,839.589 2229.52,839.592 2231.51,839.597 2233.5,839.606 2235.49,839.606 2237.47,839.608 2239.46,839.612 2241.45,839.62 2243.44,839.62 2245.42,839.622 2247.41,839.625 2249.4,839.631 2251.39,839.643 2253.37,839.643 2255.36,839.646 2257.35,839.651 2259.34,839.661 2261.32,839.661 2263.31,839.663 2265.3,839.667 2267.29,839.674 2269.28,839.674 2271.26,839.676 2273.25,839.679 2275.24,839.686 2277.23,839.698 2279.21,839.698 2281.2,839.701 2283.19,839.706 2285.18,839.716 2287.16,839.716 2289.15,839.718 2291.14,839.722 2293.13,839.73 "/>
<polyline clip-path="url(#clip092)" style="stroke:#c271d2; stroke-linecap:round; stroke-linejoin:round; stroke-width:4; stroke-opacity:1; fill:none" points="305.491,1097.77 307.478,1106.54 309.466,1106.54 311.453,1106.54 313.441,1106.54 315.429,1106.54 317.416,1106.54 319.404,1116.63 321.392,1117 323.379,1121.73 325.367,1131.83 327.355,1139.63 329.342,1143.58 331.33,1143.58 333.317,1153.2 335.305,1154.54 337.293,1155.9 339.28,1157.29 341.268,1158.24 343.256,1158.24 345.243,1158.36 347.231,1158.49 349.219,1158.61 351.206,1158.68 353.194,1158.68 355.181,1158.69 357.169,1158.7 359.157,1158.7 361.144,1158.7 363.132,1158.7 365.12,1158.7 367.107,1158.7 369.095,1158.71 371.083,1158.71 373.07,1158.71 375.058,1158.71 377.045,1158.71 379.033,1158.71 381.021,1158.71 383.008,1158.71 384.996,1158.71 386.984,1158.71 388.971,1158.71 390.959,1158.71 392.947,1158.71 394.934,1158.71 396.922,1158.71 398.909,1158.71 400.897,1158.71 402.885,1158.71 404.872,1158.71 406.86,1158.71 408.848,1158.71 410.835,1158.71 412.823,1158.71 414.811,1158.71 "/>
<polyline clip-path="url(#clip092)" style="stroke:#ac8d18; stroke-linecap:round; stroke-linejoin:round; stroke-width:4; stroke-opacity:1; fill:none" points="305.491,1097.77 307.478,1106.54 309.466,1106.54 311.453,1106.54 313.441,1106.54 315.429,1106.54 317.416,1106.54 319.404,1106.54 321.392,1117.16 323.379,1118.74 325.367,1121.75 327.355,1127.7 329.342,1134.13 331.33,1138.89 333.317,1138.89 335.305,1140.84 337.293,1143.75 339.28,1151.8 341.268,1163.25 343.256,1179.84 345.243,1201.18 347.231,1213.2 349.219,1216.85 351.206,1222.1 353.194,1231.5 355.181,1252.1 357.169,1286.96 359.157,1331.77 361.144,1386.4 "/>
<path clip-path="url(#clip090)" d="M1748.74 477.836 L2282.53 477.836 L2282.53 166.796 L1748.74 166.796  Z" fill="#ffffff" fill-rule="evenodd" fill-opacity="1"/>
<polyline clip-path="url(#clip090)" style="stroke:#000000; stroke-linecap:round; stroke-linejoin:round; stroke-width:4; stroke-opacity:1; fill:none" points="1748.74,477.836 2282.53,477.836 2282.53,166.796 1748.74,166.796 1748.74,477.836 "/>
<polyline clip-path="url(#clip090)" style="stroke:#009af9; stroke-linecap:round; stroke-linejoin:round; stroke-width:4; stroke-opacity:1; fill:none" points="1772.15,218.636 1912.61,218.636 "/>
<path clip-path="url(#clip090)" d="M1936.02 201.356 L1940.69 201.356 L1940.69 231.981 L1957.52 231.981 L1957.52 235.916 L1936.02 235.916 L1936.02 201.356 Z" fill="#000000" fill-rule="nonzero" fill-opacity="1" /><path clip-path="url(#clip090)" d="M1962.43 201.356 L1969.4 201.356 L1978.21 224.874 L1987.08 201.356 L1994.05 201.356 L1994.05 235.916 L1989.49 235.916 L1989.49 205.569 L1980.58 229.272 L1975.88 229.272 L1966.96 205.569 L1966.96 235.916 L1962.43 235.916 L1962.43 201.356 Z" fill="#000000" fill-rule="nonzero" fill-opacity="1" /><path clip-path="url(#clip090)" d="M2022.84 243.786 L2022.84 247.096 L1998.21 247.096 L1998.21 243.786 L2022.84 243.786 Z" fill="#000000" fill-rule="nonzero" fill-opacity="1" /><path clip-path="url(#clip090)" d="M2047.75 202.49 L2047.75 207.05 Q2045.09 205.777 2042.73 205.152 Q2040.37 204.527 2038.17 204.527 Q2034.35 204.527 2032.27 206.008 Q2030.21 207.49 2030.21 210.221 Q2030.21 212.513 2031.57 213.694 Q2032.96 214.851 2036.8 215.569 L2039.63 216.147 Q2044.86 217.143 2047.33 219.666 Q2049.83 222.166 2049.83 226.379 Q2049.83 231.402 2046.46 233.994 Q2043.1 236.587 2036.59 236.587 Q2034.14 236.587 2031.36 236.031 Q2028.61 235.476 2025.65 234.388 L2025.65 229.573 Q2028.49 231.17 2031.22 231.981 Q2033.96 232.791 2036.59 232.791 Q2040.6 232.791 2042.77 231.217 Q2044.95 229.643 2044.95 226.726 Q2044.95 224.18 2043.38 222.744 Q2041.83 221.309 2038.26 220.592 L2035.41 220.036 Q2030.18 218.995 2027.84 216.772 Q2025.51 214.55 2025.51 210.592 Q2025.51 206.008 2028.72 203.37 Q2031.96 200.731 2037.64 200.731 Q2040.07 200.731 2042.59 201.171 Q2045.11 201.61 2047.75 202.49 Z" fill="#000000" fill-rule="nonzero" fill-opacity="1" /><path clip-path="url(#clip090)" d="M2061.8 205.198 L2061.8 218.184 L2067.68 218.184 Q2070.95 218.184 2072.73 216.495 Q2074.51 214.805 2074.51 211.68 Q2074.51 208.578 2072.73 206.888 Q2070.95 205.198 2067.68 205.198 L2061.8 205.198 M2057.13 201.356 L2067.68 201.356 Q2073.49 201.356 2076.46 203.995 Q2079.44 206.61 2079.44 211.68 Q2079.44 216.795 2076.46 219.411 Q2073.49 222.027 2067.68 222.027 L2061.8 222.027 L2061.8 235.916 L2057.13 235.916 L2057.13 201.356 Z" fill="#000000" fill-rule="nonzero" fill-opacity="1" /><path clip-path="url(#clip090)" d="M2109.28 230.985 L2109.28 221.703 L2101.64 221.703 L2101.64 217.86 L2113.91 217.86 L2113.91 232.698 Q2111.2 234.619 2107.94 235.615 Q2104.67 236.587 2100.97 236.587 Q2092.87 236.587 2088.28 231.865 Q2083.72 227.119 2083.72 218.67 Q2083.72 210.198 2088.28 205.476 Q2092.87 200.731 2100.97 200.731 Q2104.35 200.731 2107.38 201.564 Q2110.44 202.397 2113.01 204.018 L2113.01 208.995 Q2110.41 206.796 2107.5 205.684 Q2104.58 204.573 2101.36 204.573 Q2095.02 204.573 2091.83 208.115 Q2088.65 211.657 2088.65 218.67 Q2088.65 225.661 2091.83 229.203 Q2095.02 232.744 2101.36 232.744 Q2103.84 232.744 2105.78 232.328 Q2107.73 231.888 2109.28 230.985 Z" fill="#000000" fill-rule="nonzero" fill-opacity="1" /><polyline clip-path="url(#clip090)" style="stroke:#e26f46; stroke-linecap:round; stroke-linejoin:round; stroke-width:4; stroke-opacity:1; fill:none" points="1772.15,270.476 1912.61,270.476 "/>
<path clip-path="url(#clip090)" d="M1936.02 253.196 L1940.69 253.196 L1940.69 283.821 L1957.52 283.821 L1957.52 287.756 L1936.02 287.756 L1936.02 253.196 Z" fill="#000000" fill-rule="nonzero" fill-opacity="1" /><path clip-path="url(#clip090)" d="M1962.43 253.196 L1969.4 253.196 L1978.21 276.714 L1987.08 253.196 L1994.05 253.196 L1994.05 287.756 L1989.49 287.756 L1989.49 257.409 L1980.58 281.112 L1975.88 281.112 L1966.96 257.409 L1966.96 287.756 L1962.43 287.756 L1962.43 253.196 Z" fill="#000000" fill-rule="nonzero" fill-opacity="1" /><path clip-path="url(#clip090)" d="M2022.84 295.626 L2022.84 298.936 L1998.21 298.936 L1998.21 295.626 L2022.84 295.626 Z" fill="#000000" fill-rule="nonzero" fill-opacity="1" /><path clip-path="url(#clip090)" d="M2038.58 257.802 L2032.24 275.001 L2044.95 275.001 L2038.58 257.802 M2035.95 253.196 L2041.25 253.196 L2054.42 287.756 L2049.56 287.756 L2046.41 278.89 L2030.83 278.89 L2027.68 287.756 L2022.75 287.756 L2035.95 253.196 Z" fill="#000000" fill-rule="nonzero" fill-opacity="1" /><path clip-path="url(#clip090)" d="M2080.83 272.108 L2080.83 287.756 L2076.57 287.756 L2076.57 272.247 Q2076.57 268.566 2075.14 266.737 Q2073.7 264.909 2070.83 264.909 Q2067.38 264.909 2065.39 267.108 Q2063.4 269.307 2063.4 273.103 L2063.4 287.756 L2059.12 287.756 L2059.12 261.83 L2063.4 261.83 L2063.4 265.858 Q2064.93 263.52 2066.99 262.362 Q2069.07 261.205 2071.78 261.205 Q2076.25 261.205 2078.54 263.983 Q2080.83 266.737 2080.83 272.108 Z" fill="#000000" fill-rule="nonzero" fill-opacity="1" /><path clip-path="url(#clip090)" d="M2106.39 265.765 L2106.39 251.737 L2110.64 251.737 L2110.64 287.756 L2106.39 287.756 L2106.39 283.867 Q2105.04 286.182 2102.98 287.316 Q2100.95 288.427 2098.08 288.427 Q2093.38 288.427 2090.41 284.677 Q2087.47 280.927 2087.47 274.816 Q2087.47 268.705 2090.41 264.955 Q2093.38 261.205 2098.08 261.205 Q2100.95 261.205 2102.98 262.339 Q2105.04 263.45 2106.39 265.765 M2091.87 274.816 Q2091.87 279.515 2093.79 282.2 Q2095.74 284.862 2099.12 284.862 Q2102.5 284.862 2104.44 282.2 Q2106.39 279.515 2106.39 274.816 Q2106.39 270.117 2104.44 267.455 Q2102.5 264.77 2099.12 264.77 Q2095.74 264.77 2093.79 267.455 Q2091.87 270.117 2091.87 274.816 Z" fill="#000000" fill-rule="nonzero" fill-opacity="1" /><path clip-path="url(#clip090)" d="M2134.44 265.811 Q2133.72 265.395 2132.87 265.21 Q2132.03 265.001 2131.01 265.001 Q2127.4 265.001 2125.46 267.362 Q2123.54 269.7 2123.54 274.098 L2123.54 287.756 L2119.26 287.756 L2119.26 261.83 L2123.54 261.83 L2123.54 265.858 Q2124.88 263.497 2127.03 262.362 Q2129.19 261.205 2132.26 261.205 Q2132.7 261.205 2133.24 261.274 Q2133.77 261.321 2134.42 261.436 L2134.44 265.811 Z" fill="#000000" fill-rule="nonzero" fill-opacity="1" /><path clip-path="url(#clip090)" d="M2160.04 273.728 L2160.04 275.811 L2140.46 275.811 Q2140.74 280.209 2143.1 282.524 Q2145.48 284.816 2149.72 284.816 Q2152.17 284.816 2154.46 284.214 Q2156.78 283.612 2159.05 282.409 L2159.05 286.436 Q2156.76 287.408 2154.35 287.918 Q2151.94 288.427 2149.46 288.427 Q2143.26 288.427 2139.63 284.816 Q2136.01 281.205 2136.01 275.047 Q2136.01 268.682 2139.44 264.955 Q2142.89 261.205 2148.72 261.205 Q2153.95 261.205 2156.99 264.585 Q2160.04 267.941 2160.04 273.728 M2155.78 272.478 Q2155.74 268.983 2153.82 266.899 Q2151.92 264.816 2148.77 264.816 Q2145.2 264.816 2143.05 266.83 Q2140.92 268.844 2140.6 272.501 L2155.78 272.478 Z" fill="#000000" fill-rule="nonzero" fill-opacity="1" /><path clip-path="url(#clip090)" d="M2167.03 261.83 L2171.29 261.83 L2171.29 287.756 L2167.03 287.756 L2167.03 261.83 M2167.03 251.737 L2171.29 251.737 L2171.29 257.131 L2167.03 257.131 L2167.03 251.737 Z" fill="#000000" fill-rule="nonzero" fill-opacity="1" /><path clip-path="url(#clip090)" d="M2199.9 295.626 L2199.9 298.936 L2175.27 298.936 L2175.27 295.626 L2199.9 295.626 Z" fill="#000000" fill-rule="nonzero" fill-opacity="1" /><path clip-path="url(#clip090)" d="M2215.69 274.723 Q2210.53 274.723 2208.54 275.904 Q2206.55 277.084 2206.55 279.932 Q2206.55 282.2 2208.03 283.543 Q2209.53 284.862 2212.1 284.862 Q2215.64 284.862 2217.77 282.362 Q2219.93 279.839 2219.93 275.672 L2219.93 274.723 L2215.69 274.723 M2224.19 272.964 L2224.19 287.756 L2219.93 287.756 L2219.93 283.821 Q2218.47 286.182 2216.29 287.316 Q2214.12 288.427 2210.97 288.427 Q2206.99 288.427 2204.63 286.205 Q2202.29 283.959 2202.29 280.209 Q2202.29 275.834 2205.2 273.612 Q2208.14 271.39 2213.95 271.39 L2219.93 271.39 L2219.93 270.973 Q2219.93 268.034 2217.98 266.436 Q2216.06 264.816 2212.57 264.816 Q2210.34 264.816 2208.24 265.348 Q2206.13 265.881 2204.19 266.946 L2204.19 263.01 Q2206.52 262.108 2208.72 261.668 Q2210.92 261.205 2213.01 261.205 Q2218.63 261.205 2221.41 264.122 Q2224.19 267.038 2224.19 272.964 Z" fill="#000000" fill-rule="nonzero" fill-opacity="1" /><path clip-path="url(#clip090)" d="M2232.96 251.737 L2237.22 251.737 L2237.22 287.756 L2232.96 287.756 L2232.96 251.737 Z" fill="#000000" fill-rule="nonzero" fill-opacity="1" /><path clip-path="url(#clip090)" d="M2250.34 254.469 L2250.34 261.83 L2259.12 261.83 L2259.12 265.14 L2250.34 265.14 L2250.34 279.214 Q2250.34 282.385 2251.2 283.288 Q2252.08 284.191 2254.74 284.191 L2259.12 284.191 L2259.12 287.756 L2254.74 287.756 Q2249.81 287.756 2247.94 285.927 Q2246.06 284.075 2246.06 279.214 L2246.06 265.14 L2242.94 265.14 L2242.94 261.83 L2246.06 261.83 L2246.06 254.469 L2250.34 254.469 Z" fill="#000000" fill-rule="nonzero" fill-opacity="1" /><polyline clip-path="url(#clip090)" style="stroke:#3da44d; stroke-linecap:round; stroke-linejoin:round; stroke-width:4; stroke-opacity:1; fill:none" points="1772.15,322.316 1912.61,322.316 "/>
<path clip-path="url(#clip090)" d="M1936.02 305.036 L1940.69 305.036 L1940.69 335.661 L1957.52 335.661 L1957.52 339.596 L1936.02 339.596 L1936.02 305.036 Z" fill="#000000" fill-rule="nonzero" fill-opacity="1" /><path clip-path="url(#clip090)" d="M1962.43 305.036 L1969.4 305.036 L1978.21 328.554 L1987.08 305.036 L1994.05 305.036 L1994.05 339.596 L1989.49 339.596 L1989.49 309.249 L1980.58 332.952 L1975.88 332.952 L1966.96 309.249 L1966.96 339.596 L1962.43 339.596 L1962.43 305.036 Z" fill="#000000" fill-rule="nonzero" fill-opacity="1" /><path clip-path="url(#clip090)" d="M2022.84 347.466 L2022.84 350.776 L1998.21 350.776 L1998.21 347.466 L2022.84 347.466 Z" fill="#000000" fill-rule="nonzero" fill-opacity="1" /><path clip-path="url(#clip090)" d="M2038.58 309.642 L2032.24 326.841 L2044.95 326.841 L2038.58 309.642 M2035.95 305.036 L2041.25 305.036 L2054.42 339.596 L2049.56 339.596 L2046.41 330.73 L2030.83 330.73 L2027.68 339.596 L2022.75 339.596 L2035.95 305.036 Z" fill="#000000" fill-rule="nonzero" fill-opacity="1" /><path clip-path="url(#clip090)" d="M2080.83 323.948 L2080.83 339.596 L2076.57 339.596 L2076.57 324.087 Q2076.57 320.406 2075.14 318.577 Q2073.7 316.749 2070.83 316.749 Q2067.38 316.749 2065.39 318.948 Q2063.4 321.147 2063.4 324.943 L2063.4 339.596 L2059.12 339.596 L2059.12 313.67 L2063.4 313.67 L2063.4 317.698 Q2064.93 315.36 2066.99 314.202 Q2069.07 313.045 2071.78 313.045 Q2076.25 313.045 2078.54 315.823 Q2080.83 318.577 2080.83 323.948 Z" fill="#000000" fill-rule="nonzero" fill-opacity="1" /><path clip-path="url(#clip090)" d="M2106.39 317.605 L2106.39 303.577 L2110.64 303.577 L2110.64 339.596 L2106.39 339.596 L2106.39 335.707 Q2105.04 338.022 2102.98 339.156 Q2100.95 340.267 2098.08 340.267 Q2093.38 340.267 2090.41 336.517 Q2087.47 332.767 2087.47 326.656 Q2087.47 320.545 2090.41 316.795 Q2093.38 313.045 2098.08 313.045 Q2100.95 313.045 2102.98 314.179 Q2105.04 315.29 2106.39 317.605 M2091.87 326.656 Q2091.87 331.355 2093.79 334.04 Q2095.74 336.702 2099.12 336.702 Q2102.5 336.702 2104.44 334.04 Q2106.39 331.355 2106.39 326.656 Q2106.39 321.957 2104.44 319.295 Q2102.5 316.61 2099.12 316.61 Q2095.74 316.61 2093.79 319.295 Q2091.87 321.957 2091.87 326.656 Z" fill="#000000" fill-rule="nonzero" fill-opacity="1" /><path clip-path="url(#clip090)" d="M2134.44 317.651 Q2133.72 317.235 2132.87 317.05 Q2132.03 316.841 2131.01 316.841 Q2127.4 316.841 2125.46 319.202 Q2123.54 321.54 2123.54 325.938 L2123.54 339.596 L2119.26 339.596 L2119.26 313.67 L2123.54 313.67 L2123.54 317.698 Q2124.88 315.337 2127.03 314.202 Q2129.19 313.045 2132.26 313.045 Q2132.7 313.045 2133.24 313.114 Q2133.77 313.161 2134.42 313.276 L2134.44 317.651 Z" fill="#000000" fill-rule="nonzero" fill-opacity="1" /><path clip-path="url(#clip090)" d="M2160.04 325.568 L2160.04 327.651 L2140.46 327.651 Q2140.74 332.049 2143.1 334.364 Q2145.48 336.656 2149.72 336.656 Q2152.17 336.656 2154.46 336.054 Q2156.78 335.452 2159.05 334.249 L2159.05 338.276 Q2156.76 339.248 2154.35 339.758 Q2151.94 340.267 2149.46 340.267 Q2143.26 340.267 2139.63 336.656 Q2136.01 333.045 2136.01 326.887 Q2136.01 320.522 2139.44 316.795 Q2142.89 313.045 2148.72 313.045 Q2153.95 313.045 2156.99 316.425 Q2160.04 319.781 2160.04 325.568 M2155.78 324.318 Q2155.74 320.823 2153.82 318.739 Q2151.92 316.656 2148.77 316.656 Q2145.2 316.656 2143.05 318.67 Q2140.92 320.684 2140.6 324.341 L2155.78 324.318 Z" fill="#000000" fill-rule="nonzero" fill-opacity="1" /><path clip-path="url(#clip090)" d="M2167.03 313.67 L2171.29 313.67 L2171.29 339.596 L2167.03 339.596 L2167.03 313.67 M2167.03 303.577 L2171.29 303.577 L2171.29 308.971 L2167.03 308.971 L2167.03 303.577 Z" fill="#000000" fill-rule="nonzero" fill-opacity="1" /><polyline clip-path="url(#clip090)" style="stroke:#c271d2; stroke-linecap:round; stroke-linejoin:round; stroke-width:4; stroke-opacity:1; fill:none" points="1772.15,374.156 1912.61,374.156 "/>
<path clip-path="url(#clip090)" d="M1936.02 356.876 L1940.69 356.876 L1940.69 387.501 L1957.52 387.501 L1957.52 391.436 L1936.02 391.436 L1936.02 356.876 Z" fill="#000000" fill-rule="nonzero" fill-opacity="1" /><path clip-path="url(#clip090)" d="M1962.43 356.876 L1969.4 356.876 L1978.21 380.394 L1987.08 356.876 L1994.05 356.876 L1994.05 391.436 L1989.49 391.436 L1989.49 361.089 L1980.58 384.792 L1975.88 384.792 L1966.96 361.089 L1966.96 391.436 L1962.43 391.436 L1962.43 356.876 Z" fill="#000000" fill-rule="nonzero" fill-opacity="1" /><path clip-path="url(#clip090)" d="M2022.84 399.306 L2022.84 402.616 L1998.21 402.616 L1998.21 399.306 L2022.84 399.306 Z" fill="#000000" fill-rule="nonzero" fill-opacity="1" /><path clip-path="url(#clip090)" d="M2047.75 358.01 L2047.75 362.57 Q2045.09 361.297 2042.73 360.672 Q2040.37 360.047 2038.17 360.047 Q2034.35 360.047 2032.27 361.528 Q2030.21 363.01 2030.21 365.741 Q2030.21 368.033 2031.57 369.214 Q2032.96 370.371 2036.8 371.089 L2039.63 371.667 Q2044.86 372.663 2047.33 375.186 Q2049.83 377.686 2049.83 381.899 Q2049.83 386.922 2046.46 389.514 Q2043.1 392.107 2036.59 392.107 Q2034.14 392.107 2031.36 391.551 Q2028.61 390.996 2025.65 389.908 L2025.65 385.093 Q2028.49 386.69 2031.22 387.501 Q2033.96 388.311 2036.59 388.311 Q2040.6 388.311 2042.77 386.737 Q2044.95 385.163 2044.95 382.246 Q2044.95 379.7 2043.38 378.264 Q2041.83 376.829 2038.26 376.112 L2035.41 375.556 Q2030.18 374.515 2027.84 372.292 Q2025.51 370.07 2025.51 366.112 Q2025.51 361.528 2028.72 358.89 Q2031.96 356.251 2037.64 356.251 Q2040.07 356.251 2042.59 356.691 Q2045.11 357.13 2047.75 358.01 Z" fill="#000000" fill-rule="nonzero" fill-opacity="1" /><path clip-path="url(#clip090)" d="M2061.8 360.718 L2061.8 373.704 L2067.68 373.704 Q2070.95 373.704 2072.73 372.015 Q2074.51 370.325 2074.51 367.2 Q2074.51 364.098 2072.73 362.408 Q2070.95 360.718 2067.68 360.718 L2061.8 360.718 M2057.13 356.876 L2067.68 356.876 Q2073.49 356.876 2076.46 359.515 Q2079.44 362.13 2079.44 367.2 Q2079.44 372.315 2076.46 374.931 Q2073.49 377.547 2067.68 377.547 L2061.8 377.547 L2061.8 391.436 L2057.13 391.436 L2057.13 356.876 Z" fill="#000000" fill-rule="nonzero" fill-opacity="1" /><path clip-path="url(#clip090)" d="M2109.28 386.505 L2109.28 377.223 L2101.64 377.223 L2101.64 373.38 L2113.91 373.38 L2113.91 388.218 Q2111.2 390.139 2107.94 391.135 Q2104.67 392.107 2100.97 392.107 Q2092.87 392.107 2088.28 387.385 Q2083.72 382.639 2083.72 374.19 Q2083.72 365.718 2088.28 360.996 Q2092.87 356.251 2100.97 356.251 Q2104.35 356.251 2107.38 357.084 Q2110.44 357.917 2113.01 359.538 L2113.01 364.515 Q2110.41 362.316 2107.5 361.204 Q2104.58 360.093 2101.36 360.093 Q2095.02 360.093 2091.83 363.635 Q2088.65 367.177 2088.65 374.19 Q2088.65 381.181 2091.83 384.723 Q2095.02 388.264 2101.36 388.264 Q2103.84 388.264 2105.78 387.848 Q2107.73 387.408 2109.28 386.505 Z" fill="#000000" fill-rule="nonzero" fill-opacity="1" /><path clip-path="url(#clip090)" d="M2141.96 399.306 L2141.96 402.616 L2117.33 402.616 L2117.33 399.306 L2141.96 399.306 Z" fill="#000000" fill-rule="nonzero" fill-opacity="1" /><path clip-path="url(#clip090)" d="M2157.75 378.403 Q2152.59 378.403 2150.6 379.584 Q2148.61 380.764 2148.61 383.612 Q2148.61 385.88 2150.09 387.223 Q2151.59 388.542 2154.16 388.542 Q2157.7 388.542 2159.83 386.042 Q2161.99 383.519 2161.99 379.352 L2161.99 378.403 L2157.75 378.403 M2166.25 376.644 L2166.25 391.436 L2161.99 391.436 L2161.99 387.501 Q2160.53 389.862 2158.35 390.996 Q2156.18 392.107 2153.03 392.107 Q2149.05 392.107 2146.69 389.885 Q2144.35 387.639 2144.35 383.889 Q2144.35 379.514 2147.26 377.292 Q2150.2 375.07 2156.01 375.07 L2161.99 375.07 L2161.99 374.653 Q2161.99 371.714 2160.04 370.116 Q2158.12 368.496 2154.63 368.496 Q2152.4 368.496 2150.3 369.028 Q2148.19 369.561 2146.25 370.626 L2146.25 366.69 Q2148.58 365.788 2150.78 365.348 Q2152.98 364.885 2155.07 364.885 Q2160.69 364.885 2163.47 367.802 Q2166.25 370.718 2166.25 376.644 Z" fill="#000000" fill-rule="nonzero" fill-opacity="1" /><path clip-path="url(#clip090)" d="M2175.02 355.417 L2179.28 355.417 L2179.28 391.436 L2175.02 391.436 L2175.02 355.417 Z" fill="#000000" fill-rule="nonzero" fill-opacity="1" /><path clip-path="url(#clip090)" d="M2192.4 358.149 L2192.4 365.51 L2201.18 365.51 L2201.18 368.82 L2192.4 368.82 L2192.4 382.894 Q2192.4 386.065 2193.26 386.968 Q2194.14 387.871 2196.8 387.871 L2201.18 387.871 L2201.18 391.436 L2196.8 391.436 Q2191.87 391.436 2190 389.607 Q2188.12 387.755 2188.12 382.894 L2188.12 368.82 L2185 368.82 L2185 365.51 L2188.12 365.51 L2188.12 358.149 L2192.4 358.149 Z" fill="#000000" fill-rule="nonzero" fill-opacity="1" /><polyline clip-path="url(#clip090)" style="stroke:#ac8d18; stroke-linecap:round; stroke-linejoin:round; stroke-width:4; stroke-opacity:1; fill:none" points="1772.15,425.996 1912.61,425.996 "/>
<path clip-path="url(#clip090)" d="M1936.02 408.716 L1940.69 408.716 L1940.69 439.341 L1957.52 439.341 L1957.52 443.276 L1936.02 443.276 L1936.02 408.716 Z" fill="#000000" fill-rule="nonzero" fill-opacity="1" /><path clip-path="url(#clip090)" d="M1962.43 408.716 L1969.4 408.716 L1978.21 432.234 L1987.08 408.716 L1994.05 408.716 L1994.05 443.276 L1989.49 443.276 L1989.49 412.929 L1980.58 436.632 L1975.88 436.632 L1966.96 412.929 L1966.96 443.276 L1962.43 443.276 L1962.43 408.716 Z" fill="#000000" fill-rule="nonzero" fill-opacity="1" /></svg>
