<?xml version="1.0" encoding="utf-8"?>
<svg xmlns="http://www.w3.org/2000/svg" xmlns:xlink="http://www.w3.org/1999/xlink" width="600" height="400" viewBox="0 0 2400 1600">
<defs>
  <clipPath id="clip570">
    <rect x="0" y="0" width="2400" height="1600"/>
  </clipPath>
</defs>
<path clip-path="url(#clip570)" d="M0 1600 L2400 1600 L2400 0 L0 0  Z" fill="#ffffff" fill-rule="evenodd" fill-opacity="1"/>
<defs>
  <clipPath id="clip571">
    <rect x="480" y="0" width="1681" height="1600"/>
  </clipPath>
</defs>
<path clip-path="url(#clip570)" d="M251.56 1423.18 L2352.76 1423.18 L2352.76 123.472 L251.56 123.472  Z" fill="#ffffff" fill-rule="evenodd" fill-opacity="1"/>
<defs>
  <clipPath id="clip572">
    <rect x="251" y="123" width="2102" height="1301"/>
  </clipPath>
</defs>
<polyline clip-path="url(#clip572)" style="stroke:#000000; stroke-linecap:round; stroke-linejoin:round; stroke-width:2; stroke-opacity:0.1; fill:none" points="594.208,1423.18 594.208,123.472 "/>
<polyline clip-path="url(#clip572)" style="stroke:#000000; stroke-linecap:round; stroke-linejoin:round; stroke-width:2; stroke-opacity:0.1; fill:none" points="1160.57,1423.18 1160.57,123.472 "/>
<polyline clip-path="url(#clip572)" style="stroke:#000000; stroke-linecap:round; stroke-linejoin:round; stroke-width:2; stroke-opacity:0.1; fill:none" points="1726.93,1423.18 1726.93,123.472 "/>
<polyline clip-path="url(#clip572)" style="stroke:#000000; stroke-linecap:round; stroke-linejoin:round; stroke-width:2; stroke-opacity:0.1; fill:none" points="2293.29,1423.18 2293.29,123.472 "/>
<polyline clip-path="url(#clip570)" style="stroke:#000000; stroke-linecap:round; stroke-linejoin:round; stroke-width:4; stroke-opacity:1; fill:none" points="251.56,1423.18 2352.76,1423.18 "/>
<polyline clip-path="url(#clip570)" style="stroke:#000000; stroke-linecap:round; stroke-linejoin:round; stroke-width:4; stroke-opacity:1; fill:none" points="594.208,1423.18 594.208,1404.28 "/>
<polyline clip-path="url(#clip570)" style="stroke:#000000; stroke-linecap:round; stroke-linejoin:round; stroke-width:4; stroke-opacity:1; fill:none" points="1160.57,1423.18 1160.57,1404.28 "/>
<polyline clip-path="url(#clip570)" style="stroke:#000000; stroke-linecap:round; stroke-linejoin:round; stroke-width:4; stroke-opacity:1; fill:none" points="1726.93,1423.18 1726.93,1404.28 "/>
<polyline clip-path="url(#clip570)" style="stroke:#000000; stroke-linecap:round; stroke-linejoin:round; stroke-width:4; stroke-opacity:1; fill:none" points="2293.29,1423.18 2293.29,1404.28 "/>
<path clip-path="url(#clip570)" d="M588.861 1481.64 L605.18 1481.64 L605.18 1485.58 L583.236 1485.58 L583.236 1481.64 Q585.898 1478.89 590.481 1474.26 Q595.088 1469.61 596.268 1468.27 Q598.514 1465.74 599.393 1464.01 Q600.296 1462.25 600.296 1460.56 Q600.296 1457.8 598.352 1456.07 Q596.43 1454.33 593.328 1454.33 Q591.129 1454.33 588.676 1455.09 Q586.245 1455.86 583.467 1457.41 L583.467 1452.69 Q586.291 1451.55 588.745 1450.97 Q591.199 1450.39 593.236 1450.39 Q598.606 1450.39 601.801 1453.08 Q604.995 1455.77 604.995 1460.26 Q604.995 1462.39 604.185 1464.31 Q603.398 1466.2 601.291 1468.8 Q600.713 1469.47 597.611 1472.69 Q594.509 1475.88 588.861 1481.64 Z" fill="#000000" fill-rule="nonzero" fill-opacity="1" /><path clip-path="url(#clip570)" d="M1163.58 1455.09 L1151.77 1473.54 L1163.58 1473.54 L1163.58 1455.09 M1162.35 1451.02 L1168.23 1451.02 L1168.23 1473.54 L1173.16 1473.54 L1173.16 1477.43 L1168.23 1477.43 L1168.23 1485.58 L1163.58 1485.58 L1163.58 1477.43 L1147.98 1477.43 L1147.98 1472.92 L1162.35 1451.02 Z" fill="#000000" fill-rule="nonzero" fill-opacity="1" /><path clip-path="url(#clip570)" d="M1727.33 1466.44 Q1724.19 1466.44 1722.33 1468.59 Q1720.5 1470.74 1720.5 1474.49 Q1720.5 1478.22 1722.33 1480.39 Q1724.19 1482.55 1727.33 1482.55 Q1730.48 1482.55 1732.31 1480.39 Q1734.16 1478.22 1734.16 1474.49 Q1734.16 1470.74 1732.31 1468.59 Q1730.48 1466.44 1727.33 1466.44 M1736.62 1451.78 L1736.62 1456.04 Q1734.86 1455.21 1733.05 1454.77 Q1731.27 1454.33 1729.51 1454.33 Q1724.88 1454.33 1722.43 1457.45 Q1720 1460.58 1719.65 1466.9 Q1721.01 1464.89 1723.07 1463.82 Q1725.13 1462.73 1727.61 1462.73 Q1732.82 1462.73 1735.83 1465.9 Q1738.86 1469.05 1738.86 1474.49 Q1738.86 1479.82 1735.71 1483.03 Q1732.56 1486.25 1727.33 1486.25 Q1721.34 1486.25 1718.17 1481.67 Q1715 1477.06 1715 1468.33 Q1715 1460.14 1718.88 1455.28 Q1722.77 1450.39 1729.32 1450.39 Q1731.08 1450.39 1732.87 1450.74 Q1734.67 1451.09 1736.62 1451.78 Z" fill="#000000" fill-rule="nonzero" fill-opacity="1" /><path clip-path="url(#clip570)" d="M2293.29 1469.17 Q2289.95 1469.17 2288.03 1470.95 Q2286.14 1472.73 2286.14 1475.86 Q2286.14 1478.98 2288.03 1480.77 Q2289.95 1482.55 2293.29 1482.55 Q2296.62 1482.55 2298.54 1480.77 Q2300.46 1478.96 2300.46 1475.86 Q2300.46 1472.73 2298.54 1470.95 Q2296.64 1469.17 2293.29 1469.17 M2288.61 1467.18 Q2285.6 1466.44 2283.91 1464.38 Q2282.25 1462.32 2282.25 1459.35 Q2282.25 1455.21 2285.19 1452.8 Q2288.15 1450.39 2293.29 1450.39 Q2298.45 1450.39 2301.39 1452.8 Q2304.33 1455.21 2304.33 1459.35 Q2304.33 1462.32 2302.64 1464.38 Q2300.97 1466.44 2297.99 1467.18 Q2301.37 1467.96 2303.24 1470.26 Q2305.14 1472.55 2305.14 1475.86 Q2305.14 1480.88 2302.06 1483.57 Q2299.01 1486.25 2293.29 1486.25 Q2287.57 1486.25 2284.49 1483.57 Q2281.44 1480.88 2281.44 1475.86 Q2281.44 1472.55 2283.33 1470.26 Q2285.23 1467.96 2288.61 1467.18 M2286.9 1459.79 Q2286.9 1462.48 2288.57 1463.98 Q2290.26 1465.49 2293.29 1465.49 Q2296.3 1465.49 2297.99 1463.98 Q2299.7 1462.48 2299.7 1459.79 Q2299.7 1457.11 2297.99 1455.6 Q2296.3 1454.1 2293.29 1454.1 Q2290.26 1454.1 2288.57 1455.6 Q2286.9 1457.11 2286.9 1459.79 Z" fill="#000000" fill-rule="nonzero" fill-opacity="1" /><path clip-path="url(#clip570)" d="M1286.34 1518.52 L1292.23 1518.52 L1292.23 1547.77 L1309.7 1532.4 L1317.18 1532.4 L1298.27 1549.07 L1317.98 1568.04 L1310.34 1568.04 L1292.23 1550.63 L1292.23 1568.04 L1286.34 1568.04 L1286.34 1518.52 Z" fill="#000000" fill-rule="nonzero" fill-opacity="1" /><polyline clip-path="url(#clip572)" style="stroke:#000000; stroke-linecap:round; stroke-linejoin:round; stroke-width:2; stroke-opacity:0.1; fill:none" points="251.56,1164.47 2352.76,1164.47 "/>
<polyline clip-path="url(#clip572)" style="stroke:#000000; stroke-linecap:round; stroke-linejoin:round; stroke-width:2; stroke-opacity:0.1; fill:none" points="251.56,645.171 2352.76,645.171 "/>
<polyline clip-path="url(#clip572)" style="stroke:#000000; stroke-linecap:round; stroke-linejoin:round; stroke-width:2; stroke-opacity:0.1; fill:none" points="251.56,125.877 2352.76,125.877 "/>
<polyline clip-path="url(#clip570)" style="stroke:#000000; stroke-linecap:round; stroke-linejoin:round; stroke-width:4; stroke-opacity:1; fill:none" points="251.56,1423.18 251.56,123.472 "/>
<polyline clip-path="url(#clip570)" style="stroke:#000000; stroke-linecap:round; stroke-linejoin:round; stroke-width:4; stroke-opacity:1; fill:none" points="251.56,1164.47 270.458,1164.47 "/>
<polyline clip-path="url(#clip570)" style="stroke:#000000; stroke-linecap:round; stroke-linejoin:round; stroke-width:4; stroke-opacity:1; fill:none" points="251.56,645.171 270.458,645.171 "/>
<polyline clip-path="url(#clip570)" style="stroke:#000000; stroke-linecap:round; stroke-linejoin:round; stroke-width:4; stroke-opacity:1; fill:none" points="251.56,125.877 270.458,125.877 "/>
<path clip-path="url(#clip570)" d="M114.931 1184.26 L122.57 1184.26 L122.57 1157.89 L114.26 1159.56 L114.26 1155.3 L122.524 1153.63 L127.2 1153.63 L127.2 1184.26 L134.839 1184.26 L134.839 1188.19 L114.931 1188.19 L114.931 1184.26 Z" fill="#000000" fill-rule="nonzero" fill-opacity="1" /><path clip-path="url(#clip570)" d="M154.283 1156.71 Q150.672 1156.71 148.843 1160.28 Q147.038 1163.82 147.038 1170.95 Q147.038 1178.05 148.843 1181.62 Q150.672 1185.16 154.283 1185.16 Q157.917 1185.16 159.723 1181.62 Q161.552 1178.05 161.552 1170.95 Q161.552 1163.82 159.723 1160.28 Q157.917 1156.71 154.283 1156.71 M154.283 1153.01 Q160.093 1153.01 163.149 1157.61 Q166.227 1162.2 166.227 1170.95 Q166.227 1179.67 163.149 1184.28 Q160.093 1188.86 154.283 1188.86 Q148.473 1188.86 145.394 1184.28 Q142.339 1179.67 142.339 1170.95 Q142.339 1162.2 145.394 1157.61 Q148.473 1153.01 154.283 1153.01 Z" fill="#000000" fill-rule="nonzero" fill-opacity="1" /><path clip-path="url(#clip570)" d="M166.227 1147.11 L190.339 1147.11 L190.339 1150.31 L166.227 1150.31 L166.227 1147.11 Z" fill="#000000" fill-rule="nonzero" fill-opacity="1" /><path clip-path="url(#clip570)" d="M198.577 1132.7 L213.491 1132.7 L213.491 1135.9 L202.056 1135.9 L202.056 1142.78 Q202.884 1142.5 203.711 1142.37 Q204.539 1142.22 205.366 1142.22 Q210.068 1142.22 212.814 1144.8 Q215.56 1147.37 215.56 1151.77 Q215.56 1156.31 212.739 1158.83 Q209.918 1161.33 204.783 1161.33 Q203.015 1161.33 201.172 1161.03 Q199.348 1160.73 197.392 1160.12 L197.392 1156.31 Q199.085 1157.23 200.89 1157.68 Q202.696 1158.13 204.708 1158.13 Q207.962 1158.13 209.861 1156.42 Q211.761 1154.71 211.761 1151.77 Q211.761 1148.84 209.861 1147.13 Q207.962 1145.42 204.708 1145.42 Q203.185 1145.42 201.661 1145.76 Q200.157 1146.09 198.577 1146.81 L198.577 1132.7 Z" fill="#000000" fill-rule="nonzero" fill-opacity="1" /><path clip-path="url(#clip570)" d="M144.855 664.963 L152.493 664.963 L152.493 638.598 L144.183 640.265 L144.183 636.005 L152.447 634.339 L157.123 634.339 L157.123 664.963 L164.762 664.963 L164.762 668.899 L144.855 668.899 L144.855 664.963 Z" fill="#000000" fill-rule="nonzero" fill-opacity="1" /><path clip-path="url(#clip570)" d="M184.206 637.417 Q180.595 637.417 178.766 640.982 Q176.961 644.524 176.961 651.653 Q176.961 658.76 178.766 662.325 Q180.595 665.866 184.206 665.866 Q187.84 665.866 189.646 662.325 Q191.475 658.76 191.475 651.653 Q191.475 644.524 189.646 640.982 Q187.84 637.417 184.206 637.417 M184.206 633.714 Q190.016 633.714 193.072 638.32 Q196.151 642.903 196.151 651.653 Q196.151 660.38 193.072 664.987 Q190.016 669.57 184.206 669.57 Q178.396 669.57 175.317 664.987 Q172.262 660.38 172.262 651.653 Q172.262 642.903 175.317 638.32 Q178.396 633.714 184.206 633.714 Z" fill="#000000" fill-rule="nonzero" fill-opacity="1" /><path clip-path="url(#clip570)" d="M205.855 615.91 Q202.921 615.91 201.436 618.806 Q199.969 621.684 199.969 627.476 Q199.969 633.25 201.436 636.147 Q202.921 639.024 205.855 639.024 Q208.808 639.024 210.275 636.147 Q211.761 633.25 211.761 627.476 Q211.761 621.684 210.275 618.806 Q208.808 615.91 205.855 615.91 M205.855 612.9 Q210.576 612.9 213.059 616.643 Q215.56 620.367 215.56 627.476 Q215.56 634.567 213.059 638.31 Q210.576 642.034 205.855 642.034 Q201.135 642.034 198.633 638.31 Q196.151 634.567 196.151 627.476 Q196.151 620.367 198.633 616.643 Q201.135 612.9 205.855 612.9 Z" fill="#000000" fill-rule="nonzero" fill-opacity="1" /><path clip-path="url(#clip570)" d="M146.096 145.669 L153.735 145.669 L153.735 119.304 L145.425 120.97 L145.425 116.711 L153.688 115.044 L158.364 115.044 L158.364 145.669 L166.003 145.669 L166.003 149.604 L146.096 149.604 L146.096 145.669 Z" fill="#000000" fill-rule="nonzero" fill-opacity="1" /><path clip-path="url(#clip570)" d="M185.448 118.123 Q181.836 118.123 180.008 121.688 Q178.202 125.23 178.202 132.359 Q178.202 139.466 180.008 143.03 Q181.836 146.572 185.448 146.572 Q189.082 146.572 190.887 143.03 Q192.716 139.466 192.716 132.359 Q192.716 125.23 190.887 121.688 Q189.082 118.123 185.448 118.123 M185.448 114.419 Q191.258 114.419 194.313 119.026 Q197.392 123.609 197.392 132.359 Q197.392 141.086 194.313 145.692 Q191.258 150.276 185.448 150.276 Q179.637 150.276 176.559 145.692 Q173.503 141.086 173.503 132.359 Q173.503 123.609 176.559 119.026 Q179.637 114.419 185.448 114.419 Z" fill="#000000" fill-rule="nonzero" fill-opacity="1" /><path clip-path="url(#clip570)" d="M198.577 94.114 L213.491 94.114 L213.491 97.3113 L202.056 97.3113 L202.056 104.195 Q202.884 103.913 203.711 103.781 Q204.539 103.631 205.366 103.631 Q210.068 103.631 212.814 106.207 Q215.56 108.784 215.56 113.185 Q215.56 117.718 212.739 120.238 Q209.918 122.739 204.783 122.739 Q203.015 122.739 201.172 122.439 Q199.348 122.138 197.392 121.536 L197.392 117.718 Q199.085 118.639 200.89 119.091 Q202.696 119.542 204.708 119.542 Q207.962 119.542 209.861 117.831 Q211.761 116.119 211.761 113.185 Q211.761 110.251 209.861 108.54 Q207.962 106.828 204.708 106.828 Q203.185 106.828 201.661 107.167 Q200.157 107.505 198.577 108.22 L198.577 94.114 Z" fill="#000000" fill-rule="nonzero" fill-opacity="1" /><path clip-path="url(#clip570)" d="M45.7664 817.313 Q39.4007 817.313 35.8996 819.955 Q32.3984 822.565 32.3984 827.307 Q32.3984 832.018 35.8996 834.66 Q39.4007 837.27 45.7664 837.27 Q52.1003 837.27 55.6014 834.66 Q59.1026 832.018 59.1026 827.307 Q59.1026 822.565 55.6014 819.955 Q52.1003 817.313 45.7664 817.313 M59.58 811.457 Q68.683 811.457 73.1071 815.499 Q77.5631 819.541 77.5631 827.88 Q77.5631 830.967 77.0857 833.705 Q76.6401 836.442 75.6852 839.02 L69.9879 839.02 Q71.3884 836.442 72.0568 833.928 Q72.7252 831.413 72.7252 828.803 Q72.7252 823.042 69.7015 820.178 Q66.7096 817.313 60.6303 817.313 L57.7339 817.313 Q60.885 819.127 62.4446 821.96 Q64.0042 824.793 64.0042 828.739 Q64.0042 835.296 59.0071 839.307 Q54.01 843.317 45.7664 843.317 Q37.491 843.317 32.4939 839.307 Q27.4968 835.296 27.4968 828.739 Q27.4968 824.793 29.0564 821.96 Q30.616 819.127 33.7671 817.313 L28.3562 817.313 L28.3562 811.457 L59.58 811.457 Z" fill="#000000" fill-rule="nonzero" fill-opacity="1" /><path clip-path="url(#clip570)" d="M33.8307 778.737 Q33.2578 779.724 33.0032 780.901 Q32.7167 782.047 32.7167 783.447 Q32.7167 788.413 35.9632 791.086 Q39.1779 793.728 45.2253 793.728 L64.0042 793.728 L64.0042 799.616 L28.3562 799.616 L28.3562 793.728 L33.8944 793.728 Q30.6479 791.882 29.0883 788.922 Q27.4968 785.962 27.4968 781.729 Q27.4968 781.124 27.5923 780.392 Q27.656 779.66 27.8151 778.769 L33.8307 778.737 Z" fill="#000000" fill-rule="nonzero" fill-opacity="1" /><path clip-path="url(#clip570)" d="M46.0847 756.393 Q46.0847 763.491 47.7079 766.228 Q49.3312 768.965 53.2461 768.965 Q56.3653 768.965 58.2114 766.928 Q60.0256 764.86 60.0256 761.327 Q60.0256 756.457 56.5881 753.529 Q53.1188 750.569 47.3897 750.569 L46.0847 750.569 L46.0847 756.393 M43.6657 744.712 L64.0042 744.712 L64.0042 750.569 L58.5933 750.569 Q61.8398 752.574 63.3994 755.566 Q64.9272 758.558 64.9272 762.886 Q64.9272 768.361 61.8716 771.607 Q58.7843 774.822 53.6281 774.822 Q47.6125 774.822 44.5569 770.812 Q41.5014 766.769 41.5014 758.78 L41.5014 750.569 L40.9285 750.569 Q36.8862 750.569 34.6901 753.242 Q32.4621 755.884 32.4621 760.69 Q32.4621 763.746 33.1941 766.642 Q33.9262 769.538 35.3903 772.212 L29.9795 772.212 Q28.7381 768.997 28.1334 765.974 Q27.4968 762.95 27.4968 760.085 Q27.4968 752.351 31.5072 748.532 Q35.5176 744.712 43.6657 744.712 Z" fill="#000000" fill-rule="nonzero" fill-opacity="1" /><path clip-path="url(#clip570)" d="M33.7671 709.191 L14.479 709.191 L14.479 703.335 L64.0042 703.335 L64.0042 709.191 L58.657 709.191 Q61.8398 711.038 63.3994 713.87 Q64.9272 716.671 64.9272 720.618 Q64.9272 727.079 59.771 731.153 Q54.6147 735.195 46.212 735.195 Q37.8093 735.195 32.6531 731.153 Q27.4968 727.079 27.4968 720.618 Q27.4968 716.671 29.0564 713.87 Q30.5842 711.038 33.7671 709.191 M46.212 729.148 Q52.6732 729.148 56.3653 726.506 Q60.0256 723.833 60.0256 719.186 Q60.0256 714.539 56.3653 711.865 Q52.6732 709.191 46.212 709.191 Q39.7508 709.191 36.0905 711.865 Q32.3984 714.539 32.3984 719.186 Q32.3984 723.833 36.0905 726.506 Q39.7508 729.148 46.212 729.148 Z" fill="#000000" fill-rule="nonzero" fill-opacity="1" /><path clip-path="url(#clip570)" d="M957.467 65.7705 L957.467 89.8329 L949.972 89.8329 L949.972 27.2059 L957.467 27.2059 L957.467 34.0924 Q959.816 30.0415 963.381 28.0971 Q966.986 26.1121 971.969 26.1121 Q980.233 26.1121 985.377 32.6746 Q990.563 39.2371 990.563 49.9314 Q990.563 60.6258 985.377 67.1883 Q980.233 73.7508 971.969 73.7508 Q966.986 73.7508 963.381 71.8063 Q959.816 69.8214 957.467 65.7705 M982.825 49.9314 Q982.825 41.7081 979.423 37.0496 Q976.06 32.3505 970.146 32.3505 Q964.232 32.3505 960.829 37.0496 Q957.467 41.7081 957.467 49.9314 Q957.467 58.1548 960.829 62.8538 Q964.232 67.5124 970.146 67.5124 Q976.06 67.5124 979.423 62.8538 Q982.825 58.1548 982.825 49.9314 Z" fill="#000000" fill-rule="nonzero" fill-opacity="1" /><path clip-path="url(#clip570)" d="M1029.21 34.1734 Q1027.95 33.4443 1026.45 33.1202 Q1025 32.7556 1023.21 32.7556 Q1016.89 32.7556 1013.49 36.8875 Q1010.13 40.9789 1010.13 48.6757 L1010.13 72.576 L1002.63 72.576 L1002.63 27.2059 L1010.13 27.2059 L1010.13 34.2544 Q1012.48 30.1225 1016.25 28.1376 Q1020.01 26.1121 1025.4 26.1121 Q1026.17 26.1121 1027.1 26.2337 Q1028.03 26.3147 1029.17 26.5172 L1029.21 34.1734 Z" fill="#000000" fill-rule="nonzero" fill-opacity="1" /><path clip-path="url(#clip570)" d="M1052.78 32.4315 Q1046.79 32.4315 1043.31 37.1306 Q1039.82 41.7891 1039.82 49.9314 Q1039.82 58.0738 1043.26 62.7728 Q1046.75 67.4314 1052.78 67.4314 Q1058.74 67.4314 1062.22 62.7323 Q1065.71 58.0333 1065.71 49.9314 Q1065.71 41.8701 1062.22 37.1711 Q1058.74 32.4315 1052.78 32.4315 M1052.78 26.1121 Q1062.51 26.1121 1068.06 32.4315 Q1073.61 38.7509 1073.61 49.9314 Q1073.61 61.0714 1068.06 67.4314 Q1062.51 73.7508 1052.78 73.7508 Q1043.02 73.7508 1037.47 67.4314 Q1031.96 61.0714 1031.96 49.9314 Q1031.96 38.7509 1037.47 32.4315 Q1043.02 26.1121 1052.78 26.1121 Z" fill="#000000" fill-rule="nonzero" fill-opacity="1" /><path clip-path="url(#clip570)" d="M1118.53 49.9314 Q1118.53 41.7081 1115.13 37.0496 Q1111.77 32.3505 1105.85 32.3505 Q1099.94 32.3505 1096.53 37.0496 Q1093.17 41.7081 1093.17 49.9314 Q1093.17 58.1548 1096.53 62.8538 Q1099.94 67.5124 1105.85 67.5124 Q1111.77 67.5124 1115.13 62.8538 Q1118.53 58.1548 1118.53 49.9314 M1093.17 34.0924 Q1095.52 30.0415 1099.09 28.0971 Q1102.69 26.1121 1107.67 26.1121 Q1115.94 26.1121 1121.08 32.6746 Q1126.27 39.2371 1126.27 49.9314 Q1126.27 60.6258 1121.08 67.1883 Q1115.94 73.7508 1107.67 73.7508 Q1102.69 73.7508 1099.09 71.8063 Q1095.52 69.8214 1093.17 65.7705 L1093.17 72.576 L1085.68 72.576 L1085.68 9.54393 L1093.17 9.54393 L1093.17 34.0924 Z" fill="#000000" fill-rule="nonzero" fill-opacity="1" /><path clip-path="url(#clip570)" d="M1138.62 9.54393 L1146.08 9.54393 L1146.08 72.576 L1138.62 72.576 L1138.62 9.54393 Z" fill="#000000" fill-rule="nonzero" fill-opacity="1" /><path clip-path="url(#clip570)" d="M1200.48 48.0275 L1200.48 51.6733 L1166.21 51.6733 Q1166.7 59.3701 1170.83 63.421 Q1175 67.4314 1182.41 67.4314 Q1186.71 67.4314 1190.72 66.3781 Q1194.77 65.3249 1198.74 63.2184 L1198.74 70.267 Q1194.73 71.9684 1190.52 72.8596 Q1186.3 73.7508 1181.97 73.7508 Q1171.11 73.7508 1164.75 67.4314 Q1158.43 61.1119 1158.43 50.3365 Q1158.43 39.1965 1164.43 32.6746 Q1170.46 26.1121 1180.67 26.1121 Q1189.83 26.1121 1195.13 32.0264 Q1200.48 37.9003 1200.48 48.0275 M1193.03 45.84 Q1192.95 39.7232 1189.58 36.0774 Q1186.26 32.4315 1180.75 32.4315 Q1174.51 32.4315 1170.75 35.9558 Q1167.02 39.4801 1166.45 45.8805 L1193.03 45.84 M1174.35 6.22219 L1185.78 21.3726 L1179.58 21.3726 L1166.37 6.22219 L1174.35 6.22219 Z" fill="#000000" fill-rule="nonzero" fill-opacity="1" /><path clip-path="url(#clip570)" d="M1248.04 35.9153 Q1250.83 30.8922 1254.72 28.5022 Q1258.61 26.1121 1263.88 26.1121 Q1270.97 26.1121 1274.81 31.0947 Q1278.66 36.0368 1278.66 45.1919 L1278.66 72.576 L1271.17 72.576 L1271.17 45.4349 Q1271.17 38.913 1268.86 35.7533 Q1266.55 32.5936 1261.81 32.5936 Q1256.02 32.5936 1252.66 36.4419 Q1249.29 40.2903 1249.29 46.9338 L1249.29 72.576 L1241.8 72.576 L1241.8 45.4349 Q1241.8 38.8725 1239.49 35.7533 Q1237.18 32.5936 1232.36 32.5936 Q1226.65 32.5936 1223.29 36.4824 Q1219.92 40.3308 1219.92 46.9338 L1219.92 72.576 L1212.43 72.576 L1212.43 27.2059 L1219.92 27.2059 L1219.92 34.2544 Q1222.48 30.082 1226.04 28.0971 Q1229.61 26.1121 1234.51 26.1121 Q1239.45 26.1121 1242.89 28.6237 Q1246.38 31.1352 1248.04 35.9153 Z" fill="#000000" fill-rule="nonzero" fill-opacity="1" /><path clip-path="url(#clip570)" d="M1332.34 48.0275 L1332.34 51.6733 L1298.07 51.6733 Q1298.55 59.3701 1302.68 63.421 Q1306.86 67.4314 1314.27 67.4314 Q1318.56 67.4314 1322.57 66.3781 Q1326.63 65.3249 1330.6 63.2184 L1330.6 70.267 Q1326.59 71.9684 1322.37 72.8596 Q1318.16 73.7508 1313.82 73.7508 Q1302.97 73.7508 1296.61 67.4314 Q1290.29 61.1119 1290.29 50.3365 Q1290.29 39.1965 1296.28 32.6746 Q1302.32 26.1121 1312.53 26.1121 Q1321.68 26.1121 1326.99 32.0264 Q1332.34 37.9003 1332.34 48.0275 M1324.88 45.84 Q1324.8 39.7232 1321.44 36.0774 Q1318.12 32.4315 1312.61 32.4315 Q1306.37 32.4315 1302.6 35.9558 Q1298.88 39.4801 1298.31 45.8805 L1324.88 45.84 Z" fill="#000000" fill-rule="nonzero" fill-opacity="1" /><path clip-path="url(#clip570)" d="M1372.85 62.2867 L1381.39 62.2867 L1381.39 72.576 L1372.85 72.576 L1372.85 62.2867 M1372.85 29.6769 L1381.39 29.6769 L1381.39 39.9662 L1372.85 39.9662 L1372.85 29.6769 Z" fill="#000000" fill-rule="nonzero" fill-opacity="1" /><path clip-path="url(#clip570)" d="M1432.64 14.324 L1432.64 27.2059 L1447.99 27.2059 L1447.99 32.9987 L1432.64 32.9987 L1432.64 57.6282 Q1432.64 63.1779 1434.14 64.7578 Q1435.68 66.3376 1440.33 66.3376 L1447.99 66.3376 L1447.99 72.576 L1440.33 72.576 Q1431.71 72.576 1428.42 69.3758 Q1425.14 66.1351 1425.14 57.6282 L1425.14 32.9987 L1419.67 32.9987 L1419.67 27.2059 L1425.14 27.2059 L1425.14 14.324 L1432.64 14.324 Z" fill="#000000" fill-rule="nonzero" fill-opacity="1" /><path clip-path="url(#clip570)" d="M1465 65.7705 L1465 89.8329 L1457.51 89.8329 L1457.51 27.2059 L1465 27.2059 L1465 34.0924 Q1467.35 30.0415 1470.92 28.0971 Q1474.52 26.1121 1479.51 26.1121 Q1487.77 26.1121 1492.92 32.6746 Q1498.1 39.2371 1498.1 49.9314 Q1498.1 60.6258 1492.92 67.1883 Q1487.77 73.7508 1479.51 73.7508 Q1474.52 73.7508 1470.92 71.8063 Q1467.35 69.8214 1465 65.7705 M1490.36 49.9314 Q1490.36 41.7081 1486.96 37.0496 Q1483.6 32.3505 1477.68 32.3505 Q1471.77 32.3505 1468.37 37.0496 Q1465 41.7081 1465 49.9314 Q1465 58.1548 1468.37 62.8538 Q1471.77 67.5124 1477.68 67.5124 Q1483.6 67.5124 1486.96 62.8538 Q1490.36 58.1548 1490.36 49.9314 Z" fill="#000000" fill-rule="nonzero" fill-opacity="1" /><path clip-path="url(#clip570)" d="M1518.56 65.6895 L1547.12 65.6895 L1547.12 72.576 L1508.71 72.576 L1508.71 65.6895 Q1513.37 60.8689 1521.39 52.7671 Q1529.45 44.6248 1531.52 42.2752 Q1535.45 37.8598 1536.99 34.8216 Q1538.57 31.7429 1538.57 28.7857 Q1538.57 23.9651 1535.17 20.927 Q1531.8 17.8888 1526.38 17.8888 Q1522.53 17.8888 1518.23 19.2256 Q1513.98 20.5624 1509.12 23.2765 L1509.12 15.0127 Q1514.06 13.0277 1518.35 12.015 Q1522.65 11.0023 1526.21 11.0023 Q1535.61 11.0023 1541.2 15.7013 Q1546.79 20.4004 1546.79 28.2591 Q1546.79 31.9859 1545.37 35.3482 Q1544 38.6699 1540.31 43.2069 Q1539.3 44.3817 1533.87 50.0125 Q1528.44 55.6027 1518.56 65.6895 Z" fill="#000000" fill-rule="nonzero" fill-opacity="1" /><path clip-path="url(#clip570)" d="M1562.23 12.096 L1601.11 12.096 L1601.11 15.5798 L1579.16 72.576 L1570.61 72.576 L1591.27 18.9825 L1562.23 18.9825 L1562.23 12.096 Z" fill="#000000" fill-rule="nonzero" fill-opacity="1" /><path clip-path="url(#clip570)" d="M1641.87 39.9662 Q1647.74 41.222 1651.02 45.1919 Q1654.34 49.1618 1654.34 54.9951 Q1654.34 63.9476 1648.19 68.8492 Q1642.03 73.7508 1630.69 73.7508 Q1626.88 73.7508 1622.83 72.9811 Q1618.82 72.2519 1614.52 70.7531 L1614.52 62.8538 Q1617.93 64.8388 1621.98 65.8515 Q1626.03 66.8642 1630.44 66.8642 Q1638.14 66.8642 1642.15 63.826 Q1646.2 60.7879 1646.2 54.9951 Q1646.2 49.6479 1642.43 46.6502 Q1638.71 43.612 1632.02 43.612 L1624.97 43.612 L1624.97 36.8875 L1632.35 36.8875 Q1638.38 36.8875 1641.58 34.4975 Q1644.78 32.067 1644.78 27.5299 Q1644.78 22.8714 1641.46 20.4004 Q1638.18 17.8888 1632.02 17.8888 Q1628.66 17.8888 1624.81 18.618 Q1620.96 19.3471 1616.35 20.8865 L1616.35 13.5948 Q1621 12.2985 1625.06 11.6504 Q1629.15 11.0023 1632.75 11.0023 Q1642.07 11.0023 1647.5 15.2557 Q1652.93 19.4686 1652.93 26.6793 Q1652.93 31.7024 1650.05 35.1862 Q1647.17 38.6294 1641.87 39.9662 Z" fill="#000000" fill-rule="nonzero" fill-opacity="1" /><polyline clip-path="url(#clip572)" style="stroke:#009af9; stroke-linecap:round; stroke-linejoin:round; stroke-width:4; stroke-opacity:1; fill:none" points="311.028,160.256 594.208,253.605 877.388,345.68 1160.57,433.435 1443.75,511.898 1726.93,597.143 2010.11,795.175 2293.29,1386.4 "/>
<polyline clip-path="url(#clip572)" style="stroke:#e26f46; stroke-linecap:round; stroke-linejoin:round; stroke-width:4; stroke-opacity:1; fill:none" points="311.028,160.256 594.208,253.605 877.388,345.68 1160.57,433.435 1443.75,511.898 1726.93,597.143 2010.11,795.175 2293.29,1386.4 "/>
<polyline clip-path="url(#clip572)" style="stroke:#3da44d; stroke-linecap:round; stroke-linejoin:round; stroke-width:4; stroke-opacity:1; fill:none" points="311.028,160.256 594.208,253.605 877.388,345.68 1160.57,433.435 1443.75,511.898 1726.93,597.143 2010.11,795.175 2293.29,1386.4 "/>
<polyline clip-path="url(#clip572)" style="stroke:#c271d2; stroke-linecap:round; stroke-linejoin:round; stroke-width:4; stroke-opacity:1; fill:none" points="311.028,160.256 594.208,253.605 877.388,345.68 1160.57,433.435 1443.75,511.898 1726.93,597.143 2010.11,795.175 2293.29,1386.4 "/>
<polyline clip-path="url(#clip572)" style="stroke:#ac8d18; stroke-linecap:round; stroke-linejoin:round; stroke-width:4; stroke-opacity:1; fill:none" points="311.028,160.256 594.208,253.605 877.388,345.68 1160.57,433.435 1443.75,511.898 1726.93,597.143 2010.11,795.175 2293.29,1386.4 "/>
<path clip-path="url(#clip570)" d="M1749.5 477.836 L2282.72 477.836 L2282.72 166.796 L1749.5 166.796  Z" fill="#ffffff" fill-rule="evenodd" fill-opacity="1"/>
<polyline clip-path="url(#clip570)" style="stroke:#000000; stroke-linecap:round; stroke-linejoin:round; stroke-width:4; stroke-opacity:1; fill:none" points="1749.5,477.836 2282.72,477.836 2282.72,166.796 1749.5,166.796 1749.5,477.836 "/>
<polyline clip-path="url(#clip570)" style="stroke:#009af9; stroke-linecap:round; stroke-linejoin:round; stroke-width:4; stroke-opacity:1; fill:none" points="1772.84,218.636 1912.92,218.636 "/>
<path clip-path="url(#clip570)" d="M1936.27 201.356 L1940.95 201.356 L1940.95 231.981 L1957.77 231.981 L1957.77 235.916 L1936.27 235.916 L1936.27 201.356 Z" fill="#000000" fill-rule="nonzero" fill-opacity="1" /><path clip-path="url(#clip570)" d="M1962.68 201.356 L1969.65 201.356 L1978.47 224.874 L1987.33 201.356 L1994.3 201.356 L1994.3 235.916 L1989.74 235.916 L1989.74 205.569 L1980.83 229.272 L1976.13 229.272 L1967.22 205.569 L1967.22 235.916 L1962.68 235.916 L1962.68 201.356 Z" fill="#000000" fill-rule="nonzero" fill-opacity="1" /><path clip-path="url(#clip570)" d="M2023.1 243.786 L2023.1 247.096 L1998.47 247.096 L1998.47 243.786 L2023.1 243.786 Z" fill="#000000" fill-rule="nonzero" fill-opacity="1" /><path clip-path="url(#clip570)" d="M2048 202.49 L2048 207.05 Q2045.34 205.777 2042.98 205.152 Q2040.62 204.527 2038.42 204.527 Q2034.6 204.527 2032.52 206.008 Q2030.46 207.49 2030.46 210.221 Q2030.46 212.513 2031.82 213.694 Q2033.21 214.851 2037.06 215.569 L2039.88 216.147 Q2045.11 217.143 2047.59 219.666 Q2050.09 222.166 2050.09 226.379 Q2050.09 231.402 2046.71 233.994 Q2043.35 236.587 2036.85 236.587 Q2034.39 236.587 2031.62 236.031 Q2028.86 235.476 2025.9 234.388 L2025.9 229.573 Q2028.75 231.17 2031.48 231.981 Q2034.21 232.791 2036.85 232.791 Q2040.85 232.791 2043.03 231.217 Q2045.2 229.643 2045.2 226.726 Q2045.2 224.18 2043.63 222.744 Q2042.08 221.309 2038.51 220.592 L2035.67 220.036 Q2030.44 218.995 2028.1 216.772 Q2025.76 214.55 2025.76 210.592 Q2025.76 206.008 2028.98 203.37 Q2032.22 200.731 2037.89 200.731 Q2040.32 200.731 2042.84 201.171 Q2045.37 201.61 2048 202.49 Z" fill="#000000" fill-rule="nonzero" fill-opacity="1" /><path clip-path="url(#clip570)" d="M2062.06 205.198 L2062.06 218.184 L2067.94 218.184 Q2071.2 218.184 2072.98 216.495 Q2074.76 214.805 2074.76 211.68 Q2074.76 208.578 2072.98 206.888 Q2071.2 205.198 2067.94 205.198 L2062.06 205.198 M2057.38 201.356 L2067.94 201.356 Q2073.75 201.356 2076.71 203.995 Q2079.69 206.61 2079.69 211.68 Q2079.69 216.795 2076.71 219.411 Q2073.75 222.027 2067.94 222.027 L2062.06 222.027 L2062.06 235.916 L2057.38 235.916 L2057.38 201.356 Z" fill="#000000" fill-rule="nonzero" fill-opacity="1" /><path clip-path="url(#clip570)" d="M2109.53 230.985 L2109.53 221.703 L2101.89 221.703 L2101.89 217.86 L2114.16 217.86 L2114.16 232.698 Q2111.45 234.619 2108.19 235.615 Q2104.93 236.587 2101.22 236.587 Q2093.12 236.587 2088.54 231.865 Q2083.98 227.119 2083.98 218.67 Q2083.98 210.198 2088.54 205.476 Q2093.12 200.731 2101.22 200.731 Q2104.6 200.731 2107.63 201.564 Q2110.69 202.397 2113.26 204.018 L2113.26 208.995 Q2110.67 206.796 2107.75 205.684 Q2104.83 204.573 2101.62 204.573 Q2095.27 204.573 2092.08 208.115 Q2088.91 211.657 2088.91 218.67 Q2088.91 225.661 2092.08 229.203 Q2095.27 232.744 2101.62 232.744 Q2104.09 232.744 2106.04 232.328 Q2107.98 231.888 2109.53 230.985 Z" fill="#000000" fill-rule="nonzero" fill-opacity="1" /><polyline clip-path="url(#clip570)" style="stroke:#e26f46; stroke-linecap:round; stroke-linejoin:round; stroke-width:4; stroke-opacity:1; fill:none" points="1772.84,270.476 1912.92,270.476 "/>
<path clip-path="url(#clip570)" d="M1936.27 253.196 L1940.95 253.196 L1940.95 283.821 L1957.77 283.821 L1957.77 287.756 L1936.27 287.756 L1936.27 253.196 Z" fill="#000000" fill-rule="nonzero" fill-opacity="1" /><path clip-path="url(#clip570)" d="M1962.68 253.196 L1969.65 253.196 L1978.47 276.714 L1987.33 253.196 L1994.3 253.196 L1994.3 287.756 L1989.74 287.756 L1989.74 257.409 L1980.83 281.112 L1976.13 281.112 L1967.22 257.409 L1967.22 287.756 L1962.68 287.756 L1962.68 253.196 Z" fill="#000000" fill-rule="nonzero" fill-opacity="1" /><path clip-path="url(#clip570)" d="M2023.1 295.626 L2023.1 298.936 L1998.47 298.936 L1998.47 295.626 L2023.1 295.626 Z" fill="#000000" fill-rule="nonzero" fill-opacity="1" /><path clip-path="url(#clip570)" d="M2038.84 257.802 L2032.5 275.001 L2045.2 275.001 L2038.84 257.802 M2036.2 253.196 L2041.5 253.196 L2054.67 287.756 L2049.81 287.756 L2046.66 278.89 L2031.08 278.89 L2027.94 287.756 L2023 287.756 L2036.2 253.196 Z" fill="#000000" fill-rule="nonzero" fill-opacity="1" /><path clip-path="url(#clip570)" d="M2081.08 272.108 L2081.08 287.756 L2076.82 287.756 L2076.82 272.247 Q2076.82 268.566 2075.39 266.737 Q2073.95 264.909 2071.08 264.909 Q2067.63 264.909 2065.64 267.108 Q2063.65 269.307 2063.65 273.103 L2063.65 287.756 L2059.37 287.756 L2059.37 261.83 L2063.65 261.83 L2063.65 265.858 Q2065.18 263.52 2067.24 262.362 Q2069.32 261.205 2072.03 261.205 Q2076.5 261.205 2078.79 263.983 Q2081.08 266.737 2081.08 272.108 Z" fill="#000000" fill-rule="nonzero" fill-opacity="1" /><path clip-path="url(#clip570)" d="M2106.64 265.765 L2106.64 251.737 L2110.9 251.737 L2110.9 287.756 L2106.64 287.756 L2106.64 283.867 Q2105.3 286.182 2103.24 287.316 Q2101.2 288.427 2098.33 288.427 Q2093.63 288.427 2090.67 284.677 Q2087.73 280.927 2087.73 274.816 Q2087.73 268.705 2090.67 264.955 Q2093.63 261.205 2098.33 261.205 Q2101.2 261.205 2103.24 262.339 Q2105.3 263.45 2106.64 265.765 M2092.12 274.816 Q2092.12 279.515 2094.05 282.2 Q2095.99 284.862 2099.37 284.862 Q2102.75 284.862 2104.69 282.2 Q2106.64 279.515 2106.64 274.816 Q2106.64 270.117 2104.69 267.455 Q2102.75 264.77 2099.37 264.77 Q2095.99 264.77 2094.05 267.455 Q2092.12 270.117 2092.12 274.816 Z" fill="#000000" fill-rule="nonzero" fill-opacity="1" /><path clip-path="url(#clip570)" d="M2134.69 265.811 Q2133.98 265.395 2133.12 265.21 Q2132.29 265.001 2131.27 265.001 Q2127.66 265.001 2125.71 267.362 Q2123.79 269.7 2123.79 274.098 L2123.79 287.756 L2119.51 287.756 L2119.51 261.83 L2123.79 261.83 L2123.79 265.858 Q2125.13 263.497 2127.29 262.362 Q2129.44 261.205 2132.52 261.205 Q2132.96 261.205 2133.49 261.274 Q2134.02 261.321 2134.67 261.436 L2134.69 265.811 Z" fill="#000000" fill-rule="nonzero" fill-opacity="1" /><path clip-path="url(#clip570)" d="M2160.3 273.728 L2160.3 275.811 L2140.71 275.811 Q2140.99 280.209 2143.35 282.524 Q2145.74 284.816 2149.97 284.816 Q2152.43 284.816 2154.72 284.214 Q2157.03 283.612 2159.3 282.409 L2159.3 286.436 Q2157.01 287.408 2154.6 287.918 Q2152.19 288.427 2149.72 288.427 Q2143.51 288.427 2139.88 284.816 Q2136.27 281.205 2136.27 275.047 Q2136.27 268.682 2139.69 264.955 Q2143.14 261.205 2148.98 261.205 Q2154.21 261.205 2157.24 264.585 Q2160.3 267.941 2160.3 273.728 M2156.04 272.478 Q2155.99 268.983 2154.07 266.899 Q2152.17 264.816 2149.02 264.816 Q2145.46 264.816 2143.31 266.83 Q2141.18 268.844 2140.85 272.501 L2156.04 272.478 Z" fill="#000000" fill-rule="nonzero" fill-opacity="1" /><path clip-path="url(#clip570)" d="M2167.29 261.83 L2171.55 261.83 L2171.55 287.756 L2167.29 287.756 L2167.29 261.83 M2167.29 251.737 L2171.55 251.737 L2171.55 257.131 L2167.29 257.131 L2167.29 251.737 Z" fill="#000000" fill-rule="nonzero" fill-opacity="1" /><path clip-path="url(#clip570)" d="M2200.16 295.626 L2200.16 298.936 L2175.53 298.936 L2175.53 295.626 L2200.16 295.626 Z" fill="#000000" fill-rule="nonzero" fill-opacity="1" /><path clip-path="url(#clip570)" d="M2215.94 274.723 Q2210.78 274.723 2208.79 275.904 Q2206.8 277.084 2206.8 279.932 Q2206.8 282.2 2208.28 283.543 Q2209.79 284.862 2212.36 284.862 Q2215.9 284.862 2218.03 282.362 Q2220.18 279.839 2220.18 275.672 L2220.18 274.723 L2215.94 274.723 M2224.44 272.964 L2224.44 287.756 L2220.18 287.756 L2220.18 283.821 Q2218.72 286.182 2216.55 287.316 Q2214.37 288.427 2211.22 288.427 Q2207.24 288.427 2204.88 286.205 Q2202.54 283.959 2202.54 280.209 Q2202.54 275.834 2205.46 273.612 Q2208.4 271.39 2214.21 271.39 L2220.18 271.39 L2220.18 270.973 Q2220.18 268.034 2218.24 266.436 Q2216.31 264.816 2212.82 264.816 Q2210.6 264.816 2208.49 265.348 Q2206.38 265.881 2204.44 266.946 L2204.44 263.01 Q2206.78 262.108 2208.98 261.668 Q2211.18 261.205 2213.26 261.205 Q2218.88 261.205 2221.66 264.122 Q2224.44 267.038 2224.44 272.964 Z" fill="#000000" fill-rule="nonzero" fill-opacity="1" /><path clip-path="url(#clip570)" d="M2233.21 251.737 L2237.47 251.737 L2237.47 287.756 L2233.21 287.756 L2233.21 251.737 Z" fill="#000000" fill-rule="nonzero" fill-opacity="1" /><path clip-path="url(#clip570)" d="M2250.6 254.469 L2250.6 261.83 L2259.37 261.83 L2259.37 265.14 L2250.6 265.14 L2250.6 279.214 Q2250.6 282.385 2251.45 283.288 Q2252.33 284.191 2254.99 284.191 L2259.37 284.191 L2259.37 287.756 L2254.99 287.756 Q2250.06 287.756 2248.19 285.927 Q2246.31 284.075 2246.31 279.214 L2246.31 265.14 L2243.19 265.14 L2243.19 261.83 L2246.31 261.83 L2246.31 254.469 L2250.6 254.469 Z" fill="#000000" fill-rule="nonzero" fill-opacity="1" /><polyline clip-path="url(#clip570)" style="stroke:#3da44d; stroke-linecap:round; stroke-linejoin:round; stroke-width:4; stroke-opacity:1; fill:none" points="1772.84,322.316 1912.92,322.316 "/>
<path clip-path="url(#clip570)" d="M1936.27 305.036 L1940.95 305.036 L1940.95 335.661 L1957.77 335.661 L1957.77 339.596 L1936.27 339.596 L1936.27 305.036 Z" fill="#000000" fill-rule="nonzero" fill-opacity="1" /><path clip-path="url(#clip570)" d="M1962.68 305.036 L1969.65 305.036 L1978.47 328.554 L1987.33 305.036 L1994.3 305.036 L1994.3 339.596 L1989.74 339.596 L1989.74 309.249 L1980.83 332.952 L1976.13 332.952 L1967.22 309.249 L1967.22 339.596 L1962.68 339.596 L1962.68 305.036 Z" fill="#000000" fill-rule="nonzero" fill-opacity="1" /><path clip-path="url(#clip570)" d="M2023.1 347.466 L2023.1 350.776 L1998.47 350.776 L1998.47 347.466 L2023.1 347.466 Z" fill="#000000" fill-rule="nonzero" fill-opacity="1" /><path clip-path="url(#clip570)" d="M2038.84 309.642 L2032.5 326.841 L2045.2 326.841 L2038.84 309.642 M2036.2 305.036 L2041.5 305.036 L2054.67 339.596 L2049.81 339.596 L2046.66 330.73 L2031.08 330.73 L2027.94 339.596 L2023 339.596 L2036.2 305.036 Z" fill="#000000" fill-rule="nonzero" fill-opacity="1" /><path clip-path="url(#clip570)" d="M2081.08 323.948 L2081.08 339.596 L2076.82 339.596 L2076.82 324.087 Q2076.82 320.406 2075.39 318.577 Q2073.95 316.749 2071.08 316.749 Q2067.63 316.749 2065.64 318.948 Q2063.65 321.147 2063.65 324.943 L2063.65 339.596 L2059.37 339.596 L2059.37 313.67 L2063.65 313.67 L2063.65 317.698 Q2065.18 315.36 2067.24 314.202 Q2069.32 313.045 2072.03 313.045 Q2076.5 313.045 2078.79 315.823 Q2081.08 318.577 2081.08 323.948 Z" fill="#000000" fill-rule="nonzero" fill-opacity="1" /><path clip-path="url(#clip570)" d="M2106.64 317.605 L2106.64 303.577 L2110.9 303.577 L2110.9 339.596 L2106.64 339.596 L2106.64 335.707 Q2105.3 338.022 2103.24 339.156 Q2101.2 340.267 2098.33 340.267 Q2093.63 340.267 2090.67 336.517 Q2087.73 332.767 2087.73 326.656 Q2087.73 320.545 2090.67 316.795 Q2093.63 313.045 2098.33 313.045 Q2101.2 313.045 2103.24 314.179 Q2105.3 315.29 2106.64 317.605 M2092.12 326.656 Q2092.12 331.355 2094.05 334.04 Q2095.99 336.702 2099.37 336.702 Q2102.75 336.702 2104.69 334.04 Q2106.64 331.355 2106.64 326.656 Q2106.64 321.957 2104.69 319.295 Q2102.75 316.61 2099.37 316.61 Q2095.99 316.61 2094.05 319.295 Q2092.12 321.957 2092.12 326.656 Z" fill="#000000" fill-rule="nonzero" fill-opacity="1" /><path clip-path="url(#clip570)" d="M2134.69 317.651 Q2133.98 317.235 2133.12 317.05 Q2132.29 316.841 2131.27 316.841 Q2127.66 316.841 2125.71 319.202 Q2123.79 321.54 2123.79 325.938 L2123.79 339.596 L2119.51 339.596 L2119.51 313.67 L2123.79 313.67 L2123.79 317.698 Q2125.13 315.337 2127.29 314.202 Q2129.44 313.045 2132.52 313.045 Q2132.96 313.045 2133.49 313.114 Q2134.02 313.161 2134.67 313.276 L2134.69 317.651 Z" fill="#000000" fill-rule="nonzero" fill-opacity="1" /><path clip-path="url(#clip570)" d="M2160.3 325.568 L2160.3 327.651 L2140.71 327.651 Q2140.99 332.049 2143.35 334.364 Q2145.74 336.656 2149.97 336.656 Q2152.43 336.656 2154.72 336.054 Q2157.03 335.452 2159.3 334.249 L2159.3 338.276 Q2157.01 339.248 2154.6 339.758 Q2152.19 340.267 2149.72 340.267 Q2143.51 340.267 2139.88 336.656 Q2136.27 333.045 2136.27 326.887 Q2136.27 320.522 2139.69 316.795 Q2143.14 313.045 2148.98 313.045 Q2154.21 313.045 2157.24 316.425 Q2160.3 319.781 2160.3 325.568 M2156.04 324.318 Q2155.99 320.823 2154.07 318.739 Q2152.17 316.656 2149.02 316.656 Q2145.46 316.656 2143.31 318.67 Q2141.18 320.684 2140.85 324.341 L2156.04 324.318 Z" fill="#000000" fill-rule="nonzero" fill-opacity="1" /><path clip-path="url(#clip570)" d="M2167.29 313.67 L2171.55 313.67 L2171.55 339.596 L2167.29 339.596 L2167.29 313.67 M2167.29 303.577 L2171.55 303.577 L2171.55 308.971 L2167.29 308.971 L2167.29 303.577 Z" fill="#000000" fill-rule="nonzero" fill-opacity="1" /><polyline clip-path="url(#clip570)" style="stroke:#c271d2; stroke-linecap:round; stroke-linejoin:round; stroke-width:4; stroke-opacity:1; fill:none" points="1772.84,374.156 1912.92,374.156 "/>
<path clip-path="url(#clip570)" d="M1936.27 356.876 L1940.95 356.876 L1940.95 387.501 L1957.77 387.501 L1957.77 391.436 L1936.27 391.436 L1936.27 356.876 Z" fill="#000000" fill-rule="nonzero" fill-opacity="1" /><path clip-path="url(#clip570)" d="M1962.68 356.876 L1969.65 356.876 L1978.47 380.394 L1987.33 356.876 L1994.3 356.876 L1994.3 391.436 L1989.74 391.436 L1989.74 361.089 L1980.83 384.792 L1976.13 384.792 L1967.22 361.089 L1967.22 391.436 L1962.68 391.436 L1962.68 356.876 Z" fill="#000000" fill-rule="nonzero" fill-opacity="1" /><path clip-path="url(#clip570)" d="M2023.1 399.306 L2023.1 402.616 L1998.47 402.616 L1998.47 399.306 L2023.1 399.306 Z" fill="#000000" fill-rule="nonzero" fill-opacity="1" /><path clip-path="url(#clip570)" d="M2048 358.01 L2048 362.57 Q2045.34 361.297 2042.98 360.672 Q2040.62 360.047 2038.42 360.047 Q2034.6 360.047 2032.52 361.528 Q2030.46 363.01 2030.46 365.741 Q2030.46 368.033 2031.82 369.214 Q2033.21 370.371 2037.06 371.089 L2039.88 371.667 Q2045.11 372.663 2047.59 375.186 Q2050.09 377.686 2050.09 381.899 Q2050.09 386.922 2046.71 389.514 Q2043.35 392.107 2036.85 392.107 Q2034.39 392.107 2031.62 391.551 Q2028.86 390.996 2025.9 389.908 L2025.9 385.093 Q2028.75 386.69 2031.48 387.501 Q2034.21 388.311 2036.85 388.311 Q2040.85 388.311 2043.03 386.737 Q2045.2 385.163 2045.2 382.246 Q2045.2 379.7 2043.63 378.264 Q2042.08 376.829 2038.51 376.112 L2035.67 375.556 Q2030.44 374.515 2028.1 372.292 Q2025.76 370.07 2025.76 366.112 Q2025.76 361.528 2028.98 358.89 Q2032.22 356.251 2037.89 356.251 Q2040.32 356.251 2042.84 356.691 Q2045.37 357.13 2048 358.01 Z" fill="#000000" fill-rule="nonzero" fill-opacity="1" /><path clip-path="url(#clip570)" d="M2062.06 360.718 L2062.06 373.704 L2067.94 373.704 Q2071.2 373.704 2072.98 372.015 Q2074.76 370.325 2074.76 367.2 Q2074.76 364.098 2072.98 362.408 Q2071.2 360.718 2067.94 360.718 L2062.06 360.718 M2057.38 356.876 L2067.94 356.876 Q2073.75 356.876 2076.71 359.515 Q2079.69 362.13 2079.69 367.2 Q2079.69 372.315 2076.71 374.931 Q2073.75 377.547 2067.94 377.547 L2062.06 377.547 L2062.06 391.436 L2057.38 391.436 L2057.38 356.876 Z" fill="#000000" fill-rule="nonzero" fill-opacity="1" /><path clip-path="url(#clip570)" d="M2109.53 386.505 L2109.53 377.223 L2101.89 377.223 L2101.89 373.38 L2114.16 373.38 L2114.16 388.218 Q2111.45 390.139 2108.19 391.135 Q2104.93 392.107 2101.22 392.107 Q2093.12 392.107 2088.54 387.385 Q2083.98 382.639 2083.98 374.19 Q2083.98 365.718 2088.54 360.996 Q2093.12 356.251 2101.22 356.251 Q2104.6 356.251 2107.63 357.084 Q2110.69 357.917 2113.26 359.538 L2113.26 364.515 Q2110.67 362.316 2107.75 361.204 Q2104.83 360.093 2101.62 360.093 Q2095.27 360.093 2092.08 363.635 Q2088.91 367.177 2088.91 374.19 Q2088.91 381.181 2092.08 384.723 Q2095.27 388.264 2101.62 388.264 Q2104.09 388.264 2106.04 387.848 Q2107.98 387.408 2109.53 386.505 Z" fill="#000000" fill-rule="nonzero" fill-opacity="1" /><path clip-path="url(#clip570)" d="M2142.22 399.306 L2142.22 402.616 L2117.59 402.616 L2117.59 399.306 L2142.22 399.306 Z" fill="#000000" fill-rule="nonzero" fill-opacity="1" /><path clip-path="url(#clip570)" d="M2158 378.403 Q2152.84 378.403 2150.85 379.584 Q2148.86 380.764 2148.86 383.612 Q2148.86 385.88 2150.34 387.223 Q2151.85 388.542 2154.42 388.542 Q2157.96 388.542 2160.09 386.042 Q2162.24 383.519 2162.24 379.352 L2162.24 378.403 L2158 378.403 M2166.5 376.644 L2166.5 391.436 L2162.24 391.436 L2162.24 387.501 Q2160.78 389.862 2158.61 390.996 Q2156.43 392.107 2153.28 392.107 Q2149.3 392.107 2146.94 389.885 Q2144.6 387.639 2144.6 383.889 Q2144.6 379.514 2147.52 377.292 Q2150.46 375.07 2156.27 375.07 L2162.24 375.07 L2162.24 374.653 Q2162.24 371.714 2160.3 370.116 Q2158.37 368.496 2154.88 368.496 Q2152.66 368.496 2150.55 369.028 Q2148.44 369.561 2146.5 370.626 L2146.5 366.69 Q2148.84 365.788 2151.04 365.348 Q2153.24 364.885 2155.32 364.885 Q2160.94 364.885 2163.72 367.802 Q2166.5 370.718 2166.5 376.644 Z" fill="#000000" fill-rule="nonzero" fill-opacity="1" /><path clip-path="url(#clip570)" d="M2175.27 355.417 L2179.53 355.417 L2179.53 391.436 L2175.27 391.436 L2175.27 355.417 Z" fill="#000000" fill-rule="nonzero" fill-opacity="1" /><path clip-path="url(#clip570)" d="M2192.66 358.149 L2192.66 365.51 L2201.43 365.51 L2201.43 368.82 L2192.66 368.82 L2192.66 382.894 Q2192.66 386.065 2193.51 386.968 Q2194.39 387.871 2197.05 387.871 L2201.43 387.871 L2201.43 391.436 L2197.05 391.436 Q2192.12 391.436 2190.25 389.607 Q2188.37 387.755 2188.37 382.894 L2188.37 368.82 L2185.25 368.82 L2185.25 365.51 L2188.37 365.51 L2188.37 358.149 L2192.66 358.149 Z" fill="#000000" fill-rule="nonzero" fill-opacity="1" /><polyline clip-path="url(#clip570)" style="stroke:#ac8d18; stroke-linecap:round; stroke-linejoin:round; stroke-width:4; stroke-opacity:1; fill:none" points="1772.84,425.996 1912.92,425.996 "/>
<path clip-path="url(#clip570)" d="M1936.27 408.716 L1940.95 408.716 L1940.95 439.341 L1957.77 439.341 L1957.77 443.276 L1936.27 443.276 L1936.27 408.716 Z" fill="#000000" fill-rule="nonzero" fill-opacity="1" /><path clip-path="url(#clip570)" d="M1962.68 408.716 L1969.65 408.716 L1978.47 432.234 L1987.33 408.716 L1994.3 408.716 L1994.3 443.276 L1989.74 443.276 L1989.74 412.929 L1980.83 436.632 L1976.13 436.632 L1967.22 412.929 L1967.22 443.276 L1962.68 443.276 L1962.68 408.716 Z" fill="#000000" fill-rule="nonzero" fill-opacity="1" /></svg>
