<?xml version="1.0" encoding="utf-8"?>
<svg xmlns="http://www.w3.org/2000/svg" xmlns:xlink="http://www.w3.org/1999/xlink" width="600" height="400" viewBox="0 0 2400 1600">
<defs>
  <clipPath id="clip250">
    <rect x="0" y="0" width="2400" height="1600"/>
  </clipPath>
</defs>
<path clip-path="url(#clip250)" d="M0 1600 L2400 1600 L2400 0 L0 0  Z" fill="#ffffff" fill-rule="evenodd" fill-opacity="1"/>
<defs>
  <clipPath id="clip251">
    <rect x="480" y="0" width="1681" height="1600"/>
  </clipPath>
</defs>
<path clip-path="url(#clip250)" d="M244.451 1423.18 L2352.76 1423.18 L2352.76 123.472 L244.451 123.472  Z" fill="#ffffff" fill-rule="evenodd" fill-opacity="1"/>
<defs>
  <clipPath id="clip252">
    <rect x="244" y="123" width="2109" height="1301"/>
  </clipPath>
</defs>
<polyline clip-path="url(#clip252)" style="stroke:#000000; stroke-linecap:round; stroke-linejoin:round; stroke-width:2; stroke-opacity:0.1; fill:none" points="302.131,1423.18 302.131,123.472 "/>
<polyline clip-path="url(#clip252)" style="stroke:#000000; stroke-linecap:round; stroke-linejoin:round; stroke-width:2; stroke-opacity:0.1; fill:none" points="799.373,1423.18 799.373,123.472 "/>
<polyline clip-path="url(#clip252)" style="stroke:#000000; stroke-linecap:round; stroke-linejoin:round; stroke-width:2; stroke-opacity:0.1; fill:none" points="1296.61,1423.18 1296.61,123.472 "/>
<polyline clip-path="url(#clip252)" style="stroke:#000000; stroke-linecap:round; stroke-linejoin:round; stroke-width:2; stroke-opacity:0.1; fill:none" points="1793.86,1423.18 1793.86,123.472 "/>
<polyline clip-path="url(#clip252)" style="stroke:#000000; stroke-linecap:round; stroke-linejoin:round; stroke-width:2; stroke-opacity:0.1; fill:none" points="2291.1,1423.18 2291.1,123.472 "/>
<polyline clip-path="url(#clip250)" style="stroke:#000000; stroke-linecap:round; stroke-linejoin:round; stroke-width:4; stroke-opacity:1; fill:none" points="244.451,1423.18 2352.76,1423.18 "/>
<polyline clip-path="url(#clip250)" style="stroke:#000000; stroke-linecap:round; stroke-linejoin:round; stroke-width:4; stroke-opacity:1; fill:none" points="302.131,1423.18 302.131,1404.28 "/>
<polyline clip-path="url(#clip250)" style="stroke:#000000; stroke-linecap:round; stroke-linejoin:round; stroke-width:4; stroke-opacity:1; fill:none" points="799.373,1423.18 799.373,1404.28 "/>
<polyline clip-path="url(#clip250)" style="stroke:#000000; stroke-linecap:round; stroke-linejoin:round; stroke-width:4; stroke-opacity:1; fill:none" points="1296.61,1423.18 1296.61,1404.28 "/>
<polyline clip-path="url(#clip250)" style="stroke:#000000; stroke-linecap:round; stroke-linejoin:round; stroke-width:4; stroke-opacity:1; fill:none" points="1793.86,1423.18 1793.86,1404.28 "/>
<polyline clip-path="url(#clip250)" style="stroke:#000000; stroke-linecap:round; stroke-linejoin:round; stroke-width:4; stroke-opacity:1; fill:none" points="2291.1,1423.18 2291.1,1404.28 "/>
<path clip-path="url(#clip250)" d="M302.131 1454.1 Q298.52 1454.1 296.691 1457.66 Q294.886 1461.2 294.886 1468.33 Q294.886 1475.44 296.691 1479.01 Q298.52 1482.55 302.131 1482.55 Q305.765 1482.55 307.571 1479.01 Q309.399 1475.44 309.399 1468.33 Q309.399 1461.2 307.571 1457.66 Q305.765 1454.1 302.131 1454.1 M302.131 1450.39 Q307.941 1450.39 310.997 1455 Q314.075 1459.58 314.075 1468.33 Q314.075 1477.06 310.997 1481.67 Q307.941 1486.25 302.131 1486.25 Q296.321 1486.25 293.242 1481.67 Q290.187 1477.06 290.187 1468.33 Q290.187 1459.58 293.242 1455 Q296.321 1450.39 302.131 1450.39 Z" fill="#000000" fill-rule="nonzero" fill-opacity="1" /><path clip-path="url(#clip250)" d="M763.065 1481.64 L779.384 1481.64 L779.384 1485.58 L757.44 1485.58 L757.44 1481.64 Q760.102 1478.89 764.685 1474.26 Q769.292 1469.61 770.472 1468.27 Q772.718 1465.74 773.597 1464.01 Q774.5 1462.25 774.5 1460.56 Q774.5 1457.8 772.556 1456.07 Q770.634 1454.33 767.533 1454.33 Q765.334 1454.33 762.88 1455.09 Q760.449 1455.86 757.672 1457.41 L757.672 1452.69 Q760.496 1451.55 762.949 1450.97 Q765.403 1450.39 767.44 1450.39 Q772.81 1450.39 776.005 1453.08 Q779.199 1455.77 779.199 1460.26 Q779.199 1462.39 778.389 1464.31 Q777.602 1466.2 775.496 1468.8 Q774.917 1469.47 771.815 1472.69 Q768.713 1475.88 763.065 1481.64 Z" fill="#000000" fill-rule="nonzero" fill-opacity="1" /><path clip-path="url(#clip250)" d="M789.245 1451.02 L807.602 1451.02 L807.602 1454.96 L793.528 1454.96 L793.528 1463.43 Q794.546 1463.08 795.565 1462.92 Q796.583 1462.73 797.602 1462.73 Q803.389 1462.73 806.768 1465.9 Q810.148 1469.08 810.148 1474.49 Q810.148 1480.07 806.676 1483.17 Q803.204 1486.25 796.884 1486.25 Q794.708 1486.25 792.44 1485.88 Q790.195 1485.51 787.787 1484.77 L787.787 1480.07 Q789.87 1481.2 792.093 1481.76 Q794.315 1482.32 796.792 1482.32 Q800.796 1482.32 803.134 1480.21 Q805.472 1478.1 805.472 1474.49 Q805.472 1470.88 803.134 1468.77 Q800.796 1466.67 796.792 1466.67 Q794.917 1466.67 793.042 1467.08 Q791.19 1467.5 789.245 1468.38 L789.245 1451.02 Z" fill="#000000" fill-rule="nonzero" fill-opacity="1" /><path clip-path="url(#clip250)" d="M829.361 1454.1 Q825.75 1454.1 823.921 1457.66 Q822.116 1461.2 822.116 1468.33 Q822.116 1475.44 823.921 1479.01 Q825.75 1482.55 829.361 1482.55 Q832.995 1482.55 834.801 1479.01 Q836.629 1475.44 836.629 1468.33 Q836.629 1461.2 834.801 1457.66 Q832.995 1454.1 829.361 1454.1 M829.361 1450.39 Q835.171 1450.39 838.227 1455 Q841.305 1459.58 841.305 1468.33 Q841.305 1477.06 838.227 1481.67 Q835.171 1486.25 829.361 1486.25 Q823.551 1486.25 820.472 1481.67 Q817.417 1477.06 817.417 1468.33 Q817.417 1459.58 820.472 1455 Q823.551 1450.39 829.361 1450.39 Z" fill="#000000" fill-rule="nonzero" fill-opacity="1" /><path clip-path="url(#clip250)" d="M1256.23 1451.02 L1274.59 1451.02 L1274.59 1454.96 L1260.52 1454.96 L1260.52 1463.43 Q1261.53 1463.08 1262.55 1462.92 Q1263.57 1462.73 1264.59 1462.73 Q1270.38 1462.73 1273.76 1465.9 Q1277.14 1469.08 1277.14 1474.49 Q1277.14 1480.07 1273.66 1483.17 Q1270.19 1486.25 1263.87 1486.25 Q1261.7 1486.25 1259.43 1485.88 Q1257.18 1485.51 1254.77 1484.77 L1254.77 1480.07 Q1256.86 1481.2 1259.08 1481.76 Q1261.3 1482.32 1263.78 1482.32 Q1267.78 1482.32 1270.12 1480.21 Q1272.46 1478.1 1272.46 1474.49 Q1272.46 1470.88 1270.12 1468.77 Q1267.78 1466.67 1263.78 1466.67 Q1261.9 1466.67 1260.03 1467.08 Q1258.18 1467.5 1256.23 1468.38 L1256.23 1451.02 Z" fill="#000000" fill-rule="nonzero" fill-opacity="1" /><path clip-path="url(#clip250)" d="M1296.35 1454.1 Q1292.74 1454.1 1290.91 1457.66 Q1289.1 1461.2 1289.1 1468.33 Q1289.1 1475.44 1290.91 1479.01 Q1292.74 1482.55 1296.35 1482.55 Q1299.98 1482.55 1301.79 1479.01 Q1303.62 1475.44 1303.62 1468.33 Q1303.62 1461.2 1301.79 1457.66 Q1299.98 1454.1 1296.35 1454.1 M1296.35 1450.39 Q1302.16 1450.39 1305.21 1455 Q1308.29 1459.58 1308.29 1468.33 Q1308.29 1477.06 1305.21 1481.67 Q1302.16 1486.25 1296.35 1486.25 Q1290.54 1486.25 1287.46 1481.67 Q1284.4 1477.06 1284.4 1468.33 Q1284.4 1459.58 1287.46 1455 Q1290.54 1450.39 1296.35 1450.39 Z" fill="#000000" fill-rule="nonzero" fill-opacity="1" /><path clip-path="url(#clip250)" d="M1326.51 1454.1 Q1322.9 1454.1 1321.07 1457.66 Q1319.26 1461.2 1319.26 1468.33 Q1319.26 1475.44 1321.07 1479.01 Q1322.9 1482.55 1326.51 1482.55 Q1330.14 1482.55 1331.95 1479.01 Q1333.78 1475.44 1333.78 1468.33 Q1333.78 1461.2 1331.95 1457.66 Q1330.14 1454.1 1326.51 1454.1 M1326.51 1450.39 Q1332.32 1450.39 1335.38 1455 Q1338.45 1459.58 1338.45 1468.33 Q1338.45 1477.06 1335.38 1481.67 Q1332.32 1486.25 1326.51 1486.25 Q1320.7 1486.25 1317.62 1481.67 Q1314.57 1477.06 1314.57 1468.33 Q1314.57 1459.58 1317.62 1455 Q1320.7 1450.39 1326.51 1450.39 Z" fill="#000000" fill-rule="nonzero" fill-opacity="1" /><path clip-path="url(#clip250)" d="M1752.13 1451.02 L1774.35 1451.02 L1774.35 1453.01 L1761.81 1485.58 L1756.92 1485.58 L1768.73 1454.96 L1752.13 1454.96 L1752.13 1451.02 Z" fill="#000000" fill-rule="nonzero" fill-opacity="1" /><path clip-path="url(#clip250)" d="M1783.52 1451.02 L1801.88 1451.02 L1801.88 1454.96 L1787.8 1454.96 L1787.8 1463.43 Q1788.82 1463.08 1789.84 1462.92 Q1790.86 1462.73 1791.88 1462.73 Q1797.66 1462.73 1801.04 1465.9 Q1804.42 1469.08 1804.42 1474.49 Q1804.42 1480.07 1800.95 1483.17 Q1797.48 1486.25 1791.16 1486.25 Q1788.98 1486.25 1786.72 1485.88 Q1784.47 1485.51 1782.06 1484.77 L1782.06 1480.07 Q1784.15 1481.2 1786.37 1481.76 Q1788.59 1482.32 1791.07 1482.32 Q1795.07 1482.32 1797.41 1480.21 Q1799.75 1478.1 1799.75 1474.49 Q1799.75 1470.88 1797.41 1468.77 Q1795.07 1466.67 1791.07 1466.67 Q1789.19 1466.67 1787.32 1467.08 Q1785.47 1467.5 1783.52 1468.38 L1783.52 1451.02 Z" fill="#000000" fill-rule="nonzero" fill-opacity="1" /><path clip-path="url(#clip250)" d="M1823.64 1454.1 Q1820.03 1454.1 1818.2 1457.66 Q1816.39 1461.2 1816.39 1468.33 Q1816.39 1475.44 1818.2 1479.01 Q1820.03 1482.55 1823.64 1482.55 Q1827.27 1482.55 1829.08 1479.01 Q1830.9 1475.44 1830.9 1468.33 Q1830.9 1461.2 1829.08 1457.66 Q1827.27 1454.1 1823.64 1454.1 M1823.64 1450.39 Q1829.45 1450.39 1832.5 1455 Q1835.58 1459.58 1835.58 1468.33 Q1835.58 1477.06 1832.5 1481.67 Q1829.45 1486.25 1823.64 1486.25 Q1817.83 1486.25 1814.75 1481.67 Q1811.69 1477.06 1811.69 1468.33 Q1811.69 1459.58 1814.75 1455 Q1817.83 1450.39 1823.64 1450.39 Z" fill="#000000" fill-rule="nonzero" fill-opacity="1" /><path clip-path="url(#clip250)" d="M2235.62 1481.64 L2243.26 1481.64 L2243.26 1455.28 L2234.95 1456.95 L2234.95 1452.69 L2243.22 1451.02 L2247.89 1451.02 L2247.89 1481.64 L2255.53 1481.64 L2255.53 1485.58 L2235.62 1485.58 L2235.62 1481.64 Z" fill="#000000" fill-rule="nonzero" fill-opacity="1" /><path clip-path="url(#clip250)" d="M2274.98 1454.1 Q2271.36 1454.1 2269.54 1457.66 Q2267.73 1461.2 2267.73 1468.33 Q2267.73 1475.44 2269.54 1479.01 Q2271.36 1482.55 2274.98 1482.55 Q2278.61 1482.55 2280.42 1479.01 Q2282.24 1475.44 2282.24 1468.33 Q2282.24 1461.2 2280.42 1457.66 Q2278.61 1454.1 2274.98 1454.1 M2274.98 1450.39 Q2280.79 1450.39 2283.84 1455 Q2286.92 1459.58 2286.92 1468.33 Q2286.92 1477.06 2283.84 1481.67 Q2280.79 1486.25 2274.98 1486.25 Q2269.17 1486.25 2266.09 1481.67 Q2263.03 1477.06 2263.03 1468.33 Q2263.03 1459.58 2266.09 1455 Q2269.17 1450.39 2274.98 1450.39 Z" fill="#000000" fill-rule="nonzero" fill-opacity="1" /><path clip-path="url(#clip250)" d="M2305.14 1454.1 Q2301.53 1454.1 2299.7 1457.66 Q2297.89 1461.2 2297.89 1468.33 Q2297.89 1475.44 2299.7 1479.01 Q2301.53 1482.55 2305.14 1482.55 Q2308.77 1482.55 2310.58 1479.01 Q2312.41 1475.44 2312.41 1468.33 Q2312.41 1461.2 2310.58 1457.66 Q2308.77 1454.1 2305.14 1454.1 M2305.14 1450.39 Q2310.95 1450.39 2314 1455 Q2317.08 1459.58 2317.08 1468.33 Q2317.08 1477.06 2314 1481.67 Q2310.95 1486.25 2305.14 1486.25 Q2299.33 1486.25 2296.25 1481.67 Q2293.19 1477.06 2293.19 1468.33 Q2293.19 1459.58 2296.25 1455 Q2299.33 1450.39 2305.14 1450.39 Z" fill="#000000" fill-rule="nonzero" fill-opacity="1" /><path clip-path="url(#clip250)" d="M2335.3 1454.1 Q2331.69 1454.1 2329.86 1457.66 Q2328.05 1461.2 2328.05 1468.33 Q2328.05 1475.44 2329.86 1479.01 Q2331.69 1482.55 2335.3 1482.55 Q2338.93 1482.55 2340.74 1479.01 Q2342.57 1475.44 2342.57 1468.33 Q2342.57 1461.2 2340.74 1457.66 Q2338.93 1454.1 2335.3 1454.1 M2335.3 1450.39 Q2341.11 1450.39 2344.16 1455 Q2347.24 1459.58 2347.24 1468.33 Q2347.24 1477.06 2344.16 1481.67 Q2341.11 1486.25 2335.3 1486.25 Q2329.49 1486.25 2326.41 1481.67 Q2323.35 1477.06 2323.35 1468.33 Q2323.35 1459.58 2326.41 1455 Q2329.49 1450.39 2335.3 1450.39 Z" fill="#000000" fill-rule="nonzero" fill-opacity="1" /><path clip-path="url(#clip250)" d="M1282.78 1518.52 L1288.67 1518.52 L1288.67 1547.77 L1306.15 1532.4 L1313.63 1532.4 L1294.72 1549.07 L1314.42 1568.04 L1306.78 1568.04 L1288.67 1550.63 L1288.67 1568.04 L1282.78 1568.04 L1282.78 1518.52 Z" fill="#000000" fill-rule="nonzero" fill-opacity="1" /><polyline clip-path="url(#clip252)" style="stroke:#000000; stroke-linecap:round; stroke-linejoin:round; stroke-width:2; stroke-opacity:0.1; fill:none" points="244.451,995.31 2352.76,995.31 "/>
<polyline clip-path="url(#clip252)" style="stroke:#000000; stroke-linecap:round; stroke-linejoin:round; stroke-width:2; stroke-opacity:0.1; fill:none" points="244.451,532.145 2352.76,532.145 "/>
<polyline clip-path="url(#clip250)" style="stroke:#000000; stroke-linecap:round; stroke-linejoin:round; stroke-width:4; stroke-opacity:1; fill:none" points="244.451,1423.18 244.451,123.472 "/>
<polyline clip-path="url(#clip250)" style="stroke:#000000; stroke-linecap:round; stroke-linejoin:round; stroke-width:4; stroke-opacity:1; fill:none" points="244.451,995.31 263.349,995.31 "/>
<polyline clip-path="url(#clip250)" style="stroke:#000000; stroke-linecap:round; stroke-linejoin:round; stroke-width:4; stroke-opacity:1; fill:none" points="244.451,532.145 263.349,532.145 "/>
<path clip-path="url(#clip250)" d="M137.745 1015.1 L145.384 1015.1 L145.384 988.737 L137.074 990.404 L137.074 986.145 L145.338 984.478 L150.014 984.478 L150.014 1015.1 L157.653 1015.1 L157.653 1019.04 L137.745 1019.04 L137.745 1015.1 Z" fill="#000000" fill-rule="nonzero" fill-opacity="1" /><path clip-path="url(#clip250)" d="M177.097 987.557 Q173.486 987.557 171.657 991.121 Q169.852 994.663 169.852 1001.79 Q169.852 1008.9 171.657 1012.46 Q173.486 1016.01 177.097 1016.01 Q180.731 1016.01 182.537 1012.46 Q184.365 1008.9 184.365 1001.79 Q184.365 994.663 182.537 991.121 Q180.731 987.557 177.097 987.557 M177.097 983.853 Q182.907 983.853 185.963 988.459 Q189.041 993.043 189.041 1001.79 Q189.041 1010.52 185.963 1015.13 Q182.907 1019.71 177.097 1019.71 Q171.287 1019.71 168.208 1015.13 Q165.153 1010.52 165.153 1001.79 Q165.153 993.043 168.208 988.459 Q171.287 983.853 177.097 983.853 Z" fill="#000000" fill-rule="nonzero" fill-opacity="1" /><path clip-path="url(#clip250)" d="M198.746 966.049 Q195.812 966.049 194.326 968.945 Q192.859 971.823 192.859 977.616 Q192.859 983.39 194.326 986.286 Q195.812 989.164 198.746 989.164 Q201.699 989.164 203.166 986.286 Q204.652 983.39 204.652 977.616 Q204.652 971.823 203.166 968.945 Q201.699 966.049 198.746 966.049 M198.746 963.04 Q203.467 963.04 205.949 966.782 Q208.451 970.506 208.451 977.616 Q208.451 984.706 205.949 988.449 Q203.467 992.173 198.746 992.173 Q194.025 992.173 191.524 988.449 Q189.041 984.706 189.041 977.616 Q189.041 970.506 191.524 966.782 Q194.025 963.04 198.746 963.04 Z" fill="#000000" fill-rule="nonzero" fill-opacity="1" /><path clip-path="url(#clip250)" d="M114.931 551.937 L122.57 551.937 L122.57 525.571 L114.26 527.238 L114.26 522.979 L122.524 521.312 L127.2 521.312 L127.2 551.937 L134.839 551.937 L134.839 555.872 L114.931 555.872 L114.931 551.937 Z" fill="#000000" fill-rule="nonzero" fill-opacity="1" /><path clip-path="url(#clip250)" d="M154.283 524.391 Q150.672 524.391 148.843 527.956 Q147.038 531.497 147.038 538.627 Q147.038 545.733 148.843 549.298 Q150.672 552.84 154.283 552.84 Q157.917 552.84 159.723 549.298 Q161.552 545.733 161.552 538.627 Q161.552 531.497 159.723 527.956 Q157.917 524.391 154.283 524.391 M154.283 520.687 Q160.093 520.687 163.149 525.294 Q166.227 529.877 166.227 538.627 Q166.227 547.354 163.149 551.96 Q160.093 556.543 154.283 556.543 Q148.473 556.543 145.394 551.96 Q142.339 547.354 142.339 538.627 Q142.339 529.877 145.394 525.294 Q148.473 520.687 154.283 520.687 Z" fill="#000000" fill-rule="nonzero" fill-opacity="1" /><path clip-path="url(#clip250)" d="M166.773 525.264 L172.979 525.264 L172.979 503.842 L166.227 505.197 L166.227 501.736 L172.942 500.382 L176.741 500.382 L176.741 525.264 L182.948 525.264 L182.948 528.462 L166.773 528.462 L166.773 525.264 Z" fill="#000000" fill-rule="nonzero" fill-opacity="1" /><path clip-path="url(#clip250)" d="M198.746 502.883 Q195.812 502.883 194.326 505.78 Q192.859 508.657 192.859 514.45 Q192.859 520.224 194.326 523.12 Q195.812 525.998 198.746 525.998 Q201.699 525.998 203.166 523.12 Q204.652 520.224 204.652 514.45 Q204.652 508.657 203.166 505.78 Q201.699 502.883 198.746 502.883 M198.746 499.874 Q203.467 499.874 205.949 503.617 Q208.451 507.341 208.451 514.45 Q208.451 521.541 205.949 525.283 Q203.467 529.007 198.746 529.007 Q194.025 529.007 191.524 525.283 Q189.041 521.541 189.041 514.45 Q189.041 507.341 191.524 503.617 Q194.025 499.874 198.746 499.874 Z" fill="#000000" fill-rule="nonzero" fill-opacity="1" /><path clip-path="url(#clip250)" d="M32.4621 801.797 Q32.4621 806.507 36.1542 809.244 Q39.8145 811.982 46.212 811.982 Q52.6095 811.982 56.3017 809.276 Q59.9619 806.539 59.9619 801.797 Q59.9619 797.118 56.2698 794.381 Q52.5777 791.643 46.212 791.643 Q39.8781 791.643 36.186 794.381 Q32.4621 797.118 32.4621 801.797 M27.4968 801.797 Q27.4968 794.158 32.4621 789.797 Q37.4273 785.437 46.212 785.437 Q54.9649 785.437 59.9619 789.797 Q64.9272 794.158 64.9272 801.797 Q64.9272 809.467 59.9619 813.828 Q54.9649 818.156 46.212 818.156 Q37.4273 818.156 32.4621 813.828 Q27.4968 809.467 27.4968 801.797 Z" fill="#000000" fill-rule="nonzero" fill-opacity="1" /><path clip-path="url(#clip250)" d="M46.212 750.139 Q39.7508 750.139 36.0905 752.812 Q32.3984 755.454 32.3984 760.101 Q32.3984 764.748 36.0905 767.422 Q39.7508 770.064 46.212 770.064 Q52.6732 770.064 56.3653 767.422 Q60.0256 764.748 60.0256 760.101 Q60.0256 755.454 56.3653 752.812 Q52.6732 750.139 46.212 750.139 M33.7671 770.064 Q30.5842 768.218 29.0564 765.417 Q27.4968 762.584 27.4968 758.669 Q27.4968 752.176 32.6531 748.134 Q37.8093 744.06 46.212 744.06 Q54.6147 744.06 59.771 748.134 Q64.9272 752.176 64.9272 758.669 Q64.9272 762.584 63.3994 765.417 Q61.8398 768.218 58.657 770.064 L64.0042 770.064 L64.0042 775.952 L14.479 775.952 L14.479 770.064 L33.7671 770.064 Z" fill="#000000" fill-rule="nonzero" fill-opacity="1" /><path clip-path="url(#clip250)" d="M28.3562 734.352 L28.3562 728.495 L64.6407 728.495 Q71.452 728.495 74.5076 731.105 Q77.5631 733.684 77.5631 739.445 L77.5631 741.673 L72.5979 741.673 L72.5979 740.113 Q72.5979 736.771 71.0383 735.561 Q69.5105 734.352 64.6407 734.352 L28.3562 734.352 M14.479 734.352 L14.479 728.495 L21.895 728.495 L21.895 734.352 L14.479 734.352 Z" fill="#000000" fill-rule="nonzero" fill-opacity="1" /><path clip-path="url(#clip250)" d="M954.742 65.7705 L954.742 89.8329 L947.248 89.8329 L947.248 27.2059 L954.742 27.2059 L954.742 34.0924 Q957.092 30.0415 960.657 28.0971 Q964.262 26.1121 969.245 26.1121 Q977.508 26.1121 982.653 32.6746 Q987.838 39.2371 987.838 49.9314 Q987.838 60.6258 982.653 67.1883 Q977.508 73.7508 969.245 73.7508 Q964.262 73.7508 960.657 71.8063 Q957.092 69.8214 954.742 65.7705 M980.101 49.9314 Q980.101 41.7081 976.698 37.0496 Q973.336 32.3505 967.422 32.3505 Q961.507 32.3505 958.105 37.0496 Q954.742 41.7081 954.742 49.9314 Q954.742 58.1548 958.105 62.8538 Q961.507 67.5124 967.422 67.5124 Q973.336 67.5124 976.698 62.8538 Q980.101 58.1548 980.101 49.9314 Z" fill="#000000" fill-rule="nonzero" fill-opacity="1" /><path clip-path="url(#clip250)" d="M1026.48 34.1734 Q1025.23 33.4443 1023.73 33.1202 Q1022.27 32.7556 1020.49 32.7556 Q1014.17 32.7556 1010.77 36.8875 Q1007.4 40.9789 1007.4 48.6757 L1007.4 72.576 L999.91 72.576 L999.91 27.2059 L1007.4 27.2059 L1007.4 34.2544 Q1009.75 30.1225 1013.52 28.1376 Q1017.29 26.1121 1022.68 26.1121 Q1023.45 26.1121 1024.38 26.2337 Q1025.31 26.3147 1026.44 26.5172 L1026.48 34.1734 Z" fill="#000000" fill-rule="nonzero" fill-opacity="1" /><path clip-path="url(#clip250)" d="M1050.06 32.4315 Q1044.06 32.4315 1040.58 37.1306 Q1037.1 41.7891 1037.1 49.9314 Q1037.1 58.0738 1040.54 62.7728 Q1044.02 67.4314 1050.06 67.4314 Q1056.02 67.4314 1059.5 62.7323 Q1062.98 58.0333 1062.98 49.9314 Q1062.98 41.8701 1059.5 37.1711 Q1056.02 32.4315 1050.06 32.4315 M1050.06 26.1121 Q1059.78 26.1121 1065.33 32.4315 Q1070.88 38.7509 1070.88 49.9314 Q1070.88 61.0714 1065.33 67.4314 Q1059.78 73.7508 1050.06 73.7508 Q1040.3 73.7508 1034.75 67.4314 Q1029.24 61.0714 1029.24 49.9314 Q1029.24 38.7509 1034.75 32.4315 Q1040.3 26.1121 1050.06 26.1121 Z" fill="#000000" fill-rule="nonzero" fill-opacity="1" /><path clip-path="url(#clip250)" d="M1115.81 49.9314 Q1115.81 41.7081 1112.4 37.0496 Q1109.04 32.3505 1103.13 32.3505 Q1097.21 32.3505 1093.81 37.0496 Q1090.45 41.7081 1090.45 49.9314 Q1090.45 58.1548 1093.81 62.8538 Q1097.21 67.5124 1103.13 67.5124 Q1109.04 67.5124 1112.4 62.8538 Q1115.81 58.1548 1115.81 49.9314 M1090.45 34.0924 Q1092.8 30.0415 1096.36 28.0971 Q1099.97 26.1121 1104.95 26.1121 Q1113.21 26.1121 1118.36 32.6746 Q1123.54 39.2371 1123.54 49.9314 Q1123.54 60.6258 1118.36 67.1883 Q1113.21 73.7508 1104.95 73.7508 Q1099.97 73.7508 1096.36 71.8063 Q1092.8 69.8214 1090.45 65.7705 L1090.45 72.576 L1082.95 72.576 L1082.95 9.54393 L1090.45 9.54393 L1090.45 34.0924 Z" fill="#000000" fill-rule="nonzero" fill-opacity="1" /><path clip-path="url(#clip250)" d="M1135.9 9.54393 L1143.35 9.54393 L1143.35 72.576 L1135.9 72.576 L1135.9 9.54393 Z" fill="#000000" fill-rule="nonzero" fill-opacity="1" /><path clip-path="url(#clip250)" d="M1197.76 48.0275 L1197.76 51.6733 L1163.49 51.6733 Q1163.97 59.3701 1168.1 63.421 Q1172.28 67.4314 1179.69 67.4314 Q1183.98 67.4314 1187.99 66.3781 Q1192.04 65.3249 1196.01 63.2184 L1196.01 70.267 Q1192 71.9684 1187.79 72.8596 Q1183.58 73.7508 1179.24 73.7508 Q1168.39 73.7508 1162.03 67.4314 Q1155.71 61.1119 1155.71 50.3365 Q1155.71 39.1965 1161.7 32.6746 Q1167.74 26.1121 1177.95 26.1121 Q1187.1 26.1121 1192.41 32.0264 Q1197.76 37.9003 1197.76 48.0275 M1190.3 45.84 Q1190.22 39.7232 1186.86 36.0774 Q1183.54 32.4315 1178.03 32.4315 Q1171.79 32.4315 1168.02 35.9558 Q1164.3 39.4801 1163.73 45.8805 L1190.3 45.84 M1171.63 6.22219 L1183.05 21.3726 L1176.85 21.3726 L1163.65 6.22219 L1171.63 6.22219 Z" fill="#000000" fill-rule="nonzero" fill-opacity="1" /><path clip-path="url(#clip250)" d="M1245.31 35.9153 Q1248.11 30.8922 1252 28.5022 Q1255.89 26.1121 1261.15 26.1121 Q1268.24 26.1121 1272.09 31.0947 Q1275.94 36.0368 1275.94 45.1919 L1275.94 72.576 L1268.44 72.576 L1268.44 45.4349 Q1268.44 38.913 1266.14 35.7533 Q1263.83 32.5936 1259.09 32.5936 Q1253.29 32.5936 1249.93 36.4419 Q1246.57 40.2903 1246.57 46.9338 L1246.57 72.576 L1239.08 72.576 L1239.08 45.4349 Q1239.08 38.8725 1236.77 35.7533 Q1234.46 32.5936 1229.64 32.5936 Q1223.92 32.5936 1220.56 36.4824 Q1217.2 40.3308 1217.2 46.9338 L1217.2 72.576 L1209.71 72.576 L1209.71 27.2059 L1217.2 27.2059 L1217.2 34.2544 Q1219.75 30.082 1223.32 28.0971 Q1226.88 26.1121 1231.78 26.1121 Q1236.73 26.1121 1240.17 28.6237 Q1243.65 31.1352 1245.31 35.9153 Z" fill="#000000" fill-rule="nonzero" fill-opacity="1" /><path clip-path="url(#clip250)" d="M1329.61 48.0275 L1329.61 51.6733 L1295.34 51.6733 Q1295.83 59.3701 1299.96 63.421 Q1304.13 67.4314 1311.55 67.4314 Q1315.84 67.4314 1319.85 66.3781 Q1323.9 65.3249 1327.87 63.2184 L1327.87 70.267 Q1323.86 71.9684 1319.65 72.8596 Q1315.43 73.7508 1311.1 73.7508 Q1300.24 73.7508 1293.88 67.4314 Q1287.56 61.1119 1287.56 50.3365 Q1287.56 39.1965 1293.56 32.6746 Q1299.6 26.1121 1309.8 26.1121 Q1318.96 26.1121 1324.27 32.0264 Q1329.61 37.9003 1329.61 48.0275 M1322.16 45.84 Q1322.08 39.7232 1318.72 36.0774 Q1315.39 32.4315 1309.89 32.4315 Q1303.65 32.4315 1299.88 35.9558 Q1296.15 39.4801 1295.59 45.8805 L1322.16 45.84 Z" fill="#000000" fill-rule="nonzero" fill-opacity="1" /><path clip-path="url(#clip250)" d="M1370.12 62.2867 L1378.67 62.2867 L1378.67 72.576 L1370.12 72.576 L1370.12 62.2867 M1370.12 29.6769 L1378.67 29.6769 L1378.67 39.9662 L1370.12 39.9662 L1370.12 29.6769 Z" fill="#000000" fill-rule="nonzero" fill-opacity="1" /><path clip-path="url(#clip250)" d="M1429.91 14.324 L1429.91 27.2059 L1445.27 27.2059 L1445.27 32.9987 L1429.91 32.9987 L1429.91 57.6282 Q1429.91 63.1779 1431.41 64.7578 Q1432.95 66.3376 1437.61 66.3376 L1445.27 66.3376 L1445.27 72.576 L1437.61 72.576 Q1428.98 72.576 1425.7 69.3758 Q1422.42 66.1351 1422.42 57.6282 L1422.42 32.9987 L1416.95 32.9987 L1416.95 27.2059 L1422.42 27.2059 L1422.42 14.324 L1429.91 14.324 Z" fill="#000000" fill-rule="nonzero" fill-opacity="1" /><path clip-path="url(#clip250)" d="M1462.28 65.7705 L1462.28 89.8329 L1454.79 89.8329 L1454.79 27.2059 L1462.28 27.2059 L1462.28 34.0924 Q1464.63 30.0415 1468.19 28.0971 Q1471.8 26.1121 1476.78 26.1121 Q1485.05 26.1121 1490.19 32.6746 Q1495.38 39.2371 1495.38 49.9314 Q1495.38 60.6258 1490.19 67.1883 Q1485.05 73.7508 1476.78 73.7508 Q1471.8 73.7508 1468.19 71.8063 Q1464.63 69.8214 1462.28 65.7705 M1487.64 49.9314 Q1487.64 41.7081 1484.24 37.0496 Q1480.87 32.3505 1474.96 32.3505 Q1469.05 32.3505 1465.64 37.0496 Q1462.28 41.7081 1462.28 49.9314 Q1462.28 58.1548 1465.64 62.8538 Q1469.05 67.5124 1474.96 67.5124 Q1480.87 67.5124 1484.24 62.8538 Q1487.64 58.1548 1487.64 49.9314 Z" fill="#000000" fill-rule="nonzero" fill-opacity="1" /><path clip-path="url(#clip250)" d="M1515.83 65.6895 L1544.39 65.6895 L1544.39 72.576 L1505.99 72.576 L1505.99 65.6895 Q1510.65 60.8689 1518.67 52.7671 Q1526.73 44.6248 1528.8 42.2752 Q1532.73 37.8598 1534.26 34.8216 Q1535.84 31.7429 1535.84 28.7857 Q1535.84 23.9651 1532.44 20.927 Q1529.08 17.8888 1523.65 17.8888 Q1519.8 17.8888 1515.51 19.2256 Q1511.26 20.5624 1506.39 23.2765 L1506.39 15.0127 Q1511.34 13.0277 1515.63 12.015 Q1519.92 11.0023 1523.49 11.0023 Q1532.89 11.0023 1538.48 15.7013 Q1544.07 20.4004 1544.07 28.2591 Q1544.07 31.9859 1542.65 35.3482 Q1541.27 38.6699 1537.59 43.2069 Q1536.57 44.3817 1531.15 50.0125 Q1525.72 55.6027 1515.83 65.6895 Z" fill="#000000" fill-rule="nonzero" fill-opacity="1" /><path clip-path="url(#clip250)" d="M1559.5 12.096 L1598.39 12.096 L1598.39 15.5798 L1576.43 72.576 L1567.89 72.576 L1588.55 18.9825 L1559.5 18.9825 L1559.5 12.096 Z" fill="#000000" fill-rule="nonzero" fill-opacity="1" /><path clip-path="url(#clip250)" d="M1621.4 65.6895 L1649.96 65.6895 L1649.96 72.576 L1611.56 72.576 L1611.56 65.6895 Q1616.21 60.8689 1624.24 52.7671 Q1632.3 44.6248 1634.36 42.2752 Q1638.29 37.8598 1639.83 34.8216 Q1641.41 31.7429 1641.41 28.7857 Q1641.41 23.9651 1638.01 20.927 Q1634.65 17.8888 1629.22 17.8888 Q1625.37 17.8888 1621.08 19.2256 Q1616.82 20.5624 1611.96 23.2765 L1611.96 15.0127 Q1616.9 13.0277 1621.2 12.015 Q1625.49 11.0023 1629.06 11.0023 Q1638.45 11.0023 1644.04 15.7013 Q1649.63 20.4004 1649.63 28.2591 Q1649.63 31.9859 1648.22 35.3482 Q1646.84 38.6699 1643.15 43.2069 Q1642.14 44.3817 1636.71 50.0125 Q1631.28 55.6027 1621.4 65.6895 Z" fill="#000000" fill-rule="nonzero" fill-opacity="1" /><polyline clip-path="url(#clip252)" style="stroke:#009af9; stroke-linecap:round; stroke-linejoin:round; stroke-width:4; stroke-opacity:1; fill:none" points="304.12,997.821 306.109,160.256 308.098,160.256 310.087,160.256 312.076,160.256 314.065,160.256 316.054,160.256 318.043,160.256 320.032,160.256 322.021,160.256 324.01,160.256 325.999,160.256 327.988,160.256 329.976,160.256 331.965,160.256 333.954,160.256 335.943,160.256 337.932,160.256 339.921,160.256 341.91,160.256 343.899,160.256 345.888,160.256 347.877,160.256 349.866,160.256 351.855,160.256 353.844,160.256 355.833,160.256 357.822,160.256 359.811,160.256 361.8,160.256 363.789,160.256 365.778,160.256 367.767,160.256 369.756,160.256 371.745,160.256 373.734,160.256 375.723,160.256 377.712,181.148 379.701,201.499 381.69,221.659 383.679,241.779 385.668,261.893 387.657,261.893 389.646,261.893 391.634,261.893 393.623,261.893 395.612,261.893 397.601,276.303 399.59,287.297 401.579,296.287 403.568,304.292 405.557,311.807 407.546,319.069 409.535,326.197 411.524,333.253 413.513,340.27 415.502,347.266 417.491,354.25 419.48,361.228 421.469,368.202 423.458,375.174 425.447,382.146 427.436,389.116 429.425,396.087 431.414,403.057 433.403,410.027 435.392,416.996 437.381,423.966 439.37,430.935 441.359,437.905 443.348,444.874 445.337,451.843 447.326,458.812 449.315,465.781 451.303,472.75 453.292,479.718 455.281,486.686 457.27,493.655 459.259,500.623 461.248,507.59 463.237,514.558 465.226,521.525 467.215,528.493 469.204,535.459 471.193,542.426 473.182,549.392 475.171,556.358 477.16,563.324 479.149,570.289 481.138,577.254 483.127,584.219 485.116,591.183 487.105,598.146 489.094,605.109 491.083,612.072 493.072,619.034 495.061,625.995 497.05,632.955 499.039,639.915 501.028,646.874 503.017,653.832 505.006,660.79 506.995,667.746 508.984,674.701 510.972,681.654 512.961,688.607 514.95,695.557 516.939,702.506 518.928,709.454 520.917,716.399 522.906,723.342 524.895,730.282 526.884,737.219 528.873,744.153 530.862,751.084 532.851,758.01 534.84,764.931 536.829,771.847 538.818,778.756 540.807,785.657 542.796,792.55 544.785,799.431 546.774,806.3 548.763,813.153 550.752,819.985 552.741,826.793 554.73,833.57 556.719,840.306 558.708,846.988 560.697,853.6 562.686,860.116 564.675,866.505 566.664,872.723 568.653,878.716 570.641,884.419 572.63,889.766 574.619,894.705 576.608,899.209 578.597,903.297 580.586,907.034 582.575,910.527 584.564,913.903 586.553,917.302 588.542,920.856 590.531,924.692 592.52,928.914 594.509,933.559 596.498,938.664 598.487,944.462 600.476,951.1 602.465,958.548 604.454,966.525 606.443,974.291 608.432,980.591 610.421,984.545 612.41,986.834 614.399,989.26 616.388,994.347 618.377,1005.42 620.366,1024.15 622.355,1036.21 624.344,1039.63 626.333,1039.89 628.322,1039.89 630.311,1039.89 632.299,1039.9 634.288,1039.9 636.277,1039.9 638.266,1039.9 640.255,1039.9 642.244,1039.91 644.233,1039.91 646.222,1039.91 648.211,1039.91 650.2,1039.92 652.189,1039.92 654.178,1039.92 656.167,1039.92 658.156,1039.92 660.145,1039.92 662.134,1039.92 664.123,1039.92 666.112,1039.93 668.101,1039.93 670.09,1039.93 672.079,1039.93 674.068,1039.94 676.057,1039.94 678.046,1039.94 680.035,1039.94 682.024,1039.94 684.013,1039.95 686.002,1039.95 687.991,1039.95 689.98,1039.95 691.968,1039.95 693.957,1039.95 695.946,1039.95 697.935,1039.95 699.924,1039.96 701.913,1039.96 703.902,1039.96 705.891,1039.96 707.88,1039.96 709.869,1039.97 711.858,1039.97 713.847,1039.97 715.836,1039.97 717.825,1039.97 719.814,1039.97 721.803,1039.97 723.792,1039.98 725.781,1039.98 727.77,1039.98 729.759,1039.98 731.748,1039.98 733.737,1039.99 735.726,1039.99 737.715,1039.99 739.704,1039.99 741.693,1039.99 743.682,1040 745.671,1040 747.66,1040 749.649,1040 751.637,1040 753.626,1040.01 755.615,1040.01 757.604,1040.01 759.593,1040.01 761.582,1040.01 763.571,1040.01 765.56,1040.01 767.549,1040.02 769.538,1040.02 771.527,1040.02 773.516,1040.02 775.505,1040.02 777.494,1040.02 779.483,1040.03 781.472,1040.03 783.461,1040.03 785.45,1040.03 787.439,1040.04 789.428,1040.04 791.417,1040.04 793.406,1040.04 795.395,1040.05 797.384,1040.05 799.373,1040.05 801.362,1040.05 803.351,1040.05 805.34,1040.06 807.329,1040.06 809.318,1040.06 811.307,1040.06 813.295,1040.07 815.284,1040.07 817.273,1040.07 819.262,1040.07 821.251,1040.07 823.24,1040.07 825.229,1040.07 827.218,1040.07 829.207,1040.08 831.196,1040.08 833.185,1040.08 835.174,1040.09 837.163,1040.09 839.152,1040.09 841.141,1040.09 843.13,1040.09 845.119,1040.1 847.108,1040.1 849.097,1040.1 851.086,1040.1 853.075,1040.1 855.064,1040.11 857.053,1040.11 859.042,1040.11 861.031,1040.12 863.02,1040.12 865.009,1040.12 866.998,1040.12 868.987,1040.13 870.976,1040.13 872.964,1040.13 874.953,1040.13 876.942,1040.13 878.931,1040.13 880.92,1040.14 882.909,1040.15 884.898,1040.15 886.887,1040.15 888.876,1040.15 890.865,1040.16 892.854,1040.16 894.843,1040.16 896.832,1040.16 898.821,1040.17 900.81,1040.17 902.799,1040.17 904.788,1040.17 906.777,1040.17 908.766,1040.18 910.755,1040.18 912.744,1040.18 914.733,1040.18 916.722,1040.19 918.711,1040.19 920.7,1040.19 922.689,1040.2 924.678,1040.2 926.667,1040.2 928.656,1040.2 930.645,1040.2 932.633,1040.21 934.622,1040.21 936.611,1040.21 938.6,1040.21 940.589,1040.21 942.578,1040.22 944.567,1040.22 946.556,1040.22 948.545,1040.23 950.534,1040.23 952.523,1040.23 954.512,1040.23 956.501,1040.23 958.49,1040.24 960.479,1040.24 962.468,1040.24 964.457,1040.24 966.446,1040.25 968.435,1040.25 970.424,1040.25 972.413,1040.25 974.402,1040.26 976.391,1040.26 978.38,1040.26 980.369,1040.26 982.358,1040.27 984.347,1040.27 986.336,1040.27 988.325,1040.27 990.314,1040.27 992.302,1040.28 994.291,1040.29 996.28,1040.29 998.269,1040.29 1000.26,1040.29 1002.25,1040.3 1004.24,1040.3 1006.23,1040.3 1008.21,1040.3 1010.2,1040.31 1012.19,1040.31 1014.18,1040.31 1016.17,1040.31 1018.16,1040.31 1020.15,1040.32 1022.14,1040.32 1024.13,1040.32 1026.11,1040.33 1028.1,1040.33 1030.09,1040.33 1032.08,1040.34 1034.07,1040.34 1036.06,1040.34 1038.05,1040.34 1040.04,1040.35 1042.03,1040.35 1044.02,1040.35 1046,1040.36 1047.99,1040.36 1049.98,1040.36 1051.97,1040.37 1053.96,1040.37 1055.95,1040.37 1057.94,1040.38 1059.93,1040.38 1061.92,1040.38 1063.91,1040.38 1065.89,1040.39 1067.88,1040.39 1069.87,1040.39 1071.86,1040.4 1073.85,1040.4 1075.84,1040.4 1077.83,1040.41 1079.82,1040.42 1081.81,1040.42 1083.79,1040.42 1085.78,1040.42 1087.77,1040.43 1089.76,1040.43 1091.75,1040.43 1093.74,1040.43 1095.73,1040.44 1097.72,1040.45 1099.71,1040.45 1101.7,1040.45 1103.68,1040.45 1105.67,1040.46 1107.66,1040.46 1109.65,1040.46 1111.64,1040.47 1113.63,1040.48 1115.62,1040.48 1117.61,1040.48 1119.6,1040.48 1121.59,1040.49 1123.57,1040.5 1125.56,1040.5 1127.55,1040.5 1129.54,1040.5 1131.53,1040.51 1133.52,1040.51 1135.51,1040.51 1137.5,1040.52 1139.49,1040.53 1141.48,1040.53 1143.46,1040.53 1145.45,1040.53 1147.44,1040.54 1149.43,1040.55 1151.42,1040.55 1153.41,1040.55 1155.4,1040.56 1157.39,1040.57 1159.38,1040.57 1161.36,1040.57 1163.35,1040.57 1165.34,1040.58 1167.33,1040.58 1169.32,1040.58 1171.31,1040.59 1173.3,1040.59 1175.29,1040.59 1177.28,1040.59 1179.27,1040.6 1181.25,1040.6 1183.24,1040.61 1185.23,1040.61 1187.22,1040.62 1189.21,1040.62 1191.2,1040.63 1193.19,1040.63 1195.18,1040.63 1197.17,1040.63 1199.16,1040.64 1201.14,1040.64 1203.13,1040.64 1205.12,1040.65 1207.11,1040.65 1209.1,1040.66 1211.09,1040.66 1213.08,1040.67 1215.07,1040.67 1217.06,1040.68 1219.04,1040.68 1221.03,1040.68 1223.02,1040.69 1225.01,1040.69 1227,1040.69 1228.99,1040.7 1230.98,1040.7 1232.97,1040.71 1234.96,1040.72 1236.95,1040.72 1238.93,1040.72 1240.92,1040.73 1242.91,1040.74 1244.9,1040.74 1246.89,1040.74 1248.88,1040.74 1250.87,1040.75 1252.86,1040.75 1254.85,1040.75 1256.84,1040.76 1258.82,1040.76 1260.81,1040.78 1262.8,1040.78 1264.79,1040.78 1266.78,1040.79 1268.77,1040.8 1270.76,1040.8 1272.75,1040.8 1274.74,1040.8 1276.72,1040.81 1278.71,1040.81 1280.7,1040.81 1282.69,1040.82 1284.68,1040.83 1286.67,1040.84 1288.66,1040.84 1290.65,1040.84 1292.64,1040.85 1294.63,1040.86 1296.61,1040.86 1298.6,1040.87 1300.59,1040.87 1302.58,1040.88 1304.57,1040.88 1306.56,1040.88 1308.55,1040.89 1310.54,1040.89 1312.53,1040.91 1314.52,1040.91 1316.5,1040.91 1318.49,1040.92 1320.48,1040.93 1322.47,1040.93 1324.46,1040.94 1326.45,1040.94 1328.44,1040.95 1330.43,1040.95 1332.42,1040.96 1334.4,1040.96 1336.39,1040.97 1338.38,1040.99 1340.37,1040.99 1342.36,1040.99 1344.35,1041 1346.34,1041.01 1348.33,1041.01 1350.32,1041.02 1352.31,1041.02 1354.29,1041.04 1356.28,1041.04 1358.27,1041.04 1360.26,1041.04 1362.25,1041.05 1364.24,1041.07 1366.23,1041.07 1368.22,1041.08 1370.21,1041.08 1372.2,1041.1 1374.18,1041.1 1376.17,1041.1 1378.16,1041.11 1380.15,1041.12 1382.14,1041.12 1384.13,1041.13 1386.12,1041.13 1388.11,1041.14 1390.1,1041.17 1392.08,1041.17 1394.07,1041.17 1396.06,1041.18 1398.05,1041.2 1400.04,1041.2 1402.03,1041.2 1404.02,1041.21 1406.01,1041.22 1408,1041.22 1409.99,1041.23 1411.97,1041.23 1413.96,1041.24 1415.95,1041.27 1417.94,1041.27 1419.93,1041.27 1421.92,1041.28 1423.91,1041.3 1425.9,1041.3 1427.89,1041.31 1429.88,1041.32 1431.86,1041.33 1433.85,1041.33 1435.84,1041.34 1437.83,1041.34 1439.82,1041.36 1441.81,1041.36 1443.8,1041.36 1445.79,1041.36 1447.78,1041.38 1449.76,1041.4 1451.75,1041.4 1453.74,1041.4 1455.73,1041.41 1457.72,1041.43 1459.71,1041.43 1461.7,1041.43 1463.69,1041.44 1465.68,1041.46 1467.67,1041.46 1469.65,1041.46 1471.64,1041.46 1473.63,1041.48 1475.62,1041.5 1477.61,1041.5 1479.6,1041.51 1481.59,1041.52 1483.58,1041.54 1485.57,1041.54 1487.56,1041.54 1489.54,1041.55 1491.53,1041.57 1493.52,1041.57 1495.51,1041.57 1497.5,1041.58 1499.49,1041.59 1501.48,1041.62 1503.47,1041.62 1505.46,1041.62 1507.44,1041.63 1509.43,1041.66 1511.42,1041.66 1513.41,1041.66 1515.4,1041.67 1517.39,1041.69 1519.38,1041.69 1521.37,1041.69 1523.36,1041.7 1525.35,1041.71 1527.33,1041.74 1529.32,1041.74 1531.31,1041.75 1533.3,1041.76 1535.29,1041.79 1537.28,1041.79 1539.27,1041.79 1541.26,1041.8 1543.25,1041.82 1545.24,1041.82 1547.22,1041.83 1549.21,1041.83 1551.2,1041.85 1553.19,1041.89 1555.18,1041.89 1557.17,1041.89 1559.16,1041.91 1561.15,1041.93 1563.14,1041.93 1565.12,1041.94 1567.11,1041.95 1569.1,1041.97 1571.09,1041.97 1573.08,1041.98 1575.07,1041.99 1577.06,1042.01 1579.05,1042.04 1581.04,1042.04 1583.03,1042.05 1585.01,1042.07 1587,1042.1 1588.99,1042.1 1590.98,1042.11 1592.97,1042.12 1594.96,1042.14 1596.95,1042.14 1598.94,1042.15 1600.93,1042.16 1602.92,1042.18 1604.9,1042.22 1606.89,1042.22 1608.88,1042.23 1610.87,1042.25 1612.86,1042.29 1614.85,1042.29 1616.84,1042.29 1618.83,1042.31 1620.82,1042.34 1622.81,1042.34 1624.79,1042.34 1626.78,1042.35 1628.77,1042.38 1630.76,1042.43 1632.75,1042.43 1634.74,1042.44 1636.73,1042.46 1638.72,1042.5 1640.71,1042.5 1642.69,1042.51 1644.68,1042.52 1646.67,1042.56 1648.66,1042.56 1650.65,1042.56 1652.64,1042.58 1654.63,1042.6 1656.62,1042.66 1658.61,1042.66 1660.6,1042.67 1662.58,1042.69 1664.57,1042.74 1666.56,1042.74 1668.55,1042.75 1670.54,1042.77 1672.53,1042.81 1674.52,1042.81 1676.51,1042.81 1678.5,1042.83 1680.49,1042.86 1682.47,1042.86 1684.46,1042.87 1686.45,1042.88 1688.44,1042.91 1690.43,1042.96 1692.42,1042.96 1694.41,1042.97 1696.4,1042.99 1698.39,1043.03 1700.37,1043.03 1702.36,1043.04 1704.35,1043.06 1706.34,1043.09 1708.33,1043.09 1710.32,1043.1 1712.31,1043.11 1714.3,1043.14 1716.29,1043.2 1718.28,1043.2 1720.26,1043.21 1722.25,1043.24 1724.24,1043.29 1726.23,1043.29 1728.22,1043.3 1730.21,1043.31 1732.2,1043.35 1734.19,1043.35 1736.18,1043.36 1738.17,1043.38 1740.15,1043.41 1742.14,1043.48 1744.13,1043.48 1746.12,1043.49 1748.11,1043.52 1750.1,1043.57 1752.09,1043.57 1754.08,1043.58 1756.07,1043.6 1758.05,1043.65 1760.04,1043.65 1762.03,1043.66 1764.02,1043.68 1766.01,1043.71 1768,1043.79 1769.99,1043.79 1771.98,1043.8 1773.97,1043.83 1775.96,1043.89 1777.94,1043.89 1779.93,1043.91 1781.92,1043.93 1783.91,1043.98 1785.9,1043.98 1787.89,1043.99 1789.88,1044.01 1791.87,1044.05 1793.86,1044.14 1795.85,1044.14 1797.83,1044.16 1799.82,1044.19 1801.81,1044.26 1803.8,1044.26 1805.79,1044.27 1807.78,1044.3 1809.77,1044.36 1811.76,1044.36 1813.75,1044.37 1815.73,1044.39 1817.72,1044.44 1819.71,1044.53 1821.7,1044.53 1823.69,1044.55 1825.68,1044.59 1827.67,1044.67 1829.66,1044.67 1831.65,1044.68 1833.64,1044.71 1835.62,1044.78 1837.61,1044.78 1839.6,1044.79 1841.59,1044.82 1843.58,1044.87 1845.57,1044.97 1847.56,1044.97 1849.55,1044.99 1851.54,1045.04 1853.53,1045.12 1855.51,1045.12 1857.5,1045.14 1859.49,1045.17 1861.48,1045.24 1863.47,1045.24 1865.46,1045.26 1867.45,1045.29 1869.44,1045.34 1871.43,1045.46 1873.41,1045.46 1875.4,1045.48 1877.39,1045.53 1879.38,1045.62 1881.37,1045.62 1883.36,1045.64 1885.35,1045.68 1887.34,1045.75 1889.33,1045.75 1891.32,1045.77 1893.3,1045.8 1895.29,1045.86 1897.28,1045.98 1899.27,1045.98 1901.26,1046 1903.25,1046.05 1905.24,1046.15 1907.23,1046.15 1909.22,1046.17 1911.21,1046.21 1913.19,1046.29 1915.18,1046.29 1917.17,1046.3 1919.16,1046.34 1921.15,1046.4 1923.14,1046.52 1925.13,1046.52 1927.12,1046.55 1929.11,1046.6 1931.09,1046.7 1933.08,1046.7 1935.07,1046.72 1937.06,1046.75 1939.05,1046.83 1941.04,1046.83 1943.03,1046.85 1945.02,1046.88 1947.01,1046.94 1949,1046.94 1950.98,1046.95 1952.97,1046.98 1954.96,1047.03 1956.95,1047.12 1958.94,1047.12 1960.93,1047.14 1962.92,1047.18 1964.91,1047.25 1966.9,1047.25 1968.89,1047.27 1970.87,1047.3 1972.86,1047.35 1974.85,1047.35 1976.84,1047.37 1978.83,1047.39 1980.82,1047.43 1982.81,1047.52 1984.8,1047.52 1986.79,1047.54 1988.77,1047.57 1990.76,1047.64 1992.75,1047.64 1994.74,1047.65 1996.73,1047.68 1998.72,1047.73 2000.71,1047.73 2002.7,1047.74 2004.69,1047.76 2006.68,1047.8 2008.66,1047.87 2010.65,1047.87 2012.64,1047.89 2014.63,1047.92 2016.62,1047.97 2018.61,1047.97 2020.6,1047.98 2022.59,1048 2024.58,1048.05 2026.57,1048.05 2028.55,1048.05 2030.54,1048.07 2032.53,1048.1 2034.52,1048.16 2036.51,1048.16 2038.5,1048.17 2040.49,1048.2 2042.48,1048.24 2044.47,1048.24 2046.45,1048.25 2048.44,1048.27 2050.43,1048.3 2052.42,1048.3 2054.41,1048.3 2056.4,1048.32 2058.39,1048.34 2060.38,1048.38 2062.37,1048.38 2064.36,1048.39 2066.34,1048.41 2068.33,1048.44 2070.32,1048.44 2072.31,1048.45 2074.3,1048.46 2076.29,1048.48 2078.28,1048.48 2080.27,1048.48 2082.26,1048.49 2084.25,1048.51 2086.23,1048.54 2088.22,1048.54 2090.21,1048.55 2092.2,1048.56 2094.19,1048.58 2096.18,1048.58 2098.17,1048.58 2100.16,1048.59 2102.15,1048.6 2104.14,1048.6 2106.12,1048.61 2108.11,1048.61 2110.1,1048.62 2112.09,1048.64 2114.08,1048.64 2116.07,1048.65 2118.06,1048.65 2120.05,1048.66 2122.04,1048.66 2124.02,1048.67 2126.01,1048.67 2128,1048.68 2129.99,1048.68 2131.98,1048.68 2133.97,1048.69 2135.96,1048.69 2137.95,1048.7 2139.94,1048.7 2141.93,1048.71 2143.91,1048.71 2145.9,1048.72 2147.89,1048.72 2149.88,1048.72 2151.87,1048.72 2153.86,1048.73 2155.85,1048.73 2157.84,1048.73 2159.83,1048.73 2161.82,1048.73 2163.8,1048.74 2165.79,1048.74 2167.78,1048.74 2169.77,1048.74 2171.76,1048.75 2173.75,1048.75 2175.74,1048.75 2177.73,1048.75 2179.72,1048.75 2181.7,1048.75 2183.69,1048.75 2185.68,1048.75 2187.67,1048.75 2189.66,1048.76 2191.65,1048.76 2193.64,1048.76 2195.63,1048.76 2197.62,1048.76 2199.61,1048.76 2201.59,1048.76 2203.58,1048.76 2205.57,1048.76 2207.56,1048.76 2209.55,1048.76 2211.54,1048.76 2213.53,1048.76 2215.52,1048.77 2217.51,1048.77 2219.5,1048.77 2221.48,1048.77 2223.47,1048.77 2225.46,1048.77 2227.45,1048.77 2229.44,1048.77 2231.43,1048.77 2233.42,1048.77 2235.41,1048.77 2237.4,1048.77 2239.38,1048.77 2241.37,1048.77 2243.36,1048.77 2245.35,1048.77 2247.34,1048.77 2249.33,1048.77 2251.32,1048.77 2253.31,1048.77 2255.3,1048.77 2257.29,1048.77 2259.27,1048.77 2261.26,1048.77 2263.25,1048.77 2265.24,1048.77 2267.23,1048.77 2269.22,1048.77 2271.21,1048.77 2273.2,1048.77 2275.19,1048.77 2277.18,1048.77 2279.16,1048.77 2281.15,1048.77 2283.14,1048.77 2285.13,1048.77 2287.12,1048.77 2289.11,1048.77 2291.1,1048.77 2293.09,1048.77 "/>
<polyline clip-path="url(#clip252)" style="stroke:#e26f46; stroke-linecap:round; stroke-linejoin:round; stroke-width:4; stroke-opacity:1; fill:none" points="304.12,997.821 306.109,997.821 308.098,997.821 310.087,997.821 312.076,997.821 314.065,1004.91 316.054,1007.78 318.043,1007.83 320.032,1007.85 322.021,1007.88 324.01,1007.91 325.999,1007.94 327.988,1007.97 329.976,1008 331.965,1008.04 333.954,1008.07 335.943,1008.11 337.932,1008.15 339.921,1008.18 341.91,1008.22 343.899,1008.26 345.888,1008.31 347.877,1008.35 349.866,1008.4 351.855,1008.44 353.844,1008.49 355.833,1008.54 357.822,1008.59 359.811,1008.64 361.8,1008.7 363.789,1008.75 365.778,1008.81 367.767,1008.87 369.756,1008.93 371.745,1008.99 373.734,1009.06 375.723,1009.12 377.712,1009.19 379.701,1009.26 381.69,1009.33 383.679,1009.4 385.668,1009.48 387.657,1009.55 389.646,1009.63 391.634,1009.71 393.623,1009.79 395.612,1009.88 397.601,1009.96 399.59,1010.05 401.579,1010.14 403.568,1010.23 405.557,1010.32 407.546,1010.41 409.535,1010.51 411.524,1010.61 413.513,1010.71 415.502,1010.81 417.491,1010.91 419.48,1011.01 421.469,1011.12 423.458,1011.23 425.447,1011.33 427.436,1011.44 429.425,1011.55 431.414,1011.67 433.403,1011.78 435.392,1011.9 437.381,1012.01 439.37,1012.13 441.359,1012.25 443.348,1012.37 445.337,1012.49 447.326,1012.61 449.315,1012.73 451.303,1012.86 453.292,1012.98 455.281,1013.1 457.27,1013.23 459.259,1013.36 461.248,1013.48 463.237,1013.61 465.226,1013.74 467.215,1013.87 469.204,1014 471.193,1014.13 473.182,1014.26 475.171,1014.39 477.16,1014.52 479.149,1014.65 481.138,1014.78 483.127,1014.91 485.116,1015.04 487.105,1015.17 489.094,1015.3 491.083,1015.43 493.072,1015.56 495.061,1015.68 497.05,1015.81 499.039,1015.94 501.028,1016.07 503.017,1016.2 505.006,1016.33 506.995,1016.45 508.984,1016.58 510.972,1016.7 512.961,1016.83 514.95,1016.95 516.939,1017.08 518.928,1017.2 520.917,1017.32 522.906,1017.44 524.895,1017.56 526.884,1017.68 528.873,1017.8 530.862,1017.92 532.851,1018.04 534.84,1018.15 536.829,1018.27 538.818,1018.38 540.807,1018.49 542.796,1018.61 544.785,1018.72 546.774,1018.83 548.763,1018.93 550.752,1019.04 552.741,1019.15 554.73,1019.25 556.719,1019.36 558.708,1019.46 560.697,1019.56 562.686,1019.66 564.675,1019.76 566.664,1019.86 568.653,1019.96 570.641,1020.05 572.63,1020.15 574.619,1020.24 576.608,1020.33 578.597,1020.42 580.586,1020.51 582.575,1020.6 584.564,1020.69 586.553,1020.78 588.542,1020.86 590.531,1020.94 592.52,1021.03 594.509,1021.11 596.498,1021.19 598.487,1021.27 600.476,1021.34 602.465,1021.42 604.454,1021.5 606.443,1021.57 608.432,1021.64 610.421,1021.72 612.41,1021.79 614.399,1021.86 616.388,1021.93 618.377,1021.99 620.366,1022.06 622.355,1022.13 624.344,1022.19 626.333,1022.25 628.322,1022.32 630.311,1022.38 632.299,1022.44 634.288,1022.5 636.277,1022.56 638.266,1022.61 640.255,1022.67 642.244,1022.73 644.233,1022.78 646.222,1022.83 648.211,1022.89 650.2,1022.94 652.189,1022.99 654.178,1023.04 656.167,1023.09 658.156,1023.14 660.145,1023.19 662.134,1023.23 664.123,1023.28 666.112,1023.32 668.101,1023.37 670.09,1023.41 672.079,1023.46 674.068,1023.5 676.057,1023.54 678.046,1023.58 680.035,1023.62 682.024,1023.66 684.013,1023.7 686.002,1023.74 687.991,1023.77 689.98,1023.81 691.968,1023.85 693.957,1023.88 695.946,1023.92 697.935,1023.95 699.924,1023.99 701.913,1024.02 703.902,1024.05 705.891,1024.09 707.88,1024.12 709.869,1024.15 711.858,1024.18 713.847,1024.21 715.836,1024.24 717.825,1024.27 719.814,1024.3 721.803,1024.33 723.792,1024.35 725.781,1024.38 727.77,1024.41 729.759,1024.44 731.748,1024.46 733.737,1024.49 735.726,1024.51 737.715,1024.54 739.704,1024.56 741.693,1024.59 743.682,1024.61 745.671,1024.64 747.66,1024.66 749.649,1024.68 751.637,1024.71 753.626,1024.73 755.615,1024.75 757.604,1024.77 759.593,1024.79 761.582,1024.81 763.571,1024.84 765.56,1024.86 767.549,1024.88 769.538,1024.9 771.527,1024.92 773.516,1024.94 775.505,1024.96 777.494,1024.98 779.483,1024.99 781.472,1025.01 783.461,1025.03 785.45,1025.05 787.439,1025.07 789.428,1025.09 791.417,1025.1 793.406,1025.12 795.395,1025.14 797.384,1025.16 799.373,1025.17 801.362,1025.19 803.351,1025.21 805.34,1025.22 807.329,1025.24 809.318,1025.26 811.307,1025.27 813.295,1025.29 815.284,1025.3 817.273,1025.32 819.262,1025.33 821.251,1025.35 823.24,1025.37 825.229,1025.38 827.218,1025.4 829.207,1025.41 831.196,1025.43 833.185,1025.44 835.174,1025.45 837.163,1025.47 839.152,1025.48 841.141,1025.5 843.13,1025.51 845.119,1025.53 847.108,1025.54 849.097,1025.55 851.086,1025.57 853.075,1025.58 855.064,1025.6 857.053,1025.61 859.042,1025.62 861.031,1025.64 863.02,1025.65 865.009,1025.66 866.998,1025.68 868.987,1025.69 870.976,1025.7 872.964,1025.72 874.953,1025.73 876.942,1025.74 878.931,1025.75 880.92,1025.77 882.909,1025.78 884.898,1025.79 886.887,1025.8 888.876,1025.82 890.865,1025.83 892.854,1025.84 894.843,1025.86 896.832,1025.87 898.821,1025.88 900.81,1025.89 902.799,1025.9 904.788,1025.92 906.777,1025.93 908.766,1025.94 910.755,1025.95 912.744,1025.97 914.733,1025.98 916.722,1025.99 918.711,1026 920.7,1026.01 922.689,1026.03 924.678,1026.04 926.667,1026.05 928.656,1026.06 930.645,1026.07 932.633,1026.09 934.622,1026.1 936.611,1026.11 938.6,1026.12 940.589,1026.13 942.578,1026.15 944.567,1026.16 946.556,1026.17 948.545,1026.18 950.534,1026.19 952.523,1026.2 954.512,1026.22 956.501,1026.23 958.49,1026.24 960.479,1026.25 962.468,1026.26 964.457,1026.27 966.446,1026.29 968.435,1026.3 970.424,1026.31 972.413,1026.32 974.402,1026.33 976.391,1026.34 978.38,1026.36 980.369,1026.37 982.358,1026.38 984.347,1026.39 986.336,1026.4 988.325,1026.41 990.314,1026.43 992.302,1026.44 994.291,1026.45 996.28,1026.46 998.269,1026.47 1000.26,1026.48 1002.25,1026.49 1004.24,1026.51 1006.23,1026.52 1008.21,1026.53 1010.2,1026.54 1012.19,1026.55 1014.18,1026.56 1016.17,1026.58 1018.16,1026.59 1020.15,1026.6 1022.14,1026.61 1024.13,1026.62 1026.11,1026.63 1028.1,1026.64 1030.09,1026.66 1032.08,1026.67 1034.07,1026.68 1036.06,1026.69 1038.05,1026.7 1040.04,1026.71 1042.03,1026.72 1044.02,1026.74 1046,1026.75 1047.99,1026.76 1049.98,1026.77 1051.97,1026.78 1053.96,1026.79 1055.95,1026.81 1057.94,1026.82 1059.93,1026.83 1061.92,1026.84 1063.91,1026.85 1065.89,1026.86 1067.88,1026.87 1069.87,1026.89 1071.86,1026.9 1073.85,1026.91 1075.84,1026.92 1077.83,1026.93 1079.82,1026.94 1081.81,1026.96 1083.79,1026.97 1085.78,1026.98 1087.77,1026.99 1089.76,1027 1091.75,1027.01 1093.74,1027.02 1095.73,1027.04 1097.72,1027.05 1099.71,1027.06 1101.7,1027.07 1103.68,1027.08 1105.67,1027.09 1107.66,1027.11 1109.65,1027.12 1111.64,1027.13 1113.63,1027.14 1115.62,1027.15 1117.61,1027.16 1119.6,1027.17 1121.59,1027.19 1123.57,1027.2 1125.56,1027.21 1127.55,1027.22 1129.54,1027.23 1131.53,1027.24 1133.52,1027.26 1135.51,1027.27 1137.5,1027.28 1139.49,1027.29 1141.48,1027.3 1143.46,1027.31 1145.45,1027.32 1147.44,1027.34 1149.43,1027.35 1151.42,1027.36 1153.41,1027.37 1155.4,1027.38 1157.39,1027.39 1159.38,1027.41 1161.36,1027.42 1163.35,1027.43 1165.34,1027.44 1167.33,1027.45 1169.32,1027.46 1171.31,1027.47 1173.3,1027.49 1175.29,1027.5 1177.28,1027.51 1179.27,1027.52 1181.25,1027.53 1183.24,1027.54 1185.23,1027.56 1187.22,1027.57 1189.21,1027.58 1191.2,1027.59 1193.19,1027.6 1195.18,1027.61 1197.17,1027.62 1199.16,1027.64 1201.14,1027.65 1203.13,1027.66 1205.12,1027.67 1207.11,1027.68 1209.1,1027.69 1211.09,1027.71 1213.08,1027.72 1215.07,1027.73 1217.06,1027.74 1219.04,1027.75 1221.03,1027.76 1223.02,1027.77 1225.01,1027.79 1227,1027.8 1228.99,1027.81 1230.98,1027.82 1232.97,1027.83 1234.96,1027.84 1236.95,1027.86 1238.93,1027.87 1240.92,1027.88 1242.91,1027.89 1244.9,1027.9 1246.89,1027.91 1248.88,1027.92 1250.87,1027.94 1252.86,1027.95 1254.85,1027.96 1256.84,1027.97 1258.82,1027.98 1260.81,1027.99 1262.8,1028 1264.79,1028.02 1266.78,1028.03 1268.77,1028.04 1270.76,1028.05 1272.75,1028.06 1274.74,1028.07 1276.72,1028.08 1278.71,1028.1 1280.7,1028.11 1282.69,1028.12 1284.68,1028.13 1286.67,1028.14 1288.66,1028.15 1290.65,1028.16 1292.64,1028.18 1294.63,1028.19 1296.61,1028.2 1298.6,1028.21 1300.59,1028.22 1302.58,1028.23 "/>
<polyline clip-path="url(#clip252)" style="stroke:#3da44d; stroke-linecap:round; stroke-linejoin:round; stroke-width:4; stroke-opacity:1; fill:none" points="304.12,997.821 306.109,160.256 308.098,160.256 310.087,160.256 312.076,160.256 314.065,160.256 316.054,160.256 318.043,160.256 320.032,160.256 322.021,160.256 324.01,160.256 325.999,160.256 327.988,160.256 329.976,160.256 331.965,160.256 333.954,160.256 335.943,160.256 337.932,160.256 339.921,160.256 341.91,160.256 343.899,160.256 345.888,160.256 347.877,160.256 349.866,160.256 351.855,160.256 353.844,160.256 355.833,160.256 357.822,160.256 359.811,160.256 361.8,160.256 363.789,160.256 365.778,160.256 367.767,160.256 369.756,160.256 371.745,160.256 373.734,160.256 375.723,160.256 377.712,160.256 379.701,180.382 381.69,200.497 383.679,220.611 385.668,240.725 387.657,260.838 389.646,280.951 391.634,301.061 393.623,301.061 395.612,301.061 397.601,301.061 399.59,301.061 401.579,304.491 403.568,309.04 405.557,314.493 407.546,314.493 409.535,315.327 411.524,316.81 413.513,319.239 415.502,319.239 417.491,319.664 419.48,320.464 421.469,321.892 423.458,321.892 425.447,322.155 427.436,322.662 429.425,323.604 431.414,325.256 433.403,325.256 435.392,325.557 437.381,326.133 439.37,327.193 441.359,327.193 443.348,327.393 445.337,327.78 447.326,328.513 449.315,328.513 451.303,328.654 453.292,328.929 455.281,329.457 457.27,329.457 459.259,329.56 461.248,329.761 463.237,330.153 465.226,330.894 467.215,330.894 469.204,331.036 471.193,331.313 473.182,331.847 475.171,331.847 477.16,331.95 479.149,332.154 481.138,332.549 483.127,332.549 485.116,332.626 487.105,332.779 489.094,333.078 491.083,333.65 493.072,333.65 495.061,333.76 497.05,333.978 499.039,334.399 501.028,334.399 503.017,334.482 505.006,334.644 506.995,334.961 508.984,334.961 510.972,335.024 512.961,335.147 514.95,335.389 516.939,335.857 518.928,335.857 520.917,335.948 522.906,336.128 524.895,336.478 526.884,336.478 528.873,336.546 530.862,336.682 532.851,336.948 534.84,336.948 536.829,337 538.818,337.104 540.807,337.309 542.796,337.706 544.785,337.706 546.774,337.784 548.763,337.937 550.752,338.237 552.741,338.237 554.73,338.296 556.719,338.413 558.708,338.642 560.697,338.642 562.686,338.688 564.675,338.778 566.664,338.955 568.653,339.302 570.641,339.302 572.63,339.369 574.619,339.504 576.608,339.767 578.597,339.767 580.586,339.819 582.575,339.922 584.564,340.125 586.553,340.125 588.542,340.165 590.531,340.244 592.52,340.402 594.509,340.709 596.498,340.709 598.487,340.77 600.476,340.89 602.465,341.125 604.454,341.125 606.443,341.171 608.432,341.263 610.421,341.445 612.41,341.445 614.399,341.481 616.388,341.553 618.377,341.694 620.366,341.972 622.355,341.972 624.344,342.026 626.333,342.135 628.322,342.348 630.311,342.348 632.299,342.39 634.288,342.474 636.277,342.639 638.266,342.639 640.255,342.672 642.244,342.737 644.233,342.866 646.222,343.119 648.211,343.119 650.2,343.169 652.189,343.268 654.178,343.463 656.167,343.463 658.156,343.501 660.145,343.578 662.134,343.73 664.123,343.73 666.112,343.76 668.101,343.82 670.09,343.938 672.079,343.938 674.068,343.962 676.057,344.009 678.046,344.102 680.035,344.286 682.024,344.286 684.013,344.323 686.002,344.395 687.991,344.538 689.98,344.538 691.968,344.567 693.957,344.623 695.946,344.736 697.935,344.736 699.924,344.758 701.913,344.802 703.902,344.891 705.891,345.065 707.88,345.065 709.869,345.1 711.858,345.168 713.847,345.304 715.836,345.304 717.825,345.331 719.814,345.385 721.803,345.491 723.792,345.491 725.781,345.513 727.77,345.555 729.759,345.639 731.748,345.804 733.737,345.804 735.726,345.837 737.715,345.903 739.704,346.032 741.693,346.032 743.682,346.058 745.671,346.109 747.66,346.21 749.649,346.21 751.637,346.231 753.626,346.271 755.615,346.351 757.604,346.509 759.593,346.509 761.582,346.541 763.571,346.603 765.56,346.727 767.549,346.727 769.538,346.751 771.527,346.8 773.516,346.897 775.505,346.897 777.494,346.916 779.483,346.955 781.472,347.032 783.461,347.183 785.45,347.183 787.439,347.213 789.428,347.273 791.417,347.391 793.406,347.391 795.395,347.415 797.384,347.462 799.373,347.555 801.362,347.555 803.351,347.573 805.34,347.61 807.329,347.684 809.318,347.829 811.307,347.829 813.295,347.858 815.284,347.915 817.273,348.029 819.262,348.029 821.251,348.052 823.24,348.097 825.229,348.187 827.218,348.187 829.207,348.204 831.196,348.24 833.185,348.311 835.174,348.45 837.163,348.45 839.152,348.478 841.141,348.534 843.13,348.643 845.119,348.643 847.108,348.665 849.097,348.708 851.086,348.795 853.075,348.795 855.064,348.812 857.053,348.846 859.042,348.914 861.031,349.049 863.02,349.049 865.009,349.076 866.998,349.129 868.987,349.235 870.976,349.235 872.964,349.256 874.953,349.298 876.942,349.382 878.931,349.382 880.92,349.398 882.909,349.431 884.898,349.497 886.887,349.628 888.876,349.628 890.865,349.653 892.854,349.705 894.843,349.807 896.832,349.807 898.821,349.828 900.81,349.868 902.799,349.949 904.788,349.949 906.777,349.965 908.766,349.997 910.755,350.061 912.744,350.061 914.733,350.074 916.722,350.099 918.711,350.149 920.7,350.25 922.689,350.25 924.678,350.27 926.667,350.309 928.656,350.388 930.645,350.388 932.633,350.404 934.622,350.436 936.611,350.498 938.6,350.498 940.589,350.511 942.578,350.535 944.567,350.585 946.556,350.683 948.545,350.683 950.534,350.703 952.523,350.742 954.512,350.819 956.501,350.819 958.49,350.835 960.479,350.866 962.468,350.927 964.457,350.927 966.446,350.939 968.435,350.964 970.424,351.012 972.413,351.109 974.402,351.109 976.391,351.128 978.38,351.166 980.369,351.242 982.358,351.242 984.347,351.258 986.336,351.288 988.325,351.348 990.314,351.348 992.302,351.36 994.291,351.384 996.28,351.432 998.269,351.527 1000.26,351.527 1002.25,351.546 1004.24,351.583 1006.23,351.658 1008.21,351.658 1010.2,351.673 1012.19,351.703 1014.18,351.762 1016.17,351.762 1018.16,351.774 1020.15,351.797 1022.14,351.844 1024.13,351.937 1026.11,351.937 1028.1,351.956 1030.09,351.993 1032.08,352.066 1034.07,352.066 1036.06,352.081 1038.05,352.11 1040.04,352.168 1042.03,352.168 1044.02,352.18 1046,352.203 1047.99,352.249 1049.98,352.341 1051.97,352.341 1053.96,352.359 1055.95,352.396 1057.94,352.468 1059.93,352.468 1061.92,352.482 1063.91,352.511 1065.89,352.568 1067.88,352.568 1069.87,352.58 1071.86,352.603 1073.85,352.648 1075.84,352.738 1077.83,352.738 1079.82,352.756 1081.81,352.792 1083.79,352.863 1085.78,352.863 1087.77,352.877 1089.76,352.906 1091.75,352.962 1093.74,352.962 1095.73,352.973 1097.72,352.996 1099.71,353.041 1101.7,353.129 1103.68,353.129 1105.67,353.147 1107.66,353.182 1109.65,353.253 1111.64,353.253 1113.63,353.267 1115.62,353.294 1117.61,353.35 1119.6,353.35 1121.59,353.361 1123.57,353.383 1125.56,353.427 1127.55,353.515 1129.54,353.515 1131.53,353.532 1133.52,353.567 1135.51,353.636 1137.5,353.636 1139.49,353.65 1141.48,353.677 1143.46,353.732 1145.45,353.732 1147.44,353.743 1149.43,353.765 1151.42,353.808 1153.41,353.808 1155.4,353.817 1157.39,353.834 1159.38,353.869 1161.36,353.938 1163.35,353.938 1165.34,353.951 1167.33,353.979 1169.32,354.033 1171.31,354.033 1173.3,354.044 1175.29,354.066 1177.28,354.109 1179.27,354.109 1181.25,354.117 1183.24,354.135 1185.23,354.169 1187.22,354.237 1189.21,354.237 1191.2,354.251 1193.19,354.278 1195.18,354.332 1197.17,354.332 1199.16,354.343 1201.14,354.364 1203.13,354.407 1205.12,354.407 1207.11,354.416 1209.1,354.433 1211.09,354.467 1213.08,354.535 1215.07,354.535 1217.06,354.549 1219.04,354.576 1221.03,354.629 1223.02,354.629 1225.01,354.64 1227,354.662 1228.99,354.704 1230.98,354.704 1232.97,354.713 1234.96,354.73 1236.95,354.764 1238.93,354.831 1240.92,354.831 1242.91,354.845 1244.9,354.871 1246.89,354.925 1248.88,354.925 1250.87,354.936 1252.86,354.957 1254.85,354.999 1256.84,354.999 1258.82,355.008 1260.81,355.025 1262.8,355.058 1264.79,355.126 1266.78,355.126 1268.77,355.139 1270.76,355.166 1272.75,355.219 1274.74,355.219 1276.72,355.229 1278.71,355.251 1280.7,355.293 1282.69,355.293 1284.68,355.301 1286.67,355.318 1288.66,355.352 1290.65,355.418 1292.64,355.418 1294.63,355.432 1296.61,355.458 1298.6,355.511 1300.59,355.511 1302.58,355.522 1304.57,355.543 1306.56,355.585 1308.55,355.585 1310.54,355.593 1312.53,355.61 1314.52,355.643 1316.5,355.71 1318.49,355.71 1320.48,355.723 1322.47,355.749 1324.46,355.802 1326.45,355.802 1328.44,355.812 1330.43,355.833 1332.42,355.875 1334.4,355.875 1336.39,355.884 1338.38,355.9 1340.37,355.933 1342.36,355.999 1344.35,355.999 1346.34,356.013 1348.33,356.039 1350.32,356.091 1352.31,356.091 1354.29,356.102 1356.28,356.123 1358.27,356.164 1360.26,356.164 1362.25,356.172 1364.24,356.189 1366.23,356.222 1368.22,356.288 1370.21,356.288 1372.2,356.301 1374.18,356.327 1376.17,356.379 1378.16,356.379 1380.15,356.39 1382.14,356.41 1384.13,356.452 1386.12,356.452 1388.11,356.46 1390.1,356.476 1392.08,356.509 1394.07,356.575 1396.06,356.575 1398.05,356.588 1400.04,356.614 1402.03,356.666 1404.02,356.666 1406.01,356.676 1408,356.697 1409.99,356.738 1411.97,356.738 1413.96,356.746 1415.95,356.762 1417.94,356.795 1419.93,356.795 1421.92,356.802 1423.91,356.815 1425.9,356.841 1427.89,356.893 1429.88,356.893 1431.86,356.903 1433.85,356.924 1435.84,356.965 1437.83,356.965 1439.82,356.973 1441.81,356.99 1443.8,357.022 1445.79,357.022 1447.78,357.029 1449.76,357.042 1451.75,357.068 1453.74,357.12 1455.73,357.12 1457.72,357.13 1459.71,357.151 1461.7,357.192 1463.69,357.192 1465.68,357.2 1467.67,357.217 1469.65,357.25 1471.64,357.25 1473.63,357.256 1475.62,357.269 1477.61,357.295 1479.6,357.347 1481.59,357.347 1483.58,357.358 1485.57,357.379 1487.56,357.42 1489.54,357.42 1491.53,357.428 1493.52,357.445 1495.51,357.477 1497.5,357.477 1499.49,357.484 1501.48,357.497 1503.47,357.523 1505.46,357.575 1507.44,357.575 1509.43,357.586 1511.42,357.606 1513.41,357.648 1515.4,357.648 1517.39,357.656 1519.38,357.672 1521.37,357.705 1523.36,357.705 1525.35,357.712 1527.33,357.725 1529.32,357.751 1531.31,357.803 1533.3,357.803 1535.29,357.814 1537.28,357.834 1539.27,357.876 1541.26,357.876 1543.25,357.884 1545.24,357.901 1547.22,357.934 1549.21,357.934 1551.2,357.94 1553.19,357.953 1555.18,357.979 1557.17,358.032 1559.16,358.032 1561.15,358.042 1563.14,358.063 1565.12,358.104 1567.11,358.104 1569.1,358.112 1571.09,358.129 1573.08,358.162 1575.07,358.162 1577.06,358.168 1579.05,358.182 1581.04,358.208 1583.03,358.26 1585.01,358.26 1587,358.27 1588.99,358.291 1590.98,358.333 1592.97,358.333 1594.96,358.341 1596.95,358.358 1598.94,358.391 1600.93,358.391 1602.92,358.397 1604.9,358.41 1606.89,358.437 1608.88,358.489 1610.87,358.489 1612.86,358.499 1614.85,358.52 1616.84,358.562 1618.83,358.562 1620.82,358.57 1622.81,358.586 1624.79,358.619 1626.78,358.619 1628.77,358.626 1630.76,358.639 1632.75,358.665 1634.74,358.718 1636.73,358.718 1638.72,358.728 1640.71,358.749 1642.69,358.791 1644.68,358.791 1646.67,358.799 1648.66,358.815 1650.65,358.848 1652.64,358.848 1654.63,358.855 1656.62,358.868 1658.61,358.895 1660.6,358.895 1662.58,358.9 1664.57,358.91 1666.56,358.931 1668.55,358.973 1670.54,358.973 1672.53,358.981 1674.52,358.998 1676.51,359.031 1678.5,359.031 1680.49,359.038 1682.47,359.051 1684.46,359.078 1686.45,359.078 1688.44,359.083 1690.43,359.093 1692.42,359.114 1694.41,359.156 1696.4,359.156 1698.39,359.165 1700.37,359.182 1702.36,359.215 1704.35,359.215 1706.34,359.222 1708.33,359.235 1710.32,359.262 1712.31,359.262 1714.3,359.267 1716.29,359.277 1718.28,359.299 1720.26,359.341 1722.25,359.341 1724.24,359.349 1726.23,359.366 1728.22,359.4 1730.21,359.4 1732.2,359.406 1734.19,359.42 1736.18,359.447 1738.17,359.447 1740.15,359.452 1742.14,359.463 1744.13,359.484 1746.12,359.526 1748.11,359.526 1750.1,359.535 1752.09,359.552 1754.08,359.585 1756.07,359.585 1758.05,359.592 1760.04,359.606 1762.03,359.633 1764.02,359.633 1766.01,359.638 1768,359.649 1769.99,359.67 1771.98,359.713 1773.97,359.713 1775.96,359.721 1777.94,359.738 1779.93,359.772 1781.92,359.772 1783.91,359.779 1785.9,359.792 1787.89,359.819 1789.88,359.819 1791.87,359.825 1793.86,359.836 1795.85,359.857 1797.83,359.9 1799.82,359.9 1801.81,359.909 1803.8,359.926 1805.79,359.96 1807.78,359.96 1809.77,359.967 1811.76,359.98 1813.75,360.007 1815.73,360.007 1817.72,360.013 1819.71,360.024 1821.7,360.045 1823.69,360.088 1825.68,360.088 1827.67,360.097 1829.66,360.114 1831.65,360.148 1833.64,360.148 1835.62,360.155 1837.61,360.169 1839.6,360.196 1841.59,360.196 1843.58,360.202 1845.57,360.212 1847.56,360.234 1849.55,360.278 1851.54,360.278 1853.53,360.286 1855.51,360.303 1857.5,360.338 1859.49,360.338 1861.48,360.345 1863.47,360.359 1865.46,360.386 1867.45,360.386 1869.44,360.391 1871.43,360.402 1873.41,360.424 1875.4,360.468 1877.39,360.468 1879.38,360.476 1881.37,360.494 1883.36,360.528 1885.35,360.528 1887.34,360.535 1889.33,360.549 1891.32,360.577 1893.3,360.577 1895.29,360.582 1897.28,360.593 1899.27,360.615 1901.26,360.659 1903.25,360.659 1905.24,360.667 1907.23,360.685 1909.22,360.72 1911.21,360.72 1913.19,360.727 1915.18,360.74 1917.17,360.768 1919.16,360.768 1921.15,360.774 1923.14,360.785 1925.13,360.807 1927.12,360.807 1929.11,360.811 1931.09,360.82 1933.08,360.838 1935.07,360.873 1937.06,360.873 1939.05,360.88 1941.04,360.894 1943.03,360.922 1945.02,360.922 1947.01,360.927 1949,360.938 1950.98,360.96 1952.97,360.96 1954.96,360.965 1956.95,360.974 1958.94,360.991 1960.93,361.027 1962.92,361.027 1964.91,361.034 1966.9,361.048 1968.89,361.076 1970.87,361.076 1972.86,361.082 1974.85,361.093 1976.84,361.115 1978.83,361.115 1980.82,361.12 1982.81,361.129 1984.8,361.147 1986.79,361.182 1988.77,361.182 1990.76,361.189 1992.75,361.204 1994.74,361.232 1996.73,361.232 1998.72,361.238 2000.71,361.249 2002.7,361.272 2004.69,361.272 2006.68,361.276 2008.66,361.285 2010.65,361.303 2012.64,361.339 2014.63,361.339 2016.62,361.346 2018.61,361.361 2020.6,361.389 2022.59,361.389 2024.58,361.395 2026.57,361.406 2028.55,361.429 2030.54,361.429 2032.53,361.434 2034.52,361.443 2036.51,361.461 2038.5,361.497 2040.49,361.497 2042.48,361.504 2044.47,361.519 2046.45,361.548 2048.44,361.548 2050.43,361.553 2052.42,361.565 2054.41,361.588 2056.4,361.588 2058.39,361.593 2060.38,361.602 2062.37,361.62 2064.36,361.657 2066.34,361.657 2068.33,361.664 2070.32,361.678 2072.31,361.707 2074.3,361.707 2076.29,361.713 2078.28,361.725 2080.27,361.748 2082.26,361.748 2084.25,361.753 2086.23,361.762 2088.22,361.78 2090.21,361.817 2092.2,361.817 2094.19,361.824 2096.18,361.839 2098.17,361.868 2100.16,361.868 2102.15,361.874 2104.14,361.886 2106.12,361.909 2108.11,361.909 2110.1,361.914 2112.09,361.923 2114.08,361.942 2116.07,361.979 2118.06,361.979 2120.05,361.986 2122.04,362.001 2124.02,362.031 2126.01,362.031 2128,362.037 2129.99,362.048 2131.98,362.072 2133.97,362.072 2135.96,362.076 2137.95,362.086 2139.94,362.105 2141.93,362.142 2143.91,362.142 2145.9,362.149 2147.89,362.164 2149.88,362.194 2151.87,362.194 2153.86,362.2 2155.85,362.212 2157.84,362.236 2159.83,362.236 2161.82,362.24 2163.8,362.25 2165.79,362.269 2167.78,362.269 2169.77,362.272 2171.76,362.28 2173.75,362.295 2175.74,362.325 2177.73,362.325 2179.72,362.331 2181.7,362.343 2183.69,362.367 2185.68,362.367 2187.67,362.372 2189.66,362.381 2191.65,362.4 2193.64,362.4 2195.63,362.404 2197.62,362.412 2199.61,362.427 2201.59,362.457 2203.58,362.457 2205.57,362.463 2207.56,362.476 2209.55,362.5 2211.54,362.5 2213.53,362.505 2215.52,362.514 2217.51,362.533 2219.5,362.533 2221.48,362.537 2223.47,362.545 2225.46,362.56 2227.45,362.591 2229.44,362.591 2231.43,362.597 2233.42,362.609 2235.41,362.634 2237.4,362.634 2239.38,362.639 2241.37,362.649 2243.36,362.668 2245.35,362.668 2247.34,362.672 2249.33,362.68 2251.32,362.695 2253.31,362.726 2255.3,362.726 2257.29,362.732 2259.27,362.745 2261.26,362.769 2263.25,362.769 2265.24,362.774 2267.23,362.784 2269.22,362.804 2271.21,362.804 2273.2,362.808 2275.19,362.816 2277.18,362.831 2279.16,362.863 2281.15,362.863 2283.14,362.869 2285.13,362.881 2287.12,362.906 2289.11,362.906 2291.1,362.911 2293.09,362.921 "/>
<polyline clip-path="url(#clip252)" style="stroke:#c271d2; stroke-linecap:round; stroke-linejoin:round; stroke-width:4; stroke-opacity:1; fill:none" points="304.12,997.821 306.109,997.821 308.098,997.821 310.087,997.821 312.076,997.821 314.065,1004.91 316.054,1006.88 318.043,1007.45 320.032,1007.63 322.021,1007.7 324.01,1007.73 325.999,1007.76 327.988,1007.78 329.976,1007.8 331.965,1007.83 333.954,1007.85 335.943,1007.88 337.932,1007.9 339.921,1007.93 341.91,1007.96 343.899,1007.99 345.888,1008.02 347.877,1008.05 349.866,1008.08 351.855,1008.11 353.844,1008.15 355.833,1008.18 357.822,1008.22 359.811,1008.26 361.8,1008.3 363.789,1008.34 365.778,1008.38 367.767,1008.43 369.756,1008.47 371.745,1008.52 373.734,1008.56 375.723,1008.61 377.712,1008.66 379.701,1008.72 381.69,1008.77 383.679,1008.83 385.668,1008.88 387.657,1008.94 389.646,1009 391.634,1009.07 393.623,1009.13 395.612,1009.2 397.601,1009.26 399.59,1009.33 401.579,1009.4 403.568,1009.48 405.557,1009.55 407.546,1009.63 409.535,1009.7 411.524,1009.78 413.513,1009.86 415.502,1009.95 417.491,1010.03 419.48,1010.12 421.469,1010.21 423.458,1010.3 425.447,1010.39 427.436,1010.48 429.425,1010.58 431.414,1010.68 433.403,1010.78 435.392,1010.88 437.381,1010.98 439.37,1011.08 441.359,1011.19 443.348,1011.29 445.337,1011.4 447.326,1011.51 449.315,1011.62 451.303,1011.73 453.292,1011.85 455.281,1011.96 457.27,1012.08 459.259,1012.2 461.248,1012.31 463.237,1012.43 465.226,1012.55 467.215,1012.67 469.204,1012.8 471.193,1012.92 473.182,1013.04 475.171,1013.17 477.16,1013.29 479.149,1013.42 481.138,1013.55 483.127,1013.67 485.116,1013.8 487.105,1013.93 489.094,1014.06 491.083,1014.19 493.072,1014.32 495.061,1014.45 497.05,1014.58 499.039,1014.71 501.028,1014.84 503.017,1014.97 505.006,1015.1 506.995,1015.23 508.984,1015.35 510.972,1015.48 512.961,1015.61 514.95,1015.74 516.939,1015.87 518.928,1016 520.917,1016.13 522.906,1016.25 524.895,1016.38 526.884,1016.51 528.873,1016.63 530.862,1016.76 532.851,1016.88 534.84,1017.01 536.829,1017.13 538.818,1017.25 540.807,1017.38 542.796,1017.5 544.785,1017.62 546.774,1017.74 548.763,1017.86 550.752,1017.97 552.741,1018.09 554.73,1018.2 556.719,1018.32 558.708,1018.43 560.697,1018.55 562.686,1018.66 564.675,1018.77 566.664,1018.88 568.653,1018.99 570.641,1019.09 572.63,1019.2 574.619,1019.3 576.608,1019.41 578.597,1019.51 580.586,1019.61 582.575,1019.71 584.564,1019.81 586.553,1019.91 588.542,1020.01 590.531,1020.1 592.52,1020.2 594.509,1020.29 596.498,1020.38 598.487,1020.47 600.476,1020.56 602.465,1020.65 604.454,1020.74 606.443,1020.82 608.432,1020.91 610.421,1020.99 612.41,1021.07 614.399,1021.16 616.388,1021.24 618.377,1021.32 620.366,1021.39 622.355,1021.47 624.344,1021.54 626.333,1021.62 628.322,1021.69 630.311,1021.76 632.299,1021.84 634.288,1021.91 636.277,1021.97 638.266,1022.04 640.255,1022.11 642.244,1022.17 644.233,1022.24 646.222,1022.3 648.211,1022.36 650.2,1022.43 652.189,1022.49 654.178,1022.55 656.167,1022.6 658.156,1022.66 660.145,1022.72 662.134,1022.77 664.123,1022.83 666.112,1022.88 668.101,1022.93 670.09,1022.99 672.079,1023.04 674.068,1023.09 676.057,1023.14 678.046,1023.19 680.035,1023.23 682.024,1023.28 684.013,1023.33 686.002,1023.37 687.991,1023.42 689.98,1023.46 691.968,1023.5 693.957,1023.55 695.946,1023.59 697.935,1023.63 699.924,1023.67 701.913,1023.71 703.902,1023.75 705.891,1023.79 707.88,1023.82 709.869,1023.86 711.858,1023.9 713.847,1023.93 715.836,1023.97 717.825,1024 719.814,1024.04 721.803,1024.07 723.792,1024.1 725.781,1024.13 727.77,1024.17 729.759,1024.2 731.748,1024.23 733.737,1024.26 735.726,1024.29 737.715,1024.32 739.704,1024.35 741.693,1024.38 743.682,1024.4 745.671,1024.43 747.66,1024.46 749.649,1024.49 751.637,1024.51 753.626,1024.54 755.615,1024.56 757.604,1024.59 759.593,1024.61 761.582,1024.64 763.571,1024.66 765.56,1024.69 767.549,1024.71 769.538,1024.73 771.527,1024.76 773.516,1024.78 775.505,1024.8 777.494,1024.82 779.483,1024.84 781.472,1024.86 783.461,1024.89 785.45,1024.91 787.439,1024.93 789.428,1024.95 791.417,1024.97 793.406,1024.99 795.395,1025.01 797.384,1025.03 799.373,1025.05 801.362,1025.06 803.351,1025.08 805.34,1025.1 807.329,1025.12 809.318,1025.14 811.307,1025.16 813.295,1025.17 815.284,1025.19 817.273,1025.21 819.262,1025.22 821.251,1025.24 823.24,1025.26 825.229,1025.28 827.218,1025.29 829.207,1025.31 831.196,1025.32 833.185,1025.34 835.174,1025.36 837.163,1025.37 839.152,1025.39 841.141,1025.4 843.13,1025.42 845.119,1025.43 847.108,1025.45 849.097,1025.46 851.086,1025.48 853.075,1025.49 855.064,1025.51 857.053,1025.52 859.042,1025.54 861.031,1025.55 863.02,1025.57 865.009,1025.58 866.998,1025.59 868.987,1025.61 870.976,1025.62 872.964,1025.64 874.953,1025.65 876.942,1025.66 878.931,1025.68 880.92,1025.69 882.909,1025.7 884.898,1025.72 886.887,1025.73 888.876,1025.74 890.865,1025.76 892.854,1025.77 894.843,1025.78 896.832,1025.8 898.821,1025.81 900.81,1025.82 902.799,1025.83 904.788,1025.85 906.777,1025.86 908.766,1025.87 910.755,1025.88 912.744,1025.9 914.733,1025.91 916.722,1025.92 918.711,1025.93 920.7,1025.95 922.689,1025.96 924.678,1025.97 926.667,1025.98 928.656,1026 930.645,1026.01 932.633,1026.02 934.622,1026.03 936.611,1026.05 938.6,1026.06 940.589,1026.07 942.578,1026.08 944.567,1026.09 946.556,1026.11 948.545,1026.12 950.534,1026.13 952.523,1026.14 954.512,1026.15 956.501,1026.17 958.49,1026.18 960.479,1026.19 962.468,1026.2 964.457,1026.21 966.446,1026.23 968.435,1026.24 970.424,1026.25 972.413,1026.26 974.402,1026.27 976.391,1026.28 978.38,1026.3 980.369,1026.31 982.358,1026.32 984.347,1026.33 986.336,1026.34 988.325,1026.35 990.314,1026.37 992.302,1026.38 994.291,1026.39 996.28,1026.4 998.269,1026.41 1000.26,1026.42 1002.25,1026.44 1004.24,1026.45 1006.23,1026.46 1008.21,1026.47 1010.2,1026.48 1012.19,1026.49 1014.18,1026.51 1016.17,1026.52 1018.16,1026.53 1020.15,1026.54 1022.14,1026.55 1024.13,1026.56 1026.11,1026.57 1028.1,1026.59 1030.09,1026.6 1032.08,1026.61 1034.07,1026.62 1036.06,1026.63 1038.05,1026.64 1040.04,1026.66 1042.03,1026.67 1044.02,1026.68 1046,1026.69 1047.99,1026.7 1049.98,1026.71 1051.97,1026.73 1053.96,1026.74 1055.95,1026.75 1057.94,1026.76 1059.93,1026.77 1061.92,1026.78 1063.91,1026.79 1065.89,1026.81 1067.88,1026.82 1069.87,1026.83 1071.86,1026.84 1073.85,1026.85 1075.84,1026.86 1077.83,1026.87 1079.82,1026.89 1081.81,1026.9 1083.79,1026.91 1085.78,1026.92 1087.77,1026.93 1089.76,1026.94 1091.75,1026.96 1093.74,1026.97 1095.73,1026.98 1097.72,1026.99 1099.71,1027 1101.7,1027.01 1103.68,1027.02 1105.67,1027.04 1107.66,1027.05 1109.65,1027.06 1111.64,1027.07 1113.63,1027.08 1115.62,1027.09 1117.61,1027.11 1119.6,1027.12 1121.59,1027.13 1123.57,1027.14 1125.56,1027.15 1127.55,1027.16 1129.54,1027.17 1131.53,1027.19 1133.52,1027.2 1135.51,1027.21 1137.5,1027.22 1139.49,1027.23 1141.48,1027.24 1143.46,1027.26 1145.45,1027.27 1147.44,1027.28 1149.43,1027.29 1151.42,1027.3 1153.41,1027.31 1155.4,1027.32 1157.39,1027.34 1159.38,1027.35 1161.36,1027.36 1163.35,1027.37 1165.34,1027.38 1167.33,1027.39 1169.32,1027.41 1171.31,1027.42 1173.3,1027.43 1175.29,1027.44 1177.28,1027.45 1179.27,1027.46 1181.25,1027.48 1183.24,1027.49 1185.23,1027.5 1187.22,1027.51 1189.21,1027.52 1191.2,1027.53 1193.19,1027.54 1195.18,1027.56 1197.17,1027.57 1199.16,1027.58 1201.14,1027.59 1203.13,1027.6 1205.12,1027.61 1207.11,1027.63 1209.1,1027.64 1211.09,1027.65 1213.08,1027.66 1215.07,1027.67 1217.06,1027.68 1219.04,1027.69 1221.03,1027.71 1223.02,1027.72 1225.01,1027.73 1227,1027.74 1228.99,1027.75 1230.98,1027.76 1232.97,1027.78 1234.96,1027.79 1236.95,1027.8 1238.93,1027.81 1240.92,1027.82 1242.91,1027.83 1244.9,1027.84 1246.89,1027.86 1248.88,1027.87 1250.87,1027.88 1252.86,1027.89 1254.85,1027.9 1256.84,1027.91 1258.82,1027.92 1260.81,1027.94 1262.8,1027.95 1264.79,1027.96 1266.78,1027.97 1268.77,1027.98 1270.76,1027.99 1272.75,1028.01 1274.74,1028.02 1276.72,1028.03 1278.71,1028.04 1280.7,1028.05 1282.69,1028.06 1284.68,1028.07 1286.67,1028.09 1288.66,1028.1 1290.65,1028.11 1292.64,1028.12 1294.63,1028.13 1296.61,1028.14 1298.6,1028.15 1300.59,1028.17 1302.58,1028.18 "/>
<polyline clip-path="url(#clip252)" style="stroke:#ac8d18; stroke-linecap:round; stroke-linejoin:round; stroke-width:4; stroke-opacity:1; fill:none" points="304.12,997.821 306.109,997.821 308.098,997.821 310.087,997.821 312.076,997.821 314.065,1004.5 316.054,1017.28 318.043,1017.81 320.032,1042.06 322.021,1045.77 324.01,1047 325.999,1047.32 327.988,1047.36 329.976,1047.36 331.965,1047.38 333.954,1047.38 335.943,1047.38 337.932,1047.42 339.921,1047.64 341.91,1047.64 343.899,1047.8 345.888,1048.21 347.877,1049.3 349.866,1051.29 351.855,1052.81 353.844,1054.19 355.833,1054.51 357.822,1054.51 359.811,1058.04 361.8,1058.87 363.789,1059.89 365.778,1061.41 367.767,1063.33 369.756,1065.92 371.745,1065.92 373.734,1067.88 375.723,1068.81 377.712,1070.29 379.701,1072.53 381.69,1077.63 383.679,1079.76 385.668,1079.76 387.657,1082.83 389.646,1083.61 391.634,1084.38 393.623,1085.52 395.612,1086.85 397.601,1088.25 399.59,1088.25 401.579,1089.25 403.568,1089.73 405.557,1090.51 407.546,1090.51 409.535,1090.91 411.524,1091.29 413.513,1091.98 415.502,1092.78 417.491,1094.41 419.48,1094.41 421.469,1095.11 423.458,1095.64 425.447,1096.6 427.436,1097.7 429.425,1100.03 431.414,1100.62 433.403,1105.76 435.392,1106.3 437.381,1114.22 439.37,1114.22 441.359,1117.73 443.348,1119.5 445.337,1122.35 447.326,1124.97 449.315,1131.71 451.303,1133.9 453.292,1146.22 455.281,1152.5 457.27,1172.06 459.259,1188.76 461.248,1219.03 463.237,1264.16 465.226,1319.65 467.215,1386.4 "/>
<path clip-path="url(#clip250)" d="M1748.55 477.836 L2282.48 477.836 L2282.48 166.796 L1748.55 166.796  Z" fill="#ffffff" fill-rule="evenodd" fill-opacity="1"/>
<polyline clip-path="url(#clip250)" style="stroke:#000000; stroke-linecap:round; stroke-linejoin:round; stroke-width:4; stroke-opacity:1; fill:none" points="1748.55,477.836 2282.48,477.836 2282.48,166.796 1748.55,166.796 1748.55,477.836 "/>
<polyline clip-path="url(#clip250)" style="stroke:#009af9; stroke-linecap:round; stroke-linejoin:round; stroke-width:4; stroke-opacity:1; fill:none" points="1771.97,218.636 1912.53,218.636 "/>
<path clip-path="url(#clip250)" d="M1935.95 201.356 L1940.63 201.356 L1940.63 231.981 L1957.46 231.981 L1957.46 235.916 L1935.95 235.916 L1935.95 201.356 Z" fill="#000000" fill-rule="nonzero" fill-opacity="1" /><path clip-path="url(#clip250)" d="M1962.37 201.356 L1969.33 201.356 L1978.15 224.874 L1987.02 201.356 L1993.99 201.356 L1993.99 235.916 L1989.43 235.916 L1989.43 205.569 L1980.51 229.272 L1975.81 229.272 L1966.9 205.569 L1966.9 235.916 L1962.37 235.916 L1962.37 201.356 Z" fill="#000000" fill-rule="nonzero" fill-opacity="1" /><path clip-path="url(#clip250)" d="M2022.78 243.786 L2022.78 247.096 L1998.15 247.096 L1998.15 243.786 L2022.78 243.786 Z" fill="#000000" fill-rule="nonzero" fill-opacity="1" /><path clip-path="url(#clip250)" d="M2047.69 202.49 L2047.69 207.05 Q2045.03 205.777 2042.67 205.152 Q2040.3 204.527 2038.11 204.527 Q2034.29 204.527 2032.2 206.008 Q2030.14 207.49 2030.14 210.221 Q2030.14 212.513 2031.51 213.694 Q2032.9 214.851 2036.74 215.569 L2039.56 216.147 Q2044.8 217.143 2047.27 219.666 Q2049.77 222.166 2049.77 226.379 Q2049.77 231.402 2046.39 233.994 Q2043.04 236.587 2036.53 236.587 Q2034.08 236.587 2031.3 236.031 Q2028.55 235.476 2025.58 234.388 L2025.58 229.573 Q2028.43 231.17 2031.16 231.981 Q2033.89 232.791 2036.53 232.791 Q2040.54 232.791 2042.71 231.217 Q2044.89 229.643 2044.89 226.726 Q2044.89 224.18 2043.31 222.744 Q2041.76 221.309 2038.2 220.592 L2035.35 220.036 Q2030.12 218.995 2027.78 216.772 Q2025.44 214.55 2025.44 210.592 Q2025.44 206.008 2028.66 203.37 Q2031.9 200.731 2037.57 200.731 Q2040 200.731 2042.53 201.171 Q2045.05 201.61 2047.69 202.49 Z" fill="#000000" fill-rule="nonzero" fill-opacity="1" /><path clip-path="url(#clip250)" d="M2061.74 205.198 L2061.74 218.184 L2067.62 218.184 Q2070.88 218.184 2072.67 216.495 Q2074.45 214.805 2074.45 211.68 Q2074.45 208.578 2072.67 206.888 Q2070.88 205.198 2067.62 205.198 L2061.74 205.198 M2057.06 201.356 L2067.62 201.356 Q2073.43 201.356 2076.39 203.995 Q2079.38 206.61 2079.38 211.68 Q2079.38 216.795 2076.39 219.411 Q2073.43 222.027 2067.62 222.027 L2061.74 222.027 L2061.74 235.916 L2057.06 235.916 L2057.06 201.356 Z" fill="#000000" fill-rule="nonzero" fill-opacity="1" /><path clip-path="url(#clip250)" d="M2109.22 230.985 L2109.22 221.703 L2101.58 221.703 L2101.58 217.86 L2113.85 217.86 L2113.85 232.698 Q2111.14 234.619 2107.87 235.615 Q2104.61 236.587 2100.91 236.587 Q2092.8 236.587 2088.22 231.865 Q2083.66 227.119 2083.66 218.67 Q2083.66 210.198 2088.22 205.476 Q2092.8 200.731 2100.91 200.731 Q2104.29 200.731 2107.32 201.564 Q2110.37 202.397 2112.94 204.018 L2112.94 208.995 Q2110.35 206.796 2107.43 205.684 Q2104.52 204.573 2101.3 204.573 Q2094.96 204.573 2091.76 208.115 Q2088.59 211.657 2088.59 218.67 Q2088.59 225.661 2091.76 229.203 Q2094.96 232.744 2101.3 232.744 Q2103.78 232.744 2105.72 232.328 Q2107.67 231.888 2109.22 230.985 Z" fill="#000000" fill-rule="nonzero" fill-opacity="1" /><polyline clip-path="url(#clip250)" style="stroke:#e26f46; stroke-linecap:round; stroke-linejoin:round; stroke-width:4; stroke-opacity:1; fill:none" points="1771.97,270.476 1912.53,270.476 "/>
<path clip-path="url(#clip250)" d="M1935.95 253.196 L1940.63 253.196 L1940.63 283.821 L1957.46 283.821 L1957.46 287.756 L1935.95 287.756 L1935.95 253.196 Z" fill="#000000" fill-rule="nonzero" fill-opacity="1" /><path clip-path="url(#clip250)" d="M1962.37 253.196 L1969.33 253.196 L1978.15 276.714 L1987.02 253.196 L1993.99 253.196 L1993.99 287.756 L1989.43 287.756 L1989.43 257.409 L1980.51 281.112 L1975.81 281.112 L1966.9 257.409 L1966.9 287.756 L1962.37 287.756 L1962.37 253.196 Z" fill="#000000" fill-rule="nonzero" fill-opacity="1" /><path clip-path="url(#clip250)" d="M2022.78 295.626 L2022.78 298.936 L1998.15 298.936 L1998.15 295.626 L2022.78 295.626 Z" fill="#000000" fill-rule="nonzero" fill-opacity="1" /><path clip-path="url(#clip250)" d="M2038.52 257.802 L2032.18 275.001 L2044.89 275.001 L2038.52 257.802 M2035.88 253.196 L2041.18 253.196 L2054.36 287.756 L2049.49 287.756 L2046.35 278.89 L2030.77 278.89 L2027.62 287.756 L2022.69 287.756 L2035.88 253.196 Z" fill="#000000" fill-rule="nonzero" fill-opacity="1" /><path clip-path="url(#clip250)" d="M2080.77 272.108 L2080.77 287.756 L2076.51 287.756 L2076.51 272.247 Q2076.51 268.566 2075.07 266.737 Q2073.64 264.909 2070.77 264.909 Q2067.32 264.909 2065.33 267.108 Q2063.34 269.307 2063.34 273.103 L2063.34 287.756 L2059.05 287.756 L2059.05 261.83 L2063.34 261.83 L2063.34 265.858 Q2064.86 263.52 2066.92 262.362 Q2069.01 261.205 2071.72 261.205 Q2076.18 261.205 2078.48 263.983 Q2080.77 266.737 2080.77 272.108 Z" fill="#000000" fill-rule="nonzero" fill-opacity="1" /><path clip-path="url(#clip250)" d="M2106.32 265.765 L2106.32 251.737 L2110.58 251.737 L2110.58 287.756 L2106.32 287.756 L2106.32 283.867 Q2104.98 286.182 2102.92 287.316 Q2100.88 288.427 2098.01 288.427 Q2093.31 288.427 2090.35 284.677 Q2087.41 280.927 2087.41 274.816 Q2087.41 268.705 2090.35 264.955 Q2093.31 261.205 2098.01 261.205 Q2100.88 261.205 2102.92 262.339 Q2104.98 263.45 2106.32 265.765 M2091.81 274.816 Q2091.81 279.515 2093.73 282.2 Q2095.67 284.862 2099.05 284.862 Q2102.43 284.862 2104.38 282.2 Q2106.32 279.515 2106.32 274.816 Q2106.32 270.117 2104.38 267.455 Q2102.43 264.77 2099.05 264.77 Q2095.67 264.77 2093.73 267.455 Q2091.81 270.117 2091.81 274.816 Z" fill="#000000" fill-rule="nonzero" fill-opacity="1" /><path clip-path="url(#clip250)" d="M2134.38 265.811 Q2133.66 265.395 2132.8 265.21 Q2131.97 265.001 2130.95 265.001 Q2127.34 265.001 2125.4 267.362 Q2123.48 269.7 2123.48 274.098 L2123.48 287.756 L2119.19 287.756 L2119.19 261.83 L2123.48 261.83 L2123.48 265.858 Q2124.82 263.497 2126.97 262.362 Q2129.12 261.205 2132.2 261.205 Q2132.64 261.205 2133.17 261.274 Q2133.71 261.321 2134.36 261.436 L2134.38 265.811 Z" fill="#000000" fill-rule="nonzero" fill-opacity="1" /><path clip-path="url(#clip250)" d="M2159.98 273.728 L2159.98 275.811 L2140.4 275.811 Q2140.67 280.209 2143.04 282.524 Q2145.42 284.816 2149.66 284.816 Q2152.11 284.816 2154.4 284.214 Q2156.72 283.612 2158.98 282.409 L2158.98 286.436 Q2156.69 287.408 2154.29 287.918 Q2151.88 288.427 2149.4 288.427 Q2143.2 288.427 2139.56 284.816 Q2135.95 281.205 2135.95 275.047 Q2135.95 268.682 2139.38 264.955 Q2142.83 261.205 2148.66 261.205 Q2153.89 261.205 2156.92 264.585 Q2159.98 267.941 2159.98 273.728 M2155.72 272.478 Q2155.67 268.983 2153.75 266.899 Q2151.85 264.816 2148.71 264.816 Q2145.14 264.816 2142.99 266.83 Q2140.86 268.844 2140.54 272.501 L2155.72 272.478 Z" fill="#000000" fill-rule="nonzero" fill-opacity="1" /><path clip-path="url(#clip250)" d="M2166.97 261.83 L2171.23 261.83 L2171.23 287.756 L2166.97 287.756 L2166.97 261.83 M2166.97 251.737 L2171.23 251.737 L2171.23 257.131 L2166.97 257.131 L2166.97 251.737 Z" fill="#000000" fill-rule="nonzero" fill-opacity="1" /><path clip-path="url(#clip250)" d="M2199.84 295.626 L2199.84 298.936 L2175.21 298.936 L2175.21 295.626 L2199.84 295.626 Z" fill="#000000" fill-rule="nonzero" fill-opacity="1" /><path clip-path="url(#clip250)" d="M2215.63 274.723 Q2210.47 274.723 2208.48 275.904 Q2206.48 277.084 2206.48 279.932 Q2206.48 282.2 2207.97 283.543 Q2209.47 284.862 2212.04 284.862 Q2215.58 284.862 2217.71 282.362 Q2219.86 279.839 2219.86 275.672 L2219.86 274.723 L2215.63 274.723 M2224.12 272.964 L2224.12 287.756 L2219.86 287.756 L2219.86 283.821 Q2218.41 286.182 2216.23 287.316 Q2214.05 288.427 2210.91 288.427 Q2206.92 288.427 2204.56 286.205 Q2202.23 283.959 2202.23 280.209 Q2202.23 275.834 2205.14 273.612 Q2208.08 271.39 2213.89 271.39 L2219.86 271.39 L2219.86 270.973 Q2219.86 268.034 2217.92 266.436 Q2216 264.816 2212.5 264.816 Q2210.28 264.816 2208.17 265.348 Q2206.07 265.881 2204.12 266.946 L2204.12 263.01 Q2206.46 262.108 2208.66 261.668 Q2210.86 261.205 2212.94 261.205 Q2218.57 261.205 2221.35 264.122 Q2224.12 267.038 2224.12 272.964 Z" fill="#000000" fill-rule="nonzero" fill-opacity="1" /><path clip-path="url(#clip250)" d="M2232.9 251.737 L2237.16 251.737 L2237.16 287.756 L2232.9 287.756 L2232.9 251.737 Z" fill="#000000" fill-rule="nonzero" fill-opacity="1" /><path clip-path="url(#clip250)" d="M2250.28 254.469 L2250.28 261.83 L2259.05 261.83 L2259.05 265.14 L2250.28 265.14 L2250.28 279.214 Q2250.28 282.385 2251.14 283.288 Q2252.02 284.191 2254.68 284.191 L2259.05 284.191 L2259.05 287.756 L2254.68 287.756 Q2249.75 287.756 2247.87 285.927 Q2246 284.075 2246 279.214 L2246 265.14 L2242.87 265.14 L2242.87 261.83 L2246 261.83 L2246 254.469 L2250.28 254.469 Z" fill="#000000" fill-rule="nonzero" fill-opacity="1" /><polyline clip-path="url(#clip250)" style="stroke:#3da44d; stroke-linecap:round; stroke-linejoin:round; stroke-width:4; stroke-opacity:1; fill:none" points="1771.97,322.316 1912.53,322.316 "/>
<path clip-path="url(#clip250)" d="M1935.95 305.036 L1940.63 305.036 L1940.63 335.661 L1957.46 335.661 L1957.46 339.596 L1935.95 339.596 L1935.95 305.036 Z" fill="#000000" fill-rule="nonzero" fill-opacity="1" /><path clip-path="url(#clip250)" d="M1962.37 305.036 L1969.33 305.036 L1978.15 328.554 L1987.02 305.036 L1993.99 305.036 L1993.99 339.596 L1989.43 339.596 L1989.43 309.249 L1980.51 332.952 L1975.81 332.952 L1966.9 309.249 L1966.9 339.596 L1962.37 339.596 L1962.37 305.036 Z" fill="#000000" fill-rule="nonzero" fill-opacity="1" /><path clip-path="url(#clip250)" d="M2022.78 347.466 L2022.78 350.776 L1998.15 350.776 L1998.15 347.466 L2022.78 347.466 Z" fill="#000000" fill-rule="nonzero" fill-opacity="1" /><path clip-path="url(#clip250)" d="M2038.52 309.642 L2032.18 326.841 L2044.89 326.841 L2038.52 309.642 M2035.88 305.036 L2041.18 305.036 L2054.36 339.596 L2049.49 339.596 L2046.35 330.73 L2030.77 330.73 L2027.62 339.596 L2022.69 339.596 L2035.88 305.036 Z" fill="#000000" fill-rule="nonzero" fill-opacity="1" /><path clip-path="url(#clip250)" d="M2080.77 323.948 L2080.77 339.596 L2076.51 339.596 L2076.51 324.087 Q2076.51 320.406 2075.07 318.577 Q2073.64 316.749 2070.77 316.749 Q2067.32 316.749 2065.33 318.948 Q2063.34 321.147 2063.34 324.943 L2063.34 339.596 L2059.05 339.596 L2059.05 313.67 L2063.34 313.67 L2063.34 317.698 Q2064.86 315.36 2066.92 314.202 Q2069.01 313.045 2071.72 313.045 Q2076.18 313.045 2078.48 315.823 Q2080.77 318.577 2080.77 323.948 Z" fill="#000000" fill-rule="nonzero" fill-opacity="1" /><path clip-path="url(#clip250)" d="M2106.32 317.605 L2106.32 303.577 L2110.58 303.577 L2110.58 339.596 L2106.32 339.596 L2106.32 335.707 Q2104.98 338.022 2102.92 339.156 Q2100.88 340.267 2098.01 340.267 Q2093.31 340.267 2090.35 336.517 Q2087.41 332.767 2087.41 326.656 Q2087.41 320.545 2090.35 316.795 Q2093.31 313.045 2098.01 313.045 Q2100.88 313.045 2102.92 314.179 Q2104.98 315.29 2106.32 317.605 M2091.81 326.656 Q2091.81 331.355 2093.73 334.04 Q2095.67 336.702 2099.05 336.702 Q2102.43 336.702 2104.38 334.04 Q2106.32 331.355 2106.32 326.656 Q2106.32 321.957 2104.38 319.295 Q2102.43 316.61 2099.05 316.61 Q2095.67 316.61 2093.73 319.295 Q2091.81 321.957 2091.81 326.656 Z" fill="#000000" fill-rule="nonzero" fill-opacity="1" /><path clip-path="url(#clip250)" d="M2134.38 317.651 Q2133.66 317.235 2132.8 317.05 Q2131.97 316.841 2130.95 316.841 Q2127.34 316.841 2125.4 319.202 Q2123.48 321.54 2123.48 325.938 L2123.48 339.596 L2119.19 339.596 L2119.19 313.67 L2123.48 313.67 L2123.48 317.698 Q2124.82 315.337 2126.97 314.202 Q2129.12 313.045 2132.2 313.045 Q2132.64 313.045 2133.17 313.114 Q2133.71 313.161 2134.36 313.276 L2134.38 317.651 Z" fill="#000000" fill-rule="nonzero" fill-opacity="1" /><path clip-path="url(#clip250)" d="M2159.98 325.568 L2159.98 327.651 L2140.4 327.651 Q2140.67 332.049 2143.04 334.364 Q2145.42 336.656 2149.66 336.656 Q2152.11 336.656 2154.4 336.054 Q2156.72 335.452 2158.98 334.249 L2158.98 338.276 Q2156.69 339.248 2154.29 339.758 Q2151.88 340.267 2149.4 340.267 Q2143.2 340.267 2139.56 336.656 Q2135.95 333.045 2135.95 326.887 Q2135.95 320.522 2139.38 316.795 Q2142.83 313.045 2148.66 313.045 Q2153.89 313.045 2156.92 316.425 Q2159.98 319.781 2159.98 325.568 M2155.72 324.318 Q2155.67 320.823 2153.75 318.739 Q2151.85 316.656 2148.71 316.656 Q2145.14 316.656 2142.99 318.67 Q2140.86 320.684 2140.54 324.341 L2155.72 324.318 Z" fill="#000000" fill-rule="nonzero" fill-opacity="1" /><path clip-path="url(#clip250)" d="M2166.97 313.67 L2171.23 313.67 L2171.23 339.596 L2166.97 339.596 L2166.97 313.67 M2166.97 303.577 L2171.23 303.577 L2171.23 308.971 L2166.97 308.971 L2166.97 303.577 Z" fill="#000000" fill-rule="nonzero" fill-opacity="1" /><polyline clip-path="url(#clip250)" style="stroke:#c271d2; stroke-linecap:round; stroke-linejoin:round; stroke-width:4; stroke-opacity:1; fill:none" points="1771.97,374.156 1912.53,374.156 "/>
<path clip-path="url(#clip250)" d="M1935.95 356.876 L1940.63 356.876 L1940.63 387.501 L1957.46 387.501 L1957.46 391.436 L1935.95 391.436 L1935.95 356.876 Z" fill="#000000" fill-rule="nonzero" fill-opacity="1" /><path clip-path="url(#clip250)" d="M1962.37 356.876 L1969.33 356.876 L1978.15 380.394 L1987.02 356.876 L1993.99 356.876 L1993.99 391.436 L1989.43 391.436 L1989.43 361.089 L1980.51 384.792 L1975.81 384.792 L1966.9 361.089 L1966.9 391.436 L1962.37 391.436 L1962.37 356.876 Z" fill="#000000" fill-rule="nonzero" fill-opacity="1" /><path clip-path="url(#clip250)" d="M2022.78 399.306 L2022.78 402.616 L1998.15 402.616 L1998.15 399.306 L2022.78 399.306 Z" fill="#000000" fill-rule="nonzero" fill-opacity="1" /><path clip-path="url(#clip250)" d="M2047.69 358.01 L2047.69 362.57 Q2045.03 361.297 2042.67 360.672 Q2040.3 360.047 2038.11 360.047 Q2034.29 360.047 2032.2 361.528 Q2030.14 363.01 2030.14 365.741 Q2030.14 368.033 2031.51 369.214 Q2032.9 370.371 2036.74 371.089 L2039.56 371.667 Q2044.8 372.663 2047.27 375.186 Q2049.77 377.686 2049.77 381.899 Q2049.77 386.922 2046.39 389.514 Q2043.04 392.107 2036.53 392.107 Q2034.08 392.107 2031.3 391.551 Q2028.55 390.996 2025.58 389.908 L2025.58 385.093 Q2028.43 386.69 2031.16 387.501 Q2033.89 388.311 2036.53 388.311 Q2040.54 388.311 2042.71 386.737 Q2044.89 385.163 2044.89 382.246 Q2044.89 379.7 2043.31 378.264 Q2041.76 376.829 2038.2 376.112 L2035.35 375.556 Q2030.12 374.515 2027.78 372.292 Q2025.44 370.07 2025.44 366.112 Q2025.44 361.528 2028.66 358.89 Q2031.9 356.251 2037.57 356.251 Q2040 356.251 2042.53 356.691 Q2045.05 357.13 2047.69 358.01 Z" fill="#000000" fill-rule="nonzero" fill-opacity="1" /><path clip-path="url(#clip250)" d="M2061.74 360.718 L2061.74 373.704 L2067.62 373.704 Q2070.88 373.704 2072.67 372.015 Q2074.45 370.325 2074.45 367.2 Q2074.45 364.098 2072.67 362.408 Q2070.88 360.718 2067.62 360.718 L2061.74 360.718 M2057.06 356.876 L2067.62 356.876 Q2073.43 356.876 2076.39 359.515 Q2079.38 362.13 2079.38 367.2 Q2079.38 372.315 2076.39 374.931 Q2073.43 377.547 2067.62 377.547 L2061.74 377.547 L2061.74 391.436 L2057.06 391.436 L2057.06 356.876 Z" fill="#000000" fill-rule="nonzero" fill-opacity="1" /><path clip-path="url(#clip250)" d="M2109.22 386.505 L2109.22 377.223 L2101.58 377.223 L2101.58 373.38 L2113.85 373.38 L2113.85 388.218 Q2111.14 390.139 2107.87 391.135 Q2104.61 392.107 2100.91 392.107 Q2092.8 392.107 2088.22 387.385 Q2083.66 382.639 2083.66 374.19 Q2083.66 365.718 2088.22 360.996 Q2092.8 356.251 2100.91 356.251 Q2104.29 356.251 2107.32 357.084 Q2110.37 357.917 2112.94 359.538 L2112.94 364.515 Q2110.35 362.316 2107.43 361.204 Q2104.52 360.093 2101.3 360.093 Q2094.96 360.093 2091.76 363.635 Q2088.59 367.177 2088.59 374.19 Q2088.59 381.181 2091.76 384.723 Q2094.96 388.264 2101.3 388.264 Q2103.78 388.264 2105.72 387.848 Q2107.67 387.408 2109.22 386.505 Z" fill="#000000" fill-rule="nonzero" fill-opacity="1" /><path clip-path="url(#clip250)" d="M2141.9 399.306 L2141.9 402.616 L2117.27 402.616 L2117.27 399.306 L2141.9 399.306 Z" fill="#000000" fill-rule="nonzero" fill-opacity="1" /><path clip-path="url(#clip250)" d="M2157.69 378.403 Q2152.53 378.403 2150.54 379.584 Q2148.54 380.764 2148.54 383.612 Q2148.54 385.88 2150.03 387.223 Q2151.53 388.542 2154.1 388.542 Q2157.64 388.542 2159.77 386.042 Q2161.92 383.519 2161.92 379.352 L2161.92 378.403 L2157.69 378.403 M2166.18 376.644 L2166.18 391.436 L2161.92 391.436 L2161.92 387.501 Q2160.47 389.862 2158.29 390.996 Q2156.11 392.107 2152.97 392.107 Q2148.98 392.107 2146.62 389.885 Q2144.29 387.639 2144.29 383.889 Q2144.29 379.514 2147.2 377.292 Q2150.14 375.07 2155.95 375.07 L2161.92 375.07 L2161.92 374.653 Q2161.92 371.714 2159.98 370.116 Q2158.06 368.496 2154.56 368.496 Q2152.34 368.496 2150.23 369.028 Q2148.13 369.561 2146.18 370.626 L2146.18 366.69 Q2148.52 365.788 2150.72 365.348 Q2152.92 364.885 2155 364.885 Q2160.63 364.885 2163.41 367.802 Q2166.18 370.718 2166.18 376.644 Z" fill="#000000" fill-rule="nonzero" fill-opacity="1" /><path clip-path="url(#clip250)" d="M2174.96 355.417 L2179.22 355.417 L2179.22 391.436 L2174.96 391.436 L2174.96 355.417 Z" fill="#000000" fill-rule="nonzero" fill-opacity="1" /><path clip-path="url(#clip250)" d="M2192.34 358.149 L2192.34 365.51 L2201.11 365.51 L2201.11 368.82 L2192.34 368.82 L2192.34 382.894 Q2192.34 386.065 2193.2 386.968 Q2194.08 387.871 2196.74 387.871 L2201.11 387.871 L2201.11 391.436 L2196.74 391.436 Q2191.81 391.436 2189.93 389.607 Q2188.06 387.755 2188.06 382.894 L2188.06 368.82 L2184.93 368.82 L2184.93 365.51 L2188.06 365.51 L2188.06 358.149 L2192.34 358.149 Z" fill="#000000" fill-rule="nonzero" fill-opacity="1" /><polyline clip-path="url(#clip250)" style="stroke:#ac8d18; stroke-linecap:round; stroke-linejoin:round; stroke-width:4; stroke-opacity:1; fill:none" points="1771.97,425.996 1912.53,425.996 "/>
<path clip-path="url(#clip250)" d="M1935.95 408.716 L1940.63 408.716 L1940.63 439.341 L1957.46 439.341 L1957.46 443.276 L1935.95 443.276 L1935.95 408.716 Z" fill="#000000" fill-rule="nonzero" fill-opacity="1" /><path clip-path="url(#clip250)" d="M1962.37 408.716 L1969.33 408.716 L1978.15 432.234 L1987.02 408.716 L1993.99 408.716 L1993.99 443.276 L1989.43 443.276 L1989.43 412.929 L1980.51 436.632 L1975.81 436.632 L1966.9 412.929 L1966.9 443.276 L1962.37 443.276 L1962.37 408.716 Z" fill="#000000" fill-rule="nonzero" fill-opacity="1" /></svg>
