<?xml version="1.0" encoding="utf-8"?>
<svg xmlns="http://www.w3.org/2000/svg" xmlns:xlink="http://www.w3.org/1999/xlink" width="600" height="400" viewBox="0 0 2400 1600">
<defs>
  <clipPath id="clip810">
    <rect x="0" y="0" width="2400" height="1600"/>
  </clipPath>
</defs>
<path clip-path="url(#clip810)" d="M0 1600 L2400 1600 L2400 0 L0 0  Z" fill="#ffffff" fill-rule="evenodd" fill-opacity="1"/>
<defs>
  <clipPath id="clip811">
    <rect x="480" y="0" width="1681" height="1600"/>
  </clipPath>
</defs>
<path clip-path="url(#clip810)" d="M251.842 1423.18 L2352.76 1423.18 L2352.76 123.472 L251.842 123.472  Z" fill="#ffffff" fill-rule="evenodd" fill-opacity="1"/>
<defs>
  <clipPath id="clip812">
    <rect x="251" y="123" width="2102" height="1301"/>
  </clipPath>
</defs>
<polyline clip-path="url(#clip812)" style="stroke:#000000; stroke-linecap:round; stroke-linejoin:round; stroke-width:2; stroke-opacity:0.1; fill:none" points="309.32,1423.18 309.32,123.472 "/>
<polyline clip-path="url(#clip812)" style="stroke:#000000; stroke-linecap:round; stroke-linejoin:round; stroke-width:2; stroke-opacity:0.1; fill:none" points="804.819,1423.18 804.819,123.472 "/>
<polyline clip-path="url(#clip812)" style="stroke:#000000; stroke-linecap:round; stroke-linejoin:round; stroke-width:2; stroke-opacity:0.1; fill:none" points="1300.32,1423.18 1300.32,123.472 "/>
<polyline clip-path="url(#clip812)" style="stroke:#000000; stroke-linecap:round; stroke-linejoin:round; stroke-width:2; stroke-opacity:0.1; fill:none" points="1795.82,1423.18 1795.82,123.472 "/>
<polyline clip-path="url(#clip812)" style="stroke:#000000; stroke-linecap:round; stroke-linejoin:round; stroke-width:2; stroke-opacity:0.1; fill:none" points="2291.31,1423.18 2291.31,123.472 "/>
<polyline clip-path="url(#clip810)" style="stroke:#000000; stroke-linecap:round; stroke-linejoin:round; stroke-width:4; stroke-opacity:1; fill:none" points="251.842,1423.18 2352.76,1423.18 "/>
<polyline clip-path="url(#clip810)" style="stroke:#000000; stroke-linecap:round; stroke-linejoin:round; stroke-width:4; stroke-opacity:1; fill:none" points="309.32,1423.18 309.32,1404.28 "/>
<polyline clip-path="url(#clip810)" style="stroke:#000000; stroke-linecap:round; stroke-linejoin:round; stroke-width:4; stroke-opacity:1; fill:none" points="804.819,1423.18 804.819,1404.28 "/>
<polyline clip-path="url(#clip810)" style="stroke:#000000; stroke-linecap:round; stroke-linejoin:round; stroke-width:4; stroke-opacity:1; fill:none" points="1300.32,1423.18 1300.32,1404.28 "/>
<polyline clip-path="url(#clip810)" style="stroke:#000000; stroke-linecap:round; stroke-linejoin:round; stroke-width:4; stroke-opacity:1; fill:none" points="1795.82,1423.18 1795.82,1404.28 "/>
<polyline clip-path="url(#clip810)" style="stroke:#000000; stroke-linecap:round; stroke-linejoin:round; stroke-width:4; stroke-opacity:1; fill:none" points="2291.31,1423.18 2291.31,1404.28 "/>
<path clip-path="url(#clip810)" d="M309.32 1454.1 Q305.709 1454.1 303.88 1457.66 Q302.075 1461.2 302.075 1468.33 Q302.075 1475.44 303.88 1479.01 Q305.709 1482.55 309.32 1482.55 Q312.954 1482.55 314.76 1479.01 Q316.589 1475.44 316.589 1468.33 Q316.589 1461.2 314.76 1457.66 Q312.954 1454.1 309.32 1454.1 M309.32 1450.39 Q315.13 1450.39 318.186 1455 Q321.265 1459.58 321.265 1468.33 Q321.265 1477.06 318.186 1481.67 Q315.13 1486.25 309.32 1486.25 Q303.51 1486.25 300.431 1481.67 Q297.376 1477.06 297.376 1468.33 Q297.376 1459.58 300.431 1455 Q303.51 1450.39 309.32 1450.39 Z" fill="#000000" fill-rule="nonzero" fill-opacity="1" /><path clip-path="url(#clip810)" d="M768.511 1481.64 L784.83 1481.64 L784.83 1485.58 L762.886 1485.58 L762.886 1481.64 Q765.548 1478.89 770.131 1474.26 Q774.738 1469.61 775.918 1468.27 Q778.164 1465.74 779.043 1464.01 Q779.946 1462.25 779.946 1460.56 Q779.946 1457.8 778.002 1456.07 Q776.08 1454.33 772.979 1454.33 Q770.779 1454.33 768.326 1455.09 Q765.895 1455.86 763.118 1457.41 L763.118 1452.69 Q765.942 1451.55 768.395 1450.97 Q770.849 1450.39 772.886 1450.39 Q778.256 1450.39 781.451 1453.08 Q784.645 1455.77 784.645 1460.26 Q784.645 1462.39 783.835 1464.31 Q783.048 1466.2 780.941 1468.8 Q780.363 1469.47 777.261 1472.69 Q774.159 1475.88 768.511 1481.64 Z" fill="#000000" fill-rule="nonzero" fill-opacity="1" /><path clip-path="url(#clip810)" d="M794.691 1451.02 L813.048 1451.02 L813.048 1454.96 L798.974 1454.96 L798.974 1463.43 Q799.992 1463.08 801.011 1462.92 Q802.029 1462.73 803.048 1462.73 Q808.835 1462.73 812.214 1465.9 Q815.594 1469.08 815.594 1474.49 Q815.594 1480.07 812.122 1483.17 Q808.65 1486.25 802.33 1486.25 Q800.154 1486.25 797.886 1485.88 Q795.64 1485.51 793.233 1484.77 L793.233 1480.07 Q795.316 1481.2 797.539 1481.76 Q799.761 1482.32 802.238 1482.32 Q806.242 1482.32 808.58 1480.21 Q810.918 1478.1 810.918 1474.49 Q810.918 1470.88 808.58 1468.77 Q806.242 1466.67 802.238 1466.67 Q800.363 1466.67 798.488 1467.08 Q796.636 1467.5 794.691 1468.38 L794.691 1451.02 Z" fill="#000000" fill-rule="nonzero" fill-opacity="1" /><path clip-path="url(#clip810)" d="M834.807 1454.1 Q831.196 1454.1 829.367 1457.66 Q827.562 1461.2 827.562 1468.33 Q827.562 1475.44 829.367 1479.01 Q831.196 1482.55 834.807 1482.55 Q838.441 1482.55 840.247 1479.01 Q842.075 1475.44 842.075 1468.33 Q842.075 1461.2 840.247 1457.66 Q838.441 1454.1 834.807 1454.1 M834.807 1450.39 Q840.617 1450.39 843.673 1455 Q846.751 1459.58 846.751 1468.33 Q846.751 1477.06 843.673 1481.67 Q840.617 1486.25 834.807 1486.25 Q828.997 1486.25 825.918 1481.67 Q822.863 1477.06 822.863 1468.33 Q822.863 1459.58 825.918 1455 Q828.997 1450.39 834.807 1450.39 Z" fill="#000000" fill-rule="nonzero" fill-opacity="1" /><path clip-path="url(#clip810)" d="M1259.94 1451.02 L1278.29 1451.02 L1278.29 1454.96 L1264.22 1454.96 L1264.22 1463.43 Q1265.24 1463.08 1266.25 1462.92 Q1267.27 1462.73 1268.29 1462.73 Q1274.08 1462.73 1277.46 1465.9 Q1280.84 1469.08 1280.84 1474.49 Q1280.84 1480.07 1277.37 1483.17 Q1273.89 1486.25 1267.57 1486.25 Q1265.4 1486.25 1263.13 1485.88 Q1260.88 1485.51 1258.48 1484.77 L1258.48 1480.07 Q1260.56 1481.2 1262.78 1481.76 Q1265 1482.32 1267.48 1482.32 Q1271.49 1482.32 1273.82 1480.21 Q1276.16 1478.1 1276.16 1474.49 Q1276.16 1470.88 1273.82 1468.77 Q1271.49 1466.67 1267.48 1466.67 Q1265.61 1466.67 1263.73 1467.08 Q1261.88 1467.5 1259.94 1468.38 L1259.94 1451.02 Z" fill="#000000" fill-rule="nonzero" fill-opacity="1" /><path clip-path="url(#clip810)" d="M1300.05 1454.1 Q1296.44 1454.1 1294.61 1457.66 Q1292.81 1461.2 1292.81 1468.33 Q1292.81 1475.44 1294.61 1479.01 Q1296.44 1482.55 1300.05 1482.55 Q1303.69 1482.55 1305.49 1479.01 Q1307.32 1475.44 1307.32 1468.33 Q1307.32 1461.2 1305.49 1457.66 Q1303.69 1454.1 1300.05 1454.1 M1300.05 1450.39 Q1305.86 1450.39 1308.92 1455 Q1312 1459.58 1312 1468.33 Q1312 1477.06 1308.92 1481.67 Q1305.86 1486.25 1300.05 1486.25 Q1294.24 1486.25 1291.16 1481.67 Q1288.11 1477.06 1288.11 1468.33 Q1288.11 1459.58 1291.16 1455 Q1294.24 1450.39 1300.05 1450.39 Z" fill="#000000" fill-rule="nonzero" fill-opacity="1" /><path clip-path="url(#clip810)" d="M1330.21 1454.1 Q1326.6 1454.1 1324.77 1457.66 Q1322.97 1461.2 1322.97 1468.33 Q1322.97 1475.44 1324.77 1479.01 Q1326.6 1482.55 1330.21 1482.55 Q1333.85 1482.55 1335.65 1479.01 Q1337.48 1475.44 1337.48 1468.33 Q1337.48 1461.2 1335.65 1457.66 Q1333.85 1454.1 1330.21 1454.1 M1330.21 1450.39 Q1336.02 1450.39 1339.08 1455 Q1342.16 1459.58 1342.16 1468.33 Q1342.16 1477.06 1339.08 1481.67 Q1336.02 1486.25 1330.21 1486.25 Q1324.4 1486.25 1321.32 1481.67 Q1318.27 1477.06 1318.27 1468.33 Q1318.27 1459.58 1321.32 1455 Q1324.4 1450.39 1330.21 1450.39 Z" fill="#000000" fill-rule="nonzero" fill-opacity="1" /><path clip-path="url(#clip810)" d="M1754.09 1451.02 L1776.31 1451.02 L1776.31 1453.01 L1763.77 1485.58 L1758.88 1485.58 L1770.69 1454.96 L1754.09 1454.96 L1754.09 1451.02 Z" fill="#000000" fill-rule="nonzero" fill-opacity="1" /><path clip-path="url(#clip810)" d="M1785.48 1451.02 L1803.84 1451.02 L1803.84 1454.96 L1789.76 1454.96 L1789.76 1463.43 Q1790.78 1463.08 1791.8 1462.92 Q1792.82 1462.73 1793.84 1462.73 Q1799.62 1462.73 1803 1465.9 Q1806.38 1469.08 1806.38 1474.49 Q1806.38 1480.07 1802.91 1483.17 Q1799.44 1486.25 1793.12 1486.25 Q1790.94 1486.25 1788.67 1485.88 Q1786.43 1485.51 1784.02 1484.77 L1784.02 1480.07 Q1786.11 1481.2 1788.33 1481.76 Q1790.55 1482.32 1793.03 1482.32 Q1797.03 1482.32 1799.37 1480.21 Q1801.71 1478.1 1801.71 1474.49 Q1801.71 1470.88 1799.37 1468.77 Q1797.03 1466.67 1793.03 1466.67 Q1791.15 1466.67 1789.28 1467.08 Q1787.42 1467.5 1785.48 1468.38 L1785.48 1451.02 Z" fill="#000000" fill-rule="nonzero" fill-opacity="1" /><path clip-path="url(#clip810)" d="M1825.6 1454.1 Q1821.98 1454.1 1820.16 1457.66 Q1818.35 1461.2 1818.35 1468.33 Q1818.35 1475.44 1820.16 1479.01 Q1821.98 1482.55 1825.6 1482.55 Q1829.23 1482.55 1831.04 1479.01 Q1832.86 1475.44 1832.86 1468.33 Q1832.86 1461.2 1831.04 1457.66 Q1829.23 1454.1 1825.6 1454.1 M1825.6 1450.39 Q1831.41 1450.39 1834.46 1455 Q1837.54 1459.58 1837.54 1468.33 Q1837.54 1477.06 1834.46 1481.67 Q1831.41 1486.25 1825.6 1486.25 Q1819.79 1486.25 1816.71 1481.67 Q1813.65 1477.06 1813.65 1468.33 Q1813.65 1459.58 1816.71 1455 Q1819.79 1450.39 1825.6 1450.39 Z" fill="#000000" fill-rule="nonzero" fill-opacity="1" /><path clip-path="url(#clip810)" d="M2235.84 1481.64 L2243.48 1481.64 L2243.48 1455.28 L2235.17 1456.95 L2235.17 1452.69 L2243.43 1451.02 L2248.11 1451.02 L2248.11 1481.64 L2255.75 1481.64 L2255.75 1485.58 L2235.84 1485.58 L2235.84 1481.64 Z" fill="#000000" fill-rule="nonzero" fill-opacity="1" /><path clip-path="url(#clip810)" d="M2275.19 1454.1 Q2271.58 1454.1 2269.75 1457.66 Q2267.95 1461.2 2267.95 1468.33 Q2267.95 1475.44 2269.75 1479.01 Q2271.58 1482.55 2275.19 1482.55 Q2278.83 1482.55 2280.63 1479.01 Q2282.46 1475.44 2282.46 1468.33 Q2282.46 1461.2 2280.63 1457.66 Q2278.83 1454.1 2275.19 1454.1 M2275.19 1450.39 Q2281 1450.39 2284.06 1455 Q2287.14 1459.58 2287.14 1468.33 Q2287.14 1477.06 2284.06 1481.67 Q2281 1486.25 2275.19 1486.25 Q2269.38 1486.25 2266.3 1481.67 Q2263.25 1477.06 2263.25 1468.33 Q2263.25 1459.58 2266.3 1455 Q2269.38 1450.39 2275.19 1450.39 Z" fill="#000000" fill-rule="nonzero" fill-opacity="1" /><path clip-path="url(#clip810)" d="M2305.35 1454.1 Q2301.74 1454.1 2299.91 1457.66 Q2298.11 1461.2 2298.11 1468.33 Q2298.11 1475.44 2299.91 1479.01 Q2301.74 1482.55 2305.35 1482.55 Q2308.99 1482.55 2310.79 1479.01 Q2312.62 1475.44 2312.62 1468.33 Q2312.62 1461.2 2310.79 1457.66 Q2308.99 1454.1 2305.35 1454.1 M2305.35 1450.39 Q2311.16 1450.39 2314.22 1455 Q2317.3 1459.58 2317.3 1468.33 Q2317.3 1477.06 2314.22 1481.67 Q2311.16 1486.25 2305.35 1486.25 Q2299.54 1486.25 2296.46 1481.67 Q2293.41 1477.06 2293.41 1468.33 Q2293.41 1459.58 2296.46 1455 Q2299.54 1450.39 2305.35 1450.39 Z" fill="#000000" fill-rule="nonzero" fill-opacity="1" /><path clip-path="url(#clip810)" d="M2335.52 1454.1 Q2331.9 1454.1 2330.08 1457.66 Q2328.27 1461.2 2328.27 1468.33 Q2328.27 1475.44 2330.08 1479.01 Q2331.9 1482.55 2335.52 1482.55 Q2339.15 1482.55 2340.96 1479.01 Q2342.78 1475.44 2342.78 1468.33 Q2342.78 1461.2 2340.96 1457.66 Q2339.15 1454.1 2335.52 1454.1 M2335.52 1450.39 Q2341.33 1450.39 2344.38 1455 Q2347.46 1459.58 2347.46 1468.33 Q2347.46 1477.06 2344.38 1481.67 Q2341.33 1486.25 2335.52 1486.25 Q2329.71 1486.25 2326.63 1481.67 Q2323.57 1477.06 2323.57 1468.33 Q2323.57 1459.58 2326.63 1455 Q2329.71 1450.39 2335.52 1450.39 Z" fill="#000000" fill-rule="nonzero" fill-opacity="1" /><path clip-path="url(#clip810)" d="M1286.48 1518.52 L1292.37 1518.52 L1292.37 1547.77 L1309.84 1532.4 L1317.32 1532.4 L1298.42 1549.07 L1318.12 1568.04 L1310.48 1568.04 L1292.37 1550.63 L1292.37 1568.04 L1286.48 1568.04 L1286.48 1518.52 Z" fill="#000000" fill-rule="nonzero" fill-opacity="1" /><polyline clip-path="url(#clip812)" style="stroke:#000000; stroke-linecap:round; stroke-linejoin:round; stroke-width:2; stroke-opacity:0.1; fill:none" points="251.842,1021.04 2352.76,1021.04 "/>
<polyline clip-path="url(#clip812)" style="stroke:#000000; stroke-linecap:round; stroke-linejoin:round; stroke-width:2; stroke-opacity:0.1; fill:none" points="251.842,568.794 2352.76,568.794 "/>
<polyline clip-path="url(#clip810)" style="stroke:#000000; stroke-linecap:round; stroke-linejoin:round; stroke-width:4; stroke-opacity:1; fill:none" points="251.842,1423.18 251.842,123.472 "/>
<polyline clip-path="url(#clip810)" style="stroke:#000000; stroke-linecap:round; stroke-linejoin:round; stroke-width:4; stroke-opacity:1; fill:none" points="251.842,1021.04 270.74,1021.04 "/>
<polyline clip-path="url(#clip810)" style="stroke:#000000; stroke-linecap:round; stroke-linejoin:round; stroke-width:4; stroke-opacity:1; fill:none" points="251.842,568.794 270.74,568.794 "/>
<path clip-path="url(#clip810)" d="M114.931 1040.83 L122.57 1040.83 L122.57 1014.47 L114.26 1016.13 L114.26 1011.87 L122.524 1010.21 L127.2 1010.21 L127.2 1040.83 L134.839 1040.83 L134.839 1044.77 L114.931 1044.77 L114.931 1040.83 Z" fill="#000000" fill-rule="nonzero" fill-opacity="1" /><path clip-path="url(#clip810)" d="M154.283 1013.29 Q150.672 1013.29 148.843 1016.85 Q147.038 1020.39 147.038 1027.52 Q147.038 1034.63 148.843 1038.19 Q150.672 1041.74 154.283 1041.74 Q157.917 1041.74 159.723 1038.19 Q161.552 1034.63 161.552 1027.52 Q161.552 1020.39 159.723 1016.85 Q157.917 1013.29 154.283 1013.29 M154.283 1009.58 Q160.093 1009.58 163.149 1014.19 Q166.227 1018.77 166.227 1027.52 Q166.227 1036.25 163.149 1040.86 Q160.093 1045.44 154.283 1045.44 Q148.473 1045.44 145.394 1040.86 Q142.339 1036.25 142.339 1027.52 Q142.339 1018.77 145.394 1014.19 Q148.473 1009.58 154.283 1009.58 Z" fill="#000000" fill-rule="nonzero" fill-opacity="1" /><path clip-path="url(#clip810)" d="M166.227 1003.68 L190.339 1003.68 L190.339 1006.88 L166.227 1006.88 L166.227 1003.68 Z" fill="#000000" fill-rule="nonzero" fill-opacity="1" /><path clip-path="url(#clip810)" d="M210.05 1002.22 Q212.777 1002.8 214.3 1004.64 Q215.842 1006.49 215.842 1009.19 Q215.842 1013.35 212.984 1015.63 Q210.125 1017.9 204.859 1017.9 Q203.091 1017.9 201.21 1017.55 Q199.348 1017.21 197.354 1016.51 L197.354 1012.84 Q198.934 1013.77 200.815 1014.24 Q202.696 1014.71 204.746 1014.71 Q208.319 1014.71 210.181 1013.29 Q212.062 1011.88 212.062 1009.19 Q212.062 1006.71 210.313 1005.32 Q208.583 1003.91 205.479 1003.91 L202.207 1003.91 L202.207 1000.79 L205.63 1000.79 Q208.432 1000.79 209.918 999.678 Q211.404 998.55 211.404 996.443 Q211.404 994.28 209.861 993.133 Q208.338 991.967 205.479 991.967 Q203.918 991.967 202.132 992.305 Q200.345 992.644 198.201 993.359 L198.201 989.973 Q200.364 989.371 202.244 989.071 Q204.144 988.77 205.818 988.77 Q210.144 988.77 212.664 990.744 Q215.184 992.7 215.184 996.048 Q215.184 998.38 213.849 999.998 Q212.513 1001.6 210.05 1002.22 Z" fill="#000000" fill-rule="nonzero" fill-opacity="1" /><path clip-path="url(#clip810)" d="M145.137 588.586 L152.776 588.586 L152.776 562.221 L144.465 563.887 L144.465 559.628 L152.729 557.962 L157.405 557.962 L157.405 588.586 L165.044 588.586 L165.044 592.522 L145.137 592.522 L145.137 588.586 Z" fill="#000000" fill-rule="nonzero" fill-opacity="1" /><path clip-path="url(#clip810)" d="M184.488 561.04 Q180.877 561.04 179.049 564.605 Q177.243 568.147 177.243 575.276 Q177.243 582.383 179.049 585.947 Q180.877 589.489 184.488 589.489 Q188.123 589.489 189.928 585.947 Q191.757 582.383 191.757 575.276 Q191.757 568.147 189.928 564.605 Q188.123 561.04 184.488 561.04 M184.488 557.337 Q190.299 557.337 193.354 561.943 Q196.433 566.526 196.433 575.276 Q196.433 584.003 193.354 588.61 Q190.299 593.193 184.488 593.193 Q178.678 593.193 175.6 588.61 Q172.544 584.003 172.544 575.276 Q172.544 566.526 175.6 561.943 Q178.678 557.337 184.488 557.337 Z" fill="#000000" fill-rule="nonzero" fill-opacity="1" /><path clip-path="url(#clip810)" d="M206.138 539.533 Q203.204 539.533 201.718 542.429 Q200.251 545.307 200.251 551.099 Q200.251 556.873 201.718 559.77 Q203.204 562.647 206.138 562.647 Q209.09 562.647 210.557 559.77 Q212.043 556.873 212.043 551.099 Q212.043 545.307 210.557 542.429 Q209.09 539.533 206.138 539.533 M206.138 536.523 Q210.858 536.523 213.341 540.266 Q215.842 543.99 215.842 551.099 Q215.842 558.19 213.341 561.933 Q210.858 565.657 206.138 565.657 Q201.417 565.657 198.915 561.933 Q196.433 558.19 196.433 551.099 Q196.433 543.99 198.915 540.266 Q201.417 536.523 206.138 536.523 Z" fill="#000000" fill-rule="nonzero" fill-opacity="1" /><path clip-path="url(#clip810)" d="M45.7664 817.313 Q39.4007 817.313 35.8996 819.955 Q32.3984 822.565 32.3984 827.307 Q32.3984 832.018 35.8996 834.66 Q39.4007 837.27 45.7664 837.27 Q52.1003 837.27 55.6014 834.66 Q59.1026 832.018 59.1026 827.307 Q59.1026 822.565 55.6014 819.955 Q52.1003 817.313 45.7664 817.313 M59.58 811.457 Q68.683 811.457 73.1071 815.499 Q77.5631 819.541 77.5631 827.88 Q77.5631 830.967 77.0857 833.705 Q76.6401 836.442 75.6852 839.02 L69.9879 839.02 Q71.3884 836.442 72.0568 833.928 Q72.7252 831.413 72.7252 828.803 Q72.7252 823.042 69.7015 820.178 Q66.7096 817.313 60.6303 817.313 L57.7339 817.313 Q60.885 819.127 62.4446 821.96 Q64.0042 824.793 64.0042 828.739 Q64.0042 835.296 59.0071 839.307 Q54.01 843.317 45.7664 843.317 Q37.491 843.317 32.4939 839.307 Q27.4968 835.296 27.4968 828.739 Q27.4968 824.793 29.0564 821.96 Q30.616 819.127 33.7671 817.313 L28.3562 817.313 L28.3562 811.457 L59.58 811.457 Z" fill="#000000" fill-rule="nonzero" fill-opacity="1" /><path clip-path="url(#clip810)" d="M33.8307 778.737 Q33.2578 779.724 33.0032 780.901 Q32.7167 782.047 32.7167 783.447 Q32.7167 788.413 35.9632 791.086 Q39.1779 793.728 45.2253 793.728 L64.0042 793.728 L64.0042 799.616 L28.3562 799.616 L28.3562 793.728 L33.8944 793.728 Q30.6479 791.882 29.0883 788.922 Q27.4968 785.962 27.4968 781.729 Q27.4968 781.124 27.5923 780.392 Q27.656 779.66 27.8151 778.769 L33.8307 778.737 Z" fill="#000000" fill-rule="nonzero" fill-opacity="1" /><path clip-path="url(#clip810)" d="M46.0847 756.393 Q46.0847 763.491 47.7079 766.228 Q49.3312 768.965 53.2461 768.965 Q56.3653 768.965 58.2114 766.928 Q60.0256 764.86 60.0256 761.327 Q60.0256 756.457 56.5881 753.529 Q53.1188 750.569 47.3897 750.569 L46.0847 750.569 L46.0847 756.393 M43.6657 744.712 L64.0042 744.712 L64.0042 750.569 L58.5933 750.569 Q61.8398 752.574 63.3994 755.566 Q64.9272 758.558 64.9272 762.886 Q64.9272 768.361 61.8716 771.607 Q58.7843 774.822 53.6281 774.822 Q47.6125 774.822 44.5569 770.812 Q41.5014 766.769 41.5014 758.78 L41.5014 750.569 L40.9285 750.569 Q36.8862 750.569 34.6901 753.242 Q32.4621 755.884 32.4621 760.69 Q32.4621 763.746 33.1941 766.642 Q33.9262 769.538 35.3903 772.212 L29.9795 772.212 Q28.7381 768.997 28.1334 765.974 Q27.4968 762.95 27.4968 760.085 Q27.4968 752.351 31.5072 748.532 Q35.5176 744.712 43.6657 744.712 Z" fill="#000000" fill-rule="nonzero" fill-opacity="1" /><path clip-path="url(#clip810)" d="M33.7671 709.191 L14.479 709.191 L14.479 703.335 L64.0042 703.335 L64.0042 709.191 L58.657 709.191 Q61.8398 711.038 63.3994 713.87 Q64.9272 716.671 64.9272 720.618 Q64.9272 727.079 59.771 731.153 Q54.6147 735.195 46.212 735.195 Q37.8093 735.195 32.6531 731.153 Q27.4968 727.079 27.4968 720.618 Q27.4968 716.671 29.0564 713.87 Q30.5842 711.038 33.7671 709.191 M46.212 729.148 Q52.6732 729.148 56.3653 726.506 Q60.0256 723.833 60.0256 719.186 Q60.0256 714.539 56.3653 711.865 Q52.6732 709.191 46.212 709.191 Q39.7508 709.191 36.0905 711.865 Q32.3984 714.539 32.3984 719.186 Q32.3984 723.833 36.0905 726.506 Q39.7508 729.148 46.212 729.148 Z" fill="#000000" fill-rule="nonzero" fill-opacity="1" /><path clip-path="url(#clip810)" d="M957.122 65.7705 L957.122 89.8329 L949.627 89.8329 L949.627 27.2059 L957.122 27.2059 L957.122 34.0924 Q959.471 30.0415 963.036 28.0971 Q966.641 26.1121 971.624 26.1121 Q979.888 26.1121 985.032 32.6746 Q990.217 39.2371 990.217 49.9314 Q990.217 60.6258 985.032 67.1883 Q979.888 73.7508 971.624 73.7508 Q966.641 73.7508 963.036 71.8063 Q959.471 69.8214 957.122 65.7705 M982.48 49.9314 Q982.48 41.7081 979.077 37.0496 Q975.715 32.3505 969.801 32.3505 Q963.887 32.3505 960.484 37.0496 Q957.122 41.7081 957.122 49.9314 Q957.122 58.1548 960.484 62.8538 Q963.887 67.5124 969.801 67.5124 Q975.715 67.5124 979.077 62.8538 Q982.48 58.1548 982.48 49.9314 Z" fill="#000000" fill-rule="nonzero" fill-opacity="1" /><path clip-path="url(#clip810)" d="M1028.86 34.1734 Q1027.61 33.4443 1026.11 33.1202 Q1024.65 32.7556 1022.87 32.7556 Q1016.55 32.7556 1013.15 36.8875 Q1009.78 40.9789 1009.78 48.6757 L1009.78 72.576 L1002.29 72.576 L1002.29 27.2059 L1009.78 27.2059 L1009.78 34.2544 Q1012.13 30.1225 1015.9 28.1376 Q1019.67 26.1121 1025.06 26.1121 Q1025.82 26.1121 1026.76 26.2337 Q1027.69 26.3147 1028.82 26.5172 L1028.86 34.1734 Z" fill="#000000" fill-rule="nonzero" fill-opacity="1" /><path clip-path="url(#clip810)" d="M1052.44 32.4315 Q1046.44 32.4315 1042.96 37.1306 Q1039.48 41.7891 1039.48 49.9314 Q1039.48 58.0738 1042.92 62.7728 Q1046.4 67.4314 1052.44 67.4314 Q1058.39 67.4314 1061.88 62.7323 Q1065.36 58.0333 1065.36 49.9314 Q1065.36 41.8701 1061.88 37.1711 Q1058.39 32.4315 1052.44 32.4315 M1052.44 26.1121 Q1062.16 26.1121 1067.71 32.4315 Q1073.26 38.7509 1073.26 49.9314 Q1073.26 61.0714 1067.71 67.4314 Q1062.16 73.7508 1052.44 73.7508 Q1042.68 73.7508 1037.13 67.4314 Q1031.62 61.0714 1031.62 49.9314 Q1031.62 38.7509 1037.13 32.4315 Q1042.68 26.1121 1052.44 26.1121 Z" fill="#000000" fill-rule="nonzero" fill-opacity="1" /><path clip-path="url(#clip810)" d="M1118.19 49.9314 Q1118.19 41.7081 1114.78 37.0496 Q1111.42 32.3505 1105.51 32.3505 Q1099.59 32.3505 1096.19 37.0496 Q1092.83 41.7081 1092.83 49.9314 Q1092.83 58.1548 1096.19 62.8538 Q1099.59 67.5124 1105.51 67.5124 Q1111.42 67.5124 1114.78 62.8538 Q1118.19 58.1548 1118.19 49.9314 M1092.83 34.0924 Q1095.18 30.0415 1098.74 28.0971 Q1102.35 26.1121 1107.33 26.1121 Q1115.59 26.1121 1120.74 32.6746 Q1125.92 39.2371 1125.92 49.9314 Q1125.92 60.6258 1120.74 67.1883 Q1115.59 73.7508 1107.33 73.7508 Q1102.35 73.7508 1098.74 71.8063 Q1095.18 69.8214 1092.83 65.7705 L1092.83 72.576 L1085.33 72.576 L1085.33 9.54393 L1092.83 9.54393 L1092.83 34.0924 Z" fill="#000000" fill-rule="nonzero" fill-opacity="1" /><path clip-path="url(#clip810)" d="M1138.28 9.54393 L1145.73 9.54393 L1145.73 72.576 L1138.28 72.576 L1138.28 9.54393 Z" fill="#000000" fill-rule="nonzero" fill-opacity="1" /><path clip-path="url(#clip810)" d="M1200.14 48.0275 L1200.14 51.6733 L1165.86 51.6733 Q1166.35 59.3701 1170.48 63.421 Q1174.66 67.4314 1182.07 67.4314 Q1186.36 67.4314 1190.37 66.3781 Q1194.42 65.3249 1198.39 63.2184 L1198.39 70.267 Q1194.38 71.9684 1190.17 72.8596 Q1185.96 73.7508 1181.62 73.7508 Q1170.77 73.7508 1164.41 67.4314 Q1158.09 61.1119 1158.09 50.3365 Q1158.09 39.1965 1164.08 32.6746 Q1170.12 26.1121 1180.33 26.1121 Q1189.48 26.1121 1194.79 32.0264 Q1200.14 37.9003 1200.14 48.0275 M1192.68 45.84 Q1192.6 39.7232 1189.24 36.0774 Q1185.92 32.4315 1180.41 32.4315 Q1174.17 32.4315 1170.4 35.9558 Q1166.67 39.4801 1166.11 45.8805 L1192.68 45.84 M1174.01 6.22219 L1185.43 21.3726 L1179.23 21.3726 L1166.03 6.22219 L1174.01 6.22219 Z" fill="#000000" fill-rule="nonzero" fill-opacity="1" /><path clip-path="url(#clip810)" d="M1247.69 35.9153 Q1250.49 30.8922 1254.38 28.5022 Q1258.27 26.1121 1263.53 26.1121 Q1270.62 26.1121 1274.47 31.0947 Q1278.32 36.0368 1278.32 45.1919 L1278.32 72.576 L1270.82 72.576 L1270.82 45.4349 Q1270.82 38.913 1268.51 35.7533 Q1266.21 32.5936 1261.47 32.5936 Q1255.67 32.5936 1252.31 36.4419 Q1248.95 40.2903 1248.95 46.9338 L1248.95 72.576 L1241.45 72.576 L1241.45 45.4349 Q1241.45 38.8725 1239.15 35.7533 Q1236.84 32.5936 1232.02 32.5936 Q1226.3 32.5936 1222.94 36.4824 Q1219.58 40.3308 1219.58 46.9338 L1219.58 72.576 L1212.09 72.576 L1212.09 27.2059 L1219.58 27.2059 L1219.58 34.2544 Q1222.13 30.082 1225.7 28.0971 Q1229.26 26.1121 1234.16 26.1121 Q1239.11 26.1121 1242.55 28.6237 Q1246.03 31.1352 1247.69 35.9153 Z" fill="#000000" fill-rule="nonzero" fill-opacity="1" /><path clip-path="url(#clip810)" d="M1331.99 48.0275 L1331.99 51.6733 L1297.72 51.6733 Q1298.21 59.3701 1302.34 63.421 Q1306.51 67.4314 1313.93 67.4314 Q1318.22 67.4314 1322.23 66.3781 Q1326.28 65.3249 1330.25 63.2184 L1330.25 70.267 Q1326.24 71.9684 1322.03 72.8596 Q1317.81 73.7508 1313.48 73.7508 Q1302.62 73.7508 1296.26 67.4314 Q1289.94 61.1119 1289.94 50.3365 Q1289.94 39.1965 1295.94 32.6746 Q1301.98 26.1121 1312.18 26.1121 Q1321.34 26.1121 1326.65 32.0264 Q1331.99 37.9003 1331.99 48.0275 M1324.54 45.84 Q1324.46 39.7232 1321.1 36.0774 Q1317.77 32.4315 1312.26 32.4315 Q1306.03 32.4315 1302.26 35.9558 Q1298.53 39.4801 1297.96 45.8805 L1324.54 45.84 Z" fill="#000000" fill-rule="nonzero" fill-opacity="1" /><path clip-path="url(#clip810)" d="M1372.5 62.2867 L1381.05 62.2867 L1381.05 72.576 L1372.5 72.576 L1372.5 62.2867 M1372.5 29.6769 L1381.05 29.6769 L1381.05 39.9662 L1372.5 39.9662 L1372.5 29.6769 Z" fill="#000000" fill-rule="nonzero" fill-opacity="1" /><path clip-path="url(#clip810)" d="M1432.29 14.324 L1432.29 27.2059 L1447.65 27.2059 L1447.65 32.9987 L1432.29 32.9987 L1432.29 57.6282 Q1432.29 63.1779 1433.79 64.7578 Q1435.33 66.3376 1439.99 66.3376 L1447.65 66.3376 L1447.65 72.576 L1439.99 72.576 Q1431.36 72.576 1428.08 69.3758 Q1424.8 66.1351 1424.8 57.6282 L1424.8 32.9987 L1419.33 32.9987 L1419.33 27.2059 L1424.8 27.2059 L1424.8 14.324 L1432.29 14.324 Z" fill="#000000" fill-rule="nonzero" fill-opacity="1" /><path clip-path="url(#clip810)" d="M1464.66 65.7705 L1464.66 89.8329 L1457.17 89.8329 L1457.17 27.2059 L1464.66 27.2059 L1464.66 34.0924 Q1467.01 30.0415 1470.57 28.0971 Q1474.18 26.1121 1479.16 26.1121 Q1487.43 26.1121 1492.57 32.6746 Q1497.76 39.2371 1497.76 49.9314 Q1497.76 60.6258 1492.57 67.1883 Q1487.43 73.7508 1479.16 73.7508 Q1474.18 73.7508 1470.57 71.8063 Q1467.01 69.8214 1464.66 65.7705 M1490.02 49.9314 Q1490.02 41.7081 1486.62 37.0496 Q1483.25 32.3505 1477.34 32.3505 Q1471.42 32.3505 1468.02 37.0496 Q1464.66 41.7081 1464.66 49.9314 Q1464.66 58.1548 1468.02 62.8538 Q1471.42 67.5124 1477.34 67.5124 Q1483.25 67.5124 1486.62 62.8538 Q1490.02 58.1548 1490.02 49.9314 Z" fill="#000000" fill-rule="nonzero" fill-opacity="1" /><path clip-path="url(#clip810)" d="M1518.21 65.6895 L1546.77 65.6895 L1546.77 72.576 L1508.37 72.576 L1508.37 65.6895 Q1513.03 60.8689 1521.05 52.7671 Q1529.11 44.6248 1531.18 42.2752 Q1535.1 37.8598 1536.64 34.8216 Q1538.22 31.7429 1538.22 28.7857 Q1538.22 23.9651 1534.82 20.927 Q1531.46 17.8888 1526.03 17.8888 Q1522.18 17.8888 1517.89 19.2256 Q1513.63 20.5624 1508.77 23.2765 L1508.77 15.0127 Q1513.72 13.0277 1518.01 12.015 Q1522.3 11.0023 1525.87 11.0023 Q1535.27 11.0023 1540.86 15.7013 Q1546.45 20.4004 1546.45 28.2591 Q1546.45 31.9859 1545.03 35.3482 Q1543.65 38.6699 1539.97 43.2069 Q1538.95 44.3817 1533.52 50.0125 Q1528.1 55.6027 1518.21 65.6895 Z" fill="#000000" fill-rule="nonzero" fill-opacity="1" /><path clip-path="url(#clip810)" d="M1581.45 43.8551 Q1575.61 43.8551 1572.25 46.9743 Q1568.93 50.0935 1568.93 55.5622 Q1568.93 61.0309 1572.25 64.1501 Q1575.61 67.2693 1581.45 67.2693 Q1587.28 67.2693 1590.64 64.1501 Q1594 60.9904 1594 55.5622 Q1594 50.0935 1590.64 46.9743 Q1587.32 43.8551 1581.45 43.8551 M1573.26 40.3713 Q1568 39.075 1565.04 35.4697 Q1562.12 31.8644 1562.12 26.6793 Q1562.12 19.4281 1567.27 15.2152 Q1572.45 11.0023 1581.45 11.0023 Q1590.48 11.0023 1595.63 15.2152 Q1600.77 19.4281 1600.77 26.6793 Q1600.77 31.8644 1597.81 35.4697 Q1594.9 39.075 1589.67 40.3713 Q1595.58 41.7486 1598.87 45.759 Q1602.19 49.7694 1602.19 55.5622 Q1602.19 64.3527 1596.8 69.0517 Q1591.45 73.7508 1581.45 73.7508 Q1571.44 73.7508 1566.05 69.0517 Q1560.71 64.3527 1560.71 55.5622 Q1560.71 49.7694 1564.03 45.759 Q1567.35 41.7486 1573.26 40.3713 M1570.27 27.4489 Q1570.27 32.148 1573.18 34.7811 Q1576.14 37.4142 1581.45 37.4142 Q1586.71 37.4142 1589.67 34.7811 Q1592.67 32.148 1592.67 27.4489 Q1592.67 22.7499 1589.67 20.1168 Q1586.71 17.4837 1581.45 17.4837 Q1576.14 17.4837 1573.18 20.1168 Q1570.27 22.7499 1570.27 27.4489 Z" fill="#000000" fill-rule="nonzero" fill-opacity="1" /><path clip-path="url(#clip810)" d="M1634.23 43.8551 Q1628.4 43.8551 1625.03 46.9743 Q1621.71 50.0935 1621.71 55.5622 Q1621.71 61.0309 1625.03 64.1501 Q1628.4 67.2693 1634.23 67.2693 Q1640.06 67.2693 1643.43 64.1501 Q1646.79 60.9904 1646.79 55.5622 Q1646.79 50.0935 1643.43 46.9743 Q1640.1 43.8551 1634.23 43.8551 M1626.05 40.3713 Q1620.78 39.075 1617.82 35.4697 Q1614.91 31.8644 1614.91 26.6793 Q1614.91 19.4281 1620.05 15.2152 Q1625.24 11.0023 1634.23 11.0023 Q1643.26 11.0023 1648.41 15.2152 Q1653.55 19.4281 1653.55 26.6793 Q1653.55 31.8644 1650.6 35.4697 Q1647.68 39.075 1642.45 40.3713 Q1648.37 41.7486 1651.65 45.759 Q1654.97 49.7694 1654.97 55.5622 Q1654.97 64.3527 1649.58 69.0517 Q1644.24 73.7508 1634.23 73.7508 Q1624.22 73.7508 1618.84 69.0517 Q1613.49 64.3527 1613.49 55.5622 Q1613.49 49.7694 1616.81 45.759 Q1620.13 41.7486 1626.05 40.3713 M1623.05 27.4489 Q1623.05 32.148 1625.97 34.7811 Q1628.92 37.4142 1634.23 37.4142 Q1639.5 37.4142 1642.45 34.7811 Q1645.45 32.148 1645.45 27.4489 Q1645.45 22.7499 1642.45 20.1168 Q1639.5 17.4837 1634.23 17.4837 Q1628.92 17.4837 1625.97 20.1168 Q1623.05 22.7499 1623.05 27.4489 Z" fill="#000000" fill-rule="nonzero" fill-opacity="1" /><polyline clip-path="url(#clip812)" style="stroke:#009af9; stroke-linecap:round; stroke-linejoin:round; stroke-width:4; stroke-opacity:1; fill:none" points="311.302,160.256 313.284,297.278 315.266,433.418 317.248,569.557 319.23,705.697 321.212,841.837 323.194,841.837 325.176,841.837 327.158,841.837 329.14,841.837 331.122,841.837 333.104,977.197 335.086,977.197 337.068,977.197 339.05,994.581 341.032,1013.37 343.014,1040.04 344.996,1040.04 346.978,1044.74 348.96,1052.64 350.942,1064.93 352.924,1064.93 354.906,1067.15 356.888,1071.07 358.87,1077.72 360.852,1077.72 362.834,1078.97 364.816,1081.28 366.798,1085.45 368.78,1092.52 370.762,1092.52 372.744,1093.91 374.726,1096.41 376.708,1101.01 378.69,1101.01 380.672,1101.94 382.654,1103.67 384.636,1106.96 386.618,1106.96 388.6,1107.63 390.582,1108.9 392.564,1111.36 394.546,1115.99 396.528,1115.99 398.51,1116.95 400.492,1118.73 402.474,1122.16 404.456,1122.16 406.438,1122.86 408.42,1124.2 410.402,1126.8 412.384,1126.8 414.366,1127.33 416.348,1128.35 418.33,1130.35 420.312,1134.18 422.294,1134.18 424.276,1134.98 426.258,1136.48 428.24,1139.38 430.222,1139.38 432.204,1139.98 434.186,1141.12 436.168,1143.34 438.15,1143.34 440.132,1143.8 442.114,1144.68 444.096,1146.4 446.078,1149.74 448.06,1149.74 450.042,1150.43 452.024,1151.74 454.006,1154.29 455.988,1154.29 457.97,1154.81 459.952,1155.81 461.934,1157.78 463.916,1157.78 465.898,1158.18 467.88,1158.96 469.862,1160.49 471.844,1163.46 473.826,1163.46 475.808,1164.07 477.79,1165.24 479.772,1167.52 481.754,1167.52 483.736,1167.98 485.718,1168.88 487.7,1170.65 489.682,1170.65 491.664,1171.01 493.646,1171.7 495.628,1173.08 497.61,1175.76 499.592,1175.76 501.574,1176.32 503.556,1177.37 505.538,1179.44 507.52,1179.44 509.502,1179.86 511.484,1180.68 513.466,1182.28 515.448,1182.28 517.43,1182.61 519.412,1183.24 521.394,1184.5 523.376,1186.95 525.358,1186.95 527.34,1187.45 529.322,1188.42 531.304,1190.31 533.286,1190.31 535.267,1190.7 537.249,1191.45 539.231,1192.92 541.213,1192.92 543.195,1193.22 545.177,1193.81 547.159,1194.97 549.141,1197.23 551.123,1197.23 553.105,1197.69 555.087,1198.58 557.069,1200.33 559.051,1200.33 561.033,1200.69 563.015,1201.38 564.997,1202.75 566.979,1202.75 568.961,1203.03 570.943,1203.57 572.925,1204.64 574.907,1204.64 576.889,1204.86 578.871,1205.28 580.853,1206.13 582.835,1207.79 584.817,1207.79 586.799,1208.13 588.781,1208.79 590.763,1210.09 592.745,1210.09 594.727,1210.35 596.709,1210.87 598.691,1211.89 600.673,1211.89 602.655,1212.09 604.637,1212.5 606.619,1213.3 608.601,1214.89 610.583,1214.89 612.565,1215.21 614.547,1215.84 616.529,1217.08 618.511,1217.08 620.493,1217.33 622.475,1217.82 624.457,1218.79 626.439,1218.79 628.421,1218.99 630.403,1219.38 632.385,1220.15 634.367,1221.66 636.349,1221.66 638.331,1221.97 640.313,1222.57 642.295,1223.75 644.277,1223.75 646.259,1223.99 648.241,1224.46 650.223,1225.4 652.205,1225.4 654.187,1225.58 656.169,1225.95 658.151,1226.69 660.133,1228.14 662.115,1228.14 664.097,1228.44 666.079,1229.01 668.061,1230.15 670.043,1230.15 672.025,1230.38 674.007,1230.83 675.989,1231.73 677.971,1231.73 679.953,1231.91 681.935,1232.26 683.917,1232.97 685.899,1234.37 687.881,1234.37 689.863,1234.65 691.845,1235.2 693.827,1236.3 695.809,1236.3 697.791,1236.52 699.773,1236.95 701.755,1237.81 703.737,1237.81 705.719,1237.99 707.701,1238.33 709.683,1239.01 711.665,1240.36 713.647,1240.36 715.629,1240.63 717.611,1241.16 719.593,1242.22 721.575,1242.22 723.557,1242.43 725.539,1242.85 727.521,1243.68 729.503,1243.68 731.485,1243.85 733.467,1244.18 735.449,1244.83 737.431,1246.13 739.413,1246.13 741.395,1246.4 743.377,1246.91 745.359,1247.93 747.341,1247.93 749.323,1248.14 751.305,1248.54 753.287,1249.34 755.269,1249.34 757.251,1249.51 759.233,1249.83 761.215,1250.46 763.197,1251.72 765.179,1251.72 767.161,1251.97 769.143,1252.47 771.125,1253.46 773.107,1253.46 775.089,1253.65 777.071,1254.05 779.053,1254.82 781.035,1254.82 783.017,1254.98 784.999,1255.29 786.981,1255.91 788.963,1257.12 790.945,1257.12 792.927,1257.37 794.909,1257.85 796.891,1258.81 798.873,1258.81 800.855,1259 802.837,1259.38 804.819,1260.14 806.801,1260.14 808.783,1260.29 810.765,1260.59 812.747,1261.19 814.729,1261.19 816.711,1261.31 818.693,1261.55 820.675,1262.02 822.657,1262.96 824.639,1262.96 826.621,1263.15 828.603,1263.52 830.585,1264.26 832.567,1264.26 834.549,1264.41 836.531,1264.71 838.513,1265.29 840.495,1265.29 842.477,1265.41 844.459,1265.65 846.441,1266.11 848.423,1267.03 850.405,1267.03 852.387,1267.22 854.369,1267.59 856.351,1268.32 858.333,1268.32 860.314,1268.46 862.296,1268.75 864.278,1269.33 866.26,1269.33 868.242,1269.45 870.224,1269.67 872.206,1270.13 874.188,1271.04 876.17,1271.04 878.152,1271.22 880.134,1271.58 882.116,1272.3 884.098,1272.3 886.08,1272.44 888.062,1272.73 890.044,1273.3 892.026,1273.3 894.008,1273.41 895.99,1273.64 897.972,1274.09 899.954,1274.98 901.936,1274.98 903.918,1275.16 905.9,1275.51 907.882,1276.22 909.864,1276.22 911.846,1276.36 913.828,1276.64 915.81,1277.2 917.792,1277.2 919.774,1277.31 921.756,1277.53 923.738,1277.98 925.72,1278.85 927.702,1278.85 929.684,1279.03 931.666,1279.38 933.648,1280.07 935.63,1280.07 937.612,1280.21 939.594,1280.49 941.576,1281.04 943.558,1281.04 945.54,1281.15 947.522,1281.37 949.504,1281.81 951.486,1282.67 953.468,1282.67 955.45,1282.85 957.432,1283.19 959.414,1283.87 961.396,1283.87 963.378,1284.01 965.36,1284.28 967.342,1284.82 969.324,1284.82 971.306,1284.93 973.288,1285.15 975.27,1285.58 977.252,1286.43 979.234,1286.43 981.216,1286.6 983.198,1286.94 985.18,1287.62 987.162,1287.62 989.144,1287.75 991.126,1288.02 993.108,1288.55 995.09,1288.55 997.072,1288.66 999.054,1288.87 1001.04,1289.3 1003.02,1290.14 1005,1290.14 1006.98,1290.31 1008.96,1290.64 1010.95,1291.31 1012.93,1291.31 1014.91,1291.44 1016.89,1291.71 1018.87,1292.23 1020.86,1292.23 1022.84,1292.34 1024.82,1292.55 1026.8,1292.97 1028.78,1293.8 1030.77,1293.8 1032.75,1293.96 1034.73,1294.29 1036.71,1294.95 1038.69,1294.95 1040.68,1295.08 1042.66,1295.34 1044.64,1295.86 1046.62,1295.86 1048.6,1295.97 1050.59,1296.17 1052.57,1296.59 1054.55,1296.59 1056.53,1296.67 1058.51,1296.83 1060.5,1297.16 1062.48,1297.81 1064.46,1297.81 1066.44,1297.94 1068.42,1298.2 1070.41,1298.72 1072.39,1298.72 1074.37,1298.83 1076.35,1299.03 1078.33,1299.44 1080.32,1299.44 1082.3,1299.52 1084.28,1299.69 1086.26,1300.01 1088.24,1300.66 1090.23,1300.66 1092.21,1300.79 1094.19,1301.05 1096.17,1301.57 1098.15,1301.57 1100.14,1301.67 1102.12,1301.87 1104.1,1302.28 1106.08,1302.28 1108.06,1302.36 1110.05,1302.53 1112.03,1302.85 1114.01,1303.5 1115.99,1303.5 1117.97,1303.63 1119.96,1303.88 1121.94,1304.4 1123.92,1304.4 1125.9,1304.5 1127.88,1304.7 1129.87,1305.11 1131.85,1305.11 1133.83,1305.19 1135.81,1305.35 1137.79,1305.68 1139.78,1306.32 1141.76,1306.32 1143.74,1306.45 1145.72,1306.7 1147.7,1307.21 1149.69,1307.21 1151.67,1307.31 1153.65,1307.52 1155.63,1307.92 1157.61,1307.92 1159.6,1308 1161.58,1308.16 1163.56,1308.49 1165.54,1309.12 1167.52,1309.12 1169.51,1309.25 1171.49,1309.51 1173.47,1310.01 1175.45,1310.01 1177.43,1310.12 1179.42,1310.32 1181.4,1310.72 1183.38,1310.72 1185.36,1310.8 1187.34,1310.96 1189.33,1311.28 1191.31,1311.92 1193.29,1311.92 1195.27,1312.05 1197.25,1312.3 1199.24,1312.8 1201.22,1312.8 1203.2,1312.91 1205.18,1313.11 1207.16,1313.51 1209.15,1313.51 1211.13,1313.59 1213.11,1313.75 1215.09,1314.07 1217.07,1314.7 1219.06,1314.7 1221.04,1314.83 1223.02,1315.08 1225,1315.58 1226.98,1315.58 1228.97,1315.68 1230.95,1315.88 1232.93,1316.28 1234.91,1316.28 1236.89,1316.36 1238.88,1316.52 1240.86,1316.84 1242.84,1317.47 1244.82,1317.47 1246.8,1317.59 1248.79,1317.84 1250.77,1318.34 1252.75,1318.34 1254.73,1318.44 1256.71,1318.64 1258.7,1319.04 1260.68,1319.04 1262.66,1319.12 1264.64,1319.28 1266.62,1319.59 1268.61,1320.22 1270.59,1320.22 1272.57,1320.35 1274.55,1320.6 1276.53,1321.1 1278.52,1321.1 1280.5,1321.2 1282.48,1321.39 1284.46,1321.79 1286.44,1321.79 1288.43,1321.87 1290.41,1322.03 1292.39,1322.34 1294.37,1322.34 1296.35,1322.4 1298.34,1322.53 1300.32,1322.78 1302.3,1323.28 1304.28,1323.28 1306.26,1323.38 1308.25,1323.58 1310.23,1323.97 1312.21,1323.97 1314.19,1324.05 1316.17,1324.21 1318.16,1324.52 1320.14,1324.52 1322.12,1324.59 1324.1,1324.71 1326.08,1324.96 1328.07,1325.46 1330.05,1325.46 1332.03,1325.56 1334.01,1325.76 1335.99,1326.16 1337.98,1326.16 1339.96,1326.24 1341.94,1326.4 1343.92,1326.71 1345.9,1326.71 1347.88,1326.78 1349.87,1326.9 1351.85,1327.15 1353.83,1327.65 1355.81,1327.65 1357.79,1327.75 1359.78,1327.95 1361.76,1328.35 1363.74,1328.35 1365.72,1328.43 1367.7,1328.59 1369.69,1328.9 1371.67,1328.9 1373.65,1328.97 1375.63,1329.09 1377.61,1329.34 1379.6,1329.84 1381.58,1329.84 1383.56,1329.94 1385.54,1330.14 1387.52,1330.54 1389.51,1330.54 1391.49,1330.62 1393.47,1330.78 1395.45,1331.1 1397.43,1331.1 1399.42,1331.16 1401.4,1331.29 1403.38,1331.54 1405.36,1332.04 1407.34,1332.04 1409.33,1332.14 1411.31,1332.34 1413.29,1332.74 1415.27,1332.74 1417.25,1332.82 1419.24,1332.98 1421.22,1333.29 1423.2,1333.29 1425.18,1333.36 1427.16,1333.48 1429.15,1333.74 1431.13,1334.24 1433.11,1334.24 1435.09,1334.34 1437.07,1334.54 1439.06,1334.94 1441.04,1334.94 1443.02,1335.02 1445,1335.18 1446.98,1335.49 1448.97,1335.49 1450.95,1335.56 1452.93,1335.68 1454.91,1335.94 1456.89,1336.44 1458.88,1336.44 1460.86,1336.54 1462.84,1336.74 1464.82,1337.14 1466.8,1337.14 1468.79,1337.22 1470.77,1337.38 1472.75,1337.69 1474.73,1337.69 1476.71,1337.76 1478.7,1337.89 1480.68,1338.14 1482.66,1338.64 1484.64,1338.64 1486.62,1338.74 1488.61,1338.94 1490.59,1339.34 1492.57,1339.34 1494.55,1339.42 1496.53,1339.58 1498.52,1339.9 1500.5,1339.9 1502.48,1339.96 1504.46,1340.09 1506.44,1340.34 1508.43,1340.85 1510.41,1340.85 1512.39,1340.95 1514.37,1341.15 1516.35,1341.55 1518.34,1341.55 1520.32,1341.63 1522.3,1341.79 1524.28,1342.11 1526.26,1342.11 1528.25,1342.17 1530.23,1342.3 1532.21,1342.55 1534.19,1343.06 1536.17,1343.06 1538.16,1343.16 1540.14,1343.36 1542.12,1343.76 1544.1,1343.76 1546.08,1343.84 1548.07,1344 1550.05,1344.32 1552.03,1344.32 1554.01,1344.38 1555.99,1344.51 1557.98,1344.76 1559.96,1344.76 1561.94,1344.81 1563.92,1344.92 1565.9,1345.12 1567.89,1345.52 1569.87,1345.52 1571.85,1345.6 1573.83,1345.76 1575.81,1346.08 1577.8,1346.08 1579.78,1346.15 1581.76,1346.28 1583.74,1346.53 1585.72,1346.53 1587.71,1346.58 1589.69,1346.68 1591.67,1346.89 1593.65,1347.29 1595.63,1347.29 1597.62,1347.37 1599.6,1347.54 1601.58,1347.86 1603.56,1347.86 1605.54,1347.92 1607.53,1348.05 1609.51,1348.31 1611.49,1348.31 1613.47,1348.36 1615.45,1348.46 1617.44,1348.67 1619.42,1349.07 1621.4,1349.07 1623.38,1349.16 1625.36,1349.32 1627.35,1349.64 1629.33,1349.64 1631.31,1349.71 1633.29,1349.84 1635.27,1350.09 1637.26,1350.09 1639.24,1350.15 1641.22,1350.25 1643.2,1350.46 1645.18,1350.86 1647.17,1350.86 1649.15,1350.95 1651.13,1351.11 1653.11,1351.44 1655.09,1351.44 1657.08,1351.5 1659.06,1351.63 1661.04,1351.89 1663.02,1351.89 1665,1351.94 1666.99,1352.05 1668.97,1352.25 1670.95,1352.67 1672.93,1352.67 1674.91,1352.75 1676.9,1352.91 1678.88,1353.24 1680.86,1353.24 1682.84,1353.31 1684.82,1353.44 1686.81,1353.7 1688.79,1353.7 1690.77,1353.75 1692.75,1353.85 1694.73,1354.06 1696.72,1354.48 1698.7,1354.48 1700.68,1354.56 1702.66,1354.72 1704.64,1355.05 1706.63,1355.05 1708.61,1355.12 1710.59,1355.25 1712.57,1355.51 1714.55,1355.51 1716.54,1355.57 1718.52,1355.67 1720.5,1355.88 1722.48,1356.3 1724.46,1356.3 1726.45,1356.38 1728.43,1356.55 1730.41,1356.88 1732.39,1356.88 1734.37,1356.94 1736.36,1357.08 1738.34,1357.34 1740.32,1357.34 1742.3,1357.39 1744.28,1357.5 1746.27,1357.71 1748.25,1358.13 1750.23,1358.13 1752.21,1358.21 1754.19,1358.38 1756.18,1358.71 1758.16,1358.71 1760.14,1358.78 1762.12,1358.91 1764.1,1359.17 1766.09,1359.17 1768.07,1359.23 1770.05,1359.33 1772.03,1359.54 1774.01,1359.96 1776,1359.96 1777.98,1360.05 1779.96,1360.22 1781.94,1360.55 1783.92,1360.55 1785.91,1360.62 1787.89,1360.75 1789.87,1361.02 1791.85,1361.02 1793.83,1361.07 1795.82,1361.18 1797.8,1361.39 1799.78,1361.39 1801.76,1361.43 1803.74,1361.52 1805.73,1361.69 1807.71,1362.02 1809.69,1362.02 1811.67,1362.09 1813.65,1362.23 1815.64,1362.49 1817.62,1362.49 1819.6,1362.55 1821.58,1362.66 1823.56,1362.87 1825.55,1362.87 1827.53,1362.91 1829.51,1363 1831.49,1363.17 1833.47,1363.51 1835.46,1363.51 1837.44,1363.58 1839.42,1363.71 1841.4,1363.98 1843.38,1363.98 1845.37,1364.04 1847.35,1364.15 1849.33,1364.36 1851.31,1364.36 1853.29,1364.41 1855.28,1364.49 1857.26,1364.66 1859.24,1365.01 1861.22,1365.01 1863.2,1365.08 1865.19,1365.21 1867.17,1365.49 1869.15,1365.49 1871.13,1365.54 1873.11,1365.65 1875.1,1365.87 1877.08,1365.87 1879.06,1365.91 1881.04,1366 1883.02,1366.17 "/>
<polyline clip-path="url(#clip812)" style="stroke:#e26f46; stroke-linecap:round; stroke-linejoin:round; stroke-width:4; stroke-opacity:1; fill:none" points="311.302,160.256 313.284,297.278 315.266,433.418 317.248,569.557 319.23,705.697 321.212,841.837 323.194,977.977 325.176,1114.12 327.158,1250.26 329.14,1386.4 "/>
<polyline clip-path="url(#clip812)" style="stroke:#3da44d; stroke-linecap:round; stroke-linejoin:round; stroke-width:4; stroke-opacity:1; fill:none" points="311.302,160.256 313.284,297.278 315.266,433.418 317.248,569.557 319.23,705.697 321.212,841.837 323.194,977.977 325.176,977.977 327.158,977.977 329.14,977.977 331.122,977.977 333.104,977.977 335.086,977.977 337.068,977.977 339.05,993.75 341.032,1003.86 343.014,1003.86 344.996,1005.82 346.978,1009.58 348.96,1016.64 350.942,1016.64 352.924,1018.03 354.906,1020.72 356.888,1025.87 358.87,1035.34 360.852,1035.34 362.834,1037.2 364.816,1040.76 366.798,1047.47 368.78,1059.53 370.762,1059.53 372.744,1061.87 374.726,1066.33 376.708,1066.33 378.69,1067.21 380.672,1068.94 382.654,1072.3 384.636,1078.64 386.618,1078.64 388.6,1079.88 390.582,1082.31 392.564,1086.95 394.546,1095.51 396.528,1095.51 398.51,1097.18 400.492,1100.39 402.474,1100.39 404.456,1101.02 406.438,1102.27 408.42,1104.71 410.402,1109.36 412.384,1109.36 414.366,1110.27 416.348,1112.06 418.33,1115.49 420.312,1121.88 422.294,1121.88 424.276,1123.12 426.258,1125.52 428.24,1125.52 430.222,1125.99 432.204,1126.93 434.186,1128.75 436.168,1132.24 438.15,1132.24 440.132,1132.93 442.114,1134.26 444.096,1134.26 446.078,1134.53 448.06,1135.06 450.042,1136.09 452.024,1138.11 454.006,1138.11 455.988,1138.51 457.97,1139.29 459.952,1140.83 461.934,1143.76 463.916,1143.76 465.898,1144.34 467.88,1145.46 469.862,1145.46 471.844,1145.69 473.826,1146.13 475.808,1147 477.79,1148.7 479.772,1148.7 481.754,1149.03 483.736,1149.69 485.718,1150.98 487.7,1150.98 489.682,1151.24 491.664,1151.74 493.646,1152.73 495.628,1152.73 497.61,1152.93 499.592,1153.32 501.574,1154.09 503.556,1155.59 505.538,1155.59 507.52,1155.88 509.502,1156.47 511.484,1157.61 513.466,1157.61 515.448,1157.83 517.43,1158.28 519.412,1159.16 521.394,1159.16 523.376,1159.33 525.358,1159.68 527.34,1160.36 529.322,1161.68 531.304,1161.68 533.286,1161.94 535.267,1162.46 537.249,1163.47 539.231,1163.47 541.213,1163.67 543.195,1164.06 545.177,1164.84 547.159,1164.84 549.141,1165 551.123,1165.3 553.105,1165.91 555.087,1167.08 557.069,1167.08 559.051,1167.32 561.033,1167.78 563.015,1168.68 564.997,1168.68 566.979,1168.85 568.961,1169.21 570.943,1169.9 572.925,1169.9 574.907,1170.04 576.889,1170.31 578.871,1170.85 580.853,1171.91 582.835,1171.91 584.817,1172.12 586.799,1172.53 588.781,1173.34 590.763,1173.34 592.745,1173.5 594.727,1173.81 596.709,1174.44 598.691,1174.44 600.673,1174.56 602.655,1174.81 604.637,1175.3 606.619,1175.3 608.601,1175.39 610.583,1175.59 612.565,1175.97 614.547,1176.72 616.529,1176.72 618.511,1176.87 620.493,1177.16 622.475,1177.74 624.457,1177.74 626.439,1177.86 628.421,1178.09 630.403,1178.54 632.385,1178.54 634.367,1178.63 636.349,1178.81 638.331,1179.17 640.313,1179.87 642.295,1179.87 644.277,1180.01 646.259,1180.28 648.241,1180.83 650.223,1180.83 652.205,1180.93 654.187,1181.15 656.169,1181.58 658.151,1181.58 660.133,1181.66 662.115,1181.83 664.097,1182.16 666.079,1182.82 668.061,1182.82 670.043,1182.95 672.025,1183.21 674.007,1183.72 675.989,1183.72 677.971,1183.83 679.953,1184.03 681.935,1184.43 683.917,1184.43 685.899,1184.51 687.881,1184.67 689.863,1184.99 691.845,1185.61 693.827,1185.61 695.809,1185.73 697.791,1185.98 699.773,1186.47 701.755,1186.47 703.737,1186.56 705.719,1186.76 707.701,1187.14 709.683,1187.14 711.665,1187.21 713.647,1187.37 715.629,1187.67 717.611,1188.26 719.593,1188.26 721.575,1188.38 723.557,1188.61 725.539,1189.08 727.521,1189.08 729.503,1189.17 731.485,1189.35 733.467,1189.72 735.449,1189.72 737.431,1189.79 739.413,1189.94 741.395,1190.23 743.377,1190.8 745.359,1190.8 747.341,1190.91 749.323,1191.13 751.305,1191.58 753.287,1191.58 755.269,1191.67 757.251,1191.85 759.233,1192.2 761.215,1192.2 763.197,1192.27 765.179,1192.41 767.161,1192.69 769.143,1193.23 771.125,1193.23 773.107,1193.34 775.089,1193.56 777.071,1193.99 779.053,1193.99 781.035,1194.08 783.017,1194.25 784.999,1194.59 786.981,1194.59 788.963,1194.66 790.945,1194.79 792.927,1195.06 794.909,1195.6 796.891,1195.6 798.873,1195.7 800.855,1195.91 802.837,1196.33 804.819,1196.33 806.801,1196.42 808.783,1196.58 810.765,1196.91 812.747,1196.91 814.729,1196.98 816.711,1197.11 818.693,1197.37 820.675,1197.89 822.657,1197.89 824.639,1198 826.621,1198.2 828.603,1198.61 830.585,1198.61 832.567,1198.7 834.549,1198.86 836.531,1199.18 838.513,1199.18 840.495,1199.25 842.477,1199.37 844.459,1199.63 846.441,1199.63 848.423,1199.68 850.405,1199.78 852.387,1199.99 854.369,1200.39 856.351,1200.39 858.333,1200.47 860.314,1200.64 862.296,1200.96 864.278,1200.96 866.26,1201.02 868.242,1201.15 870.224,1201.4 872.206,1201.4 874.188,1201.45 876.17,1201.55 878.152,1201.75 880.134,1202.16 882.116,1202.16 884.098,1202.24 886.08,1202.4 888.062,1202.71 890.044,1202.71 892.026,1202.78 894.008,1202.9 895.99,1203.16 897.972,1203.16 899.954,1203.21 901.936,1203.31 903.918,1203.51 905.9,1203.9 907.882,1203.9 909.864,1203.98 911.846,1204.14 913.828,1204.46 915.81,1204.46 917.792,1204.52 919.774,1204.65 921.756,1204.9 923.738,1204.9 925.72,1204.95 927.702,1205.05 929.684,1205.25 931.666,1205.64 933.648,1205.64 935.63,1205.72 937.612,1205.88 939.594,1206.19 941.576,1206.19 943.558,1206.26 945.54,1206.38 947.522,1206.63 949.504,1206.63 951.486,1206.68 953.468,1206.78 955.45,1206.98 957.432,1207.37 959.414,1207.37 961.396,1207.45 963.378,1207.61 965.36,1207.92 967.342,1207.92 969.324,1207.99 971.306,1208.11 973.288,1208.36 975.27,1208.36 977.252,1208.41 979.234,1208.51 981.216,1208.71 983.198,1209.1 985.18,1209.1 987.162,1209.18 989.144,1209.34 991.126,1209.65 993.108,1209.65 995.09,1209.71 997.072,1209.84 999.054,1210.08 1001.04,1210.08 1003.02,1210.13 1005,1210.23 1006.98,1210.43 1008.96,1210.82 1010.95,1210.82 1012.93,1210.9 1014.91,1211.06 1016.89,1211.37 1018.87,1211.37 1020.86,1211.43 1022.84,1211.56 1024.82,1211.81 1026.8,1211.81 1028.78,1211.86 1030.77,1211.96 1032.75,1212.15 1034.73,1212.55 1036.71,1212.55 1038.69,1212.63 1040.68,1212.78 1042.66,1213.09 1044.64,1213.09 1046.62,1213.16 1048.6,1213.28 1050.59,1213.53 1052.57,1213.53 1054.55,1213.58 1056.53,1213.68 1058.51,1213.88 1060.5,1214.27 1062.48,1214.27 1064.46,1214.35 1066.44,1214.51 1068.42,1214.82 1070.41,1214.82 1072.39,1214.88 1074.37,1215.01 1076.35,1215.25 1078.33,1215.25 1080.32,1215.3 1082.3,1215.4 1084.28,1215.6 1086.26,1216 1088.24,1216 1090.23,1216.07 1092.21,1216.23 1094.19,1216.54 1096.17,1216.54 1098.15,1216.61 1100.14,1216.73 1102.12,1216.98 1104.1,1216.98 1106.08,1217.03 1108.06,1217.13 1110.05,1217.33 1112.03,1217.33 1114.01,1217.37 1115.99,1217.45 1117.97,1217.61 1119.96,1217.92 1121.94,1217.92 1123.92,1217.98 1125.9,1218.11 1127.88,1218.36 1129.87,1218.36 1131.85,1218.41 1133.83,1218.51 1135.81,1218.71 1137.79,1218.71 1139.78,1218.75 1141.76,1218.83 1143.74,1218.99 1145.72,1219.31 1147.7,1219.31 1149.69,1219.37 1151.67,1219.5 1153.65,1219.75 1155.63,1219.75 1157.61,1219.8 1159.6,1219.9 1161.58,1220.1 1163.56,1220.1 1165.54,1220.14 1167.52,1220.22 1169.51,1220.38 1171.49,1220.7 1173.47,1220.7 1175.45,1220.77 1177.43,1220.9 1179.42,1221.15 1181.4,1221.15 1183.38,1221.2 1185.36,1221.3 1187.34,1221.5 1189.33,1221.5 1191.31,1221.55 1193.29,1221.63 1195.27,1221.79 1197.25,1222.11 1199.24,1222.11 1201.22,1222.17 1203.2,1222.3 1205.18,1222.56 1207.16,1222.56 1209.15,1222.61 1211.13,1222.71 1213.11,1222.92 1215.09,1222.92 1217.07,1222.96 1219.06,1223.04 1221.04,1223.2 1223.02,1223.53 1225,1223.53 1226.98,1223.59 1228.97,1223.72 1230.95,1223.98 1232.93,1223.98 1234.91,1224.03 1236.89,1224.13 1238.88,1224.34 1240.86,1224.34 1242.84,1224.38 1244.82,1224.46 1246.8,1224.63 1248.79,1224.95 1250.77,1224.95 1252.75,1225.02 1254.73,1225.15 1256.71,1225.41 1258.7,1225.41 1260.68,1225.46 1262.66,1225.57 1264.64,1225.77 1266.62,1225.77 1268.61,1225.81 1270.59,1225.9 1272.57,1226.06 1274.55,1226.39 1276.53,1226.39 1278.52,1226.46 1280.5,1226.59 1282.48,1226.85 1284.46,1226.85 1286.44,1226.9 1288.43,1227.01 1290.41,1227.22 1292.39,1227.22 1294.37,1227.26 1296.35,1227.34 1298.34,1227.51 1300.32,1227.84 1302.3,1227.84 1304.28,1227.91 1306.26,1228.04 1308.25,1228.3 1310.23,1228.3 1312.21,1228.36 1314.19,1228.46 1316.17,1228.67 1318.16,1228.67 1320.14,1228.71 1322.12,1228.8 1324.1,1228.97 1326.08,1229.3 1328.07,1229.3 1330.05,1229.37 1332.03,1229.5 1334.01,1229.77 1335.99,1229.77 1337.98,1229.82 1339.96,1229.93 1341.94,1230.14 1343.92,1230.14 1345.9,1230.18 1347.88,1230.27 1349.87,1230.44 1351.85,1230.44 1353.83,1230.47 1355.81,1230.54 1357.79,1230.67 1359.78,1230.94 1361.76,1230.94 1363.74,1231 1365.72,1231.1 1367.7,1231.32 1369.69,1231.32 1371.67,1231.36 1373.65,1231.45 1375.63,1231.62 1377.61,1231.62 1379.6,1231.65 1381.58,1231.72 1383.56,1231.86 1385.54,1232.13 1387.52,1232.13 1389.51,1232.18 1391.49,1232.29 1393.47,1232.51 1395.45,1232.51 1397.43,1232.55 1399.42,1232.64 1401.4,1232.81 1403.38,1232.81 1405.36,1232.85 1407.34,1232.91 1409.33,1233.05 1411.31,1233.33 1413.29,1233.33 1415.27,1233.38 1417.25,1233.49 1419.24,1233.71 1421.22,1233.71 1423.2,1233.76 1425.18,1233.84 1427.16,1234.02 1429.15,1234.02 1431.13,1234.05 1433.11,1234.12 1435.09,1234.26 1437.07,1234.54 1439.06,1234.54 1441.04,1234.6 1443.02,1234.71 1445,1234.93 1446.98,1234.93 1448.97,1234.97 1450.95,1235.06 1452.93,1235.24 1454.91,1235.24 1456.89,1235.27 1458.88,1235.34 1460.86,1235.49 1462.84,1235.77 1464.82,1235.77 1466.8,1235.82 1468.79,1235.93 1470.77,1236.16 1472.75,1236.16 1474.73,1236.2 1476.71,1236.29 1478.7,1236.47 1480.68,1236.47 1482.66,1236.51 1484.64,1236.58 1486.62,1236.72 1488.61,1237.01 1490.59,1237.01 1492.57,1237.06 1494.55,1237.18 1496.53,1237.4 1498.52,1237.4 1500.5,1237.45 1502.48,1237.54 1504.46,1237.72 1506.44,1237.72 1508.43,1237.75 1510.41,1237.83 1512.39,1237.97 1514.37,1238.26 1516.35,1238.26 1518.34,1238.32 1520.32,1238.43 1522.3,1238.66 1524.28,1238.66 1526.26,1238.7 1528.25,1238.8 1530.23,1238.98 1532.21,1238.98 1534.19,1239.01 1536.17,1239.09 1538.16,1239.23 1540.14,1239.52 1542.12,1239.52 1544.1,1239.58 1546.08,1239.7 1548.07,1239.93 1550.05,1239.93 1552.03,1239.97 1554.01,1240.07 1555.99,1240.25 1557.98,1240.25 1559.96,1240.29 1561.94,1240.36 1563.92,1240.51 1565.9,1240.8 1567.89,1240.8 1569.87,1240.86 1571.85,1240.98 1573.83,1241.21 1575.81,1241.21 1577.8,1241.26 1579.78,1241.35 1581.76,1241.54 1583.74,1241.54 1585.72,1241.57 1587.71,1241.65 1589.69,1241.8 1591.67,1242.09 1593.65,1242.09 1595.63,1242.15 1597.62,1242.27 1599.6,1242.51 1601.58,1242.51 1603.56,1242.55 1605.54,1242.65 1607.53,1242.84 1609.51,1242.84 1611.49,1242.87 1613.47,1242.95 1615.45,1243.1 1617.44,1243.1 1619.42,1243.13 1621.4,1243.19 1623.38,1243.31 1625.36,1243.55 1627.35,1243.55 1629.33,1243.6 1631.31,1243.69 1633.29,1243.88 1635.27,1243.88 1637.26,1243.92 1639.24,1244 1641.22,1244.15 1643.2,1244.15 1645.18,1244.18 1647.17,1244.24 1649.15,1244.36 1651.13,1244.6 1653.11,1244.6 1655.09,1244.65 1657.08,1244.75 1659.06,1244.94 1661.04,1244.94 1663.02,1244.98 1665,1245.06 1666.99,1245.21 1668.97,1245.21 1670.95,1245.24 1672.93,1245.3 1674.91,1245.43 1676.9,1245.67 1678.88,1245.67 1680.86,1245.72 1682.84,1245.82 1684.82,1246.01 1686.81,1246.01 1688.79,1246.05 1690.77,1246.13 1692.75,1246.29 1694.73,1246.29 1696.72,1246.32 1698.7,1246.38 1700.68,1246.51 1702.66,1246.75 1704.64,1246.75 1706.63,1246.8 1708.61,1246.9 1710.59,1247.1 1712.57,1247.1 1714.55,1247.14 1716.54,1247.22 1718.52,1247.38 1720.5,1247.38 1722.48,1247.41 1724.46,1247.47 1726.45,1247.6 1728.43,1247.85 1730.41,1247.85 1732.39,1247.9 1734.37,1248 1736.36,1248.2 1738.34,1248.2 1740.32,1248.24 1742.3,1248.32 1744.28,1248.48 1746.27,1248.48 1748.25,1248.51 1750.23,1248.58 1752.21,1248.7 1754.19,1248.96 1756.18,1248.96 1758.16,1249.01 1760.14,1249.11 1762.12,1249.31 1764.1,1249.31 1766.09,1249.35 1768.07,1249.44 1770.05,1249.6 1772.03,1249.6 1774.01,1249.63 1776,1249.69 1777.98,1249.82 1779.96,1250.08 1781.94,1250.08 1783.92,1250.13 1785.91,1250.24 1787.89,1250.44 1789.87,1250.44 1791.85,1250.48 1793.83,1250.56 1795.82,1250.73 1797.8,1250.73 1799.78,1250.76 1801.76,1250.83 1803.74,1250.96 1805.73,1251.22 1807.71,1251.22 1809.69,1251.27 1811.67,1251.37 1813.65,1251.58 1815.64,1251.58 1817.62,1251.62 1819.6,1251.71 1821.58,1251.87 1823.56,1251.87 1825.55,1251.91 1827.53,1251.97 1829.51,1252.1 1831.49,1252.37 1833.47,1252.37 1835.46,1252.42 1837.44,1252.53 1839.42,1252.74 1841.4,1252.74 1843.38,1252.78 1845.37,1252.86 1847.35,1253.03 1849.33,1253.03 1851.31,1253.06 1853.29,1253.13 1855.28,1253.26 1857.26,1253.26 1859.24,1253.29 1861.22,1253.35 1863.2,1253.45 1865.19,1253.67 1867.17,1253.67 1869.15,1253.71 1871.13,1253.79 1873.11,1253.96 1875.1,1253.96 1877.08,1254 1879.06,1254.07 1881.04,1254.2 1883.02,1254.2 1885.01,1254.23 1886.99,1254.28 1888.97,1254.39 1890.95,1254.61 1892.93,1254.61 1894.92,1254.65 1896.9,1254.74 1898.88,1254.91 1900.86,1254.91 1902.84,1254.94 1904.83,1255.01 1906.81,1255.15 1908.79,1255.15 1910.77,1255.18 1912.75,1255.23 1914.74,1255.34 1916.72,1255.56 1918.7,1255.56 1920.68,1255.61 1922.66,1255.69 1924.65,1255.87 1926.63,1255.87 1928.61,1255.9 1930.59,1255.97 1932.57,1256.11 1934.56,1256.11 1936.54,1256.14 1938.52,1256.2 1940.5,1256.31 1942.48,1256.53 1944.47,1256.53 1946.45,1256.58 1948.43,1256.66 1950.41,1256.84 1952.39,1256.84 1954.38,1256.88 1956.36,1256.95 1958.34,1257.09 1960.32,1257.09 1962.3,1257.12 1964.29,1257.17 1966.27,1257.29 1968.25,1257.51 1970.23,1257.51 1972.21,1257.56 1974.2,1257.65 1976.18,1257.83 1978.16,1257.83 1980.14,1257.86 1982.12,1257.94 1984.11,1258.08 1986.09,1258.08 1988.07,1258.11 1990.05,1258.17 1992.03,1258.28 1994.02,1258.51 1996,1258.51 1997.98,1258.55 1999.96,1258.65 2001.94,1258.83 2003.92,1258.83 2005.91,1258.86 2007.89,1258.94 2009.87,1259.08 2011.85,1259.08 2013.83,1259.11 2015.82,1259.17 2017.8,1259.29 2019.78,1259.52 2021.76,1259.52 2023.74,1259.56 2025.73,1259.66 2027.71,1259.84 2029.69,1259.84 2031.67,1259.88 2033.65,1259.95 2035.64,1260.1 2037.62,1260.1 2039.6,1260.13 2041.58,1260.19 2043.56,1260.31 2045.55,1260.54 2047.53,1260.54 2049.51,1260.59 2051.49,1260.68 2053.47,1260.87 2055.46,1260.87 2057.44,1260.91 2059.42,1260.98 2061.4,1261.13 2063.38,1261.13 2065.37,1261.16 2067.35,1261.22 2069.33,1261.34 2071.31,1261.58 2073.29,1261.58 2075.28,1261.62 2077.26,1261.72 2079.24,1261.91 2081.22,1261.91 2083.2,1261.95 2085.19,1262.02 2087.17,1262.17 2089.15,1262.17 2091.13,1262.2 2093.11,1262.26 2095.1,1262.39 2097.08,1262.39 2099.06,1262.41 2101.04,1262.46 2103.02,1262.55 2105.01,1262.75 2106.99,1262.75 2108.97,1262.79 2110.95,1262.86 2112.93,1263.02 2114.92,1263.02 2116.9,1263.05 2118.88,1263.11 2120.86,1263.23 2122.84,1263.23 2124.83,1263.25 2126.81,1263.3 2128.79,1263.4 2130.77,1263.6 2132.75,1263.6 2134.74,1263.64 2136.72,1263.71 2138.7,1263.87 2140.68,1263.87 2142.66,1263.9 2144.65,1263.96 2146.63,1264.09 2148.61,1264.09 2150.59,1264.11 2152.57,1264.16 2154.56,1264.26 2156.54,1264.46 2158.52,1264.46 2160.5,1264.5 2162.48,1264.58 2164.47,1264.74 2166.45,1264.74 2168.43,1264.77 2170.41,1264.83 2172.39,1264.96 2174.38,1264.96 2176.36,1264.98 2178.34,1265.03 2180.32,1265.14 2182.3,1265.34 2184.29,1265.34 2186.27,1265.38 2188.25,1265.46 2190.23,1265.62 2192.21,1265.62 2194.2,1265.65 2196.18,1265.71 2198.16,1265.84 2200.14,1265.84 2202.12,1265.87 2204.11,1265.92 2206.09,1266.02 2208.07,1266.23 2210.05,1266.23 2212.03,1266.27 2214.02,1266.35 2216,1266.51 2217.98,1266.51 2219.96,1266.54 2221.94,1266.61 2223.93,1266.74 2225.91,1266.74 2227.89,1266.77 2229.87,1266.82 2231.85,1266.92 2233.84,1267.13 2235.82,1267.13 2237.8,1267.17 2239.78,1267.25 2241.76,1267.42 2243.75,1267.42 2245.73,1267.45 2247.71,1267.52 2249.69,1267.65 2251.67,1267.65 2253.66,1267.68 2255.64,1267.73 2257.62,1267.83 2259.6,1268.04 2261.58,1268.04 2263.57,1268.09 2265.55,1268.17 2267.53,1268.34 2269.51,1268.34 2271.49,1268.37 2273.48,1268.44 2275.46,1268.57 2277.44,1268.57 2279.42,1268.6 2281.4,1268.65 2283.39,1268.76 2285.37,1268.97 2287.35,1268.97 2289.33,1269.02 2291.31,1269.1 2293.3,1269.27 "/>
<polyline clip-path="url(#clip812)" style="stroke:#c271d2; stroke-linecap:round; stroke-linejoin:round; stroke-width:4; stroke-opacity:1; fill:none" points="311.302,160.256 313.284,297.278 315.266,433.418 317.248,569.557 319.23,705.697 321.212,841.837 323.194,977.977 325.176,1114.12 327.158,1250.26 329.14,1386.4 "/>
<polyline clip-path="url(#clip812)" style="stroke:#ac8d18; stroke-linecap:round; stroke-linejoin:round; stroke-width:4; stroke-opacity:1; fill:none" points="311.302,160.256 313.284,297.278 315.266,433.418 317.248,569.557 319.23,705.697 321.212,841.837 323.194,977.977 325.176,1114.12 327.158,1250.26 329.14,1386.4 "/>
<path clip-path="url(#clip810)" d="M1749.53 477.836 L2282.73 477.836 L2282.73 166.796 L1749.53 166.796  Z" fill="#ffffff" fill-rule="evenodd" fill-opacity="1"/>
<polyline clip-path="url(#clip810)" style="stroke:#000000; stroke-linecap:round; stroke-linejoin:round; stroke-width:4; stroke-opacity:1; fill:none" points="1749.53,477.836 2282.73,477.836 2282.73,166.796 1749.53,166.796 1749.53,477.836 "/>
<polyline clip-path="url(#clip810)" style="stroke:#009af9; stroke-linecap:round; stroke-linejoin:round; stroke-width:4; stroke-opacity:1; fill:none" points="1772.88,218.636 1912.94,218.636 "/>
<path clip-path="url(#clip810)" d="M1936.28 201.356 L1940.96 201.356 L1940.96 231.981 L1957.79 231.981 L1957.79 235.916 L1936.28 235.916 L1936.28 201.356 Z" fill="#000000" fill-rule="nonzero" fill-opacity="1" /><path clip-path="url(#clip810)" d="M1962.69 201.356 L1969.66 201.356 L1978.48 224.874 L1987.35 201.356 L1994.31 201.356 L1994.31 235.916 L1989.75 235.916 L1989.75 205.569 L1980.84 229.272 L1976.14 229.272 L1967.23 205.569 L1967.23 235.916 L1962.69 235.916 L1962.69 201.356 Z" fill="#000000" fill-rule="nonzero" fill-opacity="1" /><path clip-path="url(#clip810)" d="M2023.11 243.786 L2023.11 247.096 L1998.48 247.096 L1998.48 243.786 L2023.11 243.786 Z" fill="#000000" fill-rule="nonzero" fill-opacity="1" /><path clip-path="url(#clip810)" d="M2048.02 202.49 L2048.02 207.05 Q2045.36 205.777 2042.99 205.152 Q2040.63 204.527 2038.43 204.527 Q2034.61 204.527 2032.53 206.008 Q2030.47 207.49 2030.47 210.221 Q2030.47 212.513 2031.84 213.694 Q2033.23 214.851 2037.07 215.569 L2039.89 216.147 Q2045.12 217.143 2047.6 219.666 Q2050.1 222.166 2050.1 226.379 Q2050.1 231.402 2046.72 233.994 Q2043.36 236.587 2036.86 236.587 Q2034.41 236.587 2031.63 236.031 Q2028.87 235.476 2025.91 234.388 L2025.91 229.573 Q2028.76 231.17 2031.49 231.981 Q2034.22 232.791 2036.86 232.791 Q2040.86 232.791 2043.04 231.217 Q2045.22 229.643 2045.22 226.726 Q2045.22 224.18 2043.64 222.744 Q2042.09 221.309 2038.53 220.592 L2035.68 220.036 Q2030.45 218.995 2028.11 216.772 Q2025.77 214.55 2025.77 210.592 Q2025.77 206.008 2028.99 203.37 Q2032.23 200.731 2037.9 200.731 Q2040.33 200.731 2042.86 201.171 Q2045.38 201.61 2048.02 202.49 Z" fill="#000000" fill-rule="nonzero" fill-opacity="1" /><path clip-path="url(#clip810)" d="M2062.07 205.198 L2062.07 218.184 L2067.95 218.184 Q2071.21 218.184 2072.99 216.495 Q2074.78 214.805 2074.78 211.68 Q2074.78 208.578 2072.99 206.888 Q2071.21 205.198 2067.95 205.198 L2062.07 205.198 M2057.39 201.356 L2067.95 201.356 Q2073.76 201.356 2076.72 203.995 Q2079.71 206.61 2079.71 211.68 Q2079.71 216.795 2076.72 219.411 Q2073.76 222.027 2067.95 222.027 L2062.07 222.027 L2062.07 235.916 L2057.39 235.916 L2057.39 201.356 Z" fill="#000000" fill-rule="nonzero" fill-opacity="1" /><path clip-path="url(#clip810)" d="M2109.54 230.985 L2109.54 221.703 L2101.91 221.703 L2101.91 217.86 L2114.17 217.86 L2114.17 232.698 Q2111.47 234.619 2108.2 235.615 Q2104.94 236.587 2101.23 236.587 Q2093.13 236.587 2088.55 231.865 Q2083.99 227.119 2083.99 218.67 Q2083.99 210.198 2088.55 205.476 Q2093.13 200.731 2101.23 200.731 Q2104.61 200.731 2107.65 201.564 Q2110.7 202.397 2113.27 204.018 L2113.27 208.995 Q2110.68 206.796 2107.76 205.684 Q2104.85 204.573 2101.63 204.573 Q2095.29 204.573 2092.09 208.115 Q2088.92 211.657 2088.92 218.67 Q2088.92 225.661 2092.09 229.203 Q2095.29 232.744 2101.63 232.744 Q2104.11 232.744 2106.05 232.328 Q2107.99 231.888 2109.54 230.985 Z" fill="#000000" fill-rule="nonzero" fill-opacity="1" /><polyline clip-path="url(#clip810)" style="stroke:#e26f46; stroke-linecap:round; stroke-linejoin:round; stroke-width:4; stroke-opacity:1; fill:none" points="1772.88,270.476 1912.94,270.476 "/>
<path clip-path="url(#clip810)" d="M1936.28 253.196 L1940.96 253.196 L1940.96 283.821 L1957.79 283.821 L1957.79 287.756 L1936.28 287.756 L1936.28 253.196 Z" fill="#000000" fill-rule="nonzero" fill-opacity="1" /><path clip-path="url(#clip810)" d="M1962.69 253.196 L1969.66 253.196 L1978.48 276.714 L1987.35 253.196 L1994.31 253.196 L1994.31 287.756 L1989.75 287.756 L1989.75 257.409 L1980.84 281.112 L1976.14 281.112 L1967.23 257.409 L1967.23 287.756 L1962.69 287.756 L1962.69 253.196 Z" fill="#000000" fill-rule="nonzero" fill-opacity="1" /><path clip-path="url(#clip810)" d="M2023.11 295.626 L2023.11 298.936 L1998.48 298.936 L1998.48 295.626 L2023.11 295.626 Z" fill="#000000" fill-rule="nonzero" fill-opacity="1" /><path clip-path="url(#clip810)" d="M2038.85 257.802 L2032.51 275.001 L2045.22 275.001 L2038.85 257.802 M2036.21 253.196 L2041.51 253.196 L2054.68 287.756 L2049.82 287.756 L2046.67 278.89 L2031.1 278.89 L2027.95 287.756 L2023.02 287.756 L2036.21 253.196 Z" fill="#000000" fill-rule="nonzero" fill-opacity="1" /><path clip-path="url(#clip810)" d="M2081.1 272.108 L2081.1 287.756 L2076.84 287.756 L2076.84 272.247 Q2076.84 268.566 2075.4 266.737 Q2073.97 264.909 2071.1 264.909 Q2067.65 264.909 2065.66 267.108 Q2063.67 269.307 2063.67 273.103 L2063.67 287.756 L2059.38 287.756 L2059.38 261.83 L2063.67 261.83 L2063.67 265.858 Q2065.19 263.52 2067.25 262.362 Q2069.34 261.205 2072.05 261.205 Q2076.51 261.205 2078.8 263.983 Q2081.1 266.737 2081.1 272.108 Z" fill="#000000" fill-rule="nonzero" fill-opacity="1" /><path clip-path="url(#clip810)" d="M2106.65 265.765 L2106.65 251.737 L2110.91 251.737 L2110.91 287.756 L2106.65 287.756 L2106.65 283.867 Q2105.31 286.182 2103.25 287.316 Q2101.21 288.427 2098.34 288.427 Q2093.64 288.427 2090.68 284.677 Q2087.74 280.927 2087.74 274.816 Q2087.74 268.705 2090.68 264.955 Q2093.64 261.205 2098.34 261.205 Q2101.21 261.205 2103.25 262.339 Q2105.31 263.45 2106.65 265.765 M2092.14 274.816 Q2092.14 279.515 2094.06 282.2 Q2096 284.862 2099.38 284.862 Q2102.76 284.862 2104.71 282.2 Q2106.65 279.515 2106.65 274.816 Q2106.65 270.117 2104.71 267.455 Q2102.76 264.77 2099.38 264.77 Q2096 264.77 2094.06 267.455 Q2092.14 270.117 2092.14 274.816 Z" fill="#000000" fill-rule="nonzero" fill-opacity="1" /><path clip-path="url(#clip810)" d="M2134.71 265.811 Q2133.99 265.395 2133.13 265.21 Q2132.3 265.001 2131.28 265.001 Q2127.67 265.001 2125.73 267.362 Q2123.8 269.7 2123.8 274.098 L2123.8 287.756 L2119.52 287.756 L2119.52 261.83 L2123.8 261.83 L2123.8 265.858 Q2125.15 263.497 2127.3 262.362 Q2129.45 261.205 2132.53 261.205 Q2132.97 261.205 2133.5 261.274 Q2134.04 261.321 2134.68 261.436 L2134.71 265.811 Z" fill="#000000" fill-rule="nonzero" fill-opacity="1" /><path clip-path="url(#clip810)" d="M2160.31 273.728 L2160.31 275.811 L2140.73 275.811 Q2141 280.209 2143.36 282.524 Q2145.75 284.816 2149.98 284.816 Q2152.44 284.816 2154.73 284.214 Q2157.04 283.612 2159.31 282.409 L2159.31 286.436 Q2157.02 287.408 2154.61 287.918 Q2152.21 288.427 2149.73 288.427 Q2143.53 288.427 2139.89 284.816 Q2136.28 281.205 2136.28 275.047 Q2136.28 268.682 2139.71 264.955 Q2143.16 261.205 2148.99 261.205 Q2154.22 261.205 2157.25 264.585 Q2160.31 267.941 2160.31 273.728 M2156.05 272.478 Q2156 268.983 2154.08 266.899 Q2152.18 264.816 2149.04 264.816 Q2145.47 264.816 2143.32 266.83 Q2141.19 268.844 2140.86 272.501 L2156.05 272.478 Z" fill="#000000" fill-rule="nonzero" fill-opacity="1" /><path clip-path="url(#clip810)" d="M2167.3 261.83 L2171.56 261.83 L2171.56 287.756 L2167.3 287.756 L2167.3 261.83 M2167.3 251.737 L2171.56 251.737 L2171.56 257.131 L2167.3 257.131 L2167.3 251.737 Z" fill="#000000" fill-rule="nonzero" fill-opacity="1" /><path clip-path="url(#clip810)" d="M2200.17 295.626 L2200.17 298.936 L2175.54 298.936 L2175.54 295.626 L2200.17 295.626 Z" fill="#000000" fill-rule="nonzero" fill-opacity="1" /><path clip-path="url(#clip810)" d="M2215.96 274.723 Q2210.79 274.723 2208.8 275.904 Q2206.81 277.084 2206.81 279.932 Q2206.81 282.2 2208.29 283.543 Q2209.8 284.862 2212.37 284.862 Q2215.91 284.862 2218.04 282.362 Q2220.19 279.839 2220.19 275.672 L2220.19 274.723 L2215.96 274.723 M2224.45 272.964 L2224.45 287.756 L2220.19 287.756 L2220.19 283.821 Q2218.73 286.182 2216.56 287.316 Q2214.38 288.427 2211.23 288.427 Q2207.25 288.427 2204.89 286.205 Q2202.55 283.959 2202.55 280.209 Q2202.55 275.834 2205.47 273.612 Q2208.41 271.39 2214.22 271.39 L2220.19 271.39 L2220.19 270.973 Q2220.19 268.034 2218.25 266.436 Q2216.33 264.816 2212.83 264.816 Q2210.61 264.816 2208.5 265.348 Q2206.4 265.881 2204.45 266.946 L2204.45 263.01 Q2206.79 262.108 2208.99 261.668 Q2211.19 261.205 2213.27 261.205 Q2218.9 261.205 2221.67 264.122 Q2224.45 267.038 2224.45 272.964 Z" fill="#000000" fill-rule="nonzero" fill-opacity="1" /><path clip-path="url(#clip810)" d="M2233.22 251.737 L2237.48 251.737 L2237.48 287.756 L2233.22 287.756 L2233.22 251.737 Z" fill="#000000" fill-rule="nonzero" fill-opacity="1" /><path clip-path="url(#clip810)" d="M2250.61 254.469 L2250.61 261.83 L2259.38 261.83 L2259.38 265.14 L2250.61 265.14 L2250.61 279.214 Q2250.61 282.385 2251.47 283.288 Q2252.34 284.191 2255.01 284.191 L2259.38 284.191 L2259.38 287.756 L2255.01 287.756 Q2250.08 287.756 2248.2 285.927 Q2246.33 284.075 2246.33 279.214 L2246.33 265.14 L2243.2 265.14 L2243.2 261.83 L2246.33 261.83 L2246.33 254.469 L2250.61 254.469 Z" fill="#000000" fill-rule="nonzero" fill-opacity="1" /><polyline clip-path="url(#clip810)" style="stroke:#3da44d; stroke-linecap:round; stroke-linejoin:round; stroke-width:4; stroke-opacity:1; fill:none" points="1772.88,322.316 1912.94,322.316 "/>
<path clip-path="url(#clip810)" d="M1936.28 305.036 L1940.96 305.036 L1940.96 335.661 L1957.79 335.661 L1957.79 339.596 L1936.28 339.596 L1936.28 305.036 Z" fill="#000000" fill-rule="nonzero" fill-opacity="1" /><path clip-path="url(#clip810)" d="M1962.69 305.036 L1969.66 305.036 L1978.48 328.554 L1987.35 305.036 L1994.31 305.036 L1994.31 339.596 L1989.75 339.596 L1989.75 309.249 L1980.84 332.952 L1976.14 332.952 L1967.23 309.249 L1967.23 339.596 L1962.69 339.596 L1962.69 305.036 Z" fill="#000000" fill-rule="nonzero" fill-opacity="1" /><path clip-path="url(#clip810)" d="M2023.11 347.466 L2023.11 350.776 L1998.48 350.776 L1998.48 347.466 L2023.11 347.466 Z" fill="#000000" fill-rule="nonzero" fill-opacity="1" /><path clip-path="url(#clip810)" d="M2038.85 309.642 L2032.51 326.841 L2045.22 326.841 L2038.85 309.642 M2036.21 305.036 L2041.51 305.036 L2054.68 339.596 L2049.82 339.596 L2046.67 330.73 L2031.1 330.73 L2027.95 339.596 L2023.02 339.596 L2036.21 305.036 Z" fill="#000000" fill-rule="nonzero" fill-opacity="1" /><path clip-path="url(#clip810)" d="M2081.1 323.948 L2081.1 339.596 L2076.84 339.596 L2076.84 324.087 Q2076.84 320.406 2075.4 318.577 Q2073.97 316.749 2071.1 316.749 Q2067.65 316.749 2065.66 318.948 Q2063.67 321.147 2063.67 324.943 L2063.67 339.596 L2059.38 339.596 L2059.38 313.67 L2063.67 313.67 L2063.67 317.698 Q2065.19 315.36 2067.25 314.202 Q2069.34 313.045 2072.05 313.045 Q2076.51 313.045 2078.8 315.823 Q2081.1 318.577 2081.1 323.948 Z" fill="#000000" fill-rule="nonzero" fill-opacity="1" /><path clip-path="url(#clip810)" d="M2106.65 317.605 L2106.65 303.577 L2110.91 303.577 L2110.91 339.596 L2106.65 339.596 L2106.65 335.707 Q2105.31 338.022 2103.25 339.156 Q2101.21 340.267 2098.34 340.267 Q2093.64 340.267 2090.68 336.517 Q2087.74 332.767 2087.74 326.656 Q2087.74 320.545 2090.68 316.795 Q2093.64 313.045 2098.34 313.045 Q2101.21 313.045 2103.25 314.179 Q2105.31 315.29 2106.65 317.605 M2092.14 326.656 Q2092.14 331.355 2094.06 334.04 Q2096 336.702 2099.38 336.702 Q2102.76 336.702 2104.71 334.04 Q2106.65 331.355 2106.65 326.656 Q2106.65 321.957 2104.71 319.295 Q2102.76 316.61 2099.38 316.61 Q2096 316.61 2094.06 319.295 Q2092.14 321.957 2092.14 326.656 Z" fill="#000000" fill-rule="nonzero" fill-opacity="1" /><path clip-path="url(#clip810)" d="M2134.71 317.651 Q2133.99 317.235 2133.13 317.05 Q2132.3 316.841 2131.28 316.841 Q2127.67 316.841 2125.73 319.202 Q2123.8 321.54 2123.8 325.938 L2123.8 339.596 L2119.52 339.596 L2119.52 313.67 L2123.8 313.67 L2123.8 317.698 Q2125.15 315.337 2127.3 314.202 Q2129.45 313.045 2132.53 313.045 Q2132.97 313.045 2133.5 313.114 Q2134.04 313.161 2134.68 313.276 L2134.71 317.651 Z" fill="#000000" fill-rule="nonzero" fill-opacity="1" /><path clip-path="url(#clip810)" d="M2160.31 325.568 L2160.31 327.651 L2140.73 327.651 Q2141 332.049 2143.36 334.364 Q2145.75 336.656 2149.98 336.656 Q2152.44 336.656 2154.73 336.054 Q2157.04 335.452 2159.31 334.249 L2159.31 338.276 Q2157.02 339.248 2154.61 339.758 Q2152.21 340.267 2149.73 340.267 Q2143.53 340.267 2139.89 336.656 Q2136.28 333.045 2136.28 326.887 Q2136.28 320.522 2139.71 316.795 Q2143.16 313.045 2148.99 313.045 Q2154.22 313.045 2157.25 316.425 Q2160.31 319.781 2160.31 325.568 M2156.05 324.318 Q2156 320.823 2154.08 318.739 Q2152.18 316.656 2149.04 316.656 Q2145.47 316.656 2143.32 318.67 Q2141.19 320.684 2140.86 324.341 L2156.05 324.318 Z" fill="#000000" fill-rule="nonzero" fill-opacity="1" /><path clip-path="url(#clip810)" d="M2167.3 313.67 L2171.56 313.67 L2171.56 339.596 L2167.3 339.596 L2167.3 313.67 M2167.3 303.577 L2171.56 303.577 L2171.56 308.971 L2167.3 308.971 L2167.3 303.577 Z" fill="#000000" fill-rule="nonzero" fill-opacity="1" /><polyline clip-path="url(#clip810)" style="stroke:#c271d2; stroke-linecap:round; stroke-linejoin:round; stroke-width:4; stroke-opacity:1; fill:none" points="1772.88,374.156 1912.94,374.156 "/>
<path clip-path="url(#clip810)" d="M1936.28 356.876 L1940.96 356.876 L1940.96 387.501 L1957.79 387.501 L1957.79 391.436 L1936.28 391.436 L1936.28 356.876 Z" fill="#000000" fill-rule="nonzero" fill-opacity="1" /><path clip-path="url(#clip810)" d="M1962.69 356.876 L1969.66 356.876 L1978.48 380.394 L1987.35 356.876 L1994.31 356.876 L1994.31 391.436 L1989.75 391.436 L1989.75 361.089 L1980.84 384.792 L1976.14 384.792 L1967.23 361.089 L1967.23 391.436 L1962.69 391.436 L1962.69 356.876 Z" fill="#000000" fill-rule="nonzero" fill-opacity="1" /><path clip-path="url(#clip810)" d="M2023.11 399.306 L2023.11 402.616 L1998.48 402.616 L1998.48 399.306 L2023.11 399.306 Z" fill="#000000" fill-rule="nonzero" fill-opacity="1" /><path clip-path="url(#clip810)" d="M2048.02 358.01 L2048.02 362.57 Q2045.36 361.297 2042.99 360.672 Q2040.63 360.047 2038.43 360.047 Q2034.61 360.047 2032.53 361.528 Q2030.47 363.01 2030.47 365.741 Q2030.47 368.033 2031.84 369.214 Q2033.23 370.371 2037.07 371.089 L2039.89 371.667 Q2045.12 372.663 2047.6 375.186 Q2050.1 377.686 2050.1 381.899 Q2050.1 386.922 2046.72 389.514 Q2043.36 392.107 2036.86 392.107 Q2034.41 392.107 2031.63 391.551 Q2028.87 390.996 2025.91 389.908 L2025.91 385.093 Q2028.76 386.69 2031.49 387.501 Q2034.22 388.311 2036.86 388.311 Q2040.86 388.311 2043.04 386.737 Q2045.22 385.163 2045.22 382.246 Q2045.22 379.7 2043.64 378.264 Q2042.09 376.829 2038.53 376.112 L2035.68 375.556 Q2030.45 374.515 2028.11 372.292 Q2025.77 370.07 2025.77 366.112 Q2025.77 361.528 2028.99 358.89 Q2032.23 356.251 2037.9 356.251 Q2040.33 356.251 2042.86 356.691 Q2045.38 357.13 2048.02 358.01 Z" fill="#000000" fill-rule="nonzero" fill-opacity="1" /><path clip-path="url(#clip810)" d="M2062.07 360.718 L2062.07 373.704 L2067.95 373.704 Q2071.21 373.704 2072.99 372.015 Q2074.78 370.325 2074.78 367.2 Q2074.78 364.098 2072.99 362.408 Q2071.21 360.718 2067.95 360.718 L2062.07 360.718 M2057.39 356.876 L2067.95 356.876 Q2073.76 356.876 2076.72 359.515 Q2079.71 362.13 2079.71 367.2 Q2079.71 372.315 2076.72 374.931 Q2073.76 377.547 2067.95 377.547 L2062.07 377.547 L2062.07 391.436 L2057.39 391.436 L2057.39 356.876 Z" fill="#000000" fill-rule="nonzero" fill-opacity="1" /><path clip-path="url(#clip810)" d="M2109.54 386.505 L2109.54 377.223 L2101.91 377.223 L2101.91 373.38 L2114.17 373.38 L2114.17 388.218 Q2111.47 390.139 2108.2 391.135 Q2104.94 392.107 2101.23 392.107 Q2093.13 392.107 2088.55 387.385 Q2083.99 382.639 2083.99 374.19 Q2083.99 365.718 2088.55 360.996 Q2093.13 356.251 2101.23 356.251 Q2104.61 356.251 2107.65 357.084 Q2110.7 357.917 2113.27 359.538 L2113.27 364.515 Q2110.68 362.316 2107.76 361.204 Q2104.85 360.093 2101.63 360.093 Q2095.29 360.093 2092.09 363.635 Q2088.92 367.177 2088.92 374.19 Q2088.92 381.181 2092.09 384.723 Q2095.29 388.264 2101.63 388.264 Q2104.11 388.264 2106.05 387.848 Q2107.99 387.408 2109.54 386.505 Z" fill="#000000" fill-rule="nonzero" fill-opacity="1" /><path clip-path="url(#clip810)" d="M2142.23 399.306 L2142.23 402.616 L2117.6 402.616 L2117.6 399.306 L2142.23 399.306 Z" fill="#000000" fill-rule="nonzero" fill-opacity="1" /><path clip-path="url(#clip810)" d="M2158.02 378.403 Q2152.85 378.403 2150.86 379.584 Q2148.87 380.764 2148.87 383.612 Q2148.87 385.88 2150.35 387.223 Q2151.86 388.542 2154.43 388.542 Q2157.97 388.542 2160.1 386.042 Q2162.25 383.519 2162.25 379.352 L2162.25 378.403 L2158.02 378.403 M2166.51 376.644 L2166.51 391.436 L2162.25 391.436 L2162.25 387.501 Q2160.79 389.862 2158.62 390.996 Q2156.44 392.107 2153.29 392.107 Q2149.31 392.107 2146.95 389.885 Q2144.61 387.639 2144.61 383.889 Q2144.61 379.514 2147.53 377.292 Q2150.47 375.07 2156.28 375.07 L2162.25 375.07 L2162.25 374.653 Q2162.25 371.714 2160.31 370.116 Q2158.39 368.496 2154.89 368.496 Q2152.67 368.496 2150.56 369.028 Q2148.46 369.561 2146.51 370.626 L2146.51 366.69 Q2148.85 365.788 2151.05 365.348 Q2153.25 364.885 2155.33 364.885 Q2160.96 364.885 2163.73 367.802 Q2166.51 370.718 2166.51 376.644 Z" fill="#000000" fill-rule="nonzero" fill-opacity="1" /><path clip-path="url(#clip810)" d="M2175.29 355.417 L2179.54 355.417 L2179.54 391.436 L2175.29 391.436 L2175.29 355.417 Z" fill="#000000" fill-rule="nonzero" fill-opacity="1" /><path clip-path="url(#clip810)" d="M2192.67 358.149 L2192.67 365.51 L2201.44 365.51 L2201.44 368.82 L2192.67 368.82 L2192.67 382.894 Q2192.67 386.065 2193.53 386.968 Q2194.41 387.871 2197.07 387.871 L2201.44 387.871 L2201.44 391.436 L2197.07 391.436 Q2192.14 391.436 2190.26 389.607 Q2188.39 387.755 2188.39 382.894 L2188.39 368.82 L2185.26 368.82 L2185.26 365.51 L2188.39 365.51 L2188.39 358.149 L2192.67 358.149 Z" fill="#000000" fill-rule="nonzero" fill-opacity="1" /><polyline clip-path="url(#clip810)" style="stroke:#ac8d18; stroke-linecap:round; stroke-linejoin:round; stroke-width:4; stroke-opacity:1; fill:none" points="1772.88,425.996 1912.94,425.996 "/>
<path clip-path="url(#clip810)" d="M1936.28 408.716 L1940.96 408.716 L1940.96 439.341 L1957.79 439.341 L1957.79 443.276 L1936.28 443.276 L1936.28 408.716 Z" fill="#000000" fill-rule="nonzero" fill-opacity="1" /><path clip-path="url(#clip810)" d="M1962.69 408.716 L1969.66 408.716 L1978.48 432.234 L1987.35 408.716 L1994.31 408.716 L1994.31 443.276 L1989.75 443.276 L1989.75 412.929 L1980.84 436.632 L1976.14 436.632 L1967.23 412.929 L1967.23 443.276 L1962.69 443.276 L1962.69 408.716 Z" fill="#000000" fill-rule="nonzero" fill-opacity="1" /></svg>
