<?xml version="1.0" encoding="utf-8"?>
<svg xmlns="http://www.w3.org/2000/svg" xmlns:xlink="http://www.w3.org/1999/xlink" width="600" height="400" viewBox="0 0 2400 1600">
<defs>
  <clipPath id="clip610">
    <rect x="0" y="0" width="2400" height="1600"/>
  </clipPath>
</defs>
<path clip-path="url(#clip610)" d="M0 1600 L2400 1600 L2400 0 L0 0  Z" fill="#ffffff" fill-rule="evenodd" fill-opacity="1"/>
<defs>
  <clipPath id="clip611">
    <rect x="480" y="0" width="1681" height="1600"/>
  </clipPath>
</defs>
<path clip-path="url(#clip610)" d="M276.876 1423.18 L2352.76 1423.18 L2352.76 123.472 L276.876 123.472  Z" fill="#ffffff" fill-rule="evenodd" fill-opacity="1"/>
<defs>
  <clipPath id="clip612">
    <rect x="276" y="123" width="2077" height="1301"/>
  </clipPath>
</defs>
<polyline clip-path="url(#clip612)" style="stroke:#000000; stroke-linecap:round; stroke-linejoin:round; stroke-width:2; stroke-opacity:0.1; fill:none" points="330.305,1423.18 330.305,123.472 "/>
<polyline clip-path="url(#clip612)" style="stroke:#000000; stroke-linecap:round; stroke-linejoin:round; stroke-width:2; stroke-opacity:0.1; fill:none" points="862.473,1423.18 862.473,123.472 "/>
<polyline clip-path="url(#clip612)" style="stroke:#000000; stroke-linecap:round; stroke-linejoin:round; stroke-width:2; stroke-opacity:0.1; fill:none" points="1394.64,1423.18 1394.64,123.472 "/>
<polyline clip-path="url(#clip612)" style="stroke:#000000; stroke-linecap:round; stroke-linejoin:round; stroke-width:2; stroke-opacity:0.1; fill:none" points="1926.81,1423.18 1926.81,123.472 "/>
<polyline clip-path="url(#clip610)" style="stroke:#000000; stroke-linecap:round; stroke-linejoin:round; stroke-width:4; stroke-opacity:1; fill:none" points="276.876,1423.18 2352.76,1423.18 "/>
<polyline clip-path="url(#clip610)" style="stroke:#000000; stroke-linecap:round; stroke-linejoin:round; stroke-width:4; stroke-opacity:1; fill:none" points="330.305,1423.18 330.305,1404.28 "/>
<polyline clip-path="url(#clip610)" style="stroke:#000000; stroke-linecap:round; stroke-linejoin:round; stroke-width:4; stroke-opacity:1; fill:none" points="862.473,1423.18 862.473,1404.28 "/>
<polyline clip-path="url(#clip610)" style="stroke:#000000; stroke-linecap:round; stroke-linejoin:round; stroke-width:4; stroke-opacity:1; fill:none" points="1394.64,1423.18 1394.64,1404.28 "/>
<polyline clip-path="url(#clip610)" style="stroke:#000000; stroke-linecap:round; stroke-linejoin:round; stroke-width:4; stroke-opacity:1; fill:none" points="1926.81,1423.18 1926.81,1404.28 "/>
<path clip-path="url(#clip610)" d="M330.305 1454.1 Q326.694 1454.1 324.865 1457.66 Q323.06 1461.2 323.06 1468.33 Q323.06 1475.44 324.865 1479.01 Q326.694 1482.55 330.305 1482.55 Q333.939 1482.55 335.745 1479.01 Q337.574 1475.44 337.574 1468.33 Q337.574 1461.2 335.745 1457.66 Q333.939 1454.1 330.305 1454.1 M330.305 1450.39 Q336.115 1450.39 339.171 1455 Q342.25 1459.58 342.25 1468.33 Q342.25 1477.06 339.171 1481.67 Q336.115 1486.25 330.305 1486.25 Q324.495 1486.25 321.416 1481.67 Q318.361 1477.06 318.361 1468.33 Q318.361 1459.58 321.416 1455 Q324.495 1450.39 330.305 1450.39 Z" fill="#000000" fill-rule="nonzero" fill-opacity="1" /><path clip-path="url(#clip610)" d="M822.08 1481.64 L829.719 1481.64 L829.719 1455.28 L821.408 1456.95 L821.408 1452.69 L829.672 1451.02 L834.348 1451.02 L834.348 1481.64 L841.987 1481.64 L841.987 1485.58 L822.08 1485.58 L822.08 1481.64 Z" fill="#000000" fill-rule="nonzero" fill-opacity="1" /><path clip-path="url(#clip610)" d="M861.431 1454.1 Q857.82 1454.1 855.992 1457.66 Q854.186 1461.2 854.186 1468.33 Q854.186 1475.44 855.992 1479.01 Q857.82 1482.55 861.431 1482.55 Q865.066 1482.55 866.871 1479.01 Q868.7 1475.44 868.7 1468.33 Q868.7 1461.2 866.871 1457.66 Q865.066 1454.1 861.431 1454.1 M861.431 1450.39 Q867.242 1450.39 870.297 1455 Q873.376 1459.58 873.376 1468.33 Q873.376 1477.06 870.297 1481.67 Q867.242 1486.25 861.431 1486.25 Q855.621 1486.25 852.543 1481.67 Q849.487 1477.06 849.487 1468.33 Q849.487 1459.58 852.543 1455 Q855.621 1450.39 861.431 1450.39 Z" fill="#000000" fill-rule="nonzero" fill-opacity="1" /><path clip-path="url(#clip610)" d="M891.593 1454.1 Q887.982 1454.1 886.153 1457.66 Q884.348 1461.2 884.348 1468.33 Q884.348 1475.44 886.153 1479.01 Q887.982 1482.55 891.593 1482.55 Q895.227 1482.55 897.033 1479.01 Q898.862 1475.44 898.862 1468.33 Q898.862 1461.2 897.033 1457.66 Q895.227 1454.1 891.593 1454.1 M891.593 1450.39 Q897.403 1450.39 900.459 1455 Q903.538 1459.58 903.538 1468.33 Q903.538 1477.06 900.459 1481.67 Q897.403 1486.25 891.593 1486.25 Q885.783 1486.25 882.704 1481.67 Q879.649 1477.06 879.649 1468.33 Q879.649 1459.58 882.704 1455 Q885.783 1450.39 891.593 1450.39 Z" fill="#000000" fill-rule="nonzero" fill-opacity="1" /><path clip-path="url(#clip610)" d="M1358.33 1481.64 L1374.65 1481.64 L1374.65 1485.58 L1352.71 1485.58 L1352.71 1481.64 Q1355.37 1478.89 1359.95 1474.26 Q1364.56 1469.61 1365.74 1468.27 Q1367.99 1465.74 1368.87 1464.01 Q1369.77 1462.25 1369.77 1460.56 Q1369.77 1457.8 1367.82 1456.07 Q1365.9 1454.33 1362.8 1454.33 Q1360.6 1454.33 1358.15 1455.09 Q1355.72 1455.86 1352.94 1457.41 L1352.94 1452.69 Q1355.76 1451.55 1358.22 1450.97 Q1360.67 1450.39 1362.71 1450.39 Q1368.08 1450.39 1371.27 1453.08 Q1374.47 1455.77 1374.47 1460.26 Q1374.47 1462.39 1373.66 1464.31 Q1372.87 1466.2 1370.76 1468.8 Q1370.18 1469.47 1367.08 1472.69 Q1363.98 1475.88 1358.33 1481.64 Z" fill="#000000" fill-rule="nonzero" fill-opacity="1" /><path clip-path="url(#clip610)" d="M1394.47 1454.1 Q1390.86 1454.1 1389.03 1457.66 Q1387.22 1461.2 1387.22 1468.33 Q1387.22 1475.44 1389.03 1479.01 Q1390.86 1482.55 1394.47 1482.55 Q1398.1 1482.55 1399.91 1479.01 Q1401.74 1475.44 1401.74 1468.33 Q1401.74 1461.2 1399.91 1457.66 Q1398.1 1454.1 1394.47 1454.1 M1394.47 1450.39 Q1400.28 1450.39 1403.33 1455 Q1406.41 1459.58 1406.41 1468.33 Q1406.41 1477.06 1403.33 1481.67 Q1400.28 1486.25 1394.47 1486.25 Q1388.66 1486.25 1385.58 1481.67 Q1382.52 1477.06 1382.52 1468.33 Q1382.52 1459.58 1385.58 1455 Q1388.66 1450.39 1394.47 1450.39 Z" fill="#000000" fill-rule="nonzero" fill-opacity="1" /><path clip-path="url(#clip610)" d="M1424.63 1454.1 Q1421.02 1454.1 1419.19 1457.66 Q1417.38 1461.2 1417.38 1468.33 Q1417.38 1475.44 1419.19 1479.01 Q1421.02 1482.55 1424.63 1482.55 Q1428.26 1482.55 1430.07 1479.01 Q1431.9 1475.44 1431.9 1468.33 Q1431.9 1461.2 1430.07 1457.66 Q1428.26 1454.1 1424.63 1454.1 M1424.63 1450.39 Q1430.44 1450.39 1433.49 1455 Q1436.57 1459.58 1436.57 1468.33 Q1436.57 1477.06 1433.49 1481.67 Q1430.44 1486.25 1424.63 1486.25 Q1418.82 1486.25 1415.74 1481.67 Q1412.68 1477.06 1412.68 1468.33 Q1412.68 1459.58 1415.74 1455 Q1418.82 1450.39 1424.63 1450.39 Z" fill="#000000" fill-rule="nonzero" fill-opacity="1" /><path clip-path="url(#clip610)" d="M1900.57 1466.95 Q1903.93 1467.66 1905.8 1469.93 Q1907.7 1472.2 1907.7 1475.53 Q1907.7 1480.65 1904.18 1483.45 Q1900.66 1486.25 1894.18 1486.25 Q1892.01 1486.25 1889.69 1485.81 Q1887.4 1485.39 1884.95 1484.54 L1884.95 1480.02 Q1886.89 1481.16 1889.2 1481.74 Q1891.52 1482.32 1894.04 1482.32 Q1898.44 1482.32 1900.73 1480.58 Q1903.05 1478.84 1903.05 1475.53 Q1903.05 1472.48 1900.89 1470.77 Q1898.76 1469.03 1894.95 1469.03 L1890.92 1469.03 L1890.92 1465.19 L1895.13 1465.19 Q1898.58 1465.19 1900.41 1463.82 Q1902.24 1462.43 1902.24 1459.84 Q1902.24 1457.18 1900.34 1455.77 Q1898.46 1454.33 1894.95 1454.33 Q1893.02 1454.33 1890.83 1454.75 Q1888.63 1455.16 1885.99 1456.04 L1885.99 1451.88 Q1888.65 1451.14 1890.96 1450.77 Q1893.3 1450.39 1895.36 1450.39 Q1900.69 1450.39 1903.79 1452.83 Q1906.89 1455.23 1906.89 1459.35 Q1906.89 1462.22 1905.25 1464.21 Q1903.6 1466.18 1900.57 1466.95 Z" fill="#000000" fill-rule="nonzero" fill-opacity="1" /><path clip-path="url(#clip610)" d="M1926.57 1454.1 Q1922.95 1454.1 1921.13 1457.66 Q1919.32 1461.2 1919.32 1468.33 Q1919.32 1475.44 1921.13 1479.01 Q1922.95 1482.55 1926.57 1482.55 Q1930.2 1482.55 1932.01 1479.01 Q1933.83 1475.44 1933.83 1468.33 Q1933.83 1461.2 1932.01 1457.66 Q1930.2 1454.1 1926.57 1454.1 M1926.57 1450.39 Q1932.38 1450.39 1935.43 1455 Q1938.51 1459.58 1938.51 1468.33 Q1938.51 1477.06 1935.43 1481.67 Q1932.38 1486.25 1926.57 1486.25 Q1920.76 1486.25 1917.68 1481.67 Q1914.62 1477.06 1914.62 1468.33 Q1914.62 1459.58 1917.68 1455 Q1920.76 1450.39 1926.57 1450.39 Z" fill="#000000" fill-rule="nonzero" fill-opacity="1" /><path clip-path="url(#clip610)" d="M1956.73 1454.1 Q1953.12 1454.1 1951.29 1457.66 Q1949.48 1461.2 1949.48 1468.33 Q1949.48 1475.44 1951.29 1479.01 Q1953.12 1482.55 1956.73 1482.55 Q1960.36 1482.55 1962.17 1479.01 Q1964 1475.44 1964 1468.33 Q1964 1461.2 1962.17 1457.66 Q1960.36 1454.1 1956.73 1454.1 M1956.73 1450.39 Q1962.54 1450.39 1965.59 1455 Q1968.67 1459.58 1968.67 1468.33 Q1968.67 1477.06 1965.59 1481.67 Q1962.54 1486.25 1956.73 1486.25 Q1950.92 1486.25 1947.84 1481.67 Q1944.78 1477.06 1944.78 1468.33 Q1944.78 1459.58 1947.84 1455 Q1950.92 1450.39 1956.73 1450.39 Z" fill="#000000" fill-rule="nonzero" fill-opacity="1" /><path clip-path="url(#clip610)" d="M1299 1518.52 L1304.89 1518.52 L1304.89 1547.77 L1322.36 1532.4 L1329.84 1532.4 L1310.93 1549.07 L1330.63 1568.04 L1323 1568.04 L1304.89 1550.63 L1304.89 1568.04 L1299 1568.04 L1299 1518.52 Z" fill="#000000" fill-rule="nonzero" fill-opacity="1" /><polyline clip-path="url(#clip612)" style="stroke:#000000; stroke-linecap:round; stroke-linejoin:round; stroke-width:2; stroke-opacity:0.1; fill:none" points="276.876,1116.96 2352.76,1116.96 "/>
<polyline clip-path="url(#clip612)" style="stroke:#000000; stroke-linecap:round; stroke-linejoin:round; stroke-width:2; stroke-opacity:0.1; fill:none" points="276.876,687.645 2352.76,687.645 "/>
<polyline clip-path="url(#clip612)" style="stroke:#000000; stroke-linecap:round; stroke-linejoin:round; stroke-width:2; stroke-opacity:0.1; fill:none" points="276.876,258.327 2352.76,258.327 "/>
<polyline clip-path="url(#clip610)" style="stroke:#000000; stroke-linecap:round; stroke-linejoin:round; stroke-width:4; stroke-opacity:1; fill:none" points="276.876,1423.18 276.876,123.472 "/>
<polyline clip-path="url(#clip610)" style="stroke:#000000; stroke-linecap:round; stroke-linejoin:round; stroke-width:4; stroke-opacity:1; fill:none" points="276.876,1116.96 295.773,1116.96 "/>
<polyline clip-path="url(#clip610)" style="stroke:#000000; stroke-linecap:round; stroke-linejoin:round; stroke-width:4; stroke-opacity:1; fill:none" points="276.876,687.645 295.773,687.645 "/>
<polyline clip-path="url(#clip610)" style="stroke:#000000; stroke-linecap:round; stroke-linejoin:round; stroke-width:4; stroke-opacity:1; fill:none" points="276.876,258.327 295.773,258.327 "/>
<path clip-path="url(#clip610)" d="M114.931 1136.75 L122.57 1136.75 L122.57 1110.39 L114.26 1112.06 L114.26 1107.8 L122.524 1106.13 L127.2 1106.13 L127.2 1136.75 L134.839 1136.75 L134.839 1140.69 L114.931 1140.69 L114.931 1136.75 Z" fill="#000000" fill-rule="nonzero" fill-opacity="1" /><path clip-path="url(#clip610)" d="M154.283 1109.21 Q150.672 1109.21 148.843 1112.77 Q147.038 1116.31 147.038 1123.44 Q147.038 1130.55 148.843 1134.12 Q150.672 1137.66 154.283 1137.66 Q157.917 1137.66 159.723 1134.12 Q161.552 1130.55 161.552 1123.44 Q161.552 1116.31 159.723 1112.77 Q157.917 1109.21 154.283 1109.21 M154.283 1105.5 Q160.093 1105.5 163.149 1110.11 Q166.227 1114.69 166.227 1123.44 Q166.227 1132.17 163.149 1136.78 Q160.093 1141.36 154.283 1141.36 Q148.473 1141.36 145.394 1136.78 Q142.339 1132.17 142.339 1123.44 Q142.339 1114.69 145.394 1110.11 Q148.473 1105.5 154.283 1105.5 Z" fill="#000000" fill-rule="nonzero" fill-opacity="1" /><path clip-path="url(#clip610)" d="M166.227 1099.61 L190.339 1099.61 L190.339 1102.8 L166.227 1102.8 L166.227 1099.61 Z" fill="#000000" fill-rule="nonzero" fill-opacity="1" /><path clip-path="url(#clip610)" d="M199.197 1110.08 L205.404 1110.08 L205.404 1088.66 L198.652 1090.01 L198.652 1086.55 L205.366 1085.2 L209.166 1085.2 L209.166 1110.08 L215.372 1110.08 L215.372 1113.28 L199.197 1113.28 L199.197 1110.08 Z" fill="#000000" fill-rule="nonzero" fill-opacity="1" /><path clip-path="url(#clip610)" d="M231.171 1087.7 Q228.237 1087.7 226.751 1090.6 Q225.284 1093.47 225.284 1099.27 Q225.284 1105.04 226.751 1107.94 Q228.237 1110.82 231.171 1110.82 Q234.124 1110.82 235.591 1107.94 Q237.076 1105.04 237.076 1099.27 Q237.076 1093.47 235.591 1090.6 Q234.124 1087.7 231.171 1087.7 M231.171 1084.69 Q235.891 1084.69 238.374 1088.43 Q240.876 1092.16 240.876 1099.27 Q240.876 1106.36 238.374 1110.1 Q235.891 1113.82 231.171 1113.82 Q226.45 1113.82 223.949 1110.1 Q221.466 1106.36 221.466 1099.27 Q221.466 1092.16 223.949 1088.43 Q226.45 1084.69 231.171 1084.69 Z" fill="#000000" fill-rule="nonzero" fill-opacity="1" /><path clip-path="url(#clip610)" d="M140.247 707.437 L147.886 707.437 L147.886 681.072 L139.575 682.738 L139.575 678.479 L147.839 676.812 L152.515 676.812 L152.515 707.437 L160.154 707.437 L160.154 711.372 L140.247 711.372 L140.247 707.437 Z" fill="#000000" fill-rule="nonzero" fill-opacity="1" /><path clip-path="url(#clip610)" d="M179.598 679.891 Q175.987 679.891 174.159 683.456 Q172.353 686.998 172.353 694.127 Q172.353 701.234 174.159 704.798 Q175.987 708.34 179.598 708.34 Q183.233 708.34 185.038 704.798 Q186.867 701.234 186.867 694.127 Q186.867 686.998 185.038 683.456 Q183.233 679.891 179.598 679.891 M179.598 676.187 Q185.409 676.187 188.464 680.794 Q191.543 685.377 191.543 694.127 Q191.543 702.854 188.464 707.46 Q185.409 712.044 179.598 712.044 Q173.788 712.044 170.71 707.46 Q167.654 702.854 167.654 694.127 Q167.654 685.377 170.71 680.794 Q173.788 676.187 179.598 676.187 Z" fill="#000000" fill-rule="nonzero" fill-opacity="1" /><path clip-path="url(#clip610)" d="M191.543 670.289 L215.654 670.289 L215.654 673.486 L191.543 673.486 L191.543 670.289 Z" fill="#000000" fill-rule="nonzero" fill-opacity="1" /><path clip-path="url(#clip610)" d="M223.892 655.882 L238.807 655.882 L238.807 659.079 L227.372 659.079 L227.372 665.963 Q228.199 665.681 229.027 665.549 Q229.854 665.399 230.682 665.399 Q235.384 665.399 238.13 667.975 Q240.876 670.552 240.876 674.953 Q240.876 679.486 238.054 682.006 Q235.233 684.507 230.099 684.507 Q228.331 684.507 226.488 684.207 Q224.663 683.906 222.707 683.304 L222.707 679.486 Q224.4 680.407 226.205 680.859 Q228.011 681.31 230.023 681.31 Q233.277 681.31 235.177 679.599 Q237.076 677.887 237.076 674.953 Q237.076 672.019 235.177 670.308 Q233.277 668.596 230.023 668.596 Q228.5 668.596 226.977 668.935 Q225.472 669.273 223.892 669.988 L223.892 655.882 Z" fill="#000000" fill-rule="nonzero" fill-opacity="1" /><path clip-path="url(#clip610)" d="M170.17 278.12 L177.809 278.12 L177.809 251.754 L169.499 253.421 L169.499 249.162 L177.762 247.495 L182.438 247.495 L182.438 278.12 L190.077 278.12 L190.077 282.055 L170.17 282.055 L170.17 278.12 Z" fill="#000000" fill-rule="nonzero" fill-opacity="1" /><path clip-path="url(#clip610)" d="M209.522 250.574 Q205.91 250.574 204.082 254.138 Q202.276 257.68 202.276 264.81 Q202.276 271.916 204.082 275.481 Q205.91 279.023 209.522 279.023 Q213.156 279.023 214.961 275.481 Q216.79 271.916 216.79 264.81 Q216.79 257.68 214.961 254.138 Q213.156 250.574 209.522 250.574 M209.522 246.87 Q215.332 246.87 218.387 251.476 Q221.466 256.06 221.466 264.81 Q221.466 273.537 218.387 278.143 Q215.332 282.726 209.522 282.726 Q203.711 282.726 200.633 278.143 Q197.577 273.537 197.577 264.81 Q197.577 256.06 200.633 251.476 Q203.711 246.87 209.522 246.87 Z" fill="#000000" fill-rule="nonzero" fill-opacity="1" /><path clip-path="url(#clip610)" d="M231.171 229.066 Q228.237 229.066 226.751 231.962 Q225.284 234.84 225.284 240.633 Q225.284 246.407 226.751 249.303 Q228.237 252.181 231.171 252.181 Q234.124 252.181 235.591 249.303 Q237.076 246.407 237.076 240.633 Q237.076 234.84 235.591 231.962 Q234.124 229.066 231.171 229.066 M231.171 226.057 Q235.891 226.057 238.374 229.8 Q240.876 233.523 240.876 240.633 Q240.876 247.723 238.374 251.466 Q235.891 255.19 231.171 255.19 Q226.45 255.19 223.949 251.466 Q221.466 247.723 221.466 240.633 Q221.466 233.523 223.949 229.8 Q226.45 226.057 231.171 226.057 Z" fill="#000000" fill-rule="nonzero" fill-opacity="1" /><path clip-path="url(#clip610)" d="M32.4621 801.797 Q32.4621 806.507 36.1542 809.244 Q39.8145 811.982 46.212 811.982 Q52.6095 811.982 56.3017 809.276 Q59.9619 806.539 59.9619 801.797 Q59.9619 797.118 56.2698 794.381 Q52.5777 791.643 46.212 791.643 Q39.8781 791.643 36.186 794.381 Q32.4621 797.118 32.4621 801.797 M27.4968 801.797 Q27.4968 794.158 32.4621 789.797 Q37.4273 785.437 46.212 785.437 Q54.9649 785.437 59.9619 789.797 Q64.9272 794.158 64.9272 801.797 Q64.9272 809.467 59.9619 813.828 Q54.9649 818.156 46.212 818.156 Q37.4273 818.156 32.4621 813.828 Q27.4968 809.467 27.4968 801.797 Z" fill="#000000" fill-rule="nonzero" fill-opacity="1" /><path clip-path="url(#clip610)" d="M46.212 750.139 Q39.7508 750.139 36.0905 752.812 Q32.3984 755.454 32.3984 760.101 Q32.3984 764.748 36.0905 767.422 Q39.7508 770.064 46.212 770.064 Q52.6732 770.064 56.3653 767.422 Q60.0256 764.748 60.0256 760.101 Q60.0256 755.454 56.3653 752.812 Q52.6732 750.139 46.212 750.139 M33.7671 770.064 Q30.5842 768.218 29.0564 765.417 Q27.4968 762.584 27.4968 758.669 Q27.4968 752.176 32.6531 748.134 Q37.8093 744.06 46.212 744.06 Q54.6147 744.06 59.771 748.134 Q64.9272 752.176 64.9272 758.669 Q64.9272 762.584 63.3994 765.417 Q61.8398 768.218 58.657 770.064 L64.0042 770.064 L64.0042 775.952 L14.479 775.952 L14.479 770.064 L33.7671 770.064 Z" fill="#000000" fill-rule="nonzero" fill-opacity="1" /><path clip-path="url(#clip610)" d="M28.3562 734.352 L28.3562 728.495 L64.6407 728.495 Q71.452 728.495 74.5076 731.105 Q77.5631 733.684 77.5631 739.445 L77.5631 741.673 L72.5979 741.673 L72.5979 740.113 Q72.5979 736.771 71.0383 735.561 Q69.5105 734.352 64.6407 734.352 L28.3562 734.352 M14.479 734.352 L14.479 728.495 L21.895 728.495 L21.895 734.352 L14.479 734.352 Z" fill="#000000" fill-rule="nonzero" fill-opacity="1" /><path clip-path="url(#clip610)" d="M970.955 65.7705 L970.955 89.8329 L963.461 89.8329 L963.461 27.2059 L970.955 27.2059 L970.955 34.0924 Q973.304 30.0415 976.869 28.0971 Q980.474 26.1121 985.457 26.1121 Q993.721 26.1121 998.865 32.6746 Q1004.05 39.2371 1004.05 49.9314 Q1004.05 60.6258 998.865 67.1883 Q993.721 73.7508 985.457 73.7508 Q980.474 73.7508 976.869 71.8063 Q973.304 69.8214 970.955 65.7705 M996.313 49.9314 Q996.313 41.7081 992.911 37.0496 Q989.548 32.3505 983.634 32.3505 Q977.72 32.3505 974.317 37.0496 Q970.955 41.7081 970.955 49.9314 Q970.955 58.1548 974.317 62.8538 Q977.72 67.5124 983.634 67.5124 Q989.548 67.5124 992.911 62.8538 Q996.313 58.1548 996.313 49.9314 Z" fill="#000000" fill-rule="nonzero" fill-opacity="1" /><path clip-path="url(#clip610)" d="M1042.7 34.1734 Q1041.44 33.4443 1039.94 33.1202 Q1038.48 32.7556 1036.7 32.7556 Q1030.38 32.7556 1026.98 36.8875 Q1023.62 40.9789 1023.62 48.6757 L1023.62 72.576 L1016.12 72.576 L1016.12 27.2059 L1023.62 27.2059 L1023.62 34.2544 Q1025.97 30.1225 1029.73 28.1376 Q1033.5 26.1121 1038.89 26.1121 Q1039.66 26.1121 1040.59 26.2337 Q1041.52 26.3147 1042.66 26.5172 L1042.7 34.1734 Z" fill="#000000" fill-rule="nonzero" fill-opacity="1" /><path clip-path="url(#clip610)" d="M1066.27 32.4315 Q1060.28 32.4315 1056.79 37.1306 Q1053.31 41.7891 1053.31 49.9314 Q1053.31 58.0738 1056.75 62.7728 Q1060.24 67.4314 1066.27 67.4314 Q1072.23 67.4314 1075.71 62.7323 Q1079.19 58.0333 1079.19 49.9314 Q1079.19 41.8701 1075.71 37.1711 Q1072.23 32.4315 1066.27 32.4315 M1066.27 26.1121 Q1075.99 26.1121 1081.54 32.4315 Q1087.09 38.7509 1087.09 49.9314 Q1087.09 61.0714 1081.54 67.4314 Q1075.99 73.7508 1066.27 73.7508 Q1056.51 73.7508 1050.96 67.4314 Q1045.45 61.0714 1045.45 49.9314 Q1045.45 38.7509 1050.96 32.4315 Q1056.51 26.1121 1066.27 26.1121 Z" fill="#000000" fill-rule="nonzero" fill-opacity="1" /><path clip-path="url(#clip610)" d="M1132.02 49.9314 Q1132.02 41.7081 1128.62 37.0496 Q1125.25 32.3505 1119.34 32.3505 Q1113.43 32.3505 1110.02 37.0496 Q1106.66 41.7081 1106.66 49.9314 Q1106.66 58.1548 1110.02 62.8538 Q1113.43 67.5124 1119.34 67.5124 Q1125.25 67.5124 1128.62 62.8538 Q1132.02 58.1548 1132.02 49.9314 M1106.66 34.0924 Q1109.01 30.0415 1112.57 28.0971 Q1116.18 26.1121 1121.16 26.1121 Q1129.43 26.1121 1134.57 32.6746 Q1139.76 39.2371 1139.76 49.9314 Q1139.76 60.6258 1134.57 67.1883 Q1129.43 73.7508 1121.16 73.7508 Q1116.18 73.7508 1112.57 71.8063 Q1109.01 69.8214 1106.66 65.7705 L1106.66 72.576 L1099.17 72.576 L1099.17 9.54393 L1106.66 9.54393 L1106.66 34.0924 Z" fill="#000000" fill-rule="nonzero" fill-opacity="1" /><path clip-path="url(#clip610)" d="M1152.11 9.54393 L1159.56 9.54393 L1159.56 72.576 L1152.11 72.576 L1152.11 9.54393 Z" fill="#000000" fill-rule="nonzero" fill-opacity="1" /><path clip-path="url(#clip610)" d="M1213.97 48.0275 L1213.97 51.6733 L1179.7 51.6733 Q1180.18 59.3701 1184.32 63.421 Q1188.49 67.4314 1195.9 67.4314 Q1200.2 67.4314 1204.21 66.3781 Q1208.26 65.3249 1212.23 63.2184 L1212.23 70.267 Q1208.22 71.9684 1204 72.8596 Q1199.79 73.7508 1195.46 73.7508 Q1184.6 73.7508 1178.24 67.4314 Q1171.92 61.1119 1171.92 50.3365 Q1171.92 39.1965 1177.92 32.6746 Q1183.95 26.1121 1194.16 26.1121 Q1203.31 26.1121 1208.62 32.0264 Q1213.97 37.9003 1213.97 48.0275 M1206.51 45.84 Q1206.43 39.7232 1203.07 36.0774 Q1199.75 32.4315 1194.24 32.4315 Q1188 32.4315 1184.23 35.9558 Q1180.51 39.4801 1179.94 45.8805 L1206.51 45.84 M1187.84 6.22219 L1199.26 21.3726 L1193.07 21.3726 L1179.86 6.22219 L1187.84 6.22219 Z" fill="#000000" fill-rule="nonzero" fill-opacity="1" /><path clip-path="url(#clip610)" d="M1261.53 35.9153 Q1264.32 30.8922 1268.21 28.5022 Q1272.1 26.1121 1277.37 26.1121 Q1284.45 26.1121 1288.3 31.0947 Q1292.15 36.0368 1292.15 45.1919 L1292.15 72.576 L1284.66 72.576 L1284.66 45.4349 Q1284.66 38.913 1282.35 35.7533 Q1280.04 32.5936 1275.3 32.5936 Q1269.51 32.5936 1266.14 36.4419 Q1262.78 40.2903 1262.78 46.9338 L1262.78 72.576 L1255.29 72.576 L1255.29 45.4349 Q1255.29 38.8725 1252.98 35.7533 Q1250.67 32.5936 1245.85 32.5936 Q1240.14 32.5936 1236.78 36.4824 Q1233.41 40.3308 1233.41 46.9338 L1233.41 72.576 L1225.92 72.576 L1225.92 27.2059 L1233.41 27.2059 L1233.41 34.2544 Q1235.96 30.082 1239.53 28.0971 Q1243.09 26.1121 1248 26.1121 Q1252.94 26.1121 1256.38 28.6237 Q1259.87 31.1352 1261.53 35.9153 Z" fill="#000000" fill-rule="nonzero" fill-opacity="1" /><path clip-path="url(#clip610)" d="M1345.83 48.0275 L1345.83 51.6733 L1311.55 51.6733 Q1312.04 59.3701 1316.17 63.421 Q1320.35 67.4314 1327.76 67.4314 Q1332.05 67.4314 1336.06 66.3781 Q1340.11 65.3249 1344.08 63.2184 L1344.08 70.267 Q1340.07 71.9684 1335.86 72.8596 Q1331.65 73.7508 1327.31 73.7508 Q1316.46 73.7508 1310.1 67.4314 Q1303.78 61.1119 1303.78 50.3365 Q1303.78 39.1965 1309.77 32.6746 Q1315.81 26.1121 1326.02 26.1121 Q1335.17 26.1121 1340.48 32.0264 Q1345.83 37.9003 1345.83 48.0275 M1338.37 45.84 Q1338.29 39.7232 1334.93 36.0774 Q1331.61 32.4315 1326.1 32.4315 Q1319.86 32.4315 1316.09 35.9558 Q1312.36 39.4801 1311.8 45.8805 L1338.37 45.84 Z" fill="#000000" fill-rule="nonzero" fill-opacity="1" /><path clip-path="url(#clip610)" d="M1386.33 62.2867 L1394.88 62.2867 L1394.88 72.576 L1386.33 72.576 L1386.33 62.2867 M1386.33 29.6769 L1394.88 29.6769 L1394.88 39.9662 L1386.33 39.9662 L1386.33 29.6769 Z" fill="#000000" fill-rule="nonzero" fill-opacity="1" /><path clip-path="url(#clip610)" d="M1446.13 14.324 L1446.13 27.2059 L1461.48 27.2059 L1461.48 32.9987 L1446.13 32.9987 L1446.13 57.6282 Q1446.13 63.1779 1447.62 64.7578 Q1449.16 66.3376 1453.82 66.3376 L1461.48 66.3376 L1461.48 72.576 L1453.82 72.576 Q1445.19 72.576 1441.91 69.3758 Q1438.63 66.1351 1438.63 57.6282 L1438.63 32.9987 L1433.16 32.9987 L1433.16 27.2059 L1438.63 27.2059 L1438.63 14.324 L1446.13 14.324 Z" fill="#000000" fill-rule="nonzero" fill-opacity="1" /><path clip-path="url(#clip610)" d="M1478.49 65.7705 L1478.49 89.8329 L1471 89.8329 L1471 27.2059 L1478.49 27.2059 L1478.49 34.0924 Q1480.84 30.0415 1484.41 28.0971 Q1488.01 26.1121 1492.99 26.1121 Q1501.26 26.1121 1506.4 32.6746 Q1511.59 39.2371 1511.59 49.9314 Q1511.59 60.6258 1506.4 67.1883 Q1501.26 73.7508 1492.99 73.7508 Q1488.01 73.7508 1484.41 71.8063 Q1480.84 69.8214 1478.49 65.7705 M1503.85 49.9314 Q1503.85 41.7081 1500.45 37.0496 Q1497.09 32.3505 1491.17 32.3505 Q1485.26 32.3505 1481.85 37.0496 Q1478.49 41.7081 1478.49 49.9314 Q1478.49 58.1548 1481.85 62.8538 Q1485.26 67.5124 1491.17 67.5124 Q1497.09 67.5124 1500.45 62.8538 Q1503.85 58.1548 1503.85 49.9314 Z" fill="#000000" fill-rule="nonzero" fill-opacity="1" /><path clip-path="url(#clip610)" d="M1532.05 65.6895 L1560.6 65.6895 L1560.6 72.576 L1522.2 72.576 L1522.2 65.6895 Q1526.86 60.8689 1534.88 52.7671 Q1542.94 44.6248 1545.01 42.2752 Q1548.94 37.8598 1550.48 34.8216 Q1552.06 31.7429 1552.06 28.7857 Q1552.06 23.9651 1548.65 20.927 Q1545.29 17.8888 1539.86 17.8888 Q1536.02 17.8888 1531.72 19.2256 Q1527.47 20.5624 1522.61 23.2765 L1522.61 15.0127 Q1527.55 13.0277 1531.84 12.015 Q1536.14 11.0023 1539.7 11.0023 Q1549.1 11.0023 1554.69 15.7013 Q1560.28 20.4004 1560.28 28.2591 Q1560.28 31.9859 1558.86 35.3482 Q1557.49 38.6699 1553.8 43.2069 Q1552.79 44.3817 1547.36 50.0125 Q1541.93 55.6027 1532.05 65.6895 Z" fill="#000000" fill-rule="nonzero" fill-opacity="1" /><path clip-path="url(#clip610)" d="M1595.28 43.8551 Q1589.45 43.8551 1586.08 46.9743 Q1582.76 50.0935 1582.76 55.5622 Q1582.76 61.0309 1586.08 64.1501 Q1589.45 67.2693 1595.28 67.2693 Q1601.11 67.2693 1604.48 64.1501 Q1607.84 60.9904 1607.84 55.5622 Q1607.84 50.0935 1604.48 46.9743 Q1601.15 43.8551 1595.28 43.8551 M1587.1 40.3713 Q1581.83 39.075 1578.87 35.4697 Q1575.96 31.8644 1575.96 26.6793 Q1575.96 19.4281 1581.1 15.2152 Q1586.29 11.0023 1595.28 11.0023 Q1604.31 11.0023 1609.46 15.2152 Q1614.6 19.4281 1614.6 26.6793 Q1614.6 31.8644 1611.65 35.4697 Q1608.73 39.075 1603.5 40.3713 Q1609.42 41.7486 1612.7 45.759 Q1616.02 49.7694 1616.02 55.5622 Q1616.02 64.3527 1610.63 69.0517 Q1605.29 73.7508 1595.28 73.7508 Q1585.27 73.7508 1579.89 69.0517 Q1574.54 64.3527 1574.54 55.5622 Q1574.54 49.7694 1577.86 45.759 Q1581.18 41.7486 1587.1 40.3713 M1584.1 27.4489 Q1584.1 32.148 1587.02 34.7811 Q1589.97 37.4142 1595.28 37.4142 Q1600.55 37.4142 1603.5 34.7811 Q1606.5 32.148 1606.5 27.4489 Q1606.5 22.7499 1603.5 20.1168 Q1600.55 17.4837 1595.28 17.4837 Q1589.97 17.4837 1587.02 20.1168 Q1584.1 22.7499 1584.1 27.4489 Z" fill="#000000" fill-rule="nonzero" fill-opacity="1" /><path clip-path="url(#clip610)" d="M1637.61 65.6895 L1666.17 65.6895 L1666.17 72.576 L1627.77 72.576 L1627.77 65.6895 Q1632.43 60.8689 1640.45 52.7671 Q1648.51 44.6248 1650.57 42.2752 Q1654.5 37.8598 1656.04 34.8216 Q1657.62 31.7429 1657.62 28.7857 Q1657.62 23.9651 1654.22 20.927 Q1650.86 17.8888 1645.43 17.8888 Q1641.58 17.8888 1637.29 19.2256 Q1633.03 20.5624 1628.17 23.2765 L1628.17 15.0127 Q1633.12 13.0277 1637.41 12.015 Q1641.7 11.0023 1645.27 11.0023 Q1654.67 11.0023 1660.26 15.7013 Q1665.85 20.4004 1665.85 28.2591 Q1665.85 31.9859 1664.43 35.3482 Q1663.05 38.6699 1659.37 43.2069 Q1658.35 44.3817 1652.92 50.0125 Q1647.5 55.6027 1637.61 65.6895 Z" fill="#000000" fill-rule="nonzero" fill-opacity="1" /><polyline clip-path="url(#clip612)" style="stroke:#009af9; stroke-linecap:round; stroke-linejoin:round; stroke-width:4; stroke-opacity:1; fill:none" points="335.627,160.256 340.949,195.535 346.27,227.983 351.592,238.947 356.914,239.536 362.235,239.828 367.557,239.828 372.879,239.828 378.2,239.828 383.522,239.828 388.844,239.828 394.165,239.828 399.487,239.828 404.809,241.029 410.13,246.345 415.452,246.345 420.774,248.585 426.095,250.929 431.417,253.18 436.739,254.964 442.06,256.414 447.382,257.492 452.704,258.181 458.025,258.793 463.347,259.106 468.669,259.36 473.99,259.543 479.312,259.652 484.634,259.739 489.956,259.804 495.277,259.85 500.599,259.877 505.921,259.9 511.242,259.911 516.564,259.928 521.886,259.937 527.207,259.95 532.529,259.956 537.851,259.966 543.172,259.972 548.494,259.979 553.816,259.984 559.137,259.99 564.459,259.995 569.781,259.999 575.102,260.003 580.424,260.007 585.746,260.01 591.067,260.014 596.389,260.017 601.711,260.02 607.032,260.022 612.354,260.025 617.676,260.027 622.997,260.029 628.319,260.031 633.641,260.033 638.963,260.035 644.284,260.037 649.606,260.039 654.928,260.04 660.249,260.042 665.571,260.043 670.893,260.045 676.214,260.046 681.536,260.047 686.858,260.049 692.179,260.05 697.501,260.051 702.823,260.052 708.144,260.053 713.466,260.054 718.788,260.055 724.109,260.056 729.431,260.057 734.753,260.058 740.074,260.059 745.396,260.059 750.718,260.06 756.039,260.061 761.361,260.062 766.683,260.062 772.004,260.063 777.326,260.064 782.648,260.064 787.97,260.065 793.291,260.066 798.613,260.066 803.935,260.067 809.256,260.067 814.578,260.068 819.9,260.069 825.221,260.069 830.543,260.07 835.865,260.07 841.186,260.071 846.508,260.071 851.83,260.071 857.151,260.072 862.473,260.072 867.795,260.073 873.116,260.073 878.438,260.073 883.76,260.074 889.081,260.074 894.403,260.075 899.725,260.075 905.046,260.075 910.368,260.076 915.69,260.076 921.011,260.076 926.333,260.077 931.655,260.077 936.977,260.077 942.298,260.078 947.62,260.078 952.942,260.078 958.263,260.079 963.585,260.079 968.907,260.079 974.228,260.08 979.55,260.08 984.872,260.08 990.193,260.08 995.515,260.081 1000.84,260.081 1006.16,260.081 1011.48,260.081 1016.8,260.081 1022.12,260.082 1027.45,260.082 1032.77,260.082 1038.09,260.082 1043.41,260.083 1048.73,260.083 1054.05,260.083 1059.38,260.083 1064.7,260.083 1070.02,260.083 1075.34,260.084 1080.66,260.084 1085.98,260.084 1091.31,260.084 1096.63,260.084 1101.95,260.085 1107.27,260.085 1112.59,260.085 1117.91,260.085 1123.24,260.085 1128.56,260.085 1133.88,260.085 1139.2,260.086 1144.52,260.086 1149.84,260.086 1155.17,260.086 1160.49,260.086 1165.81,260.086 1171.13,260.086 1176.45,260.087 1181.77,260.087 1187.1,260.087 1192.42,260.087 1197.74,260.087 1203.06,260.087 1208.38,260.087 1213.7,260.088 1219.03,260.088 1224.35,260.088 1229.67,260.088 1234.99,260.088 1240.31,260.088 1245.63,260.088 1250.96,260.088 1256.28,260.088 1261.6,260.089 1266.92,260.089 1272.24,260.089 1277.56,260.089 1282.89,260.089 1288.21,260.089 1293.53,260.089 1298.85,260.089 1304.17,260.089 1309.49,260.089 1314.82,260.09 1320.14,260.09 1325.46,260.09 1330.78,260.09 1336.1,260.09 1341.42,260.09 1346.75,260.09 1352.07,260.09 1357.39,260.09 1362.71,260.09 1368.03,260.09 1373.35,260.091 1378.68,260.091 1384,260.091 1389.32,260.091 1394.64,260.091 1399.96,260.091 1405.28,260.091 1410.61,260.091 1415.93,260.091 1421.25,260.091 1426.57,260.091 1431.89,260.091 1437.21,260.091 1442.54,260.092 1447.86,260.092 1453.18,260.092 1458.5,260.092 1463.82,260.092 1469.14,260.092 1474.47,260.092 1479.79,260.092 1485.11,260.092 1490.43,260.092 1495.75,260.092 1501.07,260.092 1506.4,260.092 1511.72,260.093 1517.04,260.093 1522.36,260.093 1527.68,260.093 1533,260.093 1538.33,260.093 1543.65,260.093 1548.97,260.093 1554.29,260.093 1559.61,260.093 1564.93,260.093 1570.26,260.093 1575.58,260.093 1580.9,260.093 1586.22,260.093 1591.54,260.093 1596.86,260.094 1602.19,260.094 1607.51,260.094 1612.83,260.094 1618.15,260.094 1623.47,260.094 1628.79,260.094 1634.12,260.094 1639.44,260.094 1644.76,260.094 1650.08,260.094 1655.4,260.094 1660.72,260.094 1666.05,260.094 1671.37,260.094 1676.69,260.095 1682.01,260.095 1687.33,260.095 1692.65,260.095 1697.98,260.095 1703.3,260.095 1708.62,260.095 1713.94,260.095 1719.26,260.095 1724.58,260.095 1729.91,260.095 1735.23,260.095 1740.55,260.095 1745.87,260.095 1751.19,260.095 1756.52,260.095 1761.84,260.096 1767.16,260.096 1772.48,260.096 1777.8,260.096 1783.12,260.096 1788.45,260.096 1793.77,260.096 1799.09,260.096 1804.41,260.096 1809.73,260.096 1815.05,260.096 1820.38,260.096 1825.7,260.096 1831.02,260.096 1836.34,260.097 1841.66,260.097 1846.98,260.097 1852.31,260.097 1857.63,260.097 1862.95,260.097 1868.27,260.097 1873.59,260.097 1878.91,260.097 1884.24,260.097 1889.56,260.097 1894.88,260.097 1900.2,260.097 1905.52,260.098 1910.84,260.098 1916.17,260.098 1921.49,260.098 1926.81,260.098 1932.13,260.098 1937.45,260.098 1942.77,260.098 1948.1,260.098 1953.42,260.098 1958.74,260.099 1964.06,260.099 1969.38,260.099 1974.7,260.099 1980.03,260.099 1985.35,260.099 1990.67,260.099 1995.99,260.099 2001.31,260.1 2006.63,260.1 2011.96,260.1 2017.28,260.1 2022.6,260.1 2027.92,260.1 2033.24,260.101 2038.56,260.101 2043.89,260.101 2049.21,260.101 2054.53,260.101 2059.85,260.102 2065.17,260.102 2070.49,260.102 2075.82,260.102 2081.14,260.103 2086.46,260.103 2091.78,260.103 2097.1,260.104 2102.42,260.104 2107.75,260.104 2113.07,260.105 2118.39,260.105 2123.71,260.106 2129.03,260.106 2134.35,260.107 2139.68,260.108 2145,260.109 2150.32,260.109 2155.64,260.11 2160.96,260.111 2166.28,260.113 2171.61,260.114 2176.93,260.116 2182.25,260.118 2187.57,260.12 2192.89,260.123 2198.21,260.127 2203.54,260.131 2208.86,260.137 2214.18,260.145 2219.5,260.157 2224.82,260.171 2230.14,260.2 2235.47,260.238 2240.79,260.344 2246.11,260.507 2251.43,260.786 2256.75,261.41 2262.07,263.031 2267.4,267.475 2272.72,277.585 2278.04,285.46 2283.36,466.042 2288.68,772.994 2294,1386.4 "/>
<polyline clip-path="url(#clip612)" style="stroke:#e26f46; stroke-linecap:round; stroke-linejoin:round; stroke-width:4; stroke-opacity:1; fill:none" points="335.627,160.256 340.949,195.535 346.27,227.983 351.592,238.947 356.914,239.536 362.235,239.828 367.557,239.828 372.879,239.828 378.2,239.828 383.522,239.828 388.844,239.828 394.165,239.828 399.487,239.828 404.809,241.029 410.13,246.345 415.452,246.345 420.774,248.585 426.095,250.929 431.417,253.18 436.739,254.964 442.06,256.414 447.382,257.492 452.704,258.181 458.025,258.793 463.347,259.106 468.669,259.36 473.99,259.543 479.312,259.652 484.634,259.739 489.956,259.804 495.277,259.85 500.599,259.877 505.921,259.9 511.242,259.911 516.564,259.928 521.886,259.937 527.207,259.95 532.529,259.956 537.851,259.966 543.172,259.972 548.494,259.979 553.816,259.984 559.137,259.99 564.459,259.995 569.781,259.999 575.102,260.003 580.424,260.007 585.746,260.01 591.067,260.014 596.389,260.017 601.711,260.02 607.032,260.022 612.354,260.025 617.676,260.027 622.997,260.029 628.319,260.031 633.641,260.033 638.963,260.035 644.284,260.037 649.606,260.039 654.928,260.04 660.249,260.042 665.571,260.043 670.893,260.045 676.214,260.046 681.536,260.047 686.858,260.049 692.179,260.05 697.501,260.051 702.823,260.052 708.144,260.053 713.466,260.054 718.788,260.055 724.109,260.056 729.431,260.057 734.753,260.058 740.074,260.059 745.396,260.059 750.718,260.06 756.039,260.061 761.361,260.062 766.683,260.062 772.004,260.063 777.326,260.064 782.648,260.064 787.97,260.065 793.291,260.066 798.613,260.066 803.935,260.067 809.256,260.067 814.578,260.068 819.9,260.069 825.221,260.069 830.543,260.07 835.865,260.07 841.186,260.071 846.508,260.071 851.83,260.071 857.151,260.072 862.473,260.072 867.795,260.073 873.116,260.073 878.438,260.073 883.76,260.074 889.081,260.074 894.403,260.075 899.725,260.075 905.046,260.075 910.368,260.076 915.69,260.076 921.011,260.076 926.333,260.077 931.655,260.077 936.977,260.077 942.298,260.078 947.62,260.078 952.942,260.078 958.263,260.079 963.585,260.079 968.907,260.079 974.228,260.08 979.55,260.08 984.872,260.08 990.193,260.08 995.515,260.081 1000.84,260.081 1006.16,260.081 1011.48,260.081 1016.8,260.081 1022.12,260.082 1027.45,260.082 1032.77,260.082 1038.09,260.082 1043.41,260.083 1048.73,260.083 1054.05,260.083 1059.38,260.083 1064.7,260.083 1070.02,260.083 1075.34,260.084 1080.66,260.084 1085.98,260.084 1091.31,260.084 1096.63,260.084 1101.95,260.085 1107.27,260.085 1112.59,260.085 1117.91,260.085 1123.24,260.085 1128.56,260.085 1133.88,260.085 1139.2,260.086 1144.52,260.086 1149.84,260.086 1155.17,260.086 1160.49,260.086 1165.81,260.086 1171.13,260.086 1176.45,260.087 1181.77,260.087 1187.1,260.087 1192.42,260.087 1197.74,260.087 1203.06,260.087 1208.38,260.087 1213.7,260.088 1219.03,260.088 1224.35,260.088 1229.67,260.088 1234.99,260.088 1240.31,260.088 1245.63,260.088 1250.96,260.088 1256.28,260.088 1261.6,260.089 1266.92,260.089 1272.24,260.089 1277.56,260.089 1282.89,260.089 1288.21,260.089 1293.53,260.089 1298.85,260.089 1304.17,260.089 1309.49,260.089 1314.82,260.09 1320.14,260.09 1325.46,260.09 1330.78,260.09 1336.1,260.09 1341.42,260.09 1346.75,260.09 1352.07,260.09 1357.39,260.09 1362.71,260.09 1368.03,260.09 1373.35,260.091 1378.68,260.091 1384,260.091 1389.32,260.091 1394.64,260.091 1399.96,260.091 1405.28,260.091 1410.61,260.091 1415.93,260.091 1421.25,260.091 1426.57,260.091 1431.89,260.091 1437.21,260.091 1442.54,260.092 1447.86,260.092 1453.18,260.092 1458.5,260.092 1463.82,260.092 1469.14,260.092 1474.47,260.092 1479.79,260.092 1485.11,260.092 1490.43,260.092 1495.75,260.092 1501.07,260.092 1506.4,260.092 1511.72,260.093 1517.04,260.093 1522.36,260.093 1527.68,260.093 1533,260.093 1538.33,260.093 1543.65,260.093 1548.97,260.093 1554.29,260.093 1559.61,260.093 1564.93,260.093 1570.26,260.093 1575.58,260.093 1580.9,260.093 1586.22,260.093 1591.54,260.093 1596.86,260.094 1602.19,260.094 1607.51,260.094 1612.83,260.094 1618.15,260.094 1623.47,260.094 1628.79,260.094 1634.12,260.094 1639.44,260.094 1644.76,260.094 1650.08,260.094 1655.4,260.094 1660.72,260.094 1666.05,260.094 1671.37,260.094 1676.69,260.095 1682.01,260.095 1687.33,260.095 1692.65,260.095 1697.98,260.095 1703.3,260.095 1708.62,260.095 1713.94,260.095 1719.26,260.095 1724.58,260.095 1729.91,260.095 1735.23,260.095 1740.55,260.095 1745.87,260.095 1751.19,260.095 1756.52,260.095 1761.84,260.096 1767.16,260.096 1772.48,260.096 1777.8,260.096 1783.12,260.096 1788.45,260.096 1793.77,260.096 1799.09,260.096 1804.41,260.096 1809.73,260.096 1815.05,260.096 1820.38,260.096 1825.7,260.096 1831.02,260.096 1836.34,260.097 1841.66,260.097 1846.98,260.097 1852.31,260.097 1857.63,260.097 1862.95,260.097 1868.27,260.097 1873.59,260.097 1878.91,260.097 1884.24,260.097 1889.56,260.097 1894.88,260.097 1900.2,260.097 1905.52,260.098 1910.84,260.098 1916.17,260.098 1921.49,260.098 1926.81,260.098 1932.13,260.098 1937.45,260.098 1942.77,260.098 1948.1,260.098 1953.42,260.098 1958.74,260.099 1964.06,260.099 1969.38,260.099 1974.7,260.099 1980.03,260.099 1985.35,260.099 1990.67,260.099 1995.99,260.099 2001.31,260.1 2006.63,260.1 2011.96,260.1 2017.28,260.1 2022.6,260.1 2027.92,260.1 2033.24,260.101 2038.56,260.101 2043.89,260.101 2049.21,260.101 2054.53,260.101 2059.85,260.102 2065.17,260.102 2070.49,260.102 2075.82,260.102 2081.14,260.103 2086.46,260.103 2091.78,260.103 2097.1,260.104 2102.42,260.104 2107.75,260.104 2113.07,260.105 2118.39,260.105 2123.71,260.106 2129.03,260.106 2134.35,260.107 2139.68,260.108 2145,260.109 2150.32,260.109 2155.64,260.11 2160.96,260.111 2166.28,260.113 2171.61,260.114 2176.93,260.116 2182.25,260.118 2187.57,260.12 2192.89,260.123 2198.21,260.127 2203.54,260.131 2208.86,260.137 2214.18,260.145 2219.5,260.157 2224.82,260.171 2230.14,260.2 2235.47,260.238 2240.79,260.344 2246.11,260.507 2251.43,260.786 2256.75,261.41 2262.07,263.031 2267.4,267.475 2272.72,277.585 2278.04,285.46 2283.36,466.042 2288.68,772.994 2294,1386.4 "/>
<path clip-path="url(#clip610)" d="M1504.4 322.316 L2283.56 322.316 L2283.56 166.796 L1504.4 166.796  Z" fill="#ffffff" fill-rule="evenodd" fill-opacity="1"/>
<polyline clip-path="url(#clip610)" style="stroke:#000000; stroke-linecap:round; stroke-linejoin:round; stroke-width:4; stroke-opacity:1; fill:none" points="1504.4,322.316 2283.56,322.316 2283.56,166.796 1504.4,166.796 1504.4,322.316 "/>
<polyline clip-path="url(#clip610)" style="stroke:#009af9; stroke-linecap:round; stroke-linejoin:round; stroke-width:4; stroke-opacity:1; fill:none" points="1527.47,218.636 1665.86,218.636 "/>
<path clip-path="url(#clip610)" d="M1688.92 201.356 L1693.6 201.356 L1693.6 231.981 L1710.43 231.981 L1710.43 235.916 L1688.92 235.916 L1688.92 201.356 Z" fill="#000000" fill-rule="nonzero" fill-opacity="1" /><path clip-path="url(#clip610)" d="M1715.34 201.356 L1722.3 201.356 L1731.12 224.874 L1739.99 201.356 L1746.96 201.356 L1746.96 235.916 L1742.4 235.916 L1742.4 205.569 L1733.48 229.272 L1728.78 229.272 L1719.87 205.569 L1719.87 235.916 L1715.34 235.916 L1715.34 201.356 Z" fill="#000000" fill-rule="nonzero" fill-opacity="1" /><path clip-path="url(#clip610)" d="M1775.75 243.786 L1775.75 247.096 L1751.12 247.096 L1751.12 243.786 L1775.75 243.786 Z" fill="#000000" fill-rule="nonzero" fill-opacity="1" /><path clip-path="url(#clip610)" d="M1791.49 205.962 L1785.15 223.161 L1797.86 223.161 L1791.49 205.962 M1788.85 201.356 L1794.15 201.356 L1807.33 235.916 L1802.46 235.916 L1799.32 227.05 L1783.74 227.05 L1780.59 235.916 L1775.66 235.916 L1788.85 201.356 Z" fill="#000000" fill-rule="nonzero" fill-opacity="1" /><path clip-path="url(#clip610)" d="M1833.74 220.268 L1833.74 235.916 L1829.48 235.916 L1829.48 220.407 Q1829.48 216.726 1828.04 214.897 Q1826.61 213.069 1823.74 213.069 Q1820.29 213.069 1818.3 215.268 Q1816.31 217.467 1816.31 221.263 L1816.31 235.916 L1812.02 235.916 L1812.02 209.99 L1816.31 209.99 L1816.31 214.018 Q1817.83 211.68 1819.9 210.522 Q1821.98 209.365 1824.69 209.365 Q1829.15 209.365 1831.45 212.143 Q1833.74 214.897 1833.74 220.268 Z" fill="#000000" fill-rule="nonzero" fill-opacity="1" /><path clip-path="url(#clip610)" d="M1859.29 213.925 L1859.29 199.897 L1863.55 199.897 L1863.55 235.916 L1859.29 235.916 L1859.29 232.027 Q1857.95 234.342 1855.89 235.476 Q1853.85 236.587 1850.98 236.587 Q1846.28 236.587 1843.32 232.837 Q1840.38 229.087 1840.38 222.976 Q1840.38 216.865 1843.32 213.115 Q1846.28 209.365 1850.98 209.365 Q1853.85 209.365 1855.89 210.499 Q1857.95 211.61 1859.29 213.925 M1844.78 222.976 Q1844.78 227.675 1846.7 230.36 Q1848.64 233.022 1852.02 233.022 Q1855.4 233.022 1857.35 230.36 Q1859.29 227.675 1859.29 222.976 Q1859.29 218.277 1857.35 215.615 Q1855.4 212.93 1852.02 212.93 Q1848.64 212.93 1846.7 215.615 Q1844.78 218.277 1844.78 222.976 Z" fill="#000000" fill-rule="nonzero" fill-opacity="1" /><path clip-path="url(#clip610)" d="M1887.35 213.971 Q1886.63 213.555 1885.77 213.37 Q1884.94 213.161 1883.92 213.161 Q1880.31 213.161 1878.37 215.522 Q1876.45 217.86 1876.45 222.258 L1876.45 235.916 L1872.16 235.916 L1872.16 209.99 L1876.45 209.99 L1876.45 214.018 Q1877.79 211.657 1879.94 210.522 Q1882.09 209.365 1885.17 209.365 Q1885.61 209.365 1886.14 209.434 Q1886.68 209.481 1887.33 209.596 L1887.35 213.971 Z" fill="#000000" fill-rule="nonzero" fill-opacity="1" /><path clip-path="url(#clip610)" d="M1912.95 221.888 L1912.95 223.971 L1893.37 223.971 Q1893.64 228.369 1896.01 230.684 Q1898.39 232.976 1902.63 232.976 Q1905.08 232.976 1907.37 232.374 Q1909.69 231.772 1911.95 230.569 L1911.95 234.596 Q1909.66 235.568 1907.26 236.078 Q1904.85 236.587 1902.37 236.587 Q1896.17 236.587 1892.53 232.976 Q1888.92 229.365 1888.92 223.207 Q1888.92 216.842 1892.35 213.115 Q1895.8 209.365 1901.63 209.365 Q1906.86 209.365 1909.89 212.745 Q1912.95 216.101 1912.95 221.888 M1908.69 220.638 Q1908.64 217.143 1906.72 215.059 Q1904.83 212.976 1901.68 212.976 Q1898.11 212.976 1895.96 214.99 Q1893.83 217.004 1893.51 220.661 L1908.69 220.638 Z" fill="#000000" fill-rule="nonzero" fill-opacity="1" /><path clip-path="url(#clip610)" d="M1919.94 209.99 L1924.2 209.99 L1924.2 235.916 L1919.94 235.916 L1919.94 209.99 M1919.94 199.897 L1924.2 199.897 L1924.2 205.291 L1919.94 205.291 L1919.94 199.897 Z" fill="#000000" fill-rule="nonzero" fill-opacity="1" /><path clip-path="url(#clip610)" d="M1952.81 243.786 L1952.81 247.096 L1928.18 247.096 L1928.18 243.786 L1952.81 243.786 Z" fill="#000000" fill-rule="nonzero" fill-opacity="1" /><path clip-path="url(#clip610)" d="M1968.6 222.883 Q1963.44 222.883 1961.45 224.064 Q1959.45 225.244 1959.45 228.092 Q1959.45 230.36 1960.94 231.703 Q1962.44 233.022 1965.01 233.022 Q1968.55 233.022 1970.68 230.522 Q1972.83 227.999 1972.83 223.832 L1972.83 222.883 L1968.6 222.883 M1977.09 221.124 L1977.09 235.916 L1972.83 235.916 L1972.83 231.981 Q1971.38 234.342 1969.2 235.476 Q1967.02 236.587 1963.88 236.587 Q1959.89 236.587 1957.53 234.365 Q1955.2 232.119 1955.2 228.369 Q1955.2 223.994 1958.11 221.772 Q1961.05 219.55 1966.86 219.55 L1972.83 219.55 L1972.83 219.133 Q1972.83 216.194 1970.89 214.596 Q1968.97 212.976 1965.47 212.976 Q1963.25 212.976 1961.14 213.508 Q1959.04 214.041 1957.09 215.106 L1957.09 211.17 Q1959.43 210.268 1961.63 209.828 Q1963.83 209.365 1965.91 209.365 Q1971.54 209.365 1974.32 212.282 Q1977.09 215.198 1977.09 221.124 Z" fill="#000000" fill-rule="nonzero" fill-opacity="1" /><path clip-path="url(#clip610)" d="M1985.87 199.897 L1990.13 199.897 L1990.13 235.916 L1985.87 235.916 L1985.87 199.897 Z" fill="#000000" fill-rule="nonzero" fill-opacity="1" /><path clip-path="url(#clip610)" d="M2003.25 202.629 L2003.25 209.99 L2012.02 209.99 L2012.02 213.3 L2003.25 213.3 L2003.25 227.374 Q2003.25 230.545 2004.11 231.448 Q2004.99 232.351 2007.65 232.351 L2012.02 232.351 L2012.02 235.916 L2007.65 235.916 Q2002.72 235.916 2000.84 234.087 Q1998.97 232.235 1998.97 227.374 L1998.97 213.3 L1995.84 213.3 L1995.84 209.99 L1998.97 209.99 L1998.97 202.629 L2003.25 202.629 Z" fill="#000000" fill-rule="nonzero" fill-opacity="1" /><polyline clip-path="url(#clip610)" style="stroke:#e26f46; stroke-linecap:round; stroke-linejoin:round; stroke-width:4; stroke-opacity:1; fill:none" points="1527.47,270.476 1665.86,270.476 "/>
<path clip-path="url(#clip610)" d="M1688.92 253.196 L1693.6 253.196 L1693.6 283.821 L1710.43 283.821 L1710.43 287.756 L1688.92 287.756 L1688.92 253.196 Z" fill="#000000" fill-rule="nonzero" fill-opacity="1" /><path clip-path="url(#clip610)" d="M1715.34 253.196 L1722.3 253.196 L1731.12 276.714 L1739.99 253.196 L1746.96 253.196 L1746.96 287.756 L1742.4 287.756 L1742.4 257.409 L1733.48 281.112 L1728.78 281.112 L1719.87 257.409 L1719.87 287.756 L1715.34 287.756 L1715.34 253.196 Z" fill="#000000" fill-rule="nonzero" fill-opacity="1" /><path clip-path="url(#clip610)" d="M1775.75 295.626 L1775.75 298.936 L1751.12 298.936 L1751.12 295.626 L1775.75 295.626 Z" fill="#000000" fill-rule="nonzero" fill-opacity="1" /><path clip-path="url(#clip610)" d="M1791.49 257.802 L1785.15 275.001 L1797.86 275.001 L1791.49 257.802 M1788.85 253.196 L1794.15 253.196 L1807.33 287.756 L1802.46 287.756 L1799.32 278.89 L1783.74 278.89 L1780.59 287.756 L1775.66 287.756 L1788.85 253.196 Z" fill="#000000" fill-rule="nonzero" fill-opacity="1" /><path clip-path="url(#clip610)" d="M1833.74 272.108 L1833.74 287.756 L1829.48 287.756 L1829.48 272.247 Q1829.48 268.566 1828.04 266.737 Q1826.61 264.909 1823.74 264.909 Q1820.29 264.909 1818.3 267.108 Q1816.31 269.307 1816.31 273.103 L1816.31 287.756 L1812.02 287.756 L1812.02 261.83 L1816.31 261.83 L1816.31 265.858 Q1817.83 263.52 1819.9 262.362 Q1821.98 261.205 1824.69 261.205 Q1829.15 261.205 1831.45 263.983 Q1833.74 266.737 1833.74 272.108 Z" fill="#000000" fill-rule="nonzero" fill-opacity="1" /><path clip-path="url(#clip610)" d="M1859.29 265.765 L1859.29 251.737 L1863.55 251.737 L1863.55 287.756 L1859.29 287.756 L1859.29 283.867 Q1857.95 286.182 1855.89 287.316 Q1853.85 288.427 1850.98 288.427 Q1846.28 288.427 1843.32 284.677 Q1840.38 280.927 1840.38 274.816 Q1840.38 268.705 1843.32 264.955 Q1846.28 261.205 1850.98 261.205 Q1853.85 261.205 1855.89 262.339 Q1857.95 263.45 1859.29 265.765 M1844.78 274.816 Q1844.78 279.515 1846.7 282.2 Q1848.64 284.862 1852.02 284.862 Q1855.4 284.862 1857.35 282.2 Q1859.29 279.515 1859.29 274.816 Q1859.29 270.117 1857.35 267.455 Q1855.4 264.77 1852.02 264.77 Q1848.64 264.77 1846.7 267.455 Q1844.78 270.117 1844.78 274.816 Z" fill="#000000" fill-rule="nonzero" fill-opacity="1" /><path clip-path="url(#clip610)" d="M1887.35 265.811 Q1886.63 265.395 1885.77 265.21 Q1884.94 265.001 1883.92 265.001 Q1880.31 265.001 1878.37 267.362 Q1876.45 269.7 1876.45 274.098 L1876.45 287.756 L1872.16 287.756 L1872.16 261.83 L1876.45 261.83 L1876.45 265.858 Q1877.79 263.497 1879.94 262.362 Q1882.09 261.205 1885.17 261.205 Q1885.61 261.205 1886.14 261.274 Q1886.68 261.321 1887.33 261.436 L1887.35 265.811 Z" fill="#000000" fill-rule="nonzero" fill-opacity="1" /><path clip-path="url(#clip610)" d="M1912.95 273.728 L1912.95 275.811 L1893.37 275.811 Q1893.64 280.209 1896.01 282.524 Q1898.39 284.816 1902.63 284.816 Q1905.08 284.816 1907.37 284.214 Q1909.69 283.612 1911.95 282.409 L1911.95 286.436 Q1909.66 287.408 1907.26 287.918 Q1904.85 288.427 1902.37 288.427 Q1896.17 288.427 1892.53 284.816 Q1888.92 281.205 1888.92 275.047 Q1888.92 268.682 1892.35 264.955 Q1895.8 261.205 1901.63 261.205 Q1906.86 261.205 1909.89 264.585 Q1912.95 267.941 1912.95 273.728 M1908.69 272.478 Q1908.64 268.983 1906.72 266.899 Q1904.83 264.816 1901.68 264.816 Q1898.11 264.816 1895.96 266.83 Q1893.83 268.844 1893.51 272.501 L1908.69 272.478 Z" fill="#000000" fill-rule="nonzero" fill-opacity="1" /><path clip-path="url(#clip610)" d="M1919.94 261.83 L1924.2 261.83 L1924.2 287.756 L1919.94 287.756 L1919.94 261.83 M1919.94 251.737 L1924.2 251.737 L1924.2 257.131 L1919.94 257.131 L1919.94 251.737 Z" fill="#000000" fill-rule="nonzero" fill-opacity="1" /><path clip-path="url(#clip610)" d="M1952.81 295.626 L1952.81 298.936 L1928.18 298.936 L1928.18 295.626 L1952.81 295.626 Z" fill="#000000" fill-rule="nonzero" fill-opacity="1" /><path clip-path="url(#clip610)" d="M1968.6 274.723 Q1963.44 274.723 1961.45 275.904 Q1959.45 277.084 1959.45 279.932 Q1959.45 282.2 1960.94 283.543 Q1962.44 284.862 1965.01 284.862 Q1968.55 284.862 1970.68 282.362 Q1972.83 279.839 1972.83 275.672 L1972.83 274.723 L1968.6 274.723 M1977.09 272.964 L1977.09 287.756 L1972.83 287.756 L1972.83 283.821 Q1971.38 286.182 1969.2 287.316 Q1967.02 288.427 1963.88 288.427 Q1959.89 288.427 1957.53 286.205 Q1955.2 283.959 1955.2 280.209 Q1955.2 275.834 1958.11 273.612 Q1961.05 271.39 1966.86 271.39 L1972.83 271.39 L1972.83 270.973 Q1972.83 268.034 1970.89 266.436 Q1968.97 264.816 1965.47 264.816 Q1963.25 264.816 1961.14 265.348 Q1959.04 265.881 1957.09 266.946 L1957.09 263.01 Q1959.43 262.108 1961.63 261.668 Q1963.83 261.205 1965.91 261.205 Q1971.54 261.205 1974.32 264.122 Q1977.09 267.038 1977.09 272.964 Z" fill="#000000" fill-rule="nonzero" fill-opacity="1" /><path clip-path="url(#clip610)" d="M1985.87 251.737 L1990.13 251.737 L1990.13 287.756 L1985.87 287.756 L1985.87 251.737 Z" fill="#000000" fill-rule="nonzero" fill-opacity="1" /><path clip-path="url(#clip610)" d="M2003.25 254.469 L2003.25 261.83 L2012.02 261.83 L2012.02 265.14 L2003.25 265.14 L2003.25 279.214 Q2003.25 282.385 2004.11 283.288 Q2004.99 284.191 2007.65 284.191 L2012.02 284.191 L2012.02 287.756 L2007.65 287.756 Q2002.72 287.756 2000.84 285.927 Q1998.97 284.075 1998.97 279.214 L1998.97 265.14 L1995.84 265.14 L1995.84 261.83 L1998.97 261.83 L1998.97 254.469 L2003.25 254.469 Z" fill="#000000" fill-rule="nonzero" fill-opacity="1" /><path clip-path="url(#clip610)" d="M2037.32 295.626 L2037.32 298.936 L2012.69 298.936 L2012.69 295.626 L2037.32 295.626 Z" fill="#000000" fill-rule="nonzero" fill-opacity="1" /><path clip-path="url(#clip610)" d="M2043.88 274.816 Q2043.88 279.515 2045.8 282.2 Q2047.74 284.862 2051.12 284.862 Q2054.5 284.862 2056.44 282.2 Q2058.39 279.515 2058.39 274.816 Q2058.39 270.117 2056.44 267.455 Q2054.5 264.77 2051.12 264.77 Q2047.74 264.77 2045.8 267.455 Q2043.88 270.117 2043.88 274.816 M2058.39 283.867 Q2057.05 286.182 2054.99 287.316 Q2052.95 288.427 2050.08 288.427 Q2045.38 288.427 2042.42 284.677 Q2039.48 280.927 2039.48 274.816 Q2039.48 268.705 2042.42 264.955 Q2045.38 261.205 2050.08 261.205 Q2052.95 261.205 2054.99 262.339 Q2057.05 263.45 2058.39 265.765 L2058.39 261.83 L2062.65 261.83 L2062.65 297.617 L2058.39 297.617 L2058.39 283.867 Z" fill="#000000" fill-rule="nonzero" fill-opacity="1" /><path clip-path="url(#clip610)" d="M2086.44 265.811 Q2085.73 265.395 2084.87 265.21 Q2084.04 265.001 2083.02 265.001 Q2079.41 265.001 2077.46 267.362 Q2075.54 269.7 2075.54 274.098 L2075.54 287.756 L2071.26 287.756 L2071.26 261.83 L2075.54 261.83 L2075.54 265.858 Q2076.88 263.497 2079.04 262.362 Q2081.19 261.205 2084.27 261.205 Q2084.71 261.205 2085.24 261.274 Q2085.77 261.321 2086.42 261.436 L2086.44 265.811 Z" fill="#000000" fill-rule="nonzero" fill-opacity="1" /><path clip-path="url(#clip610)" d="M2110.26 266.807 Q2111.86 263.936 2114.08 262.571 Q2116.31 261.205 2119.31 261.205 Q2123.37 261.205 2125.56 264.052 Q2127.76 266.876 2127.76 272.108 L2127.76 287.756 L2123.48 287.756 L2123.48 272.247 Q2123.48 268.52 2122.16 266.714 Q2120.84 264.909 2118.13 264.909 Q2114.82 264.909 2112.9 267.108 Q2110.98 269.307 2110.98 273.103 L2110.98 287.756 L2106.7 287.756 L2106.7 272.247 Q2106.7 268.497 2105.38 266.714 Q2104.06 264.909 2101.31 264.909 Q2098.04 264.909 2096.12 267.131 Q2094.2 269.33 2094.2 273.103 L2094.2 287.756 L2089.92 287.756 L2089.92 261.83 L2094.2 261.83 L2094.2 265.858 Q2095.66 263.473 2097.69 262.339 Q2099.73 261.205 2102.53 261.205 Q2105.36 261.205 2107.32 262.64 Q2109.31 264.075 2110.26 266.807 Z" fill="#000000" fill-rule="nonzero" fill-opacity="1" /><path clip-path="url(#clip610)" d="M2135.82 277.524 L2135.82 261.83 L2140.08 261.83 L2140.08 277.362 Q2140.08 281.043 2141.51 282.895 Q2142.95 284.723 2145.82 284.723 Q2149.27 284.723 2151.26 282.524 Q2153.27 280.325 2153.27 276.529 L2153.27 261.83 L2157.53 261.83 L2157.53 287.756 L2153.27 287.756 L2153.27 283.774 Q2151.72 286.135 2149.66 287.293 Q2147.62 288.427 2144.92 288.427 Q2140.45 288.427 2138.13 285.649 Q2135.82 282.871 2135.82 277.524 M2146.54 261.205 L2146.54 261.205 Z" fill="#000000" fill-rule="nonzero" fill-opacity="1" /><path clip-path="url(#clip610)" d="M2186.49 266.807 Q2188.09 263.936 2190.31 262.571 Q2192.53 261.205 2195.54 261.205 Q2199.59 261.205 2201.79 264.052 Q2203.99 266.876 2203.99 272.108 L2203.99 287.756 L2199.71 287.756 L2199.71 272.247 Q2199.71 268.52 2198.39 266.714 Q2197.07 264.909 2194.36 264.909 Q2191.05 264.909 2189.13 267.108 Q2187.21 269.307 2187.21 273.103 L2187.21 287.756 L2182.93 287.756 L2182.93 272.247 Q2182.93 268.497 2181.61 266.714 Q2180.29 264.909 2177.53 264.909 Q2174.27 264.909 2172.35 267.131 Q2170.43 269.33 2170.43 273.103 L2170.43 287.756 L2166.14 287.756 L2166.14 261.83 L2170.43 261.83 L2170.43 265.858 Q2171.88 263.473 2173.92 262.339 Q2175.96 261.205 2178.76 261.205 Q2181.58 261.205 2183.55 262.64 Q2185.54 264.075 2186.49 266.807 Z" fill="#000000" fill-rule="nonzero" fill-opacity="1" /><path clip-path="url(#clip610)" d="M2216.61 283.867 L2216.61 297.617 L2212.32 297.617 L2212.32 261.83 L2216.61 261.83 L2216.61 265.765 Q2217.95 263.45 2219.99 262.339 Q2222.05 261.205 2224.89 261.205 Q2229.62 261.205 2232.55 264.955 Q2235.52 268.705 2235.52 274.816 Q2235.52 280.927 2232.55 284.677 Q2229.62 288.427 2224.89 288.427 Q2222.05 288.427 2219.99 287.316 Q2217.95 286.182 2216.61 283.867 M2231.1 274.816 Q2231.1 270.117 2229.15 267.455 Q2227.23 264.77 2223.85 264.77 Q2220.47 264.77 2218.53 267.455 Q2216.61 270.117 2216.61 274.816 Q2216.61 279.515 2218.53 282.2 Q2220.47 284.862 2223.85 284.862 Q2227.23 284.862 2229.15 282.2 Q2231.1 279.515 2231.1 274.816 Z" fill="#000000" fill-rule="nonzero" fill-opacity="1" /><path clip-path="url(#clip610)" d="M2259.11 262.594 L2259.11 266.622 Q2257.3 265.696 2255.36 265.233 Q2253.41 264.77 2251.33 264.77 Q2248.16 264.77 2246.56 265.742 Q2244.99 266.714 2244.99 268.659 Q2244.99 270.14 2246.12 270.997 Q2247.25 271.83 2250.68 272.594 L2252.14 272.918 Q2256.68 273.89 2258.57 275.672 Q2260.49 277.432 2260.49 280.603 Q2260.49 284.214 2257.62 286.321 Q2254.78 288.427 2249.78 288.427 Q2247.69 288.427 2245.43 288.01 Q2243.18 287.617 2240.68 286.807 L2240.68 282.409 Q2243.04 283.635 2245.33 284.26 Q2247.62 284.862 2249.87 284.862 Q2252.88 284.862 2254.5 283.844 Q2256.12 282.802 2256.12 280.927 Q2256.12 279.191 2254.94 278.265 Q2253.78 277.339 2249.82 276.483 L2248.34 276.135 Q2244.38 275.302 2242.62 273.589 Q2240.87 271.853 2240.87 268.844 Q2240.87 265.186 2243.46 263.196 Q2246.05 261.205 2250.82 261.205 Q2253.18 261.205 2255.26 261.552 Q2257.35 261.899 2259.11 262.594 Z" fill="#000000" fill-rule="nonzero" fill-opacity="1" /></svg>
