<?xml version="1.0" encoding="utf-8"?>
<svg xmlns="http://www.w3.org/2000/svg" xmlns:xlink="http://www.w3.org/1999/xlink" width="600" height="400" viewBox="0 0 2400 1600">
<defs>
  <clipPath id="clip290">
    <rect x="0" y="0" width="2400" height="1600"/>
  </clipPath>
</defs>
<path clip-path="url(#clip290)" d="M0 1600 L2400 1600 L2400 0 L0 0  Z" fill="#ffffff" fill-rule="evenodd" fill-opacity="1"/>
<defs>
  <clipPath id="clip291">
    <rect x="480" y="0" width="1681" height="1600"/>
  </clipPath>
</defs>
<path clip-path="url(#clip290)" d="M276.876 1423.18 L2352.76 1423.18 L2352.76 123.472 L276.876 123.472  Z" fill="#ffffff" fill-rule="evenodd" fill-opacity="1"/>
<defs>
  <clipPath id="clip292">
    <rect x="276" y="123" width="2077" height="1301"/>
  </clipPath>
</defs>
<polyline clip-path="url(#clip292)" style="stroke:#000000; stroke-linecap:round; stroke-linejoin:round; stroke-width:2; stroke-opacity:0.1; fill:none" points="319.307,1423.18 319.307,123.472 "/>
<polyline clip-path="url(#clip292)" style="stroke:#000000; stroke-linecap:round; stroke-linejoin:round; stroke-width:2; stroke-opacity:0.1; fill:none" points="727.302,1423.18 727.302,123.472 "/>
<polyline clip-path="url(#clip292)" style="stroke:#000000; stroke-linecap:round; stroke-linejoin:round; stroke-width:2; stroke-opacity:0.1; fill:none" points="1135.3,1423.18 1135.3,123.472 "/>
<polyline clip-path="url(#clip292)" style="stroke:#000000; stroke-linecap:round; stroke-linejoin:round; stroke-width:2; stroke-opacity:0.1; fill:none" points="1543.29,1423.18 1543.29,123.472 "/>
<polyline clip-path="url(#clip292)" style="stroke:#000000; stroke-linecap:round; stroke-linejoin:round; stroke-width:2; stroke-opacity:0.1; fill:none" points="1951.29,1423.18 1951.29,123.472 "/>
<polyline clip-path="url(#clip290)" style="stroke:#000000; stroke-linecap:round; stroke-linejoin:round; stroke-width:4; stroke-opacity:1; fill:none" points="276.876,1423.18 2352.76,1423.18 "/>
<polyline clip-path="url(#clip290)" style="stroke:#000000; stroke-linecap:round; stroke-linejoin:round; stroke-width:4; stroke-opacity:1; fill:none" points="319.307,1423.18 319.307,1404.28 "/>
<polyline clip-path="url(#clip290)" style="stroke:#000000; stroke-linecap:round; stroke-linejoin:round; stroke-width:4; stroke-opacity:1; fill:none" points="727.302,1423.18 727.302,1404.28 "/>
<polyline clip-path="url(#clip290)" style="stroke:#000000; stroke-linecap:round; stroke-linejoin:round; stroke-width:4; stroke-opacity:1; fill:none" points="1135.3,1423.18 1135.3,1404.28 "/>
<polyline clip-path="url(#clip290)" style="stroke:#000000; stroke-linecap:round; stroke-linejoin:round; stroke-width:4; stroke-opacity:1; fill:none" points="1543.29,1423.18 1543.29,1404.28 "/>
<polyline clip-path="url(#clip290)" style="stroke:#000000; stroke-linecap:round; stroke-linejoin:round; stroke-width:4; stroke-opacity:1; fill:none" points="1951.29,1423.18 1951.29,1404.28 "/>
<path clip-path="url(#clip290)" d="M319.307 1454.1 Q315.696 1454.1 313.867 1457.66 Q312.062 1461.2 312.062 1468.33 Q312.062 1475.44 313.867 1479.01 Q315.696 1482.55 319.307 1482.55 Q322.941 1482.55 324.747 1479.01 Q326.576 1475.44 326.576 1468.33 Q326.576 1461.2 324.747 1457.66 Q322.941 1454.1 319.307 1454.1 M319.307 1450.39 Q325.117 1450.39 328.173 1455 Q331.251 1459.58 331.251 1468.33 Q331.251 1477.06 328.173 1481.67 Q325.117 1486.25 319.307 1486.25 Q313.497 1486.25 310.418 1481.67 Q307.363 1477.06 307.363 1468.33 Q307.363 1459.58 310.418 1455 Q313.497 1450.39 319.307 1450.39 Z" fill="#000000" fill-rule="nonzero" fill-opacity="1" /><path clip-path="url(#clip290)" d="M706.573 1481.64 L722.893 1481.64 L722.893 1485.58 L700.948 1485.58 L700.948 1481.64 Q703.61 1478.89 708.194 1474.26 Q712.8 1469.61 713.981 1468.27 Q716.226 1465.74 717.106 1464.01 Q718.008 1462.25 718.008 1460.56 Q718.008 1457.8 716.064 1456.07 Q714.143 1454.33 711.041 1454.33 Q708.842 1454.33 706.388 1455.09 Q703.958 1455.86 701.18 1457.41 L701.18 1452.69 Q704.004 1451.55 706.458 1450.97 Q708.911 1450.39 710.948 1450.39 Q716.319 1450.39 719.513 1453.08 Q722.708 1455.77 722.708 1460.26 Q722.708 1462.39 721.897 1464.31 Q721.11 1466.2 719.004 1468.8 Q718.425 1469.47 715.323 1472.69 Q712.221 1475.88 706.573 1481.64 Z" fill="#000000" fill-rule="nonzero" fill-opacity="1" /><path clip-path="url(#clip290)" d="M732.754 1451.02 L751.11 1451.02 L751.11 1454.96 L737.036 1454.96 L737.036 1463.43 Q738.055 1463.08 739.073 1462.92 Q740.092 1462.73 741.11 1462.73 Q746.897 1462.73 750.277 1465.9 Q753.656 1469.08 753.656 1474.49 Q753.656 1480.07 750.184 1483.17 Q746.712 1486.25 740.393 1486.25 Q738.217 1486.25 735.948 1485.88 Q733.703 1485.51 731.295 1484.77 L731.295 1480.07 Q733.379 1481.2 735.601 1481.76 Q737.823 1482.32 740.3 1482.32 Q744.305 1482.32 746.643 1480.21 Q748.981 1478.1 748.981 1474.49 Q748.981 1470.88 746.643 1468.77 Q744.305 1466.67 740.3 1466.67 Q738.425 1466.67 736.55 1467.08 Q734.698 1467.5 732.754 1468.38 L732.754 1451.02 Z" fill="#000000" fill-rule="nonzero" fill-opacity="1" /><path clip-path="url(#clip290)" d="M1110 1451.02 L1128.35 1451.02 L1128.35 1454.96 L1114.28 1454.96 L1114.28 1463.43 Q1115.3 1463.08 1116.32 1462.92 Q1117.33 1462.73 1118.35 1462.73 Q1124.14 1462.73 1127.52 1465.9 Q1130.9 1469.08 1130.9 1474.49 Q1130.9 1480.07 1127.43 1483.17 Q1123.96 1486.25 1117.64 1486.25 Q1115.46 1486.25 1113.19 1485.88 Q1110.95 1485.51 1108.54 1484.77 L1108.54 1480.07 Q1110.62 1481.2 1112.84 1481.76 Q1115.07 1482.32 1117.54 1482.32 Q1121.55 1482.32 1123.89 1480.21 Q1126.22 1478.1 1126.22 1474.49 Q1126.22 1470.88 1123.89 1468.77 Q1121.55 1466.67 1117.54 1466.67 Q1115.67 1466.67 1113.79 1467.08 Q1111.94 1467.5 1110 1468.38 L1110 1451.02 Z" fill="#000000" fill-rule="nonzero" fill-opacity="1" /><path clip-path="url(#clip290)" d="M1150.11 1454.1 Q1146.5 1454.1 1144.67 1457.66 Q1142.87 1461.2 1142.87 1468.33 Q1142.87 1475.44 1144.67 1479.01 Q1146.5 1482.55 1150.11 1482.55 Q1153.75 1482.55 1155.55 1479.01 Q1157.38 1475.44 1157.38 1468.33 Q1157.38 1461.2 1155.55 1457.66 Q1153.75 1454.1 1150.11 1454.1 M1150.11 1450.39 Q1155.92 1450.39 1158.98 1455 Q1162.06 1459.58 1162.06 1468.33 Q1162.06 1477.06 1158.98 1481.67 Q1155.92 1486.25 1150.11 1486.25 Q1144.3 1486.25 1141.22 1481.67 Q1138.17 1477.06 1138.17 1468.33 Q1138.17 1459.58 1141.22 1455 Q1144.3 1450.39 1150.11 1450.39 Z" fill="#000000" fill-rule="nonzero" fill-opacity="1" /><path clip-path="url(#clip290)" d="M1517.15 1451.02 L1539.37 1451.02 L1539.37 1453.01 L1526.82 1485.58 L1521.94 1485.58 L1533.74 1454.96 L1517.15 1454.96 L1517.15 1451.02 Z" fill="#000000" fill-rule="nonzero" fill-opacity="1" /><path clip-path="url(#clip290)" d="M1548.54 1451.02 L1566.89 1451.02 L1566.89 1454.96 L1552.82 1454.96 L1552.82 1463.43 Q1553.84 1463.08 1554.86 1462.92 Q1555.87 1462.73 1556.89 1462.73 Q1562.68 1462.73 1566.06 1465.9 Q1569.44 1469.08 1569.44 1474.49 Q1569.44 1480.07 1565.97 1483.17 Q1562.49 1486.25 1556.17 1486.25 Q1554 1486.25 1551.73 1485.88 Q1549.49 1485.51 1547.08 1484.77 L1547.08 1480.07 Q1549.16 1481.2 1551.38 1481.76 Q1553.61 1482.32 1556.08 1482.32 Q1560.09 1482.32 1562.42 1480.21 Q1564.76 1478.1 1564.76 1474.49 Q1564.76 1470.88 1562.42 1468.77 Q1560.09 1466.67 1556.08 1466.67 Q1554.21 1466.67 1552.33 1467.08 Q1550.48 1467.5 1548.54 1468.38 L1548.54 1451.02 Z" fill="#000000" fill-rule="nonzero" fill-opacity="1" /><path clip-path="url(#clip290)" d="M1910.9 1481.64 L1918.53 1481.64 L1918.53 1455.28 L1910.22 1456.95 L1910.22 1452.69 L1918.49 1451.02 L1923.16 1451.02 L1923.16 1481.64 L1930.8 1481.64 L1930.8 1485.58 L1910.9 1485.58 L1910.9 1481.64 Z" fill="#000000" fill-rule="nonzero" fill-opacity="1" /><path clip-path="url(#clip290)" d="M1950.25 1454.1 Q1946.64 1454.1 1944.81 1457.66 Q1943 1461.2 1943 1468.33 Q1943 1475.44 1944.81 1479.01 Q1946.64 1482.55 1950.25 1482.55 Q1953.88 1482.55 1955.69 1479.01 Q1957.52 1475.44 1957.52 1468.33 Q1957.52 1461.2 1955.69 1457.66 Q1953.88 1454.1 1950.25 1454.1 M1950.25 1450.39 Q1956.06 1450.39 1959.11 1455 Q1962.19 1459.58 1962.19 1468.33 Q1962.19 1477.06 1959.11 1481.67 Q1956.06 1486.25 1950.25 1486.25 Q1944.44 1486.25 1941.36 1481.67 Q1938.3 1477.06 1938.3 1468.33 Q1938.3 1459.58 1941.36 1455 Q1944.44 1450.39 1950.25 1450.39 Z" fill="#000000" fill-rule="nonzero" fill-opacity="1" /><path clip-path="url(#clip290)" d="M1980.41 1454.1 Q1976.8 1454.1 1974.97 1457.66 Q1973.16 1461.2 1973.16 1468.33 Q1973.16 1475.44 1974.97 1479.01 Q1976.8 1482.55 1980.41 1482.55 Q1984.04 1482.55 1985.85 1479.01 Q1987.68 1475.44 1987.68 1468.33 Q1987.68 1461.2 1985.85 1457.66 Q1984.04 1454.1 1980.41 1454.1 M1980.41 1450.39 Q1986.22 1450.39 1989.27 1455 Q1992.35 1459.58 1992.35 1468.33 Q1992.35 1477.06 1989.27 1481.67 Q1986.22 1486.25 1980.41 1486.25 Q1974.6 1486.25 1971.52 1481.67 Q1968.46 1477.06 1968.46 1468.33 Q1968.46 1459.58 1971.52 1455 Q1974.6 1450.39 1980.41 1450.39 Z" fill="#000000" fill-rule="nonzero" fill-opacity="1" /><path clip-path="url(#clip290)" d="M1299 1518.52 L1304.89 1518.52 L1304.89 1547.77 L1322.36 1532.4 L1329.84 1532.4 L1310.93 1549.07 L1330.63 1568.04 L1323 1568.04 L1304.89 1550.63 L1304.89 1568.04 L1299 1568.04 L1299 1518.52 Z" fill="#000000" fill-rule="nonzero" fill-opacity="1" /><polyline clip-path="url(#clip292)" style="stroke:#000000; stroke-linecap:round; stroke-linejoin:round; stroke-width:2; stroke-opacity:0.1; fill:none" points="276.876,1383.28 2352.76,1383.28 "/>
<polyline clip-path="url(#clip292)" style="stroke:#000000; stroke-linecap:round; stroke-linejoin:round; stroke-width:2; stroke-opacity:0.1; fill:none" points="276.876,913.421 2352.76,913.421 "/>
<polyline clip-path="url(#clip292)" style="stroke:#000000; stroke-linecap:round; stroke-linejoin:round; stroke-width:2; stroke-opacity:0.1; fill:none" points="276.876,443.563 2352.76,443.563 "/>
<polyline clip-path="url(#clip290)" style="stroke:#000000; stroke-linecap:round; stroke-linejoin:round; stroke-width:4; stroke-opacity:1; fill:none" points="276.876,1423.18 276.876,123.472 "/>
<polyline clip-path="url(#clip290)" style="stroke:#000000; stroke-linecap:round; stroke-linejoin:round; stroke-width:4; stroke-opacity:1; fill:none" points="276.876,1383.28 295.773,1383.28 "/>
<polyline clip-path="url(#clip290)" style="stroke:#000000; stroke-linecap:round; stroke-linejoin:round; stroke-width:4; stroke-opacity:1; fill:none" points="276.876,913.421 295.773,913.421 "/>
<polyline clip-path="url(#clip290)" style="stroke:#000000; stroke-linecap:round; stroke-linejoin:round; stroke-width:4; stroke-opacity:1; fill:none" points="276.876,443.563 295.773,443.563 "/>
<path clip-path="url(#clip290)" d="M114.931 1403.07 L122.57 1403.07 L122.57 1376.7 L114.26 1378.37 L114.26 1374.11 L122.524 1372.45 L127.2 1372.45 L127.2 1403.07 L134.839 1403.07 L134.839 1407.01 L114.931 1407.01 L114.931 1403.07 Z" fill="#000000" fill-rule="nonzero" fill-opacity="1" /><path clip-path="url(#clip290)" d="M154.283 1375.52 Q150.672 1375.52 148.843 1379.09 Q147.038 1382.63 147.038 1389.76 Q147.038 1396.87 148.843 1400.43 Q150.672 1403.97 154.283 1403.97 Q157.917 1403.97 159.723 1400.43 Q161.552 1396.87 161.552 1389.76 Q161.552 1382.63 159.723 1379.09 Q157.917 1375.52 154.283 1375.52 M154.283 1371.82 Q160.093 1371.82 163.149 1376.43 Q166.227 1381.01 166.227 1389.76 Q166.227 1398.49 163.149 1403.09 Q160.093 1407.68 154.283 1407.68 Q148.473 1407.68 145.394 1403.09 Q142.339 1398.49 142.339 1389.76 Q142.339 1381.01 145.394 1376.43 Q148.473 1371.82 154.283 1371.82 Z" fill="#000000" fill-rule="nonzero" fill-opacity="1" /><path clip-path="url(#clip290)" d="M166.227 1365.92 L190.339 1365.92 L190.339 1369.12 L166.227 1369.12 L166.227 1365.92 Z" fill="#000000" fill-rule="nonzero" fill-opacity="1" /><path clip-path="url(#clip290)" d="M199.197 1376.4 L205.404 1376.4 L205.404 1354.98 L198.652 1356.33 L198.652 1352.87 L205.366 1351.52 L209.166 1351.52 L209.166 1376.4 L215.372 1376.4 L215.372 1379.6 L199.197 1379.6 L199.197 1376.4 Z" fill="#000000" fill-rule="nonzero" fill-opacity="1" /><path clip-path="url(#clip290)" d="M231.171 1354.02 Q228.237 1354.02 226.751 1356.91 Q225.284 1359.79 225.284 1365.58 Q225.284 1371.36 226.751 1374.25 Q228.237 1377.13 231.171 1377.13 Q234.124 1377.13 235.591 1374.25 Q237.076 1371.36 237.076 1365.58 Q237.076 1359.79 235.591 1356.91 Q234.124 1354.02 231.171 1354.02 M231.171 1351.01 Q235.891 1351.01 238.374 1354.75 Q240.876 1358.47 240.876 1365.58 Q240.876 1372.67 238.374 1376.42 Q235.891 1380.14 231.171 1380.14 Q226.45 1380.14 223.949 1376.42 Q221.466 1372.67 221.466 1365.58 Q221.466 1358.47 223.949 1354.75 Q226.45 1351.01 231.171 1351.01 Z" fill="#000000" fill-rule="nonzero" fill-opacity="1" /><path clip-path="url(#clip290)" d="M140.247 933.213 L147.886 933.213 L147.886 906.848 L139.575 908.514 L139.575 904.255 L147.839 902.588 L152.515 902.588 L152.515 933.213 L160.154 933.213 L160.154 937.148 L140.247 937.148 L140.247 933.213 Z" fill="#000000" fill-rule="nonzero" fill-opacity="1" /><path clip-path="url(#clip290)" d="M179.598 905.667 Q175.987 905.667 174.159 909.232 Q172.353 912.773 172.353 919.903 Q172.353 927.009 174.159 930.574 Q175.987 934.116 179.598 934.116 Q183.233 934.116 185.038 930.574 Q186.867 927.009 186.867 919.903 Q186.867 912.773 185.038 909.232 Q183.233 905.667 179.598 905.667 M179.598 901.963 Q185.409 901.963 188.464 906.57 Q191.543 911.153 191.543 919.903 Q191.543 928.63 188.464 933.236 Q185.409 937.82 179.598 937.82 Q173.788 937.82 170.71 933.236 Q167.654 928.63 167.654 919.903 Q167.654 911.153 170.71 906.57 Q173.788 901.963 179.598 901.963 Z" fill="#000000" fill-rule="nonzero" fill-opacity="1" /><path clip-path="url(#clip290)" d="M191.543 896.065 L215.654 896.065 L215.654 899.262 L191.543 899.262 L191.543 896.065 Z" fill="#000000" fill-rule="nonzero" fill-opacity="1" /><path clip-path="url(#clip290)" d="M223.892 881.658 L238.807 881.658 L238.807 884.855 L227.372 884.855 L227.372 891.739 Q228.199 891.457 229.027 891.325 Q229.854 891.175 230.682 891.175 Q235.384 891.175 238.13 893.751 Q240.876 896.328 240.876 900.729 Q240.876 905.262 238.054 907.782 Q235.233 910.283 230.099 910.283 Q228.331 910.283 226.488 909.982 Q224.663 909.682 222.707 909.08 L222.707 905.262 Q224.4 906.183 226.205 906.635 Q228.011 907.086 230.023 907.086 Q233.277 907.086 235.177 905.375 Q237.076 903.663 237.076 900.729 Q237.076 897.795 235.177 896.083 Q233.277 894.372 230.023 894.372 Q228.5 894.372 226.977 894.711 Q225.472 895.049 223.892 895.764 L223.892 881.658 Z" fill="#000000" fill-rule="nonzero" fill-opacity="1" /><path clip-path="url(#clip290)" d="M170.17 463.356 L177.809 463.356 L177.809 436.99 L169.499 438.657 L169.499 434.398 L177.762 432.731 L182.438 432.731 L182.438 463.356 L190.077 463.356 L190.077 467.291 L170.17 467.291 L170.17 463.356 Z" fill="#000000" fill-rule="nonzero" fill-opacity="1" /><path clip-path="url(#clip290)" d="M209.522 435.81 Q205.91 435.81 204.082 439.374 Q202.276 442.916 202.276 450.046 Q202.276 457.152 204.082 460.717 Q205.91 464.259 209.522 464.259 Q213.156 464.259 214.961 460.717 Q216.79 457.152 216.79 450.046 Q216.79 442.916 214.961 439.374 Q213.156 435.81 209.522 435.81 M209.522 432.106 Q215.332 432.106 218.387 436.712 Q221.466 441.296 221.466 450.046 Q221.466 458.773 218.387 463.379 Q215.332 467.962 209.522 467.962 Q203.711 467.962 200.633 463.379 Q197.577 458.773 197.577 450.046 Q197.577 441.296 200.633 436.712 Q203.711 432.106 209.522 432.106 Z" fill="#000000" fill-rule="nonzero" fill-opacity="1" /><path clip-path="url(#clip290)" d="M231.171 414.302 Q228.237 414.302 226.751 417.198 Q225.284 420.076 225.284 425.869 Q225.284 431.643 226.751 434.539 Q228.237 437.417 231.171 437.417 Q234.124 437.417 235.591 434.539 Q237.076 431.643 237.076 425.869 Q237.076 420.076 235.591 417.198 Q234.124 414.302 231.171 414.302 M231.171 411.293 Q235.891 411.293 238.374 415.036 Q240.876 418.759 240.876 425.869 Q240.876 432.959 238.374 436.702 Q235.891 440.426 231.171 440.426 Q226.45 440.426 223.949 436.702 Q221.466 432.959 221.466 425.869 Q221.466 418.759 223.949 415.036 Q226.45 411.293 231.171 411.293 Z" fill="#000000" fill-rule="nonzero" fill-opacity="1" /><path clip-path="url(#clip290)" d="M45.7664 817.313 Q39.4007 817.313 35.8996 819.955 Q32.3984 822.565 32.3984 827.307 Q32.3984 832.018 35.8996 834.66 Q39.4007 837.27 45.7664 837.27 Q52.1003 837.27 55.6014 834.66 Q59.1026 832.018 59.1026 827.307 Q59.1026 822.565 55.6014 819.955 Q52.1003 817.313 45.7664 817.313 M59.58 811.457 Q68.683 811.457 73.1071 815.499 Q77.5631 819.541 77.5631 827.88 Q77.5631 830.967 77.0857 833.705 Q76.6401 836.442 75.6852 839.02 L69.9879 839.02 Q71.3884 836.442 72.0568 833.928 Q72.7252 831.413 72.7252 828.803 Q72.7252 823.042 69.7015 820.178 Q66.7096 817.313 60.6303 817.313 L57.7339 817.313 Q60.885 819.127 62.4446 821.96 Q64.0042 824.793 64.0042 828.739 Q64.0042 835.296 59.0071 839.307 Q54.01 843.317 45.7664 843.317 Q37.491 843.317 32.4939 839.307 Q27.4968 835.296 27.4968 828.739 Q27.4968 824.793 29.0564 821.96 Q30.616 819.127 33.7671 817.313 L28.3562 817.313 L28.3562 811.457 L59.58 811.457 Z" fill="#000000" fill-rule="nonzero" fill-opacity="1" /><path clip-path="url(#clip290)" d="M33.8307 778.737 Q33.2578 779.724 33.0032 780.901 Q32.7167 782.047 32.7167 783.447 Q32.7167 788.413 35.9632 791.086 Q39.1779 793.728 45.2253 793.728 L64.0042 793.728 L64.0042 799.616 L28.3562 799.616 L28.3562 793.728 L33.8944 793.728 Q30.6479 791.882 29.0883 788.922 Q27.4968 785.962 27.4968 781.729 Q27.4968 781.124 27.5923 780.392 Q27.656 779.66 27.8151 778.769 L33.8307 778.737 Z" fill="#000000" fill-rule="nonzero" fill-opacity="1" /><path clip-path="url(#clip290)" d="M46.0847 756.393 Q46.0847 763.491 47.7079 766.228 Q49.3312 768.965 53.2461 768.965 Q56.3653 768.965 58.2114 766.928 Q60.0256 764.86 60.0256 761.327 Q60.0256 756.457 56.5881 753.529 Q53.1188 750.569 47.3897 750.569 L46.0847 750.569 L46.0847 756.393 M43.6657 744.712 L64.0042 744.712 L64.0042 750.569 L58.5933 750.569 Q61.8398 752.574 63.3994 755.566 Q64.9272 758.558 64.9272 762.886 Q64.9272 768.361 61.8716 771.607 Q58.7843 774.822 53.6281 774.822 Q47.6125 774.822 44.5569 770.812 Q41.5014 766.769 41.5014 758.78 L41.5014 750.569 L40.9285 750.569 Q36.8862 750.569 34.6901 753.242 Q32.4621 755.884 32.4621 760.69 Q32.4621 763.746 33.1941 766.642 Q33.9262 769.538 35.3903 772.212 L29.9795 772.212 Q28.7381 768.997 28.1334 765.974 Q27.4968 762.95 27.4968 760.085 Q27.4968 752.351 31.5072 748.532 Q35.5176 744.712 43.6657 744.712 Z" fill="#000000" fill-rule="nonzero" fill-opacity="1" /><path clip-path="url(#clip290)" d="M33.7671 709.191 L14.479 709.191 L14.479 703.335 L64.0042 703.335 L64.0042 709.191 L58.657 709.191 Q61.8398 711.038 63.3994 713.87 Q64.9272 716.671 64.9272 720.618 Q64.9272 727.079 59.771 731.153 Q54.6147 735.195 46.212 735.195 Q37.8093 735.195 32.6531 731.153 Q27.4968 727.079 27.4968 720.618 Q27.4968 716.671 29.0564 713.87 Q30.5842 711.038 33.7671 709.191 M46.212 729.148 Q52.6732 729.148 56.3653 726.506 Q60.0256 723.833 60.0256 719.186 Q60.0256 714.539 56.3653 711.865 Q52.6732 709.191 46.212 709.191 Q39.7508 709.191 36.0905 711.865 Q32.3984 714.539 32.3984 719.186 Q32.3984 723.833 36.0905 726.506 Q39.7508 729.148 46.212 729.148 Z" fill="#000000" fill-rule="nonzero" fill-opacity="1" /><path clip-path="url(#clip290)" d="M970.428 65.7705 L970.428 89.8329 L962.934 89.8329 L962.934 27.2059 L970.428 27.2059 L970.428 34.0924 Q972.778 30.0415 976.342 28.0971 Q979.948 26.1121 984.93 26.1121 Q993.194 26.1121 998.339 32.6746 Q1003.52 39.2371 1003.52 49.9314 Q1003.52 60.6258 998.339 67.1883 Q993.194 73.7508 984.93 73.7508 Q979.948 73.7508 976.342 71.8063 Q972.778 69.8214 970.428 65.7705 M995.787 49.9314 Q995.787 41.7081 992.384 37.0496 Q989.022 32.3505 983.107 32.3505 Q977.193 32.3505 973.79 37.0496 Q970.428 41.7081 970.428 49.9314 Q970.428 58.1548 973.79 62.8538 Q977.193 67.5124 983.107 67.5124 Q989.022 67.5124 992.384 62.8538 Q995.787 58.1548 995.787 49.9314 Z" fill="#000000" fill-rule="nonzero" fill-opacity="1" /><path clip-path="url(#clip290)" d="M1042.17 34.1734 Q1040.91 33.4443 1039.41 33.1202 Q1037.96 32.7556 1036.17 32.7556 Q1029.85 32.7556 1026.45 36.8875 Q1023.09 40.9789 1023.09 48.6757 L1023.09 72.576 L1015.6 72.576 L1015.6 27.2059 L1023.09 27.2059 L1023.09 34.2544 Q1025.44 30.1225 1029.21 28.1376 Q1032.97 26.1121 1038.36 26.1121 Q1039.13 26.1121 1040.06 26.2337 Q1040.99 26.3147 1042.13 26.5172 L1042.17 34.1734 Z" fill="#000000" fill-rule="nonzero" fill-opacity="1" /><path clip-path="url(#clip290)" d="M1065.75 32.4315 Q1059.75 32.4315 1056.27 37.1306 Q1052.78 41.7891 1052.78 49.9314 Q1052.78 58.0738 1056.23 62.7728 Q1059.71 67.4314 1065.75 67.4314 Q1071.7 67.4314 1075.18 62.7323 Q1078.67 58.0333 1078.67 49.9314 Q1078.67 41.8701 1075.18 37.1711 Q1071.7 32.4315 1065.75 32.4315 M1065.75 26.1121 Q1075.47 26.1121 1081.02 32.4315 Q1086.57 38.7509 1086.57 49.9314 Q1086.57 61.0714 1081.02 67.4314 Q1075.47 73.7508 1065.75 73.7508 Q1055.98 73.7508 1050.43 67.4314 Q1044.92 61.0714 1044.92 49.9314 Q1044.92 38.7509 1050.43 32.4315 Q1055.98 26.1121 1065.75 26.1121 Z" fill="#000000" fill-rule="nonzero" fill-opacity="1" /><path clip-path="url(#clip290)" d="M1131.49 49.9314 Q1131.49 41.7081 1128.09 37.0496 Q1124.73 32.3505 1118.81 32.3505 Q1112.9 32.3505 1109.5 37.0496 Q1106.13 41.7081 1106.13 49.9314 Q1106.13 58.1548 1109.5 62.8538 Q1112.9 67.5124 1118.81 67.5124 Q1124.73 67.5124 1128.09 62.8538 Q1131.49 58.1548 1131.49 49.9314 M1106.13 34.0924 Q1108.48 30.0415 1112.05 28.0971 Q1115.65 26.1121 1120.64 26.1121 Q1128.9 26.1121 1134.04 32.6746 Q1139.23 39.2371 1139.23 49.9314 Q1139.23 60.6258 1134.04 67.1883 Q1128.9 73.7508 1120.64 73.7508 Q1115.65 73.7508 1112.05 71.8063 Q1108.48 69.8214 1106.13 65.7705 L1106.13 72.576 L1098.64 72.576 L1098.64 9.54393 L1106.13 9.54393 L1106.13 34.0924 Z" fill="#000000" fill-rule="nonzero" fill-opacity="1" /><path clip-path="url(#clip290)" d="M1151.58 9.54393 L1159.04 9.54393 L1159.04 72.576 L1151.58 72.576 L1151.58 9.54393 Z" fill="#000000" fill-rule="nonzero" fill-opacity="1" /><path clip-path="url(#clip290)" d="M1213.44 48.0275 L1213.44 51.6733 L1179.17 51.6733 Q1179.66 59.3701 1183.79 63.421 Q1187.96 67.4314 1195.37 67.4314 Q1199.67 67.4314 1203.68 66.3781 Q1207.73 65.3249 1211.7 63.2184 L1211.7 70.267 Q1207.69 71.9684 1203.48 72.8596 Q1199.26 73.7508 1194.93 73.7508 Q1184.07 73.7508 1177.71 67.4314 Q1171.39 61.1119 1171.39 50.3365 Q1171.39 39.1965 1177.39 32.6746 Q1183.42 26.1121 1193.63 26.1121 Q1202.79 26.1121 1208.09 32.0264 Q1213.44 37.9003 1213.44 48.0275 M1205.99 45.84 Q1205.91 39.7232 1202.54 36.0774 Q1199.22 32.4315 1193.71 32.4315 Q1187.48 32.4315 1183.71 35.9558 Q1179.98 39.4801 1179.41 45.8805 L1205.99 45.84 M1187.31 6.22219 L1198.74 21.3726 L1192.54 21.3726 L1179.33 6.22219 L1187.31 6.22219 Z" fill="#000000" fill-rule="nonzero" fill-opacity="1" /><path clip-path="url(#clip290)" d="M1261 35.9153 Q1263.79 30.8922 1267.68 28.5022 Q1271.57 26.1121 1276.84 26.1121 Q1283.93 26.1121 1287.78 31.0947 Q1291.62 36.0368 1291.62 45.1919 L1291.62 72.576 L1284.13 72.576 L1284.13 45.4349 Q1284.13 38.913 1281.82 35.7533 Q1279.51 32.5936 1274.77 32.5936 Q1268.98 32.5936 1265.62 36.4419 Q1262.26 40.2903 1262.26 46.9338 L1262.26 72.576 L1254.76 72.576 L1254.76 45.4349 Q1254.76 38.8725 1252.45 35.7533 Q1250.14 32.5936 1245.32 32.5936 Q1239.61 32.5936 1236.25 36.4824 Q1232.89 40.3308 1232.89 46.9338 L1232.89 72.576 L1225.39 72.576 L1225.39 27.2059 L1232.89 27.2059 L1232.89 34.2544 Q1235.44 30.082 1239 28.0971 Q1242.57 26.1121 1247.47 26.1121 Q1252.41 26.1121 1255.85 28.6237 Q1259.34 31.1352 1261 35.9153 Z" fill="#000000" fill-rule="nonzero" fill-opacity="1" /><path clip-path="url(#clip290)" d="M1345.3 48.0275 L1345.3 51.6733 L1311.03 51.6733 Q1311.51 59.3701 1315.65 63.421 Q1319.82 67.4314 1327.23 67.4314 Q1331.53 67.4314 1335.54 66.3781 Q1339.59 65.3249 1343.56 63.2184 L1343.56 70.267 Q1339.55 71.9684 1335.33 72.8596 Q1331.12 73.7508 1326.79 73.7508 Q1315.93 73.7508 1309.57 67.4314 Q1303.25 61.1119 1303.25 50.3365 Q1303.25 39.1965 1309.25 32.6746 Q1315.28 26.1121 1325.49 26.1121 Q1334.64 26.1121 1339.95 32.0264 Q1345.3 37.9003 1345.3 48.0275 M1337.85 45.84 Q1337.76 39.7232 1334.4 36.0774 Q1331.08 32.4315 1325.57 32.4315 Q1319.33 32.4315 1315.57 35.9558 Q1311.84 39.4801 1311.27 45.8805 L1337.85 45.84 Z" fill="#000000" fill-rule="nonzero" fill-opacity="1" /><path clip-path="url(#clip290)" d="M1385.81 62.2867 L1394.36 62.2867 L1394.36 72.576 L1385.81 72.576 L1385.81 62.2867 M1385.81 29.6769 L1394.36 29.6769 L1394.36 39.9662 L1385.81 39.9662 L1385.81 29.6769 Z" fill="#000000" fill-rule="nonzero" fill-opacity="1" /><path clip-path="url(#clip290)" d="M1445.6 14.324 L1445.6 27.2059 L1460.95 27.2059 L1460.95 32.9987 L1445.6 32.9987 L1445.6 57.6282 Q1445.6 63.1779 1447.1 64.7578 Q1448.64 66.3376 1453.3 66.3376 L1460.95 66.3376 L1460.95 72.576 L1453.3 72.576 Q1444.67 72.576 1441.39 69.3758 Q1438.1 66.1351 1438.1 57.6282 L1438.1 32.9987 L1432.64 32.9987 L1432.64 27.2059 L1438.1 27.2059 L1438.1 14.324 L1445.6 14.324 Z" fill="#000000" fill-rule="nonzero" fill-opacity="1" /><path clip-path="url(#clip290)" d="M1477.97 65.7705 L1477.97 89.8329 L1470.47 89.8329 L1470.47 27.2059 L1477.97 27.2059 L1477.97 34.0924 Q1480.32 30.0415 1483.88 28.0971 Q1487.49 26.1121 1492.47 26.1121 Q1500.73 26.1121 1505.88 32.6746 Q1511.06 39.2371 1511.06 49.9314 Q1511.06 60.6258 1505.88 67.1883 Q1500.73 73.7508 1492.47 73.7508 Q1487.49 73.7508 1483.88 71.8063 Q1480.32 69.8214 1477.97 65.7705 M1503.32 49.9314 Q1503.32 41.7081 1499.92 37.0496 Q1496.56 32.3505 1490.65 32.3505 Q1484.73 32.3505 1481.33 37.0496 Q1477.97 41.7081 1477.97 49.9314 Q1477.97 58.1548 1481.33 62.8538 Q1484.73 67.5124 1490.65 67.5124 Q1496.56 67.5124 1499.92 62.8538 Q1503.32 58.1548 1503.32 49.9314 Z" fill="#000000" fill-rule="nonzero" fill-opacity="1" /><path clip-path="url(#clip290)" d="M1531.52 65.6895 L1560.08 65.6895 L1560.08 72.576 L1521.68 72.576 L1521.68 65.6895 Q1526.33 60.8689 1534.35 52.7671 Q1542.42 44.6248 1544.48 42.2752 Q1548.41 37.8598 1549.95 34.8216 Q1551.53 31.7429 1551.53 28.7857 Q1551.53 23.9651 1548.13 20.927 Q1544.77 17.8888 1539.34 17.8888 Q1535.49 17.8888 1531.19 19.2256 Q1526.94 20.5624 1522.08 23.2765 L1522.08 15.0127 Q1527.02 13.0277 1531.32 12.015 Q1535.61 11.0023 1539.18 11.0023 Q1548.57 11.0023 1554.16 15.7013 Q1559.75 20.4004 1559.75 28.2591 Q1559.75 31.9859 1558.34 35.3482 Q1556.96 38.6699 1553.27 43.2069 Q1552.26 44.3817 1546.83 50.0125 Q1541.4 55.6027 1531.52 65.6895 Z" fill="#000000" fill-rule="nonzero" fill-opacity="1" /><path clip-path="url(#clip290)" d="M1577.5 71.3202 L1577.5 63.8666 Q1580.58 65.3249 1583.73 66.0946 Q1586.89 66.8642 1589.93 66.8642 Q1598.03 66.8642 1602.29 61.436 Q1606.58 55.9673 1607.19 44.8678 Q1604.84 48.3516 1601.23 50.215 Q1597.63 52.0784 1593.25 52.0784 Q1584.18 52.0784 1578.87 46.6097 Q1573.61 41.1005 1573.61 31.5808 Q1573.61 22.2638 1579.12 16.633 Q1584.63 11.0023 1593.78 11.0023 Q1604.27 11.0023 1609.78 19.0636 Q1615.33 27.0843 1615.33 42.3968 Q1615.33 56.6965 1608.53 65.2439 Q1601.76 73.7508 1590.3 73.7508 Q1587.22 73.7508 1584.06 73.1431 Q1580.9 72.5355 1577.5 71.3202 M1593.78 45.678 Q1599.29 45.678 1602.49 41.9107 Q1605.73 38.1433 1605.73 31.5808 Q1605.73 25.0589 1602.49 21.2916 Q1599.29 17.4837 1593.78 17.4837 Q1588.27 17.4837 1585.03 21.2916 Q1581.83 25.0589 1581.83 31.5808 Q1581.83 38.1433 1585.03 41.9107 Q1588.27 45.678 1593.78 45.678 Z" fill="#000000" fill-rule="nonzero" fill-opacity="1" /><path clip-path="url(#clip290)" d="M1630.12 12.096 L1662.24 12.096 L1662.24 18.9825 L1637.61 18.9825 L1637.61 33.8088 Q1639.39 33.2012 1641.18 32.9176 Q1642.96 32.5936 1644.74 32.5936 Q1654.87 32.5936 1660.78 38.1433 Q1666.7 43.6931 1666.7 53.1722 Q1666.7 62.9348 1660.62 68.3631 Q1654.54 73.7508 1643.49 73.7508 Q1639.68 73.7508 1635.71 73.1026 Q1631.78 72.4545 1627.57 71.1582 L1627.57 62.9348 Q1631.21 64.9198 1635.1 65.892 Q1638.99 66.8642 1643.32 66.8642 Q1650.33 66.8642 1654.42 63.1779 Q1658.51 59.4916 1658.51 53.1722 Q1658.51 46.8528 1654.42 43.1664 Q1650.33 39.4801 1643.32 39.4801 Q1640.04 39.4801 1636.76 40.2093 Q1633.52 40.9384 1630.12 42.4778 L1630.12 12.096 Z" fill="#000000" fill-rule="nonzero" fill-opacity="1" /><polyline clip-path="url(#clip292)" style="stroke:#009af9; stroke-linecap:round; stroke-linejoin:round; stroke-width:4; stroke-opacity:1; fill:none" points="335.627,160.256 351.947,182.813 368.266,182.813 384.586,182.813 400.906,182.813 417.226,182.813 433.546,182.813 449.866,182.813 466.185,182.813 482.505,182.813 498.825,179.197 515.145,256.071 531.465,256.071 547.784,321.605 564.104,408.6 580.424,434.439 596.744,381.311 613.064,316.007 629.384,292.642 645.703,283.1 662.023,283.1 678.343,375.984 694.663,395.127 710.983,356.972 727.302,315.16 743.622,278.554 759.942,263.454 776.262,263.454 792.582,363.318 808.901,405.702 825.221,413.278 841.541,426.05 857.861,463.148 874.181,530.785 890.501,638.964 906.82,638.964 923.14,780.391 939.46,832.589 955.78,832.589 972.1,851.469 988.419,880.684 1004.74,926.75 "/>
<polyline clip-path="url(#clip292)" style="stroke:#e26f46; stroke-linecap:round; stroke-linejoin:round; stroke-width:4; stroke-opacity:1; fill:none" points="335.627,160.256 351.947,182.813 368.266,182.813 384.586,182.813 400.906,182.813 417.226,182.813 433.546,182.813 449.866,182.813 466.185,182.813 482.505,182.813 498.825,179.197 515.145,253.46 531.465,373.637 547.784,389.362 564.104,389.362 580.424,430.604 596.744,409.147 613.064,398.304 629.384,389.283 645.703,401.027 662.023,402.057 678.343,409.848 694.663,404.912 710.983,390.206 727.302,388.603 743.622,395.076 759.942,383.392 776.262,392.413 792.582,393.531 808.901,394.158 825.221,395.326 841.541,402.547 857.861,406.73 874.181,411.075 890.501,413.367 906.82,410.194 923.14,401.965 939.46,411.948 955.78,417.231 972.1,424.185 988.419,429.778 1004.74,429.298 1021.06,429.532 1037.38,437.188 1053.7,446.237 1070.02,411.11 1086.34,501.296 1102.66,432.571 1118.98,505.872 1135.3,993.761 "/>
<polyline clip-path="url(#clip292)" style="stroke:#3da44d; stroke-linecap:round; stroke-linejoin:round; stroke-width:4; stroke-opacity:1; fill:none" points="335.627,160.256 351.947,182.813 368.266,182.813 384.586,182.813 400.906,182.813 417.226,182.813 433.546,182.813 449.866,182.813 466.185,182.813 482.505,182.813 498.825,179.197 515.145,253.46 531.465,253.46 547.784,253.46 564.104,261.202 580.424,275.068 596.744,299.081 613.064,338.03 629.384,395.759 645.703,451.225 662.023,445.594 678.343,404.952 694.663,404.952 710.983,436.023 727.302,429.743 743.622,389.943 759.942,349.499 776.262,349.499 792.582,417.276 808.901,432.461 825.221,417.259 841.541,380.403 857.861,380.403 874.181,427.904 890.501,427.452 906.82,397.36 923.14,354.653 939.46,349.288 955.78,315.969 972.1,281.868 988.419,281.868 1004.74,352.77 1021.06,419.176 1037.38,419.176 1053.7,474.791 1070.02,478.382 1086.34,478.382 1102.66,484.355 1118.98,486.397 1135.3,488.673 1151.62,482.903 1167.94,482.903 1184.26,497.863 1200.58,500.265 1216.9,500.866 1233.22,486.887 1249.54,486.887 1265.86,514.843 1282.18,517.343 1298.5,514.684 1314.82,514.684 1331.14,525.19 1347.46,527.29 1363.78,528.872 1380.09,519.402 1396.41,519.402 1412.73,541.091 1429.05,543.665 1445.37,543.454 1461.69,543.454 1478.01,551.277 1494.33,553.469 1510.65,556.07 1526.97,551.239 1543.29,551.239 1559.61,567.956 1575.93,570.941 1592.25,573.237 1608.57,565.525 1624.89,565.525 1641.21,591.634 1657.53,595.8 1673.85,598.93 1690.17,598.93 1706.49,607.518 1722.81,611.166 1739.13,616.888 1755.45,621.041 1771.77,621.041 1788.09,634.582 1804.41,640.069 1820.73,648.854 1837.05,648.854 1853.37,653.264 1869.69,657.78 1886.01,666.029 1902.33,679.274 1918.65,679.274 1934.97,685.74 1951.29,692.665 1967.61,705.214 1983.93,705.214 2000.25,708.52 2016.57,714.153 2032.89,724.681 2049.21,743.311 2065.53,743.311 2081.85,748.255 2098.17,756.901 2114.49,772.645 2130.81,799.634 2147.13,799.634 2163.45,806.846 2179.77,819.903 2196.09,842.827 2212.41,880.335 2228.73,880.335 2245.05,891.11 2261.36,910.368 2277.68,910.368 2294,915.015 "/>
<polyline clip-path="url(#clip292)" style="stroke:#c271d2; stroke-linecap:round; stroke-linejoin:round; stroke-width:4; stroke-opacity:1; fill:none" points="335.627,160.256 351.947,182.813 368.266,208.848 384.586,237.836 400.906,293.503 417.226,293.503 433.546,293.503 449.866,293.503 466.185,293.503 482.505,293.503 498.825,293.503 515.145,293.503 531.465,373.141 547.784,403.572 564.104,362.688 580.424,423.868 596.744,429.078 613.064,430.087 629.384,430.813 645.703,431.408 662.023,431.875 678.343,432.185 694.663,432.381 710.983,432.537 727.302,432.654 743.622,432.709 759.942,432.737 776.262,432.781 792.582,432.815 808.901,432.814 825.221,432.813 841.541,432.837 857.861,432.852 874.181,432.841 890.501,432.847 906.82,432.895 923.14,432.974 939.46,433.157 955.78,433.635 972.1,434.613 988.419,436.228 1004.74,438.562 1021.06,441.609 1037.38,445.235 1053.7,449.232 1070.02,453.414 1086.34,457.637 1102.66,461.795 1118.98,465.814 1135.3,469.654 1151.62,473.302 1167.94,476.758 1184.26,480.032 1200.58,483.138 1216.9,486.089 1233.22,488.902 1249.54,491.588 1265.86,494.161 1282.18,496.631 1298.5,499.007 1314.82,501.3 1331.14,503.515 1347.46,505.66 1363.78,507.742 1380.09,509.764 1396.41,511.731 1412.73,513.649 1429.05,515.521 1445.37,517.349 1461.69,519.138 1478.01,520.89 1494.33,522.607 1510.65,524.291 1526.97,525.945 1543.29,527.571 1559.61,529.17 1575.93,530.744 1592.25,532.294 1608.57,533.821 1624.89,535.328 1641.21,536.815 1657.53,538.282 1673.85,539.732 1690.17,541.164 1706.49,542.58 1722.81,543.981 1739.13,545.367 1755.45,546.739 1771.77,548.098 1788.09,549.444 1804.41,550.778 1820.73,552.1 1837.05,407.781 1853.37,779.965 1869.69,1386.4 "/>
<polyline clip-path="url(#clip292)" style="stroke:#ac8d18; stroke-linecap:round; stroke-linejoin:round; stroke-width:4; stroke-opacity:1; fill:none" points="335.627,160.256 351.947,182.813 368.266,182.813 384.586,182.813 400.906,182.813 417.226,182.813 433.546,182.813 449.866,182.813 466.185,182.813 482.505,182.813 498.825,179.197 515.145,253.46 531.465,373.637 547.784,389.362 564.104,389.362 580.424,430.604 596.744,409.147 613.064,359.962 629.384,371.86 645.703,371.86 662.023,426.629 678.343,426.178 694.663,395.501 710.983,354.877 727.302,350.783 743.622,350.843 759.942,350.499 776.262,349.635 792.582,350.578 808.901,361.903 825.221,405.328 841.541,392.402 857.861,399.102 874.181,423.439 890.501,470.587 906.82,550.538 923.14,673.551 939.46,845.625 955.78,1031.73 "/>
<path clip-path="url(#clip290)" d="M1752.87 477.836 L2283.56 477.836 L2283.56 166.796 L1752.87 166.796  Z" fill="#ffffff" fill-rule="evenodd" fill-opacity="1"/>
<polyline clip-path="url(#clip290)" style="stroke:#000000; stroke-linecap:round; stroke-linejoin:round; stroke-width:4; stroke-opacity:1; fill:none" points="1752.87,477.836 2283.56,477.836 2283.56,166.796 1752.87,166.796 1752.87,477.836 "/>
<polyline clip-path="url(#clip290)" style="stroke:#009af9; stroke-linecap:round; stroke-linejoin:round; stroke-width:4; stroke-opacity:1; fill:none" points="1775.94,218.636 1914.33,218.636 "/>
<path clip-path="url(#clip290)" d="M1937.39 201.356 L1942.07 201.356 L1942.07 231.981 L1958.9 231.981 L1958.9 235.916 L1937.39 235.916 L1937.39 201.356 Z" fill="#000000" fill-rule="nonzero" fill-opacity="1" /><path clip-path="url(#clip290)" d="M1963.81 201.356 L1970.77 201.356 L1979.59 224.874 L1988.46 201.356 L1995.43 201.356 L1995.43 235.916 L1990.87 235.916 L1990.87 205.569 L1981.95 229.272 L1977.26 229.272 L1968.34 205.569 L1968.34 235.916 L1963.81 235.916 L1963.81 201.356 Z" fill="#000000" fill-rule="nonzero" fill-opacity="1" /><path clip-path="url(#clip290)" d="M2024.22 243.786 L2024.22 247.096 L1999.59 247.096 L1999.59 243.786 L2024.22 243.786 Z" fill="#000000" fill-rule="nonzero" fill-opacity="1" /><path clip-path="url(#clip290)" d="M2049.13 202.49 L2049.13 207.05 Q2046.47 205.777 2044.11 205.152 Q2041.75 204.527 2039.55 204.527 Q2035.73 204.527 2033.64 206.008 Q2031.58 207.49 2031.58 210.221 Q2031.58 212.513 2032.95 213.694 Q2034.34 214.851 2038.18 215.569 L2041 216.147 Q2046.24 217.143 2048.71 219.666 Q2051.21 222.166 2051.21 226.379 Q2051.21 231.402 2047.83 233.994 Q2044.48 236.587 2037.97 236.587 Q2035.52 236.587 2032.74 236.031 Q2029.99 235.476 2027.02 234.388 L2027.02 229.573 Q2029.87 231.17 2032.6 231.981 Q2035.33 232.791 2037.97 232.791 Q2041.98 232.791 2044.15 231.217 Q2046.33 229.643 2046.33 226.726 Q2046.33 224.18 2044.75 222.744 Q2043.2 221.309 2039.64 220.592 L2036.79 220.036 Q2031.56 218.995 2029.22 216.772 Q2026.88 214.55 2026.88 210.592 Q2026.88 206.008 2030.1 203.37 Q2033.34 200.731 2039.01 200.731 Q2041.44 200.731 2043.97 201.171 Q2046.49 201.61 2049.13 202.49 Z" fill="#000000" fill-rule="nonzero" fill-opacity="1" /><path clip-path="url(#clip290)" d="M2063.18 205.198 L2063.18 218.184 L2069.06 218.184 Q2072.32 218.184 2074.11 216.495 Q2075.89 214.805 2075.89 211.68 Q2075.89 208.578 2074.11 206.888 Q2072.32 205.198 2069.06 205.198 L2063.18 205.198 M2058.5 201.356 L2069.06 201.356 Q2074.87 201.356 2077.83 203.995 Q2080.82 206.61 2080.82 211.68 Q2080.82 216.795 2077.83 219.411 Q2074.87 222.027 2069.06 222.027 L2063.18 222.027 L2063.18 235.916 L2058.5 235.916 L2058.5 201.356 Z" fill="#000000" fill-rule="nonzero" fill-opacity="1" /><path clip-path="url(#clip290)" d="M2110.66 230.985 L2110.66 221.703 L2103.02 221.703 L2103.02 217.86 L2115.29 217.86 L2115.29 232.698 Q2112.58 234.619 2109.31 235.615 Q2106.05 236.587 2102.35 236.587 Q2094.25 236.587 2089.66 231.865 Q2085.1 227.119 2085.1 218.67 Q2085.1 210.198 2089.66 205.476 Q2094.25 200.731 2102.35 200.731 Q2105.73 200.731 2108.76 201.564 Q2111.81 202.397 2114.38 204.018 L2114.38 208.995 Q2111.79 206.796 2108.87 205.684 Q2105.96 204.573 2102.74 204.573 Q2096.4 204.573 2093.2 208.115 Q2090.03 211.657 2090.03 218.67 Q2090.03 225.661 2093.2 229.203 Q2096.4 232.744 2102.74 232.744 Q2105.22 232.744 2107.16 232.328 Q2109.11 231.888 2110.66 230.985 Z" fill="#000000" fill-rule="nonzero" fill-opacity="1" /><polyline clip-path="url(#clip290)" style="stroke:#e26f46; stroke-linecap:round; stroke-linejoin:round; stroke-width:4; stroke-opacity:1; fill:none" points="1775.94,270.476 1914.33,270.476 "/>
<path clip-path="url(#clip290)" d="M1937.39 253.196 L1942.07 253.196 L1942.07 283.821 L1958.9 283.821 L1958.9 287.756 L1937.39 287.756 L1937.39 253.196 Z" fill="#000000" fill-rule="nonzero" fill-opacity="1" /><path clip-path="url(#clip290)" d="M1963.81 253.196 L1970.77 253.196 L1979.59 276.714 L1988.46 253.196 L1995.43 253.196 L1995.43 287.756 L1990.87 287.756 L1990.87 257.409 L1981.95 281.112 L1977.26 281.112 L1968.34 257.409 L1968.34 287.756 L1963.81 287.756 L1963.81 253.196 Z" fill="#000000" fill-rule="nonzero" fill-opacity="1" /><path clip-path="url(#clip290)" d="M2024.22 295.626 L2024.22 298.936 L1999.59 298.936 L1999.59 295.626 L2024.22 295.626 Z" fill="#000000" fill-rule="nonzero" fill-opacity="1" /><path clip-path="url(#clip290)" d="M2039.96 257.802 L2033.62 275.001 L2046.33 275.001 L2039.96 257.802 M2037.32 253.196 L2042.63 253.196 L2055.8 287.756 L2050.94 287.756 L2047.79 278.89 L2032.21 278.89 L2029.06 287.756 L2024.13 287.756 L2037.32 253.196 Z" fill="#000000" fill-rule="nonzero" fill-opacity="1" /><path clip-path="url(#clip290)" d="M2082.21 272.108 L2082.21 287.756 L2077.95 287.756 L2077.95 272.247 Q2077.95 268.566 2076.51 266.737 Q2075.08 264.909 2072.21 264.909 Q2068.76 264.909 2066.77 267.108 Q2064.78 269.307 2064.78 273.103 L2064.78 287.756 L2060.5 287.756 L2060.5 261.83 L2064.78 261.83 L2064.78 265.858 Q2066.31 263.52 2068.37 262.362 Q2070.45 261.205 2073.16 261.205 Q2077.63 261.205 2079.92 263.983 Q2082.21 266.737 2082.21 272.108 Z" fill="#000000" fill-rule="nonzero" fill-opacity="1" /><path clip-path="url(#clip290)" d="M2107.76 265.765 L2107.76 251.737 L2112.02 251.737 L2112.02 287.756 L2107.76 287.756 L2107.76 283.867 Q2106.42 286.182 2104.36 287.316 Q2102.32 288.427 2099.45 288.427 Q2094.75 288.427 2091.79 284.677 Q2088.85 280.927 2088.85 274.816 Q2088.85 268.705 2091.79 264.955 Q2094.75 261.205 2099.45 261.205 Q2102.32 261.205 2104.36 262.339 Q2106.42 263.45 2107.76 265.765 M2093.25 274.816 Q2093.25 279.515 2095.17 282.2 Q2097.12 284.862 2100.5 284.862 Q2103.88 284.862 2105.82 282.2 Q2107.76 279.515 2107.76 274.816 Q2107.76 270.117 2105.82 267.455 Q2103.88 264.77 2100.5 264.77 Q2097.12 264.77 2095.17 267.455 Q2093.25 270.117 2093.25 274.816 Z" fill="#000000" fill-rule="nonzero" fill-opacity="1" /><path clip-path="url(#clip290)" d="M2135.82 265.811 Q2135.1 265.395 2134.25 265.21 Q2133.41 265.001 2132.39 265.001 Q2128.78 265.001 2126.84 267.362 Q2124.92 269.7 2124.92 274.098 L2124.92 287.756 L2120.63 287.756 L2120.63 261.83 L2124.92 261.83 L2124.92 265.858 Q2126.26 263.497 2128.41 262.362 Q2130.56 261.205 2133.64 261.205 Q2134.08 261.205 2134.62 261.274 Q2135.15 261.321 2135.8 261.436 L2135.82 265.811 Z" fill="#000000" fill-rule="nonzero" fill-opacity="1" /><path clip-path="url(#clip290)" d="M2161.42 273.728 L2161.42 275.811 L2141.84 275.811 Q2142.12 280.209 2144.48 282.524 Q2146.86 284.816 2151.1 284.816 Q2153.55 284.816 2155.84 284.214 Q2158.16 283.612 2160.43 282.409 L2160.43 286.436 Q2158.13 287.408 2155.73 287.918 Q2153.32 288.427 2150.84 288.427 Q2144.64 288.427 2141 284.816 Q2137.39 281.205 2137.39 275.047 Q2137.39 268.682 2140.82 264.955 Q2144.27 261.205 2150.1 261.205 Q2155.33 261.205 2158.37 264.585 Q2161.42 267.941 2161.42 273.728 M2157.16 272.478 Q2157.12 268.983 2155.19 266.899 Q2153.3 264.816 2150.15 264.816 Q2146.58 264.816 2144.43 266.83 Q2142.3 268.844 2141.98 272.501 L2157.16 272.478 Z" fill="#000000" fill-rule="nonzero" fill-opacity="1" /><path clip-path="url(#clip290)" d="M2168.41 261.83 L2172.67 261.83 L2172.67 287.756 L2168.41 287.756 L2168.41 261.83 M2168.41 251.737 L2172.67 251.737 L2172.67 257.131 L2168.41 257.131 L2168.41 251.737 Z" fill="#000000" fill-rule="nonzero" fill-opacity="1" /><path clip-path="url(#clip290)" d="M2201.28 295.626 L2201.28 298.936 L2176.65 298.936 L2176.65 295.626 L2201.28 295.626 Z" fill="#000000" fill-rule="nonzero" fill-opacity="1" /><path clip-path="url(#clip290)" d="M2217.07 274.723 Q2211.91 274.723 2209.92 275.904 Q2207.93 277.084 2207.93 279.932 Q2207.93 282.2 2209.41 283.543 Q2210.91 284.862 2213.48 284.862 Q2217.02 284.862 2219.15 282.362 Q2221.3 279.839 2221.3 275.672 L2221.3 274.723 L2217.07 274.723 M2225.56 272.964 L2225.56 287.756 L2221.3 287.756 L2221.3 283.821 Q2219.85 286.182 2217.67 287.316 Q2215.49 288.427 2212.35 288.427 Q2208.37 288.427 2206 286.205 Q2203.67 283.959 2203.67 280.209 Q2203.67 275.834 2206.58 273.612 Q2209.52 271.39 2215.33 271.39 L2221.3 271.39 L2221.3 270.973 Q2221.3 268.034 2219.36 266.436 Q2217.44 264.816 2213.94 264.816 Q2211.72 264.816 2209.62 265.348 Q2207.51 265.881 2205.56 266.946 L2205.56 263.01 Q2207.9 262.108 2210.1 261.668 Q2212.3 261.205 2214.38 261.205 Q2220.01 261.205 2222.79 264.122 Q2225.56 267.038 2225.56 272.964 Z" fill="#000000" fill-rule="nonzero" fill-opacity="1" /><path clip-path="url(#clip290)" d="M2234.34 251.737 L2238.6 251.737 L2238.6 287.756 L2234.34 287.756 L2234.34 251.737 Z" fill="#000000" fill-rule="nonzero" fill-opacity="1" /><path clip-path="url(#clip290)" d="M2251.72 254.469 L2251.72 261.83 L2260.49 261.83 L2260.49 265.14 L2251.72 265.14 L2251.72 279.214 Q2251.72 282.385 2252.58 283.288 Q2253.46 284.191 2256.12 284.191 L2260.49 284.191 L2260.49 287.756 L2256.12 287.756 Q2251.19 287.756 2249.31 285.927 Q2247.44 284.075 2247.44 279.214 L2247.44 265.14 L2244.31 265.14 L2244.31 261.83 L2247.44 261.83 L2247.44 254.469 L2251.72 254.469 Z" fill="#000000" fill-rule="nonzero" fill-opacity="1" /><polyline clip-path="url(#clip290)" style="stroke:#3da44d; stroke-linecap:round; stroke-linejoin:round; stroke-width:4; stroke-opacity:1; fill:none" points="1775.94,322.316 1914.33,322.316 "/>
<path clip-path="url(#clip290)" d="M1937.39 305.036 L1942.07 305.036 L1942.07 335.661 L1958.9 335.661 L1958.9 339.596 L1937.39 339.596 L1937.39 305.036 Z" fill="#000000" fill-rule="nonzero" fill-opacity="1" /><path clip-path="url(#clip290)" d="M1963.81 305.036 L1970.77 305.036 L1979.59 328.554 L1988.46 305.036 L1995.43 305.036 L1995.43 339.596 L1990.87 339.596 L1990.87 309.249 L1981.95 332.952 L1977.26 332.952 L1968.34 309.249 L1968.34 339.596 L1963.81 339.596 L1963.81 305.036 Z" fill="#000000" fill-rule="nonzero" fill-opacity="1" /><path clip-path="url(#clip290)" d="M2024.22 347.466 L2024.22 350.776 L1999.59 350.776 L1999.59 347.466 L2024.22 347.466 Z" fill="#000000" fill-rule="nonzero" fill-opacity="1" /><path clip-path="url(#clip290)" d="M2039.96 309.642 L2033.62 326.841 L2046.33 326.841 L2039.96 309.642 M2037.32 305.036 L2042.63 305.036 L2055.8 339.596 L2050.94 339.596 L2047.79 330.73 L2032.21 330.73 L2029.06 339.596 L2024.13 339.596 L2037.32 305.036 Z" fill="#000000" fill-rule="nonzero" fill-opacity="1" /><path clip-path="url(#clip290)" d="M2082.21 323.948 L2082.21 339.596 L2077.95 339.596 L2077.95 324.087 Q2077.95 320.406 2076.51 318.577 Q2075.08 316.749 2072.21 316.749 Q2068.76 316.749 2066.77 318.948 Q2064.78 321.147 2064.78 324.943 L2064.78 339.596 L2060.5 339.596 L2060.5 313.67 L2064.78 313.67 L2064.78 317.698 Q2066.31 315.36 2068.37 314.202 Q2070.45 313.045 2073.16 313.045 Q2077.63 313.045 2079.92 315.823 Q2082.21 318.577 2082.21 323.948 Z" fill="#000000" fill-rule="nonzero" fill-opacity="1" /><path clip-path="url(#clip290)" d="M2107.76 317.605 L2107.76 303.577 L2112.02 303.577 L2112.02 339.596 L2107.76 339.596 L2107.76 335.707 Q2106.42 338.022 2104.36 339.156 Q2102.32 340.267 2099.45 340.267 Q2094.75 340.267 2091.79 336.517 Q2088.85 332.767 2088.85 326.656 Q2088.85 320.545 2091.79 316.795 Q2094.75 313.045 2099.45 313.045 Q2102.32 313.045 2104.36 314.179 Q2106.42 315.29 2107.76 317.605 M2093.25 326.656 Q2093.25 331.355 2095.17 334.04 Q2097.12 336.702 2100.5 336.702 Q2103.88 336.702 2105.82 334.04 Q2107.76 331.355 2107.76 326.656 Q2107.76 321.957 2105.82 319.295 Q2103.88 316.61 2100.5 316.61 Q2097.12 316.61 2095.17 319.295 Q2093.25 321.957 2093.25 326.656 Z" fill="#000000" fill-rule="nonzero" fill-opacity="1" /><path clip-path="url(#clip290)" d="M2135.82 317.651 Q2135.1 317.235 2134.25 317.05 Q2133.41 316.841 2132.39 316.841 Q2128.78 316.841 2126.84 319.202 Q2124.92 321.54 2124.92 325.938 L2124.92 339.596 L2120.63 339.596 L2120.63 313.67 L2124.92 313.67 L2124.92 317.698 Q2126.26 315.337 2128.41 314.202 Q2130.56 313.045 2133.64 313.045 Q2134.08 313.045 2134.62 313.114 Q2135.15 313.161 2135.8 313.276 L2135.82 317.651 Z" fill="#000000" fill-rule="nonzero" fill-opacity="1" /><path clip-path="url(#clip290)" d="M2161.42 325.568 L2161.42 327.651 L2141.84 327.651 Q2142.12 332.049 2144.48 334.364 Q2146.86 336.656 2151.1 336.656 Q2153.55 336.656 2155.84 336.054 Q2158.16 335.452 2160.43 334.249 L2160.43 338.276 Q2158.13 339.248 2155.73 339.758 Q2153.32 340.267 2150.84 340.267 Q2144.64 340.267 2141 336.656 Q2137.39 333.045 2137.39 326.887 Q2137.39 320.522 2140.82 316.795 Q2144.27 313.045 2150.1 313.045 Q2155.33 313.045 2158.37 316.425 Q2161.42 319.781 2161.42 325.568 M2157.16 324.318 Q2157.12 320.823 2155.19 318.739 Q2153.3 316.656 2150.15 316.656 Q2146.58 316.656 2144.43 318.67 Q2142.3 320.684 2141.98 324.341 L2157.16 324.318 Z" fill="#000000" fill-rule="nonzero" fill-opacity="1" /><path clip-path="url(#clip290)" d="M2168.41 313.67 L2172.67 313.67 L2172.67 339.596 L2168.41 339.596 L2168.41 313.67 M2168.41 303.577 L2172.67 303.577 L2172.67 308.971 L2168.41 308.971 L2168.41 303.577 Z" fill="#000000" fill-rule="nonzero" fill-opacity="1" /><polyline clip-path="url(#clip290)" style="stroke:#c271d2; stroke-linecap:round; stroke-linejoin:round; stroke-width:4; stroke-opacity:1; fill:none" points="1775.94,374.156 1914.33,374.156 "/>
<path clip-path="url(#clip290)" d="M1937.39 356.876 L1942.07 356.876 L1942.07 387.501 L1958.9 387.501 L1958.9 391.436 L1937.39 391.436 L1937.39 356.876 Z" fill="#000000" fill-rule="nonzero" fill-opacity="1" /><path clip-path="url(#clip290)" d="M1963.81 356.876 L1970.77 356.876 L1979.59 380.394 L1988.46 356.876 L1995.43 356.876 L1995.43 391.436 L1990.87 391.436 L1990.87 361.089 L1981.95 384.792 L1977.26 384.792 L1968.34 361.089 L1968.34 391.436 L1963.81 391.436 L1963.81 356.876 Z" fill="#000000" fill-rule="nonzero" fill-opacity="1" /><path clip-path="url(#clip290)" d="M2024.22 399.306 L2024.22 402.616 L1999.59 402.616 L1999.59 399.306 L2024.22 399.306 Z" fill="#000000" fill-rule="nonzero" fill-opacity="1" /><path clip-path="url(#clip290)" d="M2049.13 358.01 L2049.13 362.57 Q2046.47 361.297 2044.11 360.672 Q2041.75 360.047 2039.55 360.047 Q2035.73 360.047 2033.64 361.528 Q2031.58 363.01 2031.58 365.741 Q2031.58 368.033 2032.95 369.214 Q2034.34 370.371 2038.18 371.089 L2041 371.667 Q2046.24 372.663 2048.71 375.186 Q2051.21 377.686 2051.21 381.899 Q2051.21 386.922 2047.83 389.514 Q2044.48 392.107 2037.97 392.107 Q2035.52 392.107 2032.74 391.551 Q2029.99 390.996 2027.02 389.908 L2027.02 385.093 Q2029.87 386.69 2032.6 387.501 Q2035.33 388.311 2037.97 388.311 Q2041.98 388.311 2044.15 386.737 Q2046.33 385.163 2046.33 382.246 Q2046.33 379.7 2044.75 378.264 Q2043.2 376.829 2039.64 376.112 L2036.79 375.556 Q2031.56 374.515 2029.22 372.292 Q2026.88 370.07 2026.88 366.112 Q2026.88 361.528 2030.1 358.89 Q2033.34 356.251 2039.01 356.251 Q2041.44 356.251 2043.97 356.691 Q2046.49 357.13 2049.13 358.01 Z" fill="#000000" fill-rule="nonzero" fill-opacity="1" /><path clip-path="url(#clip290)" d="M2063.18 360.718 L2063.18 373.704 L2069.06 373.704 Q2072.32 373.704 2074.11 372.015 Q2075.89 370.325 2075.89 367.2 Q2075.89 364.098 2074.11 362.408 Q2072.32 360.718 2069.06 360.718 L2063.18 360.718 M2058.5 356.876 L2069.06 356.876 Q2074.87 356.876 2077.83 359.515 Q2080.82 362.13 2080.82 367.2 Q2080.82 372.315 2077.83 374.931 Q2074.87 377.547 2069.06 377.547 L2063.18 377.547 L2063.18 391.436 L2058.5 391.436 L2058.5 356.876 Z" fill="#000000" fill-rule="nonzero" fill-opacity="1" /><path clip-path="url(#clip290)" d="M2110.66 386.505 L2110.66 377.223 L2103.02 377.223 L2103.02 373.38 L2115.29 373.38 L2115.29 388.218 Q2112.58 390.139 2109.31 391.135 Q2106.05 392.107 2102.35 392.107 Q2094.25 392.107 2089.66 387.385 Q2085.1 382.639 2085.1 374.19 Q2085.1 365.718 2089.66 360.996 Q2094.25 356.251 2102.35 356.251 Q2105.73 356.251 2108.76 357.084 Q2111.81 357.917 2114.38 359.538 L2114.38 364.515 Q2111.79 362.316 2108.87 361.204 Q2105.96 360.093 2102.74 360.093 Q2096.4 360.093 2093.2 363.635 Q2090.03 367.177 2090.03 374.19 Q2090.03 381.181 2093.2 384.723 Q2096.4 388.264 2102.74 388.264 Q2105.22 388.264 2107.16 387.848 Q2109.11 387.408 2110.66 386.505 Z" fill="#000000" fill-rule="nonzero" fill-opacity="1" /><path clip-path="url(#clip290)" d="M2143.34 399.306 L2143.34 402.616 L2118.71 402.616 L2118.71 399.306 L2143.34 399.306 Z" fill="#000000" fill-rule="nonzero" fill-opacity="1" /><path clip-path="url(#clip290)" d="M2159.13 378.403 Q2153.97 378.403 2151.98 379.584 Q2149.99 380.764 2149.99 383.612 Q2149.99 385.88 2151.47 387.223 Q2152.97 388.542 2155.54 388.542 Q2159.08 388.542 2161.21 386.042 Q2163.37 383.519 2163.37 379.352 L2163.37 378.403 L2159.13 378.403 M2167.62 376.644 L2167.62 391.436 L2163.37 391.436 L2163.37 387.501 Q2161.91 389.862 2159.73 390.996 Q2157.56 392.107 2154.41 392.107 Q2150.43 392.107 2148.06 389.885 Q2145.73 387.639 2145.73 383.889 Q2145.73 379.514 2148.64 377.292 Q2151.58 375.07 2157.39 375.07 L2163.37 375.07 L2163.37 374.653 Q2163.37 371.714 2161.42 370.116 Q2159.5 368.496 2156 368.496 Q2153.78 368.496 2151.68 369.028 Q2149.57 369.561 2147.62 370.626 L2147.62 366.69 Q2149.96 365.788 2152.16 365.348 Q2154.36 364.885 2156.44 364.885 Q2162.07 364.885 2164.85 367.802 Q2167.62 370.718 2167.62 376.644 Z" fill="#000000" fill-rule="nonzero" fill-opacity="1" /><path clip-path="url(#clip290)" d="M2176.4 355.417 L2180.66 355.417 L2180.66 391.436 L2176.4 391.436 L2176.4 355.417 Z" fill="#000000" fill-rule="nonzero" fill-opacity="1" /><path clip-path="url(#clip290)" d="M2193.78 358.149 L2193.78 365.51 L2202.56 365.51 L2202.56 368.82 L2193.78 368.82 L2193.78 382.894 Q2193.78 386.065 2194.64 386.968 Q2195.52 387.871 2198.18 387.871 L2202.56 387.871 L2202.56 391.436 L2198.18 391.436 Q2193.25 391.436 2191.37 389.607 Q2189.5 387.755 2189.5 382.894 L2189.5 368.82 L2186.37 368.82 L2186.37 365.51 L2189.5 365.51 L2189.5 358.149 L2193.78 358.149 Z" fill="#000000" fill-rule="nonzero" fill-opacity="1" /><polyline clip-path="url(#clip290)" style="stroke:#ac8d18; stroke-linecap:round; stroke-linejoin:round; stroke-width:4; stroke-opacity:1; fill:none" points="1775.94,425.996 1914.33,425.996 "/>
<path clip-path="url(#clip290)" d="M1937.39 408.716 L1942.07 408.716 L1942.07 439.341 L1958.9 439.341 L1958.9 443.276 L1937.39 443.276 L1937.39 408.716 Z" fill="#000000" fill-rule="nonzero" fill-opacity="1" /><path clip-path="url(#clip290)" d="M1963.81 408.716 L1970.77 408.716 L1979.59 432.234 L1988.46 408.716 L1995.43 408.716 L1995.43 443.276 L1990.87 443.276 L1990.87 412.929 L1981.95 436.632 L1977.26 436.632 L1968.34 412.929 L1968.34 443.276 L1963.81 443.276 L1963.81 408.716 Z" fill="#000000" fill-rule="nonzero" fill-opacity="1" /></svg>
