<?xml version="1.0" encoding="utf-8"?>
<svg xmlns="http://www.w3.org/2000/svg" xmlns:xlink="http://www.w3.org/1999/xlink" width="600" height="400" viewBox="0 0 2400 1600">
<defs>
  <clipPath id="clip820">
    <rect x="0" y="0" width="2400" height="1600"/>
  </clipPath>
</defs>
<path clip-path="url(#clip820)" d="M0 1600 L2400 1600 L2400 0 L0 0  Z" fill="#ffffff" fill-rule="evenodd" fill-opacity="1"/>
<defs>
  <clipPath id="clip821">
    <rect x="480" y="0" width="1681" height="1600"/>
  </clipPath>
</defs>
<path clip-path="url(#clip820)" d="M251.372 1423.18 L2352.76 1423.18 L2352.76 123.472 L251.372 123.472  Z" fill="#ffffff" fill-rule="evenodd" fill-opacity="1"/>
<defs>
  <clipPath id="clip822">
    <rect x="251" y="123" width="2102" height="1301"/>
  </clipPath>
</defs>
<polyline clip-path="url(#clip822)" style="stroke:#000000; stroke-linecap:round; stroke-linejoin:round; stroke-width:2; stroke-opacity:0.1; fill:none" points="306.672,1423.18 306.672,123.472 "/>
<polyline clip-path="url(#clip822)" style="stroke:#000000; stroke-linecap:round; stroke-linejoin:round; stroke-width:2; stroke-opacity:0.1; fill:none" points="724.027,1423.18 724.027,123.472 "/>
<polyline clip-path="url(#clip822)" style="stroke:#000000; stroke-linecap:round; stroke-linejoin:round; stroke-width:2; stroke-opacity:0.1; fill:none" points="1141.38,1423.18 1141.38,123.472 "/>
<polyline clip-path="url(#clip822)" style="stroke:#000000; stroke-linecap:round; stroke-linejoin:round; stroke-width:2; stroke-opacity:0.1; fill:none" points="1558.74,1423.18 1558.74,123.472 "/>
<polyline clip-path="url(#clip822)" style="stroke:#000000; stroke-linecap:round; stroke-linejoin:round; stroke-width:2; stroke-opacity:0.1; fill:none" points="1976.09,1423.18 1976.09,123.472 "/>
<polyline clip-path="url(#clip820)" style="stroke:#000000; stroke-linecap:round; stroke-linejoin:round; stroke-width:4; stroke-opacity:1; fill:none" points="251.372,1423.18 2352.76,1423.18 "/>
<polyline clip-path="url(#clip820)" style="stroke:#000000; stroke-linecap:round; stroke-linejoin:round; stroke-width:4; stroke-opacity:1; fill:none" points="306.672,1423.18 306.672,1404.28 "/>
<polyline clip-path="url(#clip820)" style="stroke:#000000; stroke-linecap:round; stroke-linejoin:round; stroke-width:4; stroke-opacity:1; fill:none" points="724.027,1423.18 724.027,1404.28 "/>
<polyline clip-path="url(#clip820)" style="stroke:#000000; stroke-linecap:round; stroke-linejoin:round; stroke-width:4; stroke-opacity:1; fill:none" points="1141.38,1423.18 1141.38,1404.28 "/>
<polyline clip-path="url(#clip820)" style="stroke:#000000; stroke-linecap:round; stroke-linejoin:round; stroke-width:4; stroke-opacity:1; fill:none" points="1558.74,1423.18 1558.74,1404.28 "/>
<polyline clip-path="url(#clip820)" style="stroke:#000000; stroke-linecap:round; stroke-linejoin:round; stroke-width:4; stroke-opacity:1; fill:none" points="1976.09,1423.18 1976.09,1404.28 "/>
<path clip-path="url(#clip820)" d="M306.672 1454.1 Q303.061 1454.1 301.232 1457.66 Q299.426 1461.2 299.426 1468.33 Q299.426 1475.44 301.232 1479.01 Q303.061 1482.55 306.672 1482.55 Q310.306 1482.55 312.112 1479.01 Q313.94 1475.44 313.94 1468.33 Q313.94 1461.2 312.112 1457.66 Q310.306 1454.1 306.672 1454.1 M306.672 1450.39 Q312.482 1450.39 315.537 1455 Q318.616 1459.58 318.616 1468.33 Q318.616 1477.06 315.537 1481.67 Q312.482 1486.25 306.672 1486.25 Q300.862 1486.25 297.783 1481.67 Q294.727 1477.06 294.727 1468.33 Q294.727 1459.58 297.783 1455 Q300.862 1450.39 306.672 1450.39 Z" fill="#000000" fill-rule="nonzero" fill-opacity="1" /><path clip-path="url(#clip820)" d="M683.634 1481.64 L691.273 1481.64 L691.273 1455.28 L682.962 1456.95 L682.962 1452.69 L691.226 1451.02 L695.902 1451.02 L695.902 1481.64 L703.541 1481.64 L703.541 1485.58 L683.634 1485.58 L683.634 1481.64 Z" fill="#000000" fill-rule="nonzero" fill-opacity="1" /><path clip-path="url(#clip820)" d="M722.985 1454.1 Q719.374 1454.1 717.546 1457.66 Q715.74 1461.2 715.74 1468.33 Q715.74 1475.44 717.546 1479.01 Q719.374 1482.55 722.985 1482.55 Q726.62 1482.55 728.425 1479.01 Q730.254 1475.44 730.254 1468.33 Q730.254 1461.2 728.425 1457.66 Q726.62 1454.1 722.985 1454.1 M722.985 1450.39 Q728.795 1450.39 731.851 1455 Q734.93 1459.58 734.93 1468.33 Q734.93 1477.06 731.851 1481.67 Q728.795 1486.25 722.985 1486.25 Q717.175 1486.25 714.097 1481.67 Q711.041 1477.06 711.041 1468.33 Q711.041 1459.58 714.097 1455 Q717.175 1450.39 722.985 1450.39 Z" fill="#000000" fill-rule="nonzero" fill-opacity="1" /><path clip-path="url(#clip820)" d="M753.147 1454.1 Q749.536 1454.1 747.707 1457.66 Q745.902 1461.2 745.902 1468.33 Q745.902 1475.44 747.707 1479.01 Q749.536 1482.55 753.147 1482.55 Q756.781 1482.55 758.587 1479.01 Q760.416 1475.44 760.416 1468.33 Q760.416 1461.2 758.587 1457.66 Q756.781 1454.1 753.147 1454.1 M753.147 1450.39 Q758.957 1450.39 762.013 1455 Q765.092 1459.58 765.092 1468.33 Q765.092 1477.06 762.013 1481.67 Q758.957 1486.25 753.147 1486.25 Q747.337 1486.25 744.258 1481.67 Q741.203 1477.06 741.203 1468.33 Q741.203 1459.58 744.258 1455 Q747.337 1450.39 753.147 1450.39 Z" fill="#000000" fill-rule="nonzero" fill-opacity="1" /><path clip-path="url(#clip820)" d="M1105.07 1481.64 L1121.39 1481.64 L1121.39 1485.58 L1099.45 1485.58 L1099.45 1481.64 Q1102.11 1478.89 1106.69 1474.26 Q1111.3 1469.61 1112.48 1468.27 Q1114.73 1465.74 1115.61 1464.01 Q1116.51 1462.25 1116.51 1460.56 Q1116.51 1457.8 1114.57 1456.07 Q1112.64 1454.33 1109.54 1454.33 Q1107.34 1454.33 1104.89 1455.09 Q1102.46 1455.86 1099.68 1457.41 L1099.68 1452.69 Q1102.51 1451.55 1104.96 1450.97 Q1107.41 1450.39 1109.45 1450.39 Q1114.82 1450.39 1118.01 1453.08 Q1121.21 1455.77 1121.21 1460.26 Q1121.21 1462.39 1120.4 1464.31 Q1119.61 1466.2 1117.51 1468.8 Q1116.93 1469.47 1113.82 1472.69 Q1110.72 1475.88 1105.07 1481.64 Z" fill="#000000" fill-rule="nonzero" fill-opacity="1" /><path clip-path="url(#clip820)" d="M1141.21 1454.1 Q1137.6 1454.1 1135.77 1457.66 Q1133.96 1461.2 1133.96 1468.33 Q1133.96 1475.44 1135.77 1479.01 Q1137.6 1482.55 1141.21 1482.55 Q1144.84 1482.55 1146.65 1479.01 Q1148.48 1475.44 1148.48 1468.33 Q1148.48 1461.2 1146.65 1457.66 Q1144.84 1454.1 1141.21 1454.1 M1141.21 1450.39 Q1147.02 1450.39 1150.07 1455 Q1153.15 1459.58 1153.15 1468.33 Q1153.15 1477.06 1150.07 1481.67 Q1147.02 1486.25 1141.21 1486.25 Q1135.4 1486.25 1132.32 1481.67 Q1129.26 1477.06 1129.26 1468.33 Q1129.26 1459.58 1132.32 1455 Q1135.4 1450.39 1141.21 1450.39 Z" fill="#000000" fill-rule="nonzero" fill-opacity="1" /><path clip-path="url(#clip820)" d="M1171.37 1454.1 Q1167.76 1454.1 1165.93 1457.66 Q1164.13 1461.2 1164.13 1468.33 Q1164.13 1475.44 1165.93 1479.01 Q1167.76 1482.55 1171.37 1482.55 Q1175 1482.55 1176.81 1479.01 Q1178.64 1475.44 1178.64 1468.33 Q1178.64 1461.2 1176.81 1457.66 Q1175 1454.1 1171.37 1454.1 M1171.37 1450.39 Q1177.18 1450.39 1180.24 1455 Q1183.31 1459.58 1183.31 1468.33 Q1183.31 1477.06 1180.24 1481.67 Q1177.18 1486.25 1171.37 1486.25 Q1165.56 1486.25 1162.48 1481.67 Q1159.43 1477.06 1159.43 1468.33 Q1159.43 1459.58 1162.48 1455 Q1165.56 1450.39 1171.37 1450.39 Z" fill="#000000" fill-rule="nonzero" fill-opacity="1" /><path clip-path="url(#clip820)" d="M1532.5 1466.95 Q1535.86 1467.66 1537.73 1469.93 Q1539.63 1472.2 1539.63 1475.53 Q1539.63 1480.65 1536.11 1483.45 Q1532.59 1486.25 1526.11 1486.25 Q1523.93 1486.25 1521.62 1485.81 Q1519.33 1485.39 1516.87 1484.54 L1516.87 1480.02 Q1518.82 1481.16 1521.13 1481.74 Q1523.45 1482.32 1525.97 1482.32 Q1530.37 1482.32 1532.66 1480.58 Q1534.98 1478.84 1534.98 1475.53 Q1534.98 1472.48 1532.82 1470.77 Q1530.69 1469.03 1526.87 1469.03 L1522.85 1469.03 L1522.85 1465.19 L1527.06 1465.19 Q1530.51 1465.19 1532.34 1463.82 Q1534.17 1462.43 1534.17 1459.84 Q1534.17 1457.18 1532.27 1455.77 Q1530.39 1454.33 1526.87 1454.33 Q1524.95 1454.33 1522.75 1454.75 Q1520.55 1455.16 1517.92 1456.04 L1517.92 1451.88 Q1520.58 1451.14 1522.89 1450.77 Q1525.23 1450.39 1527.29 1450.39 Q1532.61 1450.39 1535.72 1452.83 Q1538.82 1455.23 1538.82 1459.35 Q1538.82 1462.22 1537.18 1464.21 Q1535.53 1466.18 1532.5 1466.95 Z" fill="#000000" fill-rule="nonzero" fill-opacity="1" /><path clip-path="url(#clip820)" d="M1558.49 1454.1 Q1554.88 1454.1 1553.05 1457.66 Q1551.25 1461.2 1551.25 1468.33 Q1551.25 1475.44 1553.05 1479.01 Q1554.88 1482.55 1558.49 1482.55 Q1562.13 1482.55 1563.93 1479.01 Q1565.76 1475.44 1565.76 1468.33 Q1565.76 1461.2 1563.93 1457.66 Q1562.13 1454.1 1558.49 1454.1 M1558.49 1450.39 Q1564.3 1450.39 1567.36 1455 Q1570.44 1459.58 1570.44 1468.33 Q1570.44 1477.06 1567.36 1481.67 Q1564.3 1486.25 1558.49 1486.25 Q1552.68 1486.25 1549.61 1481.67 Q1546.55 1477.06 1546.55 1468.33 Q1546.55 1459.58 1549.61 1455 Q1552.68 1450.39 1558.49 1450.39 Z" fill="#000000" fill-rule="nonzero" fill-opacity="1" /><path clip-path="url(#clip820)" d="M1588.66 1454.1 Q1585.05 1454.1 1583.22 1457.66 Q1581.41 1461.2 1581.41 1468.33 Q1581.41 1475.44 1583.22 1479.01 Q1585.05 1482.55 1588.66 1482.55 Q1592.29 1482.55 1594.1 1479.01 Q1595.92 1475.44 1595.92 1468.33 Q1595.92 1461.2 1594.1 1457.66 Q1592.29 1454.1 1588.66 1454.1 M1588.66 1450.39 Q1594.47 1450.39 1597.52 1455 Q1600.6 1459.58 1600.6 1468.33 Q1600.6 1477.06 1597.52 1481.67 Q1594.47 1486.25 1588.66 1486.25 Q1582.85 1486.25 1579.77 1481.67 Q1576.71 1477.06 1576.71 1468.33 Q1576.71 1459.58 1579.77 1455 Q1582.85 1450.39 1588.66 1450.39 Z" fill="#000000" fill-rule="nonzero" fill-opacity="1" /><path clip-path="url(#clip820)" d="M1949.18 1455.09 L1937.38 1473.54 L1949.18 1473.54 L1949.18 1455.09 M1947.96 1451.02 L1953.84 1451.02 L1953.84 1473.54 L1958.77 1473.54 L1958.77 1477.43 L1953.84 1477.43 L1953.84 1485.58 L1949.18 1485.58 L1949.18 1477.43 L1933.58 1477.43 L1933.58 1472.92 L1947.96 1451.02 Z" fill="#000000" fill-rule="nonzero" fill-opacity="1" /><path clip-path="url(#clip820)" d="M1976.5 1454.1 Q1972.89 1454.1 1971.06 1457.66 Q1969.25 1461.2 1969.25 1468.33 Q1969.25 1475.44 1971.06 1479.01 Q1972.89 1482.55 1976.5 1482.55 Q1980.13 1482.55 1981.94 1479.01 Q1983.77 1475.44 1983.77 1468.33 Q1983.77 1461.2 1981.94 1457.66 Q1980.13 1454.1 1976.5 1454.1 M1976.5 1450.39 Q1982.31 1450.39 1985.36 1455 Q1988.44 1459.58 1988.44 1468.33 Q1988.44 1477.06 1985.36 1481.67 Q1982.31 1486.25 1976.5 1486.25 Q1970.69 1486.25 1967.61 1481.67 Q1964.55 1477.06 1964.55 1468.33 Q1964.55 1459.58 1967.61 1455 Q1970.69 1450.39 1976.5 1450.39 Z" fill="#000000" fill-rule="nonzero" fill-opacity="1" /><path clip-path="url(#clip820)" d="M2006.66 1454.1 Q2003.05 1454.1 2001.22 1457.66 Q1999.41 1461.2 1999.41 1468.33 Q1999.41 1475.44 2001.22 1479.01 Q2003.05 1482.55 2006.66 1482.55 Q2010.29 1482.55 2012.1 1479.01 Q2013.93 1475.44 2013.93 1468.33 Q2013.93 1461.2 2012.1 1457.66 Q2010.29 1454.1 2006.66 1454.1 M2006.66 1450.39 Q2012.47 1450.39 2015.53 1455 Q2018.6 1459.58 2018.6 1468.33 Q2018.6 1477.06 2015.53 1481.67 Q2012.47 1486.25 2006.66 1486.25 Q2000.85 1486.25 1997.77 1481.67 Q1994.72 1477.06 1994.72 1468.33 Q1994.72 1459.58 1997.77 1455 Q2000.85 1450.39 2006.66 1450.39 Z" fill="#000000" fill-rule="nonzero" fill-opacity="1" /><path clip-path="url(#clip820)" d="M1286.25 1518.52 L1292.13 1518.52 L1292.13 1547.77 L1309.61 1532.4 L1317.09 1532.4 L1298.18 1549.07 L1317.88 1568.04 L1310.24 1568.04 L1292.13 1550.63 L1292.13 1568.04 L1286.25 1568.04 L1286.25 1518.52 Z" fill="#000000" fill-rule="nonzero" fill-opacity="1" /><polyline clip-path="url(#clip822)" style="stroke:#000000; stroke-linecap:round; stroke-linejoin:round; stroke-width:2; stroke-opacity:0.1; fill:none" points="251.372,1208.03 2352.76,1208.03 "/>
<polyline clip-path="url(#clip822)" style="stroke:#000000; stroke-linecap:round; stroke-linejoin:round; stroke-width:2; stroke-opacity:0.1; fill:none" points="251.372,983.546 2352.76,983.546 "/>
<polyline clip-path="url(#clip822)" style="stroke:#000000; stroke-linecap:round; stroke-linejoin:round; stroke-width:2; stroke-opacity:0.1; fill:none" points="251.372,759.061 2352.76,759.061 "/>
<polyline clip-path="url(#clip822)" style="stroke:#000000; stroke-linecap:round; stroke-linejoin:round; stroke-width:2; stroke-opacity:0.1; fill:none" points="251.372,534.575 2352.76,534.575 "/>
<polyline clip-path="url(#clip822)" style="stroke:#000000; stroke-linecap:round; stroke-linejoin:round; stroke-width:2; stroke-opacity:0.1; fill:none" points="251.372,310.09 2352.76,310.09 "/>
<polyline clip-path="url(#clip820)" style="stroke:#000000; stroke-linecap:round; stroke-linejoin:round; stroke-width:4; stroke-opacity:1; fill:none" points="251.372,1423.18 251.372,123.472 "/>
<polyline clip-path="url(#clip820)" style="stroke:#000000; stroke-linecap:round; stroke-linejoin:round; stroke-width:4; stroke-opacity:1; fill:none" points="251.372,1208.03 270.27,1208.03 "/>
<polyline clip-path="url(#clip820)" style="stroke:#000000; stroke-linecap:round; stroke-linejoin:round; stroke-width:4; stroke-opacity:1; fill:none" points="251.372,983.546 270.27,983.546 "/>
<polyline clip-path="url(#clip820)" style="stroke:#000000; stroke-linecap:round; stroke-linejoin:round; stroke-width:4; stroke-opacity:1; fill:none" points="251.372,759.061 270.27,759.061 "/>
<polyline clip-path="url(#clip820)" style="stroke:#000000; stroke-linecap:round; stroke-linejoin:round; stroke-width:4; stroke-opacity:1; fill:none" points="251.372,534.575 270.27,534.575 "/>
<polyline clip-path="url(#clip820)" style="stroke:#000000; stroke-linecap:round; stroke-linejoin:round; stroke-width:4; stroke-opacity:1; fill:none" points="251.372,310.09 270.27,310.09 "/>
<path clip-path="url(#clip820)" d="M115.232 1227.82 L122.871 1227.82 L122.871 1201.46 L114.561 1203.12 L114.561 1198.87 L122.825 1197.2 L127.501 1197.2 L127.501 1227.82 L135.14 1227.82 L135.14 1231.76 L115.232 1231.76 L115.232 1227.82 Z" fill="#000000" fill-rule="nonzero" fill-opacity="1" /><path clip-path="url(#clip820)" d="M154.584 1200.28 Q150.973 1200.28 149.144 1203.84 Q147.339 1207.38 147.339 1214.51 Q147.339 1221.62 149.144 1225.18 Q150.973 1228.73 154.584 1228.73 Q158.218 1228.73 160.024 1225.18 Q161.852 1221.62 161.852 1214.51 Q161.852 1207.38 160.024 1203.84 Q158.218 1200.28 154.584 1200.28 M154.584 1196.57 Q160.394 1196.57 163.45 1201.18 Q166.528 1205.76 166.528 1214.51 Q166.528 1223.24 163.45 1227.85 Q160.394 1232.43 154.584 1232.43 Q148.774 1232.43 145.695 1227.85 Q142.64 1223.24 142.64 1214.51 Q142.64 1205.76 145.695 1201.18 Q148.774 1196.57 154.584 1196.57 Z" fill="#000000" fill-rule="nonzero" fill-opacity="1" /><path clip-path="url(#clip820)" d="M166.528 1190.68 L190.64 1190.68 L190.64 1193.87 L166.528 1193.87 L166.528 1190.68 Z" fill="#000000" fill-rule="nonzero" fill-opacity="1" /><path clip-path="url(#clip820)" d="M202.113 1201.15 L215.372 1201.15 L215.372 1204.35 L197.542 1204.35 L197.542 1201.15 Q199.705 1198.91 203.429 1195.15 Q207.172 1191.37 208.131 1190.28 Q209.956 1188.23 210.67 1186.82 Q211.404 1185.39 211.404 1184.02 Q211.404 1181.78 209.824 1180.37 Q208.263 1178.96 205.743 1178.96 Q203.956 1178.96 201.962 1179.58 Q199.987 1180.2 197.73 1181.46 L197.73 1177.62 Q200.025 1176.7 202.019 1176.23 Q204.012 1175.76 205.667 1175.76 Q210.031 1175.76 212.626 1177.94 Q215.222 1180.12 215.222 1183.77 Q215.222 1185.5 214.563 1187.06 Q213.924 1188.61 212.212 1190.71 Q211.742 1191.26 209.222 1193.87 Q206.702 1196.47 202.113 1201.15 Z" fill="#000000" fill-rule="nonzero" fill-opacity="1" /><path clip-path="url(#clip820)" d="M114.931 1003.34 L122.57 1003.34 L122.57 976.973 L114.26 978.639 L114.26 974.38 L122.524 972.713 L127.2 972.713 L127.2 1003.34 L134.839 1003.34 L134.839 1007.27 L114.931 1007.27 L114.931 1003.34 Z" fill="#000000" fill-rule="nonzero" fill-opacity="1" /><path clip-path="url(#clip820)" d="M154.283 975.792 Q150.672 975.792 148.843 979.357 Q147.038 982.899 147.038 990.028 Q147.038 997.135 148.843 1000.7 Q150.672 1004.24 154.283 1004.24 Q157.917 1004.24 159.723 1000.7 Q161.552 997.135 161.552 990.028 Q161.552 982.899 159.723 979.357 Q157.917 975.792 154.283 975.792 M154.283 972.088 Q160.093 972.088 163.149 976.695 Q166.227 981.278 166.227 990.028 Q166.227 998.755 163.149 1003.36 Q160.093 1007.94 154.283 1007.94 Q148.473 1007.94 145.394 1003.36 Q142.339 998.755 142.339 990.028 Q142.339 981.278 145.394 976.695 Q148.473 972.088 154.283 972.088 Z" fill="#000000" fill-rule="nonzero" fill-opacity="1" /><path clip-path="url(#clip820)" d="M166.227 966.19 L190.339 966.19 L190.339 969.387 L166.227 969.387 L166.227 966.19 Z" fill="#000000" fill-rule="nonzero" fill-opacity="1" /><path clip-path="url(#clip820)" d="M199.197 976.666 L205.404 976.666 L205.404 955.244 L198.652 956.598 L198.652 953.137 L205.366 951.783 L209.166 951.783 L209.166 976.666 L215.372 976.666 L215.372 979.863 L199.197 979.863 L199.197 976.666 Z" fill="#000000" fill-rule="nonzero" fill-opacity="1" /><path clip-path="url(#clip820)" d="M144.667 778.853 L152.305 778.853 L152.305 752.487 L143.995 754.154 L143.995 749.895 L152.259 748.228 L156.935 748.228 L156.935 778.853 L164.574 778.853 L164.574 782.788 L144.667 782.788 L144.667 778.853 Z" fill="#000000" fill-rule="nonzero" fill-opacity="1" /><path clip-path="url(#clip820)" d="M184.018 751.307 Q180.407 751.307 178.578 754.872 Q176.773 758.413 176.773 765.543 Q176.773 772.649 178.578 776.214 Q180.407 779.756 184.018 779.756 Q187.652 779.756 189.458 776.214 Q191.287 772.649 191.287 765.543 Q191.287 758.413 189.458 754.872 Q187.652 751.307 184.018 751.307 M184.018 747.603 Q189.828 747.603 192.884 752.21 Q195.963 756.793 195.963 765.543 Q195.963 774.27 192.884 778.876 Q189.828 783.459 184.018 783.459 Q178.208 783.459 175.129 778.876 Q172.074 774.27 172.074 765.543 Q172.074 756.793 175.129 752.21 Q178.208 747.603 184.018 747.603 Z" fill="#000000" fill-rule="nonzero" fill-opacity="1" /><path clip-path="url(#clip820)" d="M205.667 729.799 Q202.733 729.799 201.248 732.696 Q199.781 735.573 199.781 741.366 Q199.781 747.14 201.248 750.036 Q202.733 752.914 205.667 752.914 Q208.62 752.914 210.087 750.036 Q211.573 747.14 211.573 741.366 Q211.573 735.573 210.087 732.696 Q208.62 729.799 205.667 729.799 M205.667 726.79 Q210.388 726.79 212.871 730.533 Q215.372 734.257 215.372 741.366 Q215.372 748.456 212.871 752.199 Q210.388 755.923 205.667 755.923 Q200.947 755.923 198.445 752.199 Q195.963 748.456 195.963 741.366 Q195.963 734.257 198.445 730.533 Q200.947 726.79 205.667 726.79 Z" fill="#000000" fill-rule="nonzero" fill-opacity="1" /><path clip-path="url(#clip820)" d="M147.356 554.368 L154.995 554.368 L154.995 528.002 L146.685 529.669 L146.685 525.409 L154.949 523.743 L159.624 523.743 L159.624 554.368 L167.263 554.368 L167.263 558.303 L147.356 558.303 L147.356 554.368 Z" fill="#000000" fill-rule="nonzero" fill-opacity="1" /><path clip-path="url(#clip820)" d="M186.708 526.821 Q183.097 526.821 181.268 530.386 Q179.462 533.928 179.462 541.057 Q179.462 548.164 181.268 551.729 Q183.097 555.27 186.708 555.27 Q190.342 555.27 192.147 551.729 Q193.976 548.164 193.976 541.057 Q193.976 533.928 192.147 530.386 Q190.342 526.821 186.708 526.821 M186.708 523.118 Q192.518 523.118 195.573 527.724 Q198.652 532.307 198.652 541.057 Q198.652 549.784 195.573 554.391 Q192.518 558.974 186.708 558.974 Q180.898 558.974 177.819 554.391 Q174.763 549.784 174.763 541.057 Q174.763 532.307 177.819 527.724 Q180.898 523.118 186.708 523.118 Z" fill="#000000" fill-rule="nonzero" fill-opacity="1" /><path clip-path="url(#clip820)" d="M199.197 527.695 L205.404 527.695 L205.404 506.273 L198.652 507.627 L198.652 504.166 L205.366 502.812 L209.166 502.812 L209.166 527.695 L215.372 527.695 L215.372 530.892 L199.197 530.892 L199.197 527.695 Z" fill="#000000" fill-rule="nonzero" fill-opacity="1" /><path clip-path="url(#clip820)" d="M146.246 329.882 L153.885 329.882 L153.885 303.517 L145.575 305.183 L145.575 300.924 L153.839 299.257 L158.515 299.257 L158.515 329.882 L166.154 329.882 L166.154 333.817 L146.246 333.817 L146.246 329.882 Z" fill="#000000" fill-rule="nonzero" fill-opacity="1" /><path clip-path="url(#clip820)" d="M185.598 302.336 Q181.987 302.336 180.158 305.901 Q178.353 309.442 178.353 316.572 Q178.353 323.679 180.158 327.243 Q181.987 330.785 185.598 330.785 Q189.232 330.785 191.038 327.243 Q192.867 323.679 192.867 316.572 Q192.867 309.442 191.038 305.901 Q189.232 302.336 185.598 302.336 M185.598 298.632 Q191.408 298.632 194.464 303.239 Q197.542 307.822 197.542 316.572 Q197.542 325.299 194.464 329.905 Q191.408 334.489 185.598 334.489 Q179.788 334.489 176.709 329.905 Q173.654 325.299 173.654 316.572 Q173.654 307.822 176.709 303.239 Q179.788 298.632 185.598 298.632 Z" fill="#000000" fill-rule="nonzero" fill-opacity="1" /><path clip-path="url(#clip820)" d="M202.113 303.21 L215.372 303.21 L215.372 306.407 L197.542 306.407 L197.542 303.21 Q199.705 300.971 203.429 297.21 Q207.172 293.43 208.131 292.339 Q209.956 290.289 210.67 288.878 Q211.404 287.449 211.404 286.076 Q211.404 283.838 209.824 282.427 Q208.263 281.016 205.743 281.016 Q203.956 281.016 201.962 281.637 Q199.987 282.258 197.73 283.518 L197.73 279.681 Q200.025 278.76 202.019 278.289 Q204.012 277.819 205.667 277.819 Q210.031 277.819 212.626 280.001 Q215.222 282.183 215.222 285.831 Q215.222 287.562 214.563 289.123 Q213.924 290.665 212.212 292.771 Q211.742 293.317 209.222 295.931 Q206.702 298.526 202.113 303.21 Z" fill="#000000" fill-rule="nonzero" fill-opacity="1" /><path clip-path="url(#clip820)" d="M32.4621 801.797 Q32.4621 806.507 36.1542 809.244 Q39.8145 811.982 46.212 811.982 Q52.6095 811.982 56.3017 809.276 Q59.9619 806.539 59.9619 801.797 Q59.9619 797.118 56.2698 794.381 Q52.5777 791.643 46.212 791.643 Q39.8781 791.643 36.186 794.381 Q32.4621 797.118 32.4621 801.797 M27.4968 801.797 Q27.4968 794.158 32.4621 789.797 Q37.4273 785.437 46.212 785.437 Q54.9649 785.437 59.9619 789.797 Q64.9272 794.158 64.9272 801.797 Q64.9272 809.467 59.9619 813.828 Q54.9649 818.156 46.212 818.156 Q37.4273 818.156 32.4621 813.828 Q27.4968 809.467 27.4968 801.797 Z" fill="#000000" fill-rule="nonzero" fill-opacity="1" /><path clip-path="url(#clip820)" d="M46.212 750.139 Q39.7508 750.139 36.0905 752.812 Q32.3984 755.454 32.3984 760.101 Q32.3984 764.748 36.0905 767.422 Q39.7508 770.064 46.212 770.064 Q52.6732 770.064 56.3653 767.422 Q60.0256 764.748 60.0256 760.101 Q60.0256 755.454 56.3653 752.812 Q52.6732 750.139 46.212 750.139 M33.7671 770.064 Q30.5842 768.218 29.0564 765.417 Q27.4968 762.584 27.4968 758.669 Q27.4968 752.176 32.6531 748.134 Q37.8093 744.06 46.212 744.06 Q54.6147 744.06 59.771 748.134 Q64.9272 752.176 64.9272 758.669 Q64.9272 762.584 63.3994 765.417 Q61.8398 768.218 58.657 770.064 L64.0042 770.064 L64.0042 775.952 L14.479 775.952 L14.479 770.064 L33.7671 770.064 Z" fill="#000000" fill-rule="nonzero" fill-opacity="1" /><path clip-path="url(#clip820)" d="M28.3562 734.352 L28.3562 728.495 L64.6407 728.495 Q71.452 728.495 74.5076 731.105 Q77.5631 733.684 77.5631 739.445 L77.5631 741.673 L72.5979 741.673 L72.5979 740.113 Q72.5979 736.771 71.0383 735.561 Q69.5105 734.352 64.6407 734.352 L28.3562 734.352 M14.479 734.352 L14.479 728.495 L21.895 728.495 L21.895 734.352 L14.479 734.352 Z" fill="#000000" fill-rule="nonzero" fill-opacity="1" /><path clip-path="url(#clip820)" d="M958.203 65.7705 L958.203 89.8329 L950.709 89.8329 L950.709 27.2059 L958.203 27.2059 L958.203 34.0924 Q960.553 30.0415 964.117 28.0971 Q967.723 26.1121 972.705 26.1121 Q980.969 26.1121 986.114 32.6746 Q991.299 39.2371 991.299 49.9314 Q991.299 60.6258 986.114 67.1883 Q980.969 73.7508 972.705 73.7508 Q967.723 73.7508 964.117 71.8063 Q960.553 69.8214 958.203 65.7705 M983.562 49.9314 Q983.562 41.7081 980.159 37.0496 Q976.797 32.3505 970.882 32.3505 Q964.968 32.3505 961.565 37.0496 Q958.203 41.7081 958.203 49.9314 Q958.203 58.1548 961.565 62.8538 Q964.968 67.5124 970.882 67.5124 Q976.797 67.5124 980.159 62.8538 Q983.562 58.1548 983.562 49.9314 Z" fill="#000000" fill-rule="nonzero" fill-opacity="1" /><path clip-path="url(#clip820)" d="M1029.94 34.1734 Q1028.69 33.4443 1027.19 33.1202 Q1025.73 32.7556 1023.95 32.7556 Q1017.63 32.7556 1014.23 36.8875 Q1010.86 40.9789 1010.86 48.6757 L1010.86 72.576 L1003.37 72.576 L1003.37 27.2059 L1010.86 27.2059 L1010.86 34.2544 Q1013.21 30.1225 1016.98 28.1376 Q1020.75 26.1121 1026.14 26.1121 Q1026.91 26.1121 1027.84 26.2337 Q1028.77 26.3147 1029.9 26.5172 L1029.94 34.1734 Z" fill="#000000" fill-rule="nonzero" fill-opacity="1" /><path clip-path="url(#clip820)" d="M1053.52 32.4315 Q1047.53 32.4315 1044.04 37.1306 Q1040.56 41.7891 1040.56 49.9314 Q1040.56 58.0738 1044 62.7728 Q1047.48 67.4314 1053.52 67.4314 Q1059.48 67.4314 1062.96 62.7323 Q1066.44 58.0333 1066.44 49.9314 Q1066.44 41.8701 1062.96 37.1711 Q1059.48 32.4315 1053.52 32.4315 M1053.52 26.1121 Q1063.24 26.1121 1068.79 32.4315 Q1074.34 38.7509 1074.34 49.9314 Q1074.34 61.0714 1068.79 67.4314 Q1063.24 73.7508 1053.52 73.7508 Q1043.76 73.7508 1038.21 67.4314 Q1032.7 61.0714 1032.7 49.9314 Q1032.7 38.7509 1038.21 32.4315 Q1043.76 26.1121 1053.52 26.1121 Z" fill="#000000" fill-rule="nonzero" fill-opacity="1" /><path clip-path="url(#clip820)" d="M1119.27 49.9314 Q1119.27 41.7081 1115.86 37.0496 Q1112.5 32.3505 1106.59 32.3505 Q1100.67 32.3505 1097.27 37.0496 Q1093.91 41.7081 1093.91 49.9314 Q1093.91 58.1548 1097.27 62.8538 Q1100.67 67.5124 1106.59 67.5124 Q1112.5 67.5124 1115.86 62.8538 Q1119.27 58.1548 1119.27 49.9314 M1093.91 34.0924 Q1096.26 30.0415 1099.82 28.0971 Q1103.43 26.1121 1108.41 26.1121 Q1116.67 26.1121 1121.82 32.6746 Q1127 39.2371 1127 49.9314 Q1127 60.6258 1121.82 67.1883 Q1116.67 73.7508 1108.41 73.7508 Q1103.43 73.7508 1099.82 71.8063 Q1096.26 69.8214 1093.91 65.7705 L1093.91 72.576 L1086.41 72.576 L1086.41 9.54393 L1093.91 9.54393 L1093.91 34.0924 Z" fill="#000000" fill-rule="nonzero" fill-opacity="1" /><path clip-path="url(#clip820)" d="M1139.36 9.54393 L1146.81 9.54393 L1146.81 72.576 L1139.36 72.576 L1139.36 9.54393 Z" fill="#000000" fill-rule="nonzero" fill-opacity="1" /><path clip-path="url(#clip820)" d="M1201.22 48.0275 L1201.22 51.6733 L1166.95 51.6733 Q1167.43 59.3701 1171.56 63.421 Q1175.74 67.4314 1183.15 67.4314 Q1187.44 67.4314 1191.45 66.3781 Q1195.51 65.3249 1199.47 63.2184 L1199.47 70.267 Q1195.46 71.9684 1191.25 72.8596 Q1187.04 73.7508 1182.7 73.7508 Q1171.85 73.7508 1165.49 67.4314 Q1159.17 61.1119 1159.17 50.3365 Q1159.17 39.1965 1165.16 32.6746 Q1171.2 26.1121 1181.41 26.1121 Q1190.56 26.1121 1195.87 32.0264 Q1201.22 37.9003 1201.22 48.0275 M1193.76 45.84 Q1193.68 39.7232 1190.32 36.0774 Q1187 32.4315 1181.49 32.4315 Q1175.25 32.4315 1171.48 35.9558 Q1167.76 39.4801 1167.19 45.8805 L1193.76 45.84 M1175.09 6.22219 L1186.51 21.3726 L1180.31 21.3726 L1167.11 6.22219 L1175.09 6.22219 Z" fill="#000000" fill-rule="nonzero" fill-opacity="1" /><path clip-path="url(#clip820)" d="M1248.77 35.9153 Q1251.57 30.8922 1255.46 28.5022 Q1259.35 26.1121 1264.61 26.1121 Q1271.7 26.1121 1275.55 31.0947 Q1279.4 36.0368 1279.4 45.1919 L1279.4 72.576 L1271.91 72.576 L1271.91 45.4349 Q1271.91 38.913 1269.6 35.7533 Q1267.29 32.5936 1262.55 32.5936 Q1256.75 32.5936 1253.39 36.4419 Q1250.03 40.2903 1250.03 46.9338 L1250.03 72.576 L1242.54 72.576 L1242.54 45.4349 Q1242.54 38.8725 1240.23 35.7533 Q1237.92 32.5936 1233.1 32.5936 Q1227.39 32.5936 1224.02 36.4824 Q1220.66 40.3308 1220.66 46.9338 L1220.66 72.576 L1213.17 72.576 L1213.17 27.2059 L1220.66 27.2059 L1220.66 34.2544 Q1223.21 30.082 1226.78 28.0971 Q1230.34 26.1121 1235.24 26.1121 Q1240.19 26.1121 1243.63 28.6237 Q1247.11 31.1352 1248.77 35.9153 Z" fill="#000000" fill-rule="nonzero" fill-opacity="1" /><path clip-path="url(#clip820)" d="M1333.07 48.0275 L1333.07 51.6733 L1298.8 51.6733 Q1299.29 59.3701 1303.42 63.421 Q1307.59 67.4314 1315.01 67.4314 Q1319.3 67.4314 1323.31 66.3781 Q1327.36 65.3249 1331.33 63.2184 L1331.33 70.267 Q1327.32 71.9684 1323.11 72.8596 Q1318.9 73.7508 1314.56 73.7508 Q1303.7 73.7508 1297.34 67.4314 Q1291.03 61.1119 1291.03 50.3365 Q1291.03 39.1965 1297.02 32.6746 Q1303.06 26.1121 1313.26 26.1121 Q1322.42 26.1121 1327.73 32.0264 Q1333.07 37.9003 1333.07 48.0275 M1325.62 45.84 Q1325.54 39.7232 1322.18 36.0774 Q1318.86 32.4315 1313.35 32.4315 Q1307.11 32.4315 1303.34 35.9558 Q1299.61 39.4801 1299.05 45.8805 L1325.62 45.84 Z" fill="#000000" fill-rule="nonzero" fill-opacity="1" /><path clip-path="url(#clip820)" d="M1373.58 62.2867 L1382.13 62.2867 L1382.13 72.576 L1373.58 72.576 L1373.58 62.2867 M1373.58 29.6769 L1382.13 29.6769 L1382.13 39.9662 L1373.58 39.9662 L1373.58 29.6769 Z" fill="#000000" fill-rule="nonzero" fill-opacity="1" /><path clip-path="url(#clip820)" d="M1433.37 14.324 L1433.37 27.2059 L1448.73 27.2059 L1448.73 32.9987 L1433.37 32.9987 L1433.37 57.6282 Q1433.37 63.1779 1434.87 64.7578 Q1436.41 66.3376 1441.07 66.3376 L1448.73 66.3376 L1448.73 72.576 L1441.07 72.576 Q1432.44 72.576 1429.16 69.3758 Q1425.88 66.1351 1425.88 57.6282 L1425.88 32.9987 L1420.41 32.9987 L1420.41 27.2059 L1425.88 27.2059 L1425.88 14.324 L1433.37 14.324 Z" fill="#000000" fill-rule="nonzero" fill-opacity="1" /><path clip-path="url(#clip820)" d="M1465.74 65.7705 L1465.74 89.8329 L1458.25 89.8329 L1458.25 27.2059 L1465.74 27.2059 L1465.74 34.0924 Q1468.09 30.0415 1471.66 28.0971 Q1475.26 26.1121 1480.24 26.1121 Q1488.51 26.1121 1493.65 32.6746 Q1498.84 39.2371 1498.84 49.9314 Q1498.84 60.6258 1493.65 67.1883 Q1488.51 73.7508 1480.24 73.7508 Q1475.26 73.7508 1471.66 71.8063 Q1468.09 69.8214 1465.74 65.7705 M1491.1 49.9314 Q1491.1 41.7081 1487.7 37.0496 Q1484.33 32.3505 1478.42 32.3505 Q1472.51 32.3505 1469.1 37.0496 Q1465.74 41.7081 1465.74 49.9314 Q1465.74 58.1548 1469.1 62.8538 Q1472.51 67.5124 1478.42 67.5124 Q1484.33 67.5124 1487.7 62.8538 Q1491.1 58.1548 1491.1 49.9314 Z" fill="#000000" fill-rule="nonzero" fill-opacity="1" /><path clip-path="url(#clip820)" d="M1519.29 65.6895 L1547.85 65.6895 L1547.85 72.576 L1509.45 72.576 L1509.45 65.6895 Q1514.11 60.8689 1522.13 52.7671 Q1530.19 44.6248 1532.26 42.2752 Q1536.19 37.8598 1537.73 34.8216 Q1539.31 31.7429 1539.31 28.7857 Q1539.31 23.9651 1535.9 20.927 Q1532.54 17.8888 1527.11 17.8888 Q1523.26 17.8888 1518.97 19.2256 Q1514.72 20.5624 1509.86 23.2765 L1509.86 15.0127 Q1514.8 13.0277 1519.09 12.015 Q1523.39 11.0023 1526.95 11.0023 Q1536.35 11.0023 1541.94 15.7013 Q1547.53 20.4004 1547.53 28.2591 Q1547.53 31.9859 1546.11 35.3482 Q1544.73 38.6699 1541.05 43.2069 Q1540.03 44.3817 1534.61 50.0125 Q1529.18 55.6027 1519.29 65.6895 Z" fill="#000000" fill-rule="nonzero" fill-opacity="1" /><path clip-path="url(#clip820)" d="M1565.27 71.3202 L1565.27 63.8666 Q1568.35 65.3249 1571.51 66.0946 Q1574.67 66.8642 1577.71 66.8642 Q1585.81 66.8642 1590.06 61.436 Q1594.36 55.9673 1594.96 44.8678 Q1592.62 48.3516 1589.01 50.215 Q1585.4 52.0784 1581.03 52.0784 Q1571.96 52.0784 1566.65 46.6097 Q1561.38 41.1005 1561.38 31.5808 Q1561.38 22.2638 1566.89 16.633 Q1572.4 11.0023 1581.56 11.0023 Q1592.05 11.0023 1597.56 19.0636 Q1603.11 27.0843 1603.11 42.3968 Q1603.11 56.6965 1596.3 65.2439 Q1589.54 73.7508 1578.07 73.7508 Q1574.99 73.7508 1571.83 73.1431 Q1568.67 72.5355 1565.27 71.3202 M1581.56 45.678 Q1587.07 45.678 1590.27 41.9107 Q1593.51 38.1433 1593.51 31.5808 Q1593.51 25.0589 1590.27 21.2916 Q1587.07 17.4837 1581.56 17.4837 Q1576.05 17.4837 1572.81 21.2916 Q1569.61 25.0589 1569.61 31.5808 Q1569.61 38.1433 1572.81 41.9107 Q1576.05 45.678 1581.56 45.678 Z" fill="#000000" fill-rule="nonzero" fill-opacity="1" /><path clip-path="url(#clip820)" d="M1624.86 65.6895 L1653.42 65.6895 L1653.42 72.576 L1615.02 72.576 L1615.02 65.6895 Q1619.68 60.8689 1627.7 52.7671 Q1635.76 44.6248 1637.82 42.2752 Q1641.75 37.8598 1643.29 34.8216 Q1644.87 31.7429 1644.87 28.7857 Q1644.87 23.9651 1641.47 20.927 Q1638.11 17.8888 1632.68 17.8888 Q1628.83 17.8888 1624.54 19.2256 Q1620.28 20.5624 1615.42 23.2765 L1615.42 15.0127 Q1620.36 13.0277 1624.66 12.015 Q1628.95 11.0023 1632.52 11.0023 Q1641.91 11.0023 1647.5 15.7013 Q1653.1 20.4004 1653.1 28.2591 Q1653.1 31.9859 1651.68 35.3482 Q1650.3 38.6699 1646.61 43.2069 Q1645.6 44.3817 1640.17 50.0125 Q1634.74 55.6027 1624.86 65.6895 Z" fill="#000000" fill-rule="nonzero" fill-opacity="1" /><polyline clip-path="url(#clip822)" style="stroke:#009af9; stroke-linecap:round; stroke-linejoin:round; stroke-width:4; stroke-opacity:1; fill:none" points="310.845,160.256 315.019,283.949 319.192,341.836 323.366,408.469 327.54,429.289 331.713,478.899 335.887,505.636 340.06,505.636 344.234,505.636 348.407,505.636 352.581,505.636 356.754,505.636 360.928,505.636 365.101,505.636 369.275,505.636 373.449,529.263 377.622,529.263 381.796,547.585 385.969,561.977 390.143,573.647 394.316,584.208 398.49,593.346 402.663,593.346 406.837,602.236 411.011,610.117 415.184,610.117 419.358,628.767 423.531,639.588 427.705,639.588 431.878,648.881 436.052,657.83 440.225,664.191 444.399,669.234 448.573,669.234 452.746,675.404 456.92,680.568 461.093,685.464 465.267,685.464 469.44,691.148 473.614,695.98 477.787,700.238 481.961,700.238 486.135,708.294 490.308,714.855 494.482,718.854 498.655,722.344 502.829,725.062 507.002,725.062 511.176,729.029 515.349,732.148 519.523,732.148 523.696,737.645 527.87,742.256 532.044,745.417 536.217,748.301 540.391,750.648 544.564,750.648 548.738,753.881 552.911,756.48 557.085,756.48 561.258,761.181 565.432,764.854 569.606,767.107 573.779,769.172 577.953,770.376 582.126,770.376 586.3,773.049 590.473,775.181 594.647,777.086 598.82,777.086 602.994,784.317 607.168,789.45 611.341,792.025 615.515,794.284 619.688,794.952 623.862,798.64 628.035,800.77 632.209,802.128 636.382,802.128 640.556,804.685 644.73,806.536 648.903,806.536 653.077,811.789 657.25,815.27 661.424,816.67 665.597,817.881 669.771,817.881 673.944,819.212 678.118,820.472 682.291,821.715 686.465,825.904 690.639,837.7 694.812,840.063 698.986,840.063 703.159,841.259 707.333,842.387 711.506,843.157 715.68,843.157 719.853,844.588 724.027,845.755 728.201,846.845 732.374,848.367 736.548,850.031 740.721,850.031 744.895,852.08 749.068,853.501 753.242,853.922 757.415,857.306 761.589,858.227 765.763,858.227 769.936,860.383 774.11,861.974 778.283,863.431 782.457,865.373 786.63,866.27 790.804,866.27 794.977,869.377 799.151,871.165 803.325,873.905 807.498,873.905 811.672,881.014 815.845,882.385 820.019,883.08 824.192,883.701 828.366,884.212 832.539,884.212 836.713,884.955 840.886,885.57 845.06,886.639 849.234,917.368 853.407,921.351 857.581,921.351 861.754,921.924 865.928,922.407 870.101,922.867 874.275,923.359 878.448,923.821 882.622,923.821 886.796,924.334 890.969,924.786 895.143,924.786 899.316,925.325 903.49,925.815 907.663,926.3 911.837,926.789 916.01,927.127 920.184,927.127 924.358,927.779 928.531,928.268 932.705,928.753 936.878,929.153 941.052,929.153 945.225,929.698 949.399,930.109 953.572,930.378 957.746,930.378 961.92,931.043 966.093,931.636 970.267,932.12 974.44,932.592 978.614,933.055 982.787,933.325 986.961,933.325 991.134,934.004 995.308,934.471 999.481,934.974 1003.66,935.473 1007.83,935.507 1012,935.507 1016.18,936.378 1020.35,936.981 1024.52,937.512 1028.7,938.001 1032.87,938.314 1037.04,938.314 1041.22,938.995 1045.39,939.512 1049.56,940.004 1053.74,940.49 1057.91,940.844 1062.08,940.844 1066.26,941.479 1070.43,941.965 1074.61,999.007 1078.78,1002.42 1082.95,1002.51 1087.13,1002.51 1091.3,1002.95 1095.47,1003.28 1099.65,1003.51 1103.82,1003.75 1107.99,1003.99 1112.17,1004.21 1116.34,1004.31 1120.51,1004.31 1124.69,1004.59 1128.86,1004.85 1133.04,1005.11 1137.21,1005.35 1141.38,1005.6 1145.56,1005.84 1149.73,1006.04 1153.9,1006.18 1158.08,1006.19 1162.25,1006.19 1166.42,1006.71 1170.6,1007.02 1174.77,1007.25 1178.94,1007.5 1183.12,1007.85 1187.29,1008.24 1191.46,1008.61 1195.64,1008.77 1199.81,1008.77 1203.99,1008.77 1208.16,1009.38 1212.33,1009.8 1216.51,1010.18 1220.68,1010.59 1224.85,1011.01 1229.03,1011.4 1233.2,1011.62 1237.37,1011.62 1241.55,1011.91 1245.72,1012.15 1249.89,1012.34 1254.07,1012.47 1258.24,1012.56 1262.42,1012.64 1266.59,1012.75 1270.76,1012.91 1274.94,1013.14 1279.11,1013.43 1283.28,1013.77 1287.46,1014.16 1291.63,1014.57 1295.8,1014.99 1299.98,1015.44 1304.15,1015.88 1308.32,1016.34 1312.5,1016.8 1316.67,1017.25 1320.85,1017.71 1325.02,1018.17 1329.19,1018.63 1333.37,1019.09 1337.54,1019.55 1341.71,1020.01 1345.89,1020.46 1350.06,1020.92 1354.23,1021.37 1358.41,1021.82 1362.58,1022.26 1366.75,1022.71 1370.93,1023.15 1375.1,1023.59 1379.27,1024.02 1383.45,1024.45 1387.62,1024.87 1391.8,1025.3 1395.97,1025.71 1400.14,1026.12 1404.32,1026.53 1408.49,1026.93 1412.66,1027.33 1416.84,1027.72 1421.01,1028.11 1425.18,1028.49 1429.36,1028.87 1433.53,1029.24 1437.7,1029.61 1441.88,1029.98 1446.05,1030.29 1450.23,1030.55 1454.4,1030.73 1458.57,1030.74 1462.75,1030.74 1466.92,1031.67 1471.09,1032.11 1475.27,1032.46 1479.44,1032.83 1483.61,1033.25 1487.79,1033.7 1491.96,1034.13 1496.13,1034.5 1500.31,1034.56 1504.48,1034.56 1508.65,1034.56 1512.83,1035.44 1517,1035.9 1521.18,1036.34 1525.35,1036.78 1529.52,1037.23 1533.7,1037.68 1537.87,1038.09 1542.04,1038.32 1546.22,1038.32 1550.39,1038.4 1554.56,1038.4 1558.74,1039.47 1562.91,1039.93 1567.08,1040.37 1571.26,1040.82 1575.43,1041.26 1579.61,1041.68 1583.78,1042.02 1587.95,1042.07 1592.13,1042.07 1596.3,1042.33 1600.47,1042.56 1604.65,1042.78 1608.82,1042.99 1612.99,1043.23 1617.17,1043.51 1621.34,1043.82 1625.51,1044.17 1629.69,1044.56 1633.86,1044.98 1638.04,1045.42 1642.21,1045.87 1646.38,1046.34 1650.56,1046.81 1654.73,1047.29 1658.9,1047.77 1663.08,1048.26 1667.25,1048.74 1671.42,1049.23 1675.6,1049.71 1679.77,1050.19 1683.94,1050.67 1688.12,1051.15 1692.29,1051.62 1696.46,1052.09 1700.64,1052.55 1704.81,1053.01 1708.99,1053.47 1713.16,1053.92 1717.33,1054.36 1721.51,1054.8 1725.68,1055.24 1729.85,1055.67 1734.03,1056.09 1738.2,1056.51 1742.37,1056.92 1746.55,1057.33 1750.72,1057.73 1754.89,1058.13 1759.07,1058.53 1763.24,1058.9 1767.42,1059.23 1771.59,1059.52 1775.76,1059.74 1779.94,1059.83 1784.11,1059.83 1788.28,1060.79 1792.46,1061.2 1796.63,1061.58 1800.8,1061.96 1804.98,1062.33 1809.15,1062.71 1813.32,1063.08 1817.5,1063.44 1821.67,1063.79 1825.84,1064.1 1830.02,1064.34 1834.19,1064.43 1838.37,1064.43 1842.54,1064.43 1846.71,1065.03 1850.89,1065.52 1855.06,1065.95 1859.23,1066.35 1863.41,1066.74 1867.58,1067.1 1871.75,1067.45 1875.93,1067.78 1880.1,1068.1 1884.27,1068.38 1888.45,1068.62 1892.62,1068.8 1896.8,1068.89 1900.97,1068.89 1905.14,1069.76 1909.32,1070.26 1913.49,1070.66 1917.66,1071.01 1921.84,1071.36 1926.01,1071.71 1930.18,1072.04 1934.36,1072.36 1938.53,1072.67 1942.7,1072.95 1946.88,1073.2 1951.05,1073.4 1955.23,1073.54 1959.4,1073.61 1963.57,1073.62 1967.75,1073.62 1971.92,1074.22 1976.09,1074.74 1980.27,1075.22 1984.44,1075.67 1988.61,1076.1 1992.79,1076.5 1996.96,1076.9 2001.13,1077.28 2005.31,1077.65 2009.48,1078.01 2013.65,1078.37 2017.83,1078.72 2022,1079.06 2026.18,1079.4 2030.35,1079.73 2034.52,1080.05 2038.7,1080.37 2042.87,1080.69 2047.04,1081 2051.22,1081.31 2055.39,1081.62 2059.56,1081.93 2063.74,1082.24 2067.91,1082.55 2072.08,1082.86 2076.26,1083.17 2080.43,1083.47 2084.61,1083.78 2088.78,1084.09 2092.95,1084.41 2097.13,1084.72 2101.3,1085.03 2105.47,1085.35 2109.65,1085.67 2113.82,1085.98 2117.99,1086.3 2122.17,1086.62 2126.34,1086.94 2130.51,1087.26 2134.69,1087.58 2138.86,1087.89 2143.03,1088.21 2147.21,1088.53 2151.38,1088.84 2155.56,1089.15 2159.73,1089.46 2163.9,1089.77 2168.08,1090.08 2172.25,1090.39 2176.42,1090.69 2180.6,1090.99 2184.77,1091.3 2188.94,1091.6 2193.12,1091.9 2197.29,1092.2 2201.46,1092.5 2205.64,1092.79 2209.81,1093.09 2213.99,1093.39 2218.16,1093.68 2222.33,1093.98 2226.51,1094.27 2230.68,1094.56 2234.85,1094.86 2239.03,1095.15 2243.2,1095.45 2247.37,1095.74 2251.55,1096.05 2255.72,1096.37 2259.89,1096.75 2264.07,1097.41 2268.24,1106.87 2272.42,1201.99 2276.59,1266.14 2280.76,1309.41 2284.94,1340.85 2289.11,1365.22 2293.28,1385.02 "/>
<polyline clip-path="url(#clip822)" style="stroke:#e26f46; stroke-linecap:round; stroke-linejoin:round; stroke-width:4; stroke-opacity:1; fill:none" points="310.845,160.256 315.019,283.949 319.192,345.091 323.366,411.533 327.54,411.533 331.713,411.533 335.887,411.533 340.06,411.533 344.234,411.533 348.407,411.533 352.581,411.533 356.754,411.533 360.928,453.334 365.101,453.334 369.275,489.568 373.449,514.074 377.622,526.96 381.796,545.52 385.969,559.944 390.143,571.609 394.316,571.609 398.49,582.278 402.663,591.766 406.837,602.695 411.011,612.556 415.184,612.556 419.358,622.191 423.531,630.348 427.705,637.637 431.878,640.603 436.052,649.527 440.225,656.029 444.399,660.918 448.573,660.918 452.746,665.705 456.92,670.382 461.093,675.47 465.267,679.172 469.44,679.172 473.614,683.889 477.787,687.806 481.961,691.526 486.135,694.982 490.308,695.61 494.482,701.434 498.655,704.81 502.829,707.451 507.002,707.451 511.176,709.265 515.349,713.59 519.523,716.35 523.696,718.354 527.87,718.354 532.044,721.601 536.217,724.117 540.391,726.283 544.564,726.283 548.738,729.024 552.911,731.358 557.085,733.954 561.258,736.963 565.432,739.8 569.606,740.369 573.779,744.852 577.953,747.824 582.126,749.766 586.3,749.766 590.473,749.766 594.647,752.743 598.82,755.079 602.994,757.368 607.168,759.611 611.341,761.659 615.515,761.779 619.688,765.735 623.862,767.859 628.035,769.612 632.209,769.612 636.382,770.337 640.556,773.365 644.73,775.255 648.903,776.852 653.077,776.852 657.25,778.439 661.424,779.939 665.597,781.363 669.771,782.736 673.944,785.126 678.118,786.666 682.291,788.211 686.465,789.695 690.639,790.859 694.812,790.859 698.986,791.892 703.159,792.583 707.333,795.431 711.506,796.798 715.68,798.058 719.853,798.696 724.027,798.696 728.201,799.934 732.374,802.056 736.548,803.32 740.721,804.536 744.895,805.564 749.068,805.564 753.242,806.569 757.415,807.44 761.589,808.172 765.763,810.476 769.936,811.616 774.11,812.724 778.283,813.734 782.457,814.303 786.63,814.303 790.804,814.69 794.977,817.064 799.151,818.12 803.325,819.224 807.498,820.324 811.672,821.405 815.845,822.447 820.019,823.376 824.192,823.894 828.366,823.894 832.539,823.894 836.713,824.994 840.886,826.088 845.06,827.169 849.234,828.235 853.407,829.281 857.581,830.307 861.754,831.311 865.928,832.294 870.101,833.185 874.275,833.965 878.448,834.608 882.622,835.049 886.796,835.249 890.969,837.757 895.143,838.632 899.316,839.501 903.49,840.36 907.663,841.208 911.837,842.043 916.01,842.857 920.184,843.639 924.358,844.36 928.531,844.97 932.705,845.387 936.878,845.516 941.052,847.668 945.225,848.443 949.399,849.208 953.572,849.959 957.746,850.692 961.92,851.401 966.093,852.077 970.267,852.706 974.44,853.278 978.614,853.781 982.787,854.216 986.961,854.599 991.134,856.504 995.308,857.205 999.481,857.899 1003.66,858.588 1007.83,859.27 1012,859.946 1016.18,860.616 1020.35,861.281 1024.52,861.94 1028.7,862.594 1032.87,863.243 1037.04,863.888 1041.22,864.528 1045.39,865.164 1049.56,865.797 1053.74,866.426 1057.91,867.051 1062.08,867.673 1066.26,868.291 1070.43,868.905 1074.61,869.516 1078.78,870.122 1082.95,870.724 1087.13,871.321 1091.3,871.915 1095.47,872.504 1099.65,873.088 1103.82,873.668 1107.99,874.244 1112.17,874.816 1116.34,875.384 1120.51,875.948 1124.69,876.508 1128.86,877.064 1133.04,877.617 1137.21,878.167 1141.38,878.714 1145.56,879.26 1149.73,879.81 1153.9,880.383 1158.08,881.079 1162.25,881.079 1166.42,881.079 1170.6,881.079 1174.77,881.079 1178.94,881.079 1183.12,881.079 1187.29,881.079 1191.46,881.079 1195.64,889.99 1199.81,891.728 1203.99,895.047 1208.16,897.937 1212.33,897.937 1216.51,898.782 1220.68,899.53 1224.85,900.198 1229.03,900.873 1233.2,901.548 1237.37,901.687 1241.55,901.687 1245.72,902.894 1249.89,903.594 1254.07,904.258 1258.24,904.908 1262.42,905.233 1266.59,905.233 1270.76,906.233 1274.94,906.879 1279.11,906.912 1283.28,916.109 1287.46,916.109 1291.63,917.501 1295.8,918.113 1299.98,918.66 1304.15,919.095 1308.32,919.095 1312.5,919.749 1316.67,920.314 1320.85,920.853 1325.02,921.664 1329.19,921.664 1333.37,935.051 1337.54,936.157 1341.71,936.768 1345.89,937.2 1350.06,937.573 1354.23,937.791 1358.41,937.791 1362.58,938.337 1366.75,938.742 1370.93,939.121 1375.1,939.496 1379.27,939.812 1383.45,939.812 1387.62,940.22 1391.8,940.516 1395.97,940.639 1400.14,940.639 1404.32,941.242 1408.49,941.73 1412.66,942.104 1416.84,942.47 1421.01,942.823 1425.18,942.973 1429.36,942.973 1433.53,943.558 1437.7,943.923 1441.88,944.283 1446.05,944.737 1450.23,945.295 1454.4,945.746 1458.57,945.746 1462.75,946.081 1466.92,946.081 1471.09,946.845 1475.27,947.509 1479.44,948.059 1483.61,948.6 1487.79,949.147 1491.96,949.572 1496.13,949.572 1500.31,950.252 1504.48,950.793 1508.65,951.36 1512.83,951.901 1517,951.901 1521.18,952.496 1525.35,953.042 1529.52,953.397 1533.7,953.397 1537.87,954.158 1542.04,954.721 1546.22,955.261 1550.39,955.801 1554.56,956.226 1558.74,956.226 1562.91,956.893 1567.08,957.425 1571.26,968.594 1575.43,973.717 1579.61,973.717 1583.78,974.183 1587.95,974.552 1592.13,974.818 1596.3,975.076 1600.47,975.331 1604.65,975.547 1608.82,975.547 1612.99,975.816 1617.17,976.082 1621.34,976.286 1625.51,976.381 1629.69,976.381 1633.86,976.806 1638.04,977.119 1642.21,977.372 1646.38,977.625 1650.56,977.877 1654.73,978.108 1658.9,978.108 1663.08,978.354 1667.25,978.502 1671.42,978.502 1675.6,978.867 1679.77,979.139 1683.94,979.389 1688.12,979.651 1692.29,979.919 1696.46,980.165 1700.64,980.165 1704.81,980.411 1708.99,980.624 1713.16,980.804 1717.33,980.859 1721.51,980.859 1725.68,981.368 1729.85,981.769 1734.03,982.043 1738.2,982.306 1742.37,982.566 1746.55,982.803 1750.72,982.803 1754.89,983.075 1759.07,983.308 1763.24,983.331 1767.42,983.331 1771.59,983.863 1775.76,984.124 1779.94,984.38 1784.11,984.629 1788.28,984.805 1792.46,984.805 1796.63,985.143 1800.8,985.396 1804.98,985.632 1809.15,985.723 1813.32,985.723 1817.5,986.16 1821.67,986.412 1825.84,986.664 1830.02,986.913 1834.19,987.127 1838.37,987.127 1842.54,987.354 1846.71,987.566 1850.89,987.758 1855.06,987.921 1859.23,988.044 1863.41,988.044 1867.58,988.519 1871.75,988.895 1875.93,989.155 1880.1,989.401 1884.27,989.645 1888.45,989.88 1892.62,990.007 1896.8,990.007 1900.97,990.294 1905.14,990.586 1909.32,990.85 1913.49,991.071 1917.66,991.153 1921.84,991.153 1926.01,991.584 1930.18,991.829 1934.36,992.068 1938.53,992.303 1942.7,992.504 1946.88,992.504 1951.05,992.748 1955.23,992.991 1959.4,993.233 1963.57,993.417 1967.75,993.417 1971.92,993.714 1976.09,993.963 1980.27,994.197 1984.44,1024.64 1988.61,1025.08 1992.79,1025.32 1996.96,1025.51 2001.13,1025.55 2005.31,1025.55 2009.48,1026.06 2013.65,1026.3 2017.83,1026.55 2022,1082.33 2026.18,1088.22 2030.35,1088.53 2034.52,1088.69 2038.7,1088.82 2042.87,1088.93 2047.04,1089.04 2051.22,1089.15 2055.39,1089.26 2059.56,1089.36 2063.74,1089.47 2067.91,1089.58 2072.08,1089.69 2076.26,1089.8 2080.43,1089.91 2084.61,1090.01 2088.78,1090.12 2092.95,1090.23 2097.13,1090.34 2101.3,1090.44 2105.47,1090.55 2109.65,1090.66 2113.82,1090.77 2117.99,1090.87 2122.17,1090.98 2126.34,1091.09 2130.51,1091.19 2134.69,1091.3 2138.86,1091.41 2143.03,1091.52 2147.21,1091.63 2151.38,1091.74 2155.56,1091.85 2159.73,1091.97 2163.9,1092.09 2168.08,1092.21 2172.25,1092.36 2176.42,1092.58 2180.6,1093.39 2184.77,1208.15 2188.94,1270.19 2193.12,1312.24 2197.29,1342.98 2201.46,1366.91 2205.64,1386.4 "/>
<polyline clip-path="url(#clip822)" style="stroke:#3da44d; stroke-linecap:round; stroke-linejoin:round; stroke-width:4; stroke-opacity:1; fill:none" points="310.845,160.256 315.019,283.949 319.192,346.348 323.366,407.926 327.54,466.114 331.713,522.317 335.887,577.669 340.06,632.782 344.234,688.026 348.407,743.807 352.581,800.645 356.754,859.168 360.928,917.008 365.101,920.146 369.275,968.327 373.449,977.75 377.622,985.069 381.796,991.821 385.969,998.104 390.143,1003.98 394.316,1009.5 398.49,1014.71 402.663,1019.64 406.837,1024.32 411.011,1028.77 415.184,1033.02 419.358,1037.08 423.531,1040.97 427.705,1044.7 431.878,1048.29 436.052,1051.75 440.225,1055.08 444.399,1058.29 448.573,1061.4 452.746,1064.41 456.92,1067.33 461.093,1070.16 465.267,1072.9 469.44,1075.57 473.614,1078.16 477.787,1080.69 481.961,1083.15 486.135,1085.54 490.308,1087.88 494.482,1090.16 498.655,1092.38 502.829,1094.56 507.002,1096.68 511.176,1098.76 515.349,1100.79 519.523,1102.79 523.696,1104.74 527.87,1106.65 532.044,1108.52 536.217,1110.36 540.391,1112.16 544.564,1113.93 548.738,1115.66 552.911,1117.37 557.085,1119.04 561.258,1120.69 565.432,1122.3 569.606,1123.9 573.779,1125.46 577.953,1127 582.126,1128.51 586.3,1130 590.473,1131.47 594.647,1132.92 598.82,1134.34 602.994,1135.74 607.168,1137.13 611.341,1138.49 615.515,1139.83 619.688,1141.16 623.862,1142.47 628.035,1143.76 632.209,1145.03 636.382,1146.28 640.556,1147.52 644.73,1148.75 648.903,1149.95 653.077,1151.15 657.25,1152.32 661.424,1153.49 665.597,1154.64 669.771,1155.77 673.944,1156.9 678.118,1158.01 682.291,1159.1 686.465,1160.19 690.639,1161.26 694.812,1162.32 698.986,1163.37 703.159,1164.41 707.333,1165.44 711.506,1166.45 715.68,1167.46 719.853,1168.45 724.027,1169.44 728.201,1170.41 732.374,1171.37 736.548,1172.33 740.721,1173.28 744.895,1174.21 749.068,1175.14 753.242,1176.06 757.415,1176.97 761.589,1177.87 765.763,1178.76 769.936,1179.65 774.11,1180.52 778.283,1181.39 782.457,1182.25 786.63,1183.11 790.804,1183.95 794.977,1184.79 799.151,1185.62 803.325,1186.44 807.498,1187.26 811.672,1188.07 815.845,1188.87 820.019,1189.67 824.192,1190.46 828.366,1191.25 832.539,1192.02 836.713,1192.79 840.886,1193.56 845.06,1194.32 849.234,1195.07 853.407,1195.82 857.581,1196.56 861.754,1197.3 865.928,1198.03 870.101,1198.75 874.275,1199.47 878.448,1200.18 882.622,1200.89 886.796,1201.6 890.969,1202.29 895.143,1202.99 899.316,1203.68 903.49,1204.36 907.663,1205.04 911.837,1205.71 916.01,1206.38 920.184,1207.05 924.358,1207.71 928.531,1208.36 932.705,1209.01 936.878,1209.66 941.052,1210.3 945.225,1210.94 949.399,1211.58 953.572,1212.21 957.746,1212.83 961.92,1213.45 966.093,1214.07 970.267,1214.69 974.44,1215.3 978.614,1215.9 982.787,1216.5 986.961,1217.1 991.134,1217.7 995.308,1218.29 999.481,1218.88 1003.66,1219.46 1007.83,1220.04 1012,1220.62 1016.18,1221.19 1020.35,1221.76 1024.52,1222.33 1028.7,1222.89 1032.87,1223.45 1037.04,1224.01 1041.22,1224.57 1045.39,1225.12 1049.56,1225.66 1053.74,1226.21 1057.91,1226.75 1062.08,1227.29 1066.26,1227.82 1070.43,1228.36 1074.61,1228.89 1078.78,1229.41 1082.95,1229.94 1087.13,1230.46 1091.3,1230.98 1095.47,1231.49 1099.65,1232.01 1103.82,1232.52 1107.99,1233.02 1112.17,1233.53 1116.34,1234.03 1120.51,1234.53 1124.69,1235.03 1128.86,1235.52 1133.04,1236.01 1137.21,1236.5 1141.38,1236.99 1145.56,1237.48 1149.73,1237.96 1153.9,1238.44 1158.08,1238.91 1162.25,1239.39 1166.42,1239.86 1170.6,1240.33 1174.77,1240.8 1178.94,1241.27 1183.12,1241.73 1187.29,1242.19 1191.46,1242.65 1195.64,1243.11 1199.81,1243.56 1203.99,1244.02 1208.16,1244.47 1212.33,1244.92 1216.51,1245.36 1220.68,1245.81 1224.85,1246.25 1229.03,1246.69 1233.2,1247.13 1237.37,1247.56 1241.55,1248 1245.72,1248.43 1249.89,1248.86 1254.07,1249.29 1258.24,1249.72 1262.42,1250.14 1266.59,1250.57 1270.76,1250.99 1274.94,1251.41 1279.11,1251.82 1283.28,1252.24 1287.46,1252.65 1291.63,1253.07 1295.8,1253.48 1299.98,1253.89 1304.15,1254.29 1308.32,1254.7 1312.5,1255.1 1316.67,1255.5 1320.85,1255.9 1325.02,1256.3 1329.19,1256.7 1333.37,1257.1 1337.54,1257.49 1341.71,1257.88 1345.89,1258.27 1350.06,1258.66 1354.23,1259.05 1358.41,1259.43 1362.58,1259.82 1366.75,1260.2 "/>
<path clip-path="url(#clip820)" d="M1509.06 374.156 L2282.71 374.156 L2282.71 166.796 L1509.06 166.796  Z" fill="#ffffff" fill-rule="evenodd" fill-opacity="1"/>
<polyline clip-path="url(#clip820)" style="stroke:#000000; stroke-linecap:round; stroke-linejoin:round; stroke-width:4; stroke-opacity:1; fill:none" points="1509.06,374.156 2282.71,374.156 2282.71,166.796 1509.06,166.796 1509.06,374.156 "/>
<polyline clip-path="url(#clip820)" style="stroke:#009af9; stroke-linecap:round; stroke-linejoin:round; stroke-width:4; stroke-opacity:1; fill:none" points="1532.4,218.636 1672.5,218.636 "/>
<path clip-path="url(#clip820)" d="M1695.85 201.356 L1700.52 201.356 L1700.52 231.981 L1717.35 231.981 L1717.35 235.916 L1695.85 235.916 L1695.85 201.356 Z" fill="#000000" fill-rule="nonzero" fill-opacity="1" /><path clip-path="url(#clip820)" d="M1722.26 201.356 L1729.23 201.356 L1738.04 224.874 L1746.91 201.356 L1753.88 201.356 L1753.88 235.916 L1749.32 235.916 L1749.32 205.569 L1740.41 229.272 L1735.71 229.272 L1726.79 205.569 L1726.79 235.916 L1722.26 235.916 L1722.26 201.356 Z" fill="#000000" fill-rule="nonzero" fill-opacity="1" /><path clip-path="url(#clip820)" d="M1782.67 243.786 L1782.67 247.096 L1758.04 247.096 L1758.04 243.786 L1782.67 243.786 Z" fill="#000000" fill-rule="nonzero" fill-opacity="1" /><path clip-path="url(#clip820)" d="M1798.41 205.962 L1792.07 223.161 L1804.78 223.161 L1798.41 205.962 M1795.78 201.356 L1801.08 201.356 L1814.25 235.916 L1809.39 235.916 L1806.24 227.05 L1790.66 227.05 L1787.51 235.916 L1782.58 235.916 L1795.78 201.356 Z" fill="#000000" fill-rule="nonzero" fill-opacity="1" /><path clip-path="url(#clip820)" d="M1840.66 220.268 L1840.66 235.916 L1836.4 235.916 L1836.4 220.407 Q1836.4 216.726 1834.97 214.897 Q1833.53 213.069 1830.66 213.069 Q1827.21 213.069 1825.22 215.268 Q1823.23 217.467 1823.23 221.263 L1823.23 235.916 L1818.95 235.916 L1818.95 209.99 L1823.23 209.99 L1823.23 214.018 Q1824.76 211.68 1826.82 210.522 Q1828.9 209.365 1831.61 209.365 Q1836.08 209.365 1838.37 212.143 Q1840.66 214.897 1840.66 220.268 Z" fill="#000000" fill-rule="nonzero" fill-opacity="1" /><path clip-path="url(#clip820)" d="M1866.22 213.925 L1866.22 199.897 L1870.47 199.897 L1870.47 235.916 L1866.22 235.916 L1866.22 232.027 Q1864.87 234.342 1862.81 235.476 Q1860.78 236.587 1857.9 236.587 Q1853.21 236.587 1850.24 232.837 Q1847.3 229.087 1847.3 222.976 Q1847.3 216.865 1850.24 213.115 Q1853.21 209.365 1857.9 209.365 Q1860.78 209.365 1862.81 210.499 Q1864.87 211.61 1866.22 213.925 M1851.7 222.976 Q1851.7 227.675 1853.62 230.36 Q1855.57 233.022 1858.95 233.022 Q1862.33 233.022 1864.27 230.36 Q1866.22 227.675 1866.22 222.976 Q1866.22 218.277 1864.27 215.615 Q1862.33 212.93 1858.95 212.93 Q1855.57 212.93 1853.62 215.615 Q1851.7 218.277 1851.7 222.976 Z" fill="#000000" fill-rule="nonzero" fill-opacity="1" /><path clip-path="url(#clip820)" d="M1894.27 213.971 Q1893.55 213.555 1892.7 213.37 Q1891.86 213.161 1890.84 213.161 Q1887.23 213.161 1885.29 215.522 Q1883.37 217.86 1883.37 222.258 L1883.37 235.916 L1879.09 235.916 L1879.09 209.99 L1883.37 209.99 L1883.37 214.018 Q1884.71 211.657 1886.86 210.522 Q1889.02 209.365 1892.09 209.365 Q1892.53 209.365 1893.07 209.434 Q1893.6 209.481 1894.25 209.596 L1894.27 213.971 Z" fill="#000000" fill-rule="nonzero" fill-opacity="1" /><path clip-path="url(#clip820)" d="M1919.87 221.888 L1919.87 223.971 L1900.29 223.971 Q1900.57 228.369 1902.93 230.684 Q1905.31 232.976 1909.55 232.976 Q1912 232.976 1914.29 232.374 Q1916.61 231.772 1918.88 230.569 L1918.88 234.596 Q1916.59 235.568 1914.18 236.078 Q1911.77 236.587 1909.29 236.587 Q1903.09 236.587 1899.46 232.976 Q1895.84 229.365 1895.84 223.207 Q1895.84 216.842 1899.27 213.115 Q1902.72 209.365 1908.55 209.365 Q1913.78 209.365 1916.82 212.745 Q1919.87 216.101 1919.87 221.888 M1915.61 220.638 Q1915.57 217.143 1913.65 215.059 Q1911.75 212.976 1908.6 212.976 Q1905.03 212.976 1902.88 214.99 Q1900.75 217.004 1900.43 220.661 L1915.61 220.638 Z" fill="#000000" fill-rule="nonzero" fill-opacity="1" /><path clip-path="url(#clip820)" d="M1926.86 209.99 L1931.12 209.99 L1931.12 235.916 L1926.86 235.916 L1926.86 209.99 M1926.86 199.897 L1931.12 199.897 L1931.12 205.291 L1926.86 205.291 L1926.86 199.897 Z" fill="#000000" fill-rule="nonzero" fill-opacity="1" /><path clip-path="url(#clip820)" d="M1959.73 243.786 L1959.73 247.096 L1935.1 247.096 L1935.1 243.786 L1959.73 243.786 Z" fill="#000000" fill-rule="nonzero" fill-opacity="1" /><path clip-path="url(#clip820)" d="M1966.28 222.976 Q1966.28 227.675 1968.21 230.36 Q1970.15 233.022 1973.53 233.022 Q1976.91 233.022 1978.85 230.36 Q1980.8 227.675 1980.8 222.976 Q1980.8 218.277 1978.85 215.615 Q1976.91 212.93 1973.53 212.93 Q1970.15 212.93 1968.21 215.615 Q1966.28 218.277 1966.28 222.976 M1980.8 232.027 Q1979.46 234.342 1977.39 235.476 Q1975.36 236.587 1972.49 236.587 Q1967.79 236.587 1964.83 232.837 Q1961.89 229.087 1961.89 222.976 Q1961.89 216.865 1964.83 213.115 Q1967.79 209.365 1972.49 209.365 Q1975.36 209.365 1977.39 210.499 Q1979.46 211.61 1980.8 213.925 L1980.8 209.99 L1985.06 209.99 L1985.06 245.777 L1980.8 245.777 L1980.8 232.027 Z" fill="#000000" fill-rule="nonzero" fill-opacity="1" /><path clip-path="url(#clip820)" d="M1993.39 225.684 L1993.39 209.99 L1997.65 209.99 L1997.65 225.522 Q1997.65 229.203 1999.08 231.055 Q2000.52 232.883 2003.39 232.883 Q2006.84 232.883 2008.83 230.684 Q2010.84 228.485 2010.84 224.689 L2010.84 209.99 L2015.1 209.99 L2015.1 235.916 L2010.84 235.916 L2010.84 231.934 Q2009.29 234.295 2007.23 235.453 Q2005.2 236.587 2002.49 236.587 Q1998.02 236.587 1995.71 233.809 Q1993.39 231.031 1993.39 225.684 M2004.11 209.365 L2004.11 209.365 Z" fill="#000000" fill-rule="nonzero" fill-opacity="1" /><path clip-path="url(#clip820)" d="M2035.66 222.883 Q2030.5 222.883 2028.51 224.064 Q2026.52 225.244 2026.52 228.092 Q2026.52 230.36 2028 231.703 Q2029.5 233.022 2032.07 233.022 Q2035.61 233.022 2037.74 230.522 Q2039.89 227.999 2039.89 223.832 L2039.89 222.883 L2035.66 222.883 M2044.15 221.124 L2044.15 235.916 L2039.89 235.916 L2039.89 231.981 Q2038.44 234.342 2036.26 235.476 Q2034.08 236.587 2030.94 236.587 Q2026.95 236.587 2024.59 234.365 Q2022.26 232.119 2022.26 228.369 Q2022.26 223.994 2025.17 221.772 Q2028.11 219.55 2033.92 219.55 L2039.89 219.55 L2039.89 219.133 Q2039.89 216.194 2037.95 214.596 Q2036.03 212.976 2032.53 212.976 Q2030.31 212.976 2028.2 213.508 Q2026.1 214.041 2024.15 215.106 L2024.15 211.17 Q2026.49 210.268 2028.69 209.828 Q2030.89 209.365 2032.97 209.365 Q2038.6 209.365 2041.38 212.282 Q2044.15 215.198 2044.15 221.124 Z" fill="#000000" fill-rule="nonzero" fill-opacity="1" /><path clip-path="url(#clip820)" d="M2069.45 210.754 L2069.45 214.782 Q2067.65 213.856 2065.7 213.393 Q2063.76 212.93 2061.68 212.93 Q2058.51 212.93 2056.91 213.902 Q2055.33 214.874 2055.33 216.819 Q2055.33 218.3 2056.47 219.157 Q2057.6 219.99 2061.03 220.754 L2062.49 221.078 Q2067.02 222.05 2068.92 223.832 Q2070.84 225.592 2070.84 228.763 Q2070.84 232.374 2067.97 234.481 Q2065.13 236.587 2060.13 236.587 Q2058.04 236.587 2055.77 236.17 Q2053.53 235.777 2051.03 234.967 L2051.03 230.569 Q2053.39 231.795 2055.68 232.42 Q2057.97 233.022 2060.22 233.022 Q2063.23 233.022 2064.85 232.004 Q2066.47 230.962 2066.47 229.087 Q2066.47 227.351 2065.29 226.425 Q2064.13 225.499 2060.17 224.643 L2058.69 224.295 Q2054.73 223.462 2052.97 221.749 Q2051.21 220.013 2051.21 217.004 Q2051.21 213.346 2053.81 211.356 Q2056.4 209.365 2061.17 209.365 Q2063.53 209.365 2065.61 209.712 Q2067.7 210.059 2069.45 210.754 Z" fill="#000000" fill-rule="nonzero" fill-opacity="1" /><path clip-path="url(#clip820)" d="M2077.63 209.99 L2081.89 209.99 L2081.89 235.916 L2077.63 235.916 L2077.63 209.99 M2077.63 199.897 L2081.89 199.897 L2081.89 205.291 L2077.63 205.291 L2077.63 199.897 Z" fill="#000000" fill-rule="nonzero" fill-opacity="1" /><path clip-path="url(#clip820)" d="M2110.5 243.786 L2110.5 247.096 L2085.87 247.096 L2085.87 243.786 L2110.5 243.786 Z" fill="#000000" fill-rule="nonzero" fill-opacity="1" /><path clip-path="url(#clip820)" d="M2136.05 220.268 L2136.05 235.916 L2131.79 235.916 L2131.79 220.407 Q2131.79 216.726 2130.36 214.897 Q2128.92 213.069 2126.05 213.069 Q2122.6 213.069 2120.61 215.268 Q2118.62 217.467 2118.62 221.263 L2118.62 235.916 L2114.34 235.916 L2114.34 209.99 L2118.62 209.99 L2118.62 214.018 Q2120.15 211.68 2122.21 210.522 Q2124.29 209.365 2127 209.365 Q2131.47 209.365 2133.76 212.143 Q2136.05 214.897 2136.05 220.268 Z" fill="#000000" fill-rule="nonzero" fill-opacity="1" /><path clip-path="url(#clip820)" d="M2144.11 225.684 L2144.11 209.99 L2148.37 209.99 L2148.37 225.522 Q2148.37 229.203 2149.8 231.055 Q2151.24 232.883 2154.11 232.883 Q2157.56 232.883 2159.55 230.684 Q2161.56 228.485 2161.56 224.689 L2161.56 209.99 L2165.82 209.99 L2165.82 235.916 L2161.56 235.916 L2161.56 231.934 Q2160.01 234.295 2157.95 235.453 Q2155.91 236.587 2153.2 236.587 Q2148.74 236.587 2146.42 233.809 Q2144.11 231.031 2144.11 225.684 M2154.82 209.365 L2154.82 209.365 Z" fill="#000000" fill-rule="nonzero" fill-opacity="1" /><path clip-path="url(#clip820)" d="M2174.59 199.897 L2178.85 199.897 L2178.85 235.916 L2174.59 235.916 L2174.59 199.897 Z" fill="#000000" fill-rule="nonzero" fill-opacity="1" /><path clip-path="url(#clip820)" d="M2207.46 243.786 L2207.46 247.096 L2182.83 247.096 L2182.83 243.786 L2207.46 243.786 Z" fill="#000000" fill-rule="nonzero" fill-opacity="1" /><path clip-path="url(#clip820)" d="M2211.47 199.897 L2215.73 199.897 L2215.73 235.916 L2211.47 235.916 L2211.47 199.897 Z" fill="#000000" fill-rule="nonzero" fill-opacity="1" /><path clip-path="url(#clip820)" d="M2224.64 209.99 L2228.9 209.99 L2228.9 235.916 L2224.64 235.916 L2224.64 209.99 M2224.64 199.897 L2228.9 199.897 L2228.9 205.291 L2224.64 205.291 L2224.64 199.897 Z" fill="#000000" fill-rule="nonzero" fill-opacity="1" /><path clip-path="url(#clip820)" d="M2259.36 220.268 L2259.36 235.916 L2255.1 235.916 L2255.1 220.407 Q2255.1 216.726 2253.67 214.897 Q2252.23 213.069 2249.36 213.069 Q2245.91 213.069 2243.92 215.268 Q2241.93 217.467 2241.93 221.263 L2241.93 235.916 L2237.65 235.916 L2237.65 209.99 L2241.93 209.99 L2241.93 214.018 Q2243.46 211.68 2245.52 210.522 Q2247.6 209.365 2250.31 209.365 Q2254.78 209.365 2257.07 212.143 Q2259.36 214.897 2259.36 220.268 Z" fill="#000000" fill-rule="nonzero" fill-opacity="1" /><polyline clip-path="url(#clip820)" style="stroke:#e26f46; stroke-linecap:round; stroke-linejoin:round; stroke-width:4; stroke-opacity:1; fill:none" points="1532.4,270.476 1672.5,270.476 "/>
<path clip-path="url(#clip820)" d="M1695.85 253.196 L1700.52 253.196 L1700.52 283.821 L1717.35 283.821 L1717.35 287.756 L1695.85 287.756 L1695.85 253.196 Z" fill="#000000" fill-rule="nonzero" fill-opacity="1" /><path clip-path="url(#clip820)" d="M1722.26 253.196 L1729.23 253.196 L1738.04 276.714 L1746.91 253.196 L1753.88 253.196 L1753.88 287.756 L1749.32 287.756 L1749.32 257.409 L1740.41 281.112 L1735.71 281.112 L1726.79 257.409 L1726.79 287.756 L1722.26 287.756 L1722.26 253.196 Z" fill="#000000" fill-rule="nonzero" fill-opacity="1" /><path clip-path="url(#clip820)" d="M1782.67 295.626 L1782.67 298.936 L1758.04 298.936 L1758.04 295.626 L1782.67 295.626 Z" fill="#000000" fill-rule="nonzero" fill-opacity="1" /><path clip-path="url(#clip820)" d="M1784.87 253.196 L1812.03 253.196 L1812.03 256.761 L1790.17 283.821 L1812.56 283.821 L1812.56 287.756 L1784.34 287.756 L1784.34 284.191 L1806.19 257.131 L1784.87 257.131 L1784.87 253.196 Z" fill="#000000" fill-rule="nonzero" fill-opacity="1" /><path clip-path="url(#clip820)" d="M1840.71 272.108 L1840.71 287.756 L1836.45 287.756 L1836.45 272.247 Q1836.45 268.566 1835.01 266.737 Q1833.58 264.909 1830.71 264.909 Q1827.26 264.909 1825.27 267.108 Q1823.28 269.307 1823.28 273.103 L1823.28 287.756 L1818.99 287.756 L1818.99 251.737 L1823.28 251.737 L1823.28 265.858 Q1824.8 263.52 1826.86 262.362 Q1828.95 261.205 1831.66 261.205 Q1836.12 261.205 1838.41 263.983 Q1840.71 266.737 1840.71 272.108 Z" fill="#000000" fill-rule="nonzero" fill-opacity="1" /><path clip-path="url(#clip820)" d="M1848.76 277.524 L1848.76 261.83 L1853.02 261.83 L1853.02 277.362 Q1853.02 281.043 1854.46 282.895 Q1855.89 284.723 1858.76 284.723 Q1862.21 284.723 1864.2 282.524 Q1866.22 280.325 1866.22 276.529 L1866.22 261.83 L1870.47 261.83 L1870.47 287.756 L1866.22 287.756 L1866.22 283.774 Q1864.66 286.135 1862.6 287.293 Q1860.57 288.427 1857.86 288.427 Q1853.39 288.427 1851.08 285.649 Q1848.76 282.871 1848.76 277.524 M1859.48 261.205 L1859.48 261.205 Z" fill="#000000" fill-rule="nonzero" fill-opacity="1" /><path clip-path="url(#clip820)" d="M1898.95 295.626 L1898.95 298.936 L1874.32 298.936 L1874.32 295.626 L1898.95 295.626 Z" fill="#000000" fill-rule="nonzero" fill-opacity="1" /><path clip-path="url(#clip820)" d="M1905.5 274.816 Q1905.5 279.515 1907.42 282.2 Q1909.36 284.862 1912.74 284.862 Q1916.12 284.862 1918.07 282.2 Q1920.01 279.515 1920.01 274.816 Q1920.01 270.117 1918.07 267.455 Q1916.12 264.77 1912.74 264.77 Q1909.36 264.77 1907.42 267.455 Q1905.5 270.117 1905.5 274.816 M1920.01 283.867 Q1918.67 286.182 1916.61 287.316 Q1914.57 288.427 1911.7 288.427 Q1907 288.427 1904.04 284.677 Q1901.1 280.927 1901.1 274.816 Q1901.1 268.705 1904.04 264.955 Q1907 261.205 1911.7 261.205 Q1914.57 261.205 1916.61 262.339 Q1918.67 263.45 1920.01 265.765 L1920.01 261.83 L1924.27 261.83 L1924.27 297.617 L1920.01 297.617 L1920.01 283.867 Z" fill="#000000" fill-rule="nonzero" fill-opacity="1" /><path clip-path="url(#clip820)" d="M1932.6 277.524 L1932.6 261.83 L1936.86 261.83 L1936.86 277.362 Q1936.86 281.043 1938.3 282.895 Q1939.73 284.723 1942.6 284.723 Q1946.05 284.723 1948.04 282.524 Q1950.06 280.325 1950.06 276.529 L1950.06 261.83 L1954.32 261.83 L1954.32 287.756 L1950.06 287.756 L1950.06 283.774 Q1948.51 286.135 1946.45 287.293 Q1944.41 288.427 1941.7 288.427 Q1937.23 288.427 1934.92 285.649 Q1932.6 282.871 1932.6 277.524 M1943.32 261.205 L1943.32 261.205 Z" fill="#000000" fill-rule="nonzero" fill-opacity="1" /><path clip-path="url(#clip820)" d="M1974.87 274.723 Q1969.71 274.723 1967.72 275.904 Q1965.73 277.084 1965.73 279.932 Q1965.73 282.2 1967.21 283.543 Q1968.71 284.862 1971.28 284.862 Q1974.83 284.862 1976.96 282.362 Q1979.11 279.839 1979.11 275.672 L1979.11 274.723 L1974.87 274.723 M1983.37 272.964 L1983.37 287.756 L1979.11 287.756 L1979.11 283.821 Q1977.65 286.182 1975.47 287.316 Q1973.3 288.427 1970.15 288.427 Q1966.17 288.427 1963.81 286.205 Q1961.47 283.959 1961.47 280.209 Q1961.47 275.834 1964.39 273.612 Q1967.33 271.39 1973.14 271.39 L1979.11 271.39 L1979.11 270.973 Q1979.11 268.034 1977.16 266.436 Q1975.24 264.816 1971.75 264.816 Q1969.52 264.816 1967.42 265.348 Q1965.31 265.881 1963.37 266.946 L1963.37 263.01 Q1965.71 262.108 1967.9 261.668 Q1970.1 261.205 1972.19 261.205 Q1977.81 261.205 1980.59 264.122 Q1983.37 267.038 1983.37 272.964 Z" fill="#000000" fill-rule="nonzero" fill-opacity="1" /><path clip-path="url(#clip820)" d="M2008.67 262.594 L2008.67 266.622 Q2006.86 265.696 2004.92 265.233 Q2002.97 264.77 2000.89 264.77 Q1997.72 264.77 1996.12 265.742 Q1994.55 266.714 1994.55 268.659 Q1994.55 270.14 1995.68 270.997 Q1996.82 271.83 2000.24 272.594 L2001.7 272.918 Q2006.24 273.89 2008.14 275.672 Q2010.06 277.432 2010.06 280.603 Q2010.06 284.214 2007.19 286.321 Q2004.34 288.427 1999.34 288.427 Q1997.26 288.427 1994.99 288.01 Q1992.74 287.617 1990.24 286.807 L1990.24 282.409 Q1992.6 283.635 1994.89 284.26 Q1997.19 284.862 1999.43 284.862 Q2002.44 284.862 2004.06 283.844 Q2005.68 282.802 2005.68 280.927 Q2005.68 279.191 2004.5 278.265 Q2003.34 277.339 1999.39 276.483 L1997.9 276.135 Q1993.95 275.302 1992.19 273.589 Q1990.43 271.853 1990.43 268.844 Q1990.43 265.186 1993.02 263.196 Q1995.61 261.205 2000.38 261.205 Q2002.74 261.205 2004.83 261.552 Q2006.91 261.899 2008.67 262.594 Z" fill="#000000" fill-rule="nonzero" fill-opacity="1" /><path clip-path="url(#clip820)" d="M2016.84 261.83 L2021.1 261.83 L2021.1 287.756 L2016.84 287.756 L2016.84 261.83 M2016.84 251.737 L2021.1 251.737 L2021.1 257.131 L2016.84 257.131 L2016.84 251.737 Z" fill="#000000" fill-rule="nonzero" fill-opacity="1" /><path clip-path="url(#clip820)" d="M2049.71 295.626 L2049.71 298.936 L2025.08 298.936 L2025.08 295.626 L2049.71 295.626 Z" fill="#000000" fill-rule="nonzero" fill-opacity="1" /><path clip-path="url(#clip820)" d="M2075.26 272.108 L2075.26 287.756 L2071.01 287.756 L2071.01 272.247 Q2071.01 268.566 2069.57 266.737 Q2068.14 264.909 2065.26 264.909 Q2061.82 264.909 2059.83 267.108 Q2057.83 269.307 2057.83 273.103 L2057.83 287.756 L2053.55 287.756 L2053.55 261.83 L2057.83 261.83 L2057.83 265.858 Q2059.36 263.52 2061.42 262.362 Q2063.51 261.205 2066.21 261.205 Q2070.68 261.205 2072.97 263.983 Q2075.26 266.737 2075.26 272.108 Z" fill="#000000" fill-rule="nonzero" fill-opacity="1" /><path clip-path="url(#clip820)" d="M2083.32 277.524 L2083.32 261.83 L2087.58 261.83 L2087.58 277.362 Q2087.58 281.043 2089.01 282.895 Q2090.45 284.723 2093.32 284.723 Q2096.77 284.723 2098.76 282.524 Q2100.77 280.325 2100.77 276.529 L2100.77 261.83 L2105.03 261.83 L2105.03 287.756 L2100.77 287.756 L2100.77 283.774 Q2099.22 286.135 2097.16 287.293 Q2095.13 288.427 2092.42 288.427 Q2087.95 288.427 2085.64 285.649 Q2083.32 282.871 2083.32 277.524 M2094.04 261.205 L2094.04 261.205 Z" fill="#000000" fill-rule="nonzero" fill-opacity="1" /><path clip-path="url(#clip820)" d="M2113.81 251.737 L2118.07 251.737 L2118.07 287.756 L2113.81 287.756 L2113.81 251.737 Z" fill="#000000" fill-rule="nonzero" fill-opacity="1" /><path clip-path="url(#clip820)" d="M2146.68 295.626 L2146.68 298.936 L2122.05 298.936 L2122.05 295.626 L2146.68 295.626 Z" fill="#000000" fill-rule="nonzero" fill-opacity="1" /><path clip-path="url(#clip820)" d="M2150.68 251.737 L2154.94 251.737 L2154.94 287.756 L2150.68 287.756 L2150.68 251.737 Z" fill="#000000" fill-rule="nonzero" fill-opacity="1" /><path clip-path="url(#clip820)" d="M2163.85 261.83 L2168.11 261.83 L2168.11 287.756 L2163.85 287.756 L2163.85 261.83 M2163.85 251.737 L2168.11 251.737 L2168.11 257.131 L2163.85 257.131 L2163.85 251.737 Z" fill="#000000" fill-rule="nonzero" fill-opacity="1" /><path clip-path="url(#clip820)" d="M2198.57 272.108 L2198.57 287.756 L2194.32 287.756 L2194.32 272.247 Q2194.32 268.566 2192.88 266.737 Q2191.44 264.909 2188.57 264.909 Q2185.13 264.909 2183.13 267.108 Q2181.14 269.307 2181.14 273.103 L2181.14 287.756 L2176.86 287.756 L2176.86 261.83 L2181.14 261.83 L2181.14 265.858 Q2182.67 263.52 2184.73 262.362 Q2186.82 261.205 2189.52 261.205 Q2193.99 261.205 2196.28 263.983 Q2198.57 266.737 2198.57 272.108 Z" fill="#000000" fill-rule="nonzero" fill-opacity="1" /><polyline clip-path="url(#clip820)" style="stroke:#3da44d; stroke-linecap:round; stroke-linejoin:round; stroke-width:4; stroke-opacity:1; fill:none" points="1532.4,322.316 1672.5,322.316 "/>
<path clip-path="url(#clip820)" d="M1695.85 305.036 L1700.52 305.036 L1700.52 335.661 L1717.35 335.661 L1717.35 339.596 L1695.85 339.596 L1695.85 305.036 Z" fill="#000000" fill-rule="nonzero" fill-opacity="1" /><path clip-path="url(#clip820)" d="M1722.26 305.036 L1729.23 305.036 L1738.04 328.554 L1746.91 305.036 L1753.88 305.036 L1753.88 339.596 L1749.32 339.596 L1749.32 309.249 L1740.41 332.952 L1735.71 332.952 L1726.79 309.249 L1726.79 339.596 L1722.26 339.596 L1722.26 305.036 Z" fill="#000000" fill-rule="nonzero" fill-opacity="1" /><path clip-path="url(#clip820)" d="M1782.67 347.466 L1782.67 350.776 L1758.04 350.776 L1758.04 347.466 L1782.67 347.466 Z" fill="#000000" fill-rule="nonzero" fill-opacity="1" /><path clip-path="url(#clip820)" d="M1807.58 306.17 L1807.58 310.73 Q1804.92 309.457 1802.56 308.832 Q1800.2 308.207 1798 308.207 Q1794.18 308.207 1792.1 309.688 Q1790.03 311.17 1790.03 313.901 Q1790.03 316.193 1791.4 317.374 Q1792.79 318.531 1796.63 319.249 L1799.46 319.827 Q1804.69 320.823 1807.16 323.346 Q1809.66 325.846 1809.66 330.059 Q1809.66 335.082 1806.28 337.674 Q1802.93 340.267 1796.42 340.267 Q1793.97 340.267 1791.19 339.711 Q1788.44 339.156 1785.47 338.068 L1785.47 333.253 Q1788.32 334.85 1791.05 335.661 Q1793.78 336.471 1796.42 336.471 Q1800.43 336.471 1802.6 334.897 Q1804.78 333.323 1804.78 330.406 Q1804.78 327.86 1803.21 326.424 Q1801.66 324.989 1798.09 324.272 L1795.24 323.716 Q1790.01 322.675 1787.67 320.452 Q1785.34 318.23 1785.34 314.272 Q1785.34 309.688 1788.55 307.05 Q1791.79 304.411 1797.47 304.411 Q1799.9 304.411 1802.42 304.851 Q1804.94 305.29 1807.58 306.17 Z" fill="#000000" fill-rule="nonzero" fill-opacity="1" /><path clip-path="url(#clip820)" d="M1821.63 308.878 L1821.63 321.864 L1827.51 321.864 Q1830.78 321.864 1832.56 320.175 Q1834.34 318.485 1834.34 315.36 Q1834.34 312.258 1832.56 310.568 Q1830.78 308.878 1827.51 308.878 L1821.63 308.878 M1816.96 305.036 L1827.51 305.036 Q1833.32 305.036 1836.28 307.675 Q1839.27 310.29 1839.27 315.36 Q1839.27 320.475 1836.28 323.091 Q1833.32 325.707 1827.51 325.707 L1821.63 325.707 L1821.63 339.596 L1816.96 339.596 L1816.96 305.036 Z" fill="#000000" fill-rule="nonzero" fill-opacity="1" /><path clip-path="url(#clip820)" d="M1869.11 334.665 L1869.11 325.383 L1861.47 325.383 L1861.47 321.54 L1873.74 321.54 L1873.74 336.378 Q1871.03 338.299 1867.77 339.295 Q1864.5 340.267 1860.8 340.267 Q1852.7 340.267 1848.11 335.545 Q1843.55 330.799 1843.55 322.35 Q1843.55 313.878 1848.11 309.156 Q1852.7 304.411 1860.8 304.411 Q1864.18 304.411 1867.21 305.244 Q1870.27 306.077 1872.84 307.698 L1872.84 312.675 Q1870.24 310.476 1867.33 309.364 Q1864.41 308.253 1861.19 308.253 Q1854.85 308.253 1851.65 311.795 Q1848.48 315.337 1848.48 322.35 Q1848.48 329.341 1851.65 332.883 Q1854.85 336.424 1861.19 336.424 Q1863.67 336.424 1865.61 336.008 Q1867.56 335.568 1869.11 334.665 Z" fill="#000000" fill-rule="nonzero" fill-opacity="1" /><path clip-path="url(#clip820)" d="M1901.79 347.466 L1901.79 350.776 L1877.16 350.776 L1877.16 347.466 L1901.79 347.466 Z" fill="#000000" fill-rule="nonzero" fill-opacity="1" /><path clip-path="url(#clip820)" d="M1908.34 326.656 Q1908.34 331.355 1910.27 334.04 Q1912.21 336.702 1915.59 336.702 Q1918.97 336.702 1920.91 334.04 Q1922.86 331.355 1922.86 326.656 Q1922.86 321.957 1920.91 319.295 Q1918.97 316.61 1915.59 316.61 Q1912.21 316.61 1910.27 319.295 Q1908.34 321.957 1908.34 326.656 M1922.86 335.707 Q1921.52 338.022 1919.46 339.156 Q1917.42 340.267 1914.55 340.267 Q1909.85 340.267 1906.89 336.517 Q1903.95 332.767 1903.95 326.656 Q1903.95 320.545 1906.89 316.795 Q1909.85 313.045 1914.55 313.045 Q1917.42 313.045 1919.46 314.179 Q1921.52 315.29 1922.86 317.605 L1922.86 313.67 L1927.12 313.67 L1927.12 349.457 L1922.86 349.457 L1922.86 335.707 Z" fill="#000000" fill-rule="nonzero" fill-opacity="1" /><path clip-path="url(#clip820)" d="M1935.45 329.364 L1935.45 313.67 L1939.71 313.67 L1939.71 329.202 Q1939.71 332.883 1941.15 334.735 Q1942.58 336.563 1945.45 336.563 Q1948.9 336.563 1950.89 334.364 Q1952.9 332.165 1952.9 328.369 L1952.9 313.67 L1957.16 313.67 L1957.16 339.596 L1952.9 339.596 L1952.9 335.614 Q1951.35 337.975 1949.29 339.133 Q1947.26 340.267 1944.55 340.267 Q1940.08 340.267 1937.77 337.489 Q1935.45 334.711 1935.45 329.364 M1946.17 313.045 L1946.17 313.045 Z" fill="#000000" fill-rule="nonzero" fill-opacity="1" /><path clip-path="url(#clip820)" d="M1977.72 326.563 Q1972.56 326.563 1970.57 327.744 Q1968.58 328.924 1968.58 331.772 Q1968.58 334.04 1970.06 335.383 Q1971.56 336.702 1974.13 336.702 Q1977.67 336.702 1979.8 334.202 Q1981.96 331.679 1981.96 327.512 L1981.96 326.563 L1977.72 326.563 M1986.21 324.804 L1986.21 339.596 L1981.96 339.596 L1981.96 335.661 Q1980.5 338.022 1978.32 339.156 Q1976.14 340.267 1973 340.267 Q1969.02 340.267 1966.65 338.045 Q1964.32 335.799 1964.32 332.049 Q1964.32 327.674 1967.23 325.452 Q1970.17 323.23 1975.98 323.23 L1981.96 323.23 L1981.96 322.813 Q1981.96 319.874 1980.01 318.276 Q1978.09 316.656 1974.59 316.656 Q1972.37 316.656 1970.27 317.188 Q1968.16 317.721 1966.21 318.786 L1966.21 314.85 Q1968.55 313.948 1970.75 313.508 Q1972.95 313.045 1975.03 313.045 Q1980.66 313.045 1983.44 315.962 Q1986.21 318.878 1986.21 324.804 Z" fill="#000000" fill-rule="nonzero" fill-opacity="1" /><path clip-path="url(#clip820)" d="M2011.52 314.434 L2011.52 318.462 Q2009.71 317.536 2007.77 317.073 Q2005.82 316.61 2003.74 316.61 Q2000.57 316.61 1998.97 317.582 Q1997.39 318.554 1997.39 320.499 Q1997.39 321.98 1998.53 322.837 Q1999.66 323.67 2003.09 324.434 L2004.55 324.758 Q2009.08 325.73 2010.98 327.512 Q2012.9 329.272 2012.9 332.443 Q2012.9 336.054 2010.03 338.161 Q2007.19 340.267 2002.19 340.267 Q2000.1 340.267 1997.83 339.85 Q1995.59 339.457 1993.09 338.647 L1993.09 334.249 Q1995.45 335.475 1997.74 336.1 Q2000.03 336.702 2002.28 336.702 Q2005.29 336.702 2006.91 335.684 Q2008.53 334.642 2008.53 332.767 Q2008.53 331.031 2007.35 330.105 Q2006.19 329.179 2002.23 328.323 L2000.75 327.975 Q1996.79 327.142 1995.03 325.429 Q1993.27 323.693 1993.27 320.684 Q1993.27 317.026 1995.87 315.036 Q1998.46 313.045 2003.23 313.045 Q2005.59 313.045 2007.67 313.392 Q2009.76 313.739 2011.52 314.434 Z" fill="#000000" fill-rule="nonzero" fill-opacity="1" /><path clip-path="url(#clip820)" d="M2019.69 313.67 L2023.95 313.67 L2023.95 339.596 L2019.69 339.596 L2019.69 313.67 M2019.69 303.577 L2023.95 303.577 L2023.95 308.971 L2019.69 308.971 L2019.69 303.577 Z" fill="#000000" fill-rule="nonzero" fill-opacity="1" /><path clip-path="url(#clip820)" d="M2052.56 347.466 L2052.56 350.776 L2027.93 350.776 L2027.93 347.466 L2052.56 347.466 Z" fill="#000000" fill-rule="nonzero" fill-opacity="1" /><path clip-path="url(#clip820)" d="M2078.11 323.948 L2078.11 339.596 L2073.85 339.596 L2073.85 324.087 Q2073.85 320.406 2072.42 318.577 Q2070.98 316.749 2068.11 316.749 Q2064.66 316.749 2062.67 318.948 Q2060.68 321.147 2060.68 324.943 L2060.68 339.596 L2056.4 339.596 L2056.4 313.67 L2060.68 313.67 L2060.68 317.698 Q2062.21 315.36 2064.27 314.202 Q2066.35 313.045 2069.06 313.045 Q2073.53 313.045 2075.82 315.823 Q2078.11 318.577 2078.11 323.948 Z" fill="#000000" fill-rule="nonzero" fill-opacity="1" /><path clip-path="url(#clip820)" d="M2086.17 329.364 L2086.17 313.67 L2090.43 313.67 L2090.43 329.202 Q2090.43 332.883 2091.86 334.735 Q2093.3 336.563 2096.17 336.563 Q2099.62 336.563 2101.61 334.364 Q2103.62 332.165 2103.62 328.369 L2103.62 313.67 L2107.88 313.67 L2107.88 339.596 L2103.62 339.596 L2103.62 335.614 Q2102.07 337.975 2100.01 339.133 Q2097.97 340.267 2095.26 340.267 Q2090.8 340.267 2088.48 337.489 Q2086.17 334.711 2086.17 329.364 M2096.89 313.045 L2096.89 313.045 Z" fill="#000000" fill-rule="nonzero" fill-opacity="1" /><path clip-path="url(#clip820)" d="M2116.65 303.577 L2120.91 303.577 L2120.91 339.596 L2116.65 339.596 L2116.65 303.577 Z" fill="#000000" fill-rule="nonzero" fill-opacity="1" /><path clip-path="url(#clip820)" d="M2149.52 347.466 L2149.52 350.776 L2124.89 350.776 L2124.89 347.466 L2149.52 347.466 Z" fill="#000000" fill-rule="nonzero" fill-opacity="1" /><path clip-path="url(#clip820)" d="M2153.53 303.577 L2157.79 303.577 L2157.79 339.596 L2153.53 339.596 L2153.53 303.577 Z" fill="#000000" fill-rule="nonzero" fill-opacity="1" /><path clip-path="url(#clip820)" d="M2166.7 313.67 L2170.96 313.67 L2170.96 339.596 L2166.7 339.596 L2166.7 313.67 M2166.7 303.577 L2170.96 303.577 L2170.96 308.971 L2166.7 308.971 L2166.7 303.577 Z" fill="#000000" fill-rule="nonzero" fill-opacity="1" /><path clip-path="url(#clip820)" d="M2201.42 323.948 L2201.42 339.596 L2197.16 339.596 L2197.16 324.087 Q2197.16 320.406 2195.73 318.577 Q2194.29 316.749 2191.42 316.749 Q2187.97 316.749 2185.98 318.948 Q2183.99 321.147 2183.99 324.943 L2183.99 339.596 L2179.71 339.596 L2179.71 313.67 L2183.99 313.67 L2183.99 317.698 Q2185.52 315.36 2187.58 314.202 Q2189.66 313.045 2192.37 313.045 Q2196.84 313.045 2199.13 315.823 Q2201.42 318.577 2201.42 323.948 Z" fill="#000000" fill-rule="nonzero" fill-opacity="1" /></svg>
