<?xml version="1.0" encoding="utf-8"?>
<svg xmlns="http://www.w3.org/2000/svg" xmlns:xlink="http://www.w3.org/1999/xlink" width="600" height="400" viewBox="0 0 2400 1600">
<defs>
  <clipPath id="clip010">
    <rect x="0" y="0" width="2400" height="1600"/>
  </clipPath>
</defs>
<path clip-path="url(#clip010)" d="M0 1600 L2400 1600 L2400 0 L0 0  Z" fill="#ffffff" fill-rule="evenodd" fill-opacity="1"/>
<defs>
  <clipPath id="clip011">
    <rect x="480" y="0" width="1681" height="1600"/>
  </clipPath>
</defs>
<path clip-path="url(#clip010)" d="M251.372 1423.18 L2352.76 1423.18 L2352.76 123.472 L251.372 123.472  Z" fill="#ffffff" fill-rule="evenodd" fill-opacity="1"/>
<defs>
  <clipPath id="clip012">
    <rect x="251" y="123" width="2102" height="1301"/>
  </clipPath>
</defs>
<polyline clip-path="url(#clip012)" style="stroke:#000000; stroke-linecap:round; stroke-linejoin:round; stroke-width:2; stroke-opacity:0.1; fill:none" points="274.801,1423.18 274.801,123.472 "/>
<polyline clip-path="url(#clip012)" style="stroke:#000000; stroke-linecap:round; stroke-linejoin:round; stroke-width:2; stroke-opacity:0.1; fill:none" points="635.244,1423.18 635.244,123.472 "/>
<polyline clip-path="url(#clip012)" style="stroke:#000000; stroke-linecap:round; stroke-linejoin:round; stroke-width:2; stroke-opacity:0.1; fill:none" points="995.687,1423.18 995.687,123.472 "/>
<polyline clip-path="url(#clip012)" style="stroke:#000000; stroke-linecap:round; stroke-linejoin:round; stroke-width:2; stroke-opacity:0.1; fill:none" points="1356.13,1423.18 1356.13,123.472 "/>
<polyline clip-path="url(#clip012)" style="stroke:#000000; stroke-linecap:round; stroke-linejoin:round; stroke-width:2; stroke-opacity:0.1; fill:none" points="1716.57,1423.18 1716.57,123.472 "/>
<polyline clip-path="url(#clip012)" style="stroke:#000000; stroke-linecap:round; stroke-linejoin:round; stroke-width:2; stroke-opacity:0.1; fill:none" points="2077.02,1423.18 2077.02,123.472 "/>
<polyline clip-path="url(#clip010)" style="stroke:#000000; stroke-linecap:round; stroke-linejoin:round; stroke-width:4; stroke-opacity:1; fill:none" points="251.372,1423.18 2352.76,1423.18 "/>
<polyline clip-path="url(#clip010)" style="stroke:#000000; stroke-linecap:round; stroke-linejoin:round; stroke-width:4; stroke-opacity:1; fill:none" points="274.801,1423.18 274.801,1404.28 "/>
<polyline clip-path="url(#clip010)" style="stroke:#000000; stroke-linecap:round; stroke-linejoin:round; stroke-width:4; stroke-opacity:1; fill:none" points="635.244,1423.18 635.244,1404.28 "/>
<polyline clip-path="url(#clip010)" style="stroke:#000000; stroke-linecap:round; stroke-linejoin:round; stroke-width:4; stroke-opacity:1; fill:none" points="995.687,1423.18 995.687,1404.28 "/>
<polyline clip-path="url(#clip010)" style="stroke:#000000; stroke-linecap:round; stroke-linejoin:round; stroke-width:4; stroke-opacity:1; fill:none" points="1356.13,1423.18 1356.13,1404.28 "/>
<polyline clip-path="url(#clip010)" style="stroke:#000000; stroke-linecap:round; stroke-linejoin:round; stroke-width:4; stroke-opacity:1; fill:none" points="1716.57,1423.18 1716.57,1404.28 "/>
<polyline clip-path="url(#clip010)" style="stroke:#000000; stroke-linecap:round; stroke-linejoin:round; stroke-width:4; stroke-opacity:1; fill:none" points="2077.02,1423.18 2077.02,1404.28 "/>
<path clip-path="url(#clip010)" d="M274.801 1454.1 Q271.19 1454.1 269.361 1457.66 Q267.556 1461.2 267.556 1468.33 Q267.556 1475.44 269.361 1479.01 Q271.19 1482.55 274.801 1482.55 Q278.435 1482.55 280.241 1479.01 Q282.069 1475.44 282.069 1468.33 Q282.069 1461.2 280.241 1457.66 Q278.435 1454.1 274.801 1454.1 M274.801 1450.39 Q280.611 1450.39 283.667 1455 Q286.745 1459.58 286.745 1468.33 Q286.745 1477.06 283.667 1481.67 Q280.611 1486.25 274.801 1486.25 Q268.991 1486.25 265.912 1481.67 Q262.857 1477.06 262.857 1468.33 Q262.857 1459.58 265.912 1455 Q268.991 1450.39 274.801 1450.39 Z" fill="#000000" fill-rule="nonzero" fill-opacity="1" /><path clip-path="url(#clip010)" d="M609.932 1481.64 L617.571 1481.64 L617.571 1455.28 L609.261 1456.95 L609.261 1452.69 L617.524 1451.02 L622.2 1451.02 L622.2 1481.64 L629.839 1481.64 L629.839 1485.58 L609.932 1485.58 L609.932 1481.64 Z" fill="#000000" fill-rule="nonzero" fill-opacity="1" /><path clip-path="url(#clip010)" d="M649.283 1454.1 Q645.672 1454.1 643.844 1457.66 Q642.038 1461.2 642.038 1468.33 Q642.038 1475.44 643.844 1479.01 Q645.672 1482.55 649.283 1482.55 Q652.918 1482.55 654.723 1479.01 Q656.552 1475.44 656.552 1468.33 Q656.552 1461.2 654.723 1457.66 Q652.918 1454.1 649.283 1454.1 M649.283 1450.39 Q655.094 1450.39 658.149 1455 Q661.228 1459.58 661.228 1468.33 Q661.228 1477.06 658.149 1481.67 Q655.094 1486.25 649.283 1486.25 Q643.473 1486.25 640.395 1481.67 Q637.339 1477.06 637.339 1468.33 Q637.339 1459.58 640.395 1455 Q643.473 1450.39 649.283 1450.39 Z" fill="#000000" fill-rule="nonzero" fill-opacity="1" /><path clip-path="url(#clip010)" d="M974.461 1481.64 L990.78 1481.64 L990.78 1485.58 L968.836 1485.58 L968.836 1481.64 Q971.498 1478.89 976.081 1474.26 Q980.687 1469.61 981.868 1468.27 Q984.113 1465.74 984.993 1464.01 Q985.896 1462.25 985.896 1460.56 Q985.896 1457.8 983.951 1456.07 Q982.03 1454.33 978.928 1454.33 Q976.729 1454.33 974.275 1455.09 Q971.845 1455.86 969.067 1457.41 L969.067 1452.69 Q971.891 1451.55 974.345 1450.97 Q976.799 1450.39 978.836 1450.39 Q984.206 1450.39 987.4 1453.08 Q990.595 1455.77 990.595 1460.26 Q990.595 1462.39 989.785 1464.31 Q988.998 1466.2 986.891 1468.8 Q986.312 1469.47 983.211 1472.69 Q980.109 1475.88 974.461 1481.64 Z" fill="#000000" fill-rule="nonzero" fill-opacity="1" /><path clip-path="url(#clip010)" d="M1010.59 1454.1 Q1006.98 1454.1 1005.15 1457.66 Q1003.35 1461.2 1003.35 1468.33 Q1003.35 1475.44 1005.15 1479.01 Q1006.98 1482.55 1010.59 1482.55 Q1014.23 1482.55 1016.03 1479.01 Q1017.86 1475.44 1017.86 1468.33 Q1017.86 1461.2 1016.03 1457.66 Q1014.23 1454.1 1010.59 1454.1 M1010.59 1450.39 Q1016.4 1450.39 1019.46 1455 Q1022.54 1459.58 1022.54 1468.33 Q1022.54 1477.06 1019.46 1481.67 Q1016.4 1486.25 1010.59 1486.25 Q1004.78 1486.25 1001.71 1481.67 Q998.65 1477.06 998.65 1468.33 Q998.65 1459.58 1001.71 1455 Q1004.78 1450.39 1010.59 1450.39 Z" fill="#000000" fill-rule="nonzero" fill-opacity="1" /><path clip-path="url(#clip010)" d="M1344.97 1466.95 Q1348.33 1467.66 1350.2 1469.93 Q1352.1 1472.2 1352.1 1475.53 Q1352.1 1480.65 1348.58 1483.45 Q1345.07 1486.25 1338.58 1486.25 Q1336.41 1486.25 1334.09 1485.81 Q1331.8 1485.39 1329.35 1484.54 L1329.35 1480.02 Q1331.29 1481.16 1333.61 1481.74 Q1335.92 1482.32 1338.45 1482.32 Q1342.84 1482.32 1345.14 1480.58 Q1347.45 1478.84 1347.45 1475.53 Q1347.45 1472.48 1345.3 1470.77 Q1343.17 1469.03 1339.35 1469.03 L1335.32 1469.03 L1335.32 1465.19 L1339.53 1465.19 Q1342.98 1465.19 1344.81 1463.82 Q1346.64 1462.43 1346.64 1459.84 Q1346.64 1457.18 1344.74 1455.77 Q1342.87 1454.33 1339.35 1454.33 Q1337.43 1454.33 1335.23 1454.75 Q1333.03 1455.16 1330.39 1456.04 L1330.39 1451.88 Q1333.05 1451.14 1335.37 1450.77 Q1337.7 1450.39 1339.76 1450.39 Q1345.09 1450.39 1348.19 1452.83 Q1351.29 1455.23 1351.29 1459.35 Q1351.29 1462.22 1349.65 1464.21 Q1348.01 1466.18 1344.97 1466.95 Z" fill="#000000" fill-rule="nonzero" fill-opacity="1" /><path clip-path="url(#clip010)" d="M1370.97 1454.1 Q1367.36 1454.1 1365.53 1457.66 Q1363.72 1461.2 1363.72 1468.33 Q1363.72 1475.44 1365.53 1479.01 Q1367.36 1482.55 1370.97 1482.55 Q1374.6 1482.55 1376.41 1479.01 Q1378.24 1475.44 1378.24 1468.33 Q1378.24 1461.2 1376.41 1457.66 Q1374.6 1454.1 1370.97 1454.1 M1370.97 1450.39 Q1376.78 1450.39 1379.83 1455 Q1382.91 1459.58 1382.91 1468.33 Q1382.91 1477.06 1379.83 1481.67 Q1376.78 1486.25 1370.97 1486.25 Q1365.16 1486.25 1362.08 1481.67 Q1359.02 1477.06 1359.02 1468.33 Q1359.02 1459.58 1362.08 1455 Q1365.16 1450.39 1370.97 1450.39 Z" fill="#000000" fill-rule="nonzero" fill-opacity="1" /><path clip-path="url(#clip010)" d="M1704.75 1455.09 L1692.94 1473.54 L1704.75 1473.54 L1704.75 1455.09 M1703.52 1451.02 L1709.4 1451.02 L1709.4 1473.54 L1714.33 1473.54 L1714.33 1477.43 L1709.4 1477.43 L1709.4 1485.58 L1704.75 1485.58 L1704.75 1477.43 L1689.14 1477.43 L1689.14 1472.92 L1703.52 1451.02 Z" fill="#000000" fill-rule="nonzero" fill-opacity="1" /><path clip-path="url(#clip010)" d="M1732.06 1454.1 Q1728.45 1454.1 1726.62 1457.66 Q1724.81 1461.2 1724.81 1468.33 Q1724.81 1475.44 1726.62 1479.01 Q1728.45 1482.55 1732.06 1482.55 Q1735.69 1482.55 1737.5 1479.01 Q1739.33 1475.44 1739.33 1468.33 Q1739.33 1461.2 1737.5 1457.66 Q1735.69 1454.1 1732.06 1454.1 M1732.06 1450.39 Q1737.87 1450.39 1740.93 1455 Q1744 1459.58 1744 1468.33 Q1744 1477.06 1740.93 1481.67 Q1737.87 1486.25 1732.06 1486.25 Q1726.25 1486.25 1723.17 1481.67 Q1720.12 1477.06 1720.12 1468.33 Q1720.12 1459.58 1723.17 1455 Q1726.25 1450.39 1732.06 1450.39 Z" fill="#000000" fill-rule="nonzero" fill-opacity="1" /><path clip-path="url(#clip010)" d="M2051.72 1451.02 L2070.07 1451.02 L2070.07 1454.96 L2056 1454.96 L2056 1463.43 Q2057.02 1463.08 2058.04 1462.92 Q2059.05 1462.73 2060.07 1462.73 Q2065.86 1462.73 2069.24 1465.9 Q2072.62 1469.08 2072.62 1474.49 Q2072.62 1480.07 2069.15 1483.17 Q2065.67 1486.25 2059.35 1486.25 Q2057.18 1486.25 2054.91 1485.88 Q2052.67 1485.51 2050.26 1484.77 L2050.26 1480.07 Q2052.34 1481.2 2054.56 1481.76 Q2056.79 1482.32 2059.26 1482.32 Q2063.27 1482.32 2065.6 1480.21 Q2067.94 1478.1 2067.94 1474.49 Q2067.94 1470.88 2065.6 1468.77 Q2063.27 1466.67 2059.26 1466.67 Q2057.39 1466.67 2055.51 1467.08 Q2053.66 1467.5 2051.72 1468.38 L2051.72 1451.02 Z" fill="#000000" fill-rule="nonzero" fill-opacity="1" /><path clip-path="url(#clip010)" d="M2091.83 1454.1 Q2088.22 1454.1 2086.39 1457.66 Q2084.59 1461.2 2084.59 1468.33 Q2084.59 1475.44 2086.39 1479.01 Q2088.22 1482.55 2091.83 1482.55 Q2095.47 1482.55 2097.27 1479.01 Q2099.1 1475.44 2099.1 1468.33 Q2099.1 1461.2 2097.27 1457.66 Q2095.47 1454.1 2091.83 1454.1 M2091.83 1450.39 Q2097.64 1450.39 2100.7 1455 Q2103.78 1459.58 2103.78 1468.33 Q2103.78 1477.06 2100.7 1481.67 Q2097.64 1486.25 2091.83 1486.25 Q2086.02 1486.25 2082.94 1481.67 Q2079.89 1477.06 2079.89 1468.33 Q2079.89 1459.58 2082.94 1455 Q2086.02 1450.39 2091.83 1450.39 Z" fill="#000000" fill-rule="nonzero" fill-opacity="1" /><path clip-path="url(#clip010)" d="M1286.25 1518.52 L1292.13 1518.52 L1292.13 1547.77 L1309.61 1532.4 L1317.09 1532.4 L1298.18 1549.07 L1317.88 1568.04 L1310.24 1568.04 L1292.13 1550.63 L1292.13 1568.04 L1286.25 1568.04 L1286.25 1518.52 Z" fill="#000000" fill-rule="nonzero" fill-opacity="1" /><polyline clip-path="url(#clip012)" style="stroke:#000000; stroke-linecap:round; stroke-linejoin:round; stroke-width:2; stroke-opacity:0.1; fill:none" points="251.372,1291.1 2352.76,1291.1 "/>
<polyline clip-path="url(#clip012)" style="stroke:#000000; stroke-linecap:round; stroke-linejoin:round; stroke-width:2; stroke-opacity:0.1; fill:none" points="251.372,1048.82 2352.76,1048.82 "/>
<polyline clip-path="url(#clip012)" style="stroke:#000000; stroke-linecap:round; stroke-linejoin:round; stroke-width:2; stroke-opacity:0.1; fill:none" points="251.372,806.535 2352.76,806.535 "/>
<polyline clip-path="url(#clip012)" style="stroke:#000000; stroke-linecap:round; stroke-linejoin:round; stroke-width:2; stroke-opacity:0.1; fill:none" points="251.372,564.252 2352.76,564.252 "/>
<polyline clip-path="url(#clip012)" style="stroke:#000000; stroke-linecap:round; stroke-linejoin:round; stroke-width:2; stroke-opacity:0.1; fill:none" points="251.372,321.969 2352.76,321.969 "/>
<polyline clip-path="url(#clip010)" style="stroke:#000000; stroke-linecap:round; stroke-linejoin:round; stroke-width:4; stroke-opacity:1; fill:none" points="251.372,1423.18 251.372,123.472 "/>
<polyline clip-path="url(#clip010)" style="stroke:#000000; stroke-linecap:round; stroke-linejoin:round; stroke-width:4; stroke-opacity:1; fill:none" points="251.372,1291.1 270.27,1291.1 "/>
<polyline clip-path="url(#clip010)" style="stroke:#000000; stroke-linecap:round; stroke-linejoin:round; stroke-width:4; stroke-opacity:1; fill:none" points="251.372,1048.82 270.27,1048.82 "/>
<polyline clip-path="url(#clip010)" style="stroke:#000000; stroke-linecap:round; stroke-linejoin:round; stroke-width:4; stroke-opacity:1; fill:none" points="251.372,806.535 270.27,806.535 "/>
<polyline clip-path="url(#clip010)" style="stroke:#000000; stroke-linecap:round; stroke-linejoin:round; stroke-width:4; stroke-opacity:1; fill:none" points="251.372,564.252 270.27,564.252 "/>
<polyline clip-path="url(#clip010)" style="stroke:#000000; stroke-linecap:round; stroke-linejoin:round; stroke-width:4; stroke-opacity:1; fill:none" points="251.372,321.969 270.27,321.969 "/>
<path clip-path="url(#clip010)" d="M115.232 1310.89 L122.871 1310.89 L122.871 1284.53 L114.561 1286.2 L114.561 1281.94 L122.825 1280.27 L127.501 1280.27 L127.501 1310.89 L135.14 1310.89 L135.14 1314.83 L115.232 1314.83 L115.232 1310.89 Z" fill="#000000" fill-rule="nonzero" fill-opacity="1" /><path clip-path="url(#clip010)" d="M154.584 1283.35 Q150.973 1283.35 149.144 1286.91 Q147.339 1290.45 147.339 1297.58 Q147.339 1304.69 149.144 1308.26 Q150.973 1311.8 154.584 1311.8 Q158.218 1311.8 160.024 1308.26 Q161.852 1304.69 161.852 1297.58 Q161.852 1290.45 160.024 1286.91 Q158.218 1283.35 154.584 1283.35 M154.584 1279.64 Q160.394 1279.64 163.45 1284.25 Q166.528 1288.83 166.528 1297.58 Q166.528 1306.31 163.45 1310.92 Q160.394 1315.5 154.584 1315.5 Q148.774 1315.5 145.695 1310.92 Q142.64 1306.31 142.64 1297.58 Q142.64 1288.83 145.695 1284.25 Q148.774 1279.64 154.584 1279.64 Z" fill="#000000" fill-rule="nonzero" fill-opacity="1" /><path clip-path="url(#clip010)" d="M166.528 1273.75 L190.64 1273.75 L190.64 1276.94 L166.528 1276.94 L166.528 1273.75 Z" fill="#000000" fill-rule="nonzero" fill-opacity="1" /><path clip-path="url(#clip010)" d="M202.113 1284.22 L215.372 1284.22 L215.372 1287.42 L197.542 1287.42 L197.542 1284.22 Q199.705 1281.98 203.429 1278.22 Q207.172 1274.44 208.131 1273.35 Q209.956 1271.3 210.67 1269.89 Q211.404 1268.46 211.404 1267.09 Q211.404 1264.85 209.824 1263.44 Q208.263 1262.03 205.743 1262.03 Q203.956 1262.03 201.962 1262.65 Q199.987 1263.27 197.73 1264.53 L197.73 1260.69 Q200.025 1259.77 202.019 1259.3 Q204.012 1258.83 205.667 1258.83 Q210.031 1258.83 212.626 1261.01 Q215.222 1263.19 215.222 1266.84 Q215.222 1268.57 214.563 1270.13 Q213.924 1271.68 212.212 1273.78 Q211.742 1274.33 209.222 1276.94 Q206.702 1279.54 202.113 1284.22 Z" fill="#000000" fill-rule="nonzero" fill-opacity="1" /><path clip-path="url(#clip010)" d="M114.931 1068.61 L122.57 1068.61 L122.57 1042.25 L114.26 1043.91 L114.26 1039.65 L122.524 1037.99 L127.2 1037.99 L127.2 1068.61 L134.839 1068.61 L134.839 1072.55 L114.931 1072.55 L114.931 1068.61 Z" fill="#000000" fill-rule="nonzero" fill-opacity="1" /><path clip-path="url(#clip010)" d="M154.283 1041.06 Q150.672 1041.06 148.843 1044.63 Q147.038 1048.17 147.038 1055.3 Q147.038 1062.41 148.843 1065.97 Q150.672 1069.51 154.283 1069.51 Q157.917 1069.51 159.723 1065.97 Q161.552 1062.41 161.552 1055.3 Q161.552 1048.17 159.723 1044.63 Q157.917 1041.06 154.283 1041.06 M154.283 1037.36 Q160.093 1037.36 163.149 1041.97 Q166.227 1046.55 166.227 1055.3 Q166.227 1064.03 163.149 1068.63 Q160.093 1073.22 154.283 1073.22 Q148.473 1073.22 145.394 1068.63 Q142.339 1064.03 142.339 1055.3 Q142.339 1046.55 145.394 1041.97 Q148.473 1037.36 154.283 1037.36 Z" fill="#000000" fill-rule="nonzero" fill-opacity="1" /><path clip-path="url(#clip010)" d="M166.227 1031.46 L190.339 1031.46 L190.339 1034.66 L166.227 1034.66 L166.227 1031.46 Z" fill="#000000" fill-rule="nonzero" fill-opacity="1" /><path clip-path="url(#clip010)" d="M199.197 1041.94 L205.404 1041.94 L205.404 1020.52 L198.652 1021.87 L198.652 1018.41 L205.366 1017.06 L209.166 1017.06 L209.166 1041.94 L215.372 1041.94 L215.372 1045.14 L199.197 1045.14 L199.197 1041.94 Z" fill="#000000" fill-rule="nonzero" fill-opacity="1" /><path clip-path="url(#clip010)" d="M144.667 826.328 L152.305 826.328 L152.305 799.962 L143.995 801.629 L143.995 797.37 L152.259 795.703 L156.935 795.703 L156.935 826.328 L164.574 826.328 L164.574 830.263 L144.667 830.263 L144.667 826.328 Z" fill="#000000" fill-rule="nonzero" fill-opacity="1" /><path clip-path="url(#clip010)" d="M184.018 798.782 Q180.407 798.782 178.578 802.347 Q176.773 805.888 176.773 813.018 Q176.773 820.124 178.578 823.689 Q180.407 827.231 184.018 827.231 Q187.652 827.231 189.458 823.689 Q191.287 820.124 191.287 813.018 Q191.287 805.888 189.458 802.347 Q187.652 798.782 184.018 798.782 M184.018 795.078 Q189.828 795.078 192.884 799.684 Q195.963 804.268 195.963 813.018 Q195.963 821.745 192.884 826.351 Q189.828 830.934 184.018 830.934 Q178.208 830.934 175.129 826.351 Q172.074 821.745 172.074 813.018 Q172.074 804.268 175.129 799.684 Q178.208 795.078 184.018 795.078 Z" fill="#000000" fill-rule="nonzero" fill-opacity="1" /><path clip-path="url(#clip010)" d="M205.667 777.274 Q202.733 777.274 201.248 780.17 Q199.781 783.048 199.781 788.841 Q199.781 794.615 201.248 797.511 Q202.733 800.389 205.667 800.389 Q208.62 800.389 210.087 797.511 Q211.573 794.615 211.573 788.841 Q211.573 783.048 210.087 780.17 Q208.62 777.274 205.667 777.274 M205.667 774.265 Q210.388 774.265 212.871 778.008 Q215.372 781.732 215.372 788.841 Q215.372 795.931 212.871 799.674 Q210.388 803.398 205.667 803.398 Q200.947 803.398 198.445 799.674 Q195.963 795.931 195.963 788.841 Q195.963 781.732 198.445 778.008 Q200.947 774.265 205.667 774.265 Z" fill="#000000" fill-rule="nonzero" fill-opacity="1" /><path clip-path="url(#clip010)" d="M147.356 584.045 L154.995 584.045 L154.995 557.679 L146.685 559.346 L146.685 555.086 L154.949 553.42 L159.624 553.42 L159.624 584.045 L167.263 584.045 L167.263 587.98 L147.356 587.98 L147.356 584.045 Z" fill="#000000" fill-rule="nonzero" fill-opacity="1" /><path clip-path="url(#clip010)" d="M186.708 556.498 Q183.097 556.498 181.268 560.063 Q179.462 563.605 179.462 570.735 Q179.462 577.841 181.268 581.406 Q183.097 584.947 186.708 584.947 Q190.342 584.947 192.147 581.406 Q193.976 577.841 193.976 570.735 Q193.976 563.605 192.147 560.063 Q190.342 556.498 186.708 556.498 M186.708 552.795 Q192.518 552.795 195.573 557.401 Q198.652 561.985 198.652 570.735 Q198.652 579.461 195.573 584.068 Q192.518 588.651 186.708 588.651 Q180.898 588.651 177.819 584.068 Q174.763 579.461 174.763 570.735 Q174.763 561.985 177.819 557.401 Q180.898 552.795 186.708 552.795 Z" fill="#000000" fill-rule="nonzero" fill-opacity="1" /><path clip-path="url(#clip010)" d="M199.197 557.372 L205.404 557.372 L205.404 535.95 L198.652 537.304 L198.652 533.844 L205.366 532.489 L209.166 532.489 L209.166 557.372 L215.372 557.372 L215.372 560.569 L199.197 560.569 L199.197 557.372 Z" fill="#000000" fill-rule="nonzero" fill-opacity="1" /><path clip-path="url(#clip010)" d="M146.246 341.761 L153.885 341.761 L153.885 315.396 L145.575 317.062 L145.575 312.803 L153.839 311.137 L158.515 311.137 L158.515 341.761 L166.154 341.761 L166.154 345.697 L146.246 345.697 L146.246 341.761 Z" fill="#000000" fill-rule="nonzero" fill-opacity="1" /><path clip-path="url(#clip010)" d="M185.598 314.215 Q181.987 314.215 180.158 317.78 Q178.353 321.322 178.353 328.451 Q178.353 335.558 180.158 339.123 Q181.987 342.664 185.598 342.664 Q189.232 342.664 191.038 339.123 Q192.867 335.558 192.867 328.451 Q192.867 321.322 191.038 317.78 Q189.232 314.215 185.598 314.215 M185.598 310.512 Q191.408 310.512 194.464 315.118 Q197.542 319.701 197.542 328.451 Q197.542 337.178 194.464 341.785 Q191.408 346.368 185.598 346.368 Q179.788 346.368 176.709 341.785 Q173.654 337.178 173.654 328.451 Q173.654 319.701 176.709 315.118 Q179.788 310.512 185.598 310.512 Z" fill="#000000" fill-rule="nonzero" fill-opacity="1" /><path clip-path="url(#clip010)" d="M202.113 315.089 L215.372 315.089 L215.372 318.286 L197.542 318.286 L197.542 315.089 Q199.705 312.851 203.429 309.089 Q207.172 305.309 208.131 304.218 Q209.956 302.168 210.67 300.757 Q211.404 299.328 211.404 297.955 Q211.404 295.717 209.824 294.306 Q208.263 292.896 205.743 292.896 Q203.956 292.896 201.962 293.516 Q199.987 294.137 197.73 295.397 L197.73 291.56 Q200.025 290.639 202.019 290.169 Q204.012 289.698 205.667 289.698 Q210.031 289.698 212.626 291.88 Q215.222 294.062 215.222 297.71 Q215.222 299.441 214.563 301.002 Q213.924 302.544 212.212 304.651 Q211.742 305.196 209.222 307.81 Q206.702 310.406 202.113 315.089 Z" fill="#000000" fill-rule="nonzero" fill-opacity="1" /><path clip-path="url(#clip010)" d="M32.4621 801.797 Q32.4621 806.507 36.1542 809.244 Q39.8145 811.982 46.212 811.982 Q52.6095 811.982 56.3017 809.276 Q59.9619 806.539 59.9619 801.797 Q59.9619 797.118 56.2698 794.381 Q52.5777 791.643 46.212 791.643 Q39.8781 791.643 36.186 794.381 Q32.4621 797.118 32.4621 801.797 M27.4968 801.797 Q27.4968 794.158 32.4621 789.797 Q37.4273 785.437 46.212 785.437 Q54.9649 785.437 59.9619 789.797 Q64.9272 794.158 64.9272 801.797 Q64.9272 809.467 59.9619 813.828 Q54.9649 818.156 46.212 818.156 Q37.4273 818.156 32.4621 813.828 Q27.4968 809.467 27.4968 801.797 Z" fill="#000000" fill-rule="nonzero" fill-opacity="1" /><path clip-path="url(#clip010)" d="M46.212 750.139 Q39.7508 750.139 36.0905 752.812 Q32.3984 755.454 32.3984 760.101 Q32.3984 764.748 36.0905 767.422 Q39.7508 770.064 46.212 770.064 Q52.6732 770.064 56.3653 767.422 Q60.0256 764.748 60.0256 760.101 Q60.0256 755.454 56.3653 752.812 Q52.6732 750.139 46.212 750.139 M33.7671 770.064 Q30.5842 768.218 29.0564 765.417 Q27.4968 762.584 27.4968 758.669 Q27.4968 752.176 32.6531 748.134 Q37.8093 744.06 46.212 744.06 Q54.6147 744.06 59.771 748.134 Q64.9272 752.176 64.9272 758.669 Q64.9272 762.584 63.3994 765.417 Q61.8398 768.218 58.657 770.064 L64.0042 770.064 L64.0042 775.952 L14.479 775.952 L14.479 770.064 L33.7671 770.064 Z" fill="#000000" fill-rule="nonzero" fill-opacity="1" /><path clip-path="url(#clip010)" d="M28.3562 734.352 L28.3562 728.495 L64.6407 728.495 Q71.452 728.495 74.5076 731.105 Q77.5631 733.684 77.5631 739.445 L77.5631 741.673 L72.5979 741.673 L72.5979 740.113 Q72.5979 736.771 71.0383 735.561 Q69.5105 734.352 64.6407 734.352 L28.3562 734.352 M14.479 734.352 L14.479 728.495 L21.895 728.495 L21.895 734.352 L14.479 734.352 Z" fill="#000000" fill-rule="nonzero" fill-opacity="1" /><path clip-path="url(#clip010)" d="M958.203 65.7705 L958.203 89.8329 L950.709 89.8329 L950.709 27.2059 L958.203 27.2059 L958.203 34.0924 Q960.553 30.0415 964.117 28.0971 Q967.723 26.1121 972.705 26.1121 Q980.969 26.1121 986.114 32.6746 Q991.299 39.2371 991.299 49.9314 Q991.299 60.6258 986.114 67.1883 Q980.969 73.7508 972.705 73.7508 Q967.723 73.7508 964.117 71.8063 Q960.553 69.8214 958.203 65.7705 M983.562 49.9314 Q983.562 41.7081 980.159 37.0496 Q976.797 32.3505 970.882 32.3505 Q964.968 32.3505 961.565 37.0496 Q958.203 41.7081 958.203 49.9314 Q958.203 58.1548 961.565 62.8538 Q964.968 67.5124 970.882 67.5124 Q976.797 67.5124 980.159 62.8538 Q983.562 58.1548 983.562 49.9314 Z" fill="#000000" fill-rule="nonzero" fill-opacity="1" /><path clip-path="url(#clip010)" d="M1029.94 34.1734 Q1028.69 33.4443 1027.19 33.1202 Q1025.73 32.7556 1023.95 32.7556 Q1017.63 32.7556 1014.23 36.8875 Q1010.86 40.9789 1010.86 48.6757 L1010.86 72.576 L1003.37 72.576 L1003.37 27.2059 L1010.86 27.2059 L1010.86 34.2544 Q1013.21 30.1225 1016.98 28.1376 Q1020.75 26.1121 1026.14 26.1121 Q1026.91 26.1121 1027.84 26.2337 Q1028.77 26.3147 1029.9 26.5172 L1029.94 34.1734 Z" fill="#000000" fill-rule="nonzero" fill-opacity="1" /><path clip-path="url(#clip010)" d="M1053.52 32.4315 Q1047.53 32.4315 1044.04 37.1306 Q1040.56 41.7891 1040.56 49.9314 Q1040.56 58.0738 1044 62.7728 Q1047.48 67.4314 1053.52 67.4314 Q1059.48 67.4314 1062.96 62.7323 Q1066.44 58.0333 1066.44 49.9314 Q1066.44 41.8701 1062.96 37.1711 Q1059.48 32.4315 1053.52 32.4315 M1053.52 26.1121 Q1063.24 26.1121 1068.79 32.4315 Q1074.34 38.7509 1074.34 49.9314 Q1074.34 61.0714 1068.79 67.4314 Q1063.24 73.7508 1053.52 73.7508 Q1043.76 73.7508 1038.21 67.4314 Q1032.7 61.0714 1032.7 49.9314 Q1032.7 38.7509 1038.21 32.4315 Q1043.76 26.1121 1053.52 26.1121 Z" fill="#000000" fill-rule="nonzero" fill-opacity="1" /><path clip-path="url(#clip010)" d="M1119.27 49.9314 Q1119.27 41.7081 1115.86 37.0496 Q1112.5 32.3505 1106.59 32.3505 Q1100.67 32.3505 1097.27 37.0496 Q1093.91 41.7081 1093.91 49.9314 Q1093.91 58.1548 1097.27 62.8538 Q1100.67 67.5124 1106.59 67.5124 Q1112.5 67.5124 1115.86 62.8538 Q1119.27 58.1548 1119.27 49.9314 M1093.91 34.0924 Q1096.26 30.0415 1099.82 28.0971 Q1103.43 26.1121 1108.41 26.1121 Q1116.67 26.1121 1121.82 32.6746 Q1127 39.2371 1127 49.9314 Q1127 60.6258 1121.82 67.1883 Q1116.67 73.7508 1108.41 73.7508 Q1103.43 73.7508 1099.82 71.8063 Q1096.26 69.8214 1093.91 65.7705 L1093.91 72.576 L1086.41 72.576 L1086.41 9.54393 L1093.91 9.54393 L1093.91 34.0924 Z" fill="#000000" fill-rule="nonzero" fill-opacity="1" /><path clip-path="url(#clip010)" d="M1139.36 9.54393 L1146.81 9.54393 L1146.81 72.576 L1139.36 72.576 L1139.36 9.54393 Z" fill="#000000" fill-rule="nonzero" fill-opacity="1" /><path clip-path="url(#clip010)" d="M1201.22 48.0275 L1201.22 51.6733 L1166.95 51.6733 Q1167.43 59.3701 1171.56 63.421 Q1175.74 67.4314 1183.15 67.4314 Q1187.44 67.4314 1191.45 66.3781 Q1195.51 65.3249 1199.47 63.2184 L1199.47 70.267 Q1195.46 71.9684 1191.25 72.8596 Q1187.04 73.7508 1182.7 73.7508 Q1171.85 73.7508 1165.49 67.4314 Q1159.17 61.1119 1159.17 50.3365 Q1159.17 39.1965 1165.16 32.6746 Q1171.2 26.1121 1181.41 26.1121 Q1190.56 26.1121 1195.87 32.0264 Q1201.22 37.9003 1201.22 48.0275 M1193.76 45.84 Q1193.68 39.7232 1190.32 36.0774 Q1187 32.4315 1181.49 32.4315 Q1175.25 32.4315 1171.48 35.9558 Q1167.76 39.4801 1167.19 45.8805 L1193.76 45.84 M1175.09 6.22219 L1186.51 21.3726 L1180.31 21.3726 L1167.11 6.22219 L1175.09 6.22219 Z" fill="#000000" fill-rule="nonzero" fill-opacity="1" /><path clip-path="url(#clip010)" d="M1248.77 35.9153 Q1251.57 30.8922 1255.46 28.5022 Q1259.35 26.1121 1264.61 26.1121 Q1271.7 26.1121 1275.55 31.0947 Q1279.4 36.0368 1279.4 45.1919 L1279.4 72.576 L1271.91 72.576 L1271.91 45.4349 Q1271.91 38.913 1269.6 35.7533 Q1267.29 32.5936 1262.55 32.5936 Q1256.75 32.5936 1253.39 36.4419 Q1250.03 40.2903 1250.03 46.9338 L1250.03 72.576 L1242.54 72.576 L1242.54 45.4349 Q1242.54 38.8725 1240.23 35.7533 Q1237.92 32.5936 1233.1 32.5936 Q1227.39 32.5936 1224.02 36.4824 Q1220.66 40.3308 1220.66 46.9338 L1220.66 72.576 L1213.17 72.576 L1213.17 27.2059 L1220.66 27.2059 L1220.66 34.2544 Q1223.21 30.082 1226.78 28.0971 Q1230.34 26.1121 1235.24 26.1121 Q1240.19 26.1121 1243.63 28.6237 Q1247.11 31.1352 1248.77 35.9153 Z" fill="#000000" fill-rule="nonzero" fill-opacity="1" /><path clip-path="url(#clip010)" d="M1333.07 48.0275 L1333.07 51.6733 L1298.8 51.6733 Q1299.29 59.3701 1303.42 63.421 Q1307.59 67.4314 1315.01 67.4314 Q1319.3 67.4314 1323.31 66.3781 Q1327.36 65.3249 1331.33 63.2184 L1331.33 70.267 Q1327.32 71.9684 1323.11 72.8596 Q1318.9 73.7508 1314.56 73.7508 Q1303.7 73.7508 1297.34 67.4314 Q1291.03 61.1119 1291.03 50.3365 Q1291.03 39.1965 1297.02 32.6746 Q1303.06 26.1121 1313.26 26.1121 Q1322.42 26.1121 1327.73 32.0264 Q1333.07 37.9003 1333.07 48.0275 M1325.62 45.84 Q1325.54 39.7232 1322.18 36.0774 Q1318.86 32.4315 1313.35 32.4315 Q1307.11 32.4315 1303.34 35.9558 Q1299.61 39.4801 1299.05 45.8805 L1325.62 45.84 Z" fill="#000000" fill-rule="nonzero" fill-opacity="1" /><path clip-path="url(#clip010)" d="M1373.58 62.2867 L1382.13 62.2867 L1382.13 72.576 L1373.58 72.576 L1373.58 62.2867 M1373.58 29.6769 L1382.13 29.6769 L1382.13 39.9662 L1373.58 39.9662 L1373.58 29.6769 Z" fill="#000000" fill-rule="nonzero" fill-opacity="1" /><path clip-path="url(#clip010)" d="M1433.37 14.324 L1433.37 27.2059 L1448.73 27.2059 L1448.73 32.9987 L1433.37 32.9987 L1433.37 57.6282 Q1433.37 63.1779 1434.87 64.7578 Q1436.41 66.3376 1441.07 66.3376 L1448.73 66.3376 L1448.73 72.576 L1441.07 72.576 Q1432.44 72.576 1429.16 69.3758 Q1425.88 66.1351 1425.88 57.6282 L1425.88 32.9987 L1420.41 32.9987 L1420.41 27.2059 L1425.88 27.2059 L1425.88 14.324 L1433.37 14.324 Z" fill="#000000" fill-rule="nonzero" fill-opacity="1" /><path clip-path="url(#clip010)" d="M1465.74 65.7705 L1465.74 89.8329 L1458.25 89.8329 L1458.25 27.2059 L1465.74 27.2059 L1465.74 34.0924 Q1468.09 30.0415 1471.66 28.0971 Q1475.26 26.1121 1480.24 26.1121 Q1488.51 26.1121 1493.65 32.6746 Q1498.84 39.2371 1498.84 49.9314 Q1498.84 60.6258 1493.65 67.1883 Q1488.51 73.7508 1480.24 73.7508 Q1475.26 73.7508 1471.66 71.8063 Q1468.09 69.8214 1465.74 65.7705 M1491.1 49.9314 Q1491.1 41.7081 1487.7 37.0496 Q1484.33 32.3505 1478.42 32.3505 Q1472.51 32.3505 1469.1 37.0496 Q1465.74 41.7081 1465.74 49.9314 Q1465.74 58.1548 1469.1 62.8538 Q1472.51 67.5124 1478.42 67.5124 Q1484.33 67.5124 1487.7 62.8538 Q1491.1 58.1548 1491.1 49.9314 Z" fill="#000000" fill-rule="nonzero" fill-opacity="1" /><path clip-path="url(#clip010)" d="M1519.29 65.6895 L1547.85 65.6895 L1547.85 72.576 L1509.45 72.576 L1509.45 65.6895 Q1514.11 60.8689 1522.13 52.7671 Q1530.19 44.6248 1532.26 42.2752 Q1536.19 37.8598 1537.73 34.8216 Q1539.31 31.7429 1539.31 28.7857 Q1539.31 23.9651 1535.9 20.927 Q1532.54 17.8888 1527.11 17.8888 Q1523.26 17.8888 1518.97 19.2256 Q1514.72 20.5624 1509.86 23.2765 L1509.86 15.0127 Q1514.8 13.0277 1519.09 12.015 Q1523.39 11.0023 1526.95 11.0023 Q1536.35 11.0023 1541.94 15.7013 Q1547.53 20.4004 1547.53 28.2591 Q1547.53 31.9859 1546.11 35.3482 Q1544.73 38.6699 1541.05 43.2069 Q1540.03 44.3817 1534.61 50.0125 Q1529.18 55.6027 1519.29 65.6895 Z" fill="#000000" fill-rule="nonzero" fill-opacity="1" /><path clip-path="url(#clip010)" d="M1565.27 71.3202 L1565.27 63.8666 Q1568.35 65.3249 1571.51 66.0946 Q1574.67 66.8642 1577.71 66.8642 Q1585.81 66.8642 1590.06 61.436 Q1594.36 55.9673 1594.96 44.8678 Q1592.62 48.3516 1589.01 50.215 Q1585.4 52.0784 1581.03 52.0784 Q1571.96 52.0784 1566.65 46.6097 Q1561.38 41.1005 1561.38 31.5808 Q1561.38 22.2638 1566.89 16.633 Q1572.4 11.0023 1581.56 11.0023 Q1592.05 11.0023 1597.56 19.0636 Q1603.11 27.0843 1603.11 42.3968 Q1603.11 56.6965 1596.3 65.2439 Q1589.54 73.7508 1578.07 73.7508 Q1574.99 73.7508 1571.83 73.1431 Q1568.67 72.5355 1565.27 71.3202 M1581.56 45.678 Q1587.07 45.678 1590.27 41.9107 Q1593.51 38.1433 1593.51 31.5808 Q1593.51 25.0589 1590.27 21.2916 Q1587.07 17.4837 1581.56 17.4837 Q1576.05 17.4837 1572.81 21.2916 Q1569.61 25.0589 1569.61 31.5808 Q1569.61 38.1433 1572.81 41.9107 Q1576.05 45.678 1581.56 45.678 Z" fill="#000000" fill-rule="nonzero" fill-opacity="1" /><path clip-path="url(#clip010)" d="M1624.86 65.6895 L1653.42 65.6895 L1653.42 72.576 L1615.02 72.576 L1615.02 65.6895 Q1619.68 60.8689 1627.7 52.7671 Q1635.76 44.6248 1637.82 42.2752 Q1641.75 37.8598 1643.29 34.8216 Q1644.87 31.7429 1644.87 28.7857 Q1644.87 23.9651 1641.47 20.927 Q1638.11 17.8888 1632.68 17.8888 Q1628.83 17.8888 1624.54 19.2256 Q1620.28 20.5624 1615.42 23.2765 L1615.42 15.0127 Q1620.36 13.0277 1624.66 12.015 Q1628.95 11.0023 1632.52 11.0023 Q1641.91 11.0023 1647.5 15.7013 Q1653.1 20.4004 1653.1 28.2591 Q1653.1 31.9859 1651.68 35.3482 Q1650.3 38.6699 1646.61 43.2069 Q1645.6 44.3817 1640.17 50.0125 Q1634.74 55.6027 1624.86 65.6895 Z" fill="#000000" fill-rule="nonzero" fill-opacity="1" /><polyline clip-path="url(#clip012)" style="stroke:#009af9; stroke-linecap:round; stroke-linejoin:round; stroke-width:4; stroke-opacity:1; fill:none" points="310.845,160.256 346.89,293.756 382.934,356.233 418.978,428.148 455.023,450.619 491.067,504.162 527.111,629.07 563.156,712.491 599.2,712.491 635.244,712.491 671.288,712.491 707.333,712.491 743.377,712.491 779.421,712.491 815.466,712.491 851.51,712.491 887.554,728.63 923.599,759.51 959.643,765.567 995.687,794.108 1031.73,800.207 1067.78,825.876 1103.82,836.332 1139.86,855.692 1175.91,870.352 1211.95,886.419 1248,904.218 1284.04,913.926 1320.09,913.926 1356.13,920.252 1392.17,931.456 1428.22,949.1 1464.26,973.325 1500.31,974.295 1536.35,1009.81 1572.4,1014.69 1608.44,1038.89 1644.49,1050.6 1680.53,1067.72 1716.57,1085.43 1752.62,1097.65 1788.66,1109.42 1824.71,1109.42 1860.75,1117.06 1896.8,1136.27 1932.84,1163.43 1968.88,1173.8 2004.93,1186.73 2040.97,1214.68 2077.02,1245.62 2113.06,1304.61 2149.11,1304.61 2185.15,1316.7 2221.19,1334.89 2257.24,1358.51 2293.28,1386.4 "/>
<polyline clip-path="url(#clip012)" style="stroke:#e26f46; stroke-linecap:round; stroke-linejoin:round; stroke-width:4; stroke-opacity:1; fill:none" points="310.845,160.256 346.89,293.756 382.934,356.233 418.978,428.148 455.023,450.619 491.067,504.162 527.111,629.07 563.156,712.491 599.2,712.491 635.244,712.491 671.288,712.491 707.333,712.491 743.377,712.491 779.421,712.491 815.466,712.491 851.51,712.491 887.554,728.63 923.599,759.51 959.643,765.567 995.687,794.108 1031.73,800.207 1067.78,825.876 1103.82,836.332 1139.86,855.692 1175.91,870.352 1211.95,886.419 1248,904.218 1284.04,913.926 1320.09,913.926 1356.13,920.252 1392.17,931.456 1428.22,949.1 1464.26,973.325 1500.31,974.295 1536.35,1009.81 1572.4,1014.69 1608.44,1038.89 1644.49,1050.6 1680.53,1067.72 1716.57,1085.43 1752.62,1097.65 1788.66,1109.42 1824.71,1109.42 1860.75,1117.06 1896.8,1136.27 1932.84,1163.43 1968.88,1173.8 2004.93,1186.73 2040.97,1214.68 2077.02,1245.62 2113.06,1304.61 2149.11,1304.61 2185.15,1316.7 2221.19,1334.89 2257.24,1358.51 2293.28,1386.4 "/>
<path clip-path="url(#clip010)" d="M1501 322.316 L2282.71 322.316 L2282.71 166.796 L1501 166.796  Z" fill="#ffffff" fill-rule="evenodd" fill-opacity="1"/>
<polyline clip-path="url(#clip010)" style="stroke:#000000; stroke-linecap:round; stroke-linejoin:round; stroke-width:4; stroke-opacity:1; fill:none" points="1501,322.316 2282.71,322.316 2282.71,166.796 1501,166.796 1501,322.316 "/>
<polyline clip-path="url(#clip010)" style="stroke:#009af9; stroke-linecap:round; stroke-linejoin:round; stroke-width:4; stroke-opacity:1; fill:none" points="1524.35,218.636 1664.44,218.636 "/>
<path clip-path="url(#clip010)" d="M1687.79 201.356 L1692.47 201.356 L1692.47 231.981 L1709.29 231.981 L1709.29 235.916 L1687.79 235.916 L1687.79 201.356 Z" fill="#000000" fill-rule="nonzero" fill-opacity="1" /><path clip-path="url(#clip010)" d="M1714.2 201.356 L1721.17 201.356 L1729.99 224.874 L1738.85 201.356 L1745.82 201.356 L1745.82 235.916 L1741.26 235.916 L1741.26 205.569 L1732.35 229.272 L1727.65 229.272 L1718.74 205.569 L1718.74 235.916 L1714.2 235.916 L1714.2 201.356 Z" fill="#000000" fill-rule="nonzero" fill-opacity="1" /><path clip-path="url(#clip010)" d="M1774.62 243.786 L1774.62 247.096 L1749.99 247.096 L1749.99 243.786 L1774.62 243.786 Z" fill="#000000" fill-rule="nonzero" fill-opacity="1" /><path clip-path="url(#clip010)" d="M1790.36 205.962 L1784.02 223.161 L1796.72 223.161 L1790.36 205.962 M1787.72 201.356 L1793.02 201.356 L1806.19 235.916 L1801.33 235.916 L1798.18 227.05 L1782.6 227.05 L1779.46 235.916 L1774.53 235.916 L1787.72 201.356 Z" fill="#000000" fill-rule="nonzero" fill-opacity="1" /><path clip-path="url(#clip010)" d="M1832.6 220.268 L1832.6 235.916 L1828.34 235.916 L1828.34 220.407 Q1828.34 216.726 1826.91 214.897 Q1825.47 213.069 1822.6 213.069 Q1819.16 213.069 1817.16 215.268 Q1815.17 217.467 1815.17 221.263 L1815.17 235.916 L1810.89 235.916 L1810.89 209.99 L1815.17 209.99 L1815.17 214.018 Q1816.7 211.68 1818.76 210.522 Q1820.84 209.365 1823.55 209.365 Q1828.02 209.365 1830.31 212.143 Q1832.6 214.897 1832.6 220.268 Z" fill="#000000" fill-rule="nonzero" fill-opacity="1" /><path clip-path="url(#clip010)" d="M1858.16 213.925 L1858.16 199.897 L1862.42 199.897 L1862.42 235.916 L1858.16 235.916 L1858.16 232.027 Q1856.82 234.342 1854.76 235.476 Q1852.72 236.587 1849.85 236.587 Q1845.15 236.587 1842.19 232.837 Q1839.25 229.087 1839.25 222.976 Q1839.25 216.865 1842.19 213.115 Q1845.15 209.365 1849.85 209.365 Q1852.72 209.365 1854.76 210.499 Q1856.82 211.61 1858.16 213.925 M1843.65 222.976 Q1843.65 227.675 1845.57 230.36 Q1847.51 233.022 1850.89 233.022 Q1854.27 233.022 1856.22 230.36 Q1858.16 227.675 1858.16 222.976 Q1858.16 218.277 1856.22 215.615 Q1854.27 212.93 1850.89 212.93 Q1847.51 212.93 1845.57 215.615 Q1843.65 218.277 1843.65 222.976 Z" fill="#000000" fill-rule="nonzero" fill-opacity="1" /><path clip-path="url(#clip010)" d="M1886.21 213.971 Q1885.5 213.555 1884.64 213.37 Q1883.81 213.161 1882.79 213.161 Q1879.18 213.161 1877.23 215.522 Q1875.31 217.86 1875.31 222.258 L1875.31 235.916 L1871.03 235.916 L1871.03 209.99 L1875.31 209.99 L1875.31 214.018 Q1876.65 211.657 1878.81 210.522 Q1880.96 209.365 1884.04 209.365 Q1884.48 209.365 1885.01 209.434 Q1885.54 209.481 1886.19 209.596 L1886.21 213.971 Z" fill="#000000" fill-rule="nonzero" fill-opacity="1" /><path clip-path="url(#clip010)" d="M1911.82 221.888 L1911.82 223.971 L1892.23 223.971 Q1892.51 228.369 1894.87 230.684 Q1897.26 232.976 1901.49 232.976 Q1903.95 232.976 1906.24 232.374 Q1908.55 231.772 1910.82 230.569 L1910.82 234.596 Q1908.53 235.568 1906.12 236.078 Q1903.71 236.587 1901.24 236.587 Q1895.03 236.587 1891.4 232.976 Q1887.79 229.365 1887.79 223.207 Q1887.79 216.842 1891.21 213.115 Q1894.66 209.365 1900.5 209.365 Q1905.73 209.365 1908.76 212.745 Q1911.82 216.101 1911.82 221.888 M1907.56 220.638 Q1907.51 217.143 1905.59 215.059 Q1903.69 212.976 1900.54 212.976 Q1896.98 212.976 1894.83 214.99 Q1892.7 217.004 1892.37 220.661 L1907.56 220.638 Z" fill="#000000" fill-rule="nonzero" fill-opacity="1" /><path clip-path="url(#clip010)" d="M1918.81 209.99 L1923.07 209.99 L1923.07 235.916 L1918.81 235.916 L1918.81 209.99 M1918.81 199.897 L1923.07 199.897 L1923.07 205.291 L1918.81 205.291 L1918.81 199.897 Z" fill="#000000" fill-rule="nonzero" fill-opacity="1" /><path clip-path="url(#clip010)" d="M1951.68 243.786 L1951.68 247.096 L1927.05 247.096 L1927.05 243.786 L1951.68 243.786 Z" fill="#000000" fill-rule="nonzero" fill-opacity="1" /><path clip-path="url(#clip010)" d="M1967.46 222.883 Q1962.3 222.883 1960.31 224.064 Q1958.32 225.244 1958.32 228.092 Q1958.32 230.36 1959.8 231.703 Q1961.31 233.022 1963.88 233.022 Q1967.42 233.022 1969.55 230.522 Q1971.7 227.999 1971.7 223.832 L1971.7 222.883 L1967.46 222.883 M1975.96 221.124 L1975.96 235.916 L1971.7 235.916 L1971.7 231.981 Q1970.24 234.342 1968.07 235.476 Q1965.89 236.587 1962.74 236.587 Q1958.76 236.587 1956.4 234.365 Q1954.06 232.119 1954.06 228.369 Q1954.06 223.994 1956.98 221.772 Q1959.92 219.55 1965.73 219.55 L1971.7 219.55 L1971.7 219.133 Q1971.7 216.194 1969.76 214.596 Q1967.83 212.976 1964.34 212.976 Q1962.12 212.976 1960.01 213.508 Q1957.9 214.041 1955.96 215.106 L1955.96 211.17 Q1958.3 210.268 1960.5 209.828 Q1962.7 209.365 1964.78 209.365 Q1970.4 209.365 1973.18 212.282 Q1975.96 215.198 1975.96 221.124 Z" fill="#000000" fill-rule="nonzero" fill-opacity="1" /><path clip-path="url(#clip010)" d="M1984.73 199.897 L1988.99 199.897 L1988.99 235.916 L1984.73 235.916 L1984.73 199.897 Z" fill="#000000" fill-rule="nonzero" fill-opacity="1" /><path clip-path="url(#clip010)" d="M2002.12 202.629 L2002.12 209.99 L2010.89 209.99 L2010.89 213.3 L2002.12 213.3 L2002.12 227.374 Q2002.12 230.545 2002.97 231.448 Q2003.85 232.351 2006.52 232.351 L2010.89 232.351 L2010.89 235.916 L2006.52 235.916 Q2001.58 235.916 1999.71 234.087 Q1997.83 232.235 1997.83 227.374 L1997.83 213.3 L1994.71 213.3 L1994.71 209.99 L1997.83 209.99 L1997.83 202.629 L2002.12 202.629 Z" fill="#000000" fill-rule="nonzero" fill-opacity="1" /><polyline clip-path="url(#clip010)" style="stroke:#e26f46; stroke-linecap:round; stroke-linejoin:round; stroke-width:4; stroke-opacity:1; fill:none" points="1524.35,270.476 1664.44,270.476 "/>
<path clip-path="url(#clip010)" d="M1687.79 253.196 L1692.47 253.196 L1692.47 283.821 L1709.29 283.821 L1709.29 287.756 L1687.79 287.756 L1687.79 253.196 Z" fill="#000000" fill-rule="nonzero" fill-opacity="1" /><path clip-path="url(#clip010)" d="M1714.2 253.196 L1721.17 253.196 L1729.99 276.714 L1738.85 253.196 L1745.82 253.196 L1745.82 287.756 L1741.26 287.756 L1741.26 257.409 L1732.35 281.112 L1727.65 281.112 L1718.74 257.409 L1718.74 287.756 L1714.2 287.756 L1714.2 253.196 Z" fill="#000000" fill-rule="nonzero" fill-opacity="1" /><path clip-path="url(#clip010)" d="M1774.62 295.626 L1774.62 298.936 L1749.99 298.936 L1749.99 295.626 L1774.62 295.626 Z" fill="#000000" fill-rule="nonzero" fill-opacity="1" /><path clip-path="url(#clip010)" d="M1790.36 257.802 L1784.02 275.001 L1796.72 275.001 L1790.36 257.802 M1787.72 253.196 L1793.02 253.196 L1806.19 287.756 L1801.33 287.756 L1798.18 278.89 L1782.6 278.89 L1779.46 287.756 L1774.53 287.756 L1787.72 253.196 Z" fill="#000000" fill-rule="nonzero" fill-opacity="1" /><path clip-path="url(#clip010)" d="M1832.6 272.108 L1832.6 287.756 L1828.34 287.756 L1828.34 272.247 Q1828.34 268.566 1826.91 266.737 Q1825.47 264.909 1822.6 264.909 Q1819.16 264.909 1817.16 267.108 Q1815.17 269.307 1815.17 273.103 L1815.17 287.756 L1810.89 287.756 L1810.89 261.83 L1815.17 261.83 L1815.17 265.858 Q1816.7 263.52 1818.76 262.362 Q1820.84 261.205 1823.55 261.205 Q1828.02 261.205 1830.31 263.983 Q1832.6 266.737 1832.6 272.108 Z" fill="#000000" fill-rule="nonzero" fill-opacity="1" /><path clip-path="url(#clip010)" d="M1858.16 265.765 L1858.16 251.737 L1862.42 251.737 L1862.42 287.756 L1858.16 287.756 L1858.16 283.867 Q1856.82 286.182 1854.76 287.316 Q1852.72 288.427 1849.85 288.427 Q1845.15 288.427 1842.19 284.677 Q1839.25 280.927 1839.25 274.816 Q1839.25 268.705 1842.19 264.955 Q1845.15 261.205 1849.85 261.205 Q1852.72 261.205 1854.76 262.339 Q1856.82 263.45 1858.16 265.765 M1843.65 274.816 Q1843.65 279.515 1845.57 282.2 Q1847.51 284.862 1850.89 284.862 Q1854.27 284.862 1856.22 282.2 Q1858.16 279.515 1858.16 274.816 Q1858.16 270.117 1856.22 267.455 Q1854.27 264.77 1850.89 264.77 Q1847.51 264.77 1845.57 267.455 Q1843.65 270.117 1843.65 274.816 Z" fill="#000000" fill-rule="nonzero" fill-opacity="1" /><path clip-path="url(#clip010)" d="M1886.21 265.811 Q1885.5 265.395 1884.64 265.21 Q1883.81 265.001 1882.79 265.001 Q1879.18 265.001 1877.23 267.362 Q1875.31 269.7 1875.31 274.098 L1875.31 287.756 L1871.03 287.756 L1871.03 261.83 L1875.31 261.83 L1875.31 265.858 Q1876.65 263.497 1878.81 262.362 Q1880.96 261.205 1884.04 261.205 Q1884.48 261.205 1885.01 261.274 Q1885.54 261.321 1886.19 261.436 L1886.21 265.811 Z" fill="#000000" fill-rule="nonzero" fill-opacity="1" /><path clip-path="url(#clip010)" d="M1911.82 273.728 L1911.82 275.811 L1892.23 275.811 Q1892.51 280.209 1894.87 282.524 Q1897.26 284.816 1901.49 284.816 Q1903.95 284.816 1906.24 284.214 Q1908.55 283.612 1910.82 282.409 L1910.82 286.436 Q1908.53 287.408 1906.12 287.918 Q1903.71 288.427 1901.24 288.427 Q1895.03 288.427 1891.4 284.816 Q1887.79 281.205 1887.79 275.047 Q1887.79 268.682 1891.21 264.955 Q1894.66 261.205 1900.5 261.205 Q1905.73 261.205 1908.76 264.585 Q1911.82 267.941 1911.82 273.728 M1907.56 272.478 Q1907.51 268.983 1905.59 266.899 Q1903.69 264.816 1900.54 264.816 Q1896.98 264.816 1894.83 266.83 Q1892.7 268.844 1892.37 272.501 L1907.56 272.478 Z" fill="#000000" fill-rule="nonzero" fill-opacity="1" /><path clip-path="url(#clip010)" d="M1918.81 261.83 L1923.07 261.83 L1923.07 287.756 L1918.81 287.756 L1918.81 261.83 M1918.81 251.737 L1923.07 251.737 L1923.07 257.131 L1918.81 257.131 L1918.81 251.737 Z" fill="#000000" fill-rule="nonzero" fill-opacity="1" /><path clip-path="url(#clip010)" d="M1951.68 295.626 L1951.68 298.936 L1927.05 298.936 L1927.05 295.626 L1951.68 295.626 Z" fill="#000000" fill-rule="nonzero" fill-opacity="1" /><path clip-path="url(#clip010)" d="M1967.46 274.723 Q1962.3 274.723 1960.31 275.904 Q1958.32 277.084 1958.32 279.932 Q1958.32 282.2 1959.8 283.543 Q1961.31 284.862 1963.88 284.862 Q1967.42 284.862 1969.55 282.362 Q1971.7 279.839 1971.7 275.672 L1971.7 274.723 L1967.46 274.723 M1975.96 272.964 L1975.96 287.756 L1971.7 287.756 L1971.7 283.821 Q1970.24 286.182 1968.07 287.316 Q1965.89 288.427 1962.74 288.427 Q1958.76 288.427 1956.4 286.205 Q1954.06 283.959 1954.06 280.209 Q1954.06 275.834 1956.98 273.612 Q1959.92 271.39 1965.73 271.39 L1971.7 271.39 L1971.7 270.973 Q1971.7 268.034 1969.76 266.436 Q1967.83 264.816 1964.34 264.816 Q1962.12 264.816 1960.01 265.348 Q1957.9 265.881 1955.96 266.946 L1955.96 263.01 Q1958.3 262.108 1960.5 261.668 Q1962.7 261.205 1964.78 261.205 Q1970.4 261.205 1973.18 264.122 Q1975.96 267.038 1975.96 272.964 Z" fill="#000000" fill-rule="nonzero" fill-opacity="1" /><path clip-path="url(#clip010)" d="M1984.73 251.737 L1988.99 251.737 L1988.99 287.756 L1984.73 287.756 L1984.73 251.737 Z" fill="#000000" fill-rule="nonzero" fill-opacity="1" /><path clip-path="url(#clip010)" d="M2002.12 254.469 L2002.12 261.83 L2010.89 261.83 L2010.89 265.14 L2002.12 265.14 L2002.12 279.214 Q2002.12 282.385 2002.97 283.288 Q2003.85 284.191 2006.52 284.191 L2010.89 284.191 L2010.89 287.756 L2006.52 287.756 Q2001.58 287.756 1999.71 285.927 Q1997.83 284.075 1997.83 279.214 L1997.83 265.14 L1994.71 265.14 L1994.71 261.83 L1997.83 261.83 L1997.83 254.469 L2002.12 254.469 Z" fill="#000000" fill-rule="nonzero" fill-opacity="1" /><path clip-path="url(#clip010)" d="M2036.19 295.626 L2036.19 298.936 L2011.56 298.936 L2011.56 295.626 L2036.19 295.626 Z" fill="#000000" fill-rule="nonzero" fill-opacity="1" /><path clip-path="url(#clip010)" d="M2042.74 274.816 Q2042.74 279.515 2044.66 282.2 Q2046.61 284.862 2049.99 284.862 Q2053.37 284.862 2055.31 282.2 Q2057.26 279.515 2057.26 274.816 Q2057.26 270.117 2055.31 267.455 Q2053.37 264.77 2049.99 264.77 Q2046.61 264.77 2044.66 267.455 Q2042.74 270.117 2042.74 274.816 M2057.26 283.867 Q2055.91 286.182 2053.85 287.316 Q2051.82 288.427 2048.95 288.427 Q2044.25 288.427 2041.28 284.677 Q2038.34 280.927 2038.34 274.816 Q2038.34 268.705 2041.28 264.955 Q2044.25 261.205 2048.95 261.205 Q2051.82 261.205 2053.85 262.339 Q2055.91 263.45 2057.26 265.765 L2057.26 261.83 L2061.51 261.83 L2061.51 297.617 L2057.26 297.617 L2057.26 283.867 Z" fill="#000000" fill-rule="nonzero" fill-opacity="1" /><path clip-path="url(#clip010)" d="M2085.31 265.811 Q2084.59 265.395 2083.74 265.21 Q2082.9 265.001 2081.89 265.001 Q2078.27 265.001 2076.33 267.362 Q2074.41 269.7 2074.41 274.098 L2074.41 287.756 L2070.13 287.756 L2070.13 261.83 L2074.41 261.83 L2074.41 265.858 Q2075.75 263.497 2077.9 262.362 Q2080.06 261.205 2083.14 261.205 Q2083.57 261.205 2084.11 261.274 Q2084.64 261.321 2085.29 261.436 L2085.31 265.811 Z" fill="#000000" fill-rule="nonzero" fill-opacity="1" /><path clip-path="url(#clip010)" d="M2109.13 266.807 Q2110.73 263.936 2112.95 262.571 Q2115.17 261.205 2118.18 261.205 Q2122.23 261.205 2124.43 264.052 Q2126.63 266.876 2126.63 272.108 L2126.63 287.756 L2122.35 287.756 L2122.35 272.247 Q2122.35 268.52 2121.03 266.714 Q2119.71 264.909 2117 264.909 Q2113.69 264.909 2111.77 267.108 Q2109.85 269.307 2109.85 273.103 L2109.85 287.756 L2105.57 287.756 L2105.57 272.247 Q2105.57 268.497 2104.25 266.714 Q2102.93 264.909 2100.17 264.909 Q2096.91 264.909 2094.99 267.131 Q2093.07 269.33 2093.07 273.103 L2093.07 287.756 L2088.78 287.756 L2088.78 261.83 L2093.07 261.83 L2093.07 265.858 Q2094.52 263.473 2096.56 262.339 Q2098.6 261.205 2101.4 261.205 Q2104.22 261.205 2106.19 262.64 Q2108.18 264.075 2109.13 266.807 Z" fill="#000000" fill-rule="nonzero" fill-opacity="1" /><path clip-path="url(#clip010)" d="M2134.69 277.524 L2134.69 261.83 L2138.95 261.83 L2138.95 277.362 Q2138.95 281.043 2140.38 282.895 Q2141.82 284.723 2144.69 284.723 Q2148.13 284.723 2150.13 282.524 Q2152.14 280.325 2152.14 276.529 L2152.14 261.83 L2156.4 261.83 L2156.4 287.756 L2152.14 287.756 L2152.14 283.774 Q2150.59 286.135 2148.53 287.293 Q2146.49 288.427 2143.78 288.427 Q2139.32 288.427 2137 285.649 Q2134.69 282.871 2134.69 277.524 M2145.4 261.205 L2145.4 261.205 Z" fill="#000000" fill-rule="nonzero" fill-opacity="1" /><path clip-path="url(#clip010)" d="M2185.36 266.807 Q2186.95 263.936 2189.18 262.571 Q2191.4 261.205 2194.41 261.205 Q2198.46 261.205 2200.66 264.052 Q2202.86 266.876 2202.86 272.108 L2202.86 287.756 L2198.57 287.756 L2198.57 272.247 Q2198.57 268.52 2197.25 266.714 Q2195.94 264.909 2193.23 264.909 Q2189.92 264.909 2188 267.108 Q2186.07 269.307 2186.07 273.103 L2186.07 287.756 L2181.79 287.756 L2181.79 272.247 Q2181.79 268.497 2180.47 266.714 Q2179.15 264.909 2176.4 264.909 Q2173.13 264.909 2171.21 267.131 Q2169.29 269.33 2169.29 273.103 L2169.29 287.756 L2165.01 287.756 L2165.01 261.83 L2169.29 261.83 L2169.29 265.858 Q2170.75 263.473 2172.79 262.339 Q2174.82 261.205 2177.63 261.205 Q2180.45 261.205 2182.42 262.64 Q2184.41 264.075 2185.36 266.807 Z" fill="#000000" fill-rule="nonzero" fill-opacity="1" /><path clip-path="url(#clip010)" d="M2215.47 283.867 L2215.47 297.617 L2211.19 297.617 L2211.19 261.83 L2215.47 261.83 L2215.47 265.765 Q2216.82 263.45 2218.85 262.339 Q2220.91 261.205 2223.76 261.205 Q2228.48 261.205 2231.42 264.955 Q2234.38 268.705 2234.38 274.816 Q2234.38 280.927 2231.42 284.677 Q2228.48 288.427 2223.76 288.427 Q2220.91 288.427 2218.85 287.316 Q2216.82 286.182 2215.47 283.867 M2229.96 274.816 Q2229.96 270.117 2228.02 267.455 Q2226.1 264.77 2222.72 264.77 Q2219.34 264.77 2217.39 267.455 Q2215.47 270.117 2215.47 274.816 Q2215.47 279.515 2217.39 282.2 Q2219.34 284.862 2222.72 284.862 Q2226.1 284.862 2228.02 282.2 Q2229.96 279.515 2229.96 274.816 Z" fill="#000000" fill-rule="nonzero" fill-opacity="1" /><path clip-path="url(#clip010)" d="M2257.97 262.594 L2257.97 266.622 Q2256.17 265.696 2254.22 265.233 Q2252.28 264.77 2250.19 264.77 Q2247.02 264.77 2245.43 265.742 Q2243.85 266.714 2243.85 268.659 Q2243.85 270.14 2244.99 270.997 Q2246.12 271.83 2249.55 272.594 L2251 272.918 Q2255.54 273.89 2257.44 275.672 Q2259.36 277.432 2259.36 280.603 Q2259.36 284.214 2256.49 286.321 Q2253.64 288.427 2248.64 288.427 Q2246.56 288.427 2244.29 288.01 Q2242.05 287.617 2239.55 286.807 L2239.55 282.409 Q2241.91 283.635 2244.2 284.26 Q2246.49 284.862 2248.74 284.862 Q2251.75 284.862 2253.37 283.844 Q2254.99 282.802 2254.99 280.927 Q2254.99 279.191 2253.81 278.265 Q2252.65 277.339 2248.69 276.483 L2247.21 276.135 Q2243.25 275.302 2241.49 273.589 Q2239.73 271.853 2239.73 268.844 Q2239.73 265.186 2242.32 263.196 Q2244.92 261.205 2249.69 261.205 Q2252.05 261.205 2254.13 261.552 Q2256.21 261.899 2257.97 262.594 Z" fill="#000000" fill-rule="nonzero" fill-opacity="1" /></svg>
