<?xml version="1.0" encoding="utf-8"?>
<svg xmlns="http://www.w3.org/2000/svg" xmlns:xlink="http://www.w3.org/1999/xlink" width="600" height="400" viewBox="0 0 2400 1600">
<defs>
  <clipPath id="clip060">
    <rect x="0" y="0" width="2400" height="1600"/>
  </clipPath>
</defs>
<path clip-path="url(#clip060)" d="M0 1600 L2400 1600 L2400 0 L0 0  Z" fill="#ffffff" fill-rule="evenodd" fill-opacity="1"/>
<defs>
  <clipPath id="clip061">
    <rect x="480" y="0" width="1681" height="1600"/>
  </clipPath>
</defs>
<path clip-path="url(#clip060)" d="M251.56 1423.18 L2352.76 1423.18 L2352.76 123.472 L251.56 123.472  Z" fill="#ffffff" fill-rule="evenodd" fill-opacity="1"/>
<defs>
  <clipPath id="clip062">
    <rect x="251" y="123" width="2102" height="1301"/>
  </clipPath>
</defs>
<polyline clip-path="url(#clip062)" style="stroke:#000000; stroke-linecap:round; stroke-linejoin:round; stroke-width:2; stroke-opacity:0.1; fill:none" points="300.137,1423.18 300.137,123.472 "/>
<polyline clip-path="url(#clip062)" style="stroke:#000000; stroke-linecap:round; stroke-linejoin:round; stroke-width:2; stroke-opacity:0.1; fill:none" points="844.713,1423.18 844.713,123.472 "/>
<polyline clip-path="url(#clip062)" style="stroke:#000000; stroke-linecap:round; stroke-linejoin:round; stroke-width:2; stroke-opacity:0.1; fill:none" points="1389.29,1423.18 1389.29,123.472 "/>
<polyline clip-path="url(#clip062)" style="stroke:#000000; stroke-linecap:round; stroke-linejoin:round; stroke-width:2; stroke-opacity:0.1; fill:none" points="1933.87,1423.18 1933.87,123.472 "/>
<polyline clip-path="url(#clip060)" style="stroke:#000000; stroke-linecap:round; stroke-linejoin:round; stroke-width:4; stroke-opacity:1; fill:none" points="251.56,1423.18 2352.76,1423.18 "/>
<polyline clip-path="url(#clip060)" style="stroke:#000000; stroke-linecap:round; stroke-linejoin:round; stroke-width:4; stroke-opacity:1; fill:none" points="300.137,1423.18 300.137,1404.28 "/>
<polyline clip-path="url(#clip060)" style="stroke:#000000; stroke-linecap:round; stroke-linejoin:round; stroke-width:4; stroke-opacity:1; fill:none" points="844.713,1423.18 844.713,1404.28 "/>
<polyline clip-path="url(#clip060)" style="stroke:#000000; stroke-linecap:round; stroke-linejoin:round; stroke-width:4; stroke-opacity:1; fill:none" points="1389.29,1423.18 1389.29,1404.28 "/>
<polyline clip-path="url(#clip060)" style="stroke:#000000; stroke-linecap:round; stroke-linejoin:round; stroke-width:4; stroke-opacity:1; fill:none" points="1933.87,1423.18 1933.87,1404.28 "/>
<path clip-path="url(#clip060)" d="M300.137 1454.1 Q296.525 1454.1 294.697 1457.66 Q292.891 1461.2 292.891 1468.33 Q292.891 1475.44 294.697 1479.01 Q296.525 1482.55 300.137 1482.55 Q303.771 1482.55 305.576 1479.01 Q307.405 1475.44 307.405 1468.33 Q307.405 1461.2 305.576 1457.66 Q303.771 1454.1 300.137 1454.1 M300.137 1450.39 Q305.947 1450.39 309.002 1455 Q312.081 1459.58 312.081 1468.33 Q312.081 1477.06 309.002 1481.67 Q305.947 1486.25 300.137 1486.25 Q294.326 1486.25 291.248 1481.67 Q288.192 1477.06 288.192 1468.33 Q288.192 1459.58 291.248 1455 Q294.326 1450.39 300.137 1450.39 Z" fill="#000000" fill-rule="nonzero" fill-opacity="1" /><path clip-path="url(#clip060)" d="M819.413 1451.02 L837.769 1451.02 L837.769 1454.96 L823.695 1454.96 L823.695 1463.43 Q824.714 1463.08 825.732 1462.92 Q826.751 1462.73 827.769 1462.73 Q833.556 1462.73 836.936 1465.9 Q840.315 1469.08 840.315 1474.49 Q840.315 1480.07 836.843 1483.17 Q833.371 1486.25 827.052 1486.25 Q824.876 1486.25 822.607 1485.88 Q820.362 1485.51 817.954 1484.77 L817.954 1480.07 Q820.038 1481.2 822.26 1481.76 Q824.482 1482.32 826.959 1482.32 Q830.964 1482.32 833.301 1480.21 Q835.639 1478.1 835.639 1474.49 Q835.639 1470.88 833.301 1468.77 Q830.964 1466.67 826.959 1466.67 Q825.084 1466.67 823.209 1467.08 Q821.357 1467.5 819.413 1468.38 L819.413 1451.02 Z" fill="#000000" fill-rule="nonzero" fill-opacity="1" /><path clip-path="url(#clip060)" d="M859.528 1454.1 Q855.917 1454.1 854.088 1457.66 Q852.283 1461.2 852.283 1468.33 Q852.283 1475.44 854.088 1479.01 Q855.917 1482.55 859.528 1482.55 Q863.162 1482.55 864.968 1479.01 Q866.797 1475.44 866.797 1468.33 Q866.797 1461.2 864.968 1457.66 Q863.162 1454.1 859.528 1454.1 M859.528 1450.39 Q865.338 1450.39 868.394 1455 Q871.473 1459.58 871.473 1468.33 Q871.473 1477.06 868.394 1481.67 Q865.338 1486.25 859.528 1486.25 Q853.718 1486.25 850.639 1481.67 Q847.584 1477.06 847.584 1468.33 Q847.584 1459.58 850.639 1455 Q853.718 1450.39 859.528 1450.39 Z" fill="#000000" fill-rule="nonzero" fill-opacity="1" /><path clip-path="url(#clip060)" d="M1348.9 1481.64 L1356.54 1481.64 L1356.54 1455.28 L1348.23 1456.95 L1348.23 1452.69 L1356.49 1451.02 L1361.17 1451.02 L1361.17 1481.64 L1368.8 1481.64 L1368.8 1485.58 L1348.9 1485.58 L1348.9 1481.64 Z" fill="#000000" fill-rule="nonzero" fill-opacity="1" /><path clip-path="url(#clip060)" d="M1388.25 1454.1 Q1384.64 1454.1 1382.81 1457.66 Q1381 1461.2 1381 1468.33 Q1381 1475.44 1382.81 1479.01 Q1384.64 1482.55 1388.25 1482.55 Q1391.88 1482.55 1393.69 1479.01 Q1395.52 1475.44 1395.52 1468.33 Q1395.52 1461.2 1393.69 1457.66 Q1391.88 1454.1 1388.25 1454.1 M1388.25 1450.39 Q1394.06 1450.39 1397.11 1455 Q1400.19 1459.58 1400.19 1468.33 Q1400.19 1477.06 1397.11 1481.67 Q1394.06 1486.25 1388.25 1486.25 Q1382.44 1486.25 1379.36 1481.67 Q1376.3 1477.06 1376.3 1468.33 Q1376.3 1459.58 1379.36 1455 Q1382.44 1450.39 1388.25 1450.39 Z" fill="#000000" fill-rule="nonzero" fill-opacity="1" /><path clip-path="url(#clip060)" d="M1418.41 1454.1 Q1414.8 1454.1 1412.97 1457.66 Q1411.17 1461.2 1411.17 1468.33 Q1411.17 1475.44 1412.97 1479.01 Q1414.8 1482.55 1418.41 1482.55 Q1422.04 1482.55 1423.85 1479.01 Q1425.68 1475.44 1425.68 1468.33 Q1425.68 1461.2 1423.85 1457.66 Q1422.04 1454.1 1418.41 1454.1 M1418.41 1450.39 Q1424.22 1450.39 1427.28 1455 Q1430.35 1459.58 1430.35 1468.33 Q1430.35 1477.06 1427.28 1481.67 Q1424.22 1486.25 1418.41 1486.25 Q1412.6 1486.25 1409.52 1481.67 Q1406.47 1477.06 1406.47 1468.33 Q1406.47 1459.58 1409.52 1455 Q1412.6 1450.39 1418.41 1450.39 Z" fill="#000000" fill-rule="nonzero" fill-opacity="1" /><path clip-path="url(#clip060)" d="M1893.47 1481.64 L1901.11 1481.64 L1901.11 1455.28 L1892.8 1456.95 L1892.8 1452.69 L1901.07 1451.02 L1905.74 1451.02 L1905.74 1481.64 L1913.38 1481.64 L1913.38 1485.58 L1893.47 1485.58 L1893.47 1481.64 Z" fill="#000000" fill-rule="nonzero" fill-opacity="1" /><path clip-path="url(#clip060)" d="M1922.87 1451.02 L1941.23 1451.02 L1941.23 1454.96 L1927.15 1454.96 L1927.15 1463.43 Q1928.17 1463.08 1929.19 1462.92 Q1930.21 1462.73 1931.23 1462.73 Q1937.02 1462.73 1940.4 1465.9 Q1943.77 1469.08 1943.77 1474.49 Q1943.77 1480.07 1940.3 1483.17 Q1936.83 1486.25 1930.51 1486.25 Q1928.33 1486.25 1926.07 1485.88 Q1923.82 1485.51 1921.41 1484.77 L1921.41 1480.07 Q1923.5 1481.2 1925.72 1481.76 Q1927.94 1482.32 1930.42 1482.32 Q1934.42 1482.32 1936.76 1480.21 Q1939.1 1478.1 1939.1 1474.49 Q1939.1 1470.88 1936.76 1468.77 Q1934.42 1466.67 1930.42 1466.67 Q1928.54 1466.67 1926.67 1467.08 Q1924.82 1467.5 1922.87 1468.38 L1922.87 1451.02 Z" fill="#000000" fill-rule="nonzero" fill-opacity="1" /><path clip-path="url(#clip060)" d="M1962.99 1454.1 Q1959.38 1454.1 1957.55 1457.66 Q1955.74 1461.2 1955.74 1468.33 Q1955.74 1475.44 1957.55 1479.01 Q1959.38 1482.55 1962.99 1482.55 Q1966.62 1482.55 1968.43 1479.01 Q1970.26 1475.44 1970.26 1468.33 Q1970.26 1461.2 1968.43 1457.66 Q1966.62 1454.1 1962.99 1454.1 M1962.99 1450.39 Q1968.8 1450.39 1971.85 1455 Q1974.93 1459.58 1974.93 1468.33 Q1974.93 1477.06 1971.85 1481.67 Q1968.8 1486.25 1962.99 1486.25 Q1957.18 1486.25 1954.1 1481.67 Q1951.04 1477.06 1951.04 1468.33 Q1951.04 1459.58 1954.1 1455 Q1957.18 1450.39 1962.99 1450.39 Z" fill="#000000" fill-rule="nonzero" fill-opacity="1" /><path clip-path="url(#clip060)" d="M1286.34 1518.52 L1292.23 1518.52 L1292.23 1547.77 L1309.7 1532.4 L1317.18 1532.4 L1298.27 1549.07 L1317.98 1568.04 L1310.34 1568.04 L1292.23 1550.63 L1292.23 1568.04 L1286.34 1568.04 L1286.34 1518.52 Z" fill="#000000" fill-rule="nonzero" fill-opacity="1" /><polyline clip-path="url(#clip062)" style="stroke:#000000; stroke-linecap:round; stroke-linejoin:round; stroke-width:2; stroke-opacity:0.1; fill:none" points="251.56,1228.78 2352.76,1228.78 "/>
<polyline clip-path="url(#clip062)" style="stroke:#000000; stroke-linecap:round; stroke-linejoin:round; stroke-width:2; stroke-opacity:0.1; fill:none" points="251.56,426.178 2352.76,426.178 "/>
<polyline clip-path="url(#clip060)" style="stroke:#000000; stroke-linecap:round; stroke-linejoin:round; stroke-width:4; stroke-opacity:1; fill:none" points="251.56,1423.18 251.56,123.472 "/>
<polyline clip-path="url(#clip060)" style="stroke:#000000; stroke-linecap:round; stroke-linejoin:round; stroke-width:4; stroke-opacity:1; fill:none" points="251.56,1228.78 270.458,1228.78 "/>
<polyline clip-path="url(#clip060)" style="stroke:#000000; stroke-linecap:round; stroke-linejoin:round; stroke-width:4; stroke-opacity:1; fill:none" points="251.56,426.178 270.458,426.178 "/>
<path clip-path="url(#clip060)" d="M114.931 1248.58 L122.57 1248.58 L122.57 1222.21 L114.26 1223.88 L114.26 1219.62 L122.524 1217.95 L127.2 1217.95 L127.2 1248.58 L134.839 1248.58 L134.839 1252.51 L114.931 1252.51 L114.931 1248.58 Z" fill="#000000" fill-rule="nonzero" fill-opacity="1" /><path clip-path="url(#clip060)" d="M154.283 1221.03 Q150.672 1221.03 148.843 1224.59 Q147.038 1228.14 147.038 1235.27 Q147.038 1242.37 148.843 1245.94 Q150.672 1249.48 154.283 1249.48 Q157.917 1249.48 159.723 1245.94 Q161.552 1242.37 161.552 1235.27 Q161.552 1228.14 159.723 1224.59 Q157.917 1221.03 154.283 1221.03 M154.283 1217.33 Q160.093 1217.33 163.149 1221.93 Q166.227 1226.52 166.227 1235.27 Q166.227 1243.99 163.149 1248.6 Q160.093 1253.18 154.283 1253.18 Q148.473 1253.18 145.394 1248.6 Q142.339 1243.99 142.339 1235.27 Q142.339 1226.52 145.394 1221.93 Q148.473 1217.33 154.283 1217.33 Z" fill="#000000" fill-rule="nonzero" fill-opacity="1" /><path clip-path="url(#clip060)" d="M166.227 1211.43 L190.339 1211.43 L190.339 1214.62 L166.227 1214.62 L166.227 1211.43 Z" fill="#000000" fill-rule="nonzero" fill-opacity="1" /><path clip-path="url(#clip060)" d="M198.577 1197.02 L213.491 1197.02 L213.491 1200.22 L202.056 1200.22 L202.056 1207.1 Q202.884 1206.82 203.711 1206.69 Q204.539 1206.54 205.366 1206.54 Q210.068 1206.54 212.814 1209.11 Q215.56 1211.69 215.56 1216.09 Q215.56 1220.62 212.739 1223.14 Q209.918 1225.65 204.783 1225.65 Q203.015 1225.65 201.172 1225.35 Q199.348 1225.04 197.392 1224.44 L197.392 1220.62 Q199.085 1221.55 200.89 1222 Q202.696 1222.45 204.708 1222.45 Q207.962 1222.45 209.861 1220.74 Q211.761 1219.03 211.761 1216.09 Q211.761 1213.16 209.861 1211.45 Q207.962 1209.73 204.708 1209.73 Q203.185 1209.73 201.661 1210.07 Q200.157 1210.41 198.577 1211.13 L198.577 1197.02 Z" fill="#000000" fill-rule="nonzero" fill-opacity="1" /><path clip-path="url(#clip060)" d="M144.855 445.971 L152.493 445.971 L152.493 419.605 L144.183 421.272 L144.183 417.013 L152.447 415.346 L157.123 415.346 L157.123 445.971 L164.762 445.971 L164.762 449.906 L144.855 449.906 L144.855 445.971 Z" fill="#000000" fill-rule="nonzero" fill-opacity="1" /><path clip-path="url(#clip060)" d="M184.206 418.425 Q180.595 418.425 178.766 421.989 Q176.961 425.531 176.961 432.661 Q176.961 439.767 178.766 443.332 Q180.595 446.873 184.206 446.873 Q187.84 446.873 189.646 443.332 Q191.475 439.767 191.475 432.661 Q191.475 425.531 189.646 421.989 Q187.84 418.425 184.206 418.425 M184.206 414.721 Q190.016 414.721 193.072 419.327 Q196.151 423.911 196.151 432.661 Q196.151 441.387 193.072 445.994 Q190.016 450.577 184.206 450.577 Q178.396 450.577 175.317 445.994 Q172.262 441.387 172.262 432.661 Q172.262 423.911 175.317 419.327 Q178.396 414.721 184.206 414.721 Z" fill="#000000" fill-rule="nonzero" fill-opacity="1" /><path clip-path="url(#clip060)" d="M205.855 396.917 Q202.921 396.917 201.436 399.813 Q199.969 402.691 199.969 408.484 Q199.969 414.258 201.436 417.154 Q202.921 420.032 205.855 420.032 Q208.808 420.032 210.275 417.154 Q211.761 414.258 211.761 408.484 Q211.761 402.691 210.275 399.813 Q208.808 396.917 205.855 396.917 M205.855 393.908 Q210.576 393.908 213.059 397.65 Q215.56 401.374 215.56 408.484 Q215.56 415.574 213.059 419.317 Q210.576 423.041 205.855 423.041 Q201.135 423.041 198.633 419.317 Q196.151 415.574 196.151 408.484 Q196.151 401.374 198.633 397.65 Q201.135 393.908 205.855 393.908 Z" fill="#000000" fill-rule="nonzero" fill-opacity="1" /><path clip-path="url(#clip060)" d="M32.4621 801.797 Q32.4621 806.507 36.1542 809.244 Q39.8145 811.982 46.212 811.982 Q52.6095 811.982 56.3017 809.276 Q59.9619 806.539 59.9619 801.797 Q59.9619 797.118 56.2698 794.381 Q52.5777 791.643 46.212 791.643 Q39.8781 791.643 36.186 794.381 Q32.4621 797.118 32.4621 801.797 M27.4968 801.797 Q27.4968 794.158 32.4621 789.797 Q37.4273 785.437 46.212 785.437 Q54.9649 785.437 59.9619 789.797 Q64.9272 794.158 64.9272 801.797 Q64.9272 809.467 59.9619 813.828 Q54.9649 818.156 46.212 818.156 Q37.4273 818.156 32.4621 813.828 Q27.4968 809.467 27.4968 801.797 Z" fill="#000000" fill-rule="nonzero" fill-opacity="1" /><path clip-path="url(#clip060)" d="M46.212 750.139 Q39.7508 750.139 36.0905 752.812 Q32.3984 755.454 32.3984 760.101 Q32.3984 764.748 36.0905 767.422 Q39.7508 770.064 46.212 770.064 Q52.6732 770.064 56.3653 767.422 Q60.0256 764.748 60.0256 760.101 Q60.0256 755.454 56.3653 752.812 Q52.6732 750.139 46.212 750.139 M33.7671 770.064 Q30.5842 768.218 29.0564 765.417 Q27.4968 762.584 27.4968 758.669 Q27.4968 752.176 32.6531 748.134 Q37.8093 744.06 46.212 744.06 Q54.6147 744.06 59.771 748.134 Q64.9272 752.176 64.9272 758.669 Q64.9272 762.584 63.3994 765.417 Q61.8398 768.218 58.657 770.064 L64.0042 770.064 L64.0042 775.952 L14.479 775.952 L14.479 770.064 L33.7671 770.064 Z" fill="#000000" fill-rule="nonzero" fill-opacity="1" /><path clip-path="url(#clip060)" d="M28.3562 734.352 L28.3562 728.495 L64.6407 728.495 Q71.452 728.495 74.5076 731.105 Q77.5631 733.684 77.5631 739.445 L77.5631 741.673 L72.5979 741.673 L72.5979 740.113 Q72.5979 736.771 71.0383 735.561 Q69.5105 734.352 64.6407 734.352 L28.3562 734.352 M14.479 734.352 L14.479 728.495 L21.895 728.495 L21.895 734.352 L14.479 734.352 Z" fill="#000000" fill-rule="nonzero" fill-opacity="1" /><path clip-path="url(#clip060)" d="M957.77 65.7705 L957.77 89.8329 L950.276 89.8329 L950.276 27.2059 L957.77 27.2059 L957.77 34.0924 Q960.12 30.0415 963.685 28.0971 Q967.29 26.1121 972.273 26.1121 Q980.537 26.1121 985.681 32.6746 Q990.866 39.2371 990.866 49.9314 Q990.866 60.6258 985.681 67.1883 Q980.537 73.7508 972.273 73.7508 Q967.29 73.7508 963.685 71.8063 Q960.12 69.8214 957.77 65.7705 M983.129 49.9314 Q983.129 41.7081 979.726 37.0496 Q976.364 32.3505 970.45 32.3505 Q964.535 32.3505 961.133 37.0496 Q957.77 41.7081 957.77 49.9314 Q957.77 58.1548 961.133 62.8538 Q964.535 67.5124 970.45 67.5124 Q976.364 67.5124 979.726 62.8538 Q983.129 58.1548 983.129 49.9314 Z" fill="#000000" fill-rule="nonzero" fill-opacity="1" /><path clip-path="url(#clip060)" d="M1029.51 34.1734 Q1028.26 33.4443 1026.76 33.1202 Q1025.3 32.7556 1023.52 32.7556 Q1017.2 32.7556 1013.79 36.8875 Q1010.43 40.9789 1010.43 48.6757 L1010.43 72.576 L1002.94 72.576 L1002.94 27.2059 L1010.43 27.2059 L1010.43 34.2544 Q1012.78 30.1225 1016.55 28.1376 Q1020.32 26.1121 1025.7 26.1121 Q1026.47 26.1121 1027.41 26.2337 Q1028.34 26.3147 1029.47 26.5172 L1029.51 34.1734 Z" fill="#000000" fill-rule="nonzero" fill-opacity="1" /><path clip-path="url(#clip060)" d="M1053.09 32.4315 Q1047.09 32.4315 1043.61 37.1306 Q1040.13 41.7891 1040.13 49.9314 Q1040.13 58.0738 1043.57 62.7728 Q1047.05 67.4314 1053.09 67.4314 Q1059.04 67.4314 1062.53 62.7323 Q1066.01 58.0333 1066.01 49.9314 Q1066.01 41.8701 1062.53 37.1711 Q1059.04 32.4315 1053.09 32.4315 M1053.09 26.1121 Q1062.81 26.1121 1068.36 32.4315 Q1073.91 38.7509 1073.91 49.9314 Q1073.91 61.0714 1068.36 67.4314 Q1062.81 73.7508 1053.09 73.7508 Q1043.33 73.7508 1037.78 67.4314 Q1032.27 61.0714 1032.27 49.9314 Q1032.27 38.7509 1037.78 32.4315 Q1043.33 26.1121 1053.09 26.1121 Z" fill="#000000" fill-rule="nonzero" fill-opacity="1" /><path clip-path="url(#clip060)" d="M1118.83 49.9314 Q1118.83 41.7081 1115.43 37.0496 Q1112.07 32.3505 1106.16 32.3505 Q1100.24 32.3505 1096.84 37.0496 Q1093.48 41.7081 1093.48 49.9314 Q1093.48 58.1548 1096.84 62.8538 Q1100.24 67.5124 1106.16 67.5124 Q1112.07 67.5124 1115.43 62.8538 Q1118.83 58.1548 1118.83 49.9314 M1093.48 34.0924 Q1095.83 30.0415 1099.39 28.0971 Q1103 26.1121 1107.98 26.1121 Q1116.24 26.1121 1121.39 32.6746 Q1126.57 39.2371 1126.57 49.9314 Q1126.57 60.6258 1121.39 67.1883 Q1116.24 73.7508 1107.98 73.7508 Q1103 73.7508 1099.39 71.8063 Q1095.83 69.8214 1093.48 65.7705 L1093.48 72.576 L1085.98 72.576 L1085.98 9.54393 L1093.48 9.54393 L1093.48 34.0924 Z" fill="#000000" fill-rule="nonzero" fill-opacity="1" /><path clip-path="url(#clip060)" d="M1138.93 9.54393 L1146.38 9.54393 L1146.38 72.576 L1138.93 72.576 L1138.93 9.54393 Z" fill="#000000" fill-rule="nonzero" fill-opacity="1" /><path clip-path="url(#clip060)" d="M1200.78 48.0275 L1200.78 51.6733 L1166.51 51.6733 Q1167 59.3701 1171.13 63.421 Q1175.3 67.4314 1182.72 67.4314 Q1187.01 67.4314 1191.02 66.3781 Q1195.07 65.3249 1199.04 63.2184 L1199.04 70.267 Q1195.03 71.9684 1190.82 72.8596 Q1186.61 73.7508 1182.27 73.7508 Q1171.42 73.7508 1165.06 67.4314 Q1158.74 61.1119 1158.74 50.3365 Q1158.74 39.1965 1164.73 32.6746 Q1170.77 26.1121 1180.98 26.1121 Q1190.13 26.1121 1195.44 32.0264 Q1200.78 37.9003 1200.78 48.0275 M1193.33 45.84 Q1193.25 39.7232 1189.89 36.0774 Q1186.57 32.4315 1181.06 32.4315 Q1174.82 32.4315 1171.05 35.9558 Q1167.32 39.4801 1166.76 45.8805 L1193.33 45.84 M1174.66 6.22219 L1186.08 21.3726 L1179.88 21.3726 L1166.68 6.22219 L1174.66 6.22219 Z" fill="#000000" fill-rule="nonzero" fill-opacity="1" /><path clip-path="url(#clip060)" d="M1248.34 35.9153 Q1251.14 30.8922 1255.03 28.5022 Q1258.91 26.1121 1264.18 26.1121 Q1271.27 26.1121 1275.12 31.0947 Q1278.97 36.0368 1278.97 45.1919 L1278.97 72.576 L1271.47 72.576 L1271.47 45.4349 Q1271.47 38.913 1269.16 35.7533 Q1266.85 32.5936 1262.11 32.5936 Q1256.32 32.5936 1252.96 36.4419 Q1249.6 40.2903 1249.6 46.9338 L1249.6 72.576 L1242.1 72.576 L1242.1 45.4349 Q1242.1 38.8725 1239.79 35.7533 Q1237.49 32.5936 1232.66 32.5936 Q1226.95 32.5936 1223.59 36.4824 Q1220.23 40.3308 1220.23 46.9338 L1220.23 72.576 L1212.73 72.576 L1212.73 27.2059 L1220.23 27.2059 L1220.23 34.2544 Q1222.78 30.082 1226.35 28.0971 Q1229.91 26.1121 1234.81 26.1121 Q1239.75 26.1121 1243.2 28.6237 Q1246.68 31.1352 1248.34 35.9153 Z" fill="#000000" fill-rule="nonzero" fill-opacity="1" /><path clip-path="url(#clip060)" d="M1332.64 48.0275 L1332.64 51.6733 L1298.37 51.6733 Q1298.86 59.3701 1302.99 63.421 Q1307.16 67.4314 1314.57 67.4314 Q1318.87 67.4314 1322.88 66.3781 Q1326.93 65.3249 1330.9 63.2184 L1330.9 70.267 Q1326.89 71.9684 1322.68 72.8596 Q1318.46 73.7508 1314.13 73.7508 Q1303.27 73.7508 1296.91 67.4314 Q1290.59 61.1119 1290.59 50.3365 Q1290.59 39.1965 1296.59 32.6746 Q1302.62 26.1121 1312.83 26.1121 Q1321.99 26.1121 1327.29 32.0264 Q1332.64 37.9003 1332.64 48.0275 M1325.19 45.84 Q1325.11 39.7232 1321.74 36.0774 Q1318.42 32.4315 1312.91 32.4315 Q1306.67 32.4315 1302.91 35.9558 Q1299.18 39.4801 1298.61 45.8805 L1325.19 45.84 Z" fill="#000000" fill-rule="nonzero" fill-opacity="1" /><path clip-path="url(#clip060)" d="M1373.15 62.2867 L1381.7 62.2867 L1381.7 72.576 L1373.15 72.576 L1373.15 62.2867 M1373.15 29.6769 L1381.7 29.6769 L1381.7 39.9662 L1373.15 39.9662 L1373.15 29.6769 Z" fill="#000000" fill-rule="nonzero" fill-opacity="1" /><path clip-path="url(#clip060)" d="M1432.94 14.324 L1432.94 27.2059 L1448.29 27.2059 L1448.29 32.9987 L1432.94 32.9987 L1432.94 57.6282 Q1432.94 63.1779 1434.44 64.7578 Q1435.98 66.3376 1440.64 66.3376 L1448.29 66.3376 L1448.29 72.576 L1440.64 72.576 Q1432.01 72.576 1428.73 69.3758 Q1425.45 66.1351 1425.45 57.6282 L1425.45 32.9987 L1419.98 32.9987 L1419.98 27.2059 L1425.45 27.2059 L1425.45 14.324 L1432.94 14.324 Z" fill="#000000" fill-rule="nonzero" fill-opacity="1" /><path clip-path="url(#clip060)" d="M1465.31 65.7705 L1465.31 89.8329 L1457.81 89.8329 L1457.81 27.2059 L1465.31 27.2059 L1465.31 34.0924 Q1467.66 30.0415 1471.22 28.0971 Q1474.83 26.1121 1479.81 26.1121 Q1488.07 26.1121 1493.22 32.6746 Q1498.4 39.2371 1498.4 49.9314 Q1498.4 60.6258 1493.22 67.1883 Q1488.07 73.7508 1479.81 73.7508 Q1474.83 73.7508 1471.22 71.8063 Q1467.66 69.8214 1465.31 65.7705 M1490.67 49.9314 Q1490.67 41.7081 1487.26 37.0496 Q1483.9 32.3505 1477.99 32.3505 Q1472.07 32.3505 1468.67 37.0496 Q1465.31 41.7081 1465.31 49.9314 Q1465.31 58.1548 1468.67 62.8538 Q1472.07 67.5124 1477.99 67.5124 Q1483.9 67.5124 1487.26 62.8538 Q1490.67 58.1548 1490.67 49.9314 Z" fill="#000000" fill-rule="nonzero" fill-opacity="1" /><path clip-path="url(#clip060)" d="M1518.86 65.6895 L1547.42 65.6895 L1547.42 72.576 L1509.02 72.576 L1509.02 65.6895 Q1513.68 60.8689 1521.7 52.7671 Q1529.76 44.6248 1531.82 42.2752 Q1535.75 37.8598 1537.29 34.8216 Q1538.87 31.7429 1538.87 28.7857 Q1538.87 23.9651 1535.47 20.927 Q1532.11 17.8888 1526.68 17.8888 Q1522.83 17.8888 1518.54 19.2256 Q1514.28 20.5624 1509.42 23.2765 L1509.42 15.0127 Q1514.36 13.0277 1518.66 12.015 Q1522.95 11.0023 1526.52 11.0023 Q1535.92 11.0023 1541.51 15.7013 Q1547.1 20.4004 1547.1 28.2591 Q1547.1 31.9859 1545.68 35.3482 Q1544.3 38.6699 1540.61 43.2069 Q1539.6 44.3817 1534.17 50.0125 Q1528.75 55.6027 1518.86 65.6895 Z" fill="#000000" fill-rule="nonzero" fill-opacity="1" /><path clip-path="url(#clip060)" d="M1564.84 71.3202 L1564.84 63.8666 Q1567.92 65.3249 1571.08 66.0946 Q1574.24 66.8642 1577.28 66.8642 Q1585.38 66.8642 1589.63 61.436 Q1593.92 55.9673 1594.53 44.8678 Q1592.18 48.3516 1588.58 50.215 Q1584.97 52.0784 1580.6 52.0784 Q1571.52 52.0784 1566.22 46.6097 Q1560.95 41.1005 1560.95 31.5808 Q1560.95 22.2638 1566.46 16.633 Q1571.97 11.0023 1581.12 11.0023 Q1591.62 11.0023 1597.12 19.0636 Q1602.67 27.0843 1602.67 42.3968 Q1602.67 56.6965 1595.87 65.2439 Q1589.1 73.7508 1577.64 73.7508 Q1574.56 73.7508 1571.4 73.1431 Q1568.24 72.5355 1564.84 71.3202 M1581.12 45.678 Q1586.63 45.678 1589.83 41.9107 Q1593.07 38.1433 1593.07 31.5808 Q1593.07 25.0589 1589.83 21.2916 Q1586.63 17.4837 1581.12 17.4837 Q1575.61 17.4837 1572.37 21.2916 Q1569.17 25.0589 1569.17 31.5808 Q1569.17 38.1433 1572.37 41.9107 Q1575.61 45.678 1581.12 45.678 Z" fill="#000000" fill-rule="nonzero" fill-opacity="1" /><path clip-path="url(#clip060)" d="M1617.46 12.096 L1649.58 12.096 L1649.58 18.9825 L1624.95 18.9825 L1624.95 33.8088 Q1626.74 33.2012 1628.52 32.9176 Q1630.3 32.5936 1632.08 32.5936 Q1642.21 32.5936 1648.13 38.1433 Q1654.04 43.6931 1654.04 53.1722 Q1654.04 62.9348 1647.96 68.3631 Q1641.89 73.7508 1630.83 73.7508 Q1627.02 73.7508 1623.05 73.1026 Q1619.12 72.4545 1614.91 71.1582 L1614.91 62.9348 Q1618.55 64.9198 1622.44 65.892 Q1626.33 66.8642 1630.67 66.8642 Q1637.67 66.8642 1641.77 63.1779 Q1645.86 59.4916 1645.86 53.1722 Q1645.86 46.8528 1641.77 43.1664 Q1637.67 39.4801 1630.67 39.4801 Q1627.38 39.4801 1624.1 40.2093 Q1620.86 40.9384 1617.46 42.4778 L1617.46 12.096 Z" fill="#000000" fill-rule="nonzero" fill-opacity="1" /><polyline clip-path="url(#clip062)" style="stroke:#009af9; stroke-linecap:round; stroke-linejoin:round; stroke-width:4; stroke-opacity:1; fill:none" points="311.028,160.256 321.92,233.512 332.811,277.472 343.703,333.569 354.594,347.45 365.486,347.819 376.377,349.828 387.269,349.828 398.16,349.828 409.052,349.828 419.943,349.828 430.835,349.828 441.727,349.828 452.618,349.828 463.51,349.828 474.401,350.591 485.293,351.77 496.184,353.421 507.076,355.538 517.967,357.989 528.859,361.082 539.75,363.484 550.642,368.289 561.533,368.289 572.425,368.289 583.317,371.495 594.208,375.589 605.1,380.95 615.991,385.805 626.883,395.044 637.774,395.044 648.666,403.369 659.557,416.61 670.449,428.125 681.34,446.497 692.232,457.885 703.123,482.432 714.015,491.235 724.907,499.431 735.798,507.144 746.69,514.468 757.581,521.472 768.473,528.211 779.364,534.725 790.256,541.049 801.147,547.208 812.039,553.223 822.93,559.114 833.822,564.895 844.713,570.578 855.605,576.174 866.497,581.693 877.388,587.142 888.28,592.528 899.171,597.858 910.063,603.136 920.954,608.368 931.846,613.557 942.737,618.707 953.629,623.822 964.52,628.904 975.412,633.957 986.303,638.982 997.195,643.982 1008.09,648.959 1018.98,653.914 1029.87,658.85 1040.76,663.767 1051.65,668.668 1062.54,673.553 1073.44,678.424 1084.33,683.281 1095.22,688.126 1106.11,692.959 1117,697.782 1127.89,702.595 1138.78,707.399 1149.68,712.194 1160.57,716.981 1171.46,721.76 1182.35,726.533 1193.24,731.299 1204.13,736.06 1215.03,740.815 1225.92,745.564 1236.81,750.309 1247.7,755.049 1258.59,759.785 1269.48,764.517 1280.38,769.246 1291.27,773.971 1302.16,778.693 1313.05,783.412 1323.94,788.128 1334.83,792.841 1345.72,797.552 1356.62,802.261 1367.51,806.968 1378.4,811.673 1389.29,816.376 1400.18,821.077 1411.07,825.777 1421.97,830.475 1432.86,835.172 1443.75,839.867 1454.64,844.561 1465.53,849.254 1476.42,853.946 1487.31,858.638 1498.21,863.328 1509.1,868.017 1519.99,872.705 1530.88,877.393 1541.77,882.08 1552.66,886.766 1563.56,891.452 1574.45,896.137 1585.34,900.822 1596.23,905.506 1607.12,910.189 1618.01,914.872 1628.9,919.555 1639.8,924.237 1650.69,928.919 1661.58,933.601 1672.47,938.282 1683.36,942.963 1694.25,947.644 1705.15,952.325 1716.04,957.005 1726.93,961.685 1737.82,966.365 1748.71,971.044 1759.6,975.724 1770.49,980.403 1781.39,985.082 1792.28,989.761 1803.17,994.44 1814.06,999.118 1824.95,1003.8 1835.84,1008.48 1846.74,1013.15 1857.63,1017.83 1868.52,1022.51 1879.41,1027.19 1890.3,1031.87 1901.19,1036.54 1912.08,1041.22 1922.98,1045.9 1933.87,1050.58 1944.76,1055.25 1955.65,1059.93 1966.54,1064.61 1977.43,1069.29 1988.33,1073.96 1999.22,1078.64 2010.11,1083.32 2021,1088 2031.89,1092.67 2042.78,1097.35 2053.67,1102.03 2064.57,1106.71 2075.46,1111.38 2086.35,1116.06 2097.24,1120.74 2108.13,1125.41 2119.02,1130.09 2129.92,1134.77 2140.81,1139.45 2151.7,1144.12 2162.59,1148.8 2173.48,1153.48 2184.37,1158.15 2195.26,1162.83 2206.16,1167.51 2217.05,1172.18 2227.94,1176.86 2238.83,1181.54 "/>
<polyline clip-path="url(#clip062)" style="stroke:#e26f46; stroke-linecap:round; stroke-linejoin:round; stroke-width:4; stroke-opacity:1; fill:none" points="311.028,160.256 321.92,233.512 332.811,287.286 343.703,343.183 354.594,347.393 365.486,347.612 376.377,347.706 387.269,347.751 398.16,347.799 409.052,347.868 419.943,347.971 430.835,348.134 441.727,348.415 452.618,348.997 463.51,350.262 474.401,351.572 485.293,352.83 496.184,354.043 507.076,355.412 517.967,357.39 528.859,359.749 539.75,361.982 550.642,363.94 561.533,366.164 572.425,369.1 583.317,371.96 594.208,374.129 605.1,376.134 615.991,378.234 626.883,380.986 637.774,385.067 648.666,390.139 659.557,394.52 670.449,398.466 681.34,402.811 692.232,408.712 703.123,417.629 714.015,427.855 724.907,435.966 735.798,442.763 746.69,448.92 757.581,455.526 768.473,463.16 779.364,472.882 790.256,486.002 801.147,503.67 812.039,528.328 822.93,553.996 833.822,588.72 844.713,646.169 855.605,688.519 866.497,708.22 877.388,739.21 888.28,758.669 899.171,789.467 910.063,808.781 920.954,839.567 931.846,858.814 942.737,889.598 953.629,908.812 964.52,939.594 975.412,958.794 986.303,989.575 997.195,1008.77 1008.09,1039.55 1018.98,1058.74 1029.87,1089.52 1040.76,1108.7 1051.65,1139.48 1062.54,1158.67 1073.44,1189.45 1084.33,1208.63 "/>
<polyline clip-path="url(#clip062)" style="stroke:#3da44d; stroke-linecap:round; stroke-linejoin:round; stroke-width:4; stroke-opacity:1; fill:none" points="311.028,160.256 321.92,233.512 332.811,287.286 343.703,343.183 354.594,347.393 365.486,347.612 376.377,347.706 387.269,347.751 398.16,347.799 409.052,347.868 419.943,347.971 430.835,348.134 441.727,348.415 452.618,348.997 463.51,350.262 474.401,351.572 485.293,352.83 496.184,354.043 507.076,355.412 517.967,357.39 528.859,359.749 539.75,361.982 550.642,363.94 561.533,366.164 572.425,369.1 583.317,371.96 594.208,374.129 605.1,376.134 615.991,378.234 626.883,380.986 637.774,385.067 648.666,390.139 659.557,394.52 670.449,398.466 681.34,402.811 692.232,408.712 703.123,417.629 714.015,427.855 724.907,435.966 735.798,442.763 746.69,448.92 757.581,455.526 768.473,463.16 779.364,472.882 790.256,486.002 801.147,503.67 812.039,528.328 822.93,553.996 833.822,588.72 844.713,646.169 855.605,688.519 866.497,708.22 877.388,739.21 888.28,758.669 899.171,789.467 910.063,808.781 920.954,839.567 931.846,858.814 942.737,889.598 953.629,908.812 964.52,939.594 975.412,958.794 986.303,989.575 997.195,1008.77 1008.09,1039.55 1018.98,1058.74 1029.87,1089.52 1040.76,1108.7 1051.65,1139.48 1062.54,1158.67 1073.44,1189.45 1084.33,1208.63 "/>
<polyline clip-path="url(#clip062)" style="stroke:#c271d2; stroke-linecap:round; stroke-linejoin:round; stroke-width:4; stroke-opacity:1; fill:none" points="311.028,160.256 321.92,233.512 332.811,277.472 343.703,333.569 354.594,347.45 365.486,347.819 376.377,349.828 387.269,349.828 398.16,349.828 409.052,349.828 419.943,349.828 430.835,349.828 441.727,349.828 452.618,349.828 463.51,349.828 474.401,350.591 485.293,351.77 496.184,353.421 507.076,355.538 517.967,357.989 528.859,361.082 539.75,363.484 550.642,368.272 561.533,368.272 572.425,370.241 583.317,377.289 594.208,377.289 605.1,381.607 615.991,387.306 626.883,394.917 637.774,403.617 648.666,417.297 659.557,428.961 670.449,447.513 681.34,457.766 692.232,483.963 703.123,492.283 714.015,500.073 724.907,507.435 735.798,514.447 746.69,521.166 757.581,527.64 768.473,533.905 779.364,539.992 790.256,545.924 801.147,551.72 812.039,557.397 822.93,562.97 833.822,568.449 844.713,573.845 855.605,579.166 866.497,584.42 877.388,589.613 888.28,594.751 899.171,599.839 910.063,604.882 920.954,609.883 931.846,614.845 942.737,619.773 953.629,624.669 964.52,629.536 975.412,634.376 986.303,639.19 997.195,643.982 1008.09,648.752 1018.98,653.502 1029.87,658.235 1040.76,662.95 1051.65,667.65 1062.54,672.335 1073.44,677.006 1084.33,681.665 1095.22,686.313 1106.11,690.949 1117,695.576 1127.89,700.192 1138.78,704.801 1149.68,709.4 1160.57,713.993 1171.46,718.578 1182.35,723.156 1193.24,727.729 1204.13,732.295 1215.03,736.856 1225.92,741.412 1236.81,745.964 1247.7,750.511 1258.59,755.053 1269.48,759.592 1280.38,764.128 1291.27,768.66 1302.16,773.188 1313.05,777.714 1323.94,782.237 1334.83,786.757 1345.72,791.275 1356.62,795.791 1367.51,800.305 1378.4,804.816 1389.29,809.326 1400.18,813.834 1411.07,818.341 1421.97,822.845 1432.86,827.349 1443.75,831.851 1454.64,836.352 1465.53,840.851 1476.42,845.35 1487.31,849.847 1498.21,854.344 1509.1,858.839 1519.99,863.334 1530.88,867.828 1541.77,872.321 1552.66,876.814 1563.56,881.306 1574.45,885.797 1585.34,890.288 1596.23,894.778 1607.12,899.267 1618.01,903.756 1628.9,908.245 1639.8,912.733 1650.69,917.221 1661.58,921.709 1672.47,926.196 1683.36,930.683 1694.25,935.169 1705.15,939.655 1716.04,944.141 1726.93,948.627 1737.82,953.113 1748.71,957.598 1759.6,962.083 1770.49,966.568 1781.39,971.053 1792.28,975.537 1803.17,980.021 1814.06,984.506 1824.95,988.99 1835.84,993.474 1846.74,997.958 1857.63,1002.44 1868.52,1006.92 1879.41,1011.41 1890.3,1015.89 1901.19,1020.38 1912.08,1024.86 1922.98,1029.34 1933.87,1033.82 1944.76,1038.31 1955.65,1042.79 1966.54,1047.27 1977.43,1051.76 1988.33,1056.24 1999.22,1060.72 2010.11,1065.2 2021,1069.69 2031.89,1074.17 2042.78,1078.65 2053.67,1083.13 2064.57,1087.62 2075.46,1092.1 2086.35,1096.58 2097.24,1101.06 2108.13,1105.55 2119.02,1110.03 2129.92,1114.51 2140.81,1118.99 2151.7,1123.48 2162.59,1127.96 2173.48,1132.44 2184.37,1136.92 2195.26,1141.41 2206.16,1145.89 2217.05,1150.37 2227.94,1154.85 2238.83,1159.33 2249.72,1163.82 2260.61,1168.3 2271.51,1172.78 2282.4,1177.26 2293.29,1181.74 "/>
<polyline clip-path="url(#clip062)" style="stroke:#ac8d18; stroke-linecap:round; stroke-linejoin:round; stroke-width:4; stroke-opacity:1; fill:none" points="311.028,160.256 321.92,173.61 332.811,173.61 343.703,173.61 354.594,173.61 365.486,173.61 376.377,173.61 387.269,173.61 398.16,173.61 409.052,173.61 419.943,191.666 430.835,259.679 441.727,347.456 452.618,349.402 463.51,349.402 474.401,350.481 485.293,351.652 496.184,352.869 507.076,356.033 517.967,356.033 528.859,358.133 539.75,359.768 550.642,362.384 561.533,363.918 572.425,368.618 583.317,374.96 594.208,382.767 605.1,392.539 615.991,405.127 626.883,425.956 637.774,464.096 648.666,484.167 659.557,518.164 670.449,571.056 681.34,653.33 692.232,776.056 703.123,939.668 714.015,1141.06 724.907,1386.4 "/>
<path clip-path="url(#clip060)" d="M1749.5 477.836 L2282.72 477.836 L2282.72 166.796 L1749.5 166.796  Z" fill="#ffffff" fill-rule="evenodd" fill-opacity="1"/>
<polyline clip-path="url(#clip060)" style="stroke:#000000; stroke-linecap:round; stroke-linejoin:round; stroke-width:4; stroke-opacity:1; fill:none" points="1749.5,477.836 2282.72,477.836 2282.72,166.796 1749.5,166.796 1749.5,477.836 "/>
<polyline clip-path="url(#clip060)" style="stroke:#009af9; stroke-linecap:round; stroke-linejoin:round; stroke-width:4; stroke-opacity:1; fill:none" points="1772.84,218.636 1912.92,218.636 "/>
<path clip-path="url(#clip060)" d="M1936.27 201.356 L1940.95 201.356 L1940.95 231.981 L1957.77 231.981 L1957.77 235.916 L1936.27 235.916 L1936.27 201.356 Z" fill="#000000" fill-rule="nonzero" fill-opacity="1" /><path clip-path="url(#clip060)" d="M1962.68 201.356 L1969.65 201.356 L1978.47 224.874 L1987.33 201.356 L1994.3 201.356 L1994.3 235.916 L1989.74 235.916 L1989.74 205.569 L1980.83 229.272 L1976.13 229.272 L1967.22 205.569 L1967.22 235.916 L1962.68 235.916 L1962.68 201.356 Z" fill="#000000" fill-rule="nonzero" fill-opacity="1" /><path clip-path="url(#clip060)" d="M2023.1 243.786 L2023.1 247.096 L1998.47 247.096 L1998.47 243.786 L2023.1 243.786 Z" fill="#000000" fill-rule="nonzero" fill-opacity="1" /><path clip-path="url(#clip060)" d="M2048 202.49 L2048 207.05 Q2045.34 205.777 2042.98 205.152 Q2040.62 204.527 2038.42 204.527 Q2034.6 204.527 2032.52 206.008 Q2030.46 207.49 2030.46 210.221 Q2030.46 212.513 2031.82 213.694 Q2033.21 214.851 2037.06 215.569 L2039.88 216.147 Q2045.11 217.143 2047.59 219.666 Q2050.09 222.166 2050.09 226.379 Q2050.09 231.402 2046.71 233.994 Q2043.35 236.587 2036.85 236.587 Q2034.39 236.587 2031.62 236.031 Q2028.86 235.476 2025.9 234.388 L2025.9 229.573 Q2028.75 231.17 2031.48 231.981 Q2034.21 232.791 2036.85 232.791 Q2040.85 232.791 2043.03 231.217 Q2045.2 229.643 2045.2 226.726 Q2045.2 224.18 2043.63 222.744 Q2042.08 221.309 2038.51 220.592 L2035.67 220.036 Q2030.44 218.995 2028.1 216.772 Q2025.76 214.55 2025.76 210.592 Q2025.76 206.008 2028.98 203.37 Q2032.22 200.731 2037.89 200.731 Q2040.32 200.731 2042.84 201.171 Q2045.37 201.61 2048 202.49 Z" fill="#000000" fill-rule="nonzero" fill-opacity="1" /><path clip-path="url(#clip060)" d="M2062.06 205.198 L2062.06 218.184 L2067.94 218.184 Q2071.2 218.184 2072.98 216.495 Q2074.76 214.805 2074.76 211.68 Q2074.76 208.578 2072.98 206.888 Q2071.2 205.198 2067.94 205.198 L2062.06 205.198 M2057.38 201.356 L2067.94 201.356 Q2073.75 201.356 2076.71 203.995 Q2079.69 206.61 2079.69 211.68 Q2079.69 216.795 2076.71 219.411 Q2073.75 222.027 2067.94 222.027 L2062.06 222.027 L2062.06 235.916 L2057.38 235.916 L2057.38 201.356 Z" fill="#000000" fill-rule="nonzero" fill-opacity="1" /><path clip-path="url(#clip060)" d="M2109.53 230.985 L2109.53 221.703 L2101.89 221.703 L2101.89 217.86 L2114.16 217.86 L2114.16 232.698 Q2111.45 234.619 2108.19 235.615 Q2104.93 236.587 2101.22 236.587 Q2093.12 236.587 2088.54 231.865 Q2083.98 227.119 2083.98 218.67 Q2083.98 210.198 2088.54 205.476 Q2093.12 200.731 2101.22 200.731 Q2104.6 200.731 2107.63 201.564 Q2110.69 202.397 2113.26 204.018 L2113.26 208.995 Q2110.67 206.796 2107.75 205.684 Q2104.83 204.573 2101.62 204.573 Q2095.27 204.573 2092.08 208.115 Q2088.91 211.657 2088.91 218.67 Q2088.91 225.661 2092.08 229.203 Q2095.27 232.744 2101.62 232.744 Q2104.09 232.744 2106.04 232.328 Q2107.98 231.888 2109.53 230.985 Z" fill="#000000" fill-rule="nonzero" fill-opacity="1" /><polyline clip-path="url(#clip060)" style="stroke:#e26f46; stroke-linecap:round; stroke-linejoin:round; stroke-width:4; stroke-opacity:1; fill:none" points="1772.84,270.476 1912.92,270.476 "/>
<path clip-path="url(#clip060)" d="M1936.27 253.196 L1940.95 253.196 L1940.95 283.821 L1957.77 283.821 L1957.77 287.756 L1936.27 287.756 L1936.27 253.196 Z" fill="#000000" fill-rule="nonzero" fill-opacity="1" /><path clip-path="url(#clip060)" d="M1962.68 253.196 L1969.65 253.196 L1978.47 276.714 L1987.33 253.196 L1994.3 253.196 L1994.3 287.756 L1989.74 287.756 L1989.74 257.409 L1980.83 281.112 L1976.13 281.112 L1967.22 257.409 L1967.22 287.756 L1962.68 287.756 L1962.68 253.196 Z" fill="#000000" fill-rule="nonzero" fill-opacity="1" /><path clip-path="url(#clip060)" d="M2023.1 295.626 L2023.1 298.936 L1998.47 298.936 L1998.47 295.626 L2023.1 295.626 Z" fill="#000000" fill-rule="nonzero" fill-opacity="1" /><path clip-path="url(#clip060)" d="M2038.84 257.802 L2032.5 275.001 L2045.2 275.001 L2038.84 257.802 M2036.2 253.196 L2041.5 253.196 L2054.67 287.756 L2049.81 287.756 L2046.66 278.89 L2031.08 278.89 L2027.94 287.756 L2023 287.756 L2036.2 253.196 Z" fill="#000000" fill-rule="nonzero" fill-opacity="1" /><path clip-path="url(#clip060)" d="M2081.08 272.108 L2081.08 287.756 L2076.82 287.756 L2076.82 272.247 Q2076.82 268.566 2075.39 266.737 Q2073.95 264.909 2071.08 264.909 Q2067.63 264.909 2065.64 267.108 Q2063.65 269.307 2063.65 273.103 L2063.65 287.756 L2059.37 287.756 L2059.37 261.83 L2063.65 261.83 L2063.65 265.858 Q2065.18 263.52 2067.24 262.362 Q2069.32 261.205 2072.03 261.205 Q2076.5 261.205 2078.79 263.983 Q2081.08 266.737 2081.08 272.108 Z" fill="#000000" fill-rule="nonzero" fill-opacity="1" /><path clip-path="url(#clip060)" d="M2106.64 265.765 L2106.64 251.737 L2110.9 251.737 L2110.9 287.756 L2106.64 287.756 L2106.64 283.867 Q2105.3 286.182 2103.24 287.316 Q2101.2 288.427 2098.33 288.427 Q2093.63 288.427 2090.67 284.677 Q2087.73 280.927 2087.73 274.816 Q2087.73 268.705 2090.67 264.955 Q2093.63 261.205 2098.33 261.205 Q2101.2 261.205 2103.24 262.339 Q2105.3 263.45 2106.64 265.765 M2092.12 274.816 Q2092.12 279.515 2094.05 282.2 Q2095.99 284.862 2099.37 284.862 Q2102.75 284.862 2104.69 282.2 Q2106.64 279.515 2106.64 274.816 Q2106.64 270.117 2104.69 267.455 Q2102.75 264.77 2099.37 264.77 Q2095.99 264.77 2094.05 267.455 Q2092.12 270.117 2092.12 274.816 Z" fill="#000000" fill-rule="nonzero" fill-opacity="1" /><path clip-path="url(#clip060)" d="M2134.69 265.811 Q2133.98 265.395 2133.12 265.21 Q2132.29 265.001 2131.27 265.001 Q2127.66 265.001 2125.71 267.362 Q2123.79 269.7 2123.79 274.098 L2123.79 287.756 L2119.51 287.756 L2119.51 261.83 L2123.79 261.83 L2123.79 265.858 Q2125.13 263.497 2127.29 262.362 Q2129.44 261.205 2132.52 261.205 Q2132.96 261.205 2133.49 261.274 Q2134.02 261.321 2134.67 261.436 L2134.69 265.811 Z" fill="#000000" fill-rule="nonzero" fill-opacity="1" /><path clip-path="url(#clip060)" d="M2160.3 273.728 L2160.3 275.811 L2140.71 275.811 Q2140.99 280.209 2143.35 282.524 Q2145.74 284.816 2149.97 284.816 Q2152.43 284.816 2154.72 284.214 Q2157.03 283.612 2159.3 282.409 L2159.3 286.436 Q2157.01 287.408 2154.6 287.918 Q2152.19 288.427 2149.72 288.427 Q2143.51 288.427 2139.88 284.816 Q2136.27 281.205 2136.27 275.047 Q2136.27 268.682 2139.69 264.955 Q2143.14 261.205 2148.98 261.205 Q2154.21 261.205 2157.24 264.585 Q2160.3 267.941 2160.3 273.728 M2156.04 272.478 Q2155.99 268.983 2154.07 266.899 Q2152.17 264.816 2149.02 264.816 Q2145.46 264.816 2143.31 266.83 Q2141.18 268.844 2140.85 272.501 L2156.04 272.478 Z" fill="#000000" fill-rule="nonzero" fill-opacity="1" /><path clip-path="url(#clip060)" d="M2167.29 261.83 L2171.55 261.83 L2171.55 287.756 L2167.29 287.756 L2167.29 261.83 M2167.29 251.737 L2171.55 251.737 L2171.55 257.131 L2167.29 257.131 L2167.29 251.737 Z" fill="#000000" fill-rule="nonzero" fill-opacity="1" /><path clip-path="url(#clip060)" d="M2200.16 295.626 L2200.16 298.936 L2175.53 298.936 L2175.53 295.626 L2200.16 295.626 Z" fill="#000000" fill-rule="nonzero" fill-opacity="1" /><path clip-path="url(#clip060)" d="M2215.94 274.723 Q2210.78 274.723 2208.79 275.904 Q2206.8 277.084 2206.8 279.932 Q2206.8 282.2 2208.28 283.543 Q2209.79 284.862 2212.36 284.862 Q2215.9 284.862 2218.03 282.362 Q2220.18 279.839 2220.18 275.672 L2220.18 274.723 L2215.94 274.723 M2224.44 272.964 L2224.44 287.756 L2220.18 287.756 L2220.18 283.821 Q2218.72 286.182 2216.55 287.316 Q2214.37 288.427 2211.22 288.427 Q2207.24 288.427 2204.88 286.205 Q2202.54 283.959 2202.54 280.209 Q2202.54 275.834 2205.46 273.612 Q2208.4 271.39 2214.21 271.39 L2220.18 271.39 L2220.18 270.973 Q2220.18 268.034 2218.24 266.436 Q2216.31 264.816 2212.82 264.816 Q2210.6 264.816 2208.49 265.348 Q2206.38 265.881 2204.44 266.946 L2204.44 263.01 Q2206.78 262.108 2208.98 261.668 Q2211.18 261.205 2213.26 261.205 Q2218.88 261.205 2221.66 264.122 Q2224.44 267.038 2224.44 272.964 Z" fill="#000000" fill-rule="nonzero" fill-opacity="1" /><path clip-path="url(#clip060)" d="M2233.21 251.737 L2237.47 251.737 L2237.47 287.756 L2233.21 287.756 L2233.21 251.737 Z" fill="#000000" fill-rule="nonzero" fill-opacity="1" /><path clip-path="url(#clip060)" d="M2250.6 254.469 L2250.6 261.83 L2259.37 261.83 L2259.37 265.14 L2250.6 265.14 L2250.6 279.214 Q2250.6 282.385 2251.45 283.288 Q2252.33 284.191 2254.99 284.191 L2259.37 284.191 L2259.37 287.756 L2254.99 287.756 Q2250.06 287.756 2248.19 285.927 Q2246.31 284.075 2246.31 279.214 L2246.31 265.14 L2243.19 265.14 L2243.19 261.83 L2246.31 261.83 L2246.31 254.469 L2250.6 254.469 Z" fill="#000000" fill-rule="nonzero" fill-opacity="1" /><polyline clip-path="url(#clip060)" style="stroke:#3da44d; stroke-linecap:round; stroke-linejoin:round; stroke-width:4; stroke-opacity:1; fill:none" points="1772.84,322.316 1912.92,322.316 "/>
<path clip-path="url(#clip060)" d="M1936.27 305.036 L1940.95 305.036 L1940.95 335.661 L1957.77 335.661 L1957.77 339.596 L1936.27 339.596 L1936.27 305.036 Z" fill="#000000" fill-rule="nonzero" fill-opacity="1" /><path clip-path="url(#clip060)" d="M1962.68 305.036 L1969.65 305.036 L1978.47 328.554 L1987.33 305.036 L1994.3 305.036 L1994.3 339.596 L1989.74 339.596 L1989.74 309.249 L1980.83 332.952 L1976.13 332.952 L1967.22 309.249 L1967.22 339.596 L1962.68 339.596 L1962.68 305.036 Z" fill="#000000" fill-rule="nonzero" fill-opacity="1" /><path clip-path="url(#clip060)" d="M2023.1 347.466 L2023.1 350.776 L1998.47 350.776 L1998.47 347.466 L2023.1 347.466 Z" fill="#000000" fill-rule="nonzero" fill-opacity="1" /><path clip-path="url(#clip060)" d="M2038.84 309.642 L2032.5 326.841 L2045.2 326.841 L2038.84 309.642 M2036.2 305.036 L2041.5 305.036 L2054.67 339.596 L2049.81 339.596 L2046.66 330.73 L2031.08 330.73 L2027.94 339.596 L2023 339.596 L2036.2 305.036 Z" fill="#000000" fill-rule="nonzero" fill-opacity="1" /><path clip-path="url(#clip060)" d="M2081.08 323.948 L2081.08 339.596 L2076.82 339.596 L2076.82 324.087 Q2076.82 320.406 2075.39 318.577 Q2073.95 316.749 2071.08 316.749 Q2067.63 316.749 2065.64 318.948 Q2063.65 321.147 2063.65 324.943 L2063.65 339.596 L2059.37 339.596 L2059.37 313.67 L2063.65 313.67 L2063.65 317.698 Q2065.18 315.36 2067.24 314.202 Q2069.32 313.045 2072.03 313.045 Q2076.5 313.045 2078.79 315.823 Q2081.08 318.577 2081.08 323.948 Z" fill="#000000" fill-rule="nonzero" fill-opacity="1" /><path clip-path="url(#clip060)" d="M2106.64 317.605 L2106.64 303.577 L2110.9 303.577 L2110.9 339.596 L2106.64 339.596 L2106.64 335.707 Q2105.3 338.022 2103.24 339.156 Q2101.2 340.267 2098.33 340.267 Q2093.63 340.267 2090.67 336.517 Q2087.73 332.767 2087.73 326.656 Q2087.73 320.545 2090.67 316.795 Q2093.63 313.045 2098.33 313.045 Q2101.2 313.045 2103.24 314.179 Q2105.3 315.29 2106.64 317.605 M2092.12 326.656 Q2092.12 331.355 2094.05 334.04 Q2095.99 336.702 2099.37 336.702 Q2102.75 336.702 2104.69 334.04 Q2106.64 331.355 2106.64 326.656 Q2106.64 321.957 2104.69 319.295 Q2102.75 316.61 2099.37 316.61 Q2095.99 316.61 2094.05 319.295 Q2092.12 321.957 2092.12 326.656 Z" fill="#000000" fill-rule="nonzero" fill-opacity="1" /><path clip-path="url(#clip060)" d="M2134.69 317.651 Q2133.98 317.235 2133.12 317.05 Q2132.29 316.841 2131.27 316.841 Q2127.66 316.841 2125.71 319.202 Q2123.79 321.54 2123.79 325.938 L2123.79 339.596 L2119.51 339.596 L2119.51 313.67 L2123.79 313.67 L2123.79 317.698 Q2125.13 315.337 2127.29 314.202 Q2129.44 313.045 2132.52 313.045 Q2132.96 313.045 2133.49 313.114 Q2134.02 313.161 2134.67 313.276 L2134.69 317.651 Z" fill="#000000" fill-rule="nonzero" fill-opacity="1" /><path clip-path="url(#clip060)" d="M2160.3 325.568 L2160.3 327.651 L2140.71 327.651 Q2140.99 332.049 2143.35 334.364 Q2145.74 336.656 2149.97 336.656 Q2152.43 336.656 2154.72 336.054 Q2157.03 335.452 2159.3 334.249 L2159.3 338.276 Q2157.01 339.248 2154.6 339.758 Q2152.19 340.267 2149.72 340.267 Q2143.51 340.267 2139.88 336.656 Q2136.27 333.045 2136.27 326.887 Q2136.27 320.522 2139.69 316.795 Q2143.14 313.045 2148.98 313.045 Q2154.21 313.045 2157.24 316.425 Q2160.3 319.781 2160.3 325.568 M2156.04 324.318 Q2155.99 320.823 2154.07 318.739 Q2152.17 316.656 2149.02 316.656 Q2145.46 316.656 2143.31 318.67 Q2141.18 320.684 2140.85 324.341 L2156.04 324.318 Z" fill="#000000" fill-rule="nonzero" fill-opacity="1" /><path clip-path="url(#clip060)" d="M2167.29 313.67 L2171.55 313.67 L2171.55 339.596 L2167.29 339.596 L2167.29 313.67 M2167.29 303.577 L2171.55 303.577 L2171.55 308.971 L2167.29 308.971 L2167.29 303.577 Z" fill="#000000" fill-rule="nonzero" fill-opacity="1" /><polyline clip-path="url(#clip060)" style="stroke:#c271d2; stroke-linecap:round; stroke-linejoin:round; stroke-width:4; stroke-opacity:1; fill:none" points="1772.84,374.156 1912.92,374.156 "/>
<path clip-path="url(#clip060)" d="M1936.27 356.876 L1940.95 356.876 L1940.95 387.501 L1957.77 387.501 L1957.77 391.436 L1936.27 391.436 L1936.27 356.876 Z" fill="#000000" fill-rule="nonzero" fill-opacity="1" /><path clip-path="url(#clip060)" d="M1962.68 356.876 L1969.65 356.876 L1978.47 380.394 L1987.33 356.876 L1994.3 356.876 L1994.3 391.436 L1989.74 391.436 L1989.74 361.089 L1980.83 384.792 L1976.13 384.792 L1967.22 361.089 L1967.22 391.436 L1962.68 391.436 L1962.68 356.876 Z" fill="#000000" fill-rule="nonzero" fill-opacity="1" /><path clip-path="url(#clip060)" d="M2023.1 399.306 L2023.1 402.616 L1998.47 402.616 L1998.47 399.306 L2023.1 399.306 Z" fill="#000000" fill-rule="nonzero" fill-opacity="1" /><path clip-path="url(#clip060)" d="M2048 358.01 L2048 362.57 Q2045.34 361.297 2042.98 360.672 Q2040.62 360.047 2038.42 360.047 Q2034.6 360.047 2032.52 361.528 Q2030.46 363.01 2030.46 365.741 Q2030.46 368.033 2031.82 369.214 Q2033.21 370.371 2037.06 371.089 L2039.88 371.667 Q2045.11 372.663 2047.59 375.186 Q2050.09 377.686 2050.09 381.899 Q2050.09 386.922 2046.71 389.514 Q2043.35 392.107 2036.85 392.107 Q2034.39 392.107 2031.62 391.551 Q2028.86 390.996 2025.9 389.908 L2025.9 385.093 Q2028.75 386.69 2031.48 387.501 Q2034.21 388.311 2036.85 388.311 Q2040.85 388.311 2043.03 386.737 Q2045.2 385.163 2045.2 382.246 Q2045.2 379.7 2043.63 378.264 Q2042.08 376.829 2038.51 376.112 L2035.67 375.556 Q2030.44 374.515 2028.1 372.292 Q2025.76 370.07 2025.76 366.112 Q2025.76 361.528 2028.98 358.89 Q2032.22 356.251 2037.89 356.251 Q2040.32 356.251 2042.84 356.691 Q2045.37 357.13 2048 358.01 Z" fill="#000000" fill-rule="nonzero" fill-opacity="1" /><path clip-path="url(#clip060)" d="M2062.06 360.718 L2062.06 373.704 L2067.94 373.704 Q2071.2 373.704 2072.98 372.015 Q2074.76 370.325 2074.76 367.2 Q2074.76 364.098 2072.98 362.408 Q2071.2 360.718 2067.94 360.718 L2062.06 360.718 M2057.38 356.876 L2067.94 356.876 Q2073.75 356.876 2076.71 359.515 Q2079.69 362.13 2079.69 367.2 Q2079.69 372.315 2076.71 374.931 Q2073.75 377.547 2067.94 377.547 L2062.06 377.547 L2062.06 391.436 L2057.38 391.436 L2057.38 356.876 Z" fill="#000000" fill-rule="nonzero" fill-opacity="1" /><path clip-path="url(#clip060)" d="M2109.53 386.505 L2109.53 377.223 L2101.89 377.223 L2101.89 373.38 L2114.16 373.38 L2114.16 388.218 Q2111.45 390.139 2108.19 391.135 Q2104.93 392.107 2101.22 392.107 Q2093.12 392.107 2088.54 387.385 Q2083.98 382.639 2083.98 374.19 Q2083.98 365.718 2088.54 360.996 Q2093.12 356.251 2101.22 356.251 Q2104.6 356.251 2107.63 357.084 Q2110.69 357.917 2113.26 359.538 L2113.26 364.515 Q2110.67 362.316 2107.75 361.204 Q2104.83 360.093 2101.62 360.093 Q2095.27 360.093 2092.08 363.635 Q2088.91 367.177 2088.91 374.19 Q2088.91 381.181 2092.08 384.723 Q2095.27 388.264 2101.62 388.264 Q2104.09 388.264 2106.04 387.848 Q2107.98 387.408 2109.53 386.505 Z" fill="#000000" fill-rule="nonzero" fill-opacity="1" /><path clip-path="url(#clip060)" d="M2142.22 399.306 L2142.22 402.616 L2117.59 402.616 L2117.59 399.306 L2142.22 399.306 Z" fill="#000000" fill-rule="nonzero" fill-opacity="1" /><path clip-path="url(#clip060)" d="M2158 378.403 Q2152.84 378.403 2150.85 379.584 Q2148.86 380.764 2148.86 383.612 Q2148.86 385.88 2150.34 387.223 Q2151.85 388.542 2154.42 388.542 Q2157.96 388.542 2160.09 386.042 Q2162.24 383.519 2162.24 379.352 L2162.24 378.403 L2158 378.403 M2166.5 376.644 L2166.5 391.436 L2162.24 391.436 L2162.24 387.501 Q2160.78 389.862 2158.61 390.996 Q2156.43 392.107 2153.28 392.107 Q2149.3 392.107 2146.94 389.885 Q2144.6 387.639 2144.6 383.889 Q2144.6 379.514 2147.52 377.292 Q2150.46 375.07 2156.27 375.07 L2162.24 375.07 L2162.24 374.653 Q2162.24 371.714 2160.3 370.116 Q2158.37 368.496 2154.88 368.496 Q2152.66 368.496 2150.55 369.028 Q2148.44 369.561 2146.5 370.626 L2146.5 366.69 Q2148.84 365.788 2151.04 365.348 Q2153.24 364.885 2155.32 364.885 Q2160.94 364.885 2163.72 367.802 Q2166.5 370.718 2166.5 376.644 Z" fill="#000000" fill-rule="nonzero" fill-opacity="1" /><path clip-path="url(#clip060)" d="M2175.27 355.417 L2179.53 355.417 L2179.53 391.436 L2175.27 391.436 L2175.27 355.417 Z" fill="#000000" fill-rule="nonzero" fill-opacity="1" /><path clip-path="url(#clip060)" d="M2192.66 358.149 L2192.66 365.51 L2201.43 365.51 L2201.43 368.82 L2192.66 368.82 L2192.66 382.894 Q2192.66 386.065 2193.51 386.968 Q2194.39 387.871 2197.05 387.871 L2201.43 387.871 L2201.43 391.436 L2197.05 391.436 Q2192.12 391.436 2190.25 389.607 Q2188.37 387.755 2188.37 382.894 L2188.37 368.82 L2185.25 368.82 L2185.25 365.51 L2188.37 365.51 L2188.37 358.149 L2192.66 358.149 Z" fill="#000000" fill-rule="nonzero" fill-opacity="1" /><polyline clip-path="url(#clip060)" style="stroke:#ac8d18; stroke-linecap:round; stroke-linejoin:round; stroke-width:4; stroke-opacity:1; fill:none" points="1772.84,425.996 1912.92,425.996 "/>
<path clip-path="url(#clip060)" d="M1936.27 408.716 L1940.95 408.716 L1940.95 439.341 L1957.77 439.341 L1957.77 443.276 L1936.27 443.276 L1936.27 408.716 Z" fill="#000000" fill-rule="nonzero" fill-opacity="1" /><path clip-path="url(#clip060)" d="M1962.68 408.716 L1969.65 408.716 L1978.47 432.234 L1987.33 408.716 L1994.3 408.716 L1994.3 443.276 L1989.74 443.276 L1989.74 412.929 L1980.83 436.632 L1976.13 436.632 L1967.22 412.929 L1967.22 443.276 L1962.68 443.276 L1962.68 408.716 Z" fill="#000000" fill-rule="nonzero" fill-opacity="1" /><path clip-path="url(#clip060)" d="M2023.1 451.146 L2023.1 454.456 L1998.47 454.456 L1998.47 451.146 L2023.1 451.146 Z" fill="#000000" fill-rule="nonzero" fill-opacity="1" /><path clip-path="url(#clip060)" d="M2031.32 409.989 L2031.32 417.35 L2040.09 417.35 L2040.09 420.66 L2031.32 420.66 L2031.32 434.734 Q2031.32 437.905 2032.17 438.808 Q2033.05 439.711 2035.71 439.711 L2040.09 439.711 L2040.09 443.276 L2035.71 443.276 Q2030.78 443.276 2028.91 441.447 Q2027.03 439.595 2027.03 434.734 L2027.03 420.66 L2023.91 420.66 L2023.91 417.35 L2027.03 417.35 L2027.03 409.989 L2031.32 409.989 Z" fill="#000000" fill-rule="nonzero" fill-opacity="1" /><path clip-path="url(#clip060)" d="M2067.87 429.248 L2067.87 431.331 L2048.28 431.331 Q2048.56 435.729 2050.92 438.044 Q2053.31 440.336 2057.54 440.336 Q2060 440.336 2062.29 439.734 Q2064.6 439.132 2066.87 437.929 L2066.87 441.956 Q2064.58 442.928 2062.17 443.438 Q2059.76 443.947 2057.29 443.947 Q2051.08 443.947 2047.45 440.336 Q2043.84 436.725 2043.84 430.567 Q2043.84 424.202 2047.26 420.475 Q2050.71 416.725 2056.55 416.725 Q2061.78 416.725 2064.81 420.105 Q2067.87 423.461 2067.87 429.248 M2063.61 427.998 Q2063.56 424.503 2061.64 422.419 Q2059.74 420.336 2056.59 420.336 Q2053.03 420.336 2050.88 422.35 Q2048.75 424.364 2048.42 428.021 L2063.61 427.998 Z" fill="#000000" fill-rule="nonzero" fill-opacity="1" /><path clip-path="url(#clip060)" d="M2091.38 418.114 L2091.38 422.142 Q2089.58 421.216 2087.63 420.753 Q2085.69 420.29 2083.61 420.29 Q2080.44 420.29 2078.84 421.262 Q2077.26 422.234 2077.26 424.179 Q2077.26 425.66 2078.4 426.517 Q2079.53 427.35 2082.96 428.114 L2084.42 428.438 Q2088.95 429.41 2090.85 431.192 Q2092.77 432.952 2092.77 436.123 Q2092.77 439.734 2089.9 441.841 Q2087.06 443.947 2082.06 443.947 Q2079.97 443.947 2077.7 443.53 Q2075.46 443.137 2072.96 442.327 L2072.96 437.929 Q2075.32 439.155 2077.61 439.78 Q2079.9 440.382 2082.15 440.382 Q2085.16 440.382 2086.78 439.364 Q2088.4 438.322 2088.4 436.447 Q2088.4 434.711 2087.22 433.785 Q2086.06 432.859 2082.1 432.003 L2080.62 431.655 Q2076.66 430.822 2074.9 429.109 Q2073.14 427.373 2073.14 424.364 Q2073.14 420.706 2075.74 418.716 Q2078.33 416.725 2083.1 416.725 Q2085.46 416.725 2087.54 417.072 Q2089.62 417.419 2091.38 418.114 Z" fill="#000000" fill-rule="nonzero" fill-opacity="1" /><path clip-path="url(#clip060)" d="M2103.77 409.989 L2103.77 417.35 L2112.54 417.35 L2112.54 420.66 L2103.77 420.66 L2103.77 434.734 Q2103.77 437.905 2104.62 438.808 Q2105.5 439.711 2108.17 439.711 L2112.54 439.711 L2112.54 443.276 L2108.17 443.276 Q2103.24 443.276 2101.36 441.447 Q2099.49 439.595 2099.49 434.734 L2099.49 420.66 L2096.36 420.66 L2096.36 417.35 L2099.49 417.35 L2099.49 409.989 L2103.77 409.989 Z" fill="#000000" fill-rule="nonzero" fill-opacity="1" /></svg>
