<?xml version="1.0" encoding="utf-8"?>
<svg xmlns="http://www.w3.org/2000/svg" xmlns:xlink="http://www.w3.org/1999/xlink" width="600" height="400" viewBox="0 0 2400 1600">
<defs>
  <clipPath id="clip410">
    <rect x="0" y="0" width="2400" height="1600"/>
  </clipPath>
</defs>
<path clip-path="url(#clip410)" d="M0 1600 L2400 1600 L2400 0 L0 0  Z" fill="#ffffff" fill-rule="evenodd" fill-opacity="1"/>
<defs>
  <clipPath id="clip411">
    <rect x="480" y="0" width="1681" height="1600"/>
  </clipPath>
</defs>
<path clip-path="url(#clip410)" d="M251.56 1423.18 L2352.76 1423.18 L2352.76 123.472 L251.56 123.472  Z" fill="#ffffff" fill-rule="evenodd" fill-opacity="1"/>
<defs>
  <clipPath id="clip412">
    <rect x="251" y="123" width="2102" height="1301"/>
  </clipPath>
</defs>
<polyline clip-path="url(#clip412)" style="stroke:#000000; stroke-linecap:round; stroke-linejoin:round; stroke-width:2; stroke-opacity:0.1; fill:none" points="287.145,1423.18 287.145,123.472 "/>
<polyline clip-path="url(#clip412)" style="stroke:#000000; stroke-linecap:round; stroke-linejoin:round; stroke-width:2; stroke-opacity:0.1; fill:none" points="764.798,1423.18 764.798,123.472 "/>
<polyline clip-path="url(#clip412)" style="stroke:#000000; stroke-linecap:round; stroke-linejoin:round; stroke-width:2; stroke-opacity:0.1; fill:none" points="1242.45,1423.18 1242.45,123.472 "/>
<polyline clip-path="url(#clip412)" style="stroke:#000000; stroke-linecap:round; stroke-linejoin:round; stroke-width:2; stroke-opacity:0.1; fill:none" points="1720.1,1423.18 1720.1,123.472 "/>
<polyline clip-path="url(#clip412)" style="stroke:#000000; stroke-linecap:round; stroke-linejoin:round; stroke-width:2; stroke-opacity:0.1; fill:none" points="2197.76,1423.18 2197.76,123.472 "/>
<polyline clip-path="url(#clip410)" style="stroke:#000000; stroke-linecap:round; stroke-linejoin:round; stroke-width:4; stroke-opacity:1; fill:none" points="251.56,1423.18 2352.76,1423.18 "/>
<polyline clip-path="url(#clip410)" style="stroke:#000000; stroke-linecap:round; stroke-linejoin:round; stroke-width:4; stroke-opacity:1; fill:none" points="287.145,1423.18 287.145,1404.28 "/>
<polyline clip-path="url(#clip410)" style="stroke:#000000; stroke-linecap:round; stroke-linejoin:round; stroke-width:4; stroke-opacity:1; fill:none" points="764.798,1423.18 764.798,1404.28 "/>
<polyline clip-path="url(#clip410)" style="stroke:#000000; stroke-linecap:round; stroke-linejoin:round; stroke-width:4; stroke-opacity:1; fill:none" points="1242.45,1423.18 1242.45,1404.28 "/>
<polyline clip-path="url(#clip410)" style="stroke:#000000; stroke-linecap:round; stroke-linejoin:round; stroke-width:4; stroke-opacity:1; fill:none" points="1720.1,1423.18 1720.1,1404.28 "/>
<polyline clip-path="url(#clip410)" style="stroke:#000000; stroke-linecap:round; stroke-linejoin:round; stroke-width:4; stroke-opacity:1; fill:none" points="2197.76,1423.18 2197.76,1404.28 "/>
<path clip-path="url(#clip410)" d="M287.145 1454.1 Q283.534 1454.1 281.706 1457.66 Q279.9 1461.2 279.9 1468.33 Q279.9 1475.44 281.706 1479.01 Q283.534 1482.55 287.145 1482.55 Q290.78 1482.55 292.585 1479.01 Q294.414 1475.44 294.414 1468.33 Q294.414 1461.2 292.585 1457.66 Q290.78 1454.1 287.145 1454.1 M287.145 1450.39 Q292.956 1450.39 296.011 1455 Q299.09 1459.58 299.09 1468.33 Q299.09 1477.06 296.011 1481.67 Q292.956 1486.25 287.145 1486.25 Q281.335 1486.25 278.257 1481.67 Q275.201 1477.06 275.201 1468.33 Q275.201 1459.58 278.257 1455 Q281.335 1450.39 287.145 1450.39 Z" fill="#000000" fill-rule="nonzero" fill-opacity="1" /><path clip-path="url(#clip410)" d="M743.572 1481.64 L759.891 1481.64 L759.891 1485.58 L737.947 1485.58 L737.947 1481.64 Q740.609 1478.89 745.192 1474.26 Q749.799 1469.61 750.979 1468.27 Q753.224 1465.74 754.104 1464.01 Q755.007 1462.25 755.007 1460.56 Q755.007 1457.8 753.062 1456.07 Q751.141 1454.33 748.039 1454.33 Q745.84 1454.33 743.387 1455.09 Q740.956 1455.86 738.178 1457.41 L738.178 1452.69 Q741.002 1451.55 743.456 1450.97 Q745.91 1450.39 747.947 1450.39 Q753.317 1450.39 756.511 1453.08 Q759.706 1455.77 759.706 1460.26 Q759.706 1462.39 758.896 1464.31 Q758.109 1466.2 756.002 1468.8 Q755.423 1469.47 752.322 1472.69 Q749.22 1475.88 743.572 1481.64 Z" fill="#000000" fill-rule="nonzero" fill-opacity="1" /><path clip-path="url(#clip410)" d="M779.706 1454.1 Q776.095 1454.1 774.266 1457.66 Q772.46 1461.2 772.46 1468.33 Q772.46 1475.44 774.266 1479.01 Q776.095 1482.55 779.706 1482.55 Q783.34 1482.55 785.146 1479.01 Q786.974 1475.44 786.974 1468.33 Q786.974 1461.2 785.146 1457.66 Q783.34 1454.1 779.706 1454.1 M779.706 1450.39 Q785.516 1450.39 788.571 1455 Q791.65 1459.58 791.65 1468.33 Q791.65 1477.06 788.571 1481.67 Q785.516 1486.25 779.706 1486.25 Q773.896 1486.25 770.817 1481.67 Q767.761 1477.06 767.761 1468.33 Q767.761 1459.58 770.817 1455 Q773.896 1450.39 779.706 1450.39 Z" fill="#000000" fill-rule="nonzero" fill-opacity="1" /><path clip-path="url(#clip410)" d="M1230.62 1455.09 L1218.82 1473.54 L1230.62 1473.54 L1230.62 1455.09 M1229.4 1451.02 L1235.28 1451.02 L1235.28 1473.54 L1240.21 1473.54 L1240.21 1477.43 L1235.28 1477.43 L1235.28 1485.58 L1230.62 1485.58 L1230.62 1477.43 L1215.02 1477.43 L1215.02 1472.92 L1229.4 1451.02 Z" fill="#000000" fill-rule="nonzero" fill-opacity="1" /><path clip-path="url(#clip410)" d="M1257.94 1454.1 Q1254.33 1454.1 1252.5 1457.66 Q1250.69 1461.2 1250.69 1468.33 Q1250.69 1475.44 1252.5 1479.01 Q1254.33 1482.55 1257.94 1482.55 Q1261.57 1482.55 1263.38 1479.01 Q1265.21 1475.44 1265.21 1468.33 Q1265.21 1461.2 1263.38 1457.66 Q1261.57 1454.1 1257.94 1454.1 M1257.94 1450.39 Q1263.75 1450.39 1266.8 1455 Q1269.88 1459.58 1269.88 1468.33 Q1269.88 1477.06 1266.8 1481.67 Q1263.75 1486.25 1257.94 1486.25 Q1252.13 1486.25 1249.05 1481.67 Q1245.99 1477.06 1245.99 1468.33 Q1245.99 1459.58 1249.05 1455 Q1252.13 1450.39 1257.94 1450.39 Z" fill="#000000" fill-rule="nonzero" fill-opacity="1" /><path clip-path="url(#clip410)" d="M1705.51 1466.44 Q1702.36 1466.44 1700.51 1468.59 Q1698.68 1470.74 1698.68 1474.49 Q1698.68 1478.22 1700.51 1480.39 Q1702.36 1482.55 1705.51 1482.55 Q1708.66 1482.55 1710.49 1480.39 Q1712.34 1478.22 1712.34 1474.49 Q1712.34 1470.74 1710.49 1468.59 Q1708.66 1466.44 1705.51 1466.44 M1714.79 1451.78 L1714.79 1456.04 Q1713.03 1455.21 1711.23 1454.77 Q1709.44 1454.33 1707.69 1454.33 Q1703.06 1454.33 1700.6 1457.45 Q1698.17 1460.58 1697.82 1466.9 Q1699.19 1464.89 1701.25 1463.82 Q1703.31 1462.73 1705.79 1462.73 Q1711 1462.73 1714 1465.9 Q1717.04 1469.05 1717.04 1474.49 Q1717.04 1479.82 1713.89 1483.03 Q1710.74 1486.25 1705.51 1486.25 Q1699.51 1486.25 1696.34 1481.67 Q1693.17 1477.06 1693.17 1468.33 Q1693.17 1460.14 1697.06 1455.28 Q1700.95 1450.39 1707.5 1450.39 Q1709.26 1450.39 1711.04 1450.74 Q1712.85 1451.09 1714.79 1451.78 Z" fill="#000000" fill-rule="nonzero" fill-opacity="1" /><path clip-path="url(#clip410)" d="M1735.09 1454.1 Q1731.48 1454.1 1729.65 1457.66 Q1727.85 1461.2 1727.85 1468.33 Q1727.85 1475.44 1729.65 1479.01 Q1731.48 1482.55 1735.09 1482.55 Q1738.73 1482.55 1740.53 1479.01 Q1742.36 1475.44 1742.36 1468.33 Q1742.36 1461.2 1740.53 1457.66 Q1738.73 1454.1 1735.09 1454.1 M1735.09 1450.39 Q1740.9 1450.39 1743.96 1455 Q1747.04 1459.58 1747.04 1468.33 Q1747.04 1477.06 1743.96 1481.67 Q1740.9 1486.25 1735.09 1486.25 Q1729.28 1486.25 1726.2 1481.67 Q1723.15 1477.06 1723.15 1468.33 Q1723.15 1459.58 1726.2 1455 Q1729.28 1450.39 1735.09 1450.39 Z" fill="#000000" fill-rule="nonzero" fill-opacity="1" /><path clip-path="url(#clip410)" d="M2182.63 1469.17 Q2179.3 1469.17 2177.38 1470.95 Q2175.48 1472.73 2175.48 1475.86 Q2175.48 1478.98 2177.38 1480.77 Q2179.3 1482.55 2182.63 1482.55 Q2185.96 1482.55 2187.88 1480.77 Q2189.81 1478.96 2189.81 1475.86 Q2189.81 1472.73 2187.88 1470.95 Q2185.99 1469.17 2182.63 1469.17 M2177.95 1467.18 Q2174.95 1466.44 2173.26 1464.38 Q2171.59 1462.32 2171.59 1459.35 Q2171.59 1455.21 2174.53 1452.8 Q2177.49 1450.39 2182.63 1450.39 Q2187.79 1450.39 2190.73 1452.8 Q2193.67 1455.21 2193.67 1459.35 Q2193.67 1462.32 2191.98 1464.38 Q2190.32 1466.44 2187.33 1467.18 Q2190.71 1467.96 2192.58 1470.26 Q2194.48 1472.55 2194.48 1475.86 Q2194.48 1480.88 2191.4 1483.57 Q2188.35 1486.25 2182.63 1486.25 Q2176.91 1486.25 2173.83 1483.57 Q2170.78 1480.88 2170.78 1475.86 Q2170.78 1472.55 2172.68 1470.26 Q2174.57 1467.96 2177.95 1467.18 M2176.24 1459.79 Q2176.24 1462.48 2177.91 1463.98 Q2179.6 1465.49 2182.63 1465.49 Q2185.64 1465.49 2187.33 1463.98 Q2189.04 1462.48 2189.04 1459.79 Q2189.04 1457.11 2187.33 1455.6 Q2185.64 1454.1 2182.63 1454.1 Q2179.6 1454.1 2177.91 1455.6 Q2176.24 1457.11 2176.24 1459.79 Z" fill="#000000" fill-rule="nonzero" fill-opacity="1" /><path clip-path="url(#clip410)" d="M2212.79 1454.1 Q2209.18 1454.1 2207.35 1457.66 Q2205.55 1461.2 2205.55 1468.33 Q2205.55 1475.44 2207.35 1479.01 Q2209.18 1482.55 2212.79 1482.55 Q2216.43 1482.55 2218.23 1479.01 Q2220.06 1475.44 2220.06 1468.33 Q2220.06 1461.2 2218.23 1457.66 Q2216.43 1454.1 2212.79 1454.1 M2212.79 1450.39 Q2218.6 1450.39 2221.66 1455 Q2224.74 1459.58 2224.74 1468.33 Q2224.74 1477.06 2221.66 1481.67 Q2218.6 1486.25 2212.79 1486.25 Q2206.98 1486.25 2203.9 1481.67 Q2200.85 1477.06 2200.85 1468.33 Q2200.85 1459.58 2203.9 1455 Q2206.98 1450.39 2212.79 1450.39 Z" fill="#000000" fill-rule="nonzero" fill-opacity="1" /><path clip-path="url(#clip410)" d="M1286.34 1518.52 L1292.23 1518.52 L1292.23 1547.77 L1309.7 1532.4 L1317.18 1532.4 L1298.27 1549.07 L1317.98 1568.04 L1310.34 1568.04 L1292.23 1550.63 L1292.23 1568.04 L1286.34 1568.04 L1286.34 1518.52 Z" fill="#000000" fill-rule="nonzero" fill-opacity="1" /><polyline clip-path="url(#clip412)" style="stroke:#000000; stroke-linecap:round; stroke-linejoin:round; stroke-width:2; stroke-opacity:0.1; fill:none" points="251.56,1134.69 2352.76,1134.69 "/>
<polyline clip-path="url(#clip412)" style="stroke:#000000; stroke-linecap:round; stroke-linejoin:round; stroke-width:2; stroke-opacity:0.1; fill:none" points="251.56,453.679 2352.76,453.679 "/>
<polyline clip-path="url(#clip410)" style="stroke:#000000; stroke-linecap:round; stroke-linejoin:round; stroke-width:4; stroke-opacity:1; fill:none" points="251.56,1423.18 251.56,123.472 "/>
<polyline clip-path="url(#clip410)" style="stroke:#000000; stroke-linecap:round; stroke-linejoin:round; stroke-width:4; stroke-opacity:1; fill:none" points="251.56,1134.69 270.458,1134.69 "/>
<polyline clip-path="url(#clip410)" style="stroke:#000000; stroke-linecap:round; stroke-linejoin:round; stroke-width:4; stroke-opacity:1; fill:none" points="251.56,453.679 270.458,453.679 "/>
<path clip-path="url(#clip410)" d="M114.931 1154.49 L122.57 1154.49 L122.57 1128.12 L114.26 1129.79 L114.26 1125.53 L122.524 1123.86 L127.2 1123.86 L127.2 1154.49 L134.839 1154.49 L134.839 1158.42 L114.931 1158.42 L114.931 1154.49 Z" fill="#000000" fill-rule="nonzero" fill-opacity="1" /><path clip-path="url(#clip410)" d="M154.283 1126.94 Q150.672 1126.94 148.843 1130.5 Q147.038 1134.05 147.038 1141.18 Q147.038 1148.28 148.843 1151.85 Q150.672 1155.39 154.283 1155.39 Q157.917 1155.39 159.723 1151.85 Q161.552 1148.28 161.552 1141.18 Q161.552 1134.05 159.723 1130.5 Q157.917 1126.94 154.283 1126.94 M154.283 1123.24 Q160.093 1123.24 163.149 1127.84 Q166.227 1132.43 166.227 1141.18 Q166.227 1149.9 163.149 1154.51 Q160.093 1159.09 154.283 1159.09 Q148.473 1159.09 145.394 1154.51 Q142.339 1149.9 142.339 1141.18 Q142.339 1132.43 145.394 1127.84 Q148.473 1123.24 154.283 1123.24 Z" fill="#000000" fill-rule="nonzero" fill-opacity="1" /><path clip-path="url(#clip410)" d="M166.227 1117.34 L190.339 1117.34 L190.339 1120.54 L166.227 1120.54 L166.227 1117.34 Z" fill="#000000" fill-rule="nonzero" fill-opacity="1" /><path clip-path="url(#clip410)" d="M198.577 1102.93 L213.491 1102.93 L213.491 1106.13 L202.056 1106.13 L202.056 1113.01 Q202.884 1112.73 203.711 1112.6 Q204.539 1112.45 205.366 1112.45 Q210.068 1112.45 212.814 1115.02 Q215.56 1117.6 215.56 1122 Q215.56 1126.53 212.739 1129.06 Q209.918 1131.56 204.783 1131.56 Q203.015 1131.56 201.172 1131.26 Q199.348 1130.95 197.392 1130.35 L197.392 1126.53 Q199.085 1127.46 200.89 1127.91 Q202.696 1128.36 204.708 1128.36 Q207.962 1128.36 209.861 1126.65 Q211.761 1124.94 211.761 1122 Q211.761 1119.07 209.861 1117.36 Q207.962 1115.65 204.708 1115.65 Q203.185 1115.65 201.661 1115.98 Q200.157 1116.32 198.577 1117.04 L198.577 1102.93 Z" fill="#000000" fill-rule="nonzero" fill-opacity="1" /><path clip-path="url(#clip410)" d="M144.855 473.472 L152.493 473.472 L152.493 447.106 L144.183 448.773 L144.183 444.513 L152.447 442.847 L157.123 442.847 L157.123 473.472 L164.762 473.472 L164.762 477.407 L144.855 477.407 L144.855 473.472 Z" fill="#000000" fill-rule="nonzero" fill-opacity="1" /><path clip-path="url(#clip410)" d="M184.206 445.925 Q180.595 445.925 178.766 449.49 Q176.961 453.032 176.961 460.161 Q176.961 467.268 178.766 470.833 Q180.595 474.374 184.206 474.374 Q187.84 474.374 189.646 470.833 Q191.475 467.268 191.475 460.161 Q191.475 453.032 189.646 449.49 Q187.84 445.925 184.206 445.925 M184.206 442.222 Q190.016 442.222 193.072 446.828 Q196.151 451.411 196.151 460.161 Q196.151 468.888 193.072 473.495 Q190.016 478.078 184.206 478.078 Q178.396 478.078 175.317 473.495 Q172.262 468.888 172.262 460.161 Q172.262 451.411 175.317 446.828 Q178.396 442.222 184.206 442.222 Z" fill="#000000" fill-rule="nonzero" fill-opacity="1" /><path clip-path="url(#clip410)" d="M205.855 424.418 Q202.921 424.418 201.436 427.314 Q199.969 430.192 199.969 435.985 Q199.969 441.758 201.436 444.655 Q202.921 447.532 205.855 447.532 Q208.808 447.532 210.275 444.655 Q211.761 441.758 211.761 435.985 Q211.761 430.192 210.275 427.314 Q208.808 424.418 205.855 424.418 M205.855 421.408 Q210.576 421.408 213.059 425.151 Q215.56 428.875 215.56 435.985 Q215.56 443.075 213.059 446.818 Q210.576 450.542 205.855 450.542 Q201.135 450.542 198.633 446.818 Q196.151 443.075 196.151 435.985 Q196.151 428.875 198.633 425.151 Q201.135 421.408 205.855 421.408 Z" fill="#000000" fill-rule="nonzero" fill-opacity="1" /><path clip-path="url(#clip410)" d="M32.4621 801.797 Q32.4621 806.507 36.1542 809.244 Q39.8145 811.982 46.212 811.982 Q52.6095 811.982 56.3017 809.276 Q59.9619 806.539 59.9619 801.797 Q59.9619 797.118 56.2698 794.381 Q52.5777 791.643 46.212 791.643 Q39.8781 791.643 36.186 794.381 Q32.4621 797.118 32.4621 801.797 M27.4968 801.797 Q27.4968 794.158 32.4621 789.797 Q37.4273 785.437 46.212 785.437 Q54.9649 785.437 59.9619 789.797 Q64.9272 794.158 64.9272 801.797 Q64.9272 809.467 59.9619 813.828 Q54.9649 818.156 46.212 818.156 Q37.4273 818.156 32.4621 813.828 Q27.4968 809.467 27.4968 801.797 Z" fill="#000000" fill-rule="nonzero" fill-opacity="1" /><path clip-path="url(#clip410)" d="M46.212 750.139 Q39.7508 750.139 36.0905 752.812 Q32.3984 755.454 32.3984 760.101 Q32.3984 764.748 36.0905 767.422 Q39.7508 770.064 46.212 770.064 Q52.6732 770.064 56.3653 767.422 Q60.0256 764.748 60.0256 760.101 Q60.0256 755.454 56.3653 752.812 Q52.6732 750.139 46.212 750.139 M33.7671 770.064 Q30.5842 768.218 29.0564 765.417 Q27.4968 762.584 27.4968 758.669 Q27.4968 752.176 32.6531 748.134 Q37.8093 744.06 46.212 744.06 Q54.6147 744.06 59.771 748.134 Q64.9272 752.176 64.9272 758.669 Q64.9272 762.584 63.3994 765.417 Q61.8398 768.218 58.657 770.064 L64.0042 770.064 L64.0042 775.952 L14.479 775.952 L14.479 770.064 L33.7671 770.064 Z" fill="#000000" fill-rule="nonzero" fill-opacity="1" /><path clip-path="url(#clip410)" d="M28.3562 734.352 L28.3562 728.495 L64.6407 728.495 Q71.452 728.495 74.5076 731.105 Q77.5631 733.684 77.5631 739.445 L77.5631 741.673 L72.5979 741.673 L72.5979 740.113 Q72.5979 736.771 71.0383 735.561 Q69.5105 734.352 64.6407 734.352 L28.3562 734.352 M14.479 734.352 L14.479 728.495 L21.895 728.495 L21.895 734.352 L14.479 734.352 Z" fill="#000000" fill-rule="nonzero" fill-opacity="1" /><path clip-path="url(#clip410)" d="M957.689 65.7705 L957.689 89.8329 L950.195 89.8329 L950.195 27.2059 L957.689 27.2059 L957.689 34.0924 Q960.039 30.0415 963.604 28.0971 Q967.209 26.1121 972.192 26.1121 Q980.456 26.1121 985.6 32.6746 Q990.785 39.2371 990.785 49.9314 Q990.785 60.6258 985.6 67.1883 Q980.456 73.7508 972.192 73.7508 Q967.209 73.7508 963.604 71.8063 Q960.039 69.8214 957.689 65.7705 M983.048 49.9314 Q983.048 41.7081 979.645 37.0496 Q976.283 32.3505 970.369 32.3505 Q964.454 32.3505 961.052 37.0496 Q957.689 41.7081 957.689 49.9314 Q957.689 58.1548 961.052 62.8538 Q964.454 67.5124 970.369 67.5124 Q976.283 67.5124 979.645 62.8538 Q983.048 58.1548 983.048 49.9314 Z" fill="#000000" fill-rule="nonzero" fill-opacity="1" /><path clip-path="url(#clip410)" d="M1029.43 34.1734 Q1028.18 33.4443 1026.68 33.1202 Q1025.22 32.7556 1023.44 32.7556 Q1017.12 32.7556 1013.71 36.8875 Q1010.35 40.9789 1010.35 48.6757 L1010.35 72.576 L1002.86 72.576 L1002.86 27.2059 L1010.35 27.2059 L1010.35 34.2544 Q1012.7 30.1225 1016.47 28.1376 Q1020.24 26.1121 1025.62 26.1121 Q1026.39 26.1121 1027.32 26.2337 Q1028.26 26.3147 1029.39 26.5172 L1029.43 34.1734 Z" fill="#000000" fill-rule="nonzero" fill-opacity="1" /><path clip-path="url(#clip410)" d="M1053.01 32.4315 Q1047.01 32.4315 1043.53 37.1306 Q1040.04 41.7891 1040.04 49.9314 Q1040.04 58.0738 1043.49 62.7728 Q1046.97 67.4314 1053.01 67.4314 Q1058.96 67.4314 1062.45 62.7323 Q1065.93 58.0333 1065.93 49.9314 Q1065.93 41.8701 1062.45 37.1711 Q1058.96 32.4315 1053.01 32.4315 M1053.01 26.1121 Q1062.73 26.1121 1068.28 32.4315 Q1073.83 38.7509 1073.83 49.9314 Q1073.83 61.0714 1068.28 67.4314 Q1062.73 73.7508 1053.01 73.7508 Q1043.24 73.7508 1037.69 67.4314 Q1032.19 61.0714 1032.19 49.9314 Q1032.19 38.7509 1037.69 32.4315 Q1043.24 26.1121 1053.01 26.1121 Z" fill="#000000" fill-rule="nonzero" fill-opacity="1" /><path clip-path="url(#clip410)" d="M1118.75 49.9314 Q1118.75 41.7081 1115.35 37.0496 Q1111.99 32.3505 1106.07 32.3505 Q1100.16 32.3505 1096.76 37.0496 Q1093.39 41.7081 1093.39 49.9314 Q1093.39 58.1548 1096.76 62.8538 Q1100.16 67.5124 1106.07 67.5124 Q1111.99 67.5124 1115.35 62.8538 Q1118.75 58.1548 1118.75 49.9314 M1093.39 34.0924 Q1095.74 30.0415 1099.31 28.0971 Q1102.91 26.1121 1107.9 26.1121 Q1116.16 26.1121 1121.31 32.6746 Q1126.49 39.2371 1126.49 49.9314 Q1126.49 60.6258 1121.31 67.1883 Q1116.16 73.7508 1107.9 73.7508 Q1102.91 73.7508 1099.31 71.8063 Q1095.74 69.8214 1093.39 65.7705 L1093.39 72.576 L1085.9 72.576 L1085.9 9.54393 L1093.39 9.54393 L1093.39 34.0924 Z" fill="#000000" fill-rule="nonzero" fill-opacity="1" /><path clip-path="url(#clip410)" d="M1138.85 9.54393 L1146.3 9.54393 L1146.3 72.576 L1138.85 72.576 L1138.85 9.54393 Z" fill="#000000" fill-rule="nonzero" fill-opacity="1" /><path clip-path="url(#clip410)" d="M1200.7 48.0275 L1200.7 51.6733 L1166.43 51.6733 Q1166.92 59.3701 1171.05 63.421 Q1175.22 67.4314 1182.64 67.4314 Q1186.93 67.4314 1190.94 66.3781 Q1194.99 65.3249 1198.96 63.2184 L1198.96 70.267 Q1194.95 71.9684 1190.74 72.8596 Q1186.53 73.7508 1182.19 73.7508 Q1171.33 73.7508 1164.97 67.4314 Q1158.65 61.1119 1158.65 50.3365 Q1158.65 39.1965 1164.65 32.6746 Q1170.69 26.1121 1180.89 26.1121 Q1190.05 26.1121 1195.36 32.0264 Q1200.7 37.9003 1200.7 48.0275 M1193.25 45.84 Q1193.17 39.7232 1189.81 36.0774 Q1186.48 32.4315 1180.98 32.4315 Q1174.74 32.4315 1170.97 35.9558 Q1167.24 39.4801 1166.68 45.8805 L1193.25 45.84 M1174.57 6.22219 L1186 21.3726 L1179.8 21.3726 L1166.59 6.22219 L1174.57 6.22219 Z" fill="#000000" fill-rule="nonzero" fill-opacity="1" /><path clip-path="url(#clip410)" d="M1248.26 35.9153 Q1251.06 30.8922 1254.94 28.5022 Q1258.83 26.1121 1264.1 26.1121 Q1271.19 26.1121 1275.04 31.0947 Q1278.89 36.0368 1278.89 45.1919 L1278.89 72.576 L1271.39 72.576 L1271.39 45.4349 Q1271.39 38.913 1269.08 35.7533 Q1266.77 32.5936 1262.03 32.5936 Q1256.24 32.5936 1252.88 36.4419 Q1249.52 40.2903 1249.52 46.9338 L1249.52 72.576 L1242.02 72.576 L1242.02 45.4349 Q1242.02 38.8725 1239.71 35.7533 Q1237.4 32.5936 1232.58 32.5936 Q1226.87 32.5936 1223.51 36.4824 Q1220.15 40.3308 1220.15 46.9338 L1220.15 72.576 L1212.65 72.576 L1212.65 27.2059 L1220.15 27.2059 L1220.15 34.2544 Q1222.7 30.082 1226.26 28.0971 Q1229.83 26.1121 1234.73 26.1121 Q1239.67 26.1121 1243.12 28.6237 Q1246.6 31.1352 1248.26 35.9153 Z" fill="#000000" fill-rule="nonzero" fill-opacity="1" /><path clip-path="url(#clip410)" d="M1332.56 48.0275 L1332.56 51.6733 L1298.29 51.6733 Q1298.78 59.3701 1302.91 63.421 Q1307.08 67.4314 1314.49 67.4314 Q1318.79 67.4314 1322.8 66.3781 Q1326.85 65.3249 1330.82 63.2184 L1330.82 70.267 Q1326.81 71.9684 1322.59 72.8596 Q1318.38 73.7508 1314.05 73.7508 Q1303.19 73.7508 1296.83 67.4314 Q1290.51 61.1119 1290.51 50.3365 Q1290.51 39.1965 1296.51 32.6746 Q1302.54 26.1121 1312.75 26.1121 Q1321.91 26.1121 1327.21 32.0264 Q1332.56 37.9003 1332.56 48.0275 M1325.11 45.84 Q1325.03 39.7232 1321.66 36.0774 Q1318.34 32.4315 1312.83 32.4315 Q1306.59 32.4315 1302.83 35.9558 Q1299.1 39.4801 1298.53 45.8805 L1325.11 45.84 Z" fill="#000000" fill-rule="nonzero" fill-opacity="1" /><path clip-path="url(#clip410)" d="M1373.07 62.2867 L1381.62 62.2867 L1381.62 72.576 L1373.07 72.576 L1373.07 62.2867 M1373.07 29.6769 L1381.62 29.6769 L1381.62 39.9662 L1373.07 39.9662 L1373.07 29.6769 Z" fill="#000000" fill-rule="nonzero" fill-opacity="1" /><path clip-path="url(#clip410)" d="M1432.86 14.324 L1432.86 27.2059 L1448.21 27.2059 L1448.21 32.9987 L1432.86 32.9987 L1432.86 57.6282 Q1432.86 63.1779 1434.36 64.7578 Q1435.9 66.3376 1440.56 66.3376 L1448.21 66.3376 L1448.21 72.576 L1440.56 72.576 Q1431.93 72.576 1428.65 69.3758 Q1425.37 66.1351 1425.37 57.6282 L1425.37 32.9987 L1419.9 32.9987 L1419.9 27.2059 L1425.37 27.2059 L1425.37 14.324 L1432.86 14.324 Z" fill="#000000" fill-rule="nonzero" fill-opacity="1" /><path clip-path="url(#clip410)" d="M1465.23 65.7705 L1465.23 89.8329 L1457.73 89.8329 L1457.73 27.2059 L1465.23 27.2059 L1465.23 34.0924 Q1467.58 30.0415 1471.14 28.0971 Q1474.75 26.1121 1479.73 26.1121 Q1487.99 26.1121 1493.14 32.6746 Q1498.32 39.2371 1498.32 49.9314 Q1498.32 60.6258 1493.14 67.1883 Q1487.99 73.7508 1479.73 73.7508 Q1474.75 73.7508 1471.14 71.8063 Q1467.58 69.8214 1465.23 65.7705 M1490.59 49.9314 Q1490.59 41.7081 1487.18 37.0496 Q1483.82 32.3505 1477.91 32.3505 Q1471.99 32.3505 1468.59 37.0496 Q1465.23 41.7081 1465.23 49.9314 Q1465.23 58.1548 1468.59 62.8538 Q1471.99 67.5124 1477.91 67.5124 Q1483.82 67.5124 1487.18 62.8538 Q1490.59 58.1548 1490.59 49.9314 Z" fill="#000000" fill-rule="nonzero" fill-opacity="1" /><path clip-path="url(#clip410)" d="M1518.78 65.6895 L1547.34 65.6895 L1547.34 72.576 L1508.94 72.576 L1508.94 65.6895 Q1513.6 60.8689 1521.62 52.7671 Q1529.68 44.6248 1531.74 42.2752 Q1535.67 37.8598 1537.21 34.8216 Q1538.79 31.7429 1538.79 28.7857 Q1538.79 23.9651 1535.39 20.927 Q1532.03 17.8888 1526.6 17.8888 Q1522.75 17.8888 1518.46 19.2256 Q1514.2 20.5624 1509.34 23.2765 L1509.34 15.0127 Q1514.28 13.0277 1518.58 12.015 Q1522.87 11.0023 1526.44 11.0023 Q1535.83 11.0023 1541.42 15.7013 Q1547.01 20.4004 1547.01 28.2591 Q1547.01 31.9859 1545.6 35.3482 Q1544.22 38.6699 1540.53 43.2069 Q1539.52 44.3817 1534.09 50.0125 Q1528.66 55.6027 1518.78 65.6895 Z" fill="#000000" fill-rule="nonzero" fill-opacity="1" /><path clip-path="url(#clip410)" d="M1564.76 71.3202 L1564.76 63.8666 Q1567.84 65.3249 1571 66.0946 Q1574.16 66.8642 1577.19 66.8642 Q1585.3 66.8642 1589.55 61.436 Q1593.84 55.9673 1594.45 44.8678 Q1592.1 48.3516 1588.5 50.215 Q1584.89 52.0784 1580.52 52.0784 Q1571.44 52.0784 1566.14 46.6097 Q1560.87 41.1005 1560.87 31.5808 Q1560.87 22.2638 1566.38 16.633 Q1571.89 11.0023 1581.04 11.0023 Q1591.53 11.0023 1597.04 19.0636 Q1602.59 27.0843 1602.59 42.3968 Q1602.59 56.6965 1595.79 65.2439 Q1589.02 73.7508 1577.56 73.7508 Q1574.48 73.7508 1571.32 73.1431 Q1568.16 72.5355 1564.76 71.3202 M1581.04 45.678 Q1586.55 45.678 1589.75 41.9107 Q1592.99 38.1433 1592.99 31.5808 Q1592.99 25.0589 1589.75 21.2916 Q1586.55 17.4837 1581.04 17.4837 Q1575.53 17.4837 1572.29 21.2916 Q1569.09 25.0589 1569.09 31.5808 Q1569.09 38.1433 1572.29 41.9107 Q1575.53 45.678 1581.04 45.678 Z" fill="#000000" fill-rule="nonzero" fill-opacity="1" /><path clip-path="url(#clip410)" d="M1615.23 12.096 L1654.12 12.096 L1654.12 15.5798 L1632.16 72.576 L1623.62 72.576 L1644.28 18.9825 L1615.23 18.9825 L1615.23 12.096 Z" fill="#000000" fill-rule="nonzero" fill-opacity="1" /><polyline clip-path="url(#clip412)" style="stroke:#009af9; stroke-linecap:round; stroke-linejoin:round; stroke-width:4; stroke-opacity:1; fill:none" points="311.028,160.256 334.911,244.255 358.793,325.835 382.676,325.835 406.559,344.239 430.441,353.201 454.324,354.251 478.207,354.644 502.089,354.723 525.972,354.723 549.855,354.723 573.737,354.723 597.62,354.723 621.503,354.723 645.385,354.723 669.268,354.723 693.15,354.723 717.033,354.956 740.916,355.343 764.798,355.692 788.681,355.908 812.564,356.101 836.446,356.289 860.329,356.499 884.212,356.761 908.094,357.132 931.977,357.615 955.86,357.974 979.742,358.239 1003.62,358.488 1027.51,358.753 1051.39,359.077 1075.27,359.527 1099.16,360.078 1123.04,360.5 1146.92,360.833 1170.8,361.149 1194.69,361.524 1218.57,362.022 1242.45,362.658 1266.33,363.214 1290.22,363.667 1314.1,364.134 1337.98,364.7 1361.86,365.434 1385.75,366.162 1409.63,366.817 1433.51,367.527 1457.4,368.375 1481.28,369.269 1505.16,370.26 1529.04,371.252 1552.93,372.356 1576.81,373.757 1600.69,374.855 1624.57,376.566 1648.46,377.921 1672.34,379.531 1696.22,381.333 1720.1,383.087 1743.99,385.141 1767.87,387.114 1791.75,389.521 1815.64,391.746 1839.52,394.652 1863.4,397.414 1887.28,400.608 1911.17,404.295 1935.05,408.391 1958.93,413.014 1982.81,418.959 2006.7,425.7 2030.58,435.616 2054.46,446.682 2078.34,462.589 2102.23,477.186 2126.11,492.583 2149.99,511.506 2173.87,531.66 2197.76,558.575 2221.64,586.222 2245.52,629.33 2269.41,716.423 2293.29,1386.4 "/>
<polyline clip-path="url(#clip412)" style="stroke:#e26f46; stroke-linecap:round; stroke-linejoin:round; stroke-width:4; stroke-opacity:1; fill:none" points="311.028,160.256 334.911,244.255 358.793,325.835 382.676,325.835 406.559,344.239 430.441,353.201 454.324,354.251 478.207,354.644 502.089,354.723 525.972,354.723 549.855,354.723 573.737,354.723 597.62,354.723 621.503,354.723 645.385,354.723 669.268,354.723 693.15,354.723 717.033,354.956 740.916,355.343 764.798,355.692 788.681,355.908 812.564,356.101 836.446,356.289 860.329,356.499 884.212,356.761 908.094,357.132 931.977,357.615 955.86,357.974 979.742,358.239 1003.62,358.488 1027.51,358.753 1051.39,359.077 1075.27,359.527 1099.16,360.078 1123.04,360.5 1146.92,360.833 1170.8,361.149 1194.69,361.524 1218.57,362.022 1242.45,362.658 1266.33,363.214 1290.22,363.667 1314.1,364.134 1337.98,364.7 1361.86,365.434 1385.75,366.162 1409.63,366.817 1433.51,367.527 1457.4,368.375 1481.28,369.269 1505.16,370.26 1529.04,371.252 1552.93,372.356 1576.81,373.757 1600.69,374.855 1624.57,376.566 1648.46,377.921 1672.34,379.531 1696.22,381.333 1720.1,383.087 1743.99,385.141 1767.87,387.114 1791.75,389.521 1815.64,391.746 1839.52,394.652 1863.4,397.414 1887.28,400.608 1911.17,404.295 1935.05,408.391 1958.93,413.014 1982.81,418.959 2006.7,425.7 2030.58,435.616 2054.46,446.682 2078.34,462.589 2102.23,477.186 2126.11,492.583 2149.99,511.506 2173.87,531.66 2197.76,558.575 2221.64,586.222 2245.52,629.33 2269.41,716.423 2293.29,1386.4 "/>
<path clip-path="url(#clip410)" d="M1501.03 322.316 L2282.72 322.316 L2282.72 166.796 L1501.03 166.796  Z" fill="#ffffff" fill-rule="evenodd" fill-opacity="1"/>
<polyline clip-path="url(#clip410)" style="stroke:#000000; stroke-linecap:round; stroke-linejoin:round; stroke-width:4; stroke-opacity:1; fill:none" points="1501.03,322.316 2282.72,322.316 2282.72,166.796 1501.03,166.796 1501.03,322.316 "/>
<polyline clip-path="url(#clip410)" style="stroke:#009af9; stroke-linecap:round; stroke-linejoin:round; stroke-width:4; stroke-opacity:1; fill:none" points="1524.37,218.636 1664.45,218.636 "/>
<path clip-path="url(#clip410)" d="M1687.8 201.356 L1692.47 201.356 L1692.47 231.981 L1709.3 231.981 L1709.3 235.916 L1687.8 235.916 L1687.8 201.356 Z" fill="#000000" fill-rule="nonzero" fill-opacity="1" /><path clip-path="url(#clip410)" d="M1714.21 201.356 L1721.18 201.356 L1730 224.874 L1738.86 201.356 L1745.83 201.356 L1745.83 235.916 L1741.27 235.916 L1741.27 205.569 L1732.36 229.272 L1727.66 229.272 L1718.75 205.569 L1718.75 235.916 L1714.21 235.916 L1714.21 201.356 Z" fill="#000000" fill-rule="nonzero" fill-opacity="1" /><path clip-path="url(#clip410)" d="M1774.63 243.786 L1774.63 247.096 L1750 247.096 L1750 243.786 L1774.63 243.786 Z" fill="#000000" fill-rule="nonzero" fill-opacity="1" /><path clip-path="url(#clip410)" d="M1790.37 205.962 L1784.02 223.161 L1796.73 223.161 L1790.37 205.962 M1787.73 201.356 L1793.03 201.356 L1806.2 235.916 L1801.34 235.916 L1798.19 227.05 L1782.61 227.05 L1779.46 235.916 L1774.53 235.916 L1787.73 201.356 Z" fill="#000000" fill-rule="nonzero" fill-opacity="1" /><path clip-path="url(#clip410)" d="M1832.61 220.268 L1832.61 235.916 L1828.35 235.916 L1828.35 220.407 Q1828.35 216.726 1826.92 214.897 Q1825.48 213.069 1822.61 213.069 Q1819.16 213.069 1817.17 215.268 Q1815.18 217.467 1815.18 221.263 L1815.18 235.916 L1810.9 235.916 L1810.9 209.99 L1815.18 209.99 L1815.18 214.018 Q1816.71 211.68 1818.77 210.522 Q1820.85 209.365 1823.56 209.365 Q1828.03 209.365 1830.32 212.143 Q1832.61 214.897 1832.61 220.268 Z" fill="#000000" fill-rule="nonzero" fill-opacity="1" /><path clip-path="url(#clip410)" d="M1858.17 213.925 L1858.17 199.897 L1862.43 199.897 L1862.43 235.916 L1858.17 235.916 L1858.17 232.027 Q1856.83 234.342 1854.77 235.476 Q1852.73 236.587 1849.86 236.587 Q1845.16 236.587 1842.2 232.837 Q1839.26 229.087 1839.26 222.976 Q1839.26 216.865 1842.2 213.115 Q1845.16 209.365 1849.86 209.365 Q1852.73 209.365 1854.77 210.499 Q1856.83 211.61 1858.17 213.925 M1843.65 222.976 Q1843.65 227.675 1845.58 230.36 Q1847.52 233.022 1850.9 233.022 Q1854.28 233.022 1856.22 230.36 Q1858.17 227.675 1858.17 222.976 Q1858.17 218.277 1856.22 215.615 Q1854.28 212.93 1850.9 212.93 Q1847.52 212.93 1845.58 215.615 Q1843.65 218.277 1843.65 222.976 Z" fill="#000000" fill-rule="nonzero" fill-opacity="1" /><path clip-path="url(#clip410)" d="M1886.22 213.971 Q1885.51 213.555 1884.65 213.37 Q1883.82 213.161 1882.8 213.161 Q1879.19 213.161 1877.24 215.522 Q1875.32 217.86 1875.32 222.258 L1875.32 235.916 L1871.04 235.916 L1871.04 209.99 L1875.32 209.99 L1875.32 214.018 Q1876.66 211.657 1878.82 210.522 Q1880.97 209.365 1884.05 209.365 Q1884.49 209.365 1885.02 209.434 Q1885.55 209.481 1886.2 209.596 L1886.22 213.971 Z" fill="#000000" fill-rule="nonzero" fill-opacity="1" /><path clip-path="url(#clip410)" d="M1911.82 221.888 L1911.82 223.971 L1892.24 223.971 Q1892.52 228.369 1894.88 230.684 Q1897.26 232.976 1901.5 232.976 Q1903.95 232.976 1906.25 232.374 Q1908.56 231.772 1910.83 230.569 L1910.83 234.596 Q1908.54 235.568 1906.13 236.078 Q1903.72 236.587 1901.25 236.587 Q1895.04 236.587 1891.41 232.976 Q1887.8 229.365 1887.8 223.207 Q1887.8 216.842 1891.22 213.115 Q1894.67 209.365 1900.51 209.365 Q1905.74 209.365 1908.77 212.745 Q1911.82 216.101 1911.82 221.888 M1907.57 220.638 Q1907.52 217.143 1905.6 215.059 Q1903.7 212.976 1900.55 212.976 Q1896.99 212.976 1894.83 214.99 Q1892.7 217.004 1892.38 220.661 L1907.57 220.638 Z" fill="#000000" fill-rule="nonzero" fill-opacity="1" /><path clip-path="url(#clip410)" d="M1918.82 209.99 L1923.07 209.99 L1923.07 235.916 L1918.82 235.916 L1918.82 209.99 M1918.82 199.897 L1923.07 199.897 L1923.07 205.291 L1918.82 205.291 L1918.82 199.897 Z" fill="#000000" fill-rule="nonzero" fill-opacity="1" /><path clip-path="url(#clip410)" d="M1951.69 243.786 L1951.69 247.096 L1927.06 247.096 L1927.06 243.786 L1951.69 243.786 Z" fill="#000000" fill-rule="nonzero" fill-opacity="1" /><path clip-path="url(#clip410)" d="M1967.47 222.883 Q1962.31 222.883 1960.32 224.064 Q1958.33 225.244 1958.33 228.092 Q1958.33 230.36 1959.81 231.703 Q1961.32 233.022 1963.88 233.022 Q1967.43 233.022 1969.56 230.522 Q1971.71 227.999 1971.71 223.832 L1971.71 222.883 L1967.47 222.883 M1975.97 221.124 L1975.97 235.916 L1971.71 235.916 L1971.71 231.981 Q1970.25 234.342 1968.07 235.476 Q1965.9 236.587 1962.75 236.587 Q1958.77 236.587 1956.41 234.365 Q1954.07 232.119 1954.07 228.369 Q1954.07 223.994 1956.99 221.772 Q1959.93 219.55 1965.74 219.55 L1971.71 219.55 L1971.71 219.133 Q1971.71 216.194 1969.76 214.596 Q1967.84 212.976 1964.35 212.976 Q1962.13 212.976 1960.02 213.508 Q1957.91 214.041 1955.97 215.106 L1955.97 211.17 Q1958.31 210.268 1960.51 209.828 Q1962.7 209.365 1964.79 209.365 Q1970.41 209.365 1973.19 212.282 Q1975.97 215.198 1975.97 221.124 Z" fill="#000000" fill-rule="nonzero" fill-opacity="1" /><path clip-path="url(#clip410)" d="M1984.74 199.897 L1989 199.897 L1989 235.916 L1984.74 235.916 L1984.74 199.897 Z" fill="#000000" fill-rule="nonzero" fill-opacity="1" /><path clip-path="url(#clip410)" d="M2002.13 202.629 L2002.13 209.99 L2010.9 209.99 L2010.9 213.3 L2002.13 213.3 L2002.13 227.374 Q2002.13 230.545 2002.98 231.448 Q2003.86 232.351 2006.52 232.351 L2010.9 232.351 L2010.9 235.916 L2006.52 235.916 Q2001.59 235.916 1999.72 234.087 Q1997.84 232.235 1997.84 227.374 L1997.84 213.3 L1994.72 213.3 L1994.72 209.99 L1997.84 209.99 L1997.84 202.629 L2002.13 202.629 Z" fill="#000000" fill-rule="nonzero" fill-opacity="1" /><polyline clip-path="url(#clip410)" style="stroke:#e26f46; stroke-linecap:round; stroke-linejoin:round; stroke-width:4; stroke-opacity:1; fill:none" points="1524.37,270.476 1664.45,270.476 "/>
<path clip-path="url(#clip410)" d="M1687.8 253.196 L1692.47 253.196 L1692.47 283.821 L1709.3 283.821 L1709.3 287.756 L1687.8 287.756 L1687.8 253.196 Z" fill="#000000" fill-rule="nonzero" fill-opacity="1" /><path clip-path="url(#clip410)" d="M1714.21 253.196 L1721.18 253.196 L1730 276.714 L1738.86 253.196 L1745.83 253.196 L1745.83 287.756 L1741.27 287.756 L1741.27 257.409 L1732.36 281.112 L1727.66 281.112 L1718.75 257.409 L1718.75 287.756 L1714.21 287.756 L1714.21 253.196 Z" fill="#000000" fill-rule="nonzero" fill-opacity="1" /><path clip-path="url(#clip410)" d="M1774.63 295.626 L1774.63 298.936 L1750 298.936 L1750 295.626 L1774.63 295.626 Z" fill="#000000" fill-rule="nonzero" fill-opacity="1" /><path clip-path="url(#clip410)" d="M1790.37 257.802 L1784.02 275.001 L1796.73 275.001 L1790.37 257.802 M1787.73 253.196 L1793.03 253.196 L1806.2 287.756 L1801.34 287.756 L1798.19 278.89 L1782.61 278.89 L1779.46 287.756 L1774.53 287.756 L1787.73 253.196 Z" fill="#000000" fill-rule="nonzero" fill-opacity="1" /><path clip-path="url(#clip410)" d="M1832.61 272.108 L1832.61 287.756 L1828.35 287.756 L1828.35 272.247 Q1828.35 268.566 1826.92 266.737 Q1825.48 264.909 1822.61 264.909 Q1819.16 264.909 1817.17 267.108 Q1815.18 269.307 1815.18 273.103 L1815.18 287.756 L1810.9 287.756 L1810.9 261.83 L1815.18 261.83 L1815.18 265.858 Q1816.71 263.52 1818.77 262.362 Q1820.85 261.205 1823.56 261.205 Q1828.03 261.205 1830.32 263.983 Q1832.61 266.737 1832.61 272.108 Z" fill="#000000" fill-rule="nonzero" fill-opacity="1" /><path clip-path="url(#clip410)" d="M1858.17 265.765 L1858.17 251.737 L1862.43 251.737 L1862.43 287.756 L1858.17 287.756 L1858.17 283.867 Q1856.83 286.182 1854.77 287.316 Q1852.73 288.427 1849.86 288.427 Q1845.16 288.427 1842.2 284.677 Q1839.26 280.927 1839.26 274.816 Q1839.26 268.705 1842.2 264.955 Q1845.16 261.205 1849.86 261.205 Q1852.73 261.205 1854.77 262.339 Q1856.83 263.45 1858.17 265.765 M1843.65 274.816 Q1843.65 279.515 1845.58 282.2 Q1847.52 284.862 1850.9 284.862 Q1854.28 284.862 1856.22 282.2 Q1858.17 279.515 1858.17 274.816 Q1858.17 270.117 1856.22 267.455 Q1854.28 264.77 1850.9 264.77 Q1847.52 264.77 1845.58 267.455 Q1843.65 270.117 1843.65 274.816 Z" fill="#000000" fill-rule="nonzero" fill-opacity="1" /><path clip-path="url(#clip410)" d="M1886.22 265.811 Q1885.51 265.395 1884.65 265.21 Q1883.82 265.001 1882.8 265.001 Q1879.19 265.001 1877.24 267.362 Q1875.32 269.7 1875.32 274.098 L1875.32 287.756 L1871.04 287.756 L1871.04 261.83 L1875.32 261.83 L1875.32 265.858 Q1876.66 263.497 1878.82 262.362 Q1880.97 261.205 1884.05 261.205 Q1884.49 261.205 1885.02 261.274 Q1885.55 261.321 1886.2 261.436 L1886.22 265.811 Z" fill="#000000" fill-rule="nonzero" fill-opacity="1" /><path clip-path="url(#clip410)" d="M1911.82 273.728 L1911.82 275.811 L1892.24 275.811 Q1892.52 280.209 1894.88 282.524 Q1897.26 284.816 1901.5 284.816 Q1903.95 284.816 1906.25 284.214 Q1908.56 283.612 1910.83 282.409 L1910.83 286.436 Q1908.54 287.408 1906.13 287.918 Q1903.72 288.427 1901.25 288.427 Q1895.04 288.427 1891.41 284.816 Q1887.8 281.205 1887.8 275.047 Q1887.8 268.682 1891.22 264.955 Q1894.67 261.205 1900.51 261.205 Q1905.74 261.205 1908.77 264.585 Q1911.82 267.941 1911.82 273.728 M1907.57 272.478 Q1907.52 268.983 1905.6 266.899 Q1903.7 264.816 1900.55 264.816 Q1896.99 264.816 1894.83 266.83 Q1892.7 268.844 1892.38 272.501 L1907.57 272.478 Z" fill="#000000" fill-rule="nonzero" fill-opacity="1" /><path clip-path="url(#clip410)" d="M1918.82 261.83 L1923.07 261.83 L1923.07 287.756 L1918.82 287.756 L1918.82 261.83 M1918.82 251.737 L1923.07 251.737 L1923.07 257.131 L1918.82 257.131 L1918.82 251.737 Z" fill="#000000" fill-rule="nonzero" fill-opacity="1" /><path clip-path="url(#clip410)" d="M1951.69 295.626 L1951.69 298.936 L1927.06 298.936 L1927.06 295.626 L1951.69 295.626 Z" fill="#000000" fill-rule="nonzero" fill-opacity="1" /><path clip-path="url(#clip410)" d="M1967.47 274.723 Q1962.31 274.723 1960.32 275.904 Q1958.33 277.084 1958.33 279.932 Q1958.33 282.2 1959.81 283.543 Q1961.32 284.862 1963.88 284.862 Q1967.43 284.862 1969.56 282.362 Q1971.71 279.839 1971.71 275.672 L1971.71 274.723 L1967.47 274.723 M1975.97 272.964 L1975.97 287.756 L1971.71 287.756 L1971.71 283.821 Q1970.25 286.182 1968.07 287.316 Q1965.9 288.427 1962.75 288.427 Q1958.77 288.427 1956.41 286.205 Q1954.07 283.959 1954.07 280.209 Q1954.07 275.834 1956.99 273.612 Q1959.93 271.39 1965.74 271.39 L1971.71 271.39 L1971.71 270.973 Q1971.71 268.034 1969.76 266.436 Q1967.84 264.816 1964.35 264.816 Q1962.13 264.816 1960.02 265.348 Q1957.91 265.881 1955.97 266.946 L1955.97 263.01 Q1958.31 262.108 1960.51 261.668 Q1962.7 261.205 1964.79 261.205 Q1970.41 261.205 1973.19 264.122 Q1975.97 267.038 1975.97 272.964 Z" fill="#000000" fill-rule="nonzero" fill-opacity="1" /><path clip-path="url(#clip410)" d="M1984.74 251.737 L1989 251.737 L1989 287.756 L1984.74 287.756 L1984.74 251.737 Z" fill="#000000" fill-rule="nonzero" fill-opacity="1" /><path clip-path="url(#clip410)" d="M2002.13 254.469 L2002.13 261.83 L2010.9 261.83 L2010.9 265.14 L2002.13 265.14 L2002.13 279.214 Q2002.13 282.385 2002.98 283.288 Q2003.86 284.191 2006.52 284.191 L2010.9 284.191 L2010.9 287.756 L2006.52 287.756 Q2001.59 287.756 1999.72 285.927 Q1997.84 284.075 1997.84 279.214 L1997.84 265.14 L1994.72 265.14 L1994.72 261.83 L1997.84 261.83 L1997.84 254.469 L2002.13 254.469 Z" fill="#000000" fill-rule="nonzero" fill-opacity="1" /><path clip-path="url(#clip410)" d="M2036.2 295.626 L2036.2 298.936 L2011.57 298.936 L2011.57 295.626 L2036.2 295.626 Z" fill="#000000" fill-rule="nonzero" fill-opacity="1" /><path clip-path="url(#clip410)" d="M2042.75 274.816 Q2042.75 279.515 2044.67 282.2 Q2046.62 284.862 2050 284.862 Q2053.38 284.862 2055.32 282.2 Q2057.26 279.515 2057.26 274.816 Q2057.26 270.117 2055.32 267.455 Q2053.38 264.77 2050 264.77 Q2046.62 264.77 2044.67 267.455 Q2042.75 270.117 2042.75 274.816 M2057.26 283.867 Q2055.92 286.182 2053.86 287.316 Q2051.82 288.427 2048.95 288.427 Q2044.25 288.427 2041.29 284.677 Q2038.35 280.927 2038.35 274.816 Q2038.35 268.705 2041.29 264.955 Q2044.25 261.205 2048.95 261.205 Q2051.82 261.205 2053.86 262.339 Q2055.92 263.45 2057.26 265.765 L2057.26 261.83 L2061.52 261.83 L2061.52 297.617 L2057.26 297.617 L2057.26 283.867 Z" fill="#000000" fill-rule="nonzero" fill-opacity="1" /><path clip-path="url(#clip410)" d="M2085.32 265.811 Q2084.6 265.395 2083.75 265.21 Q2082.91 265.001 2081.89 265.001 Q2078.28 265.001 2076.34 267.362 Q2074.42 269.7 2074.42 274.098 L2074.42 287.756 L2070.13 287.756 L2070.13 261.83 L2074.42 261.83 L2074.42 265.858 Q2075.76 263.497 2077.91 262.362 Q2080.06 261.205 2083.14 261.205 Q2083.58 261.205 2084.12 261.274 Q2084.65 261.321 2085.3 261.436 L2085.32 265.811 Z" fill="#000000" fill-rule="nonzero" fill-opacity="1" /><path clip-path="url(#clip410)" d="M2109.14 266.807 Q2110.74 263.936 2112.96 262.571 Q2115.18 261.205 2118.19 261.205 Q2122.24 261.205 2124.44 264.052 Q2126.64 266.876 2126.64 272.108 L2126.64 287.756 L2122.36 287.756 L2122.36 272.247 Q2122.36 268.52 2121.04 266.714 Q2119.72 264.909 2117.01 264.909 Q2113.7 264.909 2111.78 267.108 Q2109.86 269.307 2109.86 273.103 L2109.86 287.756 L2105.57 287.756 L2105.57 272.247 Q2105.57 268.497 2104.25 266.714 Q2102.94 264.909 2100.18 264.909 Q2096.92 264.909 2095 267.131 Q2093.07 269.33 2093.07 273.103 L2093.07 287.756 L2088.79 287.756 L2088.79 261.83 L2093.07 261.83 L2093.07 265.858 Q2094.53 263.473 2096.57 262.339 Q2098.61 261.205 2101.41 261.205 Q2104.23 261.205 2106.2 262.64 Q2108.19 264.075 2109.14 266.807 Z" fill="#000000" fill-rule="nonzero" fill-opacity="1" /><path clip-path="url(#clip410)" d="M2134.69 277.524 L2134.69 261.83 L2138.95 261.83 L2138.95 277.362 Q2138.95 281.043 2140.39 282.895 Q2141.82 284.723 2144.69 284.723 Q2148.14 284.723 2150.13 282.524 Q2152.15 280.325 2152.15 276.529 L2152.15 261.83 L2156.41 261.83 L2156.41 287.756 L2152.15 287.756 L2152.15 283.774 Q2150.6 286.135 2148.54 287.293 Q2146.5 288.427 2143.79 288.427 Q2139.32 288.427 2137.01 285.649 Q2134.69 282.871 2134.69 277.524 M2145.41 261.205 L2145.41 261.205 Z" fill="#000000" fill-rule="nonzero" fill-opacity="1" /><path clip-path="url(#clip410)" d="M2185.37 266.807 Q2186.96 263.936 2189.18 262.571 Q2191.41 261.205 2194.42 261.205 Q2198.47 261.205 2200.67 264.052 Q2202.87 266.876 2202.87 272.108 L2202.87 287.756 L2198.58 287.756 L2198.58 272.247 Q2198.58 268.52 2197.26 266.714 Q2195.94 264.909 2193.24 264.909 Q2189.93 264.909 2188 267.108 Q2186.08 269.307 2186.08 273.103 L2186.08 287.756 L2181.8 287.756 L2181.8 272.247 Q2181.8 268.497 2180.48 266.714 Q2179.16 264.909 2176.41 264.909 Q2173.14 264.909 2171.22 267.131 Q2169.3 269.33 2169.3 273.103 L2169.3 287.756 L2165.02 287.756 L2165.02 261.83 L2169.3 261.83 L2169.3 265.858 Q2170.76 263.473 2172.8 262.339 Q2174.83 261.205 2177.63 261.205 Q2180.46 261.205 2182.43 262.64 Q2184.42 264.075 2185.37 266.807 Z" fill="#000000" fill-rule="nonzero" fill-opacity="1" /><path clip-path="url(#clip410)" d="M2215.48 283.867 L2215.48 297.617 L2211.2 297.617 L2211.2 261.83 L2215.48 261.83 L2215.48 265.765 Q2216.82 263.45 2218.86 262.339 Q2220.92 261.205 2223.77 261.205 Q2228.49 261.205 2231.43 264.955 Q2234.39 268.705 2234.39 274.816 Q2234.39 280.927 2231.43 284.677 Q2228.49 288.427 2223.77 288.427 Q2220.92 288.427 2218.86 287.316 Q2216.82 286.182 2215.48 283.867 M2229.97 274.816 Q2229.97 270.117 2228.03 267.455 Q2226.11 264.77 2222.73 264.77 Q2219.35 264.77 2217.4 267.455 Q2215.48 270.117 2215.48 274.816 Q2215.48 279.515 2217.4 282.2 Q2219.35 284.862 2222.73 284.862 Q2226.11 284.862 2228.03 282.2 Q2229.97 279.515 2229.97 274.816 Z" fill="#000000" fill-rule="nonzero" fill-opacity="1" /><path clip-path="url(#clip410)" d="M2257.98 262.594 L2257.98 266.622 Q2256.18 265.696 2254.23 265.233 Q2252.29 264.77 2250.2 264.77 Q2247.03 264.77 2245.43 265.742 Q2243.86 266.714 2243.86 268.659 Q2243.86 270.14 2244.99 270.997 Q2246.13 271.83 2249.55 272.594 L2251.01 272.918 Q2255.55 273.89 2257.45 275.672 Q2259.37 277.432 2259.37 280.603 Q2259.37 284.214 2256.5 286.321 Q2253.65 288.427 2248.65 288.427 Q2246.57 288.427 2244.3 288.01 Q2242.05 287.617 2239.55 286.807 L2239.55 282.409 Q2241.92 283.635 2244.21 284.26 Q2246.5 284.862 2248.74 284.862 Q2251.75 284.862 2253.37 283.844 Q2254.99 282.802 2254.99 280.927 Q2254.99 279.191 2253.81 278.265 Q2252.66 277.339 2248.7 276.483 L2247.22 276.135 Q2243.26 275.302 2241.5 273.589 Q2239.74 271.853 2239.74 268.844 Q2239.74 265.186 2242.33 263.196 Q2244.93 261.205 2249.69 261.205 Q2252.05 261.205 2254.14 261.552 Q2256.22 261.899 2257.98 262.594 Z" fill="#000000" fill-rule="nonzero" fill-opacity="1" /></svg>
