<?xml version="1.0" encoding="utf-8"?>
<svg xmlns="http://www.w3.org/2000/svg" xmlns:xlink="http://www.w3.org/1999/xlink" width="600" height="400" viewBox="0 0 2400 1600">
<defs>
  <clipPath id="clip220">
    <rect x="0" y="0" width="2400" height="1600"/>
  </clipPath>
</defs>
<path clip-path="url(#clip220)" d="M0 1600 L2400 1600 L2400 0 L0 0  Z" fill="#ffffff" fill-rule="evenodd" fill-opacity="1"/>
<defs>
  <clipPath id="clip221">
    <rect x="480" y="0" width="1681" height="1600"/>
  </clipPath>
</defs>
<path clip-path="url(#clip220)" d="M288.311 1423.18 L2352.76 1423.18 L2352.76 123.472 L288.311 123.472  Z" fill="#ffffff" fill-rule="evenodd" fill-opacity="1"/>
<defs>
  <clipPath id="clip222">
    <rect x="288" y="123" width="2065" height="1301"/>
  </clipPath>
</defs>
<polyline clip-path="url(#clip222)" style="stroke:#000000; stroke-linecap:round; stroke-linejoin:round; stroke-width:2; stroke-opacity:0.1; fill:none" points="343.386,1423.18 343.386,123.472 "/>
<polyline clip-path="url(#clip222)" style="stroke:#000000; stroke-linecap:round; stroke-linejoin:round; stroke-width:2; stroke-opacity:0.1; fill:none" points="678.6,1423.18 678.6,123.472 "/>
<polyline clip-path="url(#clip222)" style="stroke:#000000; stroke-linecap:round; stroke-linejoin:round; stroke-width:2; stroke-opacity:0.1; fill:none" points="1013.81,1423.18 1013.81,123.472 "/>
<polyline clip-path="url(#clip222)" style="stroke:#000000; stroke-linecap:round; stroke-linejoin:round; stroke-width:2; stroke-opacity:0.1; fill:none" points="1349.03,1423.18 1349.03,123.472 "/>
<polyline clip-path="url(#clip222)" style="stroke:#000000; stroke-linecap:round; stroke-linejoin:round; stroke-width:2; stroke-opacity:0.1; fill:none" points="1684.24,1423.18 1684.24,123.472 "/>
<polyline clip-path="url(#clip222)" style="stroke:#000000; stroke-linecap:round; stroke-linejoin:round; stroke-width:2; stroke-opacity:0.1; fill:none" points="2019.45,1423.18 2019.45,123.472 "/>
<polyline clip-path="url(#clip220)" style="stroke:#000000; stroke-linecap:round; stroke-linejoin:round; stroke-width:4; stroke-opacity:1; fill:none" points="288.311,1423.18 2352.76,1423.18 "/>
<polyline clip-path="url(#clip220)" style="stroke:#000000; stroke-linecap:round; stroke-linejoin:round; stroke-width:4; stroke-opacity:1; fill:none" points="343.386,1423.18 343.386,1404.28 "/>
<polyline clip-path="url(#clip220)" style="stroke:#000000; stroke-linecap:round; stroke-linejoin:round; stroke-width:4; stroke-opacity:1; fill:none" points="678.6,1423.18 678.6,1404.28 "/>
<polyline clip-path="url(#clip220)" style="stroke:#000000; stroke-linecap:round; stroke-linejoin:round; stroke-width:4; stroke-opacity:1; fill:none" points="1013.81,1423.18 1013.81,1404.28 "/>
<polyline clip-path="url(#clip220)" style="stroke:#000000; stroke-linecap:round; stroke-linejoin:round; stroke-width:4; stroke-opacity:1; fill:none" points="1349.03,1423.18 1349.03,1404.28 "/>
<polyline clip-path="url(#clip220)" style="stroke:#000000; stroke-linecap:round; stroke-linejoin:round; stroke-width:4; stroke-opacity:1; fill:none" points="1684.24,1423.18 1684.24,1404.28 "/>
<polyline clip-path="url(#clip220)" style="stroke:#000000; stroke-linecap:round; stroke-linejoin:round; stroke-width:4; stroke-opacity:1; fill:none" points="2019.45,1423.18 2019.45,1404.28 "/>
<path clip-path="url(#clip220)" d="M343.386 1454.1 Q339.775 1454.1 337.946 1457.66 Q336.141 1461.2 336.141 1468.33 Q336.141 1475.44 337.946 1479.01 Q339.775 1482.55 343.386 1482.55 Q347.02 1482.55 348.826 1479.01 Q350.655 1475.44 350.655 1468.33 Q350.655 1461.2 348.826 1457.66 Q347.02 1454.1 343.386 1454.1 M343.386 1450.39 Q349.196 1450.39 352.252 1455 Q355.331 1459.58 355.331 1468.33 Q355.331 1477.06 352.252 1481.67 Q349.196 1486.25 343.386 1486.25 Q337.576 1486.25 334.497 1481.67 Q331.442 1477.06 331.442 1468.33 Q331.442 1459.58 334.497 1455 Q337.576 1450.39 343.386 1450.39 Z" fill="#000000" fill-rule="nonzero" fill-opacity="1" /><path clip-path="url(#clip220)" d="M638.206 1481.64 L645.845 1481.64 L645.845 1455.28 L637.535 1456.95 L637.535 1452.69 L645.799 1451.02 L650.475 1451.02 L650.475 1481.64 L658.114 1481.64 L658.114 1485.58 L638.206 1485.58 L638.206 1481.64 Z" fill="#000000" fill-rule="nonzero" fill-opacity="1" /><path clip-path="url(#clip220)" d="M677.558 1454.1 Q673.947 1454.1 672.118 1457.66 Q670.313 1461.2 670.313 1468.33 Q670.313 1475.44 672.118 1479.01 Q673.947 1482.55 677.558 1482.55 Q681.192 1482.55 682.998 1479.01 Q684.826 1475.44 684.826 1468.33 Q684.826 1461.2 682.998 1457.66 Q681.192 1454.1 677.558 1454.1 M677.558 1450.39 Q683.368 1450.39 686.424 1455 Q689.502 1459.58 689.502 1468.33 Q689.502 1477.06 686.424 1481.67 Q683.368 1486.25 677.558 1486.25 Q671.748 1486.25 668.669 1481.67 Q665.614 1477.06 665.614 1468.33 Q665.614 1459.58 668.669 1455 Q671.748 1450.39 677.558 1450.39 Z" fill="#000000" fill-rule="nonzero" fill-opacity="1" /><path clip-path="url(#clip220)" d="M707.72 1454.1 Q704.109 1454.1 702.28 1457.66 Q700.474 1461.2 700.474 1468.33 Q700.474 1475.44 702.28 1479.01 Q704.109 1482.55 707.72 1482.55 Q711.354 1482.55 713.16 1479.01 Q714.988 1475.44 714.988 1468.33 Q714.988 1461.2 713.16 1457.66 Q711.354 1454.1 707.72 1454.1 M707.72 1450.39 Q713.53 1450.39 716.586 1455 Q719.664 1459.58 719.664 1468.33 Q719.664 1477.06 716.586 1481.67 Q713.53 1486.25 707.72 1486.25 Q701.91 1486.25 698.831 1481.67 Q695.775 1477.06 695.775 1468.33 Q695.775 1459.58 698.831 1455 Q701.91 1450.39 707.72 1450.39 Z" fill="#000000" fill-rule="nonzero" fill-opacity="1" /><path clip-path="url(#clip220)" d="M977.505 1481.64 L993.825 1481.64 L993.825 1485.58 L971.88 1485.58 L971.88 1481.64 Q974.542 1478.89 979.126 1474.26 Q983.732 1469.61 984.913 1468.27 Q987.158 1465.74 988.038 1464.01 Q988.94 1462.25 988.94 1460.56 Q988.94 1457.8 986.996 1456.07 Q985.075 1454.33 981.973 1454.33 Q979.774 1454.33 977.32 1455.09 Q974.89 1455.86 972.112 1457.41 L972.112 1452.69 Q974.936 1451.55 977.39 1450.97 Q979.843 1450.39 981.88 1450.39 Q987.251 1450.39 990.445 1453.08 Q993.64 1455.77 993.64 1460.26 Q993.64 1462.39 992.829 1464.31 Q992.042 1466.2 989.936 1468.8 Q989.357 1469.47 986.255 1472.69 Q983.153 1475.88 977.505 1481.64 Z" fill="#000000" fill-rule="nonzero" fill-opacity="1" /><path clip-path="url(#clip220)" d="M1013.64 1454.1 Q1010.03 1454.1 1008.2 1457.66 Q1006.39 1461.2 1006.39 1468.33 Q1006.39 1475.44 1008.2 1479.01 Q1010.03 1482.55 1013.64 1482.55 Q1017.27 1482.55 1019.08 1479.01 Q1020.91 1475.44 1020.91 1468.33 Q1020.91 1461.2 1019.08 1457.66 Q1017.27 1454.1 1013.64 1454.1 M1013.64 1450.39 Q1019.45 1450.39 1022.51 1455 Q1025.58 1459.58 1025.58 1468.33 Q1025.58 1477.06 1022.51 1481.67 Q1019.45 1486.25 1013.64 1486.25 Q1007.83 1486.25 1004.75 1481.67 Q1001.7 1477.06 1001.7 1468.33 Q1001.7 1459.58 1004.75 1455 Q1007.83 1450.39 1013.64 1450.39 Z" fill="#000000" fill-rule="nonzero" fill-opacity="1" /><path clip-path="url(#clip220)" d="M1043.8 1454.1 Q1040.19 1454.1 1038.36 1457.66 Q1036.56 1461.2 1036.56 1468.33 Q1036.56 1475.44 1038.36 1479.01 Q1040.19 1482.55 1043.8 1482.55 Q1047.44 1482.55 1049.24 1479.01 Q1051.07 1475.44 1051.07 1468.33 Q1051.07 1461.2 1049.24 1457.66 Q1047.44 1454.1 1043.8 1454.1 M1043.8 1450.39 Q1049.61 1450.39 1052.67 1455 Q1055.75 1459.58 1055.75 1468.33 Q1055.75 1477.06 1052.67 1481.67 Q1049.61 1486.25 1043.8 1486.25 Q1037.99 1486.25 1034.91 1481.67 Q1031.86 1477.06 1031.86 1468.33 Q1031.86 1459.58 1034.91 1455 Q1037.99 1450.39 1043.8 1450.39 Z" fill="#000000" fill-rule="nonzero" fill-opacity="1" /><path clip-path="url(#clip220)" d="M1322.79 1466.95 Q1326.14 1467.66 1328.02 1469.93 Q1329.92 1472.2 1329.92 1475.53 Q1329.92 1480.65 1326.4 1483.45 Q1322.88 1486.25 1316.4 1486.25 Q1314.22 1486.25 1311.91 1485.81 Q1309.62 1485.39 1307.16 1484.54 L1307.16 1480.02 Q1309.11 1481.16 1311.42 1481.74 Q1313.74 1482.32 1316.26 1482.32 Q1320.66 1482.32 1322.95 1480.58 Q1325.26 1478.84 1325.26 1475.53 Q1325.26 1472.48 1323.11 1470.77 Q1320.98 1469.03 1317.16 1469.03 L1313.14 1469.03 L1313.14 1465.19 L1317.35 1465.19 Q1320.8 1465.19 1322.63 1463.82 Q1324.45 1462.43 1324.45 1459.84 Q1324.45 1457.18 1322.56 1455.77 Q1320.68 1454.33 1317.16 1454.33 Q1315.24 1454.33 1313.04 1454.75 Q1310.84 1455.16 1308.2 1456.04 L1308.2 1451.88 Q1310.87 1451.14 1313.18 1450.77 Q1315.52 1450.39 1317.58 1450.39 Q1322.9 1450.39 1326.01 1452.83 Q1329.11 1455.23 1329.11 1459.35 Q1329.11 1462.22 1327.46 1464.21 Q1325.82 1466.18 1322.79 1466.95 Z" fill="#000000" fill-rule="nonzero" fill-opacity="1" /><path clip-path="url(#clip220)" d="M1348.78 1454.1 Q1345.17 1454.1 1343.34 1457.66 Q1341.54 1461.2 1341.54 1468.33 Q1341.54 1475.44 1343.34 1479.01 Q1345.17 1482.55 1348.78 1482.55 Q1352.42 1482.55 1354.22 1479.01 Q1356.05 1475.44 1356.05 1468.33 Q1356.05 1461.2 1354.22 1457.66 Q1352.42 1454.1 1348.78 1454.1 M1348.78 1450.39 Q1354.59 1450.39 1357.65 1455 Q1360.73 1459.58 1360.73 1468.33 Q1360.73 1477.06 1357.65 1481.67 Q1354.59 1486.25 1348.78 1486.25 Q1342.97 1486.25 1339.89 1481.67 Q1336.84 1477.06 1336.84 1468.33 Q1336.84 1459.58 1339.89 1455 Q1342.97 1450.39 1348.78 1450.39 Z" fill="#000000" fill-rule="nonzero" fill-opacity="1" /><path clip-path="url(#clip220)" d="M1378.95 1454.1 Q1375.33 1454.1 1373.51 1457.66 Q1371.7 1461.2 1371.7 1468.33 Q1371.7 1475.44 1373.51 1479.01 Q1375.33 1482.55 1378.95 1482.55 Q1382.58 1482.55 1384.39 1479.01 Q1386.21 1475.44 1386.21 1468.33 Q1386.21 1461.2 1384.39 1457.66 Q1382.58 1454.1 1378.95 1454.1 M1378.95 1450.39 Q1384.76 1450.39 1387.81 1455 Q1390.89 1459.58 1390.89 1468.33 Q1390.89 1477.06 1387.81 1481.67 Q1384.76 1486.25 1378.95 1486.25 Q1373.14 1486.25 1370.06 1481.67 Q1367 1477.06 1367 1468.33 Q1367 1459.58 1370.06 1455 Q1373.14 1450.39 1378.95 1450.39 Z" fill="#000000" fill-rule="nonzero" fill-opacity="1" /><path clip-path="url(#clip220)" d="M1657.33 1455.09 L1645.52 1473.54 L1657.33 1473.54 L1657.33 1455.09 M1656.1 1451.02 L1661.98 1451.02 L1661.98 1473.54 L1666.91 1473.54 L1666.91 1477.43 L1661.98 1477.43 L1661.98 1485.58 L1657.33 1485.58 L1657.33 1477.43 L1641.73 1477.43 L1641.73 1472.92 L1656.1 1451.02 Z" fill="#000000" fill-rule="nonzero" fill-opacity="1" /><path clip-path="url(#clip220)" d="M1684.64 1454.1 Q1681.03 1454.1 1679.21 1457.66 Q1677.4 1461.2 1677.4 1468.33 Q1677.4 1475.44 1679.21 1479.01 Q1681.03 1482.55 1684.64 1482.55 Q1688.28 1482.55 1690.08 1479.01 Q1691.91 1475.44 1691.91 1468.33 Q1691.91 1461.2 1690.08 1457.66 Q1688.28 1454.1 1684.64 1454.1 M1684.64 1450.39 Q1690.46 1450.39 1693.51 1455 Q1696.59 1459.58 1696.59 1468.33 Q1696.59 1477.06 1693.51 1481.67 Q1690.46 1486.25 1684.64 1486.25 Q1678.83 1486.25 1675.76 1481.67 Q1672.7 1477.06 1672.7 1468.33 Q1672.7 1459.58 1675.76 1455 Q1678.83 1450.39 1684.64 1450.39 Z" fill="#000000" fill-rule="nonzero" fill-opacity="1" /><path clip-path="url(#clip220)" d="M1714.81 1454.1 Q1711.2 1454.1 1709.37 1457.66 Q1707.56 1461.2 1707.56 1468.33 Q1707.56 1475.44 1709.37 1479.01 Q1711.2 1482.55 1714.81 1482.55 Q1718.44 1482.55 1720.25 1479.01 Q1722.08 1475.44 1722.08 1468.33 Q1722.08 1461.2 1720.25 1457.66 Q1718.44 1454.1 1714.81 1454.1 M1714.81 1450.39 Q1720.62 1450.39 1723.67 1455 Q1726.75 1459.58 1726.75 1468.33 Q1726.75 1477.06 1723.67 1481.67 Q1720.62 1486.25 1714.81 1486.25 Q1709 1486.25 1705.92 1481.67 Q1702.86 1477.06 1702.86 1468.33 Q1702.86 1459.58 1705.92 1455 Q1709 1450.39 1714.81 1450.39 Z" fill="#000000" fill-rule="nonzero" fill-opacity="1" /><path clip-path="url(#clip220)" d="M1979.07 1451.02 L1997.43 1451.02 L1997.43 1454.96 L1983.35 1454.96 L1983.35 1463.43 Q1984.37 1463.08 1985.39 1462.92 Q1986.41 1462.73 1987.43 1462.73 Q1993.21 1462.73 1996.59 1465.9 Q1999.97 1469.08 1999.97 1474.49 Q1999.97 1480.07 1996.5 1483.17 Q1993.03 1486.25 1986.71 1486.25 Q1984.53 1486.25 1982.27 1485.88 Q1980.02 1485.51 1977.61 1484.77 L1977.61 1480.07 Q1979.7 1481.2 1981.92 1481.76 Q1984.14 1482.32 1986.62 1482.32 Q1990.62 1482.32 1992.96 1480.21 Q1995.3 1478.1 1995.3 1474.49 Q1995.3 1470.88 1992.96 1468.77 Q1990.62 1466.67 1986.62 1466.67 Q1984.74 1466.67 1982.87 1467.08 Q1981.02 1467.5 1979.07 1468.38 L1979.07 1451.02 Z" fill="#000000" fill-rule="nonzero" fill-opacity="1" /><path clip-path="url(#clip220)" d="M2019.19 1454.1 Q2015.58 1454.1 2013.75 1457.66 Q2011.94 1461.2 2011.94 1468.33 Q2011.94 1475.44 2013.75 1479.01 Q2015.58 1482.55 2019.19 1482.55 Q2022.82 1482.55 2024.63 1479.01 Q2026.46 1475.44 2026.46 1468.33 Q2026.46 1461.2 2024.63 1457.66 Q2022.82 1454.1 2019.19 1454.1 M2019.19 1450.39 Q2025 1450.39 2028.05 1455 Q2031.13 1459.58 2031.13 1468.33 Q2031.13 1477.06 2028.05 1481.67 Q2025 1486.25 2019.19 1486.25 Q2013.38 1486.25 2010.3 1481.67 Q2007.24 1477.06 2007.24 1468.33 Q2007.24 1459.58 2010.3 1455 Q2013.38 1450.39 2019.19 1450.39 Z" fill="#000000" fill-rule="nonzero" fill-opacity="1" /><path clip-path="url(#clip220)" d="M2049.35 1454.1 Q2045.74 1454.1 2043.91 1457.66 Q2042.1 1461.2 2042.1 1468.33 Q2042.1 1475.44 2043.91 1479.01 Q2045.74 1482.55 2049.35 1482.55 Q2052.98 1482.55 2054.79 1479.01 Q2056.62 1475.44 2056.62 1468.33 Q2056.62 1461.2 2054.79 1457.66 Q2052.98 1454.1 2049.35 1454.1 M2049.35 1450.39 Q2055.16 1450.39 2058.21 1455 Q2061.29 1459.58 2061.29 1468.33 Q2061.29 1477.06 2058.21 1481.67 Q2055.16 1486.25 2049.35 1486.25 Q2043.54 1486.25 2040.46 1481.67 Q2037.4 1477.06 2037.4 1468.33 Q2037.4 1459.58 2040.46 1455 Q2043.54 1450.39 2049.35 1450.39 Z" fill="#000000" fill-rule="nonzero" fill-opacity="1" /><path clip-path="url(#clip220)" d="M1304.71 1518.52 L1310.6 1518.52 L1310.6 1547.77 L1328.08 1532.4 L1335.56 1532.4 L1316.65 1549.07 L1336.35 1568.04 L1328.71 1568.04 L1310.6 1550.63 L1310.6 1568.04 L1304.71 1568.04 L1304.71 1518.52 Z" fill="#000000" fill-rule="nonzero" fill-opacity="1" /><polyline clip-path="url(#clip222)" style="stroke:#000000; stroke-linecap:round; stroke-linejoin:round; stroke-width:2; stroke-opacity:0.1; fill:none" points="288.311,1035.36 2352.76,1035.36 "/>
<polyline clip-path="url(#clip222)" style="stroke:#000000; stroke-linecap:round; stroke-linejoin:round; stroke-width:2; stroke-opacity:0.1; fill:none" points="288.311,565.31 2352.76,565.31 "/>
<polyline clip-path="url(#clip220)" style="stroke:#000000; stroke-linecap:round; stroke-linejoin:round; stroke-width:4; stroke-opacity:1; fill:none" points="288.311,1423.18 288.311,123.472 "/>
<polyline clip-path="url(#clip220)" style="stroke:#000000; stroke-linecap:round; stroke-linejoin:round; stroke-width:4; stroke-opacity:1; fill:none" points="288.311,1035.36 307.208,1035.36 "/>
<polyline clip-path="url(#clip220)" style="stroke:#000000; stroke-linecap:round; stroke-linejoin:round; stroke-width:4; stroke-opacity:1; fill:none" points="288.311,565.31 307.208,565.31 "/>
<path clip-path="url(#clip220)" d="M114.931 1055.15 L122.57 1055.15 L122.57 1028.79 L114.26 1030.46 L114.26 1026.2 L122.524 1024.53 L127.2 1024.53 L127.2 1055.15 L134.839 1055.15 L134.839 1059.09 L114.931 1059.09 L114.931 1055.15 Z" fill="#000000" fill-rule="nonzero" fill-opacity="1" /><path clip-path="url(#clip220)" d="M154.283 1027.61 Q150.672 1027.61 148.843 1031.17 Q147.038 1034.71 147.038 1041.84 Q147.038 1048.95 148.843 1052.52 Q150.672 1056.06 154.283 1056.06 Q157.917 1056.06 159.723 1052.52 Q161.552 1048.95 161.552 1041.84 Q161.552 1034.71 159.723 1031.17 Q157.917 1027.61 154.283 1027.61 M154.283 1023.9 Q160.093 1023.9 163.149 1028.51 Q166.227 1033.09 166.227 1041.84 Q166.227 1050.57 163.149 1055.18 Q160.093 1059.76 154.283 1059.76 Q148.473 1059.76 145.394 1055.18 Q142.339 1050.57 142.339 1041.84 Q142.339 1033.09 145.394 1028.51 Q148.473 1023.9 154.283 1023.9 Z" fill="#000000" fill-rule="nonzero" fill-opacity="1" /><path clip-path="url(#clip220)" d="M166.227 1018.01 L190.339 1018.01 L190.339 1021.2 L166.227 1021.2 L166.227 1018.01 Z" fill="#000000" fill-rule="nonzero" fill-opacity="1" /><path clip-path="url(#clip220)" d="M201.812 1028.48 L215.071 1028.48 L215.071 1031.68 L197.241 1031.68 L197.241 1028.48 Q199.404 1026.24 203.128 1022.48 Q206.871 1018.7 207.83 1017.61 Q209.655 1015.56 210.369 1014.15 Q211.103 1012.72 211.103 1011.35 Q211.103 1009.11 209.523 1007.7 Q207.962 1006.29 205.442 1006.29 Q203.655 1006.29 201.661 1006.91 Q199.686 1007.53 197.43 1008.79 L197.43 1004.95 Q199.724 1004.03 201.718 1003.56 Q203.711 1003.09 205.366 1003.09 Q209.73 1003.09 212.325 1005.27 Q214.921 1007.45 214.921 1011.1 Q214.921 1012.83 214.263 1014.39 Q213.623 1015.94 211.912 1018.04 Q211.441 1018.59 208.921 1021.2 Q206.401 1023.8 201.812 1028.48 Z" fill="#000000" fill-rule="nonzero" fill-opacity="1" /><path clip-path="url(#clip220)" d="M223.046 1026.9 L227.014 1026.9 L227.014 1031.68 L223.046 1031.68 L223.046 1026.9 Z" fill="#000000" fill-rule="nonzero" fill-opacity="1" /><path clip-path="url(#clip220)" d="M235.327 1003.6 L250.242 1003.6 L250.242 1006.8 L238.807 1006.8 L238.807 1013.68 Q239.634 1013.4 240.462 1013.27 Q241.289 1013.12 242.117 1013.12 Q246.819 1013.12 249.565 1015.69 Q252.311 1018.27 252.311 1022.67 Q252.311 1027.2 249.489 1029.72 Q246.668 1032.22 241.534 1032.22 Q239.766 1032.22 237.923 1031.92 Q236.098 1031.62 234.142 1031.02 L234.142 1027.2 Q235.835 1028.12 237.641 1028.58 Q239.446 1029.03 241.459 1029.03 Q244.712 1029.03 246.612 1027.32 Q248.511 1025.6 248.511 1022.67 Q248.511 1019.74 246.612 1018.02 Q244.712 1016.31 241.459 1016.31 Q239.935 1016.31 238.412 1016.65 Q236.907 1016.99 235.327 1017.7 L235.327 1003.6 Z" fill="#000000" fill-rule="nonzero" fill-opacity="1" /><path clip-path="url(#clip220)" d="M144.855 585.103 L152.493 585.103 L152.493 558.737 L144.183 560.404 L144.183 556.144 L152.447 554.478 L157.123 554.478 L157.123 585.103 L164.762 585.103 L164.762 589.038 L144.855 589.038 L144.855 585.103 Z" fill="#000000" fill-rule="nonzero" fill-opacity="1" /><path clip-path="url(#clip220)" d="M184.206 557.556 Q180.595 557.556 178.766 561.121 Q176.961 564.663 176.961 571.793 Q176.961 578.899 178.766 582.464 Q180.595 586.005 184.206 586.005 Q187.84 586.005 189.646 582.464 Q191.475 578.899 191.475 571.793 Q191.475 564.663 189.646 561.121 Q187.84 557.556 184.206 557.556 M184.206 553.853 Q190.016 553.853 193.072 558.459 Q196.151 563.043 196.151 571.793 Q196.151 580.519 193.072 585.126 Q190.016 589.709 184.206 589.709 Q178.396 589.709 175.317 585.126 Q172.262 580.519 172.262 571.793 Q172.262 563.043 175.317 558.459 Q178.396 553.853 184.206 553.853 Z" fill="#000000" fill-rule="nonzero" fill-opacity="1" /><path clip-path="url(#clip220)" d="M205.855 536.049 Q202.921 536.049 201.436 538.945 Q199.969 541.823 199.969 547.616 Q199.969 553.39 201.436 556.286 Q202.921 559.164 205.855 559.164 Q208.808 559.164 210.275 556.286 Q211.761 553.39 211.761 547.616 Q211.761 541.823 210.275 538.945 Q208.808 536.049 205.855 536.049 M205.855 533.04 Q210.576 533.04 213.059 536.782 Q215.56 540.506 215.56 547.616 Q215.56 554.706 213.059 558.449 Q210.576 562.173 205.855 562.173 Q201.135 562.173 198.633 558.449 Q196.151 554.706 196.151 547.616 Q196.151 540.506 198.633 536.782 Q201.135 533.04 205.855 533.04 Z" fill="#000000" fill-rule="nonzero" fill-opacity="1" /><path clip-path="url(#clip220)" d="M222.237 556.85 L226.205 556.85 L226.205 561.627 L222.237 561.627 L222.237 556.85 Z" fill="#000000" fill-rule="nonzero" fill-opacity="1" /><path clip-path="url(#clip220)" d="M242.606 536.049 Q239.672 536.049 238.186 538.945 Q236.719 541.823 236.719 547.616 Q236.719 553.39 238.186 556.286 Q239.672 559.164 242.606 559.164 Q245.559 559.164 247.026 556.286 Q248.511 553.39 248.511 547.616 Q248.511 541.823 247.026 538.945 Q245.559 536.049 242.606 536.049 M242.606 533.04 Q247.327 533.04 249.809 536.782 Q252.311 540.506 252.311 547.616 Q252.311 554.706 249.809 558.449 Q247.327 562.173 242.606 562.173 Q237.885 562.173 235.384 558.449 Q232.901 554.706 232.901 547.616 Q232.901 540.506 235.384 536.782 Q237.885 533.04 242.606 533.04 Z" fill="#000000" fill-rule="nonzero" fill-opacity="1" /><path clip-path="url(#clip220)" d="M32.4621 801.797 Q32.4621 806.507 36.1542 809.244 Q39.8145 811.982 46.212 811.982 Q52.6095 811.982 56.3017 809.276 Q59.9619 806.539 59.9619 801.797 Q59.9619 797.118 56.2698 794.381 Q52.5777 791.643 46.212 791.643 Q39.8781 791.643 36.186 794.381 Q32.4621 797.118 32.4621 801.797 M27.4968 801.797 Q27.4968 794.158 32.4621 789.797 Q37.4273 785.437 46.212 785.437 Q54.9649 785.437 59.9619 789.797 Q64.9272 794.158 64.9272 801.797 Q64.9272 809.467 59.9619 813.828 Q54.9649 818.156 46.212 818.156 Q37.4273 818.156 32.4621 813.828 Q27.4968 809.467 27.4968 801.797 Z" fill="#000000" fill-rule="nonzero" fill-opacity="1" /><path clip-path="url(#clip220)" d="M46.212 750.139 Q39.7508 750.139 36.0905 752.812 Q32.3984 755.454 32.3984 760.101 Q32.3984 764.748 36.0905 767.422 Q39.7508 770.064 46.212 770.064 Q52.6732 770.064 56.3653 767.422 Q60.0256 764.748 60.0256 760.101 Q60.0256 755.454 56.3653 752.812 Q52.6732 750.139 46.212 750.139 M33.7671 770.064 Q30.5842 768.218 29.0564 765.417 Q27.4968 762.584 27.4968 758.669 Q27.4968 752.176 32.6531 748.134 Q37.8093 744.06 46.212 744.06 Q54.6147 744.06 59.771 748.134 Q64.9272 752.176 64.9272 758.669 Q64.9272 762.584 63.3994 765.417 Q61.8398 768.218 58.657 770.064 L64.0042 770.064 L64.0042 775.952 L14.479 775.952 L14.479 770.064 L33.7671 770.064 Z" fill="#000000" fill-rule="nonzero" fill-opacity="1" /><path clip-path="url(#clip220)" d="M28.3562 734.352 L28.3562 728.495 L64.6407 728.495 Q71.452 728.495 74.5076 731.105 Q77.5631 733.684 77.5631 739.445 L77.5631 741.673 L72.5979 741.673 L72.5979 740.113 Q72.5979 736.771 71.0383 735.561 Q69.5105 734.352 64.6407 734.352 L28.3562 734.352 M14.479 734.352 L14.479 728.495 L21.895 728.495 L21.895 734.352 L14.479 734.352 Z" fill="#000000" fill-rule="nonzero" fill-opacity="1" /><path clip-path="url(#clip220)" d="M976.065 65.7705 L976.065 89.8329 L968.57 89.8329 L968.57 27.2059 L976.065 27.2059 L976.065 34.0924 Q978.414 30.0415 981.979 28.0971 Q985.584 26.1121 990.567 26.1121 Q998.831 26.1121 1003.98 32.6746 Q1009.16 39.2371 1009.16 49.9314 Q1009.16 60.6258 1003.98 67.1883 Q998.831 73.7508 990.567 73.7508 Q985.584 73.7508 981.979 71.8063 Q978.414 69.8214 976.065 65.7705 M1001.42 49.9314 Q1001.42 41.7081 998.021 37.0496 Q994.658 32.3505 988.744 32.3505 Q982.83 32.3505 979.427 37.0496 Q976.065 41.7081 976.065 49.9314 Q976.065 58.1548 979.427 62.8538 Q982.83 67.5124 988.744 67.5124 Q994.658 67.5124 998.021 62.8538 Q1001.42 58.1548 1001.42 49.9314 Z" fill="#000000" fill-rule="nonzero" fill-opacity="1" /><path clip-path="url(#clip220)" d="M1047.81 34.1734 Q1046.55 33.4443 1045.05 33.1202 Q1043.59 32.7556 1041.81 32.7556 Q1035.49 32.7556 1032.09 36.8875 Q1028.73 40.9789 1028.73 48.6757 L1028.73 72.576 L1021.23 72.576 L1021.23 27.2059 L1028.73 27.2059 L1028.73 34.2544 Q1031.08 30.1225 1034.84 28.1376 Q1038.61 26.1121 1044 26.1121 Q1044.77 26.1121 1045.7 26.2337 Q1046.63 26.3147 1047.77 26.5172 L1047.81 34.1734 Z" fill="#000000" fill-rule="nonzero" fill-opacity="1" /><path clip-path="url(#clip220)" d="M1071.38 32.4315 Q1065.39 32.4315 1061.9 37.1306 Q1058.42 41.7891 1058.42 49.9314 Q1058.42 58.0738 1061.86 62.7728 Q1065.35 67.4314 1071.38 67.4314 Q1077.34 67.4314 1080.82 62.7323 Q1084.3 58.0333 1084.3 49.9314 Q1084.3 41.8701 1080.82 37.1711 Q1077.34 32.4315 1071.38 32.4315 M1071.38 26.1121 Q1081.1 26.1121 1086.65 32.4315 Q1092.2 38.7509 1092.2 49.9314 Q1092.2 61.0714 1086.65 67.4314 Q1081.1 73.7508 1071.38 73.7508 Q1061.62 73.7508 1056.07 67.4314 Q1050.56 61.0714 1050.56 49.9314 Q1050.56 38.7509 1056.07 32.4315 Q1061.62 26.1121 1071.38 26.1121 Z" fill="#000000" fill-rule="nonzero" fill-opacity="1" /><path clip-path="url(#clip220)" d="M1137.13 49.9314 Q1137.13 41.7081 1133.73 37.0496 Q1130.36 32.3505 1124.45 32.3505 Q1118.53 32.3505 1115.13 37.0496 Q1111.77 41.7081 1111.77 49.9314 Q1111.77 58.1548 1115.13 62.8538 Q1118.53 67.5124 1124.45 67.5124 Q1130.36 67.5124 1133.73 62.8538 Q1137.13 58.1548 1137.13 49.9314 M1111.77 34.0924 Q1114.12 30.0415 1117.68 28.0971 Q1121.29 26.1121 1126.27 26.1121 Q1134.54 26.1121 1139.68 32.6746 Q1144.87 39.2371 1144.87 49.9314 Q1144.87 60.6258 1139.68 67.1883 Q1134.54 73.7508 1126.27 73.7508 Q1121.29 73.7508 1117.68 71.8063 Q1114.12 69.8214 1111.77 65.7705 L1111.77 72.576 L1104.28 72.576 L1104.28 9.54393 L1111.77 9.54393 L1111.77 34.0924 Z" fill="#000000" fill-rule="nonzero" fill-opacity="1" /><path clip-path="url(#clip220)" d="M1157.22 9.54393 L1164.67 9.54393 L1164.67 72.576 L1157.22 72.576 L1157.22 9.54393 Z" fill="#000000" fill-rule="nonzero" fill-opacity="1" /><path clip-path="url(#clip220)" d="M1219.08 48.0275 L1219.08 51.6733 L1184.81 51.6733 Q1185.29 59.3701 1189.43 63.421 Q1193.6 67.4314 1201.01 67.4314 Q1205.31 67.4314 1209.32 66.3781 Q1213.37 65.3249 1217.34 63.2184 L1217.34 70.267 Q1213.33 71.9684 1209.11 72.8596 Q1204.9 73.7508 1200.57 73.7508 Q1189.71 73.7508 1183.35 67.4314 Q1177.03 61.1119 1177.03 50.3365 Q1177.03 39.1965 1183.03 32.6746 Q1189.06 26.1121 1199.27 26.1121 Q1208.42 26.1121 1213.73 32.0264 Q1219.08 37.9003 1219.08 48.0275 M1211.62 45.84 Q1211.54 39.7232 1208.18 36.0774 Q1204.86 32.4315 1199.35 32.4315 Q1193.11 32.4315 1189.34 35.9558 Q1185.62 39.4801 1185.05 45.8805 L1211.62 45.84 M1192.95 6.22219 L1204.37 21.3726 L1198.18 21.3726 L1184.97 6.22219 L1192.95 6.22219 Z" fill="#000000" fill-rule="nonzero" fill-opacity="1" /><path clip-path="url(#clip220)" d="M1266.64 35.9153 Q1269.43 30.8922 1273.32 28.5022 Q1277.21 26.1121 1282.48 26.1121 Q1289.56 26.1121 1293.41 31.0947 Q1297.26 36.0368 1297.26 45.1919 L1297.26 72.576 L1289.77 72.576 L1289.77 45.4349 Q1289.77 38.913 1287.46 35.7533 Q1285.15 32.5936 1280.41 32.5936 Q1274.62 32.5936 1271.25 36.4419 Q1267.89 40.2903 1267.89 46.9338 L1267.89 72.576 L1260.4 72.576 L1260.4 45.4349 Q1260.4 38.8725 1258.09 35.7533 Q1255.78 32.5936 1250.96 32.5936 Q1245.25 32.5936 1241.88 36.4824 Q1238.52 40.3308 1238.52 46.9338 L1238.52 72.576 L1231.03 72.576 L1231.03 27.2059 L1238.52 27.2059 L1238.52 34.2544 Q1241.07 30.082 1244.64 28.0971 Q1248.2 26.1121 1253.11 26.1121 Q1258.05 26.1121 1261.49 28.6237 Q1264.98 31.1352 1266.64 35.9153 Z" fill="#000000" fill-rule="nonzero" fill-opacity="1" /><path clip-path="url(#clip220)" d="M1350.94 48.0275 L1350.94 51.6733 L1316.66 51.6733 Q1317.15 59.3701 1321.28 63.421 Q1325.46 67.4314 1332.87 67.4314 Q1337.16 67.4314 1341.17 66.3781 Q1345.22 65.3249 1349.19 63.2184 L1349.19 70.267 Q1345.18 71.9684 1340.97 72.8596 Q1336.76 73.7508 1332.42 73.7508 Q1321.57 73.7508 1315.21 67.4314 Q1308.89 61.1119 1308.89 50.3365 Q1308.89 39.1965 1314.88 32.6746 Q1320.92 26.1121 1331.13 26.1121 Q1340.28 26.1121 1345.59 32.0264 Q1350.94 37.9003 1350.94 48.0275 M1343.48 45.84 Q1343.4 39.7232 1340.04 36.0774 Q1336.72 32.4315 1331.21 32.4315 Q1324.97 32.4315 1321.2 35.9558 Q1317.47 39.4801 1316.91 45.8805 L1343.48 45.84 Z" fill="#000000" fill-rule="nonzero" fill-opacity="1" /><path clip-path="url(#clip220)" d="M1391.44 62.2867 L1399.99 62.2867 L1399.99 72.576 L1391.44 72.576 L1391.44 62.2867 M1391.44 29.6769 L1399.99 29.6769 L1399.99 39.9662 L1391.44 39.9662 L1391.44 29.6769 Z" fill="#000000" fill-rule="nonzero" fill-opacity="1" /><path clip-path="url(#clip220)" d="M1451.24 14.324 L1451.24 27.2059 L1466.59 27.2059 L1466.59 32.9987 L1451.24 32.9987 L1451.24 57.6282 Q1451.24 63.1779 1452.73 64.7578 Q1454.27 66.3376 1458.93 66.3376 L1466.59 66.3376 L1466.59 72.576 L1458.93 72.576 Q1450.3 72.576 1447.02 69.3758 Q1443.74 66.1351 1443.74 57.6282 L1443.74 32.9987 L1438.27 32.9987 L1438.27 27.2059 L1443.74 27.2059 L1443.74 14.324 L1451.24 14.324 Z" fill="#000000" fill-rule="nonzero" fill-opacity="1" /><path clip-path="url(#clip220)" d="M1483.6 65.7705 L1483.6 89.8329 L1476.11 89.8329 L1476.11 27.2059 L1483.6 27.2059 L1483.6 34.0924 Q1485.95 30.0415 1489.52 28.0971 Q1493.12 26.1121 1498.1 26.1121 Q1506.37 26.1121 1511.51 32.6746 Q1516.7 39.2371 1516.7 49.9314 Q1516.7 60.6258 1511.51 67.1883 Q1506.37 73.7508 1498.1 73.7508 Q1493.12 73.7508 1489.52 71.8063 Q1485.95 69.8214 1483.6 65.7705 M1508.96 49.9314 Q1508.96 41.7081 1505.56 37.0496 Q1502.2 32.3505 1496.28 32.3505 Q1490.37 32.3505 1486.96 37.0496 Q1483.6 41.7081 1483.6 49.9314 Q1483.6 58.1548 1486.96 62.8538 Q1490.37 67.5124 1496.28 67.5124 Q1502.2 67.5124 1505.56 62.8538 Q1508.96 58.1548 1508.96 49.9314 Z" fill="#000000" fill-rule="nonzero" fill-opacity="1" /><path clip-path="url(#clip220)" d="M1537.16 65.6895 L1565.71 65.6895 L1565.71 72.576 L1527.31 72.576 L1527.31 65.6895 Q1531.97 60.8689 1539.99 52.7671 Q1548.05 44.6248 1550.12 42.2752 Q1554.05 37.8598 1555.59 34.8216 Q1557.17 31.7429 1557.17 28.7857 Q1557.17 23.9651 1553.76 20.927 Q1550.4 17.8888 1544.97 17.8888 Q1541.13 17.8888 1536.83 19.2256 Q1532.58 20.5624 1527.72 23.2765 L1527.72 15.0127 Q1532.66 13.0277 1536.95 12.015 Q1541.25 11.0023 1544.81 11.0023 Q1554.21 11.0023 1559.8 15.7013 Q1565.39 20.4004 1565.39 28.2591 Q1565.39 31.9859 1563.97 35.3482 Q1562.6 38.6699 1558.91 43.2069 Q1557.9 44.3817 1552.47 50.0125 Q1547.04 55.6027 1537.16 65.6895 Z" fill="#000000" fill-rule="nonzero" fill-opacity="1" /><path clip-path="url(#clip220)" d="M1583.13 71.3202 L1583.13 63.8666 Q1586.21 65.3249 1589.37 66.0946 Q1592.53 66.8642 1595.57 66.8642 Q1603.67 66.8642 1607.92 61.436 Q1612.22 55.9673 1612.83 44.8678 Q1610.48 48.3516 1606.87 50.215 Q1603.27 52.0784 1598.89 52.0784 Q1589.82 52.0784 1584.51 46.6097 Q1579.24 41.1005 1579.24 31.5808 Q1579.24 22.2638 1584.75 16.633 Q1590.26 11.0023 1599.42 11.0023 Q1609.91 11.0023 1615.42 19.0636 Q1620.97 27.0843 1620.97 42.3968 Q1620.97 56.6965 1614.16 65.2439 Q1607.4 73.7508 1595.93 73.7508 Q1592.86 73.7508 1589.7 73.1431 Q1586.54 72.5355 1583.13 71.3202 M1599.42 45.678 Q1604.93 45.678 1608.13 41.9107 Q1611.37 38.1433 1611.37 31.5808 Q1611.37 25.0589 1608.13 21.2916 Q1604.93 17.4837 1599.42 17.4837 Q1593.91 17.4837 1590.67 21.2916 Q1587.47 25.0589 1587.47 31.5808 Q1587.47 38.1433 1590.67 41.9107 Q1593.91 45.678 1599.42 45.678 Z" fill="#000000" fill-rule="nonzero" fill-opacity="1" /><path clip-path="url(#clip220)" d="M1633.61 12.096 L1672.5 12.096 L1672.5 15.5798 L1650.54 72.576 L1641.99 72.576 L1662.65 18.9825 L1633.61 18.9825 L1633.61 12.096 Z" fill="#000000" fill-rule="nonzero" fill-opacity="1" /><polyline clip-path="url(#clip222)" style="stroke:#009af9; stroke-linecap:round; stroke-linejoin:round; stroke-width:4; stroke-opacity:1; fill:none" points="346.738,160.256 350.09,276.212 353.443,356.66 356.795,401.871 360.147,425.428 363.499,427.433 366.851,427.641 370.203,427.786 373.555,427.786 376.908,427.786 380.26,427.786 383.612,427.786 386.964,427.786 390.316,427.786 393.668,427.786 397.02,427.984 400.372,428.738 403.725,428.738 407.077,429.186 410.429,429.813 413.781,430.653 417.133,431.495 420.485,432.574 423.837,433.547 427.19,434.735 430.542,435.754 433.894,437.121 437.246,438.245 440.598,439.563 443.95,440.845 447.302,442.264 450.654,443.67 454.007,445.051 457.359,446.671 460.711,448.178 464.063,449.8 467.415,451.53 470.767,453.306 474.119,455.093 477.472,457.132 480.824,459.099 484.176,461.245 487.528,463.527 490.88,465.933 494.232,468.556 497.584,471.05 500.936,474.261 504.289,477.202 507.641,480.638 510.993,484.34 514.345,488.473 517.697,493.129 521.049,498.11 524.401,504.227 527.754,511.019 531.106,518.857 534.458,529.779 537.81,542.849 541.162,560.105 544.514,581.101 547.866,601.951 551.219,624.362 554.571,653.082 557.923,677.38 561.275,709.75 564.627,757.02 567.979,804.172 571.331,886.888 574.683,948.417 578.036,1044.43 581.388,1095.52 584.74,1189.66 588.092,1241.04 591.444,1334.87 594.796,1386.4 "/>
<polyline clip-path="url(#clip222)" style="stroke:#e26f46; stroke-linecap:round; stroke-linejoin:round; stroke-width:4; stroke-opacity:1; fill:none" points="346.738,160.256 350.09,276.212 353.443,356.637 356.795,401.764 360.147,425.412 363.499,427.431 366.851,427.638 370.203,427.773 373.555,427.773 376.908,427.773 380.26,427.773 383.612,427.773 386.964,427.773 390.316,427.773 393.668,427.773 397.02,427.986 400.372,428.716 403.725,428.716 407.077,429.186 410.429,429.82 413.781,430.572 417.133,431.513 420.485,432.365 423.837,433.572 427.19,434.463 430.542,435.818 433.894,436.782 437.246,438.207 440.598,439.314 443.95,440.722 447.302,441.962 450.654,443.42 454.007,444.724 457.359,446.321 460.711,447.697 464.063,449.44 467.415,450.878 470.767,452.826 474.119,454.334 477.472,456.514 480.824,458.248 484.176,460.542 487.528,462.495 490.88,465.036 494.232,467.188 497.584,470.082 500.936,472.526 504.289,475.846 507.641,478.579 510.993,482.57 514.345,485.897 517.697,490.625 521.049,494.794 524.401,500.803 527.754,506.137 531.106,514.405 534.458,522.656 537.81,534.339 541.162,547.73 544.514,562.777 547.866,578.761 551.219,598.06 554.571,618.707 557.923,639.913 561.275,662.204 564.627,685.516 567.979,709.234 571.331,733.332 574.683,757.9 578.036,783.18 581.388,802.886 584.74,823.326 588.092,844.814 591.444,867.393 594.796,886.148 598.148,905.911 601.501,926.775 604.853,948.792 608.205,967.416 611.557,987.095 614.909,1007.9 618.261,1029.89 621.613,1048.61 624.965,1068.41 628.318,1088.37 631.67,1109.47 635.022,1127.57 638.374,1146.72 641.726,1167 645.078,1188.44 648.43,1206.76 651.783,1226.13 655.135,1246.64 658.487,1268.34 661.839,1286.88 665.191,1306.49 668.543,1327.25 "/>
<polyline clip-path="url(#clip222)" style="stroke:#3da44d; stroke-linecap:round; stroke-linejoin:round; stroke-width:4; stroke-opacity:1; fill:none" points="346.738,160.256 350.09,276.212 353.443,346.648 356.795,412.36 360.147,427.782 363.499,428.298 366.851,428.683 370.203,428.683 373.555,428.683 376.908,428.683 380.26,428.683 383.612,428.683 386.964,428.683 390.316,428.683 393.668,428.77 397.02,429.915 400.372,430.215 403.725,430.51 407.077,430.812 410.429,431.118 413.781,431.429 417.133,431.743 420.485,432.06 423.837,432.38 427.19,432.703 430.542,433.029 433.894,433.357 437.246,433.689 440.598,434.023 443.95,434.359 447.302,434.699 450.654,435.042 454.007,435.387 457.359,435.736 460.711,436.087 464.063,436.442 467.415,436.799 470.767,437.16 474.119,437.524 477.472,437.891 480.824,438.262 484.176,438.636 487.528,439.013 490.88,439.394 494.232,439.779 497.584,440.167 500.936,440.559 504.289,440.955 507.641,441.354 510.993,441.758 514.345,442.166 517.697,442.577 521.049,442.993 524.401,443.413 527.754,443.838 531.106,444.267 534.458,444.701 537.81,445.139 541.162,445.582 544.514,446.03 547.866,446.483 551.219,446.94 554.571,447.404 557.923,447.872 561.275,448.346 564.627,448.825 567.979,449.31 571.331,449.801 574.683,450.298 578.036,450.801 581.388,451.311 584.74,451.826 588.092,452.349 591.444,452.878 594.796,453.414 598.148,453.957 601.501,454.508 604.853,455.066 608.205,455.631 611.557,456.205 614.909,456.787 618.261,457.377 621.613,457.976 624.965,458.584 628.318,459.201 631.67,459.828 635.022,460.464 638.374,461.111 641.726,461.767 645.078,462.435 648.43,463.113 651.783,463.804 655.135,464.506 658.487,465.22 661.839,465.947 665.191,466.687 668.543,467.441 671.895,468.209 675.247,468.991 678.6,469.789 681.952,470.603 685.304,471.434 688.656,472.282 692.008,473.147 695.36,474.032 698.712,474.936 702.065,475.86 705.417,476.806 708.769,477.775 712.121,478.766 715.473,479.783 718.825,480.826 722.177,481.895 725.529,482.994 728.882,484.123 732.234,485.284 735.586,486.479 738.938,487.711 742.29,488.98 745.642,490.29 748.994,491.644 752.347,493.044 755.699,494.494 759.051,495.997 762.403,497.558 765.755,499.18 769.107,500.87 772.459,502.633 775.811,504.475 779.164,506.405 782.516,508.43 785.868,510.561 789.22,512.809 792.572,515.188 795.924,517.714 799.276,520.406 802.629,523.287 805.981,526.382 809.333,529.722 812.685,533.337 816.037,537.255 819.389,541.488 822.741,546.029 826.093,550.842 829.446,555.863 832.798,561.011 836.15,566.197 839.502,571.342 842.854,576.381 846.206,581.272 849.558,585.991 852.911,590.528 856.263,594.885 859.615,599.068 862.967,603.087 866.319,606.954 869.671,610.682 873.023,614.28 876.376,617.76 879.728,621.132 883.08,624.405 886.432,627.586 889.784,630.684 893.136,633.704 896.488,636.653 899.84,639.535 903.193,642.356 906.545,645.119 909.897,647.83 913.249,650.49 916.601,653.105 919.953,655.675 923.305,658.205 926.658,660.696 930.01,663.151 933.362,665.571 936.714,667.96 940.066,670.317 943.418,672.646 946.77,674.947 950.122,677.223 953.475,679.473 956.827,681.7 960.179,683.904 963.531,686.087 966.883,688.249 970.235,690.392 973.587,692.516 976.94,694.623 980.292,696.712 983.644,698.784 986.996,700.841 990.348,702.883 993.7,704.91 997.052,706.923 1000.4,708.923 1003.76,710.91 1007.11,712.885 1010.46,714.847 1013.81,716.798 1017.17,718.738 1020.52,720.667 1023.87,722.585 1027.22,724.494 1030.57,726.393 1033.93,728.283 1037.28,730.163 1040.63,732.035 1043.98,733.898 1047.33,735.753 1050.69,737.6 1054.04,739.44 1057.39,741.271 1060.74,743.096 1064.1,744.914 1067.45,746.725 1070.8,748.529 1074.15,750.327 1077.5,752.119 1080.86,753.904 1084.21,755.684 1087.56,757.458 1090.91,759.226 1094.26,760.99 1097.62,762.748 1100.97,764.5 1104.32,766.248 1107.67,767.991 1111.02,769.73 1114.38,771.463 1117.73,773.193 1121.08,774.918 1124.43,776.638 1127.79,778.355 1131.14,780.068 1134.49,781.777 1137.84,783.482 1141.19,785.183 1144.55,786.881 1147.9,788.575 1151.25,790.266 1154.6,791.953 1157.95,793.637 1161.31,795.318 1164.66,796.996 1168.01,798.671 1171.36,800.343 1174.72,802.012 1178.07,803.678 1181.42,805.342 1184.77,807.003 1188.12,808.661 1191.48,810.316 1194.83,811.969 1198.18,813.62 1201.53,815.268 1204.88,816.914 1208.24,818.558 1211.59,820.2 1214.94,821.839 1218.29,823.476 1221.65,825.111 1225,826.744 1228.35,828.375 1231.7,830.004 1235.05,831.632 1238.41,833.257 1241.76,834.881 1245.11,836.503 1248.46,838.123 1251.81,839.741 1255.17,841.358 1258.52,842.973 1261.87,844.586 1265.22,846.198 1268.58,847.809 1271.93,849.418 1275.28,851.025 1278.63,852.631 1281.98,854.236 1285.34,855.839 1288.69,857.441 1292.04,859.042 1295.39,860.642 1298.74,862.24 1302.1,863.837 1305.45,865.432 1308.8,867.027 1312.15,868.62 1315.51,870.213 1318.86,871.804 1322.21,873.394 1325.56,874.983 1328.91,876.571 1332.27,878.158 1335.62,879.744 1338.97,881.329 1342.32,882.913 1345.67,884.497 1349.03,886.079 1352.38,887.66 1355.73,889.241 1359.08,890.82 1362.43,892.399 1365.79,893.977 1369.14,895.554 1372.49,897.131 1375.84,898.706 1379.2,900.281 1382.55,901.855 1385.9,903.428 1389.25,905.001 1392.6,906.573 1395.96,908.144 1399.31,909.715 1402.66,911.285 1406.01,912.854 1409.36,914.423 1412.72,915.991 1416.07,917.558 1419.42,919.125 1422.77,920.691 1426.13,922.257 1429.48,923.822 1432.83,925.387 1436.18,926.951 1439.53,928.514 1442.89,930.077 1446.24,931.639 1449.59,933.201 1452.94,934.763 1456.29,936.324 1459.65,937.884 1463,939.444 1466.35,941.004 1469.7,942.563 1473.06,944.122 1476.41,945.68 1479.76,947.238 1483.11,948.796 1486.46,950.353 1489.82,951.909 1493.17,953.466 1496.52,955.022 1499.87,956.577 1503.22,958.132 1506.58,959.687 1509.93,961.242 1513.28,962.796 1516.63,964.35 1519.99,965.903 1523.34,967.456 1526.69,969.009 1530.04,970.562 1533.39,972.114 1536.75,973.666 1540.1,975.218 1543.45,976.769 1546.8,978.32 1550.15,979.871 1553.51,981.421 1556.86,982.972 1560.21,984.522 1563.56,986.071 1566.92,987.621 1570.27,989.17 1573.62,990.719 1576.97,992.268 1580.32,993.816 1583.68,995.365 1587.03,996.913 1590.38,998.46 1593.73,1000.01 1597.08,1001.56 1600.44,1003.1 1603.79,1004.65 1607.14,1006.2 1610.49,1007.74 1613.84,1009.29 1617.2,1010.84 1620.55,1012.38 1623.9,1013.93 1627.25,1015.47 1630.61,1017.02 1633.96,1018.56 1637.31,1020.11 1640.66,1021.65 1644.01,1023.2 1647.37,1024.74 1650.72,1026.29 1654.07,1027.83 1657.42,1029.38 1660.77,1030.92 1664.13,1032.47 1667.48,1034.01 1670.83,1035.55 1674.18,1037.1 1677.54,1038.64 1680.89,1040.18 1684.24,1041.73 1687.59,1043.27 1690.94,1044.81 1694.3,1046.35 1697.65,1047.9 1701,1049.44 1704.35,1050.98 1707.7,1052.52 1711.06,1054.07 1714.41,1055.61 1717.76,1057.15 1721.11,1058.69 1724.47,1060.23 1727.82,1061.78 1731.17,1063.32 1734.52,1064.86 1737.87,1066.4 1741.23,1067.94 1744.58,1069.48 1747.93,1071.02 1751.28,1072.57 1754.63,1074.11 1757.99,1075.65 1761.34,1077.19 1764.69,1078.73 1768.04,1080.27 1771.4,1081.81 1774.75,1083.35 1778.1,1084.89 1781.45,1086.43 1784.8,1087.97 1788.16,1089.51 1791.51,1091.05 1794.86,1092.59 1798.21,1094.13 1801.56,1095.67 1804.92,1097.21 1808.27,1098.75 1811.62,1100.29 1814.97,1101.83 1818.33,1103.37 1821.68,1104.91 1825.03,1106.45 1828.38,1107.99 1831.73,1109.53 1835.09,1111.07 1838.44,1112.61 1841.79,1114.15 1845.14,1115.68 1848.49,1117.22 1851.85,1118.76 1855.2,1120.3 1858.55,1121.84 1861.9,1123.38 1865.26,1124.92 1868.61,1126.46 1871.96,1128 1875.31,1129.53 1878.66,1131.07 1882.02,1132.61 1885.37,1134.15 1888.72,1135.69 1892.07,1137.23 1895.42,1138.77 1898.78,1140.3 1902.13,1141.84 1905.48,1143.38 1908.83,1144.92 1912.18,1146.46 1915.54,1148 1918.89,1149.53 1922.24,1151.07 1925.59,1152.61 1928.95,1154.15 1932.3,1155.69 1935.65,1157.23 1939,1158.76 1942.35,1160.3 1945.71,1161.84 1949.06,1163.38 1952.41,1164.92 1955.76,1166.45 1959.11,1167.99 1962.47,1169.53 1965.82,1171.07 1969.17,1172.6 1972.52,1174.14 1975.88,1175.68 1979.23,1177.22 1982.58,1178.76 1985.93,1180.29 1989.28,1181.83 1992.64,1183.37 1995.99,1184.91 1999.34,1186.44 2002.69,1187.98 2006.04,1189.52 2009.4,1191.06 2012.75,1192.59 2016.1,1194.13 2019.45,1195.67 2022.81,1197.21 2026.16,1198.74 2029.51,1200.28 2032.86,1201.82 2036.21,1203.36 2039.57,1204.89 2042.92,1206.43 2046.27,1207.97 2049.62,1209.5 2052.97,1211.04 2056.33,1212.58 2059.68,1214.12 2063.03,1215.65 2066.38,1217.19 2069.74,1218.73 2073.09,1220.27 2076.44,1221.8 2079.79,1223.34 2083.14,1224.88 2086.5,1226.41 2089.85,1227.95 2093.2,1229.49 2096.55,1231.03 2099.9,1232.56 2103.26,1234.1 2106.61,1235.64 2109.96,1237.17 2113.31,1238.71 2116.67,1240.25 2120.02,1241.78 2123.37,1243.32 2126.72,1244.86 2130.07,1246.4 2133.43,1247.93 2136.78,1249.47 2140.13,1251.01 2143.48,1252.54 2146.83,1254.08 2150.19,1255.62 2153.54,1257.15 2156.89,1258.69 2160.24,1260.23 2163.59,1261.76 2166.95,1263.3 2170.3,1264.84 2173.65,1266.38 2177,1267.91 2180.36,1269.45 2183.71,1270.99 2187.06,1272.52 2190.41,1274.06 2193.76,1275.6 2197.12,1277.13 2200.47,1278.67 2203.82,1280.21 2207.17,1281.74 2210.52,1283.28 2213.88,1284.82 2217.23,1286.35 2220.58,1287.89 2223.93,1289.43 2227.29,1290.96 2230.64,1292.5 2233.99,1294.04 2237.34,1295.57 2240.69,1297.11 2244.05,1298.65 2247.4,1300.18 2250.75,1301.72 2254.1,1303.26 2257.45,1304.79 2260.81,1306.33 2264.16,1307.87 2267.51,1309.41 2270.86,1310.94 2274.22,1312.48 2277.57,1314.02 2280.92,1315.55 2284.27,1317.09 2287.62,1318.63 2290.98,1320.16 2294.33,1321.7 "/>
<path clip-path="url(#clip220)" d="M1513.98 374.156 L2283.94 374.156 L2283.94 166.796 L1513.98 166.796  Z" fill="#ffffff" fill-rule="evenodd" fill-opacity="1"/>
<polyline clip-path="url(#clip220)" style="stroke:#000000; stroke-linecap:round; stroke-linejoin:round; stroke-width:4; stroke-opacity:1; fill:none" points="1513.98,374.156 2283.94,374.156 2283.94,166.796 1513.98,166.796 1513.98,374.156 "/>
<polyline clip-path="url(#clip220)" style="stroke:#009af9; stroke-linecap:round; stroke-linejoin:round; stroke-width:4; stroke-opacity:1; fill:none" points="1536.92,218.636 1674.55,218.636 "/>
<path clip-path="url(#clip220)" d="M1697.49 201.356 L1702.16 201.356 L1702.16 231.981 L1718.99 231.981 L1718.99 235.916 L1697.49 235.916 L1697.49 201.356 Z" fill="#000000" fill-rule="nonzero" fill-opacity="1" /><path clip-path="url(#clip220)" d="M1723.9 201.356 L1730.87 201.356 L1739.69 224.874 L1748.55 201.356 L1755.52 201.356 L1755.52 235.916 L1750.96 235.916 L1750.96 205.569 L1742.05 229.272 L1737.35 229.272 L1728.44 205.569 L1728.44 235.916 L1723.9 235.916 L1723.9 201.356 Z" fill="#000000" fill-rule="nonzero" fill-opacity="1" /><path clip-path="url(#clip220)" d="M1784.32 243.786 L1784.32 247.096 L1759.69 247.096 L1759.69 243.786 L1784.32 243.786 Z" fill="#000000" fill-rule="nonzero" fill-opacity="1" /><path clip-path="url(#clip220)" d="M1800.06 205.962 L1793.71 223.161 L1806.42 223.161 L1800.06 205.962 M1797.42 201.356 L1802.72 201.356 L1815.89 235.916 L1811.03 235.916 L1807.88 227.05 L1792.3 227.05 L1789.15 235.916 L1784.22 235.916 L1797.42 201.356 Z" fill="#000000" fill-rule="nonzero" fill-opacity="1" /><path clip-path="url(#clip220)" d="M1842.3 220.268 L1842.3 235.916 L1838.04 235.916 L1838.04 220.407 Q1838.04 216.726 1836.61 214.897 Q1835.17 213.069 1832.3 213.069 Q1828.85 213.069 1826.86 215.268 Q1824.87 217.467 1824.87 221.263 L1824.87 235.916 L1820.59 235.916 L1820.59 209.99 L1824.87 209.99 L1824.87 214.018 Q1826.4 211.68 1828.46 210.522 Q1830.54 209.365 1833.25 209.365 Q1837.72 209.365 1840.01 212.143 Q1842.3 214.897 1842.3 220.268 Z" fill="#000000" fill-rule="nonzero" fill-opacity="1" /><path clip-path="url(#clip220)" d="M1867.86 213.925 L1867.86 199.897 L1872.12 199.897 L1872.12 235.916 L1867.86 235.916 L1867.86 232.027 Q1866.51 234.342 1864.45 235.476 Q1862.42 236.587 1859.55 236.587 Q1854.85 236.587 1851.88 232.837 Q1848.94 229.087 1848.94 222.976 Q1848.94 216.865 1851.88 213.115 Q1854.85 209.365 1859.55 209.365 Q1862.42 209.365 1864.45 210.499 Q1866.51 211.61 1867.86 213.925 M1853.34 222.976 Q1853.34 227.675 1855.26 230.36 Q1857.21 233.022 1860.59 233.022 Q1863.97 233.022 1865.91 230.36 Q1867.86 227.675 1867.86 222.976 Q1867.86 218.277 1865.91 215.615 Q1863.97 212.93 1860.59 212.93 Q1857.21 212.93 1855.26 215.615 Q1853.34 218.277 1853.34 222.976 Z" fill="#000000" fill-rule="nonzero" fill-opacity="1" /><path clip-path="url(#clip220)" d="M1895.91 213.971 Q1895.19 213.555 1894.34 213.37 Q1893.5 213.161 1892.49 213.161 Q1888.88 213.161 1886.93 215.522 Q1885.01 217.86 1885.01 222.258 L1885.01 235.916 L1880.73 235.916 L1880.73 209.99 L1885.01 209.99 L1885.01 214.018 Q1886.35 211.657 1888.5 210.522 Q1890.66 209.365 1893.74 209.365 Q1894.18 209.365 1894.71 209.434 Q1895.24 209.481 1895.89 209.596 L1895.91 213.971 Z" fill="#000000" fill-rule="nonzero" fill-opacity="1" /><path clip-path="url(#clip220)" d="M1921.51 221.888 L1921.51 223.971 L1901.93 223.971 Q1902.21 228.369 1904.57 230.684 Q1906.95 232.976 1911.19 232.976 Q1913.64 232.976 1915.94 232.374 Q1918.25 231.772 1920.52 230.569 L1920.52 234.596 Q1918.23 235.568 1915.82 236.078 Q1913.41 236.587 1910.94 236.587 Q1904.73 236.587 1901.1 232.976 Q1897.49 229.365 1897.49 223.207 Q1897.49 216.842 1900.91 213.115 Q1904.36 209.365 1910.19 209.365 Q1915.43 209.365 1918.46 212.745 Q1921.51 216.101 1921.51 221.888 M1917.25 220.638 Q1917.21 217.143 1915.29 215.059 Q1913.39 212.976 1910.24 212.976 Q1906.68 212.976 1904.52 214.99 Q1902.39 217.004 1902.07 220.661 L1917.25 220.638 Z" fill="#000000" fill-rule="nonzero" fill-opacity="1" /><path clip-path="url(#clip220)" d="M1928.5 209.99 L1932.76 209.99 L1932.76 235.916 L1928.5 235.916 L1928.5 209.99 M1928.5 199.897 L1932.76 199.897 L1932.76 205.291 L1928.5 205.291 L1928.5 199.897 Z" fill="#000000" fill-rule="nonzero" fill-opacity="1" /><path clip-path="url(#clip220)" d="M1961.37 243.786 L1961.37 247.096 L1936.75 247.096 L1936.75 243.786 L1961.37 243.786 Z" fill="#000000" fill-rule="nonzero" fill-opacity="1" /><path clip-path="url(#clip220)" d="M1967.93 222.976 Q1967.93 227.675 1969.85 230.36 Q1971.79 233.022 1975.17 233.022 Q1978.55 233.022 1980.5 230.36 Q1982.44 227.675 1982.44 222.976 Q1982.44 218.277 1980.5 215.615 Q1978.55 212.93 1975.17 212.93 Q1971.79 212.93 1969.85 215.615 Q1967.93 218.277 1967.93 222.976 M1982.44 232.027 Q1981.1 234.342 1979.04 235.476 Q1977 236.587 1974.13 236.587 Q1969.43 236.587 1966.47 232.837 Q1963.53 229.087 1963.53 222.976 Q1963.53 216.865 1966.47 213.115 Q1969.43 209.365 1974.13 209.365 Q1977 209.365 1979.04 210.499 Q1981.1 211.61 1982.44 213.925 L1982.44 209.99 L1986.7 209.99 L1986.7 245.777 L1982.44 245.777 L1982.44 232.027 Z" fill="#000000" fill-rule="nonzero" fill-opacity="1" /><path clip-path="url(#clip220)" d="M1995.03 225.684 L1995.03 209.99 L1999.29 209.99 L1999.29 225.522 Q1999.29 229.203 2000.73 231.055 Q2002.16 232.883 2005.03 232.883 Q2008.48 232.883 2010.47 230.684 Q2012.49 228.485 2012.49 224.689 L2012.49 209.99 L2016.74 209.99 L2016.74 235.916 L2012.49 235.916 L2012.49 231.934 Q2010.93 234.295 2008.87 235.453 Q2006.84 236.587 2004.13 236.587 Q1999.66 236.587 1997.35 233.809 Q1995.03 231.031 1995.03 225.684 M2005.75 209.365 L2005.75 209.365 Z" fill="#000000" fill-rule="nonzero" fill-opacity="1" /><path clip-path="url(#clip220)" d="M2037.3 222.883 Q2032.14 222.883 2030.15 224.064 Q2028.16 225.244 2028.16 228.092 Q2028.16 230.36 2029.64 231.703 Q2031.14 233.022 2033.71 233.022 Q2037.25 233.022 2039.38 230.522 Q2041.54 227.999 2041.54 223.832 L2041.54 222.883 L2037.3 222.883 M2045.8 221.124 L2045.8 235.916 L2041.54 235.916 L2041.54 231.981 Q2040.08 234.342 2037.9 235.476 Q2035.73 236.587 2032.58 236.587 Q2028.6 236.587 2026.24 234.365 Q2023.9 232.119 2023.9 228.369 Q2023.9 223.994 2026.81 221.772 Q2029.75 219.55 2035.56 219.55 L2041.54 219.55 L2041.54 219.133 Q2041.54 216.194 2039.59 214.596 Q2037.67 212.976 2034.18 212.976 Q2031.95 212.976 2029.85 213.508 Q2027.74 214.041 2025.8 215.106 L2025.8 211.17 Q2028.13 210.268 2030.33 209.828 Q2032.53 209.365 2034.62 209.365 Q2040.24 209.365 2043.02 212.282 Q2045.8 215.198 2045.8 221.124 Z" fill="#000000" fill-rule="nonzero" fill-opacity="1" /><path clip-path="url(#clip220)" d="M2071.1 210.754 L2071.1 214.782 Q2069.29 213.856 2067.35 213.393 Q2065.4 212.93 2063.32 212.93 Q2060.15 212.93 2058.55 213.902 Q2056.98 214.874 2056.98 216.819 Q2056.98 218.3 2058.11 219.157 Q2059.24 219.99 2062.67 220.754 L2064.13 221.078 Q2068.67 222.05 2070.56 223.832 Q2072.49 225.592 2072.49 228.763 Q2072.49 232.374 2069.61 234.481 Q2066.77 236.587 2061.77 236.587 Q2059.68 236.587 2057.42 236.17 Q2055.17 235.777 2052.67 234.967 L2052.67 230.569 Q2055.03 231.795 2057.32 232.42 Q2059.61 233.022 2061.86 233.022 Q2064.87 233.022 2066.49 232.004 Q2068.11 230.962 2068.11 229.087 Q2068.11 227.351 2066.93 226.425 Q2065.77 225.499 2061.81 224.643 L2060.33 224.295 Q2056.37 223.462 2054.61 221.749 Q2052.86 220.013 2052.86 217.004 Q2052.86 213.346 2055.45 211.356 Q2058.04 209.365 2062.81 209.365 Q2065.17 209.365 2067.25 209.712 Q2069.34 210.059 2071.1 210.754 Z" fill="#000000" fill-rule="nonzero" fill-opacity="1" /><path clip-path="url(#clip220)" d="M2079.27 209.99 L2083.53 209.99 L2083.53 235.916 L2079.27 235.916 L2079.27 209.99 M2079.27 199.897 L2083.53 199.897 L2083.53 205.291 L2079.27 205.291 L2079.27 199.897 Z" fill="#000000" fill-rule="nonzero" fill-opacity="1" /><path clip-path="url(#clip220)" d="M2112.14 243.786 L2112.14 247.096 L2087.51 247.096 L2087.51 243.786 L2112.14 243.786 Z" fill="#000000" fill-rule="nonzero" fill-opacity="1" /><path clip-path="url(#clip220)" d="M2137.69 220.268 L2137.69 235.916 L2133.43 235.916 L2133.43 220.407 Q2133.43 216.726 2132 214.897 Q2130.56 213.069 2127.69 213.069 Q2124.24 213.069 2122.25 215.268 Q2120.26 217.467 2120.26 221.263 L2120.26 235.916 L2115.98 235.916 L2115.98 209.99 L2120.26 209.99 L2120.26 214.018 Q2121.79 211.68 2123.85 210.522 Q2125.93 209.365 2128.64 209.365 Q2133.11 209.365 2135.4 212.143 Q2137.69 214.897 2137.69 220.268 Z" fill="#000000" fill-rule="nonzero" fill-opacity="1" /><path clip-path="url(#clip220)" d="M2145.75 225.684 L2145.75 209.99 L2150.01 209.99 L2150.01 225.522 Q2150.01 229.203 2151.44 231.055 Q2152.88 232.883 2155.75 232.883 Q2159.2 232.883 2161.19 230.684 Q2163.2 228.485 2163.2 224.689 L2163.2 209.99 L2167.46 209.99 L2167.46 235.916 L2163.2 235.916 L2163.2 231.934 Q2161.65 234.295 2159.59 235.453 Q2157.55 236.587 2154.85 236.587 Q2150.38 236.587 2148.06 233.809 Q2145.75 231.031 2145.75 225.684 M2156.47 209.365 L2156.47 209.365 Z" fill="#000000" fill-rule="nonzero" fill-opacity="1" /><path clip-path="url(#clip220)" d="M2176.23 199.897 L2180.49 199.897 L2180.49 235.916 L2176.23 235.916 L2176.23 199.897 Z" fill="#000000" fill-rule="nonzero" fill-opacity="1" /><path clip-path="url(#clip220)" d="M2209.1 243.786 L2209.1 247.096 L2184.48 247.096 L2184.48 243.786 L2209.1 243.786 Z" fill="#000000" fill-rule="nonzero" fill-opacity="1" /><path clip-path="url(#clip220)" d="M2213.11 199.897 L2217.37 199.897 L2217.37 235.916 L2213.11 235.916 L2213.11 199.897 Z" fill="#000000" fill-rule="nonzero" fill-opacity="1" /><path clip-path="url(#clip220)" d="M2226.28 209.99 L2230.54 209.99 L2230.54 235.916 L2226.28 235.916 L2226.28 209.99 M2226.28 199.897 L2230.54 199.897 L2230.54 205.291 L2226.28 205.291 L2226.28 199.897 Z" fill="#000000" fill-rule="nonzero" fill-opacity="1" /><path clip-path="url(#clip220)" d="M2261 220.268 L2261 235.916 L2256.74 235.916 L2256.74 220.407 Q2256.74 216.726 2255.31 214.897 Q2253.87 213.069 2251 213.069 Q2247.55 213.069 2245.56 215.268 Q2243.57 217.467 2243.57 221.263 L2243.57 235.916 L2239.29 235.916 L2239.29 209.99 L2243.57 209.99 L2243.57 214.018 Q2245.1 211.68 2247.16 210.522 Q2249.24 209.365 2251.95 209.365 Q2256.42 209.365 2258.71 212.143 Q2261 214.897 2261 220.268 Z" fill="#000000" fill-rule="nonzero" fill-opacity="1" /><polyline clip-path="url(#clip220)" style="stroke:#e26f46; stroke-linecap:round; stroke-linejoin:round; stroke-width:4; stroke-opacity:1; fill:none" points="1536.92,270.476 1674.55,270.476 "/>
<path clip-path="url(#clip220)" d="M1697.49 253.196 L1702.16 253.196 L1702.16 283.821 L1718.99 283.821 L1718.99 287.756 L1697.49 287.756 L1697.49 253.196 Z" fill="#000000" fill-rule="nonzero" fill-opacity="1" /><path clip-path="url(#clip220)" d="M1723.9 253.196 L1730.87 253.196 L1739.69 276.714 L1748.55 253.196 L1755.52 253.196 L1755.52 287.756 L1750.96 287.756 L1750.96 257.409 L1742.05 281.112 L1737.35 281.112 L1728.44 257.409 L1728.44 287.756 L1723.9 287.756 L1723.9 253.196 Z" fill="#000000" fill-rule="nonzero" fill-opacity="1" /><path clip-path="url(#clip220)" d="M1784.32 295.626 L1784.32 298.936 L1759.69 298.936 L1759.69 295.626 L1784.32 295.626 Z" fill="#000000" fill-rule="nonzero" fill-opacity="1" /><path clip-path="url(#clip220)" d="M1786.51 253.196 L1813.67 253.196 L1813.67 256.761 L1791.82 283.821 L1814.2 283.821 L1814.2 287.756 L1785.98 287.756 L1785.98 284.191 L1807.83 257.131 L1786.51 257.131 L1786.51 253.196 Z" fill="#000000" fill-rule="nonzero" fill-opacity="1" /><path clip-path="url(#clip220)" d="M1842.35 272.108 L1842.35 287.756 L1838.09 287.756 L1838.09 272.247 Q1838.09 268.566 1836.65 266.737 Q1835.22 264.909 1832.35 264.909 Q1828.9 264.909 1826.91 267.108 Q1824.92 269.307 1824.92 273.103 L1824.92 287.756 L1820.63 287.756 L1820.63 251.737 L1824.92 251.737 L1824.92 265.858 Q1826.44 263.52 1828.51 262.362 Q1830.59 261.205 1833.3 261.205 Q1837.76 261.205 1840.06 263.983 Q1842.35 266.737 1842.35 272.108 Z" fill="#000000" fill-rule="nonzero" fill-opacity="1" /><path clip-path="url(#clip220)" d="M1850.4 277.524 L1850.4 261.83 L1854.66 261.83 L1854.66 277.362 Q1854.66 281.043 1856.1 282.895 Q1857.53 284.723 1860.4 284.723 Q1863.85 284.723 1865.84 282.524 Q1867.86 280.325 1867.86 276.529 L1867.86 261.83 L1872.12 261.83 L1872.12 287.756 L1867.86 287.756 L1867.86 283.774 Q1866.31 286.135 1864.25 287.293 Q1862.21 288.427 1859.5 288.427 Q1855.03 288.427 1852.72 285.649 Q1850.4 282.871 1850.4 277.524 M1861.12 261.205 L1861.12 261.205 Z" fill="#000000" fill-rule="nonzero" fill-opacity="1" /><path clip-path="url(#clip220)" d="M1900.59 295.626 L1900.59 298.936 L1875.96 298.936 L1875.96 295.626 L1900.59 295.626 Z" fill="#000000" fill-rule="nonzero" fill-opacity="1" /><path clip-path="url(#clip220)" d="M1907.14 274.816 Q1907.14 279.515 1909.06 282.2 Q1911 284.862 1914.38 284.862 Q1917.76 284.862 1919.71 282.2 Q1921.65 279.515 1921.65 274.816 Q1921.65 270.117 1919.71 267.455 Q1917.76 264.77 1914.38 264.77 Q1911 264.77 1909.06 267.455 Q1907.14 270.117 1907.14 274.816 M1921.65 283.867 Q1920.31 286.182 1918.25 287.316 Q1916.21 288.427 1913.34 288.427 Q1908.64 288.427 1905.68 284.677 Q1902.74 280.927 1902.74 274.816 Q1902.74 268.705 1905.68 264.955 Q1908.64 261.205 1913.34 261.205 Q1916.21 261.205 1918.25 262.339 Q1920.31 263.45 1921.65 265.765 L1921.65 261.83 L1925.91 261.83 L1925.91 297.617 L1921.65 297.617 L1921.65 283.867 Z" fill="#000000" fill-rule="nonzero" fill-opacity="1" /><path clip-path="url(#clip220)" d="M1934.25 277.524 L1934.25 261.83 L1938.5 261.83 L1938.5 277.362 Q1938.5 281.043 1939.94 282.895 Q1941.37 284.723 1944.25 284.723 Q1947.69 284.723 1949.69 282.524 Q1951.7 280.325 1951.7 276.529 L1951.7 261.83 L1955.96 261.83 L1955.96 287.756 L1951.7 287.756 L1951.7 283.774 Q1950.15 286.135 1948.09 287.293 Q1946.05 288.427 1943.34 288.427 Q1938.87 288.427 1936.56 285.649 Q1934.25 282.871 1934.25 277.524 M1944.96 261.205 L1944.96 261.205 Z" fill="#000000" fill-rule="nonzero" fill-opacity="1" /><path clip-path="url(#clip220)" d="M1976.51 274.723 Q1971.35 274.723 1969.36 275.904 Q1967.37 277.084 1967.37 279.932 Q1967.37 282.2 1968.85 283.543 Q1970.36 284.862 1972.93 284.862 Q1976.47 284.862 1978.6 282.362 Q1980.75 279.839 1980.75 275.672 L1980.75 274.723 L1976.51 274.723 M1985.01 272.964 L1985.01 287.756 L1980.75 287.756 L1980.75 283.821 Q1979.29 286.182 1977.12 287.316 Q1974.94 288.427 1971.79 288.427 Q1967.81 288.427 1965.45 286.205 Q1963.11 283.959 1963.11 280.209 Q1963.11 275.834 1966.03 273.612 Q1968.97 271.39 1974.78 271.39 L1980.75 271.39 L1980.75 270.973 Q1980.75 268.034 1978.81 266.436 Q1976.88 264.816 1973.39 264.816 Q1971.17 264.816 1969.06 265.348 Q1966.95 265.881 1965.01 266.946 L1965.01 263.01 Q1967.35 262.108 1969.55 261.668 Q1971.75 261.205 1973.83 261.205 Q1979.45 261.205 1982.23 264.122 Q1985.01 267.038 1985.01 272.964 Z" fill="#000000" fill-rule="nonzero" fill-opacity="1" /><path clip-path="url(#clip220)" d="M2010.31 262.594 L2010.31 266.622 Q2008.5 265.696 2006.56 265.233 Q2004.62 264.77 2002.53 264.77 Q1999.36 264.77 1997.76 265.742 Q1996.19 266.714 1996.19 268.659 Q1996.19 270.14 1997.32 270.997 Q1998.46 271.83 2001.88 272.594 L2003.34 272.918 Q2007.88 273.89 2009.78 275.672 Q2011.7 277.432 2011.7 280.603 Q2011.7 284.214 2008.83 286.321 Q2005.98 288.427 2000.98 288.427 Q1998.9 288.427 1996.63 288.01 Q1994.38 287.617 1991.88 286.807 L1991.88 282.409 Q1994.24 283.635 1996.54 284.26 Q1998.83 284.862 2001.07 284.862 Q2004.08 284.862 2005.7 283.844 Q2007.32 282.802 2007.32 280.927 Q2007.32 279.191 2006.14 278.265 Q2004.99 277.339 2001.03 276.483 L1999.55 276.135 Q1995.59 275.302 1993.83 273.589 Q1992.07 271.853 1992.07 268.844 Q1992.07 265.186 1994.66 263.196 Q1997.25 261.205 2002.02 261.205 Q2004.38 261.205 2006.47 261.552 Q2008.55 261.899 2010.31 262.594 Z" fill="#000000" fill-rule="nonzero" fill-opacity="1" /><path clip-path="url(#clip220)" d="M2018.48 261.83 L2022.74 261.83 L2022.74 287.756 L2018.48 287.756 L2018.48 261.83 M2018.48 251.737 L2022.74 251.737 L2022.74 257.131 L2018.48 257.131 L2018.48 251.737 Z" fill="#000000" fill-rule="nonzero" fill-opacity="1" /><path clip-path="url(#clip220)" d="M2051.35 295.626 L2051.35 298.936 L2026.72 298.936 L2026.72 295.626 L2051.35 295.626 Z" fill="#000000" fill-rule="nonzero" fill-opacity="1" /><path clip-path="url(#clip220)" d="M2076.91 272.108 L2076.91 287.756 L2072.65 287.756 L2072.65 272.247 Q2072.65 268.566 2071.21 266.737 Q2069.78 264.909 2066.91 264.909 Q2063.46 264.909 2061.47 267.108 Q2059.48 269.307 2059.48 273.103 L2059.48 287.756 L2055.19 287.756 L2055.19 261.83 L2059.48 261.83 L2059.48 265.858 Q2061 263.52 2063.06 262.362 Q2065.15 261.205 2067.86 261.205 Q2072.32 261.205 2074.61 263.983 Q2076.91 266.737 2076.91 272.108 Z" fill="#000000" fill-rule="nonzero" fill-opacity="1" /><path clip-path="url(#clip220)" d="M2084.96 277.524 L2084.96 261.83 L2089.22 261.83 L2089.22 277.362 Q2089.22 281.043 2090.66 282.895 Q2092.09 284.723 2094.96 284.723 Q2098.41 284.723 2100.4 282.524 Q2102.42 280.325 2102.42 276.529 L2102.42 261.83 L2106.67 261.83 L2106.67 287.756 L2102.42 287.756 L2102.42 283.774 Q2100.86 286.135 2098.8 287.293 Q2096.77 288.427 2094.06 288.427 Q2089.59 288.427 2087.28 285.649 Q2084.96 282.871 2084.96 277.524 M2095.68 261.205 L2095.68 261.205 Z" fill="#000000" fill-rule="nonzero" fill-opacity="1" /><path clip-path="url(#clip220)" d="M2115.45 251.737 L2119.71 251.737 L2119.71 287.756 L2115.45 287.756 L2115.45 251.737 Z" fill="#000000" fill-rule="nonzero" fill-opacity="1" /><path clip-path="url(#clip220)" d="M2148.32 295.626 L2148.32 298.936 L2123.69 298.936 L2123.69 295.626 L2148.32 295.626 Z" fill="#000000" fill-rule="nonzero" fill-opacity="1" /><path clip-path="url(#clip220)" d="M2152.32 251.737 L2156.58 251.737 L2156.58 287.756 L2152.32 287.756 L2152.32 251.737 Z" fill="#000000" fill-rule="nonzero" fill-opacity="1" /><path clip-path="url(#clip220)" d="M2165.49 261.83 L2169.75 261.83 L2169.75 287.756 L2165.49 287.756 L2165.49 261.83 M2165.49 251.737 L2169.75 251.737 L2169.75 257.131 L2165.49 257.131 L2165.49 251.737 Z" fill="#000000" fill-rule="nonzero" fill-opacity="1" /><path clip-path="url(#clip220)" d="M2200.22 272.108 L2200.22 287.756 L2195.96 287.756 L2195.96 272.247 Q2195.96 268.566 2194.52 266.737 Q2193.09 264.909 2190.22 264.909 Q2186.77 264.909 2184.78 267.108 Q2182.79 269.307 2182.79 273.103 L2182.79 287.756 L2178.5 287.756 L2178.5 261.83 L2182.79 261.83 L2182.79 265.858 Q2184.31 263.52 2186.37 262.362 Q2188.46 261.205 2191.17 261.205 Q2195.63 261.205 2197.92 263.983 Q2200.22 266.737 2200.22 272.108 Z" fill="#000000" fill-rule="nonzero" fill-opacity="1" /><polyline clip-path="url(#clip220)" style="stroke:#3da44d; stroke-linecap:round; stroke-linejoin:round; stroke-width:4; stroke-opacity:1; fill:none" points="1536.92,322.316 1674.55,322.316 "/>
<path clip-path="url(#clip220)" d="M1697.49 305.036 L1702.16 305.036 L1702.16 335.661 L1718.99 335.661 L1718.99 339.596 L1697.49 339.596 L1697.49 305.036 Z" fill="#000000" fill-rule="nonzero" fill-opacity="1" /><path clip-path="url(#clip220)" d="M1723.9 305.036 L1730.87 305.036 L1739.69 328.554 L1748.55 305.036 L1755.52 305.036 L1755.52 339.596 L1750.96 339.596 L1750.96 309.249 L1742.05 332.952 L1737.35 332.952 L1728.44 309.249 L1728.44 339.596 L1723.9 339.596 L1723.9 305.036 Z" fill="#000000" fill-rule="nonzero" fill-opacity="1" /><path clip-path="url(#clip220)" d="M1784.32 347.466 L1784.32 350.776 L1759.69 350.776 L1759.69 347.466 L1784.32 347.466 Z" fill="#000000" fill-rule="nonzero" fill-opacity="1" /><path clip-path="url(#clip220)" d="M1809.22 306.17 L1809.22 310.73 Q1806.56 309.457 1804.2 308.832 Q1801.84 308.207 1799.64 308.207 Q1795.82 308.207 1793.74 309.688 Q1791.68 311.17 1791.68 313.901 Q1791.68 316.193 1793.04 317.374 Q1794.43 318.531 1798.27 319.249 L1801.1 319.827 Q1806.33 320.823 1808.81 323.346 Q1811.31 325.846 1811.31 330.059 Q1811.31 335.082 1807.93 337.674 Q1804.57 340.267 1798.07 340.267 Q1795.61 340.267 1792.83 339.711 Q1790.08 339.156 1787.12 338.068 L1787.12 333.253 Q1789.96 334.85 1792.7 335.661 Q1795.43 336.471 1798.07 336.471 Q1802.07 336.471 1804.25 334.897 Q1806.42 333.323 1806.42 330.406 Q1806.42 327.86 1804.85 326.424 Q1803.3 324.989 1799.73 324.272 L1796.88 323.716 Q1791.65 322.675 1789.32 320.452 Q1786.98 318.23 1786.98 314.272 Q1786.98 309.688 1790.2 307.05 Q1793.44 304.411 1799.11 304.411 Q1801.54 304.411 1804.06 304.851 Q1806.58 305.29 1809.22 306.17 Z" fill="#000000" fill-rule="nonzero" fill-opacity="1" /><path clip-path="url(#clip220)" d="M1823.27 308.878 L1823.27 321.864 L1829.15 321.864 Q1832.42 321.864 1834.2 320.175 Q1835.98 318.485 1835.98 315.36 Q1835.98 312.258 1834.2 310.568 Q1832.42 308.878 1829.15 308.878 L1823.27 308.878 M1818.6 305.036 L1829.15 305.036 Q1834.96 305.036 1837.93 307.675 Q1840.91 310.29 1840.91 315.36 Q1840.91 320.475 1837.93 323.091 Q1834.96 325.707 1829.15 325.707 L1823.27 325.707 L1823.27 339.596 L1818.6 339.596 L1818.6 305.036 Z" fill="#000000" fill-rule="nonzero" fill-opacity="1" /><path clip-path="url(#clip220)" d="M1870.75 334.665 L1870.75 325.383 L1863.11 325.383 L1863.11 321.54 L1875.38 321.54 L1875.38 336.378 Q1872.67 338.299 1869.41 339.295 Q1866.14 340.267 1862.44 340.267 Q1854.34 340.267 1849.75 335.545 Q1845.19 330.799 1845.19 322.35 Q1845.19 313.878 1849.75 309.156 Q1854.34 304.411 1862.44 304.411 Q1865.82 304.411 1868.85 305.244 Q1871.91 306.077 1874.48 307.698 L1874.48 312.675 Q1871.88 310.476 1868.97 309.364 Q1866.05 308.253 1862.83 308.253 Q1856.49 308.253 1853.3 311.795 Q1850.13 315.337 1850.13 322.35 Q1850.13 329.341 1853.3 332.883 Q1856.49 336.424 1862.83 336.424 Q1865.31 336.424 1867.25 336.008 Q1869.2 335.568 1870.75 334.665 Z" fill="#000000" fill-rule="nonzero" fill-opacity="1" /><path clip-path="url(#clip220)" d="M1903.44 347.466 L1903.44 350.776 L1878.81 350.776 L1878.81 347.466 L1903.44 347.466 Z" fill="#000000" fill-rule="nonzero" fill-opacity="1" /><path clip-path="url(#clip220)" d="M1909.99 326.656 Q1909.99 331.355 1911.91 334.04 Q1913.85 336.702 1917.23 336.702 Q1920.61 336.702 1922.56 334.04 Q1924.5 331.355 1924.5 326.656 Q1924.5 321.957 1922.56 319.295 Q1920.61 316.61 1917.23 316.61 Q1913.85 316.61 1911.91 319.295 Q1909.99 321.957 1909.99 326.656 M1924.5 335.707 Q1923.16 338.022 1921.1 339.156 Q1919.06 340.267 1916.19 340.267 Q1911.49 340.267 1908.53 336.517 Q1905.59 332.767 1905.59 326.656 Q1905.59 320.545 1908.53 316.795 Q1911.49 313.045 1916.19 313.045 Q1919.06 313.045 1921.1 314.179 Q1923.16 315.29 1924.5 317.605 L1924.5 313.67 L1928.76 313.67 L1928.76 349.457 L1924.5 349.457 L1924.5 335.707 Z" fill="#000000" fill-rule="nonzero" fill-opacity="1" /><path clip-path="url(#clip220)" d="M1937.09 329.364 L1937.09 313.67 L1941.35 313.67 L1941.35 329.202 Q1941.35 332.883 1942.79 334.735 Q1944.22 336.563 1947.09 336.563 Q1950.54 336.563 1952.53 334.364 Q1954.55 332.165 1954.55 328.369 L1954.55 313.67 L1958.81 313.67 L1958.81 339.596 L1954.55 339.596 L1954.55 335.614 Q1953 337.975 1950.93 339.133 Q1948.9 340.267 1946.19 340.267 Q1941.72 340.267 1939.41 337.489 Q1937.09 334.711 1937.09 329.364 M1947.81 313.045 L1947.81 313.045 Z" fill="#000000" fill-rule="nonzero" fill-opacity="1" /><path clip-path="url(#clip220)" d="M1979.36 326.563 Q1974.2 326.563 1972.21 327.744 Q1970.22 328.924 1970.22 331.772 Q1970.22 334.04 1971.7 335.383 Q1973.2 336.702 1975.77 336.702 Q1979.31 336.702 1981.44 334.202 Q1983.6 331.679 1983.6 327.512 L1983.6 326.563 L1979.36 326.563 M1987.86 324.804 L1987.86 339.596 L1983.6 339.596 L1983.6 335.661 Q1982.14 338.022 1979.96 339.156 Q1977.79 340.267 1974.64 340.267 Q1970.66 340.267 1968.3 338.045 Q1965.96 335.799 1965.96 332.049 Q1965.96 327.674 1968.87 325.452 Q1971.81 323.23 1977.62 323.23 L1983.6 323.23 L1983.6 322.813 Q1983.6 319.874 1981.65 318.276 Q1979.73 316.656 1976.24 316.656 Q1974.01 316.656 1971.91 317.188 Q1969.8 317.721 1967.86 318.786 L1967.86 314.85 Q1970.19 313.948 1972.39 313.508 Q1974.59 313.045 1976.68 313.045 Q1982.3 313.045 1985.08 315.962 Q1987.86 318.878 1987.86 324.804 Z" fill="#000000" fill-rule="nonzero" fill-opacity="1" /><path clip-path="url(#clip220)" d="M2013.16 314.434 L2013.16 318.462 Q2011.35 317.536 2009.41 317.073 Q2007.46 316.61 2005.38 316.61 Q2002.21 316.61 2000.61 317.582 Q1999.04 318.554 1999.04 320.499 Q1999.04 321.98 2000.17 322.837 Q2001.31 323.67 2004.73 324.434 L2006.19 324.758 Q2010.73 325.73 2012.62 327.512 Q2014.55 329.272 2014.55 332.443 Q2014.55 336.054 2011.68 338.161 Q2008.83 340.267 2003.83 340.267 Q2001.74 340.267 1999.48 339.85 Q1997.23 339.457 1994.73 338.647 L1994.73 334.249 Q1997.09 335.475 1999.38 336.1 Q2001.68 336.702 2003.92 336.702 Q2006.93 336.702 2008.55 335.684 Q2010.17 334.642 2010.17 332.767 Q2010.17 331.031 2008.99 330.105 Q2007.83 329.179 2003.87 328.323 L2002.39 327.975 Q1998.43 327.142 1996.68 325.429 Q1994.92 323.693 1994.92 320.684 Q1994.92 317.026 1997.51 315.036 Q2000.1 313.045 2004.87 313.045 Q2007.23 313.045 2009.31 313.392 Q2011.4 313.739 2013.16 314.434 Z" fill="#000000" fill-rule="nonzero" fill-opacity="1" /><path clip-path="url(#clip220)" d="M2021.33 313.67 L2025.59 313.67 L2025.59 339.596 L2021.33 339.596 L2021.33 313.67 M2021.33 303.577 L2025.59 303.577 L2025.59 308.971 L2021.33 308.971 L2021.33 303.577 Z" fill="#000000" fill-rule="nonzero" fill-opacity="1" /><path clip-path="url(#clip220)" d="M2054.2 347.466 L2054.2 350.776 L2029.57 350.776 L2029.57 347.466 L2054.2 347.466 Z" fill="#000000" fill-rule="nonzero" fill-opacity="1" /><path clip-path="url(#clip220)" d="M2079.75 323.948 L2079.75 339.596 L2075.49 339.596 L2075.49 324.087 Q2075.49 320.406 2074.06 318.577 Q2072.62 316.749 2069.75 316.749 Q2066.3 316.749 2064.31 318.948 Q2062.32 321.147 2062.32 324.943 L2062.32 339.596 L2058.04 339.596 L2058.04 313.67 L2062.32 313.67 L2062.32 317.698 Q2063.85 315.36 2065.91 314.202 Q2067.99 313.045 2070.7 313.045 Q2075.17 313.045 2077.46 315.823 Q2079.75 318.577 2079.75 323.948 Z" fill="#000000" fill-rule="nonzero" fill-opacity="1" /><path clip-path="url(#clip220)" d="M2087.81 329.364 L2087.81 313.67 L2092.07 313.67 L2092.07 329.202 Q2092.07 332.883 2093.5 334.735 Q2094.94 336.563 2097.81 336.563 Q2101.26 336.563 2103.25 334.364 Q2105.26 332.165 2105.26 328.369 L2105.26 313.67 L2109.52 313.67 L2109.52 339.596 L2105.26 339.596 L2105.26 335.614 Q2103.71 337.975 2101.65 339.133 Q2099.61 340.267 2096.91 340.267 Q2092.44 340.267 2090.12 337.489 Q2087.81 334.711 2087.81 329.364 M2098.53 313.045 L2098.53 313.045 Z" fill="#000000" fill-rule="nonzero" fill-opacity="1" /><path clip-path="url(#clip220)" d="M2118.3 303.577 L2122.55 303.577 L2122.55 339.596 L2118.3 339.596 L2118.3 303.577 Z" fill="#000000" fill-rule="nonzero" fill-opacity="1" /><path clip-path="url(#clip220)" d="M2151.17 347.466 L2151.17 350.776 L2126.54 350.776 L2126.54 347.466 L2151.17 347.466 Z" fill="#000000" fill-rule="nonzero" fill-opacity="1" /><path clip-path="url(#clip220)" d="M2155.17 303.577 L2159.43 303.577 L2159.43 339.596 L2155.17 339.596 L2155.17 303.577 Z" fill="#000000" fill-rule="nonzero" fill-opacity="1" /><path clip-path="url(#clip220)" d="M2168.34 313.67 L2172.6 313.67 L2172.6 339.596 L2168.34 339.596 L2168.34 313.67 M2168.34 303.577 L2172.6 303.577 L2172.6 308.971 L2168.34 308.971 L2168.34 303.577 Z" fill="#000000" fill-rule="nonzero" fill-opacity="1" /><path clip-path="url(#clip220)" d="M2203.06 323.948 L2203.06 339.596 L2198.8 339.596 L2198.8 324.087 Q2198.8 320.406 2197.37 318.577 Q2195.93 316.749 2193.06 316.749 Q2189.61 316.749 2187.62 318.948 Q2185.63 321.147 2185.63 324.943 L2185.63 339.596 L2181.35 339.596 L2181.35 313.67 L2185.63 313.67 L2185.63 317.698 Q2187.16 315.36 2189.22 314.202 Q2191.3 313.045 2194.01 313.045 Q2198.48 313.045 2200.77 315.823 Q2203.06 318.577 2203.06 323.948 Z" fill="#000000" fill-rule="nonzero" fill-opacity="1" /></svg>
