<?xml version="1.0" encoding="utf-8"?>
<svg xmlns="http://www.w3.org/2000/svg" xmlns:xlink="http://www.w3.org/1999/xlink" width="600" height="400" viewBox="0 0 2400 1600">
<defs>
  <clipPath id="clip090">
    <rect x="0" y="0" width="2400" height="1600"/>
  </clipPath>
</defs>
<path clip-path="url(#clip090)" d="M0 1600 L2400 1600 L2400 0 L0 0  Z" fill="#ffffff" fill-rule="evenodd" fill-opacity="1"/>
<defs>
  <clipPath id="clip091">
    <rect x="480" y="0" width="1681" height="1600"/>
  </clipPath>
</defs>
<path clip-path="url(#clip090)" d="M221.637 1423.18 L2352.76 1423.18 L2352.76 123.472 L221.637 123.472  Z" fill="#ffffff" fill-rule="evenodd" fill-opacity="1"/>
<defs>
  <clipPath id="clip092">
    <rect x="221" y="123" width="2132" height="1301"/>
  </clipPath>
</defs>
<polyline clip-path="url(#clip092)" style="stroke:#000000; stroke-linecap:round; stroke-linejoin:round; stroke-width:2; stroke-opacity:0.1; fill:none" points="255.842,1423.18 255.842,123.472 "/>
<polyline clip-path="url(#clip092)" style="stroke:#000000; stroke-linecap:round; stroke-linejoin:round; stroke-width:2; stroke-opacity:0.1; fill:none" points="778.047,1423.18 778.047,123.472 "/>
<polyline clip-path="url(#clip092)" style="stroke:#000000; stroke-linecap:round; stroke-linejoin:round; stroke-width:2; stroke-opacity:0.1; fill:none" points="1300.25,1423.18 1300.25,123.472 "/>
<polyline clip-path="url(#clip092)" style="stroke:#000000; stroke-linecap:round; stroke-linejoin:round; stroke-width:2; stroke-opacity:0.1; fill:none" points="1822.46,1423.18 1822.46,123.472 "/>
<polyline clip-path="url(#clip092)" style="stroke:#000000; stroke-linecap:round; stroke-linejoin:round; stroke-width:2; stroke-opacity:0.1; fill:none" points="2344.66,1423.18 2344.66,123.472 "/>
<polyline clip-path="url(#clip090)" style="stroke:#000000; stroke-linecap:round; stroke-linejoin:round; stroke-width:4; stroke-opacity:1; fill:none" points="221.637,1423.18 2352.76,1423.18 "/>
<polyline clip-path="url(#clip090)" style="stroke:#000000; stroke-linecap:round; stroke-linejoin:round; stroke-width:4; stroke-opacity:1; fill:none" points="255.842,1423.18 255.842,1404.28 "/>
<polyline clip-path="url(#clip090)" style="stroke:#000000; stroke-linecap:round; stroke-linejoin:round; stroke-width:4; stroke-opacity:1; fill:none" points="778.047,1423.18 778.047,1404.28 "/>
<polyline clip-path="url(#clip090)" style="stroke:#000000; stroke-linecap:round; stroke-linejoin:round; stroke-width:4; stroke-opacity:1; fill:none" points="1300.25,1423.18 1300.25,1404.28 "/>
<polyline clip-path="url(#clip090)" style="stroke:#000000; stroke-linecap:round; stroke-linejoin:round; stroke-width:4; stroke-opacity:1; fill:none" points="1822.46,1423.18 1822.46,1404.28 "/>
<polyline clip-path="url(#clip090)" style="stroke:#000000; stroke-linecap:round; stroke-linejoin:round; stroke-width:4; stroke-opacity:1; fill:none" points="2344.66,1423.18 2344.66,1404.28 "/>
<path clip-path="url(#clip090)" d="M255.842 1454.1 Q252.23 1454.1 250.402 1457.66 Q248.596 1461.2 248.596 1468.33 Q248.596 1475.44 250.402 1479.01 Q252.23 1482.55 255.842 1482.55 Q259.476 1482.55 261.281 1479.01 Q263.11 1475.44 263.11 1468.33 Q263.11 1461.2 261.281 1457.66 Q259.476 1454.1 255.842 1454.1 M255.842 1450.39 Q261.652 1450.39 264.707 1455 Q267.786 1459.58 267.786 1468.33 Q267.786 1477.06 264.707 1481.67 Q261.652 1486.25 255.842 1486.25 Q250.031 1486.25 246.953 1481.67 Q243.897 1477.06 243.897 1468.33 Q243.897 1459.58 246.953 1455 Q250.031 1450.39 255.842 1450.39 Z" fill="#000000" fill-rule="nonzero" fill-opacity="1" /><path clip-path="url(#clip090)" d="M756.82 1481.64 L773.139 1481.64 L773.139 1485.58 L751.195 1485.58 L751.195 1481.64 Q753.857 1478.89 758.44 1474.26 Q763.047 1469.61 764.227 1468.27 Q766.473 1465.74 767.352 1464.01 Q768.255 1462.25 768.255 1460.56 Q768.255 1457.8 766.311 1456.07 Q764.389 1454.33 761.287 1454.33 Q759.088 1454.33 756.635 1455.09 Q754.204 1455.86 751.426 1457.41 L751.426 1452.69 Q754.25 1451.55 756.704 1450.97 Q759.158 1450.39 761.195 1450.39 Q766.565 1450.39 769.76 1453.08 Q772.954 1455.77 772.954 1460.26 Q772.954 1462.39 772.144 1464.31 Q771.357 1466.2 769.25 1468.8 Q768.672 1469.47 765.57 1472.69 Q762.468 1475.88 756.82 1481.64 Z" fill="#000000" fill-rule="nonzero" fill-opacity="1" /><path clip-path="url(#clip090)" d="M792.954 1454.1 Q789.343 1454.1 787.514 1457.66 Q785.709 1461.2 785.709 1468.33 Q785.709 1475.44 787.514 1479.01 Q789.343 1482.55 792.954 1482.55 Q796.588 1482.55 798.394 1479.01 Q800.222 1475.44 800.222 1468.33 Q800.222 1461.2 798.394 1457.66 Q796.588 1454.1 792.954 1454.1 M792.954 1450.39 Q798.764 1450.39 801.82 1455 Q804.898 1459.58 804.898 1468.33 Q804.898 1477.06 801.82 1481.67 Q798.764 1486.25 792.954 1486.25 Q787.144 1486.25 784.065 1481.67 Q781.01 1477.06 781.01 1468.33 Q781.01 1459.58 784.065 1455 Q787.144 1450.39 792.954 1450.39 Z" fill="#000000" fill-rule="nonzero" fill-opacity="1" /><path clip-path="url(#clip090)" d="M1288.42 1455.09 L1276.62 1473.54 L1288.42 1473.54 L1288.42 1455.09 M1287.2 1451.02 L1293.08 1451.02 L1293.08 1473.54 L1298.01 1473.54 L1298.01 1477.43 L1293.08 1477.43 L1293.08 1485.58 L1288.42 1485.58 L1288.42 1477.43 L1272.82 1477.43 L1272.82 1472.92 L1287.2 1451.02 Z" fill="#000000" fill-rule="nonzero" fill-opacity="1" /><path clip-path="url(#clip090)" d="M1315.74 1454.1 Q1312.13 1454.1 1310.3 1457.66 Q1308.49 1461.2 1308.49 1468.33 Q1308.49 1475.44 1310.3 1479.01 Q1312.13 1482.55 1315.74 1482.55 Q1319.37 1482.55 1321.18 1479.01 Q1323.01 1475.44 1323.01 1468.33 Q1323.01 1461.2 1321.18 1457.66 Q1319.37 1454.1 1315.74 1454.1 M1315.74 1450.39 Q1321.55 1450.39 1324.6 1455 Q1327.68 1459.58 1327.68 1468.33 Q1327.68 1477.06 1324.6 1481.67 Q1321.55 1486.25 1315.74 1486.25 Q1309.93 1486.25 1306.85 1481.67 Q1303.79 1477.06 1303.79 1468.33 Q1303.79 1459.58 1306.85 1455 Q1309.93 1450.39 1315.74 1450.39 Z" fill="#000000" fill-rule="nonzero" fill-opacity="1" /><path clip-path="url(#clip090)" d="M1807.86 1466.44 Q1804.71 1466.44 1802.86 1468.59 Q1801.03 1470.74 1801.03 1474.49 Q1801.03 1478.22 1802.86 1480.39 Q1804.71 1482.55 1807.86 1482.55 Q1811.01 1482.55 1812.84 1480.39 Q1814.69 1478.22 1814.69 1474.49 Q1814.69 1470.74 1812.84 1468.59 Q1811.01 1466.44 1807.86 1466.44 M1817.14 1451.78 L1817.14 1456.04 Q1815.38 1455.21 1813.58 1454.77 Q1811.8 1454.33 1810.04 1454.33 Q1805.41 1454.33 1802.95 1457.45 Q1800.52 1460.58 1800.18 1466.9 Q1801.54 1464.89 1803.6 1463.82 Q1805.66 1462.73 1808.14 1462.73 Q1813.35 1462.73 1816.36 1465.9 Q1819.39 1469.05 1819.39 1474.49 Q1819.39 1479.82 1816.24 1483.03 Q1813.09 1486.25 1807.86 1486.25 Q1801.87 1486.25 1798.7 1481.67 Q1795.52 1477.06 1795.52 1468.33 Q1795.52 1460.14 1799.41 1455.28 Q1803.3 1450.39 1809.85 1450.39 Q1811.61 1450.39 1813.39 1450.74 Q1815.2 1451.09 1817.14 1451.78 Z" fill="#000000" fill-rule="nonzero" fill-opacity="1" /><path clip-path="url(#clip090)" d="M1837.45 1454.1 Q1833.83 1454.1 1832.01 1457.66 Q1830.2 1461.2 1830.2 1468.33 Q1830.2 1475.44 1832.01 1479.01 Q1833.83 1482.55 1837.45 1482.55 Q1841.08 1482.55 1842.88 1479.01 Q1844.71 1475.44 1844.71 1468.33 Q1844.71 1461.2 1842.88 1457.66 Q1841.08 1454.1 1837.45 1454.1 M1837.45 1450.39 Q1843.26 1450.39 1846.31 1455 Q1849.39 1459.58 1849.39 1468.33 Q1849.39 1477.06 1846.31 1481.67 Q1843.26 1486.25 1837.45 1486.25 Q1831.63 1486.25 1828.56 1481.67 Q1825.5 1477.06 1825.5 1468.33 Q1825.5 1459.58 1828.56 1455 Q1831.63 1450.39 1837.45 1450.39 Z" fill="#000000" fill-rule="nonzero" fill-opacity="1" /><path clip-path="url(#clip090)" d="M2329.53 1469.17 Q2326.2 1469.17 2324.28 1470.95 Q2322.38 1472.73 2322.38 1475.86 Q2322.38 1478.98 2324.28 1480.77 Q2326.2 1482.55 2329.53 1482.55 Q2332.87 1482.55 2334.79 1480.77 Q2336.71 1478.96 2336.71 1475.86 Q2336.71 1472.73 2334.79 1470.95 Q2332.89 1469.17 2329.53 1469.17 M2324.86 1467.18 Q2321.85 1466.44 2320.16 1464.38 Q2318.49 1462.32 2318.49 1459.35 Q2318.49 1455.21 2321.43 1452.8 Q2324.4 1450.39 2329.53 1450.39 Q2334.7 1450.39 2337.64 1452.8 Q2340.58 1455.21 2340.58 1459.35 Q2340.58 1462.32 2338.89 1464.38 Q2337.22 1466.44 2334.23 1467.18 Q2337.61 1467.96 2339.49 1470.26 Q2341.39 1472.55 2341.39 1475.86 Q2341.39 1480.88 2338.31 1483.57 Q2335.25 1486.25 2329.53 1486.25 Q2323.82 1486.25 2320.74 1483.57 Q2317.68 1480.88 2317.68 1475.86 Q2317.68 1472.55 2319.58 1470.26 Q2321.48 1467.96 2324.86 1467.18 M2323.15 1459.79 Q2323.15 1462.48 2324.81 1463.98 Q2326.5 1465.49 2329.53 1465.49 Q2332.54 1465.49 2334.23 1463.98 Q2335.95 1462.48 2335.95 1459.79 Q2335.95 1457.11 2334.23 1455.6 Q2332.54 1454.1 2329.53 1454.1 Q2326.5 1454.1 2324.81 1455.6 Q2323.15 1457.11 2323.15 1459.79 Z" fill="#000000" fill-rule="nonzero" fill-opacity="1" /><path clip-path="url(#clip090)" d="M2359.7 1454.1 Q2356.09 1454.1 2354.26 1457.66 Q2352.45 1461.2 2352.45 1468.33 Q2352.45 1475.44 2354.26 1479.01 Q2356.09 1482.55 2359.7 1482.55 Q2363.33 1482.55 2365.14 1479.01 Q2366.96 1475.44 2366.96 1468.33 Q2366.96 1461.2 2365.14 1457.66 Q2363.33 1454.1 2359.7 1454.1 M2359.7 1450.39 Q2365.51 1450.39 2368.56 1455 Q2371.64 1459.58 2371.64 1468.33 Q2371.64 1477.06 2368.56 1481.67 Q2365.51 1486.25 2359.7 1486.25 Q2353.89 1486.25 2350.81 1481.67 Q2347.75 1477.06 2347.75 1468.33 Q2347.75 1459.58 2350.81 1455 Q2353.89 1450.39 2359.7 1450.39 Z" fill="#000000" fill-rule="nonzero" fill-opacity="1" /><path clip-path="url(#clip090)" d="M1271.38 1518.52 L1277.27 1518.52 L1277.27 1547.77 L1294.74 1532.4 L1302.22 1532.4 L1283.31 1549.07 L1303.02 1568.04 L1295.38 1568.04 L1277.27 1550.63 L1277.27 1568.04 L1271.38 1568.04 L1271.38 1518.52 Z" fill="#000000" fill-rule="nonzero" fill-opacity="1" /><polyline clip-path="url(#clip092)" style="stroke:#000000; stroke-linecap:round; stroke-linejoin:round; stroke-width:2; stroke-opacity:0.1; fill:none" points="221.637,937.766 2352.76,937.766 "/>
<polyline clip-path="url(#clip092)" style="stroke:#000000; stroke-linecap:round; stroke-linejoin:round; stroke-width:2; stroke-opacity:0.1; fill:none" points="221.637,437.037 2352.76,437.037 "/>
<polyline clip-path="url(#clip090)" style="stroke:#000000; stroke-linecap:round; stroke-linejoin:round; stroke-width:4; stroke-opacity:1; fill:none" points="221.637,1423.18 221.637,123.472 "/>
<polyline clip-path="url(#clip090)" style="stroke:#000000; stroke-linecap:round; stroke-linejoin:round; stroke-width:4; stroke-opacity:1; fill:none" points="221.637,937.766 240.535,937.766 "/>
<polyline clip-path="url(#clip090)" style="stroke:#000000; stroke-linecap:round; stroke-linejoin:round; stroke-width:4; stroke-opacity:1; fill:none" points="221.637,437.037 240.535,437.037 "/>
<path clip-path="url(#clip090)" d="M114.931 957.559 L122.57 957.559 L122.57 931.193 L114.26 932.86 L114.26 928.6 L122.524 926.934 L127.2 926.934 L127.2 957.559 L134.839 957.559 L134.839 961.494 L114.931 961.494 L114.931 957.559 Z" fill="#000000" fill-rule="nonzero" fill-opacity="1" /><path clip-path="url(#clip090)" d="M154.283 930.012 Q150.672 930.012 148.843 933.577 Q147.038 937.119 147.038 944.248 Q147.038 951.355 148.843 954.92 Q150.672 958.461 154.283 958.461 Q157.917 958.461 159.723 954.92 Q161.552 951.355 161.552 944.248 Q161.552 937.119 159.723 933.577 Q157.917 930.012 154.283 930.012 M154.283 926.309 Q160.093 926.309 163.149 930.915 Q166.227 935.498 166.227 944.248 Q166.227 952.975 163.149 957.582 Q160.093 962.165 154.283 962.165 Q148.473 962.165 145.394 957.582 Q142.339 952.975 142.339 944.248 Q142.339 935.498 145.394 930.915 Q148.473 926.309 154.283 926.309 Z" fill="#000000" fill-rule="nonzero" fill-opacity="1" /><path clip-path="url(#clip090)" d="M175.932 908.505 Q172.998 908.505 171.512 911.401 Q170.045 914.279 170.045 920.071 Q170.045 925.845 171.512 928.742 Q172.998 931.619 175.932 931.619 Q178.885 931.619 180.352 928.742 Q181.838 925.845 181.838 920.071 Q181.838 914.279 180.352 911.401 Q178.885 908.505 175.932 908.505 M175.932 905.495 Q180.653 905.495 183.136 909.238 Q185.637 912.962 185.637 920.071 Q185.637 927.162 183.136 930.905 Q180.653 934.629 175.932 934.629 Q171.212 934.629 168.71 930.905 Q166.227 927.162 166.227 920.071 Q166.227 912.962 168.71 909.238 Q171.212 905.495 175.932 905.495 Z" fill="#000000" fill-rule="nonzero" fill-opacity="1" /><path clip-path="url(#clip090)" d="M116.511 456.829 L124.15 456.829 L124.15 430.464 L115.84 432.13 L115.84 427.871 L124.104 426.205 L128.78 426.205 L128.78 456.829 L136.419 456.829 L136.419 460.765 L116.511 460.765 L116.511 456.829 Z" fill="#000000" fill-rule="nonzero" fill-opacity="1" /><path clip-path="url(#clip090)" d="M155.863 429.283 Q152.252 429.283 150.423 432.848 Q148.618 436.39 148.618 443.519 Q148.618 450.626 150.423 454.19 Q152.252 457.732 155.863 457.732 Q159.497 457.732 161.303 454.19 Q163.131 450.626 163.131 443.519 Q163.131 436.39 161.303 432.848 Q159.497 429.283 155.863 429.283 M155.863 425.58 Q161.673 425.58 164.729 430.186 Q167.807 434.769 167.807 443.519 Q167.807 452.246 164.729 456.852 Q161.673 461.436 155.863 461.436 Q150.053 461.436 146.974 456.852 Q143.919 452.246 143.919 443.519 Q143.919 434.769 146.974 430.186 Q150.053 425.58 155.863 425.58 Z" fill="#000000" fill-rule="nonzero" fill-opacity="1" /><path clip-path="url(#clip090)" d="M172.378 430.157 L185.637 430.157 L185.637 433.354 L167.807 433.354 L167.807 430.157 Q169.97 427.919 173.694 424.157 Q177.437 420.377 178.396 419.286 Q180.22 417.236 180.935 415.825 Q181.669 414.396 181.669 413.023 Q181.669 410.785 180.089 409.374 Q178.528 407.964 176.008 407.964 Q174.221 407.964 172.227 408.584 Q170.252 409.205 167.995 410.465 L167.995 406.628 Q170.29 405.707 172.284 405.236 Q174.277 404.766 175.932 404.766 Q180.296 404.766 182.891 406.948 Q185.487 409.13 185.487 412.778 Q185.487 414.509 184.828 416.07 Q184.189 417.612 182.477 419.718 Q182.007 420.264 179.487 422.878 Q176.967 425.474 172.378 430.157 Z" fill="#000000" fill-rule="nonzero" fill-opacity="1" /><path clip-path="url(#clip090)" d="M32.4621 801.797 Q32.4621 806.507 36.1542 809.244 Q39.8145 811.982 46.212 811.982 Q52.6095 811.982 56.3017 809.276 Q59.9619 806.539 59.9619 801.797 Q59.9619 797.118 56.2698 794.381 Q52.5777 791.643 46.212 791.643 Q39.8781 791.643 36.186 794.381 Q32.4621 797.118 32.4621 801.797 M27.4968 801.797 Q27.4968 794.158 32.4621 789.797 Q37.4273 785.437 46.212 785.437 Q54.9649 785.437 59.9619 789.797 Q64.9272 794.158 64.9272 801.797 Q64.9272 809.467 59.9619 813.828 Q54.9649 818.156 46.212 818.156 Q37.4273 818.156 32.4621 813.828 Q27.4968 809.467 27.4968 801.797 Z" fill="#000000" fill-rule="nonzero" fill-opacity="1" /><path clip-path="url(#clip090)" d="M46.212 750.139 Q39.7508 750.139 36.0905 752.812 Q32.3984 755.454 32.3984 760.101 Q32.3984 764.748 36.0905 767.422 Q39.7508 770.064 46.212 770.064 Q52.6732 770.064 56.3653 767.422 Q60.0256 764.748 60.0256 760.101 Q60.0256 755.454 56.3653 752.812 Q52.6732 750.139 46.212 750.139 M33.7671 770.064 Q30.5842 768.218 29.0564 765.417 Q27.4968 762.584 27.4968 758.669 Q27.4968 752.176 32.6531 748.134 Q37.8093 744.06 46.212 744.06 Q54.6147 744.06 59.771 748.134 Q64.9272 752.176 64.9272 758.669 Q64.9272 762.584 63.3994 765.417 Q61.8398 768.218 58.657 770.064 L64.0042 770.064 L64.0042 775.952 L14.479 775.952 L14.479 770.064 L33.7671 770.064 Z" fill="#000000" fill-rule="nonzero" fill-opacity="1" /><path clip-path="url(#clip090)" d="M28.3562 734.352 L28.3562 728.495 L64.6407 728.495 Q71.452 728.495 74.5076 731.105 Q77.5631 733.684 77.5631 739.445 L77.5631 741.673 L72.5979 741.673 L72.5979 740.113 Q72.5979 736.771 71.0383 735.561 Q69.5105 734.352 64.6407 734.352 L28.3562 734.352 M14.479 734.352 L14.479 728.495 L21.895 728.495 L21.895 734.352 L14.479 734.352 Z" fill="#000000" fill-rule="nonzero" fill-opacity="1" /><path clip-path="url(#clip090)" d="M942.505 65.7705 L942.505 89.8329 L935.011 89.8329 L935.011 27.2059 L942.505 27.2059 L942.505 34.0924 Q944.855 30.0415 948.419 28.0971 Q952.025 26.1121 957.007 26.1121 Q965.271 26.1121 970.416 32.6746 Q975.601 39.2371 975.601 49.9314 Q975.601 60.6258 970.416 67.1883 Q965.271 73.7508 957.007 73.7508 Q952.025 73.7508 948.419 71.8063 Q944.855 69.8214 942.505 65.7705 M967.864 49.9314 Q967.864 41.7081 964.461 37.0496 Q961.099 32.3505 955.184 32.3505 Q949.27 32.3505 945.867 37.0496 Q942.505 41.7081 942.505 49.9314 Q942.505 58.1548 945.867 62.8538 Q949.27 67.5124 955.184 67.5124 Q961.099 67.5124 964.461 62.8538 Q967.864 58.1548 967.864 49.9314 Z" fill="#000000" fill-rule="nonzero" fill-opacity="1" /><path clip-path="url(#clip090)" d="M1014.25 34.1734 Q1012.99 33.4443 1011.49 33.1202 Q1010.03 32.7556 1008.25 32.7556 Q1001.93 32.7556 998.529 36.8875 Q995.167 40.9789 995.167 48.6757 L995.167 72.576 L987.673 72.576 L987.673 27.2059 L995.167 27.2059 L995.167 34.2544 Q997.516 30.1225 1001.28 28.1376 Q1005.05 26.1121 1010.44 26.1121 Q1011.21 26.1121 1012.14 26.2337 Q1013.07 26.3147 1014.21 26.5172 L1014.25 34.1734 Z" fill="#000000" fill-rule="nonzero" fill-opacity="1" /><path clip-path="url(#clip090)" d="M1037.82 32.4315 Q1031.83 32.4315 1028.34 37.1306 Q1024.86 41.7891 1024.86 49.9314 Q1024.86 58.0738 1028.3 62.7728 Q1031.79 67.4314 1037.82 67.4314 Q1043.78 67.4314 1047.26 62.7323 Q1050.75 58.0333 1050.75 49.9314 Q1050.75 41.8701 1047.26 37.1711 Q1043.78 32.4315 1037.82 32.4315 M1037.82 26.1121 Q1047.55 26.1121 1053.09 32.4315 Q1058.64 38.7509 1058.64 49.9314 Q1058.64 61.0714 1053.09 67.4314 Q1047.55 73.7508 1037.82 73.7508 Q1028.06 73.7508 1022.51 67.4314 Q1017 61.0714 1017 49.9314 Q1017 38.7509 1022.51 32.4315 Q1028.06 26.1121 1037.82 26.1121 Z" fill="#000000" fill-rule="nonzero" fill-opacity="1" /><path clip-path="url(#clip090)" d="M1103.57 49.9314 Q1103.57 41.7081 1100.17 37.0496 Q1096.8 32.3505 1090.89 32.3505 Q1084.98 32.3505 1081.57 37.0496 Q1078.21 41.7081 1078.21 49.9314 Q1078.21 58.1548 1081.57 62.8538 Q1084.98 67.5124 1090.89 67.5124 Q1096.8 67.5124 1100.17 62.8538 Q1103.57 58.1548 1103.57 49.9314 M1078.21 34.0924 Q1080.56 30.0415 1084.12 28.0971 Q1087.73 26.1121 1092.71 26.1121 Q1100.98 26.1121 1106.12 32.6746 Q1111.31 39.2371 1111.31 49.9314 Q1111.31 60.6258 1106.12 67.1883 Q1100.98 73.7508 1092.71 73.7508 Q1087.73 73.7508 1084.12 71.8063 Q1080.56 69.8214 1078.21 65.7705 L1078.21 72.576 L1070.72 72.576 L1070.72 9.54393 L1078.21 9.54393 L1078.21 34.0924 Z" fill="#000000" fill-rule="nonzero" fill-opacity="1" /><path clip-path="url(#clip090)" d="M1123.66 9.54393 L1131.12 9.54393 L1131.12 72.576 L1123.66 72.576 L1123.66 9.54393 Z" fill="#000000" fill-rule="nonzero" fill-opacity="1" /><path clip-path="url(#clip090)" d="M1185.52 48.0275 L1185.52 51.6733 L1151.25 51.6733 Q1151.73 59.3701 1155.87 63.421 Q1160.04 67.4314 1167.45 67.4314 Q1171.75 67.4314 1175.76 66.3781 Q1179.81 65.3249 1183.78 63.2184 L1183.78 70.267 Q1179.77 71.9684 1175.55 72.8596 Q1171.34 73.7508 1167.01 73.7508 Q1156.15 73.7508 1149.79 67.4314 Q1143.47 61.1119 1143.47 50.3365 Q1143.47 39.1965 1149.47 32.6746 Q1155.5 26.1121 1165.71 26.1121 Q1174.86 26.1121 1180.17 32.0264 Q1185.52 37.9003 1185.52 48.0275 M1178.07 45.84 Q1177.98 39.7232 1174.62 36.0774 Q1171.3 32.4315 1165.79 32.4315 Q1159.55 32.4315 1155.79 35.9558 Q1152.06 39.4801 1151.49 45.8805 L1178.07 45.84 M1159.39 6.22219 L1170.81 21.3726 L1164.62 21.3726 L1151.41 6.22219 L1159.39 6.22219 Z" fill="#000000" fill-rule="nonzero" fill-opacity="1" /><path clip-path="url(#clip090)" d="M1233.08 35.9153 Q1235.87 30.8922 1239.76 28.5022 Q1243.65 26.1121 1248.92 26.1121 Q1256 26.1121 1259.85 31.0947 Q1263.7 36.0368 1263.7 45.1919 L1263.7 72.576 L1256.21 72.576 L1256.21 45.4349 Q1256.21 38.913 1253.9 35.7533 Q1251.59 32.5936 1246.85 32.5936 Q1241.06 32.5936 1237.69 36.4419 Q1234.33 40.2903 1234.33 46.9338 L1234.33 72.576 L1226.84 72.576 L1226.84 45.4349 Q1226.84 38.8725 1224.53 35.7533 Q1222.22 32.5936 1217.4 32.5936 Q1211.69 32.5936 1208.33 36.4824 Q1204.96 40.3308 1204.96 46.9338 L1204.96 72.576 L1197.47 72.576 L1197.47 27.2059 L1204.96 27.2059 L1204.96 34.2544 Q1207.52 30.082 1211.08 28.0971 Q1214.64 26.1121 1219.55 26.1121 Q1224.49 26.1121 1227.93 28.6237 Q1231.42 31.1352 1233.08 35.9153 Z" fill="#000000" fill-rule="nonzero" fill-opacity="1" /><path clip-path="url(#clip090)" d="M1317.38 48.0275 L1317.38 51.6733 L1283.11 51.6733 Q1283.59 59.3701 1287.72 63.421 Q1291.9 67.4314 1299.31 67.4314 Q1303.6 67.4314 1307.61 66.3781 Q1311.66 65.3249 1315.63 63.2184 L1315.63 70.267 Q1311.62 71.9684 1307.41 72.8596 Q1303.2 73.7508 1298.86 73.7508 Q1288.01 73.7508 1281.65 67.4314 Q1275.33 61.1119 1275.33 50.3365 Q1275.33 39.1965 1281.32 32.6746 Q1287.36 26.1121 1297.57 26.1121 Q1306.72 26.1121 1312.03 32.0264 Q1317.38 37.9003 1317.38 48.0275 M1309.92 45.84 Q1309.84 39.7232 1306.48 36.0774 Q1303.16 32.4315 1297.65 32.4315 Q1291.41 32.4315 1287.64 35.9558 Q1283.92 39.4801 1283.35 45.8805 L1309.92 45.84 Z" fill="#000000" fill-rule="nonzero" fill-opacity="1" /><path clip-path="url(#clip090)" d="M1357.88 62.2867 L1366.43 62.2867 L1366.43 72.576 L1357.88 72.576 L1357.88 62.2867 M1357.88 29.6769 L1366.43 29.6769 L1366.43 39.9662 L1357.88 39.9662 L1357.88 29.6769 Z" fill="#000000" fill-rule="nonzero" fill-opacity="1" /><path clip-path="url(#clip090)" d="M1417.68 14.324 L1417.68 27.2059 L1433.03 27.2059 L1433.03 32.9987 L1417.68 32.9987 L1417.68 57.6282 Q1417.68 63.1779 1419.17 64.7578 Q1420.71 66.3376 1425.37 66.3376 L1433.03 66.3376 L1433.03 72.576 L1425.37 72.576 Q1416.74 72.576 1413.46 69.3758 Q1410.18 66.1351 1410.18 57.6282 L1410.18 32.9987 L1404.71 32.9987 L1404.71 27.2059 L1410.18 27.2059 L1410.18 14.324 L1417.68 14.324 Z" fill="#000000" fill-rule="nonzero" fill-opacity="1" /><path clip-path="url(#clip090)" d="M1450.04 65.7705 L1450.04 89.8329 L1442.55 89.8329 L1442.55 27.2059 L1450.04 27.2059 L1450.04 34.0924 Q1452.39 30.0415 1455.96 28.0971 Q1459.56 26.1121 1464.55 26.1121 Q1472.81 26.1121 1477.95 32.6746 Q1483.14 39.2371 1483.14 49.9314 Q1483.14 60.6258 1477.95 67.1883 Q1472.81 73.7508 1464.55 73.7508 Q1459.56 73.7508 1455.96 71.8063 Q1452.39 69.8214 1450.04 65.7705 M1475.4 49.9314 Q1475.4 41.7081 1472 37.0496 Q1468.64 32.3505 1462.72 32.3505 Q1456.81 32.3505 1453.41 37.0496 Q1450.04 41.7081 1450.04 49.9314 Q1450.04 58.1548 1453.41 62.8538 Q1456.81 67.5124 1462.72 67.5124 Q1468.64 67.5124 1472 62.8538 Q1475.4 58.1548 1475.4 49.9314 Z" fill="#000000" fill-rule="nonzero" fill-opacity="1" /><path clip-path="url(#clip090)" d="M1503.6 65.6895 L1532.15 65.6895 L1532.15 72.576 L1493.75 72.576 L1493.75 65.6895 Q1498.41 60.8689 1506.43 52.7671 Q1514.49 44.6248 1516.56 42.2752 Q1520.49 37.8598 1522.03 34.8216 Q1523.61 31.7429 1523.61 28.7857 Q1523.61 23.9651 1520.2 20.927 Q1516.84 17.8888 1511.41 17.8888 Q1507.57 17.8888 1503.27 19.2256 Q1499.02 20.5624 1494.16 23.2765 L1494.16 15.0127 Q1499.1 13.0277 1503.39 12.015 Q1507.69 11.0023 1511.25 11.0023 Q1520.65 11.0023 1526.24 15.7013 Q1531.83 20.4004 1531.83 28.2591 Q1531.83 31.9859 1530.41 35.3482 Q1529.04 38.6699 1525.35 43.2069 Q1524.34 44.3817 1518.91 50.0125 Q1513.48 55.6027 1503.6 65.6895 Z" fill="#000000" fill-rule="nonzero" fill-opacity="1" /><path clip-path="url(#clip090)" d="M1549.57 71.3202 L1549.57 63.8666 Q1552.65 65.3249 1555.81 66.0946 Q1558.97 66.8642 1562.01 66.8642 Q1570.11 66.8642 1574.37 61.436 Q1578.66 55.9673 1579.27 44.8678 Q1576.92 48.3516 1573.31 50.215 Q1569.71 52.0784 1565.33 52.0784 Q1556.26 52.0784 1550.95 46.6097 Q1545.68 41.1005 1545.68 31.5808 Q1545.68 22.2638 1551.19 16.633 Q1556.7 11.0023 1565.86 11.0023 Q1576.35 11.0023 1581.86 19.0636 Q1587.41 27.0843 1587.41 42.3968 Q1587.41 56.6965 1580.6 65.2439 Q1573.84 73.7508 1562.37 73.7508 Q1559.3 73.7508 1556.14 73.1431 Q1552.98 72.5355 1549.57 71.3202 M1565.86 45.678 Q1571.37 45.678 1574.57 41.9107 Q1577.81 38.1433 1577.81 31.5808 Q1577.81 25.0589 1574.57 21.2916 Q1571.37 17.4837 1565.86 17.4837 Q1560.35 17.4837 1557.11 21.2916 Q1553.91 25.0589 1553.91 31.5808 Q1553.91 38.1433 1557.11 41.9107 Q1560.35 45.678 1565.86 45.678 Z" fill="#000000" fill-rule="nonzero" fill-opacity="1" /><path clip-path="url(#clip090)" d="M1626.91 39.9662 Q1632.78 41.222 1636.06 45.1919 Q1639.38 49.1618 1639.38 54.9951 Q1639.38 63.9476 1633.22 68.8492 Q1627.07 73.7508 1615.72 73.7508 Q1611.92 73.7508 1607.87 72.9811 Q1603.86 72.2519 1599.56 70.7531 L1599.56 62.8538 Q1602.96 64.8388 1607.02 65.8515 Q1611.07 66.8642 1615.48 66.8642 Q1623.18 66.8642 1627.19 63.826 Q1631.24 60.7879 1631.24 54.9951 Q1631.24 49.6479 1627.47 46.6502 Q1623.75 43.612 1617.06 43.612 L1610.01 43.612 L1610.01 36.8875 L1617.39 36.8875 Q1623.42 36.8875 1626.62 34.4975 Q1629.82 32.067 1629.82 27.5299 Q1629.82 22.8714 1626.5 20.4004 Q1623.22 17.8888 1617.06 17.8888 Q1613.7 17.8888 1609.85 18.618 Q1606 19.3471 1601.38 20.8865 L1601.38 13.5948 Q1606.04 12.2985 1610.09 11.6504 Q1614.19 11.0023 1617.79 11.0023 Q1627.11 11.0023 1632.54 15.2557 Q1637.96 19.4686 1637.96 26.6793 Q1637.96 31.7024 1635.09 35.1862 Q1632.21 38.6294 1626.91 39.9662 Z" fill="#000000" fill-rule="nonzero" fill-opacity="1" /><polyline clip-path="url(#clip092)" style="stroke:#009af9; stroke-linecap:round; stroke-linejoin:round; stroke-width:4; stroke-opacity:1; fill:none" points="281.952,160.256 308.062,298.194 334.172,352.606 360.283,423.149 386.393,471.978 412.503,471.978 438.613,471.978 464.724,471.978 490.834,471.978 516.944,471.978 543.054,471.978 569.165,471.978 595.275,471.978 621.385,471.978 647.495,502.019 673.606,502.019 699.716,601.34 725.826,632.67 751.936,639.706 778.047,657.823 804.157,666.849 830.267,680.223 856.377,690.708 882.488,702.046 908.598,712.826 934.708,723.513 960.818,733.99 986.929,744.214 1013.04,754.086 1039.15,763.473 1065.26,772.238 1091.37,780.294 1117.48,792.304 1143.59,793.969 1169.7,805.536 1195.81,813.761 1221.92,824.685 1248.03,833.804 1274.14,833.804 1300.25,841.958 1326.36,849.357 1352.47,856.57 1378.58,868.055 1404.69,886.66 1430.8,911.657 1456.91,917.396 1483.02,925.609 1509.13,935.019 1535.24,943.964 1561.35,950.568 1587.46,957.811 1613.57,962.967 1639.68,963.216 1665.8,968.109 1691.91,975.02 1718.02,975.02 1744.13,981.322 1770.24,992.348 1796.35,1011.08 1822.46,1038.25 1848.57,1038.25 1874.68,1045.21 1900.79,1055.03 1926.9,1071.25 1953.01,1077.57 1979.12,1084.54 2005.23,1096.53 2031.34,1096.53 2057.45,1108.13 2083.56,1117.94 2109.67,1127.25 2135.78,1141.55 2161.89,1162.96 2188,1193.15 2214.11,1231.95 2240.22,1278.08 2266.33,1330.02 2292.44,1386.4 "/>
<polyline clip-path="url(#clip092)" style="stroke:#e26f46; stroke-linecap:round; stroke-linejoin:round; stroke-width:4; stroke-opacity:1; fill:none" points="281.952,160.256 308.062,298.194 334.172,352.606 360.283,423.149 386.393,471.978 412.503,471.978 438.613,471.978 464.724,471.978 490.834,471.978 516.944,471.978 543.054,471.978 569.165,471.978 595.275,471.978 621.385,471.978 647.495,502.019 673.606,502.019 699.716,601.34 725.826,632.67 751.936,639.706 778.047,657.823 804.157,666.849 830.267,680.223 856.377,690.708 882.488,702.046 908.598,712.826 934.708,723.513 960.818,733.99 986.929,744.214 1013.04,754.086 1039.15,763.473 1065.26,772.238 1091.37,780.294 1117.48,792.304 1143.59,793.969 1169.7,805.536 1195.81,813.761 1221.92,824.685 1248.03,833.804 1274.14,833.804 1300.25,841.958 1326.36,849.357 1352.47,856.57 1378.58,868.055 1404.69,886.66 1430.8,911.657 1456.91,917.396 1483.02,925.609 1509.13,935.019 1535.24,943.964 1561.35,950.568 1587.46,957.811 1613.57,962.967 1639.68,963.216 1665.8,968.109 1691.91,975.02 1718.02,975.02 1744.13,981.322 1770.24,992.348 1796.35,1011.08 1822.46,1038.25 1848.57,1038.25 1874.68,1045.21 1900.79,1055.03 1926.9,1071.25 1953.01,1077.57 1979.12,1084.54 2005.23,1096.53 2031.34,1096.53 2057.45,1108.13 2083.56,1117.94 2109.67,1127.25 2135.78,1141.55 2161.89,1162.96 2188,1193.15 2214.11,1231.95 2240.22,1278.08 2266.33,1330.02 2292.44,1386.4 "/>
<path clip-path="url(#clip090)" d="M1497.04 322.316 L2281.72 322.316 L2281.72 166.796 L1497.04 166.796  Z" fill="#ffffff" fill-rule="evenodd" fill-opacity="1"/>
<polyline clip-path="url(#clip090)" style="stroke:#000000; stroke-linecap:round; stroke-linejoin:round; stroke-width:4; stroke-opacity:1; fill:none" points="1497.04,322.316 2281.72,322.316 2281.72,166.796 1497.04,166.796 1497.04,322.316 "/>
<polyline clip-path="url(#clip090)" style="stroke:#009af9; stroke-linecap:round; stroke-linejoin:round; stroke-width:4; stroke-opacity:1; fill:none" points="1520.71,218.636 1662.79,218.636 "/>
<path clip-path="url(#clip090)" d="M1686.47 201.356 L1691.14 201.356 L1691.14 231.981 L1707.97 231.981 L1707.97 235.916 L1686.47 235.916 L1686.47 201.356 Z" fill="#000000" fill-rule="nonzero" fill-opacity="1" /><path clip-path="url(#clip090)" d="M1712.88 201.356 L1719.85 201.356 L1728.67 224.874 L1737.53 201.356 L1744.5 201.356 L1744.5 235.916 L1739.94 235.916 L1739.94 205.569 L1731.03 229.272 L1726.33 229.272 L1717.42 205.569 L1717.42 235.916 L1712.88 235.916 L1712.88 201.356 Z" fill="#000000" fill-rule="nonzero" fill-opacity="1" /><path clip-path="url(#clip090)" d="M1773.3 243.786 L1773.3 247.096 L1748.67 247.096 L1748.67 243.786 L1773.3 243.786 Z" fill="#000000" fill-rule="nonzero" fill-opacity="1" /><path clip-path="url(#clip090)" d="M1789.04 205.962 L1782.69 223.161 L1795.4 223.161 L1789.04 205.962 M1786.4 201.356 L1791.7 201.356 L1804.87 235.916 L1800.01 235.916 L1796.86 227.05 L1781.28 227.05 L1778.13 235.916 L1773.2 235.916 L1786.4 201.356 Z" fill="#000000" fill-rule="nonzero" fill-opacity="1" /><path clip-path="url(#clip090)" d="M1831.28 220.268 L1831.28 235.916 L1827.02 235.916 L1827.02 220.407 Q1827.02 216.726 1825.59 214.897 Q1824.15 213.069 1821.28 213.069 Q1817.83 213.069 1815.84 215.268 Q1813.85 217.467 1813.85 221.263 L1813.85 235.916 L1809.57 235.916 L1809.57 209.99 L1813.85 209.99 L1813.85 214.018 Q1815.38 211.68 1817.44 210.522 Q1819.52 209.365 1822.23 209.365 Q1826.7 209.365 1828.99 212.143 Q1831.28 214.897 1831.28 220.268 Z" fill="#000000" fill-rule="nonzero" fill-opacity="1" /><path clip-path="url(#clip090)" d="M1856.84 213.925 L1856.84 199.897 L1861.1 199.897 L1861.1 235.916 L1856.84 235.916 L1856.84 232.027 Q1855.5 234.342 1853.44 235.476 Q1851.4 236.587 1848.53 236.587 Q1843.83 236.587 1840.87 232.837 Q1837.93 229.087 1837.93 222.976 Q1837.93 216.865 1840.87 213.115 Q1843.83 209.365 1848.53 209.365 Q1851.4 209.365 1853.44 210.499 Q1855.5 211.61 1856.84 213.925 M1842.32 222.976 Q1842.32 227.675 1844.25 230.36 Q1846.19 233.022 1849.57 233.022 Q1852.95 233.022 1854.89 230.36 Q1856.84 227.675 1856.84 222.976 Q1856.84 218.277 1854.89 215.615 Q1852.95 212.93 1849.57 212.93 Q1846.19 212.93 1844.25 215.615 Q1842.32 218.277 1842.32 222.976 Z" fill="#000000" fill-rule="nonzero" fill-opacity="1" /><path clip-path="url(#clip090)" d="M1884.89 213.971 Q1884.18 213.555 1883.32 213.37 Q1882.49 213.161 1881.47 213.161 Q1877.86 213.161 1875.91 215.522 Q1873.99 217.86 1873.99 222.258 L1873.99 235.916 L1869.71 235.916 L1869.71 209.99 L1873.99 209.99 L1873.99 214.018 Q1875.33 211.657 1877.49 210.522 Q1879.64 209.365 1882.72 209.365 Q1883.16 209.365 1883.69 209.434 Q1884.22 209.481 1884.87 209.596 L1884.89 213.971 Z" fill="#000000" fill-rule="nonzero" fill-opacity="1" /><path clip-path="url(#clip090)" d="M1910.5 221.888 L1910.5 223.971 L1890.91 223.971 Q1891.19 228.369 1893.55 230.684 Q1895.93 232.976 1900.17 232.976 Q1902.62 232.976 1904.92 232.374 Q1907.23 231.772 1909.5 230.569 L1909.5 234.596 Q1907.21 235.568 1904.8 236.078 Q1902.39 236.587 1899.92 236.587 Q1893.71 236.587 1890.08 232.976 Q1886.47 229.365 1886.47 223.207 Q1886.47 216.842 1889.89 213.115 Q1893.34 209.365 1899.18 209.365 Q1904.41 209.365 1907.44 212.745 Q1910.5 216.101 1910.5 221.888 M1906.24 220.638 Q1906.19 217.143 1904.27 215.059 Q1902.37 212.976 1899.22 212.976 Q1895.66 212.976 1893.5 214.99 Q1891.37 217.004 1891.05 220.661 L1906.24 220.638 Z" fill="#000000" fill-rule="nonzero" fill-opacity="1" /><path clip-path="url(#clip090)" d="M1917.49 209.99 L1921.75 209.99 L1921.75 235.916 L1917.49 235.916 L1917.49 209.99 M1917.49 199.897 L1921.75 199.897 L1921.75 205.291 L1917.49 205.291 L1917.49 199.897 Z" fill="#000000" fill-rule="nonzero" fill-opacity="1" /><path clip-path="url(#clip090)" d="M1950.36 243.786 L1950.36 247.096 L1925.73 247.096 L1925.73 243.786 L1950.36 243.786 Z" fill="#000000" fill-rule="nonzero" fill-opacity="1" /><path clip-path="url(#clip090)" d="M1966.14 222.883 Q1960.98 222.883 1958.99 224.064 Q1957 225.244 1957 228.092 Q1957 230.36 1958.48 231.703 Q1959.99 233.022 1962.55 233.022 Q1966.1 233.022 1968.23 230.522 Q1970.38 227.999 1970.38 223.832 L1970.38 222.883 L1966.14 222.883 M1974.64 221.124 L1974.64 235.916 L1970.38 235.916 L1970.38 231.981 Q1968.92 234.342 1966.74 235.476 Q1964.57 236.587 1961.42 236.587 Q1957.44 236.587 1955.08 234.365 Q1952.74 232.119 1952.74 228.369 Q1952.74 223.994 1955.66 221.772 Q1958.6 219.55 1964.41 219.55 L1970.38 219.55 L1970.38 219.133 Q1970.38 216.194 1968.43 214.596 Q1966.51 212.976 1963.02 212.976 Q1960.8 212.976 1958.69 213.508 Q1956.58 214.041 1954.64 215.106 L1954.64 211.17 Q1956.98 210.268 1959.18 209.828 Q1961.37 209.365 1963.46 209.365 Q1969.08 209.365 1971.86 212.282 Q1974.64 215.198 1974.64 221.124 Z" fill="#000000" fill-rule="nonzero" fill-opacity="1" /><path clip-path="url(#clip090)" d="M1983.41 199.897 L1987.67 199.897 L1987.67 235.916 L1983.41 235.916 L1983.41 199.897 Z" fill="#000000" fill-rule="nonzero" fill-opacity="1" /><path clip-path="url(#clip090)" d="M2000.8 202.629 L2000.8 209.99 L2009.57 209.99 L2009.57 213.3 L2000.8 213.3 L2000.8 227.374 Q2000.8 230.545 2001.65 231.448 Q2002.53 232.351 2005.19 232.351 L2009.57 232.351 L2009.57 235.916 L2005.19 235.916 Q2000.26 235.916 1998.39 234.087 Q1996.51 232.235 1996.51 227.374 L1996.51 213.3 L1993.39 213.3 L1993.39 209.99 L1996.51 209.99 L1996.51 202.629 L2000.8 202.629 Z" fill="#000000" fill-rule="nonzero" fill-opacity="1" /><polyline clip-path="url(#clip090)" style="stroke:#e26f46; stroke-linecap:round; stroke-linejoin:round; stroke-width:4; stroke-opacity:1; fill:none" points="1520.71,270.476 1662.79,270.476 "/>
<path clip-path="url(#clip090)" d="M1686.47 253.196 L1691.14 253.196 L1691.14 283.821 L1707.97 283.821 L1707.97 287.756 L1686.47 287.756 L1686.47 253.196 Z" fill="#000000" fill-rule="nonzero" fill-opacity="1" /><path clip-path="url(#clip090)" d="M1712.88 253.196 L1719.85 253.196 L1728.67 276.714 L1737.53 253.196 L1744.5 253.196 L1744.5 287.756 L1739.94 287.756 L1739.94 257.409 L1731.03 281.112 L1726.33 281.112 L1717.42 257.409 L1717.42 287.756 L1712.88 287.756 L1712.88 253.196 Z" fill="#000000" fill-rule="nonzero" fill-opacity="1" /><path clip-path="url(#clip090)" d="M1773.3 295.626 L1773.3 298.936 L1748.67 298.936 L1748.67 295.626 L1773.3 295.626 Z" fill="#000000" fill-rule="nonzero" fill-opacity="1" /><path clip-path="url(#clip090)" d="M1789.04 257.802 L1782.69 275.001 L1795.4 275.001 L1789.04 257.802 M1786.4 253.196 L1791.7 253.196 L1804.87 287.756 L1800.01 287.756 L1796.86 278.89 L1781.28 278.89 L1778.13 287.756 L1773.2 287.756 L1786.4 253.196 Z" fill="#000000" fill-rule="nonzero" fill-opacity="1" /><path clip-path="url(#clip090)" d="M1831.28 272.108 L1831.28 287.756 L1827.02 287.756 L1827.02 272.247 Q1827.02 268.566 1825.59 266.737 Q1824.15 264.909 1821.28 264.909 Q1817.83 264.909 1815.84 267.108 Q1813.85 269.307 1813.85 273.103 L1813.85 287.756 L1809.57 287.756 L1809.57 261.83 L1813.85 261.83 L1813.85 265.858 Q1815.38 263.52 1817.44 262.362 Q1819.52 261.205 1822.23 261.205 Q1826.7 261.205 1828.99 263.983 Q1831.28 266.737 1831.28 272.108 Z" fill="#000000" fill-rule="nonzero" fill-opacity="1" /><path clip-path="url(#clip090)" d="M1856.84 265.765 L1856.84 251.737 L1861.1 251.737 L1861.1 287.756 L1856.84 287.756 L1856.84 283.867 Q1855.5 286.182 1853.44 287.316 Q1851.4 288.427 1848.53 288.427 Q1843.83 288.427 1840.87 284.677 Q1837.93 280.927 1837.93 274.816 Q1837.93 268.705 1840.87 264.955 Q1843.83 261.205 1848.53 261.205 Q1851.4 261.205 1853.44 262.339 Q1855.5 263.45 1856.84 265.765 M1842.32 274.816 Q1842.32 279.515 1844.25 282.2 Q1846.19 284.862 1849.57 284.862 Q1852.95 284.862 1854.89 282.2 Q1856.84 279.515 1856.84 274.816 Q1856.84 270.117 1854.89 267.455 Q1852.95 264.77 1849.57 264.77 Q1846.19 264.77 1844.25 267.455 Q1842.32 270.117 1842.32 274.816 Z" fill="#000000" fill-rule="nonzero" fill-opacity="1" /><path clip-path="url(#clip090)" d="M1884.89 265.811 Q1884.18 265.395 1883.32 265.21 Q1882.49 265.001 1881.47 265.001 Q1877.86 265.001 1875.91 267.362 Q1873.99 269.7 1873.99 274.098 L1873.99 287.756 L1869.71 287.756 L1869.71 261.83 L1873.99 261.83 L1873.99 265.858 Q1875.33 263.497 1877.49 262.362 Q1879.64 261.205 1882.72 261.205 Q1883.16 261.205 1883.69 261.274 Q1884.22 261.321 1884.87 261.436 L1884.89 265.811 Z" fill="#000000" fill-rule="nonzero" fill-opacity="1" /><path clip-path="url(#clip090)" d="M1910.5 273.728 L1910.5 275.811 L1890.91 275.811 Q1891.19 280.209 1893.55 282.524 Q1895.93 284.816 1900.17 284.816 Q1902.62 284.816 1904.92 284.214 Q1907.23 283.612 1909.5 282.409 L1909.5 286.436 Q1907.21 287.408 1904.8 287.918 Q1902.39 288.427 1899.92 288.427 Q1893.71 288.427 1890.08 284.816 Q1886.47 281.205 1886.47 275.047 Q1886.47 268.682 1889.89 264.955 Q1893.34 261.205 1899.18 261.205 Q1904.41 261.205 1907.44 264.585 Q1910.5 267.941 1910.5 273.728 M1906.24 272.478 Q1906.19 268.983 1904.27 266.899 Q1902.37 264.816 1899.22 264.816 Q1895.66 264.816 1893.5 266.83 Q1891.37 268.844 1891.05 272.501 L1906.24 272.478 Z" fill="#000000" fill-rule="nonzero" fill-opacity="1" /><path clip-path="url(#clip090)" d="M1917.49 261.83 L1921.75 261.83 L1921.75 287.756 L1917.49 287.756 L1917.49 261.83 M1917.49 251.737 L1921.75 251.737 L1921.75 257.131 L1917.49 257.131 L1917.49 251.737 Z" fill="#000000" fill-rule="nonzero" fill-opacity="1" /><path clip-path="url(#clip090)" d="M1950.36 295.626 L1950.36 298.936 L1925.73 298.936 L1925.73 295.626 L1950.36 295.626 Z" fill="#000000" fill-rule="nonzero" fill-opacity="1" /><path clip-path="url(#clip090)" d="M1966.14 274.723 Q1960.98 274.723 1958.99 275.904 Q1957 277.084 1957 279.932 Q1957 282.2 1958.48 283.543 Q1959.99 284.862 1962.55 284.862 Q1966.1 284.862 1968.23 282.362 Q1970.38 279.839 1970.38 275.672 L1970.38 274.723 L1966.14 274.723 M1974.64 272.964 L1974.64 287.756 L1970.38 287.756 L1970.38 283.821 Q1968.92 286.182 1966.74 287.316 Q1964.57 288.427 1961.42 288.427 Q1957.44 288.427 1955.08 286.205 Q1952.74 283.959 1952.74 280.209 Q1952.74 275.834 1955.66 273.612 Q1958.6 271.39 1964.41 271.39 L1970.38 271.39 L1970.38 270.973 Q1970.38 268.034 1968.43 266.436 Q1966.51 264.816 1963.02 264.816 Q1960.8 264.816 1958.69 265.348 Q1956.58 265.881 1954.64 266.946 L1954.64 263.01 Q1956.98 262.108 1959.18 261.668 Q1961.37 261.205 1963.46 261.205 Q1969.08 261.205 1971.86 264.122 Q1974.64 267.038 1974.64 272.964 Z" fill="#000000" fill-rule="nonzero" fill-opacity="1" /><path clip-path="url(#clip090)" d="M1983.41 251.737 L1987.67 251.737 L1987.67 287.756 L1983.41 287.756 L1983.41 251.737 Z" fill="#000000" fill-rule="nonzero" fill-opacity="1" /><path clip-path="url(#clip090)" d="M2000.8 254.469 L2000.8 261.83 L2009.57 261.83 L2009.57 265.14 L2000.8 265.14 L2000.8 279.214 Q2000.8 282.385 2001.65 283.288 Q2002.53 284.191 2005.19 284.191 L2009.57 284.191 L2009.57 287.756 L2005.19 287.756 Q2000.26 287.756 1998.39 285.927 Q1996.51 284.075 1996.51 279.214 L1996.51 265.14 L1993.39 265.14 L1993.39 261.83 L1996.51 261.83 L1996.51 254.469 L2000.8 254.469 Z" fill="#000000" fill-rule="nonzero" fill-opacity="1" /><path clip-path="url(#clip090)" d="M2034.87 295.626 L2034.87 298.936 L2010.24 298.936 L2010.24 295.626 L2034.87 295.626 Z" fill="#000000" fill-rule="nonzero" fill-opacity="1" /><path clip-path="url(#clip090)" d="M2041.42 274.816 Q2041.42 279.515 2043.34 282.2 Q2045.29 284.862 2048.67 284.862 Q2052.05 284.862 2053.99 282.2 Q2055.93 279.515 2055.93 274.816 Q2055.93 270.117 2053.99 267.455 Q2052.05 264.77 2048.67 264.77 Q2045.29 264.77 2043.34 267.455 Q2041.42 270.117 2041.42 274.816 M2055.93 283.867 Q2054.59 286.182 2052.53 287.316 Q2050.49 288.427 2047.62 288.427 Q2042.92 288.427 2039.96 284.677 Q2037.02 280.927 2037.02 274.816 Q2037.02 268.705 2039.96 264.955 Q2042.92 261.205 2047.62 261.205 Q2050.49 261.205 2052.53 262.339 Q2054.59 263.45 2055.93 265.765 L2055.93 261.83 L2060.19 261.83 L2060.19 297.617 L2055.93 297.617 L2055.93 283.867 Z" fill="#000000" fill-rule="nonzero" fill-opacity="1" /><path clip-path="url(#clip090)" d="M2083.99 265.811 Q2083.27 265.395 2082.42 265.21 Q2081.58 265.001 2080.56 265.001 Q2076.95 265.001 2075.01 267.362 Q2073.09 269.7 2073.09 274.098 L2073.09 287.756 L2068.8 287.756 L2068.8 261.83 L2073.09 261.83 L2073.09 265.858 Q2074.43 263.497 2076.58 262.362 Q2078.73 261.205 2081.81 261.205 Q2082.25 261.205 2082.79 261.274 Q2083.32 261.321 2083.97 261.436 L2083.99 265.811 Z" fill="#000000" fill-rule="nonzero" fill-opacity="1" /><path clip-path="url(#clip090)" d="M2107.81 266.807 Q2109.41 263.936 2111.63 262.571 Q2113.85 261.205 2116.86 261.205 Q2120.91 261.205 2123.11 264.052 Q2125.31 266.876 2125.31 272.108 L2125.31 287.756 L2121.03 287.756 L2121.03 272.247 Q2121.03 268.52 2119.71 266.714 Q2118.39 264.909 2115.68 264.909 Q2112.37 264.909 2110.45 267.108 Q2108.53 269.307 2108.53 273.103 L2108.53 287.756 L2104.24 287.756 L2104.24 272.247 Q2104.24 268.497 2102.92 266.714 Q2101.61 264.909 2098.85 264.909 Q2095.59 264.909 2093.67 267.131 Q2091.74 269.33 2091.74 273.103 L2091.74 287.756 L2087.46 287.756 L2087.46 261.83 L2091.74 261.83 L2091.74 265.858 Q2093.2 263.473 2095.24 262.339 Q2097.28 261.205 2100.08 261.205 Q2102.9 261.205 2104.87 262.64 Q2106.86 264.075 2107.81 266.807 Z" fill="#000000" fill-rule="nonzero" fill-opacity="1" /><path clip-path="url(#clip090)" d="M2133.36 277.524 L2133.36 261.83 L2137.62 261.83 L2137.62 277.362 Q2137.62 281.043 2139.06 282.895 Q2140.49 284.723 2143.36 284.723 Q2146.81 284.723 2148.8 282.524 Q2150.82 280.325 2150.82 276.529 L2150.82 261.83 L2155.08 261.83 L2155.08 287.756 L2150.82 287.756 L2150.82 283.774 Q2149.27 286.135 2147.21 287.293 Q2145.17 288.427 2142.46 288.427 Q2137.99 288.427 2135.68 285.649 Q2133.36 282.871 2133.36 277.524 M2144.08 261.205 L2144.08 261.205 Z" fill="#000000" fill-rule="nonzero" fill-opacity="1" /><path clip-path="url(#clip090)" d="M2184.04 266.807 Q2185.63 263.936 2187.85 262.571 Q2190.08 261.205 2193.09 261.205 Q2197.14 261.205 2199.34 264.052 Q2201.54 266.876 2201.54 272.108 L2201.54 287.756 L2197.25 287.756 L2197.25 272.247 Q2197.25 268.52 2195.93 266.714 Q2194.61 264.909 2191.91 264.909 Q2188.6 264.909 2186.67 267.108 Q2184.75 269.307 2184.75 273.103 L2184.75 287.756 L2180.47 287.756 L2180.47 272.247 Q2180.47 268.497 2179.15 266.714 Q2177.83 264.909 2175.08 264.909 Q2171.81 264.909 2169.89 267.131 Q2167.97 269.33 2167.97 273.103 L2167.97 287.756 L2163.69 287.756 L2163.69 261.83 L2167.97 261.83 L2167.97 265.858 Q2169.43 263.473 2171.47 262.339 Q2173.5 261.205 2176.3 261.205 Q2179.13 261.205 2181.1 262.64 Q2183.09 264.075 2184.04 266.807 Z" fill="#000000" fill-rule="nonzero" fill-opacity="1" /><path clip-path="url(#clip090)" d="M2214.15 283.867 L2214.15 297.617 L2209.87 297.617 L2209.87 261.83 L2214.15 261.83 L2214.15 265.765 Q2215.49 263.45 2217.53 262.339 Q2219.59 261.205 2222.44 261.205 Q2227.16 261.205 2230.1 264.955 Q2233.06 268.705 2233.06 274.816 Q2233.06 280.927 2230.1 284.677 Q2227.16 288.427 2222.44 288.427 Q2219.59 288.427 2217.53 287.316 Q2215.49 286.182 2214.15 283.867 M2228.64 274.816 Q2228.64 270.117 2226.7 267.455 Q2224.78 264.77 2221.4 264.77 Q2218.02 264.77 2216.07 267.455 Q2214.15 270.117 2214.15 274.816 Q2214.15 279.515 2216.07 282.2 Q2218.02 284.862 2221.4 284.862 Q2224.78 284.862 2226.7 282.2 Q2228.64 279.515 2228.64 274.816 Z" fill="#000000" fill-rule="nonzero" fill-opacity="1" /><path clip-path="url(#clip090)" d="M2256.65 262.594 L2256.65 266.622 Q2254.85 265.696 2252.9 265.233 Q2250.96 264.77 2248.87 264.77 Q2245.7 264.77 2244.1 265.742 Q2242.53 266.714 2242.53 268.659 Q2242.53 270.14 2243.66 270.997 Q2244.8 271.83 2248.22 272.594 L2249.68 272.918 Q2254.22 273.89 2256.12 275.672 Q2258.04 277.432 2258.04 280.603 Q2258.04 284.214 2255.17 286.321 Q2252.32 288.427 2247.32 288.427 Q2245.24 288.427 2242.97 288.01 Q2240.72 287.617 2238.22 286.807 L2238.22 282.409 Q2240.59 283.635 2242.88 284.26 Q2245.17 284.862 2247.41 284.862 Q2250.42 284.862 2252.04 283.844 Q2253.66 282.802 2253.66 280.927 Q2253.66 279.191 2252.48 278.265 Q2251.33 277.339 2247.37 276.483 L2245.89 276.135 Q2241.93 275.302 2240.17 273.589 Q2238.41 271.853 2238.41 268.844 Q2238.41 265.186 2241 263.196 Q2243.6 261.205 2248.36 261.205 Q2250.72 261.205 2252.81 261.552 Q2254.89 261.899 2256.65 262.594 Z" fill="#000000" fill-rule="nonzero" fill-opacity="1" /></svg>
