<?xml version="1.0" encoding="utf-8"?>
<svg xmlns="http://www.w3.org/2000/svg" xmlns:xlink="http://www.w3.org/1999/xlink" width="600" height="400" viewBox="0 0 2400 1600">
<defs>
  <clipPath id="clip980">
    <rect x="0" y="0" width="2400" height="1600"/>
  </clipPath>
</defs>
<path clip-path="url(#clip980)" d="M0 1600 L2400 1600 L2400 0 L0 0  Z" fill="#ffffff" fill-rule="evenodd" fill-opacity="1"/>
<defs>
  <clipPath id="clip981">
    <rect x="480" y="0" width="1681" height="1600"/>
  </clipPath>
</defs>
<path clip-path="url(#clip980)" d="M251.842 1423.18 L2352.76 1423.18 L2352.76 123.472 L251.842 123.472  Z" fill="#ffffff" fill-rule="evenodd" fill-opacity="1"/>
<defs>
  <clipPath id="clip982">
    <rect x="251" y="123" width="2102" height="1301"/>
  </clipPath>
</defs>
<polyline clip-path="url(#clip982)" style="stroke:#000000; stroke-linecap:round; stroke-linejoin:round; stroke-width:2; stroke-opacity:0.1; fill:none" points="306.682,1423.18 306.682,123.472 "/>
<polyline clip-path="url(#clip982)" style="stroke:#000000; stroke-linecap:round; stroke-linejoin:round; stroke-width:2; stroke-opacity:0.1; fill:none" points="768.685,1423.18 768.685,123.472 "/>
<polyline clip-path="url(#clip982)" style="stroke:#000000; stroke-linecap:round; stroke-linejoin:round; stroke-width:2; stroke-opacity:0.1; fill:none" points="1230.69,1423.18 1230.69,123.472 "/>
<polyline clip-path="url(#clip982)" style="stroke:#000000; stroke-linecap:round; stroke-linejoin:round; stroke-width:2; stroke-opacity:0.1; fill:none" points="1692.69,1423.18 1692.69,123.472 "/>
<polyline clip-path="url(#clip982)" style="stroke:#000000; stroke-linecap:round; stroke-linejoin:round; stroke-width:2; stroke-opacity:0.1; fill:none" points="2154.7,1423.18 2154.7,123.472 "/>
<polyline clip-path="url(#clip980)" style="stroke:#000000; stroke-linecap:round; stroke-linejoin:round; stroke-width:4; stroke-opacity:1; fill:none" points="251.842,1423.18 2352.76,1423.18 "/>
<polyline clip-path="url(#clip980)" style="stroke:#000000; stroke-linecap:round; stroke-linejoin:round; stroke-width:4; stroke-opacity:1; fill:none" points="306.682,1423.18 306.682,1404.28 "/>
<polyline clip-path="url(#clip980)" style="stroke:#000000; stroke-linecap:round; stroke-linejoin:round; stroke-width:4; stroke-opacity:1; fill:none" points="768.685,1423.18 768.685,1404.28 "/>
<polyline clip-path="url(#clip980)" style="stroke:#000000; stroke-linecap:round; stroke-linejoin:round; stroke-width:4; stroke-opacity:1; fill:none" points="1230.69,1423.18 1230.69,1404.28 "/>
<polyline clip-path="url(#clip980)" style="stroke:#000000; stroke-linecap:round; stroke-linejoin:round; stroke-width:4; stroke-opacity:1; fill:none" points="1692.69,1423.18 1692.69,1404.28 "/>
<polyline clip-path="url(#clip980)" style="stroke:#000000; stroke-linecap:round; stroke-linejoin:round; stroke-width:4; stroke-opacity:1; fill:none" points="2154.7,1423.18 2154.7,1404.28 "/>
<path clip-path="url(#clip980)" d="M306.682 1454.1 Q303.071 1454.1 301.242 1457.66 Q299.437 1461.2 299.437 1468.33 Q299.437 1475.44 301.242 1479.01 Q303.071 1482.55 306.682 1482.55 Q310.316 1482.55 312.122 1479.01 Q313.951 1475.44 313.951 1468.33 Q313.951 1461.2 312.122 1457.66 Q310.316 1454.1 306.682 1454.1 M306.682 1450.39 Q312.492 1450.39 315.548 1455 Q318.627 1459.58 318.627 1468.33 Q318.627 1477.06 315.548 1481.67 Q312.492 1486.25 306.682 1486.25 Q300.872 1486.25 297.793 1481.67 Q294.738 1477.06 294.738 1468.33 Q294.738 1459.58 297.793 1455 Q300.872 1450.39 306.682 1450.39 Z" fill="#000000" fill-rule="nonzero" fill-opacity="1" /><path clip-path="url(#clip980)" d="M728.292 1481.64 L735.931 1481.64 L735.931 1455.28 L727.621 1456.95 L727.621 1452.69 L735.885 1451.02 L740.561 1451.02 L740.561 1481.64 L748.199 1481.64 L748.199 1485.58 L728.292 1485.58 L728.292 1481.64 Z" fill="#000000" fill-rule="nonzero" fill-opacity="1" /><path clip-path="url(#clip980)" d="M767.644 1454.1 Q764.033 1454.1 762.204 1457.66 Q760.398 1461.2 760.398 1468.33 Q760.398 1475.44 762.204 1479.01 Q764.033 1482.55 767.644 1482.55 Q771.278 1482.55 773.084 1479.01 Q774.912 1475.44 774.912 1468.33 Q774.912 1461.2 773.084 1457.66 Q771.278 1454.1 767.644 1454.1 M767.644 1450.39 Q773.454 1450.39 776.509 1455 Q779.588 1459.58 779.588 1468.33 Q779.588 1477.06 776.509 1481.67 Q773.454 1486.25 767.644 1486.25 Q761.834 1486.25 758.755 1481.67 Q755.699 1477.06 755.699 1468.33 Q755.699 1459.58 758.755 1455 Q761.834 1450.39 767.644 1450.39 Z" fill="#000000" fill-rule="nonzero" fill-opacity="1" /><path clip-path="url(#clip980)" d="M797.806 1454.1 Q794.195 1454.1 792.366 1457.66 Q790.56 1461.2 790.56 1468.33 Q790.56 1475.44 792.366 1479.01 Q794.195 1482.55 797.806 1482.55 Q801.44 1482.55 803.245 1479.01 Q805.074 1475.44 805.074 1468.33 Q805.074 1461.2 803.245 1457.66 Q801.44 1454.1 797.806 1454.1 M797.806 1450.39 Q803.616 1450.39 806.671 1455 Q809.75 1459.58 809.75 1468.33 Q809.75 1477.06 806.671 1481.67 Q803.616 1486.25 797.806 1486.25 Q791.995 1486.25 788.917 1481.67 Q785.861 1477.06 785.861 1468.33 Q785.861 1459.58 788.917 1455 Q791.995 1450.39 797.806 1450.39 Z" fill="#000000" fill-rule="nonzero" fill-opacity="1" /><path clip-path="url(#clip980)" d="M1194.38 1481.64 L1210.7 1481.64 L1210.7 1485.58 L1188.76 1485.58 L1188.76 1481.64 Q1191.42 1478.89 1196 1474.26 Q1200.61 1469.61 1201.79 1468.27 Q1204.03 1465.74 1204.91 1464.01 Q1205.82 1462.25 1205.82 1460.56 Q1205.82 1457.8 1203.87 1456.07 Q1201.95 1454.33 1198.85 1454.33 Q1196.65 1454.33 1194.2 1455.09 Q1191.77 1455.86 1188.99 1457.41 L1188.99 1452.69 Q1191.81 1451.55 1194.27 1450.97 Q1196.72 1450.39 1198.76 1450.39 Q1204.13 1450.39 1207.32 1453.08 Q1210.52 1455.77 1210.52 1460.26 Q1210.52 1462.39 1209.7 1464.31 Q1208.92 1466.2 1206.81 1468.8 Q1206.23 1469.47 1203.13 1472.69 Q1200.03 1475.88 1194.38 1481.64 Z" fill="#000000" fill-rule="nonzero" fill-opacity="1" /><path clip-path="url(#clip980)" d="M1230.52 1454.1 Q1226.9 1454.1 1225.08 1457.66 Q1223.27 1461.2 1223.27 1468.33 Q1223.27 1475.44 1225.08 1479.01 Q1226.9 1482.55 1230.52 1482.55 Q1234.15 1482.55 1235.95 1479.01 Q1237.78 1475.44 1237.78 1468.33 Q1237.78 1461.2 1235.95 1457.66 Q1234.15 1454.1 1230.52 1454.1 M1230.52 1450.39 Q1236.33 1450.39 1239.38 1455 Q1242.46 1459.58 1242.46 1468.33 Q1242.46 1477.06 1239.38 1481.67 Q1236.33 1486.25 1230.52 1486.25 Q1224.7 1486.25 1221.63 1481.67 Q1218.57 1477.06 1218.57 1468.33 Q1218.57 1459.58 1221.63 1455 Q1224.7 1450.39 1230.52 1450.39 Z" fill="#000000" fill-rule="nonzero" fill-opacity="1" /><path clip-path="url(#clip980)" d="M1260.68 1454.1 Q1257.07 1454.1 1255.24 1457.66 Q1253.43 1461.2 1253.43 1468.33 Q1253.43 1475.44 1255.24 1479.01 Q1257.07 1482.55 1260.68 1482.55 Q1264.31 1482.55 1266.12 1479.01 Q1267.95 1475.44 1267.95 1468.33 Q1267.95 1461.2 1266.12 1457.66 Q1264.31 1454.1 1260.68 1454.1 M1260.68 1450.39 Q1266.49 1450.39 1269.54 1455 Q1272.62 1459.58 1272.62 1468.33 Q1272.62 1477.06 1269.54 1481.67 Q1266.49 1486.25 1260.68 1486.25 Q1254.87 1486.25 1251.79 1481.67 Q1248.73 1477.06 1248.73 1468.33 Q1248.73 1459.58 1251.79 1455 Q1254.87 1450.39 1260.68 1450.39 Z" fill="#000000" fill-rule="nonzero" fill-opacity="1" /><path clip-path="url(#clip980)" d="M1666.45 1466.95 Q1669.81 1467.66 1671.69 1469.93 Q1673.58 1472.2 1673.58 1475.53 Q1673.58 1480.65 1670.06 1483.45 Q1666.55 1486.25 1660.06 1486.25 Q1657.89 1486.25 1655.57 1485.81 Q1653.28 1485.39 1650.83 1484.54 L1650.83 1480.02 Q1652.77 1481.16 1655.09 1481.74 Q1657.4 1482.32 1659.93 1482.32 Q1664.32 1482.32 1666.62 1480.58 Q1668.93 1478.84 1668.93 1475.53 Q1668.93 1472.48 1666.78 1470.77 Q1664.65 1469.03 1660.83 1469.03 L1656.8 1469.03 L1656.8 1465.19 L1661.01 1465.19 Q1664.46 1465.19 1666.29 1463.82 Q1668.12 1462.43 1668.12 1459.84 Q1668.12 1457.18 1666.22 1455.77 Q1664.35 1454.33 1660.83 1454.33 Q1658.91 1454.33 1656.71 1454.75 Q1654.51 1455.16 1651.87 1456.04 L1651.87 1451.88 Q1654.53 1451.14 1656.85 1450.77 Q1659.19 1450.39 1661.25 1450.39 Q1666.57 1450.39 1669.67 1452.83 Q1672.77 1455.23 1672.77 1459.35 Q1672.77 1462.22 1671.13 1464.21 Q1669.49 1466.18 1666.45 1466.95 Z" fill="#000000" fill-rule="nonzero" fill-opacity="1" /><path clip-path="url(#clip980)" d="M1692.45 1454.1 Q1688.84 1454.1 1687.01 1457.66 Q1685.2 1461.2 1685.2 1468.33 Q1685.2 1475.44 1687.01 1479.01 Q1688.84 1482.55 1692.45 1482.55 Q1696.08 1482.55 1697.89 1479.01 Q1699.72 1475.44 1699.72 1468.33 Q1699.72 1461.2 1697.89 1457.66 Q1696.08 1454.1 1692.45 1454.1 M1692.45 1450.39 Q1698.26 1450.39 1701.31 1455 Q1704.39 1459.58 1704.39 1468.33 Q1704.39 1477.06 1701.31 1481.67 Q1698.26 1486.25 1692.45 1486.25 Q1686.64 1486.25 1683.56 1481.67 Q1680.5 1477.06 1680.5 1468.33 Q1680.5 1459.58 1683.56 1455 Q1686.64 1450.39 1692.45 1450.39 Z" fill="#000000" fill-rule="nonzero" fill-opacity="1" /><path clip-path="url(#clip980)" d="M1722.61 1454.1 Q1719 1454.1 1717.17 1457.66 Q1715.37 1461.2 1715.37 1468.33 Q1715.37 1475.44 1717.17 1479.01 Q1719 1482.55 1722.61 1482.55 Q1726.24 1482.55 1728.05 1479.01 Q1729.88 1475.44 1729.88 1468.33 Q1729.88 1461.2 1728.05 1457.66 Q1726.24 1454.1 1722.61 1454.1 M1722.61 1450.39 Q1728.42 1450.39 1731.48 1455 Q1734.56 1459.58 1734.56 1468.33 Q1734.56 1477.06 1731.48 1481.67 Q1728.42 1486.25 1722.61 1486.25 Q1716.8 1486.25 1713.72 1481.67 Q1710.67 1477.06 1710.67 1468.33 Q1710.67 1459.58 1713.72 1455 Q1716.8 1450.39 1722.61 1450.39 Z" fill="#000000" fill-rule="nonzero" fill-opacity="1" /><path clip-path="url(#clip980)" d="M2127.79 1455.09 L2115.98 1473.54 L2127.79 1473.54 L2127.79 1455.09 M2126.56 1451.02 L2132.44 1451.02 L2132.44 1473.54 L2137.37 1473.54 L2137.37 1477.43 L2132.44 1477.43 L2132.44 1485.58 L2127.79 1485.58 L2127.79 1477.43 L2112.18 1477.43 L2112.18 1472.92 L2126.56 1451.02 Z" fill="#000000" fill-rule="nonzero" fill-opacity="1" /><path clip-path="url(#clip980)" d="M2155.1 1454.1 Q2151.49 1454.1 2149.66 1457.66 Q2147.85 1461.2 2147.85 1468.33 Q2147.85 1475.44 2149.66 1479.01 Q2151.49 1482.55 2155.1 1482.55 Q2158.73 1482.55 2160.54 1479.01 Q2162.37 1475.44 2162.37 1468.33 Q2162.37 1461.2 2160.54 1457.66 Q2158.73 1454.1 2155.1 1454.1 M2155.1 1450.39 Q2160.91 1450.39 2163.97 1455 Q2167.04 1459.58 2167.04 1468.33 Q2167.04 1477.06 2163.97 1481.67 Q2160.91 1486.25 2155.1 1486.25 Q2149.29 1486.25 2146.21 1481.67 Q2143.16 1477.06 2143.16 1468.33 Q2143.16 1459.58 2146.21 1455 Q2149.29 1450.39 2155.1 1450.39 Z" fill="#000000" fill-rule="nonzero" fill-opacity="1" /><path clip-path="url(#clip980)" d="M2185.26 1454.1 Q2181.65 1454.1 2179.82 1457.66 Q2178.02 1461.2 2178.02 1468.33 Q2178.02 1475.44 2179.82 1479.01 Q2181.65 1482.55 2185.26 1482.55 Q2188.9 1482.55 2190.7 1479.01 Q2192.53 1475.44 2192.53 1468.33 Q2192.53 1461.2 2190.7 1457.66 Q2188.9 1454.1 2185.26 1454.1 M2185.26 1450.39 Q2191.07 1450.39 2194.13 1455 Q2197.21 1459.58 2197.21 1468.33 Q2197.21 1477.06 2194.13 1481.67 Q2191.07 1486.25 2185.26 1486.25 Q2179.45 1486.25 2176.37 1481.67 Q2173.32 1477.06 2173.32 1468.33 Q2173.32 1459.58 2176.37 1455 Q2179.45 1450.39 2185.26 1450.39 Z" fill="#000000" fill-rule="nonzero" fill-opacity="1" /><path clip-path="url(#clip980)" d="M1286.48 1518.52 L1292.37 1518.52 L1292.37 1547.77 L1309.84 1532.4 L1317.32 1532.4 L1298.42 1549.07 L1318.12 1568.04 L1310.48 1568.04 L1292.37 1550.63 L1292.37 1568.04 L1286.48 1568.04 L1286.48 1518.52 Z" fill="#000000" fill-rule="nonzero" fill-opacity="1" /><polyline clip-path="url(#clip982)" style="stroke:#000000; stroke-linecap:round; stroke-linejoin:round; stroke-width:2; stroke-opacity:0.1; fill:none" points="251.842,927.015 2352.76,927.015 "/>
<polyline clip-path="url(#clip982)" style="stroke:#000000; stroke-linecap:round; stroke-linejoin:round; stroke-width:2; stroke-opacity:0.1; fill:none" points="251.842,416.822 2352.76,416.822 "/>
<polyline clip-path="url(#clip980)" style="stroke:#000000; stroke-linecap:round; stroke-linejoin:round; stroke-width:4; stroke-opacity:1; fill:none" points="251.842,1423.18 251.842,123.472 "/>
<polyline clip-path="url(#clip980)" style="stroke:#000000; stroke-linecap:round; stroke-linejoin:round; stroke-width:4; stroke-opacity:1; fill:none" points="251.842,927.015 270.74,927.015 "/>
<polyline clip-path="url(#clip980)" style="stroke:#000000; stroke-linecap:round; stroke-linejoin:round; stroke-width:4; stroke-opacity:1; fill:none" points="251.842,416.822 270.74,416.822 "/>
<path clip-path="url(#clip980)" d="M114.931 946.808 L122.57 946.808 L122.57 920.442 L114.26 922.109 L114.26 917.85 L122.524 916.183 L127.2 916.183 L127.2 946.808 L134.839 946.808 L134.839 950.743 L114.931 950.743 L114.931 946.808 Z" fill="#000000" fill-rule="nonzero" fill-opacity="1" /><path clip-path="url(#clip980)" d="M154.283 919.262 Q150.672 919.262 148.843 922.827 Q147.038 926.368 147.038 933.498 Q147.038 940.604 148.843 944.169 Q150.672 947.711 154.283 947.711 Q157.917 947.711 159.723 944.169 Q161.552 940.604 161.552 933.498 Q161.552 926.368 159.723 922.827 Q157.917 919.262 154.283 919.262 M154.283 915.558 Q160.093 915.558 163.149 920.165 Q166.227 924.748 166.227 933.498 Q166.227 942.225 163.149 946.831 Q160.093 951.414 154.283 951.414 Q148.473 951.414 145.394 946.831 Q142.339 942.225 142.339 933.498 Q142.339 924.748 145.394 920.165 Q148.473 915.558 154.283 915.558 Z" fill="#000000" fill-rule="nonzero" fill-opacity="1" /><path clip-path="url(#clip980)" d="M166.227 909.659 L190.339 909.659 L190.339 912.857 L166.227 912.857 L166.227 909.659 Z" fill="#000000" fill-rule="nonzero" fill-opacity="1" /><path clip-path="url(#clip980)" d="M210.05 908.192 Q212.777 908.775 214.3 910.619 Q215.842 912.462 215.842 915.17 Q215.842 919.327 212.984 921.602 Q210.125 923.878 204.859 923.878 Q203.091 923.878 201.21 923.521 Q199.348 923.182 197.354 922.486 L197.354 918.819 Q198.934 919.74 200.815 920.211 Q202.696 920.681 204.746 920.681 Q208.319 920.681 210.181 919.27 Q212.062 917.86 212.062 915.17 Q212.062 912.687 210.313 911.296 Q208.583 909.885 205.479 909.885 L202.207 909.885 L202.207 906.763 L205.63 906.763 Q208.432 906.763 209.918 905.653 Q211.404 904.525 211.404 902.418 Q211.404 900.256 209.861 899.108 Q208.338 897.942 205.479 897.942 Q203.918 897.942 202.132 898.281 Q200.345 898.619 198.201 899.334 L198.201 895.949 Q200.364 895.347 202.244 895.046 Q204.144 894.745 205.818 894.745 Q210.144 894.745 212.664 896.72 Q215.184 898.676 215.184 902.023 Q215.184 904.356 213.849 905.973 Q212.513 907.572 210.05 908.192 Z" fill="#000000" fill-rule="nonzero" fill-opacity="1" /><path clip-path="url(#clip980)" d="M145.137 436.615 L152.776 436.615 L152.776 410.249 L144.465 411.916 L144.465 407.657 L152.729 405.99 L157.405 405.99 L157.405 436.615 L165.044 436.615 L165.044 440.55 L145.137 440.55 L145.137 436.615 Z" fill="#000000" fill-rule="nonzero" fill-opacity="1" /><path clip-path="url(#clip980)" d="M184.488 409.069 Q180.877 409.069 179.049 412.634 Q177.243 416.175 177.243 423.305 Q177.243 430.411 179.049 433.976 Q180.877 437.518 184.488 437.518 Q188.123 437.518 189.928 433.976 Q191.757 430.411 191.757 423.305 Q191.757 416.175 189.928 412.634 Q188.123 409.069 184.488 409.069 M184.488 405.365 Q190.299 405.365 193.354 409.972 Q196.433 414.555 196.433 423.305 Q196.433 432.032 193.354 436.638 Q190.299 441.221 184.488 441.221 Q178.678 441.221 175.6 436.638 Q172.544 432.032 172.544 423.305 Q172.544 414.555 175.6 409.972 Q178.678 405.365 184.488 405.365 Z" fill="#000000" fill-rule="nonzero" fill-opacity="1" /><path clip-path="url(#clip980)" d="M206.138 387.561 Q203.204 387.561 201.718 390.458 Q200.251 393.335 200.251 399.128 Q200.251 404.902 201.718 407.798 Q203.204 410.676 206.138 410.676 Q209.09 410.676 210.557 407.798 Q212.043 404.902 212.043 399.128 Q212.043 393.335 210.557 390.458 Q209.09 387.561 206.138 387.561 M206.138 384.552 Q210.858 384.552 213.341 388.295 Q215.842 392.019 215.842 399.128 Q215.842 406.218 213.341 409.961 Q210.858 413.685 206.138 413.685 Q201.417 413.685 198.915 409.961 Q196.433 406.218 196.433 399.128 Q196.433 392.019 198.915 388.295 Q201.417 384.552 206.138 384.552 Z" fill="#000000" fill-rule="nonzero" fill-opacity="1" /><path clip-path="url(#clip980)" d="M32.4621 801.797 Q32.4621 806.507 36.1542 809.244 Q39.8145 811.982 46.212 811.982 Q52.6095 811.982 56.3017 809.276 Q59.9619 806.539 59.9619 801.797 Q59.9619 797.118 56.2698 794.381 Q52.5777 791.643 46.212 791.643 Q39.8781 791.643 36.186 794.381 Q32.4621 797.118 32.4621 801.797 M27.4968 801.797 Q27.4968 794.158 32.4621 789.797 Q37.4273 785.437 46.212 785.437 Q54.9649 785.437 59.9619 789.797 Q64.9272 794.158 64.9272 801.797 Q64.9272 809.467 59.9619 813.828 Q54.9649 818.156 46.212 818.156 Q37.4273 818.156 32.4621 813.828 Q27.4968 809.467 27.4968 801.797 Z" fill="#000000" fill-rule="nonzero" fill-opacity="1" /><path clip-path="url(#clip980)" d="M46.212 750.139 Q39.7508 750.139 36.0905 752.812 Q32.3984 755.454 32.3984 760.101 Q32.3984 764.748 36.0905 767.422 Q39.7508 770.064 46.212 770.064 Q52.6732 770.064 56.3653 767.422 Q60.0256 764.748 60.0256 760.101 Q60.0256 755.454 56.3653 752.812 Q52.6732 750.139 46.212 750.139 M33.7671 770.064 Q30.5842 768.218 29.0564 765.417 Q27.4968 762.584 27.4968 758.669 Q27.4968 752.176 32.6531 748.134 Q37.8093 744.06 46.212 744.06 Q54.6147 744.06 59.771 748.134 Q64.9272 752.176 64.9272 758.669 Q64.9272 762.584 63.3994 765.417 Q61.8398 768.218 58.657 770.064 L64.0042 770.064 L64.0042 775.952 L14.479 775.952 L14.479 770.064 L33.7671 770.064 Z" fill="#000000" fill-rule="nonzero" fill-opacity="1" /><path clip-path="url(#clip980)" d="M28.3562 734.352 L28.3562 728.495 L64.6407 728.495 Q71.452 728.495 74.5076 731.105 Q77.5631 733.684 77.5631 739.445 L77.5631 741.673 L72.5979 741.673 L72.5979 740.113 Q72.5979 736.771 71.0383 735.561 Q69.5105 734.352 64.6407 734.352 L28.3562 734.352 M14.479 734.352 L14.479 728.495 L21.895 728.495 L21.895 734.352 L14.479 734.352 Z" fill="#000000" fill-rule="nonzero" fill-opacity="1" /><path clip-path="url(#clip980)" d="M956.615 65.7705 L956.615 89.8329 L949.121 89.8329 L949.121 27.2059 L956.615 27.2059 L956.615 34.0924 Q958.965 30.0415 962.53 28.0971 Q966.135 26.1121 971.117 26.1121 Q979.381 26.1121 984.526 32.6746 Q989.711 39.2371 989.711 49.9314 Q989.711 60.6258 984.526 67.1883 Q979.381 73.7508 971.117 73.7508 Q966.135 73.7508 962.53 71.8063 Q958.965 69.8214 956.615 65.7705 M981.974 49.9314 Q981.974 41.7081 978.571 37.0496 Q975.209 32.3505 969.295 32.3505 Q963.38 32.3505 959.977 37.0496 Q956.615 41.7081 956.615 49.9314 Q956.615 58.1548 959.977 62.8538 Q963.38 67.5124 969.295 67.5124 Q975.209 67.5124 978.571 62.8538 Q981.974 58.1548 981.974 49.9314 Z" fill="#000000" fill-rule="nonzero" fill-opacity="1" /><path clip-path="url(#clip980)" d="M1028.36 34.1734 Q1027.1 33.4443 1025.6 33.1202 Q1024.14 32.7556 1022.36 32.7556 Q1016.04 32.7556 1012.64 36.8875 Q1009.28 40.9789 1009.28 48.6757 L1009.28 72.576 L1001.78 72.576 L1001.78 27.2059 L1009.28 27.2059 L1009.28 34.2544 Q1011.63 30.1225 1015.39 28.1376 Q1019.16 26.1121 1024.55 26.1121 Q1025.32 26.1121 1026.25 26.2337 Q1027.18 26.3147 1028.32 26.5172 L1028.36 34.1734 Z" fill="#000000" fill-rule="nonzero" fill-opacity="1" /><path clip-path="url(#clip980)" d="M1051.93 32.4315 Q1045.94 32.4315 1042.45 37.1306 Q1038.97 41.7891 1038.97 49.9314 Q1038.97 58.0738 1042.41 62.7728 Q1045.9 67.4314 1051.93 67.4314 Q1057.89 67.4314 1061.37 62.7323 Q1064.86 58.0333 1064.86 49.9314 Q1064.86 41.8701 1061.37 37.1711 Q1057.89 32.4315 1051.93 32.4315 M1051.93 26.1121 Q1061.66 26.1121 1067.2 32.4315 Q1072.75 38.7509 1072.75 49.9314 Q1072.75 61.0714 1067.2 67.4314 Q1061.66 73.7508 1051.93 73.7508 Q1042.17 73.7508 1036.62 67.4314 Q1031.11 61.0714 1031.11 49.9314 Q1031.11 38.7509 1036.62 32.4315 Q1042.17 26.1121 1051.93 26.1121 Z" fill="#000000" fill-rule="nonzero" fill-opacity="1" /><path clip-path="url(#clip980)" d="M1117.68 49.9314 Q1117.68 41.7081 1114.28 37.0496 Q1110.91 32.3505 1105 32.3505 Q1099.09 32.3505 1095.68 37.0496 Q1092.32 41.7081 1092.32 49.9314 Q1092.32 58.1548 1095.68 62.8538 Q1099.09 67.5124 1105 67.5124 Q1110.91 67.5124 1114.28 62.8538 Q1117.68 58.1548 1117.68 49.9314 M1092.32 34.0924 Q1094.67 30.0415 1098.23 28.0971 Q1101.84 26.1121 1106.82 26.1121 Q1115.09 26.1121 1120.23 32.6746 Q1125.42 39.2371 1125.42 49.9314 Q1125.42 60.6258 1120.23 67.1883 Q1115.09 73.7508 1106.82 73.7508 Q1101.84 73.7508 1098.23 71.8063 Q1094.67 69.8214 1092.32 65.7705 L1092.32 72.576 L1084.83 72.576 L1084.83 9.54393 L1092.32 9.54393 L1092.32 34.0924 Z" fill="#000000" fill-rule="nonzero" fill-opacity="1" /><path clip-path="url(#clip980)" d="M1137.77 9.54393 L1145.23 9.54393 L1145.23 72.576 L1137.77 72.576 L1137.77 9.54393 Z" fill="#000000" fill-rule="nonzero" fill-opacity="1" /><path clip-path="url(#clip980)" d="M1199.63 48.0275 L1199.63 51.6733 L1165.36 51.6733 Q1165.84 59.3701 1169.98 63.421 Q1174.15 67.4314 1181.56 67.4314 Q1185.86 67.4314 1189.87 66.3781 Q1193.92 65.3249 1197.89 63.2184 L1197.89 70.267 Q1193.88 71.9684 1189.66 72.8596 Q1185.45 73.7508 1181.12 73.7508 Q1170.26 73.7508 1163.9 67.4314 Q1157.58 61.1119 1157.58 50.3365 Q1157.58 39.1965 1163.58 32.6746 Q1169.61 26.1121 1179.82 26.1121 Q1188.98 26.1121 1194.28 32.0264 Q1199.63 37.9003 1199.63 48.0275 M1192.18 45.84 Q1192.09 39.7232 1188.73 36.0774 Q1185.41 32.4315 1179.9 32.4315 Q1173.66 32.4315 1169.9 35.9558 Q1166.17 39.4801 1165.6 45.8805 L1192.18 45.84 M1173.5 6.22219 L1184.92 21.3726 L1178.73 21.3726 L1165.52 6.22219 L1173.5 6.22219 Z" fill="#000000" fill-rule="nonzero" fill-opacity="1" /><path clip-path="url(#clip980)" d="M1247.19 35.9153 Q1249.98 30.8922 1253.87 28.5022 Q1257.76 26.1121 1263.03 26.1121 Q1270.11 26.1121 1273.96 31.0947 Q1277.81 36.0368 1277.81 45.1919 L1277.81 72.576 L1270.32 72.576 L1270.32 45.4349 Q1270.32 38.913 1268.01 35.7533 Q1265.7 32.5936 1260.96 32.5936 Q1255.17 32.5936 1251.8 36.4419 Q1248.44 40.2903 1248.44 46.9338 L1248.44 72.576 L1240.95 72.576 L1240.95 45.4349 Q1240.95 38.8725 1238.64 35.7533 Q1236.33 32.5936 1231.51 32.5936 Q1225.8 32.5936 1222.44 36.4824 Q1219.07 40.3308 1219.07 46.9338 L1219.07 72.576 L1211.58 72.576 L1211.58 27.2059 L1219.07 27.2059 L1219.07 34.2544 Q1221.63 30.082 1225.19 28.0971 Q1228.75 26.1121 1233.66 26.1121 Q1238.6 26.1121 1242.04 28.6237 Q1245.53 31.1352 1247.19 35.9153 Z" fill="#000000" fill-rule="nonzero" fill-opacity="1" /><path clip-path="url(#clip980)" d="M1331.49 48.0275 L1331.49 51.6733 L1297.22 51.6733 Q1297.7 59.3701 1301.83 63.421 Q1306.01 67.4314 1313.42 67.4314 Q1317.71 67.4314 1321.72 66.3781 Q1325.77 65.3249 1329.74 63.2184 L1329.74 70.267 Q1325.73 71.9684 1321.52 72.8596 Q1317.31 73.7508 1312.97 73.7508 Q1302.12 73.7508 1295.76 67.4314 Q1289.44 61.1119 1289.44 50.3365 Q1289.44 39.1965 1295.43 32.6746 Q1301.47 26.1121 1311.68 26.1121 Q1320.83 26.1121 1326.14 32.0264 Q1331.49 37.9003 1331.49 48.0275 M1324.03 45.84 Q1323.95 39.7232 1320.59 36.0774 Q1317.27 32.4315 1311.76 32.4315 Q1305.52 32.4315 1301.75 35.9558 Q1298.03 39.4801 1297.46 45.8805 L1324.03 45.84 Z" fill="#000000" fill-rule="nonzero" fill-opacity="1" /><path clip-path="url(#clip980)" d="M1371.99 62.2867 L1380.54 62.2867 L1380.54 72.576 L1371.99 72.576 L1371.99 62.2867 M1371.99 29.6769 L1380.54 29.6769 L1380.54 39.9662 L1371.99 39.9662 L1371.99 29.6769 Z" fill="#000000" fill-rule="nonzero" fill-opacity="1" /><path clip-path="url(#clip980)" d="M1431.79 14.324 L1431.79 27.2059 L1447.14 27.2059 L1447.14 32.9987 L1431.79 32.9987 L1431.79 57.6282 Q1431.79 63.1779 1433.29 64.7578 Q1434.82 66.3376 1439.48 66.3376 L1447.14 66.3376 L1447.14 72.576 L1439.48 72.576 Q1430.85 72.576 1427.57 69.3758 Q1424.29 66.1351 1424.29 57.6282 L1424.29 32.9987 L1418.82 32.9987 L1418.82 27.2059 L1424.29 27.2059 L1424.29 14.324 L1431.79 14.324 Z" fill="#000000" fill-rule="nonzero" fill-opacity="1" /><path clip-path="url(#clip980)" d="M1464.15 65.7705 L1464.15 89.8329 L1456.66 89.8329 L1456.66 27.2059 L1464.15 27.2059 L1464.15 34.0924 Q1466.5 30.0415 1470.07 28.0971 Q1473.67 26.1121 1478.66 26.1121 Q1486.92 26.1121 1492.06 32.6746 Q1497.25 39.2371 1497.25 49.9314 Q1497.25 60.6258 1492.06 67.1883 Q1486.92 73.7508 1478.66 73.7508 Q1473.67 73.7508 1470.07 71.8063 Q1466.5 69.8214 1464.15 65.7705 M1489.51 49.9314 Q1489.51 41.7081 1486.11 37.0496 Q1482.75 32.3505 1476.83 32.3505 Q1470.92 32.3505 1467.52 37.0496 Q1464.15 41.7081 1464.15 49.9314 Q1464.15 58.1548 1467.52 62.8538 Q1470.92 67.5124 1476.83 67.5124 Q1482.75 67.5124 1486.11 62.8538 Q1489.51 58.1548 1489.51 49.9314 Z" fill="#000000" fill-rule="nonzero" fill-opacity="1" /><path clip-path="url(#clip980)" d="M1517.71 65.6895 L1546.26 65.6895 L1546.26 72.576 L1507.86 72.576 L1507.86 65.6895 Q1512.52 60.8689 1520.54 52.7671 Q1528.6 44.6248 1530.67 42.2752 Q1534.6 37.8598 1536.14 34.8216 Q1537.72 31.7429 1537.72 28.7857 Q1537.72 23.9651 1534.31 20.927 Q1530.95 17.8888 1525.52 17.8888 Q1521.68 17.8888 1517.38 19.2256 Q1513.13 20.5624 1508.27 23.2765 L1508.27 15.0127 Q1513.21 13.0277 1517.5 12.015 Q1521.8 11.0023 1525.36 11.0023 Q1534.76 11.0023 1540.35 15.7013 Q1545.94 20.4004 1545.94 28.2591 Q1545.94 31.9859 1544.52 35.3482 Q1543.15 38.6699 1539.46 43.2069 Q1538.45 44.3817 1533.02 50.0125 Q1527.59 55.6027 1517.71 65.6895 Z" fill="#000000" fill-rule="nonzero" fill-opacity="1" /><path clip-path="url(#clip980)" d="M1563.68 71.3202 L1563.68 63.8666 Q1566.76 65.3249 1569.92 66.0946 Q1573.08 66.8642 1576.12 66.8642 Q1584.22 66.8642 1588.48 61.436 Q1592.77 55.9673 1593.38 44.8678 Q1591.03 48.3516 1587.42 50.215 Q1583.82 52.0784 1579.44 52.0784 Q1570.37 52.0784 1565.06 46.6097 Q1559.79 41.1005 1559.79 31.5808 Q1559.79 22.2638 1565.3 16.633 Q1570.81 11.0023 1579.97 11.0023 Q1590.46 11.0023 1595.97 19.0636 Q1601.52 27.0843 1601.52 42.3968 Q1601.52 56.6965 1594.71 65.2439 Q1587.95 73.7508 1576.48 73.7508 Q1573.41 73.7508 1570.25 73.1431 Q1567.09 72.5355 1563.68 71.3202 M1579.97 45.678 Q1585.48 45.678 1588.68 41.9107 Q1591.92 38.1433 1591.92 31.5808 Q1591.92 25.0589 1588.68 21.2916 Q1585.48 17.4837 1579.97 17.4837 Q1574.46 17.4837 1571.22 21.2916 Q1568.02 25.0589 1568.02 31.5808 Q1568.02 38.1433 1571.22 41.9107 Q1574.46 45.678 1579.97 45.678 Z" fill="#000000" fill-rule="nonzero" fill-opacity="1" /><path clip-path="url(#clip980)" d="M1638.71 19.2256 L1618.05 51.5113 L1638.71 51.5113 L1638.71 19.2256 M1636.56 12.096 L1646.85 12.096 L1646.85 51.5113 L1655.48 51.5113 L1655.48 58.3168 L1646.85 58.3168 L1646.85 72.576 L1638.71 72.576 L1638.71 58.3168 L1611.4 58.3168 L1611.4 50.4176 L1636.56 12.096 Z" fill="#000000" fill-rule="nonzero" fill-opacity="1" /><polyline clip-path="url(#clip982)" style="stroke:#009af9; stroke-linecap:round; stroke-linejoin:round; stroke-width:4; stroke-opacity:1; fill:none" points="311.302,160.256 315.922,236.413 320.542,282.517 325.162,340.805 329.782,353.462 334.402,353.973 339.022,354.317 343.642,354.772 348.262,355.377 352.882,356.179 357.503,357.227 362.123,358.554 366.743,360.163 371.363,362.03 375.983,364.123 380.603,366.422 385.223,368.928 389.843,371.652 394.463,374.618 399.083,377.861 403.703,381.424 408.323,385.364 412.943,389.744 417.563,394.612 422.183,399.972 426.803,405.755 431.423,411.825 436.043,418.004 440.663,424.124 445.283,430.06 449.903,435.74 454.523,441.137 459.143,446.253 463.763,451.105 468.383,455.716 473.003,460.111 477.623,464.312 482.243,468.342 486.863,472.217 491.483,475.956 496.103,479.57 500.724,483.074 505.344,486.477 509.964,489.788 514.584,493.017 519.204,496.169 523.824,499.252 528.444,502.271 533.064,505.23 537.684,508.135 542.304,510.989 546.924,513.796 551.544,516.559 556.164,519.28 560.784,521.964 565.404,524.611 570.024,527.225 574.644,529.807 579.264,532.359 583.884,534.882 588.504,537.379 593.124,539.851 597.744,542.298 602.364,544.723 606.984,547.127 611.604,549.51 616.224,551.874 620.844,554.219 625.464,556.546 630.084,558.857 634.704,561.151 639.324,563.43 643.945,565.695 648.565,567.945 653.185,570.182 657.805,572.406 662.425,574.618 667.045,576.818 671.665,579.006 676.285,581.184 680.905,583.351 685.525,585.508 690.145,587.655 694.765,589.793 699.385,591.922 704.005,594.042 708.625,596.155 713.245,598.259 717.865,600.355 722.485,602.444 727.105,604.525 731.725,606.6 736.345,608.668 740.965,610.73 745.585,612.785 750.205,614.834 754.825,616.878 759.445,618.915 764.065,620.948 768.685,622.975 773.305,624.997 777.925,627.014 782.545,629.026 787.166,631.033 791.786,633.036 796.406,635.035 801.026,637.03 805.646,639.02 810.266,641.007 814.886,642.989 819.506,644.968 824.126,646.943 828.746,648.915 833.366,650.884 837.986,652.849 842.606,654.811 847.226,656.77 851.846,658.726 856.466,660.679 861.086,662.629 865.706,664.576 870.326,666.521 874.946,668.463 879.566,670.403 884.186,672.34 888.806,674.275 893.426,676.208 898.046,678.138 902.666,680.066 907.286,681.992 911.906,683.916 916.526,685.838 921.146,687.758 925.766,689.676 930.387,691.592 935.007,693.507 939.627,695.42 944.247,697.331 948.867,699.24 953.487,701.148 958.107,703.054 962.727,704.959 967.347,706.862 971.967,708.764 976.587,710.665 981.207,712.564 985.827,714.462 990.447,716.358 995.067,718.253 999.687,720.147 1004.31,722.04 1008.93,723.932 1013.55,725.823 1018.17,727.712 1022.79,729.601 1027.41,731.488 1032.03,733.374 1036.65,735.26 1041.27,737.144 1045.89,739.028 1050.51,740.91 1055.13,742.792 1059.75,744.673 1064.37,746.553 1068.99,748.432 1073.61,750.311 1078.23,752.189 1082.85,754.066 1087.47,755.942 1092.09,757.817 1096.71,759.692 1101.33,761.566 1105.95,763.44 1110.57,765.312 1115.19,767.185 1119.81,769.056 1124.43,770.927 1129.05,772.798 1133.67,774.668 1138.29,776.537 1142.91,778.406 1147.53,780.274 1152.15,782.142 1156.77,784.009 1161.39,785.876 1166.01,787.742 1170.63,789.608 1175.25,791.473 1179.87,793.338 1184.49,795.203 1189.11,797.067 1193.73,798.93 1198.35,800.794 1202.97,802.657 1207.59,804.519 1212.21,806.381 1216.83,808.243 1221.45,810.105 1226.07,811.966 1230.69,813.827 1235.31,815.687 1239.93,817.547 1244.55,819.407 1249.17,821.267 1253.79,823.126 1258.41,824.985 1263.03,826.844 1267.65,828.702 1272.27,830.561 1276.89,832.419 1281.51,834.276 1286.13,836.134 1290.75,837.991 1295.37,839.848 1299.99,841.705 1304.61,843.561 1309.23,845.418 1313.85,847.274 1318.47,849.13 1323.09,850.986 1327.71,852.841 1332.33,854.697 1336.95,856.552 1341.57,858.407 1346.19,860.262 1350.81,862.116 1355.43,863.971 1360.05,865.825 1364.67,867.679 1369.29,869.533 1373.91,871.387 1378.53,873.241 1383.15,875.095 1387.77,876.948 1392.39,878.801 1397.01,880.655 1401.63,882.508 1406.25,884.361 1410.87,886.213 1415.49,888.066 1420.11,889.919 1424.73,891.771 1429.35,893.624 1433.97,895.476 1438.59,897.328 1443.21,899.18 1447.83,901.032 1452.45,902.884 1457.07,904.735 1461.69,906.587 1466.31,908.439 1470.93,910.29 1475.55,912.142 1480.17,913.993 1484.79,915.844 1489.41,917.695 1494.03,919.546 1498.65,921.397 1503.27,923.248 1507.89,925.099 1512.51,926.95 1517.13,928.801 1521.75,930.651 1526.37,932.502 1530.99,934.352 1535.61,936.203 1540.23,938.053 1544.85,939.904 1549.47,941.754 1554.09,943.604 1558.71,945.454 1563.33,947.304 1567.95,949.154 1572.57,951.004 1577.19,952.854 1581.81,954.704 1586.43,956.554 1591.05,958.404 1595.67,960.254 1600.29,962.104 1604.91,963.953 1609.53,965.803 1614.15,967.652 1618.77,969.502 1623.39,971.352 1628.01,973.201 1632.63,975.051 1637.25,976.9 1641.87,978.749 1646.49,980.599 1651.11,982.448 1655.73,984.297 1660.35,986.147 1664.97,987.996 1669.59,989.845 1674.21,991.694 1678.83,993.543 1683.45,995.392 1688.07,997.242 1692.69,999.091 1697.31,1000.94 1701.93,1002.79 1706.55,1004.64 1711.17,1006.49 1715.79,1008.34 1720.41,1010.18 1725.03,1012.03 1729.65,1013.88 1734.27,1015.73 1738.89,1017.58 1743.51,1019.43 1748.13,1021.28 1752.75,1023.13 1757.37,1024.98 1761.99,1026.82 1766.61,1028.67 1771.23,1030.52 1775.85,1032.37 1780.47,1034.22 1785.09,1036.07 1789.71,1037.92 1794.33,1039.76 1798.95,1041.61 1803.57,1043.46 1808.19,1045.31 1812.81,1047.16 1817.43,1049.01 1822.05,1050.86 1826.67,1052.7 1831.29,1054.55 1835.91,1056.4 1840.53,1058.25 1845.15,1060.1 1849.77,1061.95 1854.39,1063.8 1859.01,1065.64 1863.63,1067.49 1868.25,1069.34 1872.87,1071.19 1877.49,1073.04 1882.11,1074.89 1886.73,1076.73 1891.35,1078.58 1895.97,1080.43 1900.59,1082.28 1905.21,1084.13 1909.83,1085.98 1914.45,1087.82 1919.07,1089.67 1923.69,1091.52 1928.31,1093.37 1932.93,1095.22 1937.55,1097.07 1942.17,1098.91 1946.79,1100.76 1951.41,1102.61 1956.03,1104.46 1960.65,1106.31 1965.27,1108.16 1969.89,1110 1974.51,1111.85 1979.13,1113.7 1983.75,1115.55 1988.37,1117.4 1992.99,1119.24 1997.61,1121.09 2002.23,1122.94 2006.85,1124.79 2011.47,1126.64 2016.09,1128.49 2020.71,1130.33 2025.33,1132.18 2029.95,1134.03 2034.57,1135.88 2039.19,1137.73 2043.81,1139.58 2048.43,1141.42 2053.05,1143.27 2057.67,1145.12 2062.29,1146.97 2066.91,1148.82 2071.53,1150.66 2076.15,1152.51 2080.77,1154.36 2085.39,1156.21 2090.01,1158.06 2094.63,1159.9 2099.25,1161.75 2103.87,1163.6 2108.49,1165.45 2113.11,1167.3 2117.73,1169.15 2122.35,1170.99 2126.97,1172.84 2131.59,1174.69 2136.21,1176.54 2140.84,1178.39 2145.46,1180.23 2150.08,1182.08 2154.7,1183.93 2159.32,1185.78 2163.94,1187.63 2168.56,1189.47 2173.18,1191.32 2177.8,1193.17 2182.42,1195.02 2187.04,1196.87 2191.66,1198.72 2196.28,1200.56 2200.9,1202.41 2205.52,1204.26 2210.14,1206.11 2214.76,1207.96 2219.38,1209.8 2224,1211.65 2228.62,1213.5 2233.24,1215.35 2237.86,1217.2 2242.48,1219.04 2247.1,1220.89 2251.72,1222.74 2256.34,1224.59 2260.96,1226.44 2265.58,1228.28 2270.2,1230.13 2274.82,1231.98 2279.44,1233.83 2284.06,1235.68 2288.68,1237.52 2293.3,1239.37 "/>
<polyline clip-path="url(#clip982)" style="stroke:#e26f46; stroke-linecap:round; stroke-linejoin:round; stroke-width:4; stroke-opacity:1; fill:none" points="311.302,160.256 315.922,236.413 320.542,292.74 325.162,348.972 329.782,353.177 334.402,353.478 339.022,353.626 343.642,353.706 348.262,353.806 352.882,353.953 357.503,354.178 362.123,354.546 366.743,355.228 371.363,356.84 375.983,356.84 380.603,356.84 385.223,356.84 389.843,356.84 394.463,356.84 399.083,356.84 403.703,356.84 408.323,357.696 412.943,361.633 417.563,365.085 422.183,368.094 426.803,377.338 431.423,383.081 436.043,389.7 440.663,397.493 445.283,408.214 449.903,418.664 454.523,426.038 459.143,432.478 463.763,438.281 468.383,444.426 473.003,451.34 477.623,459.88 482.243,471.206 486.863,486.746 491.483,507.391 496.103,535.913 500.724,565.357 505.344,605.338 509.964,674.914 514.584,724.853 519.204,745.469 523.824,778.351 528.444,798.849 533.064,831.471 537.684,851.875 542.304,884.479 546.924,904.837 551.544,937.438 556.164,957.773 560.784,990.373 565.404,1010.7 570.024,1043.3 574.644,1063.62 579.264,1096.21 583.884,1116.53 588.504,1149.13 593.124,1169.44 597.744,1202.04 602.364,1222.36 606.984,1254.96 "/>
<polyline clip-path="url(#clip982)" style="stroke:#3da44d; stroke-linecap:round; stroke-linejoin:round; stroke-width:4; stroke-opacity:1; fill:none" points="311.302,160.256 315.922,236.413 320.542,292.74 325.162,348.972 329.782,353.177 334.402,353.478 339.022,353.626 343.642,353.706 348.262,353.806 352.882,353.953 357.503,354.178 362.123,354.546 366.743,355.228 371.363,356.84 375.983,356.84 380.603,356.84 385.223,356.84 389.843,356.84 394.463,356.84 399.083,356.84 403.703,356.84 408.323,357.696 412.943,361.633 417.563,365.085 422.183,368.094 426.803,377.392 431.423,383.185 436.043,389.838 440.663,397.681 445.283,408.452 449.903,418.843 454.523,426.172 459.143,432.607 463.763,438.416 468.383,444.577 473.003,451.523 477.623,460.119 482.243,471.533 486.863,487.194 491.483,507.969 496.103,536.668 500.724,566.252 505.344,606.407 509.964,676.586 514.584,726.979 519.204,747.583 523.824,780.463 528.444,800.957 533.064,833.578 537.684,853.98 542.304,886.583 546.924,906.94 551.544,939.541 556.164,959.875 560.784,992.475 565.404,1012.8 570.024,1045.4 574.644,1065.72 579.264,1098.32 583.884,1118.63 588.504,1151.23 593.124,1171.55 597.744,1204.14 602.364,1224.46 606.984,1257.06 "/>
<polyline clip-path="url(#clip982)" style="stroke:#c271d2; stroke-linecap:round; stroke-linejoin:round; stroke-width:4; stroke-opacity:1; fill:none" points="311.302,160.256 315.922,236.413 320.542,282.517 325.162,340.805 329.782,353.462 334.402,353.973 339.022,354.317 343.642,354.772 348.262,355.377 352.882,356.179 357.503,357.227 362.123,358.554 366.743,360.163 371.363,362.03 375.983,364.123 380.603,366.422 385.223,368.928 389.843,371.652 394.463,374.618 399.083,377.861 403.703,381.424 408.323,385.364 412.943,389.744 417.563,394.612 422.183,399.972 426.803,405.755 431.423,411.825 436.043,418.004 440.663,424.124 445.283,430.06 449.903,435.74 454.523,441.137 459.143,446.253 463.763,451.105 468.383,455.716 473.003,460.111 477.623,464.312 482.243,468.342 486.863,472.217 491.483,475.956 496.103,479.57 500.724,483.074 505.344,486.477 509.964,489.788 514.584,493.017 519.204,496.169 523.824,499.252 528.444,502.271 533.064,505.23 537.684,508.135 542.304,510.989 546.924,513.796 551.544,516.559 556.164,519.28 560.784,521.964 565.404,524.611 570.024,527.225 574.644,529.807 579.264,532.359 583.884,534.882 588.504,537.379 593.124,539.851 597.744,542.298 602.364,544.723 606.984,547.127 611.604,549.51 616.224,551.874 620.844,554.219 625.464,556.546 630.084,558.857 634.704,561.151 639.324,563.43 643.945,565.695 648.565,567.945 653.185,570.182 657.805,572.406 662.425,574.618 667.045,576.818 671.665,579.006 676.285,581.184 680.905,583.351 685.525,585.508 690.145,587.655 694.765,589.793 699.385,591.922 704.005,594.042 708.625,596.155 713.245,598.259 717.865,600.355 722.485,602.444 727.105,604.525 731.725,606.6 736.345,608.668 740.965,610.73 745.585,612.785 750.205,614.834 754.825,616.878 759.445,618.915 764.065,620.948 768.685,622.975 773.305,624.997 777.925,627.014 782.545,629.026 787.166,631.033 791.786,633.036 796.406,635.035 801.026,637.03 805.646,639.02 810.266,641.007 814.886,642.989 819.506,644.968 824.126,646.943 828.746,648.915 833.366,650.884 837.986,652.849 842.606,654.811 847.226,656.77 851.846,658.726 856.466,660.679 861.086,662.629 865.706,664.576 870.326,666.521 874.946,668.463 879.566,670.403 884.186,672.34 888.806,674.275 893.426,676.208 898.046,678.138 902.666,680.066 907.286,681.992 911.906,683.916 916.526,685.838 921.146,687.758 925.766,689.676 930.387,691.592 935.007,693.507 939.627,695.42 944.247,697.331 948.867,699.24 953.487,701.148 958.107,703.054 962.727,704.959 967.347,706.862 971.967,708.764 976.587,710.665 981.207,712.564 985.827,714.462 990.447,716.358 995.067,718.253 999.687,720.147 1004.31,722.04 1008.93,723.932 1013.55,725.823 1018.17,727.712 1022.79,729.601 1027.41,731.488 1032.03,733.374 1036.65,735.26 1041.27,737.144 1045.89,739.028 1050.51,740.91 1055.13,742.792 1059.75,744.673 1064.37,746.553 1068.99,748.432 1073.61,750.311 1078.23,752.189 1082.85,754.066 1087.47,755.942 1092.09,757.817 1096.71,759.692 1101.33,761.566 1105.95,763.44 1110.57,765.312 1115.19,767.185 1119.81,769.056 1124.43,770.927 1129.05,772.798 1133.67,774.668 1138.29,776.537 1142.91,778.406 1147.53,780.274 1152.15,782.142 1156.77,784.009 1161.39,785.876 1166.01,787.742 1170.63,789.608 1175.25,791.473 1179.87,793.338 1184.49,795.203 1189.11,797.067 1193.73,798.93 1198.35,800.794 1202.97,802.657 1207.59,804.519 1212.21,806.381 1216.83,808.243 1221.45,810.105 1226.07,811.966 1230.69,813.827 1235.31,815.687 1239.93,817.547 1244.55,819.407 1249.17,821.267 1253.79,823.126 1258.41,824.985 1263.03,826.844 1267.65,828.702 1272.27,830.561 1276.89,832.419 1281.51,834.276 1286.13,836.134 1290.75,837.991 1295.37,839.848 1299.99,841.705 1304.61,843.561 1309.23,845.418 1313.85,847.274 1318.47,849.13 1323.09,850.986 1327.71,852.841 1332.33,854.697 1336.95,856.552 1341.57,858.407 1346.19,860.262 1350.81,862.116 1355.43,863.971 1360.05,865.825 1364.67,867.679 1369.29,869.533 1373.91,871.387 1378.53,873.241 1383.15,875.095 1387.77,876.948 1392.39,878.801 1397.01,880.655 1401.63,882.508 1406.25,884.361 1410.87,886.213 1415.49,888.066 1420.11,889.919 1424.73,891.771 1429.35,893.624 1433.97,895.476 1438.59,897.328 1443.21,899.18 1447.83,901.032 1452.45,902.884 1457.07,904.735 1461.69,906.587 1466.31,908.439 1470.93,910.29 1475.55,912.142 1480.17,913.993 1484.79,915.844 1489.41,917.695 1494.03,919.546 1498.65,921.397 1503.27,923.248 1507.89,925.099 1512.51,926.95 1517.13,928.801 1521.75,930.651 1526.37,932.502 1530.99,934.352 1535.61,936.203 1540.23,938.053 1544.85,939.904 1549.47,941.754 1554.09,943.604 1558.71,945.454 1563.33,947.304 1567.95,949.154 1572.57,951.004 1577.19,952.854 1581.81,954.704 1586.43,956.554 1591.05,958.404 1595.67,960.254 1600.29,962.104 1604.91,963.953 1609.53,965.803 1614.15,967.652 1618.77,969.502 1623.39,971.352 1628.01,973.201 1632.63,975.051 1637.25,976.9 1641.87,978.749 1646.49,980.599 1651.11,982.448 1655.73,984.297 1660.35,986.147 1664.97,987.996 1669.59,989.845 1674.21,991.694 1678.83,993.543 1683.45,995.392 1688.07,997.242 1692.69,999.091 1697.31,1000.94 1701.93,1002.79 1706.55,1004.64 1711.17,1006.49 1715.79,1008.34 1720.41,1010.18 1725.03,1012.03 1729.65,1013.88 1734.27,1015.73 1738.89,1017.58 1743.51,1019.43 1748.13,1021.28 1752.75,1023.13 1757.37,1024.98 1761.99,1026.82 1766.61,1028.67 1771.23,1030.52 1775.85,1032.37 1780.47,1034.22 1785.09,1036.07 1789.71,1037.92 1794.33,1039.76 1798.95,1041.61 1803.57,1043.46 1808.19,1045.31 1812.81,1047.16 1817.43,1049.01 1822.05,1050.86 1826.67,1052.7 1831.29,1054.55 1835.91,1056.4 1840.53,1058.25 1845.15,1060.1 1849.77,1061.95 1854.39,1063.8 1859.01,1065.64 1863.63,1067.49 1868.25,1069.34 1872.87,1071.19 1877.49,1073.04 1882.11,1074.89 1886.73,1076.73 1891.35,1078.58 1895.97,1080.43 1900.59,1082.28 1905.21,1084.13 1909.83,1085.98 1914.45,1087.82 1919.07,1089.67 1923.69,1091.52 1928.31,1093.37 1932.93,1095.22 1937.55,1097.07 1942.17,1098.91 1946.79,1100.76 1951.41,1102.61 1956.03,1104.46 1960.65,1106.31 1965.27,1108.16 1969.89,1110 1974.51,1111.85 1979.13,1113.7 1983.75,1115.55 1988.37,1117.4 1992.99,1119.24 1997.61,1121.09 2002.23,1122.94 2006.85,1124.79 2011.47,1126.64 2016.09,1128.49 2020.71,1130.33 2025.33,1132.18 2029.95,1134.03 2034.57,1135.88 2039.19,1137.73 2043.81,1139.58 2048.43,1141.42 2053.05,1143.27 2057.67,1145.12 2062.29,1146.97 2066.91,1148.82 2071.53,1150.66 2076.15,1152.51 2080.77,1154.36 2085.39,1156.21 2090.01,1158.06 2094.63,1159.9 2099.25,1161.75 2103.87,1163.6 2108.49,1165.45 2113.11,1167.3 2117.73,1169.15 2122.35,1170.99 2126.97,1172.84 2131.59,1174.69 2136.21,1176.54 2140.84,1178.39 2145.46,1180.23 2150.08,1182.08 2154.7,1183.93 2159.32,1185.78 2163.94,1187.63 2168.56,1189.47 2173.18,1191.32 2177.8,1193.17 2182.42,1195.02 2187.04,1196.87 2191.66,1198.72 2196.28,1200.56 2200.9,1202.41 2205.52,1204.26 2210.14,1206.11 2214.76,1207.96 2219.38,1209.8 2224,1211.65 2228.62,1213.5 2233.24,1215.35 2237.86,1217.2 2242.48,1219.04 2247.1,1220.89 2251.72,1222.74 2256.34,1224.59 2260.96,1226.44 2265.58,1228.28 2270.2,1230.13 2274.82,1231.98 2279.44,1233.83 2284.06,1235.68 2288.68,1237.52 2293.3,1239.37 "/>
<polyline clip-path="url(#clip982)" style="stroke:#ac8d18; stroke-linecap:round; stroke-linejoin:round; stroke-width:4; stroke-opacity:1; fill:none" points="311.302,160.256 315.922,160.256 320.542,160.256 325.162,160.256 329.782,160.256 334.402,160.256 339.022,160.256 343.642,199.118 348.262,223.887 352.882,258.681 357.503,265.973 362.123,266.929 366.743,266.929 371.363,331.178 375.983,391.237 380.603,514.784 385.223,591.464 389.843,731.55 394.463,912.009 399.083,1127.89 403.703,1386.4 "/>
<path clip-path="url(#clip980)" d="M1749.53 477.836 L2282.73 477.836 L2282.73 166.796 L1749.53 166.796  Z" fill="#ffffff" fill-rule="evenodd" fill-opacity="1"/>
<polyline clip-path="url(#clip980)" style="stroke:#000000; stroke-linecap:round; stroke-linejoin:round; stroke-width:4; stroke-opacity:1; fill:none" points="1749.53,477.836 2282.73,477.836 2282.73,166.796 1749.53,166.796 1749.53,477.836 "/>
<polyline clip-path="url(#clip980)" style="stroke:#009af9; stroke-linecap:round; stroke-linejoin:round; stroke-width:4; stroke-opacity:1; fill:none" points="1772.88,218.636 1912.94,218.636 "/>
<path clip-path="url(#clip980)" d="M1936.28 201.356 L1940.96 201.356 L1940.96 231.981 L1957.79 231.981 L1957.79 235.916 L1936.28 235.916 L1936.28 201.356 Z" fill="#000000" fill-rule="nonzero" fill-opacity="1" /><path clip-path="url(#clip980)" d="M1962.69 201.356 L1969.66 201.356 L1978.48 224.874 L1987.35 201.356 L1994.31 201.356 L1994.31 235.916 L1989.75 235.916 L1989.75 205.569 L1980.84 229.272 L1976.14 229.272 L1967.23 205.569 L1967.23 235.916 L1962.69 235.916 L1962.69 201.356 Z" fill="#000000" fill-rule="nonzero" fill-opacity="1" /><path clip-path="url(#clip980)" d="M2023.11 243.786 L2023.11 247.096 L1998.48 247.096 L1998.48 243.786 L2023.11 243.786 Z" fill="#000000" fill-rule="nonzero" fill-opacity="1" /><path clip-path="url(#clip980)" d="M2048.02 202.49 L2048.02 207.05 Q2045.36 205.777 2042.99 205.152 Q2040.63 204.527 2038.43 204.527 Q2034.61 204.527 2032.53 206.008 Q2030.47 207.49 2030.47 210.221 Q2030.47 212.513 2031.84 213.694 Q2033.23 214.851 2037.07 215.569 L2039.89 216.147 Q2045.12 217.143 2047.6 219.666 Q2050.1 222.166 2050.1 226.379 Q2050.1 231.402 2046.72 233.994 Q2043.36 236.587 2036.86 236.587 Q2034.41 236.587 2031.63 236.031 Q2028.87 235.476 2025.91 234.388 L2025.91 229.573 Q2028.76 231.17 2031.49 231.981 Q2034.22 232.791 2036.86 232.791 Q2040.86 232.791 2043.04 231.217 Q2045.22 229.643 2045.22 226.726 Q2045.22 224.18 2043.64 222.744 Q2042.09 221.309 2038.53 220.592 L2035.68 220.036 Q2030.45 218.995 2028.11 216.772 Q2025.77 214.55 2025.77 210.592 Q2025.77 206.008 2028.99 203.37 Q2032.23 200.731 2037.9 200.731 Q2040.33 200.731 2042.86 201.171 Q2045.38 201.61 2048.02 202.49 Z" fill="#000000" fill-rule="nonzero" fill-opacity="1" /><path clip-path="url(#clip980)" d="M2062.07 205.198 L2062.07 218.184 L2067.95 218.184 Q2071.21 218.184 2072.99 216.495 Q2074.78 214.805 2074.78 211.68 Q2074.78 208.578 2072.99 206.888 Q2071.21 205.198 2067.95 205.198 L2062.07 205.198 M2057.39 201.356 L2067.95 201.356 Q2073.76 201.356 2076.72 203.995 Q2079.71 206.61 2079.71 211.68 Q2079.71 216.795 2076.72 219.411 Q2073.76 222.027 2067.95 222.027 L2062.07 222.027 L2062.07 235.916 L2057.39 235.916 L2057.39 201.356 Z" fill="#000000" fill-rule="nonzero" fill-opacity="1" /><path clip-path="url(#clip980)" d="M2109.54 230.985 L2109.54 221.703 L2101.91 221.703 L2101.91 217.86 L2114.17 217.86 L2114.17 232.698 Q2111.47 234.619 2108.2 235.615 Q2104.94 236.587 2101.23 236.587 Q2093.13 236.587 2088.55 231.865 Q2083.99 227.119 2083.99 218.67 Q2083.99 210.198 2088.55 205.476 Q2093.13 200.731 2101.23 200.731 Q2104.61 200.731 2107.65 201.564 Q2110.7 202.397 2113.27 204.018 L2113.27 208.995 Q2110.68 206.796 2107.76 205.684 Q2104.85 204.573 2101.63 204.573 Q2095.29 204.573 2092.09 208.115 Q2088.92 211.657 2088.92 218.67 Q2088.92 225.661 2092.09 229.203 Q2095.29 232.744 2101.63 232.744 Q2104.11 232.744 2106.05 232.328 Q2107.99 231.888 2109.54 230.985 Z" fill="#000000" fill-rule="nonzero" fill-opacity="1" /><polyline clip-path="url(#clip980)" style="stroke:#e26f46; stroke-linecap:round; stroke-linejoin:round; stroke-width:4; stroke-opacity:1; fill:none" points="1772.88,270.476 1912.94,270.476 "/>
<path clip-path="url(#clip980)" d="M1936.28 253.196 L1940.96 253.196 L1940.96 283.821 L1957.79 283.821 L1957.79 287.756 L1936.28 287.756 L1936.28 253.196 Z" fill="#000000" fill-rule="nonzero" fill-opacity="1" /><path clip-path="url(#clip980)" d="M1962.69 253.196 L1969.66 253.196 L1978.48 276.714 L1987.35 253.196 L1994.31 253.196 L1994.31 287.756 L1989.75 287.756 L1989.75 257.409 L1980.84 281.112 L1976.14 281.112 L1967.23 257.409 L1967.23 287.756 L1962.69 287.756 L1962.69 253.196 Z" fill="#000000" fill-rule="nonzero" fill-opacity="1" /><path clip-path="url(#clip980)" d="M2023.11 295.626 L2023.11 298.936 L1998.48 298.936 L1998.48 295.626 L2023.11 295.626 Z" fill="#000000" fill-rule="nonzero" fill-opacity="1" /><path clip-path="url(#clip980)" d="M2038.85 257.802 L2032.51 275.001 L2045.22 275.001 L2038.85 257.802 M2036.21 253.196 L2041.51 253.196 L2054.68 287.756 L2049.82 287.756 L2046.67 278.89 L2031.1 278.89 L2027.95 287.756 L2023.02 287.756 L2036.21 253.196 Z" fill="#000000" fill-rule="nonzero" fill-opacity="1" /><path clip-path="url(#clip980)" d="M2081.1 272.108 L2081.1 287.756 L2076.84 287.756 L2076.84 272.247 Q2076.84 268.566 2075.4 266.737 Q2073.97 264.909 2071.1 264.909 Q2067.65 264.909 2065.66 267.108 Q2063.67 269.307 2063.67 273.103 L2063.67 287.756 L2059.38 287.756 L2059.38 261.83 L2063.67 261.83 L2063.67 265.858 Q2065.19 263.52 2067.25 262.362 Q2069.34 261.205 2072.05 261.205 Q2076.51 261.205 2078.8 263.983 Q2081.1 266.737 2081.1 272.108 Z" fill="#000000" fill-rule="nonzero" fill-opacity="1" /><path clip-path="url(#clip980)" d="M2106.65 265.765 L2106.65 251.737 L2110.91 251.737 L2110.91 287.756 L2106.65 287.756 L2106.65 283.867 Q2105.31 286.182 2103.25 287.316 Q2101.21 288.427 2098.34 288.427 Q2093.64 288.427 2090.68 284.677 Q2087.74 280.927 2087.74 274.816 Q2087.74 268.705 2090.68 264.955 Q2093.64 261.205 2098.34 261.205 Q2101.21 261.205 2103.25 262.339 Q2105.31 263.45 2106.65 265.765 M2092.14 274.816 Q2092.14 279.515 2094.06 282.2 Q2096 284.862 2099.38 284.862 Q2102.76 284.862 2104.71 282.2 Q2106.65 279.515 2106.65 274.816 Q2106.65 270.117 2104.71 267.455 Q2102.76 264.77 2099.38 264.77 Q2096 264.77 2094.06 267.455 Q2092.14 270.117 2092.14 274.816 Z" fill="#000000" fill-rule="nonzero" fill-opacity="1" /><path clip-path="url(#clip980)" d="M2134.71 265.811 Q2133.99 265.395 2133.13 265.21 Q2132.3 265.001 2131.28 265.001 Q2127.67 265.001 2125.73 267.362 Q2123.8 269.7 2123.8 274.098 L2123.8 287.756 L2119.52 287.756 L2119.52 261.83 L2123.8 261.83 L2123.8 265.858 Q2125.15 263.497 2127.3 262.362 Q2129.45 261.205 2132.53 261.205 Q2132.97 261.205 2133.5 261.274 Q2134.04 261.321 2134.68 261.436 L2134.71 265.811 Z" fill="#000000" fill-rule="nonzero" fill-opacity="1" /><path clip-path="url(#clip980)" d="M2160.31 273.728 L2160.31 275.811 L2140.73 275.811 Q2141 280.209 2143.36 282.524 Q2145.75 284.816 2149.98 284.816 Q2152.44 284.816 2154.73 284.214 Q2157.04 283.612 2159.31 282.409 L2159.31 286.436 Q2157.02 287.408 2154.61 287.918 Q2152.21 288.427 2149.73 288.427 Q2143.53 288.427 2139.89 284.816 Q2136.28 281.205 2136.28 275.047 Q2136.28 268.682 2139.71 264.955 Q2143.16 261.205 2148.99 261.205 Q2154.22 261.205 2157.25 264.585 Q2160.31 267.941 2160.31 273.728 M2156.05 272.478 Q2156 268.983 2154.08 266.899 Q2152.18 264.816 2149.04 264.816 Q2145.47 264.816 2143.32 266.83 Q2141.19 268.844 2140.86 272.501 L2156.05 272.478 Z" fill="#000000" fill-rule="nonzero" fill-opacity="1" /><path clip-path="url(#clip980)" d="M2167.3 261.83 L2171.56 261.83 L2171.56 287.756 L2167.3 287.756 L2167.3 261.83 M2167.3 251.737 L2171.56 251.737 L2171.56 257.131 L2167.3 257.131 L2167.3 251.737 Z" fill="#000000" fill-rule="nonzero" fill-opacity="1" /><path clip-path="url(#clip980)" d="M2200.17 295.626 L2200.17 298.936 L2175.54 298.936 L2175.54 295.626 L2200.17 295.626 Z" fill="#000000" fill-rule="nonzero" fill-opacity="1" /><path clip-path="url(#clip980)" d="M2215.96 274.723 Q2210.79 274.723 2208.8 275.904 Q2206.81 277.084 2206.81 279.932 Q2206.81 282.2 2208.29 283.543 Q2209.8 284.862 2212.37 284.862 Q2215.91 284.862 2218.04 282.362 Q2220.19 279.839 2220.19 275.672 L2220.19 274.723 L2215.96 274.723 M2224.45 272.964 L2224.45 287.756 L2220.19 287.756 L2220.19 283.821 Q2218.73 286.182 2216.56 287.316 Q2214.38 288.427 2211.23 288.427 Q2207.25 288.427 2204.89 286.205 Q2202.55 283.959 2202.55 280.209 Q2202.55 275.834 2205.47 273.612 Q2208.41 271.39 2214.22 271.39 L2220.19 271.39 L2220.19 270.973 Q2220.19 268.034 2218.25 266.436 Q2216.33 264.816 2212.83 264.816 Q2210.61 264.816 2208.5 265.348 Q2206.4 265.881 2204.45 266.946 L2204.45 263.01 Q2206.79 262.108 2208.99 261.668 Q2211.19 261.205 2213.27 261.205 Q2218.9 261.205 2221.67 264.122 Q2224.45 267.038 2224.45 272.964 Z" fill="#000000" fill-rule="nonzero" fill-opacity="1" /><path clip-path="url(#clip980)" d="M2233.22 251.737 L2237.48 251.737 L2237.48 287.756 L2233.22 287.756 L2233.22 251.737 Z" fill="#000000" fill-rule="nonzero" fill-opacity="1" /><path clip-path="url(#clip980)" d="M2250.61 254.469 L2250.61 261.83 L2259.38 261.83 L2259.38 265.14 L2250.61 265.14 L2250.61 279.214 Q2250.61 282.385 2251.47 283.288 Q2252.34 284.191 2255.01 284.191 L2259.38 284.191 L2259.38 287.756 L2255.01 287.756 Q2250.08 287.756 2248.2 285.927 Q2246.33 284.075 2246.33 279.214 L2246.33 265.14 L2243.2 265.14 L2243.2 261.83 L2246.33 261.83 L2246.33 254.469 L2250.61 254.469 Z" fill="#000000" fill-rule="nonzero" fill-opacity="1" /><polyline clip-path="url(#clip980)" style="stroke:#3da44d; stroke-linecap:round; stroke-linejoin:round; stroke-width:4; stroke-opacity:1; fill:none" points="1772.88,322.316 1912.94,322.316 "/>
<path clip-path="url(#clip980)" d="M1936.28 305.036 L1940.96 305.036 L1940.96 335.661 L1957.79 335.661 L1957.79 339.596 L1936.28 339.596 L1936.28 305.036 Z" fill="#000000" fill-rule="nonzero" fill-opacity="1" /><path clip-path="url(#clip980)" d="M1962.69 305.036 L1969.66 305.036 L1978.48 328.554 L1987.35 305.036 L1994.31 305.036 L1994.31 339.596 L1989.75 339.596 L1989.75 309.249 L1980.84 332.952 L1976.14 332.952 L1967.23 309.249 L1967.23 339.596 L1962.69 339.596 L1962.69 305.036 Z" fill="#000000" fill-rule="nonzero" fill-opacity="1" /><path clip-path="url(#clip980)" d="M2023.11 347.466 L2023.11 350.776 L1998.48 350.776 L1998.48 347.466 L2023.11 347.466 Z" fill="#000000" fill-rule="nonzero" fill-opacity="1" /><path clip-path="url(#clip980)" d="M2038.85 309.642 L2032.51 326.841 L2045.22 326.841 L2038.85 309.642 M2036.21 305.036 L2041.51 305.036 L2054.68 339.596 L2049.82 339.596 L2046.67 330.73 L2031.1 330.73 L2027.95 339.596 L2023.02 339.596 L2036.21 305.036 Z" fill="#000000" fill-rule="nonzero" fill-opacity="1" /><path clip-path="url(#clip980)" d="M2081.1 323.948 L2081.1 339.596 L2076.84 339.596 L2076.84 324.087 Q2076.84 320.406 2075.4 318.577 Q2073.97 316.749 2071.1 316.749 Q2067.65 316.749 2065.66 318.948 Q2063.67 321.147 2063.67 324.943 L2063.67 339.596 L2059.38 339.596 L2059.38 313.67 L2063.67 313.67 L2063.67 317.698 Q2065.19 315.36 2067.25 314.202 Q2069.34 313.045 2072.05 313.045 Q2076.51 313.045 2078.8 315.823 Q2081.1 318.577 2081.1 323.948 Z" fill="#000000" fill-rule="nonzero" fill-opacity="1" /><path clip-path="url(#clip980)" d="M2106.65 317.605 L2106.65 303.577 L2110.91 303.577 L2110.91 339.596 L2106.65 339.596 L2106.65 335.707 Q2105.31 338.022 2103.25 339.156 Q2101.21 340.267 2098.34 340.267 Q2093.64 340.267 2090.68 336.517 Q2087.74 332.767 2087.74 326.656 Q2087.74 320.545 2090.68 316.795 Q2093.64 313.045 2098.34 313.045 Q2101.21 313.045 2103.25 314.179 Q2105.31 315.29 2106.65 317.605 M2092.14 326.656 Q2092.14 331.355 2094.06 334.04 Q2096 336.702 2099.38 336.702 Q2102.76 336.702 2104.71 334.04 Q2106.65 331.355 2106.65 326.656 Q2106.65 321.957 2104.71 319.295 Q2102.76 316.61 2099.38 316.61 Q2096 316.61 2094.06 319.295 Q2092.14 321.957 2092.14 326.656 Z" fill="#000000" fill-rule="nonzero" fill-opacity="1" /><path clip-path="url(#clip980)" d="M2134.71 317.651 Q2133.99 317.235 2133.13 317.05 Q2132.3 316.841 2131.28 316.841 Q2127.67 316.841 2125.73 319.202 Q2123.8 321.54 2123.8 325.938 L2123.8 339.596 L2119.52 339.596 L2119.52 313.67 L2123.8 313.67 L2123.8 317.698 Q2125.15 315.337 2127.3 314.202 Q2129.45 313.045 2132.53 313.045 Q2132.97 313.045 2133.5 313.114 Q2134.04 313.161 2134.68 313.276 L2134.71 317.651 Z" fill="#000000" fill-rule="nonzero" fill-opacity="1" /><path clip-path="url(#clip980)" d="M2160.31 325.568 L2160.31 327.651 L2140.73 327.651 Q2141 332.049 2143.36 334.364 Q2145.75 336.656 2149.98 336.656 Q2152.44 336.656 2154.73 336.054 Q2157.04 335.452 2159.31 334.249 L2159.31 338.276 Q2157.02 339.248 2154.61 339.758 Q2152.21 340.267 2149.73 340.267 Q2143.53 340.267 2139.89 336.656 Q2136.28 333.045 2136.28 326.887 Q2136.28 320.522 2139.71 316.795 Q2143.16 313.045 2148.99 313.045 Q2154.22 313.045 2157.25 316.425 Q2160.31 319.781 2160.31 325.568 M2156.05 324.318 Q2156 320.823 2154.08 318.739 Q2152.18 316.656 2149.04 316.656 Q2145.47 316.656 2143.32 318.67 Q2141.19 320.684 2140.86 324.341 L2156.05 324.318 Z" fill="#000000" fill-rule="nonzero" fill-opacity="1" /><path clip-path="url(#clip980)" d="M2167.3 313.67 L2171.56 313.67 L2171.56 339.596 L2167.3 339.596 L2167.3 313.67 M2167.3 303.577 L2171.56 303.577 L2171.56 308.971 L2167.3 308.971 L2167.3 303.577 Z" fill="#000000" fill-rule="nonzero" fill-opacity="1" /><polyline clip-path="url(#clip980)" style="stroke:#c271d2; stroke-linecap:round; stroke-linejoin:round; stroke-width:4; stroke-opacity:1; fill:none" points="1772.88,374.156 1912.94,374.156 "/>
<path clip-path="url(#clip980)" d="M1936.28 356.876 L1940.96 356.876 L1940.96 387.501 L1957.79 387.501 L1957.79 391.436 L1936.28 391.436 L1936.28 356.876 Z" fill="#000000" fill-rule="nonzero" fill-opacity="1" /><path clip-path="url(#clip980)" d="M1962.69 356.876 L1969.66 356.876 L1978.48 380.394 L1987.35 356.876 L1994.31 356.876 L1994.31 391.436 L1989.75 391.436 L1989.75 361.089 L1980.84 384.792 L1976.14 384.792 L1967.23 361.089 L1967.23 391.436 L1962.69 391.436 L1962.69 356.876 Z" fill="#000000" fill-rule="nonzero" fill-opacity="1" /><path clip-path="url(#clip980)" d="M2023.11 399.306 L2023.11 402.616 L1998.48 402.616 L1998.48 399.306 L2023.11 399.306 Z" fill="#000000" fill-rule="nonzero" fill-opacity="1" /><path clip-path="url(#clip980)" d="M2048.02 358.01 L2048.02 362.57 Q2045.36 361.297 2042.99 360.672 Q2040.63 360.047 2038.43 360.047 Q2034.61 360.047 2032.53 361.528 Q2030.47 363.01 2030.47 365.741 Q2030.47 368.033 2031.84 369.214 Q2033.23 370.371 2037.07 371.089 L2039.89 371.667 Q2045.12 372.663 2047.6 375.186 Q2050.1 377.686 2050.1 381.899 Q2050.1 386.922 2046.72 389.514 Q2043.36 392.107 2036.86 392.107 Q2034.41 392.107 2031.63 391.551 Q2028.87 390.996 2025.91 389.908 L2025.91 385.093 Q2028.76 386.69 2031.49 387.501 Q2034.22 388.311 2036.86 388.311 Q2040.86 388.311 2043.04 386.737 Q2045.22 385.163 2045.22 382.246 Q2045.22 379.7 2043.64 378.264 Q2042.09 376.829 2038.53 376.112 L2035.68 375.556 Q2030.45 374.515 2028.11 372.292 Q2025.77 370.07 2025.77 366.112 Q2025.77 361.528 2028.99 358.89 Q2032.23 356.251 2037.9 356.251 Q2040.33 356.251 2042.86 356.691 Q2045.38 357.13 2048.02 358.01 Z" fill="#000000" fill-rule="nonzero" fill-opacity="1" /><path clip-path="url(#clip980)" d="M2062.07 360.718 L2062.07 373.704 L2067.95 373.704 Q2071.21 373.704 2072.99 372.015 Q2074.78 370.325 2074.78 367.2 Q2074.78 364.098 2072.99 362.408 Q2071.21 360.718 2067.95 360.718 L2062.07 360.718 M2057.39 356.876 L2067.95 356.876 Q2073.76 356.876 2076.72 359.515 Q2079.71 362.13 2079.71 367.2 Q2079.71 372.315 2076.72 374.931 Q2073.76 377.547 2067.95 377.547 L2062.07 377.547 L2062.07 391.436 L2057.39 391.436 L2057.39 356.876 Z" fill="#000000" fill-rule="nonzero" fill-opacity="1" /><path clip-path="url(#clip980)" d="M2109.54 386.505 L2109.54 377.223 L2101.91 377.223 L2101.91 373.38 L2114.17 373.38 L2114.17 388.218 Q2111.47 390.139 2108.2 391.135 Q2104.94 392.107 2101.23 392.107 Q2093.13 392.107 2088.55 387.385 Q2083.99 382.639 2083.99 374.19 Q2083.99 365.718 2088.55 360.996 Q2093.13 356.251 2101.23 356.251 Q2104.61 356.251 2107.65 357.084 Q2110.7 357.917 2113.27 359.538 L2113.27 364.515 Q2110.68 362.316 2107.76 361.204 Q2104.85 360.093 2101.63 360.093 Q2095.29 360.093 2092.09 363.635 Q2088.92 367.177 2088.92 374.19 Q2088.92 381.181 2092.09 384.723 Q2095.29 388.264 2101.63 388.264 Q2104.11 388.264 2106.05 387.848 Q2107.99 387.408 2109.54 386.505 Z" fill="#000000" fill-rule="nonzero" fill-opacity="1" /><path clip-path="url(#clip980)" d="M2142.23 399.306 L2142.23 402.616 L2117.6 402.616 L2117.6 399.306 L2142.23 399.306 Z" fill="#000000" fill-rule="nonzero" fill-opacity="1" /><path clip-path="url(#clip980)" d="M2158.02 378.403 Q2152.85 378.403 2150.86 379.584 Q2148.87 380.764 2148.87 383.612 Q2148.87 385.88 2150.35 387.223 Q2151.86 388.542 2154.43 388.542 Q2157.97 388.542 2160.1 386.042 Q2162.25 383.519 2162.25 379.352 L2162.25 378.403 L2158.02 378.403 M2166.51 376.644 L2166.51 391.436 L2162.25 391.436 L2162.25 387.501 Q2160.79 389.862 2158.62 390.996 Q2156.44 392.107 2153.29 392.107 Q2149.31 392.107 2146.95 389.885 Q2144.61 387.639 2144.61 383.889 Q2144.61 379.514 2147.53 377.292 Q2150.47 375.07 2156.28 375.07 L2162.25 375.07 L2162.25 374.653 Q2162.25 371.714 2160.31 370.116 Q2158.39 368.496 2154.89 368.496 Q2152.67 368.496 2150.56 369.028 Q2148.46 369.561 2146.51 370.626 L2146.51 366.69 Q2148.85 365.788 2151.05 365.348 Q2153.25 364.885 2155.33 364.885 Q2160.96 364.885 2163.73 367.802 Q2166.51 370.718 2166.51 376.644 Z" fill="#000000" fill-rule="nonzero" fill-opacity="1" /><path clip-path="url(#clip980)" d="M2175.29 355.417 L2179.54 355.417 L2179.54 391.436 L2175.29 391.436 L2175.29 355.417 Z" fill="#000000" fill-rule="nonzero" fill-opacity="1" /><path clip-path="url(#clip980)" d="M2192.67 358.149 L2192.67 365.51 L2201.44 365.51 L2201.44 368.82 L2192.67 368.82 L2192.67 382.894 Q2192.67 386.065 2193.53 386.968 Q2194.41 387.871 2197.07 387.871 L2201.44 387.871 L2201.44 391.436 L2197.07 391.436 Q2192.14 391.436 2190.26 389.607 Q2188.39 387.755 2188.39 382.894 L2188.39 368.82 L2185.26 368.82 L2185.26 365.51 L2188.39 365.51 L2188.39 358.149 L2192.67 358.149 Z" fill="#000000" fill-rule="nonzero" fill-opacity="1" /><polyline clip-path="url(#clip980)" style="stroke:#ac8d18; stroke-linecap:round; stroke-linejoin:round; stroke-width:4; stroke-opacity:1; fill:none" points="1772.88,425.996 1912.94,425.996 "/>
<path clip-path="url(#clip980)" d="M1936.28 408.716 L1940.96 408.716 L1940.96 439.341 L1957.79 439.341 L1957.79 443.276 L1936.28 443.276 L1936.28 408.716 Z" fill="#000000" fill-rule="nonzero" fill-opacity="1" /><path clip-path="url(#clip980)" d="M1962.69 408.716 L1969.66 408.716 L1978.48 432.234 L1987.35 408.716 L1994.31 408.716 L1994.31 443.276 L1989.75 443.276 L1989.75 412.929 L1980.84 436.632 L1976.14 436.632 L1967.23 412.929 L1967.23 443.276 L1962.69 443.276 L1962.69 408.716 Z" fill="#000000" fill-rule="nonzero" fill-opacity="1" /><path clip-path="url(#clip980)" d="M2023.11 451.146 L2023.11 454.456 L1998.48 454.456 L1998.48 451.146 L2023.11 451.146 Z" fill="#000000" fill-rule="nonzero" fill-opacity="1" /><path clip-path="url(#clip980)" d="M2031.33 409.989 L2031.33 417.35 L2040.1 417.35 L2040.1 420.66 L2031.33 420.66 L2031.33 434.734 Q2031.33 437.905 2032.18 438.808 Q2033.06 439.711 2035.73 439.711 L2040.1 439.711 L2040.1 443.276 L2035.73 443.276 Q2030.8 443.276 2028.92 441.447 Q2027.05 439.595 2027.05 434.734 L2027.05 420.66 L2023.92 420.66 L2023.92 417.35 L2027.05 417.35 L2027.05 409.989 L2031.33 409.989 Z" fill="#000000" fill-rule="nonzero" fill-opacity="1" /><path clip-path="url(#clip980)" d="M2067.88 429.248 L2067.88 431.331 L2048.3 431.331 Q2048.57 435.729 2050.93 438.044 Q2053.32 440.336 2057.55 440.336 Q2060.01 440.336 2062.3 439.734 Q2064.61 439.132 2066.88 437.929 L2066.88 441.956 Q2064.59 442.928 2062.18 443.438 Q2059.78 443.947 2057.3 443.947 Q2051.1 443.947 2047.46 440.336 Q2043.85 436.725 2043.85 430.567 Q2043.85 424.202 2047.28 420.475 Q2050.73 416.725 2056.56 416.725 Q2061.79 416.725 2064.82 420.105 Q2067.88 423.461 2067.88 429.248 M2063.62 427.998 Q2063.57 424.503 2061.65 422.419 Q2059.75 420.336 2056.61 420.336 Q2053.04 420.336 2050.89 422.35 Q2048.76 424.364 2048.43 428.021 L2063.62 427.998 Z" fill="#000000" fill-rule="nonzero" fill-opacity="1" /><path clip-path="url(#clip980)" d="M2091.4 418.114 L2091.4 422.142 Q2089.59 421.216 2087.65 420.753 Q2085.7 420.29 2083.62 420.29 Q2080.45 420.29 2078.85 421.262 Q2077.28 422.234 2077.28 424.179 Q2077.28 425.66 2078.41 426.517 Q2079.54 427.35 2082.97 428.114 L2084.43 428.438 Q2088.97 429.41 2090.86 431.192 Q2092.79 432.952 2092.79 436.123 Q2092.79 439.734 2089.92 441.841 Q2087.07 443.947 2082.07 443.947 Q2079.98 443.947 2077.72 443.53 Q2075.47 443.137 2072.97 442.327 L2072.97 437.929 Q2075.33 439.155 2077.62 439.78 Q2079.92 440.382 2082.16 440.382 Q2085.17 440.382 2086.79 439.364 Q2088.41 438.322 2088.41 436.447 Q2088.41 434.711 2087.23 433.785 Q2086.07 432.859 2082.11 432.003 L2080.63 431.655 Q2076.67 430.822 2074.92 429.109 Q2073.16 427.373 2073.16 424.364 Q2073.16 420.706 2075.75 418.716 Q2078.34 416.725 2083.11 416.725 Q2085.47 416.725 2087.55 417.072 Q2089.64 417.419 2091.4 418.114 Z" fill="#000000" fill-rule="nonzero" fill-opacity="1" /><path clip-path="url(#clip980)" d="M2103.78 409.989 L2103.78 417.35 L2112.55 417.35 L2112.55 420.66 L2103.78 420.66 L2103.78 434.734 Q2103.78 437.905 2104.64 438.808 Q2105.52 439.711 2108.18 439.711 L2112.55 439.711 L2112.55 443.276 L2108.18 443.276 Q2103.25 443.276 2101.37 441.447 Q2099.5 439.595 2099.5 434.734 L2099.5 420.66 L2096.37 420.66 L2096.37 417.35 L2099.5 417.35 L2099.5 409.989 L2103.78 409.989 Z" fill="#000000" fill-rule="nonzero" fill-opacity="1" /></svg>
