<?xml version="1.0" encoding="utf-8"?>
<svg xmlns="http://www.w3.org/2000/svg" xmlns:xlink="http://www.w3.org/1999/xlink" width="600" height="400" viewBox="0 0 2400 1600">
<defs>
  <clipPath id="clip620">
    <rect x="0" y="0" width="2400" height="1600"/>
  </clipPath>
</defs>
<path clip-path="url(#clip620)" d="M0 1600 L2400 1600 L2400 0 L0 0  Z" fill="#ffffff" fill-rule="evenodd" fill-opacity="1"/>
<defs>
  <clipPath id="clip621">
    <rect x="480" y="0" width="1681" height="1600"/>
  </clipPath>
</defs>
<path clip-path="url(#clip620)" d="M222.69 1423.18 L2352.76 1423.18 L2352.76 123.472 L222.69 123.472  Z" fill="#ffffff" fill-rule="evenodd" fill-opacity="1"/>
<defs>
  <clipPath id="clip622">
    <rect x="222" y="123" width="2131" height="1301"/>
  </clipPath>
</defs>
<polyline clip-path="url(#clip622)" style="stroke:#000000; stroke-linecap:round; stroke-linejoin:round; stroke-width:2; stroke-opacity:0.1; fill:none" points="550.908,1423.18 550.908,123.472 "/>
<polyline clip-path="url(#clip622)" style="stroke:#000000; stroke-linecap:round; stroke-linejoin:round; stroke-width:2; stroke-opacity:0.1; fill:none" points="952.807,1423.18 952.807,123.472 "/>
<polyline clip-path="url(#clip622)" style="stroke:#000000; stroke-linecap:round; stroke-linejoin:round; stroke-width:2; stroke-opacity:0.1; fill:none" points="1354.71,1423.18 1354.71,123.472 "/>
<polyline clip-path="url(#clip622)" style="stroke:#000000; stroke-linecap:round; stroke-linejoin:round; stroke-width:2; stroke-opacity:0.1; fill:none" points="1756.61,1423.18 1756.61,123.472 "/>
<polyline clip-path="url(#clip622)" style="stroke:#000000; stroke-linecap:round; stroke-linejoin:round; stroke-width:2; stroke-opacity:0.1; fill:none" points="2158.5,1423.18 2158.5,123.472 "/>
<polyline clip-path="url(#clip620)" style="stroke:#000000; stroke-linecap:round; stroke-linejoin:round; stroke-width:4; stroke-opacity:1; fill:none" points="222.69,1423.18 2352.76,1423.18 "/>
<polyline clip-path="url(#clip620)" style="stroke:#000000; stroke-linecap:round; stroke-linejoin:round; stroke-width:4; stroke-opacity:1; fill:none" points="550.908,1423.18 550.908,1404.28 "/>
<polyline clip-path="url(#clip620)" style="stroke:#000000; stroke-linecap:round; stroke-linejoin:round; stroke-width:4; stroke-opacity:1; fill:none" points="952.807,1423.18 952.807,1404.28 "/>
<polyline clip-path="url(#clip620)" style="stroke:#000000; stroke-linecap:round; stroke-linejoin:round; stroke-width:4; stroke-opacity:1; fill:none" points="1354.71,1423.18 1354.71,1404.28 "/>
<polyline clip-path="url(#clip620)" style="stroke:#000000; stroke-linecap:round; stroke-linejoin:round; stroke-width:4; stroke-opacity:1; fill:none" points="1756.61,1423.18 1756.61,1404.28 "/>
<polyline clip-path="url(#clip620)" style="stroke:#000000; stroke-linecap:round; stroke-linejoin:round; stroke-width:4; stroke-opacity:1; fill:none" points="2158.5,1423.18 2158.5,1404.28 "/>
<path clip-path="url(#clip620)" d="M555.156 1466.95 Q558.512 1467.66 560.387 1469.93 Q562.285 1472.2 562.285 1475.53 Q562.285 1480.65 558.767 1483.45 Q555.248 1486.25 548.767 1486.25 Q546.591 1486.25 544.276 1485.81 Q541.984 1485.39 539.531 1484.54 L539.531 1480.02 Q541.475 1481.16 543.79 1481.74 Q546.105 1482.32 548.628 1482.32 Q553.026 1482.32 555.318 1480.58 Q557.632 1478.84 557.632 1475.53 Q557.632 1472.48 555.48 1470.77 Q553.35 1469.03 549.531 1469.03 L545.503 1469.03 L545.503 1465.19 L549.716 1465.19 Q553.165 1465.19 554.994 1463.82 Q556.822 1462.43 556.822 1459.84 Q556.822 1457.18 554.924 1455.77 Q553.049 1454.33 549.531 1454.33 Q547.609 1454.33 545.41 1454.75 Q543.211 1455.16 540.572 1456.04 L540.572 1451.88 Q543.234 1451.14 545.549 1450.77 Q547.887 1450.39 549.947 1450.39 Q555.271 1450.39 558.373 1452.83 Q561.475 1455.23 561.475 1459.35 Q561.475 1462.22 559.832 1464.21 Q558.188 1466.18 555.156 1466.95 Z" fill="#000000" fill-rule="nonzero" fill-opacity="1" /><path clip-path="url(#clip620)" d="M953.212 1466.44 Q950.064 1466.44 948.212 1468.59 Q946.384 1470.74 946.384 1474.49 Q946.384 1478.22 948.212 1480.39 Q950.064 1482.55 953.212 1482.55 Q956.36 1482.55 958.189 1480.39 Q960.041 1478.22 960.041 1474.49 Q960.041 1470.74 958.189 1468.59 Q956.36 1466.44 953.212 1466.44 M962.495 1451.78 L962.495 1456.04 Q960.735 1455.21 958.93 1454.77 Q957.147 1454.33 955.388 1454.33 Q950.759 1454.33 948.305 1457.45 Q945.874 1460.58 945.527 1466.9 Q946.893 1464.89 948.953 1463.82 Q951.013 1462.73 953.49 1462.73 Q958.698 1462.73 961.708 1465.9 Q964.74 1469.05 964.74 1474.49 Q964.74 1479.82 961.592 1483.03 Q958.444 1486.25 953.212 1486.25 Q947.217 1486.25 944.046 1481.67 Q940.874 1477.06 940.874 1468.33 Q940.874 1460.14 944.763 1455.28 Q948.652 1450.39 955.203 1450.39 Q956.962 1450.39 958.745 1450.74 Q960.55 1451.09 962.495 1451.78 Z" fill="#000000" fill-rule="nonzero" fill-opacity="1" /><path clip-path="url(#clip620)" d="M1345.01 1484.86 L1345.01 1480.6 Q1346.77 1481.44 1348.57 1481.88 Q1350.38 1482.32 1352.11 1482.32 Q1356.74 1482.32 1359.17 1479.21 Q1361.63 1476.09 1361.97 1469.75 Q1360.63 1471.74 1358.57 1472.8 Q1356.51 1473.87 1354.01 1473.87 Q1348.83 1473.87 1345.79 1470.74 Q1342.79 1467.59 1342.79 1462.15 Q1342.79 1456.83 1345.93 1453.61 Q1349.08 1450.39 1354.31 1450.39 Q1360.31 1450.39 1363.46 1455 Q1366.63 1459.58 1366.63 1468.33 Q1366.63 1476.51 1362.74 1481.39 Q1358.87 1486.25 1352.32 1486.25 Q1350.56 1486.25 1348.76 1485.9 Q1346.95 1485.56 1345.01 1484.86 M1354.31 1470.21 Q1357.46 1470.21 1359.29 1468.06 Q1361.14 1465.9 1361.14 1462.15 Q1361.14 1458.43 1359.29 1456.27 Q1357.46 1454.1 1354.31 1454.1 Q1351.16 1454.1 1349.31 1456.27 Q1347.48 1458.43 1347.48 1462.15 Q1347.48 1465.9 1349.31 1468.06 Q1351.16 1470.21 1354.31 1470.21 Z" fill="#000000" fill-rule="nonzero" fill-opacity="1" /><path clip-path="url(#clip620)" d="M1732.09 1481.64 L1739.73 1481.64 L1739.73 1455.28 L1731.42 1456.95 L1731.42 1452.69 L1739.68 1451.02 L1744.36 1451.02 L1744.36 1481.64 L1752 1481.64 L1752 1485.58 L1732.09 1485.58 L1732.09 1481.64 Z" fill="#000000" fill-rule="nonzero" fill-opacity="1" /><path clip-path="url(#clip620)" d="M1765.47 1481.64 L1781.79 1481.64 L1781.79 1485.58 L1759.85 1485.58 L1759.85 1481.64 Q1762.51 1478.89 1767.09 1474.26 Q1771.7 1469.61 1772.88 1468.27 Q1775.12 1465.74 1776 1464.01 Q1776.91 1462.25 1776.91 1460.56 Q1776.91 1457.8 1774.96 1456.07 Q1773.04 1454.33 1769.94 1454.33 Q1767.74 1454.33 1765.29 1455.09 Q1762.86 1455.86 1760.08 1457.41 L1760.08 1452.69 Q1762.9 1451.55 1765.36 1450.97 Q1767.81 1450.39 1769.85 1450.39 Q1775.22 1450.39 1778.41 1453.08 Q1781.61 1455.77 1781.61 1460.26 Q1781.61 1462.39 1780.8 1464.31 Q1780.01 1466.2 1777.9 1468.8 Q1777.32 1469.47 1774.22 1472.69 Q1771.12 1475.88 1765.47 1481.64 Z" fill="#000000" fill-rule="nonzero" fill-opacity="1" /><path clip-path="url(#clip620)" d="M2133.69 1481.64 L2141.33 1481.64 L2141.33 1455.28 L2133.02 1456.95 L2133.02 1452.69 L2141.28 1451.02 L2145.96 1451.02 L2145.96 1481.64 L2153.6 1481.64 L2153.6 1485.58 L2133.69 1485.58 L2133.69 1481.64 Z" fill="#000000" fill-rule="nonzero" fill-opacity="1" /><path clip-path="url(#clip620)" d="M2163.09 1451.02 L2181.44 1451.02 L2181.44 1454.96 L2167.37 1454.96 L2167.37 1463.43 Q2168.39 1463.08 2169.41 1462.92 Q2170.43 1462.73 2171.44 1462.73 Q2177.23 1462.73 2180.61 1465.9 Q2183.99 1469.08 2183.99 1474.49 Q2183.99 1480.07 2180.52 1483.17 Q2177.05 1486.25 2170.73 1486.25 Q2168.55 1486.25 2166.28 1485.88 Q2164.04 1485.51 2161.63 1484.77 L2161.63 1480.07 Q2163.71 1481.2 2165.94 1481.76 Q2168.16 1482.32 2170.63 1482.32 Q2174.64 1482.32 2176.98 1480.21 Q2179.31 1478.1 2179.31 1474.49 Q2179.31 1470.88 2176.98 1468.77 Q2174.64 1466.67 2170.63 1466.67 Q2168.76 1466.67 2166.88 1467.08 Q2165.03 1467.5 2163.09 1468.38 L2163.09 1451.02 Z" fill="#000000" fill-rule="nonzero" fill-opacity="1" /><path clip-path="url(#clip620)" d="M1271.9 1518.52 L1277.79 1518.52 L1277.79 1547.77 L1295.27 1532.4 L1302.75 1532.4 L1283.84 1549.07 L1303.54 1568.04 L1295.9 1568.04 L1277.79 1550.63 L1277.79 1568.04 L1271.9 1568.04 L1271.9 1518.52 Z" fill="#000000" fill-rule="nonzero" fill-opacity="1" /><polyline clip-path="url(#clip622)" style="stroke:#000000; stroke-linecap:round; stroke-linejoin:round; stroke-width:2; stroke-opacity:0.1; fill:none" points="222.69,1261.66 2352.76,1261.66 "/>
<polyline clip-path="url(#clip622)" style="stroke:#000000; stroke-linecap:round; stroke-linejoin:round; stroke-width:2; stroke-opacity:0.1; fill:none" points="222.69,1032.41 2352.76,1032.41 "/>
<polyline clip-path="url(#clip622)" style="stroke:#000000; stroke-linecap:round; stroke-linejoin:round; stroke-width:2; stroke-opacity:0.1; fill:none" points="222.69,803.172 2352.76,803.172 "/>
<polyline clip-path="url(#clip622)" style="stroke:#000000; stroke-linecap:round; stroke-linejoin:round; stroke-width:2; stroke-opacity:0.1; fill:none" points="222.69,573.93 2352.76,573.93 "/>
<polyline clip-path="url(#clip622)" style="stroke:#000000; stroke-linecap:round; stroke-linejoin:round; stroke-width:2; stroke-opacity:0.1; fill:none" points="222.69,344.688 2352.76,344.688 "/>
<polyline clip-path="url(#clip620)" style="stroke:#000000; stroke-linecap:round; stroke-linejoin:round; stroke-width:4; stroke-opacity:1; fill:none" points="222.69,1423.18 222.69,123.472 "/>
<polyline clip-path="url(#clip620)" style="stroke:#000000; stroke-linecap:round; stroke-linejoin:round; stroke-width:4; stroke-opacity:1; fill:none" points="222.69,1261.66 241.588,1261.66 "/>
<polyline clip-path="url(#clip620)" style="stroke:#000000; stroke-linecap:round; stroke-linejoin:round; stroke-width:4; stroke-opacity:1; fill:none" points="222.69,1032.41 241.588,1032.41 "/>
<polyline clip-path="url(#clip620)" style="stroke:#000000; stroke-linecap:round; stroke-linejoin:round; stroke-width:4; stroke-opacity:1; fill:none" points="222.69,803.172 241.588,803.172 "/>
<polyline clip-path="url(#clip620)" style="stroke:#000000; stroke-linecap:round; stroke-linejoin:round; stroke-width:4; stroke-opacity:1; fill:none" points="222.69,573.93 241.588,573.93 "/>
<polyline clip-path="url(#clip620)" style="stroke:#000000; stroke-linecap:round; stroke-linejoin:round; stroke-width:4; stroke-opacity:1; fill:none" points="222.69,344.688 241.588,344.688 "/>
<path clip-path="url(#clip620)" d="M115.985 1281.45 L123.624 1281.45 L123.624 1255.08 L115.313 1256.75 L115.313 1252.49 L123.577 1250.82 L128.253 1250.82 L128.253 1281.45 L135.892 1281.45 L135.892 1285.38 L115.985 1285.38 L115.985 1281.45 Z" fill="#000000" fill-rule="nonzero" fill-opacity="1" /><path clip-path="url(#clip620)" d="M155.336 1253.9 Q151.725 1253.9 149.897 1257.47 Q148.091 1261.01 148.091 1268.14 Q148.091 1275.25 149.897 1278.81 Q151.725 1282.35 155.336 1282.35 Q158.971 1282.35 160.776 1278.81 Q162.605 1275.25 162.605 1268.14 Q162.605 1261.01 160.776 1257.47 Q158.971 1253.9 155.336 1253.9 M155.336 1250.2 Q161.146 1250.2 164.202 1254.81 Q167.281 1259.39 167.281 1268.14 Q167.281 1276.87 164.202 1281.47 Q161.146 1286.06 155.336 1286.06 Q149.526 1286.06 146.447 1281.47 Q143.392 1276.87 143.392 1268.14 Q143.392 1259.39 146.447 1254.81 Q149.526 1250.2 155.336 1250.2 Z" fill="#000000" fill-rule="nonzero" fill-opacity="1" /><path clip-path="url(#clip620)" d="M176.986 1232.4 Q174.052 1232.4 172.566 1235.29 Q171.099 1238.17 171.099 1243.96 Q171.099 1249.74 172.566 1252.63 Q174.052 1255.51 176.986 1255.51 Q179.938 1255.51 181.405 1252.63 Q182.891 1249.74 182.891 1243.96 Q182.891 1238.17 181.405 1235.29 Q179.938 1232.4 176.986 1232.4 M176.986 1229.39 Q181.706 1229.39 184.189 1233.13 Q186.69 1236.85 186.69 1243.96 Q186.69 1251.05 184.189 1254.8 Q181.706 1258.52 176.986 1258.52 Q172.265 1258.52 169.763 1254.8 Q167.281 1251.05 167.281 1243.96 Q167.281 1236.85 169.763 1233.13 Q172.265 1229.39 176.986 1229.39 Z" fill="#000000" fill-rule="nonzero" fill-opacity="1" /><path clip-path="url(#clip620)" d="M118.674 1052.21 L126.313 1052.21 L126.313 1025.84 L118.003 1027.51 L118.003 1023.25 L126.267 1021.58 L130.943 1021.58 L130.943 1052.21 L138.581 1052.21 L138.581 1056.14 L118.674 1056.14 L118.674 1052.21 Z" fill="#000000" fill-rule="nonzero" fill-opacity="1" /><path clip-path="url(#clip620)" d="M158.026 1024.66 Q154.415 1024.66 152.586 1028.23 Q150.781 1031.77 150.781 1038.9 Q150.781 1046 152.586 1049.57 Q154.415 1053.11 158.026 1053.11 Q161.66 1053.11 163.466 1049.57 Q165.294 1046 165.294 1038.9 Q165.294 1031.77 163.466 1028.23 Q161.66 1024.66 158.026 1024.66 M158.026 1020.96 Q163.836 1020.96 166.892 1025.56 Q169.97 1030.15 169.97 1038.9 Q169.97 1047.62 166.892 1052.23 Q163.836 1056.81 158.026 1056.81 Q152.216 1056.81 149.137 1052.23 Q146.081 1047.62 146.081 1038.9 Q146.081 1030.15 149.137 1025.56 Q152.216 1020.96 158.026 1020.96 Z" fill="#000000" fill-rule="nonzero" fill-opacity="1" /><path clip-path="url(#clip620)" d="M170.516 1025.53 L176.722 1025.53 L176.722 1004.11 L169.97 1005.47 L169.97 1002.01 L176.685 1000.65 L180.484 1000.65 L180.484 1025.53 L186.69 1025.53 L186.69 1028.73 L170.516 1028.73 L170.516 1025.53 Z" fill="#000000" fill-rule="nonzero" fill-opacity="1" /><path clip-path="url(#clip620)" d="M117.565 822.965 L125.203 822.965 L125.203 796.599 L116.893 798.266 L116.893 794.007 L125.157 792.34 L129.833 792.34 L129.833 822.965 L137.472 822.965 L137.472 826.9 L117.565 826.9 L117.565 822.965 Z" fill="#000000" fill-rule="nonzero" fill-opacity="1" /><path clip-path="url(#clip620)" d="M156.916 795.419 Q153.305 795.419 151.476 798.983 Q149.671 802.525 149.671 809.655 Q149.671 816.761 151.476 820.326 Q153.305 823.868 156.916 823.868 Q160.55 823.868 162.356 820.326 Q164.185 816.761 164.185 809.655 Q164.185 802.525 162.356 798.983 Q160.55 795.419 156.916 795.419 M156.916 791.715 Q162.726 791.715 165.782 796.321 Q168.861 800.905 168.861 809.655 Q168.861 818.382 165.782 822.988 Q162.726 827.571 156.916 827.571 Q151.106 827.571 148.027 822.988 Q144.972 818.382 144.972 809.655 Q144.972 800.905 148.027 796.321 Q151.106 791.715 156.916 791.715 Z" fill="#000000" fill-rule="nonzero" fill-opacity="1" /><path clip-path="url(#clip620)" d="M173.431 796.292 L186.69 796.292 L186.69 799.49 L168.861 799.49 L168.861 796.292 Q171.023 794.054 174.747 790.293 Q178.49 786.512 179.449 785.421 Q181.274 783.371 181.988 781.961 Q182.722 780.531 182.722 779.158 Q182.722 776.92 181.142 775.51 Q179.581 774.099 177.061 774.099 Q175.274 774.099 173.28 774.72 Q171.306 775.34 169.049 776.601 L169.049 772.764 Q171.343 771.842 173.337 771.372 Q175.33 770.902 176.986 770.902 Q181.349 770.902 183.944 773.083 Q186.54 775.265 186.54 778.914 Q186.54 780.644 185.882 782.205 Q185.242 783.747 183.531 785.854 Q183.06 786.399 180.54 789.014 Q178.02 791.609 173.431 796.292 Z" fill="#000000" fill-rule="nonzero" fill-opacity="1" /><path clip-path="url(#clip620)" d="M116.906 593.723 L124.545 593.723 L124.545 567.357 L116.235 569.024 L116.235 564.764 L124.499 563.098 L129.175 563.098 L129.175 593.723 L136.814 593.723 L136.814 597.658 L116.906 597.658 L116.906 593.723 Z" fill="#000000" fill-rule="nonzero" fill-opacity="1" /><path clip-path="url(#clip620)" d="M156.258 566.176 Q152.647 566.176 150.818 569.741 Q149.013 573.283 149.013 580.412 Q149.013 587.519 150.818 591.084 Q152.647 594.625 156.258 594.625 Q159.892 594.625 161.698 591.084 Q163.526 587.519 163.526 580.412 Q163.526 573.283 161.698 569.741 Q159.892 566.176 156.258 566.176 M156.258 562.473 Q162.068 562.473 165.124 567.079 Q168.202 571.662 168.202 580.412 Q168.202 589.139 165.124 593.746 Q162.068 598.329 156.258 598.329 Q150.448 598.329 147.369 593.746 Q144.314 589.139 144.314 580.412 Q144.314 571.662 147.369 567.079 Q150.448 562.473 156.258 562.473 Z" fill="#000000" fill-rule="nonzero" fill-opacity="1" /><path clip-path="url(#clip620)" d="M180.898 555.107 Q183.625 555.69 185.148 557.533 Q186.69 559.376 186.69 562.085 Q186.69 566.241 183.832 568.517 Q180.973 570.793 175.707 570.793 Q173.939 570.793 172.058 570.435 Q170.196 570.097 168.202 569.401 L168.202 565.733 Q169.782 566.655 171.663 567.125 Q173.544 567.595 175.594 567.595 Q179.167 567.595 181.029 566.185 Q182.91 564.774 182.91 562.085 Q182.91 559.602 181.161 558.21 Q179.431 556.8 176.327 556.8 L173.055 556.8 L173.055 553.678 L176.478 553.678 Q179.28 553.678 180.766 552.568 Q182.252 551.439 182.252 549.333 Q182.252 547.17 180.709 546.023 Q179.186 544.857 176.327 544.857 Q174.766 544.857 172.979 545.195 Q171.193 545.534 169.049 546.249 L169.049 542.863 Q171.212 542.261 173.092 541.96 Q174.992 541.659 176.666 541.659 Q180.992 541.659 183.512 543.634 Q186.032 545.59 186.032 548.938 Q186.032 551.27 184.697 552.888 Q183.361 554.486 180.898 555.107 Z" fill="#000000" fill-rule="nonzero" fill-opacity="1" /><path clip-path="url(#clip620)" d="M114.931 364.48 L122.57 364.48 L122.57 338.115 L114.26 339.781 L114.26 335.522 L122.524 333.855 L127.2 333.855 L127.2 364.48 L134.839 364.48 L134.839 368.415 L114.931 368.415 L114.931 364.48 Z" fill="#000000" fill-rule="nonzero" fill-opacity="1" /><path clip-path="url(#clip620)" d="M154.283 336.934 Q150.672 336.934 148.843 340.499 Q147.038 344.04 147.038 351.17 Q147.038 358.277 148.843 361.841 Q150.672 365.383 154.283 365.383 Q157.917 365.383 159.723 361.841 Q161.552 358.277 161.552 351.17 Q161.552 344.04 159.723 340.499 Q157.917 336.934 154.283 336.934 M154.283 333.23 Q160.093 333.23 163.149 337.837 Q166.227 342.42 166.227 351.17 Q166.227 359.897 163.149 364.503 Q160.093 369.087 154.283 369.087 Q148.473 369.087 145.394 364.503 Q142.339 359.897 142.339 351.17 Q142.339 342.42 145.394 337.837 Q148.473 333.23 154.283 333.23 Z" fill="#000000" fill-rule="nonzero" fill-opacity="1" /><path clip-path="url(#clip620)" d="M178.904 316.235 L169.312 331.225 L178.904 331.225 L178.904 316.235 M177.907 312.925 L182.684 312.925 L182.684 331.225 L186.69 331.225 L186.69 334.385 L182.684 334.385 L182.684 341.005 L178.904 341.005 L178.904 334.385 L166.227 334.385 L166.227 330.717 L177.907 312.925 Z" fill="#000000" fill-rule="nonzero" fill-opacity="1" /><path clip-path="url(#clip620)" d="M32.4621 801.797 Q32.4621 806.507 36.1542 809.244 Q39.8145 811.982 46.212 811.982 Q52.6095 811.982 56.3017 809.276 Q59.9619 806.539 59.9619 801.797 Q59.9619 797.118 56.2698 794.381 Q52.5777 791.643 46.212 791.643 Q39.8781 791.643 36.186 794.381 Q32.4621 797.118 32.4621 801.797 M27.4968 801.797 Q27.4968 794.158 32.4621 789.797 Q37.4273 785.437 46.212 785.437 Q54.9649 785.437 59.9619 789.797 Q64.9272 794.158 64.9272 801.797 Q64.9272 809.467 59.9619 813.828 Q54.9649 818.156 46.212 818.156 Q37.4273 818.156 32.4621 813.828 Q27.4968 809.467 27.4968 801.797 Z" fill="#000000" fill-rule="nonzero" fill-opacity="1" /><path clip-path="url(#clip620)" d="M46.212 750.139 Q39.7508 750.139 36.0905 752.812 Q32.3984 755.454 32.3984 760.101 Q32.3984 764.748 36.0905 767.422 Q39.7508 770.064 46.212 770.064 Q52.6732 770.064 56.3653 767.422 Q60.0256 764.748 60.0256 760.101 Q60.0256 755.454 56.3653 752.812 Q52.6732 750.139 46.212 750.139 M33.7671 770.064 Q30.5842 768.218 29.0564 765.417 Q27.4968 762.584 27.4968 758.669 Q27.4968 752.176 32.6531 748.134 Q37.8093 744.06 46.212 744.06 Q54.6147 744.06 59.771 748.134 Q64.9272 752.176 64.9272 758.669 Q64.9272 762.584 63.3994 765.417 Q61.8398 768.218 58.657 770.064 L64.0042 770.064 L64.0042 775.952 L14.479 775.952 L14.479 770.064 L33.7671 770.064 Z" fill="#000000" fill-rule="nonzero" fill-opacity="1" /><path clip-path="url(#clip620)" d="M28.3562 734.352 L28.3562 728.495 L64.6407 728.495 Q71.452 728.495 74.5076 731.105 Q77.5631 733.684 77.5631 739.445 L77.5631 741.673 L72.5979 741.673 L72.5979 740.113 Q72.5979 736.771 71.0383 735.561 Q69.5105 734.352 64.6407 734.352 L28.3562 734.352 M14.479 734.352 L14.479 728.495 L21.895 728.495 L21.895 734.352 L14.479 734.352 Z" fill="#000000" fill-rule="nonzero" fill-opacity="1" /><path clip-path="url(#clip620)" d="M943.335 65.7705 L943.335 89.8329 L935.841 89.8329 L935.841 27.2059 L943.335 27.2059 L943.335 34.0924 Q945.685 30.0415 949.25 28.0971 Q952.855 26.1121 957.838 26.1121 Q966.102 26.1121 971.246 32.6746 Q976.431 39.2371 976.431 49.9314 Q976.431 60.6258 971.246 67.1883 Q966.102 73.7508 957.838 73.7508 Q952.855 73.7508 949.25 71.8063 Q945.685 69.8214 943.335 65.7705 M968.694 49.9314 Q968.694 41.7081 965.291 37.0496 Q961.929 32.3505 956.015 32.3505 Q950.101 32.3505 946.698 37.0496 Q943.335 41.7081 943.335 49.9314 Q943.335 58.1548 946.698 62.8538 Q950.101 67.5124 956.015 67.5124 Q961.929 67.5124 965.291 62.8538 Q968.694 58.1548 968.694 49.9314 Z" fill="#000000" fill-rule="nonzero" fill-opacity="1" /><path clip-path="url(#clip620)" d="M1015.08 34.1734 Q1013.82 33.4443 1012.32 33.1202 Q1010.86 32.7556 1009.08 32.7556 Q1002.76 32.7556 999.359 36.8875 Q995.997 40.9789 995.997 48.6757 L995.997 72.576 L988.503 72.576 L988.503 27.2059 L995.997 27.2059 L995.997 34.2544 Q998.347 30.1225 1002.11 28.1376 Q1005.88 26.1121 1011.27 26.1121 Q1012.04 26.1121 1012.97 26.2337 Q1013.9 26.3147 1015.04 26.5172 L1015.08 34.1734 Z" fill="#000000" fill-rule="nonzero" fill-opacity="1" /><path clip-path="url(#clip620)" d="M1038.65 32.4315 Q1032.66 32.4315 1029.17 37.1306 Q1025.69 41.7891 1025.69 49.9314 Q1025.69 58.0738 1029.13 62.7728 Q1032.62 67.4314 1038.65 67.4314 Q1044.61 67.4314 1048.09 62.7323 Q1051.58 58.0333 1051.58 49.9314 Q1051.58 41.8701 1048.09 37.1711 Q1044.61 32.4315 1038.65 32.4315 M1038.65 26.1121 Q1048.38 26.1121 1053.93 32.4315 Q1059.47 38.7509 1059.47 49.9314 Q1059.47 61.0714 1053.93 67.4314 Q1048.38 73.7508 1038.65 73.7508 Q1028.89 73.7508 1023.34 67.4314 Q1017.83 61.0714 1017.83 49.9314 Q1017.83 38.7509 1023.34 32.4315 Q1028.89 26.1121 1038.65 26.1121 Z" fill="#000000" fill-rule="nonzero" fill-opacity="1" /><path clip-path="url(#clip620)" d="M1104.4 49.9314 Q1104.4 41.7081 1101 37.0496 Q1097.63 32.3505 1091.72 32.3505 Q1085.81 32.3505 1082.4 37.0496 Q1079.04 41.7081 1079.04 49.9314 Q1079.04 58.1548 1082.4 62.8538 Q1085.81 67.5124 1091.72 67.5124 Q1097.63 67.5124 1101 62.8538 Q1104.4 58.1548 1104.4 49.9314 M1079.04 34.0924 Q1081.39 30.0415 1084.96 28.0971 Q1088.56 26.1121 1093.54 26.1121 Q1101.81 26.1121 1106.95 32.6746 Q1112.14 39.2371 1112.14 49.9314 Q1112.14 60.6258 1106.95 67.1883 Q1101.81 73.7508 1093.54 73.7508 Q1088.56 73.7508 1084.96 71.8063 Q1081.39 69.8214 1079.04 65.7705 L1079.04 72.576 L1071.55 72.576 L1071.55 9.54393 L1079.04 9.54393 L1079.04 34.0924 Z" fill="#000000" fill-rule="nonzero" fill-opacity="1" /><path clip-path="url(#clip620)" d="M1124.49 9.54393 L1131.95 9.54393 L1131.95 72.576 L1124.49 72.576 L1124.49 9.54393 Z" fill="#000000" fill-rule="nonzero" fill-opacity="1" /><path clip-path="url(#clip620)" d="M1186.35 48.0275 L1186.35 51.6733 L1152.08 51.6733 Q1152.56 59.3701 1156.7 63.421 Q1160.87 67.4314 1168.28 67.4314 Q1172.58 67.4314 1176.59 66.3781 Q1180.64 65.3249 1184.61 63.2184 L1184.61 70.267 Q1180.6 71.9684 1176.38 72.8596 Q1172.17 73.7508 1167.84 73.7508 Q1156.98 73.7508 1150.62 67.4314 Q1144.3 61.1119 1144.3 50.3365 Q1144.3 39.1965 1150.3 32.6746 Q1156.33 26.1121 1166.54 26.1121 Q1175.7 26.1121 1181 32.0264 Q1186.35 37.9003 1186.35 48.0275 M1178.9 45.84 Q1178.81 39.7232 1175.45 36.0774 Q1172.13 32.4315 1166.62 32.4315 Q1160.38 32.4315 1156.62 35.9558 Q1152.89 39.4801 1152.32 45.8805 L1178.9 45.84 M1160.22 6.22219 L1171.64 21.3726 L1165.45 21.3726 L1152.24 6.22219 L1160.22 6.22219 Z" fill="#000000" fill-rule="nonzero" fill-opacity="1" /><path clip-path="url(#clip620)" d="M1233.91 35.9153 Q1236.7 30.8922 1240.59 28.5022 Q1244.48 26.1121 1249.75 26.1121 Q1256.83 26.1121 1260.68 31.0947 Q1264.53 36.0368 1264.53 45.1919 L1264.53 72.576 L1257.04 72.576 L1257.04 45.4349 Q1257.04 38.913 1254.73 35.7533 Q1252.42 32.5936 1247.68 32.5936 Q1241.89 32.5936 1238.52 36.4419 Q1235.16 40.2903 1235.16 46.9338 L1235.16 72.576 L1227.67 72.576 L1227.67 45.4349 Q1227.67 38.8725 1225.36 35.7533 Q1223.05 32.5936 1218.23 32.5936 Q1212.52 32.5936 1209.16 36.4824 Q1205.79 40.3308 1205.79 46.9338 L1205.79 72.576 L1198.3 72.576 L1198.3 27.2059 L1205.79 27.2059 L1205.79 34.2544 Q1208.35 30.082 1211.91 28.0971 Q1215.48 26.1121 1220.38 26.1121 Q1225.32 26.1121 1228.76 28.6237 Q1232.25 31.1352 1233.91 35.9153 Z" fill="#000000" fill-rule="nonzero" fill-opacity="1" /><path clip-path="url(#clip620)" d="M1318.21 48.0275 L1318.21 51.6733 L1283.94 51.6733 Q1284.42 59.3701 1288.55 63.421 Q1292.73 67.4314 1300.14 67.4314 Q1304.43 67.4314 1308.44 66.3781 Q1312.49 65.3249 1316.46 63.2184 L1316.46 70.267 Q1312.45 71.9684 1308.24 72.8596 Q1304.03 73.7508 1299.69 73.7508 Q1288.84 73.7508 1282.48 67.4314 Q1276.16 61.1119 1276.16 50.3365 Q1276.16 39.1965 1282.15 32.6746 Q1288.19 26.1121 1298.4 26.1121 Q1307.55 26.1121 1312.86 32.0264 Q1318.21 37.9003 1318.21 48.0275 M1310.75 45.84 Q1310.67 39.7232 1307.31 36.0774 Q1303.99 32.4315 1298.48 32.4315 Q1292.24 32.4315 1288.47 35.9558 Q1284.75 39.4801 1284.18 45.8805 L1310.75 45.84 Z" fill="#000000" fill-rule="nonzero" fill-opacity="1" /><path clip-path="url(#clip620)" d="M1358.72 62.2867 L1367.26 62.2867 L1367.26 72.576 L1358.72 72.576 L1358.72 62.2867 M1358.72 29.6769 L1367.26 29.6769 L1367.26 39.9662 L1358.72 39.9662 L1358.72 29.6769 Z" fill="#000000" fill-rule="nonzero" fill-opacity="1" /><path clip-path="url(#clip620)" d="M1418.51 14.324 L1418.51 27.2059 L1433.86 27.2059 L1433.86 32.9987 L1418.51 32.9987 L1418.51 57.6282 Q1418.51 63.1779 1420.01 64.7578 Q1421.54 66.3376 1426.2 66.3376 L1433.86 66.3376 L1433.86 72.576 L1426.2 72.576 Q1417.57 72.576 1414.29 69.3758 Q1411.01 66.1351 1411.01 57.6282 L1411.01 32.9987 L1405.54 32.9987 L1405.54 27.2059 L1411.01 27.2059 L1411.01 14.324 L1418.51 14.324 Z" fill="#000000" fill-rule="nonzero" fill-opacity="1" /><path clip-path="url(#clip620)" d="M1450.87 65.7705 L1450.87 89.8329 L1443.38 89.8329 L1443.38 27.2059 L1450.87 27.2059 L1450.87 34.0924 Q1453.22 30.0415 1456.79 28.0971 Q1460.39 26.1121 1465.38 26.1121 Q1473.64 26.1121 1478.78 32.6746 Q1483.97 39.2371 1483.97 49.9314 Q1483.97 60.6258 1478.78 67.1883 Q1473.64 73.7508 1465.38 73.7508 Q1460.39 73.7508 1456.79 71.8063 Q1453.22 69.8214 1450.87 65.7705 M1476.23 49.9314 Q1476.23 41.7081 1472.83 37.0496 Q1469.47 32.3505 1463.55 32.3505 Q1457.64 32.3505 1454.24 37.0496 Q1450.87 41.7081 1450.87 49.9314 Q1450.87 58.1548 1454.24 62.8538 Q1457.64 67.5124 1463.55 67.5124 Q1469.47 67.5124 1472.83 62.8538 Q1476.23 58.1548 1476.23 49.9314 Z" fill="#000000" fill-rule="nonzero" fill-opacity="1" /><path clip-path="url(#clip620)" d="M1522.17 39.9662 Q1528.04 41.222 1531.32 45.1919 Q1534.65 49.1618 1534.65 54.9951 Q1534.65 63.9476 1528.49 68.8492 Q1522.33 73.7508 1510.99 73.7508 Q1507.18 73.7508 1503.13 72.9811 Q1499.12 72.2519 1494.83 70.7531 L1494.83 62.8538 Q1498.23 64.8388 1502.28 65.8515 Q1506.33 66.8642 1510.75 66.8642 Q1518.44 66.8642 1522.45 63.826 Q1526.5 60.7879 1526.5 54.9951 Q1526.5 49.6479 1522.74 46.6502 Q1519.01 43.612 1512.33 43.612 L1505.28 43.612 L1505.28 36.8875 L1512.65 36.8875 Q1518.69 36.8875 1521.89 34.4975 Q1525.09 32.067 1525.09 27.5299 Q1525.09 22.8714 1521.76 20.4004 Q1518.48 17.8888 1512.33 17.8888 Q1508.96 17.8888 1505.11 18.618 Q1501.27 19.3471 1496.65 20.8865 L1496.65 13.5948 Q1501.31 12.2985 1505.36 11.6504 Q1509.45 11.0023 1513.05 11.0023 Q1522.37 11.0023 1527.8 15.2557 Q1533.23 19.4686 1533.23 26.6793 Q1533.23 31.7024 1530.35 35.1862 Q1527.48 38.6294 1522.17 39.9662 Z" fill="#000000" fill-rule="nonzero" fill-opacity="1" /><path clip-path="url(#clip620)" d="M1567.66 17.4837 Q1561.34 17.4837 1558.14 23.7221 Q1554.98 29.92 1554.98 42.3968 Q1554.98 54.833 1558.14 61.0714 Q1561.34 67.2693 1567.66 67.2693 Q1574.02 67.2693 1577.18 61.0714 Q1580.38 54.833 1580.38 42.3968 Q1580.38 29.92 1577.18 23.7221 Q1574.02 17.4837 1567.66 17.4837 M1567.66 11.0023 Q1577.83 11.0023 1583.18 19.0636 Q1588.56 27.0843 1588.56 42.3968 Q1588.56 57.6687 1583.18 65.73 Q1577.83 73.7508 1567.66 73.7508 Q1557.49 73.7508 1552.11 65.73 Q1546.76 57.6687 1546.76 42.3968 Q1546.76 27.0843 1552.11 19.0636 Q1557.49 11.0023 1567.66 11.0023 Z" fill="#000000" fill-rule="nonzero" fill-opacity="1" /><path clip-path="url(#clip620)" d="M1603.03 12.096 L1635.15 12.096 L1635.15 18.9825 L1610.52 18.9825 L1610.52 33.8088 Q1612.3 33.2012 1614.08 32.9176 Q1615.87 32.5936 1617.65 32.5936 Q1627.78 32.5936 1633.69 38.1433 Q1639.6 43.6931 1639.6 53.1722 Q1639.6 62.9348 1633.53 68.3631 Q1627.45 73.7508 1616.39 73.7508 Q1612.59 73.7508 1608.62 73.1026 Q1604.69 72.4545 1600.47 71.1582 L1600.47 62.9348 Q1604.12 64.9198 1608.01 65.892 Q1611.9 66.8642 1616.23 66.8642 Q1623.24 66.8642 1627.33 63.1779 Q1631.42 59.4916 1631.42 53.1722 Q1631.42 46.8528 1627.33 43.1664 Q1623.24 39.4801 1616.23 39.4801 Q1612.95 39.4801 1609.67 40.2093 Q1606.43 40.9384 1603.03 42.4778 L1603.03 12.096 Z" fill="#000000" fill-rule="nonzero" fill-opacity="1" /><polyline clip-path="url(#clip622)" style="stroke:#009af9; stroke-linecap:round; stroke-linejoin:round; stroke-width:4; stroke-opacity:1; fill:none" points="282.975,160.256 416.942,298.272 550.908,388.114 684.874,473.803 818.841,611.785 952.807,697.958 1086.77,782.127 1220.74,864.298 1354.71,952.771 1488.67,1054.72 1622.64,1131.7 1756.61,1204.62 1890.57,1262.61 2024.54,1297.27 2158.5,1308.3 "/>
<polyline clip-path="url(#clip622)" style="stroke:#e26f46; stroke-linecap:round; stroke-linejoin:round; stroke-width:4; stroke-opacity:1; fill:none" points="282.975,160.256 416.942,298.272 550.908,388.114 684.874,473.803 818.841,611.785 952.807,697.958 1086.77,782.127 1220.74,864.298 1354.71,952.771 1488.67,1054.72 1622.64,1131.7 1756.61,1204.62 1890.57,1262.61 2024.54,1297.27 2158.5,1308.3 "/>
<polyline clip-path="url(#clip622)" style="stroke:#3da44d; stroke-linecap:round; stroke-linejoin:round; stroke-width:4; stroke-opacity:1; fill:none" points="282.975,160.256 416.942,298.272 550.908,388.114 684.874,468.845 818.841,549.57 952.807,630.282 1086.77,710.966 1220.74,791.587 1354.71,872.066 1488.67,952.235 1622.64,1031.74 1756.61,1109.9 1890.57,1185.7 2024.54,1258.32 2158.5,1328.18 2292.47,1386.4 "/>
<path clip-path="url(#clip620)" d="M1505.23 374.156 L2281.75 374.156 L2281.75 166.796 L1505.23 166.796  Z" fill="#ffffff" fill-rule="evenodd" fill-opacity="1"/>
<polyline clip-path="url(#clip620)" style="stroke:#000000; stroke-linecap:round; stroke-linejoin:round; stroke-width:4; stroke-opacity:1; fill:none" points="1505.23,374.156 2281.75,374.156 2281.75,166.796 1505.23,166.796 1505.23,374.156 "/>
<polyline clip-path="url(#clip620)" style="stroke:#009af9; stroke-linecap:round; stroke-linejoin:round; stroke-width:4; stroke-opacity:1; fill:none" points="1528.9,218.636 1670.9,218.636 "/>
<path clip-path="url(#clip620)" d="M1694.57 201.356 L1699.25 201.356 L1699.25 231.981 L1716.08 231.981 L1716.08 235.916 L1694.57 235.916 L1694.57 201.356 Z" fill="#000000" fill-rule="nonzero" fill-opacity="1" /><path clip-path="url(#clip620)" d="M1720.98 201.356 L1727.95 201.356 L1736.77 224.874 L1745.64 201.356 L1752.6 201.356 L1752.6 235.916 L1748.04 235.916 L1748.04 205.569 L1739.13 229.272 L1734.43 229.272 L1725.52 205.569 L1725.52 235.916 L1720.98 235.916 L1720.98 201.356 Z" fill="#000000" fill-rule="nonzero" fill-opacity="1" /><path clip-path="url(#clip620)" d="M1781.4 243.786 L1781.4 247.096 L1756.77 247.096 L1756.77 243.786 L1781.4 243.786 Z" fill="#000000" fill-rule="nonzero" fill-opacity="1" /><path clip-path="url(#clip620)" d="M1797.14 205.962 L1790.8 223.161 L1803.51 223.161 L1797.14 205.962 M1794.5 201.356 L1799.8 201.356 L1812.97 235.916 L1808.11 235.916 L1804.96 227.05 L1789.39 227.05 L1786.24 235.916 L1781.31 235.916 L1794.5 201.356 Z" fill="#000000" fill-rule="nonzero" fill-opacity="1" /><path clip-path="url(#clip620)" d="M1839.38 220.268 L1839.38 235.916 L1835.13 235.916 L1835.13 220.407 Q1835.13 216.726 1833.69 214.897 Q1832.26 213.069 1829.38 213.069 Q1825.94 213.069 1823.95 215.268 Q1821.95 217.467 1821.95 221.263 L1821.95 235.916 L1817.67 235.916 L1817.67 209.99 L1821.95 209.99 L1821.95 214.018 Q1823.48 211.68 1825.54 210.522 Q1827.63 209.365 1830.33 209.365 Q1834.8 209.365 1837.09 212.143 Q1839.38 214.897 1839.38 220.268 Z" fill="#000000" fill-rule="nonzero" fill-opacity="1" /><path clip-path="url(#clip620)" d="M1864.94 213.925 L1864.94 199.897 L1869.2 199.897 L1869.2 235.916 L1864.94 235.916 L1864.94 232.027 Q1863.6 234.342 1861.54 235.476 Q1859.5 236.587 1856.63 236.587 Q1851.93 236.587 1848.97 232.837 Q1846.03 229.087 1846.03 222.976 Q1846.03 216.865 1848.97 213.115 Q1851.93 209.365 1856.63 209.365 Q1859.5 209.365 1861.54 210.499 Q1863.6 211.61 1864.94 213.925 M1850.43 222.976 Q1850.43 227.675 1852.35 230.36 Q1854.29 233.022 1857.67 233.022 Q1861.05 233.022 1863 230.36 Q1864.94 227.675 1864.94 222.976 Q1864.94 218.277 1863 215.615 Q1861.05 212.93 1857.67 212.93 Q1854.29 212.93 1852.35 215.615 Q1850.43 218.277 1850.43 222.976 Z" fill="#000000" fill-rule="nonzero" fill-opacity="1" /><path clip-path="url(#clip620)" d="M1893 213.971 Q1892.28 213.555 1891.42 213.37 Q1890.59 213.161 1889.57 213.161 Q1885.96 213.161 1884.01 215.522 Q1882.09 217.86 1882.09 222.258 L1882.09 235.916 L1877.81 235.916 L1877.81 209.99 L1882.09 209.99 L1882.09 214.018 Q1883.44 211.657 1885.59 210.522 Q1887.74 209.365 1890.82 209.365 Q1891.26 209.365 1891.79 209.434 Q1892.32 209.481 1892.97 209.596 L1893 213.971 Z" fill="#000000" fill-rule="nonzero" fill-opacity="1" /><path clip-path="url(#clip620)" d="M1918.6 221.888 L1918.6 223.971 L1899.01 223.971 Q1899.29 228.369 1901.65 230.684 Q1904.04 232.976 1908.27 232.976 Q1910.73 232.976 1913.02 232.374 Q1915.33 231.772 1917.6 230.569 L1917.6 234.596 Q1915.31 235.568 1912.9 236.078 Q1910.5 236.587 1908.02 236.587 Q1901.82 236.587 1898.18 232.976 Q1894.57 229.365 1894.57 223.207 Q1894.57 216.842 1898 213.115 Q1901.44 209.365 1907.28 209.365 Q1912.51 209.365 1915.54 212.745 Q1918.6 216.101 1918.6 221.888 M1914.34 220.638 Q1914.29 217.143 1912.37 215.059 Q1910.47 212.976 1907.32 212.976 Q1903.76 212.976 1901.61 214.99 Q1899.48 217.004 1899.15 220.661 L1914.34 220.638 Z" fill="#000000" fill-rule="nonzero" fill-opacity="1" /><path clip-path="url(#clip620)" d="M1925.59 209.99 L1929.85 209.99 L1929.85 235.916 L1925.59 235.916 L1925.59 209.99 M1925.59 199.897 L1929.85 199.897 L1929.85 205.291 L1925.59 205.291 L1925.59 199.897 Z" fill="#000000" fill-rule="nonzero" fill-opacity="1" /><path clip-path="url(#clip620)" d="M1958.46 243.786 L1958.46 247.096 L1933.83 247.096 L1933.83 243.786 L1958.46 243.786 Z" fill="#000000" fill-rule="nonzero" fill-opacity="1" /><path clip-path="url(#clip620)" d="M1965.01 222.976 Q1965.01 227.675 1966.93 230.36 Q1968.87 233.022 1972.25 233.022 Q1975.63 233.022 1977.58 230.36 Q1979.52 227.675 1979.52 222.976 Q1979.52 218.277 1977.58 215.615 Q1975.63 212.93 1972.25 212.93 Q1968.87 212.93 1966.93 215.615 Q1965.01 218.277 1965.01 222.976 M1979.52 232.027 Q1978.18 234.342 1976.12 235.476 Q1974.08 236.587 1971.21 236.587 Q1966.51 236.587 1963.55 232.837 Q1960.61 229.087 1960.61 222.976 Q1960.61 216.865 1963.55 213.115 Q1966.51 209.365 1971.21 209.365 Q1974.08 209.365 1976.12 210.499 Q1978.18 211.61 1979.52 213.925 L1979.52 209.99 L1983.78 209.99 L1983.78 245.777 L1979.52 245.777 L1979.52 232.027 Z" fill="#000000" fill-rule="nonzero" fill-opacity="1" /><path clip-path="url(#clip620)" d="M1992.12 225.684 L1992.12 209.99 L1996.37 209.99 L1996.37 225.522 Q1996.37 229.203 1997.81 231.055 Q1999.25 232.883 2002.12 232.883 Q2005.56 232.883 2007.56 230.684 Q2009.57 228.485 2009.57 224.689 L2009.57 209.99 L2013.83 209.99 L2013.83 235.916 L2009.57 235.916 L2009.57 231.934 Q2008.02 234.295 2005.96 235.453 Q2003.92 236.587 2001.21 236.587 Q1996.75 236.587 1994.43 233.809 Q1992.12 231.031 1992.12 225.684 M2002.83 209.365 L2002.83 209.365 Z" fill="#000000" fill-rule="nonzero" fill-opacity="1" /><path clip-path="url(#clip620)" d="M2034.38 222.883 Q2029.22 222.883 2027.23 224.064 Q2025.24 225.244 2025.24 228.092 Q2025.24 230.36 2026.72 231.703 Q2028.23 233.022 2030.8 233.022 Q2034.34 233.022 2036.47 230.522 Q2038.62 227.999 2038.62 223.832 L2038.62 222.883 L2034.38 222.883 M2042.88 221.124 L2042.88 235.916 L2038.62 235.916 L2038.62 231.981 Q2037.16 234.342 2034.99 235.476 Q2032.81 236.587 2029.66 236.587 Q2025.68 236.587 2023.32 234.365 Q2020.98 232.119 2020.98 228.369 Q2020.98 223.994 2023.9 221.772 Q2026.84 219.55 2032.65 219.55 L2038.62 219.55 L2038.62 219.133 Q2038.62 216.194 2036.68 214.596 Q2034.75 212.976 2031.26 212.976 Q2029.04 212.976 2026.93 213.508 Q2024.82 214.041 2022.88 215.106 L2022.88 211.17 Q2025.22 210.268 2027.42 209.828 Q2029.62 209.365 2031.7 209.365 Q2037.32 209.365 2040.1 212.282 Q2042.88 215.198 2042.88 221.124 Z" fill="#000000" fill-rule="nonzero" fill-opacity="1" /><path clip-path="url(#clip620)" d="M2068.18 210.754 L2068.18 214.782 Q2066.37 213.856 2064.43 213.393 Q2062.49 212.93 2060.4 212.93 Q2057.23 212.93 2055.63 213.902 Q2054.06 214.874 2054.06 216.819 Q2054.06 218.3 2055.19 219.157 Q2056.33 219.99 2059.75 220.754 L2061.21 221.078 Q2065.75 222.05 2067.65 223.832 Q2069.57 225.592 2069.57 228.763 Q2069.57 232.374 2066.7 234.481 Q2063.85 236.587 2058.85 236.587 Q2056.77 236.587 2054.5 236.17 Q2052.25 235.777 2049.75 234.967 L2049.75 230.569 Q2052.12 231.795 2054.41 232.42 Q2056.7 233.022 2058.94 233.022 Q2061.95 233.022 2063.57 232.004 Q2065.19 230.962 2065.19 229.087 Q2065.19 227.351 2064.01 226.425 Q2062.86 225.499 2058.9 224.643 L2057.42 224.295 Q2053.46 223.462 2051.7 221.749 Q2049.94 220.013 2049.94 217.004 Q2049.94 213.346 2052.53 211.356 Q2055.12 209.365 2059.89 209.365 Q2062.25 209.365 2064.34 209.712 Q2066.42 210.059 2068.18 210.754 Z" fill="#000000" fill-rule="nonzero" fill-opacity="1" /><path clip-path="url(#clip620)" d="M2076.35 209.99 L2080.61 209.99 L2080.61 235.916 L2076.35 235.916 L2076.35 209.99 M2076.35 199.897 L2080.61 199.897 L2080.61 205.291 L2076.35 205.291 L2076.35 199.897 Z" fill="#000000" fill-rule="nonzero" fill-opacity="1" /><path clip-path="url(#clip620)" d="M2109.22 243.786 L2109.22 247.096 L2084.59 247.096 L2084.59 243.786 L2109.22 243.786 Z" fill="#000000" fill-rule="nonzero" fill-opacity="1" /><path clip-path="url(#clip620)" d="M2134.78 220.268 L2134.78 235.916 L2130.52 235.916 L2130.52 220.407 Q2130.52 216.726 2129.08 214.897 Q2127.65 213.069 2124.78 213.069 Q2121.33 213.069 2119.34 215.268 Q2117.35 217.467 2117.35 221.263 L2117.35 235.916 L2113.06 235.916 L2113.06 209.99 L2117.35 209.99 L2117.35 214.018 Q2118.87 211.68 2120.93 210.522 Q2123.02 209.365 2125.73 209.365 Q2130.19 209.365 2132.49 212.143 Q2134.78 214.897 2134.78 220.268 Z" fill="#000000" fill-rule="nonzero" fill-opacity="1" /><path clip-path="url(#clip620)" d="M2142.83 225.684 L2142.83 209.99 L2147.09 209.99 L2147.09 225.522 Q2147.09 229.203 2148.53 231.055 Q2149.96 232.883 2152.83 232.883 Q2156.28 232.883 2158.27 230.684 Q2160.29 228.485 2160.29 224.689 L2160.29 209.99 L2164.55 209.99 L2164.55 235.916 L2160.29 235.916 L2160.29 231.934 Q2158.74 234.295 2156.67 235.453 Q2154.64 236.587 2151.93 236.587 Q2147.46 236.587 2145.15 233.809 Q2142.83 231.031 2142.83 225.684 M2153.55 209.365 L2153.55 209.365 Z" fill="#000000" fill-rule="nonzero" fill-opacity="1" /><path clip-path="url(#clip620)" d="M2173.32 199.897 L2177.58 199.897 L2177.58 235.916 L2173.32 235.916 L2173.32 199.897 Z" fill="#000000" fill-rule="nonzero" fill-opacity="1" /><path clip-path="url(#clip620)" d="M2206.19 243.786 L2206.19 247.096 L2181.56 247.096 L2181.56 243.786 L2206.19 243.786 Z" fill="#000000" fill-rule="nonzero" fill-opacity="1" /><path clip-path="url(#clip620)" d="M2210.19 199.897 L2214.45 199.897 L2214.45 235.916 L2210.19 235.916 L2210.19 199.897 Z" fill="#000000" fill-rule="nonzero" fill-opacity="1" /><path clip-path="url(#clip620)" d="M2223.36 209.99 L2227.62 209.99 L2227.62 235.916 L2223.36 235.916 L2223.36 209.99 M2223.36 199.897 L2227.62 199.897 L2227.62 205.291 L2223.36 205.291 L2223.36 199.897 Z" fill="#000000" fill-rule="nonzero" fill-opacity="1" /><path clip-path="url(#clip620)" d="M2258.09 220.268 L2258.09 235.916 L2253.83 235.916 L2253.83 220.407 Q2253.83 216.726 2252.39 214.897 Q2250.96 213.069 2248.09 213.069 Q2244.64 213.069 2242.65 215.268 Q2240.66 217.467 2240.66 221.263 L2240.66 235.916 L2236.37 235.916 L2236.37 209.99 L2240.66 209.99 L2240.66 214.018 Q2242.18 211.68 2244.24 210.522 Q2246.33 209.365 2249.04 209.365 Q2253.5 209.365 2255.79 212.143 Q2258.09 214.897 2258.09 220.268 Z" fill="#000000" fill-rule="nonzero" fill-opacity="1" /><polyline clip-path="url(#clip620)" style="stroke:#e26f46; stroke-linecap:round; stroke-linejoin:round; stroke-width:4; stroke-opacity:1; fill:none" points="1528.9,270.476 1670.9,270.476 "/>
<path clip-path="url(#clip620)" d="M1694.57 253.196 L1699.25 253.196 L1699.25 283.821 L1716.08 283.821 L1716.08 287.756 L1694.57 287.756 L1694.57 253.196 Z" fill="#000000" fill-rule="nonzero" fill-opacity="1" /><path clip-path="url(#clip620)" d="M1720.98 253.196 L1727.95 253.196 L1736.77 276.714 L1745.64 253.196 L1752.6 253.196 L1752.6 287.756 L1748.04 287.756 L1748.04 257.409 L1739.13 281.112 L1734.43 281.112 L1725.52 257.409 L1725.52 287.756 L1720.98 287.756 L1720.98 253.196 Z" fill="#000000" fill-rule="nonzero" fill-opacity="1" /><path clip-path="url(#clip620)" d="M1781.4 295.626 L1781.4 298.936 L1756.77 298.936 L1756.77 295.626 L1781.4 295.626 Z" fill="#000000" fill-rule="nonzero" fill-opacity="1" /><path clip-path="url(#clip620)" d="M1783.6 253.196 L1810.75 253.196 L1810.75 256.761 L1788.9 283.821 L1811.28 283.821 L1811.28 287.756 L1783.07 287.756 L1783.07 284.191 L1804.92 257.131 L1783.6 257.131 L1783.6 253.196 Z" fill="#000000" fill-rule="nonzero" fill-opacity="1" /><path clip-path="url(#clip620)" d="M1839.43 272.108 L1839.43 287.756 L1835.17 287.756 L1835.17 272.247 Q1835.17 268.566 1833.74 266.737 Q1832.3 264.909 1829.43 264.909 Q1825.98 264.909 1823.99 267.108 Q1822 269.307 1822 273.103 L1822 287.756 L1817.72 287.756 L1817.72 251.737 L1822 251.737 L1822 265.858 Q1823.53 263.52 1825.59 262.362 Q1827.67 261.205 1830.38 261.205 Q1834.85 261.205 1837.14 263.983 Q1839.43 266.737 1839.43 272.108 Z" fill="#000000" fill-rule="nonzero" fill-opacity="1" /><path clip-path="url(#clip620)" d="M1847.49 277.524 L1847.49 261.83 L1851.75 261.83 L1851.75 277.362 Q1851.75 281.043 1853.18 282.895 Q1854.62 284.723 1857.49 284.723 Q1860.94 284.723 1862.93 282.524 Q1864.94 280.325 1864.94 276.529 L1864.94 261.83 L1869.2 261.83 L1869.2 287.756 L1864.94 287.756 L1864.94 283.774 Q1863.39 286.135 1861.33 287.293 Q1859.29 288.427 1856.58 288.427 Q1852.12 288.427 1849.8 285.649 Q1847.49 282.871 1847.49 277.524 M1858.2 261.205 L1858.2 261.205 Z" fill="#000000" fill-rule="nonzero" fill-opacity="1" /><path clip-path="url(#clip620)" d="M1897.67 295.626 L1897.67 298.936 L1873.04 298.936 L1873.04 295.626 L1897.67 295.626 Z" fill="#000000" fill-rule="nonzero" fill-opacity="1" /><path clip-path="url(#clip620)" d="M1904.22 274.816 Q1904.22 279.515 1906.14 282.2 Q1908.09 284.862 1911.47 284.862 Q1914.85 284.862 1916.79 282.2 Q1918.74 279.515 1918.74 274.816 Q1918.74 270.117 1916.79 267.455 Q1914.85 264.77 1911.47 264.77 Q1908.09 264.77 1906.14 267.455 Q1904.22 270.117 1904.22 274.816 M1918.74 283.867 Q1917.39 286.182 1915.33 287.316 Q1913.3 288.427 1910.43 288.427 Q1905.73 288.427 1902.76 284.677 Q1899.82 280.927 1899.82 274.816 Q1899.82 268.705 1902.76 264.955 Q1905.73 261.205 1910.43 261.205 Q1913.3 261.205 1915.33 262.339 Q1917.39 263.45 1918.74 265.765 L1918.74 261.83 L1923 261.83 L1923 297.617 L1918.74 297.617 L1918.74 283.867 Z" fill="#000000" fill-rule="nonzero" fill-opacity="1" /><path clip-path="url(#clip620)" d="M1931.33 277.524 L1931.33 261.83 L1935.59 261.83 L1935.59 277.362 Q1935.59 281.043 1937.02 282.895 Q1938.46 284.723 1941.33 284.723 Q1944.78 284.723 1946.77 282.524 Q1948.78 280.325 1948.78 276.529 L1948.78 261.83 L1953.04 261.83 L1953.04 287.756 L1948.78 287.756 L1948.78 283.774 Q1947.23 286.135 1945.17 287.293 Q1943.13 288.427 1940.43 288.427 Q1935.96 288.427 1933.64 285.649 Q1931.33 282.871 1931.33 277.524 M1942.05 261.205 L1942.05 261.205 Z" fill="#000000" fill-rule="nonzero" fill-opacity="1" /><path clip-path="url(#clip620)" d="M1973.6 274.723 Q1968.44 274.723 1966.44 275.904 Q1964.45 277.084 1964.45 279.932 Q1964.45 282.2 1965.94 283.543 Q1967.44 284.862 1970.01 284.862 Q1973.55 284.862 1975.68 282.362 Q1977.83 279.839 1977.83 275.672 L1977.83 274.723 L1973.6 274.723 M1982.09 272.964 L1982.09 287.756 L1977.83 287.756 L1977.83 283.821 Q1976.37 286.182 1974.2 287.316 Q1972.02 288.427 1968.87 288.427 Q1964.89 288.427 1962.53 286.205 Q1960.19 283.959 1960.19 280.209 Q1960.19 275.834 1963.11 273.612 Q1966.05 271.39 1971.86 271.39 L1977.83 271.39 L1977.83 270.973 Q1977.83 268.034 1975.89 266.436 Q1973.97 264.816 1970.47 264.816 Q1968.25 264.816 1966.14 265.348 Q1964.04 265.881 1962.09 266.946 L1962.09 263.01 Q1964.43 262.108 1966.63 261.668 Q1968.83 261.205 1970.91 261.205 Q1976.54 261.205 1979.31 264.122 Q1982.09 267.038 1982.09 272.964 Z" fill="#000000" fill-rule="nonzero" fill-opacity="1" /><path clip-path="url(#clip620)" d="M2007.39 262.594 L2007.39 266.622 Q2005.59 265.696 2003.64 265.233 Q2001.7 264.77 1999.62 264.77 Q1996.44 264.77 1994.85 265.742 Q1993.27 266.714 1993.27 268.659 Q1993.27 270.14 1994.41 270.997 Q1995.54 271.83 1998.97 272.594 L2000.43 272.918 Q2004.96 273.89 2006.86 275.672 Q2008.78 277.432 2008.78 280.603 Q2008.78 284.214 2005.91 286.321 Q2003.06 288.427 1998.06 288.427 Q1995.98 288.427 1993.71 288.01 Q1991.47 287.617 1988.97 286.807 L1988.97 282.409 Q1991.33 283.635 1993.62 284.26 Q1995.91 284.862 1998.16 284.862 Q2001.17 284.862 2002.79 283.844 Q2004.41 282.802 2004.41 280.927 Q2004.41 279.191 2003.23 278.265 Q2002.07 277.339 1998.11 276.483 L1996.63 276.135 Q1992.67 275.302 1990.91 273.589 Q1989.15 271.853 1989.15 268.844 Q1989.15 265.186 1991.75 263.196 Q1994.34 261.205 1999.11 261.205 Q2001.47 261.205 2003.55 261.552 Q2005.63 261.899 2007.39 262.594 Z" fill="#000000" fill-rule="nonzero" fill-opacity="1" /><path clip-path="url(#clip620)" d="M2015.56 261.83 L2019.82 261.83 L2019.82 287.756 L2015.56 287.756 L2015.56 261.83 M2015.56 251.737 L2019.82 251.737 L2019.82 257.131 L2015.56 257.131 L2015.56 251.737 Z" fill="#000000" fill-rule="nonzero" fill-opacity="1" /><path clip-path="url(#clip620)" d="M2048.43 295.626 L2048.43 298.936 L2023.81 298.936 L2023.81 295.626 L2048.43 295.626 Z" fill="#000000" fill-rule="nonzero" fill-opacity="1" /><path clip-path="url(#clip620)" d="M2073.99 272.108 L2073.99 287.756 L2069.73 287.756 L2069.73 272.247 Q2069.73 268.566 2068.3 266.737 Q2066.86 264.909 2063.99 264.909 Q2060.54 264.909 2058.55 267.108 Q2056.56 269.307 2056.56 273.103 L2056.56 287.756 L2052.28 287.756 L2052.28 261.83 L2056.56 261.83 L2056.56 265.858 Q2058.09 263.52 2060.15 262.362 Q2062.23 261.205 2064.94 261.205 Q2069.41 261.205 2071.7 263.983 Q2073.99 266.737 2073.99 272.108 Z" fill="#000000" fill-rule="nonzero" fill-opacity="1" /><path clip-path="url(#clip620)" d="M2082.05 277.524 L2082.05 261.83 L2086.3 261.83 L2086.3 277.362 Q2086.3 281.043 2087.74 282.895 Q2089.18 284.723 2092.05 284.723 Q2095.49 284.723 2097.49 282.524 Q2099.5 280.325 2099.5 276.529 L2099.5 261.83 L2103.76 261.83 L2103.76 287.756 L2099.5 287.756 L2099.5 283.774 Q2097.95 286.135 2095.89 287.293 Q2093.85 288.427 2091.14 288.427 Q2086.68 288.427 2084.36 285.649 Q2082.05 282.871 2082.05 277.524 M2092.76 261.205 L2092.76 261.205 Z" fill="#000000" fill-rule="nonzero" fill-opacity="1" /><path clip-path="url(#clip620)" d="M2112.53 251.737 L2116.79 251.737 L2116.79 287.756 L2112.53 287.756 L2112.53 251.737 Z" fill="#000000" fill-rule="nonzero" fill-opacity="1" /><path clip-path="url(#clip620)" d="M2145.4 295.626 L2145.4 298.936 L2120.77 298.936 L2120.77 295.626 L2145.4 295.626 Z" fill="#000000" fill-rule="nonzero" fill-opacity="1" /><path clip-path="url(#clip620)" d="M2149.41 251.737 L2153.67 251.737 L2153.67 287.756 L2149.41 287.756 L2149.41 251.737 Z" fill="#000000" fill-rule="nonzero" fill-opacity="1" /><path clip-path="url(#clip620)" d="M2162.58 261.83 L2166.84 261.83 L2166.84 287.756 L2162.58 287.756 L2162.58 261.83 M2162.58 251.737 L2166.84 251.737 L2166.84 257.131 L2162.58 257.131 L2162.58 251.737 Z" fill="#000000" fill-rule="nonzero" fill-opacity="1" /><path clip-path="url(#clip620)" d="M2197.3 272.108 L2197.3 287.756 L2193.04 287.756 L2193.04 272.247 Q2193.04 268.566 2191.61 266.737 Q2190.17 264.909 2187.3 264.909 Q2183.85 264.909 2181.86 267.108 Q2179.87 269.307 2179.87 273.103 L2179.87 287.756 L2175.59 287.756 L2175.59 261.83 L2179.87 261.83 L2179.87 265.858 Q2181.4 263.52 2183.46 262.362 Q2185.54 261.205 2188.25 261.205 Q2192.72 261.205 2195.01 263.983 Q2197.3 266.737 2197.3 272.108 Z" fill="#000000" fill-rule="nonzero" fill-opacity="1" /><polyline clip-path="url(#clip620)" style="stroke:#3da44d; stroke-linecap:round; stroke-linejoin:round; stroke-width:4; stroke-opacity:1; fill:none" points="1528.9,322.316 1670.9,322.316 "/>
<path clip-path="url(#clip620)" d="M1694.57 305.036 L1699.25 305.036 L1699.25 335.661 L1716.08 335.661 L1716.08 339.596 L1694.57 339.596 L1694.57 305.036 Z" fill="#000000" fill-rule="nonzero" fill-opacity="1" /><path clip-path="url(#clip620)" d="M1720.98 305.036 L1727.95 305.036 L1736.77 328.554 L1745.64 305.036 L1752.6 305.036 L1752.6 339.596 L1748.04 339.596 L1748.04 309.249 L1739.13 332.952 L1734.43 332.952 L1725.52 309.249 L1725.52 339.596 L1720.98 339.596 L1720.98 305.036 Z" fill="#000000" fill-rule="nonzero" fill-opacity="1" /><path clip-path="url(#clip620)" d="M1781.4 347.466 L1781.4 350.776 L1756.77 350.776 L1756.77 347.466 L1781.4 347.466 Z" fill="#000000" fill-rule="nonzero" fill-opacity="1" /><path clip-path="url(#clip620)" d="M1806.31 306.17 L1806.31 310.73 Q1803.64 309.457 1801.28 308.832 Q1798.92 308.207 1796.72 308.207 Q1792.9 308.207 1790.82 309.688 Q1788.76 311.17 1788.76 313.901 Q1788.76 316.193 1790.13 317.374 Q1791.51 318.531 1795.36 319.249 L1798.18 319.827 Q1803.41 320.823 1805.89 323.346 Q1808.39 325.846 1808.39 330.059 Q1808.39 335.082 1805.01 337.674 Q1801.65 340.267 1795.15 340.267 Q1792.7 340.267 1789.92 339.711 Q1787.16 339.156 1784.2 338.068 L1784.2 333.253 Q1787.05 334.85 1789.78 335.661 Q1792.51 336.471 1795.15 336.471 Q1799.15 336.471 1801.33 334.897 Q1803.51 333.323 1803.51 330.406 Q1803.51 327.86 1801.93 326.424 Q1800.38 324.989 1796.82 324.272 L1793.97 323.716 Q1788.74 322.675 1786.4 320.452 Q1784.06 318.23 1784.06 314.272 Q1784.06 309.688 1787.28 307.05 Q1790.52 304.411 1796.19 304.411 Q1798.62 304.411 1801.14 304.851 Q1803.67 305.29 1806.31 306.17 Z" fill="#000000" fill-rule="nonzero" fill-opacity="1" /><path clip-path="url(#clip620)" d="M1820.36 308.878 L1820.36 321.864 L1826.24 321.864 Q1829.5 321.864 1831.28 320.175 Q1833.07 318.485 1833.07 315.36 Q1833.07 312.258 1831.28 310.568 Q1829.5 308.878 1826.24 308.878 L1820.36 308.878 M1815.68 305.036 L1826.24 305.036 Q1832.05 305.036 1835.01 307.675 Q1838 310.29 1838 315.36 Q1838 320.475 1835.01 323.091 Q1832.05 325.707 1826.24 325.707 L1820.36 325.707 L1820.36 339.596 L1815.68 339.596 L1815.68 305.036 Z" fill="#000000" fill-rule="nonzero" fill-opacity="1" /><path clip-path="url(#clip620)" d="M1867.83 334.665 L1867.83 325.383 L1860.19 325.383 L1860.19 321.54 L1872.46 321.54 L1872.46 336.378 Q1869.76 338.299 1866.49 339.295 Q1863.23 340.267 1859.52 340.267 Q1851.42 340.267 1846.84 335.545 Q1842.28 330.799 1842.28 322.35 Q1842.28 313.878 1846.84 309.156 Q1851.42 304.411 1859.52 304.411 Q1862.9 304.411 1865.94 305.244 Q1868.99 306.077 1871.56 307.698 L1871.56 312.675 Q1868.97 310.476 1866.05 309.364 Q1863.13 308.253 1859.92 308.253 Q1853.57 308.253 1850.38 311.795 Q1847.21 315.337 1847.21 322.35 Q1847.21 329.341 1850.38 332.883 Q1853.57 336.424 1859.92 336.424 Q1862.39 336.424 1864.34 336.008 Q1866.28 335.568 1867.83 334.665 Z" fill="#000000" fill-rule="nonzero" fill-opacity="1" /><path clip-path="url(#clip620)" d="M1900.52 347.466 L1900.52 350.776 L1875.89 350.776 L1875.89 347.466 L1900.52 347.466 Z" fill="#000000" fill-rule="nonzero" fill-opacity="1" /><path clip-path="url(#clip620)" d="M1907.07 326.656 Q1907.07 331.355 1908.99 334.04 Q1910.94 336.702 1914.32 336.702 Q1917.69 336.702 1919.64 334.04 Q1921.58 331.355 1921.58 326.656 Q1921.58 321.957 1919.64 319.295 Q1917.69 316.61 1914.32 316.61 Q1910.94 316.61 1908.99 319.295 Q1907.07 321.957 1907.07 326.656 M1921.58 335.707 Q1920.24 338.022 1918.18 339.156 Q1916.14 340.267 1913.27 340.267 Q1908.57 340.267 1905.61 336.517 Q1902.67 332.767 1902.67 326.656 Q1902.67 320.545 1905.61 316.795 Q1908.57 313.045 1913.27 313.045 Q1916.14 313.045 1918.18 314.179 Q1920.24 315.29 1921.58 317.605 L1921.58 313.67 L1925.84 313.67 L1925.84 349.457 L1921.58 349.457 L1921.58 335.707 Z" fill="#000000" fill-rule="nonzero" fill-opacity="1" /><path clip-path="url(#clip620)" d="M1934.18 329.364 L1934.18 313.67 L1938.44 313.67 L1938.44 329.202 Q1938.44 332.883 1939.87 334.735 Q1941.31 336.563 1944.18 336.563 Q1947.63 336.563 1949.62 334.364 Q1951.63 332.165 1951.63 328.369 L1951.63 313.67 L1955.89 313.67 L1955.89 339.596 L1951.63 339.596 L1951.63 335.614 Q1950.08 337.975 1948.02 339.133 Q1945.98 340.267 1943.27 340.267 Q1938.81 340.267 1936.49 337.489 Q1934.18 334.711 1934.18 329.364 M1944.89 313.045 L1944.89 313.045 Z" fill="#000000" fill-rule="nonzero" fill-opacity="1" /><path clip-path="url(#clip620)" d="M1976.44 326.563 Q1971.28 326.563 1969.29 327.744 Q1967.3 328.924 1967.3 331.772 Q1967.3 334.04 1968.78 335.383 Q1970.29 336.702 1972.86 336.702 Q1976.4 336.702 1978.53 334.202 Q1980.68 331.679 1980.68 327.512 L1980.68 326.563 L1976.44 326.563 M1984.94 324.804 L1984.94 339.596 L1980.68 339.596 L1980.68 335.661 Q1979.22 338.022 1977.05 339.156 Q1974.87 340.267 1971.72 340.267 Q1967.74 340.267 1965.38 338.045 Q1963.04 335.799 1963.04 332.049 Q1963.04 327.674 1965.96 325.452 Q1968.9 323.23 1974.71 323.23 L1980.68 323.23 L1980.68 322.813 Q1980.68 319.874 1978.74 318.276 Q1976.81 316.656 1973.32 316.656 Q1971.1 316.656 1968.99 317.188 Q1966.88 317.721 1964.94 318.786 L1964.94 314.85 Q1967.28 313.948 1969.48 313.508 Q1971.68 313.045 1973.76 313.045 Q1979.38 313.045 1982.16 315.962 Q1984.94 318.878 1984.94 324.804 Z" fill="#000000" fill-rule="nonzero" fill-opacity="1" /><path clip-path="url(#clip620)" d="M2010.24 314.434 L2010.24 318.462 Q2008.43 317.536 2006.49 317.073 Q2004.55 316.61 2002.46 316.61 Q1999.29 316.61 1997.69 317.582 Q1996.12 318.554 1996.12 320.499 Q1996.12 321.98 1997.25 322.837 Q1998.39 323.67 2001.81 324.434 L2003.27 324.758 Q2007.81 325.73 2009.71 327.512 Q2011.63 329.272 2011.63 332.443 Q2011.63 336.054 2008.76 338.161 Q2005.91 340.267 2000.91 340.267 Q1998.83 340.267 1996.56 339.85 Q1994.31 339.457 1991.81 338.647 L1991.81 334.249 Q1994.18 335.475 1996.47 336.1 Q1998.76 336.702 2001 336.702 Q2004.01 336.702 2005.63 335.684 Q2007.25 334.642 2007.25 332.767 Q2007.25 331.031 2006.07 330.105 Q2004.92 329.179 2000.96 328.323 L1999.48 327.975 Q1995.52 327.142 1993.76 325.429 Q1992 323.693 1992 320.684 Q1992 317.026 1994.59 315.036 Q1997.18 313.045 2001.95 313.045 Q2004.31 313.045 2006.4 313.392 Q2008.48 313.739 2010.24 314.434 Z" fill="#000000" fill-rule="nonzero" fill-opacity="1" /><path clip-path="url(#clip620)" d="M2018.41 313.67 L2022.67 313.67 L2022.67 339.596 L2018.41 339.596 L2018.41 313.67 M2018.41 303.577 L2022.67 303.577 L2022.67 308.971 L2018.41 308.971 L2018.41 303.577 Z" fill="#000000" fill-rule="nonzero" fill-opacity="1" /><path clip-path="url(#clip620)" d="M2051.28 347.466 L2051.28 350.776 L2026.65 350.776 L2026.65 347.466 L2051.28 347.466 Z" fill="#000000" fill-rule="nonzero" fill-opacity="1" /><path clip-path="url(#clip620)" d="M2076.84 323.948 L2076.84 339.596 L2072.58 339.596 L2072.58 324.087 Q2072.58 320.406 2071.14 318.577 Q2069.71 316.749 2066.84 316.749 Q2063.39 316.749 2061.4 318.948 Q2059.41 321.147 2059.41 324.943 L2059.41 339.596 L2055.12 339.596 L2055.12 313.67 L2059.41 313.67 L2059.41 317.698 Q2060.93 315.36 2062.99 314.202 Q2065.08 313.045 2067.79 313.045 Q2072.25 313.045 2074.55 315.823 Q2076.84 318.577 2076.84 323.948 Z" fill="#000000" fill-rule="nonzero" fill-opacity="1" /><path clip-path="url(#clip620)" d="M2084.89 329.364 L2084.89 313.67 L2089.15 313.67 L2089.15 329.202 Q2089.15 332.883 2090.59 334.735 Q2092.02 336.563 2094.89 336.563 Q2098.34 336.563 2100.33 334.364 Q2102.35 332.165 2102.35 328.369 L2102.35 313.67 L2106.61 313.67 L2106.61 339.596 L2102.35 339.596 L2102.35 335.614 Q2100.8 337.975 2098.74 339.133 Q2096.7 340.267 2093.99 340.267 Q2089.52 340.267 2087.21 337.489 Q2084.89 334.711 2084.89 329.364 M2095.61 313.045 L2095.61 313.045 Z" fill="#000000" fill-rule="nonzero" fill-opacity="1" /><path clip-path="url(#clip620)" d="M2115.38 303.577 L2119.64 303.577 L2119.64 339.596 L2115.38 339.596 L2115.38 303.577 Z" fill="#000000" fill-rule="nonzero" fill-opacity="1" /><path clip-path="url(#clip620)" d="M2148.25 347.466 L2148.25 350.776 L2123.62 350.776 L2123.62 347.466 L2148.25 347.466 Z" fill="#000000" fill-rule="nonzero" fill-opacity="1" /><path clip-path="url(#clip620)" d="M2152.25 303.577 L2156.51 303.577 L2156.51 339.596 L2152.25 339.596 L2152.25 303.577 Z" fill="#000000" fill-rule="nonzero" fill-opacity="1" /><path clip-path="url(#clip620)" d="M2165.42 313.67 L2169.68 313.67 L2169.68 339.596 L2165.42 339.596 L2165.42 313.67 M2165.42 303.577 L2169.68 303.577 L2169.68 308.971 L2165.42 308.971 L2165.42 303.577 Z" fill="#000000" fill-rule="nonzero" fill-opacity="1" /><path clip-path="url(#clip620)" d="M2200.15 323.948 L2200.15 339.596 L2195.89 339.596 L2195.89 324.087 Q2195.89 320.406 2194.45 318.577 Q2193.02 316.749 2190.15 316.749 Q2186.7 316.749 2184.71 318.948 Q2182.72 321.147 2182.72 324.943 L2182.72 339.596 L2178.43 339.596 L2178.43 313.67 L2182.72 313.67 L2182.72 317.698 Q2184.24 315.36 2186.3 314.202 Q2188.39 313.045 2191.1 313.045 Q2195.56 313.045 2197.86 315.823 Q2200.15 318.577 2200.15 323.948 Z" fill="#000000" fill-rule="nonzero" fill-opacity="1" /></svg>
