<?xml version="1.0" encoding="utf-8"?>
<svg xmlns="http://www.w3.org/2000/svg" xmlns:xlink="http://www.w3.org/1999/xlink" width="600" height="400" viewBox="0 0 2400 1600">
<defs>
  <clipPath id="clip730">
    <rect x="0" y="0" width="2400" height="1600"/>
  </clipPath>
</defs>
<path clip-path="url(#clip730)" d="M0 1600 L2400 1600 L2400 0 L0 0  Z" fill="#ffffff" fill-rule="evenodd" fill-opacity="1"/>
<defs>
  <clipPath id="clip731">
    <rect x="480" y="0" width="1681" height="1600"/>
  </clipPath>
</defs>
<path clip-path="url(#clip730)" d="M251.071 1423.18 L2352.76 1423.18 L2352.76 123.472 L251.071 123.472  Z" fill="#ffffff" fill-rule="evenodd" fill-opacity="1"/>
<defs>
  <clipPath id="clip732">
    <rect x="251" y="123" width="2103" height="1301"/>
  </clipPath>
</defs>
<polyline clip-path="url(#clip732)" style="stroke:#000000; stroke-linecap:round; stroke-linejoin:round; stroke-width:2; stroke-opacity:0.1; fill:none" points="508.825,1423.18 508.825,123.472 "/>
<polyline clip-path="url(#clip732)" style="stroke:#000000; stroke-linecap:round; stroke-linejoin:round; stroke-width:2; stroke-opacity:0.1; fill:none" points="905.369,1423.18 905.369,123.472 "/>
<polyline clip-path="url(#clip732)" style="stroke:#000000; stroke-linecap:round; stroke-linejoin:round; stroke-width:2; stroke-opacity:0.1; fill:none" points="1301.91,1423.18 1301.91,123.472 "/>
<polyline clip-path="url(#clip732)" style="stroke:#000000; stroke-linecap:round; stroke-linejoin:round; stroke-width:2; stroke-opacity:0.1; fill:none" points="1698.46,1423.18 1698.46,123.472 "/>
<polyline clip-path="url(#clip732)" style="stroke:#000000; stroke-linecap:round; stroke-linejoin:round; stroke-width:2; stroke-opacity:0.1; fill:none" points="2095,1423.18 2095,123.472 "/>
<polyline clip-path="url(#clip730)" style="stroke:#000000; stroke-linecap:round; stroke-linejoin:round; stroke-width:4; stroke-opacity:1; fill:none" points="251.071,1423.18 2352.76,1423.18 "/>
<polyline clip-path="url(#clip730)" style="stroke:#000000; stroke-linecap:round; stroke-linejoin:round; stroke-width:4; stroke-opacity:1; fill:none" points="508.825,1423.18 508.825,1404.28 "/>
<polyline clip-path="url(#clip730)" style="stroke:#000000; stroke-linecap:round; stroke-linejoin:round; stroke-width:4; stroke-opacity:1; fill:none" points="905.369,1423.18 905.369,1404.28 "/>
<polyline clip-path="url(#clip730)" style="stroke:#000000; stroke-linecap:round; stroke-linejoin:round; stroke-width:4; stroke-opacity:1; fill:none" points="1301.91,1423.18 1301.91,1404.28 "/>
<polyline clip-path="url(#clip730)" style="stroke:#000000; stroke-linecap:round; stroke-linejoin:round; stroke-width:4; stroke-opacity:1; fill:none" points="1698.46,1423.18 1698.46,1404.28 "/>
<polyline clip-path="url(#clip730)" style="stroke:#000000; stroke-linecap:round; stroke-linejoin:round; stroke-width:4; stroke-opacity:1; fill:none" points="2095,1423.18 2095,1404.28 "/>
<path clip-path="url(#clip730)" d="M503.478 1481.64 L519.797 1481.64 L519.797 1485.58 L497.853 1485.58 L497.853 1481.64 Q500.515 1478.89 505.098 1474.26 Q509.705 1469.61 510.885 1468.27 Q513.131 1465.74 514.01 1464.01 Q514.913 1462.25 514.913 1460.56 Q514.913 1457.8 512.969 1456.07 Q511.047 1454.33 507.945 1454.33 Q505.746 1454.33 503.293 1455.09 Q500.862 1455.86 498.084 1457.41 L498.084 1452.69 Q500.908 1451.55 503.362 1450.97 Q505.816 1450.39 507.853 1450.39 Q513.223 1450.39 516.418 1453.08 Q519.612 1455.77 519.612 1460.26 Q519.612 1462.39 518.802 1464.31 Q518.015 1466.2 515.908 1468.8 Q515.33 1469.47 512.228 1472.69 Q509.126 1475.88 503.478 1481.64 Z" fill="#000000" fill-rule="nonzero" fill-opacity="1" /><path clip-path="url(#clip730)" d="M908.379 1455.09 L896.573 1473.54 L908.379 1473.54 L908.379 1455.09 M907.152 1451.02 L913.031 1451.02 L913.031 1473.54 L917.962 1473.54 L917.962 1477.43 L913.031 1477.43 L913.031 1485.58 L908.379 1485.58 L908.379 1477.43 L892.777 1477.43 L892.777 1472.92 L907.152 1451.02 Z" fill="#000000" fill-rule="nonzero" fill-opacity="1" /><path clip-path="url(#clip730)" d="M1302.32 1466.44 Q1299.17 1466.44 1297.32 1468.59 Q1295.49 1470.74 1295.49 1474.49 Q1295.49 1478.22 1297.32 1480.39 Q1299.17 1482.55 1302.32 1482.55 Q1305.47 1482.55 1307.3 1480.39 Q1309.15 1478.22 1309.15 1474.49 Q1309.15 1470.74 1307.3 1468.59 Q1305.47 1466.44 1302.32 1466.44 M1311.6 1451.78 L1311.6 1456.04 Q1309.84 1455.21 1308.04 1454.77 Q1306.25 1454.33 1304.49 1454.33 Q1299.86 1454.33 1297.41 1457.45 Q1294.98 1460.58 1294.63 1466.9 Q1296 1464.89 1298.06 1463.82 Q1300.12 1462.73 1302.6 1462.73 Q1307.8 1462.73 1310.81 1465.9 Q1313.85 1469.05 1313.85 1474.49 Q1313.85 1479.82 1310.7 1483.03 Q1307.55 1486.25 1302.32 1486.25 Q1296.32 1486.25 1293.15 1481.67 Q1289.98 1477.06 1289.98 1468.33 Q1289.98 1460.14 1293.87 1455.28 Q1297.76 1450.39 1304.31 1450.39 Q1306.07 1450.39 1307.85 1450.74 Q1309.66 1451.09 1311.6 1451.78 Z" fill="#000000" fill-rule="nonzero" fill-opacity="1" /><path clip-path="url(#clip730)" d="M1698.46 1469.17 Q1695.12 1469.17 1693.2 1470.95 Q1691.31 1472.73 1691.31 1475.86 Q1691.31 1478.98 1693.2 1480.77 Q1695.12 1482.55 1698.46 1482.55 Q1701.79 1482.55 1703.71 1480.77 Q1705.63 1478.96 1705.63 1475.86 Q1705.63 1472.73 1703.71 1470.95 Q1701.81 1469.17 1698.46 1469.17 M1693.78 1467.18 Q1690.77 1466.44 1689.08 1464.38 Q1687.42 1462.32 1687.42 1459.35 Q1687.42 1455.21 1690.36 1452.8 Q1693.32 1450.39 1698.46 1450.39 Q1703.62 1450.39 1706.56 1452.8 Q1709.5 1455.21 1709.5 1459.35 Q1709.5 1462.32 1707.81 1464.38 Q1706.14 1466.44 1703.16 1467.18 Q1706.54 1467.96 1708.41 1470.26 Q1710.31 1472.55 1710.31 1475.86 Q1710.31 1480.88 1707.23 1483.57 Q1704.18 1486.25 1698.46 1486.25 Q1692.74 1486.25 1689.66 1483.57 Q1686.61 1480.88 1686.61 1475.86 Q1686.61 1472.55 1688.5 1470.26 Q1690.4 1467.96 1693.78 1467.18 M1692.07 1459.79 Q1692.07 1462.48 1693.74 1463.98 Q1695.43 1465.49 1698.46 1465.49 Q1701.47 1465.49 1703.16 1463.98 Q1704.87 1462.48 1704.87 1459.79 Q1704.87 1457.11 1703.16 1455.6 Q1701.47 1454.1 1698.46 1454.1 Q1695.43 1454.1 1693.74 1455.6 Q1692.07 1457.11 1692.07 1459.79 Z" fill="#000000" fill-rule="nonzero" fill-opacity="1" /><path clip-path="url(#clip730)" d="M2069.69 1481.64 L2077.33 1481.64 L2077.33 1455.28 L2069.02 1456.95 L2069.02 1452.69 L2077.28 1451.02 L2081.96 1451.02 L2081.96 1481.64 L2089.6 1481.64 L2089.6 1485.58 L2069.69 1485.58 L2069.69 1481.64 Z" fill="#000000" fill-rule="nonzero" fill-opacity="1" /><path clip-path="url(#clip730)" d="M2109.04 1454.1 Q2105.43 1454.1 2103.6 1457.66 Q2101.8 1461.2 2101.8 1468.33 Q2101.8 1475.44 2103.6 1479.01 Q2105.43 1482.55 2109.04 1482.55 Q2112.68 1482.55 2114.48 1479.01 Q2116.31 1475.44 2116.31 1468.33 Q2116.31 1461.2 2114.48 1457.66 Q2112.68 1454.1 2109.04 1454.1 M2109.04 1450.39 Q2114.85 1450.39 2117.91 1455 Q2120.99 1459.58 2120.99 1468.33 Q2120.99 1477.06 2117.91 1481.67 Q2114.85 1486.25 2109.04 1486.25 Q2103.23 1486.25 2100.15 1481.67 Q2097.1 1477.06 2097.1 1468.33 Q2097.1 1459.58 2100.15 1455 Q2103.23 1450.39 2109.04 1450.39 Z" fill="#000000" fill-rule="nonzero" fill-opacity="1" /><path clip-path="url(#clip730)" d="M1286.09 1518.52 L1291.98 1518.52 L1291.98 1547.77 L1309.46 1532.4 L1316.94 1532.4 L1298.03 1549.07 L1317.73 1568.04 L1310.09 1568.04 L1291.98 1550.63 L1291.98 1568.04 L1286.09 1568.04 L1286.09 1518.52 Z" fill="#000000" fill-rule="nonzero" fill-opacity="1" /><polyline clip-path="url(#clip732)" style="stroke:#000000; stroke-linecap:round; stroke-linejoin:round; stroke-width:2; stroke-opacity:0.1; fill:none" points="251.071,1192.47 2352.76,1192.47 "/>
<polyline clip-path="url(#clip732)" style="stroke:#000000; stroke-linecap:round; stroke-linejoin:round; stroke-width:2; stroke-opacity:0.1; fill:none" points="251.071,824.415 2352.76,824.415 "/>
<polyline clip-path="url(#clip732)" style="stroke:#000000; stroke-linecap:round; stroke-linejoin:round; stroke-width:2; stroke-opacity:0.1; fill:none" points="251.071,456.359 2352.76,456.359 "/>
<polyline clip-path="url(#clip730)" style="stroke:#000000; stroke-linecap:round; stroke-linejoin:round; stroke-width:4; stroke-opacity:1; fill:none" points="251.071,1423.18 251.071,123.472 "/>
<polyline clip-path="url(#clip730)" style="stroke:#000000; stroke-linecap:round; stroke-linejoin:round; stroke-width:4; stroke-opacity:1; fill:none" points="251.071,1192.47 269.969,1192.47 "/>
<polyline clip-path="url(#clip730)" style="stroke:#000000; stroke-linecap:round; stroke-linejoin:round; stroke-width:4; stroke-opacity:1; fill:none" points="251.071,824.415 269.969,824.415 "/>
<polyline clip-path="url(#clip730)" style="stroke:#000000; stroke-linecap:round; stroke-linejoin:round; stroke-width:4; stroke-opacity:1; fill:none" points="251.071,456.359 269.969,456.359 "/>
<path clip-path="url(#clip730)" d="M114.931 1212.26 L122.57 1212.26 L122.57 1185.9 L114.26 1187.56 L114.26 1183.3 L122.524 1181.64 L127.2 1181.64 L127.2 1212.26 L134.839 1212.26 L134.839 1216.2 L114.931 1216.2 L114.931 1212.26 Z" fill="#000000" fill-rule="nonzero" fill-opacity="1" /><path clip-path="url(#clip730)" d="M154.283 1184.72 Q150.672 1184.72 148.843 1188.28 Q147.038 1191.82 147.038 1198.95 Q147.038 1206.06 148.843 1209.62 Q150.672 1213.17 154.283 1213.17 Q157.917 1213.17 159.723 1209.62 Q161.552 1206.06 161.552 1198.95 Q161.552 1191.82 159.723 1188.28 Q157.917 1184.72 154.283 1184.72 M154.283 1181.01 Q160.093 1181.01 163.149 1185.62 Q166.227 1190.2 166.227 1198.95 Q166.227 1207.68 163.149 1212.29 Q160.093 1216.87 154.283 1216.87 Q148.473 1216.87 145.394 1212.29 Q142.339 1207.68 142.339 1198.95 Q142.339 1190.2 145.394 1185.62 Q148.473 1181.01 154.283 1181.01 Z" fill="#000000" fill-rule="nonzero" fill-opacity="1" /><path clip-path="url(#clip730)" d="M166.227 1175.11 L190.339 1175.11 L190.339 1178.31 L166.227 1178.31 L166.227 1175.11 Z" fill="#000000" fill-rule="nonzero" fill-opacity="1" /><path clip-path="url(#clip730)" d="M201.812 1185.59 L215.071 1185.59 L215.071 1188.79 L197.241 1188.79 L197.241 1185.59 Q199.404 1183.35 203.128 1179.59 Q206.871 1175.81 207.83 1174.72 Q209.655 1172.67 210.369 1171.26 Q211.103 1169.83 211.103 1168.46 Q211.103 1166.22 209.523 1164.81 Q207.962 1163.4 205.442 1163.4 Q203.655 1163.4 201.661 1164.02 Q199.686 1164.64 197.43 1165.9 L197.43 1162.06 Q199.724 1161.14 201.718 1160.67 Q203.711 1160.2 205.366 1160.2 Q209.73 1160.2 212.325 1162.38 Q214.921 1164.56 214.921 1168.21 Q214.921 1169.94 214.263 1171.5 Q213.623 1173.05 211.912 1175.15 Q211.441 1175.7 208.921 1178.31 Q206.401 1180.91 201.812 1185.59 Z" fill="#000000" fill-rule="nonzero" fill-opacity="1" /><path clip-path="url(#clip730)" d="M144.366 844.207 L152.004 844.207 L152.004 817.842 L143.694 819.508 L143.694 815.249 L151.958 813.583 L156.634 813.583 L156.634 844.207 L164.273 844.207 L164.273 848.143 L144.366 848.143 L144.366 844.207 Z" fill="#000000" fill-rule="nonzero" fill-opacity="1" /><path clip-path="url(#clip730)" d="M183.717 816.661 Q180.106 816.661 178.277 820.226 Q176.472 823.768 176.472 830.897 Q176.472 838.004 178.277 841.569 Q180.106 845.11 183.717 845.11 Q187.351 845.11 189.157 841.569 Q190.986 838.004 190.986 830.897 Q190.986 823.768 189.157 820.226 Q187.351 816.661 183.717 816.661 M183.717 812.958 Q189.527 812.958 192.583 817.564 Q195.662 822.147 195.662 830.897 Q195.662 839.624 192.583 844.231 Q189.527 848.814 183.717 848.814 Q177.907 848.814 174.828 844.231 Q171.773 839.624 171.773 830.897 Q171.773 822.147 174.828 817.564 Q177.907 812.958 183.717 812.958 Z" fill="#000000" fill-rule="nonzero" fill-opacity="1" /><path clip-path="url(#clip730)" d="M205.366 795.154 Q202.432 795.154 200.947 798.05 Q199.48 800.928 199.48 806.72 Q199.48 812.494 200.947 815.391 Q202.432 818.268 205.366 818.268 Q208.319 818.268 209.786 815.391 Q211.272 812.494 211.272 806.72 Q211.272 800.928 209.786 798.05 Q208.319 795.154 205.366 795.154 M205.366 792.144 Q210.087 792.144 212.57 795.887 Q215.071 799.611 215.071 806.72 Q215.071 813.811 212.57 817.554 Q210.087 821.278 205.366 821.278 Q200.646 821.278 198.144 817.554 Q195.662 813.811 195.662 806.72 Q195.662 799.611 198.144 795.887 Q200.646 792.144 205.366 792.144 Z" fill="#000000" fill-rule="nonzero" fill-opacity="1" /><path clip-path="url(#clip730)" d="M145.945 476.152 L153.584 476.152 L153.584 449.786 L145.274 451.453 L145.274 447.194 L153.538 445.527 L158.214 445.527 L158.214 476.152 L165.853 476.152 L165.853 480.087 L145.945 480.087 L145.945 476.152 Z" fill="#000000" fill-rule="nonzero" fill-opacity="1" /><path clip-path="url(#clip730)" d="M185.297 448.606 Q181.686 448.606 179.857 452.171 Q178.052 455.712 178.052 462.842 Q178.052 469.948 179.857 473.513 Q181.686 477.055 185.297 477.055 Q188.931 477.055 190.737 473.513 Q192.566 469.948 192.566 462.842 Q192.566 455.712 190.737 452.171 Q188.931 448.606 185.297 448.606 M185.297 444.902 Q191.107 444.902 194.163 449.509 Q197.241 454.092 197.241 462.842 Q197.241 471.569 194.163 476.175 Q191.107 480.758 185.297 480.758 Q179.487 480.758 176.408 476.175 Q173.353 471.569 173.353 462.842 Q173.353 454.092 176.408 449.509 Q179.487 444.902 185.297 444.902 Z" fill="#000000" fill-rule="nonzero" fill-opacity="1" /><path clip-path="url(#clip730)" d="M201.812 449.479 L215.071 449.479 L215.071 452.677 L197.241 452.677 L197.241 449.479 Q199.404 447.241 203.128 443.48 Q206.871 439.699 207.83 438.608 Q209.655 436.558 210.369 435.148 Q211.103 433.718 211.103 432.345 Q211.103 430.107 209.523 428.697 Q207.962 427.286 205.442 427.286 Q203.655 427.286 201.661 427.907 Q199.686 428.528 197.43 429.788 L197.43 425.951 Q199.724 425.029 201.718 424.559 Q203.711 424.089 205.366 424.089 Q209.73 424.089 212.325 426.271 Q214.921 428.452 214.921 432.101 Q214.921 433.831 214.263 435.392 Q213.623 436.935 211.912 439.041 Q211.441 439.586 208.921 442.201 Q206.401 444.796 201.812 449.479 Z" fill="#000000" fill-rule="nonzero" fill-opacity="1" /><path clip-path="url(#clip730)" d="M32.4621 801.797 Q32.4621 806.507 36.1542 809.244 Q39.8145 811.982 46.212 811.982 Q52.6095 811.982 56.3017 809.276 Q59.9619 806.539 59.9619 801.797 Q59.9619 797.118 56.2698 794.381 Q52.5777 791.643 46.212 791.643 Q39.8781 791.643 36.186 794.381 Q32.4621 797.118 32.4621 801.797 M27.4968 801.797 Q27.4968 794.158 32.4621 789.797 Q37.4273 785.437 46.212 785.437 Q54.9649 785.437 59.9619 789.797 Q64.9272 794.158 64.9272 801.797 Q64.9272 809.467 59.9619 813.828 Q54.9649 818.156 46.212 818.156 Q37.4273 818.156 32.4621 813.828 Q27.4968 809.467 27.4968 801.797 Z" fill="#000000" fill-rule="nonzero" fill-opacity="1" /><path clip-path="url(#clip730)" d="M46.212 750.139 Q39.7508 750.139 36.0905 752.812 Q32.3984 755.454 32.3984 760.101 Q32.3984 764.748 36.0905 767.422 Q39.7508 770.064 46.212 770.064 Q52.6732 770.064 56.3653 767.422 Q60.0256 764.748 60.0256 760.101 Q60.0256 755.454 56.3653 752.812 Q52.6732 750.139 46.212 750.139 M33.7671 770.064 Q30.5842 768.218 29.0564 765.417 Q27.4968 762.584 27.4968 758.669 Q27.4968 752.176 32.6531 748.134 Q37.8093 744.06 46.212 744.06 Q54.6147 744.06 59.771 748.134 Q64.9272 752.176 64.9272 758.669 Q64.9272 762.584 63.3994 765.417 Q61.8398 768.218 58.657 770.064 L64.0042 770.064 L64.0042 775.952 L14.479 775.952 L14.479 770.064 L33.7671 770.064 Z" fill="#000000" fill-rule="nonzero" fill-opacity="1" /><path clip-path="url(#clip730)" d="M28.3562 734.352 L28.3562 728.495 L64.6407 728.495 Q71.452 728.495 74.5076 731.105 Q77.5631 733.684 77.5631 739.445 L77.5631 741.673 L72.5979 741.673 L72.5979 740.113 Q72.5979 736.771 71.0383 735.561 Q69.5105 734.352 64.6407 734.352 L28.3562 734.352 M14.479 734.352 L14.479 728.495 L21.895 728.495 L21.895 734.352 L14.479 734.352 Z" fill="#000000" fill-rule="nonzero" fill-opacity="1" /><path clip-path="url(#clip730)" d="M956.23 65.7705 L956.23 89.8329 L948.735 89.8329 L948.735 27.2059 L956.23 27.2059 L956.23 34.0924 Q958.579 30.0415 962.144 28.0971 Q965.749 26.1121 970.732 26.1121 Q978.996 26.1121 984.14 32.6746 Q989.326 39.2371 989.326 49.9314 Q989.326 60.6258 984.14 67.1883 Q978.996 73.7508 970.732 73.7508 Q965.749 73.7508 962.144 71.8063 Q958.579 69.8214 956.23 65.7705 M981.588 49.9314 Q981.588 41.7081 978.186 37.0496 Q974.823 32.3505 968.909 32.3505 Q962.995 32.3505 959.592 37.0496 Q956.23 41.7081 956.23 49.9314 Q956.23 58.1548 959.592 62.8538 Q962.995 67.5124 968.909 67.5124 Q974.823 67.5124 978.186 62.8538 Q981.588 58.1548 981.588 49.9314 Z" fill="#000000" fill-rule="nonzero" fill-opacity="1" /><path clip-path="url(#clip730)" d="M1027.97 34.1734 Q1026.72 33.4443 1025.22 33.1202 Q1023.76 32.7556 1021.98 32.7556 Q1015.66 32.7556 1012.25 36.8875 Q1008.89 40.9789 1008.89 48.6757 L1008.89 72.576 L1001.4 72.576 L1001.4 27.2059 L1008.89 27.2059 L1008.89 34.2544 Q1011.24 30.1225 1015.01 28.1376 Q1018.78 26.1121 1024.16 26.1121 Q1024.93 26.1121 1025.86 26.2337 Q1026.8 26.3147 1027.93 26.5172 L1027.97 34.1734 Z" fill="#000000" fill-rule="nonzero" fill-opacity="1" /><path clip-path="url(#clip730)" d="M1051.55 32.4315 Q1045.55 32.4315 1042.07 37.1306 Q1038.58 41.7891 1038.58 49.9314 Q1038.58 58.0738 1042.03 62.7728 Q1045.51 67.4314 1051.55 67.4314 Q1057.5 67.4314 1060.99 62.7323 Q1064.47 58.0333 1064.47 49.9314 Q1064.47 41.8701 1060.99 37.1711 Q1057.5 32.4315 1051.55 32.4315 M1051.55 26.1121 Q1061.27 26.1121 1066.82 32.4315 Q1072.37 38.7509 1072.37 49.9314 Q1072.37 61.0714 1066.82 67.4314 Q1061.27 73.7508 1051.55 73.7508 Q1041.78 73.7508 1036.24 67.4314 Q1030.73 61.0714 1030.73 49.9314 Q1030.73 38.7509 1036.24 32.4315 Q1041.78 26.1121 1051.55 26.1121 Z" fill="#000000" fill-rule="nonzero" fill-opacity="1" /><path clip-path="url(#clip730)" d="M1117.29 49.9314 Q1117.29 41.7081 1113.89 37.0496 Q1110.53 32.3505 1104.61 32.3505 Q1098.7 32.3505 1095.3 37.0496 Q1091.93 41.7081 1091.93 49.9314 Q1091.93 58.1548 1095.3 62.8538 Q1098.7 67.5124 1104.61 67.5124 Q1110.53 67.5124 1113.89 62.8538 Q1117.29 58.1548 1117.29 49.9314 M1091.93 34.0924 Q1094.28 30.0415 1097.85 28.0971 Q1101.45 26.1121 1106.44 26.1121 Q1114.7 26.1121 1119.85 32.6746 Q1125.03 39.2371 1125.03 49.9314 Q1125.03 60.6258 1119.85 67.1883 Q1114.7 73.7508 1106.44 73.7508 Q1101.45 73.7508 1097.85 71.8063 Q1094.28 69.8214 1091.93 65.7705 L1091.93 72.576 L1084.44 72.576 L1084.44 9.54393 L1091.93 9.54393 L1091.93 34.0924 Z" fill="#000000" fill-rule="nonzero" fill-opacity="1" /><path clip-path="url(#clip730)" d="M1137.39 9.54393 L1144.84 9.54393 L1144.84 72.576 L1137.39 72.576 L1137.39 9.54393 Z" fill="#000000" fill-rule="nonzero" fill-opacity="1" /><path clip-path="url(#clip730)" d="M1199.24 48.0275 L1199.24 51.6733 L1164.97 51.6733 Q1165.46 59.3701 1169.59 63.421 Q1173.76 67.4314 1181.18 67.4314 Q1185.47 67.4314 1189.48 66.3781 Q1193.53 65.3249 1197.5 63.2184 L1197.5 70.267 Q1193.49 71.9684 1189.28 72.8596 Q1185.07 73.7508 1180.73 73.7508 Q1169.87 73.7508 1163.51 67.4314 Q1157.2 61.1119 1157.2 50.3365 Q1157.2 39.1965 1163.19 32.6746 Q1169.23 26.1121 1179.43 26.1121 Q1188.59 26.1121 1193.9 32.0264 Q1199.24 37.9003 1199.24 48.0275 M1191.79 45.84 Q1191.71 39.7232 1188.35 36.0774 Q1185.02 32.4315 1179.52 32.4315 Q1173.28 32.4315 1169.51 35.9558 Q1165.78 39.4801 1165.22 45.8805 L1191.79 45.84 M1173.12 6.22219 L1184.54 21.3726 L1178.34 21.3726 L1165.13 6.22219 L1173.12 6.22219 Z" fill="#000000" fill-rule="nonzero" fill-opacity="1" /><path clip-path="url(#clip730)" d="M1246.8 35.9153 Q1249.6 30.8922 1253.49 28.5022 Q1257.37 26.1121 1262.64 26.1121 Q1269.73 26.1121 1273.58 31.0947 Q1277.43 36.0368 1277.43 45.1919 L1277.43 72.576 L1269.93 72.576 L1269.93 45.4349 Q1269.93 38.913 1267.62 35.7533 Q1265.31 32.5936 1260.57 32.5936 Q1254.78 32.5936 1251.42 36.4419 Q1248.06 40.2903 1248.06 46.9338 L1248.06 72.576 L1240.56 72.576 L1240.56 45.4349 Q1240.56 38.8725 1238.25 35.7533 Q1235.94 32.5936 1231.12 32.5936 Q1225.41 32.5936 1222.05 36.4824 Q1218.69 40.3308 1218.69 46.9338 L1218.69 72.576 L1211.19 72.576 L1211.19 27.2059 L1218.69 27.2059 L1218.69 34.2544 Q1221.24 30.082 1224.8 28.0971 Q1228.37 26.1121 1233.27 26.1121 Q1238.21 26.1121 1241.66 28.6237 Q1245.14 31.1352 1246.8 35.9153 Z" fill="#000000" fill-rule="nonzero" fill-opacity="1" /><path clip-path="url(#clip730)" d="M1331.1 48.0275 L1331.1 51.6733 L1296.83 51.6733 Q1297.32 59.3701 1301.45 63.421 Q1305.62 67.4314 1313.03 67.4314 Q1317.33 67.4314 1321.34 66.3781 Q1325.39 65.3249 1329.36 63.2184 L1329.36 70.267 Q1325.35 71.9684 1321.14 72.8596 Q1316.92 73.7508 1312.59 73.7508 Q1301.73 73.7508 1295.37 67.4314 Q1289.05 61.1119 1289.05 50.3365 Q1289.05 39.1965 1295.05 32.6746 Q1301.08 26.1121 1311.29 26.1121 Q1320.45 26.1121 1325.75 32.0264 Q1331.1 37.9003 1331.1 48.0275 M1323.65 45.84 Q1323.57 39.7232 1320.2 36.0774 Q1316.88 32.4315 1311.37 32.4315 Q1305.13 32.4315 1301.37 35.9558 Q1297.64 39.4801 1297.07 45.8805 L1323.65 45.84 Z" fill="#000000" fill-rule="nonzero" fill-opacity="1" /><path clip-path="url(#clip730)" d="M1371.61 62.2867 L1380.16 62.2867 L1380.16 72.576 L1371.61 72.576 L1371.61 62.2867 M1371.61 29.6769 L1380.16 29.6769 L1380.16 39.9662 L1371.61 39.9662 L1371.61 29.6769 Z" fill="#000000" fill-rule="nonzero" fill-opacity="1" /><path clip-path="url(#clip730)" d="M1431.4 14.324 L1431.4 27.2059 L1446.75 27.2059 L1446.75 32.9987 L1431.4 32.9987 L1431.4 57.6282 Q1431.4 63.1779 1432.9 64.7578 Q1434.44 66.3376 1439.1 66.3376 L1446.75 66.3376 L1446.75 72.576 L1439.1 72.576 Q1430.47 72.576 1427.19 69.3758 Q1423.91 66.1351 1423.91 57.6282 L1423.91 32.9987 L1418.44 32.9987 L1418.44 27.2059 L1423.91 27.2059 L1423.91 14.324 L1431.4 14.324 Z" fill="#000000" fill-rule="nonzero" fill-opacity="1" /><path clip-path="url(#clip730)" d="M1463.77 65.7705 L1463.77 89.8329 L1456.27 89.8329 L1456.27 27.2059 L1463.77 27.2059 L1463.77 34.0924 Q1466.12 30.0415 1469.68 28.0971 Q1473.29 26.1121 1478.27 26.1121 Q1486.53 26.1121 1491.68 32.6746 Q1496.86 39.2371 1496.86 49.9314 Q1496.86 60.6258 1491.68 67.1883 Q1486.53 73.7508 1478.27 73.7508 Q1473.29 73.7508 1469.68 71.8063 Q1466.12 69.8214 1463.77 65.7705 M1489.13 49.9314 Q1489.13 41.7081 1485.72 37.0496 Q1482.36 32.3505 1476.45 32.3505 Q1470.53 32.3505 1467.13 37.0496 Q1463.77 41.7081 1463.77 49.9314 Q1463.77 58.1548 1467.13 62.8538 Q1470.53 67.5124 1476.45 67.5124 Q1482.36 67.5124 1485.72 62.8538 Q1489.13 58.1548 1489.13 49.9314 Z" fill="#000000" fill-rule="nonzero" fill-opacity="1" /><path clip-path="url(#clip730)" d="M1535.06 39.9662 Q1540.94 41.222 1544.22 45.1919 Q1547.54 49.1618 1547.54 54.9951 Q1547.54 63.9476 1541.38 68.8492 Q1535.23 73.7508 1523.88 73.7508 Q1520.08 73.7508 1516.02 72.9811 Q1512.01 72.2519 1507.72 70.7531 L1507.72 62.8538 Q1511.12 64.8388 1515.17 65.8515 Q1519.22 66.8642 1523.64 66.8642 Q1531.34 66.8642 1535.35 63.826 Q1539.4 60.7879 1539.4 54.9951 Q1539.4 49.6479 1535.63 46.6502 Q1531.9 43.612 1525.22 43.612 L1518.17 43.612 L1518.17 36.8875 L1525.54 36.8875 Q1531.58 36.8875 1534.78 34.4975 Q1537.98 32.067 1537.98 27.5299 Q1537.98 22.8714 1534.66 20.4004 Q1531.38 17.8888 1525.22 17.8888 Q1521.86 17.8888 1518.01 18.618 Q1514.16 19.3471 1509.54 20.8865 L1509.54 13.5948 Q1514.2 12.2985 1518.25 11.6504 Q1522.34 11.0023 1525.95 11.0023 Q1535.27 11.0023 1540.69 15.2557 Q1546.12 19.4686 1546.12 26.6793 Q1546.12 31.7024 1543.25 35.1862 Q1540.37 38.6294 1535.06 39.9662 Z" fill="#000000" fill-rule="nonzero" fill-opacity="1" /><path clip-path="url(#clip730)" d="M1580.56 17.4837 Q1574.24 17.4837 1571.04 23.7221 Q1567.88 29.92 1567.88 42.3968 Q1567.88 54.833 1571.04 61.0714 Q1574.24 67.2693 1580.56 67.2693 Q1586.91 67.2693 1590.07 61.0714 Q1593.27 54.833 1593.27 42.3968 Q1593.27 29.92 1590.07 23.7221 Q1586.91 17.4837 1580.56 17.4837 M1580.56 11.0023 Q1590.72 11.0023 1596.07 19.0636 Q1601.46 27.0843 1601.46 42.3968 Q1601.46 57.6687 1596.07 65.73 Q1590.72 73.7508 1580.56 73.7508 Q1570.39 73.7508 1565 65.73 Q1559.65 57.6687 1559.65 42.3968 Q1559.65 27.0843 1565 19.0636 Q1570.39 11.0023 1580.56 11.0023 Z" fill="#000000" fill-rule="nonzero" fill-opacity="1" /><path clip-path="url(#clip730)" d="M1638.32 19.2256 L1617.66 51.5113 L1638.32 51.5113 L1638.32 19.2256 M1636.17 12.096 L1646.46 12.096 L1646.46 51.5113 L1655.09 51.5113 L1655.09 58.3168 L1646.46 58.3168 L1646.46 72.576 L1638.32 72.576 L1638.32 58.3168 L1611.02 58.3168 L1611.02 50.4176 L1636.17 12.096 Z" fill="#000000" fill-rule="nonzero" fill-opacity="1" /><polyline clip-path="url(#clip732)" style="stroke:#009af9; stroke-linecap:round; stroke-linejoin:round; stroke-width:4; stroke-opacity:1; fill:none" points="310.553,160.256 508.825,271.032 707.097,343.003 905.369,411.796 1103.64,522.138 1301.91,590.536 1500.19,697.519 1698.46,797.353 1896.73,892.394 2095,1029.35 2293.27,1386.4 "/>
<polyline clip-path="url(#clip732)" style="stroke:#e26f46; stroke-linecap:round; stroke-linejoin:round; stroke-width:4; stroke-opacity:1; fill:none" points="310.553,160.256 508.825,271.032 707.097,343.003 905.369,411.796 1103.64,522.138 1301.91,590.536 1500.19,697.519 1698.46,797.353 1896.73,892.394 2095,1029.35 2293.27,1386.4 "/>
<path clip-path="url(#clip730)" d="M1500.96 322.316 L2282.7 322.316 L2282.7 166.796 L1500.96 166.796  Z" fill="#ffffff" fill-rule="evenodd" fill-opacity="1"/>
<polyline clip-path="url(#clip730)" style="stroke:#000000; stroke-linecap:round; stroke-linejoin:round; stroke-width:4; stroke-opacity:1; fill:none" points="1500.96,322.316 2282.7,322.316 2282.7,166.796 1500.96,166.796 1500.96,322.316 "/>
<polyline clip-path="url(#clip730)" style="stroke:#009af9; stroke-linecap:round; stroke-linejoin:round; stroke-width:4; stroke-opacity:1; fill:none" points="1524.31,218.636 1664.42,218.636 "/>
<path clip-path="url(#clip730)" d="M1687.78 201.356 L1692.45 201.356 L1692.45 231.981 L1709.28 231.981 L1709.28 235.916 L1687.78 235.916 L1687.78 201.356 Z" fill="#000000" fill-rule="nonzero" fill-opacity="1" /><path clip-path="url(#clip730)" d="M1714.19 201.356 L1721.16 201.356 L1729.98 224.874 L1738.84 201.356 L1745.81 201.356 L1745.81 235.916 L1741.25 235.916 L1741.25 205.569 L1732.34 229.272 L1727.64 229.272 L1718.73 205.569 L1718.73 235.916 L1714.19 235.916 L1714.19 201.356 Z" fill="#000000" fill-rule="nonzero" fill-opacity="1" /><path clip-path="url(#clip730)" d="M1774.6 243.786 L1774.6 247.096 L1749.98 247.096 L1749.98 243.786 L1774.6 243.786 Z" fill="#000000" fill-rule="nonzero" fill-opacity="1" /><path clip-path="url(#clip730)" d="M1790.35 205.962 L1784 223.161 L1796.71 223.161 L1790.35 205.962 M1787.71 201.356 L1793.01 201.356 L1806.18 235.916 L1801.32 235.916 L1798.17 227.05 L1782.59 227.05 L1779.44 235.916 L1774.51 235.916 L1787.71 201.356 Z" fill="#000000" fill-rule="nonzero" fill-opacity="1" /><path clip-path="url(#clip730)" d="M1832.59 220.268 L1832.59 235.916 L1828.33 235.916 L1828.33 220.407 Q1828.33 216.726 1826.9 214.897 Q1825.46 213.069 1822.59 213.069 Q1819.14 213.069 1817.15 215.268 Q1815.16 217.467 1815.16 221.263 L1815.16 235.916 L1810.88 235.916 L1810.88 209.99 L1815.16 209.99 L1815.16 214.018 Q1816.69 211.68 1818.75 210.522 Q1820.83 209.365 1823.54 209.365 Q1828.01 209.365 1830.3 212.143 Q1832.59 214.897 1832.59 220.268 Z" fill="#000000" fill-rule="nonzero" fill-opacity="1" /><path clip-path="url(#clip730)" d="M1858.15 213.925 L1858.15 199.897 L1862.41 199.897 L1862.41 235.916 L1858.15 235.916 L1858.15 232.027 Q1856.8 234.342 1854.74 235.476 Q1852.71 236.587 1849.84 236.587 Q1845.14 236.587 1842.17 232.837 Q1839.23 229.087 1839.23 222.976 Q1839.23 216.865 1842.17 213.115 Q1845.14 209.365 1849.84 209.365 Q1852.71 209.365 1854.74 210.499 Q1856.8 211.61 1858.15 213.925 M1843.63 222.976 Q1843.63 227.675 1845.55 230.36 Q1847.5 233.022 1850.88 233.022 Q1854.26 233.022 1856.2 230.36 Q1858.15 227.675 1858.15 222.976 Q1858.15 218.277 1856.2 215.615 Q1854.26 212.93 1850.88 212.93 Q1847.5 212.93 1845.55 215.615 Q1843.63 218.277 1843.63 222.976 Z" fill="#000000" fill-rule="nonzero" fill-opacity="1" /><path clip-path="url(#clip730)" d="M1886.2 213.971 Q1885.48 213.555 1884.63 213.37 Q1883.79 213.161 1882.78 213.161 Q1879.16 213.161 1877.22 215.522 Q1875.3 217.86 1875.3 222.258 L1875.3 235.916 L1871.02 235.916 L1871.02 209.99 L1875.3 209.99 L1875.3 214.018 Q1876.64 211.657 1878.79 210.522 Q1880.95 209.365 1884.03 209.365 Q1884.47 209.365 1885 209.434 Q1885.53 209.481 1886.18 209.596 L1886.2 213.971 Z" fill="#000000" fill-rule="nonzero" fill-opacity="1" /><path clip-path="url(#clip730)" d="M1911.8 221.888 L1911.8 223.971 L1892.22 223.971 Q1892.5 228.369 1894.86 230.684 Q1897.24 232.976 1901.48 232.976 Q1903.93 232.976 1906.22 232.374 Q1908.54 231.772 1910.81 230.569 L1910.81 234.596 Q1908.52 235.568 1906.11 236.078 Q1903.7 236.587 1901.22 236.587 Q1895.02 236.587 1891.39 232.976 Q1887.78 229.365 1887.78 223.207 Q1887.78 216.842 1891.2 213.115 Q1894.65 209.365 1900.48 209.365 Q1905.72 209.365 1908.75 212.745 Q1911.8 216.101 1911.8 221.888 M1907.54 220.638 Q1907.5 217.143 1905.58 215.059 Q1903.68 212.976 1900.53 212.976 Q1896.97 212.976 1894.81 214.99 Q1892.68 217.004 1892.36 220.661 L1907.54 220.638 Z" fill="#000000" fill-rule="nonzero" fill-opacity="1" /><path clip-path="url(#clip730)" d="M1918.79 209.99 L1923.05 209.99 L1923.05 235.916 L1918.79 235.916 L1918.79 209.99 M1918.79 199.897 L1923.05 199.897 L1923.05 205.291 L1918.79 205.291 L1918.79 199.897 Z" fill="#000000" fill-rule="nonzero" fill-opacity="1" /><path clip-path="url(#clip730)" d="M1951.66 243.786 L1951.66 247.096 L1927.03 247.096 L1927.03 243.786 L1951.66 243.786 Z" fill="#000000" fill-rule="nonzero" fill-opacity="1" /><path clip-path="url(#clip730)" d="M1967.45 222.883 Q1962.29 222.883 1960.3 224.064 Q1958.31 225.244 1958.31 228.092 Q1958.31 230.36 1959.79 231.703 Q1961.29 233.022 1963.86 233.022 Q1967.4 233.022 1969.53 230.522 Q1971.69 227.999 1971.69 223.832 L1971.69 222.883 L1967.45 222.883 M1975.95 221.124 L1975.95 235.916 L1971.69 235.916 L1971.69 231.981 Q1970.23 234.342 1968.05 235.476 Q1965.88 236.587 1962.73 236.587 Q1958.75 236.587 1956.39 234.365 Q1954.05 232.119 1954.05 228.369 Q1954.05 223.994 1956.97 221.772 Q1959.9 219.55 1965.72 219.55 L1971.69 219.55 L1971.69 219.133 Q1971.69 216.194 1969.74 214.596 Q1967.82 212.976 1964.33 212.976 Q1962.1 212.976 1960 213.508 Q1957.89 214.041 1955.95 215.106 L1955.95 211.17 Q1958.28 210.268 1960.48 209.828 Q1962.68 209.365 1964.77 209.365 Q1970.39 209.365 1973.17 212.282 Q1975.95 215.198 1975.95 221.124 Z" fill="#000000" fill-rule="nonzero" fill-opacity="1" /><path clip-path="url(#clip730)" d="M1984.72 199.897 L1988.98 199.897 L1988.98 235.916 L1984.72 235.916 L1984.72 199.897 Z" fill="#000000" fill-rule="nonzero" fill-opacity="1" /><path clip-path="url(#clip730)" d="M2002.1 202.629 L2002.1 209.99 L2010.88 209.99 L2010.88 213.3 L2002.1 213.3 L2002.1 227.374 Q2002.1 230.545 2002.96 231.448 Q2003.84 232.351 2006.5 232.351 L2010.88 232.351 L2010.88 235.916 L2006.5 235.916 Q2001.57 235.916 1999.7 234.087 Q1997.82 232.235 1997.82 227.374 L1997.82 213.3 L1994.7 213.3 L1994.7 209.99 L1997.82 209.99 L1997.82 202.629 L2002.1 202.629 Z" fill="#000000" fill-rule="nonzero" fill-opacity="1" /><polyline clip-path="url(#clip730)" style="stroke:#e26f46; stroke-linecap:round; stroke-linejoin:round; stroke-width:4; stroke-opacity:1; fill:none" points="1524.31,270.476 1664.42,270.476 "/>
<path clip-path="url(#clip730)" d="M1687.78 253.196 L1692.45 253.196 L1692.45 283.821 L1709.28 283.821 L1709.28 287.756 L1687.78 287.756 L1687.78 253.196 Z" fill="#000000" fill-rule="nonzero" fill-opacity="1" /><path clip-path="url(#clip730)" d="M1714.19 253.196 L1721.16 253.196 L1729.98 276.714 L1738.84 253.196 L1745.81 253.196 L1745.81 287.756 L1741.25 287.756 L1741.25 257.409 L1732.34 281.112 L1727.64 281.112 L1718.73 257.409 L1718.73 287.756 L1714.19 287.756 L1714.19 253.196 Z" fill="#000000" fill-rule="nonzero" fill-opacity="1" /><path clip-path="url(#clip730)" d="M1774.6 295.626 L1774.6 298.936 L1749.98 298.936 L1749.98 295.626 L1774.6 295.626 Z" fill="#000000" fill-rule="nonzero" fill-opacity="1" /><path clip-path="url(#clip730)" d="M1790.35 257.802 L1784 275.001 L1796.71 275.001 L1790.35 257.802 M1787.71 253.196 L1793.01 253.196 L1806.18 287.756 L1801.32 287.756 L1798.17 278.89 L1782.59 278.89 L1779.44 287.756 L1774.51 287.756 L1787.71 253.196 Z" fill="#000000" fill-rule="nonzero" fill-opacity="1" /><path clip-path="url(#clip730)" d="M1832.59 272.108 L1832.59 287.756 L1828.33 287.756 L1828.33 272.247 Q1828.33 268.566 1826.9 266.737 Q1825.46 264.909 1822.59 264.909 Q1819.14 264.909 1817.15 267.108 Q1815.16 269.307 1815.16 273.103 L1815.16 287.756 L1810.88 287.756 L1810.88 261.83 L1815.16 261.83 L1815.16 265.858 Q1816.69 263.52 1818.75 262.362 Q1820.83 261.205 1823.54 261.205 Q1828.01 261.205 1830.3 263.983 Q1832.59 266.737 1832.59 272.108 Z" fill="#000000" fill-rule="nonzero" fill-opacity="1" /><path clip-path="url(#clip730)" d="M1858.15 265.765 L1858.15 251.737 L1862.41 251.737 L1862.41 287.756 L1858.15 287.756 L1858.15 283.867 Q1856.8 286.182 1854.74 287.316 Q1852.71 288.427 1849.84 288.427 Q1845.14 288.427 1842.17 284.677 Q1839.23 280.927 1839.23 274.816 Q1839.23 268.705 1842.17 264.955 Q1845.14 261.205 1849.84 261.205 Q1852.71 261.205 1854.74 262.339 Q1856.8 263.45 1858.15 265.765 M1843.63 274.816 Q1843.63 279.515 1845.55 282.2 Q1847.5 284.862 1850.88 284.862 Q1854.26 284.862 1856.2 282.2 Q1858.15 279.515 1858.15 274.816 Q1858.15 270.117 1856.2 267.455 Q1854.26 264.77 1850.88 264.77 Q1847.5 264.77 1845.55 267.455 Q1843.63 270.117 1843.63 274.816 Z" fill="#000000" fill-rule="nonzero" fill-opacity="1" /><path clip-path="url(#clip730)" d="M1886.2 265.811 Q1885.48 265.395 1884.63 265.21 Q1883.79 265.001 1882.78 265.001 Q1879.16 265.001 1877.22 267.362 Q1875.3 269.7 1875.3 274.098 L1875.3 287.756 L1871.02 287.756 L1871.02 261.83 L1875.3 261.83 L1875.3 265.858 Q1876.64 263.497 1878.79 262.362 Q1880.95 261.205 1884.03 261.205 Q1884.47 261.205 1885 261.274 Q1885.53 261.321 1886.18 261.436 L1886.2 265.811 Z" fill="#000000" fill-rule="nonzero" fill-opacity="1" /><path clip-path="url(#clip730)" d="M1911.8 273.728 L1911.8 275.811 L1892.22 275.811 Q1892.5 280.209 1894.86 282.524 Q1897.24 284.816 1901.48 284.816 Q1903.93 284.816 1906.22 284.214 Q1908.54 283.612 1910.81 282.409 L1910.81 286.436 Q1908.52 287.408 1906.11 287.918 Q1903.7 288.427 1901.22 288.427 Q1895.02 288.427 1891.39 284.816 Q1887.78 281.205 1887.78 275.047 Q1887.78 268.682 1891.2 264.955 Q1894.65 261.205 1900.48 261.205 Q1905.72 261.205 1908.75 264.585 Q1911.8 267.941 1911.8 273.728 M1907.54 272.478 Q1907.5 268.983 1905.58 266.899 Q1903.68 264.816 1900.53 264.816 Q1896.97 264.816 1894.81 266.83 Q1892.68 268.844 1892.36 272.501 L1907.54 272.478 Z" fill="#000000" fill-rule="nonzero" fill-opacity="1" /><path clip-path="url(#clip730)" d="M1918.79 261.83 L1923.05 261.83 L1923.05 287.756 L1918.79 287.756 L1918.79 261.83 M1918.79 251.737 L1923.05 251.737 L1923.05 257.131 L1918.79 257.131 L1918.79 251.737 Z" fill="#000000" fill-rule="nonzero" fill-opacity="1" /><path clip-path="url(#clip730)" d="M1951.66 295.626 L1951.66 298.936 L1927.03 298.936 L1927.03 295.626 L1951.66 295.626 Z" fill="#000000" fill-rule="nonzero" fill-opacity="1" /><path clip-path="url(#clip730)" d="M1967.45 274.723 Q1962.29 274.723 1960.3 275.904 Q1958.31 277.084 1958.31 279.932 Q1958.31 282.2 1959.79 283.543 Q1961.29 284.862 1963.86 284.862 Q1967.4 284.862 1969.53 282.362 Q1971.69 279.839 1971.69 275.672 L1971.69 274.723 L1967.45 274.723 M1975.95 272.964 L1975.95 287.756 L1971.69 287.756 L1971.69 283.821 Q1970.23 286.182 1968.05 287.316 Q1965.88 288.427 1962.73 288.427 Q1958.75 288.427 1956.39 286.205 Q1954.05 283.959 1954.05 280.209 Q1954.05 275.834 1956.97 273.612 Q1959.9 271.39 1965.72 271.39 L1971.69 271.39 L1971.69 270.973 Q1971.69 268.034 1969.74 266.436 Q1967.82 264.816 1964.33 264.816 Q1962.1 264.816 1960 265.348 Q1957.89 265.881 1955.95 266.946 L1955.95 263.01 Q1958.28 262.108 1960.48 261.668 Q1962.68 261.205 1964.77 261.205 Q1970.39 261.205 1973.17 264.122 Q1975.95 267.038 1975.95 272.964 Z" fill="#000000" fill-rule="nonzero" fill-opacity="1" /><path clip-path="url(#clip730)" d="M1984.72 251.737 L1988.98 251.737 L1988.98 287.756 L1984.72 287.756 L1984.72 251.737 Z" fill="#000000" fill-rule="nonzero" fill-opacity="1" /><path clip-path="url(#clip730)" d="M2002.1 254.469 L2002.1 261.83 L2010.88 261.83 L2010.88 265.14 L2002.1 265.14 L2002.1 279.214 Q2002.1 282.385 2002.96 283.288 Q2003.84 284.191 2006.5 284.191 L2010.88 284.191 L2010.88 287.756 L2006.5 287.756 Q2001.57 287.756 1999.7 285.927 Q1997.82 284.075 1997.82 279.214 L1997.82 265.14 L1994.7 265.14 L1994.7 261.83 L1997.82 261.83 L1997.82 254.469 L2002.1 254.469 Z" fill="#000000" fill-rule="nonzero" fill-opacity="1" /><path clip-path="url(#clip730)" d="M2036.18 295.626 L2036.18 298.936 L2011.55 298.936 L2011.55 295.626 L2036.18 295.626 Z" fill="#000000" fill-rule="nonzero" fill-opacity="1" /><path clip-path="url(#clip730)" d="M2042.73 274.816 Q2042.73 279.515 2044.65 282.2 Q2046.59 284.862 2049.97 284.862 Q2053.35 284.862 2055.3 282.2 Q2057.24 279.515 2057.24 274.816 Q2057.24 270.117 2055.3 267.455 Q2053.35 264.77 2049.97 264.77 Q2046.59 264.77 2044.65 267.455 Q2042.73 270.117 2042.73 274.816 M2057.24 283.867 Q2055.9 286.182 2053.84 287.316 Q2051.8 288.427 2048.93 288.427 Q2044.23 288.427 2041.27 284.677 Q2038.33 280.927 2038.33 274.816 Q2038.33 268.705 2041.27 264.955 Q2044.23 261.205 2048.93 261.205 Q2051.8 261.205 2053.84 262.339 Q2055.9 263.45 2057.24 265.765 L2057.24 261.83 L2061.5 261.83 L2061.5 297.617 L2057.24 297.617 L2057.24 283.867 Z" fill="#000000" fill-rule="nonzero" fill-opacity="1" /><path clip-path="url(#clip730)" d="M2085.3 265.811 Q2084.58 265.395 2083.72 265.21 Q2082.89 265.001 2081.87 265.001 Q2078.26 265.001 2076.32 267.362 Q2074.39 269.7 2074.39 274.098 L2074.39 287.756 L2070.11 287.756 L2070.11 261.83 L2074.39 261.83 L2074.39 265.858 Q2075.74 263.497 2077.89 262.362 Q2080.04 261.205 2083.12 261.205 Q2083.56 261.205 2084.09 261.274 Q2084.63 261.321 2085.27 261.436 L2085.3 265.811 Z" fill="#000000" fill-rule="nonzero" fill-opacity="1" /><path clip-path="url(#clip730)" d="M2109.12 266.807 Q2110.71 263.936 2112.94 262.571 Q2115.16 261.205 2118.17 261.205 Q2122.22 261.205 2124.42 264.052 Q2126.62 266.876 2126.62 272.108 L2126.62 287.756 L2122.33 287.756 L2122.33 272.247 Q2122.33 268.52 2121.02 266.714 Q2119.7 264.909 2116.99 264.909 Q2113.68 264.909 2111.76 267.108 Q2109.83 269.307 2109.83 273.103 L2109.83 287.756 L2105.55 287.756 L2105.55 272.247 Q2105.55 268.497 2104.23 266.714 Q2102.91 264.909 2100.16 264.909 Q2096.89 264.909 2094.97 267.131 Q2093.05 269.33 2093.05 273.103 L2093.05 287.756 L2088.77 287.756 L2088.77 261.83 L2093.05 261.83 L2093.05 265.858 Q2094.51 263.473 2096.55 262.339 Q2098.58 261.205 2101.39 261.205 Q2104.21 261.205 2106.18 262.64 Q2108.17 264.075 2109.12 266.807 Z" fill="#000000" fill-rule="nonzero" fill-opacity="1" /><path clip-path="url(#clip730)" d="M2134.67 277.524 L2134.67 261.83 L2138.93 261.83 L2138.93 277.362 Q2138.93 281.043 2140.37 282.895 Q2141.8 284.723 2144.67 284.723 Q2148.12 284.723 2150.11 282.524 Q2152.13 280.325 2152.13 276.529 L2152.13 261.83 L2156.39 261.83 L2156.39 287.756 L2152.13 287.756 L2152.13 283.774 Q2150.58 286.135 2148.51 287.293 Q2146.48 288.427 2143.77 288.427 Q2139.3 288.427 2136.99 285.649 Q2134.67 282.871 2134.67 277.524 M2145.39 261.205 L2145.39 261.205 Z" fill="#000000" fill-rule="nonzero" fill-opacity="1" /><path clip-path="url(#clip730)" d="M2185.34 266.807 Q2186.94 263.936 2189.16 262.571 Q2191.39 261.205 2194.39 261.205 Q2198.45 261.205 2200.64 264.052 Q2202.84 266.876 2202.84 272.108 L2202.84 287.756 L2198.56 287.756 L2198.56 272.247 Q2198.56 268.52 2197.24 266.714 Q2195.92 264.909 2193.21 264.909 Q2189.9 264.909 2187.98 267.108 Q2186.06 269.307 2186.06 273.103 L2186.06 287.756 L2181.78 287.756 L2181.78 272.247 Q2181.78 268.497 2180.46 266.714 Q2179.14 264.909 2176.39 264.909 Q2173.12 264.909 2171.2 267.131 Q2169.28 269.33 2169.28 273.103 L2169.28 287.756 L2165 287.756 L2165 261.83 L2169.28 261.83 L2169.28 265.858 Q2170.74 263.473 2172.77 262.339 Q2174.81 261.205 2177.61 261.205 Q2180.44 261.205 2182.4 262.64 Q2184.39 264.075 2185.34 266.807 Z" fill="#000000" fill-rule="nonzero" fill-opacity="1" /><path clip-path="url(#clip730)" d="M2215.46 283.867 L2215.46 297.617 L2211.18 297.617 L2211.18 261.83 L2215.46 261.83 L2215.46 265.765 Q2216.8 263.45 2218.84 262.339 Q2220.9 261.205 2223.75 261.205 Q2228.47 261.205 2231.41 264.955 Q2234.37 268.705 2234.37 274.816 Q2234.37 280.927 2231.41 284.677 Q2228.47 288.427 2223.75 288.427 Q2220.9 288.427 2218.84 287.316 Q2216.8 286.182 2215.46 283.867 M2229.95 274.816 Q2229.95 270.117 2228.01 267.455 Q2226.08 264.77 2222.7 264.77 Q2219.32 264.77 2217.38 267.455 Q2215.46 270.117 2215.46 274.816 Q2215.46 279.515 2217.38 282.2 Q2219.32 284.862 2222.7 284.862 Q2226.08 284.862 2228.01 282.2 Q2229.95 279.515 2229.95 274.816 Z" fill="#000000" fill-rule="nonzero" fill-opacity="1" /><path clip-path="url(#clip730)" d="M2257.96 262.594 L2257.96 266.622 Q2256.15 265.696 2254.21 265.233 Q2252.26 264.77 2250.18 264.77 Q2247.01 264.77 2245.41 265.742 Q2243.84 266.714 2243.84 268.659 Q2243.84 270.14 2244.97 270.997 Q2246.11 271.83 2249.53 272.594 L2250.99 272.918 Q2255.53 273.89 2257.43 275.672 Q2259.35 277.432 2259.35 280.603 Q2259.35 284.214 2256.48 286.321 Q2253.63 288.427 2248.63 288.427 Q2246.55 288.427 2244.28 288.01 Q2242.03 287.617 2239.53 286.807 L2239.53 282.409 Q2241.89 283.635 2244.19 284.26 Q2246.48 284.862 2248.72 284.862 Q2251.73 284.862 2253.35 283.844 Q2254.97 282.802 2254.97 280.927 Q2254.97 279.191 2253.79 278.265 Q2252.63 277.339 2248.68 276.483 L2247.19 276.135 Q2243.24 275.302 2241.48 273.589 Q2239.72 271.853 2239.72 268.844 Q2239.72 265.186 2242.31 263.196 Q2244.9 261.205 2249.67 261.205 Q2252.03 261.205 2254.12 261.552 Q2256.2 261.899 2257.96 262.594 Z" fill="#000000" fill-rule="nonzero" fill-opacity="1" /></svg>
