<?xml version="1.0" encoding="utf-8"?>
<svg xmlns="http://www.w3.org/2000/svg" xmlns:xlink="http://www.w3.org/1999/xlink" width="600" height="400" viewBox="0 0 2400 1600">
<defs>
  <clipPath id="clip050">
    <rect x="0" y="0" width="2400" height="1600"/>
  </clipPath>
</defs>
<path clip-path="url(#clip050)" d="M0 1600 L2400 1600 L2400 0 L0 0  Z" fill="#ffffff" fill-rule="evenodd" fill-opacity="1"/>
<defs>
  <clipPath id="clip051">
    <rect x="480" y="0" width="1681" height="1600"/>
  </clipPath>
</defs>
<path clip-path="url(#clip050)" d="M276.876 1423.18 L2352.76 1423.18 L2352.76 123.472 L276.876 123.472  Z" fill="#ffffff" fill-rule="evenodd" fill-opacity="1"/>
<defs>
  <clipPath id="clip052">
    <rect x="276" y="123" width="2077" height="1301"/>
  </clipPath>
</defs>
<polyline clip-path="url(#clip052)" style="stroke:#000000; stroke-linecap:round; stroke-linejoin:round; stroke-width:2; stroke-opacity:0.1; fill:none" points="335.627,1423.18 335.627,123.472 "/>
<polyline clip-path="url(#clip052)" style="stroke:#000000; stroke-linecap:round; stroke-linejoin:round; stroke-width:2; stroke-opacity:0.1; fill:none" points="727.302,1423.18 727.302,123.472 "/>
<polyline clip-path="url(#clip052)" style="stroke:#000000; stroke-linecap:round; stroke-linejoin:round; stroke-width:2; stroke-opacity:0.1; fill:none" points="1118.98,1423.18 1118.98,123.472 "/>
<polyline clip-path="url(#clip052)" style="stroke:#000000; stroke-linecap:round; stroke-linejoin:round; stroke-width:2; stroke-opacity:0.1; fill:none" points="1510.65,1423.18 1510.65,123.472 "/>
<polyline clip-path="url(#clip052)" style="stroke:#000000; stroke-linecap:round; stroke-linejoin:round; stroke-width:2; stroke-opacity:0.1; fill:none" points="1902.33,1423.18 1902.33,123.472 "/>
<polyline clip-path="url(#clip052)" style="stroke:#000000; stroke-linecap:round; stroke-linejoin:round; stroke-width:2; stroke-opacity:0.1; fill:none" points="2294,1423.18 2294,123.472 "/>
<polyline clip-path="url(#clip050)" style="stroke:#000000; stroke-linecap:round; stroke-linejoin:round; stroke-width:4; stroke-opacity:1; fill:none" points="276.876,1423.18 2352.76,1423.18 "/>
<polyline clip-path="url(#clip050)" style="stroke:#000000; stroke-linecap:round; stroke-linejoin:round; stroke-width:4; stroke-opacity:1; fill:none" points="335.627,1423.18 335.627,1404.28 "/>
<polyline clip-path="url(#clip050)" style="stroke:#000000; stroke-linecap:round; stroke-linejoin:round; stroke-width:4; stroke-opacity:1; fill:none" points="727.302,1423.18 727.302,1404.28 "/>
<polyline clip-path="url(#clip050)" style="stroke:#000000; stroke-linecap:round; stroke-linejoin:round; stroke-width:4; stroke-opacity:1; fill:none" points="1118.98,1423.18 1118.98,1404.28 "/>
<polyline clip-path="url(#clip050)" style="stroke:#000000; stroke-linecap:round; stroke-linejoin:round; stroke-width:4; stroke-opacity:1; fill:none" points="1510.65,1423.18 1510.65,1404.28 "/>
<polyline clip-path="url(#clip050)" style="stroke:#000000; stroke-linecap:round; stroke-linejoin:round; stroke-width:4; stroke-opacity:1; fill:none" points="1902.33,1423.18 1902.33,1404.28 "/>
<polyline clip-path="url(#clip050)" style="stroke:#000000; stroke-linecap:round; stroke-linejoin:round; stroke-width:4; stroke-opacity:1; fill:none" points="2294,1423.18 2294,1404.28 "/>
<path clip-path="url(#clip050)" d="M326.009 1481.64 L333.648 1481.64 L333.648 1455.28 L325.338 1456.95 L325.338 1452.69 L333.601 1451.02 L338.277 1451.02 L338.277 1481.64 L345.916 1481.64 L345.916 1485.58 L326.009 1485.58 L326.009 1481.64 Z" fill="#000000" fill-rule="nonzero" fill-opacity="1" /><path clip-path="url(#clip050)" d="M721.955 1481.64 L738.275 1481.64 L738.275 1485.58 L716.33 1485.58 L716.33 1481.64 Q718.992 1478.89 723.576 1474.26 Q728.182 1469.61 729.363 1468.27 Q731.608 1465.74 732.488 1464.01 Q733.39 1462.25 733.39 1460.56 Q733.39 1457.8 731.446 1456.07 Q729.525 1454.33 726.423 1454.33 Q724.224 1454.33 721.77 1455.09 Q719.339 1455.86 716.562 1457.41 L716.562 1452.69 Q719.386 1451.55 721.839 1450.97 Q724.293 1450.39 726.33 1450.39 Q731.701 1450.39 734.895 1453.08 Q738.089 1455.77 738.089 1460.26 Q738.089 1462.39 737.279 1464.31 Q736.492 1466.2 734.386 1468.8 Q733.807 1469.47 730.705 1472.69 Q727.603 1475.88 721.955 1481.64 Z" fill="#000000" fill-rule="nonzero" fill-opacity="1" /><path clip-path="url(#clip050)" d="M1123.23 1466.95 Q1126.58 1467.66 1128.46 1469.93 Q1130.36 1472.2 1130.36 1475.53 Q1130.36 1480.65 1126.84 1483.45 Q1123.32 1486.25 1116.84 1486.25 Q1114.66 1486.25 1112.35 1485.81 Q1110.05 1485.39 1107.6 1484.54 L1107.6 1480.02 Q1109.55 1481.16 1111.86 1481.74 Q1114.17 1482.32 1116.7 1482.32 Q1121.1 1482.32 1123.39 1480.58 Q1125.7 1478.84 1125.7 1475.53 Q1125.7 1472.48 1123.55 1470.77 Q1121.42 1469.03 1117.6 1469.03 L1113.57 1469.03 L1113.57 1465.19 L1117.79 1465.19 Q1121.23 1465.19 1123.06 1463.82 Q1124.89 1462.43 1124.89 1459.84 Q1124.89 1457.18 1122.99 1455.77 Q1121.12 1454.33 1117.6 1454.33 Q1115.68 1454.33 1113.48 1454.75 Q1111.28 1455.16 1108.64 1456.04 L1108.64 1451.88 Q1111.3 1451.14 1113.62 1450.77 Q1115.96 1450.39 1118.02 1450.39 Q1123.34 1450.39 1126.44 1452.83 Q1129.55 1455.23 1129.55 1459.35 Q1129.55 1462.22 1127.9 1464.21 Q1126.26 1466.18 1123.23 1466.95 Z" fill="#000000" fill-rule="nonzero" fill-opacity="1" /><path clip-path="url(#clip050)" d="M1513.66 1455.09 L1501.86 1473.54 L1513.66 1473.54 L1513.66 1455.09 M1512.44 1451.02 L1518.32 1451.02 L1518.32 1473.54 L1523.25 1473.54 L1523.25 1477.43 L1518.32 1477.43 L1518.32 1485.58 L1513.66 1485.58 L1513.66 1477.43 L1498.06 1477.43 L1498.06 1472.92 L1512.44 1451.02 Z" fill="#000000" fill-rule="nonzero" fill-opacity="1" /><path clip-path="url(#clip050)" d="M1892.61 1451.02 L1910.96 1451.02 L1910.96 1454.96 L1896.89 1454.96 L1896.89 1463.43 Q1897.91 1463.08 1898.93 1462.92 Q1899.94 1462.73 1900.96 1462.73 Q1906.75 1462.73 1910.13 1465.9 Q1913.51 1469.08 1913.51 1474.49 Q1913.51 1480.07 1910.04 1483.17 Q1906.57 1486.25 1900.25 1486.25 Q1898.07 1486.25 1895.8 1485.88 Q1893.56 1485.51 1891.15 1484.77 L1891.15 1480.07 Q1893.23 1481.2 1895.45 1481.76 Q1897.68 1482.32 1900.15 1482.32 Q1904.16 1482.32 1906.5 1480.21 Q1908.83 1478.1 1908.83 1474.49 Q1908.83 1470.88 1906.5 1468.77 Q1904.16 1466.67 1900.15 1466.67 Q1898.28 1466.67 1896.4 1467.08 Q1894.55 1467.5 1892.61 1468.38 L1892.61 1451.02 Z" fill="#000000" fill-rule="nonzero" fill-opacity="1" /><path clip-path="url(#clip050)" d="M2294.41 1466.44 Q2291.26 1466.44 2289.41 1468.59 Q2287.58 1470.74 2287.58 1474.49 Q2287.58 1478.22 2289.41 1480.39 Q2291.26 1482.55 2294.41 1482.55 Q2297.56 1482.55 2299.39 1480.39 Q2301.24 1478.22 2301.24 1474.49 Q2301.24 1470.74 2299.39 1468.59 Q2297.56 1466.44 2294.41 1466.44 M2303.69 1451.78 L2303.69 1456.04 Q2301.93 1455.21 2300.13 1454.77 Q2298.34 1454.33 2296.59 1454.33 Q2291.96 1454.33 2289.5 1457.45 Q2287.07 1460.58 2286.72 1466.9 Q2288.09 1464.89 2290.15 1463.82 Q2292.21 1462.73 2294.69 1462.73 Q2299.9 1462.73 2302.9 1465.9 Q2305.94 1469.05 2305.94 1474.49 Q2305.94 1479.82 2302.79 1483.03 Q2299.64 1486.25 2294.41 1486.25 Q2288.41 1486.25 2285.24 1481.67 Q2282.07 1477.06 2282.07 1468.33 Q2282.07 1460.14 2285.96 1455.28 Q2289.85 1450.39 2296.4 1450.39 Q2298.16 1450.39 2299.94 1450.74 Q2301.75 1451.09 2303.69 1451.78 Z" fill="#000000" fill-rule="nonzero" fill-opacity="1" /><path clip-path="url(#clip050)" d="M1299 1518.52 L1304.89 1518.52 L1304.89 1547.77 L1322.36 1532.4 L1329.84 1532.4 L1310.93 1549.07 L1330.63 1568.04 L1323 1568.04 L1304.89 1550.63 L1304.89 1568.04 L1299 1568.04 L1299 1518.52 Z" fill="#000000" fill-rule="nonzero" fill-opacity="1" /><polyline clip-path="url(#clip052)" style="stroke:#000000; stroke-linecap:round; stroke-linejoin:round; stroke-width:2; stroke-opacity:0.1; fill:none" points="276.876,1263.72 2352.76,1263.72 "/>
<polyline clip-path="url(#clip052)" style="stroke:#000000; stroke-linecap:round; stroke-linejoin:round; stroke-width:2; stroke-opacity:0.1; fill:none" points="276.876,762.72 2352.76,762.72 "/>
<polyline clip-path="url(#clip052)" style="stroke:#000000; stroke-linecap:round; stroke-linejoin:round; stroke-width:2; stroke-opacity:0.1; fill:none" points="276.876,261.723 2352.76,261.723 "/>
<polyline clip-path="url(#clip050)" style="stroke:#000000; stroke-linecap:round; stroke-linejoin:round; stroke-width:4; stroke-opacity:1; fill:none" points="276.876,1423.18 276.876,123.472 "/>
<polyline clip-path="url(#clip050)" style="stroke:#000000; stroke-linecap:round; stroke-linejoin:round; stroke-width:4; stroke-opacity:1; fill:none" points="276.876,1263.72 295.773,1263.72 "/>
<polyline clip-path="url(#clip050)" style="stroke:#000000; stroke-linecap:round; stroke-linejoin:round; stroke-width:4; stroke-opacity:1; fill:none" points="276.876,762.72 295.773,762.72 "/>
<polyline clip-path="url(#clip050)" style="stroke:#000000; stroke-linecap:round; stroke-linejoin:round; stroke-width:4; stroke-opacity:1; fill:none" points="276.876,261.723 295.773,261.723 "/>
<path clip-path="url(#clip050)" d="M114.931 1283.51 L122.57 1283.51 L122.57 1257.14 L114.26 1258.81 L114.26 1254.55 L122.524 1252.88 L127.2 1252.88 L127.2 1283.51 L134.839 1283.51 L134.839 1287.44 L114.931 1287.44 L114.931 1283.51 Z" fill="#000000" fill-rule="nonzero" fill-opacity="1" /><path clip-path="url(#clip050)" d="M154.283 1255.96 Q150.672 1255.96 148.843 1259.53 Q147.038 1263.07 147.038 1270.2 Q147.038 1277.3 148.843 1280.87 Q150.672 1284.41 154.283 1284.41 Q157.917 1284.41 159.723 1280.87 Q161.552 1277.3 161.552 1270.2 Q161.552 1263.07 159.723 1259.53 Q157.917 1255.96 154.283 1255.96 M154.283 1252.26 Q160.093 1252.26 163.149 1256.87 Q166.227 1261.45 166.227 1270.2 Q166.227 1278.93 163.149 1283.53 Q160.093 1288.11 154.283 1288.11 Q148.473 1288.11 145.394 1283.53 Q142.339 1278.93 142.339 1270.2 Q142.339 1261.45 145.394 1256.87 Q148.473 1252.26 154.283 1252.26 Z" fill="#000000" fill-rule="nonzero" fill-opacity="1" /><path clip-path="url(#clip050)" d="M166.227 1246.36 L190.339 1246.36 L190.339 1249.56 L166.227 1249.56 L166.227 1246.36 Z" fill="#000000" fill-rule="nonzero" fill-opacity="1" /><path clip-path="url(#clip050)" d="M199.197 1256.84 L205.404 1256.84 L205.404 1235.41 L198.652 1236.77 L198.652 1233.31 L205.366 1231.95 L209.166 1231.95 L209.166 1256.84 L215.372 1256.84 L215.372 1260.03 L199.197 1260.03 L199.197 1256.84 Z" fill="#000000" fill-rule="nonzero" fill-opacity="1" /><path clip-path="url(#clip050)" d="M231.171 1234.45 Q228.237 1234.45 226.751 1237.35 Q225.284 1240.23 225.284 1246.02 Q225.284 1251.8 226.751 1254.69 Q228.237 1257.57 231.171 1257.57 Q234.124 1257.57 235.591 1254.69 Q237.076 1251.8 237.076 1246.02 Q237.076 1240.23 235.591 1237.35 Q234.124 1234.45 231.171 1234.45 M231.171 1231.45 Q235.891 1231.45 238.374 1235.19 Q240.876 1238.91 240.876 1246.02 Q240.876 1253.11 238.374 1256.85 Q235.891 1260.58 231.171 1260.58 Q226.45 1260.58 223.949 1256.85 Q221.466 1253.11 221.466 1246.02 Q221.466 1238.91 223.949 1235.19 Q226.45 1231.45 231.171 1231.45 Z" fill="#000000" fill-rule="nonzero" fill-opacity="1" /><path clip-path="url(#clip050)" d="M140.247 782.512 L147.886 782.512 L147.886 756.147 L139.575 757.813 L139.575 753.554 L147.839 751.887 L152.515 751.887 L152.515 782.512 L160.154 782.512 L160.154 786.447 L140.247 786.447 L140.247 782.512 Z" fill="#000000" fill-rule="nonzero" fill-opacity="1" /><path clip-path="url(#clip050)" d="M179.598 754.966 Q175.987 754.966 174.159 758.531 Q172.353 762.072 172.353 769.202 Q172.353 776.308 174.159 779.873 Q175.987 783.415 179.598 783.415 Q183.233 783.415 185.038 779.873 Q186.867 776.308 186.867 769.202 Q186.867 762.072 185.038 758.531 Q183.233 754.966 179.598 754.966 M179.598 751.262 Q185.409 751.262 188.464 755.869 Q191.543 760.452 191.543 769.202 Q191.543 777.929 188.464 782.535 Q185.409 787.119 179.598 787.119 Q173.788 787.119 170.71 782.535 Q167.654 777.929 167.654 769.202 Q167.654 760.452 170.71 755.869 Q173.788 751.262 179.598 751.262 Z" fill="#000000" fill-rule="nonzero" fill-opacity="1" /><path clip-path="url(#clip050)" d="M191.543 745.364 L215.654 745.364 L215.654 748.561 L191.543 748.561 L191.543 745.364 Z" fill="#000000" fill-rule="nonzero" fill-opacity="1" /><path clip-path="url(#clip050)" d="M223.892 730.957 L238.807 730.957 L238.807 734.154 L227.372 734.154 L227.372 741.038 Q228.199 740.756 229.027 740.624 Q229.854 740.474 230.682 740.474 Q235.384 740.474 238.13 743.05 Q240.876 745.627 240.876 750.028 Q240.876 754.561 238.054 757.081 Q235.233 759.582 230.099 759.582 Q228.331 759.582 226.488 759.281 Q224.663 758.98 222.707 758.379 L222.707 754.561 Q224.4 755.482 226.205 755.934 Q228.011 756.385 230.023 756.385 Q233.277 756.385 235.177 754.674 Q237.076 752.962 237.076 750.028 Q237.076 747.094 235.177 745.382 Q233.277 743.671 230.023 743.671 Q228.5 743.671 226.977 744.01 Q225.472 744.348 223.892 745.063 L223.892 730.957 Z" fill="#000000" fill-rule="nonzero" fill-opacity="1" /><path clip-path="url(#clip050)" d="M170.17 281.516 L177.809 281.516 L177.809 255.15 L169.499 256.817 L169.499 252.558 L177.762 250.891 L182.438 250.891 L182.438 281.516 L190.077 281.516 L190.077 285.451 L170.17 285.451 L170.17 281.516 Z" fill="#000000" fill-rule="nonzero" fill-opacity="1" /><path clip-path="url(#clip050)" d="M209.522 253.97 Q205.91 253.97 204.082 257.534 Q202.276 261.076 202.276 268.206 Q202.276 275.312 204.082 278.877 Q205.91 282.419 209.522 282.419 Q213.156 282.419 214.961 278.877 Q216.79 275.312 216.79 268.206 Q216.79 261.076 214.961 257.534 Q213.156 253.97 209.522 253.97 M209.522 250.266 Q215.332 250.266 218.387 254.872 Q221.466 259.456 221.466 268.206 Q221.466 276.933 218.387 281.539 Q215.332 286.122 209.522 286.122 Q203.711 286.122 200.633 281.539 Q197.577 276.933 197.577 268.206 Q197.577 259.456 200.633 254.872 Q203.711 250.266 209.522 250.266 Z" fill="#000000" fill-rule="nonzero" fill-opacity="1" /><path clip-path="url(#clip050)" d="M231.171 232.462 Q228.237 232.462 226.751 235.358 Q225.284 238.236 225.284 244.029 Q225.284 249.803 226.751 252.699 Q228.237 255.577 231.171 255.577 Q234.124 255.577 235.591 252.699 Q237.076 249.803 237.076 244.029 Q237.076 238.236 235.591 235.358 Q234.124 232.462 231.171 232.462 M231.171 229.453 Q235.891 229.453 238.374 233.196 Q240.876 236.919 240.876 244.029 Q240.876 251.119 238.374 254.862 Q235.891 258.586 231.171 258.586 Q226.45 258.586 223.949 254.862 Q221.466 251.119 221.466 244.029 Q221.466 236.919 223.949 233.196 Q226.45 229.453 231.171 229.453 Z" fill="#000000" fill-rule="nonzero" fill-opacity="1" /><path clip-path="url(#clip050)" d="M32.4621 801.797 Q32.4621 806.507 36.1542 809.244 Q39.8145 811.982 46.212 811.982 Q52.6095 811.982 56.3017 809.276 Q59.9619 806.539 59.9619 801.797 Q59.9619 797.118 56.2698 794.381 Q52.5777 791.643 46.212 791.643 Q39.8781 791.643 36.186 794.381 Q32.4621 797.118 32.4621 801.797 M27.4968 801.797 Q27.4968 794.158 32.4621 789.797 Q37.4273 785.437 46.212 785.437 Q54.9649 785.437 59.9619 789.797 Q64.9272 794.158 64.9272 801.797 Q64.9272 809.467 59.9619 813.828 Q54.9649 818.156 46.212 818.156 Q37.4273 818.156 32.4621 813.828 Q27.4968 809.467 27.4968 801.797 Z" fill="#000000" fill-rule="nonzero" fill-opacity="1" /><path clip-path="url(#clip050)" d="M46.212 750.139 Q39.7508 750.139 36.0905 752.812 Q32.3984 755.454 32.3984 760.101 Q32.3984 764.748 36.0905 767.422 Q39.7508 770.064 46.212 770.064 Q52.6732 770.064 56.3653 767.422 Q60.0256 764.748 60.0256 760.101 Q60.0256 755.454 56.3653 752.812 Q52.6732 750.139 46.212 750.139 M33.7671 770.064 Q30.5842 768.218 29.0564 765.417 Q27.4968 762.584 27.4968 758.669 Q27.4968 752.176 32.6531 748.134 Q37.8093 744.06 46.212 744.06 Q54.6147 744.06 59.771 748.134 Q64.9272 752.176 64.9272 758.669 Q64.9272 762.584 63.3994 765.417 Q61.8398 768.218 58.657 770.064 L64.0042 770.064 L64.0042 775.952 L14.479 775.952 L14.479 770.064 L33.7671 770.064 Z" fill="#000000" fill-rule="nonzero" fill-opacity="1" /><path clip-path="url(#clip050)" d="M28.3562 734.352 L28.3562 728.495 L64.6407 728.495 Q71.452 728.495 74.5076 731.105 Q77.5631 733.684 77.5631 739.445 L77.5631 741.673 L72.5979 741.673 L72.5979 740.113 Q72.5979 736.771 71.0383 735.561 Q69.5105 734.352 64.6407 734.352 L28.3562 734.352 M14.479 734.352 L14.479 728.495 L21.895 728.495 L21.895 734.352 L14.479 734.352 Z" fill="#000000" fill-rule="nonzero" fill-opacity="1" /><path clip-path="url(#clip050)" d="M970.631 65.7705 L970.631 89.8329 L963.136 89.8329 L963.136 27.2059 L970.631 27.2059 L970.631 34.0924 Q972.98 30.0415 976.545 28.0971 Q980.15 26.1121 985.133 26.1121 Q993.397 26.1121 998.541 32.6746 Q1003.73 39.2371 1003.73 49.9314 Q1003.73 60.6258 998.541 67.1883 Q993.397 73.7508 985.133 73.7508 Q980.15 73.7508 976.545 71.8063 Q972.98 69.8214 970.631 65.7705 M995.989 49.9314 Q995.989 41.7081 992.587 37.0496 Q989.224 32.3505 983.31 32.3505 Q977.396 32.3505 973.993 37.0496 Q970.631 41.7081 970.631 49.9314 Q970.631 58.1548 973.993 62.8538 Q977.396 67.5124 983.31 67.5124 Q989.224 67.5124 992.587 62.8538 Q995.989 58.1548 995.989 49.9314 Z" fill="#000000" fill-rule="nonzero" fill-opacity="1" /><path clip-path="url(#clip050)" d="M1042.37 34.1734 Q1041.12 33.4443 1039.62 33.1202 Q1038.16 32.7556 1036.38 32.7556 Q1030.06 32.7556 1026.65 36.8875 Q1023.29 40.9789 1023.29 48.6757 L1023.29 72.576 L1015.8 72.576 L1015.8 27.2059 L1023.29 27.2059 L1023.29 34.2544 Q1025.64 30.1225 1029.41 28.1376 Q1033.18 26.1121 1038.56 26.1121 Q1039.33 26.1121 1040.27 26.2337 Q1041.2 26.3147 1042.33 26.5172 L1042.37 34.1734 Z" fill="#000000" fill-rule="nonzero" fill-opacity="1" /><path clip-path="url(#clip050)" d="M1065.95 32.4315 Q1059.95 32.4315 1056.47 37.1306 Q1052.99 41.7891 1052.99 49.9314 Q1052.99 58.0738 1056.43 62.7728 Q1059.91 67.4314 1065.95 67.4314 Q1071.9 67.4314 1075.39 62.7323 Q1078.87 58.0333 1078.87 49.9314 Q1078.87 41.8701 1075.39 37.1711 Q1071.9 32.4315 1065.95 32.4315 M1065.95 26.1121 Q1075.67 26.1121 1081.22 32.4315 Q1086.77 38.7509 1086.77 49.9314 Q1086.77 61.0714 1081.22 67.4314 Q1075.67 73.7508 1065.95 73.7508 Q1056.19 73.7508 1050.64 67.4314 Q1045.13 61.0714 1045.13 49.9314 Q1045.13 38.7509 1050.64 32.4315 Q1056.19 26.1121 1065.95 26.1121 Z" fill="#000000" fill-rule="nonzero" fill-opacity="1" /><path clip-path="url(#clip050)" d="M1131.69 49.9314 Q1131.69 41.7081 1128.29 37.0496 Q1124.93 32.3505 1119.02 32.3505 Q1113.1 32.3505 1109.7 37.0496 Q1106.34 41.7081 1106.34 49.9314 Q1106.34 58.1548 1109.7 62.8538 Q1113.1 67.5124 1119.02 67.5124 Q1124.93 67.5124 1128.29 62.8538 Q1131.69 58.1548 1131.69 49.9314 M1106.34 34.0924 Q1108.69 30.0415 1112.25 28.0971 Q1115.86 26.1121 1120.84 26.1121 Q1129.1 26.1121 1134.25 32.6746 Q1139.43 39.2371 1139.43 49.9314 Q1139.43 60.6258 1134.25 67.1883 Q1129.1 73.7508 1120.84 73.7508 Q1115.86 73.7508 1112.25 71.8063 Q1108.69 69.8214 1106.34 65.7705 L1106.34 72.576 L1098.84 72.576 L1098.84 9.54393 L1106.34 9.54393 L1106.34 34.0924 Z" fill="#000000" fill-rule="nonzero" fill-opacity="1" /><path clip-path="url(#clip050)" d="M1151.79 9.54393 L1159.24 9.54393 L1159.24 72.576 L1151.79 72.576 L1151.79 9.54393 Z" fill="#000000" fill-rule="nonzero" fill-opacity="1" /><path clip-path="url(#clip050)" d="M1213.64 48.0275 L1213.64 51.6733 L1179.37 51.6733 Q1179.86 59.3701 1183.99 63.421 Q1188.16 67.4314 1195.58 67.4314 Q1199.87 67.4314 1203.88 66.3781 Q1207.93 65.3249 1211.9 63.2184 L1211.9 70.267 Q1207.89 71.9684 1203.68 72.8596 Q1199.47 73.7508 1195.13 73.7508 Q1184.28 73.7508 1177.92 67.4314 Q1171.6 61.1119 1171.6 50.3365 Q1171.6 39.1965 1177.59 32.6746 Q1183.63 26.1121 1193.84 26.1121 Q1202.99 26.1121 1208.3 32.0264 Q1213.64 37.9003 1213.64 48.0275 M1206.19 45.84 Q1206.11 39.7232 1202.75 36.0774 Q1199.43 32.4315 1193.92 32.4315 Q1187.68 32.4315 1183.91 35.9558 Q1180.18 39.4801 1179.62 45.8805 L1206.19 45.84 M1187.52 6.22219 L1198.94 21.3726 L1192.74 21.3726 L1179.54 6.22219 L1187.52 6.22219 Z" fill="#000000" fill-rule="nonzero" fill-opacity="1" /><path clip-path="url(#clip050)" d="M1261.2 35.9153 Q1264 30.8922 1267.89 28.5022 Q1271.77 26.1121 1277.04 26.1121 Q1284.13 26.1121 1287.98 31.0947 Q1291.83 36.0368 1291.83 45.1919 L1291.83 72.576 L1284.33 72.576 L1284.33 45.4349 Q1284.33 38.913 1282.02 35.7533 Q1279.71 32.5936 1274.98 32.5936 Q1269.18 32.5936 1265.82 36.4419 Q1262.46 40.2903 1262.46 46.9338 L1262.46 72.576 L1254.96 72.576 L1254.96 45.4349 Q1254.96 38.8725 1252.65 35.7533 Q1250.35 32.5936 1245.52 32.5936 Q1239.81 32.5936 1236.45 36.4824 Q1233.09 40.3308 1233.09 46.9338 L1233.09 72.576 L1225.59 72.576 L1225.59 27.2059 L1233.09 27.2059 L1233.09 34.2544 Q1235.64 30.082 1239.21 28.0971 Q1242.77 26.1121 1247.67 26.1121 Q1252.61 26.1121 1256.06 28.6237 Q1259.54 31.1352 1261.2 35.9153 Z" fill="#000000" fill-rule="nonzero" fill-opacity="1" /><path clip-path="url(#clip050)" d="M1345.5 48.0275 L1345.5 51.6733 L1311.23 51.6733 Q1311.72 59.3701 1315.85 63.421 Q1320.02 67.4314 1327.43 67.4314 Q1331.73 67.4314 1335.74 66.3781 Q1339.79 65.3249 1343.76 63.2184 L1343.76 70.267 Q1339.75 71.9684 1335.54 72.8596 Q1331.32 73.7508 1326.99 73.7508 Q1316.13 73.7508 1309.77 67.4314 Q1303.45 61.1119 1303.45 50.3365 Q1303.45 39.1965 1309.45 32.6746 Q1315.48 26.1121 1325.69 26.1121 Q1334.85 26.1121 1340.15 32.0264 Q1345.5 37.9003 1345.5 48.0275 M1338.05 45.84 Q1337.97 39.7232 1334.6 36.0774 Q1331.28 32.4315 1325.77 32.4315 Q1319.54 32.4315 1315.77 35.9558 Q1312.04 39.4801 1311.47 45.8805 L1338.05 45.84 Z" fill="#000000" fill-rule="nonzero" fill-opacity="1" /><path clip-path="url(#clip050)" d="M1386.01 62.2867 L1394.56 62.2867 L1394.56 72.576 L1386.01 72.576 L1386.01 62.2867 M1386.01 29.6769 L1394.56 29.6769 L1394.56 39.9662 L1386.01 39.9662 L1386.01 29.6769 Z" fill="#000000" fill-rule="nonzero" fill-opacity="1" /><path clip-path="url(#clip050)" d="M1445.8 14.324 L1445.8 27.2059 L1461.15 27.2059 L1461.15 32.9987 L1445.8 32.9987 L1445.8 57.6282 Q1445.8 63.1779 1447.3 64.7578 Q1448.84 66.3376 1453.5 66.3376 L1461.15 66.3376 L1461.15 72.576 L1453.5 72.576 Q1444.87 72.576 1441.59 69.3758 Q1438.31 66.1351 1438.31 57.6282 L1438.31 32.9987 L1432.84 32.9987 L1432.84 27.2059 L1438.31 27.2059 L1438.31 14.324 L1445.8 14.324 Z" fill="#000000" fill-rule="nonzero" fill-opacity="1" /><path clip-path="url(#clip050)" d="M1478.17 65.7705 L1478.17 89.8329 L1470.67 89.8329 L1470.67 27.2059 L1478.17 27.2059 L1478.17 34.0924 Q1480.52 30.0415 1484.08 28.0971 Q1487.69 26.1121 1492.67 26.1121 Q1500.93 26.1121 1506.08 32.6746 Q1511.26 39.2371 1511.26 49.9314 Q1511.26 60.6258 1506.08 67.1883 Q1500.93 73.7508 1492.67 73.7508 Q1487.69 73.7508 1484.08 71.8063 Q1480.52 69.8214 1478.17 65.7705 M1503.53 49.9314 Q1503.53 41.7081 1500.12 37.0496 Q1496.76 32.3505 1490.85 32.3505 Q1484.93 32.3505 1481.53 37.0496 Q1478.17 41.7081 1478.17 49.9314 Q1478.17 58.1548 1481.53 62.8538 Q1484.93 67.5124 1490.85 67.5124 Q1496.76 67.5124 1500.12 62.8538 Q1503.53 58.1548 1503.53 49.9314 Z" fill="#000000" fill-rule="nonzero" fill-opacity="1" /><path clip-path="url(#clip050)" d="M1549.46 39.9662 Q1555.34 41.222 1558.62 45.1919 Q1561.94 49.1618 1561.94 54.9951 Q1561.94 63.9476 1555.78 68.8492 Q1549.63 73.7508 1538.28 73.7508 Q1534.48 73.7508 1530.43 72.9811 Q1526.41 72.2519 1522.12 70.7531 L1522.12 62.8538 Q1525.52 64.8388 1529.57 65.8515 Q1533.63 66.8642 1538.04 66.8642 Q1545.74 66.8642 1549.75 63.826 Q1553.8 60.7879 1553.8 54.9951 Q1553.8 49.6479 1550.03 46.6502 Q1546.3 43.612 1539.62 43.612 L1532.57 43.612 L1532.57 36.8875 L1539.94 36.8875 Q1545.98 36.8875 1549.18 34.4975 Q1552.38 32.067 1552.38 27.5299 Q1552.38 22.8714 1549.06 20.4004 Q1545.78 17.8888 1539.62 17.8888 Q1536.26 17.8888 1532.41 18.618 Q1528.56 19.3471 1523.94 20.8865 L1523.94 13.5948 Q1528.6 12.2985 1532.65 11.6504 Q1536.74 11.0023 1540.35 11.0023 Q1549.67 11.0023 1555.1 15.2557 Q1560.52 19.4686 1560.52 26.6793 Q1560.52 31.7024 1557.65 35.1862 Q1554.77 38.6294 1549.46 39.9662 Z" fill="#000000" fill-rule="nonzero" fill-opacity="1" /><path clip-path="url(#clip050)" d="M1578.87 65.6895 L1592.24 65.6895 L1592.24 19.5497 L1577.7 22.4663 L1577.7 15.0127 L1592.16 12.096 L1600.34 12.096 L1600.34 65.6895 L1613.71 65.6895 L1613.71 72.576 L1578.87 72.576 L1578.87 65.6895 Z" fill="#000000" fill-rule="nonzero" fill-opacity="1" /><path clip-path="url(#clip050)" d="M1631.66 65.6895 L1645.03 65.6895 L1645.03 19.5497 L1630.48 22.4663 L1630.48 15.0127 L1644.94 12.096 L1653.13 12.096 L1653.13 65.6895 L1666.49 65.6895 L1666.49 72.576 L1631.66 72.576 L1631.66 65.6895 Z" fill="#000000" fill-rule="nonzero" fill-opacity="1" /><polyline clip-path="url(#clip052)" style="stroke:#009af9; stroke-linecap:round; stroke-linejoin:round; stroke-width:4; stroke-opacity:1; fill:none" points="335.627,160.256 727.302,170.948 1118.98,266.333 1510.65,427.995 1902.33,747.796 2294,1386.4 "/>
<polyline clip-path="url(#clip052)" style="stroke:#e26f46; stroke-linecap:round; stroke-linejoin:round; stroke-width:4; stroke-opacity:1; fill:none" points="335.627,160.256 727.302,170.948 1118.98,266.333 1510.65,427.995 1902.33,747.796 2294,1386.4 "/>
<path clip-path="url(#clip050)" d="M1504.4 322.316 L2283.56 322.316 L2283.56 166.796 L1504.4 166.796  Z" fill="#ffffff" fill-rule="evenodd" fill-opacity="1"/>
<polyline clip-path="url(#clip050)" style="stroke:#000000; stroke-linecap:round; stroke-linejoin:round; stroke-width:4; stroke-opacity:1; fill:none" points="1504.4,322.316 2283.56,322.316 2283.56,166.796 1504.4,166.796 1504.4,322.316 "/>
<polyline clip-path="url(#clip050)" style="stroke:#009af9; stroke-linecap:round; stroke-linejoin:round; stroke-width:4; stroke-opacity:1; fill:none" points="1527.47,218.636 1665.86,218.636 "/>
<path clip-path="url(#clip050)" d="M1688.92 201.356 L1693.6 201.356 L1693.6 231.981 L1710.43 231.981 L1710.43 235.916 L1688.92 235.916 L1688.92 201.356 Z" fill="#000000" fill-rule="nonzero" fill-opacity="1" /><path clip-path="url(#clip050)" d="M1715.34 201.356 L1722.3 201.356 L1731.12 224.874 L1739.99 201.356 L1746.96 201.356 L1746.96 235.916 L1742.4 235.916 L1742.4 205.569 L1733.48 229.272 L1728.78 229.272 L1719.87 205.569 L1719.87 235.916 L1715.34 235.916 L1715.34 201.356 Z" fill="#000000" fill-rule="nonzero" fill-opacity="1" /><path clip-path="url(#clip050)" d="M1775.75 243.786 L1775.75 247.096 L1751.12 247.096 L1751.12 243.786 L1775.75 243.786 Z" fill="#000000" fill-rule="nonzero" fill-opacity="1" /><path clip-path="url(#clip050)" d="M1791.49 205.962 L1785.15 223.161 L1797.86 223.161 L1791.49 205.962 M1788.85 201.356 L1794.15 201.356 L1807.33 235.916 L1802.46 235.916 L1799.32 227.05 L1783.74 227.05 L1780.59 235.916 L1775.66 235.916 L1788.85 201.356 Z" fill="#000000" fill-rule="nonzero" fill-opacity="1" /><path clip-path="url(#clip050)" d="M1833.74 220.268 L1833.74 235.916 L1829.48 235.916 L1829.48 220.407 Q1829.48 216.726 1828.04 214.897 Q1826.61 213.069 1823.74 213.069 Q1820.29 213.069 1818.3 215.268 Q1816.31 217.467 1816.31 221.263 L1816.31 235.916 L1812.02 235.916 L1812.02 209.99 L1816.31 209.99 L1816.31 214.018 Q1817.83 211.68 1819.9 210.522 Q1821.98 209.365 1824.69 209.365 Q1829.15 209.365 1831.45 212.143 Q1833.74 214.897 1833.74 220.268 Z" fill="#000000" fill-rule="nonzero" fill-opacity="1" /><path clip-path="url(#clip050)" d="M1859.29 213.925 L1859.29 199.897 L1863.55 199.897 L1863.55 235.916 L1859.29 235.916 L1859.29 232.027 Q1857.95 234.342 1855.89 235.476 Q1853.85 236.587 1850.98 236.587 Q1846.28 236.587 1843.32 232.837 Q1840.38 229.087 1840.38 222.976 Q1840.38 216.865 1843.32 213.115 Q1846.28 209.365 1850.98 209.365 Q1853.85 209.365 1855.89 210.499 Q1857.95 211.61 1859.29 213.925 M1844.78 222.976 Q1844.78 227.675 1846.7 230.36 Q1848.64 233.022 1852.02 233.022 Q1855.4 233.022 1857.35 230.36 Q1859.29 227.675 1859.29 222.976 Q1859.29 218.277 1857.35 215.615 Q1855.4 212.93 1852.02 212.93 Q1848.64 212.93 1846.7 215.615 Q1844.78 218.277 1844.78 222.976 Z" fill="#000000" fill-rule="nonzero" fill-opacity="1" /><path clip-path="url(#clip050)" d="M1887.35 213.971 Q1886.63 213.555 1885.77 213.37 Q1884.94 213.161 1883.92 213.161 Q1880.31 213.161 1878.37 215.522 Q1876.45 217.86 1876.45 222.258 L1876.45 235.916 L1872.16 235.916 L1872.16 209.99 L1876.45 209.99 L1876.45 214.018 Q1877.79 211.657 1879.94 210.522 Q1882.09 209.365 1885.17 209.365 Q1885.61 209.365 1886.14 209.434 Q1886.68 209.481 1887.33 209.596 L1887.35 213.971 Z" fill="#000000" fill-rule="nonzero" fill-opacity="1" /><path clip-path="url(#clip050)" d="M1912.95 221.888 L1912.95 223.971 L1893.37 223.971 Q1893.64 228.369 1896.01 230.684 Q1898.39 232.976 1902.63 232.976 Q1905.08 232.976 1907.37 232.374 Q1909.69 231.772 1911.95 230.569 L1911.95 234.596 Q1909.66 235.568 1907.26 236.078 Q1904.85 236.587 1902.37 236.587 Q1896.17 236.587 1892.53 232.976 Q1888.92 229.365 1888.92 223.207 Q1888.92 216.842 1892.35 213.115 Q1895.8 209.365 1901.63 209.365 Q1906.86 209.365 1909.89 212.745 Q1912.95 216.101 1912.95 221.888 M1908.69 220.638 Q1908.64 217.143 1906.72 215.059 Q1904.83 212.976 1901.68 212.976 Q1898.11 212.976 1895.96 214.99 Q1893.83 217.004 1893.51 220.661 L1908.69 220.638 Z" fill="#000000" fill-rule="nonzero" fill-opacity="1" /><path clip-path="url(#clip050)" d="M1919.94 209.99 L1924.2 209.99 L1924.2 235.916 L1919.94 235.916 L1919.94 209.99 M1919.94 199.897 L1924.2 199.897 L1924.2 205.291 L1919.94 205.291 L1919.94 199.897 Z" fill="#000000" fill-rule="nonzero" fill-opacity="1" /><path clip-path="url(#clip050)" d="M1952.81 243.786 L1952.81 247.096 L1928.18 247.096 L1928.18 243.786 L1952.81 243.786 Z" fill="#000000" fill-rule="nonzero" fill-opacity="1" /><path clip-path="url(#clip050)" d="M1968.6 222.883 Q1963.44 222.883 1961.45 224.064 Q1959.45 225.244 1959.45 228.092 Q1959.45 230.36 1960.94 231.703 Q1962.44 233.022 1965.01 233.022 Q1968.55 233.022 1970.68 230.522 Q1972.83 227.999 1972.83 223.832 L1972.83 222.883 L1968.6 222.883 M1977.09 221.124 L1977.09 235.916 L1972.83 235.916 L1972.83 231.981 Q1971.38 234.342 1969.2 235.476 Q1967.02 236.587 1963.88 236.587 Q1959.89 236.587 1957.53 234.365 Q1955.2 232.119 1955.2 228.369 Q1955.2 223.994 1958.11 221.772 Q1961.05 219.55 1966.86 219.55 L1972.83 219.55 L1972.83 219.133 Q1972.83 216.194 1970.89 214.596 Q1968.97 212.976 1965.47 212.976 Q1963.25 212.976 1961.14 213.508 Q1959.04 214.041 1957.09 215.106 L1957.09 211.17 Q1959.43 210.268 1961.63 209.828 Q1963.83 209.365 1965.91 209.365 Q1971.54 209.365 1974.32 212.282 Q1977.09 215.198 1977.09 221.124 Z" fill="#000000" fill-rule="nonzero" fill-opacity="1" /><path clip-path="url(#clip050)" d="M1985.87 199.897 L1990.13 199.897 L1990.13 235.916 L1985.87 235.916 L1985.87 199.897 Z" fill="#000000" fill-rule="nonzero" fill-opacity="1" /><path clip-path="url(#clip050)" d="M2003.25 202.629 L2003.25 209.99 L2012.02 209.99 L2012.02 213.3 L2003.25 213.3 L2003.25 227.374 Q2003.25 230.545 2004.11 231.448 Q2004.99 232.351 2007.65 232.351 L2012.02 232.351 L2012.02 235.916 L2007.65 235.916 Q2002.72 235.916 2000.84 234.087 Q1998.97 232.235 1998.97 227.374 L1998.97 213.3 L1995.84 213.3 L1995.84 209.99 L1998.97 209.99 L1998.97 202.629 L2003.25 202.629 Z" fill="#000000" fill-rule="nonzero" fill-opacity="1" /><polyline clip-path="url(#clip050)" style="stroke:#e26f46; stroke-linecap:round; stroke-linejoin:round; stroke-width:4; stroke-opacity:1; fill:none" points="1527.47,270.476 1665.86,270.476 "/>
<path clip-path="url(#clip050)" d="M1688.92 253.196 L1693.6 253.196 L1693.6 283.821 L1710.43 283.821 L1710.43 287.756 L1688.92 287.756 L1688.92 253.196 Z" fill="#000000" fill-rule="nonzero" fill-opacity="1" /><path clip-path="url(#clip050)" d="M1715.34 253.196 L1722.3 253.196 L1731.12 276.714 L1739.99 253.196 L1746.96 253.196 L1746.96 287.756 L1742.4 287.756 L1742.4 257.409 L1733.48 281.112 L1728.78 281.112 L1719.87 257.409 L1719.87 287.756 L1715.34 287.756 L1715.34 253.196 Z" fill="#000000" fill-rule="nonzero" fill-opacity="1" /><path clip-path="url(#clip050)" d="M1775.75 295.626 L1775.75 298.936 L1751.12 298.936 L1751.12 295.626 L1775.75 295.626 Z" fill="#000000" fill-rule="nonzero" fill-opacity="1" /><path clip-path="url(#clip050)" d="M1791.49 257.802 L1785.15 275.001 L1797.86 275.001 L1791.49 257.802 M1788.85 253.196 L1794.15 253.196 L1807.33 287.756 L1802.46 287.756 L1799.32 278.89 L1783.74 278.89 L1780.59 287.756 L1775.66 287.756 L1788.85 253.196 Z" fill="#000000" fill-rule="nonzero" fill-opacity="1" /><path clip-path="url(#clip050)" d="M1833.74 272.108 L1833.74 287.756 L1829.48 287.756 L1829.48 272.247 Q1829.48 268.566 1828.04 266.737 Q1826.61 264.909 1823.74 264.909 Q1820.29 264.909 1818.3 267.108 Q1816.31 269.307 1816.31 273.103 L1816.31 287.756 L1812.02 287.756 L1812.02 261.83 L1816.31 261.83 L1816.31 265.858 Q1817.83 263.52 1819.9 262.362 Q1821.98 261.205 1824.69 261.205 Q1829.15 261.205 1831.45 263.983 Q1833.74 266.737 1833.74 272.108 Z" fill="#000000" fill-rule="nonzero" fill-opacity="1" /><path clip-path="url(#clip050)" d="M1859.29 265.765 L1859.29 251.737 L1863.55 251.737 L1863.55 287.756 L1859.29 287.756 L1859.29 283.867 Q1857.95 286.182 1855.89 287.316 Q1853.85 288.427 1850.98 288.427 Q1846.28 288.427 1843.32 284.677 Q1840.38 280.927 1840.38 274.816 Q1840.38 268.705 1843.32 264.955 Q1846.28 261.205 1850.98 261.205 Q1853.85 261.205 1855.89 262.339 Q1857.95 263.45 1859.29 265.765 M1844.78 274.816 Q1844.78 279.515 1846.7 282.2 Q1848.64 284.862 1852.02 284.862 Q1855.4 284.862 1857.35 282.2 Q1859.29 279.515 1859.29 274.816 Q1859.29 270.117 1857.35 267.455 Q1855.4 264.77 1852.02 264.77 Q1848.64 264.77 1846.7 267.455 Q1844.78 270.117 1844.78 274.816 Z" fill="#000000" fill-rule="nonzero" fill-opacity="1" /><path clip-path="url(#clip050)" d="M1887.35 265.811 Q1886.63 265.395 1885.77 265.21 Q1884.94 265.001 1883.92 265.001 Q1880.31 265.001 1878.37 267.362 Q1876.45 269.7 1876.45 274.098 L1876.45 287.756 L1872.16 287.756 L1872.16 261.83 L1876.45 261.83 L1876.45 265.858 Q1877.79 263.497 1879.94 262.362 Q1882.09 261.205 1885.17 261.205 Q1885.61 261.205 1886.14 261.274 Q1886.68 261.321 1887.33 261.436 L1887.35 265.811 Z" fill="#000000" fill-rule="nonzero" fill-opacity="1" /><path clip-path="url(#clip050)" d="M1912.95 273.728 L1912.95 275.811 L1893.37 275.811 Q1893.64 280.209 1896.01 282.524 Q1898.39 284.816 1902.63 284.816 Q1905.08 284.816 1907.37 284.214 Q1909.69 283.612 1911.95 282.409 L1911.95 286.436 Q1909.66 287.408 1907.26 287.918 Q1904.85 288.427 1902.37 288.427 Q1896.17 288.427 1892.53 284.816 Q1888.92 281.205 1888.92 275.047 Q1888.92 268.682 1892.35 264.955 Q1895.8 261.205 1901.63 261.205 Q1906.86 261.205 1909.89 264.585 Q1912.95 267.941 1912.95 273.728 M1908.69 272.478 Q1908.64 268.983 1906.72 266.899 Q1904.83 264.816 1901.68 264.816 Q1898.11 264.816 1895.96 266.83 Q1893.83 268.844 1893.51 272.501 L1908.69 272.478 Z" fill="#000000" fill-rule="nonzero" fill-opacity="1" /><path clip-path="url(#clip050)" d="M1919.94 261.83 L1924.2 261.83 L1924.2 287.756 L1919.94 287.756 L1919.94 261.83 M1919.94 251.737 L1924.2 251.737 L1924.2 257.131 L1919.94 257.131 L1919.94 251.737 Z" fill="#000000" fill-rule="nonzero" fill-opacity="1" /><path clip-path="url(#clip050)" d="M1952.81 295.626 L1952.81 298.936 L1928.18 298.936 L1928.18 295.626 L1952.81 295.626 Z" fill="#000000" fill-rule="nonzero" fill-opacity="1" /><path clip-path="url(#clip050)" d="M1968.6 274.723 Q1963.44 274.723 1961.45 275.904 Q1959.45 277.084 1959.45 279.932 Q1959.45 282.2 1960.94 283.543 Q1962.44 284.862 1965.01 284.862 Q1968.55 284.862 1970.68 282.362 Q1972.83 279.839 1972.83 275.672 L1972.83 274.723 L1968.6 274.723 M1977.09 272.964 L1977.09 287.756 L1972.83 287.756 L1972.83 283.821 Q1971.38 286.182 1969.2 287.316 Q1967.02 288.427 1963.88 288.427 Q1959.89 288.427 1957.53 286.205 Q1955.2 283.959 1955.2 280.209 Q1955.2 275.834 1958.11 273.612 Q1961.05 271.39 1966.86 271.39 L1972.83 271.39 L1972.83 270.973 Q1972.83 268.034 1970.89 266.436 Q1968.97 264.816 1965.47 264.816 Q1963.25 264.816 1961.14 265.348 Q1959.04 265.881 1957.09 266.946 L1957.09 263.01 Q1959.43 262.108 1961.63 261.668 Q1963.83 261.205 1965.91 261.205 Q1971.54 261.205 1974.32 264.122 Q1977.09 267.038 1977.09 272.964 Z" fill="#000000" fill-rule="nonzero" fill-opacity="1" /><path clip-path="url(#clip050)" d="M1985.87 251.737 L1990.13 251.737 L1990.13 287.756 L1985.87 287.756 L1985.87 251.737 Z" fill="#000000" fill-rule="nonzero" fill-opacity="1" /><path clip-path="url(#clip050)" d="M2003.25 254.469 L2003.25 261.83 L2012.02 261.83 L2012.02 265.14 L2003.25 265.14 L2003.25 279.214 Q2003.25 282.385 2004.11 283.288 Q2004.99 284.191 2007.65 284.191 L2012.02 284.191 L2012.02 287.756 L2007.65 287.756 Q2002.72 287.756 2000.84 285.927 Q1998.97 284.075 1998.97 279.214 L1998.97 265.14 L1995.84 265.14 L1995.84 261.83 L1998.97 261.83 L1998.97 254.469 L2003.25 254.469 Z" fill="#000000" fill-rule="nonzero" fill-opacity="1" /><path clip-path="url(#clip050)" d="M2037.32 295.626 L2037.32 298.936 L2012.69 298.936 L2012.69 295.626 L2037.32 295.626 Z" fill="#000000" fill-rule="nonzero" fill-opacity="1" /><path clip-path="url(#clip050)" d="M2043.88 274.816 Q2043.88 279.515 2045.8 282.2 Q2047.74 284.862 2051.12 284.862 Q2054.5 284.862 2056.44 282.2 Q2058.39 279.515 2058.39 274.816 Q2058.39 270.117 2056.44 267.455 Q2054.5 264.77 2051.12 264.77 Q2047.74 264.77 2045.8 267.455 Q2043.88 270.117 2043.88 274.816 M2058.39 283.867 Q2057.05 286.182 2054.99 287.316 Q2052.95 288.427 2050.08 288.427 Q2045.38 288.427 2042.42 284.677 Q2039.48 280.927 2039.48 274.816 Q2039.48 268.705 2042.42 264.955 Q2045.38 261.205 2050.08 261.205 Q2052.95 261.205 2054.99 262.339 Q2057.05 263.45 2058.39 265.765 L2058.39 261.83 L2062.65 261.83 L2062.65 297.617 L2058.39 297.617 L2058.39 283.867 Z" fill="#000000" fill-rule="nonzero" fill-opacity="1" /><path clip-path="url(#clip050)" d="M2086.44 265.811 Q2085.73 265.395 2084.87 265.21 Q2084.04 265.001 2083.02 265.001 Q2079.41 265.001 2077.46 267.362 Q2075.54 269.7 2075.54 274.098 L2075.54 287.756 L2071.26 287.756 L2071.26 261.83 L2075.54 261.83 L2075.54 265.858 Q2076.88 263.497 2079.04 262.362 Q2081.19 261.205 2084.27 261.205 Q2084.71 261.205 2085.24 261.274 Q2085.77 261.321 2086.42 261.436 L2086.44 265.811 Z" fill="#000000" fill-rule="nonzero" fill-opacity="1" /><path clip-path="url(#clip050)" d="M2110.26 266.807 Q2111.86 263.936 2114.08 262.571 Q2116.31 261.205 2119.31 261.205 Q2123.37 261.205 2125.56 264.052 Q2127.76 266.876 2127.76 272.108 L2127.76 287.756 L2123.48 287.756 L2123.48 272.247 Q2123.48 268.52 2122.16 266.714 Q2120.84 264.909 2118.13 264.909 Q2114.82 264.909 2112.9 267.108 Q2110.98 269.307 2110.98 273.103 L2110.98 287.756 L2106.7 287.756 L2106.7 272.247 Q2106.7 268.497 2105.38 266.714 Q2104.06 264.909 2101.31 264.909 Q2098.04 264.909 2096.12 267.131 Q2094.2 269.33 2094.2 273.103 L2094.2 287.756 L2089.92 287.756 L2089.92 261.83 L2094.2 261.83 L2094.2 265.858 Q2095.66 263.473 2097.69 262.339 Q2099.73 261.205 2102.53 261.205 Q2105.36 261.205 2107.32 262.64 Q2109.31 264.075 2110.26 266.807 Z" fill="#000000" fill-rule="nonzero" fill-opacity="1" /><path clip-path="url(#clip050)" d="M2135.82 277.524 L2135.82 261.83 L2140.08 261.83 L2140.08 277.362 Q2140.08 281.043 2141.51 282.895 Q2142.95 284.723 2145.82 284.723 Q2149.27 284.723 2151.26 282.524 Q2153.27 280.325 2153.27 276.529 L2153.27 261.83 L2157.53 261.83 L2157.53 287.756 L2153.27 287.756 L2153.27 283.774 Q2151.72 286.135 2149.66 287.293 Q2147.62 288.427 2144.92 288.427 Q2140.45 288.427 2138.13 285.649 Q2135.82 282.871 2135.82 277.524 M2146.54 261.205 L2146.54 261.205 Z" fill="#000000" fill-rule="nonzero" fill-opacity="1" /><path clip-path="url(#clip050)" d="M2186.49 266.807 Q2188.09 263.936 2190.31 262.571 Q2192.53 261.205 2195.54 261.205 Q2199.59 261.205 2201.79 264.052 Q2203.99 266.876 2203.99 272.108 L2203.99 287.756 L2199.71 287.756 L2199.71 272.247 Q2199.71 268.52 2198.39 266.714 Q2197.07 264.909 2194.36 264.909 Q2191.05 264.909 2189.13 267.108 Q2187.21 269.307 2187.21 273.103 L2187.21 287.756 L2182.93 287.756 L2182.93 272.247 Q2182.93 268.497 2181.61 266.714 Q2180.29 264.909 2177.53 264.909 Q2174.27 264.909 2172.35 267.131 Q2170.43 269.33 2170.43 273.103 L2170.43 287.756 L2166.14 287.756 L2166.14 261.83 L2170.43 261.83 L2170.43 265.858 Q2171.88 263.473 2173.92 262.339 Q2175.96 261.205 2178.76 261.205 Q2181.58 261.205 2183.55 262.64 Q2185.54 264.075 2186.49 266.807 Z" fill="#000000" fill-rule="nonzero" fill-opacity="1" /><path clip-path="url(#clip050)" d="M2216.61 283.867 L2216.61 297.617 L2212.32 297.617 L2212.32 261.83 L2216.61 261.83 L2216.61 265.765 Q2217.95 263.45 2219.99 262.339 Q2222.05 261.205 2224.89 261.205 Q2229.62 261.205 2232.55 264.955 Q2235.52 268.705 2235.52 274.816 Q2235.52 280.927 2232.55 284.677 Q2229.62 288.427 2224.89 288.427 Q2222.05 288.427 2219.99 287.316 Q2217.95 286.182 2216.61 283.867 M2231.1 274.816 Q2231.1 270.117 2229.15 267.455 Q2227.23 264.77 2223.85 264.77 Q2220.47 264.77 2218.53 267.455 Q2216.61 270.117 2216.61 274.816 Q2216.61 279.515 2218.53 282.2 Q2220.47 284.862 2223.85 284.862 Q2227.23 284.862 2229.15 282.2 Q2231.1 279.515 2231.1 274.816 Z" fill="#000000" fill-rule="nonzero" fill-opacity="1" /><path clip-path="url(#clip050)" d="M2259.11 262.594 L2259.11 266.622 Q2257.3 265.696 2255.36 265.233 Q2253.41 264.77 2251.33 264.77 Q2248.16 264.77 2246.56 265.742 Q2244.99 266.714 2244.99 268.659 Q2244.99 270.14 2246.12 270.997 Q2247.25 271.83 2250.68 272.594 L2252.14 272.918 Q2256.68 273.89 2258.57 275.672 Q2260.49 277.432 2260.49 280.603 Q2260.49 284.214 2257.62 286.321 Q2254.78 288.427 2249.78 288.427 Q2247.69 288.427 2245.43 288.01 Q2243.18 287.617 2240.68 286.807 L2240.68 282.409 Q2243.04 283.635 2245.33 284.26 Q2247.62 284.862 2249.87 284.862 Q2252.88 284.862 2254.5 283.844 Q2256.12 282.802 2256.12 280.927 Q2256.12 279.191 2254.94 278.265 Q2253.78 277.339 2249.82 276.483 L2248.34 276.135 Q2244.38 275.302 2242.62 273.589 Q2240.87 271.853 2240.87 268.844 Q2240.87 265.186 2243.46 263.196 Q2246.05 261.205 2250.82 261.205 Q2253.18 261.205 2255.26 261.552 Q2257.35 261.899 2259.11 262.594 Z" fill="#000000" fill-rule="nonzero" fill-opacity="1" /></svg>
