<?xml version="1.0" encoding="utf-8"?>
<svg xmlns="http://www.w3.org/2000/svg" xmlns:xlink="http://www.w3.org/1999/xlink" width="600" height="400" viewBox="0 0 2400 1600">
<defs>
  <clipPath id="clip370">
    <rect x="0" y="0" width="2400" height="1600"/>
  </clipPath>
</defs>
<path clip-path="url(#clip370)" d="M0 1600 L2400 1600 L2400 0 L0 0  Z" fill="#ffffff" fill-rule="evenodd" fill-opacity="1"/>
<defs>
  <clipPath id="clip371">
    <rect x="480" y="0" width="1681" height="1600"/>
  </clipPath>
</defs>
<path clip-path="url(#clip370)" d="M313.626 1423.18 L2352.76 1423.18 L2352.76 123.472 L313.626 123.472  Z" fill="#ffffff" fill-rule="evenodd" fill-opacity="1"/>
<defs>
  <clipPath id="clip372">
    <rect x="313" y="123" width="2040" height="1301"/>
  </clipPath>
</defs>
<polyline clip-path="url(#clip372)" style="stroke:#000000; stroke-linecap:round; stroke-linejoin:round; stroke-width:2; stroke-opacity:0.1; fill:none" points="367.497,1423.18 367.497,123.472 "/>
<polyline clip-path="url(#clip372)" style="stroke:#000000; stroke-linecap:round; stroke-linejoin:round; stroke-width:2; stroke-opacity:0.1; fill:none" points="751.471,1423.18 751.471,123.472 "/>
<polyline clip-path="url(#clip372)" style="stroke:#000000; stroke-linecap:round; stroke-linejoin:round; stroke-width:2; stroke-opacity:0.1; fill:none" points="1135.44,1423.18 1135.44,123.472 "/>
<polyline clip-path="url(#clip372)" style="stroke:#000000; stroke-linecap:round; stroke-linejoin:round; stroke-width:2; stroke-opacity:0.1; fill:none" points="1519.42,1423.18 1519.42,123.472 "/>
<polyline clip-path="url(#clip372)" style="stroke:#000000; stroke-linecap:round; stroke-linejoin:round; stroke-width:2; stroke-opacity:0.1; fill:none" points="1903.39,1423.18 1903.39,123.472 "/>
<polyline clip-path="url(#clip372)" style="stroke:#000000; stroke-linecap:round; stroke-linejoin:round; stroke-width:2; stroke-opacity:0.1; fill:none" points="2287.37,1423.18 2287.37,123.472 "/>
<polyline clip-path="url(#clip370)" style="stroke:#000000; stroke-linecap:round; stroke-linejoin:round; stroke-width:4; stroke-opacity:1; fill:none" points="313.626,1423.18 2352.76,1423.18 "/>
<polyline clip-path="url(#clip370)" style="stroke:#000000; stroke-linecap:round; stroke-linejoin:round; stroke-width:4; stroke-opacity:1; fill:none" points="367.497,1423.18 367.497,1404.28 "/>
<polyline clip-path="url(#clip370)" style="stroke:#000000; stroke-linecap:round; stroke-linejoin:round; stroke-width:4; stroke-opacity:1; fill:none" points="751.471,1423.18 751.471,1404.28 "/>
<polyline clip-path="url(#clip370)" style="stroke:#000000; stroke-linecap:round; stroke-linejoin:round; stroke-width:4; stroke-opacity:1; fill:none" points="1135.44,1423.18 1135.44,1404.28 "/>
<polyline clip-path="url(#clip370)" style="stroke:#000000; stroke-linecap:round; stroke-linejoin:round; stroke-width:4; stroke-opacity:1; fill:none" points="1519.42,1423.18 1519.42,1404.28 "/>
<polyline clip-path="url(#clip370)" style="stroke:#000000; stroke-linecap:round; stroke-linejoin:round; stroke-width:4; stroke-opacity:1; fill:none" points="1903.39,1423.18 1903.39,1404.28 "/>
<polyline clip-path="url(#clip370)" style="stroke:#000000; stroke-linecap:round; stroke-linejoin:round; stroke-width:4; stroke-opacity:1; fill:none" points="2287.37,1423.18 2287.37,1404.28 "/>
<path clip-path="url(#clip370)" d="M367.497 1454.1 Q363.886 1454.1 362.058 1457.66 Q360.252 1461.2 360.252 1468.33 Q360.252 1475.44 362.058 1479.01 Q363.886 1482.55 367.497 1482.55 Q371.132 1482.55 372.937 1479.01 Q374.766 1475.44 374.766 1468.33 Q374.766 1461.2 372.937 1457.66 Q371.132 1454.1 367.497 1454.1 M367.497 1450.39 Q373.308 1450.39 376.363 1455 Q379.442 1459.58 379.442 1468.33 Q379.442 1477.06 376.363 1481.67 Q373.308 1486.25 367.497 1486.25 Q361.687 1486.25 358.609 1481.67 Q355.553 1477.06 355.553 1468.33 Q355.553 1459.58 358.609 1455 Q361.687 1450.39 367.497 1450.39 Z" fill="#000000" fill-rule="nonzero" fill-opacity="1" /><path clip-path="url(#clip370)" d="M711.078 1481.64 L718.716 1481.64 L718.716 1455.28 L710.406 1456.95 L710.406 1452.69 L718.67 1451.02 L723.346 1451.02 L723.346 1481.64 L730.985 1481.64 L730.985 1485.58 L711.078 1485.58 L711.078 1481.64 Z" fill="#000000" fill-rule="nonzero" fill-opacity="1" /><path clip-path="url(#clip370)" d="M750.429 1454.1 Q746.818 1454.1 744.99 1457.66 Q743.184 1461.2 743.184 1468.33 Q743.184 1475.44 744.99 1479.01 Q746.818 1482.55 750.429 1482.55 Q754.064 1482.55 755.869 1479.01 Q757.698 1475.44 757.698 1468.33 Q757.698 1461.2 755.869 1457.66 Q754.064 1454.1 750.429 1454.1 M750.429 1450.39 Q756.239 1450.39 759.295 1455 Q762.374 1459.58 762.374 1468.33 Q762.374 1477.06 759.295 1481.67 Q756.239 1486.25 750.429 1486.25 Q744.619 1486.25 741.54 1481.67 Q738.485 1477.06 738.485 1468.33 Q738.485 1459.58 741.54 1455 Q744.619 1450.39 750.429 1450.39 Z" fill="#000000" fill-rule="nonzero" fill-opacity="1" /><path clip-path="url(#clip370)" d="M780.591 1454.1 Q776.98 1454.1 775.151 1457.66 Q773.346 1461.2 773.346 1468.33 Q773.346 1475.44 775.151 1479.01 Q776.98 1482.55 780.591 1482.55 Q784.225 1482.55 786.031 1479.01 Q787.86 1475.44 787.86 1468.33 Q787.86 1461.2 786.031 1457.66 Q784.225 1454.1 780.591 1454.1 M780.591 1450.39 Q786.401 1450.39 789.457 1455 Q792.536 1459.58 792.536 1468.33 Q792.536 1477.06 789.457 1481.67 Q786.401 1486.25 780.591 1486.25 Q774.781 1486.25 771.702 1481.67 Q768.647 1477.06 768.647 1468.33 Q768.647 1459.58 771.702 1455 Q774.781 1450.39 780.591 1450.39 Z" fill="#000000" fill-rule="nonzero" fill-opacity="1" /><path clip-path="url(#clip370)" d="M1099.14 1481.64 L1115.46 1481.64 L1115.46 1485.58 L1093.51 1485.58 L1093.51 1481.64 Q1096.17 1478.89 1100.76 1474.26 Q1105.36 1469.61 1106.54 1468.27 Q1108.79 1465.74 1109.67 1464.01 Q1110.57 1462.25 1110.57 1460.56 Q1110.57 1457.8 1108.63 1456.07 Q1106.71 1454.33 1103.6 1454.33 Q1101.41 1454.33 1098.95 1455.09 Q1096.52 1455.86 1093.74 1457.41 L1093.74 1452.69 Q1096.57 1451.55 1099.02 1450.97 Q1101.47 1450.39 1103.51 1450.39 Q1108.88 1450.39 1112.08 1453.08 Q1115.27 1455.77 1115.27 1460.26 Q1115.27 1462.39 1114.46 1464.31 Q1113.67 1466.2 1111.57 1468.8 Q1110.99 1469.47 1107.89 1472.69 Q1104.78 1475.88 1099.14 1481.64 Z" fill="#000000" fill-rule="nonzero" fill-opacity="1" /><path clip-path="url(#clip370)" d="M1135.27 1454.1 Q1131.66 1454.1 1129.83 1457.66 Q1128.03 1461.2 1128.03 1468.33 Q1128.03 1475.44 1129.83 1479.01 Q1131.66 1482.55 1135.27 1482.55 Q1138.91 1482.55 1140.71 1479.01 Q1142.54 1475.44 1142.54 1468.33 Q1142.54 1461.2 1140.71 1457.66 Q1138.91 1454.1 1135.27 1454.1 M1135.27 1450.39 Q1141.08 1450.39 1144.14 1455 Q1147.22 1459.58 1147.22 1468.33 Q1147.22 1477.06 1144.14 1481.67 Q1141.08 1486.25 1135.27 1486.25 Q1129.46 1486.25 1126.38 1481.67 Q1123.33 1477.06 1123.33 1468.33 Q1123.33 1459.58 1126.38 1455 Q1129.46 1450.39 1135.27 1450.39 Z" fill="#000000" fill-rule="nonzero" fill-opacity="1" /><path clip-path="url(#clip370)" d="M1165.43 1454.1 Q1161.82 1454.1 1159.99 1457.66 Q1158.19 1461.2 1158.19 1468.33 Q1158.19 1475.44 1159.99 1479.01 Q1161.82 1482.55 1165.43 1482.55 Q1169.07 1482.55 1170.87 1479.01 Q1172.7 1475.44 1172.7 1468.33 Q1172.7 1461.2 1170.87 1457.66 Q1169.07 1454.1 1165.43 1454.1 M1165.43 1450.39 Q1171.24 1450.39 1174.3 1455 Q1177.38 1459.58 1177.38 1468.33 Q1177.38 1477.06 1174.3 1481.67 Q1171.24 1486.25 1165.43 1486.25 Q1159.62 1486.25 1156.54 1481.67 Q1153.49 1477.06 1153.49 1468.33 Q1153.49 1459.58 1156.54 1455 Q1159.62 1450.39 1165.43 1450.39 Z" fill="#000000" fill-rule="nonzero" fill-opacity="1" /><path clip-path="url(#clip370)" d="M1493.18 1466.95 Q1496.54 1467.66 1498.41 1469.93 Q1500.31 1472.2 1500.31 1475.53 Q1500.31 1480.65 1496.79 1483.45 Q1493.27 1486.25 1486.79 1486.25 Q1484.62 1486.25 1482.3 1485.81 Q1480.01 1485.39 1477.55 1484.54 L1477.55 1480.02 Q1479.5 1481.16 1481.81 1481.74 Q1484.13 1482.32 1486.65 1482.32 Q1491.05 1482.32 1493.34 1480.58 Q1495.66 1478.84 1495.66 1475.53 Q1495.66 1472.48 1493.5 1470.77 Q1491.37 1469.03 1487.55 1469.03 L1483.53 1469.03 L1483.53 1465.19 L1487.74 1465.19 Q1491.19 1465.19 1493.02 1463.82 Q1494.85 1462.43 1494.85 1459.84 Q1494.85 1457.18 1492.95 1455.77 Q1491.07 1454.33 1487.55 1454.33 Q1485.63 1454.33 1483.43 1454.75 Q1481.24 1455.16 1478.6 1456.04 L1478.6 1451.88 Q1481.26 1451.14 1483.57 1450.77 Q1485.91 1450.39 1487.97 1450.39 Q1493.3 1450.39 1496.4 1452.83 Q1499.5 1455.23 1499.5 1459.35 Q1499.5 1462.22 1497.86 1464.21 Q1496.21 1466.18 1493.18 1466.95 Z" fill="#000000" fill-rule="nonzero" fill-opacity="1" /><path clip-path="url(#clip370)" d="M1519.18 1454.1 Q1515.56 1454.1 1513.74 1457.66 Q1511.93 1461.2 1511.93 1468.33 Q1511.93 1475.44 1513.74 1479.01 Q1515.56 1482.55 1519.18 1482.55 Q1522.81 1482.55 1524.61 1479.01 Q1526.44 1475.44 1526.44 1468.33 Q1526.44 1461.2 1524.61 1457.66 Q1522.81 1454.1 1519.18 1454.1 M1519.18 1450.39 Q1524.99 1450.39 1528.04 1455 Q1531.12 1459.58 1531.12 1468.33 Q1531.12 1477.06 1528.04 1481.67 Q1524.99 1486.25 1519.18 1486.25 Q1513.36 1486.25 1510.29 1481.67 Q1507.23 1477.06 1507.23 1468.33 Q1507.23 1459.58 1510.29 1455 Q1513.36 1450.39 1519.18 1450.39 Z" fill="#000000" fill-rule="nonzero" fill-opacity="1" /><path clip-path="url(#clip370)" d="M1549.34 1454.1 Q1545.73 1454.1 1543.9 1457.66 Q1542.09 1461.2 1542.09 1468.33 Q1542.09 1475.44 1543.9 1479.01 Q1545.73 1482.55 1549.34 1482.55 Q1552.97 1482.55 1554.78 1479.01 Q1556.61 1475.44 1556.61 1468.33 Q1556.61 1461.2 1554.78 1457.66 Q1552.97 1454.1 1549.34 1454.1 M1549.34 1450.39 Q1555.15 1450.39 1558.2 1455 Q1561.28 1459.58 1561.28 1468.33 Q1561.28 1477.06 1558.2 1481.67 Q1555.15 1486.25 1549.34 1486.25 Q1543.53 1486.25 1540.45 1481.67 Q1537.39 1477.06 1537.39 1468.33 Q1537.39 1459.58 1540.45 1455 Q1543.53 1450.39 1549.34 1450.39 Z" fill="#000000" fill-rule="nonzero" fill-opacity="1" /><path clip-path="url(#clip370)" d="M1876.48 1455.09 L1864.68 1473.54 L1876.48 1473.54 L1876.48 1455.09 M1875.26 1451.02 L1881.13 1451.02 L1881.13 1473.54 L1886.07 1473.54 L1886.07 1477.43 L1881.13 1477.43 L1881.13 1485.58 L1876.48 1485.58 L1876.48 1477.43 L1860.88 1477.43 L1860.88 1472.92 L1875.26 1451.02 Z" fill="#000000" fill-rule="nonzero" fill-opacity="1" /><path clip-path="url(#clip370)" d="M1903.8 1454.1 Q1900.19 1454.1 1898.36 1457.66 Q1896.55 1461.2 1896.55 1468.33 Q1896.55 1475.44 1898.36 1479.01 Q1900.19 1482.55 1903.8 1482.55 Q1907.43 1482.55 1909.24 1479.01 Q1911.07 1475.44 1911.07 1468.33 Q1911.07 1461.2 1909.24 1457.66 Q1907.43 1454.1 1903.8 1454.1 M1903.8 1450.39 Q1909.61 1450.39 1912.66 1455 Q1915.74 1459.58 1915.74 1468.33 Q1915.74 1477.06 1912.66 1481.67 Q1909.61 1486.25 1903.8 1486.25 Q1897.99 1486.25 1894.91 1481.67 Q1891.85 1477.06 1891.85 1468.33 Q1891.85 1459.58 1894.91 1455 Q1897.99 1450.39 1903.8 1450.39 Z" fill="#000000" fill-rule="nonzero" fill-opacity="1" /><path clip-path="url(#clip370)" d="M1933.96 1454.1 Q1930.35 1454.1 1928.52 1457.66 Q1926.71 1461.2 1926.71 1468.33 Q1926.71 1475.44 1928.52 1479.01 Q1930.35 1482.55 1933.96 1482.55 Q1937.59 1482.55 1939.4 1479.01 Q1941.23 1475.44 1941.23 1468.33 Q1941.23 1461.2 1939.4 1457.66 Q1937.59 1454.1 1933.96 1454.1 M1933.96 1450.39 Q1939.77 1450.39 1942.82 1455 Q1945.9 1459.58 1945.9 1468.33 Q1945.9 1477.06 1942.82 1481.67 Q1939.77 1486.25 1933.96 1486.25 Q1928.15 1486.25 1925.07 1481.67 Q1922.01 1477.06 1922.01 1468.33 Q1922.01 1459.58 1925.07 1455 Q1928.15 1450.39 1933.96 1450.39 Z" fill="#000000" fill-rule="nonzero" fill-opacity="1" /><path clip-path="url(#clip370)" d="M2246.98 1451.02 L2265.34 1451.02 L2265.34 1454.96 L2251.27 1454.96 L2251.27 1463.43 Q2252.28 1463.08 2253.3 1462.92 Q2254.32 1462.73 2255.34 1462.73 Q2261.13 1462.73 2264.51 1465.9 Q2267.89 1469.08 2267.89 1474.49 Q2267.89 1480.07 2264.41 1483.17 Q2260.94 1486.25 2254.62 1486.25 Q2252.45 1486.25 2250.18 1485.88 Q2247.93 1485.51 2245.53 1484.77 L2245.53 1480.07 Q2247.61 1481.2 2249.83 1481.76 Q2252.05 1482.32 2254.53 1482.32 Q2258.53 1482.32 2260.87 1480.21 Q2263.21 1478.1 2263.21 1474.49 Q2263.21 1470.88 2260.87 1468.77 Q2258.53 1466.67 2254.53 1466.67 Q2252.65 1466.67 2250.78 1467.08 Q2248.93 1467.5 2246.98 1468.38 L2246.98 1451.02 Z" fill="#000000" fill-rule="nonzero" fill-opacity="1" /><path clip-path="url(#clip370)" d="M2287.1 1454.1 Q2283.49 1454.1 2281.66 1457.66 Q2279.85 1461.2 2279.85 1468.33 Q2279.85 1475.44 2281.66 1479.01 Q2283.49 1482.55 2287.1 1482.55 Q2290.73 1482.55 2292.54 1479.01 Q2294.37 1475.44 2294.37 1468.33 Q2294.37 1461.2 2292.54 1457.66 Q2290.73 1454.1 2287.1 1454.1 M2287.1 1450.39 Q2292.91 1450.39 2295.96 1455 Q2299.04 1459.58 2299.04 1468.33 Q2299.04 1477.06 2295.96 1481.67 Q2292.91 1486.25 2287.1 1486.25 Q2281.29 1486.25 2278.21 1481.67 Q2275.15 1477.06 2275.15 1468.33 Q2275.15 1459.58 2278.21 1455 Q2281.29 1450.39 2287.1 1450.39 Z" fill="#000000" fill-rule="nonzero" fill-opacity="1" /><path clip-path="url(#clip370)" d="M2317.26 1454.1 Q2313.65 1454.1 2311.82 1457.66 Q2310.02 1461.2 2310.02 1468.33 Q2310.02 1475.44 2311.82 1479.01 Q2313.65 1482.55 2317.26 1482.55 Q2320.9 1482.55 2322.7 1479.01 Q2324.53 1475.44 2324.53 1468.33 Q2324.53 1461.2 2322.7 1457.66 Q2320.9 1454.1 2317.26 1454.1 M2317.26 1450.39 Q2323.07 1450.39 2326.13 1455 Q2329.21 1459.58 2329.21 1468.33 Q2329.21 1477.06 2326.13 1481.67 Q2323.07 1486.25 2317.26 1486.25 Q2311.45 1486.25 2308.37 1481.67 Q2305.32 1477.06 2305.32 1468.33 Q2305.32 1459.58 2308.37 1455 Q2311.45 1450.39 2317.26 1450.39 Z" fill="#000000" fill-rule="nonzero" fill-opacity="1" /><path clip-path="url(#clip370)" d="M1317.37 1518.52 L1323.26 1518.52 L1323.26 1547.77 L1340.73 1532.4 L1348.21 1532.4 L1329.31 1549.07 L1349.01 1568.04 L1341.37 1568.04 L1323.26 1550.63 L1323.26 1568.04 L1317.37 1568.04 L1317.37 1518.52 Z" fill="#000000" fill-rule="nonzero" fill-opacity="1" /><polyline clip-path="url(#clip372)" style="stroke:#000000; stroke-linecap:round; stroke-linejoin:round; stroke-width:2; stroke-opacity:0.1; fill:none" points="313.626,912.862 2352.76,912.862 "/>
<polyline clip-path="url(#clip372)" style="stroke:#000000; stroke-linecap:round; stroke-linejoin:round; stroke-width:2; stroke-opacity:0.1; fill:none" points="313.626,394.077 2352.76,394.077 "/>
<polyline clip-path="url(#clip370)" style="stroke:#000000; stroke-linecap:round; stroke-linejoin:round; stroke-width:4; stroke-opacity:1; fill:none" points="313.626,1423.18 313.626,123.472 "/>
<polyline clip-path="url(#clip370)" style="stroke:#000000; stroke-linecap:round; stroke-linejoin:round; stroke-width:4; stroke-opacity:1; fill:none" points="313.626,912.862 332.524,912.862 "/>
<polyline clip-path="url(#clip370)" style="stroke:#000000; stroke-linecap:round; stroke-linejoin:round; stroke-width:4; stroke-opacity:1; fill:none" points="313.626,394.077 332.524,394.077 "/>
<path clip-path="url(#clip370)" d="M114.931 932.655 L122.57 932.655 L122.57 906.289 L114.26 907.956 L114.26 903.697 L122.524 902.03 L127.2 902.03 L127.2 932.655 L134.839 932.655 L134.839 936.59 L114.931 936.59 L114.931 932.655 Z" fill="#000000" fill-rule="nonzero" fill-opacity="1" /><path clip-path="url(#clip370)" d="M154.283 905.109 Q150.672 905.109 148.843 908.673 Q147.038 912.215 147.038 919.345 Q147.038 926.451 148.843 930.016 Q150.672 933.558 154.283 933.558 Q157.917 933.558 159.723 930.016 Q161.552 926.451 161.552 919.345 Q161.552 912.215 159.723 908.673 Q157.917 905.109 154.283 905.109 M154.283 901.405 Q160.093 901.405 163.149 906.011 Q166.227 910.595 166.227 919.345 Q166.227 928.072 163.149 932.678 Q160.093 937.261 154.283 937.261 Q148.473 937.261 145.394 932.678 Q142.339 928.072 142.339 919.345 Q142.339 910.595 145.394 906.011 Q148.473 901.405 154.283 901.405 Z" fill="#000000" fill-rule="nonzero" fill-opacity="1" /><path clip-path="url(#clip370)" d="M166.227 895.506 L190.339 895.506 L190.339 898.704 L166.227 898.704 L166.227 895.506 Z" fill="#000000" fill-rule="nonzero" fill-opacity="1" /><path clip-path="url(#clip370)" d="M199.197 905.982 L205.404 905.982 L205.404 884.56 L198.652 885.914 L198.652 882.454 L205.366 881.1 L209.166 881.1 L209.166 905.982 L215.372 905.982 L215.372 909.18 L199.197 909.18 L199.197 905.982 Z" fill="#000000" fill-rule="nonzero" fill-opacity="1" /><path clip-path="url(#clip370)" d="M223.046 904.402 L227.014 904.402 L227.014 909.18 L223.046 909.18 L223.046 904.402 Z" fill="#000000" fill-rule="nonzero" fill-opacity="1" /><path clip-path="url(#clip370)" d="M235.327 881.1 L250.242 881.1 L250.242 884.297 L238.807 884.297 L238.807 891.181 Q239.634 890.898 240.462 890.767 Q241.289 890.616 242.117 890.616 Q246.819 890.616 249.565 893.193 Q252.311 895.77 252.311 900.171 Q252.311 904.703 249.489 907.224 Q246.668 909.725 241.534 909.725 Q239.766 909.725 237.923 909.424 Q236.098 909.123 234.142 908.521 L234.142 904.703 Q235.835 905.625 237.641 906.076 Q239.446 906.528 241.459 906.528 Q244.712 906.528 246.612 904.816 Q248.511 903.105 248.511 900.171 Q248.511 897.237 246.612 895.525 Q244.712 893.814 241.459 893.814 Q239.935 893.814 238.412 894.152 Q236.907 894.491 235.327 895.205 L235.327 881.1 Z" fill="#000000" fill-rule="nonzero" fill-opacity="1" /><path clip-path="url(#clip370)" d="M267.921 883.601 Q264.987 883.601 263.501 886.497 Q262.034 889.375 262.034 895.168 Q262.034 900.942 263.501 903.838 Q264.987 906.716 267.921 906.716 Q270.874 906.716 272.341 903.838 Q273.827 900.942 273.827 895.168 Q273.827 889.375 272.341 886.497 Q270.874 883.601 267.921 883.601 M267.921 880.592 Q272.642 880.592 275.124 884.335 Q277.626 888.058 277.626 895.168 Q277.626 902.258 275.124 906.001 Q272.642 909.725 267.921 909.725 Q263.2 909.725 260.699 906.001 Q258.216 902.258 258.216 895.168 Q258.216 888.058 260.699 884.335 Q263.2 880.592 267.921 880.592 Z" fill="#000000" fill-rule="nonzero" fill-opacity="1" /><path clip-path="url(#clip370)" d="M115.74 413.869 L123.379 413.869 L123.379 387.504 L115.069 389.17 L115.069 384.911 L123.333 383.245 L128.009 383.245 L128.009 413.869 L135.647 413.869 L135.647 417.805 L115.74 417.805 L115.74 413.869 Z" fill="#000000" fill-rule="nonzero" fill-opacity="1" /><path clip-path="url(#clip370)" d="M155.092 386.323 Q151.481 386.323 149.652 389.888 Q147.846 393.43 147.846 400.559 Q147.846 407.666 149.652 411.231 Q151.481 414.772 155.092 414.772 Q158.726 414.772 160.532 411.231 Q162.36 407.666 162.36 400.559 Q162.36 393.43 160.532 389.888 Q158.726 386.323 155.092 386.323 M155.092 382.62 Q160.902 382.62 163.958 387.226 Q167.036 391.809 167.036 400.559 Q167.036 409.286 163.958 413.893 Q160.902 418.476 155.092 418.476 Q149.282 418.476 146.203 413.893 Q143.147 409.286 143.147 400.559 Q143.147 391.809 146.203 387.226 Q149.282 382.62 155.092 382.62 Z" fill="#000000" fill-rule="nonzero" fill-opacity="1" /><path clip-path="url(#clip370)" d="M167.036 376.721 L191.148 376.721 L191.148 379.918 L167.036 379.918 L167.036 376.721 Z" fill="#000000" fill-rule="nonzero" fill-opacity="1" /><path clip-path="url(#clip370)" d="M200.006 387.197 L206.213 387.197 L206.213 365.775 L199.461 367.129 L199.461 363.668 L206.175 362.314 L209.974 362.314 L209.974 387.197 L216.181 387.197 L216.181 390.394 L200.006 390.394 L200.006 387.197 Z" fill="#000000" fill-rule="nonzero" fill-opacity="1" /><path clip-path="url(#clip370)" d="M223.854 385.617 L227.823 385.617 L227.823 390.394 L223.854 390.394 L223.854 385.617 Z" fill="#000000" fill-rule="nonzero" fill-opacity="1" /><path clip-path="url(#clip370)" d="M239.371 387.197 L252.63 387.197 L252.63 390.394 L234.801 390.394 L234.801 387.197 Q236.963 384.959 240.687 381.197 Q244.43 377.417 245.389 376.326 Q247.214 374.276 247.928 372.865 Q248.662 371.436 248.662 370.063 Q248.662 367.825 247.082 366.414 Q245.521 365.004 243.001 365.004 Q241.214 365.004 239.22 365.624 Q237.246 366.245 234.989 367.505 L234.989 363.668 Q237.283 362.747 239.277 362.277 Q241.27 361.806 242.926 361.806 Q247.289 361.806 249.884 363.988 Q252.48 366.17 252.48 369.818 Q252.48 371.549 251.822 373.11 Q251.182 374.652 249.471 376.759 Q249 377.304 246.48 379.918 Q243.96 382.514 239.371 387.197 Z" fill="#000000" fill-rule="nonzero" fill-opacity="1" /><path clip-path="url(#clip370)" d="M260.642 362.314 L275.557 362.314 L275.557 365.511 L264.122 365.511 L264.122 372.395 Q264.949 372.113 265.777 371.981 Q266.605 371.831 267.432 371.831 Q272.134 371.831 274.88 374.408 Q277.626 376.984 277.626 381.385 Q277.626 385.918 274.805 388.438 Q271.984 390.94 266.849 390.94 Q265.081 390.94 263.238 390.639 Q261.414 390.338 259.458 389.736 L259.458 385.918 Q261.15 386.839 262.956 387.291 Q264.761 387.742 266.774 387.742 Q270.028 387.742 271.927 386.031 Q273.827 384.319 273.827 381.385 Q273.827 378.451 271.927 376.74 Q270.028 375.028 266.774 375.028 Q265.25 375.028 263.727 375.367 Q262.222 375.705 260.642 376.42 L260.642 362.314 Z" fill="#000000" fill-rule="nonzero" fill-opacity="1" /><path clip-path="url(#clip370)" d="M32.4621 801.797 Q32.4621 806.507 36.1542 809.244 Q39.8145 811.982 46.212 811.982 Q52.6095 811.982 56.3017 809.276 Q59.9619 806.539 59.9619 801.797 Q59.9619 797.118 56.2698 794.381 Q52.5777 791.643 46.212 791.643 Q39.8781 791.643 36.186 794.381 Q32.4621 797.118 32.4621 801.797 M27.4968 801.797 Q27.4968 794.158 32.4621 789.797 Q37.4273 785.437 46.212 785.437 Q54.9649 785.437 59.9619 789.797 Q64.9272 794.158 64.9272 801.797 Q64.9272 809.467 59.9619 813.828 Q54.9649 818.156 46.212 818.156 Q37.4273 818.156 32.4621 813.828 Q27.4968 809.467 27.4968 801.797 Z" fill="#000000" fill-rule="nonzero" fill-opacity="1" /><path clip-path="url(#clip370)" d="M46.212 750.139 Q39.7508 750.139 36.0905 752.812 Q32.3984 755.454 32.3984 760.101 Q32.3984 764.748 36.0905 767.422 Q39.7508 770.064 46.212 770.064 Q52.6732 770.064 56.3653 767.422 Q60.0256 764.748 60.0256 760.101 Q60.0256 755.454 56.3653 752.812 Q52.6732 750.139 46.212 750.139 M33.7671 770.064 Q30.5842 768.218 29.0564 765.417 Q27.4968 762.584 27.4968 758.669 Q27.4968 752.176 32.6531 748.134 Q37.8093 744.06 46.212 744.06 Q54.6147 744.06 59.771 748.134 Q64.9272 752.176 64.9272 758.669 Q64.9272 762.584 63.3994 765.417 Q61.8398 768.218 58.657 770.064 L64.0042 770.064 L64.0042 775.952 L14.479 775.952 L14.479 770.064 L33.7671 770.064 Z" fill="#000000" fill-rule="nonzero" fill-opacity="1" /><path clip-path="url(#clip370)" d="M28.3562 734.352 L28.3562 728.495 L64.6407 728.495 Q71.452 728.495 74.5076 731.105 Q77.5631 733.684 77.5631 739.445 L77.5631 741.673 L72.5979 741.673 L72.5979 740.113 Q72.5979 736.771 71.0383 735.561 Q69.5105 734.352 64.6407 734.352 L28.3562 734.352 M14.479 734.352 L14.479 728.495 L21.895 728.495 L21.895 734.352 L14.479 734.352 Z" fill="#000000" fill-rule="nonzero" fill-opacity="1" /><path clip-path="url(#clip370)" d="M987.932 65.7705 L987.932 89.8329 L980.438 89.8329 L980.438 27.2059 L987.932 27.2059 L987.932 34.0924 Q990.282 30.0415 993.847 28.0971 Q997.452 26.1121 1002.43 26.1121 Q1010.7 26.1121 1015.84 32.6746 Q1021.03 39.2371 1021.03 49.9314 Q1021.03 60.6258 1015.84 67.1883 Q1010.7 73.7508 1002.43 73.7508 Q997.452 73.7508 993.847 71.8063 Q990.282 69.8214 987.932 65.7705 M1013.29 49.9314 Q1013.29 41.7081 1009.89 37.0496 Q1006.53 32.3505 1000.61 32.3505 Q994.697 32.3505 991.295 37.0496 Q987.932 41.7081 987.932 49.9314 Q987.932 58.1548 991.295 62.8538 Q994.697 67.5124 1000.61 67.5124 Q1006.53 67.5124 1009.89 62.8538 Q1013.29 58.1548 1013.29 49.9314 Z" fill="#000000" fill-rule="nonzero" fill-opacity="1" /><path clip-path="url(#clip370)" d="M1059.67 34.1734 Q1058.42 33.4443 1056.92 33.1202 Q1055.46 32.7556 1053.68 32.7556 Q1047.36 32.7556 1043.96 36.8875 Q1040.59 40.9789 1040.59 48.6757 L1040.59 72.576 L1033.1 72.576 L1033.1 27.2059 L1040.59 27.2059 L1040.59 34.2544 Q1042.94 30.1225 1046.71 28.1376 Q1050.48 26.1121 1055.87 26.1121 Q1056.64 26.1121 1057.57 26.2337 Q1058.5 26.3147 1059.63 26.5172 L1059.67 34.1734 Z" fill="#000000" fill-rule="nonzero" fill-opacity="1" /><path clip-path="url(#clip370)" d="M1083.25 32.4315 Q1077.25 32.4315 1073.77 37.1306 Q1070.29 41.7891 1070.29 49.9314 Q1070.29 58.0738 1073.73 62.7728 Q1077.21 67.4314 1083.25 67.4314 Q1089.2 67.4314 1092.69 62.7323 Q1096.17 58.0333 1096.17 49.9314 Q1096.17 41.8701 1092.69 37.1711 Q1089.2 32.4315 1083.25 32.4315 M1083.25 26.1121 Q1092.97 26.1121 1098.52 32.4315 Q1104.07 38.7509 1104.07 49.9314 Q1104.07 61.0714 1098.52 67.4314 Q1092.97 73.7508 1083.25 73.7508 Q1073.49 73.7508 1067.94 67.4314 Q1062.43 61.0714 1062.43 49.9314 Q1062.43 38.7509 1067.94 32.4315 Q1073.49 26.1121 1083.25 26.1121 Z" fill="#000000" fill-rule="nonzero" fill-opacity="1" /><path clip-path="url(#clip370)" d="M1149 49.9314 Q1149 41.7081 1145.59 37.0496 Q1142.23 32.3505 1136.32 32.3505 Q1130.4 32.3505 1127 37.0496 Q1123.64 41.7081 1123.64 49.9314 Q1123.64 58.1548 1127 62.8538 Q1130.4 67.5124 1136.32 67.5124 Q1142.23 67.5124 1145.59 62.8538 Q1149 58.1548 1149 49.9314 M1123.64 34.0924 Q1125.99 30.0415 1129.55 28.0971 Q1133.16 26.1121 1138.14 26.1121 Q1146.4 26.1121 1151.55 32.6746 Q1156.73 39.2371 1156.73 49.9314 Q1156.73 60.6258 1151.55 67.1883 Q1146.4 73.7508 1138.14 73.7508 Q1133.16 73.7508 1129.55 71.8063 Q1125.99 69.8214 1123.64 65.7705 L1123.64 72.576 L1116.14 72.576 L1116.14 9.54393 L1123.64 9.54393 L1123.64 34.0924 Z" fill="#000000" fill-rule="nonzero" fill-opacity="1" /><path clip-path="url(#clip370)" d="M1169.09 9.54393 L1176.54 9.54393 L1176.54 72.576 L1169.09 72.576 L1169.09 9.54393 Z" fill="#000000" fill-rule="nonzero" fill-opacity="1" /><path clip-path="url(#clip370)" d="M1230.95 48.0275 L1230.95 51.6733 L1196.68 51.6733 Q1197.16 59.3701 1201.29 63.421 Q1205.47 67.4314 1212.88 67.4314 Q1217.17 67.4314 1221.18 66.3781 Q1225.23 65.3249 1229.2 63.2184 L1229.2 70.267 Q1225.19 71.9684 1220.98 72.8596 Q1216.77 73.7508 1212.43 73.7508 Q1201.58 73.7508 1195.22 67.4314 Q1188.9 61.1119 1188.9 50.3365 Q1188.9 39.1965 1194.89 32.6746 Q1200.93 26.1121 1211.14 26.1121 Q1220.29 26.1121 1225.6 32.0264 Q1230.95 37.9003 1230.95 48.0275 M1223.49 45.84 Q1223.41 39.7232 1220.05 36.0774 Q1216.73 32.4315 1211.22 32.4315 Q1204.98 32.4315 1201.21 35.9558 Q1197.49 39.4801 1196.92 45.8805 L1223.49 45.84 M1204.82 6.22219 L1216.24 21.3726 L1210.04 21.3726 L1196.84 6.22219 L1204.82 6.22219 Z" fill="#000000" fill-rule="nonzero" fill-opacity="1" /><path clip-path="url(#clip370)" d="M1278.5 35.9153 Q1281.3 30.8922 1285.19 28.5022 Q1289.08 26.1121 1294.34 26.1121 Q1301.43 26.1121 1305.28 31.0947 Q1309.13 36.0368 1309.13 45.1919 L1309.13 72.576 L1301.63 72.576 L1301.63 45.4349 Q1301.63 38.913 1299.33 35.7533 Q1297.02 32.5936 1292.28 32.5936 Q1286.48 32.5936 1283.12 36.4419 Q1279.76 40.2903 1279.76 46.9338 L1279.76 72.576 L1272.27 72.576 L1272.27 45.4349 Q1272.27 38.8725 1269.96 35.7533 Q1267.65 32.5936 1262.83 32.5936 Q1257.11 32.5936 1253.75 36.4824 Q1250.39 40.3308 1250.39 46.9338 L1250.39 72.576 L1242.9 72.576 L1242.9 27.2059 L1250.39 27.2059 L1250.39 34.2544 Q1252.94 30.082 1256.51 28.0971 Q1260.07 26.1121 1264.97 26.1121 Q1269.92 26.1121 1273.36 28.6237 Q1276.84 31.1352 1278.5 35.9153 Z" fill="#000000" fill-rule="nonzero" fill-opacity="1" /><path clip-path="url(#clip370)" d="M1362.8 48.0275 L1362.8 51.6733 L1328.53 51.6733 Q1329.02 59.3701 1333.15 63.421 Q1337.32 67.4314 1344.74 67.4314 Q1349.03 67.4314 1353.04 66.3781 Q1357.09 65.3249 1361.06 63.2184 L1361.06 70.267 Q1357.05 71.9684 1352.84 72.8596 Q1348.62 73.7508 1344.29 73.7508 Q1333.43 73.7508 1327.07 67.4314 Q1320.75 61.1119 1320.75 50.3365 Q1320.75 39.1965 1326.75 32.6746 Q1332.79 26.1121 1342.99 26.1121 Q1352.15 26.1121 1357.46 32.0264 Q1362.8 37.9003 1362.8 48.0275 M1355.35 45.84 Q1355.27 39.7232 1351.91 36.0774 Q1348.58 32.4315 1343.08 32.4315 Q1336.84 32.4315 1333.07 35.9558 Q1329.34 39.4801 1328.78 45.8805 L1355.35 45.84 Z" fill="#000000" fill-rule="nonzero" fill-opacity="1" /><path clip-path="url(#clip370)" d="M1403.31 62.2867 L1411.86 62.2867 L1411.86 72.576 L1403.31 72.576 L1403.31 62.2867 M1403.31 29.6769 L1411.86 29.6769 L1411.86 39.9662 L1403.31 39.9662 L1403.31 29.6769 Z" fill="#000000" fill-rule="nonzero" fill-opacity="1" /><path clip-path="url(#clip370)" d="M1463.1 14.324 L1463.1 27.2059 L1478.46 27.2059 L1478.46 32.9987 L1463.1 32.9987 L1463.1 57.6282 Q1463.1 63.1779 1464.6 64.7578 Q1466.14 66.3376 1470.8 66.3376 L1478.46 66.3376 L1478.46 72.576 L1470.8 72.576 Q1462.17 72.576 1458.89 69.3758 Q1455.61 66.1351 1455.61 57.6282 L1455.61 32.9987 L1450.14 32.9987 L1450.14 27.2059 L1455.61 27.2059 L1455.61 14.324 L1463.1 14.324 Z" fill="#000000" fill-rule="nonzero" fill-opacity="1" /><path clip-path="url(#clip370)" d="M1495.47 65.7705 L1495.47 89.8329 L1487.98 89.8329 L1487.98 27.2059 L1495.47 27.2059 L1495.47 34.0924 Q1497.82 30.0415 1501.38 28.0971 Q1504.99 26.1121 1509.97 26.1121 Q1518.24 26.1121 1523.38 32.6746 Q1528.57 39.2371 1528.57 49.9314 Q1528.57 60.6258 1523.38 67.1883 Q1518.24 73.7508 1509.97 73.7508 Q1504.99 73.7508 1501.38 71.8063 Q1497.82 69.8214 1495.47 65.7705 M1520.83 49.9314 Q1520.83 41.7081 1517.43 37.0496 Q1514.06 32.3505 1508.15 32.3505 Q1502.24 32.3505 1498.83 37.0496 Q1495.47 41.7081 1495.47 49.9314 Q1495.47 58.1548 1498.83 62.8538 Q1502.24 67.5124 1508.15 67.5124 Q1514.06 67.5124 1517.43 62.8538 Q1520.83 58.1548 1520.83 49.9314 Z" fill="#000000" fill-rule="nonzero" fill-opacity="1" /><path clip-path="url(#clip370)" d="M1566.77 39.9662 Q1572.64 41.222 1575.92 45.1919 Q1579.24 49.1618 1579.24 54.9951 Q1579.24 63.9476 1573.09 68.8492 Q1566.93 73.7508 1555.59 73.7508 Q1551.78 73.7508 1547.73 72.9811 Q1543.72 72.2519 1539.42 70.7531 L1539.42 62.8538 Q1542.83 64.8388 1546.88 65.8515 Q1550.93 66.8642 1555.34 66.8642 Q1563.04 66.8642 1567.05 63.826 Q1571.1 60.7879 1571.1 54.9951 Q1571.1 49.6479 1567.33 46.6502 Q1563.61 43.612 1556.92 43.612 L1549.87 43.612 L1549.87 36.8875 L1557.25 36.8875 Q1563.28 36.8875 1566.48 34.4975 Q1569.68 32.067 1569.68 27.5299 Q1569.68 22.8714 1566.36 20.4004 Q1563.08 17.8888 1556.92 17.8888 Q1553.56 17.8888 1549.71 18.618 Q1545.86 19.3471 1541.25 20.8865 L1541.25 13.5948 Q1545.9 12.2985 1549.95 11.6504 Q1554.05 11.0023 1557.65 11.0023 Q1566.97 11.0023 1572.4 15.2557 Q1577.83 19.4686 1577.83 26.6793 Q1577.83 31.7024 1574.95 35.1862 Q1572.07 38.6294 1566.77 39.9662 Z" fill="#000000" fill-rule="nonzero" fill-opacity="1" /><path clip-path="url(#clip370)" d="M1594.84 12.096 L1626.96 12.096 L1626.96 18.9825 L1602.33 18.9825 L1602.33 33.8088 Q1604.12 33.2012 1605.9 32.9176 Q1607.68 32.5936 1609.46 32.5936 Q1619.59 32.5936 1625.5 38.1433 Q1631.42 43.6931 1631.42 53.1722 Q1631.42 62.9348 1625.34 68.3631 Q1619.27 73.7508 1608.21 73.7508 Q1604.4 73.7508 1600.43 73.1026 Q1596.5 72.4545 1592.29 71.1582 L1592.29 62.9348 Q1595.93 64.9198 1599.82 65.892 Q1603.71 66.8642 1608.04 66.8642 Q1615.05 66.8642 1619.14 63.1779 Q1623.24 59.4916 1623.24 53.1722 Q1623.24 46.8528 1619.14 43.1664 Q1615.05 39.4801 1608.04 39.4801 Q1604.76 39.4801 1601.48 40.2093 Q1598.24 40.9384 1594.84 42.4778 L1594.84 12.096 Z" fill="#000000" fill-rule="nonzero" fill-opacity="1" /><path clip-path="url(#clip370)" d="M1665.04 17.4837 Q1658.72 17.4837 1655.52 23.7221 Q1652.36 29.92 1652.36 42.3968 Q1652.36 54.833 1655.52 61.0714 Q1658.72 67.2693 1665.04 67.2693 Q1671.4 67.2693 1674.56 61.0714 Q1677.76 54.833 1677.76 42.3968 Q1677.76 29.92 1674.56 23.7221 Q1671.4 17.4837 1665.04 17.4837 M1665.04 11.0023 Q1675.21 11.0023 1680.56 19.0636 Q1685.94 27.0843 1685.94 42.3968 Q1685.94 57.6687 1680.56 65.73 Q1675.21 73.7508 1665.04 73.7508 Q1654.87 73.7508 1649.49 65.73 Q1644.14 57.6687 1644.14 42.3968 Q1644.14 27.0843 1649.49 19.0636 Q1654.87 11.0023 1665.04 11.0023 Z" fill="#000000" fill-rule="nonzero" fill-opacity="1" /><polyline clip-path="url(#clip372)" style="stroke:#009af9; stroke-linecap:round; stroke-linejoin:round; stroke-width:4; stroke-opacity:1; fill:none" points="371.337,160.256 375.177,347.686 379.017,999.365 382.856,1147.82 386.696,1152.76 390.536,1176.66 394.376,1211.69 398.215,1213.74 402.055,1215.12 405.895,1216.46 409.734,1217.79 413.574,1219.11 417.414,1220.42 421.254,1221.72 425.093,1223 428.933,1224.29 432.773,1225.56 436.613,1226.82 440.452,1228.08 444.292,1229.32 448.132,1230.56 451.972,1231.79 455.811,1233.01 459.651,1234.22 463.491,1235.43 467.331,1236.62 471.17,1237.81 475.01,1238.99 478.85,1240.16 482.689,1241.32 486.529,1242.48 490.369,1243.62 494.209,1244.76 498.048,1245.89 501.888,1247.02 505.728,1248.13 509.568,1249.24 513.407,1250.34 517.247,1251.43 521.087,1252.51 524.927,1253.59 528.766,1254.66 532.606,1255.72 536.446,1256.77 540.285,1257.81 544.125,1258.85 547.965,1259.88 551.805,1260.91 555.644,1261.92 559.484,1262.93 563.324,1263.93 567.164,1264.92 571.003,1265.91 574.843,1266.89 578.683,1267.86 582.523,1268.82 586.362,1269.78 590.202,1270.73 594.042,1271.67 597.882,1272.61 601.721,1273.54 605.561,1274.46 609.401,1275.37 613.24,1276.28 617.08,1277.18 620.92,1278.08 624.76,1278.96 628.599,1279.84 632.439,1280.72 636.279,1281.59 640.119,1282.45 643.958,1283.3 647.798,1284.15 651.638,1284.99 655.478,1285.82 659.317,1286.65 663.157,1287.47 666.997,1288.29 670.836,1289.1 674.676,1289.9 678.516,1290.7 682.356,1291.49 686.195,1292.27 690.035,1293.05 693.875,1293.82 697.715,1294.59 701.554,1295.35 705.394,1296.1 709.234,1296.85 713.074,1297.6 716.913,1298.33 720.753,1299.06 724.593,1299.79 728.433,1300.51 732.272,1301.22 736.112,1301.93 739.952,1302.63 743.791,1303.33 747.631,1304.02 751.471,1304.7 755.311,1305.38 759.15,1306.06 762.99,1306.72 766.83,1307.39 770.67,1308.05 774.509,1308.7 778.349,1309.35 782.189,1309.99 786.029,1310.63 789.868,1311.26 793.708,1311.88 797.548,1312.51 801.388,1313.12 805.227,1313.73 809.067,1314.34 812.907,1314.94 816.746,1315.54 820.586,1316.13 824.426,1316.72 828.266,1317.3 832.105,1317.88 835.945,1318.45 839.785,1319.02 843.625,1319.58 847.464,1320.14 851.304,1320.69 855.144,1321.24 858.984,1321.79 862.823,1322.33 866.663,1322.86 870.503,1323.4 874.342,1323.92 878.182,1324.44 882.022,1324.96 885.862,1325.48 889.701,1325.99 893.541,1326.49 897.381,1326.99 901.221,1327.49 905.06,1327.98 908.9,1328.47 912.74,1328.96 916.58,1329.44 920.419,1329.91 924.259,1330.39 928.099,1330.85 931.939,1331.32 935.778,1331.78 939.618,1332.24 943.458,1332.69 947.297,1333.14 951.137,1333.58 954.977,1334.02 958.817,1334.46 962.656,1334.9 966.496,1335.33 970.336,1335.75 974.176,1336.18 978.015,1336.6 981.855,1337.01 985.695,1337.43 989.535,1337.83 993.374,1338.24 997.214,1338.64 1001.05,1339.04 1004.89,1339.44 1008.73,1339.83 1012.57,1340.22 1016.41,1340.6 1020.25,1340.98 1024.09,1341.36 1027.93,1341.74 1031.77,1342.11 1035.61,1342.48 1039.45,1342.85 1043.29,1343.21 1047.13,1343.57 1050.97,1343.93 1054.81,1344.28 1058.65,1344.63 1062.49,1344.98 1066.33,1345.32 1070.17,1345.67 1074.01,1346.01 1077.85,1346.34 1081.69,1346.67 1085.53,1347.01 1089.37,1347.33 1093.21,1347.66 1097.05,1347.98 1100.89,1348.3 1104.73,1348.62 1108.57,1348.93 1112.41,1349.24 1116.25,1349.55 1120.09,1349.86 1123.93,1350.16 1127.77,1350.46 1131.6,1350.76 1135.44,1351.05 1139.28,1351.35 1143.12,1351.64 1146.96,1351.93 1150.8,1352.21 1154.64,1352.5 1158.48,1352.78 1162.32,1353.06 1166.16,1353.33 1170,1353.61 1173.84,1353.88 1177.68,1354.15 1181.52,1354.41 1185.36,1354.68 1189.2,1354.94 1193.04,1355.2 1196.88,1355.46 1200.72,1355.72 1204.56,1355.97 1208.4,1356.22 1212.24,1356.47 1216.08,1356.72 1219.92,1356.96 1223.76,1357.21 1227.6,1357.45 1231.44,1357.69 1235.28,1357.93 1239.12,1358.16 1242.96,1358.39 1246.8,1358.63 1250.64,1358.86 1254.48,1359.08 1258.32,1359.31 1262.16,1359.53 1266,1359.75 1269.84,1359.97 1273.67,1360.19 1277.51,1360.41 1281.35,1360.62 1285.19,1360.84 1289.03,1361.05 1292.87,1361.26 1296.71,1361.47 1300.55,1361.67 1304.39,1361.88 1308.23,1362.08 1312.07,1362.28 1315.91,1362.48 1319.75,1362.68 1323.59,1362.87 1327.43,1363.07 1331.27,1363.26 1335.11,1363.45 1338.95,1363.64 1342.79,1363.83 1346.63,1364.02 1350.47,1364.2 1354.31,1364.38 1358.15,1364.57 1361.99,1364.75 1365.83,1364.93 1369.67,1365.1 1373.51,1365.28 1377.35,1365.46 1381.19,1365.63 1385.03,1365.8 1388.87,1365.97 1392.71,1366.14 1396.55,1366.31 1400.39,1366.48 1404.23,1366.64 1408.07,1366.81 1411.91,1366.97 1415.75,1367.13 1419.58,1367.29 1423.42,1367.45 1427.26,1367.61 1431.1,1367.76 1434.94,1367.92 1438.78,1368.07 1442.62,1368.23 1446.46,1368.38 1450.3,1368.53 1454.14,1368.68 1457.98,1368.83 1461.82,1368.97 1465.66,1369.12 1469.5,1369.26 1473.34,1369.41 1477.18,1369.55 1481.02,1369.69 1484.86,1369.83 1488.7,1369.97 1492.54,1370.11 1496.38,1370.25 1500.22,1370.38 1504.06,1370.52 1507.9,1370.65 1511.74,1370.79 1515.58,1370.92 1519.42,1371.05 1523.26,1371.18 1527.1,1371.31 1530.94,1371.44 1534.78,1371.57 1538.62,1371.69 1542.46,1371.82 1546.3,1371.94 1550.14,1372.07 1553.98,1372.19 1557.82,1372.31 1561.66,1372.43 1565.49,1372.55 1569.33,1372.67 1573.17,1372.79 1577.01,1372.91 1580.85,1373.02 1584.69,1373.14 1588.53,1373.26 1592.37,1373.37 1596.21,1373.48 1600.05,1373.6 1603.89,1373.71 1607.73,1373.82 1611.57,1373.93 1615.41,1374.04 1619.25,1374.15 1623.09,1374.26 1626.93,1374.36 1630.77,1374.47 1634.61,1374.58 1638.45,1374.68 1642.29,1374.79 1646.13,1374.89 1649.97,1374.99 1653.81,1375.1 1657.65,1375.2 1661.49,1375.3 1665.33,1375.4 1669.17,1375.5 1673.01,1375.6 1676.85,1375.7 1680.69,1375.8 1684.53,1375.89 1688.37,1375.99 1692.21,1376.08 1696.05,1376.18 1699.89,1376.27 1703.73,1376.37 1707.57,1376.46 1711.4,1376.56 1715.24,1376.65 1719.08,1376.74 1722.92,1376.83 1726.76,1376.92 1730.6,1377.01 1734.44,1377.1 1738.28,1377.19 1742.12,1377.28 1745.96,1377.37 1749.8,1377.45 1753.64,1377.54 1757.48,1377.63 1761.32,1377.71 1765.16,1377.8 1769,1377.88 1772.84,1377.97 1776.68,1378.05 1780.52,1378.13 1784.36,1378.22 1788.2,1378.3 1792.04,1378.38 1795.88,1378.46 1799.72,1378.54 1803.56,1378.62 1807.4,1378.7 1811.24,1378.78 1815.08,1378.86 1818.92,1378.94 1822.76,1379.02 1826.6,1379.1 1830.44,1379.17 1834.28,1379.25 1838.12,1379.33 1841.96,1379.4 1845.8,1379.48 1849.64,1379.55 1853.48,1379.63 1857.31,1379.7 1861.15,1379.78 1864.99,1379.85 1868.83,1379.92 1872.67,1380 1876.51,1380.07 1880.35,1380.14 1884.19,1380.21 1888.03,1380.29 1891.87,1380.36 1895.71,1380.43 1899.55,1380.5 1903.39,1380.57 1907.23,1380.64 1911.07,1380.71 1914.91,1380.78 1918.75,1380.84 1922.59,1380.91 1926.43,1380.98 1930.27,1381.05 1934.11,1381.12 1937.95,1381.18 1941.79,1381.25 1945.63,1381.32 1949.47,1381.38 1953.31,1381.45 1957.15,1381.51 1960.99,1381.58 1964.83,1381.64 1968.67,1381.71 1972.51,1381.77 1976.35,1381.84 1980.19,1381.9 1984.03,1381.96 1987.87,1382.03 1991.71,1382.09 1995.55,1382.15 1999.39,1382.21 2003.22,1382.28 2007.06,1382.34 2010.9,1382.4 2014.74,1382.46 2018.58,1382.52 2022.42,1382.58 2026.26,1382.64 2030.1,1382.7 2033.94,1382.76 2037.78,1382.82 2041.62,1382.88 2045.46,1382.94 2049.3,1383 2053.14,1383.06 2056.98,1383.12 2060.82,1383.18 2064.66,1383.24 2068.5,1383.29 2072.34,1383.35 2076.18,1383.41 2080.02,1383.47 2083.86,1383.52 2087.7,1383.58 2091.54,1383.64 2095.38,1383.69 2099.22,1383.75 2103.06,1383.81 2106.9,1383.86 2110.74,1383.92 2114.58,1383.97 2118.42,1384.03 2122.26,1384.08 2126.1,1384.14 2129.94,1384.19 2133.78,1384.25 2137.62,1384.3 2141.46,1384.36 2145.29,1384.41 2149.13,1384.46 2152.97,1384.52 2156.81,1384.57 2160.65,1384.62 2164.49,1384.68 2168.33,1384.73 2172.17,1384.78 2176.01,1384.84 2179.85,1384.89 2183.69,1384.94 2187.53,1384.99 2191.37,1385.05 2195.21,1385.1 2199.05,1385.15 2202.89,1385.2 2206.73,1385.25 2210.57,1385.3 2214.41,1385.35 2218.25,1385.4 2222.09,1385.46 2225.93,1385.51 2229.77,1385.56 2233.61,1385.61 2237.45,1385.66 2241.29,1385.71 2245.13,1385.76 2248.97,1385.81 2252.81,1385.86 2256.65,1385.91 2260.49,1385.96 2264.33,1386.01 2268.17,1386.05 2272.01,1386.1 2275.85,1386.15 2279.69,1386.2 2283.53,1386.25 2287.37,1386.3 2291.2,1386.35 2295.04,1386.4 "/>
<polyline clip-path="url(#clip372)" style="stroke:#e26f46; stroke-linecap:round; stroke-linejoin:round; stroke-width:4; stroke-opacity:1; fill:none" points="371.337,160.256 375.177,347.686 379.017,999.365 382.856,1147.82 386.696,1152.76 390.536,1176.66 394.376,1211.69 398.215,1213.74 402.055,1215.12 405.895,1216.46 409.734,1217.79 413.574,1219.11 417.414,1220.42 421.254,1221.72 425.093,1223 428.933,1224.29 432.773,1225.56 436.613,1226.82 440.452,1228.08 444.292,1229.32 448.132,1230.56 451.972,1231.79 455.811,1233.01 459.651,1234.22 463.491,1235.43 467.331,1236.62 471.17,1237.81 475.01,1238.99 478.85,1240.16 482.689,1241.32 486.529,1242.48 490.369,1243.62 494.209,1244.76 498.048,1245.89 501.888,1247.02 505.728,1248.13 509.568,1249.24 513.407,1250.34 517.247,1251.43 521.087,1252.51 524.927,1253.59 528.766,1254.66 532.606,1255.72 536.446,1256.77 540.285,1257.81 544.125,1258.85 547.965,1259.88 551.805,1260.91 555.644,1261.92 559.484,1262.93 563.324,1263.93 567.164,1264.92 571.003,1265.91 574.843,1266.89 578.683,1267.86 582.523,1268.82 586.362,1269.78 590.202,1270.73 594.042,1271.67 597.882,1272.61 601.721,1273.54 605.561,1274.46 609.401,1275.37 613.24,1276.28 617.08,1277.18 620.92,1278.08 624.76,1278.96 628.599,1279.84 632.439,1280.72 636.279,1281.59 640.119,1282.45 643.958,1283.3 647.798,1284.15 651.638,1284.99 655.478,1285.82 659.317,1286.65 663.157,1287.47 666.997,1288.29 670.836,1289.1 674.676,1289.9 678.516,1290.7 682.356,1291.49 686.195,1292.27 690.035,1293.05 693.875,1293.82 697.715,1294.59 701.554,1295.35 705.394,1296.1 709.234,1296.85 713.074,1297.6 716.913,1298.33 720.753,1299.06 724.593,1299.79 728.433,1300.51 732.272,1301.22 736.112,1301.93 739.952,1302.63 743.791,1303.33 747.631,1304.02 751.471,1304.7 755.311,1305.38 759.15,1306.06 762.99,1306.72 766.83,1307.39 770.67,1308.05 774.509,1308.7 778.349,1309.35 782.189,1309.99 786.029,1310.63 789.868,1311.26 793.708,1311.88 797.548,1312.51 801.388,1313.12 805.227,1313.73 809.067,1314.34 812.907,1314.94 816.746,1315.54 820.586,1316.13 824.426,1316.72 828.266,1317.3 832.105,1317.88 835.945,1318.45 839.785,1319.02 843.625,1319.58 847.464,1320.14 851.304,1320.69 855.144,1321.24 858.984,1321.79 862.823,1322.33 866.663,1322.86 870.503,1323.4 874.342,1323.92 878.182,1324.44 882.022,1324.96 885.862,1325.48 889.701,1325.99 893.541,1326.49 897.381,1326.99 901.221,1327.49 905.06,1327.98 908.9,1328.47 912.74,1328.96 916.58,1329.44 920.419,1329.91 924.259,1330.39 928.099,1330.85 931.939,1331.32 935.778,1331.78 939.618,1332.24 943.458,1332.69 947.297,1333.14 951.137,1333.58 954.977,1334.02 958.817,1334.46 962.656,1334.9 966.496,1335.33 970.336,1335.75 974.176,1336.18 978.015,1336.6 981.855,1337.01 985.695,1337.43 989.535,1337.83 993.374,1338.24 997.214,1338.64 1001.05,1339.04 1004.89,1339.44 1008.73,1339.83 1012.57,1340.22 1016.41,1340.6 1020.25,1340.98 1024.09,1341.36 1027.93,1341.74 1031.77,1342.11 1035.61,1342.48 1039.45,1342.85 1043.29,1343.21 1047.13,1343.57 1050.97,1343.93 1054.81,1344.28 1058.65,1344.63 1062.49,1344.98 1066.33,1345.32 1070.17,1345.67 1074.01,1346.01 1077.85,1346.34 1081.69,1346.67 1085.53,1347.01 1089.37,1347.33 1093.21,1347.66 1097.05,1347.98 1100.89,1348.3 1104.73,1348.62 1108.57,1348.93 1112.41,1349.24 1116.25,1349.55 1120.09,1349.86 1123.93,1350.16 1127.77,1350.46 1131.6,1350.76 1135.44,1351.05 1139.28,1351.35 1143.12,1351.64 1146.96,1351.93 1150.8,1352.21 1154.64,1352.5 1158.48,1352.78 1162.32,1353.06 1166.16,1353.33 1170,1353.61 1173.84,1353.88 1177.68,1354.15 1181.52,1354.41 1185.36,1354.68 1189.2,1354.94 1193.04,1355.2 1196.88,1355.46 1200.72,1355.72 1204.56,1355.97 1208.4,1356.22 1212.24,1356.47 1216.08,1356.72 1219.92,1356.96 1223.76,1357.21 1227.6,1357.45 1231.44,1357.69 1235.28,1357.93 1239.12,1358.16 1242.96,1358.39 1246.8,1358.63 1250.64,1358.86 1254.48,1359.08 1258.32,1359.31 1262.16,1359.53 1266,1359.75 1269.84,1359.97 1273.67,1360.19 1277.51,1360.41 1281.35,1360.62 1285.19,1360.84 1289.03,1361.05 1292.87,1361.26 1296.71,1361.47 1300.55,1361.67 1304.39,1361.88 1308.23,1362.08 1312.07,1362.28 1315.91,1362.48 1319.75,1362.68 1323.59,1362.87 1327.43,1363.07 1331.27,1363.26 1335.11,1363.45 1338.95,1363.64 1342.79,1363.83 1346.63,1364.02 1350.47,1364.2 1354.31,1364.38 1358.15,1364.57 1361.99,1364.75 1365.83,1364.93 1369.67,1365.1 1373.51,1365.28 1377.35,1365.46 1381.19,1365.63 1385.03,1365.8 1388.87,1365.97 1392.71,1366.14 1396.55,1366.31 1400.39,1366.48 1404.23,1366.64 1408.07,1366.81 1411.91,1366.97 1415.75,1367.13 1419.58,1367.29 1423.42,1367.45 1427.26,1367.61 1431.1,1367.76 1434.94,1367.92 1438.78,1368.07 1442.62,1368.23 1446.46,1368.38 1450.3,1368.53 1454.14,1368.68 1457.98,1368.83 1461.82,1368.97 1465.66,1369.12 1469.5,1369.26 1473.34,1369.41 1477.18,1369.55 1481.02,1369.69 1484.86,1369.83 1488.7,1369.97 1492.54,1370.11 1496.38,1370.25 1500.22,1370.38 1504.06,1370.52 1507.9,1370.65 1511.74,1370.79 1515.58,1370.92 1519.42,1371.05 1523.26,1371.18 1527.1,1371.31 1530.94,1371.44 1534.78,1371.57 1538.62,1371.69 1542.46,1371.82 1546.3,1371.94 1550.14,1372.07 1553.98,1372.19 1557.82,1372.31 1561.66,1372.43 1565.49,1372.55 1569.33,1372.67 1573.17,1372.79 1577.01,1372.91 1580.85,1373.02 1584.69,1373.14 1588.53,1373.26 1592.37,1373.37 1596.21,1373.48 1600.05,1373.6 1603.89,1373.71 1607.73,1373.82 1611.57,1373.93 1615.41,1374.04 1619.25,1374.15 1623.09,1374.26 1626.93,1374.36 1630.77,1374.47 1634.61,1374.58 1638.45,1374.68 1642.29,1374.79 1646.13,1374.89 1649.97,1374.99 1653.81,1375.1 1657.65,1375.2 1661.49,1375.3 1665.33,1375.4 1669.17,1375.5 1673.01,1375.6 1676.85,1375.7 1680.69,1375.8 1684.53,1375.89 1688.37,1375.99 1692.21,1376.08 1696.05,1376.18 1699.89,1376.27 1703.73,1376.37 1707.57,1376.46 1711.4,1376.56 1715.24,1376.65 1719.08,1376.74 1722.92,1376.83 1726.76,1376.92 1730.6,1377.01 1734.44,1377.1 1738.28,1377.19 1742.12,1377.28 1745.96,1377.37 1749.8,1377.45 1753.64,1377.54 1757.48,1377.63 1761.32,1377.71 1765.16,1377.8 1769,1377.88 1772.84,1377.97 1776.68,1378.05 1780.52,1378.13 1784.36,1378.22 1788.2,1378.3 1792.04,1378.38 1795.88,1378.46 1799.72,1378.54 1803.56,1378.62 1807.4,1378.7 1811.24,1378.78 1815.08,1378.86 1818.92,1378.94 1822.76,1379.02 1826.6,1379.1 1830.44,1379.17 1834.28,1379.25 1838.12,1379.33 1841.96,1379.4 1845.8,1379.48 1849.64,1379.55 1853.48,1379.63 1857.31,1379.7 1861.15,1379.78 1864.99,1379.85 1868.83,1379.92 1872.67,1380 1876.51,1380.07 1880.35,1380.14 1884.19,1380.21 1888.03,1380.29 1891.87,1380.36 1895.71,1380.43 1899.55,1380.5 1903.39,1380.57 1907.23,1380.64 1911.07,1380.71 1914.91,1380.78 1918.75,1380.84 1922.59,1380.91 1926.43,1380.98 1930.27,1381.05 1934.11,1381.12 1937.95,1381.18 1941.79,1381.25 1945.63,1381.32 1949.47,1381.38 1953.31,1381.45 1957.15,1381.51 1960.99,1381.58 1964.83,1381.64 1968.67,1381.71 1972.51,1381.77 1976.35,1381.84 1980.19,1381.9 1984.03,1381.96 1987.87,1382.03 1991.71,1382.09 1995.55,1382.15 1999.39,1382.21 2003.22,1382.28 2007.06,1382.34 2010.9,1382.4 2014.74,1382.46 2018.58,1382.52 2022.42,1382.58 2026.26,1382.64 2030.1,1382.7 2033.94,1382.76 2037.78,1382.82 2041.62,1382.88 2045.46,1382.94 2049.3,1383 2053.14,1383.06 2056.98,1383.12 2060.82,1383.18 2064.66,1383.24 2068.5,1383.29 2072.34,1383.35 2076.18,1383.41 2080.02,1383.47 2083.86,1383.52 2087.7,1383.58 2091.54,1383.64 2095.38,1383.69 2099.22,1383.75 2103.06,1383.81 2106.9,1383.86 2110.74,1383.92 2114.58,1383.97 2118.42,1384.03 2122.26,1384.08 2126.1,1384.14 2129.94,1384.19 2133.78,1384.25 2137.62,1384.3 2141.46,1384.36 2145.29,1384.41 2149.13,1384.46 2152.97,1384.52 2156.81,1384.57 2160.65,1384.62 2164.49,1384.68 2168.33,1384.73 2172.17,1384.78 2176.01,1384.84 2179.85,1384.89 2183.69,1384.94 2187.53,1384.99 2191.37,1385.05 2195.21,1385.1 2199.05,1385.15 2202.89,1385.2 2206.73,1385.25 2210.57,1385.3 2214.41,1385.35 2218.25,1385.4 2222.09,1385.46 2225.93,1385.51 2229.77,1385.56 2233.61,1385.61 2237.45,1385.66 2241.29,1385.71 2245.13,1385.76 2248.97,1385.81 2252.81,1385.86 2256.65,1385.91 2260.49,1385.96 2264.33,1386.01 2268.17,1386.05 2272.01,1386.1 2275.85,1386.15 2279.69,1386.2 2283.53,1386.25 2287.37,1386.3 2291.2,1386.35 2295.04,1386.4 "/>
<path clip-path="url(#clip370)" d="M1509.3 322.316 L2284.78 322.316 L2284.78 166.796 L1509.3 166.796  Z" fill="#ffffff" fill-rule="evenodd" fill-opacity="1"/>
<polyline clip-path="url(#clip370)" style="stroke:#000000; stroke-linecap:round; stroke-linejoin:round; stroke-width:4; stroke-opacity:1; fill:none" points="1509.3,322.316 2284.78,322.316 2284.78,166.796 1509.3,166.796 1509.3,322.316 "/>
<polyline clip-path="url(#clip370)" style="stroke:#009af9; stroke-linecap:round; stroke-linejoin:round; stroke-width:4; stroke-opacity:1; fill:none" points="1531.96,218.636 1667.9,218.636 "/>
<path clip-path="url(#clip370)" d="M1690.56 201.356 L1695.23 201.356 L1695.23 231.981 L1712.06 231.981 L1712.06 235.916 L1690.56 235.916 L1690.56 201.356 Z" fill="#000000" fill-rule="nonzero" fill-opacity="1" /><path clip-path="url(#clip370)" d="M1716.97 201.356 L1723.94 201.356 L1732.76 224.874 L1741.62 201.356 L1748.59 201.356 L1748.59 235.916 L1744.03 235.916 L1744.03 205.569 L1735.12 229.272 L1730.42 229.272 L1721.51 205.569 L1721.51 235.916 L1716.97 235.916 L1716.97 201.356 Z" fill="#000000" fill-rule="nonzero" fill-opacity="1" /><path clip-path="url(#clip370)" d="M1777.39 243.786 L1777.39 247.096 L1752.76 247.096 L1752.76 243.786 L1777.39 243.786 Z" fill="#000000" fill-rule="nonzero" fill-opacity="1" /><path clip-path="url(#clip370)" d="M1793.13 205.962 L1786.78 223.161 L1799.49 223.161 L1793.13 205.962 M1790.49 201.356 L1795.79 201.356 L1808.96 235.916 L1804.1 235.916 L1800.95 227.05 L1785.37 227.05 L1782.22 235.916 L1777.29 235.916 L1790.49 201.356 Z" fill="#000000" fill-rule="nonzero" fill-opacity="1" /><path clip-path="url(#clip370)" d="M1835.37 220.268 L1835.37 235.916 L1831.11 235.916 L1831.11 220.407 Q1831.11 216.726 1829.68 214.897 Q1828.24 213.069 1825.37 213.069 Q1821.92 213.069 1819.93 215.268 Q1817.94 217.467 1817.94 221.263 L1817.94 235.916 L1813.66 235.916 L1813.66 209.99 L1817.94 209.99 L1817.94 214.018 Q1819.47 211.68 1821.53 210.522 Q1823.61 209.365 1826.32 209.365 Q1830.79 209.365 1833.08 212.143 Q1835.37 214.897 1835.37 220.268 Z" fill="#000000" fill-rule="nonzero" fill-opacity="1" /><path clip-path="url(#clip370)" d="M1860.93 213.925 L1860.93 199.897 L1865.19 199.897 L1865.19 235.916 L1860.93 235.916 L1860.93 232.027 Q1859.58 234.342 1857.52 235.476 Q1855.49 236.587 1852.62 236.587 Q1847.92 236.587 1844.95 232.837 Q1842.01 229.087 1842.01 222.976 Q1842.01 216.865 1844.95 213.115 Q1847.92 209.365 1852.62 209.365 Q1855.49 209.365 1857.52 210.499 Q1859.58 211.61 1860.93 213.925 M1846.41 222.976 Q1846.41 227.675 1848.33 230.36 Q1850.28 233.022 1853.66 233.022 Q1857.04 233.022 1858.98 230.36 Q1860.93 227.675 1860.93 222.976 Q1860.93 218.277 1858.98 215.615 Q1857.04 212.93 1853.66 212.93 Q1850.28 212.93 1848.33 215.615 Q1846.41 218.277 1846.41 222.976 Z" fill="#000000" fill-rule="nonzero" fill-opacity="1" /><path clip-path="url(#clip370)" d="M1888.98 213.971 Q1888.26 213.555 1887.41 213.37 Q1886.57 213.161 1885.56 213.161 Q1881.94 213.161 1880 215.522 Q1878.08 217.86 1878.08 222.258 L1878.08 235.916 L1873.8 235.916 L1873.8 209.99 L1878.08 209.99 L1878.08 214.018 Q1879.42 211.657 1881.57 210.522 Q1883.73 209.365 1886.81 209.365 Q1887.25 209.365 1887.78 209.434 Q1888.31 209.481 1888.96 209.596 L1888.98 213.971 Z" fill="#000000" fill-rule="nonzero" fill-opacity="1" /><path clip-path="url(#clip370)" d="M1914.58 221.888 L1914.58 223.971 L1895 223.971 Q1895.28 228.369 1897.64 230.684 Q1900.02 232.976 1904.26 232.976 Q1906.71 232.976 1909 232.374 Q1911.32 231.772 1913.59 230.569 L1913.59 234.596 Q1911.3 235.568 1908.89 236.078 Q1906.48 236.587 1904 236.587 Q1897.8 236.587 1894.17 232.976 Q1890.56 229.365 1890.56 223.207 Q1890.56 216.842 1893.98 213.115 Q1897.43 209.365 1903.26 209.365 Q1908.5 209.365 1911.53 212.745 Q1914.58 216.101 1914.58 221.888 M1910.32 220.638 Q1910.28 217.143 1908.36 215.059 Q1906.46 212.976 1903.31 212.976 Q1899.75 212.976 1897.59 214.99 Q1895.46 217.004 1895.14 220.661 L1910.32 220.638 Z" fill="#000000" fill-rule="nonzero" fill-opacity="1" /><path clip-path="url(#clip370)" d="M1921.57 209.99 L1925.83 209.99 L1925.83 235.916 L1921.57 235.916 L1921.57 209.99 M1921.57 199.897 L1925.83 199.897 L1925.83 205.291 L1921.57 205.291 L1921.57 199.897 Z" fill="#000000" fill-rule="nonzero" fill-opacity="1" /><path clip-path="url(#clip370)" d="M1954.44 243.786 L1954.44 247.096 L1929.81 247.096 L1929.81 243.786 L1954.44 243.786 Z" fill="#000000" fill-rule="nonzero" fill-opacity="1" /><path clip-path="url(#clip370)" d="M1970.23 222.883 Q1965.07 222.883 1963.08 224.064 Q1961.09 225.244 1961.09 228.092 Q1961.09 230.36 1962.57 231.703 Q1964.07 233.022 1966.64 233.022 Q1970.19 233.022 1972.31 230.522 Q1974.47 227.999 1974.47 223.832 L1974.47 222.883 L1970.23 222.883 M1978.73 221.124 L1978.73 235.916 L1974.47 235.916 L1974.47 231.981 Q1973.01 234.342 1970.83 235.476 Q1968.66 236.587 1965.51 236.587 Q1961.53 236.587 1959.17 234.365 Q1956.83 232.119 1956.83 228.369 Q1956.83 223.994 1959.75 221.772 Q1962.69 219.55 1968.5 219.55 L1974.47 219.55 L1974.47 219.133 Q1974.47 216.194 1972.52 214.596 Q1970.6 212.976 1967.11 212.976 Q1964.88 212.976 1962.78 213.508 Q1960.67 214.041 1958.73 215.106 L1958.73 211.17 Q1961.06 210.268 1963.26 209.828 Q1965.46 209.365 1967.55 209.365 Q1973.17 209.365 1975.95 212.282 Q1978.73 215.198 1978.73 221.124 Z" fill="#000000" fill-rule="nonzero" fill-opacity="1" /><path clip-path="url(#clip370)" d="M1987.5 199.897 L1991.76 199.897 L1991.76 235.916 L1987.5 235.916 L1987.5 199.897 Z" fill="#000000" fill-rule="nonzero" fill-opacity="1" /><path clip-path="url(#clip370)" d="M2004.88 202.629 L2004.88 209.99 L2013.66 209.99 L2013.66 213.3 L2004.88 213.3 L2004.88 227.374 Q2004.88 230.545 2005.74 231.448 Q2006.62 232.351 2009.28 232.351 L2013.66 232.351 L2013.66 235.916 L2009.28 235.916 Q2004.35 235.916 2002.48 234.087 Q2000.6 232.235 2000.6 227.374 L2000.6 213.3 L1997.48 213.3 L1997.48 209.99 L2000.6 209.99 L2000.6 202.629 L2004.88 202.629 Z" fill="#000000" fill-rule="nonzero" fill-opacity="1" /><polyline clip-path="url(#clip370)" style="stroke:#e26f46; stroke-linecap:round; stroke-linejoin:round; stroke-width:4; stroke-opacity:1; fill:none" points="1531.96,270.476 1667.9,270.476 "/>
<path clip-path="url(#clip370)" d="M1690.56 253.196 L1695.23 253.196 L1695.23 283.821 L1712.06 283.821 L1712.06 287.756 L1690.56 287.756 L1690.56 253.196 Z" fill="#000000" fill-rule="nonzero" fill-opacity="1" /><path clip-path="url(#clip370)" d="M1716.97 253.196 L1723.94 253.196 L1732.76 276.714 L1741.62 253.196 L1748.59 253.196 L1748.59 287.756 L1744.03 287.756 L1744.03 257.409 L1735.12 281.112 L1730.42 281.112 L1721.51 257.409 L1721.51 287.756 L1716.97 287.756 L1716.97 253.196 Z" fill="#000000" fill-rule="nonzero" fill-opacity="1" /><path clip-path="url(#clip370)" d="M1777.39 295.626 L1777.39 298.936 L1752.76 298.936 L1752.76 295.626 L1777.39 295.626 Z" fill="#000000" fill-rule="nonzero" fill-opacity="1" /><path clip-path="url(#clip370)" d="M1793.13 257.802 L1786.78 275.001 L1799.49 275.001 L1793.13 257.802 M1790.49 253.196 L1795.79 253.196 L1808.96 287.756 L1804.1 287.756 L1800.95 278.89 L1785.37 278.89 L1782.22 287.756 L1777.29 287.756 L1790.49 253.196 Z" fill="#000000" fill-rule="nonzero" fill-opacity="1" /><path clip-path="url(#clip370)" d="M1835.37 272.108 L1835.37 287.756 L1831.11 287.756 L1831.11 272.247 Q1831.11 268.566 1829.68 266.737 Q1828.24 264.909 1825.37 264.909 Q1821.92 264.909 1819.93 267.108 Q1817.94 269.307 1817.94 273.103 L1817.94 287.756 L1813.66 287.756 L1813.66 261.83 L1817.94 261.83 L1817.94 265.858 Q1819.47 263.52 1821.53 262.362 Q1823.61 261.205 1826.32 261.205 Q1830.79 261.205 1833.08 263.983 Q1835.37 266.737 1835.37 272.108 Z" fill="#000000" fill-rule="nonzero" fill-opacity="1" /><path clip-path="url(#clip370)" d="M1860.93 265.765 L1860.93 251.737 L1865.19 251.737 L1865.19 287.756 L1860.93 287.756 L1860.93 283.867 Q1859.58 286.182 1857.52 287.316 Q1855.49 288.427 1852.62 288.427 Q1847.92 288.427 1844.95 284.677 Q1842.01 280.927 1842.01 274.816 Q1842.01 268.705 1844.95 264.955 Q1847.92 261.205 1852.62 261.205 Q1855.49 261.205 1857.52 262.339 Q1859.58 263.45 1860.93 265.765 M1846.41 274.816 Q1846.41 279.515 1848.33 282.2 Q1850.28 284.862 1853.66 284.862 Q1857.04 284.862 1858.98 282.2 Q1860.93 279.515 1860.93 274.816 Q1860.93 270.117 1858.98 267.455 Q1857.04 264.77 1853.66 264.77 Q1850.28 264.77 1848.33 267.455 Q1846.41 270.117 1846.41 274.816 Z" fill="#000000" fill-rule="nonzero" fill-opacity="1" /><path clip-path="url(#clip370)" d="M1888.98 265.811 Q1888.26 265.395 1887.41 265.21 Q1886.57 265.001 1885.56 265.001 Q1881.94 265.001 1880 267.362 Q1878.08 269.7 1878.08 274.098 L1878.08 287.756 L1873.8 287.756 L1873.8 261.83 L1878.08 261.83 L1878.08 265.858 Q1879.42 263.497 1881.57 262.362 Q1883.73 261.205 1886.81 261.205 Q1887.25 261.205 1887.78 261.274 Q1888.31 261.321 1888.96 261.436 L1888.98 265.811 Z" fill="#000000" fill-rule="nonzero" fill-opacity="1" /><path clip-path="url(#clip370)" d="M1914.58 273.728 L1914.58 275.811 L1895 275.811 Q1895.28 280.209 1897.64 282.524 Q1900.02 284.816 1904.26 284.816 Q1906.71 284.816 1909 284.214 Q1911.32 283.612 1913.59 282.409 L1913.59 286.436 Q1911.3 287.408 1908.89 287.918 Q1906.48 288.427 1904 288.427 Q1897.8 288.427 1894.17 284.816 Q1890.56 281.205 1890.56 275.047 Q1890.56 268.682 1893.98 264.955 Q1897.43 261.205 1903.26 261.205 Q1908.5 261.205 1911.53 264.585 Q1914.58 267.941 1914.58 273.728 M1910.32 272.478 Q1910.28 268.983 1908.36 266.899 Q1906.46 264.816 1903.31 264.816 Q1899.75 264.816 1897.59 266.83 Q1895.46 268.844 1895.14 272.501 L1910.32 272.478 Z" fill="#000000" fill-rule="nonzero" fill-opacity="1" /><path clip-path="url(#clip370)" d="M1921.57 261.83 L1925.83 261.83 L1925.83 287.756 L1921.57 287.756 L1921.57 261.83 M1921.57 251.737 L1925.83 251.737 L1925.83 257.131 L1921.57 257.131 L1921.57 251.737 Z" fill="#000000" fill-rule="nonzero" fill-opacity="1" /><path clip-path="url(#clip370)" d="M1954.44 295.626 L1954.44 298.936 L1929.81 298.936 L1929.81 295.626 L1954.44 295.626 Z" fill="#000000" fill-rule="nonzero" fill-opacity="1" /><path clip-path="url(#clip370)" d="M1970.23 274.723 Q1965.07 274.723 1963.08 275.904 Q1961.09 277.084 1961.09 279.932 Q1961.09 282.2 1962.57 283.543 Q1964.07 284.862 1966.64 284.862 Q1970.19 284.862 1972.31 282.362 Q1974.47 279.839 1974.47 275.672 L1974.47 274.723 L1970.23 274.723 M1978.73 272.964 L1978.73 287.756 L1974.47 287.756 L1974.47 283.821 Q1973.01 286.182 1970.83 287.316 Q1968.66 288.427 1965.51 288.427 Q1961.53 288.427 1959.17 286.205 Q1956.83 283.959 1956.83 280.209 Q1956.83 275.834 1959.75 273.612 Q1962.69 271.39 1968.5 271.39 L1974.47 271.39 L1974.47 270.973 Q1974.47 268.034 1972.52 266.436 Q1970.6 264.816 1967.11 264.816 Q1964.88 264.816 1962.78 265.348 Q1960.67 265.881 1958.73 266.946 L1958.73 263.01 Q1961.06 262.108 1963.26 261.668 Q1965.46 261.205 1967.55 261.205 Q1973.17 261.205 1975.95 264.122 Q1978.73 267.038 1978.73 272.964 Z" fill="#000000" fill-rule="nonzero" fill-opacity="1" /><path clip-path="url(#clip370)" d="M1987.5 251.737 L1991.76 251.737 L1991.76 287.756 L1987.5 287.756 L1987.5 251.737 Z" fill="#000000" fill-rule="nonzero" fill-opacity="1" /><path clip-path="url(#clip370)" d="M2004.88 254.469 L2004.88 261.83 L2013.66 261.83 L2013.66 265.14 L2004.88 265.14 L2004.88 279.214 Q2004.88 282.385 2005.74 283.288 Q2006.62 284.191 2009.28 284.191 L2013.66 284.191 L2013.66 287.756 L2009.28 287.756 Q2004.35 287.756 2002.48 285.927 Q2000.6 284.075 2000.6 279.214 L2000.6 265.14 L1997.48 265.14 L1997.48 261.83 L2000.6 261.83 L2000.6 254.469 L2004.88 254.469 Z" fill="#000000" fill-rule="nonzero" fill-opacity="1" /><path clip-path="url(#clip370)" d="M2038.96 295.626 L2038.96 298.936 L2014.33 298.936 L2014.33 295.626 L2038.96 295.626 Z" fill="#000000" fill-rule="nonzero" fill-opacity="1" /><path clip-path="url(#clip370)" d="M2045.51 274.816 Q2045.51 279.515 2047.43 282.2 Q2049.37 284.862 2052.75 284.862 Q2056.13 284.862 2058.08 282.2 Q2060.02 279.515 2060.02 274.816 Q2060.02 270.117 2058.08 267.455 Q2056.13 264.77 2052.75 264.77 Q2049.37 264.77 2047.43 267.455 Q2045.51 270.117 2045.51 274.816 M2060.02 283.867 Q2058.68 286.182 2056.62 287.316 Q2054.58 288.427 2051.71 288.427 Q2047.01 288.427 2044.05 284.677 Q2041.11 280.927 2041.11 274.816 Q2041.11 268.705 2044.05 264.955 Q2047.01 261.205 2051.71 261.205 Q2054.58 261.205 2056.62 262.339 Q2058.68 263.45 2060.02 265.765 L2060.02 261.83 L2064.28 261.83 L2064.28 297.617 L2060.02 297.617 L2060.02 283.867 Z" fill="#000000" fill-rule="nonzero" fill-opacity="1" /><path clip-path="url(#clip370)" d="M2088.08 265.811 Q2087.36 265.395 2086.5 265.21 Q2085.67 265.001 2084.65 265.001 Q2081.04 265.001 2079.1 267.362 Q2077.18 269.7 2077.18 274.098 L2077.18 287.756 L2072.89 287.756 L2072.89 261.83 L2077.18 261.83 L2077.18 265.858 Q2078.52 263.497 2080.67 262.362 Q2082.82 261.205 2085.9 261.205 Q2086.34 261.205 2086.87 261.274 Q2087.41 261.321 2088.05 261.436 L2088.08 265.811 Z" fill="#000000" fill-rule="nonzero" fill-opacity="1" /><path clip-path="url(#clip370)" d="M2111.9 266.807 Q2113.49 263.936 2115.72 262.571 Q2117.94 261.205 2120.95 261.205 Q2125 261.205 2127.2 264.052 Q2129.4 266.876 2129.4 272.108 L2129.4 287.756 L2125.11 287.756 L2125.11 272.247 Q2125.11 268.52 2123.8 266.714 Q2122.48 264.909 2119.77 264.909 Q2116.46 264.909 2114.54 267.108 Q2112.61 269.307 2112.61 273.103 L2112.61 287.756 L2108.33 287.756 L2108.33 272.247 Q2108.33 268.497 2107.01 266.714 Q2105.69 264.909 2102.94 264.909 Q2099.68 264.909 2097.75 267.131 Q2095.83 269.33 2095.83 273.103 L2095.83 287.756 L2091.55 287.756 L2091.55 261.83 L2095.83 261.83 L2095.83 265.858 Q2097.29 263.473 2099.33 262.339 Q2101.36 261.205 2104.17 261.205 Q2106.99 261.205 2108.96 262.64 Q2110.95 264.075 2111.9 266.807 Z" fill="#000000" fill-rule="nonzero" fill-opacity="1" /><path clip-path="url(#clip370)" d="M2137.45 277.524 L2137.45 261.83 L2141.71 261.83 L2141.71 277.362 Q2141.71 281.043 2143.15 282.895 Q2144.58 284.723 2147.45 284.723 Q2150.9 284.723 2152.89 282.524 Q2154.91 280.325 2154.91 276.529 L2154.91 261.83 L2159.17 261.83 L2159.17 287.756 L2154.91 287.756 L2154.91 283.774 Q2153.36 286.135 2151.3 287.293 Q2149.26 288.427 2146.55 288.427 Q2142.08 288.427 2139.77 285.649 Q2137.45 282.871 2137.45 277.524 M2148.17 261.205 L2148.17 261.205 Z" fill="#000000" fill-rule="nonzero" fill-opacity="1" /><path clip-path="url(#clip370)" d="M2188.12 266.807 Q2189.72 263.936 2191.94 262.571 Q2194.17 261.205 2197.17 261.205 Q2201.23 261.205 2203.42 264.052 Q2205.62 266.876 2205.62 272.108 L2205.62 287.756 L2201.34 287.756 L2201.34 272.247 Q2201.34 268.52 2200.02 266.714 Q2198.7 264.909 2195.99 264.909 Q2192.68 264.909 2190.76 267.108 Q2188.84 269.307 2188.84 273.103 L2188.84 287.756 L2184.56 287.756 L2184.56 272.247 Q2184.56 268.497 2183.24 266.714 Q2181.92 264.909 2179.17 264.909 Q2175.9 264.909 2173.98 267.131 Q2172.06 269.33 2172.06 273.103 L2172.06 287.756 L2167.78 287.756 L2167.78 261.83 L2172.06 261.83 L2172.06 265.858 Q2173.52 263.473 2175.55 262.339 Q2177.59 261.205 2180.39 261.205 Q2183.22 261.205 2185.18 262.64 Q2187.17 264.075 2188.12 266.807 Z" fill="#000000" fill-rule="nonzero" fill-opacity="1" /><path clip-path="url(#clip370)" d="M2218.24 283.867 L2218.24 297.617 L2213.96 297.617 L2213.96 261.83 L2218.24 261.83 L2218.24 265.765 Q2219.58 263.45 2221.62 262.339 Q2223.68 261.205 2226.53 261.205 Q2231.25 261.205 2234.19 264.955 Q2237.15 268.705 2237.15 274.816 Q2237.15 280.927 2234.19 284.677 Q2231.25 288.427 2226.53 288.427 Q2223.68 288.427 2221.62 287.316 Q2219.58 286.182 2218.24 283.867 M2232.73 274.816 Q2232.73 270.117 2230.79 267.455 Q2228.86 264.77 2225.48 264.77 Q2222.1 264.77 2220.16 267.455 Q2218.24 270.117 2218.24 274.816 Q2218.24 279.515 2220.16 282.2 Q2222.1 284.862 2225.48 284.862 Q2228.86 284.862 2230.79 282.2 Q2232.73 279.515 2232.73 274.816 Z" fill="#000000" fill-rule="nonzero" fill-opacity="1" /><path clip-path="url(#clip370)" d="M2260.74 262.594 L2260.74 266.622 Q2258.93 265.696 2256.99 265.233 Q2255.04 264.77 2252.96 264.77 Q2249.79 264.77 2248.19 265.742 Q2246.62 266.714 2246.62 268.659 Q2246.62 270.14 2247.75 270.997 Q2248.89 271.83 2252.31 272.594 L2253.77 272.918 Q2258.31 273.89 2260.21 275.672 Q2262.13 277.432 2262.13 280.603 Q2262.13 284.214 2259.26 286.321 Q2256.41 288.427 2251.41 288.427 Q2249.33 288.427 2247.06 288.01 Q2244.81 287.617 2242.31 286.807 L2242.31 282.409 Q2244.67 283.635 2246.97 284.26 Q2249.26 284.862 2251.5 284.862 Q2254.51 284.862 2256.13 283.844 Q2257.75 282.802 2257.75 280.927 Q2257.75 279.191 2256.57 278.265 Q2255.41 277.339 2251.46 276.483 L2249.98 276.135 Q2246.02 275.302 2244.26 273.589 Q2242.5 271.853 2242.5 268.844 Q2242.5 265.186 2245.09 263.196 Q2247.68 261.205 2252.45 261.205 Q2254.81 261.205 2256.9 261.552 Q2258.98 261.899 2260.74 262.594 Z" fill="#000000" fill-rule="nonzero" fill-opacity="1" /></svg>
