<?xml version="1.0" encoding="utf-8"?>
<svg xmlns="http://www.w3.org/2000/svg" xmlns:xlink="http://www.w3.org/1999/xlink" width="600" height="400" viewBox="0 0 2400 1600">
<defs>
  <clipPath id="clip330">
    <rect x="0" y="0" width="2400" height="1600"/>
  </clipPath>
</defs>
<path clip-path="url(#clip330)" d="M0 1600 L2400 1600 L2400 0 L0 0  Z" fill="#ffffff" fill-rule="evenodd" fill-opacity="1"/>
<defs>
  <clipPath id="clip331">
    <rect x="480" y="0" width="1681" height="1600"/>
  </clipPath>
</defs>
<path clip-path="url(#clip330)" d="M256.62 1423.18 L2352.76 1423.18 L2352.76 123.472 L256.62 123.472  Z" fill="#ffffff" fill-rule="evenodd" fill-opacity="1"/>
<defs>
  <clipPath id="clip332">
    <rect x="256" y="123" width="2097" height="1301"/>
  </clipPath>
</defs>
<polyline clip-path="url(#clip332)" style="stroke:#000000; stroke-linecap:round; stroke-linejoin:round; stroke-width:2; stroke-opacity:0.1; fill:none" points="315.944,1423.18 315.944,123.472 "/>
<polyline clip-path="url(#clip332)" style="stroke:#000000; stroke-linecap:round; stroke-linejoin:round; stroke-width:2; stroke-opacity:0.1; fill:none" points="810.316,1423.18 810.316,123.472 "/>
<polyline clip-path="url(#clip332)" style="stroke:#000000; stroke-linecap:round; stroke-linejoin:round; stroke-width:2; stroke-opacity:0.1; fill:none" points="1304.69,1423.18 1304.69,123.472 "/>
<polyline clip-path="url(#clip332)" style="stroke:#000000; stroke-linecap:round; stroke-linejoin:round; stroke-width:2; stroke-opacity:0.1; fill:none" points="1799.06,1423.18 1799.06,123.472 "/>
<polyline clip-path="url(#clip332)" style="stroke:#000000; stroke-linecap:round; stroke-linejoin:round; stroke-width:2; stroke-opacity:0.1; fill:none" points="2293.43,1423.18 2293.43,123.472 "/>
<polyline clip-path="url(#clip330)" style="stroke:#000000; stroke-linecap:round; stroke-linejoin:round; stroke-width:4; stroke-opacity:1; fill:none" points="256.62,1423.18 2352.76,1423.18 "/>
<polyline clip-path="url(#clip330)" style="stroke:#000000; stroke-linecap:round; stroke-linejoin:round; stroke-width:4; stroke-opacity:1; fill:none" points="315.944,1423.18 315.944,1404.28 "/>
<polyline clip-path="url(#clip330)" style="stroke:#000000; stroke-linecap:round; stroke-linejoin:round; stroke-width:4; stroke-opacity:1; fill:none" points="810.316,1423.18 810.316,1404.28 "/>
<polyline clip-path="url(#clip330)" style="stroke:#000000; stroke-linecap:round; stroke-linejoin:round; stroke-width:4; stroke-opacity:1; fill:none" points="1304.69,1423.18 1304.69,1404.28 "/>
<polyline clip-path="url(#clip330)" style="stroke:#000000; stroke-linecap:round; stroke-linejoin:round; stroke-width:4; stroke-opacity:1; fill:none" points="1799.06,1423.18 1799.06,1404.28 "/>
<polyline clip-path="url(#clip330)" style="stroke:#000000; stroke-linecap:round; stroke-linejoin:round; stroke-width:4; stroke-opacity:1; fill:none" points="2293.43,1423.18 2293.43,1404.28 "/>
<path clip-path="url(#clip330)" d="M268.016 1481.64 L275.655 1481.64 L275.655 1455.28 L267.345 1456.95 L267.345 1452.69 L275.609 1451.02 L280.285 1451.02 L280.285 1481.64 L287.923 1481.64 L287.923 1485.58 L268.016 1485.58 L268.016 1481.64 Z" fill="#000000" fill-rule="nonzero" fill-opacity="1" /><path clip-path="url(#clip330)" d="M297.368 1479.7 L302.252 1479.7 L302.252 1485.58 L297.368 1485.58 L297.368 1479.7 Z" fill="#000000" fill-rule="nonzero" fill-opacity="1" /><path clip-path="url(#clip330)" d="M322.437 1454.1 Q318.826 1454.1 316.997 1457.66 Q315.192 1461.2 315.192 1468.33 Q315.192 1475.44 316.997 1479.01 Q318.826 1482.55 322.437 1482.55 Q326.071 1482.55 327.877 1479.01 Q329.706 1475.44 329.706 1468.33 Q329.706 1461.2 327.877 1457.66 Q326.071 1454.1 322.437 1454.1 M322.437 1450.39 Q328.247 1450.39 331.303 1455 Q334.382 1459.58 334.382 1468.33 Q334.382 1477.06 331.303 1481.67 Q328.247 1486.25 322.437 1486.25 Q316.627 1486.25 313.548 1481.67 Q310.493 1477.06 310.493 1468.33 Q310.493 1459.58 313.548 1455 Q316.627 1450.39 322.437 1450.39 Z" fill="#000000" fill-rule="nonzero" fill-opacity="1" /><path clip-path="url(#clip330)" d="M352.599 1454.1 Q348.988 1454.1 347.159 1457.66 Q345.354 1461.2 345.354 1468.33 Q345.354 1475.44 347.159 1479.01 Q348.988 1482.55 352.599 1482.55 Q356.233 1482.55 358.039 1479.01 Q359.868 1475.44 359.868 1468.33 Q359.868 1461.2 358.039 1457.66 Q356.233 1454.1 352.599 1454.1 M352.599 1450.39 Q358.409 1450.39 361.465 1455 Q364.543 1459.58 364.543 1468.33 Q364.543 1477.06 361.465 1481.67 Q358.409 1486.25 352.599 1486.25 Q346.789 1486.25 343.71 1481.67 Q340.655 1477.06 340.655 1468.33 Q340.655 1459.58 343.71 1455 Q346.789 1450.39 352.599 1450.39 Z" fill="#000000" fill-rule="nonzero" fill-opacity="1" /><path clip-path="url(#clip330)" d="M762.886 1481.64 L770.524 1481.64 L770.524 1455.28 L762.214 1456.95 L762.214 1452.69 L770.478 1451.02 L775.154 1451.02 L775.154 1481.64 L782.793 1481.64 L782.793 1485.58 L762.886 1485.58 L762.886 1481.64 Z" fill="#000000" fill-rule="nonzero" fill-opacity="1" /><path clip-path="url(#clip330)" d="M792.237 1479.7 L797.122 1479.7 L797.122 1485.58 L792.237 1485.58 L792.237 1479.7 Z" fill="#000000" fill-rule="nonzero" fill-opacity="1" /><path clip-path="url(#clip330)" d="M811.334 1481.64 L827.654 1481.64 L827.654 1485.58 L805.709 1485.58 L805.709 1481.64 Q808.372 1478.89 812.955 1474.26 Q817.561 1469.61 818.742 1468.27 Q820.987 1465.74 821.867 1464.01 Q822.77 1462.25 822.77 1460.56 Q822.77 1457.8 820.825 1456.07 Q818.904 1454.33 815.802 1454.33 Q813.603 1454.33 811.149 1455.09 Q808.719 1455.86 805.941 1457.41 L805.941 1452.69 Q808.765 1451.55 811.219 1450.97 Q813.672 1450.39 815.709 1450.39 Q821.08 1450.39 824.274 1453.08 Q827.469 1455.77 827.469 1460.26 Q827.469 1462.39 826.658 1464.31 Q825.871 1466.2 823.765 1468.8 Q823.186 1469.47 820.084 1472.69 Q816.983 1475.88 811.334 1481.64 Z" fill="#000000" fill-rule="nonzero" fill-opacity="1" /><path clip-path="url(#clip330)" d="M837.515 1451.02 L855.871 1451.02 L855.871 1454.96 L841.797 1454.96 L841.797 1463.43 Q842.816 1463.08 843.834 1462.92 Q844.853 1462.73 845.871 1462.73 Q851.658 1462.73 855.038 1465.9 Q858.418 1469.08 858.418 1474.49 Q858.418 1480.07 854.945 1483.17 Q851.473 1486.25 845.154 1486.25 Q842.978 1486.25 840.709 1485.88 Q838.464 1485.51 836.057 1484.77 L836.057 1480.07 Q838.14 1481.2 840.362 1481.76 Q842.584 1482.32 845.061 1482.32 Q849.066 1482.32 851.404 1480.21 Q853.742 1478.1 853.742 1474.49 Q853.742 1470.88 851.404 1468.77 Q849.066 1466.67 845.061 1466.67 Q843.186 1466.67 841.311 1467.08 Q839.459 1467.5 837.515 1468.38 L837.515 1451.02 Z" fill="#000000" fill-rule="nonzero" fill-opacity="1" /><path clip-path="url(#clip330)" d="M1256.76 1481.64 L1264.4 1481.64 L1264.4 1455.28 L1256.09 1456.95 L1256.09 1452.69 L1264.35 1451.02 L1269.03 1451.02 L1269.03 1481.64 L1276.67 1481.64 L1276.67 1485.58 L1256.76 1485.58 L1256.76 1481.64 Z" fill="#000000" fill-rule="nonzero" fill-opacity="1" /><path clip-path="url(#clip330)" d="M1286.11 1479.7 L1291 1479.7 L1291 1485.58 L1286.11 1485.58 L1286.11 1479.7 Z" fill="#000000" fill-rule="nonzero" fill-opacity="1" /><path clip-path="url(#clip330)" d="M1301.23 1451.02 L1319.58 1451.02 L1319.58 1454.96 L1305.51 1454.96 L1305.51 1463.43 Q1306.53 1463.08 1307.55 1462.92 Q1308.57 1462.73 1309.58 1462.73 Q1315.37 1462.73 1318.75 1465.9 Q1322.13 1469.08 1322.13 1474.49 Q1322.13 1480.07 1318.66 1483.17 Q1315.19 1486.25 1308.87 1486.25 Q1306.69 1486.25 1304.42 1485.88 Q1302.18 1485.51 1299.77 1484.77 L1299.77 1480.07 Q1301.85 1481.2 1304.07 1481.76 Q1306.3 1482.32 1308.77 1482.32 Q1312.78 1482.32 1315.12 1480.21 Q1317.45 1478.1 1317.45 1474.49 Q1317.45 1470.88 1315.12 1468.77 Q1312.78 1466.67 1308.77 1466.67 Q1306.9 1466.67 1305.02 1467.08 Q1303.17 1467.5 1301.23 1468.38 L1301.23 1451.02 Z" fill="#000000" fill-rule="nonzero" fill-opacity="1" /><path clip-path="url(#clip330)" d="M1341.34 1454.1 Q1337.73 1454.1 1335.9 1457.66 Q1334.1 1461.2 1334.1 1468.33 Q1334.1 1475.44 1335.9 1479.01 Q1337.73 1482.55 1341.34 1482.55 Q1344.98 1482.55 1346.78 1479.01 Q1348.61 1475.44 1348.61 1468.33 Q1348.61 1461.2 1346.78 1457.66 Q1344.98 1454.1 1341.34 1454.1 M1341.34 1450.39 Q1347.15 1450.39 1350.21 1455 Q1353.29 1459.58 1353.29 1468.33 Q1353.29 1477.06 1350.21 1481.67 Q1347.15 1486.25 1341.34 1486.25 Q1335.53 1486.25 1332.45 1481.67 Q1329.4 1477.06 1329.4 1468.33 Q1329.4 1459.58 1332.45 1455 Q1335.53 1450.39 1341.34 1450.39 Z" fill="#000000" fill-rule="nonzero" fill-opacity="1" /><path clip-path="url(#clip330)" d="M1751.63 1481.64 L1759.27 1481.64 L1759.27 1455.28 L1750.96 1456.95 L1750.96 1452.69 L1759.22 1451.02 L1763.9 1451.02 L1763.9 1481.64 L1771.54 1481.64 L1771.54 1485.58 L1751.63 1485.58 L1751.63 1481.64 Z" fill="#000000" fill-rule="nonzero" fill-opacity="1" /><path clip-path="url(#clip330)" d="M1780.98 1479.7 L1785.87 1479.7 L1785.87 1485.58 L1780.98 1485.58 L1780.98 1479.7 Z" fill="#000000" fill-rule="nonzero" fill-opacity="1" /><path clip-path="url(#clip330)" d="M1794.87 1451.02 L1817.09 1451.02 L1817.09 1453.01 L1804.55 1485.58 L1799.66 1485.58 L1811.47 1454.96 L1794.87 1454.96 L1794.87 1451.02 Z" fill="#000000" fill-rule="nonzero" fill-opacity="1" /><path clip-path="url(#clip330)" d="M1826.26 1451.02 L1844.61 1451.02 L1844.61 1454.96 L1830.54 1454.96 L1830.54 1463.43 Q1831.56 1463.08 1832.58 1462.92 Q1833.6 1462.73 1834.61 1462.73 Q1840.4 1462.73 1843.78 1465.9 Q1847.16 1469.08 1847.16 1474.49 Q1847.16 1480.07 1843.69 1483.17 Q1840.22 1486.25 1833.9 1486.25 Q1831.72 1486.25 1829.45 1485.88 Q1827.21 1485.51 1824.8 1484.77 L1824.8 1480.07 Q1826.88 1481.2 1829.11 1481.76 Q1831.33 1482.32 1833.8 1482.32 Q1837.81 1482.32 1840.15 1480.21 Q1842.49 1478.1 1842.49 1474.49 Q1842.49 1470.88 1840.15 1468.77 Q1837.81 1466.67 1833.8 1466.67 Q1831.93 1466.67 1830.05 1467.08 Q1828.2 1467.5 1826.26 1468.38 L1826.26 1451.02 Z" fill="#000000" fill-rule="nonzero" fill-opacity="1" /><path clip-path="url(#clip330)" d="M2249.59 1481.64 L2265.91 1481.64 L2265.91 1485.58 L2243.96 1485.58 L2243.96 1481.64 Q2246.63 1478.89 2251.21 1474.26 Q2255.82 1469.61 2257 1468.27 Q2259.24 1465.74 2260.12 1464.01 Q2261.02 1462.25 2261.02 1460.56 Q2261.02 1457.8 2259.08 1456.07 Q2257.16 1454.33 2254.06 1454.33 Q2251.86 1454.33 2249.4 1455.09 Q2246.97 1455.86 2244.2 1457.41 L2244.2 1452.69 Q2247.02 1451.55 2249.47 1450.97 Q2251.93 1450.39 2253.96 1450.39 Q2259.33 1450.39 2262.53 1453.08 Q2265.72 1455.77 2265.72 1460.26 Q2265.72 1462.39 2264.91 1464.31 Q2264.13 1466.2 2262.02 1468.8 Q2261.44 1469.47 2258.34 1472.69 Q2255.24 1475.88 2249.59 1481.64 Z" fill="#000000" fill-rule="nonzero" fill-opacity="1" /><path clip-path="url(#clip330)" d="M2275.72 1479.7 L2280.61 1479.7 L2280.61 1485.58 L2275.72 1485.58 L2275.72 1479.7 Z" fill="#000000" fill-rule="nonzero" fill-opacity="1" /><path clip-path="url(#clip330)" d="M2300.79 1454.1 Q2297.18 1454.1 2295.35 1457.66 Q2293.55 1461.2 2293.55 1468.33 Q2293.55 1475.44 2295.35 1479.01 Q2297.18 1482.55 2300.79 1482.55 Q2304.43 1482.55 2306.23 1479.01 Q2308.06 1475.44 2308.06 1468.33 Q2308.06 1461.2 2306.23 1457.66 Q2304.43 1454.1 2300.79 1454.1 M2300.79 1450.39 Q2306.6 1450.39 2309.66 1455 Q2312.74 1459.58 2312.74 1468.33 Q2312.74 1477.06 2309.66 1481.67 Q2306.6 1486.25 2300.79 1486.25 Q2294.98 1486.25 2291.9 1481.67 Q2288.85 1477.06 2288.85 1468.33 Q2288.85 1459.58 2291.9 1455 Q2294.98 1450.39 2300.79 1450.39 Z" fill="#000000" fill-rule="nonzero" fill-opacity="1" /><path clip-path="url(#clip330)" d="M2330.95 1454.1 Q2327.34 1454.1 2325.51 1457.66 Q2323.71 1461.2 2323.71 1468.33 Q2323.71 1475.44 2325.51 1479.01 Q2327.34 1482.55 2330.95 1482.55 Q2334.59 1482.55 2336.39 1479.01 Q2338.22 1475.44 2338.22 1468.33 Q2338.22 1461.2 2336.39 1457.66 Q2334.59 1454.1 2330.95 1454.1 M2330.95 1450.39 Q2336.76 1450.39 2339.82 1455 Q2342.9 1459.58 2342.9 1468.33 Q2342.9 1477.06 2339.82 1481.67 Q2336.76 1486.25 2330.95 1486.25 Q2325.14 1486.25 2322.07 1481.67 Q2319.01 1477.06 2319.01 1468.33 Q2319.01 1459.58 2322.07 1455 Q2325.14 1450.39 2330.95 1450.39 Z" fill="#000000" fill-rule="nonzero" fill-opacity="1" /><path clip-path="url(#clip330)" d="M1288.87 1518.52 L1294.76 1518.52 L1294.76 1547.77 L1312.23 1532.4 L1319.71 1532.4 L1300.8 1549.07 L1320.51 1568.04 L1312.87 1568.04 L1294.76 1550.63 L1294.76 1568.04 L1288.87 1568.04 L1288.87 1518.52 Z" fill="#000000" fill-rule="nonzero" fill-opacity="1" /><polyline clip-path="url(#clip332)" style="stroke:#000000; stroke-linecap:round; stroke-linejoin:round; stroke-width:2; stroke-opacity:0.1; fill:none" points="256.62,1337.01 2352.76,1337.01 "/>
<polyline clip-path="url(#clip332)" style="stroke:#000000; stroke-linecap:round; stroke-linejoin:round; stroke-width:2; stroke-opacity:0.1; fill:none" points="256.62,666.639 2352.76,666.639 "/>
<polyline clip-path="url(#clip330)" style="stroke:#000000; stroke-linecap:round; stroke-linejoin:round; stroke-width:4; stroke-opacity:1; fill:none" points="256.62,1423.18 256.62,123.472 "/>
<polyline clip-path="url(#clip330)" style="stroke:#000000; stroke-linecap:round; stroke-linejoin:round; stroke-width:4; stroke-opacity:1; fill:none" points="256.62,1337.01 275.517,1337.01 "/>
<polyline clip-path="url(#clip330)" style="stroke:#000000; stroke-linecap:round; stroke-linejoin:round; stroke-width:4; stroke-opacity:1; fill:none" points="256.62,666.639 275.517,666.639 "/>
<path clip-path="url(#clip330)" d="M115.665 1356.8 L123.304 1356.8 L123.304 1330.44 L114.994 1332.11 L114.994 1327.85 L123.258 1326.18 L127.933 1326.18 L127.933 1356.8 L135.572 1356.8 L135.572 1360.74 L115.665 1360.74 L115.665 1356.8 Z" fill="#000000" fill-rule="nonzero" fill-opacity="1" /><path clip-path="url(#clip330)" d="M155.017 1329.26 Q151.406 1329.26 149.577 1332.82 Q147.771 1336.36 147.771 1343.49 Q147.771 1350.6 149.577 1354.17 Q151.406 1357.71 155.017 1357.71 Q158.651 1357.71 160.456 1354.17 Q162.285 1350.6 162.285 1343.49 Q162.285 1336.36 160.456 1332.82 Q158.651 1329.26 155.017 1329.26 M155.017 1325.55 Q160.827 1325.55 163.882 1330.16 Q166.961 1334.74 166.961 1343.49 Q166.961 1352.22 163.882 1356.83 Q160.827 1361.41 155.017 1361.41 Q149.206 1361.41 146.128 1356.83 Q143.072 1352.22 143.072 1343.49 Q143.072 1334.74 146.128 1330.16 Q149.206 1325.55 155.017 1325.55 Z" fill="#000000" fill-rule="nonzero" fill-opacity="1" /><path clip-path="url(#clip330)" d="M167.506 1330.13 L173.713 1330.13 L173.713 1308.71 L166.961 1310.06 L166.961 1306.6 L173.675 1305.25 L177.475 1305.25 L177.475 1330.13 L183.681 1330.13 L183.681 1333.33 L167.506 1333.33 L167.506 1330.13 Z" fill="#000000" fill-rule="nonzero" fill-opacity="1" /><path clip-path="url(#clip330)" d="M191.355 1328.55 L195.323 1328.55 L195.323 1333.33 L191.355 1333.33 L191.355 1328.55 Z" fill="#000000" fill-rule="nonzero" fill-opacity="1" /><path clip-path="url(#clip330)" d="M203.636 1305.25 L218.551 1305.25 L218.551 1308.45 L207.116 1308.45 L207.116 1315.33 Q207.943 1315.05 208.771 1314.92 Q209.598 1314.77 210.426 1314.77 Q215.128 1314.77 217.874 1317.34 Q220.62 1319.92 220.62 1324.32 Q220.62 1328.85 217.798 1331.37 Q214.977 1333.87 209.843 1333.87 Q208.075 1333.87 206.232 1333.57 Q204.407 1333.27 202.451 1332.67 L202.451 1328.85 Q204.144 1329.77 205.949 1330.23 Q207.755 1330.68 209.767 1330.68 Q213.021 1330.68 214.921 1328.97 Q216.82 1327.25 216.82 1324.32 Q216.82 1321.39 214.921 1319.67 Q213.021 1317.96 209.767 1317.96 Q208.244 1317.96 206.721 1318.3 Q205.216 1318.64 203.636 1319.36 L203.636 1305.25 Z" fill="#000000" fill-rule="nonzero" fill-opacity="1" /><path clip-path="url(#clip330)" d="M114.931 686.431 L122.57 686.431 L122.57 660.066 L114.26 661.732 L114.26 657.473 L122.524 655.806 L127.2 655.806 L127.2 686.431 L134.839 686.431 L134.839 690.366 L114.931 690.366 L114.931 686.431 Z" fill="#000000" fill-rule="nonzero" fill-opacity="1" /><path clip-path="url(#clip330)" d="M154.283 658.885 Q150.672 658.885 148.843 662.45 Q147.038 665.992 147.038 673.121 Q147.038 680.228 148.843 683.792 Q150.672 687.334 154.283 687.334 Q157.917 687.334 159.723 683.792 Q161.552 680.228 161.552 673.121 Q161.552 665.992 159.723 662.45 Q157.917 658.885 154.283 658.885 M154.283 655.181 Q160.093 655.181 163.149 659.788 Q166.227 664.371 166.227 673.121 Q166.227 681.848 163.149 686.454 Q160.093 691.038 154.283 691.038 Q148.473 691.038 145.394 686.454 Q142.339 681.848 142.339 673.121 Q142.339 664.371 145.394 659.788 Q148.473 655.181 154.283 655.181 Z" fill="#000000" fill-rule="nonzero" fill-opacity="1" /><path clip-path="url(#clip330)" d="M166.773 659.759 L172.979 659.759 L172.979 638.337 L166.227 639.691 L166.227 636.23 L172.942 634.876 L176.741 634.876 L176.741 659.759 L182.948 659.759 L182.948 662.956 L166.773 662.956 L166.773 659.759 Z" fill="#000000" fill-rule="nonzero" fill-opacity="1" /><path clip-path="url(#clip330)" d="M190.621 658.179 L194.59 658.179 L194.59 662.956 L190.621 662.956 L190.621 658.179 Z" fill="#000000" fill-rule="nonzero" fill-opacity="1" /><path clip-path="url(#clip330)" d="M210.99 649.621 Q208.282 649.621 206.721 651.07 Q205.178 652.518 205.178 655.057 Q205.178 657.596 206.721 659.044 Q208.282 660.492 210.99 660.492 Q213.698 660.492 215.259 659.044 Q216.82 657.577 216.82 655.057 Q216.82 652.518 215.259 651.07 Q213.717 649.621 210.99 649.621 M207.191 648.004 Q204.746 647.402 203.373 645.728 Q202.019 644.054 202.019 641.647 Q202.019 638.28 204.407 636.324 Q206.815 634.368 210.99 634.368 Q215.184 634.368 217.573 636.324 Q219.961 638.28 219.961 641.647 Q219.961 644.054 218.588 645.728 Q217.234 647.402 214.808 648.004 Q217.554 648.643 219.077 650.505 Q220.62 652.367 220.62 655.057 Q220.62 659.138 218.118 661.32 Q215.635 663.501 210.99 663.501 Q206.344 663.501 203.843 661.32 Q201.36 659.138 201.36 655.057 Q201.36 652.367 202.903 650.505 Q204.445 648.643 207.191 648.004 M205.799 642.004 Q205.799 644.186 207.153 645.408 Q208.526 646.631 210.99 646.631 Q213.435 646.631 214.808 645.408 Q216.2 644.186 216.2 642.004 Q216.2 639.822 214.808 638.6 Q213.435 637.377 210.99 637.377 Q208.526 637.377 207.153 638.6 Q205.799 639.822 205.799 642.004 Z" fill="#000000" fill-rule="nonzero" fill-opacity="1" /><path clip-path="url(#clip330)" d="M32.4621 801.797 Q32.4621 806.507 36.1542 809.244 Q39.8145 811.982 46.212 811.982 Q52.6095 811.982 56.3017 809.276 Q59.9619 806.539 59.9619 801.797 Q59.9619 797.118 56.2698 794.381 Q52.5777 791.643 46.212 791.643 Q39.8781 791.643 36.186 794.381 Q32.4621 797.118 32.4621 801.797 M27.4968 801.797 Q27.4968 794.158 32.4621 789.797 Q37.4273 785.437 46.212 785.437 Q54.9649 785.437 59.9619 789.797 Q64.9272 794.158 64.9272 801.797 Q64.9272 809.467 59.9619 813.828 Q54.9649 818.156 46.212 818.156 Q37.4273 818.156 32.4621 813.828 Q27.4968 809.467 27.4968 801.797 Z" fill="#000000" fill-rule="nonzero" fill-opacity="1" /><path clip-path="url(#clip330)" d="M46.212 750.139 Q39.7508 750.139 36.0905 752.812 Q32.3984 755.454 32.3984 760.101 Q32.3984 764.748 36.0905 767.422 Q39.7508 770.064 46.212 770.064 Q52.6732 770.064 56.3653 767.422 Q60.0256 764.748 60.0256 760.101 Q60.0256 755.454 56.3653 752.812 Q52.6732 750.139 46.212 750.139 M33.7671 770.064 Q30.5842 768.218 29.0564 765.417 Q27.4968 762.584 27.4968 758.669 Q27.4968 752.176 32.6531 748.134 Q37.8093 744.06 46.212 744.06 Q54.6147 744.06 59.771 748.134 Q64.9272 752.176 64.9272 758.669 Q64.9272 762.584 63.3994 765.417 Q61.8398 768.218 58.657 770.064 L64.0042 770.064 L64.0042 775.952 L14.479 775.952 L14.479 770.064 L33.7671 770.064 Z" fill="#000000" fill-rule="nonzero" fill-opacity="1" /><path clip-path="url(#clip330)" d="M28.3562 734.352 L28.3562 728.495 L64.6407 728.495 Q71.452 728.495 74.5076 731.105 Q77.5631 733.684 77.5631 739.445 L77.5631 741.673 L72.5979 741.673 L72.5979 740.113 Q72.5979 736.771 71.0383 735.561 Q69.5105 734.352 64.6407 734.352 L28.3562 734.352 M14.479 734.352 L14.479 728.495 L21.895 728.495 L21.895 734.352 L14.479 734.352 Z" fill="#000000" fill-rule="nonzero" fill-opacity="1" /><path clip-path="url(#clip330)" d="M960.827 65.7705 L960.827 89.8329 L953.333 89.8329 L953.333 27.2059 L960.827 27.2059 L960.827 34.0924 Q963.176 30.0415 966.741 28.0971 Q970.346 26.1121 975.329 26.1121 Q983.593 26.1121 988.737 32.6746 Q993.923 39.2371 993.923 49.9314 Q993.923 60.6258 988.737 67.1883 Q983.593 73.7508 975.329 73.7508 Q970.346 73.7508 966.741 71.8063 Q963.176 69.8214 960.827 65.7705 M986.185 49.9314 Q986.185 41.7081 982.783 37.0496 Q979.42 32.3505 973.506 32.3505 Q967.592 32.3505 964.189 37.0496 Q960.827 41.7081 960.827 49.9314 Q960.827 58.1548 964.189 62.8538 Q967.592 67.5124 973.506 67.5124 Q979.42 67.5124 982.783 62.8538 Q986.185 58.1548 986.185 49.9314 Z" fill="#000000" fill-rule="nonzero" fill-opacity="1" /><path clip-path="url(#clip330)" d="M1032.57 34.1734 Q1031.31 33.4443 1029.81 33.1202 Q1028.36 32.7556 1026.57 32.7556 Q1020.25 32.7556 1016.85 36.8875 Q1013.49 40.9789 1013.49 48.6757 L1013.49 72.576 L1005.99 72.576 L1005.99 27.2059 L1013.49 27.2059 L1013.49 34.2544 Q1015.84 30.1225 1019.61 28.1376 Q1023.37 26.1121 1028.76 26.1121 Q1029.53 26.1121 1030.46 26.2337 Q1031.39 26.3147 1032.53 26.5172 L1032.57 34.1734 Z" fill="#000000" fill-rule="nonzero" fill-opacity="1" /><path clip-path="url(#clip330)" d="M1056.14 32.4315 Q1050.15 32.4315 1046.67 37.1306 Q1043.18 41.7891 1043.18 49.9314 Q1043.18 58.0738 1046.62 62.7728 Q1050.11 67.4314 1056.14 67.4314 Q1062.1 67.4314 1065.58 62.7323 Q1069.07 58.0333 1069.07 49.9314 Q1069.07 41.8701 1065.58 37.1711 Q1062.1 32.4315 1056.14 32.4315 M1056.14 26.1121 Q1065.87 26.1121 1071.42 32.4315 Q1076.97 38.7509 1076.97 49.9314 Q1076.97 61.0714 1071.42 67.4314 Q1065.87 73.7508 1056.14 73.7508 Q1046.38 73.7508 1040.83 67.4314 Q1035.32 61.0714 1035.32 49.9314 Q1035.32 38.7509 1040.83 32.4315 Q1046.38 26.1121 1056.14 26.1121 Z" fill="#000000" fill-rule="nonzero" fill-opacity="1" /><path clip-path="url(#clip330)" d="M1121.89 49.9314 Q1121.89 41.7081 1118.49 37.0496 Q1115.13 32.3505 1109.21 32.3505 Q1103.3 32.3505 1099.89 37.0496 Q1096.53 41.7081 1096.53 49.9314 Q1096.53 58.1548 1099.89 62.8538 Q1103.3 67.5124 1109.21 67.5124 Q1115.13 67.5124 1118.49 62.8538 Q1121.89 58.1548 1121.89 49.9314 M1096.53 34.0924 Q1098.88 30.0415 1102.45 28.0971 Q1106.05 26.1121 1111.03 26.1121 Q1119.3 26.1121 1124.44 32.6746 Q1129.63 39.2371 1129.63 49.9314 Q1129.63 60.6258 1124.44 67.1883 Q1119.3 73.7508 1111.03 73.7508 Q1106.05 73.7508 1102.45 71.8063 Q1098.88 69.8214 1096.53 65.7705 L1096.53 72.576 L1089.04 72.576 L1089.04 9.54393 L1096.53 9.54393 L1096.53 34.0924 Z" fill="#000000" fill-rule="nonzero" fill-opacity="1" /><path clip-path="url(#clip330)" d="M1141.98 9.54393 L1149.44 9.54393 L1149.44 72.576 L1141.98 72.576 L1141.98 9.54393 Z" fill="#000000" fill-rule="nonzero" fill-opacity="1" /><path clip-path="url(#clip330)" d="M1203.84 48.0275 L1203.84 51.6733 L1169.57 51.6733 Q1170.06 59.3701 1174.19 63.421 Q1178.36 67.4314 1185.77 67.4314 Q1190.07 67.4314 1194.08 66.3781 Q1198.13 65.3249 1202.1 63.2184 L1202.1 70.267 Q1198.09 71.9684 1193.88 72.8596 Q1189.66 73.7508 1185.33 73.7508 Q1174.47 73.7508 1168.11 67.4314 Q1161.79 61.1119 1161.79 50.3365 Q1161.79 39.1965 1167.79 32.6746 Q1173.82 26.1121 1184.03 26.1121 Q1193.19 26.1121 1198.49 32.0264 Q1203.84 37.9003 1203.84 48.0275 M1196.39 45.84 Q1196.31 39.7232 1192.94 36.0774 Q1189.62 32.4315 1184.11 32.4315 Q1177.87 32.4315 1174.11 35.9558 Q1170.38 39.4801 1169.81 45.8805 L1196.39 45.84 M1177.71 6.22219 L1189.14 21.3726 L1182.94 21.3726 L1169.73 6.22219 L1177.71 6.22219 Z" fill="#000000" fill-rule="nonzero" fill-opacity="1" /><path clip-path="url(#clip330)" d="M1251.4 35.9153 Q1254.19 30.8922 1258.08 28.5022 Q1261.97 26.1121 1267.24 26.1121 Q1274.33 26.1121 1278.17 31.0947 Q1282.02 36.0368 1282.02 45.1919 L1282.02 72.576 L1274.53 72.576 L1274.53 45.4349 Q1274.53 38.913 1272.22 35.7533 Q1269.91 32.5936 1265.17 32.5936 Q1259.38 32.5936 1256.02 36.4419 Q1252.65 40.2903 1252.65 46.9338 L1252.65 72.576 L1245.16 72.576 L1245.16 45.4349 Q1245.16 38.8725 1242.85 35.7533 Q1240.54 32.5936 1235.72 32.5936 Q1230.01 32.5936 1226.65 36.4824 Q1223.28 40.3308 1223.28 46.9338 L1223.28 72.576 L1215.79 72.576 L1215.79 27.2059 L1223.28 27.2059 L1223.28 34.2544 Q1225.84 30.082 1229.4 28.0971 Q1232.97 26.1121 1237.87 26.1121 Q1242.81 26.1121 1246.25 28.6237 Q1249.74 31.1352 1251.4 35.9153 Z" fill="#000000" fill-rule="nonzero" fill-opacity="1" /><path clip-path="url(#clip330)" d="M1335.7 48.0275 L1335.7 51.6733 L1301.43 51.6733 Q1301.91 59.3701 1306.04 63.421 Q1310.22 67.4314 1317.63 67.4314 Q1321.92 67.4314 1325.93 66.3781 Q1329.99 65.3249 1333.96 63.2184 L1333.96 70.267 Q1329.95 71.9684 1325.73 72.8596 Q1321.52 73.7508 1317.18 73.7508 Q1306.33 73.7508 1299.97 67.4314 Q1293.65 61.1119 1293.65 50.3365 Q1293.65 39.1965 1299.64 32.6746 Q1305.68 26.1121 1315.89 26.1121 Q1325.04 26.1121 1330.35 32.0264 Q1335.7 37.9003 1335.7 48.0275 M1328.24 45.84 Q1328.16 39.7232 1324.8 36.0774 Q1321.48 32.4315 1315.97 32.4315 Q1309.73 32.4315 1305.96 35.9558 Q1302.24 39.4801 1301.67 45.8805 L1328.24 45.84 Z" fill="#000000" fill-rule="nonzero" fill-opacity="1" /><path clip-path="url(#clip330)" d="M1376.21 62.2867 L1384.75 62.2867 L1384.75 72.576 L1376.21 72.576 L1376.21 62.2867 M1376.21 29.6769 L1384.75 29.6769 L1384.75 39.9662 L1376.21 39.9662 L1376.21 29.6769 Z" fill="#000000" fill-rule="nonzero" fill-opacity="1" /><path clip-path="url(#clip330)" d="M1436 14.324 L1436 27.2059 L1451.35 27.2059 L1451.35 32.9987 L1436 32.9987 L1436 57.6282 Q1436 63.1779 1437.5 64.7578 Q1439.04 66.3376 1443.69 66.3376 L1451.35 66.3376 L1451.35 72.576 L1443.69 72.576 Q1435.07 72.576 1431.78 69.3758 Q1428.5 66.1351 1428.5 57.6282 L1428.5 32.9987 L1423.03 32.9987 L1423.03 27.2059 L1428.5 27.2059 L1428.5 14.324 L1436 14.324 Z" fill="#000000" fill-rule="nonzero" fill-opacity="1" /><path clip-path="url(#clip330)" d="M1468.36 65.7705 L1468.36 89.8329 L1460.87 89.8329 L1460.87 27.2059 L1468.36 27.2059 L1468.36 34.0924 Q1470.71 30.0415 1474.28 28.0971 Q1477.88 26.1121 1482.87 26.1121 Q1491.13 26.1121 1496.28 32.6746 Q1501.46 39.2371 1501.46 49.9314 Q1501.46 60.6258 1496.28 67.1883 Q1491.13 73.7508 1482.87 73.7508 Q1477.88 73.7508 1474.28 71.8063 Q1470.71 69.8214 1468.36 65.7705 M1493.72 49.9314 Q1493.72 41.7081 1490.32 37.0496 Q1486.96 32.3505 1481.04 32.3505 Q1475.13 32.3505 1471.73 37.0496 Q1468.36 41.7081 1468.36 49.9314 Q1468.36 58.1548 1471.73 62.8538 Q1475.13 67.5124 1481.04 67.5124 Q1486.96 67.5124 1490.32 62.8538 Q1493.72 58.1548 1493.72 49.9314 Z" fill="#000000" fill-rule="nonzero" fill-opacity="1" /><path clip-path="url(#clip330)" d="M1539.66 39.9662 Q1545.53 41.222 1548.82 45.1919 Q1552.14 49.1618 1552.14 54.9951 Q1552.14 63.9476 1545.98 68.8492 Q1539.82 73.7508 1528.48 73.7508 Q1524.67 73.7508 1520.62 72.9811 Q1516.61 72.2519 1512.32 70.7531 L1512.32 62.8538 Q1515.72 64.8388 1519.77 65.8515 Q1523.82 66.8642 1528.24 66.8642 Q1535.93 66.8642 1539.94 63.826 Q1543.99 60.7879 1543.99 54.9951 Q1543.99 49.6479 1540.23 46.6502 Q1536.5 43.612 1529.82 43.612 L1522.77 43.612 L1522.77 36.8875 L1530.14 36.8875 Q1536.18 36.8875 1539.38 34.4975 Q1542.58 32.067 1542.58 27.5299 Q1542.58 22.8714 1539.26 20.4004 Q1535.97 17.8888 1529.82 17.8888 Q1526.45 17.8888 1522.61 18.618 Q1518.76 19.3471 1514.14 20.8865 L1514.14 13.5948 Q1518.8 12.2985 1522.85 11.6504 Q1526.94 11.0023 1530.55 11.0023 Q1539.86 11.0023 1545.29 15.2557 Q1550.72 19.4686 1550.72 26.6793 Q1550.72 31.7024 1547.84 35.1862 Q1544.97 38.6294 1539.66 39.9662 Z" fill="#000000" fill-rule="nonzero" fill-opacity="1" /><path clip-path="url(#clip330)" d="M1567.73 12.096 L1599.86 12.096 L1599.86 18.9825 L1575.23 18.9825 L1575.23 33.8088 Q1577.01 33.2012 1578.79 32.9176 Q1580.57 32.5936 1582.36 32.5936 Q1592.48 32.5936 1598.4 38.1433 Q1604.31 43.6931 1604.31 53.1722 Q1604.31 62.9348 1598.24 68.3631 Q1592.16 73.7508 1581.1 73.7508 Q1577.29 73.7508 1573.32 73.1026 Q1569.39 72.4545 1565.18 71.1582 L1565.18 62.9348 Q1568.83 64.9198 1572.72 65.892 Q1576.6 66.8642 1580.94 66.8642 Q1587.95 66.8642 1592.04 63.1779 Q1596.13 59.4916 1596.13 53.1722 Q1596.13 46.8528 1592.04 43.1664 Q1587.95 39.4801 1580.94 39.4801 Q1577.66 39.4801 1574.38 40.2093 Q1571.14 40.9384 1567.73 42.4778 L1567.73 12.096 Z" fill="#000000" fill-rule="nonzero" fill-opacity="1" /><path clip-path="url(#clip330)" d="M1627.48 65.6895 L1656.04 65.6895 L1656.04 72.576 L1617.64 72.576 L1617.64 65.6895 Q1622.3 60.8689 1630.32 52.7671 Q1638.38 44.6248 1640.45 42.2752 Q1644.38 37.8598 1645.92 34.8216 Q1647.5 31.7429 1647.5 28.7857 Q1647.5 23.9651 1644.09 20.927 Q1640.73 17.8888 1635.3 17.8888 Q1631.45 17.8888 1627.16 19.2256 Q1622.91 20.5624 1618.05 23.2765 L1618.05 15.0127 Q1622.99 13.0277 1627.28 12.015 Q1631.58 11.0023 1635.14 11.0023 Q1644.54 11.0023 1650.13 15.7013 Q1655.72 20.4004 1655.72 28.2591 Q1655.72 31.9859 1654.3 35.3482 Q1652.92 38.6699 1649.24 43.2069 Q1648.22 44.3817 1642.8 50.0125 Q1637.37 55.6027 1627.48 65.6895 Z" fill="#000000" fill-rule="nonzero" fill-opacity="1" /><polyline clip-path="url(#clip332)" style="stroke:#009af9; stroke-linecap:round; stroke-linejoin:round; stroke-width:4; stroke-opacity:1; fill:none" points="315.944,160.256 2293.43,1386.4 "/>
<polyline clip-path="url(#clip332)" style="stroke:#e26f46; stroke-linecap:round; stroke-linejoin:round; stroke-width:4; stroke-opacity:1; fill:none" points="315.944,160.256 2293.43,1386.4 "/>
<polyline clip-path="url(#clip332)" style="stroke:#3da44d; stroke-linecap:round; stroke-linejoin:round; stroke-width:4; stroke-opacity:1; fill:none" points="315.944,160.256 2293.43,1386.4 "/>
<polyline clip-path="url(#clip332)" style="stroke:#c271d2; stroke-linecap:round; stroke-linejoin:round; stroke-width:4; stroke-opacity:1; fill:none" points="315.944,160.256 2293.43,1386.4 "/>
<polyline clip-path="url(#clip332)" style="stroke:#ac8d18; stroke-linecap:round; stroke-linejoin:round; stroke-width:4; stroke-opacity:1; fill:none" points="315.944,160.256 2293.43,1386.4 "/>
<path clip-path="url(#clip330)" d="M1750.17 477.836 L2282.88 477.836 L2282.88 166.796 L1750.17 166.796  Z" fill="#ffffff" fill-rule="evenodd" fill-opacity="1"/>
<polyline clip-path="url(#clip330)" style="stroke:#000000; stroke-linecap:round; stroke-linejoin:round; stroke-width:4; stroke-opacity:1; fill:none" points="1750.17,477.836 2282.88,477.836 2282.88,166.796 1750.17,166.796 1750.17,477.836 "/>
<polyline clip-path="url(#clip330)" style="stroke:#009af9; stroke-linecap:round; stroke-linejoin:round; stroke-width:4; stroke-opacity:1; fill:none" points="1773.46,218.636 1913.2,218.636 "/>
<path clip-path="url(#clip330)" d="M1936.49 201.356 L1941.17 201.356 L1941.17 231.981 L1958 231.981 L1958 235.916 L1936.49 235.916 L1936.49 201.356 Z" fill="#000000" fill-rule="nonzero" fill-opacity="1" /><path clip-path="url(#clip330)" d="M1962.91 201.356 L1969.87 201.356 L1978.69 224.874 L1987.56 201.356 L1994.53 201.356 L1994.53 235.916 L1989.97 235.916 L1989.97 205.569 L1981.05 229.272 L1976.36 229.272 L1967.44 205.569 L1967.44 235.916 L1962.91 235.916 L1962.91 201.356 Z" fill="#000000" fill-rule="nonzero" fill-opacity="1" /><path clip-path="url(#clip330)" d="M2023.32 243.786 L2023.32 247.096 L1998.69 247.096 L1998.69 243.786 L2023.32 243.786 Z" fill="#000000" fill-rule="nonzero" fill-opacity="1" /><path clip-path="url(#clip330)" d="M2048.23 202.49 L2048.23 207.05 Q2045.57 205.777 2043.21 205.152 Q2040.85 204.527 2038.65 204.527 Q2034.83 204.527 2032.74 206.008 Q2030.68 207.49 2030.68 210.221 Q2030.68 212.513 2032.05 213.694 Q2033.44 214.851 2037.28 215.569 L2040.1 216.147 Q2045.34 217.143 2047.81 219.666 Q2050.31 222.166 2050.31 226.379 Q2050.31 231.402 2046.93 233.994 Q2043.58 236.587 2037.07 236.587 Q2034.62 236.587 2031.84 236.031 Q2029.09 235.476 2026.12 234.388 L2026.12 229.573 Q2028.97 231.17 2031.7 231.981 Q2034.43 232.791 2037.07 232.791 Q2041.08 232.791 2043.25 231.217 Q2045.43 229.643 2045.43 226.726 Q2045.43 224.18 2043.85 222.744 Q2042.3 221.309 2038.74 220.592 L2035.89 220.036 Q2030.66 218.995 2028.32 216.772 Q2025.98 214.55 2025.98 210.592 Q2025.98 206.008 2029.2 203.37 Q2032.44 200.731 2038.11 200.731 Q2040.54 200.731 2043.07 201.171 Q2045.59 201.61 2048.23 202.49 Z" fill="#000000" fill-rule="nonzero" fill-opacity="1" /><path clip-path="url(#clip330)" d="M2062.28 205.198 L2062.28 218.184 L2068.16 218.184 Q2071.42 218.184 2073.21 216.495 Q2074.99 214.805 2074.99 211.68 Q2074.99 208.578 2073.21 206.888 Q2071.42 205.198 2068.16 205.198 L2062.28 205.198 M2057.6 201.356 L2068.16 201.356 Q2073.97 201.356 2076.93 203.995 Q2079.92 206.61 2079.92 211.68 Q2079.92 216.795 2076.93 219.411 Q2073.97 222.027 2068.16 222.027 L2062.28 222.027 L2062.28 235.916 L2057.6 235.916 L2057.6 201.356 Z" fill="#000000" fill-rule="nonzero" fill-opacity="1" /><path clip-path="url(#clip330)" d="M2109.76 230.985 L2109.76 221.703 L2102.12 221.703 L2102.12 217.86 L2114.39 217.86 L2114.39 232.698 Q2111.68 234.619 2108.41 235.615 Q2105.15 236.587 2101.45 236.587 Q2093.35 236.587 2088.76 231.865 Q2084.2 227.119 2084.2 218.67 Q2084.2 210.198 2088.76 205.476 Q2093.35 200.731 2101.45 200.731 Q2104.83 200.731 2107.86 201.564 Q2110.91 202.397 2113.48 204.018 L2113.48 208.995 Q2110.89 206.796 2107.97 205.684 Q2105.06 204.573 2101.84 204.573 Q2095.5 204.573 2092.3 208.115 Q2089.13 211.657 2089.13 218.67 Q2089.13 225.661 2092.3 229.203 Q2095.5 232.744 2101.84 232.744 Q2104.32 232.744 2106.26 232.328 Q2108.21 231.888 2109.76 230.985 Z" fill="#000000" fill-rule="nonzero" fill-opacity="1" /><polyline clip-path="url(#clip330)" style="stroke:#e26f46; stroke-linecap:round; stroke-linejoin:round; stroke-width:4; stroke-opacity:1; fill:none" points="1773.46,270.476 1913.2,270.476 "/>
<path clip-path="url(#clip330)" d="M1936.49 253.196 L1941.17 253.196 L1941.17 283.821 L1958 283.821 L1958 287.756 L1936.49 287.756 L1936.49 253.196 Z" fill="#000000" fill-rule="nonzero" fill-opacity="1" /><path clip-path="url(#clip330)" d="M1962.91 253.196 L1969.87 253.196 L1978.69 276.714 L1987.56 253.196 L1994.53 253.196 L1994.53 287.756 L1989.97 287.756 L1989.97 257.409 L1981.05 281.112 L1976.36 281.112 L1967.44 257.409 L1967.44 287.756 L1962.91 287.756 L1962.91 253.196 Z" fill="#000000" fill-rule="nonzero" fill-opacity="1" /><path clip-path="url(#clip330)" d="M2023.32 295.626 L2023.32 298.936 L1998.69 298.936 L1998.69 295.626 L2023.32 295.626 Z" fill="#000000" fill-rule="nonzero" fill-opacity="1" /><path clip-path="url(#clip330)" d="M2039.06 257.802 L2032.72 275.001 L2045.43 275.001 L2039.06 257.802 M2036.42 253.196 L2041.73 253.196 L2054.9 287.756 L2050.04 287.756 L2046.89 278.89 L2031.31 278.89 L2028.16 287.756 L2023.23 287.756 L2036.42 253.196 Z" fill="#000000" fill-rule="nonzero" fill-opacity="1" /><path clip-path="url(#clip330)" d="M2081.31 272.108 L2081.31 287.756 L2077.05 287.756 L2077.05 272.247 Q2077.05 268.566 2075.61 266.737 Q2074.18 264.909 2071.31 264.909 Q2067.86 264.909 2065.87 267.108 Q2063.88 269.307 2063.88 273.103 L2063.88 287.756 L2059.6 287.756 L2059.6 261.83 L2063.88 261.83 L2063.88 265.858 Q2065.41 263.52 2067.47 262.362 Q2069.55 261.205 2072.26 261.205 Q2076.72 261.205 2079.02 263.983 Q2081.31 266.737 2081.31 272.108 Z" fill="#000000" fill-rule="nonzero" fill-opacity="1" /><path clip-path="url(#clip330)" d="M2106.86 265.765 L2106.86 251.737 L2111.12 251.737 L2111.12 287.756 L2106.86 287.756 L2106.86 283.867 Q2105.52 286.182 2103.46 287.316 Q2101.42 288.427 2098.55 288.427 Q2093.85 288.427 2090.89 284.677 Q2087.95 280.927 2087.95 274.816 Q2087.95 268.705 2090.89 264.955 Q2093.85 261.205 2098.55 261.205 Q2101.42 261.205 2103.46 262.339 Q2105.52 263.45 2106.86 265.765 M2092.35 274.816 Q2092.35 279.515 2094.27 282.2 Q2096.22 284.862 2099.6 284.862 Q2102.97 284.862 2104.92 282.2 Q2106.86 279.515 2106.86 274.816 Q2106.86 270.117 2104.92 267.455 Q2102.97 264.77 2099.6 264.77 Q2096.22 264.77 2094.27 267.455 Q2092.35 270.117 2092.35 274.816 Z" fill="#000000" fill-rule="nonzero" fill-opacity="1" /><path clip-path="url(#clip330)" d="M2134.92 265.811 Q2134.2 265.395 2133.34 265.21 Q2132.51 265.001 2131.49 265.001 Q2127.88 265.001 2125.94 267.362 Q2124.02 269.7 2124.02 274.098 L2124.02 287.756 L2119.73 287.756 L2119.73 261.83 L2124.02 261.83 L2124.02 265.858 Q2125.36 263.497 2127.51 262.362 Q2129.66 261.205 2132.74 261.205 Q2133.18 261.205 2133.72 261.274 Q2134.25 261.321 2134.9 261.436 L2134.92 265.811 Z" fill="#000000" fill-rule="nonzero" fill-opacity="1" /><path clip-path="url(#clip330)" d="M2160.52 273.728 L2160.52 275.811 L2140.94 275.811 Q2141.22 280.209 2143.58 282.524 Q2145.96 284.816 2150.2 284.816 Q2152.65 284.816 2154.94 284.214 Q2157.26 283.612 2159.53 282.409 L2159.53 286.436 Q2157.23 287.408 2154.83 287.918 Q2152.42 288.427 2149.94 288.427 Q2143.74 288.427 2140.1 284.816 Q2136.49 281.205 2136.49 275.047 Q2136.49 268.682 2139.92 264.955 Q2143.37 261.205 2149.2 261.205 Q2154.43 261.205 2157.47 264.585 Q2160.52 267.941 2160.52 273.728 M2156.26 272.478 Q2156.22 268.983 2154.29 266.899 Q2152.4 264.816 2149.25 264.816 Q2145.68 264.816 2143.53 266.83 Q2141.4 268.844 2141.08 272.501 L2156.26 272.478 Z" fill="#000000" fill-rule="nonzero" fill-opacity="1" /><path clip-path="url(#clip330)" d="M2167.51 261.83 L2171.77 261.83 L2171.77 287.756 L2167.51 287.756 L2167.51 261.83 M2167.51 251.737 L2171.77 251.737 L2171.77 257.131 L2167.51 257.131 L2167.51 251.737 Z" fill="#000000" fill-rule="nonzero" fill-opacity="1" /><path clip-path="url(#clip330)" d="M2200.38 295.626 L2200.38 298.936 L2175.75 298.936 L2175.75 295.626 L2200.38 295.626 Z" fill="#000000" fill-rule="nonzero" fill-opacity="1" /><path clip-path="url(#clip330)" d="M2216.17 274.723 Q2211.01 274.723 2209.02 275.904 Q2207.03 277.084 2207.03 279.932 Q2207.03 282.2 2208.51 283.543 Q2210.01 284.862 2212.58 284.862 Q2216.12 284.862 2218.25 282.362 Q2220.4 279.839 2220.4 275.672 L2220.4 274.723 L2216.17 274.723 M2224.66 272.964 L2224.66 287.756 L2220.4 287.756 L2220.4 283.821 Q2218.95 286.182 2216.77 287.316 Q2214.59 288.427 2211.45 288.427 Q2207.46 288.427 2205.1 286.205 Q2202.77 283.959 2202.77 280.209 Q2202.77 275.834 2205.68 273.612 Q2208.62 271.39 2214.43 271.39 L2220.4 271.39 L2220.4 270.973 Q2220.4 268.034 2218.46 266.436 Q2216.54 264.816 2213.04 264.816 Q2210.82 264.816 2208.71 265.348 Q2206.61 265.881 2204.66 266.946 L2204.66 263.01 Q2207 262.108 2209.2 261.668 Q2211.4 261.205 2213.48 261.205 Q2219.11 261.205 2221.89 264.122 Q2224.66 267.038 2224.66 272.964 Z" fill="#000000" fill-rule="nonzero" fill-opacity="1" /><path clip-path="url(#clip330)" d="M2233.44 251.737 L2237.7 251.737 L2237.7 287.756 L2233.44 287.756 L2233.44 251.737 Z" fill="#000000" fill-rule="nonzero" fill-opacity="1" /><path clip-path="url(#clip330)" d="M2250.82 254.469 L2250.82 261.83 L2259.59 261.83 L2259.59 265.14 L2250.82 265.14 L2250.82 279.214 Q2250.82 282.385 2251.68 283.288 Q2252.56 284.191 2255.22 284.191 L2259.59 284.191 L2259.59 287.756 L2255.22 287.756 Q2250.29 287.756 2248.41 285.927 Q2246.54 284.075 2246.54 279.214 L2246.54 265.14 L2243.41 265.14 L2243.41 261.83 L2246.54 261.83 L2246.54 254.469 L2250.82 254.469 Z" fill="#000000" fill-rule="nonzero" fill-opacity="1" /><polyline clip-path="url(#clip330)" style="stroke:#3da44d; stroke-linecap:round; stroke-linejoin:round; stroke-width:4; stroke-opacity:1; fill:none" points="1773.46,322.316 1913.2,322.316 "/>
<path clip-path="url(#clip330)" d="M1936.49 305.036 L1941.17 305.036 L1941.17 335.661 L1958 335.661 L1958 339.596 L1936.49 339.596 L1936.49 305.036 Z" fill="#000000" fill-rule="nonzero" fill-opacity="1" /><path clip-path="url(#clip330)" d="M1962.91 305.036 L1969.87 305.036 L1978.69 328.554 L1987.56 305.036 L1994.53 305.036 L1994.53 339.596 L1989.97 339.596 L1989.97 309.249 L1981.05 332.952 L1976.36 332.952 L1967.44 309.249 L1967.44 339.596 L1962.91 339.596 L1962.91 305.036 Z" fill="#000000" fill-rule="nonzero" fill-opacity="1" /><path clip-path="url(#clip330)" d="M2023.32 347.466 L2023.32 350.776 L1998.69 350.776 L1998.69 347.466 L2023.32 347.466 Z" fill="#000000" fill-rule="nonzero" fill-opacity="1" /><path clip-path="url(#clip330)" d="M2039.06 309.642 L2032.72 326.841 L2045.43 326.841 L2039.06 309.642 M2036.42 305.036 L2041.73 305.036 L2054.9 339.596 L2050.04 339.596 L2046.89 330.73 L2031.31 330.73 L2028.16 339.596 L2023.23 339.596 L2036.42 305.036 Z" fill="#000000" fill-rule="nonzero" fill-opacity="1" /><path clip-path="url(#clip330)" d="M2081.31 323.948 L2081.31 339.596 L2077.05 339.596 L2077.05 324.087 Q2077.05 320.406 2075.61 318.577 Q2074.18 316.749 2071.31 316.749 Q2067.86 316.749 2065.87 318.948 Q2063.88 321.147 2063.88 324.943 L2063.88 339.596 L2059.6 339.596 L2059.6 313.67 L2063.88 313.67 L2063.88 317.698 Q2065.41 315.36 2067.47 314.202 Q2069.55 313.045 2072.26 313.045 Q2076.72 313.045 2079.02 315.823 Q2081.31 318.577 2081.31 323.948 Z" fill="#000000" fill-rule="nonzero" fill-opacity="1" /><path clip-path="url(#clip330)" d="M2106.86 317.605 L2106.86 303.577 L2111.12 303.577 L2111.12 339.596 L2106.86 339.596 L2106.86 335.707 Q2105.52 338.022 2103.46 339.156 Q2101.42 340.267 2098.55 340.267 Q2093.85 340.267 2090.89 336.517 Q2087.95 332.767 2087.95 326.656 Q2087.95 320.545 2090.89 316.795 Q2093.85 313.045 2098.55 313.045 Q2101.42 313.045 2103.46 314.179 Q2105.52 315.29 2106.86 317.605 M2092.35 326.656 Q2092.35 331.355 2094.27 334.04 Q2096.22 336.702 2099.6 336.702 Q2102.97 336.702 2104.92 334.04 Q2106.86 331.355 2106.86 326.656 Q2106.86 321.957 2104.92 319.295 Q2102.97 316.61 2099.6 316.61 Q2096.22 316.61 2094.27 319.295 Q2092.35 321.957 2092.35 326.656 Z" fill="#000000" fill-rule="nonzero" fill-opacity="1" /><path clip-path="url(#clip330)" d="M2134.92 317.651 Q2134.2 317.235 2133.34 317.05 Q2132.51 316.841 2131.49 316.841 Q2127.88 316.841 2125.94 319.202 Q2124.02 321.54 2124.02 325.938 L2124.02 339.596 L2119.73 339.596 L2119.73 313.67 L2124.02 313.67 L2124.02 317.698 Q2125.36 315.337 2127.51 314.202 Q2129.66 313.045 2132.74 313.045 Q2133.18 313.045 2133.72 313.114 Q2134.25 313.161 2134.9 313.276 L2134.92 317.651 Z" fill="#000000" fill-rule="nonzero" fill-opacity="1" /><path clip-path="url(#clip330)" d="M2160.52 325.568 L2160.52 327.651 L2140.94 327.651 Q2141.22 332.049 2143.58 334.364 Q2145.96 336.656 2150.2 336.656 Q2152.65 336.656 2154.94 336.054 Q2157.26 335.452 2159.53 334.249 L2159.53 338.276 Q2157.23 339.248 2154.83 339.758 Q2152.42 340.267 2149.94 340.267 Q2143.74 340.267 2140.1 336.656 Q2136.49 333.045 2136.49 326.887 Q2136.49 320.522 2139.92 316.795 Q2143.37 313.045 2149.2 313.045 Q2154.43 313.045 2157.47 316.425 Q2160.52 319.781 2160.52 325.568 M2156.26 324.318 Q2156.22 320.823 2154.29 318.739 Q2152.4 316.656 2149.25 316.656 Q2145.68 316.656 2143.53 318.67 Q2141.4 320.684 2141.08 324.341 L2156.26 324.318 Z" fill="#000000" fill-rule="nonzero" fill-opacity="1" /><path clip-path="url(#clip330)" d="M2167.51 313.67 L2171.77 313.67 L2171.77 339.596 L2167.51 339.596 L2167.51 313.67 M2167.51 303.577 L2171.77 303.577 L2171.77 308.971 L2167.51 308.971 L2167.51 303.577 Z" fill="#000000" fill-rule="nonzero" fill-opacity="1" /><polyline clip-path="url(#clip330)" style="stroke:#c271d2; stroke-linecap:round; stroke-linejoin:round; stroke-width:4; stroke-opacity:1; fill:none" points="1773.46,374.156 1913.2,374.156 "/>
<path clip-path="url(#clip330)" d="M1936.49 356.876 L1941.17 356.876 L1941.17 387.501 L1958 387.501 L1958 391.436 L1936.49 391.436 L1936.49 356.876 Z" fill="#000000" fill-rule="nonzero" fill-opacity="1" /><path clip-path="url(#clip330)" d="M1962.91 356.876 L1969.87 356.876 L1978.69 380.394 L1987.56 356.876 L1994.53 356.876 L1994.53 391.436 L1989.97 391.436 L1989.97 361.089 L1981.05 384.792 L1976.36 384.792 L1967.44 361.089 L1967.44 391.436 L1962.91 391.436 L1962.91 356.876 Z" fill="#000000" fill-rule="nonzero" fill-opacity="1" /><path clip-path="url(#clip330)" d="M2023.32 399.306 L2023.32 402.616 L1998.69 402.616 L1998.69 399.306 L2023.32 399.306 Z" fill="#000000" fill-rule="nonzero" fill-opacity="1" /><path clip-path="url(#clip330)" d="M2048.23 358.01 L2048.23 362.57 Q2045.57 361.297 2043.21 360.672 Q2040.85 360.047 2038.65 360.047 Q2034.83 360.047 2032.74 361.528 Q2030.68 363.01 2030.68 365.741 Q2030.68 368.033 2032.05 369.214 Q2033.44 370.371 2037.28 371.089 L2040.1 371.667 Q2045.34 372.663 2047.81 375.186 Q2050.31 377.686 2050.31 381.899 Q2050.31 386.922 2046.93 389.514 Q2043.58 392.107 2037.07 392.107 Q2034.62 392.107 2031.84 391.551 Q2029.09 390.996 2026.12 389.908 L2026.12 385.093 Q2028.97 386.69 2031.7 387.501 Q2034.43 388.311 2037.07 388.311 Q2041.08 388.311 2043.25 386.737 Q2045.43 385.163 2045.43 382.246 Q2045.43 379.7 2043.85 378.264 Q2042.3 376.829 2038.74 376.112 L2035.89 375.556 Q2030.66 374.515 2028.32 372.292 Q2025.98 370.07 2025.98 366.112 Q2025.98 361.528 2029.2 358.89 Q2032.44 356.251 2038.11 356.251 Q2040.54 356.251 2043.07 356.691 Q2045.59 357.13 2048.23 358.01 Z" fill="#000000" fill-rule="nonzero" fill-opacity="1" /><path clip-path="url(#clip330)" d="M2062.28 360.718 L2062.28 373.704 L2068.16 373.704 Q2071.42 373.704 2073.21 372.015 Q2074.99 370.325 2074.99 367.2 Q2074.99 364.098 2073.21 362.408 Q2071.42 360.718 2068.16 360.718 L2062.28 360.718 M2057.6 356.876 L2068.16 356.876 Q2073.97 356.876 2076.93 359.515 Q2079.92 362.13 2079.92 367.2 Q2079.92 372.315 2076.93 374.931 Q2073.97 377.547 2068.16 377.547 L2062.28 377.547 L2062.28 391.436 L2057.6 391.436 L2057.6 356.876 Z" fill="#000000" fill-rule="nonzero" fill-opacity="1" /><path clip-path="url(#clip330)" d="M2109.76 386.505 L2109.76 377.223 L2102.12 377.223 L2102.12 373.38 L2114.39 373.38 L2114.39 388.218 Q2111.68 390.139 2108.41 391.135 Q2105.15 392.107 2101.45 392.107 Q2093.35 392.107 2088.76 387.385 Q2084.2 382.639 2084.2 374.19 Q2084.2 365.718 2088.76 360.996 Q2093.35 356.251 2101.45 356.251 Q2104.83 356.251 2107.86 357.084 Q2110.91 357.917 2113.48 359.538 L2113.48 364.515 Q2110.89 362.316 2107.97 361.204 Q2105.06 360.093 2101.84 360.093 Q2095.5 360.093 2092.3 363.635 Q2089.13 367.177 2089.13 374.19 Q2089.13 381.181 2092.3 384.723 Q2095.5 388.264 2101.84 388.264 Q2104.32 388.264 2106.26 387.848 Q2108.21 387.408 2109.76 386.505 Z" fill="#000000" fill-rule="nonzero" fill-opacity="1" /><path clip-path="url(#clip330)" d="M2142.44 399.306 L2142.44 402.616 L2117.81 402.616 L2117.81 399.306 L2142.44 399.306 Z" fill="#000000" fill-rule="nonzero" fill-opacity="1" /><path clip-path="url(#clip330)" d="M2158.23 378.403 Q2153.07 378.403 2151.08 379.584 Q2149.09 380.764 2149.09 383.612 Q2149.09 385.88 2150.57 387.223 Q2152.07 388.542 2154.64 388.542 Q2158.18 388.542 2160.31 386.042 Q2162.47 383.519 2162.47 379.352 L2162.47 378.403 L2158.23 378.403 M2166.72 376.644 L2166.72 391.436 L2162.47 391.436 L2162.47 387.501 Q2161.01 389.862 2158.83 390.996 Q2156.66 392.107 2153.51 392.107 Q2149.53 392.107 2147.16 389.885 Q2144.83 387.639 2144.83 383.889 Q2144.83 379.514 2147.74 377.292 Q2150.68 375.07 2156.49 375.07 L2162.47 375.07 L2162.47 374.653 Q2162.47 371.714 2160.52 370.116 Q2158.6 368.496 2155.1 368.496 Q2152.88 368.496 2150.78 369.028 Q2148.67 369.561 2146.72 370.626 L2146.72 366.69 Q2149.06 365.788 2151.26 365.348 Q2153.46 364.885 2155.54 364.885 Q2161.17 364.885 2163.95 367.802 Q2166.72 370.718 2166.72 376.644 Z" fill="#000000" fill-rule="nonzero" fill-opacity="1" /><path clip-path="url(#clip330)" d="M2175.5 355.417 L2179.76 355.417 L2179.76 391.436 L2175.5 391.436 L2175.5 355.417 Z" fill="#000000" fill-rule="nonzero" fill-opacity="1" /><path clip-path="url(#clip330)" d="M2192.88 358.149 L2192.88 365.51 L2201.65 365.51 L2201.65 368.82 L2192.88 368.82 L2192.88 382.894 Q2192.88 386.065 2193.74 386.968 Q2194.62 387.871 2197.28 387.871 L2201.65 387.871 L2201.65 391.436 L2197.28 391.436 Q2192.35 391.436 2190.47 389.607 Q2188.6 387.755 2188.6 382.894 L2188.6 368.82 L2185.47 368.82 L2185.47 365.51 L2188.6 365.51 L2188.6 358.149 L2192.88 358.149 Z" fill="#000000" fill-rule="nonzero" fill-opacity="1" /><polyline clip-path="url(#clip330)" style="stroke:#ac8d18; stroke-linecap:round; stroke-linejoin:round; stroke-width:4; stroke-opacity:1; fill:none" points="1773.46,425.996 1913.2,425.996 "/>
<path clip-path="url(#clip330)" d="M1936.49 408.716 L1941.17 408.716 L1941.17 439.341 L1958 439.341 L1958 443.276 L1936.49 443.276 L1936.49 408.716 Z" fill="#000000" fill-rule="nonzero" fill-opacity="1" /><path clip-path="url(#clip330)" d="M1962.91 408.716 L1969.87 408.716 L1978.69 432.234 L1987.56 408.716 L1994.53 408.716 L1994.53 443.276 L1989.97 443.276 L1989.97 412.929 L1981.05 436.632 L1976.36 436.632 L1967.44 412.929 L1967.44 443.276 L1962.91 443.276 L1962.91 408.716 Z" fill="#000000" fill-rule="nonzero" fill-opacity="1" /></svg>
