<?xml version="1.0" encoding="utf-8"?>
<svg xmlns="http://www.w3.org/2000/svg" xmlns:xlink="http://www.w3.org/1999/xlink" width="600" height="400" viewBox="0 0 2400 1600">
<defs>
  <clipPath id="clip260">
    <rect x="0" y="0" width="2400" height="1600"/>
  </clipPath>
</defs>
<path clip-path="url(#clip260)" d="M0 1600 L2400 1600 L2400 0 L0 0  Z" fill="#ffffff" fill-rule="evenodd" fill-opacity="1"/>
<defs>
  <clipPath id="clip261">
    <rect x="480" y="0" width="1681" height="1600"/>
  </clipPath>
</defs>
<path clip-path="url(#clip260)" d="M221.637 1410.9 L2352.76 1410.9 L2352.76 123.472 L221.637 123.472  Z" fill="#ffffff" fill-rule="evenodd" fill-opacity="1"/>
<defs>
  <clipPath id="clip262">
    <rect x="221" y="123" width="2132" height="1288"/>
  </clipPath>
</defs>
<polyline clip-path="url(#clip262)" style="stroke:#000000; stroke-linecap:round; stroke-linejoin:round; stroke-width:2; stroke-opacity:0.1; fill:none" points="281.952,1410.9 281.952,123.472 "/>
<polyline clip-path="url(#clip262)" style="stroke:#000000; stroke-linecap:round; stroke-linejoin:round; stroke-width:2; stroke-opacity:0.1; fill:none" points="1537.75,1410.9 1537.75,123.472 "/>
<polyline clip-path="url(#clip260)" style="stroke:#000000; stroke-linecap:round; stroke-linejoin:round; stroke-width:4; stroke-opacity:1; fill:none" points="221.637,1410.9 2352.76,1410.9 "/>
<polyline clip-path="url(#clip260)" style="stroke:#000000; stroke-linecap:round; stroke-linejoin:round; stroke-width:4; stroke-opacity:1; fill:none" points="281.952,1410.9 281.952,1392 "/>
<polyline clip-path="url(#clip260)" style="stroke:#000000; stroke-linecap:round; stroke-linejoin:round; stroke-width:4; stroke-opacity:1; fill:none" points="1537.75,1410.9 1537.75,1392 "/>
<path clip-path="url(#clip260)" d="M246.935 1485.02 L254.573 1485.02 L254.573 1458.66 L246.263 1460.32 L246.263 1456.06 L254.527 1454.4 L259.203 1454.4 L259.203 1485.02 L266.842 1485.02 L266.842 1488.96 L246.935 1488.96 L246.935 1485.02 Z" fill="#000000" fill-rule="nonzero" fill-opacity="1" /><path clip-path="url(#clip260)" d="M286.286 1457.48 Q282.675 1457.48 280.846 1461.04 Q279.041 1464.58 279.041 1471.71 Q279.041 1478.82 280.846 1482.38 Q282.675 1485.92 286.286 1485.92 Q289.92 1485.92 291.726 1482.38 Q293.555 1478.82 293.555 1471.71 Q293.555 1464.58 291.726 1461.04 Q289.92 1457.48 286.286 1457.48 M286.286 1453.77 Q292.096 1453.77 295.152 1458.38 Q298.231 1462.96 298.231 1471.71 Q298.231 1480.44 295.152 1485.04 Q292.096 1489.63 286.286 1489.63 Q280.476 1489.63 277.397 1485.04 Q274.342 1480.44 274.342 1471.71 Q274.342 1462.96 277.397 1458.38 Q280.476 1453.77 286.286 1453.77 Z" fill="#000000" fill-rule="nonzero" fill-opacity="1" /><path clip-path="url(#clip260)" d="M307.935 1435.97 Q305.001 1435.97 303.516 1438.86 Q302.049 1441.74 302.049 1447.53 Q302.049 1453.31 303.516 1456.2 Q305.001 1459.08 307.935 1459.08 Q310.888 1459.08 312.355 1456.2 Q313.841 1453.31 313.841 1447.53 Q313.841 1441.74 312.355 1438.86 Q310.888 1435.97 307.935 1435.97 M307.935 1432.96 Q312.656 1432.96 315.139 1436.7 Q317.64 1440.43 317.64 1447.53 Q317.64 1454.62 315.139 1458.37 Q312.656 1462.09 307.935 1462.09 Q303.215 1462.09 300.713 1458.37 Q298.231 1454.62 298.231 1447.53 Q298.231 1440.43 300.713 1436.7 Q303.215 1432.96 307.935 1432.96 Z" fill="#000000" fill-rule="nonzero" fill-opacity="1" /><path clip-path="url(#clip260)" d="M1503.52 1485.02 L1511.16 1485.02 L1511.16 1458.66 L1502.85 1460.32 L1502.85 1456.06 L1511.11 1454.4 L1515.79 1454.4 L1515.79 1485.02 L1523.43 1485.02 L1523.43 1488.96 L1503.52 1488.96 L1503.52 1485.02 Z" fill="#000000" fill-rule="nonzero" fill-opacity="1" /><path clip-path="url(#clip260)" d="M1542.87 1457.48 Q1539.26 1457.48 1537.43 1461.04 Q1535.62 1464.58 1535.62 1471.71 Q1535.62 1478.82 1537.43 1482.38 Q1539.26 1485.92 1542.87 1485.92 Q1546.5 1485.92 1548.31 1482.38 Q1550.14 1478.82 1550.14 1471.71 Q1550.14 1464.58 1548.31 1461.04 Q1546.5 1457.48 1542.87 1457.48 M1542.87 1453.77 Q1548.68 1453.77 1551.74 1458.38 Q1554.81 1462.96 1554.81 1471.71 Q1554.81 1480.44 1551.74 1485.04 Q1548.68 1489.63 1542.87 1489.63 Q1537.06 1489.63 1533.98 1485.04 Q1530.93 1480.44 1530.93 1471.71 Q1530.93 1462.96 1533.98 1458.38 Q1537.06 1453.77 1542.87 1453.77 Z" fill="#000000" fill-rule="nonzero" fill-opacity="1" /><path clip-path="url(#clip260)" d="M1559.38 1458.35 L1572.64 1458.35 L1572.64 1461.55 L1554.81 1461.55 L1554.81 1458.35 Q1556.98 1456.11 1560.7 1452.35 Q1564.44 1448.57 1565.4 1447.48 Q1567.23 1445.43 1567.94 1444.02 Q1568.68 1442.59 1568.68 1441.22 Q1568.68 1438.98 1567.1 1437.57 Q1565.53 1436.16 1563.01 1436.16 Q1561.23 1436.16 1559.23 1436.78 Q1557.26 1437.4 1555 1438.66 L1555 1434.82 Q1557.3 1433.9 1559.29 1433.43 Q1561.28 1432.96 1562.94 1432.96 Q1567.3 1432.96 1569.9 1435.14 Q1572.49 1437.32 1572.49 1440.97 Q1572.49 1442.7 1571.83 1444.26 Q1571.2 1445.8 1569.48 1447.91 Q1569.01 1448.46 1566.49 1451.07 Q1563.97 1453.67 1559.38 1458.35 Z" fill="#000000" fill-rule="nonzero" fill-opacity="1" /><path clip-path="url(#clip260)" d="M1121.19 1526.67 L1151.24 1526.67 L1151.24 1532.08 L1127.62 1532.08 L1127.62 1546.14 L1150.25 1546.14 L1150.25 1551.56 L1127.62 1551.56 L1127.62 1568.77 L1151.81 1568.77 L1151.81 1574.19 L1121.19 1574.19 L1121.19 1526.67 Z" fill="#000000" fill-rule="nonzero" fill-opacity="1" /><path clip-path="url(#clip260)" d="M1157.92 1538.54 L1164.13 1538.54 L1175.27 1568.46 L1186.41 1538.54 L1192.62 1538.54 L1179.25 1574.19 L1171.29 1574.19 L1157.92 1538.54 Z" fill="#000000" fill-rule="nonzero" fill-opacity="1" /><path clip-path="url(#clip260)" d="M1216.9 1556.27 Q1209.81 1556.27 1207.07 1557.89 Q1204.33 1559.51 1204.33 1563.43 Q1204.33 1566.55 1206.37 1568.39 Q1208.44 1570.21 1211.97 1570.21 Q1216.84 1570.21 1219.77 1566.77 Q1222.73 1563.3 1222.73 1557.57 L1222.73 1556.27 L1216.9 1556.27 M1228.58 1553.85 L1228.58 1574.19 L1222.73 1574.19 L1222.73 1568.77 Q1220.72 1572.02 1217.73 1573.58 Q1214.74 1575.11 1210.41 1575.11 Q1204.94 1575.11 1201.69 1572.05 Q1198.47 1568.97 1198.47 1563.81 Q1198.47 1557.79 1202.48 1554.74 Q1206.53 1551.68 1214.52 1551.68 L1222.73 1551.68 L1222.73 1551.11 Q1222.73 1547.07 1220.05 1544.87 Q1217.41 1542.64 1212.61 1542.64 Q1209.55 1542.64 1206.65 1543.38 Q1203.76 1544.11 1201.08 1545.57 L1201.08 1540.16 Q1204.3 1538.92 1207.32 1538.31 Q1210.35 1537.68 1213.21 1537.68 Q1220.95 1537.68 1224.76 1541.69 Q1228.58 1545.7 1228.58 1553.85 Z" fill="#000000" fill-rule="nonzero" fill-opacity="1" /><path clip-path="url(#clip260)" d="M1240.65 1524.66 L1246.5 1524.66 L1246.5 1574.19 L1240.65 1574.19 L1240.65 1524.66 Z" fill="#000000" fill-rule="nonzero" fill-opacity="1" /><path clip-path="url(#clip260)" d="M1258.15 1560.12 L1258.15 1538.54 L1264.01 1538.54 L1264.01 1559.89 Q1264.01 1564.96 1265.98 1567.5 Q1267.96 1570.02 1271.9 1570.02 Q1276.65 1570.02 1279.38 1566.99 Q1282.15 1563.97 1282.15 1558.75 L1282.15 1538.54 L1288.01 1538.54 L1288.01 1574.19 L1282.15 1574.19 L1282.15 1568.71 Q1280.02 1571.96 1277.19 1573.55 Q1274.39 1575.11 1270.66 1575.11 Q1264.52 1575.11 1261.34 1571.29 Q1258.15 1567.47 1258.15 1560.12 M1272.89 1537.68 L1272.89 1537.68 Z" fill="#000000" fill-rule="nonzero" fill-opacity="1" /><path clip-path="url(#clip260)" d="M1316.27 1556.27 Q1309.17 1556.27 1306.44 1557.89 Q1303.7 1559.51 1303.7 1563.43 Q1303.7 1566.55 1305.74 1568.39 Q1307.81 1570.21 1311.34 1570.21 Q1316.21 1570.21 1319.14 1566.77 Q1322.1 1563.3 1322.1 1557.57 L1322.1 1556.27 L1316.27 1556.27 M1327.95 1553.85 L1327.95 1574.19 L1322.1 1574.19 L1322.1 1568.77 Q1320.09 1572.02 1317.1 1573.58 Q1314.11 1575.11 1309.78 1575.11 Q1304.3 1575.11 1301.06 1572.05 Q1297.84 1568.97 1297.84 1563.81 Q1297.84 1557.79 1301.85 1554.74 Q1305.9 1551.68 1313.88 1551.68 L1322.1 1551.68 L1322.1 1551.11 Q1322.1 1547.07 1319.42 1544.87 Q1316.78 1542.64 1311.98 1542.64 Q1308.92 1542.64 1306.02 1543.38 Q1303.13 1544.11 1300.45 1545.57 L1300.45 1540.16 Q1303.67 1538.92 1306.69 1538.31 Q1309.72 1537.68 1312.58 1537.68 Q1320.31 1537.68 1324.13 1541.69 Q1327.95 1545.7 1327.95 1553.85 Z" fill="#000000" fill-rule="nonzero" fill-opacity="1" /><path clip-path="url(#clip260)" d="M1345.81 1528.42 L1345.81 1538.54 L1357.87 1538.54 L1357.87 1543.09 L1345.81 1543.09 L1345.81 1562.44 Q1345.81 1566.8 1346.99 1568.04 Q1348.2 1569.28 1351.86 1569.28 L1357.87 1569.28 L1357.87 1574.19 L1351.86 1574.19 Q1345.08 1574.19 1342.5 1571.67 Q1339.92 1569.12 1339.92 1562.44 L1339.92 1543.09 L1335.62 1543.09 L1335.62 1538.54 L1339.92 1538.54 L1339.92 1528.42 L1345.81 1528.42 Z" fill="#000000" fill-rule="nonzero" fill-opacity="1" /><path clip-path="url(#clip260)" d="M1365.57 1538.54 L1371.43 1538.54 L1371.43 1574.19 L1365.57 1574.19 L1365.57 1538.54 M1365.57 1524.66 L1371.43 1524.66 L1371.43 1532.08 L1365.57 1532.08 L1365.57 1524.66 Z" fill="#000000" fill-rule="nonzero" fill-opacity="1" /><path clip-path="url(#clip260)" d="M1397.5 1542.64 Q1392.79 1542.64 1390.05 1546.34 Q1387.31 1550 1387.31 1556.39 Q1387.31 1562.79 1390.02 1566.48 Q1392.76 1570.14 1397.5 1570.14 Q1402.18 1570.14 1404.91 1566.45 Q1407.65 1562.76 1407.65 1556.39 Q1407.65 1550.06 1404.91 1546.37 Q1402.18 1542.64 1397.5 1542.64 M1397.5 1537.68 Q1405.14 1537.68 1409.5 1542.64 Q1413.86 1547.61 1413.86 1556.39 Q1413.86 1565.15 1409.5 1570.14 Q1405.14 1575.11 1397.5 1575.11 Q1389.83 1575.11 1385.47 1570.14 Q1381.14 1565.15 1381.14 1556.39 Q1381.14 1547.61 1385.47 1542.64 Q1389.83 1537.68 1397.5 1537.68 Z" fill="#000000" fill-rule="nonzero" fill-opacity="1" /><path clip-path="url(#clip260)" d="M1453.2 1552.67 L1453.2 1574.19 L1447.34 1574.19 L1447.34 1552.86 Q1447.34 1547.8 1445.37 1545.29 Q1443.4 1542.77 1439.45 1542.77 Q1434.71 1542.77 1431.97 1545.79 Q1429.23 1548.82 1429.23 1554.04 L1429.23 1574.19 L1423.34 1574.19 L1423.34 1538.54 L1429.23 1538.54 L1429.23 1544.08 Q1431.33 1540.86 1434.16 1539.27 Q1437.03 1537.68 1440.75 1537.68 Q1446.9 1537.68 1450.05 1541.5 Q1453.2 1545.29 1453.2 1552.67 Z" fill="#000000" fill-rule="nonzero" fill-opacity="1" /><polyline clip-path="url(#clip262)" style="stroke:#000000; stroke-linecap:round; stroke-linejoin:round; stroke-width:2; stroke-opacity:0.1; fill:none" points="221.637,1394.14 2352.76,1394.14 "/>
<polyline clip-path="url(#clip262)" style="stroke:#000000; stroke-linecap:round; stroke-linejoin:round; stroke-width:2; stroke-opacity:0.1; fill:none" points="221.637,657.28 2352.76,657.28 "/>
<polyline clip-path="url(#clip260)" style="stroke:#000000; stroke-linecap:round; stroke-linejoin:round; stroke-width:4; stroke-opacity:1; fill:none" points="221.637,1410.9 221.637,123.472 "/>
<polyline clip-path="url(#clip260)" style="stroke:#000000; stroke-linecap:round; stroke-linejoin:round; stroke-width:4; stroke-opacity:1; fill:none" points="221.637,1394.14 240.535,1394.14 "/>
<polyline clip-path="url(#clip260)" style="stroke:#000000; stroke-linecap:round; stroke-linejoin:round; stroke-width:4; stroke-opacity:1; fill:none" points="221.637,657.28 240.535,657.28 "/>
<path clip-path="url(#clip260)" d="M114.931 1413.93 L122.57 1413.93 L122.57 1387.57 L114.26 1389.23 L114.26 1384.97 L122.524 1383.31 L127.2 1383.31 L127.2 1413.93 L134.839 1413.93 L134.839 1417.87 L114.931 1417.87 L114.931 1413.93 Z" fill="#000000" fill-rule="nonzero" fill-opacity="1" /><path clip-path="url(#clip260)" d="M154.283 1386.39 Q150.672 1386.39 148.843 1389.95 Q147.038 1393.49 147.038 1400.62 Q147.038 1407.73 148.843 1411.29 Q150.672 1414.84 154.283 1414.84 Q157.917 1414.84 159.723 1411.29 Q161.552 1407.73 161.552 1400.62 Q161.552 1393.49 159.723 1389.95 Q157.917 1386.39 154.283 1386.39 M154.283 1382.68 Q160.093 1382.68 163.149 1387.29 Q166.227 1391.87 166.227 1400.62 Q166.227 1409.35 163.149 1413.96 Q160.093 1418.54 154.283 1418.54 Q148.473 1418.54 145.394 1413.96 Q142.339 1409.35 142.339 1400.62 Q142.339 1391.87 145.394 1387.29 Q148.473 1382.68 154.283 1382.68 Z" fill="#000000" fill-rule="nonzero" fill-opacity="1" /><path clip-path="url(#clip260)" d="M175.932 1364.88 Q172.998 1364.88 171.512 1367.78 Q170.045 1370.65 170.045 1376.45 Q170.045 1382.22 171.512 1385.12 Q172.998 1387.99 175.932 1387.99 Q178.885 1387.99 180.352 1385.12 Q181.838 1382.22 181.838 1376.45 Q181.838 1370.65 180.352 1367.78 Q178.885 1364.88 175.932 1364.88 M175.932 1361.87 Q180.653 1361.87 183.136 1365.61 Q185.637 1369.34 185.637 1376.45 Q185.637 1383.54 183.136 1387.28 Q180.653 1391 175.932 1391 Q171.212 1391 168.71 1387.28 Q166.227 1383.54 166.227 1376.45 Q166.227 1369.34 168.71 1365.61 Q171.212 1361.87 175.932 1361.87 Z" fill="#000000" fill-rule="nonzero" fill-opacity="1" /><path clip-path="url(#clip260)" d="M116.173 677.073 L123.812 677.073 L123.812 650.707 L115.501 652.374 L115.501 648.115 L123.765 646.448 L128.441 646.448 L128.441 677.073 L136.08 677.073 L136.08 681.008 L116.173 681.008 L116.173 677.073 Z" fill="#000000" fill-rule="nonzero" fill-opacity="1" /><path clip-path="url(#clip260)" d="M155.524 649.527 Q151.913 649.527 150.085 653.092 Q148.279 656.633 148.279 663.763 Q148.279 670.869 150.085 674.434 Q151.913 677.976 155.524 677.976 Q159.159 677.976 160.964 674.434 Q162.793 670.869 162.793 663.763 Q162.793 656.633 160.964 653.092 Q159.159 649.527 155.524 649.527 M155.524 645.823 Q161.335 645.823 164.39 650.43 Q167.469 655.013 167.469 663.763 Q167.469 672.49 164.39 677.096 Q161.335 681.679 155.524 681.679 Q149.714 681.679 146.636 677.096 Q143.58 672.49 143.58 663.763 Q143.58 655.013 146.636 650.43 Q149.714 645.823 155.524 645.823 Z" fill="#000000" fill-rule="nonzero" fill-opacity="1" /><path clip-path="url(#clip260)" d="M168.654 625.518 L183.568 625.518 L183.568 628.715 L172.133 628.715 L172.133 635.599 Q172.961 635.316 173.788 635.185 Q174.616 635.034 175.443 635.034 Q180.145 635.034 182.891 637.611 Q185.637 640.188 185.637 644.589 Q185.637 649.121 182.816 651.642 Q179.995 654.143 174.86 654.143 Q173.092 654.143 171.249 653.842 Q169.425 653.541 167.469 652.939 L167.469 649.121 Q169.161 650.043 170.967 650.494 Q172.773 650.946 174.785 650.946 Q178.039 650.946 179.938 649.234 Q181.838 647.523 181.838 644.589 Q181.838 641.655 179.938 639.943 Q178.039 638.232 174.785 638.232 Q173.262 638.232 171.738 638.57 Q170.234 638.909 168.654 639.623 L168.654 625.518 Z" fill="#000000" fill-rule="nonzero" fill-opacity="1" /><path clip-path="url(#clip260)" d="M14.1925 833.706 L79.3773 833.706 L79.3773 839.117 L14.1925 839.117 L14.1925 833.706 M14.1925 823.203 L79.3773 823.203 L79.3773 828.613 L14.1925 828.613 L14.1925 823.203 Z" fill="#000000" fill-rule="nonzero" fill-opacity="1" /><path clip-path="url(#clip260)" d="M16.4842 808.402 L16.4842 801.973 L60.694 801.973 Q69.2877 801.973 73.1708 805.251 Q77.0539 808.498 77.0539 815.723 L77.0539 818.174 L71.643 818.174 L71.643 816.168 Q71.643 811.903 69.2559 810.153 Q66.8687 808.402 60.694 808.402 L16.4842 808.402 Z" fill="#000000" fill-rule="nonzero" fill-opacity="1" /><path clip-path="url(#clip260)" d="M16.4842 783.894 L34.149 783.894 L34.149 789.305 L16.4842 789.305 L16.4842 783.894 Z" fill="#000000" fill-rule="nonzero" fill-opacity="1" /><path clip-path="url(#clip260)" d="M55.9197 770.686 L55.9197 763.97 L64.0042 763.97 L64.0042 770.686 L55.9197 770.686 Z" fill="#000000" fill-rule="nonzero" fill-opacity="1" /><path clip-path="url(#clip260)" d="M16.4842 750.538 L16.4842 723.229 L21.895 723.229 L21.895 744.109 L35.8996 744.109 L35.8996 725.266 L41.3104 725.266 L41.3104 744.109 L64.0042 744.109 L64.0042 750.538 L16.4842 750.538 Z" fill="#000000" fill-rule="nonzero" fill-opacity="1" /><path clip-path="url(#clip260)" d="M14.1925 705.755 L79.3773 705.755 L79.3773 711.166 L14.1925 711.166 L14.1925 705.755 M14.1925 695.252 L79.3773 695.252 L79.3773 700.663 L14.1925 700.663 L14.1925 695.252 Z" fill="#000000" fill-rule="nonzero" fill-opacity="1" /><path clip-path="url(#clip260)" d="M915.972 65.7705 L915.972 89.8329 L908.477 89.8329 L908.477 27.2059 L915.972 27.2059 L915.972 34.0924 Q918.321 30.0415 921.886 28.0971 Q925.491 26.1121 930.474 26.1121 Q938.738 26.1121 943.882 32.6746 Q949.068 39.2371 949.068 49.9314 Q949.068 60.6258 943.882 67.1883 Q938.738 73.7508 930.474 73.7508 Q925.491 73.7508 921.886 71.8063 Q918.321 69.8214 915.972 65.7705 M941.33 49.9314 Q941.33 41.7081 937.928 37.0496 Q934.565 32.3505 928.651 32.3505 Q922.737 32.3505 919.334 37.0496 Q915.972 41.7081 915.972 49.9314 Q915.972 58.1548 919.334 62.8538 Q922.737 67.5124 928.651 67.5124 Q934.565 67.5124 937.928 62.8538 Q941.33 58.1548 941.33 49.9314 Z" fill="#000000" fill-rule="nonzero" fill-opacity="1" /><path clip-path="url(#clip260)" d="M987.713 34.1734 Q986.457 33.4443 984.959 33.1202 Q983.5 32.7556 981.718 32.7556 Q975.398 32.7556 971.996 36.8875 Q968.633 40.9789 968.633 48.6757 L968.633 72.576 L961.139 72.576 L961.139 27.2059 L968.633 27.2059 L968.633 34.2544 Q970.983 30.1225 974.75 28.1376 Q978.518 26.1121 983.905 26.1121 Q984.675 26.1121 985.607 26.2337 Q986.538 26.3147 987.673 26.5172 L987.713 34.1734 Z" fill="#000000" fill-rule="nonzero" fill-opacity="1" /><path clip-path="url(#clip260)" d="M1011.29 32.4315 Q1005.29 32.4315 1001.81 37.1306 Q998.327 41.7891 998.327 49.9314 Q998.327 58.0738 1001.77 62.7728 Q1005.25 67.4314 1011.29 67.4314 Q1017.24 67.4314 1020.73 62.7323 Q1024.21 58.0333 1024.21 49.9314 Q1024.21 41.8701 1020.73 37.1711 Q1017.24 32.4315 1011.29 32.4315 M1011.29 26.1121 Q1021.01 26.1121 1026.56 32.4315 Q1032.11 38.7509 1032.11 49.9314 Q1032.11 61.0714 1026.56 67.4314 Q1021.01 73.7508 1011.29 73.7508 Q1001.53 73.7508 995.977 67.4314 Q990.468 61.0714 990.468 49.9314 Q990.468 38.7509 995.977 32.4315 Q1001.53 26.1121 1011.29 26.1121 Z" fill="#000000" fill-rule="nonzero" fill-opacity="1" /><path clip-path="url(#clip260)" d="M1077.04 49.9314 Q1077.04 41.7081 1073.63 37.0496 Q1070.27 32.3505 1064.36 32.3505 Q1058.44 32.3505 1055.04 37.0496 Q1051.68 41.7081 1051.68 49.9314 Q1051.68 58.1548 1055.04 62.8538 Q1058.44 67.5124 1064.36 67.5124 Q1070.27 67.5124 1073.63 62.8538 Q1077.04 58.1548 1077.04 49.9314 M1051.68 34.0924 Q1054.03 30.0415 1057.59 28.0971 Q1061.2 26.1121 1066.18 26.1121 Q1074.44 26.1121 1079.59 32.6746 Q1084.77 39.2371 1084.77 49.9314 Q1084.77 60.6258 1079.59 67.1883 Q1074.44 73.7508 1066.18 73.7508 Q1061.2 73.7508 1057.59 71.8063 Q1054.03 69.8214 1051.68 65.7705 L1051.68 72.576 L1044.18 72.576 L1044.18 9.54393 L1051.68 9.54393 L1051.68 34.0924 Z" fill="#000000" fill-rule="nonzero" fill-opacity="1" /><path clip-path="url(#clip260)" d="M1097.13 9.54393 L1104.58 9.54393 L1104.58 72.576 L1097.13 72.576 L1097.13 9.54393 Z" fill="#000000" fill-rule="nonzero" fill-opacity="1" /><path clip-path="url(#clip260)" d="M1158.99 48.0275 L1158.99 51.6733 L1124.71 51.6733 Q1125.2 59.3701 1129.33 63.421 Q1133.51 67.4314 1140.92 67.4314 Q1145.21 67.4314 1149.22 66.3781 Q1153.27 65.3249 1157.24 63.2184 L1157.24 70.267 Q1153.23 71.9684 1149.02 72.8596 Q1144.81 73.7508 1140.47 73.7508 Q1129.62 73.7508 1123.26 67.4314 Q1116.94 61.1119 1116.94 50.3365 Q1116.94 39.1965 1122.93 32.6746 Q1128.97 26.1121 1139.18 26.1121 Q1148.33 26.1121 1153.64 32.0264 Q1158.99 37.9003 1158.99 48.0275 M1151.53 45.84 Q1151.45 39.7232 1148.09 36.0774 Q1144.77 32.4315 1139.26 32.4315 Q1133.02 32.4315 1129.25 35.9558 Q1125.52 39.4801 1124.96 45.8805 L1151.53 45.84 Z" fill="#000000" fill-rule="nonzero" fill-opacity="1" /><path clip-path="url(#clip260)" d="M1206.54 35.9153 Q1209.34 30.8922 1213.23 28.5022 Q1217.12 26.1121 1222.38 26.1121 Q1229.47 26.1121 1233.32 31.0947 Q1237.17 36.0368 1237.17 45.1919 L1237.17 72.576 L1229.67 72.576 L1229.67 45.4349 Q1229.67 38.913 1227.36 35.7533 Q1225.06 32.5936 1220.32 32.5936 Q1214.52 32.5936 1211.16 36.4419 Q1207.8 40.2903 1207.8 46.9338 L1207.8 72.576 L1200.3 72.576 L1200.3 45.4349 Q1200.3 38.8725 1198 35.7533 Q1195.69 32.5936 1190.87 32.5936 Q1185.15 32.5936 1181.79 36.4824 Q1178.43 40.3308 1178.43 46.9338 L1178.43 72.576 L1170.94 72.576 L1170.94 27.2059 L1178.43 27.2059 L1178.43 34.2544 Q1180.98 30.082 1184.55 28.0971 Q1188.11 26.1121 1193.01 26.1121 Q1197.96 26.1121 1201.4 28.6237 Q1204.88 31.1352 1206.54 35.9153 Z" fill="#000000" fill-rule="nonzero" fill-opacity="1" /><path clip-path="url(#clip260)" d="M1248.27 46.5287 L1270.1 46.5287 L1270.1 53.1722 L1248.27 53.1722 L1248.27 46.5287 Z" fill="#000000" fill-rule="nonzero" fill-opacity="1" /><path clip-path="url(#clip260)" d="M1283.11 12.096 L1315.23 12.096 L1315.23 18.9825 L1290.6 18.9825 L1290.6 33.8088 Q1292.38 33.2012 1294.16 32.9176 Q1295.95 32.5936 1297.73 32.5936 Q1307.86 32.5936 1313.77 38.1433 Q1319.68 43.6931 1319.68 53.1722 Q1319.68 62.9348 1313.61 68.3631 Q1307.53 73.7508 1296.47 73.7508 Q1292.67 73.7508 1288.7 73.1026 Q1284.77 72.4545 1280.55 71.1582 L1280.55 62.9348 Q1284.2 64.9198 1288.09 65.892 Q1291.98 66.8642 1296.31 66.8642 Q1303.32 66.8642 1307.41 63.1779 Q1311.5 59.4916 1311.5 53.1722 Q1311.5 46.8528 1307.41 43.1664 Q1303.32 39.4801 1296.31 39.4801 Q1293.03 39.4801 1289.75 40.2093 Q1286.51 40.9384 1283.11 42.4778 L1283.11 12.096 Z" fill="#000000" fill-rule="nonzero" fill-opacity="1" /><path clip-path="url(#clip260)" d="M1353.31 17.4837 Q1346.99 17.4837 1343.79 23.7221 Q1340.63 29.92 1340.63 42.3968 Q1340.63 54.833 1343.79 61.0714 Q1346.99 67.2693 1353.31 67.2693 Q1359.67 67.2693 1362.83 61.0714 Q1366.03 54.833 1366.03 42.3968 Q1366.03 29.92 1362.83 23.7221 Q1359.67 17.4837 1353.31 17.4837 M1353.31 11.0023 Q1363.48 11.0023 1368.82 19.0636 Q1374.21 27.0843 1374.21 42.3968 Q1374.21 57.6687 1368.82 65.73 Q1363.48 73.7508 1353.31 73.7508 Q1343.14 73.7508 1337.75 65.73 Q1332.4 57.6687 1332.4 42.3968 Q1332.4 27.0843 1337.75 19.0636 Q1343.14 11.0023 1353.31 11.0023 Z" fill="#000000" fill-rule="nonzero" fill-opacity="1" /><path clip-path="url(#clip260)" d="M1383.77 46.5287 L1405.6 46.5287 L1405.6 53.1722 L1383.77 53.1722 L1383.77 46.5287 Z" fill="#000000" fill-rule="nonzero" fill-opacity="1" /><path clip-path="url(#clip260)" d="M1425.58 65.6895 L1454.13 65.6895 L1454.13 72.576 L1415.73 72.576 L1415.73 65.6895 Q1420.39 60.8689 1428.41 52.7671 Q1436.47 44.6248 1438.54 42.2752 Q1442.47 37.8598 1444.01 34.8216 Q1445.59 31.7429 1445.59 28.7857 Q1445.59 23.9651 1442.18 20.927 Q1438.82 17.8888 1433.39 17.8888 Q1429.55 17.8888 1425.25 19.2256 Q1421 20.5624 1416.14 23.2765 L1416.14 15.0127 Q1421.08 13.0277 1425.37 12.015 Q1429.67 11.0023 1433.23 11.0023 Q1442.63 11.0023 1448.22 15.7013 Q1453.81 20.4004 1453.81 28.2591 Q1453.81 31.9859 1452.39 35.3482 Q1451.02 38.6699 1447.33 43.2069 Q1446.32 44.3817 1440.89 50.0125 Q1435.46 55.6027 1425.58 65.6895 Z" fill="#000000" fill-rule="nonzero" fill-opacity="1" /><path clip-path="url(#clip260)" d="M1488.81 17.4837 Q1482.49 17.4837 1479.29 23.7221 Q1476.13 29.92 1476.13 42.3968 Q1476.13 54.833 1479.29 61.0714 Q1482.49 67.2693 1488.81 67.2693 Q1495.17 67.2693 1498.33 61.0714 Q1501.53 54.833 1501.53 42.3968 Q1501.53 29.92 1498.33 23.7221 Q1495.17 17.4837 1488.81 17.4837 M1488.81 11.0023 Q1498.98 11.0023 1504.32 19.0636 Q1509.71 27.0843 1509.71 42.3968 Q1509.71 57.6687 1504.32 65.73 Q1498.98 73.7508 1488.81 73.7508 Q1478.64 73.7508 1473.25 65.73 Q1467.91 57.6687 1467.91 42.3968 Q1467.91 27.0843 1473.25 19.0636 Q1478.64 11.0023 1488.81 11.0023 Z" fill="#000000" fill-rule="nonzero" fill-opacity="1" /><path clip-path="url(#clip260)" d="M1546.58 19.2256 L1525.92 51.5113 L1546.58 51.5113 L1546.58 19.2256 M1544.43 12.096 L1554.72 12.096 L1554.72 51.5113 L1563.35 51.5113 L1563.35 58.3168 L1554.72 58.3168 L1554.72 72.576 L1546.58 72.576 L1546.58 58.3168 L1519.27 58.3168 L1519.27 50.4176 L1544.43 12.096 Z" fill="#000000" fill-rule="nonzero" fill-opacity="1" /><path clip-path="url(#clip260)" d="M1601.67 39.9662 Q1607.54 41.222 1610.82 45.1919 Q1614.14 49.1618 1614.14 54.9951 Q1614.14 63.9476 1607.99 68.8492 Q1601.83 73.7508 1590.49 73.7508 Q1586.68 73.7508 1582.63 72.9811 Q1578.62 72.2519 1574.32 70.7531 L1574.32 62.8538 Q1577.73 64.8388 1581.78 65.8515 Q1585.83 66.8642 1590.24 66.8642 Q1597.94 66.8642 1601.95 63.826 Q1606 60.7879 1606 54.9951 Q1606 49.6479 1602.24 46.6502 Q1598.51 43.612 1591.82 43.612 L1584.78 43.612 L1584.78 36.8875 L1592.15 36.8875 Q1598.18 36.8875 1601.38 34.4975 Q1604.58 32.067 1604.58 27.5299 Q1604.58 22.8714 1601.26 20.4004 Q1597.98 17.8888 1591.82 17.8888 Q1588.46 17.8888 1584.61 18.618 Q1580.77 19.3471 1576.15 20.8865 L1576.15 13.5948 Q1580.81 12.2985 1584.86 11.6504 Q1588.95 11.0023 1592.55 11.0023 Q1601.87 11.0023 1607.3 15.2557 Q1612.73 19.4686 1612.73 26.6793 Q1612.73 31.7024 1609.85 35.1862 Q1606.97 38.6294 1601.67 39.9662 Z" fill="#000000" fill-rule="nonzero" fill-opacity="1" /><path clip-path="url(#clip260)" d="M1631.08 65.6895 L1644.45 65.6895 L1644.45 19.5497 L1629.9 22.4663 L1629.9 15.0127 L1644.36 12.096 L1652.55 12.096 L1652.55 65.6895 L1665.92 65.6895 L1665.92 72.576 L1631.08 72.576 L1631.08 65.6895 Z" fill="#000000" fill-rule="nonzero" fill-opacity="1" /><polyline clip-path="url(#clip262)" style="stroke:#009af9; stroke-linecap:round; stroke-linejoin:round; stroke-width:4; stroke-opacity:1; fill:none" points="281.952,159.909 470.968,329.834 581.535,329.834 659.983,329.834 720.833,329.834 770.55,329.834 812.586,329.834 848.999,329.834 881.117,343.744 909.848,424.209 935.839,512.534 959.566,512.534 981.393,512.534 1001.6,512.534 1020.42,482.257 1038.01,679.451 1054.55,799.294 1070.13,968.602 1084.88,994.477 1098.86,1031.81 1112.17,1075.27 1124.85,1054.37 1136.98,1075.56 1148.58,1027.45 1159.71,995.593 1170.41,954.963 1180.7,945.077 1190.62,906.705 1200.19,866.367 1209.43,807.433 1218.37,792.879 1227.03,804.685 1235.42,871.709 1243.56,974.026 1251.47,1087.85 1259.15,1065.26 1266.62,1065.26 1273.89,1065.26 1280.98,1065.26 1287.88,1065.26 1294.61,1106.48 1301.18,1092.6 1307.6,1112.21 1313.87,1100.26 1320,1118.68 1325.99,1107.91 1331.86,1125.11 1337.6,1115.48 1343.22,1131.49 1348.73,1122.95 1354.13,1137.83 1359.42,1130.32 1364.62,1144.16 1369.72,1137.6 1374.72,1150.49 1379.63,1144.81 1384.46,1156.81 1389.2,1151.94 1393.86,1163.14 1398.45,1159.02 1402.95,1169.47 1407.39,1166.03 1411.75,1175.82 1416.05,1173 1420.27,1182.18 1424.44,1179.93 1428.54,1188.56 1432.58,1186.81 1436.56,1194.94 1440.48,1193.67 1444.35,1201.35 1448.16,1200.49 1451.93,1207.77 1455.64,1207.28 1459.3,1214.2 1462.91,1214.05 1466.47,1220.64 1469.99,1220.8 1473.47,1227.1 1476.9,1227.53 1480.28,1233.57 1483.63,1234.24 1486.93,1240.05 1490.2,1240.94 1493.43,1246.54 1496.62,1247.62 1499.77,1253.04 1502.89,1254.29 1505.97,1259.55 1509.01,1260.95 1512.03,1266.07 1515.01,1267.6 1517.96,1272.6 1520.87,1274.24 1523.76,1279.14 1526.61,1280.87 1529.44,1285.68 1532.24,1287.49 1535,1292.23 1537.75,1294.1 1540.46,1298.79 1543.15,1300.7 1545.81,1305.35 1548.44,1307.3 1551.05,1311.92 1553.63,1313.89 1556.2,1318.5 1558.73,1320.48 1561.25,1325.08 1563.74,1327.05 1566.2,1331.67 1568.65,1333.63 1571.07,1338.26 1573.48,1340.19 "/>
<polyline clip-path="url(#clip262)" style="stroke:#e26f46; stroke-linecap:round; stroke-linejoin:round; stroke-width:4; stroke-opacity:1; fill:none" points="281.952,159.909 470.968,475.876 581.535,579.88 659.983,504.204 720.833,443.376 770.55,594.086 812.586,594.086 848.999,594.086 881.117,594.086 909.848,594.086 935.839,594.086 959.566,526.648 981.393,574.272 1001.6,513.286 1020.42,661.698 1038.01,587.818 1054.55,674.513 1070.13,600.613 1084.88,695.528 1098.86,706.676 1112.17,712.549 1124.85,740.886 1136.98,786.351 1148.58,1034.76 1159.71,1192.94 1170.41,1374.46 "/>
<polyline clip-path="url(#clip262)" style="stroke:#3da44d; stroke-linecap:round; stroke-linejoin:round; stroke-width:4; stroke-opacity:1; fill:none" points="281.952,159.909 470.968,475.876 581.535,575.523 659.983,556.973 720.833,626.676 770.55,661.197 812.586,676.315 848.999,646.52 881.117,695.512 909.848,704.834 935.839,685.035 959.566,712.789 981.393,786.237 1001.6,797.634 1020.42,726.622 1038.01,777.91 1054.55,831.413 1070.13,850.049 1084.88,898.015 1098.86,914.063 1112.17,870.817 1124.85,942.07 1136.98,944.612 1148.58,966.7 1159.71,931.678 1170.41,978.479 1180.7,856.077 1190.62,959.45 1200.19,865.937 1209.43,962.039 1218.37,934.728 1227.03,911.934 1235.42,931.521 1243.56,877.204 1251.47,921.044 1259.15,928.551 1266.62,921.118 1273.89,869.775 1280.98,897.793 1287.88,861.744 1294.61,947.368 1301.18,967.183 1307.6,864.491 1313.87,935.92 1320,885.903 1325.99,875.148 1331.86,913.582 1337.6,912.708 1343.22,937.903 1348.73,927.801 1354.13,952.096 1359.42,917.54 1364.62,924.832 1369.72,937.816 1374.72,905.577 1379.63,933.844 1384.46,951.602 1389.2,900.34 1393.86,938.311 1398.45,951.257 1402.95,788.178 1407.39,901.722 1411.75,939.625 1416.05,962.905 1420.27,966.323 1424.44,978.312 1428.54,913.252 1432.58,960.1 1436.56,943.108 1440.48,977.998 1444.35,959.341 1448.16,979.257 1451.93,976.521 1455.64,974.032 1459.3,973.482 1462.91,933.648 1466.47,853.282 1469.99,948.667 1473.47,956.583 1476.9,968.15 1480.28,922.589 1483.63,954.331 1486.93,966.509 1490.2,966.111 1493.43,990.368 1496.62,999.077 1499.77,952.95 1502.89,992.926 1505.97,994.74 1509.01,979.186 1512.03,1008.67 1515.01,1002.55 1517.96,995.411 1520.87,932.071 1523.76,988.251 1526.61,1006.79 1529.44,1018.1 1532.24,1015.3 1535,977.804 1537.75,1000.75 1540.46,1001.56 1543.15,1019.19 1545.81,966.684 1548.44,1016.34 1551.05,985.134 1553.63,1003.11 1556.2,1030.86 1558.73,1026.46 1561.25,1000.46 1563.74,974.821 1566.2,1024.73 1568.65,929.722 1571.07,985.954 1573.48,1011.24 1575.86,1008.19 1578.22,1017.03 1580.56,888.316 1582.88,1000.23 1585.18,1038.93 1587.46,1027.43 1589.73,892.188 1591.97,1025.32 1594.2,935.206 1596.4,996.35 1598.59,988.149 1600.77,982.304 1602.92,1000.42 1605.06,948.036 1607.18,1024.72 1609.29,1039.85 1611.38,1048.65 1613.45,1058.97 1615.51,1021 1617.55,972.674 1619.58,1010.79 1621.59,1032.7 1623.59,1052.27 1625.57,1057.11 1627.54,1068.89 1629.5,1085.67 1631.44,1058.95 1633.37,1038.3 1635.28,1022.67 1637.18,1050.69 1639.07,1053.26 1640.94,1063.35 1642.8,1081.18 1644.65,1093.29 1646.49,1077.18 1648.31,1041.27 1650.12,1071.25 1651.92,1027.12 1653.71,998.915 1655.49,1069.58 1657.25,1084.8 1659.01,1096.18 1660.75,1064.92 1662.48,1086.01 1664.2,1100.98 1665.91,1073.05 1667.61,1068.98 1669.3,1070.64 1670.98,1096.45 1672.64,1095.44 1674.3,1110.92 1675.95,1113.48 1677.59,1109.14 1679.22,1023.97 1680.83,1047.19 1682.44,1084.83 1684.04,1045.64 1685.63,1074.67 1687.21,1105.22 1688.79,1116.13 1690.35,1080.67 1691.9,1056.5 1693.45,1084.99 1694.98,1065.25 1696.51,1111.87 1698.03,1121.23 1699.54,1132.29 1701.04,1092.35 1702.54,1136.9 1704.02,1091.95 1705.5,1137.07 1706.97,1110.69 1708.43,1125.94 1709.89,1119.79 1711.33,1119.34 1712.77,1136.27 1714.21,1138.35 1715.63,1143.27 1717.05,1100.26 1718.45,1115.53 1719.86,1124.41 1721.25,1066.42 1722.64,1110.08 1724.02,1146.78 1725.39,1136.17 1726.76,1124.31 1728.12,1099.28 1729.47,1143.24 1730.82,1140.22 1732.16,1131.35 1733.49,1144.78 1734.82,1132.88 1736.14,1136.25 1737.46,1157.14 1738.76,1144.21 1740.07,1091.97 1741.36,1118.16 1742.65,1154.21 1743.93,1170.66 1745.21,1153.84 1746.48,1128.51 1747.75,1137.98 1749.01,1155.93 1750.26,1186.29 1751.51,1090.75 1752.75,1135.03 1753.99,1148.43 1755.22,1145.98 1756.44,1185.27 1757.66,1167.78 1758.88,1126.94 1760.09,1151.28 1761.29,1171.39 1762.49,1151.49 1763.68,1164.06 1764.87,1146.45 1766.06,1150.43 1767.23,1179.64 1768.41,1168.05 1769.57,1110.42 1770.74,1135.94 1771.9,1117.1 1773.05,1139.42 1774.2,1178.09 1775.34,1109.71 1776.48,1155.03 1777.61,1160.69 1778.74,1145.06 1779.87,1125.25 1780.99,1196.46 1782.1,1146.44 1783.21,1182.12 1784.32,1105.39 1785.42,992.469 1786.52,1141.26 1787.61,1120.12 1788.7,1139.37 1789.78,1099.9 1790.86,1123.19 1791.94,1101.23 1793.01,1130.79 1794.08,1140.22 1795.14,1152.09 1796.2,1132.82 1797.25,1152.63 1798.31,1134.55 1799.35,1157.79 1800.4,1141.17 1801.43,1164.62 1802.47,1144.73 1803.5,1170.39 1804.53,1147.27 1805.55,1168.54 1806.57,1147.49 1807.59,1173.78 1808.6,1160.07 1809.61,1178.88 1810.61,1165.14 1811.61,1181.11 1812.61,1133.2 1813.6,1161.44 1814.59,1167.05 1815.58,1179.64 1816.56,1172.82 1817.54,1174.36 1818.51,1160.57 1819.49,1171.14 1820.46,1166.52 1821.42,1166.74 1822.38,1180.34 1823.34,1195.02 1824.3,1145.43 1825.25,1113.87 1826.2,1216.84 1827.14,1241.12 1828.08,1208.76 1829.02,1209.29 1829.96,1169.5 1830.89,1195.05 1831.82,1158.63 1832.74,1158.64 1833.67,1205.32 1834.59,1216.27 1835.5,1213.31 1836.42,1228.29 1837.33,1149.03 1838.24,1208.86 1839.14,1198.92 1840.04,1226.61 1840.94,1201.8 1841.84,1237.38 1842.73,1215.11 1843.62,1207.35 1844.5,1032.34 1845.39,1159.11 1846.27,1145.77 1847.15,1158.5 1848.02,1149.09 1848.9,1153.53 1849.77,1148.94 1850.63,1161.09 1851.5,1150.71 1852.36,1163.51 1853.22,1149.71 1854.07,1168.3 1854.93,1116.24 1855.78,1161.69 1856.63,1148.6 1857.47,1161.77 1858.31,1146.28 1859.16,1162.6 1859.99,1146.83 1860.83,1163.35 1861.66,1147.98 1862.49,1169.03 1863.32,1142.88 1864.14,1159.52 1864.97,1152.93 1865.79,1161.55 1866.6,1145.97 1867.42,1160.82 1868.23,1151.23 1869.04,1157.06 1869.85,1152.53 1870.66,1170.01 1871.46,1152.15 1872.26,1096.85 1873.06,1187.64 1873.85,1198.79 1874.65,1185.51 1875.44,1200.74 1876.23,1185.87 1877.02,1194.8 1877.8,1190.06 1878.58,1201.17 1879.36,1191.55 1880.14,1206.94 1880.92,1198.83 1881.69,1202.1 1882.46,1197.38 1883.23,1207.33 1884,1197.69 1884.76,1212.79 1885.53,1190.66 1886.29,1181.7 1887.05,1204.73 1887.8,1210.65 1888.56,1211.15 1889.31,1180.39 1890.06,1210.03 1890.81,1211.29 1891.55,1212.72 1892.3,1227.02 1893.04,1208.91 1893.78,1208.53 1894.52,1229.08 1895.25,1238.28 1895.99,1228.68 1896.72,1181.12 1897.45,1223.24 1898.18,1233.93 1898.9,1201.47 1899.63,1234.32 1900.35,1207.4 1901.07,1238.78 1901.79,1229.58 1902.51,1167.15 1903.22,1194 1903.93,1237.17 1904.64,1200.12 1905.35,1202.71 1906.06,1213.94 1906.77,1192.33 1907.47,1202.81 1908.17,1193.33 1908.87,1214.55 1909.57,1233.62 1910.27,1210.96 1910.96,1217.22 1911.66,1208.29 1912.35,1223.13 1913.04,1222.15 1913.72,1241.72 1914.41,1218.01 1915.09,1230.06 1915.78,1234.66 1916.46,1238.79 1917.14,1225.63 1917.81,1253.2 1918.49,1217.61 1919.16,1192.22 1919.84,1264.64 1920.51,1277.13 1921.18,1270.08 1921.84,1221.22 1922.51,1233.96 1923.17,1260.53 1923.84,1258.81 1924.5,1221.95 1925.16,1185.64 1925.82,1234.93 1926.47,1236.44 1927.13,1206.91 1927.78,1229.66 1928.43,1244.81 1929.08,1233.71 1929.73,1257.8 1930.38,1253.78 1931.02,1295.34 1931.67,1266.48 1932.31,1291.62 1932.95,1271.65 1933.59,1291.6 1934.23,1245.2 1934.86,1255.41 1935.5,1252.21 1936.13,1263.88 1936.76,1215.09 1937.39,1265.36 1938.02,1249.07 1938.65,1273.95 1939.28,1251.51 1939.9,1256.08 1940.52,1236.86 1941.15,1270.8 1941.77,1248.68 1942.39,1276.14 1943,1248.56 1943.62,1262.97 1944.23,1186.73 1944.85,1260.01 1945.46,1238.3 1946.07,1263.65 1946.68,1249.22 1947.29,1146.56 1947.9,1307.35 1948.5,1319.08 1949.1,1317.75 1949.71,1332.03 1950.31,1237.95 1950.91,1241.78 1951.51,1286.79 1952.1,1304.88 1952.7,1220.07 1953.3,1304.51 1953.89,1231.44 1954.48,1262.94 1955.07,1243.54 1955.66,1242.06 1956.25,1290.16 1956.84,1287.56 1957.42,1294.01 1958.01,1256.78 1958.59,1259.57 1959.17,1279.43 1959.75,1321.57 1960.33,1334.28 1960.91,1319.83 1961.49,1289.06 1962.06,1280.98 1962.64,1326.54 1963.21,1308.49 1963.78,1342.91 "/>
<polyline clip-path="url(#clip262)" style="stroke:#c271d2; stroke-linecap:round; stroke-linejoin:round; stroke-width:4; stroke-opacity:1; fill:none" points="281.952,159.909 470.968,475.876 581.535,515.489 659.983,610.586 720.833,531.674 770.55,619.382 812.586,607.31 848.999,625.841 881.117,726.648 909.848,602.837 935.839,800.848 959.566,644.388 981.393,811.961 1001.6,821.411 1020.42,811.698 1038.01,816.584 1054.55,713.535 1070.13,831.084 1084.88,814.187 1098.86,776.131 1112.17,889.172 1124.85,928.677 1136.98,957.576 1148.58,960.843 1159.71,971.123 1170.41,968.047 1180.7,972.643 1190.62,970.034 1200.19,972.81 1209.43,971.157 1218.37,973.192 1227.03,972.239 1235.42,973.891 1243.56,973.418 1251.47,974.843 1259.15,974.706 1266.62,975.987 1273.89,976.097 1280.98,977.283 1287.88,977.579 1294.61,978.703 1301.18,979.143 1307.6,980.226 1313.87,980.778 1320,981.834 1325.99,982.476 1331.86,983.514 1337.6,984.228 1343.22,985.255 1348.73,986.027 1354.13,987.048 1359.42,987.866 1364.62,988.883 1369.72,989.739 1374.72,990.755 1379.63,991.641 1384.46,992.657 1389.2,993.568 1393.86,994.584 1398.45,995.516 1402.95,996.531 1407.39,997.48 1411.75,998.496 1416.05,999.457 1420.27,1000.47 1424.44,1001.45 1428.54,1002.46 1432.58,1003.44 1436.56,1004.46 1440.48,1005.44 1444.35,1006.46 1448.16,1007.45 1451.93,1008.46 1455.64,1009.46 1459.3,1010.47 1462.91,1011.47 1466.47,1012.48 1469.99,1013.47 1473.47,1014.48 1476.9,1015.48 1480.28,1016.49 1483.63,1017.48 1486.93,1018.49 1490.2,1019.48 1493.43,1020.48 1496.62,1021.47 1499.77,1022.47 1502.89,1023.46 1505.97,1024.45 1509.01,1025.44 1512.03,1026.43 1515.01,1027.41 1517.96,1028.4 1520.87,1029.38 1523.76,1030.36 1526.61,1031.33 1529.44,1032.31 1532.24,1033.28 1535,1034.25 1537.75,1035.22 1540.46,1036.18 1543.15,1037.15 1545.81,1038.11 1548.44,1039.06 1551.05,1040.02 1553.63,1040.97 1556.2,1041.92 1558.73,1042.87 1561.25,1043.81 1563.74,1044.75 1566.2,1045.69 1568.65,1046.63 1571.07,1047.56 1573.48,1048.49 1575.86,1049.42 1578.22,1050.34 1580.56,1051.27 1582.88,1052.19 1585.18,1053.1 1587.46,1054.01 1589.73,1054.92 1591.97,1055.83 1594.2,1056.74 1596.4,1057.64 1598.59,1058.54 1600.77,1059.43 1602.92,1060.33 1605.06,1061.22 1607.18,1062.1 1609.29,1062.99 1611.38,1063.87 1613.45,1064.75 1615.51,1065.62 1617.55,1066.49 1619.58,1067.36 1621.59,1068.23 1623.59,1069.09 1625.57,1069.95 1627.54,1070.81 1629.5,1071.66 1631.44,1072.52 1633.37,1073.36 1635.28,1074.21 1637.18,1075.05 1639.07,1075.89 1640.94,1076.73 1642.8,1077.56 1644.65,1078.4 1646.49,1079.22 1648.31,1080.05 1650.12,1080.87 1651.92,1081.69 1653.71,1082.51 1655.49,1083.33 1657.25,1084.14 1659.01,1084.95 1660.75,1085.75 1662.48,1086.56 1664.2,1087.36 1665.91,1088.15 1667.61,1088.95 1669.3,1089.74 1670.98,1090.53 1672.64,1091.32 1674.3,1092.1 1675.95,1092.88 1677.59,1093.66 1679.22,1094.44 1680.83,1095.21 1682.44,1095.98 1684.04,1096.75 1685.63,1097.52 1687.21,1098.28 1688.79,1099.04 1690.35,1099.8 1691.9,1100.56 1693.45,1101.31 1694.98,1102.06 1696.51,1102.81 1698.03,1103.55 1699.54,1104.29 1701.04,1105.04 1702.54,1105.77 1704.02,1106.51 1705.5,1107.24 1706.97,1107.97 1708.43,1108.7 1709.89,1109.43 1711.33,1110.15 1712.77,1110.87 1714.21,1111.59 1715.63,1112.3 1717.05,1113.02 1718.45,1113.73 1719.86,1114.44 1721.25,1115.15 1722.64,1115.85 1724.02,1116.55 1725.39,1117.25 1726.76,1117.95 1728.12,1118.65 1729.47,1119.34 1730.82,1120.03 1732.16,1120.72 1733.49,1121.4 1734.82,1122.09 1736.14,1122.77 1737.46,1123.45 1738.76,1124.13 1740.07,1124.8 1741.36,1125.48 1742.65,1126.15 1743.93,1126.82 1745.21,1127.48 1746.48,1128.15 1747.75,1128.81 1749.01,1129.47 1750.26,1130.13 1751.51,1130.78 1752.75,1131.44 1753.99,1132.09 1755.22,1132.74 1756.44,1133.39 1757.66,1134.03 1758.88,1134.68 1760.09,1135.32 1761.29,1135.96 1762.49,1136.6 1763.68,1137.23 1764.87,1137.87 1766.06,1138.5 1767.23,1139.13 1768.41,1139.76 1769.57,1140.38 1770.74,1141 1771.9,1141.63 1773.05,1142.25 1774.2,1142.86 1775.34,1143.48 1776.48,1144.09 1777.61,1144.71 1778.74,1145.32 1779.87,1145.93 1780.99,1146.53 1782.1,1147.14 1783.21,1147.74 1784.32,1148.34 1785.42,1148.94 1786.52,1149.54 1787.61,1150.13 1788.7,1150.72 1789.78,1151.32 1790.86,1151.91 1791.94,1152.49 1793.01,1153.08 1794.08,1153.66 1795.14,1154.25 1796.2,1154.83 1797.25,1155.41 1798.31,1155.98 1799.35,1156.56 1800.4,1157.13 1801.43,1157.7 1802.47,1158.27 1803.5,1158.84 1804.53,1159.41 1805.55,1159.97 1806.57,1160.54 1807.59,1161.1 1808.6,1161.66 1809.61,1162.21 1810.61,1162.77 1811.61,1163.32 1812.61,1163.88 1813.6,1164.43 1814.59,1164.98 1815.58,1165.52 1816.56,1166.07 1817.54,1166.61 1818.51,1167.16 1819.49,1167.7 1820.46,1168.24 1821.42,1168.77 1822.38,1169.31 1823.34,1169.85 1824.3,1170.38 1825.25,1170.91 1826.2,1171.44 1827.14,1171.97 1828.08,1172.49 1829.02,1173.02 1829.96,1173.54 1830.89,1174.06 1831.82,1174.58 1832.74,1175.1 1833.67,1175.61 1834.59,1176.13 1835.5,1176.64 1836.42,1177.15 1837.33,1177.66 1838.24,1178.17 1839.14,1178.68 1840.04,1179.18 1840.94,1179.69 1841.84,1180.19 1842.73,1180.69 1843.62,1181.19 1844.5,1181.69 1845.39,1182.19 1846.27,1182.68 1847.15,1183.17 1848.02,1183.67 1848.9,1184.16 1849.77,1184.64 1850.63,1185.13 1851.5,1185.62 1852.36,1186.1 1853.22,1186.58 1854.07,1187.07 1854.93,1187.55 1855.78,1188.02 1856.63,1188.5 1857.47,1188.98 1858.31,1189.45 1859.16,1189.92 1859.99,1190.39 1860.83,1190.86 1861.66,1191.33 1862.49,1191.8 1863.32,1192.27 1864.14,1192.73 1864.97,1193.19 1865.79,1193.65 1866.6,1194.11 1867.42,1194.57 1868.23,1195.03 1869.04,1195.49 1869.85,1195.94 1870.66,1196.39 1871.46,1196.85 1872.26,1197.3 1873.06,1197.75 1873.85,1198.19 1874.65,1198.64 1875.44,1199.08 1876.23,1199.53 1877.02,1199.97 1877.8,1200.41 1878.58,1200.85 1879.36,1201.29 1880.14,1201.73 1880.92,1202.16 1881.69,1202.6 1882.46,1203.03 1883.23,1203.47 1884,1203.9 1884.76,1204.33 1885.53,1204.75 1886.29,1205.18 1887.05,1205.61 1887.8,1206.03 1888.56,1206.46 1889.31,1206.88 1890.06,1207.3 1890.81,1207.72 1891.55,1208.14 1892.3,1208.56 1893.04,1208.97 1893.78,1209.39 1894.52,1209.8 1895.25,1210.22 1895.99,1210.63 1896.72,1211.04 1897.45,1211.45 1898.18,1211.86 1898.9,1212.26 1899.63,1212.67 1900.35,1213.07 1901.07,1213.48 1901.79,1213.88 1902.51,1214.28 1903.22,1214.68 1903.93,1215.08 1904.64,1215.48 1905.35,1215.88 1906.06,1216.27 1906.77,1216.67 1907.47,1217.06 1908.17,1217.46 1908.87,1217.85 1909.57,1218.24 1910.27,1218.63 1910.96,1219.02 1911.66,1219.41 1912.35,1219.79 1913.04,1220.18 1913.72,1220.56 1914.41,1220.95 1915.09,1221.33 1915.78,1221.71 1916.46,1222.09 1917.14,1222.47 1917.81,1222.85 1918.49,1223.23 1919.16,1223.61 1919.84,1223.98 1920.51,1224.36 1921.18,1224.73 1921.84,1225.1 1922.51,1225.48 1923.17,1225.85 1923.84,1226.22 1924.5,1226.59 1925.16,1226.96 1925.82,1227.32 1926.47,1227.69 1927.13,1228.06 1927.78,1228.42 1928.43,1228.79 1929.08,1229.15 1929.73,1229.51 1930.38,1229.87 1931.02,1230.23 1931.67,1230.59 1932.31,1230.95 1932.95,1231.31 1933.59,1231.67 1934.23,1232.03 1934.86,1232.38 1935.5,1232.74 1936.13,1233.09 1936.76,1233.44 1937.39,1233.8 1938.02,1234.15 1938.65,1234.5 1939.28,1234.85 1939.9,1235.2 1940.52,1235.55 1941.15,1235.9 1941.77,1236.24 1942.39,1236.59 1943,1236.93 1943.62,1237.28 1944.23,1237.62 1944.85,1237.97 1945.46,1238.31 1946.07,1238.65 1946.68,1238.99 1947.29,1239.33 1947.9,1239.67 1948.5,1240.01 1949.1,1240.35 1949.71,1240.69 1950.31,1241.03 1950.91,1241.36 1951.51,1241.7 1952.1,1242.03 1952.7,1242.37 1953.3,1242.7 1953.89,1243.04 1954.48,1243.37 1955.07,1243.7 1955.66,1244.03 1956.25,1244.36 1956.84,1244.69 1957.42,1245.02 1958.01,1245.35 1958.59,1245.68 1959.17,1246.01 1959.75,1246.33 1960.33,1246.66 1960.91,1246.99 1961.49,1247.31 1962.06,1247.64 1962.64,1247.96 1963.21,1248.28 1963.78,1248.61 1964.36,1248.93 1964.93,1249.25 1965.49,1249.57 1966.06,1249.89 1966.63,1250.21 1967.19,1250.53 1967.76,1250.85 1968.32,1251.17 1968.88,1251.49 1969.44,1251.81 1970,1252.12 1970.56,1252.44 1971.12,1252.76 1971.67,1253.07 1972.23,1253.39 1972.78,1253.7 1973.33,1254.02 1973.89,1254.33 1974.44,1254.64 1974.99,1254.96 1975.53,1255.27 1976.08,1255.58 1976.63,1255.89 1977.17,1256.2 1977.71,1256.51 1978.26,1256.82 1978.8,1257.13 1979.34,1257.44 1979.88,1257.75 1980.42,1258.06 1980.95,1258.37 1981.49,1258.67 1982.03,1258.98 1982.56,1259.29 1983.09,1259.59 1983.63,1259.9 1984.16,1260.2 1984.69,1260.51 1985.22,1260.81 1985.74,1261.12 1986.27,1261.42 1986.8,1261.72 1987.32,1262.03 1987.85,1262.33 1988.37,1262.63 1988.89,1262.93 1989.41,1263.23 1989.93,1263.54 1990.45,1263.84 1990.97,1264.14 1991.48,1264.44 1992,1264.74 1992.52,1265.04 1993.03,1265.33 1993.54,1265.63 1994.05,1265.93 1994.57,1266.23 1995.08,1266.53 1995.59,1266.82 1996.09,1267.12 1996.6,1267.42 1997.11,1267.71 1997.61,1268.01 1998.12,1268.31 1998.62,1268.6 1999.12,1268.9 1999.63,1269.19 2000.13,1269.49 2000.63,1269.78 2001.12,1270.07 2001.62,1270.37 2002.12,1270.66 2002.62,1270.95 2003.11,1271.25 2003.61,1271.54 2004.1,1271.83 2004.59,1272.12 2005.08,1272.41 2005.58,1272.71 2006.07,1273 2006.55,1273.29 2007.04,1273.58 2007.53,1273.87 2008.02,1274.16 2008.5,1274.45 2008.99,1274.74 2009.47,1275.03 2009.95,1275.32 2010.44,1275.6 2010.92,1275.89 2011.4,1276.18 2011.88,1276.47 2012.36,1276.76 2012.83,1277.04 2013.31,1277.33 2013.79,1277.62 2014.26,1277.91 2014.74,1278.19 2015.21,1278.48 2015.68,1278.77 2016.16,1279.05 2016.63,1279.34 2017.1,1279.62 2017.57,1279.91 2018.04,1280.19 2018.51,1280.48 2018.97,1280.76 2019.44,1281.05 2019.91,1281.33 2020.37,1281.62 2020.83,1281.9 2021.3,1282.18 2021.76,1282.47 2022.22,1282.75 2022.68,1283.03 2023.14,1283.32 2023.6,1283.6 2024.06,1283.88 2024.52,1284.16 2024.98,1284.45 2025.43,1284.73 2025.89,1285.01 2026.34,1285.29 2026.8,1285.57 2027.25,1285.86 2027.7,1286.14 2028.16,1286.42 2028.61,1286.7 2029.06,1286.98 2029.51,1287.26 2029.96,1287.54 2030.4,1287.82 2030.85,1288.1 2031.3,1288.38 2031.74,1288.66 2032.19,1288.94 2032.63,1289.22 2033.08,1289.5 2033.52,1289.78 2033.96,1290.06 2034.4,1290.34 2034.85,1290.62 2035.29,1290.9 2035.72,1291.17 2036.16,1291.45 2036.6,1291.73 2037.04,1292.01 2037.48,1292.29 2037.91,1292.56 2038.35,1292.84 2038.78,1293.12 2039.22,1293.4 2039.65,1293.68 2040.08,1293.95 2040.51,1294.23 2040.94,1294.51 2041.37,1294.78 2041.8,1295.06 2042.23,1295.34 2042.66,1295.61 2043.09,1295.89 2043.52,1296.17 2043.94,1296.44 2044.37,1296.72 2044.79,1296.99 2045.22,1297.27 2045.64,1297.55 2046.07,1297.82 2046.49,1298.1 2046.91,1298.37 2047.33,1298.65 2047.75,1298.92 2048.17,1299.2 2048.59,1299.47 2049.01,1299.75 2049.43,1300.02 2049.84,1300.3 2050.26,1300.57 2050.68,1300.85 2051.09,1301.12 2051.51,1301.4 2051.92,1301.67 2052.33,1301.95 2052.75,1302.22 2053.16,1302.49 2053.57,1302.77 2053.98,1303.04 2054.39,1303.32 2054.8,1303.59 2055.21,1303.86 2055.62,1304.14 2056.03,1304.41 2056.43,1304.69 2056.84,1304.96 2057.25,1305.23 2057.65,1305.51 2058.06,1305.78 2058.46,1306.05 2058.87,1306.32 2059.27,1306.6 2059.67,1306.87 2060.07,1307.14 2060.47,1307.42 2060.88,1307.69 2061.28,1307.96 2061.68,1308.23 2062.07,1308.51 2062.47,1308.78 2062.87,1309.05 2063.27,1309.32 2063.66,1309.6 2064.06,1309.87 2064.46,1310.14 2064.85,1310.41 2065.24,1310.68 2065.64,1310.96 2066.03,1311.23 2066.42,1311.5 2066.82,1311.77 2067.21,1312.04 2067.6,1312.31 2067.99,1312.59 2068.38,1312.86 2068.77,1313.13 2069.16,1313.4 2069.55,1313.67 2069.93,1313.94 2070.32,1314.22 2070.71,1314.49 2071.09,1314.76 2071.48,1315.03 2071.86,1315.3 2072.25,1315.57 2072.63,1315.84 2073.01,1316.11 2073.4,1316.38 2073.78,1316.65 2074.16,1316.93 2074.54,1317.2 2074.92,1317.47 2075.3,1317.74 2075.68,1318.01 2076.06,1318.28 2076.44,1318.55 2076.82,1318.82 2077.2,1319.09 2077.57,1319.36 2077.95,1319.63 2078.32,1319.9 2078.7,1320.17 2079.07,1320.44 2079.45,1320.71 2079.82,1320.98 2080.2,1321.25 2080.57,1321.52 2080.94,1321.79 2081.31,1322.06 2081.68,1322.33 2082.05,1322.6 2082.43,1322.87 2082.79,1323.14 2083.16,1323.41 2083.53,1323.68 2083.9,1323.95 2084.27,1324.22 2084.64,1324.49 2085,1324.76 2085.37,1325.03 2085.73,1325.3 2086.1,1325.57 2086.47,1325.84 2086.83,1326.11 2087.19,1326.38 2087.56,1326.65 2087.92,1326.92 2088.28,1327.19 2088.64,1327.46 2089.01,1327.73 2089.37,1328 2089.73,1328.27 2090.09,1328.54 2090.45,1328.81 2090.81,1329.08 2091.16,1329.35 2091.52,1329.62 2091.88,1329.89 2092.24,1330.16 2092.59,1330.42 2092.95,1330.69 2093.31,1330.96 2093.66,1331.23 2094.02,1331.5 2094.37,1331.77 2094.72,1332.04 2095.08,1332.31 2095.43,1332.58 2095.78,1332.85 2096.13,1333.12 2096.49,1333.39 2096.84,1333.65 2097.19,1333.92 2097.54,1334.19 2097.89,1334.46 2098.24,1334.73 2098.59,1335 2098.94,1335.27 2099.28,1335.54 2099.63,1335.81 2099.98,1336.08 2100.32,1336.34 2100.67,1336.61 2101.02,1336.88 2101.36,1337.15 2101.71,1337.42 2102.05,1337.69 2102.4,1337.96 2102.74,1338.23 2103.08,1338.5 2103.43,1338.76 2103.77,1339.03 "/>
<polyline clip-path="url(#clip262)" style="stroke:#ac8d18; stroke-linecap:round; stroke-linejoin:round; stroke-width:4; stroke-opacity:1; fill:none" points="281.952,159.909 470.968,475.876 659.983,579.88 770.55,504.204 812.586,443.376 881.117,594.086 909.848,594.086 935.839,594.086 959.566,594.086 981.393,594.086 1001.6,594.086 1020.42,526.648 1054.55,574.272 1070.13,513.286 1098.86,661.698 1112.17,587.818 1136.98,674.513 1148.58,600.613 1159.71,695.528 1170.41,706.676 1180.7,712.549 1190.62,740.886 1200.19,786.351 1209.43,1034.76 1227.03,652.471 1235.42,935.664 1243.56,935.664 1251.47,935.664 1259.15,935.664 1266.62,935.664 1280.98,977.138 1287.88,1012.44 1294.61,1052.36 1301.18,1167.13 1307.6,1239.32 1320,1113.7 1325.99,1155.16 1331.86,1237.77 1337.6,1226.16 1343.22,1226.16 1348.73,1226.16 1354.13,1226.16 1359.42,1255.36 1364.62,1255.36 1369.72,1254.56 1374.72,1262.87 1379.63,1266.19 1384.46,1273.32 1389.2,1277.23 1393.86,1283.98 1398.45,1288.17 1402.95,1294.7 1407.39,1299.09 1411.75,1305.44 1416.05,1309.98 1420.27,1316.19 1424.44,1320.86 1428.54,1326.96 1432.58,1331.72 1436.56,1337.74 1440.48,1342.58 "/>
<polyline clip-path="url(#clip262)" style="stroke:#00a9ad; stroke-linecap:round; stroke-linejoin:round; stroke-width:4; stroke-opacity:1; fill:none" points="281.952,159.909 470.968,475.876 659.983,575.523 770.55,556.973 848.999,626.676 909.848,661.197 959.566,676.315 1001.6,646.52 1038.01,695.512 1070.13,704.834 1098.86,685.035 1124.85,712.789 1148.58,786.237 1170.41,797.634 1190.62,726.622 1209.43,777.91 1227.03,831.413 1243.56,850.049 1259.15,898.015 1273.89,914.063 1287.88,870.817 1301.18,942.07 1313.87,944.612 1325.99,966.7 1337.6,931.678 1348.73,978.479 1359.42,856.077 1369.72,959.45 1379.63,865.937 1389.2,962.039 1398.45,934.728 1407.39,911.934 1416.05,931.521 1424.44,877.204 1432.58,921.044 1440.48,928.551 1448.16,921.118 1455.64,869.775 1462.91,897.793 1469.99,861.744 1476.9,947.368 1483.63,967.183 1490.2,864.491 1496.62,935.92 1502.89,885.903 1509.01,875.148 1515.01,913.582 1520.87,912.708 1526.61,937.903 1532.24,927.801 1537.75,952.096 1543.15,917.54 1548.44,924.832 1553.63,937.816 1558.73,905.577 1563.74,933.844 1568.65,951.602 1573.48,900.34 1578.22,938.311 1582.88,951.257 1587.46,788.178 1591.97,901.722 1596.4,939.625 1600.77,962.905 1605.06,966.323 1609.29,978.312 1613.45,913.252 1617.55,960.1 1621.59,943.108 1625.57,977.998 1629.5,959.341 1633.37,979.257 1637.18,976.521 1640.94,974.032 1644.65,973.482 1648.31,933.648 1651.92,853.282 1655.49,948.667 1659.01,956.583 1662.48,968.15 1665.91,922.589 1669.3,954.331 1672.64,966.509 1675.95,966.111 1679.22,990.368 1682.44,999.077 1685.63,952.95 1688.79,992.926 1691.9,994.74 1694.98,979.186 1698.03,1008.67 1701.04,1002.55 1704.02,995.411 1706.97,932.071 1709.89,988.251 1712.77,1006.79 1715.63,1018.1 1718.45,1015.3 1721.25,977.804 1724.02,1000.75 1726.76,1001.56 1729.47,1019.19 1732.16,966.684 1734.82,1016.34 1737.46,985.134 1740.07,1003.11 1742.65,1030.86 1745.21,1026.46 1747.75,1000.46 1750.26,974.821 1752.75,1024.73 1755.22,929.722 1757.66,985.954 1760.09,1011.24 1762.49,1008.19 1764.87,1017.03 1767.23,888.316 1769.57,1000.23 1771.9,1038.93 1774.2,1027.43 1776.48,892.188 1778.74,1025.32 1780.99,935.206 1783.21,996.35 1785.42,988.149 1787.61,982.304 1789.78,1000.42 1791.94,948.036 1794.08,1024.72 1796.2,1039.85 1798.31,1048.65 1800.4,1058.97 1802.47,1021 1804.53,972.674 1806.57,1010.79 1808.6,1032.7 1810.61,1052.27 1812.61,1057.11 1814.59,1068.89 1816.56,1085.67 1818.51,1058.95 1820.46,1038.3 1822.38,1022.67 1824.3,1050.69 1826.2,1053.26 1828.08,1063.35 1829.96,1081.18 1831.82,1093.29 1833.67,1077.18 1835.5,1041.27 1837.33,1071.25 1839.14,1027.12 1840.94,998.915 1842.73,1069.58 1844.5,1084.8 1846.27,1096.18 1848.02,1064.92 1849.77,1086.01 1851.5,1100.98 1853.22,1073.05 1854.93,1068.98 1856.63,1070.64 1858.31,1096.45 1859.99,1095.44 1861.66,1110.92 1863.32,1113.48 1864.97,1109.14 1866.6,1023.97 1868.23,1047.19 1869.85,1084.83 1871.46,1045.64 1873.06,1074.67 1874.65,1105.22 1876.23,1116.13 1877.8,1080.67 1879.36,1056.5 1880.92,1084.99 1882.46,1065.25 1884,1111.87 1885.53,1121.23 1887.05,1132.29 1888.56,1092.35 1890.06,1136.9 1891.55,1091.95 1893.04,1137.07 1894.52,1110.69 1895.99,1125.94 1897.45,1119.79 1898.9,1119.34 1900.35,1136.27 1901.79,1138.35 1903.22,1143.27 1904.64,1100.26 1906.06,1115.53 1907.47,1124.41 1908.87,1066.42 1910.27,1110.08 1911.66,1146.78 1913.04,1136.17 1914.41,1124.31 1915.78,1099.28 1917.14,1143.24 1918.49,1140.22 1919.84,1131.35 1921.18,1144.78 1922.51,1132.88 1923.84,1136.25 1925.16,1157.14 1926.47,1144.21 1927.78,1091.97 1929.08,1118.16 1930.38,1154.21 1931.67,1170.66 1932.95,1153.84 1934.23,1128.51 1935.5,1137.98 1936.76,1155.93 1938.02,1186.29 1939.28,1090.75 1940.52,1135.03 1941.77,1148.43 1943,1145.98 1944.23,1185.27 1945.46,1167.78 1946.68,1126.94 1947.9,1151.28 1949.1,1171.39 1950.31,1151.49 1951.51,1164.06 1952.7,1146.45 1953.89,1150.43 1955.07,1179.64 1956.25,1168.05 1957.42,1110.42 1958.59,1135.94 1959.75,1117.1 1960.91,1139.42 1962.06,1178.09 1963.21,1109.71 1964.36,1155.03 1965.49,1160.69 1966.63,1145.06 1967.76,1125.25 1968.88,1196.46 1970,1146.44 1971.12,1182.12 1972.23,1105.39 1973.33,992.469 1974.44,1141.26 1975.53,1120.12 1976.63,1139.37 1977.71,1099.9 1978.8,1123.19 1979.88,1101.23 1980.95,1130.79 1982.03,1140.22 1983.09,1152.09 1984.16,1132.82 1985.22,1152.63 1986.27,1134.55 1987.32,1157.79 1988.37,1141.17 1989.41,1164.62 1990.45,1144.73 1991.48,1170.39 1992.52,1147.27 1993.54,1168.54 1994.57,1147.49 1995.59,1173.78 1996.6,1160.07 1997.61,1178.88 1998.62,1165.14 1999.63,1181.11 2000.63,1133.2 2001.62,1161.44 2002.62,1167.05 2003.61,1179.64 2004.59,1172.82 2005.58,1174.36 2006.55,1160.57 2007.53,1171.14 2008.5,1166.52 2009.47,1166.74 2010.44,1180.34 2011.4,1195.02 2012.36,1145.43 2013.31,1113.87 2014.26,1216.84 2015.21,1241.12 2016.16,1208.76 2017.1,1209.29 2018.04,1169.5 2018.97,1195.05 2019.91,1158.63 2020.83,1158.64 2021.76,1205.32 2022.68,1216.27 2023.6,1213.31 2024.52,1228.29 2025.43,1149.03 2026.34,1208.86 2027.25,1198.92 2028.16,1226.61 2029.06,1201.8 2029.96,1237.38 2030.85,1215.11 2031.74,1207.35 2032.63,1032.34 2033.52,1159.11 2034.4,1145.77 2035.29,1158.5 2036.16,1149.09 2037.04,1153.53 2037.91,1148.94 2038.78,1161.09 2039.65,1150.71 2040.51,1163.51 2041.37,1149.71 2042.23,1168.3 2043.09,1116.24 2043.94,1161.69 2044.79,1148.6 2045.64,1161.77 2046.49,1146.28 2047.33,1162.6 2048.17,1146.83 2049.01,1163.35 2049.84,1147.98 2050.68,1169.03 2051.51,1142.88 2052.33,1159.52 2053.16,1152.93 2053.98,1161.55 2054.8,1145.97 2055.62,1160.82 2056.43,1151.23 2057.25,1157.06 2058.06,1152.53 2058.87,1170.01 2059.67,1152.15 2060.47,1096.85 2061.28,1187.64 2062.07,1198.79 2062.87,1185.51 2063.66,1200.74 2064.46,1185.87 2065.24,1194.8 2066.03,1190.06 2066.82,1201.17 2067.6,1191.55 2068.38,1206.94 2069.16,1198.83 2069.93,1202.1 2070.71,1197.38 2071.48,1207.33 2072.25,1197.69 2073.01,1212.79 2073.78,1190.66 2074.54,1181.7 2075.3,1204.73 2076.06,1210.65 2076.82,1211.15 2077.57,1180.39 2078.32,1210.03 2079.07,1211.29 2079.82,1212.72 2080.57,1227.02 2081.31,1208.91 2082.05,1208.53 2082.79,1229.08 2083.53,1238.28 2084.27,1228.68 2085,1181.12 2085.73,1223.24 2086.47,1233.93 2087.19,1201.47 2087.92,1234.32 2088.64,1207.4 2089.37,1238.78 2090.09,1229.58 2090.81,1167.15 2091.52,1194 2092.24,1237.17 2092.95,1200.12 2093.66,1202.71 2094.37,1213.94 2095.08,1192.33 2095.78,1202.81 2096.49,1193.33 2097.19,1214.55 2097.89,1233.62 2098.59,1210.96 2099.28,1217.22 2099.98,1208.29 2100.67,1223.13 2101.36,1222.15 2102.05,1241.72 2102.74,1218.01 2103.43,1230.06 2104.11,1234.66 2104.79,1238.79 2105.47,1225.63 2106.15,1253.2 2106.83,1217.61 2107.51,1192.22 2108.18,1264.64 2108.85,1277.13 2109.52,1270.08 2110.19,1221.22 2110.86,1233.96 2111.53,1260.53 2112.19,1258.81 2112.85,1221.95 2113.51,1185.64 2114.17,1234.93 2114.83,1236.44 2115.49,1206.91 2116.14,1229.66 2116.8,1244.81 2117.45,1233.71 2118.1,1257.8 2118.75,1253.78 2119.39,1295.34 2120.04,1266.48 2120.68,1291.62 2121.32,1271.65 2121.97,1291.6 2122.6,1245.2 2123.24,1255.41 2123.88,1252.21 2124.51,1263.88 2125.15,1215.09 2125.78,1265.36 2126.41,1249.07 2127.04,1273.95 2127.67,1251.51 2128.29,1256.08 2128.92,1236.86 2129.54,1270.8 2130.16,1248.68 2130.78,1276.14 2131.4,1248.56 2132.02,1262.97 2132.64,1186.73 2133.25,1260.01 2133.86,1238.3 2134.48,1263.65 2135.09,1249.22 2135.7,1146.56 2136.3,1307.35 2136.91,1319.08 2137.52,1317.75 2138.12,1332.03 2138.72,1237.95 2139.32,1241.78 2139.92,1286.79 2140.52,1304.88 2141.12,1220.07 2141.72,1304.51 2142.31,1231.44 2142.9,1262.94 2143.5,1243.54 2144.09,1242.06 2144.68,1290.16 2145.27,1287.56 2145.85,1294.01 2146.44,1256.78 2147.02,1259.57 2147.61,1279.43 2148.19,1321.57 2148.77,1334.28 2149.35,1319.83 2149.93,1289.06 2150.5,1280.98 2151.08,1326.54 2151.65,1308.49 2152.23,1342.91 "/>
<polyline clip-path="url(#clip262)" style="stroke:#ed5d92; stroke-linecap:round; stroke-linejoin:round; stroke-width:4; stroke-opacity:1; fill:none" points="281.952,159.909 470.968,475.876 659.983,515.489 770.55,610.586 848.999,531.674 909.848,619.382 959.566,607.31 1001.6,625.841 1038.01,726.648 1070.13,602.837 1098.86,800.848 1124.85,644.388 1148.58,811.961 1170.41,821.411 1190.62,811.698 1209.43,816.584 1227.03,713.535 1243.56,831.084 1259.15,814.187 1273.89,776.131 1287.88,889.172 1301.18,928.677 1313.87,957.576 1325.99,960.843 1337.6,971.123 1348.73,968.047 1359.42,972.643 1369.72,970.034 1379.63,972.81 1389.2,971.157 1398.45,973.192 1407.39,972.239 1416.05,973.891 1424.44,973.418 1432.58,974.843 1440.48,974.706 1448.16,975.987 1455.64,976.097 1462.91,977.283 1469.99,977.579 1476.9,978.703 1483.63,979.143 1490.2,980.226 1496.62,980.778 1502.89,981.834 1509.01,982.476 1515.01,983.514 1520.87,984.228 1526.61,985.255 1532.24,986.027 1537.75,987.048 1543.15,987.866 1548.44,988.883 1553.63,989.739 1558.73,990.755 1563.74,991.641 1568.65,992.657 1573.48,993.568 1578.22,994.584 1582.88,995.516 1587.46,996.531 1591.97,997.48 1596.4,998.496 1600.77,999.457 1605.06,1000.47 1609.29,1001.45 1613.45,1002.46 1617.55,1003.44 1621.59,1004.46 1625.57,1005.44 1629.5,1006.46 1633.37,1007.45 1637.18,1008.46 1640.94,1009.46 1644.65,1010.47 1648.31,1011.47 1651.92,1012.48 1655.49,1013.47 1659.01,1014.48 1662.48,1015.48 1665.91,1016.49 1669.3,1017.48 1672.64,1018.49 1675.95,1019.48 1679.22,1020.48 1682.44,1021.47 1685.63,1022.47 1688.79,1023.46 1691.9,1024.45 1694.98,1025.44 1698.03,1026.43 1701.04,1027.41 1704.02,1028.4 1706.97,1029.38 1709.89,1030.36 1712.77,1031.33 1715.63,1032.31 1718.45,1033.28 1721.25,1034.25 1724.02,1035.22 1726.76,1036.18 1729.47,1037.15 1732.16,1038.11 1734.82,1039.06 1737.46,1040.02 1740.07,1040.97 1742.65,1041.92 1745.21,1042.87 1747.75,1043.81 1750.26,1044.75 1752.75,1045.69 1755.22,1046.63 1757.66,1047.56 1760.09,1048.49 1762.49,1049.42 1764.87,1050.34 1767.23,1051.27 1769.57,1052.19 1771.9,1053.1 1774.2,1054.01 1776.48,1054.92 1778.74,1055.83 1780.99,1056.74 1783.21,1057.64 1785.42,1058.54 1787.61,1059.43 1789.78,1060.33 1791.94,1061.22 1794.08,1062.1 1796.2,1062.99 1798.31,1063.87 1800.4,1064.75 1802.47,1065.62 1804.53,1066.49 1806.57,1067.36 1808.6,1068.23 1810.61,1069.09 1812.61,1069.95 1814.59,1070.81 1816.56,1071.66 1818.51,1072.52 1820.46,1073.36 1822.38,1074.21 1824.3,1075.05 1826.2,1075.89 1828.08,1076.73 1829.96,1077.56 1831.82,1078.4 1833.67,1079.22 1835.5,1080.05 1837.33,1080.87 1839.14,1081.69 1840.94,1082.51 1842.73,1083.33 1844.5,1084.14 1846.27,1084.95 1848.02,1085.75 1849.77,1086.56 1851.5,1087.36 1853.22,1088.15 1854.93,1088.95 1856.63,1089.74 1858.31,1090.53 1859.99,1091.32 1861.66,1092.1 1863.32,1092.88 1864.97,1093.66 1866.6,1094.44 1868.23,1095.21 1869.85,1095.98 1871.46,1096.75 1873.06,1097.52 1874.65,1098.28 1876.23,1099.04 1877.8,1099.8 1879.36,1100.56 1880.92,1101.31 1882.46,1102.06 1884,1102.81 1885.53,1103.55 1887.05,1104.29 1888.56,1105.04 1890.06,1105.77 1891.55,1106.51 1893.04,1107.24 1894.52,1107.97 1895.99,1108.7 1897.45,1109.43 1898.9,1110.15 1900.35,1110.87 1901.79,1111.59 1903.22,1112.3 1904.64,1113.02 1906.06,1113.73 1907.47,1114.44 1908.87,1115.15 1910.27,1115.85 1911.66,1116.55 1913.04,1117.25 1914.41,1117.95 1915.78,1118.65 1917.14,1119.34 1918.49,1120.03 1919.84,1120.72 1921.18,1121.4 1922.51,1122.09 1923.84,1122.77 1925.16,1123.45 1926.47,1124.13 1927.78,1124.8 1929.08,1125.48 1930.38,1126.15 1931.67,1126.82 1932.95,1127.48 1934.23,1128.15 1935.5,1128.81 1936.76,1129.47 1938.02,1130.13 1939.28,1130.78 1940.52,1131.44 1941.77,1132.09 1943,1132.74 1944.23,1133.39 1945.46,1134.03 1946.68,1134.68 1947.9,1135.32 1949.1,1135.96 1950.31,1136.6 1951.51,1137.23 1952.7,1137.87 1953.89,1138.5 1955.07,1139.13 1956.25,1139.76 1957.42,1140.38 1958.59,1141 1959.75,1141.63 1960.91,1142.25 1962.06,1142.86 1963.21,1143.48 1964.36,1144.09 1965.49,1144.71 1966.63,1145.32 1967.76,1145.93 1968.88,1146.53 1970,1147.14 1971.12,1147.74 1972.23,1148.34 1973.33,1148.94 1974.44,1149.54 1975.53,1150.13 1976.63,1150.72 1977.71,1151.32 1978.8,1151.91 1979.88,1152.49 1980.95,1153.08 1982.03,1153.66 1983.09,1154.25 1984.16,1154.83 1985.22,1155.41 1986.27,1155.98 1987.32,1156.56 1988.37,1157.13 1989.41,1157.7 1990.45,1158.27 1991.48,1158.84 1992.52,1159.41 1993.54,1159.97 1994.57,1160.54 1995.59,1161.1 1996.6,1161.66 1997.61,1162.21 1998.62,1162.77 1999.63,1163.32 2000.63,1163.88 2001.62,1164.43 2002.62,1164.98 2003.61,1165.52 2004.59,1166.07 2005.58,1166.61 2006.55,1167.16 2007.53,1167.7 2008.5,1168.24 2009.47,1168.77 2010.44,1169.31 2011.4,1169.85 2012.36,1170.38 2013.31,1170.91 2014.26,1171.44 2015.21,1171.97 2016.16,1172.49 2017.1,1173.02 2018.04,1173.54 2018.97,1174.06 2019.91,1174.58 2020.83,1175.1 2021.76,1175.61 2022.68,1176.13 2023.6,1176.64 2024.52,1177.15 2025.43,1177.66 2026.34,1178.17 2027.25,1178.68 2028.16,1179.18 2029.06,1179.69 2029.96,1180.19 2030.85,1180.69 2031.74,1181.19 2032.63,1181.69 2033.52,1182.19 2034.4,1182.68 2035.29,1183.17 2036.16,1183.67 2037.04,1184.16 2037.91,1184.64 2038.78,1185.13 2039.65,1185.62 2040.51,1186.1 2041.37,1186.58 2042.23,1187.07 2043.09,1187.55 2043.94,1188.02 2044.79,1188.5 2045.64,1188.98 2046.49,1189.45 2047.33,1189.92 2048.17,1190.39 2049.01,1190.86 2049.84,1191.33 2050.68,1191.8 2051.51,1192.27 2052.33,1192.73 2053.16,1193.19 2053.98,1193.65 2054.8,1194.11 2055.62,1194.57 2056.43,1195.03 2057.25,1195.49 2058.06,1195.94 2058.87,1196.39 2059.67,1196.85 2060.47,1197.3 2061.28,1197.75 2062.07,1198.19 2062.87,1198.64 2063.66,1199.08 2064.46,1199.53 2065.24,1199.97 2066.03,1200.41 2066.82,1200.85 2067.6,1201.29 2068.38,1201.73 2069.16,1202.16 2069.93,1202.6 2070.71,1203.03 2071.48,1203.47 2072.25,1203.9 2073.01,1204.33 2073.78,1204.75 2074.54,1205.18 2075.3,1205.61 2076.06,1206.03 2076.82,1206.46 2077.57,1206.88 2078.32,1207.3 2079.07,1207.72 2079.82,1208.14 2080.57,1208.56 2081.31,1208.97 2082.05,1209.39 2082.79,1209.8 2083.53,1210.22 2084.27,1210.63 2085,1211.04 2085.73,1211.45 2086.47,1211.86 2087.19,1212.26 2087.92,1212.67 2088.64,1213.07 2089.37,1213.48 2090.09,1213.88 2090.81,1214.28 2091.52,1214.68 2092.24,1215.08 2092.95,1215.48 2093.66,1215.88 2094.37,1216.27 2095.08,1216.67 2095.78,1217.06 2096.49,1217.46 2097.19,1217.85 2097.89,1218.24 2098.59,1218.63 2099.28,1219.02 2099.98,1219.41 2100.67,1219.79 2101.36,1220.18 2102.05,1220.56 2102.74,1220.95 2103.43,1221.33 2104.11,1221.71 2104.79,1222.09 2105.47,1222.47 2106.15,1222.85 2106.83,1223.23 2107.51,1223.61 2108.18,1223.98 2108.85,1224.36 2109.52,1224.73 2110.19,1225.1 2110.86,1225.48 2111.53,1225.85 2112.19,1226.22 2112.85,1226.59 2113.51,1226.96 2114.17,1227.32 2114.83,1227.69 2115.49,1228.06 2116.14,1228.42 2116.8,1228.79 2117.45,1229.15 2118.1,1229.51 2118.75,1229.87 2119.39,1230.23 2120.04,1230.59 2120.68,1230.95 2121.32,1231.31 2121.97,1231.67 2122.6,1232.03 2123.24,1232.38 2123.88,1232.74 2124.51,1233.09 2125.15,1233.44 2125.78,1233.8 2126.41,1234.15 2127.04,1234.5 2127.67,1234.85 2128.29,1235.2 2128.92,1235.55 2129.54,1235.9 2130.16,1236.24 2130.78,1236.59 2131.4,1236.93 2132.02,1237.28 2132.64,1237.62 2133.25,1237.97 2133.86,1238.31 2134.48,1238.65 2135.09,1238.99 2135.7,1239.33 2136.3,1239.67 2136.91,1240.01 2137.52,1240.35 2138.12,1240.69 2138.72,1241.03 2139.32,1241.36 2139.92,1241.7 2140.52,1242.03 2141.12,1242.37 2141.72,1242.7 2142.31,1243.04 2142.9,1243.37 2143.5,1243.7 2144.09,1244.03 2144.68,1244.36 2145.27,1244.69 2145.85,1245.02 2146.44,1245.35 2147.02,1245.68 2147.61,1246.01 2148.19,1246.33 2148.77,1246.66 2149.35,1246.99 2149.93,1247.31 2150.5,1247.64 2151.08,1247.96 2151.65,1248.28 2152.23,1248.61 2152.8,1248.93 2153.37,1249.25 2153.94,1249.57 2154.51,1249.89 2155.08,1250.21 2155.64,1250.53 2156.21,1250.85 2156.77,1251.17 2157.34,1251.49 2157.9,1251.81 2158.46,1252.12 2159.02,1252.44 2159.58,1252.76 2160.13,1253.07 2160.69,1253.39 2161.24,1253.7 2161.8,1254.02 2162.35,1254.33 2162.9,1254.64 2163.45,1254.96 2164,1255.27 2164.55,1255.58 2165.1,1255.89 2165.64,1256.2 2166.19,1256.51 2166.73,1256.82 2167.27,1257.13 2167.81,1257.44 2168.36,1257.75 2168.89,1258.06 2169.43,1258.37 2169.97,1258.67 2170.51,1258.98 2171.04,1259.29 2171.58,1259.59 2172.11,1259.9 2172.64,1260.2 2173.17,1260.51 2173.7,1260.81 2174.23,1261.12 2174.76,1261.42 2175.29,1261.72 2175.81,1262.03 2176.34,1262.33 2176.86,1262.63 2177.38,1262.93 2177.91,1263.23 2178.43,1263.54 2178.95,1263.84 2179.47,1264.14 2179.98,1264.44 2180.5,1264.74 2181.02,1265.04 2181.53,1265.33 2182.05,1265.63 2182.56,1265.93 2183.07,1266.23 2183.58,1266.53 2184.09,1266.82 2184.6,1267.12 2185.11,1267.42 2185.62,1267.71 2186.12,1268.01 2186.63,1268.31 2187.13,1268.6 2187.64,1268.9 2188.14,1269.19 2188.64,1269.49 2189.14,1269.78 2189.64,1270.07 2190.14,1270.37 2190.64,1270.66 2191.14,1270.95 2191.63,1271.25 2192.13,1271.54 2192.62,1271.83 2193.12,1272.12 2193.61,1272.41 2194.1,1272.71 2194.59,1273 2195.08,1273.29 2195.57,1273.58 2196.06,1273.87 2196.55,1274.16 2197.03,1274.45 2197.52,1274.74 2198,1275.03 2198.49,1275.32 2198.97,1275.6 2199.45,1275.89 2199.93,1276.18 2200.41,1276.47 2200.89,1276.76 2201.37,1277.04 2201.85,1277.33 2202.33,1277.62 2202.8,1277.91 2203.28,1278.19 2203.75,1278.48 2204.23,1278.77 2204.7,1279.05 2205.17,1279.34 2205.64,1279.62 2206.11,1279.91 2206.58,1280.19 2207.05,1280.48 2207.52,1280.76 2207.99,1281.05 2208.46,1281.33 2208.92,1281.62 2209.39,1281.9 2209.85,1282.18 2210.31,1282.47 2210.78,1282.75 2211.24,1283.03 2211.7,1283.32 2212.16,1283.6 2212.62,1283.88 2213.08,1284.16 2213.54,1284.45 2213.99,1284.73 2214.45,1285.01 2214.9,1285.29 2215.36,1285.57 2215.81,1285.86 2216.27,1286.14 2216.72,1286.42 2217.17,1286.7 2217.62,1286.98 2218.07,1287.26 2218.52,1287.54 2218.97,1287.82 2219.42,1288.1 2219.87,1288.38 2220.31,1288.66 2220.76,1288.94 2221.2,1289.22 2221.65,1289.5 2222.09,1289.78 2222.54,1290.06 2222.98,1290.34 2223.42,1290.62 2223.86,1290.9 2224.3,1291.17 2224.74,1291.45 2225.18,1291.73 2225.62,1292.01 2226.05,1292.29 2226.49,1292.56 2226.93,1292.84 2227.36,1293.12 2227.8,1293.4 2228.23,1293.68 2228.66,1293.95 2229.1,1294.23 2229.53,1294.51 2229.96,1294.78 2230.39,1295.06 2230.82,1295.34 2231.25,1295.61 2231.68,1295.89 2232.11,1296.17 2232.53,1296.44 2232.96,1296.72 2233.38,1296.99 2233.81,1297.27 2234.23,1297.55 2234.66,1297.82 2235.08,1298.1 2235.5,1298.37 2235.93,1298.65 2236.35,1298.92 2236.77,1299.2 2237.19,1299.47 2237.61,1299.75 2238.02,1300.02 2238.44,1300.3 2238.86,1300.57 2239.28,1300.85 2239.69,1301.12 2240.11,1301.4 2240.52,1301.67 2240.94,1301.95 2241.35,1302.22 2241.76,1302.49 2242.17,1302.77 2242.59,1303.04 2243,1303.32 2243.41,1303.59 2243.82,1303.86 2244.23,1304.14 2244.64,1304.41 2245.04,1304.69 2245.45,1304.96 2245.86,1305.23 2246.26,1305.51 2246.67,1305.78 2247.07,1306.05 2247.48,1306.32 2247.88,1306.6 2248.28,1306.87 2248.69,1307.14 2249.09,1307.42 2249.49,1307.69 2249.89,1307.96 2250.29,1308.23 2250.69,1308.51 2251.09,1308.78 2251.49,1309.05 2251.89,1309.32 2252.28,1309.6 2252.68,1309.87 2253.08,1310.14 2253.47,1310.41 2253.87,1310.68 2254.26,1310.96 2254.65,1311.23 2255.05,1311.5 2255.44,1311.77 2255.83,1312.04 2256.22,1312.31 2256.61,1312.59 2257.01,1312.86 2257.4,1313.13 2257.78,1313.4 2258.17,1313.67 2258.56,1313.94 2258.95,1314.22 2259.34,1314.49 2259.72,1314.76 2260.11,1315.03 2260.49,1315.3 2260.88,1315.57 2261.26,1315.84 2261.65,1316.11 2262.03,1316.38 2262.41,1316.65 2262.8,1316.93 2263.18,1317.2 2263.56,1317.47 2263.94,1317.74 2264.32,1318.01 2264.7,1318.28 2265.08,1318.55 2265.46,1318.82 2265.83,1319.09 2266.21,1319.36 2266.59,1319.63 2266.96,1319.9 2267.34,1320.17 2267.72,1320.44 2268.09,1320.71 2268.46,1320.98 2268.84,1321.25 2269.21,1321.52 2269.58,1321.79 2269.96,1322.06 2270.33,1322.33 2270.7,1322.6 2271.07,1322.87 2271.44,1323.14 2271.81,1323.41 2272.18,1323.68 2272.55,1323.95 2272.92,1324.22 2273.28,1324.49 2273.65,1324.76 2274.02,1325.03 2274.38,1325.3 2274.75,1325.57 2275.12,1325.84 2275.48,1326.11 2275.85,1326.38 2276.21,1326.65 2276.57,1326.92 2276.94,1327.19 2277.3,1327.46 2277.66,1327.73 2278.02,1328 2278.38,1328.27 2278.74,1328.54 2279.1,1328.81 2279.46,1329.08 2279.82,1329.35 2280.18,1329.62 2280.54,1329.89 2280.9,1330.16 2281.25,1330.42 2281.61,1330.69 2281.97,1330.96 2282.32,1331.23 2282.68,1331.5 2283.03,1331.77 2283.39,1332.04 2283.74,1332.31 2284.09,1332.58 2284.45,1332.85 2284.8,1333.12 2285.15,1333.39 2285.5,1333.65 2285.85,1333.92 2286.2,1334.19 2286.55,1334.46 2286.9,1334.73 2287.25,1335 2287.6,1335.27 2287.95,1335.54 2288.3,1335.81 2288.65,1336.08 2288.99,1336.34 2289.34,1336.61 2289.69,1336.88 2290.03,1337.15 2290.38,1337.42 2290.72,1337.69 2291.07,1337.96 2291.41,1338.23 2291.76,1338.5 2292.1,1338.76 2292.44,1339.03 "/>
<path clip-path="url(#clip260)" d="M1809.7 581.106 L2281.72 581.106 L2281.72 166.386 L1809.7 166.386  Z" fill="#ffffff" fill-rule="evenodd" fill-opacity="1"/>
<polyline clip-path="url(#clip260)" style="stroke:#000000; stroke-linecap:round; stroke-linejoin:round; stroke-width:4; stroke-opacity:1; fill:none" points="1809.7,581.106 2281.72,581.106 2281.72,166.386 1809.7,166.386 1809.7,581.106 "/>
<polyline clip-path="url(#clip260)" style="stroke:#009af9; stroke-linecap:round; stroke-linejoin:round; stroke-width:4; stroke-opacity:1; fill:none" points="1833.38,218.226 1975.45,218.226 "/>
<path clip-path="url(#clip260)" d="M1999.13 229.627 L2004.01 229.627 L2004.01 235.506 L1999.13 235.506 L1999.13 229.627 M1999.13 210.993 L2004.01 210.993 L2004.01 216.872 L1999.13 216.872 L1999.13 210.993 Z" fill="#000000" fill-rule="nonzero" fill-opacity="1" /><path clip-path="url(#clip260)" d="M2052.83 230.576 L2052.83 221.293 L2045.19 221.293 L2045.19 217.451 L2057.46 217.451 L2057.46 232.289 Q2054.75 234.21 2051.49 235.205 Q2048.23 236.178 2044.52 236.178 Q2036.42 236.178 2031.84 231.455 Q2027.28 226.71 2027.28 218.261 Q2027.28 209.789 2031.84 205.067 Q2036.42 200.321 2044.52 200.321 Q2047.9 200.321 2050.93 201.155 Q2053.99 201.988 2056.56 203.608 L2056.56 208.585 Q2053.97 206.386 2051.05 205.275 Q2048.13 204.164 2044.92 204.164 Q2038.57 204.164 2035.38 207.705 Q2032.21 211.247 2032.21 218.261 Q2032.21 225.252 2035.38 228.793 Q2038.57 232.335 2044.92 232.335 Q2047.39 232.335 2049.34 231.918 Q2051.28 231.479 2052.83 230.576 Z" fill="#000000" fill-rule="nonzero" fill-opacity="1" /><path clip-path="url(#clip260)" d="M2066 200.946 L2072.3 200.946 L2087.62 229.858 L2087.62 200.946 L2092.16 200.946 L2092.16 235.506 L2085.86 235.506 L2070.54 206.594 L2070.54 235.506 L2066 235.506 L2066 200.946 Z" fill="#000000" fill-rule="nonzero" fill-opacity="1" /><polyline clip-path="url(#clip260)" style="stroke:#e26f46; stroke-linecap:round; stroke-linejoin:round; stroke-width:4; stroke-opacity:1; fill:none" points="1833.38,270.066 1975.45,270.066 "/>
<path clip-path="url(#clip260)" d="M1999.13 281.467 L2004.01 281.467 L2004.01 287.346 L1999.13 287.346 L1999.13 281.467 M1999.13 262.833 L2004.01 262.833 L2004.01 268.712 L1999.13 268.712 L1999.13 262.833 Z" fill="#000000" fill-rule="nonzero" fill-opacity="1" /><path clip-path="url(#clip260)" d="M2033.94 256.629 L2033.94 283.504 L2039.59 283.504 Q2046.74 283.504 2050.05 280.263 Q2053.39 277.022 2053.39 270.032 Q2053.39 263.087 2050.05 259.87 Q2046.74 256.629 2039.59 256.629 L2033.94 256.629 M2029.27 252.786 L2038.87 252.786 Q2048.92 252.786 2053.62 256.976 Q2058.32 261.143 2058.32 270.032 Q2058.32 278.967 2053.6 283.156 Q2048.87 287.346 2038.87 287.346 L2029.27 287.346 L2029.27 252.786 Z" fill="#000000" fill-rule="nonzero" fill-opacity="1" /><path clip-path="url(#clip260)" d="M2085.29 295.217 L2085.29 298.527 L2060.66 298.527 L2060.66 295.217 L2085.29 295.217 Z" fill="#000000" fill-rule="nonzero" fill-opacity="1" /><path clip-path="url(#clip260)" d="M2110.19 253.921 L2110.19 258.481 Q2107.53 257.208 2105.17 256.583 Q2102.81 255.958 2100.61 255.958 Q2096.79 255.958 2094.71 257.439 Q2092.65 258.921 2092.65 261.652 Q2092.65 263.944 2094.01 265.124 Q2095.4 266.282 2099.24 266.999 L2102.07 267.578 Q2107.3 268.573 2109.78 271.096 Q2112.28 273.596 2112.28 277.809 Q2112.28 282.832 2108.9 285.425 Q2105.54 288.018 2099.04 288.018 Q2096.58 288.018 2093.8 287.462 Q2091.05 286.906 2088.09 285.819 L2088.09 281.004 Q2090.93 282.601 2093.67 283.411 Q2096.4 284.221 2099.04 284.221 Q2103.04 284.221 2105.22 282.647 Q2107.39 281.073 2107.39 278.157 Q2107.39 275.61 2105.82 274.175 Q2104.27 272.74 2100.7 272.022 L2097.86 271.467 Q2092.62 270.425 2090.29 268.203 Q2087.95 265.981 2087.95 262.022 Q2087.95 257.439 2091.17 254.8 Q2094.41 252.161 2100.08 252.161 Q2102.51 252.161 2105.03 252.601 Q2107.55 253.041 2110.19 253.921 Z" fill="#000000" fill-rule="nonzero" fill-opacity="1" /><path clip-path="url(#clip260)" d="M2124.24 256.629 L2124.24 269.615 L2130.12 269.615 Q2133.39 269.615 2135.17 267.925 Q2136.95 266.235 2136.95 263.11 Q2136.95 260.008 2135.17 258.319 Q2133.39 256.629 2130.12 256.629 L2124.24 256.629 M2119.57 252.786 L2130.12 252.786 Q2135.93 252.786 2138.9 255.425 Q2141.88 258.041 2141.88 263.11 Q2141.88 268.226 2138.9 270.842 Q2135.93 273.457 2130.12 273.457 L2124.24 273.457 L2124.24 287.346 L2119.57 287.346 L2119.57 252.786 Z" fill="#000000" fill-rule="nonzero" fill-opacity="1" /><path clip-path="url(#clip260)" d="M2171.72 282.416 L2171.72 273.133 L2164.08 273.133 L2164.08 269.291 L2176.35 269.291 L2176.35 284.129 Q2173.64 286.05 2170.38 287.045 Q2167.11 288.018 2163.41 288.018 Q2155.31 288.018 2150.73 283.295 Q2146.17 278.55 2146.17 270.101 Q2146.17 261.629 2150.73 256.907 Q2155.31 252.161 2163.41 252.161 Q2166.79 252.161 2169.82 252.995 Q2172.88 253.828 2175.45 255.448 L2175.45 260.425 Q2172.85 258.226 2169.94 257.115 Q2167.02 256.004 2163.8 256.004 Q2157.46 256.004 2154.27 259.545 Q2151.1 263.087 2151.1 270.101 Q2151.1 277.092 2154.27 280.633 Q2157.46 284.175 2163.8 284.175 Q2166.28 284.175 2168.23 283.758 Q2170.17 283.319 2171.72 282.416 Z" fill="#000000" fill-rule="nonzero" fill-opacity="1" /><polyline clip-path="url(#clip260)" style="stroke:#3da44d; stroke-linecap:round; stroke-linejoin:round; stroke-width:4; stroke-opacity:1; fill:none" points="1833.38,321.906 1975.45,321.906 "/>
<path clip-path="url(#clip260)" d="M1999.13 333.307 L2004.01 333.307 L2004.01 339.186 L1999.13 339.186 L1999.13 333.307 M1999.13 314.673 L2004.01 314.673 L2004.01 320.552 L1999.13 320.552 L1999.13 314.673 Z" fill="#000000" fill-rule="nonzero" fill-opacity="1" /><path clip-path="url(#clip260)" d="M2033.94 308.469 L2033.94 335.344 L2039.59 335.344 Q2046.74 335.344 2050.05 332.103 Q2053.39 328.862 2053.39 321.872 Q2053.39 314.927 2050.05 311.71 Q2046.74 308.469 2039.59 308.469 L2033.94 308.469 M2029.27 304.626 L2038.87 304.626 Q2048.92 304.626 2053.62 308.816 Q2058.32 312.983 2058.32 321.872 Q2058.32 330.807 2053.6 334.996 Q2048.87 339.186 2038.87 339.186 L2029.27 339.186 L2029.27 304.626 Z" fill="#000000" fill-rule="nonzero" fill-opacity="1" /><path clip-path="url(#clip260)" d="M2085.29 347.057 L2085.29 350.367 L2060.66 350.367 L2060.66 347.057 L2085.29 347.057 Z" fill="#000000" fill-rule="nonzero" fill-opacity="1" /><path clip-path="url(#clip260)" d="M2087.48 304.626 L2114.64 304.626 L2114.64 308.191 L2092.79 335.251 L2115.17 335.251 L2115.17 339.186 L2086.95 339.186 L2086.95 335.621 L2108.8 308.561 L2087.48 308.561 L2087.48 304.626 Z" fill="#000000" fill-rule="nonzero" fill-opacity="1" /><path clip-path="url(#clip260)" d="M2143.32 323.538 L2143.32 339.186 L2139.06 339.186 L2139.06 323.677 Q2139.06 319.997 2137.62 318.168 Q2136.19 316.339 2133.32 316.339 Q2129.87 316.339 2127.88 318.538 Q2125.89 320.737 2125.89 324.534 L2125.89 339.186 L2121.61 339.186 L2121.61 303.168 L2125.89 303.168 L2125.89 317.288 Q2127.42 314.95 2129.48 313.793 Q2131.56 312.635 2134.27 312.635 Q2138.73 312.635 2141.03 315.413 Q2143.32 318.168 2143.32 323.538 Z" fill="#000000" fill-rule="nonzero" fill-opacity="1" /><path clip-path="url(#clip260)" d="M2151.37 328.955 L2151.37 313.26 L2155.63 313.26 L2155.63 328.793 Q2155.63 332.473 2157.07 334.325 Q2158.5 336.154 2161.37 336.154 Q2164.82 336.154 2166.81 333.955 Q2168.83 331.756 2168.83 327.959 L2168.83 313.26 L2173.09 313.26 L2173.09 339.186 L2168.83 339.186 L2168.83 335.205 Q2167.28 337.566 2165.22 338.723 Q2163.18 339.858 2160.47 339.858 Q2156 339.858 2153.69 337.08 Q2151.37 334.302 2151.37 328.955 M2162.09 312.635 L2162.09 312.635 Z" fill="#000000" fill-rule="nonzero" fill-opacity="1" /><polyline clip-path="url(#clip260)" style="stroke:#c271d2; stroke-linecap:round; stroke-linejoin:round; stroke-width:4; stroke-opacity:1; fill:none" points="1833.38,373.746 1975.45,373.746 "/>
<path clip-path="url(#clip260)" d="M1999.13 385.147 L2004.01 385.147 L2004.01 391.026 L1999.13 391.026 L1999.13 385.147 M1999.13 366.513 L2004.01 366.513 L2004.01 372.392 L1999.13 372.392 L1999.13 366.513 Z" fill="#000000" fill-rule="nonzero" fill-opacity="1" /><path clip-path="url(#clip260)" d="M2033.94 360.309 L2033.94 387.184 L2039.59 387.184 Q2046.74 387.184 2050.05 383.943 Q2053.39 380.702 2053.39 373.712 Q2053.39 366.767 2050.05 363.55 Q2046.74 360.309 2039.59 360.309 L2033.94 360.309 M2029.27 356.466 L2038.87 356.466 Q2048.92 356.466 2053.62 360.656 Q2058.32 364.823 2058.32 373.712 Q2058.32 382.647 2053.6 386.836 Q2048.87 391.026 2038.87 391.026 L2029.27 391.026 L2029.27 356.466 Z" fill="#000000" fill-rule="nonzero" fill-opacity="1" /><path clip-path="url(#clip260)" d="M2085.29 398.897 L2085.29 402.207 L2060.66 402.207 L2060.66 398.897 L2085.29 398.897 Z" fill="#000000" fill-rule="nonzero" fill-opacity="1" /><path clip-path="url(#clip260)" d="M2101.03 361.073 L2094.68 378.272 L2107.39 378.272 L2101.03 361.073 M2098.39 356.466 L2103.69 356.466 L2116.86 391.026 L2112 391.026 L2108.85 382.161 L2093.27 382.161 L2090.12 391.026 L2085.19 391.026 L2098.39 356.466 Z" fill="#000000" fill-rule="nonzero" fill-opacity="1" /><path clip-path="url(#clip260)" d="M2143.27 375.378 L2143.27 391.026 L2139.01 391.026 L2139.01 375.517 Q2139.01 371.837 2137.58 370.008 Q2136.14 368.179 2133.27 368.179 Q2129.82 368.179 2127.83 370.378 Q2125.84 372.577 2125.84 376.374 L2125.84 391.026 L2121.56 391.026 L2121.56 365.1 L2125.84 365.1 L2125.84 369.128 Q2127.37 366.79 2129.43 365.633 Q2131.51 364.475 2134.22 364.475 Q2138.69 364.475 2140.98 367.253 Q2143.27 370.008 2143.27 375.378 Z" fill="#000000" fill-rule="nonzero" fill-opacity="1" /><path clip-path="url(#clip260)" d="M2168.83 369.036 L2168.83 355.008 L2173.09 355.008 L2173.09 391.026 L2168.83 391.026 L2168.83 387.137 Q2167.48 389.452 2165.42 390.586 Q2163.39 391.698 2160.52 391.698 Q2155.82 391.698 2152.85 387.948 Q2149.92 384.198 2149.92 378.087 Q2149.92 371.975 2152.85 368.225 Q2155.82 364.475 2160.52 364.475 Q2163.39 364.475 2165.42 365.61 Q2167.48 366.721 2168.83 369.036 M2154.31 378.087 Q2154.31 382.786 2156.23 385.471 Q2158.18 388.133 2161.56 388.133 Q2164.94 388.133 2166.88 385.471 Q2168.83 382.786 2168.83 378.087 Q2168.83 373.387 2166.88 370.725 Q2164.94 368.04 2161.56 368.04 Q2158.18 368.04 2156.23 370.725 Q2154.31 373.387 2154.31 378.087 Z" fill="#000000" fill-rule="nonzero" fill-opacity="1" /><path clip-path="url(#clip260)" d="M2196.88 369.082 Q2196.16 368.665 2195.31 368.48 Q2194.48 368.272 2193.46 368.272 Q2189.85 368.272 2187.9 370.633 Q2185.98 372.971 2185.98 377.369 L2185.98 391.026 L2181.7 391.026 L2181.7 365.1 L2185.98 365.1 L2185.98 369.128 Q2187.32 366.767 2189.48 365.633 Q2191.63 364.475 2194.71 364.475 Q2195.15 364.475 2195.68 364.545 Q2196.21 364.591 2196.86 364.707 L2196.88 369.082 Z" fill="#000000" fill-rule="nonzero" fill-opacity="1" /><path clip-path="url(#clip260)" d="M2222.48 376.999 L2222.48 379.082 L2202.9 379.082 Q2203.18 383.48 2205.54 385.795 Q2207.92 388.086 2212.16 388.086 Q2214.61 388.086 2216.91 387.485 Q2219.22 386.883 2221.49 385.679 L2221.49 389.707 Q2219.2 390.679 2216.79 391.188 Q2214.38 391.698 2211.91 391.698 Q2205.7 391.698 2202.07 388.086 Q2198.46 384.475 2198.46 378.318 Q2198.46 371.952 2201.88 368.225 Q2205.33 364.475 2211.16 364.475 Q2216.4 364.475 2219.43 367.855 Q2222.48 371.212 2222.48 376.999 M2218.22 375.749 Q2218.18 372.253 2216.26 370.17 Q2214.36 368.087 2211.21 368.087 Q2207.65 368.087 2205.49 370.1 Q2203.36 372.114 2203.04 375.772 L2218.22 375.749 Z" fill="#000000" fill-rule="nonzero" fill-opacity="1" /><path clip-path="url(#clip260)" d="M2229.47 365.1 L2233.73 365.1 L2233.73 391.026 L2229.47 391.026 L2229.47 365.1 M2229.47 355.008 L2233.73 355.008 L2233.73 360.401 L2229.47 360.401 L2229.47 355.008 Z" fill="#000000" fill-rule="nonzero" fill-opacity="1" /><polyline clip-path="url(#clip260)" style="stroke:#ac8d18; stroke-linecap:round; stroke-linejoin:round; stroke-width:4; stroke-opacity:1; fill:none" points="1833.38,425.586 1975.45,425.586 "/>
<path clip-path="url(#clip260)" d="M1999.13 436.987 L2004.01 436.987 L2004.01 442.866 L1999.13 442.866 L1999.13 436.987 M1999.13 418.353 L2004.01 418.353 L2004.01 424.232 L1999.13 424.232 L1999.13 418.353 Z" fill="#000000" fill-rule="nonzero" fill-opacity="1" /><path clip-path="url(#clip260)" d="M2040.86 429.834 Q2035.7 429.834 2033.71 431.014 Q2031.72 432.195 2031.72 435.042 Q2031.72 437.311 2033.2 438.653 Q2034.71 439.973 2037.28 439.973 Q2040.82 439.973 2042.95 437.473 Q2045.1 434.95 2045.1 430.783 L2045.1 429.834 L2040.86 429.834 M2049.36 428.075 L2049.36 442.866 L2045.1 442.866 L2045.1 438.931 Q2043.64 441.292 2041.47 442.426 Q2039.29 443.538 2036.14 443.538 Q2032.16 443.538 2029.8 441.315 Q2027.46 439.07 2027.46 435.32 Q2027.46 430.945 2030.38 428.723 Q2033.32 426.501 2039.13 426.501 L2045.1 426.501 L2045.1 426.084 Q2045.1 423.144 2043.16 421.547 Q2041.24 419.927 2037.74 419.927 Q2035.52 419.927 2033.41 420.459 Q2031.3 420.991 2029.36 422.056 L2029.36 418.121 Q2031.7 417.218 2033.9 416.778 Q2036.1 416.315 2038.18 416.315 Q2043.8 416.315 2046.58 419.232 Q2049.36 422.149 2049.36 428.075 Z" fill="#000000" fill-rule="nonzero" fill-opacity="1" /><path clip-path="url(#clip260)" d="M2058.13 406.848 L2062.39 406.848 L2062.39 442.866 L2058.13 442.866 L2058.13 406.848 Z" fill="#000000" fill-rule="nonzero" fill-opacity="1" /><path clip-path="url(#clip260)" d="M2075.52 409.579 L2075.52 416.94 L2084.29 416.94 L2084.29 420.251 L2075.52 420.251 L2075.52 434.325 Q2075.52 437.496 2076.37 438.399 Q2077.25 439.301 2079.92 439.301 L2084.29 439.301 L2084.29 442.866 L2079.92 442.866 Q2074.98 442.866 2073.11 441.038 Q2071.23 439.186 2071.23 434.325 L2071.23 420.251 L2068.11 420.251 L2068.11 416.94 L2071.23 416.94 L2071.23 409.579 L2075.52 409.579 Z" fill="#000000" fill-rule="nonzero" fill-opacity="1" /><path clip-path="url(#clip260)" d="M2109.59 450.737 L2109.59 454.047 L2084.96 454.047 L2084.96 450.737 L2109.59 450.737 Z" fill="#000000" fill-rule="nonzero" fill-opacity="1" /><path clip-path="url(#clip260)" d="M2134.5 409.441 L2134.5 414.001 Q2131.84 412.728 2129.48 412.103 Q2127.11 411.478 2124.92 411.478 Q2121.1 411.478 2119.01 412.959 Q2116.95 414.441 2116.95 417.172 Q2116.95 419.464 2118.32 420.644 Q2119.71 421.802 2123.55 422.519 L2126.37 423.098 Q2131.61 424.093 2134.08 426.616 Q2136.58 429.116 2136.58 433.329 Q2136.58 438.352 2133.2 440.945 Q2129.85 443.538 2123.34 443.538 Q2120.89 443.538 2118.11 442.982 Q2115.36 442.426 2112.39 441.339 L2112.39 436.524 Q2115.24 438.121 2117.97 438.931 Q2120.7 439.741 2123.34 439.741 Q2127.35 439.741 2129.52 438.167 Q2131.7 436.593 2131.7 433.677 Q2131.7 431.13 2130.12 429.695 Q2128.57 428.26 2125.01 427.542 L2122.16 426.987 Q2116.93 425.945 2114.59 423.723 Q2112.25 421.501 2112.25 417.542 Q2112.25 412.959 2115.47 410.32 Q2118.71 407.681 2124.38 407.681 Q2126.81 407.681 2129.34 408.121 Q2131.86 408.561 2134.5 409.441 Z" fill="#000000" fill-rule="nonzero" fill-opacity="1" /><path clip-path="url(#clip260)" d="M2148.55 412.149 L2148.55 425.135 L2154.43 425.135 Q2157.69 425.135 2159.48 423.445 Q2161.26 421.755 2161.26 418.63 Q2161.26 415.528 2159.48 413.839 Q2157.69 412.149 2154.43 412.149 L2148.55 412.149 M2143.87 408.306 L2154.43 408.306 Q2160.24 408.306 2163.2 410.945 Q2166.19 413.561 2166.19 418.63 Q2166.19 423.746 2163.2 426.362 Q2160.24 428.977 2154.43 428.977 L2148.55 428.977 L2148.55 442.866 L2143.87 442.866 L2143.87 408.306 Z" fill="#000000" fill-rule="nonzero" fill-opacity="1" /><path clip-path="url(#clip260)" d="M2196.03 437.936 L2196.03 428.653 L2188.39 428.653 L2188.39 424.811 L2200.66 424.811 L2200.66 439.649 Q2197.95 441.57 2194.68 442.565 Q2191.42 443.538 2187.72 443.538 Q2179.61 443.538 2175.03 438.815 Q2170.47 434.07 2170.47 425.621 Q2170.47 417.149 2175.03 412.427 Q2179.61 407.681 2187.72 407.681 Q2191.1 407.681 2194.13 408.515 Q2197.18 409.348 2199.75 410.968 L2199.75 415.945 Q2197.16 413.746 2194.24 412.635 Q2191.33 411.524 2188.11 411.524 Q2181.77 411.524 2178.57 415.065 Q2175.4 418.607 2175.4 425.621 Q2175.4 432.612 2178.57 436.153 Q2181.77 439.695 2188.11 439.695 Q2190.59 439.695 2192.53 439.278 Q2194.48 438.839 2196.03 437.936 Z" fill="#000000" fill-rule="nonzero" fill-opacity="1" /><polyline clip-path="url(#clip260)" style="stroke:#00a9ad; stroke-linecap:round; stroke-linejoin:round; stroke-width:4; stroke-opacity:1; fill:none" points="1833.38,477.426 1975.45,477.426 "/>
<path clip-path="url(#clip260)" d="M1999.13 488.827 L2004.01 488.827 L2004.01 494.706 L1999.13 494.706 L1999.13 488.827 M1999.13 470.193 L2004.01 470.193 L2004.01 476.072 L1999.13 476.072 L1999.13 470.193 Z" fill="#000000" fill-rule="nonzero" fill-opacity="1" /><path clip-path="url(#clip260)" d="M2040.86 481.674 Q2035.7 481.674 2033.71 482.854 Q2031.72 484.035 2031.72 486.882 Q2031.72 489.151 2033.2 490.493 Q2034.71 491.813 2037.28 491.813 Q2040.82 491.813 2042.95 489.313 Q2045.1 486.79 2045.1 482.623 L2045.1 481.674 L2040.86 481.674 M2049.36 479.915 L2049.36 494.706 L2045.1 494.706 L2045.1 490.771 Q2043.64 493.132 2041.47 494.266 Q2039.29 495.378 2036.14 495.378 Q2032.16 495.378 2029.8 493.155 Q2027.46 490.91 2027.46 487.16 Q2027.46 482.785 2030.38 480.563 Q2033.32 478.341 2039.13 478.341 L2045.1 478.341 L2045.1 477.924 Q2045.1 474.984 2043.16 473.387 Q2041.24 471.767 2037.74 471.767 Q2035.52 471.767 2033.41 472.299 Q2031.3 472.831 2029.36 473.896 L2029.36 469.961 Q2031.7 469.058 2033.9 468.618 Q2036.1 468.155 2038.18 468.155 Q2043.8 468.155 2046.58 471.072 Q2049.36 473.989 2049.36 479.915 Z" fill="#000000" fill-rule="nonzero" fill-opacity="1" /><path clip-path="url(#clip260)" d="M2058.13 458.688 L2062.39 458.688 L2062.39 494.706 L2058.13 494.706 L2058.13 458.688 Z" fill="#000000" fill-rule="nonzero" fill-opacity="1" /><path clip-path="url(#clip260)" d="M2075.52 461.419 L2075.52 468.78 L2084.29 468.78 L2084.29 472.091 L2075.52 472.091 L2075.52 486.165 Q2075.52 489.336 2076.37 490.239 Q2077.25 491.141 2079.92 491.141 L2084.29 491.141 L2084.29 494.706 L2079.92 494.706 Q2074.98 494.706 2073.11 492.878 Q2071.23 491.026 2071.23 486.165 L2071.23 472.091 L2068.11 472.091 L2068.11 468.78 L2071.23 468.78 L2071.23 461.419 L2075.52 461.419 Z" fill="#000000" fill-rule="nonzero" fill-opacity="1" /><path clip-path="url(#clip260)" d="M2109.59 502.577 L2109.59 505.887 L2084.96 505.887 L2084.96 502.577 L2109.59 502.577 Z" fill="#000000" fill-rule="nonzero" fill-opacity="1" /><path clip-path="url(#clip260)" d="M2111.79 460.146 L2138.94 460.146 L2138.94 463.711 L2117.09 490.771 L2139.48 490.771 L2139.48 494.706 L2111.26 494.706 L2111.26 491.141 L2133.11 464.081 L2111.79 464.081 L2111.79 460.146 Z" fill="#000000" fill-rule="nonzero" fill-opacity="1" /><path clip-path="url(#clip260)" d="M2167.62 479.058 L2167.62 494.706 L2163.36 494.706 L2163.36 479.197 Q2163.36 475.517 2161.93 473.688 Q2160.49 471.859 2157.62 471.859 Q2154.17 471.859 2152.18 474.058 Q2150.19 476.257 2150.19 480.054 L2150.19 494.706 L2145.91 494.706 L2145.91 458.688 L2150.19 458.688 L2150.19 472.808 Q2151.72 470.47 2153.78 469.313 Q2155.86 468.155 2158.57 468.155 Q2163.04 468.155 2165.33 470.933 Q2167.62 473.688 2167.62 479.058 Z" fill="#000000" fill-rule="nonzero" fill-opacity="1" /><path clip-path="url(#clip260)" d="M2175.68 484.475 L2175.68 468.78 L2179.94 468.78 L2179.94 484.313 Q2179.94 487.993 2181.37 489.845 Q2182.81 491.674 2185.68 491.674 Q2189.13 491.674 2191.12 489.475 Q2193.13 487.276 2193.13 483.479 L2193.13 468.78 L2197.39 468.78 L2197.39 494.706 L2193.13 494.706 L2193.13 490.725 Q2191.58 493.086 2189.52 494.243 Q2187.48 495.378 2184.78 495.378 Q2180.31 495.378 2177.99 492.6 Q2175.68 489.822 2175.68 484.475 M2186.4 468.155 L2186.4 468.155 Z" fill="#000000" fill-rule="nonzero" fill-opacity="1" /><polyline clip-path="url(#clip260)" style="stroke:#ed5d92; stroke-linecap:round; stroke-linejoin:round; stroke-width:4; stroke-opacity:1; fill:none" points="1833.38,529.266 1975.45,529.266 "/>
<path clip-path="url(#clip260)" d="M1999.13 540.667 L2004.01 540.667 L2004.01 546.546 L1999.13 546.546 L1999.13 540.667 M1999.13 522.033 L2004.01 522.033 L2004.01 527.912 L1999.13 527.912 L1999.13 522.033 Z" fill="#000000" fill-rule="nonzero" fill-opacity="1" /><path clip-path="url(#clip260)" d="M2040.86 533.514 Q2035.7 533.514 2033.71 534.694 Q2031.72 535.875 2031.72 538.722 Q2031.72 540.991 2033.2 542.333 Q2034.71 543.653 2037.28 543.653 Q2040.82 543.653 2042.95 541.153 Q2045.1 538.63 2045.1 534.463 L2045.1 533.514 L2040.86 533.514 M2049.36 531.755 L2049.36 546.546 L2045.1 546.546 L2045.1 542.611 Q2043.64 544.972 2041.47 546.106 Q2039.29 547.218 2036.14 547.218 Q2032.16 547.218 2029.8 544.995 Q2027.46 542.75 2027.46 539 Q2027.46 534.625 2030.38 532.403 Q2033.32 530.181 2039.13 530.181 L2045.1 530.181 L2045.1 529.764 Q2045.1 526.824 2043.16 525.227 Q2041.24 523.607 2037.74 523.607 Q2035.52 523.607 2033.41 524.139 Q2031.3 524.671 2029.36 525.736 L2029.36 521.801 Q2031.7 520.898 2033.9 520.458 Q2036.1 519.995 2038.18 519.995 Q2043.8 519.995 2046.58 522.912 Q2049.36 525.829 2049.36 531.755 Z" fill="#000000" fill-rule="nonzero" fill-opacity="1" /><path clip-path="url(#clip260)" d="M2058.13 510.528 L2062.39 510.528 L2062.39 546.546 L2058.13 546.546 L2058.13 510.528 Z" fill="#000000" fill-rule="nonzero" fill-opacity="1" /><path clip-path="url(#clip260)" d="M2075.52 513.259 L2075.52 520.62 L2084.29 520.62 L2084.29 523.931 L2075.52 523.931 L2075.52 538.005 Q2075.52 541.176 2076.37 542.079 Q2077.25 542.981 2079.92 542.981 L2084.29 542.981 L2084.29 546.546 L2079.92 546.546 Q2074.98 546.546 2073.11 544.718 Q2071.23 542.866 2071.23 538.005 L2071.23 523.931 L2068.11 523.931 L2068.11 520.62 L2071.23 520.62 L2071.23 513.259 L2075.52 513.259 Z" fill="#000000" fill-rule="nonzero" fill-opacity="1" /><path clip-path="url(#clip260)" d="M2109.59 554.417 L2109.59 557.727 L2084.96 557.727 L2084.96 554.417 L2109.59 554.417 Z" fill="#000000" fill-rule="nonzero" fill-opacity="1" /><path clip-path="url(#clip260)" d="M2125.33 516.593 L2118.99 533.792 L2131.7 533.792 L2125.33 516.593 M2122.69 511.986 L2127.99 511.986 L2141.17 546.546 L2136.3 546.546 L2133.16 537.681 L2117.58 537.681 L2114.43 546.546 L2109.5 546.546 L2122.69 511.986 Z" fill="#000000" fill-rule="nonzero" fill-opacity="1" /><path clip-path="url(#clip260)" d="M2167.58 530.898 L2167.58 546.546 L2163.32 546.546 L2163.32 531.037 Q2163.32 527.357 2161.88 525.528 Q2160.45 523.699 2157.58 523.699 Q2154.13 523.699 2152.14 525.898 Q2150.15 528.097 2150.15 531.894 L2150.15 546.546 L2145.86 546.546 L2145.86 520.62 L2150.15 520.62 L2150.15 524.648 Q2151.67 522.31 2153.73 521.153 Q2155.82 519.995 2158.53 519.995 Q2162.99 519.995 2165.29 522.773 Q2167.58 525.528 2167.58 530.898 Z" fill="#000000" fill-rule="nonzero" fill-opacity="1" /><path clip-path="url(#clip260)" d="M2193.13 524.556 L2193.13 510.528 L2197.39 510.528 L2197.39 546.546 L2193.13 546.546 L2193.13 542.657 Q2191.79 544.972 2189.73 546.106 Q2187.69 547.218 2184.82 547.218 Q2180.12 547.218 2177.16 543.468 Q2174.22 539.718 2174.22 533.607 Q2174.22 527.495 2177.16 523.745 Q2180.12 519.995 2184.82 519.995 Q2187.69 519.995 2189.73 521.13 Q2191.79 522.241 2193.13 524.556 M2178.62 533.607 Q2178.62 538.306 2180.54 540.991 Q2182.48 543.653 2185.86 543.653 Q2189.24 543.653 2191.19 540.991 Q2193.13 538.306 2193.13 533.607 Q2193.13 528.907 2191.19 526.245 Q2189.24 523.56 2185.86 523.56 Q2182.48 523.56 2180.54 526.245 Q2178.62 528.907 2178.62 533.607 Z" fill="#000000" fill-rule="nonzero" fill-opacity="1" /><path clip-path="url(#clip260)" d="M2221.19 524.602 Q2220.47 524.185 2219.61 524 Q2218.78 523.792 2217.76 523.792 Q2214.15 523.792 2212.21 526.153 Q2210.29 528.491 2210.29 532.889 L2210.29 546.546 L2206 546.546 L2206 520.62 L2210.29 520.62 L2210.29 524.648 Q2211.63 522.287 2213.78 521.153 Q2215.93 519.995 2219.01 519.995 Q2219.45 519.995 2219.98 520.065 Q2220.52 520.111 2221.16 520.227 L2221.19 524.602 Z" fill="#000000" fill-rule="nonzero" fill-opacity="1" /><path clip-path="url(#clip260)" d="M2246.79 532.519 L2246.79 534.602 L2227.21 534.602 Q2227.48 539 2229.85 541.315 Q2232.23 543.606 2236.47 543.606 Q2238.92 543.606 2241.21 543.005 Q2243.53 542.403 2245.79 541.199 L2245.79 545.227 Q2243.5 546.199 2241.1 546.708 Q2238.69 547.218 2236.21 547.218 Q2230.01 547.218 2226.37 543.606 Q2222.76 539.995 2222.76 533.838 Q2222.76 527.472 2226.19 523.745 Q2229.64 519.995 2235.47 519.995 Q2240.7 519.995 2243.73 523.375 Q2246.79 526.732 2246.79 532.519 M2242.53 531.269 Q2242.48 527.773 2240.56 525.69 Q2238.66 523.607 2235.52 523.607 Q2231.95 523.607 2229.8 525.62 Q2227.67 527.634 2227.35 531.292 L2242.53 531.269 Z" fill="#000000" fill-rule="nonzero" fill-opacity="1" /><path clip-path="url(#clip260)" d="M2253.78 520.62 L2258.04 520.62 L2258.04 546.546 L2253.78 546.546 L2253.78 520.62 M2253.78 510.528 L2258.04 510.528 L2258.04 515.921 L2253.78 515.921 L2253.78 510.528 Z" fill="#000000" fill-rule="nonzero" fill-opacity="1" /></svg>
